<?xml version="1.0" encoding="utf-8"?>
<!-- Generator: Adobe Illustrator 25.4.0, SVG Export Plug-In . SVG Version: 6.00 Build 0)  -->
<svg version="1.1" id="Layer_1" xmlns="http://www.w3.org/2000/svg" xmlns:xlink="http://www.w3.org/1999/xlink" x="0px" y="0px"
	 viewBox="0 0 1157.8 755.7" style="enable-background:new 0 0 1157.8 755.7;" xml:space="preserve">
<style type="text/css">
	.st0{fill:#4196B1;}
	.st1{fill:#AAE0E4;}
	.st2{fill:#99B8BF;}
	.st3{fill:#8ECCCE;}
	.st4{opacity:0.74;fill:#575757;enable-background:new    ;}
	.st5{enable-background:new    ;}
	.st6{fill:#FFFFFF;}
	.st7{fill:none;stroke:#EDEDED;stroke-width:8;stroke-miterlimit:10;}
	.st8{fill:none;stroke:#EDEDED;stroke-width:4;stroke-miterlimit:10;}
	.st9{fill:#EBF1F2;}
	.st10{fill:#767E80;}
	.st11{fill:none;stroke:#7A8E93;stroke-width:0.5;stroke-miterlimit:10;}
	.st12{fill:#EBF2F2;}
	.st13{fill:#7A8E93;stroke:#7A8E93;stroke-width:0.5;stroke-miterlimit:10;}
</style>
<g id="shadow">
	<polygon class="st0" points="43.4,54.8 43.4,725 122.9,725 122.9,686.6 180,686.6 180,725 310.1,725 310.1,684.8 547,684.8 
		547,383.9 748.2,383.9 748.2,561.2 942,561.2 942,389.9 1148.9,389.9 1148.9,200.8 1108.6,200.8 1108.6,143.7 1148.9,143.7 
		1148.9,54.8 	"/>
</g>
<g id="background">
	<polygon class="st1" points="33.3,44.9 33.3,707.4 111.9,707.4 111.9,669.5 168.4,669.5 168.4,707.4 297,707.4 297,667.6 
		531.1,667.6 531.1,370.2 730.1,370.2 730.1,545.5 921.6,545.5 921.6,376.1 1126.1,376.1 1126.1,189.2 1086.3,189.2 1086.3,132.8 
		1126.1,132.8 1126.1,44.9 	"/>
</g>
<g id="spaces">
	<rect x="93.2" y="134.5" class="st2" width="65.3" height="72"/>
	<rect x="98.9" y="90.5" class="st3" width="105" height="30.8"/>
	<rect x="223" y="287.4" class="st3" width="89.9" height="43.3"/>
	<rect x="114.5" y="581" class="st3" width="60.1" height="40.8"/>
	<rect x="53.4" y="521.3" class="st3" width="27.8" height="103.6"/>
	<polygon class="st3" points="199.2,555.4 430,555.4 494.6,666 376.6,667.6 370.8,627.7 217.1,649.5 	"/>
	<polygon class="st3" points="93.2,205.6 150.1,206.5 150.1,287.4 190.7,288.5 190.7,545.2 114.5,545.2 115.4,457.1 31.9,457.4 
		33.3,213.1 93.2,214 	"/>
	<polygon class="st3" points="249.4,109.2 401.2,109.2 410.1,109.2 410.1,71.8 528.6,72.9 528.5,101.5 499.5,101.5 464.2,194.8 
		214.8,193.1 214.8,158 	"/>
	<polygon class="st3" points="609.6,72.9 609.6,109.2 714.4,109.2 762.1,109.2 847.5,96.9 847.5,223.6 525,223.3 528.6,72.9 	"/>
	<path class="st3" d="M847.5,152.4h50l9.9,6.9l2.4,6.9H941l1.8-66.7h44l1.6,29.9h20.3v-9.6h40.9v149.1l76.6-1.6l-1.4,108.8
		l-170.2-1.3V200.2h-22.5c0,0-8.7,11.5-22.1,13s-31.8-1.6-31.8-1.6l-15.4-9.8l-11.4-15.6l-3.8-6.8L847.5,152.4z"/>
	<rect x="1016" y="44.9" class="st3" width="31.2" height="45.1"/>
	<polygon class="st2" points="190.7,288.5 223,287.4 223,526.4 417.6,526.4 423.2,533.5 531.1,533.5 531.1,667.6 494.6,666 
		430,555.4 199.2,555.4 204.9,585.4 174.6,591.5 174.6,581 114.5,581 114.5,545.2 190.7,545.2 	"/>
	<polygon class="st2" points="193.5,193.1 464.2,194.8 499.5,101.5 525,101.5 525,217.1 458,217.1 455.3,224 223,224 223,241.2 
		193.5,237.1 	"/>
	<polygon class="st2" points="33.3,213.1 93.2,214 93.2,134.5 203.9,134.5 203.9,121.3 98.9,121.3 98.9,90.5 203.9,90.5 205.4,71.8 
		609.6,72.9 766.7,72.9 766.7,64.7 1016,64.7 1016,44.9 701.6,43.6 33.3,44.9 	"/>
	<polygon class="st2" points="31.9,457.4 82.8,457.4 82.8,521.3 53.4,521.3 53.4,667.6 111.9,667.6 111.9,707.4 33.3,707.4 	"/>
	<path class="st2" d="M847.4,179.3c0,0,9.9,20.9,18.6,26.1s15.8,10.4,29.8,9s29.7-7.7,29.7-7.7l6.3-6.7h22.5v174.7h-32.8v170.6
		H730.1V370.2h-199v169.1H213.9V330.7h98.9v-76L223,241.2V224h232.3l2.7-6.9h67v6.2h322.5L847.4,179.3z"/>
</g>
<g id="bookable">
	<polygon id="area-02.GS01-status" class="st4" points="361.5,555.4 430,555.4 495.6,669.5 376.6,669.5 	"/>
	<polygon id="area-02.GS02-status" class="st4" points="267.3,555.4 361.5,555.4 370.6,627.8 265.9,644.4 	"/>
	<polygon id="area-02.GS03-status" class="st4" points="199.2,555.4 267.3,555.4 265.9,642.6 217.1,649.5 	"/>
	<rect id="area-02.GS06-status" x="29.8" y="375.4" class="st4" width="161" height="81.7"/>
	<rect id="area-02.GB01-status" x="33.3" y="287.4" class="st4" width="157.4" height="88"/>
	<polygon id="area-02.GB05-status" class="st4" points="410.1,72.9 528.6,72.9 528.6,101.5 498.1,101.5 466.2,194.8 401.2,194.4 
		400.2,109.2 410.1,109.2 	"/>
	<polygon id="area-02.GB03-status" class="st4" points="249.4,109.2 325.8,109.2 324.8,193.1 214.8,193.1 214.8,158 	"/>
	<rect id="area-02.GM01-status" x="526.5" y="74.8" class="st4" width="83.1" height="148.6"/>
	<polygon id="area-02.GM04-status" class="st4" points="847.5,96.9 847.5,223.9 777.8,223.9 777.8,107.7 	"/>
	<g class="st5">
		<path class="st6" d="M407.7,616.1v-1.4h3.7v3.4c-0.4,0.4-0.9,0.7-1.6,0.9s-1.4,0.4-2.1,0.4c-0.9,0-1.7-0.2-2.3-0.6
			s-1.2-0.9-1.5-1.6s-0.5-1.5-0.5-2.3c0-0.9,0.2-1.7,0.6-2.4s0.9-1.2,1.6-1.6c0.6-0.3,1.2-0.4,2.1-0.4c1.1,0,1.9,0.2,2.5,0.7
			s1,1.1,1.2,1.9l-1.7,0.3c-0.1-0.4-0.3-0.8-0.7-1s-0.8-0.4-1.3-0.4c-0.8,0-1.4,0.2-1.8,0.7s-0.7,1.2-0.7,2.1c0,1,0.2,1.8,0.7,2.3
			s1,0.8,1.8,0.8c0.4,0,0.7-0.1,1.1-0.2s0.7-0.3,0.9-0.5v-1.1H407.7z"/>
		<path class="st6" d="M412.6,616.5l1.7-0.2c0.1,0.6,0.3,1,0.6,1.2s0.7,0.4,1.3,0.4c0.6,0,1-0.1,1.3-0.4s0.4-0.5,0.4-0.8
			c0-0.2-0.1-0.4-0.2-0.5s-0.3-0.3-0.6-0.4c-0.2-0.1-0.7-0.2-1.4-0.4c-0.9-0.2-1.6-0.5-2-0.8c-0.5-0.5-0.8-1-0.8-1.7
			c0-0.4,0.1-0.8,0.4-1.2s0.6-0.7,1.1-0.9s1-0.3,1.7-0.3c1.1,0,1.9,0.2,2.4,0.7s0.8,1.1,0.9,1.9l-1.7,0.1c-0.1-0.4-0.2-0.8-0.5-1
			s-0.6-0.3-1.1-0.3c-0.5,0-0.9,0.1-1.2,0.3c-0.2,0.1-0.3,0.3-0.3,0.5c0,0.2,0.1,0.4,0.3,0.5c0.2,0.2,0.8,0.4,1.6,0.6
			s1.5,0.4,1.9,0.6s0.7,0.5,0.9,0.9s0.3,0.8,0.3,1.4c0,0.5-0.1,1-0.4,1.4s-0.7,0.7-1.2,1s-1.1,0.3-1.9,0.3c-1.1,0-1.9-0.3-2.5-0.8
			S412.7,617.4,412.6,616.5z"/>
		<path class="st6" d="M423.5,610.6c0.8,0,1.5,0.3,2,0.9c0.6,0.7,0.8,1.9,0.8,3.5c0,1.6-0.3,2.8-0.8,3.5c-0.5,0.6-1.1,0.9-1.9,0.9
			c-0.8,0-1.5-0.3-2-1s-0.8-1.8-0.8-3.4c0-1.6,0.3-2.8,0.8-3.5C422,610.9,422.6,610.6,423.5,610.6z M423.5,612
			c-0.2,0-0.4,0.1-0.5,0.2s-0.3,0.4-0.4,0.7c-0.1,0.4-0.2,1.1-0.2,2.2s0.1,1.7,0.2,2.1s0.2,0.6,0.4,0.8s0.3,0.2,0.5,0.2
			s0.4-0.1,0.5-0.2s0.3-0.4,0.4-0.7c0.1-0.4,0.2-1.1,0.2-2.1s-0.1-1.7-0.2-2.1s-0.2-0.6-0.4-0.8S423.7,612,423.5,612z"/>
		<path class="st6" d="M431.6,619.3h-1.6v-6.2c-0.6,0.6-1.3,1-2.1,1.2v-1.5c0.4-0.1,0.9-0.4,1.4-0.8s0.8-0.9,1-1.4h1.3V619.3z"/>
	</g>
	<g class="st5">
		<path class="st6" d="M305.2,598.2v-1.4h3.7v3.4c-0.4,0.4-0.9,0.7-1.6,0.9s-1.4,0.4-2.1,0.4c-0.9,0-1.7-0.2-2.3-0.6
			s-1.2-0.9-1.5-1.6s-0.5-1.5-0.5-2.3c0-0.9,0.2-1.7,0.6-2.4s0.9-1.2,1.6-1.6c0.6-0.3,1.2-0.4,2.1-0.4c1.1,0,1.9,0.2,2.5,0.7
			s1,1.1,1.2,1.9l-1.7,0.3c-0.1-0.4-0.3-0.8-0.7-1s-0.8-0.4-1.3-0.4c-0.8,0-1.4,0.2-1.8,0.7s-0.7,1.2-0.7,2.1c0,1,0.2,1.8,0.7,2.3
			s1,0.8,1.8,0.8c0.4,0,0.7-0.1,1.1-0.2s0.7-0.3,0.9-0.5v-1.1H305.2z"/>
		<path class="st6" d="M310.1,598.6l1.7-0.2c0.1,0.6,0.3,1,0.6,1.2s0.7,0.4,1.3,0.4c0.6,0,1-0.1,1.3-0.4s0.4-0.5,0.4-0.8
			c0-0.2-0.1-0.4-0.2-0.5s-0.3-0.3-0.6-0.4c-0.2-0.1-0.7-0.2-1.4-0.4c-0.9-0.2-1.6-0.5-2-0.8c-0.5-0.5-0.8-1-0.8-1.7
			c0-0.4,0.1-0.8,0.4-1.2s0.6-0.7,1.1-0.9s1-0.3,1.7-0.3c1.1,0,1.9,0.2,2.4,0.7s0.8,1.1,0.9,1.9l-1.7,0.1c-0.1-0.4-0.2-0.8-0.5-1
			s-0.6-0.3-1.1-0.3c-0.5,0-0.9,0.1-1.2,0.3c-0.2,0.1-0.3,0.3-0.3,0.5c0,0.2,0.1,0.4,0.3,0.5c0.2,0.2,0.8,0.4,1.6,0.6
			s1.5,0.4,1.9,0.6s0.7,0.5,0.9,0.9s0.3,0.8,0.3,1.4c0,0.5-0.1,1-0.4,1.4s-0.7,0.7-1.2,1s-1.1,0.3-1.9,0.3c-1.1,0-1.9-0.3-2.5-0.8
			S310.2,599.6,310.1,598.6z"/>
		<path class="st6" d="M321,592.8c0.8,0,1.5,0.3,2,0.9c0.6,0.7,0.8,1.9,0.8,3.5c0,1.6-0.3,2.8-0.8,3.5c-0.5,0.6-1.1,0.9-1.9,0.9
			c-0.8,0-1.5-0.3-2-1s-0.8-1.8-0.8-3.4c0-1.6,0.3-2.8,0.8-3.5C319.5,593.1,320.1,592.8,321,592.8z M321,594.1
			c-0.2,0-0.4,0.1-0.5,0.2s-0.3,0.4-0.4,0.7c-0.1,0.4-0.2,1.1-0.2,2.2s0.1,1.7,0.2,2.1s0.2,0.6,0.4,0.8s0.3,0.2,0.5,0.2
			s0.4-0.1,0.5-0.2s0.3-0.4,0.4-0.7c0.1-0.4,0.2-1.1,0.2-2.1s-0.1-1.7-0.2-2.1s-0.2-0.6-0.4-0.8S321.2,594.1,321,594.1z"/>
		<path class="st6" d="M330.4,599.9v1.5h-5.8c0.1-0.6,0.2-1.1,0.6-1.6s0.9-1.2,1.9-2.1c0.7-0.7,1.2-1.2,1.4-1.4
			c0.2-0.3,0.3-0.7,0.3-1c0-0.4-0.1-0.6-0.3-0.8s-0.5-0.3-0.8-0.3c-0.3,0-0.6,0.1-0.8,0.3s-0.3,0.6-0.4,1l-1.6-0.2
			c0.1-0.9,0.4-1.6,0.9-2s1.2-0.6,1.9-0.6c0.8,0,1.5,0.2,2,0.7s0.7,1,0.7,1.7c0,0.4-0.1,0.8-0.2,1.1s-0.4,0.7-0.7,1.1
			c-0.2,0.3-0.6,0.6-1.1,1.1s-0.8,0.8-1,0.9s-0.3,0.3-0.3,0.5H330.4z"/>
	</g>
	<g class="st5">
		<path class="st6" d="M227.8,601.4V600h3.7v3.4c-0.4,0.4-0.9,0.7-1.6,0.9s-1.4,0.4-2.1,0.4c-0.9,0-1.7-0.2-2.3-0.6
			s-1.2-0.9-1.5-1.6s-0.5-1.5-0.5-2.3c0-0.9,0.2-1.7,0.6-2.4s0.9-1.2,1.6-1.6c0.6-0.3,1.2-0.4,2.1-0.4c1.1,0,1.9,0.2,2.5,0.7
			s1,1.1,1.2,1.9l-1.7,0.3c-0.1-0.4-0.3-0.8-0.7-1s-0.8-0.4-1.3-0.4c-0.8,0-1.4,0.2-1.8,0.7s-0.7,1.2-0.7,2.1c0,1,0.2,1.8,0.7,2.3
			s1,0.8,1.8,0.8c0.4,0,0.7-0.1,1.1-0.2s0.7-0.3,0.9-0.5v-1.1H227.8z"/>
		<path class="st6" d="M232.7,601.8l1.7-0.2c0.1,0.6,0.3,1,0.6,1.2s0.7,0.4,1.3,0.4c0.6,0,1-0.1,1.3-0.4s0.4-0.5,0.4-0.8
			c0-0.2-0.1-0.4-0.2-0.5s-0.3-0.3-0.6-0.4c-0.2-0.1-0.7-0.2-1.4-0.4c-0.9-0.2-1.6-0.5-2-0.8c-0.5-0.5-0.8-1-0.8-1.7
			c0-0.4,0.1-0.8,0.4-1.2s0.6-0.7,1.1-0.9s1-0.3,1.7-0.3c1.1,0,1.9,0.2,2.4,0.7s0.8,1.1,0.9,1.9l-1.7,0.1c-0.1-0.4-0.2-0.8-0.5-1
			s-0.6-0.3-1.1-0.3c-0.5,0-0.9,0.1-1.2,0.3c-0.2,0.1-0.3,0.3-0.3,0.5c0,0.2,0.1,0.4,0.3,0.5c0.2,0.2,0.8,0.4,1.6,0.6
			s1.5,0.4,1.9,0.6s0.7,0.5,0.9,0.9s0.3,0.8,0.3,1.4c0,0.5-0.1,1-0.4,1.4s-0.7,0.7-1.2,1s-1.1,0.3-1.9,0.3c-1.1,0-1.9-0.3-2.5-0.8
			S232.8,602.8,232.7,601.8z"/>
		<path class="st6" d="M243.6,596c0.8,0,1.5,0.3,2,0.9c0.6,0.7,0.8,1.9,0.8,3.5c0,1.6-0.3,2.8-0.8,3.5c-0.5,0.6-1.1,0.9-1.9,0.9
			c-0.8,0-1.5-0.3-2-1s-0.8-1.8-0.8-3.4c0-1.6,0.3-2.8,0.8-3.5C242.1,596.3,242.8,596,243.6,596z M243.6,597.3
			c-0.2,0-0.4,0.1-0.5,0.2s-0.3,0.4-0.4,0.7c-0.1,0.4-0.2,1.1-0.2,2.2s0.1,1.7,0.2,2.1s0.2,0.6,0.4,0.8s0.3,0.2,0.5,0.2
			s0.4-0.1,0.5-0.2s0.3-0.4,0.4-0.7c0.1-0.4,0.2-1.1,0.2-2.1s-0.1-1.7-0.2-2.1s-0.2-0.6-0.4-0.8S243.8,597.3,243.6,597.3z"/>
		<path class="st6" d="M247.4,602.3l1.6-0.2c0.1,0.4,0.2,0.7,0.4,0.9s0.5,0.3,0.8,0.3c0.3,0,0.6-0.1,0.9-0.4s0.3-0.6,0.3-1
			c0-0.4-0.1-0.7-0.3-1s-0.5-0.4-0.8-0.4c-0.2,0-0.5,0-0.8,0.1l0.2-1.3c0.4,0,0.8-0.1,1-0.3s0.4-0.5,0.4-0.8c0-0.3-0.1-0.5-0.3-0.7
			s-0.4-0.3-0.7-0.3c-0.3,0-0.5,0.1-0.7,0.3s-0.3,0.5-0.4,0.9l-1.5-0.3c0.1-0.5,0.3-0.9,0.5-1.2s0.5-0.6,0.9-0.7s0.8-0.3,1.3-0.3
			c0.8,0,1.5,0.3,1.9,0.8c0.4,0.4,0.6,0.9,0.6,1.4c0,0.8-0.4,1.4-1.2,1.8c0.5,0.1,0.9,0.3,1.2,0.7s0.4,0.8,0.4,1.3
			c0,0.8-0.3,1.4-0.8,1.9s-1.2,0.8-2.1,0.8c-0.8,0-1.4-0.2-1.9-0.7S247.5,603,247.4,602.3z"/>
	</g>
	<g class="st5">
		<path class="st6" d="M98.3,414.8v-1.4h3.7v3.4c-0.4,0.4-0.9,0.7-1.6,0.9s-1.4,0.4-2.1,0.4c-0.9,0-1.7-0.2-2.3-0.6
			s-1.2-0.9-1.5-1.6s-0.5-1.5-0.5-2.3c0-0.9,0.2-1.7,0.6-2.4s0.9-1.2,1.6-1.6c0.6-0.3,1.2-0.4,2.1-0.4c1.1,0,1.9,0.2,2.5,0.7
			s1,1.1,1.2,1.9l-1.7,0.3c-0.1-0.4-0.3-0.8-0.7-1s-0.8-0.4-1.3-0.4c-0.8,0-1.4,0.2-1.8,0.7s-0.7,1.2-0.7,2.1c0,1,0.2,1.8,0.7,2.3
			s1,0.8,1.8,0.8c0.4,0,0.7-0.1,1.1-0.2s0.7-0.3,0.9-0.5v-1.1H98.3z"/>
		<path class="st6" d="M103.2,415.2l1.7-0.2c0.1,0.6,0.3,1,0.6,1.2s0.7,0.4,1.3,0.4c0.6,0,1-0.1,1.3-0.4s0.4-0.5,0.4-0.8
			c0-0.2-0.1-0.4-0.2-0.5s-0.3-0.3-0.6-0.4c-0.2-0.1-0.7-0.2-1.4-0.4c-0.9-0.2-1.6-0.5-2-0.8c-0.5-0.5-0.8-1-0.8-1.7
			c0-0.4,0.1-0.8,0.4-1.2s0.6-0.7,1.1-0.9s1-0.3,1.7-0.3c1.1,0,1.9,0.2,2.4,0.7s0.8,1.1,0.9,1.9l-1.7,0.1c-0.1-0.4-0.2-0.8-0.5-1
			s-0.6-0.3-1.1-0.3c-0.5,0-0.9,0.1-1.2,0.3c-0.2,0.1-0.3,0.3-0.3,0.5c0,0.2,0.1,0.4,0.3,0.5c0.2,0.2,0.8,0.4,1.6,0.6
			s1.5,0.4,1.9,0.6s0.7,0.5,0.9,0.9s0.3,0.8,0.3,1.4c0,0.5-0.1,1-0.4,1.4s-0.7,0.7-1.2,1s-1.1,0.3-1.9,0.3c-1.1,0-1.9-0.3-2.5-0.8
			S103.3,416.1,103.2,415.2z"/>
		<path class="st6" d="M114,409.3c0.8,0,1.5,0.3,2,0.9c0.6,0.7,0.8,1.9,0.8,3.5c0,1.6-0.3,2.8-0.8,3.5c-0.5,0.6-1.1,0.9-1.9,0.9
			c-0.8,0-1.5-0.3-2-1s-0.8-1.8-0.8-3.4c0-1.6,0.3-2.8,0.8-3.5C112.6,409.6,113.2,409.3,114,409.3z M114,410.7
			c-0.2,0-0.4,0.1-0.5,0.2s-0.3,0.4-0.4,0.7c-0.1,0.4-0.2,1.1-0.2,2.2s0.1,1.7,0.2,2.1s0.2,0.6,0.4,0.8s0.3,0.2,0.5,0.2
			s0.4-0.1,0.5-0.2s0.3-0.4,0.4-0.7c0.1-0.4,0.2-1.1,0.2-2.1s-0.1-1.7-0.2-2.1s-0.2-0.6-0.4-0.8S114.2,410.7,114,410.7z"/>
		<path class="st6" d="M123.5,411.5l-1.6,0.2c0-0.3-0.1-0.6-0.3-0.7s-0.4-0.2-0.6-0.2c-0.3,0-0.6,0.2-0.9,0.5s-0.4,1-0.5,2
			c0.4-0.5,0.9-0.7,1.5-0.7c0.7,0,1.3,0.3,1.8,0.8s0.7,1.2,0.7,2c0,0.9-0.3,1.6-0.8,2.1s-1.2,0.8-2,0.8c-0.9,0-1.6-0.3-2.1-1
			s-0.8-1.8-0.8-3.3c0-1.6,0.3-2.7,0.9-3.4s1.3-1,2.3-1c0.7,0,1.2,0.2,1.6,0.5S123.4,410.8,123.5,411.5z M119.8,415.1
			c0,0.5,0.1,0.9,0.4,1.2s0.5,0.4,0.8,0.4c0.3,0,0.6-0.1,0.8-0.4s0.3-0.6,0.3-1.2c0-0.6-0.1-1-0.3-1.2s-0.5-0.4-0.8-0.4
			c-0.3,0-0.6,0.1-0.8,0.4S119.8,414.6,119.8,415.1z"/>
	</g>
	<g class="st5">
		<path class="st6" d="M98.9,334.4V333h3.7v3.4c-0.4,0.4-0.9,0.7-1.6,0.9s-1.4,0.4-2.1,0.4c-0.9,0-1.7-0.2-2.3-0.6s-1.2-0.9-1.5-1.6
			s-0.5-1.5-0.5-2.3c0-0.9,0.2-1.7,0.6-2.4s0.9-1.2,1.6-1.6c0.6-0.3,1.2-0.4,2.1-0.4c1.1,0,1.9,0.2,2.5,0.7s1,1.1,1.2,1.9l-1.7,0.3
			c-0.1-0.4-0.3-0.8-0.7-1s-0.8-0.4-1.3-0.4c-0.8,0-1.4,0.2-1.8,0.7s-0.7,1.2-0.7,2.1c0,1,0.2,1.8,0.7,2.3s1,0.8,1.8,0.8
			c0.4,0,0.7-0.1,1.1-0.2s0.7-0.3,0.9-0.5v-1.1H98.9z"/>
		<path class="st6" d="M105.4,333.2l-1.5-0.3c0.2-0.6,0.5-1,0.9-1.3s1-0.4,1.8-0.4c0.7,0,1.3,0.1,1.6,0.3s0.6,0.4,0.8,0.7
			s0.2,0.8,0.2,1.5l0,1.9c0,0.5,0,1,0.1,1.2s0.2,0.5,0.3,0.8H108c0-0.1-0.1-0.3-0.2-0.5c0-0.1,0-0.2-0.1-0.2
			c-0.3,0.3-0.6,0.5-0.9,0.6s-0.7,0.2-1,0.2c-0.6,0-1.1-0.2-1.5-0.5s-0.6-0.8-0.6-1.3c0-0.4,0.1-0.7,0.3-0.9s0.4-0.5,0.7-0.6
			s0.7-0.3,1.3-0.4c0.8-0.1,1.3-0.3,1.6-0.4v-0.2c0-0.3-0.1-0.5-0.2-0.7s-0.5-0.2-0.9-0.2c-0.3,0-0.5,0.1-0.7,0.2
			S105.5,332.9,105.4,333.2z M107.6,334.6c-0.2,0.1-0.5,0.2-1,0.3s-0.8,0.2-0.9,0.3c-0.2,0.2-0.3,0.3-0.3,0.6c0,0.2,0.1,0.4,0.3,0.6
			s0.4,0.3,0.7,0.3c0.3,0,0.6-0.1,0.8-0.3c0.2-0.1,0.3-0.3,0.4-0.5c0-0.1,0.1-0.4,0.1-0.8V334.6z"/>
		<path class="st6" d="M110.9,337.6V329h1.6v8.6H110.9z"/>
		<path class="st6" d="M114.2,337.6V329h1.6v8.6H114.2z"/>
		<path class="st6" d="M121.1,335.6l1.6,0.3c-0.2,0.6-0.5,1.1-1,1.4s-1,0.5-1.7,0.5c-1.1,0-1.9-0.4-2.4-1.1
			c-0.4-0.6-0.6-1.3-0.6-2.1c0-1,0.3-1.8,0.8-2.4s1.2-0.9,2-0.9c0.9,0,1.7,0.3,2.2,0.9s0.8,1.5,0.8,2.8h-4.1c0,0.5,0.1,0.9,0.4,1.1
			s0.6,0.4,0.9,0.4c0.3,0,0.5-0.1,0.7-0.2S121,335.9,121.1,335.6z M121.2,333.9c0-0.5-0.1-0.8-0.4-1.1s-0.5-0.4-0.9-0.4
			c-0.4,0-0.7,0.1-0.9,0.4s-0.3,0.6-0.3,1.1H121.2z"/>
		<path class="st6" d="M125.8,337.6h-1.6v-6.2h1.5v0.9c0.3-0.4,0.5-0.7,0.7-0.8s0.4-0.2,0.7-0.2c0.4,0,0.7,0.1,1.1,0.3l-0.5,1.4
			c-0.3-0.2-0.5-0.3-0.8-0.3c-0.2,0-0.4,0.1-0.6,0.2s-0.3,0.4-0.4,0.7s-0.1,1-0.1,2.1V337.6z"/>
		<path class="st6" d="M128.1,331.3h1.8l1.5,4.4l1.5-4.4h1.7l-2.2,6l-0.4,1.1c-0.1,0.4-0.3,0.6-0.4,0.8s-0.3,0.3-0.5,0.5
			s-0.4,0.2-0.6,0.3s-0.5,0.1-0.8,0.1c-0.3,0-0.6,0-0.9-0.1l-0.1-1.3c0.3,0.1,0.5,0.1,0.7,0.1c0.4,0,0.7-0.1,0.8-0.3
			s0.3-0.5,0.4-0.9L128.1,331.3z"/>
	</g>
	<g class="st5">
		<path class="st6" d="M258.7,152.9v-1.4h3.7v3.4c-0.4,0.4-0.9,0.7-1.6,0.9s-1.4,0.4-2.1,0.4c-0.9,0-1.7-0.2-2.3-0.6
			s-1.2-0.9-1.5-1.6s-0.5-1.5-0.5-2.3c0-0.9,0.2-1.7,0.6-2.4s0.9-1.2,1.6-1.6c0.6-0.3,1.2-0.4,2.1-0.4c1.1,0,1.9,0.2,2.5,0.7
			s1,1.1,1.2,1.9l-1.7,0.3c-0.1-0.4-0.3-0.8-0.7-1s-0.8-0.4-1.3-0.4c-0.8,0-1.4,0.2-1.8,0.7s-0.7,1.2-0.7,2.1c0,1,0.2,1.8,0.7,2.3
			s1,0.8,1.8,0.8c0.4,0,0.7-0.1,1.1-0.2s0.7-0.3,0.9-0.5v-1.1H258.7z"/>
		<path class="st6" d="M264.1,147.5h3.4c0.7,0,1.2,0,1.5,0.1s0.6,0.2,0.9,0.4s0.5,0.4,0.7,0.7s0.3,0.6,0.3,1c0,0.4-0.1,0.8-0.3,1.1
			s-0.5,0.6-0.9,0.8c0.5,0.2,0.9,0.4,1.2,0.8s0.4,0.8,0.4,1.3c0,0.4-0.1,0.8-0.3,1.1s-0.4,0.7-0.7,0.9s-0.7,0.4-1.2,0.4
			c-0.3,0-1,0.1-2.1,0.1h-2.9V147.5z M265.8,148.9v2h1.1c0.7,0,1.1,0,1.3,0c0.3,0,0.5-0.1,0.7-0.3s0.3-0.4,0.3-0.7
			c0-0.3-0.1-0.5-0.2-0.6s-0.4-0.3-0.7-0.3c-0.2,0-0.7,0-1.5,0H265.8z M265.8,152.3v2.3h1.6c0.6,0,1,0,1.2-0.1
			c0.3,0,0.5-0.2,0.6-0.3s0.2-0.4,0.2-0.7c0-0.3-0.1-0.5-0.2-0.7s-0.3-0.3-0.5-0.4s-0.7-0.1-1.5-0.1H265.8z"/>
		<path class="st6" d="M275.1,147.4c0.8,0,1.5,0.3,2,0.9c0.6,0.7,0.8,1.9,0.8,3.5c0,1.6-0.3,2.8-0.8,3.5c-0.5,0.6-1.1,0.9-1.9,0.9
			c-0.8,0-1.5-0.3-2-1s-0.8-1.8-0.8-3.4c0-1.6,0.3-2.8,0.8-3.5C273.7,147.7,274.3,147.4,275.1,147.4z M275.1,148.8
			c-0.2,0-0.4,0.1-0.5,0.2s-0.3,0.4-0.4,0.7c-0.1,0.4-0.2,1.1-0.2,2.2s0.1,1.7,0.2,2.1s0.2,0.6,0.4,0.8s0.3,0.2,0.5,0.2
			s0.4-0.1,0.5-0.2s0.3-0.4,0.4-0.7c0.1-0.4,0.2-1.1,0.2-2.1s-0.1-1.7-0.2-2.1s-0.2-0.6-0.4-0.8S275.3,148.8,275.1,148.8z"/>
		<path class="st6" d="M279,153.8l1.6-0.2c0.1,0.4,0.2,0.7,0.4,0.9s0.5,0.3,0.8,0.3c0.3,0,0.6-0.1,0.9-0.4s0.3-0.6,0.3-1
			c0-0.4-0.1-0.7-0.3-1s-0.5-0.4-0.8-0.4c-0.2,0-0.5,0-0.8,0.1l0.2-1.3c0.4,0,0.8-0.1,1-0.3s0.4-0.5,0.4-0.8c0-0.3-0.1-0.5-0.3-0.7
			s-0.4-0.3-0.7-0.3c-0.3,0-0.5,0.1-0.7,0.3s-0.3,0.5-0.4,0.9l-1.5-0.3c0.1-0.5,0.3-0.9,0.5-1.2s0.5-0.6,0.9-0.7s0.8-0.3,1.3-0.3
			c0.8,0,1.5,0.3,1.9,0.8c0.4,0.4,0.6,0.9,0.6,1.4c0,0.8-0.4,1.4-1.2,1.8c0.5,0.1,0.9,0.3,1.2,0.7s0.4,0.8,0.4,1.3
			c0,0.8-0.3,1.4-0.8,1.9s-1.2,0.8-2.1,0.8c-0.8,0-1.4-0.2-1.9-0.7S279.1,154.5,279,153.8z"/>
	</g>
	<g class="st5">
		<path class="st6" d="M428,135.8v-1.4h3.7v3.4c-0.4,0.4-0.9,0.7-1.6,0.9s-1.4,0.4-2.1,0.4c-0.9,0-1.7-0.2-2.3-0.6s-1.2-0.9-1.5-1.6
			s-0.5-1.5-0.5-2.3c0-0.9,0.2-1.7,0.6-2.4s0.9-1.2,1.6-1.6c0.6-0.3,1.2-0.4,2.1-0.4c1.1,0,1.9,0.2,2.5,0.7s1,1.1,1.2,1.9l-1.7,0.3
			c-0.1-0.4-0.3-0.8-0.7-1s-0.8-0.4-1.3-0.4c-0.8,0-1.4,0.2-1.8,0.7s-0.7,1.2-0.7,2.1c0,1,0.2,1.8,0.7,2.3s1,0.8,1.8,0.8
			c0.4,0,0.7-0.1,1.1-0.2s0.7-0.3,0.9-0.5v-1.1H428z"/>
		<path class="st6" d="M433.3,130.4h3.4c0.7,0,1.2,0,1.5,0.1s0.6,0.2,0.9,0.4s0.5,0.4,0.7,0.7s0.3,0.6,0.3,1c0,0.4-0.1,0.8-0.3,1.1
			s-0.5,0.6-0.9,0.8c0.5,0.2,0.9,0.4,1.2,0.8s0.4,0.8,0.4,1.3c0,0.4-0.1,0.8-0.3,1.1s-0.4,0.7-0.7,0.9s-0.7,0.4-1.2,0.4
			c-0.3,0-1,0.1-2.1,0.1h-2.9V130.4z M435.1,131.8v2h1.1c0.7,0,1.1,0,1.3,0c0.3,0,0.5-0.1,0.7-0.3s0.3-0.4,0.3-0.7
			c0-0.3-0.1-0.5-0.2-0.6s-0.4-0.3-0.7-0.3c-0.2,0-0.7,0-1.5,0H435.1z M435.1,135.2v2.3h1.6c0.6,0,1,0,1.2-0.1
			c0.3,0,0.5-0.2,0.6-0.3s0.2-0.4,0.2-0.7c0-0.3-0.1-0.5-0.2-0.7s-0.3-0.3-0.5-0.4s-0.7-0.1-1.5-0.1H435.1z"/>
		<path class="st6" d="M444.4,130.3c0.8,0,1.5,0.3,2,0.9c0.6,0.7,0.8,1.9,0.8,3.5c0,1.6-0.3,2.8-0.8,3.5c-0.5,0.6-1.1,0.9-1.9,0.9
			c-0.8,0-1.5-0.3-2-1s-0.8-1.8-0.8-3.4c0-1.6,0.3-2.8,0.8-3.5C442.9,130.6,443.6,130.3,444.4,130.3z M444.4,131.7
			c-0.2,0-0.4,0.1-0.5,0.2s-0.3,0.4-0.4,0.7c-0.1,0.4-0.2,1.1-0.2,2.2s0.1,1.7,0.2,2.1s0.2,0.6,0.4,0.8s0.3,0.2,0.5,0.2
			s0.4-0.1,0.5-0.2s0.3-0.4,0.4-0.7c0.1-0.4,0.2-1.1,0.2-2.1s-0.1-1.7-0.2-2.1s-0.2-0.6-0.4-0.8S444.6,131.7,444.4,131.7z"/>
		<path class="st6" d="M448.3,136.7l1.6-0.2c0,0.4,0.2,0.7,0.4,0.9s0.5,0.3,0.8,0.3c0.3,0,0.6-0.1,0.9-0.4s0.4-0.7,0.4-1.3
			c0-0.5-0.1-0.9-0.4-1.2s-0.5-0.4-0.9-0.4c-0.5,0-0.9,0.2-1.3,0.6l-1.3-0.2l0.8-4.5h4.4v1.5h-3.1l-0.3,1.5c0.4-0.2,0.7-0.3,1.1-0.3
			c0.7,0,1.3,0.3,1.9,0.8s0.8,1.2,0.8,2.1c0,0.7-0.2,1.3-0.6,1.9c-0.6,0.8-1.3,1.1-2.3,1.1c-0.8,0-1.4-0.2-1.9-0.6
			S448.4,137.5,448.3,136.7z"/>
	</g>
	<g class="st5">
		<path class="st6" d="M560.2,146v-1.4h3.7v3.4c-0.4,0.4-0.9,0.7-1.6,0.9s-1.4,0.4-2.1,0.4c-0.9,0-1.7-0.2-2.3-0.6s-1.2-0.9-1.5-1.6
			s-0.5-1.5-0.5-2.3c0-0.9,0.2-1.7,0.6-2.4s0.9-1.2,1.6-1.6c0.6-0.3,1.2-0.4,2.1-0.4c1.1,0,1.9,0.2,2.5,0.7s1,1.1,1.2,1.9l-1.7,0.3
			c-0.1-0.4-0.3-0.8-0.7-1s-0.8-0.4-1.3-0.4c-0.8,0-1.4,0.2-1.8,0.7s-0.7,1.2-0.7,2.1c0,1,0.2,1.8,0.7,2.3s1,0.8,1.8,0.8
			c0.4,0,0.7-0.1,1.1-0.2s0.7-0.3,0.9-0.5V146H560.2z"/>
		<path class="st6" d="M565.6,149.1v-8.6h2.6l1.6,5.9l1.5-5.9h2.6v8.6h-1.6v-6.8l-1.7,6.8h-1.7l-1.7-6.8v6.8H565.6z"/>
		<path class="st6" d="M578,140.5c0.8,0,1.5,0.3,2,0.9c0.6,0.7,0.8,1.9,0.8,3.5c0,1.6-0.3,2.8-0.8,3.5c-0.5,0.6-1.1,0.9-1.9,0.9
			c-0.8,0-1.5-0.3-2-1s-0.8-1.8-0.8-3.4c0-1.6,0.3-2.8,0.8-3.5C576.5,140.8,577.2,140.5,578,140.5z M578,141.9
			c-0.2,0-0.4,0.1-0.5,0.2s-0.3,0.4-0.4,0.7c-0.1,0.4-0.2,1.1-0.2,2.2s0.1,1.7,0.2,2.1s0.2,0.6,0.4,0.8s0.3,0.2,0.5,0.2
			s0.4-0.1,0.5-0.2s0.3-0.4,0.4-0.7c0.1-0.4,0.2-1.1,0.2-2.1s-0.1-1.7-0.2-2.1s-0.2-0.6-0.4-0.8S578.2,141.9,578,141.9z"/>
		<path class="st6" d="M586.1,149.1h-1.6v-6.2c-0.6,0.6-1.3,1-2.1,1.2v-1.5c0.4-0.1,0.9-0.4,1.4-0.8s0.8-0.9,1-1.4h1.3V149.1z"/>
	</g>
	<g class="st5">
		<path class="st6" d="M801,157.2v-1.4h3.7v3.4c-0.4,0.4-0.9,0.7-1.6,0.9s-1.4,0.4-2.1,0.4c-0.9,0-1.7-0.2-2.3-0.6s-1.2-0.9-1.5-1.6
			s-0.5-1.5-0.5-2.3c0-0.9,0.2-1.7,0.6-2.4s0.9-1.2,1.6-1.6c0.6-0.3,1.2-0.4,2.1-0.4c1.1,0,1.9,0.2,2.5,0.7s1,1.1,1.2,1.9l-1.7,0.3
			c-0.1-0.4-0.3-0.8-0.7-1s-0.8-0.4-1.3-0.4c-0.8,0-1.4,0.2-1.8,0.7s-0.7,1.2-0.7,2.1c0,1,0.2,1.8,0.7,2.3s1,0.8,1.8,0.8
			c0.4,0,0.7-0.1,1.1-0.2s0.7-0.3,0.9-0.5v-1.1H801z"/>
		<path class="st6" d="M806.3,160.4v-8.6h2.6l1.6,5.9l1.5-5.9h2.6v8.6H813v-6.8l-1.7,6.8h-1.7l-1.7-6.8v6.8H806.3z"/>
		<path class="st6" d="M818.8,151.7c0.8,0,1.5,0.3,2,0.9c0.6,0.7,0.8,1.9,0.8,3.5c0,1.6-0.3,2.8-0.8,3.5c-0.5,0.6-1.1,0.9-1.9,0.9
			c-0.8,0-1.5-0.3-2-1s-0.8-1.8-0.8-3.4c0-1.6,0.3-2.8,0.8-3.5C817.3,152,817.9,151.7,818.8,151.7z M818.8,153.1
			c-0.2,0-0.4,0.1-0.5,0.2s-0.3,0.4-0.4,0.7c-0.1,0.4-0.2,1.1-0.2,2.2s0.1,1.7,0.2,2.1s0.2,0.6,0.4,0.8s0.3,0.2,0.5,0.2
			s0.4-0.1,0.5-0.2s0.3-0.4,0.4-0.7c0.1-0.4,0.2-1.1,0.2-2.1s-0.1-1.7-0.2-2.1s-0.2-0.6-0.4-0.8S819,153.1,818.8,153.1z"/>
		<path class="st6" d="M825.9,160.4v-1.7h-3.5v-1.4l3.7-5.5h1.4v5.4h1.1v1.4h-1.1v1.7H825.9z M825.9,157.2v-2.9l-2,2.9H825.9z"/>
	</g>
</g>
<g id="Layer_2_00000026860752059923975000000017898930857140761737_">
	<polygon class="st7" points="33.3,44.9 33.3,707.4 111.9,707.4 111.9,669.5 168.4,669.5 168.4,707.4 297,707.4 297,667.6 
		531.1,667.6 531.1,370.2 730.1,370.2 730.1,545.5 921.6,545.5 921.6,376.1 1126.1,376.1 1126.1,189.2 1086.3,189.2 1086.3,132.8 
		1126.1,132.8 1126.1,44.9 	"/>
	<polyline class="st8" points="33.3,213.1 93.2,213.1 93.2,134.5 203.9,134.5 203.9,121.3 98.9,121.3 98.9,90.5 203.9,90.5 
		203.9,72.9 766.7,72.9 766.7,64.7 1016.9,64.7 1016.9,90.5 1023.9,90.5 	"/>
	<polyline class="st8" points="1126.1,64.7 1047.1,64.7 1047.1,91.2 1042.6,91.2 	"/>
	<polyline class="st8" points="959.5,99.5 942.7,99.5 942.7,200.2 931.9,200.2 954.5,200.2 954.5,376.1 954.5,268.8 1058.3,268.8 	
		"/>
	<polyline class="st8" points="942.7,189.3 1049.5,189.3 1049.5,158.3 1049.5,206.8 	"/>
	<line class="st8" x1="1049.5" y1="227.5" x2="1049.5" y2="268.8"/>
	<line class="st8" x1="1077.4" y1="268.8" x2="1126.1" y2="268.8"/>
	<polyline class="st8" points="1049.5,138.9 1049.5,119.8 1008.6,119.8 1008.6,129.4 988.3,129.4 988.3,99.5 978.4,99.5 	"/>
	<polyline class="st8" points="526.5,106.2 525,223.3 930.3,224 931.9,376.1 	"/>
	<polyline class="st8" points="531.1,533.5 423.2,533.5 417.6,526.4 223,526.4 223.7,330.7 312.8,330.7 312.1,254.2 223,241.2 
		223,224 455.3,224 489.4,131.1 	"/>
	<polyline class="st8" points="163.3,287.4 33.3,287.4 33.3,373.9 223,376.1 223,287.4 183.4,287.4 234.5,287.4 	"/>
	<polyline class="st8" points="255.8,287.4 270.7,287.4 285.6,287.4 	"/>
	<line class="st8" x1="270.7" y1="287.4" x2="270.7" y2="330.7"/>
	<polyline class="st8" points="93.2,206.5 158.5,206.5 158.5,199.4 	"/>
	<line class="st8" x1="158.5" y1="184.5" x2="158.5" y2="134.5"/>
	<polyline class="st8" points="223,241.2 193.5,237.1 193.5,193.1 466.8,194.8 	"/>
	<polyline class="st8" points="214.8,193.1 214.8,158 249.4,109.2 261.7,109.2 	"/>
	<polyline class="st8" points="285.6,109.2 324.8,109.2 340.4,109.2 	"/>
	<polyline class="st8" points="324.8,109.2 324.8,193.9 401.2,194.4 401.2,109.2 363,109.2 410.1,109.2 410.1,98.4 	"/>
	<polyline class="st8" points="609.6,96.9 609.6,223.4 714.4,223.6 714.4,109.2 721.5,109.2 648.4,109.2 	"/>
	<line class="st8" x1="626.4" y1="109.2" x2="609.6" y2="109.2"/>
	<polyline class="st8" points="742.7,109.2 759.1,109.2 789,106.2 	"/>
	<polyline class="st8" points="777.8,107.7 777.8,223.6 847.5,223.6 847.5,96.9 811,102.5 	"/>
	<line class="st8" x1="918.7" y1="123" x2="847.5" y2="123"/>
	<path class="st8" d="M847.5,152.4h50.7c0,0,12.3,5.6,11.6,13.8h7.5"/>
	<polyline class="st8" points="988.3,129.4 988.3,149.8 942.7,149.8 	"/>
	<polyline class="st8" points="531.1,603.1 458.4,603.1 473.2,627.7 430,555.4 199.2,555.4 212.1,618.6 	"/>
	<polyline class="st8" points="215.7,640.7 217.1,649.5 292.2,639.3 	"/>
	<line class="st8" x1="267.3" y1="555.4" x2="265.9" y2="644.4"/>
	<polyline class="st8" points="314.4,636.2 370.9,627.7 372.3,639.3 361.5,555.4 	"/>
	<line class="st8" x1="375.2" y1="661.5" x2="376.6" y2="667.6"/>
	<polyline class="st8" points="199.2,555.4 190.7,555.4 190.7,545.2 174.6,545.2 174.6,581 174.6,595.8 	"/>
	<polyline class="st8" points="115.5,512.5 115.5,457.4 223.2,457.4 110.6,457.4 	"/>
	<line class="st8" x1="93.4" y1="457.4" x2="31.9" y2="457.4"/>
	<line class="st8" x1="81.1" y1="624.9" x2="82.9" y2="457.4"/>
	<polyline class="st8" points="53.4,521.3 53.4,624.9 53.4,667.6 120.6,667.6 	"/>
	<polyline class="st8" points="174.6,545.2 114.5,545.2 114.5,533.5 114.5,621.8 174.6,621.8 174.6,614 	"/>
	<line class="st8" x1="174.6" y1="581" x2="114.5" y2="581"/>
	<line class="st8" x1="190.7" y1="545.2" x2="190.7" y2="287.4"/>
	<line class="st8" x1="150.1" y1="223.6" x2="150.1" y2="206.5"/>
	<line class="st8" x1="150.1" y1="245.4" x2="150.1" y2="287.4"/>
	<polyline class="st8" points="410.1,77.5 410.1,72.9 528.6,72.9 528.6,81.5 	"/>
	<line class="st8" x1="526.5" y1="106.2" x2="526.5" y2="96.9"/>
	<line class="st8" x1="942.7" y1="123" x2="935.5" y2="123"/>
	<line class="st8" x1="483.7" y1="649.5" x2="495.6" y2="667.6"/>
	<line class="st8" x1="458" y1="217.1" x2="526.5" y2="217.1"/>
	<polyline class="st8" points="496.8,108 499.5,101.5 526.5,101.5 	"/>
	<path class="st8" d="M847.5,177.1c0,0,10.4,38.3,49,37.6s46.2-29.1,46.2-29.1"/>
	<polyline class="st8" points="1016.9,64.7 1016.9,43.6 1047.1,43.6 1047.1,64.7 	"/>
</g>
<g id="icons">
	<g id="stairs-2-2-3-5">
		
			<ellipse transform="matrix(0.2298 -0.9732 0.9732 0.2298 728.8098 1055.9585)" class="st9" cx="1031.6" cy="67.5" rx="10.4" ry="10.4"/>
		<path class="st10" d="M1026.3,83h0.5c0,0.2,0,0.3,0.2,0.5l0.3,0.3c0.2,0,0.3,0.2,0.5,0.2h0.5c0.2,0,0.2-0.2,0.3-0.2
			c0-0.2,0.2-0.2,0.2-0.3s0-0.2-0.2-0.3s-0.2-0.2-0.3-0.2s-0.5-0.2-0.6-0.2s-0.5-0.2-0.6-0.2c-0.2,0-0.3-0.1-0.3-0.3
			c-0.2-0.3-0.2-0.7,0-0.9c0.2-0.2,0.3-0.3,0.5-0.3c0.4-0.2,0.9-0.2,1.2,0c0.2,0,0.3,0.2,0.5,0.3s0.2,0.3,0.2,0.6h-0.5
			c0-0.2-0.2-0.3-0.3-0.5s-0.3-0.2-0.6-0.2c-0.2,0-0.4,0-0.6,0.2s-0.2,0.2-0.2,0.3s0,0.2,0.2,0.3s0.5,0.2,0.6,0.3
			c0.3,0,0.5,0.2,0.8,0.2c0.2,0,0.3,0.2,0.5,0.3c0.2,0.3,0.2,0.7,0,0.9c-0.2,0.2-0.3,0.3-0.5,0.3c-0.2,0.1-0.4,0.2-0.6,0.2
			c-0.3,0-0.5,0-0.8-0.2c-0.2-0.2-0.3-0.2-0.5-0.5C1026.3,83.5,1026.2,83.2,1026.3,83z"/>
		<path class="st10" d="M1030.5,83.6v0.3h-0.6c-0.1,0-0.2-0.1-0.2-0.1l0,0v-1.9h-0.3v-0.3h0.3V81l0.5-0.3v0.9h0.5v0.3h-0.5v1.9h0.2
			C1030.3,83.6,1030.4,83.6,1030.5,83.6C1030.4,83.6,1030.4,83.6,1030.5,83.6z"/>
		<path class="st10" d="M1032.5,83.7c-0.2,0.2-0.3,0.2-0.5,0.3c-0.2,0-0.3,0.2-0.5,0.2s-0.4,0-0.6-0.2s-0.3-0.6-0.2-0.8
			c0-0.2,0.2-0.2,0.2-0.3c0.2,0,0.2-0.2,0.3-0.2h0.3c0.3,0,0.5,0,0.8-0.2v-0.2c0-0.2,0-0.3-0.2-0.3c-0.3-0.2-0.7-0.2-0.9,0
			c-0.2,0.2-0.2,0.2-0.2,0.3h-0.5c0-0.2,0.2-0.3,0.2-0.5l0.3-0.3c0.2,0,0.3-0.2,0.6-0.2h0.5c0.2,0,0.2,0.2,0.3,0.2
			c0,0.2,0.2,0.2,0.2,0.3v1.9c0,0.2,0,0.2,0.2,0.3h-0.5C1032.4,84.1,1032.5,83.9,1032.5,83.7z M1032.5,82.8
			c-0.2,0.1-0.4,0.2-0.6,0.2s-0.3,0-0.3,0.2c-0.2,0-0.2,0.2-0.2,0.4v0.1c0,0.1,0.1,0.2,0.1,0.2l0,0c0.1,0.1,0.2,0.1,0.3,0.2
			c0.2,0,0.3,0,0.5-0.2c0.2,0,0.2-0.2,0.3-0.3C1032.5,83.3,1032.5,83.1,1032.5,82.8L1032.5,82.8z"/>
		<path class="st10" d="M1033.6,81.1v-0.5h0.5v0.5H1033.6z M1033.6,84v-2.5h0.5V84H1033.6z"/>
		<path class="st10" d="M1034.7,84v-2.5h0.3v0.3c0-0.2,0.1-0.3,0.3-0.3c0.2,0,0.2-0.2,0.3-0.2c0.2,0,0.3,0,0.5,0.2l-0.2,0.5
			c-0.2,0-0.2-0.2-0.3-0.2s-0.2,0-0.3,0.2l-0.2,0.2v1.7L1034.7,84z"/>
		<path class="st10" d="M1036.1,83.3h0.5c0,0.1,0.1,0.2,0.2,0.3c0.3,0.2,0.7,0.2,0.9,0c0.2,0,0.2-0.2,0.2-0.3s0-0.2-0.2-0.2
			s-0.3-0.2-0.5-0.2s-0.5-0.2-0.6-0.2c-0.2-0.1-0.3-0.4-0.3-0.6v-0.3c0-0.2,0.2-0.2,0.2-0.3c0.2,0,0.2-0.2,0.3-0.2h0.3
			c0.2,0,0.3,0,0.5,0.2c0.1,0,0.2,0.1,0.3,0.2c0.1,0.1,0.1,0.2,0.2,0.3h-0.5c0-0.2,0-0.2-0.2-0.3c-0.1-0.1-0.2-0.1-0.3-0.2
			c-0.2,0-0.3,0-0.5,0.2l-0.2,0.2V82l0.2,0.2c0.1,0,0.2,0.1,0.3,0.2c0.2,0,0.5,0.2,0.6,0.2s0.2,0.2,0.3,0.2c0,0.1,0.1,0.2,0.2,0.3
			c0,0.2,0,0.3-0.2,0.5l-0.3,0.3c-0.2,0-0.3,0.2-0.5,0.2c-0.3,0-0.5,0-0.8-0.2C1036.1,83.6,1036,83.4,1036.1,83.3z"/>
	</g>
	<g id="Outline_Icons-9-2-5">
		<line class="st11" x1="1027.2" y1="71.1" x2="1035.1" y2="71.1"/>
		<polyline class="st11" points="1033.7,71.1 1033.7,69.7 1032.3,69.7 1032.3,68.3 1030.9,68.3 1030.9,66.9 1029.5,66.9 
			1029.5,65.5 1027.2,65.5 		"/>
		<line class="st11" x1="1031.2" y1="63.2" x2="1035.6" y2="67.6"/>
		<polyline class="st11" points="1031.2,64.9 1031.2,63.2 1032.9,63.2 		"/>
		<polyline class="st11" points="1035.6,65.8 1035.6,67.6 1033.9,67.6 		"/>
	</g>
	<g id="stairs-2-2-3-5-2">
		<circle class="st9" cx="895.1" cy="183.8" r="10.4"/>
		<path class="st10" d="M889.8,199.3h0.5c0,0.2,0,0.3,0.2,0.5l0.3,0.3c0.2,0,0.3,0.2,0.5,0.2h0.5c0.2,0,0.2-0.2,0.3-0.2
			c0-0.2,0.2-0.2,0.2-0.3s0-0.2-0.2-0.3s-0.2-0.2-0.3-0.2s-0.5-0.2-0.6-0.2s-0.5-0.2-0.6-0.2c-0.2,0-0.3-0.1-0.3-0.3
			c-0.2-0.3-0.2-0.7,0-0.9s0.3-0.3,0.5-0.3c0.4-0.2,0.9-0.2,1.2,0c0.2,0,0.3,0.2,0.5,0.3s0.2,0.3,0.2,0.6H892c0-0.2-0.2-0.3-0.3-0.5
			s-0.3-0.2-0.6-0.2c-0.2,0-0.4,0-0.6,0.2c-0.2,0.2-0.2,0.2-0.2,0.3s0,0.2,0.2,0.3s0.5,0.2,0.6,0.3c0.3,0,0.5,0.2,0.8,0.2
			c0.2,0,0.3,0.2,0.5,0.3c0.2,0.3,0.2,0.7,0,0.9s-0.3,0.3-0.5,0.3c-0.2,0.1-0.4,0.2-0.6,0.2c-0.3,0-0.5,0-0.8-0.2
			c-0.2-0.2-0.3-0.2-0.5-0.5C889.9,199.9,889.8,199.6,889.8,199.3z"/>
		<path class="st10" d="M894,200v0.3h-0.6c-0.1,0-0.2-0.1-0.2-0.1l0,0v-1.9h-0.3V198h0.3v-0.6l0.5-0.3v0.9h0.5v0.3h-0.5v1.9h0.2
			C893.9,200,893.9,200,894,200L894,200z"/>
		<path class="st10" d="M896,200.1c-0.2,0.2-0.3,0.2-0.5,0.3c-0.2,0-0.3,0.2-0.5,0.2s-0.4,0-0.6-0.2c-0.2-0.2-0.3-0.6-0.2-0.8
			c0-0.2,0.2-0.2,0.2-0.3c0.2,0,0.2-0.2,0.3-0.2h0.3c0.3,0,0.5,0,0.8-0.2v-0.2c0-0.2,0-0.3-0.2-0.3c-0.3-0.2-0.7-0.2-0.9,0
			s-0.2,0.2-0.2,0.3H894c0-0.2,0.2-0.3,0.2-0.5l0.3-0.3c0.2,0,0.3-0.2,0.6-0.2h0.5c0.2,0,0.2,0.2,0.3,0.2c0,0.2,0.2,0.2,0.2,0.3
			L896,200.1c0.1,0.2,0.1,0.2,0.3,0.3h-0.5C896,200.4,896,200.3,896,200.1z M896,199.2c-0.2,0.1-0.4,0.2-0.6,0.2
			c-0.2,0-0.3,0-0.3,0.2c-0.2,0-0.2,0.2-0.2,0.4v0.1c0,0.1,0.1,0.2,0.1,0.2l0,0c0.1,0.1,0.2,0.1,0.3,0.2c0.2,0,0.3,0,0.5-0.2
			c0.2,0,0.2-0.2,0.3-0.3C896,199.7,896,199.5,896,199.2L896,199.2z"/>
		<path class="st10" d="M897.1,197.5V197h0.5v0.5H897.1z M897.1,200.4v-2.5h0.5v2.5H897.1z"/>
		<path class="st10" d="M898.2,200.4v-2.5h0.3v0.3c0-0.2,0.1-0.3,0.3-0.3s0.2-0.2,0.3-0.2c0.2,0,0.3,0,0.5,0.2l-0.2,0.5
			c-0.2,0-0.2-0.2-0.3-0.2s-0.2,0-0.3,0.2l-0.2,0.2v1.7L898.2,200.4z"/>
		<path class="st10" d="M899.6,199.7h0.5c0,0.1,0.1,0.2,0.2,0.3c0.3,0.2,0.7,0.2,0.9,0c0.2,0,0.2-0.2,0.2-0.3s0-0.2-0.2-0.2
			s-0.3-0.2-0.5-0.2s-0.5-0.2-0.6-0.2c-0.2-0.1-0.3-0.4-0.3-0.6v-0.3c0-0.2,0.2-0.2,0.2-0.3c0.2,0,0.2-0.2,0.3-0.2h0.3
			c0.2,0,0.3,0,0.5,0.2c0.1,0,0.2,0.1,0.3,0.2c0.1,0.1,0.1,0.2,0.2,0.3H901c0-0.2,0-0.2-0.2-0.3c-0.1-0.1-0.2-0.1-0.3-0.2
			c-0.2,0-0.3,0-0.5,0.2l-0.2,0.2v0.2l0.2,0.2c0.1,0,0.2,0.1,0.3,0.2c0.2,0,0.5,0.2,0.6,0.2s0.2,0.2,0.3,0.2c0,0.1,0.1,0.2,0.2,0.3
			c0,0.2,0,0.3-0.2,0.5l-0.3,0.3c-0.2,0-0.3,0.2-0.5,0.2c-0.3,0-0.5,0-0.8-0.2C899.7,200,899.6,199.8,899.6,199.7z"/>
	</g>
	<g id="Outline_Icons-9-2-5-2">
		<line class="st11" x1="890.7" y1="187.5" x2="898.7" y2="187.5"/>
		<polyline class="st11" points="897.3,187.5 897.3,186.1 895.9,186.1 895.9,184.7 894.5,184.7 894.5,183.3 893.1,183.3 
			893.1,181.9 890.7,181.9 		"/>
		<line class="st11" x1="894.8" y1="179.6" x2="899.1" y2="183.9"/>
		<polyline class="st11" points="894.8,181.3 894.8,179.6 896.5,179.6 		"/>
		<polyline class="st11" points="899.1,182.2 899.1,183.9 897.4,183.9 		"/>
	</g>
	<g id="stairs-2-2-3-5-3">
		<circle class="st9" cx="214.8" cy="104.7" r="10.4"/>
		<path class="st10" d="M209.5,120.3h0.5c0,0.2,0,0.3,0.2,0.5l0.3,0.3c0.2,0,0.3,0.2,0.5,0.2h0.5c0.2,0,0.2-0.2,0.3-0.2
			c0-0.2,0.2-0.2,0.2-0.3s0-0.2-0.2-0.3s-0.2-0.2-0.3-0.2s-0.5-0.2-0.6-0.2s-0.5-0.2-0.6-0.2c-0.2,0-0.3-0.1-0.3-0.3
			c-0.2-0.3-0.2-0.7,0-0.9c0.2-0.2,0.3-0.3,0.5-0.3c0.4-0.2,0.9-0.2,1.2,0c0.2,0,0.3,0.2,0.5,0.3s0.2,0.3,0.2,0.6h-0.5
			c0-0.2-0.2-0.3-0.3-0.5s-0.3-0.2-0.6-0.2c-0.2,0-0.4,0-0.6,0.2c-0.2,0.2-0.2,0.2-0.2,0.3s0,0.2,0.2,0.3s0.5,0.2,0.6,0.3
			c0.3,0,0.5,0.2,0.8,0.2c0.2,0,0.3,0.2,0.5,0.3c0.2,0.3,0.2,0.7,0,0.9c-0.2,0.2-0.3,0.3-0.5,0.3c-0.2,0.1-0.4,0.2-0.6,0.2
			c-0.3,0-0.5,0-0.8-0.2c-0.2-0.2-0.3-0.2-0.5-0.5C209.5,120.8,209.5,120.5,209.5,120.3z"/>
		<path class="st10" d="M213.7,120.9v0.3h-0.6c-0.1,0-0.2-0.1-0.2-0.1l0,0v-1.9h-0.3v-0.3h0.3v-0.6l0.5-0.3v0.9h0.5v0.3h-0.5v1.9
			h0.2C213.5,120.9,213.6,120.9,213.7,120.9L213.7,120.9z"/>
		<path class="st10" d="M215.7,121c-0.2,0.2-0.3,0.2-0.5,0.3c-0.2,0-0.3,0.2-0.5,0.2s-0.4,0-0.6-0.2c-0.2-0.2-0.3-0.6-0.2-0.8
			c0-0.2,0.2-0.2,0.2-0.3c0.2,0,0.2-0.2,0.3-0.2h0.3c0.3,0,0.5,0,0.8-0.2v-0.2c0-0.2,0-0.3-0.2-0.3c-0.3-0.2-0.7-0.2-0.9,0
			s-0.2,0.2-0.2,0.3h-0.5c0-0.2,0.2-0.3,0.2-0.5l0.3-0.3c0.2,0,0.3-0.2,0.6-0.2h0.5c0.2,0,0.2,0.2,0.3,0.2c0,0.2,0.2,0.2,0.2,0.3
			v1.9c0,0.2,0,0.2,0.2,0.3h-0.5C215.6,121.4,215.7,121.2,215.7,121z M215.7,120.1c-0.2,0.1-0.4,0.2-0.6,0.2c-0.2,0-0.3,0-0.3,0.2
			c-0.2,0-0.2,0.2-0.2,0.4v0.1c0,0.1,0.1,0.2,0.1,0.2l0,0c0.1,0.1,0.2,0.1,0.3,0.2c0.2,0,0.3,0,0.5-0.2c0.2,0,0.2-0.2,0.3-0.3
			C215.7,120.6,215.7,120.4,215.7,120.1z"/>
		<path class="st10" d="M216.8,118.4v-0.5h0.5v0.5H216.8z M216.8,121.3v-2.5h0.5v2.5H216.8z"/>
		<path class="st10" d="M217.9,121.3v-2.5h0.3v0.3c0-0.2,0.1-0.3,0.3-0.3s0.2-0.2,0.3-0.2c0.2,0,0.3,0,0.5,0.2l-0.2,0.5
			c-0.2,0-0.2-0.2-0.3-0.2s-0.2,0-0.3,0.2l-0.2,0.2v1.7L217.9,121.3z"/>
		<path class="st10" d="M219.3,120.6h0.5c0,0.1,0.1,0.2,0.2,0.3c0.3,0.2,0.7,0.2,0.9,0c0.2,0,0.2-0.2,0.2-0.3s0-0.2-0.2-0.2
			s-0.3-0.2-0.5-0.2s-0.5-0.2-0.6-0.2c-0.2-0.1-0.3-0.4-0.3-0.6v-0.3c0-0.2,0.2-0.2,0.2-0.3c0.2,0,0.2-0.2,0.3-0.2h0.3
			c0.2,0,0.3,0,0.5,0.2c0.1,0,0.2,0.1,0.3,0.2s0.1,0.2,0.2,0.3h-0.5c0-0.2,0-0.2-0.2-0.3c-0.1-0.1-0.2-0.1-0.3-0.2
			c-0.2,0-0.3,0-0.5,0.2l-0.2,0.2v0.2l0.2,0.2c0.1,0,0.2,0.1,0.3,0.2c0.2,0,0.5,0.2,0.6,0.2s0.2,0.2,0.3,0.2c0,0.1,0.1,0.2,0.2,0.3
			c0,0.2,0,0.3-0.2,0.5l-0.3,0.3c-0.2,0-0.3,0.2-0.5,0.2c-0.3,0-0.5,0-0.8-0.2C219.3,120.9,219.3,120.7,219.3,120.6z"/>
	</g>
	<g id="Outline_Icons-9-2-5-3">
		<line class="st11" x1="210.4" y1="108.4" x2="218.3" y2="108.4"/>
		<polyline class="st11" points="216.9,108.4 216.9,107 215.5,107 215.5,105.6 214.1,105.6 214.1,104.2 212.7,104.2 212.7,102.8 
			210.4,102.8 		"/>
		<line class="st11" x1="214.5" y1="100.5" x2="218.8" y2="104.9"/>
		<polyline class="st11" points="214.5,102.2 214.5,100.5 216.2,100.5 		"/>
		<polyline class="st11" points="218.8,103.1 218.8,104.9 217.1,104.9 		"/>
	</g>
	<g id="stairs-2-2-3-5-4">
		<circle class="st9" cx="67.2" cy="632.2" r="10.4"/>
		<path class="st10" d="M62,647.7h0.5c0,0.2,0,0.3,0.2,0.5l0.3,0.3c0.2,0,0.3,0.2,0.5,0.2H64c0.2,0,0.2-0.2,0.3-0.2
			c0-0.2,0.2-0.2,0.2-0.3s0-0.2-0.2-0.3s-0.2-0.2-0.3-0.2s-0.5-0.2-0.6-0.2s-0.5-0.2-0.6-0.2c-0.2,0-0.3-0.1-0.3-0.3
			c-0.2-0.3-0.2-0.7,0-0.9s0.3-0.3,0.5-0.3c0.4-0.2,0.9-0.2,1.2,0c0.2,0,0.3,0.2,0.5,0.3s0.2,0.3,0.2,0.6h-0.5
			c0-0.2-0.2-0.3-0.3-0.5s-0.3-0.2-0.6-0.2c-0.2,0-0.4,0-0.6,0.2c-0.2,0.2-0.2,0.2-0.2,0.3s0,0.2,0.2,0.3s0.5,0.2,0.6,0.3
			c0.3,0,0.5,0.2,0.8,0.2c0.2,0,0.3,0.2,0.5,0.3c0.2,0.3,0.2,0.7,0,0.9s-0.3,0.3-0.5,0.3c-0.2,0.1-0.4,0.2-0.6,0.2
			c-0.3,0-0.5,0-0.8-0.2c-0.2-0.2-0.3-0.2-0.5-0.5C62,648.3,61.9,648,62,647.7z"/>
		<path class="st10" d="M66.1,648.4v0.3h-0.6c-0.1,0-0.2-0.1-0.2-0.1l0,0v-1.9H65v-0.3h0.3v-0.6l0.5-0.3v0.9h0.5v0.3h-0.5v1.9H66
			C66,648.4,66.1,648.4,66.1,648.4L66.1,648.4z"/>
		<path class="st10" d="M68.2,648.5c-0.2,0.2-0.3,0.2-0.5,0.3c-0.2,0-0.3,0.2-0.5,0.2s-0.4,0-0.6-0.2s-0.3-0.6-0.2-0.8
			c0-0.2,0.2-0.2,0.2-0.3c0.2,0,0.2-0.2,0.3-0.2h0.3c0.3,0,0.5,0,0.8-0.2v-0.2c0-0.2,0-0.3-0.2-0.3c-0.3-0.2-0.7-0.2-0.9,0
			c-0.2,0.2-0.2,0.2-0.2,0.3h-0.5c0-0.2,0.2-0.3,0.2-0.5l0.3-0.3c0.2,0,0.3-0.2,0.6-0.2h0.5c0.2,0,0.2,0.2,0.3,0.2
			c0,0.2,0.2,0.2,0.2,0.3v1.9c0,0.2,0,0.2,0.2,0.3H68C68.1,648.8,68.1,648.7,68.2,648.5z M68.2,647.6c-0.2,0.1-0.4,0.2-0.6,0.2
			s-0.3,0-0.3,0.2c-0.2,0-0.2,0.2-0.2,0.4v0.1c0,0.1,0.1,0.2,0.1,0.2l0,0c0.1,0.1,0.2,0.1,0.3,0.2c0.2,0,0.3,0,0.5-0.2
			c0.2,0,0.2-0.2,0.3-0.3C68.2,648,68.2,647.9,68.2,647.6L68.2,647.6z"/>
		<path class="st10" d="M69.3,645.9v-0.5h0.5v0.5H69.3z M69.3,648.8v-2.5h0.5v2.5H69.3z"/>
		<path class="st10" d="M70.3,648.8v-2.5h0.3v0.3c0-0.2,0.1-0.3,0.3-0.3c0.2,0,0.2-0.2,0.3-0.2c0.2,0,0.3,0,0.5,0.2l-0.2,0.5
			c-0.2,0-0.2-0.2-0.3-0.2s-0.2,0-0.3,0.2l-0.2,0.2v1.7L70.3,648.8z"/>
		<path class="st10" d="M71.7,648h0.5c0,0.1,0.1,0.2,0.2,0.3c0.3,0.2,0.7,0.2,0.9,0c0.2,0,0.2-0.2,0.2-0.3s0-0.2-0.2-0.2
			s-0.3-0.2-0.5-0.2s-0.5-0.2-0.6-0.2c-0.2-0.1-0.3-0.4-0.3-0.6v-0.3c0-0.2,0.2-0.2,0.2-0.3c0.2,0,0.2-0.2,0.3-0.2h0.3
			c0.2,0,0.3,0,0.5,0.2c0.1,0,0.2,0.1,0.3,0.2c0.1,0.1,0.1,0.2,0.2,0.3h-0.5c0-0.2,0-0.2-0.2-0.3c-0.1-0.1-0.2-0.1-0.3-0.2
			c-0.2,0-0.3,0-0.5,0.2l-0.2,0.2v0.2l0.2,0.2c0.1,0,0.2,0.1,0.3,0.2c0.2,0,0.5,0.2,0.6,0.2s0.2,0.2,0.3,0.2c0,0.1,0.1,0.2,0.2,0.3
			c0,0.2,0,0.3-0.2,0.5l-0.3,0.3c-0.2,0-0.3,0.2-0.5,0.2c-0.3,0-0.5,0-0.8-0.2C71.8,648.4,71.7,648.2,71.7,648z"/>
	</g>
	<g id="Outline_Icons-9-2-5-4">
		<line class="st11" x1="62.9" y1="635.9" x2="70.8" y2="635.9"/>
		<polyline class="st11" points="69.4,635.9 69.4,634.5 68,634.5 68,633.1 66.6,633.1 66.6,631.7 65.2,631.7 65.2,630.3 62.9,630.3 
					"/>
		<line class="st11" x1="66.9" y1="628" x2="71.3" y2="632.3"/>
		<polyline class="st11" points="66.9,629.7 66.9,628 68.6,628 		"/>
		<polyline class="st11" points="71.3,630.6 71.3,632.3 69.6,632.3 		"/>
	</g>
	<circle class="st12" cx="966.1" cy="119.7" r="10.2"/>
	<path class="st13" d="M963.3,123.7v-6.2h2.1v6.2H963.3z M965.5,123.7v-6.2h2.1v6.2H965.5z M970.2,123.7h-2.4v-6.3
		c0-0.1,0-0.1-0.1-0.1h-4.5c-0.1,0-0.1,0-0.1,0.1l0,0v6.3H962v-8.1h8.1L970.2,123.7z M970.2,115.5H962c-0.1,0-0.1,0-0.1,0.1l0,0v8.2
		c0,0.1,0,0.1,0.1,0.1h8.3c0.1,0,0.1,0,0.1-0.1l0,0L970.2,115.5L970.2,115.5z"/>
	<path class="st13" d="M964.8,116.6h1.3c0.1,0,0.1,0,0.1-0.1s0-0.1-0.1-0.1h-1.3V116.6z"/>
	<path class="st13" d="M968.7,120l0.2-0.2l0.2,0.2c0.1,0.1,0.1,0,0.1-0.1l0,0v-0.1l-0.3-0.3c0,0-0.1-0.1-0.1,0l0,0l-0.3,0.3
		C968.4,119.9,968.5,119.9,968.7,120L968.7,120C968.6,120.1,968.7,120.1,968.7,120z"/>
	<path class="st13" d="M968.9,121L968.9,121l0.4-0.3c0.1,0,0.1-0.1,0-0.1l-0.1-0.1l0,0l-0.1,0.1l-0.2,0.2l-0.2-0.2
		c-0.1,0-0.1,0-0.1-0.1c-0.1,0-0.1,0-0.1,0.1l0.1,0.1L968.9,121z"/>
	<g class="st5">
		<path class="st10" d="M955.2,136.4V132h3.2v0.5h-2.6v1.4h2.5v0.5h-2.5v1.5h2.7v0.5H955.2z"/>
		<path class="st10" d="M959.3,136.4V132h0.5v4.5H959.3z"/>
		<path class="st10" d="M962.9,135.4l0.6,0.1c-0.1,0.3-0.3,0.6-0.5,0.8c-0.2,0.2-0.5,0.3-0.9,0.3c-0.5,0-0.8-0.1-1.1-0.4
			c-0.3-0.3-0.4-0.7-0.4-1.2c0-0.5,0.1-1,0.4-1.3c0.3-0.3,0.6-0.4,1.1-0.4c0.4,0,0.8,0.1,1.1,0.4s0.4,0.7,0.4,1.2c0,0,0,0.1,0,0.1
			H961c0,0.4,0.1,0.6,0.3,0.8s0.4,0.3,0.7,0.3c0.2,0,0.4-0.1,0.5-0.2C962.7,135.8,962.8,135.6,962.9,135.4z M961.1,134.5h1.8
			c0-0.3-0.1-0.5-0.2-0.6c-0.2-0.2-0.4-0.3-0.7-0.3c-0.3,0-0.5,0.1-0.6,0.3C961.2,134,961.1,134.2,961.1,134.5z"/>
		<path class="st10" d="M965,136.4l-1.2-3.2h0.6l0.7,1.9c0.1,0.2,0.1,0.4,0.2,0.7c0-0.2,0.1-0.4,0.2-0.6l0.7-2h0.6l-1.2,3.2H965z"/>
		<path class="st10" d="M969.3,136c-0.2,0.2-0.4,0.3-0.6,0.4c-0.2,0.1-0.4,0.1-0.6,0.1c-0.4,0-0.6-0.1-0.8-0.3
			c-0.2-0.2-0.3-0.4-0.3-0.7c0-0.2,0-0.3,0.1-0.4c0.1-0.1,0.2-0.2,0.3-0.3c0.1-0.1,0.2-0.1,0.4-0.2c0.1,0,0.3-0.1,0.5-0.1
			c0.4-0.1,0.8-0.1,1-0.2c0-0.1,0-0.1,0-0.1c0-0.2-0.1-0.4-0.2-0.5c-0.1-0.1-0.3-0.2-0.6-0.2c-0.3,0-0.4,0-0.6,0.1s-0.2,0.2-0.3,0.5
			l-0.5-0.1c0-0.2,0.1-0.4,0.2-0.6c0.1-0.1,0.3-0.2,0.5-0.3c0.2-0.1,0.5-0.1,0.7-0.1c0.3,0,0.5,0,0.7,0.1c0.2,0.1,0.3,0.1,0.4,0.2
			c0.1,0.1,0.1,0.2,0.2,0.4c0,0.1,0,0.3,0,0.5v0.7c0,0.5,0,0.8,0,1c0,0.1,0.1,0.3,0.1,0.4h-0.6C969.4,136.3,969.3,136.2,969.3,136z
			 M969.3,134.8c-0.2,0.1-0.5,0.1-0.9,0.2c-0.2,0-0.4,0.1-0.5,0.1c-0.1,0-0.2,0.1-0.2,0.2c-0.1,0.1-0.1,0.2-0.1,0.3
			c0,0.1,0.1,0.3,0.2,0.4c0.1,0.1,0.3,0.1,0.5,0.1c0.2,0,0.4,0,0.6-0.1c0.2-0.1,0.3-0.2,0.4-0.4c0.1-0.1,0.1-0.3,0.1-0.5V134.8z"/>
		<path class="st10" d="M971.9,135.9l0.1,0.5c-0.2,0-0.3,0-0.4,0c-0.2,0-0.4,0-0.5-0.1s-0.2-0.1-0.2-0.2c0-0.1-0.1-0.3-0.1-0.6v-1.9
			h-0.4v-0.4h0.4v-0.8l0.5-0.3v1.1h0.5v0.4h-0.5v1.9c0,0.2,0,0.3,0,0.3c0,0,0.1,0.1,0.1,0.1s0.1,0,0.2,0
			C971.7,135.9,971.8,135.9,971.9,135.9z"/>
		<path class="st10" d="M972.2,134.8c0-0.6,0.2-1,0.5-1.3c0.3-0.2,0.6-0.4,1-0.4c0.4,0,0.8,0.1,1.1,0.4c0.3,0.3,0.4,0.7,0.4,1.2
			c0,0.4-0.1,0.7-0.2,1s-0.3,0.4-0.5,0.6c-0.2,0.1-0.5,0.2-0.8,0.2c-0.5,0-0.8-0.1-1.1-0.4S972.2,135.3,972.2,134.8z M972.8,134.8
			c0,0.4,0.1,0.7,0.3,0.9c0.2,0.2,0.4,0.3,0.7,0.3c0.3,0,0.5-0.1,0.7-0.3c0.2-0.2,0.3-0.5,0.3-0.9c0-0.4-0.1-0.7-0.3-0.9
			s-0.4-0.3-0.7-0.3c-0.3,0-0.5,0.1-0.7,0.3C972.9,134.1,972.8,134.4,972.8,134.8z"/>
		<path class="st10" d="M975.9,136.4v-3.2h0.5v0.5c0.1-0.2,0.2-0.4,0.3-0.5c0.1-0.1,0.2-0.1,0.4-0.1c0.2,0,0.4,0.1,0.6,0.2l-0.2,0.5
			c-0.1-0.1-0.3-0.1-0.4-0.1c-0.1,0-0.2,0-0.3,0.1c-0.1,0.1-0.2,0.2-0.2,0.3c-0.1,0.2-0.1,0.4-0.1,0.6v1.7H975.9z"/>
	</g>
	<circle class="st12" cx="245.9" cy="305.2" r="10.2"/>
	<path class="st13" d="M243.1,309.2V303h2.1v6.2H243.1z M245.3,309.2V303h2.1v6.2H245.3z M250,309.2h-2.4v-6.3c0-0.1,0-0.1-0.1-0.1
		l0,0H243c-0.1,0-0.1,0-0.1,0.1l0,0l0,0v6.3h-1.1v-8.1h8.1L250,309.2z M250,301h-8.2c-0.1,0-0.1,0-0.1,0.1l0,0l0,0v8.2
		c0,0.1,0,0.1,0.1,0.1l0,0h8.3c0.1,0,0.1,0,0.1-0.1l0,0l0,0L250,301L250,301z"/>
	<path class="st13" d="M244.6,302.1h1.3c0.1,0,0.1,0,0.1-0.1s0-0.1-0.1-0.1h-1.3V302.1z"/>
	<path class="st13" d="M248.5,305.5l0.2-0.2l0.2,0.2c0.1,0.1,0.1,0,0.1-0.1l0,0v-0.1l-0.3-0.3c0,0-0.1-0.1-0.1,0l0,0l-0.3,0.3
		c-0.1,0.1,0,0.1,0.1,0.1l0,0C248.4,305.6,248.5,305.6,248.5,305.5z"/>
	<path class="st13" d="M248.7,306.5L248.7,306.5l0.4-0.3c0.1,0,0.1-0.1,0-0.1L249,306l0,0l-0.1,0.1l-0.2,0.2l-0.2-0.2
		c-0.1,0-0.1,0-0.1-0.1l0,0c-0.1,0-0.1,0-0.1,0.1l0,0l0.1,0.1L248.7,306.5z"/>
	<g class="st5">
		<path class="st10" d="M235,321.8v-4.5h3.2v0.5h-2.6v1.4h2.5v0.5h-2.5v1.5h2.7v0.5H235z"/>
		<path class="st10" d="M239.1,321.8v-4.5h0.5v4.5H239.1z"/>
		<path class="st10" d="M242.7,320.8l0.6,0.1c-0.1,0.3-0.3,0.6-0.5,0.8c-0.2,0.2-0.5,0.3-0.9,0.3c-0.5,0-0.8-0.1-1.1-0.4
			c-0.3-0.3-0.4-0.7-0.4-1.2c0-0.5,0.1-1,0.4-1.3c0.3-0.3,0.6-0.4,1.1-0.4c0.4,0,0.8,0.1,1.1,0.4c0.3,0.3,0.4,0.7,0.4,1.2
			c0,0,0,0.1,0,0.1h-2.4c0,0.4,0.1,0.6,0.3,0.8s0.4,0.3,0.7,0.3c0.2,0,0.4-0.1,0.5-0.2C242.5,321.2,242.6,321,242.7,320.8z
			 M240.9,319.9h1.8c0-0.3-0.1-0.5-0.2-0.6c-0.2-0.2-0.4-0.3-0.7-0.3c-0.3,0-0.5,0.1-0.6,0.3C241,319.4,240.9,319.6,240.9,319.9z"/>
		<path class="st10" d="M244.8,321.8l-1.2-3.2h0.6l0.7,1.9c0.1,0.2,0.1,0.4,0.2,0.7c0-0.2,0.1-0.4,0.2-0.6l0.7-2h0.6l-1.2,3.2H244.8
			z"/>
		<path class="st10" d="M249.1,321.4c-0.2,0.2-0.4,0.3-0.6,0.4c-0.2,0.1-0.4,0.1-0.6,0.1c-0.4,0-0.6-0.1-0.8-0.3
			c-0.2-0.2-0.3-0.4-0.3-0.7c0-0.2,0-0.3,0.1-0.4c0.1-0.1,0.2-0.2,0.3-0.3c0.1-0.1,0.2-0.1,0.4-0.2c0.1,0,0.3-0.1,0.5-0.1
			c0.4-0.1,0.8-0.1,1-0.2c0-0.1,0-0.1,0-0.1c0-0.2-0.1-0.4-0.2-0.5c-0.1-0.1-0.3-0.2-0.6-0.2c-0.3,0-0.4,0-0.6,0.1s-0.2,0.2-0.3,0.5
			l-0.5-0.1c0-0.2,0.1-0.4,0.2-0.6c0.1-0.1,0.3-0.2,0.5-0.3c0.2-0.1,0.5-0.1,0.7-0.1c0.3,0,0.5,0,0.7,0.1c0.2,0.1,0.3,0.1,0.4,0.2
			c0.1,0.1,0.1,0.2,0.2,0.4c0,0.1,0,0.3,0,0.5v0.7c0,0.5,0,0.8,0,1c0,0.1,0.1,0.3,0.1,0.4h-0.6C249.2,321.7,249.2,321.6,249.1,321.4
			z M249.1,320.2c-0.2,0.1-0.5,0.1-0.9,0.2c-0.2,0-0.4,0.1-0.5,0.1c-0.1,0-0.2,0.1-0.2,0.2c-0.1,0.1-0.1,0.2-0.1,0.3
			c0,0.1,0.1,0.3,0.2,0.4c0.1,0.1,0.3,0.1,0.5,0.1c0.2,0,0.4,0,0.6-0.1c0.2-0.1,0.3-0.2,0.4-0.4c0.1-0.1,0.1-0.3,0.1-0.5V320.2z"/>
		<path class="st10" d="M251.7,321.3l0.1,0.5c-0.2,0-0.3,0-0.4,0c-0.2,0-0.4,0-0.5-0.1s-0.2-0.1-0.2-0.2c0-0.1-0.1-0.3-0.1-0.6V319
			h-0.4v-0.4h0.4v-0.8l0.5-0.3v1.1h0.5v0.4h-0.5v1.9c0,0.2,0,0.3,0,0.3s0.1,0.1,0.1,0.1s0.1,0,0.2,0
			C251.5,321.4,251.6,321.4,251.7,321.3z"/>
		<path class="st10" d="M252,320.2c0-0.6,0.2-1,0.5-1.3c0.3-0.2,0.6-0.4,1-0.4c0.4,0,0.8,0.1,1.1,0.4c0.3,0.3,0.4,0.7,0.4,1.2
			c0,0.4-0.1,0.7-0.2,1s-0.3,0.4-0.5,0.6c-0.2,0.1-0.5,0.2-0.8,0.2c-0.5,0-0.8-0.1-1.1-0.4S252,320.8,252,320.2z M252.6,320.2
			c0,0.4,0.1,0.7,0.3,0.9c0.2,0.2,0.4,0.3,0.7,0.3c0.3,0,0.5-0.1,0.7-0.3c0.2-0.2,0.3-0.5,0.3-0.9c0-0.4-0.1-0.7-0.3-0.9
			s-0.4-0.3-0.7-0.3c-0.3,0-0.5,0.1-0.7,0.3C252.7,319.5,252.6,319.8,252.6,320.2z"/>
		<path class="st10" d="M255.7,321.8v-3.2h0.5v0.5c0.1-0.2,0.2-0.4,0.3-0.5c0.1-0.1,0.2-0.1,0.4-0.1c0.2,0,0.4,0.1,0.6,0.2l-0.2,0.5
			c-0.1-0.1-0.3-0.1-0.4-0.1c-0.1,0-0.2,0-0.3,0.1c-0.1,0.1-0.2,0.2-0.2,0.3c-0.1,0.2-0.1,0.4-0.1,0.6v1.7H255.7z"/>
	</g>
	<circle class="st12" cx="292.6" cy="305.2" r="10.2"/>
	<path class="st13" d="M289.8,309.2V303h2.1v6.2H289.8z M292,309.2V303h2.1v6.2H292z M296.7,309.2h-2.4v-6.3c0-0.1,0-0.1-0.1-0.1
		l0,0h-4.5c-0.1,0-0.1,0-0.1,0.1l0,0l0,0v6.3h-1.1v-8.1h8.1L296.7,309.2z M296.7,301h-8.2c-0.1,0-0.1,0-0.1,0.1l0,0l0,0v8.2
		c0,0.1,0,0.1,0.1,0.1l0,0h8.3c0.1,0,0.1,0,0.1-0.1l0,0l0,0L296.7,301L296.7,301z"/>
	<path class="st13" d="M291.3,302.1h1.3c0.1,0,0.1,0,0.1-0.1s0-0.1-0.1-0.1h-1.3V302.1z"/>
	<path class="st13" d="M295.2,305.5l0.2-0.2l0.2,0.2c0.1,0.1,0.1,0,0.1-0.1l0,0v-0.1l-0.3-0.3c0,0-0.1-0.1-0.1,0l0,0l-0.3,0.3
		c-0.1,0.1,0,0.1,0.1,0.1l0,0C295.1,305.6,295.2,305.6,295.2,305.5L295.2,305.5z"/>
	<path class="st13" d="M295.4,306.5L295.4,306.5l0.4-0.3c0.1,0,0.1-0.1,0-0.1l-0.1-0.1l0,0l-0.1,0.1l-0.2,0.2l-0.2-0.2
		c-0.1,0-0.1,0-0.1-0.1l0,0c-0.1,0-0.1,0-0.1,0.1l0,0l0.1,0.1L295.4,306.5z"/>
	<g class="st5">
		<path class="st10" d="M281.7,321.8v-4.5h3.2v0.5h-2.6v1.4h2.5v0.5h-2.5v1.5h2.7v0.5H281.7z"/>
		<path class="st10" d="M285.7,321.8v-4.5h0.5v4.5H285.7z"/>
		<path class="st10" d="M289.3,320.8l0.6,0.1c-0.1,0.3-0.3,0.6-0.5,0.8c-0.2,0.2-0.5,0.3-0.9,0.3c-0.5,0-0.8-0.1-1.1-0.4
			c-0.3-0.3-0.4-0.7-0.4-1.2c0-0.5,0.1-1,0.4-1.3c0.3-0.3,0.6-0.4,1.1-0.4c0.4,0,0.8,0.1,1.1,0.4c0.3,0.3,0.4,0.7,0.4,1.2
			c0,0,0,0.1,0,0.1h-2.4c0,0.4,0.1,0.6,0.3,0.8s0.4,0.3,0.7,0.3c0.2,0,0.4-0.1,0.5-0.2C289.1,321.2,289.2,321,289.3,320.8z
			 M287.5,319.9h1.8c0-0.3-0.1-0.5-0.2-0.6c-0.2-0.2-0.4-0.3-0.7-0.3c-0.3,0-0.5,0.1-0.6,0.3C287.7,319.4,287.6,319.6,287.5,319.9z"
			/>
		<path class="st10" d="M291.5,321.8l-1.2-3.2h0.6l0.7,1.9c0.1,0.2,0.1,0.4,0.2,0.7c0-0.2,0.1-0.4,0.2-0.6l0.7-2h0.6l-1.2,3.2H291.5
			z"/>
		<path class="st10" d="M295.8,321.4c-0.2,0.2-0.4,0.3-0.6,0.4c-0.2,0.1-0.4,0.1-0.6,0.1c-0.4,0-0.6-0.1-0.8-0.3
			c-0.2-0.2-0.3-0.4-0.3-0.7c0-0.2,0-0.3,0.1-0.4c0.1-0.1,0.2-0.2,0.3-0.3c0.1-0.1,0.2-0.1,0.4-0.2c0.1,0,0.3-0.1,0.5-0.1
			c0.4-0.1,0.8-0.1,1-0.2c0-0.1,0-0.1,0-0.1c0-0.2-0.1-0.4-0.2-0.5c-0.1-0.1-0.3-0.2-0.6-0.2c-0.3,0-0.4,0-0.6,0.1s-0.2,0.2-0.3,0.5
			l-0.5-0.1c0-0.2,0.1-0.4,0.2-0.6c0.1-0.1,0.3-0.2,0.5-0.3c0.2-0.1,0.5-0.1,0.7-0.1c0.3,0,0.5,0,0.7,0.1c0.2,0.1,0.3,0.1,0.4,0.2
			c0.1,0.1,0.1,0.2,0.2,0.4c0,0.1,0,0.3,0,0.5v0.7c0,0.5,0,0.8,0,1c0,0.1,0.1,0.3,0.1,0.4h-0.6C295.8,321.7,295.8,321.6,295.8,321.4
			z M295.8,320.2c-0.2,0.1-0.5,0.1-0.9,0.2c-0.2,0-0.4,0.1-0.5,0.1c-0.1,0-0.2,0.1-0.2,0.2c-0.1,0.1-0.1,0.2-0.1,0.3
			c0,0.1,0.1,0.3,0.2,0.4c0.1,0.1,0.3,0.1,0.5,0.1c0.2,0,0.4,0,0.6-0.1c0.2-0.1,0.3-0.2,0.4-0.4c0.1-0.1,0.1-0.3,0.1-0.5V320.2z"/>
		<path class="st10" d="M298.3,321.3l0.1,0.5c-0.2,0-0.3,0-0.4,0c-0.2,0-0.4,0-0.5-0.1s-0.2-0.1-0.2-0.2c0-0.1-0.1-0.3-0.1-0.6V319
			h-0.4v-0.4h0.4v-0.8l0.5-0.3v1.1h0.5v0.4h-0.5v1.9c0,0.2,0,0.3,0,0.3s0.1,0.1,0.1,0.1s0.1,0,0.2,0
			C298.2,321.4,298.2,321.4,298.3,321.3z"/>
		<path class="st10" d="M298.7,320.2c0-0.6,0.2-1,0.5-1.3c0.3-0.2,0.6-0.4,1-0.4c0.4,0,0.8,0.1,1.1,0.4c0.3,0.3,0.4,0.7,0.4,1.2
			c0,0.4-0.1,0.7-0.2,1s-0.3,0.4-0.5,0.6c-0.2,0.1-0.5,0.2-0.8,0.2c-0.5,0-0.8-0.1-1.1-0.4S298.7,320.8,298.7,320.2z M299.2,320.2
			c0,0.4,0.1,0.7,0.3,0.9c0.2,0.2,0.4,0.3,0.7,0.3c0.3,0,0.5-0.1,0.7-0.3c0.2-0.2,0.3-0.5,0.3-0.9c0-0.4-0.1-0.7-0.3-0.9
			s-0.4-0.3-0.7-0.3c-0.3,0-0.5,0.1-0.7,0.3C299.3,319.5,299.2,319.8,299.2,320.2z"/>
		<path class="st10" d="M302.3,321.8v-3.2h0.5v0.5c0.1-0.2,0.2-0.4,0.3-0.5c0.1-0.1,0.2-0.1,0.4-0.1c0.2,0,0.4,0.1,0.6,0.2l-0.2,0.5
			c-0.1-0.1-0.3-0.1-0.4-0.1c-0.1,0-0.2,0-0.3,0.1c-0.1,0.1-0.2,0.2-0.2,0.3c-0.1,0.2-0.1,0.4-0.1,0.6v1.7H302.3z"/>
	</g>
	<circle class="st12" cx="143.9" cy="598.1" r="10.2"/>
	<path class="st13" d="M141.1,602.1v-6.2h2.1v6.2H141.1z M143.3,602.1v-6.2h2.1v6.2H143.3z M148,602.1h-2.4v-6.3
		c0-0.1,0-0.1-0.1-0.1H141c-0.1,0-0.1,0-0.1,0.1l0,0v6.3h-1.1V594h8.1L148,602.1z M148,593.9h-8.2c-0.1,0-0.1,0-0.1,0.1l0,0v8.2
		c0,0.1,0,0.1,0.1,0.1h8.3c0.1,0,0.1,0,0.1-0.1l0,0L148,593.9L148,593.9z"/>
	<path class="st13" d="M142.6,595h1.3c0.1,0,0.1,0,0.1-0.1s0-0.1-0.1-0.1h-1.3V595L142.6,595z"/>
	<path class="st13" d="M146.5,598.4l0.2-0.2l0.2,0.2c0.1,0.1,0.1,0,0.1-0.1l0,0v-0.1l-0.3-0.3c0,0-0.1-0.1-0.1,0l0,0l-0.3,0.3
		c-0.1,0.1,0,0.1,0.1,0.1l0,0C146.4,598.5,146.5,598.5,146.5,598.4z"/>
	<path class="st13" d="M146.7,599.4L146.7,599.4l0.4-0.3c0.1,0,0.1-0.1,0-0.1l-0.1-0.1l0,0l-0.1,0.1l-0.2,0.2l-0.2-0.2
		c-0.1,0-0.1,0-0.1-0.1c-0.1,0-0.1,0-0.1,0.1l0.1,0.1L146.7,599.4z"/>
	<g class="st5">
		<path class="st10" d="M132.9,614.8v-4.5h3.2v0.5h-2.6v1.4h2.5v0.5h-2.5v1.5h2.7v0.5H132.9z"/>
		<path class="st10" d="M137,614.8v-4.5h0.5v4.5H137z"/>
		<path class="st10" d="M140.6,613.8l0.6,0.1c-0.1,0.3-0.3,0.6-0.5,0.8c-0.2,0.2-0.5,0.3-0.9,0.3c-0.5,0-0.8-0.1-1.1-0.4
			c-0.3-0.3-0.4-0.7-0.4-1.2c0-0.5,0.1-1,0.4-1.3c0.3-0.3,0.6-0.4,1.1-0.4c0.4,0,0.8,0.1,1.1,0.4c0.3,0.3,0.4,0.7,0.4,1.2
			c0,0,0,0.1,0,0.1h-2.4c0,0.4,0.1,0.6,0.3,0.8s0.4,0.3,0.7,0.3c0.2,0,0.4-0.1,0.5-0.2C140.4,614.2,140.5,614,140.6,613.8z
			 M138.8,612.9h1.8c0-0.3-0.1-0.5-0.2-0.6c-0.2-0.2-0.4-0.3-0.7-0.3c-0.3,0-0.5,0.1-0.6,0.3C138.9,612.4,138.8,612.6,138.8,612.9z"
			/>
		<path class="st10" d="M142.7,614.8l-1.2-3.2h0.6l0.7,1.9c0.1,0.2,0.1,0.4,0.2,0.7c0-0.2,0.1-0.4,0.2-0.6l0.7-2h0.6l-1.2,3.2H142.7
			z"/>
		<path class="st10" d="M147.1,614.4c-0.2,0.2-0.4,0.3-0.6,0.4c-0.2,0.1-0.4,0.1-0.6,0.1c-0.4,0-0.6-0.1-0.8-0.3
			c-0.2-0.2-0.3-0.4-0.3-0.7c0-0.2,0-0.3,0.1-0.4c0.1-0.1,0.2-0.2,0.3-0.3c0.1-0.1,0.2-0.1,0.4-0.2c0.1,0,0.3-0.1,0.5-0.1
			c0.4-0.1,0.8-0.1,1-0.2c0-0.1,0-0.1,0-0.1c0-0.2-0.1-0.4-0.2-0.5c-0.1-0.1-0.3-0.2-0.6-0.2c-0.3,0-0.4,0-0.6,0.1s-0.2,0.2-0.3,0.5
			l-0.5-0.1c0-0.2,0.1-0.4,0.2-0.6c0.1-0.1,0.3-0.2,0.5-0.3c0.2-0.1,0.5-0.1,0.7-0.1c0.3,0,0.5,0,0.7,0.1c0.2,0.1,0.3,0.1,0.4,0.2
			c0.1,0.1,0.1,0.2,0.2,0.4c0,0.1,0,0.3,0,0.5v0.7c0,0.5,0,0.8,0,1c0,0.1,0.1,0.3,0.1,0.4h-0.6C147.1,614.7,147.1,614.6,147.1,614.4
			z M147,613.2c-0.2,0.1-0.5,0.1-0.9,0.2c-0.2,0-0.4,0.1-0.5,0.1c-0.1,0-0.2,0.1-0.2,0.2c-0.1,0.1-0.1,0.2-0.1,0.3
			c0,0.1,0.1,0.3,0.2,0.4c0.1,0.1,0.3,0.1,0.5,0.1c0.2,0,0.4,0,0.6-0.1c0.2-0.1,0.3-0.2,0.4-0.4c0.1-0.1,0.1-0.3,0.1-0.5V613.2z"/>
		<path class="st10" d="M149.6,614.3l0.1,0.5c-0.2,0-0.3,0-0.4,0c-0.2,0-0.4,0-0.5-0.1s-0.2-0.1-0.2-0.2c0-0.1-0.1-0.3-0.1-0.6V612
			h-0.4v-0.4h0.4v-0.8l0.5-0.3v1.1h0.5v0.4h-0.5v1.9c0,0.2,0,0.3,0,0.3s0.1,0.1,0.1,0.1s0.1,0,0.2,0
			C149.4,614.4,149.5,614.4,149.6,614.3z"/>
		<path class="st10" d="M149.9,613.2c0-0.6,0.2-1,0.5-1.3c0.3-0.2,0.6-0.4,1-0.4c0.4,0,0.8,0.1,1.1,0.4c0.3,0.3,0.4,0.7,0.4,1.2
			c0,0.4-0.1,0.7-0.2,1s-0.3,0.4-0.5,0.6c-0.2,0.1-0.5,0.2-0.8,0.2c-0.5,0-0.8-0.1-1.1-0.4S149.9,613.8,149.9,613.2z M150.5,613.2
			c0,0.4,0.1,0.7,0.3,0.9c0.2,0.2,0.4,0.3,0.7,0.3c0.3,0,0.5-0.1,0.7-0.3c0.2-0.2,0.3-0.5,0.3-0.9c0-0.4-0.1-0.7-0.3-0.9
			s-0.4-0.3-0.7-0.3c-0.3,0-0.5,0.1-0.7,0.3C150.6,612.5,150.5,612.8,150.5,613.2z"/>
		<path class="st10" d="M153.6,614.8v-3.2h0.5v0.5c0.1-0.2,0.2-0.4,0.3-0.5c0.1-0.1,0.2-0.1,0.4-0.1c0.2,0,0.4,0.1,0.6,0.2l-0.2,0.5
			c-0.1-0.1-0.3-0.1-0.4-0.1c-0.1,0-0.2,0-0.3,0.1c-0.1,0.1-0.2,0.2-0.2,0.3c-0.1,0.2-0.1,0.4-0.1,0.6v1.7H153.6z"/>
	</g>
</g>
</svg>
