<?xml version="1.0" encoding="utf-8"?>
<!-- Generator: Adobe Illustrator 24.2.3, SVG Export Plug-In . SVG Version: 6.00 Build 0)  -->
<svg version="1.1" id="Layer_1" xmlns="http://www.w3.org/2000/svg" xmlns:xlink="http://www.w3.org/1999/xlink" x="0px" y="0px"
	 viewBox="0 0 843.7 658.2" style="enable-background:new 0 0 843.7 658.2;" xml:space="preserve">
<style type="text/css">
	.st0{fill:#4196B1;}
	.st1{fill:#99C5C6;}
	.st2{fill:#A8E0E5;}
	.st3{fill:#8ECCCE;}
	.st4{fill:#99B8BF;}
	.st5{fill:#FFFFFF;}
	.st6{opacity:0.15;fill:#010101;enable-background:new    ;}
	.st7{fill:#596068;}
	.st8{fill:#9BAEB7;}
	.st9{fill:none;stroke:#7A8E93;stroke-width:1.992;stroke-linecap:round;stroke-miterlimit:10;}
	.st10{opacity:0.7;fill:#575757;enable-background:new    ;}
	.st11{enable-background:new    ;}
	.st12{fill:#EBF2F2;}
	.st13{fill:#646B6D;}
	.st14{fill:none;stroke:#7A8E93;stroke-width:0.709;stroke-miterlimit:10;}
	.st15{fill:none;stroke:#EBF2F2;stroke-width:6;stroke-miterlimit:10;}
	.st16{fill:none;stroke:#EBF2F2;stroke-width:3;stroke-miterlimit:10;}
</style>
<g id="background">
	<polygon class="st0" points="46.5,84.9 46.5,284.9 39.5,284.9 39.5,407.7 33.2,407.7 33.2,549.7 643.7,549.7 643.7,638.8 
		729.3,623.5 820.5,638.8 820.5,612.7 820.5,29.1 733.8,40.2 643,29.1 643,114.7 546.4,114.7 546.4,85.7 	"/>
</g>
<g id="spaces">
	<polygon class="st1" points="46.5,84.9 547.3,84.9 547.3,113.6 553.9,113.6 553.9,237.1 645.8,237.1 645.8,29.1 735.2,40 
		820.5,29.1 820.5,627.7 731.7,613.8 643.7,627.7 643.7,541.6 33.2,541.6 33.2,458.3 155.9,458.3 155.9,372.3 160.4,372.3 
		160.4,284.9 46.5,284.9 	"/>
	<polygon class="st2" points="46.5,228.9 523.7,228.9 519.6,284.6 592.7,284.6 592.7,373.5 552.2,373.5 515.2,373.5 505.4,458.3 
		33.2,458.3 33.2,407.7 39.5,407.7 39.5,284.8 46.5,284.8 	"/>
	<rect x="553.9" y="114.8" class="st3" width="91.9" height="122.3"/>
	<rect x="39.5" y="284.9" class="st3" width="120.9" height="86.8"/>
	<polygon class="st3" points="155.9,372.3 155.9,457.4 35,457.4 35,406.7 39.7,406.7 39.7,371.2 	"/>
	<polygon class="st3" points="333,420.9 267.1,420.9 267.1,357.7 332.2,357.9 	"/>
	<rect x="434.5" y="286.9" class="st4" width="158.6" height="86.7"/>
	<polygon class="st3" points="515.2,373.5 505.4,458.3 434.5,458.3 434.5,373.5 	"/>
</g>
<g id="furniature">
	<polygon class="st5" points="55.1,241.2 66.3,241.2 66.3,270.5 160.4,270.5 160.4,281.2 55.1,281.2 	"/>
	<polygon class="st5" points="451.9,271 507.9,271 511.7,233.2 524.6,233.2 519.6,284.6 451.9,284.6 	"/>
	<path class="st6" d="M79.5,266.2l-3.8-0.1c-2.9,0-5.3-2.5-5.2-5.4v-0.3l0.2-3.8c0.2-3.7,3.4-6.6,7.1-6.6l0,0c3.8,0.1,6.8,3,6.9,6.8
		l0.1,3.8c0.1,2.9-2.2,5.4-5.1,5.5l0,0C79.7,266.2,79.6,266.2,79.5,266.2z"/>
	<path class="st7" d="M79.2,266.5l-3.8-0.1c-2.9,0-5.3-2.5-5.2-5.4v-0.3l0.2-3.8c0.2-3.7,3.4-6.6,7.1-6.6l0,0c3.8,0.1,6.8,3,6.9,6.8
		l0.1,3.8c0.1,2.9-2.2,5.4-5.1,5.5C79.3,266.5,79.2,266.5,79.2,266.5z"/>
	<path class="st8" d="M77.9,267.7l-3.8-0.1c-2.9,0-5.3-2.5-5.2-5.4l0,0l0,0V262l0.2-3.8c0.2-3.7,3.4-6.6,7.1-6.6l0,0
		c3.8,0.1,6.8,3,6.9,6.8l0.1,3.8c0.1,2.9-2.2,5.4-5.1,5.5C78.1,267.7,78,267.7,77.9,267.7z"/>
	<path class="st9" d="M68.8,262.8l0.4-4.6c0.2-3.7,3.4-6.6,7.1-6.6l0,0c3.8,0.1,6.8,3,6.9,6.8l0.2,4.6"/>
	<path class="st6" d="M108.5,266.2l-3.8-0.1c-2.9,0-5.3-2.5-5.2-5.4v-0.3l0.2-3.8c0.2-3.7,3.4-6.6,7.1-6.6l0,0
		c3.8,0.1,6.8,3,6.9,6.8l0.1,3.8c0.1,2.9-2.2,5.4-5.1,5.5l0,0C108.6,266.2,108.5,266.2,108.5,266.2z"/>
	<path class="st7" d="M108.1,266.5l-3.8-0.1c-2.9,0-5.3-2.5-5.2-5.4v-0.3l0.2-3.8c0.2-3.7,3.4-6.6,7.1-6.6l0,0
		c3.8,0.1,6.8,3,6.9,6.8l0.1,3.8c0.1,2.9-2.2,5.4-5.1,5.5C108.3,266.5,108.2,266.5,108.1,266.5z"/>
	<path class="st8" d="M106.8,267.7l-3.8-0.1c-2.9,0-5.3-2.5-5.2-5.4l0,0l0,0V262l0.2-3.8c0.2-3.7,3.4-6.6,7.1-6.6l0,0
		c3.8,0.1,6.8,3,6.9,6.8l0.1,3.8c0.1,2.9-2.2,5.4-5.1,5.5C107,267.7,106.9,267.7,106.8,267.7z"/>
	<path class="st9" d="M97.7,262.8l0.4-4.6c0.2-3.7,3.4-6.6,7.1-6.6l0,0c3.8,0.1,6.8,3,6.9,6.8l0.2,4.6"/>
	<path class="st6" d="M136,266.2l-3.8-0.1c-2.9,0-5.3-2.5-5.2-5.4v-0.3l0.2-3.8c0.2-3.7,3.4-6.6,7.1-6.6l0,0c3.8,0.1,6.8,3,6.9,6.8
		l0.1,3.8c0.1,2.9-2.2,5.4-5.1,5.5l0,0C136.1,266.2,136,266.2,136,266.2z"/>
	<path class="st7" d="M135.6,266.5l-3.8-0.1c-2.9,0-5.3-2.5-5.2-5.4v-0.3l0.2-3.8c0.2-3.7,3.4-6.6,7.1-6.6l0,0
		c3.8,0.1,6.8,3,6.9,6.8l0.1,3.8c0.1,2.9-2.2,5.4-5.1,5.5C135.8,266.5,135.7,266.5,135.6,266.5z"/>
	<path class="st8" d="M134.3,267.7l-3.8-0.1c-2.9,0-5.3-2.5-5.2-5.4l0,0l0,0V262l0.2-3.8c0.2-3.7,3.4-6.6,7.1-6.6l0,0
		c3.8,0.1,6.8,3,6.9,6.8l0.1,3.8c0.1,2.9-2.2,5.4-5.1,5.5C134.5,267.7,134.4,267.7,134.3,267.7z"/>
	<path class="st9" d="M125.2,262.8l0.4-4.6c0.2-3.7,3.4-6.6,7.1-6.6l0,0c3.8,0.1,6.8,3,6.9,6.8l0.2,4.6"/>
	<path class="st6" d="M467.5,266.2l-3.8-0.1c-2.9,0-5.3-2.5-5.2-5.4v-0.3l0.2-3.8c0.2-3.7,3.4-6.6,7.1-6.6l0,0
		c3.8,0.1,6.8,3,6.9,6.8l0.1,3.8c0.1,2.9-2.2,5.4-5.1,5.5l0,0C467.7,266.2,467.6,266.2,467.5,266.2z"/>
	<path class="st7" d="M467.1,266.5l-3.8-0.1c-2.9,0-5.3-2.5-5.2-5.4l0,0v-0.3l0.2-3.8c0.2-3.7,3.4-6.6,7.1-6.6l0,0
		c3.8,0.1,6.8,3,6.9,6.8l0.1,3.8c0.1,2.9-2.2,5.4-5.1,5.5C467.3,266.5,467.2,266.5,467.1,266.5z"/>
	<path class="st8" d="M465.8,267.7l-3.8-0.1c-2.9,0-5.3-2.5-5.2-5.4l0,0V262l0.2-3.8c0.2-3.7,3.4-6.6,7.1-6.6l0,0
		c3.8,0.1,6.8,3,6.9,6.8l0.1,3.8c0.1,2.9-2.2,5.4-5.1,5.5C466,267.7,465.9,267.7,465.8,267.7z"/>
	<path class="st9" d="M456.7,262.8l0.4-4.6c0.2-3.7,3.4-6.6,7.1-6.6l0,0c3.8,0.1,6.8,3,6.9,6.8l0.2,4.6"/>
	<path class="st6" d="M495,266.2l-3.8-0.1c-2.9,0-5.3-2.5-5.2-5.4v-0.3l0.2-3.8c0.2-3.7,3.4-6.6,7.1-6.6l0,0c3.8,0.1,6.8,3,6.9,6.8
		l0.1,3.8c0.1,2.9-2.2,5.4-5.1,5.5l0,0C495.2,266.2,495.1,266.2,495,266.2z"/>
	<path class="st7" d="M494.6,266.5l-3.8-0.1c-2.9,0-5.3-2.5-5.2-5.4l0,0v-0.3l0.2-3.8c0.2-3.7,3.4-6.6,7.1-6.6l0,0
		c3.8,0.1,6.8,3,6.9,6.8l0.1,3.8c0.1,2.9-2.2,5.4-5.1,5.5C494.8,266.5,494.7,266.5,494.6,266.5z"/>
	<path class="st8" d="M493.4,267.7l-3.8-0.1c-2.9,0-5.3-2.5-5.2-5.4l0,0V262l0.2-3.8c0.2-3.7,3.4-6.6,7.1-6.6l0,0
		c3.8,0.1,6.8,3,6.9,6.8l0.1,3.8c0.1,2.9-2.2,5.4-5.1,5.5C493.5,267.7,493.4,267.7,493.4,267.7z"/>
	<path class="st9" d="M484.2,262.8l0.4-4.6c0.2-3.7,3.4-6.6,7.1-6.6l0,0c3.8,0.1,6.8,3,6.9,6.8l0.2,4.6"/>
</g>
<g id="bookable">
	<rect id="area-0.5.M.04-status" x="267.1" y="357.6" class="st10" width="65.9" height="63.3"/>
	<polygon id="area-0.5.M.03-status" class="st10" points="434.5,373.5 515.2,373.5 505.4,458.3 434.5,458.3 	"/>
	<polygon id="area-0.5.M.02-status" class="st10" points="369,370.4 424.1,356.6 409.7,292.2 351.3,306.2 	"/>
	<polygon id="area-0.5.M.07-status" class="st10" points="166.2,360.3 225.6,381.9 249.7,314.9 189.4,292.2 	"/>
	<polygon id="area-0.5.M.05-status" class="st10" points="155.9,372.3 155.9,457.4 85,457.4 85,371.4 	"/>
	<g class="st11">
		<path class="st5" d="M367.7,330.2v-7.2h5.3v1.2h-3.9v1.6h3.6v1.2h-3.6v1.9h4v1.2H367.7z"/>
		<path class="st5" d="M379.1,330.2h-1.4v-2.6c0-0.6,0-0.9-0.1-1.1c-0.1-0.2-0.2-0.3-0.3-0.4s-0.3-0.1-0.5-0.1
			c-0.2,0-0.5,0.1-0.6,0.2s-0.3,0.3-0.4,0.5s-0.1,0.6-0.1,1.2v2.3h-1.4V325h1.3v0.8c0.5-0.6,1-0.9,1.7-0.9c0.3,0,0.6,0.1,0.8,0.2
			c0.3,0.1,0.4,0.2,0.6,0.4s0.2,0.4,0.3,0.6s0.1,0.5,0.1,0.9V330.2z"/>
		<path class="st5" d="M382.9,325v1.1h-0.9v2.1c0,0.4,0,0.7,0,0.7c0,0.1,0.1,0.1,0.1,0.2s0.1,0.1,0.2,0.1c0.1,0,0.3,0,0.6-0.1
			l0.1,1.1c-0.3,0.1-0.7,0.2-1.1,0.2c-0.2,0-0.5,0-0.7-0.1c-0.2-0.1-0.3-0.2-0.4-0.3c-0.1-0.1-0.2-0.3-0.2-0.5c0-0.2,0-0.5,0-1v-2.3
			h-0.6V325h0.6v-1l1.4-0.8v1.8H382.9z"/>
		<path class="st5" d="M385.1,330.2h-1.4V325h1.3v0.7c0.2-0.3,0.4-0.6,0.6-0.7s0.4-0.2,0.6-0.2c0.3,0,0.6,0.1,0.9,0.3l-0.4,1.2
			c-0.2-0.1-0.4-0.2-0.6-0.2c-0.2,0-0.4,0.1-0.5,0.2c-0.1,0.1-0.2,0.3-0.3,0.6s-0.1,0.9-0.1,1.7V330.2z"/>
		<path class="st5" d="M390.7,328.6l1.4,0.2c-0.2,0.5-0.5,0.9-0.8,1.1c-0.4,0.3-0.9,0.4-1.4,0.4c-0.9,0-1.6-0.3-2-0.9
			c-0.3-0.5-0.5-1.1-0.5-1.8c0-0.9,0.2-1.5,0.7-2c0.4-0.5,1-0.7,1.7-0.7c0.8,0,1.4,0.3,1.8,0.8c0.4,0.5,0.7,1.3,0.6,2.3h-3.4
			c0,0.4,0.1,0.7,0.3,0.9c0.2,0.2,0.5,0.3,0.8,0.3c0.2,0,0.4-0.1,0.5-0.2S390.6,328.8,390.7,328.6z M390.8,327.2
			c0-0.4-0.1-0.7-0.3-0.9c-0.2-0.2-0.4-0.3-0.7-0.3c-0.3,0-0.5,0.1-0.7,0.3s-0.3,0.5-0.3,0.9H390.8z"/>
		<path class="st5" d="M392.8,328.7l1.4-0.2c0.1,0.3,0.2,0.5,0.4,0.6c0.2,0.1,0.4,0.2,0.8,0.2c0.4,0,0.6-0.1,0.8-0.2
			c0.1-0.1,0.2-0.2,0.2-0.4c0-0.1,0-0.2-0.1-0.3c-0.1-0.1-0.2-0.1-0.5-0.2c-1.1-0.2-1.8-0.5-2.1-0.7c-0.4-0.3-0.6-0.7-0.6-1.2
			c0-0.4,0.2-0.8,0.5-1.1s0.9-0.5,1.7-0.5c0.7,0,1.2,0.1,1.6,0.3s0.6,0.6,0.7,1l-1.3,0.2c-0.1-0.2-0.2-0.4-0.3-0.5s-0.4-0.2-0.7-0.2
			c-0.4,0-0.6,0.1-0.8,0.2c-0.1,0.1-0.2,0.2-0.2,0.3c0,0.1,0,0.2,0.1,0.2c0.1,0.1,0.6,0.2,1.3,0.4s1.2,0.4,1.5,0.6
			c0.3,0.2,0.4,0.6,0.4,1c0,0.5-0.2,0.9-0.6,1.2s-1,0.5-1.8,0.5c-0.7,0-1.3-0.1-1.7-0.4S392.9,329.2,392.8,328.7z"/>
		<path class="st5" d="M398.5,327.6c0-0.5,0.1-0.9,0.3-1.3s0.5-0.8,1-1s0.9-0.3,1.4-0.3c0.8,0,1.4,0.3,1.9,0.8
			c0.5,0.5,0.8,1.2,0.8,1.9c0,0.8-0.3,1.4-0.8,2c-0.5,0.5-1.1,0.8-1.9,0.8c-0.5,0-0.9-0.1-1.4-0.3s-0.8-0.5-1-0.9
			C398.6,328.7,398.5,328.2,398.5,327.6z M399.9,327.6c0,0.5,0.1,0.9,0.4,1.2s0.5,0.4,0.9,0.4s0.7-0.1,0.9-0.4s0.4-0.7,0.4-1.2
			c0-0.5-0.1-0.9-0.4-1.2s-0.5-0.4-0.9-0.4s-0.7,0.1-0.9,0.4S399.9,327.1,399.9,327.6z"/>
		<path class="st5" d="M404.9,330.2v-7.2h1.4v7.2H404.9z"/>
	</g>
	<g class="st11">
		<path class="st5" d="M377.3,342.2v-7.2h2.2l1.3,4.9l1.3-4.9h2.2v7.2h-1.3v-5.6l-1.4,5.6H380l-1.4-5.6v5.6H377.3z"/>
		<path class="st5" d="M385.5,340.3v-1.4h2.7v1.4H385.5z"/>
		<path class="st5" d="M391,335c0.7,0,1.2,0.2,1.6,0.7c0.5,0.6,0.7,1.6,0.7,2.9c0,1.4-0.2,2.3-0.7,2.9c-0.4,0.5-0.9,0.7-1.6,0.7
			c-0.7,0-1.3-0.3-1.7-0.8c-0.4-0.5-0.6-1.5-0.6-2.9c0-1.3,0.2-2.3,0.7-2.9C389.7,335.3,390.3,335,391,335z M391,336.2
			c-0.2,0-0.3,0.1-0.4,0.2c-0.1,0.1-0.2,0.3-0.3,0.6c-0.1,0.4-0.1,1-0.1,1.8s0,1.4,0.1,1.7c0.1,0.3,0.2,0.5,0.3,0.6s0.3,0.2,0.4,0.2
			s0.3-0.1,0.4-0.2c0.1-0.1,0.2-0.3,0.3-0.6c0.1-0.4,0.1-0.9,0.1-1.8s0-1.4-0.1-1.7c-0.1-0.3-0.2-0.5-0.3-0.6
			C391.3,336.2,391.1,336.2,391,336.2z"/>
		<path class="st5" d="M398.9,341v1.3H394c0.1-0.5,0.2-0.9,0.5-1.4c0.3-0.4,0.8-1,1.5-1.7c0.6-0.6,1-1,1.1-1.2
			c0.2-0.3,0.3-0.6,0.3-0.8c0-0.3-0.1-0.5-0.2-0.7c-0.2-0.2-0.4-0.2-0.7-0.2c-0.3,0-0.5,0.1-0.7,0.3s-0.3,0.5-0.3,0.9l-1.4-0.1
			c0.1-0.8,0.3-1.3,0.8-1.6s1-0.5,1.6-0.5c0.7,0,1.3,0.2,1.7,0.6s0.6,0.9,0.6,1.4c0,0.3-0.1,0.6-0.2,0.9c-0.1,0.3-0.3,0.6-0.5,0.9
			c-0.2,0.2-0.5,0.5-0.9,0.9s-0.7,0.7-0.8,0.8s-0.2,0.3-0.3,0.4H398.9z"/>
	</g>
	<g class="st11">
		<path class="st5" d="M452.8,412.3v-7.2h5.3v1.2h-3.9v1.6h3.6v1.2h-3.6v1.9h4v1.2H452.8z"/>
		<path class="st5" d="M464.1,412.3h-1.4v-2.6c0-0.6,0-0.9-0.1-1.1c-0.1-0.2-0.2-0.3-0.3-0.4s-0.3-0.1-0.5-0.1
			c-0.2,0-0.5,0.1-0.6,0.2c-0.2,0.1-0.3,0.3-0.4,0.5c-0.1,0.2-0.1,0.6-0.1,1.2v2.3h-1.4v-5.2h1.3v0.8c0.5-0.6,1-0.9,1.7-0.9
			c0.3,0,0.6,0.1,0.8,0.2c0.2,0.1,0.4,0.2,0.6,0.4c0.1,0.2,0.2,0.4,0.3,0.6c0.1,0.2,0.1,0.5,0.1,0.9V412.3z"/>
		<path class="st5" d="M467.9,407.1v1.1H467v2.1c0,0.4,0,0.7,0,0.7c0,0.1,0.1,0.1,0.1,0.2s0.1,0.1,0.2,0.1c0.1,0,0.3,0,0.6-0.1
			l0.1,1.1c-0.3,0.1-0.7,0.2-1.1,0.2c-0.2,0-0.5,0-0.7-0.1c-0.2-0.1-0.3-0.2-0.4-0.3c-0.1-0.1-0.2-0.3-0.2-0.5c0-0.2,0-0.5,0-1v-2.3
			H465v-1.1h0.6v-1l1.4-0.8v1.8H467.9z"/>
		<path class="st5" d="M470.2,412.3h-1.4v-5.2h1.3v0.7c0.2-0.3,0.4-0.6,0.6-0.7c0.2-0.1,0.4-0.2,0.6-0.2c0.3,0,0.6,0.1,0.9,0.3
			l-0.4,1.2c-0.2-0.1-0.4-0.2-0.6-0.2c-0.2,0-0.4,0.1-0.5,0.2c-0.1,0.1-0.2,0.3-0.3,0.6c-0.1,0.3-0.1,0.9-0.1,1.7V412.3z"/>
		<path class="st5" d="M475.8,410.7l1.4,0.2c-0.2,0.5-0.5,0.9-0.8,1.1c-0.4,0.3-0.9,0.4-1.4,0.4c-0.9,0-1.6-0.3-2-0.9
			c-0.3-0.5-0.5-1.1-0.5-1.8c0-0.9,0.2-1.5,0.7-2c0.4-0.5,1-0.7,1.7-0.7c0.8,0,1.4,0.3,1.8,0.8c0.4,0.5,0.7,1.3,0.6,2.3h-3.4
			c0,0.4,0.1,0.7,0.3,0.9c0.2,0.2,0.5,0.3,0.8,0.3c0.2,0,0.4-0.1,0.5-0.2S475.7,410.9,475.8,410.7z M475.8,409.3
			c0-0.4-0.1-0.7-0.3-0.9c-0.2-0.2-0.4-0.3-0.7-0.3c-0.3,0-0.5,0.1-0.7,0.3s-0.3,0.5-0.3,0.9H475.8z"/>
		<path class="st5" d="M477.8,410.8l1.4-0.2c0.1,0.3,0.2,0.5,0.4,0.6c0.2,0.1,0.4,0.2,0.8,0.2c0.4,0,0.6-0.1,0.8-0.2
			c0.1-0.1,0.2-0.2,0.2-0.4c0-0.1,0-0.2-0.1-0.3c-0.1-0.1-0.2-0.1-0.5-0.2c-1.1-0.2-1.8-0.5-2.1-0.7c-0.4-0.3-0.6-0.7-0.6-1.2
			c0-0.4,0.2-0.8,0.5-1.1c0.4-0.3,0.9-0.5,1.7-0.5c0.7,0,1.2,0.1,1.6,0.3c0.3,0.2,0.6,0.6,0.7,1l-1.3,0.2c-0.1-0.2-0.2-0.4-0.3-0.5
			c-0.2-0.1-0.4-0.2-0.7-0.2c-0.4,0-0.6,0.1-0.8,0.2c-0.1,0.1-0.2,0.2-0.2,0.3c0,0.1,0,0.2,0.1,0.2c0.1,0.1,0.6,0.2,1.3,0.4
			c0.7,0.2,1.2,0.4,1.5,0.6c0.3,0.2,0.4,0.6,0.4,1c0,0.5-0.2,0.9-0.6,1.2c-0.4,0.3-1,0.5-1.8,0.5c-0.7,0-1.3-0.1-1.7-0.4
			C478.2,411.7,478,411.3,477.8,410.8z"/>
		<path class="st5" d="M483.6,409.6c0-0.5,0.1-0.9,0.3-1.3s0.5-0.8,1-1c0.4-0.2,0.9-0.3,1.4-0.3c0.8,0,1.4,0.3,1.9,0.8
			c0.5,0.5,0.8,1.2,0.8,1.9c0,0.8-0.3,1.4-0.8,2c-0.5,0.5-1.1,0.8-1.9,0.8c-0.5,0-0.9-0.1-1.4-0.3c-0.4-0.2-0.8-0.5-1-0.9
			C483.7,410.7,483.6,410.2,483.6,409.6z M485,409.7c0,0.5,0.1,0.9,0.4,1.2s0.5,0.4,0.9,0.4c0.4,0,0.7-0.1,0.9-0.4
			c0.2-0.3,0.4-0.7,0.4-1.2c0-0.5-0.1-0.9-0.4-1.2c-0.2-0.3-0.5-0.4-0.9-0.4c-0.4,0-0.7,0.1-0.9,0.4S485,409.2,485,409.7z"/>
		<path class="st5" d="M490,412.3v-7.2h1.4v7.2H490z"/>
	</g>
	<g class="st11">
		<path class="st5" d="M462.3,424.3v-7.2h2.2l1.3,4.9l1.3-4.9h2.2v7.2h-1.3v-5.6l-1.4,5.6h-1.4l-1.4-5.6v5.6H462.3z"/>
		<path class="st5" d="M470.5,422.4V421h2.7v1.4H470.5z"/>
		<path class="st5" d="M476,417.1c0.7,0,1.2,0.2,1.6,0.7c0.5,0.6,0.7,1.6,0.7,2.9c0,1.4-0.2,2.3-0.7,2.9c-0.4,0.5-0.9,0.7-1.6,0.7
			c-0.7,0-1.3-0.3-1.7-0.8c-0.4-0.5-0.6-1.5-0.6-2.9c0-1.3,0.2-2.3,0.7-2.9C474.8,417.4,475.3,417.1,476,417.1z M476,418.3
			c-0.2,0-0.3,0.1-0.4,0.2c-0.1,0.1-0.2,0.3-0.3,0.6c-0.1,0.4-0.1,1-0.1,1.8s0,1.4,0.1,1.7c0.1,0.3,0.2,0.5,0.3,0.6
			c0.1,0.1,0.3,0.2,0.4,0.2s0.3-0.1,0.4-0.2c0.1-0.1,0.2-0.3,0.3-0.6c0.1-0.4,0.1-0.9,0.1-1.8s0-1.4-0.1-1.7
			c-0.1-0.3-0.2-0.5-0.3-0.6C476.3,418.3,476.2,418.3,476,418.3z"/>
		<path class="st5" d="M479.2,422.4l1.3-0.2c0,0.3,0.2,0.6,0.3,0.8s0.4,0.3,0.7,0.3c0.3,0,0.5-0.1,0.7-0.3c0.2-0.2,0.3-0.5,0.3-0.9
			c0-0.3-0.1-0.6-0.3-0.8s-0.4-0.3-0.7-0.3c-0.2,0-0.4,0-0.6,0.1l0.2-1.1c0.4,0,0.7-0.1,0.8-0.2c0.2-0.2,0.3-0.4,0.3-0.7
			c0-0.2-0.1-0.4-0.2-0.6c-0.1-0.1-0.3-0.2-0.6-0.2c-0.2,0-0.4,0.1-0.6,0.2s-0.3,0.4-0.3,0.7l-1.3-0.2c0.1-0.4,0.2-0.8,0.4-1
			c0.2-0.3,0.4-0.5,0.7-0.6c0.3-0.1,0.7-0.2,1.1-0.2c0.7,0,1.2,0.2,1.6,0.6c0.3,0.4,0.5,0.7,0.5,1.2c0,0.6-0.3,1.1-1,1.5
			c0.4,0.1,0.7,0.3,1,0.6c0.2,0.3,0.4,0.7,0.4,1.1c0,0.6-0.2,1.2-0.7,1.6s-1,0.7-1.7,0.7c-0.6,0-1.2-0.2-1.6-0.6
			C479.5,423.5,479.3,423,479.2,422.4z"/>
	</g>
	<g class="st11">
		<path class="st5" d="M280.1,389.3v-7.2h5.3v1.2h-3.9v1.6h3.6v1.2h-3.6v1.9h4v1.2H280.1z"/>
		<path class="st5" d="M291.4,389.3h-1.4v-2.6c0-0.6,0-0.9-0.1-1.1c-0.1-0.2-0.2-0.3-0.3-0.4s-0.3-0.1-0.5-0.1
			c-0.2,0-0.5,0.1-0.6,0.2s-0.3,0.3-0.4,0.5s-0.1,0.6-0.1,1.2v2.3h-1.4v-5.2h1.3v0.8c0.5-0.6,1-0.9,1.7-0.9c0.3,0,0.6,0.1,0.8,0.2
			c0.3,0.1,0.4,0.2,0.6,0.4s0.2,0.4,0.3,0.6s0.1,0.5,0.1,0.9V389.3z"/>
		<path class="st5" d="M295.2,384.1v1.1h-0.9v2.1c0,0.4,0,0.7,0,0.7c0,0.1,0.1,0.1,0.1,0.2s0.1,0.1,0.2,0.1c0.1,0,0.3,0,0.6-0.1
			l0.1,1.1c-0.3,0.1-0.7,0.2-1.1,0.2c-0.2,0-0.5,0-0.7-0.1c-0.2-0.1-0.3-0.2-0.4-0.3c-0.1-0.1-0.2-0.3-0.2-0.5c0-0.2,0-0.5,0-1v-2.3
			h-0.6v-1.1h0.6v-1l1.4-0.8v1.8H295.2z"/>
		<path class="st5" d="M297.5,389.3h-1.4v-5.2h1.3v0.7c0.2-0.3,0.4-0.6,0.6-0.7s0.4-0.2,0.6-0.2c0.3,0,0.6,0.1,0.9,0.3l-0.4,1.2
			c-0.2-0.1-0.4-0.2-0.6-0.2c-0.2,0-0.4,0.1-0.5,0.2c-0.1,0.1-0.2,0.3-0.3,0.6s-0.1,0.9-0.1,1.7V389.3z"/>
		<path class="st5" d="M303.1,387.7l1.4,0.2c-0.2,0.5-0.5,0.9-0.8,1.1c-0.4,0.3-0.9,0.4-1.4,0.4c-0.9,0-1.6-0.3-2-0.9
			c-0.3-0.5-0.5-1.1-0.5-1.8c0-0.9,0.2-1.5,0.7-2c0.4-0.5,1-0.7,1.7-0.7c0.8,0,1.4,0.3,1.8,0.8c0.4,0.5,0.7,1.3,0.6,2.3h-3.4
			c0,0.4,0.1,0.7,0.3,0.9c0.2,0.2,0.5,0.3,0.8,0.3c0.2,0,0.4-0.1,0.5-0.2S303,387.9,303.1,387.7z M303.1,386.3
			c0-0.4-0.1-0.7-0.3-0.9c-0.2-0.2-0.4-0.3-0.7-0.3c-0.3,0-0.5,0.1-0.7,0.3s-0.3,0.5-0.3,0.9H303.1z"/>
		<path class="st5" d="M305.1,387.8l1.4-0.2c0.1,0.3,0.2,0.5,0.4,0.6c0.2,0.1,0.4,0.2,0.8,0.2c0.4,0,0.6-0.1,0.8-0.2
			c0.1-0.1,0.2-0.2,0.2-0.4c0-0.1,0-0.2-0.1-0.3c-0.1-0.1-0.2-0.1-0.5-0.2c-1.1-0.2-1.8-0.5-2.1-0.7c-0.4-0.3-0.6-0.7-0.6-1.2
			c0-0.4,0.2-0.8,0.5-1.1s0.9-0.5,1.7-0.5c0.7,0,1.2,0.1,1.6,0.3s0.6,0.6,0.7,1l-1.3,0.2c-0.1-0.2-0.2-0.4-0.3-0.5s-0.4-0.2-0.7-0.2
			c-0.4,0-0.6,0.1-0.8,0.2c-0.1,0.1-0.2,0.2-0.2,0.3c0,0.1,0,0.2,0.1,0.2c0.1,0.1,0.6,0.2,1.3,0.4s1.2,0.4,1.5,0.6
			c0.3,0.2,0.4,0.6,0.4,1c0,0.5-0.2,0.9-0.6,1.2s-1,0.5-1.8,0.5c-0.7,0-1.3-0.1-1.7-0.4S305.3,388.3,305.1,387.8z"/>
		<path class="st5" d="M310.9,386.7c0-0.5,0.1-0.9,0.3-1.3s0.5-0.8,1-1s0.9-0.3,1.4-0.3c0.8,0,1.4,0.3,1.9,0.8
			c0.5,0.5,0.8,1.2,0.8,1.9c0,0.8-0.3,1.4-0.8,2c-0.5,0.5-1.1,0.8-1.9,0.8c-0.5,0-0.9-0.1-1.4-0.3s-0.8-0.5-1-0.9
			C311,387.8,310.9,387.2,310.9,386.7z M312.3,386.7c0,0.5,0.1,0.9,0.4,1.2s0.5,0.4,0.9,0.4s0.7-0.1,0.9-0.4s0.4-0.7,0.4-1.2
			c0-0.5-0.1-0.9-0.4-1.2s-0.5-0.4-0.9-0.4s-0.7,0.1-0.9,0.4S312.3,386.2,312.3,386.7z"/>
		<path class="st5" d="M317.3,389.3v-7.2h1.4v7.2H317.3z"/>
	</g>
	<g class="st11">
		<path class="st5" d="M289.6,401.3v-7.2h2.2l1.3,4.9l1.3-4.9h2.2v7.2h-1.3v-5.6l-1.4,5.6h-1.4l-1.4-5.6v5.6H289.6z"/>
		<path class="st5" d="M297.8,399.4V398h2.7v1.4H297.8z"/>
		<path class="st5" d="M303.3,394.1c0.7,0,1.2,0.2,1.6,0.7c0.5,0.6,0.7,1.6,0.7,2.9c0,1.4-0.2,2.3-0.7,2.9c-0.4,0.5-0.9,0.7-1.6,0.7
			c-0.7,0-1.3-0.3-1.7-0.8c-0.4-0.5-0.6-1.5-0.6-2.9c0-1.3,0.2-2.3,0.7-2.9C302.1,394.4,302.6,394.1,303.3,394.1z M303.3,395.3
			c-0.2,0-0.3,0.1-0.4,0.2c-0.1,0.1-0.2,0.3-0.3,0.6c-0.1,0.4-0.1,1-0.1,1.8s0,1.4,0.1,1.7c0.1,0.3,0.2,0.5,0.3,0.6s0.3,0.2,0.4,0.2
			s0.3-0.1,0.4-0.2c0.1-0.1,0.2-0.3,0.3-0.6c0.1-0.4,0.1-0.9,0.1-1.8s0-1.4-0.1-1.7c-0.1-0.3-0.2-0.5-0.3-0.6
			C303.6,395.3,303.5,395.3,303.3,395.3z"/>
		<path class="st5" d="M309.3,401.3v-1.4h-2.9v-1.2l3.1-4.5h1.2v4.5h0.9v1.2h-0.9v1.4H309.3z M309.3,398.7v-2.4l-1.6,2.4H309.3z"/>
	</g>
	<g class="st11">
		<path class="st5" d="M188.9,334.7v-7.2h5.3v1.2h-3.9v1.6h3.6v1.2h-3.6v1.9h4v1.2H188.9z"/>
		<path class="st5" d="M200.3,334.7h-1.4V332c0-0.6,0-0.9-0.1-1.1c-0.1-0.2-0.2-0.3-0.3-0.4s-0.3-0.1-0.5-0.1
			c-0.2,0-0.5,0.1-0.6,0.2s-0.3,0.3-0.4,0.5s-0.1,0.6-0.1,1.2v2.3h-1.4v-5.2h1.3v0.8c0.5-0.6,1-0.9,1.7-0.9c0.3,0,0.6,0.1,0.8,0.2
			c0.3,0.1,0.4,0.2,0.6,0.4s0.2,0.4,0.3,0.6s0.1,0.5,0.1,0.9V334.7z"/>
		<path class="st5" d="M204,329.5v1.1h-0.9v2.1c0,0.4,0,0.7,0,0.7c0,0.1,0.1,0.1,0.1,0.2s0.1,0.1,0.2,0.1c0.1,0,0.3,0,0.6-0.1
			l0.1,1.1c-0.3,0.1-0.7,0.2-1.1,0.2c-0.2,0-0.5,0-0.7-0.1c-0.2-0.1-0.3-0.2-0.4-0.3c-0.1-0.1-0.2-0.3-0.2-0.5c0-0.2,0-0.5,0-1v-2.3
			h-0.6v-1.1h0.6v-1l1.4-0.8v1.8H204z"/>
		<path class="st5" d="M206.3,334.7h-1.4v-5.2h1.3v0.7c0.2-0.3,0.4-0.6,0.6-0.7s0.4-0.2,0.6-0.2c0.3,0,0.6,0.1,0.9,0.3l-0.4,1.2
			c-0.2-0.1-0.4-0.2-0.6-0.2c-0.2,0-0.4,0.1-0.5,0.2c-0.1,0.1-0.2,0.3-0.3,0.6s-0.1,0.9-0.1,1.7V334.7z"/>
		<path class="st5" d="M211.9,333l1.4,0.2c-0.2,0.5-0.5,0.9-0.8,1.1c-0.4,0.3-0.9,0.4-1.4,0.4c-0.9,0-1.6-0.3-2-0.9
			c-0.3-0.5-0.5-1.1-0.5-1.8c0-0.9,0.2-1.5,0.7-2c0.4-0.5,1-0.7,1.7-0.7c0.8,0,1.4,0.3,1.8,0.8c0.4,0.5,0.7,1.3,0.6,2.3h-3.4
			c0,0.4,0.1,0.7,0.3,0.9c0.2,0.2,0.5,0.3,0.8,0.3c0.2,0,0.4-0.1,0.5-0.2S211.8,333.3,211.9,333z M212,331.6c0-0.4-0.1-0.7-0.3-0.9
			c-0.2-0.2-0.4-0.3-0.7-0.3c-0.3,0-0.5,0.1-0.7,0.3s-0.3,0.5-0.3,0.9H212z"/>
		<path class="st5" d="M214,333.2l1.4-0.2c0.1,0.3,0.2,0.5,0.4,0.6c0.2,0.1,0.4,0.2,0.8,0.2c0.4,0,0.6-0.1,0.8-0.2
			c0.1-0.1,0.2-0.2,0.2-0.4c0-0.1,0-0.2-0.1-0.3c-0.1-0.1-0.2-0.1-0.5-0.2c-1.1-0.2-1.8-0.5-2.1-0.7c-0.4-0.3-0.6-0.7-0.6-1.2
			c0-0.4,0.2-0.8,0.5-1.1s0.9-0.5,1.7-0.5c0.7,0,1.2,0.1,1.6,0.3s0.6,0.6,0.7,1l-1.3,0.2c-0.1-0.2-0.2-0.4-0.3-0.5s-0.4-0.2-0.7-0.2
			c-0.4,0-0.6,0.1-0.8,0.2c-0.1,0.1-0.2,0.2-0.2,0.3c0,0.1,0,0.2,0.1,0.2c0.1,0.1,0.6,0.2,1.3,0.4s1.2,0.4,1.5,0.6
			c0.3,0.2,0.4,0.6,0.4,1c0,0.5-0.2,0.9-0.6,1.2s-1,0.5-1.8,0.5c-0.7,0-1.3-0.1-1.7-0.4S214.1,333.7,214,333.2z"/>
		<path class="st5" d="M219.7,332c0-0.5,0.1-0.9,0.3-1.3s0.5-0.8,1-1s0.9-0.3,1.4-0.3c0.8,0,1.4,0.3,1.9,0.8
			c0.5,0.5,0.8,1.2,0.8,1.9c0,0.8-0.3,1.4-0.8,2c-0.5,0.5-1.1,0.8-1.9,0.8c-0.5,0-0.9-0.1-1.4-0.3s-0.8-0.5-1-0.9
			C219.8,333.1,219.7,332.6,219.7,332z M221.1,332.1c0,0.5,0.1,0.9,0.4,1.2s0.5,0.4,0.9,0.4s0.7-0.1,0.9-0.4s0.4-0.7,0.4-1.2
			c0-0.5-0.1-0.9-0.4-1.2s-0.5-0.4-0.9-0.4s-0.7,0.1-0.9,0.4S221.1,331.6,221.1,332.1z"/>
		<path class="st5" d="M226.1,334.7v-7.2h1.4v7.2H226.1z"/>
	</g>
	<g class="st11">
		<path class="st5" d="M198.5,346.7v-7.2h2.2l1.3,4.9l1.3-4.9h2.2v7.2H204V341l-1.4,5.6h-1.4l-1.4-5.6v5.6H198.5z"/>
		<path class="st5" d="M206.6,344.8v-1.4h2.7v1.4H206.6z"/>
		<path class="st5" d="M212.1,339.5c0.7,0,1.2,0.2,1.6,0.7c0.5,0.6,0.7,1.6,0.7,2.9c0,1.4-0.2,2.3-0.7,2.9c-0.4,0.5-0.9,0.7-1.6,0.7
			c-0.7,0-1.3-0.3-1.7-0.8c-0.4-0.5-0.6-1.5-0.6-2.9c0-1.3,0.2-2.3,0.7-2.9C210.9,339.7,211.5,339.5,212.1,339.5z M212.1,340.6
			c-0.2,0-0.3,0.1-0.4,0.2c-0.1,0.1-0.2,0.3-0.3,0.6c-0.1,0.4-0.1,1-0.1,1.8s0,1.4,0.1,1.7c0.1,0.3,0.2,0.5,0.3,0.6s0.3,0.2,0.4,0.2
			s0.3-0.1,0.4-0.2c0.1-0.1,0.2-0.3,0.3-0.6c0.1-0.4,0.1-0.9,0.1-1.8s0-1.4-0.1-1.7c-0.1-0.3-0.2-0.5-0.3-0.6
			C212.5,340.7,212.3,340.6,212.1,340.6z"/>
		<path class="st5" d="M215.4,340.9v-1.3h4.7v1c-0.4,0.4-0.8,0.9-1.2,1.6s-0.7,1.5-0.9,2.3c-0.2,0.8-0.3,1.5-0.3,2.2h-1.3
			c0-1,0.2-2,0.6-3s0.9-1.9,1.5-2.8H215.4z"/>
	</g>
	<g class="st11">
		<path class="st5" d="M98.4,407.7v-7.2h5.3v1.2h-3.9v1.6h3.6v1.2h-3.6v1.9h4v1.2H98.4z"/>
		<path class="st5" d="M109.8,407.7h-1.4v-2.6c0-0.6,0-0.9-0.1-1.1c-0.1-0.2-0.2-0.3-0.3-0.4s-0.3-0.1-0.5-0.1
			c-0.2,0-0.5,0.1-0.6,0.2c-0.2,0.1-0.3,0.3-0.4,0.5c-0.1,0.2-0.1,0.6-0.1,1.2v2.3h-1.4v-5.2h1.3v0.8c0.5-0.6,1-0.9,1.7-0.9
			c0.3,0,0.6,0.1,0.8,0.2c0.3,0.1,0.4,0.2,0.6,0.4c0.1,0.2,0.2,0.4,0.3,0.6c0,0.2,0.1,0.5,0.1,0.9V407.7z"/>
		<path class="st5" d="M113.6,402.5v1.1h-0.9v2.1c0,0.4,0,0.7,0,0.7c0,0.1,0.1,0.1,0.1,0.2s0.1,0.1,0.2,0.1c0.1,0,0.3,0,0.6-0.1
			l0.1,1.1c-0.3,0.1-0.7,0.2-1.1,0.2c-0.2,0-0.5,0-0.7-0.1c-0.2-0.1-0.3-0.2-0.4-0.3c-0.1-0.1-0.2-0.3-0.2-0.5c0-0.2,0-0.5,0-1v-2.3
			h-0.6v-1.1h0.6v-1l1.4-0.8v1.8H113.6z"/>
		<path class="st5" d="M115.8,407.7h-1.4v-5.2h1.3v0.7c0.2-0.3,0.4-0.6,0.6-0.7c0.2-0.1,0.4-0.2,0.6-0.2c0.3,0,0.6,0.1,0.9,0.3
			l-0.4,1.2c-0.2-0.1-0.4-0.2-0.6-0.2c-0.2,0-0.4,0.1-0.5,0.2c-0.1,0.1-0.2,0.3-0.3,0.6c-0.1,0.3-0.1,0.9-0.1,1.7V407.7z"/>
		<path class="st5" d="M121.4,406.1l1.4,0.2c-0.2,0.5-0.5,0.9-0.8,1.1c-0.4,0.3-0.9,0.4-1.4,0.4c-0.9,0-1.6-0.3-2-0.9
			c-0.3-0.5-0.5-1.1-0.5-1.8c0-0.9,0.2-1.5,0.7-2c0.4-0.5,1-0.7,1.7-0.7c0.8,0,1.4,0.3,1.8,0.8c0.4,0.5,0.7,1.3,0.6,2.3h-3.4
			c0,0.4,0.1,0.7,0.3,0.9c0.2,0.2,0.5,0.3,0.8,0.3c0.2,0,0.4-0.1,0.5-0.2S121.3,406.3,121.4,406.1z M121.5,404.7
			c0-0.4-0.1-0.7-0.3-0.9c-0.2-0.2-0.4-0.3-0.7-0.3c-0.3,0-0.5,0.1-0.7,0.3s-0.3,0.5-0.3,0.9H121.5z"/>
		<path class="st5" d="M123.5,406.2l1.4-0.2c0.1,0.3,0.2,0.5,0.4,0.6c0.2,0.1,0.4,0.2,0.8,0.2c0.4,0,0.6-0.1,0.8-0.2
			c0.1-0.1,0.2-0.2,0.2-0.4c0-0.1,0-0.2-0.1-0.3c-0.1-0.1-0.2-0.1-0.5-0.2c-1.1-0.2-1.8-0.5-2.1-0.7c-0.4-0.3-0.6-0.7-0.6-1.2
			c0-0.4,0.2-0.8,0.5-1.1c0.4-0.3,0.9-0.5,1.7-0.5c0.7,0,1.2,0.1,1.6,0.3c0.3,0.2,0.6,0.6,0.7,1l-1.3,0.2c-0.1-0.2-0.2-0.4-0.3-0.5
			c-0.2-0.1-0.4-0.2-0.7-0.2c-0.4,0-0.6,0.1-0.8,0.2c-0.1,0.1-0.2,0.2-0.2,0.3c0,0.1,0,0.2,0.1,0.2c0.1,0.1,0.6,0.2,1.3,0.4
			c0.7,0.2,1.2,0.4,1.5,0.6c0.3,0.2,0.4,0.6,0.4,1c0,0.5-0.2,0.9-0.6,1.2c-0.4,0.3-1,0.5-1.8,0.5c-0.7,0-1.3-0.1-1.7-0.4
			C123.9,407.1,123.6,406.7,123.5,406.2z"/>
		<path class="st5" d="M129.2,405c0-0.5,0.1-0.9,0.3-1.3s0.5-0.8,1-1c0.4-0.2,0.9-0.3,1.4-0.3c0.8,0,1.4,0.3,1.9,0.8
			c0.5,0.5,0.8,1.2,0.8,1.9c0,0.8-0.3,1.4-0.8,2c-0.5,0.5-1.1,0.8-1.9,0.8c-0.5,0-0.9-0.1-1.4-0.3c-0.4-0.2-0.8-0.5-1-0.9
			C129.3,406.1,129.2,405.6,129.2,405z M130.6,405.1c0,0.5,0.1,0.9,0.4,1.2s0.5,0.4,0.9,0.4c0.4,0,0.7-0.1,0.9-0.4
			c0.2-0.3,0.4-0.7,0.4-1.2c0-0.5-0.1-0.9-0.4-1.2c-0.2-0.3-0.5-0.4-0.9-0.4c-0.4,0-0.7,0.1-0.9,0.4S130.6,404.6,130.6,405.1z"/>
		<path class="st5" d="M135.6,407.7v-7.2h1.4v7.2H135.6z"/>
	</g>
	<g class="st11">
		<path class="st5" d="M108,419.7v-7.2h2.2l1.3,4.9l1.3-4.9h2.2v7.2h-1.3v-5.6l-1.4,5.6h-1.4l-1.4-5.6v5.6H108z"/>
		<path class="st5" d="M116.1,417.8v-1.4h2.7v1.4H116.1z"/>
		<path class="st5" d="M121.7,412.5c0.7,0,1.2,0.2,1.6,0.7c0.5,0.6,0.7,1.6,0.7,2.9c0,1.4-0.2,2.3-0.7,2.9c-0.4,0.5-0.9,0.7-1.6,0.7
			c-0.7,0-1.3-0.3-1.7-0.8c-0.4-0.5-0.6-1.5-0.6-2.9c0-1.3,0.2-2.3,0.7-2.9C120.4,412.8,121,412.5,121.7,412.5z M121.7,413.7
			c-0.2,0-0.3,0.1-0.4,0.2c-0.1,0.1-0.2,0.3-0.3,0.6c-0.1,0.4-0.1,1-0.1,1.8s0,1.4,0.1,1.7c0.1,0.3,0.2,0.5,0.3,0.6s0.3,0.2,0.4,0.2
			s0.3-0.1,0.4-0.2c0.1-0.1,0.2-0.3,0.3-0.6c0.1-0.4,0.1-0.9,0.1-1.8s0-1.4-0.1-1.7c-0.1-0.3-0.2-0.5-0.3-0.6
			C122,413.7,121.8,413.7,121.7,413.7z"/>
		<path class="st5" d="M124.9,417.9l1.4-0.1c0,0.3,0.2,0.6,0.3,0.7c0.2,0.2,0.4,0.3,0.7,0.3c0.3,0,0.5-0.1,0.7-0.3
			c0.2-0.2,0.3-0.6,0.3-1.1c0-0.4-0.1-0.8-0.3-1c-0.2-0.2-0.5-0.3-0.8-0.3c-0.4,0-0.7,0.2-1.1,0.5l-1.1-0.2l0.7-3.7h3.6v1.3h-2.6
			l-0.2,1.2c0.3-0.2,0.6-0.2,0.9-0.2c0.6,0,1.1,0.2,1.5,0.7s0.6,1,0.6,1.7c0,0.6-0.2,1.1-0.5,1.6c-0.5,0.6-1.1,0.9-1.9,0.9
			c-0.7,0-1.2-0.2-1.6-0.5S125,418.5,124.9,417.9z"/>
	</g>
</g>
<g id="icons">
	<g id="stairs-4-2-2">
		<circle class="st12" cx="95.4" cy="317.4" r="18.6"/>
		<g class="st11">
			<path class="st13" d="M85.4,345.3l0.8-0.1c0,0.3,0.1,0.6,0.3,0.8c0.1,0.2,0.3,0.4,0.6,0.5c0.3,0.1,0.6,0.2,0.9,0.2
				c0.3,0,0.6,0,0.8-0.1s0.4-0.2,0.5-0.4c0.1-0.2,0.2-0.3,0.2-0.5c0-0.2-0.1-0.4-0.2-0.5c-0.1-0.1-0.3-0.3-0.6-0.4
				c-0.2-0.1-0.5-0.2-1.1-0.3s-1-0.3-1.2-0.4c-0.3-0.2-0.5-0.3-0.7-0.6c-0.1-0.2-0.2-0.5-0.2-0.8c0-0.3,0.1-0.6,0.3-0.9
				c0.2-0.3,0.4-0.5,0.8-0.6c0.3-0.1,0.7-0.2,1.1-0.2c0.5,0,0.9,0.1,1.2,0.2c0.3,0.1,0.6,0.4,0.8,0.6s0.3,0.6,0.3,1l-0.8,0.1
				c0-0.4-0.2-0.7-0.4-0.9c-0.2-0.2-0.6-0.3-1.1-0.3c-0.5,0-0.8,0.1-1.1,0.3c-0.2,0.2-0.3,0.4-0.3,0.6c0,0.2,0.1,0.4,0.2,0.5
				c0.2,0.1,0.6,0.3,1.2,0.4s1.1,0.3,1.4,0.4c0.4,0.2,0.6,0.4,0.8,0.6c0.2,0.3,0.3,0.5,0.3,0.9c0,0.3-0.1,0.6-0.3,0.9
				c-0.2,0.3-0.5,0.5-0.8,0.7c-0.3,0.2-0.7,0.2-1.2,0.2c-0.6,0-1-0.1-1.4-0.2c-0.4-0.2-0.7-0.4-0.9-0.7
				C85.5,346.1,85.4,345.7,85.4,345.3z"/>
			<path class="st13" d="M92.9,346.6l0.1,0.7c-0.2,0-0.4,0.1-0.6,0.1c-0.3,0-0.5,0-0.6-0.1c-0.1-0.1-0.3-0.2-0.3-0.3
				c-0.1-0.1-0.1-0.4-0.1-0.9v-2.5h-0.6v-0.6h0.6v-1.1l0.7-0.5v1.5h0.8v0.6h-0.8v2.6c0,0.2,0,0.4,0,0.4c0,0.1,0.1,0.1,0.1,0.1
				c0.1,0,0.1,0.1,0.3,0.1C92.7,346.6,92.8,346.6,92.9,346.6z"/>
			<path class="st13" d="M96.5,346.7c-0.3,0.2-0.5,0.4-0.8,0.5c-0.3,0.1-0.5,0.1-0.8,0.1c-0.5,0-0.9-0.1-1.1-0.4
				c-0.3-0.2-0.4-0.5-0.4-0.9c0-0.2,0-0.4,0.1-0.6c0.1-0.2,0.2-0.3,0.4-0.4s0.3-0.2,0.5-0.2c0.1,0,0.4-0.1,0.7-0.1
				c0.6-0.1,1.1-0.2,1.3-0.3c0-0.1,0-0.2,0-0.2c0-0.3-0.1-0.5-0.2-0.6c-0.2-0.2-0.5-0.3-0.9-0.3c-0.4,0-0.6,0.1-0.8,0.2
				c-0.2,0.1-0.3,0.3-0.4,0.7l-0.7-0.1c0.1-0.3,0.2-0.6,0.3-0.8s0.4-0.3,0.7-0.4c0.3-0.1,0.6-0.2,1-0.2c0.4,0,0.7,0,0.9,0.1
				s0.4,0.2,0.5,0.3c0.1,0.1,0.2,0.3,0.2,0.5c0,0.1,0,0.4,0,0.7v1c0,0.7,0,1.1,0,1.3c0,0.2,0.1,0.4,0.2,0.5h-0.8
				C96.6,347.1,96.6,346.9,96.5,346.7z M96.5,345c-0.3,0.1-0.7,0.2-1.2,0.3c-0.3,0-0.5,0.1-0.7,0.1s-0.2,0.1-0.3,0.2
				c-0.1,0.1-0.1,0.2-0.1,0.4c0,0.2,0.1,0.4,0.2,0.5c0.2,0.1,0.4,0.2,0.7,0.2c0.3,0,0.5-0.1,0.8-0.2c0.2-0.1,0.4-0.3,0.5-0.5
				c0.1-0.2,0.1-0.4,0.1-0.8V345z"/>
			<path class="st13" d="M98.4,342v-0.9h0.8v0.9H98.4z M98.4,347.3v-4.4h0.8v4.4H98.4z"/>
			<path class="st13" d="M100.3,347.3v-4.4h0.7v0.7c0.2-0.3,0.3-0.5,0.5-0.6s0.3-0.2,0.5-0.2c0.3,0,0.5,0.1,0.8,0.2l-0.3,0.7
				c-0.2-0.1-0.4-0.2-0.6-0.2c-0.2,0-0.3,0-0.4,0.1s-0.2,0.2-0.3,0.4c-0.1,0.3-0.1,0.6-0.1,0.9v2.3H100.3z"/>
			<path class="st13" d="M102.8,345.9l0.7-0.1c0,0.3,0.2,0.5,0.3,0.7s0.5,0.2,0.8,0.2c0.3,0,0.6-0.1,0.8-0.2
				c0.2-0.1,0.3-0.3,0.3-0.5c0-0.2-0.1-0.3-0.2-0.4c-0.1-0.1-0.4-0.2-0.8-0.3c-0.6-0.1-0.9-0.3-1.1-0.4c-0.2-0.1-0.4-0.2-0.5-0.4
				c-0.1-0.2-0.2-0.4-0.2-0.6c0-0.2,0-0.4,0.1-0.5c0.1-0.2,0.2-0.3,0.4-0.4c0.1-0.1,0.3-0.2,0.5-0.2s0.4-0.1,0.6-0.1
				c0.3,0,0.7,0.1,0.9,0.2s0.5,0.2,0.6,0.4c0.1,0.2,0.2,0.4,0.3,0.7l-0.7,0.1c0-0.2-0.1-0.4-0.3-0.5c-0.2-0.1-0.4-0.2-0.7-0.2
				c-0.3,0-0.6,0.1-0.7,0.2c-0.1,0.1-0.2,0.2-0.2,0.4c0,0.1,0,0.2,0.1,0.3c0.1,0.1,0.2,0.1,0.3,0.2c0.1,0,0.3,0.1,0.7,0.2
				c0.5,0.1,0.9,0.3,1.1,0.3c0.2,0.1,0.4,0.2,0.5,0.4c0.1,0.2,0.2,0.4,0.2,0.6c0,0.2-0.1,0.5-0.2,0.7c-0.1,0.2-0.4,0.4-0.6,0.5
				c-0.3,0.1-0.6,0.2-0.9,0.2c-0.6,0-1-0.1-1.3-0.4C103.1,346.8,102.9,346.4,102.8,345.9z"/>
		</g>
		<g id="Outline_Icons-2-2-4-2-2">
			<line class="st14" x1="87.1" y1="324.7" x2="101.6" y2="324.7"/>
			<polyline class="st14" points="99.1,324.7 99.1,322.2 96.6,322.2 96.6,319.6 94.1,319.6 94.1,317.1 91.5,317.1 91.5,314.6 
				87.1,314.6 			"/>
			<line class="st14" x1="94.7" y1="310.2" x2="102.6" y2="318.1"/>
			<polyline class="st14" points="94.7,313.3 94.7,310.2 97.9,310.2 			"/>
			<polyline class="st14" points="102.6,314.9 102.6,318.1 99.5,318.1 			"/>
		</g>
	</g>
	<g id="stairs-4-2-2-2">
		<circle class="st12" cx="599.8" cy="170.3" r="18.6"/>
		<g class="st11">
			<path class="st13" d="M589.8,198.2l0.8-0.1c0,0.3,0.1,0.6,0.3,0.8c0.1,0.2,0.3,0.4,0.6,0.5c0.3,0.1,0.6,0.2,0.9,0.2
				c0.3,0,0.6,0,0.8-0.1s0.4-0.2,0.5-0.4c0.1-0.2,0.2-0.3,0.2-0.5c0-0.2-0.1-0.4-0.2-0.5c-0.1-0.1-0.3-0.3-0.5-0.4
				c-0.2-0.1-0.5-0.2-1.1-0.3c-0.6-0.1-1-0.3-1.2-0.4c-0.3-0.2-0.5-0.3-0.7-0.6c-0.1-0.2-0.2-0.5-0.2-0.8c0-0.3,0.1-0.6,0.3-0.9
				c0.2-0.3,0.4-0.5,0.8-0.6c0.3-0.1,0.7-0.2,1.1-0.2c0.5,0,0.9,0.1,1.2,0.2c0.3,0.1,0.6,0.4,0.8,0.6c0.2,0.3,0.3,0.6,0.3,1
				l-0.8,0.1c0-0.4-0.2-0.7-0.4-0.9c-0.2-0.2-0.6-0.3-1.1-0.3c-0.5,0-0.8,0.1-1.1,0.3c-0.2,0.2-0.3,0.4-0.3,0.6
				c0,0.2,0.1,0.4,0.2,0.5c0.2,0.1,0.6,0.3,1.2,0.4s1.1,0.3,1.4,0.4c0.4,0.2,0.6,0.4,0.8,0.6c0.2,0.3,0.3,0.5,0.3,0.9
				c0,0.3-0.1,0.6-0.3,0.9c-0.2,0.3-0.5,0.5-0.8,0.7c-0.3,0.2-0.7,0.2-1.2,0.2c-0.6,0-1-0.1-1.4-0.2c-0.4-0.2-0.7-0.4-0.9-0.7
				C589.9,199,589.8,198.6,589.8,198.2z"/>
			<path class="st13" d="M597.3,199.5l0.1,0.7c-0.2,0-0.4,0.1-0.6,0.1c-0.3,0-0.5,0-0.6-0.1c-0.2-0.1-0.3-0.2-0.3-0.3
				c-0.1-0.1-0.1-0.4-0.1-0.9v-2.5h-0.6v-0.6h0.6v-1.1l0.7-0.5v1.5h0.8v0.6h-0.8v2.6c0,0.2,0,0.4,0,0.4c0,0.1,0.1,0.1,0.1,0.1
				s0.1,0.1,0.3,0.1C597,199.5,597.2,199.5,597.3,199.5z"/>
			<path class="st13" d="M600.9,199.6c-0.3,0.2-0.5,0.4-0.8,0.5c-0.3,0.1-0.5,0.1-0.8,0.1c-0.5,0-0.9-0.1-1.1-0.4
				c-0.3-0.2-0.4-0.5-0.4-0.9c0-0.2,0-0.4,0.1-0.6c0.1-0.2,0.2-0.3,0.4-0.4c0.2-0.1,0.3-0.2,0.5-0.2c0.1,0,0.4-0.1,0.7-0.1
				c0.6-0.1,1.1-0.2,1.3-0.3c0-0.1,0-0.2,0-0.2c0-0.3-0.1-0.5-0.2-0.6c-0.2-0.2-0.5-0.3-0.9-0.3c-0.4,0-0.6,0.1-0.8,0.2
				c-0.2,0.1-0.3,0.3-0.4,0.7l-0.7-0.1c0.1-0.3,0.2-0.6,0.3-0.8c0.2-0.2,0.4-0.3,0.7-0.4c0.3-0.1,0.6-0.2,1-0.2c0.4,0,0.7,0,0.9,0.1
				s0.4,0.2,0.5,0.3c0.1,0.1,0.2,0.3,0.2,0.5c0,0.1,0,0.4,0,0.7v1c0,0.7,0,1.1,0,1.3c0,0.2,0.1,0.4,0.2,0.5h-0.8
				C601,200,600.9,199.8,600.9,199.6z M600.9,198c-0.3,0.1-0.7,0.2-1.2,0.3c-0.3,0-0.5,0.1-0.7,0.1c-0.1,0.1-0.2,0.1-0.3,0.2
				c-0.1,0.1-0.1,0.2-0.1,0.4c0,0.2,0.1,0.4,0.2,0.5c0.2,0.1,0.4,0.2,0.7,0.2c0.3,0,0.5-0.1,0.8-0.2c0.2-0.1,0.4-0.3,0.5-0.5
				c0.1-0.2,0.1-0.4,0.1-0.8V198z"/>
			<path class="st13" d="M602.8,194.9v-0.9h0.8v0.9H602.8z M602.8,200.2v-4.4h0.8v4.4H602.8z"/>
			<path class="st13" d="M604.7,200.2v-4.4h0.7v0.7c0.2-0.3,0.3-0.5,0.5-0.6s0.3-0.2,0.5-0.2c0.3,0,0.5,0.1,0.8,0.2l-0.3,0.7
				c-0.2-0.1-0.4-0.2-0.6-0.2c-0.2,0-0.3,0-0.4,0.1s-0.2,0.2-0.3,0.4c-0.1,0.3-0.1,0.6-0.1,0.9v2.3H604.7z"/>
			<path class="st13" d="M607.2,198.9l0.7-0.1c0,0.3,0.2,0.5,0.3,0.7s0.5,0.2,0.8,0.2c0.3,0,0.6-0.1,0.8-0.2
				c0.2-0.1,0.2-0.3,0.2-0.5c0-0.2-0.1-0.3-0.2-0.4c-0.1-0.1-0.4-0.2-0.8-0.3c-0.5-0.1-0.9-0.3-1.1-0.4c-0.2-0.1-0.4-0.2-0.5-0.4
				c-0.1-0.2-0.2-0.4-0.2-0.6c0-0.2,0-0.4,0.1-0.5c0.1-0.2,0.2-0.3,0.4-0.4c0.1-0.1,0.3-0.2,0.5-0.2s0.4-0.1,0.6-0.1
				c0.3,0,0.7,0.1,0.9,0.2s0.5,0.2,0.6,0.4c0.1,0.2,0.2,0.4,0.3,0.7L610,197c0-0.2-0.1-0.4-0.3-0.5c-0.2-0.1-0.4-0.2-0.7-0.2
				c-0.3,0-0.6,0.1-0.7,0.2c-0.1,0.1-0.2,0.2-0.2,0.4c0,0.1,0,0.2,0.1,0.3c0.1,0.1,0.2,0.1,0.3,0.2c0.1,0,0.3,0.1,0.7,0.2
				c0.5,0.1,0.9,0.3,1.1,0.3c0.2,0.1,0.4,0.2,0.5,0.4c0.1,0.2,0.2,0.4,0.2,0.6c0,0.2-0.1,0.5-0.2,0.7c-0.1,0.2-0.4,0.4-0.6,0.5
				c-0.3,0.1-0.6,0.2-0.9,0.2c-0.6,0-1-0.1-1.3-0.4C607.5,199.7,607.3,199.3,607.2,198.9z"/>
		</g>
		<g id="Outline_Icons-2-2-4-2-2-2">
			<line class="st14" x1="591.5" y1="177.6" x2="606" y2="177.6"/>
			<polyline class="st14" points="603.5,177.6 603.5,175.1 601,175.1 601,172.5 598.4,172.5 598.4,170 595.9,170 595.9,167.5 
				591.5,167.5 			"/>
			<line class="st14" x1="599.1" y1="163.1" x2="607" y2="171"/>
			<polyline class="st14" points="599.1,166.2 599.1,163.1 602.2,163.1 			"/>
			<polyline class="st14" points="607,167.8 607,171 603.9,171 			"/>
		</g>
	</g>
</g>
<g id="outline">
	<polyline class="st15" points="703.1,112.2 764.6,112.2 764.6,293.8 	"/>
	<polyline class="st15" points="643.7,540.4 33.2,540.4 33.2,407.7 39.5,407.7 39.5,284.8 46.5,284.8 46.5,228.9 46.5,84.9 
		547.3,85.7 547.3,113.6 684.2,113.6 643,113.6 643,29.1 733.1,40.3 820.5,29.1 820.5,627.7 731.7,613.8 643.7,627.7 643.7,540.4 
		764.6,540.4 764.6,358.8 	"/>
	<polyline class="st16" points="73.7,229.6 46.5,229.6 525,229.6 519.4,286.9 592.7,286.9 592.7,373.5 552.2,373.5 552.2,540.4 
		617.2,540.4 617.2,429.4 594.8,429.4 	"/>
	<line class="st16" x1="574.9" y1="428.6" x2="552.2" y2="428.6"/>
	<polyline class="st16" points="553.9,286.9 553.9,113.6 645.8,113.6 645.8,236.4 632.5,236.4 	"/>
	<line class="st16" x1="553.9" y1="237.1" x2="567.2" y2="237.1"/>
	<line class="st16" x1="589.7" y1="237.1" x2="609.2" y2="237.1"/>
	<polyline class="st16" points="552.2,373.5 515.2,373.5 434.5,373.5 434.5,286.9 519.4,286.9 	"/>
	<polyline class="st16" points="552.2,423.4 509.7,423.4 515.2,373.5 505.4,458.3 33.2,458.3 84,458.3 84,448.4 	"/>
	<polyline class="st16" points="39.5,372 156.6,372 156.6,428.9 	"/>
	<line class="st16" x1="85" y1="372" x2="85" y2="429.6"/>
	<line class="st16" x1="155.5" y1="458.3" x2="155.5" y2="449.4"/>
	<polyline class="st16" points="46.5,284.8 160.2,284.8 160.2,338.8 	"/>
	<polyline class="st16" points="156.6,372 160.2,372 160.2,365.3 	"/>
	<line class="st16" x1="434.5" y1="373.5" x2="434.5" y2="431"/>
	<line class="st16" x1="434.5" y1="458.3" x2="434.5" y2="452.5"/>
	<polyline class="st16" points="329.7,420.9 333,420.9 333,357.7 267.1,357.7 267.1,420.9 310.3,420.9 	"/>
	<line class="st16" x1="523.7" y1="242.3" x2="553.9" y2="242.3"/>
	<polyline class="st16" points="477,458.3 477,540.4 347.3,540.4 347.3,458.3 185,458.3 185,540.4 	"/>
</g>
</svg>
