<?xml version="1.0" encoding="utf-8"?>
<!-- Generator: Adobe Illustrator 24.2.3, SVG Export Plug-In . SVG Version: 6.00 Build 0)  -->
<svg version="1.1" id="Layer_1" xmlns="http://www.w3.org/2000/svg" xmlns:xlink="http://www.w3.org/1999/xlink" x="0px" y="0px"
	 viewBox="0 0 843.7 658.2" style="enable-background:new 0 0 843.7 658.2;" xml:space="preserve">
<style type="text/css">
	.st0{fill:#4196B1;}
	.st1{fill:#99C5C6;}
	.st2{fill:#A8E0E5;}
	.st3{fill:#8ECCCE;}
	.st4{fill:#99B8BF;}
	.st5{fill:#FFFFFF;}
	.st6{opacity:0.15;fill:#010101;enable-background:new    ;}
	.st7{fill:#596068;}
	.st8{fill:#9BAEB7;}
	.st9{fill:none;stroke:#7A8E93;stroke-width:1.992;stroke-linecap:round;stroke-miterlimit:10;}
	.st10{opacity:0.7;fill:#575757;enable-background:new    ;}
	.st11{font-family:'Arial-BoldMT';}
	.st12{font-size:10px;}
	.st13{fill:#EBF2F2;}
	.st14{fill:#646B6D;}
	.st15{font-family:'ArialMT';}
	.st16{font-size:8.539px;}
	.st17{fill:none;stroke:#7A8E93;stroke-width:0.709;stroke-miterlimit:10;}
	.st18{fill:none;stroke:#EBF2F2;stroke-width:6;stroke-miterlimit:10;}
	.st19{fill:none;stroke:#EBF2F2;stroke-width:3;stroke-miterlimit:10;}
</style>
<g id="background">
	<polygon class="st0" points="46.5,84.9 46.5,284.9 39.5,284.9 39.5,407.7 33.2,407.7 33.2,549.7 643.7,549.7 643.7,638.8 
		729.3,623.5 820.5,638.8 820.5,612.7 820.5,29.1 733.8,40.2 643,29.1 643,114.7 546.4,114.7 546.4,85.7 	"/>
</g>
<g id="spaces">
	<polygon class="st1" points="46.5,84.9 547.3,84.9 547.3,113.6 553.9,113.6 553.9,237.1 645.8,237.1 645.8,29.1 735.2,40 
		820.5,29.1 820.5,627.7 731.7,613.8 643.7,627.7 643.7,541.6 33.2,541.6 33.2,458.3 155.9,458.3 155.9,372.3 160.4,372.3 
		160.4,284.9 46.5,284.9 	"/>
	<polygon class="st2" points="46.5,228.9 523.7,228.9 519.6,284.6 592.7,284.6 592.7,373.5 552.2,373.5 515.2,373.5 505.4,458.3 
		33.2,458.3 33.2,407.7 39.5,407.7 39.5,284.8 46.5,284.8 	"/>
	<rect x="553.9" y="114.8" class="st3" width="91.9" height="122.3"/>
	<rect x="39.5" y="284.9" class="st3" width="120.9" height="86.8"/>
	<polygon class="st3" points="155.9,372.3 155.9,457.4 35,457.4 35,406.7 39.7,406.7 39.7,371.2 	"/>
	<polygon class="st3" points="333,420.9 267.1,420.9 267.1,357.7 332.2,357.9 	"/>
	<rect x="434.5" y="286.9" class="st4" width="158.6" height="86.7"/>
	<polygon class="st3" points="515.2,373.5 505.4,458.3 434.5,458.3 434.5,373.5 	"/>
</g>
<g id="furniature">
	<polygon class="st5" points="55.1,241.2 66.3,241.2 66.3,270.5 160.4,270.5 160.4,281.2 55.1,281.2 	"/>
	<polygon class="st5" points="451.9,271 507.9,271 511.7,233.2 524.6,233.2 519.6,284.6 451.9,284.6 	"/>
	<path class="st6" d="M79.5,266.2l-3.8-0.1c-2.9,0-5.3-2.5-5.2-5.4v-0.3l0.2-3.8c0.2-3.7,3.4-6.6,7.1-6.6l0,0c3.8,0.1,6.8,3,6.9,6.8
		l0.1,3.8c0.1,2.9-2.2,5.4-5.1,5.5l0,0C79.7,266.2,79.6,266.2,79.5,266.2z"/>
	<path class="st7" d="M79.2,266.5l-3.8-0.1c-2.9,0-5.3-2.5-5.2-5.4v-0.3l0.2-3.8c0.2-3.7,3.4-6.6,7.1-6.6l0,0c3.8,0.1,6.8,3,6.9,6.8
		l0.1,3.8c0.1,2.9-2.2,5.4-5.1,5.5C79.3,266.5,79.2,266.5,79.2,266.5z"/>
	<path class="st8" d="M77.9,267.7l-3.8-0.1c-2.9,0-5.3-2.5-5.2-5.4l0,0l0,0V262l0.2-3.8c0.2-3.7,3.4-6.6,7.1-6.6l0,0
		c3.8,0.1,6.8,3,6.9,6.8l0.1,3.8c0.1,2.9-2.2,5.4-5.1,5.5C78.1,267.7,78,267.7,77.9,267.7z"/>
	<path class="st9" d="M68.8,262.8l0.4-4.6c0.2-3.7,3.4-6.6,7.1-6.6l0,0c3.8,0.1,6.8,3,6.9,6.8l0.2,4.6"/>
	<path class="st6" d="M108.5,266.2l-3.8-0.1c-2.9,0-5.3-2.5-5.2-5.4v-0.3l0.2-3.8c0.2-3.7,3.4-6.6,7.1-6.6l0,0
		c3.8,0.1,6.8,3,6.9,6.8l0.1,3.8c0.1,2.9-2.2,5.4-5.1,5.5l0,0C108.6,266.2,108.5,266.2,108.5,266.2z"/>
	<path class="st7" d="M108.1,266.5l-3.8-0.1c-2.9,0-5.3-2.5-5.2-5.4v-0.3l0.2-3.8c0.2-3.7,3.4-6.6,7.1-6.6l0,0
		c3.8,0.1,6.8,3,6.9,6.8l0.1,3.8c0.1,2.9-2.2,5.4-5.1,5.5C108.3,266.5,108.2,266.5,108.1,266.5z"/>
	<path class="st8" d="M106.8,267.7l-3.8-0.1c-2.9,0-5.3-2.5-5.2-5.4l0,0l0,0V262l0.2-3.8c0.2-3.7,3.4-6.6,7.1-6.6l0,0
		c3.8,0.1,6.8,3,6.9,6.8l0.1,3.8c0.1,2.9-2.2,5.4-5.1,5.5C107,267.7,106.9,267.7,106.8,267.7z"/>
	<path class="st9" d="M97.7,262.8l0.4-4.6c0.2-3.7,3.4-6.6,7.1-6.6l0,0c3.8,0.1,6.8,3,6.9,6.8l0.2,4.6"/>
	<path class="st6" d="M136,266.2l-3.8-0.1c-2.9,0-5.3-2.5-5.2-5.4v-0.3l0.2-3.8c0.2-3.7,3.4-6.6,7.1-6.6l0,0c3.8,0.1,6.8,3,6.9,6.8
		l0.1,3.8c0.1,2.9-2.2,5.4-5.1,5.5l0,0C136.1,266.2,136,266.2,136,266.2z"/>
	<path class="st7" d="M135.6,266.5l-3.8-0.1c-2.9,0-5.3-2.5-5.2-5.4v-0.3l0.2-3.8c0.2-3.7,3.4-6.6,7.1-6.6l0,0
		c3.8,0.1,6.8,3,6.9,6.8l0.1,3.8c0.1,2.9-2.2,5.4-5.1,5.5C135.8,266.5,135.7,266.5,135.6,266.5z"/>
	<path class="st8" d="M134.3,267.7l-3.8-0.1c-2.9,0-5.3-2.5-5.2-5.4l0,0l0,0V262l0.2-3.8c0.2-3.7,3.4-6.6,7.1-6.6l0,0
		c3.8,0.1,6.8,3,6.9,6.8l0.1,3.8c0.1,2.9-2.2,5.4-5.1,5.5C134.5,267.7,134.4,267.7,134.3,267.7z"/>
	<path class="st9" d="M125.2,262.8l0.4-4.6c0.2-3.7,3.4-6.6,7.1-6.6l0,0c3.8,0.1,6.8,3,6.9,6.8l0.2,4.6"/>
	<path class="st6" d="M467.5,266.2l-3.8-0.1c-2.9,0-5.3-2.5-5.2-5.4v-0.3l0.2-3.8c0.2-3.7,3.4-6.6,7.1-6.6l0,0
		c3.8,0.1,6.8,3,6.9,6.8l0.1,3.8c0.1,2.9-2.2,5.4-5.1,5.5l0,0C467.7,266.2,467.6,266.2,467.5,266.2z"/>
	<path class="st7" d="M467.1,266.5l-3.8-0.1c-2.9,0-5.3-2.5-5.2-5.4l0,0v-0.3l0.2-3.8c0.2-3.7,3.4-6.6,7.1-6.6l0,0
		c3.8,0.1,6.8,3,6.9,6.8l0.1,3.8c0.1,2.9-2.2,5.4-5.1,5.5C467.3,266.5,467.2,266.5,467.1,266.5z"/>
	<path class="st8" d="M465.8,267.7l-3.8-0.1c-2.9,0-5.3-2.5-5.2-5.4l0,0V262l0.2-3.8c0.2-3.7,3.4-6.6,7.1-6.6l0,0
		c3.8,0.1,6.8,3,6.9,6.8l0.1,3.8c0.1,2.9-2.2,5.4-5.1,5.5C466,267.7,465.9,267.7,465.8,267.7z"/>
	<path class="st9" d="M456.7,262.8l0.4-4.6c0.2-3.7,3.4-6.6,7.1-6.6l0,0c3.8,0.1,6.8,3,6.9,6.8l0.2,4.6"/>
	<path class="st6" d="M495,266.2l-3.8-0.1c-2.9,0-5.3-2.5-5.2-5.4v-0.3l0.2-3.8c0.2-3.7,3.4-6.6,7.1-6.6l0,0c3.8,0.1,6.8,3,6.9,6.8
		l0.1,3.8c0.1,2.9-2.2,5.4-5.1,5.5l0,0C495.2,266.2,495.1,266.2,495,266.2z"/>
	<path class="st7" d="M494.6,266.5l-3.8-0.1c-2.9,0-5.3-2.5-5.2-5.4l0,0v-0.3l0.2-3.8c0.2-3.7,3.4-6.6,7.1-6.6l0,0
		c3.8,0.1,6.8,3,6.9,6.8l0.1,3.8c0.1,2.9-2.2,5.4-5.1,5.5C494.8,266.5,494.7,266.5,494.6,266.5z"/>
	<path class="st8" d="M493.4,267.7l-3.8-0.1c-2.9,0-5.3-2.5-5.2-5.4l0,0V262l0.2-3.8c0.2-3.7,3.4-6.6,7.1-6.6l0,0
		c3.8,0.1,6.8,3,6.9,6.8l0.1,3.8c0.1,2.9-2.2,5.4-5.1,5.5C493.5,267.7,493.4,267.7,493.4,267.7z"/>
	<path class="st9" d="M484.2,262.8l0.4-4.6c0.2-3.7,3.4-6.6,7.1-6.6l0,0c3.8,0.1,6.8,3,6.9,6.8l0.2,4.6"/>
</g>
<g id="bookable">
	<rect id="area-0.5.M.04-status" x="267.1" y="357.6" class="st10" width="65.9" height="63.3"/>
	<polygon id="area-0.5.M.03-status" class="st10" points="434.5,373.5 515.2,373.5 505.4,458.3 434.5,458.3 	"/>
	<polygon id="area-0.5.M.02-status" class="st10" points="369,370.4 424.1,356.6 409.7,292.2 351.3,306.2 	"/>
	<polygon id="area-0.5.M.07-status" class="st10" points="166.2,360.3 225.6,381.9 249.7,314.9 189.4,292.2 	"/>
	<polygon id="area-0.5.M.05-status" class="st10" points="155.9,372.3 155.9,457.4 85,457.4 85,371.4 	"/>
	<text transform="matrix(1 0 0 1 366.993 330.228)" class="st5 st11 st12">Entresol </text>
	<text transform="matrix(1 0 0 1 376.57 342.228)" class="st5 st11 st12">M-02</text>
	<text transform="matrix(1 0 0 1 452.032 412.306)" class="st5 st11 st12">Entresol </text>
	<text transform="matrix(1 0 0 1 461.609 424.306)" class="st5 st11 st12">M-03</text>
	<text transform="matrix(1 0 0 1 279.339 389.317)" class="st5 st11 st12">Entresol </text>
	<text transform="matrix(1 0 0 1 288.916 401.317)" class="st5 st11 st12">M-04</text>
	<text transform="matrix(1 0 0 1 188.165 334.676)" class="st5 st11 st12">Entresol </text>
	<text transform="matrix(1 0 0 1 197.742 346.676)" class="st5 st11 st12">M-07</text>
	<text transform="matrix(1 0 0 1 97.677 407.714)" class="st5 st11 st12">Entresol </text>
	<text transform="matrix(1 0 0 1 107.254 419.714)" class="st5 st11 st12">M-05</text>
</g>
<g id="icons">
	<g id="stairs-4-2-2">
		<circle class="st13" cx="95.4" cy="317.4" r="18.6"/>
		<text transform="matrix(1 0 0 1 85.014 347.261)" class="st14 st15 st16">Stairs</text>
		<g id="Outline_Icons-2-2-4-2-2">
			<line class="st17" x1="87.1" y1="324.7" x2="101.6" y2="324.7"/>
			<polyline class="st17" points="99.1,324.7 99.1,322.2 96.6,322.2 96.6,319.6 94.1,319.6 94.1,317.1 91.5,317.1 91.5,314.6 
				87.1,314.6 			"/>
			<line class="st17" x1="94.7" y1="310.2" x2="102.6" y2="318.1"/>
			<polyline class="st17" points="94.7,313.3 94.7,310.2 97.9,310.2 			"/>
			<polyline class="st17" points="102.6,314.9 102.6,318.1 99.5,318.1 			"/>
		</g>
	</g>
	<g id="stairs-4-2-2-2">
		<circle class="st13" cx="599.8" cy="170.3" r="18.6"/>
		<text transform="matrix(1 0 0 1 589.395 200.177)" class="st14 st15 st16">Stairs</text>
		<g id="Outline_Icons-2-2-4-2-2-2">
			<line class="st17" x1="591.5" y1="177.6" x2="606" y2="177.6"/>
			<polyline class="st17" points="603.5,177.6 603.5,175.1 601,175.1 601,172.5 598.4,172.5 598.4,170 595.9,170 595.9,167.5 
				591.5,167.5 			"/>
			<line class="st17" x1="599.1" y1="163.1" x2="607" y2="171"/>
			<polyline class="st17" points="599.1,166.2 599.1,163.1 602.2,163.1 			"/>
			<polyline class="st17" points="607,167.8 607,171 603.9,171 			"/>
		</g>
	</g>
</g>
<g id="outline">
	<polyline class="st18" points="703.1,112.2 764.6,112.2 764.6,293.8 	"/>
	<polyline class="st18" points="643.7,540.4 33.2,540.4 33.2,407.7 39.5,407.7 39.5,284.8 46.5,284.8 46.5,228.9 46.5,84.9 
		547.3,85.7 547.3,113.6 684.2,113.6 643,113.6 643,29.1 733.1,40.3 820.5,29.1 820.5,627.7 731.7,613.8 643.7,627.7 643.7,540.4 
		764.6,540.4 764.6,358.8 	"/>
	<polyline class="st19" points="73.7,229.6 46.5,229.6 525,229.6 519.4,286.9 592.7,286.9 592.7,373.5 552.2,373.5 552.2,540.4 
		617.2,540.4 617.2,429.4 594.8,429.4 	"/>
	<line class="st19" x1="574.9" y1="428.6" x2="552.2" y2="428.6"/>
	<polyline class="st19" points="553.9,286.9 553.9,113.6 645.8,113.6 645.8,236.4 632.5,236.4 	"/>
	<line class="st19" x1="553.9" y1="237.1" x2="567.2" y2="237.1"/>
	<line class="st19" x1="589.7" y1="237.1" x2="609.2" y2="237.1"/>
	<polyline class="st19" points="552.2,373.5 515.2,373.5 434.5,373.5 434.5,286.9 519.4,286.9 	"/>
	<polyline class="st19" points="552.2,423.4 509.7,423.4 515.2,373.5 505.4,458.3 33.2,458.3 84,458.3 84,448.4 	"/>
	<polyline class="st19" points="39.5,372 156.6,372 156.6,428.9 	"/>
	<line class="st19" x1="85" y1="372" x2="85" y2="429.6"/>
	<line class="st19" x1="155.5" y1="458.3" x2="155.5" y2="449.4"/>
	<polyline class="st19" points="46.5,284.8 160.2,284.8 160.2,338.8 	"/>
	<polyline class="st19" points="156.6,372 160.2,372 160.2,365.3 	"/>
	<line class="st19" x1="434.5" y1="373.5" x2="434.5" y2="431"/>
	<line class="st19" x1="434.5" y1="458.3" x2="434.5" y2="452.5"/>
	<polyline class="st19" points="329.7,420.9 333,420.9 333,357.7 267.1,357.7 267.1,420.9 310.3,420.9 	"/>
	<line class="st19" x1="523.7" y1="242.3" x2="553.9" y2="242.3"/>
	<polyline class="st19" points="477,458.3 477,540.4 347.3,540.4 347.3,458.3 185,458.3 185,540.4 	"/>
</g>
</svg>
