<svg width="421" height="390" viewBox="0 0 421 390" fill="none" xmlns="http://www.w3.org/2000/svg">
<mask id="mask0" mask-type="alpha" maskUnits="userSpaceOnUse" x="0" y="0" width="421" height="390">
<path d="M255.348 371.441C288.186 387.992 327.184 391.861 362.617 382.083C375.021 378.661 387.264 373.45 396.589 364.561C407.697 353.971 413.785 338.877 415.792 323.637C419.189 297.844 420.682 189.965 420.271 0H0C0 197.761 0 303.399 0 316.915C0 335.843 15.634 389.531 73.3016 389.531C95.5978 389.531 109.387 364.722 128.506 355.234C156.335 341.424 190.296 339.39 218.979 351.86C231.608 357.351 243.049 365.241 255.348 371.441Z" fill="white"/>
</mask>
<g mask="url(#mask0)">
<path fill-rule="evenodd" clip-rule="evenodd" d="M218.979 351.86C231.608 357.351 243.049 365.241 255.348 371.44C288.186 387.992 327.184 391.861 362.617 382.083C375.021 378.661 387.264 373.45 396.589 364.561C407.697 353.971 413.785 338.877 415.792 323.636C420.887 284.947 400.397 245.603 369.293 222.162C344.335 203.35 313.628 191.285 282.672 191.285C189.546 191.285 178.993 239.749 103.051 222.958C39.7964 208.972 0 260.13 0 316.915C0 335.843 15.634 389.53 73.3016 389.53C95.5978 389.53 109.387 364.721 128.506 355.233C156.335 341.423 190.296 339.389 218.979 351.86Z" fill="#7F7F7F"/>
<path d="M454.68 337.176H-21.3307V459.683H454.68V337.176Z" fill="#F0F0F0"/>
<path d="M263.827 169.71C272.507 169.71 279.544 162.665 279.544 153.975C279.544 145.285 272.507 138.24 263.827 138.24C255.146 138.24 248.109 145.285 248.109 153.975C248.109 162.665 255.146 169.71 263.827 169.71Z" fill="#E6E6E6"/>
<path d="M266.072 -41.5859H260.459V115.763H266.072V-41.5859Z" fill="#E6E6E6"/>
<path fill-rule="evenodd" clip-rule="evenodd" d="M263.827 102.276V158.472H226.779C226.779 136.045 232.392 136.045 248.109 130.374C252.712 117.978 253.988 110.975 255.6 102.276H263.827ZM272.053 102.276C273.665 110.975 274.942 117.978 279.544 130.374C295.104 135.988 300.761 136.044 300.873 157.806L300.875 158.472H263.827V102.276H272.053ZM282.912 -41.5859L281.577 -33.5643C280.404 -26.5191 274.315 -21.3554 267.18 -21.3554H260.473C253.338 -21.3554 247.25 -26.5191 246.077 -33.5643L244.741 -41.5859H282.912Z" fill="#7F7F7F"/>
<path fill-rule="evenodd" clip-rule="evenodd" d="M110.021 252.883C111.261 252.883 112.267 253.889 112.267 255.131V323.69C112.267 324.931 111.261 325.938 110.021 325.938H108.899V334.929C108.899 336.17 107.893 337.177 106.653 337.177H56.1333C54.8933 337.177 53.888 336.17 53.888 334.929V325.938H52.7653C51.5253 325.938 50.52 324.931 50.52 323.69V255.131C50.52 253.889 51.5253 252.883 52.7653 252.883H110.021Z" fill="#E6E6E6"/>
<path fill-rule="evenodd" clip-rule="evenodd" d="M104.408 310.203V316.947H90.936V310.203H104.408ZM89.8133 312.451V314.699H77.464V312.451H89.8133Z" fill="#F0F0F0"/>
<path fill-rule="evenodd" clip-rule="evenodd" d="M104.408 330.433V333.804H98.7946V330.433H104.408ZM104.408 312.45V314.698H81.9547V312.45H104.408ZM104.408 309.078V310.202H98.7946V309.078H104.408Z" fill="#7F7F7F"/>
<path fill-rule="evenodd" clip-rule="evenodd" d="M112.267 322.566V323.69C112.267 324.932 111.261 325.938 110.021 325.938H52.7653C51.5253 325.938 50.52 324.932 50.52 323.69V322.566H112.267ZM103.285 259.627C105.765 259.627 107.776 261.64 107.776 264.123V295.592C107.776 298.075 105.765 300.088 103.285 300.088H60.624C58.1439 300.088 56.1333 298.075 56.1333 295.592V264.123C56.1333 261.64 58.1439 259.627 60.624 259.627H103.285Z" fill="#B3B3B3"/>
</g>
<path d="M199.835 124.756H102.163C99.6825 124.756 97.672 126.769 97.672 129.252V191.067C97.672 193.55 99.6825 195.563 102.163 195.563H199.835C202.315 195.563 204.325 193.55 204.325 191.067V129.252C204.325 126.769 202.315 124.756 199.835 124.756Z" fill="#E6E6E6"/>
<path fill-rule="evenodd" clip-rule="evenodd" d="M97.672 178.703H204.325V191.066C204.325 193.549 202.315 195.562 199.835 195.562H102.163C99.6825 195.562 97.672 193.549 97.672 191.066V178.703Z" fill="#7F7F7F"/>
<path fill-rule="evenodd" clip-rule="evenodd" d="M112.688 188.82C109.682 186.243 107.776 182.416 107.776 178.143C107.776 170.384 114.059 164.094 121.809 164.094C129.56 164.094 135.843 170.384 135.843 178.143C135.843 182.416 133.937 186.243 130.93 188.82H112.688ZM121.809 182.638C124.289 182.638 126.3 180.626 126.3 178.143C126.3 175.66 124.289 173.647 121.809 173.647C119.329 173.647 117.319 175.66 117.319 178.143C117.319 180.626 119.329 182.638 121.809 182.638Z" fill="white"/>
<path fill-rule="evenodd" clip-rule="evenodd" d="M173.06 185.447C170.895 183.69 169.523 181.08 169.523 178.167C169.523 172.876 174.046 168.588 179.627 168.588C185.207 168.588 189.731 172.876 189.731 178.167C189.731 181.08 188.359 183.69 186.194 185.447H173.06ZM179.627 181.232C181.412 181.232 182.86 179.86 182.86 178.167C182.86 176.474 181.412 175.102 179.627 175.102C177.841 175.102 176.393 176.474 176.393 178.167C176.393 179.86 177.841 181.232 179.627 181.232Z" fill="white"/>
<path fill-rule="evenodd" clip-rule="evenodd" d="M146.256 183.199C144.692 181.911 143.701 179.997 143.701 177.86C143.701 173.981 146.968 170.836 150.999 170.836C155.029 170.836 158.296 173.981 158.296 177.86C158.296 179.997 157.305 181.911 155.742 183.199H146.256ZM150.999 180.108C152.288 180.108 153.334 179.102 153.334 177.86C153.334 176.619 152.288 175.613 150.999 175.613C149.709 175.613 148.664 176.619 148.664 177.86C148.664 179.102 149.709 180.108 150.999 180.108Z" fill="white"/>
<path d="M291.063 331.309H233.223V334.928H291.063V331.309Z" fill="#E6E6E6"/>
<path fill-rule="evenodd" clip-rule="evenodd" d="M254.913 316.828H262.143V331.296C253.981 331.322 254.913 331.296 247.683 331.296C252.503 327.067 254.913 322.244 254.913 316.828ZM269.373 316.828C269.373 322.244 271.783 327.067 276.603 331.296C269.373 331.296 270.305 331.322 262.143 331.296V316.828H269.373Z" fill="#B3B3B3"/>
<path d="M341.672 195.562H182.613C176.623 195.562 171.768 200.423 171.768 206.42V305.972C171.768 311.968 176.623 316.829 182.613 316.829H341.672C347.662 316.829 352.517 311.968 352.517 305.972V206.42C352.517 200.423 347.662 195.562 341.672 195.562Z" fill="#E6E6E6"/>
<path fill-rule="evenodd" clip-rule="evenodd" d="M182.613 195.562H341.672C347.662 195.562 352.517 200.423 352.517 206.42V295.11H171.768V206.42C171.768 200.423 176.623 195.562 182.613 195.562Z" fill="#4D4D4D"/>
<path d="M343.48 204.611H180.805V286.059H343.48V204.611Z" fill="white"/>
<path fill-rule="evenodd" clip-rule="evenodd" d="M255.046 261.891L259.532 250.13C257.832 249.232 256.672 247.449 256.672 245.393C256.672 242.435 259.072 240.035 262.033 240.035C264.993 240.035 267.393 242.435 267.393 245.393C267.393 247.449 266.233 249.232 264.533 250.13L269.018 261.891H255.046ZM262.033 227.215C248.863 227.215 238.187 237.885 238.187 251.047C238.187 264.209 248.863 274.879 262.033 274.879C275.201 274.879 285.877 264.209 285.877 251.047C285.877 237.885 275.201 227.215 262.033 227.215Z" fill="#B3B3B3"/>
<path fill-rule="evenodd" clip-rule="evenodd" d="M268.92 229.119C268.92 225.321 265.837 222.24 262.032 222.24C258.227 222.24 255.145 225.321 255.145 229.119C255.145 231.625 256.567 232.312 262.032 232.312C267.497 232.312 268.92 231.625 268.92 229.119ZM274.839 229.119C274.839 232.801 273.235 235.479 270.28 236.904C268.18 237.917 265.705 238.237 262.032 238.237C258.36 238.237 255.885 237.917 253.785 236.904C250.83 235.479 249.225 232.801 249.225 229.119C249.225 222.046 254.961 216.314 262.032 216.314C269.104 216.314 274.839 222.046 274.839 229.119Z" fill="#B3B3B3"/>
</svg>
