<?xml version="1.0" encoding="utf-8"?>
<!-- Generator: Adobe Illustrator 24.0.1, SVG Export Plug-In . SVG Version: 6.00 Build 0)  -->
<svg version="1.1" id="Layer_1" xmlns="http://www.w3.org/2000/svg" xmlns:xlink="http://www.w3.org/1999/xlink" x="0px" y="0px"
	 viewBox="0 0 117 95.3" style="enable-background:new 0 0 117 95.3;" xml:space="preserve">
<style type="text/css">
	.st0{clip-path:url(#SVGID_2_);}
	.st1{fill:#051C2C;}
	.st2{fill:#CE1A51;}
	.st3{fill:#FFFFFF;}
	.st4{fill:#3E3E3E;}
	.st5{fill:#E6E6E6;}
	.st6{fill:none;}
	.st7{fill:#EF88A8;}
	.st8{clip-path:url(#SVGID_4_);}
</style>
<g>
	<defs>
		<rect id="SVGID_1_" x="-84" y="-54" width="284" height="202"/>
	</defs>
	<clipPath id="SVGID_2_">
		<use xlink:href="#SVGID_1_"  style="overflow:visible;"/>
	</clipPath>
	<g id="Delete_are_you_sure_" class="st0">
		<g id="Group_5070" transform="translate(17.4 162.307)">
			<g id="Background08-2">
				<path id="Background08-3" class="st1" d="M99.6-118.9c0,32.4-26.2,38.2-58.5,38.2s-58.5-5.8-58.5-38.2s26.2-43.4,58.5-43.4
					S99.6-151.3,99.6-118.9"/>
			</g>
			<rect id="Rectangle_2851" x="27.7" y="-115.1" class="st2" width="30" height="36"/>
			<path id="Rectangle" class="st3" d="M5.2-151.7l10-3.1c5.8-1.8,12,1.5,13.7,7.3l6.1,19.8c1.8,5.8-1.5,12-7.3,13.7l-10,3.1
				c-5.8,1.8-12-1.5-13.7-7.3l-6.1-19.8C-3.9-143.8-0.7-149.9,5.2-151.7z"/>
			<path id="Rectangle-2" class="st4" d="M2.2-144.9l19.2-5.9c0.9-0.3,1.9,0.2,2.2,1.2l0,0c0.3,0.9-0.2,1.9-1.2,2.2l-19.2,5.9
				c-0.9,0.3-1.9-0.2-2.2-1.2l0,0C0.7-143.6,1.3-144.6,2.2-144.9z"/>
			<path id="Combined_Shape" class="st5" d="M9.5-117c-0.3,0.1-0.6-0.1-0.7-0.4c-0.1-0.3,0.1-0.6,0.4-0.7l21.4-6.5
				c0.3-0.1,0.6,0.1,0.8,0.4c0.1,0.3-0.1,0.6-0.4,0.8c0,0,0,0,0,0L9.5-117z M8.8-119.3c-0.3,0.1-0.6-0.1-0.7-0.4c0,0,0,0,0,0
				c-0.1-0.3,0.1-0.6,0.4-0.7c0,0,0,0,0,0l0,0l21.4-6.5c0.3-0.1,0.6,0.1,0.7,0.4c0.1,0.3-0.1,0.6-0.4,0.7l0,0L8.8-119.3z M8.1-121.5
				c-0.3,0.1-0.6-0.1-0.7-0.4c-0.1-0.3,0.1-0.6,0.4-0.7l21.4-6.5c0.3-0.1,0.6,0.1,0.7,0.4c0,0,0,0,0,0c0.1,0.3-0.1,0.6-0.4,0.7
				L8.1-121.5z M7.4-123.8c-0.3,0.1-0.6-0.1-0.7-0.4c-0.1-0.3,0.1-0.6,0.4-0.7l21.4-6.5c0.3-0.1,0.6,0.1,0.7,0.4c0,0,0,0,0,0
				c0.1,0.3-0.1,0.6-0.4,0.7c0,0,0,0,0,0L7.4-123.8z M6.7-126.1c-0.3,0.1-0.6-0.1-0.8-0.4c-0.1-0.3,0.1-0.6,0.4-0.8c0,0,0,0,0,0
				c0,0,0,0,0,0l21.4-6.5c0.3-0.1,0.6,0.1,0.8,0.4c0.1,0.3-0.1,0.6-0.4,0.8c0,0,0,0,0,0L6.7-126.1z M6-128.4
				c-0.3,0.1-0.6-0.1-0.8-0.4c0,0,0,0,0,0c-0.1-0.3,0.1-0.6,0.4-0.8l0,0l21.4-6.5c0.3-0.1,0.6,0.1,0.8,0.4c0,0,0,0,0,0
				c0.1,0.3-0.1,0.6-0.4,0.8l0,0L6-128.4z M5.3-130.6c-0.3,0.1-0.6-0.1-0.7-0.4c0,0,0,0,0,0c-0.1-0.3,0.1-0.6,0.4-0.7l0,0l21.4-6.5
				c0.3-0.1,0.6,0.1,0.7,0.4c0,0,0,0,0,0c0.1,0.3-0.1,0.6-0.4,0.7L5.3-130.6z M4.6-132.9c-0.3,0.1-0.6-0.1-0.7-0.4
				c-0.1-0.3,0.1-0.6,0.4-0.7c0,0,0,0,0,0l0,0l21.4-6.5c0.3-0.1,0.6,0.1,0.7,0.4c0,0,0,0,0,0c0.1,0.3-0.1,0.6-0.4,0.7c0,0,0,0,0,0
				L4.6-132.9z M3.9-135.2c-0.3,0.1-0.6-0.1-0.7-0.4c-0.1-0.3,0.1-0.6,0.4-0.7c0,0,0,0,0,0l21.4-6.6c0.3-0.1,0.6,0.1,0.7,0.4
				c0.1,0.3-0.1,0.6-0.4,0.7L3.9-135.2z"/>
			<g id="Group_5070-2">
				<path id="Path_19884" class="st6" d="M31.6-111.4L31.6-111.4c-0.9,0-1.6,0.7-1.6,1.6l0.5,25.5c0,0.9,0.7,1.5,1.6,1.5h0
					c0.9,0,1.5-0.7,1.5-1.6l-0.5-25.6C33.1-110.7,32.4-111.4,31.6-111.4z"/>
				<path id="Path_19885" class="st6" d="M42.7-111.4L42.7-111.4c-0.9,0-1.6,0.7-1.6,1.6c0,0,0,0,0,0v25.5c0,0,0,0.1,0,0.1
					c0,0.9,0.7,1.5,1.6,1.5c0.9,0,1.5-0.7,1.5-1.6v-25.6l0,0C44.3-110.7,43.6-111.4,42.7-111.4C42.7-111.4,42.7-111.4,42.7-111.4z"
					/>
				<rect id="Rectangle_2861" x="36.5" y="-130.4" class="st6" width="12.4" height="3.1"/>
				<path id="Path_19886" class="st6" d="M53.8-111.4L53.8-111.4c-0.9,0-1.6,0.7-1.6,1.5c0,0,0,0,0,0l-0.5,25.6v0
					c0,0.9,0.7,1.6,1.5,1.6c0,0,0,0,0,0h0c0.9,0,1.5-0.7,1.6-1.5l0.5-25.6l0,0C55.4-110.7,54.7-111.4,53.8-111.4z"/>
				<path id="Path_19887" class="st7" d="M72-129.5l2.5,1.4c0.7,0.4,1.7,0.2,2.1-0.6c0,0,0,0,0,0c0.4-0.7,0.2-1.7-0.6-2.1
					c0,0,0,0,0,0l-15.5-8.9l1.6-2.7c0.9-1.5,0.3-3.4-1.1-4.2l-10.8-6.2c-1.5-0.9-3.4-0.3-4.3,1.1l-1.6,2.7l-15.5-8.9
					c-0.7-0.4-1.7-0.2-2.1,0.6c0,0,0,0,0,0c-0.4,0.7-0.2,1.7,0.6,2.1c0,0,0,0,0,0l0,0l2.5,1.4L72-129.5L72-129.5z M57.9-141.2
					l-10.7-6.2l1.6-2.7l10.7,6.2L57.9-141.2z"/>
				<path id="Path_19888" class="st7" d="M20.4-124.1c-1.1,0-1.9,0.9-1.9,1.9c0,0,0,0,0,0.1l1.9,49.5c0.1,3.1,2.7,5.6,5.8,5.6h33
					c3.1,0,5.7-2.5,5.8-5.6l1.9-50.3c0-0.6-0.5-1.2-1.1-1.2c0,0,0,0,0,0H20.4z M32.1-82.7L32.1-82.7c-0.9,0-1.6-0.7-1.6-1.5
					L30-109.8c0-0.9,0.7-1.6,1.5-1.6h0c0.9,0,1.5,0.7,1.6,1.5l0.5,25.6C33.7-83.5,33-82.8,32.1-82.7z M44.3-109.9v25.6
					c0,0.9-0.7,1.6-1.5,1.6c-0.9,0-1.6-0.7-1.6-1.5c0,0,0-0.1,0-0.1v-25.6c0-0.9,0.7-1.6,1.6-1.6h0l0,0
					C43.6-111.4,44.3-110.7,44.3-109.9L44.3-109.9L44.3-109.9z M55.4-109.8l-0.5,25.5c0,0.9-0.7,1.5-1.6,1.5h0
					c-0.8,0-1.5-0.7-1.5-1.5c0,0,0,0,0,0v0l0.5-25.6c0-0.9,0.7-1.6,1.6-1.5c0,0,0,0,0,0l0,0C54.7-111.4,55.4-110.7,55.4-109.8
					C55.4-109.9,55.4-109.9,55.4-109.8L55.4-109.8z"/>
			</g>
			<g id="Group_5072">
				<g>
					<defs>
						
							<rect id="SVGID_3_" x="49.2" y="-138.8" transform="matrix(0.7071 -0.7071 0.7071 0.7071 106.0214 10.0569)" width="31.9" height="31.7"/>
					</defs>
					<clipPath id="SVGID_4_">
						<use xlink:href="#SVGID_3_"  style="overflow:visible;"/>
					</clipPath>
					<g id="Group_5071" class="st8">
						<g id="Objects_Plus">
							<g id="Plus">
								<path id="Combined_Shape-2" class="st2" d="M52.3-113.3c-0.6-0.6-0.6-1.6,0-2.2l0,0l7.5-7.5l-7.5-7.5
									c-0.6-0.6-0.6-1.6,0-2.2c0,0,0,0,0,0l0,0l3.2-3.2c0.6-0.6,1.6-0.6,2.2,0l0,0l7.5,7.5l7.5-7.5c0.6-0.6,1.6-0.6,2.2,0l0,0
									l3.2,3.2c0.6,0.6,0.6,1.6,0,2.2l-7.5,7.5l7.5,7.5c0.6,0.6,0.6,1.6,0,2.2c0,0,0,0,0,0l0,0l-3.2,3.2c-0.6,0.6-1.6,0.6-2.2,0
									c0,0,0,0,0,0l0,0l-7.4-7.5l-7.5,7.5c-0.6,0.6-1.6,0.6-2.2,0l0,0L52.3-113.3z"/>
							</g>
						</g>
					</g>
				</g>
			</g>
		</g>
	</g>
</g>
</svg>
