<?xml version="1.0" encoding="utf-8"?>
<!-- Generator: Adobe Illustrator 24.0.1, SVG Export Plug-In . SVG Version: 6.00 Build 0)  -->
<svg version="1.1" id="Layer_1" xmlns="http://www.w3.org/2000/svg" xmlns:xlink="http://www.w3.org/1999/xlink" x="0px" y="0px"
	 viewBox="0 0 117 95.3" style="enable-background:new 0 0 117 95.3;" xml:space="preserve">
<style type="text/css">
	.st0{clip-path:url(#SVGID_2_);}
	.st1{fill:#051C2C;}
	.st2{fill:#CE1A51;}
	.st3{fill:none;}
	.st4{fill:#EF88A8;}
	.st5{clip-path:url(#SVGID_4_);}
	.st6{fill:#E6E6E6;}
</style>
<g>
	<defs>
		<rect id="SVGID_1_" x="-84" y="-54" width="284" height="202"/>
	</defs>
	<clipPath id="SVGID_2_">
		<use xlink:href="#SVGID_1_"  style="overflow:visible;"/>
	</clipPath>
	<g id="Deleted_bin_closed_" class="st0">
		<g id="Group_5077" transform="translate(-830 -242)">
			<g id="Group_5076" transform="translate(701.641 397.214)">
				<g id="Background08-2">
					<path id="Background08-3" class="st1" d="M245.4-111.8c0,32.4-26.2,38.2-58.5,38.2s-58.5-5.8-58.5-38.2s26.2-43.4,58.5-43.4
						S245.4-144.2,245.4-111.8"/>
				</g>
				<rect id="Rectangle_2851" x="173.4" y="-108" class="st2" width="30" height="36"/>
				<g id="Group_5073">
					<path id="Path_19889" class="st3" d="M177.3-104.3L177.3-104.3c-0.9,0-1.6,0.7-1.6,1.6l0.5,25.5c0,0.9,0.7,1.5,1.6,1.5h0
						c0.9,0,1.5-0.7,1.5-1.6l-0.5-25.5C178.9-103.7,178.2-104.3,177.3-104.3z"/>
					<path id="Path_19890" class="st3" d="M188.4-104.3L188.4-104.3c-0.9,0-1.6,0.7-1.6,1.6v25.5c0,0,0,0.1,0,0.1
						c0,0.9,0.7,1.5,1.6,1.5c0,0,0,0,0,0c0.9,0,1.5-0.7,1.5-1.6v-25.6l0,0C190-103.6,189.3-104.3,188.4-104.3
						C188.4-104.3,188.4-104.3,188.4-104.3z"/>
					<rect id="Rectangle_2863" x="182.2" y="-123.3" class="st3" width="12.4" height="3.1"/>
					<path id="Path_19891" class="st3" d="M199.6-104.3L199.6-104.3c-0.9,0-1.6,0.7-1.6,1.5l-0.5,25.6v0c0,0.9,0.7,1.6,1.5,1.6h0
						c0.9,0,1.5-0.7,1.6-1.5l0.5-25.6l0,0C201.1-103.6,200.4-104.3,199.6-104.3z"/>
					<path id="Path_19892" class="st4" d="M213-116.5l2.9,0c0.9,0,1.6-0.7,1.6-1.5c0,0,0,0,0,0c0-0.9-0.7-1.6-1.5-1.6l-17.9-0.2
						l0-3.2c0-1.7-1.4-3.1-3.1-3.1l-12.4-0.1c-1.7,0-3.1,1.4-3.1,3.1l0,3.2l-17.9-0.2c-0.9,0-1.6,0.7-1.6,1.5c0,0.9,0.7,1.6,1.5,1.6
						c0,0,0,0,0,0l0,0l2.9,0L213-116.5L213-116.5z M195-119.8l-12.4-0.1l0-3.1l12.4,0.1L195-119.8z"/>
					<path id="Path_19893" class="st4" d="M164.1-117l2,51.5c0.1,3.1,2.7,5.6,5.8,5.6h33c3.1,0,5.7-2.5,5.8-5.6l2-51.5L164.1-117z
						 M177.9-75.6h-1.6l-0.5-27.1c0-0.9,0.7-1.6,1.5-1.6h0c0.9,0,1.6,0.7,1.6,1.5l0.5,25.6C179.4-76.4,178.7-75.7,177.9-75.6
						L177.9-75.6z M190-102.8v25.5c0,0.9-0.7,1.6-1.5,1.6c-0.9,0-1.6-0.7-1.6-1.5c0,0,0,0,0,0c0,0,0-0.1,0-0.1v-25.5
						c0-0.9,0.7-1.6,1.6-1.6h1.6L190-102.8z M201.1-102.7l-0.5,25.6c0,0.9-0.7,1.5-1.6,1.5h-1.6l0-1.6l0.5-25.6
						c0-0.9,0.7-1.6,1.6-1.5h1.6L201.1-102.7z"/>
				</g>
				<g id="Group_5075">
					<g>
						<defs>
							
								<rect id="SVGID_3_" x="195" y="-131.7" transform="matrix(0.7071 -0.7071 0.7071 0.7071 143.6954 115.2)" width="31.9" height="31.7"/>
						</defs>
						<clipPath id="SVGID_4_">
							<use xlink:href="#SVGID_3_"  style="overflow:visible;"/>
						</clipPath>
						<g id="Group_5074" class="st5">
							<g id="Objects_Plus">
								<g id="Plus">
									<path id="Combined_Shape-2" class="st2" d="M198-106.2c-0.6-0.6-0.6-1.6,0-2.2c0,0,0,0,0,0l0,0l7.5-7.5l-7.5-7.5
										c-0.6-0.6-0.6-1.6,0-2.2c0,0,0,0,0,0l0,0l3.2-3.2c0.6-0.6,1.6-0.6,2.2,0c0,0,0,0,0,0l0,0l7.5,7.5l7.5-7.5
										c0.6-0.6,1.6-0.6,2.2,0c0,0,0,0,0,0l0,0l3.2,3.2c0.6,0.6,0.6,1.6,0,2.2l-7.5,7.5l7.5,7.5c0.6,0.6,0.6,1.6,0,2.2
										c0,0,0,0,0,0l0,0l-3.2,3.2c-0.6,0.6-1.6,0.6-2.2,0l0,0l-7.5-7.5l-7.5,7.5c-0.6,0.6-1.6,0.6-2.2,0c0,0,0,0,0,0l0,0
										L198-106.2z"/>
								</g>
							</g>
						</g>
					</g>
				</g>
				<g id="Objects_Happy_Copy_3">
					<path id="Path_9" class="st6" d="M160-124.6l-2.6,1.6l-14.6-16.1l6.1-3.5L160-124.6z"/>
				</g>
				<g id="Objects_Happy_Copy_3-2">
					<path id="Path_9-2" class="st6" d="M169.3-126.2l-2.9-0.7l1.1-21.8l6.8,1.9L169.3-126.2z"/>
				</g>
				<g id="Objects_Happy_Copy_3-3">
					<path id="Path_9-3" class="st6" d="M135.7-107.2l-1.9-6.8l21.8-1.1l0.7,2.9L135.7-107.2z"/>
				</g>
			</g>
		</g>
	</g>
</g>
</svg>
