<?xml version="1.0" encoding="UTF-8" standalone="no"?>
<svg
   xmlns:dc="http://purl.org/dc/elements/1.1/"
   xmlns:cc="http://creativecommons.org/ns#"
   xmlns:rdf="http://www.w3.org/1999/02/22-rdf-syntax-ns#"
   xmlns:svg="http://www.w3.org/2000/svg"
   xmlns="http://www.w3.org/2000/svg"
   xmlns:sodipodi="http://sodipodi.sourceforge.net/DTD/sodipodi-0.dtd"
   xmlns:inkscape="http://www.inkscape.org/namespaces/inkscape"
   width="255"
   height="266"
   viewBox="0 0 255 266"
   fill="none"
   version="1.1"
   id="svg129"
   sodipodi:docname="no-catering.svg"
   inkscape:version="1.0.1 (c497b03c, 2020-09-10)">
  <metadata
     id="metadata133">
    <rdf:RDF>
      <cc:Work
         rdf:about="">
        <dc:format>image/svg+xml</dc:format>
        <dc:type
           rdf:resource="http://purl.org/dc/dcmitype/StillImage" />
        <dc:title></dc:title>
      </cc:Work>
    </rdf:RDF>
  </metadata>
  <sodipodi:namedview
     pagecolor="#ffffff"
     bordercolor="#666666"
     borderopacity="1"
     objecttolerance="10"
     gridtolerance="10"
     guidetolerance="10"
     inkscape:pageopacity="0"
     inkscape:pageshadow="2"
     inkscape:window-width="1845"
     inkscape:window-height="1012"
     id="namedview131"
     showgrid="false"
     inkscape:zoom="2.7607843"
     inkscape:cx="127.5"
     inkscape:cy="133"
     inkscape:window-x="0"
     inkscape:window-y="25"
     inkscape:window-maximized="0"
     inkscape:current-layer="svg129" />
  <mask
     id="mask0"
     mask-type="alpha"
     maskUnits="userSpaceOnUse"
     x="0"
     y="0"
     width="255"
     height="266">
    <path
       d="M254.989 0H3.25842C0.989726 101.002 -0.0942731 154.498 0.00641866 160.485C0.52438 191.287 15.0664 222.25 38.4838 241.832C76.4523 273.581 136.898 268.063 181.568 256.365C206.58 249.814 234.354 238.535 247.967 214.99C254.057 204.455 257.091 191.789 253.351 179.908C250.175 169.822 250.721 109.853 254.989 0Z"
       fill="white"
       id="path10" />
  </mask>
  <g
     mask="url(#mask0)"
     id="g116"
     transform="translate(-0.72443182,-51.434659)">
    <path
       fill-rule="evenodd"
       clip-rule="evenodd"
       d="M 149.273,160.732 C 121.294,163.987 110.72,140.864 99.6894,119.4 89.0634,98.7211 68.4997,83.9163 44.1462,89.8274 23.055,94.9463 8.75649,113.689 3.25844,133.868 c -10.46031,38.394 4.97952,82.673 35.22536,107.964 37.9685,31.749 98.4142,26.232 143.0842,14.533 25.012,-6.551 52.786,-17.829 66.399,-41.375 6.09,-10.534 9.124,-23.201 5.384,-35.082 -4.764,-15.129 -26.333,-44.929 -65.457,-30.676 -12.623,4.598 -25.15,9.933 -38.621,11.5 z"
       fill="#e6e6e6"
       id="path13" />
    <path
       d="M 280.419,205.51 H -23.3768 v 93.476 H 280.419 Z"
       fill="#7f7f7f"
       id="path15" />
    <path
       fill-rule="evenodd"
       clip-rule="evenodd"
       d="m 205.984,188.893 29.641,1.014 -11.819,38.403 -32.301,0.496 2.26,-6.114 z"
       fill="#d0d0d0"
       id="path17" />
    <path
       fill-rule="evenodd"
       clip-rule="evenodd"
       d="m 176.675,223.804 48.878,-1.173 -1.747,5.678 -47.668,0.732 z"
       fill="#b3b3b3"
       id="path19" />
    <path
       d="m 214.64,210.932 c -1.235,-0.308 -1.845,-2.128 -1.362,-4.065 0.483,-1.938 1.876,-3.258 3.111,-2.95 1.236,0.308 1.846,2.128 1.363,4.065 -0.483,1.937 -1.876,3.258 -3.112,2.95 z"
       fill="#ffffff"
       id="path21" />
    <path
       fill-rule="evenodd"
       clip-rule="evenodd"
       d="m 42.879,202.78 v -36.448 h 1.5161 v 36.448 h 0.7581 v 0.998 h 0.5054 v 1.997 h -0.5054 v 0.999 h -3.0323 v -0.999 h -0.5054 v -1.997 h 0.5054 v -0.998 z m 4.2957,10.576 c 1.8411,0.302 3.4951,1.343 4.5485,2.904 0.2791,0 0.5054,0.224 0.5054,0.499 v 1.998 c 0,0.275 -0.2263,0.499 -0.5054,0.499 H 35.5509 c -0.2791,0 -0.5054,-0.224 -0.5054,-0.499 v -1.998 c 0,-0.275 0.2263,-0.499 0.5054,-0.499 1.0534,-1.561 2.7074,-2.602 4.5485,-2.904 v -1.09 c 0,-0.827 0.6788,-1.498 1.5161,-1.498 h 4.0431 c 0.8373,0 1.5161,0.671 1.5161,1.498 z m -3.5376,-6.582 c 1.1164,0 2.0215,0.894 2.0215,1.997 0,1.103 -0.9051,1.997 -2.0215,1.997 -1.1165,0 -2.0216,-0.894 -2.0216,-1.997 0,-1.103 0.9051,-1.997 2.0216,-1.997 z"
       fill="#b3b3b3"
       id="path23" />
    <path
       fill-rule="evenodd"
       clip-rule="evenodd"
       d="M 35.5667,140.902 H 51.0201 L 65.975,166.333 H 20.6118 Z"
       fill="#7f7f7f"
       id="path25" />
    <path
       d="m 90.0313,190.831 c 8.3511,0 15.1207,-0.923 15.1207,-2.062 0,-1.139 -6.7696,-2.062 -15.1207,-2.062 -8.3512,0 -15.1211,0.923 -15.1211,2.062 0,1.139 6.7699,2.062 15.1211,2.062 z"
       fill="#7f7f7f"
       id="path27" />
    <path
       d="m 99.9978,174.134 c 0.1972,-0.929 -0.3952,-1.841 -1.3235,-2.038 -0.9282,-0.198 -1.8407,0.395 -2.038,1.323 l -4.287,20.169 c -0.1973,0.928 0.3952,1.841 1.3235,2.038 0.9282,0.197 1.8407,-0.395 2.038,-1.323 z"
       fill="#3e3e3e"
       id="path29" />
    <path
       fill-rule="evenodd"
       clip-rule="evenodd"
       d="m 105.152,188.768 v 8.247 h 4.124 c 2.657,0 4.812,2.155 4.812,4.812 v 13.746 c 0,2.657 -2.155,4.811 -4.812,4.811 h -4.124 v 3.882 c 0,2.638 -1.873,4.904 -4.464,5.4 -3.5524,0.68 -7.1046,1.02 -10.6567,1.02 -3.5522,0 -7.1043,-0.34 -10.6565,-1.02 -2.591,-0.496 -4.4646,-2.762 -4.4646,-5.4 v -35.498 c 5.0403,1.369 10.0807,2.053 15.1211,2.053 5.0403,0 10.0807,-0.684 15.1207,-2.053 z m 0,27.492 h 3.437 c 0.759,0 1.375,-0.615 1.375,-1.374 v -12.372 c 0,-0.759 -0.616,-1.375 -1.375,-1.375 h -3.437 z"
       fill="#d8d8d8"
       id="path31" />
    <path
       fill-rule="evenodd"
       clip-rule="evenodd"
       d="m 105.152,216.261 h 3.437 c 0.759,0 1.375,-0.616 1.375,-1.375 v -12.372 c 0,-0.759 -0.616,-1.374 -1.375,-1.374 h -3.437 v -4.124 h 4.124 c 2.657,0 4.812,2.154 4.812,4.811 v 13.746 c 0,2.657 -2.155,4.812 -4.812,4.812 h -4.124 z"
       fill="#000000"
       fill-opacity="0.2"
       id="path33" />
    <path
       fill-rule="evenodd"
       clip-rule="evenodd"
       d="m 74.9102,188.768 c 2.8666,0.695 5.0165,1.155 6.4498,1.378 0.5452,11.007 1.0802,31.689 8.6713,40.54 -3.5522,0 -7.1043,-0.34 -10.6565,-1.02 -2.591,-0.496 -4.4646,-2.762 -4.4646,-5.4 z"
       fill="#000000"
       fill-opacity="0.2"
       id="path35" />
    <path
       fill-rule="evenodd"
       clip-rule="evenodd"
       d="m 130.451,196.809 -20.716,45.274 -5.478,-1.1 20.716,-45.274 z"
       fill="#acacac"
       id="path37" />
    <mask
       id="mask1"
       mask-type="alpha"
       maskUnits="userSpaceOnUse"
       x="109"
       y="196"
       width="43"
       height="47">
      <path
         d="m 130.451,196.809 21.162,30.029 -41.878,15.244 z"
         fill="#ffffff"
         id="path39" />
    </mask>
    <g
       mask="url(#mask1)"
       id="g44">
      <path
         fill-rule="evenodd"
         clip-rule="evenodd"
         d="m 130.451,196.809 21.162,30.029 -41.878,15.244 z"
         fill="url(#paint0_linear)"
         id="path42"
         style="fill:url(#paint0_linear)" />
    </g>
    <path
       fill-rule="evenodd"
       clip-rule="evenodd"
       d="m 111.242,237.156 c 0.044,0.762 -0.667,3.505 -0.137,4.198 0.513,0.671 3.598,-0.075 4.445,0.2 0.746,0.241 0.899,-0.996 1.816,-1.295 0.667,-0.218 2.648,1.06 3.37,0.454 0.428,-0.359 0.558,-1.523 1.13,-2.282 0.404,-0.534 0.856,-1.192 1.316,-1.889 0.387,-0.589 -0.258,-1.862 0.158,-2.544 0.375,-0.616 0.783,-1.241 1.173,-1.919 0.364,-0.635 0.688,-1.309 1.059,-1.985 0.355,-0.646 -0.246,-1.8 0.111,-2.476 0.349,-0.658 0.172,-1.568 0.519,-2.245 0.339,-0.668 1.146,-1.087 1.479,-1.765 0.335,-0.676 0.904,-1.22 1.227,-1.9 0.325,-0.685 0.305,-1.508 0.614,-2.187 0.319,-0.696 1.488,-0.979 1.785,-1.656 0.31,-0.707 0.063,-1.621 0.34,-2.298 0.299,-0.722 0.765,-1.319 1.024,-1.993 0.286,-0.744 0.613,-1.395 0.842,-2.064 0.266,-0.781 2.241,-0.915 2.417,-1.568 0.239,-0.884 -1.943,-2.08 -1.902,-2.667 0.051,-0.726 0.108,-1.272 0.078,-1.947 -0.036,-0.747 -0.722,-1.187 -0.853,-1.844 -0.154,-0.768 1.405,-1.557 1.124,-2.155 -0.358,-0.757 -0.8,-1.945 -1.35,-2.343 -0.608,-0.44 -0.449,0.302 -1.279,0.42 -0.612,0.089 -1.183,-0.575 -1.909,-0.122 -0.454,0.283 -0.898,1.859 -1.507,2.575 -0.418,0.493 -2.563,-0.211 -3.036,0.453 -0.396,0.555 0.735,2.354 0.314,3.011 -0.377,0.587 -1.12,0.839 -1.514,1.495 -0.363,0.604 -0.174,1.337 -0.546,1.992 -0.352,0.62 -1.32,1.215 -1.676,1.87 -0.341,0.632 -0.862,1.347 -1.203,2.005 -0.329,0.643 0.786,1.459 0.459,2.119 -0.32,0.651 -2.262,1.171 -2.578,1.833 -0.311,0.66 0.989,1.969 0.688,2.635 -0.302,0.667 -1.545,0.75 -1.833,1.417 -0.291,0.676 0.561,1.634 0.286,2.305 -0.278,0.685 -2.535,0.976 -2.793,1.65 -0.265,0.695 0.873,1.949 0.634,2.626 -0.252,0.705 -0.308,1.48 -0.525,2.159 -0.228,0.722 -1.17,1.214 -1.358,1.894 -0.203,0.741 -0.738,0.717 -0.884,1.397 -0.165,0.77 0.231,1.531 0.148,2.206 -0.101,0.818 -1.709,1.578 -1.673,2.23 z"
       fill="#a4a5a4"
       id="path46" />
    <path
       fill-rule="evenodd"
       clip-rule="evenodd"
       d="m 111.242,237.156 -0.514,0.03 0.001,0.044 c 0.002,0.223 -0.078,0.764 -0.163,1.349 -0.085,0.592 -0.173,1.247 -0.174,1.828 0,0.228 0.014,0.447 0.054,0.655 0.041,0.208 0.105,0.413 0.249,0.606 0.214,0.267 0.486,0.358 0.744,0.418 0.264,0.057 0.545,0.072 0.846,0.073 0.899,-0.002 1.997,-0.155 2.67,-0.153 0.221,-0.002 0.394,0.021 0.436,0.038 0.11,0.036 0.227,0.057 0.343,0.057 0.309,0.002 0.568,-0.15 0.732,-0.3 0.251,-0.23 0.4,-0.478 0.567,-0.671 0.165,-0.196 0.315,-0.323 0.493,-0.38 l -0.023,-0.07 0.016,0.071 0.007,-0.001 -0.023,-0.07 0.016,0.071 0.031,-0.001 c 0.068,-0.003 0.23,0.025 0.422,0.081 0.291,0.081 0.658,0.217 1.038,0.335 0.383,0.118 0.775,0.225 1.179,0.227 0.286,0.001 0.609,-0.061 0.878,-0.285 v 0 c 0.202,-0.172 0.313,-0.373 0.411,-0.575 0.144,-0.305 0.249,-0.636 0.373,-0.955 0.122,-0.318 0.26,-0.617 0.427,-0.836 0.414,-0.549 0.871,-1.214 1.335,-1.915 l 0.001,-0.001 c 0.181,-0.282 0.212,-0.576 0.214,-0.838 -0.006,-0.503 -0.123,-0.994 -0.119,-1.346 0,-0.192 0.033,-0.318 0.071,-0.376 0.369,-0.607 0.78,-1.235 1.18,-1.93 0.377,-0.657 0.701,-1.334 1.064,-1.995 0.147,-0.27 0.18,-0.549 0.18,-0.802 -0.005,-0.518 -0.129,-1.007 -0.124,-1.346 -0.001,-0.164 0.026,-0.275 0.058,-0.334 0.236,-0.451 0.272,-0.907 0.318,-1.301 0.04,-0.396 0.089,-0.73 0.204,-0.95 l 0.002,-0.002 c 0.11,-0.225 0.349,-0.466 0.638,-0.738 0.284,-0.276 0.62,-0.583 0.844,-1.033 v 0.001 c 0.139,-0.283 0.345,-0.565 0.571,-0.872 0.224,-0.306 0.469,-0.637 0.658,-1.035 0.198,-0.419 0.278,-0.84 0.353,-1.217 0.074,-0.378 0.144,-0.715 0.266,-0.977 h -10e-4 c 0.034,-0.075 0.11,-0.172 0.236,-0.278 0.188,-0.162 0.474,-0.33 0.764,-0.531 0.286,-0.204 0.603,-0.445 0.788,-0.855 0.206,-0.477 0.211,-0.947 0.226,-1.351 0.008,-0.405 0.029,-0.747 0.119,-0.957 v 0.002 c 0.259,-0.642 0.725,-1.235 1.029,-2.006 0.273,-0.715 0.602,-1.368 0.847,-2.082 l 0.05,-0.067 c 0.065,-0.067 0.218,-0.165 0.417,-0.255 0.299,-0.139 0.686,-0.267 1.044,-0.426 0.178,-0.081 0.352,-0.169 0.516,-0.292 0.159,-0.123 0.328,-0.297 0.401,-0.561 0.024,-0.09 0.036,-0.184 0.036,-0.274 -0.007,-0.413 -0.202,-0.718 -0.409,-0.991 -0.318,-0.408 -0.738,-0.768 -1.065,-1.079 -0.163,-0.153 -0.303,-0.294 -0.382,-0.395 l -0.072,-0.104 -0.006,0.003 0.006,-0.002 v -0.001 l -0.006,0.003 0.006,-0.002 -0.203,0.057 h 0.21 l -0.007,-0.057 -0.203,0.057 h 0.21 -0.302 l 0.301,0.024 0.001,-0.024 h -0.302 l 0.301,0.024 v -0.004 c 0.041,-0.578 0.088,-1.059 0.088,-1.605 0,-0.13 -0.003,-0.263 -0.009,-0.401 v -0.001 c -0.027,-0.534 -0.281,-0.925 -0.478,-1.22 -0.207,-0.299 -0.355,-0.524 -0.385,-0.701 l -0.001,-0.008 c -0.002,-0.013 0.016,-0.095 0.098,-0.217 0.12,-0.185 0.351,-0.423 0.573,-0.674 0.112,-0.127 0.222,-0.26 0.316,-0.416 0.092,-0.154 0.18,-0.343 0.182,-0.586 0.001,-0.122 -0.027,-0.255 -0.083,-0.373 -0.171,-0.36 -0.373,-0.853 -0.609,-1.32 -0.244,-0.466 -0.494,-0.913 -0.905,-1.221 -0.09,-0.065 -0.177,-0.119 -0.277,-0.162 -0.098,-0.042 -0.213,-0.074 -0.339,-0.074 -0.224,-0.003 -0.416,0.113 -0.51,0.198 -0.147,0.133 -0.2,0.211 -0.264,0.26 -0.062,0.047 -0.112,0.082 -0.263,0.106 h -0.002 l -0.043,0.003 c -0.083,0.003 -0.235,-0.04 -0.444,-0.116 -0.209,-0.071 -0.475,-0.172 -0.812,-0.174 -0.256,-0.002 -0.546,0.071 -0.809,0.238 -0.256,0.17 -0.378,0.375 -0.515,0.6 -0.195,0.339 -0.372,0.747 -0.559,1.134 -0.184,0.385 -0.382,0.746 -0.553,0.944 l -10e-4,0.001 0.102,0.087 -0.06,-0.123 -0.042,0.036 0.102,0.087 -0.06,-0.123 c -0.003,0.009 -0.185,0.048 -0.422,0.044 -0.334,0 -0.777,-0.042 -1.21,-0.043 -0.255,10e-4 -0.508,0.014 -0.759,0.075 -0.245,0.061 -0.52,0.18 -0.713,0.447 h 10e-4 c -0.15,0.214 -0.181,0.439 -0.182,0.633 0.006,0.436 0.149,0.851 0.27,1.267 0.125,0.406 0.23,0.806 0.225,1.012 l -0.009,0.102 -0.005,0.018 0.002,0.001 -0.002,-0.001 v 0 l 0.002,0.001 -0.002,-0.001 c -0.12,0.191 -0.343,0.371 -0.632,0.592 -0.284,0.221 -0.632,0.488 -0.89,0.915 -0.249,0.421 -0.292,0.839 -0.338,1.176 -0.044,0.343 -0.088,0.608 -0.215,0.827 -0.108,0.201 -0.407,0.495 -0.739,0.8 -0.332,0.314 -0.698,0.642 -0.941,1.08 -0.316,0.588 -0.839,1.305 -1.207,2.013 l -0.001,0.002 c -0.083,0.16 -0.12,0.337 -0.119,0.497 0.012,0.453 0.214,0.763 0.352,1.036 0.151,0.267 0.24,0.496 0.229,0.556 l -0.007,0.037 -0.077,0.088 c -0.094,0.088 -0.273,0.207 -0.487,0.327 -0.323,0.183 -0.724,0.374 -1.089,0.585 -0.183,0.106 -0.357,0.217 -0.517,0.347 -0.157,0.13 -0.306,0.277 -0.411,0.493 l -0.001,0.001 c -0.072,0.153 -0.098,0.311 -0.098,0.456 0.002,0.263 0.075,0.488 0.159,0.703 0.128,0.32 0.298,0.624 0.426,0.893 0.132,0.265 0.204,0.503 0.197,0.574 l -0.002,0.022 0.017,0.002 -0.015,-0.007 -0.002,0.005 0.017,0.002 -0.015,-0.007 v 0 c -0.02,0.046 -0.074,0.113 -0.195,0.196 -0.178,0.125 -0.475,0.25 -0.784,0.413 -0.155,0.082 -0.314,0.177 -0.467,0.305 -0.15,0.127 -0.297,0.294 -0.391,0.511 -0.075,0.177 -0.104,0.358 -0.103,0.525 0.004,0.395 0.132,0.722 0.23,1.013 0.104,0.287 0.178,0.539 0.173,0.67 l -0.017,0.108 0.058,0.023 -0.054,-0.032 -0.004,0.009 0.058,0.023 -0.054,-0.032 -0.018,0.02 c -0.05,0.057 -0.228,0.17 -0.461,0.273 -0.353,0.16 -0.82,0.317 -1.244,0.5 -0.213,0.093 -0.417,0.192 -0.603,0.32 -0.182,0.127 -0.368,0.286 -0.476,0.554 -0.054,0.144 -0.074,0.288 -0.074,0.422 0.001,0.255 0.065,0.481 0.14,0.696 0.116,0.321 0.27,0.625 0.386,0.894 0.119,0.265 0.187,0.501 0.181,0.588 l -0.004,0.039 0.001,-0.001 c -0.278,0.795 -0.334,1.58 -0.53,2.175 l -0.001,0.002 c -0.055,0.197 -0.281,0.465 -0.574,0.76 -0.281,0.302 -0.634,0.628 -0.789,1.152 -0.076,0.252 -0.146,0.309 -0.325,0.487 -0.087,0.086 -0.203,0.194 -0.313,0.35 -0.11,0.154 -0.204,0.356 -0.253,0.589 -0.037,0.176 -0.052,0.349 -0.052,0.513 0.001,0.34 0.059,0.646 0.109,0.916 0.051,0.27 0.092,0.505 0.091,0.688 l -0.008,0.135 c -0.001,0.044 -0.055,0.172 -0.188,0.328 -0.195,0.237 -0.525,0.513 -0.826,0.8 -0.152,0.146 -0.298,0.295 -0.422,0.47 -0.121,0.174 -0.238,0.388 -0.241,0.672 l 0.002,0.053 v -0.001 l 0.514,-0.03 0.515,-0.031 -0.147,0.009 h 0.147 v -0.009 l -0.147,0.009 h 0.147 -0.061 l 0.06,0.017 0.001,-0.017 h -0.061 l 0.06,0.017 c -0.004,-0.008 0.062,-0.128 0.197,-0.266 0.198,-0.212 0.515,-0.472 0.808,-0.765 0.147,-0.148 0.289,-0.305 0.41,-0.487 0.121,-0.181 0.224,-0.392 0.255,-0.644 0.011,-0.089 0.016,-0.175 0.016,-0.26 -10e-4,-0.32 -0.06,-0.609 -0.108,-0.877 -0.051,-0.266 -0.092,-0.51 -0.092,-0.727 0,-0.104 0.009,-0.203 0.029,-0.297 0.024,-0.106 0.052,-0.157 0.089,-0.213 0.053,-0.081 0.168,-0.176 0.337,-0.351 0.166,-0.173 0.355,-0.441 0.451,-0.804 0.033,-0.155 0.245,-0.415 0.538,-0.71 0.283,-0.301 0.642,-0.641 0.814,-1.166 l -0.001,0.003 c 0.24,-0.763 0.296,-1.528 0.52,-2.145 h 10e-4 c 0.046,-0.131 0.062,-0.261 0.062,-0.383 -10e-4,-0.253 -0.065,-0.475 -0.141,-0.688 -0.115,-0.316 -0.268,-0.619 -0.385,-0.888 -0.118,-0.267 -0.186,-0.504 -0.181,-0.602 l 0.006,-0.053 -0.082,-0.031 0.076,0.044 0.006,-0.013 -0.082,-0.031 0.076,0.044 0.001,-0.001 c 0.012,-0.026 0.167,-0.145 0.396,-0.247 0.343,-0.163 0.826,-0.326 1.268,-0.514 0.222,-0.095 0.436,-0.197 0.631,-0.327 0.191,-0.131 0.384,-0.29 0.5,-0.563 0.068,-0.168 0.093,-0.339 0.093,-0.496 -0.004,-0.395 -0.132,-0.719 -0.23,-1.01 -0.104,-0.287 -0.177,-0.539 -0.173,-0.673 l 0.019,-0.117 c 0.018,-0.043 0.068,-0.107 0.186,-0.189 0.174,-0.123 0.469,-0.25 0.779,-0.411 0.154,-0.083 0.314,-0.176 0.468,-0.303 0.152,-0.126 0.299,-0.29 0.396,-0.505 l 10e-4,-0.001 c 0.067,-0.148 0.091,-0.302 0.091,-0.441 -0.002,-0.264 -0.075,-0.489 -0.158,-0.704 -0.129,-0.321 -0.299,-0.624 -0.427,-0.894 -0.132,-0.264 -0.204,-0.502 -0.197,-0.572 l 0.002,-0.021 -0.025,-0.005 0.022,0.011 0.003,-0.006 -0.025,-0.005 0.022,0.011 v 0.001 c -0.004,-0.008 0.106,-0.139 0.308,-0.265 0.3,-0.198 0.755,-0.416 1.178,-0.647 0.213,-0.116 0.419,-0.237 0.606,-0.376 0.184,-0.142 0.359,-0.296 0.483,-0.538 0.079,-0.16 0.114,-0.335 0.113,-0.494 -0.01,-0.453 -0.212,-0.768 -0.351,-1.043 -0.153,-0.268 -0.241,-0.497 -0.23,-0.549 l 0.005,-0.026 -10e-4,0.001 c 0.313,-0.608 0.831,-1.32 1.199,-1.996 0.112,-0.216 0.407,-0.514 0.737,-0.817 0.328,-0.31 0.689,-0.624 0.933,-1.044 0.246,-0.436 0.294,-0.865 0.34,-1.203 0.043,-0.345 0.087,-0.595 0.2,-0.779 0.136,-0.228 0.356,-0.415 0.637,-0.63 0.275,-0.216 0.611,-0.455 0.869,-0.851 0.142,-0.226 0.176,-0.463 0.177,-0.677 -0.005,-0.454 -0.147,-0.892 -0.27,-1.309 -0.126,-0.407 -0.231,-0.801 -0.225,-0.97 l 0.006,-0.062 -0.028,-0.007 0.025,0.011 0.003,-0.004 -0.028,-0.007 0.025,0.011 -0.12,-0.052 0.107,0.075 0.013,-0.023 -0.12,-0.052 0.107,0.075 v 0 l -0.024,-0.017 0.02,0.022 0.004,-0.005 -0.024,-0.017 0.02,0.022 c 0,-0.002 0.055,-0.038 0.171,-0.06 0.115,-0.023 0.28,-0.034 0.465,-0.034 0.365,-0.001 0.804,0.041 1.21,0.043 0.197,-0.001 0.387,-0.009 0.581,-0.051 0.188,-0.042 0.405,-0.114 0.587,-0.323 l -0.002,0.002 c 0.378,-0.45 0.639,-1.046 0.886,-1.564 0.121,-0.258 0.234,-0.495 0.333,-0.665 0.05,-0.085 0.095,-0.154 0.13,-0.197 l 0.038,-0.044 0.007,-0.005 -0.04,-0.05 0.034,0.054 0.006,-0.004 -0.04,-0.05 0.034,0.054 c 0.113,-0.068 0.178,-0.08 0.263,-0.082 0.109,-0.002 0.265,0.042 0.47,0.116 0.204,0.069 0.457,0.171 0.786,0.174 0.062,0 0.126,-0.004 0.191,-0.014 l -0.001,0.001 c 0.444,-0.056 0.76,-0.295 0.915,-0.462 0.079,-0.081 0.131,-0.138 0.137,-0.141 l -0.054,-0.062 0.046,0.068 0.008,-0.006 -0.054,-0.062 0.046,0.068 -0.152,-0.226 v 0.269 l 0.152,-0.043 -0.152,-0.226 v 0.269 -0.236 l -0.053,0.231 0.053,0.005 v -0.236 l -0.053,0.231 0.026,-0.112 -0.041,0.107 0.015,0.005 0.026,-0.112 -0.041,0.107 0.018,0.01 0.061,0.04 c 0.141,0.091 0.386,0.437 0.591,0.853 0.211,0.416 0.408,0.896 0.595,1.293 l 0.141,-0.067 h -0.156 l 0.015,0.066 0.141,-0.066 h -0.156 0.075 l -0.074,-0.018 -10e-4,0.018 h 0.075 l -0.074,-0.018 c 0.004,0.003 -0.04,0.098 -0.137,0.215 -0.141,0.179 -0.373,0.407 -0.586,0.669 -0.106,0.132 -0.21,0.274 -0.295,0.441 -0.084,0.165 -0.151,0.361 -0.152,0.586 0,0.069 0.007,0.14 0.021,0.21 0.102,0.48 0.362,0.803 0.541,1.075 0.188,0.277 0.294,0.48 0.303,0.692 v -0.001 c 0.006,0.122 0.008,0.24 0.008,0.355 0,0.483 -0.043,0.939 -0.085,1.533 v -0.004 l -0.002,0.056 c 0.003,0.22 0.081,0.375 0.159,0.505 0.141,0.225 0.324,0.407 0.524,0.603 0.299,0.287 0.639,0.585 0.888,0.858 0.124,0.136 0.223,0.264 0.281,0.365 0.059,0.102 0.07,0.168 0.069,0.18 l -0.001,0.006 0.104,0.029 -0.091,-0.06 -0.013,0.031 0.104,0.029 -0.091,-0.06 -0.011,0.012 c -0.036,0.04 -0.182,0.131 -0.378,0.214 -0.296,0.13 -0.694,0.261 -1.07,0.438 -0.188,0.09 -0.373,0.193 -0.544,0.331 -0.168,0.138 -0.331,0.322 -0.417,0.572 -0.213,0.623 -0.537,1.273 -0.835,2.046 -0.215,0.577 -0.68,1.177 -1.019,1.98 l -0.001,0.002 c -0.187,0.467 -0.181,0.921 -0.196,1.318 -0.009,0.399 -0.035,0.739 -0.139,0.968 -0.028,0.066 -0.098,0.156 -0.221,0.261 -0.183,0.156 -0.468,0.326 -0.761,0.528 -0.288,0.206 -0.607,0.451 -0.8,0.859 v 10e-4 c -0.188,0.416 -0.263,0.831 -0.338,1.206 -0.073,0.375 -0.146,0.709 -0.273,0.974 -0.133,0.282 -0.334,0.563 -0.558,0.867 -0.223,0.305 -0.469,0.632 -0.664,1.025 l -0.001,0.001 c -0.109,0.229 -0.344,0.47 -0.631,0.742 -0.283,0.273 -0.618,0.576 -0.846,1.018 l 10e-4,-0.002 c -0.231,0.457 -0.267,0.917 -0.312,1.309 -0.04,0.395 -0.09,0.723 -0.204,0.93 -0.144,0.276 -0.177,0.559 -0.178,0.816 0.006,0.524 0.13,1.016 0.124,1.346 0.001,0.159 -0.025,0.259 -0.052,0.306 -0.381,0.694 -0.704,1.366 -1.055,1.977 -0.381,0.662 -0.785,1.282 -1.167,1.908 -0.182,0.304 -0.219,0.624 -0.221,0.912 0.005,0.523 0.124,1.025 0.119,1.346 0.001,0.167 -0.032,0.256 -0.046,0.272 l 0.002,-0.001 c -0.457,0.69 -0.905,1.342 -1.298,1.862 -0.349,0.467 -0.532,0.993 -0.692,1.424 -0.078,0.215 -0.149,0.407 -0.216,0.546 -0.065,0.14 -0.129,0.22 -0.142,0.227 -0.013,0.012 -0.067,0.044 -0.216,0.044 -0.272,0.005 -0.753,-0.133 -1.225,-0.295 -0.238,-0.08 -0.478,-0.162 -0.712,-0.229 -0.235,-0.064 -0.459,-0.118 -0.702,-0.119 -0.108,0 -0.222,0.011 -0.344,0.05 -0.298,0.097 -0.534,0.264 -0.718,0.437 -0.274,0.26 -0.452,0.536 -0.593,0.701 -0.068,0.083 -0.125,0.136 -0.152,0.153 l -0.018,0.011 0.009,0.027 v -0.029 l -0.009,0.002 0.009,0.027 v -0.029 l -0.025,-0.005 c -0.243,-0.077 -0.482,-0.087 -0.754,-0.089 -0.795,0.002 -1.878,0.155 -2.67,0.153 -0.258,0 -0.482,-0.018 -0.626,-0.049 -0.072,-0.016 -0.123,-0.035 -0.146,-0.047 l -0.015,-0.008 -0.059,0.074 0.075,-0.057 -0.016,-0.017 -0.059,0.074 0.075,-0.057 c -0.002,0.001 -0.035,-0.059 -0.056,-0.174 -0.023,-0.114 -0.035,-0.275 -0.035,-0.46 -0.001,-0.475 0.079,-1.102 0.163,-1.682 0.083,-0.587 0.171,-1.107 0.174,-1.495 l -0.003,-0.103 v -0.002 z"
       fill="#686767"
       id="path48" />
    <path
       fill-rule="evenodd"
       clip-rule="evenodd"
       d="m 132.049,209.256 0.073,-0.51 -3.428,-0.493 -0.073,0.51 0.512,0.057 c 0,0 0.004,-0.034 0.013,-0.106 0.07,-0.541 0.449,-3.093 1.582,-5.984 1.132,-2.895 3.017,-6.108 6.04,-8.034 l -0.277,-0.434 -0.405,0.319 2.583,3.273 0.405,-0.32 -0.313,-0.41 c -0.044,0.039 -5.593,4.25 -7.217,12.027 l 0.505,0.105 0.073,-0.51 -0.073,0.51 0.504,0.105 c 0.767,-3.69 2.48,-6.55 4.004,-8.488 0.761,-0.969 1.475,-1.706 1.994,-2.198 0.261,-0.246 0.473,-0.431 0.618,-0.553 0.072,-0.061 0.127,-0.107 0.165,-0.136 l 0.041,-0.032 0.011,-0.009 c 0.109,-0.084 0.181,-0.209 0.199,-0.345 0.017,-0.137 -0.022,-0.277 -0.107,-0.385 l -2.583,-3.273 c -0.164,-0.207 -0.459,-0.257 -0.682,-0.115 -3.518,2.252 -5.523,5.981 -6.67,9.123 -1.146,3.147 -1.431,5.731 -1.435,5.757 -0.03,0.277 0.164,0.527 0.439,0.567 l 3.428,0.492 c 0.27,0.039 0.523,-0.139 0.578,-0.405 z"
       fill="#777777"
       id="path50" />
    <path
       fill-rule="evenodd"
       clip-rule="evenodd"
       d="m 136.679,201.87 c 1.905,1.313 2.782,3.345 1.959,4.537 -0.822,1.192 -3.033,1.092 -4.937,-0.222 -1.904,-1.313 -2.781,-3.344 -1.959,-4.536 0.823,-1.192 3.033,-1.092 4.937,0.221 z m 0.935,-1.355 c -3.099,-2.139 -6.697,-2.301 -8.037,-0.36 -1.338,1.939 0.09,5.245 3.189,7.386 3.101,2.137 6.699,2.301 8.036,0.358 1.341,-1.937 -0.088,-5.245 -3.188,-7.384 z"
       fill="#aeaeae"
       id="path52" />
    <path
       fill-rule="evenodd"
       clip-rule="evenodd"
       d="m 136.679,201.868 -0.293,0.424 c 0.657,0.453 1.176,0.996 1.525,1.541 0.35,0.544 0.522,1.087 0.52,1.523 -0.001,0.3 -0.073,0.547 -0.217,0.756 -0.133,0.192 -0.316,0.338 -0.562,0.445 -0.246,0.105 -0.554,0.165 -0.906,0.165 -0.802,0.002 -1.817,-0.316 -2.752,-0.963 -0.657,-0.452 -1.177,-0.996 -1.525,-1.54 -0.35,-0.544 -0.522,-1.087 -0.52,-1.523 10e-4,-0.3 0.074,-0.547 0.217,-0.757 0.134,-0.191 0.316,-0.337 0.563,-0.444 0.246,-0.105 0.554,-0.165 0.906,-0.165 0.801,-0.003 1.816,0.315 2.751,0.962 l 0.586,-0.848 c -1.091,-0.75 -2.275,-1.143 -3.337,-1.145 -0.467,0 -0.912,0.077 -1.313,0.249 -0.398,0.17 -0.752,0.44 -1.005,0.806 -0.275,0.398 -0.4,0.868 -0.399,1.342 0.001,0.695 0.254,1.407 0.683,2.079 0.43,0.672 1.044,1.306 1.808,1.832 1.09,0.75 2.275,1.143 3.337,1.146 0.467,0 0.912,-0.077 1.312,-0.249 0.399,-0.17 0.753,-0.44 1.004,-0.806 0.276,-0.398 0.402,-0.868 0.4,-1.342 -10e-4,-0.696 -0.253,-1.407 -0.683,-2.079 -0.43,-0.672 -1.044,-1.307 -1.807,-1.833 z m 0.935,-1.355 0.293,-0.424 c -1.726,-1.189 -3.601,-1.806 -5.247,-1.808 -0.725,0 -1.407,0.121 -2.01,0.38 -0.602,0.257 -1.124,0.658 -1.497,1.199 -0.407,0.588 -0.595,1.283 -0.594,1.999 0.002,1.051 0.388,2.156 1.061,3.21 0.675,1.054 1.645,2.059 2.853,2.894 1.727,1.188 3.603,1.805 5.248,1.807 0.725,0 1.407,-0.121 2.01,-0.38 0.601,-0.257 1.124,-0.658 1.496,-1.2 l -0.001,0.001 c 0.409,-0.588 0.597,-1.283 0.596,-2.001 -0.002,-1.05 -0.388,-2.155 -1.062,-3.21 -0.675,-1.053 -1.645,-2.057 -2.853,-2.891 l -0.293,0.424 -0.292,0.425 c 1.101,0.759 1.977,1.673 2.57,2.599 0.595,0.926 0.901,1.863 0.899,2.653 -0.001,0.543 -0.136,1.015 -0.413,1.415 v 0 c -0.254,0.367 -0.605,0.644 -1.054,0.838 -0.448,0.193 -0.993,0.296 -1.603,0.296 -1.385,0.002 -3.091,-0.538 -4.662,-1.624 -1.102,-0.76 -1.977,-1.675 -2.571,-2.602 -0.594,-0.926 -0.899,-1.863 -0.898,-2.654 0.002,-0.543 0.136,-1.013 0.411,-1.413 0.254,-0.367 0.606,-0.644 1.056,-0.838 0.448,-0.193 0.993,-0.296 1.603,-0.296 1.385,-0.002 3.09,0.538 4.661,1.626 z"
       fill="#535353"
       id="path54" />
    <path
       fill-rule="evenodd"
       clip-rule="evenodd"
       d="m 125.567,221.968 c 1.905,1.313 2.782,3.345 1.959,4.537 -0.822,1.192 -3.033,1.091 -4.937,-0.222 -1.904,-1.313 -2.781,-3.344 -1.959,-4.536 0.823,-1.192 3.033,-1.093 4.937,0.221 z m 0.936,-1.355 c -3.1,-2.139 -6.698,-2.301 -8.038,-0.361 -1.338,1.939 0.09,5.246 3.189,7.386 3.101,2.139 6.699,2.301 8.036,0.36 1.341,-1.939 -0.088,-5.247 -3.187,-7.385 z"
       fill="#d9d7d8"
       id="path56" />
    <path
       fill-rule="evenodd"
       clip-rule="evenodd"
       d="m 125.567,221.966 -0.293,0.425 c 0.657,0.451 1.176,0.995 1.525,1.539 0.35,0.545 0.522,1.088 0.52,1.524 0,0.3 -0.073,0.547 -0.217,0.756 -0.133,0.192 -0.316,0.338 -0.562,0.444 -0.246,0.106 -0.554,0.166 -0.906,0.166 -0.802,0.002 -1.817,-0.316 -2.752,-0.964 -0.657,-0.451 -1.177,-0.995 -1.525,-1.539 -0.349,-0.545 -0.522,-1.087 -0.52,-1.523 10e-4,-0.301 0.074,-0.548 0.217,-0.756 0.134,-0.192 0.316,-0.339 0.563,-0.445 0.246,-0.105 0.554,-0.166 0.906,-0.165 0.801,-0.003 1.816,0.315 2.751,0.963 l 0.293,-0.425 0.293,-0.424 c -1.091,-0.75 -2.275,-1.143 -3.337,-1.145 -0.467,0 -0.912,0.078 -1.313,0.249 -0.398,0.17 -0.752,0.44 -1.005,0.806 -0.274,0.398 -0.4,0.868 -0.399,1.342 0.001,0.695 0.254,1.407 0.683,2.079 0.431,0.672 1.044,1.306 1.808,1.832 1.09,0.75 2.275,1.144 3.337,1.146 0.467,0 0.912,-0.078 1.312,-0.249 0.399,-0.17 0.753,-0.44 1.004,-0.807 0.276,-0.397 0.402,-0.867 0.4,-1.341 -0.001,-0.695 -0.253,-1.407 -0.683,-2.08 -0.43,-0.671 -1.044,-1.306 -1.807,-1.832 z m 0.936,-1.355 0.292,-0.424 c -1.726,-1.19 -3.601,-1.805 -5.247,-1.808 -0.725,0.001 -1.407,0.121 -2.01,0.379 -0.602,0.257 -1.124,0.659 -1.497,1.2 -0.407,0.588 -0.594,1.282 -0.594,1.998 0.002,1.051 0.388,2.157 1.061,3.211 0.675,1.054 1.645,2.059 2.854,2.894 1.726,1.189 3.602,1.804 5.247,1.806 0.725,0 1.407,-0.12 2.01,-0.378 0.601,-0.258 1.124,-0.659 1.496,-1.201 v 10e-4 c 0.408,-0.589 0.596,-1.284 0.595,-2 -0.002,-1.051 -0.388,-2.157 -1.061,-3.21 -0.676,-1.054 -1.646,-2.059 -2.854,-2.892 l -0.292,0.424 -0.293,0.424 c 1.101,0.76 1.977,1.673 2.57,2.6 0.595,0.926 0.901,1.862 0.899,2.654 -0.001,0.543 -0.136,1.013 -0.413,1.413 v 0.001 c -0.254,0.368 -0.605,0.645 -1.054,0.838 -0.448,0.193 -0.993,0.296 -1.603,0.296 -1.385,0.002 -3.091,-0.539 -4.662,-1.625 -1.102,-0.76 -1.977,-1.674 -2.57,-2.601 -0.595,-0.927 -0.9,-1.863 -0.899,-2.655 0.002,-0.542 0.136,-1.013 0.411,-1.413 0.255,-0.367 0.606,-0.644 1.056,-0.838 0.448,-0.192 0.993,-0.295 1.603,-0.295 1.385,-0.002 3.09,0.539 4.661,1.625 z"
       fill="#585858"
       id="path58" />
    <path
       fill-rule="evenodd"
       clip-rule="evenodd"
       d="m 114.807,235.58 c 2.312,0.005 4.186,1.185 4.181,2.632 -0.003,1.448 -1.882,2.617 -4.196,2.611 -2.312,-0.004 -4.184,-1.183 -4.182,-2.631 0.004,-1.449 1.884,-2.617 4.197,-2.612 z m 0.004,-1.646 c -3.767,-0.009 -6.825,1.893 -6.831,4.251 -0.007,2.357 3.042,4.274 6.809,4.285 3.766,0.008 6.825,-1.893 6.829,-4.252 0.01,-2.356 -3.041,-4.275 -6.807,-4.284 z"
       fill="#d7d6d7"
       id="path60" />
    <path
       fill-rule="evenodd"
       clip-rule="evenodd"
       d="m 114.807,235.58 -0.002,0.516 c 1.068,0 2.028,0.28 2.684,0.694 0.329,0.206 0.581,0.444 0.743,0.685 0.163,0.244 0.24,0.483 0.241,0.732 v 0.011 l 0.515,-0.006 -0.515,-10e-4 c -0.002,0.248 -0.079,0.488 -0.242,0.729 -0.242,0.361 -0.69,0.712 -1.288,0.963 -0.596,0.252 -1.336,0.405 -2.135,0.405 h -0.018 0.003 c -1.068,-0.001 -2.027,-0.28 -2.684,-0.695 -0.329,-0.206 -0.58,-0.445 -0.743,-0.686 -0.163,-0.243 -0.24,-0.483 -0.241,-0.733 h -0.157 l 0.157,0.001 v -0.001 h -0.157 l 0.157,0.001 -0.488,-0.002 0.488,0.022 v -0.02 l -0.488,-0.002 0.488,0.022 v -0.022 c 0.002,-0.248 0.079,-0.488 0.242,-0.729 0.243,-0.361 0.692,-0.713 1.289,-0.963 0.596,-0.253 1.335,-0.406 2.135,-0.405 h 0.014 l 0.002,-0.516 0.008,-0.515 h -0.024 c -1.24,0.001 -2.37,0.309 -3.227,0.842 -0.428,0.267 -0.789,0.593 -1.05,0.978 -0.261,0.383 -0.419,0.832 -0.42,1.306 l 0.516,0.001 -0.515,-0.023 -0.001,0.025 c 0,0.474 0.157,0.924 0.417,1.309 0.392,0.579 1.004,1.027 1.741,1.342 0.737,0.314 1.607,0.492 2.539,0.494 h 0.017 c 1.24,-0.002 2.37,-0.31 3.227,-0.842 0.427,-0.268 0.788,-0.593 1.05,-0.978 0.261,-0.383 0.419,-0.832 0.419,-1.306 v -0.006 h -0.037 0.037 -0.037 0.037 c 0,-0.474 -0.157,-0.924 -0.417,-1.308 -0.392,-0.578 -1.004,-1.027 -1.741,-1.341 -0.737,-0.313 -1.607,-0.491 -2.539,-0.493 v 0.515 l 0.008,-0.515 z m 0.004,-1.647 0.002,-0.515 h -0.031 c -1.963,0.001 -3.748,0.493 -5.079,1.322 -0.664,0.416 -1.218,0.918 -1.612,1.499 -0.393,0.579 -0.625,1.244 -0.626,1.944 v 0.009 c -0.001,0.701 0.229,1.367 0.622,1.948 0.592,0.874 1.536,1.574 2.692,2.066 1.157,0.491 2.532,0.775 4.008,0.779 h 0.026 c 1.964,-0.002 3.75,-0.492 5.082,-1.321 0.665,-0.416 1.218,-0.918 1.613,-1.5 0.394,-0.579 0.625,-1.244 0.625,-1.945 v -0.012 c 0.001,-0.7 -0.229,-1.366 -0.623,-1.947 -0.591,-0.873 -1.536,-1.573 -2.692,-2.065 -1.156,-0.491 -2.531,-0.773 -4.007,-0.777 h 0.002 l -0.002,0.515 -0.002,0.516 c 1.793,0.003 3.409,0.467 4.541,1.179 0.567,0.356 1.011,0.771 1.306,1.209 0.295,0.44 0.446,0.895 0.446,1.37 v 0.01 c -0.001,0.476 -0.152,0.93 -0.448,1.369 -0.442,0.655 -1.223,1.256 -2.24,1.684 -1.015,0.428 -2.258,0.685 -3.601,0.684 h -0.024 0.002 c -1.795,-0.004 -3.411,-0.468 -4.543,-1.181 -0.567,-0.356 -1.011,-0.771 -1.306,-1.21 -0.295,-0.44 -0.446,-0.895 -0.446,-1.371 v -0.005 c 0.002,-0.477 0.153,-0.932 0.448,-1.37 0.442,-0.655 1.223,-1.256 2.239,-1.683 1.014,-0.429 2.257,-0.685 3.599,-0.685 h 0.027 z"
       fill="#626262"
       id="path62" />
    <path
       fill-rule="evenodd"
       clip-rule="evenodd"
       d="m 128.796,211.318 c 1.09,2.04 0.937,4.249 -0.341,4.93 -1.277,0.682 -3.196,-0.422 -4.284,-2.462 -1.09,-2.04 -0.937,-4.247 0.34,-4.93 1.278,-0.681 3.196,0.421 4.285,2.462 z m 1.453,-0.775 c -1.772,-3.323 -4.895,-5.117 -6.976,-4.008 -2.078,1.109 -2.327,4.703 -0.555,8.027 1.774,3.322 4.897,5.117 6.976,4.005 2.08,-1.106 2.329,-4.701 0.555,-8.024 z"
       fill="#d2cfd1"
       id="path64" />
    <path
       fill-rule="evenodd"
       clip-rule="evenodd"
       d="m 128.796,211.319 -0.454,0.242 c 0.452,0.845 0.667,1.718 0.666,2.448 0,0.451 -0.082,0.844 -0.222,1.145 -0.142,0.302 -0.331,0.509 -0.573,0.639 -0.178,0.094 -0.371,0.141 -0.592,0.142 -0.437,0.002 -0.988,-0.202 -1.529,-0.616 -0.54,-0.411 -1.064,-1.022 -1.466,-1.776 -0.453,-0.844 -0.668,-1.717 -0.667,-2.448 -0.001,-0.449 0.081,-0.843 0.221,-1.144 0.142,-0.302 0.332,-0.51 0.573,-0.639 0.178,-0.095 0.371,-0.141 0.592,-0.141 0.438,-0.003 0.989,0.2 1.53,0.614 0.54,0.411 1.065,1.021 1.467,1.776 l 0.454,-0.242 0.455,-0.243 c -0.468,-0.877 -1.079,-1.598 -1.752,-2.112 -0.673,-0.51 -1.412,-0.822 -2.154,-0.824 -0.371,-10e-4 -0.741,0.083 -1.077,0.262 -0.463,0.246 -0.807,0.648 -1.023,1.115 -0.217,0.469 -0.316,1.007 -0.317,1.578 0.001,0.928 0.264,1.95 0.789,2.934 0.467,0.877 1.078,1.598 1.751,2.11 0.672,0.511 1.411,0.824 2.153,0.827 0.371,0 0.742,-0.084 1.078,-0.264 0.462,-0.245 0.807,-0.646 1.022,-1.115 0.218,-0.468 0.317,-1.006 0.318,-1.578 -10e-4,-0.928 -0.263,-1.95 -0.788,-2.933 z m 1.453,-0.776 0.455,-0.242 c -0.742,-1.39 -1.709,-2.529 -2.763,-3.332 -1.053,-0.801 -2.197,-1.275 -3.309,-1.278 -0.557,0 -1.105,0.124 -1.602,0.389 -0.684,0.365 -1.196,0.957 -1.523,1.666 -0.33,0.711 -0.486,1.541 -0.486,2.434 0,1.448 0.413,3.066 1.242,4.625 0.743,1.389 1.71,2.527 2.763,3.33 1.053,0.8 2.197,1.275 3.309,1.277 0.557,0 1.105,-0.124 1.602,-0.39 l -0.001,0.001 c 0.685,-0.364 1.197,-0.956 1.525,-1.665 0.33,-0.711 0.487,-1.541 0.487,-2.433 -0.001,-1.448 -0.413,-3.066 -1.244,-4.624 l -0.455,0.242 -0.455,0.243 c 0.758,1.419 1.124,2.888 1.123,4.139 0,0.771 -0.138,1.456 -0.391,1.999 -0.253,0.543 -0.611,0.941 -1.074,1.189 h -0.001 c -0.339,0.18 -0.709,0.268 -1.116,0.268 -0.807,0.002 -1.764,-0.362 -2.685,-1.066 -0.921,-0.701 -1.802,-1.73 -2.477,-2.996 -0.758,-1.42 -1.122,-2.888 -1.121,-4.139 -0.001,-0.771 0.138,-1.457 0.39,-2 0.254,-0.543 0.611,-0.941 1.074,-1.19 0.338,-0.18 0.709,-0.267 1.116,-0.268 0.807,-0.002 1.763,0.364 2.684,1.067 0.922,0.701 1.803,1.73 2.478,2.997 z"
       fill="#7f7f7f"
       id="path66" />
    <mask
       id="mask2"
       mask-type="alpha"
       maskUnits="userSpaceOnUse"
       x="117"
       y="215"
       width="17"
       height="8">
      <path
         d="m 131.979,222.381 1.868,-2.915 c 0,0 -8.455,-5.812 -16.119,-3.521 l 0.787,4.093 c 0,0 6.7,-1.416 13.464,2.343 z"
         fill="#ffffff"
         id="path68" />
    </mask>
    <g
       mask="url(#mask2)"
       id="g73">
      <path
         fill-rule="evenodd"
         clip-rule="evenodd"
         d="m 131.979,222.381 1.868,-2.915 c 0,0 -8.455,-5.812 -16.119,-3.521 l 0.787,4.093 c 0,0 6.7,-1.416 13.464,2.343 z"
         fill="#d8d8d8"
         id="path71" />
    </g>
    <path
       fill-rule="evenodd"
       clip-rule="evenodd"
       d="m 131.979,222.382 0.435,0.277 1.867,-2.915 c 0.15,-0.235 0.087,-0.545 -0.142,-0.703 -0.019,-0.012 -1.516,-1.042 -3.833,-2.074 -2.318,-1.031 -5.455,-2.07 -8.769,-2.072 -1.306,0 -2.641,0.162 -3.957,0.556 -0.254,0.076 -0.408,0.332 -0.359,0.591 l 0.788,4.093 c 0.027,0.136 0.107,0.257 0.221,0.332 0.115,0.077 0.257,0.104 0.392,0.075 l 0.047,-0.009 c 0.238,-0.045 1.367,-0.241 3.03,-0.241 2.525,0 6.273,0.452 10.03,2.54 0.238,0.132 0.538,0.057 0.685,-0.173 l -0.435,-0.277 0.251,-0.451 c -3.96,-2.2 -7.886,-2.669 -10.531,-2.67 -1.993,0.001 -3.263,0.267 -3.29,0.273 l 0.106,0.504 0.507,-0.097 -0.788,-4.093 -0.506,0.097 0.147,0.494 c 1.208,-0.361 2.441,-0.513 3.662,-0.513 3.096,-0.002 6.114,0.986 8.349,1.983 1.117,0.498 2.04,0.996 2.68,1.369 0.32,0.186 0.569,0.34 0.738,0.448 0.084,0.054 0.148,0.095 0.19,0.123 l 0.061,0.042 0.292,-0.425 -0.435,-0.278 -1.866,2.915 0.433,0.279 0.251,-0.451 z"
       fill="#4e4e4e"
       id="path75" />
    <mask
       id="mask3"
       mask-type="alpha"
       maskUnits="userSpaceOnUse"
       x="110"
       y="227"
       width="15"
       height="13">
      <path
         d="m 121.999,239.614 2.964,-1.788 c 0,0 -5.01,-8.954 -12.896,-10.291 l -1.105,4.02 c 0,0 6.634,1.695 11.037,8.059 z"
         fill="#ffffff"
         id="path77" />
    </mask>
    <g
       mask="url(#mask3)"
       id="g82">
      <path
         fill-rule="evenodd"
         clip-rule="evenodd"
         d="m 121.999,239.614 2.964,-1.788 c 0,0 -5.01,-8.954 -12.896,-10.291 l -1.105,4.02 c 0,0 6.634,1.695 11.037,8.059 z"
         fill="#d8d8d8"
         id="path80" />
    </g>
    <path
       fill-rule="evenodd"
       clip-rule="evenodd"
       d="m 121.999,239.614 0.266,0.442 2.965,-1.789 c 0.238,-0.144 0.319,-0.45 0.183,-0.693 -0.013,-0.023 -1.282,-2.291 -3.563,-4.743 -2.281,-2.448 -5.58,-5.101 -9.697,-5.804 -0.261,-0.044 -0.514,0.117 -0.584,0.372 l -1.104,4.019 c -0.037,0.133 -0.018,0.276 0.051,0.395 0.069,0.119 0.184,0.207 0.318,0.241 l 0.014,0.003 c 0.336,0.087 6.581,1.846 10.727,7.851 0.154,0.223 0.457,0.289 0.69,0.148 l -0.266,-0.442 0.424,-0.293 c -4.527,-6.53 -11.278,-8.247 -11.333,-8.266 l -0.128,0.5 0.497,0.136 1.105,-4.019 -0.497,-0.137 -0.087,0.508 c 3.77,0.635 6.92,3.127 9.115,5.49 1.097,1.179 1.956,2.321 2.537,3.165 0.292,0.422 0.513,0.77 0.662,1.01 0.074,0.121 0.13,0.215 0.166,0.277 l 0.041,0.071 0.013,0.022 0.449,-0.252 -0.266,-0.442 -2.965,1.789 0.267,0.441 0.424,-0.293 z"
       fill="#636363"
       id="path84" />
    <path
       fill-rule="evenodd"
       clip-rule="evenodd"
       d="m 119.324,226.139 -2.961,1.793 c 0,0 5.023,8.945 12.914,10.268 l 1.097,-4.02 c 0,0 -6.638,-1.684 -11.05,-8.041 z"
       fill="#cfd0cd"
       id="path86" />
    <path
       fill-rule="evenodd"
       clip-rule="evenodd"
       d="m 119.324,226.139 -0.267,-0.441 -2.962,1.793 c -0.238,0.144 -0.319,0.451 -0.182,0.693 0.013,0.023 1.286,2.29 3.571,4.738 2.284,2.443 5.588,5.092 9.707,5.787 0.261,0.044 0.513,-0.117 0.583,-0.372 l 1.097,-4.022 c 0.037,-0.133 0.017,-0.276 -0.052,-0.395 -0.069,-0.119 -0.185,-0.206 -0.318,-0.24 l -0.014,-0.003 c -0.337,-0.087 -6.585,-1.834 -10.74,-7.832 -0.155,-0.224 -0.458,-0.288 -0.69,-0.147 l 0.267,0.441 -0.424,0.293 c 4.537,6.523 11.292,8.229 11.347,8.247 l 0.127,-0.499 -0.497,-0.136 -1.098,4.021 0.498,0.136 0.085,-0.508 c -3.772,-0.629 -6.925,-3.115 -9.124,-5.475 -1.1,-1.177 -1.961,-2.318 -2.543,-3.161 -0.292,-0.421 -0.514,-0.769 -0.663,-1.009 -0.074,-0.12 -0.13,-0.214 -0.167,-0.277 l -0.041,-0.07 -0.013,-0.021 -0.448,0.252 0.266,0.441 2.962,-1.794 -0.267,-0.44 -0.424,0.293 z"
       fill="#595959"
       id="path88" />
    <mask
       id="mask4"
       mask-type="alpha"
       maskUnits="userSpaceOnUse"
       x="124"
       y="204"
       width="11"
       height="16">
      <path
         d="m 134.671,216.862 -2.18,2.689 c 0,0 -8.176,-6.197 -8.413,-14.194 l 4.135,-0.539 c 0,0 0.763,6.806 6.458,12.044 z"
         fill="#ffffff"
         id="path90" />
    </mask>
    <g
       mask="url(#mask4)"
       id="g95">
      <path
         fill-rule="evenodd"
         clip-rule="evenodd"
         d="m 134.671,216.862 -2.18,2.689 c 0,0 -8.176,-6.197 -8.413,-14.194 l 4.135,-0.539 c 0,0 0.763,6.806 6.458,12.044 z"
         fill="#d8d8d8"
         id="path93" />
    </g>
    <path
       fill-rule="evenodd"
       clip-rule="evenodd"
       d="m 134.672,216.859 -0.401,-0.325 -2.18,2.69 0.4,0.325 0.311,-0.411 -0.019,-0.015 c -0.22,-0.169 -2.231,-1.755 -4.2,-4.235 -1.973,-2.481 -3.884,-5.845 -3.989,-9.548 l -0.515,0.015 0.066,0.511 4.134,-0.538 -0.066,-0.512 -0.513,0.058 c 0.011,0.058 0.78,6.981 6.623,12.365 l 0.349,-0.38 -0.401,-0.325 0.401,0.325 0.349,-0.379 c -2.774,-2.551 -4.351,-5.489 -5.234,-7.791 -0.44,-1.15 -0.707,-2.141 -0.863,-2.84 -0.078,-0.35 -0.128,-0.626 -0.159,-0.813 -0.015,-0.093 -0.025,-0.165 -0.032,-0.212 l -0.006,-0.052 -0.002,-0.013 c -0.015,-0.137 -0.086,-0.264 -0.195,-0.348 -0.108,-0.086 -0.248,-0.123 -0.384,-0.106 l -4.134,0.539 c -0.262,0.034 -0.457,0.262 -0.449,0.526 0.129,4.175 2.301,7.809 4.411,10.406 2.113,2.597 4.185,4.167 4.205,4.183 0.222,0.169 0.537,0.131 0.712,-0.086 l 2.181,-2.689 c 0.171,-0.212 0.149,-0.52 -0.051,-0.704 z"
       fill="#575757"
       id="path97" />
    <path
       fill-rule="evenodd"
       clip-rule="evenodd"
       d="m 121.88,237.76 c 0.644,-2.306 -3.475,-2.275 -4.356,-3.786 -0.882,-1.514 -2.486,-3.677 -3.447,-2.001 -0.959,1.679 0.498,3.28 0.498,3.28 0,0 -3.013,-1.425 -3.384,0.576 -0.37,2.001 2.716,2.159 2.716,2.159 0,0 -2.206,1.223 -1.389,2.54 0.816,1.319 3.939,0.806 5.514,-0.466 1.576,-1.27 3.255,-0.183 3.848,-2.302 z"
       fill="#a2a3a1"
       id="path99" />
    <path
       fill-rule="evenodd"
       clip-rule="evenodd"
       d="m 121.88,237.759 0.497,0.138 c 0.057,-0.204 0.087,-0.405 0.087,-0.6 0.001,-0.315 -0.08,-0.613 -0.221,-0.865 -0.248,-0.444 -0.639,-0.742 -1.056,-0.983 -0.629,-0.361 -1.358,-0.612 -1.975,-0.886 -0.308,-0.135 -0.585,-0.275 -0.8,-0.42 -0.217,-0.145 -0.363,-0.292 -0.442,-0.429 -0.34,-0.582 -0.779,-1.256 -1.274,-1.81 -0.248,-0.278 -0.51,-0.526 -0.797,-0.718 -0.286,-0.19 -0.608,-0.334 -0.977,-0.336 -0.254,-0.002 -0.518,0.079 -0.739,0.233 -0.222,0.155 -0.402,0.37 -0.552,0.633 -0.285,0.495 -0.397,1.004 -0.396,1.467 0.001,0.705 0.244,1.3 0.477,1.721 0.234,0.422 0.464,0.675 0.481,0.696 l 0.382,-0.347 0.221,-0.466 c -0.014,-0.007 -0.291,-0.137 -0.698,-0.27 -0.407,-0.132 -0.94,-0.27 -1.496,-0.271 -0.389,0 -0.804,0.068 -1.175,0.308 -0.373,0.236 -0.652,0.659 -0.742,1.181 -0.027,0.142 -0.04,0.281 -0.04,0.416 -0.004,0.567 0.248,1.049 0.584,1.371 0.507,0.488 1.162,0.705 1.69,0.833 0.529,0.125 0.942,0.146 0.962,0.147 l 0.026,-0.514 -0.25,-0.451 c -0.02,0.011 -0.438,0.242 -0.879,0.634 -0.22,0.197 -0.447,0.435 -0.631,0.723 -0.182,0.286 -0.325,0.632 -0.325,1.028 -0.002,0.291 0.083,0.598 0.258,0.877 0.238,0.385 0.607,0.644 1.01,0.798 0.406,0.156 0.855,0.218 1.323,0.219 1.352,-0.008 2.888,-0.511 3.944,-1.353 h -0.001 c 0.654,-0.528 1.32,-0.57 2.079,-0.73 0.373,-0.083 0.779,-0.205 1.14,-0.499 0.363,-0.292 0.636,-0.737 0.802,-1.336 l -0.497,-0.139 -0.496,-0.139 c -0.132,0.461 -0.291,0.675 -0.459,0.815 -0.128,0.104 -0.282,0.175 -0.49,0.235 -0.309,0.091 -0.724,0.138 -1.2,0.256 -0.474,0.117 -1.012,0.318 -1.526,0.734 h -0.001 c -0.806,0.662 -2.213,1.132 -3.295,1.125 -0.373,0.001 -0.705,-0.054 -0.953,-0.15 -0.25,-0.097 -0.407,-0.224 -0.503,-0.379 -0.081,-0.132 -0.103,-0.232 -0.105,-0.334 0,-0.136 0.053,-0.298 0.165,-0.475 0.165,-0.263 0.456,-0.531 0.704,-0.717 0.125,-0.094 0.237,-0.169 0.316,-0.219 l 0.093,-0.057 0.023,-0.014 0.004,-0.002 c 0.201,-0.112 0.305,-0.343 0.252,-0.567 -0.052,-0.224 -0.246,-0.387 -0.475,-0.398 l -0.021,-0.002 c -0.122,-0.007 -0.764,-0.069 -1.316,-0.293 -0.276,-0.11 -0.523,-0.259 -0.68,-0.426 -0.156,-0.172 -0.237,-0.337 -0.241,-0.601 0,-0.069 0.007,-0.144 0.022,-0.228 0.062,-0.304 0.161,-0.415 0.291,-0.505 0.133,-0.089 0.346,-0.143 0.613,-0.141 0.377,-0.002 0.831,0.106 1.176,0.22 0.174,0.057 0.321,0.114 0.424,0.156 l 0.117,0.05 0.029,0.013 0.006,0.003 c 0.223,0.105 0.489,0.038 0.635,-0.159 0.147,-0.198 0.132,-0.472 -0.033,-0.654 l -0.123,0.112 0.124,-0.111 -10e-4,-0.001 -0.123,0.112 0.124,-0.111 c -0.005,-0.006 -0.188,-0.213 -0.36,-0.533 -0.174,-0.32 -0.333,-0.747 -0.331,-1.191 10e-4,-0.304 0.067,-0.617 0.259,-0.955 0.095,-0.167 0.184,-0.255 0.245,-0.297 0.063,-0.041 0.096,-0.049 0.152,-0.05 0.077,-0.002 0.221,0.038 0.404,0.162 0.275,0.181 0.606,0.525 0.914,0.926 0.309,0.4 0.601,0.856 0.839,1.264 0.293,0.493 0.758,0.796 1.246,1.051 0.735,0.375 1.581,0.646 2.199,0.976 0.308,0.161 0.552,0.335 0.698,0.503 0.146,0.174 0.207,0.316 0.211,0.534 0,0.09 -0.014,0.197 -0.049,0.323 z"
       fill="#575757"
       id="path101" />
    <path
       fill-rule="evenodd"
       clip-rule="evenodd"
       d="m 116.889,237.47 c 0.044,0.762 -0.668,3.505 -0.137,4.199 0.513,0.67 3.598,-0.075 4.445,0.199 0.746,0.242 0.899,-0.996 1.815,-1.294 0.668,-0.218 2.649,1.06 3.371,0.453 0.428,-0.358 0.558,-1.523 1.13,-2.282 0.404,-0.534 0.856,-1.192 1.316,-1.888 0.387,-0.589 -0.257,-1.862 0.158,-2.545 0.375,-0.616 0.782,-1.24 1.173,-1.919 0.364,-0.634 0.688,-1.308 1.059,-1.985 0.355,-0.646 -0.247,-1.799 0.111,-2.475 0.349,-0.659 0.172,-1.569 0.519,-2.245 0.339,-0.668 1.146,-1.088 1.479,-1.766 0.335,-0.676 0.904,-1.22 1.226,-1.9 0.326,-0.684 0.306,-1.508 0.615,-2.187 0.319,-0.695 1.488,-0.979 1.785,-1.656 0.31,-0.707 0.062,-1.62 0.34,-2.297 0.299,-0.723 0.765,-1.319 1.024,-1.994 0.286,-0.744 0.613,-1.395 0.842,-2.064 0.266,-0.78 2.241,-0.914 2.417,-1.567 0.239,-0.884 -1.943,-2.08 -1.902,-2.668 0.051,-0.726 0.108,-1.271 0.078,-1.947 -0.036,-0.746 -0.722,-1.187 -0.853,-1.843 -0.154,-0.769 1.405,-1.557 1.123,-2.156 -0.357,-0.757 -0.799,-1.945 -1.349,-2.343 -0.608,-0.44 -0.449,0.302 -1.279,0.421 -0.612,0.088 -1.184,-0.576 -1.909,-0.123 -0.454,0.284 -0.898,1.86 -1.508,2.575 -0.417,0.494 -2.562,-0.211 -3.035,0.454 -0.396,0.554 0.735,2.354 0.313,3.011 -0.376,0.587 -1.119,0.838 -1.513,1.494 -0.362,0.604 -0.175,1.338 -0.547,1.993 -0.351,0.62 -1.319,1.215 -1.675,1.87 -0.341,0.631 -0.862,1.346 -1.203,2.004 -0.33,0.643 0.786,1.459 0.459,2.12 -0.32,0.65 -2.262,1.171 -2.578,1.832 -0.311,0.66 0.988,1.969 0.688,2.635 -0.303,0.667 -1.545,0.75 -1.833,1.418 -0.291,0.676 0.56,1.633 0.286,2.305 -0.278,0.685 -2.535,0.975 -2.794,1.649 -0.264,0.695 0.874,1.949 0.634,2.626 -0.251,0.707 -0.307,1.481 -0.524,2.16 -0.228,0.721 -1.17,1.213 -1.358,1.894 -0.203,0.74 -0.738,0.716 -0.884,1.397 -0.165,0.769 0.231,1.53 0.148,2.206 -0.101,0.818 -1.71,1.578 -1.673,2.229 z"
       fill="#7f7f7f"
       id="path103" />
    <path
       fill-rule="evenodd"
       clip-rule="evenodd"
       d="m 116.889,237.471 -0.515,0.029 0.002,0.045 c 0.002,0.223 -0.078,0.763 -0.163,1.348 -0.085,0.592 -0.173,1.248 -0.174,1.828 0,0.229 0.014,0.447 0.054,0.656 0.041,0.208 0.105,0.412 0.249,0.605 0.214,0.268 0.486,0.358 0.744,0.418 0.264,0.057 0.545,0.073 0.846,0.073 0.899,-0.001 1.997,-0.155 2.669,-0.153 0.222,-0.002 0.395,0.022 0.437,0.039 0.11,0.036 0.227,0.056 0.343,0.056 0.309,0.002 0.568,-0.15 0.731,-0.299 0.252,-0.231 0.402,-0.478 0.569,-0.671 0.164,-0.197 0.314,-0.324 0.492,-0.381 l -0.023,-0.069 0.016,0.07 0.007,-0.001 -0.023,-0.069 0.016,0.07 0.031,-0.001 c 0.068,-0.002 0.229,0.025 0.422,0.081 0.29,0.082 0.658,0.217 1.038,0.335 0.382,0.118 0.775,0.225 1.179,0.227 0.286,0.001 0.609,-0.06 0.878,-0.285 v 0.001 c 0.201,-0.173 0.313,-0.373 0.411,-0.576 0.144,-0.305 0.249,-0.636 0.373,-0.955 0.122,-0.317 0.26,-0.616 0.427,-0.836 0.414,-0.548 0.871,-1.214 1.335,-1.915 v -0.001 c 0.182,-0.281 0.213,-0.575 0.214,-0.838 -0.005,-0.502 -0.122,-0.994 -0.118,-1.346 -0.001,-0.192 0.033,-0.317 0.071,-0.376 0.369,-0.606 0.78,-1.235 1.18,-1.93 0.377,-0.657 0.701,-1.334 1.064,-1.994 0.147,-0.271 0.18,-0.55 0.18,-0.803 -0.005,-0.517 -0.129,-1.007 -0.124,-1.346 -0.001,-0.164 0.026,-0.274 0.058,-0.334 0.236,-0.451 0.272,-0.907 0.317,-1.3 0.041,-0.397 0.089,-0.731 0.205,-0.95 l 0.002,-0.001 c 0.11,-0.227 0.349,-0.468 0.637,-0.74 0.285,-0.276 0.621,-0.582 0.845,-1.032 h -0.001 c 0.14,-0.282 0.345,-0.565 0.572,-0.871 0.224,-0.307 0.468,-0.638 0.658,-1.035 0.198,-0.42 0.278,-0.84 0.353,-1.218 0.074,-0.378 0.144,-0.714 0.265,-0.977 v 0.001 c 0.034,-0.076 0.11,-0.172 0.236,-0.279 0.188,-0.161 0.473,-0.329 0.764,-0.531 0.286,-0.204 0.603,-0.444 0.788,-0.854 0.206,-0.478 0.211,-0.948 0.225,-1.351 0.009,-0.406 0.029,-0.748 0.12,-0.958 l -10e-4,0.002 c 0.26,-0.642 0.726,-1.235 1.03,-2.005 0.273,-0.716 0.602,-1.368 0.847,-2.082 l 0.05,-0.067 c 0.065,-0.067 0.218,-0.166 0.417,-0.256 0.299,-0.139 0.686,-0.266 1.043,-0.425 0.18,-0.081 0.353,-0.169 0.517,-0.293 0.159,-0.122 0.328,-0.297 0.401,-0.56 0.024,-0.091 0.036,-0.184 0.036,-0.274 -0.008,-0.413 -0.202,-0.719 -0.409,-0.992 -0.318,-0.407 -0.738,-0.767 -1.066,-1.079 -0.163,-0.153 -0.302,-0.294 -0.381,-0.395 l -0.072,-0.104 -0.007,0.004 0.006,-0.002 0.001,-0.002 -0.007,0.004 0.006,-0.002 -0.203,0.057 h 0.211 l -0.008,-0.057 -0.203,0.057 h 0.211 -0.302 l 0.301,0.023 0.001,-0.023 h -0.302 l 0.301,0.023 v -0.003 c 0.04,-0.578 0.088,-1.059 0.088,-1.605 0,-0.13 -0.003,-0.263 -0.009,-0.402 v -0.001 c -0.027,-0.534 -0.281,-0.924 -0.478,-1.219 -0.207,-0.299 -0.355,-0.525 -0.385,-0.702 l -0.001,-0.008 c -0.002,-0.013 0.015,-0.094 0.098,-0.217 0.12,-0.185 0.351,-0.422 0.573,-0.673 0.112,-0.127 0.222,-0.26 0.316,-0.416 0.092,-0.155 0.18,-0.343 0.182,-0.586 0.001,-0.123 -0.027,-0.255 -0.083,-0.373 -0.171,-0.36 -0.373,-0.854 -0.609,-1.32 -0.244,-0.467 -0.494,-0.914 -0.905,-1.222 -0.09,-0.064 -0.177,-0.119 -0.277,-0.161 -0.098,-0.043 -0.213,-0.074 -0.339,-0.074 -0.224,-0.003 -0.416,0.113 -0.51,0.198 -0.147,0.132 -0.2,0.211 -0.264,0.259 -0.062,0.047 -0.112,0.082 -0.264,0.107 h -0.001 l -0.043,0.003 c -0.083,0.002 -0.235,-0.04 -0.445,-0.117 -0.208,-0.07 -0.474,-0.171 -0.811,-0.173 -0.256,-0.002 -0.546,0.07 -0.81,0.237 -0.255,0.17 -0.377,0.375 -0.514,0.6 -0.195,0.339 -0.372,0.748 -0.559,1.134 -0.184,0.385 -0.382,0.747 -0.553,0.944 l -0.001,0.002 0.102,0.086 -0.06,-0.123 -0.042,0.037 0.102,0.086 -0.06,-0.123 c -0.003,0.01 -0.185,0.049 -0.422,0.044 -0.334,10e-4 -0.777,-0.042 -1.211,-0.042 -0.254,0 -0.507,0.013 -0.758,0.074 -0.246,0.062 -0.52,0.181 -0.713,0.448 l 0.001,-0.001 c -0.15,0.215 -0.181,0.439 -0.182,0.635 0.006,0.435 0.149,0.85 0.27,1.266 0.125,0.406 0.23,0.805 0.225,1.011 l -0.01,0.102 -0.004,0.019 h 0.002 l -0.002,-0.001 v 0.001 h 0.002 l -0.002,-0.001 c -0.12,0.192 -0.343,0.372 -0.633,0.592 -0.283,0.222 -0.631,0.488 -0.889,0.916 -0.25,0.421 -0.292,0.838 -0.339,1.175 -0.043,0.343 -0.087,0.609 -0.214,0.828 -0.108,0.201 -0.407,0.494 -0.739,0.8 -0.332,0.313 -0.698,0.641 -0.941,1.08 -0.316,0.587 -0.839,1.305 -1.207,2.013 l -0.001,0.001 c -0.083,0.16 -0.12,0.338 -0.119,0.497 0.011,0.453 0.213,0.763 0.352,1.037 0.151,0.267 0.24,0.496 0.229,0.556 l -0.007,0.037 -0.077,0.087 c -0.094,0.088 -0.273,0.208 -0.487,0.328 -0.324,0.183 -0.724,0.373 -1.089,0.584 -0.183,0.106 -0.357,0.217 -0.517,0.347 -0.157,0.131 -0.306,0.278 -0.411,0.493 v 0.001 c -0.073,0.153 -0.099,0.312 -0.099,0.456 0.002,0.264 0.075,0.489 0.159,0.703 0.129,0.321 0.298,0.624 0.426,0.894 0.132,0.264 0.204,0.502 0.197,0.573 l -0.002,0.022 0.017,0.003 -0.015,-0.007 -0.002,0.004 0.017,0.003 -0.015,-0.007 v -0.001 c -0.02,0.046 -0.074,0.114 -0.195,0.196 -0.178,0.125 -0.475,0.251 -0.784,0.413 -0.155,0.083 -0.315,0.177 -0.467,0.305 -0.151,0.127 -0.297,0.294 -0.391,0.512 -0.076,0.176 -0.104,0.358 -0.103,0.524 0.004,0.395 0.132,0.722 0.23,1.013 0.103,0.287 0.178,0.539 0.173,0.67 l -0.017,0.108 0.057,0.024 -0.053,-0.033 -0.004,0.009 0.057,0.024 -0.053,-0.033 -0.018,0.021 c -0.05,0.056 -0.228,0.17 -0.461,0.272 -0.353,0.16 -0.821,0.318 -1.244,0.501 -0.213,0.093 -0.417,0.192 -0.603,0.319 -0.182,0.128 -0.368,0.286 -0.476,0.555 -0.054,0.143 -0.074,0.287 -0.074,0.422 0.001,0.255 0.065,0.48 0.14,0.695 0.116,0.321 0.27,0.626 0.386,0.895 0.119,0.265 0.187,0.501 0.181,0.588 l -0.004,0.038 h 10e-4 c -0.278,0.795 -0.334,1.579 -0.531,2.174 v 0.002 c -0.055,0.197 -0.282,0.465 -0.574,0.761 -0.281,0.301 -0.634,0.627 -0.789,1.152 -0.077,0.252 -0.146,0.309 -0.325,0.487 -0.087,0.086 -0.203,0.194 -0.313,0.349 -0.11,0.155 -0.204,0.356 -0.252,0.59 -0.039,0.176 -0.053,0.348 -0.053,0.512 0,0.341 0.059,0.647 0.109,0.917 0.051,0.27 0.092,0.504 0.091,0.687 l -0.008,0.135 c -10e-4,0.044 -0.055,0.172 -0.188,0.328 -0.195,0.237 -0.525,0.514 -0.826,0.8 -0.152,0.146 -0.298,0.295 -0.422,0.47 -0.121,0.174 -0.238,0.389 -0.241,0.673 l 0.002,0.053 -0.001,-0.002 0.515,-0.029 0.515,-0.031 -0.148,0.009 h 0.148 v -0.009 l -0.148,0.009 h 0.148 -0.061 l 0.06,0.016 10e-4,-0.016 h -0.061 l 0.06,0.016 c -0.004,-0.007 0.062,-0.128 0.197,-0.265 0.198,-0.213 0.515,-0.473 0.808,-0.766 0.147,-0.148 0.29,-0.305 0.41,-0.486 0.12,-0.182 0.224,-0.392 0.255,-0.644 0.011,-0.089 0.016,-0.176 0.016,-0.261 -0.001,-0.32 -0.06,-0.609 -0.109,-0.876 -0.05,-0.267 -0.091,-0.511 -0.091,-0.728 0,-0.104 0.009,-0.202 0.029,-0.296 0.024,-0.107 0.052,-0.158 0.089,-0.213 0.053,-0.082 0.168,-0.176 0.337,-0.352 0.166,-0.172 0.355,-0.441 0.451,-0.804 0.033,-0.155 0.244,-0.415 0.538,-0.71 0.283,-0.301 0.641,-0.64 0.814,-1.166 l -0.001,0.003 c 0.239,-0.762 0.296,-1.527 0.52,-2.144 l 0.001,-0.001 c 0.045,-0.131 0.062,-0.26 0.062,-0.382 -0.001,-0.254 -0.066,-0.476 -0.141,-0.688 -0.116,-0.317 -0.269,-0.619 -0.385,-0.889 -0.118,-0.266 -0.186,-0.504 -0.181,-0.601 l 0.006,-0.054 -0.083,-0.031 0.077,0.045 0.006,-0.013 -0.083,-0.032 0.077,0.045 10e-4,-0.001 c 0.012,-0.027 0.167,-0.146 0.396,-0.248 0.342,-0.163 0.826,-0.325 1.268,-0.513 0.222,-0.096 0.436,-0.198 0.631,-0.328 0.191,-0.13 0.384,-0.29 0.5,-0.562 0.068,-0.167 0.093,-0.339 0.093,-0.497 -0.004,-0.394 -0.133,-0.719 -0.23,-1.009 -0.104,-0.288 -0.178,-0.54 -0.173,-0.674 l 0.019,-0.117 c 0.017,-0.042 0.068,-0.107 0.186,-0.189 0.174,-0.123 0.469,-0.249 0.779,-0.411 0.154,-0.082 0.314,-0.176 0.468,-0.303 0.152,-0.126 0.299,-0.29 0.396,-0.504 l 0.001,-0.002 c 0.067,-0.148 0.091,-0.301 0.091,-0.441 -0.002,-0.263 -0.075,-0.489 -0.159,-0.704 -0.128,-0.32 -0.298,-0.624 -0.426,-0.893 -0.131,-0.265 -0.204,-0.503 -0.197,-0.573 l 0.002,-0.021 -0.024,-0.005 0.022,0.011 0.002,-0.006 -0.024,-0.005 0.022,0.011 -10e-4,0.001 c -0.005,-0.007 0.106,-0.138 0.308,-0.265 0.3,-0.198 0.755,-0.415 1.179,-0.646 0.212,-0.116 0.418,-0.237 0.604,-0.377 0.185,-0.141 0.361,-0.296 0.484,-0.538 0.079,-0.16 0.114,-0.335 0.113,-0.493 -0.01,-0.454 -0.212,-0.769 -0.351,-1.044 -0.153,-0.268 -0.242,-0.497 -0.23,-0.549 l 0.005,-0.026 -0.001,10e-4 c 0.312,-0.607 0.831,-1.319 1.199,-1.996 0.111,-0.215 0.407,-0.513 0.737,-0.816 0.328,-0.311 0.689,-0.625 0.933,-1.045 0.246,-0.436 0.294,-0.865 0.34,-1.203 0.042,-0.344 0.087,-0.594 0.2,-0.778 0.136,-0.229 0.356,-0.416 0.637,-0.631 0.275,-0.216 0.611,-0.455 0.869,-0.851 0.142,-0.225 0.176,-0.462 0.177,-0.677 -0.005,-0.453 -0.147,-0.891 -0.269,-1.308 -0.127,-0.408 -0.232,-0.802 -0.226,-0.969 l 0.005,-0.064 -0.027,-0.007 0.026,0.011 10e-4,-0.004 -0.027,-0.007 0.026,0.011 -0.121,-0.052 0.107,0.076 0.014,-0.024 -0.121,-0.052 0.107,0.076 v -10e-4 l -0.024,-0.016 0.02,0.022 0.004,-0.006 -0.024,-0.016 0.02,0.022 c 0,-0.002 0.055,-0.038 0.171,-0.06 0.115,-0.024 0.28,-0.035 0.464,-0.035 0.366,0 0.804,0.042 1.211,0.043 0.197,-0.001 0.387,-0.009 0.581,-0.05 0.188,-0.043 0.404,-0.115 0.586,-0.322 l -0.001,0.001 c 0.378,-0.451 0.639,-1.046 0.885,-1.564 0.121,-0.258 0.236,-0.495 0.334,-0.666 0.05,-0.085 0.095,-0.154 0.13,-0.196 l 0.038,-0.044 0.006,-0.006 -0.039,-0.05 0.034,0.054 0.005,-0.004 -0.039,-0.05 0.034,0.054 c 0.113,-0.068 0.178,-0.079 0.263,-0.081 0.109,-0.003 0.265,0.041 0.47,0.116 0.204,0.068 0.457,0.171 0.786,0.174 0.061,0 0.125,-0.005 0.191,-0.014 l -0.001,0.001 c 0.444,-0.056 0.76,-0.296 0.915,-0.462 0.079,-0.081 0.131,-0.138 0.137,-0.141 l -0.054,-0.063 0.046,0.068 0.008,-0.005 -0.054,-0.063 0.046,0.068 -0.152,-0.226 v 0.27 l 0.152,-0.044 -0.152,-0.226 v 0.27 -0.237 l -0.053,0.231 0.053,0.006 v -0.237 l -0.053,0.231 0.025,-0.111 -0.04,0.106 0.015,0.005 0.025,-0.111 -0.04,0.106 0.018,0.011 0.061,0.039 c 0.141,0.091 0.386,0.438 0.59,0.853 0.212,0.417 0.409,0.897 0.596,1.293 l 0.141,-0.066 h -0.156 l 0.015,0.066 0.141,-0.066 h -0.156 0.075 l -0.074,-0.018 -0.001,0.018 h 0.075 l -0.074,-0.018 c 0.003,0.002 -0.04,0.097 -0.136,0.214 -0.142,0.18 -0.374,0.408 -0.587,0.67 -0.106,0.132 -0.211,0.275 -0.295,0.441 -0.084,0.165 -0.151,0.361 -0.152,0.585 0,0.07 0.007,0.14 0.021,0.211 0.102,0.48 0.362,0.803 0.541,1.075 0.188,0.276 0.294,0.48 0.303,0.692 v -0.001 c 0.005,0.122 0.008,0.239 0.008,0.355 0,0.482 -0.044,0.938 -0.086,1.533 l 0.001,-0.005 -0.002,0.057 c 0.004,0.22 0.081,0.374 0.159,0.504 0.141,0.226 0.324,0.409 0.524,0.603 0.298,0.287 0.639,0.585 0.888,0.859 0.124,0.135 0.223,0.263 0.281,0.365 0.06,0.101 0.071,0.168 0.069,0.18 l -0.001,0.006 0.104,0.028 -0.09,-0.059 -0.014,0.031 0.104,0.028 -0.09,-0.059 -0.012,0.012 c -0.037,0.039 -0.182,0.13 -0.378,0.213 -0.296,0.131 -0.694,0.262 -1.07,0.439 -0.188,0.09 -0.374,0.192 -0.544,0.331 -0.168,0.138 -0.331,0.321 -0.417,0.571 -0.213,0.623 -0.538,1.273 -0.835,2.046 -0.215,0.577 -0.68,1.178 -1.019,1.981 l -0.001,0.001 c -0.187,0.467 -0.182,0.922 -0.196,1.318 -0.009,0.4 -0.035,0.74 -0.139,0.968 -0.028,0.066 -0.098,0.157 -0.221,0.261 -0.183,0.157 -0.468,0.326 -0.761,0.529 -0.288,0.205 -0.607,0.451 -0.8,0.858 v 0.002 c -0.188,0.415 -0.263,0.831 -0.338,1.205 -0.073,0.375 -0.146,0.709 -0.273,0.974 -0.134,0.283 -0.334,0.563 -0.558,0.867 -0.224,0.305 -0.469,0.633 -0.664,1.026 l -10e-4,0.001 c -0.109,0.229 -0.344,0.47 -0.632,0.741 -0.282,0.274 -0.617,0.576 -0.845,1.019 l 10e-4,-0.002 c -0.231,0.457 -0.267,0.916 -0.312,1.308 -0.04,0.396 -0.09,0.724 -0.204,0.93 -0.144,0.276 -0.177,0.559 -0.178,0.816 0.006,0.524 0.13,1.017 0.124,1.346 0.001,0.16 -0.026,0.26 -0.052,0.307 -0.381,0.693 -0.704,1.365 -1.055,1.977 -0.381,0.662 -0.785,1.282 -1.167,1.907 -0.182,0.304 -0.22,0.624 -0.22,0.912 0.004,0.523 0.123,1.025 0.117,1.346 0.002,0.167 -0.031,0.257 -0.045,0.272 l 0.001,-0.001 c -0.456,0.691 -0.904,1.342 -1.297,1.862 -0.349,0.467 -0.532,0.994 -0.692,1.425 -0.078,0.215 -0.15,0.406 -0.216,0.546 -0.064,0.14 -0.129,0.219 -0.142,0.226 -0.013,0.012 -0.067,0.044 -0.216,0.044 -0.272,0.006 -0.753,-0.133 -1.225,-0.295 -0.238,-0.079 -0.479,-0.162 -0.712,-0.228 -0.235,-0.065 -0.459,-0.119 -0.702,-0.12 -0.108,0 -0.222,0.011 -0.344,0.051 -0.298,0.096 -0.534,0.263 -0.718,0.436 -0.274,0.261 -0.452,0.536 -0.593,0.701 -0.068,0.084 -0.125,0.136 -0.152,0.154 l -0.018,0.011 0.009,0.026 v -0.028 l -0.009,0.002 0.009,0.026 v -0.028 l -0.025,-0.006 c -0.243,-0.076 -0.482,-0.087 -0.755,-0.089 -0.793,0.002 -1.877,0.155 -2.669,0.153 -0.259,0.001 -0.482,-0.017 -0.626,-0.049 -0.072,-0.016 -0.123,-0.034 -0.146,-0.047 l -0.016,-0.008 -0.058,0.074 0.075,-0.057 -0.017,-0.017 -0.058,0.074 0.075,-0.057 c -0.002,0.001 -0.035,-0.059 -0.056,-0.174 -0.023,-0.114 -0.035,-0.274 -0.035,-0.46 -10e-4,-0.474 0.079,-1.101 0.163,-1.681 0.083,-0.587 0.171,-1.107 0.174,-1.495 l -0.003,-0.104 v -0.001 z"
       fill="#4b4b4b"
       id="path105" />
    <path
       fill-rule="evenodd"
       clip-rule="evenodd"
       d="m 142.472,198.915 -20.716,45.274 -5.477,-1.099 20.715,-45.274 z"
       fill="#acacac"
       id="path107" />
    <mask
       id="mask5"
       mask-type="alpha"
       maskUnits="userSpaceOnUse"
       x="121"
       y="198"
       width="43"
       height="47">
      <path
         d="m 142.472,198.914 21.163,30.03 -41.879,15.244 z"
         fill="#ffffff"
         id="path109" />
    </mask>
    <g
       mask="url(#mask5)"
       id="g114">
      <path
         fill-rule="evenodd"
         clip-rule="evenodd"
         d="m 142.472,198.914 21.163,30.03 -41.879,15.244 z"
         fill="#d8d8d8"
         id="path112" />
    </g>
  </g>
  <path
     fill-rule="evenodd"
     clip-rule="evenodd"
     d="M137.456 153.96C137.456 145.988 130.994 139.526 123.023 139.526C115.052 139.526 108.589 145.988 108.589 153.96C108.589 161.931 115.052 168.394 123.023 168.394C130.994 168.394 137.456 161.931 137.456 153.96ZM142.268 153.96C142.268 164.589 133.651 173.205 123.023 173.205C112.394 173.205 103.778 164.589 103.778 153.96C103.778 143.331 112.394 134.715 123.023 134.715C133.651 134.715 142.268 143.331 142.268 153.96Z"
     fill="#7F7F7F"
     id="path118" />
  <path
     fill-rule="evenodd"
     clip-rule="evenodd"
     d="M113.315 168.393L109.964 165.042L134.105 140.9L137.456 144.252L113.315 168.393Z"
     fill="#7F7F7F"
     id="path120" />
  <defs
     id="defs127">
    <linearGradient
       id="paint0_linear"
       x1="137.742"
       y1="216.333"
       x2="112.495"
       y2="271.741"
       gradientUnits="userSpaceOnUse">
      <stop
         stop-color="#D8D8D8"
         id="stop122" />
      <stop
         offset="1"
         stop-color="#EEA26E"
         id="stop124" />
    </linearGradient>
  </defs>
</svg>
