<svg width="16" height="16" viewBox="0 0 16 16" fill="none" xmlns="http://www.w3.org/2000/svg">
<path fill-rule="evenodd" clip-rule="evenodd" d="M13.8622 7.3336C13.9532 6.8787 14 6.43382 14 6C14 2.68629 11.3137 0 8 0C4.68629 0 2 2.68629 2 6C2 6.43382 2.04683 6.8787 2.13781 7.3336C2.48534 9.07126 3.45492 10.8985 4.85165 12.7397C5.46559 13.549 6.12236 14.3072 6.7793 14.994C7.00949 15.2347 7.2235 15.4495 7.416 15.6357C7.53262 15.7485 7.61696 15.8275 7.66366 15.87C7.85437 16.0433 8.14563 16.0433 8.33634 15.87C8.38304 15.8275 8.46738 15.7485 8.584 15.6357C8.7765 15.4495 8.99051 15.2347 9.2207 14.994C9.87764 14.3072 10.5344 13.549 11.1483 12.7397C12.5451 10.8985 13.5147 9.07126 13.8622 7.3336ZM10.3517 12.1353C9.76247 12.912 9.13018 13.642 8.49805 14.3028C8.32077 14.4882 8.15383 14.6572 8 14.8084C7.84617 14.6572 7.67923 14.4882 7.50195 14.3028C6.86982 13.642 6.23753 12.912 5.64835 12.1353C4.33485 10.4039 3.43098 8.70044 3.11839 7.13748C3.03995 6.74527 3 6.36577 3 6C3 3.23858 5.23858 1 8 1C10.7614 1 13 3.23858 13 6C13 6.36577 12.9601 6.74527 12.8816 7.13748C12.569 8.70044 11.6652 10.4039 10.3517 12.1353ZM11 6C11 7.65685 9.65685 9 8 9C6.34315 9 5 7.65685 5 6C5 4.34315 6.34315 3 8 3C9.65685 3 11 4.34315 11 6ZM6 6C6 7.10457 6.89543 8 8 8C9.10457 8 10 7.10457 10 6C10 4.89543 9.10457 4 8 4C6.89543 4 6 4.89543 6 6Z" fill="black"/>
</svg>
