<svg width="17" height="17" viewBox="0 0 17 17" fill="none" xmlns="http://www.w3.org/2000/svg">
<path fill-rule="evenodd" clip-rule="evenodd" d="M9.5625 4.78125C9.5625 6.83506 7.89756 8.5 5.84375 8.5C3.78994 8.5 2.125 6.83506 2.125 4.78125C2.125 2.72744 3.78994 1.0625 5.84375 1.0625C7.89756 1.0625 9.5625 2.72744 9.5625 4.78125ZM3.1875 4.78125C3.1875 6.24826 4.37674 7.4375 5.84375 7.4375C7.31076 7.4375 8.5 6.24826 8.5 4.78125C8.5 3.31424 7.31076 2.125 5.84375 2.125C4.37674 2.125 3.1875 3.31424 3.1875 4.78125ZM15.9375 4.78125C15.9375 6.24826 14.7483 7.4375 13.2812 7.4375C11.8142 7.4375 10.625 6.24826 10.625 4.78125C10.625 3.31424 11.8142 2.125 13.2812 2.125C14.7483 2.125 15.9375 3.31424 15.9375 4.78125ZM11.6875 4.78125C11.6875 5.66145 12.401 6.375 13.2812 6.375C14.1615 6.375 14.875 5.66145 14.875 4.78125C14.875 3.90105 14.1615 3.1875 13.2812 3.1875C12.401 3.1875 11.6875 3.90105 11.6875 4.78125ZM5.84375 9.5625C2.61634 9.5625 0 12.1788 0 15.4062C0 15.6997 0.237849 15.9375 0.53125 15.9375H11.1562C11.4497 15.9375 11.6875 15.6997 11.6875 15.4062C11.6875 12.1788 9.07116 9.5625 5.84375 9.5625ZM1.09168 14.875C1.35595 12.4844 3.38271 10.625 5.84375 10.625C8.30479 10.625 10.3316 12.4844 10.5958 14.875H1.09168ZM12.75 13.2812C12.75 12.9878 12.9878 12.75 13.2812 12.75H15.9375V12.2187C15.9375 10.7517 14.7483 9.5625 13.2804 9.56249C12.7582 9.56164 12.2476 9.71555 11.8128 10.0048C11.5686 10.1673 11.2388 10.1011 11.0763 9.85678C10.9137 9.61251 10.98 9.28273 11.2243 9.1202C11.8338 8.71462 12.5499 8.4988 13.2812 8.5C15.3351 8.5 17 10.1649 17 12.2187V13.2812C17 13.5746 16.7621 13.8125 16.4688 13.8125H13.2812C12.9878 13.8125 12.75 13.5746 12.75 13.2812Z" fill="black"/>
</svg>
