<?xml version="1.0" encoding="utf-8"?>
<!-- Generator: Adobe Illustrator 25.2.0, SVG Export Plug-In . SVG Version: 6.00 Build 0)  -->
<svg version="1.1" id="Layer_1" xmlns="http://www.w3.org/2000/svg" xmlns:xlink="http://www.w3.org/1999/xlink" x="0px" y="0px"
	 viewBox="0 0 2047 926.9" style="enable-background:new 0 0 2047 926.9;" xml:space="preserve">
<style type="text/css">
	.st0{fill:#23A2B7;stroke:#23A2B7;stroke-width:5;stroke-miterlimit:10;}
	.st1{fill:#A8E0E5;}
	.st2{fill:#8ECCCE;}
	.st3{fill:#99B8BF;}
	.st4{opacity:0.74;fill:#575757;enable-background:new    ;}
	.st5{enable-background:new    ;}
	.st6{fill:#FFFFFF;}
	.st7{fill:none;stroke:#FFFFFF;stroke-width:7;stroke-miterlimit:10;}
	.st8{fill:none;stroke:#FFFFFF;stroke-width:3;stroke-miterlimit:10;}
	.st9{fill:#EBF2F2;}
	.st10{fill:#646B6D;}
	.st11{fill:none;stroke:#7A8E93;stroke-width:0.709;stroke-miterlimit:10;}
	.st12{fill:none;stroke:#7A8E93;stroke-width:0.74;stroke-linecap:round;stroke-linejoin:round;}
	.st13{fill:#767E80;}
	.st14{fill:#EBF1F2;}
	.st15{fill:none;stroke:#7A8E93;stroke-width:0.827;stroke-miterlimit:10;}
	.st16{fill:#7A8E93;stroke:#7A8E93;stroke-width:0.359;stroke-miterlimit:10;}
</style>
<g id="shadow">
	<polygon class="st0" points="44.5,101.8 1992.8,101.8 1992.8,631 1635.5,651.6 1635.5,268 1602.3,268 1602.3,324 1551.7,324 
		1551.7,271.8 1543.5,271.8 1543.5,394.2 636.4,394.2 562.7,428 612,834.5 139,889.9 	"/>
</g>
<g id="background">
	<polygon class="st1" points="37.5,85 1985.8,85 1985.8,614.3 1628.5,634.9 1628.5,251.2 1595.3,251.2 1595.3,307.2 1544.7,307.2 
		1544.7,255 1536.6,255 1536.6,377.4 629.4,377.4 555.7,411.3 605,817.8 132,873.2 	"/>
</g>
<g id="spaces">
	<path class="st2" d="M37.5,85h288.8l12.4,134.8h9.4c0,0,1.7-43.6,10.5-61.5s12.6-23.5,12.6-23.5s-7-25.1,12.6-36.3
		s30.5,5.3,30.5,5.3s16.1-8.7,50.1-3.5s52,15.1,52,15.1s25.5,8.4,49.6,37.6s41,52.6,45.5,66.9l4.5,14.3h9.8v-42.5h209.5v-50h152.4
		v56.6H1216v-56.6h184v38.4h100.2V85h128.4v165.5h-34.9v56.7h-48.3v-53h-8.1v123.2H629.4V279h-6.7c0,0,3.7,66.1-25.6,91.8
		s-59.3,33.1-90,28.1s-37.8-4.2-55.1-14.5s-48.5-30.9-64.2-59.5S358.3,265,358.3,265l-15.4-1.3l25.4,174.2l13.6,82.3L566,496
		l39,321.8l-473,55.4L37.5,85z"/>
	<polygon class="st2" points="1708.5,85 1985.8,85 1985.8,615.7 1628.5,634.9 1628.5,436.9 1807.2,436.9 1807.2,177 1708.5,177 	"/>
	<path class="st3" d="M555.6,141.7h147.8v49.7h-77.7v42.8h-9.8c0,0-6.1-20.9-11.4-31.1s-24.1-33-24.1-33L555.6,141.7z"/>
	<polygon class="st3" points="364.7,414.2 421.4,411.3 498.3,411.3 555.7,411.3 566,496 381.7,520.4 	"/>
	<polygon class="st3" points="1628.5,85 1708.5,85 1708.5,177 1676.5,177 1676.5,198.3 1628.5,198.3 	"/>
	<rect x="1628.5" y="257.2" class="st3" width="178.6" height="179.6"/>
	<rect x="987.6" y="140.8" class="st3" width="109.9" height="58.3"/>
</g>
<g id="bookable">
	<polygon id="area-03.3.01-status" class="st4" points="406.3,708.1 588.8,684.6 605,817.8 421.4,839.3 	"/>
	<polygon id="area-03.3.02-status" class="st4" points="104.7,645.5 258.8,624 338.3,615.8 393.6,609.8 421.4,839.3 132,873.2 	"/>
	<polygon id="area-03.3.03-status" class="st4" points="64.2,307.5 344.6,275.9 393.6,609.8 104.7,645.5 	"/>
	<polygon id="area-03.3.04-status" class="st4" points="37.5,85 326.3,85 344.6,275.9 64.2,307.5 	"/>
	<rect id="area-03.3.10-status" x="628.3" y="191.4" class="st4" width="206.9" height="188.7"/>
	<rect id="area-03.3.11-status" x="835.2" y="141.7" class="st4" width="152.4" height="238.4"/>
	<rect id="area-03.3.12-status" x="987.2" y="198.3" class="st4" width="228.7" height="181.7"/>
	<rect id="area-03.3.17-status" x="1286.4" y="141.7" class="st4" width="113.6" height="235.8"/>
	<rect id="area-03.3.22-status" x="1807" y="85" class="st4" width="178.7" height="172.2"/>
	<polygon id="area-03.3.24-status" class="st4" points="1628.5,436.9 1807,436.9 1807,625.5 1628.5,634.9 	"/>
	<polygon id="area-03.3.26-status" class="st4" points="1985.8,506.3 1985.8,614.3 1807,625.5 1807.2,506.3 	"/>
	<g class="st5">
		<path class="st6" d="M460.5,765.6V757h2.8c1.1,0,1.7,0,2.1,0.1c0.5,0.1,0.9,0.4,1.2,0.8s0.5,1,0.5,1.7c0,0.5-0.1,1-0.3,1.3
			s-0.4,0.6-0.7,0.8s-0.6,0.3-0.9,0.4c-0.4,0.1-1,0.1-1.8,0.1h-1.1v3.2h-1.8L460.5,765.6L460.5,765.6z M462.2,758.5v2.4h0.9
			c0.7,0,1.1,0,1.4-0.1s0.4-0.2,0.5-0.4s0.2-0.4,0.2-0.7s-0.1-0.6-0.3-0.8s-0.4-0.3-0.7-0.4c-0.2,0-0.6-0.1-1.2-0.1L462.2,758.5
			L462.2,758.5z"/>
		<path class="st6" d="M469.7,761.3l-1.5-0.3c0.2-0.6,0.5-1,0.9-1.3s1-0.4,1.8-0.4c0.7,0,1.3,0.1,1.6,0.3s0.6,0.4,0.8,0.7
			s0.2,0.8,0.2,1.5v1.9c0,0.5,0,1,0.1,1.2s0.2,0.5,0.3,0.8h-1.6c0-0.1-0.1-0.3-0.2-0.5c0-0.1,0-0.2-0.1-0.2
			c-0.3,0.3-0.6,0.5-0.9,0.6s-0.7,0.2-1,0.2c-0.6,0-1.1-0.2-1.5-0.5s-0.6-0.8-0.6-1.3c0-0.4,0.1-0.7,0.3-0.9s0.4-0.5,0.7-0.6
			s0.7-0.3,1.3-0.4c0.8-0.1,1.3-0.3,1.6-0.4v-0.2c0-0.3-0.1-0.5-0.2-0.7s-0.5-0.2-0.9-0.2c-0.3,0-0.5,0.1-0.7,0.2
			S469.8,761,469.7,761.3z M471.9,762.6c-0.2,0.1-0.5,0.2-1,0.3s-0.8,0.2-0.9,0.3c-0.2,0.2-0.3,0.3-0.3,0.6c0,0.2,0.1,0.4,0.3,0.6
			s0.4,0.3,0.7,0.3c0.3,0,0.6-0.1,0.8-0.3c0.2-0.1,0.3-0.3,0.4-0.5c0-0.1,0.1-0.4,0.1-0.8v-0.5L471.9,762.6L471.9,762.6z"/>
		<path class="st6" d="M476.7,765.6h-1.6v-6.2h1.5v0.9c0.3-0.4,0.5-0.7,0.7-0.8s0.4-0.2,0.7-0.2c0.4,0,0.7,0.1,1.1,0.3l-0.5,1.4
			c-0.3-0.2-0.5-0.3-0.8-0.3c-0.2,0-0.4,0.1-0.6,0.2s-0.3,0.4-0.4,0.7s-0.1,1-0.1,2.1L476.7,765.6L476.7,765.6z"/>
		<path class="st6" d="M482.7,759.4v1.3h-1.1v2.5c0,0.5,0,0.8,0,0.9s0.1,0.2,0.1,0.2s0.2,0.1,0.3,0.1c0.2,0,0.4-0.1,0.7-0.2l0.1,1.3
			c-0.4,0.2-0.8,0.2-1.3,0.2c-0.3,0-0.6,0-0.8-0.1s-0.4-0.2-0.5-0.4s-0.2-0.4-0.2-0.6c0-0.2-0.1-0.6-0.1-1.2v-2.7h-0.8v-1.3h0.8
			v-1.2l1.7-1v2.2H482.7z"/>
		<path class="st6" d="M489.5,765.6h-1.6v-3.2c0-0.7,0-1.1-0.1-1.3s-0.2-0.4-0.3-0.5s-0.3-0.2-0.6-0.2c-0.3,0-0.5,0.1-0.8,0.2
			s-0.4,0.4-0.5,0.6s-0.1,0.7-0.1,1.4v2.8h-1.6v-6.2h1.5v0.9c0.5-0.7,1.2-1.1,2.1-1.1c0.4,0,0.7,0.1,1,0.2s0.5,0.3,0.7,0.5
			s0.3,0.4,0.3,0.7s0.1,0.6,0.1,1.1v4.1H489.5z"/>
		<path class="st6" d="M494.8,763.6l1.6,0.3c-0.2,0.6-0.5,1.1-1,1.4s-1,0.5-1.7,0.5c-1.1,0-1.9-0.4-2.4-1.1
			c-0.4-0.6-0.6-1.3-0.6-2.1c0-1,0.3-1.8,0.8-2.4s1.2-0.9,2-0.9c0.9,0,1.7,0.3,2.2,0.9s0.8,1.5,0.8,2.8h-4.1c0,0.5,0.1,0.9,0.4,1.1
			s0.6,0.4,0.9,0.4s0.5-0.1,0.7-0.2S494.7,763.9,494.8,763.6z M494.9,761.9c0-0.5-0.1-0.8-0.4-1.1s-0.5-0.4-0.9-0.4
			s-0.7,0.1-0.9,0.4s-0.3,0.6-0.3,1.1H494.9z"/>
		<path class="st6" d="M499.4,765.6h-1.6v-6.2h1.5v0.9c0.3-0.4,0.5-0.7,0.7-0.8s0.4-0.2,0.7-0.2c0.4,0,0.7,0.1,1.1,0.3l-0.5,1.4
			c-0.3-0.2-0.5-0.3-0.8-0.3c-0.2,0-0.4,0.1-0.6,0.2s-0.3,0.4-0.4,0.7s-0.1,1-0.1,2.1L499.4,765.6L499.4,765.6z"/>
		<path class="st6" d="M507.4,765.6h-1.6v-6.2h1.5v0.9c0.3-0.4,0.5-0.7,0.7-0.8s0.4-0.2,0.7-0.2c0.4,0,0.7,0.1,1.1,0.3l-0.5,1.4
			c-0.3-0.2-0.5-0.3-0.8-0.3c-0.2,0-0.4,0.1-0.6,0.2s-0.3,0.4-0.4,0.7s-0.1,1-0.1,2.1L507.4,765.6L507.4,765.6z"/>
		<path class="st6" d="M510.1,762.4c0-0.5,0.1-1.1,0.4-1.6s0.7-0.9,1.1-1.2s1-0.4,1.7-0.4c0.9,0,1.7,0.3,2.3,0.9s0.9,1.4,0.9,2.3
			c0,0.9-0.3,1.7-0.9,2.3s-1.4,0.9-2.3,0.9c-0.6,0-1.1-0.1-1.6-0.4s-0.9-0.6-1.2-1.1S510.1,763.1,510.1,762.4z M511.8,762.5
			c0,0.6,0.1,1.1,0.4,1.4c0.3,0.3,0.7,0.5,1.1,0.5s0.8-0.2,1.1-0.5s0.4-0.8,0.4-1.4c0-0.6-0.1-1.1-0.4-1.4s-0.7-0.5-1.1-0.5
			s-0.8,0.2-1.1,0.5S511.8,761.9,511.8,762.5z"/>
		<path class="st6" d="M517.5,762.4c0-0.5,0.1-1.1,0.4-1.6s0.7-0.9,1.1-1.2s1-0.4,1.7-0.4c0.9,0,1.7,0.3,2.3,0.9s0.9,1.4,0.9,2.3
			c0,0.9-0.3,1.7-0.9,2.3s-1.4,0.9-2.3,0.9c-0.6,0-1.1-0.1-1.6-0.4s-0.9-0.6-1.2-1.1S517.5,763.1,517.5,762.4z M519.1,762.5
			c0,0.6,0.1,1.1,0.4,1.4s0.7,0.5,1.1,0.5s0.8-0.2,1.1-0.5s0.4-0.8,0.4-1.4c0-0.6-0.1-1.1-0.4-1.4s-0.7-0.5-1.1-0.5
			s-0.8,0.2-1.1,0.5S519.1,761.9,519.1,762.5z"/>
		<path class="st6" d="M525,759.4h1.5v0.8c0.5-0.7,1.2-1,1.9-1c0.4,0,0.7,0.1,1,0.2s0.5,0.4,0.7,0.7c0.3-0.3,0.6-0.6,0.9-0.7
			s0.7-0.2,1-0.2c0.5,0,0.8,0.1,1.2,0.3s0.6,0.5,0.7,0.8c0.1,0.3,0.2,0.7,0.2,1.3v4h-1.6V762c0-0.6-0.1-1-0.2-1.2
			c-0.2-0.2-0.4-0.4-0.7-0.4c-0.2,0-0.4,0.1-0.7,0.2s-0.3,0.3-0.4,0.6s-0.1,0.7-0.1,1.3v3h-1.6v-3.4c0-0.6,0-1-0.1-1.2
			s-0.1-0.3-0.3-0.4s-0.3-0.1-0.5-0.1c-0.3,0-0.5,0.1-0.7,0.2s-0.3,0.3-0.4,0.6s-0.1,0.7-0.1,1.3v3H525V759.4z"/>
		<path class="st6" d="M538.8,763.3l1.6-0.2c0.1,0.4,0.2,0.7,0.4,0.9s0.5,0.3,0.8,0.3s0.6-0.1,0.9-0.4s0.3-0.6,0.3-1s-0.1-0.7-0.3-1
			s-0.5-0.4-0.8-0.4c-0.2,0-0.5,0-0.8,0.1l0.2-1.3c0.4,0,0.8-0.1,1-0.3s0.4-0.5,0.4-0.8s-0.1-0.5-0.3-0.7s-0.4-0.3-0.7-0.3
			s-0.5,0.1-0.7,0.3s-0.3,0.5-0.4,0.9l-1.5-0.3c0.1-0.5,0.3-0.9,0.5-1.2s0.5-0.6,0.9-0.7s0.8-0.3,1.3-0.3c0.8,0,1.5,0.3,1.9,0.8
			c0.4,0.4,0.6,0.9,0.6,1.4c0,0.8-0.4,1.4-1.2,1.8c0.5,0.1,0.9,0.3,1.2,0.7s0.4,0.8,0.4,1.3c0,0.8-0.3,1.4-0.8,1.9s-1.2,0.8-2.1,0.8
			c-0.8,0-1.4-0.2-1.9-0.7S538.8,764,538.8,763.3z"/>
		<path class="st6" d="M548.3,757c0.8,0,1.5,0.3,2,0.9c0.6,0.7,0.8,1.9,0.8,3.5s-0.3,2.8-0.8,3.5c-0.5,0.6-1.1,0.9-1.9,0.9
			c-0.8,0-1.5-0.3-2-1s-0.8-1.8-0.8-3.4c0-1.6,0.3-2.8,0.8-3.5C546.8,757.3,547.4,757,548.3,757z M548.3,758.3
			c-0.2,0-0.4,0.1-0.5,0.2s-0.3,0.4-0.4,0.7c-0.1,0.4-0.2,1.1-0.2,2.2s0.1,1.7,0.2,2.1s0.2,0.6,0.4,0.8s0.3,0.2,0.5,0.2
			s0.4-0.1,0.5-0.2s0.3-0.4,0.4-0.7c0.1-0.4,0.2-1.1,0.2-2.1s-0.1-1.7-0.2-2.1s-0.2-0.6-0.4-0.8S548.5,758.3,548.3,758.3z"/>
		<path class="st6" d="M556.4,765.6h-1.6v-6.2c-0.6,0.6-1.3,1-2.1,1.2v-1.5c0.4-0.1,0.9-0.4,1.4-0.8s0.8-0.9,1-1.4h1.3L556.4,765.6
			L556.4,765.6z"/>
	</g>
	<g class="st5">
		<path class="st6" d="M229.8,743.9v-8.5h1.7v7.1h4.3v1.4H229.8z"/>
		<path class="st6" d="M236.7,739.7c0-0.9,0.1-1.6,0.4-2.2c0.2-0.4,0.5-0.8,0.8-1.2s0.7-0.6,1.1-0.8c0.5-0.2,1.2-0.3,1.9-0.3
			c1.3,0,2.3,0.4,3,1.2s1.1,1.9,1.1,3.3c0,1.4-0.4,2.5-1.1,3.3s-1.8,1.2-3,1.2c-1.3,0-2.3-0.4-3-1.2S236.7,741,236.7,739.7z
			 M238.5,739.6c0,1,0.2,1.7,0.7,2.2s1,0.8,1.7,0.8s1.3-0.2,1.7-0.7s0.7-1.2,0.7-2.2s-0.2-1.7-0.6-2.2s-1-0.7-1.7-0.7
			s-1.3,0.2-1.7,0.7S238.5,738.6,238.5,739.6z"/>
	</g>
	<g class="st5">
		<path class="st6" d="M246.4,743.9v-8.6h2.8c1.1,0,1.7,0,2.1,0.1c0.5,0.1,0.9,0.4,1.2,0.8s0.5,1,0.5,1.7c0,0.5-0.1,1-0.3,1.3
			s-0.4,0.6-0.7,0.8s-0.6,0.3-0.9,0.4c-0.4,0.1-1,0.1-1.8,0.1h-1.1v3.2h-1.8V743.9z M248.1,736.8v2.4h0.9c0.7,0,1.1,0,1.4-0.1
			s0.4-0.2,0.5-0.4s0.2-0.4,0.2-0.7s-0.1-0.6-0.3-0.8s-0.4-0.3-0.7-0.4c-0.2,0-0.6-0.1-1.2-0.1L248.1,736.8L248.1,736.8z"/>
	</g>
	<g class="st5">
		<path class="st6" d="M259.1,743.9h-1.6v-6.2h1.5v0.9c0.3-0.4,0.5-0.7,0.7-0.8s0.4-0.2,0.7-0.2c0.4,0,0.7,0.1,1.1,0.3l-0.5,1.4
			c-0.3-0.2-0.5-0.3-0.8-0.3c-0.2,0-0.4,0.1-0.6,0.2s-0.3,0.4-0.4,0.7s-0.1,1-0.1,2.1L259.1,743.9L259.1,743.9z"/>
		<path class="st6" d="M261.8,740.7c0-0.5,0.1-1.1,0.4-1.6s0.7-0.9,1.1-1.2s1-0.4,1.7-0.4c0.9,0,1.7,0.3,2.3,0.9s0.9,1.4,0.9,2.3
			c0,0.9-0.3,1.7-0.9,2.3s-1.4,0.9-2.3,0.9c-0.6,0-1.1-0.1-1.6-0.4s-0.9-0.6-1.2-1.1S261.8,741.4,261.8,740.7z M263.5,740.8
			c0,0.6,0.1,1.1,0.4,1.4s0.7,0.5,1.1,0.5s0.8-0.2,1.1-0.5s0.4-0.8,0.4-1.4c0-0.6-0.1-1.1-0.4-1.4s-0.7-0.5-1.1-0.5
			s-0.8,0.2-1.1,0.5S263.5,740.2,263.5,740.8z"/>
		<path class="st6" d="M269.1,740.7c0-0.5,0.1-1.1,0.4-1.6s0.7-0.9,1.1-1.2s1-0.4,1.7-0.4c0.9,0,1.7,0.3,2.3,0.9s0.9,1.4,0.9,2.3
			c0,0.9-0.3,1.7-0.9,2.3s-1.4,0.9-2.3,0.9c-0.6,0-1.1-0.1-1.6-0.4s-0.9-0.6-1.2-1.1S269.1,741.4,269.1,740.7z M270.8,740.8
			c0,0.6,0.1,1.1,0.4,1.4s0.7,0.5,1.1,0.5s0.8-0.2,1.1-0.5s0.4-0.8,0.4-1.4c0-0.6-0.1-1.1-0.4-1.4s-0.7-0.5-1.1-0.5
			s-0.8,0.2-1.1,0.5S270.8,740.2,270.8,740.8z"/>
		<path class="st6" d="M276.7,737.7h1.5v0.8c0.5-0.7,1.2-1,1.9-1c0.4,0,0.7,0.1,1,0.2s0.5,0.4,0.7,0.7c0.3-0.3,0.6-0.6,0.9-0.7
			s0.7-0.2,1-0.2c0.5,0,0.8,0.1,1.2,0.3s0.6,0.5,0.7,0.8s0.2,0.7,0.2,1.3v4h-1.6v-3.6c0-0.6-0.1-1-0.2-1.2c-0.2-0.2-0.4-0.4-0.7-0.4
			c-0.2,0-0.4,0.1-0.7,0.2s-0.3,0.3-0.4,0.6s-0.1,0.7-0.1,1.3v3h-1.6v-3.4c0-0.6,0-1-0.1-1.2s-0.1-0.3-0.3-0.4s-0.3-0.1-0.5-0.1
			c-0.3,0-0.5,0.1-0.7,0.2s-0.3,0.3-0.4,0.6s-0.1,0.7-0.1,1.3v3h-1.6L276.7,737.7L276.7,737.7z"/>
	</g>
	<g class="st5">
		<path class="st6" d="M201.9,460.7v-8.6h2.6l1.6,5.9l1.5-5.9h2.6v8.6h-1.6v-6.8l-1.7,6.8h-1.7l-1.7-6.8v6.8H201.9z"/>
		<path class="st6" d="M216,460.7v-0.9c-0.2,0.3-0.5,0.6-0.9,0.8s-0.8,0.3-1.2,0.3s-0.8-0.1-1.1-0.3s-0.6-0.4-0.7-0.8
			s-0.2-0.8-0.2-1.4v-3.9h1.6v2.9c0,0.9,0,1.4,0.1,1.6s0.2,0.4,0.3,0.5s0.4,0.2,0.6,0.2c0.3,0,0.5-0.1,0.8-0.2s0.4-0.3,0.5-0.6
			s0.1-0.8,0.1-1.7v-2.6h1.6v6.2H216V460.7z"/>
		<path class="st6" d="M218.6,458.9l1.7-0.3c0.1,0.3,0.2,0.6,0.4,0.7s0.5,0.2,0.9,0.2s0.7-0.1,1-0.2c0.1-0.1,0.2-0.3,0.2-0.4
			s0-0.2-0.1-0.3c-0.1-0.1-0.3-0.2-0.6-0.2c-1.3-0.3-2.2-0.6-2.5-0.8c-0.5-0.3-0.7-0.8-0.7-1.4c0-0.5,0.2-1,0.6-1.4s1.1-0.6,2-0.6
			s1.5,0.1,1.9,0.4s0.7,0.7,0.9,1.2l-1.6,0.3c-0.1-0.2-0.2-0.4-0.4-0.6s-0.5-0.2-0.8-0.2c-0.4,0-0.7,0.1-0.9,0.2
			c-0.1,0.1-0.2,0.2-0.2,0.3c0,0.1,0.1,0.2,0.2,0.3c0.1,0.1,0.7,0.3,1.5,0.5s1.5,0.4,1.8,0.7c0.3,0.3,0.5,0.7,0.5,1.2
			c0,0.6-0.2,1.1-0.7,1.5s-1.2,0.6-2.1,0.6c-0.8,0-1.5-0.2-2-0.5S218.8,459.5,218.6,458.9z"/>
		<path class="st6" d="M225.9,453.6v-1.5h1.6v1.5H225.9z M225.9,460.7v-6.2h1.6v6.2H225.9z"/>
		<path class="st6" d="M234.6,456.3l-1.6,0.3c-0.1-0.3-0.2-0.6-0.4-0.7s-0.4-0.2-0.8-0.2c-0.4,0-0.7,0.1-1,0.4s-0.4,0.8-0.4,1.4
			c0,0.7,0.1,1.3,0.4,1.6s0.6,0.5,1,0.5c0.3,0,0.6-0.1,0.8-0.3s0.3-0.5,0.4-0.9l1.6,0.3c-0.2,0.7-0.5,1.3-1,1.7s-1.1,0.6-1.9,0.6
			c-0.9,0-1.6-0.3-2.2-0.9s-0.8-1.4-0.8-2.4s0.3-1.8,0.8-2.4s1.3-0.9,2.2-0.9c0.8,0,1.4,0.2,1.8,0.5S234.4,455.6,234.6,456.3z"/>
		<path class="st6" d="M239.2,460.7v-8.6h3.7c0.9,0,1.6,0.1,2,0.2s0.7,0.4,1,0.8s0.4,0.8,0.4,1.4s-0.2,1.2-0.6,1.6s-0.9,0.7-1.7,0.8
			c0.4,0.2,0.7,0.5,0.9,0.7s0.6,0.7,1,1.4l1,1.7h-2.1l-1.3-1.9c-0.4-0.7-0.8-1.1-0.9-1.3s-0.3-0.3-0.5-0.4s-0.5-0.1-0.9-0.1H241v3.6
			L239.2,460.7L239.2,460.7z M241,455.7h1.3c0.8,0,1.4,0,1.6-0.1s0.4-0.2,0.5-0.4s0.2-0.4,0.2-0.6c0-0.3-0.1-0.5-0.2-0.7
			s-0.4-0.3-0.7-0.3c-0.1,0-0.6,0-1.3,0H241V455.7z"/>
		<path class="st6" d="M247.5,457.5c0-0.5,0.1-1.1,0.4-1.6s0.7-0.9,1.1-1.2s1-0.4,1.7-0.4c0.9,0,1.7,0.3,2.3,0.9s0.9,1.4,0.9,2.3
			s-0.3,1.7-0.9,2.3s-1.4,0.9-2.3,0.9c-0.6,0-1.1-0.1-1.6-0.4s-0.9-0.6-1.2-1.1S247.5,458.2,247.5,457.5z M249.2,457.6
			c0,0.6,0.1,1.1,0.4,1.4s0.7,0.5,1.1,0.5s0.8-0.2,1.1-0.5s0.4-0.8,0.4-1.4s-0.1-1.1-0.4-1.4s-0.7-0.5-1.1-0.5s-0.8,0.2-1.1,0.5
			S249.2,457,249.2,457.6z"/>
		<path class="st6" d="M254.8,457.5c0-0.5,0.1-1.1,0.4-1.6s0.7-0.9,1.1-1.2s1-0.4,1.7-0.4c0.9,0,1.7,0.3,2.3,0.9s0.9,1.4,0.9,2.3
			s-0.3,1.7-0.9,2.3s-1.4,0.9-2.3,0.9c-0.6,0-1.1-0.1-1.6-0.4s-0.9-0.6-1.2-1.1S254.8,458.2,254.8,457.5z M256.5,457.6
			c0,0.6,0.1,1.1,0.4,1.4s0.7,0.5,1.1,0.5s0.8-0.2,1.1-0.5s0.4-0.8,0.4-1.4s-0.1-1.1-0.4-1.4s-0.7-0.5-1.1-0.5s-0.8,0.2-1.1,0.5
			S256.5,457,256.5,457.6z"/>
		<path class="st6" d="M262.4,454.5h1.5v0.8c0.5-0.7,1.2-1,1.9-1c0.4,0,0.7,0.1,1,0.2s0.5,0.4,0.7,0.7c0.3-0.3,0.6-0.6,0.9-0.7
			s0.7-0.2,1-0.2c0.5,0,0.8,0.1,1.2,0.3s0.6,0.5,0.7,0.8s0.2,0.7,0.2,1.3v4h-1.6v-3.6c0-0.6-0.1-1-0.2-1.2c-0.2-0.2-0.4-0.4-0.7-0.4
			c-0.2,0-0.4,0.1-0.7,0.2s-0.3,0.3-0.4,0.6s-0.1,0.7-0.1,1.3v3h-1.6v-3.4c0-0.6,0-1-0.1-1.2s-0.1-0.3-0.3-0.4s-0.3-0.1-0.5-0.1
			c-0.3,0-0.5,0.1-0.7,0.2s-0.3,0.3-0.4,0.6s-0.1,0.7-0.1,1.3v3h-1.6L262.4,454.5L262.4,454.5z"/>
	</g>
	<g class="st5">
		<path class="st6" d="M149.7,188.1v-8.6h2.8c1.1,0,1.7,0,2.1,0.1c0.5,0.1,0.9,0.4,1.2,0.8s0.5,1,0.5,1.7c0,0.5-0.1,1-0.3,1.3
			s-0.4,0.6-0.7,0.8s-0.6,0.3-0.9,0.4c-0.4,0.1-1,0.1-1.8,0.1h-1.1v3.2h-1.8V188.1z M151.5,180.9v2.4h0.9c0.7,0,1.1,0,1.4-0.1
			s0.4-0.2,0.5-0.4s0.2-0.4,0.2-0.7s-0.1-0.6-0.3-0.8s-0.4-0.3-0.7-0.4c-0.2,0-0.6-0.1-1.2-0.1h-0.8L151.5,180.9L151.5,180.9z"/>
		<path class="st6" d="M159,183.7l-1.5-0.3c0.2-0.6,0.5-1,0.9-1.3s1-0.4,1.8-0.4c0.7,0,1.3,0.1,1.6,0.3s0.6,0.4,0.8,0.7
			s0.2,0.8,0.2,1.5v1.9c0,0.5,0,1,0.1,1.2s0.2,0.5,0.3,0.8h-1.6c0-0.1-0.1-0.3-0.2-0.5c0-0.1,0-0.2-0.1-0.2
			c-0.3,0.3-0.6,0.5-0.9,0.6s-0.7,0.2-1,0.2c-0.6,0-1.1-0.2-1.5-0.5s-0.6-0.8-0.6-1.3c0-0.4,0.1-0.7,0.3-0.9s0.4-0.5,0.7-0.6
			s0.7-0.3,1.3-0.4c0.8-0.1,1.3-0.3,1.6-0.4v-0.2c0-0.3-0.1-0.5-0.2-0.7s-0.5-0.2-0.9-0.2c-0.3,0-0.5,0.1-0.7,0.2
			S159.1,183.4,159,183.7z M161.2,185.1c-0.2,0.1-0.5,0.2-1,0.3s-0.8,0.2-0.9,0.3c-0.2,0.2-0.3,0.3-0.3,0.6c0,0.2,0.1,0.4,0.3,0.6
			s0.4,0.3,0.7,0.3s0.6-0.1,0.8-0.3c0.2-0.1,0.3-0.3,0.4-0.5c0-0.1,0.1-0.4,0.1-0.8v-0.5L161.2,185.1L161.2,185.1z"/>
		<path class="st6" d="M166,188.1h-1.6v-6.2h1.5v0.9c0.3-0.4,0.5-0.7,0.7-0.8s0.4-0.2,0.7-0.2c0.4,0,0.7,0.1,1.1,0.3l-0.5,1.4
			c-0.3-0.2-0.5-0.3-0.8-0.3c-0.2,0-0.4,0.1-0.6,0.2s-0.3,0.4-0.4,0.7s-0.1,1-0.1,2.1L166,188.1L166,188.1z"/>
		<path class="st6" d="M171.9,181.8v1.3h-1.1v2.5c0,0.5,0,0.8,0,0.9s0.1,0.2,0.1,0.2s0.2,0.1,0.3,0.1c0.2,0,0.4-0.1,0.7-0.2l0.1,1.3
			c-0.4,0.2-0.8,0.2-1.3,0.2c-0.3,0-0.6,0-0.8-0.1s-0.4-0.2-0.5-0.4s-0.2-0.4-0.2-0.6c0-0.2-0.1-0.6-0.1-1.2v-2.7h-0.8v-1.3h0.8
			v-1.2l1.7-1v2.2H171.9z"/>
		<path class="st6" d="M178.7,188.1h-1.6v-3.2c0-0.7,0-1.1-0.1-1.3s-0.2-0.4-0.3-0.5s-0.3-0.2-0.6-0.2s-0.5,0.1-0.8,0.2
			s-0.4,0.4-0.5,0.6s-0.1,0.7-0.1,1.4v2.8h-1.6v-6.2h1.5v0.9c0.5-0.7,1.2-1.1,2.1-1.1c0.4,0,0.7,0.1,1,0.2s0.5,0.3,0.7,0.5
			s0.3,0.4,0.3,0.7s0.1,0.6,0.1,1.1L178.7,188.1L178.7,188.1z"/>
		<path class="st6" d="M184,186.1l1.6,0.3c-0.2,0.6-0.5,1.1-1,1.4s-1,0.5-1.7,0.5c-1.1,0-1.9-0.4-2.4-1.1c-0.4-0.6-0.6-1.3-0.6-2.1
			c0-1,0.3-1.8,0.8-2.4s1.2-0.9,2-0.9c0.9,0,1.7,0.3,2.2,0.9s0.8,1.5,0.8,2.8h-4.1c0,0.5,0.1,0.9,0.4,1.1s0.6,0.4,0.9,0.4
			c0.3,0,0.5-0.1,0.7-0.2S183.9,186.4,184,186.1z M184.1,184.4c0-0.5-0.1-0.8-0.4-1.1s-0.5-0.4-0.9-0.4s-0.7,0.1-0.9,0.4
			s-0.3,0.6-0.3,1.1H184.1z"/>
		<path class="st6" d="M188.6,188.1H187v-6.2h1.5v0.9c0.3-0.4,0.5-0.7,0.7-0.8s0.4-0.2,0.7-0.2c0.4,0,0.7,0.1,1.1,0.3l-0.5,1.4
			c-0.3-0.2-0.5-0.3-0.8-0.3c-0.2,0-0.4,0.1-0.6,0.2s-0.3,0.4-0.4,0.7s-0.1,1-0.1,2.1L188.6,188.1L188.6,188.1z"/>
		<path class="st6" d="M196.6,188.1H195v-6.2h1.5v0.9c0.3-0.4,0.5-0.7,0.7-0.8s0.4-0.2,0.7-0.2c0.4,0,0.7,0.1,1.1,0.3l-0.5,1.4
			c-0.3-0.2-0.5-0.3-0.8-0.3c-0.2,0-0.4,0.1-0.6,0.2s-0.3,0.4-0.4,0.7s-0.1,1-0.1,2.1L196.6,188.1L196.6,188.1z"/>
		<path class="st6" d="M199.4,184.9c0-0.5,0.1-1.1,0.4-1.6s0.7-0.9,1.1-1.2s1-0.4,1.7-0.4c0.9,0,1.7,0.3,2.3,0.9s0.9,1.4,0.9,2.3
			c0,0.9-0.3,1.7-0.9,2.3s-1.4,0.9-2.3,0.9c-0.6,0-1.1-0.1-1.6-0.4s-0.9-0.6-1.2-1.1S199.4,185.6,199.4,184.9z M201,184.9
			c0,0.6,0.1,1.1,0.4,1.4s0.7,0.5,1.1,0.5s0.8-0.2,1.1-0.5s0.4-0.8,0.4-1.4c0-0.6-0.1-1.1-0.4-1.4s-0.7-0.5-1.1-0.5
			s-0.8,0.2-1.1,0.5S201,184.3,201,184.9z"/>
		<path class="st6" d="M206.7,184.9c0-0.5,0.1-1.1,0.4-1.6s0.7-0.9,1.1-1.2s1-0.4,1.7-0.4c0.9,0,1.7,0.3,2.3,0.9s0.9,1.4,0.9,2.3
			c0,0.9-0.3,1.7-0.9,2.3s-1.4,0.9-2.3,0.9c-0.6,0-1.1-0.1-1.6-0.4s-0.9-0.6-1.2-1.1S206.7,185.6,206.7,184.9z M208.4,184.9
			c0,0.6,0.1,1.1,0.4,1.4s0.7,0.5,1.1,0.5s0.8-0.2,1.1-0.5s0.4-0.8,0.4-1.4c0-0.6-0.1-1.1-0.4-1.4s-0.7-0.5-1.1-0.5
			s-0.8,0.2-1.1,0.5S208.4,184.3,208.4,184.9z"/>
		<path class="st6" d="M214.3,181.8h1.5v0.8c0.5-0.7,1.2-1,1.9-1c0.4,0,0.7,0.1,1,0.2s0.5,0.4,0.7,0.7c0.3-0.3,0.6-0.6,0.9-0.7
			s0.7-0.2,1-0.2c0.5,0,0.8,0.1,1.2,0.3s0.6,0.5,0.7,0.8c0.1,0.3,0.2,0.7,0.2,1.3v4h-1.6v-3.6c0-0.6-0.1-1-0.2-1.2
			c-0.2-0.2-0.4-0.4-0.7-0.4c-0.2,0-0.4,0.1-0.7,0.2s-0.3,0.3-0.4,0.6s-0.1,0.7-0.1,1.3v3H218v-3.4c0-0.6,0-1-0.1-1.2
			s-0.1-0.3-0.3-0.4s-0.3-0.1-0.5-0.1c-0.3,0-0.5,0.1-0.7,0.2s-0.3,0.3-0.4,0.6s-0.1,0.7-0.1,1.3v3h-1.6L214.3,181.8L214.3,181.8z"
			/>
		<path class="st6" d="M228,185.8l1.6-0.2c0.1,0.4,0.2,0.7,0.4,0.9s0.5,0.3,0.8,0.3s0.6-0.1,0.9-0.4s0.3-0.6,0.3-1s-0.1-0.7-0.3-1
			s-0.5-0.4-0.8-0.4c-0.2,0-0.5,0-0.8,0.1l0.2-1.3c0.4,0,0.8-0.1,1-0.3s0.4-0.5,0.4-0.8s-0.1-0.5-0.3-0.7s-0.4-0.3-0.7-0.3
			s-0.5,0.1-0.7,0.3s-0.3,0.5-0.4,0.9l-1.5-0.3c0.1-0.5,0.3-0.9,0.5-1.2s0.5-0.6,0.9-0.7s0.8-0.3,1.3-0.3c0.8,0,1.5,0.3,1.9,0.8
			c0.4,0.4,0.6,0.9,0.6,1.4c0,0.8-0.4,1.4-1.2,1.8c0.5,0.1,0.9,0.3,1.2,0.7s0.4,0.8,0.4,1.3c0,0.8-0.3,1.4-0.8,1.9s-1.2,0.8-2.1,0.8
			c-0.8,0-1.4-0.2-1.9-0.7S228.1,186.5,228,185.8z"/>
		<path class="st6" d="M237.5,179.4c0.8,0,1.5,0.3,2,0.9c0.6,0.7,0.8,1.9,0.8,3.5s-0.3,2.8-0.8,3.5c-0.5,0.6-1.1,0.9-1.9,0.9
			c-0.8,0-1.5-0.3-2-1s-0.8-1.8-0.8-3.4c0-1.6,0.3-2.8,0.8-3.5C236,179.7,236.7,179.4,237.5,179.4z M237.5,180.8
			c-0.2,0-0.4,0.1-0.5,0.2s-0.3,0.4-0.4,0.7c-0.1,0.4-0.2,1.1-0.2,2.2s0.1,1.7,0.2,2.1s0.2,0.6,0.4,0.8s0.3,0.2,0.5,0.2
			s0.4-0.1,0.5-0.2s0.3-0.4,0.4-0.7c0.1-0.4,0.2-1.1,0.2-2.1s-0.1-1.7-0.2-2.1s-0.2-0.6-0.4-0.8S237.7,180.8,237.5,180.8z"/>
		<path class="st6" d="M244.6,188.1v-1.7h-3.5V185l3.7-5.5h1.4v5.4h1.1v1.4h-1.1v1.7h-1.6L244.6,188.1L244.6,188.1z M244.6,184.9
			V182l-2,2.9H244.6z"/>
	</g>
	<g class="st5">
		<path class="st6" d="M692.7,274.8v-8.6h2.8c1.1,0,1.7,0,2.1,0.1c0.5,0.1,0.9,0.4,1.2,0.8s0.5,1,0.5,1.7c0,0.5-0.1,1-0.3,1.3
			s-0.4,0.6-0.7,0.8s-0.6,0.3-0.9,0.4c-0.4,0.1-1,0.1-1.8,0.1h-1.1v3.2h-1.8V274.8z M694.4,267.7v2.4h0.9c0.7,0,1.1,0,1.4-0.1
			s0.4-0.2,0.5-0.4s0.2-0.4,0.2-0.7c0-0.3-0.1-0.6-0.3-0.8s-0.4-0.3-0.7-0.4c-0.2,0-0.6-0.1-1.2-0.1h-0.8L694.4,267.7L694.4,267.7z"
			/>
		<path class="st6" d="M701.9,270.5l-1.5-0.3c0.2-0.6,0.5-1,0.9-1.3s1-0.4,1.8-0.4c0.7,0,1.3,0.1,1.6,0.3s0.6,0.4,0.8,0.7
			s0.2,0.8,0.2,1.5v1.9c0,0.5,0,1,0.1,1.2s0.2,0.5,0.3,0.8h-1.6c0-0.1-0.1-0.3-0.2-0.5c0-0.1,0-0.2-0.1-0.2
			c-0.3,0.3-0.6,0.5-0.9,0.6s-0.7,0.2-1,0.2c-0.6,0-1.1-0.2-1.5-0.5s-0.6-0.8-0.6-1.3c0-0.4,0.1-0.7,0.3-0.9s0.4-0.5,0.7-0.6
			s0.7-0.3,1.3-0.4c0.8-0.1,1.3-0.3,1.6-0.4v-0.2c0-0.3-0.1-0.5-0.2-0.7s-0.5-0.2-0.9-0.2c-0.3,0-0.5,0.1-0.7,0.2
			S702,270.2,701.9,270.5z M704.1,271.8c-0.2,0.1-0.5,0.2-1,0.3s-0.8,0.2-0.9,0.3c-0.2,0.2-0.3,0.3-0.3,0.6c0,0.2,0.1,0.4,0.3,0.6
			s0.4,0.3,0.7,0.3s0.6-0.1,0.8-0.3c0.2-0.1,0.3-0.3,0.4-0.5c0-0.1,0.1-0.4,0.1-0.8L704.1,271.8L704.1,271.8z"/>
		<path class="st6" d="M709,274.8h-1.6v-6.2h1.5v0.9c0.3-0.4,0.5-0.7,0.7-0.8s0.4-0.2,0.7-0.2c0.4,0,0.7,0.1,1.1,0.3l-0.5,1.4
			c-0.3-0.2-0.5-0.3-0.8-0.3c-0.2,0-0.4,0.1-0.6,0.2s-0.3,0.4-0.4,0.7s-0.1,1-0.1,2.1L709,274.8L709,274.8z"/>
		<path class="st6" d="M714.9,268.6v1.3h-1.1v2.5c0,0.5,0,0.8,0,0.9s0.1,0.2,0.1,0.2s0.2,0.1,0.3,0.1c0.2,0,0.4-0.1,0.7-0.2l0.1,1.3
			c-0.4,0.2-0.8,0.2-1.3,0.2c-0.3,0-0.6,0-0.8-0.1s-0.4-0.2-0.5-0.4s-0.2-0.4-0.2-0.6s-0.1-0.6-0.1-1.2v-2.7h-0.8v-1.3h0.8v-1.2
			l1.7-1v2.2L714.9,268.6L714.9,268.6z"/>
		<path class="st6" d="M721.7,274.8h-1.6v-3.2c0-0.7,0-1.1-0.1-1.3s-0.2-0.4-0.3-0.5s-0.3-0.2-0.6-0.2s-0.5,0.1-0.8,0.2
			s-0.4,0.4-0.5,0.6s-0.1,0.7-0.1,1.4v2.8H716v-6.2h1.5v0.9c0.5-0.7,1.2-1.1,2.1-1.1c0.4,0,0.7,0.1,1,0.2s0.5,0.3,0.7,0.5
			s0.3,0.4,0.3,0.7s0.1,0.6,0.1,1.1L721.7,274.8L721.7,274.8z"/>
		<path class="st6" d="M727,272.8l1.6,0.3c-0.2,0.6-0.5,1.1-1,1.4s-1,0.5-1.7,0.5c-1.1,0-1.9-0.4-2.4-1.1c-0.4-0.6-0.6-1.3-0.6-2.1
			c0-1,0.3-1.8,0.8-2.4s1.2-0.9,2-0.9c0.9,0,1.7,0.3,2.2,0.9s0.8,1.5,0.8,2.8h-4.1c0,0.5,0.1,0.9,0.4,1.1s0.6,0.4,0.9,0.4
			c0.3,0,0.5-0.1,0.7-0.2S726.9,273.1,727,272.8z M727.1,271.2c0-0.5-0.1-0.8-0.4-1.1s-0.5-0.4-0.9-0.4s-0.7,0.1-0.9,0.4
			s-0.3,0.6-0.3,1.1H727.1z"/>
		<path class="st6" d="M731.6,274.8H730v-6.2h1.5v0.9c0.3-0.4,0.5-0.7,0.7-0.8s0.4-0.2,0.7-0.2c0.4,0,0.7,0.1,1.1,0.3l-0.5,1.4
			c-0.3-0.2-0.5-0.3-0.8-0.3c-0.2,0-0.4,0.1-0.6,0.2s-0.3,0.4-0.4,0.7s-0.1,1-0.1,2.1L731.6,274.8L731.6,274.8z"/>
		<path class="st6" d="M739.6,274.8H738v-6.2h1.5v0.9c0.3-0.4,0.5-0.7,0.7-0.8s0.4-0.2,0.7-0.2c0.4,0,0.7,0.1,1.1,0.3l-0.5,1.4
			c-0.3-0.2-0.5-0.3-0.8-0.3c-0.2,0-0.4,0.1-0.6,0.2s-0.3,0.4-0.4,0.7s-0.1,1-0.1,2.1L739.6,274.8L739.6,274.8z"/>
		<path class="st6" d="M742.3,271.6c0-0.5,0.1-1.1,0.4-1.6s0.7-0.9,1.1-1.2s1-0.4,1.7-0.4c0.9,0,1.7,0.3,2.3,0.9s0.9,1.4,0.9,2.3
			s-0.3,1.7-0.9,2.3s-1.4,0.9-2.3,0.9c-0.6,0-1.1-0.1-1.6-0.4s-0.9-0.6-1.2-1.1S742.3,272.3,742.3,271.6z M744,271.7
			c0,0.6,0.1,1.1,0.4,1.4s0.7,0.5,1.1,0.5s0.8-0.2,1.1-0.5s0.4-0.8,0.4-1.4s-0.1-1.1-0.4-1.4s-0.7-0.5-1.1-0.5s-0.8,0.2-1.1,0.5
			S744,271.1,744,271.7z"/>
		<path class="st6" d="M749.7,271.6c0-0.5,0.1-1.1,0.4-1.6s0.7-0.9,1.1-1.2s1-0.4,1.7-0.4c0.9,0,1.7,0.3,2.3,0.9s0.9,1.4,0.9,2.3
			s-0.3,1.7-0.9,2.3s-1.4,0.9-2.3,0.9c-0.6,0-1.1-0.1-1.6-0.4s-0.9-0.6-1.2-1.1S749.7,272.3,749.7,271.6z M751.4,271.7
			c0,0.6,0.1,1.1,0.4,1.4s0.7,0.5,1.1,0.5s0.8-0.2,1.1-0.5s0.4-0.8,0.4-1.4s-0.1-1.1-0.4-1.4s-0.7-0.5-1.1-0.5s-0.8,0.2-1.1,0.5
			S751.4,271.1,751.4,271.7z"/>
		<path class="st6" d="M757.3,268.6h1.5v0.8c0.5-0.7,1.2-1,1.9-1c0.4,0,0.7,0.1,1,0.2s0.5,0.4,0.7,0.7c0.3-0.3,0.6-0.6,0.9-0.7
			s0.7-0.2,1-0.2c0.5,0,0.8,0.1,1.2,0.3s0.6,0.5,0.7,0.8c0.1,0.3,0.2,0.7,0.2,1.3v4h-1.6v-3.6c0-0.6-0.1-1-0.2-1.2
			c-0.2-0.2-0.4-0.4-0.7-0.4c-0.2,0-0.4,0.1-0.7,0.2s-0.3,0.3-0.4,0.6s-0.1,0.7-0.1,1.3v3H761v-3.4c0-0.6,0-1-0.1-1.2
			s-0.1-0.3-0.3-0.4s-0.3-0.1-0.5-0.1c-0.3,0-0.5,0.1-0.7,0.2s-0.3,0.3-0.4,0.6s-0.1,0.7-0.1,1.3v3h-1.6L757.3,268.6L757.3,268.6z"
			/>
		<path class="st6" d="M771,272.5l1.6-0.2c0.1,0.4,0.2,0.7,0.4,0.9s0.5,0.3,0.8,0.3s0.6-0.1,0.9-0.4s0.3-0.6,0.3-1s-0.1-0.7-0.3-1
			s-0.5-0.4-0.8-0.4c-0.2,0-0.5,0-0.8,0.1l0.2-1.3c0.4,0,0.8-0.1,1-0.3s0.4-0.5,0.4-0.8s-0.1-0.5-0.3-0.7s-0.4-0.3-0.7-0.3
			s-0.5,0.1-0.7,0.3s-0.3,0.5-0.4,0.9l-1.5-0.3c0.1-0.5,0.3-0.9,0.5-1.2s0.5-0.6,0.9-0.7s0.8-0.3,1.3-0.3c0.8,0,1.5,0.3,1.9,0.8
			c0.4,0.4,0.6,0.9,0.6,1.4c0,0.8-0.4,1.4-1.2,1.8c0.5,0.1,0.9,0.3,1.2,0.7s0.4,0.8,0.4,1.3c0,0.8-0.3,1.4-0.8,1.9s-1.2,0.8-2.1,0.8
			c-0.8,0-1.4-0.2-1.9-0.7S771.1,273.2,771,272.5z"/>
		<path class="st6" d="M781.9,274.8h-1.6v-6.2c-0.6,0.6-1.3,1-2.1,1.2v-1.5c0.4-0.1,0.9-0.4,1.4-0.8s0.8-0.9,1-1.4h1.3L781.9,274.8
			L781.9,274.8z"/>
		<path class="st6" d="M787.2,266.2c0.8,0,1.5,0.3,2,0.9c0.6,0.7,0.8,1.9,0.8,3.5s-0.3,2.8-0.8,3.5c-0.5,0.6-1.1,0.9-1.9,0.9
			c-0.8,0-1.5-0.3-2-1s-0.8-1.8-0.8-3.4s0.3-2.8,0.8-3.5C785.7,266.5,786.3,266.2,787.2,266.2z M787.2,267.5c-0.2,0-0.4,0.1-0.5,0.2
			s-0.3,0.4-0.4,0.7c-0.1,0.4-0.2,1.1-0.2,2.2s0.1,1.7,0.2,2.1s0.2,0.6,0.4,0.8s0.3,0.2,0.5,0.2s0.4-0.1,0.5-0.2s0.3-0.4,0.4-0.7
			c0.1-0.4,0.2-1.1,0.2-2.1s-0.1-1.7-0.2-2.1s-0.2-0.6-0.4-0.8S787.4,267.5,787.2,267.5z"/>
	</g>
	<g class="st5">
		<path class="st6" d="M865.5,274.8v-8.6h2.8c1.1,0,1.7,0,2.1,0.1c0.5,0.1,0.9,0.4,1.2,0.8s0.5,1,0.5,1.7c0,0.5-0.1,1-0.3,1.3
			s-0.4,0.6-0.7,0.8s-0.6,0.3-0.9,0.4c-0.4,0.1-1,0.1-1.8,0.1h-1.1v3.2h-1.8V274.8z M867.2,267.7v2.4h0.9c0.7,0,1.1,0,1.4-0.1
			s0.4-0.2,0.5-0.4s0.2-0.4,0.2-0.7c0-0.3-0.1-0.6-0.3-0.8s-0.4-0.3-0.7-0.4c-0.2,0-0.6-0.1-1.2-0.1h-0.8L867.2,267.7L867.2,267.7z"
			/>
		<path class="st6" d="M874.7,270.5l-1.5-0.3c0.2-0.6,0.5-1,0.9-1.3s1-0.4,1.8-0.4c0.7,0,1.3,0.1,1.6,0.3s0.6,0.4,0.8,0.7
			s0.2,0.8,0.2,1.5v1.9c0,0.5,0,1,0.1,1.2s0.2,0.5,0.3,0.8h-1.6c0-0.1-0.1-0.3-0.2-0.5c0-0.1,0-0.2-0.1-0.2
			c-0.3,0.3-0.6,0.5-0.9,0.6s-0.7,0.2-1,0.2c-0.6,0-1.1-0.2-1.5-0.5s-0.6-0.8-0.6-1.3c0-0.4,0.1-0.7,0.3-0.9s0.4-0.5,0.7-0.6
			s0.7-0.3,1.3-0.4c0.8-0.1,1.3-0.3,1.6-0.4v-0.2c0-0.3-0.1-0.5-0.2-0.7s-0.5-0.2-0.9-0.2c-0.3,0-0.5,0.1-0.7,0.2
			S874.8,270.2,874.7,270.5z M876.9,271.8c-0.2,0.1-0.5,0.2-1,0.3s-0.8,0.2-0.9,0.3c-0.2,0.2-0.3,0.3-0.3,0.6c0,0.2,0.1,0.4,0.3,0.6
			s0.4,0.3,0.7,0.3s0.6-0.1,0.8-0.3c0.2-0.1,0.3-0.3,0.4-0.5c0-0.1,0.1-0.4,0.1-0.8L876.9,271.8L876.9,271.8z"/>
		<path class="st6" d="M881.8,274.8h-1.6v-6.2h1.5v0.9c0.3-0.4,0.5-0.7,0.7-0.8s0.4-0.2,0.7-0.2c0.4,0,0.7,0.1,1.1,0.3l-0.5,1.4
			c-0.3-0.2-0.5-0.3-0.8-0.3c-0.2,0-0.4,0.1-0.6,0.2s-0.3,0.4-0.4,0.7s-0.1,1-0.1,2.1L881.8,274.8L881.8,274.8z"/>
		<path class="st6" d="M887.7,268.6v1.3h-1.1v2.5c0,0.5,0,0.8,0,0.9s0.1,0.2,0.1,0.2s0.2,0.1,0.3,0.1c0.2,0,0.4-0.1,0.7-0.2l0.1,1.3
			c-0.4,0.2-0.8,0.2-1.3,0.2c-0.3,0-0.6,0-0.8-0.1s-0.4-0.2-0.5-0.4s-0.2-0.4-0.2-0.6s-0.1-0.6-0.1-1.2v-2.7h-0.8v-1.3h0.8v-1.2
			l1.7-1v2.2L887.7,268.6L887.7,268.6z"/>
		<path class="st6" d="M894.5,274.8h-1.6v-3.2c0-0.7,0-1.1-0.1-1.3s-0.2-0.4-0.3-0.5s-0.3-0.2-0.6-0.2s-0.5,0.1-0.8,0.2
			s-0.4,0.4-0.5,0.6s-0.1,0.7-0.1,1.4v2.8h-1.6v-6.2h1.5v0.9c0.5-0.7,1.2-1.1,2.1-1.1c0.4,0,0.7,0.1,1,0.2s0.5,0.3,0.7,0.5
			s0.3,0.4,0.3,0.7s0.1,0.6,0.1,1.1v4.1H894.5z"/>
		<path class="st6" d="M899.8,272.8l1.6,0.3c-0.2,0.6-0.5,1.1-1,1.4s-1,0.5-1.7,0.5c-1.1,0-1.9-0.4-2.4-1.1
			c-0.4-0.6-0.6-1.3-0.6-2.1c0-1,0.3-1.8,0.8-2.4s1.2-0.9,2-0.9c0.9,0,1.7,0.3,2.2,0.9s0.8,1.5,0.8,2.8h-4.1c0,0.5,0.1,0.9,0.4,1.1
			s0.6,0.4,0.9,0.4c0.3,0,0.5-0.1,0.7-0.2S899.7,273.1,899.8,272.8z M899.9,271.2c0-0.5-0.1-0.8-0.4-1.1s-0.5-0.4-0.9-0.4
			s-0.7,0.1-0.9,0.4s-0.3,0.6-0.3,1.1H899.9z"/>
		<path class="st6" d="M904.4,274.8h-1.6v-6.2h1.5v0.9c0.3-0.4,0.5-0.7,0.7-0.8s0.4-0.2,0.7-0.2c0.4,0,0.7,0.1,1.1,0.3l-0.5,1.4
			c-0.3-0.2-0.5-0.3-0.8-0.3c-0.2,0-0.4,0.1-0.6,0.2s-0.3,0.4-0.4,0.7s-0.1,1-0.1,2.1L904.4,274.8L904.4,274.8z"/>
		<path class="st6" d="M912.4,274.8h-1.6v-6.2h1.5v0.9c0.3-0.4,0.5-0.7,0.7-0.8s0.4-0.2,0.7-0.2c0.4,0,0.7,0.1,1.1,0.3l-0.5,1.4
			c-0.3-0.2-0.5-0.3-0.8-0.3c-0.2,0-0.4,0.1-0.6,0.2s-0.3,0.4-0.4,0.7s-0.1,1-0.1,2.1L912.4,274.8L912.4,274.8z"/>
		<path class="st6" d="M915.1,271.6c0-0.5,0.1-1.1,0.4-1.6s0.7-0.9,1.1-1.2s1-0.4,1.7-0.4c0.9,0,1.7,0.3,2.3,0.9s0.9,1.4,0.9,2.3
			s-0.3,1.7-0.9,2.3s-1.4,0.9-2.3,0.9c-0.6,0-1.1-0.1-1.6-0.4s-0.9-0.6-1.2-1.1S915.1,272.3,915.1,271.6z M916.8,271.7
			c0,0.6,0.1,1.1,0.4,1.4s0.7,0.5,1.1,0.5s0.8-0.2,1.1-0.5s0.4-0.8,0.4-1.4s-0.1-1.1-0.4-1.4s-0.7-0.5-1.1-0.5s-0.8,0.2-1.1,0.5
			S916.8,271.1,916.8,271.7z"/>
		<path class="st6" d="M922.5,271.6c0-0.5,0.1-1.1,0.4-1.6s0.7-0.9,1.1-1.2s1-0.4,1.7-0.4c0.9,0,1.7,0.3,2.3,0.9s0.9,1.4,0.9,2.3
			s-0.3,1.7-0.9,2.3s-1.4,0.9-2.3,0.9c-0.6,0-1.1-0.1-1.6-0.4s-0.9-0.6-1.2-1.1S922.5,272.3,922.5,271.6z M924.2,271.7
			c0,0.6,0.1,1.1,0.4,1.4s0.7,0.5,1.1,0.5s0.8-0.2,1.1-0.5s0.4-0.8,0.4-1.4s-0.1-1.1-0.4-1.4s-0.7-0.5-1.1-0.5s-0.8,0.2-1.1,0.5
			S924.2,271.1,924.2,271.7z"/>
		<path class="st6" d="M930.1,268.6h1.5v0.8c0.5-0.7,1.2-1,1.9-1c0.4,0,0.7,0.1,1,0.2s0.5,0.4,0.7,0.7c0.3-0.3,0.6-0.6,0.9-0.7
			s0.7-0.2,1-0.2c0.5,0,0.8,0.1,1.2,0.3s0.6,0.5,0.7,0.8c0.1,0.3,0.2,0.7,0.2,1.3v4h-1.6v-3.6c0-0.6-0.1-1-0.2-1.2
			c-0.2-0.2-0.4-0.4-0.7-0.4c-0.2,0-0.4,0.1-0.7,0.2s-0.3,0.3-0.4,0.6s-0.1,0.7-0.1,1.3v3h-1.6v-3.4c0-0.6,0-1-0.1-1.2
			s-0.1-0.3-0.3-0.4s-0.3-0.1-0.5-0.1c-0.3,0-0.5,0.1-0.7,0.2s-0.3,0.3-0.4,0.6s-0.1,0.7-0.1,1.3v3h-1.6v-6.1L930.1,268.6
			L930.1,268.6z"/>
		<path class="st6" d="M943.8,272.5l1.6-0.2c0.1,0.4,0.2,0.7,0.4,0.9s0.5,0.3,0.8,0.3s0.6-0.1,0.9-0.4s0.3-0.6,0.3-1s-0.1-0.7-0.3-1
			s-0.5-0.4-0.8-0.4c-0.2,0-0.5,0-0.8,0.1l0.2-1.3c0.4,0,0.8-0.1,1-0.3s0.4-0.5,0.4-0.8s-0.1-0.5-0.3-0.7s-0.4-0.3-0.7-0.3
			s-0.5,0.1-0.7,0.3s-0.3,0.5-0.4,0.9l-1.5-0.3c0.1-0.5,0.3-0.9,0.5-1.2s0.5-0.6,0.9-0.7s0.8-0.3,1.3-0.3c0.8,0,1.5,0.3,1.9,0.8
			c0.4,0.4,0.6,0.9,0.6,1.4c0,0.8-0.4,1.4-1.2,1.8c0.5,0.1,0.9,0.3,1.2,0.7s0.4,0.8,0.4,1.3c0,0.8-0.3,1.4-0.8,1.9s-1.2,0.8-2.1,0.8
			c-0.8,0-1.4-0.2-1.9-0.7S943.9,273.2,943.8,272.5z"/>
	</g>
	<g class="st5">
		<path class="st6" d="M954.7,274.8h-1.6v-6.2c-0.6,0.6-1.3,1-2.1,1.2v-1.5c0.4-0.1,0.9-0.4,1.4-0.8s0.8-0.9,1-1.4h1.3L954.7,274.8
			L954.7,274.8z"/>
	</g>
	<g class="st5">
		<path class="st6" d="M960.7,274.8h-1.6v-6.2c-0.6,0.6-1.3,1-2.1,1.2v-1.5c0.4-0.1,0.9-0.4,1.4-0.8s0.8-0.9,1-1.4h1.3L960.7,274.8
			L960.7,274.8z"/>
	</g>
	<g class="st5">
		<path class="st6" d="M1051.9,274.8v-8.6h2.8c1.1,0,1.7,0,2.1,0.1c0.5,0.1,0.9,0.4,1.2,0.8s0.5,1,0.5,1.7c0,0.5-0.1,1-0.3,1.3
			s-0.4,0.6-0.7,0.8s-0.6,0.3-0.9,0.4c-0.4,0.1-1,0.1-1.8,0.1h-1.1v3.2h-1.8L1051.9,274.8L1051.9,274.8z M1053.6,267.7v2.4h0.9
			c0.7,0,1.1,0,1.4-0.1s0.4-0.2,0.5-0.4s0.2-0.4,0.2-0.7c0-0.3-0.1-0.6-0.3-0.8s-0.4-0.3-0.7-0.4c-0.2,0-0.6-0.1-1.2-0.1h-0.8V267.7
			z"/>
		<path class="st6" d="M1061.1,270.5l-1.5-0.3c0.2-0.6,0.5-1,0.9-1.3s1-0.4,1.8-0.4c0.7,0,1.3,0.1,1.6,0.3s0.6,0.4,0.8,0.7
			s0.2,0.8,0.2,1.5v1.9c0,0.5,0,1,0.1,1.2s0.2,0.5,0.3,0.8h-1.6c0-0.1-0.1-0.3-0.2-0.5c0-0.1,0-0.2-0.1-0.2
			c-0.3,0.3-0.6,0.5-0.9,0.6s-0.7,0.2-1,0.2c-0.6,0-1.1-0.2-1.5-0.5s-0.6-0.8-0.6-1.3c0-0.4,0.1-0.7,0.3-0.9s0.4-0.5,0.7-0.6
			s0.7-0.3,1.3-0.4c0.8-0.1,1.3-0.3,1.6-0.4v-0.2c0-0.3-0.1-0.5-0.2-0.7s-0.5-0.2-0.9-0.2c-0.3,0-0.5,0.1-0.7,0.2
			S1061.2,270.2,1061.1,270.5z M1063.3,271.8c-0.2,0.1-0.5,0.2-1,0.3s-0.8,0.2-0.9,0.3c-0.2,0.2-0.3,0.3-0.3,0.6
			c0,0.2,0.1,0.4,0.3,0.6s0.4,0.3,0.7,0.3c0.3,0,0.6-0.1,0.8-0.3c0.2-0.1,0.3-0.3,0.4-0.5c0-0.1,0.1-0.4,0.1-0.8L1063.3,271.8
			L1063.3,271.8z"/>
		<path class="st6" d="M1068.1,274.8h-1.6v-6.2h1.5v0.9c0.3-0.4,0.5-0.7,0.7-0.8s0.4-0.2,0.7-0.2c0.4,0,0.7,0.1,1.1,0.3l-0.5,1.4
			c-0.3-0.2-0.5-0.3-0.8-0.3c-0.2,0-0.4,0.1-0.6,0.2s-0.3,0.4-0.4,0.7s-0.1,1-0.1,2.1L1068.1,274.8L1068.1,274.8z"/>
		<path class="st6" d="M1074.1,268.6v1.3h-1.1v2.5c0,0.5,0,0.8,0,0.9s0.1,0.2,0.1,0.2s0.2,0.1,0.3,0.1c0.2,0,0.4-0.1,0.7-0.2
			l0.1,1.3c-0.4,0.2-0.8,0.2-1.3,0.2c-0.3,0-0.6,0-0.8-0.1s-0.4-0.2-0.5-0.4s-0.2-0.4-0.2-0.6s-0.1-0.6-0.1-1.2v-2.7h-0.8v-1.3h0.8
			v-1.2l1.7-1v2.2L1074.1,268.6L1074.1,268.6z"/>
		<path class="st6" d="M1080.9,274.8h-1.6v-3.2c0-0.7,0-1.1-0.1-1.3s-0.2-0.4-0.3-0.5s-0.3-0.2-0.6-0.2c-0.3,0-0.5,0.1-0.8,0.2
			s-0.4,0.4-0.5,0.6s-0.1,0.7-0.1,1.4v2.8h-1.6v-6.2h1.5v0.9c0.5-0.7,1.2-1.1,2.1-1.1c0.4,0,0.7,0.1,1,0.2s0.5,0.3,0.7,0.5
			s0.3,0.4,0.3,0.7s0.1,0.6,0.1,1.1L1080.9,274.8L1080.9,274.8z"/>
		<path class="st6" d="M1086.2,272.8l1.6,0.3c-0.2,0.6-0.5,1.1-1,1.4s-1,0.5-1.7,0.5c-1.1,0-1.9-0.4-2.4-1.1
			c-0.4-0.6-0.6-1.3-0.6-2.1c0-1,0.3-1.8,0.8-2.4s1.2-0.9,2-0.9c0.9,0,1.7,0.3,2.2,0.9s0.8,1.5,0.8,2.8h-4.1c0,0.5,0.1,0.9,0.4,1.1
			s0.6,0.4,0.9,0.4s0.5-0.1,0.7-0.2S1086.1,273.1,1086.2,272.8z M1086.3,271.2c0-0.5-0.1-0.8-0.4-1.1s-0.5-0.4-0.9-0.4
			s-0.7,0.1-0.9,0.4s-0.3,0.6-0.3,1.1H1086.3z"/>
		<path class="st6" d="M1090.8,274.8h-1.6v-6.2h1.5v0.9c0.3-0.4,0.5-0.7,0.7-0.8s0.4-0.2,0.7-0.2c0.4,0,0.7,0.1,1.1,0.3l-0.5,1.4
			c-0.3-0.2-0.5-0.3-0.8-0.3c-0.2,0-0.4,0.1-0.6,0.2s-0.3,0.4-0.4,0.7s-0.1,1-0.1,2.1L1090.8,274.8L1090.8,274.8z"/>
		<path class="st6" d="M1098.8,274.8h-1.6v-6.2h1.5v0.9c0.3-0.4,0.5-0.7,0.7-0.8s0.4-0.2,0.7-0.2c0.4,0,0.7,0.1,1.1,0.3l-0.5,1.4
			c-0.3-0.2-0.5-0.3-0.8-0.3c-0.2,0-0.4,0.1-0.6,0.2s-0.3,0.4-0.4,0.7s-0.1,1-0.1,2.1L1098.8,274.8L1098.8,274.8z"/>
		<path class="st6" d="M1101.5,271.6c0-0.5,0.1-1.1,0.4-1.6s0.7-0.9,1.1-1.2s1-0.4,1.7-0.4c0.9,0,1.7,0.3,2.3,0.9s0.9,1.4,0.9,2.3
			s-0.3,1.7-0.9,2.3s-1.4,0.9-2.3,0.9c-0.6,0-1.1-0.1-1.6-0.4s-0.9-0.6-1.2-1.1S1101.5,272.3,1101.5,271.6z M1103.2,271.7
			c0,0.6,0.1,1.1,0.4,1.4s0.7,0.5,1.1,0.5s0.8-0.2,1.1-0.5s0.4-0.8,0.4-1.4s-0.1-1.1-0.4-1.4s-0.7-0.5-1.1-0.5s-0.8,0.2-1.1,0.5
			S1103.2,271.1,1103.2,271.7z"/>
		<path class="st6" d="M1108.9,271.6c0-0.5,0.1-1.1,0.4-1.6s0.7-0.9,1.1-1.2s1-0.4,1.7-0.4c0.9,0,1.7,0.3,2.3,0.9s0.9,1.4,0.9,2.3
			s-0.3,1.7-0.9,2.3s-1.4,0.9-2.3,0.9c-0.6,0-1.1-0.1-1.6-0.4s-0.9-0.6-1.2-1.1S1108.9,272.3,1108.9,271.6z M1110.5,271.7
			c0,0.6,0.1,1.1,0.4,1.4s0.7,0.5,1.1,0.5s0.8-0.2,1.1-0.5s0.4-0.8,0.4-1.4s-0.1-1.1-0.4-1.4s-0.7-0.5-1.1-0.5s-0.8,0.2-1.1,0.5
			S1110.5,271.1,1110.5,271.7z"/>
		<path class="st6" d="M1116.4,268.6h1.5v0.8c0.5-0.7,1.2-1,1.9-1c0.4,0,0.7,0.1,1,0.2s0.5,0.4,0.7,0.7c0.3-0.3,0.6-0.6,0.9-0.7
			s0.7-0.2,1-0.2c0.5,0,0.8,0.1,1.2,0.3s0.6,0.5,0.7,0.8s0.2,0.7,0.2,1.3v4h-1.6v-3.6c0-0.6-0.1-1-0.2-1.2c-0.2-0.2-0.4-0.4-0.7-0.4
			c-0.2,0-0.4,0.1-0.7,0.2s-0.3,0.3-0.4,0.6s-0.1,0.7-0.1,1.3v3h-1.6v-3.4c0-0.6,0-1-0.1-1.2s-0.1-0.3-0.3-0.4s-0.3-0.1-0.5-0.1
			c-0.3,0-0.5,0.1-0.7,0.2s-0.3,0.3-0.4,0.6s-0.1,0.7-0.1,1.3v3h-1.6v-6.1L1116.4,268.6L1116.4,268.6z"/>
		<path class="st6" d="M1130.2,272.5l1.6-0.2c0.1,0.4,0.2,0.7,0.4,0.9s0.5,0.3,0.8,0.3s0.6-0.1,0.9-0.4s0.3-0.6,0.3-1
			s-0.1-0.7-0.3-1s-0.5-0.4-0.8-0.4c-0.2,0-0.5,0-0.8,0.1l0.2-1.3c0.4,0,0.8-0.1,1-0.3s0.4-0.5,0.4-0.8s-0.1-0.5-0.3-0.7
			s-0.4-0.3-0.7-0.3c-0.3,0-0.5,0.1-0.7,0.3s-0.3,0.5-0.4,0.9l-1.5-0.3c0.1-0.5,0.3-0.9,0.5-1.2s0.5-0.6,0.9-0.7s0.8-0.3,1.3-0.3
			c0.8,0,1.5,0.3,1.9,0.8c0.4,0.4,0.6,0.9,0.6,1.4c0,0.8-0.4,1.4-1.2,1.8c0.5,0.1,0.9,0.3,1.2,0.7s0.4,0.8,0.4,1.3
			c0,0.8-0.3,1.4-0.8,1.9s-1.2,0.8-2.1,0.8c-0.8,0-1.4-0.2-1.9-0.7S1130.2,273.2,1130.2,272.5z"/>
		<path class="st6" d="M1141.1,274.8h-1.6v-6.2c-0.6,0.6-1.3,1-2.1,1.2v-1.5c0.4-0.1,0.9-0.4,1.4-0.8s0.8-0.9,1-1.4h1.3
			L1141.1,274.8L1141.1,274.8z"/>
		<path class="st6" d="M1149.1,273.3v1.5h-5.8c0.1-0.6,0.2-1.1,0.6-1.6s0.9-1.2,1.9-2.1c0.7-0.7,1.2-1.2,1.4-1.4
			c0.2-0.3,0.3-0.7,0.3-1c0-0.4-0.1-0.6-0.3-0.8s-0.5-0.3-0.8-0.3s-0.6,0.1-0.8,0.3s-0.3,0.6-0.4,1l-1.6-0.2c0.1-0.9,0.4-1.6,0.9-2
			s1.2-0.6,1.9-0.6c0.8,0,1.5,0.2,2,0.7s0.7,1,0.7,1.7c0,0.4-0.1,0.8-0.2,1.1s-0.4,0.7-0.7,1.1c-0.2,0.3-0.6,0.6-1.1,1.1
			s-0.8,0.8-1,0.9s-0.3,0.3-0.3,0.5L1149.1,273.3L1149.1,273.3z"/>
	</g>
	<g class="st5">
		<path class="st6" d="M1294.5,267.7v-8.6h2.8c1.1,0,1.7,0,2.1,0.1c0.5,0.1,0.9,0.4,1.2,0.8s0.5,1,0.5,1.7c0,0.5-0.1,1-0.3,1.3
			s-0.4,0.6-0.7,0.8s-0.6,0.3-0.9,0.4c-0.4,0.1-1,0.1-1.8,0.1h-1.1v3.2h-1.8L1294.5,267.7L1294.5,267.7z M1296.2,260.6v2.4h0.9
			c0.7,0,1.1,0,1.4-0.1s0.4-0.2,0.5-0.4s0.2-0.4,0.2-0.7c0-0.3-0.1-0.6-0.3-0.8s-0.4-0.3-0.7-0.4c-0.2,0-0.6-0.1-1.2-0.1h-0.8V260.6
			z"/>
		<path class="st6" d="M1303.7,263.4l-1.5-0.3c0.2-0.6,0.5-1,0.9-1.3s1-0.4,1.8-0.4c0.7,0,1.3,0.1,1.6,0.3s0.6,0.4,0.8,0.7
			s0.2,0.8,0.2,1.5v1.9c0,0.5,0,1,0.1,1.2s0.2,0.5,0.3,0.8h-1.6c0-0.1-0.1-0.3-0.2-0.5c0-0.1,0-0.2-0.1-0.2
			c-0.3,0.3-0.6,0.5-0.9,0.6s-0.7,0.2-1,0.2c-0.6,0-1.1-0.2-1.5-0.5s-0.6-0.8-0.6-1.3c0-0.4,0.1-0.7,0.3-0.9s0.4-0.5,0.7-0.6
			s0.7-0.3,1.3-0.4c0.8-0.1,1.3-0.3,1.6-0.4v-0.2c0-0.3-0.1-0.5-0.2-0.7s-0.5-0.2-0.9-0.2c-0.3,0-0.5,0.1-0.7,0.2
			S1303.8,263.1,1303.7,263.4z M1305.9,264.7c-0.2,0.1-0.5,0.2-1,0.3s-0.8,0.2-0.9,0.3c-0.2,0.2-0.3,0.3-0.3,0.6
			c0,0.2,0.1,0.4,0.3,0.6s0.4,0.3,0.7,0.3c0.3,0,0.6-0.1,0.8-0.3c0.2-0.1,0.3-0.3,0.4-0.5c0-0.1,0.1-0.4,0.1-0.8L1305.9,264.7
			L1305.9,264.7z"/>
		<path class="st6" d="M1310.7,267.7h-1.6v-6.2h1.5v0.9c0.3-0.4,0.5-0.7,0.7-0.8s0.4-0.2,0.7-0.2c0.4,0,0.7,0.1,1.1,0.3l-0.5,1.4
			c-0.3-0.2-0.5-0.3-0.8-0.3c-0.2,0-0.4,0.1-0.6,0.2s-0.3,0.4-0.4,0.7s-0.1,1-0.1,2.1L1310.7,267.7L1310.7,267.7z"/>
		<path class="st6" d="M1316.7,261.5v1.3h-1.1v2.5c0,0.5,0,0.8,0,0.9s0.1,0.2,0.1,0.2s0.2,0.1,0.3,0.1c0.2,0,0.4-0.1,0.7-0.2
			l0.1,1.3c-0.4,0.2-0.8,0.2-1.3,0.2c-0.3,0-0.6,0-0.8-0.1s-0.4-0.2-0.5-0.4s-0.2-0.4-0.2-0.6s-0.1-0.6-0.1-1.2v-2.7h-0.8v-1.3h0.8
			v-1.2l1.7-1v2.2L1316.7,261.5L1316.7,261.5z"/>
		<path class="st6" d="M1323.5,267.7h-1.6v-3.2c0-0.7,0-1.1-0.1-1.3s-0.2-0.4-0.3-0.5s-0.3-0.2-0.6-0.2c-0.3,0-0.5,0.1-0.8,0.2
			s-0.4,0.4-0.5,0.6s-0.1,0.7-0.1,1.4v2.8h-1.6v-6.2h1.5v0.9c0.5-0.7,1.2-1.1,2.1-1.1c0.4,0,0.7,0.1,1,0.2s0.5,0.3,0.7,0.5
			s0.3,0.4,0.3,0.7s0.1,0.6,0.1,1.1L1323.5,267.7L1323.5,267.7z"/>
		<path class="st6" d="M1328.7,265.7l1.6,0.3c-0.2,0.6-0.5,1.1-1,1.4s-1,0.5-1.7,0.5c-1.1,0-1.9-0.4-2.4-1.1
			c-0.4-0.6-0.6-1.3-0.6-2.1c0-1,0.3-1.8,0.8-2.4s1.2-0.9,2-0.9c0.9,0,1.7,0.3,2.2,0.9s0.8,1.5,0.8,2.8h-4.1c0,0.5,0.1,0.9,0.4,1.1
			s0.6,0.4,0.9,0.4s0.5-0.1,0.7-0.2S1328.6,266,1328.7,265.7z M1328.8,264c0-0.5-0.1-0.8-0.4-1.1s-0.5-0.4-0.9-0.4s-0.7,0.1-0.9,0.4
			s-0.3,0.6-0.3,1.1H1328.8z"/>
		<path class="st6" d="M1333.4,267.7h-1.6v-6.2h1.5v0.9c0.3-0.4,0.5-0.7,0.7-0.8s0.4-0.2,0.7-0.2c0.4,0,0.7,0.1,1.1,0.3l-0.5,1.4
			c-0.3-0.2-0.5-0.3-0.8-0.3c-0.2,0-0.4,0.1-0.6,0.2s-0.3,0.4-0.4,0.7s-0.1,1-0.1,2.1L1333.4,267.7L1333.4,267.7z"/>
		<path class="st6" d="M1341.4,267.7h-1.6v-6.2h1.5v0.9c0.3-0.4,0.5-0.7,0.7-0.8s0.4-0.2,0.7-0.2c0.4,0,0.7,0.1,1.1,0.3l-0.5,1.4
			c-0.3-0.2-0.5-0.3-0.8-0.3c-0.2,0-0.4,0.1-0.6,0.2s-0.3,0.4-0.4,0.7s-0.1,1-0.1,2.1L1341.4,267.7L1341.4,267.7z"/>
		<path class="st6" d="M1344.1,264.5c0-0.5,0.1-1.1,0.4-1.6s0.7-0.9,1.1-1.2s1-0.4,1.7-0.4c0.9,0,1.7,0.3,2.3,0.9s0.9,1.4,0.9,2.3
			s-0.3,1.7-0.9,2.3s-1.4,0.9-2.3,0.9c-0.6,0-1.1-0.1-1.6-0.4s-0.9-0.6-1.2-1.1S1344.1,265.2,1344.1,264.5z M1345.8,264.6
			c0,0.6,0.1,1.1,0.4,1.4s0.7,0.5,1.1,0.5s0.8-0.2,1.1-0.5s0.4-0.8,0.4-1.4s-0.1-1.1-0.4-1.4s-0.7-0.5-1.1-0.5s-0.8,0.2-1.1,0.5
			S1345.8,264,1345.8,264.6z"/>
		<path class="st6" d="M1351.4,264.5c0-0.5,0.1-1.1,0.4-1.6s0.7-0.9,1.1-1.2s1-0.4,1.7-0.4c0.9,0,1.7,0.3,2.3,0.9s0.9,1.4,0.9,2.3
			s-0.3,1.7-0.9,2.3s-1.4,0.9-2.3,0.9c-0.6,0-1.1-0.1-1.6-0.4s-0.9-0.6-1.2-1.1S1351.4,265.2,1351.4,264.5z M1353.1,264.6
			c0,0.6,0.1,1.1,0.4,1.4s0.7,0.5,1.1,0.5s0.8-0.2,1.1-0.5s0.4-0.8,0.4-1.4s-0.1-1.1-0.4-1.4s-0.7-0.5-1.1-0.5s-0.8,0.2-1.1,0.5
			S1353.1,264,1353.1,264.6z"/>
		<path class="st6" d="M1359,261.5h1.5v0.8c0.5-0.7,1.2-1,1.9-1c0.4,0,0.7,0.1,1,0.2s0.5,0.4,0.7,0.7c0.3-0.3,0.6-0.6,0.9-0.7
			s0.7-0.2,1-0.2c0.5,0,0.8,0.1,1.2,0.3s0.6,0.5,0.7,0.8s0.2,0.7,0.2,1.3v4h-1.6v-3.6c0-0.6-0.1-1-0.2-1.2c-0.2-0.2-0.4-0.4-0.7-0.4
			c-0.2,0-0.4,0.1-0.7,0.2s-0.3,0.3-0.4,0.6s-0.1,0.7-0.1,1.3v3h-1.6v-3.4c0-0.6,0-1-0.1-1.2s-0.1-0.3-0.3-0.4s-0.3-0.1-0.5-0.1
			c-0.3,0-0.5,0.1-0.7,0.2s-0.3,0.3-0.4,0.6s-0.1,0.7-0.1,1.3v3h-1.6v-6.1L1359,261.5L1359,261.5z"/>
		<path class="st6" d="M1372.7,265.4l1.6-0.2c0.1,0.4,0.2,0.7,0.4,0.9s0.5,0.3,0.8,0.3s0.6-0.1,0.9-0.4s0.3-0.6,0.3-1
			s-0.1-0.7-0.3-1s-0.5-0.4-0.8-0.4c-0.2,0-0.5,0-0.8,0.1l0.2-1.3c0.4,0,0.8-0.1,1-0.3s0.4-0.5,0.4-0.8s-0.1-0.5-0.3-0.7
			s-0.4-0.3-0.7-0.3c-0.3,0-0.5,0.1-0.7,0.3s-0.3,0.5-0.4,0.9l-1.5-0.3c0.1-0.5,0.3-0.9,0.5-1.2s0.5-0.6,0.9-0.7s0.8-0.3,1.3-0.3
			c0.8,0,1.5,0.3,1.9,0.8c0.4,0.4,0.6,0.9,0.6,1.4c0,0.8-0.4,1.4-1.2,1.8c0.5,0.1,0.9,0.3,1.2,0.7s0.4,0.8,0.4,1.3
			c0,0.8-0.3,1.4-0.8,1.9s-1.2,0.8-2.1,0.8c-0.8,0-1.4-0.2-1.9-0.7S1372.8,266.1,1372.7,265.4z"/>
		<path class="st6" d="M1383.7,267.7h-1.6v-6.2c-0.6,0.6-1.3,1-2.1,1.2v-1.5c0.4-0.1,0.9-0.4,1.4-0.8s0.8-0.9,1-1.4h1.3
			L1383.7,267.7L1383.7,267.7z"/>
		<path class="st6" d="M1386.1,260.7v-1.5h5.6v1.2c-0.5,0.5-0.9,1.1-1.4,2s-0.8,1.8-1.1,2.7s-0.4,1.8-0.4,2.6h-1.6
			c0-1.2,0.3-2.4,0.7-3.6s1.1-2.3,1.9-3.3h-3.7V260.7z"/>
	</g>
	<g class="st5">
		<path class="st6" d="M1838.8,177v-8.6h2.8c1.1,0,1.7,0,2.1,0.1c0.5,0.1,0.9,0.4,1.2,0.8s0.5,1,0.5,1.7c0,0.5-0.1,1-0.3,1.3
			s-0.4,0.6-0.7,0.8s-0.6,0.3-0.9,0.4c-0.4,0.1-1,0.1-1.8,0.1h-1.1v3.2h-1.8L1838.8,177L1838.8,177z M1840.5,169.9v2.4h0.9
			c0.7,0,1.1,0,1.4-0.1s0.4-0.2,0.5-0.4s0.2-0.4,0.2-0.7s-0.1-0.6-0.3-0.8s-0.4-0.3-0.7-0.4c-0.2,0-0.6-0.1-1.2-0.1h-0.8V169.9z"/>
		<path class="st6" d="M1848,172.7l-1.5-0.3c0.2-0.6,0.5-1,0.9-1.3s1-0.4,1.8-0.4c0.7,0,1.3,0.1,1.6,0.3s0.6,0.4,0.8,0.7
			s0.2,0.8,0.2,1.5v1.9c0,0.5,0,1,0.1,1.2s0.2,0.5,0.3,0.8h-1.6c0-0.1-0.1-0.3-0.2-0.5c0-0.1,0-0.2-0.1-0.2
			c-0.3,0.3-0.6,0.5-0.9,0.6s-0.7,0.2-1,0.2c-0.6,0-1.1-0.2-1.5-0.5s-0.6-0.8-0.6-1.3c0-0.4,0.1-0.7,0.3-0.9s0.4-0.5,0.7-0.6
			s0.7-0.3,1.3-0.4c0.8-0.1,1.3-0.3,1.6-0.4v-0.2c0-0.3-0.1-0.5-0.2-0.7s-0.5-0.2-0.9-0.2c-0.3,0-0.5,0.1-0.7,0.2
			S1848.1,172.4,1848,172.7z M1850.2,174.1c-0.2,0.1-0.5,0.2-1,0.3s-0.8,0.2-0.9,0.3c-0.2,0.2-0.3,0.3-0.3,0.6
			c0,0.2,0.1,0.4,0.3,0.6s0.4,0.3,0.7,0.3c0.3,0,0.6-0.1,0.8-0.3c0.2-0.1,0.3-0.3,0.4-0.5c0-0.1,0.1-0.4,0.1-0.8L1850.2,174.1
			L1850.2,174.1z"/>
		<path class="st6" d="M1855,177h-1.6v-6.2h1.5v0.9c0.3-0.4,0.5-0.7,0.7-0.8s0.4-0.2,0.7-0.2c0.4,0,0.7,0.1,1.1,0.3l-0.5,1.4
			c-0.3-0.2-0.5-0.3-0.8-0.3c-0.2,0-0.4,0.1-0.6,0.2s-0.3,0.4-0.4,0.7s-0.1,1-0.1,2.1L1855,177L1855,177z"/>
		<path class="st6" d="M1861,170.8v1.3h-1.1v2.5c0,0.5,0,0.8,0,0.9s0.1,0.2,0.1,0.2s0.2,0.1,0.3,0.1c0.2,0,0.4-0.1,0.7-0.2l0.1,1.3
			c-0.4,0.2-0.8,0.2-1.3,0.2c-0.3,0-0.6,0-0.8-0.1s-0.4-0.2-0.5-0.4s-0.2-0.4-0.2-0.6c0-0.2-0.1-0.6-0.1-1.2v-2.7h-0.8v-1.3h0.8
			v-1.2l1.7-1v2.2H1861z"/>
		<path class="st6" d="M1867.8,177h-1.6v-3.2c0-0.7,0-1.1-0.1-1.3s-0.2-0.4-0.3-0.5s-0.3-0.2-0.6-0.2c-0.3,0-0.5,0.1-0.8,0.2
			s-0.4,0.4-0.5,0.6s-0.1,0.7-0.1,1.4v2.8h-1.6v-6.2h1.5v0.9c0.5-0.7,1.2-1.1,2.1-1.1c0.4,0,0.7,0.1,1,0.2s0.5,0.3,0.7,0.5
			s0.3,0.4,0.3,0.7s0.1,0.6,0.1,1.1L1867.8,177L1867.8,177z"/>
		<path class="st6" d="M1873.1,175.1l1.6,0.3c-0.2,0.6-0.5,1.1-1,1.4s-1,0.5-1.7,0.5c-1.1,0-1.9-0.4-2.4-1.1
			c-0.4-0.6-0.6-1.3-0.6-2.1c0-1,0.3-1.8,0.8-2.4s1.2-0.9,2-0.9c0.9,0,1.7,0.3,2.2,0.9s0.8,1.5,0.8,2.8h-4.1c0,0.5,0.1,0.9,0.4,1.1
			s0.6,0.4,0.9,0.4s0.5-0.1,0.7-0.2S1873,175.4,1873.1,175.1z M1873.2,173.4c0-0.5-0.1-0.8-0.4-1.1s-0.5-0.4-0.9-0.4
			s-0.7,0.1-0.9,0.4s-0.3,0.6-0.3,1.1H1873.2z"/>
		<path class="st6" d="M1877.7,177h-1.6v-6.2h1.5v0.9c0.3-0.4,0.5-0.7,0.7-0.8s0.4-0.2,0.7-0.2c0.4,0,0.7,0.1,1.1,0.3l-0.5,1.4
			c-0.3-0.2-0.5-0.3-0.8-0.3c-0.2,0-0.4,0.1-0.6,0.2s-0.3,0.4-0.4,0.7s-0.1,1-0.1,2.1L1877.7,177L1877.7,177z"/>
		<path class="st6" d="M1885.7,177h-1.6v-6.2h1.5v0.9c0.3-0.4,0.5-0.7,0.7-0.8s0.4-0.2,0.7-0.2c0.4,0,0.7,0.1,1.1,0.3l-0.5,1.4
			c-0.3-0.2-0.5-0.3-0.8-0.3c-0.2,0-0.4,0.1-0.6,0.2s-0.3,0.4-0.4,0.7s-0.1,1-0.1,2.1L1885.7,177L1885.7,177z"/>
		<path class="st6" d="M1888.4,173.8c0-0.5,0.1-1.1,0.4-1.6s0.7-0.9,1.1-1.2s1-0.4,1.7-0.4c0.9,0,1.7,0.3,2.3,0.9s0.9,1.4,0.9,2.3
			c0,0.9-0.3,1.7-0.9,2.3s-1.4,0.9-2.3,0.9c-0.6,0-1.1-0.1-1.6-0.4s-0.9-0.6-1.2-1.1S1888.4,174.6,1888.4,173.8z M1890.1,173.9
			c0,0.6,0.1,1.1,0.4,1.4s0.7,0.5,1.1,0.5s0.8-0.2,1.1-0.5s0.4-0.8,0.4-1.4c0-0.6-0.1-1.1-0.4-1.4s-0.7-0.5-1.1-0.5
			s-0.8,0.2-1.1,0.5S1890.1,173.3,1890.1,173.9z"/>
		<path class="st6" d="M1895.8,173.8c0-0.5,0.1-1.1,0.4-1.6s0.7-0.9,1.1-1.2s1-0.4,1.7-0.4c0.9,0,1.7,0.3,2.3,0.9s0.9,1.4,0.9,2.3
			c0,0.9-0.3,1.7-0.9,2.3s-1.4,0.9-2.3,0.9c-0.6,0-1.1-0.1-1.6-0.4s-0.9-0.6-1.2-1.1S1895.8,174.6,1895.8,173.8z M1897.4,173.9
			c0,0.6,0.1,1.1,0.4,1.4s0.7,0.5,1.1,0.5s0.8-0.2,1.1-0.5s0.4-0.8,0.4-1.4c0-0.6-0.1-1.1-0.4-1.4s-0.7-0.5-1.1-0.5
			s-0.8,0.2-1.1,0.5S1897.4,173.3,1897.4,173.9z"/>
		<path class="st6" d="M1903.3,170.8h1.5v0.8c0.5-0.7,1.2-1,1.9-1c0.4,0,0.7,0.1,1,0.2s0.5,0.4,0.7,0.7c0.3-0.3,0.6-0.6,0.9-0.7
			s0.7-0.2,1-0.2c0.5,0,0.8,0.1,1.2,0.3s0.6,0.5,0.7,0.8s0.2,0.7,0.2,1.3v4h-1.6v-3.6c0-0.6-0.1-1-0.2-1.2c-0.2-0.2-0.4-0.4-0.7-0.4
			c-0.2,0-0.4,0.1-0.7,0.2s-0.3,0.3-0.4,0.6s-0.1,0.7-0.1,1.3v3h-1.6v-3.4c0-0.6,0-1-0.1-1.2s-0.1-0.3-0.3-0.4s-0.3-0.1-0.5-0.1
			c-0.3,0-0.5,0.1-0.7,0.2s-0.3,0.3-0.4,0.6s-0.1,0.7-0.1,1.3v3h-1.6v-6.1L1903.3,170.8L1903.3,170.8z"/>
		<path class="st6" d="M1917.1,174.8l1.6-0.2c0.1,0.4,0.2,0.7,0.4,0.9s0.5,0.3,0.8,0.3s0.6-0.1,0.9-0.4s0.3-0.6,0.3-1
			s-0.1-0.7-0.3-1s-0.5-0.4-0.8-0.4c-0.2,0-0.5,0-0.8,0.1l0.2-1.3c0.4,0,0.8-0.1,1-0.3s0.4-0.5,0.4-0.8s-0.1-0.5-0.3-0.7
			s-0.4-0.3-0.7-0.3c-0.3,0-0.5,0.1-0.7,0.3s-0.3,0.5-0.4,0.9l-1.5-0.3c0.1-0.5,0.3-0.9,0.5-1.2s0.5-0.6,0.9-0.7s0.8-0.3,1.3-0.3
			c0.8,0,1.5,0.3,1.9,0.8c0.4,0.4,0.6,0.9,0.6,1.4c0,0.8-0.4,1.4-1.2,1.8c0.5,0.1,0.9,0.3,1.2,0.7s0.4,0.8,0.4,1.3
			c0,0.8-0.3,1.4-0.8,1.9s-1.2,0.8-2.1,0.8c-0.8,0-1.4-0.2-1.9-0.7S1917.1,175.5,1917.1,174.8z"/>
		<path class="st6" d="M1929.3,175.5v1.5h-5.8c0.1-0.6,0.2-1.1,0.6-1.6s0.9-1.2,1.9-2.1c0.7-0.7,1.2-1.2,1.4-1.4
			c0.2-0.3,0.3-0.7,0.3-1c0-0.4-0.1-0.6-0.3-0.8s-0.5-0.3-0.8-0.3s-0.6,0.1-0.8,0.3s-0.3,0.6-0.4,1l-1.6-0.2c0.1-0.9,0.4-1.6,0.9-2
			s1.2-0.6,1.9-0.6c0.8,0,1.5,0.2,2,0.7s0.7,1,0.7,1.7c0,0.4-0.1,0.8-0.2,1.1s-0.4,0.7-0.7,1.1c-0.2,0.3-0.6,0.6-1.1,1.1
			s-0.8,0.8-1,0.9s-0.3,0.3-0.3,0.5h3.3V175.5z"/>
		<path class="st6" d="M1936,175.5v1.5h-5.8c0.1-0.6,0.2-1.1,0.6-1.6s0.9-1.2,1.9-2.1c0.7-0.7,1.2-1.2,1.4-1.4
			c0.2-0.3,0.3-0.7,0.3-1c0-0.4-0.1-0.6-0.3-0.8s-0.5-0.3-0.8-0.3s-0.6,0.1-0.8,0.3s-0.3,0.6-0.4,1l-1.6-0.2c0.1-0.9,0.4-1.6,0.9-2
			s1.2-0.6,1.9-0.6c0.8,0,1.5,0.2,2,0.7s0.7,1,0.7,1.7c0,0.4-0.1,0.8-0.2,1.1s-0.4,0.7-0.7,1.1c-0.2,0.3-0.6,0.6-1.1,1.1
			s-0.8,0.8-1,0.9s-0.3,0.3-0.3,0.5h3.3V175.5z"/>
	</g>
	<g class="st5">
		<path class="st6" d="M1849.7,560.7v-8.6h2.8c1.1,0,1.7,0,2.1,0.1c0.5,0.1,0.9,0.4,1.2,0.8s0.5,1,0.5,1.7c0,0.5-0.1,1-0.3,1.3
			s-0.4,0.6-0.7,0.8s-0.6,0.3-0.9,0.4c-0.4,0.1-1,0.1-1.8,0.1h-1.1v3.2h-1.8L1849.7,560.7L1849.7,560.7z M1851.4,553.5v2.4h0.9
			c0.7,0,1.1,0,1.4-0.1s0.4-0.2,0.5-0.4s0.2-0.4,0.2-0.7s-0.1-0.6-0.3-0.8s-0.4-0.3-0.7-0.4c-0.2,0-0.6-0.1-1.2-0.1L1851.4,553.5
			L1851.4,553.5z"/>
		<path class="st6" d="M1858.9,556.3l-1.5-0.3c0.2-0.6,0.5-1,0.9-1.3s1-0.4,1.8-0.4c0.7,0,1.3,0.1,1.6,0.3s0.6,0.4,0.8,0.7
			s0.2,0.8,0.2,1.5v1.9c0,0.5,0,1,0.1,1.2s0.2,0.5,0.3,0.8h-1.6c0-0.1-0.1-0.3-0.2-0.5c0-0.1,0-0.2-0.1-0.2
			c-0.3,0.3-0.6,0.5-0.9,0.6s-0.7,0.2-1,0.2c-0.6,0-1.1-0.2-1.5-0.5s-0.6-0.8-0.6-1.3c0-0.4,0.1-0.7,0.3-0.9s0.4-0.5,0.7-0.6
			s0.7-0.3,1.3-0.4c0.8-0.1,1.3-0.3,1.6-0.4v-0.2c0-0.3-0.1-0.5-0.2-0.7s-0.5-0.2-0.9-0.2c-0.3,0-0.5,0.1-0.7,0.2
			S1859,556,1858.9,556.3z M1861.1,557.7c-0.2,0.1-0.5,0.2-1,0.3s-0.8,0.2-0.9,0.3c-0.2,0.2-0.3,0.3-0.3,0.6c0,0.2,0.1,0.4,0.3,0.6
			s0.4,0.3,0.7,0.3c0.3,0,0.6-0.1,0.8-0.3c0.2-0.1,0.3-0.3,0.4-0.5c0-0.1,0.1-0.4,0.1-0.8L1861.1,557.7L1861.1,557.7z"/>
		<path class="st6" d="M1865.9,560.7h-1.6v-6.2h1.5v0.9c0.3-0.4,0.5-0.7,0.7-0.8s0.4-0.2,0.7-0.2c0.4,0,0.7,0.1,1.1,0.3l-0.5,1.4
			c-0.3-0.2-0.5-0.3-0.8-0.3c-0.2,0-0.4,0.1-0.6,0.2s-0.3,0.4-0.4,0.7s-0.1,1-0.1,2.1L1865.9,560.7L1865.9,560.7z"/>
		<path class="st6" d="M1871.9,554.4v1.3h-1.1v2.5c0,0.5,0,0.8,0,0.9s0.1,0.2,0.1,0.2s0.2,0.1,0.3,0.1c0.2,0,0.4-0.1,0.7-0.2
			l0.1,1.3c-0.4,0.2-0.8,0.2-1.3,0.2c-0.3,0-0.6,0-0.8-0.1s-0.4-0.2-0.5-0.4s-0.2-0.4-0.2-0.6c0-0.2-0.1-0.6-0.1-1.2v-2.7h-0.8v-1.3
			h0.8v-1.2l1.7-1v2.2H1871.9z"/>
		<path class="st6" d="M1878.7,560.7h-1.6v-3.2c0-0.7,0-1.1-0.1-1.3s-0.2-0.4-0.3-0.5s-0.3-0.2-0.6-0.2c-0.3,0-0.5,0.1-0.8,0.2
			s-0.4,0.4-0.5,0.6s-0.1,0.7-0.1,1.4v2.8h-1.6v-6.2h1.5v0.9c0.5-0.7,1.2-1.1,2.1-1.1c0.4,0,0.7,0.1,1,0.2s0.5,0.3,0.7,0.5
			s0.3,0.4,0.3,0.7s0.1,0.6,0.1,1.1L1878.7,560.7L1878.7,560.7z"/>
		<path class="st6" d="M1884,558.7l1.6,0.3c-0.2,0.6-0.5,1.1-1,1.4s-1,0.5-1.7,0.5c-1.1,0-1.9-0.4-2.4-1.1c-0.4-0.6-0.6-1.3-0.6-2.1
			c0-1,0.3-1.8,0.8-2.4s1.2-0.9,2-0.9c0.9,0,1.7,0.3,2.2,0.9s0.8,1.5,0.8,2.8h-4.1c0,0.5,0.1,0.9,0.4,1.1s0.6,0.4,0.9,0.4
			s0.5-0.1,0.7-0.2S1883.9,559,1884,558.7z M1884.1,557c0-0.5-0.1-0.8-0.4-1.1s-0.5-0.4-0.9-0.4s-0.7,0.1-0.9,0.4s-0.3,0.6-0.3,1.1
			H1884.1z"/>
		<path class="st6" d="M1888.6,560.7h-1.6v-6.2h1.5v0.9c0.3-0.4,0.5-0.7,0.7-0.8s0.4-0.2,0.7-0.2c0.4,0,0.7,0.1,1.1,0.3l-0.5,1.4
			c-0.3-0.2-0.5-0.3-0.8-0.3c-0.2,0-0.4,0.1-0.6,0.2s-0.3,0.4-0.4,0.7s-0.1,1-0.1,2.1L1888.6,560.7L1888.6,560.7z"/>
		<path class="st6" d="M1896.6,560.7h-1.6v-6.2h1.5v0.9c0.3-0.4,0.5-0.7,0.7-0.8s0.4-0.2,0.7-0.2c0.4,0,0.7,0.1,1.1,0.3l-0.5,1.4
			c-0.3-0.2-0.5-0.3-0.8-0.3c-0.2,0-0.4,0.1-0.6,0.2s-0.3,0.4-0.4,0.7s-0.1,1-0.1,2.1L1896.6,560.7L1896.6,560.7z"/>
		<path class="st6" d="M1899.3,557.5c0-0.5,0.1-1.1,0.4-1.6s0.7-0.9,1.1-1.2s1-0.4,1.7-0.4c0.9,0,1.7,0.3,2.3,0.9s0.9,1.4,0.9,2.3
			c0,0.9-0.3,1.7-0.9,2.3s-1.4,0.9-2.3,0.9c-0.6,0-1.1-0.1-1.6-0.4s-0.9-0.6-1.2-1.1S1899.3,558.2,1899.3,557.5z M1901,557.5
			c0,0.6,0.1,1.1,0.4,1.4s0.7,0.5,1.1,0.5s0.8-0.2,1.1-0.5s0.4-0.8,0.4-1.4c0-0.6-0.1-1.1-0.4-1.4s-0.7-0.5-1.1-0.5
			s-0.8,0.2-1.1,0.5S1901,556.9,1901,557.5z"/>
		<path class="st6" d="M1906.7,557.5c0-0.5,0.1-1.1,0.4-1.6s0.7-0.9,1.1-1.2s1-0.4,1.7-0.4c0.9,0,1.7,0.3,2.3,0.9s0.9,1.4,0.9,2.3
			c0,0.9-0.3,1.7-0.9,2.3s-1.4,0.9-2.3,0.9c-0.6,0-1.1-0.1-1.6-0.4s-0.9-0.6-1.2-1.1S1906.7,558.2,1906.7,557.5z M1908.3,557.5
			c0,0.6,0.1,1.1,0.4,1.4s0.7,0.5,1.1,0.5s0.8-0.2,1.1-0.5s0.4-0.8,0.4-1.4c0-0.6-0.1-1.1-0.4-1.4s-0.7-0.5-1.1-0.5
			s-0.8,0.2-1.1,0.5S1908.3,556.9,1908.3,557.5z"/>
		<path class="st6" d="M1914.2,554.4h1.5v0.8c0.5-0.7,1.2-1,1.9-1c0.4,0,0.7,0.1,1,0.2s0.5,0.4,0.7,0.7c0.3-0.3,0.6-0.6,0.9-0.7
			s0.7-0.2,1-0.2c0.5,0,0.8,0.1,1.2,0.3s0.6,0.5,0.7,0.8s0.2,0.7,0.2,1.3v4h-1.6V557c0-0.6-0.1-1-0.2-1.2c-0.2-0.2-0.4-0.4-0.7-0.4
			c-0.2,0-0.4,0.1-0.7,0.2s-0.3,0.3-0.4,0.6s-0.1,0.7-0.1,1.3v3h-1.6v-3.4c0-0.6,0-1-0.1-1.2s-0.1-0.3-0.3-0.4s-0.3-0.1-0.5-0.1
			c-0.3,0-0.5,0.1-0.7,0.2s-0.3,0.3-0.4,0.6s-0.1,0.7-0.1,1.3v3h-1.6v-6.1L1914.2,554.4L1914.2,554.4z"/>
		<path class="st6" d="M1928,558.4l1.6-0.2c0.1,0.4,0.2,0.7,0.4,0.9s0.5,0.3,0.8,0.3s0.6-0.1,0.9-0.4s0.3-0.6,0.3-1s-0.1-0.7-0.3-1
			s-0.5-0.4-0.8-0.4c-0.2,0-0.5,0-0.8,0.1l0.2-1.3c0.4,0,0.8-0.1,1-0.3s0.4-0.5,0.4-0.8s-0.1-0.5-0.3-0.7s-0.4-0.3-0.7-0.3
			c-0.3,0-0.5,0.1-0.7,0.3s-0.3,0.5-0.4,0.9l-1.5-0.3c0.1-0.5,0.3-0.9,0.5-1.2s0.5-0.6,0.9-0.7s0.8-0.3,1.3-0.3
			c0.8,0,1.5,0.3,1.9,0.8c0.4,0.4,0.6,0.9,0.6,1.4c0,0.8-0.4,1.4-1.2,1.8c0.5,0.1,0.9,0.3,1.2,0.7s0.4,0.8,0.4,1.3
			c0,0.8-0.3,1.4-0.8,1.9s-1.2,0.8-2.1,0.8c-0.8,0-1.4-0.2-1.9-0.7S1928,559.1,1928,558.4z"/>
		<path class="st6" d="M1940.3,559.1v1.5h-5.8c0.1-0.6,0.2-1.1,0.6-1.6s0.9-1.2,1.9-2.1c0.7-0.7,1.2-1.2,1.4-1.4
			c0.2-0.3,0.3-0.7,0.3-1c0-0.4-0.1-0.6-0.3-0.8s-0.5-0.3-0.8-0.3s-0.6,0.1-0.8,0.3s-0.3,0.6-0.4,1l-1.6-0.2c0.1-0.9,0.4-1.6,0.9-2
			s1.2-0.6,1.9-0.6c0.8,0,1.5,0.2,2,0.7s0.7,1,0.7,1.7c0,0.4-0.1,0.8-0.2,1.1s-0.4,0.7-0.7,1.1c-0.2,0.3-0.6,0.6-1.1,1.1
			s-0.8,0.8-1,0.9s-0.3,0.3-0.3,0.5L1940.3,559.1L1940.3,559.1z"/>
		<path class="st6" d="M1946.9,554.2l-1.6,0.2c0-0.3-0.1-0.6-0.3-0.7s-0.4-0.2-0.6-0.2c-0.3,0-0.6,0.2-0.9,0.5s-0.4,1-0.5,2
			c0.4-0.5,0.9-0.7,1.5-0.7c0.7,0,1.3,0.3,1.8,0.8s0.7,1.2,0.7,2c0,0.9-0.3,1.6-0.8,2.1s-1.2,0.8-2,0.8c-0.9,0-1.6-0.3-2.1-1
			s-0.8-1.8-0.8-3.3c0-1.6,0.3-2.7,0.9-3.4s1.3-1,2.3-1c0.7,0,1.2,0.2,1.6,0.5S1946.8,553.5,1946.9,554.2z M1943.2,557.8
			c0,0.5,0.1,0.9,0.4,1.2s0.5,0.4,0.8,0.4s0.6-0.1,0.8-0.4s0.3-0.6,0.3-1.2c0-0.6-0.1-1-0.3-1.2s-0.5-0.4-0.8-0.4s-0.6,0.1-0.8,0.4
			S1943.2,557.3,1943.2,557.8z"/>
	</g>
	<g class="st5">
		<path class="st6" d="M1707.3,546.8h-1.9l-0.8-2h-3.4l-0.7,2h-1.8l3.3-8.6h1.8L1707.3,546.8z M1704.1,543.4l-1.2-3.2l-1.2,3.2
			H1704.1z"/>
	</g>
	<g class="st5">
		<path class="st6" d="M1708.2,546.8v-8.6h2.8c1.1,0,1.7,0,2.1,0.1c0.5,0.1,0.9,0.4,1.2,0.8s0.5,1,0.5,1.7c0,0.5-0.1,1-0.3,1.3
			s-0.4,0.6-0.7,0.8s-0.6,0.3-0.9,0.4c-0.4,0.1-1,0.1-1.8,0.1h-1.1v3.2h-1.8L1708.2,546.8L1708.2,546.8z M1710,539.7v2.4h0.9
			c0.7,0,1.1,0,1.4-0.1s0.4-0.2,0.5-0.4s0.2-0.4,0.2-0.7s-0.1-0.6-0.3-0.8s-0.4-0.3-0.7-0.4c-0.2,0-0.6-0.1-1.2-0.1L1710,539.7
			L1710,539.7z"/>
	</g>
	<g class="st5">
		<path class="st6" d="M1719.4,546.8v-8.6h3.7c0.9,0,1.6,0.1,2,0.2s0.8,0.4,1,0.8s0.4,0.8,0.4,1.4c0,0.6-0.2,1.2-0.6,1.6
			s-0.9,0.7-1.7,0.8c0.4,0.2,0.7,0.5,0.9,0.7s0.6,0.7,1,1.4l1,1.7h-2.1l-1.3-1.9c-0.4-0.7-0.8-1.1-0.9-1.3s-0.3-0.3-0.5-0.4
			s-0.5-0.1-0.9-0.1h-0.4v3.6L1719.4,546.8L1719.4,546.8z M1721.1,541.9h1.3c0.8,0,1.4,0,1.6-0.1s0.4-0.2,0.5-0.4s0.2-0.4,0.2-0.6
			c0-0.3-0.1-0.5-0.2-0.7s-0.4-0.3-0.7-0.3c-0.1,0-0.6,0-1.3,0h-1.4V541.9z"/>
		<path class="st6" d="M1727.6,543.6c0-0.5,0.1-1.1,0.4-1.6s0.7-0.9,1.1-1.2s1-0.4,1.7-0.4c0.9,0,1.7,0.3,2.3,0.9s0.9,1.4,0.9,2.3
			c0,0.9-0.3,1.7-0.9,2.3s-1.4,0.9-2.3,0.9c-0.6,0-1.1-0.1-1.6-0.4s-0.9-0.6-1.2-1.1S1727.6,544.4,1727.6,543.6z M1729.3,543.7
			c0,0.6,0.1,1.1,0.4,1.4s0.7,0.5,1.1,0.5s0.8-0.2,1.1-0.5s0.4-0.8,0.4-1.4c0-0.6-0.1-1.1-0.4-1.4s-0.7-0.5-1.1-0.5
			s-0.8,0.2-1.1,0.5S1729.3,543.1,1729.3,543.7z"/>
		<path class="st6" d="M1735,543.6c0-0.5,0.1-1.1,0.4-1.6s0.7-0.9,1.1-1.2s1-0.4,1.7-0.4c0.9,0,1.7,0.3,2.3,0.9s0.9,1.4,0.9,2.3
			c0,0.9-0.3,1.7-0.9,2.3s-1.4,0.9-2.3,0.9c-0.6,0-1.1-0.1-1.6-0.4s-0.9-0.6-1.2-1.1S1735,544.4,1735,543.6z M1736.6,543.7
			c0,0.6,0.1,1.1,0.4,1.4s0.7,0.5,1.1,0.5s0.8-0.2,1.1-0.5s0.4-0.8,0.4-1.4c0-0.6-0.1-1.1-0.4-1.4s-0.7-0.5-1.1-0.5
			s-0.8,0.2-1.1,0.5S1736.6,543.1,1736.6,543.7z"/>
		<path class="st6" d="M1742.5,540.6h1.5v0.8c0.5-0.7,1.2-1,1.9-1c0.4,0,0.7,0.1,1,0.2s0.5,0.4,0.7,0.7c0.3-0.3,0.6-0.6,0.9-0.7
			s0.7-0.2,1-0.2c0.5,0,0.8,0.1,1.2,0.3s0.6,0.5,0.7,0.8s0.2,0.7,0.2,1.3v4h-1.6v-3.6c0-0.6-0.1-1-0.2-1.2c-0.2-0.2-0.4-0.4-0.7-0.4
			c-0.2,0-0.4,0.1-0.7,0.2s-0.3,0.3-0.4,0.6s-0.1,0.7-0.1,1.3v3h-1.6v-3.4c0-0.6,0-1-0.1-1.2s-0.2-0.3-0.3-0.4s-0.3-0.1-0.5-0.1
			c-0.3,0-0.5,0.1-0.7,0.2s-0.3,0.3-0.4,0.6s-0.1,0.7-0.1,1.3v3h-1.6v-6.1L1742.5,540.6L1742.5,540.6z"/>
	</g>
</g>
<g id="outline">
	<polygon class="st7" points="37.5,85 1985.8,85 1985.8,614.9 1628.5,634.9 1628.5,250.6 1595.3,250.6 1595.3,307.2 1545.4,307.2 
		1545.4,254.3 1536.8,254.3 1536.8,377.4 625.9,377.4 555.7,411.3 605,817.8 132,873.2 	"/>
	<polyline class="st8" points="1790.9,436.9 1807,436.9 1807,225 1807,257.2 1785.3,257.2 1863.9,257.2 	"/>
	<polyline class="st8" points="1762.1,257.2 1628.5,257.2 1628.5,436.9 1762.1,436.9 	"/>
	<polyline class="st8" points="1908.8,257.2 1985.8,257.2 1985.8,506.3 1915.8,506.3 	"/>
	<polyline class="st8" points="1807,436.9 1807,523.9 1809.9,506.3 1868.8,506.3 	"/>
	<line class="st8" x1="1807" y1="551.2" x2="1807" y2="627"/>
	<polyline class="st8" points="1807,198.3 1807,85 1628.5,85 1628.5,198.3 1676.5,198.3 1676.5,176.5 1682.8,176.5 	"/>
	<polyline class="st8" points="1708.5,85 1708.5,177 1762.1,177 	"/>
	<line class="st8" x1="1788" y1="177" x2="1807" y2="177"/>
	<line class="st8" x1="1536" y1="131" x2="1536" y2="254.3"/>
	<line class="st8" x1="1500.1" y1="104.8" x2="1500.1" y2="85"/>
	<polyline class="st8" points="1500.1,131 1500.1,180.1 1536,180.1 1446.7,180.1 	"/>
	<line class="st8" x1="1446.7" y1="293.6" x2="1536" y2="293.6"/>
	<polyline class="st8" points="1423,180.1 1399.9,180.1 1399.9,131 1399.9,381.8 1399.9,293.6 1419.4,293.6 	"/>
	<polyline class="st8" points="1215.9,150.3 1215.9,123 1215.9,141.7 1319.8,141.7 1286.4,141.7 1286.4,234.1 	"/>
	<polyline class="st8" points="1287,279.1 1287,377.4 1215.9,377.4 1215.9,279.1 	"/>
	<polyline class="st8" points="1178.9,198.3 1215.9,198.3 1215.9,177 1215.9,234.1 	"/>
	<line class="st8" x1="1345.9" y1="141.7" x2="1399.9" y2="141.7"/>
	<polyline class="st8" points="1144.9,198.3 987.6,198.3 987.6,183.7 987.6,234.1 	"/>
	<polyline class="st8" points="934.2,141.7 1097.5,141.7 1097.5,131 1097.5,198.3 	"/>
	<line class="st8" x1="987.6" y1="155.6" x2="987.6" y2="141.7"/>
	<polyline class="st8" points="894.1,141.7 835.2,141.7 835.2,127.9 835.2,234.1 	"/>
	<polyline class="st8" points="835.2,104.8 835.2,85 1097.5,85 1097.5,108.4 	"/>
	<path class="st8" d="M633,141.7h-7.3v92.5h-11.5c0-34-58.9-92.5-58.9-92.5h38.9"/>
	<polyline class="st8" points="662.1,141.7 703.4,141.7 703.4,191.6 625.7,191.6 835.2,191.6 	"/>
	<path class="st8" d="M498.4,108.4V85H326.3l12.4,134.8h9.4c0,0-1.8-51,23.1-85c0,0-7.9-26.4,15.8-38.1c9.7-3.5,20.5-0.6,27.3,7.1
		c0,0,38.3-16.4,102,11.5"/>
	<line class="st8" x1="987.6" y1="279.1" x2="987.6" y2="377.4"/>
	<path class="st8" d="M368.5,440.1l-25.7-176.2h15.1c68.6,189.8,216.2,124.5,216.2,124.5c57.7-29.1,48.6-109.3,48.6-109.3h5.6v98.4
		h206.9v-96.2"/>
	<line class="st8" x1="344.6" y1="275.9" x2="264.2" y2="285.6"/>
	<line class="st8" x1="220" y1="290" x2="64.2" y2="307.5"/>
	<line class="st8" x1="258.8" y1="624" x2="104.7" y2="645.5"/>
	<polyline class="st8" points="301.9,619.7 393.6,609.8 377.7,485.9 396.9,634.7 	"/>
	<polyline class="st8" points="436.7,511 566,496 555.7,411.3 465.1,411.3 	"/>
	<line class="st8" x1="421.4" y1="411.3" x2="364.7" y2="414.2"/>
	<polyline class="st8" points="402.9,678.1 406.3,708.1 421.4,839.3 	"/>
	<line class="st8" x1="459.6" y1="701.5" x2="588.8" y2="684.6"/>
	<line class="st8" x1="417.6" y1="707" x2="406.3" y2="708.1"/>
	<line class="st8" x1="396.9" y1="517" x2="381.7" y2="519"/>
	<polygon class="st8" points="445.4,568.3 455.8,645.5 508.7,639.8 498.4,562.9 	"/>
	<line class="st8" x1="1579.3" y1="85" x2="1579.3" y2="186.6"/>
</g>
<g id="icons">
	<g id="stairs-4-2-3-3">
		<circle class="st9" cx="540.3" cy="613.1" r="24"/>
		<path class="st10" d="M527.3,649l1-0.1c0,0.4,0.1,0.8,0.4,1c0.2,0.3,0.4,0.5,0.8,0.6c0.4,0.1,0.8,0.2,1.2,0.3c0.3,0,0.7,0,1-0.1
			s0.5-0.3,0.6-0.5c0.1-0.3,0.3-0.4,0.3-0.6c0-0.2-0.1-0.5-0.3-0.6c-0.2-0.2-0.5-0.4-0.8-0.5c-0.5-0.2-0.9-0.3-1.4-0.4
			c-0.5-0.1-1.1-0.3-1.5-0.5s-0.7-0.5-0.9-0.8s-0.2-0.7-0.3-1c0-0.4,0.1-0.8,0.4-1.2c0.2-0.4,0.6-0.7,1-0.8c0.5-0.2,0.9-0.2,1.4-0.3
			c0.5,0,1,0.1,1.5,0.3c0.4,0.2,0.7,0.4,1,0.8c0.3,0.4,0.4,0.8,0.4,1.3l-1,0.1c0-0.4-0.2-0.9-0.5-1.2c-0.4-0.3-0.9-0.4-1.4-0.4
			s-1,0.1-1.4,0.4c-0.2,0.2-0.4,0.5-0.4,0.8c0,0.2,0.1,0.5,0.3,0.6c0.5,0.3,1,0.4,1.5,0.5c0.6,0.1,1.2,0.3,1.8,0.5
			c0.4,0.2,0.7,0.5,1,0.8s0.4,0.7,0.4,1.2c0,0.4-0.1,0.8-0.4,1.2c-0.3,0.4-0.6,0.7-1,0.9c-0.5,0.2-1,0.3-1.5,0.3
			c-0.6,0-1.2-0.1-1.8-0.3c-0.5-0.1-0.9-0.5-1.2-0.9C527.4,649.9,527.3,649.5,527.3,649z"/>
		<path class="st10" d="M537,650.7l0.1,0.9c-0.3,0-0.5,0.1-0.8,0.1c-0.4,0-0.6,0-0.8-0.1s-0.4-0.3-0.4-0.4c-0.1-0.1-0.1-0.5-0.1-1.2
			v-3.2h-0.8V646h0.8v-1.4l0.9-0.6v1.9h1v0.8h-1v3.9c0,0.1,0.1,0.1,0.1,0.1l0,0c0.1,0,0.1,0.1,0.4,0.1
			C536.6,650.8,536.8,650.7,537,650.7z"/>
		<path class="st10" d="M541.8,650.8c-0.3,0.3-0.7,0.5-1,0.6s-0.7,0.1-1,0.1c-0.5,0.1-1.1-0.1-1.4-0.5c-0.4-0.3-0.6-0.7-0.5-1.2
			c0-0.3,0-0.5,0.1-0.8c0.1-0.2,0.3-0.4,0.5-0.5c0.3-0.1,0.4-0.3,0.6-0.3c0.3-0.1,0.6-0.1,0.9-0.1c0.6-0.1,1.1-0.2,1.7-0.4v-0.3
			c0-0.3-0.1-0.6-0.3-0.8c-0.3-0.3-0.7-0.4-1.2-0.4c-0.4,0-0.7,0.1-1,0.3c-0.3,0.1-0.4,0.4-0.5,0.9l-0.9-0.1c0.1-0.4,0.2-0.7,0.4-1
			c0.3-0.2,0.6-0.4,0.9-0.5c0.4-0.2,0.8-0.2,1.3-0.3c0.4,0,0.8,0,1.2,0.1c0.2,0.1,0.4,0.2,0.6,0.4c0.2,0.2,0.3,0.4,0.3,0.6v3.9
			c0,0.2,0.1,0.5,0.3,0.6h-1C541.8,651.4,541.8,651.1,541.8,650.8z M541.6,648.7c-0.5,0.2-1,0.3-1.5,0.4c-0.4,0-0.6,0.1-0.9,0.1
			c-0.1,0.1-0.3,0.1-0.4,0.3s-0.1,0.3-0.1,0.5s0.1,0.5,0.3,0.6c0.3,0.2,0.6,0.2,0.9,0.3c0.4,0,0.7-0.1,1-0.3
			c0.3-0.1,0.5-0.4,0.6-0.6c0.1-0.3,0.2-0.7,0.1-1L541.6,648.7L541.6,648.7z"/>
		<path class="st10" d="M544.1,644.8v-1.2h1v1.2H544.1z M544.1,651.5v-5.7h1v5.7H544.1z"/>
		<path class="st10" d="M546.5,651.5v-5.7h0.9v0.9c0.3-0.4,0.4-0.6,0.6-0.8s0.4-0.3,0.6-0.3c0.4,0,0.7,0.1,1,0.3l-0.4,0.9
			c-0.2-0.1-0.4-0.2-0.6-0.3c-0.3,0-0.4,0-0.5,0.1c-0.2,0.1-0.3,0.3-0.4,0.5c-0.1,0.4-0.2,0.8-0.1,1.2v3L546.5,651.5L546.5,651.5z"
			/>
		<path class="st10" d="M549.9,649.8l0.9-0.1c0,0.3,0.2,0.6,0.4,0.9c0.1,0.3,0.6,0.3,1,0.3s0.7-0.1,1-0.3c0.2-0.1,0.4-0.4,0.4-0.6
			c0-0.2-0.1-0.4-0.3-0.5c-0.3-0.2-0.7-0.3-1-0.4c-0.5-0.1-1-0.3-1.4-0.5c-0.3-0.1-0.5-0.3-0.6-0.5s-0.2-0.5-0.3-0.8
			c0-0.2,0-0.5,0.1-0.6c0.1-0.2,0.3-0.4,0.5-0.5c0.2-0.2,0.4-0.3,0.6-0.3c0.3,0,0.5-0.1,0.8-0.1c0.4,0,0.8,0.1,1.2,0.3
			c0.3,0.1,0.6,0.3,0.8,0.5c0.2,0.3,0.3,0.6,0.4,0.9l-0.9,0.1c0-0.3-0.1-0.5-0.4-0.6c-0.3-0.2-0.6-0.3-0.9-0.3
			c-0.3,0-0.6,0.1-0.9,0.3c-0.2,0.1-0.3,0.3-0.3,0.5c0,0.1,0,0.3,0.1,0.4c0.1,0.1,0.3,0.1,0.4,0.3c0.1,0,0.4,0.1,0.9,0.3
			c0.6,0.1,1.2,0.4,1.4,0.4c0.3,0.1,0.5,0.3,0.6,0.5s0.2,0.5,0.3,0.8c0,0.3-0.1,0.6-0.3,0.9c-0.2,0.3-0.5,0.5-0.8,0.6
			c-0.4,0.2-0.8,0.2-1.2,0.3c-0.6,0.1-1.2-0.1-1.7-0.5C550.1,650.8,549.9,650.5,549.9,649.8z"/>
		<g id="Outline_Icons-2-2-4-2-3-3">
			<line class="st11" x1="529.5" y1="622.5" x2="548.3" y2="622.5"/>
			<polyline class="st11" points="545,622.5 545,619.1 541.8,619.1 541.8,615.9 538.5,615.9 538.5,612.7 535.3,612.7 535.3,609.5 
				529.5,609.5 			"/>
			<line class="st11" x1="539.3" y1="603.7" x2="549.6" y2="614"/>
			<polyline class="st11" points="539.3,607.8 539.3,603.7 543.4,603.7 			"/>
			<polyline class="st11" points="549.6,609.9 549.6,614 545.5,614 			"/>
		</g>
	</g>
	<g id="Toilet-2">
		<path class="st10" d="M1454.4,261.9v-7.2h-2.7v-1h6.6v1h-2.7v7.2H1454.4z"/>
		<path class="st10" d="M1457.5,258.9c-0.1-0.9,0.2-1.8,0.9-2.4c0.6-0.4,1.2-0.6,1.9-0.6c0.8,0,1.5,0.3,2.1,0.8
			c0.5,0.6,0.8,1.4,0.8,2.2c0,0.6-0.1,1.2-0.4,1.8c-0.5,0.9-1.4,1.4-2.4,1.4c-0.8,0-1.5-0.3-2.1-0.8
			C1457.7,260.6,1457.4,259.8,1457.5,258.9z M1458.6,258.9c-0.1,0.6,0.1,1.2,0.5,1.7c0.7,0.7,1.9,0.7,2.6,0c0.4-0.5,0.6-1.2,0.5-1.8
			c0.1-0.6-0.1-1.2-0.5-1.7c-0.7-0.7-1.9-0.7-2.6,0C1458.7,257.7,1458.5,258.3,1458.6,258.9z"/>
		<path class="st10" d="M1464.3,254.8v-1.2h1v1.2H1464.3z M1464.3,261.9V256h1v5.9H1464.3z"/>
		<path class="st10" d="M1466.9,261.9v-8.2h1v8.2H1466.9z"/>
		<path class="st10" d="M1473.6,260l1,0.1c-0.1,0.6-0.5,1.1-0.9,1.4c-0.5,0.4-1.1,0.6-1.7,0.5c-0.8,0-1.5-0.2-2.1-0.8
			c-1-1.4-1-3.3,0-4.6c0.5-0.5,1.3-0.8,2.1-0.8c0.7,0,1.4,0.3,1.9,0.8c0.6,0.6,0.8,1.5,0.8,2.3v0.3h-4.5c0,0.6,0.2,1.1,0.5,1.5
			s0.8,0.5,1.3,0.5c0.3,0,0.6-0.1,0.9-0.3C1473.2,260.7,1473.4,260.3,1473.6,260z M1470.2,258.3h3.3c0-1-0.7-1.8-1.7-1.8
			c-0.5-0.1-0.9,0.1-1.2,0.5C1470.4,257.3,1470.2,257.8,1470.2,258.3L1470.2,258.3z"/>
		<path class="st10" d="M1478.1,261l0.1,0.9c-0.3,0-0.5,0.1-0.8,0.1s-0.6,0-0.9-0.1s-0.4-0.3-0.4-0.5c-0.1-0.4-0.2-0.8-0.1-1.2v-3.5
			h-0.8V256h0.8v-1.4l1-0.6v2.1h1v0.8h-1v4c0,0.1,0.1,0.1,0.1,0.3s0.3,0.1,0.4,0.1C1477.7,261,1477.8,261,1478.1,261z"/>
		<circle class="st9" cx="1465.1" cy="224.3" r="24.9"/>
		<g id="Outline_Icons-4-2">
			<path class="st12" d="M1474.1,223.9c0,0.6-0.4,1-1,1l0,0h-5.1v-11c0-1.1,0.9-2,2-2.1h2.1c1.1,0,2,0.9,2.1,2v0.1L1474.1,223.9
				L1474.1,223.9z"/>
			<path class="st12" d="M1460,234.8h10v-6.1l3-2.1v-2.1h-17c-0.1,2.6,1.9,4.8,4.5,5h0.3L1460,234.8z"/>
			<rect x="1455" y="222.9" class="st12" width="13" height="2.1"/>
			<circle class="st12" cx="1471.5" cy="215.4" r="1"/>
		</g>
	</g>
	<g id="stairs-4-2-3-3-2">
		<ellipse class="st9" cx="1579" cy="165.4" rx="24" ry="24"/>
		<path class="st10" d="M1566,201.4l1-0.1c0,0.4,0.1,0.8,0.4,1c0.2,0.3,0.4,0.5,0.8,0.6s0.8,0.2,1.2,0.3c0.3,0,0.7,0,1-0.1
			s0.5-0.3,0.6-0.5c0.1-0.3,0.3-0.4,0.3-0.6c0-0.2-0.1-0.5-0.3-0.6c-0.2-0.2-0.5-0.4-0.8-0.5c-0.5-0.2-0.9-0.3-1.4-0.4
			c-0.5-0.1-1.1-0.3-1.5-0.5s-0.7-0.4-0.9-0.8c-0.2-0.3-0.2-0.7-0.3-1c0-0.4,0.1-0.8,0.4-1.2c0.2-0.4,0.6-0.7,1-0.8
			c0.5-0.2,0.9-0.2,1.4-0.3c0.5,0,1,0.1,1.5,0.3c0.4,0.2,0.7,0.4,1,0.8c0.3,0.4,0.4,0.8,0.4,1.3l-1,0.1c0-0.4-0.2-0.9-0.5-1.2
			c-0.4-0.3-0.9-0.4-1.4-0.4s-1,0.1-1.4,0.4c-0.2,0.2-0.4,0.5-0.4,0.8c0,0.2,0.1,0.5,0.3,0.6c0.5,0.3,1,0.4,1.5,0.5
			c0.6,0.1,1.2,0.3,1.8,0.5c0.4,0.2,0.7,0.5,1,0.8s0.4,0.7,0.4,1.2c0,0.4-0.1,0.8-0.4,1.2s-0.6,0.7-1,0.9c-0.5,0.2-1,0.3-1.5,0.3
			c-0.6,0-1.2-0.1-1.8-0.3c-0.5-0.1-0.9-0.5-1.2-0.9C1566.1,202.2,1566,201.8,1566,201.4z"/>
		<path class="st10" d="M1575.6,203l0.1,0.9c-0.3,0-0.5,0.1-0.8,0.1c-0.4,0-0.6,0-0.8-0.1s-0.4-0.3-0.4-0.4
			c-0.1-0.1-0.1-0.5-0.1-1.2v-3.1h-0.8v-0.8h0.8V197l0.9-0.6v1.9h1v0.8h-1v3.9c0,0.1,0.1,0.1,0.1,0.1l0,0c0.1,0,0.1,0.1,0.4,0.1
			C1575.3,203.1,1575.5,203,1575.6,203z"/>
		<path class="st10" d="M1580.4,203.2c-0.3,0.3-0.7,0.5-1,0.6s-0.7,0.1-1,0.1c-0.5,0.1-1.1-0.1-1.4-0.5c-0.4-0.3-0.6-0.7-0.5-1.2
			c0-0.3,0-0.5,0.1-0.8c0.1-0.2,0.3-0.4,0.5-0.5c0.3-0.1,0.4-0.3,0.6-0.3c0.3-0.1,0.6-0.1,0.9-0.1c0.6-0.1,1.1-0.2,1.7-0.4v-0.3
			c0-0.3-0.1-0.6-0.3-0.8c-0.3-0.3-0.7-0.4-1.2-0.4c-0.4,0-0.7,0.1-1,0.3c-0.3,0.1-0.4,0.4-0.5,0.9l-0.9-0.1c0.1-0.4,0.2-0.7,0.4-1
			c0.3-0.2,0.6-0.4,0.9-0.5c0.4-0.2,0.8-0.2,1.3-0.3c0.4,0,0.8,0,1.2,0.1c0.2,0.1,0.4,0.2,0.6,0.4s0.3,0.4,0.3,0.6v3.9
			c0,0.2,0.1,0.5,0.3,0.6h-1C1580.4,203.7,1580.4,203.4,1580.4,203.2z M1580.3,201c-0.5,0.2-1,0.3-1.5,0.4c-0.4,0-0.6,0.1-0.9,0.1
			c-0.1,0.1-0.3,0.1-0.4,0.3s-0.1,0.3-0.1,0.5s0.1,0.5,0.3,0.6c0.3,0.2,0.6,0.2,0.9,0.3c0.4,0,0.7-0.1,1-0.3
			c0.3-0.1,0.5-0.4,0.6-0.6c0.1-0.3,0.2-0.7,0.1-1V201z"/>
		<path class="st10" d="M1582.7,197.1v-1.2h1v1.2H1582.7z M1582.7,203.8v-5.7h1v5.7H1582.7z"/>
		<path class="st10" d="M1585.2,203.8v-5.7h0.9v0.9c0.3-0.4,0.4-0.6,0.6-0.8s0.4-0.3,0.6-0.3c0.4,0,0.7,0.1,1,0.3l-0.4,0.9
			c-0.2-0.1-0.4-0.2-0.6-0.3c-0.3,0-0.4,0-0.5,0.1c-0.2,0.1-0.3,0.3-0.4,0.5c-0.1,0.4-0.1,0.8-0.1,1.2v3L1585.2,203.8L1585.2,203.8z
			"/>
		<path class="st10" d="M1588.5,202.1l0.9-0.1c0,0.3,0.2,0.6,0.4,0.9c0.1,0.3,0.6,0.3,1,0.3s0.7-0.1,1-0.3c0.2-0.1,0.4-0.4,0.4-0.6
			c0-0.2-0.1-0.4-0.3-0.5c-0.3-0.2-0.7-0.3-1-0.4c-0.5-0.1-1-0.3-1.4-0.5c-0.3-0.1-0.5-0.3-0.6-0.5s-0.2-0.5-0.3-0.8
			c0-0.2,0-0.5,0.1-0.6c0.1-0.2,0.3-0.4,0.5-0.5c0.2-0.2,0.4-0.3,0.6-0.3c0.3,0,0.5-0.1,0.8-0.1c0.4,0,0.8,0.1,1.2,0.3
			c0.3,0.1,0.6,0.3,0.8,0.5c0.2,0.3,0.3,0.6,0.4,0.9l-0.9,0.1c0-0.3-0.1-0.5-0.4-0.6c-0.3-0.2-0.6-0.3-0.9-0.3s-0.6,0.1-0.9,0.3
			c-0.2,0.1-0.3,0.3-0.3,0.5c0,0.1,0,0.3,0.1,0.4c0.1,0.1,0.3,0.1,0.4,0.3c0.1,0,0.4,0.1,0.9,0.3c0.6,0.1,1.2,0.4,1.4,0.4
			c0.3,0.1,0.5,0.3,0.6,0.5s0.2,0.5,0.3,0.8c0,0.3-0.1,0.6-0.3,0.9c-0.2,0.3-0.5,0.5-0.8,0.6c-0.4,0.2-0.8,0.2-1.2,0.3
			c-0.6,0.1-1.2-0.1-1.7-0.5C1588.8,203.2,1588.5,202.8,1588.5,202.1z"/>
		<g id="Outline_Icons-2-2-4-2-3-3-2">
			<line class="st11" x1="1568.2" y1="174.8" x2="1587" y2="174.8"/>
			<polyline class="st11" points="1583.6,174.8 1583.6,171.5 1580.4,171.5 1580.4,168.2 1577.2,168.2 1577.2,165 1574,165 
				1574,161.8 1568.2,161.8 			"/>
			<line class="st11" x1="1578" y1="156" x2="1588.3" y2="166.3"/>
			<polyline class="st11" points="1578,160.1 1578,156 1582.1,156 			"/>
			<polyline class="st11" points="1588.3,162.2 1588.3,166.3 1584.1,166.3 			"/>
		</g>
	</g>
	<g id="Toilet-2-2">
		<path class="st10" d="M1742.4,166.3v-7.2h-2.7v-1h6.6v1h-2.7v7.2H1742.4z"/>
		<path class="st10" d="M1745.5,163.4c-0.1-0.9,0.2-1.8,0.9-2.4c0.6-0.4,1.2-0.6,1.9-0.6c0.8,0,1.5,0.3,2.1,0.8
			c0.5,0.6,0.8,1.4,0.8,2.2c0,0.6-0.1,1.2-0.4,1.8c-0.5,0.9-1.4,1.4-2.4,1.4c-0.8,0-1.5-0.3-2.1-0.8
			C1745.7,165,1745.5,164.2,1745.5,163.4z M1746.7,163.4c-0.1,0.6,0.1,1.2,0.5,1.7c0.7,0.7,1.9,0.7,2.6,0c0.4-0.5,0.6-1.2,0.5-1.8
			c0.1-0.6-0.1-1.2-0.5-1.7c-0.7-0.7-1.9-0.7-2.6,0C1746.8,162.1,1746.6,162.7,1746.7,163.4z"/>
		<path class="st10" d="M1752.3,159.3v-1.2h1v1.2H1752.3z M1752.3,166.3v-5.9h1v5.9H1752.3z"/>
		<path class="st10" d="M1754.9,166.3v-8.2h1v8.2H1754.9z"/>
		<path class="st10" d="M1761.6,164.4l1,0.1c-0.1,0.6-0.5,1.1-0.9,1.4c-0.5,0.4-1.1,0.6-1.7,0.5c-0.8,0-1.5-0.2-2.1-0.8
			c-1-1.4-1-3.3,0-4.6c0.5-0.5,1.3-0.8,2.1-0.8c0.7,0,1.4,0.3,1.9,0.8c0.6,0.6,0.8,1.5,0.8,2.3v0.3h-4.5c0,0.6,0.2,1.1,0.5,1.5
			s0.8,0.5,1.3,0.5c0.3,0,0.6-0.1,0.9-0.3C1761.2,165.1,1761.4,164.8,1761.6,164.4z M1758.3,162.7h3.3c0-1-0.7-1.8-1.7-1.8
			c-0.5-0.1-0.9,0.1-1.2,0.5C1758.4,161.8,1758.2,162.2,1758.3,162.7L1758.3,162.7z"/>
		<path class="st10" d="M1766.1,165.4l0.1,0.9c-0.3,0-0.5,0.1-0.8,0.1s-0.6,0-0.9-0.1s-0.4-0.3-0.4-0.5c-0.1-0.4-0.2-0.8-0.1-1.2
			v-3.5h-0.8v-0.8h0.8V159l1-0.6v2.1h1v0.8h-1v4c0,0.1,0.1,0.1,0.1,0.3s0.3,0.1,0.4,0.1C1765.7,165.4,1765.9,165.4,1766.1,165.4z"/>
		<circle class="st9" cx="1753.1" cy="128.7" r="24.9"/>
		<g id="Outline_Icons-4-2-2">
			<path class="st12" d="M1762.1,128.3c0,0.6-0.4,1-1,1l0,0h-5.1v-11c0-1.1,0.9-2,2-2.1h2.1c1.1,0,2,0.9,2.1,2l0,0v0.1L1762.1,128.3
				L1762.1,128.3z"/>
			<path class="st12" d="M1748.1,139.3h10v-6.1l3-2.1V129h-17c-0.1,2.6,1.9,4.8,4.5,5h0.3L1748.1,139.3z"/>
			<rect x="1743.1" y="127.3" class="st12" width="13" height="2.1"/>
			<circle class="st12" cx="1759.6" cy="119.8" r="1"/>
		</g>
	</g>
	<g class="st5">
		<path class="st13" d="M1221.7,274.8v-7.1h2.7c0.5,0,0.8,0,1.1,0.1c0.3,0.1,0.6,0.2,0.9,0.3c0.2,0.2,0.4,0.4,0.6,0.7
			c0.1,0.3,0.2,0.6,0.2,1c0,0.6-0.2,1.1-0.6,1.5s-1.1,0.6-2.1,0.6h-1.8v2.9H1221.7z M1222.7,271.1h1.8c0.6,0,1-0.1,1.3-0.3
			c0.3-0.2,0.4-0.5,0.4-1c0-0.3-0.1-0.6-0.2-0.8s-0.3-0.4-0.6-0.4c-0.2,0-0.5-0.1-0.9-0.1h-1.8L1222.7,271.1L1222.7,271.1z"/>
		<path class="st13" d="M1228.2,274.8v-5.2h0.8v0.8c0.2-0.4,0.4-0.6,0.6-0.7s0.4-0.2,0.6-0.2c0.3,0,0.6,0.1,0.9,0.3l-0.3,0.8
			c-0.2-0.1-0.4-0.2-0.6-0.2s-0.4,0.1-0.5,0.2c-0.2,0.1-0.3,0.3-0.3,0.5c-0.1,0.3-0.1,0.6-0.1,1v2.7L1228.2,274.8L1228.2,274.8z"/>
		<path class="st13" d="M1231.6,268.7v-1h0.9v1H1231.6z M1231.6,274.8v-5.2h0.9v5.2H1231.6z"/>
		<path class="st13" d="M1233.8,274.8v-5.2h0.8v0.7c0.4-0.6,0.9-0.8,1.6-0.8c0.3,0,0.6,0.1,0.9,0.2s0.5,0.3,0.6,0.4
			c0.1,0.2,0.2,0.4,0.3,0.6c0,0.2,0,0.4,0,0.8v3.2h-0.9v-3.1c0-0.4,0-0.6-0.1-0.8c-0.1-0.2-0.2-0.3-0.4-0.4
			c-0.2-0.1-0.4-0.2-0.6-0.2c-0.4,0-0.7,0.1-1,0.4c-0.3,0.2-0.4,0.7-0.4,1.3v2.8h-0.8V274.8z"/>
		<path class="st13" d="M1241.2,274l0.1,0.8c-0.2,0.1-0.5,0.1-0.7,0.1c-0.3,0-0.6-0.1-0.7-0.2c-0.2-0.1-0.3-0.2-0.4-0.4
			c-0.1-0.2-0.1-0.5-0.1-1v-3h-0.6v-0.7h0.6v-1.3l0.9-0.5v1.8h0.9v0.7h-0.9v3c0,0.2,0,0.4,0,0.5s0.1,0.1,0.2,0.2s0.2,0.1,0.3,0.1
			C1240.9,274.1,1241,274,1241.2,274z"/>
		<path class="st13" d="M1245.6,273.1l0.9,0.1c-0.1,0.5-0.4,0.9-0.8,1.2s-0.9,0.4-1.5,0.4c-0.8,0-1.4-0.2-1.8-0.7s-0.7-1.1-0.7-2
			s0.2-1.5,0.7-2s1-0.7,1.7-0.7s1.3,0.2,1.7,0.7s0.7,1.1,0.7,2c0,0.1,0,0.1,0,0.2h-3.8c0,0.6,0.2,1,0.5,1.3s0.6,0.5,1.1,0.5
			c0.3,0,0.6-0.1,0.8-0.3C1245.3,273.8,1245.4,273.5,1245.6,273.1z M1242.7,271.7h2.9c0-0.4-0.1-0.8-0.3-1c-0.3-0.3-0.6-0.5-1.1-0.5
			c-0.4,0-0.7,0.1-1,0.4S1242.7,271.3,1242.7,271.7z"/>
		<path class="st13" d="M1247.6,274.8v-5.2h0.8v0.8c0.2-0.4,0.4-0.6,0.6-0.7s0.4-0.2,0.6-0.2c0.3,0,0.6,0.1,0.9,0.3l-0.3,0.8
			c-0.2-0.1-0.4-0.2-0.6-0.2s-0.4,0.1-0.5,0.2c-0.2,0.1-0.3,0.3-0.3,0.5c-0.1,0.3-0.1,0.6-0.1,1v2.7L1247.6,274.8L1247.6,274.8z"/>
		<path class="st13" d="M1253.8,274.8v-7.1h3.2c0.6,0,1.1,0.1,1.4,0.2s0.6,0.4,0.8,0.7s0.3,0.7,0.3,1.1c0,0.5-0.2,0.9-0.5,1.3
			c-0.3,0.3-0.8,0.6-1.5,0.7c0.2,0.1,0.4,0.2,0.6,0.4c0.3,0.3,0.5,0.6,0.8,0.9l1.2,1.9h-1.2l-0.9-1.5c-0.3-0.4-0.5-0.8-0.7-1
			s-0.3-0.4-0.5-0.5c-0.1-0.1-0.3-0.2-0.4-0.2s-0.3,0-0.5,0h-1.1v3.2h-1L1253.8,274.8L1253.8,274.8z M1254.7,270.8h2
			c0.4,0,0.8,0,1-0.1s0.4-0.2,0.6-0.4c0.1-0.2,0.2-0.4,0.2-0.6c0-0.3-0.1-0.6-0.4-0.8s-0.6-0.3-1.2-0.3h-2.3v2.2L1254.7,270.8
			L1254.7,270.8z"/>
		<path class="st13" d="M1260.5,272.2c0-1,0.3-1.7,0.8-2.1c0.4-0.4,1-0.6,1.6-0.6c0.7,0,1.3,0.2,1.7,0.7c0.4,0.5,0.7,1.1,0.7,1.9
			c0,0.7-0.1,1.2-0.3,1.6c-0.2,0.4-0.5,0.7-0.9,0.9c-0.4,0.2-0.8,0.3-1.2,0.3c-0.7,0-1.3-0.2-1.7-0.7
			C1260.7,273.8,1260.5,273.1,1260.5,272.2z M1261.4,272.2c0,0.7,0.1,1.2,0.4,1.5s0.7,0.5,1.1,0.5s0.8-0.2,1.1-0.5
			c0.3-0.3,0.4-0.8,0.4-1.5c0-0.6-0.1-1.1-0.4-1.4s-0.6-0.5-1.1-0.5c-0.4,0-0.8,0.2-1.1,0.5C1261.5,271.1,1261.4,271.6,1261.4,272.2
			z"/>
		<path class="st13" d="M1266,272.2c0-1,0.3-1.7,0.8-2.1c0.4-0.4,1-0.6,1.6-0.6c0.7,0,1.3,0.2,1.7,0.7c0.4,0.5,0.7,1.1,0.7,1.9
			c0,0.7-0.1,1.2-0.3,1.6c-0.2,0.4-0.5,0.7-0.9,0.9c-0.4,0.2-0.8,0.3-1.2,0.3c-0.7,0-1.3-0.2-1.7-0.7
			C1266.2,273.8,1266,273.1,1266,272.2z M1266.9,272.2c0,0.7,0.1,1.2,0.4,1.5s0.7,0.5,1.1,0.5s0.8-0.2,1.1-0.5s0.4-0.8,0.4-1.5
			c0-0.6-0.1-1.1-0.4-1.4s-0.6-0.5-1.1-0.5c-0.4,0-0.8,0.2-1.1,0.5C1267.1,271.1,1266.9,271.6,1266.9,272.2z"/>
		<path class="st13" d="M1271.9,274.8v-5.2h0.8v0.7c0.2-0.3,0.4-0.5,0.6-0.6c0.3-0.2,0.6-0.2,0.9-0.2c0.4,0,0.7,0.1,0.9,0.2
			s0.4,0.4,0.5,0.7c0.4-0.6,0.9-0.9,1.6-0.9c0.5,0,0.9,0.1,1.2,0.4c0.3,0.3,0.4,0.7,0.4,1.3v3.5h-0.9v-3.2c0-0.3,0-0.6-0.1-0.8
			s-0.2-0.3-0.3-0.4c-0.1-0.1-0.3-0.1-0.5-0.1c-0.4,0-0.7,0.1-0.9,0.4s-0.4,0.6-0.4,1.2v3h-0.9v-3.3c0-0.4-0.1-0.7-0.2-0.9
			c-0.1-0.2-0.4-0.3-0.7-0.3c-0.2,0-0.5,0.1-0.7,0.2s-0.4,0.3-0.5,0.6s-0.1,0.6-0.1,1.1v2.7h-0.7L1271.9,274.8L1271.9,274.8z"/>
	</g>
	<circle class="st14" cx="1250.7" cy="241.4" r="21.6"/>
	<g id="Outline_Icons-6-6">
		<g id="Outline_Icons-7-2">
			<path class="st15" d="M1245.8,245.7h-2.2c-0.8-0.1-1.4-0.7-1.5-1.5v-4.7c0.1-0.8,0.7-1.4,1.5-1.5h14.6c0.8,0.1,1.4,0.7,1.5,1.5
				v4.7c-0.1,0.8-0.7,1.4-1.5,1.5h-2.2"/>
			<polyline class="st15" points="1245.8,236.5 1245.8,233.5 1253.5,233.5 1255.7,235.7 1255.7,236.5 			"/>
			<rect x="1245.8" y="243.4" class="st15" width="9.9" height="6.2"/>
			<circle class="st15" cx="1244.3" cy="240.2" r="0.7"/>
			<line class="st15" x1="1247.3" y1="244.9" x2="1254.2" y2="244.9"/>
			<line class="st15" x1="1247.3" y1="246.4" x2="1254.2" y2="246.4"/>
			<line class="st15" x1="1247.3" y1="247.9" x2="1254.2" y2="247.9"/>
			<polyline class="st15" points="1253.5,233.5 1253.5,235.7 1255.7,235.7 			"/>
		</g>
	</g>
	<g id="Outline_Icons-6">
		<g class="st5">
			<path class="st13" d="M1442.8,358.1l0.9-0.1c0,0.4,0.1,0.7,0.3,0.9c0.2,0.2,0.4,0.4,0.8,0.6c0.3,0.1,0.7,0.2,1.2,0.2
				c0.4,0,0.7-0.1,1-0.2s0.5-0.3,0.6-0.5s0.2-0.4,0.2-0.6s-0.1-0.4-0.2-0.6s-0.4-0.3-0.7-0.4c-0.2-0.1-0.6-0.2-1.3-0.4
				c-0.7-0.2-1.2-0.3-1.4-0.5c-0.4-0.2-0.6-0.4-0.8-0.7s-0.3-0.6-0.3-0.9c0-0.4,0.1-0.7,0.3-1.1c0.2-0.3,0.5-0.6,0.9-0.8
				s0.9-0.3,1.4-0.3c0.6,0,1,0.1,1.5,0.3c0.4,0.2,0.8,0.4,1,0.8c0.2,0.3,0.4,0.7,0.4,1.2l-1,0.1c-0.1-0.5-0.2-0.8-0.5-1.1
				s-0.7-0.4-1.3-0.4c-0.6,0-1,0.1-1.3,0.3c-0.3,0.2-0.4,0.5-0.4,0.8s0.1,0.5,0.3,0.7c0.2,0.2,0.7,0.4,1.5,0.5s1.4,0.3,1.7,0.5
				c0.4,0.2,0.8,0.5,1,0.8s0.3,0.7,0.3,1.1s-0.1,0.8-0.3,1.1c-0.2,0.4-0.6,0.6-1,0.8c-0.4,0.2-0.9,0.3-1.4,0.3
				c-0.7,0-1.2-0.1-1.7-0.3c-0.5-0.2-0.8-0.5-1.1-0.9C1443,359.1,1442.8,358.6,1442.8,358.1z"/>
			<path class="st13" d="M1450,360.5V353h0.9v2.7c0.4-0.5,1-0.7,1.6-0.7c0.4,0,0.8,0.1,1,0.2c0.3,0.2,0.5,0.4,0.6,0.7
				c0.1,0.3,0.2,0.7,0.2,1.2v3.4h-0.9v-3.4c0-0.5-0.1-0.8-0.3-1c-0.2-0.2-0.5-0.3-0.8-0.3s-0.5,0.1-0.8,0.2
				c-0.2,0.1-0.4,0.3-0.5,0.6s-0.2,0.6-0.2,1v3h-0.8L1450,360.5L1450,360.5z"/>
			<path class="st13" d="M1455.5,357.8c0-1,0.3-1.8,0.8-2.2c0.5-0.4,1-0.6,1.7-0.6s1.4,0.2,1.8,0.7s0.7,1.2,0.7,2
				c0,0.7-0.1,1.2-0.3,1.7s-0.5,0.7-0.9,0.9c-0.4,0.2-0.8,0.3-1.3,0.3c-0.8,0-1.4-0.2-1.8-0.7
				C1455.8,359.4,1455.5,358.7,1455.5,357.8z M1456.5,357.8c0,0.7,0.2,1.2,0.5,1.6c0.3,0.3,0.7,0.5,1.1,0.5c0.5,0,0.8-0.2,1.1-0.5
				s0.5-0.9,0.5-1.6s-0.2-1.2-0.5-1.5s-0.7-0.5-1.1-0.5c-0.5,0-0.8,0.2-1.1,0.5C1456.6,356.6,1456.5,357.1,1456.5,357.8z"/>
			<path class="st13" d="M1462.7,360.5l-1.7-5.4h1l0.9,3.1l0.3,1.2c0-0.1,0.1-0.4,0.3-1.1l0.9-3.2h0.9l0.8,3.2l0.3,1l0.3-1l0.9-3.1
				h0.9l-1.7,5.4h-1l-0.9-3.3l-0.2-0.9l-1.1,4.2h-0.9L1462.7,360.5L1462.7,360.5z"/>
			<path class="st13" d="M1473,358.8l1,0.1c-0.1,0.6-0.4,1-0.8,1.3s-0.9,0.5-1.6,0.5c-0.8,0-1.4-0.2-1.9-0.7s-0.7-1.2-0.7-2.1
				s0.2-1.6,0.7-2.1s1.1-0.8,1.8-0.8c0.7,0,1.3,0.2,1.8,0.7s0.7,1.2,0.7,2.1c0,0.1,0,0.1,0,0.2h-4.1c0,0.6,0.2,1.1,0.5,1.4
				s0.7,0.5,1.1,0.5c0.3,0,0.6-0.1,0.9-0.3S1472.9,359.1,1473,358.8z M1470,357.3h3c0-0.5-0.2-0.8-0.3-1c-0.3-0.4-0.7-0.5-1.1-0.5
				s-0.8,0.1-1.1,0.4C1470.2,356.4,1470,356.8,1470,357.3z"/>
			<path class="st13" d="M1475.1,360.5v-5.4h0.8v0.8c0.2-0.4,0.4-0.6,0.6-0.8c0.2-0.1,0.4-0.2,0.6-0.2c0.3,0,0.6,0.1,0.9,0.3
				l-0.3,0.9c-0.2-0.1-0.5-0.2-0.7-0.2s-0.4,0.1-0.5,0.2c-0.2,0.1-0.3,0.3-0.3,0.5c-0.1,0.3-0.2,0.7-0.2,1.1v2.8L1475.1,360.5
				L1475.1,360.5z"/>
			<path class="st13" d="M1478.2,358.9l0.9-0.1c0.1,0.4,0.2,0.6,0.4,0.8c0.2,0.2,0.6,0.3,1,0.3s0.7-0.1,0.9-0.3
				c0.2-0.2,0.3-0.4,0.3-0.6s-0.1-0.4-0.3-0.5c-0.1-0.1-0.4-0.2-0.9-0.3c-0.7-0.2-1.1-0.3-1.4-0.4s-0.5-0.3-0.6-0.5
				s-0.2-0.5-0.2-0.7s0.1-0.5,0.2-0.7s0.3-0.4,0.5-0.5c0.1-0.1,0.3-0.2,0.6-0.3c0.2-0.1,0.5-0.1,0.8-0.1c0.4,0,0.8,0.1,1.1,0.2
				c0.3,0.1,0.6,0.3,0.7,0.5s0.3,0.5,0.3,0.8l-0.9,0.1c0-0.3-0.2-0.5-0.4-0.7s-0.5-0.2-0.8-0.2c-0.4,0-0.7,0.1-0.9,0.2
				c-0.2,0.1-0.3,0.3-0.3,0.5c0,0.1,0,0.2,0.1,0.3c0.1,0.1,0.2,0.2,0.4,0.2c0.1,0,0.4,0.1,0.8,0.2c0.7,0.2,1.1,0.3,1.4,0.4
				s0.5,0.3,0.6,0.5s0.2,0.5,0.2,0.8s-0.1,0.6-0.3,0.9c-0.2,0.3-0.4,0.5-0.8,0.6s-0.7,0.2-1.1,0.2c-0.7,0-1.2-0.1-1.6-0.4
				C1478.6,359.9,1478.3,359.5,1478.2,358.9z"/>
		</g>
		<circle class="st14" cx="1465.5" cy="327.7" r="22.8"/>
	</g>
	<g id="Outline_Icons">
		<line class="st15" x1="1466.9" y1="328.5" x2="1466.9" y2="330"/>
		<line class="st15" x1="1466.9" y1="332" x2="1466.9" y2="333.5"/>
		<line class="st15" x1="1466.9" y1="335.5" x2="1466.9" y2="337"/>
		<line class="st15" x1="1470.9" y1="328.5" x2="1471.5" y2="329.9"/>
		<line class="st15" x1="1472.4" y1="331.7" x2="1473" y2="333"/>
		<line class="st15" x1="1473.8" y1="334.8" x2="1474.5" y2="336.2"/>
		<line class="st15" x1="1462.9" y1="328.5" x2="1462.3" y2="329.9"/>
		<line class="st15" x1="1461.4" y1="331.7" x2="1460.8" y2="333"/>
		<line class="st15" x1="1459.9" y1="334.8" x2="1459.3" y2="336.2"/>
		<line class="st15" x1="1468.7" y1="328.5" x2="1469" y2="330"/>
		<line class="st15" x1="1469.4" y1="331.9" x2="1469.8" y2="333.4"/>
		<line class="st15" x1="1470.2" y1="335.3" x2="1470.5" y2="336.8"/>
		<line class="st15" x1="1465.1" y1="328.5" x2="1464.8" y2="330"/>
		<line class="st15" x1="1464.3" y1="331.9" x2="1464" y2="333.4"/>
		<line class="st15" x1="1463.6" y1="335.3" x2="1463.3" y2="336.8"/>
		<path class="st15" d="M1475.9,325.5h-18l0.9-1.1c3.6-4.5,10.1-5.2,14.5-1.6l0,0h0.1c0.6,0.5,1.1,1,1.6,1.6L1475.9,325.5z"/>
		<polyline class="st15" points="1464.9,320.7 1465.9,318.5 1467.9,318.5 1468.9,320.7 		"/>
		<line class="st15" x1="1466.9" y1="318.5" x2="1466.9" y2="316.5"/>
	</g>
	<g>
		<g class="st5">
			<path class="st10" d="M1869.8,380v-8.6h5.8v1h-4.7v2.7h4v1h-4v3.9H1869.8z"/>
			<path class="st10" d="M1876.9,380v-8.6h1.1v8.6H1876.9z"/>
			<path class="st10" d="M1883.8,378l1.1,0.1c-0.2,0.6-0.5,1.1-1,1.5s-1.1,0.5-1.8,0.5c-0.9,0-1.6-0.3-2.2-0.8s-0.8-1.3-0.8-2.4
				c0-1,0.3-1.9,0.8-2.4s1.2-0.9,2.1-0.9c0.8,0,1.5,0.3,2,0.8s0.8,1.4,0.8,2.4c0,0.1,0,0.2,0,0.3h-4.6c0,0.7,0.2,1.2,0.6,1.6
				s0.8,0.5,1.3,0.5c0.4,0,0.7-0.1,1-0.3S1883.7,378.5,1883.8,378z M1880.4,376.3h3.5c0-0.5-0.2-0.9-0.4-1.2
				c-0.3-0.4-0.8-0.6-1.3-0.6s-0.9,0.2-1.2,0.5S1880.4,375.8,1880.4,376.3z"/>
			<path class="st10" d="M1885.6,380l2.3-3.2l-2.1-3h1.3l1,1.5c0.2,0.3,0.3,0.5,0.4,0.7c0.2-0.3,0.3-0.5,0.5-0.7l1-1.5h1.3l-2.2,2.9
				l2.3,3.3h-1.3l-1.3-1.9l-0.3-0.5l-1.6,2.5L1885.6,380L1885.6,380z"/>
			<path class="st10" d="M1895.4,375.8c0-1.4,0.4-2.5,1.1-3.3s1.8-1.2,3-1.2c0.8,0,1.5,0.2,2.1,0.6s1.1,0.9,1.5,1.6s0.5,1.4,0.5,2.3
				s-0.2,1.7-0.5,2.3s-0.8,1.2-1.5,1.6s-1.3,0.5-2.1,0.5c-0.8,0-1.5-0.2-2.2-0.6s-1.1-0.9-1.4-1.6S1895.4,376.6,1895.4,375.8z
				 M1896.5,375.9c0,1,0.3,1.9,0.8,2.4s1.3,0.9,2.1,0.9c0.9,0,1.6-0.3,2.1-0.9s0.8-1.5,0.8-2.6c0-0.7-0.1-1.3-0.4-1.8
				s-0.6-0.9-1-1.2s-1-0.4-1.5-0.4c-0.8,0-1.5,0.3-2.1,0.8S1896.5,374.6,1896.5,375.9z"/>
		</g>
		<g class="st5">
			<path class="st10" d="M1905.2,380v-5.4h-0.9v-0.8h0.9v-0.7c0-0.4,0-0.7,0.1-0.9c0.1-0.3,0.3-0.5,0.5-0.7s0.6-0.3,1.1-0.3
				c0.3,0,0.6,0,1,0.1l-0.2,0.9c-0.2,0-0.4-0.1-0.6-0.1c-0.3,0-0.5,0.1-0.7,0.2s-0.2,0.4-0.2,0.8v0.6h1.2v0.8h-1.2v5.4h-1
				L1905.2,380L1905.2,380z"/>
		</g>
		<g class="st5">
			<path class="st10" d="M1908.3,380v-5.4h-0.9v-0.8h0.9v-0.7c0-0.4,0-0.7,0.1-0.9c0.1-0.3,0.3-0.5,0.5-0.7s0.6-0.3,1.1-0.3
				c0.3,0,0.6,0,1,0.1l-0.2,0.9c-0.2,0-0.4-0.1-0.6-0.1c-0.3,0-0.5,0.1-0.7,0.2s-0.2,0.4-0.2,0.8v0.6h1.2v0.8h-1.2v5.4h-1
				L1908.3,380L1908.3,380z"/>
			<path class="st10" d="M1911.4,372.6v-1.2h1.1v1.2H1911.4z M1911.4,380v-6.2h1.1v6.2H1911.4z"/>
			<path class="st10" d="M1918.1,377.7l1,0.1c-0.1,0.7-0.4,1.3-0.9,1.7s-1,0.6-1.7,0.6c-0.9,0-1.5-0.3-2.1-0.8s-0.8-1.4-0.8-2.4
				c0-0.7,0.1-1.3,0.3-1.8s0.6-0.9,1-1.1s1-0.4,1.5-0.4c0.7,0,1.2,0.2,1.7,0.5s0.7,0.8,0.8,1.5l-1,0.2c-0.1-0.4-0.3-0.7-0.5-0.9
				s-0.5-0.3-0.9-0.3c-0.5,0-1,0.2-1.3,0.6s-0.5,1-0.5,1.8s0.2,1.4,0.5,1.8s0.7,0.6,1.3,0.6c0.4,0,0.8-0.1,1-0.4
				S1918,378.3,1918.1,377.7z"/>
			<path class="st10" d="M1924.3,378l1.1,0.1c-0.2,0.6-0.5,1.1-1,1.5s-1.1,0.5-1.8,0.5c-0.9,0-1.6-0.3-2.2-0.8s-0.8-1.3-0.8-2.4
				c0-1,0.3-1.9,0.8-2.4s1.2-0.9,2.1-0.9c0.8,0,1.5,0.3,2,0.8s0.8,1.4,0.8,2.4c0,0.1,0,0.2,0,0.3h-4.6c0,0.7,0.2,1.2,0.6,1.6
				s0.8,0.5,1.3,0.5c0.4,0,0.7-0.1,1-0.3S1924.1,378.5,1924.3,378z M1920.8,376.3h3.5c0-0.5-0.2-0.9-0.4-1.2
				c-0.3-0.4-0.8-0.6-1.3-0.6s-0.9,0.2-1.2,0.5S1920.9,375.8,1920.8,376.3z"/>
		</g>
	</g>
	<g>
		<g class="st5">
			<path class="st10" d="M461.4,240.2v-8.6h6.2v1h-5.1v2.6h4.8v1h-4.8v2.9h5.3v1h-6.4V240.2z"/>
		</g>
		<g class="st5">
			<path class="st10" d="M468.5,240.2l3.3-8.6h1.2l3.5,8.6h-1.3l-1-2.6h-3.6l-0.9,2.6H468.5z M471,236.7h2.9l-0.9-2.4
				c-0.3-0.7-0.5-1.3-0.6-1.8c-0.1,0.6-0.3,1.1-0.5,1.6L471,236.7z"/>
		</g>
		<g class="st5">
			<path class="st10" d="M479.8,236c0-1.4,0.4-2.5,1.1-3.3s1.8-1.2,3-1.2c0.8,0,1.5,0.2,2.1,0.6s1.1,0.9,1.5,1.6s0.5,1.4,0.5,2.3
				c0,0.9-0.2,1.7-0.5,2.3s-0.8,1.2-1.5,1.6s-1.3,0.5-2.1,0.5c-0.8,0-1.5-0.2-2.2-0.6s-1.1-0.9-1.4-1.6S479.8,236.8,479.8,236z
				 M480.9,236.1c0,1,0.3,1.9,0.8,2.4s1.3,0.9,2.1,0.9c0.9,0,1.6-0.3,2.1-0.9s0.8-1.5,0.8-2.6c0-0.7-0.1-1.3-0.4-1.8s-0.6-0.9-1-1.2
				s-1-0.4-1.5-0.4c-0.8,0-1.5,0.3-2.1,0.8S480.9,234.8,480.9,236.1z"/>
		</g>
		<g class="st5">
			<path class="st10" d="M489.6,240.2v-5.4h-0.9V234h0.9v-0.7c0-0.4,0-0.7,0.1-0.9c0.1-0.3,0.3-0.5,0.5-0.7s0.6-0.3,1.1-0.3
				c0.3,0,0.6,0,1,0.1l-0.2,0.9c-0.2,0-0.4-0.1-0.6-0.1c-0.3,0-0.5,0.1-0.7,0.2s-0.2,0.4-0.2,0.8v0.6h1.2v0.8h-1.2v5.4L489.6,240.2
				L489.6,240.2z"/>
		</g>
		<g class="st5">
			<path class="st10" d="M492.7,240.2v-5.4h-0.9V234h0.9v-0.7c0-0.4,0-0.7,0.1-0.9c0.1-0.3,0.3-0.5,0.5-0.7s0.6-0.3,1.1-0.3
				c0.3,0,0.6,0,1,0.1l-0.2,0.9c-0.2,0-0.4-0.1-0.6-0.1c-0.3,0-0.5,0.1-0.7,0.2s-0.2,0.4-0.2,0.8v0.6h1.2v0.8h-1.2v5.4L492.7,240.2
				L492.7,240.2z"/>
			<path class="st10" d="M495.8,232.8v-1.2h1.1v1.2H495.8z M495.8,240.2V234h1.1v6.2H495.8z"/>
			<path class="st10" d="M502.5,237.9l1,0.1c-0.1,0.7-0.4,1.3-0.9,1.7s-1,0.6-1.7,0.6c-0.9,0-1.5-0.3-2.1-0.8s-0.8-1.4-0.8-2.4
				c0-0.7,0.1-1.3,0.3-1.8s0.6-0.9,1-1.1s1-0.4,1.5-0.4c0.7,0,1.2,0.2,1.7,0.5s0.7,0.8,0.8,1.5l-1,0.2c-0.1-0.4-0.3-0.7-0.5-0.9
				s-0.5-0.3-0.9-0.3c-0.5,0-1,0.2-1.3,0.6s-0.5,1-0.5,1.8s0.2,1.4,0.5,1.8s0.7,0.6,1.3,0.6c0.4,0,0.8-0.1,1-0.4
				S502.4,238.5,502.5,237.9z"/>
			<path class="st10" d="M508.7,238.2l1.1,0.1c-0.2,0.6-0.5,1.1-1,1.5s-1.1,0.5-1.8,0.5c-0.9,0-1.6-0.3-2.2-0.8s-0.8-1.3-0.8-2.4
				c0-1,0.3-1.9,0.8-2.4s1.2-0.9,2.1-0.9c0.8,0,1.5,0.3,2,0.8s0.8,1.4,0.8,2.4c0,0.1,0,0.2,0,0.3h-4.6c0,0.7,0.2,1.2,0.6,1.6
				s0.8,0.5,1.3,0.5c0.4,0,0.7-0.1,1-0.3S508.5,238.7,508.7,238.2z M505.2,236.5h3.5c0-0.5-0.2-0.9-0.4-1.2
				c-0.3-0.4-0.8-0.6-1.3-0.6s-0.9,0.2-1.2,0.5S505.2,236,505.2,236.5z"/>
		</g>
	</g>
	<g>
		<circle class="st9" cx="1570.7" cy="268.4" r="19.2"/>
		<path class="st16" d="M1565.4,275.1v-9.6c0-0.5,0.4-1,1.1-1h1.9c0.5,0,1.1,0.4,1.1,1v9.6c0,0.5-0.4,1-1.1,1h-1.9
			C1565.9,276.1,1565.4,275.7,1565.4,275.1z M1569.6,275.1v-9.6c0-0.5,0.4-1,1.1-1h1.9c0.5,0,1,0.4,1,1v9.6c0,0.5-0.4,1-1,1h-1.9
			C1570.2,276.1,1569.6,275.7,1569.6,275.1z M1577.4,276.1h-2.5c-0.5,0-1.1-0.4-1.1-1v-9.8c0-0.6-0.5-1.2-1.1-1.2h-7.3
			c-0.1,0-0.2,0.1-0.2,0.2l0,0V275c0,0.5-0.4,1-1.1,1l0,0c-0.5,0-1-0.4-1-1v-13.2c0-0.5,0.4-1,1-1h13.2c0.5,0,1.1,0.4,1.1,1V275
			C1578.4,275.7,1577.9,276.1,1577.4,276.1z M1578.6,260.5H1563c-0.1,0-0.2,0.1-0.2,0.2l0,0v14.6c0,0.6,0.5,1.2,1.1,1.2h14.6
			c0.1,0,0.2-0.1,0.2-0.2l0,0v-15.5C1578.6,260.5,1578.6,260.5,1578.6,260.5z"/>
		<g class="st5">
			<path class="st13" d="M1554.8,297.5V291h4.7v0.8h-3.9v2h3.6v0.8h-3.6v2.2h4v0.8L1554.8,297.5L1554.8,297.5z"/>
			<path class="st13" d="M1560.7,297.5V291h0.8v6.5H1560.7z"/>
			<path class="st13" d="M1566,296l0.8,0.1c-0.1,0.4-0.4,0.9-0.7,1.1c-0.4,0.3-0.8,0.4-1.3,0.4c-0.7,0-1.2-0.2-1.7-0.6
				c-0.4-0.4-0.6-1.1-0.6-1.8c0-0.8,0.2-1.4,0.6-1.9c0.4-0.4,1-0.6,1.6-0.6s1.1,0.2,1.6,0.6c0.4,0.4,0.6,1.1,0.6,1.9
				c0,0.1,0,0.1,0,0.2h-3.5c0,0.5,0.2,0.9,0.4,1.1c0.3,0.3,0.6,0.4,1,0.4c0.3,0,0.5-0.1,0.8-0.3C1565.8,296.6,1565.9,296.4,1566,296
				z M1563.4,294.7h2.6c0-0.4-0.2-0.7-0.3-0.9c-0.3-0.3-0.6-0.4-1-0.4s-0.7,0.1-1,0.4C1563.6,294,1563.5,294.3,1563.4,294.7z"/>
			<path class="st13" d="M1569.2,297.5l-1.8-4.7h0.9l1,2.8c0.1,0.3,0.2,0.6,0.3,1c0.1-0.3,0.2-0.5,0.3-0.9l1.1-2.9h0.8l-1.8,4.7
				H1569.2L1569.2,297.5z"/>
			<path class="st13" d="M1575.5,296.9c-0.3,0.3-0.6,0.4-0.9,0.5c-0.3,0.1-0.5,0.2-0.9,0.2c-0.5,0-0.9-0.1-1.2-0.4s-0.4-0.6-0.4-1
				c0-0.3,0.1-0.4,0.2-0.6c0.1-0.2,0.3-0.4,0.4-0.4s0.4-0.2,0.6-0.3c0.2,0,0.4-0.1,0.7-0.1c0.6-0.1,1.1-0.2,1.4-0.3
				c0-0.1,0-0.2,0-0.2c0-0.4-0.1-0.5-0.3-0.7c-0.2-0.2-0.5-0.3-0.9-0.3s-0.6,0.1-0.8,0.2s-0.4,0.4-0.4,0.7l-0.8-0.1
				c0.1-0.4,0.2-0.6,0.4-0.8c0.2-0.2,0.4-0.4,0.7-0.4c0.3-0.1,0.7-0.2,1.1-0.2c0.4,0,0.7,0.1,1,0.2s0.4,0.2,0.5,0.4
				c0.1,0.2,0.2,0.4,0.3,0.5c0,0.2,0,0.4,0,0.7v1.1c0,0.7,0,1.2,0.1,1.4c0,0.2,0.1,0.4,0.2,0.5h-0.8
				C1575.6,297.4,1575.6,297.2,1575.5,296.9z M1575.5,295.2c-0.3,0.1-0.7,0.2-1.3,0.3c-0.4,0.1-0.5,0.1-0.7,0.2
				c-0.2,0.1-0.3,0.2-0.4,0.3c-0.1,0.1-0.1,0.3-0.1,0.4c0,0.2,0.1,0.4,0.3,0.5c0.2,0.2,0.4,0.2,0.7,0.2c0.3,0,0.6-0.1,0.8-0.2
				c0.3-0.2,0.4-0.4,0.5-0.5c0.1-0.2,0.1-0.4,0.1-0.8L1575.5,295.2L1575.5,295.2z"/>
			<path class="st13" d="M1579.3,296.8l0.1,0.7c-0.3,0.1-0.4,0.1-0.6,0.1c-0.3,0-0.5-0.1-0.7-0.2c-0.2-0.1-0.3-0.2-0.4-0.4
				c-0.1-0.2-0.1-0.4-0.1-1v-2.7h-0.6v-0.6h0.6v-1.1l0.8-0.4v1.7h0.8v0.6h-0.8v2.7c0,0.3,0,0.4,0,0.4s0.1,0.1,0.2,0.2
				c0.1,0,0.2,0.1,0.3,0.1C1579,296.8,1579.1,296.8,1579.3,296.8z"/>
			<path class="st13" d="M1579.7,295.2c0-0.9,0.3-1.5,0.7-1.9c0.4-0.4,0.9-0.5,1.5-0.5c0.6,0,1.1,0.2,1.6,0.6c0.4,0.4,0.6,1,0.6,1.8
				c0,0.6-0.1,1.1-0.3,1.4c-0.2,0.4-0.4,0.6-0.8,0.8c-0.4,0.2-0.7,0.3-1.1,0.3c-0.6,0-1.2-0.2-1.6-0.6
				C1579.9,296.6,1579.7,296,1579.7,295.2z M1580.5,295.2c0,0.6,0.1,1.1,0.4,1.3c0.3,0.3,0.6,0.4,1,0.4c0.4,0,0.7-0.2,1-0.4
				s0.4-0.8,0.4-1.4c0-0.6-0.2-1.1-0.4-1.3c-0.3-0.3-0.6-0.4-1-0.4c-0.4,0-0.7,0.2-1,0.4C1580.5,294,1580.5,294.5,1580.5,295.2z"/>
			<path class="st13" d="M1585.1,297.5v-4.7h0.7v0.7c0.2-0.4,0.4-0.5,0.5-0.7c0.2-0.1,0.4-0.2,0.5-0.2c0.3,0,0.5,0.1,0.8,0.3
				l-0.3,0.7c-0.2-0.1-0.4-0.2-0.6-0.2c-0.2,0-0.4,0.1-0.4,0.2c-0.1,0.1-0.3,0.3-0.3,0.4c-0.1,0.3-0.2,0.6-0.2,1v2.5L1585.1,297.5
				L1585.1,297.5z"/>
		</g>
	</g>
</g>
</svg>
