<?xml version="1.0" encoding="utf-8"?>
<!-- Generator: Adobe Illustrator 25.2.0, SVG Export Plug-In . SVG Version: 6.00 Build 0)  -->
<svg version="1.1" id="Layer_1" xmlns="http://www.w3.org/2000/svg" xmlns:xlink="http://www.w3.org/1999/xlink" x="0px" y="0px"
	 viewBox="0 0 2181.5 1080" style="enable-background:new 0 0 2181.5 1080;" xml:space="preserve">
<style type="text/css">
	.st0{fill:#23A2B7;stroke:#23A2B7;stroke-width:5;stroke-miterlimit:10;}
	.st1{fill:#A8E0E5;}
	.st2{fill:#99B8BF;}
	.st3{fill:#8ECCCE;}
	.st4{opacity:0.74;fill:#575757;enable-background:new    ;}
	.st5{enable-background:new    ;}
	.st6{fill:#FFFFFF;}
	.st7{fill:#646B6D;}
	.st8{fill:none;stroke:#FFFFFF;stroke-width:10;stroke-miterlimit:10;}
	.st9{fill:none;stroke:#FFFFFF;stroke-width:5;stroke-miterlimit:10;}
	.st10{fill:#EBF2F2;}
	.st11{fill:none;stroke:#7A8E93;stroke-width:0.709;stroke-miterlimit:10;}
	.st12{fill:none;stroke:#7A8E93;stroke-width:0.74;stroke-linecap:round;stroke-linejoin:round;}
	.st13{fill:#767E80;}
	.st14{fill:#EBF1F2;}
	.st15{fill:none;stroke:#7A8E93;stroke-width:0.827;stroke-miterlimit:10;}
	.st16{fill:#7A8E93;stroke:#7A8E93;stroke-width:0.359;stroke-miterlimit:10;}
	.st17{fill:#757D7F;}
	.st18{fill:none;stroke:#7A8E93;stroke-width:0.39;stroke-miterlimit:10;}
</style>
<g id="shadow">
	<polygon class="st0" points="36,147.4 2114,153.4 2124,696.9 1408.3,741.9 1395.3,970.2 1225.1,978.2 1225.1,961.2 880.8,978.2 
		880.2,919.5 730,907.7 137.1,973.2 110,713.7 132.5,713.7 139.1,720.3 165.4,712.1 123.7,388.6 95,393.6 92.5,407.7 70,408.6 	"/>
</g>
<g id="background">
	<polygon class="st1" points="34.1,124.5 2112.1,130.5 2122.1,674 1406.4,719.1 1393.4,947.3 1223.2,955.3 1223.2,938.3 
		878.9,955.3 878.3,896.6 728.1,884.8 135.2,950.3 108.1,690.8 130.6,690.8 137.2,697.4 163.5,689.3 121.8,365.7 93.1,370.7 
		90.6,384.9 68.1,385.8 	"/>
</g>
<g id="spaces">
	<polygon class="st2" points="106.1,692 131.1,689 134.2,700.1 164.2,695 167.9,707 414.6,674.5 429.9,776.9 622.5,755.5 
		641.1,894.4 137.1,950.1 	"/>
	<path class="st2" d="M1746.7,304.9h184v260.6h189.5l2,108.5l-715.7,45l-13,228.2l-167.2,8l-8.9-13.9l-335.7,11.2l-4.7-58.2
		l-143.1-10.2l-92.6,10.2l-56.6-422.6l20.3-7.6l-7.5-13.9c0,0,41.2-20.1,50.7-44.3l16.4,25.5l444-1.8l538.1,0.2V307.1h6.3v50.7h55.6
		V305L1746.7,304.9z"/>
	<path class="st2" d="M590.8,187h152.9v48.1h-74.8v47.4h-15.8C653.1,282.5,642.7,235,590.8,187z"/>
	<rect x="1052.4" y="187" class="st2" width="123.3" height="57.2"/>
	<rect x="1496" y="344.7" class="st2" width="150.7" height="85.1"/>
	<path class="st3" d="M34.1,124.5H339l21.9,147l10.3-2.1c0,0-3.1-35.7,4.1-54.3c4.6-11.7,10.4-22.8,17.3-33.3
		c0,0-5.9-25.9,12.7-34.4s40.3,2.1,40.3,2.1s46.4-10.3,76.2,0.9c29.8,11.2,74.6,44,74.6,44s29.1,21.5,46.9,65.5l9.9,22.6H669v-48.6
		h220.2V187h163.3v57.2h247.2v-57.5h15.3v-58.5h61.6v59.5H1494v42.5h152.6V130h463.5l10,435.6h-189.5V304.9h-222.1v52.8h-55.6V307
		h-6.3v37.6H1496v85.1l-815-0.3V407h-12.1v-71.6H662c0,0,3,43.3-13.9,70.5s-50.7,44.3-50.7,44.3s-34.1,12.2-68.2,3.2
		s-69.6-18.1-89.8-42.1s-38.1-39-50.4-65.3l-12.2-26.3l-8.7-1.9l36.7,266.4l191.5-24.9l26.3,196.2L430,776.8l-15.4-102.3l-5.2,3.5
		L168,707l-11.2-90.6l-32-251.2l-31.6,5.5l-2.5,14.1l-22.5,0.9L34.1,124.5z"/>
</g>
<g id="bookable">
	<polygon id="area-02.2.03-status" class="st4" points="124.1,365.7 370.5,335.1 414.8,676.7 167.9,707 	"/>
	<rect id="area-02.2.11-status" x="889.1" y="187" class="st4" width="163.3" height="242.8"/>
	<rect id="area-02.2.12-status" x="1052.4" y="244.3" class="st4" width="247.2" height="185.5"/>
	<rect id="area-02.2.17-status" x="1376.6" y="189.5" class="st4" width="119.4" height="240.3"/>
	<polygon id="area-02.2.22-status" class="st4" points="2114,303.5 1938.8,303.5 1938.8,133.6 2110,133.6 	"/>
	<g class="st5">
		<path class="st6" d="M259.6,515l1.7-0.2c0.1,0.6,0.3,1,0.6,1.2s0.7,0.4,1.3,0.4c0.6,0,1-0.1,1.3-0.4s0.4-0.5,0.4-0.8
			c0-0.2-0.1-0.4-0.2-0.5s-0.3-0.3-0.6-0.4c-0.2-0.1-0.7-0.2-1.4-0.4c-0.9-0.2-1.6-0.5-2-0.8c-0.5-0.5-0.8-1-0.8-1.7
			c0-0.4,0.1-0.8,0.4-1.2s0.6-0.7,1.1-0.9s1-0.3,1.7-0.3c1.1,0,1.9,0.2,2.4,0.7s0.8,1.1,0.9,1.9l-1.7,0.1c-0.1-0.4-0.2-0.8-0.5-1
			s-0.6-0.3-1.1-0.3s-0.9,0.1-1.2,0.3c-0.2,0.1-0.3,0.3-0.3,0.5s0.1,0.4,0.3,0.5c0.2,0.2,0.8,0.4,1.6,0.6s1.5,0.4,1.9,0.6
			s0.7,0.5,0.9,0.9s0.3,0.8,0.3,1.4c0,0.5-0.1,1-0.4,1.4s-0.7,0.7-1.2,1s-1.1,0.3-1.9,0.3c-1.1,0-1.9-0.3-2.5-0.8
			S259.7,515.9,259.6,515z"/>
		<path class="st6" d="M269.3,513.4l-1.5-0.3c0.2-0.6,0.5-1,0.9-1.3s1-0.4,1.8-0.4c0.7,0,1.3,0.1,1.6,0.3s0.6,0.4,0.8,0.7
			s0.2,0.8,0.2,1.5v1.9c0,0.5,0,1,0.1,1.2s0.2,0.5,0.3,0.8h-1.6c0-0.1-0.1-0.3-0.2-0.5c0-0.1,0-0.2-0.1-0.2
			c-0.3,0.3-0.6,0.5-0.9,0.6s-0.7,0.2-1,0.2c-0.6,0-1.1-0.2-1.5-0.5s-0.6-0.8-0.6-1.3c0-0.4,0.1-0.7,0.3-0.9s0.4-0.5,0.7-0.6
			s0.7-0.3,1.3-0.4c0.8-0.1,1.3-0.3,1.6-0.4v-0.2c0-0.3-0.1-0.5-0.2-0.7s-0.5-0.2-0.9-0.2c-0.3,0-0.5,0.1-0.7,0.2
			S269.4,513.1,269.3,513.4z M271.5,514.8c-0.2,0.1-0.5,0.2-1,0.3s-0.8,0.2-0.9,0.3c-0.2,0.2-0.3,0.3-0.3,0.6c0,0.2,0.1,0.4,0.3,0.6
			s0.4,0.3,0.7,0.3c0.3,0,0.6-0.1,0.8-0.3c0.2-0.1,0.3-0.3,0.4-0.5c0-0.1,0.1-0.4,0.1-0.8v-0.5L271.5,514.8L271.5,514.8z"/>
		<path class="st6" d="M274.6,518.2l1.9,0.2c0,0.2,0.1,0.4,0.2,0.5c0.2,0.1,0.4,0.2,0.7,0.2c0.4,0,0.8-0.1,1-0.2
			c0.1-0.1,0.3-0.2,0.3-0.4c0.1-0.1,0.1-0.4,0.1-0.8v-0.9c-0.5,0.7-1.1,1-1.9,1s-1.5-0.4-2-1.1c-0.4-0.6-0.6-1.3-0.6-2.1
			c0-1,0.3-1.8,0.8-2.4s1.1-0.8,1.9-0.8s1.4,0.3,1.9,1v-0.9h1.5v5.6c0,0.7-0.1,1.3-0.2,1.6s-0.3,0.6-0.5,0.9s-0.5,0.4-0.9,0.5
			s-0.8,0.2-1.4,0.2c-1.1,0-1.8-0.2-2.2-0.5s-0.7-0.8-0.7-1.4C274.6,518.3,274.6,518.2,274.6,518.2z M276.1,514.5
			c0,0.7,0.1,1.1,0.4,1.5s0.6,0.5,0.9,0.5c0.4,0,0.7-0.2,1-0.5s0.4-0.8,0.4-1.4c0-0.6-0.1-1.1-0.4-1.4s-0.6-0.5-1-0.5
			s-0.7,0.2-1,0.5S276.1,513.9,276.1,514.5z"/>
		<path class="st6" d="M283.3,513.4l-1.5-0.3c0.2-0.6,0.5-1,0.9-1.3s1-0.4,1.8-0.4c0.7,0,1.3,0.1,1.6,0.3s0.6,0.4,0.8,0.7
			s0.2,0.8,0.2,1.5v1.9c0,0.5,0,1,0.1,1.2s0.2,0.5,0.3,0.8h-1.6c0-0.1-0.1-0.3-0.2-0.5c0-0.1,0-0.2-0.1-0.2
			c-0.3,0.3-0.6,0.5-0.9,0.6s-0.7,0.2-1,0.2c-0.6,0-1.1-0.2-1.5-0.5s-0.6-0.8-0.6-1.3c0-0.4,0.1-0.7,0.3-0.9s0.4-0.5,0.7-0.6
			s0.7-0.3,1.3-0.4c0.8-0.1,1.3-0.3,1.6-0.4v-0.2c0-0.3-0.1-0.5-0.2-0.7s-0.5-0.2-0.9-0.2c-0.3,0-0.5,0.1-0.7,0.2
			S283.4,513.1,283.3,513.4z M285.5,514.8c-0.2,0.1-0.5,0.2-1,0.3s-0.8,0.2-0.9,0.3c-0.2,0.2-0.3,0.3-0.3,0.6c0,0.2,0.1,0.4,0.3,0.6
			s0.4,0.3,0.7,0.3c0.3,0,0.6-0.1,0.8-0.3c0.2-0.1,0.3-0.3,0.4-0.5c0-0.1,0.1-0.4,0.1-0.8v-0.5L285.5,514.8L285.5,514.8z"/>
	</g>
	<g class="st5">
		<path class="st6" d="M931.8,319.4v-8.6h2.8c1.1,0,1.7,0,2.1,0.1c0.5,0.1,0.9,0.4,1.2,0.8s0.5,1,0.5,1.7c0,0.5-0.1,1-0.3,1.3
			s-0.4,0.6-0.7,0.8s-0.6,0.3-0.9,0.4c-0.4,0.1-1,0.1-1.8,0.1h-1.1v3.2h-1.8V319.4z M933.5,312.2v2.4h0.9c0.7,0,1.1,0,1.4-0.1
			s0.4-0.2,0.5-0.4s0.2-0.4,0.2-0.7c0-0.3-0.1-0.6-0.3-0.8s-0.4-0.3-0.7-0.4c-0.2,0-0.6-0.1-1.2-0.1h-0.8L933.5,312.2L933.5,312.2z"
			/>
		<path class="st6" d="M941,315.1l-1.5-0.3c0.2-0.6,0.5-1,0.9-1.3s1-0.4,1.8-0.4c0.7,0,1.3,0.1,1.6,0.3s0.6,0.4,0.8,0.7
			s0.2,0.8,0.2,1.5v1.9c0,0.5,0,1,0.1,1.2s0.2,0.5,0.3,0.8h-1.6c0-0.1-0.1-0.3-0.2-0.5c0-0.1,0-0.2-0.1-0.2
			c-0.3,0.3-0.6,0.5-0.9,0.6s-0.7,0.2-1,0.2c-0.6,0-1.1-0.2-1.5-0.5s-0.6-0.8-0.6-1.3c0-0.4,0.1-0.7,0.3-0.9s0.4-0.5,0.7-0.6
			s0.7-0.3,1.3-0.4c0.8-0.1,1.3-0.3,1.6-0.4v-0.2c0-0.3-0.1-0.5-0.2-0.7s-0.5-0.2-0.9-0.2c-0.3,0-0.5,0.1-0.7,0.2
			S941.1,314.8,941,315.1z M943.2,316.4c-0.2,0.1-0.5,0.2-1,0.3s-0.8,0.2-0.9,0.3c-0.2,0.2-0.3,0.3-0.3,0.6c0,0.2,0.1,0.4,0.3,0.6
			s0.4,0.3,0.7,0.3s0.6-0.1,0.8-0.3c0.2-0.1,0.3-0.3,0.4-0.5c0-0.1,0.1-0.4,0.1-0.8L943.2,316.4L943.2,316.4z"/>
		<path class="st6" d="M948,319.4h-1.6v-6.2h1.5v0.9c0.3-0.4,0.5-0.7,0.7-0.8s0.4-0.2,0.7-0.2c0.4,0,0.7,0.1,1.1,0.3l-0.5,1.4
			c-0.3-0.2-0.5-0.3-0.8-0.3c-0.2,0-0.4,0.1-0.6,0.2s-0.3,0.4-0.4,0.7s-0.1,1-0.1,2.1L948,319.4L948,319.4z"/>
		<path class="st6" d="M954,313.2v1.3h-1.1v2.5c0,0.5,0,0.8,0,0.9s0.1,0.2,0.1,0.2s0.2,0.1,0.3,0.1c0.2,0,0.4-0.1,0.7-0.2l0.1,1.3
			c-0.4,0.2-0.8,0.2-1.3,0.2c-0.3,0-0.6,0-0.8-0.1s-0.4-0.2-0.5-0.4s-0.2-0.4-0.2-0.6s-0.1-0.6-0.1-1.2v-2.7h-0.8v-1.3h0.8V312
			l1.7-1v2.2H954L954,313.2z"/>
		<path class="st6" d="M960.8,319.4h-1.6v-3.2c0-0.7,0-1.1-0.1-1.3s-0.2-0.4-0.3-0.5s-0.3-0.2-0.6-0.2s-0.5,0.1-0.8,0.2
			s-0.4,0.4-0.5,0.6s-0.1,0.7-0.1,1.4v2.8h-1.6V313h1.5v0.9c0.5-0.7,1.2-1.1,2.1-1.1c0.4,0,0.7,0.1,1,0.2s0.5,0.3,0.7,0.5
			s0.3,0.4,0.3,0.7s0.1,0.6,0.1,1.1v4.1L960.8,319.4L960.8,319.4z"/>
		<path class="st6" d="M966,317.4l1.6,0.3c-0.2,0.6-0.5,1.1-1,1.4s-1,0.5-1.7,0.5c-1.1,0-1.9-0.4-2.4-1.1c-0.4-0.6-0.6-1.3-0.6-2.1
			c0-1,0.3-1.8,0.8-2.4s1.2-0.9,2-0.9c0.9,0,1.7,0.3,2.2,0.9s0.8,1.5,0.8,2.8h-4.1c0,0.5,0.1,0.9,0.4,1.1s0.6,0.4,0.9,0.4
			c0.3,0,0.5-0.1,0.7-0.2S965.9,317.7,966,317.4z M966.1,315.7c0-0.5-0.1-0.8-0.4-1.1s-0.5-0.4-0.9-0.4s-0.7,0.1-0.9,0.4
			s-0.3,0.6-0.3,1.1H966.1z"/>
		<path class="st6" d="M970.7,319.4H969v-6.2h1.5v0.9c0.3-0.4,0.5-0.7,0.7-0.8s0.4-0.2,0.7-0.2c0.4,0,0.7,0.1,1.1,0.3l-0.5,1.4
			c-0.3-0.2-0.5-0.3-0.8-0.3c-0.2,0-0.4,0.1-0.6,0.2s-0.3,0.4-0.4,0.7s-0.1,1-0.1,2.1L970.7,319.4L970.7,319.4z"/>
		<path class="st6" d="M978.7,319.4H977v-6.2h1.5v0.9c0.3-0.4,0.5-0.7,0.7-0.8s0.4-0.2,0.7-0.2c0.4,0,0.7,0.1,1.1,0.3l-0.5,1.4
			c-0.3-0.2-0.5-0.3-0.8-0.3c-0.2,0-0.4,0.1-0.6,0.2s-0.3,0.4-0.4,0.7s-0.1,1-0.1,2.1L978.7,319.4L978.7,319.4z"/>
		<path class="st6" d="M981.4,316.2c0-0.5,0.1-1.1,0.4-1.6s0.7-0.9,1.1-1.2s1-0.4,1.7-0.4c0.9,0,1.7,0.3,2.3,0.9s0.9,1.4,0.9,2.3
			s-0.3,1.7-0.9,2.3s-1.4,0.9-2.3,0.9c-0.6,0-1.1-0.1-1.6-0.4s-0.9-0.6-1.2-1.1S981.4,316.9,981.4,316.2z M983.1,316.3
			c0,0.6,0.1,1.1,0.4,1.4s0.7,0.5,1.1,0.5s0.8-0.2,1.1-0.5s0.4-0.8,0.4-1.4s-0.1-1.1-0.4-1.4s-0.7-0.5-1.1-0.5s-0.8,0.2-1.1,0.5
			S983.1,315.7,983.1,316.3z"/>
		<path class="st6" d="M988.7,316.2c0-0.5,0.1-1.1,0.4-1.6s0.7-0.9,1.1-1.2s1-0.4,1.7-0.4c0.9,0,1.7,0.3,2.3,0.9s0.9,1.4,0.9,2.3
			s-0.3,1.7-0.9,2.3s-1.4,0.9-2.3,0.9c-0.6,0-1.1-0.1-1.6-0.4s-0.9-0.6-1.2-1.1S988.7,316.9,988.7,316.2z M990.4,316.3
			c0,0.6,0.1,1.1,0.4,1.4s0.7,0.5,1.1,0.5s0.8-0.2,1.1-0.5s0.4-0.8,0.4-1.4s-0.1-1.1-0.4-1.4s-0.7-0.5-1.1-0.5s-0.8,0.2-1.1,0.5
			S990.4,315.7,990.4,316.3z"/>
		<path class="st6" d="M996.3,313.2h1.5v0.8c0.5-0.7,1.2-1,1.9-1c0.4,0,0.7,0.1,1,0.2s0.5,0.4,0.7,0.7c0.3-0.3,0.6-0.6,0.9-0.7
			s0.7-0.2,1-0.2c0.5,0,0.8,0.1,1.2,0.3s0.6,0.5,0.7,0.8c0.1,0.3,0.2,0.7,0.2,1.3v4h-1.6v-3.6c0-0.6-0.1-1-0.2-1.2
			c-0.2-0.2-0.4-0.4-0.7-0.4c-0.2,0-0.4,0.1-0.7,0.2s-0.3,0.3-0.4,0.6s-0.1,0.7-0.1,1.3v3h-1.6V316c0-0.6,0-1-0.1-1.2
			s-0.1-0.3-0.3-0.4s-0.3-0.1-0.5-0.1c-0.3,0-0.5,0.1-0.7,0.2s-0.3,0.3-0.4,0.6s-0.1,0.7-0.1,1.3v3h-1.6v-6.2L996.3,313.2
			L996.3,313.2z"/>
		<path class="st6" d="M1015.6,317.8v1.5h-5.8c0.1-0.6,0.2-1.1,0.6-1.6s0.9-1.2,1.9-2.1c0.7-0.7,1.2-1.2,1.4-1.4
			c0.2-0.3,0.3-0.7,0.3-1c0-0.4-0.1-0.6-0.3-0.8s-0.5-0.3-0.8-0.3s-0.6,0.1-0.8,0.3s-0.3,0.6-0.4,1l-1.6-0.2c0.1-0.9,0.4-1.6,0.9-2
			s1.2-0.6,1.9-0.6c0.8,0,1.5,0.2,2,0.7s0.7,1,0.7,1.7c0,0.4-0.1,0.8-0.2,1.1s-0.4,0.7-0.7,1.1c-0.2,0.3-0.6,0.6-1.1,1.1
			s-0.8,0.8-1,0.9s-0.3,0.3-0.3,0.5L1015.6,317.8L1015.6,317.8z"/>
	</g>
	<g class="st5">
		<path class="st6" d="M1021,319.4h-1.6v-6.2c-0.6,0.6-1.3,1-2.1,1.2v-1.5c0.4-0.1,0.9-0.4,1.4-0.8s0.8-0.9,1-1.4h1.3L1021,319.4
			L1021,319.4z"/>
	</g>
	<g class="st5">
		<path class="st6" d="M1027,319.4h-1.6v-6.2c-0.6,0.6-1.3,1-2.1,1.2v-1.5c0.4-0.1,0.9-0.4,1.4-0.8s0.8-0.9,1-1.4h1.3L1027,319.4
			L1027,319.4z"/>
	</g>
	<g class="st5">
		<path class="st6" d="M1129.5,319.2v-8.6h2.8c1.1,0,1.7,0,2.1,0.1c0.5,0.1,0.9,0.4,1.2,0.8s0.5,1,0.5,1.7c0,0.5-0.1,1-0.3,1.3
			s-0.4,0.6-0.7,0.8s-0.6,0.3-0.9,0.4c-0.4,0.1-1,0.1-1.8,0.1h-1.1v3.2h-1.8L1129.5,319.2L1129.5,319.2z M1131.2,312.1v2.4h0.9
			c0.7,0,1.1,0,1.4-0.1s0.4-0.2,0.5-0.4s0.2-0.4,0.2-0.7c0-0.3-0.1-0.6-0.3-0.8s-0.4-0.3-0.7-0.4c-0.2,0-0.6-0.1-1.2-0.1h-0.8V312.1
			z"/>
		<path class="st6" d="M1138.7,314.9l-1.5-0.3c0.2-0.6,0.5-1,0.9-1.3s1-0.4,1.8-0.4c0.7,0,1.3,0.1,1.6,0.3s0.6,0.4,0.8,0.7
			s0.2,0.8,0.2,1.5v1.9c0,0.5,0,1,0.1,1.2s0.2,0.5,0.3,0.8h-1.6c0-0.1-0.1-0.3-0.2-0.5c0-0.1,0-0.2-0.1-0.2
			c-0.3,0.3-0.6,0.5-0.9,0.6s-0.7,0.2-1,0.2c-0.6,0-1.1-0.2-1.5-0.5s-0.6-0.8-0.6-1.3c0-0.4,0.1-0.7,0.3-0.9s0.4-0.5,0.7-0.6
			s0.7-0.3,1.3-0.4c0.8-0.1,1.3-0.3,1.6-0.4V315c0-0.3-0.1-0.5-0.2-0.7s-0.5-0.2-0.9-0.2c-0.3,0-0.5,0.1-0.7,0.2
			S1138.8,314.6,1138.7,314.9z M1140.9,316.3c-0.2,0.1-0.5,0.2-1,0.3s-0.8,0.2-0.9,0.3c-0.2,0.2-0.3,0.3-0.3,0.6
			c0,0.2,0.1,0.4,0.3,0.6s0.4,0.3,0.7,0.3c0.3,0,0.6-0.1,0.8-0.3c0.2-0.1,0.3-0.3,0.4-0.5c0-0.1,0.1-0.4,0.1-0.8L1140.9,316.3
			L1140.9,316.3z"/>
		<path class="st6" d="M1145.7,319.2h-1.6V313h1.5v0.9c0.3-0.4,0.5-0.7,0.7-0.8s0.4-0.2,0.7-0.2c0.4,0,0.7,0.1,1.1,0.3l-0.5,1.4
			c-0.3-0.2-0.5-0.3-0.8-0.3c-0.2,0-0.4,0.1-0.6,0.2s-0.3,0.4-0.4,0.7s-0.1,1-0.1,2.1L1145.7,319.2L1145.7,319.2z"/>
		<path class="st6" d="M1151.7,313v1.3h-1.1v2.5c0,0.5,0,0.8,0,0.9s0.1,0.2,0.1,0.2s0.2,0.1,0.3,0.1c0.2,0,0.4-0.1,0.7-0.2l0.1,1.3
			c-0.4,0.2-0.8,0.2-1.3,0.2c-0.3,0-0.6,0-0.8-0.1s-0.4-0.2-0.5-0.4s-0.2-0.4-0.2-0.6s-0.1-0.6-0.1-1.2v-2.7h-0.8V313h0.8v-1.2
			l1.7-1v2.2H1151.7z"/>
		<path class="st6" d="M1158.5,319.2h-1.6V316c0-0.7,0-1.1-0.1-1.3s-0.2-0.4-0.3-0.5s-0.3-0.2-0.6-0.2c-0.3,0-0.5,0.1-0.8,0.2
			s-0.4,0.4-0.5,0.6s-0.1,0.7-0.1,1.4v2.8h-1.6v-6h1.5v0.9c0.5-0.7,1.2-1.1,2.1-1.1c0.4,0,0.7,0.1,1,0.2s0.5,0.3,0.7,0.5
			s0.3,0.4,0.3,0.7s0.1,0.6,0.1,1.1L1158.5,319.2L1158.5,319.2z"/>
		<path class="st6" d="M1163.8,317.3l1.6,0.3c-0.2,0.6-0.5,1.1-1,1.4s-1,0.5-1.7,0.5c-1.1,0-1.9-0.4-2.4-1.1
			c-0.4-0.6-0.6-1.3-0.6-2.1c0-1,0.3-1.8,0.8-2.4s1.2-0.9,2-0.9c0.9,0,1.7,0.3,2.2,0.9s0.8,1.5,0.8,2.8h-4.1c0,0.5,0.1,0.9,0.4,1.1
			s0.6,0.4,0.9,0.4s0.5-0.1,0.7-0.2S1163.7,317.6,1163.8,317.3z M1163.9,315.6c0-0.5-0.1-0.8-0.4-1.1s-0.5-0.4-0.9-0.4
			s-0.7,0.1-0.9,0.4s-0.3,0.6-0.3,1.1H1163.9z"/>
		<path class="st6" d="M1168.4,319.2h-1.6V313h1.5v0.9c0.3-0.4,0.5-0.7,0.7-0.8s0.4-0.2,0.7-0.2c0.4,0,0.7,0.1,1.1,0.3l-0.5,1.4
			c-0.3-0.2-0.5-0.3-0.8-0.3c-0.2,0-0.4,0.1-0.6,0.2s-0.3,0.4-0.4,0.7s-0.1,1-0.1,2.1L1168.4,319.2L1168.4,319.2z"/>
		<path class="st6" d="M1176.4,319.2h-1.6V313h1.5v0.9c0.3-0.4,0.5-0.7,0.7-0.8s0.4-0.2,0.7-0.2c0.4,0,0.7,0.1,1.1,0.3l-0.5,1.4
			c-0.3-0.2-0.5-0.3-0.8-0.3c-0.2,0-0.4,0.1-0.6,0.2s-0.3,0.4-0.4,0.7s-0.1,1-0.1,2.1L1176.4,319.2L1176.4,319.2z"/>
		<path class="st6" d="M1179.1,316c0-0.5,0.1-1.1,0.4-1.6s0.7-0.9,1.1-1.2s1-0.4,1.7-0.4c0.9,0,1.7,0.3,2.3,0.9s0.9,1.4,0.9,2.3
			s-0.3,1.7-0.9,2.3s-1.4,0.9-2.3,0.9c-0.6,0-1.1-0.1-1.6-0.4s-0.9-0.6-1.2-1.1S1179.1,316.8,1179.1,316z M1180.8,316.1
			c0,0.6,0.1,1.1,0.4,1.4s0.7,0.5,1.1,0.5s0.8-0.2,1.1-0.5s0.4-0.8,0.4-1.4s-0.1-1.1-0.4-1.4s-0.7-0.5-1.1-0.5s-0.8,0.2-1.1,0.5
			S1180.8,315.5,1180.8,316.1z"/>
		<path class="st6" d="M1186.5,316c0-0.5,0.1-1.1,0.4-1.6s0.7-0.9,1.1-1.2s1-0.4,1.7-0.4c0.9,0,1.7,0.3,2.3,0.9s0.9,1.4,0.9,2.3
			s-0.3,1.7-0.9,2.3s-1.4,0.9-2.3,0.9c-0.6,0-1.1-0.1-1.6-0.4s-0.9-0.6-1.2-1.1S1186.5,316.8,1186.5,316z M1188.1,316.1
			c0,0.6,0.1,1.1,0.4,1.4s0.7,0.5,1.1,0.5s0.8-0.2,1.1-0.5s0.4-0.8,0.4-1.4s-0.1-1.1-0.4-1.4s-0.7-0.5-1.1-0.5s-0.8,0.2-1.1,0.5
			S1188.1,315.5,1188.1,316.1z"/>
		<path class="st6" d="M1194,313h1.5v0.8c0.5-0.7,1.2-1,1.9-1c0.4,0,0.7,0.1,1,0.2s0.5,0.4,0.7,0.7c0.3-0.3,0.6-0.6,0.9-0.7
			s0.7-0.2,1-0.2c0.5,0,0.8,0.1,1.2,0.3s0.6,0.5,0.7,0.8s0.2,0.7,0.2,1.3v4h-1.6v-3.6c0-0.6-0.1-1-0.2-1.2c-0.2-0.2-0.4-0.4-0.7-0.4
			c-0.2,0-0.4,0.1-0.7,0.2s-0.3,0.3-0.4,0.6s-0.1,0.7-0.1,1.3v3h-1.6v-3.4c0-0.6,0-1-0.1-1.2s-0.1-0.3-0.3-0.4s-0.3-0.1-0.5-0.1
			c-0.3,0-0.5,0.1-0.7,0.2s-0.3,0.3-0.4,0.6s-0.1,0.7-0.1,1.3v3h-1.6V313H1194z"/>
		<path class="st6" d="M1213.4,317.7v1.5h-5.8c0.1-0.6,0.2-1.1,0.6-1.6s0.9-1.2,1.9-2.1c0.7-0.7,1.2-1.2,1.4-1.4
			c0.2-0.3,0.3-0.7,0.3-1c0-0.4-0.1-0.6-0.3-0.8s-0.5-0.3-0.8-0.3s-0.6,0.1-0.8,0.3s-0.3,0.6-0.4,1l-1.6-0.2c0.1-0.9,0.4-1.6,0.9-2
			s1.2-0.6,1.9-0.6c0.8,0,1.5,0.2,2,0.7s0.7,1,0.7,1.7c0,0.4-0.1,0.8-0.2,1.1s-0.4,0.7-0.7,1.1c-0.2,0.3-0.6,0.6-1.1,1.1
			s-0.8,0.8-1,0.9s-0.3,0.3-0.3,0.5L1213.4,317.7L1213.4,317.7z"/>
		<path class="st6" d="M1218.7,319.2h-1.6V313c-0.6,0.6-1.3,1-2.1,1.2v-1.5c0.4-0.1,0.9-0.4,1.4-0.8s0.8-0.9,1-1.4h1.3L1218.7,319.2
			L1218.7,319.2z"/>
		<path class="st6" d="M1226.7,317.7v1.5h-5.8c0.1-0.6,0.2-1.1,0.6-1.6s0.9-1.2,1.9-2.1c0.7-0.7,1.2-1.2,1.4-1.4
			c0.2-0.3,0.3-0.7,0.3-1c0-0.4-0.1-0.6-0.3-0.8s-0.5-0.3-0.8-0.3s-0.6,0.1-0.8,0.3s-0.3,0.6-0.4,1l-1.6-0.2c0.1-0.9,0.4-1.6,0.9-2
			s1.2-0.6,1.9-0.6c0.8,0,1.5,0.2,2,0.7s0.7,1,0.7,1.7c0,0.4-0.1,0.8-0.2,1.1s-0.4,0.7-0.7,1.1c-0.2,0.3-0.6,0.6-1.1,1.1
			s-0.8,0.8-1,0.9s-0.3,0.3-0.3,0.5L1226.7,317.7L1226.7,317.7z"/>
	</g>
	<g class="st5">
		<path class="st6" d="M1388.6,317.2v-8.6h2.8c1.1,0,1.7,0,2.1,0.1c0.5,0.1,0.9,0.4,1.2,0.8s0.5,1,0.5,1.7c0,0.5-0.1,1-0.3,1.3
			s-0.4,0.6-0.7,0.8s-0.6,0.3-0.9,0.4c-0.4,0.1-1,0.1-1.8,0.1h-1.1v3.2h-1.8L1388.6,317.2L1388.6,317.2z M1390.3,310.1v2.4h0.9
			c0.7,0,1.1,0,1.4-0.1s0.4-0.2,0.5-0.4s0.2-0.4,0.2-0.7c0-0.3-0.1-0.6-0.3-0.8s-0.4-0.3-0.7-0.4c-0.2,0-0.6-0.1-1.2-0.1h-0.8V310.1
			z"/>
		<path class="st6" d="M1397.8,312.9l-1.5-0.3c0.2-0.6,0.5-1,0.9-1.3s1-0.4,1.8-0.4c0.7,0,1.3,0.1,1.6,0.3s0.6,0.4,0.8,0.7
			s0.2,0.8,0.2,1.5v1.9c0,0.5,0,1,0.1,1.2s0.2,0.5,0.3,0.8h-1.6c0-0.1-0.1-0.3-0.2-0.5c0-0.1,0-0.2-0.1-0.2
			c-0.3,0.3-0.6,0.5-0.9,0.6s-0.7,0.2-1,0.2c-0.6,0-1.1-0.2-1.5-0.5s-0.6-0.8-0.6-1.3c0-0.4,0.1-0.7,0.3-0.9s0.4-0.5,0.7-0.6
			s0.7-0.3,1.3-0.4c0.8-0.1,1.3-0.3,1.6-0.4V313c0-0.3-0.1-0.5-0.2-0.7s-0.5-0.2-0.9-0.2c-0.3,0-0.5,0.1-0.7,0.2
			S1397.9,312.6,1397.8,312.9z M1400,314.2c-0.2,0.1-0.5,0.2-1,0.3s-0.8,0.2-0.9,0.3c-0.2,0.2-0.3,0.3-0.3,0.6
			c0,0.2,0.1,0.4,0.3,0.6s0.4,0.3,0.7,0.3c0.3,0,0.6-0.1,0.8-0.3c0.2-0.1,0.3-0.3,0.4-0.5c0-0.1,0.1-0.4,0.1-0.8L1400,314.2
			L1400,314.2z"/>
		<path class="st6" d="M1404.8,317.2h-1.6V311h1.5v0.9c0.3-0.4,0.5-0.7,0.7-0.8s0.4-0.2,0.7-0.2c0.4,0,0.7,0.1,1.1,0.3l-0.5,1.4
			c-0.3-0.2-0.5-0.3-0.8-0.3c-0.2,0-0.4,0.1-0.6,0.2s-0.3,0.4-0.4,0.7s-0.1,1-0.1,2.1L1404.8,317.2L1404.8,317.2z"/>
		<path class="st6" d="M1410.8,311v1.3h-1.1v2.5c0,0.5,0,0.8,0,0.9s0.1,0.2,0.1,0.2s0.2,0.1,0.3,0.1c0.2,0,0.4-0.1,0.7-0.2l0.1,1.3
			c-0.4,0.2-0.8,0.2-1.3,0.2c-0.3,0-0.6,0-0.8-0.1s-0.4-0.2-0.5-0.4s-0.2-0.4-0.2-0.6s-0.1-0.6-0.1-1.2v-2.7h-0.8V311h0.8v-1.2
			l1.7-1v2.2H1410.8z"/>
		<path class="st6" d="M1417.6,317.2h-1.6V314c0-0.7,0-1.1-0.1-1.3s-0.2-0.4-0.3-0.5s-0.3-0.2-0.6-0.2c-0.3,0-0.5,0.1-0.8,0.2
			s-0.4,0.4-0.5,0.6s-0.1,0.7-0.1,1.4v2.8h-1.6v-6h1.5v0.9c0.5-0.7,1.2-1.1,2.1-1.1c0.4,0,0.7,0.1,1,0.2s0.5,0.3,0.7,0.5
			s0.3,0.4,0.3,0.7s0.1,0.6,0.1,1.1L1417.6,317.2L1417.6,317.2z"/>
		<path class="st6" d="M1422.8,315.2l1.6,0.3c-0.2,0.6-0.5,1.1-1,1.4s-1,0.5-1.7,0.5c-1.1,0-1.9-0.4-2.4-1.1
			c-0.4-0.6-0.6-1.3-0.6-2.1c0-1,0.3-1.8,0.8-2.4s1.2-0.9,2-0.9c0.9,0,1.7,0.3,2.2,0.9s0.8,1.5,0.8,2.8h-4.1c0,0.5,0.1,0.9,0.4,1.1
			s0.6,0.4,0.9,0.4s0.5-0.1,0.7-0.2S1422.8,315.5,1422.8,315.2z M1422.9,313.6c0-0.5-0.1-0.8-0.4-1.1s-0.5-0.4-0.9-0.4
			s-0.7,0.1-0.9,0.4s-0.3,0.6-0.3,1.1H1422.9z"/>
		<path class="st6" d="M1427.5,317.2h-1.6V311h1.5v0.9c0.3-0.4,0.5-0.7,0.7-0.8s0.4-0.2,0.7-0.2c0.4,0,0.7,0.1,1.1,0.3l-0.5,1.4
			c-0.3-0.2-0.5-0.3-0.8-0.3c-0.2,0-0.4,0.1-0.6,0.2s-0.3,0.4-0.4,0.7s-0.1,1-0.1,2.1L1427.5,317.2L1427.5,317.2z"/>
		<path class="st6" d="M1435.5,317.2h-1.6V311h1.5v0.9c0.3-0.4,0.5-0.7,0.7-0.8s0.4-0.2,0.7-0.2c0.4,0,0.7,0.1,1.1,0.3l-0.5,1.4
			c-0.3-0.2-0.5-0.3-0.8-0.3c-0.2,0-0.4,0.1-0.6,0.2s-0.3,0.4-0.4,0.7s-0.1,1-0.1,2.1L1435.5,317.2L1435.5,317.2z"/>
		<path class="st6" d="M1438.2,314c0-0.5,0.1-1.1,0.4-1.6s0.7-0.9,1.1-1.2s1-0.4,1.7-0.4c0.9,0,1.7,0.3,2.3,0.9s0.9,1.4,0.9,2.3
			s-0.3,1.7-0.9,2.3s-1.4,0.9-2.3,0.9c-0.6,0-1.1-0.1-1.6-0.4s-0.9-0.6-1.2-1.1S1438.2,314.7,1438.2,314z M1439.9,314.1
			c0,0.6,0.1,1.1,0.4,1.4s0.7,0.5,1.1,0.5s0.8-0.2,1.1-0.5s0.4-0.8,0.4-1.4s-0.1-1.1-0.4-1.4s-0.7-0.5-1.1-0.5s-0.8,0.2-1.1,0.5
			S1439.9,313.5,1439.9,314.1z"/>
		<path class="st6" d="M1445.5,314c0-0.5,0.1-1.1,0.4-1.6s0.7-0.9,1.1-1.2s1-0.4,1.7-0.4c0.9,0,1.7,0.3,2.3,0.9s0.9,1.4,0.9,2.3
			s-0.3,1.7-0.9,2.3s-1.4,0.9-2.3,0.9c-0.6,0-1.1-0.1-1.6-0.4s-0.9-0.6-1.2-1.1S1445.5,314.7,1445.5,314z M1447.2,314.1
			c0,0.6,0.1,1.1,0.4,1.4s0.7,0.5,1.1,0.5s0.8-0.2,1.1-0.5s0.4-0.8,0.4-1.4s-0.1-1.1-0.4-1.4s-0.7-0.5-1.1-0.5s-0.8,0.2-1.1,0.5
			S1447.2,313.5,1447.2,314.1z"/>
		<path class="st6" d="M1453.1,311h1.5v0.8c0.5-0.7,1.2-1,1.9-1c0.4,0,0.7,0.1,1,0.2s0.5,0.4,0.7,0.7c0.3-0.3,0.6-0.6,0.9-0.7
			s0.7-0.2,1-0.2c0.5,0,0.8,0.1,1.2,0.3s0.6,0.5,0.7,0.8s0.2,0.7,0.2,1.3v4h-1.6v-3.6c0-0.6-0.1-1-0.2-1.2c-0.2-0.2-0.4-0.4-0.7-0.4
			c-0.2,0-0.4,0.1-0.7,0.2s-0.3,0.3-0.4,0.6s-0.1,0.7-0.1,1.3v3h-1.6v-3.4c0-0.6,0-1-0.1-1.2s-0.1-0.3-0.3-0.4s-0.3-0.1-0.5-0.1
			c-0.3,0-0.5,0.1-0.7,0.2s-0.3,0.3-0.4,0.6s-0.1,0.7-0.1,1.3v3h-1.6V311H1453.1z"/>
		<path class="st6" d="M1472.5,315.7v1.5h-5.8c0.1-0.6,0.2-1.1,0.6-1.6s0.9-1.2,1.9-2.1c0.7-0.7,1.2-1.2,1.4-1.4
			c0.2-0.3,0.3-0.7,0.3-1c0-0.4-0.1-0.6-0.3-0.8s-0.5-0.3-0.8-0.3s-0.6,0.1-0.8,0.3s-0.3,0.6-0.4,1l-1.6-0.2c0.1-0.9,0.4-1.6,0.9-2
			s1.2-0.6,1.9-0.6c0.8,0,1.5,0.2,2,0.7s0.7,1,0.7,1.7c0,0.4-0.1,0.8-0.2,1.1s-0.4,0.7-0.7,1.1c-0.2,0.3-0.6,0.6-1.1,1.1
			s-0.8,0.8-1,0.9s-0.3,0.3-0.3,0.5L1472.5,315.7L1472.5,315.7z"/>
		<path class="st6" d="M1477.8,317.2h-1.6V311c-0.6,0.6-1.3,1-2.1,1.2v-1.5c0.4-0.1,0.9-0.4,1.4-0.8s0.8-0.9,1-1.4h1.3L1477.8,317.2
			L1477.8,317.2z"/>
		<path class="st6" d="M1480.2,310.3v-1.5h5.6v1.2c-0.5,0.5-0.9,1.1-1.4,2s-0.8,1.8-1.1,2.7s-0.4,1.8-0.4,2.6h-1.6
			c0-1.2,0.3-2.4,0.7-3.6s1.1-2.3,1.9-3.3h-3.7V310.3z"/>
	</g>
	<g class="st5">
		<path class="st6" d="M1973.6,221.4v-8.6h2.8c1.1,0,1.7,0,2.1,0.1c0.5,0.1,0.9,0.4,1.2,0.8s0.5,1,0.5,1.7c0,0.5-0.1,1-0.3,1.3
			s-0.4,0.6-0.7,0.8s-0.6,0.3-0.9,0.4c-0.4,0.1-1,0.1-1.8,0.1h-1.1v3.2h-1.8L1973.6,221.4L1973.6,221.4z M1975.4,214.3v2.4h0.9
			c0.7,0,1.1,0,1.4-0.1s0.4-0.2,0.5-0.4s0.2-0.4,0.2-0.7s-0.1-0.6-0.3-0.8s-0.4-0.3-0.7-0.4c-0.2,0-0.6-0.1-1.2-0.1h-0.8V214.3z"/>
		<path class="st6" d="M1982.8,217.1l-1.5-0.3c0.2-0.6,0.5-1,0.9-1.3s1-0.4,1.8-0.4c0.7,0,1.3,0.1,1.6,0.3s0.6,0.4,0.8,0.7
			s0.2,0.8,0.2,1.5v1.9c0,0.5,0,1,0.1,1.2s0.2,0.5,0.3,0.8h-1.6c0-0.1-0.1-0.3-0.2-0.5c0-0.1,0-0.2-0.1-0.2
			c-0.3,0.3-0.6,0.5-0.9,0.6s-0.7,0.2-1,0.2c-0.6,0-1.1-0.2-1.5-0.5s-0.6-0.8-0.6-1.3c0-0.4,0.1-0.7,0.3-0.9s0.4-0.5,0.7-0.6
			s0.7-0.3,1.3-0.4c0.8-0.1,1.3-0.3,1.6-0.4v-0.2c0-0.3-0.1-0.5-0.2-0.7s-0.5-0.2-0.9-0.2c-0.3,0-0.5,0.1-0.7,0.2
			S1982.9,216.8,1982.8,217.1z M1985.1,218.4c-0.2,0.1-0.5,0.2-1,0.3s-0.8,0.2-0.9,0.3c-0.2,0.2-0.3,0.3-0.3,0.6
			c0,0.2,0.1,0.4,0.3,0.6s0.4,0.3,0.7,0.3c0.3,0,0.6-0.1,0.8-0.3c0.2-0.1,0.3-0.3,0.4-0.5c0-0.1,0.1-0.4,0.1-0.8L1985.1,218.4
			L1985.1,218.4z"/>
		<path class="st6" d="M1989.9,221.4h-1.6v-6.2h1.5v0.9c0.3-0.4,0.5-0.7,0.7-0.8s0.4-0.2,0.7-0.2c0.4,0,0.7,0.1,1.1,0.3l-0.5,1.4
			c-0.3-0.2-0.5-0.3-0.8-0.3c-0.2,0-0.4,0.1-0.6,0.2s-0.3,0.4-0.4,0.7s-0.1,1-0.1,2.1L1989.9,221.4L1989.9,221.4z"/>
		<path class="st6" d="M1995.8,215.2v1.3h-1.1v2.5c0,0.5,0,0.8,0,0.9s0.1,0.2,0.1,0.2s0.2,0.1,0.3,0.1c0.2,0,0.4-0.1,0.7-0.2
			l0.1,1.3c-0.4,0.2-0.8,0.2-1.3,0.2c-0.3,0-0.6,0-0.8-0.1s-0.4-0.2-0.5-0.4s-0.2-0.4-0.2-0.6c0-0.2-0.1-0.6-0.1-1.2v-2.7h-0.8v-1.3
			h0.8V214l1.7-1v2.2H1995.8z"/>
		<path class="st6" d="M2002.6,221.4h-1.6v-3.2c0-0.7,0-1.1-0.1-1.3s-0.2-0.4-0.3-0.5s-0.3-0.2-0.6-0.2c-0.3,0-0.5,0.1-0.8,0.2
			s-0.4,0.4-0.5,0.6s-0.1,0.7-0.1,1.4v2.8h-1.6V215h1.5v0.9c0.5-0.7,1.2-1.1,2.1-1.1c0.4,0,0.7,0.1,1,0.2s0.5,0.3,0.7,0.5
			s0.3,0.4,0.3,0.7s0.1,0.6,0.1,1.1L2002.6,221.4L2002.6,221.4z"/>
		<path class="st6" d="M2007.9,219.4l1.6,0.3c-0.2,0.6-0.5,1.1-1,1.4s-1,0.5-1.7,0.5c-1.1,0-1.9-0.4-2.4-1.1
			c-0.4-0.6-0.6-1.3-0.6-2.1c0-1,0.3-1.8,0.8-2.4s1.2-0.9,2-0.9c0.9,0,1.7,0.3,2.2,0.9s0.8,1.5,0.8,2.8h-4.1c0,0.5,0.1,0.9,0.4,1.1
			s0.6,0.4,0.9,0.4s0.5-0.1,0.7-0.2S2007.8,219.7,2007.9,219.4z M2008,217.7c0-0.5-0.1-0.8-0.4-1.1s-0.5-0.4-0.9-0.4
			s-0.7,0.1-0.9,0.4s-0.3,0.6-0.3,1.1H2008z"/>
		<path class="st6" d="M2012.5,221.4h-1.6v-6.2h1.5v0.9c0.3-0.4,0.5-0.7,0.7-0.8s0.4-0.2,0.7-0.2c0.4,0,0.7,0.1,1.1,0.3l-0.5,1.4
			c-0.3-0.2-0.5-0.3-0.8-0.3c-0.2,0-0.4,0.1-0.6,0.2s-0.3,0.4-0.4,0.7s-0.1,1-0.1,2.1L2012.5,221.4L2012.5,221.4z"/>
		<path class="st6" d="M2020.5,221.4h-1.6v-6.2h1.5v0.9c0.3-0.4,0.5-0.7,0.7-0.8s0.4-0.2,0.7-0.2c0.4,0,0.7,0.1,1.1,0.3l-0.5,1.4
			c-0.3-0.2-0.5-0.3-0.8-0.3c-0.2,0-0.4,0.1-0.6,0.2s-0.3,0.4-0.4,0.7s-0.1,1-0.1,2.1L2020.5,221.4L2020.5,221.4z"/>
		<path class="st6" d="M2023.3,218.2c0-0.5,0.1-1.1,0.4-1.6s0.7-0.9,1.1-1.2s1-0.4,1.7-0.4c0.9,0,1.7,0.3,2.3,0.9s0.9,1.4,0.9,2.3
			c0,0.9-0.3,1.7-0.9,2.3s-1.4,0.9-2.3,0.9c-0.6,0-1.1-0.1-1.6-0.4s-0.9-0.6-1.2-1.1S2023.3,218.9,2023.3,218.2z M2024.9,218.3
			c0,0.6,0.1,1.1,0.4,1.4s0.7,0.5,1.1,0.5s0.8-0.2,1.1-0.5s0.4-0.8,0.4-1.4c0-0.6-0.1-1.1-0.4-1.4s-0.7-0.5-1.1-0.5
			s-0.8,0.2-1.1,0.5S2024.9,217.7,2024.9,218.3z"/>
		<path class="st6" d="M2030.6,218.2c0-0.5,0.1-1.1,0.4-1.6s0.7-0.9,1.1-1.2s1-0.4,1.7-0.4c0.9,0,1.7,0.3,2.3,0.9s0.9,1.4,0.9,2.3
			c0,0.9-0.3,1.7-0.9,2.3s-1.4,0.9-2.3,0.9c-0.6,0-1.1-0.1-1.6-0.4s-0.9-0.6-1.2-1.1S2030.6,218.9,2030.6,218.2z M2032.3,218.3
			c0,0.6,0.1,1.1,0.4,1.4s0.7,0.5,1.1,0.5s0.8-0.2,1.1-0.5s0.4-0.8,0.4-1.4c0-0.6-0.1-1.1-0.4-1.4s-0.7-0.5-1.1-0.5
			s-0.8,0.2-1.1,0.5S2032.3,217.7,2032.3,218.3z"/>
		<path class="st6" d="M2038.2,215.2h1.5v0.8c0.5-0.7,1.2-1,1.9-1c0.4,0,0.7,0.1,1,0.2s0.5,0.4,0.7,0.7c0.3-0.3,0.6-0.6,0.9-0.7
			s0.7-0.2,1-0.2c0.5,0,0.8,0.1,1.2,0.3s0.6,0.5,0.7,0.8s0.2,0.7,0.2,1.3v4h-1.6v-3.6c0-0.6-0.1-1-0.2-1.2c-0.2-0.2-0.4-0.4-0.7-0.4
			c-0.2,0-0.4,0.1-0.7,0.2s-0.3,0.3-0.4,0.6s-0.1,0.7-0.1,1.3v3h-1.6V218c0-0.6,0-1-0.1-1.2s-0.1-0.3-0.3-0.4s-0.3-0.1-0.5-0.1
			c-0.3,0-0.5,0.1-0.7,0.2s-0.3,0.3-0.4,0.6s-0.1,0.7-0.1,1.3v3h-1.6v-6.2L2038.2,215.2L2038.2,215.2z"/>
		<path class="st6" d="M2057.5,219.9v1.5h-5.8c0.1-0.6,0.2-1.1,0.6-1.6s0.9-1.2,1.9-2.1c0.7-0.7,1.2-1.2,1.4-1.4
			c0.2-0.3,0.3-0.7,0.3-1c0-0.4-0.1-0.6-0.3-0.8s-0.5-0.3-0.8-0.3s-0.6,0.1-0.8,0.3s-0.3,0.6-0.4,1l-1.6-0.2c0.1-0.9,0.4-1.6,0.9-2
			s1.2-0.6,1.9-0.6c0.8,0,1.5,0.2,2,0.7s0.7,1,0.7,1.7c0,0.4-0.1,0.8-0.2,1.1s-0.4,0.7-0.7,1.1c-0.2,0.3-0.6,0.6-1.1,1.1
			s-0.8,0.8-1,0.9s-0.3,0.3-0.3,0.5h3.3L2057.5,219.9L2057.5,219.9z"/>
		<path class="st6" d="M2064.2,219.9v1.5h-5.8c0.1-0.6,0.2-1.1,0.6-1.6s0.9-1.2,1.9-2.1c0.7-0.7,1.2-1.2,1.4-1.4
			c0.2-0.3,0.3-0.7,0.3-1c0-0.4-0.1-0.6-0.3-0.8s-0.5-0.3-0.8-0.3s-0.6,0.1-0.8,0.3s-0.3,0.6-0.4,1l-1.6-0.2c0.1-0.9,0.4-1.6,0.9-2
			s1.2-0.6,1.9-0.6c0.8,0,1.5,0.2,2,0.7s0.7,1,0.7,1.7c0,0.4-0.1,0.8-0.2,1.1s-0.4,0.7-0.7,1.1c-0.2,0.3-0.6,0.6-1.1,1.1
			s-0.8,0.8-1,0.9s-0.3,0.3-0.3,0.5h3.3L2064.2,219.9L2064.2,219.9z"/>
		<path class="st6" d="M2070.9,219.9v1.5h-5.8c0.1-0.6,0.2-1.1,0.6-1.6s0.9-1.2,1.9-2.1c0.7-0.7,1.2-1.2,1.4-1.4
			c0.2-0.3,0.3-0.7,0.3-1c0-0.4-0.1-0.6-0.3-0.8s-0.5-0.3-0.8-0.3s-0.6,0.1-0.8,0.3s-0.3,0.6-0.4,1l-1.6-0.2c0.1-0.9,0.4-1.6,0.9-2
			s1.2-0.6,1.9-0.6c0.8,0,1.5,0.2,2,0.7s0.7,1,0.7,1.7c0,0.4-0.1,0.8-0.2,1.1s-0.4,0.7-0.7,1.1c-0.2,0.3-0.6,0.6-1.1,1.1
			s-0.8,0.8-1,0.9s-0.3,0.3-0.3,0.5h3.3L2070.9,219.9L2070.9,219.9z"/>
	</g>
	<g class="st5">
		<path class="st7" d="M2002,431.4v-8.6h5.8v1h-4.7v2.7h4v1h-4v3.9H2002z"/>
		<path class="st7" d="M2009.1,431.4v-8.6h1.1v8.6H2009.1z"/>
		<path class="st7" d="M2016,429.4l1.1,0.1c-0.2,0.6-0.5,1.1-1,1.5s-1.1,0.5-1.8,0.5c-0.9,0-1.6-0.3-2.2-0.8s-0.8-1.3-0.8-2.4
			c0-1,0.3-1.9,0.8-2.4s1.2-0.9,2.1-0.9c0.8,0,1.5,0.3,2,0.8s0.8,1.4,0.8,2.4c0,0.1,0,0.2,0,0.3h-4.6c0,0.7,0.2,1.2,0.6,1.6
			s0.8,0.5,1.3,0.5c0.4,0,0.7-0.1,1-0.3S2015.9,429.9,2016,429.4z M2012.6,427.7h3.5c0-0.5-0.2-0.9-0.4-1.2
			c-0.3-0.4-0.8-0.6-1.3-0.6s-0.9,0.2-1.2,0.5S2012.6,427.2,2012.6,427.7z"/>
		<path class="st7" d="M2017.8,431.4l2.3-3.2l-2.1-3h1.3l1,1.5c0.2,0.3,0.3,0.5,0.4,0.7c0.2-0.3,0.3-0.5,0.5-0.7l1-1.5h1.3l-2.2,2.9
			l2.3,3.3h-1.3l-1.3-1.9l-0.3-0.5l-1.6,2.5L2017.8,431.4L2017.8,431.4z"/>
		<path class="st7" d="M2027.6,427.3c0-1.4,0.4-2.5,1.1-3.3s1.8-1.2,3-1.2c0.8,0,1.5,0.2,2.1,0.6s1.1,0.9,1.5,1.6s0.5,1.4,0.5,2.3
			s-0.2,1.7-0.5,2.3s-0.8,1.2-1.5,1.6s-1.3,0.5-2.1,0.5c-0.8,0-1.5-0.2-2.2-0.6s-1.1-0.9-1.4-1.6S2027.6,428,2027.6,427.3z
			 M2028.8,427.3c0,1,0.3,1.9,0.8,2.4s1.3,0.9,2.1,0.9c0.9,0,1.6-0.3,2.1-0.9s0.8-1.5,0.8-2.6c0-0.7-0.1-1.3-0.4-1.8s-0.6-0.9-1-1.2
			s-1-0.4-1.5-0.4c-0.8,0-1.5,0.3-2.1,0.8S2028.8,426,2028.8,427.3z"/>
	</g>
	<g class="st5">
		<path class="st7" d="M2037.4,431.4V426h-0.9v-0.8h0.9v-0.7c0-0.4,0-0.7,0.1-0.9c0.1-0.3,0.3-0.5,0.5-0.7s0.6-0.3,1.1-0.3
			c0.3,0,0.6,0,1,0.1l-0.2,0.9c-0.2,0-0.4-0.1-0.6-0.1c-0.3,0-0.5,0.1-0.7,0.2s-0.2,0.4-0.2,0.8v0.6h1.2v0.8h-1.2v5.4h-1
			L2037.4,431.4L2037.4,431.4z"/>
	</g>
	<g class="st5">
		<path class="st7" d="M2040.5,431.4V426h-0.9v-0.8h0.9v-0.7c0-0.4,0-0.7,0.1-0.9c0.1-0.3,0.3-0.5,0.5-0.7s0.6-0.3,1.1-0.3
			c0.3,0,0.6,0,1,0.1l-0.2,0.9c-0.2,0-0.4-0.1-0.6-0.1c-0.3,0-0.5,0.1-0.7,0.2s-0.2,0.4-0.2,0.8v0.6h1.2v0.8h-1.2v5.4h-1
			L2040.5,431.4L2040.5,431.4z"/>
		<path class="st7" d="M2043.6,424.1v-1.2h1.1v1.2H2043.6z M2043.6,431.4v-6.2h1.1v6.2H2043.6z"/>
		<path class="st7" d="M2050.3,429.2l1,0.1c-0.1,0.7-0.4,1.3-0.9,1.7s-1,0.6-1.7,0.6c-0.9,0-1.5-0.3-2.1-0.8s-0.8-1.4-0.8-2.4
			c0-0.7,0.1-1.3,0.3-1.8s0.6-0.9,1-1.1s1-0.4,1.5-0.4c0.7,0,1.2,0.2,1.7,0.5s0.7,0.8,0.8,1.5l-1,0.2c-0.1-0.4-0.3-0.7-0.5-0.9
			s-0.5-0.3-0.9-0.3c-0.5,0-1,0.2-1.3,0.6s-0.5,1-0.5,1.8s0.2,1.4,0.5,1.8s0.7,0.6,1.3,0.6c0.4,0,0.8-0.1,1-0.4
			S2050.2,429.7,2050.3,429.2z"/>
		<path class="st7" d="M2056.5,429.4l1.1,0.1c-0.2,0.6-0.5,1.1-1,1.5s-1.1,0.5-1.8,0.5c-0.9,0-1.6-0.3-2.2-0.8s-0.8-1.3-0.8-2.4
			c0-1,0.3-1.9,0.8-2.4s1.2-0.9,2.1-0.9c0.8,0,1.5,0.3,2,0.8s0.8,1.4,0.8,2.4c0,0.1,0,0.2,0,0.3h-4.6c0,0.7,0.2,1.2,0.6,1.6
			s0.8,0.5,1.3,0.5c0.4,0,0.7-0.1,1-0.3S2056.3,429.9,2056.5,429.4z M2053,427.7h3.5c0-0.5-0.2-0.9-0.4-1.2
			c-0.3-0.4-0.8-0.6-1.3-0.6s-0.9,0.2-1.2,0.5S2053.1,427.2,2053,427.7z"/>
	</g>
	<g class="st5">
		<path class="st7" d="M488.9,304.9v-8.6h5.8v1H490v2.7h4v1h-4v3.9H488.9z"/>
		<path class="st7" d="M496.1,304.9v-8.6h1.1v8.6H496.1z"/>
		<path class="st7" d="M503,302.9l1.1,0.1c-0.2,0.6-0.5,1.1-1,1.5s-1.1,0.5-1.8,0.5c-0.9,0-1.6-0.3-2.2-0.8s-0.8-1.3-0.8-2.4
			c0-1,0.3-1.9,0.8-2.4s1.2-0.9,2.1-0.9c0.8,0,1.5,0.3,2,0.8s0.8,1.4,0.8,2.4c0,0.1,0,0.2,0,0.3h-4.6c0,0.7,0.2,1.2,0.6,1.6
			s0.8,0.5,1.3,0.5c0.4,0,0.7-0.1,1-0.3S502.8,303.4,503,302.9z M499.5,301.2h3.5c0-0.5-0.2-0.9-0.4-1.2c-0.3-0.4-0.8-0.6-1.3-0.6
			s-0.9,0.2-1.2,0.5S499.6,300.7,499.5,301.2z"/>
		<path class="st7" d="M504.7,304.9l2.3-3.2l-2.1-3h1.3l1,1.5c0.2,0.3,0.3,0.5,0.4,0.7c0.2-0.3,0.3-0.5,0.5-0.7l1-1.5h1.3l-2.2,2.9
			l2.3,3.3h-1.3L508,303l-0.3-0.5l-1.6,2.5h-1.4V304.9z"/>
		<path class="st7" d="M514.5,300.8c0-1.4,0.4-2.5,1.1-3.3s1.8-1.2,3-1.2c0.8,0,1.5,0.2,2.1,0.6s1.1,0.9,1.5,1.6s0.5,1.4,0.5,2.3
			s-0.2,1.7-0.5,2.3s-0.8,1.2-1.5,1.6s-1.3,0.5-2.1,0.5s-1.5-0.2-2.2-0.6s-1.1-0.9-1.4-1.6S514.5,301.5,514.5,300.8z M515.7,300.8
			c0,1,0.3,1.9,0.8,2.4s1.3,0.9,2.1,0.9c0.9,0,1.6-0.3,2.1-0.9s0.8-1.5,0.8-2.6c0-0.7-0.1-1.3-0.4-1.8s-0.6-0.9-1-1.2
			s-1-0.4-1.5-0.4c-0.8,0-1.5,0.3-2.1,0.8S515.7,299.5,515.7,300.8z"/>
	</g>
	<g class="st5">
		<path class="st7" d="M524.3,304.9v-5.4h-0.9v-0.8h0.9V298c0-0.4,0-0.7,0.1-0.9c0.1-0.3,0.3-0.5,0.5-0.7s0.6-0.3,1.1-0.3
			c0.3,0,0.6,0,1,0.1l-0.2,0.9c-0.2,0-0.4-0.1-0.6-0.1c-0.3,0-0.5,0.1-0.7,0.2s-0.2,0.4-0.2,0.8v0.6h1.2v0.8h-1.2v5.4h-1
			L524.3,304.9L524.3,304.9z"/>
	</g>
	<g class="st5">
		<path class="st7" d="M527.5,304.9v-5.4h-0.9v-0.8h0.9V298c0-0.4,0-0.7,0.1-0.9c0.1-0.3,0.3-0.5,0.5-0.7s0.6-0.3,1.1-0.3
			c0.3,0,0.6,0,1,0.1l-0.2,0.9c-0.2,0-0.4-0.1-0.6-0.1c-0.3,0-0.5,0.1-0.7,0.2s-0.2,0.4-0.2,0.8v0.6h1.2v0.8h-1.2v5.4h-1
			L527.5,304.9L527.5,304.9z"/>
		<path class="st7" d="M530.5,297.6v-1.2h1.1v1.2H530.5z M530.5,304.9v-6.2h1.1v6.2H530.5z"/>
		<path class="st7" d="M537.3,302.7l1,0.1c-0.1,0.7-0.4,1.3-0.9,1.7s-1,0.6-1.7,0.6c-0.9,0-1.5-0.3-2.1-0.8s-0.8-1.4-0.8-2.4
			c0-0.7,0.1-1.3,0.3-1.8s0.6-0.9,1-1.1s1-0.4,1.5-0.4c0.7,0,1.2,0.2,1.7,0.5s0.7,0.8,0.8,1.5l-1,0.2c-0.1-0.4-0.3-0.7-0.5-0.9
			s-0.5-0.3-0.9-0.3c-0.5,0-1,0.2-1.3,0.6s-0.5,1-0.5,1.8s0.2,1.4,0.5,1.8s0.7,0.6,1.3,0.6c0.4,0,0.8-0.1,1-0.4
			S537.2,303.2,537.3,302.7z"/>
		<path class="st7" d="M543.5,302.9l1.1,0.1c-0.2,0.6-0.5,1.1-1,1.5s-1.1,0.5-1.8,0.5c-0.9,0-1.6-0.3-2.2-0.8s-0.8-1.3-0.8-2.4
			c0-1,0.3-1.9,0.8-2.4s1.2-0.9,2.1-0.9c0.8,0,1.5,0.3,2,0.8s0.8,1.4,0.8,2.4c0,0.1,0,0.2,0,0.3h-4.6c0,0.7,0.2,1.2,0.6,1.6
			s0.8,0.5,1.3,0.5c0.4,0,0.7-0.1,1-0.3S543.3,303.4,543.5,302.9z M540,301.2h3.5c0-0.5-0.2-0.9-0.4-1.2c-0.3-0.4-0.8-0.6-1.3-0.6
			s-0.9,0.2-1.2,0.5S540,300.7,540,301.2z"/>
	</g>
	<g class="st5">
		<path class="st7" d="M762.1,321.9v-8.6h5.8v1h-4.7v2.7h4v1h-4v3.9H762.1z"/>
		<path class="st7" d="M769.2,321.9v-8.6h1.1v8.6H769.2z"/>
		<path class="st7" d="M776.2,319.9l1.1,0.1c-0.2,0.6-0.5,1.1-1,1.5s-1.1,0.5-1.8,0.5c-0.9,0-1.6-0.3-2.2-0.8s-0.8-1.3-0.8-2.4
			c0-1,0.3-1.9,0.8-2.4s1.2-0.9,2.1-0.9c0.8,0,1.5,0.3,2,0.8s0.8,1.4,0.8,2.4c0,0.1,0,0.2,0,0.3h-4.6c0,0.7,0.2,1.2,0.6,1.6
			s0.8,0.5,1.3,0.5c0.4,0,0.7-0.1,1-0.3S776,320.3,776.2,319.9z M772.7,318.2h3.5c0-0.5-0.2-0.9-0.4-1.2c-0.3-0.4-0.8-0.6-1.3-0.6
			s-0.9,0.2-1.2,0.5S772.8,317.6,772.7,318.2z"/>
		<path class="st7" d="M777.9,321.9l2.3-3.2l-2.1-3h1.3l1,1.5c0.2,0.3,0.3,0.5,0.4,0.7c0.2-0.3,0.3-0.5,0.5-0.7l1-1.5h1.3l-2.2,2.9
			l2.3,3.3h-1.3l-1.3-1.9l-0.3-0.5l-1.6,2.5L777.9,321.9L777.9,321.9z"/>
		<path class="st7" d="M787.7,317.7c0-1.4,0.4-2.5,1.1-3.3s1.8-1.2,3-1.2c0.8,0,1.5,0.2,2.1,0.6s1.1,0.9,1.5,1.6s0.5,1.4,0.5,2.3
			s-0.2,1.7-0.5,2.3s-0.8,1.2-1.5,1.6s-1.3,0.5-2.1,0.5s-1.5-0.2-2.2-0.6s-1.1-0.9-1.4-1.6S787.7,318.5,787.7,317.7z M788.9,317.7
			c0,1,0.3,1.9,0.8,2.4s1.3,0.9,2.1,0.9c0.9,0,1.6-0.3,2.1-0.9s0.8-1.5,0.8-2.6c0-0.7-0.1-1.3-0.4-1.8s-0.6-0.9-1-1.2
			s-1-0.4-1.5-0.4c-0.8,0-1.5,0.3-2.1,0.8S788.9,316.4,788.9,317.7z"/>
	</g>
	<g class="st5">
		<path class="st7" d="M797.5,321.9v-5.4h-0.9v-0.8h0.9V315c0-0.4,0-0.7,0.1-0.9c0.1-0.3,0.3-0.5,0.5-0.7s0.6-0.3,1.1-0.3
			c0.3,0,0.6,0,1,0.1l-0.2,0.9c-0.2,0-0.4-0.1-0.6-0.1c-0.3,0-0.5,0.1-0.7,0.2s-0.2,0.4-0.2,0.8v0.6h1.2v0.8h-1.2v5.4h-1
			L797.5,321.9L797.5,321.9z"/>
	</g>
	<g class="st5">
		<path class="st7" d="M800.6,321.9v-5.4h-0.9v-0.8h0.9V315c0-0.4,0-0.7,0.1-0.9c0.1-0.3,0.3-0.5,0.5-0.7s0.6-0.3,1.1-0.3
			c0.3,0,0.6,0,1,0.1l-0.2,0.9c-0.2,0-0.4-0.1-0.6-0.1c-0.3,0-0.5,0.1-0.7,0.2s-0.2,0.4-0.2,0.8v0.6h1.2v0.8h-1.2v5.4h-1
			L800.6,321.9L800.6,321.9z"/>
		<path class="st7" d="M803.7,314.5v-1.2h1.1v1.2H803.7z M803.7,321.9v-6.2h1.1v6.2H803.7z"/>
		<path class="st7" d="M810.5,319.6l1,0.1c-0.1,0.7-0.4,1.3-0.9,1.7s-1,0.6-1.7,0.6c-0.9,0-1.5-0.3-2.1-0.8s-0.8-1.4-0.8-2.4
			c0-0.7,0.1-1.3,0.3-1.8s0.6-0.9,1-1.1s1-0.4,1.5-0.4c0.7,0,1.2,0.2,1.7,0.5s0.7,0.8,0.8,1.5l-1,0.2c-0.1-0.4-0.3-0.7-0.5-0.9
			s-0.5-0.3-0.9-0.3c-0.5,0-1,0.2-1.3,0.6s-0.5,1-0.5,1.8s0.2,1.4,0.5,1.8s0.7,0.6,1.3,0.6c0.4,0,0.8-0.1,1-0.4
			S810.4,320.1,810.5,319.6z"/>
		<path class="st7" d="M816.7,319.9l1.1,0.1c-0.2,0.6-0.5,1.1-1,1.5s-1.1,0.5-1.8,0.5c-0.9,0-1.6-0.3-2.2-0.8s-0.8-1.3-0.8-2.4
			c0-1,0.3-1.9,0.8-2.4s1.2-0.9,2.1-0.9c0.8,0,1.5,0.3,2,0.8s0.8,1.4,0.8,2.4c0,0.1,0,0.2,0,0.3h-4.6c0,0.7,0.2,1.2,0.6,1.6
			s0.8,0.5,1.3,0.5c0.4,0,0.7-0.1,1-0.3S816.5,320.3,816.7,319.9z M813.2,318.2h3.5c0-0.5-0.2-0.9-0.4-1.2c-0.3-0.4-0.8-0.6-1.3-0.6
			s-0.9,0.2-1.2,0.5S813.2,317.6,813.2,318.2z"/>
	</g>
	<g class="st5">
		<path class="st7" d="M193.4,241.6V233h5.8v1h-4.7v2.7h4v1h-4v3.9L193.4,241.6L193.4,241.6z"/>
		<path class="st7" d="M200.5,241.6V233h1.1v8.6H200.5z"/>
		<path class="st7" d="M207.5,239.6l1.1,0.1c-0.2,0.6-0.5,1.1-1,1.5s-1.1,0.5-1.8,0.5c-0.9,0-1.6-0.3-2.2-0.8s-0.8-1.3-0.8-2.4
			c0-1,0.3-1.9,0.8-2.4s1.2-0.9,2.1-0.9c0.8,0,1.5,0.3,2,0.8s0.8,1.4,0.8,2.4c0,0.1,0,0.2,0,0.3h-4.6c0,0.7,0.2,1.2,0.6,1.6
			s0.8,0.5,1.3,0.5c0.4,0,0.7-0.1,1-0.3S207.3,240.1,207.5,239.6z M204,237.9h3.5c0-0.5-0.2-0.9-0.4-1.2c-0.3-0.4-0.8-0.6-1.3-0.6
			s-0.9,0.2-1.2,0.5S204,237.4,204,237.9z"/>
		<path class="st7" d="M209.2,241.6l2.3-3.2l-2.1-3h1.3l1,1.5c0.2,0.3,0.3,0.5,0.4,0.7c0.2-0.3,0.3-0.5,0.5-0.7l1-1.5h1.3l-2.2,2.9
			l2.3,3.3h-1.3l-1.3-1.9l-0.3-0.5l-1.6,2.5h-1.3L209.2,241.6L209.2,241.6z"/>
		<path class="st7" d="M219,237.4c0-1.4,0.4-2.5,1.1-3.3s1.8-1.2,3-1.2c0.8,0,1.5,0.2,2.1,0.6s1.1,0.9,1.5,1.6s0.5,1.4,0.5,2.3
			c0,0.9-0.2,1.7-0.5,2.3s-0.8,1.2-1.5,1.6s-1.3,0.5-2.1,0.5s-1.5-0.2-2.2-0.6s-1.1-0.9-1.4-1.6S219,238.2,219,237.4z M220.2,237.4
			c0,1,0.3,1.9,0.8,2.4s1.3,0.9,2.1,0.9c0.9,0,1.6-0.3,2.1-0.9s0.8-1.5,0.8-2.6c0-0.7-0.1-1.3-0.4-1.8s-0.6-0.9-1-1.2
			s-1-0.4-1.5-0.4c-0.8,0-1.5,0.3-2.1,0.8S220.2,236.2,220.2,237.4z"/>
	</g>
	<g class="st5">
		<path class="st7" d="M228.8,241.6v-5.4h-0.9v-0.8h0.9v-0.7c0-0.4,0-0.7,0.1-0.9c0.1-0.3,0.3-0.5,0.5-0.7s0.6-0.3,1.1-0.3
			c0.3,0,0.6,0,1,0.1l-0.2,0.9c-0.2,0-0.4-0.1-0.6-0.1c-0.3,0-0.5,0.1-0.7,0.2s-0.2,0.4-0.2,0.8v0.6h1.2v0.8h-1.2v5.4L228.8,241.6
			L228.8,241.6z"/>
	</g>
	<g class="st5">
		<path class="st7" d="M231.9,241.6v-5.4H231v-0.8h0.9v-0.7c0-0.4,0-0.7,0.1-0.9c0.1-0.3,0.3-0.5,0.5-0.7s0.6-0.3,1.1-0.3
			c0.3,0,0.6,0,1,0.1l-0.2,0.9c-0.2,0-0.4-0.1-0.6-0.1c-0.3,0-0.5,0.1-0.7,0.2s-0.2,0.4-0.2,0.8v0.6h1.2v0.8H233v5.4L231.9,241.6
			L231.9,241.6z"/>
		<path class="st7" d="M235,234.2V233h1.1v1.2H235z M235,241.6v-6.2h1.1v6.2H235z"/>
		<path class="st7" d="M241.7,239.3l1,0.1c-0.1,0.7-0.4,1.3-0.9,1.7s-1,0.6-1.7,0.6c-0.9,0-1.5-0.3-2.1-0.8s-0.8-1.4-0.8-2.4
			c0-0.7,0.1-1.3,0.3-1.8s0.6-0.9,1-1.1s1-0.4,1.5-0.4c0.7,0,1.2,0.2,1.7,0.5s0.7,0.8,0.8,1.5l-1,0.2c-0.1-0.4-0.3-0.7-0.5-0.9
			s-0.5-0.3-0.9-0.3c-0.5,0-1,0.2-1.3,0.6s-0.5,1-0.5,1.8s0.2,1.4,0.5,1.8s0.7,0.6,1.3,0.6c0.4,0,0.8-0.1,1-0.4
			S241.7,239.9,241.7,239.3z"/>
		<path class="st7" d="M247.9,239.6l1.1,0.1c-0.2,0.6-0.5,1.1-1,1.5s-1.1,0.5-1.8,0.5c-0.9,0-1.6-0.3-2.2-0.8s-0.8-1.3-0.8-2.4
			c0-1,0.3-1.9,0.8-2.4s1.2-0.9,2.1-0.9c0.8,0,1.5,0.3,2,0.8s0.8,1.4,0.8,2.4c0,0.1,0,0.2,0,0.3h-4.6c0,0.7,0.2,1.2,0.6,1.6
			s0.8,0.5,1.3,0.5c0.4,0,0.7-0.1,1-0.3S247.8,240.1,247.9,239.6z M244.5,237.9h3.5c0-0.5-0.2-0.9-0.4-1.2c-0.3-0.4-0.8-0.6-1.3-0.6
			s-0.9,0.2-1.2,0.5S244.5,237.4,244.5,237.9z"/>
	</g>
</g>
<g id="outline">
	<polygon class="st8" points="68.1,385.8 34.1,124.5 2112.1,130.5 2122.1,674 1406.4,719.1 1393.4,947.3 1223.2,955.3 1221.2,941.3 
		878.9,955.3 877.9,895.2 733.7,884.2 135.2,950.3 106.1,692 131.1,689 134.2,700.1 164.2,695 124.1,365.7 93.1,370.7 93.1,384.7 	
		"/>
	<line class="st9" x1="124.1" y1="365.7" x2="228.7" y2="352.8"/>
	<path class="st9" d="M275.8,343.6l94.7-8.5L392.6,501l-24.5-183.2h9c0,0,43.3,146.3,199.5,138.2c0,0,90.1-9.9,85.4-120.6h6.9v71.7
		h12v22.7h964.5V307.1h7.3v51.1h55.8V305h38.2v262.1H1884"/>
	<path class="st9" d="M524.7,151.3c0,0-37.8-12.4-81.1-1.3c0,0-23.6-12.4-39.9-1.7s-11.2,33.4-11.2,33.4s-27,25.3-21.5,87.5
		l-10.3,2.1l-21.9-147l197.8,1.5L524.7,151.3c0,0,13.7,4.7,23.6,10.7"/>
	<polyline class="st9" points="1930.7,686.1 1930.7,304.9 1913.2,304.9 1996.1,304.9 	"/>
	<path class="st9" d="M1746.7,304.9L1746.7,304.9z"/>
	<line class="st9" x1="1887.8" y1="304.9" x2="1746.7" y2="304.9"/>
	<line class="st9" x1="1930.7" y1="304.9" x2="1930.7" y2="278.7"/>
	<polyline class="st9" points="1938.8,130 1938.8,253.4 1938.8,223.2 1911.8,223.2 	"/>
	<line class="st9" x1="2015.7" y1="304.9" x2="2115.3" y2="304.9"/>
	<polyline class="st9" points="1746.7,250.9 1746.7,128 1854.2,128 1854.2,224.6 1887.8,224.6 1831,224.6 	"/>
	<line class="st9" x1="1806.8" y1="227.1" x2="1746.7" y2="227.1"/>
	<line class="st9" x1="1603.8" y1="149.1" x2="1603.8" y2="130"/>
	<polyline class="st9" points="1601.7,180 1601.7,230.2 1646.6,230.2 1646.6,180 1646.6,307.1 	"/>
	<polyline class="st9" points="1601.7,230.2 1552.2,230.2 1562.3,230.2 1562.3,241.4 	"/>
	<polyline class="st9" points="1441.2,188.1 1496,188.1 1496,177.2 1496,431.4 1496,344.7 1524.1,344.7 	"/>
	<line class="st9" x1="1525.8" y1="230.2" x2="1496" y2="230.2"/>
	<line class="st9" x1="1553.6" y1="344" x2="1645.4" y2="344"/>
	<polyline class="st9" points="1299.7,197.9 1299.7,171.2 1299.7,189.5 1413.1,189.5 1376.6,189.5 1376.6,429.8 1299.7,429.8 
		1299.7,329.9 	"/>
	<polyline class="st9" points="1256.1,243.5 1299.7,243.5 1299.7,223.5 1299.7,288.2 	"/>
	<polyline class="st9" points="1376.6,189.5 1376.6,126.3 1313.4,126.3 1313.4,145.2 	"/>
	<polyline class="st9" points="999.7,187 1175.7,187 1175.7,177.2 1175.7,244.3 1225.6,244.3 1053.5,244.3 1053.5,230.2 
		1053.5,286.8 	"/>
	<line class="st9" x1="1052.4" y1="203.9" x2="1052.4" y2="187"/>
	<polyline class="st9" points="1052.4,329.6 1052.4,429.8 887,429.8 887,331 	"/>
	<polyline class="st9" points="952.3,187 889.1,187 889.1,177.2 889.1,288.2 889.1,235.1 668.9,235.1 668.9,286.8 668.9,187 
		659.8,187 681.2,187 	"/>
	<polyline class="st9" points="705.5,187 743.7,187 743.7,174 743.7,235.1 	"/>
	<path class="st9" d="M630.7,188.1h-42.5c0,0,22.5,15.1,39.3,42.8c10,16.4,18.6,33.7,25.6,51.6h15.8"/>
	<polyline class="st9" points="491.2,471.8 584.6,471.8 641.1,894.4 	"/>
	<line class="st9" x1="487.9" y1="771.5" x2="622.5" y2="755.5"/>
	<polyline class="st9" points="320,687.2 414.8,676.7 400.7,547.5 418.1,701.7 	"/>
	<line class="st9" x1="404.8" y1="584.2" x2="418.1" y2="582.6"/>
	<line class="st9" x1="462.2" y1="575.4" x2="596.3" y2="559.3"/>
	<line class="st9" x1="426.5" y1="748.4" x2="446.6" y2="915.9"/>
	<polyline class="st9" points="272.6,695 167.9,707 163.5,689.3 	"/>
	<line class="st9" x1="444.7" y1="474.5" x2="389" y2="474.5"/>
	<polyline class="st9" points="584.6,471.8 604.9,464.2 597.4,450.3 	"/>
	<polyline class="st9" points="680.9,429.8 661.4,429.8 648.1,406 	"/>
	<line class="st9" x1="1688.7" y1="129.3" x2="1688.7" y2="204.2"/>
	<line class="st9" x1="1909.3" y1="566.8" x2="2001" y2="566.8"/>
	<line class="st9" x1="2021.6" y1="562.8" x2="2120" y2="565.8"/>
	<line class="st9" x1="1797.3" y1="133.6" x2="1797.3" y2="158.9"/>
	<line class="st9" x1="1797.3" y1="202.5" x2="1797.3" y2="227.7"/>
</g>
<g id="icons">
	<g id="stairs-4-2-3-3">
		<ellipse class="st10" cx="507.7" cy="675.8" rx="24" ry="24"/>
		<path class="st7" d="M494.7,711.7l1-0.1c0,0.4,0.1,0.8,0.4,1c0.2,0.3,0.4,0.5,0.8,0.6s0.8,0.2,1.2,0.3c0.3,0,0.7,0,1-0.1
			s0.5-0.3,0.6-0.5c0.1-0.3,0.3-0.4,0.3-0.6c0-0.2-0.1-0.5-0.3-0.6c-0.2-0.2-0.5-0.4-0.8-0.5c-0.5-0.2-0.9-0.3-1.4-0.4
			c-0.5-0.1-1.1-0.3-1.5-0.5s-0.7-0.5-0.9-0.8c-0.2-0.3-0.2-0.7-0.3-1c0-0.4,0.1-0.8,0.4-1.2c0.2-0.4,0.6-0.7,1-0.8
			c0.5-0.2,0.9-0.2,1.4-0.3c0.5,0,1,0.1,1.5,0.3c0.4,0.2,0.7,0.4,1,0.8c0.3,0.4,0.4,0.8,0.4,1.3l-1,0.1c0-0.4-0.2-0.9-0.5-1.2
			c-0.4-0.3-0.9-0.4-1.4-0.4s-1,0.1-1.4,0.4c-0.2,0.2-0.4,0.5-0.4,0.8c0,0.2,0.1,0.5,0.3,0.6c0.5,0.3,1,0.4,1.5,0.5
			c0.6,0.1,1.2,0.3,1.8,0.5c0.4,0.2,0.7,0.5,1,0.8s0.4,0.7,0.4,1.2c0,0.4-0.1,0.8-0.4,1.2s-0.6,0.7-1,0.9c-0.5,0.2-1,0.3-1.5,0.3
			c-0.6,0-1.2-0.1-1.8-0.3c-0.5-0.1-0.9-0.5-1.2-0.9C494.8,712.6,494.7,712.2,494.7,711.7z"/>
		<path class="st7" d="M504.4,713.4l0.1,0.9c-0.3,0-0.5,0.1-0.8,0.1c-0.4,0-0.6,0-0.8-0.1s-0.4-0.3-0.4-0.4
			c-0.1-0.1-0.1-0.5-0.1-1.2v-3.2h-0.8v-0.8h0.8v-1.4l0.9-0.6v1.9h1v0.8h-1v3.9c0,0.1,0.1,0.1,0.1,0.1l0,0c0.1,0,0.1,0.1,0.4,0.1
			C504,713.4,504.2,713.4,504.4,713.4z"/>
		<path class="st7" d="M509.1,713.5c-0.3,0.3-0.7,0.5-1,0.6s-0.7,0.1-1,0.1c-0.5,0.1-1.1-0.1-1.4-0.5c-0.4-0.3-0.6-0.7-0.5-1.2
			c0-0.3,0-0.5,0.1-0.8c0.1-0.2,0.3-0.4,0.5-0.5c0.3-0.1,0.4-0.3,0.6-0.3c0.3-0.1,0.6-0.1,0.9-0.1c0.6-0.1,1.1-0.2,1.7-0.4v-0.3
			c0-0.3-0.1-0.6-0.3-0.8c-0.3-0.3-0.7-0.4-1.2-0.4c-0.4,0-0.7,0.1-1,0.3c-0.3,0.1-0.4,0.4-0.5,0.9l-0.9-0.1c0.1-0.4,0.2-0.7,0.4-1
			c0.3-0.2,0.6-0.4,0.9-0.5c0.4-0.2,0.8-0.2,1.3-0.3c0.4,0,0.8,0,1.2,0.1c0.2,0.1,0.4,0.2,0.6,0.4s0.3,0.4,0.3,0.6v3.9
			c0,0.2,0.1,0.5,0.3,0.6h-1C509.1,714.1,509.1,713.8,509.1,713.5z M509,711.3c-0.5,0.2-1,0.3-1.5,0.4c-0.4,0-0.6,0.1-0.9,0.1
			c-0.1,0.1-0.3,0.1-0.4,0.3s-0.1,0.3-0.1,0.5s0.1,0.5,0.3,0.6c0.3,0.2,0.6,0.2,0.9,0.3c0.4,0,0.7-0.1,1-0.3
			c0.3-0.1,0.5-0.4,0.6-0.6c0.1-0.3,0.2-0.7,0.1-1V711.3z"/>
		<path class="st7" d="M511.5,707.5v-1.2h1v1.2H511.5z M511.5,714.2v-5.7h1v5.7H511.5z"/>
		<path class="st7" d="M513.9,714.2v-5.7h0.9v0.9c0.3-0.4,0.4-0.6,0.6-0.8s0.4-0.3,0.6-0.3c0.4,0,0.7,0.1,1,0.3l-0.4,0.9
			c-0.2-0.1-0.4-0.2-0.6-0.3c-0.3,0-0.4,0-0.5,0.1c-0.2,0.1-0.3,0.3-0.4,0.5c-0.1,0.4-0.1,0.8-0.1,1.2v3L513.9,714.2L513.9,714.2z"
			/>
		<path class="st7" d="M517.3,712.5l0.9-0.1c0,0.3,0.2,0.6,0.4,0.9c0.1,0.3,0.6,0.3,1,0.3s0.7-0.1,1-0.3c0.2-0.1,0.4-0.4,0.4-0.6
			c0-0.2-0.1-0.4-0.3-0.5c-0.3-0.2-0.7-0.3-1-0.4c-0.5-0.1-1-0.3-1.4-0.5c-0.3-0.1-0.5-0.3-0.6-0.5s-0.2-0.5-0.3-0.8
			c0-0.2,0-0.5,0.1-0.6c0.1-0.2,0.3-0.4,0.5-0.5c0.2-0.2,0.4-0.3,0.6-0.3c0.3,0,0.5-0.1,0.8-0.1c0.4,0,0.8,0.1,1.2,0.3
			c0.3,0.1,0.6,0.3,0.8,0.5c0.2,0.3,0.3,0.6,0.4,0.9l-0.9,0.1c0-0.3-0.1-0.5-0.4-0.6c-0.3-0.2-0.6-0.3-0.9-0.3
			c-0.3,0-0.6,0.1-0.9,0.3c-0.2,0.1-0.3,0.3-0.3,0.5c0,0.1,0,0.3,0.1,0.4c0.1,0.1,0.3,0.1,0.4,0.3c0.1,0,0.4,0.1,0.9,0.3
			c0.6,0.1,1.2,0.4,1.4,0.4c0.3,0.1,0.5,0.3,0.6,0.5s0.2,0.5,0.3,0.8c0,0.3-0.1,0.6-0.3,0.9c-0.2,0.3-0.5,0.5-0.8,0.6
			c-0.4,0.2-0.8,0.2-1.2,0.3c-0.6,0.1-1.2-0.1-1.7-0.5C517.5,713.5,517.3,713.2,517.3,712.5z"/>
		<g id="Outline_Icons-2-2-4-2-3-3">
			<line class="st11" x1="496.9" y1="685.2" x2="515.7" y2="685.2"/>
			<polyline class="st11" points="512.4,685.2 512.4,681.8 509.1,681.8 509.1,678.6 505.9,678.6 505.9,675.4 502.7,675.4 
				502.7,672.2 496.9,672.2 			"/>
			<line class="st11" x1="506.7" y1="666.4" x2="517" y2="676.7"/>
			<polyline class="st11" points="506.7,670.5 506.7,666.4 510.8,666.4 			"/>
			<polyline class="st11" points="517,672.6 517,676.7 512.9,676.7 			"/>
		</g>
	</g>
	<g id="stairs-4-2-3-3-2">
		<circle class="st10" cx="1690.6" cy="217.1" r="24"/>
		<path class="st7" d="M1677.6,253l1-0.1c0,0.4,0.1,0.8,0.4,1c0.2,0.3,0.4,0.5,0.8,0.6s0.8,0.2,1.2,0.3c0.3,0,0.7,0,1-0.1
			s0.5-0.3,0.6-0.5c0.1-0.3,0.3-0.4,0.3-0.6s-0.1-0.5-0.3-0.6c-0.2-0.2-0.5-0.4-0.8-0.5c-0.5-0.2-0.9-0.3-1.4-0.4s-1.1-0.3-1.5-0.5
			s-0.7-0.4-0.9-0.8c-0.2-0.3-0.2-0.7-0.3-1c0-0.4,0.1-0.8,0.4-1.2c0.2-0.4,0.6-0.7,1-0.8c0.5-0.2,0.9-0.2,1.4-0.3
			c0.5,0,1,0.1,1.5,0.3c0.4,0.2,0.7,0.4,1,0.8s0.4,0.8,0.4,1.3l-1,0.1c0-0.4-0.2-0.9-0.5-1.2c-0.4-0.3-0.9-0.4-1.4-0.4
			s-1,0.1-1.4,0.4c-0.2,0.2-0.4,0.5-0.4,0.8c0,0.2,0.1,0.5,0.3,0.6c0.5,0.3,1,0.4,1.5,0.5c0.6,0.1,1.2,0.3,1.8,0.5
			c0.4,0.2,0.7,0.5,1,0.8s0.4,0.7,0.4,1.2c0,0.4-0.1,0.8-0.4,1.2c-0.3,0.4-0.6,0.7-1,0.9c-0.5,0.2-1,0.3-1.5,0.3
			c-0.6,0-1.2-0.1-1.8-0.3c-0.5-0.1-0.9-0.5-1.2-0.9C1677.7,253.9,1677.6,253.4,1677.6,253z"/>
		<path class="st7" d="M1687.3,254.7l0.1,0.9c-0.3,0-0.5,0.1-0.8,0.1c-0.4,0-0.6,0-0.8-0.1s-0.4-0.3-0.4-0.4
			c-0.1-0.1-0.1-0.5-0.1-1.2v-3.2h-0.8V250h0.8v-1.4l0.9-0.6v1.9h1v0.8h-1v3.9c0,0.1,0.1,0.1,0.1,0.1l0,0l0,0c0.1,0,0.1,0.1,0.4,0.1
			C1686.9,254.7,1687.1,254.7,1687.3,254.7z"/>
		<path class="st7" d="M1692,254.8c-0.3,0.3-0.7,0.5-1,0.6s-0.7,0.1-1,0.1c-0.5,0.1-1.1-0.1-1.4-0.5c-0.4-0.3-0.6-0.7-0.5-1.2
			c0-0.3,0-0.5,0.1-0.8c0.1-0.2,0.3-0.4,0.5-0.5c0.3-0.1,0.4-0.3,0.6-0.3c0.3-0.1,0.6-0.1,0.9-0.1c0.6-0.1,1.1-0.2,1.7-0.4v-0.1
			c0-0.3-0.1-0.6-0.3-0.8c-0.3-0.3-0.7-0.4-1.2-0.4c-0.4,0-0.7,0.1-1,0.3c-0.3,0.1-0.4,0.4-0.5,0.9l-0.9-0.1c0.1-0.4,0.2-0.7,0.4-1
			c0.3-0.2,0.6-0.4,0.9-0.5c0.4-0.2,0.8-0.2,1.3-0.3c0.4,0,0.8,0,1.2,0.1c0.2,0.1,0.4,0.2,0.6,0.4c0.2,0.2,0.3,0.4,0.3,0.6v3.9
			c0,0.2,0.1,0.5,0.3,0.6h-1C1692,255.3,1692,255.1,1692,254.8z M1691.9,252.6c-0.5,0.2-1,0.3-1.5,0.4c-0.4,0-0.6,0.1-0.9,0.1
			c-0.1,0.1-0.3,0.1-0.4,0.3s-0.1,0.3-0.1,0.5s0.1,0.5,0.3,0.6c0.3,0.2,0.6,0.2,0.9,0.3c0.4,0,0.7-0.1,1-0.3
			c0.3-0.1,0.5-0.4,0.6-0.6c0.1-0.3,0.2-0.7,0.1-1V252.6z"/>
		<path class="st7" d="M1694.3,248.8v-1.2h1v1.2H1694.3z M1694.3,255.5v-5.7h1v5.7H1694.3z"/>
		<path class="st7" d="M1696.8,255.5v-5.7h0.9v0.9c0.3-0.4,0.4-0.6,0.6-0.8s0.4-0.3,0.6-0.3c0.4,0,0.7,0.1,1,0.3l-0.4,0.9
			c-0.2-0.1-0.4-0.2-0.6-0.3c-0.3,0-0.4,0-0.5,0.1c-0.2,0.1-0.3,0.3-0.4,0.5c-0.1,0.4-0.2,0.8-0.1,1.2v3L1696.8,255.5L1696.8,255.5z
			"/>
		<path class="st7" d="M1700.1,253.8l0.9-0.1c0,0.3,0.2,0.6,0.4,0.9c0.1,0.3,0.6,0.3,1,0.3s0.7-0.1,1-0.3c0.2-0.1,0.4-0.4,0.4-0.6
			s-0.1-0.4-0.3-0.5c-0.3-0.2-0.7-0.3-1-0.4c-0.5-0.1-1-0.3-1.4-0.5c-0.3-0.1-0.5-0.3-0.6-0.5s-0.2-0.5-0.3-0.8c0-0.2,0-0.5,0.1-0.6
			c0.1-0.2,0.3-0.4,0.5-0.5c0.2-0.2,0.4-0.3,0.6-0.3c0.3,0,0.5-0.1,0.8-0.1c0.4,0,0.8,0.1,1.2,0.3c0.3,0.1,0.6,0.3,0.8,0.5
			c0.2,0.3,0.3,0.6,0.4,0.9l-0.9,0.1c0-0.3-0.1-0.5-0.4-0.6c-0.3-0.2-0.6-0.3-0.9-0.3s-0.6,0.1-0.9,0.3c-0.2,0.1-0.3,0.3-0.3,0.5
			c0,0.1,0,0.3,0.1,0.4s0.3,0.1,0.4,0.3c0.1,0,0.4,0.1,0.9,0.3c0.6,0.1,1.2,0.4,1.4,0.4c0.3,0.1,0.5,0.3,0.6,0.5s0.2,0.5,0.3,0.8
			c0,0.3-0.1,0.6-0.3,0.9c-0.2,0.3-0.5,0.5-0.8,0.6c-0.4,0.2-0.8,0.2-1.2,0.3c-0.6,0.1-1.2-0.1-1.7-0.5
			C1700.4,254.8,1700.1,254.4,1700.1,253.8z"/>
		<g id="Outline_Icons-2-2-4-2-3-3-2">
			<line class="st11" x1="1679.8" y1="226.5" x2="1698.6" y2="226.5"/>
			<polyline class="st11" points="1695.2,226.5 1695.2,223.1 1692,223.1 1692,219.9 1688.8,219.9 1688.8,216.7 1685.6,216.7 
				1685.6,213.5 1679.8,213.5 			"/>
			<line class="st11" x1="1689.6" y1="207.7" x2="1699.9" y2="218"/>
			<polyline class="st11" points="1689.6,211.8 1689.6,207.7 1693.7,207.7 			"/>
			<polyline class="st11" points="1699.9,213.8 1699.9,218 1695.8,218 			"/>
		</g>
	</g>
	<g id="stairs-4-2-3-3-3">
		<circle class="st10" cx="1270.8" cy="169.8" r="24"/>
		<path class="st7" d="M1257.7,205.8l1-0.1c0,0.4,0.1,0.8,0.4,1c0.2,0.3,0.4,0.5,0.8,0.6s0.8,0.2,1.2,0.3c0.3,0,0.7,0,1-0.1
			s0.5-0.3,0.6-0.5c0.1-0.3,0.3-0.4,0.3-0.6c0-0.2-0.1-0.5-0.3-0.6c-0.2-0.2-0.5-0.4-0.8-0.5c-0.5-0.2-0.9-0.3-1.4-0.4
			c-0.5-0.1-1.1-0.3-1.5-0.5s-0.7-0.5-0.9-0.8c-0.2-0.3-0.2-0.7-0.3-1c0-0.4,0.1-0.8,0.4-1.2c0.2-0.4,0.6-0.7,1-0.8
			c0.5-0.2,0.9-0.2,1.4-0.3c0.5,0,1,0.1,1.5,0.3c0.4,0.2,0.7,0.4,1,0.8c0.3,0.4,0.4,0.8,0.4,1.3l-1,0.1c0-0.4-0.2-0.9-0.5-1.2
			c-0.4-0.3-0.9-0.4-1.4-0.4s-1,0.1-1.4,0.4c-0.2,0.2-0.4,0.5-0.4,0.8c0,0.2,0.1,0.5,0.3,0.6c0.5,0.3,1,0.4,1.5,0.5
			c0.6,0.1,1.2,0.3,1.8,0.5c0.4,0.2,0.7,0.5,1,0.8s0.4,0.7,0.4,1.2c0,0.4-0.1,0.8-0.4,1.2s-0.6,0.7-1,0.9c-0.5,0.2-1,0.3-1.5,0.3
			c-0.6,0-1.2-0.1-1.8-0.3c-0.5-0.1-0.9-0.5-1.2-0.9C1257.8,206.7,1257.7,206.2,1257.7,205.8z"/>
		<path class="st7" d="M1267.4,207.5l0.1,0.9c-0.3,0-0.5,0.1-0.8,0.1c-0.4,0-0.6,0-0.8-0.1s-0.4-0.3-0.4-0.4
			c-0.1-0.1-0.1-0.5-0.1-1.2v-3.2h-0.8v-0.8h0.8v-1.4l0.9-0.6v1.9h1v0.8h-1v3.9c0,0.1,0.1,0.1,0.1,0.1l0,0c0.1,0,0.1,0.1,0.4,0.1
			C1267,207.5,1267.2,207.4,1267.4,207.5z"/>
		<path class="st7" d="M1272.2,207.6c-0.3,0.3-0.7,0.5-1,0.6s-0.7,0.1-1,0.1c-0.5,0.1-1.1-0.1-1.4-0.5c-0.4-0.3-0.6-0.7-0.5-1.2
			c0-0.3,0-0.5,0.1-0.8c0.1-0.2,0.3-0.4,0.5-0.5c0.3-0.1,0.4-0.3,0.6-0.3c0.3-0.1,0.6-0.1,0.9-0.1c0.6-0.1,1.1-0.2,1.7-0.4v-0.3
			c0-0.3-0.1-0.6-0.3-0.8c-0.3-0.3-0.7-0.4-1.2-0.4c-0.4,0-0.7,0.1-1,0.3c-0.3,0.1-0.4,0.4-0.5,0.9l-0.9-0.1c0.1-0.4,0.2-0.7,0.4-1
			c0.3-0.2,0.6-0.4,0.9-0.5c0.4-0.2,0.8-0.2,1.3-0.3c0.4,0,0.8,0,1.2,0.1c0.2,0.1,0.4,0.2,0.6,0.4s0.3,0.4,0.3,0.6v3.9
			c0,0.2,0.1,0.5,0.3,0.6h-1C1272.2,208.1,1272.2,207.8,1272.2,207.6z M1272,205.4c-0.5,0.2-1,0.3-1.5,0.4c-0.4,0-0.6,0.1-0.9,0.1
			c-0.1,0.1-0.3,0.1-0.4,0.3s-0.1,0.3-0.1,0.5s0.1,0.5,0.3,0.6c0.3,0.2,0.6,0.2,0.9,0.3c0.4,0,0.7-0.1,1-0.3
			c0.3-0.1,0.5-0.4,0.6-0.6c0.1-0.3,0.2-0.7,0.1-1V205.4z"/>
		<path class="st7" d="M1274.5,201.5v-1.2h1v1.2H1274.5z M1274.5,208.2v-5.7h1v5.7H1274.5z"/>
		<path class="st7" d="M1276.9,208.2v-5.7h0.9v0.9c0.3-0.4,0.4-0.6,0.6-0.8s0.4-0.3,0.6-0.3c0.4,0,0.7,0.1,1,0.3l-0.4,0.9
			c-0.2-0.1-0.4-0.2-0.6-0.3c-0.3,0-0.4,0-0.5,0.1c-0.2,0.1-0.3,0.3-0.4,0.5c-0.1,0.4-0.2,0.8-0.1,1.2v3L1276.9,208.2L1276.9,208.2z
			"/>
		<path class="st7" d="M1280.3,206.6l0.9-0.1c0,0.3,0.2,0.6,0.4,0.9c0.1,0.3,0.6,0.3,1,0.3s0.7-0.1,1-0.3c0.2-0.1,0.4-0.4,0.4-0.6
			c0-0.2-0.1-0.4-0.3-0.5c-0.3-0.2-0.7-0.3-1-0.4c-0.5-0.1-1-0.3-1.4-0.5c-0.3-0.1-0.5-0.3-0.6-0.5s-0.2-0.5-0.3-0.8
			c0-0.2,0-0.5,0.1-0.6c0.1-0.2,0.3-0.4,0.5-0.5c0.2-0.2,0.4-0.3,0.6-0.3c0.3,0,0.5-0.1,0.8-0.1c0.4,0,0.8,0.1,1.2,0.3
			c0.3,0.1,0.6,0.3,0.8,0.5c0.2,0.3,0.3,0.6,0.4,0.9l-0.9,0.1c0-0.3-0.1-0.5-0.4-0.6c-0.3-0.2-0.6-0.3-0.9-0.3s-0.6,0.1-0.9,0.3
			c-0.2,0.1-0.3,0.3-0.3,0.5c0,0.1,0,0.3,0.1,0.4c0.1,0.1,0.3,0.1,0.4,0.3c0.1,0,0.4,0.1,0.9,0.3c0.6,0.1,1.2,0.4,1.4,0.4
			c0.3,0.1,0.5,0.3,0.6,0.5s0.2,0.5,0.3,0.8c0,0.3-0.1,0.6-0.3,0.9c-0.2,0.3-0.5,0.5-0.8,0.6c-0.4,0.2-0.8,0.2-1.2,0.3
			c-0.6,0.1-1.2-0.1-1.7-0.5C1280.5,207.6,1280.3,207.2,1280.3,206.6z"/>
		<g id="Outline_Icons-2-2-4-2-3-3-3">
			<line class="st11" x1="1259.9" y1="179.2" x2="1278.7" y2="179.2"/>
			<polyline class="st11" points="1275.4,179.2 1275.4,175.9 1272.2,175.9 1272.2,172.7 1268.9,172.7 1268.9,169.4 1265.7,169.4 
				1265.7,166.2 1259.9,166.2 			"/>
			<line class="st11" x1="1269.7" y1="160.4" x2="1280" y2="170.7"/>
			<polyline class="st11" points="1269.7,164.6 1269.7,160.4 1273.8,160.4 			"/>
			<polyline class="st11" points="1280,166.6 1280,170.7 1275.9,170.7 			"/>
		</g>
	</g>
	<g id="Toilet">
		<path class="st7" d="M1816.3,210.5v-6.7h-2.5v-0.9h6.2v0.9h-2.5v6.7H1816.3z"/>
		<path class="st7" d="M1819.2,207.7c-0.1-0.8,0.2-1.7,0.8-2.2c0.6-0.4,1.1-0.6,1.8-0.6c0.7,0,1.4,0.3,2,0.7
			c0.5,0.6,0.7,1.3,0.7,2.1c0,0.6-0.1,1.1-0.4,1.7c-0.5,0.8-1.3,1.3-2.2,1.3c-0.7,0-1.4-0.3-2-0.7
			C1819.4,209.2,1819.1,208.5,1819.2,207.7z M1820.2,207.7c-0.1,0.6,0.1,1.1,0.5,1.6c0.7,0.7,1.8,0.7,2.4,0c0.4-0.5,0.6-1.1,0.5-1.7
			c0.1-0.6-0.1-1.1-0.5-1.6c-0.7-0.7-1.8-0.7-2.4,0C1820.3,206.4,1820.2,207.1,1820.2,207.7z"/>
		<path class="st7" d="M1825.5,203.8v-1.1h0.9v1.1H1825.5z M1825.5,210.5v-5.5h0.9v5.5H1825.5z"/>
		<path class="st7" d="M1828,210.5v-7.7h0.9v7.7H1828z"/>
		<path class="st7" d="M1834.2,208.6l0.9,0.1c-0.1,0.6-0.5,1-0.8,1.3c-0.5,0.4-1,0.6-1.6,0.5c-0.7,0-1.4-0.2-2-0.7
			c-0.9-1.3-0.9-3.1,0-4.3c0.5-0.5,1.2-0.7,2-0.7c0.7,0,1.3,0.3,1.8,0.7c0.6,0.6,0.7,1.4,0.7,2.1v0.3h-4.2c0,0.6,0.2,1,0.5,1.4
			c0.3,0.4,0.7,0.5,1.2,0.5c0.3,0,0.6-0.1,0.8-0.3C1833.9,209.2,1834.1,209,1834.2,208.6z M1831.1,207.1h3.1c0-0.9-0.7-1.7-1.6-1.7
			c-0.5-0.1-0.8,0.1-1.1,0.5C1831.2,206.2,1831.1,206.6,1831.1,207.1L1831.1,207.1z"/>
		<path class="st7" d="M1838.4,209.6l0.1,0.8c-0.3,0-0.5,0.1-0.7,0.1s-0.6,0-0.8-0.1c-0.3-0.1-0.4-0.3-0.4-0.5
			c-0.1-0.4-0.2-0.7-0.1-1.1v-3.3h-0.7v-0.7h0.7v-1.3l0.9-0.6v2h0.9v0.7h-0.9v3.7c0,0.1,0.1,0.1,0.1,0.3s0.3,0.1,0.4,0.1
			C1838.1,209.6,1838.2,209.6,1838.4,209.6z"/>
		<circle class="st10" cx="1826.3" cy="175.2" r="23.3"/>
		<g id="Outline_Icons-4">
			<path class="st12" d="M1834.7,174.9c0,0.6-0.4,0.9-0.9,0.9l0,0h-4.8v-10.3c0-1,0.8-1.9,1.9-2h2c1,0,1.9,0.8,2,1.9l0,0v0.1
				L1834.7,174.9L1834.7,174.9z"/>
			<path class="st12" d="M1821.5,185.1h9.3v-5.7l2.8-2v-2h-15.9c-0.1,2.4,1.8,4.5,4.2,4.7h0.3L1821.5,185.1z"/>
			<rect x="1816.9" y="173.9" class="st12" width="12.1" height="2"/>
			<circle class="st12" cx="1832.3" cy="167" r="0.9"/>
		</g>
	</g>
	<g id="Toilet-2">
		<path class="st7" d="M1541.5,323v-7.2h-2.7v-1h6.6v1h-2.7v7.2H1541.5z"/>
		<path class="st7" d="M1544.6,320c-0.1-0.9,0.2-1.8,0.9-2.4c0.6-0.4,1.2-0.6,1.9-0.6c0.8,0,1.5,0.3,2.1,0.8
			c0.5,0.6,0.8,1.4,0.8,2.2c0,0.6-0.1,1.2-0.4,1.8c-0.5,0.9-1.4,1.4-2.4,1.4c-0.8,0-1.5-0.3-2.1-0.8
			C1544.8,321.7,1544.5,320.9,1544.6,320z M1545.7,320c-0.1,0.6,0.1,1.2,0.5,1.7c0.7,0.7,1.9,0.7,2.6,0c0.4-0.5,0.6-1.2,0.5-1.8
			c0.1-0.6-0.1-1.2-0.5-1.7c-0.7-0.7-1.9-0.7-2.6,0C1545.8,318.7,1545.6,319.4,1545.7,320z"/>
		<path class="st7" d="M1551.4,315.9v-1.2h1v1.2H1551.4z M1551.4,323v-5.9h1v5.9H1551.4z"/>
		<path class="st7" d="M1554,323v-8.2h1v8.2H1554z"/>
		<path class="st7" d="M1560.7,321.1l1,0.1c-0.1,0.6-0.5,1.1-0.9,1.4c-0.5,0.4-1.1,0.6-1.7,0.5c-0.8,0-1.5-0.2-2.1-0.8
			c-1-1.4-1-3.3,0-4.6c0.5-0.5,1.3-0.8,2.1-0.8c0.7,0,1.4,0.3,1.9,0.8c0.6,0.6,0.8,1.5,0.8,2.3v0.3h-4.5c0,0.6,0.2,1.1,0.5,1.5
			s0.8,0.5,1.3,0.5c0.3,0,0.6-0.1,0.9-0.3C1560.3,321.8,1560.5,321.4,1560.7,321.1z M1557.3,319.4h3.3c0-1-0.7-1.8-1.7-1.8
			c-0.5-0.1-0.9,0.1-1.2,0.5C1557.5,318.4,1557.3,318.9,1557.3,319.4L1557.3,319.4z"/>
		<path class="st7" d="M1565.2,322.1l0.1,0.9c-0.3,0-0.5,0.1-0.8,0.1s-0.6,0-0.9-0.1s-0.4-0.3-0.4-0.5c-0.1-0.4-0.2-0.8-0.1-1.2
			v-3.5h-0.8V317h0.8v-1.4l1-0.6v2.1h1v0.8h-1v4c0,0.1,0.1,0.1,0.1,0.3s0.3,0.1,0.4,0.1C1564.8,322.1,1564.9,322.1,1565.2,322.1z"/>
		<circle class="st10" cx="1552.2" cy="285.4" r="24.9"/>
		<g id="Outline_Icons-4-2">
			<path class="st12" d="M1561.2,285c0,0.6-0.4,1-1,1l0,0h-5.1v-11c0-1.1,0.9-2,2-2.1h2.1c1.1,0,2,0.9,2.1,2v0.1L1561.2,285
				L1561.2,285z"/>
			<path class="st12" d="M1547.1,295.9h10v-6.1l3-2.1v-2.1h-17c-0.1,2.6,1.9,4.8,4.5,5h0.3L1547.1,295.9z"/>
			<rect x="1542.1" y="283.9" class="st12" width="13" height="2.1"/>
			<circle class="st12" cx="1558.6" cy="276.5" r="1"/>
		</g>
	</g>
	<g class="st5">
		<path class="st13" d="M1309.1,329v-7.1h2.7c0.5,0,0.8,0,1.1,0.1c0.3,0.1,0.6,0.2,0.9,0.3c0.2,0.2,0.4,0.4,0.6,0.7
			c0.1,0.3,0.2,0.6,0.2,1c0,0.6-0.2,1.1-0.6,1.5s-1.1,0.6-2.1,0.6h-1.8v2.9H1309.1z M1310.1,325.3h1.8c0.6,0,1-0.1,1.3-0.3
			c0.3-0.2,0.4-0.5,0.4-1c0-0.3-0.1-0.6-0.2-0.8s-0.3-0.4-0.6-0.4c-0.2,0-0.5-0.1-0.9-0.1h-1.8L1310.1,325.3L1310.1,325.3z"/>
		<path class="st13" d="M1315.6,329v-5.2h0.8v0.8c0.2-0.4,0.4-0.6,0.6-0.7s0.4-0.2,0.6-0.2c0.3,0,0.6,0.1,0.9,0.3l-0.3,0.8
			c-0.2-0.1-0.4-0.2-0.6-0.2s-0.4,0.1-0.5,0.2c-0.2,0.1-0.3,0.3-0.3,0.5c-0.1,0.3-0.1,0.6-0.1,1v2.7L1315.6,329L1315.6,329z"/>
		<path class="st13" d="M1318.9,322.9v-1h0.9v1H1318.9z M1318.9,329v-5.2h0.9v5.2H1318.9z"/>
		<path class="st13" d="M1321.1,329v-5.2h0.8v0.7c0.4-0.6,0.9-0.8,1.6-0.8c0.3,0,0.6,0.1,0.9,0.2s0.5,0.3,0.6,0.4
			c0.1,0.2,0.2,0.4,0.3,0.6c0,0.2,0,0.4,0,0.8v3.2h-0.9v-3.1c0-0.4,0-0.6-0.1-0.8c-0.1-0.2-0.2-0.3-0.4-0.4
			c-0.2-0.1-0.4-0.2-0.6-0.2c-0.4,0-0.7,0.1-1,0.4c-0.3,0.2-0.4,0.7-0.4,1.3v2.8h-0.8V329z"/>
		<path class="st13" d="M1328.6,328.2l0.1,0.8c-0.2,0.1-0.5,0.1-0.7,0.1c-0.3,0-0.6-0.1-0.7-0.2c-0.2-0.1-0.3-0.2-0.4-0.4
			c-0.1-0.2-0.1-0.5-0.1-1v-3h-0.6v-0.7h0.6v-1.3l0.9-0.5v1.8h0.9v0.7h-0.9v3c0,0.2,0,0.4,0,0.5s0.1,0.1,0.2,0.2s0.2,0.1,0.3,0.1
			C1328.3,328.3,1328.4,328.2,1328.6,328.2z"/>
		<path class="st13" d="M1333,327.3l0.9,0.1c-0.1,0.5-0.4,0.9-0.8,1.2s-0.9,0.4-1.5,0.4c-0.8,0-1.4-0.2-1.8-0.7s-0.7-1.1-0.7-2
			s0.2-1.5,0.7-2s1-0.7,1.7-0.7s1.3,0.2,1.7,0.7s0.7,1.1,0.7,2c0,0.1,0,0.1,0,0.2h-3.8c0,0.6,0.2,1,0.5,1.3s0.6,0.5,1.1,0.5
			c0.3,0,0.6-0.1,0.8-0.3C1332.7,328,1332.8,327.7,1333,327.3z M1330.1,325.9h2.9c0-0.4-0.1-0.8-0.3-1c-0.3-0.3-0.6-0.5-1.1-0.5
			c-0.4,0-0.7,0.1-1,0.4S1330.1,325.5,1330.1,325.9z"/>
		<path class="st13" d="M1335,329v-5.2h0.8v0.8c0.2-0.4,0.4-0.6,0.6-0.7s0.4-0.2,0.6-0.2c0.3,0,0.6,0.1,0.9,0.3l-0.3,0.8
			c-0.2-0.1-0.4-0.2-0.6-0.2s-0.4,0.1-0.5,0.2c-0.2,0.1-0.3,0.3-0.3,0.5c-0.1,0.3-0.1,0.6-0.1,1v2.7L1335,329L1335,329z"/>
		<path class="st13" d="M1341.2,329v-7.1h3.2c0.6,0,1.1,0.1,1.4,0.2s0.6,0.4,0.8,0.7s0.3,0.7,0.3,1.1c0,0.5-0.2,0.9-0.5,1.3
			c-0.3,0.3-0.8,0.6-1.5,0.7c0.2,0.1,0.4,0.2,0.6,0.4c0.3,0.3,0.5,0.6,0.8,0.9l1.2,1.9h-1.2l-0.9-1.5c-0.3-0.4-0.5-0.8-0.7-1
			s-0.3-0.4-0.5-0.5c-0.1-0.1-0.3-0.2-0.4-0.2s-0.3,0-0.5,0h-1.1v3.2h-1L1341.2,329L1341.2,329z M1342.1,325h2c0.4,0,0.8,0,1-0.1
			s0.4-0.2,0.6-0.4c0.1-0.2,0.2-0.4,0.2-0.6c0-0.3-0.1-0.6-0.4-0.8s-0.6-0.3-1.2-0.3h-2.3v2.2L1342.1,325L1342.1,325z"/>
		<path class="st13" d="M1347.9,326.4c0-1,0.3-1.7,0.8-2.1c0.4-0.4,1-0.6,1.6-0.6c0.7,0,1.3,0.2,1.7,0.7c0.4,0.5,0.7,1.1,0.7,1.9
			c0,0.7-0.1,1.2-0.3,1.6c-0.2,0.4-0.5,0.7-0.9,0.9c-0.4,0.2-0.8,0.3-1.2,0.3c-0.7,0-1.3-0.2-1.7-0.7
			C1348.1,328,1347.9,327.3,1347.9,326.4z M1348.8,326.4c0,0.7,0.1,1.2,0.4,1.5s0.7,0.5,1.1,0.5s0.8-0.2,1.1-0.5
			c0.3-0.3,0.4-0.8,0.4-1.5c0-0.6-0.1-1.1-0.4-1.4s-0.6-0.5-1.1-0.5c-0.4,0-0.8,0.2-1.1,0.5C1348.9,325.3,1348.8,325.8,1348.8,326.4
			z"/>
		<path class="st13" d="M1353.4,326.4c0-1,0.3-1.7,0.8-2.1c0.4-0.4,1-0.6,1.6-0.6c0.7,0,1.3,0.2,1.7,0.7c0.4,0.5,0.7,1.1,0.7,1.9
			c0,0.7-0.1,1.2-0.3,1.6c-0.2,0.4-0.5,0.7-0.9,0.9c-0.4,0.2-0.8,0.3-1.2,0.3c-0.7,0-1.3-0.2-1.7-0.7
			C1353.6,328,1353.4,327.3,1353.4,326.4z M1354.3,326.4c0,0.7,0.1,1.2,0.4,1.5s0.7,0.5,1.1,0.5s0.8-0.2,1.1-0.5s0.4-0.8,0.4-1.5
			c0-0.6-0.1-1.1-0.4-1.4s-0.6-0.5-1.1-0.5c-0.4,0-0.8,0.2-1.1,0.5C1354.4,325.3,1354.3,325.8,1354.3,326.4z"/>
		<path class="st13" d="M1359.3,329v-5.2h0.8v0.7c0.2-0.3,0.4-0.5,0.6-0.6c0.3-0.2,0.6-0.2,0.9-0.2c0.4,0,0.7,0.1,0.9,0.2
			s0.4,0.4,0.5,0.7c0.4-0.6,0.9-0.9,1.6-0.9c0.5,0,0.9,0.1,1.2,0.4c0.3,0.3,0.4,0.7,0.4,1.3v3.5h-0.9v-3.2c0-0.3,0-0.6-0.1-0.8
			s-0.2-0.3-0.3-0.4c-0.1-0.1-0.3-0.1-0.5-0.1c-0.4,0-0.7,0.1-0.9,0.4s-0.4,0.6-0.4,1.2v3h-0.9v-3.3c0-0.4-0.1-0.7-0.2-0.9
			c-0.1-0.2-0.4-0.3-0.7-0.3c-0.2,0-0.5,0.1-0.7,0.2s-0.4,0.3-0.5,0.6s-0.1,0.6-0.1,1.1v2.7h-0.7L1359.3,329L1359.3,329z"/>
	</g>
	<circle class="st14" cx="1338.1" cy="295.6" r="21.6"/>
	<g id="Outline_Icons-6-6">
		<g id="Outline_Icons-7-2">
			<path class="st15" d="M1333.2,299.9h-2.2c-0.8-0.1-1.4-0.7-1.5-1.5v-4.7c0.1-0.8,0.7-1.4,1.5-1.5h14.6c0.8,0.1,1.4,0.7,1.5,1.5
				v4.7c-0.1,0.8-0.7,1.4-1.5,1.5h-2.2"/>
			<polyline class="st15" points="1333.2,290.7 1333.2,287.7 1340.9,287.7 1343.1,289.9 1343.1,290.7 			"/>
			<rect x="1333.2" y="297.6" class="st15" width="9.9" height="6.2"/>
			<circle class="st15" cx="1331.7" cy="294.4" r="0.7"/>
			<line class="st15" x1="1334.7" y1="299.1" x2="1341.6" y2="299.1"/>
			<line class="st15" x1="1334.7" y1="300.6" x2="1341.6" y2="300.6"/>
			<line class="st15" x1="1334.7" y1="302.1" x2="1341.6" y2="302.1"/>
			<polyline class="st15" points="1340.9,287.7 1340.9,289.9 1343.1,289.9 			"/>
		</g>
	</g>
	<g>
		<circle class="st10" cx="1681.5" cy="316.3" r="21.8"/>
		<path class="st16" d="M1675.5,323.9V313c0-0.6,0.5-1.1,1.2-1.1h2.1c0.6,0,1.2,0.5,1.2,1.1v10.9c0,0.6-0.5,1.1-1.2,1.1h-2.1
			C1676.1,325,1675.5,324.5,1675.5,323.9z M1680.3,323.9V313c0-0.6,0.5-1.1,1.2-1.1h2.1c0.6,0,1.1,0.5,1.1,1.1v10.9
			c0,0.6-0.5,1.1-1.1,1.1h-2.1C1680.9,325,1680.3,324.5,1680.3,323.9z M1689.1,325h-2.8c-0.6,0-1.2-0.5-1.2-1.1v-11.1
			c0-0.7-0.6-1.4-1.3-1.4h-8.3c-0.1,0-0.2,0.1-0.2,0.2l0,0v12.2c0,0.6-0.5,1.1-1.2,1.1l0,0c-0.6,0-1.1-0.5-1.1-1.1v-15
			c0-0.6,0.5-1.1,1.1-1.1h15c0.6,0,1.2,0.5,1.2,1.1v15C1690.2,324.5,1689.7,325,1689.1,325z M1690.4,307.3h-17.6
			c-0.1,0-0.2,0.1-0.2,0.2l0,0V324c0,0.7,0.6,1.4,1.3,1.4h16.5c0.1,0,0.2-0.1,0.2-0.2l0,0v-17.6
			C1690.5,307.3,1690.4,307.3,1690.4,307.3z"/>
		<g class="st5">
			<path class="st13" d="M1663.5,349.3v-7.4h5.3v0.9h-4.4v2.3h4.1v0.9h-4.1v2.5h4.5v0.9H1663.5z"/>
			<path class="st13" d="M1670.2,349.3v-7.4h0.9v7.4H1670.2z"/>
			<path class="st13" d="M1676.2,347.6l0.9,0.1c-0.1,0.5-0.4,1-0.8,1.3c-0.4,0.3-0.9,0.5-1.5,0.5c-0.8,0-1.4-0.2-1.9-0.7
				c-0.5-0.5-0.7-1.2-0.7-2c0-0.9,0.2-1.6,0.7-2.1c0.5-0.5,1.1-0.7,1.8-0.7c0.7,0,1.3,0.2,1.8,0.7c0.5,0.5,0.7,1.2,0.7,2.1
				c0,0.1,0,0.1,0,0.2h-4c0,0.6,0.2,1,0.5,1.3c0.3,0.3,0.7,0.5,1.1,0.5c0.3,0,0.6-0.1,0.9-0.3C1675.9,348.2,1676.1,348,1676.2,347.6
				z M1673.2,346.1h3c0-0.5-0.2-0.8-0.3-1c-0.3-0.3-0.7-0.5-1.1-0.5c-0.4,0-0.8,0.1-1.1,0.4C1673.4,345.3,1673.3,345.6,1673.2,346.1
				z"/>
			<path class="st13" d="M1679.8,349.3l-2-5.3h1l1.1,3.2c0.1,0.3,0.2,0.7,0.3,1.1c0.1-0.3,0.2-0.6,0.3-1l1.2-3.3h0.9l-2,5.3H1679.8z
				"/>
			<path class="st13" d="M1686.9,348.6c-0.3,0.3-0.7,0.5-1,0.6c-0.3,0.1-0.6,0.2-1,0.2c-0.6,0-1-0.1-1.4-0.4s-0.5-0.7-0.5-1.1
				c0-0.3,0.1-0.5,0.2-0.7c0.1-0.2,0.3-0.4,0.5-0.5s0.4-0.2,0.7-0.3c0.2,0,0.4-0.1,0.8-0.1c0.7-0.1,1.3-0.2,1.6-0.3
				c0-0.1,0-0.2,0-0.2c0-0.4-0.1-0.6-0.3-0.8c-0.2-0.2-0.6-0.3-1-0.3c-0.4,0-0.7,0.1-0.9,0.2s-0.4,0.4-0.5,0.8l-0.9-0.1
				c0.1-0.4,0.2-0.7,0.4-0.9c0.2-0.2,0.5-0.4,0.8-0.5c0.3-0.1,0.8-0.2,1.2-0.2c0.5,0,0.8,0.1,1.1,0.2c0.3,0.1,0.5,0.2,0.6,0.4
				c0.1,0.2,0.2,0.4,0.3,0.6c0,0.2,0,0.4,0,0.8v1.2c0,0.8,0,1.4,0.1,1.6c0,0.2,0.1,0.4,0.2,0.6h-0.9
				C1687,349.1,1687,348.9,1686.9,348.6z M1686.9,346.6c-0.3,0.1-0.8,0.2-1.5,0.3c-0.4,0.1-0.6,0.1-0.8,0.2
				c-0.2,0.1-0.3,0.2-0.4,0.3c-0.1,0.1-0.1,0.3-0.1,0.4c0,0.2,0.1,0.4,0.3,0.6c0.2,0.2,0.5,0.2,0.8,0.2c0.3,0,0.7-0.1,0.9-0.2
				c0.3-0.2,0.5-0.4,0.6-0.6c0.1-0.2,0.1-0.5,0.1-0.9V346.6z"/>
			<path class="st13" d="M1691.2,348.5l0.1,0.8c-0.3,0.1-0.5,0.1-0.7,0.1c-0.3,0-0.6-0.1-0.8-0.2c-0.2-0.1-0.3-0.2-0.4-0.4
				c-0.1-0.2-0.1-0.5-0.1-1.1v-3.1h-0.7v-0.7h0.7v-1.3l0.9-0.5v1.9h0.9v0.7h-0.9v3.1c0,0.3,0,0.4,0,0.5c0,0.1,0.1,0.1,0.2,0.2
				c0.1,0,0.2,0.1,0.3,0.1C1690.9,348.5,1691,348.5,1691.2,348.5z"/>
			<path class="st13" d="M1691.7,346.6c0-1,0.3-1.7,0.8-2.2c0.5-0.4,1-0.6,1.7-0.6c0.7,0,1.3,0.2,1.8,0.7s0.7,1.1,0.7,2
				c0,0.7-0.1,1.2-0.3,1.6c-0.2,0.4-0.5,0.7-0.9,0.9c-0.4,0.2-0.8,0.3-1.3,0.3c-0.7,0-1.4-0.2-1.8-0.7
				C1691.9,348.2,1691.7,347.5,1691.7,346.6z M1692.6,346.6c0,0.7,0.1,1.2,0.4,1.5c0.3,0.3,0.7,0.5,1.1,0.5c0.5,0,0.8-0.2,1.1-0.5
				c0.3-0.3,0.4-0.9,0.4-1.6c0-0.7-0.2-1.2-0.5-1.5c-0.3-0.3-0.7-0.5-1.1-0.5c-0.5,0-0.8,0.2-1.1,0.5S1692.6,345.9,1692.6,346.6z"/>
			<path class="st13" d="M1697.8,349.3v-5.3h0.8v0.8c0.2-0.4,0.4-0.6,0.6-0.8c0.2-0.1,0.4-0.2,0.6-0.2c0.3,0,0.6,0.1,0.9,0.3
				l-0.3,0.8c-0.2-0.1-0.4-0.2-0.7-0.2c-0.2,0-0.4,0.1-0.5,0.2s-0.3,0.3-0.3,0.5c-0.1,0.3-0.2,0.7-0.2,1.1v2.8H1697.8z"/>
		</g>
	</g>
</g>
<g id="shower_2">
	<circle class="st10" cx="1772.9" cy="177.7" r="22.4"/>
	<g class="st5">
		<path class="st17" d="M1756,209.4l0.9-0.1c0,0.4,0.1,0.7,0.3,0.9s0.4,0.4,0.7,0.6c0.3,0.1,0.7,0.2,1.1,0.2c0.4,0,0.7-0.1,1-0.2
			s0.5-0.3,0.6-0.5s0.2-0.4,0.2-0.6c0-0.2-0.1-0.4-0.2-0.6c-0.1-0.2-0.4-0.3-0.7-0.4c-0.2-0.1-0.6-0.2-1.3-0.4
			c-0.7-0.2-1.1-0.3-1.4-0.5c-0.4-0.2-0.6-0.4-0.8-0.7c-0.2-0.3-0.3-0.6-0.3-0.9c0-0.4,0.1-0.7,0.3-1s0.5-0.6,0.9-0.7
			c0.4-0.2,0.9-0.3,1.3-0.3c0.5,0,1,0.1,1.4,0.3c0.4,0.2,0.7,0.4,1,0.8c0.2,0.3,0.3,0.7,0.4,1.2l-0.9,0.1c0-0.5-0.2-0.8-0.5-1.1
			c-0.3-0.2-0.7-0.4-1.3-0.4c-0.6,0-1,0.1-1.3,0.3c-0.3,0.2-0.4,0.5-0.4,0.8c0,0.3,0.1,0.5,0.3,0.7c0.2,0.2,0.7,0.3,1.5,0.5
			c0.8,0.2,1.3,0.3,1.6,0.5c0.4,0.2,0.7,0.4,0.9,0.8s0.3,0.7,0.3,1c0,0.4-0.1,0.8-0.3,1.1c-0.2,0.3-0.5,0.6-1,0.8s-0.9,0.3-1.4,0.3
			c-0.7,0-1.2-0.1-1.7-0.3c-0.5-0.2-0.8-0.5-1.1-0.9C1756.2,210.3,1756,209.9,1756,209.4z"/>
		<path class="st17" d="M1763.1,211.7v-7.4h0.9v2.6c0.4-0.5,1-0.7,1.6-0.7c0.4,0,0.7,0.1,1,0.2c0.3,0.2,0.5,0.4,0.6,0.6
			c0.1,0.3,0.2,0.7,0.2,1.2v3.4h-0.9v-3.4c0-0.5-0.1-0.8-0.3-1c-0.2-0.2-0.5-0.3-0.8-0.3c-0.3,0-0.5,0.1-0.8,0.2
			c-0.2,0.1-0.4,0.3-0.5,0.6s-0.2,0.6-0.2,1v2.9H1763.1z"/>
		<path class="st17" d="M1768.5,209.1c0-1,0.3-1.7,0.8-2.2c0.5-0.4,1-0.6,1.7-0.6c0.7,0,1.3,0.2,1.8,0.7s0.7,1.1,0.7,2
			c0,0.7-0.1,1.2-0.3,1.6s-0.5,0.7-0.9,0.9c-0.4,0.2-0.8,0.3-1.3,0.3c-0.7,0-1.3-0.2-1.8-0.7S1768.5,210,1768.5,209.1z
			 M1769.4,209.1c0,0.7,0.1,1.2,0.4,1.5c0.3,0.3,0.7,0.5,1.1,0.5c0.4,0,0.8-0.2,1.1-0.5c0.3-0.3,0.4-0.9,0.4-1.6
			c0-0.7-0.2-1.2-0.4-1.5c-0.3-0.3-0.7-0.5-1.1-0.5c-0.5,0-0.8,0.2-1.1,0.5S1769.4,208.4,1769.4,209.1z"/>
		<path class="st17" d="M1775.5,211.7l-1.6-5.3h0.9l0.8,3.1l0.3,1.1c0-0.1,0.1-0.4,0.3-1.1l0.8-3.1h0.9l0.8,3.1l0.3,1l0.3-1l0.9-3.1
			h0.9l-1.7,5.3h-0.9l-0.8-3.2l-0.2-0.9l-1.1,4.1H1775.5z"/>
		<path class="st17" d="M1785.6,210l0.9,0.1c-0.1,0.5-0.4,1-0.8,1.3c-0.4,0.3-0.9,0.5-1.5,0.5c-0.8,0-1.4-0.2-1.9-0.7
			c-0.5-0.5-0.7-1.2-0.7-2c0-0.9,0.2-1.6,0.7-2.1c0.5-0.5,1.1-0.7,1.8-0.7c0.7,0,1.3,0.2,1.7,0.7c0.5,0.5,0.7,1.2,0.7,2
			c0,0.1,0,0.1,0,0.2h-4c0,0.6,0.2,1,0.5,1.3s0.7,0.5,1.1,0.5c0.3,0,0.6-0.1,0.8-0.3C1785.3,210.7,1785.4,210.4,1785.6,210z
			 M1782.6,208.5h3c0-0.4-0.2-0.8-0.3-1c-0.3-0.3-0.7-0.5-1.1-0.5c-0.4,0-0.8,0.1-1,0.4C1782.8,207.7,1782.6,208.1,1782.6,208.5z"/>
		<path class="st17" d="M1787.6,211.7v-5.3h0.8v0.8c0.2-0.4,0.4-0.6,0.6-0.7c0.2-0.1,0.4-0.2,0.6-0.2c0.3,0,0.6,0.1,0.9,0.3
			l-0.3,0.8c-0.2-0.1-0.4-0.2-0.7-0.2c-0.2,0-0.4,0.1-0.5,0.2s-0.3,0.3-0.3,0.5c-0.1,0.3-0.2,0.7-0.2,1.1v2.8H1787.6z"/>
	</g>
	<g id="Outline_Icons-2">
		<line class="st18" x1="1773.8" y1="179.1" x2="1773.8" y2="180.6"/>
		<line class="st18" x1="1773.8" y1="182.3" x2="1773.8" y2="183.5"/>
		<line class="st18" x1="1773.8" y1="185.4" x2="1773.8" y2="186.7"/>
		<line class="st18" x1="1777.2" y1="179.1" x2="1778" y2="180.3"/>
		<line class="st18" x1="1778.7" y1="182" x2="1779.2" y2="183.3"/>
		<line class="st18" x1="1779.9" y1="184.7" x2="1780.4" y2="185.9"/>
		<line class="st18" x1="1770.2" y1="179.1" x2="1769.7" y2="180.3"/>
		<line class="st18" x1="1769" y1="182" x2="1768.5" y2="183.3"/>
		<line class="st18" x1="1767.8" y1="184.7" x2="1767" y2="185.9"/>
		<line class="st18" x1="1775.3" y1="179.1" x2="1775.5" y2="180.6"/>
		<line class="st18" x1="1776" y1="182.3" x2="1776.3" y2="183.5"/>
		<line class="st18" x1="1776.8" y1="185.2" x2="1777" y2="186.4"/>
		<line class="st18" x1="1772.1" y1="179.1" x2="1771.9" y2="180.6"/>
		<line class="st18" x1="1771.7" y1="182.3" x2="1771.2" y2="183.5"/>
		<line class="st18" x1="1770.9" y1="185.2" x2="1770.7" y2="186.4"/>
		<path class="st18" d="M1781.9,176.5h-15.8l0.7-1c3.2-3.9,8.9-4.6,12.9-1.5l1.5,1.5L1781.9,176.5z"/>
		<polyline class="st18" points="1772.1,172.3 1772.9,170.4 1774.6,170.4 1775.5,172.3 		"/>
		<line class="st18" x1="1773.8" y1="170.4" x2="1773.8" y2="168.7"/>
	</g>
</g>
<line class="st9" x1="1746.7" y1="567.1" x2="1746.7" y2="697.3"/>
</svg>
