<?xml version="1.0" encoding="utf-8"?>
<!-- Generator: Adobe Illustrator 28.1.0, SVG Export Plug-In . SVG Version: 6.00 Build 0)  -->
<svg version="1.1" id="Layer_1" xmlns="http://www.w3.org/2000/svg" xmlns:xlink="http://www.w3.org/1999/xlink" x="0px" y="0px"
	 viewBox="0 0 2251 1321" style="enable-background:new 0 0 2251 1321;" xml:space="preserve">
<style type="text/css">
	.st0{fill:#23A2B7;}
	.st1{fill:#A8E0E5;}
	.st2{fill:#8ECCCE;}
	.st3{opacity:5.000000e-02;fill:#030303;enable-background:new    ;}
	.st4{fill:#B8BFC1;}
	.st5{fill:#FFFFFF;}
	.st6{opacity:0.15;fill:#010101;enable-background:new    ;}
	.st7{fill:#596068;}
	.st8{fill:#9BAEB7;}
	.st9{fill:none;stroke:#7A8E93;stroke-width:1.87;stroke-linecap:round;stroke-miterlimit:10;}
	.st10{opacity:0.74;fill:#575757;enable-background:new    ;}
	.st11{fill:none;stroke:#EDEDED;stroke-width:8;stroke-miterlimit:10;}
	.st12{fill:none;stroke:#EFEFF0;stroke-width:4.061;stroke-miterlimit:10;}
</style>
<g id="shadow">
	<polygon class="st0" points="101.9,415.1 97.4,447.3 221.8,1101.5 2109.8,1035.1 2118,1008.9 2054,788 1453.8,906.8 1394.4,654 
		913.1,937.3 680,810.9 696,443.2 	"/>
</g>
<g id="background">
	<path class="st1" d="M106.5,419.5l130.4,657.3l1877.1-71.2l-18.6-257.5l-515,17.4l-181.3-163.1L940,636.3l-28.8,166
		c0,0-39.6-40.7-92.7-54.2s-73.4-8.5-73.4-8.5L696,443.2L106.5,419.5L106.5,419.5z"/>
</g>
<g id="spaces">
	<path class="st2" d="M374.2,428l54.7,315.1h357.5c0,0,39,2.7,76.6,22.5s56.7,35.1,60.1,85.4s5.5,91.2-11.9,124.8
		s-32.2,51.2-55.3,64.8l-23.2,13.7l-595.8,22.6L106.5,419.5L374.2,428L374.2,428z"/>
	<polygon class="st2" points="963.6,634.6 983.8,928.7 1200.9,920.4 1200.9,938.5 1548.2,917 1554.5,1026.9 2113,1005.7 
		2095.4,748.1 1582.7,765.6 1401.5,604.6 	"/>
</g>
<g id="furnaiture">
	<g>
		
			<rect x="285" y="821.4" transform="matrix(0.9874 -0.1584 0.1584 0.9874 -128.7815 62.1189)" class="st3" width="80.6" height="35.1"/>
		
			<rect x="285.5" y="824.9" transform="matrix(0.9874 -0.1584 0.1584 0.9874 -129.3316 62.2427)" class="st4" width="80.6" height="35.1"/>
		
			<rect x="285.7" y="827" transform="matrix(0.9874 -0.1584 0.1584 0.9874 -129.6617 62.3)" class="st5" width="80.6" height="35.1"/>
		<path class="st6" d="M319.5,815.9l7.6-1.2c5.4-0.6,9.5-5.6,8.9-11.1V803l-1.6-6.8c-1.7-7-8.5-11.3-15.5-9.9l0,0
			c-7.2,0.8-12.4,7-11.8,14.2l0.8,7c0.8,5.4,5.8,9.3,11.5,8.5l0,0L319.5,815.9L319.5,815.9z"/>
		<path class="st7" d="M319.7,816.7l7.6-1.2c5.4-0.6,9.5-5.6,8.9-11.1v-0.6l-1.7-7c-1.7-7-8.5-11.3-15.5-9.9l0,0
			c-7.2,0.8-12.4,7-11.8,14.2l0.8,7c0.8,5.4,5.8,9.3,11.5,8.5L319.7,816.7L319.7,816.7z"/>
		<path class="st8" d="M320.7,819.8l7-1.2c5.2-0.8,8.9-5.6,8.2-10.9l0,0v-0.4l-1.6-6.8c-1.6-6.6-7.8-11.1-14.6-10.1l0,0
			c-6.8,1-11.5,7.2-10.7,14l0.8,7c0.4,5,5,8.9,10.1,8.3L320.7,819.8L320.7,819.8z"/>
		<path class="st9" d="M335.8,808.6l-1.9-8.2c-1.6-6.6-7.8-11.1-14.6-10.1l0,0c-6.8,1-11.5,7.2-10.7,14l0.8,8.3"/>
		
			<rect x="293.1" y="871.7" transform="matrix(0.9863 -0.165 0.165 0.9863 -142.1557 67.2002)" class="st3" width="80.6" height="35.1"/>
		
			<rect x="292.5" y="868" transform="matrix(0.9863 -0.165 0.165 0.9863 -141.554 67.0502)" class="st4" width="80.6" height="35.1"/>
		
			<rect x="292.1" y="865.8" transform="matrix(0.9863 -0.165 0.165 0.9863 -141.197 66.9524)" class="st5" width="80.6" height="35.1"/>
		<path class="st6" d="M339.3,912.2l-7.4,1.2c-5.4,0.6-9.3,5.4-8.7,10.9v0.8l1.6,6.8c1.7,6.8,8.5,11.1,15.5,9.7l0,0
			c7-0.8,12.2-7,11.8-14.2l-0.8-7c-0.8-5.4-5.8-9.3-11.5-8.5l0,0L339.3,912.2L339.3,912.2z"/>
		<path class="st7" d="M339.3,911.5l-7.4,1.2c-5.4,0.6-9.3,5.4-8.7,10.9v0.8l1.6,6.8c1.7,6.8,8.5,11.1,15.5,9.7l0,0
			c7-0.8,12.2-7,11.8-14.2l-0.8-7c-0.8-5.4-5.8-9.3-11.5-8.5l0,0C339.5,911.5,339.3,911.5,339.3,911.5L339.3,911.5z"/>
		<path class="st8" d="M338.3,908.2l-7,1.2c-5.2,0.8-8.7,5.6-8,10.7v0.4l0,0v0.4l1.6,6.8c1.6,6.8,8,11.1,14.8,9.9l0,0
			c6.8-1,11.5-7.2,10.7-14l-0.8-7c-0.6-5.2-5.2-9.1-10.5-8.5h-0.2L338.3,908.2L338.3,908.2z"/>
		<path class="st9" d="M323.2,919.6l1.9,8.2c1.6,6.8,8,11.1,14.8,9.9l0,0c6.8-1,11.5-7.2,10.7-14l-0.8-8.3"/>
		
			<rect x="202" y="836.3" transform="matrix(0.9874 -0.1584 0.1584 0.9874 -132.192 49.1589)" class="st3" width="80.6" height="35.1"/>
		
			<rect x="202.6" y="840" transform="matrix(0.9874 -0.1584 0.1584 0.9874 -132.77 49.3009)" class="st4" width="80.6" height="35.1"/>
		
			<rect x="203" y="842" transform="matrix(0.9874 -0.1584 0.1584 0.9874 -133.0812 49.3909)" class="st5" width="80.6" height="35.1"/>
		<path class="st6" d="M236.8,830.9l7.6-1.2c5.4-0.6,9.5-5.6,8.9-11.1V818l-1.6-6.8c-1.7-7-8.5-11.3-15.5-9.9l0,0
			c-7.2,0.8-12.4,7-11.8,14.2l0.8,7c0.8,5.4,5.8,9.3,11.5,8.5l0,0L236.8,830.9L236.8,830.9z"/>
		<path class="st7" d="M236.8,831.7l7.6-1.2c5.4-0.6,9.5-5.6,8.9-11.1v-0.6l-1.6-6.8c-1.7-7-8.5-11.3-15.5-9.9l0,0
			c-7.2,0.8-12.4,7-11.8,14.2l0.8,7c0.8,5.4,5.8,9.3,11.5,8.5l0,0C236.6,831.9,236.6,831.7,236.8,831.7L236.8,831.7z"/>
		<path class="st8" d="M237.8,834.8l7-1.2c5.2-0.8,8.9-5.6,8.2-10.9l0,0v-0.4l-1.6-6.8c-1.6-6.6-7.8-11.1-14.6-10.1l0,0
			c-6.8,1-11.5,7.2-10.7,14l0.8,7c0.4,5,5,8.9,10.1,8.3L237.8,834.8L237.8,834.8z"/>
		<path class="st9" d="M252.9,823.5l-1.9-8.2c-1.6-6.6-7.8-11.1-14.6-10.1l0,0c-6.8,1-11.5,7.2-10.7,14l0.8,8.3"/>
		
			<rect x="210.4" y="886.6" transform="matrix(0.9863 -0.165 0.165 0.9863 -145.7477 53.7575)" class="st3" width="80.6" height="35.1"/>
		
			<rect x="209.8" y="882.9" transform="matrix(0.9863 -0.165 0.165 0.9863 -145.1459 53.6076)" class="st4" width="80.6" height="35.1"/>
		
			<rect x="209.4" y="880.8" transform="matrix(0.9863 -0.165 0.165 0.9863 -144.805 53.5138)" class="st5" width="80.6" height="35.1"/>
		<path class="st6" d="M256.6,927.2l-7.4,1.2c-5.4,0.6-9.3,5.4-8.7,10.9v0.8l1.6,6.8c1.7,6.8,8.5,11.1,15.5,9.7l0,0
			c7-0.8,12.2-7,11.8-14.2l-0.8-7c-0.8-5.4-5.8-9.3-11.5-8.5l0,0L256.6,927.2L256.6,927.2z"/>
		<path class="st7" d="M256.4,926.4l-7.4,1.2c-5.4,0.6-9.3,5.4-8.7,10.9v0.8l1.6,6.8c1.7,6.8,8.5,11.1,15.5,9.7l0,0
			c7-0.8,12.2-7,11.8-14.2l-0.8-6.8c-0.8-5.4-5.8-9.3-11.5-8.5l0,0C256.8,926.4,256.6,926.4,256.4,926.4L256.4,926.4z"/>
		<path class="st8" d="M255.4,923.1l-7,1.2c-5.2,0.8-8.7,5.6-8,10.7v0.4l0,0v0.4l1.6,6.8c1.6,6.8,8,11.1,14.8,9.9l0,0
			c6.8-1,11.5-7.2,10.7-14l-0.8-7c-0.6-5.2-5.2-9.1-10.5-8.5H256L255.4,923.1L255.4,923.1z"/>
		<path class="st9" d="M240.5,934.6l1.9,8.2c1.6,6.8,8,11.1,14.8,9.9l0,0c6.8-1,11.5-7.2,10.7-14l-0.8-8.3"/>
	</g>
	<path class="st6" d="M348.7,1003.2l7.7,0.1c5.5,0.3,10.3-4,10.6-9.5l0.1-0.6l-0.4-7c-0.6-7.2-6.6-12.5-13.7-12.3l0,0
		c-7.2-0.4-13.4,4.9-14,12.1l-0.4,7c-0.1,5.5,4.2,10.1,9.9,10.3l0,0L348.7,1003.2L348.7,1003.2z"/>
	<path class="st7" d="M348.8,1004l7.7,0.1c5.5,0.3,10.3-4,10.6-9.5l0.1-0.6l-0.6-7.2c-0.6-7.2-6.6-12.5-13.7-12.3l0,0
		c-7.2-0.4-13.4,4.9-14,12.1l-0.4,7c-0.1,5.5,4.2,10.1,9.9,10.3l0,0L348.8,1004L348.8,1004z"/>
	<path class="st8" d="M349.3,1007.3h7.1c5.3,0.1,9.7-4.1,9.8-9.4l0,0l0.1-0.4l-0.4-7c-0.5-6.8-5.9-12.2-12.7-12.3l0,0
		c-6.9-0.1-12.5,5.2-12.8,12.1l-0.4,7c-0.4,5,3.5,9.6,8.6,9.9L349.3,1007.3L349.3,1007.3L349.3,1007.3z"/>
	<path class="st9" d="M366,998.6l-0.6-8.4c-0.5-6.8-5.9-12.2-12.7-12.3l0,0c-6.9-0.1-12.5,5.2-12.8,12.1l-0.6,8.4"/>
	<path class="st6" d="M272.5,1008.5l7.7,0.1c5.5,0.3,10.3-4,10.6-9.5l0.1-0.6l-0.4-7c-0.6-7.2-6.6-12.5-13.7-12.3l0,0
		c-7.2-0.4-13.4,4.9-14,12.1l-0.4,7c-0.1,5.5,4.2,10.1,9.9,10.3l0,0L272.5,1008.5L272.5,1008.5z"/>
	<path class="st7" d="M272.4,1009.2l7.7,0.1c5.5,0.3,10.3-4,10.6-9.5l0.1-0.6l-0.4-7c-0.6-7.2-6.6-12.5-13.7-12.3l0,0
		c-7.2-0.4-13.4,4.9-14,12.1l-0.4,7c-0.1,5.5,4.2,10.1,9.9,10.3l0,0C272.2,1009.4,272.2,1009.2,272.4,1009.2L272.4,1009.2z"/>
	<path class="st8" d="M272.9,1012.5h7.1c5.3,0.1,9.7-4.1,9.8-9.4l0,0l0.1-0.4l-0.4-7c-0.5-6.8-5.9-12.2-12.7-12.3l0,0
		c-6.9-0.1-12.5,5.2-12.8,12.1l-0.4,7c-0.4,5,3.5,9.6,8.6,9.9L272.9,1012.5L272.9,1012.5L272.9,1012.5z"/>
	<path class="st9" d="M289.6,1003.8l-0.6-8.4c-0.5-6.8-5.9-12.2-12.7-12.3l0,0c-6.9-0.1-12.5,5.2-12.8,12.1l-0.6,8.4"/>
	<polygon class="st3" points="236.6,1007.7 313,1002.8 316.6,1060 240.1,1064.8 	"/>
	<polygon class="st4" points="236.8,1011.4 313.2,1006.5 316.8,1063.7 240.3,1068.6 	"/>
	<polygon class="st5" points="237,1013.4 313.4,1008.5 317,1065.7 240.5,1070.5 	"/>
	<polygon class="st3" points="316.6,1002.8 393,997.9 396.5,1055.1 320.1,1060 	"/>
	<polygon class="st4" points="316.8,1006.5 393.2,1001.7 396.7,1058.8 320.3,1063.7 	"/>
	<polygon class="st5" points="317,1008.5 393.4,1003.6 396.9,1060.8 320.5,1065.7 	"/>
	<path class="st6" d="M428.7,998.1l7.7,0.1c5.5,0.3,10.3-4,10.6-9.5l0.1-0.6l-0.4-7c-0.6-7.2-6.6-12.5-13.7-12.3l0,0
		c-7.2-0.4-13.4,4.9-14,12.1l-0.4,7c-0.1,5.5,4.2,10.1,9.9,10.3l0,0L428.7,998.1L428.7,998.1z"/>
	<path class="st7" d="M428.8,998.9l7.7,0.1c5.5,0.3,10.3-4,10.6-9.5l0.1-0.6l-0.6-7.2c-0.6-7.2-6.6-12.5-13.7-12.3l0,0
		c-7.2-0.4-13.4,4.9-14,12.1l-0.4,7c-0.1,5.5,4.2,10.1,9.9,10.3l0,0L428.8,998.9L428.8,998.9z"/>
	<path class="st8" d="M429.2,1002.1h7.1c5.3,0.1,9.7-4.1,9.8-9.4l0,0l0.1-0.4l-0.4-7c-0.5-6.8-5.9-12.2-12.7-12.3l0,0
		c-6.9-0.1-12.5,5.2-12.8,12.1l-0.4,7c-0.4,5,3.5,9.6,8.6,9.9L429.2,1002.1L429.2,1002.1L429.2,1002.1z"/>
	<path class="st9" d="M446,993.5l-0.6-8.4c-0.5-6.8-5.9-12.2-12.7-12.3l0,0c-6.9-0.1-12.5,5.2-12.8,12.1l-0.6,8.4"/>
	<polygon class="st3" points="396.5,997.7 473,992.8 476.5,1050 400.1,1054.8 	"/>
	<polygon class="st4" points="396.7,1001.4 473.2,996.5 476.7,1053.7 400.3,1058.6 	"/>
	<polygon class="st5" points="396.9,1003.4 473.4,998.5 476.9,1055.7 400.5,1060.5 	"/>
	<path class="st6" d="M507.9,992.8l7.7,0.1c5.5,0.3,10.3-4,10.6-9.5l0.1-0.6l-0.4-7c-0.6-7.2-6.6-12.5-13.7-12.3l0,0
		c-7.2-0.4-13.4,4.9-14,12.1l-0.4,7c-0.1,5.5,4.2,10.1,9.9,10.3l0,0L507.9,992.8L507.9,992.8z"/>
	<path class="st7" d="M508,993.6l7.7,0.1c5.5,0.3,10.3-4,10.6-9.5l0.1-0.6l-0.6-7.2c-0.6-7.2-6.6-12.5-13.7-12.3l0,0
		c-7.2-0.4-13.4,4.9-14,12.1l-0.4,7c-0.1,5.5,4.2,10.1,9.9,10.3l0,0L508,993.6L508,993.6z"/>
	<path class="st8" d="M508.4,996.8h7.1c5.3,0.1,9.7-4.1,9.8-9.4l0,0l0.1-0.4l-0.4-7c-0.5-6.8-5.9-12.2-12.7-12.3l0,0
		c-6.9-0.1-12.5,5.2-12.8,12.1l-0.4,7c-0.4,5,3.5,9.6,8.6,9.9L508.4,996.8L508.4,996.8L508.4,996.8z"/>
	<path class="st9" d="M525.2,988.2l-0.6-8.4c-0.5-6.8-5.9-12.2-12.7-12.3l0,0c-6.9-0.1-12.5,5.2-12.8,12.1l-0.6,8.4"/>
	<polygon class="st3" points="475.7,992.4 552.2,987.5 555.7,1044.7 479.3,1049.5 	"/>
	<polygon class="st4" points="475.9,996.1 552.4,991.2 555.9,1048.4 479.5,1053.3 	"/>
	<polygon class="st5" points="476.1,998.1 552.6,993.2 556.1,1050.4 479.7,1055.2 	"/>
	<path class="st6" d="M636.7,802.8l0.6-7.6c0.7-5.4-3.3-10.6-8.7-11.2l-0.6-0.1l-7-0.1c-7.2,0.1-12.9,5.7-13.2,12.8l0,0
		c-0.9,7.2,3.9,13.7,11.1,14.8l7,0.9c5.5,0.5,10.4-3.5,11-9.2l0,0L636.7,802.8L636.7,802.8z"/>
	<path class="st7" d="M637.5,802.8l0.6-7.6c0.7-5.4-3.3-10.6-8.7-11.2l-0.6-0.1l-7.2,0.1c-7.2,0.1-12.9,5.7-13.2,12.8l0,0
		c-0.9,7.2,3.9,13.7,11.1,14.8l7,0.9c5.5,0.5,10.4-3.5,11-9.2l0,0L637.5,802.8L637.5,802.8z"/>
	<path class="st8" d="M640.7,802.6l0.5-7.1c0.5-5.3-3.4-10-8.7-10.4l0,0l-0.4-0.1l-7-0.1c-6.8,0-12.6,5-13.2,11.8l0,0
		c-0.6,6.8,4.3,12.8,11.1,13.6l7,0.9c5,0.8,9.9-2.8,10.5-7.9L640.7,802.6L640.7,802.6L640.7,802.6z"/>
	<path class="st9" d="M633.2,785.3h-8.4c-6.8,0-12.6,5-13.2,11.8l0,0c-0.6,6.8,4.3,12.8,11.1,13.6l8.3,1.2"/>
	<polygon class="st3" points="633.9,834.9 634.5,758.3 691.7,758.8 691.2,835.4 	"/>
	<polygon class="st4" points="637.7,834.9 638.2,758.4 695.5,758.9 694.9,835.5 	"/>
	<polygon class="st5" points="639.7,834.9 640.2,758.3 697.5,758.8 696.9,835.4 	"/>
	<path class="st6" d="M758.6,803.5L758.6,803.5c0.5,5.7,5.4,9.7,10.8,9.3l7-0.8c7.1-1,12.1-7.5,11.2-14.7l0,0
		c-0.2-7.1-5.9-12.8-13.1-13h-7l-0.6,0.1c-5.4,0.6-9.5,5.7-8.8,11.1l0.5,7.6L758.6,803.5z"/>
	<path class="st7" d="M758,803.6L758,803.6c0.5,5.7,5.4,9.7,10.8,9.3l7-0.8c7.1-1,12.1-7.5,11.2-14.7l0,0c-0.2-7.1-5.9-12.8-13.1-13
		l-7.2-0.2l-0.6,0.1c-5.4,0.6-9.5,5.7-8.8,11.1l0.5,7.6L758,803.6L758,803.6z"/>
	<path class="st8" d="M754.7,803l0.2,0.8c0.5,5.1,5.3,8.8,10.4,8l7-0.8c6.8-0.7,11.8-6.6,11.3-13.5l0,0c-0.5-6.8-6.3-11.9-13-12h-7
		l-0.4,0.1l0,0c-5.3,0.4-9.2,5.1-8.8,10.3L754.7,803L754.7,803L754.7,803z"/>
	<path class="st9" d="M764.2,812.4l8.3-1.1c6.8-0.7,11.8-6.6,11.3-13.5l0,0c-0.5-6.8-6.3-11.9-13-12l-8.4-0.1"/>
	<polygon class="st3" points="703.8,835.1 704.2,758.6 761.5,758.8 761,835.3 	"/>
	<polygon class="st4" points="700,835.1 700.5,758.6 757.7,758.8 757.3,835.3 	"/>
	<polygon class="st5" points="698.1,835.1 698.5,758.5 755.8,758.7 755.3,835.3 	"/>
	<path class="st6" d="M636.7,880.3l0.6-7.6c0.7-5.4-3.3-10.6-8.7-11.2l-0.6-0.1l-7-0.1c-7.2,0.1-12.9,5.7-13.2,12.8l0,0
		c-0.9,7.2,3.9,13.7,11.1,14.8l7,0.9c5.5,0.5,10.4-3.5,11-9.2l0,0L636.7,880.3L636.7,880.3z"/>
	<path class="st7" d="M637.5,880.3l0.6-7.6c0.7-5.4-3.3-10.6-8.7-11.2l-0.6-0.1l-7.2,0.1c-7.2,0.1-12.9,5.7-13.2,12.8l0,0
		c-0.9,7.2,3.9,13.7,11.1,14.8l7,0.9c5.5,0.5,10.4-3.5,11-9.2l0,0L637.5,880.3L637.5,880.3z"/>
	<path class="st8" d="M640.7,880.1l0.5-7.1c0.5-5.3-3.4-10-8.7-10.4l0,0l-0.4-0.1l-7-0.1c-6.8,0-12.6,5-13.2,11.8l0,0
		c-0.6,6.8,4.3,12.8,11.1,13.6l7,0.9c5,0.8,9.9-2.8,10.5-7.9L640.7,880.1L640.7,880.1L640.7,880.1z"/>
	<path class="st9" d="M633.2,862.8h-8.4c-6.8,0-12.6,5-13.2,11.8l0,0c-0.6,6.8,4.3,12.8,11.1,13.6l8.3,1.2"/>
	<polygon class="st3" points="633.9,912.4 634.5,835.8 691.7,836.3 691.2,912.9 	"/>
	<polygon class="st4" points="637.7,912.4 638.2,835.9 695.5,836.4 694.9,913 	"/>
	<polygon class="st5" points="639.7,912.4 640.2,835.8 697.5,836.3 696.9,912.9 	"/>
	<path class="st6" d="M758.6,881L758.6,881c0.5,5.7,5.4,9.7,10.8,9.3l7-0.8c7.1-1,12.1-7.5,11.2-14.7l0,0c-0.2-7.1-5.9-12.8-13.1-13
		h-7l-0.6,0.1c-5.4,0.6-9.5,5.7-8.8,11.1l0.5,7.6L758.6,881z"/>
	<path class="st7" d="M758,881.1L758,881.1c0.5,5.7,5.4,9.7,10.8,9.3l7-0.8c7.1-1,12.1-7.5,11.2-14.7l0,0c-0.2-7.1-5.9-12.8-13.1-13
		l-7.2-0.2l-0.6,0.1c-5.4,0.6-9.5,5.7-8.8,11.1l0.5,7.6L758,881.1L758,881.1z"/>
	<path class="st8" d="M754.7,880.5l0.2,0.8c0.5,5.1,5.3,8.8,10.4,8l7-0.8c6.8-0.7,11.8-6.6,11.3-13.5l0,0c-0.5-6.8-6.3-11.9-13-12
		h-7l-0.4,0.1l0,0c-5.3,0.4-9.2,5.1-8.8,10.3L754.7,880.5L754.7,880.5L754.7,880.5z"/>
	<path class="st9" d="M764.2,889.9l8.3-1.1c6.8-0.7,11.8-6.6,11.3-13.5l0,0c-0.5-6.8-6.3-11.9-13-12l-8.4-0.1"/>
	<polygon class="st3" points="703.8,912.6 704.2,836.1 761.5,836.3 761,912.8 	"/>
	<polygon class="st4" points="700,912.6 700.5,836.1 757.7,836.3 757.3,912.8 	"/>
	<polygon class="st5" points="698.1,912.6 698.5,836 755.8,836.2 755.3,912.8 	"/>
	<path class="st6" d="M194.5,506.9l-1-7.6c-0.5-5.4-5.5-9.6-10.9-9.1H182l-6.8,1.4c-7,1.6-11.4,8.3-10.2,15.4l0,0
		c0.6,7.2,6.8,12.5,14,12.1l7-0.7c5.4-0.7,9.4-5.7,8.7-11.3l0,0L194.5,506.9L194.5,506.9z"/>
	<path class="st7" d="M195.3,506.8l-1-7.6c-0.5-5.4-5.5-9.6-10.9-9.1h-0.6l-7,1.6c-7,1.6-11.4,8.3-10.2,15.4l0,0
		c0.6,7.2,6.8,12.5,14,12.1l7-0.7c5.4-0.7,9.4-5.7,8.7-11.3l0,0V506.8L195.3,506.8z"/>
	<path class="st8" d="M198.4,505.9l-1-7c-0.7-5.3-5.5-9-10.7-8.3l0,0h-0.4l-6.8,1.4c-6.6,1.4-11.2,7.6-10.4,14.4l0,0
		c0.9,6.8,7,11.6,13.8,10.9l7-0.7c5.1-0.3,9-4.9,8.5-9.9L198.4,505.9L198.4,505.9L198.4,505.9z"/>
	<path class="st9" d="M187.4,490.5l-8.2,1.8c-6.6,1.4-11.2,7.6-10.4,14.4l0,0c0.9,6.8,7,11.6,13.8,10.9l8.4-0.6"/>
	<polygon class="st3" points="198.7,538.9 182.9,463.9 238.9,452.2 254.7,527.1 	"/>
	<polygon class="st4" points="202.4,538.1 186.5,463.2 242.6,451.4 258.4,526.4 	"/>
	<polygon class="st5" points="204.3,537.6 188.4,462.7 244.5,451 260.3,525.9 	"/>
	<path class="st6" d="M313.7,481.5L313.7,481.5c1.7,5.4,7.3,8.4,12.6,6.8l6.7-2.2c6.8-2.5,10.2-9.9,7.8-16.7l0,0
		c-1.7-6.9-8.5-11.3-15.5-9.9l-6.8,1.5l-0.5,0.2c-5.2,1.8-8,7.6-6.3,12.8l2.1,7.4L313.7,481.5L313.7,481.5z"/>
	<path class="st7" d="M313.2,481.8L313.2,481.8c1.7,5.4,7.3,8.4,12.6,6.8l6.7-2.2c6.8-2.5,10.2-9.9,7.8-16.7l0,0
		c-1.7-6.9-8.5-11.3-15.5-9.9l-7.1,1.4l-0.5,0.2c-5.2,1.8-8,7.6-6.3,12.8l2.1,7.4L313.2,481.8L313.2,481.8z"/>
	<path class="st8" d="M309.8,481.8l0.3,0.7c1.6,4.8,7.1,7.4,11.8,5.6l6.7-2.2c6.5-2.2,10.2-9,8.2-15.6l0,0c-2-6.6-8.7-10.3-15.3-8.9
		l-6.8,1.5l-0.4,0.2l0,0c-5.1,1.5-7.9,6.9-6.4,12L309.8,481.8L309.8,481.8L309.8,481.8z"/>
	<path class="st9" d="M321.1,489l7.9-2.8c6.5-2.2,10.2-9,8.2-15.6l0,0c-2-6.6-8.7-10.3-15.3-8.9l-8.2,1.7"/>
	<polygon class="st3" points="267,524.2 251,449.3 307,437.2 323,512.1 	"/>
	<polygon class="st4" points="263.3,525 247.4,450.1 303.4,438 319.3,512.9 	"/>
	<polygon class="st5" points="261.4,525.3 245.4,450.4 301.4,438.4 317.4,513.3 	"/>
	<path class="st6" d="M211.1,582.7l-1-7.6c-0.5-5.4-5.5-9.6-10.9-9.1h-0.6l-6.8,1.4c-7,1.6-11.4,8.3-10.2,15.4l0,0
		c0.6,7.2,6.8,12.5,14,12.1l7-0.7c5.4-0.7,9.4-5.7,8.7-11.3l0,0L211.1,582.7z"/>
	<path class="st7" d="M211.8,582.5l-1-7.6c-0.5-5.4-5.5-9.6-10.9-9.1h-0.6l-7,1.6c-7,1.6-11.4,8.3-10.2,15.4l0,0
		c0.6,7.2,6.8,12.5,14,12.1l7-0.7c5.4-0.7,9.4-5.7,8.7-11.3l0,0V582.5L211.8,582.5z"/>
	<path class="st8" d="M215,581.6l-1-7c-0.7-5.3-5.5-9-10.7-8.3l0,0h-0.4l-6.8,1.4c-6.6,1.4-11.2,7.6-10.4,14.4l0,0
		c0.9,6.8,7,11.6,13.8,10.9l7-0.7c5.1-0.3,9-4.9,8.5-9.9L215,581.6L215,581.6L215,581.6z"/>
	<path class="st9" d="M204,566.2l-8.2,1.8c-6.6,1.4-11.2,7.6-10.4,14.4l0,0c0.9,6.8,7,11.6,13.8,10.9l8.4-0.6"/>
	<polygon class="st3" points="215.3,614.6 199.4,539.6 255.5,527.9 271.3,602.8 	"/>
	<polygon class="st4" points="218.9,613.8 203.1,538.9 259.1,527.1 275,602.1 	"/>
	<polygon class="st5" points="220.8,613.3 205,538.4 261,526.7 276.9,601.6 	"/>
	<path class="st6" d="M330.3,557.2L330.3,557.2c1.7,5.4,7.3,8.4,12.6,6.8l6.7-2.2c6.8-2.5,10.2-9.9,7.8-16.7l0,0
		c-1.7-6.9-8.5-11.3-15.5-9.9l-6.8,1.5l-0.5,0.2c-5.2,1.8-8,7.6-6.3,12.8l2.1,7.4L330.3,557.2L330.3,557.2z"/>
	<path class="st7" d="M329.8,557.5L329.8,557.5c1.7,5.4,7.3,8.4,12.6,6.8l6.7-2.2c6.8-2.5,10.2-9.9,7.8-16.7l0,0
		c-1.7-6.9-8.5-11.3-15.5-9.9l-7.1,1.4l-0.5,0.2c-5.2,1.8-8,7.6-6.3,12.8l2.1,7.4L329.8,557.5L329.8,557.5z"/>
	<path class="st8" d="M326.4,557.6l0.3,0.7c1.6,4.8,7.1,7.4,11.8,5.6l6.7-2.2c6.5-2.2,10.2-9,8.2-15.6l0,0c-2-6.6-8.7-10.3-15.3-8.9
		l-6.8,1.5l-0.4,0.2l0,0c-5.1,1.5-7.9,6.9-6.4,12L326.4,557.6L326.4,557.6z"/>
	<path class="st9" d="M337.7,564.7l7.9-2.8c6.5-2.2,10.2-9,8.2-15.6l0,0c-2-6.6-8.7-10.3-15.3-8.9l-8.2,1.7"/>
	<polygon class="st3" points="283.5,599.9 267.6,525 323.6,512.9 339.5,587.8 	"/>
	<polygon class="st4" points="279.9,600.7 263.9,525.8 319.9,513.7 335.9,588.6 	"/>
	<polygon class="st5" points="277.9,601 262,526.1 318,514.1 333.9,589 	"/>
	<path class="st6" d="M227.5,658l-1-7.6c-0.5-5.4-5.5-9.6-10.9-9.1H215l-6.8,1.4c-7,1.6-11.4,8.3-10.2,15.4l0,0
		c0.6,7.2,6.8,12.5,14,12.1l7-0.7c5.4-0.7,9.4-5.7,8.7-11.3l0,0L227.5,658z"/>
	<path class="st7" d="M228.3,657.8l-1-7.6c-0.5-5.4-5.5-9.6-10.9-9.1h-0.6l-7,1.6c-7,1.6-11.4,8.3-10.2,15.4l0,0
		c0.6,7.2,6.8,12.5,14,12.1l7-0.7c5.4-0.7,9.4-5.7,8.7-11.3l0,0V657.8L228.3,657.8z"/>
	<path class="st8" d="M231.4,656.9l-1-7c-0.7-5.3-5.5-9-10.7-8.3l0,0h-0.4l-6.8,1.4c-6.6,1.4-11.2,7.6-10.4,14.4l0,0
		c0.9,6.8,7,11.6,13.8,10.9l7-0.7c5.1-0.3,9-4.9,8.5-9.9L231.4,656.9L231.4,656.9L231.4,656.9z"/>
	<path class="st9" d="M220.5,641.6l-8.2,1.8c-6.6,1.4-11.2,7.6-10.4,14.4l0,0c0.9,6.8,7,11.6,13.8,10.9l8.4-0.6"/>
	<polygon class="st3" points="231.7,689.9 215.9,615 272,603.3 287.8,678.2 	"/>
	<polygon class="st4" points="235.4,689.2 219.6,614.3 275.6,602.5 291.5,677.4 	"/>
	<polygon class="st5" points="237.3,688.7 221.5,613.8 277.5,602 293.4,677 	"/>
	<path class="st6" d="M346.8,632.6L346.8,632.6c1.7,5.4,7.3,8.4,12.6,6.8l6.7-2.2c6.8-2.5,10.2-9.9,7.8-16.7l0,0
		c-1.7-6.9-8.5-11.3-15.5-9.9l-6.8,1.5l-0.5,0.2c-5.2,1.8-8,7.6-6.3,12.8l2.1,7.4L346.8,632.6L346.8,632.6z"/>
	<path class="st7" d="M346.3,632.8L346.3,632.8c1.7,5.4,7.3,8.4,12.6,6.8l6.7-2.2c6.8-2.5,10.2-9.9,7.8-16.7l0,0
		c-1.7-6.9-8.5-11.3-15.5-9.9l-7.1,1.4l-0.5,0.2c-5.2,1.8-8,7.6-6.3,12.8l2.1,7.4L346.3,632.8L346.3,632.8z"/>
	<path class="st8" d="M342.9,632.9l0.3,0.7c1.6,4.8,7.1,7.4,11.8,5.6l6.7-2.2c6.5-2.2,10.2-9,8.2-15.6l0,0c-2-6.6-8.7-10.3-15.3-8.9
		l-6.8,1.5l-0.4,0.2l0,0c-5.1,1.5-7.9,6.9-6.4,12L342.9,632.9L342.9,632.9z"/>
	<path class="st9" d="M354.1,640.1l7.9-2.8c6.5-2.2,10.2-9,8.2-15.6l0,0c-2-6.6-8.7-10.3-15.3-8.9l-8.2,1.7"/>
	<polygon class="st3" points="300,675.2 284.1,600.3 340.1,588.3 356,663.2 	"/>
	<polygon class="st4" points="296.4,676 280.4,601.1 336.4,589.1 352.4,664 	"/>
	<polygon class="st5" points="294.4,676.4 278.5,601.5 334.5,589.4 350.4,664.4 	"/>
	<g>
		
			<rect x="1105.2" y="721.1" transform="matrix(0.9999 -1.530568e-02 1.530568e-02 0.9999 -11.1715 17.6195)" class="st3" width="80.6" height="35.1"/>
		
			<rect x="1105.3" y="724.7" transform="matrix(0.9999 -1.530568e-02 1.530568e-02 0.9999 -11.2266 17.6214)" class="st4" width="80.6" height="35.1"/>
		
			<rect x="1105.2" y="726.8" transform="matrix(0.9999 -1.530568e-02 1.530568e-02 0.9999 -11.2588 17.6201)" class="st5" width="80.6" height="35.1"/>
		<path class="st6" d="M1143.1,715.1l7.7-0.1c5.5,0.2,10.2-4.2,10.4-9.7l0.1-0.6l-0.6-6.9c-0.7-7.2-6.8-12.4-14-12l0,0
			c-7.2-0.3-13.3,5.1-13.8,12.3l-0.2,7c0,5.5,4.4,10.1,10.1,10.1l0,0L1143.1,715.1L1143.1,715.1z"/>
		<path class="st7" d="M1143.2,715.9l7.7-0.1c5.5,0.2,10.2-4.2,10.4-9.7l0.1-0.6l-0.7-7.2c-0.7-7.2-6.8-12.4-14-12l0,0
			c-7.2-0.3-13.3,5.1-13.8,12.3l-0.2,7c0,5.5,4.4,10.1,10.1,10.1l0,0L1143.2,715.9L1143.2,715.9z"/>
		<path class="st8" d="M1143.7,719.1l7.1-0.2c5.3,0,9.6-4.3,9.6-9.6l0,0l0.1-0.4l-0.6-6.9c-0.6-6.8-6.1-12.1-13-12.1l0,0
			c-6.9,0-12.4,5.5-12.6,12.3l-0.2,7c-0.3,5.1,3.7,9.6,8.8,9.7L1143.7,719.1L1143.7,719.1L1143.7,719.1z"/>
		<path class="st9" d="M1160.3,710.1l-0.8-8.3c-0.6-6.8-6.1-12.1-13-12.1l0,0c-6.9,0-12.4,5.5-12.6,12.3l-0.4,8.4"/>
		
			<rect x="1106.1" y="772.1" transform="matrix(0.9998 -2.198846e-02 2.198846e-02 0.9998 -17.0867 25.3996)" class="st3" width="80.6" height="35.1"/>
		
			<rect x="1106" y="768.3" transform="matrix(0.9998 -2.198846e-02 2.198846e-02 0.9998 -17.0032 25.3964)" class="st4" width="80.6" height="35.1"/>
		
			<rect x="1105.9" y="766.1" transform="matrix(0.9998 -2.198846e-02 2.198846e-02 0.9998 -16.9549 25.3937)" class="st5" width="80.6" height="35.1"/>
		<path class="st6" d="M1148.9,813.2l-7.5,0.1c-5.5-0.2-10,4-10.2,9.5v0.2l-0.1,0.6l0.6,6.9c0.8,7,6.9,12.2,14,11.8l0,0
			c7,0.2,13.1-5.2,13.8-12.3l0.2-7c0-5.5-4.4-10.1-10.1-10.1l0,0L1148.9,813.2L1148.9,813.2z"/>
		<path class="st7" d="M1149,812.5l-7.5,0.1c-5.5-0.2-10,4-10.2,9.5v0.2l-0.1,0.6l0.6,6.9c0.8,7,6.9,12.2,14,11.8l0,0
			c7,0.2,13.1-5.2,13.8-12.3l0.2-7c0-5.5-4.4-10.1-10.1-10.1l0,0C1149.2,812.5,1149,812.5,1149,812.5L1149,812.5z"/>
		<path class="st8" d="M1148.5,809.1l-7.1,0.2c-5.3,0-9.5,4.3-9.4,9.4l-0.1,0.4l0,0l-0.1,0.4l0.6,6.9c0.6,6.9,6.3,12.1,13.2,11.9
			l0,0c6.9,0,12.4-5.5,12.6-12.3l0.2-7c0.2-5.3-3.9-9.8-9.2-10h-0.2l0,0L1148.5,809.1L1148.5,809.1z"/>
		<path class="st9" d="M1131.9,818.2l0.8,8.3c0.6,6.9,6.3,12.1,13.2,11.9l0,0c6.9,0,12.4-5.5,12.6-12.3l0.4-8.4"/>
		
			<rect x="1021" y="724" transform="matrix(0.9999 -1.530568e-02 1.530568e-02 0.9999 -11.2258 16.331)" class="st3" width="80.6" height="35.1"/>
		
			<rect x="1021.1" y="727.8" transform="matrix(0.9999 -1.530568e-02 1.530568e-02 0.9999 -11.2839 16.333)" class="st4" width="80.6" height="35.1"/>
		
			<rect x="1021.2" y="729.7" transform="matrix(0.9999 -1.530568e-02 1.530568e-02 0.9999 -11.313 16.3348)" class="st5" width="80.6" height="35.1"/>
		<path class="st6" d="M1059.1,718l7.7-0.1c5.5,0.2,10.2-4.2,10.4-9.7l0.1-0.6l-0.6-6.9c-0.7-7.2-6.8-12.4-14-12l0,0
			c-7.2-0.3-13.3,5.1-13.8,12.3l-0.2,7c0,5.5,4.4,10.1,10.1,10.1l0,0L1059.1,718L1059.1,718z"/>
		<path class="st7" d="M1059,718.8l7.7-0.1c5.5,0.2,10.2-4.2,10.4-9.7l0.1-0.6l-0.6-6.9c-0.7-7.2-6.8-12.4-14-12l0,0
			c-7.2-0.3-13.3,5.1-13.8,12.3l-0.2,7c0,5.5,4.4,10.1,10.1,10.1l0,0C1058.8,719,1058.8,718.8,1059,718.8L1059,718.8z"/>
		<path class="st8" d="M1059.5,722l7.1-0.2c5.3,0,9.6-4.3,9.6-9.6l0,0l0.1-0.4l-0.6-6.9c-0.6-6.8-6.1-12.1-13-12.1l0,0
			c-6.9,0-12.4,5.5-12.6,12.3l-0.2,7c-0.3,5.1,3.7,9.6,8.8,9.7L1059.5,722L1059.5,722L1059.5,722z"/>
		<path class="st9" d="M1076.1,713l-0.8-8.3c-0.6-6.8-6.1-12.1-13-12.1l0,0c-6.9,0-12.4,5.5-12.6,12.3l-0.4,8.4"/>
		
			<rect x="1022.1" y="775" transform="matrix(0.9998 -2.198846e-02 2.198846e-02 0.9998 -17.1708 23.5531)" class="st3" width="80.6" height="35.1"/>
		
			<rect x="1022" y="771.3" transform="matrix(0.9998 -2.198846e-02 2.198846e-02 0.9998 -17.0895 23.5501)" class="st4" width="80.6" height="35.1"/>
		
			<rect x="1021.9" y="769.1" transform="matrix(0.9998 -2.198846e-02 2.198846e-02 0.9998 -17.0411 23.5473)" class="st5" width="80.6" height="35.1"/>
		<path class="st6" d="M1064.9,816.2l-7.5,0.1c-5.5-0.2-10,4-10.2,9.5v0.2l-0.1,0.6l0.6,6.9c0.8,7,6.9,12.2,14,11.8l0,0
			c7,0.2,13.1-5.2,13.8-12.3l0.2-7c0-5.5-4.4-10.1-10.1-10.1l0,0L1064.9,816.2L1064.9,816.2z"/>
		<path class="st7" d="M1064.8,815.4l-7.5,0.1c-5.5-0.2-10,4-10.2,9.5v0.2l-0.1,0.6l0.6,6.9c0.8,7,6.9,12.2,14,11.8l0,0
			c7,0.2,13.1-5.2,13.8-12.3l0.2-6.8c0-5.5-4.4-10.1-10.1-10.1l0,0C1065.2,815.4,1065,815.4,1064.8,815.4L1064.8,815.4z"/>
		<path class="st8" d="M1064.3,812l-7.1,0.2c-5.3,0-9.5,4.3-9.4,9.4l-0.1,0.4l0,0l-0.1,0.4l0.6,6.9c0.6,6.9,6.3,12.1,13.2,11.9l0,0
			c6.9,0,12.4-5.5,12.6-12.3l0.2-7c0.2-5.3-3.9-9.8-9.2-10h-0.2l0,0L1064.3,812L1064.3,812z"/>
		<path class="st9" d="M1047.9,821.2l0.8,8.3c0.6,6.9,6.3,12.1,13.2,11.9l0,0c6.9,0,12.4-5.5,12.6-12.3l0.4-8.4"/>
	</g>
	<path class="st6" d="M1249.2,672.8l0.1-7.7c0.3-5.5-4-10.3-9.5-10.6l-0.6-0.1l-7,0.4c-7.2,0.6-12.5,6.6-12.3,13.7l0,0
		c-0.4,7.2,4.9,13.4,12.1,14l7,0.4c5.5,0.1,10.1-4.3,10.3-9.9l0,0L1249.2,672.8L1249.2,672.8z"/>
	<path class="st7" d="M1250,672.7l0.1-7.7c0.3-5.5-4-10.3-9.5-10.6l-0.6-0.1l-7.2,0.6c-7.2,0.6-12.5,6.6-12.3,13.7l0,0
		c-0.4,7.2,4.9,13.4,12.1,14l7,0.4c5.5,0.1,10.1-4.3,10.3-9.9l0,0L1250,672.7L1250,672.7z"/>
	<path class="st8" d="M1253.2,672.3v-7.1c0.1-5.3-4.1-9.7-9.4-9.8l0,0l-0.4-0.1l-7,0.4c-6.8,0.5-12.2,5.9-12.3,12.8l0,0
		c-0.1,6.9,5.3,12.5,12.1,12.8l7,0.4c5,0.4,9.6-3.6,9.9-8.6L1253.2,672.3L1253.2,672.3L1253.2,672.3z"/>
	<path class="st9" d="M1244.5,655.5l-8.4,0.6c-6.8,0.5-12.2,5.9-12.3,12.8l0,0c-0.1,6.9,5.3,12.5,12.1,12.8l8.4,0.6"/>
	<polygon class="st3" points="1248.8,705 1243.8,628.6 1300.9,624.9 1305.9,701.4 	"/>
	<polygon class="st4" points="1252.5,704.8 1247.5,628.4 1304.7,624.7 1309.7,701.1 	"/>
	<polygon class="st5" points="1254.5,704.6 1249.5,628.2 1306.6,624.5 1311.6,701 	"/>
	<path class="st6" d="M1370.8,664.7L1370.8,664.7c0.9,5.6,6.1,9.3,11.5,8.5l6.9-1.3c7-1.5,11.5-8.3,10.2-15.4l0,0
		c-0.7-7.1-6.8-12.4-14-12l-7,0.5l-0.6,0.2c-5.4,1-9,6.4-8,11.7l1.1,7.6L1370.8,664.7L1370.8,664.7z"/>
	<path class="st7" d="M1370.3,664.8L1370.3,664.8c0.9,5.6,6.1,9.3,11.5,8.5l6.9-1.3c7-1.5,11.5-8.3,10.2-15.4l0,0
		c-0.7-7.1-6.8-12.4-14-12l-7.2,0.3l-0.6,0.2c-5.4,1-9,6.4-8,11.7l1.1,7.6L1370.3,664.8L1370.3,664.8z"/>
	<path class="st8" d="M1366.9,664.4l0.2,0.7c0.9,5,6,8.3,10.9,7.3l6.9-1.3c6.7-1.2,11.3-7.5,10.3-14.3l0,0c-1-6.8-7.1-11.4-13.9-11
		l-7,0.5l-0.4,0.1l0,0c-5.2,0.8-8.8,5.7-8.1,10.9L1366.9,664.4L1366.9,664.4L1366.9,664.4z"/>
	<path class="st9" d="M1377,673.1l8.2-1.7c6.7-1.2,11.3-7.5,10.3-14.3l0,0c-1-6.8-7.1-11.4-13.9-11l-8.4,0.5"/>
	<polygon class="st3" points="1318.5,700.2 1313.4,623.8 1370.5,619.9 1375.6,696.3 	"/>
	<polygon class="st4" points="1314.7,700.5 1309.6,624 1366.8,620.1 1371.9,696.5 	"/>
	<polygon class="st5" points="1312.8,700.5 1307.7,624.1 1364.8,620.2 1369.9,696.6 	"/>
	<path class="st6" d="M1254.8,750.1l0.1-7.7c0.3-5.5-4-10.3-9.5-10.6l-0.6-0.1l-7,0.4c-7.2,0.6-12.5,6.6-12.3,13.7l0,0
		c-0.4,7.2,4.9,13.4,12.1,14l7,0.4c5.5,0.1,10.1-4.3,10.3-9.9l0,0L1254.8,750.1L1254.8,750.1z"/>
	<path class="st7" d="M1255.6,750l0.1-7.7c0.3-5.5-4-10.3-9.5-10.6l-0.6-0.1l-7.2,0.6c-7.2,0.6-12.5,6.6-12.3,13.7l0,0
		c-0.4,7.2,4.9,13.4,12.1,14l7,0.4c5.5,0.1,10.1-4.3,10.3-9.9l0,0L1255.6,750L1255.6,750z"/>
	<path class="st8" d="M1258.8,749.6v-7.1c0.1-5.3-4.1-9.7-9.4-9.8l0,0l-0.4-0.1l-7,0.4c-6.8,0.5-12.2,5.9-12.3,12.8l0,0
		c-0.1,6.9,5.3,12.5,12.1,12.8l7,0.4c5,0.4,9.6-3.6,9.9-8.6L1258.8,749.6L1258.8,749.6L1258.8,749.6z"/>
	<path class="st9" d="M1250.1,732.8l-8.4,0.6c-6.8,0.5-12.2,5.9-12.3,12.8l0,0c-0.1,6.9,5.3,12.5,12.1,12.8l8.4,0.6"/>
	<polygon class="st3" points="1254.4,782.3 1249.4,705.9 1306.5,702.2 1311.5,778.7 	"/>
	<polygon class="st4" points="1258.1,782.1 1253.1,705.6 1310.3,702 1315.3,778.4 	"/>
	<polygon class="st5" points="1260.1,781.9 1255.1,705.5 1312.2,701.8 1317.2,778.2 	"/>
	<path class="st6" d="M1376.4,742L1376.4,742c0.9,5.6,6.1,9.3,11.5,8.5l6.9-1.3c7-1.5,11.5-8.3,10.2-15.4l0,0
		c-0.7-7.1-6.8-12.4-14-12l-7,0.5l-0.6,0.2c-5.4,1-9,6.4-8,11.7l1.1,7.6L1376.4,742L1376.4,742z"/>
	<path class="st7" d="M1375.9,742.1L1375.9,742.1c0.9,5.6,6.1,9.3,11.5,8.5l6.9-1.3c7-1.5,11.5-8.3,10.2-15.4l0,0
		c-0.7-7.1-6.8-12.4-14-12l-7.2,0.3l-0.6,0.2c-5.4,1-9,6.4-8,11.7l1.1,7.6L1375.9,742.1L1375.9,742.1z"/>
	<path class="st8" d="M1372.5,741.7l0.2,0.7c0.9,5,6,8.3,10.9,7.3l6.9-1.3c6.7-1.2,11.3-7.5,10.3-14.3l0,0c-1-6.8-7.1-11.4-13.9-11
		l-7,0.5l-0.4,0.1l0,0c-5.2,0.8-8.8,5.7-8.1,10.9L1372.5,741.7L1372.5,741.7L1372.5,741.7z"/>
	<path class="st9" d="M1382.6,750.4l8.2-1.7c6.7-1.2,11.3-7.5,10.3-14.3l0,0c-1-6.8-7.1-11.4-13.9-11l-8.4,0.5"/>
	<polygon class="st3" points="1324.1,777.5 1318.9,701.1 1376.1,697.2 1381.2,773.6 	"/>
	<polygon class="st4" points="1320.3,777.8 1315.2,701.3 1372.4,697.4 1377.5,773.8 	"/>
	<polygon class="st5" points="1318.3,777.8 1313.2,701.4 1370.4,697.5 1375.5,773.9 	"/>
	<path class="st6" d="M1367.8,884.6l0.2-7.7c0.4-5.5-3.8-10.4-9.2-10.8l-0.6-0.1l-7,0.3c-7.2,0.4-12.6,6.3-12.6,13.5l0,0
		c-0.6,7.2,4.6,13.5,11.8,14.2l7,0.5c5.5,0.2,10.2-4,10.5-9.7l0,0L1367.8,884.6L1367.8,884.6z"/>
	<path class="st7" d="M1368.6,884.5l0.2-7.7c0.4-5.5-3.8-10.4-9.2-10.8l-0.6-0.1l-7.2,0.4c-7.2,0.4-12.6,6.3-12.6,13.5l0,0
		c-0.6,7.2,4.6,13.5,11.8,14.2l7,0.5c5.5,0.2,10.2-4,10.5-9.7l0,0L1368.6,884.5L1368.6,884.5z"/>
	<path class="st8" d="M1371.8,884.1l0.1-7.1c0.2-5.3-3.9-9.8-9.2-10l0,0l-0.4-0.1l-7,0.3c-6.8,0.3-12.3,5.6-12.6,12.5l0,0
		c-0.3,6.9,5,12.6,11.8,13.1l7,0.5c5,0.5,9.7-3.3,10.1-8.4L1371.8,884.1L1371.8,884.1L1371.8,884.1z"/>
	<path class="st9" d="M1363.5,867.2l-8.4,0.4c-6.8,0.3-12.3,5.6-12.6,12.5l0,0c-0.3,6.9,5,12.6,11.8,13.1l8.3,0.8"/>
	<polygon class="st3" points="1366.6,916.7 1363.5,840.2 1420.7,838 1423.8,914.5 	"/>
	<polygon class="st4" points="1370.4,916.6 1367.2,840.1 1424.4,837.8 1427.6,914.3 	"/>
	<polygon class="st5" points="1372.3,916.5 1369.2,839.9 1426.4,837.7 1429.6,914.2 	"/>
	<path class="st6" d="M1489.6,879.3L1489.6,879.3c0.7,5.6,5.8,9.5,11.3,8.8l6.9-1.1c7.1-1.3,11.7-8.1,10.5-15.2l0,0
		c-0.5-7.1-6.5-12.5-13.7-12.3l-7,0.3l-0.6,0.2c-5.4,0.9-9.2,6.2-8.3,11.6l0.9,7.6L1489.6,879.3L1489.6,879.3z"/>
	<path class="st7" d="M1489,879.5L1489,879.5c0.7,5.6,5.8,9.5,11.3,8.8l6.9-1.1c7.1-1.3,11.7-8.1,10.5-15.2l0,0
		c-0.5-7.1-6.5-12.5-13.7-12.3l-7.2,0.2l-0.6,0.2c-5.4,0.9-9.2,6.2-8.3,11.6l0.9,7.6L1489,879.5L1489,879.5z"/>
	<path class="st8" d="M1485.7,879l0.2,0.7c0.8,5,5.8,8.5,10.7,7.5l6.9-1.1c6.8-1.1,11.5-7.2,10.6-14l0,0
		c-0.9-6.8-6.8-11.6-13.6-11.4l-7,0.3l-0.4,0.1l0,0c-5.3,0.6-9,5.5-8.3,10.8L1485.7,879L1485.7,879L1485.7,879z"/>
	<path class="st9" d="M1495.6,887.9l8.3-1.5c6.8-1.1,11.5-7.2,10.6-14l0,0c-0.9-6.8-6.8-11.6-13.6-11.4l-8.4,0.3"/>
	<polygon class="st3" points="1436.4,913.6 1433.1,837.1 1490.3,834.5 1493.6,911 	"/>
	<polygon class="st4" points="1432.7,913.8 1429.4,837.3 1486.6,834.7 1489.9,911.2 	"/>
	<polygon class="st5" points="1430.7,913.8 1427.4,837.3 1484.6,834.7 1487.9,911.2 	"/>
	<path class="st6" d="M1589.2,892.6l-7.5,0.1c-5.5-0.2-10,4-10.2,9.5v0.2l-0.1,0.6l0.6,6.9c0.8,7,6.9,12.2,14,11.8l0,0
		c7,0.2,13.1-5.2,13.8-12.3l0.2-7c0-5.5-4.4-10.1-10.1-10.1l0,0L1589.2,892.6L1589.2,892.6z"/>
	<path class="st7" d="M1589.3,891.8l-7.5,0.1c-5.5-0.2-10,4-10.2,9.5v0.2l-0.1,0.6l0.6,6.9c0.8,7,6.9,12.2,14,11.8l0,0
		c7,0.2,13.1-5.2,13.8-12.3l0.2-7c0-5.5-4.4-10.1-10.1-10.1l0,0C1589.5,891.9,1589.3,891.8,1589.3,891.8L1589.3,891.8z"/>
	<path class="st8" d="M1588.8,888.4l-7.1,0.2c-5.3,0-9.5,4.3-9.4,9.4l-0.1,0.4l0,0l-0.1,0.4l0.6,6.9c0.6,6.9,6.3,12.1,13.2,11.9l0,0
		c6.9,0,12.4-5.5,12.6-12.3l0.2-7c0.2-5.3-3.9-9.8-9.2-10h-0.2l0,0L1588.8,888.4L1588.8,888.4z"/>
	<path class="st9" d="M1572.2,897.6l0.8,8.3c0.6,6.9,6.3,12.1,13.2,11.9l0,0c6.9,0,12.4-5.5,12.6-12.3l0.4-8.4"/>
	<path class="st6" d="M1581.7,857.5l7.5,0.1c5.5,0.4,10.1-3.7,10.5-9.2v-0.2l0.1-0.6l-0.3-7c-0.5-7-6.5-12.4-13.6-12.3l0,0
		c-7-0.5-13.3,4.8-14.1,11.9l-0.5,7c-0.2,5.5,4.1,10.2,9.8,10.4l0,0L1581.7,857.5L1581.7,857.5z"/>
	<path class="st7" d="M1581.6,858.3l7.5,0.1c5.5,0.4,10.1-3.7,10.5-9.2V849l0.1-0.6l-0.3-7c-0.5-7-6.5-12.4-13.6-12.3l0,0
		c-7-0.5-13.3,4.8-14.1,11.9l-0.5,7c-0.2,5.5,4.1,10.2,9.8,10.4l0,0C1581.4,858.2,1581.6,858.3,1581.6,858.3L1581.6,858.3z"/>
	<path class="st8" d="M1581.9,861.7l7.1,0.1c5.3,0.1,9.6-4,9.7-9.1l0.1-0.4l0,0l0.1-0.4l-0.3-7c-0.3-7-5.9-12.3-12.8-12.3l0,0
		c-6.9-0.2-12.5,5.1-13,11.9l-0.5,7c-0.3,5.3,3.6,9.9,8.8,10.2h0.2l0,0H1581.9L1581.9,861.7z"/>
	<path class="st9" d="M1598.8,853.1l-0.5-8.4c-0.3-7-5.9-12.3-12.8-12.3l0,0c-6.9-0.2-12.5,5.1-13,11.9l-0.7,8.4"/>
	<polygon class="st3" points="1551.7,863.5 1619.2,861.8 1620,896.9 1552.4,898.6 	"/>
	<polygon class="st4" points="1551.6,859.7 1619.2,858.1 1619.9,893.2 1552.4,894.9 	"/>
	<polygon class="st5" points="1551.5,857.6 1619.1,855.9 1619.8,891 1552.3,892.7 	"/>
	
		<rect x="2012.3" y="954.6" transform="matrix(0.9999 -1.530568e-02 1.530568e-02 0.9999 -14.6392 31.5308)" class="st3" width="80.6" height="35.1"/>
	
		<rect x="2012.4" y="958.3" transform="matrix(0.9999 -1.530568e-02 1.530568e-02 0.9999 -14.6958 31.5328)" class="st4" width="80.6" height="35.1"/>
	
		<rect x="2012.5" y="960.3" transform="matrix(0.9999 -1.530568e-02 1.530568e-02 0.9999 -14.7264 31.5346)" class="st5" width="80.6" height="35.1"/>
	<path class="st6" d="M2050.4,948.6l7.7-0.1c5.5,0.2,10.2-4.2,10.4-9.7l0.1-0.6l-0.6-6.9c-0.7-7.2-6.8-12.4-14-12l0,0
		c-7.2-0.3-13.3,5.1-13.8,12.3l-0.2,7c0,5.5,4.4,10.1,10.1,10.1l0,0L2050.4,948.6L2050.4,948.6z"/>
	<path class="st7" d="M2050.3,949.4l7.7-0.1c5.5,0.2,10.2-4.2,10.4-9.7l0.1-0.6l-0.6-6.9c-0.7-7.2-6.8-12.4-14-12l0,0
		c-7.2-0.3-13.3,5.1-13.8,12.3l-0.2,7c0,5.5,4.4,10.1,10.1,10.1l0,0C2050.1,949.5,2050.1,949.3,2050.3,949.4L2050.3,949.4z"/>
	<path class="st8" d="M2050.8,952.6l7.1-0.2c5.3,0,9.6-4.3,9.6-9.6l0,0l0.1-0.4l-0.6-6.9c-0.6-6.8-6.1-12.1-13-12.1l0,0
		c-6.9,0-12.4,5.5-12.6,12.3l-0.2,7c-0.3,5.1,3.7,9.6,8.8,9.7L2050.8,952.6L2050.8,952.6L2050.8,952.6z"/>
	<path class="st9" d="M2067.4,943.6l-0.8-8.3c-0.6-6.8-6.1-12.1-13-12.1l0,0c-6.9,0-12.4,5.5-12.6,12.3l-0.4,8.4"/>
</g>
<g id="bookable">
	<polygon id="area-16.16.1-status" class="st10" points="106.5,419.5 374.2,430.3 428.9,743.1 168.3,743.1 	"/>
	<polygon id="area-16.16.2-status" class="st10" points="963.6,634.6 983.8,928.7 1200.9,920.4 1185,618.3 	"/>
	<polygon id="area-16.16-3-status" class="st10" points="1539.9,729.1 1401.5,604.6 1357.4,604.6 1185,618.3 1200.9,938.5 
		1371.5,927.9 1548.2,917 	"/>
</g>
<g id="Room_Name">
	<g>
		<path class="st5" d="M1313.2,769.8v2.9h-4.9v13.5h-3.5v-13.5h-4.9v-2.9H1313.2z"/>
		<path class="st5" d="M1323.7,782.6c-0.1,0.7-0.5,1.5-1.1,2.2c-1,1.2-2.5,1.8-4.4,1.8c-1.5,0-2.9-0.5-4.1-1.5s-1.8-2.6-1.8-4.9
			c0-2.1,0.5-3.7,1.6-4.8c1.1-1.1,2.5-1.7,4.2-1.7c1,0,1.9,0.2,2.7,0.6c0.8,0.4,1.5,1,2,1.8c0.5,0.7,0.8,1.6,0.9,2.5
			c0.1,0.6,0.1,1.4,0.1,2.4h-8.3c0,1.2,0.4,2.1,1.1,2.6c0.4,0.3,1,0.5,1.6,0.5c0.7,0,1.2-0.2,1.6-0.6c0.2-0.2,0.4-0.5,0.6-0.8
			L1323.7,782.6L1323.7,782.6z M1320.5,778.9c-0.1-0.8-0.3-1.5-0.8-1.9s-1-0.7-1.7-0.7s-1.3,0.2-1.7,0.7s-0.7,1.1-0.8,1.9H1320.5z"
			/>
		<path class="st5" d="M1326.4,775.4c0.8-1.1,2.3-1.6,4.3-1.6c1.3,0,2.5,0.3,3.5,0.8s1.6,1.5,1.6,3v5.6c0,0.4,0,0.9,0,1.4
			c0,0.4,0.1,0.7,0.2,0.8c0.1,0.1,0.3,0.3,0.5,0.4v0.5h-3.5c-0.1-0.2-0.2-0.5-0.2-0.7s-0.1-0.5-0.1-0.7c-0.4,0.5-0.9,0.9-1.5,1.2
			c-0.7,0.4-1.5,0.6-2.3,0.6c-1.1,0-2-0.3-2.7-0.9c-0.7-0.6-1.1-1.5-1.1-2.7c0-1.5,0.6-2.6,1.7-3.2c0.6-0.4,1.6-0.6,2.8-0.8l1.1-0.1
			c0.6-0.1,1-0.2,1.3-0.3c0.5-0.2,0.7-0.5,0.7-0.9c0-0.5-0.2-0.8-0.5-1s-0.9-0.3-1.5-0.3c-0.8,0-1.3,0.2-1.6,0.6
			c-0.2,0.3-0.4,0.6-0.4,1.1h-3.1C1325.6,776.9,1325.9,776,1326.4,775.4z M1328.8,783.9c0.3,0.2,0.7,0.4,1.1,0.4
			c0.7,0,1.3-0.2,1.9-0.6c0.6-0.4,0.9-1.1,0.9-2.2v-1.2c-0.2,0.1-0.4,0.2-0.6,0.3s-0.5,0.2-0.8,0.2l-0.7,0.1
			c-0.7,0.1-1.2,0.3-1.4,0.4c-0.5,0.3-0.7,0.7-0.7,1.4C1328.2,783.3,1328.5,783.7,1328.8,783.9z"/>
		<path class="st5" d="M1345.5,777.4c-0.3-0.6-0.8-0.9-1.6-0.9c-0.9,0-1.5,0.3-1.8,0.9c-0.2,0.3-0.3,0.8-0.3,1.5v7.3h-3.2v-12.1h3.1
			v1.8c0.4-0.6,0.8-1.1,1.1-1.4c0.6-0.5,1.4-0.7,2.4-0.7c0.9,0,1.7,0.2,2.3,0.6c0.5,0.4,0.8,0.9,1,1.5c0.4-0.7,0.9-1.2,1.6-1.6
			c0.7-0.3,1.4-0.5,2.2-0.5c0.5,0,1.1,0.1,1.6,0.3s1,0.6,1.4,1.1c0.3,0.4,0.6,0.9,0.7,1.6c0.1,0.4,0.1,1,0.1,1.8v7.7h-3.3v-7.7
			c0-0.5-0.1-0.8-0.2-1.1c-0.3-0.6-0.8-0.8-1.6-0.8c-0.9,0-1.5,0.4-1.8,1.1c-0.2,0.4-0.3,0.9-0.3,1.4v7.2h-3.2v-7.2
			C1345.7,778.2,1345.7,777.7,1345.5,777.4z"/>
		<path class="st5" d="M1372.6,779.8h-3.5v6.5h-3.4v-16.5h8.1c1.2,0,2,0.2,2.7,0.4s1.1,0.6,1.6,1.1c0.4,0.4,0.6,0.9,0.8,1.4
			c0.2,0.5,0.3,1.1,0.3,1.7c0,0.8-0.2,1.5-0.6,2.3c-0.4,0.8-1,1.3-2,1.6c0.8,0.3,1.3,0.7,1.6,1.3s0.5,1.4,0.5,2.6v1.1
			c0,0.8,0,1.3,0.1,1.5c0.1,0.4,0.3,0.7,0.6,0.9v0.4h-3.8c-0.1-0.4-0.2-0.7-0.2-0.9c-0.1-0.5-0.1-0.9-0.1-1.4v-1.5
			c0-1-0.2-1.7-0.6-2.1C1374.2,779.9,1373.6,779.8,1372.6,779.8z M1374.7,776.8c0.7-0.3,1-0.9,1-1.9s-0.3-1.7-1-2
			c-0.4-0.2-0.9-0.3-1.7-0.3h-4v4.4h3.9C1373.7,777,1374.2,776.9,1374.7,776.8z"/>
		<path class="st5" d="M1392,775.6c1,1.3,1.5,2.8,1.5,4.6s-0.5,3.3-1.5,4.6s-2.6,1.9-4.7,1.9c-2.1,0-3.6-0.6-4.7-1.9
			c-1-1.3-1.5-2.8-1.5-4.6s0.5-3.3,1.5-4.6s2.6-1.9,4.7-1.9C1389.4,773.7,1391,774.3,1392,775.6z M1387.2,776.3
			c-0.9,0-1.6,0.3-2.1,1s-0.8,1.6-0.8,2.8s0.3,2.2,0.8,2.8c0.5,0.7,1.2,1,2.1,1c0.9,0,1.6-0.3,2.1-1s0.7-1.6,0.7-2.8
			s-0.2-2.2-0.7-2.8C1389,776.7,1388.2,776.3,1387.2,776.3z"/>
		<path class="st5" d="M1406,775.6c1,1.3,1.5,2.8,1.5,4.6s-0.5,3.3-1.5,4.6s-2.6,1.9-4.7,1.9c-2.1,0-3.6-0.6-4.7-1.9
			c-1-1.3-1.5-2.8-1.5-4.6s0.5-3.3,1.5-4.6s2.6-1.9,4.7-1.9C1403.4,773.7,1404.9,774.3,1406,775.6z M1401.2,776.3
			c-0.9,0-1.6,0.3-2.1,1s-0.8,1.6-0.8,2.8s0.3,2.2,0.8,2.8c0.5,0.7,1.2,1,2.1,1c0.9,0,1.6-0.3,2.1-1s0.7-1.6,0.7-2.8
			s-0.2-2.2-0.7-2.8S1402.2,776.3,1401.2,776.3z"/>
		<path class="st5" d="M1416.6,777.4c-0.3-0.6-0.8-0.9-1.6-0.9c-0.9,0-1.5,0.3-1.8,0.9c-0.2,0.3-0.3,0.8-0.3,1.5v7.3h-3.2v-12.1h3.1
			v1.8c0.4-0.6,0.8-1.1,1.1-1.4c0.6-0.5,1.4-0.7,2.4-0.7c0.9,0,1.7,0.2,2.3,0.6c0.5,0.4,0.8,0.9,1,1.5c0.4-0.7,0.9-1.2,1.6-1.6
			c0.7-0.3,1.4-0.5,2.2-0.5c0.5,0,1.1,0.1,1.6,0.3s1,0.6,1.4,1.1c0.3,0.4,0.6,0.9,0.7,1.6c0.1,0.4,0.1,1,0.1,1.8v7.7h-3.3v-7.7
			c0-0.5-0.1-0.8-0.2-1.1c-0.3-0.6-0.8-0.8-1.6-0.8c-0.9,0-1.5,0.4-1.8,1.1c-0.2,0.4-0.3,0.9-0.3,1.4v7.2h-3.2v-7.2
			C1416.8,778.2,1416.8,777.7,1416.6,777.4z"/>
		<path class="st5" d="M1350.5,809.1h-3.3v-11.2h-3.8v-2.2c1,0,1.7-0.1,2.1-0.2c0.6-0.1,1.2-0.4,1.6-0.8c0.3-0.3,0.5-0.7,0.6-1.2
			c0.1-0.3,0.1-0.5,0.1-0.6h2.6v16.2H1350.5z"/>
		<path class="st5" d="M1361.5,798.6c1.4,0,2.6,0.5,3.5,1.5c0.9,1,1.4,2.2,1.4,3.7s-0.5,2.8-1.4,4c-0.9,1.2-2.3,1.7-4.2,1.7
			c-2,0-3.5-0.9-4.5-2.6c-0.8-1.3-1.1-3.1-1.1-5.2c0-1.2,0.1-2.2,0.2-3c0.2-1.4,0.5-2.5,1.1-3.4c0.5-0.8,1.1-1.4,1.8-1.9
			c0.7-0.5,1.6-0.7,2.7-0.7c1.5,0,2.7,0.4,3.6,1.2c0.9,0.8,1.4,1.8,1.5,3.1h-3.2c0-0.3-0.1-0.5-0.3-0.9c-0.3-0.5-0.9-0.8-1.6-0.8
			c-1,0-1.8,0.6-2.2,1.7c-0.2,0.6-0.4,1.6-0.5,2.8c0.4-0.5,0.9-0.8,1.4-1S1360.8,798.6,1361.5,798.6z M1359.4,801.6
			c-0.6,0.5-0.9,1.3-0.9,2.3c0,0.9,0.2,1.6,0.7,2.1s1.1,0.8,1.8,0.8c0.7,0,1.3-0.3,1.7-0.8s0.6-1.2,0.6-2.1c0-0.9-0.2-1.7-0.7-2.2
			s-1-0.8-1.7-0.8C1360.2,801.1,1359.8,801.3,1359.4,801.6z"/>
		<path class="st5" d="M1368.7,805.7h3.4v3.3h-3.4V805.7z"/>
		<path class="st5" d="M1378,796.1c-0.4,0.5-0.5,1.1-0.5,1.9h-3c0-0.8,0.2-1.6,0.4-2.3c0.3-0.6,0.7-1.2,1.2-1.8
			c0.4-0.4,0.9-0.7,1.5-0.9c0.6-0.2,1.3-0.3,2.1-0.3c1.5,0,2.8,0.4,3.7,1.2s1.4,1.9,1.4,3.2c0,1-0.3,1.8-0.8,2.4
			c-0.4,0.4-0.7,0.7-1.1,0.8c0.3,0,0.7,0.2,1.2,0.7c0.8,0.8,1.2,1.8,1.2,3.1c0,1.4-0.5,2.6-1.4,3.6c-0.9,1-2.4,1.6-4.2,1.6
			c-2.3,0-3.9-0.7-4.8-2.2c-0.5-0.8-0.7-1.8-0.8-3.1h3.1c0,0.6,0.1,1.2,0.3,1.6c0.4,0.8,1.1,1.2,2.1,1.2c0.6,0,1.2-0.2,1.6-0.6
			c0.4-0.4,0.7-1,0.7-1.8c0-1.1-0.4-1.8-1.3-2.1c-0.5-0.2-1.3-0.3-2.3-0.3v-2.3c1,0,1.8-0.1,2.2-0.3c0.7-0.3,1.1-0.9,1.1-1.9
			c0-0.6-0.2-1.1-0.5-1.5c-0.4-0.4-0.9-0.6-1.5-0.6C1378.9,795.4,1378.2,795.6,1378,796.1z"/>
	</g>
	<g>
		<path class="st5" d="M1038.9,757v2.9h-4.9v13.5h-3.5v-13.5h-4.9V757H1038.9z"/>
		<path class="st5" d="M1049.3,769.9c-0.1,0.7-0.5,1.5-1.1,2.2c-1,1.2-2.5,1.8-4.4,1.8c-1.5,0-2.9-0.5-4.1-1.5s-1.8-2.6-1.8-4.9
			c0-2.1,0.5-3.7,1.6-4.8s2.5-1.7,4.2-1.7c1,0,1.9,0.2,2.7,0.6c0.8,0.4,1.5,1,2,1.8c0.5,0.7,0.8,1.6,0.9,2.5
			c0.1,0.6,0.1,1.4,0.1,2.4h-8.3c0,1.2,0.4,2.1,1.1,2.6c0.4,0.3,1,0.5,1.6,0.5c0.7,0,1.2-0.2,1.6-0.6c0.2-0.2,0.4-0.5,0.6-0.8
			L1049.3,769.9L1049.3,769.9z M1046.2,766.2c-0.1-0.8-0.3-1.5-0.8-1.9s-1-0.7-1.7-0.7s-1.3,0.2-1.7,0.7c-0.4,0.5-0.7,1.1-0.8,1.9
			H1046.2z"/>
		<path class="st5" d="M1052.1,762.6c0.8-1.1,2.3-1.6,4.3-1.6c1.3,0,2.5,0.3,3.5,0.8s1.6,1.5,1.6,3v5.6c0,0.4,0,0.9,0,1.4
			c0,0.4,0.1,0.7,0.2,0.8s0.3,0.3,0.5,0.4v0.5h-3.5c-0.1-0.2-0.2-0.5-0.2-0.7s-0.1-0.5-0.1-0.7c-0.4,0.5-0.9,0.9-1.5,1.2
			c-0.7,0.4-1.5,0.6-2.3,0.6c-1.1,0-2-0.3-2.7-0.9c-0.7-0.6-1.1-1.5-1.1-2.7c0-1.5,0.6-2.6,1.7-3.2c0.6-0.4,1.6-0.6,2.8-0.8l1.1-0.1
			c0.6-0.1,1-0.2,1.3-0.3c0.5-0.2,0.7-0.5,0.7-0.9c0-0.5-0.2-0.8-0.5-1s-0.9-0.3-1.5-0.3c-0.8,0-1.3,0.2-1.6,0.6
			c-0.2,0.3-0.4,0.6-0.4,1.1h-3.1C1051.3,764.2,1051.6,763.3,1052.1,762.6z M1054.5,771.2c0.3,0.2,0.7,0.4,1.1,0.4
			c0.7,0,1.3-0.2,1.9-0.6c0.6-0.4,0.9-1.1,0.9-2.2v-1.2c-0.2,0.1-0.4,0.2-0.6,0.3s-0.5,0.2-0.8,0.2l-0.7,0.1
			c-0.7,0.1-1.1,0.3-1.4,0.4c-0.5,0.3-0.7,0.7-0.7,1.4C1054,770.6,1054.2,770.9,1054.5,771.2z"/>
		<path class="st5" d="M1071.2,764.7c-0.3-0.6-0.8-0.9-1.6-0.9c-0.9,0-1.5,0.3-1.8,0.9c-0.2,0.3-0.3,0.8-0.3,1.5v7.3h-3.2v-12.1h3.1
			v1.8c0.4-0.6,0.8-1.1,1.1-1.4c0.6-0.5,1.4-0.7,2.4-0.7c0.9,0,1.7,0.2,2.3,0.6c0.5,0.4,0.8,0.9,1,1.5c0.4-0.7,0.9-1.2,1.6-1.6
			c0.7-0.3,1.4-0.5,2.2-0.5c0.5,0,1.1,0.1,1.6,0.3s1,0.6,1.4,1.1c0.3,0.4,0.6,0.9,0.7,1.6c0.1,0.4,0.1,1,0.1,1.8v7.7h-3.3v-7.7
			c0-0.5-0.1-0.8-0.2-1.1c-0.3-0.6-0.8-0.8-1.6-0.8c-0.9,0-1.5,0.4-1.8,1.1c-0.2,0.4-0.3,0.9-0.3,1.4v7.2h-3.2v-7.2
			C1071.4,765.5,1071.3,765,1071.2,764.7z"/>
		<path class="st5" d="M1098.3,767h-3.5v6.5h-3.4V757h8.1c1.2,0,2,0.2,2.7,0.4s1.1,0.6,1.6,1.1c0.4,0.4,0.6,0.9,0.8,1.4
			c0.2,0.5,0.3,1.1,0.3,1.7c0,0.8-0.2,1.5-0.6,2.3s-1,1.3-2,1.6c0.8,0.3,1.3,0.7,1.6,1.3c0.3,0.6,0.5,1.4,0.5,2.6v1.1
			c0,0.8,0,1.3,0.1,1.5c0.1,0.4,0.3,0.7,0.6,0.9v0.4h-3.8c-0.1-0.4-0.2-0.7-0.2-0.9c-0.1-0.5-0.1-0.9-0.1-1.4v-1.5
			c0-1-0.2-1.7-0.6-2.1C1100,767.2,1099.3,767,1098.3,767z M1100.4,764c0.7-0.3,1-0.9,1-1.9s-0.3-1.7-1-2c-0.4-0.2-0.9-0.3-1.7-0.3
			h-4v4.4h3.9C1099.4,764.3,1100,764.2,1100.4,764z"/>
		<path class="st5" d="M1117.7,762.9c1,1.3,1.5,2.8,1.5,4.6s-0.5,3.3-1.5,4.6s-2.6,1.9-4.7,1.9s-3.6-0.6-4.7-1.9
			c-1-1.3-1.5-2.8-1.5-4.6s0.5-3.3,1.5-4.6s2.6-1.9,4.7-1.9S1116.7,761.6,1117.7,762.9z M1113,763.6c-0.9,0-1.6,0.3-2.1,1
			s-0.8,1.6-0.8,2.8s0.3,2.2,0.8,2.8c0.5,0.7,1.2,1,2.1,1s1.6-0.3,2.1-1s0.7-1.6,0.7-2.8s-0.2-2.2-0.7-2.8
			C1114.6,763.9,1113.9,763.6,1113,763.6z"/>
		<path class="st5" d="M1131.6,762.9c1,1.3,1.5,2.8,1.5,4.6s-0.5,3.3-1.5,4.6s-2.6,1.9-4.7,1.9s-3.6-0.6-4.7-1.9
			c-1-1.3-1.5-2.8-1.5-4.6s0.5-3.3,1.5-4.6s2.6-1.9,4.7-1.9S1130.6,761.6,1131.6,762.9z M1127,763.6c-0.9,0-1.6,0.3-2.1,1
			s-0.8,1.6-0.8,2.8s0.3,2.2,0.8,2.8c0.5,0.7,1.2,1,2.1,1s1.6-0.3,2.1-1s0.7-1.6,0.7-2.8s-0.2-2.2-0.7-2.8
			C1128.6,763.9,1127.9,763.6,1127,763.6z"/>
		<path class="st5" d="M1142.3,764.7c-0.3-0.6-0.8-0.9-1.6-0.9c-0.9,0-1.5,0.3-1.8,0.9c-0.2,0.3-0.3,0.8-0.3,1.5v7.3h-3.2v-12.1h3.1
			v1.8c0.4-0.6,0.8-1.1,1.1-1.4c0.6-0.5,1.4-0.7,2.4-0.7c0.9,0,1.7,0.2,2.3,0.6c0.5,0.4,0.8,0.9,1,1.5c0.4-0.7,0.9-1.2,1.6-1.6
			c0.7-0.3,1.4-0.5,2.2-0.5c0.5,0,1.1,0.1,1.6,0.3s1,0.6,1.4,1.1c0.3,0.4,0.6,0.9,0.7,1.6c0.1,0.4,0.1,1,0.1,1.8v7.7h-3.3v-7.7
			c0-0.5-0.1-0.8-0.2-1.1c-0.3-0.6-0.8-0.8-1.6-0.8c-0.9,0-1.5,0.4-1.8,1.1c-0.2,0.4-0.3,0.9-0.3,1.4v7.2h-3.2v-7.2
			C1142.5,765.5,1142.4,765,1142.3,764.7z"/>
		<path class="st5" d="M1076.1,796.3h-3.3v-11.2h-3.8V783c1,0,1.7-0.1,2.1-0.2c0.6-0.1,1.2-0.4,1.6-0.8c0.3-0.3,0.5-0.7,0.6-1.2
			c0.1-0.3,0.1-0.5,0.1-0.6h2.6v16.1H1076.1z"/>
		<path class="st5" d="M1087.2,785.8c1.4,0,2.6,0.5,3.5,1.5s1.4,2.2,1.4,3.7s-0.5,2.8-1.4,4s-2.3,1.7-4.2,1.7c-2,0-3.5-0.9-4.5-2.6
			c-0.8-1.3-1.1-3.1-1.1-5.2c0-1.2,0.1-2.2,0.2-3c0.2-1.4,0.5-2.5,1.1-3.4c0.5-0.8,1.1-1.4,1.8-1.9c0.7-0.5,1.6-0.7,2.7-0.7
			c1.5,0,2.7,0.4,3.6,1.2s1.4,1.8,1.5,3.1h-3.2c0-0.3-0.1-0.5-0.3-0.9c-0.3-0.5-0.9-0.8-1.6-0.8c-1,0-1.8,0.6-2.2,1.7
			c-0.2,0.6-0.4,1.6-0.5,2.8c0.4-0.5,0.9-0.8,1.4-1C1085.9,785.9,1086.5,785.8,1087.2,785.8z M1085,788.9c-0.6,0.5-0.9,1.3-0.9,2.3
			c0,0.9,0.2,1.6,0.7,2.1s1.1,0.8,1.8,0.8c0.7,0,1.3-0.3,1.7-0.8c0.4-0.5,0.6-1.2,0.6-2.1c0-0.9-0.2-1.7-0.7-2.2s-1-0.8-1.7-0.8
			C1085.9,788.4,1085.5,788.5,1085,788.9z"/>
		<path class="st5" d="M1094.3,793h3.4v3.3h-3.4V793z"/>
		<path class="st5" d="M1107.2,783.4c-0.4-0.5-0.9-0.7-1.6-0.7c-1,0-1.6,0.4-2,1.1c-0.2,0.4-0.3,1.1-0.4,2h-3.1
			c0.1-1.4,0.3-2.5,0.7-3.3c0.8-1.6,2.4-2.4,4.5-2.4c1.7,0,3.1,0.5,4.1,1.4s1.5,2.2,1.5,3.8c0,1.2-0.4,2.3-1.1,3.2
			c-0.5,0.6-1.2,1.3-2.3,2.1l-1.3,0.9c-0.8,0.6-1.3,1-1.6,1.2s-0.5,0.5-0.7,0.9h7.1v2.8h-11c0-1.2,0.3-2.2,0.7-3.2
			c0.5-1.1,1.5-2.2,3.2-3.4c1.5-1,2.4-1.8,2.8-2.3c0.7-0.7,1-1.5,1-2.3C1107.8,784.5,1107.6,783.9,1107.2,783.4z"/>
	</g>
	<g>
		<path class="st5" d="M224.1,571.9v2.9h-4.9v13.5h-3.5v-13.5h-4.9v-2.9H224.1z"/>
		<path class="st5" d="M234.6,584.7c-0.1,0.7-0.5,1.5-1.1,2.2c-1,1.2-2.5,1.8-4.4,1.8c-1.5,0-2.9-0.5-4.1-1.5
			c-1.2-1-1.8-2.6-1.8-4.9c0-2.1,0.5-3.7,1.6-4.8s2.5-1.7,4.2-1.7c1,0,1.9,0.2,2.7,0.6c0.8,0.4,1.5,1,2,1.8c0.5,0.7,0.8,1.6,0.9,2.5
			c0.1,0.6,0.1,1.4,0.1,2.4h-8.3c0,1.2,0.4,2.1,1.1,2.6c0.4,0.3,1,0.5,1.6,0.5c0.7,0,1.2-0.2,1.6-0.6c0.2-0.2,0.4-0.5,0.6-0.8
			L234.6,584.7L234.6,584.7z M231.4,581c-0.1-0.8-0.3-1.5-0.8-1.9s-1-0.7-1.7-0.7s-1.3,0.2-1.7,0.7s-0.7,1.1-0.8,1.9H231.4z"/>
		<path class="st5" d="M237.3,577.5c0.8-1.1,2.3-1.6,4.3-1.6c1.3,0,2.5,0.3,3.5,0.8s1.6,1.5,1.6,3v5.6c0,0.4,0,0.9,0,1.4
			c0,0.4,0.1,0.7,0.2,0.8c0.1,0.1,0.3,0.3,0.5,0.4v0.5H244c-0.1-0.2-0.2-0.5-0.2-0.7s-0.1-0.5-0.1-0.7c-0.4,0.5-0.9,0.9-1.5,1.2
			c-0.7,0.4-1.5,0.6-2.3,0.6c-1.1,0-2-0.3-2.7-0.9c-0.7-0.6-1.1-1.5-1.1-2.7c0-1.5,0.6-2.6,1.7-3.2c0.6-0.4,1.6-0.6,2.8-0.8l1.1-0.1
			c0.6-0.1,1-0.2,1.3-0.3c0.5-0.2,0.7-0.5,0.7-0.9c0-0.5-0.2-0.8-0.5-1s-0.9-0.3-1.5-0.3c-0.8,0-1.3,0.2-1.6,0.6
			c-0.2,0.3-0.4,0.6-0.4,1.1h-3.1C236.5,579,236.8,578.1,237.3,577.5z M239.7,586c0.3,0.2,0.7,0.4,1.1,0.4c0.7,0,1.3-0.2,1.9-0.6
			c0.6-0.4,0.9-1.1,0.9-2.2v-1.2c-0.2,0.1-0.4,0.2-0.6,0.3s-0.5,0.2-0.8,0.2l-0.7,0.1c-0.7,0.1-1.1,0.3-1.4,0.4
			c-0.5,0.3-0.7,0.7-0.7,1.4C239.2,585.4,239.4,585.8,239.7,586z"/>
		<path class="st5" d="M256.4,579.5c-0.3-0.6-0.8-0.9-1.6-0.9c-0.9,0-1.5,0.3-1.8,0.9c-0.2,0.3-0.3,0.8-0.3,1.5v7.3h-3.2v-12.1h3.1
			v1.8c0.4-0.6,0.8-1.1,1.1-1.4c0.6-0.5,1.4-0.7,2.4-0.7c0.9,0,1.7,0.2,2.3,0.6c0.5,0.4,0.8,0.9,1,1.5c0.4-0.7,0.9-1.2,1.6-1.6
			c0.7-0.3,1.4-0.5,2.2-0.5c0.5,0,1.1,0.1,1.6,0.3s1,0.6,1.4,1.1c0.3,0.4,0.6,0.9,0.7,1.6c0.1,0.4,0.1,1,0.1,1.8v7.7h-3.3v-7.7
			c0-0.5-0.1-0.8-0.2-1.1c-0.3-0.6-0.8-0.8-1.6-0.8c-0.9,0-1.5,0.4-1.8,1.1c-0.2,0.4-0.3,0.9-0.3,1.4v7.2h-3.2v-7.2
			C256.6,580.3,256.6,579.8,256.4,579.5z"/>
		<path class="st5" d="M283.5,581.9H280v6.5h-3.4v-16.5h8.1c1.2,0,2,0.2,2.7,0.4s1.1,0.6,1.6,1.1c0.4,0.4,0.6,0.9,0.8,1.4
			c0.2,0.5,0.3,1.1,0.3,1.7c0,0.8-0.2,1.5-0.6,2.3s-1,1.3-2,1.6c0.8,0.3,1.3,0.7,1.6,1.3c0.3,0.6,0.5,1.4,0.5,2.6v1.1
			c0,0.8,0,1.3,0.1,1.5c0.1,0.4,0.3,0.7,0.6,0.9v0.4h-3.8c-0.1-0.4-0.2-0.7-0.2-0.9c-0.1-0.5-0.1-0.9-0.1-1.4v-1.5
			c0-1-0.2-1.7-0.6-2.1C285.2,582,284.5,581.9,283.5,581.9z M285.6,578.9c0.7-0.3,1-0.9,1-1.9s-0.3-1.7-1-2
			c-0.4-0.2-0.9-0.3-1.7-0.3h-4v4.4h3.9C284.6,579.1,285.2,579,285.6,578.9z"/>
		<path class="st5" d="M302.9,577.7c1,1.3,1.5,2.8,1.5,4.6s-0.5,3.3-1.5,4.6s-2.6,1.9-4.7,1.9s-3.6-0.6-4.7-1.9
			c-1-1.3-1.5-2.8-1.5-4.6s0.5-3.3,1.5-4.6s2.6-1.9,4.7-1.9S301.9,576.4,302.9,577.7z M298.2,578.4c-0.9,0-1.6,0.3-2.1,1
			s-0.8,1.6-0.8,2.8s0.3,2.2,0.8,2.8c0.5,0.7,1.2,1,2.1,1s1.6-0.3,2.1-1s0.7-1.6,0.7-2.8s-0.2-2.2-0.7-2.8
			C299.9,578.8,299.2,578.4,298.2,578.4z"/>
		<path class="st5" d="M316.9,577.7c1,1.3,1.5,2.8,1.5,4.6s-0.5,3.3-1.5,4.6s-2.6,1.9-4.7,1.9s-3.6-0.6-4.7-1.9
			c-1-1.3-1.5-2.8-1.5-4.6s0.5-3.3,1.5-4.6s2.6-1.9,4.7-1.9S315.8,576.4,316.9,577.7z M312.2,578.4c-0.9,0-1.6,0.3-2.1,1
			s-0.8,1.6-0.8,2.8s0.3,2.2,0.8,2.8c0.5,0.7,1.2,1,2.1,1s1.6-0.3,2.1-1s0.7-1.6,0.7-2.8s-0.2-2.2-0.7-2.8
			C313.8,578.8,313.1,578.4,312.2,578.4z"/>
		<path class="st5" d="M327.5,579.5c-0.3-0.6-0.8-0.9-1.6-0.9c-0.9,0-1.5,0.3-1.8,0.9c-0.2,0.3-0.3,0.8-0.3,1.5v7.3h-3.2v-12.1h3.1
			v1.8c0.4-0.6,0.8-1.1,1.1-1.4c0.6-0.5,1.4-0.7,2.4-0.7c0.9,0,1.7,0.2,2.3,0.6c0.5,0.4,0.8,0.9,1,1.5c0.4-0.7,0.9-1.2,1.6-1.6
			c0.7-0.3,1.4-0.5,2.2-0.5c0.5,0,1.1,0.1,1.6,0.3s1,0.6,1.4,1.1c0.3,0.4,0.6,0.9,0.7,1.6c0.1,0.4,0.1,1,0.1,1.8v7.7h-3.3v-7.7
			c0-0.5-0.1-0.8-0.2-1.1c-0.3-0.6-0.8-0.8-1.6-0.8c-0.9,0-1.5,0.4-1.8,1.1c-0.2,0.4-0.3,0.9-0.3,1.4v7.2h-3.2v-7.2
			C327.7,580.3,327.7,579.8,327.5,579.5z"/>
		<path class="st5" d="M261.4,611.2h-3.3V600h-3.8v-2.2c1,0,1.7-0.1,2.1-0.2c0.6-0.1,1.2-0.4,1.6-0.8c0.3-0.3,0.5-0.7,0.6-1.2
			c0.1-0.3,0.1-0.5,0.1-0.6h2.6L261.4,611.2L261.4,611.2z"/>
		<path class="st5" d="M272.4,600.7c1.4,0,2.6,0.5,3.5,1.5s1.4,2.2,1.4,3.7s-0.5,2.8-1.4,4s-2.3,1.7-4.2,1.7c-2,0-3.5-0.9-4.5-2.6
			c-0.8-1.3-1.1-3.1-1.1-5.2c0-1.2,0.1-2.2,0.2-3c0.2-1.4,0.5-2.5,1.1-3.4c0.5-0.8,1.1-1.4,1.8-1.9c0.7-0.5,1.6-0.7,2.7-0.7
			c1.5,0,2.7,0.4,3.6,1.2s1.4,1.8,1.5,3.1h-3.2c0-0.3-0.1-0.5-0.3-0.9c-0.3-0.5-0.9-0.8-1.6-0.8c-1,0-1.8,0.6-2.2,1.7
			c-0.2,0.6-0.4,1.6-0.5,2.8c0.4-0.5,0.9-0.8,1.4-1C271.2,600.8,271.8,600.7,272.4,600.7z M270.3,603.7c-0.6,0.5-0.9,1.3-0.9,2.3
			c0,0.9,0.2,1.6,0.7,2.1s1.1,0.8,1.8,0.8c0.7,0,1.3-0.3,1.7-0.8c0.4-0.5,0.6-1.2,0.6-2.1c0-0.9-0.2-1.7-0.7-2.2s-1-0.8-1.7-0.8
			C271.2,603.2,270.7,603.4,270.3,603.7z"/>
		<path class="st5" d="M279.6,607.8h3.4v3.3h-3.4V607.8z"/>
		<path class="st5" d="M293.1,611.2h-3.3V600H286v-2.2c1,0,1.7-0.1,2.1-0.2c0.6-0.1,1.2-0.4,1.6-0.8c0.3-0.3,0.5-0.7,0.6-1.2
			c0.1-0.3,0.1-0.5,0.1-0.6h2.6L293.1,611.2L293.1,611.2z"/>
	</g>
</g>
<g id="outline">
	<path class="st11" d="M106.5,419.5l130.4,657.3l1877.1-71.2l-18.6-257.5l-515,17.4l-181.3-163.1L940,636.3l-28.8,166
		c0,0-32-34.8-76.4-49.1s-89.6-13.6-89.6-13.6L696,443.2L106.5,419.5L106.5,419.5z"/>
	<line class="st12" x1="374.2" y1="430.3" x2="383.7" y2="493.5"/>
	<polyline class="st12" points="393.9,548.8 428.9,743.1 440.2,743.1 168.3,743.1 	"/>
	<polyline class="st12" points="493.3,743.1 782.4,743.1 526.1,743.1 518.7,711.4 	"/>
	<line class="st12" x1="506.3" y1="645.9" x2="469.1" y2="434.1"/>
	<line class="st12" x1="505.6" y1="743.1" x2="528.4" y2="871.5"/>
	<line class="st12" x1="541.7" y1="943.2" x2="566" y2="1064.3"/>
	<path class="st12" d="M832.7,1054.2c0,0,12.4-5.7,29.4-18.1l16.9-12.4"/>
	<path class="st12" d="M911.2,975.7c0,0,10.4-22.6,12.8-44.9s2.4-29.7,2.4-29.7"/>
	<path class="st12" d="M923,850.9c0,0-1.1-24.3-11.9-48.6"/>
	<line class="st12" x1="1067" y1="926.6" x2="924" y2="930.8"/>
	<line class="st12" x1="1125.5" y1="923.2" x2="1200.9" y2="920.4"/>
	<polyline class="st12" points="1185,618.3 1200.9,938.5 1230.2,936.5 	"/>
	<polyline class="st12" points="1282.8,933.4 1548.2,917 1549.9,951.8 1540.1,734.6 	"/>
	<line class="st12" x1="1553.4" y1="1005.7" x2="1554.5" y2="1026.9"/>
	<polyline class="st12" points="1728.8,1020.3 1718.6,848.3 1741.6,848.3 	"/>
	<polyline class="st12" points="1799.7,848.3 1869.3,848.3 1883.5,1014.4 1866.6,819.9 	"/>
	<line class="st12" x1="1994.9" y1="809.1" x2="2008.5" y2="1009.7"/>
	<line class="st12" x1="963.6" y1="634.6" x2="965.7" y2="667.2"/>
	<line class="st12" x1="969.3" y1="720.2" x2="983.8" y2="928.7"/>
</g>
</svg>
