<?xml version="1.0" encoding="utf-8"?>
<!-- Generator: Adobe Illustrator 25.2.3, SVG Export Plug-In . SVG Version: 6.00 Build 0)  -->
<svg version="1.1" id="Layer_1" xmlns="http://www.w3.org/2000/svg" xmlns:xlink="http://www.w3.org/1999/xlink" x="0px" y="0px"
	 viewBox="0 0 1636.4 1259.3" style="enable-background:new 0 0 1636.4 1259.3;" xml:space="preserve">
<style type="text/css">
	.st0{fill:#4196B1;}
	.st1{fill:#AAE0E4;}
	.st2{fill:#99B8BF;}
	.st3{fill:#8ECCCE;}
	.st4{fill:#F4F4F4;}
	.st5{opacity:0.15;fill:#010101;enable-background:new    ;}
	.st6{fill:#B8BFC1;}
	.st7{fill:#FFFFFF;}
	.st8{fill:none;stroke:#DDDDDD;stroke-width:4;stroke-linecap:round;stroke-linejoin:round;}
	.st9{fill:#596068;}
	.st10{fill:#9BAEB7;}
	.st11{fill:none;stroke:#7A8E93;stroke-width:1.87;stroke-linecap:round;stroke-miterlimit:10;}
	.st12{opacity:5.000000e-02;fill:#030303;enable-background:new    ;}
	.st13{fill:none;stroke:#DADCDC;stroke-width:0.175;stroke-miterlimit:10;}
	.st14{fill:none;stroke:#7A8E93;stroke-width:0.561;stroke-linecap:round;stroke-miterlimit:10;}
	.st15{opacity:0.74;fill:#575757;enable-background:new    ;}
	.st16{enable-background:new    ;}
	.st17{fill:none;stroke:#FFFFFF;stroke-width:12;stroke-miterlimit:10;}
	.st18{fill:none;stroke:#FFFFFF;stroke-width:5;stroke-miterlimit:10;}
	.st19{fill:#EBF2F2;}
	.st20{fill:#646B6D;}
	.st21{fill:none;stroke:#7A8E93;stroke-width:0.709;stroke-miterlimit:10;}
	.st22{fill:none;stroke:#7A8E93;stroke-width:0.74;stroke-miterlimit:10;}
	.st23{fill:none;stroke:#7A8E93;stroke-width:0.699;stroke-miterlimit:10;}
	.st24{fill:#767E80;}
	.st25{fill:#EBF1F2;}
	.st26{fill:none;stroke:#7A8E93;stroke-width:0.827;stroke-miterlimit:10;}
	.st27{fill:#7A8E93;}
	.st28{fill:#757D7F;}
	.st29{font-family:'ArialMT';}
	.st30{font-size:10.41px;}
	.st31{fill:none;stroke:#7A8E93;stroke-width:0.389;stroke-miterlimit:10;}
	.st32{opacity:0.15;fill:#0D5577;enable-background:new    ;}
</style>
<g id="shadow">
	<polygon class="st0" points="572.5,189.6 572.5,136.4 161.9,136.4 161.9,206.4 148,206.4 148,1207.9 1485.7,1207.9 1485.7,192.4 	
		"/>
</g>
<g id="background">
	<polygon class="st1" points="566.8,188.5 566.8,136.4 161.7,136.4 161.7,205 148,205 148,1186.9 1467.6,1186.9 1467.6,191.3 	"/>
</g>
<g id="spaces">
	<rect x="161.7" y="136.4" class="st2" width="218.2" height="70"/>
	<rect x="1027.1" y="189.9" class="st3" width="440.5" height="497.1"/>
	<rect x="1151" y="748.3" class="st3" width="69.2" height="239.6"/>
	<rect x="685.6" y="456.2" class="st3" width="276.7" height="147"/>
	<polygon class="st3" points="734.5,189 962.3,189 962.3,289 891.4,289 891.4,379.7 962.3,379.7 962.3,456.2 734.5,456.2 	"/>
	<polygon class="st3" points="435.2,206.4 435.2,265.6 559.2,265.6 559.2,192.3 570,192.3 570,132.9 379.9,132.9 379.9,206.4 	"/>
	<rect x="317.7" y="456.2" class="st3" width="280.3" height="143.2"/>
</g>
<g id="furnaiture">
	<polygon class="st4" points="1462.4,1181 1433.4,1181 1399,1181 1399,729.5 1430.7,729.5 1462.4,729.5 	"/>
	<polygon class="st4" points="1334.1,900.4 1312.2,900.4 1286.3,900.4 1286.3,808.6 1310.2,808.6 1334.1,808.6 	"/>
	<polygon class="st4" points="1334.1,998.2 1312.2,998.2 1286.3,998.2 1286.3,906.4 1310.2,906.4 1334.1,906.4 	"/>
	<polygon class="st4" points="1334.1,1095.9 1312.2,1095.9 1286.3,1095.9 1286.3,1004.1 1310.2,1004.1 1334.1,1004.1 	"/>
	<polygon class="st4" points="1054.2,1099.3 1037.1,1099.3 1017,1099.3 1017,750.3 1035.6,750.3 1054.2,750.3 	"/>
	<polygon class="st4" points="1224.3,1054.8 1224.3,1073.6 1224.3,1095.9 1036.9,1095.9 1036.9,1075.3 1036.9,1054.8 	"/>
	<path class="st5" d="M524.6,726v-35.2h68.6v430.5h-27v-33.2c0,0,2-18.1-14.4-18.1h-28.5v-68.2h26.5c0,0,17-1.4,17-21.4v-69.6
		c0,0-2.7-13.4-17.4-13.4h-24.9v-68.6h20.9c0,0,21.3,3,21.3-19.9v-64.3c0,0,1.1-18.8-16.8-18.8S524.6,726,524.6,726z"/>
	<path class="st6" d="M524.6,723.9v-35.2h68.6v430.5h-27V1086c0,0,2-18.1-14.4-18.1h-28.5v-68.2h26.5c0,0,17-1.4,17-21.4v-69.6
		c0,0-2.7-13.4-17.4-13.4h-24.9v-68.6h20.9c0,0,21.3,3,21.3-19.9v-64.3c0,0,1.1-18.8-16.8-18.8S524.6,723.9,524.6,723.9z"/>
	<path class="st7" d="M524.6,722.5v-35.2h68.6v430.5h-27v-33.2c0,0,2-18.1-14.4-18.1h-28.5v-68.2h26.5c0,0,17-1.4,17-21.4v-69.6
		c0,0-2.7-13.4-17.4-13.4h-24.9v-68.6h20.9c0,0,21.3,3,21.3-19.9V741c0,0,1.1-18.8-16.8-18.8S524.6,722.5,524.6,722.5z"/>
	<polyline class="st8" points="524.6,690.8 593.2,690.8 593.2,1121.3 566.2,1121.3 	"/>
	<polyline class="st8" points="593.2,863.3 524.6,863.3 524.6,873.6 524.6,852.1 	"/>
	<polyline class="st8" points="593.2,1036.2 524.6,1036.2 524.6,1044.9 524.6,1026.5 	"/>
	<line class="st8" x1="593.2" y1="914.8" x2="566.8" y2="914.8"/>
	<line class="st8" x1="593.2" y1="983.7" x2="566.8" y2="983.7"/>
	<line class="st8" x1="593.2" y1="949.2" x2="566.8" y2="949.2"/>
	<line class="st8" x1="593.2" y1="1087.2" x2="566.8" y2="1087.2"/>
	<line class="st8" x1="593.2" y1="742.3" x2="566.8" y2="742.3"/>
	<line class="st8" x1="593.2" y1="778.9" x2="566.8" y2="778.9"/>
	<line class="st8" x1="593.2" y1="811.8" x2="566.8" y2="811.8"/>
	<path class="st5" d="M666.5,726v-35.2h-68.6v430.5h27v-33.2c0,0-2-18.1,14.4-18.1h28.5v-68.2h-26.5c0,0-17-1.4-17-21.4v-69.6
		c0,0,2.7-13.4,17.4-13.4h24.9v-68.6h-20.9c0,0-21.3,3-21.3-19.9v-64.3c0,0-1.1-18.8,16.8-18.8S666.5,726,666.5,726z"/>
	<path class="st6" d="M666.5,723.9v-35.2h-68.6v430.5h27V1086c0,0-2-18.1,14.4-18.1h28.5v-68.2h-26.5c0,0-17-1.4-17-21.4v-69.6
		c0,0,2.7-13.4,17.4-13.4h24.9v-68.6h-20.9c0,0-21.3,3-21.3-19.9v-64.3c0,0-1.1-18.8,16.8-18.8S666.5,723.9,666.5,723.9z"/>
	<path class="st7" d="M666.5,722.5v-35.2h-68.6v430.5h27v-33.2c0,0-2-18.1,14.4-18.1h28.5v-68.2h-26.5c0,0-17-1.4-17-21.4v-69.6
		c0,0,2.7-13.4,17.4-13.4h24.9v-68.6h-20.9c0,0-21.3,3-21.3-19.9V741c0,0-1.1-18.8,16.8-18.8S666.5,722.5,666.5,722.5z"/>
	<polyline class="st8" points="666.5,690.8 597.8,690.8 597.8,1121.3 624.8,1121.3 	"/>
	<polyline class="st8" points="597.8,863.3 666.5,863.3 666.5,873.6 666.5,852.1 	"/>
	<polyline class="st8" points="597.8,1036.2 666.5,1036.2 666.5,1044.9 666.5,1026.5 	"/>
	<line class="st8" x1="597.8" y1="914.8" x2="624.2" y2="914.8"/>
	<line class="st8" x1="597.8" y1="983.7" x2="624.2" y2="983.7"/>
	<line class="st8" x1="597.8" y1="949.2" x2="624.2" y2="949.2"/>
	<line class="st8" x1="597.8" y1="1087.2" x2="624.2" y2="1087.2"/>
	<line class="st8" x1="597.8" y1="742.3" x2="624.2" y2="742.3"/>
	<line class="st8" x1="597.8" y1="778.9" x2="624.2" y2="778.9"/>
	<line class="st8" x1="597.8" y1="811.8" x2="624.2" y2="811.8"/>
	<path class="st5" d="M549.6,817.6l4.6-3.6c3.5-2.5,4.2-7.3,1.7-10.8l0,0l-0.3-0.4l-3.6-4c-3.8-4-10-4.3-14.2-0.7l0,0
		c-4.4,3.2-5.6,9.4-2.6,14l3.1,4.4c2.6,3.4,7.5,4,10.9,1.4L549.6,817.6z"/>
	<path class="st9" d="M550,818.1l4.6-3.7c3.5-2.5,4.2-7.3,1.7-10.8l0,0l0,0l-0.3-0.4l-3.6-4c-3.8-4-10-4.3-14.2-0.7l0,0
		c-4.4,3.2-5.6,9.4-2.6,14l3.1,4.4c2.6,3.4,7.5,4,10.9,1.4l0,0L550,818.1z"/>
	<path class="st10" d="M551.8,819.9l4.2-3.4c3.2-2.5,3.8-7.2,1.3-10.4l0,0l-0.2-0.2l-3.6-4c-3.5-4-9.5-4.5-13.6-1.2l0,0
		c-4.1,3.3-5,9.2-1.9,13.4l3.1,4.4c2.3,3.3,6.8,4.1,10.2,1.8c0.1-0.1,0.1-0.1,0.2-0.2l0,0L551.8,819.9z"/>
	<path class="st11" d="M557.7,806.6l-4.4-4.8c-3.5-4-9.5-4.5-13.6-1.2l0,0c-4.1,3.3-5,9.2-1.9,13.4l3.7,5.3"/>
	<path class="st5" d="M555.5,741l-4.6-3.6c-3.2-2.8-8.1-2.5-10.9,0.7l0,0l-0.3,0.4l-3.1,4.4c-3,4.6-2,10.7,2.5,14l0,0
		c4.1,3.6,10.4,3.4,14.2-0.6l3.6-4c2.7-3.3,2.3-8.2-1-11L555.5,741z"/>
	<path class="st9" d="M555.9,740.5l-4.6-3.6c-3.2-2.8-8.1-2.5-10.9,0.7l0,0l0,0l-0.3,0.4l-3.1,4.4c-3,4.6-2,10.7,2.5,14l0,0
		c4.1,3.6,10.4,3.4,14.2-0.6l3.6-4c2.7-3.3,2.3-8.2-1-11l0,0L555.9,740.5z"/>
	<path class="st10" d="M557.2,738.3L553,735c-3.2-2.5-7.8-2.1-10.4,1.1l0,0l-0.2,0.2l-3.1,4.4c-3.1,4.3-2.3,10.3,1.9,13.6l0,0
		c4.1,3.3,10,2.8,13.5-1.1l3.6-4c2.7-3,2.5-7.6-0.5-10.3c-0.1-0.1-0.1-0.1-0.2-0.2l0,0L557.2,738.3z"/>
	<path class="st11" d="M542.9,735.6l-3.7,5.3c-3.1,4.3-2.3,10.3,1.9,13.6l0,0c4.1,3.3,10,2.8,13.5-1.1l4.4-4.8"/>
	<path class="st5" d="M550.9,989.4l4.6-3.7c3.5-2.5,4.2-7.3,1.7-10.8l0,0l-0.3-0.4l-3.6-4c-3.8-4-10-4.3-14.2-0.7l0,0
		c-4.4,3.2-5.6,9.4-2.6,14l3.1,4.4c2.6,3.4,7.5,4,10.9,1.4L550.9,989.4z"/>
	<path class="st9" d="M551.2,989.9l4.6-3.7c3.5-2.5,4.2-7.3,1.7-10.8l0,0l0,0l-0.3-0.4l-3.6-4c-3.8-4-10-4.3-14.2-0.7l0,0
		c-4.4,3.2-5.6,9.4-2.6,14l3.1,4.4c2.6,3.4,7.5,4,10.9,1.4l0,0L551.2,989.9z"/>
	<path class="st10" d="M553.1,991.7l4.2-3.4c3.2-2.5,3.8-7.2,1.3-10.4l0,0l-0.2-0.2l-3.6-4c-3.5-4-9.5-4.5-13.6-1.2l0,0
		c-4.1,3.3-5,9.2-1.9,13.4l3.1,4.4c2.3,3.3,6.8,4.1,10.2,1.8c0.1-0.1,0.1-0.1,0.2-0.2l0,0L553.1,991.7z"/>
	<path class="st11" d="M558.9,978.3l-4.4-4.8c-3.5-4-9.5-4.5-13.6-1.2l0,0c-4.1,3.3-5,9.2-1.9,13.4l3.7,5.3"/>
	<path class="st5" d="M556.7,912.7l-4.6-3.6c-3.2-2.8-8.1-2.5-10.9,0.7l0,0l-0.3,0.4l-3.1,4.4c-3,4.6-2,10.7,2.5,14l0,0
		c4.1,3.6,10.4,3.4,14.2-0.6l3.6-4c2.7-3.3,2.3-8.2-1-11L556.7,912.7z"/>
	<path class="st9" d="M557.1,912.3l-4.6-3.6c-3.2-2.8-8.1-2.5-10.9,0.7l0,0l0,0l-0.3,0.4l-3.1,4.4c-3,4.6-2,10.7,2.5,14l0,0
		c4.1,3.6,10.4,3.4,14.2-0.6l3.6-4c2.7-3.3,2.3-8.2-1-11l0,0L557.1,912.3z"/>
	<path class="st10" d="M558.5,910.1l-4.2-3.4c-3.2-2.5-7.8-2.1-10.4,1.1l0,0l-0.2,0.2l-3.1,4.4c-3.1,4.3-2.3,10.3,1.9,13.6l0,0
		c4.1,3.3,10,2.8,13.5-1.1l3.6-4c2.7-3,2.5-7.6-0.5-10.3c-0.1-0.1-0.1-0.1-0.2-0.2l0,0L558.5,910.1z"/>
	<path class="st11" d="M544.2,907.3l-3.7,5.3c-3.1,4.3-2.3,10.3,1.9,13.6l0,0c4.1,3.3,10,2.8,13.5-1.1l4.4-4.8"/>
	<path class="st5" d="M555.8,1083.8l-4.6-3.6c-3.2-2.8-8.1-2.5-10.9,0.7l0,0l-0.3,0.4l-3.1,4.4c-3,4.6-2,10.7,2.5,14l0,0
		c4.1,3.6,10.4,3.4,14.2-0.6l3.6-4c2.7-3.3,2.3-8.2-1-11L555.8,1083.8z"/>
	<path class="st9" d="M556.2,1083.4l-4.6-3.6c-3.2-2.8-8.1-2.5-10.9,0.7l0,0l0,0l-0.3,0.4l-3.1,4.4c-3,4.6-2,10.7,2.5,14l0,0
		c4.1,3.6,10.4,3.4,14.2-0.6l3.6-4c2.7-3.3,2.3-8.2-1-11l0,0L556.2,1083.4z"/>
	<path class="st10" d="M557.5,1081.2l-4.2-3.4c-3.2-2.5-7.8-2.1-10.4,1.1l0,0l-0.2,0.2l-3.1,4.4c-3.1,4.3-2.3,10.3,1.9,13.6l0,0
		c4.1,3.3,10,2.8,13.5-1.1l3.6-4c2.7-3,2.5-7.6-0.5-10.3c-0.1-0.1-0.1-0.1-0.2-0.2l0,0L557.5,1081.2z"/>
	<path class="st11" d="M543.2,1078.4l-3.7,5.3c-3.1,4.3-2.3,10.3,1.9,13.6l0,0c4.1,3.3,10,2.8,13.5-1.1l4.4-4.8"/>
	<path class="st5" d="M636.6,907.6l-4.6,3.7c-3.5,2.5-4.2,7.3-1.7,10.8l0,0l0.3,0.4l3.6,4c3.8,4,10,4.3,14.2,0.7l0,0
		c4.4-3.2,5.6-9.4,2.6-14l-3.1-4.4c-2.6-3.4-7.5-4-10.9-1.4L636.6,907.6z"/>
	<path class="st9" d="M636.2,907.2l-4.6,3.7c-3.5,2.5-4.2,7.3-1.7,10.8l0,0l0,0l0.3,0.4l3.6,4c3.8,4,10,4.3,14.2,0.7l0,0
		c4.4-3.2,5.6-9.4,2.6-14l-3.1-4.4c-2.6-3.4-7.5-4-10.9-1.4l0,0L636.2,907.2z"/>
	<path class="st10" d="M634.4,905.3l-4.2,3.4c-3.2,2.5-3.8,7.2-1.3,10.4l0,0l0.2,0.2l3.6,4c3.5,4,9.5,4.5,13.6,1.2l0,0
		c4.1-3.3,5-9.2,1.9-13.4l-3.1-4.4c-2.3-3.3-6.8-4.1-10.2-1.8c-0.1,0.1-0.1,0.1-0.2,0.2l0,0L634.4,905.3z"/>
	<path class="st11" d="M628.5,918.7l4.4,4.8c3.5,4,9.5,4.5,13.6,1.2l0,0c4.1-3.3,5-9.2,1.9-13.4l-3.7-5.3"/>
	<path class="st5" d="M632,988.2l4.6,3.6c3.2,2.8,8.1,2.5,10.9-0.7l0,0l0.3-0.4l3.1-4.4c3-4.6,2-10.7-2.5-14l0,0
		c-4.1-3.6-10.4-3.4-14.2,0.6l-3.6,4c-2.7,3.3-2.3,8.2,1,11L632,988.2z"/>
	<path class="st9" d="M631.6,988.7l4.6,3.6c3.2,2.8,8.1,2.5,10.9-0.7l0,0l0,0l0.3-0.4l3.1-4.4c3-4.6,2-10.7-2.5-14l0,0
		c-4.1-3.6-10.4-3.4-14.2,0.6l-3.6,4c-2.7,3.3-2.3,8.2,1,11l0,0L631.6,988.7z"/>
	<path class="st10" d="M630.3,990.9l4.2,3.4c3.2,2.5,7.8,2.1,10.4-1.1l0,0l0.2-0.2l3.1-4.4c3.1-4.3,2.3-10.3-1.9-13.6l0,0
		c-4.1-3.3-10-2.8-13.5,1.1l-3.6,4c-2.7,3-2.5,7.6,0.5,10.3c0.1,0.1,0.1,0.1,0.2,0.2l0,0L630.3,990.9z"/>
	<path class="st11" d="M644.6,993.6l3.7-5.3c3.1-4.3,2.3-10.3-1.9-13.6l0,0c-4.1-3.3-10-2.8-13.5,1.1l-4.4,4.8"/>
	<path class="st5" d="M636.9,733.4l-4.6,3.7c-3.5,2.5-4.2,7.3-1.7,10.8l0,0l0.3,0.4l3.6,4c3.8,4,10,4.3,14.2,0.7l0,0
		c4.4-3.2,5.6-9.4,2.6-14l-3.1-4.4c-2.6-3.4-7.5-4-10.9-1.4L636.9,733.4z"/>
	<path class="st9" d="M636.5,732.9l-4.6,3.7c-3.5,2.5-4.2,7.3-1.7,10.8l0,0l0,0l0.3,0.4l3.6,4c3.8,4,10,4.3,14.2,0.7l0,0
		c4.4-3.2,5.6-9.4,2.6-14l-3.1-4.4c-2.6-3.4-7.5-4-10.9-1.4l0,0L636.5,732.9z"/>
	<path class="st10" d="M634.7,731.1l-4.2,3.4c-3.2,2.5-3.8,7.2-1.3,10.4l0,0l0.2,0.2l3.6,4c3.5,4,9.5,4.5,13.6,1.2l0,0
		c4.1-3.3,5-9.2,1.9-13.4l-3.1-4.4c-2.3-3.3-6.8-4.1-10.2-1.8c-0.1,0.1-0.1,0.1-0.2,0.2l0,0L634.7,731.1z"/>
	<path class="st11" d="M628.9,744.4l4.4,4.8c3.5,4,9.5,4.5,13.6,1.2l0,0c4.1-3.3,5-9.2,1.9-13.4l-3.7-5.3"/>
	<path class="st5" d="M632.3,814l4.6,3.6c3.2,2.8,8.1,2.5,10.9-0.7l0,0l0.3-0.4l3.1-4.4c3-4.6,2-10.7-2.5-14l0,0
		c-4.1-3.6-10.4-3.4-14.2,0.6l-3.6,4c-2.7,3.3-2.3,8.2,1,11L632.3,814z"/>
	<path class="st9" d="M632,814.5l4.6,3.6c3.2,2.8,8.1,2.5,10.9-0.7l0,0l0,0l0.3-0.4l3.1-4.4c3-4.6,2-10.7-2.5-14l0,0
		c-4.1-3.6-10.4-3.4-14.2,0.6l-3.6,4c-2.7,3.3-2.3,8.2,1,11l0,0L632,814.5z"/>
	<path class="st10" d="M630.6,816.7l4.2,3.4c3.2,2.5,7.8,2.1,10.4-1.1l0,0l0.2-0.2l3.1-4.4c3.1-4.3,2.3-10.3-1.9-13.6l0,0
		c-4.1-3.3-10-2.8-13.5,1.1l-3.6,4c-2.7,3-2.5,7.6,0.5,10.3c0.1,0.1,0.1,0.1,0.2,0.2l0,0L630.6,816.7z"/>
	<path class="st11" d="M644.9,819.4l3.7-5.3c3.1-4.3,2.3-10.3-1.9-13.6l0,0c-4.1-3.3-10-2.8-13.5,1.1l-4.4,4.8"/>
	<path class="st5" d="M637.7,1080.8l-4.6,3.7c-3.5,2.5-4.2,7.3-1.7,10.8l0,0l0.3,0.4l3.6,4c3.8,4,10,4.3,14.2,0.7l0,0
		c4.4-3.2,5.6-9.4,2.6-14l-3.1-4.4c-2.6-3.4-7.5-4-10.9-1.4L637.7,1080.8z"/>
	<path class="st9" d="M637.3,1080.3l-4.6,3.7c-3.5,2.5-4.2,7.3-1.7,10.8l0,0l0,0l0.3,0.4l3.6,4c3.8,4,10,4.3,14.2,0.7l0,0
		c4.4-3.2,5.6-9.4,2.6-14l-3.1-4.4c-2.6-3.4-7.5-4-10.9-1.4l0,0L637.3,1080.3z"/>
	<path class="st10" d="M635.5,1078.5l-4.2,3.4c-3.2,2.5-3.8,7.2-1.3,10.4l0,0l0.2,0.2l3.6,4c3.5,4,9.5,4.5,13.6,1.2l0,0
		c4.1-3.3,5-9.2,1.9-13.4l-3.1-4.4c-2.3-3.3-6.8-4.1-10.2-1.8c-0.1,0.1-0.1,0.1-0.2,0.2l0,0L635.5,1078.5z"/>
	<path class="st11" d="M629.6,1091.8l4.4,4.8c3.5,4,9.5,4.5,13.6,1.2l0,0c4.1-3.3,5-9.2,1.9-13.4l-3.7-5.3"/>
	<path class="st5" d="M736.9,727v-35.2h68.6v430.5h-27v-33.2c0,0,2-18.1-14.4-18.1h-28.5v-68.2h26.5c0,0,17-1.4,17-21.4v-69.6
		c0,0-2.7-13.4-17.4-13.4h-24.9v-68.6h20.9c0,0,21.3,3,21.3-19.9v-64.3c0,0,1.1-18.8-16.8-18.8S736.9,727,736.9,727z"/>
	<path class="st6" d="M736.9,724.9v-35.2h68.6v430.5h-27V1087c0,0,2-18.1-14.4-18.1h-28.5v-68.2h26.5c0,0,17-1.4,17-21.4v-69.6
		c0,0-2.7-13.4-17.4-13.4h-24.9v-68.6h20.9c0,0,21.3,3,21.3-19.9v-64.3c0,0,1.1-18.8-16.8-18.8S736.9,724.9,736.9,724.9z"/>
	<path class="st7" d="M736.9,723.4v-35.2h68.6v430.5h-27v-33.2c0,0,2-18.1-14.4-18.1h-28.5v-68.2h26.5c0,0,17-1.4,17-21.4v-69.6
		c0,0-2.7-13.4-17.4-13.4h-24.9v-68.6h20.9c0,0,21.3,3,21.3-19.9V742c0,0,1.1-18.8-16.8-18.8S736.9,723.4,736.9,723.4z"/>
	<polyline class="st8" points="736.9,691.8 805.5,691.8 805.5,1122.3 778.5,1122.3 	"/>
	<polyline class="st8" points="805.5,864.2 736.9,864.2 736.9,874.6 736.9,853.1 	"/>
	<polyline class="st8" points="805.5,1037.2 736.9,1037.2 736.9,1045.9 736.9,1027.5 	"/>
	<line class="st8" x1="805.5" y1="915.7" x2="779.1" y2="915.7"/>
	<line class="st8" x1="805.5" y1="984.7" x2="779.1" y2="984.7"/>
	<line class="st8" x1="805.5" y1="950.2" x2="779.1" y2="950.2"/>
	<line class="st8" x1="805.5" y1="1088.2" x2="779.1" y2="1088.2"/>
	<line class="st8" x1="805.5" y1="743.3" x2="779.1" y2="743.3"/>
	<line class="st8" x1="805.5" y1="779.9" x2="779.1" y2="779.9"/>
	<line class="st8" x1="805.5" y1="812.7" x2="779.1" y2="812.7"/>
	<path class="st5" d="M761.9,818.6l4.6-3.7c3.5-2.5,4.2-7.3,1.7-10.8l0,0l-0.3-0.4l-3.6-4c-3.8-4-10-4.3-14.2-0.7l0,0
		c-4.4,3.2-5.6,9.4-2.6,14l3.1,4.4c2.6,3.4,7.5,4,10.9,1.4L761.9,818.6z"/>
	<path class="st9" d="M762.3,819.1l4.6-3.7c3.5-2.5,4.2-7.3,1.7-10.8l0,0l0,0l-0.3-0.4l-3.6-4c-3.8-4-10-4.3-14.2-0.7l0,0
		c-4.4,3.2-5.6,9.4-2.6,14l3.1,4.4c2.6,3.4,7.5,4,10.9,1.4l0,0L762.3,819.1z"/>
	<path class="st10" d="M764.1,820.9l4.2-3.4c3.2-2.5,3.8-7.2,1.3-10.4l0,0l-0.2-0.2l-3.6-4c-3.5-4-9.5-4.5-13.6-1.2l0,0
		c-4.1,3.3-5,9.2-1.9,13.4l3.1,4.4c2.3,3.3,6.8,4.1,10.2,1.8c0.1-0.1,0.1-0.1,0.2-0.2l0,0L764.1,820.9z"/>
	<path class="st11" d="M770,807.6l-4.4-4.8c-3.5-4-9.5-4.5-13.6-1.2l0,0c-4.1,3.3-5,9.2-1.9,13.4l3.7,5.3"/>
	<path class="st5" d="M767.8,742l-4.6-3.6c-3.2-2.8-8.1-2.5-10.9,0.7l0,0l-0.3,0.4l-3.1,4.4c-3,4.6-2,10.7,2.5,14l0,0
		c4.1,3.6,10.4,3.4,14.2-0.6l3.6-4c2.7-3.3,2.3-8.2-1-11L767.8,742z"/>
	<path class="st9" d="M768.2,741.5l-4.6-3.6c-3.2-2.8-8.1-2.5-10.9,0.7l0,0l0,0l-0.3,0.4l-3.1,4.4c-3,4.6-2,10.7,2.5,14l0,0
		c4.1,3.6,10.4,3.4,14.2-0.6l3.6-4c2.7-3.3,2.3-8.2-1-11l0,0L768.2,741.5z"/>
	<path class="st10" d="M769.5,739.3l-4.2-3.4c-3.2-2.5-7.8-2.1-10.4,1.1l0,0l-0.2,0.2l-3.1,4.4c-3.1,4.3-2.3,10.3,1.9,13.6l0,0
		c4.1,3.3,10,2.8,13.5-1.1l3.6-4c2.7-3,2.5-7.6-0.5-10.3c-0.1-0.1-0.1-0.1-0.2-0.2l0,0L769.5,739.3z"/>
	<path class="st11" d="M755.2,736.6l-3.7,5.3c-3.1,4.3-2.3,10.3,1.9,13.6l0,0c4.1,3.3,10,2.8,13.5-1.1l4.4-4.8"/>
	<path class="st5" d="M763.2,990.4l4.6-3.7c3.5-2.5,4.2-7.3,1.7-10.8l0,0l-0.3-0.4l-3.6-4c-3.8-4-10-4.3-14.2-0.7l0,0
		c-4.4,3.2-5.6,9.4-2.6,14l3.1,4.4c2.6,3.4,7.5,4,10.9,1.4L763.2,990.4z"/>
	<path class="st9" d="M763.5,990.8l4.6-3.7c3.5-2.5,4.2-7.3,1.7-10.8l0,0l0,0l-0.3-0.4l-3.6-4c-3.8-4-10-4.3-14.2-0.7l0,0
		c-4.4,3.2-5.6,9.4-2.6,14l3.1,4.4c2.6,3.4,7.5,4,10.9,1.4l0,0L763.5,990.8z"/>
	<path class="st10" d="M765.4,992.6l4.2-3.4c3.2-2.5,3.8-7.2,1.3-10.4l0,0l-0.2-0.2l-3.6-4c-3.5-4-9.5-4.5-13.6-1.2l0,0
		c-4.1,3.3-5,9.2-1.9,13.4l3.1,4.4c2.3,3.3,6.8,4.1,10.2,1.8c0.1,0,0.1-0.1,0.2-0.1l0,0L765.4,992.6z"/>
	<path class="st11" d="M771.2,979.3l-4.4-4.8c-3.5-4-9.5-4.5-13.6-1.2l0,0c-4.1,3.3-5,9.2-1.9,13.4l3.7,5.3"/>
	<path class="st5" d="M769,913.7l-4.6-3.6c-3.2-2.8-8.1-2.5-10.9,0.7l0,0l-0.3,0.4l-3.1,4.4c-3,4.6-2,10.7,2.5,14l0,0
		c4.1,3.6,10.4,3.4,14.2-0.6l3.6-4c2.7-3.3,2.3-8.2-1-11L769,913.7z"/>
	<path class="st9" d="M769.4,913.2l-4.6-3.6c-3.2-2.8-8.1-2.5-10.9,0.7l0,0l0,0l-0.3,0.4l-3.1,4.4c-3,4.6-2,10.7,2.5,14l0,0
		c4.1,3.6,10.4,3.4,14.2-0.6l3.6-4c2.7-3.3,2.3-8.2-1-11l0,0L769.4,913.2z"/>
	<path class="st10" d="M770.7,911.1l-4.2-3.4c-3.2-2.5-7.8-2.1-10.4,1.1l0,0l-0.2,0.2l-3.1,4.4c-3.1,4.3-2.3,10.3,1.9,13.6l0,0
		c4.1,3.3,10,2.8,13.5-1.1l3.6-4c2.7-3,2.5-7.6-0.5-10.3c-0.1-0.1-0.1-0.1-0.2-0.2l0,0L770.7,911.1z"/>
	<path class="st11" d="M756.5,908.3l-3.7,5.3c-3.1,4.3-2.3,10.3,1.9,13.6l0,0c4.1,3.3,10,2.8,13.5-1.1l4.4-4.8"/>
	<path class="st5" d="M768.1,1084.8l-4.6-3.6c-3.2-2.8-8.1-2.5-10.9,0.7l0,0l-0.3,0.4l-3.1,4.4c-3,4.6-2,10.7,2.5,14l0,0
		c4.1,3.6,10.4,3.4,14.2-0.6l3.6-4c2.7-3.3,2.3-8.2-1-11L768.1,1084.8z"/>
	<path class="st9" d="M768.5,1084.4l-4.6-3.6c-3.2-2.8-8.1-2.5-10.9,0.7l0,0l0,0l-0.3,0.4l-3.1,4.4c-3,4.6-2,10.7,2.5,14l0,0
		c4.1,3.6,10.4,3.4,14.2-0.6l3.6-4c2.7-3.3,2.3-8.2-1-11l0,0L768.5,1084.4z"/>
	<path class="st10" d="M769.8,1082.2l-4.2-3.4c-3.2-2.5-7.8-2.1-10.4,1.1l0,0l-0.2,0.2l-3.1,4.4c-3.1,4.3-2.3,10.3,1.9,13.6l0,0
		c4.1,3.3,10,2.8,13.5-1.1l3.6-4c2.7-3,2.5-7.6-0.5-10.3c-0.1-0.1-0.1-0.1-0.2-0.2l0,0L769.8,1082.2z"/>
	<path class="st11" d="M755.5,1079.4l-3.7,5.3c-3.1,4.3-2.3,10.3,1.9,13.6l0,0c4.1,3.3,10,2.8,13.5-1.1l4.4-4.8"/>
	<path class="st5" d="M200,392.9l4.7,3.5c3.3,2.7,8.1,2.3,10.9-0.9l0,0l0.3-0.4l3-4.5c2.9-4.6,1.7-10.8-2.8-14l0,0
		c-4.2-3.5-10.5-3.1-14.2,0.9l-3.5,4.1c-2.6,3.4-2.1,8.3,1.3,11L200,392.9z"/>
	<path class="st9" d="M199.6,393.3l4.7,3.5c3.3,2.7,8.1,2.3,10.9-0.9l0,0l0,0l0.3-0.4l3-4.5c2.9-4.6,1.7-10.8-2.8-14l0,0
		c-4.2-3.5-10.5-3.1-14.2,0.9L198,382c-2.6,3.4-2.1,8.3,1.3,11l0,0L199.6,393.3z"/>
	<path class="st10" d="M198.3,395.5l4.3,3.3c3.2,2.5,7.9,1.9,10.4-1.3l0,0l0.2-0.2l3-4.5c3-4.4,2.1-10.3-2.2-13.5l0,0
		c-4.2-3.2-10.1-2.6-13.5,1.4l-3.5,4.1c-2.7,3-2.4,7.6,0.7,10.3c0.1,0.1,0.1,0.1,0.2,0.2l0,0L198.3,395.5z"/>
	<path class="st11" d="M212.7,398l3.5-5.4c3-4.4,2.1-10.3-2.2-13.5l0,0c-4.2-3.2-10.1-2.6-13.5,1.4l-4.3,4.9"/>
	<path class="st5" d="M204.7,315.5L200,319c-3.5,2.4-4.4,7.2-2,10.7l0,0l0.3,0.4l3.5,4.1c3.7,4.1,9.9,4.6,14.2,1.1l0,0
		c4.5-3.1,5.8-9.2,3-13.9l-3-4.5c-2.5-3.5-7.4-4.2-10.9-1.7L204.7,315.5z"/>
	<path class="st9" d="M204.4,315l-4.7,3.5c-3.5,2.4-4.4,7.2-2,10.7l0,0l0,0l0.3,0.4l3.5,4.1c3.7,4.1,9.9,4.6,14.2,1.1l0,0
		c4.5-3.1,5.8-9.2,3-13.9l-3-4.5c-2.5-3.5-7.4-4.2-10.9-1.7l0,0L204.4,315z"/>
	<path class="st10" d="M202.6,313.2l-4.3,3.3c-3.3,2.5-3.9,7.1-1.5,10.4l0,0l0.2,0.2l3.5,4.1c3.4,4.1,9.4,4.8,13.6,1.6l0,0
		c4.2-3.1,5.2-9,2.3-13.4l-3-4.5c-2.2-3.4-6.7-4.3-10.1-2.1c-0.1,0-0.1,0.1-0.2,0.1l0,0L202.6,313.2z"/>
	<path class="st11" d="M196.4,326.4l4.2,4.9c3.4,4.1,9.4,4.8,13.6,1.6l0,0c4.2-3.1,5.2-9,2.3-13.4l-3.5-5.4"/>
	<path class="st6" d="M231.8,269.6v32.7h-21.3c0,0-22.2-3.1-22.2,24.8v53.4c0,0-1,24.7,13.8,24.7H231v34.7h-69V269.6h-0.2"/>
	<path class="st6" d="M188.3,268.1"/>
	<path class="st7" d="M200.8,269.4l29.6,0.2v31.3h-21.3c0,0-22.2-3.1-22.2,24.8v53.4c0,0-1,24.7,13.8,24.7h28.9v34.6h-69l-0.2-168.8
		"/>
	<polyline class="st8" points="231.8,434.1 231.8,441.7 161.9,441.7 161.9,269.6 	"/>
	<polyline class="st8" points="161.9,269.6 231.8,269.6 231.8,269.6 231.8,304.3 	"/>
	<line class="st8" x1="161.9" y1="320.2" x2="189.6" y2="320.2"/>
	<line class="st8" x1="161.9" y1="388.8" x2="189.6" y2="388.8"/>
	<path class="st5" d="M374.6,313.4l-3.7-4.5c-2.5-3.4-7.4-4.1-10.8-1.6l0,0l-0.3,0.3l-4,3.7c-3.9,3.8-4.2,10.1-0.6,14.2l0,0
		c3.3,4.4,9.4,5.5,14,2.5l4.4-3.2c3.4-2.7,3.9-7.6,1.3-11L374.6,313.4z"/>
	<path class="st9" d="M375.1,313l-3.7-4.5c-2.5-3.4-7.4-4.1-10.8-1.6l0,0l0,0l-0.3,0.3l-4,3.7c-3.9,3.8-4.2,10.1-0.6,14.2l0,0
		c3.3,4.4,9.4,5.5,14,2.5l4.4-3.2c3.4-2.7,3.9-7.6,1.3-11l0,0L375.1,313z"/>
	<path class="st10" d="M376.9,311.1l-3.4-4.2c-2.6-3.2-7.2-3.7-10.4-1.1l0,0l-0.2,0.2l-4,3.7c-3.9,3.5-4.4,9.5-1,13.6l0,0
		c3.3,4.1,9.2,4.8,13.5,1.8l4.4-3.2c3.3-2.3,4.1-6.9,1.7-10.2c-0.1-0.1-0.1-0.1-0.2-0.2l0,0L376.9,311.1z"/>
	<path class="st11" d="M363.5,305.4l-4.7,4.4c-3.9,3.5-4.4,9.5-1,13.6l0,0c3.3,4.1,9.2,4.8,13.5,1.8l5.3-3.7"/>
	<path class="st6" d="M422.2,269.6h-87.5v26.1h29.9c0,0.1,22.4-1.3,22.4,23v21h36.3l-1.1-32.7"/>
	<path class="st7" d="M422.2,269.1h-87.5v26.1h29.9c0,0.2,22.4-1.3,22.4,23v21h37l-0.7-22.9"/>
	<polyline class="st8" points="340.3,296.2 334.7,296.2 334.7,270.1 430.9,270.1 	"/>
	<polygon class="st8" points="422,340.1 406.2,340.1 438.1,340.1 	"/>
	<path class="st8" d="M422.2,267.4L422.2,267.4z"/>
	<polyline class="st8" points="369.5,298.9 369.5,270.1 430.9,270.1 	"/>
	<path class="st8" d="M423.3,454.2L423.3,454.2z"/>
	<g id="Layer_8_copy_16">
		<path class="st12" d="M279.1,693.4l1,130.6c0,3.2-2.6,5.8-5.8,5.8h-72c-3.2,0-5.8-2.6-5.8-5.8l0,0l-1-130.6c0-3.2,2.6-5.8,5.8-5.8
			h72C276.5,687.6,279.1,690.2,279.1,693.4z"/>
		<path class="st6" d="M282.8,693.4l1,130.6c0,3.2-2.6,5.8-5.8,5.8l0,0h-72c-3.2,0-5.8-2.6-5.8-5.8l-1-130.6c0-3.2,2.6-5.8,5.8-5.8
			l0,0h72C280.2,687.6,282.8,690.2,282.8,693.4z"/>
		<g id="tables-17">
			<path class="st7" d="M285.1,756.1v-62.7c0-3.2-2.6-5.8-5.8-5.8l0,0H241v68.5H285.1z"/>
			<path class="st7" d="M241,829.8h38.3c3.2,0,5.8-2.6,5.8-5.8v-68H241V829.8z"/>
			<path class="st7" d="M241,756h-39.5v68c0,3.2,2.6,5.8,5.8,5.8H241V756z"/>
			<path class="st7" d="M241,687.6h-33.7c-3.2,0-5.8,2.6-5.8,5.8v62.7H241V687.6z"/>
		</g>
		<line class="st13" x1="285.1" y1="756.1" x2="201.5" y2="756.1"/>
		<line class="st13" x1="241" y1="687.6" x2="241" y2="829.8"/>
		<path class="st5" d="M287.9,724.9l0.2-6.1c0.1-4.6,4-8.3,8.7-8.2c0.1,0,0.3,0,0.4,0l6,0.5c5.9,0.5,10.5,5.5,10.3,11.5l0,0
			c-0.2,5.9-5,10.7-10.9,10.8l-6,0.1c-4.6,0.1-8.5-3.6-8.6-8.2L287.9,724.9z"/>
		<path class="st9" d="M288.9,724.9l0.2-6.1c0.1-4.6,4-8.3,8.7-8.2c0.1,0,0.3,0,0.4,0l6,0.5c5.9,0.5,10.4,5.5,10.3,11.5l0,0
			c-0.2,5.9-5,10.7-10.9,10.8l-6,0.1c-4.6,0.1-8.5-3.6-8.6-8.2L288.9,724.9z"/>
		<path class="st10" d="M290.1,724.8l0.2-6.1c0.1-4.6,4-8.3,8.6-8.2l0,0c0.1,0,0.3,0,0.4,0l6,0.5c5.9,0.5,10.4,5.5,10.3,11.5l0,0
			c-0.2,5.9-5,10.7-10.9,10.8l-6,0.1c-4.6,0.1-8.5-3.6-8.6-8.2V724.8z"/>
		<path class="st14" d="M298.1,710.5l7.2,0.7c5.9,0.5,10.4,5.5,10.3,11.5l0,0c-0.2,5.9-5,10.7-10.9,10.8l-7.3,0.3"/>
		<path class="st5" d="M289,790.1l0.2-6.1c0.1-4.6,4-8.3,8.6-8.2l0,0h0.4l6,0.5c5.9,0.5,10.5,5.5,10.3,11.4l0,0
			c-0.2,5.9-5,10.7-10.9,10.9l-6,0.1c-4.6,0.1-8.5-3.6-8.6-8.2V790.1z"/>
		<path class="st9" d="M290,790.1l0.2-6.1c0.1-4.6,4-8.3,8.6-8.2l0,0c0.1,0,0.3,0,0.4,0l6,0.5c5.9,0.5,10.5,5.5,10.3,11.4l0,0
			c-0.2,5.9-5,10.7-10.9,10.9l-6,0.1c-4.6,0.1-8.5-3.6-8.6-8.2l0,0V790.1z"/>
		<path class="st10" d="M291.1,790l0.2-6.1c0.1-4.6,4-8.3,8.6-8.2l0,0c0.1,0,0.3,0,0.4,0l6,0.5c5.9,0.5,10.5,5.5,10.3,11.4l0,0
			c-0.2,5.9-5,10.7-10.9,10.9l-6,0.1c-4.6,0.1-8.5-3.6-8.6-8.2V790z"/>
		<path class="st14" d="M299.1,775.6l7.2,0.7c5.9,0.5,10.5,5.5,10.3,11.4l0,0c-0.2,5.9-5,10.7-10.9,10.9l-7.3,0.3"/>
		<path class="st5" d="M187.2,724v-6.6c0.2-4.8-3.5-8.9-8.3-9.2h-0.4l-6,0.3c-6.2,0.6-10.9,5.9-10.7,12.1l0,0
			c-0.3,6.2,4.3,11.6,10.5,12.2l6,0.4c4.8,0.1,8.8-3.8,8.9-8.6l0,0V724L187.2,724z"/>
		<path class="st9" d="M188,724v-6.6c0.2-4.8-3.5-8.9-8.3-9.2h-0.5l-6,0.3c-6.2,0.6-10.9,5.8-10.7,12.1l0,0
			c-0.3,6.2,4.3,11.6,10.5,12.2l6,0.4c4.8,0.1,8.8-3.8,8.9-8.6l0,0L188,724L188,724z"/>
		<path class="st10" d="M190.8,723.8v-6.1c0-4.6-3.7-8.4-8.4-8.4l0,0H182l-6,0.3c-5.9,0.3-10.6,5.1-10.7,11.1l0,0
			c0,5.9,4.6,10.9,10.5,11.2l6,0.3c4.6,0.2,8.6-3.3,8.9-7.9l0,0L190.8,723.8z"/>
		<path class="st14" d="M183.3,709.2l-7.3,0.5c-5.9,0.3-10.6,5.1-10.7,11.1l0,0c0,6,4.6,10.9,10.6,11.2l7.3,0.6"/>
		<path class="st5" d="M188.2,790.2v-6.6c0.2-4.8-3.5-8.9-8.3-9.2h-0.4l-6,0.3c-6.2,0.6-10.9,5.8-10.7,12.1l0,0
			c-0.3,6.2,4.3,11.6,10.5,12.2l6,0.4c4.8,0.1,8.8-3.8,8.9-8.6l0,0C188.3,790.5,188.3,790.3,188.2,790.2z"/>
		<path class="st9" d="M189,790.2v-6.6c0.2-4.8-3.5-8.9-8.3-9.2h-0.4l-6,0.3c-6.2,0.6-10.9,5.8-10.7,12.1l0,0
			c-0.3,6.2,4.4,11.6,10.5,12.2l6,0.4c4.8,0.1,8.8-3.8,8.9-8.6V790.2L189,790.2z"/>
		<path class="st10" d="M191.8,790v-6.1c0-4.6-3.7-8.4-8.4-8.5l0,0H183l-6,0.3c-5.9,0.3-10.6,5.1-10.7,11.1l0,0
			c0,5.9,4.6,10.9,10.5,11.2l6,0.3c4.6,0.2,8.6-3.3,8.9-7.9L191.8,790z"/>
		<path class="st14" d="M184.3,775.3l-7.3,0.5c-5.9,0.3-10.6,5.1-10.7,11.1l0,0c0,5.9,4.6,10.9,10.5,11.2l7.3,0.6"/>
	</g>
	<g id="Layer_8_copy_16_1_">
		<path class="st12" d="M451.9,693.4l1,130.6c0,3.2-2.6,5.8-5.8,5.8h-72c-3.2,0-5.8-2.6-5.8-5.8l0,0l-1-130.6c0-3.2,2.6-5.8,5.8-5.8
			h72C449.3,687.6,451.9,690.2,451.9,693.4z"/>
		<path class="st6" d="M455.5,693.4l1,130.6c0,3.2-2.6,5.8-5.8,5.8l0,0h-72c-3.2,0-5.8-2.6-5.8-5.8l-1-130.6c0-3.2,2.6-5.8,5.8-5.8
			l0,0h72C452.9,687.6,455.5,690.2,455.5,693.4z"/>
		<g id="tables-17_1_">
			<path class="st7" d="M457.8,756.1v-62.7c0-3.2-2.6-5.8-5.8-5.8l0,0h-38.3v68.5H457.8z"/>
			<path class="st7" d="M413.7,829.8H452c3.2,0,5.8-2.6,5.8-5.8v-68h-44.1L413.7,829.8z"/>
			<path class="st7" d="M413.7,756h-39.5v68c0,3.2,2.6,5.8,5.8,5.8h33.7V756z"/>
			<path class="st7" d="M413.7,687.6H380c-3.2,0-5.8,2.6-5.8,5.8v62.7h39.5V687.6z"/>
		</g>
		<line class="st13" x1="457.8" y1="756.1" x2="374.2" y2="756.1"/>
		<line class="st13" x1="413.7" y1="687.6" x2="413.7" y2="829.8"/>
		<path class="st5" d="M460.7,724.9l0.2-6.1c0.1-4.6,4-8.3,8.7-8.2c0.1,0,0.3,0,0.4,0l6,0.5c5.9,0.5,10.5,5.5,10.3,11.5l0,0
			c-0.2,5.9-5,10.7-10.9,10.8l-6,0.1c-4.6,0.1-8.5-3.6-8.6-8.2L460.7,724.9z"/>
		<path class="st9" d="M461.6,724.9l0.2-6.1c0.1-4.6,4-8.3,8.7-8.2c0.1,0,0.3,0,0.4,0l6,0.5c5.9,0.5,10.4,5.5,10.3,11.5l0,0
			c-0.2,5.9-5,10.7-10.9,10.8l-6,0.1c-4.6,0.1-8.5-3.6-8.6-8.2L461.6,724.9z"/>
		<path class="st10" d="M462.8,724.8l0.2-6.1c0.1-4.6,4-8.3,8.6-8.2l0,0c0.1,0,0.3,0,0.4,0l6,0.5c5.9,0.5,10.4,5.5,10.3,11.5l0,0
			c-0.2,5.9-5,10.7-10.9,10.8l-6,0.1c-4.6,0.1-8.5-3.6-8.6-8.2V724.8z"/>
		<path class="st14" d="M470.8,710.5l7.2,0.7c5.9,0.5,10.4,5.5,10.3,11.5l0,0c-0.2,5.9-5,10.7-10.9,10.8l-7.3,0.3"/>
		<path class="st5" d="M461.7,790.1l0.2-6.1c0.1-4.6,4-8.3,8.6-8.2l0,0h0.4l6,0.5c5.9,0.5,10.5,5.5,10.3,11.4l0,0
			c-0.2,5.9-5,10.7-10.9,10.9l-6,0.1c-4.6,0.1-8.5-3.6-8.6-8.2V790.1z"/>
		<path class="st9" d="M462.7,790.1l0.2-6.1c0.1-4.6,4-8.3,8.6-8.2l0,0c0.1,0,0.3,0,0.4,0l6,0.5c5.9,0.5,10.5,5.5,10.3,11.4l0,0
			c-0.2,5.9-5,10.7-10.9,10.9l-6,0.1c-4.6,0.1-8.5-3.6-8.6-8.2l0,0V790.1z"/>
		<path class="st10" d="M463.9,790l0.2-6.1c0.1-4.6,4-8.3,8.6-8.2l0,0c0.1,0,0.3,0,0.4,0l6,0.5c5.9,0.5,10.5,5.5,10.3,11.4l0,0
			c-0.2,5.9-5,10.7-10.9,10.9l-6,0.1c-4.6,0.1-8.5-3.6-8.6-8.2V790z"/>
		<path class="st14" d="M471.8,775.6l7.2,0.7c5.9,0.5,10.5,5.5,10.3,11.4l0,0c-0.2,5.9-5,10.7-10.9,10.9l-7.3,0.3"/>
		<path class="st5" d="M360,724v-6.6c0.2-4.8-3.5-8.9-8.3-9.2h-0.4l-6,0.3c-6.2,0.6-10.9,5.9-10.7,12.1l0,0
			c-0.3,6.2,4.3,11.6,10.5,12.2l6,0.4c4.8,0.1,8.8-3.8,8.9-8.6l0,0V724L360,724z"/>
		<path class="st9" d="M360.8,724v-6.6c0.2-4.8-3.5-8.9-8.3-9.2H352l-6,0.3c-6.2,0.6-10.9,5.8-10.7,12.1l0,0
			c-0.3,6.2,4.3,11.6,10.5,12.2l6,0.4c4.8,0.1,8.8-3.8,8.9-8.6l0,0L360.8,724L360.8,724z"/>
		<path class="st10" d="M363.5,723.8v-6.1c0-4.6-3.7-8.4-8.4-8.4l0,0h-0.4l-6,0.3c-5.9,0.3-10.6,5.1-10.7,11.1l0,0
			c0,5.9,4.6,10.9,10.5,11.2l6,0.3c4.6,0.2,8.6-3.3,8.9-7.9l0,0L363.5,723.8z"/>
		<path class="st14" d="M356,709.2l-7.3,0.5c-5.9,0.3-10.6,5.1-10.7,11.1l0,0c0,6,4.6,10.9,10.6,11.2l7.3,0.6"/>
		<path class="st5" d="M361,790.2v-6.6c0.2-4.8-3.5-8.9-8.3-9.2h-0.4l-6,0.3c-6.2,0.6-10.9,5.8-10.7,12.1l0,0
			c-0.3,6.2,4.3,11.6,10.5,12.2l6,0.4c4.8,0.1,8.8-3.8,8.9-8.6l0,0C361,790.5,361,790.3,361,790.2z"/>
		<path class="st9" d="M361.8,790.2v-6.6c0.2-4.8-3.5-8.9-8.3-9.2H353l-6,0.3c-6.2,0.6-10.9,5.8-10.7,12.1l0,0
			c-0.3,6.2,4.4,11.6,10.5,12.2l6,0.4c4.8,0.1,8.8-3.8,8.9-8.6L361.8,790.2L361.8,790.2z"/>
		<path class="st10" d="M364.5,790v-6.1c0-4.6-3.7-8.4-8.4-8.5l0,0h-0.4l-6,0.3c-5.9,0.3-10.6,5.1-10.7,11.1l0,0
			c0,5.9,4.6,10.9,10.5,11.2l6,0.3c4.6,0.2,8.6-3.3,8.9-7.9L364.5,790z"/>
		<path class="st14" d="M357,775.3l-7.3,0.5c-5.9,0.3-10.6,5.1-10.7,11.1l0,0c0,5.9,4.6,10.9,10.5,11.2l7.3,0.6"/>
		<path class="st12" d="M969.7,705.3l1.3,399.2c0,9.8-3.4,17.7-7.6,17.7h-94.2c-4.2,0-7.6-7.9-7.6-17.7l0,0l-1.3-399.2
			c0-9.8,3.4-17.7,7.6-17.7h94.2C966.3,687.6,969.7,695.5,969.7,705.3z"/>
		<path class="st6" d="M974.5,705.3l1.3,399.2c0,9.8-3.4,17.7-7.6,17.7l0,0H874c-4.2,0-7.6-7.9-7.6-17.6l-1.3-399.2
			c0-9.8,3.4-17.7,7.6-17.7l0,0h94.2C971.1,687.7,974.5,695.5,974.5,705.3z"/>
		<g id="tables-17_4_">
			<path class="st7" d="M977.5,897.1V705.3c0-9.8-3.4-17.7-7.6-17.7l0,0h-50.1v209.5H977.5z"/>
			<path class="st7" d="M919.8,1122.2h50.1c4.2,0,7.6-7.9,7.6-17.6V896.8h-57.7L919.8,1122.2z"/>
			<path class="st7" d="M919.8,896.8h-51.7v207.8c0,9.8,3.4,17.7,7.6,17.7h44.1L919.8,896.8L919.8,896.8z"/>
			<path class="st7" d="M919.8,687.6h-44.1c-4.2,0-7.6,7.9-7.6,17.7V897h51.7L919.8,687.6L919.8,687.6z"/>
		</g>
	</g>
	<g id="Layer_8_copy_16_3_">
		<path class="st12" d="M279.1,993.7l1,130.6c0,3.2-2.6,5.8-5.8,5.8h-72c-3.2,0-5.8-2.6-5.8-5.8l0,0l-1-130.6c0-3.2,2.6-5.8,5.8-5.8
			h72C276.5,987.9,279.1,990.5,279.1,993.7z"/>
		<path class="st6" d="M282.8,993.7l1,130.6c0,3.2-2.6,5.8-5.8,5.8l0,0h-72c-3.2,0-5.8-2.6-5.8-5.8l-1-130.6c0-3.2,2.6-5.8,5.8-5.8
			l0,0h72C280.2,987.9,282.8,990.5,282.8,993.7z"/>
		<g id="tables-17_3_">
			<path class="st7" d="M285.1,1056.4v-62.7c0-3.2-2.6-5.8-5.8-5.8l0,0H241v68.5H285.1z"/>
			<path class="st7" d="M241,1130.1h38.3c3.2,0,5.8-2.6,5.8-5.8v-68H241V1130.1z"/>
			<path class="st7" d="M241,1056.3h-39.5v68c0,3.2,2.6,5.8,5.8,5.8H241V1056.3z"/>
			<path class="st7" d="M241,987.9h-33.7c-3.2,0-5.8,2.6-5.8,5.8v62.7H241V987.9z"/>
		</g>
		<line class="st13" x1="285.1" y1="1056.4" x2="201.5" y2="1056.4"/>
		<line class="st13" x1="241" y1="987.9" x2="241" y2="1130.1"/>
		<path class="st5" d="M287.9,1025.2l0.2-6.1c0.1-4.6,4-8.3,8.7-8.2c0.1,0,0.3,0,0.4,0l6,0.5c5.9,0.5,10.5,5.5,10.3,11.5l0,0
			c-0.2,5.9-5,10.7-10.9,10.8l-6,0.1c-4.6,0.1-8.5-3.6-8.6-8.2L287.9,1025.2z"/>
		<path class="st9" d="M288.9,1025.2l0.2-6.1c0.1-4.6,4-8.3,8.7-8.2c0.1,0,0.3,0,0.4,0l6,0.5c5.9,0.5,10.4,5.5,10.3,11.5l0,0
			c-0.2,5.9-5,10.7-10.9,10.8l-6,0.1c-4.6,0.1-8.5-3.6-8.6-8.2L288.9,1025.2z"/>
		<path class="st10" d="M290.1,1025.1l0.2-6.1c0.1-4.6,4-8.3,8.6-8.2l0,0c0.1,0,0.3,0,0.4,0l6,0.5c5.9,0.5,10.4,5.5,10.3,11.5l0,0
			c-0.2,5.9-5,10.7-10.9,10.8l-6,0.1c-4.6,0.1-8.5-3.6-8.6-8.2V1025.1z"/>
		<path class="st14" d="M298.1,1010.7l7.2,0.7c5.9,0.5,10.4,5.5,10.3,11.5l0,0c-0.2,5.9-5,10.7-10.9,10.8l-7.3,0.3"/>
		<path class="st5" d="M289,1090.3l0.2-6.1c0.1-4.6,4-8.3,8.6-8.2l0,0h0.4l6,0.5c5.9,0.5,10.5,5.5,10.3,11.4l0,0
			c-0.2,5.9-5,10.7-10.9,10.9l-6,0.1c-4.6,0.1-8.5-3.6-8.6-8.2V1090.3z"/>
		<path class="st9" d="M290,1090.4l0.2-6.1c0.1-4.6,4-8.3,8.6-8.2l0,0c0.1,0,0.3,0,0.4,0l6,0.5c5.9,0.5,10.5,5.5,10.3,11.4l0,0
			c-0.2,5.9-5,10.7-10.9,10.9l-6,0.1c-4.6,0.1-8.5-3.6-8.6-8.2l0,0V1090.4z"/>
		<path class="st10" d="M291.1,1090.3l0.2-6.1c0.1-4.6,4-8.3,8.6-8.2l0,0c0.1,0,0.3,0,0.4,0l6,0.5c5.9,0.5,10.5,5.5,10.3,11.4l0,0
			c-0.2,5.9-5,10.7-10.9,10.9l-6,0.1c-4.6,0.1-8.5-3.6-8.6-8.2V1090.3z"/>
		<path class="st14" d="M299.1,1075.9l7.2,0.7c5.9,0.5,10.5,5.5,10.3,11.4l0,0c-0.2,5.9-5,10.7-10.9,10.9l-7.3,0.3"/>
		<path class="st5" d="M187.2,1024.3v-6.6c0.2-4.8-3.5-8.9-8.3-9.2h-0.4l-6,0.3c-6.2,0.6-10.9,5.9-10.7,12.1l0,0
			c-0.3,6.2,4.3,11.6,10.5,12.2l6,0.4c4.8,0.1,8.8-3.8,8.9-8.6l0,0V1024.3L187.2,1024.3z"/>
		<path class="st9" d="M188,1024.3v-6.6c0.2-4.8-3.5-8.9-8.3-9.2h-0.5l-6,0.3c-6.2,0.6-10.9,5.8-10.7,12.1l0,0
			c-0.3,6.2,4.3,11.6,10.5,12.2l6,0.4c4.8,0.1,8.8-3.8,8.9-8.6l0,0L188,1024.3L188,1024.3z"/>
		<path class="st10" d="M190.8,1024.1v-6.1c0-4.6-3.7-8.4-8.4-8.4l0,0H182l-6,0.3c-5.9,0.3-10.6,5.1-10.7,11.1l0,0
			c0,5.9,4.6,10.9,10.5,11.2l6,0.3c4.6,0.2,8.6-3.3,8.9-7.9l0,0L190.8,1024.1z"/>
		<path class="st14" d="M183.3,1009.5l-7.3,0.5c-5.9,0.3-10.6,5.1-10.7,11.1l0,0c0,6,4.6,10.9,10.6,11.2l7.3,0.6"/>
		<path class="st5" d="M188.2,1090.5v-6.6c0.2-4.8-3.5-8.9-8.3-9.2h-0.4l-6,0.3c-6.2,0.6-10.9,5.8-10.7,12.1l0,0
			c-0.3,6.2,4.3,11.6,10.5,12.2l6,0.4c4.8,0.1,8.8-3.8,8.9-8.6l0,0C188.3,1090.7,188.3,1090.6,188.2,1090.5z"/>
		<path class="st9" d="M189,1090.5v-6.6c0.2-4.8-3.5-8.9-8.3-9.2h-0.4l-6,0.3c-6.2,0.6-10.9,5.8-10.7,12.1l0,0
			c-0.3,6.2,4.4,11.6,10.5,12.2l6,0.4c4.8,0.1,8.8-3.8,8.9-8.6V1090.5L189,1090.5z"/>
		<path class="st10" d="M191.8,1090.3v-6.1c0-4.6-3.7-8.4-8.4-8.5l0,0H183l-6,0.3c-5.9,0.3-10.6,5.1-10.7,11.1l0,0
			c0,5.9,4.6,10.9,10.5,11.2l6,0.3c4.6,0.2,8.6-3.3,8.9-7.9L191.8,1090.3z"/>
		<path class="st14" d="M184.3,1075.6l-7.3,0.5c-5.9,0.3-10.6,5.1-10.7,11.1l0,0c0,5.9,4.6,10.9,10.5,11.2l7.3,0.6"/>
	</g>
	<g id="Layer_8_copy_16_2_">
		<path class="st12" d="M451.9,993.7l1,130.6c0,3.2-2.6,5.8-5.8,5.8h-72c-3.2,0-5.8-2.6-5.8-5.8l0,0l-1-130.6c0-3.2,2.6-5.8,5.8-5.8
			h72C449.3,987.9,451.9,990.5,451.9,993.7z"/>
		<path class="st6" d="M455.5,993.7l1,130.6c0,3.2-2.6,5.8-5.8,5.8l0,0h-72c-3.2,0-5.8-2.6-5.8-5.8l-1-130.6c0-3.2,2.6-5.8,5.8-5.8
			l0,0h72C452.9,987.9,455.5,990.5,455.5,993.7z"/>
		<g id="tables-17_2_">
			<path class="st7" d="M457.8,1056.4v-62.7c0-3.2-2.6-5.8-5.8-5.8l0,0h-38.3v68.5H457.8z"/>
			<path class="st7" d="M413.7,1130.1H452c3.2,0,5.8-2.6,5.8-5.8v-68h-44.1L413.7,1130.1z"/>
			<path class="st7" d="M413.7,1056.3h-39.5v68c0,3.2,2.6,5.8,5.8,5.8h33.7V1056.3z"/>
			<path class="st7" d="M413.7,987.9H380c-3.2,0-5.8,2.6-5.8,5.8v62.7h39.5V987.9z"/>
		</g>
		<line class="st13" x1="457.8" y1="1056.4" x2="374.2" y2="1056.4"/>
		<line class="st13" x1="413.7" y1="987.9" x2="413.7" y2="1130.1"/>
		<path class="st5" d="M460.7,1025.2l0.2-6.1c0.1-4.6,4-8.3,8.7-8.2c0.1,0,0.3,0,0.4,0l6,0.5c5.9,0.5,10.5,5.5,10.3,11.5l0,0
			c-0.2,5.9-5,10.7-10.9,10.8l-6,0.1c-4.6,0.1-8.5-3.6-8.6-8.2L460.7,1025.2z"/>
		<path class="st9" d="M461.6,1025.2l0.2-6.1c0.1-4.6,4-8.3,8.7-8.2c0.1,0,0.3,0,0.4,0l6,0.5c5.9,0.5,10.4,5.5,10.3,11.5l0,0
			c-0.2,5.9-5,10.7-10.9,10.8l-6,0.1c-4.6,0.1-8.5-3.6-8.6-8.2L461.6,1025.2z"/>
		<path class="st10" d="M462.8,1025.1l0.2-6.1c0.1-4.6,4-8.3,8.6-8.2l0,0c0.1,0,0.3,0,0.4,0l6,0.5c5.9,0.5,10.4,5.5,10.3,11.5l0,0
			c-0.2,5.9-5,10.7-10.9,10.8l-6,0.1c-4.6,0.1-8.5-3.6-8.6-8.2V1025.1z"/>
		<path class="st14" d="M470.8,1010.7l7.2,0.7c5.9,0.5,10.4,5.5,10.3,11.5l0,0c-0.2,5.9-5,10.7-10.9,10.8l-7.3,0.3"/>
		<path class="st5" d="M461.7,1090.3l0.2-6.1c0.1-4.6,4-8.3,8.6-8.2l0,0h0.4l6,0.5c5.9,0.5,10.5,5.5,10.3,11.4l0,0
			c-0.2,5.9-5,10.7-10.9,10.9l-6,0.1c-4.6,0.1-8.5-3.6-8.6-8.2V1090.3z"/>
		<path class="st9" d="M462.7,1090.4l0.2-6.1c0.1-4.6,4-8.3,8.6-8.2l0,0c0.1,0,0.3,0,0.4,0l6,0.5c5.9,0.5,10.5,5.5,10.3,11.4l0,0
			c-0.2,5.9-5,10.7-10.9,10.9l-6,0.1c-4.6,0.1-8.5-3.6-8.6-8.2l0,0V1090.4z"/>
		<path class="st10" d="M463.9,1090.3l0.2-6.1c0.1-4.6,4-8.3,8.6-8.2l0,0c0.1,0,0.3,0,0.4,0l6,0.5c5.9,0.5,10.5,5.5,10.3,11.4l0,0
			c-0.2,5.9-5,10.7-10.9,10.9l-6,0.1c-4.6,0.1-8.5-3.6-8.6-8.2V1090.3z"/>
		<path class="st14" d="M471.8,1075.9l7.2,0.7c5.9,0.5,10.5,5.5,10.3,11.4l0,0c-0.2,5.9-5,10.7-10.9,10.9l-7.3,0.3"/>
		<path class="st5" d="M360,1024.3v-6.6c0.2-4.8-3.5-8.9-8.3-9.2h-0.4l-6,0.3c-6.2,0.6-10.9,5.9-10.7,12.1l0,0
			c-0.3,6.2,4.3,11.6,10.5,12.2l6,0.4c4.8,0.1,8.8-3.8,8.9-8.6l0,0V1024.3L360,1024.3z"/>
		<path class="st9" d="M360.8,1024.3v-6.6c0.2-4.8-3.5-8.9-8.3-9.2H352l-6,0.3c-6.2,0.6-10.9,5.8-10.7,12.1l0,0
			c-0.3,6.2,4.3,11.6,10.5,12.2l6,0.4c4.8,0.1,8.8-3.8,8.9-8.6l0,0L360.8,1024.3L360.8,1024.3z"/>
		<path class="st10" d="M363.5,1024.1v-6.1c0-4.6-3.7-8.4-8.4-8.4l0,0h-0.4l-6,0.3c-5.9,0.3-10.6,5.1-10.7,11.1l0,0
			c0,5.9,4.6,10.9,10.5,11.2l6,0.3c4.6,0.2,8.6-3.3,8.9-7.9l0,0L363.5,1024.1z"/>
		<path class="st14" d="M356,1009.5l-7.3,0.5c-5.9,0.3-10.6,5.1-10.7,11.1l0,0c0,6,4.6,10.9,10.6,11.2l7.3,0.6"/>
		<path class="st5" d="M361,1090.5v-6.6c0.2-4.8-3.5-8.9-8.3-9.2h-0.4l-6,0.3c-6.2,0.6-10.9,5.8-10.7,12.1l0,0
			c-0.3,6.2,4.3,11.6,10.5,12.2l6,0.4c4.8,0.1,8.8-3.8,8.9-8.6l0,0C361,1090.7,361,1090.6,361,1090.5z"/>
		<path class="st9" d="M361.8,1090.5v-6.6c0.2-4.8-3.5-8.9-8.3-9.2H353l-6,0.3c-6.2,0.6-10.9,5.8-10.7,12.1l0,0
			c-0.3,6.2,4.4,11.6,10.5,12.2l6,0.4c4.8,0.1,8.8-3.8,8.9-8.6L361.8,1090.5L361.8,1090.5z"/>
		<path class="st10" d="M364.5,1090.3v-6.1c0-4.6-3.7-8.4-8.4-8.5l0,0h-0.4l-6,0.3c-5.9,0.3-10.6,5.1-10.7,11.1l0,0
			c0,5.9,4.6,10.9,10.5,11.2l6,0.3c4.6,0.2,8.6-3.3,8.9-7.9L364.5,1090.3z"/>
		<path class="st14" d="M357,1075.6l-7.3,0.5c-5.9,0.3-10.6,5.1-10.7,11.1l0,0c0,5.9,4.6,10.9,10.5,11.2l7.3,0.6"/>
	</g>
	<line class="st8" x1="423.3" y1="339.7" x2="423.3" y2="270.1"/>
</g>
<g id="bookable">
	<rect id="area-02.203-status" x="460" y="456.2" class="st15" width="137.8" height="142.8"/>
	<rect id="area-02.202-status" x="686.3" y="455.4" class="st15" width="142.7" height="147.8"/>
	<rect id="area-02.204-status" x="316.4" y="456.2" class="st15" width="143.6" height="142.8"/>
	<rect id="area-02.201-status" x="829" y="456.2" class="st15" width="135.1" height="147"/>
	<g class="st16">
		<path class="st7" d="M368.8,532.1v-8.6h1.7l3.5,5.7v-5.7h1.6v8.6h-1.7l-3.5-5.6v5.6H368.8z"/>
		<path class="st7" d="M377.1,528.8c0-0.5,0.1-1.1,0.4-1.6s0.7-0.9,1.1-1.2s1-0.4,1.7-0.4c0.9,0,1.7,0.3,2.3,0.9
			c0.6,0.6,0.9,1.4,0.9,2.3c0,0.9-0.3,1.7-0.9,2.3s-1.4,0.9-2.3,0.9c-0.6,0-1.1-0.1-1.6-0.4s-0.9-0.6-1.2-1.1
			S377.1,529.6,377.1,528.8z M378.8,529c0,0.6,0.1,1.1,0.4,1.4c0.3,0.3,0.7,0.5,1.1,0.5s0.8-0.2,1.1-0.5c0.3-0.3,0.4-0.8,0.4-1.4
			c0-0.6-0.1-1.1-0.4-1.4c-0.3-0.3-0.7-0.5-1.1-0.5s-0.8,0.2-1.1,0.5C378.9,527.9,378.8,528.2,378.8,529z"/>
		<path class="st7" d="M384.4,528.8c0-0.5,0.1-1.1,0.4-1.6s0.7-0.9,1.1-1.2s1-0.4,1.7-0.4c0.9,0,1.7,0.3,2.3,0.9
			c0.6,0.6,0.9,1.4,0.9,2.3c0,0.9-0.3,1.7-0.9,2.3s-1.4,0.9-2.3,0.9c-0.6,0-1.1-0.1-1.6-0.4s-0.9-0.6-1.2-1.1
			S384.4,529.6,384.4,528.8z M386.1,529c0,0.6,0.1,1.1,0.4,1.4c0.3,0.3,0.7,0.5,1.1,0.5s0.8-0.2,1.1-0.5c0.3-0.3,0.4-0.8,0.4-1.4
			c0-0.6-0.1-1.1-0.4-1.4c-0.3-0.3-0.7-0.5-1.1-0.5s-0.8,0.2-1.1,0.5C386.2,527.9,386.1,528.2,386.1,529z"/>
		<path class="st7" d="M392.1,532.1v-8.6h1.6v4.6l1.9-2.2h2l-2.1,2.3l2.3,3.9H396l-1.6-2.8l-0.8,0.8v2H392.1z"/>
		<path class="st7" d="M405,532.1v-1.7h-3.5V529l3.7-5.5h1.4v5.4h1.1v1.4h-1.1v1.7L405,532.1L405,532.1z M405,528.8V526l-2,2.9h2
			V528.8z"/>
	</g>
	<g class="st16">
		<path class="st7" d="M516.8,532.2v-8.6h1.7l3.5,5.7v-5.7h1.6v8.6h-1.7l-3.5-5.6v5.6H516.8z"/>
		<path class="st7" d="M525,529c0-0.5,0.1-1.1,0.4-1.6s0.7-0.9,1.1-1.2c0.4-0.3,1-0.4,1.7-0.4c0.9,0,1.7,0.3,2.3,0.9
			c0.6,0.6,0.9,1.4,0.9,2.3c0,0.9-0.3,1.7-0.9,2.3s-1.4,0.9-2.3,0.9c-0.6,0-1.1-0.1-1.6-0.4s-0.9-0.6-1.2-1.1S525,529.7,525,529z
			 M526.7,529c0,0.6,0.1,1.1,0.4,1.4s0.7,0.5,1.1,0.5s0.8-0.2,1.1-0.5s0.4-0.8,0.4-1.4c0-0.6-0.1-1.1-0.4-1.4s-0.7-0.5-1.1-0.5
			s-0.8,0.2-1.1,0.5C526.8,528,526.7,528.3,526.7,529z"/>
		<path class="st7" d="M532.4,529c0-0.5,0.1-1.1,0.4-1.6s0.7-0.9,1.1-1.2c0.4-0.3,1-0.4,1.7-0.4c0.9,0,1.7,0.3,2.3,0.9
			c0.6,0.6,0.9,1.4,0.9,2.3c0,0.9-0.3,1.7-0.9,2.3s-1.4,0.9-2.3,0.9c-0.6,0-1.1-0.1-1.6-0.4s-0.9-0.6-1.2-1.1S532.4,529.7,532.4,529
			z M534,529c0,0.6,0.1,1.1,0.4,1.4s0.7,0.5,1.1,0.5s0.8-0.2,1.1-0.5s0.4-0.8,0.4-1.4c0-0.6-0.1-1.1-0.4-1.4s-0.7-0.5-1.1-0.5
			s-0.8,0.2-1.1,0.5C534.1,528,534,528.3,534,529z"/>
		<path class="st7" d="M540,532.2v-8.6h1.6v4.6l1.9-2.2h2l-2.1,2.3l2.3,3.9h-1.8l-1.6-2.8l-0.8,0.8v2H540z"/>
		<path class="st7" d="M549.7,529.8l1.6-0.2c0.1,0.4,0.2,0.7,0.4,0.9s0.5,0.3,0.8,0.3s0.6-0.1,0.9-0.4s0.3-0.6,0.3-1s-0.1-0.7-0.3-1
			s-0.5-0.4-0.8-0.4c-0.2,0-0.5,0-0.8,0.1l0.2-1.3c0.4,0,0.8-0.1,1-0.3s0.4-0.5,0.4-0.8s-0.1-0.5-0.3-0.7s-0.4-0.3-0.7-0.3
			s-0.5,0.1-0.7,0.3s-0.3,0.5-0.4,0.9l-1.5-0.3c0.1-0.5,0.3-0.9,0.5-1.2s0.5-0.6,0.9-0.7s0.8-0.3,1.3-0.3c0.8,0,1.5,0.3,1.9,0.8
			c0.4,0.4,0.6,0.9,0.6,1.4c0,0.8-0.4,1.4-1.2,1.8c0.5,0.1,0.9,0.3,1.2,0.7s0.4,0.8,0.4,1.3c0,0.8-0.3,1.4-0.8,1.9s-1.2,0.8-2.1,0.8
			c-0.8,0-1.4-0.2-1.9-0.7S549.7,530.5,549.7,529.8z"/>
	</g>
	<g class="st16">
		<path class="st7" d="M739.8,532.1v-8.6h1.7l3.5,5.7v-5.7h1.6v8.6h-1.7l-3.5-5.6v5.6H739.8z"/>
		<path class="st7" d="M748,528.9c0-0.5,0.1-1.1,0.4-1.6s0.7-0.9,1.1-1.2s1-0.4,1.7-0.4c0.9,0,1.7,0.3,2.3,0.9s0.9,1.4,0.9,2.3
			c0,0.9-0.3,1.7-0.9,2.3s-1.4,0.9-2.3,0.9c-0.6,0-1.1-0.1-1.6-0.4s-0.9-0.6-1.2-1.1S748,529.6,748,528.9z M749.7,529
			c0,0.6,0.1,1.1,0.4,1.4s0.7,0.5,1.1,0.5s0.8-0.2,1.1-0.5s0.4-0.8,0.4-1.4c0-0.6-0.1-1.1-0.4-1.4s-0.7-0.5-1.1-0.5
			s-0.8,0.2-1.1,0.5S749.7,528.4,749.7,529z"/>
		<path class="st7" d="M755.4,528.9c0-0.5,0.1-1.1,0.4-1.6s0.7-0.9,1.1-1.2s1-0.4,1.7-0.4c0.9,0,1.7,0.3,2.3,0.9s0.9,1.4,0.9,2.3
			c0,0.9-0.3,1.7-0.9,2.3s-1.4,0.9-2.3,0.9c-0.6,0-1.1-0.1-1.6-0.4s-0.9-0.6-1.2-1.1S755.4,529.6,755.4,528.9z M757.1,529
			c0,0.6,0.1,1.1,0.4,1.4s0.7,0.5,1.1,0.5s0.8-0.2,1.1-0.5s0.4-0.8,0.4-1.4c0-0.6-0.1-1.1-0.4-1.4s-0.7-0.5-1.1-0.5
			s-0.8,0.2-1.1,0.5S757.1,528.4,757.1,529z"/>
		<path class="st7" d="M763,532.1v-8.6h1.6v4.6l1.9-2.2h2l-2.1,2.3l2.3,3.9h-1.8l-1.6-2.8l-0.8,0.8v2H763z"/>
		<path class="st7" d="M778.3,530.6v1.5h-5.8c0.1-0.6,0.2-1.1,0.6-1.6s0.9-1.2,1.9-2.1c0.7-0.7,1.2-1.2,1.4-1.4
			c0.2-0.3,0.3-0.7,0.3-1c0-0.4-0.1-0.6-0.3-0.8s-0.5-0.3-0.8-0.3s-0.6,0.1-0.8,0.3s-0.3,0.6-0.4,1l-1.6-0.2c0.1-0.9,0.4-1.6,0.9-2
			s1.2-0.6,1.9-0.6c0.8,0,1.5,0.2,2,0.7s0.7,1,0.7,1.7c0,0.4-0.1,0.8-0.2,1.1s-0.4,0.7-0.7,1.1c-0.2,0.3-0.6,0.6-1.1,1.1
			s-0.8,0.8-1,0.9s-0.3,0.3-0.3,0.5L778.3,530.6L778.3,530.6z"/>
	</g>
	<g class="st16">
		<path class="st7" d="M878,532.2v-8.6h1.7l3.5,5.7v-5.7h1.6v8.6h-1.7l-3.5-5.6v5.6H878z"/>
		<path class="st7" d="M886.3,529c0-0.5,0.1-1.1,0.4-1.6s0.7-0.9,1.1-1.2s1-0.4,1.7-0.4c0.9,0,1.7,0.3,2.3,0.9s0.9,1.4,0.9,2.3
			c0,0.9-0.3,1.7-0.9,2.3s-1.4,0.9-2.3,0.9c-0.6,0-1.1-0.1-1.6-0.4s-0.9-0.6-1.2-1.1S886.3,529.7,886.3,529z M888,529
			c0,0.6,0.1,1.1,0.4,1.4s0.7,0.5,1.1,0.5s0.8-0.2,1.1-0.5s0.4-0.8,0.4-1.4c0-0.6-0.1-1.1-0.4-1.4s-0.7-0.5-1.1-0.5
			s-0.8,0.2-1.1,0.5S888,528.5,888,529z"/>
		<path class="st7" d="M893.6,529c0-0.5,0.1-1.1,0.4-1.6s0.7-0.9,1.1-1.2s1-0.4,1.7-0.4c0.9,0,1.7,0.3,2.3,0.9s0.9,1.4,0.9,2.3
			c0,0.9-0.3,1.7-0.9,2.3s-1.4,0.9-2.3,0.9c-0.6,0-1.1-0.1-1.6-0.4s-0.9-0.6-1.2-1.1S893.6,529.7,893.6,529z M895.3,529
			c0,0.6,0.1,1.1,0.4,1.4s0.7,0.5,1.1,0.5s0.8-0.2,1.1-0.5s0.4-0.8,0.4-1.4c0-0.6-0.1-1.1-0.4-1.4s-0.7-0.5-1.1-0.5
			s-0.8,0.2-1.1,0.5S895.3,528.5,895.3,529z"/>
		<path class="st7" d="M901.3,532.2v-8.6h1.6v4.6l1.9-2.2h2l-2.1,2.3l2.3,3.9h-1.8l-1.6-2.8l-0.8,0.8v2H901.3z"/>
		<path class="st7" d="M915.2,532.2h-1.6V526c-0.6,0.6-1.3,1-2.1,1.2v-1.5c0.4-0.1,0.9-0.4,1.4-0.8s0.8-0.9,1-1.4h1.3L915.2,532.2
			L915.2,532.2z"/>
	</g>
</g>
<g id="outline">
	<polygon class="st17" points="566.9,136.4 566.9,192.3 1467.6,192.3 1467.6,1186.9 148,1186.9 148,206.4 161.7,206.4 161.7,136.4 	
		"/>
	<polyline class="st18" points="161.7,206.4 497,206.4 497,215.5 	"/>
	<polyline class="st18" points="317.7,265.6 559.2,265.6 559.2,192.3 585.9,192.3 962.3,192.3 962.3,289 946.2,289 	"/>
	<polyline class="st18" points="734.5,192.3 734.5,456.2 663.4,456.2 962.3,456.2 962.3,378.7 947.8,378.7 	"/>
	<polyline class="st18" points="962.3,456.2 962.3,603.3 870.2,603.3 	"/>
	<polyline class="st18" points="685.6,456.2 685.6,603.3 659.6,603.3 776.4,603.3 	"/>
	<polyline class="st18" points="816.8,603.3 836.1,603.3 826.5,603.3 826.5,456.2 	"/>
	<polyline class="st18" points="734.5,330.1 891.4,330.1 891.4,289 911.1,289 	"/>
	<polyline class="st18" points="891.4,330.1 891.4,379.7 913.5,379.7 	"/>
	<polyline class="st18" points="505,599.4 598,599.4 598,456.2 317.7,456.2 317.7,599.4 411.2,599.4 	"/>
	<polyline class="st18" points="449.8,599.4 466.3,599.4 457.8,599.4 457.8,456.2 	"/>
	<line class="st18" x1="1027.1" y1="192.3" x2="1027.1" y2="401.1"/>
	<polyline class="st18" points="1027.1,489 1027.1,687.1 1192.4,687.1 	"/>
	<line class="st18" x1="1274.7" y1="687.1" x2="1467.6" y2="687.1"/>
	<polyline class="st18" points="1054.2,748.3 1017,748.3 1017,1099.3 1054.2,1099.3 	"/>
	<polyline class="st18" points="1151,999 1151,748.3 1220.1,748.3 1220.1,999 	"/>
</g>
<g id="icons">
	<g id="stairs-4-2-2">
		<circle class="st19" cx="1185.6" cy="865.5" r="21.7"/>
		<g>
			<path class="st20" d="M1173.9,898l0.9-0.1c0,0.3,0.1,0.7,0.3,0.9c0.1,0.3,0.4,0.5,0.7,0.6c0.3,0.1,0.7,0.2,1,0.2s0.6,0,0.9-0.1
				c0.2-0.1,0.4-0.3,0.6-0.5c0.1-0.2,0.2-0.3,0.2-0.6c0-0.2-0.1-0.4-0.2-0.6c-0.2-0.2-0.4-0.4-0.7-0.5c-0.4-0.2-0.8-0.3-1.3-0.3
				c-0.5-0.1-1-0.2-1.4-0.5c-0.3-0.2-0.6-0.4-0.8-0.7c-0.1-0.3-0.2-0.6-0.2-0.9c0-0.4,0.1-0.7,0.3-1c0.2-0.4,0.5-0.6,0.9-0.7
				c0.4-0.1,0.8-0.2,1.3-0.2s0.9,0.1,1.4,0.2c0.4,0.2,0.7,0.4,0.9,0.7c0.3,0.3,0.4,0.7,0.3,1.2l-0.9,0.1c0-0.4-0.2-0.8-0.5-1
				c-0.4-0.3-0.8-0.4-1.3-0.3c-0.5,0-0.9,0.1-1.3,0.3c-0.2,0.2-0.3,0.4-0.3,0.7c0,0.2,0.1,0.4,0.2,0.6c0.4,0.2,0.9,0.4,1.4,0.5
				c0.6,0.1,1.1,0.3,1.6,0.5c0.4,0.2,0.7,0.4,0.9,0.7c0.2,0.3,0.4,0.7,0.3,1c0,0.4-0.1,0.7-0.3,1c-0.3,0.3-0.6,0.6-0.9,0.8
				c-0.4,0.2-0.9,0.3-1.4,0.2c-0.6,0-1.1-0.1-1.6-0.2c-0.4-0.2-0.8-0.5-1-0.8C1174,898.8,1173.9,898.4,1173.9,898z"/>
			<path class="st20" d="M1182.7,899.5l0.1,0.8c-0.2,0-0.5,0.1-0.7,0.1c-0.3,0-0.6,0-0.7-0.1s-0.3-0.2-0.3-0.3
				c-0.1-0.1-0.1-0.5-0.1-1v-3h-0.7v-0.7h0.7V894l0.8-0.6v1.7h0.9v0.7h-0.9v3.5c0,0.1,0,0.1,0.1,0.1l0,0c0.1,0,0.1,0.1,0.3,0.1
				C1182.3,899.5,1182.4,899.5,1182.7,899.5z"/>
			<path class="st20" d="M1186.9,899.6c-0.3,0.2-0.6,0.4-0.9,0.6c-0.3,0.1-0.6,0.1-0.9,0.1c-0.5,0.1-1-0.1-1.3-0.5
				c-0.3-0.2-0.5-0.6-0.5-1c0-0.2,0-0.5,0.1-0.7s0.3-0.4,0.5-0.5s0.3-0.2,0.6-0.2c0.3-0.1,0.5-0.1,0.8-0.1c0.5-0.1,1-0.2,1.5-0.3
				v-0.2c0-0.3-0.1-0.5-0.2-0.7c-0.3-0.3-0.7-0.4-1-0.3c-0.3,0-0.6,0.1-0.9,0.2c-0.2,0.1-0.3,0.3-0.5,0.8l-0.8-0.1
				c0.1-0.3,0.2-0.6,0.3-0.9c0.1-0.2,0.5-0.3,0.8-0.5c0.4-0.1,0.8-0.2,1.2-0.2c0.4,0,0.7,0,1,0.1c0.2,0.1,0.4,0.2,0.6,0.3
				c0.1,0.2,0.2,0.4,0.2,0.6v3.5c0,0.2,0.1,0.4,0.2,0.6h-0.9C1187,900.1,1186.9,899.9,1186.9,899.6z M1186.7,897.6
				c-0.5,0.1-0.9,0.3-1.4,0.3c-0.3,0-0.6,0.1-0.8,0.1s-0.2,0.1-0.3,0.2s-0.1,0.2-0.1,0.5c0,0.2,0.1,0.4,0.2,0.6
				c0.2,0.1,0.5,0.2,0.8,0.2s0.6-0.1,0.9-0.2c0.2-0.1,0.5-0.3,0.6-0.6s0.2-0.6,0.1-0.9L1186.7,897.6z"/>
			<path class="st20" d="M1189.1,894.1v-1h0.9v1H1189.1z M1189.1,900.3v-5.1h0.9v5.1H1189.1z"/>
			<path class="st20" d="M1191.2,900.3v-5.1h0.8v0.8c0.2-0.3,0.3-0.6,0.6-0.7s0.3-0.2,0.6-0.2c0.3,0,0.6,0.1,0.9,0.2l-0.3,0.8
				c-0.2-0.1-0.5-0.2-0.7-0.2s-0.3,0-0.5,0.1c-0.1,0.1-0.3,0.3-0.3,0.5c-0.1,0.3-0.1,0.7-0.1,1v2.7L1191.2,900.3L1191.2,900.3z"/>
			<path class="st20" d="M1194.2,898.7l0.8-0.1c0,0.3,0.2,0.6,0.3,0.8c0.1,0.2,0.6,0.2,0.9,0.2s0.6-0.1,0.9-0.2
				c0.2-0.1,0.4-0.3,0.3-0.6c0-0.2-0.1-0.4-0.2-0.5c-0.3-0.2-0.6-0.3-0.9-0.3c-0.5-0.1-0.9-0.2-1.3-0.5c-0.2-0.1-0.4-0.3-0.6-0.5
				c-0.1-0.2-0.2-0.5-0.2-0.7s0-0.4,0.1-0.6c0.1-0.2,0.3-0.4,0.5-0.5s0.4-0.2,0.6-0.2s0.5-0.1,0.7-0.1c0.4,0,0.7,0.1,1,0.2
				c0.2,0.1,0.6,0.2,0.7,0.5s0.3,0.5,0.3,0.8l-0.8,0.1c0-0.2-0.1-0.5-0.3-0.6c-0.2-0.1-0.5-0.2-0.8-0.2s-0.6,0.1-0.8,0.2
				c-0.1,0.1-0.2,0.3-0.2,0.5c0,0.1,0,0.3,0.1,0.3c0.1,0.1,0.2,0.1,0.3,0.2c0.1,0,0.3,0.1,0.8,0.2c0.6,0.1,1,0.3,1.3,0.3
				c0.2,0.1,0.4,0.3,0.6,0.5c0.1,0.2,0.2,0.5,0.2,0.7c0,0.3-0.1,0.6-0.2,0.8c-0.2,0.3-0.4,0.5-0.7,0.6c-0.3,0.1-0.7,0.2-1,0.2
				c-0.5,0.1-1.1-0.1-1.5-0.5C1194.6,899.7,1194.2,899.3,1194.2,898.7z"/>
		</g>
		<g id="Outline_Icons-2-2-4-2-2">
			<line class="st21" x1="1175.9" y1="874" x2="1192.8" y2="874"/>
			<polyline class="st21" points="1189.9,874 1189.9,871.1 1186.9,871.1 1186.9,868 1183.9,868 1183.9,865.1 1181,865.1 1181,862.2 
				1175.9,862.2 			"/>
			<line class="st21" x1="1184.8" y1="857.1" x2="1194" y2="866.3"/>
			<polyline class="st21" points="1184.8,860.7 1184.8,857.1 1188.4,857.1 			"/>
			<polyline class="st21" points="1194,862.6 1194,866.3 1190.2,866.3 			"/>
		</g>
	</g>
	<g id="stairs-4-2-2-2">
		<circle class="st19" cx="524.6" cy="185.7" r="21.7"/>
		<g>
			<path class="st20" d="M513,218.2l0.9-0.1c0,0.3,0.1,0.7,0.3,0.9c0.1,0.3,0.4,0.5,0.7,0.6s0.7,0.2,1,0.2s0.6,0,0.9-0.1
				c0.2-0.1,0.4-0.3,0.6-0.5c0.1-0.2,0.2-0.4,0.2-0.6c0-0.2-0.1-0.4-0.2-0.6c-0.2-0.2-0.4-0.4-0.7-0.5c-0.4-0.2-0.8-0.3-1.3-0.3
				c-0.5-0.1-1-0.2-1.4-0.5c-0.3-0.2-0.6-0.4-0.8-0.7c-0.1-0.3-0.2-0.6-0.2-0.9c0-0.4,0.1-0.7,0.3-1c0.2-0.4,0.5-0.6,0.9-0.7
				c0.4-0.1,0.8-0.2,1.3-0.2s0.9,0.1,1.4,0.2c0.4,0.2,0.7,0.4,0.9,0.7c0.3,0.3,0.4,0.7,0.3,1.2l-0.9,0.1c0-0.4-0.2-0.8-0.5-1
				c-0.4-0.3-0.8-0.4-1.3-0.3c-0.5,0-0.9,0.1-1.3,0.3c-0.2,0.2-0.3,0.4-0.3,0.7c0,0.2,0.1,0.4,0.2,0.6c0.4,0.2,0.9,0.4,1.4,0.5
				c0.6,0.1,1.1,0.3,1.6,0.5c0.4,0.2,0.7,0.4,0.9,0.7s0.4,0.7,0.3,1c0,0.4-0.1,0.7-0.3,1c-0.3,0.3-0.6,0.6-0.9,0.8
				c-0.4,0.2-0.9,0.3-1.4,0.2c-0.6,0-1.1-0.1-1.6-0.2c-0.4-0.2-0.8-0.5-1-0.8C513.1,219,513,218.6,513,218.2z"/>
			<path class="st20" d="M521.7,219.7l0.1,0.8c-0.2,0-0.5,0.1-0.7,0.1c-0.3,0-0.6,0-0.7-0.1s-0.3-0.2-0.3-0.4
				c-0.1-0.1-0.1-0.5-0.1-1v-2.9h-0.7v-0.7h0.7v-1.3l0.8-0.6v1.7h0.9v0.7h-0.9v3.5c0,0.1,0,0.1,0.1,0.1l0,0c0.1,0,0.1,0.1,0.3,0.1
				C521.4,219.7,521.5,219.7,521.7,219.7z"/>
			<path class="st20" d="M525.9,219.8c-0.3,0.2-0.6,0.4-0.9,0.6c-0.3,0.1-0.6,0.1-0.9,0.1c-0.5,0.1-1-0.1-1.3-0.5
				c-0.3-0.2-0.5-0.6-0.5-1c0-0.2,0-0.5,0.1-0.7s0.3-0.4,0.5-0.5s0.3-0.2,0.6-0.2c0.3-0.1,0.5-0.1,0.8-0.1c0.5-0.1,1-0.2,1.5-0.4
				v-0.2c0-0.3-0.1-0.5-0.2-0.7c-0.3-0.3-0.7-0.4-1-0.4s-0.6,0.1-0.9,0.2c-0.2,0.1-0.3,0.4-0.5,0.8l-0.8-0.1
				c0.1-0.3,0.2-0.6,0.3-0.9c0.1-0.2,0.5-0.3,0.8-0.5c0.4-0.1,0.8-0.2,1.2-0.2s0.7,0,1,0.1c0.2,0.1,0.4,0.2,0.6,0.3
				c0.1,0.2,0.2,0.4,0.2,0.6v3.5c0,0.2,0.1,0.4,0.2,0.6h-0.9C526,220.3,525.9,220.1,525.9,219.8z M525.8,217.8
				c-0.5,0.1-0.9,0.3-1.4,0.4c-0.3,0-0.6,0.1-0.8,0.1s-0.2,0.1-0.3,0.2s-0.1,0.2-0.1,0.5c0,0.2,0.1,0.4,0.2,0.6
				c0.2,0.1,0.5,0.2,0.8,0.2s0.6-0.1,0.9-0.2c0.2-0.1,0.5-0.3,0.6-0.6s0.2-0.6,0.1-0.9V217.8z"/>
			<path class="st20" d="M528.1,214.4v-1.1h0.9v1L528.1,214.4z M528.1,220.5v-5.1h0.9v5.1H528.1z"/>
			<path class="st20" d="M530.2,220.5v-5.1h0.8v0.8c0.2-0.4,0.3-0.6,0.6-0.7s0.3-0.2,0.6-0.2s0.6,0.1,0.9,0.2l-0.3,0.8
				c-0.2-0.1-0.5-0.2-0.7-0.2s-0.3,0-0.5,0.1c-0.1,0.1-0.3,0.3-0.3,0.5c-0.1,0.3-0.1,0.7-0.1,1v2.7L530.2,220.5L530.2,220.5z"/>
			<path class="st20" d="M533.3,218.9l0.8-0.1c0,0.3,0.2,0.6,0.3,0.8s0.6,0.2,0.9,0.2c0.3,0,0.6-0.1,0.9-0.2
				c0.2-0.1,0.4-0.3,0.3-0.6c0-0.2-0.1-0.4-0.2-0.5c-0.3-0.2-0.6-0.3-0.9-0.3c-0.5-0.1-0.9-0.2-1.3-0.5c-0.2-0.1-0.4-0.3-0.6-0.5
				c-0.1-0.2-0.2-0.5-0.2-0.7s0-0.4,0.1-0.6c0.1-0.2,0.3-0.4,0.5-0.5s0.4-0.2,0.6-0.2c0.2,0,0.5-0.1,0.7-0.1c0.4,0,0.7,0.1,1,0.2
				c0.2,0.1,0.6,0.2,0.7,0.5c0.1,0.3,0.3,0.5,0.3,0.8l-0.8,0.1c0-0.2-0.1-0.5-0.3-0.6s-0.5-0.2-0.8-0.2s-0.6,0.1-0.8,0.2
				c-0.1,0.1-0.2,0.3-0.2,0.5c0,0.1,0,0.3,0.1,0.4c0.1,0.1,0.2,0.1,0.3,0.2c0.1,0,0.3,0.1,0.8,0.2c0.6,0.1,1,0.3,1.3,0.3
				c0.2,0.1,0.4,0.3,0.6,0.5c0.1,0.2,0.2,0.5,0.2,0.7c0,0.3-0.1,0.6-0.2,0.8c-0.2,0.3-0.4,0.5-0.7,0.6s-0.7,0.2-1,0.2
				c-0.5,0.1-1.1-0.1-1.5-0.5C533.7,220,533.3,219.5,533.3,218.9z"/>
		</g>
		<g id="Outline_Icons-2-2-4-2-2-2">
			<line class="st21" x1="515" y1="194.2" x2="531.9" y2="194.2"/>
			<polyline class="st21" points="528.9,194.2 528.9,191.3 525.9,191.3 525.9,188.2 523,188.2 523,185.3 520.1,185.3 520.1,182.4 
				515,182.4 			"/>
			<line class="st21" x1="523.8" y1="177.3" x2="533" y2="186.5"/>
			<polyline class="st21" points="523.8,180.9 523.8,177.3 527.4,177.3 			"/>
			<polyline class="st21" points="533,182.8 533,186.5 529.3,186.5 			"/>
		</g>
	</g>
	<g id="Male">
		<circle class="st19" cx="829.8" cy="260.2" r="21.7"/>
		<g>
			<path class="st20" d="M820.2,293.3v-7.1h1.5l1.7,5.1c0.1,0.3,0.2,0.7,0.3,1c0.1-0.4,0.3-0.7,0.3-1.1l1.7-5h1.2v7.1H826v-6l-2,6
				h-0.9l-2-6.1v6.1H820.2z"/>
			<path class="st20" d="M831.7,292.8c-0.3,0.2-0.6,0.4-0.9,0.6c-0.3,0.1-0.7,0.2-1,0.2c-0.5,0-1-0.1-1.4-0.5
				c-0.3-0.2-0.5-0.6-0.5-1c0-0.2,0.1-0.5,0.2-0.7c0.1-0.2,0.3-0.4,0.5-0.5l0.7-0.3c0.2,0,0.5-0.1,0.8-0.1c0.5-0.1,1.1-0.2,1.6-0.3
				V290c0-0.3-0.1-0.6-0.2-0.8c-0.3-0.2-0.6-0.4-1-0.3c-0.3,0-0.6,0.1-0.9,0.2c-0.2,0.1-0.3,0.5-0.5,0.8l-0.9-0.1
				c0.1-0.3,0.2-0.6,0.3-0.9c0.2-0.2,0.5-0.4,0.8-0.6c0.4-0.1,0.7-0.2,1.1-0.2c0.4,0,0.8,0,1.1,0.1c0.2,0.1,0.4,0.2,0.6,0.3
				c0.1,0.2,0.2,0.4,0.2,0.6v3.5c0,0.2,0.1,0.4,0.2,0.6h-0.9C831.9,293.2,831.9,293,831.7,292.8z M831.7,290.7
				c-0.5,0.2-1,0.3-1.5,0.3c-0.3,0-0.6,0.1-0.8,0.2c-0.1,0.1-0.2,0.1-0.3,0.3c-0.1,0.1-0.1,0.2-0.1,0.5c0,0.2,0.1,0.4,0.2,0.6
				c0.2,0.1,0.5,0.2,0.8,0.2s0.6-0.1,0.9-0.2c0.2-0.1,0.4-0.3,0.6-0.6c0.1-0.3,0.1-0.6,0.1-0.9v-0.5L831.7,290.7z"/>
			<path class="st20" d="M833.9,293.3v-7.1h0.9v7.1H833.9z"/>
			<path class="st20" d="M839.8,291.6l0.9,0.1c-0.1,0.5-0.4,0.9-0.8,1.2c-0.4,0.3-0.9,0.5-1.5,0.5c-0.7,0-1.3-0.2-1.8-0.7
				s-0.7-1.2-0.7-1.9c-0.1-0.7,0.2-1.5,0.7-2c0.9-0.9,2.4-0.9,3.4,0c0.5,0.6,0.7,1.3,0.7,2v0.2h-3.8c0,0.5,0.2,1,0.5,1.4
				c0.3,0.3,0.7,0.5,1.1,0.5c0.3,0,0.6-0.1,0.8-0.2C839.4,292.5,839.5,292.1,839.8,291.6z M836.8,290.3h2.9c0-0.4-0.1-0.7-0.3-1
				c-0.3-0.3-0.7-0.5-1.1-0.5c-0.4,0-0.8,0.1-1,0.5C837,289.5,836.8,289.9,836.8,290.3L836.8,290.3z"/>
		</g>
		<g>
			<path class="st20" d="M818.8,305.3V299h-2.4v-0.8h5.6v0.8h-2.4v6.3H818.8z"/>
		</g>
		<g>
			<path class="st20" d="M821.5,302.7c-0.1-0.8,0.2-1.6,0.8-2.1c0.5-0.4,1-0.5,1.6-0.6c0.6,0,1.2,0.2,1.7,0.7s0.7,1.2,0.7,1.9
				c0,0.5-0.1,1.1-0.3,1.6c-0.2,0.4-0.5,0.7-0.9,0.9c-1,0.6-2.2,0.4-3-0.3C821.6,304.1,821.5,303.4,821.5,302.7z M822.4,302.7
				c-0.1,0.5,0.1,1.1,0.5,1.5c0.6,0.6,1.6,0.6,2.3,0c0.6-0.9,0.6-2.1,0-2.9c-0.6-0.6-1.6-0.6-2.3,0
				C822.5,301.6,822.3,302.2,822.4,302.7L822.4,302.7z"/>
			<path class="st20" d="M827.3,299.2v-1h0.9v1H827.3z M827.3,305.3v-5.2h0.9v5.2H827.3z"/>
			<path class="st20" d="M829.5,305.3v-7.1h0.9v7.1H829.5z"/>
			<path class="st20" d="M835.2,303.6l0.9,0.1c-0.1,0.5-0.4,0.9-0.8,1.2c-0.4,0.3-0.9,0.5-1.5,0.5c-0.7,0-1.3-0.2-1.8-0.7
				s-0.7-1.2-0.7-1.9c-0.1-0.7,0.2-1.5,0.7-2c0.9-0.9,2.4-0.9,3.4,0c0.5,0.6,0.7,1.3,0.7,2v0.2h-3.8c0,0.5,0.2,1,0.5,1.4
				c0.3,0.3,0.7,0.5,1.1,0.5c0.3,0,0.6-0.1,0.8-0.2C835,304.4,835.2,304,835.2,303.6z M832.4,302.3h2.9c0-0.4-0.1-0.7-0.3-1
				c-0.3-0.3-0.7-0.5-1.1-0.5c-0.4,0-0.8,0.1-1,0.5C832.6,301.5,832.5,301.9,832.4,302.3L832.4,302.3z"/>
			<path class="st20" d="M839.2,304.5l0.1,0.8c-0.2,0-0.5,0.1-0.7,0.1c-0.3,0-0.5,0-0.8-0.1c-0.2-0.1-0.3-0.2-0.3-0.5
				c-0.1-0.3-0.2-0.7-0.1-1v-2.9h-0.7v-0.7h0.7V299l0.9-0.6v1.8h0.9v0.7h-0.9v3.5c0,0.1,0.1,0.1,0.1,0.2s0.2,0.1,0.3,0.1
				C838.8,304.6,839,304.5,839.2,304.5z"/>
			<path class="st20" d="M839.7,303.7l0.9-0.1c0,0.3,0.2,0.6,0.5,0.8c0.3,0.2,0.6,0.3,0.9,0.2c0.3,0,0.6-0.1,0.9-0.2
				c0.2-0.1,0.3-0.3,0.3-0.6c0-0.2-0.1-0.3-0.2-0.5c-0.3-0.2-0.6-0.3-0.9-0.3c-0.5-0.1-0.9-0.2-1.4-0.5c-0.2-0.1-0.4-0.2-0.6-0.5
				c-0.1-0.2-0.2-0.4-0.2-0.7c0-0.2,0-0.5,0.1-0.7s0.3-0.4,0.5-0.5s0.4-0.2,0.6-0.2c0.3-0.1,0.5-0.1,0.8-0.1c0.4,0,0.7,0.1,1,0.2
				s0.5,0.2,0.7,0.5c0.1,0.3,0.2,0.5,0.3,0.8l-0.9,0.1c0-0.3-0.1-0.5-0.3-0.7c-0.2-0.1-0.5-0.2-0.8-0.2s-0.6,0.1-0.9,0.2
				c-0.2,0.1-0.3,0.3-0.2,0.5c0,0.1,0,0.2,0.1,0.3c0.1,0.1,0.2,0.2,0.3,0.2s0.3,0.1,0.8,0.2c0.4,0.1,0.9,0.2,1.2,0.5
				c0.2,0.1,0.4,0.2,0.6,0.5c0.3,0.5,0.3,1.1,0,1.6c-0.2,0.2-0.5,0.4-0.8,0.6c-0.4,0.1-0.7,0.2-1.1,0.2c-0.6,0-1.1-0.1-1.6-0.5
				C839.9,304.6,839.7,304.2,839.7,303.7z"/>
		</g>
		<circle class="st22" cx="830.2" cy="253.1" r="3.3"/>
		<path class="st22" d="M835.4,258.2h-10.3c-0.3,2.8,1,5.4,3.3,7v6.1h3.7v-6.1C834.4,263.6,835.7,260.9,835.4,258.2z"/>
	</g>
	<g id="Female">
		<circle class="st19" cx="829.8" cy="393.1" r="20.7"/>
		<g>
			<path class="st20" d="M814.7,426.9v-6.8h4.6v0.8h-3.7v2.1h3.2v0.8h-3.2v3L814.7,426.9z"/>
			<path class="st20" d="M823.7,425.3l0.9,0.1c-0.1,0.5-0.4,0.9-0.8,1.1c-0.4,0.3-0.9,0.5-1.5,0.5s-1.3-0.2-1.7-0.7
				c-0.5-0.5-0.7-1.2-0.7-1.9c0-0.7,0.2-1.4,0.7-1.9c0.4-0.5,1.1-0.7,1.7-0.7c0.6,0,1.2,0.2,1.6,0.7c0.5,0.5,0.7,1.2,0.7,1.9v0.2
				h-3.7c0,0.5,0.1,0.9,0.5,1.2c0.2,0.3,0.6,0.5,1,0.5c0.3,0,0.6-0.1,0.8-0.2C823.4,425.9,823.6,425.6,823.7,425.3z M821,423.9h2.7
				c0-0.7-0.6-1.3-1.3-1.4l0,0c-0.4,0-0.7,0.1-1,0.3C821.1,423.2,821,423.6,821,423.9L821,423.9z"/>
			<path class="st20" d="M825.6,426.9v-5h0.8v0.7c0.1-0.2,0.3-0.4,0.6-0.6c0.6-0.3,1.2-0.3,1.8,0c0.3,0.1,0.4,0.4,0.5,0.7
				c0.3-0.6,0.9-0.9,1.6-0.9c0.4,0,0.9,0.1,1.1,0.5c0.3,0.3,0.5,0.8,0.5,1.2v3.4h-0.8v-3.2c0-0.3,0-0.6-0.1-0.7
				c0-0.1-0.1-0.2-0.3-0.3c-0.1-0.1-0.3-0.1-0.5-0.1c-0.3,0-0.7,0.1-0.9,0.3c-0.3,0.3-0.4,0.7-0.3,1.1v2.8h-0.8v-3.2
				c0-0.3-0.1-0.6-0.2-0.8c-0.1-0.2-0.3-0.2-0.7-0.2c-0.2,0-0.5,0.1-0.7,0.2s-0.4,0.3-0.5,0.6c-0.1,0.3-0.1,0.7-0.1,1v2.6h-0.9
				L825.6,426.9L825.6,426.9z"/>
			<path class="st20" d="M836.8,426.3c-0.3,0.2-0.6,0.4-0.9,0.6c-0.3,0.1-0.6,0.1-0.9,0.1c-0.5,0.1-0.9-0.1-1.2-0.5
				c-0.3-0.2-0.5-0.6-0.5-1c0-0.2,0-0.5,0.1-0.7s0.3-0.4,0.5-0.5s0.3-0.2,0.6-0.2c0.3-0.1,0.5-0.1,0.8-0.1c0.5-0.1,1-0.2,1.5-0.3
				v-0.2c0-0.2-0.1-0.5-0.2-0.7c-0.2-0.2-0.6-0.3-0.9-0.3c-0.3,0-0.6,0.1-0.9,0.2c-0.2,0.2-0.4,0.4-0.5,0.7l-0.8-0.1
				c0.1-0.3,0.2-0.6,0.3-0.9c0.2-0.2,0.5-0.4,0.8-0.5c0.4-0.1,0.7-0.2,1.1-0.2c0.3,0,0.7,0,1,0.1c0.2,0.1,0.4,0.2,0.6,0.3
				c0.1,0.2,0.2,0.4,0.2,0.6v3.4c0,0.2,0.1,0.4,0.2,0.6h-0.9C836.9,426.7,836.8,426.5,836.8,426.3z M836.8,424.4
				c-0.4,0.1-0.9,0.3-1.4,0.3c-0.2,0-0.5,0.1-0.7,0.1c-0.1,0-0.2,0.1-0.3,0.2s-0.1,0.2-0.1,0.5c0,0.2,0.1,0.4,0.2,0.6
				c0.2,0.2,0.5,0.2,0.8,0.2s0.6-0.1,0.9-0.2c0.2-0.1,0.4-0.3,0.6-0.6c0.1-0.3,0.1-0.5,0.1-0.8L836.8,424.4L836.8,424.4z"/>
			<path class="st20" d="M838.8,426.9v-6.8h0.8v6.8H838.8z"/>
			<path class="st20" d="M844.4,425.3l0.9,0.1c-0.1,0.5-0.4,0.9-0.8,1.1c-0.4,0.3-0.9,0.5-1.5,0.5s-1.2-0.2-1.7-0.7
				s-0.7-1.2-0.7-1.9c0-0.7,0.2-1.4,0.7-1.9c0.4-0.4,1.1-0.7,1.7-0.7c0.6,0,1.2,0.2,1.6,0.7c0.5,0.5,0.7,1.2,0.7,1.9v0.2h-3.7
				c0,0.5,0.1,0.9,0.5,1.2c0.2,0.3,0.6,0.5,1,0.5c0.3,0,0.6-0.1,0.8-0.2C844.1,425.9,844.3,425.6,844.4,425.3z M841.7,423.9h2.7
				c0-0.7-0.6-1.3-1.3-1.4l0,0c-0.4,0-0.7,0.1-1,0.3C841.8,423.2,841.7,423.6,841.7,423.9z"/>
		</g>
		<g>
			<path class="st20" d="M818.7,438.3v-6h-2.3v-0.8h5.4v0.8h-2.3v6H818.7z"/>
		</g>
		<g>
			<path class="st20" d="M821.3,435.9c-0.1-0.8,0.2-1.5,0.8-2c0.4-0.4,1-0.6,1.6-0.6s1.2,0.2,1.7,0.7s0.7,1.1,0.7,1.8
				c0,0.5-0.1,1-0.3,1.5c-0.2,0.3-0.5,0.7-0.8,0.9c-0.4,0.2-0.8,0.3-1.2,0.3c-0.6,0-1.3-0.2-1.7-0.7
				C821.5,437.3,821.3,436.6,821.3,435.9z M822.2,435.9c-0.1,0.5,0.1,1.1,0.5,1.5c0.2,0.3,0.6,0.5,1,0.5s0.8-0.1,1-0.5
				c0.3-0.4,0.5-0.9,0.5-1.5c0.1-0.5-0.1-1-0.5-1.4c-0.3-0.2-0.6-0.4-1-0.5c-0.4,0-0.8,0.1-1,0.5
				C822.3,434.8,822.2,435.2,822.2,435.9L822.2,435.9z"/>
			<path class="st20" d="M827,432.5v-1h0.8v1H827z M827,438.3v-5h0.8v5H827z"/>
			<path class="st20" d="M829.1,438.3v-6.8h0.8v6.8H829.1z"/>
			<path class="st20" d="M834.7,436.7l0.9,0.1c-0.1,0.5-0.4,0.9-0.8,1.1c-0.4,0.3-0.9,0.5-1.5,0.5s-1.2-0.2-1.7-0.7
				s-0.7-1.2-0.7-1.9c0-0.7,0.2-1.4,0.7-1.9c0.4-0.4,1.1-0.7,1.7-0.7c0.6,0,1.2,0.2,1.6,0.7c0.5,0.5,0.7,1.2,0.7,1.9v0.2h-3.7
				c0,0.5,0.1,0.9,0.5,1.2c0.2,0.3,0.6,0.5,1,0.5c0.3,0,0.6-0.1,0.8-0.2C834.3,437.4,834.4,437.1,834.7,436.7z M831.8,435.3h2.7
				c0-0.7-0.6-1.3-1.3-1.4l0,0c-0.4,0-0.7,0.1-1,0.3C832,434.6,831.9,435,831.8,435.3L831.8,435.3z"/>
			<path class="st20" d="M838.4,437.6l0.1,0.8c-0.2,0-0.5,0.1-0.7,0.1c-0.3,0-0.6,0-0.7-0.1s-0.3-0.2-0.3-0.3
				c-0.1-0.3-0.1-0.7-0.1-1v-2.8h-0.6v-0.7h0.6v-1.2l0.8-0.5v1.7h0.8v0.7h-0.8v3.4c0,0.1,0,0.1,0.1,0.1l0,0c0.1,0,0.1,0.1,0.3,0.1
				C838,437.6,838.2,437.6,838.4,437.6z"/>
			<path class="st20" d="M838.8,436.8l0.8-0.1c0,0.3,0.2,0.6,0.3,0.8c0.3,0.2,0.6,0.3,0.9,0.2c0.3,0,0.6-0.1,0.9-0.2
				c0.2-0.1,0.2-0.3,0.2-0.6c0-0.2-0.1-0.3-0.2-0.5c-0.3-0.2-0.6-0.3-0.9-0.3c-0.4-0.1-0.9-0.2-1.2-0.5c-0.2-0.1-0.4-0.2-0.6-0.5
				c-0.1-0.2-0.2-0.4-0.2-0.7c0-0.2,0-0.4,0.1-0.6s0.3-0.4,0.5-0.5s0.4-0.2,0.6-0.2c0.2-0.1,0.4-0.1,0.7-0.1s0.7,0,1,0.1
				s0.5,0.2,0.7,0.5c0.1,0.3,0.2,0.5,0.3,0.8l-0.8,0.1c0-0.2-0.1-0.5-0.3-0.6s-0.5-0.2-0.8-0.2s-0.6,0.1-0.8,0.2
				c-0.1,0.1-0.2,0.3-0.2,0.5c0,0.1,0,0.2,0.1,0.3c0.1,0.1,0.2,0.1,0.3,0.2c0.1,0,0.3,0.1,0.8,0.2c0.6,0.1,1,0.3,1.2,0.3
				c0.2,0.1,0.4,0.2,0.6,0.5c0.1,0.2,0.2,0.4,0.2,0.7c0,0.3-0.1,0.5-0.2,0.8c-0.2,0.2-0.4,0.4-0.7,0.6c-0.3,0.1-0.7,0.2-1,0.2
				c-0.5,0.1-1.1-0.1-1.5-0.5C839.2,437.8,839,437.4,838.8,436.8z"/>
		</g>
		<circle class="st23" cx="829.7" cy="386.2" r="2.9"/>
		<path class="st23" d="M829.7,390.5c-2.6,0-4.7,3.8-4.7,8.1h3v4.3h3.4v-4.3h2.9C834.3,394.3,832.3,390.5,829.7,390.5z"/>
	</g>
	<g id="Outline_Icons-6-4">
		<g class="st16">
			<path class="st24" d="M1275.5,799v-8.1h1.1v4l4-4h1.5l-3.4,3.3l3.6,4.8h-1.4l-2.9-4.1l-1.3,1.3v2.8H1275.5z"/>
			<path class="st24" d="M1283,792v-1.1h1v1.1H1283z M1283,799v-5.9h1v5.9H1283z"/>
			<path class="st24" d="M1287.7,798.1l0.1,0.9c-0.3,0.1-0.5,0.1-0.8,0.1c-0.4,0-0.6-0.1-0.8-0.2c-0.2-0.1-0.3-0.3-0.4-0.5
				s-0.1-0.6-0.1-1.2v-3.4h-0.7V793h0.7v-1.5l1-0.6v2.1h1v0.8h-1v3.4c0,0.3,0,0.5,0.1,0.5c0,0.1,0.1,0.1,0.2,0.2
				c0.1,0,0.2,0.1,0.3,0.1C1287.4,798.2,1287.5,798.2,1287.7,798.1z"/>
			<path class="st24" d="M1292.6,796.9l1,0.1c-0.1,0.7-0.4,1.2-0.8,1.6c-0.4,0.4-1,0.6-1.6,0.6c-0.8,0-1.5-0.3-1.9-0.8
				s-0.7-1.3-0.7-2.3c0-0.6,0.1-1.2,0.3-1.7s0.5-0.8,1-1.1c0.4-0.2,0.9-0.4,1.4-0.4c0.6,0,1.2,0.2,1.6,0.5s0.7,0.8,0.8,1.4l-1,0.1
				c-0.1-0.4-0.3-0.7-0.5-0.9s-0.5-0.3-0.9-0.3c-0.5,0-0.9,0.2-1.2,0.5c-0.3,0.4-0.5,0.9-0.5,1.7s0.2,1.4,0.5,1.7
				c0.3,0.4,0.7,0.5,1.2,0.5c0.4,0,0.7-0.1,1-0.4C1292.3,797.7,1292.5,797.4,1292.6,796.9z"/>
			<path class="st24" d="M1294.4,799v-8.1h1v2.9c0.5-0.5,1.1-0.8,1.8-0.8c0.4,0,0.8,0.1,1.1,0.3s0.6,0.4,0.7,0.7s0.2,0.7,0.2,1.3
				v3.7h-1v-3.7c0-0.5-0.1-0.9-0.3-1.1c-0.2-0.2-0.5-0.3-0.9-0.3c-0.3,0-0.6,0.1-0.8,0.2s-0.4,0.4-0.6,0.6c-0.1,0.3-0.2,0.6-0.2,1.1
				v3.2L1294.4,799L1294.4,799z"/>
			<path class="st24" d="M1304.8,797.1l1,0.1c-0.2,0.6-0.5,1.1-0.9,1.4s-1,0.5-1.7,0.5c-0.9,0-1.5-0.3-2.1-0.8s-0.8-1.3-0.8-2.2
				c0-1,0.3-1.8,0.8-2.3s1.2-0.8,2-0.8s1.4,0.3,1.9,0.8s0.8,1.3,0.8,2.3c0,0.1,0,0.1,0,0.3h-4.4c0,0.6,0.2,1.1,0.5,1.5
				c0.3,0.3,0.7,0.5,1.2,0.5c0.4,0,0.7-0.1,0.9-0.3C1304.4,797.9,1304.6,797.5,1304.8,797.1z M1301.5,795.5h3.3
				c0-0.5-0.2-0.9-0.4-1.1c-0.3-0.4-0.7-0.6-1.2-0.6s-0.8,0.2-1.2,0.5S1301.5,795,1301.5,795.5z"/>
			<path class="st24" d="M1307,799v-5.9h0.9v0.8c0.4-0.6,1.1-1,1.9-1c0.4,0,0.7,0.1,1,0.2c0.3,0.1,0.5,0.3,0.7,0.5
				c0.1,0.2,0.3,0.5,0.3,0.7s0.1,0.5,0.1,1v3.6h-1v-3.6c0-0.4,0-0.7-0.1-0.9s-0.2-0.4-0.4-0.5c-0.2-0.1-0.4-0.2-0.7-0.2
				c-0.4,0-0.8,0.1-1.1,0.4c-0.3,0.3-0.5,0.8-0.5,1.5v3.2h-1.1L1307,799L1307,799z"/>
			<path class="st24" d="M1317.4,797.1l1,0.1c-0.2,0.6-0.5,1.1-0.9,1.4c-0.4,0.3-1,0.5-1.7,0.5c-0.9,0-1.5-0.3-2.1-0.8
				c-0.5-0.5-0.8-1.3-0.8-2.2c0-1,0.3-1.8,0.8-2.3s1.2-0.8,2-0.8s1.4,0.3,1.9,0.8s0.8,1.3,0.8,2.3c0,0.1,0,0.1,0,0.3h-4.4
				c0,0.6,0.2,1.1,0.5,1.5c0.3,0.3,0.7,0.5,1.2,0.5c0.4,0,0.7-0.1,0.9-0.3S1317.2,797.5,1317.4,797.1z M1314.1,795.5h3.3
				c0-0.5-0.2-0.9-0.4-1.1c-0.3-0.4-0.7-0.6-1.2-0.6s-0.8,0.2-1.2,0.5C1314.3,794.6,1314.2,795,1314.1,795.5z"/>
			<path class="st24" d="M1321.9,798.1l0.1,0.9c-0.3,0.1-0.5,0.1-0.8,0.1c-0.4,0-0.6-0.1-0.8-0.2c-0.2-0.1-0.3-0.3-0.4-0.5
				s-0.1-0.6-0.1-1.2v-3.4h-0.7V793h0.7v-1.5l1-0.6v2.1h1v0.8h-1v3.4c0,0.3,0,0.5,0.1,0.5c0,0.1,0.1,0.1,0.2,0.2
				c0.1,0,0.2,0.1,0.3,0.1C1321.5,798.2,1321.7,798.2,1321.9,798.1z"/>
			<path class="st24" d="M1325,798.1l0.1,0.9c-0.3,0.1-0.5,0.1-0.8,0.1c-0.4,0-0.6-0.1-0.8-0.2c-0.2-0.1-0.3-0.3-0.4-0.5
				s-0.1-0.6-0.1-1.2v-3.4h-0.7V793h0.7v-1.5l1-0.6v2.1h1v0.8h-1v3.4c0,0.3,0,0.5,0.1,0.5c0,0.1,0.1,0.1,0.2,0.2
				c0.1,0,0.2,0.1,0.3,0.1C1324.7,798.2,1324.8,798.2,1325,798.1z"/>
			<path class="st24" d="M1330,797.1l1,0.1c-0.2,0.6-0.5,1.1-0.9,1.4c-0.4,0.3-1,0.5-1.7,0.5c-0.9,0-1.5-0.3-2.1-0.8
				c-0.5-0.5-0.8-1.3-0.8-2.2c0-1,0.3-1.8,0.8-2.3s1.2-0.8,2-0.8s1.4,0.3,1.9,0.8s0.8,1.3,0.8,2.3c0,0.1,0,0.1,0,0.3h-4.4
				c0,0.6,0.2,1.1,0.5,1.5c0.3,0.3,0.7,0.5,1.2,0.5c0.4,0,0.7-0.1,0.9-0.3S1329.9,797.5,1330,797.1z M1326.8,795.5h3.3
				c0-0.5-0.2-0.9-0.4-1.1c-0.3-0.4-0.7-0.6-1.2-0.6s-0.8,0.2-1.2,0.5C1327,794.6,1326.8,795,1326.8,795.5z"/>
		</g>
		<circle class="st25" cx="1303.3" cy="760.4" r="24.7"/>
		<g id="Outline_Icons-2-2">
			<path class="st26" d="M1311.8,755.5c-1.6,0-3.1-1.1-3.6-2.6c-0.6,0.4-1.4,0.7-2.2,0.7c-2.1,0-3.8-1.7-3.8-3.8v-0.3
				c-6,1-10,6.7-9,12.7s6.7,10,12.7,9s10-6.7,9-12.7l0,0l0,0c-0.2-1.2-0.6-2.4-1.2-3.5C1313.1,755.3,1312.5,755.5,1311.8,755.5z"/>
			<circle class="st26" cx="1300.3" cy="757.3" r="2"/>
			<circle class="st26" cx="1307" cy="762.1" r="1"/>
			<circle class="st26" cx="1301.3" cy="765" r="2"/>
			<circle class="st26" cx="1308" cy="758.3" r="0.4"/>
			<circle class="st26" cx="1296.5" cy="761.2" r="0.4"/>
			<circle class="st26" cx="1307" cy="766.9" r="0.4"/>
		</g>
	</g>
	<g id="Outline_Icons-6-4-2">
		<g class="st16">
			<path class="st24" d="M1078.3,822.6v-8.1h1.1v7.2h4v1h-5.1V822.6z"/>
			<path class="st24" d="M1084.6,815.6v-1.1h1v1.1H1084.6z M1084.6,822.6v-5.9h1v5.9H1084.6z"/>
			<path class="st24" d="M1088,822.6h-0.9v-8.1h1v2.9c0.4-0.5,1-0.8,1.6-0.8c0.4,0,0.7,0.1,1,0.2c0.3,0.1,0.6,0.4,0.8,0.6
				s0.4,0.6,0.5,1s0.2,0.8,0.2,1.2c0,1-0.2,1.8-0.7,2.3c-0.5,0.6-1.1,0.8-1.8,0.8c-0.7,0-1.2-0.3-1.6-0.9L1088,822.6L1088,822.6z
				 M1088,819.6c0,0.7,0.1,1.2,0.3,1.5c0.3,0.5,0.7,0.8,1.3,0.8c0.4,0,0.8-0.2,1.1-0.6c0.3-0.4,0.5-0.9,0.5-1.7s-0.2-1.3-0.5-1.7
				s-0.7-0.5-1.1-0.5s-0.8,0.2-1.1,0.6C1088.2,818.3,1088,818.9,1088,819.6z"/>
			<path class="st24" d="M1093.4,822.6v-5.9h0.9v0.9c0.2-0.4,0.4-0.7,0.6-0.8s0.4-0.2,0.6-0.2c0.3,0,0.7,0.1,1,0.3l-0.3,0.9
				c-0.2-0.1-0.5-0.2-0.7-0.2s-0.4,0.1-0.6,0.2c-0.2,0.1-0.3,0.3-0.4,0.5c-0.1,0.4-0.2,0.7-0.2,1.2v3.1H1093.4z"/>
			<path class="st24" d="M1101,821.8c-0.4,0.3-0.7,0.5-1.1,0.7c-0.3,0.1-0.7,0.2-1.1,0.2c-0.6,0-1.1-0.2-1.5-0.5s-0.5-0.7-0.5-1.2
				c0-0.3,0.1-0.6,0.2-0.8s0.3-0.4,0.5-0.6c0.2-0.1,0.5-0.3,0.7-0.3c0.2-0.1,0.5-0.1,0.9-0.2c0.8-0.1,1.4-0.2,1.8-0.3
				c0-0.1,0-0.2,0-0.3c0-0.4-0.1-0.7-0.3-0.9c-0.3-0.2-0.6-0.3-1.1-0.3s-0.8,0.1-1,0.2c-0.2,0.2-0.4,0.5-0.5,0.9l-1-0.1
				c0.1-0.4,0.2-0.8,0.4-1c0.2-0.3,0.5-0.5,0.9-0.6s0.8-0.2,1.3-0.2s0.9,0.1,1.2,0.2c0.3,0.1,0.5,0.3,0.7,0.4
				c0.1,0.2,0.3,0.4,0.3,0.7c0,0.2,0,0.5,0,0.9v1.3c0,0.9,0,1.5,0.1,1.8c0,0.2,0.1,0.5,0.3,0.7h-1
				C1101.1,822.4,1101.1,822.1,1101,821.8z M1101,819.6c-0.4,0.1-0.9,0.3-1.6,0.4c-0.4,0.1-0.7,0.1-0.9,0.2s-0.3,0.2-0.4,0.3
				s-0.1,0.3-0.1,0.5c0,0.3,0.1,0.5,0.3,0.7c0.2,0.2,0.5,0.3,0.9,0.3s0.7-0.1,1-0.3s0.5-0.4,0.7-0.7c0.1-0.2,0.2-0.6,0.2-1
				L1101,819.6L1101,819.6z"/>
			<path class="st24" d="M1103.5,822.6v-5.9h0.9v0.9c0.2-0.4,0.4-0.7,0.6-0.8s0.4-0.2,0.6-0.2c0.3,0,0.7,0.1,1,0.3l-0.3,0.9
				c-0.2-0.1-0.5-0.2-0.7-0.2s-0.4,0.1-0.6,0.2c-0.2,0.1-0.3,0.3-0.4,0.5c-0.1,0.4-0.2,0.7-0.2,1.2v3.1H1103.5z"/>
			<path class="st24" d="M1107.3,824.8l-0.1-0.9c0.2,0.1,0.4,0.1,0.6,0.1s0.4,0,0.5-0.1s0.2-0.2,0.3-0.3c0.1-0.1,0.2-0.3,0.3-0.7
				c0-0.1,0-0.1,0.1-0.2l-2.2-5.9h1.1l1.2,3.4c0.2,0.4,0.3,0.9,0.4,1.4c0.1-0.5,0.3-0.9,0.4-1.3l1.3-3.4h1l-2.2,6
				c-0.2,0.6-0.4,1.1-0.6,1.3c-0.2,0.3-0.4,0.6-0.6,0.7c-0.2,0.2-0.5,0.2-0.8,0.2C1107.7,825,1107.5,824.9,1107.3,824.8z"/>
		</g>
		<circle class="st25" cx="1094.4" cy="783.9" r="24.7"/>
		<g>
			<path class="st27" d="M1082.7,774.4c0,5.5,0,11.1,0,16.6c3.7,0,7.3,0,11,0c-0.2-0.1-0.3-0.2-0.5-0.3c-1-0.5-2.1-0.9-3.2-1.2
				c-0.8-0.2-1.6-0.4-2.4-0.5c-0.7-0.1-1.3-0.2-2-0.2c-0.6,0-1.1,0-1.7,0h-0.1c0-5.4,0-10.8,0-16.2c0.9-0.1,1.7-0.2,2.6-0.2
				c2.1,0.1,4,0.5,5.9,1.4c0.5,0.2,1,0.5,1.5,0.7c0.5,0.3,0.9,0.5,1.4,0.8c0.6-0.3,1.2-0.7,1.8-1c1.4-0.7,2.8-1.2,4.3-1.5
				c1-0.2,2.1-0.3,3.1-0.3c0.7,0,1.4,0.1,2.2,0.2c0,5.4,0,10.8,0,16.2c-0.2,0-0.5,0-0.7,0c-0.6,0-1.2,0-1.9,0.1
				c-1.7,0.2-3.4,0.5-5,1.1c-0.8,0.3-1.5,0.6-2.2,1.1c3.7,0,7.3,0,10.9,0c0-5.5,0-11.1,0-16.6c0.3,0,0.6,0,1,0c0,5.9,0,11.7,0,17.6
				c-3.9,0-7.7,0-11.6,0c-0.4,1-1,1.5-2.1,1.4c-0.9-0.1-1.4-0.6-1.7-1.4c-3.9,0-7.8,0-11.6,0c0-5.9,0-11.7,0-17.6
				C1082,774.4,1082.3,774.4,1082.7,774.4z M1084.8,787.8c0.3,0,0.5,0,0.8,0c0.9,0.1,1.7,0.1,2.6,0.3c0.6,0.1,1.3,0.2,1.9,0.4
				c1.3,0.3,2.5,0.8,3.7,1.4c0.3,0.2,0.6,0.4,1,0.6v-0.1c0-0.8,0-1.6,0-2.4c0-2.2,0-4.3,0-6.5c0-1.1,0-2.1,0-3.2c0-0.6,0-1.3,0-1.9
				c0-0.3,0-0.3-0.3-0.5c-0.5-0.3-1.1-0.7-1.7-0.9c-1.6-0.8-3.2-1.3-5-1.5c-0.7-0.1-1.4-0.1-2.2-0.1c-0.3,0-0.5,0-0.8,0.1
				C1084.8,778.2,1084.8,783,1084.8,787.8z M1105.6,773.4c-0.2,0-0.4,0-0.6,0c-1.1-0.1-2.1,0-3.2,0.2s-2.2,0.5-3.2,1
				c-1,0.4-1.9,0.9-2.8,1.5c-0.1,0-0.1,0.1-0.1,0.2c0,0.5,0,1.1,0,1.6c0,1.9,0,3.8,0,5.6c0,0.1,0,0.2,0,0.3c0,2.1,0,4.2,0,6.3
				c0,0.1,0,0.3,0,0.4c0,0,0.1,0,0.1-0.1c0.6-0.4,1.2-0.7,1.8-1c1-0.4,2-0.8,3-1c0.7-0.2,1.5-0.3,2.2-0.4c0.7-0.1,1.5-0.2,2.2-0.2
				c0.2,0,0.4,0,0.5,0C1105.6,783,1105.6,778.2,1105.6,773.4z"/>
		</g>
	</g>
	<text transform="matrix(1 0 0 1 659.6268 345.5408)" class="st28 st29 st30">Printer/ Copier</text>
	<circle class="st19" cx="690.4" cy="310.7" r="22.6"/>
	<g id="Outline_Icons-6">
		<g id="Outline_Icons-7">
			<path class="st31" d="M685.2,315.1h-2.4c-0.9,0-1.6-0.7-1.6-1.6v-4.8c0-0.9,0.7-1.6,1.6-1.6H698c0.9,0,1.6,0.7,1.6,1.6v4.8
				c0,0.9-0.7,1.6-1.6,1.6h-2.4"/>
			<polyline class="st31" points="685.2,305.5 685.2,302.3 693.2,302.3 695.6,304.7 695.6,305.5 			"/>
			<rect x="685.2" y="312.7" class="st31" width="10.4" height="6.4"/>
			<circle class="st31" cx="683.6" cy="309.5" r="0.8"/>
			<line class="st31" x1="686.8" y1="314.3" x2="694" y2="314.3"/>
			<line class="st31" x1="686.8" y1="315.9" x2="694" y2="315.9"/>
			<line class="st31" x1="686.8" y1="317.5" x2="694" y2="317.5"/>
			<polyline class="st31" points="693.2,302.3 693.2,304.7 695.6,304.7 			"/>
		</g>
	</g>
</g>
<g>
	<circle class="st32" cx="851.8" cy="714.8" r="9.5"/>
	<circle class="st6" cx="850.4" cy="714.8" r="9.5"/>
	<circle class="st7" cx="848.5" cy="714.8" r="9.5"/>
</g>
<g>
	<circle class="st32" cx="995.1" cy="714.8" r="9.5"/>
	<circle class="st6" cx="993.7" cy="714.8" r="9.5"/>
	<circle class="st7" cx="991.8" cy="714.8" r="9.5"/>
</g>
<g>
	<circle class="st32" cx="850.2" cy="791.7" r="9.5"/>
	<circle class="st6" cx="848.8" cy="791.7" r="9.5"/>
	<circle class="st7" cx="846.9" cy="791.7" r="9.5"/>
</g>
<g>
	<circle class="st32" cx="993.7" cy="791.9" r="9.5"/>
	<circle class="st6" cx="992.3" cy="791.9" r="9.5"/>
	<circle class="st7" cx="990.4" cy="791.9" r="9.5"/>
</g>
<g>
	<circle class="st32" cx="851.3" cy="868.6" r="9.5"/>
	<circle class="st6" cx="849.9" cy="868.6" r="9.5"/>
	<circle class="st7" cx="848" cy="868.6" r="9.5"/>
</g>
<g>
	<circle class="st32" cx="993.7" cy="869.1" r="9.5"/>
	<circle class="st6" cx="992.3" cy="869.1" r="9.5"/>
	<circle class="st7" cx="990.4" cy="869.1" r="9.5"/>
</g>
<g>
	<circle class="st32" cx="849.7" cy="945.5" r="9.5"/>
	<circle class="st6" cx="848.3" cy="945.5" r="9.5"/>
	<circle class="st7" cx="846.4" cy="945.5" r="9.5"/>
</g>
<g>
	<circle class="st32" cx="992.4" cy="946.2" r="9.5"/>
	<circle class="st6" cx="991" cy="946.2" r="9.5"/>
	<circle class="st7" cx="989.1" cy="946.2" r="9.5"/>
</g>
<g>
	<circle class="st32" cx="850.7" cy="1022.4" r="9.5"/>
	<circle class="st6" cx="849.3" cy="1022.4" r="9.5"/>
	<circle class="st7" cx="847.4" cy="1022.4" r="9.5"/>
</g>
<g>
	<circle class="st32" cx="993.7" cy="1023.3" r="9.5"/>
	<circle class="st6" cx="992.3" cy="1023.3" r="9.5"/>
	<circle class="st7" cx="990.4" cy="1023.3" r="9.5"/>
</g>
<g>
	<circle class="st32" cx="849.2" cy="1099.3" r="9.5"/>
	<circle class="st6" cx="847.8" cy="1099.3" r="9.5"/>
	<circle class="st7" cx="845.9" cy="1099.3" r="9.5"/>
</g>
<g>
	<circle class="st32" cx="992.4" cy="1100.5" r="9.5"/>
	<circle class="st6" cx="991" cy="1100.5" r="9.5"/>
	<circle class="st7" cx="989.1" cy="1100.5" r="9.5"/>
</g>
</svg>
