<?xml version="1.0" encoding="utf-8"?>
<!-- Generator: Adobe Illustrator 24.2.0, SVG Export Plug-In . SVG Version: 6.00 Build 0)  -->
<svg version="1.1" id="Layer_1" xmlns="http://www.w3.org/2000/svg" xmlns:xlink="http://www.w3.org/1999/xlink" x="0px" y="0px"
	 viewBox="0 0 469 422" style="enable-background:new 0 0 469 422;" xml:space="preserve">
<style type="text/css">
	.st0{fill:#4095B0;}
	.st1{fill:#AAE0E4;}
	.st2{fill:#8ECCCE;}
	.st3{fill:#99B8BF;}
	.st4{opacity:0.15;fill:#0D5577;enable-background:new    ;}
	.st5{fill:#0D5577;}
	.st6{fill:#83D8EF;stroke:#53C5F1;stroke-width:0.8;stroke-linecap:round;stroke-linejoin:round;}
	.st7{fill:#4E9FB9;stroke:#4A90A0;stroke-width:0.8;stroke-linecap:round;stroke-linejoin:round;}
	.st8{opacity:0.43;fill:#53C5F1;enable-background:new    ;}
	.st9{opacity:8.000000e-02;fill:#101010;enable-background:new    ;}
	.st10{fill:#4FAFC6;stroke:#5798A3;stroke-width:0.93;stroke-linecap:round;stroke-linejoin:round;}
	.st11{fill:#7DCFE2;stroke:#53C5F1;stroke-width:1.16;stroke-linecap:round;stroke-linejoin:round;}
	.st12{fill:#7DCFE2;stroke:#53C5F1;stroke-width:1.04;stroke-linecap:round;stroke-linejoin:round;}
	.st13{fill:#4E9FB9;stroke:#4A90A0;stroke-width:0.96;stroke-linecap:round;stroke-linejoin:round;}
	.st14{fill:#4E9FB9;stroke:#4A90A0;stroke-width:1.04;stroke-linecap:round;stroke-linejoin:round;}
	.st15{opacity:0.4;fill:#4196B1;enable-background:new    ;}
	.st16{opacity:5.000000e-02;fill:#030303;enable-background:new    ;}
	.st17{fill:#B8BFC1;}
	.st18{fill:#FFFFFF;}
	.st19{fill:#596068;}
	.st20{fill:#7A8E93;stroke:#758589;stroke-width:0.52;stroke-miterlimit:10;}
	.st21{fill:#9BAEB7;stroke:#93A6AD;stroke-width:0.52;stroke-miterlimit:10;}
	.st22{opacity:0.65;fill:#575757;enable-background:new    ;}
	.st23{fill:none;stroke:#F7F7F7;stroke-width:8;stroke-miterlimit:10;}
	.st24{fill:none;stroke:#F7F7F7;stroke-width:4;stroke-miterlimit:10;}
	.st25{fill:#EAF1F1;}
	.st26{fill:#767E7F;}
	.st27{fill:none;stroke:#7A8D92;stroke-width:0.6;stroke-miterlimit:10;}
	.st28{fill:none;stroke:#7A8D92;stroke-width:0.61;stroke-miterlimit:10;}
	.st29{fill:none;stroke:#7A8D92;stroke-width:0.41;stroke-miterlimit:10;}
	.st30{fill:none;stroke:#7A8D92;stroke-width:0.72;stroke-miterlimit:10;}
	.st31{enable-background:new    ;}
	.st32{fill:none;stroke:#7A8D92;stroke-width:0.593;stroke-miterlimit:10;}
	.st33{fill:none;stroke:#7A8D92;stroke-width:0.598;stroke-miterlimit:10;}
	.st34{fill:none;stroke:#7A8D92;stroke-width:0.492;stroke-miterlimit:10;}
</style>
<g id="shadow">
	<rect x="14.2" y="10.7" class="st0" width="444.6" height="399.2"/>
</g>
<g id="background">
	<rect x="14.2" y="10.7" class="st1" width="428.6" height="387.8"/>
</g>
<g id="spaces">
	<path class="st2" d="M14.2,10.7v276.7h115.2v-47.6h30.8v-6.5h51.6v-49.7h30.6v-24h-81.8v19.8H130v-68.7H95.2V72.6h47.3
		c0,0,10.9-2,10.9-10.4h136.9V10.7H14.2z"/>
	<rect x="12.4" y="349.6" class="st2" width="116.7" height="46.4"/>
	<path class="st2" d="M293.7,190.3c0,0,18.3,28.3,33.3,36.5s45.9,9.2,45.9,9.2h70v-73c0,0-18.4-40.4-33.6-53.4s-35-22.3-70.3-14.1
		S290.4,145,290.4,145l-1.5,21.8L293.7,190.3z"/>
	<rect x="211.7" y="183.7" class="st3" width="30.7" height="49.7"/>
	<rect x="408.1" y="256.8" class="st3" width="36.1" height="125.3"/>
</g>
<g id="furniature">
	<path class="st2" d="M442,161.2V236h-95.2c0,0-36.1-11.5-50.7-42.9s-5.3-58.1,7.8-75.9s46.2-30.3,74.5-23.1s47.7,33.9,54,44.4
		C436.5,145.7,439.7,153.3,442,161.2z"/>
	<path class="st4" d="M355.5,30.6h16.9c0.6,0,1.1-0.4,1.2-1V17.8c-0.1-0.4-0.4-0.6-0.8-0.6h-37.5c-0.4,0-0.8,0.4-0.8,0.8v11.4
		c0,0.7,0.5,1.2,1.2,1.3L355.5,30.6z"/>
	<path class="st5" d="M355.8,29.9h16.9c0.6,0,1.1-0.4,1.2-0.9V17.7c-0.1-0.3-0.5-0.6-0.8-0.6h-37.5c-0.4,0-0.8,0.4-0.8,0.8v10.9
		c0.1,0.6,0.6,1.1,1.2,1.2h17L355.8,29.9z"/>
	<path class="st6" d="M371.9,22.5c0-1.3,0.1-2.5,0.5-3.7c-4.1,1-13.9,1.4-18.1,1.4h-0.9c-3.6,0.1-14.1-0.3-17.7-1.1
		c0.3,1.1,0.4,2.2,0.4,3.3c0,2.6-0.6,4.7-1.5,5.4c0.1,0.6,0.6,1.1,1.2,1.2h36.8c0.6,0,1.1-0.4,1.2-0.9
		C372.7,27.7,371.9,25.4,371.9,22.5z"/>
	<path class="st7" d="M373.8,16.8c-0.1-0.3-0.5-0.6-0.8-0.6h-37.5c-0.4,0-0.8,0.4-0.8,0.8c0.3,0.2,0.5,0.5,0.6,0.8h37.6
		C373,17.4,373.4,17,373.8,16.8z"/>
	<path class="st8" d="M353.4,21.2h0.9c4.2,0.1,14-0.4,18.1-1.4c0.1-0.3,0.3-0.7,0.4-1h-37.6c0.2,0.4,0.4,0.9,0.5,1.3
		C339.3,21,349.8,21.3,353.4,21.2z"/>
	<path class="st7" d="M353.4,20.3h0.9c4.2,0.1,14-0.4,18.1-1.4c0.1-0.3,0.3-0.7,0.4-1h-37.6c0.2,0.4,0.4,0.9,0.5,1.3
		C339.3,20,349.8,20.4,353.4,20.3z"/>
	<path class="st7" d="M336.1,22.5c0-1.1-0.1-2.2-0.4-3.3c-0.1-0.8-0.5-1.5-1.1-2.1V28C335.5,27.2,336.1,25,336.1,22.5z"/>
	<path class="st7" d="M371.9,22.4c0-1.1,0.2-2.2,0.5-3.3c0.2-0.8,0.7-1.6,1.4-2.1v10.9C372.7,27.1,371.9,24.9,371.9,22.4z"/>
	<circle class="st4" cx="354.4" cy="177.7" r="7.1"/>
	<circle class="st5" cx="354.4" cy="176.7" r="7.1"/>
	<circle class="st6" cx="354.4" cy="175.8" r="7.1"/>
	<path class="st9" d="M366.9,128.6c-1.5,0.1-2.8-1-3-2.5l-0.3-4.3c-0.1-2.2,1.4-4.2,3.6-4.6l2.9-0.5c2.2-0.4,4.3,1,4.8,3.2l1,4.2
		l0.1,0.2l0,0c0.3,1.5-0.8,2.9-2.3,3.2l0,0l-6.6,1.1L366.9,128.6z"/>
	<path class="st5" d="M366.6,129.2L366.6,129.2c-1.5,0.1-2.8-1-3-2.5l-0.3-4.3c-0.1-2.2,1.4-4.2,3.6-4.6l2.9-0.5
		c2.2-0.4,4.3,1,4.8,3.2l1,4.2l0.1,0.5c0,1.4-1,2.6-2.4,2.9l-6.5,1.1C366.8,129,366.6,129.1,366.6,129.2z"/>
	<path class="st10" d="M365.9,129.8c-1.5,0-2.7-1.2-2.8-2.7l-0.4-4c-0.1-2.2,1.4-4.2,3.6-4.6l2.9-0.5c2.2-0.4,4.3,1,4.8,3.2l1,4.2
		l0.1,0.2l0,0c0.3,1.5-0.8,2.9-2.3,3.2l0,0l-6.6,1.1L365.9,129.8z"/>
	<path class="st11" d="M366.9,129.1c-0.5,0.1-1,0-1.4-0.3c-0.6-0.4-1-1.1-1.1-1.8l-0.2-2.9c-0.2-1.9,1.2-3.7,3.1-4l1.7-0.3
		c1.9-0.3,3.8,0.9,4.2,2.8l0.7,3v0.1l0,0c0.2,1.2-0.6,2.3-1.8,2.5l0,0L366.9,129.1L366.9,129.1z"/>
	<path class="st4" d="M389.4,182.8l-7.4,10.1c-0.2,0.4-0.1,1,0.3,1.3l9.6,7c0.3,0.2,0.6,0.1,0.9-0.1l16.4-22.4c0.2-0.4,0-0.8-0.3-1
		l-9.2-6.7c-0.4-0.4-1.1-0.4-1.5,0L389.4,182.8z"/>
	<path class="st5" d="M389.9,183.4l-7.4,10.1c-0.2,0.4-0.1,1,0.2,1.3l9.1,6.6c0.3,0.1,0.6,0.1,0.8-0.2l16.4-22.4
		c0.2-0.4,0-0.8-0.3-1l-8.8-6.4c-0.4-0.3-1-0.3-1.5,0l-7.5,10.2L389.9,183.4z"/>
	<path class="st6" d="M388.8,197.4c1,0.7,1.9,1.6,2.8,2.5c1-3,4.9-9.1,6.8-11.6l0.4-0.6c1.5-2.2,6.4-8.3,8.6-9.9
		c-1-0.5-2-1.1-2.9-1.7c-2.1-1.5-3.5-3.2-3.7-4.1c-0.4-0.3-1-0.3-1.5,0l-16,21.9c-0.2,0.4-0.1,1,0.2,1.3
		C384.2,194.8,386.5,195.7,388.8,197.4z"/>
	<path class="st7" d="M392.6,201.9c0.3,0.1,0.6,0.1,0.8-0.2l16.4-22.4c0.2-0.4,0-0.8-0.3-1c-0.3,0-0.6,0-0.9-0.1l-16.4,22.4
		C392.5,201,392.6,201.4,392.6,201.9z"/>
	<path class="st8" d="M397.9,187.1l-0.4,0.6c-1.9,2.5-5.8,8.6-6.8,11.6c0.2,0.3,0.4,0.6,0.6,0.9l16.4-22.4c-0.4-0.1-0.9-0.3-1.3-0.5
		C404.3,178.8,399.4,184.9,397.9,187.1z"/>
	<path class="st7" d="M398.7,187.7l-0.4,0.6c-1.9,2.5-5.8,8.6-6.8,11.6c0.2,0.3,0.4,0.6,0.6,0.9l16.4-22.4c-0.4-0.1-0.9-0.3-1.3-0.5
		C405,179.4,400.1,185.4,398.7,187.7z"/>
	<path class="st7" d="M404.4,176.1c0.9,0.7,1.9,1.2,2.9,1.7c0.7,0.4,1.4,0.6,2.1,0.6l-8.8-6.4C400.9,172.9,402.4,174.6,404.4,176.1z
		"/>
	<path class="st7" d="M388.9,197.5c0.9,0.7,1.7,1.4,2.5,2.3c0.6,0.6,0.9,1.3,1.1,2l-8.8-6.4C384.7,195.2,386.8,196,388.9,197.5z"/>
	<path class="st4" d="M385,143.2l6.8,10.4c0.3,0.4,0.9,0.4,1.3,0.2l9.9-6.5c0.3-0.2,0.3-0.6,0.2-0.8L388,123.3
		c-0.3-0.3-0.7-0.3-1-0.1l-9.6,6.2c-0.5,0.3-0.8,0.9-0.6,1.4L385,143.2z"/>
	<path class="st5" d="M385.8,142.9l6.8,10.4c0.3,0.4,0.8,0.5,1.3,0.2l9.4-6.1c0.2-0.2,0.3-0.5,0.1-0.8l-15.2-23.2
		c-0.3-0.3-0.7-0.3-1-0.1l-9.1,5.9c-0.5,0.3-0.7,0.9-0.5,1.4l6.9,10.6L385.8,142.9z"/>
	<path class="st6" d="M398.5,148.9c1-0.7,2.1-1.3,3.3-1.7c-2.5-2-6.8-7.8-8.5-10.4l-0.4-0.6c-1.5-2.2-5.5-8.9-6.3-11.5
		c-0.8,0.8-1.7,1.5-2.6,2.1c-2.2,1.4-4.2,2.2-5.1,2c-0.5,0.3-0.7,0.9-0.5,1.4l14.9,22.7c0.3,0.4,0.8,0.5,1.3,0.2
		C394.4,152.3,396.1,150.4,398.5,148.9z"/>
	<path class="st7" d="M404,146.9c0.2-0.2,0.3-0.5,0.1-0.8L389,122.9c-0.3-0.3-0.7-0.3-1-0.1c-0.1,0.3-0.2,0.5-0.4,0.8l15.2,23.3
		C403.2,146.8,403.6,146.8,404,146.9z"/>
	<path class="st8" d="M392.1,136.7l0.4,0.6c1.6,2.6,6,8.4,8.5,10.4c0.3-0.1,0.7-0.2,1-0.3l-15.2-23.3c-0.3,0.4-0.6,0.7-0.9,1
		C386.6,127.9,390.5,134.5,392.1,136.7z"/>
	<path class="st7" d="M392.9,136.2l0.4,0.6c1.6,2.6,6,8.5,8.5,10.4c0.3-0.1,0.7-0.2,1-0.3l-15.2-23.3c-0.3,0.4-0.6,0.7-0.9,1
		C387.4,127.3,391.3,134,392.9,136.2z"/>
	<path class="st7" d="M384,126.7c0.9-0.6,1.8-1.3,2.6-2.1c0.6-0.5,1-1.1,1.3-1.8l-9.1,5.9C379.9,128.9,381.9,128.1,384,126.7z"/>
	<path class="st7" d="M398.5,148.8c0.9-0.6,1.9-1.1,3-1.5c0.7-0.3,1.5-0.4,2.3-0.3l-9.1,5.9C394.9,151.9,396.4,150.2,398.5,148.8z"
		/>
	<path class="st4" d="M344.8,184.3l-8.7-8.9c-0.4-0.3-1-0.3-1.3,0.1l-8.5,8.3c-0.2,0.2-0.2,0.6,0,0.9l19.3,19.9
		c0.3,0.2,0.8,0.2,1-0.1l8.2-8c0.5-0.4,0.6-1,0.3-1.5L344.8,184.3z"/>
	<path class="st5" d="M344.1,184.7l-8.7-8.9c-0.4-0.3-0.9-0.3-1.3,0l-8.1,7.8c-0.2,0.2-0.2,0.6,0,0.8l19.3,19.9
		c0.3,0.2,0.8,0.2,1-0.1l7.8-7.6c0.4-0.4,0.5-1,0.2-1.5l-8.8-9.1L344.1,184.7z"/>
	<path class="st6" d="M330.5,181.3c-0.9,0.9-1.9,1.7-2.9,2.3c2.8,1.5,8.2,6.3,10.3,8.6l0.5,0.5c1.9,1.9,7.1,7.7,8.3,10.1
		c0.6-0.9,1.4-1.8,2.2-2.6c1.8-1.8,3.7-2.9,4.6-3c0.4-0.4,0.5-1,0.2-1.5l-18.9-19.5c-0.4-0.3-0.9-0.3-1.3,0
		C333.8,177.2,332.5,179.3,330.5,181.3z"/>
	<path class="st7" d="M325.4,184.2c-0.2,0.2-0.2,0.6,0,0.8l19.3,19.9c0.3,0.2,0.8,0.2,1-0.1c0-0.3,0.1-0.6,0.2-0.8l-19.4-19.9
		C326.3,184.3,325.9,184.3,325.4,184.2z"/>
	<path class="st8" d="M339.1,192l-0.5-0.5c-2.1-2.3-7.5-7.2-10.3-8.6c-0.3,0.2-0.6,0.3-0.9,0.5l19.4,19.9c0.2-0.4,0.4-0.8,0.7-1.2
		C346.2,199.6,341,193.9,339.1,192z"/>
	<path class="st7" d="M338.4,192.6l-0.5-0.5c-2.1-2.3-7.5-7.2-10.3-8.6c-0.3,0.2-0.6,0.3-0.9,0.5l19.4,19.9c0.2-0.4,0.4-0.8,0.7-1.2
		C345.5,200.3,340.4,194.5,338.4,192.6z"/>
	<path class="st7" d="M348.9,200.2c-0.8,0.8-1.5,1.6-2.2,2.6c-0.5,0.6-0.8,1.3-0.9,2l7.8-7.6C352.6,197.3,350.7,198.5,348.9,200.2z"
		/>
	<path class="st7" d="M330.4,181.3c-0.8,0.8-1.7,1.5-2.6,2.1c-0.6,0.5-1.4,0.7-2.2,0.7l7.8-7.6C333.4,177.6,332.2,179.6,330.4,181.3
		z"/>
	<path class="st4" d="M175.2,76.3l4.5-5.9c0.4-0.5,1.2-0.6,1.8-0.2l5.9,4.5c0.5,0.4,0.6,1.2,0.2,1.8l-4.5,5.9
		c-0.4,0.5-1.2,0.6-1.8,0.2l-5.9-4.5C174.9,77.7,174.8,76.9,175.2,76.3L175.2,76.3L175.2,76.3L175.2,76.3z"/>
	<path class="st5" d="M175.6,75.8l4.5-5.9c0.4-0.5,1.2-0.6,1.8-0.2l5.9,4.5c0.5,0.4,0.6,1.2,0.2,1.8l-4.5,5.9
		c-0.4,0.5-1.2,0.6-1.8,0.2l-5.9-4.5C175.3,77.1,175.2,76.4,175.6,75.8z"/>
	<path class="st12" d="M176,75.2l4.5-5.9c0.4-0.5,1.2-0.6,1.8-0.2l5.9,4.5c0.5,0.4,0.6,1.2,0.2,1.8l-4.5,5.9
		c-0.4,0.5-1.2,0.6-1.8,0.2l-5.9-4.5C175.7,76.6,175.6,75.8,176,75.2L176,75.2L176,75.2L176,75.2z"/>
	<path class="st13" d="M181.4,67.7l1.2-1.5c0.3-0.3,0.7-0.4,1.1-0.1l0,0l7.2,5.5c0.3,0.3,0.4,0.7,0.1,1.1l0,0l-1.2,1.5
		c-0.3,0.3-0.7,0.4-1.1,0.1l0,0l-7.2-5.5C181.2,68.5,181.2,68,181.4,67.7z"/>
	<path class="st8" d="M175.7,75.2l4.8-6.2c0.3-0.3,0.7-0.4,1.1-0.2l0,0c0.3,0.3,0.4,0.7,0.2,1.1l-4.8,6.2c-0.3,0.3-0.7,0.4-1.1,0.2
		l0,0c-0.3-0.2-0.5-0.6-0.3-0.9L175.7,75.2z"/>
	<path class="st8" d="M182.9,80.6l4.8-6.2c0.3-0.3,0.7-0.4,1.1-0.2l0,0c0.3,0.3,0.4,0.7,0.2,1.1l-4.8,6.2c-0.3,0.3-0.7,0.4-1.1,0.2
		l0,0c-0.3-0.2-0.4-0.6-0.3-1l0,0L182.9,80.6z"/>
	<path class="st14" d="M175.5,74.5l4.8-6.2c0.3-0.3,0.7-0.4,1.1-0.2l0,0c0.3,0.3,0.4,0.7,0.2,1.1l-4.8,6.2c-0.3,0.3-0.7,0.4-1.1,0.2
		l0,0c-0.3-0.2-0.4-0.6-0.3-1l0,0L175.5,74.5z"/>
	<path class="st14" d="M183.5,81.1l4.8-6.2c0.3-0.3,0.7-0.4,1.1-0.2l0,0c0.3,0.3,0.4,0.7,0.2,1.1l-4.8,6.2c-0.3,0.3-0.7,0.4-1.1,0.2
		l0,0C183.3,81.9,183.2,81.5,183.5,81.1z"/>
	<path class="st4" d="M155.7,73.3c-0.2-0.1-0.4,0-0.6,0.1l0,0c-0.4,0.2-0.5,0.7-0.2,1.1l0,0l4.1,6.7c0.2,0.4,0.7,0.5,1.1,0.2
		c0.2-0.1,0.3-0.3,0.4-0.5c0.4,0.2,0.8,0.2,1.2-0.1l6.3-3.9c0.3-0.2,0.5-0.5,0.6-0.9c0.4,0.1,0.8-0.1,0.9-0.5l0,0
		c0-0.2,0-0.4-0.1-0.6l-4.1-6.7c-0.2-0.4-0.7-0.5-1-0.3l0,0l0,0c-0.2,0.1-0.3,0.2-0.4,0.4c-0.1,0-0.2-0.1-0.4-0.1
		c0.3-0.2,0.4-0.6,0.3-1l0,0l-1-1.7c-0.2-0.3-0.6-0.4-1-0.3l0,0l0,0L154,70c-0.3,0.2-0.4,0.6-0.3,1l0,0l0,0l0,0l1,1.6
		c0.2,0.3,0.6,0.4,1,0.3l0,0l0.1-0.1C155.6,73.1,155.7,73.2,155.7,73.3z"/>
	<path class="st5" d="M156.1,73.9c-0.2-0.1-0.4,0-0.6,0.1l0,0c-0.4,0.2-0.5,0.7-0.2,1.1l0,0l4.1,6.6c0.2,0.4,0.7,0.5,1.1,0.2
		c0.2-0.1,0.3-0.3,0.4-0.5c0.4,0.2,0.8,0.2,1.2-0.1l6.3-3.9c0.3-0.2,0.5-0.5,0.6-0.9c0.4,0.1,0.8-0.1,0.9-0.5l0,0
		c0-0.2,0-0.4-0.1-0.6l-4.1-6.6c-0.2-0.4-0.7-0.5-1-0.3l0,0l0,0c-0.2,0.1-0.3,0.2-0.4,0.4c-0.1,0-0.2-0.1-0.4-0.1
		c0.3-0.2,0.4-0.6,0.3-1l0,0l-1-1.7c-0.2-0.3-0.6-0.4-1-0.3l0,0l0,0l-7.8,4.8c-0.3,0.2-0.4,0.6-0.3,1l0,0l1,1.7
		c0.2,0.3,0.6,0.4,1,0.3l0,0l0.1-0.1C156.2,73.7,156.2,73.8,156.1,73.9L156.1,73.9L156.1,73.9z"/>
	<path class="st12" d="M165.2,70.2l3.9,6.3c0.4,0.6,0.2,1.3-0.4,1.7l0,0l0,0l-6.3,3.9c-0.6,0.4-1.3,0.2-1.7-0.4l0,0l0,0l-3.9-6.3
		c-0.4-0.6-0.2-1.3,0.4-1.7l0,0l0,0l6.3-3.9C164,69.4,164.8,69.6,165.2,70.2z"/>
	<path class="st13" d="M163.5,66.9l1,1.6c0.2,0.3,0.1,0.8-0.2,1l0,0l0,0l-7.8,4.8c-0.3,0.2-0.8,0.1-1-0.2l0,0l-1-1.7
		c-0.2-0.3-0.1-0.8,0.2-1l0,0l0,0l7.8-4.8C162.8,66.5,163.2,66.6,163.5,66.9L163.5,66.9L163.5,66.9z"/>
	<path class="st8" d="M165.3,69.9l4.1,6.7c0.2,0.4,0.1,0.8-0.2,1.1l0,0c-0.4,0.2-0.8,0.1-1.1-0.2l-4.1-6.7c-0.2-0.4-0.1-0.8,0.2-1.1
		l0,0C164.6,69.5,165.1,69.6,165.3,69.9z"/>
	<path class="st8" d="M157.6,74.6l4.1,6.7c0.2,0.4,0.1,0.8-0.2,1.1l0,0c-0.4,0.2-0.8,0.1-1.1-0.2l-4.1-6.7c-0.2-0.4-0.1-0.8,0.2-1.1
		l0,0C156.9,74.1,157.3,74.2,157.6,74.6L157.6,74.6z"/>
	<path class="st14" d="M166,69.5l4.1,6.7c0.2,0.4,0.1,0.8-0.2,1.1l0,0c-0.4,0.2-0.8,0.1-1.1-0.2l-4.1-6.7c-0.2-0.4-0.1-0.8,0.2-1.1
		l0,0C165.3,69.1,165.8,69.2,166,69.5z"/>
	<path class="st14" d="M156.9,75.1l4.1,6.7c0.2,0.4,0.1,0.8-0.2,1.1l0,0c-0.4,0.2-0.8,0.1-1.1-0.2l-4.1-6.7
		c-0.2-0.4-0.1-0.8,0.2-1.1l0,0C156.2,74.6,156.7,74.7,156.9,75.1z"/>
	<path class="st15" d="M172.7,80.3h1.1c2.6,0,4.8,2.1,4.8,4.8l0,0l0,0v1.1c0,2.6-2.1,4.8-4.8,4.8l0,0h-1.1c-2.6,0-4.8-2.1-4.8-4.8
		l0,0l0,0V85C167.9,82.4,170,80.3,172.7,80.3C172.6,80.3,172.6,80.3,172.7,80.3L172.7,80.3z"/>
	<path class="st15" d="M172.7,79.2h1.1c2.6,0,4.8,2.1,4.8,4.8l0,0l0,0v1.1c0,2.6-2.1,4.8-4.8,4.8l0,0h-1.1c-2.6,0-4.8-2.1-4.8-4.8
		l0,0l0,0V84C167.9,81.4,170,79.2,172.7,79.2C172.6,79.2,172.6,79.2,172.7,79.2L172.7,79.2z"/>
	<path class="st15" d="M173.2,78.3h0.1c3,0,5.4,2.4,5.4,5.3l0,0l0,0c0,3-2.4,5.4-5.3,5.4l0,0h-0.1c-3,0-5.4-2.4-5.4-5.3l0,0l0,0
		C167.9,80.7,170.3,78.3,173.2,78.3L173.2,78.3z"/>
	<circle class="st4" cx="374.7" cy="149.5" r="7.1"/>
	<circle class="st5" cx="374.7" cy="148.5" r="7.1"/>
	<circle class="st6" cx="374.7" cy="147.6" r="7.1"/>
	<circle class="st4" cx="382.4" cy="177.1" r="7.1"/>
	<circle class="st5" cx="382.4" cy="176.1" r="7.1"/>
	<circle class="st6" cx="382.4" cy="175.2" r="7.1"/>
	<circle class="st4" cx="376.1" cy="159.5" r="4.3"/>
	<circle class="st5" cx="376.1" cy="158.9" r="4.3"/>
	<circle class="st6" cx="376.1" cy="158.3" r="4.3"/>
	<circle class="st4" cx="374.1" cy="180.9" r="4.3"/>
	<circle class="st5" cx="374.1" cy="180.3" r="4.3"/>
	<circle class="st6" cx="374.1" cy="179.7" r="4.3"/>
	<path class="st9" d="M341.3,163.2c-1.1,1-2.8,0.9-3.9-0.2l-2.9-3.2c-1.5-1.7-1.5-4.2-0.1-5.9l2-2.2c1.5-1.7,4-1.9,5.8-0.5l3.4,2.6
		l0.1,0.1l0,0c1.1,1,1.2,2.8,0.2,3.9l0,0l-4.5,5L341.3,163.2z"/>
	<path class="st5" d="M341.4,163.9L341.4,163.9c-1.1,1-2.8,0.9-3.9-0.2l-2.9-3.2c-1.5-1.7-1.5-4.2-0.1-5.9l2-2.2
		c1.5-1.7,4-1.9,5.8-0.5l3.4,2.6l0.4,0.3c0.9,1.1,0.8,2.7-0.1,3.7l-4.4,4.9C341.5,163.7,341.4,163.8,341.4,163.9z"/>
	<path class="st10" d="M341.2,164.8c-1.2,0.9-2.9,0.7-3.9-0.4l-2.8-3c-1.5-1.7-1.5-4.2-0.1-5.9l2-2.2c1.5-1.7,4-1.9,5.8-0.5l3.4,2.6
		l0.1,0.1l0,0c1.1,1,1.2,2.8,0.2,3.9l-4.5,5L341.2,164.8z"/>
	<path class="st11" d="M341.6,163.6c-0.3,0.4-0.8,0.6-1.3,0.7c-0.7,0.1-1.5-0.2-2-0.8l-2-2.2c-1.3-1.4-1.4-3.6-0.1-5.1l1.1-1.3
		c1.3-1.5,3.5-1.6,5-0.4l2.4,1.9l0.1,0.1h0.1c0.9,0.8,0.9,2.2,0.1,3l0,0L341.6,163.6z"/>
	<path class="st9" d="M376.4,195.9c1.5-0.1,2.8,1,3,2.4l0.5,4.3c0.2,2.2-1.3,4.3-3.4,4.7l-2.9,0.6c-2.2,0.4-4.4-0.9-4.9-3.1
		l-1.2-4.1l-0.1-0.2l0,0c-0.3-1.5,0.7-3,2.2-3.3l6.6-1.3L376.4,195.9z"/>
	<path class="st5" d="M376.7,195.3L376.7,195.3c1.5-0.1,2.8,1,3,2.4l0.5,4.3c0.2,2.2-1.3,4.3-3.4,4.7l-2.9,0.6
		c-2.2,0.4-4.4-0.9-4.9-3.1l-1.2-4.1l-0.1-0.5c-0.1-1.4,0.9-2.7,2.3-2.9l6.4-1.3C376.5,195.4,376.6,195.4,376.7,195.3z"/>
	<path class="st10" d="M377.4,194.6c1.5,0,2.8,1.2,2.9,2.7l0.5,4c0.2,2.2-1.3,4.3-3.4,4.7l-2.9,0.6c-2.2,0.4-4.4-0.9-4.9-3.1
		l-1.2-4.1l-0.1-0.2l0,0c-0.3-1.5,0.7-3,2.2-3.3l6.6-1.3L377.4,194.6z"/>
	<path class="st11" d="M376.3,195.4c0.5-0.1,1,0,1.4,0.2c0.7,0.4,1.1,1,1.1,1.8l0.3,2.9c0.2,1.9-1,3.7-2.9,4.1l-1.7,0.4
		c-1.9,0.4-3.8-0.8-4.3-2.7l-0.8-3V199l0,0c-0.2-1.2,0.6-2.3,1.7-2.5l0,0L376.3,195.4L376.3,195.4z"/>
	<path class="st9" d="M365.2,48.4c1.4-0.5,3,0.2,3.6,1.6l1.6,4c0.8,2.1-0.1,4.4-2.1,5.5l-2.7,1.3c-2,1-4.4,0.3-5.6-1.7l-2.2-3.7
		l-0.1-0.1l0,0c-0.7-1.4-0.1-3,1.3-3.7l6-3L365.2,48.4z"/>
	<path class="st5" d="M365.4,47.7L365.4,47.7c1.4-0.5,3,0.2,3.6,1.6l1.6,4c0.8,2.1-0.1,4.4-2.1,5.5l-2.7,1.3c-2,1-4.4,0.3-5.6-1.7
		l-2.2-3.7l-0.2-0.4c-0.4-1.3,0.2-2.8,1.5-3.4l5.9-2.9C365.2,47.9,365.3,47.8,365.4,47.7z"/>
	<path class="st10" d="M365.8,46.9c1.5-0.4,3,0.4,3.5,1.8l1.5,3.8c0.8,2.1-0.1,4.4-2.1,5.5l-2.7,1.3c-2,1-4.4,0.3-5.6-1.7l-2.2-3.7
		l-0.1-0.1l0,0c-0.7-1.4-0.1-3,1.3-3.7l6-3L365.8,46.9z"/>
	<path class="st11" d="M365,47.9c0.4-0.2,0.9-0.3,1.4-0.2c0.7,0.2,1.3,0.7,1.5,1.4l1,2.7c0.7,1.8,0,3.9-1.8,4.7l-1.5,0.8
		c-1.7,0.9-3.9,0.2-4.8-1.5l-1.5-2.7l-0.1-0.1l0,0c-0.5-1.1-0.1-2.3,1-2.9l0,0L365,47.9L365,47.9z"/>
	<path class="st9" d="M399.1,28.9c-1,1.2-2.7,1.4-3.9,0.4l-3.4-2.7c-1.7-1.4-2.1-3.9-1-5.8l1.6-2.5c1.2-1.9,3.7-2.5,5.6-1.4l3.8,2.1
		l0.2,0.1l0,0c1.3,0.8,1.6,2.6,0.8,3.8l-3.6,5.6L399.1,28.9z"/>
	<path class="st5" d="M399.2,29.5L399.2,29.5c-1,1.2-2.7,1.4-3.9,0.5l-3.4-2.7c-1.7-1.4-2.1-3.9-1-5.8l1.6-2.5
		c1.2-1.9,3.7-2.5,5.6-1.4l3.8,2.1l0.4,0.3c1,1,1.2,2.5,0.5,3.7l-3.6,5.5C399.3,29.3,399.2,29.4,399.2,29.5z"/>
	<path class="st10" d="M399.3,30.5c-1,1.1-2.8,1.2-3.9,0.2l-3.2-2.5c-1.7-1.4-2.1-3.9-1-5.8l1.6-2.5c1.2-1.9,3.7-2.5,5.6-1.4
		l3.8,2.1l0.2,0.1l0,0c1.3,0.8,1.6,2.6,0.8,3.8l-3.6,5.6L399.3,30.5z"/>
	<path class="st11" d="M399.4,29.2c-0.3,0.4-0.7,0.7-1.1,0.9c-0.7,0.2-1.5,0-2-0.5l-2.3-1.8c-1.5-1.2-1.9-3.3-0.9-5l0.9-1.4
		c1.1-1.6,3.2-2.2,4.9-1.1l2.7,1.5l0.1,0.1h0.1c1,0.7,1.2,2,0.6,3l0,0L399.4,29.2z"/>
	<circle class="st4" cx="408.7" cy="37.9" r="5.1"/>
	<circle class="st5" cx="408.7" cy="37.1" r="5.1"/>
	<circle class="st6" cx="408.7" cy="36.5" r="5.1"/>
	<circle class="st4" cx="352.8" cy="42.2" r="5.1"/>
	<circle class="st5" cx="352.8" cy="41.5" r="5.1"/>
	<circle class="st6" cx="352.8" cy="40.8" r="5.1"/>
	<circle class="st4" cx="395.9" cy="48.2" r="3.7"/>
	<circle class="st5" cx="395.9" cy="47.7" r="3.7"/>
	<circle class="st6" cx="395.9" cy="47.2" r="3.7"/>
	<circle class="st4" cx="339.8" cy="52.4" r="3.7"/>
	<circle class="st5" cx="339.8" cy="51.8" r="3.7"/>
	<circle class="st6" cx="339.8" cy="51.4" r="3.7"/>
	<path class="st4" d="M414.7,47.8l5.1,5.4c0.4,0.5,0.4,1.3-0.1,1.8l-5.4,5.1c-0.5,0.4-1.3,0.4-1.8-0.1l-5.1-5.4
		c-0.4-0.5-0.4-1.3,0.1-1.8l5.4-5.1C413.4,47.3,414.2,47.3,414.7,47.8C414.6,47.7,414.6,47.7,414.7,47.8L414.7,47.8L414.7,47.8z"/>
	<path class="st5" d="M415.1,48.2l5.1,5.4c0.4,0.5,0.4,1.3-0.1,1.8l-5.4,5.1c-0.5,0.4-1.3,0.4-1.8-0.1l-5.1-5.4
		c-0.4-0.5-0.4-1.3,0.1-1.8l5.4-5.1C413.8,47.7,414.6,47.7,415.1,48.2z"/>
	<path class="st12" d="M415.7,48.8l5.1,5.4c0.4,0.5,0.4,1.3-0.1,1.8l-5.4,5.1c-0.5,0.4-1.3,0.4-1.8-0.1l-5.1-5.4
		c-0.4-0.5-0.4-1.3,0.1-1.8l5.4-5.1C414.3,48.2,415.1,48.2,415.7,48.8C415.6,48.7,415.6,48.7,415.7,48.8L415.7,48.8L415.7,48.8z"/>
	<path class="st13" d="M422.1,55.3l1.3,1.4c0.3,0.3,0.3,0.8,0,1.1l0,0l-6.7,6.2c-0.3,0.3-0.8,0.3-1.1-0.1l0,0l-1.3-1.4
		c-0.3-0.3-0.3-0.8,0-1.1l0,0l6.7-6.2C421.4,55,421.8,55,422.1,55.3L422.1,55.3z"/>
	<path class="st8" d="M415.7,48.4l5.3,5.7c0.3,0.3,0.3,0.8,0,1.1l0,0c-0.3,0.3-0.8,0.3-1.1,0l-5.3-5.7c-0.3-0.3-0.3-0.8,0-1.1l0,0
		c0.2-0.3,0.7-0.4,1-0.1L415.7,48.4z"/>
	<path class="st8" d="M409.1,54.6l5.3,5.7c0.3,0.3,0.3,0.8,0,1.1l0,0c-0.3,0.3-0.8,0.3-1.1,0l-5.3-5.7c-0.3-0.3-0.3-0.8,0-1.1l0,0
		c0.3-0.3,0.7-0.3,1-0.1l0,0L409.1,54.6z"/>
	<path class="st14" d="M416.4,48.3l5.3,5.7c0.3,0.3,0.3,0.8,0,1.1l0,0c-0.3,0.3-0.8,0.3-1.1,0l-5.3-5.7c-0.3-0.3-0.3-0.8,0-1.1l0,0
		c0.3-0.3,0.7-0.3,1-0.1l0,0L416.4,48.3z"/>
	<path class="st14" d="M408.6,55.1l5.3,5.7c0.3,0.3,0.3,0.8,0,1.1l0,0c-0.3,0.3-0.8,0.3-1.1,0l-5.3-5.7c-0.3-0.3-0.3-0.8,0-1.1l0,0
		C407.8,54.8,408.2,54.8,408.6,55.1z"/>
	<path class="st16" d="M167.8,110.5l21.7,13.7c3.7,2.4,5.5,6.4,3.8,9.1l0,0l-2,3.1c-1.7,2.6-6.1,2.9-9.8,0.5l0,0l-21.8-13.7
		c-3.7-2.4-5.5-6.4-3.8-9.1l0,0l2-3.1C159.6,108.4,164,108.1,167.8,110.5L167.8,110.5z"/>
	<path class="st17" d="M168.1,110l21.7,13.7c3.7,2.4,5.5,6.4,3.8,9.1l0,0l-2,3.1c-1.7,2.6-6.1,2.9-9.8,0.5l0,0L160,122.7
		c-3.7-2.4-5.5-6.4-3.8-9.1l0,0l2-3.1C159.9,107.9,164.3,107.6,168.1,110L168.1,110z"/>
	<path class="st18" d="M168.6,109.3l21.7,13.7c3.7,2.4,5.5,6.4,3.8,9.1l0,0l-2,3.1c-1.7,2.6-6.1,2.9-9.8,0.5l0,0L160.6,122
		c-3.7-2.4-5.5-6.4-3.8-9.1l0,0l2-3.1C160.4,107.2,164.8,106.9,168.6,109.3L168.6,109.3z"/>
	<path class="st9" d="M172.1,132.8c1.3,1,1.5,2.8,0.6,4.1l0,0v0.1l-2.8,3.7c-1.5,1.9-4.2,2.3-6.2,1L161,140c-2.1-1.3-2.8-4-1.5-6.1
		l0,0l2.2-4.1l0.1-0.2l0,0c0.9-1.4,2.7-1.8,4.1-0.9l0,0l0,0l6.1,3.9L172.1,132.8z"/>
	<path class="st19" d="M172.7,132.7L172.7,132.7c1.3,1,1.5,2.8,0.6,4.1l0,0v0.1l-2.8,3.7c-1.5,1.9-4.2,2.3-6.2,1l-2.7-1.7
		c-2.1-1.3-2.8-4-1.5-6.1l0,0l2.2-4.1l0.3-0.4c1-1.1,2.7-1.4,4-0.5l5.9,3.8C172.4,132.6,172.5,132.7,172.7,132.7z"/>
	<path class="st20" d="M173.4,132.7c1.2,1.1,1.3,3,0.2,4.2l-2.6,3.5c-1.5,1.9-4.2,2.3-6.2,1l-2.7-1.7c-2.1-1.3-2.8-4-1.5-6.1l0,0
		l2.2-4.1l0.1-0.2l0,0c0.9-1.4,2.7-1.8,4.1-0.9l0,0l0,0l6.1,3.9L173.4,132.7z"/>
	<path class="st21" d="M172.4,132.7c0.9,0.9,0.9,2.3,0.1,3.2l-1.9,2.5c-1.3,1.7-3.6,2.1-5.4,0.9l-1.6-1c-1.8-1.1-2.3-3.4-1.3-5.3
		l1.7-2.9l0.1-0.1l0,0v-0.1l0,0c0.7-1,2-1.3,3.1-0.7l4.9,3.1C172.2,132.5,172.3,132.7,172.4,132.7z"/>
	<path class="st16" d="M256.8,46.8V29.2c0-3.1,2.6-5.6,5.6-5.5h3.7c3.1,0,5.6,2.4,5.7,5.5l0,0v17.7c0,3.1-2.6,5.6-5.6,5.5h-3.7
		C259.4,52.4,256.8,50,256.8,46.8L256.8,46.8z"/>
	<path class="st17" d="M256.1,46.8V29.2c0-3.1,2.6-5.6,5.6-5.5h3.7c3.1,0,5.6,2.4,5.7,5.5l0,0v17.7c0,3.1-2.6,5.6-5.6,5.5h-3.7
		C258.8,52.4,256.2,50,256.1,46.8L256.1,46.8z"/>
	<path class="st18" d="M255.3,46.8V29.2c0-3.1,2.6-5.6,5.6-5.5h3.7c3.1,0,5.6,2.4,5.7,5.5l0,0v17.7c0,3.1-2.6,5.6-5.6,5.5H261
		C257.9,52.4,255.4,50,255.3,46.8L255.3,46.8z"/>
	<path class="st16" d="M421.6,44.6V26.9c0-3.1,2.6-5.6,5.6-5.5h3.7c3.1,0,5.6,2.4,5.7,5.5l0,0v17.7c0,3.1-2.6,5.6-5.6,5.5h-3.7
		C424.2,50.2,421.6,47.7,421.6,44.6L421.6,44.6z"/>
	<path class="st17" d="M420.9,44.6V26.9c0-3.1,2.6-5.6,5.6-5.5h3.7c3.1,0,5.6,2.4,5.7,5.5l0,0v17.7c0,3.1-2.6,5.6-5.6,5.5h-3.7
		C423.5,50.2,421,47.7,420.9,44.6L420.9,44.6z"/>
	<path class="st18" d="M420.1,44.6V26.9c0-3.1,2.6-5.6,5.6-5.5h3.7c3.1,0,5.6,2.4,5.7,5.5l0,0v17.7c0,3.1-2.6,5.6-5.6,5.5h-3.7
		C422.7,50.2,420.2,47.7,420.1,44.6L420.1,44.6z"/>
	<path class="st9" d="M274.1,34.6c0.1-1.6,1.5-2.8,3.1-2.8l0,0h0.1l4.6,0.3c2.4,0.2,4.2,2.2,4.3,4.6l0.1,3.2
		c0.1,2.4-1.7,4.5-4.2,4.7l0,0l-4.6,0.4h-0.2l0,0c-1.6,0-3-1.3-3.1-2.9l0,0l0,0l-0.2-7.2L274.1,34.6z"/>
	<path class="st19" d="M273.7,34.2L273.7,34.2c0.1-1.6,1.5-2.8,3.1-2.8l0,0h0.1l4.6,0.3c2.4,0.2,4.2,2.2,4.3,4.5l0.1,3.2
		c0.1,2.4-1.7,4.5-4.2,4.7l0,0l-4.6,0.4h-0.5c-1.5-0.2-2.7-1.5-2.7-3l-0.2-7.1C273.8,34.4,273.7,34.3,273.7,34.2z"/>
	<path class="st20" d="M273.2,33.5c0.3-1.6,1.8-2.7,3.4-2.5l4.3,0.2c2.4,0.2,4.2,2.2,4.3,4.5l0.1,3.2c0.1,2.4-1.7,4.5-4.2,4.7
		l-4.6,0.4h-0.2l0,0c-1.6,0-3-1.3-3.1-2.9l0,0l0,0l-0.2-7.2L273.2,33.5z"/>
	<path class="st21" d="M273.9,34.4c0.3-1.2,1.4-2,2.6-1.9l3.1,0.2c2.1,0.1,3.7,1.8,3.8,3.9l0.1,1.9c0.1,2.1-1.5,3.9-3.6,4l-3.3,0.3
		h-0.1l0,0h-0.1l0,0c-1.2,0-2.3-0.9-2.3-2.2l-0.2-5.8C273.8,34.7,273.9,34.4,273.9,34.4z"/>
</g>
<g id="bookable">
	<path id="area-0G.03-status" class="st22" d="M16.7,13.9h137.8v47.7c0,6-4.9,10.9-10.9,10.9H16.7V13.9z"/>
	<rect id="area-0G.01-status" x="69.5" y="110.8" class="st22" width="60.5" height="68.6"/>
	<g>
		<path class="st18" d="M67,37.9h2.3c0.5,0,0.8,0,1,0.1s0.4,0.1,0.6,0.2s0.3,0.3,0.4,0.5s0.2,0.4,0.2,0.7s-0.1,0.5-0.2,0.7
			s-0.3,0.4-0.6,0.5c0.3,0.1,0.6,0.3,0.8,0.5s0.3,0.5,0.3,0.9c0,0.3-0.1,0.5-0.2,0.8s-0.3,0.4-0.5,0.6s-0.5,0.2-0.8,0.3
			c-0.2,0-0.7,0-1.4,0H67V37.9z M68.2,38.8v1.3H69c0.5,0,0.7,0,0.8,0c0.2,0,0.4-0.1,0.5-0.2s0.2-0.3,0.2-0.4c0-0.2,0-0.3-0.1-0.4
			s-0.2-0.2-0.4-0.2c-0.1,0-0.4,0-1,0L68.2,38.8L68.2,38.8z M68.2,41.1v1.5h1.1c0.4,0,0.7,0,0.8,0c0.2,0,0.3-0.1,0.4-0.2
			s0.2-0.3,0.2-0.5s0-0.3-0.1-0.4s-0.2-0.2-0.4-0.3s-0.5-0.1-1-0.1H68.2z"/>
		<path class="st18" d="M75.2,42.3l1.1,0.2c-0.1,0.4-0.4,0.7-0.7,0.9s-0.7,0.3-1.1,0.3c-0.7,0-1.3-0.2-1.6-0.7
			c-0.3-0.4-0.4-0.9-0.4-1.4c0-0.7,0.2-1.2,0.5-1.6s0.8-0.6,1.4-0.6s1.1,0.2,1.5,0.6s0.5,1,0.5,1.9h-2.8c0,0.3,0.1,0.6,0.3,0.8
			s0.4,0.3,0.6,0.3s0.3,0,0.4-0.1S75.1,42.5,75.2,42.3z M75.2,41.2c0-0.3-0.1-0.6-0.2-0.7s-0.3-0.2-0.6-0.2c-0.2,0-0.4,0.1-0.6,0.3
			s-0.2,0.4-0.2,0.7L75.2,41.2L75.2,41.2z"/>
		<path class="st18" d="M78,40.7l-1-0.2c0.1-0.4,0.3-0.7,0.6-0.9s0.7-0.3,1.2-0.3s0.9,0.1,1.1,0.2s0.4,0.3,0.5,0.4s0.1,0.5,0.1,1
			v1.3c0,0.4,0,0.6,0.1,0.8s0.1,0.4,0.2,0.6h-1.1c0-0.1-0.1-0.2-0.1-0.3s0-0.1,0-0.1c-0.2,0.2-0.4,0.3-0.6,0.4s-0.4,0.1-0.7,0.1
			c-0.4,0-0.8-0.1-1-0.3s-0.4-0.5-0.4-0.9c0-0.2,0.1-0.4,0.2-0.6s0.3-0.3,0.5-0.4s0.5-0.2,0.9-0.3c0.5-0.1,0.9-0.2,1.1-0.3v-0.1
			c0-0.2-0.1-0.4-0.2-0.5s-0.3-0.1-0.6-0.1c-0.2,0-0.3,0-0.5,0.1S78.1,40.5,78,40.7z M79.5,41.6c-0.1,0-0.4,0.1-0.7,0.2
			s-0.5,0.1-0.6,0.2c-0.1,0.1-0.2,0.2-0.2,0.4s0.1,0.3,0.2,0.4s0.3,0.2,0.4,0.2c0.2,0,0.4-0.1,0.6-0.2c0.1-0.1,0.2-0.2,0.3-0.4
			c0-0.1,0-0.3,0-0.5C79.5,41.9,79.5,41.6,79.5,41.6z"/>
		<path class="st18" d="M83.6,39.5v0.9h-0.8V42c0,0.3,0,0.5,0,0.6s0,0.1,0.1,0.1s0.1,0.1,0.2,0.1s0.2,0,0.4-0.1l0.1,0.9
			c-0.3,0.1-0.5,0.2-0.9,0.2c-0.2,0-0.4,0-0.5-0.1s-0.3-0.2-0.3-0.3s-0.1-0.2-0.2-0.4c0-0.1,0-0.4,0-0.8v-1.8h-0.5v-0.9h0.5v-0.8
			l1.1-0.6v1.5h0.8C83.6,39.6,83.6,39.5,83.6,39.5z"/>
		<path class="st18" d="M84.3,43.6v-5.7h1.1v5.7H84.3z"/>
		<path class="st18" d="M89,42.3l1.1,0.2c-0.1,0.4-0.4,0.7-0.7,0.9s-0.7,0.3-1.1,0.3c-0.7,0-1.3-0.2-1.6-0.7
			c-0.3-0.4-0.4-0.9-0.4-1.4c0-0.7,0.2-1.2,0.5-1.6s0.8-0.6,1.4-0.6s1.1,0.2,1.5,0.6s0.5,1,0.5,1.9h-2.8c0,0.3,0.1,0.6,0.3,0.8
			s0.4,0.3,0.6,0.3s0.3,0,0.4-0.1S88.9,42.5,89,42.3z M89,41.2c0-0.3-0.1-0.6-0.2-0.7s-0.3-0.2-0.6-0.2c-0.2,0-0.4,0.1-0.6,0.3
			s-0.2,0.4-0.2,0.7L89,41.2L89,41.2z"/>
		<path class="st18" d="M90.6,42.4l1.1-0.2c0,0.2,0.1,0.4,0.3,0.5s0.3,0.2,0.6,0.2c0.3,0,0.5-0.1,0.6-0.2c0.1-0.1,0.1-0.2,0.1-0.3
			s0-0.2-0.1-0.2c-0.1-0.1-0.2-0.1-0.4-0.1c-0.9-0.2-1.4-0.4-1.7-0.5c-0.3-0.2-0.5-0.5-0.5-0.9s0.1-0.7,0.4-0.9s0.7-0.4,1.3-0.4
			c0.6,0,1,0.1,1.3,0.3s0.5,0.5,0.6,0.8l-1,0.2c0-0.2-0.1-0.3-0.3-0.4s-0.3-0.1-0.5-0.1c-0.3,0-0.5,0-0.6,0.1s-0.1,0.1-0.1,0.2
			c0,0.1,0,0.1,0.1,0.2c0.1,0.1,0.4,0.2,1,0.3s1,0.3,1.2,0.5s0.3,0.5,0.3,0.8c0,0.4-0.2,0.7-0.5,1s-0.8,0.4-1.4,0.4s-1-0.1-1.3-0.3
			S90.7,42.8,90.6,42.4z"/>
	</g>
</g>
<g id="outline">
	<rect x="14.2" y="10.7" class="st23" width="428.6" height="387.8"/>
	<polyline class="st24" points="279.8,236 442.8,236 442.8,256.8 404.8,256.8 409.5,256.8 409.5,283.7 	"/>
	<polyline class="st24" points="408.8,353.2 408.8,382.1 442.8,382.1 404.4,382.1 	"/>
	<path class="st24" d="M14.2,349.6L14.2,349.6z"/>
	<path class="st24" d="M14.2,287.4L14.2,287.4z"/>
	<polyline class="st24" points="14.2,241.5 129.5,241.5 129.5,246.1 129.5,203.7 	"/>
	<polyline class="st24" points="49.4,287.4 77.9,287.4 62.2,287.4 62.2,241.5 110.6,241.5 110.6,287.4 96.6,287.4 129.5,287.4 
		129.5,277.7 	"/>
	<polyline class="st24" points="110.6,257.4 129.5,257.4 129.5,265.6 	"/>
	<polyline class="st24" points="14.2,179.5 129.5,179.5 129.5,186.5 129.5,110.3 90.5,110.3 95.1,110.3 95.1,101.9 	"/>
	<polyline class="st24" points="14.2,72.6 120,72.6 95.1,72.6 95.1,82.5 	"/>
	<polyline class="st24" points="74.6,110.8 69.5,110.8 69.5,179.5 69.5,126.3 67.1,126.3 	"/>
	<polyline class="st24" points="14.2,126.8 54.2,126.8 50.6,126.8 50.6,101.9 	"/>
	<line class="st24" x1="49.9" y1="81.3" x2="49.9" y2="72.6"/>
	<path class="st24" d="M135,72.6h7.5c0,0,10.9-2.7,10.9-10.4V10.7h136.9v51.7h-44.5"/>
	<line class="st24" x1="212.7" y1="62.2" x2="153.4" y2="62.2"/>
	<path class="st24" d="M303.2,204.6c0,0-26.6-31.1-7.3-74.7s88.3-47.9,114.2-19.4"/>
	<path class="st24" d="M427,131.4c0,0,12.8,18.9,14.3,39.7s0,64.9,0,64.9h-82.5c0,0-22.3-1.5-37.3-12.7"/>
	<polyline class="st24" points="129.5,179.5 160.3,179.5 160.3,241.5 160.3,233.3 255.4,233.3 242.5,233.3 242.5,183.7 211.9,183.7 
		211.9,233.3 	"/>
	<polyline class="st24" points="160.3,179.5 160.3,159.7 242.2,159.7 242.2,165.2 	"/>
	<polyline class="st24" points="49.3,349.6 79.2,349.6 63.3,349.6 63.3,397.7 129.1,397.7 129.1,392.1 129.1,397.7 109.5,397.7 
		109.5,350.4 96.8,350.4 129.1,350.4 129.1,363.5 	"/>
	<polyline class="st24" points="109.5,380.6 129.1,380.6 129.1,371.2 129.1,383.5 	"/>
</g>
<g id="icons_and_labels">
	<circle class="st25" cx="186.5" cy="188.6" r="14.7"/>
	<path class="st26" d="M176.7,212.5l0.7-0.1c0,0.3,0.1,0.5,0.2,0.7c0.1,0.2,0.3,0.4,0.6,0.5s0.6,0.2,0.9,0.2c0.3,0,0.5-0.1,0.8-0.2
		c0.2-0.1,0.4-0.2,0.5-0.4c0.2-0.4,0.2-0.8-0.2-1.1c-0.1-0.1-0.3-0.2-0.4-0.2c-0.3-0.1-0.7-0.2-1-0.3c-0.4-0.1-0.8-0.2-1.1-0.4
		c-0.2-0.1-0.5-0.3-0.6-0.6c-0.1-0.2-0.2-0.5-0.2-0.7c0-0.3,0.1-0.6,0.2-0.8c0.2-0.3,0.4-0.5,0.7-0.6c0.3-0.2,0.7-0.2,1.1-0.2
		c0.4,0,0.8,0.1,1.2,0.2c0.3,0.2,0.6,0.4,0.8,0.6c0.2,0.3,0.3,0.6,0.3,0.9l-0.7,0.1c0-0.3-0.2-0.6-0.4-0.9c-0.3-0.2-0.7-0.3-1-0.3
		c-0.4,0-0.7,0.1-1,0.2c-0.3,0.3-0.4,0.8-0.2,1.1l0.1,0.1c0.3,0.2,0.8,0.4,1.2,0.4c0.4,0.1,0.9,0.2,1.3,0.4c0.3,0.2,0.6,0.4,0.8,0.6
		c0.5,0.7,0.3,1.7-0.4,2.2c-0.1,0.1-0.3,0.2-0.4,0.2c-0.3,0.2-0.7,0.2-1.1,0.2c-0.5,0-0.9-0.1-1.3-0.2c-0.3-0.2-0.6-0.4-0.9-0.7
		C176.8,213.2,176.7,212.9,176.7,212.5z"/>
	<path class="st26" d="M183.9,213.7l0.1,0.6c-0.2,0.1-0.4,0.1-0.6,0.1c-0.2,0-0.5,0-0.6-0.2c-0.1-0.1-0.3-0.2-0.3-0.3
		c-0.1-0.3-0.1-0.6-0.1-0.9v-2.4h-0.6V210h0.6v-1l0.7-0.4v1.5h0.7v0.6h-0.7v2.8c0,0.1,0.1,0.1,0.2,0.2c0.1,0.1,0.2,0.1,0.2,0.1
		C183.6,213.7,183.8,213.7,183.9,213.7z"/>
	<path class="st26" d="M187.4,213.8c-0.2,0.2-0.5,0.4-0.8,0.5s-0.5,0.1-0.8,0.2c-0.4,0-0.8-0.1-1.1-0.3c-0.2-0.2-0.4-0.5-0.4-0.9
		s0.2-0.7,0.5-0.9c0.2-0.1,0.4-0.2,0.6-0.2c0.2-0.1,0.4-0.1,0.6-0.1l1.3-0.2v-0.2c0-0.2-0.1-0.5-0.2-0.6c-0.2-0.2-0.5-0.2-0.8-0.2
		c-0.2,0-0.5,0.1-0.7,0.2c-0.2,0.2-0.3,0.4-0.4,0.6l-0.7-0.1c0.1-0.3,0.2-0.5,0.3-0.7c0.2-0.2,0.4-0.3,0.6-0.4
		c0.3-0.1,0.6-0.1,0.9-0.2c0.3,0,0.6,0,0.9,0.2c0.2,0.1,0.4,0.2,0.5,0.3l0.2,0.5c0,0.2,0.1,0.5,0,0.6v0.9c0,0.4,0,0.8,0.1,1.3
		c0,0.2,0.1,0.3,0.2,0.5h-0.7C187.4,214.2,187.4,214,187.4,213.8z M187.3,212.2c-0.4,0.2-0.8,0.2-1.2,0.2c-0.2,0-0.4,0.1-0.6,0.2
		c-0.1,0.1-0.2,0.2-0.3,0.2c-0.2,0.3-0.1,0.7,0.2,0.9c0.2,0.1,0.4,0.1,0.5,0.1c0.2,0,0.5-0.1,0.7-0.2c0.2-0.1,0.4-0.2,0.5-0.5
		c0.1-0.2,0.1-0.5,0.1-0.7L187.3,212.2z"/>
	<path class="st26" d="M189.2,209.3v-0.8h0.7v0.8H189.2z M189.2,214.4v-4.3h0.7v4.3H189.2z"/>
	<path class="st26" d="M191,214.4v-4.3h0.6v0.6c0.1-0.3,0.3-0.5,0.5-0.6c0.1-0.1,0.3-0.1,0.5-0.2c0.3,0,0.5,0.1,0.7,0.2l-0.2,0.6
		c-0.2-0.1-0.4-0.1-0.6-0.2c-0.1,0-0.3,0.1-0.4,0.2c-0.1,0.1-0.2,0.2-0.2,0.4c-0.1,0.3-0.1,0.6-0.2,0.9v2.2L191,214.4L191,214.4z"/>
	<path class="st26" d="M193.4,213.1l0.7-0.1c0,0.2,0.1,0.5,0.3,0.6c0.2,0.2,0.5,0.2,0.8,0.2s0.5-0.1,0.7-0.2
		c0.2-0.1,0.2-0.3,0.2-0.5s-0.1-0.3-0.2-0.4l-0.7-0.2c-0.4-0.1-0.7-0.2-1.1-0.3c-0.2-0.1-0.3-0.2-0.5-0.4c-0.2-0.3-0.2-0.8,0-1.1
		c0.1-0.2,0.2-0.3,0.3-0.4l0.5-0.2c0.2-0.1,0.4-0.1,0.6-0.1c0.3,0,0.6,0.1,0.9,0.2c0.2,0.1,0.4,0.2,0.6,0.4c0.2,0.2,0.2,0.4,0.2,0.6
		l-0.7,0.1c0-0.2-0.1-0.4-0.3-0.5c-0.2-0.2-0.4-0.2-0.6-0.2c-0.2,0-0.5,0-0.7,0.2c-0.1,0.1-0.2,0.2-0.2,0.4c0,0.1,0,0.2,0.1,0.2
		c0.1,0.1,0.2,0.2,0.2,0.2s0.3,0.1,0.6,0.2s0.7,0.2,1,0.3c0.2,0.1,0.3,0.2,0.5,0.4c0.1,0.2,0.2,0.4,0.2,0.6c0,0.3-0.1,0.5-0.2,0.7
		c-0.2,0.2-0.4,0.4-0.6,0.5c-0.3,0.1-0.6,0.2-0.9,0.2c-0.4,0-0.9-0.1-1.3-0.3C193.6,213.8,193.5,213.5,193.4,213.1z"/>
	<g id="Outline_Icons-2-2-4-2-2-2-3">
		<line class="st27" x1="180.8" y1="193.6" x2="191.2" y2="193.6"/>
		<polyline class="st27" points="189.3,193.6 189.3,191.7 187.5,191.7 187.5,189.9 185.7,189.9 185.7,188.1 184,188.1 184,186.4 
			180.8,186.4 		"/>
		<line class="st27" x1="186.3" y1="183.2" x2="191.8" y2="188.8"/>
		<polyline class="st27" points="186.3,185.5 186.3,183.2 188.6,183.2 		"/>
		<polyline class="st27" points="191.8,186.7 191.8,188.8 189.7,188.8 		"/>
	</g>
	<circle class="st25" cx="70.8" cy="205.9" r="14.7"/>
	<path class="st26" d="M61,229.8l0.7-0.1c0,0.3,0.1,0.5,0.2,0.7c0.1,0.2,0.3,0.4,0.6,0.5s0.6,0.2,0.9,0.2c0.3,0,0.5-0.1,0.8-0.2
		c0.2-0.1,0.4-0.2,0.5-0.4c0.2-0.4,0.2-0.8-0.2-1.1c-0.1-0.1-0.3-0.2-0.4-0.2c-0.3-0.1-0.7-0.2-1-0.3c-0.4-0.1-0.8-0.2-1.1-0.4
		c-0.2-0.1-0.5-0.3-0.6-0.6c-0.1-0.2-0.2-0.5-0.2-0.7c0-0.3,0.1-0.6,0.2-0.8c0.2-0.3,0.4-0.5,0.7-0.6c0.3-0.2,0.7-0.2,1.1-0.2
		c0.4,0,0.8,0.1,1.2,0.2c0.3,0.2,0.6,0.4,0.8,0.6c0.2,0.3,0.3,0.6,0.3,0.9l-0.7,0.1c0-0.3-0.2-0.6-0.4-0.9c-0.3-0.2-0.7-0.3-1-0.3
		c-0.4,0-0.7,0.1-1,0.2c-0.3,0.3-0.4,0.8-0.2,1.1l0.1,0.1c0.3,0.2,0.8,0.4,1.2,0.4c0.4,0.1,0.9,0.2,1.3,0.4c0.3,0.2,0.6,0.4,0.8,0.6
		c0.5,0.7,0.3,1.7-0.4,2.2c-0.1,0.1-0.2,0.2-0.4,0.2c-0.3,0.2-0.7,0.2-1.1,0.2c-0.5,0-0.9-0.1-1.3-0.2c-0.3-0.2-0.6-0.4-0.9-0.7
		C61.2,230.6,61.1,230.2,61,229.8z"/>
	<path class="st26" d="M68.2,231.1l0.1,0.6c-0.2,0.1-0.4,0.1-0.6,0.1s-0.5,0-0.6-0.2c-0.1-0.1-0.3-0.2-0.3-0.3
		c-0.1-0.3-0.1-0.6-0.1-0.9V228h-0.6v-0.6h0.6v-1l0.7-0.4v1.5h0.7v0.6h-0.7v2.8c0,0.1,0.1,0.1,0.2,0.2c0.1,0.1,0.2,0.1,0.2,0.1
		C68,231.1,68.1,231.1,68.2,231.1z"/>
	<path class="st26" d="M71.7,231.2c-0.2,0.2-0.5,0.4-0.8,0.5s-0.5,0.1-0.8,0.2c-0.4,0-0.8-0.1-1.1-0.3c-0.2-0.2-0.4-0.5-0.4-0.9
		s0.2-0.7,0.5-0.9c0.2-0.1,0.4-0.2,0.6-0.2c0.2-0.1,0.4-0.1,0.6-0.1l1.3-0.2v-0.2c0-0.2-0.1-0.5-0.2-0.6c-0.2-0.2-0.5-0.2-0.8-0.2
		c-0.2,0-0.5,0.1-0.7,0.2c-0.2,0.2-0.3,0.4-0.4,0.6l-0.7-0.1c0.1-0.3,0.2-0.5,0.3-0.7c0.2-0.2,0.4-0.3,0.6-0.4
		c0.3-0.1,0.6-0.1,0.9-0.2c0.3,0,0.6,0,0.9,0.2c0.2,0.1,0.4,0.2,0.5,0.3l0.2,0.5c0,0.2,0.1,0.5,0,0.6v0.9c0,0.4,0,0.8,0.1,1.3
		c0,0.2,0.1,0.3,0.2,0.5h-0.7C71.8,231.6,71.8,231.4,71.7,231.2z M71.6,229.6c-0.4,0.2-0.8,0.2-1.2,0.2c-0.2,0-0.4,0.1-0.6,0.2
		c-0.1,0.1-0.2,0.2-0.3,0.2c-0.2,0.2-0.1,0.6,0.1,0.8s0.4,0.2,0.6,0.2s0.5-0.1,0.7-0.2c0.2-0.1,0.4-0.2,0.5-0.5
		c0.1-0.2,0.1-0.5,0.1-0.7L71.6,229.6z"/>
	<path class="st26" d="M73.5,226.7v-0.8h0.7v0.8H73.5z M73.5,231.7v-4.3h0.7v4.3H73.5z"/>
	<path class="st26" d="M75.4,231.7v-4.3H76v0.6c0.1-0.3,0.3-0.5,0.5-0.6c0.1-0.1,0.3-0.1,0.5-0.2c0.3,0,0.5,0.1,0.7,0.2l-0.2,0.6
		c-0.2-0.1-0.4-0.1-0.6-0.2c-0.1,0-0.3,0.1-0.4,0.2c-0.1,0.1-0.2,0.2-0.2,0.4c-0.1,0.3-0.1,0.6-0.2,0.9v2.2L75.4,231.7L75.4,231.7z"
		/>
	<path class="st26" d="M77.7,230.5l0.7-0.1c0,0.2,0.1,0.5,0.3,0.6c0.2,0.2,0.5,0.2,0.8,0.2s0.5-0.1,0.7-0.2c0.2-0.1,0.2-0.3,0.2-0.5
		s-0.1-0.3-0.2-0.4l-0.7-0.2c-0.4-0.1-0.7-0.2-1.1-0.3c-0.2-0.1-0.3-0.2-0.5-0.4c-0.2-0.3-0.2-0.8,0-1.1c0.1-0.2,0.2-0.3,0.3-0.4
		l0.5-0.2c0.2-0.1,0.4-0.1,0.6-0.1c0.3,0,0.6,0.1,0.9,0.2c0.2,0.1,0.4,0.2,0.6,0.4s0.2,0.4,0.2,0.6l-0.7,0.1c0-0.2-0.1-0.4-0.3-0.5
		c-0.2-0.2-0.4-0.2-0.6-0.2s-0.5,0-0.7,0.2c-0.1,0.1-0.2,0.2-0.2,0.4c0,0.1,0,0.2,0.1,0.2c0.1,0.1,0.2,0.2,0.2,0.2s0.3,0.1,0.6,0.2
		s0.7,0.2,1,0.3c0.2,0.1,0.3,0.2,0.5,0.4c0.1,0.2,0.2,0.4,0.2,0.6c0,0.3-0.1,0.5-0.2,0.7c-0.2,0.2-0.4,0.4-0.6,0.5
		c-0.3,0.1-0.6,0.2-0.9,0.2c-0.4,0-0.9-0.1-1.3-0.3C78,231.2,77.8,230.8,77.7,230.5z"/>
	<g id="Outline_Icons-2-2-4-2-2-2-3-2">
		<line class="st27" x1="65.2" y1="210.9" x2="75.5" y2="210.9"/>
		<polyline class="st27" points="73.7,210.9 73.7,209.1 71.9,209.1 71.9,207.3 70.1,207.3 70.1,205.5 68.3,205.5 68.3,203.7 
			65.2,203.7 		"/>
		<line class="st27" x1="70.6" y1="200.6" x2="76.1" y2="206.2"/>
		<polyline class="st27" points="70.6,202.9 70.6,200.6 72.9,200.6 		"/>
		<polyline class="st27" points="76.1,204 76.1,206.2 74,206.2 		"/>
	</g>
	<circle class="st25" cx="85.6" cy="259.7" r="14.7"/>
	<path class="st28" d="M79.3,252.8h13c0.3,0,0.5,0.2,0.5,0.4l0,0v13c0,0.3-0.2,0.5-0.4,0.5l0,0h-13c-0.3,0-0.5-0.2-0.5-0.4l0,0v-13
		C78.8,253,79,252.8,79.3,252.8z"/>
	<rect x="81.7" y="256" class="st28" width="3.6" height="10.7"/>
	<rect x="85.3" y="256" class="st28" width="3.6" height="10.7"/>
	<line class="st28" x1="84.6" y1="254.3" x2="87.1" y2="254.3"/>
	<polyline class="st29" points="90.3,260.2 91,259.5 91.6,260.2 	"/>
	<polyline class="st29" points="90.3,261 91,261.7 91.6,261 	"/>
	<path class="st26" d="M76.2,281.9V278H79v0.5h-2.3v1.2h2.2v0.5h-2.2v1.3h2.4v0.5L76.2,281.9z"/>
	<path class="st26" d="M79.8,281.9V278h0.5v3.9H79.8z"/>
	<path class="st26" d="M83,281l0.5,0.1c-0.1,0.3-0.2,0.5-0.4,0.7c-0.6,0.4-1.3,0.3-1.8-0.1c-0.3-0.3-0.4-0.7-0.4-1.1
		s0.1-0.8,0.4-1.1c0.2-0.3,0.6-0.4,1-0.4s0.7,0.1,0.9,0.4c0.3,0.3,0.4,0.7,0.4,1.1v0.1h-2.1c0,0.3,0.1,0.5,0.3,0.7
		c0.2,0.2,0.4,0.3,0.6,0.2c0.2,0,0.3,0,0.5-0.1C82.8,281.3,82.9,281.1,83,281z M81.4,280.2H83c0-0.2-0.1-0.4-0.2-0.5
		c-0.1-0.2-0.4-0.3-0.6-0.3s-0.4,0.1-0.6,0.2C81.5,279.7,81.4,280,81.4,280.2z"/>
	<path class="st26" d="M84.8,281.9l-1.1-2.8h0.5l0.6,1.7c0.1,0.2,0.1,0.4,0.2,0.6c0-0.1,0.1-0.3,0.2-0.5l0.6-1.7h0.5l-1.1,2.8h-0.4
		C84.8,282,84.8,281.9,84.8,281.9z"/>
	<path class="st26" d="M88.7,281.5c-0.2,0.1-0.3,0.2-0.5,0.3c-0.2,0.1-0.4,0.1-0.5,0.1c-0.3,0-0.5-0.1-0.7-0.2s-0.3-0.4-0.3-0.6
		c0-0.1,0-0.3,0.1-0.4s0.1-0.2,0.2-0.3c0.1-0.1,0.2-0.1,0.3-0.2c0.1,0,0.3-0.1,0.4-0.1c0.3,0,0.6-0.1,0.9-0.2c0-0.1,0-0.1,0-0.1
		c0-0.2,0-0.3-0.1-0.4c-0.2-0.1-0.4-0.2-0.6-0.2s-0.3,0-0.5,0.1c-0.1,0.1-0.2,0.3-0.2,0.4l-0.5-0.1c0-0.2,0.1-0.3,0.2-0.5
		c0.1-0.1,0.3-0.2,0.4-0.3c0.2-0.1,0.4-0.1,0.6-0.1s0.4,0,0.6,0.1c0.1,0,0.2,0.1,0.3,0.2c0.1,0.1,0.1,0.2,0.2,0.3c0,0.1,0,0.3,0,0.4
		v0.6c0,0.3,0,0.6,0,0.9c0,0.1,0.1,0.2,0.1,0.3L88.7,281.5C88.7,281.8,88.7,281.7,88.7,281.5z M88.6,280.5c-0.3,0.1-0.5,0.2-0.8,0.2
		c-0.1,0-0.3,0-0.4,0.1c-0.1,0-0.1,0.1-0.2,0.2c0,0.1-0.1,0.1-0.1,0.2s0.1,0.2,0.1,0.3c0.1,0.1,0.3,0.1,0.4,0.1c0.2,0,0.3,0,0.5-0.1
		c0.1-0.1,0.3-0.2,0.3-0.3c0.1-0.2,0.1-0.3,0.1-0.5L88.6,280.5z"/>
	<path class="st26" d="M90.9,281.5l0.1,0.4c-0.1,0-0.2,0-0.4,0c-0.1,0-0.3,0-0.4-0.1c-0.1,0-0.2-0.1-0.2-0.2
		c-0.1-0.2-0.1-0.4-0.1-0.6v-1.6h-0.4V279H90v-0.7l0.5-0.3v1H91v0.4h-0.5v1.7c0,0.1,0,0.2,0,0.3c0,0,0,0.1,0.1,0.1s0.1,0,0.2,0
		C90.8,281.5,90.8,281.5,90.9,281.5z"/>
	<path class="st26" d="M91.2,280.5c0-0.4,0.1-0.9,0.4-1.2c0.3-0.2,0.6-0.3,0.9-0.3c0.4,0,0.7,0.1,1,0.4s0.4,0.7,0.4,1.1
		c0,0.3,0,0.6-0.2,0.9c-0.1,0.2-0.3,0.4-0.5,0.5s-0.4,0.2-0.7,0.2c-0.4,0-0.7-0.1-1-0.4C91.3,281.3,91.2,280.9,91.2,280.5z
		 M91.7,280.5c0,0.3,0.1,0.6,0.2,0.8c0.3,0.3,0.8,0.4,1.1,0.1l0.1-0.1c0.2-0.2,0.3-0.5,0.2-0.8c0-0.3-0.1-0.6-0.2-0.8
		c-0.3-0.3-0.8-0.4-1.1-0.1c0,0,0,0-0.1,0.1C91.8,279.9,91.7,280.2,91.7,280.5L91.7,280.5z"/>
	<path class="st26" d="M94.4,281.9V279h0.4v0.4c0.1-0.2,0.2-0.3,0.3-0.4c0.1-0.1,0.2-0.1,0.3-0.1c0.2,0,0.4,0.1,0.5,0.2l-0.2,0.4
		c-0.1-0.1-0.2-0.1-0.4-0.1c-0.1,0-0.2,0-0.3,0.1c-0.1,0.1-0.1,0.2-0.2,0.3c-0.1,0.2-0.1,0.4-0.1,0.6v1.5H94.4z"/>
	<path class="st26" d="M83,288.5l1-1.5l-1-1.4h0.6l0.4,0.7c0.1,0.1,0.1,0.2,0.2,0.3c0.1-0.1,0.2-0.2,0.2-0.3l0.5-0.7h0.6l-1,1.3
		l1.1,1.5H85l-0.6-0.9l-0.2-0.2l-0.7,1.1L83,288.5z"/>
	<path class="st26" d="M88.4,288v0.5h-2.6c0-0.1,0-0.2,0.1-0.3c0.1-0.2,0.2-0.4,0.3-0.5c0.2-0.2,0.4-0.4,0.6-0.6
		c0.3-0.2,0.6-0.5,0.9-0.8c0.1-0.2,0.2-0.4,0.2-0.6s-0.1-0.4-0.2-0.5s-0.3-0.2-0.5-0.2s-0.4,0.1-0.6,0.2c-0.1,0.2-0.2,0.4-0.2,0.6
		l-0.5-0.1c0-0.3,0.1-0.6,0.4-0.8c0.3-0.2,0.6-0.3,0.9-0.3s0.7,0.1,0.9,0.3c0.2,0.2,0.3,0.5,0.3,0.8c0,0.2,0,0.3-0.1,0.5
		s-0.2,0.3-0.3,0.5c-0.2,0.2-0.5,0.5-0.7,0.7c-0.3,0.2-0.5,0.4-0.6,0.5s-0.1,0.2-0.2,0.3L88.4,288z"/>
	<circle class="st25" cx="85.6" cy="362.6" r="14.7"/>
	<path class="st28" d="M79.4,355.7h13c0.3,0,0.5,0.2,0.5,0.4l0,0v13c0,0.3-0.2,0.5-0.4,0.5l0,0h-13c-0.3,0-0.5-0.2-0.5-0.4l0,0v-13
		C78.8,355.9,79.1,355.7,79.4,355.7z"/>
	<rect x="81.8" y="358.9" class="st28" width="3.6" height="10.7"/>
	<rect x="85.4" y="358.9" class="st28" width="3.6" height="10.7"/>
	<line class="st28" x1="84.7" y1="357.2" x2="87.1" y2="357.2"/>
	<polyline class="st29" points="90.4,363.1 91.1,362.5 91.7,363.1 	"/>
	<polyline class="st29" points="90.4,364 91.1,364.6 91.7,364 	"/>
	<path class="st26" d="M76.3,384.8v-3.9h2.8v0.5h-2.3v1.2H79v0.5h-2.2v1.3h2.4v0.5h-2.9V384.8z"/>
	<path class="st26" d="M79.9,384.8v-3.9h0.5v3.9H79.9z"/>
	<path class="st26" d="M83,383.9l0.5,0.1c-0.1,0.3-0.2,0.5-0.4,0.7c-0.2,0.2-0.5,0.3-0.8,0.2c-0.4,0-0.7-0.1-1-0.4s-0.4-0.7-0.4-1.1
		s0.1-0.8,0.4-1.1c0.2-0.3,0.6-0.4,1-0.4s0.7,0.1,0.9,0.4c0.3,0.3,0.4,0.7,0.4,1.1v0.1h-2.1c0,0.3,0.1,0.5,0.3,0.7
		c0.2,0.2,0.4,0.3,0.6,0.2c0.2,0,0.3,0,0.5-0.1C82.9,384.2,83,384.1,83,383.9z M81.4,383.1H83c0-0.2-0.1-0.4-0.2-0.5
		c-0.1-0.2-0.4-0.3-0.6-0.3s-0.4,0.1-0.6,0.2C81.5,382.7,81.5,382.9,81.4,383.1z"/>
	<path class="st26" d="M84.9,384.8l-1.1-2.9h0.5l0.6,1.7c0.1,0.2,0.1,0.4,0.2,0.6c0-0.2,0.1-0.3,0.2-0.5L86,382h0.5l-1.1,2.9h-0.5
		V384.8z"/>
	<path class="st26" d="M88.7,384.5c-0.2,0.1-0.3,0.2-0.5,0.3c-0.2,0.1-0.4,0.1-0.5,0.1c-0.3,0-0.5-0.1-0.7-0.2s-0.3-0.4-0.3-0.6
		c0-0.1,0-0.3,0.1-0.4s0.1-0.2,0.2-0.3c0.1-0.1,0.2-0.1,0.3-0.2c0.1,0,0.3-0.1,0.4-0.1c0.3,0,0.6-0.1,0.9-0.2c0-0.1,0-0.1,0-0.1
		c0-0.2,0-0.3-0.1-0.4c-0.2-0.1-0.4-0.2-0.6-0.2s-0.3,0-0.5,0.1c-0.1,0.1-0.2,0.3-0.2,0.4l-0.5-0.1c0-0.2,0.1-0.3,0.2-0.5
		c0.1-0.1,0.3-0.2,0.4-0.3c0.2-0.1,0.4-0.1,0.6-0.1s0.4,0,0.6,0.1c0.1,0,0.2,0.1,0.3,0.2c0.1,0.1,0.1,0.2,0.2,0.3c0,0.1,0,0.3,0,0.4
		v0.6c0,0.3,0,0.6,0,0.9c0,0.1,0.1,0.2,0.1,0.3L88.7,384.5C88.8,384.7,88.8,384.6,88.7,384.5z M88.7,383.4c-0.3,0.1-0.5,0.2-0.8,0.2
		c-0.1,0-0.3,0.1-0.4,0.1s-0.1,0.1-0.2,0.2c0,0.1-0.1,0.1-0.1,0.2s0.1,0.2,0.1,0.3c0.1,0.1,0.3,0.1,0.4,0.1c0.2,0,0.3,0,0.5-0.1
		c0.1-0.1,0.3-0.2,0.3-0.3c0.1-0.2,0.1-0.3,0.1-0.5L88.7,383.4z"/>
	<path class="st26" d="M91,384.4l0.1,0.4c-0.1,0-0.2,0-0.4,0c-0.1,0-0.3,0-0.4-0.1c-0.1,0-0.2-0.1-0.2-0.2c-0.1-0.2-0.1-0.4-0.1-0.6
		v-1.6h-0.4V382H90v-0.7l0.5-0.3v1H91v0.4h-0.5v1.7c0,0.1,0,0.2,0,0.3c0,0,0,0.1,0.1,0.1s0.1,0,0.2,0
		C90.9,384.4,90.9,384.4,91,384.4z"/>
	<path class="st26" d="M91.3,383.4c0-0.4,0.1-0.9,0.4-1.2c0.3-0.2,0.6-0.3,0.9-0.3c0.4,0,0.7,0.1,1,0.4s0.4,0.7,0.4,1.1
		c0,0.3,0,0.6-0.2,0.9c-0.1,0.2-0.3,0.4-0.5,0.5s-0.4,0.2-0.7,0.2c-0.4,0-0.7-0.1-1-0.4C91.4,384.2,91.3,383.8,91.3,383.4z
		 M91.8,383.4c0,0.3,0.1,0.6,0.2,0.8c0.3,0.3,0.8,0.4,1.1,0.1l0.1-0.1c0.2-0.2,0.3-0.5,0.2-0.8c0-0.3-0.1-0.6-0.2-0.8
		c-0.3-0.3-0.8-0.4-1.1-0.1c0,0,0,0-0.1,0.1C91.9,382.8,91.8,383.1,91.8,383.4L91.8,383.4z"/>
	<path class="st26" d="M94.5,384.8V382H95v0.4c0.1-0.2,0.2-0.3,0.3-0.4c0.1-0.1,0.2-0.1,0.3-0.1c0.2,0,0.4,0.1,0.5,0.2l-0.2,0.4
		c-0.1-0.1-0.2-0.1-0.4-0.1c-0.1,0-0.2,0-0.3,0.1c-0.1,0.1-0.1,0.2-0.2,0.3c-0.1,0.2-0.1,0.4-0.1,0.6v1.5L94.5,384.8z"/>
	<path class="st26" d="M83.1,391.4l1-1.5l-1-1.4h0.6l0.4,0.7c0.1,0.1,0.1,0.2,0.2,0.3c0.1-0.1,0.2-0.2,0.2-0.3l0.5-0.7h0.6l-1,1.3
		l1.1,1.5h-0.6l-0.6-0.9l-0.2-0.2l-0.7,1.1L83.1,391.4z"/>
	<path class="st26" d="M88.5,390.9v0.5h-2.6c0-0.1,0-0.2,0.1-0.3c0.1-0.2,0.2-0.4,0.3-0.5c0.2-0.2,0.4-0.4,0.6-0.6
		c0.3-0.2,0.6-0.5,0.9-0.8c0.1-0.2,0.2-0.4,0.2-0.6s-0.1-0.4-0.2-0.5s-0.3-0.2-0.5-0.2s-0.4,0.1-0.6,0.2c-0.1,0.2-0.2,0.4-0.2,0.6
		l-0.5-0.1c0-0.3,0.1-0.6,0.4-0.8c0.3-0.2,0.6-0.3,0.9-0.3s0.7,0.1,0.9,0.3c0.2,0.2,0.3,0.5,0.3,0.8c0,0.2,0,0.3-0.1,0.5
		s-0.2,0.3-0.3,0.5c-0.2,0.2-0.5,0.5-0.7,0.7c-0.3,0.2-0.5,0.4-0.6,0.5s-0.1,0.2-0.2,0.3L88.5,390.9z"/>
	<circle class="st25" cx="38.8" cy="362.7" r="14.7"/>
	<path class="st28" d="M32.6,355.8h13c0.3,0,0.5,0.2,0.5,0.4l0,0v13c0,0.3-0.2,0.5-0.4,0.5l0,0h-13c-0.3,0-0.5-0.2-0.5-0.4l0,0v-13
		C32,355.9,32.3,355.8,32.6,355.8z"/>
	<rect x="34.9" y="358.9" class="st28" width="3.6" height="10.7"/>
	<rect x="38.6" y="358.9" class="st28" width="3.6" height="10.7"/>
	<line class="st28" x1="37.9" y1="357.3" x2="40.3" y2="357.3"/>
	<polyline class="st29" points="43.6,363.1 44.3,362.5 44.9,363.1 	"/>
	<polyline class="st29" points="43.6,364 44.3,364.6 44.9,364 	"/>
	<path class="st26" d="M29.4,384.9V381h2.8v0.5H30v1.2h2.2v0.5H30v1.3h2.4v0.5L29.4,384.9z"/>
	<path class="st26" d="M33,384.9V381h0.5v3.9H33z"/>
	<path class="st26" d="M36.2,383.9l0.5,0.1c-0.1,0.3-0.2,0.5-0.4,0.7c-0.6,0.4-1.3,0.3-1.8-0.1c-0.3-0.3-0.4-0.7-0.4-1.1
		s0.1-0.8,0.4-1.1c0.2-0.3,0.6-0.4,1-0.4s0.7,0.1,0.9,0.4c0.3,0.3,0.4,0.7,0.4,1.1v0.1h-2.1c0,0.3,0.1,0.5,0.3,0.7s0.4,0.3,0.6,0.2
		c0.2,0,0.3,0,0.5-0.1C36.1,384.3,36.2,384.1,36.2,383.9z M34.6,383.2h1.6c0-0.2-0.1-0.4-0.2-0.5c-0.1-0.2-0.4-0.3-0.6-0.3
		c-0.2,0-0.4,0.1-0.6,0.2C34.7,382.7,34.6,382.9,34.6,383.2L34.6,383.2z"/>
	<path class="st26" d="M38.1,384.9L37,382h0.5l0.6,1.7c0.1,0.2,0.1,0.4,0.2,0.6c0-0.2,0.1-0.3,0.2-0.5l0.6-1.7h0.5l-1.1,2.9
		L38.1,384.9z"/>
	<path class="st26" d="M41.9,384.5c-0.2,0.1-0.3,0.2-0.5,0.3c-0.2,0.1-0.4,0.1-0.5,0.1c-0.3,0-0.5-0.1-0.7-0.2s-0.3-0.4-0.3-0.6
		c0-0.1,0-0.3,0.1-0.4s0.1-0.2,0.2-0.3c0.1-0.1,0.2-0.1,0.3-0.2c0.1,0,0.3-0.1,0.4-0.1c0.3,0,0.6-0.1,0.9-0.2c0-0.1,0-0.1,0-0.1
		c0-0.2,0-0.3-0.1-0.4c-0.2-0.1-0.4-0.2-0.5-0.2c-0.2,0-0.3,0-0.5,0.1c-0.1,0.1-0.2,0.3-0.2,0.4l-0.5-0.1c0-0.2,0.1-0.3,0.2-0.5
		c0.1-0.1,0.3-0.2,0.4-0.3c0.2-0.1,0.4-0.1,0.6-0.1c0.2,0,0.4,0,0.6,0.1c0.1,0,0.2,0.1,0.3,0.2s0.1,0.2,0.2,0.3c0,0.1,0,0.3,0,0.4
		v0.6c0,0.3,0,0.6,0,0.9c0,0.1,0.1,0.2,0.1,0.3L41.9,384.5C42,384.8,41.9,384.6,41.9,384.5z M41.9,383.4c-0.3,0.1-0.5,0.2-0.8,0.2
		c-0.1,0-0.3,0.1-0.4,0.1c-0.2,0.1-0.3,0.3-0.2,0.6c0,0.1,0.1,0.1,0.1,0.2c0.1,0.1,0.3,0.1,0.4,0.1c0.2,0,0.3,0,0.5-0.1
		c0.1-0.1,0.3-0.2,0.3-0.3c0.1-0.2,0.1-0.3,0.1-0.5L41.9,383.4z"/>
	<path class="st26" d="M44.2,384.4l0.1,0.4c-0.1,0-0.2,0-0.4,0c-0.1,0-0.3,0-0.4-0.1c-0.1,0-0.2-0.1-0.2-0.2
		c-0.1-0.2-0.1-0.4-0.1-0.6v-1.6h-0.4V382h0.4v-0.7l0.5-0.3v1h0.5v0.4h-0.5v1.7c0,0.1,0,0.2,0,0.3c0,0,0,0.1,0.1,0.1s0.1,0,0.2,0
		C44,384.5,44.1,384.4,44.2,384.4z"/>
	<path class="st26" d="M44.5,383.4c0-0.4,0.1-0.9,0.4-1.2c0.3-0.2,0.6-0.3,0.9-0.3c0.4,0,0.7,0.1,1,0.4s0.4,0.7,0.4,1.1
		c0,0.3,0,0.6-0.2,0.9c-0.1,0.2-0.3,0.4-0.5,0.5s-0.4,0.2-0.7,0.2c-0.4,0-0.7-0.1-1-0.4C44.6,384.2,44.4,383.8,44.5,383.4z
		 M45,383.4c0,0.3,0.1,0.6,0.2,0.8c0.1,0.2,0.4,0.3,0.6,0.3c0.2,0,0.5-0.1,0.6-0.3c0.2-0.2,0.3-0.5,0.2-0.8c0-0.3-0.1-0.6-0.2-0.8
		c-0.3-0.3-0.8-0.4-1.1-0.1c0,0,0,0-0.1,0.1C45,382.9,44.9,383.1,45,383.4L45,383.4z"/>
	<path class="st26" d="M47.7,384.9V382h0.4v0.4c0.1-0.2,0.2-0.3,0.3-0.4s0.2-0.1,0.3-0.1c0.2,0,0.4,0.1,0.5,0.2l-0.2,0.4
		c-0.1-0.1-0.2-0.1-0.4-0.1c-0.1,0-0.2,0-0.3,0.1s-0.1,0.2-0.2,0.3c-0.1,0.2-0.1,0.4-0.1,0.6v1.5H47.7z"/>
	<path class="st26" d="M36.2,391.5l1-1.5l-1-1.4h0.6l0.4,0.7c0.1,0.1,0.1,0.2,0.2,0.3c0.1-0.1,0.2-0.2,0.2-0.3l0.5-0.7h0.6l-1,1.3
		l1.1,1.5h-0.6l-0.6-0.9l-0.2-0.2l-0.7,1.1L36.2,391.5z"/>
	<path class="st26" d="M41.7,391v0.5h-2.6c0-0.1,0-0.2,0.1-0.3c0.1-0.2,0.2-0.4,0.3-0.5c0.2-0.2,0.4-0.4,0.6-0.6
		c0.3-0.2,0.6-0.5,0.9-0.8c0.1-0.2,0.2-0.4,0.2-0.6s-0.1-0.4-0.2-0.5c-0.1-0.1-0.3-0.2-0.5-0.2s-0.4,0.1-0.6,0.2
		c-0.1,0.2-0.2,0.4-0.2,0.6l-0.5-0.1c0-0.3,0.1-0.6,0.4-0.8c0.3-0.2,0.6-0.3,0.9-0.3c0.3,0,0.7,0.1,0.9,0.3c0.2,0.2,0.3,0.5,0.3,0.8
		c0,0.2,0,0.3-0.1,0.5s-0.2,0.3-0.3,0.5c-0.2,0.2-0.5,0.5-0.7,0.7c-0.3,0.2-0.5,0.4-0.6,0.5s-0.1,0.2-0.2,0.3L41.7,391z"/>
	<circle class="st25" cx="38.3" cy="259.7" r="14.7"/>
	<path class="st28" d="M32.1,252.9h13c0.3,0,0.5,0.2,0.5,0.4l0,0v13c0,0.3-0.2,0.5-0.4,0.5l0,0h-13c-0.3,0-0.5-0.2-0.5-0.4l0,0v-13
		C31.5,253,31.8,252.9,32.1,252.9z"/>
	<rect x="34.5" y="256" class="st28" width="3.6" height="10.7"/>
	<rect x="38.1" y="256" class="st28" width="3.6" height="10.7"/>
	<line class="st28" x1="37.4" y1="254.4" x2="39.8" y2="254.4"/>
	<polyline class="st29" points="43.1,260.2 43.8,259.6 44.4,260.2 	"/>
	<polyline class="st29" points="43.1,261.1 43.8,261.7 44.4,261.1 	"/>
	<path class="st26" d="M29,281.9V278h2.8v0.5h-2.3v1.2h2.2v0.5h-2.2v1.3h2.4v0.5L29,281.9z"/>
	<path class="st26" d="M32.5,281.9V278H33v3.9H32.5z"/>
	<path class="st26" d="M35.7,281l0.5,0.1c-0.1,0.3-0.2,0.5-0.4,0.7c-0.6,0.4-1.3,0.3-1.8-0.1c-0.3-0.3-0.4-0.7-0.4-1.1
		s0.1-0.8,0.4-1.1c0.2-0.3,0.6-0.4,1-0.4s0.7,0.1,0.9,0.4c0.3,0.3,0.4,0.7,0.4,1.1v0.1h-2.1c0,0.3,0.1,0.5,0.3,0.7s0.4,0.3,0.6,0.2
		c0.2,0,0.3,0,0.5-0.1C35.6,281.3,35.7,281.2,35.7,281z M34.1,280.2h1.6c0-0.2-0.1-0.4-0.2-0.5c-0.1-0.2-0.4-0.3-0.6-0.3
		c-0.2,0-0.4,0.1-0.6,0.2C34.2,279.8,34.1,280,34.1,280.2z"/>
	<path class="st26" d="M37.6,281.9l-1.1-2.8H37l0.6,1.7c0.1,0.2,0.1,0.4,0.2,0.6c0-0.2,0.1-0.3,0.2-0.5l0.6-1.7h0.5L38,282h-0.4
		V281.9z"/>
	<path class="st26" d="M41.4,281.6c-0.2,0.1-0.3,0.2-0.5,0.3c-0.2,0.1-0.4,0.1-0.5,0.1c-0.3,0-0.5-0.1-0.7-0.2s-0.3-0.4-0.3-0.6
		c0-0.1,0-0.3,0.1-0.4s0.1-0.2,0.2-0.3c0.1-0.1,0.2-0.1,0.3-0.2c0.1,0,0.3-0.1,0.4-0.1c0.3,0,0.6-0.1,0.9-0.2c0-0.1,0-0.1,0-0.1
		c0-0.2,0-0.3-0.1-0.4c-0.2-0.1-0.4-0.2-0.5-0.2c-0.2,0-0.3,0-0.5,0.1c-0.1,0.1-0.2,0.3-0.2,0.4l-0.5-0.1c0-0.2,0.1-0.3,0.2-0.5
		c0.1-0.1,0.3-0.2,0.4-0.3c0.2-0.1,0.4-0.1,0.6-0.1c0.2,0,0.4,0,0.6,0.1c0.1,0,0.2,0.1,0.3,0.2s0.1,0.2,0.2,0.3c0,0.1,0,0.3,0,0.4
		v0.6c0,0.3,0,0.6,0,0.9c0,0.1,0.1,0.2,0.1,0.3L41.4,281.6C41.5,281.8,41.5,281.7,41.4,281.6z M41.4,280.5c-0.3,0.1-0.5,0.2-0.8,0.2
		c-0.1,0-0.3,0.1-0.4,0.1c-0.1,0-0.1,0.1-0.2,0.2c-0.1,0.2-0.1,0.4,0.1,0.6c0.1,0.1,0.3,0.1,0.4,0.1c0.2,0,0.3,0,0.5-0.1
		c0.1-0.1,0.3-0.2,0.3-0.3c0.1-0.2,0.1-0.3,0.1-0.5L41.4,280.5z"/>
	<path class="st26" d="M43.7,281.5l0.1,0.4c-0.1,0-0.2,0-0.4,0c-0.1,0-0.3,0-0.4-0.1c-0.1,0-0.2-0.1-0.2-0.2
		c-0.1-0.2-0.1-0.4-0.1-0.6v-1.6h-0.4V279h0.4v-0.7l0.5-0.3v1h0.5v0.4h-0.5v1.7c0,0.1,0,0.2,0,0.3c0,0,0,0.1,0.1,0.1s0.1,0,0.2,0
		S43.6,281.5,43.7,281.5z"/>
	<path class="st26" d="M44,280.5c0-0.4,0.1-0.9,0.4-1.2c0.3-0.2,0.6-0.3,0.9-0.3c0.4,0,0.7,0.1,1,0.4s0.4,0.7,0.4,1.1
		c0,0.3,0,0.6-0.2,0.9c-0.1,0.2-0.3,0.4-0.5,0.5s-0.4,0.2-0.7,0.2c-0.4,0-0.7-0.1-1-0.4C44.1,281.3,44,280.9,44,280.5z M44.5,280.5
		c0,0.3,0.1,0.6,0.2,0.8c0.3,0.3,0.8,0.4,1.1,0.1l0.1-0.1c0.2-0.2,0.3-0.5,0.2-0.8c0-0.3-0.1-0.6-0.2-0.8c-0.3-0.3-0.8-0.4-1.1-0.1
		c0,0,0,0-0.1,0.1C44.5,279.9,44.5,280.2,44.5,280.5L44.5,280.5z"/>
	<path class="st26" d="M47.2,281.9v-2.8h0.4v0.4c0.1-0.2,0.2-0.3,0.3-0.4s0.2-0.1,0.3-0.1c0.2,0,0.4,0.1,0.5,0.2l-0.2,0.4
		c-0.1-0.1-0.2-0.1-0.4-0.1c-0.1,0-0.2,0-0.3,0.1s-0.1,0.2-0.2,0.3c-0.1,0.2-0.1,0.4-0.1,0.6v1.5L47.2,281.9z"/>
	<path class="st26" d="M35.7,288.5l1-1.5l-1-1.4h0.6l0.4,0.7c0.1,0.1,0.1,0.2,0.2,0.3c0.1-0.1,0.2-0.2,0.2-0.3l0.5-0.7h0.6l-1,1.3
		l1.1,1.5h-0.6l-0.6-0.9l-0.2-0.2l-0.7,1.1L35.7,288.5z"/>
	<path class="st26" d="M41.2,288.1v0.5h-2.6c0-0.1,0-0.2,0.1-0.3c0.1-0.2,0.2-0.4,0.3-0.5c0.2-0.2,0.4-0.4,0.6-0.6
		c0.3-0.2,0.6-0.5,0.9-0.8c0.1-0.2,0.2-0.4,0.2-0.6s-0.1-0.4-0.2-0.5c-0.1-0.1-0.3-0.2-0.5-0.2s-0.4,0.1-0.6,0.2
		c-0.1,0.2-0.2,0.4-0.2,0.6l-0.5-0.1c0-0.3,0.1-0.6,0.4-0.8c0.3-0.2,0.6-0.3,0.9-0.3c0.3,0,0.7,0.1,0.9,0.3c0.2,0.2,0.3,0.5,0.3,0.8
		c0,0.2,0,0.3-0.1,0.5s-0.2,0.3-0.3,0.5c-0.2,0.2-0.5,0.5-0.7,0.7c-0.3,0.2-0.5,0.4-0.6,0.5s-0.1,0.2-0.2,0.3L41.2,288.1z"/>
	<circle class="st25" cx="388" cy="53.7" r="14.5"/>
	<g id="Outline_Icons-2-2-2">
		<line class="st30" x1="381.5" y1="58.1" x2="381.5" y2="59.7"/>
		<line class="st30" x1="395.7" y1="58.1" x2="395.7" y2="59.7"/>
		<path class="st30" d="M380,53.6v3c0.1,0.8,0.7,1.4,1.5,1.5h14.3c0.8-0.1,1.4-0.7,1.5-1.5l0,0v-3"/>
		<path class="st30" d="M395,53.6v0.8c0,0.4-0.3,0.7-0.7,0.8H383c-0.4,0-0.7-0.3-0.7-0.7l0,0v-0.1l0,0v-0.8"/>
		<path class="st30" d="M395.7,52.4V52c0-1.6-1.2-2.9-2.8-3h-8.5c-1.6,0-2.9,1.2-3,2.8V52l0,0v0.4"/>
		<path class="st30" d="M380,53.6c0-0.6,0.5-1.1,1.1-1.1s1,0.5,1.1,1.1l0,0"/>
		<path class="st30" d="M397.2,53.6c0-0.6-0.5-1.1-1.1-1.1S395,53,395,53.6l0,0"/>
		<line class="st30" x1="388.7" y1="49.1" x2="388.7" y2="55"/>
	</g>
	<circle class="st25" cx="309.8" cy="53.2" r="14"/>
	<path class="st30" d="M315.2,51.9c1-0.1,1.9,0.5,2,1.5l0,0l0,0v0.5c0,2.3-2.9,2.3-2.9,2.3"/>
	<path class="st30" d="M311.6,45.7c0.4,0.4,0.4,1,0.1,1.4l0,0c-0.3,0.4-0.3,1,0,1.4"/>
	<path class="st30" d="M309.1,45.7c0.4,0.4,0.4,1,0.1,1.4l0,0c-0.3,0.4-0.3,1,0,1.4"/>
	<path class="st30" d="M306.6,45.7c0.4,0.4,0.4,1,0.1,1.4l0,0c-0.3,0.4-0.3,1,0,1.4"/>
	<path class="st30" d="M312.4,59.9h-5.7c-1.3,0-2.6-0.4-3.7-1.3h13.2C315,59.4,313.7,59.9,312.4,59.9z"/>
	<path class="st30" d="M311.9,58.4c1.2-0.7,2-2,2.3-3.4l0.7-4.1h-11l0.7,4.1c0.3,1.4,1.1,2.6,2.3,3.4"/>
	<g class="st31">
		<path class="st26" d="M304.5,73.6l0.6,0.1c-0.1,0.5-0.3,0.8-0.6,1.1c-0.3,0.2-0.7,0.4-1.1,0.4c-0.5,0-0.8-0.1-1.1-0.3
			s-0.5-0.5-0.7-0.8s-0.2-0.7-0.2-1.2c0-0.4,0.1-0.8,0.3-1.2s0.4-0.6,0.7-0.8c0.3-0.2,0.7-0.3,1-0.3c0.4,0,0.8,0.1,1.1,0.3
			s0.5,0.5,0.6,0.9l-0.6,0.1c-0.1-0.3-0.2-0.5-0.4-0.7s-0.4-0.2-0.7-0.2c-0.3,0-0.6,0.1-0.8,0.2s-0.4,0.4-0.5,0.6
			c-0.1,0.3-0.1,0.5-0.1,0.8c0,0.4,0.1,0.7,0.2,1s0.3,0.5,0.5,0.6s0.5,0.2,0.7,0.2c0.3,0,0.6-0.1,0.8-0.3S304.4,74,304.5,73.6z"/>
		<path class="st26" d="M305.5,73.6c0-0.6,0.2-1,0.5-1.3c0.3-0.2,0.6-0.3,1-0.3s0.8,0.1,1,0.4c0.3,0.3,0.4,0.7,0.4,1.2
			c0,0.4-0.1,0.7-0.2,0.9s-0.3,0.4-0.5,0.5s-0.5,0.2-0.8,0.2c-0.4,0-0.8-0.1-1.1-0.4S305.5,74.1,305.5,73.6z M306.1,73.6
			c0,0.4,0.1,0.7,0.3,0.9s0.4,0.3,0.7,0.3c0.3,0,0.5-0.1,0.7-0.3s0.3-0.5,0.3-0.9s-0.1-0.7-0.3-0.9s-0.4-0.3-0.7-0.3
			c-0.3,0-0.5,0.1-0.7,0.3S306.1,73.2,306.1,73.6z"/>
	</g>
	<g class="st31">
		<path class="st26" d="M309.2,75.1v-2.7h-0.5V72h0.5v-0.3c0-0.2,0-0.4,0.1-0.5s0.1-0.2,0.3-0.3c0.1-0.1,0.3-0.1,0.5-0.1
			c0.1,0,0.3,0,0.5,0.1l-0.1,0.5c-0.1,0-0.2,0-0.3,0c-0.2,0-0.3,0-0.3,0.1s-0.1,0.2-0.1,0.4V72h0.6v0.4h-0.6v2.7H309.2z"/>
	</g>
	<g class="st31">
		<path class="st26" d="M310.7,75.1v-2.7h-0.5V72h0.5v-0.3c0-0.2,0-0.4,0.1-0.5s0.1-0.2,0.3-0.3c0.1-0.1,0.3-0.1,0.5-0.1
			c0.1,0,0.3,0,0.5,0.1l-0.1,0.5c-0.1,0-0.2,0-0.3,0c-0.2,0-0.3,0-0.3,0.1s-0.1,0.2-0.1,0.4V72h0.6v0.4h-0.6v2.7H310.7z"/>
		<path class="st26" d="M314.4,74.1l0.5,0.1c-0.1,0.3-0.2,0.6-0.5,0.7s-0.5,0.3-0.9,0.3c-0.5,0-0.8-0.1-1.1-0.4s-0.4-0.7-0.4-1.2
			s0.1-0.9,0.4-1.2s0.6-0.4,1-0.4s0.8,0.1,1,0.4s0.4,0.7,0.4,1.2v0.1h-2.3c0,0.3,0.1,0.6,0.3,0.8s0.4,0.3,0.7,0.3
			c0.2,0,0.4-0.1,0.5-0.2S314.3,74.3,314.4,74.1z M312.7,73.3h1.7c0-0.3-0.1-0.5-0.2-0.6c-0.2-0.2-0.4-0.3-0.7-0.3
			c-0.2,0-0.4,0.1-0.6,0.2S312.7,73,312.7,73.3z"/>
		<path class="st26" d="M317.7,74.1l0.5,0.1c-0.1,0.3-0.2,0.6-0.5,0.7s-0.5,0.3-0.9,0.3c-0.5,0-0.8-0.1-1.1-0.4s-0.4-0.7-0.4-1.2
			s0.1-0.9,0.4-1.2s0.6-0.4,1-0.4s0.8,0.1,1,0.4s0.4,0.7,0.4,1.2v0.1H316c0,0.3,0.1,0.6,0.3,0.8s0.4,0.3,0.7,0.3
			c0.2,0,0.4-0.1,0.5-0.2S317.7,74.3,317.7,74.1z M316,73.3h1.7c0-0.3-0.1-0.5-0.2-0.6c-0.2-0.2-0.4-0.3-0.7-0.3
			c-0.2,0-0.4,0.1-0.6,0.2S316,73,316,73.3z"/>
	</g>
	<g class="st31">
		<path class="st26" d="M303.4,82.3V78h1.6c0.3,0,0.5,0,0.7,0s0.4,0.1,0.5,0.2s0.3,0.2,0.3,0.4s0.1,0.4,0.1,0.6
			c0,0.4-0.1,0.7-0.3,0.9s-0.7,0.4-1.3,0.4h-1v1.7h-0.6L303.4,82.3L303.4,82.3z M304,80.1h1.1c0.4,0,0.6-0.1,0.8-0.2
			s0.2-0.3,0.2-0.6c0-0.2,0-0.3-0.1-0.5s-0.2-0.2-0.4-0.3c-0.1,0-0.3,0-0.5,0H304V80.1z"/>
		<path class="st26" d="M307.1,80.8c0-0.6,0.2-1,0.5-1.3c0.3-0.2,0.6-0.3,1-0.3s0.8,0.1,1,0.4c0.3,0.3,0.4,0.7,0.4,1.2
			c0,0.4-0.1,0.7-0.2,0.9s-0.3,0.4-0.5,0.5s-0.5,0.2-0.8,0.2c-0.4,0-0.8-0.1-1.1-0.4S307.1,81.3,307.1,80.8z M307.7,80.8
			c0,0.4,0.1,0.7,0.3,0.9s0.4,0.3,0.7,0.3c0.3,0,0.5-0.1,0.7-0.3s0.3-0.5,0.3-0.9s-0.1-0.7-0.3-0.9s-0.4-0.3-0.7-0.3
			c-0.3,0-0.5,0.1-0.7,0.3S307.7,80.4,307.7,80.8z"/>
		<path class="st26" d="M310.7,78.6V78h0.5v0.6H310.7z M310.7,82.3v-3.1h0.5v3.1H310.7z"/>
		<path class="st26" d="M312,82.3v-3.1h0.5v0.4c0.2-0.3,0.6-0.5,1-0.5c0.2,0,0.4,0,0.5,0.1c0.2,0.1,0.3,0.2,0.4,0.3s0.1,0.2,0.2,0.4
			c0,0.1,0,0.3,0,0.5v1.9H314v-1.9c0-0.2,0-0.4-0.1-0.5c0-0.1-0.1-0.2-0.2-0.3s-0.2-0.1-0.4-0.1c-0.2,0-0.4,0.1-0.6,0.2
			s-0.2,0.4-0.2,0.8v1.7L312,82.3L312,82.3z"/>
		<path class="st26" d="M316.5,81.8l0.1,0.5c-0.1,0-0.3,0-0.4,0c-0.2,0-0.3,0-0.4-0.1s-0.2-0.1-0.2-0.2s-0.1-0.3-0.1-0.6v-1.8H315
			v-0.4h0.4v-0.8l0.5-0.3v1.1h0.5v0.4H316v1.8c0,0.2,0,0.2,0,0.3s0,0.1,0.1,0.1s0.1,0,0.2,0C316.3,81.9,316.4,81.9,316.5,81.8z"/>
	</g>
	<g class="st31">
		<path class="st26" d="M223.5,136.7v-4.3h1.9c0.4,0,0.7,0,0.9,0.1s0.4,0.2,0.5,0.4s0.2,0.4,0.2,0.6c0,0.3-0.1,0.6-0.3,0.8
			s-0.5,0.3-0.9,0.4c0.2,0.1,0.3,0.1,0.3,0.2c0.2,0.2,0.3,0.3,0.5,0.6l0.7,1.2h-0.7l-0.6-0.9c-0.2-0.3-0.3-0.5-0.4-0.6
			s-0.2-0.2-0.3-0.3s-0.2-0.1-0.3-0.1s-0.2,0-0.3,0H224v1.9L223.5,136.7L223.5,136.7z M224.1,134.3h1.2c0.3,0,0.5,0,0.6-0.1
			s0.3-0.1,0.3-0.3c0.1-0.1,0.1-0.2,0.1-0.4s-0.1-0.4-0.2-0.5s-0.4-0.2-0.7-0.2H224L224.1,134.3L224.1,134.3z"/>
		<path class="st26" d="M229.9,135.7l0.5,0.1c-0.1,0.3-0.2,0.6-0.5,0.7s-0.5,0.3-0.9,0.3c-0.5,0-0.8-0.1-1.1-0.4s-0.4-0.7-0.4-1.2
			s0.1-0.9,0.4-1.2s0.6-0.4,1-0.4s0.8,0.1,1,0.4s0.4,0.7,0.4,1.2v0.1H228c0,0.3,0.1,0.6,0.3,0.8s0.4,0.3,0.7,0.3
			c0.2,0,0.4-0.1,0.5-0.2S229.8,136,229.9,135.7z M228.2,134.9h1.7c0-0.3-0.1-0.5-0.2-0.6c-0.2-0.2-0.4-0.3-0.7-0.3
			c-0.2,0-0.4,0.1-0.6,0.2S228.2,134.6,228.2,134.9z"/>
		<path class="st26" d="M233.1,135.6l0.5,0.1c-0.1,0.4-0.2,0.6-0.4,0.8s-0.5,0.3-0.9,0.3s-0.8-0.1-1-0.4c-0.3-0.3-0.4-0.7-0.4-1.2
			c0-0.3,0.1-0.6,0.2-0.9s0.3-0.4,0.5-0.6c0.2-0.1,0.5-0.2,0.7-0.2c0.3,0,0.6,0.1,0.8,0.3s0.4,0.4,0.4,0.7l-0.5,0.1
			c0-0.2-0.1-0.4-0.3-0.5s-0.3-0.2-0.4-0.2c-0.3,0-0.5,0.1-0.6,0.3c-0.2,0.2-0.2,0.5-0.2,0.9s0.1,0.7,0.2,0.9s0.4,0.3,0.6,0.3
			c0.2,0,0.4-0.1,0.5-0.2S233.1,135.9,233.1,135.6z"/>
		<path class="st26" d="M236.2,135.7l0.5,0.1c-0.1,0.3-0.2,0.6-0.5,0.7s-0.5,0.3-0.9,0.3c-0.5,0-0.8-0.1-1.1-0.4s-0.4-0.7-0.4-1.2
			s0.1-0.9,0.4-1.2s0.6-0.4,1-0.4s0.8,0.1,1,0.4s0.4,0.7,0.4,1.2v0.1h-2.3c0,0.3,0.1,0.6,0.3,0.8s0.4,0.3,0.7,0.3
			c0.2,0,0.4-0.1,0.5-0.2S236.1,136,236.2,135.7z M234.5,134.9h1.7c0-0.3-0.1-0.5-0.2-0.6c-0.2-0.2-0.4-0.3-0.7-0.3
			c-0.2,0-0.4,0.1-0.6,0.2S234.5,134.6,234.5,134.9z"/>
		<path class="st26" d="M237.4,137.9v-4.3h0.5v0.4c0.1-0.2,0.2-0.3,0.4-0.4c0.1-0.1,0.3-0.1,0.5-0.1c0.3,0,0.5,0.1,0.7,0.2
			s0.4,0.3,0.5,0.6c0.1,0.2,0.2,0.5,0.2,0.8s-0.1,0.6-0.2,0.9c-0.1,0.3-0.3,0.5-0.5,0.6s-0.4,0.2-0.7,0.2c-0.2,0-0.3,0-0.5-0.1
			s-0.3-0.2-0.3-0.3v1.5L237.4,137.9L237.4,137.9z M237.9,135.2c0,0.4,0.1,0.7,0.2,0.9s0.4,0.3,0.6,0.3c0.2,0,0.4-0.1,0.6-0.3
			s0.3-0.5,0.3-0.9s-0.1-0.7-0.2-0.9s-0.4-0.3-0.6-0.3c-0.2,0-0.4,0.1-0.6,0.3S237.9,134.8,237.9,135.2z"/>
		<path class="st26" d="M241.9,136.3l0.1,0.5c-0.1,0-0.3,0-0.4,0c-0.2,0-0.3,0-0.4-0.1s-0.2-0.1-0.2-0.2c0-0.1-0.1-0.3-0.1-0.6V134
			h-0.4v-0.4h0.4v-0.8l0.5-0.3v1.1h0.5v0.4h-0.5v1.8c0,0.2,0,0.2,0,0.3s0,0.1,0.1,0.1s0.1,0,0.2,0
			C241.7,136.3,241.8,136.3,241.9,136.3z"/>
		<path class="st26" d="M242.4,133.1v-0.6h0.5v0.6H242.4z M242.4,136.7v-3.1h0.5v3.1H242.4z"/>
		<path class="st26" d="M243.6,135.2c0-0.6,0.2-1,0.5-1.3c0.3-0.2,0.6-0.3,1-0.3s0.8,0.1,1,0.4c0.3,0.3,0.4,0.7,0.4,1.2
			c0,0.4-0.1,0.7-0.2,0.9s-0.3,0.4-0.5,0.5s-0.5,0.2-0.8,0.2c-0.4,0-0.8-0.1-1.1-0.4S243.6,135.7,243.6,135.2z M244.1,135.2
			c0,0.4,0.1,0.7,0.3,0.9s0.4,0.3,0.7,0.3s0.5-0.1,0.7-0.3s0.3-0.5,0.3-0.9s-0.1-0.7-0.3-0.9s-0.4-0.3-0.7-0.3s-0.5,0.1-0.7,0.3
			S244.1,134.8,244.1,135.2z"/>
		<path class="st26" d="M247.1,136.7v-3.1h0.5v0.4c0.2-0.3,0.6-0.5,1-0.5c0.2,0,0.4,0,0.5,0.1c0.2,0.1,0.3,0.2,0.4,0.3
			s0.1,0.2,0.2,0.4c0,0.1,0,0.3,0,0.5v1.9h-0.5v-1.9c0-0.2,0-0.4-0.1-0.5c0-0.1-0.1-0.2-0.2-0.3s-0.2-0.1-0.4-0.1s-0.4,0.1-0.6,0.2
			s-0.2,0.4-0.2,0.8v1.7h-0.6L247.1,136.7L247.1,136.7z"/>
	</g>
	<g class="st31">
		<path class="st26" d="M217.1,51.4h0.5c0,0.2,0.1,0.4,0.2,0.5c0.1,0.1,0.2,0.2,0.4,0.3s0.4,0.1,0.7,0.1c0.2,0,0.4,0,0.6-0.1
			s0.3-0.2,0.4-0.3c0.1-0.1,0.1-0.2,0.1-0.4c0-0.1,0-0.3-0.1-0.4c-0.1-0.1-0.2-0.2-0.4-0.3c-0.1,0-0.4-0.1-0.8-0.2
			c-0.4-0.1-0.7-0.2-0.8-0.3c-0.2-0.1-0.4-0.2-0.5-0.4s-0.2-0.3-0.2-0.5s0.1-0.4,0.2-0.6c0.1-0.2,0.3-0.3,0.5-0.4s0.5-0.1,0.8-0.1
			s0.6,0.1,0.8,0.2c0.2,0.1,0.4,0.3,0.6,0.5s0.2,0.4,0.2,0.7h-0.5c0-0.3-0.1-0.5-0.3-0.6s-0.4-0.2-0.7-0.2s-0.6,0.1-0.8,0.2
			c-0.2,0.1-0.2,0.3-0.2,0.5s0.1,0.3,0.2,0.4c0.1,0.1,0.4,0.2,0.9,0.3s0.8,0.2,1,0.3s0.4,0.3,0.6,0.4c0.1,0.2,0.2,0.4,0.2,0.6
			c0,0.2-0.1,0.4-0.2,0.6c-0.1,0.2-0.3,0.4-0.6,0.5c-0.2,0.1-0.5,0.2-0.8,0.2c-0.4,0-0.7-0.1-1-0.2s-0.5-0.3-0.6-0.5
			S217.1,51.7,217.1,51.4z"/>
		<path class="st26" d="M223.3,51.8l0.5,0.1c-0.1,0.3-0.2,0.6-0.5,0.7s-0.5,0.3-0.9,0.3c-0.5,0-0.8-0.1-1.1-0.4s-0.4-0.7-0.4-1.2
			s0.1-0.9,0.4-1.2s0.6-0.4,1-0.4s0.8,0.1,1,0.4s0.4,0.7,0.4,1.2v0.1h-2.3c0,0.3,0.1,0.6,0.3,0.8s0.4,0.3,0.7,0.3
			c0.2,0,0.4-0.1,0.5-0.2S223.2,52,223.3,51.8z M221.6,51h1.7c0-0.3-0.1-0.5-0.2-0.6c-0.2-0.2-0.4-0.3-0.7-0.3
			c-0.2,0-0.4,0.1-0.6,0.2S221.6,50.7,221.6,51z"/>
		<path class="st26" d="M226.6,51.7l0.5,0.1c-0.1,0.4-0.2,0.6-0.4,0.8s-0.5,0.3-0.9,0.3s-0.8-0.1-1-0.4c-0.3-0.3-0.4-0.7-0.4-1.2
			c0-0.3,0.1-0.6,0.2-0.9s0.3-0.4,0.5-0.6c0.2-0.1,0.5-0.2,0.7-0.2c0.3,0,0.6,0.1,0.8,0.3s0.4,0.4,0.4,0.7l-0.5,0.1
			c0-0.2-0.1-0.4-0.3-0.5s-0.3-0.2-0.4-0.2c-0.3,0-0.5,0.1-0.6,0.3c-0.2,0.2-0.2,0.5-0.2,0.9s0.1,0.7,0.2,0.9s0.4,0.3,0.6,0.3
			c0.2,0,0.4-0.1,0.5-0.2S226.5,51.9,226.6,51.7z"/>
		<path class="st26" d="M229.6,52.8v-0.5c-0.2,0.4-0.6,0.5-1,0.5c-0.2,0-0.4,0-0.5-0.1s-0.3-0.2-0.4-0.3c-0.1-0.1-0.1-0.2-0.2-0.4
			c0-0.1,0-0.3,0-0.5v-1.9h0.5v1.7c0,0.3,0,0.5,0,0.6s0.1,0.2,0.2,0.3c0.1,0.1,0.2,0.1,0.4,0.1s0.3,0,0.4-0.1
			c0.1-0.1,0.2-0.2,0.3-0.3s0.1-0.3,0.1-0.6v-1.7h0.5v3.1h-0.3V52.8z"/>
		<path class="st26" d="M230.9,52.8v-3.1h0.5v0.5c0.1-0.2,0.2-0.4,0.3-0.4s0.2-0.1,0.3-0.1c0.2,0,0.4,0.1,0.5,0.2l-0.2,0.5
			c-0.1-0.1-0.3-0.1-0.4-0.1c-0.1,0-0.2,0-0.3,0.1s-0.2,0.2-0.2,0.3c-0.1,0.2-0.1,0.4-0.1,0.6v1.6L230.9,52.8L230.9,52.8z"/>
		<path class="st26" d="M232.9,49.1v-0.6h0.5v0.6H232.9z M232.9,52.8v-3.1h0.5v3.1H232.9z"/>
		<path class="st26" d="M235.3,52.3l0.1,0.5c-0.1,0-0.3,0-0.4,0c-0.2,0-0.3,0-0.4-0.1s-0.2-0.1-0.2-0.2c0-0.1-0.1-0.3-0.1-0.6v-1.8
			h-0.4v-0.4h0.4v-0.8l0.5-0.3v1.1h0.5v0.4h-0.5v1.8c0,0.2,0,0.2,0,0.3s0,0.1,0.1,0.1s0.1,0,0.2,0C235.2,52.4,235.3,52.3,235.3,52.3
			z"/>
		<path class="st26" d="M235.8,54l-0.1-0.5c0.1,0,0.2,0,0.3,0s0.2,0,0.3-0.1s0.1-0.1,0.2-0.2c0-0.1,0.1-0.2,0.2-0.4v-0.1l-1.2-3.1
			h0.6l0.6,1.8c0.1,0.2,0.2,0.5,0.2,0.7c0.1-0.2,0.1-0.5,0.2-0.7l0.7-1.8h0.5l-1.2,3.2c-0.1,0.3-0.2,0.6-0.3,0.7
			c-0.1,0.2-0.2,0.3-0.3,0.4s-0.3,0.1-0.4,0.1C236.1,54.1,236,54,235.8,54z"/>
	</g>
	<g class="st31">
		<path class="st26" d="M220.5,58.5l0.6,0.1c-0.1,0.5-0.3,0.8-0.6,1.1c-0.3,0.2-0.7,0.4-1.1,0.4c-0.5,0-0.8-0.1-1.1-0.3
			s-0.5-0.5-0.7-0.8s-0.2-0.7-0.2-1.2c0-0.4,0.1-0.8,0.3-1.2s0.4-0.6,0.7-0.8s0.7-0.3,1-0.3c0.4,0,0.8,0.1,1.1,0.3s0.5,0.5,0.6,0.9
			l-0.6,0.1c-0.1-0.3-0.2-0.5-0.4-0.7s-0.4-0.2-0.7-0.2s-0.6,0.1-0.8,0.2s-0.4,0.4-0.5,0.6c-0.1,0.3-0.1,0.5-0.1,0.8
			c0,0.4,0.1,0.7,0.2,1c0.1,0.3,0.3,0.5,0.5,0.6s0.5,0.2,0.7,0.2c0.3,0,0.6-0.1,0.8-0.3S220.4,58.9,220.5,58.5z"/>
		<path class="st26" d="M221.5,58.4c0-0.6,0.2-1,0.5-1.3c0.3-0.2,0.6-0.3,1-0.3s0.8,0.1,1,0.4c0.3,0.3,0.4,0.7,0.4,1.2
			c0,0.4-0.1,0.7-0.2,0.9s-0.3,0.4-0.5,0.5s-0.5,0.2-0.8,0.2c-0.4,0-0.8-0.1-1.1-0.4S221.5,59,221.5,58.4z M222,58.4
			c0,0.4,0.1,0.7,0.3,0.9s0.4,0.3,0.7,0.3s0.5-0.1,0.7-0.3s0.3-0.5,0.3-0.9s-0.1-0.7-0.3-0.9s-0.4-0.3-0.7-0.3s-0.5,0.1-0.7,0.3
			S222,58.1,222,58.4z"/>
		<path class="st26" d="M227.1,60v-0.5c-0.2,0.4-0.6,0.5-1,0.5c-0.2,0-0.4,0-0.5-0.1s-0.3-0.2-0.4-0.3c-0.1-0.1-0.1-0.2-0.2-0.4
			c0-0.1,0-0.3,0-0.5v-1.9h0.5v1.7c0,0.3,0,0.5,0,0.6s0.1,0.2,0.2,0.3c0.1,0.1,0.2,0.1,0.4,0.1s0.3,0,0.4-0.1
			c0.1-0.1,0.2-0.2,0.3-0.3s0.1-0.3,0.1-0.6v-1.7h0.5V60H227.1z"/>
		<path class="st26" d="M228.4,60v-3.1h0.5v0.4c0.2-0.3,0.6-0.5,1-0.5c0.2,0,0.4,0,0.5,0.1c0.2,0.1,0.3,0.2,0.4,0.3s0.1,0.2,0.2,0.4
			c0,0.1,0,0.3,0,0.5V60h-0.5v-1.9c0-0.2,0-0.4-0.1-0.5c0-0.1-0.1-0.2-0.2-0.3s-0.2-0.1-0.4-0.1s-0.4,0.1-0.6,0.2s-0.2,0.4-0.2,0.8
			V60H228.4z"/>
		<path class="st26" d="M232.9,59.5L233,60c-0.1,0-0.3,0-0.4,0c-0.2,0-0.3,0-0.4-0.1s-0.2-0.1-0.2-0.2c0-0.1-0.1-0.3-0.1-0.6v-1.8
			h-0.4v-0.4h0.4v-0.8l0.5-0.3v1.1h0.5v0.4h-0.5v1.8c0,0.2,0,0.2,0,0.3s0,0.1,0.1,0.1s0.1,0,0.2,0C232.7,59.6,232.8,59.5,232.9,59.5
			z"/>
		<path class="st26" d="M235.5,59l0.5,0.1c-0.1,0.3-0.2,0.6-0.5,0.7s-0.5,0.3-0.9,0.3c-0.5,0-0.8-0.1-1.1-0.4s-0.4-0.7-0.4-1.2
			s0.1-0.9,0.4-1.2s0.6-0.4,1-0.4s0.8,0.1,1,0.4s0.4,0.7,0.4,1.2v0.1h-2.3c0,0.3,0.1,0.6,0.3,0.8s0.4,0.3,0.7,0.3
			c0.2,0,0.4-0.1,0.5-0.2S235.4,59.2,235.5,59z M233.8,58.1h1.7c0-0.3-0.1-0.5-0.2-0.6c-0.2-0.2-0.4-0.3-0.7-0.3
			c-0.2,0-0.4,0.1-0.6,0.2C233.9,57.7,233.8,57.9,233.8,58.1z"/>
		<path class="st26" d="M236.7,60v-3.1h0.5v0.5c0.1-0.2,0.2-0.4,0.3-0.4s0.2-0.1,0.3-0.1c0.2,0,0.4,0.1,0.5,0.2l-0.2,0.5
			c-0.1-0.1-0.3-0.1-0.4-0.1c-0.1,0-0.2,0-0.3,0.1s-0.2,0.2-0.2,0.3c-0.1,0.2-0.1,0.4-0.1,0.6V60H236.7z"/>
	</g>
	<g class="st31">
		<path class="st26" d="M378.5,76.3V72h0.6v3.8h2.1v0.5H378.5z"/>
		<path class="st26" d="M381.6,74.8c0-0.6,0.2-1,0.5-1.3c0.3-0.2,0.6-0.3,1-0.3s0.8,0.1,1,0.4c0.3,0.3,0.4,0.7,0.4,1.2
			c0,0.4-0.1,0.7-0.2,0.9s-0.3,0.4-0.5,0.5s-0.5,0.2-0.8,0.2c-0.4,0-0.8-0.1-1.1-0.4S381.6,75.3,381.6,74.8z M382.1,74.8
			c0,0.4,0.1,0.7,0.3,0.9s0.4,0.3,0.7,0.3c0.3,0,0.5-0.1,0.7-0.3s0.3-0.5,0.3-0.9s-0.1-0.7-0.3-0.9s-0.4-0.3-0.7-0.3
			c-0.3,0-0.5,0.1-0.7,0.3S382.1,74.4,382.1,74.8z"/>
		<path class="st26" d="M387.1,76.3v-0.5c-0.2,0.4-0.6,0.5-1,0.5c-0.2,0-0.4,0-0.5-0.1s-0.3-0.2-0.4-0.3c-0.1-0.1-0.1-0.2-0.2-0.4
			c0-0.1,0-0.3,0-0.5v-1.9h0.5v1.7c0,0.3,0,0.5,0,0.6s0.1,0.2,0.2,0.3c0.1,0.1,0.2,0.1,0.4,0.1s0.3,0,0.4-0.1s0.2-0.2,0.3-0.3
			s0.1-0.3,0.1-0.6v-1.7h0.5v3.1h-0.3V76.3z"/>
		<path class="st26" d="M388.4,76.3v-3.1h0.5v0.4c0.2-0.3,0.6-0.5,1-0.5c0.2,0,0.4,0,0.5,0.1c0.2,0.1,0.3,0.2,0.4,0.3
			s0.1,0.2,0.2,0.4c0,0.1,0,0.3,0,0.5v1.9h-0.5v-1.9c0-0.2,0-0.4-0.1-0.5c0-0.1-0.1-0.2-0.2-0.3s-0.2-0.1-0.4-0.1
			c-0.2,0-0.4,0.1-0.6,0.2s-0.2,0.4-0.2,0.8v1.7L388.4,76.3L388.4,76.3z"/>
		<path class="st26" d="M391.7,76.6l0.5,0.1c0,0.2,0.1,0.3,0.2,0.3c0.1,0.1,0.3,0.1,0.5,0.1s0.4,0,0.6-0.1s0.2-0.2,0.3-0.4
			c0-0.1,0-0.3,0-0.7c-0.2,0.3-0.5,0.4-0.9,0.4s-0.8-0.2-1-0.5s-0.4-0.7-0.4-1.1c0-0.3,0.1-0.6,0.2-0.8s0.3-0.4,0.5-0.6
			s0.4-0.2,0.7-0.2c0.4,0,0.7,0.1,0.9,0.4v-0.4h0.5v2.7c0,0.5,0,0.8-0.1,1s-0.3,0.4-0.5,0.5s-0.5,0.2-0.8,0.2
			c-0.4,0-0.7-0.1-0.9-0.3C391.8,77.2,391.7,76.9,391.7,76.6z M392.1,74.7c0,0.4,0.1,0.7,0.2,0.9s0.4,0.3,0.6,0.3s0.4-0.1,0.6-0.3
			c0.2-0.2,0.2-0.5,0.2-0.9s-0.1-0.7-0.3-0.9s-0.4-0.3-0.6-0.3s-0.4,0.1-0.6,0.3C392.2,74,392.1,74.3,392.1,74.7z"/>
		<path class="st26" d="M397.2,75.3l0.5,0.1c-0.1,0.3-0.2,0.6-0.5,0.7s-0.5,0.3-0.9,0.3c-0.5,0-0.8-0.1-1.1-0.4s-0.4-0.7-0.4-1.2
			s0.1-0.9,0.4-1.2s0.6-0.4,1-0.4s0.8,0.1,1,0.4s0.4,0.7,0.4,1.2v0.1h-2.3c0,0.3,0.1,0.6,0.3,0.8s0.4,0.3,0.7,0.3
			c0.2,0,0.4-0.1,0.5-0.2S397.1,75.5,397.2,75.3z M395.5,74.5h1.7c0-0.3-0.1-0.5-0.2-0.6c-0.2-0.2-0.4-0.3-0.7-0.3
			c-0.2,0-0.4,0.1-0.6,0.2S395.5,74.2,395.5,74.5z"/>
	</g>
	<g class="st31">
		<path class="st26" d="M376.2,216.9v-4.3h1.6c0.3,0,0.5,0,0.7,0s0.4,0.1,0.5,0.2s0.3,0.2,0.3,0.4s0.1,0.4,0.1,0.6
			c0,0.4-0.1,0.7-0.3,0.9s-0.7,0.4-1.3,0.4h-1.1v1.7h-0.5L376.2,216.9L376.2,216.9z M376.7,214.6h1.1c0.4,0,0.6-0.1,0.8-0.2
			s0.2-0.3,0.2-0.6c0-0.2,0-0.3-0.1-0.5s-0.2-0.2-0.4-0.3c-0.1,0-0.3,0-0.5,0h-1.1V214.6z"/>
		<path class="st26" d="M380.1,216.9v-3.1h0.5v0.5c0.1-0.2,0.2-0.4,0.3-0.4s0.2-0.1,0.3-0.1c0.2,0,0.4,0.1,0.5,0.2l-0.2,0.5
			c-0.1-0.1-0.3-0.1-0.4-0.1s-0.2,0-0.3,0.1c-0.1,0.1-0.2,0.2-0.2,0.3c-0.1,0.2-0.1,0.4-0.1,0.6v1.6h-0.4L380.1,216.9L380.1,216.9z"
			/>
		<path class="st26" d="M384.2,215.9l0.5,0.1c-0.1,0.3-0.2,0.6-0.5,0.7s-0.5,0.3-0.9,0.3c-0.5,0-0.8-0.1-1.1-0.4s-0.4-0.7-0.4-1.2
			s0.1-0.9,0.4-1.2s0.6-0.4,1-0.4s0.8,0.1,1,0.4s0.4,0.7,0.4,1.2v0.1h-2.3c0,0.3,0.1,0.6,0.3,0.8s0.4,0.3,0.7,0.3
			c0.2,0,0.4-0.1,0.5-0.2S384.1,216.1,384.2,215.9z M382.5,215h1.7c0-0.3-0.1-0.5-0.2-0.6c-0.2-0.2-0.4-0.3-0.7-0.3
			c-0.2,0-0.4,0.1-0.6,0.2S382.5,214.8,382.5,215z"/>
		<path class="st26" d="M385.2,215.9l0.5-0.1c0,0.2,0.1,0.4,0.2,0.5s0.3,0.2,0.6,0.2c0.2,0,0.4,0,0.5-0.1s0.2-0.2,0.2-0.3
			s-0.1-0.2-0.2-0.3c-0.1,0-0.3-0.1-0.5-0.2c-0.4-0.1-0.7-0.2-0.8-0.3c-0.1-0.1-0.3-0.2-0.3-0.3c-0.1-0.1-0.1-0.3-0.1-0.4
			c0-0.1,0-0.3,0.1-0.4s0.2-0.2,0.3-0.3c0.1-0.1,0.2-0.1,0.3-0.2c0.1,0,0.3-0.1,0.5-0.1s0.5,0,0.6,0.1s0.3,0.2,0.4,0.3
			s0.1,0.3,0.2,0.5l-0.5,0.1c0-0.2-0.1-0.3-0.2-0.4s-0.3-0.1-0.5-0.1s-0.4,0-0.5,0.1s-0.2,0.2-0.2,0.3s0,0.1,0.1,0.2
			c0,0.1,0.1,0.1,0.2,0.1s0.2,0.1,0.5,0.1c0.4,0.1,0.6,0.2,0.8,0.2c0.1,0.1,0.3,0.2,0.3,0.3s0.1,0.3,0.1,0.5s-0.1,0.3-0.2,0.5
			s-0.2,0.3-0.4,0.4c-0.2,0.1-0.4,0.1-0.7,0.1c-0.4,0-0.7-0.1-0.9-0.3S385.3,216.3,385.2,215.9z"/>
		<path class="st26" d="M390.6,215.9l0.5,0.1c-0.1,0.3-0.2,0.6-0.5,0.7s-0.5,0.3-0.9,0.3c-0.5,0-0.8-0.1-1.1-0.4s-0.4-0.7-0.4-1.2
			s0.1-0.9,0.4-1.2s0.6-0.4,1-0.4s0.8,0.1,1,0.4s0.4,0.7,0.4,1.2v0.1h-2.3c0,0.3,0.1,0.6,0.3,0.8s0.4,0.3,0.7,0.3
			c0.2,0,0.4-0.1,0.5-0.2S390.5,216.1,390.6,215.9z M388.8,215h1.7c0-0.3-0.1-0.5-0.2-0.6c-0.2-0.2-0.4-0.3-0.7-0.3
			c-0.2,0-0.4,0.1-0.6,0.2S388.8,214.8,388.8,215z"/>
		<path class="st26" d="M391.8,216.9v-3.1h0.5v0.4c0.2-0.3,0.6-0.5,1-0.5c0.2,0,0.4,0,0.5,0.1c0.2,0.1,0.3,0.2,0.4,0.3
			s0.1,0.2,0.2,0.4c0,0.1,0,0.3,0,0.5v1.9h-0.5V215c0-0.2,0-0.4-0.1-0.5c0-0.1-0.1-0.2-0.2-0.3s-0.2-0.1-0.4-0.1
			c-0.2,0-0.4,0.1-0.6,0.2s-0.2,0.4-0.2,0.8v1.7h-0.6L391.8,216.9L391.8,216.9z"/>
		<path class="st26" d="M396.3,216.4l0.1,0.5c-0.1,0-0.3,0-0.4,0c-0.2,0-0.3,0-0.4-0.1s-0.2-0.1-0.2-0.2c0-0.1-0.1-0.3-0.1-0.6v-1.8
			h-0.4v-0.4h0.4V213l0.5-0.3v1.1h0.5v0.4h-0.5v1.8c0,0.2,0,0.2,0,0.3s0,0.1,0.1,0.1s0.1,0,0.2,0
			C396.1,216.4,396.2,216.4,396.3,216.4z"/>
		<path class="st26" d="M398.8,216.5c-0.2,0.2-0.4,0.3-0.6,0.4s-0.4,0.1-0.6,0.1c-0.3,0-0.6-0.1-0.8-0.2c-0.2-0.2-0.3-0.4-0.3-0.6
			c0-0.2,0-0.3,0.1-0.4c0.1-0.1,0.2-0.2,0.3-0.3s0.2-0.1,0.4-0.2c0.1,0,0.3-0.1,0.5-0.1c0.4-0.1,0.7-0.1,0.9-0.2c0-0.1,0-0.1,0-0.1
			c0-0.2,0-0.4-0.1-0.5s-0.3-0.2-0.6-0.2c-0.2,0-0.4,0-0.5,0.1s-0.2,0.2-0.3,0.5l-0.5-0.1c0-0.2,0.1-0.4,0.2-0.5s0.3-0.2,0.5-0.3
			s0.4-0.1,0.7-0.1c0.3,0,0.5,0,0.6,0.1s0.3,0.1,0.4,0.2s0.1,0.2,0.2,0.4c0,0.1,0,0.3,0,0.5v0.7c0,0.5,0,0.8,0,0.9s0.1,0.3,0.1,0.4
			h-0.6C398.8,216.8,398.8,216.6,398.8,216.5z M398.8,215.3c-0.2,0.1-0.5,0.1-0.9,0.2c-0.2,0-0.4,0.1-0.5,0.1s-0.2,0.1-0.2,0.2
			c0,0.1-0.1,0.2-0.1,0.3s0.1,0.3,0.2,0.4s0.3,0.1,0.5,0.1s0.4,0,0.5-0.1c0.2-0.1,0.3-0.2,0.3-0.4c0.1-0.1,0.1-0.3,0.1-0.5v-0.3
			H398.8z"/>
		<path class="st26" d="M401.3,216.4l0.1,0.5c-0.1,0-0.3,0-0.4,0c-0.2,0-0.3,0-0.4-0.1s-0.2-0.1-0.2-0.2c0-0.1-0.1-0.3-0.1-0.6v-1.8
			h-0.4v-0.4h0.4V213l0.5-0.3v1.1h0.5v0.4h-0.5v1.8c0,0.2,0,0.2,0,0.3s0,0.1,0.1,0.1s0.1,0,0.2,0
			C401.1,216.4,401.2,216.4,401.3,216.4z"/>
		<path class="st26" d="M401.8,213.2v-0.6h0.5v0.6H401.8z M401.8,216.9v-3.1h0.5v3.1H401.8z"/>
		<path class="st26" d="M402.9,215.3c0-0.6,0.2-1,0.5-1.3c0.3-0.2,0.6-0.3,1-0.3s0.8,0.1,1,0.4c0.3,0.3,0.4,0.7,0.4,1.2
			c0,0.4-0.1,0.7-0.2,0.9s-0.3,0.4-0.5,0.5s-0.5,0.2-0.8,0.2c-0.4,0-0.8-0.1-1.1-0.4S402.9,215.8,402.9,215.3z M403.5,215.3
			c0,0.4,0.1,0.7,0.3,0.9s0.4,0.3,0.7,0.3c0.3,0,0.5-0.1,0.7-0.3s0.3-0.5,0.3-0.9s-0.1-0.7-0.3-0.9s-0.4-0.3-0.7-0.3
			c-0.3,0-0.5,0.1-0.7,0.3S403.5,214.9,403.5,215.3z"/>
		<path class="st26" d="M406.4,216.9v-3.1h0.5v0.4c0.2-0.3,0.6-0.5,1-0.5c0.2,0,0.4,0,0.5,0.1c0.2,0.1,0.3,0.2,0.4,0.3
			s0.1,0.2,0.2,0.4c0,0.1,0,0.3,0,0.5v1.9h-0.5V215c0-0.2,0-0.4-0.1-0.5c0-0.1-0.1-0.2-0.2-0.3s-0.2-0.1-0.4-0.1
			c-0.2,0-0.4,0.1-0.6,0.2s-0.2,0.4-0.2,0.8v1.7h-0.6L406.4,216.9L406.4,216.9z"/>
	</g>
	<g class="st31">
		<path class="st26" d="M384.3,222.7h0.5c0,0.2,0.1,0.4,0.2,0.5s0.2,0.2,0.4,0.3c0.2,0.1,0.4,0.1,0.7,0.1c0.2,0,0.4,0,0.6-0.1
			s0.3-0.2,0.4-0.3s0.1-0.2,0.1-0.4c0-0.1,0-0.3-0.1-0.4c-0.1-0.1-0.2-0.2-0.4-0.3c-0.1,0-0.4-0.1-0.8-0.2c-0.4-0.1-0.7-0.2-0.8-0.3
			c-0.2-0.1-0.4-0.2-0.5-0.4s-0.2-0.3-0.2-0.5s0.1-0.4,0.2-0.6c0.1-0.2,0.3-0.3,0.5-0.4s0.5-0.1,0.8-0.1s0.6,0.1,0.8,0.2
			c0.2,0.1,0.4,0.3,0.6,0.5s0.2,0.4,0.2,0.7H387c0-0.3-0.1-0.5-0.3-0.6s-0.4-0.2-0.7-0.2c-0.3,0-0.6,0.1-0.8,0.2
			c-0.2,0.1-0.2,0.3-0.2,0.5s0.1,0.3,0.2,0.4c0.1,0.1,0.4,0.2,0.9,0.3s0.8,0.2,1,0.3s0.4,0.3,0.6,0.4c0.1,0.2,0.2,0.4,0.2,0.6
			c0,0.2-0.1,0.4-0.2,0.6c-0.1,0.2-0.3,0.4-0.6,0.5c-0.2,0.1-0.5,0.2-0.8,0.2c-0.4,0-0.7-0.1-1-0.2s-0.5-0.3-0.6-0.5
			S384.3,223,384.3,222.7z"/>
		<path class="st26" d="M388.4,225.3V221h0.5v0.4c0.1-0.2,0.2-0.3,0.4-0.4c0.1-0.1,0.3-0.1,0.5-0.1c0.3,0,0.5,0.1,0.7,0.2
			s0.4,0.3,0.5,0.6c0.1,0.2,0.2,0.5,0.2,0.8s-0.1,0.6-0.2,0.9c-0.1,0.3-0.3,0.5-0.5,0.6s-0.4,0.2-0.7,0.2c-0.2,0-0.3,0-0.5-0.1
			s-0.3-0.2-0.3-0.3v1.5L388.4,225.3L388.4,225.3z M388.9,222.5c0,0.4,0.1,0.7,0.2,0.9s0.4,0.3,0.6,0.3s0.4-0.1,0.6-0.3
			s0.3-0.5,0.3-0.9s-0.1-0.7-0.2-0.9s-0.4-0.3-0.6-0.3s-0.4,0.1-0.6,0.3S388.9,222.1,388.9,222.5z"/>
		<path class="st26" d="M393.8,223.7c-0.2,0.2-0.4,0.3-0.6,0.4s-0.4,0.1-0.6,0.1c-0.3,0-0.6-0.1-0.8-0.2c-0.2-0.2-0.3-0.4-0.3-0.6
			c0-0.2,0-0.3,0.1-0.4c0.1-0.1,0.2-0.2,0.3-0.3s0.2-0.1,0.4-0.2c0.1,0,0.3-0.1,0.5-0.1c0.4-0.1,0.7-0.1,0.9-0.2c0-0.1,0-0.1,0-0.1
			c0-0.2,0-0.4-0.1-0.5s-0.3-0.2-0.6-0.2c-0.2,0-0.4,0-0.5,0.1s-0.2,0.2-0.3,0.5l-0.5-0.1c0-0.2,0.1-0.4,0.2-0.5s0.3-0.2,0.5-0.3
			s0.4-0.1,0.7-0.1c0.3,0,0.5,0,0.6,0.1s0.3,0.1,0.4,0.2s0.1,0.2,0.2,0.4c0,0.1,0,0.3,0,0.5v0.7c0,0.5,0,0.8,0,0.9s0.1,0.3,0.1,0.4
			h-0.6C393.8,224,393.8,223.8,393.8,223.7z M393.8,222.5c-0.2,0.1-0.5,0.1-0.9,0.2c-0.2,0-0.4,0.1-0.5,0.1s-0.2,0.1-0.2,0.2
			c0,0.1-0.1,0.2-0.1,0.3s0.1,0.3,0.2,0.4s0.3,0.1,0.5,0.1s0.4,0,0.5-0.1c0.2-0.1,0.3-0.2,0.3-0.4c0.1-0.1,0.1-0.3,0.1-0.5v-0.3
			H393.8z"/>
		<path class="st26" d="M397.1,222.9l0.5,0.1c-0.1,0.4-0.2,0.6-0.4,0.8c-0.2,0.2-0.5,0.3-0.9,0.3s-0.8-0.1-1-0.4
			c-0.3-0.3-0.4-0.7-0.4-1.2c0-0.3,0.1-0.6,0.2-0.9s0.3-0.4,0.5-0.6c0.2-0.1,0.5-0.2,0.7-0.2c0.3,0,0.6,0.1,0.8,0.3
			c0.2,0.2,0.4,0.4,0.4,0.7l-0.5,0.1c0-0.2-0.1-0.4-0.3-0.5s-0.3-0.2-0.4-0.2c-0.3,0-0.5,0.1-0.6,0.3c-0.2,0.2-0.2,0.5-0.2,0.9
			s0.1,0.7,0.2,0.9s0.4,0.3,0.6,0.3s0.4-0.1,0.5-0.2S397.1,223.2,397.1,222.9z"/>
		<path class="st26" d="M400.2,223.1l0.5,0.1c-0.1,0.3-0.2,0.6-0.5,0.7s-0.5,0.3-0.9,0.3c-0.5,0-0.8-0.1-1.1-0.4s-0.4-0.7-0.4-1.2
			s0.1-0.9,0.4-1.2s0.6-0.4,1-0.4s0.8,0.1,1,0.4s0.4,0.7,0.4,1.2v0.1h-2.3c0,0.3,0.1,0.6,0.3,0.8s0.4,0.3,0.7,0.3
			c0.2,0,0.4-0.1,0.5-0.2S400.2,223.3,400.2,223.1z M398.5,222.2h1.7c0-0.3-0.1-0.5-0.2-0.6c-0.2-0.2-0.4-0.3-0.7-0.3
			c-0.2,0-0.4,0.1-0.6,0.2S398.5,222,398.5,222.2z"/>
	</g>
	<circle class="st25" cx="235.5" cy="117.8" r="12.9"/>
	<g id="Outline_Icons-2-2">
		<circle class="st32" cx="233.1" cy="113.9" r="1.9"/>
		<path class="st32" d="M236.1,116.9H230c-0.2,1.7,0.5,3.3,1.9,4.2v3.6h2.3v-3.6C235.6,120.2,236.3,118.6,236.1,116.9z"/>
		<line class="st32" x1="235.8" y1="119.2" x2="242.4" y2="119.2"/>
		<circle class="st32" cx="239.6" cy="114.2" r="1.3"/>
		<path class="st32" d="M236.9,119.2c0-1.5,1.2-2.7,2.7-2.7c1.4,0,2.6,1.1,2.7,2.5v0.1l0,0"/>
	</g>
	<circle class="st25" cx="227.6" cy="31" r="13.8"/>
	<polygon class="st33" points="235,24.4 227.5,24.4 227.5,28.2 228.6,28.2 228.6,29.7 230.5,28.2 235,28.2 	"/>
	<rect x="220.8" y="35" class="st33" width="14.3" height="2"/>
	<polyline class="st33" points="223.5,34.5 223.5,32.4 228.4,32.4 228.4,34.5 	"/>
	<circle class="st33" cx="225.8" cy="30.6" r="1.1"/>
	<polyline class="st33" points="234.1,28.2 234.1,35 221.6,35 221.6,26.6 227.5,26.6 	"/>
	<line class="st33" x1="228.9" y1="25.3" x2="233.9" y2="25.3"/>
	<line class="st33" x1="228.9" y1="26.3" x2="233.9" y2="26.3"/>
	<line class="st33" x1="228.9" y1="27.3" x2="233.9" y2="27.3"/>
	<line class="st33" x1="226.5" y1="36.2" x2="229.4" y2="36.2"/>
	<circle class="st25" cx="41.7" cy="152.3" r="12.6"/>
	<g id="Outline_Icons-5-3">
		<path class="st34" d="M46.2,152.5c0,0.2-0.2,0.4-0.2,0.4h-2.5v-5.2c0-0.5,0.4-0.9,0.9-1h1.1c0.5,0,0.9,0.4,1,0.9v0.1l0,0
			L46.2,152.5L46.2,152.5z"/>
		<path class="st34" d="M39.6,157.7h4.8v-2.8l1.4-1v-1h-8.1c-0.1,1.2,0.8,2.3,2,2.4l0,0H40L39.6,157.7z"/>
		<rect x="37.2" y="152.1" class="st34" width="6.2" height="1"/>
		<circle class="st34" cx="45" cy="148.5" r="0.4"/>
	</g>
	<g class="st31">
		<path class="st26" d="M33.8,171v-3.8h-1.4v-0.5h3.4v0.5h-1.4v3.8H33.8z"/>
	</g>
	<g class="st31">
		<path class="st26" d="M35.4,169.5c0-0.6,0.2-1,0.5-1.3c0.3-0.2,0.6-0.3,1-0.3s0.8,0.1,1,0.4c0.3,0.3,0.4,0.7,0.4,1.2
			c0,0.4-0.1,0.7-0.2,0.9s-0.3,0.4-0.5,0.5s-0.5,0.2-0.8,0.2c-0.4,0-0.8-0.1-1.1-0.4S35.4,170,35.4,169.5z M36,169.5
			c0,0.4,0.1,0.7,0.3,0.9s0.4,0.3,0.7,0.3s0.5-0.1,0.7-0.3s0.3-0.5,0.3-0.9s-0.1-0.7-0.3-0.9s-0.4-0.3-0.7-0.3s-0.5,0.1-0.7,0.3
			S36,169.1,36,169.5z"/>
		<path class="st26" d="M39,167.3v-0.6h0.5v0.6H39z M39,171v-3.1h0.5v3.1H39z"/>
		<path class="st26" d="M40.3,171v-4.3h0.5v4.3H40.3z"/>
		<path class="st26" d="M43.8,170l0.5,0.1c-0.1,0.3-0.2,0.6-0.5,0.7s-0.5,0.3-0.9,0.3c-0.5,0-0.8-0.1-1.1-0.4s-0.4-0.7-0.4-1.2
			s0.1-0.9,0.4-1.2s0.6-0.4,1-0.4s0.8,0.1,1,0.4s0.4,0.7,0.4,1.2v0.1H42c0,0.3,0.1,0.6,0.3,0.8s0.4,0.3,0.7,0.3
			c0.2,0,0.4-0.1,0.5-0.2S43.7,170.2,43.8,170z M42,169.2h1.7c0-0.3-0.1-0.5-0.2-0.6c-0.2-0.2-0.4-0.3-0.7-0.3
			c-0.2,0-0.4,0.1-0.6,0.2S42,168.9,42,169.2z"/>
		<path class="st26" d="M46.1,170.6l0.1,0.5c-0.1,0-0.3,0-0.4,0c-0.2,0-0.3,0-0.4-0.1s-0.2-0.1-0.2-0.2c0-0.1-0.1-0.3-0.1-0.6v-1.8
			h-0.4V168h0.4v-0.8l0.5-0.3v1.1h0.5v0.4h-0.5v1.8c0,0.2,0,0.2,0,0.3s0,0.1,0.1,0.1s0.1,0,0.2,0C45.9,170.6,46,170.6,46.1,170.6z"
			/>
		<path class="st26" d="M47.8,170.6l0.1,0.5c-0.1,0-0.3,0-0.4,0c-0.2,0-0.3,0-0.4-0.1s-0.2-0.1-0.2-0.2c0-0.1-0.1-0.3-0.1-0.6v-1.8
			h-0.4V168h0.4v-0.8l0.5-0.3v1.1h0.5v0.4h-0.5v1.8c0,0.2,0,0.2,0,0.3s0,0.1,0.1,0.1s0.1,0,0.2,0C47.6,170.6,47.7,170.6,47.8,170.6z
			"/>
		<path class="st26" d="M50.4,170l0.5,0.1c-0.1,0.3-0.2,0.6-0.5,0.7s-0.5,0.3-0.9,0.3c-0.5,0-0.8-0.1-1.1-0.4S48,170,48,169.5
			s0.1-0.9,0.4-1.2s0.6-0.4,1-0.4s0.8,0.1,1,0.4s0.4,0.7,0.4,1.2v0.1h-2.3c0,0.3,0.1,0.6,0.3,0.8s0.4,0.3,0.7,0.3
			c0.2,0,0.4-0.1,0.5-0.2S50.3,170.2,50.4,170z M48.7,169.2h1.7c0-0.3-0.1-0.5-0.2-0.6c-0.2-0.2-0.4-0.3-0.7-0.3
			c-0.2,0-0.4,0.1-0.6,0.2S48.7,168.9,48.7,169.2z"/>
	</g>
	<circle class="st25" cx="34.2" cy="94.8" r="12.6"/>
	<g id="Outline_Icons-5-3-2">
		<path class="st34" d="M38.7,95c0,0.2-0.2,0.4-0.2,0.4H36v-5.2c0-0.5,0.4-0.9,0.9-1H38c0.5,0,0.9,0.4,1,0.9v0.1l0,0L38.7,95
			L38.7,95z"/>
		<path class="st34" d="M32.1,100.2h4.8v-2.8l1.4-1v-1h-8.1c-0.1,1.2,0.8,2.3,2,2.4l0,0h0.2L32.1,100.2z"/>
		<rect x="29.7" y="94.6" class="st34" width="6.2" height="1"/>
		<circle class="st34" cx="37.5" cy="91" r="0.4"/>
	</g>
	<g class="st31">
		<path class="st26" d="M26.3,113.5v-3.8h-1.4v-0.5h3.4v0.5h-1.4v3.8H26.3z"/>
	</g>
	<g class="st31">
		<path class="st26" d="M27.9,112c0-0.6,0.2-1,0.5-1.3c0.3-0.2,0.6-0.3,1-0.3s0.8,0.1,1,0.4c0.3,0.3,0.4,0.7,0.4,1.2
			c0,0.4-0.1,0.7-0.2,0.9s-0.3,0.4-0.5,0.5s-0.5,0.2-0.8,0.2c-0.4,0-0.8-0.1-1.1-0.4S27.9,112.5,27.9,112z M28.5,112
			c0,0.4,0.1,0.7,0.3,0.9s0.4,0.3,0.7,0.3c0.3,0,0.5-0.1,0.7-0.3s0.3-0.5,0.3-0.9s-0.1-0.7-0.3-0.9s-0.4-0.3-0.7-0.3
			c-0.3,0-0.5,0.1-0.7,0.3S28.5,111.6,28.5,112z"/>
		<path class="st26" d="M31.5,109.9v-0.6H32v0.6H31.5z M31.5,113.5v-3.1H32v3.1H31.5z"/>
		<path class="st26" d="M32.8,113.5v-4.3h0.5v4.3H32.8z"/>
		<path class="st26" d="M36.3,112.5l0.5,0.1c-0.1,0.3-0.2,0.6-0.5,0.7s-0.5,0.3-0.9,0.3c-0.5,0-0.8-0.1-1.1-0.4S34,112.5,34,112
			s0.1-0.9,0.4-1.2s0.6-0.4,1-0.4s0.8,0.1,1,0.4s0.4,0.7,0.4,1.2v0.1h-2.3c0,0.3,0.1,0.6,0.3,0.8s0.4,0.3,0.7,0.3
			c0.2,0,0.4-0.1,0.5-0.2S36.2,112.8,36.3,112.5z M34.5,111.7h1.7c0-0.3-0.1-0.5-0.2-0.6c-0.2-0.2-0.4-0.3-0.7-0.3
			c-0.2,0-0.4,0.1-0.6,0.2S34.5,111.4,34.5,111.7z"/>
		<path class="st26" d="M38.6,113.1l0.1,0.5c-0.1,0-0.3,0-0.4,0c-0.2,0-0.3,0-0.4-0.1s-0.2-0.1-0.2-0.2s-0.1-0.3-0.1-0.6v-1.8h-0.4
			v-0.4h0.4v-0.8l0.5-0.3v1.1h0.5v0.4h-0.5v1.8c0,0.2,0,0.2,0,0.3s0,0.1,0.1,0.1s0.1,0,0.2,0C38.4,113.1,38.5,113.1,38.6,113.1z"/>
		<path class="st26" d="M40.3,113.1l0.1,0.5c-0.1,0-0.3,0-0.4,0c-0.2,0-0.3,0-0.4-0.1s-0.2-0.1-0.2-0.2s-0.1-0.3-0.1-0.6v-1.8h-0.4
			v-0.4h0.4v-0.8l0.5-0.3v1.1h0.5v0.4h-0.5v1.8c0,0.2,0,0.2,0,0.3s0,0.1,0.1,0.1s0.1,0,0.2,0C40.1,113.1,40.2,113.1,40.3,113.1z"/>
		<path class="st26" d="M42.9,112.5l0.5,0.1c-0.1,0.3-0.2,0.6-0.5,0.7s-0.5,0.3-0.9,0.3c-0.5,0-0.8-0.1-1.1-0.4s-0.4-0.7-0.4-1.2
			s0.1-0.9,0.4-1.2s0.6-0.4,1-0.4s0.8,0.1,1,0.4s0.4,0.7,0.4,1.2v0.1H41c0,0.3,0.1,0.6,0.3,0.8s0.4,0.3,0.7,0.3
			c0.2,0,0.4-0.1,0.5-0.2S42.9,112.8,42.9,112.5z M41.2,111.7h1.7c0-0.3-0.1-0.5-0.2-0.6c-0.2-0.2-0.4-0.3-0.7-0.3
			c-0.2,0-0.4,0.1-0.6,0.2S41.2,111.4,41.2,111.7z"/>
	</g>
</g>
<g>
	<path class="st18" d="M91.9,145.2c0.3,0.2,0.6,0.4,0.9,0.5l-0.4,0.8c-0.2-0.1-0.3-0.1-0.5-0.2c0,0-0.3-0.2-0.8-0.5
		c-0.4,0.2-0.8,0.2-1.2,0.2c-0.9,0-1.6-0.3-2.1-0.8s-0.7-1.2-0.7-2.2c0-0.9,0.2-1.7,0.8-2.2s1.2-0.8,2-0.8s1.5,0.3,2,0.8
		s0.7,1.2,0.7,2.2c0,0.5-0.1,0.9-0.2,1.3C92.3,144.7,92.2,145,91.9,145.2z M91,144.6c0.1-0.2,0.3-0.4,0.3-0.6s0.1-0.5,0.1-0.9
		c0-0.7-0.1-1.2-0.4-1.5s-0.7-0.5-1.1-0.5s-0.9,0.2-1.1,0.5s-0.4,0.8-0.4,1.5s0.1,1.2,0.4,1.5s0.7,0.5,1.1,0.5c0.2,0,0.3,0,0.5-0.1
		c-0.2-0.2-0.5-0.3-0.7-0.4l0.3-0.7C90.3,144.1,90.7,144.3,91,144.6z"/>
	<path class="st18" d="M96.3,146v-0.6c-0.2,0.2-0.3,0.4-0.6,0.5s-0.5,0.2-0.8,0.2s-0.5-0.1-0.8-0.2s-0.4-0.3-0.5-0.5
		s-0.1-0.5-0.1-0.9v-2.6h1.1v1.9c0,0.6,0,0.9,0.1,1.1s0.1,0.2,0.2,0.3s0.2,0.1,0.4,0.1c0.2,0,0.4-0.1,0.5-0.2s0.2-0.2,0.3-0.4
		s0.1-0.5,0.1-1.1v-1.8h1.1v4.1L96.3,146L96.3,146z"/>
	<path class="st18" d="M100.8,144.6l1.1,0.2c-0.1,0.4-0.4,0.7-0.7,0.9s-0.7,0.3-1.1,0.3c-0.7,0-1.3-0.2-1.6-0.7
		c-0.3-0.4-0.4-0.9-0.4-1.4c0-0.7,0.2-1.2,0.5-1.6s0.8-0.6,1.4-0.6s1.1,0.2,1.5,0.6s0.5,1,0.5,1.9h-2.8c0,0.3,0.1,0.6,0.3,0.8
		s0.4,0.3,0.6,0.3s0.3,0,0.4-0.1S100.8,144.9,100.8,144.6z M100.9,143.5c0-0.3-0.1-0.6-0.2-0.7s-0.3-0.2-0.6-0.2
		c-0.2,0-0.4,0.1-0.6,0.3s-0.2,0.4-0.2,0.7h1.6C100.9,143.6,100.9,143.5,100.9,143.5z"/>
	<path class="st18" d="M105.3,144.6l1.1,0.2c-0.1,0.4-0.4,0.7-0.7,0.9s-0.7,0.3-1.1,0.3c-0.7,0-1.3-0.2-1.6-0.7
		c-0.3-0.4-0.4-0.9-0.4-1.4c0-0.7,0.2-1.2,0.5-1.6s0.8-0.6,1.4-0.6s1.1,0.2,1.5,0.6s0.5,1,0.5,1.9h-2.8c0,0.3,0.1,0.6,0.3,0.8
		s0.4,0.3,0.6,0.3s0.3,0,0.4-0.1S105.2,144.9,105.3,144.6z M105.3,143.5c0-0.3-0.1-0.6-0.2-0.7s-0.3-0.2-0.6-0.2
		c-0.2,0-0.4,0.1-0.6,0.3s-0.2,0.4-0.2,0.7h1.6C105.3,143.6,105.3,143.5,105.3,143.5z"/>
	<path class="st18" d="M111.1,146H110v-2.1c0-0.4,0-0.7-0.1-0.9s-0.1-0.2-0.2-0.3s-0.2-0.1-0.4-0.1c-0.2,0-0.4,0.1-0.5,0.2
		s-0.3,0.2-0.3,0.4s-0.1,0.5-0.1,1v1.9h-1.1V142h1v0.6c0.4-0.5,0.8-0.7,1.4-0.7c0.2,0,0.5,0,0.7,0.1s0.4,0.2,0.5,0.3
		s0.2,0.3,0.2,0.5s0.1,0.4,0.1,0.7L111.1,146L111.1,146z"/>
</g>
</svg>
