<?xml version="1.0" encoding="utf-8"?>
<!-- Generator: Adobe Illustrator 28.1.0, SVG Export Plug-In . SVG Version: 6.00 Build 0)  -->
<svg version="1.1" id="Layer_1" xmlns="http://www.w3.org/2000/svg" xmlns:xlink="http://www.w3.org/1999/xlink" x="0px" y="0px"
	 viewBox="0 0 686.9 1007" style="enable-background:new 0 0 686.9 1007;" xml:space="preserve">
<style type="text/css">
	.st0{fill:#5893AD;}
	.st1{fill:#B3DDE3;}
	.st2{fill:#9AC9CC;}
	.st3{opacity:0.74;fill:#575757;enable-background:new    ;}
	.st4{opacity:5.000000e-02;fill:#030303;enable-background:new    ;}
	.st5{fill:#B8BEC0;}
	.st6{fill:#FFFFFF;}
	.st7{opacity:0.15;fill:#010101;enable-background:new    ;}
	.st8{fill:#5A6067;}
	.st9{fill:#9EACB5;}
	.st10{fill:none;stroke:#7E8C91;stroke-linecap:round;stroke-miterlimit:10;}
	.st11{fill:#EAF0F0;}
	.st12{fill:#7E8B90;}
	.st13{fill:#777E7F;}
	.st14{fill:none;stroke:#F6F6F6;stroke-width:2;stroke-miterlimit:10;}
	.st15{fill:none;stroke:#F6F6F6;stroke-width:8;stroke-miterlimit:10;}
</style>
<g id="BG">
	<polygon class="st0" points="622.7,93.6 627.8,57.2 62.5,93.6 59.2,962.7 81.3,991.5 405.9,991.5 	"/>
	<polygon class="st1" points="622.7,60.8 62.5,60.8 62.5,958.7 405.9,958.7 	"/>
</g>
<g id="Highlights">
	<polygon class="st2" points="202.1,62.1 202.1,807.8 441.9,807.8 405.9,958.7 62.5,958.7 62.5,60.8 	"/>
	<polygon class="st2" points="454.3,60.8 454.3,195 428.6,195 428.6,321.9 401.8,321.9 401.8,446.9 376.7,446.9 376.7,575.4 
		352.1,575.4 352.1,807.8 441.9,807.8 622.7,60.8 	"/>
</g>
<g id="Bookable">
	<polygon id="area-02.Conference_200-status" class="st3" points="444.9,807.8 202.1,807.8 202.1,960.8 407.5,960.8 	"/>
	<rect id="area-02.Office_201-status" x="60.7" y="575.9" class="st3" width="141.4" height="127.4"/>
	<polygon id="area-02.Office_202-status" class="st3" points="376.7,446.9 531.7,446.9 500,575.4 376.7,575.4 	"/>
	<rect id="area-02.Office_203-status" x="59.2" y="449.8" class="st3" width="142.9" height="126.1"/>
	<polygon id="area-02.Office_204-status" class="st3" points="559.8,321.9 401.8,321.9 401.8,446.9 531.7,446.9 	"/>
	<rect id="area-02.Office_205-status" x="61.6" y="324.1" class="st3" width="140.4" height="126.2"/>
	<polygon id="area-02.Office_206-status" class="st3" points="428.6,195 590.3,195 559.8,321.9 428.6,321.9 	"/>
	<rect id="area-02.Office_207-status" x="62.5" y="195" class="st3" width="139.5" height="129.1"/>
	<polygon id="area-02.Office_208-status" class="st3" points="454.3,62.1 454.3,196.2 590.3,196.2 622.4,62.1 	"/>
	<rect id="area-02.Office_209-status" x="62.1" y="62.1" class="st3" width="139.9" height="134.1"/>
</g>
<g id="Furn">
	<g id="tables_copy_2-3">
		<path class="st4" d="M306.7,139.9V80.2c0-1.1,1-2,2.4-2h26c1.4,0,2.4,0.9,2.4,1.9v59.8c0,1.1-1,2-2.4,2h-26
			C307.7,141.9,306.7,141.1,306.7,139.9z"/>
		<path class="st5" d="M305.3,139.9V80.2c0-1.1,1-2,2.4-2h26c1.4,0,2.4,0.9,2.4,1.9v59.8c0,1.1-1,2-2.4,2h-26
			C306.5,141.9,305.3,141.1,305.3,139.9z"/>
		<path id="table-17-3" class="st6" d="M304.5,121.1v19.2c0,0.9,1,1.8,2.2,1.8h14.2v-20.9L304.5,121.1L304.5,121.1z"/>
		<path id="table-18-3" class="st6" d="M320.9,78.1h-14.2c-1.2,0-2.2,0.9-2.2,2.1l0,0v24.7h16.4C320.9,104.9,320.9,78.1,320.9,78.1z
			"/>
		<rect id="table-19-3" x="304.5" y="100.3" class="st6" width="16.4" height="20.9"/>
		<path id="table-20-3" class="st6" d="M320.9,104.9h14.6V80.3c0-1.2-1-2.2-2.2-2.2h-12.4V104.9z"/>
		<rect id="table-21-3" x="320.9" y="100.3" class="st6" width="14.6" height="20.9"/>
		<path id="table-22-3" class="st6" d="M320.9,141.9h12.4c1.2,0,2.2-0.8,2.2-1.7l0,0v-19.2h-14.6V141.9z"/>
	</g>
	<path class="st7" d="M340.3,107.7v4.7c-0.2,3.4,2.5,6.4,6.1,6.6h0.4l4.4-0.2c4.6-0.4,8-4.2,7.8-8.7l0,0c0.2-4.6-3.2-8.3-7.6-8.9
		l-4.4-0.2c-3.6,0-6.4,2.8-6.4,6.3L340.3,107.7L340.3,107.7z"/>
	<path class="st8" d="M339.7,107.7v4.7c-0.2,3.4,2.5,6.4,6.1,6.6h0.4l4.4-0.2c4.6-0.4,8-4.2,7.8-8.7l0,0c0.2-4.6-3.2-8.3-7.6-8.9
		l-4.4-0.2c-3.6,0-6.4,2.8-6.4,6.3L339.7,107.7L339.7,107.7z"/>
	<path class="st9" d="M337.6,107.9v4.4c0,3.4,2.7,6.1,6.1,6.3h0.2l4.4-0.2c4.4-0.2,7.8-3.8,7.8-8.2l0,0c0-4.4-3.4-8-7.6-8.2
		l-4.4-0.2c-3.2-0.2-6.1,2.3-6.4,5.5l0,0V107.9L337.6,107.9z"/>
	<path class="st10" d="M343.1,118.5l5.3-0.4c4.4-0.2,7.8-3.8,7.8-8.2l0,0c0-4.4-3.4-8-7.6-8.2l-5.3-0.4"/>
	<g id="tables_copy_2-3-2">
		<path class="st4" d="M299.8,141.9h-26c-1.4,0-2.4-0.9-2.4-2V80.1c0-1.1,1-1.9,2.4-1.9h26c1.4,0,2.4,0.9,2.4,2v59.7
			C302.1,141.1,301.1,141.9,299.8,141.9z"/>
		<path class="st5" d="M301.1,141.9h-26c-1.4,0-2.4-0.9-2.4-2V80.1c0-1.1,1-1.9,2.4-1.9h26c1.4,0,2.4,0.9,2.4,2v59.7
			C303.5,141.1,302.3,141.9,301.1,141.9z"/>
		<path id="table-17-3-2" class="st6" d="M287.9,121.1v20.9h14.2c1.2,0,2.2-0.8,2.2-1.8v-19.2L287.9,121.1L287.9,121.1z"/>
		<path id="table-18-3-2" class="st6" d="M287.9,104.9h16.4V80.2l0,0c0-1.2-1-2.1-2.2-2.1h-14.2C287.9,78.1,287.9,104.9,287.9,104.9
			z"/>
		<rect id="table-19-3-2" x="287.9" y="100.3" class="st6" width="16.4" height="20.9"/>
		<path id="table-20-3-2" class="st6" d="M287.9,78.2h-12.4c-1.2,0-2.2,1-2.2,2.2v24.6h14.6V78.2z"/>
		<rect id="table-21-3-2" x="273.4" y="100.3" class="st6" width="14.6" height="20.9"/>
		<path id="table-22-3-2" class="st6" d="M287.9,121.1h-14.6v19.2l0,0c0,0.9,1,1.7,2.2,1.7h12.4V121.1z"/>
	</g>
	<path class="st7" d="M268.3,107.3c0-3.4-2.8-6.3-6.4-6.3l-4.4,0.2c-4.4,0.6-7.8,4.4-7.6,8.9l0,0c-0.2,4.6,3.2,8.3,7.8,8.7l4.4,0.2
		h0.4c3.6-0.2,6.3-3.2,6.1-6.6v-4.7L268.3,107.3L268.3,107.3z"/>
	<path class="st8" d="M268.9,107.3c0-3.4-2.8-6.3-6.4-6.3l-4.4,0.2c-4.4,0.6-7.8,4.4-7.6,8.9l0,0c-0.2,4.6,3.2,8.3,7.8,8.7l4.4,0.2
		h0.4c3.6-0.2,6.3-3.2,6.1-6.6v-4.7L268.9,107.3L268.9,107.3z"/>
	<path class="st9" d="M271.2,107.9v-0.6l0,0c-0.4-3.2-3.2-5.7-6.4-5.5l-4.4,0.2c-4.2,0.2-7.6,3.8-7.6,8.2l0,0c0,4.4,3.4,8,7.8,8.2
		l4.4,0.2h0.2c3.4-0.2,6.1-2.8,6.1-6.3V107.9L271.2,107.9z"/>
	<path class="st10" d="M265.5,101.4l-5.3,0.4c-4.2,0.2-7.6,3.8-7.6,8.2l0,0c0,4.4,3.4,8,7.8,8.2l5.3,0.4"/>
	<g id="tables_copy_2-3-3">
		<path class="st4" d="M306.7,203.9v-59.7c0-1.1,1-2,2.4-2h26c1.4,0,2.4,0.9,2.4,1.9v59.8c0,1.1-1,2-2.4,2h-26
			C307.7,205.9,306.7,205,306.7,203.9z"/>
		<path class="st5" d="M305.3,203.9v-59.7c0-1.1,1-2,2.4-2h26c1.4,0,2.4,0.9,2.4,1.9v59.8c0,1.1-1,2-2.4,2h-26
			C306.5,205.9,305.3,205,305.3,203.9z"/>
		<path id="table-17-3-3" class="st6" d="M304.5,185.1v19.2c0,0.9,1,1.8,2.2,1.8h14.2v-20.9L304.5,185.1L304.5,185.1z"/>
		<path id="table-18-3-3" class="st6" d="M320.9,142.1h-14.2c-1.2,0-2.2,0.9-2.2,2.1l0,0v24.7h16.4V142.1L320.9,142.1z"/>
		<rect id="table-19-3-3" x="304.5" y="164.2" class="st6" width="16.4" height="20.9"/>
		<path id="table-20-3-3" class="st6" d="M320.9,168.9h14.6v-24.6c0-1.2-1-2.2-2.2-2.2h-12.4V168.9z"/>
		<rect id="table-21-3-3" x="320.9" y="164.2" class="st6" width="14.6" height="20.9"/>
		<path id="table-22-3-3" class="st6" d="M320.9,205.9h12.4c1.2,0,2.2-0.8,2.2-1.7l0,0V185h-14.6V205.9z"/>
	</g>
	<path class="st7" d="M340.3,171.7v4.7c-0.2,3.4,2.5,6.4,6.1,6.6h0.4l4.4-0.2c4.6-0.4,8-4.2,7.8-8.7l0,0c0.2-4.6-3.2-8.3-7.6-8.9
		l-4.4-0.2c-3.6,0-6.4,2.8-6.4,6.3L340.3,171.7L340.3,171.7z"/>
	<path class="st8" d="M339.7,171.7v4.7c-0.2,3.4,2.5,6.4,6.1,6.6h0.4l4.4-0.2c4.6-0.4,8-4.2,7.8-8.7l0,0c0.2-4.6-3.2-8.3-7.6-8.9
		l-4.4-0.2c-3.6,0-6.4,2.8-6.4,6.3L339.7,171.7L339.7,171.7z"/>
	<path class="st9" d="M337.6,171.8v4.4c0,3.4,2.7,6.1,6.1,6.3h0.2l4.4-0.2c4.4-0.2,7.8-3.8,7.8-8.2l0,0c0-4.4-3.4-8-7.6-8.2
		l-4.4-0.2c-3.2-0.2-6.1,2.3-6.4,5.5l0,0V171.8L337.6,171.8L337.6,171.8z"/>
	<path class="st10" d="M343.1,182.5l5.3-0.4c4.4-0.2,7.8-3.8,7.8-8.2l0,0c0-4.4-3.4-8-7.6-8.2l-5.3-0.4"/>
	<g id="tables_copy_2-3-4">
		<path class="st4" d="M299.8,205.9h-26c-1.4,0-2.4-0.9-2.4-2v-59.8c0-1.1,1-1.9,2.4-1.9h26c1.4,0,2.4,0.9,2.4,2v59.7
			C302.1,205,301.1,205.9,299.8,205.9z"/>
		<path class="st5" d="M301.1,205.9h-26c-1.4,0-2.4-0.9-2.4-2v-59.8c0-1.1,1-1.9,2.4-1.9h26c1.4,0,2.4,0.9,2.4,2v59.7
			C303.5,205,302.3,205.9,301.1,205.9z"/>
		<path id="table-17-3-4" class="st6" d="M287.9,185.1V206h14.2c1.2,0,2.2-0.8,2.2-1.8v-19.2L287.9,185.1L287.9,185.1z"/>
		<path id="table-18-3-4" class="st6" d="M287.9,168.9h16.4v-24.7l0,0c0-1.2-1-2.1-2.2-2.1h-14.2V168.9L287.9,168.9z"/>
		<rect id="table-19-3-4" x="287.9" y="164.2" class="st6" width="16.4" height="20.9"/>
		<path id="table-20-3-4" class="st6" d="M287.9,142.1h-12.4c-1.2,0-2.2,1-2.2,2.2v24.6h14.6V142.1z"/>
		<rect id="table-21-3-4" x="273.4" y="164.2" class="st6" width="14.6" height="20.9"/>
		<path id="table-22-3-4" class="st6" d="M287.9,185h-14.6v19.2l0,0c0,0.9,1,1.7,2.2,1.7h12.4V185z"/>
	</g>
	<path class="st7" d="M268.3,171.3c0-3.4-2.8-6.3-6.4-6.3l-4.4,0.2c-4.4,0.6-7.8,4.4-7.6,8.9l0,0c-0.2,4.6,3.2,8.3,7.8,8.7l4.4,0.2
		h0.4c3.6-0.2,6.3-3.2,6.1-6.6v-4.7L268.3,171.3L268.3,171.3z"/>
	<path class="st8" d="M268.9,171.3c0-3.4-2.8-6.3-6.4-6.3l-4.4,0.2c-4.4,0.6-7.8,4.4-7.6,8.9l0,0c-0.2,4.6,3.2,8.3,7.8,8.7l4.4,0.2
		h0.4c3.6-0.2,6.3-3.2,6.1-6.6v-4.7L268.9,171.3L268.9,171.3z"/>
	<path class="st9" d="M271.2,171.8v-0.6l0,0c-0.4-3.2-3.2-5.7-6.4-5.5l-4.4,0.2c-4.2,0.2-7.6,3.8-7.6,8.2l0,0c0,4.4,3.4,8,7.8,8.2
		l4.4,0.2h0.2c3.4-0.2,6.1-2.8,6.1-6.3V171.8L271.2,171.8L271.2,171.8z"/>
	<path class="st10" d="M265.5,165.4l-5.3,0.4c-4.2,0.2-7.6,3.8-7.6,8.2l0,0c0,4.4,3.4,8,7.8,8.2l5.3,0.4"/>
	<g id="tables_copy_2-3-5">
		<path class="st4" d="M306.7,267.8v-59.7c0-1.1,1-2,2.4-2h26c1.4,0,2.4,0.9,2.4,1.9v59.8c0,1.1-1,2-2.4,2h-26
			C307.7,269.8,306.7,269,306.7,267.8z"/>
		<path class="st5" d="M305.3,267.8v-59.7c0-1.1,1-2,2.4-2h26c1.4,0,2.4,0.9,2.4,1.9v59.8c0,1.1-1,2-2.4,2h-26
			C306.5,269.8,305.3,269,305.3,267.8z"/>
		<path id="table-17-3-5" class="st6" d="M304.5,249v19.2c0,0.9,1,1.8,2.2,1.8h14.2V249L304.5,249L304.5,249z"/>
		<path id="table-18-3-5" class="st6" d="M320.9,206h-14.2c-1.2,0-2.2,0.9-2.2,2.1l0,0v24.7h16.4V206L320.9,206z"/>
		<rect id="table-19-3-5" x="304.5" y="228.2" class="st6" width="16.4" height="20.9"/>
		<path id="table-20-3-5" class="st6" d="M320.9,232.8h14.6v-24.6c0-1.2-1-2.2-2.2-2.2h-12.4V232.8z"/>
		<rect id="table-21-3-5" x="320.9" y="228.2" class="st6" width="14.6" height="20.9"/>
		<path id="table-22-3-5" class="st6" d="M320.9,269.8h12.4c1.2,0,2.2-0.8,2.2-1.7l0,0V249h-14.6V269.8z"/>
	</g>
	<path class="st7" d="M340.3,235.6v4.7c-0.2,3.4,2.5,6.4,6.1,6.6h0.4l4.4-0.2c4.6-0.4,8-4.2,7.8-8.7l0,0c0.2-4.6-3.2-8.3-7.6-8.9
		l-4.4-0.2c-3.6,0-6.4,2.8-6.4,6.3L340.3,235.6L340.3,235.6z"/>
	<path class="st8" d="M339.7,235.6v4.7c-0.2,3.4,2.5,6.4,6.1,6.6h0.4l4.4-0.2c4.6-0.4,8-4.2,7.8-8.7l0,0c0.2-4.6-3.2-8.3-7.6-8.9
		l-4.4-0.2c-3.6,0-6.4,2.8-6.4,6.3L339.7,235.6L339.7,235.6z"/>
	<path class="st9" d="M337.6,235.8v4.4c0,3.4,2.7,6.1,6.1,6.3h0.2l4.4-0.2c4.4-0.2,7.8-3.8,7.8-8.2l0,0c0-4.4-3.4-8-7.6-8.2
		l-4.4-0.2c-3.2-0.2-6.1,2.3-6.4,5.5l0,0V235.8L337.6,235.8L337.6,235.8z"/>
	<path class="st10" d="M343.1,246.4l5.3-0.4c4.4-0.2,7.8-3.8,7.8-8.2l0,0c0-4.4-3.4-8-7.6-8.2l-5.3-0.4"/>
	<g id="tables_copy_2-3-6">
		<path class="st4" d="M299.8,269.8h-26c-1.4,0-2.4-0.9-2.4-2V208c0-1.1,1-1.9,2.4-1.9h26c1.4,0,2.4,0.9,2.4,2v59.7
			C302.1,269,301.1,269.8,299.8,269.8z"/>
		<path class="st5" d="M301.1,269.8h-26c-1.4,0-2.4-0.9-2.4-2V208c0-1.1,1-1.9,2.4-1.9h26c1.4,0,2.4,0.9,2.4,2v59.7
			C303.5,269,302.3,269.8,301.1,269.8z"/>
		<path id="table-17-3-6" class="st6" d="M287.9,249V270h14.2c1.2,0,2.2-0.8,2.2-1.8V249L287.9,249L287.9,249z"/>
		<path id="table-18-3-6" class="st6" d="M287.9,232.8h16.4v-24.7l0,0c0-1.2-1-2.1-2.2-2.1h-14.2V232.8L287.9,232.8z"/>
		<rect id="table-19-3-6" x="287.9" y="228.2" class="st6" width="16.4" height="20.9"/>
		<path id="table-20-3-6" class="st6" d="M287.9,206.1h-12.4c-1.2,0-2.2,1-2.2,2.2v24.6h14.6V206.1z"/>
		<rect id="table-21-3-6" x="273.4" y="228.2" class="st6" width="14.6" height="20.9"/>
		<path id="table-22-3-6" class="st6" d="M287.9,249h-14.6v19.2l0,0c0,0.9,1,1.7,2.2,1.7h12.4V249L287.9,249z"/>
	</g>
	<path class="st7" d="M268.3,235.2c0-3.4-2.8-6.3-6.4-6.3l-4.4,0.2c-4.4,0.6-7.8,4.4-7.6,8.9l0,0c-0.2,4.6,3.2,8.3,7.8,8.7l4.4,0.2
		h0.4c3.6-0.2,6.3-3.2,6.1-6.6v-4.7L268.3,235.2L268.3,235.2z"/>
	<path class="st8" d="M268.9,235.2c0-3.4-2.8-6.3-6.4-6.3l-4.4,0.2c-4.4,0.6-7.8,4.4-7.6,8.9l0,0c-0.2,4.6,3.2,8.3,7.8,8.7l4.4,0.2
		h0.4c3.6-0.2,6.3-3.2,6.1-6.6v-4.7L268.9,235.2L268.9,235.2z"/>
	<path class="st9" d="M271.2,235.8v-0.6l0,0c-0.4-3.2-3.2-5.7-6.4-5.5l-4.4,0.2c-4.2,0.2-7.6,3.8-7.6,8.2l0,0c0,4.4,3.4,8,7.8,8.2
		l4.4,0.2h0.2c3.4-0.2,6.1-2.8,6.1-6.3V235.8L271.2,235.8L271.2,235.8z"/>
	<path class="st10" d="M265.5,229.3l-5.3,0.4c-4.2,0.2-7.6,3.8-7.6,8.2l0,0c0,4.4,3.4,8,7.8,8.2l5.3,0.4"/>
	<g id="tables_copy_2-3-7">
		<path class="st4" d="M306.7,331.8v-59.7c0-1.1,1-2,2.4-2h26c1.4,0,2.4,0.9,2.4,1.9v59.8c0,1.1-1,2-2.4,2h-26
			C307.7,333.8,306.7,332.9,306.7,331.8L306.7,331.8z"/>
		<path class="st5" d="M305.3,331.8v-59.7c0-1.1,1-2,2.4-2h26c1.4,0,2.4,0.9,2.4,1.9v59.8c0,1.1-1,2-2.4,2h-26
			C306.5,333.8,305.3,332.9,305.3,331.8L305.3,331.8z"/>
		<path id="table-17-3-7" class="st6" d="M304.5,313v19.2c0,0.9,1,1.8,2.2,1.8h14.2V313L304.5,313L304.5,313z"/>
		<path id="table-18-3-7" class="st6" d="M320.9,270h-14.2c-1.2,0-2.2,0.9-2.2,2.1l0,0v24.7h16.4V270z"/>
		<rect id="table-19-3-7" x="304.5" y="292.1" class="st6" width="16.4" height="20.9"/>
		<path id="table-20-3-7" class="st6" d="M320.9,296.8h14.6v-24.6c0-1.2-1-2.2-2.2-2.2h-12.4V296.8z"/>
		<rect id="table-21-3-7" x="320.9" y="292.1" class="st6" width="14.6" height="20.9"/>
		<path id="table-22-3-7" class="st6" d="M320.9,333.8h12.4c1.2,0,2.2-0.8,2.2-1.7l0,0v-19.2h-14.6V333.8L320.9,333.8z"/>
	</g>
	<path class="st7" d="M340.3,299.6v4.7c-0.2,3.4,2.5,6.4,6.1,6.6h0.4l4.4-0.2c4.6-0.4,8-4.2,7.8-8.7l0,0c0.2-4.6-3.2-8.3-7.6-8.9
		l-4.4-0.2c-3.6,0-6.4,2.8-6.4,6.3L340.3,299.6L340.3,299.6z"/>
	<path class="st8" d="M339.7,299.6v4.7c-0.2,3.4,2.5,6.4,6.1,6.6h0.4l4.4-0.2c4.6-0.4,8-4.2,7.8-8.7l0,0c0.2-4.6-3.2-8.3-7.6-8.9
		l-4.4-0.2c-3.6,0-6.4,2.8-6.4,6.3L339.7,299.6L339.7,299.6z"/>
	<path class="st9" d="M337.6,299.7v4.4c0,3.4,2.7,6.1,6.1,6.3h0.2l4.4-0.2c4.4-0.2,7.8-3.8,7.8-8.2l0,0c0-4.4-3.4-8-7.6-8.2
		l-4.4-0.2c-3.2-0.2-6.1,2.3-6.4,5.5l0,0V299.7L337.6,299.7z"/>
	<path class="st10" d="M343.1,310.4l5.3-0.4c4.4-0.2,7.8-3.8,7.8-8.2l0,0c0-4.4-3.4-8-7.6-8.2l-5.3-0.4"/>
	<g id="tables_copy_2-3-8">
		<path class="st4" d="M299.8,333.8h-26c-1.4,0-2.4-0.9-2.4-2V272c0-1.1,1-1.9,2.4-1.9h26c1.4,0,2.4,0.9,2.4,2v59.7
			C302.1,332.9,301.1,333.8,299.8,333.8L299.8,333.8z"/>
		<path class="st5" d="M301.1,333.8h-26c-1.4,0-2.4-0.9-2.4-2V272c0-1.1,1-1.9,2.4-1.9h26c1.4,0,2.4,0.9,2.4,2v59.7
			C303.5,332.9,302.3,333.8,301.1,333.8L301.1,333.8z"/>
		<path id="table-17-3-8" class="st6" d="M287.9,313v20.9h14.2c1.2,0,2.2-0.8,2.2-1.8V313L287.9,313L287.9,313z"/>
		<path id="table-18-3-8" class="st6" d="M287.9,296.8h16.4v-24.7l0,0c0-1.2-1-2.1-2.2-2.1h-14.2V296.8z"/>
		<rect id="table-19-3-8" x="287.9" y="292.1" class="st6" width="16.4" height="20.9"/>
		<path id="table-20-3-8" class="st6" d="M287.9,270h-12.4c-1.2,0-2.2,1-2.2,2.2v24.6h14.6V270z"/>
		<rect id="table-21-3-8" x="273.4" y="292.1" class="st6" width="14.6" height="20.9"/>
		<path id="table-22-3-8" class="st6" d="M287.9,312.9h-14.6v19.2l0,0c0,0.9,1,1.7,2.2,1.7h12.4V312.9L287.9,312.9z"/>
	</g>
	<path class="st7" d="M268.3,299.2c0-3.4-2.8-6.3-6.4-6.3l-4.4,0.2c-4.4,0.6-7.8,4.4-7.6,8.9l0,0c-0.2,4.6,3.2,8.3,7.8,8.7l4.4,0.2
		h0.4c3.6-0.2,6.3-3.2,6.1-6.6v-4.7L268.3,299.2L268.3,299.2z"/>
	<path class="st8" d="M268.9,299.2c0-3.4-2.8-6.3-6.4-6.3l-4.4,0.2c-4.4,0.6-7.8,4.4-7.6,8.9l0,0c-0.2,4.6,3.2,8.3,7.8,8.7l4.4,0.2
		h0.4c3.6-0.2,6.3-3.2,6.1-6.6v-4.7L268.9,299.2L268.9,299.2z"/>
	<path class="st9" d="M271.2,299.7v-0.6l0,0c-0.4-3.2-3.2-5.7-6.4-5.5l-4.4,0.2c-4.2,0.2-7.6,3.8-7.6,8.2l0,0c0,4.4,3.4,8,7.8,8.2
		l4.4,0.2h0.2c3.4-0.2,6.1-2.8,6.1-6.3V299.7L271.2,299.7z"/>
	<path class="st10" d="M265.5,293.3l-5.3,0.4c-4.2,0.2-7.6,3.8-7.6,8.2l0,0c0,4.4,3.4,8,7.8,8.2l5.3,0.4"/>
	<g id="tables_copy_2-3-9">
		<path class="st4" d="M306.7,396.3v-59.7c0-1.1,1-2,2.4-2h26c1.4,0,2.4,0.9,2.4,1.9v59.8c0,1.1-1,2-2.4,2h-26
			C307.7,398.3,306.7,397.4,306.7,396.3L306.7,396.3z"/>
		<path class="st5" d="M305.3,396.3v-59.7c0-1.1,1-2,2.4-2h26c1.4,0,2.4,0.9,2.4,1.9v59.8c0,1.1-1,2-2.4,2h-26
			C306.5,398.3,305.3,397.4,305.3,396.3L305.3,396.3z"/>
		<path id="table-17-3-9" class="st6" d="M304.5,377.4v19.2c0,0.9,1,1.8,2.2,1.8h14.2v-20.9L304.5,377.4L304.5,377.4z"/>
		<path id="table-18-3-9" class="st6" d="M320.9,334.4h-14.2c-1.2,0-2.2,0.9-2.2,2.1l0,0v24.7h16.4V334.4z"/>
		<rect id="table-19-3-9" x="304.5" y="356.6" class="st6" width="16.4" height="20.9"/>
		<path id="table-20-3-9" class="st6" d="M320.9,361.3h14.6v-24.6c0-1.2-1-2.2-2.2-2.2h-12.4V361.3L320.9,361.3z"/>
		<rect id="table-21-3-9" x="320.9" y="356.6" class="st6" width="14.6" height="20.9"/>
		<path id="table-22-3-9" class="st6" d="M320.9,398.3h12.4c1.2,0,2.2-0.8,2.2-1.7l0,0v-19.2h-14.6V398.3L320.9,398.3z"/>
	</g>
	<path class="st7" d="M340.3,364v4.7c-0.2,3.4,2.5,6.4,6.1,6.6h0.4l4.4-0.2c4.6-0.4,8-4.2,7.8-8.7l0,0c0.2-4.6-3.2-8.3-7.6-8.9
		l-4.4-0.2c-3.6,0-6.4,2.8-6.4,6.3L340.3,364L340.3,364z"/>
	<path class="st8" d="M339.7,364v4.7c-0.2,3.4,2.5,6.4,6.1,6.6h0.4l4.4-0.2c4.6-0.4,8-4.2,7.8-8.7l0,0c0.2-4.6-3.2-8.3-7.6-8.9
		l-4.4-0.2c-3.6,0-6.4,2.8-6.4,6.3L339.7,364L339.7,364z"/>
	<path class="st9" d="M337.6,364.2v4.4c0,3.4,2.7,6.1,6.1,6.3h0.2l4.4-0.2c4.4-0.2,7.8-3.8,7.8-8.2l0,0c0-4.4-3.4-8-7.6-8.2
		l-4.4-0.2c-3.2-0.2-6.1,2.3-6.4,5.5l0,0V364.2L337.6,364.2z"/>
	<path class="st10" d="M343.1,374.8l5.3-0.4c4.4-0.2,7.8-3.8,7.8-8.2l0,0c0-4.4-3.4-8-7.6-8.2l-5.3-0.4"/>
	<g id="tables_copy_2-3-10">
		<path class="st4" d="M299.8,398.3h-26c-1.4,0-2.4-0.9-2.4-2v-59.8c0-1.1,1-1.9,2.4-1.9h26c1.4,0,2.4,0.9,2.4,2v59.7
			C302.1,397.4,301.1,398.3,299.8,398.3L299.8,398.3z"/>
		<path class="st5" d="M301.1,398.3h-26c-1.4,0-2.4-0.9-2.4-2v-59.8c0-1.1,1-1.9,2.4-1.9h26c1.4,0,2.4,0.9,2.4,2v59.7
			C303.5,397.4,302.3,398.3,301.1,398.3L301.1,398.3z"/>
		<path id="table-17-3-10" class="st6" d="M287.9,377.4v20.9h14.2c1.2,0,2.2-0.8,2.2-1.8v-19.2L287.9,377.4L287.9,377.4z"/>
		<path id="table-18-3-10" class="st6" d="M287.9,361.3h16.4v-24.7l0,0c0-1.2-1-2.1-2.2-2.1h-14.2V361.3z"/>
		<rect id="table-19-3-10" x="287.9" y="356.6" class="st6" width="16.4" height="20.9"/>
		<path id="table-20-3-10" class="st6" d="M287.9,334.5h-12.4c-1.2,0-2.2,1-2.2,2.2v24.6h14.6V334.5L287.9,334.5z"/>
		<rect id="table-21-3-10" x="273.4" y="356.6" class="st6" width="14.6" height="20.9"/>
		<path id="table-22-3-10" class="st6" d="M287.9,377.4h-14.6v19.2l0,0c0,0.9,1,1.7,2.2,1.7h12.4V377.4L287.9,377.4z"/>
	</g>
	<path class="st7" d="M268.3,363.6c0-3.4-2.8-6.3-6.4-6.3l-4.4,0.2c-4.4,0.6-7.8,4.4-7.6,8.9l0,0c-0.2,4.6,3.2,8.3,7.8,8.7l4.4,0.2
		h0.4c3.6-0.2,6.3-3.2,6.1-6.6V364L268.3,363.6L268.3,363.6z"/>
	<path class="st8" d="M268.9,363.6c0-3.4-2.8-6.3-6.4-6.3l-4.4,0.2c-4.4,0.6-7.8,4.4-7.6,8.9l0,0c-0.2,4.6,3.2,8.3,7.8,8.7l4.4,0.2
		h0.4c3.6-0.2,6.3-3.2,6.1-6.6V364L268.9,363.6L268.9,363.6z"/>
	<path class="st9" d="M271.2,364.2v-0.6l0,0c-0.4-3.2-3.2-5.7-6.4-5.5l-4.4,0.2c-4.2,0.2-7.6,3.8-7.6,8.2l0,0c0,4.4,3.4,8,7.8,8.2
		l4.4,0.2h0.2c3.4-0.2,6.1-2.8,6.1-6.3V364.2L271.2,364.2z"/>
	<path class="st10" d="M265.5,357.8l-5.3,0.4c-4.2,0.2-7.6,3.8-7.6,8.2l0,0c0,4.4,3.4,8,7.8,8.2l5.3,0.4"/>
</g>
<g id="Icons">
	<circle class="st11" cx="414.6" cy="637.5" r="11.5"/>
	<g id="Outline_Icons-5-3-2">
		<path class="st12" d="M418.5,638.5h-2.6v-5c0-0.7,0.5-1.2,1.2-1.2h1c0.7,0,1.2,0.5,1.2,1.2v0.1l-0.3,4.2
			C419,638,418.8,638.5,418.5,638.5L418.5,638.5z M416.5,637.9h1.9c0,0,0-0.1,0-0.1l0.3,0l-0.3,0l0.3-4.2v-0.1
			c0-0.3-0.3-0.6-0.6-0.6h-1c-0.3,0-0.6,0.3-0.6,0.6L416.5,637.9L416.5,637.9z"/>
		<path class="st12" d="M417.4,642.8h-5.1l0.3-2.1c-1.2-0.2-2.1-1.3-2-2.5l0-0.3h8v1.4l-1.3,0.9L417.4,642.8L417.4,642.8z
			 M413,642.2h3.8v-2.4l1.3-0.9v-0.4h-6.8c0.1,0.8,0.7,1.5,1.5,1.6h0.5L413,642.2L413,642.2z"/>
		<path class="st12" d="M416.6,638.6h-6.3v-1.5h6.3V638.6z M410.9,638h5.1v-0.3h-5.1V638z"/>
		<path class="st12" d="M417.7,634.8c-0.4,0-0.7-0.3-0.7-0.7s0.3-0.7,0.7-0.7s0.7,0.3,0.7,0.7S418.1,634.8,417.7,634.8z M417.7,634
			C417.6,634,417.6,634.1,417.7,634C417.6,634.3,417.8,634.3,417.7,634C417.8,634.1,417.7,634,417.7,634L417.7,634z"/>
	</g>
	<g>
		<path class="st13" d="M406.5,656.1v-4.4h-1.7v-0.6h4v0.6h-1.7v4.4H406.5L406.5,656.1z"/>
	</g>
	<g>
		<path class="st13" d="M408.5,654.3c0-0.7,0.2-1.2,0.6-1.5c0.3-0.3,0.7-0.4,1.1-0.4c0.5,0,0.9,0.2,1.2,0.5s0.5,0.8,0.5,1.4
			c0,0.5-0.1,0.8-0.2,1.1s-0.3,0.5-0.6,0.6c-0.3,0.1-0.6,0.2-0.9,0.2c-0.5,0-0.9-0.2-1.2-0.5C408.6,655.4,408.5,654.9,408.5,654.3
			L408.5,654.3z M409.1,654.3c0,0.5,0.1,0.8,0.3,1s0.5,0.3,0.8,0.3s0.6-0.1,0.8-0.3s0.3-0.6,0.3-1.1c0-0.4-0.1-0.8-0.3-1
			c-0.2-0.2-0.5-0.3-0.8-0.3s-0.6,0.1-0.8,0.3S409.1,653.8,409.1,654.3z"/>
		<path class="st13" d="M412.6,651.8v-0.7h0.6v0.7H412.6z M412.6,656.1v-3.6h0.6v3.6H412.6z"/>
		<path class="st13" d="M414.1,656.1v-5h0.6v5H414.1z"/>
		<path class="st13" d="M418.2,654.9l0.6,0.1c-0.1,0.4-0.3,0.7-0.6,0.9s-0.6,0.3-1,0.3c-0.5,0-1-0.2-1.3-0.5s-0.5-0.8-0.5-1.4
			s0.2-1.1,0.5-1.4s0.7-0.5,1.2-0.5s0.9,0.2,1.2,0.5c0.3,0.3,0.5,0.8,0.5,1.4v0.2h-2.7c0,0.4,0.1,0.7,0.3,0.9s0.5,0.3,0.8,0.3
			c0.2,0,0.4-0.1,0.6-0.2S418.1,655.2,418.2,654.9z M416.2,653.9h2c0-0.3-0.1-0.5-0.2-0.7c-0.2-0.2-0.5-0.4-0.8-0.4
			s-0.5,0.1-0.7,0.3C416.3,653.4,416.2,653.6,416.2,653.9L416.2,653.9z"/>
		<path class="st13" d="M420.9,655.6l0.1,0.5c-0.2,0-0.3,0.1-0.5,0.1s-0.4,0-0.5-0.1l-0.3-0.3c-0.1-0.1-0.1-0.4-0.1-0.7V653h-0.5
			v-0.5h0.5v-0.9l0.6-0.4v1.3h0.6v0.5h-0.6v2.4l0.1,0.1h0.2C420.7,655.6,420.8,655.6,420.9,655.6L420.9,655.6z"/>
		<path class="st13" d="M421.3,655l0.6-0.1c0,0.2,0.1,0.4,0.3,0.6c0.2,0.1,0.4,0.2,0.7,0.2s0.5-0.1,0.6-0.2s0.2-0.2,0.2-0.4
			c0-0.1-0.1-0.2-0.2-0.3s-0.3-0.1-0.6-0.2c-0.5-0.1-0.8-0.2-0.9-0.3c-0.2-0.1-0.3-0.2-0.4-0.3s-0.1-0.3-0.1-0.5s0-0.3,0.1-0.4
			s0.2-0.3,0.3-0.3c0.1-0.1,0.2-0.1,0.4-0.2c0.2,0,0.3-0.1,0.5-0.1c0.3,0,0.5,0,0.8,0.1c0.2,0.1,0.4,0.2,0.5,0.3s0.2,0.3,0.2,0.6
			l-0.6,0.1c0-0.2-0.1-0.3-0.2-0.4s-0.3-0.2-0.6-0.2s-0.5,0-0.6,0.1s-0.2,0.2-0.2,0.3s0,0.2,0.1,0.2l0.2,0.2c0.1,0,0.2,0.1,0.5,0.2
			c0.4,0.1,0.7,0.2,0.9,0.3c0.2,0.1,0.3,0.2,0.4,0.3s0.1,0.3,0.1,0.5s-0.1,0.4-0.2,0.6s-0.3,0.3-0.5,0.4s-0.5,0.1-0.8,0.1
			c-0.5,0-0.8-0.1-1.1-0.3C421.5,655.7,421.4,655.4,421.3,655L421.3,655z"/>
	</g>
	<circle class="st11" cx="398" cy="749.5" r="11.8"/>
	<path class="st12" d="M403.5,755.7H393c-0.4,0-0.7-0.3-0.7-0.7v-10.5c0-0.4,0.3-0.7,0.7-0.7h10.5c0.4,0,0.7,0.3,0.7,0.7v10.5
		C404.2,755.4,403.9,755.7,403.5,755.7z M393,744.4C392.9,744.4,392.9,744.4,393,744.4l-0.1,10.6c0,0.1,0,0.1,0.1,0.1h10.5
		c0.1,0,0.1,0,0.1-0.1v-10.5c0-0.1,0-0.1-0.1-0.1H393z"/>
	<path class="st12" d="M398.1,755.6h-3.5v-9.2h3.5V755.6z M395.2,754.9h2.3v-8h-2.3V754.9z"/>
	<path class="st12" d="M401,755.6h-3.5v-9.2h3.5V755.6z M398.1,754.9h2.3v-8h-2.3V754.9z"/>
	<rect x="397.2" y="745" class="st12" width="2.1" height="0.6"/>
	<polygon class="st12" points="402.7,750.1 402.4,749.8 402,750.1 401.7,749.8 402.4,749.3 403,749.8 	"/>
	<polygon class="st12" points="402.4,751.5 401.7,750.9 402,750.6 402.4,751 402.7,750.6 403,750.9 	"/>
	<g>
		<path class="st13" d="M386.3,768.6v-5h3.6v0.6h-3v1.5h2.8v0.6H387v1.7h3.1v0.6L386.3,768.6L386.3,768.6z"/>
		<path class="st13" d="M390.9,768.6v-5h0.6v5H390.9z"/>
		<path class="st13" d="M394.9,767.5l0.6,0.1c-0.1,0.4-0.3,0.7-0.6,0.9s-0.6,0.3-1,0.3c-0.5,0-1-0.2-1.3-0.5s-0.5-0.8-0.5-1.4
			s0.2-1.1,0.5-1.4s0.7-0.5,1.2-0.5s0.9,0.2,1.2,0.5c0.3,0.3,0.5,0.8,0.5,1.4v0.2h-2.7c0,0.4,0.1,0.7,0.3,0.9s0.5,0.3,0.8,0.3
			c0.2,0,0.4-0.1,0.6-0.2S394.8,767.7,394.9,767.5z M392.9,766.5h2c0-0.3-0.1-0.5-0.2-0.7c-0.2-0.2-0.5-0.4-0.8-0.4
			s-0.5,0.1-0.7,0.3S392.9,766.1,392.9,766.5L392.9,766.5z"/>
		<path class="st13" d="M397.4,768.6L396,765h0.6l0.8,2.2c0.1,0.2,0.2,0.5,0.2,0.7c0.1-0.2,0.1-0.4,0.2-0.7l0.8-2.2h0.6l-1.4,3.6
			H397.4L397.4,768.6z"/>
		<path class="st13" d="M402.2,768.2c-0.2,0.2-0.4,0.3-0.7,0.4c-0.2,0.1-0.4,0.1-0.7,0.1c-0.4,0-0.7-0.1-0.9-0.3s-0.3-0.4-0.3-0.7
			c0-0.2,0-0.3,0.1-0.5c0.1-0.1,0.2-0.3,0.3-0.4c0.1-0.1,0.3-0.2,0.4-0.2s0.3-0.1,0.5-0.1c0.5-0.1,0.9-0.1,1.1-0.2v-0.2
			c0-0.2-0.1-0.4-0.2-0.5c-0.2-0.1-0.4-0.2-0.7-0.2s-0.5,0.1-0.6,0.2s-0.2,0.3-0.3,0.5l-0.6-0.1c0.1-0.3,0.1-0.5,0.3-0.6
			s0.3-0.3,0.5-0.4s0.5-0.1,0.8-0.1s0.6,0,0.8,0.1s0.3,0.2,0.4,0.3s0.2,0.2,0.2,0.4v2.5c0,0.2,0.1,0.3,0.2,0.4h-0.6
			C402.3,768.5,402.2,768.4,402.2,768.2L402.2,768.2z M402.2,766.8c-0.2,0.1-0.6,0.2-1,0.2c-0.3,0-0.4,0.1-0.5,0.1s-0.2,0.1-0.2,0.2
			s-0.1,0.2-0.1,0.3c0,0.2,0.1,0.3,0.2,0.4s0.3,0.2,0.5,0.2s0.4-0.1,0.6-0.2s0.3-0.2,0.4-0.4c0.1-0.1,0.1-0.3,0.1-0.6V766.8z"/>
		<path class="st13" d="M405.1,768.1l0.1,0.5c-0.2,0-0.3,0.1-0.5,0.1s-0.4,0-0.5-0.1l-0.3-0.3c-0.1-0.1-0.1-0.4-0.1-0.7v-2.1h-0.5
			V765h0.5v-0.9l0.6-0.4v1.3h0.6v0.5h-0.6v2.4l0.1,0.1h0.2C404.9,768.1,405,768.1,405.1,768.1L405.1,768.1z"/>
		<path class="st13" d="M405.5,766.8c0-0.7,0.2-1.2,0.6-1.5c0.3-0.3,0.7-0.4,1.1-0.4c0.5,0,0.9,0.2,1.2,0.5s0.5,0.8,0.5,1.4
			c0,0.5-0.1,0.8-0.2,1.1s-0.3,0.5-0.6,0.6c-0.3,0.1-0.6,0.2-0.9,0.2c-0.5,0-0.9-0.2-1.2-0.5C405.6,767.9,405.5,767.4,405.5,766.8
			L405.5,766.8z M406.1,766.8c0,0.5,0.1,0.8,0.3,1s0.5,0.3,0.8,0.3s0.6-0.1,0.8-0.3s0.3-0.6,0.3-1.1c0-0.4-0.1-0.8-0.3-1
			c-0.2-0.2-0.5-0.3-0.8-0.3s-0.6,0.1-0.8,0.3S406.1,766.3,406.1,766.8z"/>
		<path class="st13" d="M409.6,768.6V765h0.6v0.5c0.1-0.3,0.3-0.4,0.4-0.5s0.3-0.1,0.4-0.1c0.2,0,0.4,0.1,0.6,0.2l-0.2,0.6
			c-0.2-0.1-0.3-0.1-0.5-0.1c-0.1,0-0.3,0-0.4,0.1s-0.2,0.2-0.2,0.3c-0.1,0.2-0.1,0.5-0.1,0.7v1.9L409.6,768.6L409.6,768.6z"/>
	</g>
	<circle class="st11" cx="139.2" cy="831.6" r="11.3"/>
	<path class="st13" d="M131.6,850l0.5-0.1c0,0.2,0.1,0.4,0.2,0.5c0.1,0.2,0.2,0.3,0.4,0.4c0.2,0.1,0.4,0.1,0.7,0.1
		c0.2,0,0.4-0.1,0.6-0.1c0.2-0.1,0.3-0.1,0.4-0.3c0.2-0.2,0.2-0.5,0-0.7c-0.1-0.1-0.3-0.2-0.4-0.2c-0.2-0.1-0.5-0.2-0.8-0.2
		c-0.3-0.1-0.6-0.2-0.9-0.3c-0.2-0.1-0.4-0.3-0.5-0.4c-0.1-0.2-0.2-0.4-0.2-0.5c0-0.2,0.1-0.4,0.2-0.6s0.3-0.3,0.5-0.4
		c0.3-0.1,0.6-0.2,0.9-0.2s0.6,0.1,0.9,0.2c0.2,0.1,0.5,0.3,0.6,0.5s0.2,0.5,0.2,0.7l-0.5,0.1c0-0.3-0.1-0.5-0.3-0.7
		s-0.5-0.3-0.8-0.2c-0.3,0-0.5,0.1-0.8,0.2c-0.3,0.2-0.3,0.6-0.1,0.8c0,0,0,0.1,0.1,0.1c0.3,0.2,0.6,0.3,0.9,0.3
		c0.3,0.1,0.7,0.2,1,0.3c0.2,0.1,0.5,0.3,0.6,0.5c0.4,0.6,0.2,1.3-0.4,1.7c-0.1,0-0.2,0.1-0.2,0.1c-0.3,0.1-0.6,0.2-0.9,0.2
		c-0.4,0-0.7-0.1-1-0.2s-0.5-0.3-0.7-0.5C131.7,850.6,131.6,850.3,131.6,850L131.6,850z"/>
	<path class="st13" d="M137.2,851l0.1,0.5c-0.1,0.1-0.3,0.1-0.4,0.1c-0.2,0-0.3,0-0.5-0.1c-0.1,0-0.2-0.1-0.2-0.2
		c-0.1-0.2-0.1-0.4-0.1-0.7v-1.9h-0.4v-0.4h0.4v-0.8l0.5-0.3v1.2h0.5v0.4h-0.5v2.2c0,0.1,0.1,0.1,0.1,0.1c0.1,0,0.1,0.1,0.2,0.1
		C136.9,851,137.1,851,137.2,851L137.2,851z"/>
	<path class="st13" d="M139.8,851.1c-0.2,0.2-0.4,0.3-0.6,0.4s-0.4,0.1-0.6,0.1c-0.3,0-0.6-0.1-0.9-0.2c-0.2-0.2-0.3-0.4-0.3-0.7
		c0-0.2,0-0.3,0.1-0.4l0.3-0.3c0.1-0.1,0.3-0.1,0.4-0.2c0.2-0.1,0.3-0.1,0.5-0.1c0.3-0.1,0.7-0.1,1-0.2v-0.1c0-0.2-0.1-0.4-0.2-0.5
		c-0.2-0.1-0.4-0.2-0.6-0.2s-0.4,0-0.5,0.1s-0.2,0.3-0.3,0.5l-0.5-0.1c0.1-0.2,0.1-0.4,0.2-0.5c0.1-0.2,0.3-0.3,0.5-0.3
		c0.2-0.1,0.5-0.1,0.7-0.1s0.5,0,0.7,0.1c0.1,0.1,0.3,0.1,0.4,0.2l0.2,0.4c0,0.2,0.1,0.4,0,0.5v0.7c0,0.3,0,0.7,0.1,1
		c0,0.1,0.1,0.3,0.1,0.4H140C139.9,851.4,139.9,851.2,139.8,851.1L139.8,851.1z M139.8,849.8c-0.3,0.1-0.6,0.2-0.9,0.2
		c-0.2,0-0.3,0.1-0.5,0.1c-0.1,0.1-0.2,0.1-0.2,0.2c-0.1,0.2-0.1,0.5,0.1,0.6c0.1,0.1,0.3,0.2,0.5,0.1c0.2,0,0.4-0.1,0.5-0.1
		c0.2-0.1,0.3-0.2,0.4-0.4c0.1-0.2,0.1-0.4,0.1-0.5L139.8,849.8L139.8,849.8z"/>
	<path class="st13" d="M141.2,847.6V847h0.5v0.6H141.2z M141.2,851.4v-3.3h0.5v3.3H141.2z"/>
	<path class="st13" d="M142.6,851.4v-3.3h0.5v0.5c0.1-0.2,0.2-0.4,0.4-0.5c0.1-0.1,0.2-0.1,0.4-0.1s0.4,0.1,0.5,0.2l-0.2,0.5
		c-0.1-0.1-0.3-0.1-0.4-0.1s-0.2,0-0.3,0.1s-0.2,0.2-0.2,0.3c-0.1,0.2-0.1,0.4-0.1,0.7v1.7L142.6,851.4L142.6,851.4z"/>
	<path class="st13" d="M144.5,850.5l0.5-0.1c0,0.2,0.1,0.4,0.2,0.5c0.2,0.1,0.4,0.2,0.6,0.2s0.4-0.1,0.5-0.2s0.2-0.2,0.2-0.4
		c0-0.1-0.1-0.2-0.2-0.3l-0.5-0.2c-0.3-0.1-0.5-0.2-0.9-0.2c-0.3-0.1-0.5-0.4-0.5-0.7c0-0.1,0.1-0.3,0.1-0.4
		c0.1-0.1,0.1-0.2,0.2-0.3l0.4-0.2c0.2-0.1,0.3-0.1,0.5-0.1s0.5,0,0.7,0.1s0.3,0.2,0.4,0.3c0.1,0.1,0.2,0.3,0.2,0.5l-0.5,0.1
		c0-0.2-0.1-0.3-0.2-0.4s-0.3-0.2-0.5-0.1c-0.2,0-0.4,0-0.5,0.1s-0.2,0.2-0.2,0.3s0,0.1,0.1,0.2s0.1,0.1,0.2,0.1s0.2,0.1,0.5,0.1
		c0.3,0.1,0.5,0.2,0.8,0.2c0.1,0.1,0.3,0.2,0.4,0.3c0.1,0.1,0.1,0.3,0.1,0.5s-0.1,0.4-0.2,0.5c-0.1,0.2-0.3,0.3-0.5,0.4
		s-0.4,0.1-0.7,0.1s-0.7-0.1-1-0.2C144.7,851,144.6,850.7,144.5,850.5L144.5,850.5z"/>
	<g id="Outline_Icons-2-2-4-2-2-2-3">
		<rect x="134.8" y="835.1" class="st12" width="8" height="0.6"/>
		<polygon class="st12" points="141.7,835.4 141.1,835.4 141.1,834.3 139.7,834.3 139.7,832.9 138.3,832.9 138.3,831.5 136.9,831.5 
			136.9,830.1 134.8,830.1 134.8,829.5 137.5,829.5 137.5,830.9 138.9,830.9 138.9,832.3 140.3,832.3 140.3,833.7 141.7,833.7 		"/>
		
			<rect x="140.8" y="826.6" transform="matrix(0.6988 -0.7153 0.7153 0.6988 -550.9177 350.8243)" class="st12" width="0.6" height="6"/>
		<polygon class="st12" points="139.3,829.2 138.7,829.2 138.7,827.2 140.7,827.2 140.7,827.8 139.3,827.8 		"/>
		<polygon class="st12" points="143.6,832 141.6,832 141.6,831.4 143,831.4 143,830.1 143.6,830.1 		"/>
	</g>
</g>
<g id="Names">
	<path class="st6" d="M276.1,880.4c-0.9,0.8-2,1.2-3.4,1.2c-1.7,0-3.1-0.6-4.1-1.7c-1-1.1-1.5-2.6-1.5-4.6c0-2.1,0.6-3.7,1.7-4.8
		c1-1,2.2-1.5,3.7-1.5c2,0,3.5,0.7,4.4,2c0.5,0.7,0.8,1.5,0.8,2.2h-2.5c-0.2-0.6-0.4-1-0.6-1.3c-0.5-0.5-1.1-0.8-2-0.8
		c-0.9,0-1.6,0.4-2.2,1.1c-0.5,0.7-0.8,1.8-0.8,3.1s0.3,2.3,0.8,3c0.6,0.7,1.3,1,2.1,1c0.9,0,1.5-0.3,2-0.9c0.3-0.3,0.5-0.8,0.6-1.4
		h2.5C277.6,878.6,277,879.6,276.1,880.4L276.1,880.4z"/>
	<path class="st6" d="M286.9,873.6c0.7,0.9,1.1,2,1.1,3.3c0,1.3-0.4,2.4-1.1,3.3c-0.7,0.9-1.9,1.4-3.4,1.4s-2.7-0.5-3.4-1.4
		c-0.7-0.9-1.1-2-1.1-3.3c0-1.3,0.4-2.4,1.1-3.3s1.9-1.4,3.4-1.4S286.1,872.7,286.9,873.6z M283.5,874.2c-0.7,0-1.2,0.2-1.6,0.7
		c-0.4,0.5-0.5,1.2-0.5,2s0.2,1.6,0.5,2.1c0.4,0.5,0.9,0.7,1.6,0.7s1.2-0.2,1.6-0.7c0.4-0.5,0.5-1.2,0.5-2.1s-0.2-1.6-0.5-2
		S284.1,874.2,283.5,874.2z"/>
	<path class="st6" d="M293.8,874.2c-0.8,0-1.3,0.3-1.6,1c-0.2,0.4-0.2,0.8-0.2,1.3v4.8h-2.3v-8.8h2.2v1.3c0.3-0.5,0.6-0.8,0.8-1
		c0.5-0.4,1.1-0.5,1.8-0.5c0.9,0,1.7,0.2,2.2,0.7c0.6,0.5,0.9,1.3,0.9,2.4v6h-2.4v-5.4c0-0.5-0.1-0.8-0.2-1.1
		C294.9,874.4,294.5,874.2,293.8,874.2L293.8,874.2z"/>
	<path class="st6" d="M304,869.3v1.9c-0.1,0-0.3,0-0.7,0c-0.3,0-0.5,0.1-0.6,0.2s-0.2,0.3-0.2,0.5v0.7h1.5v1.6h-1.5v7.1h-2.3v-7.1
		h-1.3v-1.6h1.3V872c0-0.9,0.2-1.6,0.5-2c0.3-0.5,1.1-0.8,2.4-0.8c0.1,0,0.3,0,0.4,0S303.8,869.3,304,869.3L304,869.3z"/>
	<path class="st6" d="M312.9,878.7c-0.1,0.5-0.3,1.1-0.8,1.6c-0.8,0.9-1.8,1.3-3.2,1.3c-1.1,0-2.1-0.4-3-1.1
		c-0.9-0.7-1.3-1.9-1.3-3.5c0-1.5,0.4-2.7,1.2-3.5c0.8-0.8,1.8-1.2,3-1.2c0.7,0,1.4,0.1,2,0.4c0.6,0.3,1.1,0.7,1.5,1.3
		c0.3,0.5,0.6,1.1,0.7,1.8c0.1,0.4,0.1,1,0.1,1.8H307c0,0.9,0.3,1.5,0.8,1.9c0.3,0.2,0.7,0.3,1.2,0.3c0.5,0,0.9-0.1,1.2-0.4
		c0.2-0.1,0.3-0.3,0.4-0.6L312.9,878.7L312.9,878.7z M310.6,876c0-0.6-0.2-1.1-0.6-1.4c-0.3-0.3-0.7-0.5-1.2-0.5
		c-0.5,0-1,0.2-1.2,0.5c-0.3,0.3-0.5,0.8-0.6,1.4L310.6,876L310.6,876z"/>
	<path class="st6" d="M319,874.6c-0.9,0-1.6,0.3-1.9,0.9c-0.2,0.3-0.3,0.9-0.3,1.6v4.2h-2.3v-8.8h2.2v1.5c0.4-0.6,0.7-1,0.9-1.2
		c0.4-0.4,1-0.5,1.7-0.5c0,0,0.1,0,0.1,0c0,0,0.1,0,0.2,0v2.4c-0.1,0-0.3,0-0.4,0C319.2,874.6,319.1,874.6,319,874.6L319,874.6z"/>
	<path class="st6" d="M328.6,878.7c-0.1,0.5-0.3,1.1-0.8,1.6c-0.8,0.9-1.8,1.3-3.2,1.3c-1.1,0-2.1-0.4-3-1.1
		c-0.9-0.7-1.3-1.9-1.3-3.5c0-1.5,0.4-2.7,1.2-3.5c0.8-0.8,1.8-1.2,3-1.2c0.7,0,1.4,0.1,2,0.4c0.6,0.3,1.1,0.7,1.5,1.3
		c0.3,0.5,0.6,1.1,0.7,1.8c0.1,0.4,0.1,1,0.1,1.8h-6.1c0,0.9,0.3,1.5,0.8,1.9c0.3,0.2,0.7,0.3,1.2,0.3c0.5,0,0.9-0.1,1.2-0.4
		c0.2-0.1,0.3-0.3,0.4-0.6L328.6,878.7L328.6,878.7z M326.3,876c0-0.6-0.2-1.1-0.6-1.4c-0.3-0.3-0.7-0.5-1.2-0.5
		c-0.5,0-1,0.2-1.2,0.5c-0.3,0.3-0.5,0.8-0.6,1.4L326.3,876L326.3,876z"/>
	<path class="st6" d="M334.5,874.2c-0.8,0-1.3,0.3-1.6,1c-0.2,0.4-0.2,0.8-0.2,1.3v4.8h-2.3v-8.8h2.2v1.3c0.3-0.5,0.6-0.8,0.8-1
		c0.5-0.4,1.1-0.5,1.8-0.5c0.9,0,1.7,0.2,2.2,0.7c0.6,0.5,0.9,1.3,0.9,2.4v6H336v-5.4c0-0.5-0.1-0.8-0.2-1.1
		C335.5,874.4,335.1,874.2,334.5,874.2L334.5,874.2z"/>
	<path class="st6" d="M348.1,875.7h-2.4c0-0.3-0.2-0.6-0.3-0.9c-0.3-0.4-0.7-0.5-1.2-0.5c-0.8,0-1.3,0.4-1.6,1.2
		c-0.2,0.4-0.2,1-0.2,1.6c0,0.6,0.1,1.2,0.2,1.6c0.3,0.7,0.8,1.1,1.6,1.1c0.5,0,0.9-0.1,1.2-0.4s0.4-0.7,0.4-1.1h2.4
		c-0.1,0.7-0.3,1.4-0.8,2c-0.7,1-1.8,1.5-3.2,1.5s-2.5-0.4-3.1-1.3s-1-1.9-1-3.3c0-1.5,0.4-2.7,1.1-3.5c0.7-0.8,1.8-1.3,3.1-1.3
		c1.1,0,2,0.2,2.7,0.7C347.6,873.5,348,874.4,348.1,875.7L348.1,875.7z"/>
	<path class="st6" d="M357.3,878.7c-0.1,0.5-0.3,1.1-0.8,1.6c-0.8,0.9-1.8,1.3-3.2,1.3c-1.1,0-2.1-0.4-3-1.1
		c-0.9-0.7-1.3-1.9-1.3-3.5c0-1.5,0.4-2.7,1.2-3.5c0.8-0.8,1.8-1.2,3-1.2c0.7,0,1.4,0.1,2,0.4c0.6,0.3,1.1,0.7,1.5,1.3
		c0.3,0.5,0.6,1.1,0.7,1.8c0.1,0.4,0.1,1,0.1,1.8h-6.1c0,0.9,0.3,1.5,0.8,1.9c0.3,0.2,0.7,0.3,1.2,0.3c0.5,0,0.9-0.1,1.2-0.4
		c0.2-0.1,0.3-0.3,0.4-0.6L357.3,878.7L357.3,878.7z M355,876c0-0.6-0.2-1.1-0.6-1.4c-0.3-0.3-0.7-0.5-1.2-0.5c-0.5,0-1,0.2-1.2,0.5
		c-0.3,0.3-0.5,0.8-0.6,1.4L355,876L355,876z"/>
	<path class="st6" d="M304.1,888.6c-0.3-0.3-0.7-0.5-1.2-0.5c-0.7,0-1.2,0.3-1.4,0.8c-0.1,0.3-0.2,0.8-0.3,1.4h-2.2
		c0-1,0.2-1.8,0.5-2.4c0.6-1.2,1.7-1.8,3.3-1.8c1.2,0,2.2,0.3,3,1c0.7,0.7,1.1,1.6,1.1,2.7c0,0.9-0.3,1.6-0.8,2.3
		c-0.3,0.4-0.9,1-1.7,1.5l-0.9,0.7c-0.6,0.4-1,0.7-1.2,0.9c-0.2,0.2-0.4,0.4-0.5,0.6h5.1v2h-8.1c0-0.8,0.2-1.6,0.5-2.3
		c0.3-0.8,1.1-1.6,2.3-2.5c1.1-0.8,1.8-1.3,2.1-1.6c0.5-0.5,0.7-1.1,0.7-1.7C304.5,889.3,304.3,888.9,304.1,888.6z"/>
	<path class="st6" d="M312.1,898.2c-1.5,0-2.6-0.5-3.2-1.6c-0.6-1.1-0.9-2.5-0.9-4.5s0.3-3.4,0.9-4.5c0.6-1.1,1.7-1.6,3.2-1.6
		s2.6,0.5,3.2,1.6c0.6,1.1,0.9,2.6,0.9,4.5s-0.3,3.4-0.9,4.5C314.6,897.7,313.6,898.2,312.1,898.2z M313.5,895.3
		c0.2-0.7,0.3-1.7,0.3-3.1c0-1.4-0.1-2.5-0.3-3.1c-0.2-0.7-0.7-1-1.4-1s-1.1,0.3-1.4,1c-0.2,0.7-0.3,1.7-0.3,3.1
		c0,1.4,0.1,2.4,0.3,3.1c0.2,0.7,0.7,1.1,1.4,1.1S313.2,896,313.5,895.3L313.5,895.3z"/>
	<path class="st6" d="M321.3,898.2c-1.5,0-2.6-0.5-3.2-1.6c-0.6-1.1-0.9-2.5-0.9-4.5s0.3-3.4,0.9-4.5c0.6-1.1,1.7-1.6,3.2-1.6
		s2.6,0.5,3.2,1.6c0.6,1.1,0.9,2.6,0.9,4.5s-0.3,3.4-0.9,4.5C323.9,897.7,322.8,898.2,321.3,898.2z M322.7,895.3
		c0.2-0.7,0.3-1.7,0.3-3.1c0-1.4-0.1-2.5-0.3-3.1c-0.2-0.7-0.7-1-1.4-1s-1.1,0.3-1.4,1c-0.2,0.7-0.3,1.7-0.3,3.1
		c0,1.4,0.1,2.4,0.3,3.1c0.2,0.7,0.7,1.1,1.4,1.1S322.5,896,322.7,895.3L322.7,895.3z"/>
	<path class="st6" d="M120.3,637.8c-1.7,0-3-0.5-3.9-1.4c-1.2-1.1-1.8-2.8-1.8-4.9c0-2.2,0.6-3.8,1.8-4.9c0.9-0.9,2.2-1.4,3.9-1.4
		s3,0.5,3.9,1.4c1.2,1.1,1.8,2.7,1.8,4.9c0,2.1-0.6,3.8-1.8,4.9C123.3,637.3,122,637.8,120.3,637.8z M122.6,634.6
		c0.6-0.7,0.9-1.8,0.9-3.1s-0.3-2.4-0.9-3.1s-1.4-1.1-2.4-1.1s-1.8,0.4-2.4,1.1c-0.6,0.7-0.9,1.8-0.9,3.1s0.3,2.4,0.9,3.1
		c0.6,0.7,1.4,1.1,2.4,1.1S122,635.3,122.6,634.6z"/>
	<path class="st6" d="M131.9,625.4v1.9c-0.1,0-0.3,0-0.7,0c-0.3,0-0.5,0.1-0.6,0.2s-0.2,0.3-0.2,0.5v0.7h1.5v1.6h-1.5v7.1h-2.3v-7.1
		h-1.3v-1.6h1.3v-0.6c0-0.9,0.2-1.6,0.5-2c0.3-0.5,1.1-0.8,2.4-0.8c0.1,0,0.3,0,0.4,0S131.7,625.4,131.9,625.4L131.9,625.4z"/>
	<path class="st6" d="M137.4,625.4v1.9c-0.1,0-0.3,0-0.7,0c-0.3,0-0.5,0.1-0.6,0.2s-0.2,0.3-0.2,0.5v0.7h1.5v1.6h-1.5v7.1h-2.3v-7.1
		h-1.3v-1.6h1.3v-0.6c0-0.9,0.2-1.6,0.5-2c0.3-0.5,1.1-0.8,2.4-0.8c0.1,0,0.3,0,0.4,0S137.2,625.4,137.4,625.4L137.4,625.4z"/>
	<path class="st6" d="M141.2,625.4v2.1h-2.3v-2.1H141.2z M141.2,628.6v8.8h-2.3v-8.8H141.2z"/>
	<path class="st6" d="M151.1,631.8h-2.4c0-0.3-0.2-0.6-0.3-0.9c-0.3-0.4-0.7-0.5-1.2-0.5c-0.8,0-1.3,0.4-1.6,1.2
		c-0.2,0.4-0.2,1-0.2,1.6c0,0.6,0.1,1.2,0.2,1.6c0.3,0.7,0.8,1.1,1.6,1.1c0.5,0,0.9-0.1,1.2-0.4s0.4-0.7,0.4-1.1h2.4
		c-0.1,0.7-0.3,1.4-0.8,2c-0.7,1-1.8,1.5-3.2,1.5s-2.5-0.4-3.1-1.3s-1-1.9-1-3.3c0-1.5,0.4-2.7,1.1-3.5c0.7-0.8,1.8-1.3,3.1-1.3
		c1.1,0,2,0.2,2.7,0.7C150.5,629.6,150.9,630.5,151.1,631.8L151.1,631.8z"/>
	<path class="st6" d="M160.2,634.8c-0.1,0.5-0.3,1.1-0.8,1.6c-0.8,0.9-1.8,1.3-3.2,1.3c-1.1,0-2.1-0.4-3-1.1
		c-0.9-0.7-1.3-1.9-1.3-3.5c0-1.5,0.4-2.7,1.2-3.5c0.8-0.8,1.8-1.2,3-1.2c0.7,0,1.4,0.1,2,0.4c0.6,0.3,1.1,0.7,1.5,1.3
		c0.3,0.5,0.6,1.1,0.7,1.8c0.1,0.4,0.1,1,0.1,1.8h-6.1c0,0.9,0.3,1.5,0.8,1.9c0.3,0.2,0.7,0.3,1.2,0.3c0.5,0,0.9-0.1,1.2-0.4
		c0.2-0.1,0.3-0.3,0.4-0.6L160.2,634.8L160.2,634.8z M157.9,632.1c0-0.6-0.2-1.1-0.6-1.4c-0.3-0.3-0.7-0.5-1.2-0.5
		c-0.5,0-1,0.2-1.2,0.5c-0.3,0.3-0.5,0.8-0.6,1.4L157.9,632.1L157.9,632.1z"/>
	<path class="st6" d="M129.2,644.7c-0.3-0.3-0.7-0.5-1.2-0.5c-0.7,0-1.2,0.3-1.4,0.8c-0.1,0.3-0.2,0.8-0.3,1.4H124
		c0-1,0.2-1.8,0.5-2.4c0.6-1.2,1.7-1.8,3.3-1.8c1.2,0,2.2,0.3,3,1c0.7,0.7,1.1,1.6,1.1,2.7c0,0.9-0.3,1.6-0.8,2.3
		c-0.3,0.4-0.9,1-1.7,1.5l-0.9,0.7c-0.6,0.4-1,0.7-1.2,0.9c-0.2,0.2-0.4,0.4-0.5,0.6h5.1v2h-8.1c0-0.8,0.2-1.6,0.5-2.3
		c0.3-0.8,1.1-1.6,2.3-2.5c1.1-0.8,1.8-1.3,2.1-1.6c0.5-0.5,0.7-1.1,0.7-1.7C129.6,645.4,129.4,645,129.2,644.7L129.2,644.7z"/>
	<path class="st6" d="M137.2,654.4c-1.5,0-2.6-0.5-3.2-1.6c-0.6-1.1-0.9-2.5-0.9-4.5s0.3-3.4,0.9-4.5c0.6-1.1,1.7-1.6,3.2-1.6
		s2.6,0.5,3.2,1.6c0.6,1.1,0.9,2.6,0.9,4.5s-0.3,3.4-0.9,4.5C139.8,653.8,138.7,654.4,137.2,654.4z M138.6,651.4
		c0.2-0.7,0.3-1.7,0.3-3.1c0-1.4-0.1-2.5-0.3-3.1c-0.2-0.7-0.7-1-1.4-1s-1.1,0.3-1.4,1c-0.2,0.7-0.3,1.7-0.3,3.1
		c0,1.4,0.1,2.4,0.3,3.1c0.2,0.7,0.7,1.1,1.4,1.1S138.4,652.1,138.6,651.4L138.6,651.4z"/>
	<path class="st6" d="M148.2,654.1h-2.4V646H143v-1.6c0.7,0,1.2-0.1,1.5-0.1c0.5-0.1,0.8-0.3,1.1-0.6c0.2-0.2,0.4-0.5,0.5-0.8
		c0.1-0.2,0.1-0.4,0.1-0.5h1.9L148.2,654.1L148.2,654.1z"/>
	<path class="st6" d="M427.9,510.1c-1.7,0-3-0.5-3.9-1.4c-1.2-1.1-1.8-2.8-1.8-4.9c0-2.2,0.6-3.8,1.8-4.9c0.9-0.9,2.2-1.4,3.9-1.4
		s3,0.5,3.9,1.4c1.2,1.1,1.8,2.7,1.8,4.9c0,2.1-0.6,3.8-1.8,4.9C430.9,509.6,429.6,510.1,427.9,510.1z M430.2,506.9
		c0.6-0.7,0.9-1.8,0.9-3.1s-0.3-2.4-0.9-3.1s-1.4-1.1-2.4-1.1s-1.8,0.4-2.4,1.1c-0.6,0.7-0.9,1.8-0.9,3.1s0.3,2.4,0.9,3.1
		c0.6,0.7,1.4,1.1,2.4,1.1S429.6,507.6,430.2,506.9z"/>
	<path class="st6" d="M439.5,497.7v1.9c-0.1,0-0.3,0-0.7,0c-0.3,0-0.5,0.1-0.6,0.2s-0.2,0.3-0.2,0.5v0.7h1.5v1.6H438v7.1h-2.3v-7.1
		h-1.3V501h1.3v-0.6c0-0.9,0.2-1.6,0.5-2c0.3-0.5,1.1-0.8,2.4-0.8c0.1,0,0.3,0,0.4,0S439.3,497.7,439.5,497.7L439.5,497.7z"/>
	<path class="st6" d="M445,497.7v1.9c-0.1,0-0.3,0-0.7,0c-0.3,0-0.5,0.1-0.6,0.2s-0.2,0.3-0.2,0.5v0.7h1.5v1.6h-1.5v7.1h-2.3v-7.1
		h-1.3V501h1.3v-0.6c0-0.9,0.2-1.6,0.5-2c0.3-0.5,1.1-0.8,2.4-0.8c0.1,0,0.3,0,0.4,0S444.8,497.7,445,497.7L445,497.7z"/>
	<path class="st6" d="M448.8,497.7v2.1h-2.3v-2.1H448.8z M448.8,500.9v8.8h-2.3v-8.8H448.8z"/>
	<path class="st6" d="M458.7,504.1h-2.4c0-0.3-0.2-0.6-0.3-0.9c-0.3-0.4-0.7-0.5-1.2-0.5c-0.8,0-1.3,0.4-1.6,1.2
		c-0.2,0.4-0.2,1-0.2,1.6c0,0.6,0.1,1.2,0.2,1.6c0.3,0.7,0.8,1.1,1.6,1.1c0.5,0,0.9-0.1,1.2-0.4s0.4-0.7,0.4-1.1h2.4
		c-0.1,0.7-0.3,1.4-0.8,2c-0.7,1-1.8,1.5-3.2,1.5s-2.5-0.4-3.1-1.3s-1-1.9-1-3.3c0-1.5,0.4-2.7,1.1-3.5c0.7-0.8,1.8-1.3,3.1-1.3
		c1.1,0,2,0.2,2.7,0.7C458.1,502,458.5,502.8,458.7,504.1L458.7,504.1z"/>
	<path class="st6" d="M467.8,507.2c-0.1,0.5-0.3,1.1-0.8,1.6c-0.8,0.9-1.8,1.3-3.2,1.3c-1.1,0-2.1-0.4-3-1.1
		c-0.9-0.7-1.3-1.9-1.3-3.5c0-1.5,0.4-2.7,1.2-3.5c0.8-0.8,1.8-1.2,3-1.2c0.7,0,1.4,0.1,2,0.4c0.6,0.3,1.1,0.7,1.5,1.3
		c0.3,0.5,0.6,1.1,0.7,1.8c0.1,0.4,0.1,1,0.1,1.8h-6.1c0,0.9,0.3,1.5,0.8,1.9c0.3,0.2,0.7,0.3,1.2,0.3c0.5,0,0.9-0.1,1.2-0.4
		c0.2-0.1,0.3-0.3,0.4-0.6L467.8,507.2L467.8,507.2z M465.5,504.5c0-0.6-0.2-1.1-0.6-1.4c-0.3-0.3-0.7-0.5-1.2-0.5
		c-0.5,0-1,0.2-1.2,0.5c-0.3,0.3-0.5,0.8-0.6,1.4L465.5,504.5L465.5,504.5z"/>
	<path class="st6" d="M436.8,517c-0.3-0.3-0.7-0.5-1.2-0.5c-0.7,0-1.2,0.3-1.4,0.8c-0.1,0.3-0.2,0.8-0.3,1.4h-2.2
		c0-1,0.2-1.8,0.5-2.4c0.6-1.2,1.7-1.8,3.3-1.8c1.2,0,2.2,0.3,3,1c0.7,0.7,1.1,1.6,1.1,2.7c0,0.9-0.3,1.6-0.8,2.3
		c-0.3,0.4-0.9,1-1.7,1.5l-0.9,0.7c-0.6,0.4-1,0.7-1.2,0.9c-0.2,0.2-0.4,0.4-0.5,0.6h5.1v2h-8.1c0-0.8,0.2-1.6,0.5-2.3
		c0.3-0.8,1.1-1.6,2.3-2.5c1.1-0.8,1.8-1.3,2.1-1.6c0.5-0.5,0.7-1.1,0.7-1.7C437.2,517.8,437,517.3,436.8,517z"/>
	<path class="st6" d="M444.8,526.7c-1.5,0-2.6-0.5-3.2-1.6c-0.6-1.1-0.9-2.5-0.9-4.5s0.3-3.4,0.9-4.5c0.6-1.1,1.7-1.6,3.2-1.6
		s2.6,0.5,3.2,1.6c0.6,1.1,0.9,2.6,0.9,4.5s-0.3,3.4-0.9,4.5C447.4,526.2,446.3,526.7,444.8,526.7z M446.2,523.7
		c0.2-0.7,0.3-1.7,0.3-3.1c0-1.4-0.1-2.5-0.3-3.1c-0.2-0.7-0.7-1-1.4-1s-1.1,0.3-1.4,1c-0.2,0.7-0.3,1.7-0.3,3.1
		c0,1.4,0.1,2.4,0.3,3.1c0.2,0.7,0.7,1.1,1.4,1.1S446,524.4,446.2,523.7L446.2,523.7z"/>
	<path class="st6" d="M455.3,517c-0.3-0.3-0.7-0.5-1.2-0.5c-0.7,0-1.2,0.3-1.4,0.8c-0.1,0.3-0.2,0.8-0.3,1.4h-2.2
		c0-1,0.2-1.8,0.5-2.4c0.6-1.2,1.7-1.8,3.3-1.8c1.2,0,2.2,0.3,3,1c0.7,0.7,1.1,1.6,1.1,2.7c0,0.9-0.3,1.6-0.8,2.3
		c-0.3,0.4-0.9,1-1.7,1.5l-0.9,0.7c-0.6,0.4-1,0.7-1.2,0.9c-0.2,0.2-0.4,0.4-0.5,0.6h5.1v2H450c0-0.8,0.2-1.6,0.5-2.3
		c0.3-0.8,1.1-1.6,2.3-2.5c1.1-0.8,1.8-1.3,2.1-1.6c0.5-0.5,0.7-1.1,0.7-1.7C455.7,517.8,455.5,517.3,455.3,517z"/>
	<path class="st6" d="M116.5,511.5c-1.7,0-3-0.5-3.9-1.4c-1.2-1.1-1.8-2.8-1.8-4.9c0-2.2,0.6-3.8,1.8-4.9c0.9-0.9,2.2-1.4,3.9-1.4
		s3,0.5,3.9,1.4c1.2,1.1,1.8,2.7,1.8,4.9c0,2.1-0.6,3.8-1.8,4.9C119.5,511,118.2,511.5,116.5,511.5z M118.9,508.3
		c0.6-0.7,0.9-1.8,0.9-3.1s-0.3-2.4-0.9-3.1s-1.4-1.1-2.4-1.1s-1.8,0.4-2.4,1.1c-0.6,0.7-0.9,1.8-0.9,3.1s0.3,2.4,0.9,3.1
		c0.6,0.7,1.4,1.1,2.4,1.1S118.3,509,118.9,508.3z"/>
	<path class="st6" d="M128.1,499.1v1.9c-0.1,0-0.3,0-0.7,0c-0.3,0-0.5,0.1-0.6,0.2c-0.1,0.1-0.2,0.3-0.2,0.5v0.7h1.5v1.6h-1.5v7.1
		h-2.3V504H123v-1.6h1.3v-0.6c0-0.9,0.2-1.6,0.5-2c0.3-0.5,1.1-0.8,2.4-0.8c0.1,0,0.3,0,0.4,0S127.9,499.1,128.1,499.1L128.1,499.1z
		"/>
	<path class="st6" d="M133.6,499.1v1.9c-0.1,0-0.3,0-0.7,0c-0.3,0-0.5,0.1-0.6,0.2s-0.2,0.3-0.2,0.5v0.7h1.5v1.6h-1.5v7.1h-2.3V504
		h-1.3v-1.6h1.3v-0.6c0-0.9,0.2-1.6,0.5-2c0.3-0.5,1.1-0.8,2.4-0.8c0.1,0,0.3,0,0.4,0S133.4,499.1,133.6,499.1L133.6,499.1z"/>
	<path class="st6" d="M137.4,499.1v2.1H135v-2.1H137.4z M137.4,502.3v8.8H135v-8.8H137.4z"/>
	<path class="st6" d="M147.3,505.5h-2.4c0-0.3-0.2-0.6-0.3-0.9c-0.3-0.4-0.7-0.5-1.2-0.5c-0.8,0-1.3,0.4-1.6,1.2
		c-0.2,0.4-0.2,1-0.2,1.6c0,0.6,0.1,1.2,0.2,1.6c0.3,0.7,0.8,1.1,1.6,1.1c0.5,0,0.9-0.1,1.2-0.4s0.4-0.7,0.4-1.1h2.4
		c-0.1,0.7-0.3,1.4-0.8,2c-0.7,1-1.8,1.5-3.2,1.5s-2.5-0.4-3.1-1.3s-1-1.9-1-3.3c0-1.5,0.4-2.7,1.1-3.5c0.7-0.8,1.8-1.3,3.1-1.3
		c1.1,0,2,0.2,2.7,0.7C146.7,503.3,147.2,504.2,147.3,505.5L147.3,505.5z"/>
	<path class="st6" d="M156.5,508.6c-0.1,0.5-0.3,1.1-0.8,1.6c-0.8,0.9-1.8,1.3-3.2,1.3c-1.1,0-2.1-0.4-3-1.1
		c-0.9-0.7-1.3-1.9-1.3-3.5c0-1.5,0.4-2.7,1.2-3.5c0.8-0.8,1.8-1.2,3-1.2c0.7,0,1.4,0.1,2,0.4c0.6,0.3,1.1,0.7,1.5,1.3
		c0.3,0.5,0.6,1.1,0.7,1.8c0.1,0.4,0.1,1,0.1,1.8h-6.1c0,0.9,0.3,1.5,0.8,1.9c0.3,0.2,0.7,0.3,1.2,0.3c0.5,0,0.9-0.1,1.2-0.4
		c0.2-0.1,0.3-0.3,0.4-0.6L156.5,508.6L156.5,508.6z M154.2,505.8c0-0.6-0.2-1.1-0.6-1.4c-0.3-0.3-0.7-0.5-1.2-0.5
		c-0.5,0-1,0.2-1.2,0.5c-0.3,0.3-0.5,0.8-0.6,1.4L154.2,505.8L154.2,505.8z"/>
	<path class="st6" d="M125.4,518.4c-0.3-0.3-0.7-0.5-1.2-0.5c-0.7,0-1.2,0.3-1.4,0.8c-0.1,0.3-0.2,0.8-0.3,1.4h-2.2
		c0-1,0.2-1.8,0.5-2.4c0.6-1.2,1.7-1.8,3.3-1.8c1.2,0,2.2,0.3,3,1c0.7,0.7,1.1,1.6,1.1,2.7c0,0.9-0.3,1.6-0.8,2.3
		c-0.3,0.4-0.9,1-1.7,1.5l-0.9,0.7c-0.6,0.4-1,0.7-1.2,0.9c-0.2,0.2-0.4,0.4-0.5,0.6h5.1v2h-8.1c0-0.8,0.2-1.6,0.5-2.3
		c0.3-0.8,1.1-1.6,2.3-2.5c1.1-0.8,1.8-1.3,2.1-1.6c0.5-0.5,0.7-1.1,0.7-1.7C125.8,519.1,125.7,518.7,125.4,518.4z"/>
	<path class="st6" d="M133.4,528.1c-1.5,0-2.6-0.5-3.2-1.6c-0.6-1.1-0.9-2.5-0.9-4.5s0.3-3.4,0.9-4.5c0.6-1.1,1.7-1.6,3.2-1.6
		s2.6,0.5,3.2,1.6c0.6,1.1,0.9,2.6,0.9,4.5s-0.3,3.4-0.9,4.5C136,527.5,134.9,528.1,133.4,528.1z M134.8,525.1
		c0.2-0.7,0.3-1.7,0.3-3.1c0-1.4-0.1-2.5-0.3-3.1c-0.2-0.7-0.7-1-1.4-1s-1.1,0.3-1.4,1c-0.2,0.7-0.3,1.7-0.3,3.1
		c0,1.4,0.1,2.4,0.3,3.1c0.2,0.7,0.7,1.1,1.4,1.1S134.6,525.8,134.8,525.1L134.8,525.1z"/>
	<path class="st6" d="M141.3,518.3c-0.3,0.3-0.4,0.8-0.4,1.4h-2.2c0-0.6,0.1-1.1,0.3-1.7c0.2-0.5,0.5-0.9,0.9-1.3
		c0.3-0.3,0.7-0.5,1.1-0.6c0.4-0.1,0.9-0.2,1.5-0.2c1.1,0,2,0.3,2.7,0.9c0.7,0.6,1,1.4,1,2.3c0,0.7-0.2,1.3-0.6,1.8
		c-0.3,0.3-0.5,0.5-0.8,0.6c0.2,0,0.5,0.2,0.9,0.5c0.6,0.5,0.9,1.3,0.9,2.2c0,1-0.3,1.9-1,2.6c-0.7,0.8-1.7,1.1-3.1,1.1
		c-1.7,0-2.8-0.5-3.5-1.6c-0.3-0.6-0.5-1.3-0.6-2.3h2.3c0,0.5,0.1,0.9,0.2,1.2c0.3,0.6,0.8,0.9,1.5,0.9c0.5,0,0.9-0.2,1.2-0.5
		c0.3-0.3,0.5-0.8,0.5-1.3c0-0.8-0.3-1.3-0.9-1.6c-0.4-0.1-0.9-0.2-1.7-0.2v-1.7c0.8,0,1.3-0.1,1.6-0.2c0.5-0.2,0.8-0.7,0.8-1.4
		c0-0.4-0.1-0.8-0.4-1.1s-0.6-0.4-1.1-0.4C142,517.8,141.6,518,141.3,518.3L141.3,518.3z"/>
	<path class="st6" d="M456.1,384c-1.7,0-3-0.5-3.9-1.4c-1.2-1.1-1.8-2.8-1.8-4.9c0-2.2,0.6-3.8,1.8-4.9c0.9-0.9,2.2-1.4,3.9-1.4
		s3,0.5,3.9,1.4c1.2,1.1,1.8,2.7,1.8,4.9c0,2.1-0.6,3.8-1.8,4.9C459.1,383.6,457.8,384,456.1,384z M458.5,380.8
		c0.6-0.7,0.9-1.8,0.9-3.1s-0.3-2.4-0.9-3.1s-1.4-1.1-2.4-1.1s-1.8,0.4-2.4,1.1c-0.6,0.7-0.9,1.8-0.9,3.1s0.3,2.4,0.9,3.1
		c0.6,0.7,1.4,1.1,2.4,1.1S457.9,381.5,458.5,380.8z"/>
	<path class="st6" d="M467.7,371.7v1.9c-0.1,0-0.3,0-0.7,0c-0.3,0-0.5,0.1-0.6,0.2c-0.1,0.1-0.2,0.3-0.2,0.5v0.7h1.5v1.6h-1.5v7.1
		h-2.3v-7.1h-1.3v-1.6h1.3v-0.6c0-0.9,0.2-1.6,0.5-2c0.3-0.5,1.1-0.8,2.4-0.8c0.1,0,0.3,0,0.4,0S467.5,371.6,467.7,371.7
		L467.7,371.7z"/>
	<path class="st6" d="M473.2,371.7v1.9c-0.1,0-0.3,0-0.7,0c-0.3,0-0.5,0.1-0.6,0.2c-0.1,0.1-0.2,0.3-0.2,0.5v0.7h1.5v1.6h-1.5v7.1
		h-2.3v-7.1h-1.3v-1.6h1.3v-0.6c0-0.9,0.2-1.6,0.5-2c0.3-0.5,1.1-0.8,2.4-0.8c0.1,0,0.3,0,0.4,0S473,371.6,473.2,371.7L473.2,371.7z
		"/>
	<path class="st6" d="M477,371.7v2.1h-2.3v-2.1H477z M477,374.8v8.8h-2.3v-8.8H477z"/>
	<path class="st6" d="M486.9,378h-2.4c0-0.3-0.2-0.6-0.3-0.9c-0.3-0.4-0.7-0.5-1.2-0.5c-0.8,0-1.3,0.4-1.6,1.2
		c-0.2,0.4-0.2,1-0.2,1.6c0,0.6,0.1,1.2,0.2,1.6c0.3,0.7,0.8,1.1,1.6,1.1c0.5,0,0.9-0.1,1.2-0.4c0.2-0.3,0.4-0.7,0.4-1.1h2.4
		c-0.1,0.7-0.3,1.4-0.8,2c-0.7,1-1.8,1.5-3.2,1.5s-2.5-0.4-3.1-1.3c-0.7-0.8-1-1.9-1-3.3c0-1.5,0.4-2.7,1.1-3.5
		c0.7-0.8,1.8-1.3,3.1-1.3c1.1,0,2,0.2,2.7,0.7S486.8,376.8,486.9,378L486.9,378z"/>
	<path class="st6" d="M496.1,381.1c-0.1,0.5-0.3,1.1-0.8,1.6c-0.8,0.9-1.8,1.3-3.2,1.3c-1.1,0-2.1-0.4-3-1.1
		c-0.9-0.7-1.3-1.9-1.3-3.5c0-1.5,0.4-2.7,1.2-3.5s1.8-1.2,3-1.2c0.7,0,1.4,0.1,2,0.4c0.6,0.3,1.1,0.7,1.5,1.3
		c0.3,0.5,0.6,1.1,0.7,1.8c0.1,0.4,0.1,1,0.1,1.8h-6.1c0,0.9,0.3,1.5,0.8,1.9c0.3,0.2,0.7,0.3,1.2,0.3c0.5,0,0.9-0.1,1.2-0.4
		c0.2-0.1,0.3-0.3,0.4-0.6L496.1,381.1L496.1,381.1z M493.8,378.4c0-0.6-0.2-1.1-0.6-1.4c-0.3-0.3-0.7-0.5-1.2-0.5
		c-0.5,0-1,0.2-1.2,0.5c-0.3,0.3-0.5,0.8-0.6,1.4L493.8,378.4L493.8,378.4z"/>
	<path class="st6" d="M465,390.9c-0.3-0.3-0.7-0.5-1.2-0.5c-0.7,0-1.2,0.3-1.4,0.8c-0.1,0.3-0.2,0.8-0.3,1.4h-2.2
		c0-1,0.2-1.8,0.5-2.4c0.6-1.2,1.7-1.8,3.3-1.8c1.2,0,2.2,0.3,3,1c0.7,0.7,1.1,1.6,1.1,2.7c0,0.9-0.3,1.6-0.8,2.3
		c-0.3,0.4-0.9,1-1.7,1.5l-0.9,0.7c-0.6,0.4-1,0.7-1.2,0.9c-0.2,0.2-0.4,0.4-0.5,0.6h5.1v2h-8.1c0-0.8,0.2-1.6,0.5-2.3
		c0.3-0.8,1.1-1.6,2.3-2.5c1.1-0.8,1.8-1.3,2.1-1.6c0.5-0.5,0.7-1.1,0.7-1.7C465.4,391.7,465.3,391.3,465,390.9L465,390.9z"/>
	<path class="st6" d="M473,400.6c-1.5,0-2.6-0.5-3.2-1.6c-0.6-1.1-0.9-2.5-0.9-4.5s0.3-3.4,0.9-4.5c0.6-1.1,1.7-1.6,3.2-1.6
		s2.6,0.5,3.2,1.6c0.6,1.1,0.9,2.6,0.9,4.5s-0.3,3.4-0.9,4.5C475.6,400.1,474.5,400.6,473,400.6z M474.4,397.7
		c0.2-0.7,0.3-1.7,0.3-3.1c0-1.4-0.1-2.5-0.3-3.1c-0.2-0.7-0.7-1-1.4-1s-1.1,0.3-1.4,1c-0.2,0.7-0.3,1.7-0.3,3.1
		c0,1.4,0.1,2.4,0.3,3.1c0.2,0.7,0.7,1.1,1.4,1.1S474.2,398.4,474.4,397.7L474.4,397.7z"/>
	<path class="st6" d="M486.4,396v1.8h-1.3v2.5h-2.3v-2.5h-4.7v-2l4.3-7.1h2.6v7.4H486.4L486.4,396z M479.9,396h2.9v-5.1L479.9,396z"
		/>
	<path class="st6" d="M116.5,385.4c-1.7,0-3-0.5-3.9-1.4c-1.2-1.1-1.8-2.8-1.8-4.9c0-2.2,0.6-3.8,1.8-4.9c0.9-0.9,2.2-1.4,3.9-1.4
		s3,0.5,3.9,1.4c1.2,1.1,1.8,2.7,1.8,4.9c0,2.1-0.6,3.8-1.8,4.9C119.5,384.9,118.2,385.4,116.5,385.4z M118.9,382.2
		c0.6-0.7,0.9-1.8,0.9-3.1s-0.3-2.4-0.9-3.1s-1.4-1.1-2.4-1.1s-1.8,0.4-2.4,1.1c-0.6,0.7-0.9,1.8-0.9,3.1s0.3,2.4,0.9,3.1
		c0.6,0.7,1.4,1.1,2.4,1.1S118.3,382.9,118.9,382.2z"/>
	<path class="st6" d="M128.1,373v1.9c-0.1,0-0.3,0-0.7,0c-0.3,0-0.5,0.1-0.6,0.2c-0.1,0.1-0.2,0.3-0.2,0.5v0.7h1.5v1.6h-1.5v7.1
		h-2.3v-7.1H123v-1.6h1.3v-0.6c0-0.9,0.2-1.6,0.5-2c0.3-0.5,1.1-0.8,2.4-0.8c0.1,0,0.3,0,0.4,0S127.9,373,128.1,373L128.1,373z"/>
	<path class="st6" d="M133.6,373v1.9c-0.1,0-0.3,0-0.7,0c-0.3,0-0.5,0.1-0.6,0.2s-0.2,0.3-0.2,0.5v0.7h1.5v1.6h-1.5v7.1h-2.3v-7.1
		h-1.3v-1.6h1.3v-0.6c0-0.9,0.2-1.6,0.5-2c0.3-0.5,1.1-0.8,2.4-0.8c0.1,0,0.3,0,0.4,0S133.4,373,133.6,373L133.6,373z"/>
	<path class="st6" d="M137.4,373v2.1H135V373H137.4z M137.4,376.2v8.8H135v-8.8H137.4z"/>
	<path class="st6" d="M147.3,379.4h-2.4c0-0.3-0.2-0.6-0.3-0.9c-0.3-0.4-0.7-0.5-1.2-0.5c-0.8,0-1.3,0.4-1.6,1.2
		c-0.2,0.4-0.2,1-0.2,1.6c0,0.6,0.1,1.2,0.2,1.6c0.3,0.7,0.8,1.1,1.6,1.1c0.5,0,0.9-0.1,1.2-0.4s0.4-0.7,0.4-1.1h2.4
		c-0.1,0.7-0.3,1.4-0.8,2c-0.7,1-1.8,1.5-3.2,1.5s-2.5-0.4-3.1-1.3s-1-1.9-1-3.3c0-1.5,0.4-2.7,1.1-3.5c0.7-0.8,1.8-1.3,3.1-1.3
		c1.1,0,2,0.2,2.7,0.7C146.7,377.3,147.2,378.1,147.3,379.4L147.3,379.4z"/>
	<path class="st6" d="M156.5,382.5c-0.1,0.5-0.3,1.1-0.8,1.6c-0.8,0.9-1.8,1.3-3.2,1.3c-1.1,0-2.1-0.4-3-1.1
		c-0.9-0.7-1.3-1.9-1.3-3.5c0-1.5,0.4-2.7,1.2-3.5c0.8-0.8,1.8-1.2,3-1.2c0.7,0,1.4,0.1,2,0.4c0.6,0.3,1.1,0.7,1.5,1.3
		c0.3,0.5,0.6,1.1,0.7,1.8c0.1,0.4,0.1,1,0.1,1.8h-6.1c0,0.9,0.3,1.5,0.8,1.9c0.3,0.2,0.7,0.3,1.2,0.3c0.5,0,0.9-0.1,1.2-0.4
		c0.2-0.1,0.3-0.3,0.4-0.6L156.5,382.5L156.5,382.5z M154.2,379.8c0-0.6-0.2-1.1-0.6-1.4c-0.3-0.3-0.7-0.5-1.2-0.5
		c-0.5,0-1,0.2-1.2,0.5c-0.3,0.3-0.5,0.8-0.6,1.4L154.2,379.8L154.2,379.8z"/>
	<path class="st6" d="M125.4,392.3c-0.3-0.3-0.7-0.5-1.2-0.5c-0.7,0-1.2,0.3-1.4,0.8c-0.1,0.3-0.2,0.8-0.3,1.4h-2.2
		c0-1,0.2-1.8,0.5-2.4c0.6-1.2,1.7-1.8,3.3-1.8c1.2,0,2.2,0.3,3,1c0.7,0.7,1.1,1.6,1.1,2.7c0,0.9-0.3,1.6-0.8,2.3
		c-0.3,0.4-0.9,1-1.7,1.5l-0.9,0.7c-0.6,0.4-1,0.7-1.2,0.9c-0.2,0.2-0.4,0.4-0.5,0.6h5.1v2h-8.1c0-0.8,0.2-1.6,0.5-2.3
		c0.3-0.8,1.1-1.6,2.3-2.5c1.1-0.8,1.8-1.3,2.1-1.6c0.5-0.5,0.7-1.1,0.7-1.7C125.8,393.1,125.7,392.7,125.4,392.3L125.4,392.3z"/>
	<path class="st6" d="M133.4,402c-1.5,0-2.6-0.5-3.2-1.6c-0.6-1.1-0.9-2.5-0.9-4.5s0.3-3.4,0.9-4.5c0.6-1.1,1.7-1.6,3.2-1.6
		s2.6,0.5,3.2,1.6c0.6,1.1,0.9,2.6,0.9,4.5s-0.3,3.4-0.9,4.5C136,401.5,134.9,402,133.4,402z M134.8,399c0.2-0.7,0.3-1.7,0.3-3.1
		c0-1.4-0.1-2.5-0.3-3.1c-0.2-0.7-0.7-1-1.4-1s-1.1,0.3-1.4,1c-0.2,0.7-0.3,1.7-0.3,3.1c0,1.4,0.1,2.4,0.3,3.1
		c0.2,0.7,0.7,1.1,1.4,1.1S134.6,399.8,134.8,399L134.8,399z"/>
	<path class="st6" d="M142.5,395.9c-0.3,0-0.5,0-0.7,0.1c-0.4,0.1-0.6,0.4-0.8,0.7l-2.1-0.1l0.8-6.5h6.5v2h-4.8l-0.4,2.6
		c0.4-0.2,0.6-0.4,0.8-0.5c0.3-0.1,0.7-0.2,1.2-0.2c1,0,1.8,0.3,2.5,1c0.7,0.7,1.1,1.6,1.1,2.9c0,1.1-0.3,2.1-1,2.9
		c-0.7,0.9-1.7,1.3-3.1,1.3c-1.1,0-2-0.3-2.8-0.9s-1.1-1.5-1.2-2.6h2.3c0.1,0.5,0.3,0.9,0.5,1.2c0.3,0.3,0.6,0.4,1.1,0.4
		c0.6,0,1-0.2,1.3-0.6c0.3-0.4,0.4-0.9,0.4-1.5c0-0.6-0.1-1.1-0.4-1.5S143.1,395.9,142.5,395.9L142.5,395.9z"/>
	<path class="st6" d="M479.2,258.1c-1.7,0-3-0.5-3.9-1.4c-1.2-1.1-1.8-2.8-1.8-4.9c0-2.2,0.6-3.8,1.8-4.9c0.9-0.9,2.2-1.4,3.9-1.4
		s3,0.5,3.9,1.4c1.2,1.1,1.8,2.7,1.8,4.9c0,2.1-0.6,3.8-1.8,4.9C482.2,257.6,480.9,258.1,479.2,258.1z M481.5,254.9
		c0.6-0.7,0.9-1.8,0.9-3.1s-0.3-2.4-0.9-3.1s-1.4-1.1-2.4-1.1s-1.8,0.4-2.4,1.1c-0.6,0.7-0.9,1.8-0.9,3.1s0.3,2.4,0.9,3.1
		c0.6,0.7,1.4,1.1,2.4,1.1S481,255.6,481.5,254.9L481.5,254.9z"/>
	<path class="st6" d="M490.8,245.7v1.9c-0.1,0-0.3,0-0.7,0c-0.3,0-0.5,0.1-0.6,0.2s-0.2,0.3-0.2,0.5v0.7h1.5v1.6h-1.5v7.1H487v-7.1
		h-1.3V249h1.3v-0.6c0-0.9,0.2-1.6,0.5-2c0.3-0.5,1.1-0.8,2.4-0.8c0.1,0,0.3,0,0.4,0S490.6,245.7,490.8,245.7L490.8,245.7z"/>
	<path class="st6" d="M496.3,245.7v1.9c-0.1,0-0.3,0-0.7,0c-0.3,0-0.5,0.1-0.6,0.2s-0.2,0.3-0.2,0.5v0.7h1.5v1.6h-1.5v7.1h-2.3v-7.1
		h-1.3V249h1.3v-0.6c0-0.9,0.2-1.6,0.5-2c0.3-0.5,1.1-0.8,2.4-0.8c0.1,0,0.3,0,0.4,0S496.1,245.7,496.3,245.7L496.3,245.7z"/>
	<path class="st6" d="M500.1,245.7v2.1h-2.3v-2.1H500.1z M500.1,248.9v8.8h-2.3v-8.8L500.1,248.9L500.1,248.9z"/>
	<path class="st6" d="M510,252.1h-2.4c0-0.3-0.2-0.6-0.3-0.9c-0.3-0.4-0.7-0.5-1.2-0.5c-0.8,0-1.3,0.4-1.6,1.2
		c-0.2,0.4-0.2,1-0.2,1.6c0,0.6,0.1,1.2,0.2,1.6c0.3,0.7,0.8,1.1,1.6,1.1c0.5,0,0.9-0.1,1.2-0.4s0.4-0.7,0.4-1.1h2.4
		c-0.1,0.7-0.3,1.4-0.8,2c-0.7,1-1.8,1.5-3.2,1.5s-2.5-0.4-3.1-1.3s-1-1.9-1-3.3c0-1.5,0.4-2.7,1.1-3.5c0.7-0.8,1.8-1.3,3.1-1.3
		c1.1,0,2,0.2,2.7,0.7C509.4,249.9,509.8,250.8,510,252.1L510,252.1z"/>
	<path class="st6" d="M519.1,255.1c-0.1,0.5-0.3,1.1-0.8,1.6c-0.8,0.9-1.8,1.3-3.2,1.3c-1.1,0-2.1-0.4-3-1.1
		c-0.9-0.7-1.3-1.9-1.3-3.5c0-1.5,0.4-2.7,1.2-3.5c0.8-0.8,1.8-1.2,3-1.2c0.7,0,1.4,0.1,2,0.4c0.6,0.3,1.1,0.7,1.5,1.3
		c0.3,0.5,0.6,1.1,0.7,1.8c0.1,0.4,0.1,1,0.1,1.8h-6.1c0,0.9,0.3,1.5,0.8,1.9c0.3,0.2,0.7,0.3,1.2,0.3c0.5,0,0.9-0.1,1.2-0.4
		c0.2-0.1,0.3-0.3,0.4-0.6L519.1,255.1L519.1,255.1z M516.9,252.4c0-0.6-0.2-1.1-0.6-1.4c-0.3-0.3-0.7-0.5-1.2-0.5
		c-0.5,0-1,0.2-1.2,0.5c-0.3,0.3-0.5,0.8-0.6,1.4L516.9,252.4L516.9,252.4z"/>
	<path class="st6" d="M488.1,265c-0.3-0.3-0.7-0.5-1.2-0.5c-0.7,0-1.2,0.3-1.4,0.8c-0.1,0.3-0.2,0.8-0.3,1.4H483
		c0-1,0.2-1.8,0.5-2.4c0.6-1.2,1.7-1.8,3.3-1.8c1.2,0,2.2,0.3,3,1c0.7,0.7,1.1,1.6,1.1,2.7c0,0.9-0.3,1.6-0.8,2.3
		c-0.3,0.4-0.9,1-1.7,1.5l-0.9,0.7c-0.6,0.4-1,0.7-1.2,0.9c-0.2,0.2-0.4,0.4-0.5,0.6h5.1v2h-8.1c0-0.8,0.2-1.6,0.5-2.3
		c0.3-0.8,1.1-1.6,2.3-2.5c1.1-0.8,1.8-1.3,2.1-1.6c0.5-0.5,0.7-1.1,0.7-1.7C488.5,265.7,488.4,265.3,488.1,265L488.1,265z"/>
	<path class="st6" d="M496.1,274.7c-1.5,0-2.6-0.5-3.2-1.6c-0.6-1.1-0.9-2.5-0.9-4.5s0.3-3.4,0.9-4.5c0.6-1.1,1.7-1.6,3.2-1.6
		s2.6,0.5,3.2,1.6c0.6,1.1,0.9,2.6,0.9,4.5s-0.3,3.4-0.9,4.5C498.7,274.1,497.6,274.7,496.1,274.7z M497.5,271.7
		c0.2-0.7,0.3-1.7,0.3-3.1c0-1.4-0.1-2.5-0.3-3.1c-0.2-0.7-0.7-1-1.4-1s-1.1,0.3-1.4,1c-0.2,0.7-0.3,1.7-0.3,3.1
		c0,1.4,0.1,2.4,0.3,3.1c0.2,0.7,0.7,1.1,1.4,1.1S497.3,272.4,497.5,271.7L497.5,271.7z"/>
	<path class="st6" d="M505.9,266.7c1,0,1.9,0.4,2.6,1.1c0.7,0.7,1,1.6,1,2.7s-0.3,2.1-1,2.9s-1.7,1.3-3.1,1.3
		c-1.5,0-2.6-0.6-3.3-1.9c-0.5-1-0.8-2.2-0.8-3.8c0-0.9,0-1.6,0.1-2.2c0.1-1,0.4-1.8,0.8-2.5c0.3-0.6,0.8-1,1.3-1.4
		c0.5-0.3,1.2-0.5,2-0.5c1.1,0,2,0.3,2.6,0.8c0.6,0.6,1,1.3,1.1,2.2h-2.3c0-0.2-0.1-0.4-0.2-0.6c-0.2-0.4-0.6-0.6-1.1-0.6
		c-0.8,0-1.3,0.4-1.6,1.3c-0.2,0.5-0.3,1.2-0.4,2.1c0.3-0.3,0.6-0.6,1-0.7C505,266.8,505.4,266.7,505.9,266.7L505.9,266.7z
		 M504.3,268.9c-0.5,0.4-0.7,0.9-0.7,1.7c0,0.6,0.2,1.1,0.5,1.6c0.3,0.4,0.8,0.6,1.3,0.6c0.5,0,0.9-0.2,1.2-0.6s0.4-0.9,0.4-1.5
		c0-0.7-0.2-1.2-0.5-1.6s-0.7-0.5-1.2-0.5C505,268.6,504.6,268.7,504.3,268.9L504.3,268.9z"/>
	<path class="st6" d="M116.5,259.5c-1.7,0-3-0.5-3.9-1.4c-1.2-1.1-1.8-2.8-1.8-4.9c0-2.2,0.6-3.8,1.8-4.9c0.9-0.9,2.2-1.4,3.9-1.4
		s3,0.5,3.9,1.4c1.2,1.1,1.8,2.7,1.8,4.9c0,2.1-0.6,3.8-1.8,4.9C119.5,259,118.2,259.5,116.5,259.5z M118.9,256.2
		c0.6-0.7,0.9-1.8,0.9-3.1s-0.3-2.4-0.9-3.1s-1.4-1.1-2.4-1.1s-1.8,0.4-2.4,1.1c-0.6,0.7-0.9,1.8-0.9,3.1s0.3,2.4,0.9,3.1
		c0.6,0.7,1.4,1.1,2.4,1.1S118.3,257,118.9,256.2L118.9,256.2z"/>
	<path class="st6" d="M128.1,247.1v1.9c-0.1,0-0.3,0-0.7,0c-0.3,0-0.5,0.1-0.6,0.2c-0.1,0.1-0.2,0.3-0.2,0.5v0.7h1.5v1.6h-1.5v7.1
		h-2.3V252H123v-1.6h1.3v-0.6c0-0.9,0.2-1.6,0.5-2c0.3-0.5,1.1-0.8,2.4-0.8c0.1,0,0.3,0,0.4,0S127.9,247.1,128.1,247.1L128.1,247.1z
		"/>
	<path class="st6" d="M133.6,247.1v1.9c-0.1,0-0.3,0-0.7,0c-0.3,0-0.5,0.1-0.6,0.2s-0.2,0.3-0.2,0.5v0.7h1.5v1.6h-1.5v7.1h-2.3V252
		h-1.3v-1.6h1.3v-0.6c0-0.9,0.2-1.6,0.5-2c0.3-0.5,1.1-0.8,2.4-0.8c0.1,0,0.3,0,0.4,0S133.4,247.1,133.6,247.1L133.6,247.1z"/>
	<path class="st6" d="M137.4,247.1v2.1H135v-2.1H137.4z M137.4,250.3v8.8H135v-8.8H137.4z"/>
	<path class="st6" d="M147.3,253.5h-2.4c0-0.3-0.2-0.6-0.3-0.9c-0.3-0.4-0.7-0.5-1.2-0.5c-0.8,0-1.3,0.4-1.6,1.2
		c-0.2,0.4-0.2,1-0.2,1.6c0,0.6,0.1,1.2,0.2,1.6c0.3,0.7,0.8,1.1,1.6,1.1c0.5,0,0.9-0.1,1.2-0.4s0.4-0.7,0.4-1.1h2.4
		c-0.1,0.7-0.3,1.4-0.8,2c-0.7,1-1.8,1.5-3.2,1.5s-2.5-0.4-3.1-1.3s-1-1.9-1-3.3c0-1.5,0.4-2.7,1.1-3.5c0.7-0.8,1.8-1.3,3.1-1.3
		c1.1,0,2,0.2,2.7,0.7C146.7,251.3,147.2,252.2,147.3,253.5L147.3,253.5z"/>
	<path class="st6" d="M156.5,256.5c-0.1,0.5-0.3,1.1-0.8,1.6c-0.8,0.9-1.8,1.3-3.2,1.3c-1.1,0-2.1-0.4-3-1.1
		c-0.9-0.7-1.3-1.9-1.3-3.5c0-1.5,0.4-2.7,1.2-3.5c0.8-0.8,1.8-1.2,3-1.2c0.7,0,1.4,0.1,2,0.4c0.6,0.3,1.1,0.7,1.5,1.3
		c0.3,0.5,0.6,1.1,0.7,1.8c0.1,0.4,0.1,1,0.1,1.8h-6.1c0,0.9,0.3,1.5,0.8,1.9c0.3,0.2,0.7,0.3,1.2,0.3c0.5,0,0.9-0.1,1.2-0.4
		c0.2-0.1,0.3-0.3,0.4-0.6L156.5,256.5L156.5,256.5z M154.2,253.8c0-0.6-0.2-1.1-0.6-1.4c-0.3-0.3-0.7-0.5-1.2-0.5
		c-0.5,0-1,0.2-1.2,0.5c-0.3,0.3-0.5,0.8-0.6,1.4L154.2,253.8L154.2,253.8z"/>
	<path class="st6" d="M125.4,266.4c-0.3-0.3-0.7-0.5-1.2-0.5c-0.7,0-1.2,0.3-1.4,0.8c-0.1,0.3-0.2,0.8-0.3,1.4h-2.2
		c0-1,0.2-1.8,0.5-2.4c0.6-1.2,1.7-1.8,3.3-1.8c1.2,0,2.2,0.3,3,1c0.7,0.7,1.1,1.6,1.1,2.7c0,0.9-0.3,1.6-0.8,2.3
		c-0.3,0.4-0.9,1-1.7,1.5l-0.9,0.7c-0.6,0.4-1,0.7-1.2,0.9c-0.2,0.2-0.4,0.4-0.5,0.6h5.1v2h-8.1c0-0.8,0.2-1.6,0.5-2.3
		c0.3-0.8,1.1-1.6,2.3-2.5c1.1-0.8,1.8-1.3,2.1-1.6c0.5-0.5,0.7-1.1,0.7-1.7C125.8,267.1,125.7,266.7,125.4,266.4L125.4,266.4z"/>
	<path class="st6" d="M133.4,276c-1.5,0-2.6-0.5-3.2-1.6c-0.6-1.1-0.9-2.5-0.9-4.5s0.3-3.4,0.9-4.5c0.6-1.1,1.7-1.6,3.2-1.6
		s2.6,0.5,3.2,1.6c0.6,1.1,0.9,2.6,0.9,4.5s-0.3,3.4-0.9,4.5C136,275.5,134.9,276,133.4,276z M134.8,273.1c0.2-0.7,0.3-1.7,0.3-3.1
		c0-1.4-0.1-2.5-0.3-3.1c-0.2-0.7-0.7-1-1.4-1s-1.1,0.3-1.4,1c-0.2,0.7-0.3,1.7-0.3,3.1c0,1.4,0.1,2.4,0.3,3.1
		c0.2,0.7,0.7,1.1,1.4,1.1S134.6,273.8,134.8,273.1L134.8,273.1z"/>
	<path class="st6" d="M145.4,267.8c-0.6,0.9-1.1,1.8-1.6,2.7c-0.3,0.7-0.6,1.6-0.9,2.7c-0.3,1.1-0.4,1.9-0.4,2.6h-2.4
		c0.1-2.1,0.8-4.3,2.1-6.6c0.9-1.4,1.6-2.4,2.1-3h-5.9l0-2.1h8.3v1.8C146.5,266.3,146.1,266.9,145.4,267.8L145.4,267.8z"/>
	<path class="st6" d="M512,127.4c-1.7,0-3-0.5-3.9-1.4c-1.2-1.1-1.8-2.8-1.8-4.9c0-2.2,0.6-3.8,1.8-4.9c0.9-0.9,2.2-1.4,3.9-1.4
		c1.7,0,3,0.5,3.9,1.4c1.2,1.1,1.8,2.7,1.8,4.9c0,2.1-0.6,3.8-1.8,4.9C515,126.9,513.7,127.4,512,127.4z M514.4,124.2
		c0.6-0.7,0.9-1.8,0.9-3.1s-0.3-2.4-0.9-3.1s-1.4-1.1-2.4-1.1s-1.8,0.4-2.4,1.1c-0.6,0.7-0.9,1.8-0.9,3.1s0.3,2.4,0.9,3.1
		c0.6,0.7,1.4,1.1,2.4,1.1S513.8,124.9,514.4,124.2L514.4,124.2z"/>
	<path class="st6" d="M523.6,115v1.9c-0.1,0-0.3,0-0.7,0c-0.3,0-0.5,0.1-0.6,0.2c-0.1,0.1-0.2,0.3-0.2,0.5v0.7h1.5v1.6h-1.5v7.1
		h-2.3v-7.1h-1.3v-1.6h1.3v-0.6c0-0.9,0.2-1.6,0.5-2c0.3-0.5,1.1-0.8,2.4-0.8c0.1,0,0.3,0,0.4,0S523.4,115,523.6,115L523.6,115z"/>
	<path class="st6" d="M529.1,115v1.9c-0.1,0-0.3,0-0.7,0c-0.3,0-0.5,0.1-0.6,0.2c-0.1,0.1-0.2,0.3-0.2,0.5v0.7h1.5v1.6h-1.5v7.1
		h-2.3v-7.1h-1.3v-1.6h1.3v-0.6c0-0.9,0.2-1.6,0.5-2c0.3-0.5,1.1-0.8,2.4-0.8c0.1,0,0.3,0,0.4,0S528.9,115,529.1,115L529.1,115z"/>
	<path class="st6" d="M532.9,115v2.1h-2.3V115H532.9z M532.9,118.2v8.8h-2.3v-8.8H532.9z"/>
	<path class="st6" d="M542.8,121.4h-2.4c0-0.3-0.2-0.6-0.3-0.9c-0.3-0.4-0.7-0.5-1.2-0.5c-0.8,0-1.3,0.4-1.6,1.2
		c-0.2,0.4-0.2,1-0.2,1.6c0,0.6,0.1,1.2,0.2,1.6c0.3,0.7,0.8,1.1,1.6,1.1c0.5,0,0.9-0.1,1.2-0.4s0.4-0.7,0.4-1.1h2.4
		c-0.1,0.7-0.3,1.4-0.8,2c-0.7,1-1.8,1.5-3.2,1.5s-2.5-0.4-3.1-1.3s-1-1.9-1-3.3c0-1.5,0.4-2.7,1.1-3.5c0.7-0.8,1.8-1.3,3.1-1.3
		c1.1,0,2,0.2,2.7,0.7C542.3,119.2,542.7,120.1,542.8,121.4L542.8,121.4z"/>
	<path class="st6" d="M552,124.5c-0.1,0.5-0.3,1.1-0.8,1.6c-0.8,0.9-1.8,1.3-3.2,1.3c-1.1,0-2.1-0.4-3-1.1c-0.9-0.7-1.3-1.9-1.3-3.5
		c0-1.5,0.4-2.7,1.2-3.5c0.8-0.8,1.8-1.2,3-1.2c0.7,0,1.4,0.1,2,0.4c0.6,0.3,1.1,0.7,1.5,1.3c0.3,0.5,0.6,1.1,0.7,1.8
		c0.1,0.4,0.1,1,0.1,1.8H546c0,0.9,0.3,1.5,0.8,1.9c0.3,0.2,0.7,0.3,1.2,0.3c0.5,0,0.9-0.1,1.2-0.4c0.2-0.1,0.3-0.3,0.4-0.6
		L552,124.5L552,124.5z M549.7,121.7c0-0.6-0.2-1.1-0.6-1.4c-0.3-0.3-0.7-0.5-1.2-0.5c-0.5,0-1,0.2-1.2,0.5
		c-0.3,0.3-0.5,0.8-0.6,1.4L549.7,121.7L549.7,121.7z"/>
	<path class="st6" d="M520.9,134.3c-0.3-0.3-0.7-0.5-1.2-0.5c-0.7,0-1.2,0.3-1.4,0.8c-0.1,0.3-0.2,0.8-0.3,1.4h-2.2
		c0-1,0.2-1.8,0.5-2.4c0.6-1.2,1.7-1.8,3.3-1.8c1.2,0,2.2,0.3,3,1c0.7,0.7,1.1,1.6,1.1,2.7c0,0.9-0.3,1.6-0.8,2.3
		c-0.3,0.4-0.9,0.9-1.7,1.5l-0.9,0.7c-0.6,0.4-1,0.7-1.2,0.9c-0.2,0.2-0.4,0.4-0.5,0.6h5.1v2h-8.1c0-0.8,0.2-1.6,0.5-2.3
		c0.3-0.8,1.1-1.6,2.3-2.5c1.1-0.8,1.8-1.3,2.1-1.6c0.5-0.5,0.7-1.1,0.7-1.7C521.3,135,521.2,134.6,520.9,134.3L520.9,134.3z"/>
	<path class="st6" d="M529,144c-1.5,0-2.6-0.5-3.2-1.6c-0.6-1.1-0.9-2.5-0.9-4.5s0.3-3.4,0.9-4.5c0.6-1.1,1.7-1.6,3.2-1.6
		s2.6,0.5,3.2,1.6c0.6,1.1,0.9,2.6,0.9,4.5s-0.3,3.4-0.9,4.5C531.5,143.4,530.5,144,529,144L529,144z M530.3,141
		c0.2-0.7,0.3-1.7,0.3-3.1c0-1.4-0.1-2.5-0.3-3.1c-0.2-0.7-0.7-1-1.4-1s-1.1,0.3-1.4,1c-0.2,0.7-0.3,1.7-0.3,3.1
		c0,1.4,0.1,2.4,0.3,3.1c0.2,0.7,0.7,1.1,1.4,1.1S530.1,141.7,530.3,141L530.3,141z"/>
	<path class="st6" d="M535.1,142.9c-0.7-0.7-1-1.5-1-2.5c0-0.7,0.2-1.3,0.5-1.8c0.3-0.5,0.7-0.9,1.3-1.2c-0.6-0.4-0.9-0.8-1.1-1.2
		c-0.2-0.4-0.3-0.9-0.3-1.2c0-0.9,0.3-1.6,1-2.2c0.6-0.6,1.6-0.9,2.7-0.9s2.1,0.3,2.7,0.9c0.6,0.6,1,1.3,1,2.2
		c0,0.4-0.1,0.8-0.3,1.2c-0.2,0.4-0.5,0.8-1.1,1.1c0.6,0.3,1,0.8,1.3,1.3c0.3,0.5,0.4,1.1,0.4,1.8c0,1-0.4,1.8-1.1,2.5s-1.8,1-3.1,1
		S535.8,143.6,535.1,142.9L535.1,142.9z M536.5,140.3c0,0.6,0.1,1,0.5,1.3s0.7,0.5,1.2,0.5s0.9-0.2,1.2-0.5c0.3-0.3,0.5-0.8,0.5-1.3
		c0-0.6-0.2-1.1-0.5-1.4c-0.3-0.3-0.7-0.5-1.2-0.5s-0.9,0.2-1.2,0.5C536.6,139.2,536.5,139.7,536.5,140.3z M537.1,136.2
		c0.3,0.3,0.6,0.4,1.1,0.4c0.5,0,0.8-0.1,1.1-0.4c0.3-0.3,0.4-0.6,0.4-1c0-0.5-0.1-0.8-0.4-1.1s-0.6-0.4-1.1-0.4
		c-0.5,0-0.8,0.1-1.1,0.4s-0.4,0.6-0.4,1.1C536.7,135.6,536.8,136,537.1,136.2L537.1,136.2z"/>
	<path class="st6" d="M116.5,128.8c-1.7,0-3-0.5-3.9-1.4c-1.2-1.1-1.8-2.8-1.8-4.9c0-2.2,0.6-3.8,1.8-4.9c0.9-0.9,2.2-1.4,3.9-1.4
		s3,0.5,3.9,1.4c1.2,1.1,1.8,2.7,1.8,4.9c0,2.1-0.6,3.8-1.8,4.9C119.5,128.3,118.2,128.8,116.5,128.8z M118.9,125.6
		c0.6-0.7,0.9-1.8,0.9-3.1s-0.3-2.4-0.9-3.1s-1.4-1.1-2.4-1.1s-1.8,0.4-2.4,1.1c-0.6,0.7-0.9,1.8-0.9,3.1s0.3,2.4,0.9,3.1
		c0.6,0.7,1.4,1.1,2.4,1.1S118.3,126.3,118.9,125.6z"/>
	<path class="st6" d="M128.1,116.4v1.9c-0.1,0-0.3,0-0.7,0c-0.3,0-0.5,0.1-0.6,0.2c-0.1,0.1-0.2,0.3-0.2,0.5v0.7h1.5v1.6h-1.5v7.1
		h-2.3v-7.1H123v-1.6h1.3v-0.6c0-0.9,0.2-1.6,0.5-2c0.3-0.5,1.1-0.8,2.4-0.8c0.1,0,0.3,0,0.4,0S127.9,116.4,128.1,116.4L128.1,116.4
		z"/>
	<path class="st6" d="M133.6,116.4v1.9c-0.1,0-0.3,0-0.7,0c-0.3,0-0.5,0.1-0.6,0.2c-0.1,0.1-0.2,0.3-0.2,0.5v0.7h1.5v1.6h-1.5v7.1
		h-2.3v-7.1h-1.3v-1.6h1.3v-0.6c0-0.9,0.2-1.6,0.5-2c0.3-0.5,1.1-0.8,2.4-0.8c0.1,0,0.3,0,0.4,0S133.4,116.4,133.6,116.4
		L133.6,116.4z"/>
	<path class="st6" d="M137.4,116.4v2.1H135v-2.1H137.4z M137.4,119.6v8.8H135v-8.8H137.4z"/>
	<path class="st6" d="M147.3,122.8h-2.4c0-0.3-0.2-0.6-0.3-0.9c-0.3-0.4-0.7-0.5-1.2-0.5c-0.8,0-1.3,0.4-1.6,1.2
		c-0.2,0.4-0.2,1-0.2,1.6c0,0.6,0.1,1.2,0.2,1.6c0.3,0.7,0.8,1.1,1.6,1.1c0.5,0,0.9-0.1,1.2-0.4s0.4-0.7,0.4-1.1h2.4
		c-0.1,0.7-0.3,1.4-0.8,2c-0.7,1-1.8,1.5-3.2,1.5s-2.5-0.4-3.1-1.3s-1-1.9-1-3.3c0-1.5,0.4-2.7,1.1-3.5c0.7-0.8,1.8-1.3,3.1-1.3
		c1.1,0,2,0.2,2.7,0.7C146.7,120.6,147.2,121.5,147.3,122.8L147.3,122.8z"/>
	<path class="st6" d="M156.5,125.8c-0.1,0.5-0.3,1.1-0.8,1.6c-0.8,0.9-1.8,1.3-3.2,1.3c-1.1,0-2.1-0.4-3-1.1
		c-0.9-0.7-1.3-1.9-1.3-3.5c0-1.5,0.4-2.7,1.2-3.5c0.8-0.8,1.8-1.2,3-1.2c0.7,0,1.4,0.1,2,0.4c0.6,0.3,1.1,0.7,1.5,1.3
		c0.3,0.5,0.6,1.1,0.7,1.8c0.1,0.4,0.1,1,0.1,1.8h-6.1c0,0.9,0.3,1.5,0.8,1.9c0.3,0.2,0.7,0.3,1.2,0.3c0.5,0,0.9-0.1,1.2-0.4
		c0.2-0.1,0.3-0.3,0.4-0.6L156.5,125.8L156.5,125.8z M154.2,123.1c0-0.6-0.2-1.1-0.6-1.4c-0.3-0.3-0.7-0.5-1.2-0.5
		c-0.5,0-1,0.2-1.2,0.5c-0.3,0.3-0.5,0.8-0.6,1.4L154.2,123.1L154.2,123.1z"/>
	<path class="st6" d="M125.4,135.7c-0.3-0.3-0.7-0.5-1.2-0.5c-0.7,0-1.2,0.3-1.4,0.8c-0.1,0.3-0.2,0.8-0.3,1.4h-2.2
		c0-1,0.2-1.8,0.5-2.4c0.6-1.2,1.7-1.8,3.3-1.8c1.2,0,2.2,0.3,3,1c0.7,0.7,1.1,1.6,1.1,2.7c0,0.9-0.3,1.6-0.8,2.3
		c-0.3,0.4-0.9,0.9-1.7,1.5l-0.9,0.7c-0.6,0.4-1,0.7-1.2,0.9c-0.2,0.2-0.4,0.4-0.5,0.6h5.1v2h-8.1c0-0.8,0.2-1.6,0.5-2.3
		c0.3-0.8,1.1-1.6,2.3-2.5c1.1-0.8,1.8-1.3,2.1-1.6c0.5-0.5,0.7-1.1,0.7-1.7C125.8,136.4,125.7,136,125.4,135.7L125.4,135.7z"/>
	<path class="st6" d="M133.4,145.4c-1.5,0-2.6-0.5-3.2-1.6c-0.6-1.1-0.9-2.5-0.9-4.5s0.3-3.4,0.9-4.5c0.6-1.1,1.7-1.6,3.2-1.6
		s2.6,0.5,3.2,1.6c0.6,1.1,0.9,2.6,0.9,4.5s-0.3,3.4-0.9,4.5C136,144.8,134.9,145.4,133.4,145.4z M134.8,142.4
		c0.2-0.7,0.3-1.7,0.3-3.1c0-1.4-0.1-2.5-0.3-3.1c-0.2-0.7-0.7-1-1.4-1s-1.1,0.3-1.4,1c-0.2,0.7-0.3,1.7-0.3,3.1
		c0,1.4,0.1,2.4,0.3,3.1c0.2,0.7,0.7,1.1,1.4,1.1S134.6,143.1,134.8,142.4L134.8,142.4z"/>
	<path class="st6" d="M142.4,145.4c-0.9,0-1.7-0.3-2.4-0.8c-0.7-0.5-1.1-1.3-1.2-2.3h2.3c0.1,0.3,0.2,0.6,0.4,0.8
		c0.2,0.2,0.6,0.3,0.9,0.3c0.8,0,1.3-0.4,1.6-1.3c0.2-0.5,0.3-1.1,0.3-2c-0.2,0.3-0.4,0.5-0.7,0.6c-0.4,0.3-1,0.4-1.6,0.4
		c-0.9,0-1.8-0.3-2.5-1c-0.7-0.6-1.1-1.6-1.1-2.8c0-1.3,0.4-2.3,1.1-3.1c0.7-0.8,1.7-1.2,2.8-1.2c1.8,0,3,0.8,3.7,2.4
		c0.4,0.9,0.6,2.1,0.6,3.5c0,1.4-0.2,2.6-0.5,3.6C145.6,144.5,144.3,145.4,142.4,145.4L142.4,145.4z M141.6,135.5
		c-0.4,0.3-0.7,0.9-0.7,1.8c0,0.7,0.1,1.2,0.4,1.6c0.3,0.4,0.7,0.5,1.3,0.5c0.3,0,0.6-0.1,0.9-0.3c0.5-0.3,0.8-0.9,0.8-1.7
		c0-0.7-0.2-1.2-0.5-1.6c-0.3-0.4-0.7-0.6-1.3-0.6C142.2,135.1,141.9,135.2,141.6,135.5L141.6,135.5z"/>
</g>
<g id="Stroke">
	<polyline class="st14" points="62.1,195 202.1,195 202.1,127.7 	"/>
	<line class="st14" x1="202.1" y1="84.6" x2="202.1" y2="62.1"/>
	<line class="st14" x1="454.3" y1="62.1" x2="454.3" y2="87.7"/>
	<polyline class="st14" points="454.3,131.7 454.3,195 428.6,195 428.6,204.8 428.6,195 590.3,195 	"/>
	<polyline class="st14" points="428.6,243.6 428.6,321.9 401.8,321.9 401.8,328.1 401.8,321.9 559.8,321.9 	"/>
	<polyline class="st14" points="202.1,238.5 202.1,330.4 202.1,324.1 64.9,324.1 	"/>
	<polyline class="st14" points="202.1,366.4 202.1,458.9 202.1,449.8 64.9,449.8 	"/>
	<polyline class="st14" points="202.1,493.2 202.1,584 202.1,575.4 62.5,575.4 	"/>
	<polyline class="st14" points="202.1,620.5 202.1,718.1 202.1,703.3 60.7,703.3 	"/>
	<polyline class="st14" points="202.1,757 202.1,958.7 202.1,807.8 233.3,807.8 	"/>
	<polyline class="st14" points="275.6,807.2 441.9,807.2 352.1,807.2 352.1,792.4 	"/>
	<polyline class="st14" points="352.1,749.6 352.1,701 468.1,701 352.1,701 352.1,623.4 	"/>
	<polyline class="st14" points="352.1,584 352.1,575.4 500,575.4 376.1,575.4 376.1,493.2 	"/>
	<polyline class="st14" points="376.7,456.6 376.7,446.9 529,446.9 401.8,446.9 401.8,370.4 	"/>
	<polygon class="st15" points="622.7,60.8 62.5,60.8 62.5,958.7 405.9,958.7 	"/>
</g>
</svg>
