<?xml version="1.0" encoding="UTF-8"?><svg id="Layer_1" xmlns="http://www.w3.org/2000/svg" viewBox="0 0 699.75 715.938"><defs><style>.cls-1{stroke-width:.381px;}.cls-1,.cls-2,.cls-3,.cls-4,.cls-5,.cls-6,.cls-7,.cls-8{fill:none;stroke-miterlimit:10;}.cls-1,.cls-2,.cls-8{stroke:#7a8d92;}.cls-2{stroke-width:.385px;}.cls-9{fill:#030303;opacity:.05;}.cls-9,.cls-10,.cls-11{isolation:isolate;}.cls-9,.cls-10,.cls-11,.cls-12,.cls-13,.cls-14,.cls-15,.cls-16,.cls-17,.cls-18,.cls-19,.cls-20,.cls-21{stroke-width:0px;}.cls-3{stroke:#efeff0;stroke-width:3px;}.cls-10{fill:#010101;opacity:.15;}.cls-4{stroke:#dadcdc;stroke-width:.278px;}.cls-5{stroke-width:.411px;}.cls-5,.cls-6{stroke:#7e8a8f;}.cls-6{stroke-width:.413px;}.cls-7{stroke:#ededed;stroke-width:5px;}.cls-8{stroke-width:.263px;}.cls-11{fill:#575757;opacity:.74;}.cls-12{fill:#767e7f;}.cls-13{fill:#596068;}.cls-14{fill:#99b8bf;}.cls-15{fill:#9baeb7;}.cls-16{fill:#4196b1;}.cls-17{fill:#a8e0e5;}.cls-18{fill:#b8bfc1;}.cls-19{fill:#8eccce;}.cls-20{fill:#fff;}.cls-21{fill:#eaf1f1;}</style></defs><g id="background"><path class="cls-16" d="M1.933,105.645c9.471,25.356,22.023,49.452,37.373,71.745,25.2,36.4,57.9,70.7,57.9,70.7,0,0,37,32.2,42.3,40.2s23,30.5,33.8,63.2l8,28.4c-25.127,5.611-49.197,15.198-71.3,28.4-24.552,14.842-51.374,22.06-51.374,22.06l.389,22.06s14.361,49.1,77.785,124.68c0,0,34.3,42.9,104,84.1,69.7,41.2,173.1,52,173.1,52,0,0,68.1,4.8,119-7.5,50.9-12.3,89.5-27.9,121.1-46.1s41.072-26.365,41.072-26.365l4.428-22.379s-27.148-44.751-38-60.66c-16.1-23.6-20.9-34.8-48.2-61.6l-27.3-26.8s-36.4-26.8-56.3-77.2l-10.2-38.1s71.376-21.64,111.1-55.08l10.524-21.435-2.126-5.485s-16.1-49.3-54.7-92.7-54.7-71.6-123.8-105.3-95.9-42.9-151.1-52.5c0,0-97-12.3-171.5,13.9C67.477,52.658,1.131,87.331,1.131,87.331c0,0,.802,18.314.802,18.314Z"/><path class="cls-17" d="M5.4,87.234s15.2,43.3,40,79.2c24.8,35.9,56.9,69.6,56.9,69.6,0,0,36.4,31.6,41.6,39.5s22.7,30,33.2,62.2l7.9,27.9c-24.677,5.594-48.328,15.008-70.1,27.9-34.8,21.1-52.2,36.4-52.2,36.4,0,0,12.6,54.8,78.5,129.6,0,0,33.7,42.2,102.2,82.7,68.5,40.5,170.2,51.1,170.2,51.1,0,0,66.9,4.7,117-7.4,50.1-12.1,88-27.4,119.1-45.3s48-31.6,48-31.6c0,0-24.8-52.7-40.6-75.9s-20.6-34.3-47.4-60.6l-26.9-26.3s-35.8-26.3-55.3-75.9l-10-37.4s86.4-31.1,122.2-64.8l-4.7-15.8s-15.8-48.5-53.7-91.2-53.7-70.6-121.7-103.8S365.3,15.134,311,5.734c0,0-95.4-12.1-168.6,13.7C69.2,45.234,35.5,62.334,5.4,87.234Z"/></g><g id="spaces"><path class="cls-19" d="M279.8,482.034l20.4,13.1,18.4,11.9,29,13.9-17.1,42.5-45-22.5-14.7-10.7s-4.8-1-3-9,5.2-19.8,5.2-19.8l6.8-19.4h0Z"/><polygon class="cls-14" points="382.946 527.285 348.071 516.073 347.6 520.934 279.8 482.034 284.758 450.836 285.219 406.248 249.309 177.849 246.39 136.505 248.418 119.676 255.386 112.5 266.932 112.502 325.753 121.329 390.303 144.261 425.264 166.167 428.505 175.31 425.139 185.626 412.232 233.586 410.503 261.766 414.521 312.001 433.485 408.92 368.192 418.232 382.946 527.285"/><polygon class="cls-19" points="370.4 609.835 292.342 579.364 256.02 649.548 314 672.335 353.1 682.734 370.4 609.835"/><polygon class="cls-19" points="530.662 682.734 517.18 623.908 503.289 626.972 484.495 631.661 450.994 632.649 415.518 631.6 366.105 627.538 353.1 682.734 405.179 694.232 437.524 694.184 482.598 692.914 530.662 682.734"/><polygon class="cls-19" points="531.275 528.582 493.402 499.89 565.932 431.737 594.209 460.723 531.275 528.582"/><polygon class="cls-19" points="391.035 441.128 437.524 434.731 445.225 501.823 435.05 512.626 427.704 516.313 417.864 515.972 401.615 507.787 391.035 441.128"/><polygon class="cls-19" points="399.898 578.666 404.664 548.983 406.168 536.472 447.924 539.074 449.446 573.637 447.153 579.364 437.524 583.016 399.898 578.666"/><polygon class="cls-19" points="594.209 460.723 632.898 501.823 696.05 607.994 653.186 637.546 575.651 673.181 530.662 682.734 513.984 611.461 510.225 591.055 514.58 556.469 531.275 528.582 594.209 460.723"/><polygon class="cls-19" points="376.576 576.052 349.495 566.689 358.084 541.194 384.205 548.701 376.576 576.052"/></g><g id="furniture"><path class="cls-9" d="M426.965,652.633l-.866,24.954c-.025.574-.511,1.02-1.085.995l-7.162-.311c-.574-.025-1.02-.511-.995-1.085l.866-24.954c.025-.574.511-1.02,1.085-.995l7.162.311c.574.025,1.02.511.995,1.085Z"/><path class="cls-18" d="M427.109,652.025l-.866,24.954c-.025.574-.511,1.02-1.085.995l-7.162-.311c-.574-.025-1.02-.511-.995-1.085l.866-24.954c.025-.574.511-1.02,1.085-.995l7.162.311c.574.025,1.02.511.995,1.085Z"/><path class="cls-20" d="M427.109,651.381l-.866,24.954c-.025.574-.511,1.02-1.085.995l-7.162-.311c-.574-.025-1.02-.511-.995-1.085l.866-24.954c.025-.574.511-1.02,1.085-.995l7.162.311c.574.025,1.02.511.995,1.085Z"/><path class="cls-10" d="M428.214,665.898l-.036-4c-.005-.526.403-.964.928-.996l5.266-.322c.58-.035,1.065.434,1.049,1.014l-.135,4.877c-.016.577-.521,1.018-1.095.955l-5.095-.555c-.498-.054-.877-.473-.882-.974Z"/><path class="cls-13" d="M428.48,665.619l-.036-4c-.005-.526.403-.964.928-.996l5.266-.322c.58-.035,1.065.434,1.049,1.014l-.135,4.877c-.016.577-.521,1.018-1.095.955l-5.095-.555c-.498-.054-.877-.473-.882-.974Z"/><path class="cls-15" d="M428.701,665.404l-.036-4c-.005-.526.403-.964.928-.996l5.266-.322c.58-.035,1.065.434,1.049,1.014l-.135,4.877c-.016.577-.521,1.018-1.095.955l-5.095-.555c-.498-.054-.877-.473-.882-.974Z"/><path class="cls-9" d="M464.209,652.008l.21,24.969c0,.575-.466,1.041-1.041,1.041l-7.168-.002c-.575,0-1.041-.466-1.041-1.041l-.21-24.969c0-.575.466-1.041,1.041-1.041l7.168.002c.575,0,1.041.466,1.041,1.041Z"/><path class="cls-18" d="M464.327,651.394l.21,24.969c0,.575-.466,1.041-1.041,1.041l-7.168-.002c-.575,0-1.041-.466-1.041-1.041l-.21-24.969c0-.575.466-1.041,1.041-1.041l7.168.002c.575,0,1.041.466,1.041,1.041Z"/><path class="cls-20" d="M464.299,650.75l.21,24.969c0,.575-.466,1.041-1.041,1.041l-7.168-.002c-.575,0-1.041-.466-1.041-1.041l-.21-24.969c0-.575.466-1.041,1.041-1.041l7.168.002c.575,0,1.041.466,1.041,1.041Z"/><path class="cls-10" d="M466.029,665.207l-.208-3.995c-.027-.525.361-.98.885-1.035l5.248-.549c.578-.06,1.083.388,1.091.968l.075,4.879c.009.577-.477,1.04-1.053,1.002l-5.114-.335c-.5-.033-.897-.435-.923-.935Z"/><path class="cls-13" d="M466.283,664.916l-.208-3.995c-.027-.525.361-.98.885-1.035l5.248-.549c.578-.06,1.083.388,1.091.968l.075,4.879c.009.577-.477,1.04-1.053,1.002l-5.114-.335c-.5-.033-.897-.435-.923-.935Z"/><path class="cls-15" d="M466.495,664.692l-.208-3.995c-.027-.525.361-.98.885-1.035l5.248-.549c.578-.06,1.083.388,1.091.968l.075,4.879c.009.577-.477,1.04-1.053,1.002l-5.114-.335c-.5-.033-.897-.435-.923-.935Z"/><path class="cls-9" d="M499.052,648.843l2.805,24.811c.06.572-.356,1.084-.927,1.143l-7.13.743c-.572.06-1.084-.356-1.143-.927l-2.805-24.811c-.06-.572.356-1.084.927-1.143l7.13-.743c.572-.06,1.084.356,1.143.927Z"/><path class="cls-18" d="M499.104,648.22l2.805,24.811c.06.572-.356,1.084-.927,1.143l-7.13.743c-.572.06-1.084-.356-1.143-.927l-2.805-24.811c-.06-.572.356-1.084.927-1.143l7.13-.743c.572-.06,1.084.356,1.143.927Z"/><path class="cls-20" d="M499.01,647.583l2.805,24.811c.06.572-.356,1.084-.927,1.143l-7.13.743c-.572.06-1.084-.356-1.143-.927l-2.805-24.811c-.06-.572.356-1.084.927-1.143l7.13-.743c.572-.06,1.084.356,1.143.927Z"/><path class="cls-10" d="M502.233,661.781l-.623-3.951c-.082-.52.257-1.012.772-1.121l5.162-1.091c.568-.12,1.117.273,1.186.849l.582,4.844c.069.573-.366,1.083-.943,1.106l-5.121.198c-.501.019-.937-.339-1.015-.834Z"/><path class="cls-13" d="M502.456,661.465l-.623-3.951c-.082-.52.257-1.012.772-1.121l5.162-1.091c.568-.12,1.117.273,1.186.849l.582,4.844c.069.573-.366,1.083-.943,1.106l-5.121.198c-.501.019-.937-.339-1.015-.834Z"/><path class="cls-15" d="M502.643,661.221l-.623-3.951c-.082-.52.257-1.012.772-1.121l5.162-1.091c.568-.12,1.117.273,1.186.849l.582,4.844c.069.573-.366,1.083-.943,1.106l-5.121.198c-.501.019-.937-.339-1.015-.834Z"/><path class="cls-9" d="M396.465,654.452l-1.537,19.917c-.04.573-.538,1.006-1.112.965l-19.162-1.504c-.573-.04-1.006-.538-.965-1.112l1.537-19.917c.04-.573.538-1.006,1.112-.965l19.162,1.504c.573.04,1.006.538.965,1.112Z"/><path class="cls-18" d="M396.625,653.848l-1.537,19.917c-.04.573-.538,1.006-1.112.965l-19.162-1.504c-.573-.04-1.006-.538-.965-1.112l1.537-19.917c.04-.573.538-1.006,1.112-.965l19.162,1.504c.573.04,1.006.538.965,1.112Z"/><path class="cls-20" d="M396.643,653.204l-1.537,19.917c-.04.573-.538,1.006-1.112.965l-19.162-1.504c-.573-.04-1.006-.538-.965-1.112l1.537-19.917c.04-.573.538-1.006,1.112-.965l19.162,1.504c.573.04,1.006.538.965,1.112Z"/><path class="cls-10" d="M397.356,665.745l.072-3.999c.009-.526.429-.952.955-.97l5.273-.18c.58-.02,1.053.462,1.021,1.042l-.267,4.872c-.032.577-.549,1.004-1.121.926l-5.078-.692c-.497-.068-.864-.496-.855-.997Z"/><path class="cls-13" d="M397.631,665.472l.072-3.999c.009-.526.429-.952.955-.97l5.273-.18c.58-.02,1.053.462,1.021,1.042l-.267,4.872c-.032.577-.549,1.004-1.121.926l-5.078-.692c-.497-.068-.864-.496-.855-.997Z"/><path class="cls-15" d="M397.857,665.264l.072-3.999c.009-.526.429-.952.955-.97l5.273-.18c.58-.02,1.053.462,1.021,1.042l-.267,4.872c-.032.577-.549,1.004-1.121.926l-5.078-.692c-.497-.068-.864-.496-.855-.997Z"/><path class="cls-10" d="M372.844,662.545l-.072-3.999c-.009-.526-.429-.952-.955-.97l-5.273-.18c-.58-.02-1.053.462-1.021,1.042l.267,4.872c.032.577.549,1.004,1.121.926l5.078-.692c.497-.068.864-.496.855-.997Z"/><path class="cls-13" d="M372.57,662.273l-.072-3.999c-.009-.526-.429-.952-.955-.97l-5.273-.18c-.58-.02-1.053.462-1.021,1.042l.267,4.872c.032.577.549,1.004,1.121.926l5.078-.692c.497-.068.864-.496.855-.997Z"/><path class="cls-15" d="M372.343,662.064l-.072-3.999c-.009-.526-.429-.952-.955-.97l-5.273-.18c-.58-.02-1.053.462-1.021,1.042l.267,4.872c.032.577.549,1.004,1.121.926l5.078-.692c.497-.068.864-.496.855-.997Z"/><line class="cls-4" x1="386.159" y1="651.183" x2="384.524" y2="673.181"/><path class="cls-12" d="M383.435,643.212v.592h-3.312c-.005-.148.02-.291.071-.428.085-.225.22-.447.405-.666s.454-.472.806-.759c.544-.446.912-.801,1.104-1.062s.287-.508.287-.74c0-.243-.087-.449-.262-.616-.174-.168-.401-.251-.682-.251-.296,0-.533.088-.711.266s-.268.424-.27.738l-.633-.064c.043-.472.206-.831.488-1.078.283-.247.662-.371,1.139-.371.48,0,.861.133,1.142.4.28.266.421.597.421.99,0,.201-.041.398-.123.592s-.219.397-.409.611c-.19.215-.506.509-.948.883-.369.31-.606.52-.711.63s-.191.222-.26.333h2.457Z"/><path class="cls-12" d="M387.327,643.212v.592h-3.312c-.005-.148.02-.291.071-.428.085-.225.22-.447.405-.666s.454-.472.806-.759c.544-.446.912-.801,1.104-1.062s.287-.508.287-.74c0-.243-.087-.449-.262-.616-.174-.168-.401-.251-.682-.251-.296,0-.533.088-.711.266s-.268.424-.27.738l-.633-.064c.043-.472.206-.831.488-1.078.283-.247.662-.371,1.139-.371.48,0,.861.133,1.142.4.28.266.421.597.421.99,0,.201-.041.398-.123.592s-.219.397-.409.611c-.19.215-.506.509-.948.883-.369.31-.606.52-.711.63s-.191.222-.26.333h2.457Z"/><path class="cls-12" d="M387.988,641.333c0-.593.061-1.069.183-1.431s.303-.64.543-.836.543-.294.907-.294c.27,0,.505.054.708.162s.37.265.503.469c.132.204.235.452.311.745s.113.688.113,1.185c0,.588-.061,1.062-.182,1.423s-.302.641-.542.838-.544.296-.911.296c-.482,0-.862-.174-1.138-.52-.33-.418-.495-1.097-.495-2.037ZM388.62,641.333c0,.822.097,1.369.289,1.642s.43.409.712.409.521-.137.713-.41.289-.82.289-1.641c0-.825-.097-1.373-.289-1.645s-.432-.406-.719-.406c-.283,0-.509.119-.678.358-.211.306-.317.869-.317,1.692Z"/><path class="cls-12" d="M395.114,643.212v.592h-3.312c-.005-.148.02-.291.071-.428.085-.225.22-.447.405-.666s.454-.472.806-.759c.544-.446.912-.801,1.104-1.062s.287-.508.287-.74c0-.243-.087-.449-.262-.616-.174-.168-.401-.251-.682-.251-.296,0-.533.088-.711.266s-.268.424-.27.738l-.633-.064c.043-.472.206-.831.488-1.078.283-.247.662-.371,1.139-.371.48,0,.861.133,1.142.4.28.266.421.597.421.99,0,.201-.041.398-.123.592s-.219.397-.409.611c-.19.215-.506.509-.948.883-.369.31-.606.52-.711.63s-.191.222-.26.333h2.457Z"/><path class="cls-12" d="M428.024,645.093v.592h-3.312c-.005-.148.02-.291.071-.428.085-.225.22-.447.405-.666s.454-.472.806-.759c.544-.446.912-.801,1.104-1.062s.287-.508.287-.74c0-.243-.087-.449-.262-.616-.174-.168-.401-.251-.682-.251-.296,0-.533.088-.711.266s-.268.424-.27.738l-.633-.064c.043-.472.206-.831.488-1.078.283-.247.662-.371,1.139-.371.48,0,.861.133,1.142.4.28.266.421.597.421.99,0,.201-.041.398-.123.592s-.219.397-.409.611c-.19.215-.506.509-.948.883-.369.31-.606.52-.711.63s-.191.222-.26.333h2.457Z"/><path class="cls-12" d="M431.917,645.093v.592h-3.312c-.005-.148.02-.291.071-.428.085-.225.22-.447.405-.666s.454-.472.806-.759c.544-.446.912-.801,1.104-1.062s.287-.508.287-.74c0-.243-.087-.449-.262-.616-.174-.168-.401-.251-.682-.251-.296,0-.533.088-.711.266s-.268.424-.27.738l-.633-.064c.043-.472.206-.831.488-1.078.283-.247.662-.371,1.139-.371.48,0,.861.133,1.142.4.28.266.421.597.421.99,0,.201-.041.398-.123.592s-.219.397-.409.611c-.19.215-.506.509-.948.883-.369.31-.606.52-.711.63s-.191.222-.26.333h2.457Z"/><path class="cls-12" d="M432.578,643.214c0-.593.061-1.069.183-1.431s.303-.64.543-.836.543-.294.907-.294c.27,0,.505.054.708.162s.37.265.503.469c.132.204.235.452.311.745s.113.688.113,1.185c0,.588-.061,1.062-.182,1.423s-.302.641-.542.838-.544.296-.911.296c-.482,0-.862-.174-1.138-.52-.33-.418-.495-1.097-.495-2.037ZM433.21,643.214c0,.822.097,1.369.289,1.642s.43.409.712.409.521-.137.713-.41.289-.82.289-1.641c0-.825-.097-1.373-.289-1.645s-.432-.406-.719-.406c-.283,0-.509.119-.678.358-.211.306-.317.869-.317,1.692Z"/><path class="cls-12" d="M436.475,644.362l.615-.082c.07.348.19.6.36.753.17.154.377.231.621.231.289,0,.533-.101.732-.301.199-.201.299-.449.299-.746,0-.282-.092-.515-.276-.698s-.419-.275-.704-.275c-.116,0-.261.022-.434.068l.068-.54c.041.005.073.007.099.007.262,0,.498-.068.708-.205.209-.137.314-.348.314-.632,0-.227-.077-.413-.229-.561-.152-.148-.35-.223-.591-.223s-.439.075-.599.226-.262.376-.308.677l-.615-.109c.075-.412.246-.732.513-.959s.599-.34.995-.34c.273,0,.524.059.755.176s.406.277.528.48.183.418.183.646c0,.216-.058.413-.175.591-.115.178-.288.319-.516.424.296.068.526.21.69.426.164.215.246.484.246.808,0,.438-.159.809-.479,1.113-.319.304-.723.456-1.21.456-.439,0-.805-.131-1.096-.394-.29-.262-.456-.602-.497-1.018Z"/><path class="cls-12" d="M463.617,645.093v.592h-3.312c-.005-.148.02-.291.071-.428.085-.225.22-.447.405-.666s.454-.472.806-.759c.544-.446.912-.801,1.104-1.062s.287-.508.287-.74c0-.243-.087-.449-.262-.616-.174-.168-.401-.251-.682-.251-.296,0-.533.088-.711.266s-.268.424-.27.738l-.633-.064c.043-.472.206-.831.488-1.078.283-.247.662-.371,1.139-.371.48,0,.861.133,1.142.4.28.266.421.597.421.99,0,.201-.041.398-.123.592s-.219.397-.409.611c-.19.215-.506.509-.948.883-.369.31-.606.52-.711.63s-.191.222-.26.333h2.457Z"/><path class="cls-12" d="M467.51,645.093v.592h-3.312c-.005-.148.02-.291.071-.428.085-.225.22-.447.405-.666s.454-.472.806-.759c.544-.446.912-.801,1.104-1.062s.287-.508.287-.74c0-.243-.087-.449-.262-.616-.174-.168-.401-.251-.682-.251-.296,0-.533.088-.711.266s-.268.424-.27.738l-.633-.064c.043-.472.206-.831.488-1.078.283-.247.662-.371,1.139-.371.48,0,.861.133,1.142.4.28.266.421.597.421.99,0,.201-.041.398-.123.592s-.219.397-.409.611c-.19.215-.506.509-.948.883-.369.31-.606.52-.711.63s-.191.222-.26.333h2.457Z"/><path class="cls-12" d="M468.171,643.214c0-.593.061-1.069.183-1.431s.303-.64.543-.836.543-.294.907-.294c.27,0,.505.054.708.162s.37.265.503.469c.132.204.235.452.311.745s.113.688.113,1.185c0,.588-.061,1.062-.182,1.423s-.302.641-.542.838-.544.296-.911.296c-.482,0-.862-.174-1.138-.52-.33-.418-.495-1.097-.495-2.037ZM468.803,643.214c0,.822.097,1.369.289,1.642s.43.409.712.409.521-.137.713-.41.289-.82.289-1.641c0-.825-.097-1.373-.289-1.645s-.432-.406-.719-.406c-.283,0-.509.119-.678.358-.211.306-.317.869-.317,1.692Z"/><path class="cls-12" d="M474.036,645.684v-1.199h-2.174v-.564l2.286-3.247h.503v3.247h.677v.564h-.677v1.199h-.615ZM474.036,643.921v-2.26l-1.569,2.26h1.569Z"/><path class="cls-12" d="M499.026,641.988v.592h-3.312c-.005-.148.02-.291.071-.428.085-.225.22-.447.405-.666s.454-.472.806-.759c.544-.446.912-.801,1.104-1.062s.287-.508.287-.74c0-.243-.087-.449-.262-.616-.174-.168-.401-.251-.682-.251-.296,0-.533.088-.711.266s-.268.424-.27.738l-.633-.064c.043-.472.206-.831.488-1.078.283-.247.662-.371,1.139-.371.48,0,.861.133,1.142.4.28.266.421.597.421.99,0,.201-.041.398-.123.592s-.219.397-.409.611c-.19.215-.506.509-.948.883-.369.31-.606.52-.711.63s-.191.222-.26.333h2.457Z"/><path class="cls-12" d="M502.919,641.988v.592h-3.312c-.005-.148.02-.291.071-.428.085-.225.22-.447.405-.666s.454-.472.806-.759c.544-.446.912-.801,1.104-1.062s.287-.508.287-.74c0-.243-.087-.449-.262-.616-.174-.168-.401-.251-.682-.251-.296,0-.533.088-.711.266s-.268.424-.27.738l-.633-.064c.043-.472.206-.831.488-1.078.283-.247.662-.371,1.139-.371.48,0,.861.133,1.142.4.28.266.421.597.421.99,0,.201-.041.398-.123.592s-.219.397-.409.611c-.19.215-.506.509-.948.883-.369.31-.606.52-.711.63s-.191.222-.26.333h2.457Z"/><path class="cls-12" d="M503.58,640.109c0-.593.061-1.069.183-1.431s.303-.64.543-.836.543-.294.907-.294c.27,0,.505.054.708.162s.37.265.503.469c.132.204.235.452.311.745s.113.688.113,1.185c0,.588-.061,1.062-.182,1.423s-.302.641-.542.838-.544.296-.911.296c-.482,0-.862-.174-1.138-.52-.33-.418-.495-1.097-.495-2.037ZM504.212,640.109c0,.822.097,1.369.289,1.642s.43.409.712.409.521-.137.713-.41.289-.82.289-1.641c0-.825-.097-1.373-.289-1.645s-.432-.406-.719-.406c-.283,0-.509.119-.678.358-.211.306-.317.869-.317,1.692Z"/><path class="cls-12" d="M507.474,641.267l.646-.055c.048.314.159.551.333.709.175.158.385.238.631.238.296,0,.547-.112.752-.336.205-.223.308-.52.308-.889,0-.351-.099-.627-.296-.83s-.455-.305-.773-.305c-.199,0-.378.046-.537.136s-.285.206-.376.351l-.577-.076.484-2.573h2.492v.588h-2l-.27,1.347c.301-.21.616-.314.947-.314.438,0,.807.151,1.107.455.301.303.451.692.451,1.168,0,.454-.133.846-.396,1.176-.322.406-.761.609-1.316.609-.456,0-.828-.128-1.116-.383-.288-.256-.452-.594-.493-1.016Z"/><path class="cls-12" d="M540.927,483.662v.592h-3.312c-.005-.148.02-.291.071-.428.085-.225.22-.447.405-.666s.454-.472.806-.759c.544-.446.912-.801,1.104-1.062s.287-.508.287-.74c0-.243-.087-.449-.262-.616-.174-.168-.401-.251-.682-.251-.296,0-.533.088-.711.266s-.268.424-.27.738l-.633-.064c.043-.472.206-.831.488-1.078.283-.247.662-.371,1.139-.371.48,0,.861.133,1.142.4.28.266.421.597.421.99,0,.201-.041.398-.123.592s-.219.397-.409.611c-.19.215-.506.509-.948.883-.369.31-.606.52-.711.63s-.191.222-.26.333h2.457Z"/><path class="cls-12" d="M544.819,483.662v.592h-3.312c-.005-.148.02-.291.071-.428.085-.225.22-.447.405-.666s.454-.472.806-.759c.544-.446.912-.801,1.104-1.062s.287-.508.287-.74c0-.243-.087-.449-.262-.616-.174-.168-.401-.251-.682-.251-.296,0-.533.088-.711.266s-.268.424-.27.738l-.633-.064c.043-.472.206-.831.488-1.078.283-.247.662-.371,1.139-.371.48,0,.861.133,1.142.4.28.266.421.597.421.99,0,.201-.041.398-.123.592s-.219.397-.409.611c-.19.215-.506.509-.948.883-.369.31-.606.52-.711.63s-.191.222-.26.333h2.457Z"/><path class="cls-12" d="M545.48,481.783c0-.593.061-1.069.183-1.431s.303-.64.543-.836.543-.294.907-.294c.27,0,.505.054.708.162s.37.265.503.469c.132.204.235.452.311.745s.113.688.113,1.185c0,.588-.061,1.062-.182,1.423s-.302.641-.542.838-.544.296-.911.296c-.482,0-.862-.174-1.138-.52-.33-.418-.495-1.097-.495-2.037ZM546.112,481.783c0,.822.097,1.369.289,1.642s.43.409.712.409.521-.137.713-.41.289-.82.289-1.641c0-.825-.097-1.373-.289-1.645s-.432-.406-.719-.406c-.283,0-.509.119-.678.358-.211.306-.317.869-.317,1.692Z"/><path class="cls-12" d="M549.415,479.899v-.591h3.243v.479c-.319.339-.635.79-.948,1.354-.313.562-.556,1.141-.727,1.736-.123.419-.201.878-.236,1.377h-.632c.007-.395.084-.87.232-1.429s.36-1.097.638-1.615c.276-.519.571-.955.883-1.311h-2.453Z"/></g><g id="bookable"><polygon id="area-22.2201-status" class="cls-11" points="338.7 598.234 370.4 609.835 353.1 682.734 314 672.335 338.7 598.234"/><polygon id="area-22.2206-status" class="cls-11" points="595.37 459.495 528.204 530.401 513.094 556.469 510.041 593.266 515.137 613.845 530.6 685.934 604.452 661.781 666.697 628.402 694.553 607.994 661.139 541.194 641.14 510.679 620.164 484.255 595.37 459.495"/><path class="cls-20" d="M586.477,566.082h1.296v4.078c0,.533-.047.943-.141,1.23-.126.375-.354.676-.686.903-.331.227-.768.34-1.309.34-.637,0-1.125-.178-1.469-.533-.342-.356-.516-.878-.518-1.566l1.226-.141c.015.369.068.63.163.781.141.232.354.348.641.348.291,0,.495-.083.615-.248.12-.166.181-.509.181-1.031v-4.161Z"/><path class="cls-20" d="M592.221,572.524v-.699c-.17.25-.394.446-.67.59-.277.143-.569.215-.877.215-.313,0-.595-.069-.844-.207-.249-.137-.43-.33-.54-.58-.112-.248-.168-.593-.168-1.032v-2.953h1.235v2.145c0,.656.022,1.059.068,1.206.045.148.128.266.248.352.12.087.272.13.457.13.211,0,.399-.058.567-.174.166-.115.281-.259.342-.431.062-.171.093-.591.093-1.259v-1.969h1.235v4.667h-1.147Z"/><path class="cls-20" d="M594.612,567.857h1.15v.686c.15-.234.352-.425.607-.571.254-.146.537-.22.848-.22.542,0,1.002.213,1.38.638s.567,1.017.567,1.775c0,.779-.191,1.385-.572,1.816-.381.433-.842.648-1.384.648-.258,0-.491-.052-.701-.154-.209-.102-.43-.277-.661-.527v2.352h-1.234v-6.442ZM595.833,570.112c0,.524.104.911.312,1.162.208.25.461.375.76.375.287,0,.526-.114.717-.345.19-.229.285-.606.285-1.132,0-.488-.098-.852-.294-1.09-.196-.236-.439-.355-.729-.355-.302,0-.553.116-.752.35-.199.232-.299.578-.299,1.035Z"/><path class="cls-20" d="M600.146,567.224v-1.143h1.234v1.143h-1.234ZM600.146,572.524v-4.667h1.234v4.667h-1.234Z"/><path class="cls-20" d="M604.785,567.857v.984h-.844v1.881c0,.381.008.603.024.666.016.062.053.115.109.155.058.042.127.062.209.062.114,0,.279-.04.496-.119l.105.958c-.287.123-.612.185-.975.185-.224,0-.424-.037-.603-.112-.179-.074-.31-.171-.394-.29-.083-.118-.142-.279-.174-.48-.025-.144-.039-.434-.039-.871v-2.034h-.566v-.984h.566v-.927l1.239-.721v1.647h.844Z"/><path class="cls-20" d="M608.345,571.039l1.23.206c-.158.452-.408.795-.749,1.031-.342.235-.769.354-1.281.354-.812,0-1.412-.265-1.802-.795-.308-.425-.462-.961-.462-1.609,0-.773.203-1.379.607-1.816.404-.438.915-.657,1.533-.657.694,0,1.242.229,1.644.688.401.459.593,1.161.575,2.107h-3.094c.01.366.108.651.299.854.19.204.428.306.713.306.193,0,.355-.053.487-.158s.231-.275.299-.51ZM608.415,569.791c-.009-.357-.101-.629-.276-.815-.176-.186-.391-.279-.643-.279-.27,0-.492.099-.668.295s-.262.463-.259.8h1.846Z"/><path class="cls-20" d="M611.829,572.524h-1.234v-4.667h1.146v.663c.196-.312.373-.52.529-.619.157-.1.335-.149.534-.149.281,0,.552.078.813.233l-.383,1.076c-.208-.135-.401-.202-.58-.202-.173,0-.319.048-.439.143-.12.096-.215.268-.283.517-.069.249-.104.771-.104,1.564v1.441Z"/><path class="cls-20" d="M593.042,581.378v1.146h-4.328c.046-.434.187-.845.422-1.232.233-.389.696-.903,1.389-1.545.556-.519.897-.87,1.023-1.055.17-.255.255-.507.255-.756,0-.275-.074-.487-.222-.635-.148-.148-.353-.223-.613-.223-.258,0-.463.078-.615.233s-.24.413-.264.773l-1.23-.123c.073-.68.303-1.167.689-1.464.387-.295.871-.443,1.451-.443.635,0,1.135.172,1.498.514.363.344.545.77.545,1.279,0,.29-.052.566-.156.828-.104.263-.269.537-.494.824-.149.19-.419.465-.809.822s-.637.595-.74.711c-.104.118-.188.232-.253.344h2.452Z"/><path class="cls-20" d="M598.048,581.378v1.146h-4.328c.046-.434.187-.845.422-1.232.233-.389.696-.903,1.389-1.545.556-.519.897-.87,1.023-1.055.17-.255.255-.507.255-.756,0-.275-.074-.487-.222-.635-.148-.148-.353-.223-.613-.223-.258,0-.463.078-.615.233s-.24.413-.264.773l-1.23-.123c.073-.68.303-1.167.689-1.464.387-.295.871-.443,1.451-.443.635,0,1.135.172,1.498.514.363.344.545.77.545,1.279,0,.29-.052.566-.156.828-.104.263-.269.537-.494.824-.149.19-.419.465-.809.822s-.637.595-.74.711c-.104.118-.188.232-.253.344h2.452Z"/><path class="cls-20" d="M600.971,576.056c.624,0,1.112.223,1.464.668.418.527.628,1.402.628,2.623s-.211,2.096-.633,2.629c-.349.439-.835.658-1.459.658s-1.133-.24-1.517-.723c-.384-.481-.575-1.341-.575-2.577,0-1.213.211-2.086.633-2.619.349-.439.835-.659,1.459-.659ZM600.971,577.079c-.149,0-.283.048-.399.144-.118.095-.209.266-.273.512-.085.319-.127.856-.127,1.612s.038,1.275.114,1.559c.076.282.172.471.288.564.115.094.248.141.397.141s.282-.048.399-.143c.117-.096.208-.266.273-.512.084-.316.127-.854.127-1.609s-.038-1.274-.114-1.558c-.076-.282-.172-.472-.288-.566-.115-.096-.248-.144-.397-.144Z"/><path class="cls-20" d="M608.073,577.659l-1.195.133c-.03-.246-.105-.428-.229-.545s-.283-.176-.479-.176c-.261,0-.481.117-.661.352-.181.234-.294.722-.341,1.463.308-.363.69-.545,1.147-.545.515,0,.957.196,1.324.589.368.393.552.899.552,1.521,0,.659-.193,1.188-.58,1.586-.387.399-.884.598-1.489.598-.65,0-1.186-.252-1.604-.758-.419-.505-.628-1.334-.628-2.484,0-1.181.218-2.032.654-2.554s1.003-.782,1.701-.782c.488,0,.894.137,1.215.411.32.273.525.672.613,1.192ZM605.273,580.353c0,.401.093.711.276.93.186.218.396.327.633.327.229,0,.419-.089.572-.268.151-.179.229-.472.229-.879,0-.419-.083-.727-.246-.921-.165-.195-.369-.292-.615-.292-.238,0-.438.093-.603.278-.164.187-.246.461-.246.824Z"/><path class="cls-20" d="M332.589,636.016l-2.303-6.442h1.41l1.631,4.769,1.577-4.769h1.38l-2.307,6.442h-1.389Z"/><path class="cls-20" d="M336.777,630.717v-1.143h1.234v1.143h-1.234ZM336.777,636.016v-4.667h1.234v4.667h-1.234Z"/><path class="cls-20" d="M338.843,634.684l1.239-.188c.053.24.159.423.321.547.16.125.387.187.676.187.319,0,.56-.058.721-.176.108-.081.163-.191.163-.329,0-.094-.029-.171-.088-.233-.062-.058-.199-.112-.413-.162-.996-.22-1.628-.42-1.895-.602-.369-.252-.553-.603-.553-1.051,0-.404.159-.744.479-1.02s.814-.413,1.485-.413c.639,0,1.113.104,1.424.312.311.209.524.517.642.924l-1.164.215c-.051-.182-.145-.32-.284-.418-.139-.096-.338-.145-.595-.145-.326,0-.559.046-.699.137-.094.064-.141.147-.141.25,0,.088.041.162.123.225.111.082.496.197,1.153.347.658.149,1.117.333,1.378.55.258.219.387.525.387.918,0,.428-.179.795-.536,1.104-.357.307-.887.461-1.587.461-.636,0-1.139-.129-1.509-.387-.371-.258-.613-.607-.728-1.051Z"/><path class="cls-20" d="M344.285,630.717v-1.143h1.234v1.143h-1.234ZM344.285,636.016v-4.667h1.234v4.667h-1.234Z"/><path class="cls-20" d="M348.924,631.349v.984h-.844v1.881c0,.381.008.603.024.666.016.062.053.115.109.155.058.042.127.062.209.062.114,0,.279-.04.496-.119l.105.958c-.287.123-.612.185-.975.185-.224,0-.424-.037-.603-.112-.179-.074-.31-.171-.394-.29-.083-.118-.142-.279-.174-.48-.025-.144-.039-.434-.039-.871v-2.034h-.566v-.984h.566v-.927l1.239-.721v1.647h.844Z"/><path class="cls-20" d="M349.495,633.617c0-.41.101-.807.304-1.19.201-.384.488-.678.858-.879.371-.203.784-.304,1.241-.304.706,0,1.285.229,1.736.688.451.459.677,1.038.677,1.738,0,.706-.228,1.291-.684,1.756-.455.464-1.029.696-1.72.696-.429,0-.836-.097-1.224-.29-.388-.193-.684-.477-.885-.851-.203-.373-.304-.828-.304-1.364ZM350.76,633.682c0,.464.11.818.329,1.064.221.246.491.369.813.369s.593-.123.811-.369c.219-.246.327-.604.327-1.072,0-.457-.108-.809-.327-1.055-.218-.246-.488-.369-.811-.369s-.593.123-.813.369c-.218.246-.329.601-.329,1.062Z"/><path class="cls-20" d="M356.46,636.016h-1.234v-4.667h1.146v.663c.196-.312.373-.52.529-.619.157-.1.335-.149.534-.149.281,0,.552.078.813.233l-.383,1.076c-.208-.135-.401-.202-.58-.202-.173,0-.319.048-.439.143-.12.096-.215.268-.283.517-.069.249-.104.771-.104,1.564v1.441Z"/><path class="cls-20" d="M341.077,646.016v-6.442h1.301v6.442h-1.301Z"/><path class="cls-20" d="M343.578,646.016v-6.442h1.301v6.442h-1.301Z"/><path class="cls-20" d="M346.078,646.016v-6.442h1.301v6.442h-1.301Z"/><path class="cls-20" d="M338.753,654.87v1.146h-4.328c.046-.434.187-.845.422-1.232.233-.389.696-.903,1.389-1.545.556-.519.897-.87,1.023-1.055.17-.255.255-.507.255-.756,0-.275-.074-.487-.222-.635-.148-.148-.353-.223-.613-.223-.258,0-.463.078-.615.233s-.24.413-.264.773l-1.23-.123c.073-.68.303-1.167.689-1.464.387-.295.871-.443,1.451-.443.635,0,1.135.172,1.498.514.363.344.545.77.545,1.279,0,.29-.052.566-.156.828-.104.263-.269.537-.494.824-.149.19-.419.465-.809.822s-.637.595-.74.711c-.104.118-.188.232-.253.344h2.452Z"/><path class="cls-20" d="M343.759,654.87v1.146h-4.328c.046-.434.187-.845.422-1.232.233-.389.696-.903,1.389-1.545.556-.519.897-.87,1.023-1.055.17-.255.255-.507.255-.756,0-.275-.074-.487-.222-.635-.148-.148-.353-.223-.613-.223-.258,0-.463.078-.615.233s-.24.413-.264.773l-1.23-.123c.073-.68.303-1.167.689-1.464.387-.295.871-.443,1.451-.443.635,0,1.135.172,1.498.514.363.344.545.77.545,1.279,0,.29-.052.566-.156.828-.104.263-.269.537-.494.824-.149.19-.419.465-.809.822s-.637.595-.74.711c-.104.118-.188.232-.253.344h2.452Z"/><path class="cls-20" d="M346.682,649.548c.624,0,1.112.223,1.464.668.418.527.628,1.402.628,2.623s-.211,2.096-.633,2.629c-.349.439-.835.658-1.459.658s-1.133-.24-1.517-.723c-.384-.481-.575-1.341-.575-2.577,0-1.213.211-2.086.633-2.619.349-.439.835-.659,1.459-.659ZM346.682,650.571c-.149,0-.283.048-.399.144-.118.095-.209.266-.273.512-.085.319-.127.856-.127,1.612s.038,1.275.114,1.559c.076.282.172.471.288.564.115.094.248.141.397.141s.282-.048.399-.143c.117-.096.208-.266.273-.512.084-.316.127-.854.127-1.609s-.038-1.274-.114-1.558c-.076-.282-.172-.472-.288-.566-.115-.096-.248-.144-.397-.144Z"/><path class="cls-20" d="M352.76,656.016h-1.235v-4.654c-.451.422-.982.734-1.594.937v-1.12c.322-.105.673-.306,1.05-.601.378-.294.637-.638.778-1.03h1.002v6.469Z"/></g><g id="outline"><polyline class="cls-3" points="315.7 505.434 326.4 511.135 318.6 507.034 293.7 491.034 279.607 486.385"/><polyline class="cls-3" points="314 672.335 338.7 598.234 354.7 603.635"/><polyline class="cls-3" points="353.1 682.734 370.3 609.734 365.7 608.635"/><line class="cls-3" x1="257.266" y1="648.028" x2="306.286" y2="552.067"/><line class="cls-3" x1="292.342" y1="579.364" x2="314.598" y2="589.828"/><polyline class="cls-3" points="374.561 584.234 376.576 578.059 385.186 548.983 358.084 541.194 350.318 567.936 355.413 569.734"/><line class="cls-3" x1="368.192" y1="607.994" x2="370.888" y2="597.338"/><line class="cls-3" x1="454.15" y1="536.772" x2="565.932" y2="431.737"/><polyline class="cls-3" points="379.13 628.402 415.518 631.6 412.3 693.034"/><polyline class="cls-3" points="435.05 632.649 450.994 632.649 450.177 691.115"/><polyline class="cls-3" points="464.272 632.649 484.495 631.661 489.804 691.902"/><polyline class="cls-3" points="503.289 626.972 517.18 623.908 530.662 682.734"/><line class="cls-3" x1="513.094" y1="607.994" x2="517.18" y2="623.908"/><path class="cls-3" d="M510.041,593.266s-2.258-44.328,21.233-65.981l64.096-67.79"/><path class="cls-7" d="M4.1,86.934s15.2,43.3,40,79.2c24.8,35.9,56.9,69.6,56.9,69.6,0,0,36.4,31.6,41.6,39.5s22.7,30,33.2,62.2l7.9,27.9c-24.677,5.594-48.328,15.008-70.1,27.9-34.8,21.1-52.2,36.4-52.2,36.4,0,0,12.6,54.8,78.5,129.6,0,0,22.3,28,67.6,60.2,10.3,7.4,21.9,14.9,34.6,22.5,68.5,40.5,170.2,51.1,170.2,51.1,0,0,66.9,4.7,117-7.4,50.1-12.1,88-27.4,119.1-45.3s48-31.6,48-31.6c0,0-24.8-52.7-40.6-75.9s-20.5-34.3-47.4-60.6l-26.9-26.3s-35.8-26.3-55.3-75.9l-10-37.4s86.4-31.1,122.2-64.8l-4.7-15.8s-15.8-48.5-53.7-91.2-53.7-70.6-121.7-103.8S364,14.834,309.7,5.334c0,0-95.4-12.1-168.6,13.7C67.9,44.834,34.2,62.034,4.1,86.934Z"/><line class="cls-3" x1="520.855" y1="519.496" x2="531.275" y2="527.285"/><line class="cls-3" x1="511.303" y1="512.626" x2="493.402" y2="499.89"/><path class="cls-3" d="M342.2,530.135l-13.226,31.585s-48.855-18.456-61.574-35.885c0,0-1.345-2.667,4.705-17.429l7.502-22.021s13.02-62.08,2.169-98.38l-30.946-197.378s-5.431-40.344-4.28-64.664c.303-6.411,4.991-11.782,11.328-12.803,7.291-1.174,19.455-1.11,39.623,2.923,0,0,72.757,8.014,126.129,48.745h0c4.245,2.83,6.018,8.186,4.301,12.99l-9.919,27.741s-19.238,53.103,3.84,141.002c0,0,31.302,148.72,27.594,227.075-.218,4.617-3.738,8.375-8.318,9.001-7.376,1.008-20.449,1.218-41.342-3.274l4.878-30.381"/><line class="cls-3" x1="381.014" y1="576.361" x2="369.13" y2="573.451"/><polyline class="cls-3" points="326.4 511.135 338.989 516.073 346.807 518.305 348.071 516.073 382.946 527.285 389.2 528.582"/><polyline class="cls-3" points="382.946 527.285 368.192 418.232 431.916 408.92"/><polyline class="cls-3" points="390.547 438.058 406.168 536.472 447.924 539.074"/><path class="cls-3" d="M401.615,507.787s26.797,23.636,43.61-5.964"/><line class="cls-3" x1="391.035" y1="441.128" x2="417.599" y2="438.058"/><line class="cls-3" x1="431.916" y1="435.323" x2="437.524" y2="434.731"/></g><g id="icons"><circle class="cls-21" cx="306.497" cy="517.304" r="11.83"/><path class="cls-12" d="M300.104,537.993v-4.705h.937l1.114,3.331c.103.311.178.544.225.7.053-.171.137-.422.25-.754l1.126-3.273h.838v4.705h-.595v-3.937l-1.367,3.938h-.562l-1.361-4v4l-.605-.005h0Z"/><path class="cls-12" d="M307.749,537.572c-.183.163-.392.293-.618.386-.204.076-.42.113-.637.112-.312.021-.62-.077-.863-.274-.198-.178-.308-.434-.3-.7-.002-.16.037-.318.114-.458.072-.133.175-.247.3-.332.128-.085.268-.149.416-.189.169-.039.341-.068.514-.086.349-.032.694-.099,1.03-.2v-.151c.02-.182-.04-.365-.164-.5-.188-.145-.422-.216-.658-.2-.21-.016-.42.034-.6.143-.15.129-.251.306-.287.5l-.565-.076c.038-.212.125-.413.253-.586.134-.16.311-.279.51-.344.249-.084.51-.125.773-.12.24-.008.48.025.709.1.154.05.292.139.4.259.091.115.153.249.18.393.024.177.034.355.029.533v.77c-.009.34.004.681.037,1.02.025.144.075.282.146.409h-.6c-.063-.128-.103-.267-.119-.409ZM307.701,536.282c-.305.109-.621.182-.943.219-.171.018-.338.057-.5.115-.093.038-.173.104-.228.188-.136.213-.096.494.094.66.146.112.328.166.512.153.207.003.412-.047.594-.146.166-.09.3-.23.382-.4.071-.184.103-.381.093-.578l-.004-.211h0Z"/><path class="cls-12" d="M309.167,537.993v-4.705h.578v4.705h-.578Z"/><path class="cls-12" d="M312.973,536.895l.6.073c-.077.323-.261.61-.523.813-.675.442-1.564.371-2.161-.172-.31-.357-.467-.821-.438-1.292-.03-.486.129-.964.443-1.335.296-.317.715-.49,1.149-.475.422-.014.83.156,1.117.466.308.364.463.833.433,1.309v.154h-2.542c0,.316.112.621.318.86.184.197.443.306.712.3.194.005.385-.053.542-.167.167-.139.289-.325.35-.534ZM311.073,535.961h1.9c-.006-.232-.082-.458-.218-.646-.173-.217-.437-.341-.715-.334-.25-.006-.492.091-.669.267-.185.192-.29.447-.295.713h-.003Z"/><path class="cls-12" d="M299.129,544.565v-4.149h-1.55v-.556h3.729v.556h-1.556v4.149h-.623Z"/><path class="cls-12" d="M300.929,542.861c-.042-.522.151-1.035.526-1.4.298-.255.68-.39,1.072-.379.431-.015.848.152,1.149.461.313.347.473.805.446,1.272.016.356-.052.71-.2,1.034-.128.249-.328.453-.574.586-.252.139-.535.211-.823.209-.433.018-.854-.149-1.157-.459-.315-.366-.473-.842-.439-1.324h0ZM301.523,542.861c-.026.351.075.699.286.98.345.396.946.437,1.342.092.033-.029.064-.059.092-.092.213-.288.314-.643.286-1,.025-.344-.078-.684-.287-.958-.346-.396-.948-.436-1.343-.09-.032.028-.062.058-.09.09-.211.28-.313.628-.286.978h0Z"/><path class="cls-12" d="M304.799,540.525v-.665h.578v.665h-.578ZM304.799,544.565v-3.408h.578v3.408h-.578Z"/><path class="cls-12" d="M306.247,544.565v-4.705h.578v4.705h-.578Z"/><path class="cls-12" d="M310.052,543.467l.6.073c-.077.323-.261.61-.523.813-.675.442-1.564.371-2.161-.172-.31-.357-.467-.821-.438-1.292-.03-.486.129-.964.443-1.335.296-.317.715-.49,1.149-.475.422-.014.83.156,1.117.466.308.364.463.833.433,1.309v.154h-2.542c0,.316.112.621.318.86.184.197.443.306.712.3.194.005.385-.053.542-.167.167-.139.289-.325.35-.534ZM308.152,542.533h1.9c-.006-.232-.082-.458-.218-.646-.173-.217-.437-.341-.715-.334-.25-.006-.492.091-.669.267-.185.192-.29.447-.294.713h-.004Z"/><path class="cls-12" d="M312.636,544.048l.083.51c-.143.032-.29.05-.437.052-.169.009-.337-.026-.488-.1-.108-.058-.194-.15-.244-.262-.062-.222-.086-.452-.071-.682v-1.961h-.423v-.449h.423v-.844l.575-.347v1.19h.581v.449h-.581v1.993c-.007.107.003.214.03.317.02.047.055.086.1.112.062.032.131.046.2.042.084,0,.169-.008.252-.02h0Z"/><path class="cls-12" d="M312.97,543.547l.571-.09c.019.203.115.391.268.526.177.132.394.196.614.183.21.017.419-.041.591-.162.119-.09.19-.23.192-.38.003-.126-.062-.244-.17-.309-.188-.091-.387-.158-.591-.2-.301-.067-.596-.16-.881-.277-.308-.137-.505-.444-.5-.781-.003-.147.032-.293.1-.423.069-.128.166-.238.284-.322.112-.077.237-.133.368-.168.162-.047.331-.07.5-.069.238-.004.476.035.7.115.176.059.332.167.447.313.107.158.175.338.2.527l-.565.077c-.018-.161-.098-.308-.223-.41-.152-.107-.336-.159-.521-.148-.199-.017-.397.029-.568.132-.103.069-.167.185-.17.309,0,.073.025.143.07.2.059.07.136.123.222.153.058.021.228.071.51.147.29.072.576.162.855.269.152.062.284.166.38.3.096.146.144.319.138.494,0,.194-.059.384-.168.544-.119.178-.288.317-.486.4-.227.096-.472.144-.719.14-.359.024-.716-.073-1.013-.276-.241-.208-.396-.498-.435-.814h0Z"/><circle class="cls-6" cx="306.752" cy="512.072" r="1.393"/><path class="cls-6" d="M304.928,519.823h-1.241v-4.56c.004-.586.478-1.059,1.063-1.063h2.133"/><polyline class="cls-6" points="304.928 515.972 304.928 525.244 307.993 525.244"/><line class="cls-6" x1="306.6" y1="519.493" x2="306.6" y2="525.244"/><circle class="cls-6" cx="306.752" cy="512.072" r="1.393"/><path class="cls-6" d="M308.55,519.823h1.241v-4.56c-.004-.586-.478-1.059-1.063-1.063h-2.129"/><polyline class="cls-6" points="308.55 515.972 308.55 525.244 305.485 525.244"/><line class="cls-6" x1="306.878" y1="519.493" x2="306.878" y2="525.244"/><circle class="cls-21" cx="425.694" cy="551.803" r="11.83"/><path class="cls-12" d="M415.518,572.492v-4.705h3.174v.556h-2.551v1.457h2.208v.555h-2.208v2.138h-.623Z"/><path class="cls-12" d="M421.76,571.394l.6.073c-.076.323-.261.61-.523.813-.675.442-1.564.371-2.161-.172-.31-.357-.466-.821-.437-1.292-.03-.485.128-.964.442-1.335.296-.317.715-.49,1.149-.475.422-.014.829.156,1.116.466.308.364.464.833.434,1.309v.154h-2.542c-.001.315.111.621.317.86.184.197.443.306.713.3.194.006.385-.053.542-.167.167-.139.289-.325.35-.534h0ZM419.86,570.46h1.9c-.006-.232-.082-.458-.218-.646-.173-.218-.438-.341-.716-.334-.25-.006-.492.091-.669.267-.184.192-.289.447-.294.713h-.003Z"/><path class="cls-12" d="M423.082,572.492v-3.408h.517v.479c.224-.352.615-.563,1.033-.556.218-.009.434.046.621.157.161.103.281.258.342.439.22-.372.621-.6,1.053-.6.287-.019.57.083.779.281.2.241.298.551.273.864v2.34h-.575v-2.147c.008-.169-.011-.337-.056-.5-.037-.102-.108-.188-.2-.245-.104-.064-.225-.096-.347-.093-.224-.008-.442.079-.6.238-.177.214-.262.489-.237.766v1.98h-.578v-2.215c.014-.202-.035-.404-.141-.577-.113-.137-.286-.209-.462-.192-.159,0-.316.044-.451.128-.14.088-.245.22-.3.376-.072.23-.104.471-.094.712v1.769l-.577.004h0Z"/><path class="cls-12" d="M430.78,572.071c-.182.162-.391.293-.617.386-.204.076-.42.113-.638.112-.312.021-.62-.077-.863-.274-.198-.178-.308-.434-.3-.7-.002-.16.037-.318.114-.458.072-.133.175-.247.3-.332.127-.085.267-.149.415-.189.169-.039.341-.068.514-.086.349-.032.694-.099,1.03-.2v-.151c.02-.182-.04-.364-.163-.5-.188-.145-.422-.216-.658-.2-.21-.016-.42.034-.6.143-.15.129-.251.305-.287.5l-.565-.076c.038-.212.125-.413.254-.586.134-.16.311-.28.51-.344.249-.084.51-.125.773-.12.241-.008.481.025.71.1.154.05.292.139.4.259.091.114.153.249.18.393.024.177.034.355.029.533v.77c-.009.34.004.681.037,1.02.025.144.075.282.146.409h-.6c-.064-.128-.105-.267-.121-.409ZM430.732,570.781c-.305.109-.621.182-.943.219-.171.018-.338.057-.5.115-.093.038-.173.104-.228.188-.137.213-.097.494.094.66.147.112.329.166.513.153.207.003.412-.047.594-.146.166-.09.299-.23.382-.4.071-.184.103-.381.093-.578l-.005-.211h0Z"/><path class="cls-12" d="M432.2,572.492v-4.705h.577v4.705h-.577Z"/><path class="cls-12" d="M436,571.394l.6.073c-.076.323-.261.61-.523.813-.675.442-1.564.371-2.161-.172-.31-.357-.466-.821-.437-1.292-.03-.485.128-.964.442-1.335.296-.317.715-.49,1.149-.475.422-.014.829.156,1.116.466.308.364.464.833.434,1.309v.154h-2.542c-.001.315.111.621.317.86.184.197.443.306.713.3.194.006.385-.053.542-.167.167-.139.289-.325.35-.534h0ZM434.1,570.46h1.9c-.006-.232-.082-.458-.218-.646-.173-.218-.438-.341-.716-.334-.25-.006-.492.091-.669.267-.183.193-.286.447-.289.713h-.008Z"/><path class="cls-12" d="M418.326,579.064v-4.149h-1.551v-.556h3.725v.556h-1.557v4.149h-.617Z"/><path class="cls-12" d="M420.126,577.36c-.042-.522.151-1.035.526-1.4.298-.255.68-.39,1.072-.379.431-.015.848.152,1.148.461.313.347.473.805.446,1.272.016.356-.052.71-.2,1.034-.129.248-.328.452-.574.586-.252.139-.535.211-.823.209-.433.018-.854-.149-1.157-.459-.314-.367-.472-.842-.438-1.324h0ZM420.72,577.36c-.026.351.075.699.286.98.345.396.946.437,1.342.092.033-.029.064-.059.092-.092.213-.288.314-.643.286-1,.025-.344-.078-.684-.287-.958-.346-.396-.948-.436-1.343-.09-.032.028-.062.058-.09.09-.211.28-.313.628-.286.978h0Z"/><path class="cls-12" d="M424,575.024v-.665h.577v.665h-.577ZM424,579.064v-3.408h.577v3.408h-.577Z"/><path class="cls-12" d="M425.443,579.064v-4.705h.578v4.705h-.578Z"/><path class="cls-12" d="M429.249,577.966l.6.073c-.077.323-.261.609-.523.813-.675.442-1.564.371-2.161-.172-.31-.357-.467-.821-.438-1.292-.03-.486.128-.964.443-1.335.296-.317.715-.49,1.148-.475.422-.014.83.156,1.117.466.308.364.463.833.433,1.309v.154h-2.548c0,.316.112.621.318.86.184.197.443.306.712.3.194.005.385-.053.543-.167.169-.139.293-.325.356-.534ZM427.349,577.032h1.9c-.006-.232-.082-.458-.219-.646-.173-.218-.437-.341-.715-.334-.25-.006-.492.09-.669.267-.184.192-.289.447-.293.713h-.004Z"/><path class="cls-12" d="M431.833,578.547l.083.51c-.143.032-.29.05-.437.052-.168.009-.336-.026-.487-.1-.108-.058-.194-.15-.244-.262-.061-.222-.085-.452-.07-.682v-1.961h-.424v-.449h.424v-.844l.574-.347v1.19h.581v.449h-.581v1.993c-.007.107.003.214.03.317.021.047.056.086.1.112.062.032.131.046.2.042.084,0,.168-.008.251-.02h0Z"/><path class="cls-12" d="M432.167,578.046l.571-.09c.019.203.115.391.268.526.177.132.394.196.614.183.21.017.419-.041.591-.162.119-.09.19-.23.192-.38.003-.126-.062-.244-.17-.309-.188-.091-.387-.158-.591-.2-.301-.067-.596-.16-.881-.277-.308-.137-.505-.444-.5-.781-.002-.147.032-.293.1-.423.068-.128.166-.238.284-.322.112-.077.236-.133.367-.168.162-.047.331-.07.5-.069.24-.005.479.034.705.115.176.059.331.168.447.313.107.158.175.338.2.527l-.565.077c-.017-.161-.098-.308-.223-.41-.152-.107-.336-.159-.521-.148-.199-.017-.397.029-.568.132-.103.069-.167.185-.17.309,0,.073.025.143.07.2.059.07.136.123.222.153.058.021.228.071.511.147.29.072.575.162.854.269.153.062.285.166.381.3.096.146.144.319.138.494,0,.194-.059.384-.168.544-.119.178-.288.317-.486.4-.227.096-.472.144-.719.14-.359.025-.716-.073-1.013-.276-.243-.207-.4-.497-.44-.814Z"/><circle class="cls-5" cx="425.89" cy="546.651" r="1.413"/><path class="cls-5" d="M423.959,553.313h-.518v-3.6c-.003-.556.444-1.009,1-1.012h2.959c.556-.003,1.009.444,1.012,1h0v3.662h-.542"/><polyline class="cls-5" points="424.595 550.065 423.37 556.469 428.503 556.469 427.255 550.065"/><polyline class="cls-5" points="424.429 556.469 424.429 559.694 427.349 559.694 427.349 556.469"/><line class="cls-5" x1="425.89" y1="556.469" x2="425.89" y2="559.718"/><circle class="cls-21" cx="301.7" cy="620.565" r="11.83"/><path class="cls-12" d="M293.838,639.742l.587-.052c.018.206.084.405.194.58.119.165.284.291.473.365.228.097.474.145.722.141.214.004.428-.032.629-.106.161-.055.302-.156.406-.29.086-.116.132-.256.133-.4.003-.14-.042-.276-.128-.387-.114-.129-.26-.224-.424-.277-.275-.091-.554-.168-.837-.229-.313-.064-.617-.162-.908-.293-.203-.099-.375-.251-.5-.439-.11-.175-.168-.378-.165-.585,0-.237.069-.469.2-.666.144-.213.35-.377.59-.47.274-.11.568-.164.863-.16.315-.006.629.051.922.168.251.1.466.275.615.5.144.22.224.477.231.74l-.6.045c-.014-.259-.131-.502-.326-.674-.239-.168-.529-.248-.82-.227-.29-.024-.579.049-.823.207-.161.115-.257.302-.258.5-.004.16.063.313.183.418.287.174.607.288.939.335.355.069.703.17,1.041.3.243.101.453.267.607.48.133.197.203.43.2.668,0,.252-.075.498-.215.708-.151.229-.366.408-.618.517-.285.127-.595.19-.907.185-.366.011-.73-.053-1.07-.187-.277-.115-.513-.31-.677-.56-.167-.254-.256-.551-.259-.855h0Z"/><path class="cls-12" d="M299.621,640.732l.083.51c-.143.033-.29.05-.437.052-.169.009-.337-.026-.488-.1-.108-.058-.194-.149-.244-.261-.062-.222-.086-.453-.071-.683v-1.961h-.423v-.449h.423v-.844l.575-.347v1.19h.581v.449h-.581v1.993c-.007.107.003.214.03.317.02.047.055.087.1.112.062.032.131.046.2.042.084,0,.169-.007.252-.02h0Z"/><path class="cls-12" d="M302.409,640.832c-.183.163-.392.293-.618.386-.204.076-.42.114-.637.112-.312.021-.62-.077-.863-.274-.198-.178-.308-.434-.3-.7-.002-.16.037-.318.114-.458.072-.133.175-.247.3-.332.128-.085.268-.149.416-.189.169-.039.341-.068.514-.086.349-.032.694-.099,1.03-.2v-.15c.02-.182-.04-.365-.164-.5-.188-.145-.422-.216-.658-.2-.21-.016-.42.034-.6.143-.151.131-.252.31-.287.506l-.565-.077c.038-.212.125-.413.253-.586.134-.16.311-.279.51-.343.249-.085.51-.125.773-.121.24-.009.48.025.709.1.153.05.291.139.4.258.091.115.153.249.18.393.024.177.034.355.029.533v.77c-.009.34.004.681.037,1.02.025.144.074.282.146.409h-.6c-.064-.13-.104-.27-.119-.414h0ZM302.361,639.543c-.305.108-.621.181-.943.218-.171.019-.339.058-.5.116-.256.104-.379.395-.276.651.031.076.08.143.143.196.146.112.328.166.512.153.207.003.412-.047.594-.146.166-.09.3-.23.382-.4.071-.184.103-.381.093-.578l-.005-.21h0Z"/><path class="cls-12" d="M303.844,637.213v-.664h.578v.664h-.578ZM303.844,641.253v-3.408h.578v3.408h-.578Z"/><path class="cls-12" d="M305.294,641.253v-3.408h.52v.517c.086-.184.212-.348.367-.479.109-.075.238-.116.371-.115.212.005.417.07.594.187l-.2.536c-.127-.08-.274-.123-.424-.125-.123-.002-.243.038-.34.113-.103.08-.178.191-.215.316-.067.218-.101.446-.1.674v1.784h-.573,0Z"/><path class="cls-12" d="M307.258,640.232l.571-.09c.019.203.115.391.268.525.176.132.394.197.614.184.21.016.419-.041.591-.162.119-.091.19-.231.192-.381.003-.126-.062-.244-.17-.309-.188-.09-.387-.157-.591-.2-.301-.067-.596-.16-.881-.277-.153-.069-.283-.182-.372-.324-.084-.137-.128-.296-.127-.457-.003-.147.032-.292.1-.422.068-.128.165-.238.284-.322.112-.077.237-.134.368-.169.162-.047.331-.07.5-.069.238-.004.475.035.7.115.176.059.331.168.447.313.107.158.175.339.2.528l-.565.076c-.018-.161-.098-.308-.223-.41-.152-.107-.336-.159-.521-.148-.199-.017-.397.03-.568.133-.104.069-.167.184-.17.308,0,.073.025.143.07.2.059.07.136.124.222.154.057.021.227.07.51.146.29.072.576.162.855.269.153.062.284.166.38.3.096.146.144.319.138.494,0,.194-.059.383-.168.543-.119.179-.288.318-.486.4-.227.096-.472.144-.719.14-.359.024-.716-.072-1.013-.275-.241-.208-.396-.497-.436-.813h0Z"/><g id="Outline_Icons-2-2-4-2-2-2-3"><line class="cls-1" x1="297.15" y1="624.539" x2="305.431" y2="624.539"/><polyline class="cls-1" points="303.985 624.539 303.985 623.093 302.54 623.093 302.54 621.647 301.094 621.647 301.094 620.201 299.648 620.201 299.648 618.755 297.15 618.755"/><line class="cls-1" x1="301.488" y1="616.258" x2="305.957" y2="620.727"/><polyline class="cls-1" points="301.488 618.098 301.488 616.258 303.328 616.258"/><polyline class="cls-1" points="305.957 619.018 305.957 620.727 304.248 620.727"/></g><circle class="cls-21" cx="419.86" cy="471.325" r="11.83"/><path class="cls-12" d="M411.998,490.502l.587-.052c.018.206.084.405.194.58.119.165.284.291.473.365.228.097.474.145.722.141.214.004.428-.032.629-.106.161-.055.302-.156.406-.29.086-.116.132-.256.133-.4.003-.14-.042-.276-.128-.387-.114-.129-.26-.224-.424-.277-.275-.091-.554-.168-.837-.229-.313-.064-.617-.162-.908-.293-.203-.099-.375-.251-.5-.439-.11-.175-.168-.378-.165-.585,0-.237.069-.469.2-.666.144-.213.35-.377.59-.47.274-.11.568-.164.863-.16.315-.006.629.051.922.168.251.1.466.275.615.5.144.22.224.477.231.74l-.6.045c-.014-.259-.131-.502-.326-.674-.239-.168-.529-.248-.82-.227-.29-.024-.579.049-.823.207-.161.115-.257.302-.258.5-.004.16.063.313.183.418.287.174.607.288.939.335.355.069.703.17,1.041.3.243.101.453.267.607.48.133.197.203.43.2.668,0,.252-.075.498-.215.708-.151.229-.366.408-.618.517-.285.127-.595.19-.907.185-.366.011-.73-.053-1.07-.187-.277-.115-.513-.31-.677-.56-.167-.254-.256-.551-.259-.855h0Z"/><path class="cls-12" d="M417.781,491.492l.083.51c-.143.033-.29.05-.437.052-.169.009-.337-.026-.488-.1-.108-.058-.194-.149-.244-.261-.062-.222-.086-.453-.071-.683v-1.961h-.423v-.449h.423v-.844l.575-.347v1.19h.581v.449h-.581v1.993c-.007.107.003.214.03.317.02.047.055.087.1.112.062.032.131.046.2.042.084,0,.169-.007.252-.02h0Z"/><path class="cls-12" d="M420.569,491.592c-.183.163-.392.293-.618.386-.204.076-.42.114-.637.112-.312.021-.62-.077-.863-.274-.198-.178-.308-.434-.3-.7-.002-.16.037-.318.114-.458.072-.133.175-.247.3-.332.128-.085.268-.149.416-.189.169-.039.341-.068.514-.086.349-.032.694-.099,1.03-.2v-.15c.02-.182-.04-.365-.164-.5-.188-.145-.422-.216-.658-.2-.21-.016-.42.034-.6.143-.151.131-.252.31-.287.506l-.565-.077c.038-.212.125-.413.253-.586.134-.16.311-.279.51-.343.249-.085.51-.125.773-.121.24-.009.48.025.709.1.153.05.291.139.4.258.091.115.153.249.18.393.024.177.034.355.029.533v.77c-.009.34.004.681.037,1.02.025.144.074.282.146.409h-.6c-.064-.13-.104-.27-.119-.414h0ZM420.521,490.303c-.305.108-.621.181-.943.218-.171.019-.339.058-.5.116-.256.104-.379.395-.276.651.031.076.08.143.143.196.146.112.328.166.512.153.207.003.412-.047.594-.146.166-.09.3-.23.382-.4.071-.184.103-.381.093-.578l-.005-.21h0Z"/><path class="cls-12" d="M422.004,487.973v-.664h.578v.664h-.578ZM422.004,492.013v-3.408h.578v3.408h-.578Z"/><path class="cls-12" d="M423.454,492.013v-3.408h.52v.517c.086-.184.212-.348.367-.479.109-.075.238-.116.371-.115.212.005.417.07.594.187l-.2.536c-.127-.08-.274-.123-.424-.125-.123-.002-.243.038-.34.113-.103.08-.178.191-.215.316-.067.218-.101.446-.1.674v1.784h-.573,0Z"/><path class="cls-12" d="M425.418,490.992l.571-.09c.019.203.115.391.268.525.176.132.394.197.614.184.21.016.419-.041.591-.162.119-.091.19-.231.192-.381.003-.126-.062-.244-.17-.309-.188-.09-.387-.157-.591-.2-.301-.067-.596-.16-.881-.277-.153-.069-.283-.182-.372-.324-.084-.137-.128-.296-.127-.457-.003-.147.032-.292.1-.422.068-.128.165-.238.284-.322.112-.077.237-.134.368-.169.162-.047.331-.07.5-.069.238-.004.475.035.7.115.176.059.331.168.447.313.107.158.175.339.2.528l-.565.076c-.018-.161-.098-.308-.223-.41-.152-.107-.336-.159-.521-.148-.199-.017-.397.03-.568.133-.104.069-.167.184-.17.308,0,.073.025.143.07.2.059.07.136.124.222.154.057.021.227.07.51.146.29.072.576.162.855.269.153.062.284.166.38.3.096.146.144.319.138.494,0,.194-.059.383-.168.543-.119.179-.288.318-.486.4-.227.096-.472.144-.719.14-.359.024-.716-.072-1.013-.275-.241-.208-.396-.497-.436-.813h0Z"/><g id="Outline_Icons-2-2-4-2-2-2-3-2"><line class="cls-1" x1="415.31" y1="475.299" x2="423.591" y2="475.299"/><polyline class="cls-1" points="422.145 475.299 422.145 473.853 420.7 473.853 420.7 472.407 419.254 472.407 419.254 470.961 417.808 470.961 417.808 469.515 415.31 469.515"/><line class="cls-1" x1="419.648" y1="467.018" x2="424.117" y2="471.487"/><polyline class="cls-1" points="419.648 468.858 419.648 467.018 421.488 467.018"/><polyline class="cls-1" points="424.117 469.778 424.117 471.487 422.408 471.487"/></g><circle class="cls-21" cx="367.752" cy="552.705" r="11.83"/><path class="cls-12" d="M356.007,571.292v-4.705h3.4v.556h-2.777v1.44h2.6v.552h-2.6v1.6h2.888v.556h-3.511Z"/><path class="cls-12" d="M360.291,571.292v-4.705h.578v4.705h-.578Z"/><path class="cls-12" d="M364.1,570.195l.6.073c-.077.323-.261.609-.523.813-.675.442-1.564.371-2.161-.172-.31-.357-.467-.821-.438-1.292-.03-.486.128-.964.443-1.335.296-.317.715-.49,1.148-.475.422-.014.83.156,1.117.466.308.364.463.833.433,1.309v.154h-2.542c0,.316.112.621.318.86.184.197.443.306.712.3.194.005.385-.053.543-.167.167-.139.289-.325.35-.534h0ZM362.2,569.261h1.9c-.006-.232-.082-.458-.219-.646-.173-.218-.437-.341-.715-.334-.25-.006-.492.09-.669.267-.186.191-.292.446-.297.713h0Z"/><path class="cls-12" d="M366.366,571.292l-1.3-3.408h.61l.731,2.041c.079.221.152.45.218.687.052-.18.124-.396.215-.648l.758-2.079h.594l-1.29,3.408h-.536,0Z"/><path class="cls-12" d="M370.93,570.872c-.183.163-.392.293-.618.386-.204.076-.42.113-.637.112-.312.021-.62-.077-.863-.274-.198-.178-.308-.434-.3-.7-.002-.315.152-.611.412-.79.128-.085.268-.149.416-.189.169-.039.341-.068.514-.086.349-.032.694-.099,1.029-.2v-.151c.02-.182-.04-.365-.164-.5-.188-.145-.422-.216-.658-.2-.21-.016-.42.034-.6.143-.149.13-.25.306-.287.5l-.564-.076c.038-.212.125-.413.253-.586.135-.16.312-.28.511-.344.249-.084.51-.125.773-.12.24-.009.48.025.709.1.154.05.291.139.4.259.091.115.152.249.18.393.024.177.033.355.028.533v.77c-.009.34.004.681.037,1.02.025.144.074.282.146.409h-.6c-.063-.128-.102-.267-.117-.409h0ZM370.881,569.582c-.305.109-.621.182-.943.219-.171.018-.338.057-.5.115-.093.039-.172.104-.228.188-.136.213-.095.494.095.66.146.112.328.166.512.153.207.003.412-.047.594-.146.166-.09.3-.23.382-.4.072-.184.103-.381.093-.578l-.005-.211h0Z"/><path class="cls-12" d="M373.621,570.776l.084.51c-.143.032-.29.05-.437.052-.169.009-.336-.026-.488-.1-.108-.058-.193-.15-.243-.262-.062-.222-.086-.452-.071-.682v-1.958h-.423v-.449h.423v-.851l.575-.347v1.19h.58v.449h-.58v1.993c-.007.107.003.214.03.317.02.047.055.087.1.112.062.032.131.046.2.042.084,0,.167-.005.25-.016Z"/><path class="cls-12" d="M373.972,569.588c-.042-.522.151-1.035.526-1.4.298-.255.679-.39,1.071-.379.431-.015.848.152,1.149.461.312.348.472.806.445,1.272.016.356-.052.71-.2,1.034-.128.249-.328.453-.574.586-.252.139-.535.211-.823.209-.433.017-.853-.149-1.156-.459-.315-.366-.472-.842-.438-1.324h0ZM374.566,569.588c-.027.35.075.699.285.98.346.396.947.437,1.343.092.033-.028.063-.059.092-.092.212-.288.314-.643.285-1,.025-.344-.078-.684-.287-.958-.346-.396-.948-.436-1.343-.09-.032.028-.062.058-.09.09-.211.28-.313.628-.286.978h0Z"/><path class="cls-12" d="M377.835,571.292v-3.408h.521v.517c.086-.184.211-.348.367-.479.108-.076.238-.116.37-.115.212.005.417.07.594.187l-.2.535c-.128-.079-.274-.122-.424-.125-.123,0-.243.039-.34.114-.103.08-.179.191-.216.316-.067.218-.101.446-.1.674v1.784h-.572,0Z"/><rect class="cls-2" x="362.336" y="547.175" width="11.316" height="11.316" rx=".404" ry=".404"/><rect class="cls-2" x="364.647" y="549.753" width="2.916" height="8.609"/><rect class="cls-2" x="367.563" y="549.753" width="2.916" height="8.609"/><line class="cls-2" x1="367.004" y1="548.424" x2="369.003" y2="548.424"/><polyline class="cls-8" points="371.608 553.086 372.148 552.58 372.688 553.086"/><polyline class="cls-8" points="371.608 553.804 372.148 554.31 372.688 553.804"/></g></svg>