<?xml version="1.0" encoding="utf-8"?>
<!-- Generator: Adobe Illustrator 25.2.0, SVG Export Plug-In . SVG Version: 6.00 Build 0)  -->
<svg version="1.1" id="Layer_1" xmlns="http://www.w3.org/2000/svg" xmlns:xlink="http://www.w3.org/1999/xlink" x="0px" y="0px"
	 viewBox="0 0 960.5 794.3" style="enable-background:new 0 0 960.5 794.3;" xml:space="preserve">
<style type="text/css">
	.st0{fill:#4196B1;}
	.st1{fill:#A8E0E5;}
	.st2{fill:#99B8BF;}
	.st3{fill:#8ECCCE;}
	.st4{display:none;}
	.st5{opacity:0.74;fill:#575757;enable-background:new    ;}
	.st6{enable-background:new    ;}
	.st7{fill:#646B6D;}
	.st8{fill:#FFFFFF;}
	.st9{fill:none;stroke:#EBF2F2;stroke-width:4;stroke-miterlimit:10;}
	.st10{fill:none;stroke:#EBF2F2;stroke-width:2;stroke-miterlimit:10;}
	.st11{fill:none;stroke:#EBF2F2;stroke-width:2.0975;stroke-miterlimit:9.9975;}
	.st12{fill:none;stroke:#EBF2F2;stroke-width:2.098;stroke-miterlimit:10;}
	.st13{fill:#EBF2F2;}
	.st14{fill:none;stroke:#7A8E93;stroke-width:0.426;stroke-miterlimit:10;}
	.st15{fill:none;stroke:#7A8E93;stroke-width:0.442;stroke-miterlimit:10;}
	.st16{fill:none;stroke:#7A8E93;stroke-width:0.427;stroke-miterlimit:10;}
	.st17{fill:#767E80;}
	.st18{fill:#757D7F;}
	.st19{fill:none;stroke:#7A8E93;stroke-width:0.455;stroke-miterlimit:10;}
	.st20{fill:none;stroke:#7A8E93;stroke-width:0.455;stroke-miterlimit:10.0002;}
	.st21{fill:#EBF1F2;}
	.st22{fill:none;stroke:#7A8E93;stroke-width:0.3865;stroke-miterlimit:10;}
	.st23{fill:#B8BFC1;}
	.st24{opacity:0.15;fill:#010101;enable-background:new    ;}
	.st25{fill:#596068;}
	.st26{fill:#9BAEB7;}
	.st27{fill:none;stroke:#7A8E93;stroke-width:0.847;stroke-linecap:round;stroke-miterlimit:10;}
	.st28{opacity:5.000000e-02;fill:#030303;enable-background:new    ;}
	.st29{fill:none;stroke:#DADCDC;stroke-width:0.278;stroke-miterlimit:10;}
</style>
<g id="shadow">
	<path class="st0" d="M154.4,139.7c0,0,15.5,44.1,40.7,80.5s57.9,70.7,57.9,70.7s37,32.2,42.3,40.2s23,30.5,33.8,63.2l8,28.4
		c-25.1,5.6-49.2,15.2-71.3,28.4c-35.4,21.4-53.1,37-53.1,37s12.9,55.7,79.9,131.8c0,0,34.3,42.9,104,84.1s173.1,52,173.1,52
		s68.1,4.8,119-7.5s89.5-27.9,121.1-46.1s48.8-32.2,48.8-32.2s-25.2-53.6-41.3-77.2s-20.9-34.8-48.2-61.6l-27.3-26.8
		c0,0-36.4-26.8-56.3-77.2l-10.2-38.1c0,0,87.9-31.6,124.3-65.9l-4.8-16.1c0,0-16.1-49.3-54.7-92.7S685.4,143,616.3,109.3
		s-95.9-42.9-151.1-52.5c0,0-97-12.3-171.5,13.9S185,114.4,154.4,139.7z"/>
</g>
<g id="background">
	<path class="st1" d="M152.4,141.3c0,0,15.2,43.3,40,79.2s56.9,69.6,56.9,69.6s36.4,31.6,41.6,39.5s22.7,30,33.2,62.2l7.9,27.9
		c-24.7,5.6-48.3,15-70.1,27.9c-34.8,21.1-52.2,36.4-52.2,36.4s12.6,54.8,78.5,129.6c0,0,33.7,42.2,102.2,82.7
		s170.2,51.1,170.2,51.1s66.9,4.7,117-7.4s88-27.4,119.1-45.3s48-31.6,48-31.6s-24.8-52.7-40.6-75.9s-20.6-34.3-47.4-60.6
		l-26.9-26.3c0,0-35.8-26.3-55.3-75.9l-10-37.4c0,0,86.4-31.1,122.2-64.8l-4.7-15.8c0,0-15.8-48.5-53.7-91.2s-53.7-70.6-121.7-103.8
		S512.3,69.2,458,59.8c0,0-95.4-12.1-168.6,13.7S182.5,116.4,152.4,141.3z"/>
</g>
<g id="spaces">
	<path class="st2" d="M399.7,167.5c0,0-0.6-4.4,27-0.9s40.6,5.9,40.6,5.9s36,9,50.5,15.5c14.5,6.5,30.3,15.2,30.3,15.2l19,11.8
		c0,0,10.8,3.2,10.4,11.2c-0.4,8-3.9,18.9-3.9,18.9l-7.7,26l-3.5,18.2c0,0-2.6,15-2.4,26.6c0.2,11.6,3.1,45.5,3.1,45.5l10,61.2
		l13,72.1c0,0,12.6,76.3,13.6,99.5s3.3,37.9-2.6,41c-5.9,3.1-16.9,3.8-16.9,3.8l-16.6-1.3l-18.7-1.8l-17.4-3.8l-50-14.7L428,592.3
		c0,0-14.4-9.2-13.8-13.1s9.6-34.5,9.6-34.5l3-8.6c0,0,4.1-16.6,4.8-25.9c0.8-9.3,1.7-29,0-46.4s-12.2-79.4-12.2-79.4l-10.9-67.2
		l-13-82.8l-2.7-50.9c0,0-0.5-7.8,1.7-11.7C396.9,167.8,399.7,167.5,399.7,167.5z"/>
	<path class="st3" d="M536.2,494.1l48.9-6.8c0,0,10.5,65.4,12.1,80.8s2.5,26.2,2.5,26.2l1,23.2c0,0,3.3,19-9.5,20.9l-14.5,0.6
		l-31.8-3l6.3-35.1v-12.1L536.2,494.1z"/>
	<polygon class="st3" points="480.2,517.5 522.1,511.7 529.3,557.1 489.1,563.6 	"/>
	<path class="st3" d="M426.8,536.1l20.4,13.1l18.4,11.9l29,13.9l-17.1,42.5l-45-22.5l-14.7-10.7c0,0-4.8-1-3-9s5.2-19.8,5.2-19.8
		L426.8,536.1z"/>
	<polygon class="st2" points="429.3,525.1 474.2,518.4 468.9,484.6 516.2,477.8 522.1,511.7 480.2,517.5 489.1,563.6 529.3,557.1 
		534,586.7 523.9,584.8 499.3,576.8 486.5,571.4 468,562.4 440.7,545.1 426.8,536.1 	"/>
	<polygon class="st3" points="504.7,597.2 495.6,623.4 527.5,632.2 534,605.4 515.5,600.4 	"/>
	<path class="st3" d="M330.7,419.4l63.5-10.2l8.4,60.5c0,0-15.1,1.3-81,23.2l-16.7,7.2c0,0,12.5,24.2,23.4,37.6
		c10.8,13.4,10.6,17.7,32.6,37.7s39.4,35.9,56.6,46.8c17.2,10.9,22.7,11.9,22.7,11.9l54.5,21.3c0,0,16.5,7.1,22.7,8.5
		c6.1,1.4,28.6,4.8,28.6,4.8s20,2.6,43.8,2.1c23.9-0.6,7.4-0.2,7.4-0.2v11.3c0,0,11.9,0.4,24.8-0.7c12.9-1.1,15.1,0.1,38.9-5.8
		c23.8-6,50.7-13.3,50.7-13.3l34.1-15.6l12.5-6.6l-10.8-16.4l-5.8-13.1l-10.6-14l51.5-39.7c0,0,23.6,33.3,35,54.9
		c11.4,21.6,25.9,51.2,25.9,51.2s-22.2,23.2-60.9,39.6c-38.7,16.5-92.4,37.5-121.8,40.9s-90.1,7.2-115.2,2.4
		c-25.1-4.8-86.8-20.1-86.8-20.1s-49.1-15.8-76.6-34s-48.5-31.4-64.7-47.7c-16.1-16.2-43.3-41-63.5-72.4s-38.4-62.6-44.4-84.3v-4.6
		c0,0,21.1-23.8,60-40.5S330.7,419.4,330.7,419.4z"/>
	<path class="st3" d="M353.8,506.1l56.4-13.6l-3.9,34l-4.4,17.9l-8.7,21.9c0,0-11.5-11.9-17-19.9S362,523.7,362,523.7L353.8,506.1z"
		/>
	<polygon class="st3" points="432.8,489.8 468.9,484.6 474.2,518.4 429.3,525.1 431.6,510.2 432.8,496.8 	"/>
</g>
<g id="map" class="st4">
</g>
<g id="bookable">
	<polygon id="area-21.2106-status" class="st5" points="485.7,652.3 517.4,663.9 500.1,736.8 461,726.4 	"/>
	<path id="area-21.2107-status" class="st5" d="M597.2,670.6l-0.1,77.4c0,0-73.1,0.5-97-11.2l17.3-72.9l36.2,6.2L597.2,670.6z"/>
	<polygon id="area-21.2105-status" class="st5" points="386.3,598.3 406.6,614.7 420.4,624 440.1,634.1 404.8,705.1 355.3,674.7 
		337.6,660.3 	"/>
	<polygon id="area-21.2102-status" class="st5" points="394.2,409.2 402.6,469.7 362.1,480 338.3,486.7 321.6,492.9 295.1,430.4 
		330.7,419.4 	"/>
	<path id="area-21.2103-status" class="st5" d="M208.4,483.7c0,0,11.1,30.2,15.4,38.4s23.5,41.5,23.5,41.5l33.1,42.2L341,554
		l-17-21.6l-19.1-32.3l16.7-7.2l-26.5-62.5l-57.6,31.7L208.4,483.7z"/>
	<polygon id="area-21.2104-status" class="st5" points="386.3,598.3 337.6,660.3 302.3,631.4 280.4,605.8 341,554 351.5,566.5 
		365.9,579.9 	"/>
	<g>
		<g class="st6">
			<path class="st7" d="M762.4,628.3v0.7h-3.8c0-0.2,0-0.3,0.1-0.5c0.1-0.3,0.3-0.5,0.5-0.8c0.2-0.2,0.5-0.5,0.9-0.9
				c0.6-0.5,1-0.9,1.3-1.2s0.3-0.6,0.3-0.8c0-0.3-0.1-0.5-0.3-0.7s-0.5-0.3-0.8-0.3s-0.6,0.1-0.8,0.3s-0.3,0.5-0.3,0.8l-0.7-0.1
				c0-0.5,0.2-1,0.6-1.2c0.3-0.3,0.8-0.4,1.3-0.4s1,0.2,1.3,0.5s0.5,0.7,0.5,1.1c0,0.2,0,0.5-0.1,0.7s-0.2,0.5-0.5,0.7
				c-0.2,0.2-0.6,0.6-1.1,1c-0.4,0.4-0.7,0.6-0.8,0.7c-0.1,0.1-0.2,0.3-0.3,0.4H762.4z"/>
			<path class="st7" d="M765.8,629h-0.7v-4.5c-0.2,0.2-0.4,0.3-0.7,0.5s-0.5,0.3-0.7,0.4v-0.7c0.4-0.2,0.7-0.4,1-0.7
				s0.5-0.5,0.6-0.8h0.5L765.8,629L765.8,629z"/>
			<path class="st7" d="M769.6,629h-0.7v-4.5c-0.2,0.2-0.4,0.3-0.7,0.5s-0.5,0.3-0.7,0.4v-0.7c0.4-0.2,0.7-0.4,1-0.7
				s0.5-0.5,0.6-0.8h0.5L769.6,629L769.6,629z"/>
			<path class="st7" d="M771.4,627.5l0.7-0.1c0.1,0.4,0.2,0.7,0.4,0.9s0.4,0.3,0.7,0.3s0.6-0.1,0.8-0.3s0.3-0.5,0.3-0.9
				c0-0.3-0.1-0.6-0.3-0.8s-0.5-0.3-0.8-0.3c-0.1,0-0.3,0-0.5,0.1l0.1-0.6h0.1c0.3,0,0.6-0.1,0.8-0.2c0.2-0.2,0.4-0.4,0.4-0.7
				s-0.1-0.5-0.3-0.6c-0.2-0.2-0.4-0.3-0.7-0.3s-0.5,0.1-0.7,0.3s-0.3,0.4-0.4,0.8l-0.7-0.1c0.1-0.5,0.3-0.8,0.6-1.1
				s0.7-0.4,1.1-0.4c0.3,0,0.6,0.1,0.9,0.2c0.3,0.1,0.5,0.3,0.6,0.5s0.2,0.5,0.2,0.7s-0.1,0.5-0.2,0.7s-0.3,0.4-0.6,0.5
				c0.3,0.1,0.6,0.2,0.8,0.5s0.3,0.6,0.3,0.9c0,0.5-0.2,0.9-0.5,1.3c-0.4,0.3-0.8,0.5-1.4,0.5c-0.5,0-0.9-0.1-1.3-0.4
				S771.5,628,771.4,627.5z"/>
		</g>
	</g>
	<g>
		<g class="st6">
			<path class="st7" d="M749.6,603.2v0.7h-3.8c0-0.2,0-0.3,0.1-0.5c0.1-0.3,0.2-0.5,0.5-0.8c0.2-0.2,0.5-0.5,0.9-0.9
				c0.6-0.5,1-0.9,1.3-1.2s0.3-0.6,0.3-0.8c0-0.3-0.1-0.5-0.3-0.7s-0.5-0.3-0.8-0.3s-0.6,0.1-0.8,0.3s-0.3,0.5-0.3,0.8l-0.7-0.1
				c0-0.5,0.2-1,0.6-1.2c0.3-0.3,0.8-0.4,1.3-0.4s1,0.2,1.3,0.5s0.5,0.7,0.5,1.1c0,0.2,0,0.5-0.1,0.7s-0.2,0.5-0.5,0.7
				c-0.2,0.2-0.6,0.6-1.1,1c-0.4,0.4-0.7,0.6-0.8,0.7c-0.1,0.1-0.2,0.3-0.3,0.4H749.6z"/>
			<path class="st7" d="M753,603.9h-0.7v-4.5c-0.2,0.2-0.4,0.3-0.7,0.5s-0.5,0.3-0.7,0.4v-0.7c0.4-0.2,0.7-0.4,1-0.7
				s0.5-0.5,0.6-0.8h0.5L753,603.9L753,603.9z"/>
			<path class="st7" d="M756.9,603.9h-0.7v-4.5c-0.2,0.2-0.4,0.3-0.7,0.5s-0.5,0.3-0.7,0.4v-0.7c0.4-0.2,0.7-0.4,1-0.7
				s0.5-0.5,0.6-0.8h0.5L756.9,603.9L756.9,603.9z"/>
			<path class="st7" d="M760.9,603.9v-1.4h-2.5v-0.6l2.6-3.7h0.6v3.7h0.8v0.6h-0.8v1.4H760.9z M760.9,601.9v-2.6l-1.8,2.6H760.9z"/>
		</g>
	</g>
	<g>
		<g class="st6">
			<path class="st7" d="M745.5,660.6v0.7h-3.8c0-0.2,0-0.3,0.1-0.5c0.1-0.3,0.2-0.5,0.5-0.8c0.2-0.2,0.5-0.5,0.9-0.9
				c0.6-0.5,1-0.9,1.3-1.2s0.3-0.6,0.3-0.8c0-0.3-0.1-0.5-0.3-0.7s-0.5-0.3-0.8-0.3s-0.6,0.1-0.8,0.3s-0.3,0.5-0.3,0.8l-0.7-0.1
				c0-0.5,0.2-1,0.6-1.2c0.3-0.3,0.8-0.4,1.3-0.4s1,0.2,1.3,0.5s0.5,0.7,0.5,1.1c0,0.2,0,0.5-0.1,0.7s-0.2,0.5-0.5,0.7
				c-0.2,0.2-0.6,0.6-1.1,1c-0.4,0.4-0.7,0.6-0.8,0.7c-0.1,0.1-0.2,0.3-0.3,0.4H745.5z"/>
			<path class="st7" d="M748.9,661.3h-0.7v-4.5c-0.2,0.2-0.4,0.3-0.7,0.5s-0.5,0.3-0.7,0.4V657c0.4-0.2,0.7-0.4,1-0.7
				s0.5-0.5,0.6-0.8h0.5L748.9,661.3L748.9,661.3z"/>
			<path class="st7" d="M752.8,661.3h-0.7v-4.5c-0.2,0.2-0.4,0.3-0.7,0.5s-0.5,0.3-0.7,0.4V657c0.4-0.2,0.7-0.4,1-0.7
				s0.5-0.5,0.6-0.8h0.5L752.8,661.3L752.8,661.3z"/>
			<path class="st7" d="M758.3,660.6v0.7h-3.8c0-0.2,0-0.3,0.1-0.5c0.1-0.3,0.2-0.5,0.5-0.8c0.2-0.2,0.5-0.5,0.9-0.9
				c0.6-0.5,1-0.9,1.3-1.2s0.3-0.6,0.3-0.8c0-0.3-0.1-0.5-0.3-0.7s-0.5-0.3-0.8-0.3s-0.6,0.1-0.8,0.3s-0.3,0.5-0.3,0.8l-0.7-0.1
				c0-0.5,0.2-1,0.6-1.2c0.3-0.3,0.8-0.4,1.3-0.4s1,0.2,1.3,0.5s0.5,0.7,0.5,1.1c0,0.2,0,0.5-0.1,0.7s-0.2,0.5-0.5,0.7
				c-0.2,0.2-0.6,0.6-1.1,1c-0.4,0.4-0.7,0.6-0.8,0.7c-0.1,0.1-0.2,0.3-0.3,0.4H758.3z"/>
		</g>
	</g>
	<g>
		<g class="st6">
			<path class="st7" d="M675.5,683.5v0.7h-3.8c0-0.2,0-0.3,0.1-0.5c0.1-0.3,0.3-0.5,0.5-0.8c0.2-0.2,0.5-0.5,0.9-0.9
				c0.6-0.5,1-0.9,1.3-1.2s0.3-0.6,0.3-0.8c0-0.3-0.1-0.5-0.3-0.7s-0.5-0.3-0.8-0.3s-0.6,0.1-0.8,0.3s-0.3,0.5-0.3,0.8l-0.7-0.1
				c0-0.5,0.2-1,0.6-1.2c0.3-0.3,0.8-0.4,1.3-0.4s1,0.2,1.3,0.5s0.5,0.7,0.5,1.1c0,0.2,0,0.5-0.1,0.7s-0.2,0.5-0.5,0.7
				c-0.2,0.2-0.6,0.6-1.1,1c-0.4,0.4-0.7,0.6-0.8,0.7c-0.1,0.1-0.2,0.3-0.3,0.4H675.5z"/>
			<path class="st7" d="M678.9,684.2h-0.7v-4.5c-0.2,0.2-0.4,0.3-0.7,0.5s-0.5,0.3-0.7,0.4v-0.7c0.4-0.2,0.7-0.4,1-0.7
				s0.5-0.5,0.6-0.8h0.5L678.9,684.2L678.9,684.2z"/>
			<path class="st7" d="M682.8,684.2h-0.7v-4.5c-0.2,0.2-0.4,0.3-0.7,0.5s-0.5,0.3-0.7,0.4v-0.7c0.4-0.2,0.7-0.4,1-0.7
				s0.5-0.5,0.6-0.8h0.5L682.8,684.2L682.8,684.2z"/>
			<path class="st7" d="M684.6,681.4c0-0.7,0.1-1.2,0.2-1.6c0.1-0.4,0.3-0.7,0.6-1c0.3-0.2,0.6-0.3,1-0.3c0.3,0,0.6,0.1,0.8,0.2
				c0.2,0.1,0.4,0.3,0.6,0.5c0.2,0.2,0.3,0.5,0.4,0.9s0.1,0.8,0.1,1.4c0,0.7-0.1,1.2-0.2,1.6c-0.1,0.4-0.3,0.7-0.6,1
				c-0.3,0.2-0.6,0.3-1,0.3c-0.6,0-1-0.2-1.3-0.6C684.8,683.2,684.6,682.4,684.6,681.4z M685.3,681.4c0,0.9,0.1,1.6,0.3,1.9
				c0.2,0.3,0.5,0.5,0.8,0.5s0.6-0.2,0.8-0.5s0.3-0.9,0.3-1.9c0-0.9-0.1-1.6-0.3-1.9c-0.2-0.3-0.5-0.5-0.8-0.5s-0.6,0.1-0.8,0.4
				C685.4,679.8,685.3,680.4,685.3,681.4z"/>
		</g>
	</g>
	<g>
		<g class="st6">
			<path class="st7" d="M643.5,689.3v0.7h-3.8c0-0.2,0-0.3,0.1-0.5c0.1-0.3,0.2-0.5,0.5-0.8c0.2-0.2,0.5-0.5,0.9-0.9
				c0.6-0.5,1-0.9,1.3-1.2s0.3-0.6,0.3-0.8c0-0.3-0.1-0.5-0.3-0.7s-0.5-0.3-0.8-0.3s-0.6,0.1-0.8,0.3s-0.3,0.5-0.3,0.8l-0.7-0.1
				c0-0.5,0.2-1,0.6-1.2c0.3-0.3,0.8-0.4,1.3-0.4s1,0.2,1.3,0.5s0.5,0.7,0.5,1.1c0,0.2,0,0.5-0.1,0.7s-0.2,0.5-0.5,0.7
				c-0.2,0.2-0.6,0.6-1.1,1c-0.4,0.4-0.7,0.6-0.8,0.7c-0.1,0.1-0.2,0.3-0.3,0.4H643.5z"/>
			<path class="st7" d="M646.9,689.9h-0.7v-4.5c-0.2,0.2-0.4,0.3-0.7,0.5s-0.5,0.3-0.7,0.4v-0.7c0.4-0.2,0.7-0.4,1-0.7
				s0.5-0.5,0.6-0.8h0.5L646.9,689.9L646.9,689.9z"/>
			<path class="st7" d="M648.7,687.1c0-0.7,0.1-1.2,0.2-1.6c0.1-0.4,0.3-0.7,0.6-1c0.3-0.2,0.6-0.3,1-0.3c0.3,0,0.6,0.1,0.8,0.2
				c0.2,0.1,0.4,0.3,0.6,0.5c0.2,0.2,0.3,0.5,0.4,0.9s0.1,0.8,0.1,1.4c0,0.7-0.1,1.2-0.2,1.6c-0.1,0.4-0.3,0.7-0.6,1
				c-0.3,0.2-0.6,0.3-1,0.3c-0.6,0-1-0.2-1.3-0.6C648.9,689,648.7,688.2,648.7,687.1z M649.5,687.1c0,0.9,0.1,1.6,0.3,1.9
				c0.2,0.3,0.5,0.5,0.8,0.5s0.6-0.2,0.8-0.5s0.3-0.9,0.3-1.9c0-0.9-0.1-1.6-0.3-1.9c-0.2-0.3-0.5-0.5-0.8-0.5s-0.6,0.1-0.8,0.4
				C649.6,685.5,649.5,686.2,649.5,687.1z"/>
			<path class="st7" d="M653.3,688.6l0.7-0.1c0.1,0.3,0.2,0.5,0.3,0.7c0.2,0.1,0.4,0.2,0.6,0.2c0.2,0,0.4,0,0.6-0.1
				c0.2-0.1,0.3-0.2,0.4-0.4c0.1-0.2,0.2-0.4,0.3-0.7s0.1-0.6,0.1-0.9v-0.1c-0.1,0.2-0.3,0.4-0.6,0.5c-0.2,0.1-0.5,0.2-0.8,0.2
				c-0.5,0-0.9-0.2-1.2-0.5s-0.5-0.8-0.5-1.4c0-0.6,0.2-1,0.5-1.4s0.8-0.5,1.3-0.5c0.4,0,0.7,0.1,1,0.3s0.5,0.5,0.7,0.9
				s0.2,0.9,0.2,1.6c0,0.7-0.1,1.3-0.2,1.7c-0.2,0.4-0.4,0.8-0.7,1s-0.7,0.3-1.1,0.3c-0.4,0-0.8-0.1-1.1-0.4
				C653.5,689.4,653.3,689.1,653.3,688.6z M656.2,686.1c0-0.4-0.1-0.7-0.3-1s-0.5-0.4-0.8-0.4s-0.6,0.1-0.8,0.4
				c-0.2,0.3-0.3,0.6-0.3,1s0.1,0.7,0.3,0.9s0.5,0.3,0.8,0.3s0.6-0.1,0.8-0.3C656.1,686.8,656.2,686.5,656.2,686.1z"/>
		</g>
	</g>
	<g>
		<g class="st6">
			<path class="st7" d="M710.4,673.5v0.7h-3.8c0-0.2,0-0.3,0.1-0.5c0.1-0.3,0.2-0.5,0.5-0.8c0.2-0.2,0.5-0.5,0.9-0.9
				c0.6-0.5,1-0.9,1.3-1.2s0.3-0.6,0.3-0.8c0-0.3-0.1-0.5-0.3-0.7s-0.5-0.3-0.8-0.3s-0.6,0.1-0.8,0.3s-0.3,0.5-0.3,0.8l-0.7-0.1
				c0-0.5,0.2-1,0.6-1.2c0.3-0.3,0.8-0.4,1.3-0.4s1,0.2,1.3,0.5s0.5,0.7,0.5,1.1c0,0.2,0,0.5-0.1,0.7s-0.2,0.5-0.5,0.7
				c-0.2,0.2-0.6,0.6-1.1,1c-0.4,0.4-0.7,0.6-0.8,0.7c-0.1,0.1-0.2,0.3-0.3,0.4H710.4z"/>
			<path class="st7" d="M713.8,674.2h-0.7v-4.5c-0.2,0.2-0.4,0.3-0.7,0.5s-0.5,0.3-0.7,0.4v-0.7c0.4-0.2,0.7-0.4,1-0.7
				s0.5-0.5,0.6-0.8h0.5L713.8,674.2L713.8,674.2z"/>
			<path class="st7" d="M717.7,674.2H717v-4.5c-0.2,0.2-0.4,0.3-0.7,0.5s-0.5,0.3-0.7,0.4v-0.7c0.4-0.2,0.7-0.4,1-0.7
				s0.5-0.5,0.6-0.8h0.5L717.7,674.2L717.7,674.2z"/>
			<path class="st7" d="M721.5,674.2h-0.7v-4.5c-0.2,0.2-0.4,0.3-0.7,0.5s-0.5,0.3-0.7,0.4v-0.7c0.4-0.2,0.7-0.4,1-0.7
				s0.5-0.5,0.6-0.8h0.5L721.5,674.2L721.5,674.2z"/>
		</g>
	</g>
	<g>
		<g class="st6">
			<path class="st7" d="M606.7,693.9v0.7h-3.8c0-0.2,0-0.3,0.1-0.5c0.1-0.3,0.3-0.5,0.5-0.8c0.2-0.2,0.5-0.5,0.9-0.9
				c0.6-0.5,1-0.9,1.3-1.2s0.3-0.6,0.3-0.8c0-0.3-0.1-0.5-0.3-0.7s-0.5-0.3-0.8-0.3s-0.6,0.1-0.8,0.3s-0.3,0.5-0.3,0.8l-0.7-0.1
				c0-0.5,0.2-1,0.6-1.2c0.3-0.3,0.8-0.4,1.3-0.4s1,0.2,1.3,0.5s0.5,0.7,0.5,1.1c0,0.2,0,0.5-0.1,0.7s-0.2,0.5-0.5,0.7
				c-0.2,0.2-0.6,0.6-1.1,1c-0.4,0.4-0.7,0.6-0.8,0.7c-0.1,0.1-0.2,0.3-0.3,0.4H606.7z"/>
			<path class="st7" d="M610.1,694.5h-0.7V690c-0.2,0.2-0.4,0.3-0.7,0.5s-0.5,0.3-0.7,0.4v-0.7c0.4-0.2,0.7-0.4,1-0.7
				s0.5-0.5,0.6-0.8h0.5L610.1,694.5L610.1,694.5z"/>
			<path class="st7" d="M611.9,691.7c0-0.7,0.1-1.2,0.2-1.6c0.1-0.4,0.3-0.7,0.6-1c0.3-0.2,0.6-0.3,1-0.3c0.3,0,0.6,0.1,0.8,0.2
				c0.2,0.1,0.4,0.3,0.6,0.5c0.2,0.2,0.3,0.5,0.4,0.9s0.1,0.8,0.1,1.4c0,0.7-0.1,1.2-0.2,1.6c-0.1,0.4-0.3,0.7-0.6,1
				c-0.3,0.2-0.6,0.3-1,0.3c-0.6,0-1-0.2-1.3-0.6C612.1,693.6,611.9,692.8,611.9,691.7z M612.7,691.7c0,0.9,0.1,1.6,0.3,1.9
				c0.2,0.3,0.5,0.5,0.8,0.5s0.6-0.2,0.8-0.5s0.3-0.9,0.3-1.9c0-0.9-0.1-1.6-0.3-1.9c-0.2-0.3-0.5-0.5-0.8-0.5s-0.6,0.1-0.8,0.4
				C612.8,690.1,612.7,690.8,612.7,691.7z"/>
			<path class="st7" d="M617.5,691.4c-0.3-0.1-0.5-0.3-0.6-0.5s-0.2-0.4-0.2-0.7c0-0.4,0.2-0.8,0.4-1.1c0.3-0.3,0.7-0.4,1.2-0.4
				s0.9,0.1,1.2,0.4s0.5,0.6,0.5,1.1c0,0.3-0.1,0.5-0.2,0.7c-0.1,0.2-0.4,0.3-0.6,0.5c0.4,0.1,0.6,0.3,0.8,0.6s0.3,0.6,0.3,0.9
				c0,0.5-0.2,0.9-0.5,1.2s-0.8,0.5-1.4,0.5c-0.6,0-1-0.2-1.4-0.5c-0.3-0.3-0.5-0.8-0.5-1.3c0-0.4,0.1-0.7,0.3-0.9
				C616.8,691.7,617.1,691.5,617.5,691.4z M617.1,692.9c0,0.2,0,0.4,0.1,0.6c0.1,0.2,0.2,0.3,0.4,0.4s0.4,0.2,0.6,0.2
				c0.3,0,0.6-0.1,0.8-0.3s0.3-0.5,0.3-0.8s-0.1-0.6-0.3-0.8s-0.5-0.3-0.8-0.3s-0.6,0.1-0.8,0.3
				C617.2,692.3,617.1,692.6,617.1,692.9z M617.3,690.3c0,0.3,0.1,0.5,0.3,0.7s0.4,0.3,0.7,0.3s0.5-0.1,0.7-0.3s0.3-0.4,0.3-0.6
				c0-0.3-0.1-0.5-0.3-0.7s-0.4-0.3-0.7-0.3s-0.5,0.1-0.7,0.3C617.4,689.8,617.3,690,617.3,690.3z"/>
		</g>
	</g>
	<g>
		<g class="st6">
			<path class="st8" d="M554.4,709.8v1h-3.8c0-0.4,0.2-0.8,0.4-1.1s0.6-0.8,1.2-1.4c0.5-0.5,0.8-0.8,0.9-0.9
				c0.2-0.2,0.2-0.5,0.2-0.7s-0.1-0.4-0.2-0.6c-0.1-0.1-0.3-0.2-0.5-0.2s-0.4,0.1-0.5,0.2c-0.1,0.1-0.2,0.4-0.2,0.7l-1.1-0.1
				c0.1-0.6,0.3-1,0.6-1.3s0.8-0.4,1.3-0.4c0.6,0,1,0.2,1.3,0.5s0.5,0.7,0.5,1.1c0,0.3,0,0.5-0.1,0.7s-0.2,0.5-0.4,0.7
				c-0.1,0.2-0.4,0.4-0.7,0.7s-0.6,0.5-0.7,0.6c-0.1,0.1-0.2,0.2-0.2,0.3h2V709.8z"/>
			<path class="st8" d="M557.9,710.9h-1.1v-4.1c-0.4,0.4-0.9,0.7-1.4,0.8v-1c0.3-0.1,0.6-0.3,0.9-0.5s0.6-0.6,0.7-0.9h0.9
				L557.9,710.9L557.9,710.9z"/>
			<path class="st8" d="M561.4,705.1c0.6,0,1,0.2,1.3,0.6c0.4,0.5,0.6,1.2,0.6,2.3s-0.2,1.9-0.6,2.3c-0.3,0.4-0.7,0.6-1.3,0.6
				s-1-0.2-1.3-0.6c-0.3-0.4-0.5-1.2-0.5-2.3s0.2-1.9,0.6-2.3C560.4,705.3,560.9,705.1,561.4,705.1z M561.4,706
				c-0.1,0-0.3,0-0.4,0.1c-0.1,0.1-0.2,0.2-0.2,0.5c-0.1,0.3-0.1,0.8-0.1,1.4s0,1.1,0.1,1.4c0.1,0.3,0.2,0.4,0.3,0.5
				s0.2,0.1,0.4,0.1s0.3,0,0.4-0.1c0.1-0.1,0.2-0.2,0.2-0.5c0.1-0.3,0.1-0.8,0.1-1.4s0-1.1-0.1-1.4c-0.1-0.3-0.2-0.4-0.3-0.5
				C561.7,706.1,561.6,706,561.4,706z"/>
			<path class="st8" d="M564,706.2v-1h3.8v0.8c-0.3,0.3-0.6,0.7-0.9,1.3s-0.6,1.2-0.7,1.8s-0.3,1.2-0.2,1.7h-1.1
				c0-0.8,0.2-1.6,0.5-2.4s0.7-1.6,1.2-2.2L564,706.2L564,706.2z"/>
		</g>
		<g class="st6">
			<path class="st8" d="M549.6,714.7h2.3c0.5,0,0.8,0,1,0.1s0.4,0.1,0.6,0.2s0.3,0.3,0.4,0.5s0.2,0.4,0.2,0.7s-0.1,0.5-0.2,0.7
				s-0.3,0.4-0.6,0.5c0.3,0.1,0.6,0.3,0.8,0.5s0.3,0.5,0.3,0.9c0,0.3-0.1,0.5-0.2,0.8s-0.3,0.4-0.5,0.6c-0.2,0.1-0.5,0.2-0.8,0.3
				c-0.2,0-0.7,0-1.4,0h-1.9L549.6,714.7L549.6,714.7z M550.8,715.7v1.3h0.8c0.5,0,0.7,0,0.8,0c0.2,0,0.4-0.1,0.5-0.2
				s0.2-0.3,0.2-0.4c0-0.2,0-0.3-0.1-0.4s-0.2-0.2-0.4-0.2c-0.1,0-0.4,0-1,0L550.8,715.7L550.8,715.7z M550.8,718v1.5h1.1
				c0.4,0,0.7,0,0.8,0c0.2,0,0.3-0.1,0.4-0.2c0.1-0.1,0.2-0.3,0.2-0.5s0-0.3-0.1-0.4c-0.1-0.1-0.2-0.2-0.4-0.3s-0.5-0.1-1-0.1H550.8
				z"/>
			<path class="st8" d="M556.4,720.5h-1.1v-4.1h1v0.6c0.2-0.3,0.3-0.5,0.5-0.6c0.1-0.1,0.3-0.1,0.5-0.1s0.5,0.1,0.7,0.2l-0.3,1
				c-0.2-0.1-0.4-0.2-0.5-0.2c-0.2,0-0.3,0-0.4,0.1c-0.1,0.1-0.2,0.2-0.3,0.5c-0.1,0.2-0.1,0.7-0.1,1.4L556.4,720.5L556.4,720.5z"/>
			<path class="st8" d="M559.3,717.6l-1-0.2c0.1-0.4,0.3-0.7,0.6-0.9s0.7-0.3,1.2-0.3s0.9,0.1,1.1,0.2c0.2,0.1,0.4,0.3,0.5,0.4
				s0.1,0.5,0.1,1v1.3c0,0.4,0,0.6,0.1,0.8s0.1,0.4,0.2,0.6H561c0-0.1-0.1-0.2-0.1-0.3s0-0.1,0-0.1c-0.2,0.2-0.4,0.3-0.6,0.4
				c-0.2,0.1-0.4,0.1-0.7,0.1c-0.4,0-0.8-0.1-1-0.3s-0.4-0.5-0.4-0.9c0-0.2,0.1-0.4,0.2-0.6c0.1-0.2,0.3-0.3,0.5-0.4
				c0.2-0.1,0.5-0.2,0.9-0.3c0.5-0.1,0.9-0.2,1.1-0.3v-0.1c0-0.2-0.1-0.4-0.2-0.5c-0.1-0.1-0.3-0.1-0.6-0.1c-0.2,0-0.3,0-0.5,0.1
				S559.4,717.4,559.3,717.6z M560.8,718.5c-0.1,0-0.4,0.1-0.7,0.2s-0.5,0.1-0.6,0.2c-0.1,0.1-0.2,0.2-0.2,0.4s0.1,0.3,0.2,0.4
				c0.1,0.1,0.3,0.2,0.4,0.2c0.2,0,0.4-0.1,0.6-0.2c0.1-0.1,0.2-0.2,0.3-0.4c0-0.1,0-0.3,0-0.5V718.5z"/>
			<path class="st8" d="M564,714.7v2.1c0.4-0.4,0.8-0.6,1.3-0.6c0.3,0,0.5,0,0.7,0.1s0.4,0.2,0.5,0.4c0.1,0.1,0.2,0.3,0.2,0.5
				s0.1,0.5,0.1,0.8v2.4h-1.1v-2.2c0-0.4,0-0.7-0.1-0.8c0-0.1-0.1-0.2-0.2-0.3s-0.2-0.1-0.4-0.1s-0.3,0-0.5,0.1
				c-0.1,0.1-0.2,0.2-0.3,0.4s-0.1,0.4-0.1,0.8v2.1H563v-5.7H564z"/>
			<path class="st8" d="M570.2,719.1l1.1,0.2c-0.1,0.4-0.4,0.7-0.7,0.9s-0.7,0.3-1.1,0.3c-0.7,0-1.3-0.2-1.6-0.7
				c-0.3-0.4-0.4-0.9-0.4-1.4c0-0.7,0.2-1.2,0.5-1.6s0.8-0.6,1.4-0.6c0.6,0,1.1,0.2,1.5,0.6c0.4,0.4,0.5,1,0.5,1.9h-2.8
				c0,0.3,0.1,0.6,0.3,0.8s0.4,0.3,0.6,0.3c0.2,0,0.3,0,0.4-0.1S570.2,719.4,570.2,719.1z M570.3,718c0-0.3-0.1-0.6-0.2-0.7
				s-0.3-0.2-0.6-0.2c-0.2,0-0.4,0.1-0.6,0.3s-0.2,0.4-0.2,0.7L570.3,718L570.3,718z"/>
		</g>
	</g>
	<g>
		<g class="st6">
			<path class="st8" d="M483.9,692.3l-0.3,1l-3.7-1.2c0.2-0.4,0.4-0.7,0.7-0.9s0.8-0.6,1.6-0.9c0.6-0.3,1-0.5,1.2-0.6
				c0.2-0.2,0.4-0.4,0.4-0.6c0.1-0.2,0.1-0.4,0-0.6c-0.1-0.2-0.2-0.3-0.5-0.4c-0.2-0.1-0.4-0.1-0.6,0s-0.3,0.3-0.4,0.6l-1-0.4
				c0.3-0.6,0.6-0.9,1-1s0.9-0.1,1.3,0c0.5,0.2,0.9,0.5,1.1,0.9s0.2,0.8,0.1,1.2c-0.1,0.2-0.2,0.5-0.4,0.7c-0.2,0.2-0.4,0.4-0.6,0.6
				c-0.2,0.1-0.5,0.3-0.9,0.5s-0.7,0.3-0.8,0.4c-0.1,0.1-0.2,0.1-0.3,0.2L483.9,692.3z"/>
			<path class="st8" d="M486.9,694.4l-1-0.3l1.3-3.9c-0.5,0.2-1,0.3-1.6,0.3l0.3-0.9c0.3,0,0.7-0.1,1.1-0.2c0.4-0.1,0.7-0.4,0.9-0.7
				l0.8,0.3L486.9,694.4z"/>
			<path class="st8" d="M492,690.1c0.5,0.2,0.9,0.5,1,1c0.2,0.6,0.1,1.4-0.2,2.4c-0.3,1-0.8,1.7-1.3,2c-0.4,0.3-0.9,0.3-1.4,0.1
				s-0.9-0.5-1.1-1s-0.1-1.3,0.2-2.3c0.3-1,0.8-1.7,1.3-2C491,689.9,491.5,689.9,492,690.1z M491.8,690.9c-0.1,0-0.3,0-0.4,0
				s-0.2,0.2-0.4,0.4c-0.2,0.2-0.3,0.7-0.6,1.3c-0.2,0.6-0.3,1.1-0.3,1.3c0,0.3,0,0.4,0.1,0.6c0.1,0.1,0.2,0.2,0.3,0.2
				c0.1,0,0.3,0,0.4,0s0.2-0.2,0.4-0.4c0.2-0.2,0.3-0.7,0.6-1.3c0.2-0.6,0.3-1.1,0.3-1.3c0-0.3,0-0.4-0.1-0.6
				C492,691,491.9,691,491.8,690.9z"/>
			<path class="st8" d="M497.6,693.4l-1-0.2c0-0.2,0-0.4,0-0.5c-0.1-0.1-0.2-0.2-0.4-0.3c-0.2-0.1-0.4,0-0.7,0.1
				c-0.2,0.1-0.5,0.5-0.7,1.1c0.4-0.2,0.7-0.3,1.1-0.1c0.4,0.1,0.8,0.4,1,0.9c0.2,0.4,0.2,0.9,0,1.4c-0.2,0.6-0.5,0.9-0.9,1.2
				c-0.4,0.2-0.9,0.3-1.4,0.1s-0.9-0.5-1.1-1.1c-0.2-0.5-0.2-1.3,0.2-2.3c0.3-1,0.8-1.7,1.3-2s1.1-0.4,1.7-0.2
				c0.4,0.1,0.7,0.4,0.9,0.7S497.7,692.9,497.6,693.4z M494.5,694.9c-0.1,0.3-0.1,0.6,0,0.9c0.1,0.2,0.2,0.4,0.4,0.5
				c0.2,0.1,0.4,0,0.6-0.1s0.3-0.3,0.4-0.7s0.1-0.6,0-0.8s-0.2-0.3-0.4-0.4c-0.2-0.1-0.4,0-0.6,0.1
				C494.7,694.4,494.6,694.6,494.5,694.9z"/>
		</g>
		<g class="st6">
			<path class="st8" d="M475.3,700.7l-0.1-6.1l1.2,0.4v4.5l2.7-3.6l1.2,0.4l-3.8,4.8L475.3,700.7z"/>
			<path class="st8" d="M478.8,701.9l1.3-3.9l1,0.3l-1.3,3.9L478.8,701.9z M480.3,697.4l0.3-1l1,0.3l-0.3,1L480.3,697.4z"/>
			<path class="st8" d="M480.9,701.3l1.1,0.2c0,0.2,0,0.4,0.1,0.6c0.1,0.1,0.3,0.3,0.5,0.3c0.3,0.1,0.5,0.1,0.7,0.1
				c0.1,0,0.2-0.1,0.2-0.2c0-0.1,0-0.2,0-0.2c0-0.1-0.1-0.2-0.3-0.3c-0.8-0.5-1.3-0.8-1.4-1c-0.2-0.3-0.3-0.7-0.2-1
				c0.1-0.3,0.3-0.6,0.7-0.7s0.8-0.1,1.4,0.1c0.5,0.2,0.9,0.4,1.1,0.7s0.3,0.6,0.3,1l-1-0.1c0-0.2,0-0.3-0.1-0.4
				c-0.1-0.1-0.2-0.2-0.5-0.3s-0.5-0.1-0.6-0.1s-0.2,0.1-0.2,0.2c0,0.1,0,0.1,0,0.2c0.1,0.1,0.4,0.3,0.9,0.6s0.8,0.6,1,0.8
				c0.2,0.3,0.2,0.6,0.1,0.9c-0.1,0.4-0.4,0.6-0.8,0.8s-0.9,0.1-1.5-0.1c-0.5-0.2-0.9-0.4-1.2-0.7S480.9,701.7,480.9,701.3z"/>
			<path class="st8" d="M485.2,704l1.3-3.9l1,0.3l-1.3,3.9L485.2,704z M486.6,699.5l0.3-1l1,0.3l-0.3,1L486.6,699.5z"/>
			<path class="st8" d="M490.4,701.3l-0.3,0.8l-0.7-0.2l-0.5,1.6c-0.1,0.3-0.2,0.5-0.2,0.6s0,0.1,0,0.2s0.1,0.1,0.2,0.1s0.2,0,0.5,0
				l-0.2,0.8c-0.3,0-0.6,0-0.9-0.1c-0.2-0.1-0.3-0.2-0.5-0.3c-0.1-0.1-0.2-0.2-0.3-0.4c0-0.1,0-0.3,0-0.5c0-0.1,0.1-0.4,0.2-0.7
				l0.6-1.7l-0.5-0.2l0.3-0.8l0.5,0.2l0.3-0.8l1.2-0.3l-0.5,1.4L490.4,701.3z"/>
			<path class="st8" d="M490.2,703.4c0.1-0.3,0.3-0.7,0.6-0.9c0.3-0.3,0.6-0.4,1-0.5s0.7,0,1.1,0.1c0.6,0.2,1,0.6,1.3,1.1
				s0.3,1.1,0.1,1.7c-0.2,0.6-0.6,1-1.1,1.3s-1.1,0.3-1.6,0.1c-0.4-0.1-0.7-0.3-1-0.6s-0.4-0.6-0.5-1
				C490,704.3,490.1,703.8,490.2,703.4z M491.3,703.8c-0.1,0.4-0.1,0.7,0,1s0.3,0.4,0.6,0.5c0.3,0.1,0.5,0.1,0.8-0.1
				s0.4-0.4,0.6-0.8c0.1-0.4,0.1-0.7,0-1s-0.3-0.4-0.6-0.5c-0.3-0.1-0.5-0.1-0.8,0.1C491.6,703.1,491.4,703.4,491.3,703.8z"/>
			<path class="st8" d="M495.4,707.4l-1-0.3l1.3-3.9l1,0.3l-0.2,0.6c0.3-0.2,0.5-0.3,0.6-0.4c0.2,0,0.3,0,0.5,0
				c0.2,0.1,0.4,0.2,0.6,0.4l-0.6,0.8c-0.1-0.2-0.3-0.3-0.4-0.3s-0.3,0-0.4,0s-0.3,0.2-0.4,0.4s-0.3,0.6-0.5,1.3L495.4,707.4z"/>
		</g>
		<g class="st6">
			<path class="st8" d="M481.6,712.9l1.8-5.4l1.1,0.4l-1.8,5.4L481.6,712.9z"/>
			<path class="st8" d="M483.7,713.6l1.8-5.4l1.1,0.4l-1.8,5.4L483.7,713.6z"/>
		</g>
	</g>
	<g>
		<g class="st6">
			<path class="st8" d="M347.8,446.3v1H344c0-0.4,0.2-0.8,0.4-1.1s0.6-0.8,1.2-1.4c0.5-0.5,0.8-0.8,0.9-0.9c0.2-0.2,0.2-0.5,0.2-0.7
				s-0.1-0.4-0.2-0.6s-0.3-0.2-0.5-0.2s-0.4,0.1-0.5,0.2s-0.2,0.4-0.2,0.7l-1.1-0.1c0.1-0.6,0.3-1,0.6-1.3s0.8-0.4,1.3-0.4
				c0.6,0,1,0.2,1.3,0.5s0.5,0.7,0.5,1.1c0,0.3,0,0.5-0.1,0.7s-0.2,0.5-0.4,0.7c-0.1,0.2-0.4,0.4-0.7,0.7s-0.6,0.5-0.7,0.6
				s-0.2,0.2-0.2,0.3h2L347.8,446.3L347.8,446.3z"/>
			<path class="st8" d="M351.4,447.3h-1.1v-4.1c-0.4,0.4-0.9,0.7-1.4,0.8v-1c0.3-0.1,0.6-0.3,0.9-0.5s0.6-0.6,0.7-0.9h0.9V447.3z"/>
			<path class="st8" d="M354.9,441.5c0.6,0,1,0.2,1.3,0.6c0.4,0.5,0.6,1.2,0.6,2.3c0,1.1-0.2,1.9-0.6,2.3c-0.3,0.4-0.7,0.6-1.3,0.6
				c-0.6,0-1-0.2-1.3-0.6s-0.5-1.2-0.5-2.3c0-1.1,0.2-1.9,0.6-2.3C353.9,441.7,354.3,441.5,354.9,441.5z M354.9,442.5
				c-0.1,0-0.3,0-0.4,0.1s-0.2,0.2-0.2,0.5c-0.1,0.3-0.1,0.8-0.1,1.4s0,1.1,0.1,1.4s0.2,0.4,0.3,0.5s0.2,0.1,0.4,0.1s0.3,0,0.4-0.1
				s0.2-0.2,0.2-0.5c0.1-0.3,0.1-0.8,0.1-1.4s0-1.1-0.1-1.4s-0.2-0.4-0.3-0.5S355,442.5,354.9,442.5z"/>
			<path class="st8" d="M361.2,446.3v1h-3.8c0-0.4,0.2-0.8,0.4-1.1s0.6-0.8,1.2-1.4c0.5-0.5,0.8-0.8,0.9-0.9
				c0.2-0.2,0.2-0.5,0.2-0.7s-0.1-0.4-0.2-0.6s-0.3-0.2-0.5-0.2s-0.4,0.1-0.5,0.2s-0.2,0.4-0.2,0.7l-1.1-0.1c0.1-0.6,0.3-1,0.6-1.3
				s0.8-0.4,1.3-0.4c0.6,0,1,0.2,1.3,0.5s0.5,0.7,0.5,1.1c0,0.3,0,0.5-0.1,0.7s-0.2,0.5-0.4,0.7c-0.1,0.2-0.4,0.4-0.7,0.7
				s-0.6,0.5-0.7,0.6s-0.2,0.2-0.2,0.3h2L361.2,446.3L361.2,446.3z"/>
		</g>
		<g class="st6">
			<path class="st8" d="M342,456.9v-5.7h1.2v2.5l2.3-2.5h1.6l-2.2,2.2l2.3,3.5h-1.5l-1.6-2.7l-0.9,1v1.7H342z"/>
			<path class="st8" d="M350.1,455.6l1.1,0.2c-0.1,0.4-0.4,0.7-0.7,0.9s-0.7,0.3-1.1,0.3c-0.7,0-1.3-0.2-1.6-0.7
				c-0.3-0.4-0.4-0.9-0.4-1.4c0-0.7,0.2-1.2,0.5-1.6s0.8-0.6,1.4-0.6s1.1,0.2,1.5,0.6s0.5,1,0.5,1.9h-2.8c0,0.3,0.1,0.6,0.3,0.8
				s0.4,0.3,0.6,0.3s0.3,0,0.4-0.1S350.1,455.8,350.1,455.6z M350.2,454.5c0-0.3-0.1-0.6-0.2-0.7s-0.3-0.2-0.6-0.2
				c-0.2,0-0.4,0.1-0.6,0.3s-0.2,0.4-0.2,0.7L350.2,454.5L350.2,454.5z"/>
			<path class="st8" d="M352.2,452.7h1v0.6c0.1-0.2,0.3-0.4,0.5-0.5s0.5-0.2,0.8-0.2c0.5,0,0.9,0.2,1.2,0.6s0.5,0.9,0.5,1.6
				s-0.2,1.2-0.5,1.6s-0.7,0.6-1.2,0.6c-0.2,0-0.4,0-0.6-0.1s-0.4-0.2-0.6-0.5v2.1h-1.1L352.2,452.7L352.2,452.7z M353.2,454.7
				c0,0.5,0.1,0.8,0.3,1s0.4,0.3,0.7,0.3c0.3,0,0.5-0.1,0.6-0.3s0.3-0.5,0.3-1c0-0.4-0.1-0.8-0.3-1s-0.4-0.3-0.6-0.3
				c-0.3,0-0.5,0.1-0.7,0.3S353.2,454.3,353.2,454.7z"/>
			<path class="st8" d="M357.1,456.9v-5.7h1.1v5.7H357.1z"/>
			<path class="st8" d="M361.7,455.6l1.1,0.2c-0.1,0.4-0.4,0.7-0.7,0.9s-0.7,0.3-1.1,0.3c-0.7,0-1.3-0.2-1.6-0.7
				c-0.3-0.4-0.4-0.9-0.4-1.4c0-0.7,0.2-1.2,0.5-1.6s0.8-0.6,1.4-0.6s1.1,0.2,1.5,0.6s0.5,1,0.5,1.9h-2.8c0,0.3,0.1,0.6,0.3,0.8
				s0.4,0.3,0.6,0.3s0.3,0,0.4-0.1S361.6,455.8,361.7,455.6z M361.8,454.5c0-0.3-0.1-0.6-0.2-0.7s-0.3-0.2-0.6-0.2
				c-0.2,0-0.4,0.1-0.6,0.3s-0.2,0.4-0.2,0.7L361.8,454.5L361.8,454.5z"/>
			<path class="st8" d="M364.8,456.9h-1.1v-4.1h1v0.6c0.2-0.3,0.3-0.5,0.5-0.6s0.3-0.1,0.5-0.1s0.5,0.1,0.7,0.2l-0.3,1
				c-0.2-0.1-0.4-0.2-0.5-0.2c-0.2,0-0.3,0-0.4,0.1s-0.2,0.2-0.3,0.5s-0.1,0.7-0.1,1.4L364.8,456.9L364.8,456.9z"/>
		</g>
	</g>
	<g class="st6">
		<path class="st7" d="M380.4,521.8v0.7h-3.8c0-0.2,0-0.3,0.1-0.5c0.1-0.3,0.3-0.5,0.5-0.8s0.5-0.5,0.9-0.9c0.6-0.5,1-0.9,1.3-1.2
			s0.3-0.6,0.3-0.8c0-0.3-0.1-0.5-0.3-0.7s-0.5-0.3-0.8-0.3s-0.6,0.1-0.8,0.3s-0.3,0.5-0.3,0.8l-0.7-0.1c0-0.5,0.2-1,0.6-1.2
			s0.8-0.4,1.3-0.4s1,0.2,1.3,0.5s0.5,0.7,0.5,1.1c0,0.2,0,0.5-0.1,0.7s-0.2,0.5-0.5,0.7s-0.6,0.6-1.1,1c-0.4,0.4-0.7,0.6-0.8,0.7
			s-0.2,0.3-0.3,0.4H380.4z"/>
		<path class="st7" d="M383.8,522.5h-0.7V518c-0.2,0.2-0.4,0.3-0.7,0.5s-0.5,0.3-0.7,0.4v-0.7c0.4-0.2,0.7-0.4,1-0.7
			s0.5-0.5,0.6-0.8h0.5L383.8,522.5L383.8,522.5z"/>
		<path class="st7" d="M385.6,519.7c0-0.7,0.1-1.2,0.2-1.6s0.3-0.7,0.6-1s0.6-0.3,1-0.3c0.3,0,0.6,0.1,0.8,0.2s0.4,0.3,0.6,0.5
			s0.3,0.5,0.4,0.9s0.1,0.8,0.1,1.4c0,0.7-0.1,1.2-0.2,1.6s-0.3,0.7-0.6,1s-0.6,0.3-1,0.3c-0.6,0-1-0.2-1.3-0.6
			C385.8,521.5,385.6,520.8,385.6,519.7z M386.3,519.7c0,0.9,0.1,1.6,0.3,1.9s0.5,0.5,0.8,0.5s0.6-0.2,0.8-0.5s0.3-0.9,0.3-1.9
			c0-0.9-0.1-1.6-0.3-1.9s-0.5-0.5-0.8-0.5s-0.6,0.1-0.8,0.4C386.4,518.1,386.3,518.7,386.3,519.7z"/>
		<path class="st7" d="M392.7,522.5H392V518c-0.2,0.2-0.4,0.3-0.7,0.5s-0.5,0.3-0.7,0.4v-0.7c0.4-0.2,0.7-0.4,1-0.7s0.5-0.5,0.6-0.8
			h0.5L392.7,522.5L392.7,522.5z"/>
	</g>
	<g>
		<g class="st6">
			<path class="st8" d="M265.4,510.7v1h-3.8c0-0.4,0.2-0.8,0.4-1.1s0.6-0.8,1.2-1.4c0.5-0.5,0.8-0.8,0.9-0.9
				c0.2-0.2,0.2-0.5,0.2-0.7s-0.1-0.4-0.2-0.6s-0.3-0.2-0.5-0.2s-0.4,0.1-0.5,0.2s-0.2,0.4-0.2,0.7l-1.1-0.1c0.1-0.6,0.3-1,0.6-1.3
				s0.8-0.4,1.3-0.4c0.6,0,1,0.2,1.3,0.5s0.5,0.7,0.5,1.1c0,0.3,0,0.5-0.1,0.7s-0.2,0.5-0.4,0.7c-0.1,0.2-0.4,0.4-0.7,0.7
				s-0.6,0.5-0.7,0.6s-0.2,0.2-0.2,0.3h2L265.4,510.7L265.4,510.7z"/>
			<path class="st8" d="M268.9,511.7h-1.1v-4.1c-0.4,0.4-0.9,0.7-1.4,0.8v-1c0.3-0.1,0.6-0.3,0.9-0.5s0.6-0.6,0.7-0.9h0.9V511.7z"/>
			<path class="st8" d="M272.4,506c0.6,0,1,0.2,1.3,0.6c0.4,0.5,0.6,1.2,0.6,2.3c0,1.1-0.2,1.9-0.6,2.3c-0.3,0.4-0.7,0.6-1.3,0.6
				c-0.6,0-1-0.2-1.3-0.6s-0.5-1.2-0.5-2.3c0-1.1,0.2-1.9,0.6-2.3C271.4,506.1,271.8,506,272.4,506z M272.4,506.9
				c-0.1,0-0.3,0-0.4,0.1s-0.2,0.2-0.2,0.5c-0.1,0.3-0.1,0.8-0.1,1.4s0,1.1,0.1,1.4s0.2,0.4,0.3,0.5s0.2,0.1,0.4,0.1s0.3,0,0.4-0.1
				s0.2-0.2,0.2-0.5c0.1-0.3,0.1-0.8,0.1-1.4s0-1.1-0.1-1.4s-0.2-0.4-0.3-0.5S272.5,506.9,272.4,506.9z"/>
			<path class="st8" d="M275,510.2l1.1-0.1c0,0.3,0.1,0.5,0.3,0.6s0.3,0.2,0.5,0.2s0.4-0.1,0.6-0.3s0.2-0.4,0.2-0.7
				c0-0.3-0.1-0.5-0.2-0.7s-0.3-0.2-0.5-0.2c-0.1,0-0.3,0-0.5,0.1l0.1-0.9c0.3,0,0.5-0.1,0.7-0.2s0.2-0.3,0.2-0.5s-0.1-0.3-0.2-0.5
				s-0.3-0.2-0.5-0.2s-0.3,0.1-0.5,0.2s-0.2,0.3-0.2,0.6l-1-0.2c0.1-0.3,0.2-0.6,0.3-0.8s0.3-0.4,0.6-0.5s0.5-0.2,0.9-0.2
				c0.5,0,1,0.2,1.3,0.5s0.4,0.6,0.4,1c0,0.5-0.3,0.9-0.8,1.2c0.3,0.1,0.6,0.2,0.8,0.5s0.3,0.5,0.3,0.9c0,0.5-0.2,0.9-0.6,1.3
				s-0.8,0.5-1.4,0.5c-0.5,0-0.9-0.1-1.3-0.4S275,510.7,275,510.2z"/>
		</g>
		<g class="st6">
			<path class="st8" d="M249.9,521.3v-5.7h1.2v2.5l2.3-2.5h1.6l-2.2,2.2l2.3,3.5h-1.5l-1.6-2.7l-0.9,1v1.7H249.9z"/>
			<path class="st8" d="M255.4,519.2c0-0.4,0.1-0.7,0.3-1.1s0.4-0.6,0.8-0.8s0.7-0.3,1.1-0.3c0.6,0,1.1,0.2,1.5,0.6s0.6,0.9,0.6,1.5
				s-0.2,1.1-0.6,1.6s-0.9,0.6-1.5,0.6c-0.4,0-0.7-0.1-1.1-0.3s-0.6-0.4-0.8-0.8S255.4,519.6,255.4,519.2z M256.5,519.2
				c0,0.4,0.1,0.7,0.3,0.9s0.4,0.3,0.7,0.3s0.5-0.1,0.7-0.3s0.3-0.5,0.3-1c0-0.4-0.1-0.7-0.3-0.9s-0.4-0.3-0.7-0.3s-0.5,0.1-0.7,0.3
				S256.5,518.8,256.5,519.2z"/>
			<path class="st8" d="M260.5,517.2h1v0.6c0.1-0.2,0.3-0.4,0.5-0.5s0.5-0.2,0.8-0.2c0.5,0,0.9,0.2,1.2,0.6s0.5,0.9,0.5,1.6
				c0,0.7-0.2,1.2-0.5,1.6s-0.7,0.6-1.2,0.6c-0.2,0-0.4,0-0.6-0.1s-0.4-0.2-0.6-0.5v2.1h-1.1L260.5,517.2L260.5,517.2z M261.6,519.2
				c0,0.5,0.1,0.8,0.3,1s0.4,0.3,0.7,0.3c0.3,0,0.5-0.1,0.6-0.3s0.3-0.5,0.3-1c0-0.4-0.1-0.8-0.3-1s-0.4-0.3-0.6-0.3
				c-0.3,0-0.5,0.1-0.7,0.3S261.6,518.7,261.6,519.2z"/>
			<path class="st8" d="M267.8,520l1.1,0.2c-0.1,0.4-0.4,0.7-0.7,0.9s-0.7,0.3-1.1,0.3c-0.7,0-1.3-0.2-1.6-0.7
				c-0.3-0.4-0.4-0.9-0.4-1.4c0-0.7,0.2-1.2,0.5-1.6s0.8-0.6,1.4-0.6s1.1,0.2,1.5,0.6s0.5,1,0.5,1.9h-2.8c0,0.3,0.1,0.6,0.3,0.8
				s0.4,0.3,0.6,0.3s0.3,0,0.4-0.1S267.8,520.2,267.8,520z M267.9,518.9c0-0.3-0.1-0.6-0.2-0.7s-0.3-0.2-0.6-0.2
				c-0.2,0-0.4,0.1-0.6,0.3s-0.2,0.4-0.2,0.7L267.9,518.9L267.9,518.9z"/>
			<path class="st8" d="M270.9,521.3h-1.1v-4.1h1v0.6c0.2-0.3,0.3-0.5,0.5-0.6s0.3-0.1,0.5-0.1s0.5,0.1,0.7,0.2l-0.3,1
				c-0.2-0.1-0.4-0.2-0.5-0.2c-0.2,0-0.3,0-0.4,0.1s-0.2,0.2-0.3,0.5s-0.1,0.7-0.1,1.4L270.9,521.3L270.9,521.3z"/>
			<path class="st8" d="M276.8,521.3h-1.1v-2.1c0-0.4,0-0.7-0.1-0.9s-0.1-0.2-0.2-0.3s-0.2-0.1-0.4-0.1c-0.2,0-0.4,0.1-0.5,0.2
				s-0.3,0.2-0.3,0.4s-0.1,0.5-0.1,1v1.9H273v-4.1h1v0.6c0.4-0.5,0.8-0.7,1.4-0.7c0.2,0,0.5,0,0.7,0.1s0.4,0.2,0.5,0.3
				s0.2,0.3,0.2,0.5s0.1,0.4,0.1,0.7v2.5L276.8,521.3L276.8,521.3z"/>
			<path class="st8" d="M277.9,516.6v-1h1.1v1H277.9z M277.9,521.3v-4.1h1.1v4.1H277.9z"/>
			<path class="st8" d="M280.1,521.3v-5.7h1.1v3l1.3-1.5h1.4l-1.4,1.5l1.5,2.6h-1.2l-1-1.9l-0.5,0.5v1.3h-1.2L280.1,521.3
				L280.1,521.3z"/>
			<path class="st8" d="M287.3,521.3v-0.6c-0.2,0.2-0.3,0.4-0.6,0.5s-0.5,0.2-0.8,0.2s-0.5-0.1-0.8-0.2s-0.4-0.3-0.5-0.5
				s-0.1-0.5-0.1-0.9v-2.6h1.1v1.9c0,0.6,0,0.9,0.1,1.1s0.1,0.2,0.2,0.3s0.2,0.1,0.4,0.1c0.2,0,0.4-0.1,0.5-0.2s0.2-0.2,0.3-0.4
				s0.1-0.5,0.1-1.1v-1.8h1.1v4.1h-1L287.3,521.3L287.3,521.3z"/>
			<path class="st8" d="M289.1,520.1l1.1-0.2c0,0.2,0.1,0.4,0.3,0.5s0.3,0.2,0.6,0.2c0.3,0,0.5-0.1,0.6-0.2c0.1-0.1,0.1-0.2,0.1-0.3
				s0-0.2-0.1-0.2c-0.1-0.1-0.2-0.1-0.4-0.1c-0.9-0.2-1.4-0.4-1.7-0.5c-0.3-0.2-0.5-0.5-0.5-0.9s0.1-0.7,0.4-0.9s0.7-0.4,1.3-0.4
				c0.6,0,1,0.1,1.3,0.3s0.5,0.5,0.6,0.8l-1,0.2c0-0.2-0.1-0.3-0.3-0.4s-0.3-0.1-0.5-0.1c-0.3,0-0.5,0-0.6,0.1s-0.1,0.1-0.1,0.2
				c0,0.1,0,0.1,0.1,0.2c0.1,0.1,0.4,0.2,1,0.3s1,0.3,1.2,0.5s0.3,0.5,0.3,0.8c0,0.4-0.2,0.7-0.5,1s-0.8,0.4-1.4,0.4s-1-0.1-1.3-0.3
				S289.2,520.5,289.1,520.1z"/>
		</g>
	</g>
	<g>
		<g class="st6">
			<path class="st8" d="M330.1,606.6v1h-3.8c0-0.4,0.2-0.8,0.4-1.1s0.6-0.8,1.2-1.4c0.5-0.5,0.8-0.8,0.9-0.9
				c0.2-0.2,0.2-0.5,0.2-0.7s-0.1-0.4-0.2-0.6s-0.3-0.2-0.5-0.2s-0.4,0.1-0.5,0.2s-0.2,0.4-0.2,0.7l-1.1-0.1c0.1-0.6,0.3-1,0.6-1.3
				s0.8-0.4,1.3-0.4c0.6,0,1,0.2,1.3,0.5s0.5,0.7,0.5,1.1c0,0.3,0,0.5-0.1,0.7s-0.2,0.5-0.4,0.7c-0.1,0.2-0.4,0.4-0.7,0.7
				s-0.6,0.5-0.7,0.6s-0.2,0.2-0.2,0.3h2L330.1,606.6L330.1,606.6z"/>
			<path class="st8" d="M333.7,607.6h-1.1v-4.1c-0.4,0.4-0.9,0.7-1.4,0.8v-1c0.3-0.1,0.6-0.3,0.9-0.5s0.6-0.6,0.7-0.9h0.9V607.6z"/>
			<path class="st8" d="M337.2,601.8c0.6,0,1,0.2,1.3,0.6c0.4,0.5,0.6,1.2,0.6,2.3s-0.2,1.9-0.6,2.3c-0.3,0.4-0.7,0.6-1.3,0.6
				c-0.6,0-1-0.2-1.3-0.6s-0.5-1.2-0.5-2.3s0.2-1.9,0.6-2.3C336.2,602,336.6,601.8,337.2,601.8z M337.2,602.8c-0.1,0-0.3,0-0.4,0.1
				s-0.2,0.2-0.2,0.5c-0.1,0.3-0.1,0.8-0.1,1.4s0,1.1,0.1,1.4s0.2,0.4,0.3,0.5s0.2,0.1,0.4,0.1s0.3,0,0.4-0.1s0.2-0.2,0.2-0.5
				c0.1-0.3,0.1-0.8,0.1-1.4s0-1.1-0.1-1.4s-0.2-0.4-0.3-0.5S337.3,602.8,337.2,602.8z"/>
			<path class="st8" d="M341.9,607.6v-1.2h-2.3v-1l2.5-3.6h0.9v3.6h0.7v1H343v1.2H341.9z M341.9,605.5v-2l-1.3,2H341.9z"/>
		</g>
		<g class="st6">
			<path class="st8" d="M327.3,615.1v-1h2.5v2.3c-0.2,0.2-0.6,0.4-1.1,0.6s-0.9,0.3-1.4,0.3c-0.6,0-1.1-0.1-1.6-0.4s-0.8-0.6-1-1.1
				s-0.3-1-0.3-1.5c0-0.6,0.1-1.1,0.4-1.6s0.6-0.8,1.1-1.1c0.4-0.2,0.8-0.3,1.4-0.3c0.7,0,1.3,0.1,1.7,0.4s0.7,0.7,0.8,1.2l-1.1,0.2
				c-0.1-0.3-0.2-0.5-0.5-0.7s-0.5-0.2-0.8-0.2c-0.5,0-0.9,0.2-1.2,0.5s-0.4,0.8-0.4,1.4c0,0.7,0.2,1.2,0.5,1.5s0.7,0.5,1.2,0.5
				c0.2,0,0.5,0,0.7-0.1s0.5-0.2,0.6-0.3V615L327.3,615.1L327.3,615.1z"/>
			<path class="st8" d="M331.7,614.3l-1-0.2c0.1-0.4,0.3-0.7,0.6-0.9s0.7-0.3,1.2-0.3s0.9,0.1,1.1,0.2s0.4,0.3,0.5,0.4
				s0.1,0.5,0.1,1v1.3c0,0.4,0,0.6,0.1,0.8s0.1,0.4,0.2,0.6h-1.1c0-0.1-0.1-0.2-0.1-0.3s0-0.1,0-0.1c-0.2,0.2-0.4,0.3-0.6,0.4
				s-0.4,0.1-0.7,0.1c-0.4,0-0.8-0.1-1-0.3s-0.4-0.5-0.4-0.9c0-0.2,0.1-0.4,0.2-0.6s0.3-0.3,0.5-0.4s0.5-0.2,0.9-0.3
				c0.5-0.1,0.9-0.2,1.1-0.3v-0.1c0-0.2-0.1-0.4-0.2-0.5s-0.3-0.1-0.6-0.1c-0.2,0-0.3,0-0.5,0.1S331.8,614.1,331.7,614.3z
				 M333.2,615.2c-0.1,0-0.4,0.1-0.7,0.2s-0.5,0.1-0.6,0.2c-0.1,0.1-0.2,0.2-0.2,0.4s0.1,0.3,0.2,0.4s0.3,0.2,0.4,0.2
				c0.2,0,0.4-0.1,0.6-0.2c0.1-0.1,0.2-0.2,0.3-0.4c0-0.1,0-0.3,0-0.5L333.2,615.2L333.2,615.2z"/>
			<path class="st8" d="M335.3,617.2v-5.7h1.1v5.7H335.3z"/>
			<path class="st8" d="M337.6,612.5v-1h1.1v1H337.6z M337.6,617.2v-4.1h1.1v4.1H337.6z"/>
			<path class="st8" d="M339.8,617.2v-5.7h1.1v5.7H339.8z"/>
			<path class="st8" d="M344.4,615.9l1.1,0.2c-0.1,0.4-0.4,0.7-0.7,0.9s-0.7,0.3-1.1,0.3c-0.7,0-1.3-0.2-1.6-0.7
				c-0.3-0.4-0.4-0.9-0.4-1.4c0-0.7,0.2-1.2,0.5-1.6s0.8-0.6,1.4-0.6s1.1,0.2,1.5,0.6s0.5,1,0.5,1.9h-2.8c0,0.3,0.1,0.6,0.3,0.8
				s0.4,0.3,0.6,0.3s0.3,0,0.4-0.1S344.3,616.1,344.4,615.9z M344.5,614.8c0-0.3-0.1-0.6-0.2-0.7s-0.3-0.2-0.6-0.2
				c-0.2,0-0.4,0.1-0.6,0.3s-0.2,0.4-0.2,0.7L344.5,614.8L344.5,614.8z"/>
			<path class="st8" d="M346.5,612.5v-1h1.1v1H346.5z M346.5,617.2v-4.1h1.1v4.1H346.5z"/>
		</g>
	</g>
	<g>
		<g class="st6">
			<path class="st8" d="M382.3,644.9v1h-3.8c0-0.4,0.2-0.8,0.4-1.1c0.2-0.3,0.6-0.8,1.2-1.4c0.5-0.5,0.8-0.8,0.9-0.9
				c0.2-0.2,0.2-0.4,0.2-0.7c0-0.2-0.1-0.4-0.2-0.6c-0.1-0.1-0.3-0.2-0.5-0.2s-0.4,0.1-0.5,0.2c-0.1,0.1-0.2,0.4-0.2,0.7l-1.1-0.1
				c0.1-0.6,0.3-1,0.6-1.3c0.3-0.3,0.8-0.4,1.3-0.4c0.6,0,1,0.2,1.3,0.5s0.5,0.7,0.5,1.1c0,0.3,0,0.5-0.1,0.7s-0.2,0.5-0.4,0.7
				c-0.1,0.2-0.4,0.4-0.7,0.7c-0.3,0.3-0.6,0.5-0.7,0.6s-0.2,0.2-0.2,0.3h2L382.3,644.9L382.3,644.9z"/>
			<path class="st8" d="M385.8,646h-1.1v-4.1c-0.4,0.4-0.9,0.7-1.4,0.8v-1c0.3-0.1,0.6-0.3,0.9-0.5s0.6-0.6,0.7-0.9h0.9V646z"/>
			<path class="st8" d="M389.3,640.2c0.6,0,1,0.2,1.3,0.6c0.4,0.5,0.6,1.2,0.6,2.3s-0.2,1.9-0.6,2.3c-0.3,0.4-0.7,0.6-1.3,0.6
				c-0.6,0-1-0.2-1.3-0.6c-0.3-0.4-0.5-1.2-0.5-2.3s0.2-1.9,0.6-2.3C388.3,640.4,388.8,640.2,389.3,640.2z M389.3,641.1
				c-0.1,0-0.3,0-0.4,0.1s-0.2,0.2-0.2,0.5c-0.1,0.3-0.1,0.8-0.1,1.4s0,1.1,0.1,1.4c0.1,0.3,0.2,0.4,0.3,0.5
				c0.1,0.1,0.2,0.1,0.4,0.1s0.3,0,0.4-0.1s0.2-0.2,0.2-0.5c0.1-0.3,0.1-0.8,0.1-1.4s0-1.1-0.1-1.4c-0.1-0.2-0.2-0.4-0.3-0.5
				C389.6,641.2,389.5,641.1,389.3,641.1z"/>
			<path class="st8" d="M391.9,644.5l1.1-0.1c0,0.2,0.1,0.4,0.3,0.6s0.3,0.2,0.5,0.2s0.4-0.1,0.6-0.3s0.2-0.5,0.2-0.8
				c0-0.4-0.1-0.6-0.2-0.8s-0.4-0.3-0.6-0.3c-0.3,0-0.6,0.1-0.8,0.4l-0.9-0.1l0.6-3h2.9v1h-2.1l-0.2,1c0.2-0.1,0.5-0.2,0.8-0.2
				c0.5,0,0.9,0.2,1.2,0.5c0.3,0.4,0.5,0.8,0.5,1.4c0,0.5-0.1,0.9-0.4,1.3c-0.4,0.5-0.9,0.8-1.6,0.8c-0.5,0-1-0.1-1.3-0.4
				C392.2,645.3,392,645,391.9,644.5z"/>
		</g>
		<g class="st6">
			<path class="st8" d="M377,655.6v-5.7h1.2v2.3h2.3v-2.3h1.2v5.7h-1.2V653h-2.3v2.5L377,655.6L377,655.6z"/>
			<path class="st8" d="M383.6,652.7l-1-0.2c0.1-0.4,0.3-0.7,0.6-0.9s0.7-0.3,1.2-0.3s0.9,0.1,1.1,0.2c0.2,0.1,0.4,0.3,0.5,0.4
				s0.1,0.5,0.1,1v1.3c0,0.4,0,0.6,0.1,0.8s0.1,0.4,0.2,0.6h-1.1c0-0.1-0.1-0.2-0.1-0.3s0-0.1,0-0.1c-0.2,0.2-0.4,0.3-0.6,0.4
				c-0.2,0.1-0.4,0.1-0.7,0.1c-0.4,0-0.8-0.1-1-0.3s-0.4-0.5-0.4-0.9c0-0.2,0.1-0.4,0.2-0.6c0.1-0.2,0.3-0.3,0.5-0.4
				c0.2-0.1,0.5-0.2,0.9-0.3c0.5-0.1,0.9-0.2,1.1-0.3v-0.1c0-0.2-0.1-0.4-0.2-0.5s-0.3-0.1-0.6-0.1c-0.2,0-0.3,0-0.5,0.1
				S383.7,652.5,383.6,652.7z M385.1,653.6c-0.1,0-0.4,0.1-0.7,0.2s-0.5,0.1-0.6,0.2c-0.1,0.1-0.2,0.2-0.2,0.4s0.1,0.3,0.2,0.4
				c0.1,0.1,0.3,0.2,0.4,0.2c0.2,0,0.4-0.1,0.6-0.2c0.1-0.1,0.2-0.2,0.3-0.4c0-0.1,0-0.3,0-0.5L385.1,653.6L385.1,653.6z"/>
			<path class="st8" d="M387.2,655.6v-5.7h1.1v5.7H387.2z"/>
			<path class="st8" d="M389.5,655.6v-5.7h1.1v5.7H389.5z"/>
			<path class="st8" d="M394.1,654.2l1.1,0.2c-0.1,0.4-0.4,0.7-0.7,0.9c-0.3,0.2-0.7,0.3-1.1,0.3c-0.7,0-1.3-0.2-1.6-0.7
				c-0.3-0.4-0.4-0.9-0.4-1.4c0-0.7,0.2-1.2,0.5-1.6s0.8-0.6,1.4-0.6s1.1,0.2,1.5,0.6c0.4,0.4,0.5,1,0.5,1.9h-2.8
				c0,0.3,0.1,0.6,0.3,0.8c0.2,0.2,0.4,0.3,0.6,0.3s0.3,0,0.4-0.1S394,654.4,394.1,654.2z M394.2,653.1c0-0.3-0.1-0.6-0.2-0.7
				s-0.3-0.2-0.6-0.2c-0.2,0-0.4,0.1-0.6,0.3s-0.2,0.4-0.2,0.7L394.2,653.1L394.2,653.1z"/>
			<path class="st8" d="M395.6,651.4h1.2l1,2.9l1-2.9h1.1l-1.5,4l-0.3,0.7c-0.1,0.2-0.2,0.4-0.3,0.6c-0.1,0.1-0.2,0.2-0.3,0.3
				s-0.3,0.1-0.4,0.2c-0.2,0-0.4,0.1-0.6,0.1s-0.4,0-0.6-0.1l-0.1-0.9c0.2,0,0.3,0.1,0.5,0.1c0.3,0,0.4-0.1,0.6-0.2
				c0.1-0.1,0.2-0.3,0.3-0.6L395.6,651.4z"/>
		</g>
	</g>
</g>
<g id="outline_4_">
	<g>
		<g id="outline_3_">
			<g id="outline_2_">
				<g id="outline_1_">
					<g id="outline">
						<path class="st9" d="M151.1,141c0,0,15.2,43.3,40,79.2s56.9,69.6,56.9,69.6s36.4,31.6,41.6,39.5s22.7,30,33.2,62.2l7.9,27.9
							c-24.7,5.6-48.3,15-70.1,27.9c-34.8,21.1-52.2,36.4-52.2,36.4s12.6,54.8,78.5,129.6c0,0,22.3,28,67.6,60.2
							c10.3,7.4,21.9,14.9,34.6,22.5c68.5,40.5,170.2,51.1,170.2,51.1s66.9,4.7,117-7.4s88-27.4,119.1-45.3s48-31.6,48-31.6
							s-24.8-52.7-40.6-75.9s-20.5-34.3-47.4-60.6L728.5,500c0,0-35.8-26.3-55.3-75.9l-10-37.4c0,0,86.4-31.1,122.2-64.8l-4.7-15.8
							c0,0-15.8-48.5-53.7-91.2s-53.7-70.6-121.7-103.8S511,68.9,456.7,59.4c0,0-95.4-12.1-168.6,13.7S181.2,116.1,151.1,141z"/>
						<path class="st10" d="M414.3,318.3h-5.6l-7.6-45.6l-6.1-41.9c0,0-2.2-39-2.2-52.2s15-12.8,15-12.8c18.6-0.2,40.2,3.4,40.2,3.4
							l-5.1,33.7"/>
						<polyline class="st10" points="428.8,315.1 456.7,311.6 442.8,214.8 438.6,213.3 						"/>
						<line class="st10" x1="393.9" y1="211.5" x2="399.7" y2="210.7"/>
						<line class="st10" x1="406.1" y1="210.7" x2="426.7" y2="211.5"/>
						<polyline class="st10" points="462.7,171.8 467.3,172.5 460.2,199.6 463.8,200.5 						"/>
						<path class="st10" d="M467.3,172.5c0,0,45,9.1,78.2,29.1l26.3,16.3c0,0,9.1,4.6,4.8,17.9s-8.6,25.6-11.3,37.7
							c-1.6,6.9-2.8,13.8-3.5,20.8"/>
						<path class="st10" d="M431.4,512.2l-1.5,10.3c-4.4,23.6-10.4,35.1-14.1,47.5c0,0-3,8.6-0.7,11.8l9.2,7.8l9.9,6.2l13.7,6.8
							l29.6,14.8l13.9-33.2"/>
						<path class="st10" d="M429.5,442.3"/>
						<polyline class="st10" points="439.1,333.6 412.8,337.8 419.4,384.4 438.2,382.6 						"/>
						<polyline class="st10" points="455.4,379.3 468.6,377.3 467.7,373.4 						"/>
						<polyline class="st10" points="465.1,359 460.5,330.3 455.4,331 						"/>
						<path class="st11" d="M420.4,234.5l1.2-0.2c10.8-1.4,20.7,6.1,22.2,16.9l4.3,32c1.4,10.8-6.1,20.7-16.9,22.2l-1.2,0.2
							c-10.8,1.4-20.7-6.1-22.2-16.9l-4.3-32C402,245.8,409.6,235.9,420.4,234.5z"/>
						<path class="st12" d="M562,498.8l1.2-0.2c10.8-1.4,20.7,6.2,22.1,17l4.2,32c1.4,10.8-6.2,20.7-17,22.1l-1.2,0.2
							c-10.8,1.4-20.7-6.2-22.1-17l-4.2-32C543.6,510.2,551.2,500.3,562,498.8z"/>
						<polyline class="st12" points="563.7,490.8 536.2,494.1 551.1,590.2 554,591.2 566.1,593.5 587.1,594.3 597.1,594.3 						"/>
						<line class="st12" x1="594.6" y1="594.3" x2="599.6" y2="594.3"/>
						<path class="st10" d="M551.3,600.7l-6.5,35.4c0,0,1.3,0.2,3.4,0.4c8.7,1,31.4,3.4,40.6,2.3c11.5-1.3,11.7-10.8,11.7-10.8
							s0.2-8.4,0-17.9s-1.8-27.1-3.7-44.2s-12.1-80.1-12.1-80.1l-12.1-65.9"/>
						<polyline class="st10" points="531.1,604.6 534,605.4 527.4,632.6 534,605.4 522,602.5 504.7,597.2 495.4,623.8 507.1,626.6 
													"/>
						<line class="st10" x1="534" y1="586.7" x2="519.6" y2="496.2"/>
						<line class="st10" x1="573.1" y1="421.5" x2="554.8" y2="423.4"/>
						<polyline class="st10" points="537.5,426.3 525.7,427.6 534,474.9 537.9,474.2 581.4,467.1 						"/>
						<polyline class="st10" points="508.2,430.4 516.2,477.8 468.9,485 469.7,490.8 471.3,502 474.2,518.4 522.1,511.7 						"/>
						<polyline class="st10" points="474.2,518.4 429.3,525.1 426.8,536.1 442.1,546.3 						"/>
						<polyline class="st10" points="434.8,553.5 417.7,575.4 415.1,578.9 						"/>
						<polyline class="st10" points="480.2,518.4 489.1,563.6 529.3,557.1 534,556.4 						"/>
						<line class="st10" x1="429.6" y1="443.9" x2="442.1" y2="442.3"/>
						<line class="st10" x1="459" y1="439.7" x2="478.9" y2="437.4"/>
						<polyline class="st10" points="496.7,433.7 508.5,432.1 525.7,427.6 534,474.9 536.2,494.1 						"/>
						<line class="st10" x1="468.9" y1="485" x2="432.8" y2="489.8"/>
						<polyline class="st10" points="524.9,367.6 514.3,369.1 534.3,366.3 						"/>
						<path class="st10" d="M551.2,363.9l11.9-2.5c-2.4-10.3-3-33.5-3.1-43.1c0-2.6,0-4.2,0-4.2l-82.8,12.1l7.7,47.3l13.4-1.4"/>
						<polyline class="st10" points="473.7,307.8 460.2,217.1 479.2,222.6 						"/>
						<polyline class="st10" points="468.2,271.1 515.9,264.2 511.7,234.4 						"/>
						<line class="st10" x1="515.9" y1="264.2" x2="522.5" y2="303.4"/>
						<line class="st10" x1="471.2" y1="291.4" x2="492" y2="288.9"/>
						<line class="st10" x1="502.7" y1="287.6" x2="519.2" y2="285.4"/>
						<polyline class="st10" points="474.1,202.8 488.8,207.4 497.3,180.6 						"/>
						<line class="st10" x1="488.2" y1="225.6" x2="502.7" y2="231.4"/>
						<line class="st10" x1="516.7" y1="187.6" x2="503.8" y2="220.4"/>
						<line class="st10" x1="512.1" y1="237.3" x2="520.1" y2="241.7"/>
						<polyline class="st10" points="529.5,246.5 552.1,260.4 554.3,275.5 519.2,280.6 						"/>
						<line class="st10" x1="554.3" y1="275.5" x2="564.8" y2="275.5"/>
						<line class="st10" x1="473.3" y1="305.3" x2="495.2" y2="302.3"/>
						<line class="st10" x1="504.4" y1="300.1" x2="521.5" y2="297.5"/>
						<line class="st10" x1="524.3" y1="312.7" x2="525.2" y2="319.1"/>
						<polyline class="st10" points="462.7,559.5 473.4,565.2 465.6,561.1 440.7,545.1 						"/>
						<path class="st10" d="M551.1,590.2l-4-1.1l-10-1.6l-13.7-2.9l-13.9-4.7c-8.3-2-16.3-5.1-23.8-9.1l-12.3-5.6"/>
						<line class="st10" x1="414.4" y1="579.9" x2="417.1" y2="576.2"/>
					</g>
				</g>
			</g>
		</g>
		<polyline class="st10" points="330.7,419.4 423.8,405.4 429.6,443.9 		"/>
		<polyline class="st10" points="295.1,430.4 321.6,492.9 319.1,493.8 324,492.1 		"/>
		<path class="st10" d="M336.1,487.4c0,0,48.2-14.6,66.5-17.7l-8.4-60.5"/>
		<path class="st10" d="M308.1,498.8l-3.2,1.3c0,0,19.5,34.8,24.9,39.1"/>
		<polyline class="st10" points="280.4,605.8 341,554 339.1,551.1 342.5,556.4 		"/>
		<path class="st10" d="M351.5,566.2c0,0,42.1,42.4,73.5,60.6"/>
		<line class="st10" x1="337.6" y1="660.3" x2="386.3" y2="598.3"/>
		<polyline class="st10" points="404.9,704.6 440.1,634.1 437.2,632.6 442.7,635.5 		"/>
		<polyline class="st10" points="461,726.4 485.7,652.3 501.7,657.7 		"/>
		<polyline class="st10" points="500.1,736.8 517.3,663.8 512.7,662.7 523.4,665.2 		"/>
		<path class="st10" d="M539.4,667.8c0,0,30.7,4.1,57.7,2.6V748"/>
		<line class="st10" x1="566.1" y1="638.3" x2="566.1" y2="645.6"/>
		<line class="st10" x1="563.7" y1="670.1" x2="564.9" y2="657.7"/>
		<line class="st10" x1="597.1" y1="681.7" x2="599.6" y2="681.7"/>
		<path class="st10" d="M613.4,681.7c0,0,26.9-2,34.4-3.2"/>
		<polyline class="st10" points="630.6,680.3 638.3,745.8 678.7,739.5 663.4,674.5 660.8,675.2 665.5,673.8 		"/>
		<path class="st10" d="M678.7,670.7c0,0,26.4-6.2,34.6-9.4"/>
		<line class="st10" x1="696" y1="666.4" x2="716.8" y2="729.1"/>
		<line class="st10" x1="724.6" y1="655.2" x2="728.9" y2="653.5"/>
		<polyline class="st10" points="726.7,654.4 753.7,714.9 789.5,697.7 756.5,636.8 		"/>
		<line class="st10" x1="741.5" y1="648.5" x2="758.1" y2="639.8"/>
		<polyline class="st10" points="804.7,589.7 747.3,623.4 745.6,620.8 748.6,625.4 		"/>
		<path class="st10" d="M782.5,556.7L731,596.4l-4.2-5.1c0,0,14.3,18.3,16.4,21.1"/>
		<path class="st10" d="M599.6,631.5h3.1l13.5,0.3c0,0,57.2-2,110.6-40.5"/>
	</g>
	<path class="st10" d="M408.5,506.1l1.7-13.6l-56.4,13.6c0,0,11.8,32.8,39.4,60.1c0,0,11.5-22.7,13.9-45.5"/>
</g>
<g id="icons_2_">
	<g id="icons_1_">
		<g id="icons">
			<circle class="st13" cx="445.7" cy="566" r="11"/>
			<g class="st6">
				<path class="st7" d="M440.8,582.9v-3.7h0.7l0.9,2.6c0.1,0.2,0.1,0.4,0.2,0.5c0-0.1,0.1-0.3,0.2-0.6l0.9-2.6h0.7v3.7h-0.5v-3.1
					l-1.1,3.1h-0.4l-1.1-3.1v3.1L440.8,582.9L440.8,582.9z"/>
				<path class="st7" d="M446.8,582.6c-0.2,0.1-0.3,0.2-0.5,0.3s-0.3,0.1-0.5,0.1c-0.3,0-0.5-0.1-0.7-0.2c-0.2-0.1-0.2-0.3-0.2-0.6
					c0-0.1,0-0.2,0.1-0.4s0.1-0.2,0.2-0.3s0.2-0.1,0.3-0.1c0.1,0,0.2,0,0.4-0.1c0.4,0,0.6-0.1,0.8-0.2c0-0.1,0-0.1,0-0.1
					c0-0.2,0-0.3-0.1-0.4c-0.1-0.1-0.3-0.2-0.5-0.2s-0.4,0-0.5,0.1s-0.2,0.2-0.2,0.4L445,581c0-0.2,0.1-0.3,0.2-0.5s0.2-0.2,0.4-0.3
					c0.2-0.1,0.4-0.1,0.6-0.1s0.4,0,0.6,0.1c0.1,0.1,0.2,0.1,0.3,0.2c0.1,0.1,0.1,0.2,0.1,0.3s0,0.2,0,0.4v0.6c0,0.4,0,0.7,0,0.8
					s0.1,0.2,0.1,0.3h-0.5C446.9,582.8,446.9,582.7,446.8,582.6z M446.8,581.6c-0.2,0.1-0.4,0.1-0.7,0.2c-0.2,0-0.3,0.1-0.4,0.1
					s-0.1,0.1-0.2,0.1s-0.1,0.1-0.1,0.2c0,0.1,0,0.2,0.1,0.3s0.2,0.1,0.4,0.1c0.2,0,0.3,0,0.5-0.1c0.1-0.1,0.2-0.2,0.3-0.3
					C446.7,582.1,446.8,581.9,446.8,581.6L446.8,581.6L446.8,581.6z"/>
				<path class="st7" d="M448,582.9v-3.7h0.5v3.7H448z"/>
				<path class="st7" d="M451,582l0.5,0.1c-0.1,0.3-0.2,0.5-0.4,0.6c-0.2,0.2-0.5,0.2-0.8,0.2c-0.4,0-0.7-0.1-0.9-0.4
					c-0.2-0.2-0.3-0.6-0.3-1c0-0.5,0.1-0.8,0.3-1c0.2-0.2,0.5-0.4,0.9-0.4s0.6,0.1,0.9,0.4c0.2,0.2,0.3,0.6,0.3,1v0.1h-2
					c0,0.3,0.1,0.5,0.2,0.7s0.3,0.2,0.6,0.2c0.2,0,0.3,0,0.4-0.1C450.8,582.4,450.9,582.2,451,582z M449.5,581.3h1.5
					c0-0.2-0.1-0.4-0.2-0.5c-0.1-0.2-0.3-0.3-0.6-0.3c-0.2,0-0.4,0.1-0.5,0.2C449.6,580.9,449.5,581.1,449.5,581.3z"/>
			</g>
			<g class="st6">
				<path class="st7" d="M440.1,589v-3.3h-1.2v-0.4h2.9v0.4h-1.2v3.3H440.1z"/>
			</g>
			<g class="st6">
				<path class="st7" d="M441.5,587.7c0-0.5,0.1-0.9,0.4-1.1c0.2-0.2,0.5-0.3,0.8-0.3c0.4,0,0.7,0.1,0.9,0.4c0.2,0.2,0.4,0.6,0.4,1
					c0,0.3-0.1,0.6-0.2,0.8s-0.3,0.4-0.5,0.5s-0.4,0.2-0.6,0.2c-0.4,0-0.7-0.1-0.9-0.4S441.5,588.1,441.5,587.7z M441.9,587.7
					c0,0.3,0.1,0.6,0.2,0.8s0.3,0.3,0.6,0.3c0.2,0,0.4-0.1,0.6-0.3c0.1-0.2,0.2-0.4,0.2-0.8c0-0.3-0.1-0.6-0.2-0.8
					c-0.2-0.2-0.3-0.3-0.6-0.3c-0.2,0-0.4,0.1-0.6,0.3C442,587.1,441.9,587.3,441.9,587.7z"/>
				<path class="st7" d="M444.5,585.8v-0.5h0.5v0.5H444.5z M444.5,589v-2.7h0.5v2.7H444.5z"/>
				<path class="st7" d="M445.7,589v-3.7h0.5v3.7H445.7z"/>
				<path class="st7" d="M448.6,588.1l0.5,0.1c-0.1,0.3-0.2,0.5-0.4,0.6c-0.2,0.2-0.5,0.2-0.8,0.2c-0.4,0-0.7-0.1-0.9-0.4
					c-0.2-0.2-0.3-0.6-0.3-1c0-0.5,0.1-0.8,0.3-1c0.2-0.2,0.5-0.4,0.9-0.4s0.6,0.1,0.9,0.4c0.2,0.2,0.3,0.6,0.3,1v0.1h-2
					c0,0.3,0.1,0.5,0.2,0.7s0.3,0.2,0.6,0.2c0.2,0,0.3,0,0.4-0.1C448.5,588.5,448.6,588.3,448.6,588.1z M447.2,587.4h1.5
					c0-0.2-0.1-0.4-0.2-0.5c-0.1-0.2-0.3-0.3-0.6-0.3c-0.2,0-0.4,0.1-0.5,0.2C447.2,587,447.2,587.2,447.2,587.4z"/>
				<path class="st7" d="M450.7,588.6l0.1,0.4c-0.1,0-0.2,0-0.3,0c-0.2,0-0.3,0-0.4-0.1s-0.2-0.1-0.2-0.2c0-0.1-0.1-0.3-0.1-0.5
					v-1.5h-0.3v-0.4h0.3v-0.7l0.5-0.3v0.9h0.5v0.4h-0.5v1.6c0,0.1,0,0.2,0,0.2s0,0.1,0.1,0.1S450.5,588.5,450.7,588.6
					C450.5,588.6,450.6,588.6,450.7,588.6z"/>
				<path class="st7" d="M450.9,588.2l0.4-0.1c0,0.2,0.1,0.3,0.2,0.4s0.3,0.1,0.5,0.1s0.4,0,0.5-0.1s0.2-0.2,0.2-0.3s0-0.2-0.1-0.2
					s-0.2-0.1-0.5-0.2c-0.3-0.1-0.6-0.2-0.7-0.2c-0.1-0.1-0.2-0.1-0.3-0.3s-0.1-0.2-0.1-0.4c0-0.1,0-0.2,0.1-0.3s0.1-0.2,0.2-0.3
					s0.2-0.1,0.3-0.1c0.1,0,0.3-0.1,0.4-0.1c0.2,0,0.4,0,0.6,0.1s0.3,0.1,0.4,0.2c0.1,0.1,0.1,0.2,0.2,0.4l-0.4,0.1
					c0-0.1-0.1-0.2-0.2-0.3s-0.2-0.1-0.4-0.1c-0.2,0-0.4,0-0.4,0.1c-0.1,0.1-0.1,0.1-0.1,0.2c0,0.1,0,0.1,0.1,0.2
					c0,0,0.1,0.1,0.2,0.1c0,0,0.2,0.1,0.4,0.1c0.3,0.1,0.5,0.2,0.7,0.2c0.1,0.1,0.2,0.1,0.3,0.2c0.1,0.1,0.1,0.2,0.1,0.4
					s0,0.3-0.1,0.4s-0.2,0.2-0.4,0.3s-0.4,0.1-0.6,0.1c-0.3,0-0.6-0.1-0.8-0.2C451.1,588.7,451,588.5,450.9,588.2z"/>
			</g>
			<circle class="st14" cx="445.9" cy="562.4" r="1.7"/>
			<path class="st14" d="M448.5,565h-5.3c-0.1,1.4,0.5,2.8,1.7,3.6v3.1h1.9v-3.1C448,567.8,448.7,566.4,448.5,565z"/>
			<g id="stairs-3">
				<circle class="st13" cx="561.8" cy="528.3" r="11.6"/>
				<g class="st6">
					<path class="st7" d="M555.6,545.6h0.5c0,0.2,0.1,0.3,0.2,0.5s0.2,0.2,0.4,0.3s0.4,0.1,0.6,0.1c0.2,0,0.4,0,0.5-0.1
						s0.2-0.1,0.3-0.2c0.1-0.1,0.1-0.2,0.1-0.3s0-0.2-0.1-0.3s-0.2-0.2-0.3-0.2s-0.3-0.1-0.7-0.2s-0.6-0.2-0.7-0.2
						c-0.2-0.1-0.3-0.2-0.4-0.3c-0.1-0.1-0.1-0.3-0.1-0.5s0.1-0.4,0.2-0.5s0.3-0.3,0.5-0.4s0.4-0.1,0.7-0.1s0.5,0,0.7,0.1
						s0.4,0.2,0.5,0.4s0.2,0.4,0.2,0.6h-0.5c0-0.2-0.1-0.4-0.3-0.5c-0.1-0.1-0.4-0.2-0.6-0.2c-0.3,0-0.5,0.1-0.6,0.2
						s-0.2,0.2-0.2,0.4c0,0.1,0,0.2,0.1,0.3s0.3,0.2,0.7,0.3s0.7,0.2,0.8,0.2c0.2,0.1,0.4,0.2,0.5,0.4s0.2,0.3,0.2,0.5
						s-0.1,0.4-0.2,0.6c-0.1,0.2-0.3,0.3-0.5,0.4s-0.4,0.1-0.7,0.1s-0.6,0-0.8-0.1s-0.4-0.2-0.5-0.4
						C555.7,546.1,555.6,545.8,555.6,545.6z"/>
					<path class="st7" d="M560.1,546.4l0.1,0.4c-0.1,0-0.2,0-0.3,0c-0.2,0-0.3,0-0.4-0.1c-0.1-0.1-0.2-0.1-0.2-0.2s-0.1-0.3-0.1-0.5
						v-1.5h-0.3v-0.4h0.3v-0.7l0.5-0.3v0.9h0.5v0.4h-0.5v1.6c0,0.1,0,0.2,0,0.2s0,0.1,0.1,0.1s0.1,0,0.2,0
						C560,546.4,560.1,546.4,560.1,546.4z"/>
					<path class="st7" d="M562.3,546.4c-0.2,0.1-0.3,0.2-0.5,0.3s-0.3,0.1-0.5,0.1c-0.3,0-0.5-0.1-0.7-0.2s-0.2-0.3-0.2-0.6
						c0-0.1,0-0.2,0.1-0.4s0.1-0.2,0.2-0.3c0.1-0.1,0.2-0.1,0.3-0.1s0.2,0,0.4-0.1c0.4,0,0.6-0.1,0.8-0.2c0-0.1,0-0.1,0-0.1
						c0-0.2,0-0.3-0.1-0.4c-0.1-0.1-0.3-0.2-0.5-0.2s-0.4,0-0.5,0.1s-0.2,0.2-0.2,0.4l-0.4-0.1c0-0.2,0.1-0.3,0.2-0.5
						c0.1-0.1,0.2-0.2,0.4-0.3s0.4-0.1,0.6-0.1c0.2,0,0.4,0,0.6,0.1s0.2,0.1,0.3,0.2c0.1,0.1,0.1,0.2,0.1,0.3s0,0.2,0,0.4v0.6
						c0,0.4,0,0.7,0,0.8s0.1,0.2,0.1,0.3H562.3C562.4,546.7,562.3,546.6,562.3,546.4z M562.3,545.4c-0.2,0.1-0.4,0.1-0.7,0.2
						c-0.2,0-0.3,0.1-0.4,0.1c-0.1,0-0.1,0.1-0.2,0.1c0,0.1-0.1,0.1-0.1,0.2c0,0.1,0,0.2,0.1,0.3s0.2,0.1,0.4,0.1s0.3,0,0.5-0.1
						c0.1-0.1,0.2-0.2,0.3-0.3C562.2,545.9,562.3,545.7,562.3,545.4L562.3,545.4L562.3,545.4z"/>
					<path class="st7" d="M563.5,543.6v-0.5h0.5v0.5H563.5z M563.5,546.8v-2.7h0.5v2.7H563.5z"/>
					<path class="st7" d="M564.6,546.8v-2.7h0.4v0.4c0.1-0.2,0.2-0.3,0.3-0.4s0.2-0.1,0.3-0.1c0.2,0,0.3,0,0.5,0.1l-0.2,0.4
						c-0.1-0.1-0.2-0.1-0.3-0.1s-0.2,0-0.3,0.1s-0.1,0.1-0.2,0.2c-0.1,0.2-0.1,0.3-0.1,0.5v1.4h-0.4V546.8z"/>
					<path class="st7" d="M566.1,546l0.4-0.1c0,0.2,0.1,0.3,0.2,0.4s0.3,0.1,0.5,0.1s0.4,0,0.5-0.1s0.2-0.2,0.2-0.3s0-0.2-0.1-0.2
						s-0.2-0.1-0.5-0.2c-0.3-0.1-0.6-0.2-0.7-0.2c-0.1-0.1-0.2-0.1-0.3-0.3s-0.1-0.2-0.1-0.4c0-0.1,0-0.2,0.1-0.3s0.1-0.2,0.2-0.3
						c0.1-0.1,0.2-0.1,0.3-0.1s0.3-0.1,0.4-0.1c0.2,0,0.4,0,0.6,0.1c0.2,0.1,0.3,0.1,0.4,0.2c0.1,0.1,0.1,0.2,0.2,0.4l-0.4,0.1
						c0-0.1-0.1-0.2-0.2-0.3s-0.2-0.1-0.4-0.1s-0.4,0-0.4,0.1c-0.1,0.1-0.1,0.1-0.1,0.2c0,0.1,0,0.1,0.1,0.2c0,0,0.1,0.1,0.2,0.1
						c0,0,0.2,0.1,0.4,0.1c0.3,0.1,0.5,0.2,0.7,0.2c0.1,0.1,0.2,0.1,0.3,0.2c0.1,0.1,0.1,0.2,0.1,0.4s0,0.3-0.1,0.4
						c-0.1,0.1-0.2,0.2-0.4,0.3s-0.4,0.1-0.6,0.1c-0.3,0-0.6-0.1-0.8-0.2S566.2,546.3,566.1,546z"/>
				</g>
				<g id="Outline_Icons-2-2-3">
					<line class="st15" x1="556.6" y1="532.9" x2="565.7" y2="532.9"/>
					<polyline class="st15" points="564.1,532.9 564.1,531.3 562.5,531.3 562.5,529.7 561,529.7 561,528.2 559.4,528.2 559.4,526.6 
						556.6,526.6 					"/>
					<line class="st15" x1="561.4" y1="523.8" x2="566.3" y2="528.8"/>
					<polyline class="st15" points="561.4,525.8 561.4,523.8 563.3,523.8 					"/>
					<polyline class="st15" points="566.3,526.8 566.3,528.8 564.3,528.8 					"/>
				</g>
			</g>
			<g id="Female-2">
				<circle class="st13" cx="571.8" cy="607.6" r="11.2"/>
				<g class="st6">
					<path class="st7" d="M563.6,625.9v-3.7h2.5v0.4h-2v1.1h1.7v0.4h-1.7v1.7L563.6,625.9L563.6,625.9z"/>
					<path class="st7" d="M568.5,625l0.5,0.1c-0.1,0.3-0.2,0.5-0.4,0.6c-0.2,0.2-0.5,0.2-0.8,0.2c-0.4,0-0.7-0.1-0.9-0.4
						c-0.2-0.2-0.3-0.6-0.3-1c0-0.5,0.1-0.8,0.3-1s0.5-0.4,0.9-0.4s0.7,0.1,0.9,0.4c0.2,0.2,0.3,0.6,0.3,1v0.1h-2
						c0,0.3,0.1,0.5,0.2,0.7c0.2,0.2,0.3,0.2,0.6,0.2c0.2,0,0.3,0,0.4-0.1C568.4,625.3,568.5,625.2,568.5,625z M567.1,624.3h1.5
						c0-0.2-0.1-0.4-0.2-0.5c-0.1-0.2-0.3-0.3-0.6-0.3c-0.2,0-0.4,0.1-0.5,0.2S567.1,624,567.1,624.3z"/>
					<path class="st7" d="M569.6,625.9v-2.7h0.4v0.4c0.1-0.1,0.2-0.2,0.3-0.3s0.3-0.1,0.5-0.1s0.4,0,0.5,0.1s0.2,0.2,0.3,0.3
						c0.2-0.3,0.5-0.5,0.8-0.5s0.5,0.1,0.6,0.2c0.1,0.1,0.2,0.4,0.2,0.7v1.8h-0.5v-1.7c0-0.2,0-0.3,0-0.4s-0.1-0.1-0.2-0.2
						c-0.1,0-0.2-0.1-0.3-0.1c-0.2,0-0.3,0.1-0.5,0.2c-0.1,0.1-0.2,0.3-0.2,0.6v1.6H571v-1.7c0-0.2,0-0.4-0.1-0.5s-0.2-0.2-0.4-0.2
						c-0.1,0-0.2,0-0.4,0.1s-0.2,0.2-0.2,0.3s-0.1,0.3-0.1,0.6v1.4h-0.2V625.9z"/>
					<path class="st7" d="M575.6,625.5c-0.2,0.1-0.3,0.2-0.5,0.3s-0.3,0.1-0.5,0.1c-0.3,0-0.5-0.1-0.7-0.2s-0.2-0.3-0.2-0.6
						c0-0.1,0-0.2,0.1-0.4s0.1-0.2,0.2-0.3c0.1-0.1,0.2-0.1,0.3-0.1s0.2,0,0.4-0.1c0.4,0,0.6-0.1,0.8-0.2c0-0.1,0-0.1,0-0.1
						c0-0.2,0-0.3-0.1-0.4c-0.1-0.1-0.3-0.2-0.5-0.2s-0.4,0-0.5,0.1s-0.2,0.2-0.2,0.4l-0.4-0.1c0-0.2,0.1-0.3,0.2-0.5
						c0.1-0.1,0.2-0.2,0.4-0.3s0.4-0.1,0.6-0.1c0.2,0,0.4,0,0.6,0.1s0.2,0.1,0.3,0.2c0.1,0.1,0.1,0.2,0.1,0.3s0,0.2,0,0.4v0.6
						c0,0.4,0,0.7,0,0.8s0.1,0.2,0.1,0.3H575.6C575.7,625.8,575.6,625.7,575.6,625.5z M575.6,624.5c-0.2,0.1-0.4,0.1-0.7,0.2
						c-0.2,0-0.3,0.1-0.4,0.1c-0.1,0-0.1,0.1-0.2,0.1s-0.1,0.1-0.1,0.2c0,0.1,0,0.2,0.1,0.3s0.2,0.1,0.4,0.1s0.3,0,0.5-0.1
						c0.1-0.1,0.2-0.2,0.3-0.3C575.5,625,575.6,624.8,575.6,624.5L575.6,624.5L575.6,624.5z"/>
					<path class="st7" d="M576.7,625.9v-3.7h0.5v3.7H576.7z"/>
					<path class="st7" d="M579.7,625l0.5,0.1c-0.1,0.3-0.2,0.5-0.4,0.6c-0.2,0.2-0.5,0.2-0.8,0.2c-0.4,0-0.7-0.1-0.9-0.4
						c-0.2-0.2-0.3-0.6-0.3-1c0-0.5,0.1-0.8,0.3-1s0.5-0.4,0.9-0.4s0.7,0.1,0.9,0.4c0.2,0.2,0.3,0.6,0.3,1v0.1h-2
						c0,0.3,0.1,0.5,0.2,0.7c0.2,0.2,0.3,0.2,0.6,0.2c0.2,0,0.3,0,0.4-0.1C579.6,625.3,579.7,625.2,579.7,625z M578.2,624.3h1.5
						c0-0.2-0.1-0.4-0.2-0.5c-0.1-0.2-0.3-0.3-0.6-0.3c-0.2,0-0.4,0.1-0.5,0.2S578.3,624,578.2,624.3z"/>
				</g>
				<g class="st6">
					<path class="st7" d="M565.9,632.1v-3.3h-1.2v-0.4h2.9v0.4h-1.2v3.3H565.9z"/>
				</g>
				<g class="st6">
					<path class="st7" d="M567.3,630.7c0-0.5,0.1-0.9,0.4-1.1c0.2-0.2,0.5-0.3,0.8-0.3c0.4,0,0.7,0.1,0.9,0.4c0.2,0.2,0.4,0.6,0.4,1
						c0,0.3-0.1,0.6-0.2,0.8s-0.3,0.4-0.5,0.5s-0.4,0.2-0.6,0.2c-0.4,0-0.7-0.1-0.9-0.4S567.3,631.2,567.3,630.7z M567.7,630.7
						c0,0.3,0.1,0.6,0.2,0.8s0.3,0.3,0.6,0.3c0.2,0,0.4-0.1,0.6-0.3c0.1-0.2,0.2-0.4,0.2-0.8c0-0.3-0.1-0.6-0.2-0.8
						c-0.2-0.2-0.3-0.3-0.6-0.3c-0.2,0-0.4,0.1-0.6,0.3C567.8,630.1,567.7,630.4,567.7,630.7z"/>
					<path class="st7" d="M570.3,628.9v-0.5h0.5v0.5H570.3z M570.3,632.1v-2.7h0.5v2.7H570.3z"/>
					<path class="st7" d="M571.4,632.1v-3.7h0.5v3.7H571.4z"/>
					<path class="st7" d="M574.4,631.2l0.5,0.1c-0.1,0.3-0.2,0.5-0.4,0.6s-0.5,0.2-0.8,0.2c-0.4,0-0.7-0.1-0.9-0.4
						c-0.2-0.2-0.3-0.6-0.3-1c0-0.5,0.1-0.8,0.3-1s0.5-0.4,0.9-0.4s0.6,0.1,0.9,0.4c0.2,0.2,0.3,0.6,0.3,1v0.1h-2
						c0,0.3,0.1,0.5,0.2,0.7s0.3,0.2,0.6,0.2c0.2,0,0.3,0,0.4-0.1C574.3,631.5,574.4,631.4,574.4,631.2z M572.9,630.5h1.5
						c0-0.2-0.1-0.4-0.2-0.5c-0.1-0.2-0.3-0.3-0.6-0.3c-0.2,0-0.4,0.1-0.5,0.2C573,630,573,630.2,572.9,630.5z"/>
					<path class="st7" d="M576.5,631.7l0.1,0.4c-0.1,0-0.2,0-0.3,0c-0.2,0-0.3,0-0.4-0.1s-0.2-0.1-0.2-0.2c0-0.1-0.1-0.3-0.1-0.5
						v-1.5h-0.3v-0.4h0.3v-0.7l0.5-0.3v0.9h0.5v0.4H576v1.6c0,0.1,0,0.2,0,0.2s0,0.1,0.1,0.1s0.1,0,0.2,0
						C576.3,631.7,576.4,631.7,576.5,631.7z"/>
					<path class="st7" d="M576.7,631.3l0.4-0.1c0,0.2,0.1,0.3,0.2,0.4s0.3,0.1,0.5,0.1s0.4,0,0.5-0.1s0.2-0.2,0.2-0.3s0-0.2-0.1-0.2
						s-0.2-0.1-0.5-0.2c-0.3-0.1-0.6-0.2-0.7-0.2c-0.1-0.1-0.2-0.1-0.3-0.3s-0.1-0.2-0.1-0.4c0-0.1,0-0.2,0.1-0.3s0.1-0.2,0.2-0.3
						c0.1-0.1,0.2-0.1,0.3-0.1s0.3-0.1,0.4-0.1c0.2,0,0.4,0,0.6,0.1s0.3,0.1,0.4,0.2c0.1,0.1,0.1,0.2,0.2,0.4l-0.4,0.1
						c0-0.1-0.1-0.2-0.2-0.3s-0.2-0.1-0.4-0.1s-0.4,0-0.4,0.1c-0.1,0.1-0.1,0.1-0.1,0.2c0,0.1,0,0.1,0.1,0.2c0,0,0.1,0.1,0.2,0.1
						c0,0,0.2,0.1,0.4,0.1c0.3,0.1,0.5,0.2,0.7,0.2c0.1,0.1,0.2,0.1,0.3,0.2c0.1,0.1,0.1,0.2,0.1,0.4s0,0.3-0.1,0.4
						c-0.1,0.1-0.2,0.2-0.4,0.3s-0.4,0.1-0.6,0.1c-0.3,0-0.6-0.1-0.8-0.2C576.9,631.8,576.8,631.5,576.7,631.3z"/>
				</g>
				<circle class="st16" cx="571.7" cy="603.9" r="1.6"/>
				<path class="st16" d="M571.7,606.2c-1.4,0-2.5,2.1-2.5,4.4h1.6v2.3h1.8v-2.3h1.6C574.2,608.3,573.1,606.2,571.7,606.2z"/>
			</g>
			<g id="stairs-3_1_">
				<circle class="st13" cx="447.8" cy="676.7" r="11.6"/>
				<g class="st6">
					<path class="st7" d="M441.6,693.9h0.5c0,0.2,0.1,0.3,0.2,0.5c0.1,0.1,0.2,0.2,0.4,0.3s0.4,0.1,0.6,0.1s0.4,0,0.5-0.1
						s0.2-0.1,0.3-0.2c0.1-0.1,0.1-0.2,0.1-0.3s0-0.2-0.1-0.3s-0.2-0.2-0.3-0.2c-0.1,0-0.3-0.1-0.7-0.2c-0.3-0.1-0.6-0.2-0.7-0.2
						c-0.2-0.1-0.3-0.2-0.4-0.3s-0.1-0.3-0.1-0.5s0.1-0.4,0.2-0.5s0.3-0.3,0.5-0.4s0.4-0.1,0.7-0.1c0.3,0,0.5,0,0.7,0.1
						s0.4,0.2,0.5,0.4s0.2,0.4,0.2,0.6h-0.5c0-0.2-0.1-0.4-0.3-0.5c-0.1-0.1-0.4-0.2-0.6-0.2c-0.3,0-0.5,0.1-0.6,0.2
						s-0.2,0.2-0.2,0.4c0,0.1,0,0.2,0.1,0.3s0.3,0.2,0.7,0.3s0.7,0.2,0.8,0.2c0.2,0.1,0.4,0.2,0.5,0.4s0.2,0.3,0.2,0.5
						s-0.1,0.4-0.2,0.6c-0.1,0.2-0.3,0.3-0.5,0.4c-0.2,0.1-0.4,0.1-0.7,0.1c-0.3,0-0.6,0-0.8-0.1c-0.2-0.1-0.4-0.2-0.5-0.4
						C441.7,694.4,441.6,694.2,441.6,693.9z"/>
					<path class="st7" d="M446.1,694.7l0.1,0.4c-0.1,0-0.2,0-0.3,0c-0.2,0-0.3,0-0.4-0.1s-0.2-0.1-0.2-0.2c0-0.1-0.1-0.3-0.1-0.5
						v-1.5h-0.3v-0.4h0.3v-0.7l0.5-0.3v0.9h0.5v0.4h-0.5v1.6c0,0.1,0,0.2,0,0.2s0,0.1,0.1,0.1S445.9,694.6,446.1,694.7
						C446,694.7,446,694.7,446.1,694.7z"/>
					<path class="st7" d="M448.3,694.8c-0.2,0.1-0.3,0.2-0.5,0.3s-0.3,0.1-0.5,0.1c-0.3,0-0.5-0.1-0.7-0.2c-0.2-0.1-0.2-0.3-0.2-0.6
						c0-0.1,0-0.2,0.1-0.4s0.1-0.2,0.2-0.3s0.2-0.1,0.3-0.1c0.1,0,0.2,0,0.4-0.1c0.4,0,0.6-0.1,0.8-0.2c0-0.1,0-0.1,0-0.1
						c0-0.2,0-0.3-0.1-0.4c-0.1-0.1-0.3-0.2-0.5-0.2s-0.4,0-0.5,0.1s-0.2,0.2-0.2,0.4l-0.4-0.1c0-0.2,0.1-0.3,0.2-0.5
						s0.2-0.2,0.4-0.3c0.2-0.1,0.4-0.1,0.6-0.1s0.4,0,0.6,0.1c0.1,0.1,0.2,0.1,0.3,0.2c0.1,0.1,0.1,0.2,0.1,0.3s0,0.2,0,0.4v0.6
						c0,0.4,0,0.7,0,0.8s0.1,0.2,0.1,0.3H448.3C448.4,695,448.3,694.9,448.3,694.8z M448.3,693.8c-0.2,0.1-0.4,0.1-0.7,0.2
						c-0.2,0-0.3,0.1-0.4,0.1s-0.1,0.1-0.2,0.1s-0.1,0.1-0.1,0.2c0,0.1,0,0.2,0.1,0.3s0.2,0.1,0.4,0.1c0.2,0,0.3,0,0.5-0.1
						c0.1-0.1,0.2-0.2,0.3-0.3C448.2,694.3,448.3,694.1,448.3,693.8L448.3,693.8L448.3,693.8z"/>
					<path class="st7" d="M449.4,691.9v-0.5h0.5v0.5H449.4z M449.4,695.1v-2.7h0.5v2.7H449.4z"/>
					<path class="st7" d="M450.6,695.1v-2.7h0.4v0.4c0.1-0.2,0.2-0.3,0.3-0.4s0.2-0.1,0.3-0.1c0.2,0,0.3,0,0.5,0.1l-0.2,0.4
						c-0.1-0.1-0.2-0.1-0.3-0.1c-0.1,0-0.2,0-0.3,0.1c-0.1,0.1-0.1,0.1-0.2,0.2c-0.1,0.2-0.1,0.3-0.1,0.5v1.4h-0.4L450.6,695.1
						L450.6,695.1z"/>
					<path class="st7" d="M452.1,694.3l0.4-0.1c0,0.2,0.1,0.3,0.2,0.4s0.3,0.1,0.5,0.1s0.4,0,0.5-0.1s0.2-0.2,0.2-0.3s0-0.2-0.1-0.2
						s-0.2-0.1-0.5-0.2c-0.3-0.1-0.6-0.2-0.7-0.2c-0.1-0.1-0.2-0.1-0.3-0.3s-0.1-0.2-0.1-0.4c0-0.1,0-0.2,0.1-0.3s0.1-0.2,0.2-0.3
						s0.2-0.1,0.3-0.1c0.1,0,0.3-0.1,0.4-0.1c0.2,0,0.4,0,0.6,0.1s0.3,0.1,0.4,0.2c0.1,0.1,0.1,0.2,0.2,0.4L454,693
						c0-0.1-0.1-0.2-0.2-0.3s-0.2-0.1-0.4-0.1c-0.2,0-0.4,0-0.4,0.1c-0.1,0.1-0.1,0.1-0.1,0.2c0,0.1,0,0.1,0.1,0.2
						c0,0,0.1,0.1,0.2,0.1c0,0,0.2,0.1,0.4,0.1c0.3,0.1,0.5,0.2,0.7,0.2c0.1,0.1,0.2,0.1,0.3,0.2c0.1,0.1,0.1,0.2,0.1,0.4
						s0,0.3-0.1,0.4s-0.2,0.2-0.4,0.3s-0.4,0.1-0.6,0.1c-0.3,0-0.6-0.1-0.8-0.2C452.3,694.8,452.2,694.6,452.1,694.3z"/>
				</g>
				<g id="Outline_Icons-2-2-3_1_">
					<line class="st15" x1="442.6" y1="681.3" x2="451.7" y2="681.3"/>
					<polyline class="st15" points="450.1,681.3 450.1,679.7 448.5,679.7 448.5,678.1 447,678.1 447,676.6 445.4,676.6 445.4,675 
						442.6,675 					"/>
					<line class="st15" x1="447.4" y1="672.2" x2="452.3" y2="677.2"/>
					<polyline class="st15" points="447.4,674.2 447.4,672.2 449.3,672.2 					"/>
					<polyline class="st15" points="452.3,675.2 452.3,677.2 450.3,677.2 					"/>
				</g>
			</g>
		</g>
	</g>
	<g>
		<g class="st6">
			<path class="st17" d="M505,616.6v-4.3h3.1v0.5h-2.5v1.3h2.4v0.5h-2.4v1.5h2.6v0.5H505z"/>
			<path class="st17" d="M508.9,616.6v-4.3h0.5v4.3H508.9z"/>
			<path class="st17" d="M512.4,615.6l0.5,0.1c-0.1,0.3-0.2,0.6-0.5,0.7s-0.5,0.3-0.9,0.3c-0.5,0-0.8-0.1-1.1-0.4s-0.4-0.7-0.4-1.2
				s0.1-0.9,0.4-1.2s0.6-0.4,1-0.4s0.8,0.1,1,0.4s0.4,0.7,0.4,1.2v0.1h-2.3c0,0.3,0.1,0.6,0.3,0.8s0.4,0.3,0.7,0.3
				c0.2,0,0.4-0.1,0.5-0.2C512.1,616,512.3,615.8,512.4,615.6z M510.7,614.7h1.7c0-0.3-0.1-0.5-0.2-0.6c-0.2-0.2-0.4-0.3-0.7-0.3
				c-0.2,0-0.4,0.1-0.6,0.2S510.7,614.4,510.7,614.7z"/>
			<path class="st17" d="M514.5,616.6l-1.2-3.1h0.6l0.7,1.9c0.1,0.2,0.1,0.4,0.2,0.6c0-0.2,0.1-0.4,0.2-0.6l0.7-1.9h0.5l-1.2,3.1
				H514.5z"/>
			<path class="st17" d="M518.6,616.2c-0.2,0.2-0.4,0.3-0.6,0.4s-0.4,0.1-0.6,0.1c-0.3,0-0.6-0.1-0.8-0.2c-0.2-0.2-0.3-0.4-0.3-0.6
				c0-0.2,0-0.3,0.1-0.4c0.1-0.1,0.2-0.2,0.3-0.3s0.2-0.1,0.4-0.2c0.1,0,0.3-0.1,0.5-0.1c0.4-0.1,0.7-0.1,0.9-0.2c0-0.1,0-0.1,0-0.1
				c0-0.2,0-0.4-0.1-0.5s-0.3-0.2-0.6-0.2c-0.2,0-0.4,0-0.5,0.1s-0.2,0.2-0.3,0.5l-0.5-0.1c0-0.2,0.1-0.4,0.2-0.5s0.3-0.2,0.5-0.3
				s0.4-0.1,0.7-0.1s0.5,0,0.6,0.1s0.3,0.1,0.4,0.2s0.1,0.2,0.2,0.4c0,0.1,0,0.3,0,0.5v0.7c0,0.5,0,0.8,0,0.9s0.1,0.3,0.1,0.4h-0.6
				C518.7,616.5,518.7,616.3,518.6,616.2z M518.6,615c-0.2,0.1-0.5,0.1-0.9,0.2c-0.2,0-0.4,0.1-0.5,0.1s-0.2,0.1-0.2,0.2
				c0,0.1-0.1,0.2-0.1,0.3s0.1,0.3,0.2,0.4s0.3,0.1,0.5,0.1s0.4,0,0.5-0.1c0.2-0.1,0.3-0.2,0.3-0.4c0.1-0.1,0.1-0.3,0.1-0.5V615
				H518.6z"/>
			<path class="st17" d="M521.1,616.1l0.1,0.5c-0.1,0-0.3,0-0.4,0c-0.2,0-0.3,0-0.4-0.1s-0.2-0.1-0.2-0.2c0-0.1-0.1-0.3-0.1-0.6
				v-1.8h-0.4v-0.4h0.4v-0.8l0.5-0.3v1.1h0.5v0.4h-0.5v1.8c0,0.2,0,0.2,0,0.3s0,0.1,0.1,0.1s0.1,0,0.2,0
				C520.9,616.1,521,616.1,521.1,616.1z"/>
			<path class="st17" d="M521.4,615c0-0.6,0.2-1,0.5-1.3c0.3-0.2,0.6-0.3,1-0.3s0.8,0.1,1,0.4c0.3,0.3,0.4,0.7,0.4,1.2
				c0,0.4-0.1,0.7-0.2,0.9s-0.3,0.4-0.5,0.5s-0.5,0.2-0.8,0.2c-0.4,0-0.8-0.1-1.1-0.4S521.4,615.5,521.4,615z M522,615
				c0,0.4,0.1,0.7,0.3,0.9s0.4,0.3,0.7,0.3s0.5-0.1,0.7-0.3s0.3-0.5,0.3-0.9s-0.1-0.7-0.3-0.9s-0.4-0.3-0.7-0.3s-0.5,0.1-0.7,0.3
				S522,614.6,522,615z"/>
			<path class="st17" d="M525,616.6v-3.1h0.5v0.5c0.1-0.2,0.2-0.4,0.3-0.4s0.2-0.1,0.3-0.1c0.2,0,0.4,0.1,0.5,0.2l-0.2,0.5
				c-0.1-0.1-0.3-0.1-0.4-0.1c-0.1,0-0.2,0-0.3,0.1s-0.2,0.2-0.2,0.3c-0.1,0.2-0.1,0.4-0.1,0.6v1.6L525,616.6L525,616.6z"/>
		</g>
	</g>
	<g>
		<ellipse class="st13" cx="662.1" cy="640.9" rx="11.9" ry="11.9"/>
		<g class="st6">
			<path class="st18" d="M656.8,662.2l-1.4-3.7l1.4-0.5c0.3-0.1,0.5-0.2,0.5-0.2c0.1,0,0.4-0.1,0.5,0s0.4,0.1,0.4,0.2
				c0.2,0.1,0.3,0.3,0.3,0.4c0.2,0.4,0.1,0.6,0,0.9c-0.1,0.4-0.4,0.6-0.9,0.7l-0.9,0.4l0.5,1.5L656.8,662.2L656.8,662.2z
				 M656.8,660.1l0.9-0.4c0.4-0.2,0.4-0.3,0.6-0.5c0.1-0.2,0.1-0.4,0-0.5s-0.1-0.3-0.3-0.4c-0.1-0.1-0.3-0.1-0.5-0.1
				c-0.1,0-0.3,0.1-0.5,0.2l-0.9,0.4L656.8,660.1L656.8,660.1z"/>
			<path class="st18" d="M660.2,660.9l-1-2.7l0.5-0.2l0.2,0.5c0-0.2,0-0.4,0.1-0.5s0.1-0.2,0.2-0.2c0.2-0.1,0.4-0.1,0.5,0v0.5
				c-0.1-0.1-0.3,0-0.4,0.1c-0.1,0-0.2,0.1-0.2,0.2c-0.1,0.1-0.1,0.3-0.1,0.4c0,0.2,0.1,0.4,0.1,0.5l0.5,1.4H660.2L660.2,660.9z"/>
			<path class="st18" d="M660.7,657.1l-0.2-0.5l0.5-0.2l0.2,0.5L660.7,657.1z M662,660.3l-1-2.7l0.5-0.2l1,2.7L662,660.3z"/>
			<path class="st18" d="M663.1,659.9l-1-2.7l0.5-0.2l0.2,0.4c0.1-0.4,0.3-0.7,0.6-0.8c0.2-0.1,0.4-0.2,0.5-0.1
				c0.2,0,0.4,0.1,0.5,0.1c0.1,0.1,0.2,0.1,0.3,0.3c0,0.1,0.1,0.3,0.2,0.5l0.6,1.6l-0.5,0.2l-0.6-1.6c-0.1-0.2-0.2-0.4-0.3-0.4
				c0-0.1-0.2-0.1-0.3-0.2c-0.1-0.1-0.2,0-0.4,0.1s-0.3,0.3-0.4,0.4c-0.1,0.2,0,0.4,0.1,0.7l0.5,1.4L663.1,659.9L663.1,659.9z"/>
			<path class="st18" d="M666.7,658.1l0.3,0.4c-0.1,0-0.3,0.1-0.4,0.2c-0.2,0.1-0.3,0.1-0.4,0.1c-0.1-0.1-0.2,0-0.3-0.1
				c0-0.1-0.2-0.2-0.3-0.4l-0.5-1.5l-0.4,0.2l-0.2-0.4l0.4-0.2l-0.3-0.6l0.3-0.5l0.4,0.9l0.5-0.2l0.2,0.4l-0.5,0.2l0.5,1.5
				c0.1,0.2,0.1,0.2,0.1,0.3c0,0,0,0.1,0.1,0.1s0.1,0,0.2-0.1C666.6,658.2,666.7,658.2,666.7,658.1z"/>
			<path class="st18" d="M668.7,657.8l-1.4-3.7l1.4-0.5c0.3-0.1,0.5-0.2,0.5-0.2s0.4-0.1,0.5,0s0.4,0.1,0.4,0.2
				c0.2,0.1,0.3,0.3,0.3,0.4c0.2,0.4,0.1,0.6,0,0.9c-0.1,0.4-0.4,0.6-0.9,0.7l-0.9,0.4l0.5,1.5L668.7,657.8L668.7,657.8z
				 M668.6,655.7l0.9-0.4c0.4-0.2,0.4-0.3,0.6-0.5s0.1-0.4,0-0.5s-0.1-0.3-0.3-0.4c-0.1-0.1-0.3-0.1-0.5-0.1c-0.1,0-0.3,0.1-0.5,0.2
				l-0.9,0.4L668.6,655.7L668.6,655.7z"/>
			<path class="st18" d="M671.6,655.2c-0.2-0.5-0.2-0.9,0.1-1.3c0.2-0.3,0.3-0.5,0.7-0.6c0.4-0.2,0.7-0.2,1.1,0.1
				c0.4,0.2,0.6,0.4,0.8,0.8c0.2,0.4,0.1,0.6,0.1,0.8s-0.1,0.5-0.3,0.7s-0.4,0.4-0.6,0.5c-0.4,0.2-0.7,0.2-1.1-0.1
				C671.8,655.9,671.7,655.6,671.6,655.2z M672,655c0.2,0.4,0.3,0.5,0.6,0.6s0.5,0.1,0.7,0s0.4-0.3,0.4-0.5c0.1-0.3,0.1-0.6,0-0.9
				c-0.1-0.3-0.3-0.5-0.6-0.6s-0.5-0.1-0.7,0c-0.3,0.1-0.4,0.3-0.4,0.5C671.8,654.4,671.8,654.7,672,655z"/>
			<path class="st18" d="M673.8,652.2l-0.2-0.5l0.5-0.2l0.2,0.5L673.8,652.2z M675.1,655.4l-1-2.7l0.5-0.2l1,2.7L675.1,655.4z"/>
			<path class="st18" d="M676.2,655l-1-2.7l0.5-0.2l0.2,0.4c0.1-0.4,0.3-0.7,0.6-0.8c0.2-0.1,0.4-0.2,0.5-0.1c0.2,0,0.4,0.1,0.5,0.1
				s0.2,0.1,0.3,0.3c0,0.1,0.1,0.3,0.2,0.5l0.6,1.6l-0.5,0.2l-0.6-1.6c-0.1-0.2-0.2-0.4-0.3-0.4c0-0.1-0.2-0.1-0.3-0.2
				c-0.1-0.1-0.2,0-0.4,0.1s-0.3,0.3-0.4,0.4c-0.1,0.2,0,0.4,0.1,0.7l0.5,1.4L676.2,655L676.2,655z"/>
			<path class="st18" d="M679.8,653.2l0.3,0.4c-0.1,0-0.3,0.1-0.4,0.2c-0.2,0.1-0.3,0.1-0.4,0.1c-0.1-0.1-0.2,0-0.3-0.1
				c0-0.1-0.2-0.2-0.3-0.4l-0.5-1.5l-0.4,0.2l-0.2-0.4l0.4-0.2l-0.3-0.6l0.3-0.5l0.4,0.9l0.5-0.2l0.2,0.4l-0.5,0.2l0.5,1.5
				c0.1,0.2,0.1,0.2,0.1,0.3c0,0,0,0.1,0.1,0.1s0.1,0,0.2-0.1C679.7,653.3,679.8,653.2,679.8,653.2z"/>
		</g>
		<g id="Outline_Icons-13_1_">
			<g id="Outline_Icons-14_1_">
				<path class="st19" d="M660.3,644l-1.2,0.4c-0.5,0.2-0.9,0-1.1-0.5l-0.9-2.5c-0.2-0.5,0-0.9,0.5-1.1l7.5-2.8
					c0.5-0.2,0.9,0,1.1,0.5l0.9,2.4c0.2,0.5,0,0.9-0.5,1.1l-1.2,0.4"/>
				<polyline class="st19" points="658.6,639.3 658,637.7 662,636.2 663.6,637 663.8,637.4 				"/>
				
					<rect x="660.3" y="641.7" transform="matrix(0.9363 -0.3512 0.3512 0.9363 -183.7293 273.8299)" class="st20" width="5.4" height="3.4"/>
				<circle class="st19" cx="658.6" cy="641.6" r="0.5"/>
				<line class="st19" x1="661" y1="643.3" x2="664.7" y2="642"/>
				<line class="st19" x1="661.2" y1="644.1" x2="664.8" y2="642.7"/>
				<line class="st19" x1="661.6" y1="644.9" x2="665.2" y2="643.5"/>
				<polyline class="st19" points="662,636.2 662.3,637.4 663.6,637 				"/>
			</g>
		</g>
	</g>
	<g id="Outline_Icons-6-4">
		<g class="st6">
			<path class="st17" d="M444.1,516.8v-3.5h1.3c0.2,0,0.4,0,0.5,0c0.2,0,0.3,0.1,0.4,0.2c0.1,0.1,0.2,0.2,0.3,0.3
				c0.1,0.1,0.1,0.3,0.1,0.5c0,0.3-0.1,0.6-0.3,0.8c-0.2,0.2-0.5,0.3-1,0.3h-0.9v1.4H444.1z M444.6,515h0.9c0.3,0,0.5-0.1,0.6-0.2
				s0.2-0.3,0.2-0.5c0-0.1,0-0.3-0.1-0.4s-0.2-0.2-0.3-0.2c-0.1,0-0.2,0-0.4,0h-0.9L444.6,515L444.6,515z"/>
			<path class="st17" d="M449,516.5c-0.2,0.1-0.3,0.2-0.5,0.3c-0.1,0.1-0.3,0.1-0.5,0.1c-0.3,0-0.5-0.1-0.6-0.2
				c-0.1-0.1-0.2-0.3-0.2-0.5c0-0.1,0-0.2,0.1-0.3s0.1-0.2,0.2-0.2c0.1-0.1,0.2-0.1,0.3-0.1c0.1,0,0.2,0,0.4-0.1
				c0.3,0,0.6-0.1,0.8-0.1c0-0.1,0-0.1,0-0.1c0-0.2,0-0.3-0.1-0.4c-0.1-0.1-0.3-0.1-0.5-0.1s-0.4,0-0.4,0.1s-0.2,0.2-0.2,0.4
				l-0.4-0.1c0-0.2,0.1-0.3,0.2-0.4c0.1-0.1,0.2-0.2,0.4-0.3c0.2-0.1,0.4-0.1,0.6-0.1s0.4,0,0.5,0.1s0.2,0.1,0.3,0.2
				c0.1,0.1,0.1,0.2,0.1,0.3s0,0.2,0,0.4v0.6c0,0.4,0,0.7,0,0.8s0.1,0.2,0.1,0.3h-0.4C449,516.7,449,516.6,449,516.5z M449,515.5
				c-0.2,0.1-0.4,0.1-0.7,0.2c-0.2,0-0.3,0.1-0.4,0.1s-0.1,0.1-0.2,0.1c0,0.1-0.1,0.1-0.1,0.2c0,0.1,0,0.2,0.1,0.3s0.2,0.1,0.4,0.1
				c0.2,0,0.3,0,0.4-0.1s0.2-0.2,0.3-0.3c0-0.1,0.1-0.2,0.1-0.4v-0.2L449,515.5L449,515.5z"/>
			<path class="st17" d="M450.1,516.8v-2.5h0.4v0.4c0.2-0.3,0.5-0.4,0.8-0.4c0.2,0,0.3,0,0.4,0.1s0.2,0.1,0.3,0.2
				c0.1,0.1,0.1,0.2,0.1,0.3s0,0.2,0,0.4v1.6h-0.4v-1.5c0-0.2,0-0.3-0.1-0.4c0-0.1-0.1-0.2-0.2-0.2s-0.2-0.1-0.3-0.1
				c-0.2,0-0.3,0.1-0.5,0.2s-0.2,0.3-0.2,0.7v1.4h-0.3L450.1,516.8L450.1,516.8z"/>
			<path class="st17" d="M453.7,516.4l0.1,0.4c-0.1,0-0.2,0-0.3,0c-0.2,0-0.3,0-0.4-0.1c-0.1,0-0.1-0.1-0.2-0.2
				c0-0.1-0.1-0.2-0.1-0.5v-1.5h-0.3v-0.3h0.3v-0.6l0.4-0.3v0.9h0.4v0.3h-0.4v1.5c0,0.1,0,0.2,0,0.2s0,0.1,0.1,0.1s0.1,0,0.1,0
				C453.6,516.4,453.7,516.4,453.7,516.4z"/>
			<path class="st17" d="M454.2,516.8v-2.5h0.4v0.4c0.1-0.2,0.2-0.3,0.3-0.4s0.2-0.1,0.3-0.1c0.1,0,0.3,0,0.4,0.1l-0.1,0.4
				c-0.1-0.1-0.2-0.1-0.3-0.1c-0.1,0-0.2,0-0.3,0.1c-0.1,0.1-0.1,0.1-0.2,0.2c0,0.2-0.1,0.3-0.1,0.5v1.3L454.2,516.8L454.2,516.8z"
				/>
			<path class="st17" d="M455.8,517.8v-0.4c0.1,0,0.2,0,0.2,0c0.1,0,0.2,0,0.2,0c0.1,0,0.1-0.1,0.1-0.1s0.1-0.1,0.1-0.3v-0.1l-1-2.5
				h0.5l0.5,1.5c0.1,0.2,0.1,0.4,0.2,0.6c0-0.2,0.1-0.4,0.2-0.6l0.5-1.5h0.4l-1,2.6c-0.1,0.3-0.2,0.5-0.2,0.6
				c-0.1,0.1-0.2,0.2-0.3,0.3c-0.1,0.1-0.2,0.1-0.4,0.1C456,517.8,455.9,517.8,455.8,517.8z"/>
		</g>
		<circle class="st21" cx="450.8" cy="501.5" r="10.7"/>
		<g id="Outline_Icons-2-2">
			<path class="st22" d="M454.4,499.4c-0.7,0-1.3-0.4-1.5-1.1c-0.3,0.2-0.6,0.3-0.9,0.3c-0.9,0-1.6-0.7-1.6-1.6c0-0.1,0-0.1,0-0.2
				c-2.6,0.4-4.3,2.9-3.9,5.5s2.9,4.3,5.5,3.9s4.3-2.9,3.9-5.5c-0.1-0.5-0.3-1-0.5-1.5C455.1,499.3,454.8,499.4,454.4,499.4z"/>
			<circle class="st22" cx="449.5" cy="500.2" r="0.8"/>
			<circle class="st22" cx="452.5" cy="502.3" r="0.4"/>
			<circle class="st22" cx="450" cy="503.5" r="0.8"/>
			<circle class="st22" cx="452.8" cy="500.6" r="0.2"/>
			<circle class="st22" cx="447.9" cy="501.8" r="0.2"/>
			<circle class="st22" cx="452.5" cy="504.3" r="0.2"/>
		</g>
	</g>
	<g>
		<path class="st7" d="M498.8,528.6h2.9v0.6h-2.2v1.8h2v0.6h-2v2.4h-0.7L498.8,528.6L498.8,528.6z"/>
		<path class="st7" d="M503.3,529c0,0.2-0.2,0.4-0.4,0.4c-0.2,0-0.4-0.2-0.4-0.4s0.2-0.4,0.4-0.4C503.1,528.6,503.3,528.7,503.3,529
			z M502.5,534v-3.9h0.7v3.9H502.5z"/>
		<path class="st7" d="M504.4,531.3c0-0.5,0-0.8,0-1.2h0.6v0.8l0,0c0.2-0.5,0.6-0.8,1.1-0.8c0.1,0,0.1,0,0.2,0v0.7
			c-0.1,0-0.1,0-0.2,0c-0.5,0-0.8,0.4-0.9,0.9c0,0.1,0,0.2,0,0.3v2.1h-0.7v-2.8H504.4z"/>
		<path class="st7" d="M507.3,532.1c0,1,0.6,1.3,1.3,1.3c0.5,0,0.8-0.1,1.1-0.2l0.1,0.5c-0.2,0.1-0.7,0.2-1.3,0.2
			c-1.2,0-1.9-0.8-1.9-2s0.7-2.1,1.8-2.1c1.3,0,1.6,1.1,1.6,1.8c0,0.1,0,0.3,0,0.3h-2.7V532.1z M509.4,531.6c0-0.4-0.2-1.1-1-1.1
			c-0.7,0-1,0.7-1.1,1.1H509.4z"/>
		<path class="st7" d="M494.1,541H492v1.9h2.3v0.6h-3v-5.4h2.9v0.6H492v1.7h2.1V541z"/>
		<path class="st7" d="M495.3,537.9h0.7v5.7h-0.7V537.9z"/>
		<path class="st7" d="M497.5,541.7c0,1,0.6,1.3,1.3,1.3c0.5,0,0.8-0.1,1.1-0.2l0.1,0.5c-0.2,0.1-0.7,0.2-1.3,0.2
			c-1.2,0-1.9-0.8-1.9-2s0.7-2.1,1.8-2.1c1.3,0,1.6,1.1,1.6,1.8c0,0.1,0,0.3,0,0.3h-2.7V541.7z M499.6,541.2c0-0.4-0.2-1.1-1-1.1
			c-0.7,0-1,0.7-1.1,1.1H499.6z"/>
		<path class="st7" d="M501.4,539.7l0.8,2.2c0.1,0.4,0.2,0.7,0.3,1l0,0c0.1-0.3,0.2-0.6,0.3-1l0.8-2.2h0.7l-1.5,3.9h-0.7l-1.5-3.9
			H501.4z"/>
		<path class="st7" d="M507.1,543.6l-0.1-0.5l0,0c-0.2,0.3-0.6,0.6-1.2,0.6c-0.8,0-1.2-0.6-1.2-1.1c0-0.9,0.8-1.4,2.3-1.4V541
			c0-0.3-0.1-0.9-0.9-0.9c-0.4,0-0.7,0.1-1,0.3l-0.2-0.5c0.3-0.2,0.8-0.3,1.3-0.3c1.2,0,1.5,0.8,1.5,1.6v1.4c0,0.3,0,0.7,0.1,0.9
			L507.1,543.6L507.1,543.6z M507,541.6c-0.8,0-1.6,0.1-1.6,0.9c0,0.5,0.3,0.7,0.7,0.7c0.5,0,0.8-0.3,0.9-0.6c0-0.1,0-0.2,0-0.2
			V541.6z"/>
		<path class="st7" d="M509.6,538.6v1.1h1v0.5h-1v2.1c0,0.5,0.1,0.8,0.5,0.8c0.2,0,0.3,0,0.4,0v0.5c-0.1,0.1-0.4,0.1-0.6,0.1
			c-0.3,0-0.6-0.1-0.8-0.3c-0.2-0.2-0.3-0.6-0.3-1v-2.1h-0.6v-0.5h0.6v-0.9L509.6,538.6z"/>
		<path class="st7" d="M514.9,541.6c0,1.4-1,2.1-1.9,2.1c-1,0-1.9-0.8-1.9-2c0-1.3,0.8-2.1,1.9-2.1
			C514.1,539.6,514.9,540.4,514.9,541.6z M511.8,541.6c0,0.8,0.5,1.5,1.2,1.5s1.2-0.6,1.2-1.5c0-0.7-0.3-1.5-1.2-1.5
			C512.2,540.1,511.8,540.9,511.8,541.6z"/>
		<path class="st7" d="M515.8,540.9c0-0.5,0-0.8,0-1.2h0.6v0.8l0,0c0.2-0.5,0.6-0.8,1.1-0.8c0.1,0,0.1,0,0.2,0v0.7
			c-0.1,0-0.1,0-0.2,0c-0.5,0-0.8,0.4-0.9,0.9c0,0.1,0,0.2,0,0.3v2.1h-0.7L515.8,540.9L515.8,540.9z"/>
	</g>
</g>
<line class="st10" x1="545.6" y1="555" x2="541.9" y2="555.8"/>
<polyline class="st10" points="429.5,442.3 431.6,463.8 432.5,482.4 432.5,499.4 "/>
<path class="st10" d="M527.4,632.6"/>
<path class="st1" d="M527.5,632.1"/>
<line class="st10" x1="518.1" y1="629.6" x2="527.4" y2="632.6"/>
<g id="furniature">
	<g>
		<polygon class="st23" points="790.9,581.5 765.3,599 759.1,590.4 784.7,572.9 		"/>
		<polygon class="st8" points="791.2,582.1 765.6,599.7 759.5,591.1 785.1,573.5 		"/>
		<g>
			<path class="st24" d="M772.3,580.9l-1.4,0.8c-1,0.6-2.5,0.1-3.1-0.9l-0.1-0.1l-0.7-1.4c-0.7-1.4-0.1-3.2,1.4-4l0,0
				c1.4-0.8,3.2-0.3,4,1.1l0.8,1.4C773.7,578.9,773.4,580.2,772.3,580.9L772.3,580.9z"/>
			<path class="st25" d="M772.2,580.8l-1.4,0.8c-1,0.6-2.5,0.1-3.1-0.9l0,0l-0.1-0.1l-0.7-1.4c-0.7-1.4-0.1-3.2,1.4-4l0,0
				c1.4-0.8,3.2-0.3,4,1.1l0.7,1.4C773.6,578.7,773.4,580,772.2,580.8C772.4,580.7,772.2,580.8,772.2,580.8z"/>
			<path class="st26" d="M772.2,580.5l-1.4,0.8c-1,0.6-2.5,0.1-3.1-0.9l0,0l-0.1-0.1l-0.7-1.4c-0.7-1.4-0.1-3.2,1.4-4l0,0
				c1.4-0.8,3.2-0.3,4,1.1l0.8,1.4C773.5,578.5,773.1,579.8,772.2,580.5L772.2,580.5z"/>
			<path class="st27" d="M767.6,580.5l-0.7-1.7c-0.7-1.4-0.1-3.2,1.4-4l0,0c1.4-0.8,3.2-0.3,4,1.1l1.1,1.5"/>
		</g>
	</g>
	<g>
		<path class="st28" d="M802.4,671.1l-18.2-30c-0.5-0.8-0.4-2.1,0.7-2.6l17.1-10.3c0.8-0.5,2.1-0.4,2.6,0.7l18.2,30
			c0.5,0.8,0.4,2.1-0.7,2.6L805,671.8C804.1,672.1,802.9,672,802.4,671.1z"/>
		<path class="st23" d="M801.5,671.6l-18.2-30c-0.5-0.8-0.4-2.1,0.7-2.6l17.1-10.3c0.8-0.5,2.1-0.4,2.6,0.7l18.2,30
			c0.5,0.8,0.4,2.1-0.7,2.6l-17.1,10.3C803.2,672.8,802,672.5,801.5,671.6z"/>
		<path class="st8" d="M791.9,657l9.3,15.2c0.6,0.7,1.5,1,2.2,0.5l9.2-5.6l-10.1-16.6L791.9,657z"/>
		<path class="st8" d="M791.7,633.1l-9.2,5.6c-0.7,0.6-1,1.5-0.5,2.2l10.1,16.5l10.8-6.5L791.7,633.1L791.7,633.1z"/>
		<path class="st8" d="M802.7,650.9l9.5-5.9l-10-16.4c-0.6-0.7-1.5-1-2.2-0.5l-8.2,4.9L802.7,650.9L802.7,650.9z"/>
		<path class="st8" d="M812.7,667.1l8.2-4.9c0.7-0.6,1-1.5,0.5-2.2l0,0l-9.2-15.1l-9.5,5.9L812.7,667.1L812.7,667.1z"/>
		<line class="st29" x1="791.9" y1="657" x2="812.1" y2="644.7"/>
		<line class="st29" x1="812.7" y1="667.1" x2="792.1" y2="633.5"/>
		<path class="st24" d="M819.1,649.4l0.8,1.5c0.7,1.2,2.1,1.6,3.1,1l0.1-0.1l1.3-0.9c1.4-1,1.6-3,0.9-4.2l0,0
			c-0.8-1.5-2.6-2-4.1-1.4l-1.4,0.7C818.8,646.8,818.3,648.3,819.1,649.4L819.1,649.4z"/>
		<path class="st25" d="M819,649.4l0.8,1.5c0.7,1.2,2.1,1.6,3.1,1l0.1-0.1l1.3-0.9c1.4-1,1.6-3,0.9-4.2l0,0c-0.8-1.5-2.6-2-4.1-1.4
			l-1.4,0.7C818.7,647,818.2,648.3,819,649.4L819,649.4C818.9,649.5,818.9,649.5,819,649.4z"/>
		<path class="st26" d="M818.4,649.9l0.8,1.3c0.6,1,2,1.4,3.1,0.8l0,0l0,0l0.1-0.1l1.3-0.9c1.3-0.9,1.7-2.9,1-4l0,0
			c-0.8-1.3-2.6-1.8-3.9-1.2l-1.4,0.7c-1.1,0.6-1.5,2-1,3l0,0L818.4,649.9z"/>
		<path class="st27" d="M822.1,652.4l1.6-1c1.3-0.9,1.7-2.9,1-4l0,0c-0.8-1.3-2.6-1.8-3.9-1.2L819,647"/>
		<path class="st24" d="M795.1,664.7l0.8,1.3c0.6,1,0.2,2.4-0.8,3.1l-0.1,0.1l-1.4,0.7c-1.4,0.7-3.2,0.2-4-1.3l0,0
			c-0.8-1.3-0.4-3.1,1.1-3.9l1.3-0.8C792.8,663.2,794.3,663.5,795.1,664.7L795.1,664.7z"/>
		<path class="st25" d="M794.9,664.9l0.8,1.3c0.6,1,0.2,2.4-0.8,3.1l0,0l-0.1,0.1l-1.4,0.7c-1.4,0.7-3.2,0.2-4-1.3l0,0
			c-0.8-1.3-0.4-3.1,1.1-3.9l1.3-0.8C792.7,663.4,794.2,663.6,794.9,664.9C795,664.7,794.9,664.9,794.9,664.9z"/>
		<path class="st26" d="M794.5,665l0.8,1.3c0.6,1,0.2,2.4-0.8,3.1l0,0l-0.1,0.1l-1.4,0.7c-1.4,0.7-3.2,0.2-4-1.3l0,0
			c-0.8-1.3-0.4-3.1,1.1-3.9l1.3-0.8C792.5,663.6,793.9,663.7,794.5,665L794.5,665z"/>
		<path class="st27" d="M794.9,669.4l-1.8,0.8c-1.4,0.7-3.2,0.2-4-1.3l0,0c-0.8-1.3-0.4-3.1,1.1-3.9l1.6-1"/>
		<path class="st24" d="M809.1,633.4l0.8,1.5c0.7,1.2,2.1,1.6,3.1,1l0,0l0.1-0.1l1.3-0.9c1.4-1.1,1.6-3,0.9-4.2l0,0
			c-0.8-1.5-2.6-2-4.1-1.4l-1.4,0.7C809,630.8,808.4,632.3,809.1,633.4L809.1,633.4L809.1,633.4z"/>
		<path class="st25" d="M809,633.6l0.8,1.5c0.7,1.2,2.1,1.6,3.1,1l0,0l0.1-0.1l1.3-0.9c1.4-1.1,1.6-3,0.9-4.2l0,0
			c-0.8-1.5-2.6-2-4.1-1.4l-1.4,0.7C808.7,631,808.2,632.5,809,633.6L809,633.6L809,633.6z"/>
		<path class="st26" d="M808.4,634.1l0.8,1.3c0.6,1,2,1.4,3.1,0.8l0,0l0,0l0.1-0.1l1.3-0.9c1.3-0.9,1.7-2.9,1-4l0,0
			c-0.8-1.3-2.6-1.8-3.9-1.2l-1.4,0.7c-1.1,0.6-1.5,2-1,3l0,0l0,0L808.4,634.1z"/>
		<path class="st27" d="M812.1,636.4l1.6-1c1.3-0.9,1.7-2.9,1-4l0,0c-0.8-1.3-2.6-1.8-3.9-1.2L809,631"/>
		<path class="st24" d="M784.9,648.2l0.8,1.3c0.6,1,0.2,2.4-0.8,3.1l0,0l-0.1,0.1l-1.4,0.7c-1.4,0.7-3.2,0.2-4-1.3l0,0
			c-0.8-1.3-0.4-3.1,1.1-3.9l1.3-0.8C782.6,646.8,784,647.2,784.9,648.2L784.9,648.2z"/>
		<path class="st25" d="M784.5,648.3l0.8,1.3c0.6,1,0.2,2.4-0.8,3.1l0,0l-0.1,0.1l-1.4,0.7c-1.4,0.7-3.2,0.2-4-1.3l0,0
			c-0.8-1.3-0.4-3.1,1.1-3.9l1.3-0.8C782.3,647,783.8,647.2,784.5,648.3L784.5,648.3L784.5,648.3z"/>
		<path class="st26" d="M784.3,648.5l0.8,1.3c0.6,1,0.2,2.4-0.8,3.1l0,0l0,0l0,0l-0.1,0.1l-1.4,0.7c-1.4,0.7-3.2,0.2-4-1.3l0,0
			c-0.8-1.3-0.4-3.1,1.1-3.9l1.3-0.8C782.1,647.2,783.6,647.5,784.3,648.5L784.3,648.5z"/>
		<path class="st27" d="M784.3,652.9l-1.8,0.8c-1.4,0.7-3.2,0.2-4-1.3l0,0c-0.8-1.3-0.4-3.1,1.1-3.9l1.6-1"/>
	</g>
	<g>
		<polygon class="st23" points="759.8,704.5 746.3,676.6 755.8,671.8 769.2,699.7 		"/>
		<polygon class="st8" points="759.1,704.8 745.6,676.8 755,672.1 768.5,700 		"/>
		<g>
			<path class="st24" d="M763.2,686.3l-0.6-1.5c-0.5-1.1,0.2-2.4,1.4-2.9h0.1l1.5-0.5c1.5-0.5,3.2,0.4,3.7,2l0,0
				c0.6,1.5-0.1,3.2-1.7,3.8l-1.5,0.6C765,687.9,763.7,687.5,763.2,686.3L763.2,686.3z"/>
			<path class="st25" d="M763.3,686.1l-0.6-1.5c-0.5-1.1,0.2-2.4,1.4-2.9l0,0h0.1l1.5-0.5c1.5-0.5,3.2,0.4,3.7,2l0,0
				c0.6,1.5-0.1,3.2-1.7,3.8l-1.5,0.5C765.1,687.9,763.8,687.4,763.3,686.1C763.3,686.4,763.3,686.1,763.3,686.1z"/>
			<path class="st26" d="M763.6,686.2l-0.6-1.5c-0.5-1.1,0.2-2.4,1.4-2.9l0,0h0.1l1.5-0.5c1.5-0.5,3.2,0.4,3.7,2l0,0
				c0.6,1.5-0.1,3.2-1.7,3.8l-1.5,0.6C765.4,687.8,764.1,687.2,763.6,686.2L763.6,686.2z"/>
			<path class="st27" d="M764.2,681.6l1.8-0.4c1.5-0.5,3.2,0.4,3.7,2l0,0c0.6,1.5-0.1,3.2-1.7,3.8l-1.6,0.9"/>
		</g>
	</g>
	<g>
		<polygon class="st23" points="608.6,740.2 607.7,709.2 618.3,708.7 619.1,739.7 		"/>
		<polygon class="st8" points="607.8,740.2 607,709.1 617.5,708.6 618.4,739.7 		"/>
		<g>
			<path class="st24" d="M619.1,724.9l0.1-1.6c0-1.2,1.2-2.1,2.4-2.1h0.1l1.6,0.2c1.6,0.2,2.8,1.6,2.6,3.3l0,0
				c-0.1,1.6-1.5,2.9-3.1,2.8l-1.6-0.1C620.1,727.2,619.1,726.2,619.1,724.9L619.1,724.9z"/>
			<path class="st25" d="M619.3,724.8l0.1-1.6c0-1.2,1.2-2.1,2.4-2.1l0,0h0.1l1.6,0.2c1.6,0.2,2.8,1.6,2.6,3.3l0,0
				c-0.1,1.6-1.5,2.9-3.1,2.8l-1.6-0.2C620.2,727.2,619.3,726.3,619.3,724.8C619.2,725.1,619.3,724.8,619.3,724.8z"/>
			<path class="st26" d="M619.5,725l0.1-1.6c0-1.2,1.2-2.1,2.4-2.1l0,0h0.1l1.6,0.2c1.6,0.2,2.8,1.6,2.6,3.3l0,0
				c-0.1,1.6-1.5,2.9-3.1,2.8l-1.6-0.1C620.5,727.2,619.6,726.2,619.5,725L619.5,725z"/>
			<path class="st27" d="M622,721.1l1.8,0.4c1.6,0.2,2.8,1.6,2.6,3.3l0,0c-0.1,1.6-1.5,2.9-3.1,2.8l-1.8,0.1"/>
		</g>
	</g>
	<g>
		<polygon class="st23" points="687.3,729.3 679.1,699.4 689.3,696.4 697.5,726.3 		"/>
		<polygon class="st8" points="686.6,729.5 678.4,699.5 688.4,696.6 696.8,726.5 		"/>
		<g>
			<path class="st24" d="M693.9,712l-0.3-1.6c-0.3-1.2,0.7-2.4,1.9-2.6h0.1l1.5-0.2c1.5-0.2,3.1,0.9,3.3,2.6l0,0
				c0.3,1.6-0.7,3.1-2.3,3.4l-1.6,0.3C695.4,714,694.3,713.3,693.9,712L693.9,712z"/>
			<path class="st25" d="M694.1,711.9l-0.3-1.6c-0.3-1.2,0.7-2.4,1.9-2.6l0,0h0.1l1.5-0.2c1.5-0.2,3.1,0.9,3.3,2.6l0,0
				c0.3,1.6-0.7,3.1-2.3,3.4l-1.5,0.2C695.6,713.9,694.4,713.3,694.1,711.9C694.1,712.2,694.1,711.9,694.1,711.9z"/>
			<path class="st26" d="M694.4,712l-0.3-1.6c-0.3-1.2,0.7-2.4,1.9-2.6l0,0h0.1l1.5-0.2c1.5-0.2,3.1,0.9,3.3,2.6l0,0
				c0.3,1.6-0.7,3.1-2.3,3.4l-1.6,0.3C695.8,713.9,694.7,713.1,694.4,712L694.4,712z"/>
			<path class="st27" d="M695.8,707.6l1.8-0.1c1.5-0.2,3.1,0.9,3.3,2.6l0,0c0.3,1.6-0.7,3.1-2.3,3.4l-1.7,0.6"/>
		</g>
	</g>
	<g>
		<polygon class="st23" points="727.1,681.9 737.7,711.1 727.8,714.9 717.3,685.7 		"/>
		<polygon class="st8" points="727.8,681.7 738.4,710.9 728.6,714.6 718,685.5 		"/>
		<g>
			<path class="st24" d="M721.9,699.7l0.4,1.6c0.4,1.2-0.5,2.4-1.7,2.8h-0.1l-1.5,0.3c-1.5,0.3-3.1-0.7-3.5-2.4l0,0
				c-0.4-1.6,0.5-3.2,2.1-3.6l1.6-0.4C720.3,697.9,721.5,698.5,721.9,699.7L721.9,699.7z"/>
			<path class="st25" d="M721.8,699.9l0.4,1.6c0.4,1.2-0.5,2.4-1.7,2.8l0,0h-0.1l-1.5,0.3c-1.5,0.3-3.1-0.7-3.5-2.4l0,0
				c-0.4-1.6,0.5-3.2,2.1-3.6l1.5-0.3C720.1,697.9,721.3,698.5,721.8,699.9C721.8,699.6,721.8,699.9,721.8,699.9z"/>
			<path class="st26" d="M721.5,699.8l0.4,1.6c0.4,1.2-0.5,2.4-1.7,2.8l0,0h-0.1l-1.5,0.3c-1.5,0.3-3.1-0.7-3.5-2.4l0,0
				c-0.4-1.6,0.5-3.2,2.1-3.6l1.6-0.4C719.9,698,721.1,698.7,721.5,699.8L721.5,699.8z"/>
			<path class="st27" d="M720.4,704.2l-1.8,0.2c-1.5,0.3-3.1-0.7-3.5-2.4l0,0c-0.4-1.6,0.5-3.2,2.1-3.6l1.7-0.7"/>
		</g>
	</g>
	<g>
		<polygon class="st23" points="659.6,705.2 663.5,735.9 653,737.5 649.2,706.7 		"/>
		<polygon class="st8" points="660.3,705.1 664.3,735.9 653.9,737.4 649.9,706.6 		"/>
		<g>
			<path class="st24" d="M650.6,721.4v1.6c0.1,1.2-1,2.2-2.2,2.3h-0.1h-1.6c-1.6,0-2.9-1.4-2.9-3.1l0,0c0-1.6,1.2-3,2.8-3h1.6
				C649.4,719.3,650.5,720.1,650.6,721.4L650.6,721.4z"/>
			<path class="st25" d="M650.5,721.5v1.6c0.1,1.2-1,2.2-2.2,2.3l0,0h-0.1h-1.6c-1.6,0-2.9-1.4-2.9-3.1l0,0c0-1.6,1.2-3,2.8-3h1.6
				C649.3,719.2,650.3,720.1,650.5,721.5C650.5,721.2,650.5,721.5,650.5,721.5z"/>
			<path class="st26" d="M650.2,721.3v1.6c0.1,1.2-1,2.2-2.2,2.3l0,0h-0.1h-1.6c-1.6,0-2.9-1.4-2.9-3.1l0,0c0-1.6,1.2-3,2.8-3h1.6
				C649,719.2,650,720.2,650.2,721.3L650.2,721.3z"/>
			<path class="st27" d="M648.1,725.4l-1.8-0.2c-1.6,0-2.9-1.4-2.9-3.1l0,0c0-1.6,1.2-3,2.8-3l1.8-0.3"/>
		</g>
	</g>
</g>
</svg>
