<?xml version="1.0" encoding="utf-8"?>
<!-- Generator: Adobe Illustrator 28.1.0, SVG Export Plug-In . SVG Version: 6.00 Build 0)  -->
<svg version="1.1" id="Layer_1" xmlns="http://www.w3.org/2000/svg" xmlns:xlink="http://www.w3.org/1999/xlink" x="0px" y="0px"
	 viewBox="0 0 841.9 975.9" style="enable-background:new 0 0 841.9 975.9;" xml:space="preserve">
<style type="text/css">
	.st0{fill:#4195B0;}
	.st1{fill:#A9DFE3;}
	.st2{fill:#8DCBCD;}
	.st3{opacity:0.74;fill:#575757;enable-background:new    ;}
	.st4{enable-background:new    ;}
	.st5{fill:#FFFFFF;}
	.st6{fill:none;stroke:#F4F4F4;stroke-width:10;stroke-miterlimit:10;}
	.st7{fill:none;stroke:#F4F4F4;stroke-width:5;stroke-miterlimit:10;}
	.st8{fill:#EAF1F1;}
	.st9{fill:#767E7F;}
	.st10{fill:none;stroke:#7A8D92;stroke-width:0.513;stroke-miterlimit:10;}
	.st11{fill:none;stroke:#7A8D92;stroke-width:0.619;stroke-miterlimit:10;}
	.st12{fill:none;stroke:#7A8D92;stroke-width:0.518;stroke-miterlimit:10;}
	.st13{fill:none;stroke:#7A8D92;stroke-width:0.354;stroke-miterlimit:10;}
</style>
<g id="a">
	<path class="st0" d="M701.9,829.2l5.3-89.2c29.1-28.2,78.6-149.2,78.6-149.2l7.1-18.5l8.8-56.5l-3.5-78.6l-19.4-74.1l-29.1-66.2
		l-45.9-60l-54.7-48.5l-63.6-38.8l-68.8-22.9l-70.6-9.7l-76.8,5.3l-69.7,16.8L234,171.6l-59.1,45l-49.4,53.8l-35.3,64.4l-26.5,69.7
		l-7.1,75l7.1,75.9l17.7,68.8l36.2,75.9l44.1-26.5l65.3,3.5l-5.3,119.3l-21.2-1l190.7,8.8v17.7L701.9,829.2L701.9,829.2z"/>
</g>
<g id="b">
	<path class="st1" d="M689.6,805.3l5.2-87.9c28.7-27.9,77.5-147.2,77.5-147.2l7-18.3l8.7-55.7l-3.5-77.5l-19.2-73.1l-28.7-65.3
		L691.3,221l-54-47.9l-62.7-38.3l-67.9-22.6l-69.7-9.6l-75.8,5.2l-68.8,16.5L228,156.5L169.7,201L121,254.1l-34.8,63.6L60,386.4
		l-7,74l7,74.9l17.4,67.9l35.7,74.9l43.5-26.1l64.4,3.5l-5.2,117.6l-20.9-1l188.1,8.7v17.4L689.6,805.3L689.6,805.3z"/>
</g>
<g id="c">
	<path class="st2" d="M374.9,662.4l-4.3,117.8l-154.7-7.1l5.2-117.6l-62.9-3.5l-43.8,26.1c0,0-42.9-73.9-55-163.1
		s7.6-161.6,42.1-223s96.2-114.9,150.6-147.4S379.8,103,417.5,104s105.7,10.5,138.5,24.6s91.4,48,121.8,80.4s70.2,86.5,83.9,128.3
		s24.2,84.7,25.6,116.6s1.2,54.7-3.4,76.3c-4.6,21.6-18.4,58.9-18.4,58.9l-49.4,98.3L696,717.3l-5.2,87.9l-211.9-4.8l11.2-320.2
		l-146.4-4.3l-8.1,184.6L374.9,662.4L374.9,662.4z"/>
</g>
<g id="d">
	<path id="area-04.06-status" class="st3" d="M438.3,102.6l-17.8,375.7h68.9l299.8,12.3l-3.5-71.9c0,0-23.6-106.7-47.9-138.4
		s-65.5-98.8-138-130S498.8,104.1,438.3,102.6L438.3,102.6z"/>
	<path id="area-04.05-status" class="st3" d="M54.3,460.5l366.2,17.8l17.8-375.7c0,0-94.9,0.8-137.9,19.9s-103.9,49.4-136.1,84.4
		S116,263.2,101,290.4s-31.4,70.7-31.4,70.7l-10.2,31.6L54.3,460.5L54.3,460.5z"/>
	<polygon id="area-04.04-status" class="st3" points="114.4,678.1 158.2,652 335.6,660.5 344,474.5 54.3,460.5 64.2,551.7 82.6,614 
			"/>
	<g class="st4">
		<path class="st5" d="M535.5,307.3v-8.6h1.7l3.5,5.7v-5.7h1.6v8.6h-1.7l-3.5-5.6v5.6H535.5z"/>
		<path class="st5" d="M544.1,300.2v-1.5h1.6v1.5H544.1z M544.1,307.3v-6.2h1.6v6.2H544.1z"/>
		<path class="st5" d="M552.8,302.9l-1.6,0.3c-0.1-0.3-0.2-0.6-0.4-0.7s-0.4-0.2-0.8-0.2c-0.4,0-0.7,0.1-1,0.4s-0.4,0.8-0.4,1.4
			c0,0.7,0.1,1.3,0.4,1.6s0.6,0.5,1,0.5c0.3,0,0.6-0.1,0.8-0.3s0.3-0.5,0.4-0.9l1.6,0.3c-0.2,0.7-0.5,1.3-1,1.7s-1.1,0.6-1.9,0.6
			c-0.9,0-1.6-0.3-2.2-0.9s-0.8-1.4-0.8-2.4s0.3-1.8,0.8-2.4s1.3-0.9,2.2-0.9c0.8,0,1.4,0.2,1.8,0.5S552.7,302.2,552.8,302.9z"/>
		<path class="st5" d="M553.7,304.1c0-0.5,0.1-1.1,0.4-1.6s0.7-0.9,1.1-1.2s1-0.4,1.7-0.4c0.9,0,1.7,0.3,2.3,0.9s0.9,1.4,0.9,2.3
			s-0.3,1.7-0.9,2.3s-1.4,0.9-2.3,0.9c-0.6,0-1.1-0.1-1.6-0.4s-0.9-0.6-1.2-1.1S553.7,304.8,553.7,304.1z M555.4,304.2
			c0,0.6,0.1,1.1,0.4,1.4s0.7,0.5,1.1,0.5s0.8-0.2,1.1-0.5s0.4-0.8,0.4-1.4s-0.1-1.1-0.4-1.4s-0.7-0.5-1.1-0.5s-0.8,0.2-1.1,0.5
			S555.4,303.6,555.4,304.2z"/>
		<path class="st5" d="M561.4,307.3v-8.6h1.6v8.6H561.4z"/>
		<path class="st5" d="M566,303l-1.5-0.3c0.2-0.6,0.5-1,0.9-1.3s1-0.4,1.8-0.4c0.7,0,1.3,0.1,1.6,0.3s0.6,0.4,0.8,0.7
			s0.2,0.8,0.2,1.5v1.9c0,0.5,0,1,0.1,1.2s0.2,0.5,0.3,0.8h-1.6c0-0.1-0.1-0.3-0.2-0.5c0-0.1,0-0.2-0.1-0.2
			c-0.3,0.3-0.6,0.5-0.9,0.6s-0.7,0.2-1,0.2c-0.6,0-1.1-0.2-1.5-0.5s-0.6-0.8-0.6-1.3c0-0.4,0.1-0.7,0.3-0.9s0.4-0.5,0.7-0.6
			s0.7-0.3,1.3-0.4c0.8-0.1,1.3-0.3,1.6-0.4v-0.2c0-0.3-0.1-0.5-0.2-0.7s-0.5-0.2-0.9-0.2c-0.3,0-0.5,0.1-0.7,0.2
			S566.1,302.7,566,303z M568.2,304.3c-0.2,0.1-0.5,0.2-1,0.3s-0.8,0.2-0.9,0.3c-0.2,0.2-0.3,0.3-0.3,0.6c0,0.2,0.1,0.4,0.3,0.6
			s0.4,0.3,0.7,0.3s0.6-0.1,0.8-0.3c0.2-0.1,0.3-0.3,0.4-0.5c0-0.1,0.1-0.4,0.1-0.8L568.2,304.3L568.2,304.3z"/>
		<path class="st5" d="M570.9,305.5l1.7-0.3c0.1,0.3,0.2,0.6,0.4,0.7s0.5,0.2,0.9,0.2s0.7-0.1,1-0.2c0.1-0.1,0.2-0.3,0.2-0.4
			s0-0.2-0.1-0.3c-0.1-0.1-0.3-0.2-0.6-0.2c-1.3-0.3-2.2-0.6-2.5-0.8c-0.5-0.3-0.7-0.8-0.7-1.4c0-0.5,0.2-1,0.6-1.4s1.1-0.6,2-0.6
			s1.5,0.1,1.9,0.4s0.7,0.7,0.9,1.2l-1.6,0.3c-0.1-0.2-0.2-0.4-0.4-0.6s-0.5-0.2-0.8-0.2c-0.4,0-0.7,0.1-0.9,0.2
			c-0.1,0.1-0.2,0.2-0.2,0.3c0,0.1,0.1,0.2,0.2,0.3c0.1,0.1,0.7,0.3,1.5,0.5s1.5,0.4,1.8,0.7c0.3,0.3,0.5,0.7,0.5,1.2
			c0,0.6-0.2,1.1-0.7,1.5s-1.2,0.6-2.1,0.6c-0.8,0-1.5-0.2-2-0.5S571,306.1,570.9,305.5z"/>
		<path class="st5" d="M578.1,301.8l-0.3-1.6v-1.5h1.8v1.5l-0.3,1.6H578.1z"/>
		<path class="st5" d="M583.9,304.1c0-0.5,0.1-1.1,0.4-1.6s0.7-0.9,1.1-1.2s1-0.4,1.7-0.4c0.9,0,1.7,0.3,2.3,0.9s0.9,1.4,0.9,2.3
			s-0.3,1.7-0.9,2.3s-1.4,0.9-2.3,0.9c-0.6,0-1.1-0.1-1.6-0.4s-0.9-0.6-1.2-1.1S583.9,304.8,583.9,304.1z M585.6,304.2
			c0,0.6,0.1,1.1,0.4,1.4s0.7,0.5,1.1,0.5s0.8-0.2,1.1-0.5s0.4-0.8,0.4-1.4s-0.1-1.1-0.4-1.4s-0.7-0.5-1.1-0.5s-0.8,0.2-1.1,0.5
			S585.6,303.6,585.6,304.2z"/>
		<path class="st5" d="M590.9,301.1h0.9v-0.5c0-0.5,0.1-0.9,0.2-1.2s0.3-0.5,0.6-0.6s0.7-0.2,1.1-0.2c0.5,0,0.9,0.1,1.4,0.2
			l-0.2,1.1c-0.3-0.1-0.5-0.1-0.8-0.1c-0.2,0-0.4,0.1-0.5,0.2s-0.2,0.3-0.2,0.6v0.4h1.2v1.3h-1.2v4.9h-1.6v-4.9h-0.9V301.1z"/>
		<path class="st5" d="M594.9,301.1h0.9v-0.5c0-0.5,0.1-0.9,0.2-1.2s0.3-0.5,0.6-0.6s0.7-0.2,1.1-0.2c0.5,0,0.9,0.1,1.4,0.2
			l-0.2,1.1c-0.3-0.1-0.5-0.1-0.8-0.1c-0.2,0-0.4,0.1-0.5,0.2s-0.2,0.3-0.2,0.6v0.4h1.2v1.3h-1.2v4.9h-1.6v-4.9h-0.9V301.1z"/>
		<path class="st5" d="M599.6,300.2v-1.5h1.6v1.5H599.6z M599.6,307.3v-6.2h1.6v6.2H599.6z"/>
		<path class="st5" d="M608.4,302.9l-1.6,0.3c-0.1-0.3-0.2-0.6-0.4-0.7s-0.4-0.2-0.8-0.2c-0.4,0-0.7,0.1-1,0.4s-0.4,0.8-0.4,1.4
			c0,0.7,0.1,1.3,0.4,1.6s0.6,0.5,1,0.5c0.3,0,0.6-0.1,0.8-0.3s0.3-0.5,0.4-0.9l1.6,0.3c-0.2,0.7-0.5,1.3-1,1.7s-1.1,0.6-1.9,0.6
			c-0.9,0-1.6-0.3-2.2-0.9s-0.8-1.4-0.8-2.4s0.3-1.8,0.8-2.4s1.3-0.9,2.2-0.9c0.8,0,1.4,0.2,1.8,0.5S608.2,302.2,608.4,302.9z"/>
		<path class="st5" d="M613.2,305.3l1.6,0.3c-0.2,0.6-0.5,1.1-1,1.4s-1,0.5-1.7,0.5c-1.1,0-1.9-0.4-2.4-1.1
			c-0.4-0.6-0.6-1.3-0.6-2.1c0-1,0.3-1.8,0.8-2.4s1.2-0.9,2-0.9c0.9,0,1.7,0.3,2.2,0.9s0.8,1.5,0.8,2.8h-4.1c0,0.5,0.1,0.9,0.4,1.1
			s0.6,0.4,0.9,0.4c0.3,0,0.5-0.1,0.7-0.2S613.1,305.6,613.2,305.3z M613.3,303.7c0-0.5-0.1-0.8-0.4-1.1s-0.5-0.4-0.9-0.4
			s-0.7,0.1-0.9,0.4s-0.3,0.6-0.3,1.1H613.3z"/>
	</g>
	<g>
		<path class="st5" d="M247.4,300.8h-1.9v3.4h-1.8v-8.6h4.2c0.6,0,1.1,0.1,1.4,0.2s0.6,0.3,0.8,0.6c0.2,0.2,0.3,0.5,0.4,0.7
			s0.2,0.6,0.2,0.9c0,0.4-0.1,0.8-0.3,1.2s-0.5,0.7-1,0.8c0.4,0.2,0.7,0.4,0.8,0.7s0.2,0.7,0.2,1.4v0.6c0,0.4,0,0.7,0,0.8
			c0,0.2,0.2,0.4,0.3,0.5v0.2h-2c-0.1-0.2-0.1-0.3-0.1-0.5s-0.1-0.5-0.1-0.7v-0.8c0-0.6-0.1-0.9-0.3-1.1S247.9,300.8,247.4,300.8z
			 M248.5,299.2c0.4-0.2,0.5-0.5,0.5-1s-0.2-0.9-0.5-1.1c-0.2-0.1-0.5-0.2-0.9-0.2h-2.1v2.3h2C248,299.4,248.3,299.3,248.5,299.2z"
			/>
		<path class="st5" d="M257.6,298.6c0.5,0.7,0.8,1.5,0.8,2.4s-0.3,1.7-0.8,2.4s-1.4,1-2.5,1s-1.9-0.3-2.5-1s-0.8-1.5-0.8-2.4
			s0.3-1.7,0.8-2.4s1.4-1,2.5-1S257.1,297.9,257.6,298.6z M255.1,299c-0.5,0-0.9,0.2-1.1,0.5s-0.4,0.8-0.4,1.5s0.1,1.1,0.4,1.5
			s0.6,0.5,1.1,0.5s0.9-0.2,1.1-0.5s0.4-0.8,0.4-1.5s-0.1-1.1-0.4-1.5S255.6,299,255.1,299z"/>
		<path class="st5" d="M264.9,298.6c0.5,0.7,0.8,1.5,0.8,2.4s-0.3,1.7-0.8,2.4s-1.4,1-2.5,1s-1.9-0.3-2.5-1s-0.8-1.5-0.8-2.4
			s0.3-1.7,0.8-2.4s1.4-1,2.5-1S264.4,297.9,264.9,298.6z M262.5,299c-0.5,0-0.9,0.2-1.1,0.5s-0.4,0.8-0.4,1.5s0.1,1.1,0.4,1.5
			s0.6,0.5,1.1,0.5s0.9-0.2,1.1-0.5s0.4-0.8,0.4-1.5s-0.1-1.1-0.4-1.5S263,299,262.5,299z"/>
		<path class="st5" d="M270.5,299.6c-0.1-0.3-0.4-0.5-0.8-0.5c-0.5,0-0.8,0.2-1,0.5c-0.1,0.2-0.1,0.4-0.1,0.8v3.8h-1.7v-6.4h1.6v0.9
			c0.2-0.3,0.4-0.6,0.6-0.7c0.3-0.2,0.7-0.4,1.3-0.4c0.5,0,0.9,0.1,1.2,0.3c0.2,0.2,0.4,0.5,0.6,0.8c0.2-0.4,0.5-0.7,0.8-0.8
			c0.3-0.2,0.7-0.3,1.1-0.3c0.3,0,0.6,0.1,0.8,0.2s0.5,0.3,0.7,0.6c0.2,0.2,0.3,0.5,0.4,0.8c0,0.2,0.1,0.5,0.1,0.9v4h-1.7V300
			c0-0.2,0-0.4-0.1-0.6c-0.1-0.3-0.4-0.4-0.8-0.4c-0.5,0-0.8,0.2-1,0.6c-0.1,0.2-0.1,0.4-0.1,0.7v3.8h-1.7v-3.8
			C270.6,300,270.6,299.7,270.5,299.6z"/>
		<path class="st5" d="M236,318.6h-1.8l-3.5-6.1v6.1H229V310h1.9l3.4,6v-6h1.7L236,318.6L236,318.6z"/>
		<path class="st5" d="M239.3,309.9v1.5h-1.7v-1.5H239.3z M239.3,312.2v6.4h-1.7v-6.4H239.3z"/>
		<path class="st5" d="M246.4,316.7c0,0.4-0.2,0.8-0.6,1.2c-0.5,0.6-1.3,0.9-2.3,0.9c-0.8,0-1.5-0.3-2.2-0.8s-0.9-1.4-0.9-2.6
			c0-1.1,0.3-2,0.8-2.5s1.3-0.9,2.2-0.9c0.5,0,1,0.1,1.4,0.3s0.8,0.5,1.1,0.9c0.2,0.4,0.4,0.8,0.5,1.3c0,0.3,0.1,0.7,0.1,1.3h-4.4
			c0,0.6,0.2,1.1,0.6,1.3c0.2,0.2,0.5,0.2,0.8,0.2s0.6-0.1,0.8-0.3c0.1-0.1,0.2-0.3,0.3-0.4h1.8V316.7z M244.7,314.8
			c0-0.4-0.2-0.8-0.4-1s-0.5-0.3-0.9-0.3s-0.7,0.1-0.9,0.4s-0.3,0.6-0.4,1h2.6V314.8z"/>
		<path class="st5" d="M253.4,310v8.6h-1.6v-0.9c-0.2,0.4-0.5,0.7-0.8,0.8s-0.7,0.3-1.1,0.3c-0.7,0-1.4-0.3-1.9-0.9
			s-0.8-1.4-0.8-2.3c0-1.1,0.3-1.9,0.8-2.6s1.2-0.9,2-0.9c0.4,0,0.7,0.1,1,0.3s0.5,0.4,0.7,0.7v-3h1.7V310z M248.9,315.4
			c0,0.6,0.1,1.1,0.4,1.4c0.2,0.4,0.6,0.5,1.1,0.5s0.8-0.2,1.1-0.5s0.4-0.8,0.4-1.4c0-0.8-0.2-1.3-0.6-1.7c-0.2-0.2-0.5-0.3-0.8-0.3
			c-0.5,0-0.8,0.2-1.1,0.6S248.9,314.9,248.9,315.4z"/>
		<path class="st5" d="M260.4,316.7c0,0.4-0.2,0.8-0.6,1.2c-0.5,0.6-1.3,0.9-2.3,0.9c-0.8,0-1.5-0.3-2.2-0.8s-0.9-1.4-0.9-2.6
			c0-1.1,0.3-2,0.8-2.5s1.3-0.9,2.2-0.9c0.5,0,1,0.1,1.4,0.3s0.8,0.5,1.1,0.9c0.2,0.4,0.4,0.8,0.5,1.3c0,0.3,0.1,0.7,0.1,1.3h-4.4
			c0,0.6,0.2,1.1,0.6,1.3c0.2,0.2,0.5,0.2,0.8,0.2s0.6-0.1,0.8-0.3c0.1-0.1,0.2-0.3,0.3-0.4h1.8V316.7z M258.7,314.8
			c0-0.4-0.2-0.8-0.4-1s-0.5-0.3-0.9-0.3s-0.7,0.1-0.9,0.4s-0.3,0.6-0.4,1h2.6V314.8z"/>
		<path class="st5" d="M264.8,313.8c-0.7,0-1.1,0.2-1.4,0.7c-0.1,0.2-0.2,0.6-0.2,1.1v3.1h-1.7v-6.4h1.6v1.1
			c0.3-0.4,0.5-0.7,0.7-0.9c0.3-0.3,0.7-0.4,1.2-0.4h0.1h0.1v1.7c-0.1,0-0.2,0-0.3,0S264.9,313.8,264.8,313.8z"/>
		<path class="st5" d="M272.1,318.6h-2l-1.5-2.7l-0.7,0.7v2h-1.6V310h1.6v4.7l2.1-2.4h2.1l-2.2,2.4L272.1,318.6z"/>
		<path class="st5" d="M278.3,313c0.5,0.7,0.8,1.5,0.8,2.4s-0.3,1.7-0.8,2.4s-1.4,1-2.5,1s-1.9-0.3-2.5-1s-0.8-1.5-0.8-2.4
			s0.3-1.7,0.8-2.4s1.4-1,2.5-1S277.7,312.3,278.3,313z M275.8,313.4c-0.5,0-0.9,0.2-1.1,0.5s-0.4,0.8-0.4,1.5s0.1,1.1,0.4,1.5
			s0.6,0.5,1.1,0.5s0.9-0.2,1.1-0.5s0.4-0.8,0.4-1.5s-0.1-1.1-0.4-1.5S276.3,313.4,275.8,313.4z"/>
		<path class="st5" d="M283.5,313.8c-0.7,0-1.1,0.2-1.4,0.7c-0.1,0.2-0.2,0.6-0.2,1.1v3.1h-1.7v-6.4h1.6v1.1
			c0.3-0.4,0.5-0.7,0.7-0.9c0.3-0.3,0.7-0.4,1.2-0.4h0.1h0.1v1.7c-0.1,0-0.2,0-0.3,0S283.5,313.8,283.5,313.8z"/>
		<path class="st5" d="M288,313.4c-0.6,0-1,0.2-1.2,0.7c-0.1,0.3-0.2,0.6-0.2,1v3.5H285v-6.4h1.6v0.9c0.2-0.3,0.4-0.6,0.6-0.7
			c0.3-0.3,0.8-0.4,1.3-0.4c0.7,0,1.2,0.2,1.6,0.5s0.6,0.9,0.6,1.7v4.3H289v-3.9c0-0.3,0-0.6-0.1-0.8
			C288.7,313.6,288.4,313.4,288,313.4z"/>
		<path class="st5" d="M245.1,335.4l-0.4-0.6c-0.3-0.3-0.6-0.9-0.9-1.5c-0.5-1.2-0.8-2.4-0.8-3.6c0-1.1,0.2-2.1,0.7-3.2
			c0.3-0.7,0.8-1.5,1.4-2.3h1.3l-0.4,0.7c-0.5,0.9-0.8,1.8-1,2.8c-0.1,0.6-0.2,1.4-0.2,2.1c0,1.2,0.2,2.3,0.5,3.3
			c0.2,0.6,0.6,1.4,1.1,2.3L245.1,335.4L245.1,335.4z"/>
		<path class="st5" d="M250.5,328.2c-0.7,0-1.1,0.2-1.4,0.7c-0.1,0.2-0.2,0.6-0.2,1.1v3.1h-1.7v-6.4h1.6v1.1
			c0.3-0.4,0.5-0.7,0.7-0.9c0.3-0.3,0.7-0.4,1.2-0.4h0.1h0.1v1.7c-0.1,0-0.2,0-0.3,0S250.5,328.2,250.5,328.2z"/>
		<path class="st5" d="M253.7,324.3v1.5H252v-1.5H253.7z M253.7,326.6v6.4H252v-6.4H253.7z"/>
		<path class="st5" d="M257.1,334.1c0.2,0.2,0.5,0.2,0.9,0.2c0.6,0,1-0.2,1.2-0.6c0.1-0.3,0.2-0.7,0.2-1.3V332
			c-0.2,0.3-0.3,0.5-0.5,0.6c-0.3,0.3-0.8,0.4-1.3,0.4c-0.8,0-1.5-0.3-2-0.9s-0.7-1.4-0.7-2.3s0.2-1.7,0.7-2.4s1.1-1,2-1
			c0.3,0,0.6,0,0.8,0.1c0.4,0.2,0.7,0.5,1,0.9v-0.9h1.6v6.1c0,0.8-0.1,1.4-0.4,1.9c-0.5,0.7-1.4,1.1-2.7,1.1c-0.8,0-1.5-0.2-2-0.5
			s-0.8-0.8-0.9-1.4h1.8C256.9,333.9,257,334,257.1,334.1z M256.8,330.8c0.2,0.5,0.6,0.8,1.2,0.8c0.4,0,0.7-0.1,1-0.4
			s0.4-0.8,0.4-1.4s-0.1-1.1-0.4-1.4s-0.6-0.5-1-0.5c-0.6,0-1,0.3-1.2,0.8c-0.1,0.3-0.2,0.7-0.2,1.1
			C256.6,330.2,256.7,330.5,256.8,330.8z"/>
		<path class="st5" d="M268.4,329.2v3.8h-1.7v-3.9c0-0.3-0.1-0.6-0.2-0.8c-0.2-0.3-0.4-0.4-0.9-0.4c-0.4,0-0.8,0.1-1,0.4
			s-0.3,0.7-0.3,1.3v3.5h-1.7v-8.6h1.7v3.1c0.2-0.4,0.5-0.6,0.8-0.8s0.7-0.2,1-0.2c0.4,0,0.8,0.1,1.1,0.2s0.6,0.3,0.8,0.6
			c0.2,0.2,0.3,0.5,0.3,0.7S268.4,328.7,268.4,329.2z"/>
		<path class="st5" d="M272.9,331.8v1.2h-0.8c-0.8,0-1.3-0.1-1.6-0.4c-0.2-0.2-0.3-0.5-0.3-0.9v-3.9h-0.9v-1.2h0.9v-1.8h1.7v1.8h1
			v1.2h-1v3.4c0,0.3,0,0.4,0.1,0.5s0.3,0.1,0.6,0.1C272.7,331.8,272.7,331.8,272.9,331.8C272.9,331.8,272.8,331.8,272.9,331.8z"/>
		<path class="st5" d="M274.9,334.9l-0.4,0.6h-1.2c0.5-0.9,0.9-1.7,1.1-2.3c0.3-1,0.5-2.1,0.5-3.3c0-0.8-0.1-1.5-0.2-2.1
			c-0.2-1-0.5-1.9-1-2.8l-0.4-0.7h1.3c0.6,0.8,1,1.6,1.4,2.3c0.5,1.1,0.7,2.1,0.7,3.2c0,1.2-0.3,2.4-0.8,3.6
			C275.5,334,275.2,334.5,274.9,334.9z"/>
	</g>
	<g>
		<path class="st5" d="M180.4,544.6h-1.9v3.4h-1.8v-8.6h4.2c0.6,0,1.1,0.1,1.4,0.2s0.6,0.3,0.8,0.6c0.2,0.2,0.3,0.5,0.4,0.7
			s0.2,0.6,0.2,0.9c0,0.4-0.1,0.8-0.3,1.2s-0.5,0.7-1,0.8c0.4,0.2,0.7,0.4,0.8,0.7s0.2,0.7,0.2,1.4v0.6c0,0.4,0,0.7,0,0.8
			c0,0.2,0.2,0.4,0.3,0.5v0.2h-2c-0.1-0.2-0.1-0.3-0.1-0.5c0-0.2-0.1-0.5-0.1-0.7l0-0.8c0-0.6-0.1-0.9-0.3-1.1
			S180.9,544.6,180.4,544.6z M181.5,543c0.4-0.2,0.5-0.5,0.5-1c0-0.5-0.2-0.9-0.5-1.1c-0.2-0.1-0.5-0.2-0.9-0.2h-2.1v2.3h2
			C181,543.2,181.3,543.1,181.5,543z"/>
		<path class="st5" d="M190.6,542.4c0.5,0.7,0.8,1.5,0.8,2.4c0,0.9-0.3,1.7-0.8,2.4s-1.4,1-2.5,1s-1.9-0.3-2.5-1s-0.8-1.5-0.8-2.4
			c0-0.9,0.3-1.7,0.8-2.4s1.4-1,2.5-1S190,541.7,190.6,542.4z M188.1,542.8c-0.5,0-0.9,0.2-1.1,0.5s-0.4,0.8-0.4,1.5
			s0.1,1.1,0.4,1.5s0.6,0.5,1.1,0.5s0.9-0.2,1.1-0.5s0.4-0.8,0.4-1.5s-0.1-1.1-0.4-1.5S188.6,542.8,188.1,542.8z"/>
		<path class="st5" d="M197.9,542.4c0.5,0.7,0.8,1.5,0.8,2.4c0,0.9-0.3,1.7-0.8,2.4s-1.4,1-2.5,1s-1.9-0.3-2.5-1s-0.8-1.5-0.8-2.4
			c0-0.9,0.3-1.7,0.8-2.4s1.4-1,2.5-1S197.4,541.7,197.9,542.4z M195.4,542.8c-0.5,0-0.9,0.2-1.1,0.5s-0.4,0.8-0.4,1.5
			s0.1,1.1,0.4,1.5s0.6,0.5,1.1,0.5s0.9-0.2,1.1-0.5s0.4-0.8,0.4-1.5s-0.1-1.1-0.4-1.5S195.9,542.8,195.4,542.8z"/>
		<path class="st5" d="M203.5,543.4c-0.1-0.3-0.4-0.5-0.8-0.5c-0.5,0-0.8,0.2-1,0.5c-0.1,0.2-0.1,0.4-0.1,0.8v3.8h-1.7v-6.4h1.6v0.9
			c0.2-0.3,0.4-0.6,0.6-0.7c0.3-0.2,0.7-0.4,1.3-0.4c0.5,0,0.9,0.1,1.2,0.3c0.2,0.2,0.4,0.5,0.6,0.8c0.2-0.4,0.5-0.7,0.8-0.8
			c0.3-0.2,0.7-0.3,1.1-0.3c0.3,0,0.6,0.1,0.8,0.2s0.5,0.3,0.7,0.6c0.2,0.2,0.3,0.5,0.4,0.8c0,0.2,0.1,0.5,0.1,0.9l0,4h-1.7v-4.1
			c0-0.2,0-0.4-0.1-0.6c-0.1-0.3-0.4-0.4-0.8-0.4c-0.5,0-0.8,0.2-1,0.6c-0.1,0.2-0.1,0.4-0.1,0.7v3.8h-1.7v-3.8
			C203.6,543.8,203.6,543.5,203.5,543.4z"/>
		<path class="st5" d="M219.3,547.8c-0.5,0.3-1.1,0.4-1.8,0.4c-1.1,0-2.1-0.4-2.8-1.2c-0.8-0.8-1.1-1.9-1.1-3.3
			c0-1.4,0.4-2.5,1.2-3.4s1.8-1.3,3.1-1.3c1.1,0,2,0.3,2.6,0.8s1,1.3,1.1,2.1h-1.8c-0.1-0.6-0.5-1-1-1.2c-0.3-0.1-0.6-0.2-1-0.2
			c-0.7,0-1.3,0.3-1.7,0.8s-0.7,1.3-0.7,2.4c0,1.1,0.2,1.8,0.7,2.3s1,0.7,1.7,0.7c0.6,0,1.1-0.2,1.5-0.5s0.6-0.8,0.7-1.4h-2v-1.4
			h3.6v4.6h-1.2l-0.2-1.1C219.9,547.3,219.6,547.6,219.3,547.8z"/>
		<path class="st5" d="M223.2,546.3h1.8v1.7h-1.8V546.3z"/>
		<path class="st5" d="M173.1,553.8h1.8v7.1h4.3v1.6h-6.1V553.8z"/>
		<path class="st5" d="M182,553.7v1.5h-1.7v-1.5H182z M182,556v6.4h-1.7V556H182z"/>
		<path class="st5" d="M188.9,556.7c0.5,0.6,0.8,1.4,0.8,2.4c0,1.1-0.3,2-0.8,2.6s-1.2,0.9-2,0.9c-0.5,0-0.9-0.1-1.3-0.4
			c-0.2-0.1-0.4-0.3-0.5-0.6v3.3h-1.7V556h1.6v0.9c0.2-0.3,0.4-0.5,0.6-0.7c0.4-0.3,0.8-0.4,1.3-0.4
			C187.8,555.9,188.4,556.1,188.9,556.7z M188,559.2c0-0.5-0.1-0.9-0.3-1.3s-0.6-0.6-1.1-0.6c-0.6,0-1,0.3-1.2,0.9
			c-0.1,0.3-0.2,0.7-0.2,1.2c0,0.7,0.2,1.3,0.6,1.6c0.2,0.2,0.5,0.3,0.8,0.3c0.5,0,0.8-0.2,1.1-0.5S188,559.8,188,559.2z"/>
		<path class="st5" d="M196.3,556.7c0.5,0.6,0.8,1.4,0.8,2.4c0,1.1-0.3,2-0.8,2.6s-1.2,0.9-2,0.9c-0.5,0-0.9-0.1-1.3-0.4
			c-0.2-0.1-0.4-0.3-0.5-0.6v3.3h-1.7V556h1.6v0.9c0.2-0.3,0.4-0.5,0.6-0.7c0.4-0.3,0.8-0.4,1.3-0.4
			C195.1,555.9,195.7,556.1,196.3,556.7z M195.3,559.2c0-0.5-0.1-0.9-0.3-1.3s-0.6-0.6-1.1-0.6c-0.6,0-1,0.3-1.2,0.9
			c-0.1,0.3-0.2,0.7-0.2,1.2c0,0.7,0.2,1.3,0.6,1.6c0.2,0.2,0.5,0.3,0.8,0.3c0.5,0,0.8-0.2,1.1-0.5S195.3,559.8,195.3,559.2z"/>
		<path class="st5" d="M201.8,557.8c-0.1-0.3-0.4-0.5-0.8-0.5c-0.5,0-0.8,0.2-1,0.5c-0.1,0.2-0.1,0.4-0.1,0.8v3.8h-1.7V556h1.6v0.9
			c0.2-0.3,0.4-0.6,0.6-0.7c0.3-0.2,0.7-0.4,1.3-0.4c0.5,0,0.9,0.1,1.2,0.3c0.2,0.2,0.4,0.5,0.6,0.8c0.2-0.4,0.5-0.7,0.8-0.8
			c0.3-0.2,0.7-0.3,1.1-0.3c0.3,0,0.6,0.1,0.8,0.2s0.5,0.3,0.7,0.6c0.2,0.2,0.3,0.5,0.4,0.8c0,0.2,0.1,0.5,0.1,0.9l0,4h-1.7v-4.1
			c0-0.2,0-0.4-0.1-0.6c-0.1-0.3-0.4-0.4-0.8-0.4c-0.5,0-0.8,0.2-1,0.6c-0.1,0.2-0.1,0.4-0.1,0.7v3.8h-1.7v-3.8
			C201.9,558.2,201.9,557.9,201.8,557.8z"/>
		<path class="st5" d="M209.1,556.7c0.4-0.6,1.2-0.8,2.3-0.8c0.7,0,1.3,0.1,1.9,0.4s0.8,0.8,0.8,1.6v2.9c0,0.2,0,0.4,0,0.7
			c0,0.2,0,0.4,0.1,0.4s0.1,0.1,0.2,0.2v0.2h-1.8c-0.1-0.1-0.1-0.2-0.1-0.4s0-0.2,0-0.4c-0.2,0.2-0.5,0.5-0.8,0.6
			c-0.4,0.2-0.8,0.3-1.2,0.3c-0.6,0-1.1-0.2-1.4-0.5s-0.6-0.8-0.6-1.4c0-0.8,0.3-1.4,0.9-1.7c0.3-0.2,0.8-0.3,1.5-0.4l0.6-0.1
			c0.3,0,0.5-0.1,0.7-0.1c0.2-0.1,0.4-0.3,0.4-0.5c0-0.3-0.1-0.4-0.3-0.5s-0.4-0.1-0.8-0.1c-0.4,0-0.7,0.1-0.8,0.3
			c-0.1,0.1-0.2,0.3-0.2,0.6h-1.6C208.7,557.5,208.9,557.1,209.1,556.7z M210.4,561.2c0.2,0.1,0.3,0.2,0.6,0.2c0.4,0,0.7-0.1,1-0.3
			s0.5-0.6,0.5-1.2v-0.6c-0.1,0.1-0.2,0.1-0.3,0.2s-0.3,0.1-0.4,0.1l-0.4,0.1c-0.4,0.1-0.6,0.1-0.8,0.2c-0.3,0.2-0.4,0.4-0.4,0.7
			C210.2,560.9,210.2,561.1,210.4,561.2z"/>
		<path class="st5" d="M218.6,557.2c-0.6,0-1,0.2-1.2,0.7c-0.1,0.3-0.2,0.6-0.2,1v3.5h-1.7V556h1.6v0.9c0.2-0.3,0.4-0.6,0.6-0.7
			c0.3-0.3,0.8-0.4,1.3-0.4c0.7,0,1.2,0.2,1.6,0.5s0.6,0.9,0.6,1.7v4.3h-1.7v-3.9c0-0.3,0-0.6-0.1-0.8
			C219.4,557.4,219.1,557.2,218.6,557.2z"/>
		<path class="st5" d="M225.9,557.2c-0.6,0-1,0.2-1.2,0.7c-0.1,0.3-0.2,0.6-0.2,1v3.5h-1.7V556h1.6v0.9c0.2-0.3,0.4-0.6,0.6-0.7
			c0.3-0.3,0.8-0.4,1.3-0.4c0.7,0,1.2,0.2,1.6,0.5s0.6,0.9,0.6,1.7v4.3H227v-3.9c0-0.3,0-0.6-0.1-0.8
			C226.7,557.4,226.4,557.2,225.9,557.2z"/>
		<path class="st5" d="M190.4,579.2l-0.4-0.6c-0.3-0.3-0.6-0.9-0.9-1.5c-0.5-1.2-0.8-2.4-0.8-3.6c0-1.1,0.2-2.1,0.7-3.2
			c0.3-0.7,0.8-1.5,1.4-2.3h1.3l-0.4,0.7c-0.5,0.9-0.8,1.8-1,2.8c-0.1,0.6-0.2,1.4-0.2,2.1c0,1.2,0.2,2.3,0.5,3.3
			c0.2,0.6,0.6,1.4,1.1,2.3H190.4z"/>
		<path class="st5" d="M192.6,568.2h1.7v8.6h-1.7V568.2z"/>
		<path class="st5" d="M201.4,574.9c0,0.4-0.2,0.8-0.6,1.2c-0.5,0.6-1.3,0.9-2.3,0.9c-0.8,0-1.5-0.3-2.2-0.8s-0.9-1.4-0.9-2.6
			c0-1.1,0.3-2,0.8-2.5s1.3-0.9,2.2-0.9c0.5,0,1,0.1,1.4,0.3s0.8,0.5,1.1,0.9c0.2,0.4,0.4,0.8,0.5,1.3c0,0.3,0.1,0.7,0.1,1.3h-4.4
			c0,0.6,0.2,1.1,0.6,1.3c0.2,0.2,0.5,0.2,0.8,0.2c0.3,0,0.6-0.1,0.8-0.3c0.1-0.1,0.2-0.3,0.3-0.4H201.4z M199.7,573
			c0-0.4-0.2-0.8-0.4-1s-0.5-0.3-0.9-0.3c-0.4,0-0.7,0.1-0.9,0.4s-0.3,0.6-0.4,1H199.7z"/>
		<path class="st5" d="M205.6,568.1v1.4c-0.1,0-0.3,0-0.5,0s-0.4,0-0.5,0.1s-0.1,0.2-0.1,0.3v0.5h1.1v1.2h-1.1v5.2h-1.7v-5.2h-0.9
			v-1.2h0.9v-0.4c0-0.7,0.1-1.2,0.3-1.4c0.2-0.4,0.8-0.6,1.8-0.6c0.1,0,0.2,0,0.3,0S205.4,568.1,205.6,568.1z"/>
		<path class="st5" d="M209.5,575.6v1.2l-0.8,0c-0.8,0-1.3-0.1-1.6-0.4c-0.2-0.2-0.3-0.5-0.3-0.9v-3.9h-0.9v-1.2h0.9v-1.8h1.7v1.8h1
			v1.2h-1v3.4c0,0.3,0,0.4,0.1,0.5s0.3,0.1,0.6,0.1c0.1,0,0.1,0,0.2,0S209.5,575.6,209.5,575.6z"/>
		<path class="st5" d="M211.6,578.7l-0.4,0.6h-1.2c0.5-0.9,0.9-1.7,1.1-2.3c0.3-1,0.5-2.1,0.5-3.3c0-0.8-0.1-1.5-0.2-2.1
			c-0.2-1-0.5-1.9-1-2.8L210,568h1.3c0.6,0.8,1,1.6,1.4,2.3c0.5,1.1,0.7,2.1,0.7,3.2c0,1.2-0.3,2.4-0.8,3.6
			C212.1,577.8,211.8,578.3,211.6,578.7z"/>
	</g>
</g>
<g id="e">
	<path class="st6" d="M690.8,805.3l5.2-87.9c28.7-27.9,77.5-147.2,77.5-147.2l7-18.3l8.7-55.7l-3.5-77.5l-19.2-73.1l-28.7-65.3
		L692.6,221l-54-47.9l-62.7-38.3L508,112.2l-69.7-9.6l-75.8,5.2l-68.8,16.5l-64.4,32.2L171,201l-48.8,53.1l-34.8,63.6l-26.1,68.8
		l-7,74l7,74.9l17.4,67.9l35.7,74.9l43.5-26.1l64.4,3.5l-5.2,117.6l-20.9-1l188.1,8.7v17.4L690.8,805.3L690.8,805.3z"/>
	<line class="st6" x1="690.8" y1="805.3" x2="714.4" y2="806"/>
	<polyline class="st7" points="54.3,460.5 339.4,475.5 347.3,475.9 	"/>
	<line class="st7" x1="222.4" y1="655.5" x2="378.4" y2="662.4"/>
	<line class="st7" x1="341.7" y1="534.1" x2="335.6" y2="659"/>
	<polyline class="st7" points="438.3,102.6 420.5,478.2 409.8,478.2 431,478.2 	"/>
	<polyline class="st7" points="789.2,490.6 489.4,478.2 489.4,487.9 	"/>
	<polyline class="st7" points="489.4,545 485.3,654.8 482,742 	"/>
	<polyline class="st7" points="485.3,654.8 676.9,663.5 714.4,687.4 	"/>
	<line class="st7" x1="636.5" y1="497.5" x2="636.5" y2="484.3"/>
	<line class="st7" x1="633.6" y1="551.7" x2="629.7" y2="661.4"/>
</g>
<g id="f">
	<g>
		<circle class="st8" cx="584.1" cy="722.4" r="25.4"/>
		<path class="st9" d="M567.1,759.7l1.3-0.2c0,0.5,0.2,0.8,0.5,1.3c0.3,0.3,0.6,0.6,1,0.8c0.5,0.2,1,0.3,1.6,0.3c0.5,0,1,0,1.3-0.2
			s0.6-0.3,0.8-0.6s0.3-0.5,0.3-0.8s-0.2-0.6-0.3-0.8c-0.3-0.3-0.5-0.5-1-0.6c-0.6-0.2-1.1-0.3-1.8-0.5s-1.3-0.3-1.9-0.6
			c-0.5-0.2-0.8-0.5-1.1-1c-0.2-0.3-0.3-0.8-0.3-1.3s0.2-1,0.5-1.4c0.3-0.5,0.8-0.8,1.3-1c0.6-0.2,1.3-0.3,1.9-0.3s1.3,0.2,1.9,0.3
			c0.5,0.2,1,0.6,1.3,1.1s0.5,1,0.5,1.6l-1.3,0.2c0-0.5-0.3-1.1-0.6-1.4c-0.5-0.3-1.1-0.5-1.8-0.5s-1.3,0.2-1.8,0.5
			c-0.3,0.3-0.5,0.6-0.5,1.1c0,0.3,0.2,0.6,0.3,1c0.6,0.3,1.3,0.6,2.1,0.8s1.4,0.3,2.2,0.6c0.5,0.2,1,0.6,1.3,1
			c0.3,0.5,0.5,1,0.5,1.4s-0.2,1.1-0.5,1.6s-0.8,1-1.3,1.1c-0.6,0.3-1.3,0.5-1.9,0.3c-0.8,0-1.6-0.2-2.2-0.3
			c-0.6-0.3-1.1-0.6-1.4-1.3C567.4,761,567.1,760.3,567.1,759.7L567.1,759.7z"/>
		<path class="st9" d="M579.6,761.8l0.2,1.1c-0.3,0-0.6,0.2-1,0.2s-0.8,0-1.1-0.2c-0.2-0.2-0.5-0.3-0.5-0.6c-0.2-0.5-0.2-1-0.2-1.4
			v-4.2h-1v-1h1v-1.8l1.3-0.8v2.6h1.3v1h-1.3v5c0,0.2,0.2,0.2,0.2,0.3c0.2,0,0.3,0.2,0.5,0.2C579.3,761.9,579.4,761.9,579.6,761.8
			L579.6,761.8z"/>
		<path class="st9" d="M585.7,762.1c-0.3,0.3-0.8,0.6-1.3,0.8s-1,0.3-1.4,0.3c-0.6,0-1.3-0.2-1.9-0.6c-0.5-0.3-0.6-1-0.6-1.4
			c0-0.6,0.3-1.3,1-1.8c0.3-0.2,0.6-0.3,1-0.5s0.8-0.2,1.1-0.2c0.8,0,1.4-0.2,2.2-0.5v-0.3c0-0.3-0.2-0.8-0.3-1.1
			c-0.5-0.3-1-0.5-1.4-0.5s-1,0-1.3,0.3s-0.5,0.6-0.6,1.1l-1.3-0.2c0.2-0.5,0.3-1,0.5-1.3c0.3-0.3,0.6-0.6,1.1-0.8s1.1-0.3,1.6-0.3
			s1,0,1.6,0.2c0.3,0.2,0.6,0.3,0.8,0.5c0.2,0.3,0.3,0.5,0.3,0.8v5c0,0.3,0.2,0.6,0.3,1h-1.3C585.7,762.7,585.7,762.4,585.7,762.1
			L585.7,762.1z M585.5,759.2c-0.6,0.2-1.3,0.3-2.1,0.5c-0.3,0-0.8,0.2-1.1,0.3c-0.2,0.2-0.3,0.2-0.5,0.5c-0.3,0.5-0.2,1.1,0.2,1.4
			s0.6,0.3,1.1,0.3s1-0.2,1.3-0.3c0.3-0.2,0.6-0.5,0.8-0.8s0.2-0.8,0.2-1.3L585.5,759.2L585.5,759.2z"/>
		<path class="st9" d="M588.7,754.3v-1.4h1.3v1.4H588.7z M588.7,762.9v-7.4h1.3v7.4H588.7z"/>
		<path class="st9" d="M591.9,762.9v-7.4h1.1v1.1c0.2-0.3,0.5-0.8,0.8-1c0.2-0.2,0.5-0.3,0.8-0.3c0.5,0,1,0.2,1.3,0.3l-0.5,1.1
			c-0.3-0.2-0.6-0.3-1-0.3s-0.5,0.2-0.8,0.3c-0.2,0.2-0.3,0.5-0.5,0.6c-0.2,0.5-0.2,1-0.2,1.4v3.8L591.9,762.9L591.9,762.9z"/>
		<path class="st9" d="M596.1,760.8l1.3-0.2c0,0.5,0.3,0.8,0.6,1.1s0.8,0.5,1.3,0.3c0.5,0,1-0.2,1.3-0.3c0.3-0.2,0.5-0.5,0.5-0.8
			s-0.2-0.5-0.3-0.6c-0.5-0.2-0.8-0.3-1.3-0.5c-0.6-0.2-1.3-0.3-1.9-0.6s-1.1-1-1.1-1.8c0-0.3,0-0.6,0.2-1c0.2-0.3,0.3-0.5,0.6-0.6
			c0.3-0.2,0.5-0.3,0.8-0.3c0.3-0.2,0.6-0.2,1.1-0.2s1,0,1.4,0.3c0.3,0.2,0.6,0.3,1,0.6c0.2,0.3,0.3,0.8,0.5,1.1l-1.3,0.2
			c0-0.3-0.2-0.6-0.5-1c-0.3-0.2-0.8-0.3-1.1-0.3c-0.5,0-0.8,0-1.3,0.3c-0.2,0.2-0.3,0.3-0.3,0.6c0,0.2,0,0.3,0.2,0.5
			s0.3,0.3,0.5,0.3s0.5,0.2,1.1,0.3c0.6,0.2,1.3,0.3,1.9,0.6c0.3,0.2,0.6,0.3,0.8,0.6s0.3,0.6,0.3,1.1s-0.2,0.8-0.3,1.1
			c-0.3,0.3-0.6,0.6-1.1,0.8s-1,0.3-1.6,0.3c-0.8,0-1.6-0.2-2.2-0.6C596.5,762.1,596.2,761.5,596.1,760.8L596.1,760.8z"/>
		<g id="g">
			<line class="st10" x1="574.3" y1="731" x2="592.1" y2="731"/>
			<polyline class="st10" points="589,731 589,727.8 586,727.8 586,724.8 582.8,724.8 582.8,721.6 579.7,721.6 579.7,718.5 
				574.3,718.5 			"/>
			<line class="st10" x1="583.6" y1="713.1" x2="593.3" y2="722.8"/>
			<polyline class="st10" points="583.6,717.1 583.6,713.1 587.6,713.1 			"/>
			<polyline class="st10" points="593.3,719.2 593.3,722.8 589.7,722.8 			"/>
		</g>
	</g>
	<g class="st4">
		<path class="st9" d="M694.2,560.3v-8.6h1.1v8.6H694.2z"/>
	</g>
	<g class="st4">
		<path class="st9" d="M699.5,560.3v-7.6h-2.8v-1h6.8v1h-2.8v7.6H699.5z"/>
	</g>
	<g class="st4">
		<path class="st9" d="M681.1,572l1.1-0.1c0.1,0.4,0.2,0.8,0.4,1.1s0.5,0.5,0.9,0.7s0.8,0.3,1.3,0.3c0.4,0,0.8-0.1,1.1-0.2
			s0.6-0.3,0.7-0.5s0.2-0.5,0.2-0.7c0-0.3-0.1-0.5-0.2-0.7s-0.4-0.4-0.8-0.5c-0.2-0.1-0.7-0.2-1.5-0.4s-1.3-0.4-1.7-0.5
			c-0.4-0.2-0.7-0.5-0.9-0.8s-0.3-0.7-0.3-1.1c0-0.4,0.1-0.8,0.4-1.2s0.6-0.7,1.1-0.9s1-0.3,1.6-0.3s1.2,0.1,1.7,0.3
			s0.9,0.5,1.1,0.9s0.4,0.8,0.4,1.4l-1.1,0.1c-0.1-0.5-0.3-1-0.6-1.2s-0.8-0.4-1.5-0.4s-1.2,0.1-1.5,0.4s-0.5,0.6-0.5,0.9
			c0,0.3,0.1,0.6,0.3,0.8s0.8,0.4,1.7,0.6s1.6,0.4,1.9,0.5c0.5,0.2,0.9,0.5,1.1,0.9s0.4,0.8,0.4,1.2c0,0.5-0.1,0.9-0.4,1.3
			s-0.6,0.7-1.1,0.9s-1,0.3-1.7,0.3c-0.8,0-1.4-0.1-2-0.3s-0.9-0.6-1.2-1S681.2,572.5,681.1,572z"/>
		<path class="st9" d="M693.7,572.7l1.1,0.1c-0.2,0.6-0.5,1.1-1,1.5s-1.1,0.5-1.8,0.5c-0.9,0-1.6-0.3-2.2-0.8s-0.8-1.3-0.8-2.4
			c0-1,0.3-1.9,0.8-2.4s1.2-0.9,2.1-0.9c0.8,0,1.5,0.3,2,0.8s0.8,1.4,0.8,2.4c0,0.1,0,0.2,0,0.3h-4.6c0,0.7,0.2,1.2,0.6,1.6
			s0.8,0.5,1.3,0.5c0.4,0,0.7-0.1,1-0.3S693.5,573.2,693.7,572.7z M690.2,571h3.5c0-0.5-0.2-0.9-0.4-1.2c-0.3-0.4-0.8-0.6-1.3-0.6
			s-0.9,0.2-1.2,0.5S690.2,570.5,690.2,571z"/>
		<path class="st9" d="M696.1,574.7v-6.2h0.9v0.9c0.2-0.4,0.5-0.7,0.7-0.9s0.4-0.2,0.7-0.2c0.4,0,0.7,0.1,1.1,0.3l-0.4,1
			c-0.3-0.2-0.5-0.2-0.8-0.2c-0.2,0-0.4,0.1-0.6,0.2s-0.3,0.3-0.4,0.6c-0.1,0.4-0.2,0.8-0.2,1.2v3.3L696.1,574.7L696.1,574.7z"/>
		<path class="st9" d="M701.8,574.7l-2.4-6.2h1.1l1.3,3.7c0.1,0.4,0.3,0.8,0.4,1.3c0.1-0.3,0.2-0.7,0.4-1.2l1.4-3.8h1.1l-2.4,6.2
			H701.8z"/>
		<path class="st9" d="M710.3,572.7l1.1,0.1c-0.2,0.6-0.5,1.1-1,1.5s-1.1,0.5-1.8,0.5c-0.9,0-1.6-0.3-2.2-0.8s-0.8-1.3-0.8-2.4
			c0-1,0.3-1.9,0.8-2.4s1.2-0.9,2.1-0.9c0.8,0,1.5,0.3,2,0.8s0.8,1.4,0.8,2.4c0,0.1,0,0.2,0,0.3h-4.6c0,0.7,0.2,1.2,0.6,1.6
			s0.8,0.5,1.3,0.5c0.4,0,0.7-0.1,1-0.3S710.2,573.2,710.3,572.7z M706.9,571h3.5c0-0.5-0.2-0.9-0.4-1.2c-0.3-0.4-0.8-0.6-1.3-0.6
			s-0.9,0.2-1.2,0.5S706.9,570.5,706.9,571z"/>
		<path class="st9" d="M712.7,574.7v-6.2h0.9v0.9c0.2-0.4,0.5-0.7,0.7-0.9s0.4-0.2,0.7-0.2c0.4,0,0.7,0.1,1.1,0.3l-0.4,1
			c-0.3-0.2-0.5-0.2-0.8-0.2c-0.2,0-0.4,0.1-0.6,0.2s-0.3,0.3-0.4,0.6c-0.1,0.4-0.2,0.8-0.2,1.2v3.3L712.7,574.7L712.7,574.7z"/>
	</g>
	<g class="st4">
		<path class="st9" d="M683.2,589.1v-8.6h3.8c0.8,0,1.3,0.1,1.7,0.2s0.7,0.4,1,0.8s0.4,0.8,0.4,1.3c0,0.6-0.2,1.1-0.6,1.5
			s-1,0.7-1.8,0.8c0.3,0.1,0.5,0.3,0.7,0.4c0.3,0.3,0.6,0.7,0.9,1.1l1.5,2.3h-1.4l-1.1-1.8c-0.3-0.5-0.6-0.9-0.8-1.2
			s-0.4-0.5-0.6-0.6s-0.3-0.2-0.5-0.2c-0.1,0-0.3,0-0.6,0h-1.3v3.8h-1.3L683.2,589.1L683.2,589.1z M684.3,584.3h2.4
			c0.5,0,0.9-0.1,1.2-0.2s0.5-0.3,0.7-0.5s0.2-0.5,0.2-0.8c0-0.4-0.1-0.7-0.4-1s-0.8-0.4-1.4-0.4h-2.7V584.3z"/>
		<path class="st9" d="M691.3,586c0-1.2,0.3-2,1-2.6c0.5-0.5,1.2-0.7,2-0.7c0.9,0,1.6,0.3,2.1,0.8s0.8,1.3,0.8,2.3
			c0,0.8-0.1,1.4-0.4,1.9s-0.6,0.8-1,1.1s-1,0.4-1.5,0.4c-0.9,0-1.6-0.3-2.1-0.8S691.3,587.1,691.3,586z M692.4,586
			c0,0.8,0.2,1.4,0.5,1.8s0.8,0.6,1.3,0.6s1-0.2,1.3-0.6s0.5-1,0.5-1.8s-0.2-1.4-0.5-1.7s-0.8-0.6-1.3-0.6s-1,0.2-1.3,0.6
			S692.4,585.2,692.4,586z"/>
		<path class="st9" d="M698,586c0-1.2,0.3-2,1-2.6c0.5-0.5,1.2-0.7,2-0.7c0.9,0,1.6,0.3,2.1,0.8s0.8,1.3,0.8,2.3
			c0,0.8-0.1,1.4-0.4,1.9s-0.6,0.8-1,1.1s-1,0.4-1.5,0.4c-0.9,0-1.6-0.3-2.1-0.8S698,587.1,698,586z M699.1,586
			c0,0.8,0.2,1.4,0.5,1.8s0.8,0.6,1.3,0.6s1-0.2,1.3-0.6s0.5-1,0.5-1.8s-0.2-1.4-0.5-1.7s-0.8-0.6-1.3-0.6s-1,0.2-1.3,0.6
			S699.1,585.2,699.1,586z"/>
		<path class="st9" d="M705.1,589.1v-6.2h0.9v0.9c0.2-0.3,0.5-0.5,0.8-0.7s0.7-0.3,1.1-0.3c0.5,0,0.8,0.1,1.1,0.3s0.5,0.5,0.6,0.8
			c0.5-0.7,1.1-1.1,1.9-1.1c0.6,0,1.1,0.2,1.4,0.5s0.5,0.9,0.5,1.6v4.3h-1v-3.9c0-0.4,0-0.7-0.1-0.9s-0.2-0.3-0.4-0.4
			s-0.4-0.2-0.6-0.2c-0.4,0-0.8,0.1-1.1,0.4s-0.4,0.8-0.4,1.4v3.6h-1.1v-4c0-0.5-0.1-0.8-0.3-1.1s-0.5-0.4-0.8-0.4s-0.6,0.1-0.8,0.2
			s-0.4,0.4-0.5,0.7s-0.2,0.7-0.2,1.3v3.2L705.1,589.1L705.1,589.1z"/>
	</g>
	<g class="st4">
		<path class="st9" d="M545.8,583.6V575h3.2c0.6,0,1,0,1.3,0.1c0.4,0.1,0.8,0.2,1.1,0.4s0.5,0.5,0.7,0.8s0.3,0.7,0.3,1.2
			c0,0.7-0.2,1.3-0.7,1.9s-1.3,0.8-2.5,0.8H547v3.5h-1.2V583.6z M547,579.1h2.2c0.7,0,1.3-0.1,1.6-0.4s0.5-0.7,0.5-1.2
			c0-0.4-0.1-0.7-0.3-0.9s-0.4-0.4-0.7-0.5c-0.2-0.1-0.5-0.1-1.1-0.1H547V579.1z"/>
		<path class="st9" d="M553.7,576.2V575h1.1v1.2H553.7z M553.7,583.6v-6.2h1.1v6.2H553.7z"/>
		<path class="st9" d="M556.2,584.1l1,0.2c0,0.3,0.2,0.5,0.4,0.7c0.3,0.2,0.6,0.3,1.1,0.3s0.9-0.1,1.1-0.3s0.4-0.5,0.5-0.8
			c0.1-0.2,0.1-0.7,0.1-1.4c-0.5,0.5-1,0.8-1.7,0.8c-0.9,0-1.5-0.3-2-0.9s-0.7-1.4-0.7-2.2c0-0.6,0.1-1.1,0.3-1.6s0.5-0.9,0.9-1.2
			s0.9-0.4,1.4-0.4c0.7,0,1.3,0.3,1.8,0.9v-0.8h1v5.4c0,1-0.1,1.7-0.3,2.1s-0.5,0.7-0.9,1s-1,0.4-1.6,0.4c-0.7,0-1.3-0.2-1.8-0.5
			S556.2,584.8,556.2,584.1z M557.1,580.4c0,0.8,0.2,1.4,0.5,1.8s0.7,0.6,1.2,0.6s0.9-0.2,1.2-0.6s0.5-1,0.5-1.8s-0.2-1.3-0.5-1.7
			s-0.7-0.6-1.2-0.6s-0.9,0.2-1.2,0.6S557.1,579.6,557.1,580.4z"/>
		<path class="st9" d="M567.3,581.6l1.1,0.1c-0.2,0.6-0.5,1.1-1,1.5s-1.1,0.5-1.8,0.5c-0.9,0-1.6-0.3-2.2-0.8s-0.8-1.3-0.8-2.4
			c0-1,0.3-1.9,0.8-2.4s1.2-0.9,2.1-0.9c0.8,0,1.5,0.3,2,0.8s0.8,1.4,0.8,2.4c0,0.1,0,0.2,0,0.3h-4.6c0,0.7,0.2,1.2,0.6,1.6
			s0.8,0.5,1.3,0.5c0.4,0,0.7-0.1,1-0.3S567.2,582.1,567.3,581.6z M563.9,579.9h3.5c0-0.5-0.2-0.9-0.4-1.2c-0.3-0.4-0.8-0.6-1.3-0.6
			s-0.9,0.2-1.2,0.5S563.9,579.4,563.9,579.9z"/>
		<path class="st9" d="M569.3,580.5c0-1.2,0.3-2,1-2.6c0.5-0.5,1.2-0.7,2-0.7c0.9,0,1.6,0.3,2.1,0.8s0.8,1.3,0.8,2.3
			c0,0.8-0.1,1.4-0.4,1.9s-0.6,0.8-1,1.1s-1,0.4-1.5,0.4c-0.9,0-1.6-0.3-2.1-0.8S569.3,581.5,569.3,580.5z M570.4,580.5
			c0,0.8,0.2,1.4,0.5,1.8s0.8,0.6,1.3,0.6s1-0.2,1.3-0.6s0.5-1,0.5-1.8s-0.2-1.4-0.5-1.7s-0.8-0.6-1.3-0.6s-1,0.2-1.3,0.6
			S570.4,579.7,570.4,580.5z"/>
		<path class="st9" d="M576.4,583.6v-6.2h0.9v0.9c0.5-0.7,1.1-1,2-1c0.4,0,0.7,0.1,1,0.2s0.5,0.3,0.7,0.5s0.3,0.5,0.3,0.8
			c0,0.2,0.1,0.5,0.1,1v3.8h-1.1v-3.8c0-0.4,0-0.8-0.1-1s-0.2-0.4-0.4-0.5s-0.5-0.2-0.7-0.2c-0.4,0-0.8,0.1-1.2,0.4
			s-0.5,0.8-0.5,1.6v3.4L576.4,583.6L576.4,583.6z"/>
	</g>
	<g class="st4">
		<path class="st9" d="M534.6,598v-8.6h1.1v3.5h4.5v-3.5h1.1v8.6h-1.1v-4h-4.5v4H534.6z"/>
		<path class="st9" d="M542.7,594.9c0-1.2,0.3-2,1-2.6c0.5-0.5,1.2-0.7,2-0.7c0.9,0,1.6,0.3,2.1,0.8s0.8,1.3,0.8,2.3
			c0,0.8-0.1,1.4-0.4,1.9s-0.6,0.8-1,1.1s-1,0.4-1.5,0.4c-0.9,0-1.6-0.3-2.1-0.8S542.7,595.9,542.7,594.9z M543.7,594.9
			c0,0.8,0.2,1.4,0.5,1.8s0.8,0.6,1.3,0.6s1-0.2,1.3-0.6s0.5-1,0.5-1.8s-0.2-1.4-0.5-1.7s-0.8-0.6-1.3-0.6s-1,0.2-1.3,0.6
			S543.7,594.1,543.7,594.9z"/>
		<path class="st9" d="M549.7,598v-8.6h1.1v8.6H549.7z"/>
		<path class="st9" d="M556.6,596l1.1,0.1c-0.2,0.6-0.5,1.1-1,1.5s-1.1,0.5-1.8,0.5c-0.9,0-1.6-0.3-2.2-0.8S552,596,552,595
			s0.3-1.9,0.8-2.4s1.2-0.9,2.1-0.9c0.8,0,1.5,0.3,2,0.8s0.8,1.4,0.8,2.4c0,0.1,0,0.2,0,0.3h-4.6c0,0.7,0.2,1.2,0.6,1.6
			s0.8,0.5,1.3,0.5c0.4,0,0.7-0.1,1-0.3S556.5,596.5,556.6,596z M553.2,594.3h3.5c0-0.5-0.2-0.9-0.4-1.2c-0.3-0.4-0.8-0.6-1.3-0.6
			s-0.9,0.2-1.2,0.5S553.2,593.8,553.2,594.3z"/>
		<path class="st9" d="M562.5,598v-8.6h3.8c0.8,0,1.3,0.1,1.7,0.2s0.7,0.4,1,0.8s0.4,0.8,0.4,1.3c0,0.6-0.2,1.1-0.6,1.5
			s-1,0.7-1.8,0.8c0.3,0.1,0.5,0.3,0.7,0.4c0.3,0.3,0.6,0.7,0.9,1.1l1.5,2.3h-1.4l-1.1-1.8c-0.3-0.5-0.6-0.9-0.8-1.2
			s-0.4-0.5-0.6-0.6s-0.3-0.2-0.5-0.2c-0.1,0-0.3,0-0.6,0h-1.3v3.8h-1.3L562.5,598L562.5,598z M563.7,593.2h2.4
			c0.5,0,0.9-0.1,1.2-0.2s0.5-0.3,0.7-0.5s0.2-0.5,0.2-0.8c0-0.4-0.1-0.7-0.4-1s-0.8-0.4-1.4-0.4h-2.7V593.2z"/>
		<path class="st9" d="M570.7,594.9c0-1.2,0.3-2,1-2.6c0.5-0.5,1.2-0.7,2-0.7c0.9,0,1.6,0.3,2.1,0.8s0.8,1.3,0.8,2.3
			c0,0.8-0.1,1.4-0.4,1.9s-0.6,0.8-1,1.1s-1,0.4-1.5,0.4c-0.9,0-1.6-0.3-2.1-0.8S570.7,595.9,570.7,594.9z M571.8,594.9
			c0,0.8,0.2,1.4,0.5,1.8s0.8,0.6,1.3,0.6s1-0.2,1.3-0.6s0.5-1,0.5-1.8s-0.2-1.4-0.5-1.7s-0.8-0.6-1.3-0.6s-1,0.2-1.3,0.6
			S571.8,594.1,571.8,594.9z"/>
		<path class="st9" d="M577.3,594.9c0-1.2,0.3-2,1-2.6c0.5-0.5,1.2-0.7,2-0.7c0.9,0,1.6,0.3,2.1,0.8s0.8,1.3,0.8,2.3
			c0,0.8-0.1,1.4-0.4,1.9s-0.6,0.8-1,1.1s-1,0.4-1.5,0.4c-0.9,0-1.6-0.3-2.1-0.8S577.3,595.9,577.3,594.9z M578.4,594.9
			c0,0.8,0.2,1.4,0.5,1.8s0.8,0.6,1.3,0.6s1-0.2,1.3-0.6s0.5-1,0.5-1.8s-0.2-1.4-0.5-1.7s-0.8-0.6-1.3-0.6s-1,0.2-1.3,0.6
			S578.4,594.1,578.4,594.9z"/>
		<path class="st9" d="M584.4,598v-6.2h0.9v0.9c0.2-0.3,0.5-0.5,0.8-0.7s0.7-0.3,1.1-0.3c0.5,0,0.8,0.1,1.1,0.3s0.5,0.5,0.6,0.8
			c0.5-0.7,1.1-1.1,1.9-1.1c0.6,0,1.1,0.2,1.4,0.5s0.5,0.9,0.5,1.6v4.3h-1v-3.9c0-0.4,0-0.7-0.1-0.9s-0.2-0.3-0.4-0.4
			s-0.4-0.2-0.6-0.2c-0.4,0-0.8,0.1-1.1,0.4s-0.4,0.8-0.4,1.4v3.6H588v-4c0-0.5-0.1-0.8-0.3-1.1s-0.5-0.4-0.8-0.4s-0.6,0.1-0.8,0.2
			s-0.4,0.4-0.5,0.7s-0.2,0.7-0.2,1.3v3.2L584.4,598L584.4,598z"/>
	</g>
	<circle class="st8" cx="563.6" cy="546.9" r="25.5"/>
	<rect x="553.5" y="541.9" class="st11" width="20.7" height="17.6"/>
	<line class="st11" x1="557" y1="539.4" x2="571.5" y2="539.4"/>
	<line class="st11" x1="560.1" y1="536.6" x2="568.1" y2="536.6"/>
	<polyline class="st11" points="568.6,546.7 568.6,549.3 559.8,549.3 559.8,546.7 	"/>
	<circle class="st8" cx="295.5" cy="704" r="27"/>
	<path class="st12" d="M284.1,691.2h24c0.5,0,0.9,0.3,0.9,0.8v24c0,0.5-0.3,0.8-0.9,0.8h-24c-0.5,0-0.9-0.3-0.9-0.8v-23.8
		C283.1,691.8,283.6,691.2,284.1,691.2z"/>
	<rect x="288.4" y="697.2" class="st12" width="6.6" height="19.7"/>
	<rect x="295" y="697.2" class="st12" width="6.6" height="19.7"/>
	<line class="st12" x1="293.8" y1="694.1" x2="298.4" y2="694.1"/>
	<polyline class="st13" points="304.3,704.8 305.5,703.6 306.7,704.8 	"/>
	<polyline class="st13" points="304.3,706.5 305.5,707.7 306.7,706.5 	"/>
	<g class="st4">
		<path class="st9" d="M287.1,748.8v-9.5h1.3v8.4h4.7v1.1H287.1z"/>
		<path class="st9" d="M294.4,740.7v-1.3h1.2v1.3H294.4z M294.4,748.8v-6.9h1.2v6.9H294.4z"/>
		<path class="st9" d="M297.6,748.8v-6h-1v-0.9h1v-0.7c0-0.5,0-0.8,0.1-1c0.1-0.3,0.3-0.5,0.6-0.7c0.3-0.2,0.7-0.3,1.2-0.3
			c0.3,0,0.7,0,1.1,0.1l-0.2,1c-0.2,0-0.5-0.1-0.7-0.1c-0.4,0-0.6,0.1-0.8,0.2c-0.1,0.2-0.2,0.4-0.2,0.8v0.6h1.3v0.9h-1.3v6h-1.1
			V748.8z"/>
		<path class="st9" d="M303.6,747.8l0.2,1c-0.3,0.1-0.6,0.1-0.9,0.1c-0.4,0-0.8-0.1-1-0.2s-0.4-0.3-0.5-0.5s-0.1-0.7-0.1-1.4v-4
			h-0.9v-0.9h0.9v-1.7l1.2-0.7v2.4h1.2v0.9h-1.2v4c0,0.3,0,0.5,0.1,0.6c0,0.1,0.1,0.2,0.2,0.2c0.1,0.1,0.2,0.1,0.4,0.1
			C303.2,747.8,303.4,747.8,303.6,747.8z"/>
	</g>
</g>
</svg>
