<?xml version="1.0" encoding="utf-8"?>
<!-- Generator: Adobe Illustrator 24.0.1, SVG Export Plug-In . SVG Version: 6.00 Build 0)  -->
<svg version="1.1" id="Layer_1" xmlns="http://www.w3.org/2000/svg" xmlns:xlink="http://www.w3.org/1999/xlink" x="0px" y="0px"
	 viewBox="0 0 658.4 640.8" style="enable-background:new 0 0 658.4 640.8;" xml:space="preserve">
<style type="text/css">
	.st0{fill:#4196B1;}
	.st1{fill:#A8E0E5;}
	.st2{fill:#8ECCCE;}
	.st3{fill:#99B8BF;}
	.st4{fill:#757D7F;}
	.st5{font-family:'ArialMT';}
	.st6{font-size:6.021px;}
	.st7{opacity:5.000000e-02;fill:#030303;enable-background:new    ;}
	.st8{fill:#B8BFC1;}
	.st9{fill:#FFFFFF;}
	.st10{opacity:0.15;fill:#010101;enable-background:new    ;}
	.st11{fill:#596068;}
	.st12{fill:#9BAEB7;}
	.st13{fill:none;stroke:#7A8E93;stroke-width:0.739;stroke-linecap:round;stroke-miterlimit:10;}
	.st14{fill:none;stroke:#B8BFC1;stroke-width:2;stroke-linecap:round;stroke-linejoin:round;}
	.st15{opacity:0.3;fill:#4196B1;enable-background:new    ;}
	.st16{fill:#0D5577;}
	.st17{fill:#83D8EF;stroke:#53C5F1;stroke-width:0.526;stroke-linecap:round;stroke-linejoin:round;}
	.st18{fill:#4E9FB9;stroke:#4A90A0;stroke-width:0.526;stroke-linecap:round;stroke-linejoin:round;}
	.st19{opacity:0.43;fill:#53C5F1;enable-background:new    ;}
	.st20{fill:#4E9FB9;stroke:#4A90A0;stroke-width:0.372;stroke-linecap:round;stroke-linejoin:round;}
	.st21{opacity:0.4;fill:#4196B1;enable-background:new    ;}
	.st22{fill:#4E9FB9;stroke:#4A90A0;stroke-width:0.291;stroke-linecap:round;stroke-linejoin:round;stroke-miterlimit:4;}
	.st23{opacity:0.15;fill:#0D5577;enable-background:new    ;}
	.st24{fill:#1E7E9B;}
	.st25{fill:#7DCFE2;stroke:#53C5F1;stroke-width:0.734;stroke-linecap:round;stroke-linejoin:round;}
	.st26{fill:#4FAFC6;stroke:#5798A3;stroke-width:0.587;stroke-linecap:round;stroke-linejoin:round;stroke-miterlimit:4;}
	.st27{opacity:0.1;fill:#353C3D;enable-background:new    ;}
	.st28{fill:#4FAFC6;stroke:#5798A3;stroke-width:0.587;stroke-linecap:round;stroke-linejoin:round;stroke-miterlimit:3.9986;}
	.st29{fill:#4E9FB9;stroke:#4A90A0;stroke-width:0.291;stroke-linecap:round;stroke-linejoin:round;stroke-miterlimit:3.9993;}
	.st30{fill:#4FAFC6;stroke:#5798A3;stroke-width:0.587;stroke-linecap:round;stroke-linejoin:round;stroke-miterlimit:3.9993;}
	.st31{fill:#4FAFC6;stroke:#5798A3;stroke-width:0.587;stroke-linecap:round;stroke-linejoin:round;stroke-miterlimit:3.9997;}
	.st32{fill:#4E9FB9;stroke:#4A90A0;stroke-width:0.242;stroke-linecap:round;stroke-linejoin:round;}
	.st33{fill:none;stroke:#4A90A0;stroke-linecap:round;stroke-linejoin:round;}
	.st34{fill:#EFF7F9;}
	.st35{opacity:8.000000e-02;fill:#101010;enable-background:new    ;}
	.st36{opacity:0.65;fill:#575757;enable-background:new    ;}
	.st37{font-family:'Arial-BoldMT';}
	.st38{font-size:5px;}
	.st39{fill:none;stroke:#EBF2F2;stroke-width:5;stroke-miterlimit:10;}
	.st40{fill:none;stroke:#FFFFFF;stroke-width:2;stroke-miterlimit:10;}
	.st41{fill:#EBF2F2;}
	.st42{fill:none;stroke:#7A8E93;stroke-width:0.498;stroke-miterlimit:10;}
	.st43{fill:none;stroke:#7A8E93;stroke-width:0.564;stroke-miterlimit:10;}
	.st44{font-size:5.951px;}
	.st45{fill:none;stroke:#7A8E93;stroke-width:0.499;stroke-linecap:round;stroke-linejoin:round;}
	.st46{font-size:6.122px;}
	.st47{fill:none;stroke:#7A8E93;stroke-width:0.29;stroke-miterlimit:10;}
	.st48{font-size:6.267px;}
	.st49{fill:none;stroke:#7A8E93;stroke-width:0.39;stroke-miterlimit:10;}
</style>
<title>Walham_L1</title>
<g id="shadow">
	<polygon class="st0" points="652.2,40.7 622,40.7 622,83.4 577.1,83.4 577.1,5.7 153.3,5.7 153.3,142.3 19,142.3 19,627.1 
		652.2,627.1 	"/>
</g>
<g id="background">
	<polygon class="st1" points="642.2,40.3 612.6,40.3 612.6,82.5 568.7,82.5 568.7,5.7 154,5.7 154,140.8 22.5,140.8 22.5,620.6 
		642.2,620.6 	"/>
</g>
<g id="spaces">
	<rect x="22.5" y="558.4" class="st2" width="194.8" height="62.2"/>
	<rect x="251.5" y="348.1" class="st2" width="69.8" height="82.4"/>
	<rect x="209.1" y="144.3" class="st2" width="180.7" height="103.2"/>
	<rect x="210.7" y="275.7" class="st2" width="47.1" height="61.2"/>
	<rect x="320.9" y="275.7" class="st2" width="68.7" height="108.1"/>
	<rect x="321.2" y="384.2" class="st2" width="86.1" height="46.4"/>
	<rect x="251.5" y="275.7" class="st2" width="70" height="72.8"/>
	<rect x="420.8" y="7.3" class="st2" width="147" height="110.7"/>
	<rect x="420.8" y="118.2" class="st2" width="104" height="67.8"/>
	<rect x="217.3" y="430.6" class="st3" width="424.9" height="190.1"/>
	<rect x="612" y="40.3" class="st3" width="30.2" height="43.5"/>
	<rect x="567.8" y="83.4" class="st3" width="74.4" height="381.8"/>
	<text transform="matrix(1 0 0 1 97.302 587.486)" class="st4 st5 st6">Focus</text>
	<text transform="matrix(1 0 0 1 97.47 594.712)" class="st4 st5 st6">Room</text>
	<text transform="matrix(1 0 0 1 42.398 591.9899)" class="st4 st5 st6">Office</text>
</g>
<g id="furniature">
	<path class="st7" d="M522.8,204.6V216c0,0.7-0.4,1.5-1.1,1.5h-26.4c-0.5,0-1.1-0.7-1.1-1.5v-11.4c0-0.7,0.4-1.5,1.1-1.5h26.4
		C522.3,203.1,522.8,203.8,522.8,204.6z"/>
	<path class="st8" d="M523.5,204.6V216c0,0.7-0.4,1.5-1.1,1.5H496c-0.5,0-1.1-0.7-1.1-1.5v-11.4c0-0.7,0.4-1.5,1.1-1.5h26.4
		C523,203.1,523.5,203.8,523.5,204.6z"/>
	<path class="st9" d="M524.1,204.6V216c0,0.7-0.4,1.5-1.1,1.5h-26.2c-0.5,0-1.1-0.7-1.1-1.5v-11.4c0-0.7,0.4-1.5,1.1-1.5h26.4
		C523.7,203.1,524.1,203.8,524.1,204.6z"/>
	<path class="st10" d="M515.1,201.3H513c-1.6,0-2.8-1.3-2.8-2.9v-0.1v-0.1l0.1-2.1c0.1-2,1.8-3.6,3.9-3.6l0,0c2.1,0,3.8,1.7,3.9,3.7
		v2.1l0,0c0.1,1.6-1.2,2.9-2.7,3h-0.1L515.1,201.3z"/>
	<path class="st11" d="M515.1,201H513c-1.5,0-2.8-1.2-2.8-2.7c0-0.1,0-0.2,0-0.3v-0.2l0.1-2.1c0.1-2,1.8-3.6,3.9-3.6l0,0
		c2.1,0,3.8,1.7,3.9,3.7v2.1l0,0C518,199.7,516.7,201,515.1,201L515.1,201z"/>
	<path class="st12" d="M515.1,200.7H513c-1.5,0-2.8-1.2-2.8-2.7c0-0.1,0-0.2,0-0.3l0,0v-0.2l0.1-2.1c0.1-2,1.8-3.6,3.9-3.6l0,0
		c2.1,0,3.8,1.7,3.9,3.7v2.1l0,0C518.1,199.4,516.8,200.7,515.1,200.7L515.1,200.7L515.1,200.7z"/>
	<path class="st13" d="M510.1,197.9l0.1-2.5c0.1-2,1.8-3.6,3.9-3.6l0,0c2.1,0,3.8,1.7,3.9,3.7l0.1,2.5"/>
	<polygon class="st8" points="36,167.9 51.2,167.9 51.2,194.3 85,194.3 85,175.2 114.3,175.2 114.3,194.3 140.4,194.3 140.4,176 
		155.4,176 155.4,243.9 141,243.9 141,216.8 113.4,216.8 113.4,243.9 85.5,243.9 85.5,216.8 50.1,216.8 50.1,296 85.5,296 
		85.5,267.5 114.3,267.5 114.3,296 140.7,296 140.7,267.5 155.4,267.5 155.4,345.5 139.9,345.5 139.9,318.8 114,318.8 114,345.5 
		85.8,345.5 85.8,317.6 51.2,317.6 51.2,396.2 85.3,396.2 85.3,369.5 113.7,369.5 113.7,396.2 139.9,396.2 139.9,368.9 155.4,368.9 
		155.4,446.6 139.9,446.6 139.9,419 113.7,419 113.7,446.6 85.8,446.6 85.8,417.9 50.1,417.9 50.1,497 84.7,497 84.7,470.3 
		101.3,470.3 114.3,470.3 114.3,497 139,497 139,470 155.4,470 155.4,475.3 166.9,475.3 166.9,522.9 48.7,522.9 48.7,539.2 
		36,539.2 	"/>
	<polygon class="st9" points="37.3,167.9 52.5,167.9 52.5,194.3 86.2,194.3 86.2,175.2 115.5,175.2 115.5,194.3 141.7,194.3 
		141.7,176 156.6,176 156.6,243.9 142.3,243.9 142.3,216.8 114.7,216.8 114.7,243.9 86.8,243.9 86.8,216.8 51.3,216.8 51.3,296 
		86.8,296 86.8,267.5 115.5,267.5 115.5,296 142,296 142,267.5 156.6,267.5 156.6,345.5 141.2,345.5 141.2,318.8 115.3,318.8 
		115.3,345.5 87.1,345.5 87.1,317.6 52.5,317.6 52.5,396.2 86.5,396.2 86.5,369.5 115,369.5 115,396.2 141.2,396.2 141.2,368.9 
		156.6,368.9 156.6,446.6 141.2,446.6 141.2,419 115,419 115,446.6 87.1,446.6 87.1,417.9 51.3,417.9 51.3,497 86,497 86,470.3 
		102.6,470.3 115.5,470.3 115.5,497 140.3,497 140.3,470 156.6,470 156.6,475.3 168.2,475.3 168.2,522.9 49.9,522.9 49.9,539.2 
		37.3,539.2 	"/>
	<line class="st14" x1="100.5" y1="268.9" x2="100.5" y2="345.5"/>
	<line class="st14" x1="100.5" y1="175.2" x2="100.5" y2="244.7"/>
	<line class="st14" x1="155.2" y1="205.9" x2="36" y2="205.9"/>
	<line class="st14" x1="155.2" y1="307.2" x2="36" y2="307.2"/>
	<line class="st14" x1="100.5" y1="369.7" x2="100.5" y2="446.3"/>
	<line class="st14" x1="155.2" y1="408" x2="36" y2="408"/>
	<line class="st14" x1="100.5" y1="468.8" x2="100.5" y2="509.7"/>
	<line class="st14" x1="155.2" y1="470.5" x2="155.2" y2="511.4"/>
	<line class="st14" x1="166.2" y1="509.7" x2="36" y2="509.7"/>
	<line class="st14" x1="155.2" y1="369.7" x2="155.2" y2="446.3"/>
	<line class="st14" x1="155.2" y1="268.9" x2="155.2" y2="345.5"/>
	<line class="st14" x1="155.2" y1="175.2" x2="155.2" y2="244.7"/>
	<polygon class="st8" points="415.8,21.9 415.8,36.9 373.1,36.9 373.1,71.6 399.8,71.6 399.8,97.7 375.1,97.7 375.1,114.5 
		346.9,114.5 346.9,96.6 323,96.6 323,70.4 349.7,70.4 349.7,35.8 275.9,35.8 275.9,70.7 302.7,70.7 302.7,96.9 277.9,96.9 
		277.9,114.5 249.2,114.5 249.2,96.9 226.2,96.9 226.2,71.3 252.6,71.3 252.6,35.2 175.4,35.2 175.4,70.7 202.5,70.7 202.5,96.3 
		177.4,96.3 177.4,114.5 163.2,114.5 163.2,21.9 	"/>
	<polygon class="st9" points="415.8,23.3 415.8,38.3 373.1,38.3 373.1,73 399.8,73 399.8,99.2 375.1,99.2 375.1,115.9 346.9,115.9 
		346.9,98 323,98 323,71.8 349.7,71.8 349.7,37.2 275.9,37.2 275.9,72.1 302.7,72.1 302.7,98.3 277.9,98.3 277.9,115.9 249.2,115.9 
		249.2,98.3 226.2,98.3 226.2,72.7 252.6,72.7 252.6,36.7 175.4,36.7 175.4,72.1 202.5,72.1 202.5,97.7 177.4,97.7 177.4,115.9 
		163.2,115.9 163.2,23.3 	"/>
	<line class="st14" x1="399.8" y1="86.5" x2="324.5" y2="86.5"/>
	<line class="st14" x1="363.4" y1="114.6" x2="363.4" y2="22.1"/>
	<line class="st14" x1="389.6" y1="114.6" x2="332.4" y2="114.6"/>
	<line class="st14" x1="301.5" y1="86.4" x2="226.2" y2="86.4"/>
	<line class="st14" x1="265" y1="114.5" x2="265" y2="21.9"/>
	<line class="st14" x1="291.3" y1="114.5" x2="234.1" y2="114.5"/>
	<polyline class="st14" points="202.5,86.4 163.2,86.4 163.2,114.5 190.6,114.5 	"/>
	<line class="st14" x1="163.2" y1="86.4" x2="163.2" y2="21.9"/>
	<path class="st15" d="M454.5,408L454.5,408c0-0.8-0.7-1.4-1.5-1.4h-12.4c-0.7,0-2.3,0.5-2.3,1.2v10.9c0.1,0.4,0.4,0.8,0.9,0.8h30.7
		c0.4,0,0.8-0.2,0.9-0.6v-11.2c-0.2-0.6-0.7-1-1.3-1h-13.4c-0.7-0.1-1.4,0.4-1.6,1.1C454.5,407.9,454.5,407.9,454.5,408z"/>
	<path class="st16" d="M454.5,407.5L454.5,407.5c0-0.8-0.7-1.4-1.5-1.4h-12.4c-0.7,0-2.3,0.5-2.3,1.2v10.9c0.1,0.4,0.4,0.8,0.9,0.8
		h30.7c0.4,0,0.8-0.2,0.9-0.6v-11.2c-0.2-0.6-0.7-1-1.3-1h-13.4c-0.7-0.2-1.4,0.3-1.6,1C454.5,407.3,454.4,407.4,454.5,407.5z"/>
	<path class="st17" d="M454.5,406.8v9.5c5.3-0.1,9.5-1.6,14.7-0.6c-0.4-1.2-0.6-2.4-0.6-3.7c0-2.9,0.9-5.3,2.1-5.6
		c-0.2-0.6-0.7-1-1.3-1H456C455.2,405.4,454.5,406,454.5,406.8z"/>
	<path class="st17" d="M454.5,417.3v-10.5c0-0.8-0.7-1.4-1.5-1.4h-13.4c-0.7,0-1.3,0.5-1.3,1.2l0,0c1,0.7,1.6,2.8,1.6,5.4
		c0,1.1-0.1,2.2-0.5,3.3c5-0.7,8.9,0.9,14,1C453.8,416.3,454.1,417.3,454.5,417.3z"/>
	<path class="st18" d="M469.6,416.6h-30.8c-0.2,0.3-0.4,0.5-0.6,0.8c0.1,0.4,0.4,0.8,0.9,0.8h30.7c0.4,0,0.8-0.2,0.9-0.6
		C470.3,417.5,469.9,417.1,469.6,416.6z"/>
	<path class="st19" d="M445,412.9c3.2-0.1,6.4,0.3,9.4,1.2c2.9-0.8,6-1.1,9-1.1h0.5c2.7-0.1,3.1,0.4,5.7,1.4c0.1,0.3,0.1,0.7,0.2,1
		h-15.4l-15.7-0.1c0.1-0.4,0.2-0.9,0.3-1.3c2.5-0.7,2.8-1.1,5.4-1C444.6,412.9,444.8,412.9,445,412.9z"/>
	<path class="st20" d="M445,414.1c3.2-0.1,6.4,0.3,9.4,1.2c2.9-0.8,6-1.1,9-1.1h0.5c2.7-0.1,3.1,0.4,5.7,1.4c0.1,0.3,0.1,0.7,0.2,1
		h-15.4l-15.7-0.1c0.1-0.4,0.2-0.9,0.3-1.3c2.5-0.7,2.8-1.1,5.4-1C444.6,414.1,444.8,414.1,445,414.1z"/>
	<path class="st18" d="M438.2,406.6L438.2,406.6v10.8c0.6-0.6,1-1.3,1.2-2.1c0.3-1.1,0.5-2.2,0.5-3.3
		C439.9,409.4,439.1,407.3,438.2,406.6z"/>
	<path class="st18" d="M470.6,406.7L470.6,406.7v10.8c-0.7-0.5-1.2-1.3-1.5-2.1c-0.4-1.1-0.6-2.2-0.6-3.3
		C468.5,409.5,469.5,407.4,470.6,406.7z"/>
	<circle class="st21" cx="454.5" cy="397.3" r="6.7"/>
	<circle class="st21" cx="454.5" cy="396.8" r="6.7"/>
	<circle class="st21" cx="454.5" cy="396.2" r="6.7"/>
	<circle class="st21" cx="482.3" cy="413.3" r="8.2"/>
	<circle class="st21" cx="482.3" cy="412.5" r="8.2"/>
	<circle class="st21" cx="482.3" cy="411.8" r="8.2"/>
	<path class="st15" d="M509.6,408.1L509.6,408.1c0-0.8-0.7-1.4-1.5-1.4h-12.4c-0.7,0-2.3,0.5-2.3,1.2v10.9c0.1,0.4,0.4,0.8,0.9,0.8
		H525c0.4,0,0.8-0.2,0.9-0.6v-11.2c-0.2-0.6-0.7-1-1.3-1h-13.4c-0.7-0.1-1.4,0.4-1.6,1.1C509.6,408,509.6,408,509.6,408.1z"/>
	<path class="st16" d="M509.6,407.6L509.6,407.6c0-0.8-0.7-1.4-1.5-1.4h-12.4c-0.7,0-2.3,0.5-2.3,1.2v10.9c0.1,0.4,0.4,0.8,0.9,0.8
		H525c0.4,0,0.8-0.2,0.9-0.6v-11.2c-0.2-0.6-0.7-1-1.3-1h-13.4c-0.7-0.2-1.4,0.3-1.6,1C509.6,407.4,509.6,407.5,509.6,407.6z"/>
	<path class="st17" d="M509.6,406.9v9.5c5.3-0.1,9.5-1.6,14.7-0.6c-0.4-1.2-0.6-2.4-0.6-3.7c0-2.9,0.9-5.3,2.1-5.6
		c-0.2-0.6-0.7-1-1.3-1h-13.4C510.3,405.5,509.7,406.1,509.6,406.9z"/>
	<path class="st17" d="M509.6,417.4v-10.5c0-0.8-0.7-1.4-1.5-1.4h-13.4c-0.7,0-1.3,0.5-1.3,1.2l0,0c1,0.7,1.6,2.8,1.6,5.4
		c0,1.1-0.1,2.2-0.5,3.3c5-0.7,8.9,0.9,14,1C508.9,416.4,509.3,417.4,509.6,417.4z"/>
	<path class="st18" d="M524.8,416.7H494c-0.2,0.3-0.4,0.5-0.6,0.8c0.1,0.4,0.4,0.8,0.9,0.8H525c0.4,0,0.8-0.2,0.9-0.6
		C525.4,417.6,525,417.2,524.8,416.7z"/>
	<path class="st19" d="M500.2,413c3.2-0.1,6.4,0.3,9.4,1.2c2.9-0.8,6-1.1,9-1.1h0.5c2.7-0.1,3.1,0.4,5.7,1.4c0.1,0.3,0.1,0.7,0.2,1
		h-15.4l-15.7-0.1c0.1-0.4,0.2-0.9,0.3-1.3c2.5-0.7,2.8-1.1,5.4-1C499.8,413,500,413,500.2,413z"/>
	<path class="st20" d="M500.2,414.2c3.2-0.1,6.4,0.3,9.4,1.2c2.9-0.8,6-1.1,9-1.1h0.5c2.7-0.1,3.1,0.4,5.7,1.4
		c0.1,0.3,0.1,0.7,0.2,1h-15.4l-15.7-0.1c0.1-0.4,0.2-0.9,0.3-1.3c2.5-0.7,2.8-1.1,5.4-1C499.8,414.2,500,414.2,500.2,414.2z"/>
	<path class="st18" d="M493.4,406.7L493.4,406.7v10.8c0.6-0.6,1-1.3,1.2-2.1c0.3-1.1,0.5-2.2,0.5-3.3
		C495,409.5,494.3,407.4,493.4,406.7z"/>
	<path class="st18" d="M525.8,406.8L525.8,406.8v10.8c-0.7-0.5-1.2-1.3-1.5-2.1c-0.4-1.1-0.6-2.2-0.6-3.3
		C523.7,409.6,524.6,407.5,525.8,406.8z"/>
	<ellipse transform="matrix(0.7766 -0.63 0.63 0.7766 -136.1786 397.5817)" class="st22" cx="492.5" cy="390.8" rx="1.6" ry="4.6"/>
	<path class="st23" d="M503.2,383.5c1,1.3,0.8,3.1-0.4,4.2l-6.6,5.3c-1.3,1-3.1,0.8-4.2-0.4l-1.5-1.8l-0.1-0.2l-0.1-0.2l-0.9-1
		c-0.9-1.1-1.2-2.5-0.9-3.9c-0.3-1.3,0.9-3.5,3.1-5.3c2.5-2.1,5.3-2.7,6.2-1.6l0.1,0.2c1.1,0.3,2,0.8,2.7,1.6L503.2,383.5z"/>
	<path class="st24" d="M503.7,384c1,1.3,0.8,3.1-0.4,4.2l-6.6,5.3c-1.3,1-3.1,0.8-4.2-0.4l-1.5-1.8l-0.1-0.2l-0.1-0.2l-0.9-1
		c-0.9-1.1-1.2-2.5-0.9-3.9c-0.3-1.3,0.9-3.5,3.1-5.3c2.5-2.1,5.3-2.7,6.2-1.6l0.1,0.2c1.1,0.3,2,0.8,2.7,1.6L503.7,384z"/>
	<path class="st25" d="M491,384.1l4-3.2c2-1.6,4.9-1.3,6.5,0.7l2.5,3.1c1,1.3,0.8,3.1-0.4,4.2l-6.6,5.3c-1.3,1-3.1,0.8-4.2-0.4
		l-2.5-3.1c-1.6-1.9-1.4-4.7,0.4-6.3C490.8,384.2,490.9,384.2,491,384.1L491,384.1z"/>
	<ellipse transform="matrix(0.7766 -0.63 0.63 0.7766 -129.7796 401.6235)" class="st26" cx="501.4" cy="383.8" rx="1.6" ry="4.6"/>
	<ellipse transform="matrix(0.7766 -0.63 0.63 0.7766 -136.0525 397.534)" class="st26" cx="492.5" cy="390.6" rx="1.6" ry="4.6"/>
	<path class="st27" d="M502.1,384.1c1.3,1.7,1.9,3.3,1.4,3.8s-2.1-0.5-3.4-2.1c-0.5-0.6-0.9-1.3-1.3-2c-0.6,1-1.3,1.9-2.2,2.6
		c-1,0.9-2.3,1.5-3.6,1.7c0.7,0.5,1.3,1.1,1.8,1.8c1.3,1.7,1.9,3.3,1.4,3.8s-2.1-0.5-3.4-2.1s-1.9-3.3-1.4-3.8h0.1l0,0
		c-0.7-1,0.3-3.1,2.4-4.7s4.4-2.2,5.2-1.3l0.2,0.4C499.7,382,500.9,382.8,502.1,384.1z"/>
	
		<ellipse transform="matrix(0.7763 -0.6303 0.6303 0.7763 -131.4001 397.0658)" class="st28" cx="493.8" cy="383.7" rx="5.8" ry="2.6"/>
	
		<ellipse transform="matrix(0.6493 -0.7605 0.7605 0.6493 -111.1731 528.3098)" class="st29" cx="517.3" cy="384.7" rx="4.6" ry="1.6"/>
	<path class="st23" d="M526.4,394c-1.1,1.2-2.9,1.4-4.2,0.3l-6.4-5.5c-1.2-1.1-1.4-2.9-0.3-4.2l1.5-1.8l0.2-0.1l0.2-0.1l0.8-1
		c0.9-1.1,2.3-1.7,3.7-1.6c1.2-0.6,3.6,0.2,5.8,2.1c2.5,2.1,3.7,4.7,2.7,5.8l-0.2,0.1c-0.1,1.1-0.4,2.1-1.1,3L526.4,394z"/>
	<path class="st24" d="M526,394.5c-1.1,1.2-2.9,1.4-4.2,0.3l-6.4-5.5c-1.2-1.1-1.4-2.9-0.3-4.2l1.5-1.8l0.2-0.1l0.2-0.1l0.8-1
		c0.9-1.1,2.3-1.7,3.7-1.6c1.2-0.6,3.6,0.2,5.8,2.1c2.5,2.1,3.7,4.7,2.7,5.8l-0.2,0.1c-0.1,1.1-0.4,2.1-1.1,3L526,394.5z"/>
	<path class="st25" d="M523.6,382.1l3.8,3.3c1.9,1.7,2.2,4.6,0.5,6.6l-2.6,3c-1.1,1.2-2.9,1.4-4.2,0.3l-6.4-5.5
		c-1.2-1.1-1.4-2.9-0.3-4.2l2.6-3c1.5-1.9,4.4-2.3,6.3-0.7C523.4,382,523.5,382,523.6,382.1L523.6,382.1z"/>
	
		<ellipse transform="matrix(0.6493 -0.7605 0.7605 0.6493 -113.9912 537.3736)" class="st30" cx="525.7" cy="392.3" rx="4.6" ry="1.6"/>
	
		<ellipse transform="matrix(0.6493 -0.7605 0.7605 0.6493 -111.1929 528.4262)" class="st30" cx="517.4" cy="384.8" rx="4.6" ry="1.6"/>
	<path class="st27" d="M525.5,393c-1.4,1.6-2.9,2.5-3.5,2.1s0.1-2.1,1.4-3.7c0.5-0.6,1.1-1.2,1.8-1.6c-1.1-0.4-2.1-1-3-1.7
		c-1.1-0.9-1.9-2-2.4-3.2c-0.3,0.8-0.8,1.5-1.4,2.1c-1.4,1.6-2.9,2.5-3.5,2s0.1-2.1,1.4-3.7s2.9-2.5,3.5-2.1l0.1,0.1l0,0
		c0.8-0.9,3.1-0.2,5.1,1.5s3,3.9,2.2,4.8l-0.3,0.2C527.2,390.3,526.6,391.6,525.5,393z"/>
	
		<ellipse transform="matrix(0.649 -0.7608 0.7608 0.649 -108.7173 533.9731)" class="st31" cx="524.3" cy="384.8" rx="2.6" ry="5.8"/>
	
		<ellipse transform="matrix(0.9028 -0.4301 0.4301 0.9028 -121.3746 257.7539)" class="st21" cx="509.4" cy="397.3" rx="6.7" ry="6.7"/>
	
		<ellipse transform="matrix(0.9028 -0.4301 0.4301 0.9028 -121.1595 257.7053)" class="st21" cx="509.4" cy="396.8" rx="6.7" ry="6.7"/>
	
		<ellipse transform="matrix(0.9028 -0.4301 0.4301 0.9028 -120.9015 257.647)" class="st21" cx="509.4" cy="396.2" rx="6.7" ry="6.7"/>
	<ellipse transform="matrix(0.7766 -0.63 0.63 0.7766 -148.3124 363.1597)" class="st22" cx="437.9" cy="390.7" rx="1.6" ry="4.6"/>
	<path class="st23" d="M448.6,383.4c1,1.3,0.8,3.1-0.4,4.2l-6.6,5.3c-1.3,1-3.1,0.8-4.2-0.4l-1.5-1.8l-0.1-0.2l-0.1-0.2l-0.9-1
		c-0.9-1.1-1.2-2.5-0.9-3.9c-0.3-1.3,0.9-3.5,3.1-5.3c2.5-2.1,5.3-2.7,6.2-1.6l0.1,0.2c1.1,0.3,2,0.8,2.7,1.6L448.6,383.4z"/>
	<path class="st24" d="M449.1,383.9c1,1.3,0.8,3.1-0.4,4.2l-6.6,5.3c-1.3,1-3.1,0.8-4.2-0.4l-1.5-1.8l-0.1-0.2l-0.1-0.2l-0.9-1
		c-0.9-1.1-1.2-2.5-0.9-3.9c-0.3-1.3,0.9-3.5,3.1-5.3c2.5-2.1,5.3-2.7,6.2-1.6l0.1,0.2c1.1,0.3,2,0.8,2.7,1.6L449.1,383.9z"/>
	<path class="st25" d="M436.4,384l4-3.2c2-1.6,4.9-1.3,6.5,0.7l2.5,3.1c1,1.3,0.8,3.1-0.4,4.2l-6.6,5.3c-1.3,1-3.1,0.8-4.2-0.4
		l-2.5-3.1c-1.6-1.9-1.4-4.7,0.4-6.3C436.2,384.2,436.3,384.1,436.4,384L436.4,384z"/>
	<ellipse transform="matrix(0.7766 -0.63 0.63 0.7766 -141.9135 367.2015)" class="st26" cx="446.8" cy="383.7" rx="1.6" ry="4.6"/>
	<ellipse transform="matrix(0.7766 -0.63 0.63 0.7766 -148.2509 363.138)" class="st26" cx="437.9" cy="390.6" rx="1.6" ry="4.6"/>
	<path class="st27" d="M447.5,384.1c1.3,1.7,1.9,3.3,1.4,3.8s-2.1-0.5-3.4-2.1c-0.5-0.6-0.9-1.3-1.3-2c-0.6,1-1.3,1.9-2.2,2.6
		c-1,0.9-2.3,1.5-3.6,1.7c0.7,0.5,1.3,1.1,1.8,1.8c1.3,1.7,1.9,3.3,1.4,3.8s-2.1-0.5-3.4-2.1s-1.9-3.3-1.4-3.8h0.1l0,0
		c-0.7-1,0.3-3.1,2.4-4.7s4.4-2.2,5.2-1.3l0.2,0.4C445.1,381.9,446.3,382.8,447.5,384.1z"/>
	
		<ellipse transform="matrix(0.7763 -0.6303 0.6303 0.7763 -143.5944 362.7086)" class="st28" cx="439.3" cy="383.7" rx="5.8" ry="2.6"/>
	
		<ellipse transform="matrix(0.6493 -0.7605 0.7605 0.6493 -130.329 486.5828)" class="st29" cx="462.5" cy="384.6" rx="4.6" ry="1.6"/>
	<path class="st23" d="M471.8,393.9c-1.1,1.2-2.9,1.4-4.2,0.3l-6.4-5.5c-1.2-1.1-1.4-2.9-0.3-4.2l1.5-1.8l0.2-0.1l0.2-0.1l0.8-1
		c0.9-1.1,2.3-1.7,3.7-1.6c1.2-0.6,3.6,0.2,5.8,2.1c2.5,2.1,3.7,4.7,2.7,5.8l-0.2,0.1c-0.1,1.1-0.4,2.1-1.1,3L471.8,393.9z"/>
	<path class="st24" d="M471.4,394.5c-1.1,1.2-2.9,1.4-4.2,0.3l-6.4-5.5c-1.2-1.1-1.4-2.9-0.3-4.2l1.5-1.8l0.2-0.1l0.2-0.1l0.8-1
		c0.9-1.1,2.3-1.7,3.7-1.6c1.2-0.6,3.6,0.2,5.8,2.1c2.5,2.1,3.7,4.7,2.7,5.8l-0.2,0.1c-0.1,1.1-0.4,2.1-1.1,3L471.4,394.5z"/>
	<path class="st25" d="M469,382.1l3.8,3.3c1.9,1.7,2.2,4.6,0.5,6.6l-2.6,3c-1.1,1.2-2.9,1.4-4.2,0.3l-6.4-5.5
		c-1.2-1.1-1.4-2.9-0.3-4.2l2.6-3c1.5-1.9,4.4-2.3,6.3-0.7C468.8,381.9,468.9,382,469,382.1L469,382.1z"/>
	
		<ellipse transform="matrix(0.6493 -0.7605 0.7605 0.6493 -133.0651 495.8048)" class="st30" cx="471.1" cy="392.2" rx="4.6" ry="1.6"/>
	
		<ellipse transform="matrix(0.6493 -0.7605 0.7605 0.6493 -130.2668 486.8572)" class="st30" cx="462.8" cy="384.7" rx="4.6" ry="1.6"/>
	<path class="st27" d="M470.9,392.9c-1.4,1.6-2.9,2.5-3.5,2.1s0.1-2.1,1.4-3.7c0.5-0.6,1.1-1.2,1.8-1.6c-1.1-0.4-2.1-1-3-1.7
		c-1.1-0.9-1.9-2-2.4-3.2c-0.3,0.8-0.8,1.5-1.4,2.1c-1.4,1.6-2.9,2.5-3.5,2s0.1-2.1,1.4-3.7s2.9-2.5,3.5-2.1l0.1,0.1l0,0
		c0.8-0.9,3.1-0.2,5.1,1.5s3,3.9,2.2,4.8l-0.3,0.2C472.6,390.2,472,391.6,470.9,392.9z"/>
	
		<ellipse transform="matrix(0.649 -0.7608 0.7608 0.649 -127.9293 492.5114)" class="st31" cx="469.8" cy="384.9" rx="2.6" ry="5.8"/>
	<path class="st7" d="M452.7,202.9v0.7c0,3.6-2.9,6.5-6.5,6.5l0,0l0,0c-3.6,0-6.5-2.9-6.5-6.5l0,0v-0.7c0-3.6,2.9-6.5,6.5-6.5l0,0
		l0,0c3.5-0.1,6.4,2.7,6.5,6.2C452.7,202.7,452.7,202.8,452.7,202.9z"/>
	<path class="st16" d="M453.6,202.9v0.7c0,3.6-2.9,6.5-6.5,6.5l0,0l0,0c-3.6,0-6.5-2.9-6.5-6.5l0,0v-0.7c0-3.6,2.9-6.5,6.5-6.5l0,0
		l0,0c3.5-0.1,6.4,2.7,6.5,6.2C453.6,202.7,453.6,202.8,453.6,202.9z"/>
	<path class="st32" d="M454.8,202.9v0.7c0,3.6-2.9,6.5-6.5,6.5l0,0l0,0c-3.6,0-6.5-2.9-6.5-6.5l0,0v-0.7c0-3.6,2.9-6.5,6.5-6.5l0,0
		l0,0c3.5-0.1,6.4,2.7,6.5,6.2C454.8,202.7,454.8,202.8,454.8,202.9z"/>
	<path class="st33" d="M454.8,204.7V204c0-3.6-2.9-6.5-6.5-6.5l0,0l0,0c-3.6,0-6.5,2.9-6.5,6.5l0,0v0.7"/>
	<path class="st7" d="M465.4,217.2v0.7c0,3.4-2.8,6.1-6.2,6.2l0,0c-3.4,0-6.1-2.8-6.2-6.2v-0.7c0-3.4,2.8-6.1,6.2-6.2l0,0
		C462.7,211,465.4,213.8,465.4,217.2z"/>
	<path class="st8" d="M466.3,217.2v0.7c0,3.4-2.8,6.1-6.2,6.2l0,0c-3.4,0-6.1-2.8-6.2-6.2v-0.7c0-3.4,2.8-6.1,6.2-6.2l0,0
		C463.5,211,466.3,213.8,466.3,217.2z"/>
	<path class="st34" d="M467.2,217.2v0.7c0,3.4-2.8,6.1-6.2,6.2l0,0c-3.4,0-6.1-2.8-6.2-6.2v-0.7c0-3.4,2.8-6.1,6.2-6.2l0,0
		C464.4,211,467.2,213.7,467.2,217.2C467.2,217.1,467.2,217.1,467.2,217.2z"/>
	<path class="st7" d="M517.4,312.1v50.1c0,2-1.1,4-2.2,4h-14.9c-1.1,0-2.2-2-2.2-4v-50.1c0-2,1.1-4,2.2-4h14.9
		C516.7,308.9,517.5,310.4,517.4,312.1z"/>
	<path class="st8" d="M518.8,312.1v50.1c0,2-1.1,4-2.2,4h-14.9c-1.1,0-2.2-2-2.2-4v-50.1c0-2,1.1-4,2.2-4h14.9
		C518,308.9,518.9,310.4,518.8,312.1z"/>
	<path class="st9" d="M520.1,312.1v50.1c0,2-1.1,4-2.2,4H503c-1.1,0-2.2-2-2.2-4v-50.1c0-2,1.1-4,2.2-4h14.9
		C519.3,308.5,520.1,310,520.1,312.1z"/>
	<path class="st35" d="M521,318v-3.2c0-1.3,1.1-2.4,2.5-2.5h0.2l2.6,0.2c2.1,0.1,3.7,1.8,3.7,3.9l0,0c0,2.1-1.6,3.8-3.7,3.9
		l-2.6,0.2C522.3,320.5,521.1,319.4,521,318L521,318L521,318z"/>
	<path class="st16" d="M521.4,318v-3.2c0-1.3,1.1-2.4,2.5-2.5h0.2l2.6,0.2c2.1,0.1,3.7,1.8,3.7,3.9l0,0c0,2.1-1.6,3.8-3.7,3.9
		l-2.6,0.2c-1.3,0.1-2.5-0.9-2.6-2.3C521.4,318.1,521.4,318,521.4,318L521.4,318z"/>
	<path class="st32" d="M522.1,318v-3.2c0-1.4,1.1-2.4,2.5-2.5h0.2l2.6,0.2c2.1,0.1,3.7,1.8,3.7,3.9l0,0c0,2.1-1.6,3.8-3.7,3.9
		l-2.6,0.2c-1.3,0.1-2.5-0.9-2.6-2.3C522.1,318.1,522.1,318,522.1,318L522.1,318z"/>
	<path class="st35" d="M521.2,361.5v-3.2c0-1.3,1.1-2.4,2.5-2.5h0.2l2.6,0.2c2.1,0.1,3.7,1.8,3.7,3.9l0,0c0,2.1-1.6,3.8-3.7,3.9
		l-2.6,0.2C522.5,364,521.3,362.9,521.2,361.5L521.2,361.5z"/>
	<path class="st16" d="M521.4,361.5v-3.2c0-1.3,1.1-2.4,2.5-2.5h0.2l2.6,0.2c2.1,0.1,3.7,1.8,3.7,3.9l0,0c0,2.1-1.6,3.8-3.7,3.9
		L524,364C522.7,364,521.5,362.9,521.4,361.5z"/>
	<path class="st32" d="M522.1,361.5v-3.2c0-1.3,1.1-2.4,2.5-2.5h0.2l2.6,0.2c2.1,0.1,3.7,1.8,3.7,3.9l0,0c0,2.1-1.6,3.8-3.7,3.9
		l-2.6,0.2C523.4,364,522.2,362.9,522.1,361.5z"/>
	<path class="st35" d="M521.2,328.9v-3.2c0-1.3,1.1-2.4,2.5-2.5h0.2l2.6,0.2c2.1,0.1,3.7,1.8,3.7,3.9l0,0c0,2.1-1.6,3.8-3.7,3.9
		l-2.6,0.2C522.5,331.4,521.3,330.3,521.2,328.9L521.2,328.9z"/>
	<path class="st16" d="M521.4,328.9v-3.2c0-1.3,1.1-2.4,2.5-2.5h0.2l2.6,0.2c2.1,0.1,3.7,1.8,3.7,3.9l0,0c0,2.1-1.6,3.8-3.7,3.9
		l-2.6,0.2C522.7,331.4,521.5,330.3,521.4,328.9z"/>
	<path class="st32" d="M522.1,328.9v-3.2c0-1.4,1.1-2.4,2.5-2.5h0.2l2.6,0.2c2.1,0.1,3.7,1.8,3.7,3.9l0,0c0,2.1-1.6,3.8-3.7,3.9
		l-2.6,0.2C523.4,331.4,522.2,330.3,522.1,328.9z"/>
	<path class="st35" d="M521,339.7v-3.2c0-1.3,1.1-2.4,2.5-2.5h0.2l2.6,0.2c2.1,0.1,3.7,1.8,3.7,3.9l0,0c0,2.1-1.6,3.8-3.7,3.9
		l-2.6,0.2C522.3,342.3,521.1,341.2,521,339.7L521,339.7L521,339.7z"/>
	<path class="st16" d="M521.4,339.7v-3.2c0-1.3,1.1-2.4,2.5-2.5h0.2l2.6,0.2c2.1,0.1,3.7,1.8,3.7,3.9l0,0c0,2.1-1.6,3.8-3.7,3.9
		l-2.6,0.2c-1.3,0.1-2.5-0.9-2.6-2.3C521.4,339.9,521.4,339.8,521.4,339.7L521.4,339.7z"/>
	<path class="st32" d="M522.1,339.7v-3.2c0-1.3,1.1-2.4,2.5-2.5h0.2l2.6,0.2c2.1,0.1,3.7,1.8,3.7,3.9l0,0c0,2.1-1.6,3.8-3.7,3.9
		l-2.6,0.2c-1.3,0.1-2.5-0.9-2.6-2.3C522.1,339.9,522.1,339.8,522.1,339.7L522.1,339.7z"/>
	<path class="st35" d="M521.2,350.7v-3.2c0-1.3,1.1-2.4,2.5-2.5h0.2l2.6,0.2c2.1,0.1,3.7,1.8,3.7,3.9l0,0c0,2.1-1.6,3.8-3.7,3.9
		l-2.6,0.2C522.5,353.2,521.3,352.1,521.2,350.7L521.2,350.7z"/>
	<path class="st16" d="M521.4,350.7v-3.2c0-1.3,1.1-2.4,2.5-2.5h0.2l2.6,0.2c2.1,0.1,3.7,1.8,3.7,3.9l0,0c0,2.1-1.6,3.8-3.7,3.9
		l-2.6,0.2C522.7,353.1,521.5,352.1,521.4,350.7L521.4,350.7z"/>
	<path class="st32" d="M522.1,350.7v-3.2c0-1.4,1.1-2.4,2.5-2.5h0.2l2.6,0.2c2.1,0.1,3.7,1.8,3.7,3.9l0,0c0,2.1-1.6,3.8-3.7,3.9
		l-2.6,0.2C523.4,353.1,522.2,352.1,522.1,350.7L522.1,350.7z"/>
	<path class="st35" d="M498.4,358.6v3.2c0,1.3-1.1,2.4-2.5,2.5h-0.2l-2.6-0.2c-2.1-0.1-3.7-1.8-3.7-3.9l0,0c0-2.1,1.6-3.8,3.7-3.9
		l2.6-0.2C497.2,356.1,498.4,357.2,498.4,358.6L498.4,358.6L498.4,358.6z"/>
	<path class="st16" d="M498.1,358.6v3.2c0,1.3-1.1,2.4-2.5,2.5h-0.2l-2.6-0.2c-2.1-0.1-3.7-1.8-3.7-3.9l0,0c0-2.1,1.6-3.8,3.7-3.9
		l2.6-0.2c1.3-0.1,2.5,0.9,2.6,2.3C498.1,358.4,498.1,358.5,498.1,358.6L498.1,358.6z"/>
	<path class="st32" d="M497.4,358.6v3.2c0,1.3-1.1,2.4-2.5,2.5h-0.2l-2.6-0.2c-2.1-0.1-3.7-1.8-3.7-3.9l0,0c0-2.1,1.6-3.8,3.7-3.9
		l2.6-0.2c1.3-0.1,2.5,0.9,2.6,2.3C497.4,358.4,497.4,358.5,497.4,358.6L497.4,358.6z"/>
	<path class="st35" d="M498.2,315v3.2c0,1.3-1.1,2.4-2.5,2.5h-0.2l-2.6-0.2c-2.1-0.1-3.7-1.8-3.7-3.9l0,0c0-2.1,1.6-3.8,3.7-3.9
		l2.6-0.2C497,312.5,498.2,313.6,498.2,315L498.2,315z"/>
	<path class="st16" d="M498.1,315v3.2c0,1.3-1.1,2.4-2.5,2.5h-0.2l-2.6-0.2c-2.1-0.1-3.7-1.8-3.7-3.9l0,0c0-2.1,1.6-3.8,3.7-3.9
		l2.6-0.2C496.8,312.6,498,313.6,498.1,315L498.1,315z"/>
	<path class="st32" d="M497.4,315v3.2c0,1.3-1.1,2.4-2.5,2.5h-0.2l-2.6-0.2c-2.1-0.1-3.7-1.8-3.7-3.9l0,0c0-2.1,1.6-3.8,3.7-3.9
		l2.6-0.2C496.1,312.6,497.2,313.6,497.4,315L497.4,315z"/>
	<path class="st35" d="M498.2,347.6v3.2c0,1.3-1.1,2.4-2.5,2.5h-0.2l-2.6-0.2c-2.1-0.1-3.7-1.8-3.7-3.9l0,0c0-2.1,1.6-3.8,3.7-3.9
		l2.6-0.2C497,345.1,498.2,346.2,498.2,347.6L498.2,347.6z"/>
	<path class="st16" d="M498.1,347.6v3.2c0,1.3-1.1,2.4-2.5,2.5h-0.2l-2.6-0.2c-2.1-0.1-3.7-1.8-3.7-3.9l0,0c0-2.1,1.6-3.8,3.7-3.9
		l2.6-0.2C496.8,345.2,498,346.2,498.1,347.6L498.1,347.6z"/>
	<path class="st32" d="M497.4,347.6v3.2c0,1.3-1.1,2.4-2.5,2.5h-0.2l-2.6-0.2c-2.1-0.1-3.7-1.8-3.7-3.9l0,0c0-2.1,1.6-3.8,3.7-3.9
		l2.6-0.2C496.1,345.2,497.2,346.2,497.4,347.6L497.4,347.6z"/>
	<path class="st35" d="M498.4,336.8v3.2c0,1.3-1.1,2.4-2.5,2.5h-0.2l-2.6-0.2c-2.1-0.1-3.7-1.8-3.7-3.9l0,0c0-2.1,1.6-3.8,3.7-3.9
		l2.6-0.2C497.2,334.3,498.4,335.4,498.4,336.8L498.4,336.8L498.4,336.8z"/>
	<path class="st16" d="M498.1,336.8v3.2c0,1.3-1.1,2.4-2.5,2.5h-0.2l-2.6-0.2c-2.1-0.1-3.7-1.8-3.7-3.9l0,0c0-2.1,1.6-3.8,3.7-3.9
		l2.6-0.2c1.3-0.1,2.5,0.9,2.6,2.3C498.1,336.7,498.1,336.7,498.1,336.8L498.1,336.8z"/>
	<path class="st32" d="M497.4,336.8v3.2c0,1.3-1.1,2.4-2.5,2.5h-0.2l-2.6-0.2c-2.1-0.1-3.7-1.8-3.7-3.9l0,0c0-2.1,1.6-3.8,3.7-3.9
		l2.6-0.2c1.3-0.1,2.5,0.9,2.6,2.3C497.4,336.7,497.4,336.7,497.4,336.8L497.4,336.8z"/>
	<path class="st35" d="M498.2,325.9v3.2c0,1.3-1.1,2.4-2.5,2.5h-0.2l-2.6-0.2c-2.1-0.1-3.7-1.8-3.7-3.9l0,0c0-2.1,1.6-3.8,3.7-3.9
		l2.6-0.2C497,323.4,498.2,324.5,498.2,325.9L498.2,325.9z"/>
	<path class="st16" d="M498.1,325.9v3.2c0,1.3-1.1,2.4-2.5,2.5h-0.2l-2.6-0.2c-2.1-0.1-3.7-1.8-3.7-3.9l0,0c0-2.1,1.6-3.8,3.7-3.9
		l2.6-0.2C496.8,323.4,498,324.5,498.1,325.9L498.1,325.9z"/>
	<path class="st32" d="M497.4,325.9v3.2c0,1.3-1.1,2.4-2.5,2.5h-0.2l-2.6-0.2c-2.1-0.1-3.7-1.8-3.7-3.9l0,0c0-2.1,1.6-3.8,3.7-3.9
		l2.6-0.2C496.1,323.4,497.2,324.5,497.4,325.9L497.4,325.9z"/>
	<path class="st7" d="M463.5,312.1v50.1c0,2-1.1,4-2.2,4h-14.9c-1.1,0-2.2-2-2.2-4v-50.1c0-2,1.1-4,2.2-4h14.9
		C462.8,308.9,463.6,310.4,463.5,312.1z"/>
	<path class="st8" d="M464.9,312.1v50.1c0,2-1.1,4-2.2,4h-14.9c-1.1,0-2.2-2-2.2-4v-50.1c0-2,1.1-4,2.2-4h14.9
		C464.1,308.9,465,310.4,464.9,312.1z"/>
	<path class="st9" d="M466.3,312.1v50.1c0,2-1.1,4-2.2,4h-14.9c-1.1,0-2.2-2-2.2-4v-50.1c0-2,1.1-4,2.2-4h14.9
		C465.4,308.5,466.3,310,466.3,312.1z"/>
	<path class="st35" d="M467.2,318v-3.2c0-1.3,1.1-2.4,2.5-2.5h0.2l2.6,0.2c2.1,0.1,3.7,1.8,3.7,3.9l0,0c0,2.1-1.6,3.8-3.7,3.9
		l-2.6,0.2C468.4,320.5,467.2,319.4,467.2,318L467.2,318L467.2,318z"/>
	<path class="st16" d="M467.5,318v-3.2c0-1.4,1.1-2.4,2.5-2.5h0.2l2.6,0.2c2.1,0.1,3.7,1.8,3.7,3.9l0,0c0,2.1-1.6,3.8-3.7,3.9
		l-2.6,0.2c-1.3,0.1-2.5-0.9-2.6-2.3C467.5,318.1,467.5,318,467.5,318L467.5,318z"/>
	<path class="st32" d="M468.2,318v-3.2c0-1.3,1.1-2.4,2.5-2.5h0.2l2.6,0.2c2.1,0.1,3.7,1.8,3.7,3.9l0,0c0,2.1-1.6,3.8-3.7,3.9
		l-2.6,0.2c-1.3,0.1-2.5-0.9-2.6-2.3C468.2,318.1,468.2,318,468.2,318L468.2,318z"/>
	<path class="st35" d="M467.4,361.5v-3.2c0-1.3,1.1-2.4,2.5-2.5h0.2l2.6,0.2c2.1,0.1,3.7,1.8,3.7,3.9l0,0c0,2.1-1.6,3.8-3.7,3.9
		L470,364C468.6,364,467.4,362.9,467.4,361.5L467.4,361.5z"/>
	<path class="st16" d="M467.5,361.5v-3.2c0-1.4,1.1-2.4,2.5-2.5h0.2l2.6,0.2c2.1,0.1,3.7,1.8,3.7,3.9l0,0c0,2.1-1.6,3.8-3.7,3.9
		l-2.6,0.2C468.8,364,467.6,362.9,467.5,361.5L467.5,361.5z"/>
	<path class="st32" d="M468.2,361.5v-3.2c0-1.4,1.1-2.4,2.5-2.5h0.2l2.6,0.2c2.1,0.1,3.7,1.8,3.7,3.9l0,0c0,2.1-1.6,3.8-3.7,3.9
		l-2.6,0.2C469.5,364,468.3,362.9,468.2,361.5L468.2,361.5z"/>
	<path class="st35" d="M467.4,328.9v-3.2c0-1.3,1.1-2.4,2.5-2.5h0.2l2.6,0.2c2.1,0.1,3.7,1.8,3.7,3.9l0,0c0,2.1-1.6,3.8-3.7,3.9
		l-2.6,0.2C468.6,331.4,467.4,330.3,467.4,328.9L467.4,328.9z"/>
	<path class="st16" d="M467.5,328.9v-3.2c0-1.4,1.1-2.4,2.5-2.5h0.2l2.6,0.2c2.1,0.1,3.7,1.8,3.7,3.9l0,0c0,2.1-1.6,3.8-3.7,3.9
		l-2.6,0.2C468.8,331.4,467.6,330.3,467.5,328.9L467.5,328.9z"/>
	<path class="st32" d="M468.2,328.9v-3.2c0-1.3,1.1-2.4,2.5-2.5h0.2l2.6,0.2c2.1,0.1,3.7,1.8,3.7,3.9l0,0c0,2.1-1.6,3.8-3.7,3.9
		l-2.6,0.2C469.5,331.4,468.3,330.3,468.2,328.9L468.2,328.9z"/>
	<path class="st35" d="M467.2,339.7v-3.2c0-1.3,1.1-2.4,2.5-2.5h0.2l2.6,0.2c2.1,0.1,3.7,1.8,3.7,3.9l0,0c0,2.1-1.6,3.8-3.7,3.9
		l-2.6,0.2C468.4,342.3,467.2,341.2,467.2,339.7L467.2,339.7L467.2,339.7z"/>
	<path class="st16" d="M467.5,339.7v-3.2c0-1.4,1.1-2.4,2.5-2.5h0.2l2.6,0.2c2.1,0.1,3.7,1.8,3.7,3.9l0,0c0,2.1-1.6,3.8-3.7,3.9
		l-2.6,0.2c-1.3,0.1-2.5-0.9-2.6-2.3C467.5,339.9,467.5,339.8,467.5,339.7L467.5,339.7z"/>
	<path class="st32" d="M468.2,339.7v-3.2c0-1.3,1.1-2.4,2.5-2.5h0.2l2.6,0.2c2.1,0.1,3.7,1.8,3.7,3.9l0,0c0,2.1-1.6,3.8-3.7,3.9
		l-2.6,0.2c-1.3,0.1-2.5-0.9-2.6-2.3C468.2,339.9,468.2,339.8,468.2,339.7z"/>
	<path class="st35" d="M467.4,350.7v-3.2c0-1.3,1.1-2.4,2.5-2.5h0.2l2.6,0.2c2.1,0.1,3.7,1.8,3.7,3.9l0,0c0,2.1-1.6,3.8-3.7,3.9
		l-2.6,0.2C468.6,353.2,467.4,352.1,467.4,350.7L467.4,350.7z"/>
	<path class="st16" d="M467.5,350.7v-3.2c0-1.4,1.1-2.4,2.5-2.5h0.2l2.6,0.2c2.1,0.1,3.7,1.8,3.7,3.9l0,0c0,2.1-1.6,3.8-3.7,3.9
		l-2.6,0.2C468.8,353.1,467.6,352.1,467.5,350.7L467.5,350.7z"/>
	<path class="st32" d="M468.2,350.7v-3.2c0-1.3,1.1-2.4,2.5-2.5h0.2l2.6,0.2c2.1,0.1,3.7,1.8,3.7,3.9l0,0c0,2.1-1.6,3.8-3.7,3.9
		l-2.6,0.2C469.5,353.1,468.3,352.1,468.2,350.7L468.2,350.7z"/>
	<path class="st35" d="M444.5,358.6v3.2c0,1.3-1.1,2.4-2.5,2.5h-0.2l-2.6-0.2c-2.1-0.1-3.7-1.8-3.7-3.9l0,0c0-2.1,1.6-3.8,3.7-3.9
		l2.6-0.2C443.3,356.1,444.5,357.2,444.5,358.6L444.5,358.6L444.5,358.6z"/>
	<path class="st16" d="M444.2,358.6v3.2c0,1.3-1.1,2.4-2.5,2.5h-0.2l-2.6-0.2c-2.1-0.1-3.7-1.8-3.7-3.9l0,0c0-2.1,1.6-3.8,3.7-3.9
		l2.6-0.2c1.3-0.1,2.5,0.9,2.6,2.3C444.2,358.4,444.2,358.5,444.2,358.6L444.2,358.6z"/>
	<path class="st32" d="M443.5,358.6v3.2c0,1.3-1.1,2.4-2.5,2.5h-0.2l-2.6-0.2c-2.1-0.1-3.7-1.8-3.7-3.9l0,0c0-2.1,1.6-3.8,3.7-3.9
		l2.6-0.2c1.3-0.1,2.5,0.9,2.6,2.3C443.5,358.4,443.5,358.5,443.5,358.6L443.5,358.6z"/>
	<path class="st35" d="M444.4,315v3.2c0,1.3-1.1,2.4-2.5,2.5h-0.2l-2.6-0.2c-2.1-0.1-3.7-1.8-3.7-3.9l0,0c0-2.1,1.6-3.8,3.7-3.9
		l2.6-0.2C443.1,312.5,444.3,313.6,444.4,315L444.4,315z"/>
	<path class="st16" d="M444.2,315v3.2c0,1.3-1.1,2.4-2.5,2.5h-0.2l-2.6-0.2c-2.1-0.1-3.7-1.8-3.7-3.9l0,0c0-2.1,1.6-3.8,3.7-3.9
		l2.6-0.2C442.9,312.6,444.1,313.6,444.2,315L444.2,315z"/>
	<path class="st32" d="M443.5,315v3.2c0,1.3-1.1,2.4-2.5,2.5h-0.2l-2.6-0.2c-2.1-0.1-3.7-1.8-3.7-3.9l0,0c0-2.1,1.6-3.8,3.7-3.9
		l2.6-0.2C442.2,312.6,443.4,313.6,443.5,315L443.5,315z"/>
	<path class="st35" d="M444.4,347.6v3.2c0,1.3-1.1,2.4-2.5,2.5h-0.2l-2.6-0.2c-2.1-0.1-3.7-1.8-3.7-3.9l0,0c0-2.1,1.6-3.8,3.7-3.9
		l2.6-0.2C443.1,345.1,444.3,346.2,444.4,347.6L444.4,347.6z"/>
	<path class="st16" d="M444.2,347.6v3.2c0,1.3-1.1,2.4-2.5,2.5h-0.2l-2.6-0.2c-2.1-0.1-3.7-1.8-3.7-3.9l0,0c0-2.1,1.6-3.8,3.7-3.9
		l2.6-0.2C442.9,345.2,444.1,346.3,444.2,347.6L444.2,347.6z"/>
	<path class="st32" d="M443.5,347.6v3.2c0,1.3-1.1,2.4-2.5,2.5h-0.2l-2.6-0.2c-2.1-0.1-3.7-1.8-3.7-3.9l0,0c0-2.1,1.6-3.8,3.7-3.9
		l2.6-0.2C442.2,345.2,443.4,346.3,443.5,347.6L443.5,347.6z"/>
	<path class="st35" d="M444.5,336.8v3.2c0,1.3-1.1,2.4-2.5,2.5h-0.2l-2.6-0.2c-2.1-0.1-3.7-1.8-3.7-3.9l0,0c0-2.1,1.6-3.8,3.7-3.9
		l2.6-0.2C443.3,334.3,444.5,335.4,444.5,336.8L444.5,336.8L444.5,336.8z"/>
	<path class="st16" d="M444.2,336.8v3.2c0,1.3-1.1,2.4-2.5,2.5h-0.2l-2.6-0.2c-2.1-0.1-3.7-1.8-3.7-3.9l0,0c0-2.1,1.6-3.8,3.7-3.9
		l2.6-0.2c1.3-0.1,2.5,0.9,2.6,2.3C444.2,336.7,444.2,336.7,444.2,336.8L444.2,336.8z"/>
	<path class="st32" d="M443.5,336.8v3.2c0,1.3-1.1,2.4-2.5,2.5h-0.2l-2.6-0.2c-2.1-0.1-3.7-1.8-3.7-3.9l0,0c0-2.1,1.6-3.8,3.7-3.9
		l2.6-0.2c1.3-0.1,2.5,0.9,2.6,2.3C443.5,336.7,443.5,336.7,443.5,336.8L443.5,336.8z"/>
	<path class="st35" d="M444.4,325.9v3.2c0,1.4-1.1,2.4-2.5,2.5h-0.2l-2.6-0.2c-2.1-0.1-3.7-1.8-3.7-3.9l0,0c0-2.1,1.6-3.8,3.7-3.9
		l2.6-0.2C443.1,323.4,444.3,324.5,444.4,325.9L444.4,325.9z"/>
	<path class="st16" d="M444.2,325.9v3.2c0,1.3-1.1,2.4-2.5,2.5h-0.2l-2.6-0.2c-2.1-0.1-3.7-1.8-3.7-3.9l0,0c0-2.1,1.6-3.8,3.7-3.9
		l2.6-0.2C442.9,323.4,444.1,324.5,444.2,325.9L444.2,325.9z"/>
	<path class="st32" d="M443.5,325.9v3.2c0,1.3-1.1,2.4-2.5,2.5h-0.2l-2.6-0.2c-2.1-0.1-3.7-1.8-3.7-3.9l0,0c0-2.1,1.6-3.8,3.7-3.9
		l2.6-0.2C442.2,323.4,443.4,324.5,443.5,325.9L443.5,325.9z"/>
	<path class="st7" d="M476.4,208.3l-0.7,0.2c-3.4,1-7-0.9-8-4.4l0,0l0,0c-1-3.4,0.9-7,4.4-8l0,0l0.7-0.2c3.4-1,7,0.9,8,4.4l0,0l0,0
		c1.1,3.3-0.8,6.9-4.1,8C476.6,208.3,476.5,208.3,476.4,208.3z"/>
	<path class="st16" d="M476.7,209.2l-0.7,0.2c-3.4,1-7-0.9-8-4.4l0,0l0,0c-1-3.4,0.9-7,4.4-8l0,0l0.7-0.2c3.4-1,7,0.9,8,4.4l0,0l0,0
		c1.1,3.3-0.8,6.9-4.1,8C476.9,209.2,476.8,209.2,476.7,209.2z"/>
	<path class="st32" d="M477,210.3l-0.7,0.2c-3.4,1-7-0.9-8-4.4l0,0l0,0c-1-3.4,0.9-7,4.4-8l0,0l0.7-0.2c3.4-1,7,0.9,8,4.4l0,0l0,0
		c1.1,3.3-0.8,6.9-4.1,8C477.2,210.3,477.1,210.3,477,210.3z"/>
	<path class="st33" d="M475.2,210.9l0.7-0.2c3.4-1,5.4-4.6,4.4-8l0,0l0,0c-1-3.4-4.6-5.4-8-4.4l0,0l-0.7,0.2"/>
	<path class="st7" d="M469.1,227.8l0.3-0.6c1.4-3.3,5.2-4.8,8.5-3.5l0,0l0,0c3.3,1.4,4.8,5.2,3.5,8.5l0,0l-0.3,0.6
		c-1.4,3.3-5.2,4.8-8.5,3.5l0,0l0,0c-3.3-1.3-4.9-5-3.6-8.2C469.1,228,469.1,227.9,469.1,227.8z"/>
	<path class="st16" d="M468.3,227.4l0.3-0.6c1.4-3.3,5.2-4.8,8.5-3.5l0,0l0,0c3.3,1.4,4.8,5.2,3.5,8.5l0,0l-0.3,0.6
		c-1.4,3.3-5.2,4.8-8.5,3.5l0,0l0,0c-3.3-1.3-4.9-5-3.6-8.2C468.2,227.6,468.3,227.5,468.3,227.4z"/>
	<path class="st32" d="M467.2,227l0.3-0.6c1.4-3.3,5.2-4.8,8.5-3.5l0,0l0,0c3.3,1.4,4.8,5.2,3.5,8.5l0,0l-0.3,0.6
		c-1.4,3.3-5.2,4.8-8.5,3.5l0,0l0,0c-3.3-1.3-4.9-5-3.6-8.2C467.1,227.2,467.2,227.1,467.2,227z"/>
	<path class="st33" d="M467.9,225.3l-0.3,0.6c-1.4,3.3,0.1,7.1,3.4,8.5l0,0l0,0c3.3,1.4,7.1-0.1,8.5-3.4l0,0l0.3-0.6"/>
	<path class="st7" d="M450.8,224.7l0.5,0.4c2.8,2.2,3.4,6.2,1.2,9.1l0,0l0,0c-2.2,2.8-6.2,3.3-9.1,1.2l0,0l-0.5-0.4
		c-2.8-2.2-3.3-6.2-1.2-9.1l0,0l0,0c2.1-2.8,6-3.4,8.9-1.3C450.7,224.6,450.7,224.6,450.8,224.7z"/>
	<path class="st16" d="M451.4,224l0.5,0.4c2.8,2.2,3.4,6.2,1.2,9.1l0,0l0,0c-2.2,2.8-6.2,3.4-9.1,1.2l0,0l-0.5-0.4
		c-2.8-2.2-3.4-6.2-1.2-9.1l0,0l0,0c2.1-2.8,6-3.4,8.9-1.3C451.2,223.8,451.3,223.9,451.4,224z"/>
	<path class="st32" d="M452.1,223l0.5,0.4c2.8,2.2,3.4,6.2,1.2,9.1l0,0l0,0c-2.2,2.8-6.2,3.4-9.1,1.2l0,0l-0.5-0.4
		c-2.8-2.2-3.3-6.3-1.2-9.1l0,0l0,0c2.1-2.8,6-3.4,8.9-1.3C451.9,222.9,452,223,452.1,223z"/>
	<path class="st33" d="M453.6,224.2l-0.5-0.4c-2.8-2.2-6.9-1.7-9.1,1.1l0,0l0,0c-2.2,2.8-1.7,6.9,1.1,9.1l0,0l0.5,0.4"/>
	<path class="st10" d="M289.4,330.4h2.4c1.8,0,3.3,1.5,3.3,3.4v0.1v0.2l-0.2,2.4c-0.1,2.4-2.1,4.2-4.5,4.1l0,0
		c-2.4,0-4.4-1.9-4.5-4.3v-2.4l0,0c-0.1-1.8,1.4-3.4,3.2-3.5h0.1C289.3,330.6,289.3,330.6,289.4,330.4L289.4,330.4z"/>
	<path class="st11" d="M289.6,330.9h2.4c1.8,0,3.3,1.4,3.3,3.1c0,0.1,0,0.2,0,0.3v0.2l-0.2,2.4c-0.1,2.4-2.1,4.2-4.5,4.1l0,0
		c-2.4,0-4.4-1.9-4.5-4.3v-2.4l0,0c-0.1-1.8,1.3-3.3,3.1-3.5C289.3,330.9,289.5,330.9,289.6,330.9L289.6,330.9z"/>
	<path class="st12" d="M289.4,331.3h2.4c1.8,0,3.3,1.4,3.3,3.1c0,0.1,0,0.2,0,0.3l0,0v0.2l-0.2,2.4c-0.1,2.4-2.1,4.2-4.5,4.1l0,0
		c-2.4,0-4.4-1.9-4.5-4.3v-2.4l0,0C286,332.8,287.5,331.3,289.4,331.3L289.4,331.3z"/>
	<path class="st13" d="M295.3,334.4l-0.2,2.9c-0.1,2.4-2.1,4.2-4.5,4.1l0,0c-2.4,0-4.4-1.9-4.5-4.3l-0.2-2.9"/>
	<path class="st10" d="M292.1,301.6h-2.4c-1.8,0-3.3-1.5-3.3-3.4v-0.1v-0.2l0.2-2.4c0.1-2.4,2.1-4.2,4.5-4.1l0,0
		c2.4,0,4.4,1.9,4.5,4.3v2.4l0,0c0.1,1.8-1.4,3.4-3.2,3.5h-0.1L292.1,301.6z"/>
	<path class="st11" d="M292.1,301.2h-2.4c-1.8,0-3.3-1.4-3.3-3.1c0-0.1,0-0.2,0-0.3v-0.2l0.2-2.4c0.1-2.4,2.1-4.2,4.5-4.1l0,0
		c2.4,0,4.4,1.9,4.5,4.3v2.4l0,0C295.5,299.7,294,301.2,292.1,301.2L292.1,301.2z"/>
	<path class="st12" d="M292.1,300.9h-2.4c-1.8,0-3.3-1.4-3.3-3.1c0-0.1,0-0.2,0-0.3l0,0v-0.2l0.2-2.4c0.1-2.4,2.1-4.2,4.5-4.1l0,0
		c2.4,0,4.4,1.9,4.5,4.3v2.4l0,0C295.7,299.2,294.1,300.7,292.1,300.9L292.1,300.9z"/>
	<path class="st13" d="M286.2,297.6l0.2-2.9c0.1-2.4,2.1-4.2,4.5-4.1l0,0c2.4,0,4.4,1.9,4.5,4.3l0.2,2.9"/>
	<path class="st10" d="M303.4,310.6l-1.2-2.1l0,0c-0.9-1.6-0.2-3.6,1.4-4.5h0.1l0.2-0.1l2.2-1c2.1-1,4.7-0.1,5.8,2l0,0
		c1.1,2.1,0.4,4.8-1.7,6l-2.1,1.2l0,0c-1.6,0.9-3.6,0.4-4.6-1.2v-0.1L303.4,310.6L303.4,310.6z"/>
	<path class="st11" d="M303.7,310.4l-1.2-2.1c-0.9-1.5-0.3-3.5,1.2-4.4c0.1-0.1,0.2-0.1,0.3-0.1l0.2-0.1l2.2-1c2.1-1,4.7-0.1,5.8,2
		l0,0c1.1,2.1,0.4,4.8-1.7,6l-2.1,1.2l0,0C306.7,312.7,304.6,312.1,303.7,310.4z"/>
	<path class="st12" d="M304,310.3l-1.2-2.1l0,0c-0.9-1.5-0.3-3.5,1.2-4.4c0.1-0.1,0.2-0.1,0.3-0.1l0,0l0.2-0.1l2.2-1
		c2.1-1,4.7-0.1,5.8,2l0,0c1.1,2.1,0.4,4.8-1.7,6l-2.1,1.2l0,0C307.2,312.6,305.1,312,304,310.3z"/>
	<path class="st13" d="M304.2,303.7l2.7-1.2c2.1-1,4.7-0.1,5.8,2l0,0c1.1,2.1,0.4,4.8-1.7,6l-2.5,1.6"/>
	<path class="st10" d="M302.2,324.2l1.2-2.1l0,0c0.9-1.6,2.9-2.2,4.5-1.2h0.1l0.2,0.1l2,1.3c2,1.3,2.7,3.9,1.4,5.9l0,0
		c-1.2,2.1-3.8,2.9-6,1.8l-2.1-1.2l0,0c-1.6-0.8-2.3-2.8-1.5-4.5v-0.1L302.2,324.2L302.2,324.2z"/>
	<path class="st11" d="M302.8,324.3l1.2-2.1c0.8-1.6,2.8-2.2,4.4-1.3c0.1,0,0.2,0.1,0.3,0.2l0.2,0.1l2,1.3c2,1.3,2.7,3.9,1.4,5.9
		l0,0c-1.2,2.1-3.8,2.9-6,1.8l-2.1-1.2l0,0c-1.6-0.9-2.3-2.9-1.4-4.5C302.7,324.4,302.7,324.3,302.8,324.3L302.8,324.3z"/>
	<path class="st12" d="M303,324.6l1.2-2.1l0,0c0.8-1.6,2.8-2.2,4.4-1.3c0.1,0,0.2,0.1,0.3,0.2l0,0l0.2,0.1l2,1.3
		c2,1.3,2.7,3.9,1.4,5.9l0,0c-1.2,2.1-3.8,2.9-6,1.8l-2.1-1.2l0,0C302.7,328.3,302.1,326.3,303,324.6L303,324.6z"/>
	<path class="st13" d="M308.5,320.9l2.5,1.6c2,1.3,2.7,3.9,1.4,5.9l0,0c-1.2,2.1-3.8,2.9-6,1.8l-2.7-1.3"/>
	<circle class="st7" cx="291.6" cy="316.1" r="12.8"/>
	<circle class="st8" cx="291.1" cy="316.1" r="12.8"/>
	<circle class="st9" cx="290.3" cy="316.1" r="12.8"/>
	<path class="st10" d="M277.2,321.2l1.2,2.1l0,0c0.9,1.6,0.2,3.6-1.4,4.5h-0.1l-0.2,0.1l-2.2,1c-2.1,1-4.7,0.1-5.8-2l0,0
		c-1.1-2.1-0.4-4.8,1.7-6l2.1-1.2l0,0c1.6-0.9,3.6-0.4,4.6,1.2v0.1L277.2,321.2L277.2,321.2z"/>
	<path class="st11" d="M276.9,321.4l1.2,2.1c0.9,1.5,0.3,3.5-1.2,4.4c-0.1,0.1-0.2,0.1-0.3,0.1l-0.2,0.1l-2.2,1
		c-2.1,1-4.7,0.1-5.8-2l0,0c-1.1-2.1-0.4-4.8,1.7-6l2.1-1.2l0,0C273.9,319.1,276,319.7,276.9,321.4L276.9,321.4z"/>
	<path class="st12" d="M276.6,321.5l1.2,2.1l0,0c0.9,1.5,0.3,3.5-1.2,4.4c-0.1,0.1-0.2,0.1-0.3,0.1l0,0l-0.2,0.1l-2.2,1
		c-2.1,1-4.7,0.1-5.8-2l0,0c-1.1-2.1-0.4-4.8,1.7-6l2.1-1.2l0,0C273.3,319.2,275.4,319.8,276.6,321.5L276.6,321.5z"/>
	<path class="st13" d="M276.4,328.1l-2.7,1.2c-2.1,1-4.7,0.1-5.8-2l0,0c-1.1-2.1-0.4-4.8,1.7-6l2.5-1.6"/>
	<path class="st10" d="M278.4,307.6l-1.2,2.1l0,0c-0.9,1.6-2.9,2.2-4.5,1.2h-0.1l-0.2-0.1l-2-1.3c-2-1.3-2.7-3.9-1.4-5.9l0,0
		c1.2-2.1,3.8-2.9,6-1.8l2.1,1.2l0,0c1.6,0.8,2.3,2.8,1.5,4.5v0.1L278.4,307.6L278.4,307.6z"/>
	<path class="st11" d="M277.8,307.5l-1.2,2.1c-0.8,1.6-2.8,2.2-4.4,1.4c-0.1,0-0.2-0.1-0.3-0.2l-0.2-0.1l-2-1.3
		c-2-1.3-2.6-3.9-1.4-5.9l0,0c1.2-2.1,3.8-2.9,6-1.8l2.1,1.2l0,0C278,303.8,278.7,305.8,277.8,307.5
		C277.9,307.4,277.9,307.5,277.8,307.5L277.8,307.5z"/>
	<path class="st12" d="M277.6,307.2l-1.2,2.1l0,0c-0.8,1.6-2.8,2.2-4.4,1.3c-0.1,0-0.2-0.1-0.3-0.2l0,0l-0.2-0.1l-2-1.3
		c-2-1.3-2.7-3.9-1.4-5.9l0,0c1.2-2.1,3.8-2.9,6-1.8l2.1,1.2l0,0C277.9,303.5,278.5,305.5,277.6,307.2L277.6,307.2z"/>
	<path class="st13" d="M272,310.9l-2.5-1.6c-2-1.3-2.7-3.9-1.4-5.9l0,0c1.2-2.1,3.8-2.9,6-1.8l2.7,1.3"/>
	<path class="st7" d="M364.2,355.3h-17.9c-1.2,0.1-2.2-0.7-2.3-1.9v-0.1v-48.4c0.2-1.2,1.2-2,2.3-2h17.9c1.2-0.1,2.2,0.7,2.3,1.9
		v0.1v48.4C366.5,354.5,365.5,355.4,364.2,355.3C364.3,355.3,364.3,355.3,364.2,355.3z"/>
	<path class="st8" d="M364.2,356.6h-17.9c-1.2,0.1-2.2-0.7-2.3-1.9v-0.1v-48.4c0.2-1.2,1.2-2,2.3-2h17.9c1.2-0.1,2.2,0.7,2.3,1.9
		v0.1v48.4C366.5,355.8,365.5,356.7,364.2,356.6C364.3,356.6,364.3,356.6,364.2,356.6z"/>
	<path class="st9" d="M364.2,357.6h-17.9c-1.2,0.1-2.2-0.7-2.3-1.9v-0.1v-48.4c0.2-1.2,1.2-2,2.3-2h17.9c1.2-0.1,2.2,0.7,2.3,1.9
		v0.1v48.4C366.5,357,365.7,357.6,364.2,357.6z"/>
	<path class="st10" d="M354.2,358.9h2.2c1.7,0,3,1.4,3,3v0.1v0.2l-0.2,2.2c-0.1,2.2-1.9,3.8-4.1,3.8l0,0c-2.2,0-4-1.7-4.1-3.9V362
		l0,0c-0.1-1.7,1.2-3.1,2.9-3.1h0.1H354.2z"/>
	<path class="st11" d="M354.2,359.2h2.2c1.6,0,2.9,1.2,3,2.9c0,0.1,0,0.2,0,0.3v0.2l-0.2,2.2c-0.1,2.2-1.9,3.8-4.1,3.8l0,0
		c-2.2,0-4-1.7-4.1-3.9v-2.2l0,0C351.2,360.6,352.5,359.3,354.2,359.2L354.2,359.2z"/>
	<path class="st12" d="M354.2,359.7h2.2c1.6,0,2.9,1.2,3,2.9c0,0.1,0,0.2,0,0.3l0,0v0.2l-0.2,2.2c-0.1,2.2-1.9,3.8-4.1,3.8l0,0
		c-2.2,0-4-1.7-4.1-3.9V363l0,0c0-1.7,1.3-3.1,3-3.1C354.1,359.7,354.1,359.7,354.2,359.7L354.2,359.7z"/>
	<path class="st13" d="M359.5,362.5l-0.2,2.7c-0.1,2.2-1.9,3.8-4.1,3.8l0,0c-2.2,0-4-1.7-4.1-3.9l-0.2-2.7"/>
	<path class="st10" d="M356.4,301.5h-2.2c-1.7,0-3-1.4-3-3v-0.1v-0.2l0.2-2.2c0.1-2.2,1.9-3.8,4.1-3.8l0,0c2.2,0,4,1.7,4.1,3.9v2.2
		l0,0c0.1,1.7-1.2,3.1-2.9,3.1h-0.1L356.4,301.5z"/>
	<path class="st11" d="M356.4,301.2h-2.2c-1.6,0-2.9-1.2-3-2.9c0-0.1,0-0.2,0-0.3v-0.2l0.2-2.2c0.1-2.2,1.9-3.8,4.1-3.8l0,0
		c2.2,0,4,1.7,4.1,3.9v2.2l0,0C359.4,299.7,358,301.1,356.4,301.2L356.4,301.2z"/>
	<path class="st12" d="M356.4,300.7h-2.2c-1.6,0-2.9-1.2-3-2.9c0-0.1,0-0.2,0-0.3l0,0v-0.2l0.2-2.2c0.1-2.2,1.9-3.8,4.1-3.8l0,0
		c2.2,0,4,1.7,4.1,3.9v2.2l0,0c0,1.7-1.3,3.1-3,3.1C356.5,300.7,356.4,300.7,356.4,300.7L356.4,300.7z"/>
	<path class="st13" d="M351,297.9l0.2-2.7c0.1-2.2,1.9-3.8,4.1-3.8l0,0c2.2,0,4,1.7,4.1,3.9l0.2,2.7"/>
	<path class="st10" d="M343.1,348.7v2.2l0,0c0,1.7-1.4,3-3,3H340h-0.2l-2.2-0.2c-2.2-0.1-3.8-1.9-3.8-4.1l0,0c0-2.2,1.7-4,3.9-4.1
		h2.2c1.7-0.1,3.1,1.2,3.1,2.9v0.1v0.2H343.1z"/>
	<path class="st11" d="M342.8,348.7v2.2c0,1.6-1.2,2.9-2.9,3c-0.1,0-0.2,0-0.3,0h-0.2l-2.2-0.2c-2.2-0.1-3.8-1.9-3.8-4.1l0,0
		c0-2.2,1.7-4,3.9-4.1h2.2C341.3,345.7,342.7,347.1,342.8,348.7L342.8,348.7z"/>
	<path class="st12" d="M342.3,348.7v2.2l0,0c0,1.6-1.2,2.9-2.9,3c-0.1,0-0.2,0-0.3,0H339l-2.2-0.2c-2.2-0.1-3.8-1.9-3.8-4.1l0,0
		c0-2.2,1.7-4,3.9-4.1h2.2c1.7,0,3.1,1.3,3.1,3C342.3,348.6,342.3,348.7,342.3,348.7L342.3,348.7z"/>
	<path class="st13" d="M339.5,354.1l-2.7-0.2c-2.2-0.1-3.8-1.9-3.8-4.1l0,0c0-2.2,1.7-4,3.9-4.1l2.7-0.2"/>
	<path class="st10" d="M343.1,335.3v2.2l0,0c0,1.7-1.4,3-3,3H340h-0.2l-2.2-0.2c-2.2-0.1-3.8-1.9-3.8-4.1l0,0c0-2.2,1.7-4,3.9-4.1
		h2.2c1.7-0.1,3.1,1.2,3.1,2.9v0.1v0.2H343.1z"/>
	<path class="st11" d="M342.8,335.3v2.2c0,1.6-1.2,2.9-2.9,3c-0.1,0-0.2,0-0.3,0h-0.2l-2.2-0.2c-2.2-0.1-3.8-1.9-3.8-4.1l0,0
		c0-2.2,1.7-4,3.9-4.1h2.2C341.3,332.2,342.7,333.6,342.8,335.3L342.8,335.3z"/>
	<path class="st12" d="M342.3,335.3v2.2l0,0c0,1.6-1.2,2.9-2.9,3c-0.1,0-0.2,0-0.3,0H339l-2.2-0.2c-2.2-0.1-3.8-1.9-3.8-4.1l0,0
		c0-2.2,1.7-4,3.9-4.1h2.2c1.7,0,3.1,1.3,3.1,3C342.3,335.1,342.3,335.2,342.3,335.3L342.3,335.3z"/>
	<path class="st13" d="M339.5,340.6l-2.7-0.2c-2.2-0.1-3.8-1.9-3.8-4.1l0,0c0-2.2,1.7-4,3.9-4.1l2.7-0.2"/>
	<path class="st10" d="M343.1,322v2.2l0,0c0,1.7-1.4,3-3,3H340h-0.2l-2.2-0.2c-2.2-0.1-3.8-1.9-3.8-4.1l0,0c0-2.2,1.7-4,3.9-4.1h2.2
		c1.7-0.1,3.1,1.2,3.1,2.9v0.1v0.2H343.1z"/>
	<path class="st11" d="M342.8,322v2.2c0,1.6-1.2,2.9-2.9,3c-0.1,0-0.2,0-0.3,0h-0.2l-2.2-0.2c-2.2-0.1-3.8-1.9-3.8-4.1l0,0
		c0-2.2,1.7-4,3.9-4.1h2.2C341.3,319,342.7,320.3,342.8,322L342.8,322z"/>
	<path class="st12" d="M342.3,322v2.2l0,0c0,1.6-1.2,2.9-2.9,3c-0.1,0-0.2,0-0.3,0H339l-2.2-0.2c-2.2-0.1-3.8-1.9-3.8-4.1l0,0
		c0-2.2,1.7-4,3.9-4.1h2.2c1.7,0,3.1,1.3,3.1,3C342.3,321.9,342.3,322,342.3,322L342.3,322z"/>
	<path class="st13" d="M339.5,327.4l-2.7-0.2c-2.2-0.1-3.8-1.9-3.8-4.1l0,0c0-2.2,1.7-4,3.9-4.1l2.7-0.2"/>
	<path class="st10" d="M343.1,308.5v2.2l0,0c0,1.7-1.4,3-3,3H340h-0.2l-2.2-0.2c-2.2-0.1-3.8-1.9-3.8-4.1l0,0c0-2.2,1.7-4,3.9-4.1
		h2.2c1.7-0.1,3.1,1.2,3.1,2.9v0.1v0.2H343.1z"/>
	<path class="st11" d="M342.8,308.5v2.2c0,1.6-1.2,2.9-2.9,3c-0.1,0-0.2,0-0.3,0h-0.2l-2.2-0.2c-2.2-0.1-3.8-1.9-3.8-4.1l0,0
		c0-2.2,1.7-4,3.9-4.1h2.2C341.3,305.5,342.7,306.9,342.8,308.5L342.8,308.5z"/>
	<path class="st12" d="M342.3,308.5v2.2l0,0c0,1.6-1.2,2.9-2.9,3c-0.1,0-0.2,0-0.3,0H339l-2.2-0.2c-2.2-0.1-3.8-1.9-3.8-4.1l0,0
		c0-2.2,1.7-4,3.9-4.1h2.2c1.7,0,3.1,1.3,3.1,3C342.3,308.4,342.3,308.5,342.3,308.5L342.3,308.5z"/>
	<path class="st13" d="M339.5,313.9l-2.7-0.2c-2.2-0.1-3.8-1.9-3.8-4.1l0,0c0-2.2,1.7-4,3.9-4.1l2.7-0.2"/>
	<path class="st10" d="M368.2,311.9v-2.2l0,0c0-1.7,1.4-3,3-3h0.1h0.2l2.2,0.2c2.2,0.1,3.8,1.9,3.8,4.1l0,0c0,2.2-1.7,4-3.9,4.1
		h-2.2c-1.7,0.1-3.1-1.2-3.1-2.9v-0.1v-0.2H368.2z"/>
	<path class="st11" d="M368.5,311.9v-2.2c0-1.6,1.2-2.9,2.9-3c0.1,0,0.2,0,0.3,0h0.2l2.2,0.2c2.2,0.1,3.8,1.9,3.8,4.1l0,0
		c0,2.2-1.7,4-3.9,4.1h-2.2C370,314.9,368.6,313.6,368.5,311.9z"/>
	<path class="st12" d="M369,311.9v-2.2l0,0c0-1.6,1.2-2.9,2.9-3c0.1,0,0.2,0,0.3,0h0.2l2.2,0.2c2.2,0.1,3.8,1.9,3.8,4.1l0,0
		c0,2.2-1.7,4-3.9,4.1h-2.2c-1.7,0-3.1-1.3-3.1-3C369,312,369,312,369,311.9L369,311.9z"/>
	<path class="st13" d="M371.8,306.6l2.7,0.2c2.2,0.1,3.8,1.9,3.8,4.1l0,0c0,2.2-1.7,4-3.9,4.1l-2.7,0.2"/>
	<path class="st10" d="M368.2,325.4v-2.2l0,0c0-1.7,1.4-3,3-3h0.1h0.2l2.2,0.2c2.2,0.1,3.8,1.9,3.8,4.1l0,0c0,2.2-1.7,4-3.9,4.1
		h-2.2c-1.7,0.1-3.1-1.2-3.1-2.9v-0.1v-0.2H368.2z"/>
	<path class="st11" d="M368.5,325.4v-2.2c0-1.6,1.2-2.9,2.9-3c0.1,0,0.2,0,0.3,0h0.2l2.2,0.2c2.2,0.1,3.8,1.9,3.8,4.1l0,0
		c0,2.2-1.7,4-3.9,4.1h-2.2C370,328.4,368.6,327.1,368.5,325.4L368.5,325.4z"/>
	<path class="st12" d="M369,325.4v-2.2l0,0c0-1.6,1.2-2.9,2.9-3c0.1,0,0.2,0,0.3,0h0.2l2.2,0.2c2.2,0.1,3.8,1.9,3.8,4.1l0,0
		c0,2.2-1.7,4-3.9,4.1h-2.2c-1.7,0-3.1-1.3-3.1-3C369,325.5,369,325.4,369,325.4L369,325.4z"/>
	<path class="st13" d="M371.8,320.1l2.7,0.2c2.2,0.1,3.8,1.9,3.8,4.1l0,0c0,2.2-1.7,4-3.9,4.1l-2.7,0.2"/>
	<path class="st10" d="M368.2,338.6v-2.2l0,0c0-1.7,1.4-3,3-3h0.1h0.2l2.2,0.2c2.2,0.1,3.8,1.9,3.8,4.1l0,0c0,2.2-1.7,4-3.9,4.1
		h-2.2c-1.7,0.1-3.1-1.2-3.1-2.9v-0.1v-0.2H368.2z"/>
	<path class="st11" d="M368.5,338.6v-2.2c0-1.6,1.2-2.9,2.9-3c0.1,0,0.2,0,0.3,0h0.2l2.2,0.2c2.2,0.1,3.8,1.9,3.8,4.1l0,0
		c0,2.2-1.7,4-3.9,4.1h-2.2C370,341.6,368.6,340.3,368.5,338.6L368.5,338.6z"/>
	<path class="st12" d="M369,338.6v-2.2l0,0c0-1.6,1.2-2.9,2.9-3c0.1,0,0.2,0,0.3,0h0.2l2.2,0.2c2.2,0.1,3.8,1.9,3.8,4.1l0,0
		c0,2.2-1.7,4-3.9,4.1h-2.2c-1.7,0-3.1-1.3-3.1-3C369,338.7,369,338.7,369,338.6L369,338.6z"/>
	<path class="st13" d="M371.8,333.3l2.7,0.2c2.2,0.1,3.8,1.9,3.8,4.1l0,0c0,2.2-1.7,4-3.9,4.1l-2.7,0.2"/>
	<path class="st10" d="M368.2,352.1v-2.2l0,0c0-1.7,1.4-3,3-3h0.1h0.2l2.2,0.2c2.2,0.1,3.8,1.9,3.8,4.1l0,0c0,2.2-1.7,4-3.9,4.1
		h-2.2c-1.7,0.1-3.1-1.2-3.1-2.9v-0.1v-0.2H368.2z"/>
	<path class="st11" d="M368.5,352.1v-2.2c0-1.6,1.2-2.9,2.9-3c0.1,0,0.2,0,0.3,0h0.2l2.2,0.2c2.2,0.1,3.8,1.9,3.8,4.1l0,0
		c0,2.2-1.7,4-3.9,4.1h-2.2C370,355.1,368.6,353.8,368.5,352.1L368.5,352.1z"/>
	<path class="st12" d="M369,352.1v-2.2l0,0c0-1.6,1.2-2.9,2.9-3c0.1,0,0.2,0,0.3,0h0.2l2.2,0.2c2.2,0.1,3.8,1.9,3.8,4.1l0,0
		c0,2.2-1.7,4-3.9,4.1h-2.2c-1.7,0-3.1-1.3-3.1-3C369,352.2,369,352.2,369,352.1L369,352.1z"/>
	<path class="st13" d="M371.8,346.8l2.7,0.2c2.2,0.1,3.8,1.9,3.8,4.1l0,0c0,2.2-1.7,4-3.9,4.1l-2.7,0.2"/>
	<path class="st7" d="M493.6,145.7v16.4c0,1.1-0.5,2.1-1.6,2.1h-38.3c-0.8,0-1.6-1.1-1.6-2.1v-16.4c0-1.1,0.5-2.1,1.6-2.1H492
		C492.9,143.5,493.6,144.2,493.6,145.7z"/>
	<path class="st8" d="M494.7,145.7v16.4c0,1.1-0.5,2.1-1.6,2.1h-38.3c-0.8,0-1.6-1.1-1.6-2.1v-16.4c0-1.1,0.5-2.1,1.6-2.1h38.3
		C493.9,143.5,494.7,144.2,494.7,145.7z"/>
	<path class="st9" d="M495.5,145.7v16.4c0,1.1-0.5,2.1-1.6,2.1h-38.3c-0.8,0-1.6-1.1-1.6-2.1v-16.4c0-1.1,0.5-2.1,1.6-2.1h38.3
		C495,143.5,495.5,144.2,495.5,145.7z"/>
	<path class="st10" d="M497.1,155.4v-2.2l0,0c0-1.7,1.4-3,3-3h0.1h0.2l2.2,0.2c2.2,0.1,3.8,1.9,3.8,4.1l0,0c0,2.2-1.7,4-3.9,4.1
		h-2.2c-1.7,0.1-3.1-1.2-3.1-2.9v-0.1v-0.2L497.1,155.4L497.1,155.4z"/>
	<path class="st11" d="M497.4,155.4v-2.2c0-1.6,1.2-2.9,2.9-3c0.1,0,0.2,0,0.3,0h0.2l2.2,0.2c2.2,0.1,3.8,1.9,3.8,4.1l0,0
		c0,2.2-1.7,4-3.9,4.1h-2.2C498.8,158.4,497.5,157.1,497.4,155.4L497.4,155.4z"/>
	<path class="st12" d="M497.8,155.4v-2.2l0,0c0-1.6,1.2-2.9,2.9-3c0.1,0,0.2,0,0.3,0h0.2l2.2,0.2c2.2,0.1,3.8,1.9,3.8,4.1l0,0
		c0,2.2-1.7,4-3.9,4.1H501c-1.7,0-3.1-1.3-3.1-3C497.8,155.5,497.8,155.5,497.8,155.4z"/>
	<path class="st13" d="M500.7,150.1l2.7,0.2c2.2,0.1,3.8,1.9,3.8,4.1l0,0c0,2.2-1.7,4-3.9,4.1l-2.7,0.2"/>
	<path class="st10" d="M452.1,153.1v2.2l0,0c0,1.7-1.4,3-3,3H449h-0.2l-2.2-0.2c-2.2-0.1-3.8-1.9-3.8-4.1l0,0c0-2.2,1.7-4,3.9-4.1
		h2.2c1.7-0.1,3.1,1.2,3.1,2.9v0.1L452.1,153.1L452.1,153.1z"/>
	<path class="st11" d="M451.8,153.1v2.2c0,1.6-1.2,2.9-2.9,3c-0.1,0-0.2,0-0.3,0h-0.2l-2.2-0.2c-2.2-0.1-3.8-1.9-3.8-4.1l0,0
		c0-2.2,1.7-4,3.9-4.1h2.2C450.4,150.1,451.7,151.5,451.8,153.1L451.8,153.1z"/>
	<path class="st12" d="M451.3,153.1v2.2l0,0c0,1.6-1.2,2.9-2.9,3c-0.1,0-0.2,0-0.3,0h-0.2l-2.2-0.2c-2.2-0.1-3.8-1.9-3.8-4.1l0,0
		c0-2.2,1.7-4,3.9-4.1h2.2c1.7,0,3.1,1.3,3.1,3C451.3,153,451.3,153.1,451.3,153.1L451.3,153.1z"/>
	<path class="st13" d="M448.5,158.5l-2.7-0.2c-2.2-0.1-3.8-1.9-3.8-4.1l0,0c0-2.2,1.7-4,3.9-4.1l2.7-0.2"/>
	<path class="st10" d="M486.5,166.8h2.2c1.7,0,3,1.4,3,3v0.1v0.2l-0.2,2.2c-0.1,2.2-1.9,3.8-4.1,3.8l0,0c-2.2,0-4-1.7-4.1-3.9V170
		l0,0c-0.1-1.7,1.2-3.1,2.9-3.1h0.1L486.5,166.8L486.5,166.8z"/>
	<path class="st11" d="M486.5,167.1h2.2c1.6,0,2.9,1.2,3,2.9c0,0.1,0,0.2,0,0.3v0.2l-0.2,2.2c-0.1,2.2-1.9,3.8-4.1,3.8l0,0
		c-2.2,0-4-1.7-4.1-3.9v-2.2l0,0C483.5,168.6,484.9,167.2,486.5,167.1L486.5,167.1z"/>
	<path class="st12" d="M486.5,167.6h2.2c1.6,0,2.9,1.2,3,2.9c0,0.1,0,0.2,0,0.3l0,0v0.2l-0.2,2.2c-0.1,2.2-1.9,3.8-4.1,3.8l0,0
		c-2.2,0-4-1.7-4.1-3.9v-2.2l0,0c0-1.7,1.3-3.1,3-3.1C486.4,167.6,486.5,167.6,486.5,167.6L486.5,167.6z"/>
	<path class="st13" d="M491.9,170.4l-0.2,2.7c-0.1,2.2-1.9,3.8-4.1,3.8l0,0c-2.2,0-4-1.7-4.1-3.9l-0.2-2.7"/>
	<path class="st10" d="M473.3,166.8h2.2c1.7,0,3,1.4,3,3v0.1v0.2l-0.2,2.2c-0.1,2.2-1.9,3.8-4.1,3.8l0,0c-2.2,0-4-1.7-4.1-3.9V170
		l0,0c-0.1-1.7,1.2-3.1,2.9-3.1h0.1L473.3,166.8L473.3,166.8z"/>
	<path class="st11" d="M473.3,167.1h2.2c1.6,0,2.9,1.2,3,2.9c0,0.1,0,0.2,0,0.3v0.2l-0.2,2.2c-0.1,2.2-1.9,3.8-4.1,3.8l0,0
		c-2.2,0-4-1.7-4.1-3.9v-2.2l0,0C470.3,168.6,471.6,167.2,473.3,167.1z"/>
	<path class="st12" d="M473.3,167.6h2.2c1.6,0,2.9,1.2,3,2.9c0,0.1,0,0.2,0,0.3l0,0v0.2l-0.2,2.2c-0.1,2.2-1.9,3.8-4.1,3.8l0,0
		c-2.2,0-4-1.7-4.1-3.9v-2.2l0,0c0-1.7,1.3-3.1,3-3.1C473.2,167.6,473.2,167.6,473.3,167.6L473.3,167.6z"/>
	<path class="st13" d="M478.6,170.4l-0.2,2.7c-0.1,2.2-1.9,3.8-4.1,3.8l0,0c-2.2,0-4-1.7-4.1-3.9l-0.2-2.7"/>
	<path class="st10" d="M459.8,166.8h2.2c1.7,0,3,1.4,3,3v0.1v0.2l-0.2,2.2c-0.1,2.2-1.9,3.8-4.1,3.8l0,0c-2.2,0-4-1.7-4.1-3.9V170
		l0,0c-0.1-1.7,1.2-3.1,2.9-3.1h0.1L459.8,166.8L459.8,166.8z"/>
	<path class="st11" d="M459.8,167.1h2.2c1.6,0,2.9,1.2,3,2.9c0,0.1,0,0.2,0,0.3v0.2l-0.2,2.2c-0.1,2.2-1.9,3.8-4.1,3.8l0,0
		c-2.2,0-4-1.7-4.1-3.9v-2.2l0,0C456.8,168.6,458.1,167.2,459.8,167.1L459.8,167.1z"/>
	<path class="st12" d="M459.8,167.6h2.2c1.6,0,2.9,1.2,3,2.9c0,0.1,0,0.2,0,0.3l0,0v0.2l-0.2,2.2c-0.1,2.2-1.9,3.8-4.1,3.8l0,0
		c-2.2,0-4-1.7-4.1-3.9v-2.2l0,0c0-1.7,1.3-3.1,3-3.1C459.7,167.6,459.8,167.6,459.8,167.6L459.8,167.6z"/>
	<path class="st13" d="M465.1,170.4l-0.2,2.7c-0.1,2.2-1.9,3.8-4.1,3.8l0,0c-2.2,0-4-1.7-4.1-3.9l-0.2-2.7"/>
	<path class="st10" d="M462,142.8h-2.2c-1.7,0-3-1.4-3-3v-0.1v-0.2l0.2-2.2c0.1-2.2,1.9-3.8,4.1-3.8l0,0c2.2,0,4,1.7,4.1,3.9v2.2
		l0,0c0.1,1.7-1.2,3.1-2.9,3.1h-0.1H462V142.8z"/>
	<path class="st11" d="M462,142.4h-2.2c-1.6,0-2.9-1.2-3-2.9c0-0.1,0-0.2,0-0.3V139l0.2-2.2c0.1-2.2,1.9-3.8,4.1-3.8l0,0
		c2.2,0,4,1.7,4.1,3.9v2.2l0,0C465,141,463.7,142.3,462,142.4L462,142.4z"/>
	<path class="st12" d="M462,142h-2.2c-1.6,0-2.9-1.2-3-2.9c0-0.1,0-0.2,0-0.3l0,0v-0.2l0.2-2.2c0.1-2.2,1.9-3.8,4.1-3.8l0,0
		c2.2,0,4,1.7,4.1,3.9v2.2l0,0c0,1.7-1.3,3.1-3,3.1C462.1,142,462.1,142,462,142L462,142z"/>
	<path class="st13" d="M456.7,139.1l0.2-2.7c0.1-2.2,1.9-3.8,4.1-3.8l0,0c2.2,0,4,1.7,4.1,3.9l0.2,2.7"/>
	<path class="st10" d="M475.2,142.8H473c-1.7,0-3-1.4-3-3v-0.1v-0.2l0.2-2.2c0.1-2.2,1.9-3.8,4.1-3.8l0,0c2.2,0,4,1.7,4.1,3.9v2.2
		l0,0c0.1,1.7-1.2,3.1-2.9,3.1h-0.1h-0.2V142.8z"/>
	<path class="st11" d="M475.2,142.4H473c-1.6,0-2.9-1.2-3-2.9c0-0.1,0-0.2,0-0.3V139l0.2-2.2c0.1-2.2,1.9-3.8,4.1-3.8l0,0
		c2.2,0,4,1.7,4.1,3.9v2.2l0,0C478.3,141,476.9,142.3,475.2,142.4L475.2,142.4z"/>
	<path class="st12" d="M475.2,142H473c-1.6,0-2.9-1.2-3-2.9c0-0.1,0-0.2,0-0.3l0,0v-0.2l0.2-2.2c0.1-2.2,1.9-3.8,4.1-3.8l0,0
		c2.2,0,4,1.7,4.1,3.9v2.2l0,0c0,1.7-1.3,3.1-3,3.1C475.4,142,475.3,142,475.2,142L475.2,142z"/>
	<path class="st13" d="M469.9,139.1l0.2-2.7c0.1-2.2,1.9-3.8,4.1-3.8l0,0c2.2,0,4,1.7,4.1,3.9l0.2,2.7"/>
	<path class="st10" d="M488.7,142.8h-2.2c-1.7,0-3-1.4-3-3v-0.1v-0.2l0.2-2.2c0.1-2.2,1.9-3.8,4.1-3.8l0,0c2.2,0,4,1.7,4.1,3.9v2.2
		l0,0c0.1,1.7-1.2,3.1-2.9,3.1h-0.1h-0.2V142.8z"/>
	<path class="st11" d="M488.7,142.4h-2.2c-1.6,0-2.9-1.2-3-2.9c0-0.1,0-0.2,0-0.3V139l0.2-2.2c0.1-2.2,1.9-3.8,4.1-3.8l0,0
		c2.2,0,4,1.7,4.1,3.9v2.2l0,0C491.8,141,490.4,142.3,488.7,142.4L488.7,142.4z"/>
	<path class="st12" d="M488.7,142h-2.2c-1.6,0-2.9-1.2-3-2.9c0-0.1,0-0.2,0-0.3l0,0v-0.2l0.2-2.2c0.1-2.2,1.9-3.8,4.1-3.8l0,0
		c2.2,0,4,1.7,4.1,3.9v2.2l0,0c0,1.7-1.3,3.1-3,3.1C488.9,142,488.8,142,488.7,142L488.7,142z"/>
	<path class="st13" d="M483.4,139.1l0.2-2.7c0.1-2.2,1.9-3.8,4.1-3.8l0,0c2.2,0,4,1.7,4.1,3.9l0.2,2.7"/>
	<path class="st10" d="M478.4,33.3h-2.2c-1.7,0-3-1.4-3-3v-0.1V30l0.2-2.2c0.1-2.2,1.9-3.8,4.1-3.8l0,0c2.2,0,4,1.7,4.1,3.9v2.2l0,0
		c0.1,1.7-1.2,3.1-2.9,3.1h-0.1L478.4,33.3z"/>
	<path class="st11" d="M478.4,33h-2.2c-1.6,0-2.9-1.2-3-2.9c0-0.1,0-0.2,0-0.3v-0.2l0.2-2.2c0.1-2.2,1.9-3.8,4.1-3.8l0,0
		c2.2,0,4,1.7,4.1,3.9v2.2l0,0C481.5,31.6,480.1,32.9,478.4,33L478.4,33z"/>
	<path class="st12" d="M478.4,32.6h-2.2c-1.6,0-2.9-1.2-3-2.9c0-0.1,0-0.2,0-0.3l0,0v-0.2l0.2-2.2c0.1-2.2,1.9-3.8,4.1-3.8l0,0
		c2.2,0,4,1.7,4.1,3.9v2.2l0,0c0,1.7-1.3,3.1-3,3.1C478.6,32.6,478.5,32.6,478.4,32.6L478.4,32.6z"/>
	<path class="st13" d="M473.1,29.7l0.2-2.7c0.1-2.2,1.9-3.8,4.1-3.8l0,0c2.2,0,4,1.7,4.1,3.9l0.2,2.7"/>
	<path class="st10" d="M491.9,33.3h-2.2c-1.7,0-3-1.4-3-3v-0.1V30l0.2-2.2c0.1-2.2,1.9-3.8,4.1-3.8l0,0c2.2,0,4,1.7,4.1,3.9v2.2l0,0
		c0.1,1.7-1.2,3.1-2.9,3.1h-0.1L491.9,33.3z"/>
	<path class="st11" d="M491.9,33h-2.2c-1.6,0-2.9-1.2-3-2.9c0-0.1,0-0.2,0-0.3v-0.2l0.2-2.2c0.1-2.2,1.9-3.8,4.1-3.8l0,0
		c2.2,0,4,1.7,4.1,3.9v2.2l0,0C494.9,31.6,493.6,32.9,491.9,33L491.9,33z"/>
	<path class="st12" d="M491.9,32.6h-2.2c-1.6,0-2.9-1.2-3-2.9c0-0.1,0-0.2,0-0.3l0,0v-0.2l0.2-2.2c0.1-2.2,1.9-3.8,4.1-3.8l0,0
		c2.2,0,4,1.7,4.1,3.9v2.2l0,0c0,1.7-1.3,3.1-3,3.1C492,32.6,492,32.6,491.9,32.6L491.9,32.6z"/>
	<path class="st13" d="M486.6,29.7l0.2-2.7c0.1-2.2,1.9-3.8,4.1-3.8l0,0c2.2,0,4,1.7,4.1,3.9l0.2,2.7"/>
	<path class="st10" d="M505.2,33.3H503c-1.7,0-3-1.4-3-3v-0.1V30l0.2-2.2c0.1-2.2,1.9-3.8,4.1-3.8l0,0c2.2,0,4,1.7,4.1,3.9v2.2l0,0
		c0.1,1.7-1.2,3.1-2.9,3.1h-0.1L505.2,33.3z"/>
	<path class="st11" d="M505.2,33H503c-1.6,0-2.9-1.2-3-2.9c0-0.1,0-0.2,0-0.3v-0.2l0.2-2.2c0.1-2.2,1.9-3.8,4.1-3.8l0,0
		c2.2,0,4,1.7,4.1,3.9v2.2l0,0C508.2,31.6,506.8,32.9,505.2,33L505.2,33z"/>
	<path class="st12" d="M505.2,32.6H503c-1.6,0-2.9-1.2-3-2.9c0-0.1,0-0.2,0-0.3l0,0v-0.2l0.2-2.2c0.1-2.2,1.9-3.8,4.1-3.8l0,0
		c2.2,0,4,1.7,4.1,3.9v2.2l0,0c0,1.7-1.3,3.1-3,3.1C505.3,32.6,505.2,32.6,505.2,32.6L505.2,32.6z"/>
	<path class="st13" d="M499.8,29.7L500,27c0.1-2.2,1.9-3.8,4.1-3.8l0,0c2.2,0,4,1.7,4.1,3.9l0.2,2.7"/>
	<path class="st10" d="M518.6,33.3h-2.2c-1.7,0-3-1.4-3-3v-0.1V30l0.2-2.2c0.1-2.2,1.9-3.8,4.1-3.8l0,0c2.2,0,4,1.7,4.1,3.9v2.2l0,0
		c0.1,1.7-1.2,3.1-2.9,3.1h-0.1L518.6,33.3z"/>
	<path class="st11" d="M518.6,33h-2.2c-1.6,0-2.9-1.2-3-2.9c0-0.1,0-0.2,0-0.3v-0.2l0.2-2.2c0.1-2.2,1.9-3.8,4.1-3.8l0,0
		c2.2,0,4,1.7,4.1,3.9v2.2l0,0C521.7,31.6,520.3,32.9,518.6,33z"/>
	<path class="st12" d="M518.6,32.6h-2.2c-1.6,0-2.9-1.2-3-2.9c0-0.1,0-0.2,0-0.3l0,0v-0.2l0.2-2.2c0.1-2.2,1.9-3.8,4.1-3.8l0,0
		c2.2,0,4,1.7,4.1,3.9v2.2l0,0c0,1.7-1.3,3.1-3,3.1C518.8,32.6,518.7,32.6,518.6,32.6L518.6,32.6z"/>
	<path class="st13" d="M513.3,29.7l0.2-2.7c0.1-2.2,1.9-3.8,4.1-3.8l0,0c2.2,0,4,1.7,4.1,3.9l0.2,2.7"/>
	<path class="st10" d="M465,32.9h-2.2c-1.7,0-3-1.4-3-3v-0.1v-0.2l0.2-2.2c0.1-2.2,1.9-3.8,4.1-3.8l0,0c2.2,0,4,1.7,4.1,3.9v2.2l0,0
		c0.1,1.7-1.2,3.1-2.9,3.1h-0.1H465V32.9z"/>
	<path class="st11" d="M465,32.6h-2.2c-1.6,0-2.9-1.2-3-2.9c0-0.1,0-0.2,0-0.3v-0.2L460,27c0.1-2.2,1.9-3.8,4.1-3.8l0,0
		c2.2,0,4,1.7,4.1,3.9v2.2l0,0C468,31.2,466.6,32.5,465,32.6L465,32.6z"/>
	<path class="st12" d="M465,32.2h-2.2c-1.6,0-2.9-1.2-3-2.9c0-0.1,0-0.2,0-0.3l0,0v-0.2l0.2-2.2c0.1-2.2,1.9-3.8,4.1-3.8l0,0
		c2.2,0,4,1.7,4.1,3.9V29l0,0c0,1.7-1.3,3.1-3,3.1C465.1,32.2,465,32.2,465,32.2L465,32.2z"/>
	<path class="st13" d="M459.6,29.3l0.2-2.7c0.1-2.2,1.9-3.8,4.1-3.8l0,0c2.2,0,4,1.7,4.1,3.9l0.2,2.7"/>
	<path class="st10" d="M474.5,48.7h-2.2c-1.7,0-3-1.4-3-3v-0.1v-0.2l0.2-2.2c0.1-2.2,1.9-3.8,4.1-3.8l0,0c2.2,0,4,1.7,4.1,3.9v2.2
		l0,0c0.1,1.7-1.2,3.1-2.9,3.1h-0.1L474.5,48.7z"/>
	<path class="st11" d="M474.5,48.4h-2.2c-1.6,0-2.9-1.2-3-2.9c0-0.1,0-0.2,0-0.3V45l0.2-2.2c0.1-2.2,1.9-3.8,4.1-3.8l0,0
		c2.2,0,4,1.7,4.1,3.9v2.2l0,0C477.5,46.9,476.2,48.3,474.5,48.4L474.5,48.4z"/>
	<path class="st12" d="M474.5,47.9h-2.2c-1.6,0-2.9-1.2-3-2.9c0-0.1,0-0.2,0-0.3l0,0v-0.2l0.2-2.2c0.1-2.2,1.9-3.8,4.1-3.8l0,0
		c2.2,0,4,1.7,4.1,3.9v2.2l0,0c0,1.7-1.3,3.1-3,3.1C474.6,47.9,474.5,47.9,474.5,47.9L474.5,47.9z"/>
	<path class="st13" d="M469.2,45.1l0.2-2.7c0.1-2.2,1.9-3.8,4.1-3.8l0,0c2.2,0,4,1.7,4.1,3.9l0.2,2.7"/>
	<path class="st10" d="M488,48.7h-2.2c-1.7,0-3-1.4-3-3v-0.1v-0.2l0.2-2.2c0.1-2.2,1.9-3.8,4.1-3.8l0,0c2.2,0,4,1.7,4.1,3.9v2.2l0,0
		c0.1,1.7-1.2,3.1-2.9,3.1h-0.1L488,48.7z"/>
	<path class="st11" d="M488,48.4h-2.2c-1.6,0-2.9-1.2-3-2.9c0-0.1,0-0.2,0-0.3V45l0.2-2.2c0.1-2.2,1.9-3.8,4.1-3.8l0,0
		c2.2,0,4,1.7,4.1,3.9v2.2l0,0C491,46.9,489.7,48.3,488,48.4L488,48.4z"/>
	<path class="st12" d="M488,47.9h-2.2c-1.6,0-3-1.2-3-2.9c0-0.1,0-0.2,0-0.3l0,0v-0.2l0.2-2.2c0.1-2.2,1.9-3.8,4.1-3.8l0,0
		c2.2,0,4,1.7,4.1,3.9v2.2l0,0c0,1.7-1.3,3.1-3,3.1C488.1,47.9,488,47.9,488,47.9L488,47.9z"/>
	<path class="st13" d="M482.6,45.1l0.2-2.7c0.1-2.2,1.9-3.8,4.1-3.8l0,0c2.2,0,4,1.7,4.1,3.9l0.2,2.7"/>
	<path class="st10" d="M501.2,48.7H499c-1.7,0-3-1.4-3-3v-0.1v-0.2l0.2-2.2c0.1-2.2,1.9-3.8,4.1-3.8l0,0c2.2,0,4,1.7,4.1,3.9v2.2
		l0,0c0.1,1.7-1.2,3.1-2.9,3.1h-0.1L501.2,48.7z"/>
	<path class="st11" d="M501.2,48.4H499c-1.6,0-2.9-1.2-3-2.9c0-0.1,0-0.2,0-0.3V45l0.2-2.2c0.1-2.2,1.9-3.8,4.1-3.8l0,0
		c2.2,0,4,1.7,4.1,3.9v2.2l0,0C504.2,46.9,502.9,48.3,501.2,48.4L501.2,48.4z"/>
	<path class="st12" d="M501.2,47.9H499c-1.6,0-2.9-1.2-3-2.9c0-0.1,0-0.2,0-0.3l0,0v-0.2l0.2-2.2c0.1-2.2,1.9-3.8,4.1-3.8l0,0
		c2.2,0,4,1.7,4.1,3.9v2.2l0,0c0,1.7-1.3,3.1-3,3.1C501.3,47.9,501.3,47.9,501.2,47.9L501.2,47.9z"/>
	<path class="st13" d="M495.9,45.1l0.2-2.7c0.1-2.2,1.9-3.8,4.1-3.8l0,0c2.2,0,4,1.7,4.1,3.9l0.2,2.7"/>
	<path class="st10" d="M514.7,48.7h-2.2c-1.7,0-3-1.4-3-3v-0.1v-0.2l0.2-2.2c0.1-2.2,1.9-3.8,4.1-3.8l0,0c2.2,0,4,1.7,4.1,3.9v2.2
		l0,0c0.1,1.7-1.2,3.1-2.9,3.1h-0.1L514.7,48.7z"/>
	<path class="st11" d="M514.7,48.4h-2.2c-1.6,0-2.9-1.2-3-2.9c0-0.1,0-0.2,0-0.3V45l0.2-2.2c0.1-2.2,1.9-3.8,4.1-3.8l0,0
		c2.2,0,4,1.7,4.1,3.9v2.2l0,0C517.7,46.9,516.4,48.3,514.7,48.4L514.7,48.4z"/>
	<path class="st12" d="M514.7,47.9h-2.2c-1.6,0-2.9-1.2-3-2.9c0-0.1,0-0.2,0-0.3l0,0v-0.2l0.2-2.2c0.1-2.2,1.9-3.8,4.1-3.8l0,0
		c2.2,0,4,1.7,4.1,3.9v2.2l0,0c0,1.7-1.3,3.1-3,3.1C514.8,47.9,514.8,47.9,514.7,47.9L514.7,47.9z"/>
	<path class="st13" d="M509.4,45.1l0.2-2.7c0.1-2.2,1.9-3.8,4.1-3.8l0,0c2.2,0,4,1.7,4.1,3.9l0.2,2.7"/>
	<path class="st10" d="M461,48.3h-2.2c-1.7,0-3-1.4-3-3v-0.1V45l0.2-2.2c0.1-2.2,1.9-3.8,4.1-3.8l0,0c2.2,0,4,1.7,4.1,3.9v2.2l0,0
		c0.1,1.7-1.2,3.1-2.9,3.1h-0.1L461,48.3z"/>
	<path class="st11" d="M461,48h-2.2c-1.6,0-2.9-1.2-3-2.9c0-0.1,0-0.2,0-0.3v-0.2l0.2-2.2c0.1-2.2,1.9-3.8,4.1-3.8l0,0
		c2.2,0,4,1.7,4.1,3.9v2.2l0,0C464,46.6,462.7,47.9,461,48L461,48z"/>
	<path class="st12" d="M461,47.5h-2.2c-1.6,0-2.9-1.2-3-2.9c0-0.1,0-0.2,0-0.3l0,0v-0.2l0.2-2.2c0.1-2.2,1.9-3.8,4.1-3.8l0,0
		c2.2,0,4,1.7,4.1,3.9v2.2l0,0c0,1.7-1.3,3.1-3,3.1C461.1,47.5,461.1,47.5,461,47.5L461,47.5z"/>
	<path class="st13" d="M455.7,44.7l0.2-2.7c0.1-2.2,1.9-3.8,4.1-3.8l0,0c2.2,0,4,1.7,4.1,3.9l0.2,2.7"/>
	<path class="st10" d="M499.8,78h2.2c1.7,0,3,1.4,3,3v0.1v0.2l-0.2,2.2c-0.1,2.2-1.9,3.8-4.1,3.8l0,0c-2.2,0-4-1.7-4.1-3.9v-2.2l0,0
		c-0.1-1.7,1.2-3.1,2.9-3.1h0.1L499.8,78z"/>
	<path class="st11" d="M499.8,78.4h2.2c1.6,0,2.9,1.2,3,2.9c0,0.1,0,0.2,0,0.3v0.2l-0.2,2.2c-0.1,2.2-1.9,3.8-4.1,3.8l0,0
		c-2.2,0-4-1.7-4.1-3.9v-2.2l0,0C496.8,79.8,498.1,78.5,499.8,78.4L499.8,78.4z"/>
	<path class="st12" d="M499.8,78.8h2.2c1.6,0,2.9,1.2,3,2.9c0,0.1,0,0.2,0,0.3l0,0v0.2l-0.2,2.2c-0.1,2.2-1.9,3.8-4.1,3.8l0,0
		c-2.2,0-4-1.7-4.1-3.9V82l0,0c0-1.7,1.3-3.1,3-3.1C499.7,78.8,499.8,78.8,499.8,78.8L499.8,78.8z"/>
	<path class="st13" d="M505.1,81.6l-0.2,2.7c-0.1,2.2-1.9,3.8-4.1,3.8l0,0c-2.2,0-4-1.7-4.1-3.9l-0.2-2.7"/>
	<path class="st10" d="M486.3,78h2.2c1.7,0,3,1.4,3,3v0.1v0.2l-0.2,2.2c-0.1,2.2-1.9,3.8-4.1,3.8l0,0c-2.2,0-4-1.7-4.1-3.9v-2.2l0,0
		c-0.1-1.7,1.2-3.1,2.9-3.1h0.1L486.3,78z"/>
	<path class="st11" d="M486.3,78.4h2.2c1.6,0,2.9,1.2,3,2.9c0,0.1,0,0.2,0,0.3v0.2l-0.2,2.2c-0.1,2.2-1.9,3.8-4.1,3.8l0,0
		c-2.2,0-4-1.7-4.1-3.9v-2.2l0,0C483.3,79.8,484.7,78.5,486.3,78.4L486.3,78.4z"/>
	<path class="st12" d="M486.3,78.8h2.2c1.6,0,2.9,1.2,3,2.9c0,0.1,0,0.2,0,0.3l0,0v0.2l-0.2,2.2c-0.1,2.2-1.9,3.8-4.1,3.8l0,0
		c-2.2,0-4-1.7-4.1-3.9V82l0,0c0-1.7,1.3-3.1,3-3.1C486.2,78.8,486.3,78.8,486.3,78.8L486.3,78.8z"/>
	<path class="st13" d="M491.7,81.6l-0.2,2.7c-0.1,2.2-1.9,3.8-4.1,3.8l0,0c-2.2,0-4-1.7-4.1-3.9l-0.2-2.7"/>
	<path class="st10" d="M473.1,78h2.2c1.7,0,3,1.4,3,3v0.1v0.2l-0.2,2.2c-0.1,2.2-1.9,3.8-4.1,3.8l0,0c-2.2,0-4-1.7-4.1-3.9v-2.2l0,0
		c-0.1-1.7,1.2-3.1,2.9-3.1h0.1L473.1,78z"/>
	<path class="st11" d="M473.1,78.4h2.2c1.6,0,2.9,1.2,3,2.9c0,0.1,0,0.2,0,0.3v0.2l-0.2,2.2c-0.1,2.2-1.9,3.8-4.1,3.8l0,0
		c-2.2,0-4-1.7-4.1-3.9v-2.2l0,0C470.1,79.8,471.4,78.5,473.1,78.4L473.1,78.4z"/>
	<path class="st12" d="M473.1,78.8h2.2c1.6,0,2.9,1.2,3,2.9c0,0.1,0,0.2,0,0.3l0,0v0.2l-0.2,2.2c-0.1,2.2-1.9,3.8-4.1,3.8l0,0
		c-2.2,0-4-1.7-4.1-3.9V82l0,0c0-1.7,1.3-3.1,3-3.1C473,78.8,473,78.8,473.1,78.8L473.1,78.8z"/>
	<path class="st13" d="M478.4,81.6l-0.2,2.7c-0.1,2.2-1.9,3.8-4.1,3.8l0,0c-2.2,0-4-1.7-4.1-3.9l-0.2-2.7"/>
	<path class="st10" d="M459.6,78h2.2c1.7,0,3,1.4,3,3v0.1v0.2l-0.2,2.2c-0.1,2.2-1.9,3.8-4.1,3.8l0,0c-2.2,0-4-1.7-4.1-3.9v-2.2l0,0
		c-0.1-1.7,1.2-3.1,2.9-3.1h0.1L459.6,78z"/>
	<path class="st11" d="M459.6,78.4h2.2c1.6,0,2.9,1.2,3,2.9c0,0.1,0,0.2,0,0.3v0.2l-0.2,2.2c-0.1,2.2-1.9,3.8-4.1,3.8l0,0
		c-2.2,0-4-1.7-4.1-3.9v-2.2l0,0C456.6,79.8,457.9,78.5,459.6,78.4L459.6,78.4z"/>
	<path class="st12" d="M459.6,78.8h2.2c1.6,0,2.9,1.2,3,2.9c0,0.1,0,0.2,0,0.3l0,0v0.2l-0.2,2.2c-0.1,2.2-1.9,3.8-4.1,3.8l0,0
		c-2.2,0-4-1.7-4.1-3.9V82l0,0c0-1.7,1.3-3.1,3-3.1C459.5,78.8,459.6,78.8,459.6,78.8L459.6,78.8z"/>
	<path class="st13" d="M464.9,81.6l-0.2,2.7c-0.1,2.2-1.9,3.8-4.1,3.8l0,0c-2.2,0-4-1.7-4.1-3.9l-0.2-2.7"/>
	<path class="st10" d="M513.3,78.4h2.2c1.7,0,3,1.4,3,3v0.1v0.2l-0.2,2.2c-0.1,2.2-1.9,3.8-4.1,3.8l0,0c-2.2,0-4-1.7-4.1-3.9v-2.2
		l0,0c-0.1-1.7,1.2-3.1,2.9-3.1h0.1L513.3,78.4L513.3,78.4z"/>
	<path class="st11" d="M513.3,78.7h2.2c1.6,0,2.9,1.2,3,2.9c0,0.1,0,0.2,0,0.3V82l-0.2,2.2c-0.1,2.2-1.9,3.8-4.1,3.8l0,0
		c-2.2,0-4-1.7-4.1-3.9v-2.2l0,0C510.3,80.2,511.6,78.9,513.3,78.7L513.3,78.7z"/>
	<path class="st12" d="M513.3,79.2h2.2c1.6,0,2.9,1.2,3,2.9c0,0.1,0,0.2,0,0.3l0,0v0.2l-0.2,2.2c-0.1,2.2-1.9,3.8-4.1,3.8l0,0
		c-2.2,0-4-1.7-4.1-3.9v-2.2l0,0c0-1.7,1.3-3.1,3-3.1C513.2,79.2,513.2,79.2,513.3,79.2L513.3,79.2z"/>
	<path class="st13" d="M518.6,82l-0.2,2.7c-0.1,2.2-1.9,3.8-4.1,3.8l0,0c-2.2,0-4-1.7-4.1-3.9l-0.2-2.7"/>
	<path class="st10" d="M524.4,64.3v-2.2l0,0c0-1.7,1.4-3,3-3h0.1h0.2l2.2,0.2c2.2,0.1,3.8,1.9,3.8,4.1l0,0c0,2.2-1.7,4-3.9,4.1h-2.2
		c-1.7,0.1-3.1-1.2-3.1-2.9v-0.1C524.4,64.4,524.4,64.3,524.4,64.3z"/>
	<path class="st11" d="M524.7,64.3v-2.2c0-1.6,1.2-2.9,2.9-3c0.1,0,0.2,0,0.3,0h0.2l2.2,0.2c2.2,0.1,3.8,1.9,3.8,4.1l0,0
		c0,2.2-1.7,4-3.9,4.1H528C526.2,67.3,524.8,66,524.7,64.3L524.7,64.3z"/>
	<path class="st12" d="M525.2,64.3v-2.2l0,0c0-1.6,1.2-2.9,2.9-3c0.1,0,0.2,0,0.3,0h0.2l2.2,0.2c2.2,0.1,3.8,1.9,3.8,4.1l0,0
		c0,2.2-1.7,4-3.9,4.1h-2.2c-1.7,0-3.1-1.3-3.1-3C525.2,64.4,525.2,64.3,525.2,64.3L525.2,64.3z"/>
	<path class="st13" d="M528,58.9l2.7,0.2c2.2,0.1,3.8,1.9,3.8,4.1l0,0c0,2.2-1.7,4-3.9,4.1l-2.7,0.2"/>
	<path class="st10" d="M447.6,62.1v2.2l0,0c0,1.7-1.4,3-3,3h-0.1h-0.2l-2.2-0.2c-2.2-0.1-3.8-1.9-3.8-4.1l0,0c0-2.2,1.7-4,3.9-4.1
		h2.2c1.7-0.1,3.1,1.2,3.1,2.9v0.1L447.6,62.1L447.6,62.1z"/>
	<path class="st11" d="M447.3,62.1v2.2c0,1.6-1.2,2.9-2.9,3c-0.1,0-0.2,0-0.3,0H444l-2.2-0.2c-2.2-0.1-3.8-1.9-3.8-4.1l0,0
		c0-2.2,1.7-4,3.9-4.1h2.2C445.8,59.1,447.2,60.4,447.3,62.1z"/>
	<path class="st12" d="M446.8,62.1v2.2l0,0c0,1.6-1.2,2.9-2.9,3c-0.1,0-0.2,0-0.3,0h-0.2l-2.2-0.2c-2.2-0.1-3.8-1.9-3.8-4.1l0,0
		c0-2.2,1.7-4,3.9-4.1h2.2c1.7,0,3.1,1.3,3.1,3C446.8,62,446.8,62,446.8,62.1z"/>
	<path class="st13" d="M444,67.4l-2.7-0.2c-2.2-0.1-3.8-1.9-3.8-4.1l0,0c0-2.2,1.7-4,3.9-4.1l2.7-0.2"/>
	<polygon class="st7" points="523.5,48.7 523.5,78.4 448.9,73.7 448.9,52.7 	"/>
	<polygon class="st8" points="524.2,48.7 524.2,78.4 449.7,73.7 449.7,52.7 	"/>
	<polygon class="st9" points="525,48.8 525,78.4 450.5,73.8 450.5,52.7 	"/>
	<path class="st10" d="M212.8,385.1l1.9,1.5l0,0c1.4,1.1,1.7,3.2,0.5,4.7c0,0,0,0.1-0.1,0.1l-0.1,0.1l-1.6,1.8
		c-1.6,1.8-4.3,2-6.1,0.5l0,0c-1.9-1.5-2.3-4.2-0.9-6.2l1.5-1.9l0,0c1.1-1.5,3.1-1.8,4.6-0.8c0,0,0.1,0,0.1,0.1
		C212.5,385.1,212.5,385.1,212.8,385.1L212.8,385.1z"/>
	<path class="st11" d="M212.6,385.6l1.9,1.5c1.4,1.1,1.7,3.1,0.7,4.5c-0.1,0.1-0.1,0.2-0.2,0.2l-0.1,0.1l-1.6,1.8
		c-1.6,1.8-4.3,2-6.1,0.5l0,0c-1.9-1.5-2.3-4.2-0.9-6.2l1.5-1.9l0,0c1-1.5,3-1.9,4.5-0.9C212.4,385.4,212.5,385.5,212.6,385.6
		L212.6,385.6z"/>
	<path class="st12" d="M212.2,385.8l1.9,1.5l0,0c1.4,1.1,1.7,3.1,0.7,4.5c-0.1,0.1-0.1,0.2-0.2,0.2l0,0l-0.1,0.1l-1.6,1.8
		c-1.6,1.8-4.3,2-6.1,0.5l0,0c-1.9-1.5-2.3-4.2-0.9-6.2l1.5-1.9l0,0C208.6,384.9,210.7,384.7,212.2,385.8L212.2,385.8z"/>
	<path class="st13" d="M215,391.8l-1.9,2.2c-1.6,1.8-4.3,2-6.1,0.5l0,0c-1.9-1.5-2.3-4.2-0.9-6.2l1.7-2.4"/>
	<path class="st10" d="M218.5,359.1h-2.4c-1.8,0-3.3-1.5-3.3-3.4v-0.1v-0.2l0.2-2.4c0.1-2.4,2.1-4.2,4.5-4.1l0,0
		c2.4,0,4.4,1.9,4.5,4.3v2.4l0,0c0.1,1.8-1.4,3.4-3.2,3.5h-0.1L218.5,359.1L218.5,359.1z"/>
	<path class="st11" d="M218.5,358.7h-2.4c-1.8,0-3.3-1.4-3.3-3.1c0-0.1,0-0.2,0-0.3v-0.2l0.2-2.4c0.1-2.4,2.1-4.2,4.5-4.1l0,0
		c2.4,0,4.4,1.9,4.5,4.3v2.4l0,0C222,357.2,220.4,358.7,218.5,358.7L218.5,358.7z"/>
	<path class="st12" d="M218.5,358.4h-2.4c-1.8,0-3.3-1.4-3.3-3.1c0-0.1,0-0.2,0-0.3l0,0v-0.2l0.2-2.4c0.1-2.4,2.1-4.2,4.5-4.1l0,0
		c2.4,0,4.4,1.9,4.5,4.3v2.4l0,0C222.2,356.7,220.6,358.2,218.5,358.4L218.5,358.4z"/>
	<path class="st13" d="M212.6,355.1l0.2-2.9c0.1-2.4,2.1-4.2,4.5-4.1l0,0c2.4,0,4.4,1.9,4.5,4.3l0.2,2.9"/>
	<path class="st10" d="M234.8,372l-1.2-2.1l0,0c-0.9-1.6-0.2-3.6,1.4-4.5h0.1l0.2-0.1l2.2-1c2.1-1,4.7-0.1,5.8,2l0,0
		c1.1,2.1,0.4,4.8-1.7,6l-2.1,1.2l0,0c-1.6,0.9-3.6,0.4-4.6-1.2v-0.1L234.8,372z"/>
	<path class="st11" d="M235.1,371.8l-1.2-2.1c-0.9-1.5-0.3-3.5,1.2-4.4c0.1-0.1,0.2-0.1,0.3-0.1l0.2-0.1l2.2-1c2.1-1,4.7-0.1,5.8,2
		l0,0c1.1,2.1,0.4,4.8-1.7,6l-2.1,1.2l0,0C238.1,374.1,236,373.5,235.1,371.8L235.1,371.8z"/>
	<path class="st12" d="M235.4,371.7l-1.2-2.1l0,0c-0.9-1.5-0.3-3.5,1.2-4.4c0.1-0.1,0.2-0.1,0.3-0.1l0,0l0.2-0.1l2.2-1
		c2.1-1,4.7-0.1,5.8,2l0,0c1.1,2.1,0.4,4.8-1.7,6l-2.1,1.2l0,0C238.7,374,236.6,373.4,235.4,371.7L235.4,371.7z"/>
	<path class="st13" d="M235.6,365.1l2.7-1.2c2.1-1,4.7-0.1,5.8,2l0,0c1.1,2.1,0.4,4.8-1.7,6l-2.5,1.6"/>
	<path class="st10" d="M228.7,384.5l1.2-2.1l0,0c0.9-1.6,2.9-2.2,4.5-1.2h0.1l0.2,0.1l2,1.3c2,1.3,2.7,3.9,1.4,5.9l0,0
		c-1.2,2.1-3.8,2.9-6,1.8l-2.1-1.2l0,0c-1.6-0.8-2.3-2.8-1.5-4.5v-0.1L228.7,384.5L228.7,384.5z"/>
	<path class="st11" d="M229.2,384.6l1.2-2.1c0.8-1.6,2.8-2.2,4.4-1.4c0.1,0,0.2,0.1,0.3,0.2l0.2,0.1l2,1.3c2,1.3,2.7,3.9,1.4,5.9
		l0,0c-1.2,2.1-3.8,2.9-6,1.8l-2.1-1.2l0,0C229,388.3,228.3,386.3,229.2,384.6C229.1,384.7,229.2,384.6,229.2,384.6L229.2,384.6z"/>
	<path class="st12" d="M229.4,384.9l1.2-2.1l0,0c0.8-1.6,2.8-2.2,4.4-1.4c0.1,0,0.2,0.1,0.3,0.2l0,0l0.2,0.1l2,1.3
		c2,1.3,2.7,3.9,1.4,5.9l0,0c-1.2,2.1-3.8,2.9-6,1.8l-2.1-1.2l0,0C229.1,388.6,228.6,386.6,229.4,384.9L229.4,384.9z"/>
	<path class="st13" d="M235,381.3l2.5,1.6c2,1.3,2.7,3.9,1.4,5.9l0,0c-1.2,2.1-3.8,2.9-6,1.8l-2.7-1.3"/>
	<circle class="st7" cx="220.1" cy="372.6" r="12.8"/>
	<circle class="st8" cx="219.5" cy="372.6" r="12.8"/>
	<circle class="st9" cx="218.8" cy="372.6" r="12.8"/>
	<path class="st10" d="M205.1,370l-1.2,2.1l0,0c-0.9,1.6-2.9,2.2-4.5,1.2h-0.1l-0.2-0.1l-2-1.3c-2-1.3-2.7-3.9-1.4-5.9l0,0
		c1.2-2.1,3.8-2.9,6-1.8l2.1,1.2l0,0c1.6,0.8,2.3,2.8,1.5,4.5v0.1L205.1,370L205.1,370z"/>
	<path class="st11" d="M204.6,369.9l-1.2,2.1c-0.8,1.6-2.8,2.2-4.4,1.3c-0.1,0-0.2-0.1-0.3-0.2l-0.2-0.1l-2-1.3
		c-2-1.3-2.7-3.9-1.4-5.9l0,0c1.2-2.1,3.8-2.9,6-1.8l2.1,1.2l0,0c1.6,0.9,2.3,2.9,1.4,4.5C204.7,369.8,204.6,369.9,204.6,369.9
		L204.6,369.9z"/>
	<path class="st12" d="M204.4,369.6l-1.2,2.1l0,0c-0.8,1.6-2.8,2.2-4.4,1.4c-0.1,0-0.2-0.1-0.3-0.2l0,0l-0.2-0.1l-2-1.3
		c-2-1.3-2.7-3.9-1.4-5.9l0,0c1.2-2.1,3.8-2.9,6-1.8l2.1,1.2l0,0C204.6,365.9,205.2,367.9,204.4,369.6L204.4,369.6z"/>
	<path class="st13" d="M198.8,373.2l-2.5-1.6c-2-1.3-2.7-3.9-1.4-5.9l0,0c1.2-2.1,3.8-2.9,6-1.8l2.7,1.3"/>
</g>
<g id="bookable_spaces">
	<rect id="area-1.06-status" x="420.9" y="118.3" class="st36" width="103.9" height="67.7"/>
	<rect id="area-1.05-status" x="421.2" y="6.3" class="st36" width="147.5" height="111.7"/>
	<polygon id="area-1.110-status" class="st36" points="257.9,275.7 257.9,336.9 251.5,336.9 251.5,348.1 321.1,348.1 321.1,276.2 	
		"/>
	<rect id="area-1.109-status" x="320.9" y="276.2" class="st36" width="68.7" height="108"/>
	<rect id="area-1.115-status" x="127.3" y="558.4" class="st36" width="42.1" height="61.1"/>
	<rect id="area-1.114-status" x="169.5" y="558.4" class="st36" width="48.7" height="62.2"/>
	<text transform="matrix(1 0 0 1 341.5851 322.9969)" class="st9 st37 st38">WCH-109-C</text>
	<text transform="matrix(1 0 0 1 340.8851 328.9969)" class="st9 st37 st38">Team Room</text>
	<text transform="matrix(1 0 0 1 276.2999 313.1501)" class="st9 st37 st38">WCH-110-C</text>
	<text transform="matrix(1 0 0 1 276.2999 319.1501)" class="st9 st37 st38">Park Street</text>
	<text transform="matrix(1 0 0 1 180.2378 587.4863)" class="st9 st37 st38">WCH-114-C</text>
	<text transform="matrix(1 0 0 1 182.6378 593.4863)" class="st9 st37 st38">Riverside</text>
	<text transform="matrix(1 0 0 1 134.7377 587.4866)" class="st9 st37 st38">WCH-115-C</text>
	<text transform="matrix(1 0 0 1 133.6377 593.4866)" class="st9 st37 st38">Heath Street</text>
	<text transform="matrix(1 0 0 1 461.9381 152.15)" class="st9 st37 st38">Downtown</text>
	<text transform="matrix(1 0 0 1 463.7381 158.15)" class="st9 st37 st38">Crossing</text>
	<text transform="matrix(1 0 0 1 470.2451 59.0997)" class="st9 st37 st38">Copley Square</text>
</g>
<g id="outline">
	<polyline class="st39" points="217.3,453.1 217.3,620.6 22.5,620.6 22.5,140.8 154,140.8 154,5.7 568.7,5.7 568.7,82.5 612.6,82.5 
		612.6,39.2 618.1,39.2 	"/>
	<polyline class="st39" points="210.7,620.6 642.2,620.6 642.2,39.3 637,39.3 	"/>
	<line class="st39" x1="568.7" y1="82.5" x2="568.7" y2="240.5"/>
	<polyline class="st39" points="568.7,259.1 568.7,430.6 550.1,430.6 	"/>
	<polyline class="st39" points="530.7,430.6 217.3,430.6 217.3,434.5 	"/>
	<line class="st40" x1="568.7" y1="118" x2="550.1" y2="118"/>
	<line class="st40" x1="420.8" y1="5.7" x2="420.8" y2="97.7"/>
	<polyline class="st40" points="420.8,164.2 420.8,111.3 420.8,118 524.4,118 524.4,164.2 	"/>
	<polyline class="st40" points="524.4,181.5 524.4,186 420.8,186 420.8,181.5 420.8,259.1 	"/>
	<line class="st40" x1="524.4" y1="186" x2="524.4" y2="217.5"/>
	<polyline class="st40" points="420.8,275.7 420.8,296.3 436.9,296.3 	"/>
	<line class="st40" x1="407.3" y1="430.6" x2="407.3" y2="411.6"/>
	<polyline class="st40" points="407.3,396.2 407.3,384.2 321.3,384.2 321.3,275.7 321.3,430.6 	"/>
	<polyline class="st40" points="321.3,275.7 276.3,275.7 370.5,275.7 	"/>
	<line class="st40" x1="261.6" y1="275.7" x2="254.1" y2="275.7"/>
	<polyline class="st40" points="257.9,276.2 257.9,336.9 210.7,336.9 210.7,276.2 238,276.2 	"/>
	<line class="st40" x1="251.5" y1="336.9" x2="251.5" y2="404.1"/>
	<line class="st40" x1="251.5" y1="418.9" x2="251.5" y2="430.6"/>
	<line class="st40" x1="251.5" y1="348.1" x2="321.3" y2="348.1"/>
	<polyline class="st40" points="389.6,384.2 389.6,275.7 393.4,275.7 386.1,275.7 	"/>
	<polyline class="st40" points="360.7,247.5 389.7,247.5 389.7,164.2 	"/>
	<polyline class="st40" points="389.7,149.6 389.7,144.3 276.3,144.3 	"/>
	<polyline class="st40" points="342.3,144.3 342.3,247.5 346.1,247.5 337.4,247.5 	"/>
	<polyline class="st40" points="389.7,189.4 209.1,189.4 209.1,164.2 209.1,228.4 	"/>
	<polyline class="st40" points="323.4,247.5 209.7,247.5 209.7,243.6 	"/>
	<polyline class="st40" points="257.9,189.4 257.9,144.3 261.6,144.3 209.1,144.3 209.1,148.2 	"/>
	<line class="st40" x1="22.5" y1="558.4" x2="36.8" y2="558.4"/>
	<line class="st40" x1="52.6" y1="558.4" x2="107.5" y2="558.4"/>
	<line class="st40" x1="85.8" y1="558.4" x2="85.8" y2="620.6"/>
	<line class="st40" x1="123.8" y1="558.4" x2="131.7" y2="558.4"/>
	<line class="st40" x1="127.3" y1="558.4" x2="127.3" y2="620.6"/>
	<polyline class="st40" points="146.9,558.4 169.5,558.4 169.5,547.1 169.5,619.5 	"/>
	<line class="st40" x1="169.5" y1="558.4" x2="191.1" y2="558.4"/>
	<line class="st40" x1="205.8" y1="558.4" x2="217.3" y2="558.4"/>
	<line class="st40" x1="289.5" y1="247.5" x2="289.5" y2="189.4"/>
</g>
<g id="icons_and_text">
	<text transform="matrix(1 0 0 1 613.148 463.598)" class="st4 st5 st6">Loby</text>
	<circle class="st41" cx="590.6" cy="340.7" r="13.1"/>
	<text transform="matrix(1 0 0 1 583.731 361.343)" class="st4 st5 st6">Stairs</text>
	<g id="Outline_Icons-2-2">
		<line class="st42" x1="584.8" y1="345.8" x2="595" y2="345.8"/>
		<polyline class="st42" points="593.2,345.8 593.2,344 591.4,344 591.4,342.3 589.7,342.3 589.7,340.5 587.9,340.5 587.9,338.7 
			584.8,338.7 		"/>
		<line class="st42" x1="590.1" y1="335.6" x2="595.7" y2="341.2"/>
		<polyline class="st42" points="590.1,337.8 590.1,335.6 592.3,335.6 		"/>
		<polyline class="st42" points="595.7,339 595.7,341.2 593.5,341.2 		"/>
	</g>
	<g id="reception">
		<circle class="st41" cx="510.2" cy="240.6" r="13.3"/>
		<text transform="matrix(1 0 0 1 496.935 260.656)" class="st4 st5 st6">Reception</text>
		<g id="Outline_Icons-2">
			<circle class="st43" cx="507.3" cy="236.5" r="1.8"/>
			<path class="st43" d="M510.1,239.3h-5.6c-0.2,1.5,0.5,3,1.8,3.8v3.3h2v-3.3C509.5,242.3,510.2,240.8,510.1,239.3z"/>
			<line class="st43" x1="509.7" y1="241.4" x2="515.9" y2="241.4"/>
			<circle class="st43" cx="513.1" cy="236.8" r="1.3"/>
			<path class="st43" d="M510.8,241.4c0-1.3,1-2.3,2.3-2.3s2.3,1,2.3,2.3l0,0l0,0"/>
		</g>
	</g>
	<g id="Work_cafe">
		<circle class="st41" cx="548.2" cy="371.8" r="12.9"/>
		<text transform="matrix(1 0 0 1 533.964 392.106)" class="st4 st5 st44">Co</text>
		<text transform="matrix(1 0 0 1 541.571 392.106)" class="st4 st5 st44">f</text>
		<text transform="matrix(1 0 0 1 543.117 392.106)" class="st4 st5 st44">fee Bar</text>
	</g>
	<g id="Outline_Icons-12">
		<path class="st45" d="M550.6,374h1.1c0.8-0.2,1.4-0.9,1.3-1.8c-0.1-0.7-0.6-1.2-1.3-1.3h-1.1"/>
		<line class="st45" x1="543.3" y1="376.6" x2="553.3" y2="376.6"/>
		<path class="st45" d="M547.5,369.3c0,0,1.5-1.1,1.5-1.9c0-0.9-1.2-1.2-1.5-0.1c-0.3-1.1-1.5-0.8-1.5,0.1
			C545.9,368.2,547.5,369.3,547.5,369.3z"/>
		<path class="st45" d="M550.7,373.3c0,1.8-1.4,3.3-3.2,3.3l0,0c-1.7,0.1-3.2-1.3-3.3-3v-0.1l0,0v-3h6.5V373.3z"/>
	</g>
	<rect x="570.1" y="260.9" class="st40" width="39.9" height="169.7"/>
	<text transform="matrix(1 0 0 1 613.146 175.237)" class="st4 st5 st6">Loby</text>
	<text transform="matrix(1 0 0 1 426.171 539.237)" class="st4 st5 st6">Hall</text>
	<text transform="matrix(1 0 0 1 357.978 166.382)" class="st4 st5 st6">Focus</text>
	<text transform="matrix(1 0 0 1 358.146 173.608)" class="st4 st5 st6">Room</text>
	<text transform="matrix(1 0 0 1 357.162 220.05)" class="st4 st5 st6">O</text>
	<text transform="matrix(1 0 0 1 361.845 220.05)" class="st4 st5 st6">f</text>
	<text transform="matrix(1 0 0 1 363.41 220.05)" class="st4 st5 st6">fice</text>
	<text transform="matrix(1 0 0 1 306.068 218.756)" class="st4 st5 st6">O</text>
	<text transform="matrix(1 0 0 1 310.751 218.756)" class="st4 st5 st6">f</text>
	<text transform="matrix(1 0 0 1 312.316 218.756)" class="st4 st5 st6">fice</text>
	<text transform="matrix(1 0 0 1 236.172 220.05)" class="st4 st5 st6">O</text>
	<text transform="matrix(1 0 0 1 240.855 220.05)" class="st4 st5 st6">f</text>
	<text transform="matrix(1 0 0 1 242.42 220.05)" class="st4 st5 st6">fice</text>
	<text transform="matrix(1 0 0 1 226.613 310.551)" class="st4 st5 st6">O</text>
	<text transform="matrix(1 0 0 1 231.296 310.551)" class="st4 st5 st6">f</text>
	<text transform="matrix(1 0 0 1 232.861 310.551)" class="st4 st5 st6">fice</text>
	<text transform="matrix(1 0 0 1 349.806 405.406)" class="st4 st5 st6">Server</text>
	<text transform="matrix(1 0 0 1 350.642 412.632)" class="st4 st5 st6">Room</text>
	<circle class="st41" cx="286" cy="381" r="13"/>
	<text transform="matrix(1 0 0 1 277.068 399.891)" class="st4 st5 st46">Unisex</text>
	<text transform="matrix(1 0 0 1 279.282 407.229)" class="st4 st5 st46">T</text>
	<text transform="matrix(1 0 0 1 282.351 407.229)" class="st4 st5 st46">oilet</text>
	<g id="Outline_Icons-5-2">
		<path class="st47" d="M290.5,381.3c0,0.2-0.1,0.4-0.3,0.4h-0.1h-2.5v-5.4c0-0.5,0.4-1,1-1l0,0h1c0.5,0,1,0.4,1,1l0,0l0,0
			L290.5,381.3L290.5,381.3z"/>
		<path class="st47" d="M283.8,386.7h4.9v-2.9l1.4-1v-1h-8.4c-0.2,1.2,0.7,2.3,1.9,2.4c0.1,0,0.1,0,0.2,0h0.1L283.8,386.7z"/>
		<rect x="281.2" y="380.9" class="st47" width="6.4" height="1"/>
		<circle class="st47" cx="289.4" cy="377.1" r="0.4"/>
	</g>
	<text transform="matrix(1 0 0 1 282.385 183.058)" class="st4 st5 st48">Print Point</text>
	<circle class="st41" cx="295.5" cy="163.3" r="13.6"/>
	<g id="Outline_Icons-13">
		<g id="Outline_Icons-14">
			<path class="st49" d="M292.4,166H291c-0.5,0-0.9-0.4-0.9-0.9v-3c0-0.5,0.4-0.9,0.9-0.9h9.2c0.5,0,0.9,0.4,0.9,0.9v3
				c0,0.5-0.4,0.9-0.9,0.9h-1.4"/>
			<polyline class="st49" points="292.4,160.2 292.4,158.1 297.2,158.1 298.7,159.7 298.7,160.2 			"/>
			<rect x="292.4" y="164.4" class="st49" width="6.3" height="3.9"/>
			<circle class="st49" cx="291.5" cy="162.5" r="0.5"/>
			<line class="st49" x1="293.3" y1="165.5" x2="297.7" y2="165.5"/>
			<line class="st49" x1="293.3" y1="166.4" x2="297.7" y2="166.4"/>
			<line class="st49" x1="293.3" y1="167.4" x2="297.7" y2="167.4"/>
			<polyline class="st49" points="297.2,158.1 297.2,159.7 298.7,159.7 			"/>
		</g>
	</g>
	<text transform="matrix(1 0 0 1 226.5292 164.245)" class="st4 st5 st6">Focus</text>
	<text transform="matrix(1 0 0 1 226.6972 171.4709)" class="st4 st5 st6">Room</text>
</g>
</svg>
