<?xml version="1.0" encoding="utf-8"?>
<!-- Generator: Adobe Illustrator 24.2.3, SVG Export Plug-In . SVG Version: 6.00 Build 0)  -->
<svg version="1.1" id="Layer_1" xmlns="http://www.w3.org/2000/svg" xmlns:xlink="http://www.w3.org/1999/xlink" x="0px" y="0px"
	 viewBox="0 0 2755 2395.5" style="enable-background:new 0 0 2755 2395.5;" xml:space="preserve">
<style type="text/css">
	.st0{fill:#4196B1;}
	.st1{fill:#AAE0E4;}
	.st2{fill:#8ECCCE;}
	.st3{opacity:0.1;fill:#030303;enable-background:new    ;}
	.st4{fill:#596068;}
	.st5{fill:#9BAEB7;}
	.st6{fill:#7A8E93;}
	.st7{opacity:5.000000e-02;fill:#030303;enable-background:new    ;}
	.st8{fill:#B8BFC1;}
	.st9{fill:#FFFFFF;}
	.st10{fill:#F9F9FA;}
	.st11{opacity:0.15;fill:#010101;enable-background:new    ;}
	.st12{fill:none;stroke:#7A8E93;stroke-width:8;stroke-linecap:round;stroke-miterlimit:10;}
	.st13{opacity:0.15;fill:#020202;enable-background:new    ;}
	.st14{fill:#596069;}
	.st15{fill:#9BAEB8;}
	.st16{fill:none;stroke:#7A8F94;stroke-width:2;stroke-linecap:round;stroke-miterlimit:10;}
	.st17{opacity:0.65;fill:#575757;enable-background:new    ;}
	.st18{enable-background:new    ;}
	.st19{fill:none;stroke:#EBF2F2;stroke-width:12;stroke-miterlimit:10;}
	.st20{fill:none;stroke:#EBF2F2;stroke-width:5;stroke-miterlimit:10;}
	.st21{fill:#EBF2F2;}
	.st22{fill:#646B6D;}
	.st23{fill:none;stroke:#7A8E93;stroke-width:2;stroke-miterlimit:10;}
	.st24{fill:#757D7F;}
</style>
<g id="background">
	<polygon class="st0" points="22.6,1017 585.7,1638.8 596.4,2395.5 1829.6,1868.5 1620.8,1439.7 2709.7,933.8 2333.5,259.3 
		2374.3,243.3 2257.4,38.5 	"/>
</g>
<g id="spaces">
	<polygon class="st1" points="54.5,988.4 609.4,1601.1 619.9,2346.7 1835.1,1827.5 1629.3,1404.9 2702.4,906.3 2331.7,241.8 
		2371.8,225.9 2256.7,24.2 	"/>
	<path class="st2" d="M54.5,988.4l1446.8-633.5L1779,915c0,0-178.9,360.5-616.7,270.5l-140.2,65.6l80.4,153.8L874,1511.3l90.9,171.8
		l308.7-148.6l8.7,19.1l346.9-148.7l205.8,422.6L619.9,2346.8l-10.5-745.7L54.5,988.4z"/>
</g>
<g id="furniature">
	<path class="st3" d="M2440.8,841.6l1-49.6c0.3-10.1,8.4-18.1,18.5-18.5l41.8,1c16.6,0.6,29.7,14.5,29.2,31.1l0,0l-1,26.3
		c-0.6,16.6-14.5,29.7-31.1,29.2l-41.8-1c-8.7,0.4-16.1-6.3-16.5-15.1c0-0.5,0-1,0-1.5l0,0L2440.8,841.6z"/>
	<path class="st4" d="M2438.8,843.6l1-49.6c0.3-10.1,8.4-18.1,18.5-18.5l42.8,1.9c16.6,0.6,29.7,14.5,29.2,31.1l0,0l-1,26.3
		c-0.6,16.6-14.5,29.7-31.1,29.2l0,0l-41.8-1C2446.3,862.2,2438.6,853.7,2438.8,843.6L2438.8,843.6z"/>
	<path class="st5" d="M2437.8,846.5l1-49.6c0.3-10.1,8.4-18.1,18.5-18.5l41.8,1c16.6,0.6,29.7,14.5,29.2,31.1l0,0l-1,26.3
		c-0.6,16.6-14.5,29.7-31.1,29.2l0,0l-41.8-1C2445,863.8,2438,855.9,2437.8,846.5z"/>
	<path class="st3" d="M2496.2,778.4c16.6,0.6,29.7,14.5,29.2,31.1l-1,26.3c-0.6,16.6-14.5,29.7-31.1,29.2l0,0
		C2503,837.1,2504,806.9,2496.2,778.4"/>
	<path class="st6" d="M2500.1,778.4c16.3,0.8,29.4,13.8,30.1,30.1l0,0l-1,26.3c-0.6,16.6-14.5,29.7-31.1,29.2l0,0
		C2506.5,836.2,2507.2,806.6,2500.1,778.4"/>
	<path class="st7" d="M2500.1,592.2c0,0-283.1,159.8-118.9,437.2l62-26.9c0,0-99.9-209.5,87-348.2L2500.1,592.2z"/>
	<path class="st8" d="M2495.3,592.2c0,0-283.1,159.8-118.9,437.2l62-26.9c0,0-99.9-209.5,87-348.2L2495.3,592.2z"/>
	<path class="st9" d="M2490.1,592.2c0,0-283.1,159.8-118.9,437.2l62-26.9c0,0-99.9-209.5,87-348.2L2490.1,592.2z"/>
	<path class="st10" d="M782.5,2265.2l-56.1-134.4l241.9-100.9c8.6-3.6,18.8,0.3,22.4,8.9l49.6,118.9L782.5,2265.2z"/>
	<g id="Layer_83_copy-10-2-3">
		<path class="st11" d="M768.3,2103.8l21.4-8.5l0,0c16.2-6.3,24.2-24.4,18.1-40.6l-1-2.5l-9.7-20.9c-9.6-20.5-33.5-30.1-54.7-21.8
			l0,0c-21,8.4-31.7,31.9-24.3,53.3l7.6,21.8l0,0c5.5,16.6,23.4,25.7,40.1,20.2l0,0l0.4-0.2l0,0L768.3,2103.8z"/>
		<path class="st4" d="M770.5,2101l21.4-8.5l0,0c16.2-6.3,24.2-24.4,18.1-40.6l-1-2.5l-9.7-20.9c-9.6-20.5-33.5-30.1-54.7-21.8l0,0
			c-21,8.4-31.7,31.9-24.3,53.3l7.6,21.8l0,0c5.5,16.6,23.4,25.7,40.1,20.2l0,0l0.4-0.2l0,0L770.5,2101L770.5,2101z"/>
		<path class="st5" d="M778.8,2101.4l21.8-8.6c16.2-6.3,24.2-24.4,18.1-40.6l-1-2.5l-9.7-20.9c-9.6-20.5-33.5-30.1-54.7-21.8l0,0
			c-21,8.4-31.7,31.9-24.3,53.3l7.6,21.8l0,0c5.5,16.6,23.4,25.7,40.1,20.2l0,0l0.4-0.2l0,0C777.8,2101.3,778.4,2101.5,778.8,2101.4
			z"/>
		<path class="st12" d="M819.8,2053.6l-12.2-24.7c-9.6-20.5-33.5-30.1-54.7-21.8l0,0c-21,8.4-31.8,31.9-24.3,53.3l8.5,26.2"/>
	</g>
	<g id="Layer_83_copy-10-2-3-2">
		<path class="st11" d="M883.4,2055.3l21.4-8.5l0,0c16.2-6.3,24.2-24.4,18.1-40.6l-1-2.5l-9.7-20.9c-9.6-20.5-33.5-30.1-54.7-21.8
			l0,0c-21,8.4-31.7,31.9-24.3,53.3l7.6,21.8l0,0c5.5,16.6,23.4,25.7,40.1,20.2l0,0l0.4-0.2l0,0L883.4,2055.3z"/>
		<path class="st4" d="M885.6,2052.5l21.4-8.5l0,0c16.2-6.3,24.2-24.4,18.1-40.6l-1-2.5l-9.7-20.9c-9.6-20.5-33.5-30.1-54.7-21.8
			l0,0c-21,8.4-31.7,31.9-24.3,53.3l7.6,21.8l0,0c5.5,16.6,23.4,25.7,40.1,20.2l0,0l0.4-0.2l0,0L885.6,2052.5L885.6,2052.5z"/>
		<path class="st5" d="M893.9,2052.8l21.8-8.6c16.2-6.3,24.2-24.4,18.1-40.6l-1-2.5l-9.7-20.9c-9.6-20.5-33.5-30.1-54.7-21.8l0,0
			c-21,8.4-31.7,31.9-24.3,53.3l7.6,21.8l0,0c5.5,16.6,23.4,25.7,40.1,20.2l0,0l0.4-0.2l0,0C892.9,2052.8,893.5,2053,893.9,2052.8z"
			/>
		<path class="st12" d="M934.9,2005l-12.2-24.6c-9.6-20.5-33.5-30.1-54.7-21.8l0,0c-21,8.4-31.8,31.9-24.3,53.3l8.5,26.2"/>
	</g>
	<path class="st10" d="M1096.3,2129.7l-56.1-134.4l338.7-141.3c12-5,25.2-2.4,28.8,6.2l49.6,118.9L1096.3,2129.7z"/>
	<g id="Layer_83_copy-10-2-3-3">
		<path class="st11" d="M1185.4,1925.2l21.4-8.5l0,0c16.2-6.3,24.2-24.4,18.1-40.6l-1-2.5l-9.7-20.9c-9.6-20.5-33.5-30.1-54.7-21.8
			l0,0c-21,8.4-31.8,31.9-24.3,53.3l7.6,21.8l0,0c5.5,16.6,23.4,25.7,40.1,20.2l0,0l0.4-0.2l0,0L1185.4,1925.2z"/>
		<path class="st4" d="M1187.6,1922.4l21.4-8.5l0,0c16.2-6.3,24.2-24.4,18.1-40.6l-1-2.5l-9.7-20.9c-9.6-20.5-33.5-30.1-54.7-21.8
			l0,0c-21,8.4-31.7,31.9-24.3,53.3l7.6,21.8l0,0c5.5,16.6,23.4,25.7,40.1,20.2l0,0l0.4-0.2l0,0L1187.6,1922.4L1187.6,1922.4z"/>
		<path class="st5" d="M1195.9,1922.8l21.8-8.6c16.2-6.3,24.2-24.4,18.1-40.6l-1-2.5l-9.7-20.9c-9.6-20.5-33.5-30.1-54.7-21.8l0,0
			c-21,8.4-31.7,31.9-24.3,53.3l7.6,21.8l0,0c5.5,16.6,23.4,25.7,40.1,20.2l0,0l0.4-0.2l0,0
			C1194.9,1922.7,1195.5,1922.9,1195.9,1922.8z"/>
		<path class="st12" d="M1236.8,1875l-12.2-24.6c-9.6-20.5-33.5-30.1-54.7-21.8l0,0c-21,8.4-31.7,31.9-24.3,53.3l8.5,26.2"/>
	</g>
	<g id="Layer_83_copy-10-2-3-4">
		<path class="st11" d="M1300.5,1876.7l21.4-8.5l0,0c16.2-6.3,24.2-24.4,18.1-40.6l-1-2.5l-9.7-20.9c-9.6-20.5-33.5-30.1-54.7-21.8
			l0,0c-21,8.4-31.8,31.9-24.3,53.3l7.6,21.8l0,0c5.5,16.6,23.4,25.7,40.1,20.2l0,0l0.4-0.2l0,0L1300.5,1876.7z"/>
		<path class="st4" d="M1302.6,1873.9l21.4-8.5l0,0c16.2-6.3,24.2-24.4,18.1-40.6l-1-2.5l-9.7-20.9c-9.6-20.5-33.5-30.1-54.7-21.8
			l0,0c-21,8.4-31.8,31.9-24.3,53.3l7.6,21.8l0,0c5.5,16.6,23.4,25.7,40.1,20.2l0,0l0.4-0.2l0,0L1302.6,1873.9L1302.6,1873.9z"/>
		<path class="st5" d="M1311,1874.3l21.8-8.6c16.2-6.3,24.2-24.4,18.1-40.6l-1-2.5l-9.7-20.9c-9.6-20.5-33.5-30.1-54.7-21.8l0,0
			c-21,8.4-31.8,31.9-24.3,53.3l7.6,21.8l0,0c5.5,16.6,23.4,25.7,40.1,20.2l0,0l0.4-0.2l0,0C1310,1874.2,1310.5,1874.4,1311,1874.3z
			"/>
		<path class="st12" d="M1351.9,1826.5l-12.2-24.6c-9.6-20.5-33.5-30.1-54.7-21.8l0,0c-21,8.4-31.7,31.9-24.3,53.3l8.5,26.2"/>
	</g>
	<g id="Layer_83_copy-10-2-3-5">
		<path class="st11" d="M1067.8,1973.7l21.4-8.5l0,0c16.2-6.3,24.2-24.4,18.1-40.6l-1-2.5l-9.7-20.9c-9.6-20.5-33.5-30.1-54.7-21.8
			l0,0c-21,8.4-31.7,31.9-24.3,53.3l7.6,21.8l0,0c5.5,16.6,23.4,25.7,40.1,20.2l0,0l0.4-0.2l0,0L1067.8,1973.7z"/>
		<path class="st4" d="M1070,1970.9l21.4-8.5l0,0c16.2-6.3,24.2-24.4,18.1-40.6l-1-2.5l-9.7-20.9c-9.6-20.5-33.5-30.1-54.7-21.8l0,0
			c-21,8.4-31.8,31.9-24.3,53.3l7.6,21.8l0,0c5.5,16.6,23.4,25.7,40.1,20.2l0,0l0.4-0.2l0,0L1070,1970.9L1070,1970.9z"/>
		<path class="st5" d="M1078.3,1971.3l21.8-8.6c16.2-6.3,24.2-24.4,18.1-40.6l-1-2.5l-9.7-20.9c-9.6-20.5-33.5-30.1-54.7-21.8l0,0
			c-21,8.4-31.8,31.9-24.3,53.3l7.6,21.8l0,0c5.5,16.6,23.4,25.7,40.1,20.2l0,0l0.4-0.2l0,0
			C1077.3,1971.2,1077.9,1971.4,1078.3,1971.3z"/>
		<path class="st12" d="M1119.3,1923.5l-12.2-24.6c-9.6-20.5-33.5-30.1-54.7-21.8l0,0c-21,8.4-31.7,31.9-24.3,53.3l8.5,26.2"/>
	</g>
	<g id="tables-7-11">
		<path class="st9" d="M1115.5,750.4l-142,74.3c-7.1,4-9.5,13-5.5,20.1l0,0l0,0c0.5,0.8,1,1.6,1.6,2.3l0,0l54.1,103.5l154.2-80.7
			L1115.5,750.4z"/>
		<path class="st9" d="M1495.8,701.2l-54.1-103.5c-3.9-7.5-13.1-13.5-20.6-9.6l-152.4,79.7l62.5,119.4L1495.8,701.2z"/>
		
			<rect x="1136.8" y="702.5" transform="matrix(0.8861 -0.4635 0.4635 0.8861 -217.4292 654.942)" class="st9" width="174.1" height="134.8"/>
		<path class="st9" d="M1331.3,787.3l56.1,107.2l152.4-79.7c7.1-4,9.5-13,5.5-20.1l0,0l0,0c-0.5-0.8-1-1.6-1.6-2.3l-47.7-91.2
			L1331.3,787.3z"/>
		
			<rect x="1195.1" y="820.9" transform="matrix(0.8861 -0.4635 0.4635 0.8861 -262.4651 694.6741)" class="st9" width="174.1" height="121"/>
		<path class="st9" d="M1020.9,949.7l47.7,91.2c3.9,7.5,13.1,13.5,20.6,9.6l149.9-78.6L1183,864.7L1020.9,949.7z"/>
	</g>
	<g>
		<path class="st13" d="M627.3,900.7l9.7,17.7c7.7,13.1,24.4,17.8,37.8,10.6l19.3-12.4c16.9-10.9,22.8-32.8,13.7-50.7l0,0
			c-10.2-17.2-32.1-23.3-49.7-13.9L640,862c-13.7,7.5-19.5,24.2-13.4,38.5L627.3,900.7z"/>
		<path class="st14" d="M627,896l9.7,17.7c7.7,13.1,24.4,17.8,37.8,10.6l19.3-12.4c16.9-10.9,22.8-32.8,13.7-50.7l0,0
			c-10.2-17.2-32.1-23.3-49.7-13.9l-18.1,10c-13.7,7.5-19.5,24.2-13.4,38.5L627,896z"/>
		<path class="st15" d="M630.2,893.4l9.7,17.7c7.7,13.1,24.4,17.8,37.8,10.6l0.8-0.5l0,0l18.5-11.9c16.9-10.9,22.8-32.8,13.7-50.7
			l0,0c-10.2-17.2-32.1-23.3-49.7-13.9l-18.1,10c-13.7,7.5-19.5,24.2-13.4,38.5L630.2,893.4z"/>
		<path class="st16" d="M676,922.3l20.7-14.4c16.9-10.9,22.8-32.8,13.7-50.7l0,0c-10.2-17.2-32.1-23.3-49.7-13.9l-22.1,11.4"/>
	</g>
	<g>
		<path class="st13" d="M738.7,1386.4L720,1394c-13.9,6.1-20.5,22.2-14.9,36.3l10,20.6c8.8,18.1,29.9,26.5,48.8,19.6l0,0
			c18.2-8.1,26.9-29.2,19.6-47.8l-7.8-19.2c-5.9-14.5-21.7-22.2-36.7-17.8L738.7,1386.4z"/>
		<path class="st14" d="M743.4,1386.7l-18.7,7.6c-13.9,6.1-20.5,22.2-14.9,36.3l10,20.6c8.8,18.1,29.9,26.5,48.8,19.6l0,0
			c18.2-8.1,26.9-29.2,19.6-47.8l-7.8-19.2c-5.9-14.5-21.7-22.2-36.7-17.8L743.4,1386.7z"/>
		<path class="st15" d="M745.6,1390.2l-18.7,7.6c-13.9,6.1-20.5,22.2-14.9,36.3l0.4,0.8l0,0l9.6,19.8c8.8,18.1,29.9,26.5,48.8,19.6
			l0,0c18.2-8.1,26.9-29.2,19.6-47.8l-7.8-19.2c-5.9-14.5-21.7-22.2-36.7-17.8L745.6,1390.2z"/>
		<path class="st16" d="M711.6,1432.3l11.9,22.3c8.8,18.1,29.9,26.5,48.8,19.6l0,0c18.2-8.1,26.9-29.2,19.6-47.8l-8.8-23.3"/>
	</g>
	<g>
		<path class="st13" d="M818.4,1250.3l9.7,17.7c7.7,13.1,24.4,17.8,37.8,10.6l19.3-12.4c16.9-10.9,22.8-32.8,13.7-50.7l0,0
			c-10.2-17.2-32.1-23.3-49.7-13.9l-18.1,10c-13.7,7.5-19.5,24.2-13.4,38.5L818.4,1250.3z"/>
		<path class="st14" d="M818.1,1245.6l9.7,17.7c7.7,13.1,24.4,17.8,37.8,10.6l19.3-12.4c16.9-10.9,22.8-32.8,13.7-50.7l0,0
			c-10.2-17.2-32.1-23.3-49.7-13.9l-18.1,10c-13.7,7.5-19.5,24.2-13.4,38.5L818.1,1245.6z"/>
		<path class="st15" d="M821.3,1242.9l9.7,17.7c7.7,13.1,24.4,17.8,37.8,10.6l0.8-0.5l0,0l18.5-11.9c16.9-10.9,22.8-32.8,13.7-50.7
			l0,0c-10.2-17.2-32.1-23.3-49.7-13.9l-18.1,10c-13.7,7.5-19.5,24.2-13.4,38.5L821.3,1242.9z"/>
		<path class="st16" d="M867.1,1271.9l20.7-14.4c16.9-10.9,22.8-32.8,13.7-50.7l0,0c-10.2-17.2-32.1-23.3-49.7-13.9l-22.1,11.4"/>
	</g>
	<g>
		<path class="st13" d="M759.3,1147l9.7,17.7c7.7,13.1,24.4,17.8,37.8,10.6l19.3-12.4c16.9-10.9,22.8-32.8,13.7-50.7l0,0
			c-10.2-17.2-32.1-23.3-49.7-13.9l-18.1,10c-13.7,7.5-19.5,24.2-13.4,38.5L759.3,1147z"/>
		<path class="st14" d="M759,1142.3l9.7,17.7c7.7,13.1,24.4,17.8,37.8,10.6l19.3-12.4c16.9-10.9,22.8-32.8,13.7-50.7l0,0
			c-10.2-17.2-32.1-23.3-49.7-13.9l-18.1,10c-13.7,7.5-19.5,24.2-13.4,38.5L759,1142.3z"/>
		<path class="st15" d="M762.2,1139.6l9.7,17.7c7.7,13.1,24.4,17.8,37.8,10.6l0.8-0.5l0,0l18.5-11.9c16.9-10.9,22.8-32.8,13.7-50.7
			l0,0c-10.2-17.2-32.1-23.3-49.7-13.9l-18.1,10c-13.7,7.5-19.5,24.2-13.4,38.5L762.2,1139.6z"/>
		<path class="st16" d="M808,1168.6l20.7-14.4c16.9-10.9,22.8-32.8,13.7-50.7l0,0c-10.2-17.2-32.1-23.3-49.7-13.9l-22.1,11.4"/>
	</g>
	<g>
		<path class="st13" d="M691.9,1024.5l9.7,17.7c7.7,13.1,24.4,17.8,37.8,10.6l19.3-12.4c16.9-10.9,22.8-32.8,13.7-50.7l0,0
			c-10.2-17.2-32.1-23.3-49.7-13.9l-18.1,10c-13.7,7.5-19.5,24.2-13.4,38.5L691.9,1024.5z"/>
		<path class="st14" d="M691.6,1019.8l9.7,17.7c7.7,13.1,24.4,17.8,37.8,10.6l19.3-12.4c16.9-10.9,22.8-32.8,13.7-50.7l0,0
			c-10.2-17.2-32.1-23.3-49.7-13.9l-18.1,10c-13.7,7.5-19.5,24.2-13.4,38.5L691.6,1019.8z"/>
		<path class="st15" d="M694.9,1017.2l9.7,17.7c7.7,13.1,24.4,17.8,37.8,10.6l0.8-0.5l0,0l18.5-11.9c16.9-10.9,22.8-32.8,13.7-50.7
			l0,0c-10.2-17.2-32.1-23.3-49.7-13.9l-18.1,10c-13.7,7.5-19.5,24.2-13.4,38.5L694.9,1017.2z"/>
		<path class="st16" d="M740.6,1046.1l20.7-14.4c16.9-10.9,22.8-32.8,13.7-50.7l0,0c-10.2-17.2-32.1-23.3-49.7-13.9l-22.1,11.4"/>
	</g>
	<g>
		<path class="st13" d="M565.5,1394.7l-8.5-18.3c-6.8-13.6-23.1-19.4-37-13.2l-20.1,11c-17.6,9.7-25.1,31.2-17.2,49.7l0,0
			c9,17.8,30.4,25.4,48.7,17.2l18.8-8.7c14.2-6.6,21.1-22.8,16-37.5L565.5,1394.7z"/>
		<path class="st14" d="M565.5,1399.4l-8.5-18.3c-6.8-13.6-23.1-19.4-37-13.2l-20.1,11c-17.6,9.7-25.1,31.2-17.2,49.7l0,0
			c9,17.8,30.4,25.4,48.7,17.2l18.8-8.7c14.2-6.6,21.1-22.8,16-37.5L565.5,1399.4z"/>
		<path class="st15" d="M562.1,1401.8l-8.5-18.3c-6.8-13.6-23.1-19.4-37-13.2l-0.8,0.4l0,0l-19.3,10.6
			c-17.6,9.7-25.1,31.2-17.2,49.7l0,0c9,17.8,30.4,25.4,48.7,17.2l18.8-8.7c14.2-6.6,21.1-22.8,16-37.5L562.1,1401.8z"/>
		<path class="st16" d="M518.4,1369.8l-21.7,12.9c-17.6,9.7-25.1,31.2-17.2,49.7l0,0c9,17.8,30.4,25.4,48.7,17.2l22.8-9.9"/>
	</g>
	<g>
		<path class="st13" d="M398.9,1032.8l-8.5-18.3c-6.8-13.6-23.1-19.4-37-13.2l-20.1,11c-17.6,9.7-25.1,31.2-17.2,49.7l0,0
			c9,17.8,30.4,25.4,48.7,17.2l18.8-8.7c14.2-6.6,21.1-22.8,16-37.5L398.9,1032.8z"/>
		<path class="st14" d="M398.9,1037.5l-8.5-18.3c-6.8-13.6-23.1-19.4-37-13.2l-20.1,11c-17.6,9.7-25.1,31.2-17.2,49.7l0,0
			c9,17.8,30.4,25.4,48.7,17.2l18.8-8.7c14.2-6.6,21.1-22.8,16-37.5L398.9,1037.5z"/>
		<path class="st15" d="M395.5,1039.9l-8.5-18.3c-6.8-13.6-23.1-19.4-37-13.2l-0.8,0.4l0,0l-19.3,10.6
			c-17.6,9.7-25.1,31.2-17.2,49.7l0,0c9,17.8,30.4,25.4,48.7,17.2l18.8-8.7c14.2-6.6,21.1-22.8,16-37.5L395.5,1039.9z"/>
		<path class="st16" d="M351.8,1007.9l-21.7,12.9c-17.6,9.7-25.1,31.2-17.2,49.7l0,0c9,17.8,30.4,25.4,48.7,17.2l22.8-9.9"/>
	</g>
	<g>
		<path class="st13" d="M450.7,1139.9l-8.5-18.3c-6.8-13.6-23.1-19.4-37-13.2l-20.1,11c-17.6,9.7-25.1,31.2-17.2,49.7l0,0
			c9,17.8,30.4,25.4,48.7,17.2l18.8-8.7c14.2-6.6,21.1-22.8,16-37.5L450.7,1139.9z"/>
		<path class="st14" d="M450.7,1144.7l-8.5-18.3c-6.8-13.6-23.1-19.4-37-13.2l-20.1,11c-17.6,9.7-25.1,31.2-17.2,49.7l0,0
			c9,17.8,30.4,25.4,48.7,17.2l18.8-8.7c14.2-6.6,21.1-22.8,16-37.5L450.7,1144.7z"/>
		<path class="st15" d="M447.3,1147l-8.5-18.3c-6.8-13.6-23.1-19.4-37-13.2l-0.8,0.4l0,0l-19.3,10.6c-17.6,9.7-25.1,31.2-17.2,49.7
			l0,0c9,17.8,30.4,25.4,48.7,17.2l18.8-8.7c14.2-6.6,21.1-22.8,16-37.5L447.3,1147z"/>
		<path class="st16" d="M403.6,1115l-21.6,13c-17.6,9.7-25.1,31.2-17.2,49.7l0,0c9,17.8,30.4,25.4,48.7,17.2l22.8-9.9"/>
	</g>
	<g>
		<path class="st13" d="M509.5,1266.7l-8.5-18.3c-6.8-13.6-23.1-19.4-37-13.2l-20.1,11c-17.6,9.7-25.1,31.2-17.2,49.7l0,0
			c9,17.8,30.4,25.4,48.7,17.2l18.8-8.7c14.2-6.6,21.1-22.8,16-37.5L509.5,1266.7z"/>
		<path class="st14" d="M509.5,1271.4l-8.5-18.3c-6.8-13.6-23.1-19.4-37-13.2l-20.1,11c-17.6,9.7-25.1,31.2-17.2,49.7l0,0
			c9,17.8,30.4,25.4,48.7,17.2l18.8-8.7c14.2-6.6,21.1-22.8,16-37.5L509.5,1271.4z"/>
		<path class="st15" d="M506.1,1273.8l-8.5-18.3c-6.8-13.6-23.1-19.4-37-13.2l-0.8,0.4l0,0l-19.3,10.6
			c-17.6,9.7-25.1,31.2-17.2,49.7l0,0c9,17.8,30.4,25.4,48.7,17.2l18.8-8.7c14.2-6.6,21.1-22.8,16-37.5L506.1,1273.8z"/>
		<path class="st16" d="M462.4,1241.8l-21.7,12.9c-17.6,9.7-25.1,31.2-17.2,49.7l0,0c9,17.8,30.4,25.4,48.7,17.2l22.8-9.9"/>
	</g>
	<g>
		<path class="st13" d="M482.6,941.3l18.9-7.1c14.1-5.8,21.1-21.6,15.9-35.9l-9.5-20.9c-8.4-18.3-29.2-27.3-48.3-20.9l0,0
			c-18.5,7.6-27.6,28.4-20.8,47.2l7.3,19.4c5.5,14.6,21.1,22.7,36.2,18.8L482.6,941.3z"/>
		<path class="st14" d="M477.9,940.9l18.9-7.1c14.1-5.8,21.1-21.6,15.9-35.9l-9.5-20.9c-8.4-18.3-29.2-27.3-48.3-20.9l0,0
			c-18.5,7.6-27.6,28.4-20.8,47.2l7.3,19.4c5.5,14.6,21.1,22.7,36.2,18.8L477.9,940.9z"/>
		<path class="st15" d="M475.8,937.3l18.9-7.1c14.1-5.8,21.1-21.6,15.9-35.9l-0.4-0.8l0,0l-9.1-20c-8.4-18.3-29.2-27.3-48.3-20.9
			l0,0c-18.5,7.6-27.6,28.4-20.8,47.2l7.3,19.4c5.5,14.6,21.1,22.7,36.2,18.8L475.8,937.3z"/>
		<path class="st16" d="M510.9,896.2l-11.3-22.6c-8.4-18.3-29.2-27.3-48.3-20.9l0,0c-18.5,7.6-27.6,28.4-20.8,47.2l8.1,23.5"/>
	</g>
	<g id="tables-7-11_1_">
		<path class="st9" d="M678.3,1004.9l-74.3-142c-4-7.1-13-9.5-20.1-5.5l0,0l0,0c-0.8,0.5-1.6,1-2.3,1.6l0,0l-103.5,54.1l80.7,154.2
			L678.3,1004.9z"/>
		<path class="st9" d="M727.5,1385.2l103.5-54.1c7.5-3.9,13.5-13.1,9.6-20.6l-79.7-152.4l-119.4,62.5L727.5,1385.2z"/>
		
			<rect x="591.5" y="1026.2" transform="matrix(0.8861 -0.4635 0.4635 0.8861 -440.9579 432.2047)" class="st9" width="134.8" height="174.1"/>
		<path class="st9" d="M641.4,1220.6l-107.2,56.1l79.7,152.4c4,7.1,13,9.5,20.1,5.5l0,0l0,0c0.8-0.5,1.6-1,2.3-1.6l91.2-47.7
			L641.4,1220.6z"/>
		
			<rect x="487" y="1084.5" transform="matrix(0.8861 -0.4635 0.4635 0.8861 -480.6585 387.2046)" class="st9" width="121" height="174.1"/>
		<path class="st9" d="M479.1,910.2L387.8,958c-7.5,3.9-13.5,13.1-9.6,20.6l85,162.7l107.2-56.1L479.1,910.2z"/>
	</g>
	<g>
		<path class="st13" d="M1003.8,798.9l18.2-8.8c13.5-7,19.1-23.4,12.6-37.2l-11.3-19.9c-10-17.5-31.5-24.6-49.9-16.5l0,0
			c-17.7,9.3-25,30.8-16.5,48.9l9,18.6c6.8,14.1,23.1,20.7,37.8,15.5L1003.8,798.9z"/>
		<path class="st14" d="M999.1,798.9l18.2-8.8c13.5-7,19.1-23.4,12.6-37.2l-11.3-19.9c-10-17.5-31.5-24.6-49.9-16.5l0,0
			c-17.7,9.3-25,30.8-16.5,48.9l9,18.6c6.8,14.1,23.1,20.7,37.8,15.5L999.1,798.9z"/>
		<path class="st15" d="M996.7,795.6l18.2-8.8c13.5-7,19.1-23.4,12.6-37.2l-0.5-0.8l0,0l-10.9-19.1c-10-17.5-31.5-24.6-49.9-16.5
			l0,0c-17.7,9.3-25,30.8-16.5,48.9l9,18.6c6.8,14.1,23.1,20.7,37.8,15.5L996.7,795.6z"/>
		<path class="st16" d="M1028,751.4l-13.2-21.5c-10-17.5-31.5-24.6-49.9-16.5l0,0c-17.7,9.3-25,30.8-16.5,48.9l10.2,22.7"/>
	</g>
	<g>
		<path class="st13" d="M1323.9,634.6l18.2-8.8c13.5-7,19.1-23.4,12.6-37.2l-11.3-19.9c-10-17.5-31.5-24.6-49.9-16.5l0,0
			c-17.7,9.3-25,30.8-16.5,48.9l9,18.6c6.8,14.1,23.1,20.7,37.8,15.5L1323.9,634.6z"/>
		<path class="st14" d="M1319.2,634.6l18.2-8.8c13.5-7,19.1-23.4,12.6-37.2l-11.3-19.9c-10-17.5-31.5-24.6-49.9-16.5l0,0
			c-17.7,9.3-25,30.8-16.5,48.9l9,18.6c6.8,14.1,23.1,20.7,37.8,15.5L1319.2,634.6z"/>
		<path class="st15" d="M1316.8,631.2l18.2-8.8c13.5-7,19.1-23.4,12.6-37.2l-0.5-0.8l0,0l-10.9-19.1c-10-17.5-31.5-24.6-49.9-16.5
			l0,0c-17.7,9.3-25,30.8-16.5,48.9l9,18.6c6.8,14.1,23.1,20.7,37.8,15.5L1316.8,631.2z"/>
		<path class="st16" d="M1348.1,587.1l-13.2-21.5c-10-17.5-31.5-24.6-49.9-16.5l0,0c-17.7,9.3-25,30.8-16.5,48.9l10.2,22.7"/>
	</g>
	<g>
		<path class="st13" d="M1213.5,688.3l18.2-8.8c13.5-7,19.1-23.4,12.6-37.2l-11.3-19.9c-10-17.5-31.5-24.6-49.9-16.5l0,0
			c-17.7,9.3-25,30.8-16.5,48.9l9,18.6c6.8,14.1,23.1,20.7,37.8,15.5L1213.5,688.3z"/>
		<path class="st14" d="M1208.8,688.4l18.2-8.8c13.5-7,19.1-23.4,12.6-37.2l-11.3-19.9c-10-17.5-31.5-24.6-49.9-16.5l0,0
			c-17.7,9.3-25,30.8-16.5,48.9l9,18.6c6.8,14.1,23.1,20.7,37.8,15.5L1208.8,688.4z"/>
		<path class="st15" d="M1206.4,685l18.2-8.8c13.5-7,19.1-23.4,12.6-37.2l-0.5-0.8l0,0l-10.9-19.1c-10-17.5-31.5-24.6-49.9-16.5l0,0
			c-17.7,9.3-25,30.8-16.5,48.9l9,18.6c6.8,14.1,23.1,20.7,37.8,15.5L1206.4,685z"/>
		<path class="st16" d="M1237.7,640.8l-13.2-21.5c-10-17.5-31.5-24.6-49.9-16.5l0,0c-17.7,9.3-25,30.8-16.5,48.9l10.2,22.7"/>
	</g>
	<g>
		<path class="st13" d="M1111.1,744.5l18.2-8.8c13.5-7,19.1-23.4,12.6-37.2l-11.3-19.9c-10-17.5-31.5-24.6-49.9-16.5l0,0
			c-17.7,9.3-25,30.8-16.5,48.9l9,18.6c6.8,14.1,23.1,20.7,37.8,15.5L1111.1,744.5z"/>
		<path class="st14" d="M1106.4,744.5l18.2-8.8c13.5-7,19.1-23.4,12.6-37.2l-11.3-19.9c-10-17.5-31.5-24.6-49.9-16.5l0,0
			c-17.7,9.3-25,30.8-16.5,48.9l9,18.6c6.8,14.1,23.1,20.7,37.8,15.5L1106.4,744.5z"/>
		<path class="st15" d="M1104,741.2l18.2-8.8c13.5-7,19.1-23.4,12.6-37.2l-0.5-0.8l0,0l-10.9-19.1c-10-17.5-31.5-24.6-49.9-16.5l0,0
			c-17.7,9.3-25,30.8-16.5,48.9l9,18.6c6.8,14.1,23.1,20.7,37.8,15.5L1104,741.2z"/>
		<path class="st16" d="M1135.3,697l-13.2-21.5c-10-17.5-31.5-24.6-49.9-16.5l0,0c-17.7,9.3-25,30.8-16.5,48.9l10.2,22.7"/>
	</g>
	<g>
		<path class="st13" d="M1479.5,859.9l-18.2,8.8c-13.5,7-19.1,23.4-12.6,37.2l11.3,19.9c10,17.5,31.5,24.6,49.9,16.5l0,0
			c17.7-9.3,25-30.8,16.5-48.9l-9-18.6c-6.8-14.1-23.1-20.7-37.8-15.5L1479.5,859.9z"/>
		<path class="st14" d="M1484.3,859.8l-18.2,8.8c-13.5,7-19.1,23.4-12.6,37.2l11.3,19.9c10,17.5,31.5,24.6,49.9,16.5l0,0
			c17.7-9.3,25-30.8,16.5-48.9l-9-18.6c-6.8-14.1-23.1-20.7-37.8-15.5L1484.3,859.8z"/>
		<path class="st15" d="M1486.7,863.2l-18.2,8.8c-13.5,7-19.1,23.4-12.6,37.2l0.5,0.8l0,0l10.9,19.1c10,17.5,31.5,24.6,49.9,16.5
			l0,0c17.7-9.3,25-30.8,16.5-48.9l-9-18.6c-6.8-14.1-23.1-20.7-37.8-15.5L1486.7,863.2z"/>
		<path class="st16" d="M1455.4,907.3l13.2,21.5c10,17.5,31.5,24.6,49.9,16.5l0,0c17.7-9.3,25-30.8,16.5-48.9l-10.2-22.7"/>
	</g>
	<g>
		<path class="st13" d="M1159.4,1024.2l-18.2,8.8c-13.5,7-19.1,23.4-12.6,37.2l11.3,19.9c10,17.5,31.5,24.6,49.9,16.5l0,0
			c17.7-9.3,25-30.8,16.5-48.9l-9-18.6c-6.8-14.1-23.1-20.7-37.8-15.5L1159.4,1024.2z"/>
		<path class="st14" d="M1164.2,1024.1l-18.2,8.8c-13.5,7-19.1,23.4-12.6,37.2l11.3,19.9c10,17.5,31.5,24.6,49.9,16.5l0,0
			c17.7-9.3,25-30.8,16.5-48.9l-9-18.6c-6.8-14.1-23.1-20.7-37.8-15.5L1164.2,1024.1z"/>
		<path class="st15" d="M1166.6,1027.5l-18.2,8.8c-13.5,7-19.1,23.4-12.6,37.2l0.5,0.8l0,0l10.9,19.1c10,17.5,31.5,24.6,49.9,16.5
			l0,0c17.7-9.3,25-30.8,16.5-48.9l-9-18.6c-6.8-14.1-23.1-20.7-37.8-15.5L1166.6,1027.5z"/>
		<path class="st16" d="M1135.3,1071.7l13.2,21.5c10,17.5,31.5,24.6,49.9,16.5l0,0c17.7-9.3,25-30.8,16.5-48.9l-10.2-22.7"/>
	</g>
	<g>
		<path class="st13" d="M1269.8,970.4l-18.2,8.8c-13.5,7-19.1,23.4-12.6,37.2l11.3,19.9c10,17.5,31.5,24.6,49.9,16.5l0,0
			c17.7-9.3,25-30.8,16.5-48.9l-9-18.6c-6.8-14.1-23.1-20.7-37.8-15.5L1269.8,970.4z"/>
		<path class="st14" d="M1274.6,970.4l-18.2,8.8c-13.5,7-19.1,23.4-12.6,37.2l11.3,19.9c10,17.5,31.5,24.6,49.9,16.5l0,0
			c17.7-9.3,25-30.8,16.5-48.9l-9-18.6c-6.8-14.1-23.1-20.7-37.8-15.5L1274.6,970.4z"/>
		<path class="st15" d="M1277,973.7l-18.2,8.8c-13.5,7-19.1,23.4-12.6,37.2l0.5,0.8l0,0l10.9,19.1c10,17.5,31.5,24.6,49.9,16.5l0,0
			c17.7-9.3,25-30.8,16.5-48.9l-9-18.6c-6.8-14.1-23.1-20.7-37.8-15.5L1277,973.7z"/>
		<path class="st16" d="M1245.7,1017.9l13.2,21.5c10,17.5,31.5,24.6,49.9,16.5l0,0c17.7-9.3,25-30.8,16.5-48.9l-10.2-22.7"/>
	</g>
	<g>
		<path class="st13" d="M1372.2,914.3L1354,923c-13.5,7-19.1,23.4-12.6,37.2l11.3,19.9c10,17.5,31.5,24.6,49.9,16.5l0,0
			c17.7-9.3,25-30.8,16.5-48.9l-9-18.6c-6.8-14.1-23.1-20.7-37.8-15.5L1372.2,914.3z"/>
		<path class="st14" d="M1377,914.2l-18.2,8.8c-13.5,7-19.1,23.4-12.6,37.2l11.3,19.9c10,17.5,31.5,24.6,49.9,16.5l0,0
			c17.7-9.3,25-30.8,16.5-48.9l-9-18.6c-6.8-14.1-23.1-20.7-37.8-15.5L1377,914.2z"/>
		<path class="st15" d="M1379.4,917.6l-18.2,8.8c-13.5,7-19.1,23.4-12.6,37.2l0.5,0.8l0,0l10.9,19.1c10,17.5,31.5,24.6,49.9,16.5
			l0,0c17.7-9.3,25-30.8,16.5-48.9l-9-18.6c-6.8-14.1-23.1-20.7-37.8-15.5L1379.4,917.6z"/>
		<path class="st16" d="M1348,961.7l13.2,21.5c10,17.5,31.5,24.6,49.9,16.5l0,0c17.7-9.3,25-30.8,16.5-48.9l-10.2-22.7"/>
	</g>
	<g>
		<path class="st13" d="M1018.4,958.6l-8.8-18.2c-7-13.5-23.4-19.1-37.2-12.6l-19.9,11.3c-17.5,10-24.6,31.5-16.5,49.9l0,0
			c9.3,17.7,30.8,25,48.9,16.5l18.6-9c14.1-6.8,20.7-23.1,15.5-37.8L1018.4,958.6z"/>
		<path class="st14" d="M1018.5,963.3l-8.8-18.2c-7-13.5-23.4-19.1-37.2-12.6l-19.9,11.3c-17.5,10-24.6,31.5-16.5,49.9l0,0
			c9.3,17.7,30.8,25,48.9,16.5l18.6-9c14.1-6.8,20.7-23.1,15.5-37.8L1018.5,963.3z"/>
		<path class="st15" d="M1015.1,965.7l-8.8-18.2c-7-13.5-23.4-19.1-37.2-12.6l-0.8,0.5l0,0l-19.1,10.9c-17.5,10-24.6,31.5-16.5,49.9
			l0,0c9.3,17.7,30.8,25,48.9,16.5l18.6-9c14.1-6.8,20.7-23.1,15.5-37.8L1015.1,965.7z"/>
		<path class="st16" d="M971,934.4l-21.5,13.2c-17.5,10-24.6,31.5-16.5,49.9l0,0c9.3,17.7,30.8,25,48.9,16.5l22.7-10.2"/>
	</g>
	<g>
		<path class="st13" d="M1503.8,696.1l8.8,18.2c7,13.5,23.4,19.1,37.2,12.6l19.9-11.3c17.5-10,24.6-31.5,16.5-49.9l0,0
			c-9.3-17.7-30.8-25-48.9-16.5l-18.6,9c-14.1,6.8-20.7,23.1-15.5,37.8L1503.8,696.1z"/>
		<path class="st14" d="M1503.8,691.3l8.8,18.2c7,13.5,23.4,19.1,37.2,12.6l19.9-11.3c17.5-10,24.6-31.5,16.5-49.9l0,0
			c-9.3-17.7-30.8-25-48.9-16.5l-18.6,9c-14.1,6.8-20.7,23.1-15.5,37.8L1503.8,691.3z"/>
		<path class="st15" d="M1507.2,688.9l8.8,18.2c7,13.5,23.4,19.1,37.2,12.6l0.8-0.5l0,0l19.1-10.9c17.5-10,24.6-31.5,16.5-49.9l0,0
			c-9.3-17.7-30.8-25-48.9-16.5l-18.6,9c-14.1,6.8-20.7,23.1-15.5,37.8L1507.2,688.9z"/>
		<path class="st16" d="M1551.3,720.2l21.5-13.2c17.5-10,24.6-31.5,16.5-49.9l0,0c-9.3-17.7-30.8-25-48.9-16.5l-22.7,10.2"/>
	</g>
</g>
<g id="bookable">
	<polygon id="area-02.02-status" class="st17" points="54.5,988.4 734.2,690.8 1103.9,1407.4 874.1,1511.3 864.6,1491.1 
		609.4,1601.1 	"/>
	<path id="area-02.01-status" class="st17" d="M734.2,690.8l288.5,557.1l139.7-62.4c0,0,119,37.6,275.4-3.6s256.6-152.3,256.6-152.3
		s77-80.6,84.7-110.1L1501.4,355L734.2,690.8z"/>
	<g class="st18">
		<path class="st9" d="M1124.7,793.1h17.2c3.4,0,5.9,0.1,7.6,0.4s3.2,0.9,4.5,1.8s2.4,2.1,3.3,3.6s1.3,3.2,1.3,5
			c0,2-0.5,3.9-1.6,5.5s-2.6,2.9-4.4,3.8c2.6,0.8,4.6,2.1,6,3.9s2.1,4,2.1,6.5c0,2-0.5,3.9-1.4,5.7s-2.1,3.3-3.7,4.4
			c-1.6,1.1-3.5,1.8-5.8,2c-1.4,0.2-4.9,0.3-10.5,0.3h-14.6V793.1z M1133.4,800.3v9.9h5.7c3.4,0,5.5,0,6.3-0.1
			c1.5-0.2,2.7-0.7,3.5-1.5s1.3-2,1.3-3.4c0-1.3-0.4-2.4-1.1-3.2s-1.8-1.3-3.3-1.5c-0.9-0.1-3.3-0.1-7.4-0.1H1133.4z M1133.4,817.4
			v11.5h8c3.1,0,5.1-0.1,5.9-0.3c1.3-0.2,2.3-0.8,3.1-1.7c0.8-0.9,1.2-2.1,1.2-3.6c0-1.3-0.3-2.4-0.9-3.3c-0.6-0.9-1.5-1.6-2.7-2
			c-1.2-0.4-3.7-0.6-7.7-0.6H1133.4z"/>
		<path class="st9" d="M1166,820.1c0-2.7,0.7-5.4,2-7.9s3.3-4.5,5.7-5.9c2.5-1.3,5.2-2,8.3-2c4.7,0,8.6,1.5,11.6,4.6
			c3,3.1,4.5,6.9,4.5,11.6c0,4.7-1.5,8.6-4.6,11.7c-3,3.1-6.9,4.6-11.5,4.6c-2.9,0-5.6-0.6-8.2-1.9c-2.6-1.3-4.6-3.2-5.9-5.7
			S1166,823.7,1166,820.1z M1174.5,820.5c0,3.1,0.7,5.4,2.2,7.1s3.3,2.5,5.4,2.5c2.1,0,4-0.8,5.4-2.5c1.5-1.6,2.2-4,2.2-7.1
			c0-3-0.7-5.4-2.2-7c-1.5-1.6-3.3-2.5-5.4-2.5c-2.1,0-4,0.8-5.4,2.5S1174.5,817.4,1174.5,820.5z"/>
		<path class="st9" d="M1210.8,814.5l-7.5-1.3c0.8-3,2.3-5.2,4.3-6.7s5.1-2.2,9.1-2.2c3.7,0,6.4,0.4,8.2,1.3c1.8,0.9,3.1,2,3.8,3.3
			s1.1,3.8,1.1,7.4l-0.1,9.6c0,2.7,0.1,4.8,0.4,6s0.8,2.7,1.5,4.2h-8.1c-0.2-0.5-0.5-1.4-0.8-2.4c-0.1-0.5-0.2-0.8-0.3-1
			c-1.4,1.4-2.9,2.4-4.5,3.1c-1.6,0.7-3.3,1-5.1,1c-3.2,0-5.7-0.9-7.6-2.6s-2.8-3.9-2.8-6.6c0-1.8,0.4-3.3,1.3-4.7
			c0.8-1.4,2-2.4,3.5-3.2c1.5-0.7,3.7-1.4,6.5-1.9c3.8-0.7,6.5-1.4,8-2V815c0-1.6-0.4-2.7-1.2-3.4c-0.8-0.7-2.3-1-4.4-1
			c-1.5,0-2.6,0.3-3.4,0.9S1211.3,813,1210.8,814.5z M1221.8,821.1c-1.1,0.4-2.7,0.8-5,1.3s-3.8,1-4.5,1.4c-1.1,0.8-1.6,1.7-1.6,2.9
			c0,1.2,0.4,2.1,1.3,3c0.9,0.8,2,1.3,3.3,1.3c1.5,0,2.9-0.5,4.2-1.5c1-0.7,1.7-1.7,2-2.7c0.2-0.7,0.3-2,0.3-4V821.1z"/>
		<path class="st9" d="M1245.9,836.1h-8.2V805h7.6v4.4c1.3-2.1,2.5-3.5,3.5-4.1c1-0.7,2.2-1,3.6-1c1.9,0,3.7,0.5,5.4,1.6l-2.5,7.2
			c-1.4-0.9-2.7-1.3-3.9-1.3c-1.2,0-2.1,0.3-2.9,1c-0.8,0.6-1.4,1.8-1.9,3.4c-0.5,1.7-0.7,5.1-0.7,10.4V836.1z"/>
		<path class="st9" d="M1289.9,836.1h-7.6v-4.6c-1.3,1.8-2.8,3.1-4.5,4s-3.5,1.3-5.2,1.3c-3.6,0-6.6-1.4-9.2-4.3s-3.8-6.9-3.8-12.1
			c0-5.3,1.2-9.3,3.7-12c2.5-2.7,5.6-4.1,9.4-4.1c3.5,0,6.5,1.4,9,4.3v-15.5h8.2V836.1z M1267.9,819.9c0,3.3,0.5,5.7,1.4,7.2
			c1.3,2.1,3.2,3.2,5.6,3.2c1.9,0,3.5-0.8,4.8-2.4c1.3-1.6,2-4,2-7.2c0-3.6-0.6-6.1-1.9-7.7s-2.9-2.4-5-2.4c-2,0-3.6,0.8-4.9,2.3
			S1267.9,816.8,1267.9,819.9z"/>
		<path class="st9" d="M1305.9,836.1h-8.2V805h7.6v4.4c1.3-2.1,2.5-3.5,3.5-4.1c1-0.7,2.2-1,3.6-1c1.9,0,3.7,0.5,5.4,1.6l-2.5,7.2
			c-1.4-0.9-2.7-1.3-3.9-1.3c-1.2,0-2.1,0.3-2.9,1c-0.8,0.6-1.4,1.8-1.9,3.4c-0.5,1.7-0.7,5.1-0.7,10.4V836.1z"/>
		<path class="st9" d="M1319.4,820.1c0-2.7,0.7-5.4,2-7.9s3.3-4.5,5.7-5.9c2.5-1.3,5.2-2,8.3-2c4.7,0,8.6,1.5,11.6,4.6
			c3,3.1,4.5,6.9,4.5,11.6c0,4.7-1.5,8.6-4.6,11.7c-3,3.1-6.9,4.6-11.5,4.6c-2.9,0-5.6-0.6-8.2-1.9c-2.6-1.3-4.6-3.2-5.9-5.7
			S1319.4,823.7,1319.4,820.1z M1327.9,820.5c0,3.1,0.7,5.4,2.2,7.1s3.3,2.5,5.4,2.5c2.1,0,4-0.8,5.4-2.5c1.5-1.6,2.2-4,2.2-7.1
			c0-3-0.7-5.4-2.2-7c-1.5-1.6-3.3-2.5-5.4-2.5c-2.1,0-4,0.8-5.4,2.5S1327.9,817.4,1327.9,820.5z"/>
		<path class="st9" d="M1356.1,820.1c0-2.7,0.7-5.4,2-7.9s3.3-4.5,5.7-5.9c2.5-1.3,5.2-2,8.3-2c4.7,0,8.6,1.5,11.6,4.6
			s4.5,6.9,4.5,11.6c0,4.7-1.5,8.6-4.6,11.7c-3,3.1-6.9,4.6-11.5,4.6c-2.9,0-5.6-0.6-8.2-1.9c-2.6-1.3-4.6-3.2-5.9-5.7
			S1356.1,823.7,1356.1,820.1z M1364.5,820.5c0,3.1,0.7,5.4,2.2,7.1s3.3,2.5,5.4,2.5c2.1,0,4-0.8,5.4-2.5c1.5-1.6,2.2-4,2.2-7.1
			c0-3-0.7-5.4-2.2-7c-1.5-1.6-3.3-2.5-5.4-2.5c-2.1,0-4,0.8-5.4,2.5S1364.5,817.4,1364.5,820.5z"/>
		<path class="st9" d="M1394,805h7.6v4.2c2.7-3.3,5.9-5,9.7-5c2,0,3.7,0.4,5.2,1.2s2.7,2.1,3.6,3.7c1.4-1.7,2.8-2.9,4.4-3.7
			s3.3-1.2,5.1-1.2c2.3,0,4.2,0.5,5.8,1.4s2.8,2.3,3.5,4.1c0.6,1.3,0.8,3.5,0.8,6.4v19.9h-8.2v-17.8c0-3.1-0.3-5.1-0.8-6
			c-0.8-1.2-1.9-1.8-3.5-1.8c-1.2,0-2.2,0.4-3.3,1.1s-1.7,1.7-2.2,3.1s-0.7,3.5-0.7,6.4v14.9h-8.2V819c0-3-0.1-5-0.4-5.9
			s-0.7-1.5-1.4-2s-1.5-0.6-2.5-0.6c-1.3,0-2.4,0.3-3.4,1s-1.7,1.7-2.2,3s-0.7,3.4-0.7,6.4v15.1h-8.2V805z"/>
	</g>
	<g class="st18">
		<path class="st9" d="M407.1,1159.1v-42.9h13l7.8,29.3l7.7-29.3h13v42.9h-8.1v-33.8l-8.5,33.8h-8.3l-8.5-33.8v33.8H407.1z"/>
		<path class="st9" d="M475.2,1149.2l8.2,1.4c-1.1,3-2.7,5.3-5,6.9c-2.3,1.6-5.1,2.4-8.5,2.4c-5.4,0-9.4-1.8-12-5.3
			c-2.1-2.8-3.1-6.4-3.1-10.7c0-5.2,1.3-9.2,4-12.1s6.1-4.4,10.2-4.4c4.6,0,8.3,1.5,11,4.6c2.7,3.1,4,7.7,3.8,14h-20.6
			c0.1,2.4,0.7,4.3,2,5.7c1.3,1.4,2.9,2,4.7,2c1.3,0,2.4-0.4,3.3-1.1S474.7,1150.7,475.2,1149.2z M475.7,1140.9
			c-0.1-2.4-0.7-4.2-1.8-5.4s-2.6-1.9-4.3-1.9c-1.8,0-3.3,0.7-4.5,2s-1.7,3.1-1.7,5.3H475.7z"/>
		<path class="st9" d="M508.6,1149.2l8.2,1.4c-1.1,3-2.7,5.3-5,6.9c-2.3,1.6-5.1,2.4-8.5,2.4c-5.4,0-9.4-1.8-12-5.3
			c-2.1-2.8-3.1-6.4-3.1-10.7c0-5.2,1.3-9.2,4-12.1s6.1-4.4,10.2-4.4c4.6,0,8.3,1.5,11,4.6c2.7,3.1,4,7.7,3.8,14h-20.6
			c0.1,2.4,0.7,4.3,2,5.7c1.3,1.4,2.9,2,4.7,2c1.3,0,2.4-0.4,3.3-1.1S508.1,1150.7,508.6,1149.2z M509,1140.9
			c-0.1-2.4-0.7-4.2-1.8-5.4s-2.6-1.9-4.3-1.9c-1.8,0-3.3,0.7-4.5,2s-1.7,3.1-1.7,5.3H509z"/>
		<path class="st9" d="M538.2,1128v6.6h-5.6v12.5c0,2.5,0.1,4,0.2,4.4c0.1,0.4,0.4,0.8,0.7,1s0.8,0.4,1.4,0.4c0.8,0,1.9-0.3,3.3-0.8
			l0.7,6.4c-1.9,0.8-4.1,1.2-6.5,1.2c-1.5,0-2.8-0.2-4-0.7c-1.2-0.5-2.1-1.1-2.6-1.9s-0.9-1.9-1.2-3.2c-0.2-1-0.3-2.9-0.3-5.8v-13.6
			h-3.8v-6.6h3.8v-6.2l8.3-4.8v11H538.2z"/>
		<path class="st9" d="M543.9,1123.8v-7.6h8.2v7.6H543.9z M543.9,1159.1V1128h8.2v31.1H543.9z"/>
		<path class="st9" d="M588.9,1159.1h-8.2v-15.9c0-3.4-0.2-5.5-0.5-6.5s-0.9-1.8-1.7-2.3s-1.7-0.8-2.9-0.8c-1.4,0-2.7,0.4-3.8,1.2
			c-1.1,0.8-1.9,1.8-2.3,3.1c-0.4,1.3-0.6,3.7-0.6,7.1v14.1h-8.2V1128h7.6v4.6c2.7-3.5,6.1-5.3,10.3-5.3c1.8,0,3.5,0.3,5,1
			c1.5,0.7,2.6,1.5,3.4,2.5c0.8,1,1.3,2.2,1.6,3.5c0.3,1.3,0.5,3.1,0.5,5.5V1159.1z"/>
		<path class="st9" d="M596.5,1161.1l9.4,1.1c0.2,1.1,0.5,1.8,1.1,2.3c0.8,0.6,2,0.9,3.7,0.9c2.1,0,3.8-0.3,4.8-1
			c0.7-0.4,1.3-1.1,1.6-2.1c0.3-0.7,0.4-1.9,0.4-3.8v-4.5c-2.5,3.4-5.6,5-9.3,5c-4.2,0-7.5-1.8-9.9-5.3c-1.9-2.8-2.9-6.3-2.9-10.4
			c0-5.2,1.3-9.2,3.8-12c2.5-2.8,5.6-4.1,9.4-4.1c3.8,0,7,1.7,9.5,5.1v-4.4h7.7v27.9c0,3.7-0.3,6.4-0.9,8.2
			c-0.6,1.8-1.5,3.2-2.5,4.3c-1.1,1-2.6,1.8-4.4,2.4c-1.8,0.6-4.1,0.9-6.9,0.9c-5.3,0-9-0.9-11.2-2.7c-2.2-1.8-3.3-4.1-3.3-6.9
			C596.4,1161.9,596.4,1161.5,596.5,1161.1z M603.8,1142.9c0,3.3,0.6,5.7,1.9,7.3c1.3,1.5,2.9,2.3,4.7,2.3c2,0,3.7-0.8,5.1-2.4
			c1.4-1.6,2.1-3.9,2.1-7c0-3.2-0.7-5.6-2-7.2c-1.3-1.6-3-2.3-5-2.3c-2,0-3.6,0.8-4.9,2.3C604.4,1137.4,603.8,1139.7,603.8,1142.9z"
			/>
		<path class="st9" d="M650.6,1159.1v-42.9h18.3c4.6,0,7.9,0.4,10,1.2s3.7,2.1,5,4.1c1.2,2,1.9,4.2,1.9,6.8c0,3.2-0.9,5.9-2.8,8
			c-1.9,2.1-4.7,3.4-8.5,4c1.9,1.1,3.4,2.3,4.6,3.6c1.2,1.3,2.9,3.6,4.9,7l5.2,8.4h-10.4l-6.3-9.3c-2.2-3.3-3.8-5.4-4.6-6.3
			s-1.7-1.5-2.6-1.8c-0.9-0.3-2.4-0.5-4.4-0.5h-1.8v17.9H650.6z M659.3,1134.3h6.4c4.2,0,6.8-0.2,7.8-0.5c1-0.4,1.8-1,2.4-1.8
			s0.9-1.9,0.9-3.2c0-1.4-0.4-2.6-1.2-3.5c-0.8-0.9-1.9-1.5-3.3-1.7c-0.7-0.1-2.8-0.1-6.3-0.1h-6.8V1134.3z"/>
		<path class="st9" d="M692,1143.1c0-2.7,0.7-5.4,2-7.9s3.3-4.5,5.7-5.9c2.5-1.3,5.2-2,8.3-2c4.7,0,8.6,1.5,11.6,4.6
			s4.5,6.9,4.5,11.6c0,4.7-1.5,8.6-4.6,11.7s-6.9,4.6-11.5,4.6c-2.9,0-5.6-0.6-8.2-1.9c-2.6-1.3-4.6-3.2-5.9-5.7
			S692,1146.7,692,1143.1z M700.4,1143.5c0,3.1,0.7,5.4,2.2,7.1s3.3,2.5,5.4,2.5s4-0.8,5.4-2.5s2.2-4,2.2-7.1c0-3-0.7-5.4-2.2-7
			s-3.3-2.5-5.4-2.5s-4,0.8-5.4,2.5S700.4,1140.4,700.4,1143.5z"/>
		<path class="st9" d="M728.6,1143.1c0-2.7,0.7-5.4,2-7.9s3.3-4.5,5.7-5.9s5.2-2,8.3-2c4.7,0,8.6,1.5,11.6,4.6s4.5,6.9,4.5,11.6
			c0,4.7-1.5,8.6-4.6,11.7s-6.9,4.6-11.5,4.6c-2.9,0-5.6-0.6-8.2-1.9s-4.6-3.2-5.9-5.7S728.6,1146.7,728.6,1143.1z M737,1143.5
			c0,3.1,0.7,5.4,2.2,7.1s3.3,2.5,5.4,2.5s4-0.8,5.4-2.5s2.2-4,2.2-7.1c0-3-0.7-5.4-2.2-7s-3.3-2.5-5.4-2.5s-4,0.8-5.4,2.5
			S737,1140.4,737,1143.5z"/>
		<path class="st9" d="M766.6,1128h7.6v4.2c2.7-3.3,5.9-5,9.7-5c2,0,3.7,0.4,5.2,1.2s2.7,2.1,3.6,3.7c1.4-1.7,2.8-2.9,4.4-3.7
			s3.3-1.2,5.1-1.2c2.3,0,4.2,0.5,5.8,1.4s2.8,2.3,3.5,4.1c0.6,1.3,0.8,3.5,0.8,6.4v19.9h-8.2v-17.8c0-3.1-0.3-5.1-0.8-6
			c-0.8-1.2-1.9-1.8-3.5-1.8c-1.2,0-2.2,0.4-3.3,1.1s-1.7,1.7-2.2,3.1s-0.7,3.5-0.7,6.4v14.9h-8.2V1142c0-3-0.1-5-0.4-5.9
			s-0.7-1.5-1.4-2s-1.5-0.6-2.5-0.6c-1.3,0-2.4,0.3-3.4,1s-1.7,1.7-2.2,3s-0.7,3.4-0.7,6.4v15.1h-8.2V1128z"/>
	</g>
</g>
<g id="outline">
	<polyline class="st19" points="2235.7,279.6 2371.8,225.9 2256.7,24.2 54.5,988.4 609.4,1601.1 619.9,2346.7 1835.1,1827.5 
		1629.3,1404.9 2702.4,906.3 2458.7,464.7 2411.2,490.1 	"/>
	<path class="st20" d="M1501.3,354.9L1779,919.4c0,0-189.7,355.2-616.7,266"/>
	<polyline class="st20" points="734.2,690.8 1103.9,1407.4 1033.7,1438.4 	"/>
	<polyline class="st20" points="609.4,1601.1 864.1,1491.1 966.4,1684.1 985.6,1674 	"/>
	<polyline class="st20" points="1120.3,1614.7 1272.7,1534.5 1491.8,1974.1 	"/>
	<line class="st20" x1="1629.3" y1="1404.9" x2="1429.9" y2="1491.1"/>
</g>
<g id="icons">
	<g id="stairs-4-2-8-2">
		<circle class="st21" cx="1564.3" cy="1630.4" r="93.6"/>
		<g class="st18">
			<path class="st22" d="M1515.7,1770.1l3.8-0.3c0.2,1.5,0.6,2.8,1.3,3.8s1.7,1.8,3.1,2.4c1.4,0.6,3,0.9,4.7,0.9
				c1.5,0,2.9-0.2,4.1-0.7s2.1-1.1,2.6-1.9s0.9-1.7,0.9-2.6c0-1-0.3-1.8-0.8-2.5c-0.6-0.7-1.5-1.3-2.8-1.8c-0.8-0.3-2.6-0.8-5.5-1.5
				c-2.8-0.7-4.8-1.3-5.9-1.9c-1.5-0.8-2.6-1.7-3.3-2.9c-0.7-1.1-1.1-2.4-1.1-3.8c0-1.5,0.4-3,1.3-4.3c0.9-1.3,2.2-2.4,3.9-3.1
				s3.6-1,5.6-1c2.3,0,4.3,0.4,6,1.1c1.7,0.7,3.1,1.8,4,3.2c0.9,1.4,1.4,3,1.5,4.8l-3.9,0.3c-0.2-1.9-0.9-3.4-2.1-4.4
				c-1.2-1-3-1.5-5.4-1.5c-2.5,0-4.2,0.5-5.4,1.4s-1.7,2-1.7,3.3c0,1.1,0.4,2,1.2,2.7c0.8,0.7,2.8,1.4,6.1,2.2
				c3.3,0.7,5.6,1.4,6.8,2c1.8,0.8,3.1,1.9,4,3.1c0.9,1.3,1.3,2.7,1.3,4.4c0,1.6-0.5,3.2-1.4,4.6s-2.3,2.6-4,3.4
				c-1.8,0.8-3.7,1.2-5.9,1.2c-2.8,0-5.1-0.4-7-1.2s-3.4-2-4.4-3.7S1515.8,1772.1,1515.7,1770.1z"/>
			<path class="st22" d="M1553.5,1776.6l0.5,3.3c-1.1,0.2-2,0.3-2.8,0.3c-1.4,0-2.4-0.2-3.2-0.6c-0.8-0.4-1.3-1-1.6-1.7
				c-0.3-0.7-0.5-2.2-0.5-4.5v-12.8h-2.8v-2.9h2.8v-5.5l3.7-2.3v7.8h3.8v2.9h-3.8v13c0,1.1,0.1,1.8,0.2,2.1c0.1,0.3,0.3,0.6,0.6,0.7
				c0.3,0.2,0.7,0.3,1.3,0.3C1552.2,1776.7,1552.8,1776.7,1553.5,1776.6z"/>
			<path class="st22" d="M1571.7,1777.2c-1.4,1.2-2.7,2-4,2.5c-1.3,0.5-2.7,0.7-4.2,0.7c-2.4,0-4.3-0.6-5.6-1.8s-2-2.7-2-4.6
				c0-1.1,0.2-2.1,0.7-3c0.5-0.9,1.1-1.6,1.9-2.2c0.8-0.5,1.7-1,2.7-1.2c0.7-0.2,1.9-0.4,3.4-0.6c3-0.4,5.3-0.8,6.7-1.3
				c0-0.5,0-0.8,0-1c0-1.5-0.4-2.6-1.1-3.2c-1-0.9-2.4-1.3-4.3-1.3c-1.8,0-3.1,0.3-3.9,0.9c-0.8,0.6-1.5,1.7-1.9,3.3l-3.7-0.5
				c0.3-1.6,0.9-2.9,1.7-3.8c0.8-1,1.9-1.7,3.3-2.2c1.5-0.5,3.1-0.8,5-0.8c1.9,0,3.4,0.2,4.6,0.7c1.2,0.4,2.1,1,2.6,1.7
				s0.9,1.5,1.2,2.6c0.1,0.6,0.2,1.8,0.2,3.5v5c0,3.5,0.1,5.7,0.2,6.7c0.2,0.9,0.5,1.8,1,2.7h-3.9
				C1572,1779.2,1571.8,1778.3,1571.7,1777.2z M1571.4,1768.8c-1.4,0.6-3.4,1-6.2,1.4c-1.5,0.2-2.6,0.5-3.3,0.8
				c-0.6,0.3-1.1,0.7-1.5,1.2c-0.3,0.5-0.5,1.1-0.5,1.8c0,1,0.4,1.8,1.1,2.5c0.8,0.7,1.9,1,3.3,1c1.5,0,2.7-0.3,3.9-1
				c1.1-0.6,2-1.5,2.5-2.6c0.4-0.9,0.6-2.1,0.6-3.8V1768.8z"/>
		</g>
		<g class="st18">
			<path class="st22" d="M1581.9,1780v-19.3h-3.3v-2.9h3.3v-2.4c0-1.5,0.1-2.6,0.4-3.3c0.4-1,1-1.8,1.9-2.4c0.9-0.6,2.2-0.9,3.8-0.9
				c1.1,0,2.2,0.1,3.5,0.4l-0.6,3.3c-0.8-0.1-1.5-0.2-2.2-0.2c-1.1,0-2,0.2-2.4,0.7c-0.5,0.5-0.7,1.4-0.7,2.7v2.1h4.3v2.9h-4.3v19.3
				H1581.9z"/>
		</g>
		<g class="st18">
			<path class="st22" d="M1593,1780v-19.3h-3.3v-2.9h3.3v-2.4c0-1.5,0.1-2.6,0.4-3.3c0.4-1,1-1.8,1.9-2.4c0.9-0.6,2.2-0.9,3.8-0.9
				c1.1,0,2.2,0.1,3.5,0.4l-0.6,3.3c-0.8-0.1-1.5-0.2-2.2-0.2c-1.1,0-2,0.2-2.4,0.7c-0.5,0.5-0.7,1.4-0.7,2.7v2.1h4.3v2.9h-4.3v19.3
				H1593z"/>
		</g>
		<g>
			<g class="st18">
				<path class="st22" d="M1501.8,1831.4v-30.7h11.6c2,0,3.6,0.1,4.7,0.3c1.5,0.3,2.8,0.7,3.8,1.4s1.8,1.7,2.5,3
					c0.6,1.3,0.9,2.7,0.9,4.2c0,2.6-0.8,4.8-2.5,6.6c-1.7,1.8-4.7,2.7-9,2.7h-7.9v12.5H1501.8z M1505.9,1815.3h7.9
					c2.6,0,4.5-0.5,5.6-1.5c1.1-1,1.7-2.4,1.7-4.1c0-1.3-0.3-2.4-1-3.3c-0.6-0.9-1.5-1.5-2.6-1.8c-0.7-0.2-1.9-0.3-3.8-0.3h-7.9
					V1815.3z"/>
				<path class="st22" d="M1544.5,1828.7c-1.4,1.2-2.7,2-4,2.5c-1.3,0.5-2.7,0.7-4.2,0.7c-2.4,0-4.3-0.6-5.6-1.8s-2-2.7-2-4.6
					c0-1.1,0.2-2.1,0.7-3c0.5-0.9,1.1-1.6,1.9-2.2c0.8-0.5,1.7-1,2.7-1.2c0.7-0.2,1.9-0.4,3.4-0.6c3-0.4,5.3-0.8,6.7-1.3
					c0-0.5,0-0.8,0-1c0-1.5-0.4-2.6-1.1-3.2c-1-0.9-2.4-1.3-4.3-1.3c-1.8,0-3.1,0.3-3.9,0.9c-0.8,0.6-1.5,1.7-1.9,3.3l-3.7-0.5
					c0.3-1.6,0.9-2.9,1.7-3.8c0.8-1,1.9-1.7,3.3-2.2c1.5-0.5,3.1-0.8,5-0.8c1.9,0,3.4,0.2,4.6,0.7c1.2,0.4,2.1,1,2.6,1.7
					s1,1.5,1.2,2.6c0.1,0.6,0.2,1.8,0.2,3.5v5c0,3.5,0.1,5.7,0.2,6.7c0.2,0.9,0.5,1.8,1,2.7h-3.9
					C1544.8,1830.7,1544.6,1829.8,1544.5,1828.7z M1544.2,1820.3c-1.4,0.6-3.4,1-6.2,1.4c-1.5,0.2-2.6,0.5-3.3,0.8
					c-0.6,0.3-1.1,0.7-1.5,1.2c-0.3,0.5-0.5,1.1-0.5,1.8c0,1,0.4,1.8,1.1,2.5c0.8,0.7,1.9,1,3.3,1c1.5,0,2.7-0.3,3.9-1
					c1.1-0.6,2-1.5,2.5-2.6c0.4-0.9,0.6-2.1,0.6-3.8V1820.3z"/>
				<path class="st22" d="M1553.8,1831.4v-22.2h3.4v3.2c1.6-2.4,4-3.7,7.1-3.7c1.3,0,2.6,0.2,3.7,0.7s2,1.1,2.5,1.9s1,1.7,1.2,2.8
					c0.1,0.7,0.2,1.9,0.2,3.7v13.7h-3.8v-13.5c0-1.5-0.1-2.7-0.4-3.4c-0.3-0.8-0.8-1.4-1.6-1.8s-1.6-0.7-2.6-0.7
					c-1.6,0-3,0.5-4.2,1.5c-1.2,1-1.8,3-1.8,5.8v12.1H1553.8z"/>
				<path class="st22" d="M1585.9,1828.1l0.5,3.3c-1.1,0.2-2,0.3-2.8,0.3c-1.4,0-2.4-0.2-3.2-0.6c-0.8-0.4-1.3-1-1.6-1.7
					c-0.3-0.7-0.5-2.2-0.5-4.5v-12.8h-2.8v-2.9h2.8v-5.5l3.7-2.3v7.8h3.8v2.9h-3.8v13c0,1.1,0.1,1.8,0.2,2.1
					c0.1,0.3,0.3,0.6,0.6,0.7c0.3,0.2,0.7,0.3,1.3,0.3C1584.7,1828.2,1585.2,1828.2,1585.9,1828.1z"/>
				<path class="st22" d="M1589.5,1831.4v-22.2h3.4v3.4c0.9-1.6,1.7-2.6,2.4-3.1c0.7-0.5,1.5-0.8,2.4-0.8c1.3,0,2.6,0.4,3.9,1.2
					l-1.3,3.5c-0.9-0.5-1.8-0.8-2.8-0.8c-0.8,0-1.6,0.2-2.2,0.7c-0.7,0.5-1.1,1.2-1.4,2.1c-0.4,1.3-0.6,2.8-0.6,4.4v11.6H1589.5z"/>
				<path class="st22" d="M1603.7,1840l-0.4-3.5c0.8,0.2,1.5,0.3,2.2,0.3c0.8,0,1.5-0.1,2-0.4c0.5-0.3,0.9-0.7,1.2-1.2
					c0.2-0.4,0.6-1.3,1.2-2.8c0.1-0.2,0.2-0.5,0.3-0.9l-8.4-22.3h4.1l4.6,12.9c0.6,1.6,1.1,3.4,1.6,5.2c0.4-1.7,0.9-3.4,1.5-5.1
					l4.8-13h3.8l-8.5,22.6c-0.9,2.4-1.6,4.1-2.1,5c-0.7,1.2-1.4,2.2-2.3,2.7c-0.9,0.6-1.9,0.9-3.1,0.9
					C1605.4,1840.5,1604.6,1840.3,1603.7,1840z"/>
			</g>
		</g>
	</g>
	<line class="st23" x1="1598.1" y1="1657.6" x2="1531.7" y2="1657.6"/>
	<line class="st23" x1="1531.7" y1="1629.3" x2="1598.1" y2="1629.3"/>
	<line class="st23" x1="1545.8" y1="1643.4" x2="1551.3" y2="1643.4"/>
	<line class="st23" x1="1563.2" y1="1643.4" x2="1583.9" y2="1643.4"/>
	<path class="st23" d="M1585,1603.2l10.9,13.1c1.8,2.1,2.6,4.9,2.2,7.6v41.4c-0.3,4.7-4,8.4-8.7,8.7h-49c-4.7-0.3-8.4-4-8.7-8.7l0,0
		V1625c0.2-2.7,1-5.2,2.2-7.6l10.9-13.1"/>
	<rect x="1533.8" y="1587.9" class="st23" width="61" height="14.2"/>
	<g class="st18">
		<path class="st24" d="M732.2,1792.9h4.2v18.4c0,3.2-0.4,5.8-1.1,7.6c-0.7,1.9-2,3.4-3.9,4.6c-1.9,1.2-4.4,1.8-7.5,1.8
			c-3,0-5.4-0.5-7.3-1.5c-1.9-1-3.3-2.5-4.1-4.5c-0.8-2-1.2-4.6-1.2-8v-18.4h4.2v18.4c0,2.8,0.3,4.8,0.8,6.1c0.5,1.3,1.4,2.3,2.7,3
			c1.3,0.7,2.8,1.1,4.6,1.1c3.1,0,5.3-0.7,6.6-2.1c1.3-1.4,2-4.1,2-8.1V1792.9z"/>
		<path class="st24" d="M751.5,1821.3l0.6,3.5c-1.1,0.2-2.1,0.3-3,0.3c-1.4,0-2.5-0.2-3.3-0.7c-0.8-0.4-1.3-1-1.7-1.8
			c-0.3-0.7-0.5-2.3-0.5-4.6v-13.3h-2.9v-3h2.9v-5.7l3.9-2.4v8.1h3.9v3h-3.9v13.5c0,1.1,0.1,1.8,0.2,2.2c0.1,0.3,0.4,0.6,0.7,0.8
			c0.3,0.2,0.8,0.3,1.3,0.3C750.2,1821.4,750.8,1821.4,751.5,1821.3z"/>
		<path class="st24" d="M755.3,1797.4v-4.5h3.9v4.5H755.3z M755.3,1824.8v-23.1h3.9v23.1H755.3z"/>
		<path class="st24" d="M765.1,1824.8v-31.9h3.9v31.9H765.1z"/>
		<path class="st24" d="M775.1,1797.4v-4.5h3.9v4.5H775.1z M775.1,1824.8v-23.1h3.9v23.1H775.1z"/>
		<path class="st24" d="M793.6,1821.3l0.6,3.5c-1.1,0.2-2.1,0.3-3,0.3c-1.4,0-2.5-0.2-3.3-0.7c-0.8-0.4-1.3-1-1.7-1.8
			c-0.3-0.7-0.5-2.3-0.5-4.6v-13.3h-2.9v-3h2.9v-5.7l3.9-2.4v8.1h3.9v3h-3.9v13.5c0,1.1,0.1,1.8,0.2,2.2c0.1,0.3,0.4,0.6,0.7,0.8
			c0.3,0.2,0.8,0.3,1.3,0.3C792.3,1821.4,792.9,1821.4,793.6,1821.3z"/>
		<path class="st24" d="M797.2,1833.7l-0.4-3.7c0.9,0.2,1.6,0.3,2.2,0.3c0.9,0,1.6-0.1,2.1-0.4c0.5-0.3,1-0.7,1.3-1.2
			c0.2-0.4,0.6-1.4,1.2-2.9c0.1-0.2,0.2-0.5,0.3-1l-8.8-23.2h4.2l4.8,13.4c0.6,1.7,1.2,3.5,1.7,5.4c0.4-1.8,1-3.6,1.6-5.3l4.9-13.5
			h3.9l-8.8,23.5c-0.9,2.5-1.7,4.3-2.2,5.2c-0.7,1.3-1.5,2.2-2.4,2.8c-0.9,0.6-2,0.9-3.2,0.9C799,1834.1,798.2,1834,797.2,1833.7z"
			/>
	</g>
	<circle class="st21" cx="752.7" cy="1684.3" r="96.7"/>
	<g id="Outline_Icons-13">
		<g id="Outline_Icons-14">
			<path class="st23" d="M730.4,1703.2h-10c-3.6-0.3-6.4-3.1-6.7-6.7v-21.1c0.3-3.6,3.1-6.4,6.7-6.7H786c3.6,0.3,6.4,3.1,6.7,6.7
				v21.1c-0.3,3.6-3.1,6.4-6.7,6.7h-10"/>
			<polyline class="st23" points="730.4,1662.1 730.4,1647.6 764.9,1647.6 774.9,1658.7 774.9,1662.1 			"/>
			<rect x="730.4" y="1692.1" class="st23" width="44.5" height="27.8"/>
			<circle class="st23" cx="723.8" cy="1678.7" r="3.3"/>
			<line class="st23" x1="737.1" y1="1699.8" x2="768.2" y2="1699.8"/>
			<line class="st23" x1="737.1" y1="1706.5" x2="768.2" y2="1706.5"/>
			<line class="st23" x1="737.1" y1="1713.2" x2="768.2" y2="1713.2"/>
			<polyline class="st23" points="764.9,1647.6 764.9,1658.7 774.9,1658.7 			"/>
		</g>
	</g>
	<g class="st18">
		<path class="st24" d="M863.9,1938l-12.4-29.4l3.9-1.6l5.1,12.1l15.3-6.5l-5.1-12.1l3.9-1.6l12.4,29.4l-3.9,1.6l-5.9-13.9
			l-15.3,6.5l5.9,13.9L863.9,1938z"/>
		<path class="st24" d="M887.1,1915.7c-1.7-3.9-1.8-7.3-0.4-10.1c1.2-2.3,3.1-4.1,5.7-5.2c2.9-1.2,5.7-1.3,8.4-0.2
			c2.7,1.1,4.7,3.4,6.1,6.8c1.2,2.7,1.7,5.1,1.5,7c-0.2,1.9-0.8,3.6-2,5.2c-1.2,1.5-2.7,2.7-4.6,3.5c-3,1.3-5.8,1.3-8.4,0.2
			C890.7,1921.6,888.6,1919.2,887.1,1915.7z M890.8,1914.1c1.2,2.7,2.6,4.5,4.4,5.4c1.8,0.9,3.5,0.9,5.3,0.1c1.8-0.8,3-2.1,3.6-3.9
			s0.3-4.2-0.8-7c-1.1-2.6-2.6-4.4-4.3-5.2c-1.8-0.9-3.5-0.9-5.3-0.2c-1.8,0.8-3,2.1-3.6,3.9S889.7,1911.4,890.8,1914.1z"/>
		<path class="st24" d="M922.3,1909.5l1.9,3c-0.9,0.6-1.8,1.1-2.6,1.5c-1.3,0.6-2.4,0.8-3.3,0.7s-1.6-0.4-2.2-1s-1.3-1.9-2.2-4.1
			l-5.2-12.2l-2.6,1.1l-1.2-2.8l2.6-1.1l-2.2-5.3l2.7-3.7l3.1,7.4l3.6-1.5l1.2,2.8l-3.6,1.5l5.3,12.4c0.4,1,0.8,1.7,1,1.9
			c0.3,0.2,0.6,0.4,0.9,0.4c0.4,0.1,0.8,0,1.3-0.3C921.2,1910.2,921.7,1909.9,922.3,1909.5z"/>
		<path class="st24" d="M939.1,1906.3l-12.4-29.4l10.1-4.3c2.3-1,4.1-1.6,5.4-1.8c1.8-0.3,3.6-0.2,5.2,0.3c2.1,0.7,4,1.8,5.6,3.6
			c1.6,1.7,3,3.9,4.1,6.5c0.9,2.2,1.5,4.3,1.7,6.3c0.2,1.9,0.1,3.7-0.2,5.1c-0.3,1.5-0.9,2.7-1.6,3.8c-0.7,1.1-1.7,2-2.9,3
			s-2.7,1.7-4.5,2.5L939.1,1906.3z M941.5,1901.1l6.3-2.7c1.9-0.8,3.4-1.6,4.3-2.5s1.6-1.7,2-2.6c0.5-1.3,0.7-2.9,0.6-4.6
			c-0.1-1.8-0.7-3.8-1.6-6c-1.3-3.1-2.8-5.2-4.5-6.4c-1.7-1.2-3.4-1.8-5.1-1.8c-1.2,0-3,0.5-5.3,1.5l-6.2,2.6L941.5,1901.1z"/>
		<path class="st24" d="M979.9,1880.9l3.9-1.1c0.3,2.4,0,4.6-1.1,6.5c-1.1,1.9-2.9,3.3-5.3,4.4c-3.1,1.3-6,1.4-8.6,0.3
			c-2.6-1.1-4.7-3.5-6.1-6.9c-1.5-3.6-1.8-6.8-0.8-9.5s3-4.8,5.9-6c2.8-1.2,5.6-1.2,8.2,0c2.6,1.2,4.7,3.5,6.2,7
			c0.1,0.2,0.2,0.5,0.4,1l-15.9,6.7c1.1,2.3,2.5,3.8,4.3,4.5c1.7,0.7,3.5,0.7,5.2,0c1.3-0.6,2.3-1.4,2.9-2.5
			S980,1882.7,979.9,1880.9z M965.6,1880.1l11.9-5c-0.9-1.7-1.9-2.9-3.1-3.5c-1.7-0.9-3.5-1-5.3-0.2c-1.7,0.7-2.8,1.8-3.5,3.4
			C964.9,1876.4,964.9,1878.2,965.6,1880.1z"/>
		<path class="st24" d="M986.9,1878.5l3.3-2.1c0.8,1.3,1.8,2.2,3.1,2.6c1.2,0.4,2.7,0.2,4.3-0.5c1.7-0.7,2.7-1.6,3.3-2.6
			s0.6-2,0.2-2.9c-0.3-0.8-1-1.3-1.9-1.5c-0.6-0.1-2,0-4.2,0.3c-2.9,0.4-5,0.6-6.2,0.6c-1.2-0.1-2.3-0.4-3.2-1
			c-0.9-0.6-1.6-1.5-2-2.5c-0.4-0.9-0.6-1.9-0.5-2.9c0.1-1,0.4-1.9,0.9-2.8c0.4-0.7,1-1.3,1.8-2c0.8-0.7,1.8-1.3,2.9-1.7
			c1.7-0.7,3.2-1.1,4.7-1.1s2.7,0.2,3.6,0.8c0.9,0.6,1.8,1.5,2.6,2.8l-3.3,2c-0.6-1-1.4-1.7-2.5-2c-1-0.3-2.2-0.1-3.6,0.5
			c-1.7,0.7-2.7,1.5-3.2,2.3c-0.5,0.8-0.6,1.6-0.2,2.4c0.2,0.5,0.5,0.8,1,1.1c0.5,0.3,1.1,0.4,1.8,0.4c0.4,0,1.6-0.2,3.6-0.4
			c2.8-0.4,4.9-0.6,6-0.6c1.2,0,2.3,0.3,3.2,0.9s1.6,1.5,2.2,2.7c0.5,1.2,0.6,2.5,0.4,3.8c-0.3,1.4-0.9,2.6-2,3.7s-2.5,2.1-4.1,2.8
			c-2.8,1.2-5.1,1.5-7.1,0.9C989.9,1881.9,988.3,1880.6,986.9,1878.5z"/>
		<path class="st24" d="M1011.6,1875.6l-12.4-29.4l3.6-1.5l7.1,16.8l4.9-12.3l4.7-2l-4.8,11.3l14.6,9.6l-4.4,1.9l-11.6-7.9l-1.5,3.5
			l3.6,8.4L1011.6,1875.6z"/>
		<path class="st24" d="M1028,1861.2l3.3-2.1c0.8,1.3,1.8,2.2,3.1,2.6c1.2,0.4,2.7,0.2,4.3-0.5c1.7-0.7,2.7-1.6,3.3-2.6
			c0.5-1,0.6-2,0.2-2.9c-0.3-0.8-1-1.3-1.9-1.5c-0.6-0.1-2,0-4.2,0.3c-2.9,0.4-5,0.6-6.2,0.6c-1.2-0.1-2.3-0.4-3.2-1
			c-0.9-0.6-1.6-1.5-2-2.5c-0.4-0.9-0.6-1.9-0.5-2.9s0.4-1.9,0.9-2.8c0.4-0.7,1-1.3,1.9-2c0.8-0.7,1.8-1.3,2.9-1.7
			c1.7-0.7,3.2-1.1,4.7-1.1c1.5-0.1,2.7,0.2,3.6,0.8c0.9,0.6,1.8,1.5,2.6,2.8l-3.3,2c-0.6-1-1.4-1.7-2.5-2c-1-0.3-2.2-0.1-3.6,0.5
			c-1.7,0.7-2.7,1.5-3.2,2.3c-0.5,0.8-0.6,1.6-0.2,2.4c0.2,0.5,0.5,0.8,1,1.1c0.5,0.3,1.1,0.4,1.8,0.4c0.4,0,1.6-0.2,3.6-0.4
			c2.8-0.4,4.9-0.6,6-0.6c1.2,0,2.2,0.3,3.2,0.9c0.9,0.6,1.6,1.5,2.2,2.7c0.5,1.2,0.6,2.5,0.4,3.8c-0.3,1.4-0.9,2.6-2,3.7
			c-1.1,1.1-2.5,2.1-4.1,2.8c-2.8,1.2-5.1,1.5-7.1,0.9C1031,1864.6,1029.4,1863.3,1028,1861.2z"/>
	</g>
	<g id="reception">
		
			<ellipse transform="matrix(0.7071 -0.7071 0.7071 0.7071 36.5633 1726.8716)" class="st21" cx="2102.8" cy="819.3" rx="100.6" ry="100.6"/>
		<g class="st18">
			<path class="st24" d="M1930.4,978.6v-33.3h4.4v29.4h16.4v3.9H1930.4z"/>
			<path class="st24" d="M1954.4,966.5c0-4.5,1.2-7.8,3.7-9.9c2.1-1.8,4.6-2.7,7.6-2.7c3.3,0,6,1.1,8.1,3.3c2.1,2.2,3.2,5.2,3.2,9
				c0,3.1-0.5,5.5-1.4,7.3c-0.9,1.8-2.3,3.2-4.1,4.1s-3.7,1.5-5.8,1.5c-3.4,0-6.1-1.1-8.2-3.2
				C1955.5,973.7,1954.4,970.6,1954.4,966.5z M1958.6,966.5c0,3.1,0.7,5.4,2,6.9c1.3,1.5,3,2.3,5.1,2.3c2,0,3.7-0.8,5.1-2.3
				c1.3-1.5,2-3.9,2-7.1c0-3-0.7-5.2-2-6.8c-1.4-1.5-3-2.3-5.1-2.3c-2,0-3.7,0.8-5.1,2.3C1959.3,961.1,1958.6,963.4,1958.6,966.5z"
				/>
			<path class="st24" d="M1985.6,978.6h-3.8v-33.3h4.1v11.9c1.7-2.2,3.9-3.2,6.6-3.2c1.5,0,2.9,0.3,4.2,0.9c1.3,0.6,2.4,1.4,3.3,2.5
				c0.9,1.1,1.5,2.4,2,3.9s0.7,3.2,0.7,4.9c0,4.1-1,7.3-3.1,9.6c-2,2.3-4.5,3.4-7.4,3.4c-2.8,0-5.1-1.2-6.7-3.6V978.6z
				 M1985.5,966.4c0,2.9,0.4,5,1.2,6.3c1.3,2.1,3,3.2,5.2,3.2c1.8,0,3.3-0.8,4.6-2.3c1.3-1.6,2-3.9,2-6.9c0-3.1-0.6-5.5-1.9-7
				c-1.2-1.5-2.8-2.2-4.5-2.2c-1.8,0-3.3,0.8-4.6,2.3C1986.2,961.2,1985.5,963.4,1985.5,966.4z"/>
			<path class="st24" d="M2011.4,978.6h-3.8v-33.3h4.1v11.9c1.7-2.2,3.9-3.2,6.6-3.2c1.5,0,2.9,0.3,4.2,0.9s2.4,1.4,3.3,2.5
				c0.9,1.1,1.5,2.4,2,3.9s0.7,3.2,0.7,4.9c0,4.1-1,7.3-3.1,9.6c-2,2.3-4.5,3.4-7.4,3.4c-2.8,0-5.1-1.2-6.7-3.6V978.6z
				 M2011.4,966.4c0,2.9,0.4,5,1.2,6.3c1.3,2.1,3,3.2,5.2,3.2c1.8,0,3.3-0.8,4.6-2.3c1.3-1.6,2-3.9,2-6.9c0-3.1-0.6-5.5-1.9-7
				c-1.2-1.5-2.8-2.2-4.5-2.2c-1.8,0-3.3,0.8-4.6,2.3C2012,961.2,2011.4,963.4,2011.4,966.4z"/>
			<path class="st24" d="M2033.3,987.9l-0.5-3.8c0.9,0.2,1.7,0.4,2.3,0.4c0.9,0,1.6-0.2,2.2-0.5c0.5-0.3,1-0.7,1.3-1.3
				c0.3-0.4,0.7-1.4,1.2-3c0.1-0.2,0.2-0.6,0.4-1l-9.1-24.2h4.4l5,14c0.7,1.8,1.2,3.6,1.7,5.6c0.5-1.9,1-3.7,1.7-5.5l5.2-14.1h4.1
				l-9.2,24.5c-1,2.6-1.7,4.5-2.3,5.5c-0.7,1.3-1.6,2.3-2.5,3s-2.1,0.9-3.4,0.9C2035.2,988.4,2034.3,988.2,2033.3,987.9z"/>
			<path class="st24" d="M2053.7,979.2l9.6-34.4h3.3l-9.6,34.4H2053.7z"/>
			<path class="st24" d="M2070.3,978.6v-33.3h14.8c3,0,5.2,0.3,6.8,0.9s2.8,1.7,3.7,3.2c0.9,1.5,1.4,3.2,1.4,5c0,2.4-0.8,4.4-2.3,6
				c-1.5,1.6-3.9,2.6-7.1,3.1c1.2,0.6,2.1,1.1,2.7,1.7c1.3,1.2,2.5,2.7,3.7,4.4l5.8,9.1h-5.5l-4.4-6.9c-1.3-2-2.3-3.5-3.2-4.6
				c-0.8-1.1-1.6-1.8-2.2-2.2c-0.7-0.4-1.3-0.7-2-0.9c-0.5-0.1-1.3-0.2-2.5-0.2h-5.1v14.8H2070.3z M2074.7,960h9.5
				c2,0,3.6-0.2,4.7-0.6c1.1-0.4,2-1.1,2.6-2c0.6-0.9,0.9-1.9,0.9-3c0-1.6-0.6-2.9-1.7-3.9c-1.1-1-2.9-1.5-5.4-1.5h-10.5V960z"/>
			<path class="st24" d="M2119.8,970.8l4.2,0.5c-0.7,2.5-1.9,4.4-3.7,5.7s-4.1,2-6.9,2c-3.5,0-6.3-1.1-8.4-3.3
				c-2.1-2.2-3.1-5.2-3.1-9.1c0-4.1,1-7.2,3.1-9.4c2.1-2.2,4.8-3.4,8.1-3.4c3.2,0,5.9,1.1,7.9,3.3c2,2.2,3.1,5.3,3.1,9.3
				c0,0.2,0,0.6,0,1.1h-18c0.2,2.6,0.9,4.7,2.2,6.1c1.3,1.4,3,2.1,5,2.1c1.5,0,2.8-0.4,3.8-1.2
				C2118.3,973.8,2119.1,972.6,2119.8,970.8z M2106.3,964.2h13.5c-0.2-2-0.7-3.5-1.5-4.6c-1.3-1.6-3-2.4-5.1-2.4
				c-1.9,0-3.5,0.6-4.7,1.9C2107.2,960.4,2106.5,962.1,2106.3,964.2z"/>
			<path class="st24" d="M2144.8,969.8l4,0.5c-0.4,2.8-1.6,4.9-3.4,6.5s-4,2.3-6.7,2.3c-3.3,0-6-1.1-8-3.2c-2-2.2-3-5.2-3-9.3
				c0-2.6,0.4-4.9,1.3-6.8c0.9-2,2.2-3.4,3.9-4.4c1.8-1,3.7-1.5,5.8-1.5c2.6,0,4.8,0.7,6.4,2s2.7,3.2,3.2,5.6l-4,0.6
				c-0.4-1.6-1-2.8-2-3.7s-2.1-1.2-3.5-1.2c-2.1,0-3.7,0.7-5,2.2s-1.9,3.8-1.9,7c0,3.2,0.6,5.6,1.9,7.1c1.2,1.5,2.9,2.2,4.9,2.2
				c1.6,0,2.9-0.5,4-1.5C2143.9,973.3,2144.6,971.8,2144.8,969.8z"/>
			<path class="st24" d="M2168.9,970.8l4.2,0.5c-0.7,2.5-1.9,4.4-3.7,5.7c-1.8,1.4-4.1,2-6.9,2c-3.5,0-6.3-1.1-8.4-3.3
				c-2.1-2.2-3.1-5.2-3.1-9.1c0-4.1,1-7.2,3.1-9.4c2.1-2.2,4.8-3.4,8.1-3.4c3.2,0,5.9,1.1,7.9,3.3s3.1,5.3,3.1,9.3
				c0,0.2,0,0.6,0,1.1h-18c0.2,2.6,0.9,4.7,2.2,6.1c1.3,1.4,3,2.1,5,2.1c1.5,0,2.8-0.4,3.8-1.2
				C2167.4,973.8,2168.2,972.6,2168.9,970.8z M2155.4,964.2h13.5c-0.2-2-0.7-3.5-1.5-4.6c-1.3-1.6-3-2.4-5.1-2.4
				c-1.9,0-3.5,0.6-4.7,1.9C2156.3,960.4,2155.6,962.1,2155.4,964.2z"/>
			<path class="st24" d="M2178.2,987.8v-33.4h3.7v3.1c0.9-1.2,1.9-2.1,3-2.8c1.1-0.6,2.4-0.9,4-0.9c2.1,0,3.9,0.5,5.4,1.6
				s2.8,2.6,3.6,4.5c0.8,1.9,1.2,4,1.2,6.3c0,2.5-0.4,4.7-1.3,6.7c-0.9,2-2.2,3.5-3.9,4.5c-1.7,1.1-3.5,1.6-5.3,1.6
				c-1.4,0-2.6-0.3-3.7-0.9c-1.1-0.6-2-1.3-2.7-2.2v11.7H2178.2z M2181.9,966.7c0,3.1,0.6,5.4,1.9,6.9c1.3,1.5,2.8,2.2,4.6,2.2
				c1.8,0,3.4-0.8,4.7-2.3c1.3-1.5,1.9-3.9,1.9-7.1c0-3.1-0.6-5.4-1.9-6.9c-1.3-1.5-2.8-2.3-4.5-2.3c-1.7,0-3.3,0.8-4.6,2.4
				S2181.9,963.6,2181.9,966.7z"/>
			<path class="st24" d="M2213,974.9l0.6,3.6c-1.2,0.2-2.2,0.4-3.1,0.4c-1.5,0-2.6-0.2-3.5-0.7s-1.4-1.1-1.7-1.9
				c-0.3-0.8-0.5-2.4-0.5-4.8v-13.9h-3v-3.2h3v-6l4.1-2.5v8.4h4.1v3.2h-4.1v14.1c0,1.2,0.1,1.9,0.2,2.2s0.4,0.6,0.7,0.8
				c0.3,0.2,0.8,0.3,1.4,0.3C2211.7,975.1,2212.3,975,2213,974.9z"/>
			<path class="st24" d="M2217,950v-4.7h4.1v4.7H2217z M2217,978.6v-24.1h4.1v24.1H2217z"/>
			<path class="st24" d="M2225.8,966.5c0-4.5,1.2-7.8,3.7-9.9c2.1-1.8,4.6-2.7,7.6-2.7c3.3,0,6,1.1,8.1,3.3s3.2,5.2,3.2,9
				c0,3.1-0.5,5.5-1.4,7.3s-2.3,3.2-4.1,4.1s-3.7,1.5-5.8,1.5c-3.4,0-6.1-1.1-8.2-3.2C2226.8,973.7,2225.8,970.6,2225.8,966.5z
				 M2230,966.5c0,3.1,0.7,5.4,2,6.9c1.3,1.5,3,2.3,5.1,2.3c2,0,3.7-0.8,5.1-2.3c1.3-1.5,2-3.9,2-7.1c0-3-0.7-5.2-2-6.8
				c-1.4-1.5-3-2.3-5.1-2.3c-2,0-3.7,0.8-5.1,2.3C2230.7,961.1,2230,963.4,2230,966.5z"/>
			<path class="st24" d="M2253.2,978.6v-24.1h3.7v3.4c1.8-2.6,4.3-4,7.7-4c1.5,0,2.8,0.3,4,0.8c1.2,0.5,2.1,1.2,2.7,2.1s1,1.9,1.3,3
				c0.2,0.8,0.2,2.1,0.2,4v14.8h-4.1v-14.7c0-1.7-0.2-2.9-0.5-3.7c-0.3-0.8-0.9-1.5-1.7-2c-0.8-0.5-1.8-0.7-2.8-0.7
				c-1.7,0-3.2,0.6-4.5,1.7c-1.3,1.1-1.9,3.2-1.9,6.3v13.2H2253.2z"/>
		</g>
		<g id="Outline_Icons-2-2">
			<circle class="st23" cx="2081.5" cy="788" r="13.4"/>
			<path class="st23" d="M2102.8,809.3h-42.5c-0.7,11.3,4.3,22.3,13.4,29.1V863h15.6v-24.6C2098.4,831.5,2103.5,820.6,2102.8,809.3z
				"/>
			<line class="st23" x1="2099.4" y1="824.9" x2="2146.3" y2="824.9"/>
			<circle class="st23" cx="2125.1" cy="790.3" r="10.1"/>
			<path class="st23" d="M2108.3,824.9c0-9.9,8-17.9,17.9-17.9s17.9,8,17.9,17.9l0,0"/>
		</g>
	</g>
</g>
</svg>
