<svg xmlns="http://www.w3.org/2000/svg" viewBox="0 0 561.226 376.581"><defs><style>.cls-1,.cls-23{fill:#4095b0;}.cls-2{fill:#a9d9e0;}.cls-3{fill:#8dccce;}.cls-4{fill:#030404;}.cls-11,.cls-13,.cls-15,.cls-4{opacity:0.1;}.cls-11,.cls-13,.cls-15,.cls-20,.cls-23,.cls-24,.cls-25,.cls-29,.cls-4,.cls-8{isolation:isolate;}.cls-5{fill:#5a606a;}.cls-22,.cls-6{fill:#9aadb6;}.cls-7{fill:#7a8e93;}.cls-12,.cls-13,.cls-8{fill:#020303;}.cls-8{opacity:0.05;}.cls-9{fill:#b6bdbf;}.cls-10{fill:#f2f1f1;}.cls-14,.cls-15{fill:#5a6169;}.cls-16{fill:#98abb5;}.cls-17{fill:#7a8b90;stroke:#687476;stroke-width:0.156px;}.cls-17,.cls-21,.cls-22,.cls-28,.cls-31,.cls-32{stroke-miterlimit:10;}.cls-18{fill:#b7bec0;}.cls-19{fill:#f3f2f3;}.cls-20{fill:#010101;opacity:0.15;}.cls-21{fill:#7a8d92;stroke:#758488;stroke-width:0.344px;}.cls-22{stroke:#91a5ac;stroke-width:0.391px;}.cls-23,.cls-24{opacity:0.4;}.cls-24{fill:#59b9d1;}.cls-25{fill:#5a5859;opacity:0.74;}.cls-26{fill:#fff;}.cls-27{fill:#eaf1f1;}.cls-28,.cls-31,.cls-32{fill:none;}.cls-28{stroke:#7a8d92;stroke-width:0.29px;}.cls-30{fill:#767e7f;}.cls-31{stroke:#ededed;stroke-width:8px;}.cls-32{stroke:#efeff0;stroke-width:4.061px;}</style></defs><title>VALENCIA-VALE-L2</title><g id="Shadow"><polygon class="cls-1" points="0 24.968 466.903 24.968 466.903 49.161 561.226 49.161 561.226 309.839 546.5 330.613 466.903 330.613 466.903 359.839 452.177 376.581 15.5 376.581 0 360.339 0 24.968"/></g><g id="BG"><polygon class="cls-2" points="4 4 466.903 4 466.903 28.194 557.226 28.194 557.226 307.645 466.903 307.645 466.903 355.613 4 355.613 4 4"/></g><g id="Highlights"><rect class="cls-3" x="4" y="4" width="187.097" height="133.065"/><polygon class="cls-3" points="276.581 4 276.581 85.452 397.548 85.452 397.548 115.839 466.5 115.839 466.5 304.806 557.226 304.806 557.226 28.194 466.5 28.194 466.5 4 276.581 4"/></g><g id="Furn"><path class="cls-4" d="M467.374,140.356l-.172-.172-9.936-8.558c0-.115-.172-.172-.172-.287l-1.608-1.608a.975.975,0,0,0-1.321-.057h0l-.057.057h0l-8.673,8.673a.975.975,0,0,0-.057,1.321h0l.057.057,1.436,1.781a.152.152,0,0,1,.172.172h0l8.443,10.166a.879.879,0,0,0,.4.287h0a1.046,1.046,0,0,0,1.378.115h0l.574-.574a.88.88,0,0,0,.287-.4,39.765,39.765,0,0,0,8.558-8.443c.115,0,.287-.172.4-.287l.574-.574a.975.975,0,0,0,.057-1.321l-.057-.057h0Z" transform="translate(-121 -114.161)"/><path class="cls-5" d="M466.742,139.725l-.172-.172-9.936-8.558c0-.115-.172-.172-.172-.287l-1.608-1.608a.975.975,0,0,0-1.321-.057h0l-.057.057h0l-.8.8-7.179,7.065-.632.632a.975.975,0,0,0-.057,1.321h0l.057.057,1.436,1.781a.152.152,0,0,1,.172.172h0L454.91,151.1a.879.879,0,0,0,.4.287h0a.918.918,0,0,0,1.321.172h0l.057-.057h0l.574-.574a.88.88,0,0,0,.287-.4,39.765,39.765,0,0,0,8.558-8.443c.115,0,.287-.172.4-.287l.574-.574a.975.975,0,0,0,.057-1.321h0l-.057-.057-.345-.115Z" transform="translate(-121 -114.161)"/><path class="cls-6" d="M466.4,140.758h0a41.173,41.173,0,0,1-10.281,10.166h0a1.124,1.124,0,0,1-1.608-.23h0l-9.477-11.43a1.876,1.876,0,0,1,.172-2.585l7.179-7.065a2.165,2.165,0,0,1,2.585-.172l11.257,9.649A1.3,1.3,0,0,1,466.4,140.758Z" transform="translate(-121 -114.161)"/><path class="cls-7" d="M456.059,131.8l-8.845,8.73a.975.975,0,0,1-1.321.057h0l-.057-.057h0l-1.436-1.781a1.21,1.21,0,0,1,0-1.378l8.845-8.73a.975.975,0,0,1,1.321-.057h0l.057.057,1.608,1.608A1.294,1.294,0,0,1,456.059,131.8Z" transform="translate(-121 -114.161)"/><path class="cls-7" d="M456.805,150.58l-.574.574a1.057,1.057,0,0,1-1.378-.115l-.057-.057h0l-10.281-12.349,1.378-1.264,10.913,11.717a1.075,1.075,0,0,1,0,1.493Z" transform="translate(-121 -114.161)"/><path class="cls-7" d="M466.167,141.677l.574-.574a.975.975,0,0,0,.057-1.321l-.057-.057h0L454.45,129.271l-1.264,1.378,11.545,11.085a1.06,1.06,0,0,0,1.436-.057Z" transform="translate(-121 -114.161)"/><path class="cls-4" d="M475.517,171.138l.172.172,9.936,8.558c0,.115.172.172.172.287l1.608,1.608a.975.975,0,0,0,1.321.057h0l.057-.057h0l8.673-8.673a.975.975,0,0,0,.057-1.321h0l-.057-.057-1.436-1.781a.152.152,0,0,1-.172-.172h0l-8.443-10.166a.879.879,0,0,0-.4-.287h0a1.046,1.046,0,0,0-1.378-.115h0l-.574.574a.88.88,0,0,0-.287.4,39.765,39.765,0,0,0-8.558,8.443c-.115,0-.287.172-.4.287l-.574.574a.975.975,0,0,0-.057,1.321l.057.057h0Z" transform="translate(-121 -114.161)"/><path class="cls-5" d="M476.149,171.77l.172.172,9.936,8.558c0,.115.172.172.172.287l1.608,1.608a.975.975,0,0,0,1.321.057h0l.057-.057h0l.8-.8,7.179-7.065.632-.632a.975.975,0,0,0,.057-1.321h0l-.057-.057-1.436-1.781a.152.152,0,0,1-.172-.172h0L487.98,160.4a.879.879,0,0,0-.4-.287h0a.918.918,0,0,0-1.321-.172h0L486.2,160h0l-.574.574a.88.88,0,0,0-.287.4,39.765,39.765,0,0,0-8.558,8.443c-.115,0-.287.172-.4.287l-.574.574a.975.975,0,0,0-.057,1.321h0l.057.057.345.115Z" transform="translate(-121 -114.161)"/><path class="cls-6" d="M476.493,170.736h0a41.173,41.173,0,0,1,10.281-10.166h0a1.124,1.124,0,0,1,1.608.23h0l9.477,11.43a1.876,1.876,0,0,1-.172,2.585l-7.179,7.065a2.165,2.165,0,0,1-2.585.172L476.665,172.4A1.3,1.3,0,0,1,476.493,170.736Z" transform="translate(-121 -114.161)"/><path class="cls-7" d="M486.832,179.7l8.845-8.73a.975.975,0,0,1,1.321-.057h0l.057.057h0l1.436,1.781a1.21,1.21,0,0,1,0,1.378l-8.845,8.73a.975.975,0,0,1-1.321.057h0l-.057-.057-1.608-1.608A1.294,1.294,0,0,1,486.832,179.7Z" transform="translate(-121 -114.161)"/><path class="cls-7" d="M486.085,160.914l.574-.574a1.057,1.057,0,0,1,1.378.115l.057.057h0l10.281,12.349L497,174.124l-10.913-11.717a1.075,1.075,0,0,1,0-1.493Z" transform="translate(-121 -114.161)"/><path class="cls-7" d="M476.723,169.817l-.574.574a.975.975,0,0,0-.057,1.321l.057.057h0l12.291,10.453,1.264-1.378-11.545-11.085a1.06,1.06,0,0,0-1.436.057Z" transform="translate(-121 -114.161)"/><rect class="cls-8" x="54.5" y="192.108" width="33.163" height="52.296" rx="2.023" ry="2.023"/><rect class="cls-9" x="54.5" y="190.646" width="33.163" height="52.296" rx="2.023" ry="2.023"/><rect class="cls-10" x="54.5" y="189.305" width="33.163" height="52.296" rx="2.023" ry="2.023"/><rect class="cls-8" x="87.663" y="192.108" width="33.163" height="52.296" rx="2.023" ry="2.023"/><rect class="cls-9" x="87.663" y="190.646" width="33.163" height="52.296" rx="2.023" ry="2.023"/><rect class="cls-10" x="87.663" y="189.305" width="33.163" height="52.296" rx="2.023" ry="2.023"/><rect class="cls-8" x="54.5" y="246.987" width="33.163" height="52.296" rx="2.023" ry="2.023"/><rect class="cls-9" x="54.5" y="245.525" width="33.163" height="52.296" rx="2.023" ry="2.023"/><rect class="cls-10" x="54.5" y="244.184" width="33.163" height="52.296" rx="2.023" ry="2.023"/><rect class="cls-8" x="87.663" y="246.987" width="33.163" height="52.296" rx="2.023" ry="2.023"/><rect class="cls-9" x="87.663" y="245.525" width="33.163" height="52.296" rx="2.023" ry="2.023"/><rect class="cls-10" x="87.663" y="244.184" width="33.163" height="52.296" rx="2.023" ry="2.023"/><rect class="cls-8" x="54.5" y="301.745" width="33.163" height="52.296" rx="2.023" ry="2.023"/><rect class="cls-9" x="54.5" y="300.282" width="33.163" height="52.296" rx="2.023" ry="2.023"/><rect class="cls-10" x="54.5" y="298.941" width="33.163" height="52.296" rx="2.023" ry="2.023"/><rect class="cls-8" x="87.663" y="301.745" width="33.163" height="52.296" rx="2.023" ry="2.023"/><rect class="cls-9" x="87.663" y="300.282" width="33.163" height="52.296" rx="2.023" ry="2.023"/><rect class="cls-10" x="87.663" y="298.941" width="33.163" height="52.296" rx="2.023" ry="2.023"/><g class="cls-11"><path class="cls-12" d="M246.172,432.427a25.458,25.458,0,0,0-1.073,8.164,49.266,49.266,0,0,0,.537,8.164l14.032-1.353V433.78Z" transform="translate(-121 -114.161)"/><path class="cls-13" d="M246.359,433.764s9.914.945,9.914,6.828-9.914,6.8-9.914,6.8h14.356v-12.87Z" transform="translate(-121 -114.161)"/><path class="cls-12" d="M259.667,433.78l-.095.737a1.1,1.1,0,0,1-1.152.954l-11.965-.718a1.1,1.1,0,0,1-1.021-1.233l.283-2.2a1.1,1.1,0,0,1,1.286-.937l11.778,2.18A1.1,1.1,0,0,1,259.667,433.78Z" transform="translate(-121 -114.161)"/><path class="cls-12" d="M259.667,447.4l-.095-.737a1.1,1.1,0,0,0-1.152-.954l-11.965.718a1.1,1.1,0,0,0-1.021,1.233l.283,2.2A1.1,1.1,0,0,0,247,450.8l11.778-2.18A1.1,1.1,0,0,0,259.667,447.4Z" transform="translate(-121 -114.161)"/><rect class="cls-12" x="252.551" y="437.913" width="16.328" height="5.356" rx="1.394" ry="1.394" transform="translate(580.307 65.715) rotate(90)"/></g><path class="cls-14" d="M246.881,432.427a25.458,25.458,0,0,0-1.073,8.164,49.266,49.266,0,0,0,.537,8.164l14.032-1.353V433.78Z" transform="translate(-121 -114.161)"/><path class="cls-15" d="M247.068,433.764s9.914.945,9.914,6.828-9.914,6.8-9.914,6.8h14.356v-12.87Z" transform="translate(-121 -114.161)"/><path class="cls-14" d="M260.376,433.78l-.095.737a1.1,1.1,0,0,1-1.152.954l-11.965-.718a1.1,1.1,0,0,1-1.021-1.233l.283-2.2a1.1,1.1,0,0,1,1.286-.937l11.778,2.18A1.1,1.1,0,0,1,260.376,433.78Z" transform="translate(-121 -114.161)"/><path class="cls-14" d="M260.376,447.4l-.095-.737a1.1,1.1,0,0,0-1.152-.954l-11.965.718a1.1,1.1,0,0,0-1.021,1.233l.283,2.2a1.1,1.1,0,0,0,1.286.937l11.778-2.18A1.1,1.1,0,0,0,260.376,447.4Z" transform="translate(-121 -114.161)"/><rect class="cls-14" x="253.26" y="437.913" width="16.328" height="5.356" rx="1.394" ry="1.394" transform="translate(581.015 65.006) rotate(90)"/><path class="cls-16" d="M247.589,432.427a25.458,25.458,0,0,0-1.073,8.164,49.266,49.266,0,0,0,.537,8.164l14.032-1.353V433.78Z" transform="translate(-121 -114.161)"/><path class="cls-13" d="M247.777,433.764s9.914.945,9.914,6.828-9.914,6.8-9.914,6.8h14.356v-12.87Z" transform="translate(-121 -114.161)"/><path class="cls-17" d="M261.084,433.78l-.095.737a1.1,1.1,0,0,1-1.152.954l-11.965-.718a1.1,1.1,0,0,1-1.021-1.233l.283-2.2a1.1,1.1,0,0,1,1.286-.937l11.778,2.18A1.1,1.1,0,0,1,261.084,433.78Z" transform="translate(-121 -114.161)"/><path class="cls-17" d="M261.084,447.4l-.095-.737a1.1,1.1,0,0,0-1.152-.954l-11.965.718a1.1,1.1,0,0,0-1.021,1.233l.283,2.2a1.1,1.1,0,0,0,1.286.937l11.778-2.18A1.1,1.1,0,0,0,261.084,447.4Z" transform="translate(-121 -114.161)"/><rect class="cls-17" x="253.969" y="437.913" width="16.328" height="5.356" rx="1.394" ry="1.394" transform="translate(581.724 64.298) rotate(90)"/><g class="cls-11"><path class="cls-12" d="M246.172,322.791a25.458,25.458,0,0,0-1.073,8.164,49.266,49.266,0,0,0,.537,8.164l14.032-1.353V324.143Z" transform="translate(-121 -114.161)"/><path class="cls-13" d="M246.359,324.127s9.914.945,9.914,6.828-9.914,6.8-9.914,6.8h14.356V324.88Z" transform="translate(-121 -114.161)"/><path class="cls-12" d="M259.667,324.143l-.095.737a1.1,1.1,0,0,1-1.152.954l-11.965-.718a1.1,1.1,0,0,1-1.021-1.233l.283-2.2a1.1,1.1,0,0,1,1.286-.937l11.778,2.18A1.1,1.1,0,0,1,259.667,324.143Z" transform="translate(-121 -114.161)"/><path class="cls-12" d="M259.667,337.766l-.095-.737a1.1,1.1,0,0,0-1.152-.954l-11.965.718a1.1,1.1,0,0,0-1.021,1.233l.283,2.2a1.1,1.1,0,0,0,1.286.937l11.778-2.18A1.1,1.1,0,0,0,259.667,337.766Z" transform="translate(-121 -114.161)"/><rect class="cls-12" x="252.551" y="328.277" width="16.328" height="5.356" rx="1.394" ry="1.394" transform="translate(470.67 -43.922) rotate(90)"/></g><path class="cls-14" d="M246.881,322.791a25.458,25.458,0,0,0-1.073,8.164,49.266,49.266,0,0,0,.537,8.164l14.032-1.353V324.143Z" transform="translate(-121 -114.161)"/><path class="cls-15" d="M247.068,324.127s9.914.945,9.914,6.828-9.914,6.8-9.914,6.8h14.356V324.88Z" transform="translate(-121 -114.161)"/><path class="cls-14" d="M260.376,324.143l-.095.737a1.1,1.1,0,0,1-1.152.954l-11.965-.718a1.1,1.1,0,0,1-1.021-1.233l.283-2.2a1.1,1.1,0,0,1,1.286-.937l11.778,2.18A1.1,1.1,0,0,1,260.376,324.143Z" transform="translate(-121 -114.161)"/><path class="cls-14" d="M260.376,337.766l-.095-.737a1.1,1.1,0,0,0-1.152-.954l-11.965.718a1.1,1.1,0,0,0-1.021,1.233l.283,2.2a1.1,1.1,0,0,0,1.286.937l11.778-2.18A1.1,1.1,0,0,0,260.376,337.766Z" transform="translate(-121 -114.161)"/><rect class="cls-14" x="253.26" y="328.277" width="16.328" height="5.356" rx="1.394" ry="1.394" transform="translate(471.379 -44.63) rotate(90)"/><path class="cls-16" d="M247.589,322.791a25.458,25.458,0,0,0-1.073,8.164,49.266,49.266,0,0,0,.537,8.164l14.032-1.353V324.143Z" transform="translate(-121 -114.161)"/><path class="cls-13" d="M247.777,324.127s9.914.945,9.914,6.828-9.914,6.8-9.914,6.8h14.356V324.88Z" transform="translate(-121 -114.161)"/><path class="cls-17" d="M261.084,324.143l-.095.737a1.1,1.1,0,0,1-1.152.954l-11.965-.718a1.1,1.1,0,0,1-1.021-1.233l.283-2.2a1.1,1.1,0,0,1,1.286-.937l11.778,2.18A1.1,1.1,0,0,1,261.084,324.143Z" transform="translate(-121 -114.161)"/><path class="cls-17" d="M261.084,337.766l-.095-.737a1.1,1.1,0,0,0-1.152-.954l-11.965.718a1.1,1.1,0,0,0-1.021,1.233l.283,2.2a1.1,1.1,0,0,0,1.286.937l11.778-2.18A1.1,1.1,0,0,0,261.084,337.766Z" transform="translate(-121 -114.161)"/><rect class="cls-17" x="253.969" y="328.277" width="16.328" height="5.356" rx="1.394" ry="1.394" transform="translate(472.088 -45.339) rotate(90)"/><g class="cls-11"><path class="cls-12" d="M246.172,377.67a25.458,25.458,0,0,0-1.073,8.164,49.266,49.266,0,0,0,.537,8.164l14.032-1.353V379.023Z" transform="translate(-121 -114.161)"/><path class="cls-13" d="M246.359,379.006s9.914.945,9.914,6.828-9.914,6.8-9.914,6.8h14.356V379.76Z" transform="translate(-121 -114.161)"/><path class="cls-12" d="M259.667,379.023l-.095.737a1.1,1.1,0,0,1-1.152.954L246.455,380a1.1,1.1,0,0,1-1.021-1.233l.283-2.2a1.1,1.1,0,0,1,1.286-.937l11.778,2.18A1.1,1.1,0,0,1,259.667,379.023Z" transform="translate(-121 -114.161)"/><path class="cls-12" d="M259.667,392.646l-.095-.737a1.1,1.1,0,0,0-1.152-.954l-11.965.718a1.1,1.1,0,0,0-1.021,1.233l.283,2.2a1.1,1.1,0,0,0,1.286.937l11.778-2.18A1.1,1.1,0,0,0,259.667,392.646Z" transform="translate(-121 -114.161)"/><rect class="cls-12" x="252.551" y="383.156" width="16.328" height="5.356" rx="1.394" ry="1.394" transform="translate(525.549 10.958) rotate(90)"/></g><path class="cls-14" d="M246.881,377.67a25.458,25.458,0,0,0-1.073,8.164,49.266,49.266,0,0,0,.537,8.164l14.032-1.353V379.023Z" transform="translate(-121 -114.161)"/><path class="cls-15" d="M247.068,379.006s9.914.945,9.914,6.828-9.914,6.8-9.914,6.8h14.356V379.76Z" transform="translate(-121 -114.161)"/><path class="cls-14" d="M260.376,379.023l-.095.737a1.1,1.1,0,0,1-1.152.954L247.164,380a1.1,1.1,0,0,1-1.021-1.233l.283-2.2a1.1,1.1,0,0,1,1.286-.937l11.778,2.18A1.1,1.1,0,0,1,260.376,379.023Z" transform="translate(-121 -114.161)"/><path class="cls-14" d="M260.376,392.646l-.095-.737a1.1,1.1,0,0,0-1.152-.954l-11.965.718a1.1,1.1,0,0,0-1.021,1.233l.283,2.2a1.1,1.1,0,0,0,1.286.937l11.778-2.18A1.1,1.1,0,0,0,260.376,392.646Z" transform="translate(-121 -114.161)"/><rect class="cls-14" x="253.26" y="383.156" width="16.328" height="5.356" rx="1.394" ry="1.394" transform="translate(526.258 10.249) rotate(90)"/><path class="cls-16" d="M247.589,377.67a25.458,25.458,0,0,0-1.073,8.164,49.266,49.266,0,0,0,.537,8.164l14.032-1.353V379.023Z" transform="translate(-121 -114.161)"/><path class="cls-13" d="M247.777,379.006s9.914.945,9.914,6.828-9.914,6.8-9.914,6.8h14.356V379.76Z" transform="translate(-121 -114.161)"/><path class="cls-17" d="M261.084,379.023l-.095.737a1.1,1.1,0,0,1-1.152.954L247.872,380a1.1,1.1,0,0,1-1.021-1.233l.283-2.2a1.1,1.1,0,0,1,1.286-.937l11.778,2.18A1.1,1.1,0,0,1,261.084,379.023Z" transform="translate(-121 -114.161)"/><path class="cls-17" d="M261.084,392.646l-.095-.737a1.1,1.1,0,0,0-1.152-.954l-11.965.718a1.1,1.1,0,0,0-1.021,1.233l.283,2.2a1.1,1.1,0,0,0,1.286.937l11.778-2.18A1.1,1.1,0,0,0,261.084,392.646Z" transform="translate(-121 -114.161)"/><rect class="cls-17" x="253.969" y="383.156" width="16.328" height="5.356" rx="1.394" ry="1.394" transform="translate(526.967 9.54) rotate(90)"/><g class="cls-11"><path class="cls-12" d="M170.817,339.119a25.458,25.458,0,0,0,1.073-8.164,49.266,49.266,0,0,0-.537-8.164l-14.032,1.353v13.623Z" transform="translate(-121 -114.161)"/><path class="cls-13" d="M170.63,337.783s-9.914-.945-9.914-6.828,9.914-6.8,9.914-6.8H156.274v12.87Z" transform="translate(-121 -114.161)"/><path class="cls-12" d="M157.322,337.766l.095-.737a1.1,1.1,0,0,1,1.152-.954l11.965.718a1.1,1.1,0,0,1,1.021,1.233l-.283,2.2a1.1,1.1,0,0,1-1.286.937l-11.778-2.18A1.1,1.1,0,0,1,157.322,337.766Z" transform="translate(-121 -114.161)"/><path class="cls-12" d="M157.322,324.143l.095.737a1.1,1.1,0,0,0,1.152.954l11.965-.718a1.1,1.1,0,0,0,1.021-1.233l-.283-2.2a1.1,1.1,0,0,0-1.286-.937l-11.778,2.18A1.1,1.1,0,0,0,157.322,324.143Z" transform="translate(-121 -114.161)"/><rect class="cls-12" x="148.11" y="328.277" width="16.328" height="5.356" rx="1.394" ry="1.394" transform="translate(-295.681 373.067) rotate(-90)"/></g><path class="cls-14" d="M170.108,339.119a25.458,25.458,0,0,0,1.073-8.164,49.266,49.266,0,0,0-.537-8.164l-14.032,1.353v13.623Z" transform="translate(-121 -114.161)"/><path class="cls-15" d="M169.921,337.783s-9.914-.945-9.914-6.828,9.914-6.8,9.914-6.8H155.565v12.87Z" transform="translate(-121 -114.161)"/><path class="cls-14" d="M156.613,337.766l.095-.737a1.1,1.1,0,0,1,1.152-.954l11.965.718a1.1,1.1,0,0,1,1.021,1.233l-.283,2.2a1.1,1.1,0,0,1-1.286.937l-11.778-2.18A1.1,1.1,0,0,1,156.613,337.766Z" transform="translate(-121 -114.161)"/><path class="cls-14" d="M156.613,324.143l.095.737a1.1,1.1,0,0,0,1.152.954l11.965-.718a1.1,1.1,0,0,0,1.021-1.233l-.283-2.2a1.1,1.1,0,0,0-1.286-.937l-11.778,2.18A1.1,1.1,0,0,0,156.613,324.143Z" transform="translate(-121 -114.161)"/><rect class="cls-14" x="147.401" y="328.277" width="16.328" height="5.356" rx="1.394" ry="1.394" transform="translate(-296.39 372.359) rotate(-90)"/><path class="cls-16" d="M169.4,339.119a25.458,25.458,0,0,0,1.073-8.164,49.266,49.266,0,0,0-.537-8.164L155.9,324.143v13.623Z" transform="translate(-121 -114.161)"/><path class="cls-13" d="M169.212,337.783s-9.914-.945-9.914-6.828,9.914-6.8,9.914-6.8H154.856v12.87Z" transform="translate(-121 -114.161)"/><path class="cls-17" d="M155.9,337.766l.095-.737a1.1,1.1,0,0,1,1.152-.954l11.965.718a1.1,1.1,0,0,1,1.021,1.233l-.283,2.2a1.1,1.1,0,0,1-1.286.937l-11.778-2.18A1.1,1.1,0,0,1,155.9,337.766Z" transform="translate(-121 -114.161)"/><path class="cls-17" d="M155.9,324.143l.095.737a1.1,1.1,0,0,0,1.152.954l11.965-.718a1.1,1.1,0,0,0,1.021-1.233l-.283-2.2a1.1,1.1,0,0,0-1.286-.937l-11.778,2.18A1.1,1.1,0,0,0,155.9,324.143Z" transform="translate(-121 -114.161)"/><rect class="cls-17" x="146.692" y="328.277" width="16.328" height="5.356" rx="1.394" ry="1.394" transform="translate(-297.099 371.65) rotate(-90)"/><g class="cls-11"><path class="cls-12" d="M170.817,448.756a25.458,25.458,0,0,0,1.073-8.164,49.266,49.266,0,0,0-.537-8.164l-14.032,1.353V447.4Z" transform="translate(-121 -114.161)"/><path class="cls-13" d="M170.63,447.419s-9.914-.945-9.914-6.828,9.914-6.8,9.914-6.8H156.274v12.87Z" transform="translate(-121 -114.161)"/><path class="cls-12" d="M157.322,447.4l.095-.737a1.1,1.1,0,0,1,1.152-.954l11.965.718a1.1,1.1,0,0,1,1.021,1.233l-.283,2.2a1.1,1.1,0,0,1-1.286.937l-11.778-2.18A1.1,1.1,0,0,1,157.322,447.4Z" transform="translate(-121 -114.161)"/><path class="cls-12" d="M157.322,433.78l.095.737a1.1,1.1,0,0,0,1.152.954l11.965-.718a1.1,1.1,0,0,0,1.021-1.233l-.283-2.2a1.1,1.1,0,0,0-1.286-.937l-11.778,2.18A1.1,1.1,0,0,0,157.322,433.78Z" transform="translate(-121 -114.161)"/><rect class="cls-12" x="148.11" y="437.913" width="16.328" height="5.356" rx="1.394" ry="1.394" transform="translate(-405.318 482.704) rotate(-90)"/></g><path class="cls-14" d="M170.108,448.756a25.458,25.458,0,0,0,1.073-8.164,49.266,49.266,0,0,0-.537-8.164l-14.032,1.353V447.4Z" transform="translate(-121 -114.161)"/><path class="cls-15" d="M169.921,447.419s-9.914-.945-9.914-6.828,9.914-6.8,9.914-6.8H155.565v12.87Z" transform="translate(-121 -114.161)"/><path class="cls-14" d="M156.613,447.4l.095-.737a1.1,1.1,0,0,1,1.152-.954l11.965.718a1.1,1.1,0,0,1,1.021,1.233l-.283,2.2a1.1,1.1,0,0,1-1.286.937L157.5,448.62A1.1,1.1,0,0,1,156.613,447.4Z" transform="translate(-121 -114.161)"/><path class="cls-14" d="M156.613,433.78l.095.737a1.1,1.1,0,0,0,1.152.954l11.965-.718a1.1,1.1,0,0,0,1.021-1.233l-.283-2.2a1.1,1.1,0,0,0-1.286-.937l-11.778,2.18A1.1,1.1,0,0,0,156.613,433.78Z" transform="translate(-121 -114.161)"/><rect class="cls-14" x="147.401" y="437.913" width="16.328" height="5.356" rx="1.394" ry="1.394" transform="translate(-406.026 481.995) rotate(-90)"/><path class="cls-16" d="M169.4,448.756a25.458,25.458,0,0,0,1.073-8.164,49.266,49.266,0,0,0-.537-8.164L155.9,433.78V447.4Z" transform="translate(-121 -114.161)"/><path class="cls-13" d="M169.212,447.419s-9.914-.945-9.914-6.828,9.914-6.8,9.914-6.8H154.856v12.87Z" transform="translate(-121 -114.161)"/><path class="cls-17" d="M155.9,447.4l.095-.737a1.1,1.1,0,0,1,1.152-.954l11.965.718a1.1,1.1,0,0,1,1.021,1.233l-.283,2.2a1.1,1.1,0,0,1-1.286.937l-11.778-2.18A1.1,1.1,0,0,1,155.9,447.4Z" transform="translate(-121 -114.161)"/><path class="cls-17" d="M155.9,433.78l.095.737a1.1,1.1,0,0,0,1.152.954l11.965-.718a1.1,1.1,0,0,0,1.021-1.233l-.283-2.2a1.1,1.1,0,0,0-1.286-.937l-11.778,2.18A1.1,1.1,0,0,0,155.9,433.78Z" transform="translate(-121 -114.161)"/><rect class="cls-17" x="146.692" y="437.913" width="16.328" height="5.356" rx="1.394" ry="1.394" transform="translate(-406.735 481.287) rotate(-90)"/><g class="cls-11"><path class="cls-12" d="M170.817,393.876a25.458,25.458,0,0,0,1.073-8.164,49.266,49.266,0,0,0-.537-8.164L157.322,378.9v13.623Z" transform="translate(-121 -114.161)"/><path class="cls-13" d="M170.63,392.54s-9.914-.945-9.914-6.828,9.914-6.8,9.914-6.8H156.274v12.87Z" transform="translate(-121 -114.161)"/><path class="cls-12" d="M157.322,392.524l.095-.737a1.1,1.1,0,0,1,1.152-.954l11.965.718a1.1,1.1,0,0,1,1.021,1.233l-.283,2.2a1.1,1.1,0,0,1-1.286.937l-11.778-2.18A1.1,1.1,0,0,1,157.322,392.524Z" transform="translate(-121 -114.161)"/><path class="cls-12" d="M157.322,378.9l.095.737a1.1,1.1,0,0,0,1.152.954l11.965-.718a1.1,1.1,0,0,0,1.021-1.233l-.283-2.2a1.1,1.1,0,0,0-1.286-.937l-11.778,2.18A1.1,1.1,0,0,0,157.322,378.9Z" transform="translate(-121 -114.161)"/><rect class="cls-12" x="148.11" y="383.034" width="16.328" height="5.356" rx="1.394" ry="1.394" transform="translate(-350.439 427.825) rotate(-90)"/></g><path class="cls-14" d="M170.108,393.876a25.458,25.458,0,0,0,1.073-8.164,49.266,49.266,0,0,0-.537-8.164L156.613,378.9v13.623Z" transform="translate(-121 -114.161)"/><path class="cls-15" d="M169.921,392.54s-9.914-.945-9.914-6.828,9.914-6.8,9.914-6.8H155.565v12.87Z" transform="translate(-121 -114.161)"/><path class="cls-14" d="M156.613,392.524l.095-.737a1.1,1.1,0,0,1,1.152-.954l11.965.718a1.1,1.1,0,0,1,1.021,1.233l-.283,2.2a1.1,1.1,0,0,1-1.286.937L157.5,393.74A1.1,1.1,0,0,1,156.613,392.524Z" transform="translate(-121 -114.161)"/><path class="cls-14" d="M156.613,378.9l.095.737a1.1,1.1,0,0,0,1.152.954l11.965-.718a1.1,1.1,0,0,0,1.021-1.233l-.283-2.2a1.1,1.1,0,0,0-1.286-.937l-11.778,2.18A1.1,1.1,0,0,0,156.613,378.9Z" transform="translate(-121 -114.161)"/><rect class="cls-14" x="147.401" y="383.034" width="16.328" height="5.356" rx="1.394" ry="1.394" transform="translate(-351.147 427.116) rotate(-90)"/><path class="cls-16" d="M169.4,393.876a25.458,25.458,0,0,0,1.073-8.164,49.266,49.266,0,0,0-.537-8.164L155.9,378.9v13.623Z" transform="translate(-121 -114.161)"/><path class="cls-13" d="M169.212,392.54s-9.914-.945-9.914-6.828,9.914-6.8,9.914-6.8H154.856v12.87Z" transform="translate(-121 -114.161)"/><path class="cls-17" d="M155.9,392.524l.095-.737a1.1,1.1,0,0,1,1.152-.954l11.965.718a1.1,1.1,0,0,1,1.021,1.233l-.283,2.2a1.1,1.1,0,0,1-1.286.937l-11.778-2.18A1.1,1.1,0,0,1,155.9,392.524Z" transform="translate(-121 -114.161)"/><path class="cls-17" d="M155.9,378.9l.095.737a1.1,1.1,0,0,0,1.152.954l11.965-.718a1.1,1.1,0,0,0,1.021-1.233l-.283-2.2a1.1,1.1,0,0,0-1.286-.937l-11.778,2.18A1.1,1.1,0,0,0,155.9,378.9Z" transform="translate(-121 -114.161)"/><rect class="cls-17" x="146.692" y="383.034" width="16.328" height="5.356" rx="1.394" ry="1.394" transform="translate(-351.856 426.407) rotate(-90)"/><rect class="cls-8" x="191.303" y="192.108" width="33.163" height="52.296" rx="2.023" ry="2.023"/><rect class="cls-9" x="191.303" y="190.646" width="33.163" height="52.296" rx="2.023" ry="2.023"/><rect class="cls-10" x="191.303" y="189.305" width="33.163" height="52.296" rx="2.023" ry="2.023"/><rect class="cls-8" x="224.465" y="192.108" width="33.163" height="52.296" rx="2.023" ry="2.023"/><rect class="cls-9" x="224.465" y="190.646" width="33.163" height="52.296" rx="2.023" ry="2.023"/><rect class="cls-10" x="224.465" y="189.305" width="33.163" height="52.296" rx="2.023" ry="2.023"/><rect class="cls-8" x="191.303" y="246.987" width="33.163" height="52.296" rx="2.023" ry="2.023"/><rect class="cls-9" x="191.303" y="245.525" width="33.163" height="52.296" rx="2.023" ry="2.023"/><rect class="cls-10" x="191.303" y="244.184" width="33.163" height="52.296" rx="2.023" ry="2.023"/><rect class="cls-8" x="224.465" y="246.987" width="33.163" height="52.296" rx="2.023" ry="2.023"/><rect class="cls-9" x="224.465" y="245.525" width="33.163" height="52.296" rx="2.023" ry="2.023"/><rect class="cls-10" x="224.465" y="244.184" width="33.163" height="52.296" rx="2.023" ry="2.023"/><rect class="cls-8" x="191.303" y="301.745" width="33.163" height="52.296" rx="2.023" ry="2.023"/><rect class="cls-9" x="191.303" y="300.282" width="33.163" height="52.296" rx="2.023" ry="2.023"/><rect class="cls-10" x="191.303" y="298.941" width="33.163" height="52.296" rx="2.023" ry="2.023"/><rect class="cls-8" x="224.465" y="301.745" width="33.163" height="52.296" rx="2.023" ry="2.023"/><rect class="cls-9" x="224.465" y="300.282" width="33.163" height="52.296" rx="2.023" ry="2.023"/><rect class="cls-10" x="224.465" y="298.941" width="33.163" height="52.296" rx="2.023" ry="2.023"/><g class="cls-11"><path class="cls-12" d="M382.974,432.427a25.458,25.458,0,0,0-1.073,8.164,49.266,49.266,0,0,0,.537,8.164l14.032-1.353V433.78Z" transform="translate(-121 -114.161)"/><path class="cls-13" d="M383.161,433.764s9.914.945,9.914,6.828-9.914,6.8-9.914,6.8h14.356v-12.87Z" transform="translate(-121 -114.161)"/><path class="cls-12" d="M396.469,433.78l-.095.737a1.1,1.1,0,0,1-1.152.954l-11.965-.718a1.1,1.1,0,0,1-1.021-1.233l.283-2.2a1.1,1.1,0,0,1,1.286-.937l11.778,2.18A1.1,1.1,0,0,1,396.469,433.78Z" transform="translate(-121 -114.161)"/><path class="cls-12" d="M396.469,447.4l-.095-.737a1.1,1.1,0,0,0-1.152-.954l-11.965.718a1.1,1.1,0,0,0-1.021,1.233l.283,2.2a1.1,1.1,0,0,0,1.286.937l11.778-2.18A1.1,1.1,0,0,0,396.469,447.4Z" transform="translate(-121 -114.161)"/><rect class="cls-12" x="389.353" y="437.913" width="16.328" height="5.356" rx="1.394" ry="1.394" transform="translate(717.109 -71.087) rotate(90)"/></g><path class="cls-14" d="M383.683,432.427a25.458,25.458,0,0,0-1.073,8.164,49.266,49.266,0,0,0,.537,8.164l14.032-1.353V433.78Z" transform="translate(-121 -114.161)"/><path class="cls-15" d="M383.87,433.764s9.914.945,9.914,6.828-9.914,6.8-9.914,6.8h14.356v-12.87Z" transform="translate(-121 -114.161)"/><path class="cls-14" d="M397.178,433.78l-.095.737a1.1,1.1,0,0,1-1.152.954l-11.965-.718a1.1,1.1,0,0,1-1.021-1.233l.283-2.2a1.1,1.1,0,0,1,1.286-.937l11.778,2.18A1.1,1.1,0,0,1,397.178,433.78Z" transform="translate(-121 -114.161)"/><path class="cls-14" d="M397.178,447.4l-.095-.737a1.1,1.1,0,0,0-1.152-.954l-11.965.718a1.1,1.1,0,0,0-1.021,1.233l.283,2.2a1.1,1.1,0,0,0,1.286.937l11.778-2.18A1.1,1.1,0,0,0,397.178,447.4Z" transform="translate(-121 -114.161)"/><rect class="cls-14" x="390.062" y="437.913" width="16.328" height="5.356" rx="1.394" ry="1.394" transform="translate(717.818 -71.796) rotate(90)"/><path class="cls-16" d="M384.391,432.427a25.458,25.458,0,0,0-1.073,8.164,49.266,49.266,0,0,0,.537,8.164l14.032-1.353V433.78Z" transform="translate(-121 -114.161)"/><path class="cls-13" d="M384.579,433.764s9.914.945,9.914,6.828-9.914,6.8-9.914,6.8h14.356v-12.87Z" transform="translate(-121 -114.161)"/><path class="cls-17" d="M397.887,433.78l-.095.737a1.1,1.1,0,0,1-1.152.954l-11.965-.718a1.1,1.1,0,0,1-1.021-1.233l.283-2.2a1.1,1.1,0,0,1,1.286-.937L397,432.563A1.1,1.1,0,0,1,397.887,433.78Z" transform="translate(-121 -114.161)"/><path class="cls-17" d="M397.887,447.4l-.095-.737a1.1,1.1,0,0,0-1.152-.954l-11.965.718a1.1,1.1,0,0,0-1.021,1.233l.283,2.2a1.1,1.1,0,0,0,1.286.937L397,448.62A1.1,1.1,0,0,0,397.887,447.4Z" transform="translate(-121 -114.161)"/><rect class="cls-17" x="390.771" y="437.913" width="16.328" height="5.356" rx="1.394" ry="1.394" transform="translate(718.526 -72.505) rotate(90)"/><g class="cls-11"><path class="cls-12" d="M382.974,322.791a25.458,25.458,0,0,0-1.073,8.164,49.266,49.266,0,0,0,.537,8.164l14.032-1.353V324.143Z" transform="translate(-121 -114.161)"/><path class="cls-13" d="M383.161,324.127s9.914.945,9.914,6.828-9.914,6.8-9.914,6.8h14.356V324.88Z" transform="translate(-121 -114.161)"/><path class="cls-12" d="M396.469,324.143l-.095.737a1.1,1.1,0,0,1-1.152.954l-11.965-.718a1.1,1.1,0,0,1-1.021-1.233l.283-2.2a1.1,1.1,0,0,1,1.286-.937l11.778,2.18A1.1,1.1,0,0,1,396.469,324.143Z" transform="translate(-121 -114.161)"/><path class="cls-12" d="M396.469,337.766l-.095-.737a1.1,1.1,0,0,0-1.152-.954l-11.965.718a1.1,1.1,0,0,0-1.021,1.233l.283,2.2a1.1,1.1,0,0,0,1.286.937l11.778-2.18A1.1,1.1,0,0,0,396.469,337.766Z" transform="translate(-121 -114.161)"/><rect class="cls-12" x="389.353" y="328.277" width="16.328" height="5.356" rx="1.394" ry="1.394" transform="translate(607.472 -180.724) rotate(90)"/></g><path class="cls-14" d="M383.683,322.791a25.458,25.458,0,0,0-1.073,8.164,49.266,49.266,0,0,0,.537,8.164l14.032-1.353V324.143Z" transform="translate(-121 -114.161)"/><path class="cls-15" d="M383.87,324.127s9.914.945,9.914,6.828-9.914,6.8-9.914,6.8h14.356V324.88Z" transform="translate(-121 -114.161)"/><path class="cls-14" d="M397.178,324.143l-.095.737a1.1,1.1,0,0,1-1.152.954l-11.965-.718a1.1,1.1,0,0,1-1.021-1.233l.283-2.2a1.1,1.1,0,0,1,1.286-.937l11.778,2.18A1.1,1.1,0,0,1,397.178,324.143Z" transform="translate(-121 -114.161)"/><path class="cls-14" d="M397.178,337.766l-.095-.737a1.1,1.1,0,0,0-1.152-.954l-11.965.718a1.1,1.1,0,0,0-1.021,1.233l.283,2.2a1.1,1.1,0,0,0,1.286.937l11.778-2.18A1.1,1.1,0,0,0,397.178,337.766Z" transform="translate(-121 -114.161)"/><rect class="cls-14" x="390.062" y="328.277" width="16.328" height="5.356" rx="1.394" ry="1.394" transform="translate(608.181 -181.433) rotate(90)"/><path class="cls-16" d="M384.391,322.791a25.458,25.458,0,0,0-1.073,8.164,49.266,49.266,0,0,0,.537,8.164l14.032-1.353V324.143Z" transform="translate(-121 -114.161)"/><path class="cls-13" d="M384.579,324.127s9.914.945,9.914,6.828-9.914,6.8-9.914,6.8h14.356V324.88Z" transform="translate(-121 -114.161)"/><path class="cls-17" d="M397.887,324.143l-.095.737a1.1,1.1,0,0,1-1.152.954l-11.965-.718a1.1,1.1,0,0,1-1.021-1.233l.283-2.2a1.1,1.1,0,0,1,1.286-.937L397,322.927A1.1,1.1,0,0,1,397.887,324.143Z" transform="translate(-121 -114.161)"/><path class="cls-17" d="M397.887,337.766l-.095-.737a1.1,1.1,0,0,0-1.152-.954l-11.965.718a1.1,1.1,0,0,0-1.021,1.233l.283,2.2a1.1,1.1,0,0,0,1.286.937L397,338.983A1.1,1.1,0,0,0,397.887,337.766Z" transform="translate(-121 -114.161)"/><rect class="cls-17" x="390.771" y="328.277" width="16.328" height="5.356" rx="1.394" ry="1.394" transform="translate(608.89 -182.141) rotate(90)"/><g class="cls-11"><path class="cls-12" d="M382.974,377.67a25.458,25.458,0,0,0-1.073,8.164,49.266,49.266,0,0,0,.537,8.164l14.032-1.353V379.023Z" transform="translate(-121 -114.161)"/><path class="cls-13" d="M383.161,379.006s9.914.945,9.914,6.828-9.914,6.8-9.914,6.8h14.356V379.76Z" transform="translate(-121 -114.161)"/><path class="cls-12" d="M396.469,379.023l-.095.737a1.1,1.1,0,0,1-1.152.954L383.257,380a1.1,1.1,0,0,1-1.021-1.233l.283-2.2a1.1,1.1,0,0,1,1.286-.937l11.778,2.18A1.1,1.1,0,0,1,396.469,379.023Z" transform="translate(-121 -114.161)"/><path class="cls-12" d="M396.469,392.646l-.095-.737a1.1,1.1,0,0,0-1.152-.954l-11.965.718a1.1,1.1,0,0,0-1.021,1.233l.283,2.2a1.1,1.1,0,0,0,1.286.937l11.778-2.18A1.1,1.1,0,0,0,396.469,392.646Z" transform="translate(-121 -114.161)"/><rect class="cls-12" x="389.353" y="383.156" width="16.328" height="5.356" rx="1.394" ry="1.394" transform="translate(662.352 -125.845) rotate(90)"/></g><path class="cls-14" d="M383.683,377.67a25.458,25.458,0,0,0-1.073,8.164,49.266,49.266,0,0,0,.537,8.164l14.032-1.353V379.023Z" transform="translate(-121 -114.161)"/><path class="cls-15" d="M383.87,379.006s9.914.945,9.914,6.828-9.914,6.8-9.914,6.8h14.356V379.76Z" transform="translate(-121 -114.161)"/><path class="cls-14" d="M397.178,379.023l-.095.737a1.1,1.1,0,0,1-1.152.954L383.966,380a1.1,1.1,0,0,1-1.021-1.233l.283-2.2a1.1,1.1,0,0,1,1.286-.937l11.778,2.18A1.1,1.1,0,0,1,397.178,379.023Z" transform="translate(-121 -114.161)"/><path class="cls-14" d="M397.178,392.646l-.095-.737a1.1,1.1,0,0,0-1.152-.954l-11.965.718a1.1,1.1,0,0,0-1.021,1.233l.283,2.2a1.1,1.1,0,0,0,1.286.937l11.778-2.18A1.1,1.1,0,0,0,397.178,392.646Z" transform="translate(-121 -114.161)"/><rect class="cls-14" x="390.062" y="383.156" width="16.328" height="5.356" rx="1.394" ry="1.394" transform="translate(663.06 -126.553) rotate(90)"/><path class="cls-16" d="M384.391,377.67a25.458,25.458,0,0,0-1.073,8.164,49.266,49.266,0,0,0,.537,8.164l14.032-1.353V379.023Z" transform="translate(-121 -114.161)"/><path class="cls-13" d="M384.579,379.006s9.914.945,9.914,6.828-9.914,6.8-9.914,6.8h14.356V379.76Z" transform="translate(-121 -114.161)"/><path class="cls-17" d="M397.887,379.023l-.095.737a1.1,1.1,0,0,1-1.152.954L384.675,380a1.1,1.1,0,0,1-1.021-1.233l.283-2.2a1.1,1.1,0,0,1,1.286-.937L397,377.806A1.1,1.1,0,0,1,397.887,379.023Z" transform="translate(-121 -114.161)"/><path class="cls-17" d="M397.887,392.646l-.095-.737a1.1,1.1,0,0,0-1.152-.954l-11.965.718a1.1,1.1,0,0,0-1.021,1.233l.283,2.2a1.1,1.1,0,0,0,1.286.937L397,393.862A1.1,1.1,0,0,0,397.887,392.646Z" transform="translate(-121 -114.161)"/><rect class="cls-17" x="390.771" y="383.156" width="16.328" height="5.356" rx="1.394" ry="1.394" transform="translate(663.769 -127.262) rotate(90)"/><g class="cls-11"><path class="cls-12" d="M307.619,339.119a25.458,25.458,0,0,0,1.073-8.164,49.266,49.266,0,0,0-.537-8.164l-14.032,1.353v13.623Z" transform="translate(-121 -114.161)"/><path class="cls-13" d="M307.432,337.783s-9.914-.945-9.914-6.828,9.914-6.8,9.914-6.8H293.076v12.87Z" transform="translate(-121 -114.161)"/><path class="cls-12" d="M294.124,337.766l.095-.737a1.1,1.1,0,0,1,1.152-.954l11.965.718a1.1,1.1,0,0,1,1.021,1.233l-.283,2.2a1.1,1.1,0,0,1-1.286.937l-11.778-2.18A1.1,1.1,0,0,1,294.124,337.766Z" transform="translate(-121 -114.161)"/><path class="cls-12" d="M294.124,324.143l.095.737a1.1,1.1,0,0,0,1.152.954l11.965-.718a1.1,1.1,0,0,0,1.021-1.233l-.283-2.2a1.1,1.1,0,0,0-1.286-.937l-11.778,2.18A1.1,1.1,0,0,0,294.124,324.143Z" transform="translate(-121 -114.161)"/><rect class="cls-12" x="284.912" y="328.277" width="16.328" height="5.356" rx="1.394" ry="1.394" transform="translate(-158.879 509.87) rotate(-90)"/></g><path class="cls-14" d="M306.911,339.119a25.458,25.458,0,0,0,1.073-8.164,49.266,49.266,0,0,0-.537-8.164l-14.032,1.353v13.623Z" transform="translate(-121 -114.161)"/><path class="cls-15" d="M306.723,337.783s-9.914-.945-9.914-6.828,9.914-6.8,9.914-6.8H292.367v12.87Z" transform="translate(-121 -114.161)"/><path class="cls-14" d="M293.416,337.766l.095-.737a1.1,1.1,0,0,1,1.152-.954l11.965.718a1.1,1.1,0,0,1,1.021,1.233l-.283,2.2a1.1,1.1,0,0,1-1.286.937l-11.778-2.18A1.1,1.1,0,0,1,293.416,337.766Z" transform="translate(-121 -114.161)"/><path class="cls-14" d="M293.416,324.143l.095.737a1.1,1.1,0,0,0,1.152.954l11.965-.718a1.1,1.1,0,0,0,1.021-1.233l-.283-2.2a1.1,1.1,0,0,0-1.286-.937l-11.778,2.18A1.1,1.1,0,0,0,293.416,324.143Z" transform="translate(-121 -114.161)"/><rect class="cls-14" x="284.203" y="328.277" width="16.328" height="5.356" rx="1.394" ry="1.394" transform="translate(-159.588 509.161) rotate(-90)"/><path class="cls-16" d="M306.2,339.119a25.458,25.458,0,0,0,1.073-8.164,49.266,49.266,0,0,0-.537-8.164l-14.032,1.353v13.623Z" transform="translate(-121 -114.161)"/><path class="cls-13" d="M306.015,337.783s-9.914-.945-9.914-6.828,9.914-6.8,9.914-6.8H291.659v12.87Z" transform="translate(-121 -114.161)"/><path class="cls-17" d="M292.707,337.766l.095-.737a1.1,1.1,0,0,1,1.152-.954l11.965.718a1.1,1.1,0,0,1,1.021,1.233l-.283,2.2a1.1,1.1,0,0,1-1.286.937l-11.778-2.18A1.1,1.1,0,0,1,292.707,337.766Z" transform="translate(-121 -114.161)"/><path class="cls-17" d="M292.707,324.143l.095.737a1.1,1.1,0,0,0,1.152.954l11.965-.718a1.1,1.1,0,0,0,1.021-1.233l-.283-2.2a1.1,1.1,0,0,0-1.286-.937l-11.778,2.18A1.1,1.1,0,0,0,292.707,324.143Z" transform="translate(-121 -114.161)"/><rect class="cls-17" x="283.494" y="328.277" width="16.328" height="5.356" rx="1.394" ry="1.394" transform="translate(-160.296 508.452) rotate(-90)"/><g class="cls-11"><path class="cls-12" d="M307.619,448.756a25.458,25.458,0,0,0,1.073-8.164,49.266,49.266,0,0,0-.537-8.164l-14.032,1.353V447.4Z" transform="translate(-121 -114.161)"/><path class="cls-13" d="M307.432,447.419s-9.914-.945-9.914-6.828,9.914-6.8,9.914-6.8H293.076v12.87Z" transform="translate(-121 -114.161)"/><path class="cls-12" d="M294.124,447.4l.095-.737a1.1,1.1,0,0,1,1.152-.954l11.965.718a1.1,1.1,0,0,1,1.021,1.233l-.283,2.2a1.1,1.1,0,0,1-1.286.937l-11.778-2.18A1.1,1.1,0,0,1,294.124,447.4Z" transform="translate(-121 -114.161)"/><path class="cls-12" d="M294.124,433.78l.095.737a1.1,1.1,0,0,0,1.152.954l11.965-.718a1.1,1.1,0,0,0,1.021-1.233l-.283-2.2a1.1,1.1,0,0,0-1.286-.937l-11.778,2.18A1.1,1.1,0,0,0,294.124,433.78Z" transform="translate(-121 -114.161)"/><rect class="cls-12" x="284.912" y="437.913" width="16.328" height="5.356" rx="1.394" ry="1.394" transform="translate(-268.516 619.506) rotate(-90)"/></g><path class="cls-14" d="M306.911,448.756a25.458,25.458,0,0,0,1.073-8.164,49.266,49.266,0,0,0-.537-8.164l-14.032,1.353V447.4Z" transform="translate(-121 -114.161)"/><path class="cls-15" d="M306.723,447.419s-9.914-.945-9.914-6.828,9.914-6.8,9.914-6.8H292.367v12.87Z" transform="translate(-121 -114.161)"/><path class="cls-14" d="M293.416,447.4l.095-.737a1.1,1.1,0,0,1,1.152-.954l11.965.718a1.1,1.1,0,0,1,1.021,1.233l-.283,2.2a1.1,1.1,0,0,1-1.286.937L294.3,448.62A1.1,1.1,0,0,1,293.416,447.4Z" transform="translate(-121 -114.161)"/><path class="cls-14" d="M293.416,433.78l.095.737a1.1,1.1,0,0,0,1.152.954l11.965-.718a1.1,1.1,0,0,0,1.021-1.233l-.283-2.2a1.1,1.1,0,0,0-1.286-.937l-11.778,2.18A1.1,1.1,0,0,0,293.416,433.78Z" transform="translate(-121 -114.161)"/><rect class="cls-14" x="284.203" y="437.913" width="16.328" height="5.356" rx="1.394" ry="1.394" transform="translate(-269.224 618.797) rotate(-90)"/><path class="cls-16" d="M306.2,448.756a25.458,25.458,0,0,0,1.073-8.164,49.266,49.266,0,0,0-.537-8.164l-14.032,1.353V447.4Z" transform="translate(-121 -114.161)"/><path class="cls-13" d="M306.015,447.419s-9.914-.945-9.914-6.828,9.914-6.8,9.914-6.8H291.659v12.87Z" transform="translate(-121 -114.161)"/><path class="cls-17" d="M292.707,447.4l.095-.737a1.1,1.1,0,0,1,1.152-.954l11.965.718a1.1,1.1,0,0,1,1.021,1.233l-.283,2.2a1.1,1.1,0,0,1-1.286.937l-11.778-2.18A1.1,1.1,0,0,1,292.707,447.4Z" transform="translate(-121 -114.161)"/><path class="cls-17" d="M292.707,433.78l.095.737a1.1,1.1,0,0,0,1.152.954l11.965-.718a1.1,1.1,0,0,0,1.021-1.233l-.283-2.2a1.1,1.1,0,0,0-1.286-.937l-11.778,2.18A1.1,1.1,0,0,0,292.707,433.78Z" transform="translate(-121 -114.161)"/><rect class="cls-17" x="283.494" y="437.913" width="16.328" height="5.356" rx="1.394" ry="1.394" transform="translate(-269.933 618.089) rotate(-90)"/><g class="cls-11"><path class="cls-12" d="M307.619,393.876a25.458,25.458,0,0,0,1.073-8.164,49.266,49.266,0,0,0-.537-8.164L294.124,378.9v13.623Z" transform="translate(-121 -114.161)"/><path class="cls-13" d="M307.432,392.54s-9.914-.945-9.914-6.828,9.914-6.8,9.914-6.8H293.076v12.87Z" transform="translate(-121 -114.161)"/><path class="cls-12" d="M294.124,392.524l.095-.737a1.1,1.1,0,0,1,1.152-.954l11.965.718a1.1,1.1,0,0,1,1.021,1.233l-.283,2.2a1.1,1.1,0,0,1-1.286.937l-11.778-2.18A1.1,1.1,0,0,1,294.124,392.524Z" transform="translate(-121 -114.161)"/><path class="cls-12" d="M294.124,378.9l.095.737a1.1,1.1,0,0,0,1.152.954l11.965-.718a1.1,1.1,0,0,0,1.021-1.233l-.283-2.2a1.1,1.1,0,0,0-1.286-.937l-11.778,2.18A1.1,1.1,0,0,0,294.124,378.9Z" transform="translate(-121 -114.161)"/><rect class="cls-12" x="284.912" y="383.034" width="16.328" height="5.356" rx="1.394" ry="1.394" transform="translate(-213.636 564.627) rotate(-90)"/></g><path class="cls-14" d="M306.911,393.876a25.458,25.458,0,0,0,1.073-8.164,49.266,49.266,0,0,0-.537-8.164L293.416,378.9v13.623Z" transform="translate(-121 -114.161)"/><path class="cls-15" d="M306.723,392.54s-9.914-.945-9.914-6.828,9.914-6.8,9.914-6.8H292.367v12.87Z" transform="translate(-121 -114.161)"/><path class="cls-14" d="M293.416,392.524l.095-.737a1.1,1.1,0,0,1,1.152-.954l11.965.718a1.1,1.1,0,0,1,1.021,1.233l-.283,2.2a1.1,1.1,0,0,1-1.286.937L294.3,393.74A1.1,1.1,0,0,1,293.416,392.524Z" transform="translate(-121 -114.161)"/><path class="cls-14" d="M293.416,378.9l.095.737a1.1,1.1,0,0,0,1.152.954l11.965-.718a1.1,1.1,0,0,0,1.021-1.233l-.283-2.2a1.1,1.1,0,0,0-1.286-.937l-11.778,2.18A1.1,1.1,0,0,0,293.416,378.9Z" transform="translate(-121 -114.161)"/><rect class="cls-14" x="284.203" y="383.034" width="16.328" height="5.356" rx="1.394" ry="1.394" transform="translate(-214.345 563.918) rotate(-90)"/><path class="cls-16" d="M306.2,393.876a25.458,25.458,0,0,0,1.073-8.164,49.266,49.266,0,0,0-.537-8.164L292.707,378.9v13.623Z" transform="translate(-121 -114.161)"/><path class="cls-13" d="M306.015,392.54s-9.914-.945-9.914-6.828,9.914-6.8,9.914-6.8H291.659v12.87Z" transform="translate(-121 -114.161)"/><path class="cls-17" d="M292.707,392.524l.095-.737a1.1,1.1,0,0,1,1.152-.954l11.965.718a1.1,1.1,0,0,1,1.021,1.233l-.283,2.2a1.1,1.1,0,0,1-1.286.937l-11.778-2.18A1.1,1.1,0,0,1,292.707,392.524Z" transform="translate(-121 -114.161)"/><path class="cls-17" d="M292.707,378.9l.095.737a1.1,1.1,0,0,0,1.152.954l11.965-.718a1.1,1.1,0,0,0,1.021-1.233l-.283-2.2a1.1,1.1,0,0,0-1.286-.937l-11.778,2.18A1.1,1.1,0,0,0,292.707,378.9Z" transform="translate(-121 -114.161)"/><rect class="cls-17" x="283.494" y="383.034" width="16.328" height="5.356" rx="1.394" ry="1.394" transform="translate(-215.054 563.21) rotate(-90)"/><rect class="cls-8" x="346.636" y="192.108" width="33.163" height="52.296" rx="2.023" ry="2.023"/><rect class="cls-9" x="346.636" y="190.646" width="33.163" height="52.296" rx="2.023" ry="2.023"/><rect class="cls-10" x="346.636" y="189.305" width="33.163" height="52.296" rx="2.023" ry="2.023"/><rect class="cls-8" x="379.799" y="192.108" width="33.163" height="52.296" rx="2.023" ry="2.023"/><rect class="cls-9" x="379.799" y="190.646" width="33.163" height="52.296" rx="2.023" ry="2.023"/><rect class="cls-10" x="379.799" y="189.305" width="33.163" height="52.296" rx="2.023" ry="2.023"/><rect class="cls-8" x="346.636" y="246.987" width="33.163" height="52.296" rx="2.023" ry="2.023"/><rect class="cls-9" x="346.636" y="245.525" width="33.163" height="52.296" rx="2.023" ry="2.023"/><rect class="cls-10" x="346.636" y="244.184" width="33.163" height="52.296" rx="2.023" ry="2.023"/><rect class="cls-8" x="379.799" y="246.987" width="33.163" height="52.296" rx="2.023" ry="2.023"/><rect class="cls-9" x="379.799" y="245.525" width="33.163" height="52.296" rx="2.023" ry="2.023"/><rect class="cls-10" x="379.799" y="244.184" width="33.163" height="52.296" rx="2.023" ry="2.023"/><rect class="cls-8" x="346.636" y="301.745" width="33.163" height="52.296" rx="2.023" ry="2.023"/><rect class="cls-9" x="346.636" y="300.282" width="33.163" height="52.296" rx="2.023" ry="2.023"/><rect class="cls-10" x="346.636" y="298.941" width="33.163" height="52.296" rx="2.023" ry="2.023"/><rect class="cls-8" x="379.799" y="301.745" width="33.163" height="52.296" rx="2.023" ry="2.023"/><rect class="cls-9" x="379.799" y="300.282" width="33.163" height="52.296" rx="2.023" ry="2.023"/><rect class="cls-10" x="379.799" y="298.941" width="33.163" height="52.296" rx="2.023" ry="2.023"/><g class="cls-11"><path class="cls-12" d="M538.307,432.427a25.458,25.458,0,0,0-1.073,8.164,49.266,49.266,0,0,0,.537,8.164L551.8,447.4V433.78Z" transform="translate(-121 -114.161)"/><path class="cls-13" d="M538.495,433.764s9.914.945,9.914,6.828-9.914,6.8-9.914,6.8h14.356v-12.87Z" transform="translate(-121 -114.161)"/><path class="cls-12" d="M551.8,433.78l-.095.737a1.1,1.1,0,0,1-1.152.954l-11.965-.718a1.1,1.1,0,0,1-1.021-1.233l.283-2.2a1.1,1.1,0,0,1,1.286-.937l11.778,2.18A1.1,1.1,0,0,1,551.8,433.78Z" transform="translate(-121 -114.161)"/><path class="cls-12" d="M551.8,447.4l-.095-.737a1.1,1.1,0,0,0-1.152-.954l-11.965.718a1.1,1.1,0,0,0-1.021,1.233l.283,2.2a1.1,1.1,0,0,0,1.286.937l11.778-2.18A1.1,1.1,0,0,0,551.8,447.4Z" transform="translate(-121 -114.161)"/><rect class="cls-12" x="544.687" y="437.913" width="16.328" height="5.356" rx="1.394" ry="1.394" transform="translate(872.442 -226.421) rotate(90)"/></g><path class="cls-14" d="M539.016,432.427a25.458,25.458,0,0,0-1.073,8.164,49.266,49.266,0,0,0,.537,8.164l14.032-1.353V433.78Z" transform="translate(-121 -114.161)"/><path class="cls-15" d="M539.2,433.764s9.914.945,9.914,6.828-9.914,6.8-9.914,6.8H553.56v-12.87Z" transform="translate(-121 -114.161)"/><path class="cls-14" d="M552.511,433.78l-.095.737a1.1,1.1,0,0,1-1.152.954l-11.965-.718a1.1,1.1,0,0,1-1.021-1.233l.283-2.2a1.1,1.1,0,0,1,1.286-.937l11.778,2.18A1.1,1.1,0,0,1,552.511,433.78Z" transform="translate(-121 -114.161)"/><path class="cls-14" d="M552.511,447.4l-.095-.737a1.1,1.1,0,0,0-1.152-.954l-11.965.718a1.1,1.1,0,0,0-1.021,1.233l.283,2.2a1.1,1.1,0,0,0,1.286.937l11.778-2.18A1.1,1.1,0,0,0,552.511,447.4Z" transform="translate(-121 -114.161)"/><rect class="cls-14" x="545.395" y="437.913" width="16.328" height="5.356" rx="1.394" ry="1.394" transform="translate(873.151 -227.129) rotate(90)"/><path class="cls-16" d="M539.725,432.427a25.458,25.458,0,0,0-1.073,8.164,49.266,49.266,0,0,0,.537,8.164L553.22,447.4V433.78Z" transform="translate(-121 -114.161)"/><path class="cls-13" d="M539.912,433.764s9.914.945,9.914,6.828-9.914,6.8-9.914,6.8h14.356v-12.87Z" transform="translate(-121 -114.161)"/><path class="cls-17" d="M553.22,433.78l-.095.737a1.1,1.1,0,0,1-1.152.954l-11.965-.718a1.1,1.1,0,0,1-1.021-1.233l.283-2.2a1.1,1.1,0,0,1,1.286-.937l11.778,2.18A1.1,1.1,0,0,1,553.22,433.78Z" transform="translate(-121 -114.161)"/><path class="cls-17" d="M553.22,447.4l-.095-.737a1.1,1.1,0,0,0-1.152-.954l-11.965.718a1.1,1.1,0,0,0-1.021,1.233l.283,2.2a1.1,1.1,0,0,0,1.286.937l11.778-2.18A1.1,1.1,0,0,0,553.22,447.4Z" transform="translate(-121 -114.161)"/><rect class="cls-17" x="546.104" y="437.913" width="16.328" height="5.356" rx="1.394" ry="1.394" transform="translate(873.86 -227.838) rotate(90)"/><g class="cls-11"><path class="cls-12" d="M538.307,322.791a25.458,25.458,0,0,0-1.073,8.164,49.266,49.266,0,0,0,.537,8.164l14.032-1.353V324.143Z" transform="translate(-121 -114.161)"/><path class="cls-13" d="M538.495,324.127s9.914.945,9.914,6.828-9.914,6.8-9.914,6.8h14.356V324.88Z" transform="translate(-121 -114.161)"/><path class="cls-12" d="M551.8,324.143l-.095.737a1.1,1.1,0,0,1-1.152.954l-11.965-.718a1.1,1.1,0,0,1-1.021-1.233l.283-2.2a1.1,1.1,0,0,1,1.286-.937l11.778,2.18A1.1,1.1,0,0,1,551.8,324.143Z" transform="translate(-121 -114.161)"/><path class="cls-12" d="M551.8,337.766l-.095-.737a1.1,1.1,0,0,0-1.152-.954l-11.965.718a1.1,1.1,0,0,0-1.021,1.233l.283,2.2a1.1,1.1,0,0,0,1.286.937l11.778-2.18A1.1,1.1,0,0,0,551.8,337.766Z" transform="translate(-121 -114.161)"/><rect class="cls-12" x="544.687" y="328.277" width="16.328" height="5.356" rx="1.394" ry="1.394" transform="translate(762.806 -336.057) rotate(90)"/></g><path class="cls-14" d="M539.016,322.791a25.458,25.458,0,0,0-1.073,8.164,49.266,49.266,0,0,0,.537,8.164l14.032-1.353V324.143Z" transform="translate(-121 -114.161)"/><path class="cls-15" d="M539.2,324.127s9.914.945,9.914,6.828-9.914,6.8-9.914,6.8H553.56V324.88Z" transform="translate(-121 -114.161)"/><path class="cls-14" d="M552.511,324.143l-.095.737a1.1,1.1,0,0,1-1.152.954l-11.965-.718a1.1,1.1,0,0,1-1.021-1.233l.283-2.2a1.1,1.1,0,0,1,1.286-.937l11.778,2.18A1.1,1.1,0,0,1,552.511,324.143Z" transform="translate(-121 -114.161)"/><path class="cls-14" d="M552.511,337.766l-.095-.737a1.1,1.1,0,0,0-1.152-.954l-11.965.718a1.1,1.1,0,0,0-1.021,1.233l.283,2.2a1.1,1.1,0,0,0,1.286.937l11.778-2.18A1.1,1.1,0,0,0,552.511,337.766Z" transform="translate(-121 -114.161)"/><rect class="cls-14" x="545.395" y="328.277" width="16.328" height="5.356" rx="1.394" ry="1.394" transform="translate(763.514 -336.766) rotate(90)"/><path class="cls-16" d="M539.725,322.791a25.458,25.458,0,0,0-1.073,8.164,49.266,49.266,0,0,0,.537,8.164l14.032-1.353V324.143Z" transform="translate(-121 -114.161)"/><path class="cls-13" d="M539.912,324.127s9.914.945,9.914,6.828-9.914,6.8-9.914,6.8h14.356V324.88Z" transform="translate(-121 -114.161)"/><path class="cls-17" d="M553.22,324.143l-.095.737a1.1,1.1,0,0,1-1.152.954l-11.965-.718a1.1,1.1,0,0,1-1.021-1.233l.283-2.2a1.1,1.1,0,0,1,1.286-.937l11.778,2.18A1.1,1.1,0,0,1,553.22,324.143Z" transform="translate(-121 -114.161)"/><path class="cls-17" d="M553.22,337.766l-.095-.737a1.1,1.1,0,0,0-1.152-.954l-11.965.718a1.1,1.1,0,0,0-1.021,1.233l.283,2.2a1.1,1.1,0,0,0,1.286.937l11.778-2.18A1.1,1.1,0,0,0,553.22,337.766Z" transform="translate(-121 -114.161)"/><rect class="cls-17" x="546.104" y="328.277" width="16.328" height="5.356" rx="1.394" ry="1.394" transform="translate(764.223 -337.475) rotate(90)"/><g class="cls-11"><path class="cls-12" d="M538.307,377.67a25.458,25.458,0,0,0-1.073,8.164,49.266,49.266,0,0,0,.537,8.164l14.032-1.353V379.023Z" transform="translate(-121 -114.161)"/><path class="cls-13" d="M538.495,379.006s9.914.945,9.914,6.828-9.914,6.8-9.914,6.8h14.356V379.76Z" transform="translate(-121 -114.161)"/><path class="cls-12" d="M551.8,379.023l-.095.737a1.1,1.1,0,0,1-1.152.954L538.59,380a1.1,1.1,0,0,1-1.021-1.233l.283-2.2a1.1,1.1,0,0,1,1.286-.937l11.778,2.18A1.1,1.1,0,0,1,551.8,379.023Z" transform="translate(-121 -114.161)"/><path class="cls-12" d="M551.8,392.646l-.095-.737a1.1,1.1,0,0,0-1.152-.954l-11.965.718a1.1,1.1,0,0,0-1.021,1.233l.283,2.2a1.1,1.1,0,0,0,1.286.937l11.778-2.18A1.1,1.1,0,0,0,551.8,392.646Z" transform="translate(-121 -114.161)"/><rect class="cls-12" x="544.687" y="383.156" width="16.328" height="5.356" rx="1.394" ry="1.394" transform="translate(817.685 -281.178) rotate(90)"/></g><path class="cls-14" d="M539.016,377.67a25.458,25.458,0,0,0-1.073,8.164,49.266,49.266,0,0,0,.537,8.164l14.032-1.353V379.023Z" transform="translate(-121 -114.161)"/><path class="cls-15" d="M539.2,379.006s9.914.945,9.914,6.828-9.914,6.8-9.914,6.8H553.56V379.76Z" transform="translate(-121 -114.161)"/><path class="cls-14" d="M552.511,379.023l-.095.737a1.1,1.1,0,0,1-1.152.954L539.3,380a1.1,1.1,0,0,1-1.021-1.233l.283-2.2a1.1,1.1,0,0,1,1.286-.937l11.778,2.18A1.1,1.1,0,0,1,552.511,379.023Z" transform="translate(-121 -114.161)"/><path class="cls-14" d="M552.511,392.646l-.095-.737a1.1,1.1,0,0,0-1.152-.954l-11.965.718a1.1,1.1,0,0,0-1.021,1.233l.283,2.2a1.1,1.1,0,0,0,1.286.937l11.778-2.18A1.1,1.1,0,0,0,552.511,392.646Z" transform="translate(-121 -114.161)"/><rect class="cls-14" x="545.395" y="383.156" width="16.328" height="5.356" rx="1.394" ry="1.394" transform="translate(818.394 -281.887) rotate(90)"/><path class="cls-16" d="M539.725,377.67a25.458,25.458,0,0,0-1.073,8.164,49.266,49.266,0,0,0,.537,8.164l14.032-1.353V379.023Z" transform="translate(-121 -114.161)"/><path class="cls-13" d="M539.912,379.006s9.914.945,9.914,6.828-9.914,6.8-9.914,6.8h14.356V379.76Z" transform="translate(-121 -114.161)"/><path class="cls-17" d="M553.22,379.023l-.095.737a1.1,1.1,0,0,1-1.152.954L540.008,380a1.1,1.1,0,0,1-1.021-1.233l.283-2.2a1.1,1.1,0,0,1,1.286-.937l11.778,2.18A1.1,1.1,0,0,1,553.22,379.023Z" transform="translate(-121 -114.161)"/><path class="cls-17" d="M553.22,392.646l-.095-.737a1.1,1.1,0,0,0-1.152-.954l-11.965.718a1.1,1.1,0,0,0-1.021,1.233l.283,2.2a1.1,1.1,0,0,0,1.286.937l11.778-2.18A1.1,1.1,0,0,0,553.22,392.646Z" transform="translate(-121 -114.161)"/><rect class="cls-17" x="546.104" y="383.156" width="16.328" height="5.356" rx="1.394" ry="1.394" transform="translate(819.102 -282.595) rotate(90)"/><g class="cls-11"><path class="cls-12" d="M462.953,339.119a25.458,25.458,0,0,0,1.073-8.164,49.266,49.266,0,0,0-.537-8.164l-14.032,1.353v13.623Z" transform="translate(-121 -114.161)"/><path class="cls-13" d="M462.765,337.783s-9.914-.945-9.914-6.828,9.914-6.8,9.914-6.8H448.409v12.87Z" transform="translate(-121 -114.161)"/><path class="cls-12" d="M449.458,337.766l.095-.737a1.1,1.1,0,0,1,1.152-.954l11.965.718a1.1,1.1,0,0,1,1.021,1.233l-.283,2.2a1.1,1.1,0,0,1-1.286.937l-11.778-2.18A1.1,1.1,0,0,1,449.458,337.766Z" transform="translate(-121 -114.161)"/><path class="cls-12" d="M449.458,324.143l.095.737a1.1,1.1,0,0,0,1.152.954l11.965-.718a1.1,1.1,0,0,0,1.021-1.233l-.283-2.2a1.1,1.1,0,0,0-1.286-.937l-11.778,2.18A1.1,1.1,0,0,0,449.458,324.143Z" transform="translate(-121 -114.161)"/><rect class="cls-12" x="440.245" y="328.277" width="16.328" height="5.356" rx="1.394" ry="1.394" transform="translate(-3.546 665.203) rotate(-90)"/></g><path class="cls-14" d="M462.244,339.119a25.458,25.458,0,0,0,1.073-8.164,49.266,49.266,0,0,0-.537-8.164l-14.032,1.353v13.623Z" transform="translate(-121 -114.161)"/><path class="cls-15" d="M462.057,337.783s-9.914-.945-9.914-6.828,9.914-6.8,9.914-6.8H447.7v12.87Z" transform="translate(-121 -114.161)"/><path class="cls-14" d="M448.749,337.766l.095-.737a1.1,1.1,0,0,1,1.152-.954l11.965.718a1.1,1.1,0,0,1,1.021,1.233l-.283,2.2a1.1,1.1,0,0,1-1.286.937l-11.778-2.18A1.1,1.1,0,0,1,448.749,337.766Z" transform="translate(-121 -114.161)"/><path class="cls-14" d="M448.749,324.143l.095.737a1.1,1.1,0,0,0,1.152.954l11.965-.718a1.1,1.1,0,0,0,1.021-1.233l-.283-2.2a1.1,1.1,0,0,0-1.286-.937l-11.778,2.18A1.1,1.1,0,0,0,448.749,324.143Z" transform="translate(-121 -114.161)"/><rect class="cls-14" x="439.537" y="328.277" width="16.328" height="5.356" rx="1.394" ry="1.394" transform="translate(-4.254 664.494) rotate(-90)"/><path class="cls-16" d="M461.535,339.119a25.458,25.458,0,0,0,1.073-8.164,49.266,49.266,0,0,0-.537-8.164l-14.032,1.353v13.623Z" transform="translate(-121 -114.161)"/><path class="cls-13" d="M461.348,337.783s-9.914-.945-9.914-6.828,9.914-6.8,9.914-6.8H446.992v12.87Z" transform="translate(-121 -114.161)"/><path class="cls-17" d="M448.04,337.766l.095-.737a1.1,1.1,0,0,1,1.152-.954l11.965.718a1.1,1.1,0,0,1,1.021,1.233l-.283,2.2a1.1,1.1,0,0,1-1.286.937l-11.778-2.18A1.1,1.1,0,0,1,448.04,337.766Z" transform="translate(-121 -114.161)"/><path class="cls-17" d="M448.04,324.143l.095.737a1.1,1.1,0,0,0,1.152.954l11.965-.718a1.1,1.1,0,0,0,1.021-1.233l-.283-2.2a1.1,1.1,0,0,0-1.286-.937l-11.778,2.18A1.1,1.1,0,0,0,448.04,324.143Z" transform="translate(-121 -114.161)"/><rect class="cls-17" x="438.828" y="328.277" width="16.328" height="5.356" rx="1.394" ry="1.394" transform="translate(-4.963 663.786) rotate(-90)"/><g class="cls-11"><path class="cls-12" d="M462.953,448.756a25.458,25.458,0,0,0,1.073-8.164,49.266,49.266,0,0,0-.537-8.164l-14.032,1.353V447.4Z" transform="translate(-121 -114.161)"/><path class="cls-13" d="M462.765,447.419s-9.914-.945-9.914-6.828,9.914-6.8,9.914-6.8H448.409v12.87Z" transform="translate(-121 -114.161)"/><path class="cls-12" d="M449.458,447.4l.095-.737a1.1,1.1,0,0,1,1.152-.954l11.965.718a1.1,1.1,0,0,1,1.021,1.233l-.283,2.2a1.1,1.1,0,0,1-1.286.937l-11.778-2.18A1.1,1.1,0,0,1,449.458,447.4Z" transform="translate(-121 -114.161)"/><path class="cls-12" d="M449.458,433.78l.095.737a1.1,1.1,0,0,0,1.152.954l11.965-.718a1.1,1.1,0,0,0,1.021-1.233l-.283-2.2a1.1,1.1,0,0,0-1.286-.937l-11.778,2.18A1.1,1.1,0,0,0,449.458,433.78Z" transform="translate(-121 -114.161)"/><rect class="cls-12" x="440.245" y="437.913" width="16.328" height="5.356" rx="1.394" ry="1.394" transform="translate(-113.182 774.84) rotate(-90)"/></g><path class="cls-14" d="M462.244,448.756a25.458,25.458,0,0,0,1.073-8.164,49.266,49.266,0,0,0-.537-8.164l-14.032,1.353V447.4Z" transform="translate(-121 -114.161)"/><path class="cls-15" d="M462.057,447.419s-9.914-.945-9.914-6.828,9.914-6.8,9.914-6.8H447.7v12.87Z" transform="translate(-121 -114.161)"/><path class="cls-14" d="M448.749,447.4l.095-.737a1.1,1.1,0,0,1,1.152-.954l11.965.718a1.1,1.1,0,0,1,1.021,1.233l-.283,2.2a1.1,1.1,0,0,1-1.286.937l-11.778-2.18A1.1,1.1,0,0,1,448.749,447.4Z" transform="translate(-121 -114.161)"/><path class="cls-14" d="M448.749,433.78l.095.737a1.1,1.1,0,0,0,1.152.954l11.965-.718a1.1,1.1,0,0,0,1.021-1.233l-.283-2.2a1.1,1.1,0,0,0-1.286-.937l-11.778,2.18A1.1,1.1,0,0,0,448.749,433.78Z" transform="translate(-121 -114.161)"/><rect class="cls-14" x="439.537" y="437.913" width="16.328" height="5.356" rx="1.394" ry="1.394" transform="translate(-113.891 774.131) rotate(-90)"/><path class="cls-16" d="M461.535,448.756a25.458,25.458,0,0,0,1.073-8.164,49.266,49.266,0,0,0-.537-8.164L448.04,433.78V447.4Z" transform="translate(-121 -114.161)"/><path class="cls-13" d="M461.348,447.419s-9.914-.945-9.914-6.828,9.914-6.8,9.914-6.8H446.992v12.87Z" transform="translate(-121 -114.161)"/><path class="cls-17" d="M448.04,447.4l.095-.737a1.1,1.1,0,0,1,1.152-.954l11.965.718a1.1,1.1,0,0,1,1.021,1.233l-.283,2.2a1.1,1.1,0,0,1-1.286.937l-11.778-2.18A1.1,1.1,0,0,1,448.04,447.4Z" transform="translate(-121 -114.161)"/><path class="cls-17" d="M448.04,433.78l.095.737a1.1,1.1,0,0,0,1.152.954l11.965-.718a1.1,1.1,0,0,0,1.021-1.233l-.283-2.2a1.1,1.1,0,0,0-1.286-.937l-11.778,2.18A1.1,1.1,0,0,0,448.04,433.78Z" transform="translate(-121 -114.161)"/><rect class="cls-17" x="438.828" y="437.913" width="16.328" height="5.356" rx="1.394" ry="1.394" transform="translate(-114.6 773.422) rotate(-90)"/><g class="cls-11"><path class="cls-12" d="M462.953,393.876a25.458,25.458,0,0,0,1.073-8.164,49.266,49.266,0,0,0-.537-8.164L449.458,378.9v13.623Z" transform="translate(-121 -114.161)"/><path class="cls-13" d="M462.765,392.54s-9.914-.945-9.914-6.828,9.914-6.8,9.914-6.8H448.409v12.87Z" transform="translate(-121 -114.161)"/><path class="cls-12" d="M449.458,392.524l.095-.737a1.1,1.1,0,0,1,1.152-.954l11.965.718a1.1,1.1,0,0,1,1.021,1.233l-.283,2.2a1.1,1.1,0,0,1-1.286.937l-11.778-2.18A1.1,1.1,0,0,1,449.458,392.524Z" transform="translate(-121 -114.161)"/><path class="cls-12" d="M449.458,378.9l.095.737a1.1,1.1,0,0,0,1.152.954l11.965-.718a1.1,1.1,0,0,0,1.021-1.233l-.283-2.2a1.1,1.1,0,0,0-1.286-.937l-11.778,2.18A1.1,1.1,0,0,0,449.458,378.9Z" transform="translate(-121 -114.161)"/><rect class="cls-12" x="440.245" y="383.034" width="16.328" height="5.356" rx="1.394" ry="1.394" transform="translate(-58.303 719.96) rotate(-90)"/></g><path class="cls-14" d="M462.244,393.876a25.458,25.458,0,0,0,1.073-8.164,49.266,49.266,0,0,0-.537-8.164L448.749,378.9v13.623Z" transform="translate(-121 -114.161)"/><path class="cls-15" d="M462.057,392.54s-9.914-.945-9.914-6.828,9.914-6.8,9.914-6.8H447.7v12.87Z" transform="translate(-121 -114.161)"/><path class="cls-14" d="M448.749,392.524l.095-.737a1.1,1.1,0,0,1,1.152-.954l11.965.718a1.1,1.1,0,0,1,1.021,1.233l-.283,2.2a1.1,1.1,0,0,1-1.286.937l-11.778-2.18A1.1,1.1,0,0,1,448.749,392.524Z" transform="translate(-121 -114.161)"/><path class="cls-14" d="M448.749,378.9l.095.737a1.1,1.1,0,0,0,1.152.954l11.965-.718a1.1,1.1,0,0,0,1.021-1.233l-.283-2.2a1.1,1.1,0,0,0-1.286-.937l-11.778,2.18A1.1,1.1,0,0,0,448.749,378.9Z" transform="translate(-121 -114.161)"/><rect class="cls-14" x="439.537" y="383.034" width="16.328" height="5.356" rx="1.394" ry="1.394" transform="translate(-59.012 719.252) rotate(-90)"/><path class="cls-16" d="M461.535,393.876a25.458,25.458,0,0,0,1.073-8.164,49.266,49.266,0,0,0-.537-8.164L448.04,378.9v13.623Z" transform="translate(-121 -114.161)"/><path class="cls-13" d="M461.348,392.54s-9.914-.945-9.914-6.828,9.914-6.8,9.914-6.8H446.992v12.87Z" transform="translate(-121 -114.161)"/><path class="cls-17" d="M448.04,392.524l.095-.737a1.1,1.1,0,0,1,1.152-.954l11.965.718a1.1,1.1,0,0,1,1.021,1.233l-.283,2.2a1.1,1.1,0,0,1-1.286.937l-11.778-2.18A1.1,1.1,0,0,1,448.04,392.524Z" transform="translate(-121 -114.161)"/><path class="cls-17" d="M448.04,378.9l.095.737a1.1,1.1,0,0,0,1.152.954l11.965-.718a1.1,1.1,0,0,0,1.021-1.233l-.283-2.2a1.1,1.1,0,0,0-1.286-.937l-11.778,2.18A1.1,1.1,0,0,0,448.04,378.9Z" transform="translate(-121 -114.161)"/><rect class="cls-17" x="438.828" y="383.034" width="16.328" height="5.356" rx="1.394" ry="1.394" transform="translate(-59.72 718.543) rotate(-90)"/><g id="Layer_25-6-3" data-name="Layer 25-6-3"><circle class="cls-13" cx="472.549" cy="156.568" r="16.006" transform="translate(-93.304 265.839) rotate(-45)"/><circle class="cls-18" cx="471.771" cy="156.356" r="16.006" transform="translate(-93.382 265.227) rotate(-45)"/><circle class="cls-19" cx="470.851" cy="155.436" r="16.006" transform="translate(-93.001 264.307) rotate(-45)"/></g><rect class="cls-20" x="115.181" y="28.671" width="20.956" height="17.883" rx="1.933" ry="1.933"/><path class="cls-14" d="M255.2,160.091H238.114a1.933,1.933,0,0,1-1.933-1.933V144.141a1.933,1.933,0,0,1,1.933-1.933H255.2a1.933,1.933,0,0,1,1.933,1.933v14.016A1.933,1.933,0,0,1,255.2,160.091Z" transform="translate(-121 -114.161)"/><path class="cls-21" d="M241.7,147.311,240.446,159.3H238.24c-.454,0-1.933-.176-1.933-2.24V143.978Z" transform="translate(-121 -114.161)"/><path class="cls-21" d="M251.638,147.311l1.251,11.993h2.206c.454,0,1.933-.176,1.933-2.24V143.978Z" transform="translate(-121 -114.161)"/><path class="cls-21" d="M251.638,147.311l5.5-3.2a2.439,2.439,0,0,0-.642-2.06c-.851-.691-1.323-.5-2.161-.5H238.114a1.879,1.879,0,0,0-1.933,1.933v.624l5.516,3.2Z" transform="translate(-121 -114.161)"/><polygon class="cls-22" points="120.697 33.149 130.638 33.149 131.889 45.142 119.446 45.142 120.697 33.149"/><path class="cls-13" d="M246.658,144.421h-4.606c-1.641,0-2.626.521-3.051,3.357s-.762,11.714-.762,11.714H241.7l.753-10.638h4.209Z" transform="translate(-121 -114.161)"/><path class="cls-13" d="M246.57,144.421h4.606c1.641,0,2.626.521,3.051,3.357s.762,11.714.762,11.714h-3.456l-.753-10.638H246.57Z" transform="translate(-121 -114.161)"/><rect class="cls-20" x="88.705" y="28.671" width="20.956" height="17.883" rx="1.933" ry="1.933"/><path class="cls-14" d="M228.728,160.091H211.638a1.933,1.933,0,0,1-1.933-1.933V144.141a1.933,1.933,0,0,1,1.933-1.933h17.089a1.933,1.933,0,0,1,1.933,1.933v14.016A1.933,1.933,0,0,1,228.728,160.091Z" transform="translate(-121 -114.161)"/><path class="cls-21" d="M215.222,147.311,213.971,159.3h-2.206c-.454,0-1.933-.176-1.933-2.24V143.978Z" transform="translate(-121 -114.161)"/><path class="cls-21" d="M225.163,147.311l1.251,11.993h2.206c.454,0,1.933-.176,1.933-2.24V143.978Z" transform="translate(-121 -114.161)"/><path class="cls-21" d="M225.163,147.311l5.5-3.2a2.439,2.439,0,0,0-.642-2.06c-.851-.691-1.323-.5-2.161-.5H211.638a1.879,1.879,0,0,0-1.933,1.933v.624l5.516,3.2Z" transform="translate(-121 -114.161)"/><polygon class="cls-22" points="94.222 33.149 104.163 33.149 105.414 45.142 92.971 45.142 94.222 33.149"/><path class="cls-13" d="M220.183,144.421h-4.606c-1.641,0-2.626.521-3.051,3.357s-.762,11.714-.762,11.714h3.456l.753-10.638h4.209Z" transform="translate(-121 -114.161)"/><path class="cls-13" d="M220.1,144.421H224.7c1.641,0,2.626.521,3.051,3.357s.762,11.714.762,11.714h-3.456l-.753-10.638H220.1Z" transform="translate(-121 -114.161)"/><rect class="cls-20" x="61.911" y="28.671" width="20.956" height="17.883" rx="1.933" ry="1.933"/><path class="cls-14" d="M201.933,160.091H184.844a1.933,1.933,0,0,1-1.933-1.933V144.141a1.933,1.933,0,0,1,1.933-1.933h17.089a1.933,1.933,0,0,1,1.933,1.933v14.016A1.933,1.933,0,0,1,201.933,160.091Z" transform="translate(-121 -114.161)"/><path class="cls-21" d="M188.427,147.311,187.176,159.3H184.97c-.454,0-1.933-.176-1.933-2.24V143.978Z" transform="translate(-121 -114.161)"/><path class="cls-21" d="M198.368,147.311l1.251,11.993h2.206c.454,0,1.933-.176,1.933-2.24V143.978Z" transform="translate(-121 -114.161)"/><path class="cls-21" d="M198.368,147.311l5.5-3.2a2.439,2.439,0,0,0-.642-2.06c-.851-.691-1.323-.5-2.161-.5H184.844a1.879,1.879,0,0,0-1.933,1.933v.624l5.516,3.2Z" transform="translate(-121 -114.161)"/><polygon class="cls-22" points="67.427 33.149 77.368 33.149 78.619 45.142 66.176 45.142 67.427 33.149"/><path class="cls-13" d="M193.388,144.421h-4.606c-1.641,0-2.626.521-3.051,3.357s-.762,11.714-.762,11.714h3.456l.753-10.638h4.209Z" transform="translate(-121 -114.161)"/><path class="cls-13" d="M193.3,144.421h4.606c1.641,0,2.626.521,3.051,3.357s.762,11.714.762,11.714h-3.456l-.753-10.638H193.3Z" transform="translate(-121 -114.161)"/><rect class="cls-20" x="182.933" y="193.49" width="20.956" height="17.883" rx="1.933" ry="1.933" transform="translate(265.822 290.702) rotate(180)"/><path class="cls-14" d="M184.866,194.115h17.089a1.933,1.933,0,0,1,1.933,1.933v14.016A1.933,1.933,0,0,1,201.956,212H184.866a1.933,1.933,0,0,1-1.933-1.933V196.048A1.933,1.933,0,0,1,184.866,194.115Z" transform="translate(-121 -114.161)"/><path class="cls-21" d="M198.373,206.895l1.251-11.993h2.206c.454,0,1.933.176,1.933,2.24v13.085Z" transform="translate(-121 -114.161)"/><path class="cls-21" d="M188.431,206.895,187.181,194.9h-2.206c-.454,0-1.933.176-1.933,2.24v13.085Z" transform="translate(-121 -114.161)"/><path class="cls-21" d="M188.431,206.895l-5.5,3.2a2.439,2.439,0,0,0,.642,2.06c.851.691,1.323.5,2.161.5h16.219a1.879,1.879,0,0,0,1.933-1.933v-.624l-5.516-3.2Z" transform="translate(-121 -114.161)"/><polygon class="cls-22" points="77.373 92.734 67.431 92.734 66.181 80.741 78.623 80.741 77.373 92.734"/><path class="cls-13" d="M193.411,209.784h4.606c1.641,0,2.626-.521,3.051-3.357s.762-11.714.762-11.714h-3.456l-.753,10.638h-4.209Z" transform="translate(-121 -114.161)"/><path class="cls-13" d="M193.5,209.784h-4.606c-1.641,0-2.626-.521-3.051-3.357s-.762-11.714-.762-11.714h3.456l.753,10.638H193.5Z" transform="translate(-121 -114.161)"/><rect class="cls-20" x="209.408" y="193.49" width="20.956" height="17.883" rx="1.933" ry="1.933" transform="translate(318.773 290.702) rotate(180)"/><path class="cls-14" d="M211.342,194.115h17.089a1.933,1.933,0,0,1,1.933,1.933v14.016A1.933,1.933,0,0,1,228.431,212H211.342a1.933,1.933,0,0,1-1.933-1.933V196.048A1.933,1.933,0,0,1,211.342,194.115Z" transform="translate(-121 -114.161)"/><path class="cls-21" d="M224.848,206.895,226.1,194.9H228.3c.454,0,1.933.176,1.933,2.24v13.085Z" transform="translate(-121 -114.161)"/><path class="cls-21" d="M214.907,206.895,213.656,194.9H211.45c-.454,0-1.933.176-1.933,2.24v13.085Z" transform="translate(-121 -114.161)"/><path class="cls-21" d="M214.907,206.895l-5.5,3.2a2.439,2.439,0,0,0,.642,2.06c.851.691,1.323.5,2.161.5h16.219a1.879,1.879,0,0,0,1.933-1.933v-.624l-5.516-3.2Z" transform="translate(-121 -114.161)"/><polygon class="cls-22" points="103.848 92.734 93.907 92.734 92.656 80.741 105.099 80.741 103.848 92.734"/><path class="cls-13" d="M219.886,209.784h4.606c1.641,0,2.626-.521,3.051-3.357s.762-11.714.762-11.714h-3.456l-.753,10.638h-4.209Z" transform="translate(-121 -114.161)"/><path class="cls-13" d="M219.974,209.784h-4.606c-1.641,0-2.626-.521-3.051-3.357s-.762-11.714-.762-11.714h3.456l.753,10.638h4.209Z" transform="translate(-121 -114.161)"/><rect class="cls-20" x="236.203" y="193.49" width="20.956" height="17.883" rx="1.933" ry="1.933" transform="translate(372.362 290.702) rotate(180)"/><path class="cls-14" d="M238.136,194.115h17.089a1.933,1.933,0,0,1,1.933,1.933v14.016A1.933,1.933,0,0,1,255.226,212H238.136a1.933,1.933,0,0,1-1.933-1.933V196.048A1.933,1.933,0,0,1,238.136,194.115Z" transform="translate(-121 -114.161)"/><path class="cls-21" d="M251.643,206.895l1.251-11.993H255.1c.454,0,1.933.176,1.933,2.24v13.085Z" transform="translate(-121 -114.161)"/><path class="cls-21" d="M241.7,206.895,240.451,194.9h-2.206c-.454,0-1.933.176-1.933,2.24v13.085Z" transform="translate(-121 -114.161)"/><path class="cls-21" d="M241.7,206.895l-5.5,3.2a2.439,2.439,0,0,0,.642,2.06c.851.691,1.323.5,2.161.5h16.219a1.879,1.879,0,0,0,1.933-1.933v-.624l-5.516-3.2Z" transform="translate(-121 -114.161)"/><polygon class="cls-22" points="130.643 92.734 120.701 92.734 119.451 80.741 131.893 80.741 130.643 92.734"/><path class="cls-13" d="M246.681,209.784h4.606c1.641,0,2.626-.521,3.051-3.357s.762-11.714.762-11.714h-3.456l-.753,10.638h-4.209Z" transform="translate(-121 -114.161)"/><path class="cls-13" d="M246.769,209.784h-4.606c-1.641,0-2.626-.521-3.051-3.357s-.762-11.714-.762-11.714h3.456l.753,10.638h4.209Z" transform="translate(-121 -114.161)"/><rect class="cls-23" x="37.952" y="43.103" width="108.61" height="41.011"/><rect class="cls-23" x="37.952" y="41.838" width="108.61" height="41.011"/><rect class="cls-24" x="37.952" y="40.616" width="108.61" height="41.011"/></g><g id="Bookable_Rooms" data-name="Bookable Rooms"><rect id="area-02.01-status" class="cls-25" x="3.283" y="4.112" width="187.814" height="132.952"/><rect id="area-02.02-status" class="cls-25" x="277.173" y="4.112" width="119.827" height="81.393"/></g><g id="Name"><g id="Text"><path class="cls-26" d="M200.825,181.568a4.1,4.1,0,0,1,.295-1.652,3.041,3.041,0,0,1,.6-.883,2.514,2.514,0,0,1,.833-.58,3.537,3.537,0,0,1,1.389-.255,3.023,3.023,0,0,1,2.278.883,3.945,3.945,0,0,1,.007,4.9,3,3,0,0,1-2.268.881,3.034,3.034,0,0,1-2.285-.876A3.329,3.329,0,0,1,200.825,181.568Zm1.341-.044a2.415,2.415,0,0,0,.5,1.659,1.738,1.738,0,0,0,2.561,0,2.463,2.463,0,0,0,.5-1.681,2.42,2.42,0,0,0-.485-1.652,1.8,1.8,0,0,0-2.586.007A2.433,2.433,0,0,0,202.166,181.524Z" transform="translate(-121 -114.161)"/><path class="cls-26" d="M209,181.506l-1.12-.2a1.745,1.745,0,0,1,.65-1,2.38,2.38,0,0,1,1.371-.325,2.964,2.964,0,0,1,1.23.2,1.234,1.234,0,0,1,.569.5,2.555,2.555,0,0,1,.164,1.1l-.013,1.441a4.957,4.957,0,0,0,.06.908,2.624,2.624,0,0,0,.222.626h-1.222c-.032-.082-.072-.2-.119-.365-.021-.073-.035-.122-.043-.145a2.23,2.23,0,0,1-.678.461,1.936,1.936,0,0,1-.769.154,1.589,1.589,0,0,1-1.136-.391,1.3,1.3,0,0,1-.416-.989,1.326,1.326,0,0,1,.189-.705,1.231,1.231,0,0,1,.529-.475,4.124,4.124,0,0,1,.982-.288,6.72,6.72,0,0,0,1.2-.3v-.123a.638.638,0,0,0-.176-.507,1.048,1.048,0,0,0-.663-.152.889.889,0,0,0-.515.129A.9.9,0,0,0,209,181.506Zm1.652,1a7.7,7.7,0,0,1-.751.189,2.268,2.268,0,0,0-.673.215.515.515,0,0,0-.241.435.606.606,0,0,0,.193.448.675.675,0,0,0,.492.189,1.073,1.073,0,0,0,.638-.22.778.778,0,0,0,.294-.409,2.446,2.446,0,0,0,.048-.6Z" transform="translate(-121 -114.161)"/><path class="cls-26" d="M213.042,184.75v-6.442h1.235v3.419l1.446-1.644h1.52l-1.595,1.705,1.71,2.962h-1.332l-1.174-2.1-.575.6v1.494Z" transform="translate(-121 -114.161)"/><path class="cls-26" d="M218.091,184.75v-6.442h1.234v6.442Z" transform="translate(-121 -114.161)"/><path class="cls-26" d="M221.514,181.506l-1.12-.2a1.745,1.745,0,0,1,.65-1,2.38,2.38,0,0,1,1.371-.325,2.964,2.964,0,0,1,1.23.2,1.234,1.234,0,0,1,.569.5,2.555,2.555,0,0,1,.164,1.1l-.013,1.441a4.957,4.957,0,0,0,.06.908,2.624,2.624,0,0,0,.222.626h-1.222c-.032-.082-.072-.2-.119-.365-.021-.073-.035-.122-.043-.145a2.23,2.23,0,0,1-.678.461,1.936,1.936,0,0,1-.769.154,1.589,1.589,0,0,1-1.136-.391,1.3,1.3,0,0,1-.416-.989,1.326,1.326,0,0,1,.189-.705,1.231,1.231,0,0,1,.529-.475,4.124,4.124,0,0,1,.982-.288,6.72,6.72,0,0,0,1.2-.3v-.123a.638.638,0,0,0-.176-.507,1.048,1.048,0,0,0-.663-.152.889.889,0,0,0-.515.129A.9.9,0,0,0,221.514,181.506Zm1.652,1a7.7,7.7,0,0,1-.751.189,2.268,2.268,0,0,0-.673.215.515.515,0,0,0-.241.435.606.606,0,0,0,.193.448.675.675,0,0,0,.492.189,1.073,1.073,0,0,0,.638-.22.778.778,0,0,0,.294-.409,2.446,2.446,0,0,0,.048-.6Z" transform="translate(-121 -114.161)"/><path class="cls-26" d="M229.841,184.75h-1.234v-2.382a3.679,3.679,0,0,0-.079-.978.689.689,0,0,0-.257-.345.737.737,0,0,0-.429-.123.986.986,0,0,0-.575.176.879.879,0,0,0-.35.466,4,4,0,0,0-.095,1.072v2.114h-1.235v-4.667h1.147v.686a1.912,1.912,0,0,1,2.285-.644,1.247,1.247,0,0,1,.512.375,1.362,1.362,0,0,1,.242.519,3.9,3.9,0,0,1,.067.831Z" transform="translate(-121 -114.161)"/><path class="cls-26" d="M235.375,184.75h-1.146v-.686a1.851,1.851,0,0,1-.675.6,1.734,1.734,0,0,1-.784.2,1.777,1.777,0,0,1-1.378-.648,2.638,2.638,0,0,1-.573-1.808,2.6,2.6,0,0,1,.559-1.8,1.818,1.818,0,0,1,1.41-.617,1.747,1.747,0,0,1,1.354.65v-2.32h1.234Zm-3.295-2.435a2.138,2.138,0,0,0,.206,1.081.933.933,0,0,0,.835.483.909.909,0,0,0,.725-.362,1.675,1.675,0,0,0,.3-1.083,1.831,1.831,0,0,0-.289-1.158.919.919,0,0,0-.743-.354.93.93,0,0,0-.736.349A1.583,1.583,0,0,0,232.08,182.315Z" transform="translate(-121 -114.161)"/><path class="cls-26" d="M211.115,188.19a6.279,6.279,0,0,1,0,4.865,2.135,2.135,0,0,1-3.414,0,6.279,6.279,0,0,1,0-4.865,2.129,2.129,0,0,1,3.414,0Zm-2.445,4.116a.725.725,0,0,0,.738.582.715.715,0,0,0,.731-.582,6.2,6.2,0,0,0,.174-1.681,6.129,6.129,0,0,0-.174-1.705.708.708,0,0,0-.731-.554.719.719,0,0,0-.738.554,5.939,5.939,0,0,0-.18,1.705A6.007,6.007,0,0,0,208.669,192.306Z" transform="translate(-121 -114.161)"/><path class="cls-26" d="M212.511,192.5a3.525,3.525,0,0,1,1.266-1.349,9.346,9.346,0,0,0,1.12-.888,1.313,1.313,0,0,0,.392-.914,1.013,1.013,0,0,0-.225-.672.914.914,0,0,0-1.42.158,2.135,2.135,0,0,0-.141.782h-1.217a3.078,3.078,0,0,1,.295-1.314,1.835,1.835,0,0,1,1.781-.954,2.264,2.264,0,0,1,1.61.56,1.939,1.939,0,0,1,.6,1.483,2.009,2.009,0,0,1-.423,1.257,4.226,4.226,0,0,1-.912.813l-.5.356q-.47.334-.645.483a1.426,1.426,0,0,0-.292.347h2.781v1.1h-4.363A2.98,2.98,0,0,1,212.511,192.5Z" transform="translate(-121 -114.161)"/><path class="cls-26" d="M217.5,192.436h1.332v1.314H217.5Z" transform="translate(-121 -114.161)"/><path class="cls-26" d="M223.626,188.19a6.279,6.279,0,0,1,0,4.865,2.135,2.135,0,0,1-3.414,0,6.279,6.279,0,0,1,0-4.865,2.129,2.129,0,0,1,3.414,0Zm-2.445,4.116a.725.725,0,0,0,.738.582.715.715,0,0,0,.731-.582,6.2,6.2,0,0,0,.174-1.681,6.129,6.129,0,0,0-.174-1.705.708.708,0,0,0-.731-.554.719.719,0,0,0-.738.554,5.939,5.939,0,0,0-.18,1.705A6.007,6.007,0,0,0,221.181,192.306Z" transform="translate(-121 -114.161)"/><path class="cls-26" d="M225.07,189.355V188.5a5.509,5.509,0,0,0,.828-.079,1.168,1.168,0,0,0,.614-.334,1.11,1.11,0,0,0,.245-.457,1.043,1.043,0,0,0,.048-.255h1.047v6.372h-1.283v-4.395Z" transform="translate(-121 -114.161)"/></g><g id="Text-2" data-name="Text"><path class="cls-26" d="M437.1,159.234l1.266-.123a1.542,1.542,0,0,0,.464.936,1.4,1.4,0,0,0,.942.3,1.45,1.45,0,0,0,.947-.266.793.793,0,0,0,.318-.622.588.588,0,0,0-.134-.389,1.078,1.078,0,0,0-.469-.279q-.229-.079-1.041-.281a3.533,3.533,0,0,1-1.468-.637,1.694,1.694,0,0,1-.314-2.217,1.751,1.751,0,0,1,.8-.652,3.22,3.22,0,0,1,1.268-.224,2.721,2.721,0,0,1,1.826.532,1.878,1.878,0,0,1,.644,1.419l-1.3.057a1.1,1.1,0,0,0-.358-.714,1.307,1.307,0,0,0-.823-.218,1.487,1.487,0,0,0-.889.233.469.469,0,0,0-.206.4.5.5,0,0,0,.193.391,3.42,3.42,0,0,0,1.2.431,6.348,6.348,0,0,1,1.4.463,1.817,1.817,0,0,1,.712.655,1.917,1.917,0,0,1,.257,1.026,1.9,1.9,0,0,1-.308,1.037,1.84,1.84,0,0,1-.87.718,3.649,3.649,0,0,1-1.4.235,2.79,2.79,0,0,1-1.877-.564A2.457,2.457,0,0,1,437.1,159.234Z" transform="translate(-121 -114.161)"/><path class="cls-26" d="M444.348,158.087l-1.12-.2a1.745,1.745,0,0,1,.65-1,2.38,2.38,0,0,1,1.371-.325,2.964,2.964,0,0,1,1.23.2,1.234,1.234,0,0,1,.569.5,2.555,2.555,0,0,1,.164,1.1L447.2,159.8a4.957,4.957,0,0,0,.06.908,2.624,2.624,0,0,0,.222.626H446.26c-.032-.082-.072-.2-.119-.365-.021-.073-.035-.122-.043-.145a2.23,2.23,0,0,1-.678.461,1.936,1.936,0,0,1-.769.154,1.589,1.589,0,0,1-1.136-.391,1.3,1.3,0,0,1-.416-.989,1.326,1.326,0,0,1,.189-.705,1.231,1.231,0,0,1,.529-.475,4.124,4.124,0,0,1,.982-.288,6.72,6.72,0,0,0,1.2-.3v-.123a.638.638,0,0,0-.176-.507,1.048,1.048,0,0,0-.663-.152.889.889,0,0,0-.515.129A.9.9,0,0,0,444.348,158.087Zm1.652,1a7.7,7.7,0,0,1-.751.189,2.268,2.268,0,0,0-.673.215.515.515,0,0,0-.241.435.606.606,0,0,0,.193.448.675.675,0,0,0,.492.189,1.073,1.073,0,0,0,.638-.22.778.778,0,0,0,.294-.409,2.446,2.446,0,0,0,.048-.6Z" transform="translate(-121 -114.161)"/><path class="cls-26" d="M449.612,161.331h-1.234v-4.667h1.146v.664a2,2,0,0,1,.529-.62.976.976,0,0,1,.534-.149,1.572,1.572,0,0,1,.813.233l-.383,1.077a1.084,1.084,0,0,0-.58-.2.688.688,0,0,0-.439.143.976.976,0,0,0-.283.517,7.3,7.3,0,0,0-.1,1.564Z" transform="translate(-121 -114.161)"/><path class="cls-26" d="M452.855,158.087l-1.12-.2a1.745,1.745,0,0,1,.65-1,2.38,2.38,0,0,1,1.371-.325,2.964,2.964,0,0,1,1.23.2,1.234,1.234,0,0,1,.569.5,2.555,2.555,0,0,1,.164,1.1l-.013,1.441a4.957,4.957,0,0,0,.06.908,2.624,2.624,0,0,0,.222.626h-1.222c-.032-.082-.072-.2-.119-.365-.021-.073-.035-.122-.043-.145a2.23,2.23,0,0,1-.678.461,1.936,1.936,0,0,1-.769.154,1.589,1.589,0,0,1-1.136-.391,1.3,1.3,0,0,1-.416-.989,1.326,1.326,0,0,1,.189-.705,1.231,1.231,0,0,1,.529-.475,4.124,4.124,0,0,1,.982-.288,6.72,6.72,0,0,0,1.2-.3v-.123a.638.638,0,0,0-.176-.507,1.048,1.048,0,0,0-.663-.152.889.889,0,0,0-.515.129A.9.9,0,0,0,452.855,158.087Zm1.652,1a7.7,7.7,0,0,1-.751.189,2.268,2.268,0,0,0-.673.215.515.515,0,0,0-.241.435.606.606,0,0,0,.193.448.675.675,0,0,0,.492.189,1.073,1.073,0,0,0,.638-.22.778.778,0,0,0,.294-.409,2.446,2.446,0,0,0,.048-.6Z" transform="translate(-121 -114.161)"/><path class="cls-26" d="M459.078,156.664v.984h-.844v1.881a4.583,4.583,0,0,0,.024.666.27.27,0,0,0,.109.156.35.35,0,0,0,.209.062,1.6,1.6,0,0,0,.5-.119l.105.958a2.453,2.453,0,0,1-.975.185,1.538,1.538,0,0,1-.6-.112.875.875,0,0,1-.394-.29,1.148,1.148,0,0,1-.174-.481,6.162,6.162,0,0,1-.039-.87v-2.035h-.566v-.984H457v-.927l1.239-.721v1.648Z" transform="translate(-121 -114.161)"/><path class="cls-26" d="M459.65,158.931a2.514,2.514,0,0,1,.3-1.191,2.077,2.077,0,0,1,.858-.879,2.55,2.55,0,0,1,1.241-.3,2.333,2.333,0,0,1,1.736.688,2.377,2.377,0,0,1,.677,1.738,2.4,2.4,0,0,1-.684,1.756,2.309,2.309,0,0,1-1.72.7,2.712,2.712,0,0,1-1.225-.29,1.983,1.983,0,0,1-.885-.851A2.82,2.82,0,0,1,459.65,158.931Zm1.266.066a1.551,1.551,0,0,0,.329,1.063,1.078,1.078,0,0,0,1.624,0,1.565,1.565,0,0,0,.327-1.072,1.536,1.536,0,0,0-.327-1.055,1.078,1.078,0,0,0-1.624,0A1.551,1.551,0,0,0,460.916,159Z" transform="translate(-121 -114.161)"/><path class="cls-26" d="M465.318,161.638l1.411.171a.478.478,0,0,0,.163.338.923.923,0,0,0,.553.132,1.44,1.44,0,0,0,.726-.145.6.6,0,0,0,.246-.312,1.87,1.87,0,0,0,.058-.567v-.681a1.673,1.673,0,0,1-1.4.756,1.72,1.72,0,0,1-1.489-.8,2.7,2.7,0,0,1-.431-1.564,2.575,2.575,0,0,1,.564-1.793,1.823,1.823,0,0,1,1.4-.62,1.709,1.709,0,0,1,1.428.76v-.655h1.156v4.188a4.17,4.17,0,0,1-.137,1.235,1.529,1.529,0,0,1-.382.642,1.689,1.689,0,0,1-.657.365,3.454,3.454,0,0,1-1.039.132,2.691,2.691,0,0,1-1.684-.407,1.274,1.274,0,0,1-.5-1.03C465.314,161.747,465.315,161.7,465.318,161.638Zm1.1-2.738a1.678,1.678,0,0,0,.288,1.087.889.889,0,0,0,.71.345.979.979,0,0,0,.764-.354,1.54,1.54,0,0,0,.313-1.048,1.634,1.634,0,0,0-.3-1.077.95.95,0,0,0-.756-.352.911.911,0,0,0-.731.345A1.614,1.614,0,0,0,466.422,158.9Z" transform="translate(-121 -114.161)"/><path class="cls-26" d="M471.853,158.087l-1.12-.2a1.745,1.745,0,0,1,.65-1,2.38,2.38,0,0,1,1.371-.325,2.964,2.964,0,0,1,1.23.2,1.234,1.234,0,0,1,.569.5,2.555,2.555,0,0,1,.164,1.1l-.013,1.441a4.957,4.957,0,0,0,.06.908,2.624,2.624,0,0,0,.222.626h-1.222c-.032-.082-.072-.2-.119-.365-.021-.073-.035-.122-.043-.145a2.23,2.23,0,0,1-.678.461,1.936,1.936,0,0,1-.769.154,1.589,1.589,0,0,1-1.136-.391,1.3,1.3,0,0,1-.416-.989,1.326,1.326,0,0,1,.189-.705,1.231,1.231,0,0,1,.529-.475,4.124,4.124,0,0,1,.982-.288,6.72,6.72,0,0,0,1.2-.3v-.123a.638.638,0,0,0-.176-.507,1.048,1.048,0,0,0-.663-.152.889.889,0,0,0-.515.129A.9.9,0,0,0,471.853,158.087Zm1.652,1a7.7,7.7,0,0,1-.751.189,2.268,2.268,0,0,0-.673.215.515.515,0,0,0-.241.435.606.606,0,0,0,.193.448.675.675,0,0,0,.492.189,1.073,1.073,0,0,0,.638-.22.778.778,0,0,0,.294-.409,2.446,2.446,0,0,0,.048-.6Z" transform="translate(-121 -114.161)"/><path class="cls-26" d="M448.958,164.771a6.279,6.279,0,0,1,0,4.865,2.135,2.135,0,0,1-3.414,0,6.279,6.279,0,0,1,0-4.865,2.129,2.129,0,0,1,3.414,0Zm-2.445,4.116a.725.725,0,0,0,.738.582.715.715,0,0,0,.731-.582,6.2,6.2,0,0,0,.174-1.681,6.129,6.129,0,0,0-.174-1.705.708.708,0,0,0-.731-.554.719.719,0,0,0-.738.554,5.939,5.939,0,0,0-.18,1.705A6.007,6.007,0,0,0,446.513,168.887Z" transform="translate(-121 -114.161)"/><path class="cls-26" d="M450.354,169.078a3.525,3.525,0,0,1,1.266-1.349,9.346,9.346,0,0,0,1.12-.888,1.313,1.313,0,0,0,.392-.914,1.013,1.013,0,0,0-.225-.672.914.914,0,0,0-1.42.158,2.135,2.135,0,0,0-.141.782H450.13a3.078,3.078,0,0,1,.295-1.314,1.835,1.835,0,0,1,1.781-.954,2.264,2.264,0,0,1,1.61.56,1.939,1.939,0,0,1,.6,1.483,2.009,2.009,0,0,1-.423,1.257,4.226,4.226,0,0,1-.912.813l-.5.356q-.47.334-.645.483a1.426,1.426,0,0,0-.292.347h2.781v1.1H450.06A2.98,2.98,0,0,1,450.354,169.078Z" transform="translate(-121 -114.161)"/><path class="cls-26" d="M455.346,169.017h1.332v1.314h-1.332Z" transform="translate(-121 -114.161)"/><path class="cls-26" d="M461.47,164.771a6.279,6.279,0,0,1,0,4.865,2.135,2.135,0,0,1-3.414,0,6.279,6.279,0,0,1,0-4.865,2.129,2.129,0,0,1,3.414,0Zm-2.445,4.116a.725.725,0,0,0,.738.582.715.715,0,0,0,.731-.582,6.2,6.2,0,0,0,.174-1.681,6.129,6.129,0,0,0-.174-1.705.708.708,0,0,0-.731-.554.719.719,0,0,0-.738.554,5.939,5.939,0,0,0-.18,1.705A6.007,6.007,0,0,0,459.024,168.887Z" transform="translate(-121 -114.161)"/><path class="cls-26" d="M462.865,169.078a3.525,3.525,0,0,1,1.266-1.349,9.346,9.346,0,0,0,1.12-.888,1.313,1.313,0,0,0,.392-.914,1.013,1.013,0,0,0-.225-.672.914.914,0,0,0-1.42.158,2.135,2.135,0,0,0-.141.782h-1.217a3.078,3.078,0,0,1,.295-1.314,1.835,1.835,0,0,1,1.781-.954,2.264,2.264,0,0,1,1.61.56,1.939,1.939,0,0,1,.6,1.483,2.009,2.009,0,0,1-.423,1.257,4.226,4.226,0,0,1-.912.813l-.5.356q-.47.334-.645.483a1.426,1.426,0,0,0-.292.347h2.781v1.1H462.57A2.98,2.98,0,0,1,462.865,169.078Z" transform="translate(-121 -114.161)"/></g><circle class="cls-27" cx="430.812" cy="59.379" r="9"/><g id="Outline_Icons-5-3" data-name="Outline Icons-5-3"><path class="cls-28" d="M555.012,173.74c0,.1-.1.3-.2.3h-1.8v-3.7a.684.684,0,0,1,.7-.7h.7a.684.684,0,0,1,.7.7h0l-.1,3.4Z" transform="translate(-121 -114.161)"/><path class="cls-28" d="M550.312,177.44h3.4v-2l1-.7v-.7h-5.8a1.579,1.579,0,0,0,1.5,1.7h.1Z" transform="translate(-121 -114.161)"/><rect class="cls-28" x="427.612" y="59.279" width="4.4" height="0.7"/><circle class="cls-28" cx="433.212" cy="56.679" r="0.3"/></g><g class="cls-29"><path class="cls-30" d="M547.456,189.279v-3.156h-1.18V185.7h2.837v.423H547.93v3.156Z" transform="translate(-121 -114.161)"/><path class="cls-30" d="M548.825,187.982a1.338,1.338,0,0,1,.4-1.066,1.207,1.207,0,0,1,.815-.288,1.163,1.163,0,0,1,.874.351,1.33,1.33,0,0,1,.34.968,1.72,1.72,0,0,1-.15.787,1.07,1.07,0,0,1-.437.446,1.271,1.271,0,0,1-.626.158,1.164,1.164,0,0,1-.88-.35A1.394,1.394,0,0,1,548.825,187.982Zm.452,0a1.107,1.107,0,0,0,.217.746.724.724,0,0,0,1.092,0,1.131,1.131,0,0,0,.217-.759,1.068,1.068,0,0,0-.219-.729.725.725,0,0,0-1.09,0A1.1,1.1,0,0,0,549.277,187.982Z" transform="translate(-121 -114.161)"/><path class="cls-30" d="M551.772,186.205v-.5h.439v.5Zm0,3.074v-2.593h.439v2.593Z" transform="translate(-121 -114.161)"/><path class="cls-30" d="M552.871,189.279V185.7h.439v3.579Z" transform="translate(-121 -114.161)"/><path class="cls-30" d="M555.767,188.444l.454.056a1.109,1.109,0,0,1-.4.618,1.347,1.347,0,0,1-1.644-.131,1.366,1.366,0,0,1-.334-.982,1.433,1.433,0,0,1,.337-1.016,1.14,1.14,0,0,1,.874-.361,1.108,1.108,0,0,1,.85.354,1.4,1.4,0,0,1,.33,1q0,.038,0,.117H554.3a1,1,0,0,0,.242.654.722.722,0,0,0,.542.227.668.668,0,0,0,.412-.127A.847.847,0,0,0,555.767,188.444Zm-1.443-.71h1.448a.882.882,0,0,0-.166-.491.675.675,0,0,0-.545-.254.7.7,0,0,0-.509.2A.8.8,0,0,0,554.323,187.734Z" transform="translate(-121 -114.161)"/><path class="cls-30" d="M557.731,188.887l.063.388a1.6,1.6,0,0,1-.332.039.76.76,0,0,1-.371-.075.428.428,0,0,1-.186-.2,1.6,1.6,0,0,1-.054-.52v-1.491h-.322v-.342h.322v-.642l.438-.264v.905h.441v.342h-.441v1.517a.8.8,0,0,0,.022.241.178.178,0,0,0,.076.085.289.289,0,0,0,.15.032A1.514,1.514,0,0,0,557.731,188.887Z" transform="translate(-121 -114.161)"/></g><circle class="cls-27" cx="513.128" cy="163.13" r="9"/><g class="cls-29"><path class="cls-30" d="M628.146,291.88l.447-.039a.983.983,0,0,0,.147.441.811.811,0,0,0,.36.278,1.369,1.369,0,0,0,.549.106,1.314,1.314,0,0,0,.479-.081.659.659,0,0,0,.309-.221.509.509,0,0,0,.1-.307.464.464,0,0,0-.1-.294.712.712,0,0,0-.322-.211,6.145,6.145,0,0,0-.637-.175,3.243,3.243,0,0,1-.691-.224.97.97,0,0,1-.382-.333.817.817,0,0,1-.126-.446.911.911,0,0,1,.154-.506.947.947,0,0,1,.449-.357,1.69,1.69,0,0,1,.656-.123,1.787,1.787,0,0,1,.7.129,1.014,1.014,0,0,1,.468.377,1.094,1.094,0,0,1,.176.564l-.454.033a.732.732,0,0,0-.248-.512.961.961,0,0,0-.624-.174,1,1,0,0,0-.626.157.473.473,0,0,0-.2.38.406.406,0,0,0,.139.317,1.888,1.888,0,0,0,.714.255,4.67,4.67,0,0,1,.793.229,1.078,1.078,0,0,1,.461.365.886.886,0,0,1,.149.509.97.97,0,0,1-.164.538,1.072,1.072,0,0,1-.47.394,1.635,1.635,0,0,1-.689.14,2.072,2.072,0,0,1-.814-.141,1.15,1.15,0,0,1-.516-.427A1.213,1.213,0,0,1,628.146,291.88Z" transform="translate(-121 -114.161)"/><path class="cls-30" d="M632.545,292.638l.063.388a1.6,1.6,0,0,1-.332.039.76.76,0,0,1-.371-.075.428.428,0,0,1-.186-.2,1.6,1.6,0,0,1-.054-.52V290.78h-.322v-.342h.322V289.8l.438-.264v.905h.441v.342H632.1V292.3a.8.8,0,0,0,.022.241.178.178,0,0,0,.076.085.289.289,0,0,0,.15.032A1.514,1.514,0,0,0,632.545,292.638Z" transform="translate(-121 -114.161)"/><path class="cls-30" d="M634.667,292.71a1.628,1.628,0,0,1-.47.293,1.35,1.35,0,0,1-.485.086.939.939,0,0,1-.656-.209.686.686,0,0,1-.229-.533.7.7,0,0,1,.087-.348.71.71,0,0,1,.227-.253,1.062,1.062,0,0,1,.316-.144,3.03,3.03,0,0,1,.391-.066,3.98,3.98,0,0,0,.783-.151q0-.091,0-.114a.485.485,0,0,0-.125-.379.733.733,0,0,0-.5-.148.778.778,0,0,0-.458.108.665.665,0,0,0-.219.384l-.43-.059a1.063,1.063,0,0,1,.193-.445.836.836,0,0,1,.388-.261,1.722,1.722,0,0,1,.589-.092,1.562,1.562,0,0,1,.539.078.614.614,0,0,1,.442.5,2.508,2.508,0,0,1,.021.406v.586a6.224,6.224,0,0,0,.028.774.969.969,0,0,0,.111.312h-.459A.912.912,0,0,1,634.667,292.71Zm-.037-.98a3.271,3.271,0,0,1-.718.166,1.58,1.58,0,0,0-.383.088.373.373,0,0,0-.234.352.374.374,0,0,0,.133.293.573.573,0,0,0,.39.117.9.9,0,0,0,.451-.111.689.689,0,0,0,.291-.3,1.064,1.064,0,0,0,.07-.439Z" transform="translate(-121 -114.161)"/><path class="cls-30" d="M635.758,289.957v-.5h.439v.5Zm0,3.074v-2.593h.439v2.593Z" transform="translate(-121 -114.161)"/><path class="cls-30" d="M636.861,293.031v-2.593h.4v.394a1.071,1.071,0,0,1,.28-.364.485.485,0,0,1,.281-.088.856.856,0,0,1,.452.142l-.151.408a.62.62,0,0,0-.322-.1.418.418,0,0,0-.259.087.469.469,0,0,0-.164.24,1.712,1.712,0,0,0-.073.513v1.357Z" transform="translate(-121 -114.161)"/><path class="cls-30" d="M638.355,292.257l.435-.068a.611.611,0,0,0,.2.4.716.716,0,0,0,.468.139.689.689,0,0,0,.449-.123.368.368,0,0,0,.146-.289.265.265,0,0,0-.13-.234,1.9,1.9,0,0,0-.449-.149,4.068,4.068,0,0,1-.67-.211.642.642,0,0,1-.38-.595.662.662,0,0,1,.08-.321.7.7,0,0,1,.216-.245.9.9,0,0,1,.279-.128,1.323,1.323,0,0,1,.38-.053,1.505,1.505,0,0,1,.536.088.726.726,0,0,1,.34.238.921.921,0,0,1,.151.4l-.43.059a.473.473,0,0,0-.169-.312.621.621,0,0,0-.4-.112.712.712,0,0,0-.432.1.289.289,0,0,0-.13.234.246.246,0,0,0,.054.153.393.393,0,0,0,.169.117c.044.017.173.054.388.112a5.416,5.416,0,0,1,.651.2.667.667,0,0,1,.289.23.649.649,0,0,1,.1.376.736.736,0,0,1-.128.414.826.826,0,0,1-.37.3,1.336,1.336,0,0,1-.547.106,1.216,1.216,0,0,1-.77-.21A.976.976,0,0,1,638.355,292.257Z" transform="translate(-121 -114.161)"/></g><g id="Outline_Icons-2-2-4-2-2-2-3" data-name="Outline Icons-2-2-4-2-2-2-3"><line class="cls-28" x1="509.667" y1="166.154" x2="515.967" y2="166.154"/><polyline class="cls-28" points="514.867 166.154 514.867 165.054 513.767 165.054 513.767 163.954 512.667 163.954 512.667 162.854 511.567 162.854 511.567 161.754 509.667 161.754"/><line class="cls-28" x1="512.967" y1="159.854" x2="516.367" y2="163.254"/><polyline class="cls-28" points="512.967 161.254 512.967 159.854 514.367 159.854"/><polyline class="cls-28" points="516.367 161.954 516.367 163.254 515.067 163.254"/></g></g><g id="Stroke"><polyline class="cls-31" points="219.323 4 4 4 4 355.613 462.871 355.613 462.871 304.806 557.226 304.806 557.226 28.194 512.065 28.194"/><polyline class="cls-31" points="253.765 4 466.903 4 466.903 28.194 475.774 28.194"/><polyline class="cls-32" points="4 137.065 191.097 137.065 191.097 127.387"/><line class="cls-32" x1="191.097" y1="94.323" x2="191.097" y2="4"/><line class="cls-32" x1="276.581" y1="4" x2="276.581" y2="45.935"/><polyline class="cls-32" points="276.581 77.387 276.581 85.452 397.548 85.452 397.548 90.339 397.548 4"/><polyline class="cls-32" points="397.548 108.839 397.548 115.839 466.5 115.839"/><line class="cls-32" x1="466.903" y1="28.194" x2="466.903" y2="304.806"/></g></svg>