<?xml version="1.0" encoding="utf-8"?>
<!-- Generator: Adobe Illustrator 25.4.0, SVG Export Plug-In . SVG Version: 6.00 Build 0)  -->
<svg version="1.1" id="Layer_1" xmlns="http://www.w3.org/2000/svg" xmlns:xlink="http://www.w3.org/1999/xlink" x="0px" y="0px"
	 viewBox="0 0 753.6 710.1" style="enable-background:new 0 0 753.6 710.1;" xml:space="preserve">
<style type="text/css">
	.st0{fill:#4095B0;}
	.st1{fill:#AAE0E4;}
	.st2{fill:#8ECCCE;}
	.st3{fill:#99B8BF;}
	.st4{opacity:5.000000e-02;fill:#030303;enable-background:new    ;}
	.st5{fill:#B8BFC1;}
	.st6{fill:#FFFFFF;}
	.st7{fill:none;stroke:#DADCDC;stroke-width:0.507;stroke-miterlimit:10;}
	.st8{opacity:0.15;fill:#010101;enable-background:new    ;}
	.st9{fill:#596068;}
	.st10{fill:#9BAEB7;}
	.st11{fill:none;stroke:#7A8E93;stroke-width:1.87;stroke-linecap:round;stroke-miterlimit:10;}
	.st12{fill:none;stroke:#7A8E93;stroke-width:1.887;stroke-linecap:round;stroke-miterlimit:10;}
	.st13{opacity:0.15;fill:#0D5577;enable-background:new    ;}
	.st14{fill:#0D5577;}
	.st15{fill:#7DCFE2;stroke:#53C5F1;stroke-width:0.977;stroke-linecap:round;stroke-linejoin:round;}
	.st16{opacity:0.43;fill:#53C5F1;enable-background:new    ;}
	.st17{fill:#4FAFC6;stroke:#5798A3;stroke-width:0.781;stroke-linecap:round;stroke-linejoin:round;}
	.st18{fill:#83D8EF;stroke:#53C5F1;stroke-width:0.67;stroke-linecap:round;stroke-linejoin:round;}
	.st19{fill:#4E9FB9;stroke:#4A90A0;stroke-width:0.674;stroke-linecap:round;stroke-linejoin:round;}
	.st20{opacity:0.4;fill:#4196B1;enable-background:new    ;}
	.st21{fill:none;stroke:#7A8E93;stroke-linecap:round;stroke-miterlimit:10;}
	.st22{fill:none;stroke:#5798A3;stroke-width:3;stroke-linecap:round;stroke-linejoin:round;}
	.st23{opacity:0.74;fill:#575757;enable-background:new    ;}
	.st24{fill:none;stroke:#F7F7F7;stroke-width:8;stroke-miterlimit:10;}
	.st25{fill:none;stroke:#F7F7F7;stroke-width:4;stroke-miterlimit:10;}
	.st26{fill:#EAF1F1;}
	.st27{fill:#767E7F;}
	.st28{fill:none;stroke:#7A8D92;stroke-width:0.333;stroke-miterlimit:10;}
	.st29{fill:none;stroke:#7A8D92;stroke-width:0.402;stroke-miterlimit:10;}
	.st30{fill:none;stroke:#7A8D92;stroke-width:0.336;stroke-miterlimit:10;}
	.st31{fill:none;stroke:#7A8D92;stroke-width:0.23;stroke-miterlimit:10;}
</style>
<g id="shadow">
	<polygon class="st0" points="12.5,0.9 255.1,17.7 334.3,5.6 334.3,283.2 527.4,283.2 527.4,323.2 745.9,307.9 753.2,689.7 
		731.7,710.1 26.4,710.1 0.2,690.3 	"/>
</g>
<g id="background">
	<polygon class="st1" points="16.5,4.6 257.2,16.3 335.2,4.6 335.2,273.1 525.6,273.1 525.6,311.7 742.3,311.7 749.6,685.9 
		4.1,685.9 	"/>
</g>
<g id="spaces">
	<polygon class="st2" points="16.5,4.6 138.2,8.8 138.2,329.6 10.6,329.6 	"/>
	<polygon class="st2" points="192.9,13.2 192.9,282.1 335.2,282.1 335.2,4.6 259.2,14.9 	"/>
	<polygon class="st2" points="193.3,319.7 239.9,319.7 239.9,381.1 193.3,380.1 	"/>
	<polygon class="st2" points="193,488.6 276.3,488.6 276.3,478.8 307.3,478.8 307.3,447.1 325.6,447.1 325.6,341.3 267.4,341.3 
		267.4,408.5 238,408.5 239.9,381.1 193.3,380.1 	"/>
	<rect x="365.8" y="354.1" class="st2" width="32.6" height="101.8"/>
	<rect x="421.2" y="320.2" class="st2" width="43" height="55.5"/>
	<rect x="267.4" y="319" class="st3" width="58.2" height="21.1"/>
	<polygon class="st2" points="398.4,319.9 398.4,492.9 421.2,492.9 421.2,320.2 	"/>
	<polygon class="st3" points="742.3,311.7 749.6,685.9 4.1,688.9 7.7,490.6 421.2,490.6 421.2,375.7 421.2,320.2 464.3,320.2 
		524,320.2 524,311.7 	"/>
</g>
<g id="Furniture">
	<g id="tables_copy_3">
		<path class="st4" d="M48.7,111h54.2c1.5,0,2.8,1.2,2.8,2.7l0,0V144c0,1.5-1.2,2.8-2.7,2.8H48.7c-1.5,0-2.8-1.2-2.8-2.7l0,0v-30.3
			C45.9,112.2,47.1,111,48.7,111C48.7,111,48.7,111,48.7,111L48.7,111z"/>
		<path class="st5" d="M48.7,109.4h54.2c1.5,0,2.8,1.2,2.8,2.7l0,0v30.3c0,1.5-1.2,2.8-2.7,2.8H48.7c-1.5,0-2.8-1.2-2.8-2.7l0,0
			v-30.3C45.9,110.7,47.1,109.4,48.7,109.4C48.7,109.4,48.7,109.4,48.7,109.4L48.7,109.4z"/>
		<path id="table-23" class="st6" d="M75.2,108.4h-27c-1.4,0-2.5,1.1-2.5,2.4v16.6h29.5L75.2,108.4z"/>
		<path id="table-24" class="st6" d="M105.8,127.4v-16.5c0-1.4-1.1-2.5-2.4-2.5H74.9v19L105.8,127.4z"/>
		<path id="table-25" class="st6" d="M74.9,127.4v17h28.4c1.4,0,2.5-1.1,2.5-2.4v-14.6H74.9z"/>
		<path id="table-26" class="st6" d="M45.9,127.4v14.5c0,1.4,1.1,2.5,2.4,2.5h27v-17H45.9z"/>
		<line class="st7" x1="75.2" y1="108.4" x2="75.2" y2="144.3"/>
		<line class="st7" x1="45.9" y1="127.4" x2="105.8" y2="127.4"/>
	</g>
	<g id="chairs_copy_3">
		<path class="st8" d="M62.2,150h-3.2c-2.4-0.1-4.4,1.7-4.5,4.1l0,0v0.2l0.2,3c0.2,3.1,2.9,5.4,5.9,5.2l0,0c3,0.1,5.7-2.1,6-5.2
			l0.2-3c0-2.4-1.9-4.4-4.2-4.4L62.2,150z"/>
		<path class="st9" d="M62.2,149.6h-3.2c-2.4-0.1-4.4,1.7-4.5,4.1l0,0v0.2l0.2,3c0.2,3.1,2.9,5.4,5.9,5.2l0,0c3,0.1,5.7-2.1,6-5.2
			l0.2-3c0-2.4-1.9-4.4-4.2-4.4H62.2z"/>
		<path class="st10" d="M62.1,148.3h-3c-2.3,0-4.1,1.8-4.2,4.1l0,0v0.2l0.2,3c0.2,2.9,2.6,5.2,5.5,5.2l0,0c2.9,0,5.3-2.3,5.5-5.2
			l0.2-3c0.1-2.3-1.6-4.2-3.9-4.3H62.1z"/>
		<path class="st11" d="M54.9,151.9l0.2,3.6c0.2,2.9,2.6,5.2,5.5,5.2l0,0c2.9,0,5.3-2.3,5.5-5.2l0.2-3.6"/>
		<path class="st8" d="M92.1,150h-3.2c-2.4-0.1-4.4,1.7-4.5,4.1l0,0v0.2l0.2,3c0.2,3.1,2.9,5.4,5.9,5.2l0,0c3,0.1,5.7-2.1,6-5.2
			l0.2-3c0-2.4-1.9-4.4-4.2-4.4L92.1,150z"/>
		<path class="st9" d="M92.1,149.6h-3.2c-2.4-0.1-4.4,1.7-4.5,4.1l0,0v0.2l0.2,3c0.2,3.1,2.9,5.4,5.9,5.2l0,0c3,0.1,5.7-2.1,6-5.2
			l0.2-3c0-2.4-1.9-4.4-4.2-4.4H92.1z"/>
		<path class="st10" d="M92,148.3h-3c-2.3,0-4.1,1.8-4.2,4.1l0,0v0.2l0.2,3c0.2,2.9,2.6,5.2,5.5,5.2l0,0c2.9,0,5.3-2.3,5.5-5.2
			l0.2-3c0.2-2.2-1.5-4.2-3.7-4.3c0,0,0,0,0,0h0L92,148.3L92,148.3z"/>
		<path class="st11" d="M84.8,151.9l0.2,3.6c0.2,2.9,2.6,5.2,5.5,5.2l0,0c2.9,0,5.3-2.3,5.5-5.2l0.2-3.6"/>
		<path class="st8" d="M61.7,107.3l-3-0.1c-2.3-0.1-4.1-2-4.1-4.3v-0.2l0.2-3c0.3-2.9,2.7-5.2,5.7-5.2l0,0c2.9,0.1,5.3,2.5,5.4,5.4
			l0.1,3c0.1,2.3-1.7,4.1-3.9,4.2h-0.2L61.7,107.3z"/>
		<path class="st9" d="M61.7,106.8l-3-0.1c-2.3-0.1-4.1-2-4.1-4.3v0l0,0v-0.2l0.2-3c0.3-2.9,2.7-5.1,5.7-5.1l0,0
			c2.9,0.1,5.3,2.5,5.4,5.4l0.1,3c0,2.3-1.8,4.2-4.1,4.2L61.7,106.8z"/>
		<path class="st10" d="M61.7,106.2l-3-0.1c-2.3-0.1-4.1-2-4.1-4.3v0l0,0v-0.2l0.2-3c0.3-2.9,2.7-5.1,5.7-5.1l0,0
			c2.9,0.1,5.3,2.5,5.4,5.4l0.1,3c0,2.3-1.8,4.2-4.1,4.2C61.9,106.2,61.8,106.2,61.7,106.2z"/>
		<path class="st12" d="M54.5,102.2l0.3-3.6c0.3-2.9,2.7-5.1,5.7-5.1l0,0c2.9,0.1,5.3,2.5,5.4,5.4l0.2,3.6"/>
		<path class="st8" d="M91.4,107.3l-3-0.1c-2.3-0.1-4.1-2-4.1-4.3v-0.2l0.2-3c0.3-2.9,2.7-5.1,5.7-5.1l0,0c2.9,0.1,5.3,2.5,5.4,5.4
			l0.1,3c0.1,2.3-1.7,4.1-3.9,4.2L91.4,107.3z"/>
		<path class="st9" d="M91.4,106.9l-3-0.1c-2.3-0.1-4.1-2-4.1-4.3v0l0,0v-0.2l0.2-3c0.3-2.9,2.7-5.1,5.7-5.1l0,0
			c2.9,0.1,5.3,2.5,5.4,5.4l0.1,3c0,2.3-1.7,4.2-4,4.2L91.4,106.9z"/>
		<path class="st10" d="M91.4,106.3l-3-0.1c-2.3-0.1-4.1-2-4.1-4.3c0,0,0,0,0,0v0l0,0v-0.2l0.2-3c0.3-2.9,2.7-5.1,5.7-5.1l0,0
			c2.9,0.1,5.3,2.5,5.4,5.4l0.1,3c0,2.3-1.7,4.2-4,4.2h-0.1C91.6,106.3,91.5,106.3,91.4,106.3z"/>
		<path class="st12" d="M84.2,102.3l0.3-3.6c0.3-2.9,2.7-5.1,5.7-5.1l0,0c2.9,0.1,5.3,2.5,5.4,5.4l0.2,3.6"/>
	</g>
	<g id="tables_copy_3-2">
		<path class="st4" d="M44.5,275.6h54.2c1.5,0,2.8,1.2,2.8,2.7v30.3c0,1.5-1.2,2.8-2.7,2.8H44.5c-1.5,0-2.8-1.2-2.8-2.7l0,0v-30.3
			C41.7,276.9,42.9,275.6,44.5,275.6C44.5,275.6,44.5,275.6,44.5,275.6L44.5,275.6z"/>
		<path class="st5" d="M44.5,274h54.2c1.5,0,2.8,1.2,2.8,2.7l0,0v30.3c0,1.5-1.2,2.8-2.7,2.8H44.5c-1.5,0-2.8-1.2-2.8-2.7l0,0v-30.3
			C41.7,275.3,42.9,274,44.5,274C44.5,274,44.5,274,44.5,274L44.5,274L44.5,274z"/>
		<path id="table-23-2" class="st6" d="M71.1,273h-27c-1.4,0-2.5,1.1-2.5,2.4V292h29.5L71.1,273z"/>
		<path id="table-24-2" class="st6" d="M101.6,292v-16.5c0-1.4-1.1-2.5-2.4-2.5H70.7v19L101.6,292z"/>
		<path id="table-25-2" class="st6" d="M70.7,292v17h28.4c1.4,0,2.5-1.1,2.5-2.4V292H70.7z"/>
		<path id="table-26-2" class="st6" d="M41.7,292v14.5c0,1.3,1.1,2.5,2.4,2.5h27v-17H41.7z"/>
		<line class="st7" x1="71.1" y1="273" x2="71.1" y2="309"/>
		<line class="st7" x1="41.7" y1="292" x2="101.6" y2="292"/>
	</g>
	<g id="chairs_copy_3-2">
		<path class="st8" d="M58,314.6h-3.2c-2.4-0.1-4.4,1.7-4.5,4.1l0,0v0.2l0.2,3c0.2,3.1,2.9,5.4,5.9,5.2l0,0c3,0.1,5.7-2.1,6-5.2
			l0.2-3c0-2.4-1.9-4.4-4.2-4.4H58z"/>
		<path class="st9" d="M58,314.2h-3.2c-2.4-0.1-4.4,1.7-4.5,4.1l0,0v0.2l0.2,3c0.2,3.1,2.9,5.4,5.9,5.2l0,0c3,0.1,5.7-2.1,6-5.2
			l0.2-3c0-2.4-1.9-4.4-4.2-4.4H58z"/>
		<path class="st10" d="M57.9,312.9h-3c-2.3,0-4.1,1.8-4.2,4.1l0,0v0.2l0.2,3c0.2,2.9,2.6,5.2,5.5,5.2l0,0c2.9,0,5.3-2.3,5.5-5.2
			l0.2-3c0.1-2.3-1.6-4.2-3.9-4.3H57.9z"/>
		<path class="st11" d="M50.8,316.5l0.2,3.6c0.2,2.9,2.6,5.2,5.5,5.2l0,0c2.9,0,5.3-2.3,5.5-5.2l0.2-3.6"/>
		<path class="st8" d="M88,314.6h-3.2c-2.4-0.1-4.4,1.7-4.5,4.1l0,0v0.2l0.2,3c0.2,3.1,2.9,5.4,5.9,5.2l0,0c3,0.1,5.7-2.1,6-5.2
			l0.2-3c0-2.4-1.9-4.4-4.2-4.4H88z"/>
		<path class="st9" d="M88,314.2h-3.2c-2.4-0.1-4.4,1.7-4.5,4.1l0,0v0.2l0.2,3c0.2,3.1,2.9,5.4,5.9,5.2l0,0c3,0.1,5.7-2.1,6-5.2
			l0.2-3c0-2.4-1.9-4.4-4.2-4.4H88z"/>
		<path class="st10" d="M87.8,312.9h-3c-2.3,0-4.1,1.8-4.2,4.1l0,0v0.2l0.2,3c0.2,2.9,2.6,5.2,5.5,5.2l0,0c2.9,0,5.3-2.3,5.5-5.2
			l0.2-3c0.2-2.2-1.5-4.2-3.7-4.3c0,0,0,0,0,0h0L87.8,312.9L87.8,312.9z"/>
		<path class="st11" d="M80.6,316.5l0.2,3.6c0.2,2.9,2.6,5.2,5.5,5.2l0,0c2.9,0,5.3-2.3,5.5-5.2l0.2-3.6"/>
		<path class="st8" d="M57.5,271.9l-3-0.1c-2.3-0.1-4.1-2-4.1-4.3c0,0,0,0,0,0v-0.2l0.2-3c0.3-2.9,2.7-5.2,5.7-5.2l0,0
			c2.9,0.1,5.3,2.5,5.4,5.4l0.1,3c0.1,2.3-1.7,4.1-3.9,4.2h-0.2L57.5,271.9z"/>
		<path class="st9" d="M57.5,271.4l-3-0.1c-2.3-0.1-4.1-2-4.1-4.3v0l0,0v-0.2l0.2-3c0.3-2.9,2.7-5.1,5.7-5.1l0,0
			c2.9,0.1,5.3,2.5,5.4,5.4l0.1,3c0,2.3-1.8,4.2-4.1,4.2L57.5,271.4z"/>
		<path class="st10" d="M57.5,270.8l-3-0.1c-2.3-0.1-4.1-2-4.1-4.3v0l0,0v-0.2l0.2-3c0.3-2.9,2.7-5.1,5.7-5.1l0,0
			c2.9,0.1,5.3,2.5,5.4,5.4l0.1,3c0,2.3-1.8,4.2-4.1,4.2C57.7,270.8,57.6,270.9,57.5,270.8z"/>
		<path class="st12" d="M50.3,266.9l0.3-3.6c0.3-2.9,2.7-5.1,5.7-5.1l0,0c2.9,0.1,5.3,2.5,5.4,5.4l0.2,3.6"/>
		<path class="st8" d="M87.2,271.9l-3-0.1c-2.3-0.1-4.1-2-4.1-4.3v-0.2l0.2-3c0.3-2.9,2.7-5.1,5.7-5.1l0,0c2.9,0.1,5.3,2.5,5.4,5.4
			l0.1,3c0.1,2.3-1.7,4.1-3.9,4.2L87.2,271.9z"/>
		<path class="st9" d="M87.2,271.5l-3-0.1c-2.3-0.1-4.1-2-4.1-4.3v0l0,0v-0.2l0.2-3c0.3-2.9,2.7-5.1,5.7-5.1l0,0
			c2.9,0.1,5.3,2.5,5.4,5.4l0.1,3c0,2.3-1.7,4.2-4,4.2H87.2z"/>
		<path class="st10" d="M87.2,270.9l-3-0.1c-2.3-0.1-4.1-2-4.1-4.3v0l0,0v-0.2l0.2-3c0.3-2.9,2.7-5.1,5.7-5.1l0,0
			c2.9,0.1,5.3,2.5,5.4,5.4l0.1,3c0,2.3-1.7,4.2-4,4.2h-0.1C87.4,270.9,87.3,270.9,87.2,270.9z"/>
		<path class="st12" d="M80.1,266.9l0.3-3.6c0.3-2.9,2.7-5.1,5.7-5.1l0,0c2.9,0.1,5.3,2.5,5.4,5.4l0.2,3.6"/>
	</g>
	<g id="tables_copy_3-3">
		<path class="st4" d="M47.3,195.4h54.2c1.5,0,2.8,1.2,2.8,2.7v30.3c0,1.5-1.2,2.8-2.7,2.8H47.3c-1.5,0-2.8-1.2-2.8-2.7l0,0v-30.3
			C44.4,196.7,45.7,195.5,47.3,195.4C47.2,195.4,47.2,195.4,47.3,195.4L47.3,195.4L47.3,195.4z"/>
		<path class="st5" d="M47.3,193.9h54.2c1.5,0,2.8,1.2,2.8,2.7l0,0v30.3c0,1.5-1.2,2.8-2.7,2.8H47.3c-1.5,0-2.8-1.2-2.8-2.7l0,0
			v-30.3C44.4,195.1,45.7,193.9,47.3,193.9C47.2,193.9,47.2,193.9,47.3,193.9L47.3,193.9z"/>
		<path id="table-23-3" class="st6" d="M73.8,192.9h-27c-1.4,0-2.5,1.1-2.5,2.4v16.6h29.5L73.8,192.9z"/>
		<path id="table-24-3" class="st6" d="M104.4,211.8v-16.5c0-1.3-1.1-2.5-2.4-2.5H73.5v19L104.4,211.8z"/>
		<path id="table-25-3" class="st6" d="M73.5,211.8v17h28.4c1.4,0,2.5-1.1,2.5-2.4v-14.6H73.5z"/>
		<path id="table-26-3" class="st6" d="M44.5,211.8v14.5c0,1.4,1.1,2.5,2.4,2.5h27v-17H44.5z"/>
		<line class="st7" x1="73.8" y1="192.9" x2="73.8" y2="228.8"/>
		<line class="st7" x1="44.5" y1="211.8" x2="104.4" y2="211.8"/>
	</g>
	<g id="chairs_copy_3-3">
		<path class="st8" d="M60.8,234.5h-3.2c-2.4-0.1-4.4,1.7-4.5,4.1l0,0v0.2l0.2,3c0.2,3.1,2.9,5.4,5.9,5.2l0,0c3,0.1,5.7-2.1,6-5.2
			l0.2-3c0-2.4-1.9-4.4-4.2-4.4H60.8z"/>
		<path class="st9" d="M60.8,234.1h-3.2c-2.4-0.1-4.4,1.7-4.5,4.1l0,0v0.2l0.2,3c0.2,3.1,2.9,5.4,5.9,5.2l0,0c3,0.1,5.7-2.1,6-5.2
			l0.2-3c0-2.4-1.9-4.4-4.2-4.4H60.8z"/>
		<path class="st10" d="M60.7,232.7h-3c-2.3,0-4.1,1.8-4.2,4.1l0,0v0.2l0.2,3c0.2,2.9,2.6,5.2,5.5,5.2l0,0c2.9,0,5.3-2.3,5.5-5.2
			l0.2-3c0.1-2.3-1.6-4.2-3.9-4.3H60.7z"/>
		<path class="st11" d="M53.5,236.4l0.2,3.6c0.2,2.9,2.6,5.2,5.5,5.2l0,0c2.9,0,5.3-2.3,5.5-5.2l0.2-3.6"/>
		<path class="st8" d="M90.7,234.5h-3.2c-2.4-0.1-4.4,1.7-4.5,4.1l0,0v0.2l0.2,3c0.2,3.1,2.9,5.4,5.9,5.2l0,0c3,0.1,5.7-2.1,6-5.2
			l0.2-3c0-2.4-1.9-4.4-4.2-4.4H90.7z"/>
		<path class="st9" d="M90.7,234.1h-3.2c-2.4-0.1-4.4,1.7-4.5,4.1l0,0v0.2l0.2,3c0.2,3.1,2.9,5.4,5.9,5.2l0,0c3,0.1,5.7-2.1,6-5.2
			l0.2-3c0-2.4-1.9-4.4-4.2-4.4H90.7z"/>
		<path class="st10" d="M90.6,232.7h-3c-2.3,0-4.1,1.8-4.2,4.1l0,0v0.2l0.2,3c0.2,2.9,2.6,5.2,5.5,5.2l0,0c2.9,0,5.3-2.3,5.5-5.2
			l0.2-3c0.2-2.2-1.5-4.2-3.7-4.3c0,0,0,0,0,0h0L90.6,232.7L90.6,232.7z"/>
		<path class="st11" d="M83.4,236.4l0.2,3.6c0.2,2.9,2.6,5.2,5.5,5.2l0,0c2.9,0,5.3-2.3,5.5-5.2l0.2-3.6"/>
		<path class="st8" d="M60.3,191.8l-3-0.1c-2.3-0.1-4.1-2-4.1-4.3v-0.2l0.2-3c0.3-2.9,2.7-5.2,5.7-5.2l0,0c2.9,0.1,5.3,2.5,5.4,5.4
			l0.1,3c0.1,2.3-1.7,4.1-3.9,4.2h-0.2L60.3,191.8z"/>
		<path class="st9" d="M60.3,191.3l-3-0.1c-2.3-0.1-4.1-2-4.1-4.3v0l0,0v-0.2l0.2-3c0.3-2.9,2.7-5.1,5.7-5.1l0,0
			c2.9,0.1,5.3,2.5,5.4,5.4l0.1,3c0,2.3-1.8,4.2-4.1,4.2L60.3,191.3z"/>
		<path class="st10" d="M60.3,190.7l-3-0.1c-2.3-0.1-4.1-2-4.1-4.3v0l0,0V186l0.2-3c0.3-2.9,2.7-5.1,5.7-5.1l0,0
			c2.9,0.1,5.3,2.5,5.4,5.4l0.1,3c0,2.3-1.8,4.2-4.1,4.2C60.5,190.7,60.4,190.7,60.3,190.7z"/>
		<path class="st12" d="M53.1,186.7l0.3-3.6c0.3-2.9,2.7-5.1,5.7-5.1l0,0c2.9,0.1,5.3,2.5,5.4,5.4l0.2,3.6"/>
		<path class="st8" d="M90,191.8l-3-0.1c-2.3-0.1-4.1-2-4.1-4.3v-0.2l0.2-3c0.3-2.9,2.7-5.1,5.7-5.1l0,0c2.9,0.1,5.3,2.5,5.4,5.4
			l0.1,3c0.1,2.3-1.7,4.1-3.9,4.2L90,191.8z"/>
		<path class="st9" d="M90,191.4l-3-0.1c-2.3-0.1-4.1-2-4.1-4.3c0,0,0,0,0,0v0l0,0v-0.2l0.2-3c0.3-2.9,2.7-5.1,5.7-5.1l0,0
			c2.9,0.1,5.3,2.5,5.4,5.4l0.1,3c0,2.3-1.7,4.2-4,4.2L90,191.4z"/>
		<path class="st10" d="M90,190.8l-3-0.1c-2.3-0.1-4.1-2-4.1-4.3c0,0,0,0,0,0v0l0,0v-0.2l0.2-3c0.3-2.9,2.7-5.1,5.7-5.1l0,0
			c2.9,0.1,5.3,2.5,5.4,5.4l0.1,3c0,2.3-1.7,4.2-4,4.2h-0.1C90.2,190.8,90.1,190.8,90,190.8z"/>
		<path class="st12" d="M82.8,186.8l0.3-3.6c0.3-2.9,2.7-5.1,5.7-5.1l0,0c2.9,0.1,5.3,2.5,5.4,5.4l0.2,3.6"/>
	</g>
	<g id="tables_copy_3-4">
		<path class="st4" d="M252.8,39.9H307c1.5,0,2.8,1.2,2.8,2.7V73c0,1.5-1.2,2.8-2.7,2.8h-54.3c-1.5,0-2.8-1.2-2.8-2.7l0,0V42.7
			C250,41.2,251.2,39.9,252.8,39.9C252.7,39.9,252.7,39.9,252.8,39.9L252.8,39.9z"/>
		<path class="st5" d="M252.8,38.3H307c1.5,0,2.8,1.2,2.8,2.7l0,0v30.3c0,1.5-1.2,2.8-2.7,2.8h-54.3c-1.5,0-2.8-1.2-2.8-2.7l0,0
			V41.2C250,39.6,251.2,38.3,252.8,38.3C252.7,38.3,252.7,38.3,252.8,38.3L252.8,38.3z"/>
		<path id="table-23-4" class="st6" d="M279.3,37.3h-27c-1.3,0-2.5,1.1-2.5,2.4v16.6h29.5L279.3,37.3z"/>
		<path id="table-24-4" class="st6" d="M309.9,56.3V39.8c0-1.4-1.1-2.5-2.4-2.5H279v19H309.9z"/>
		<path id="table-25-4" class="st6" d="M279,56.3v17h28.4c1.4,0,2.5-1.1,2.5-2.4V56.3H279z"/>
		<path id="table-26-4" class="st6" d="M250,56.3v14.5c0,1.4,1.1,2.5,2.4,2.5h27v-17H250z"/>
		<line class="st7" x1="279.3" y1="37.3" x2="279.3" y2="73.3"/>
		<line class="st7" x1="250" y1="56.3" x2="309.9" y2="56.3"/>
	</g>
	<g id="chairs_copy_3-4">
		<path class="st8" d="M266.3,79H263c-2.4-0.1-4.4,1.7-4.5,4.1l0,0v0.2l0.2,3c0.2,3.1,2.9,5.4,5.9,5.2l0,0c3.1,0.1,5.7-2.1,6-5.2
			l0.2-3c0-2.4-1.9-4.4-4.2-4.4L266.3,79z"/>
		<path class="st9" d="M266.3,78.5H263c-2.4-0.1-4.4,1.7-4.5,4.1l0,0v0.2l0.2,3c0.2,3.1,2.9,5.4,5.9,5.2l0,0c3,0.1,5.7-2.1,6-5.2
			l0.2-3c0-2.4-1.9-4.4-4.2-4.4L266.3,78.5z"/>
		<path class="st10" d="M266.2,77.2h-3c-2.3,0-4.1,1.8-4.2,4.1l0,0v0.2l0.2,3c0.2,2.9,2.6,5.2,5.5,5.2l0,0c2.9,0,5.3-2.3,5.5-5.2
			l0.2-3c0.1-2.3-1.6-4.2-3.9-4.3H266.2z"/>
		<path class="st11" d="M259,80.9l0.2,3.6c0.2,2.9,2.6,5.2,5.5,5.2l0,0c2.9,0,5.3-2.3,5.5-5.2l0.2-3.6"/>
		<path class="st8" d="M296.2,79H293c-2.4-0.1-4.4,1.7-4.5,4.1l0,0v0.2l0.2,3c0.2,3.1,2.9,5.4,5.9,5.2l0,0c3,0.1,5.7-2.1,6-5.2
			l0.2-3c0-2.4-1.9-4.4-4.2-4.4H296.2z"/>
		<path class="st9" d="M296.2,78.5H293c-2.4-0.1-4.4,1.7-4.5,4.1l0,0v0.2l0.2,3c0.2,3.1,2.9,5.4,5.9,5.2l0,0c3,0.1,5.7-2.1,6-5.2
			l0.2-3c0-2.4-1.9-4.4-4.2-4.4L296.2,78.5z"/>
		<path class="st10" d="M296.1,77.2h-3c-2.3,0-4.1,1.8-4.2,4.1l0,0v0.2l0.2,3c0.2,2.9,2.6,5.2,5.5,5.2l0,0c2.9,0,5.3-2.3,5.5-5.2
			l0.2-3c0.2-2.2-1.5-4.2-3.7-4.3h0L296.1,77.2L296.1,77.2z"/>
		<path class="st11" d="M288.9,80.9l0.2,3.6c0.2,2.9,2.6,5.2,5.5,5.2l0,0c2.9,0,5.3-2.3,5.5-5.2l0.2-3.6"/>
		<path class="st8" d="M265.8,36.3l-3-0.1c-2.3-0.1-4.1-2-4.1-4.3c0,0,0,0,0,0v-0.2l0.2-3c0.3-2.9,2.7-5.2,5.7-5.2l0,0
			c2.9,0.1,5.3,2.5,5.4,5.4l0.1,3c0.1,2.3-1.7,4.1-3.9,4.2H266L265.8,36.3z"/>
		<path class="st9" d="M265.8,35.8l-3-0.1c-2.3-0.1-4.1-2-4.1-4.3v0l0,0v-0.2l0.2-3c0.3-2.9,2.7-5.1,5.7-5.1l0,0
			c2.9,0.1,5.3,2.5,5.4,5.4l0.1,3c0,2.3-1.8,4.2-4.1,4.2L265.8,35.8z"/>
		<path class="st10" d="M265.8,35.2l-3-0.1c-2.3-0.1-4.1-2-4.1-4.3v0l0,0v-0.2l0.2-3c0.3-2.9,2.7-5.1,5.7-5.1l0,0
			c2.9,0.1,5.3,2.5,5.4,5.4l0.1,3c0,2.3-1.8,4.2-4.1,4.2C266,35.2,265.9,35.2,265.8,35.2z"/>
		<path class="st12" d="M258.6,31.2l0.3-3.6c0.3-2.9,2.7-5.1,5.7-5.1l0,0c2.9,0.1,5.3,2.5,5.4,5.4l0.2,3.6"/>
		<path class="st8" d="M295.5,36.3l-3-0.1c-2.3-0.1-4.1-2-4.1-4.3c0,0,0,0,0,0v-0.2l0.2-3c0.3-2.9,2.7-5.1,5.7-5.1l0,0
			c2.9,0.1,5.3,2.5,5.4,5.4l0.1,3c0.1,2.2-1.7,4.1-3.9,4.2L295.5,36.3z"/>
		<path class="st9" d="M295.5,35.8l-3-0.1c-2.3-0.1-4.1-2-4.1-4.3v0l0,0v-0.2l0.2-3c0.3-2.9,2.7-5.1,5.7-5.1l0,0
			c2.9,0.1,5.3,2.5,5.4,5.4l0.1,3c0,2.3-1.7,4.2-4,4.2L295.5,35.8z"/>
		<path class="st10" d="M295.5,35.3l-3-0.1c-2.3-0.1-4.1-2-4.1-4.3v0l0,0v-0.3l0.2-3c0.3-2.9,2.7-5.1,5.7-5.1l0,0
			c2.9,0.1,5.3,2.5,5.4,5.4l0.1,3c0,2.3-1.7,4.2-4,4.2h-0.1C295.7,35.2,295.6,35.3,295.5,35.3z"/>
		<path class="st12" d="M288.3,31.3l0.3-3.6c0.3-2.9,2.7-5.1,5.7-5.1l0,0c2.9,0.1,5.3,2.5,5.4,5.4l0.2,3.6"/>
	</g>
	<path class="st13" d="M87.5,409.6c0.2-0.2,0.2-0.5,0-0.7l-0.8-0.8c-1.6-1.6-4-1.9-6-0.9l-7.2,3.8c-1.9,1.1-3,3.2-2.6,5.4l0.3,1.2
		l0,0.2c0.1,0.2,0.4,0.3,0.6,0.2c0,0,0,0,0,0l0,0l0,0l0.2-0.1l4.6,8.5l0,0c0.3,0.6,0.9,0.8,1.5,0.6c0,0,0.1,0,0.1-0.1l0.1,0l0,0
		l12.8-6.9l0,0c0.6-0.3,0.8-0.9,0.6-1.5c0,0,0-0.1-0.1-0.1l0-0.1l0,0l-4.6-8.5l0.2-0.1C87.4,409.7,87.4,409.7,87.5,409.6z"/>
	<path class="st14" d="M86.1,409.8L86.1,409.8c0.2-0.2,0.2-0.5,0-0.7l-0.8-0.8c-1.6-1.6-4-1.9-6-0.9l-7.2,3.8
		c-1.9,1.1-3,3.2-2.6,5.4l0.3,1.2l0,0.2c0.1,0.2,0.4,0.3,0.6,0.2c0,0,0,0,0,0l0,0l0,0l0.2-0.1l4.6,8.5c0.3,0.6,0.9,0.8,1.5,0.6
		c0,0,0.1,0,0.1-0.1l0.1,0l12.8-6.9c0.6-0.3,0.8-0.9,0.6-1.5c0,0,0-0.1-0.1-0.1l0-0.1l0,0l-4.6-8.5l0.2-0.1L86.1,409.8L86.1,409.8z"
		/>
	<path class="st15" d="M73.9,426.1l-4.4-8.1l0,0c-0.9-1.6-0.3-3.5,1.3-4.4c0,0,0,0,0,0h0l0,0l9.3-5l0,0c1.6-0.9,3.5-0.3,4.4,1.3
		c0,0,0,0,0,0l0,0l0,0l4.4,8.1l0,0c0.5,0.9,0.1,1.9-0.7,2.4c0,0,0,0,0,0l0,0l-11.9,6.4C75.4,427.2,74.4,426.9,73.9,426.1z"/>
	<path class="st16" d="M84.6,409.8l0.8,0.8l0.1,0.1c0.1,0.2,0.1,0.5-0.1,0.6l0,0l0,0l-7.4,3.4c-0.4,0.2-0.8,0.4-1.2,0.6l-6.9,4.3
		l-0.2,0c-0.2,0.1-0.5-0.1-0.6-0.3l-0.3-1.2c-0.4-2.2,0.6-4.4,2.6-5.4l7.2-3.8C80.6,407.9,83,408.2,84.6,409.8z"/>
	<path class="st17" d="M84.1,408.3l0.8,0.8c0.2,0.2,0.2,0.5,0,0.7c-0.1,0-0.1,0-0.1,0.1l-7.4,3.4c-0.4,0.2-0.8,0.4-1.2,0.6l-6.9,4.3
		l-0.2,0c-0.2,0.1-0.5-0.1-0.6-0.3l-0.3-1.2c-0.4-2.2,0.6-4.4,2.6-5.4l7.2-3.8C80.1,406.5,82.5,406.8,84.1,408.3z"/>
	<path class="st13" d="M115.3,376.2H53.9c-1.2,0-2.1-0.7-2.1-1.5v-19.9h65.5v19.8c0.1,0.8-0.6,1.5-1.8,1.6H115.3z"/>
	<path class="st14" d="M113.4,376.2H52c-1.2,0-2.1-0.7-2.1-1.5v-19.9h65.5v19.8C115.5,375.4,114.6,376.1,113.4,376.2z"/>
	<path class="st18" d="M111.1,376.2H49.6c-1.2,0-2.1-0.7-2.1-1.5v-19.9h65.5v19.8C113.3,375.4,112.4,376.1,111.1,376.2z"/>
	<rect x="47.3" y="354.8" class="st19" width="66.4" height="4.9"/>
	<rect x="47.3" y="359.7" class="st13" width="66.4" height="1.6"/>
	<path class="st13" d="M102.8,458.9c-0.2,0.2-0.2,0.5,0,0.7l0.8,0.8c1.6,1.6,4,1.9,6,0.9l7.2-3.8c1.9-1.1,3-3.2,2.6-5.4l-0.3-1.2
		l0-0.2c-0.1-0.2-0.4-0.3-0.6-0.2c0,0,0,0,0,0l0,0l0,0l-0.2,0.1l-4.6-8.5l0,0c-0.3-0.6-0.9-0.8-1.5-0.6c0,0-0.1,0-0.1,0.1l-0.1,0
		l0,0l-12.8,6.9l0,0c-0.6,0.3-0.8,0.9-0.6,1.5c0,0,0,0.1,0.1,0.1l0,0.1l0,0l4.6,8.5l-0.2,0.1C102.9,458.8,102.9,458.8,102.8,458.9z"
		/>
	<path class="st14" d="M104.2,458.7L104.2,458.7c-0.2,0.2-0.2,0.5,0,0.7l0.8,0.8c1.6,1.6,4,1.9,6,0.9l7.2-3.8c1.9-1.1,3-3.2,2.6-5.4
		l-0.3-1.2l0-0.2c-0.1-0.2-0.4-0.3-0.6-0.2c0,0,0,0,0,0l0,0l0,0l-0.2,0.1l-4.6-8.5c-0.3-0.6-0.9-0.8-1.5-0.6c0,0-0.1,0-0.1,0.1
		l-0.1,0l-12.8,6.9c-0.6,0.3-0.8,0.9-0.6,1.5c0,0,0,0.1,0.1,0.1l0,0.1l0,0l4.6,8.5l-0.2,0.1L104.2,458.7L104.2,458.7z"/>
	<path class="st15" d="M116.4,442.4l4.4,8.1l0,0c0.9,1.6,0.3,3.5-1.3,4.4c0,0,0,0,0,0l0,0l0,0l-9.3,5l0,0c-1.6,0.9-3.5,0.3-4.4-1.3
		c0,0,0,0,0,0l0,0l0,0l-4.4-8.1l0,0c-0.5-0.9-0.1-1.9,0.7-2.4c0,0,0,0,0,0l0,0l11.9-6.4C114.9,441.3,115.9,441.6,116.4,442.4z"/>
	<path class="st16" d="M105.7,458.7l-0.8-0.8l-0.1-0.1c-0.1-0.2-0.1-0.5,0.1-0.6l0,0l0,0l7.4-3.4c0.4-0.2,0.8-0.4,1.2-0.6l6.9-4.3
		l0.2,0c0.2-0.1,0.5,0.1,0.6,0.3l0.3,1.2c0.4,2.2-0.6,4.4-2.6,5.4l-7.2,3.8C109.7,460.6,107.3,460.3,105.7,458.7z"/>
	<path class="st17" d="M106.2,460.2l-0.8-0.8c-0.2-0.2-0.2-0.5,0-0.7c0.1,0,0.1,0,0.1-0.1l7.4-3.4c0.4-0.2,0.8-0.4,1.2-0.6l6.9-4.3
		l0.2,0c0.2-0.1,0.5,0.1,0.6,0.3l0.3,1.2c0.4,2.2-0.6,4.4-2.6,5.4l-7.2,3.8C110.2,462,107.8,461.7,106.2,460.2z"/>
	<path class="st13" d="M121.4,419.9c0.3,0,0.5-0.1,0.6-0.4l0.2-1.1c0.4-2.2-0.7-4.4-2.6-5.5l-7.2-3.8c-2-1-4.4-0.7-5.9,0.9l-0.8,0.9
		l-0.1,0.1c-0.1,0.2,0,0.5,0.2,0.6l0,0l0,0l0.2,0.1l-4.5,8.5l0,0c-0.3,0.5-0.2,1.2,0.4,1.6c0,0,0.1,0,0.1,0.1l0.1,0.1l0,0l12.9,6.8
		l0,0c0.5,0.3,1.2,0.2,1.6-0.4c0,0,0-0.1,0.1-0.1l0.1-0.1l0,0l4.5-8.5l0.2,0.1C121.2,419.9,121.2,419.9,121.4,419.9z"/>
	<path class="st14" d="M120.4,418.9L120.4,418.9c0.3,0,0.5-0.1,0.6-0.4l0.2-1.1c0.4-2.2-0.7-4.4-2.6-5.5l-7.2-3.8
		c-2-1-4.4-0.7-5.9,0.9l-0.8,0.9l-0.1,0.1c-0.1,0.2,0,0.5,0.2,0.6l0,0l0,0l0.2,0.1l-4.5,8.5c-0.3,0.5-0.2,1.2,0.4,1.6
		c0,0,0.1,0,0.1,0.1l0.1,0.1l12.9,6.8c0.5,0.3,1.2,0.2,1.6-0.4c0,0,0-0.1,0.1-0.1l0.1-0.1l0,0l4.5-8.5l0.2,0.1L120.4,418.9
		L120.4,418.9z"/>
	<path class="st15" d="M100.1,417.9l4.3-8.2l0,0c0.8-1.6,2.8-2.2,4.3-1.4c0,0,0,0,0,0l0,0l0,0l9.3,4.9l0,0c1.6,0.8,2.2,2.8,1.4,4.3
		c0,0,0,0,0,0v0l0,0l-4.3,8.2l0,0c-0.5,0.9-1.5,1.2-2.4,0.7c0,0,0,0,0,0l0,0l-12-6.3C100,419.8,99.7,418.7,100.1,417.9z"/>
	<path class="st16" d="M119.6,417.7l-0.2,1.1v0.1c-0.1,0.2-0.3,0.3-0.6,0.2c0,0,0,0,0,0l0,0l0,0l-7-4.2c-0.4-0.2-0.8-0.5-1.2-0.6
		l-7.4-3.3l-0.1-0.1c-0.2-0.2-0.2-0.5,0-0.7l0.8-0.9c1.6-1.6,4-1.9,5.9-0.9l7.2,3.8C118.9,413.3,120,415.5,119.6,417.7z"/>
	<path class="st17" d="M120.5,416.5l-0.2,1.1c-0.1,0.3-0.3,0.4-0.6,0.4c-0.1-0.1-0.1-0.1-0.1,0l-7-4.2c-0.4-0.2-0.8-0.5-1.2-0.6
		l-7.4-3.3l-0.1-0.1c-0.2-0.2-0.2-0.5,0-0.7l0.8-0.9c1.6-1.6,4-1.9,5.9-0.9l7.2,3.8C119.8,412.1,120.9,414.3,120.5,416.5z"/>
	<path class="st13" d="M69.6,447c-0.3,0-0.5,0.1-0.6,0.4l-0.2,1.1c-0.4,2.2,0.7,4.4,2.6,5.5l7.2,3.8c2,1,4.4,0.7,5.9-0.9l0.8-0.9
		l0.1-0.1c0.1-0.2,0-0.5-0.2-0.6c0,0,0,0,0,0l0,0l0,0l-0.2-0.1l4.5-8.5l0,0c0.3-0.5,0.2-1.2-0.4-1.6c0,0-0.1,0-0.1-0.1l-0.1-0.1l0,0
		l-12.9-6.8l0,0c-0.5-0.3-1.2-0.2-1.6,0.4c0,0,0,0.1-0.1,0.1l-0.1,0.1l0,0l-4.5,8.5l-0.2-0.1C69.7,447,69.7,447,69.6,447z"/>
	<path class="st14" d="M70.6,448.1L70.6,448.1c-0.3,0-0.5,0.1-0.6,0.4l-0.2,1.1c-0.4,2.2,0.7,4.4,2.6,5.5l7.2,3.8
		c2,1,4.4,0.7,5.9-0.9l0.8-0.9l0.1-0.1c0.1-0.2,0-0.5-0.2-0.6c0,0,0,0,0,0l0,0l0,0l-0.2-0.1l4.5-8.5c0.3-0.5,0.2-1.2-0.4-1.6
		c0,0-0.1,0-0.1-0.1l-0.1-0.1l-12.9-6.8c-0.5-0.3-1.2-0.2-1.6,0.4c0,0,0,0.1-0.1,0.1l-0.1,0.1l0,0l-4.5,8.5l-0.2-0.1L70.6,448.1
		L70.6,448.1z"/>
	<path class="st15" d="M90.9,449.1l-4.3,8.2l0,0c-0.8,1.6-2.8,2.2-4.3,1.4c0,0,0,0,0,0h0l0,0l-9.3-4.9l0,0c-1.6-0.8-2.2-2.8-1.4-4.3
		c0,0,0,0,0,0v0l0,0l4.3-8.2l0,0c0.5-0.9,1.5-1.2,2.4-0.7c0,0,0,0,0,0l0,0l12,6.3C91,447.2,91.3,448.2,90.9,449.1z"/>
	<path class="st16" d="M71.4,449.3l0.2-1.1v-0.1c0.1-0.2,0.4-0.3,0.6-0.2c0,0,0,0,0,0l0,0l0,0l7,4.2c0.4,0.2,0.8,0.5,1.2,0.6
		l7.4,3.3l0.1,0.1c0.2,0.2,0.2,0.5,0,0.7l-0.8,0.9c-1.6,1.6-4,1.9-5.9,0.9l-7.2-3.8C72,453.7,71,451.5,71.4,449.3z"/>
	<path class="st17" d="M70.4,450.5l0.2-1.1c0.1-0.3,0.3-0.4,0.6-0.4c0.1,0.1,0.1,0.1,0.1,0l7,4.2c0.4,0.2,0.8,0.5,1.2,0.6l7.4,3.3
		l0.1,0.1c0.2,0.2,0.2,0.5,0,0.7l-0.8,0.9c-1.6,1.6-4,1.9-5.9,0.9l-7.2-3.8C71.2,454.9,70.1,452.7,70.4,450.5z"/>
	<path class="st20" d="M89.5,438.1v-1.4c0-3.2,2.6-5.9,5.8-5.9c0,0,0,0,0,0h1.4c3.2,0,5.9,2.6,5.9,5.8c0,0,0,0,0,0c0,0,0,0.1,0,0.1
		v1.4c0,3.2-2.6,5.9-5.8,5.9c0,0,0,0,0,0h-1.4C92.2,443.9,89.6,441.3,89.5,438.1z"/>
	<path class="st20" d="M88.3,438.1v-1.4c0-3.2,2.6-5.9,5.8-5.9c0,0,0,0,0,0h1.4c3.2,0,5.9,2.6,5.9,5.8c0,0,0,0,0,0c0,0,0,0.1,0,0.1
		v1.4c0,3.2-2.6,5.9-5.8,5.9c0,0,0,0,0,0h-1.4C90.9,444,88.3,441.3,88.3,438.1z"/>
	<path class="st20" d="M87.2,437.4L87.2,437.4c0-3.7,2.9-6.7,6.5-6.7c0,0,0,0,0,0h0.1c3.6,0,6.6,3,6.6,6.6v0.1c0,3.6-3,6.6-6.6,6.6
		l0,0C90.1,444,87.2,441,87.2,437.4z"/>
	<path class="st20" d="M93.9,428.5v-1.2c0-2.8,2.2-5,5-5.1c0,0,0,0,0,0h1.2c2.8,0,5,2.2,5.1,5c0,0,0,0,0,0c0,0,0,0.1,0,0.1v1.2
		c0,2.8-2.2,5-5,5.1c0,0,0,0,0,0h-1.2C96.1,433.5,93.9,431.3,93.9,428.5z"/>
	<path class="st20" d="M92.8,428.5v-1.2c0-2.8,2.2-5,5-5.1c0,0,0,0,0,0H99c2.8,0,5,2.2,5.1,5c0,0,0,0,0,0c0,0,0,0.1,0,0.1v1.2
		c0,2.8-2.2,5-5,5.1c0,0,0,0,0,0h-1.2C95.1,433.6,92.8,431.3,92.8,428.5z"/>
	<path class="st20" d="M91.9,427.9L91.9,427.9c0-3.1,2.5-5.7,5.6-5.7c0,0,0,0,0,0h0.1c3.1,0,5.6,2.5,5.7,5.7v0.1
		c0,3.1-2.5,5.6-5.7,5.7l0,0C94.4,433.5,91.9,431,91.9,427.9z"/>
	<path class="st17" d="M56.9,378.6h9.6c1.8,0,3.3,1.5,3.3,3.3v2.6c0,1.8-1.5,3.3-3.3,3.3h-9.6c-1.8,0-3.3-1.5-3.3-3.3v-2.6
		C53.6,380,55,378.6,56.9,378.6z"/>
	<path class="st17" d="M97.8,378.6h9.6c1.8,0,3.3,1.5,3.3,3.3v2.6c0,1.8-1.5,3.3-3.3,3.3h-9.6c-1.8,0-3.3-1.5-3.3-3.3v-2.6
		C94.5,380,96,378.6,97.8,378.6z"/>
	<path class="st17" d="M81.4,369.3H84c1.8,0,3.3,1.5,3.3,3.3v9.6c0,1.8-1.5,3.3-3.3,3.3h-2.6c-1.8,0-3.3-1.5-3.3-3.3v-9.6
		C78.1,370.7,79.6,369.3,81.4,369.3z"/>
	<path class="st6" d="M146.5,446.8h5.6c1.8,0,3.3,1.5,3.3,3.3v38.6c0,1.8-1.5,3.3-3.3,3.3h-5.6c-1.8,0-3.3-1.5-3.3-3.3v-38.6
		C143.2,448.3,144.7,446.8,146.5,446.8z"/>
	<path class="st6" d="M179.9,398h9c1.8,0,3.3,1.5,3.3,3.3v85.8c0,1.8-1.5,3.3-3.3,3.3h-9c-1.8,0-3.3-1.5-3.3-3.3v-85.8
		C176.6,399.5,178.1,398,179.9,398z"/>
	<path class="st6" d="M203.9,227h98.8c1.8,0,3.3,1.5,3.3,3.3v2.8c0,1.8-1.5,3.3-3.3,3.3h-98.8c-1.8,0-3.3-1.5-3.3-3.3v-2.8
		C200.6,228.4,202.1,227,203.9,227z"/>
	<path class="st13" d="M216.2,44.5c0.1-0.2,0-0.5-0.2-0.7l-1-0.6c-1.9-1.2-4.4-1-6.1,0.5l-6.1,5.3c-1.7,1.5-2.2,3.8-1.3,5.9l0.5,1.1
		l0.1,0.2c0.2,0.2,0.4,0.2,0.6,0l0,0l0,0l0.2-0.2l6.3,7.3l0,0c0.4,0.5,1.1,0.6,1.6,0.2c0,0,0.1-0.1,0.1-0.1l0.1,0l0,0l11-9.6l0,0
		c0.5-0.4,0.6-1.1,0.2-1.6c0,0-0.1-0.1-0.1-0.1l0-0.1l0,0l-6.3-7.3l0.2-0.2C216.2,44.6,216.2,44.6,216.2,44.5z"/>
	<path class="st14" d="M214.9,45L214.9,45c0.1-0.2,0-0.5-0.2-0.7l-1-0.6c-1.9-1.2-4.4-1-6.1,0.5l-6.1,5.3c-1.7,1.5-2.2,3.8-1.3,5.9
		l0.5,1.1l0.1,0.2c0.2,0.2,0.4,0.2,0.6,0l0,0l0,0l0.2-0.2l6.3,7.3c0.4,0.5,1.1,0.6,1.6,0.2c0,0,0.1-0.1,0.1-0.1l0.1,0l11-9.6
		c0.5-0.4,0.6-1.1,0.2-1.6c0,0-0.1-0.1-0.1-0.1l0-0.1l0,0l-6.3-7.3l0.2-0.2L214.9,45L214.9,45z"/>
	<path class="st15" d="M206.6,63.6l-6.1-6.9l0,0c-1.2-1.3-1-3.4,0.3-4.5l0,0l0,0l8-6.9l0,0c1.3-1.2,3.4-1,4.5,0.3l0,0l0,0l6.1,6.9
		l0,0c0.6,0.7,0.6,1.9-0.2,2.5c0,0,0,0,0,0l0,0L209,63.8C208.3,64.3,207.2,64.3,206.6,63.6z"/>
	<path class="st16" d="M213.5,45.3l1,0.6l0.1,0c0.2,0.2,0.2,0.4,0,0.6l0,0l0,0l-6.5,5c-0.4,0.3-0.7,0.5-1,0.9l-5.8,5.7l-0.2,0.1
		c-0.2,0.1-0.5,0-0.6-0.2l-0.5-1.1c-0.9-2-0.3-4.4,1.3-5.9l6.1-5.3C209.1,44.3,211.6,44.2,213.5,45.3z"/>
	<path class="st17" d="M212.7,44l1,0.6c0.2,0.1,0.3,0.4,0.2,0.7c-0.1,0-0.1,0,0,0.1l-6.5,5c-0.4,0.3-0.7,0.5-1,0.9l-5.8,5.7
		l-0.2,0.1c-0.2,0.1-0.5,0-0.6-0.2l-0.5-1.1c-0.9-2-0.3-4.4,1.3-5.9l6.1-5.3C208.3,43.1,210.8,42.9,212.7,44z"/>
	<path class="st20" d="M223.8,66.6l-1.1-0.4c-2.6-1-3.9-3.9-2.9-6.5l0-0.1l0.4-1c1-2.6,3.9-3.9,6.5-2.9l0.1,0l1.1,0.4
		c2.6,1,3.9,3.9,2.9,6.5l0,0.1l-0.4,1C229.2,66.3,226.4,67.6,223.8,66.6z"/>
	<path class="st20" d="M223.4,67.6l-1.1-0.4c-2.6-1-3.9-3.9-2.9-6.5l0-0.1l0.4-1c1-2.6,3.9-3.9,6.5-2.9l0.1,0l1.1,0.4
		c2.6,1,3.9,3.9,2.9,6.5l0,0.1l-0.4,1C228.9,67.3,226,68.6,223.4,67.6z"/>
	<path class="st20" d="M222.5,68.2L222.5,68.2c-2.9-1.1-4.4-4.4-3.3-7.3l0-0.1l0,0c1.2-2.9,4.4-4.3,7.3-3.2l0.1,0
		c2.9,1.2,4.3,4.4,3.2,7.3l0,0C228.6,67.9,225.4,69.4,222.5,68.2L222.5,68.2z"/>
	<path class="st4" d="M248.5,195.8V182c0-0.3,0.4-0.5,0.9-0.5h9.2c0.5,0,0.9,0.2,0.9,0.5v13.8c0,0.2-0.3,0.4-0.7,0.4h-9.7
		C248.7,196.2,248.5,196,248.5,195.8L248.5,195.8z"/>
	<path class="st5" d="M247.3,195.8V182c0-0.3,0.4-0.5,0.9-0.5h9.2c0.5,0,0.9,0.2,0.9,0.5v13.8c0,0.2-0.3,0.4-0.7,0.4h-9.7
		C247.6,196.2,247.3,196,247.3,195.8z"/>
	<path class="st6" d="M246.5,195.8V182c0-0.3,0.4-0.5,0.9-0.5h9.2c0.5,0,0.9,0.2,0.9,0.5v13.8c0,0.2-0.3,0.4-0.7,0.4h-9.7
		C246.8,196.2,246.5,196,246.5,195.8z"/>
	<path class="st4" d="M288.5,199.7v-13.8c0-0.3,0.4-0.5,0.9-0.5h9.2c0.5,0,0.9,0.2,0.9,0.5v13.8c0,0.2-0.3,0.4-0.7,0.4h-9.7
		C288.7,200.1,288.5,199.9,288.5,199.7z"/>
	<path class="st5" d="M287.3,199.7v-13.8c0-0.3,0.4-0.5,0.9-0.5h9.2c0.5,0,0.9,0.2,0.9,0.5v13.8c0,0.2-0.3,0.4-0.7,0.4H288
		C287.6,200.1,287.3,199.9,287.3,199.7z"/>
	<path class="st6" d="M286.5,199.7v-13.8c0-0.3,0.4-0.5,0.9-0.5h9.2c0.5,0,0.9,0.2,0.9,0.5v13.8c0,0.2-0.3,0.4-0.7,0.4h-9.7
		C286.8,200,286.5,199.9,286.5,199.7z"/>
	<path class="st4" d="M197.3,199.7v-13.8c0-0.3,0.4-0.5,0.9-0.5h9.2c0.5,0,0.9,0.2,0.9,0.5v13.8c0,0.2-0.3,0.4-0.7,0.4h-9.7
		C197.6,200.1,197.3,199.9,197.3,199.7z"/>
	<path class="st5" d="M196.1,199.7v-13.8c0-0.3,0.4-0.5,0.9-0.5h9.2c0.5,0,0.9,0.2,0.9,0.5v13.8c0,0.2-0.3,0.4-0.7,0.4h-9.6
		C196.4,200.1,196.1,199.9,196.1,199.7z"/>
	<path class="st6" d="M195.4,199.7v-13.8c0-0.3,0.4-0.5,0.9-0.5h9.2c0.5,0,0.9,0.2,0.9,0.5v13.8c0,0.2-0.3,0.4-0.7,0.4H196
		C195.6,200,195.4,199.9,195.4,199.7z"/>
	<path class="st8" d="M300.3,191.9v2.1c-0.1,1.5,1.1,2.8,2.7,2.9h0.2l1.9-0.1c2-0.2,3.5-1.9,3.4-3.8l0,0c0.1-2-1.4-3.7-3.4-3.9
		l-1.9-0.1c-1.6,0-2.8,1.2-2.9,2.8L300.3,191.9z"/>
	<path class="st9" d="M300,191.9v2.1c-0.1,1.5,1.1,2.8,2.7,2.9h0.2l1.9-0.1c2-0.2,3.5-1.9,3.4-3.8l0,0c0.1-2-1.4-3.7-3.4-3.9
		l-1.9-0.1c-1.6,0-2.8,1.2-2.9,2.8L300,191.9z"/>
	<path class="st10" d="M299.2,191.9v1.9c0,1.5,1.2,2.7,2.7,2.7h0.1l1.9-0.1c1.9-0.1,3.4-1.7,3.4-3.6l0,0c0-1.9-1.5-3.5-3.4-3.6
		l-1.9-0.1c-1.4-0.1-2.7,1-2.8,2.4v0L299.2,191.9L299.2,191.9z"/>
	<path class="st21" d="M301.5,196.6l2.3-0.2c1.9-0.1,3.4-1.7,3.4-3.6l0,0c0-1.9-1.5-3.5-3.4-3.6l-2.3-0.2"/>
	<path class="st8" d="M208.4,191.8v2.1c-0.1,1.5,1.1,2.8,2.7,2.9h0.2l1.9-0.1c2-0.2,3.5-1.9,3.4-3.8l0,0c0.1-2-1.4-3.7-3.4-3.9
		l-1.9-0.1c-1.6,0-2.8,1.2-2.9,2.8V191.8z"/>
	<path class="st9" d="M208.2,191.8v2.1c-0.1,1.5,1.1,2.8,2.7,2.9h0.2l1.9-0.1c2-0.2,3.5-1.9,3.4-3.8l0,0c0.1-2-1.4-3.7-3.4-3.9
		l-1.9-0.1c-1.6,0-2.8,1.2-2.9,2.8V191.8z"/>
	<path class="st10" d="M207.3,191.9v1.9c0,1.5,1.2,2.7,2.7,2.7h0.1l1.9-0.1c1.9-0.1,3.4-1.7,3.4-3.6l0,0c0-1.9-1.5-3.5-3.4-3.6
		l-1.9-0.1c-1.4-0.1-2.7,1-2.8,2.4c0,0,0,0,0,0v0V191.9L207.3,191.9z"/>
	<path class="st21" d="M209.7,196.5l2.3-0.2c1.9-0.1,3.4-1.7,3.4-3.6l0,0c0-1.9-1.5-3.5-3.4-3.6l-2.3-0.2"/>
	<rect x="232.9" y="182.6" class="st15" width="11.8" height="21.5"/>
	<polyline class="st22" points="232.9,201.8 232.9,183.3 240.8,183.3 	"/>
	<rect x="262" y="182.6" class="st15" width="11.8" height="21.5"/>
	<polyline class="st22" points="273.7,201.8 273.7,183.3 265.9,183.3 	"/>
	<g id="tables_copy_3-2-2">
		<path class="st4" d="M48.7,33.7h54.2c1.5,0,2.8,1.2,2.8,2.7l0,0v30.3c0,1.5-1.2,2.8-2.7,2.8H48.7c-1.5,0-2.8-1.2-2.8-2.7l0,0V36.5
			C45.9,34.9,47.1,33.7,48.7,33.7C48.7,33.7,48.7,33.7,48.7,33.7L48.7,33.7z"/>
		<path class="st5" d="M48.7,32.1h54.2c1.5,0,2.8,1.2,2.8,2.7l0,0v30.3c0,1.5-1.2,2.8-2.7,2.8H48.7c-1.5,0-2.8-1.2-2.8-2.7l0,0V34.9
			C45.9,33.3,47.1,32.1,48.7,32.1C48.7,32.1,48.7,32.1,48.7,32.1L48.7,32.1z"/>
		<path id="table-23-2-2" class="st6" d="M75.2,31.1h-27c-1.4,0-2.5,1.1-2.5,2.4V50h29.5L75.2,31.1z"/>
		<path id="table-24-2-2" class="st6" d="M105.8,50V33.6c0-1.4-1.1-2.5-2.4-2.5H74.9v19L105.8,50z"/>
		<path id="table-25-2-2" class="st6" d="M74.9,50v17h28.4c1.4,0,2.5-1.1,2.5-2.4V50H74.9z"/>
		<path id="table-26-2-2" class="st6" d="M45.9,50v14.5c0,1.4,1.1,2.5,2.4,2.5h27V50H45.9z"/>
		<line class="st7" x1="75.2" y1="31.1" x2="75.2" y2="67"/>
		<line class="st7" x1="45.9" y1="50" x2="105.8" y2="50"/>
	</g>
	<g id="chairs_copy_3-2-2">
		<path class="st8" d="M62.2,72.7h-3.2c-2.4-0.1-4.4,1.7-4.5,4.1l0,0V77l0.2,3c0.2,3.1,2.9,5.4,5.9,5.2l0,0c3,0.1,5.7-2.1,6-5.2
			l0.2-3c0-2.4-1.9-4.4-4.2-4.4L62.2,72.7z"/>
		<path class="st9" d="M62.2,72.3h-3.2c-2.4-0.1-4.4,1.7-4.5,4.1l0,0v0.2l0.2,3c0.2,3.1,2.9,5.4,5.9,5.2l0,0c3,0.1,5.7-2.1,6-5.2
			l0.2-3c0-2.4-1.9-4.4-4.2-4.4L62.2,72.3z"/>
		<path class="st10" d="M62.1,70.9h-3c-2.3,0-4.1,1.8-4.2,4.1l0,0v0.2l0.2,3c0.2,2.9,2.6,5.2,5.5,5.2l0,0c2.9,0,5.3-2.3,5.5-5.2
			l0.2-3c0.1-2.3-1.6-4.2-3.9-4.3H62.1z"/>
		<path class="st11" d="M54.9,74.6l0.2,3.6c0.2,2.9,2.6,5.2,5.5,5.2l0,0c2.9,0,5.3-2.3,5.5-5.2l0.2-3.6"/>
		<path class="st8" d="M92.1,72.7h-3.2c-2.4-0.1-4.4,1.7-4.5,4.1l0,0V77l0.2,3c0.2,3.1,2.9,5.4,5.9,5.2l0,0c3,0.1,5.7-2.1,6-5.2
			l0.2-3c0-2.4-1.9-4.4-4.2-4.4L92.1,72.7z"/>
		<path class="st9" d="M92.1,72.3h-3.2c-2.4-0.1-4.4,1.7-4.5,4.1l0,0v0.2l0.2,3c0.2,3.1,2.9,5.4,5.9,5.2l0,0c3,0.1,5.7-2.1,6-5.2
			l0.2-3c0-2.4-1.9-4.4-4.2-4.4L92.1,72.3z"/>
		<path class="st10" d="M92,70.9h-3c-2.3,0-4.1,1.8-4.2,4.1l0,0v0.2l0.2,3c0.2,2.9,2.6,5.2,5.5,5.2l0,0c2.9,0,5.3-2.3,5.5-5.2l0.2-3
			c0.2-2.2-1.5-4.2-3.7-4.3c0,0,0,0,0,0h0L92,70.9L92,70.9z"/>
		<path class="st11" d="M84.8,74.6l0.2,3.6c0.2,2.9,2.6,5.2,5.5,5.2l0,0c2.9,0,5.3-2.3,5.5-5.2l0.2-3.6"/>
		<path class="st8" d="M61.7,30l-3-0.1c-2.3-0.1-4.1-2-4.1-4.3v-0.2l0.2-3c0.3-2.9,2.7-5.2,5.7-5.2l0,0c2.9,0.1,5.3,2.5,5.4,5.4
			l0.1,3c0.1,2.3-1.7,4.1-3.9,4.2h-0.2L61.7,30z"/>
		<path class="st9" d="M61.7,29.5l-3-0.1c-2.3-0.1-4.1-2-4.1-4.3v0l0,0v-0.2l0.2-3c0.3-2.9,2.7-5.1,5.7-5.1l0,0
			c2.9,0.1,5.3,2.5,5.4,5.4l0.1,3c0,2.3-1.8,4.2-4.1,4.2H61.7z"/>
		<path class="st10" d="M61.7,28.9l-3-0.1c-2.3-0.1-4.1-2-4.1-4.3v0l0,0v-0.2l0.2-3c0.3-2.9,2.7-5.1,5.7-5.1l0,0
			c2.9,0.1,5.3,2.5,5.4,5.4l0.1,3c0,2.3-1.8,4.2-4.1,4.2C61.9,28.9,61.8,28.9,61.7,28.9z"/>
		<path class="st12" d="M54.5,24.9l0.3-3.6c0.3-2.9,2.7-5.1,5.7-5.1l0,0c2.9,0.1,5.3,2.5,5.4,5.4l0.2,3.6"/>
		<path class="st8" d="M91.4,30l-3-0.1c-2.3-0.1-4.1-2-4.1-4.3v-0.2l0.2-3c0.3-2.9,2.7-5.1,5.7-5.1l0,0c2.9,0.1,5.3,2.5,5.4,5.4
			l0.1,3c0.1,2.3-1.7,4.1-3.9,4.2L91.4,30z"/>
		<path class="st9" d="M91.4,29.6l-3-0.1c-2.3-0.1-4.1-2-4.1-4.3v0l0,0V25l0.2-3c0.3-2.9,2.7-5.1,5.7-5.1l0,0
			c2.9,0.1,5.3,2.5,5.4,5.4l0.1,3c0,2.3-1.7,4.2-4,4.2L91.4,29.6z"/>
		<path class="st10" d="M91.4,29l-3-0.1c-2.3-0.1-4.1-2-4.1-4.3c0,0,0,0,0,0v0l0,0v-0.2l0.2-3c0.3-2.9,2.7-5.1,5.7-5.1l0,0
			c2.9,0.1,5.3,2.5,5.4,5.4l0.1,3c0,2.3-1.7,4.2-4,4.2h-0.1C91.6,29,91.5,29,91.4,29z"/>
		<path class="st12" d="M84.2,25l0.3-3.6c0.3-2.9,2.7-5.1,5.7-5.1l0,0c2.9,0.1,5.3,2.5,5.4,5.4l0.2,3.6"/>
	</g>
	<g id="tables_copy_3-4-2">
		<path class="st4" d="M234.9,117.2h54.2c1.5,0,2.8,1.2,2.8,2.7v30.3c0,1.5-1.2,2.8-2.7,2.8h-54.3c-1.5,0-2.8-1.2-2.8-2.7l0,0v-30.3
			C232.1,118.5,233.3,117.2,234.9,117.2C234.8,117.2,234.8,117.2,234.9,117.2L234.9,117.2z"/>
		<path class="st5" d="M234.9,115.7h54.2c1.5,0,2.8,1.2,2.8,2.7l0,0v30.3c0,1.5-1.2,2.8-2.7,2.8h-54.3c-1.5,0-2.8-1.2-2.8-2.7l0,0
			v-30.3C232.1,116.9,233.3,115.7,234.9,115.7C234.8,115.7,234.8,115.7,234.9,115.7L234.9,115.7z"/>
		<path id="table-23-4-2" class="st6" d="M261.4,114.7h-27c-1.3,0-2.5,1.1-2.5,2.4v16.6h29.5L261.4,114.7z"/>
		<path id="table-24-4-2" class="st6" d="M292,133.6v-16.5c0-1.4-1.1-2.5-2.4-2.5h-28.5v19L292,133.6z"/>
		<path id="table-25-4-2" class="st6" d="M261.1,133.6v17h28.4c1.4,0,2.5-1.1,2.5-2.4v-14.6H261.1z"/>
		<path id="table-26-4-2" class="st6" d="M232.1,133.6v14.5c0,1.4,1.1,2.5,2.4,2.5h27v-17H232.1z"/>
		<line class="st7" x1="261.4" y1="114.7" x2="261.4" y2="150.6"/>
		<line class="st7" x1="232.1" y1="133.6" x2="292" y2="133.6"/>
	</g>
	<g id="chairs_copy_3-4-2">
		<path class="st8" d="M248.4,156.3h-3.2c-2.4-0.1-4.4,1.7-4.5,4.1l0,0v0.2l0.2,3c0.2,3,2.9,5.4,5.9,5.2l0,0c3.1,0.1,5.7-2.1,6-5.2
			l0.2-3c0-2.4-1.9-4.4-4.2-4.4L248.4,156.3z"/>
		<path class="st9" d="M248.4,155.9h-3.2c-2.4-0.1-4.4,1.7-4.5,4.1l0,0v0.2l0.2,3c0.2,3,2.9,5.4,5.9,5.2l0,0c3,0.1,5.7-2.1,6-5.2
			l0.2-3c0-2.4-1.9-4.4-4.2-4.4L248.4,155.9z"/>
		<path class="st10" d="M248.3,154.5h-3c-2.3,0-4.1,1.8-4.2,4.1l0,0v0.2l0.2,3c0.2,2.9,2.6,5.2,5.5,5.2l0,0c2.9,0,5.3-2.3,5.5-5.2
			l0.2-3c0.1-2.3-1.6-4.2-3.9-4.3H248.3z"/>
		<path class="st11" d="M241.1,158.2l0.2,3.6c0.2,2.9,2.6,5.2,5.5,5.2l0,0c2.9,0,5.3-2.3,5.5-5.2l0.2-3.6"/>
		<path class="st8" d="M278.3,156.3h-3.2c-2.4-0.1-4.4,1.7-4.5,4.1l0,0v0.2l0.2,3c0.2,3.1,2.9,5.4,5.9,5.2l0,0c3,0.1,5.7-2.1,6-5.2
			l0.2-3c0-2.4-1.9-4.4-4.2-4.4H278.3z"/>
		<path class="st9" d="M278.3,155.9h-3.2c-2.4-0.1-4.4,1.7-4.5,4.1l0,0v0.2l0.2,3c0.2,3.1,2.9,5.4,5.9,5.2l0,0c3,0.1,5.7-2.1,6-5.2
			l0.2-3c0-2.4-1.9-4.4-4.2-4.4L278.3,155.9z"/>
		<path class="st10" d="M278.2,154.5h-3c-2.3,0-4.1,1.8-4.2,4.1l0,0v0.2l0.2,3c0.2,2.9,2.6,5.2,5.5,5.2l0,0c2.9,0,5.3-2.3,5.5-5.2
			l0.2-3c0.2-2.2-1.5-4.2-3.7-4.3h0L278.2,154.5L278.2,154.5z"/>
		<path class="st11" d="M271,158.2l0.2,3.6c0.2,2.9,2.6,5.2,5.5,5.2l0,0c2.9,0,5.3-2.3,5.5-5.2l0.2-3.6"/>
		<path class="st8" d="M247.9,113.6l-3-0.1c-2.3-0.1-4.1-2-4.1-4.3V109l0.2-3c0.3-2.9,2.7-5.2,5.7-5.2l0,0c2.9,0.1,5.3,2.5,5.4,5.4
			l0.1,3c0.1,2.3-1.7,4.1-3.9,4.2h-0.2L247.9,113.6z"/>
		<path class="st9" d="M247.9,113.1l-3-0.1c-2.3-0.1-4.1-2-4.1-4.3v0l0,0v-0.2l0.2-3c0.3-2.9,2.7-5.1,5.7-5.1l0,0
			c2.9,0.1,5.3,2.5,5.4,5.4l0.1,3c0,2.3-1.8,4.2-4.1,4.2L247.9,113.1z"/>
		<path class="st10" d="M247.9,112.5l-3-0.1c-2.3-0.1-4.1-2-4.1-4.3v0l0,0v-0.2l0.2-3c0.3-2.9,2.7-5.1,5.7-5.1l0,0
			c2.9,0.1,5.3,2.5,5.4,5.4l0.1,3c0,2.3-1.8,4.2-4.1,4.2C248.1,112.5,248,112.5,247.9,112.5z"/>
		<path class="st12" d="M240.7,108.5l0.3-3.6c0.3-2.9,2.7-5.1,5.7-5.1l0,0c2.9,0.1,5.3,2.5,5.4,5.4l0.2,3.6"/>
		<path class="st8" d="M277.6,113.6l-3-0.1c-2.3-0.1-4.1-2-4.1-4.3c0,0,0,0,0,0V109l0.2-3c0.3-2.9,2.7-5.1,5.7-5.1l0,0
			c2.9,0.1,5.3,2.5,5.4,5.4l0.1,3c0.1,2.2-1.7,4.1-3.9,4.2H277.6z"/>
		<path class="st9" d="M277.6,113.2l-3-0.1c-2.3-0.1-4.1-2-4.1-4.3v0l0,0v-0.2l0.2-3c0.3-2.9,2.7-5.1,5.7-5.1l0,0
			c2.9,0.1,5.3,2.5,5.4,5.4l0.1,3c0,2.3-1.7,4.2-4,4.2L277.6,113.2z"/>
		<path class="st10" d="M277.6,112.6l-3-0.1c-2.3-0.1-4.1-2-4.1-4.3v0l0,0v-0.2l0.2-3c0.3-2.9,2.7-5.1,5.7-5.1l0,0
			c2.9,0.1,5.3,2.5,5.4,5.4l0.1,3c0,2.3-1.7,4.2-4,4.2h-0.1C277.8,112.6,277.7,112.6,277.6,112.6z"/>
		<path class="st12" d="M270.4,108.6l0.3-3.6c0.3-2.9,2.7-5.1,5.7-5.1l0,0c2.9,0.1,5.3,2.5,5.4,5.4l0.2,3.6"/>
	</g>
</g>
<g id="bookable">
	<polygon id="area-05.503-status" class="st23" points="138.2,12.9 138.2,172.4 13.4,172.4 16.5,4.6 	"/>
	<rect id="area-05.502-status" x="13.4" y="172.4" class="st23" width="124.8" height="79.7"/>
	<polygon id="area-05.504-status" class="st23" points="192.9,13.2 192.9,95.8 335.2,95.8 335.2,5.6 264.1,18.4 	"/>
	<polygon id="area-05.501-status" class="st23" points="10.6,329.6 13.4,252.1 138.2,252.1 138.2,329.6 	"/>
	<rect id="area-05.505-status" x="192.9" y="95.8" class="st23" width="142.3" height="77"/>
</g>
<g id="Room_name">
	<g id="Text-2">
		<path class="st6" d="M73.2,214.7c0,0.2,0.1,0.5,0.3,0.6c0.2,0.2,0.4,0.2,0.6,0.2c0.3,0,0.5-0.1,0.7-0.3c0.2-0.2,0.3-0.5,0.2-0.8
			c0-0.3-0.1-0.6-0.2-0.8c-0.2-0.2-0.4-0.4-0.7-0.3c-0.1,0-0.3,0-0.4,0.1c-0.2,0.1-0.4,0.2-0.4,0.4l-1.1-0.1l0.4-3.5h3.5v1.1h-2.6
			l-0.2,1.4c0.1-0.1,0.3-0.2,0.5-0.2c0.2-0.1,0.4-0.1,0.7-0.1c1.1,0,1.9,0.8,2,1.9c0,0.1,0,0.1,0,0.2c0,0.6-0.2,1.1-0.6,1.6
			c-0.4,0.5-1.1,0.7-1.7,0.7c-0.5,0-1.1-0.2-1.5-0.5c-0.4-0.4-0.6-0.9-0.6-1.4L73.2,214.7z"/>
		<path class="st6" d="M80.9,210.8c0.7,1.6,0.7,3.3,0,4.9c-0.7,0.9-2,1.1-3,0.4c-0.2-0.1-0.3-0.3-0.4-0.4c-0.7-1.6-0.7-3.3,0-4.9
			c0.7-0.9,2-1.1,3-0.4C80.6,210.5,80.8,210.7,80.9,210.8z M78.5,214.9c0.1,0.3,0.4,0.6,0.7,0.6c0.4,0,0.7-0.2,0.7-0.6
			c0.1-0.5,0.2-1.1,0.2-1.7c0-0.6,0-1.1-0.2-1.7c-0.1-0.3-0.4-0.6-0.7-0.6c-0.3,0-0.7,0.2-0.7,0.6c-0.1,0.6-0.2,1.1-0.2,1.7
			C78.3,213.8,78.3,214.4,78.5,214.9L78.5,214.9z"/>
		<path class="st6" d="M82.3,215.1c0.3-0.6,0.7-1,1.3-1.3c0.4-0.3,0.8-0.6,1.1-0.9c0.2-0.2,0.4-0.6,0.4-0.9c0-0.2-0.1-0.5-0.2-0.7
			c-0.4-0.4-0.9-0.4-1.3,0c0,0-0.1,0.1-0.1,0.2c-0.1,0.2-0.1,0.5-0.1,0.8h-1.2c0-0.5,0.1-0.9,0.3-1.3c0.3-0.6,1-1,1.8-1
			c0.6,0,1.2,0.2,1.6,0.6c0.4,0.4,0.6,0.9,0.6,1.5c0,0.5-0.1,0.9-0.4,1.3c-0.3,0.3-0.6,0.6-0.9,0.8l-0.5,0.4
			c-0.3,0.2-0.5,0.4-0.6,0.5c-0.1,0.1-0.2,0.2-0.3,0.3h2.8v1.1H82C82,215.9,82.1,215.5,82.3,215.1z"/>
	</g>
	<g id="Text-3">
		<path class="st6" d="M73.2,291.8c0,0.2,0.1,0.5,0.3,0.6c0.2,0.2,0.4,0.2,0.6,0.2c0.3,0,0.5-0.1,0.7-0.3c0.2-0.2,0.3-0.5,0.2-0.8
			c0-0.3-0.1-0.6-0.2-0.8c-0.2-0.2-0.4-0.4-0.7-0.3c-0.1,0-0.3,0-0.4,0.1c-0.2,0.1-0.4,0.2-0.4,0.4l-1.1-0.1l0.4-3.5h3.5v1.1h-2.6
			l-0.2,1.4c0.1-0.1,0.3-0.2,0.5-0.2c0.2-0.1,0.4-0.1,0.7-0.1c1.1,0,1.9,0.8,2,1.9c0,0.1,0,0.1,0,0.2c0,0.6-0.2,1.1-0.6,1.6
			c-0.4,0.5-1.1,0.7-1.7,0.7c-0.5,0-1.1-0.2-1.5-0.5c-0.4-0.4-0.6-0.9-0.6-1.4L73.2,291.8z"/>
		<path class="st6" d="M80.9,288c0.7,1.6,0.7,3.3,0,4.9c-0.7,0.9-2,1.1-3,0.4c-0.2-0.1-0.3-0.3-0.4-0.4c-0.7-1.6-0.7-3.3,0-4.9
			c0.7-0.9,2-1.1,3-0.4C80.6,287.7,80.8,287.8,80.9,288z M78.5,292.1c0.1,0.3,0.4,0.6,0.7,0.6c0.4,0,0.7-0.2,0.7-0.6
			c0.1-0.5,0.2-1.1,0.2-1.7c0-0.6,0-1.1-0.2-1.7c-0.1-0.3-0.4-0.6-0.7-0.6c-0.3,0-0.7,0.2-0.7,0.6c-0.1,0.6-0.2,1.1-0.2,1.7
			C78.3,291,78.3,291.5,78.5,292.1z"/>
		<path class="st6" d="M82.3,289.1v-0.9c0.3,0,0.6,0,0.8-0.1c0.2,0,0.4-0.2,0.6-0.3c0.1-0.1,0.2-0.3,0.2-0.5c0-0.1,0-0.2,0-0.3h1
			v6.4h-1.3v-4.4L82.3,289.1z"/>
	</g>
	<g id="Text-4">
		<path class="st6" d="M256,60c0,0.2,0.1,0.5,0.3,0.6c0.2,0.2,0.4,0.2,0.6,0.2c0.3,0,0.5-0.1,0.7-0.3c0.2-0.2,0.3-0.5,0.2-0.8
			c0-0.3-0.1-0.6-0.2-0.8c-0.2-0.2-0.4-0.4-0.7-0.3c-0.1,0-0.3,0-0.4,0.1c-0.2,0.1-0.4,0.2-0.4,0.4l-1.1-0.1l0.4-3.5h3.5v1.1h-2.6
			l-0.2,1.4c0.1-0.1,0.3-0.2,0.5-0.2c0.2-0.1,0.4-0.1,0.7-0.1c1.1,0,1.9,0.8,2,1.9c0,0.1,0,0.1,0,0.2c0,0.6-0.2,1.1-0.6,1.6
			c-0.4,0.5-1.1,0.7-1.7,0.7c-0.5,0-1.1-0.2-1.5-0.5c-0.4-0.4-0.6-0.9-0.6-1.4L256,60z"/>
		<path class="st6" d="M263.7,56.1c0.7,1.6,0.7,3.3,0,4.9c-0.7,0.9-2,1.1-3,0.4c-0.2-0.1-0.3-0.3-0.4-0.4c-0.7-1.6-0.7-3.3,0-4.9
			c0.7-0.9,2-1.1,3-0.4C263.4,55.8,263.5,56,263.7,56.1z M261.2,60.3c0.1,0.3,0.4,0.6,0.7,0.6c0.4,0,0.7-0.2,0.7-0.6
			c0.1-0.5,0.2-1.1,0.2-1.7c0-0.6,0-1.1-0.2-1.7c-0.1-0.3-0.4-0.6-0.7-0.6c-0.3,0-0.7,0.2-0.7,0.6c-0.1,0.6-0.2,1.1-0.2,1.7
			C261,59.1,261.1,59.7,261.2,60.3L261.2,60.3z"/>
		<path class="st6" d="M269.2,60.3h-0.7v1.4h-1.2v-1.4h-2.5v-1.1l2.3-3.9h1.4v4h0.7V60.3z M267.2,59.4v-2.7l-1.6,2.7L267.2,59.4z"/>
	</g>
	<g id="Text-5">
		<path class="st6" d="M256,138.4c0,0.2,0.1,0.5,0.3,0.6c0.2,0.2,0.4,0.2,0.6,0.2c0.3,0,0.5-0.1,0.7-0.3c0.2-0.2,0.3-0.5,0.2-0.8
			c0-0.3-0.1-0.6-0.2-0.8c-0.2-0.2-0.4-0.4-0.7-0.3c-0.1,0-0.3,0-0.4,0.1c-0.2,0.1-0.4,0.2-0.4,0.4l-1.1-0.1l0.4-3.5h3.5v1.1h-2.6
			l-0.2,1.4c0.1-0.1,0.3-0.2,0.5-0.2c0.2-0.1,0.4-0.1,0.7-0.1c1.1,0,1.9,0.8,2,1.9c0,0.1,0,0.1,0,0.2c0,0.6-0.2,1.1-0.6,1.6
			c-0.4,0.5-1.1,0.7-1.7,0.7c-0.5,0-1.1-0.2-1.5-0.5c-0.4-0.4-0.6-0.9-0.6-1.4L256,138.4z"/>
		<path class="st6" d="M263.7,134.6c0.7,1.6,0.7,3.3,0,4.9c-0.7,0.9-2,1.1-3,0.4c-0.2-0.1-0.3-0.3-0.4-0.4c-0.7-1.6-0.7-3.3,0-4.9
			c0.7-0.9,2-1.1,3-0.4C263.4,134.3,263.5,134.4,263.7,134.6z M261.2,138.7c0.1,0.3,0.4,0.6,0.7,0.6c0.4,0,0.7-0.2,0.7-0.6
			c0.1-0.5,0.2-1.1,0.2-1.7c0-0.6,0-1.1-0.2-1.7c-0.1-0.3-0.4-0.6-0.7-0.6c-0.3,0-0.7,0.2-0.7,0.6c-0.1,0.6-0.2,1.1-0.2,1.7
			C261,137.6,261.1,138.1,261.2,138.7L261.2,138.7z"/>
		<path class="st6" d="M266,138.4c0,0.2,0.1,0.5,0.3,0.6c0.2,0.2,0.4,0.2,0.6,0.2c0.3,0,0.5-0.1,0.7-0.3c0.2-0.2,0.3-0.5,0.2-0.8
			c0-0.3-0.1-0.6-0.2-0.8c-0.2-0.2-0.4-0.4-0.7-0.3c-0.1,0-0.3,0-0.4,0.1c-0.2,0.1-0.4,0.2-0.4,0.4l-1.1-0.1l0.4-3.5h3.5v1.1h-2.6
			l-0.2,1.4c0.1-0.1,0.3-0.2,0.5-0.2c0.2-0.1,0.4-0.1,0.7-0.1c1.1,0,1.9,0.8,2,1.9c0,0.1,0,0.1,0,0.2c0,0.6-0.2,1.1-0.6,1.6
			c-0.4,0.5-1.1,0.7-1.7,0.7c-0.5,0-1.1-0.2-1.5-0.5c-0.4-0.4-0.6-0.9-0.6-1.4L266,138.4z"/>
	</g>
	<g id="Text-6">
		<path class="st6" d="M69.3,89.9c0,0.2,0.1,0.5,0.3,0.6c0.2,0.2,0.4,0.2,0.6,0.2c0.3,0,0.5-0.1,0.7-0.3c0.2-0.2,0.3-0.5,0.2-0.8
			c0-0.3-0.1-0.6-0.2-0.8c-0.2-0.2-0.4-0.4-0.7-0.3c-0.1,0-0.3,0-0.4,0.1c-0.2,0.1-0.4,0.2-0.4,0.4l-1.1-0.1l0.4-3.5h3.5v1.1h-2.6
			l-0.2,1.4c0.1-0.1,0.3-0.2,0.5-0.2c0.2-0.1,0.4-0.1,0.7-0.1c1.1,0,1.9,0.8,2,1.9c0,0.1,0,0.1,0,0.2c0,0.6-0.2,1.1-0.6,1.6
			c-0.4,0.5-1.1,0.7-1.7,0.7c-0.5,0-1.1-0.2-1.5-0.5c-0.4-0.4-0.6-0.9-0.6-1.4L69.3,89.9z"/>
		<path class="st6" d="M77,86.1c0.7,1.6,0.7,3.3,0,4.9c-0.7,0.9-2,1.1-3,0.4c-0.2-0.1-0.3-0.3-0.4-0.4c-0.7-1.6-0.7-3.3,0-4.9
			c0.7-0.9,2-1.1,3-0.4C76.7,85.8,76.9,85.9,77,86.1z M74.5,90.2c0.1,0.3,0.4,0.6,0.7,0.6c0.4,0,0.7-0.2,0.7-0.6
			c0.1-0.5,0.2-1.1,0.2-1.7c0-0.6,0-1.1-0.2-1.7c-0.1-0.3-0.4-0.6-0.7-0.6c-0.3,0-0.7,0.2-0.7,0.6c-0.1,0.6-0.2,1.1-0.2,1.7
			C74.3,89.1,74.4,89.6,74.5,90.2L74.5,90.2z"/>
		<path class="st6" d="M79.3,89.7c0,0.2,0,0.4,0.1,0.6c0.2,0.3,0.5,0.5,0.8,0.5c0.2,0,0.5-0.1,0.6-0.3c0.2-0.2,0.3-0.5,0.3-0.7
			c0-0.4-0.2-0.7-0.5-0.8c-0.3-0.1-0.6-0.1-0.9-0.1v-0.9c0.3,0,0.6,0,0.8-0.1c0.3-0.1,0.5-0.4,0.4-0.7c0-0.2-0.1-0.4-0.2-0.6
			c-0.2-0.2-0.4-0.2-0.6-0.2c-0.3,0-0.5,0.1-0.7,0.3c-0.1,0.2-0.2,0.5-0.2,0.8h-1.2c0-0.3,0.1-0.6,0.2-0.9c0.1-0.3,0.3-0.5,0.5-0.7
			c0.2-0.2,0.4-0.3,0.6-0.3c0.3-0.1,0.5-0.1,0.8-0.1c0.5,0,1.1,0.1,1.5,0.5c0.4,0.3,0.6,0.8,0.6,1.3c0,0.3-0.1,0.7-0.3,0.9
			c-0.1,0.1-0.3,0.3-0.4,0.3c0.2,0,0.4,0.1,0.5,0.3c0.3,0.3,0.5,0.8,0.5,1.2c0,0.5-0.2,1-0.6,1.4c-0.4,0.4-1,0.7-1.7,0.6
			c-0.7,0.1-1.5-0.3-1.9-0.9c-0.2-0.4-0.3-0.8-0.3-1.2L79.3,89.7z"/>
	</g>
</g>
<g id="outline">
	<polygon class="st24" points="16.5,4.6 257.2,16.3 335.2,4.6 335.2,273.1 525.6,273.1 525.6,311.7 742.3,311.7 749.6,685.9 
		4.1,685.9 	"/>
	<polyline class="st25" points="13.4,172.4 138.2,172.4 138.2,140.1 138.2,224.3 	"/>
	<polyline class="st25" points="138.2,121.3 138.2,12.9 192.9,13.2 192.9,67.1 	"/>
	<polyline class="st25" points="192.9,83.2 192.9,146.4 192.9,95.8 335.2,95.8 335.2,172.8 192.9,172.8 192.9,163 	"/>
	<polyline class="st25" points="13.4,252.1 138.2,252.1 138.2,239.5 138.2,300 	"/>
	<polyline class="st25" points="10.6,329.6 138.2,329.6 138.2,319.7 138.2,379.7 	"/>
	<polyline class="st25" points="421.2,375.7 421.2,320.2 421.2,347.9 	"/>
	<polyline class="st25" points="335.2,273.1 335.2,282.1 192.9,282.1 192.9,300 192.9,266.4 	"/>
	<polyline class="st25" points="192.9,381.1 239.9,381.1 239.9,374.2 239.9,386 	"/>
	<polyline class="st25" points="193.3,423.7 238,423.7 238,491.5 	"/>
	<polyline class="st25" points="238,423.7 238,401.6 238,408.2 267.4,408.2 267.4,319.7 261.5,319.7 338.8,319.7 324.2,319.7 
		324.2,327.5 	"/>
	<polyline class="st25" points="267.4,378.9 325.6,378.9 325.6,374.2 325.6,388.1 	"/>
	<polyline class="st25" points="267.4,341.3 325.6,341.3 325.6,354.1 	"/>
	<polyline class="st25" points="267.4,408.2 282.3,408.2 282.3,412.7 325.6,412.7 325.6,408.2 325.6,423.7 	"/>
	<polyline class="st25" points="372.7,354.1 365.8,354.1 365.8,455.9 372.7,455.9 	"/>
	<polyline class="st25" points="255.7,447.3 325.6,447.3 325.6,441.1 325.6,453.2 	"/>
	<line class="st25" x1="282.3" y1="412.7" x2="282.3" y2="447.1"/>
	<polyline class="st25" points="421.2,375.7 421.2,491.5 7.6,491.5 	"/>
	<path class="st25" d="M466.3,319.9"/>
	<polyline class="st25" points="372.7,319.9 466.3,319.9 524,319.9 524,273.1 	"/>
	<line class="st25" x1="398.4" y1="320.2" x2="398.4" y2="491.5"/>
	<polyline class="st25" points="307.3,447.3 307.3,478.8 276.3,478.8 276.3,491.5 	"/>
</g>
<g id="icons">
	<circle class="st26" cx="309.1" cy="248.7" r="10.3"/>
	<g>
		<path class="st27" d="M296.9,265.3l0.5,0.1c-0.1,0.4-0.3,0.8-0.6,1c-0.3,0.2-0.7,0.4-1.1,0.4c-0.4,0-0.8-0.1-1.1-0.3
			c-0.3-0.2-0.5-0.5-0.6-0.8c-0.1-0.3-0.2-0.7-0.2-1.1c0-0.4,0.1-0.8,0.2-1.1c0.2-0.3,0.4-0.6,0.7-0.7c0.3-0.2,0.7-0.3,1-0.2
			c0.4,0,0.7,0.1,1,0.3c0.3,0.2,0.5,0.5,0.6,0.9l-0.5,0.1c-0.1-0.3-0.2-0.5-0.4-0.7c-0.2-0.1-0.4-0.2-0.7-0.2
			c-0.3,0-0.6,0.1-0.8,0.2c-0.2,0.1-0.4,0.4-0.4,0.6c-0.1,0.3-0.1,0.5-0.1,0.8c0,0.3,0,0.6,0.2,0.9c0.1,0.2,0.3,0.4,0.5,0.6
			c0.2,0.1,0.5,0.2,0.7,0.2c0.3,0,0.6-0.1,0.8-0.3C296.7,265.9,296.9,265.6,296.9,265.3z"/>
		<path class="st27" d="M297.9,265.3c0-0.5,0.1-0.9,0.5-1.2c0.3-0.2,0.6-0.3,0.9-0.3c0.4,0,0.7,0.1,1,0.4c0.3,0.3,0.4,0.7,0.4,1.1
			c0,0.3,0,0.6-0.2,0.9c-0.1,0.2-0.3,0.4-0.5,0.5c-0.2,0.1-0.5,0.2-0.7,0.2c-0.4,0-0.7-0.1-1-0.4C298,266.1,297.9,265.7,297.9,265.3
			z M298.4,265.3c0,0.3,0.1,0.6,0.2,0.9c0.3,0.3,0.8,0.4,1.2,0.1c0,0,0.1-0.1,0.1-0.1c0.2-0.3,0.3-0.6,0.2-0.9
			c0-0.3-0.1-0.6-0.3-0.8c-0.3-0.3-0.8-0.4-1.2-0.1c0,0-0.1,0.1-0.1,0.1C298.5,264.6,298.4,264.9,298.4,265.3z"/>
		<path class="st27" d="M301.3,267.9v-4.1h0.5v0.4c0.1-0.1,0.2-0.3,0.4-0.3c0.2-0.1,0.3-0.1,0.5-0.1c0.2,0,0.5,0.1,0.7,0.2
			c0.2,0.1,0.4,0.3,0.4,0.6c0.1,0.2,0.2,0.5,0.1,0.8c0,0.3-0.1,0.6-0.2,0.8c-0.1,0.2-0.3,0.4-0.5,0.6c-0.2,0.1-0.4,0.2-0.7,0.2
			c-0.2,0-0.3,0-0.5-0.1c-0.1-0.1-0.2-0.2-0.3-0.3v1.5L301.3,267.9z M301.7,265.3c0,0.3,0.1,0.6,0.2,0.9c0.1,0.2,0.3,0.3,0.6,0.3
			c0.2,0,0.4-0.1,0.6-0.3c0.2-0.3,0.3-0.6,0.2-0.9c0-0.3-0.1-0.6-0.2-0.9c-0.1-0.2-0.3-0.3-0.6-0.3c-0.2,0-0.4,0.1-0.6,0.3
			C301.8,264.6,301.7,265,301.7,265.3L301.7,265.3z"/>
		<path class="st27" d="M304.4,267.9l-0.1-0.5c0.1,0,0.2,0,0.3,0c0.1,0,0.2,0,0.3-0.1c0.1,0,0.1-0.1,0.2-0.2
			c0.1-0.1,0.1-0.2,0.2-0.4c0,0,0-0.1,0-0.1l-1.1-3h0.5l0.6,1.7c0.1,0.2,0.2,0.4,0.2,0.7c0.1-0.2,0.1-0.5,0.2-0.7l0.6-1.7h0.5
			l-1.1,3c-0.1,0.2-0.2,0.5-0.3,0.7c-0.1,0.1-0.2,0.3-0.3,0.4c-0.1,0.1-0.3,0.1-0.4,0.1C304.7,267.9,304.5,267.9,304.4,267.9z"/>
		<path class="st27" d="M307,266.8l1.2-4.3h0.4l-1.2,4.3H307z"/>
		<path class="st27" d="M309,266.7v-4.1h1.6c0.2,0,0.4,0,0.6,0c0.2,0,0.4,0.1,0.5,0.2c0.1,0.1,0.3,0.2,0.3,0.4
			c0.2,0.5,0.1,1-0.2,1.4c-0.3,0.3-0.8,0.4-1.2,0.4h-1.1v1.7L309,266.7z M309.5,264.6h1.1c0.3,0,0.5,0,0.7-0.2
			c0.2-0.1,0.2-0.3,0.2-0.6c0-0.2,0-0.3-0.1-0.4c-0.1-0.1-0.2-0.2-0.3-0.2c-0.2,0-0.3,0-0.5,0h-1.1L309.5,264.6z"/>
		<path class="st27" d="M312.8,266.7v-4.1h0.5v1.5c0.2-0.3,0.5-0.4,0.9-0.4c0.2,0,0.4,0,0.6,0.1c0.2,0.1,0.3,0.2,0.3,0.4
			c0.1,0.2,0.1,0.4,0.1,0.7v1.9h-0.5v-1.9c0-0.2,0-0.4-0.2-0.6c-0.1-0.1-0.3-0.2-0.5-0.2c-0.1,0-0.3,0-0.4,0.1
			c-0.1,0.1-0.2,0.2-0.3,0.3c-0.1,0.2-0.1,0.4-0.1,0.5v1.6L312.8,266.7z"/>
		<path class="st27" d="M315.8,265.3c0-0.5,0.1-0.9,0.5-1.2c0.3-0.2,0.6-0.3,0.9-0.3c0.4,0,0.7,0.1,1,0.4c0.3,0.3,0.4,0.7,0.4,1.1
			c0,0.3,0,0.6-0.2,0.9c-0.1,0.2-0.3,0.4-0.5,0.5c-0.2,0.1-0.5,0.2-0.7,0.2c-0.4,0-0.7-0.1-1-0.4
			C315.9,266.1,315.7,265.7,315.8,265.3z M316.3,265.3c0,0.3,0.1,0.6,0.2,0.9c0.3,0.3,0.8,0.4,1.2,0.1c0,0,0.1-0.1,0.1-0.1
			c0.2-0.3,0.3-0.6,0.2-0.9c0-0.3-0.1-0.6-0.3-0.8c-0.3-0.3-0.8-0.4-1.2-0.1c0,0-0.1,0.1-0.1,0.1
			C316.4,264.6,316.3,264.9,316.3,265.3L316.3,265.3z"/>
		<path class="st27" d="M319.1,266.7v-3h0.5v0.4c0.2-0.3,0.6-0.5,0.9-0.5c0.2,0,0.3,0,0.5,0.1c0.1,0.1,0.3,0.1,0.3,0.3
			c0.1,0.1,0.1,0.2,0.2,0.4c0,0.2,0,0.3,0,0.5v1.8h-0.5v-1.8c0-0.2,0-0.3-0.1-0.5c0-0.1-0.1-0.2-0.2-0.2c-0.1-0.1-0.2-0.1-0.4-0.1
			c-0.2,0-0.4,0.1-0.6,0.2c-0.2,0.2-0.3,0.5-0.2,0.8v1.6L319.1,266.7z"/>
		<path class="st27" d="M324.4,265.8l0.5,0.1c-0.1,0.3-0.2,0.5-0.5,0.7c-0.6,0.4-1.4,0.3-1.9-0.1c-0.3-0.3-0.4-0.7-0.4-1.1
			c0-0.4,0.1-0.8,0.4-1.2c0.3-0.3,0.6-0.4,1-0.4c0.4,0,0.7,0.1,1,0.4c0.3,0.3,0.4,0.7,0.4,1.1c0,0,0,0.1,0,0.1h-2.2
			c0,0.3,0.1,0.5,0.3,0.8c0.2,0.2,0.4,0.3,0.6,0.3c0.2,0,0.3,0,0.5-0.1C324.2,266.1,324.3,266,324.4,265.8z M322.7,265h1.7
			c0-0.2-0.1-0.4-0.2-0.6c-0.2-0.2-0.4-0.3-0.6-0.3c-0.2,0-0.4,0.1-0.6,0.2C322.8,264.5,322.7,264.7,322.7,265L322.7,265z"/>
	</g>
	<g id="Outline_Icons-13-2-4-2-5">
		<g id="Outline_Icons-14-2-4-2-5">
			<path class="st28" d="M307.3,251.2h-1c-0.4,0-0.7-0.3-0.7-0.7v-2c0-0.4,0.3-0.7,0.7-0.7h6.1c0.4,0,0.7,0.3,0.7,0.6c0,0,0,0,0,0.1
				l0,0v2c0,0.4-0.3,0.7-0.7,0.7h-0.9"/>
			<polyline class="st28" points="307.3,247.3 307.3,246 310.6,246 311.6,246.9 311.6,247.3 			"/>
			<rect x="307.3" y="250.2" class="st28" width="4.1" height="2.5"/>
			<circle class="st28" cx="306.7" cy="248.9" r="0.3"/>
			<line class="st28" x1="308" y1="250.8" x2="310.9" y2="250.8"/>
			<line class="st28" x1="308" y1="251.5" x2="310.9" y2="251.5"/>
			<line class="st28" x1="308" y1="252.1" x2="310.9" y2="252.1"/>
			<polyline class="st28" points="310.6,246 310.6,246.9 311.6,246.9 			"/>
		</g>
	</g>
	<circle class="st26" cx="137" cy="414.9" r="10.3"/>
	<g>
		<path class="st27" d="M128.1,432.9v-4.1h0.5v3.6h2v0.5H128.1z"/>
		<path class="st27" d="M131,431.5c0-0.5,0.1-0.9,0.5-1.2c0.3-0.2,0.6-0.3,0.9-0.3c0.4,0,0.7,0.1,1,0.4c0.3,0.3,0.4,0.7,0.4,1.1
			c0,0.3,0,0.6-0.2,0.9c-0.1,0.2-0.3,0.4-0.5,0.5c-0.2,0.1-0.5,0.2-0.7,0.2c-0.4,0-0.7-0.1-1-0.4C131.1,432.3,131,431.9,131,431.5z
			 M131.6,431.5c0,0.3,0.1,0.6,0.2,0.9c0.3,0.3,0.8,0.4,1.2,0.1c0,0,0.1-0.1,0.1-0.1c0.2-0.3,0.3-0.6,0.2-0.9c0-0.3-0.1-0.6-0.3-0.8
			c-0.3-0.3-0.8-0.4-1.2-0.1c0,0-0.1,0.1-0.1,0.1C131.6,430.8,131.5,431.1,131.6,431.5z"/>
		<path class="st27" d="M136.4,432.9v-0.4c-0.2,0.3-0.6,0.5-0.9,0.5c-0.2,0-0.3,0-0.5-0.1c-0.1-0.1-0.3-0.1-0.3-0.3
			c-0.1-0.1-0.1-0.2-0.2-0.4c0-0.2,0-0.3,0-0.5V430h0.5v1.7c0,0.2,0,0.4,0,0.5c0,0.1,0.1,0.2,0.2,0.3c0.1,0.1,0.2,0.1,0.4,0.1
			c0.1,0,0.3,0,0.4-0.1c0.1-0.1,0.2-0.2,0.3-0.3c0.1-0.2,0.1-0.4,0.1-0.6V430h0.5v3L136.4,432.9z"/>
		<path class="st27" d="M137.6,432.9v-3h0.5v0.4c0.2-0.3,0.6-0.5,0.9-0.5c0.2,0,0.3,0,0.5,0.1c0.1,0.1,0.3,0.1,0.3,0.3
			c0.1,0.1,0.1,0.2,0.2,0.4c0,0.2,0,0.3,0,0.5v1.8h-0.5v-1.8c0-0.2,0-0.3-0.1-0.5c0-0.1-0.1-0.2-0.2-0.2c-0.1-0.1-0.2-0.1-0.4-0.1
			c-0.2,0-0.4,0.1-0.6,0.2c-0.2,0.2-0.3,0.5-0.2,0.8v1.6L137.6,432.9z"/>
		<path class="st27" d="M140.7,433.2l0.5,0.1c0,0.1,0.1,0.2,0.2,0.3c0.2,0.1,0.3,0.2,0.5,0.1c0.2,0,0.4,0,0.5-0.1
			c0.1-0.1,0.2-0.2,0.3-0.4c0-0.2,0-0.4,0-0.6c-0.2,0.2-0.5,0.4-0.8,0.4c-0.4,0-0.7-0.1-1-0.4c-0.2-0.3-0.3-0.7-0.3-1.1
			c0-0.3,0-0.5,0.2-0.8c0.1-0.2,0.2-0.4,0.4-0.6c0.2-0.1,0.4-0.2,0.7-0.2c0.3,0,0.7,0.2,0.9,0.4V430h0.5v2.6c0,0.3,0,0.7-0.1,1
			c-0.1,0.2-0.3,0.4-0.4,0.5c-0.2,0.1-0.5,0.2-0.8,0.2c-0.3,0-0.6-0.1-0.9-0.2C140.8,433.7,140.7,433.5,140.7,433.2z M141.1,431.4
			c0,0.3,0.1,0.6,0.2,0.9c0.3,0.3,0.8,0.4,1.1,0.1c0,0,0.1-0.1,0.1-0.1c0.2-0.2,0.3-0.5,0.2-0.8c0-0.3-0.1-0.6-0.2-0.8
			c-0.1-0.2-0.4-0.3-0.6-0.3c-0.2,0-0.4,0.1-0.6,0.3C141.2,430.8,141.1,431.1,141.1,431.4L141.1,431.4z"/>
		<path class="st27" d="M146,432l0.5,0.1c-0.1,0.3-0.2,0.5-0.5,0.7c-0.6,0.4-1.4,0.3-1.9-0.1c-0.3-0.3-0.4-0.7-0.4-1.1
			c0-0.4,0.1-0.8,0.4-1.2c0.3-0.3,0.6-0.4,1-0.4c0.4,0,0.7,0.1,1,0.4c0.3,0.3,0.4,0.7,0.4,1.1c0,0,0,0.1,0,0.1h-2.2
			c0,0.3,0.1,0.5,0.3,0.8c0.2,0.2,0.4,0.3,0.6,0.3c0.2,0,0.3,0,0.5-0.1C145.9,432.3,146,432.2,146,432z M144.4,431.2h1.7
			c0-0.2-0.1-0.4-0.2-0.6c-0.2-0.2-0.4-0.3-0.6-0.3c-0.2,0-0.4,0.1-0.6,0.2C144.5,430.7,144.4,430.9,144.4,431.2L144.4,431.2z"/>
		<path class="st27" d="M131.2,438.7l1.6-4.1h0.6l1.7,4.1h-0.6l-0.5-1.2h-1.7l-0.5,1.2H131.2z M132.3,437h1.4l-0.4-1.1
			c-0.1-0.3-0.2-0.6-0.3-0.9c-0.1,0.3-0.1,0.5-0.2,0.8L132.3,437z"/>
		<path class="st27" d="M135.4,438.7v-3h0.5v0.5c0.1-0.2,0.2-0.3,0.3-0.4c0.1-0.1,0.2-0.1,0.3-0.1c0.2,0,0.4,0.1,0.5,0.2l-0.2,0.5
			c-0.1-0.1-0.2-0.1-0.4-0.1c-0.1,0-0.2,0-0.3,0.1c-0.1,0.1-0.2,0.2-0.2,0.3c-0.1,0.2-0.1,0.4-0.1,0.6v1.6L135.4,438.7z"/>
		<path class="st27" d="M139.3,437.7l0.5,0.1c-0.1,0.3-0.2,0.5-0.5,0.7c-0.6,0.4-1.4,0.3-1.9-0.1c-0.3-0.3-0.4-0.7-0.4-1.1
			c0-0.4,0.1-0.8,0.4-1.2c0.3-0.3,0.6-0.4,1-0.4c0.4,0,0.7,0.1,1,0.4c0.3,0.3,0.4,0.7,0.4,1.1c0,0,0,0.1,0,0.1h-2.2
			c0,0.3,0.1,0.5,0.3,0.8c0.2,0.2,0.4,0.3,0.6,0.3c0.2,0,0.3,0,0.5-0.1C139.2,438.1,139.3,437.9,139.3,437.7z M137.7,436.9h1.7
			c0-0.2-0.1-0.4-0.2-0.6c-0.2-0.2-0.4-0.3-0.6-0.3c-0.2,0-0.4,0.1-0.6,0.2C137.8,436.5,137.7,436.7,137.7,436.9L137.7,436.9z"/>
		<path class="st27" d="M142.4,438.3c-0.2,0.1-0.3,0.3-0.5,0.3c-0.2,0.1-0.4,0.1-0.6,0.1c-0.3,0-0.5-0.1-0.8-0.2
			c-0.2-0.2-0.3-0.4-0.3-0.6c0-0.3,0.1-0.5,0.4-0.7c0.1-0.1,0.2-0.1,0.4-0.2c0.1,0,0.3-0.1,0.4-0.1c0.3,0,0.6-0.1,0.9-0.2
			c0-0.1,0-0.1,0-0.1c0-0.2,0-0.3-0.1-0.4c-0.2-0.1-0.4-0.2-0.6-0.2c-0.2,0-0.4,0-0.5,0.1c-0.1,0.1-0.2,0.3-0.3,0.4l-0.5-0.1
			c0-0.2,0.1-0.4,0.2-0.5c0.1-0.1,0.3-0.2,0.4-0.3c0.2-0.1,0.4-0.1,0.7-0.1c0.2,0,0.4,0,0.6,0.1c0.1,0,0.3,0.1,0.4,0.2
			c0.1,0.1,0.1,0.2,0.2,0.3c0,0.2,0,0.3,0,0.5v0.7c0,0.3,0,0.6,0,0.9c0,0.1,0.1,0.2,0.1,0.4h-0.5
			C142.5,438.6,142.4,438.5,142.4,438.3z M142.4,437.2c-0.3,0.1-0.5,0.2-0.8,0.2c-0.2,0-0.3,0-0.4,0.1c-0.1,0-0.2,0.1-0.2,0.2
			c-0.1,0.2-0.1,0.4,0.1,0.6c0.1,0.1,0.3,0.1,0.4,0.1c0.2,0,0.4,0,0.5-0.1c0.1-0.1,0.3-0.2,0.3-0.3c0.1-0.2,0.1-0.3,0.1-0.5
			L142.4,437.2z"/>
	</g>
	<line class="st29" x1="136.5" y1="413.3" x2="137.1" y2="413.8"/>
	<line class="st29" x1="136.5" y1="414.7" x2="137.1" y2="414.1"/>
	<line class="st29" x1="134.2" y1="419.5" x2="134.2" y2="420.5"/>
	<line class="st29" x1="140.2" y1="419.5" x2="140.2" y2="420.5"/>
	<path class="st29" d="M141.6,418.6c0,0.5-0.3,0.9-0.8,0.9c0,0,0,0,0,0h-7c-0.5,0-0.9-0.4-0.9-0.9l0,0v-0.7c0-0.4,0.3-0.8,0.6-0.9
		c2.4-0.9,5.1-0.9,7.5,0c0.4,0.1,0.6,0.5,0.6,0.9V418.6z"/>
	<path class="st29" d="M141.6,417.6c0.7-0.2,1.1-1,0.9-1.8c-0.2-0.7-1-1.1-1.8-0.9l0,0c-0.7,0.2-1.1,1-0.9,1.7"/>
	<path class="st29" d="M134.6,416.7c0.2-0.7-0.2-1.5-0.9-1.7c-0.7-0.2-1.5,0.2-1.7,0.9l0,0c-0.2,0.7,0.2,1.5,0.9,1.7"/>
	<path class="st29" d="M141.2,414.9c0.5-2.2-0.8-4.5-3.1-5c-2.2-0.5-4.5,0.8-5,3.1l0,0c-0.1,0.6-0.1,1.3,0,1.9"/>
	<line class="st29" x1="137.4" y1="414.1" x2="138" y2="414.7"/>
	<line class="st29" x1="137.4" y1="413.8" x2="138" y2="413.3"/>
	<path class="st29" d="M137.4,414c0,0.1-0.1,0.2-0.2,0.2c0,0,0,0,0,0l0,0c-0.1,0-0.2-0.1-0.2-0.2c0,0,0,0,0,0l0,0
		c0-0.1,0.1-0.2,0.2-0.2c0,0,0,0,0,0l0,0C137.3,413.7,137.4,413.8,137.4,414C137.4,414,137.4,414,137.4,414z"/>
	<circle class="st26" cx="296.5" cy="356" r="10.3"/>
	<g>
		<path class="st27" d="M290.9,374.1V370h0.5v3.6h2v0.5H290.9z"/>
		<path class="st27" d="M294.1,370.6V370h0.5v0.6H294.1z M294.1,374.1v-3h0.5v3H294.1z"/>
		<path class="st27" d="M295.5,374.1v-2.6H295v-0.4h0.4v-0.3c0-0.2,0-0.3,0.1-0.4c0-0.1,0.1-0.2,0.3-0.3c0.2-0.1,0.3-0.1,0.5-0.1
			c0.2,0,0.3,0,0.5,0.1l-0.1,0.4c-0.1,0-0.2,0-0.3,0c-0.1,0-0.2,0-0.3,0.1c-0.1,0.1-0.1,0.2-0.1,0.4v0.3h0.6v0.4H296v2.6
			L295.5,374.1z"/>
		<path class="st27" d="M298.1,373.6l0.1,0.4c-0.1,0-0.3,0-0.4,0c-0.1,0-0.3,0-0.4-0.1c-0.1-0.1-0.2-0.1-0.2-0.2
			c-0.1-0.2-0.1-0.4-0.1-0.6v-1.7h-0.4v-0.4h0.4v-0.7l0.5-0.3v1h0.5v0.4h-0.5v1.7c0,0.1,0,0.2,0,0.3c0,0,0,0.1,0.1,0.1
			c0.1,0,0.1,0,0.2,0C297.9,373.7,298,373.6,298.1,373.6z"/>
		<path class="st27" d="M301.9,374.1h-0.5v-3.2c-0.1,0.1-0.3,0.3-0.5,0.3c-0.2,0.1-0.3,0.2-0.5,0.3V371c0.3-0.1,0.5-0.3,0.7-0.5
			c0.2-0.2,0.3-0.3,0.4-0.5h0.3L301.9,374.1z"/>
	</g>
	<path class="st30" d="M292.1,351.2h9.2c0.2,0,0.4,0.2,0.4,0.4v9.2c0,0.2-0.2,0.4-0.4,0.4h-9.2c-0.2,0-0.4-0.2-0.4-0.4v-9.2
		C291.8,351.3,291.9,351.2,292.1,351.2z"/>
	<rect x="293.8" y="353.4" class="st30" width="2.5" height="7.5"/>
	<rect x="296.4" y="353.4" class="st30" width="2.5" height="7.5"/>
	<line class="st30" x1="295.9" y1="352.3" x2="297.6" y2="352.3"/>
	<polyline class="st31" points="299.9,356.3 300.4,355.9 300.8,356.3 	"/>
	<polyline class="st31" points="299.9,357 300.4,357.4 300.8,357 	"/>
	<circle class="st26" cx="383" cy="398.6" r="10.3"/>
	<g>
		<path class="st27" d="M376.2,415.4l0.5,0c0,0.2,0.1,0.4,0.2,0.5c0.1,0.1,0.2,0.3,0.4,0.3c0.2,0.1,0.4,0.1,0.6,0.1
			c0.2,0,0.4,0,0.5-0.1c0.1,0,0.3-0.1,0.4-0.3c0.1-0.1,0.1-0.2,0.1-0.4c0-0.1,0-0.2-0.1-0.3c-0.1-0.1-0.2-0.2-0.4-0.2
			c-0.2-0.1-0.5-0.1-0.7-0.2c-0.3-0.1-0.5-0.1-0.8-0.3c-0.2-0.1-0.3-0.2-0.4-0.4c-0.1-0.2-0.1-0.3-0.1-0.5c0-0.2,0.1-0.4,0.2-0.6
			c0.1-0.2,0.3-0.3,0.5-0.4c0.2-0.1,0.5-0.1,0.8-0.1c0.3,0,0.5,0,0.8,0.1c0.2,0.1,0.4,0.2,0.5,0.4c0.1,0.2,0.2,0.4,0.2,0.6l-0.5,0
			c0-0.2-0.1-0.4-0.3-0.6c-0.2-0.1-0.5-0.2-0.7-0.2c-0.3,0-0.5,0-0.7,0.2c-0.1,0.1-0.2,0.3-0.2,0.4c0,0.1,0.1,0.3,0.2,0.4
			c0.3,0.2,0.5,0.3,0.8,0.3c0.3,0.1,0.6,0.1,0.9,0.3c0.2,0.1,0.4,0.2,0.5,0.4c0.1,0.2,0.2,0.4,0.2,0.6c0,0.2-0.1,0.4-0.2,0.6
			c-0.1,0.2-0.3,0.4-0.5,0.5c-0.2,0.1-0.5,0.2-0.8,0.2c-0.3,0-0.6,0-0.9-0.2c-0.2-0.1-0.4-0.3-0.6-0.5
			C376.3,415.9,376.2,415.6,376.2,415.4z"/>
		<path class="st27" d="M381.2,416.2l0.1,0.4c-0.1,0-0.3,0-0.4,0c-0.1,0-0.3,0-0.4-0.1c-0.1-0.1-0.2-0.1-0.2-0.2
			c-0.1-0.2-0.1-0.4-0.1-0.6v-1.7h-0.4v-0.4h0.4V413l0.5-0.3v1h0.5v0.4h-0.5v1.7c0,0.1,0,0.2,0,0.3c0,0,0,0.1,0.1,0.1
			c0.1,0,0.1,0,0.2,0C381.1,416.3,381.2,416.2,381.2,416.2z"/>
		<path class="st27" d="M383.7,416.3c-0.2,0.1-0.3,0.3-0.5,0.3c-0.2,0.1-0.4,0.1-0.6,0.1c-0.3,0-0.5-0.1-0.8-0.2
			c-0.2-0.2-0.3-0.4-0.3-0.6c0-0.1,0-0.3,0.1-0.4c0.1-0.1,0.2-0.2,0.3-0.3c0.1-0.1,0.2-0.1,0.4-0.2c0.1,0,0.3-0.1,0.4-0.1
			c0.3,0,0.6-0.1,0.9-0.2c0-0.1,0-0.1,0-0.1c0-0.2,0-0.3-0.1-0.4c-0.2-0.1-0.4-0.2-0.6-0.2c-0.2,0-0.4,0-0.5,0.1
			c-0.1,0.1-0.2,0.3-0.3,0.4l-0.5-0.1c0-0.2,0.1-0.4,0.2-0.5c0.1-0.1,0.3-0.2,0.4-0.3c0.2-0.1,0.4-0.1,0.7-0.1c0.2,0,0.4,0,0.6,0.1
			c0.1,0,0.3,0.1,0.3,0.2c0.1,0.1,0.1,0.2,0.2,0.3c0,0.2,0,0.3,0,0.5v0.7c0,0.3,0,0.6,0,0.9c0,0.1,0.1,0.2,0.1,0.4h-0.5
			C383.7,416.6,383.7,416.4,383.7,416.3z M383.6,415.2c-0.3,0.1-0.5,0.2-0.8,0.2c-0.2,0-0.3,0-0.4,0.1c-0.1,0-0.2,0.1-0.2,0.2
			c-0.1,0.2-0.1,0.4,0.1,0.6c0.1,0.1,0.3,0.1,0.4,0.1c0.2,0,0.4,0,0.5-0.1c0.1-0.1,0.3-0.2,0.3-0.4c0.1-0.2,0.1-0.3,0.1-0.5
			L383.6,415.2z"/>
		<path class="st27" d="M384.9,413.2v-0.6h0.5v0.6H384.9z M384.9,416.7v-3h0.5v3H384.9z"/>
		<path class="st27" d="M386.2,416.7v-3h0.5v0.5c0.1-0.2,0.2-0.3,0.3-0.4c0.1-0.1,0.2-0.1,0.3-0.1c0.2,0,0.4,0.1,0.5,0.2l-0.2,0.5
			c-0.1-0.1-0.2-0.1-0.4-0.1c-0.1,0-0.2,0-0.3,0.1c-0.1,0.1-0.2,0.2-0.2,0.3c-0.1,0.2-0.1,0.4-0.1,0.6v1.6L386.2,416.7z"/>
		<path class="st27" d="M387.9,415.8l0.5-0.1c0,0.2,0.1,0.3,0.2,0.5c0.2,0.1,0.3,0.2,0.5,0.2c0.2,0,0.4,0,0.5-0.1
			c0.1-0.1,0.2-0.2,0.2-0.3c0-0.1-0.1-0.2-0.1-0.3c-0.2-0.1-0.3-0.1-0.5-0.2c-0.3-0.1-0.5-0.1-0.8-0.2c-0.3-0.1-0.4-0.4-0.4-0.7
			c0-0.1,0-0.3,0.1-0.4c0.1-0.1,0.1-0.2,0.2-0.3c0.1-0.1,0.2-0.1,0.3-0.1c0.1,0,0.3-0.1,0.4-0.1c0.2,0,0.4,0,0.6,0.1
			c0.2,0.1,0.3,0.1,0.4,0.3c0.1,0.1,0.2,0.3,0.2,0.5l-0.5,0.1c0-0.1-0.1-0.3-0.2-0.4c-0.1-0.1-0.3-0.1-0.5-0.1c-0.2,0-0.3,0-0.5,0.1
			c-0.1,0.1-0.1,0.2-0.1,0.3c0,0.1,0,0.1,0.1,0.2c0.1,0.1,0.1,0.1,0.2,0.1c0.1,0,0.2,0.1,0.4,0.1c0.3,0.1,0.5,0.1,0.7,0.2
			c0.1,0.1,0.2,0.1,0.3,0.3c0.1,0.1,0.1,0.3,0.1,0.4c0,0.2-0.1,0.3-0.1,0.5c-0.1,0.2-0.3,0.3-0.4,0.3c-0.2,0.1-0.4,0.1-0.6,0.1
			c-0.3,0-0.6-0.1-0.9-0.2C388.1,416.3,387.9,416.1,387.9,415.8z"/>
	</g>
	<g id="Outline_Icons-2-2-4-2-2-2-3">
		<line class="st28" x1="379.1" y1="402.1" x2="386.3" y2="402.1"/>
		<polyline class="st28" points="385,402.1 385,400.8 383.8,400.8 383.8,399.6 382.5,399.6 382.5,398.3 381.3,398.3 381.3,397 
			379.1,397 		"/>
		<line class="st28" x1="382.9" y1="394.8" x2="386.8" y2="398.8"/>
		<polyline class="st28" points="382.9,396.5 382.9,394.8 384.5,394.8 		"/>
		<polyline class="st28" points="386.8,397.3 386.8,398.8 385.3,398.8 		"/>
	</g>
	<circle class="st26" cx="296.5" cy="391.5" r="10.3"/>
	<g>
		<path class="st27" d="M290.9,409.6v-4.1h0.5v3.6h2v0.5H290.9z"/>
		<path class="st27" d="M294.1,406.1v-0.6h0.5v0.6H294.1z M294.1,409.6v-3h0.5v3H294.1z"/>
		<path class="st27" d="M295.5,409.6V407H295v-0.4h0.4v-0.3c0-0.2,0-0.3,0.1-0.4c0-0.1,0.1-0.2,0.3-0.3c0.2-0.1,0.3-0.1,0.5-0.1
			c0.2,0,0.3,0,0.5,0.1l-0.1,0.4c-0.1,0-0.2,0-0.3,0c-0.1,0-0.2,0-0.3,0.1c-0.1,0.1-0.1,0.2-0.1,0.4v0.3h0.6v0.4H296v2.6
			L295.5,409.6z"/>
		<path class="st27" d="M298.1,409.1l0.1,0.4c-0.1,0-0.3,0-0.4,0c-0.1,0-0.3,0-0.4-0.1c-0.1-0.1-0.2-0.1-0.2-0.2
			c-0.1-0.2-0.1-0.4-0.1-0.6V407h-0.4v-0.4h0.4v-0.7l0.5-0.3v1h0.5v0.4h-0.5v1.7c0,0.1,0,0.2,0,0.3c0,0,0,0.1,0.1,0.1
			c0.1,0,0.1,0,0.2,0C297.9,409.1,298,409.1,298.1,409.1z"/>
		<path class="st27" d="M302.7,409.1v0.5h-2.7c0-0.1,0-0.2,0.1-0.4c0.1-0.2,0.2-0.4,0.3-0.5c0.2-0.2,0.4-0.4,0.7-0.6
			c0.3-0.3,0.6-0.5,0.9-0.9c0.1-0.2,0.2-0.4,0.2-0.6c0-0.2-0.1-0.4-0.2-0.5c-0.2-0.1-0.4-0.2-0.6-0.2c-0.2,0-0.4,0.1-0.6,0.2
			c-0.2,0.2-0.2,0.4-0.2,0.6l-0.5-0.1c0-0.3,0.2-0.7,0.4-0.9c0.3-0.2,0.6-0.3,0.9-0.3c0.3,0,0.7,0.1,0.9,0.3
			c0.2,0.2,0.4,0.5,0.3,0.8c0,0.2,0,0.3-0.1,0.5c-0.1,0.2-0.2,0.4-0.3,0.5c-0.2,0.3-0.5,0.5-0.8,0.7c-0.3,0.3-0.5,0.4-0.6,0.5
			c-0.1,0.1-0.2,0.2-0.2,0.3L302.7,409.1z"/>
	</g>
	<path class="st30" d="M292.1,386.7h9.2c0.2,0,0.4,0.2,0.4,0.4v9.2c0,0.2-0.2,0.4-0.4,0.4h-9.2c-0.2,0-0.4-0.2-0.4-0.4V387
		C291.8,386.8,291.9,386.7,292.1,386.7z"/>
	<rect x="293.8" y="388.9" class="st30" width="2.5" height="7.5"/>
	<rect x="296.4" y="388.9" class="st30" width="2.5" height="7.5"/>
	<line class="st30" x1="295.9" y1="387.8" x2="297.6" y2="387.8"/>
	<polyline class="st31" points="299.9,391.8 300.4,391.4 300.8,391.8 	"/>
	<polyline class="st31" points="299.9,392.5 300.4,392.9 300.8,392.5 	"/>
	<circle class="st26" cx="304.4" cy="426" r="10.3"/>
	<g>
		<path class="st27" d="M298.8,444.1V440h0.5v3.6h2v0.5L298.8,444.1z"/>
		<path class="st27" d="M301.9,440.6V440h0.5v0.6H301.9z M301.9,444.1v-3h0.5v3H301.9z"/>
		<path class="st27" d="M303.3,444.1v-2.6h-0.4v-0.4h0.4v-0.3c0-0.2,0-0.3,0.1-0.4c0-0.1,0.1-0.2,0.3-0.3c0.2-0.1,0.3-0.1,0.5-0.1
			c0.2,0,0.3,0,0.5,0.1l-0.1,0.4c-0.1,0-0.2,0-0.3,0c-0.1,0-0.2,0-0.3,0.1c-0.1,0.1-0.1,0.2-0.1,0.4v0.3h0.6v0.4h-0.6v2.6
			L303.3,444.1z"/>
		<path class="st27" d="M305.9,443.6l0.1,0.4c-0.1,0-0.3,0-0.4,0c-0.1,0-0.3,0-0.4-0.1c-0.1-0.1-0.2-0.1-0.2-0.2
			c-0.1-0.2-0.1-0.4-0.1-0.6v-1.7h-0.4v-0.4h0.4v-0.7l0.5-0.3v1h0.5v0.4h-0.5v1.7c0,0.1,0,0.2,0,0.3c0,0,0,0.1,0.1,0.1
			c0.1,0,0.1,0,0.2,0C305.8,443.7,305.8,443.6,305.9,443.6z"/>
		<path class="st27" d="M307.9,443l0.5-0.1c0,0.2,0.1,0.4,0.3,0.6c0.1,0.1,0.3,0.2,0.5,0.2c0.2,0,0.4-0.1,0.6-0.2
			c0.2-0.2,0.3-0.4,0.2-0.6c0-0.2-0.1-0.4-0.2-0.6c-0.2-0.2-0.4-0.2-0.6-0.2c-0.1,0-0.2,0-0.4,0.1l0.1-0.4c0,0,0.1,0,0.1,0
			c0.2,0,0.4-0.1,0.6-0.2c0.2-0.1,0.3-0.3,0.3-0.5c0-0.2-0.1-0.3-0.2-0.5c-0.1-0.1-0.3-0.2-0.5-0.2c-0.2,0-0.4,0.1-0.5,0.2
			c-0.1,0.2-0.2,0.3-0.3,0.6l-0.5-0.1c0-0.3,0.2-0.6,0.4-0.8c0.2-0.2,0.5-0.3,0.8-0.3c0.2,0,0.4,0,0.6,0.1c0.2,0.1,0.3,0.2,0.4,0.4
			c0.1,0.2,0.1,0.3,0.2,0.5c0,0.2,0,0.3-0.1,0.5c-0.1,0.2-0.3,0.3-0.4,0.3c0.2,0,0.4,0.2,0.6,0.3c0.1,0.2,0.2,0.4,0.2,0.7
			c0,0.3-0.1,0.7-0.4,0.9c-0.3,0.3-0.6,0.4-1,0.4c-0.3,0-0.7-0.1-0.9-0.3C308,443.6,307.9,443.3,307.9,443z"/>
	</g>
	<path class="st30" d="M300,421.2h9.2c0.2,0,0.4,0.2,0.4,0.4v9.2c0,0.2-0.2,0.4-0.4,0.4H300c-0.2,0-0.4-0.2-0.4-0.4v-9.2
		C299.7,421.3,299.8,421.2,300,421.2z"/>
	<rect x="301.7" y="423.4" class="st30" width="2.5" height="7.5"/>
	<rect x="304.2" y="423.4" class="st30" width="2.5" height="7.5"/>
	<line class="st30" x1="303.7" y1="422.3" x2="305.5" y2="422.3"/>
	<polyline class="st31" points="307.8,426.3 308.2,425.9 308.7,426.3 	"/>
	<polyline class="st31" points="307.8,427 308.2,427.4 308.7,427 	"/>
	<circle class="st26" cx="216.3" cy="454.5" r="10.3"/>
	<g id="Outline_Icons-5-3">
		<path class="st28" d="M220,454.8c0,0.1-0.1,0.3-0.2,0.3h-2.1v-4.2c0-0.4,0.3-0.8,0.8-0.8c0,0,0,0,0,0h0.8c0.4,0,0.8,0.3,0.8,0.8
			c0,0,0,0,0,0l0,0L220,454.8L220,454.8z"/>
		<path class="st28" d="M214.6,459h3.9v-2.3l1.1-0.8v-0.8H213c-0.1,1,0.7,1.9,1.7,1.9c0,0,0,0,0.1,0h0.1L214.6,459z"/>
		<rect x="212.7" y="454.4" class="st28" width="5.1" height="0.8"/>
		<circle class="st28" cx="219.1" cy="451.4" r="0.3"/>
	</g>
	<g>
		<path class="st27" d="M211.3,472.6V469H210v-0.5h3.3v0.5h-1.4v3.6H211.3z"/>
		<path class="st27" d="M212.9,471.1c0-0.5,0.1-0.9,0.5-1.2c0.3-0.2,0.6-0.3,0.9-0.3c0.4,0,0.7,0.1,1,0.4c0.3,0.3,0.4,0.7,0.4,1.1
			c0,0.3,0,0.6-0.2,0.9c-0.1,0.2-0.3,0.4-0.5,0.5c-0.2,0.1-0.5,0.2-0.7,0.2c-0.4,0-0.7-0.1-1-0.4C213,471.9,212.9,471.5,212.9,471.1
			z M213.4,471.1c0,0.3,0.1,0.6,0.2,0.9c0.3,0.3,0.8,0.4,1.2,0.1c0,0,0.1-0.1,0.1-0.1c0.2-0.3,0.3-0.6,0.2-0.9
			c0-0.3-0.1-0.6-0.3-0.8c-0.3-0.3-0.8-0.4-1.2-0.1c0,0-0.1,0.1-0.1,0.1C213.5,470.5,213.4,470.8,213.4,471.1z"/>
		<path class="st27" d="M216.3,469.1v-0.6h0.5v0.6H216.3z M216.3,472.6v-3h0.5v3H216.3z"/>
		<path class="st27" d="M217.6,472.6v-4.1h0.5v4.1H217.6z"/>
		<path class="st27" d="M220.9,471.6l0.5,0.1c-0.1,0.3-0.2,0.5-0.5,0.7c-0.2,0.2-0.5,0.3-0.9,0.3c-0.4,0-0.8-0.1-1-0.4
			c-0.3-0.3-0.4-0.7-0.4-1.1c0-0.4,0.1-0.8,0.4-1.2c0.3-0.3,0.6-0.4,1-0.4c0.4,0,0.7,0.1,1,0.4c0.3,0.3,0.4,0.7,0.4,1.1
			c0,0,0,0.1,0,0.1h-2.2c0,0.3,0.1,0.5,0.3,0.8c0.2,0.2,0.4,0.3,0.6,0.3c0.2,0,0.3,0,0.5-0.1C220.7,472,220.8,471.8,220.9,471.6z
			 M219.2,470.8h1.7c0-0.2-0.1-0.4-0.2-0.6c-0.2-0.2-0.4-0.3-0.6-0.3c-0.2,0-0.4,0.1-0.6,0.2C219.3,470.4,219.2,470.6,219.2,470.8z"
			/>
		<path class="st27" d="M223.1,472.2l0.1,0.4c-0.1,0-0.3,0-0.4,0c-0.1,0-0.3,0-0.4-0.1c-0.1-0.1-0.2-0.1-0.2-0.2
			c-0.1-0.2-0.1-0.4-0.1-0.6V470h-0.4v-0.4h0.4v-0.7l0.5-0.3v1h0.5v0.4h-0.5v1.7c0,0.1,0,0.2,0,0.3c0,0,0,0.1,0.1,0.1
			c0.1,0,0.1,0,0.2,0C223,472.2,223.1,472.2,223.1,472.2z"/>
	</g>
	<circle class="st26" cx="259.5" cy="454.5" r="10.3"/>
	<g id="Outline_Icons-5-3-2">
		<path class="st28" d="M263.1,454.8c0,0.1-0.1,0.3-0.2,0.3h-2.1v-4.2c0-0.4,0.3-0.8,0.8-0.8c0,0,0,0,0,0h0.8c0.4,0,0.8,0.3,0.8,0.8
			c0,0,0,0,0,0l0,0L263.1,454.8L263.1,454.8z"/>
		<path class="st28" d="M257.7,459h3.9v-2.3l1.1-0.8v-0.8h-6.7c-0.1,1,0.7,1.9,1.7,1.9c0,0,0,0,0.1,0h0.1L257.7,459z"/>
		<rect x="255.8" y="454.4" class="st28" width="5.1" height="0.8"/>
		<circle class="st28" cx="262.2" cy="451.4" r="0.3"/>
	</g>
	<g>
		<path class="st27" d="M254.4,472.6V469h-1.4v-0.5h3.3v0.5H255v3.6H254.4z"/>
		<path class="st27" d="M256,471.1c0-0.5,0.1-0.9,0.5-1.2c0.3-0.2,0.6-0.3,0.9-0.3c0.4,0,0.7,0.1,1,0.4c0.3,0.3,0.4,0.7,0.4,1.1
			c0,0.3,0,0.6-0.2,0.9c-0.1,0.2-0.3,0.4-0.5,0.5c-0.2,0.1-0.5,0.2-0.7,0.2c-0.4,0-0.7-0.1-1-0.4C256.1,471.9,256,471.5,256,471.1z
			 M256.5,471.1c0,0.3,0.1,0.6,0.2,0.9c0.3,0.3,0.8,0.4,1.2,0.1c0,0,0.1-0.1,0.1-0.1c0.2-0.3,0.3-0.6,0.2-0.9c0-0.3-0.1-0.6-0.3-0.8
			c-0.3-0.3-0.8-0.4-1.2-0.1c0,0-0.1,0.1-0.1,0.1C256.6,470.5,256.5,470.8,256.5,471.1z"/>
		<path class="st27" d="M259.4,469.1v-0.6h0.5v0.6H259.4z M259.4,472.6v-3h0.5v3H259.4z"/>
		<path class="st27" d="M260.7,472.6v-4.1h0.5v4.1H260.7z"/>
		<path class="st27" d="M264,471.6l0.5,0.1c-0.1,0.3-0.2,0.5-0.5,0.7c-0.2,0.2-0.5,0.3-0.9,0.3c-0.4,0-0.8-0.1-1-0.4
			c-0.3-0.3-0.4-0.7-0.4-1.1c0-0.4,0.1-0.8,0.4-1.2c0.3-0.3,0.6-0.4,1-0.4c0.4,0,0.7,0.1,1,0.4c0.3,0.3,0.4,0.7,0.4,1.1
			c0,0,0,0.1,0,0.1h-2.2c0,0.3,0.1,0.5,0.3,0.8c0.2,0.2,0.4,0.3,0.6,0.3c0.2,0,0.3,0,0.5-0.1C263.8,472,263.9,471.8,264,471.6z
			 M262.3,470.8h1.7c0-0.2-0.1-0.4-0.2-0.6c-0.2-0.2-0.4-0.3-0.6-0.3c-0.2,0-0.4,0.1-0.6,0.2C262.4,470.4,262.3,470.6,262.3,470.8
			L262.3,470.8z"/>
		<path class="st27" d="M266.3,472.2l0.1,0.4c-0.1,0-0.3,0-0.4,0c-0.1,0-0.3,0-0.4-0.1c-0.1-0.1-0.2-0.1-0.2-0.2
			c-0.1-0.2-0.1-0.4-0.1-0.6V470h-0.4v-0.4h0.4v-0.7l0.5-0.3v1h0.5v0.4h-0.5v1.7c0,0.1,0,0.2,0,0.3c0,0,0,0.1,0.1,0.1
			c0.1,0,0.1,0,0.2,0C266.1,472.2,266.2,472.2,266.3,472.2z"/>
	</g>
	<circle class="st26" cx="216.3" cy="398.2" r="10.3"/>
	<g id="Outline_Icons-5-3-3">
		<path class="st28" d="M220,398.4c0,0.1-0.1,0.3-0.2,0.3h-2.1v-4.2c0-0.4,0.3-0.8,0.8-0.8c0,0,0,0,0,0h0.8c0.4,0,0.8,0.3,0.8,0.8
			c0,0,0,0,0,0l0,0L220,398.4L220,398.4z"/>
		<path class="st28" d="M214.6,402.7h3.9v-2.3l1.1-0.8v-0.8H213c-0.1,1,0.7,1.9,1.7,1.9c0,0,0,0,0.1,0h0.1L214.6,402.7z"/>
		<rect x="212.7" y="398.1" class="st28" width="5.1" height="0.8"/>
		<circle class="st28" cx="219.1" cy="395.1" r="0.3"/>
	</g>
	<g>
		<path class="st27" d="M211.3,416.3v-3.6H210v-0.5h3.3v0.5h-1.4v3.6H211.3z"/>
		<path class="st27" d="M212.9,414.8c0-0.5,0.1-0.9,0.5-1.2c0.3-0.2,0.6-0.3,0.9-0.3c0.4,0,0.7,0.1,1,0.4c0.3,0.3,0.4,0.7,0.4,1.1
			c0,0.3,0,0.6-0.2,0.9c-0.1,0.2-0.3,0.4-0.5,0.5c-0.2,0.1-0.5,0.2-0.7,0.2c-0.4,0-0.7-0.1-1-0.4C213,415.6,212.9,415.2,212.9,414.8
			z M213.4,414.8c0,0.3,0.1,0.6,0.2,0.9c0.3,0.3,0.8,0.4,1.2,0.1c0,0,0.1-0.1,0.1-0.1c0.2-0.3,0.3-0.6,0.2-0.9
			c0-0.3-0.1-0.6-0.3-0.8c-0.3-0.3-0.8-0.4-1.2-0.1c0,0-0.1,0.1-0.1,0.1C213.5,414.2,213.4,414.5,213.4,414.8z"/>
		<path class="st27" d="M216.3,412.8v-0.6h0.5v0.6H216.3z M216.3,416.3v-3h0.5v3H216.3z"/>
		<path class="st27" d="M217.6,416.3v-4.1h0.5v4.1H217.6z"/>
		<path class="st27" d="M220.9,415.3l0.5,0.1c-0.1,0.3-0.2,0.5-0.5,0.7c-0.6,0.4-1.4,0.3-1.9-0.1c-0.3-0.3-0.4-0.7-0.4-1.1
			c0-0.4,0.1-0.8,0.4-1.2c0.3-0.3,0.6-0.4,1-0.4c0.4,0,0.7,0.1,1,0.4c0.3,0.3,0.4,0.7,0.4,1.1c0,0,0,0.1,0,0.1h-2.2
			c0,0.3,0.1,0.5,0.3,0.8c0.2,0.2,0.4,0.3,0.6,0.3c0.2,0,0.3,0,0.5-0.1C220.7,415.7,220.8,415.5,220.9,415.3z M219.2,414.5h1.7
			c0-0.2-0.1-0.4-0.2-0.6c-0.2-0.2-0.4-0.3-0.6-0.3c-0.2,0-0.4,0.1-0.6,0.2C219.3,414.1,219.2,414.3,219.2,414.5L219.2,414.5z"/>
		<path class="st27" d="M223.1,415.8l0.1,0.4c-0.1,0-0.3,0-0.4,0c-0.1,0-0.3,0-0.4-0.1c-0.1-0.1-0.2-0.1-0.2-0.2
			c-0.1-0.2-0.1-0.4-0.1-0.6v-1.7h-0.4v-0.4h0.4v-0.7l0.5-0.3v1h0.5v0.4h-0.5v1.7c0,0.1,0,0.2,0,0.3c0,0,0,0.1,0.1,0.1
			c0.1,0,0.1,0,0.2,0C223,415.9,223.1,415.9,223.1,415.8z"/>
	</g>
	<circle class="st26" cx="216.3" cy="346.9" r="10.3"/>
	<g id="Outline_Icons-5-3-4">
		<path class="st28" d="M220,347.1c0,0.1-0.1,0.3-0.2,0.3h-2.1v-4.2c0-0.4,0.3-0.8,0.8-0.8c0,0,0,0,0,0h0.8c0.4,0,0.8,0.3,0.8,0.8
			c0,0,0,0,0,0l0,0L220,347.1L220,347.1z"/>
		<path class="st28" d="M214.6,351.4h3.9v-2.3l1.1-0.8v-0.8H213c-0.1,1,0.7,1.9,1.7,1.9c0,0,0,0,0.1,0h0.1L214.6,351.4z"/>
		<rect x="212.7" y="346.8" class="st28" width="5.1" height="0.8"/>
		<circle class="st28" cx="219.1" cy="343.8" r="0.3"/>
	</g>
	<g>
		<path class="st27" d="M211.3,365v-3.6H210v-0.5h3.3v0.5h-1.4v3.6H211.3z"/>
		<path class="st27" d="M212.9,363.5c0-0.5,0.1-0.9,0.5-1.2c0.3-0.2,0.6-0.3,0.9-0.3c0.4,0,0.7,0.1,1,0.4c0.3,0.3,0.4,0.7,0.4,1.1
			c0,0.3,0,0.6-0.2,0.9c-0.1,0.2-0.3,0.4-0.5,0.5c-0.2,0.1-0.5,0.2-0.7,0.2c-0.4,0-0.7-0.1-1-0.4C213,364.3,212.9,363.9,212.9,363.5
			z M213.4,363.5c0,0.3,0.1,0.6,0.2,0.9c0.3,0.3,0.8,0.4,1.2,0.1c0,0,0.1-0.1,0.1-0.1c0.2-0.3,0.3-0.6,0.2-0.9
			c0-0.3-0.1-0.6-0.3-0.8c-0.3-0.3-0.8-0.4-1.2-0.1c0,0-0.1,0.1-0.1,0.1C213.5,362.9,213.4,363.2,213.4,363.5L213.4,363.5z"/>
		<path class="st27" d="M216.3,361.5v-0.6h0.5v0.6H216.3z M216.3,365v-3h0.5v3H216.3z"/>
		<path class="st27" d="M217.6,365v-4.1h0.5v4.1H217.6z"/>
		<path class="st27" d="M220.9,364l0.5,0.1c-0.1,0.3-0.2,0.5-0.5,0.7c-0.2,0.2-0.5,0.3-0.9,0.3c-0.4,0-0.8-0.1-1-0.4
			c-0.3-0.3-0.4-0.7-0.4-1.1c0-0.4,0.1-0.8,0.4-1.2c0.3-0.3,0.6-0.4,1-0.4c0.4,0,0.7,0.1,1,0.4c0.3,0.3,0.4,0.7,0.4,1.1
			c0,0,0,0.1,0,0.1h-2.2c0,0.3,0.1,0.5,0.3,0.8c0.2,0.2,0.4,0.3,0.6,0.3c0.2,0,0.3,0,0.5-0.1C220.7,364.4,220.8,364.2,220.9,364z
			 M219.2,363.2h1.7c0-0.2-0.1-0.4-0.2-0.6c-0.2-0.2-0.4-0.3-0.6-0.3c-0.2,0-0.4,0.1-0.6,0.2C219.3,362.8,219.2,363,219.2,363.2
			L219.2,363.2z"/>
		<path class="st27" d="M223.1,364.5l0.1,0.4c-0.1,0-0.3,0-0.4,0c-0.1,0-0.3,0-0.4-0.1c-0.1-0.1-0.2-0.1-0.2-0.2
			c-0.1-0.2-0.1-0.4-0.1-0.6v-1.7h-0.4V362h0.4v-0.7l0.5-0.3v1h0.5v0.4h-0.5v1.7c0,0.1,0,0.2,0,0.3c0,0,0,0.1,0.1,0.1
			c0.1,0,0.1,0,0.2,0C223,364.6,223.1,364.6,223.1,364.5z"/>
	</g>
</g>
<polyline class="st25" points="193,491.5 193,319.7 239.9,319.7 239.9,357 "/>
</svg>
