<svg width="16" height="16" viewBox="0 0 16 16" fill="none" xmlns="http://www.w3.org/2000/svg">
    <path fill-rule="evenodd" clip-rule="evenodd"
          d="M5.85355 2.64645C6.04882 2.84171 6.04882 3.15829 5.85355 3.35355L1.70711 7.5H15.5C15.7761 7.5 16 7.72386 16 8C16 8.27614 15.7761 8.5 15.5 8.5H1.70711L5.85355 12.6464C6.04882 12.8417 6.04882 13.1583 5.85355 13.3536C5.65829 13.5488 5.34171 13.5488 5.14645 13.3536L0.146712 8.35382M0.146712 7.64618L5.14645 2.64645C5.34171 2.45118 5.65829 2.45118 5.85355 2.64645M0.146712 7.64618C0.145916 7.64698 0.145123 7.64777 0.144332 7.64857C0.0974434 7.69602 0.061979 7.75051 0.0379392 7.80861C0.0134927 7.86756 0 7.93221 0 8C0 8.06779 0.0134927 8.13244 0.0379392 8.19139C0.061979 8.24949 0.0974434 8.30398 0.144332 8.35143"
          fill="black" />
</svg>
