<svg id="Layer_1" xmlns="http://www.w3.org/2000/svg" width="100" height="100" viewBox="0 0 100 100"><path d="M92.4 37.7c-1-4.9-5.9-8.3-11.5-8.3-.6 0-1.1 0-1.7.1v-4.3H19.7v7.1C19.7 48.6 33 62 49.4 62c9.9 0 18.7-4.9 24.1-12.4 1.7.8 3.6 1.2 5.6 1.2.9 0 1.9-.1 2.9-.3 6.9-1.3 11.5-7.1 10.4-12.8zm-7.9 3.5c-.8 1.1-2.2 1.8-3.8 2.2-.5.1-1 .1-1.5.1-.8 0-1.5-.1-2.1-.4.8-1.9 1.3-3.9 1.6-6 .2-.1.4-.1.7-.2.5-.1 1-.1 1.5-.1 2.2 0 4 1 4.3 2.3.1.8-.4 1.7-.7 2.1zM96 64.1H4c0 2.4 9.4 4.6 23.2 5.7.2 1.5 2.7 2.6 5.7 2.6H67c3 0 5.4-1.2 5.7-2.6 13.9-1 23.3-3.2 23.3-5.7z"/></svg>