<svg id="Layer_1" xmlns="http://www.w3.org/2000/svg" width="420" height="160" viewBox="0 0 420 160"><style>.st0{fill:#fff}</style><title>Visa_Inc._logo</title><g id="g4158"><path id="polygon9" class="st0" d="M185.4 138h-29.9l18.7-115.6h29.9z"/><path id="path11" class="st0" d="M293.8 25.2c-8.6-3.3-17.6-5-26.8-4.9-29.5 0-50.3 15.7-50.4 38.2-.2 16.6 14.9 25.8 26.2 31.4 11.6 5.7 15.5 9.3 15.5 14.4-.1 7.7-9.3 11.3-18 11.3-11.9 0-18.3-1.8-28-6.1l-3.9-1.8-4.2 26c7 3.2 19.9 6 33.3 6.2 31.4 0 51.8-15.5 52-39.5.1-13.2-7.9-23.2-25.1-31.5-10.5-5.3-16.9-8.9-16.9-14.3.1-4.9 5.4-10 17.2-10 9.7-.2 16.9 2.1 22.3 4.4l2.7 1.2 4.1-25z"/><path id="path13" class="st0" d="M333.5 97c2.5-6.6 11.9-32.3 11.9-32.3-.1.2 2.5-6.8 3.9-11.1l2.1 10s5.7 27.7 6.9 33.5l-24.8-.1zm36.9-74.6h-23.1c-7.1 0-12.5 2.1-15.6 9.6l-44.4 106h31.4s5.2-14.3 6.3-17.3h38.4c.9 4.1 3.6 17.3 3.6 17.3h27.7L370.4 22.4z"/><path id="path15" class="st0" d="M130.5 22.4l-29.3 78.8-3.2-16c-5.4-18.4-22.4-38.5-41.3-48.5l26.8 101.1h31.6l47-115.5h-31.6z"/><path id="path17" class="st0" d="M74.1 22.4H26l-.5 2.3C63 34.3 87.9 57.4 98.1 85.2L87.6 32.1c-1.7-7.4-7-9.5-13.5-9.7z"/></g></svg>