<svg id="Layer_1" data-name="Layer 1" xmlns="http://www.w3.org/2000/svg" viewBox="0 0 33.395 30.051"><defs><style>.cls-1{fill:#fff}</style></defs><title>Links</title><g id="Artboard_1" data-name="Artboard 1"><path id="Path_19258" data-name="Path 19258" class="cls-1" d="M26.654 5.639c.044-.044.088-.044.132-.088a15.232 15.232 0 0 1 3.348 8.591h-8.855a23.81 23.81 0 0 0-1.057-6.036 22.887 22.887 0 0 0 6.432-2.467zm-8.723-2.6a25.036 25.036 0 0 1 1.718 3.436A21.185 21.185 0 0 0 25.6 4.229 15.063 15.063 0 0 0 16.125 0zm-9.076 11.1A23.81 23.81 0 0 1 9.912 8.1 21.708 21.708 0 0 1 3.48 5.6c-.044-.044-.088-.044-.132-.088A15.23 15.23 0 0 0 0 14.1h8.855zM9.869 21.9a23.1 23.1 0 0 1-1.058-6H0a14.8 14.8 0 0 0 3.348 8.6c.044-.044.088-.044.132-.088A24.727 24.727 0 0 1 9.869 21.9zm9.6-5.992h-8.851a22.635 22.635 0 0 0 1.013 5.683 22.213 22.213 0 0 1 6.829 0 19.278 19.278 0 0 0 1.013-5.691zM12.2 27.006a25.036 25.036 0 0 1-1.718-3.436 21.2 21.2 0 0 0-5.948 2.247 15.063 15.063 0 0 0 9.472 4.229zm-1.718-20.53A25.036 25.036 0 0 1 12.2 3.04L14.01 0a14.734 14.734 0 0 0-9.472 4.229 22.659 22.659 0 0 0 5.947 2.247zm1.762 16.785a19.027 19.027 0 0 0 1.454 2.82l1.366 2.291 1.366-2.291a24.383 24.383 0 0 0 1.454-2.82 24.147 24.147 0 0 0-5.636 0zm4.185-19.3L15.063 1.67 13.7 3.965a24.383 24.383 0 0 0-1.454 2.82 19.823 19.823 0 0 0 5.6 0 21.037 21.037 0 0 0-1.413-2.82zm2.027 4.494a22.011 22.011 0 0 1-3.392.264 22.591 22.591 0 0 1-3.436-.264 20.812 20.812 0 0 0-1.013 5.683h8.9a21.209 21.209 0 0 0-1.055-5.679zm9.869 9.428a5.578 5.578 0 0 1 1.5.176 16.875 16.875 0 0 0 .308-2.159h-8.854a23.136 23.136 0 0 1-1.057 6c.617.132 1.234.308 1.85.485a6.622 6.622 0 0 1 6.256-4.5zM21.72 24.5v-.352c-.7-.22-1.41-.4-2.115-.573a25.036 25.036 0 0 1-1.718 3.436l-1.806 3.04a14.583 14.583 0 0 0 6.608-2.071 6.978 6.978 0 0 1-.969-3.48zm11.675 0a5.066 5.066 0 1 1-5.066-5.066 5.039 5.039 0 0 1 5.071 5.012zm-6.917.22a.639.639 0 0 0 .022-.9l-.022-.022-.793-.798a.412.412 0 0 1 .132-.308l.7-.7a.553.553 0 0 1 .308-.176l2.075 2.06a.412.412 0 0 1-.132.308l-.4.4a.639.639 0 0 0-.022.9l.022.022a.754.754 0 0 0 .969 0l.4-.4A1.5 1.5 0 0 0 29.954 23a.966.966 0 0 0-.041-.049L27.8 20.839a1.224 1.224 0 0 0-1.145-.352 1.634 1.634 0 0 0-1.013.529l-.7.7a1.75 1.75 0 0 0-.529 1.013 1.5 1.5 0 0 0 .352 1.145l.793.793a.606.606 0 0 0 .85.111.6.6 0 0 0 .07-.063zm5.463.352l-.617-.617a.654.654 0 1 0-.925.925l.573.573a.553.553 0 0 1-.176.308l-.7.7c-.132.132-.22.176-.308.176L27.843 25.2a.553.553 0 0 1 .176-.308l.441-.441a.654.654 0 0 0-.925-.925l-.441.441a1.455 1.455 0 0 0-.236 2.044c.019.024.039.048.06.071l1.982 1.982a1.233 1.233 0 0 0 .881.352h.264a2.052 2.052 0 0 0 1.013-.529l.7-.7a1.53 1.53 0 0 0 .183-2.119z"/></g></svg>