<?xml version="1.0" encoding="UTF-8"?><svg xmlns="http://www.w3.org/2000/svg" viewBox="0 0 2481 1754"><defs><style>.cls-1{stroke:#ededee;stroke-width:4.061px;}.cls-1,.cls-2{fill:none;stroke-miterlimit:10;}.cls-2{stroke:#ebebeb;stroke-width:8px;}.cls-3{fill:#585858;isolation:isolate;opacity:.74;}.cls-3,.cls-4,.cls-5,.cls-6,.cls-7,.cls-8,.cls-9{stroke-width:0px;}.cls-4{fill:#787d7e;}.cls-5{fill:#6394ad;}.cls-6{fill:#a0cacc;}.cls-7{fill:#b9dee2;}.cls-8{fill:#a0b6bc;}.cls-9{fill:#fff;}</style></defs><g id="Shadow"><polygon class="cls-5" points="175.479 307.988 358.443 307.988 358.443 125.023 1691.711 125.023 1691.711 307.988 1872.981 307.988 1872.981 1209.256 1695.099 1209.256 1695.099 1385.444 360.137 1385.444 360.137 1210.951 175.479 1210.951 175.479 307.988"/></g><g id="BG"><polygon class="cls-7" points="175.479 272.411 358.443 272.411 358.443 89.447 1691.711 89.447 1691.711 272.411 1872.981 272.411 1872.981 1173.68 1695.099 1173.68 1695.099 1349.868 360.137 1349.868 360.137 1175.374 175.479 1175.374 175.479 272.411"/></g><g id="highlights"><rect class="cls-8" x="716.654" y="507.715" width="209.346" height="429.299"/><polygon class="cls-8" points="1014.353 507.715 1437.749 507.715 1437.749 827.874 1335.335 827.874 1335.335 936.534 1014.353 936.534 1014.353 507.715"/><rect class="cls-6" x="175.479" y="272.411" width="133.289" height="147.268"/><path class="cls-6" d="M358.443,222.512h277.797c12.855,0,18.861-10.113,21.156-21.474,2.295-11.361,21.156-111.59,21.156-111.59h-320.11v133.065Z"/><polygon class="cls-6" points="1523.333 523.255 1523.333 434.205 1590.845 434.205 1590.845 820.262 1579.845 842.862 1437.749 842.862 1437.749 522.096 1523.333 523.255"/><path class="cls-6" d="M564.722,433.829h320.046v-32.815h57.664v32.815h332.328v73.886h162.989v-166.411c0-29.984-13.482-46.99-37.469-46.99h-593.657v20.103h-45.994v-20.103h-165.115c-27.171,0-30.793,20.854-30.793,46.99v92.525Z"/><rect class="cls-6" x="1753.754" y="804.024" width="119.227" height="163.957"/><polygon class="cls-6" points="1223.083 1349.868 1142.36 1218.591 1153.194 1181.628 1171.675 1185.877 1203.115 1066.067 1402.798 1066.067 1402.798 1296.765 1381.98 1349.868 1223.083 1349.868"/><polygon class="cls-6" points="938.738 1349.868 959.929 1280.784 925.428 1012.11 788.342 1012.11 788.342 1349.868 938.738 1349.868"/><rect class="cls-6" x="1742.586" y="272.411" width="130.396" height="151.065"/><path class="cls-6" d="M1694.417,222.402h-276.146c-12.134,0-19.806-16.419-21.744-31.403s-21.744-101.552-21.744-101.552h319.633v132.955Z"/></g><g id="Bookable"><polygon id="area-33.01-status" class="cls-3" points="175.479 420.91 308.768 420.91 308.768 272.411 177.02 272.411 175.479 420.91"/><rect id="area-33.02-status" class="cls-3" x="358.443" y="89.447" width="154.034" height="133.065"/><path id="area-33.03-status" class="cls-3" d="M678.553,89.447s-18.549,105.809-21.685,114.024-10.608,19.041-20.627,19.041h-123.763V89.447h166.076Z"/><path id="area-33.12-status" class="cls-3" d="M1272.804,294.314v213.401h164.945v-179.727c0-18.597-15.076-33.674-33.674-33.674h-131.271Z"/><polygon id="area-33.21-status" class="cls-3" points="1381.98 1349.868 1402.798 1296.765 1402.798 1066.067 1203.115 1066.067 1171.675 1185.877 1153.194 1181.628 1142.36 1218.591 1223.083 1349.868 1381.98 1349.868"/><polygon id="area-33.23-status" class="cls-3" points="788.342 1348.552 943.112 1348.552 959.929 1280.784 945.677 1174.776 788.342 1174.776 788.342 1348.552"/><polygon id="area-33.22-status" class="cls-3" points="788.342 1012.11 788.342 1174.776 945.677 1174.776 925.428 1012.11 788.342 1012.11"/><rect id="area-33.08-status" class="cls-3" x="1755.518" y="804.024" width="117.464" height="163.957"/><polygon id="area-33.07-status" class="cls-3" points="1871.576 272.411 1742.586 272.411 1742.586 423.476 1872.981 423.476 1871.576 272.411"/><polygon id="area-33.06-status" class="cls-3" points="1540.398 91.216 1540.398 222.402 1694.417 222.402 1694.417 89.447 1540.398 91.216"/><path id="area-33.05-status" class="cls-3" d="M1374.784,92.534s26.457,111.794,28.629,120.74,10.964,9.128,20.636,9.128h116.35V91.216l-165.615,1.319Z"/><path id="area-33.09-status" class="cls-3" d="M564.722,433.829v-102.328c0-19.994,13.469-37.187,36.857-37.187h43.555v139.515h-80.412Z"/><rect id="area-33.10-status" class="cls-3" x="645.134" y="294.314" width="115.496" height="139.515"/></g><g id="Names"><path class="cls-9" d="M1274.852,1206.77h-3.515v5.952h-3.438v-16.554h7.211c1.662,0,2.986.427,3.975,1.28s1.482,2.175,1.482,3.965c0,1.953-.494,3.335-1.482,4.144s-2.399,1.213-4.233,1.213ZM1276.469,1203.321c.449-.396.674-1.025.674-1.887s-.227-1.475-.68-1.842c-.453-.366-1.087-.55-1.903-.55h-3.223v4.874h3.223c.816,0,1.452-.198,1.909-.596Z"/><path class="cls-9" d="M1286.195,1196.068v2.953h-3.245v-2.953h3.245ZM1286.195,1200.481v12.241h-3.245v-12.241h3.245Z"/><path class="cls-9" d="M1295.056,1202.851c-1.086,0-1.831.46-2.235,1.381-.209.486-.314,1.108-.314,1.864v6.626h-3.189v-12.219h3.089v1.785c.412-.629.801-1.081,1.168-1.358.659-.494,1.493-.741,2.505-.741,1.265,0,2.3.331,3.104.994.805.662,1.208,1.761,1.208,3.296v8.243h-3.279v-7.445c0-.645-.087-1.139-.259-1.482-.314-.629-.913-.943-1.797-.943Z"/><path class="cls-9" d="M1313.822,1209.128c-.082.727-.46,1.464-1.134,2.213-1.049,1.189-2.516,1.785-4.402,1.785-1.558,0-2.932-.502-4.122-1.505s-1.786-2.636-1.786-4.896c0-2.119.538-3.743,1.612-4.874s2.469-1.695,4.183-1.695c1.019,0,1.936.19,2.752.572s1.49.984,2.021,1.809c.479.726.79,1.568.932,2.526.083.562.116,1.37.102,2.426h-8.378c.045,1.228.431,2.089,1.157,2.583.441.307.973.461,1.594.461.659,0,1.194-.188,1.606-.562.225-.201.423-.482.595-.842h3.269ZM1310.655,1205.377c-.053-.846-.309-1.488-.77-1.926-.46-.438-1.031-.657-1.713-.657-.74,0-1.315.232-1.724.696s-.664,1.093-.769,1.887h4.975Z"/><path class="cls-9" d="M834.956,1261.664h-7.502v-16.554h8.041c2.028.03,3.466.618,4.312,1.763.509.704.764,1.547.764,2.527,0,1.011-.255,1.823-.764,2.438-.285.344-.704.658-1.258.943.846.307,1.483.793,1.914,1.459.431.667.646,1.476.646,2.426,0,.981-.248,1.861-.742,2.64-.314.517-.707.951-1.179,1.303-.531.404-1.158.682-1.881.831s-1.507.225-2.353.225ZM836.595,1251.22c.449-.27.674-.753.674-1.448,0-.771-.299-1.281-.898-1.527-.516-.173-1.175-.259-1.977-.259h-3.639v3.649h4.066c.726,0,1.317-.138,1.773-.415ZM834.877,1254.375h-4.122v4.414h4.066c.726,0,1.291-.098,1.695-.292.733-.359,1.101-1.048,1.101-2.066,0-.861-.355-1.452-1.067-1.774-.396-.18-.954-.273-1.673-.281Z"/><path class="cls-9" d="M844.209,1250.748c.846-1.078,2.299-1.617,4.357-1.617,1.34,0,2.53.266,3.571.797,1.041.532,1.561,1.535,1.561,3.01v5.615c0,.39.008.861.023,1.416.021.419.086.703.19.854.104.149.262.272.472.37v.472h-3.481c-.098-.247-.165-.479-.202-.696s-.067-.464-.09-.741c-.441.479-.951.887-1.527,1.225-.688.396-1.468.595-2.336.595-1.108,0-2.023-.316-2.746-.949s-1.084-1.529-1.084-2.689c0-1.505.581-2.595,1.741-3.269.637-.366,1.572-.629,2.808-.785l1.09-.135c.591-.075,1.014-.169,1.269-.281.457-.194.685-.498.685-.91,0-.501-.174-.848-.521-1.038-.349-.191-.859-.286-1.533-.286-.756,0-1.291.187-1.605.561-.225.277-.375.652-.449,1.123h-3.089c.067-1.07.367-1.95.898-2.639ZM846.59,1259.351c.3.247.666.37,1.101.37.688,0,1.323-.201,1.903-.605s.882-1.143.904-2.213v-1.19c-.202.127-.406.23-.612.309-.206.079-.488.151-.848.22l-.719.135c-.674.119-1.156.266-1.449.438-.494.292-.74.745-.74,1.359,0,.546.153.939.46,1.179Z"/><path class="cls-9" d="M863.414,1252.792c-.27-.592-.798-.888-1.584-.888-.913,0-1.527.296-1.842.888-.172.337-.258.839-.258,1.505v7.367h-3.246v-12.219h3.111v1.785c.396-.636.771-1.089,1.123-1.358.621-.479,1.426-.719,2.414-.719.936,0,1.692.206,2.269.618.464.381.816.872,1.056,1.471.419-.719.939-1.246,1.561-1.584.659-.336,1.393-.505,2.201-.505.539,0,1.071.104,1.596.314.523.21.999.576,1.426,1.101.345.427.576.951.696,1.572.075.412.112,1.015.112,1.809l-.022,7.715h-3.279v-7.794c0-.464-.075-.846-.225-1.146-.284-.569-.809-.854-1.572-.854-.884,0-1.493.367-1.831,1.101-.172.39-.258.857-.258,1.403v7.289h-3.223v-7.289c0-.726-.075-1.254-.225-1.583Z"/><path class="cls-9" d="M883.64,1261.99c-1.012,0-1.823-.203-2.438-.607-.367-.239-.764-.658-1.19-1.258v1.539h-3.134v-16.531h3.189v5.885c.404-.569.851-1.003,1.337-1.303.576-.374,1.311-.562,2.201-.562,1.609,0,2.869.58,3.779,1.741.909,1.16,1.364,2.657,1.364,4.492,0,1.901-.449,3.478-1.348,4.728s-2.152,1.876-3.762,1.876ZM885.391,1255.723c0-.868-.113-1.587-.338-2.156-.426-1.078-1.213-1.617-2.357-1.617-1.161,0-1.958.528-2.393,1.584-.225.562-.337,1.288-.337,2.179,0,1.048.232,1.917.696,2.605s1.172,1.033,2.123,1.033c.823,0,1.463-.333,1.92-.999.457-.667.686-1.543.686-2.629Z"/><path class="cls-9" d="M901.249,1250.973c1.033,1.295,1.55,2.826,1.55,4.594,0,1.797-.517,3.333-1.55,4.609s-2.602,1.915-4.706,1.915-3.672-.639-4.705-1.915-1.55-2.812-1.55-4.609c0-1.768.517-3.299,1.55-4.594s2.602-1.943,4.705-1.943,3.673.648,4.706,1.943ZM896.532,1251.736c-.936,0-1.656.331-2.162.994-.505.662-.758,1.607-.758,2.836s.253,2.175.758,2.841c.506.666,1.227.999,2.162.999s1.654-.333,2.156-.999.753-1.613.753-2.841-.251-2.174-.753-2.836c-.502-.663-1.221-.994-2.156-.994Z"/><path class="cls-9" d="M915.299,1250.973c1.033,1.295,1.55,2.826,1.55,4.594,0,1.797-.517,3.333-1.55,4.609s-2.602,1.915-4.706,1.915-3.672-.639-4.705-1.915-1.55-2.812-1.55-4.609c0-1.768.517-3.299,1.55-4.594s2.602-1.943,4.705-1.943,3.673.648,4.706,1.943ZM910.582,1251.736c-.936,0-1.656.331-2.162.994-.505.662-.758,1.607-.758,2.836s.253,2.175.758,2.841c.506.666,1.227.999,2.162.999s1.654-.333,2.156-.999.753-1.613.753-2.841-.251-2.174-.753-2.836c-.502-.663-1.221-.994-2.156-.994Z"/><path class="cls-9" d="M830.645,1097.596c-1.235,1.131-2.815,1.696-4.739,1.696-2.381,0-4.253-.764-5.615-2.291-1.362-1.535-2.044-3.639-2.044-6.312,0-2.89.775-5.117,2.324-6.682,1.348-1.362,3.062-2.044,5.145-2.044,2.785,0,4.821.913,6.109,2.74.711,1.025,1.093,2.056,1.145,3.089h-3.459c-.225-.794-.513-1.393-.864-1.797-.629-.719-1.562-1.078-2.796-1.078-1.258,0-2.25.507-2.977,1.521s-1.09,2.45-1.09,4.307.384,3.247,1.151,4.172,1.743,1.387,2.926,1.387c1.213,0,2.138-.396,2.774-1.189.352-.428.644-1.067.875-1.921h3.426c-.3,1.805-1.063,3.271-2.291,4.402Z"/><path class="cls-9" d="M840.293,1095.619l2.527-9.029h3.402l-4.2,12.039c-.809,2.321-1.448,3.761-1.921,4.318-.471.558-1.414.837-2.83.837-.284,0-.513-.002-.685-.006s-.431-.018-.774-.039v-2.561l.404.021c.314.016.613.004.898-.033.284-.037.523-.123.719-.258.187-.128.36-.394.521-.798s.227-.651.197-.741l-4.492-12.78h3.56l2.673,9.029Z"/><path class="cls-9" d="M858.362,1087.903c.988,1.057,1.482,2.605,1.482,4.65,0,2.156-.484,3.799-1.454,4.93s-2.219,1.695-3.746,1.695c-.973,0-1.781-.243-2.426-.729-.352-.27-.695-.663-1.033-1.179v6.379h-3.166v-17.06h3.065v1.808c.345-.531.711-.95,1.101-1.258.711-.546,1.558-.819,2.538-.819,1.43,0,2.643.528,3.639,1.583ZM856.543,1092.71c0-.943-.215-1.777-.646-2.504s-1.129-1.09-2.095-1.09c-1.16,0-1.958.551-2.393,1.651-.225.584-.336,1.325-.336,2.224,0,1.423.378,2.422,1.134,2.998.449.338.98.506,1.595.506.891,0,1.57-.345,2.038-1.033s.702-1.605.702-2.752Z"/><path class="cls-9" d="M868.312,1089.544c-1.288,0-2.153.419-2.595,1.258-.247.471-.37,1.197-.37,2.178v5.852h-3.224v-12.241h3.055v2.134c.494-.816.925-1.374,1.292-1.674.599-.501,1.377-.752,2.336-.752.06,0,.11.002.151.006s.133.009.274.017v3.279c-.201-.022-.381-.037-.539-.045-.156-.008-.284-.011-.381-.011Z"/><path class="cls-9" d="M881.587,1095.237c-.082.727-.46,1.464-1.134,2.213-1.049,1.189-2.516,1.785-4.402,1.785-1.558,0-2.932-.502-4.122-1.505s-1.786-2.636-1.786-4.896c0-2.119.538-3.743,1.612-4.874s2.469-1.695,4.183-1.695c1.019,0,1.936.19,2.752.572s1.49.984,2.021,1.809c.479.726.79,1.568.932,2.526.083.562.116,1.37.102,2.426h-8.378c.045,1.228.431,2.089,1.157,2.583.441.307.973.461,1.594.461.659,0,1.194-.188,1.606-.562.225-.201.423-.482.595-.842h3.269ZM878.42,1091.486c-.053-.846-.309-1.488-.77-1.926-.46-.438-1.031-.657-1.713-.657-.74,0-1.315.232-1.724.696s-.664,1.093-.769,1.887h4.975Z"/><path class="cls-9" d="M892.334,1087.152c.958.614,1.509,1.67,1.65,3.167h-3.2c-.045-.412-.161-.737-.349-.978-.352-.434-.95-.65-1.797-.65-.695,0-1.191.108-1.487.325s-.444.472-.444.764c0,.367.158.633.473.798.314.172,1.426.468,3.335.887,1.272.3,2.228.752,2.864,1.359.629.613.943,1.381.943,2.302,0,1.213-.451,2.203-1.354,2.971s-2.297,1.151-4.184,1.151c-1.924,0-3.345-.406-4.262-1.219s-1.376-1.848-1.376-3.105h3.245c.068.569.214.974.438,1.213.396.427,1.131.641,2.201.641.629,0,1.129-.094,1.499-.281.371-.188.557-.468.557-.842,0-.359-.15-.633-.449-.82-.3-.188-1.412-.509-3.336-.966-1.385-.345-2.362-.774-2.932-1.292-.568-.509-.854-1.242-.854-2.201,0-1.13.444-2.102,1.331-2.914.888-.812,2.136-1.219,3.745-1.219,1.527,0,2.774.304,3.74.91Z"/><path class="cls-9" d="M905.126,1087.152c.958.614,1.509,1.67,1.65,3.167h-3.2c-.045-.412-.161-.737-.349-.978-.352-.434-.95-.65-1.797-.65-.695,0-1.191.108-1.487.325s-.444.472-.444.764c0,.367.158.633.473.798.314.172,1.426.468,3.335.887,1.272.3,2.228.752,2.864,1.359.629.613.943,1.381.943,2.302,0,1.213-.451,2.203-1.354,2.971s-2.297,1.151-4.184,1.151c-1.924,0-3.345-.406-4.262-1.219s-1.376-1.848-1.376-3.105h3.245c.068.569.214.974.438,1.213.396.427,1.131.641,2.201.641.629,0,1.129-.094,1.499-.281.371-.188.557-.468.557-.842,0-.359-.15-.633-.449-.82-.3-.188-1.412-.509-3.336-.966-1.385-.345-2.362-.774-2.932-1.292-.568-.509-.854-1.242-.854-2.201,0-1.13.444-2.102,1.331-2.914.888-.812,2.136-1.219,3.745-1.219,1.527,0,2.774.304,3.74.91Z"/><path class="cls-9" d="M210.639,329.221h-3.515v5.952h-3.438v-16.554h7.211c1.662,0,2.986.427,3.975,1.28s1.482,2.175,1.482,3.965c0,1.953-.494,3.335-1.482,4.144s-2.399,1.213-4.233,1.213ZM212.256,325.773c.449-.396.674-1.025.674-1.887s-.227-1.475-.68-1.842c-.453-.366-1.087-.55-1.903-.55h-3.223v4.874h3.223c.816,0,1.452-.198,1.909-.596Z"/><path class="cls-9" d="M219.152,324.257c.846-1.078,2.299-1.617,4.357-1.617,1.34,0,2.53.266,3.571.797,1.041.532,1.561,1.535,1.561,3.01v5.615c0,.39.008.861.023,1.416.021.419.086.703.19.854.104.149.262.272.472.37v.472h-3.481c-.098-.247-.165-.479-.202-.696s-.067-.464-.09-.741c-.441.479-.951.887-1.527,1.225-.688.396-1.468.595-2.336.595-1.108,0-2.023-.316-2.746-.949s-1.084-1.529-1.084-2.689c0-1.505.581-2.595,1.741-3.269.637-.366,1.572-.629,2.808-.785l1.09-.135c.591-.075,1.014-.169,1.269-.281.457-.194.685-.498.685-.91,0-.501-.174-.848-.521-1.038-.349-.191-.859-.286-1.533-.286-.756,0-1.291.187-1.605.561-.225.277-.375.652-.449,1.123h-3.089c.067-1.07.367-1.95.898-2.639ZM221.533,332.86c.3.247.666.37,1.101.37.688,0,1.323-.201,1.903-.605s.882-1.143.904-2.213v-1.19c-.202.127-.406.23-.612.309-.206.079-.488.151-.848.22l-.719.135c-.674.119-1.156.266-1.449.438-.494.292-.74.745-.74,1.359,0,.546.153.939.46,1.179Z"/><path class="cls-9" d="M237.637,325.886c-1.288,0-2.153.419-2.595,1.258-.247.471-.37,1.197-.37,2.178v5.852h-3.224v-12.241h3.055v2.134c.494-.816.925-1.374,1.292-1.674.599-.501,1.377-.752,2.336-.752.06,0,.11.002.151.006s.133.009.274.017v3.279c-.201-.022-.381-.037-.539-.045-.156-.008-.284-.011-.381-.011Z"/><path class="cls-9" d="M246.037,332.894v2.392l-1.516.056c-1.513.053-2.546-.209-3.1-.785-.359-.367-.539-.933-.539-1.696v-7.536h-1.707v-2.279h1.707v-3.414h3.166v3.414h1.988v2.279h-1.988v6.469c0,.502.064.814.191.938.127.123.517.185,1.168.185.098,0,.2,0,.309-.005s.216-.01.32-.017Z"/><path class="cls-9" d="M253.854,325.302c-1.086,0-1.831.46-2.235,1.381-.209.486-.314,1.108-.314,1.864v6.626h-3.189v-12.219h3.089v1.785c.412-.629.801-1.081,1.168-1.358.659-.494,1.493-.741,2.505-.741,1.265,0,2.3.331,3.104.994.805.662,1.208,1.761,1.208,3.296v8.243h-3.279v-7.445c0-.645-.087-1.139-.259-1.482-.314-.629-.913-.943-1.797-.943Z"/><path class="cls-9" d="M272.62,331.58c-.082.727-.46,1.464-1.134,2.213-1.049,1.189-2.516,1.785-4.402,1.785-1.558,0-2.932-.502-4.122-1.505s-1.786-2.636-1.786-4.896c0-2.119.538-3.743,1.612-4.874s2.469-1.695,4.183-1.695c1.019,0,1.936.19,2.752.572s1.49.984,2.021,1.809c.479.726.79,1.568.932,2.526.083.562.116,1.37.102,2.426h-8.378c.045,1.228.431,2.089,1.157,2.583.441.307.973.461,1.594.461.659,0,1.194-.188,1.606-.562.225-.201.423-.482.595-.842h3.269ZM269.453,327.829c-.053-.846-.309-1.488-.77-1.926-.46-.438-1.031-.657-1.713-.657-.74,0-1.315.232-1.724.696s-.664,1.093-.769,1.887h4.975Z"/><path class="cls-9" d="M281.088,325.886c-1.288,0-2.153.419-2.595,1.258-.247.471-.37,1.197-.37,2.178v5.852h-3.224v-12.241h3.055v2.134c.494-.816.925-1.374,1.292-1.674.599-.501,1.377-.752,2.336-.752.06,0,.11.002.151.006s.133.009.274.017v3.279c-.201-.022-.381-.037-.539-.045-.156-.008-.284-.011-.381-.011Z"/><path class="cls-9" d="M218.326,351.682h-3.571v6.491h-3.381v-16.554h8.12c1.16.022,2.054.165,2.679.427s1.154.647,1.589,1.156c.359.42.644.884.854,1.393.21.51.314,1.09.314,1.741,0,.786-.198,1.56-.595,2.319-.397.76-1.053,1.297-1.966,1.611.764.307,1.305.743,1.623,1.309s.478,1.428.478,2.588v1.112c0,.756.029,1.269.09,1.538.09.428.299.742.629.943v.416h-3.808c-.104-.367-.18-.662-.225-.887-.09-.465-.139-.94-.146-1.427l-.023-1.538c-.015-1.057-.207-1.76-.578-2.111-.37-.353-1.064-.528-2.083-.528ZM220.426,348.673c.688-.314,1.033-.936,1.033-1.864,0-1.003-.334-1.677-1-2.021-.374-.194-.936-.292-1.685-.292h-4.021v4.447h3.92c.778,0,1.362-.09,1.752-.27Z"/><path class="cls-9" d="M237.855,347.482c1.033,1.295,1.55,2.826,1.55,4.594,0,1.797-.517,3.333-1.55,4.609s-2.602,1.915-4.706,1.915-3.672-.639-4.705-1.915-1.55-2.812-1.55-4.609c0-1.768.517-3.299,1.55-4.594s2.602-1.943,4.705-1.943,3.673.648,4.706,1.943ZM233.138,348.246c-.936,0-1.656.331-2.162.994-.505.662-.758,1.607-.758,2.836s.253,2.175.758,2.841c.506.666,1.227.999,2.162.999s1.654-.333,2.156-.999.753-1.613.753-2.841-.251-2.174-.753-2.836c-.502-.663-1.221-.994-2.156-.994Z"/><path class="cls-9" d="M251.905,347.482c1.033,1.295,1.55,2.826,1.55,4.594,0,1.797-.517,3.333-1.55,4.609s-2.602,1.915-4.706,1.915-3.672-.639-4.705-1.915-1.55-2.812-1.55-4.609c0-1.768.517-3.299,1.55-4.594s2.602-1.943,4.705-1.943,3.673.648,4.706,1.943ZM247.188,348.246c-.936,0-1.656.331-2.162.994-.505.662-.758,1.607-.758,2.836s.253,2.175.758,2.841c.506.666,1.227.999,2.162.999s1.654-.333,2.156-.999.753-1.613.753-2.841-.251-2.174-.753-2.836c-.502-.663-1.221-.994-2.156-.994Z"/><path class="cls-9" d="M262.62,349.301c-.27-.592-.798-.888-1.584-.888-.913,0-1.527.296-1.842.888-.172.337-.258.839-.258,1.505v7.367h-3.246v-12.219h3.111v1.785c.396-.636.771-1.089,1.123-1.358.621-.479,1.426-.719,2.414-.719.936,0,1.692.206,2.269.618.464.381.816.872,1.056,1.471.419-.719.939-1.246,1.561-1.584.659-.336,1.393-.505,2.201-.505.539,0,1.071.104,1.596.314.523.21.999.576,1.426,1.101.345.427.576.951.696,1.572.075.412.112,1.015.112,1.809l-.022,7.715h-3.279v-7.794c0-.464-.075-.846-.225-1.146-.284-.569-.809-.854-1.572-.854-.884,0-1.493.367-1.831,1.101-.172.39-.258.857-.258,1.403v7.289h-3.223v-7.289c0-.726-.075-1.254-.225-1.583Z"/><path class="cls-9" d="M244.431,381.174h-3.279v-11.23h-3.829v-2.179c1.011-.045,1.718-.112,2.122-.202.645-.143,1.168-.427,1.572-.854.277-.292.487-.682.629-1.168.083-.292.124-.509.124-.651h2.661v16.284Z"/><path class="cls-9" d="M403.976,142.674h-3.515v5.952h-3.438v-16.554h7.211c1.662,0,2.986.427,3.975,1.28s1.482,2.175,1.482,3.965c0,1.953-.494,3.335-1.482,4.144s-2.399,1.213-4.233,1.213ZM405.593,139.225c.449-.396.674-1.025.674-1.887s-.227-1.475-.68-1.842c-.453-.366-1.087-.55-1.903-.55h-3.223v4.874h3.223c.816,0,1.452-.198,1.909-.596Z"/><path class="cls-9" d="M412.489,137.71c.846-1.078,2.299-1.617,4.357-1.617,1.34,0,2.53.266,3.571.797,1.041.532,1.561,1.535,1.561,3.01v5.615c0,.39.008.861.023,1.416.021.419.086.703.19.854.104.149.262.272.472.37v.472h-3.481c-.098-.247-.165-.479-.202-.696s-.067-.464-.09-.741c-.441.479-.951.887-1.527,1.225-.688.396-1.468.595-2.336.595-1.108,0-2.023-.316-2.746-.949s-1.084-1.529-1.084-2.689c0-1.505.581-2.595,1.741-3.269.637-.366,1.572-.629,2.808-.785l1.09-.135c.591-.075,1.014-.169,1.269-.281.457-.194.685-.498.685-.91,0-.501-.174-.848-.521-1.038-.349-.191-.859-.286-1.533-.286-.756,0-1.291.187-1.605.561-.225.277-.375.652-.449,1.123h-3.089c.067-1.07.367-1.95.898-2.639ZM414.87,146.312c.3.247.666.37,1.101.37.688,0,1.323-.201,1.903-.605s.882-1.143.904-2.213v-1.19c-.202.127-.406.23-.612.309-.206.079-.488.151-.848.22l-.719.135c-.674.119-1.156.266-1.449.438-.494.292-.74.745-.74,1.359,0,.546.153.939.46,1.179Z"/><path class="cls-9" d="M430.974,139.339c-1.288,0-2.153.419-2.595,1.258-.247.471-.37,1.197-.37,2.178v5.852h-3.224v-12.241h3.055v2.134c.494-.816.925-1.374,1.292-1.674.599-.501,1.377-.752,2.336-.752.06,0,.11.002.151.006s.133.009.274.017v3.279c-.201-.022-.381-.037-.539-.045-.156-.008-.284-.011-.381-.011Z"/><path class="cls-9" d="M439.374,146.346v2.392l-1.516.056c-1.513.053-2.546-.209-3.1-.785-.359-.367-.539-.933-.539-1.696v-7.536h-1.707v-2.279h1.707v-3.414h3.166v3.414h1.988v2.279h-1.988v6.469c0,.502.064.814.191.938.127.123.517.185,1.168.185.098,0,.2,0,.309-.005s.216-.01.32-.017Z"/><path class="cls-9" d="M447.191,138.755c-1.086,0-1.831.46-2.235,1.381-.209.486-.314,1.108-.314,1.864v6.626h-3.189v-12.219h3.089v1.785c.412-.629.801-1.081,1.168-1.358.659-.494,1.493-.741,2.505-.741,1.265,0,2.3.331,3.104.994.805.662,1.208,1.761,1.208,3.296v8.243h-3.279v-7.445c0-.645-.087-1.139-.259-1.482-.314-.629-.913-.943-1.797-.943Z"/><path class="cls-9" d="M465.957,145.032c-.082.727-.46,1.464-1.134,2.213-1.049,1.189-2.516,1.785-4.402,1.785-1.558,0-2.932-.502-4.122-1.505s-1.786-2.636-1.786-4.896c0-2.119.538-3.743,1.612-4.874s2.469-1.695,4.183-1.695c1.019,0,1.936.19,2.752.572s1.49.984,2.021,1.809c.479.726.79,1.568.932,2.526.083.562.116,1.37.102,2.426h-8.378c.045,1.228.431,2.089,1.157,2.583.441.307.973.461,1.594.461.659,0,1.194-.188,1.606-.562.225-.201.423-.482.595-.842h3.269ZM462.79,141.281c-.053-.846-.309-1.488-.77-1.926-.46-.438-1.031-.657-1.713-.657-.74,0-1.315.232-1.724.696s-.664,1.093-.769,1.887h4.975Z"/><path class="cls-9" d="M474.425,139.339c-1.288,0-2.153.419-2.595,1.258-.247.471-.37,1.197-.37,2.178v5.852h-3.224v-12.241h3.055v2.134c.494-.816.925-1.374,1.292-1.674.599-.501,1.377-.752,2.336-.752.06,0,.11.002.151.006s.133.009.274.017v3.279c-.201-.022-.381-.037-.539-.045-.156-.008-.284-.011-.381-.011Z"/><path class="cls-9" d="M411.662,165.134h-3.571v6.491h-3.381v-16.554h8.12c1.16.022,2.054.165,2.679.427s1.154.647,1.589,1.156c.359.42.644.884.854,1.393.21.51.314,1.09.314,1.741,0,.786-.198,1.56-.595,2.319-.397.76-1.053,1.297-1.966,1.611.764.307,1.305.743,1.623,1.309s.478,1.428.478,2.588v1.112c0,.756.029,1.269.09,1.538.09.428.299.742.629.943v.416h-3.808c-.104-.367-.18-.662-.225-.887-.09-.465-.139-.94-.146-1.427l-.023-1.538c-.015-1.057-.207-1.76-.578-2.111-.37-.353-1.064-.528-2.083-.528ZM413.763,162.125c.688-.314,1.033-.936,1.033-1.864,0-1.003-.334-1.677-1-2.021-.374-.194-.936-.292-1.685-.292h-4.021v4.447h3.92c.778,0,1.362-.09,1.752-.27Z"/><path class="cls-9" d="M431.192,160.934c1.033,1.295,1.55,2.826,1.55,4.594,0,1.797-.517,3.333-1.55,4.609s-2.602,1.915-4.706,1.915-3.672-.639-4.705-1.915-1.55-2.812-1.55-4.609c0-1.768.517-3.299,1.55-4.594s2.602-1.943,4.705-1.943,3.673.648,4.706,1.943ZM426.475,161.698c-.936,0-1.656.331-2.162.994-.505.662-.758,1.607-.758,2.836s.253,2.175.758,2.841c.506.666,1.227.999,2.162.999s1.654-.333,2.156-.999.753-1.613.753-2.841-.251-2.174-.753-2.836c-.502-.663-1.221-.994-2.156-.994Z"/><path class="cls-9" d="M445.242,160.934c1.033,1.295,1.55,2.826,1.55,4.594,0,1.797-.517,3.333-1.55,4.609s-2.602,1.915-4.706,1.915-3.672-.639-4.705-1.915-1.55-2.812-1.55-4.609c0-1.768.517-3.299,1.55-4.594s2.602-1.943,4.705-1.943,3.673.648,4.706,1.943ZM440.525,161.698c-.936,0-1.656.331-2.162.994-.505.662-.758,1.607-.758,2.836s.253,2.175.758,2.841c.506.666,1.227.999,2.162.999s1.654-.333,2.156-.999.753-1.613.753-2.841-.251-2.174-.753-2.836c-.502-.663-1.221-.994-2.156-.994Z"/><path class="cls-9" d="M455.956,162.754c-.27-.592-.798-.888-1.584-.888-.913,0-1.527.296-1.842.888-.172.337-.258.839-.258,1.505v7.367h-3.246v-12.219h3.111v1.785c.396-.636.771-1.089,1.123-1.358.621-.479,1.426-.719,2.414-.719.936,0,1.692.206,2.269.618.464.381.816.872,1.056,1.471.419-.719.939-1.246,1.561-1.584.659-.336,1.393-.505,2.201-.505.539,0,1.071.104,1.596.314.523.21.999.576,1.426,1.101.345.427.576.951.696,1.572.075.412.112,1.015.112,1.809l-.022,7.715h-3.279v-7.794c0-.464-.075-.846-.225-1.146-.284-.569-.809-.854-1.572-.854-.884,0-1.493.367-1.831,1.101-.172.39-.258.857-.258,1.403v7.289h-3.223v-7.289c0-.726-.075-1.254-.225-1.583Z"/><path class="cls-9" d="M437.061,181.655c-.382-.457-.929-.686-1.64-.686-.974,0-1.636.363-1.987,1.09-.203.419-.322,1.085-.359,1.998h-3.111c.053-1.385.303-2.504.752-3.357.854-1.625,2.37-2.438,4.549-2.438,1.722,0,3.092.478,4.11,1.433,1.019.954,1.527,2.218,1.527,3.79,0,1.205-.359,2.276-1.078,3.212-.472.621-1.247,1.313-2.325,2.077l-1.279.91c-.802.569-1.35.98-1.646,1.235s-.545.55-.747.888h7.109v2.818h-11.152c.03-1.168.281-2.234.752-3.201.457-1.085,1.535-2.234,3.234-3.447,1.476-1.056,2.43-1.812,2.864-2.269.666-.711.999-1.49.999-2.336,0-.688-.19-1.262-.572-1.718Z"/><path class="cls-9" d="M556.667,142.674h-3.515v5.952h-3.438v-16.554h7.211c1.662,0,2.986.427,3.975,1.28s1.482,2.175,1.482,3.965c0,1.953-.494,3.335-1.482,4.144s-2.399,1.213-4.233,1.213ZM558.285,139.225c.449-.396.674-1.025.674-1.887s-.227-1.475-.68-1.842c-.453-.366-1.087-.55-1.903-.55h-3.223v4.874h3.223c.816,0,1.452-.198,1.909-.596Z"/><path class="cls-9" d="M565.18,137.71c.846-1.078,2.299-1.617,4.357-1.617,1.34,0,2.53.266,3.571.797,1.041.532,1.561,1.535,1.561,3.01v5.615c0,.39.008.861.023,1.416.021.419.086.703.19.854.104.149.262.272.472.37v.472h-3.481c-.098-.247-.165-.479-.202-.696s-.067-.464-.09-.741c-.441.479-.951.887-1.527,1.225-.688.396-1.468.595-2.336.595-1.108,0-2.023-.316-2.746-.949s-1.084-1.529-1.084-2.689c0-1.505.581-2.595,1.741-3.269.637-.366,1.572-.629,2.808-.785l1.09-.135c.591-.075,1.014-.169,1.269-.281.457-.194.685-.498.685-.91,0-.501-.174-.848-.521-1.038-.349-.191-.859-.286-1.533-.286-.756,0-1.291.187-1.605.561-.225.277-.375.652-.449,1.123h-3.089c.067-1.07.367-1.95.898-2.639ZM567.561,146.312c.3.247.666.37,1.101.37.688,0,1.323-.201,1.903-.605s.882-1.143.904-2.213v-1.19c-.202.127-.406.23-.612.309-.206.079-.488.151-.848.22l-.719.135c-.674.119-1.156.266-1.449.438-.494.292-.74.745-.74,1.359,0,.546.153.939.46,1.179Z"/><path class="cls-9" d="M583.665,139.339c-1.288,0-2.153.419-2.595,1.258-.247.471-.37,1.197-.37,2.178v5.852h-3.224v-12.241h3.055v2.134c.494-.816.925-1.374,1.292-1.674.599-.501,1.377-.752,2.336-.752.06,0,.11.002.151.006s.133.009.274.017v3.279c-.201-.022-.381-.037-.539-.045-.156-.008-.284-.011-.381-.011Z"/><path class="cls-9" d="M592.066,146.346v2.392l-1.516.056c-1.513.053-2.546-.209-3.1-.785-.359-.367-.539-.933-.539-1.696v-7.536h-1.707v-2.279h1.707v-3.414h3.166v3.414h1.988v2.279h-1.988v6.469c0,.502.064.814.191.938.127.123.517.185,1.168.185.098,0,.2,0,.309-.005s.216-.01.32-.017Z"/><path class="cls-9" d="M599.882,138.755c-1.086,0-1.831.46-2.235,1.381-.209.486-.314,1.108-.314,1.864v6.626h-3.189v-12.219h3.089v1.785c.412-.629.801-1.081,1.168-1.358.659-.494,1.493-.741,2.505-.741,1.265,0,2.3.331,3.104.994.805.662,1.208,1.761,1.208,3.296v8.243h-3.279v-7.445c0-.645-.087-1.139-.259-1.482-.314-.629-.913-.943-1.797-.943Z"/><path class="cls-9" d="M618.649,145.032c-.082.727-.46,1.464-1.134,2.213-1.049,1.189-2.516,1.785-4.402,1.785-1.558,0-2.932-.502-4.122-1.505s-1.786-2.636-1.786-4.896c0-2.119.538-3.743,1.612-4.874s2.469-1.695,4.183-1.695c1.019,0,1.936.19,2.752.572s1.49.984,2.021,1.809c.479.726.79,1.568.932,2.526.083.562.116,1.37.102,2.426h-8.378c.045,1.228.431,2.089,1.157,2.583.441.307.973.461,1.594.461.659,0,1.194-.188,1.606-.562.225-.201.423-.482.595-.842h3.269ZM615.482,141.281c-.053-.846-.309-1.488-.77-1.926-.46-.438-1.031-.657-1.713-.657-.74,0-1.315.232-1.724.696s-.664,1.093-.769,1.887h4.975Z"/><path class="cls-9" d="M627.117,139.339c-1.288,0-2.153.419-2.595,1.258-.247.471-.37,1.197-.37,2.178v5.852h-3.224v-12.241h3.055v2.134c.494-.816.925-1.374,1.292-1.674.599-.501,1.377-.752,2.336-.752.06,0,.11.002.151.006s.133.009.274.017v3.279c-.201-.022-.381-.037-.539-.045-.156-.008-.284-.011-.381-.011Z"/><path class="cls-9" d="M564.354,165.134h-3.571v6.491h-3.381v-16.554h8.12c1.16.022,2.054.165,2.679.427s1.154.647,1.589,1.156c.359.42.644.884.854,1.393.21.51.314,1.09.314,1.741,0,.786-.198,1.56-.595,2.319-.397.76-1.053,1.297-1.966,1.611.764.307,1.305.743,1.623,1.309s.478,1.428.478,2.588v1.112c0,.756.029,1.269.09,1.538.09.428.299.742.629.943v.416h-3.808c-.104-.367-.18-.662-.225-.887-.09-.465-.139-.94-.146-1.427l-.023-1.538c-.015-1.057-.207-1.76-.578-2.111-.37-.353-1.064-.528-2.083-.528ZM566.454,162.125c.688-.314,1.033-.936,1.033-1.864,0-1.003-.334-1.677-1-2.021-.374-.194-.936-.292-1.685-.292h-4.021v4.447h3.92c.778,0,1.362-.09,1.752-.27Z"/><path class="cls-9" d="M583.883,160.934c1.033,1.295,1.55,2.826,1.55,4.594,0,1.797-.517,3.333-1.55,4.609s-2.602,1.915-4.706,1.915-3.672-.639-4.705-1.915-1.55-2.812-1.55-4.609c0-1.768.517-3.299,1.55-4.594s2.602-1.943,4.705-1.943,3.673.648,4.706,1.943ZM579.166,161.698c-.936,0-1.656.331-2.162.994-.505.662-.758,1.607-.758,2.836s.253,2.175.758,2.841c.506.666,1.227.999,2.162.999s1.654-.333,2.156-.999.753-1.613.753-2.841-.251-2.174-.753-2.836c-.502-.663-1.221-.994-2.156-.994Z"/><path class="cls-9" d="M597.933,160.934c1.033,1.295,1.55,2.826,1.55,4.594,0,1.797-.517,3.333-1.55,4.609s-2.602,1.915-4.706,1.915-3.672-.639-4.705-1.915-1.55-2.812-1.55-4.609c0-1.768.517-3.299,1.55-4.594s2.602-1.943,4.705-1.943,3.673.648,4.706,1.943ZM593.216,161.698c-.936,0-1.656.331-2.162.994-.505.662-.758,1.607-.758,2.836s.253,2.175.758,2.841c.506.666,1.227.999,2.162.999s1.654-.333,2.156-.999.753-1.613.753-2.841-.251-2.174-.753-2.836c-.502-.663-1.221-.994-2.156-.994Z"/><path class="cls-9" d="M608.648,162.754c-.27-.592-.798-.888-1.584-.888-.913,0-1.527.296-1.842.888-.172.337-.258.839-.258,1.505v7.367h-3.246v-12.219h3.111v1.785c.396-.636.771-1.089,1.123-1.358.621-.479,1.426-.719,2.414-.719.936,0,1.692.206,2.269.618.464.381.816.872,1.056,1.471.419-.719.939-1.246,1.561-1.584.659-.336,1.393-.505,2.201-.505.539,0,1.071.104,1.596.314.523.21.999.576,1.426,1.101.345.427.576.951.696,1.572.075.412.112,1.015.112,1.809l-.022,7.715h-3.279v-7.794c0-.464-.075-.846-.225-1.146-.284-.569-.809-.854-1.572-.854-.884,0-1.493.367-1.831,1.101-.172.39-.258.857-.258,1.403v7.289h-3.223v-7.289c0-.726-.075-1.254-.225-1.583Z"/><path class="cls-9" d="M586.159,181.587c-.359.479-.531,1.12-.517,1.921h-2.987c.03-.809.168-1.576.416-2.302.262-.637.674-1.225,1.234-1.764.42-.382.918-.674,1.494-.876s1.284-.304,2.123-.304c1.557,0,2.812.403,3.768,1.208.954.805,1.432,1.885,1.432,3.239,0,.959-.284,1.768-.854,2.426-.359.412-.733.693-1.123.843.292,0,.711.251,1.258.753.816.756,1.225,1.789,1.225,3.1,0,1.377-.478,2.588-1.433,3.633-.954,1.044-2.367,1.566-4.239,1.566-2.306,0-3.908-.752-4.807-2.258-.472-.801-.733-1.849-.786-3.145h3.145c0,.652.104,1.191.314,1.617.39.787,1.097,1.18,2.122,1.18.629,0,1.178-.215,1.646-.646s.702-1.05.702-1.858c0-1.071-.435-1.786-1.303-2.146-.494-.202-1.272-.304-2.336-.304v-2.291c1.041-.015,1.767-.115,2.179-.303.711-.314,1.067-.951,1.067-1.909,0-.621-.182-1.127-.545-1.517-.363-.389-.874-.584-1.533-.584-.756,0-1.311.24-1.662.719Z"/><path class="cls-9" d="M687.468,331.595v2.931h-4.952v13.623h-3.481v-13.623h-4.975v-2.931h13.408Z"/><path class="cls-9" d="M698.014,344.555c-.082.727-.46,1.464-1.134,2.213-1.049,1.189-2.516,1.785-4.402,1.785-1.558,0-2.932-.502-4.122-1.505s-1.786-2.636-1.786-4.896c0-2.119.538-3.743,1.612-4.874s2.469-1.695,4.183-1.695c1.019,0,1.936.19,2.752.572s1.49.984,2.021,1.809c.479.726.79,1.568.932,2.526.083.562.116,1.37.102,2.426h-8.378c.045,1.228.431,2.089,1.157,2.583.441.307.973.461,1.594.461.659,0,1.194-.188,1.606-.562.225-.201.423-.482.595-.842h3.269ZM694.847,340.804c-.053-.846-.309-1.488-.77-1.926-.46-.438-1.031-.657-1.713-.657-.74,0-1.315.232-1.724.696s-.664,1.093-.769,1.887h4.975Z"/><path class="cls-9" d="M700.787,337.233c.846-1.078,2.299-1.617,4.357-1.617,1.34,0,2.53.266,3.571.797,1.041.532,1.561,1.535,1.561,3.01v5.615c0,.39.008.861.023,1.416.021.419.086.703.19.854.104.149.262.272.472.37v.472h-3.481c-.098-.247-.165-.479-.202-.696s-.067-.464-.09-.741c-.441.479-.951.887-1.527,1.225-.688.396-1.468.595-2.336.595-1.108,0-2.023-.316-2.746-.949s-1.084-1.529-1.084-2.689c0-1.505.581-2.595,1.741-3.269.637-.366,1.572-.629,2.808-.785l1.09-.135c.591-.075,1.014-.169,1.269-.281.457-.194.685-.498.685-.91,0-.501-.174-.848-.521-1.038-.349-.191-.859-.286-1.533-.286-.756,0-1.291.187-1.605.561-.225.277-.375.652-.449,1.123h-3.089c.067-1.07.367-1.95.898-2.639ZM703.168,345.836c.3.247.666.37,1.101.37.688,0,1.323-.201,1.903-.605s.882-1.143.904-2.213v-1.19c-.202.127-.406.23-.612.309-.206.079-.488.151-.848.22l-.719.135c-.674.119-1.156.266-1.449.438-.494.292-.74.745-.74,1.359,0,.546.153.939.46,1.179Z"/><path class="cls-9" d="M719.992,339.277c-.27-.592-.798-.888-1.584-.888-.913,0-1.527.296-1.842.888-.172.337-.258.839-.258,1.505v7.367h-3.246v-12.219h3.111v1.785c.396-.636.771-1.089,1.123-1.358.621-.479,1.426-.719,2.414-.719.936,0,1.692.206,2.269.618.464.381.816.872,1.056,1.471.419-.719.939-1.246,1.561-1.584.659-.336,1.393-.505,2.201-.505.539,0,1.071.104,1.596.314.523.21.999.576,1.426,1.101.345.427.576.951.696,1.572.075.412.112,1.015.112,1.809l-.022,7.715h-3.279v-7.794c0-.464-.075-.846-.225-1.146-.284-.569-.809-.854-1.572-.854-.884,0-1.493.367-1.831,1.101-.172.39-.258.857-.258,1.403v7.289h-3.223v-7.289c0-.726-.075-1.254-.225-1.583Z"/><path class="cls-9" d="M679.084,364.658h-3.571v6.491h-3.381v-16.554h8.12c1.16.022,2.054.165,2.679.427s1.154.647,1.589,1.156c.359.42.644.884.854,1.393.21.51.314,1.09.314,1.741,0,.786-.198,1.56-.595,2.319-.397.76-1.053,1.297-1.966,1.611.764.307,1.305.743,1.623,1.309s.478,1.428.478,2.588v1.112c0,.756.029,1.269.09,1.538.09.428.299.742.629.943v.416h-3.808c-.104-.367-.18-.662-.225-.887-.09-.465-.139-.94-.146-1.427l-.023-1.538c-.015-1.057-.207-1.76-.578-2.111-.37-.353-1.064-.528-2.083-.528ZM681.184,361.648c.688-.314,1.033-.936,1.033-1.864,0-1.003-.334-1.677-1-2.021-.374-.194-.936-.292-1.685-.292h-4.021v4.447h3.92c.778,0,1.362-.09,1.752-.27Z"/><path class="cls-9" d="M698.613,360.458c1.033,1.295,1.55,2.826,1.55,4.594,0,1.797-.517,3.333-1.55,4.609s-2.602,1.915-4.706,1.915-3.672-.639-4.705-1.915-1.55-2.812-1.55-4.609c0-1.768.517-3.299,1.55-4.594s2.602-1.943,4.705-1.943,3.673.648,4.706,1.943ZM693.896,361.221c-.936,0-1.656.331-2.162.994-.505.662-.758,1.607-.758,2.836s.253,2.175.758,2.841c.506.666,1.227.999,2.162.999s1.654-.333,2.156-.999.753-1.613.753-2.841-.251-2.174-.753-2.836c-.502-.663-1.221-.994-2.156-.994Z"/><path class="cls-9" d="M712.663,360.458c1.033,1.295,1.55,2.826,1.55,4.594,0,1.797-.517,3.333-1.55,4.609s-2.602,1.915-4.706,1.915-3.672-.639-4.705-1.915-1.55-2.812-1.55-4.609c0-1.768.517-3.299,1.55-4.594s2.602-1.943,4.705-1.943,3.673.648,4.706,1.943ZM707.946,361.221c-.936,0-1.656.331-2.162.994-.505.662-.758,1.607-.758,2.836s.253,2.175.758,2.841c.506.666,1.227.999,2.162.999s1.654-.333,2.156-.999.753-1.613.753-2.841-.251-2.174-.753-2.836c-.502-.663-1.221-.994-2.156-.994Z"/><path class="cls-9" d="M723.378,362.277c-.27-.592-.798-.888-1.584-.888-.913,0-1.527.296-1.842.888-.172.337-.258.839-.258,1.505v7.367h-3.246v-12.219h3.111v1.785c.396-.636.771-1.089,1.123-1.358.621-.479,1.426-.719,2.414-.719.936,0,1.692.206,2.269.618.464.381.816.872,1.056,1.471.419-.719.939-1.246,1.561-1.584.659-.336,1.393-.505,2.201-.505.539,0,1.071.104,1.596.314.523.21.999.576,1.426,1.101.345.427.576.951.696,1.572.075.412.112,1.015.112,1.809l-.022,7.715h-3.279v-7.794c0-.464-.075-.846-.225-1.146-.284-.569-.809-.854-1.572-.854-.884,0-1.493.367-1.831,1.101-.172.39-.258.857-.258,1.403v7.289h-3.223v-7.289c0-.726-.075-1.254-.225-1.583Z"/><path class="cls-9" d="M698.794,394.149h-3.279v-11.23h-3.829v-2.179c1.011-.045,1.718-.112,2.122-.202.645-.143,1.168-.427,1.572-.854.277-.292.487-.682.629-1.168.083-.292.124-.509.124-.651h2.661v16.284Z"/><path class="cls-9" d="M709.216,394.553c-2.074,0-3.528-.727-4.363-2.179s-1.252-3.522-1.252-6.21.417-4.762,1.252-6.223c.835-1.459,2.289-2.189,4.363-2.189s3.53.73,4.369,2.189c.83,1.461,1.246,3.534,1.246,6.223s-.417,4.758-1.252,6.21-2.289,2.179-4.363,2.179ZM711.091,390.454c.293-.988.438-2.418.438-4.289,0-1.962-.147-3.414-.443-4.357s-.919-1.416-1.87-1.416-1.58.473-1.887,1.416-.461,2.396-.461,4.357c0,1.871.154,3.303.461,4.295s.936,1.488,1.887,1.488,1.576-.498,1.875-1.494Z"/><path class="cls-9" d="M577.779,346.683h-3.031v5.132h-2.963v-14.274h6.217c1.433,0,2.576.368,3.428,1.104.852.736,1.278,1.875,1.278,3.418,0,1.685-.426,2.876-1.278,3.573s-2.069,1.046-3.651,1.046ZM579.174,343.71c.387-.342.581-.884.581-1.627s-.195-1.271-.586-1.588-.938-.475-1.642-.475h-2.779v4.203h2.779c.704,0,1.252-.171,1.646-.513Z"/><path class="cls-9" d="M585.12,342.403c.729-.93,1.982-1.395,3.757-1.395,1.155,0,2.182.229,3.08.688.897.458,1.346,1.324,1.346,2.595v4.842c0,.336.006.743.02,1.22.02.362.074.607.165.736.09.129.226.235.407.319v.407h-3.002c-.084-.213-.142-.413-.174-.601-.032-.187-.058-.4-.078-.639-.381.414-.82.765-1.317,1.056-.594.342-1.265.513-2.014.513-.956,0-1.745-.272-2.368-.818-.623-.545-.935-1.318-.935-2.319,0-1.298.5-2.237,1.501-2.818.549-.316,1.356-.542,2.421-.678l.939-.116c.51-.064.875-.145,1.094-.242.394-.167.591-.429.591-.784,0-.433-.15-.731-.45-.896s-.741-.247-1.322-.247c-.652,0-1.114.161-1.385.484-.194.239-.323.562-.388.968h-2.663c.058-.923.316-1.682.775-2.275ZM587.172,349.82c.258.213.575.32.949.32.594,0,1.141-.174,1.642-.523.5-.349.76-.984.779-1.908v-1.026c-.174.11-.35.198-.528.266s-.421.131-.731.189l-.62.116c-.581.104-.998.229-1.25.377-.426.252-.639.643-.639,1.172,0,.471.132.811.397,1.017Z"/><path class="cls-9" d="M601.059,343.806c-1.11,0-1.856.362-2.237,1.085-.213.407-.32,1.033-.32,1.878v5.045h-2.779v-10.555h2.634v1.84c.426-.704.797-1.185,1.113-1.443.517-.433,1.188-.649,2.015-.649.051,0,.095.001.13.005.036.003.115.008.237.015v2.828c-.174-.02-.329-.032-.465-.039-.135-.006-.245-.01-.329-.01Z"/><path class="cls-9" d="M608.303,349.849v2.062l-1.307.048c-1.304.045-2.195-.181-2.673-.678-.31-.316-.465-.804-.465-1.462v-6.498h-1.472v-1.966h1.472v-2.944h2.731v2.944h1.714v1.966h-1.714v5.578c0,.433.055.702.165.809.11.107.445.16,1.007.16.083,0,.172-.001.266-.005.093-.003.186-.008.276-.015Z"/><path class="cls-9" d="M615.043,343.303c-.936,0-1.579.397-1.927,1.191-.181.419-.271.956-.271,1.607v5.713h-2.75v-10.536h2.663v1.54c.355-.542.691-.933,1.007-1.172.568-.426,1.288-.639,2.16-.639,1.091,0,1.983.286,2.677.857s1.041,1.519,1.041,2.842v7.108h-2.828v-6.42c0-.555-.074-.981-.223-1.278-.271-.542-.788-.813-1.549-.813Z"/><path class="cls-9" d="M631.224,348.716c-.071.626-.397,1.262-.978,1.908-.904,1.026-2.169,1.54-3.796,1.54-1.343,0-2.527-.433-3.554-1.298-1.027-.865-1.54-2.272-1.54-4.222,0-1.827.463-3.228,1.39-4.203.926-.975,2.129-1.462,3.607-1.462.878,0,1.668.165,2.373.494.704.329,1.285.849,1.743,1.559.413.626.681,1.353.804,2.179.071.484.1,1.182.087,2.092h-7.224c.039,1.059.371,1.801.998,2.228.381.265.839.397,1.375.397.568,0,1.03-.162,1.385-.484.194-.174.365-.417.513-.726h2.818ZM628.494,345.482c-.045-.729-.267-1.283-.664-1.661-.397-.377-.889-.566-1.477-.566-.639,0-1.135.2-1.487.601-.352.4-.573.942-.663,1.627h4.29Z"/><path class="cls-9" d="M638.526,343.806c-1.11,0-1.856.362-2.237,1.085-.213.407-.32,1.033-.32,1.878v5.045h-2.779v-10.555h2.634v1.84c.426-.704.797-1.185,1.113-1.443.517-.433,1.188-.649,2.015-.649.051,0,.095.001.13.005.036.003.115.008.237.015v2.828c-.174-.02-.329-.032-.465-.039-.135-.006-.245-.01-.329-.01Z"/><path class="cls-9" d="M584.408,366.05h-3.08v5.597h-2.915v-14.274h7.001c1,.02,1.771.142,2.31.368.539.226.996.559,1.37.998.31.362.555.762.736,1.201.181.439.271.939.271,1.501,0,.678-.171,1.344-.514,2s-.907,1.119-1.694,1.39c.658.265,1.125.641,1.399,1.128.274.488.411,1.232.411,2.232v.958c0,.652.026,1.094.078,1.327.078.368.258.639.542.813v.358h-3.283c-.09-.316-.155-.571-.193-.765-.078-.4-.12-.81-.126-1.23l-.02-1.327c-.013-.91-.179-1.517-.499-1.82-.32-.303-.918-.455-1.796-.455ZM586.219,363.455c.594-.271.891-.807.891-1.608,0-.865-.287-1.446-.862-1.743-.323-.168-.807-.252-1.453-.252h-3.467v3.835h3.38c.671,0,1.175-.078,1.511-.232Z"/><path class="cls-9" d="M601.247,362.428c.891,1.117,1.336,2.438,1.336,3.961,0,1.549-.445,2.875-1.336,3.975-.891,1.101-2.243,1.651-4.057,1.651s-3.167-.55-4.058-1.651c-.891-1.101-1.336-2.426-1.336-3.975,0-1.523.445-2.844,1.336-3.961.891-1.117,2.243-1.675,4.058-1.675s3.167.559,4.057,1.675ZM597.181,363.087c-.807,0-1.428.286-1.864.857-.436.571-.654,1.387-.654,2.445s.218,1.875.654,2.45c.436.575,1.057.862,1.864.862s1.427-.287,1.859-.862c.432-.575.648-1.391.648-2.45s-.216-1.874-.648-2.445c-.433-.571-1.053-.857-1.859-.857Z"/><path class="cls-9" d="M613.362,362.428c.891,1.117,1.336,2.438,1.336,3.961,0,1.549-.445,2.875-1.336,3.975-.891,1.101-2.243,1.651-4.057,1.651s-3.167-.55-4.058-1.651c-.891-1.101-1.336-2.426-1.336-3.975,0-1.523.445-2.844,1.336-3.961.891-1.117,2.243-1.675,4.058-1.675s3.167.559,4.057,1.675ZM609.295,363.087c-.807,0-1.428.286-1.864.857-.436.571-.654,1.387-.654,2.445s.218,1.875.654,2.45c.436.575,1.057.862,1.864.862s1.427-.287,1.859-.862c.432-.575.648-1.391.648-2.45s-.216-1.874-.648-2.445c-.433-.571-1.053-.857-1.859-.857Z"/><path class="cls-9" d="M622.6,363.997c-.232-.51-.688-.765-1.365-.765-.788,0-1.317.255-1.588.765-.148.291-.223.723-.223,1.298v6.353h-2.798v-10.536h2.682v1.54c.342-.549.665-.939.968-1.172.536-.413,1.23-.62,2.082-.62.807,0,1.459.177,1.957.532.4.33.704.752.91,1.269.361-.62.81-1.075,1.346-1.365.568-.291,1.201-.436,1.898-.436.465,0,.923.09,1.375.271.452.181.862.497,1.23.949.297.368.497.82.6,1.356.064.355.097.875.097,1.559l-.02,6.653h-2.828v-6.721c0-.4-.064-.729-.194-.988-.245-.49-.697-.736-1.355-.736-.762,0-1.288.316-1.579.949-.148.335-.223.739-.223,1.21v6.285h-2.779v-6.285c0-.626-.064-1.082-.194-1.366Z"/><path class="cls-9" d="M604.564,391.887c-1.052,0-1.998-.312-2.837-.935s-1.32-1.532-1.443-2.726h2.75c.064.414.239.749.523,1.007s.662.387,1.133.387c.91,0,1.549-.503,1.917-1.511.2-.555.326-1.365.377-2.431-.252.316-.52.559-.804.727-.517.31-1.152.465-1.908.465-1.117,0-2.108-.386-2.973-1.157s-1.297-1.884-1.297-3.336c0-1.504.434-2.723,1.302-3.655.868-.933,1.997-1.399,3.385-1.399,2.137,0,3.602.946,4.396,2.837.452,1.072.678,2.482.678,4.232,0,1.698-.216,3.115-.649,4.251-.826,2.163-2.343,3.244-4.551,3.244ZM603.596,380.024c-.53.413-.794,1.114-.794,2.102,0,.833.169,1.458.509,1.874.339.417.86.625,1.564.625.381,0,.739-.11,1.075-.33.626-.4.939-1.094.939-2.082,0-.794-.186-1.423-.557-1.888s-.879-.697-1.525-.697c-.472,0-.875.132-1.21.397Z"/><path class="cls-9" d="M1436.924,142.674h-3.515v5.952h-3.438v-16.554h7.211c1.662,0,2.986.427,3.975,1.28s1.482,2.175,1.482,3.965c0,1.953-.494,3.335-1.482,4.144s-2.399,1.213-4.233,1.213ZM1438.541,139.225c.449-.396.674-1.025.674-1.887s-.227-1.475-.68-1.842c-.453-.366-1.087-.55-1.903-.55h-3.223v4.874h3.223c.816,0,1.452-.198,1.909-.596Z"/><path class="cls-9" d="M1445.437,137.71c.846-1.078,2.299-1.617,4.357-1.617,1.34,0,2.53.266,3.571.797,1.041.532,1.561,1.535,1.561,3.01v5.615c0,.39.008.861.023,1.416.021.419.086.703.19.854.104.149.262.272.472.37v.472h-3.481c-.098-.247-.165-.479-.202-.696s-.067-.464-.09-.741c-.441.479-.951.887-1.527,1.225-.688.396-1.468.595-2.336.595-1.108,0-2.023-.316-2.746-.949s-1.084-1.529-1.084-2.689c0-1.505.581-2.595,1.741-3.269.637-.366,1.572-.629,2.808-.785l1.09-.135c.591-.075,1.014-.169,1.269-.281.457-.194.685-.498.685-.91,0-.501-.174-.848-.521-1.038-.349-.191-.859-.286-1.533-.286-.756,0-1.291.187-1.605.561-.225.277-.375.652-.449,1.123h-3.089c.067-1.07.367-1.95.898-2.639ZM1447.818,146.312c.3.247.666.37,1.101.37.688,0,1.323-.201,1.903-.605s.882-1.143.904-2.213v-1.19c-.202.127-.406.23-.612.309-.206.079-.488.151-.848.22l-.719.135c-.674.119-1.156.266-1.449.438-.494.292-.74.745-.74,1.359,0,.546.153.939.46,1.179Z"/><path class="cls-9" d="M1463.922,139.339c-1.288,0-2.153.419-2.595,1.258-.247.471-.37,1.197-.37,2.178v5.852h-3.224v-12.241h3.055v2.134c.494-.816.925-1.374,1.292-1.674.599-.501,1.377-.752,2.336-.752.06,0,.11.002.151.006s.133.009.274.017v3.279c-.201-.022-.381-.037-.539-.045-.156-.008-.284-.011-.381-.011Z"/><path class="cls-9" d="M1472.323,146.346v2.392l-1.516.056c-1.513.053-2.546-.209-3.1-.785-.359-.367-.539-.933-.539-1.696v-7.536h-1.707v-2.279h1.707v-3.414h3.166v3.414h1.988v2.279h-1.988v6.469c0,.502.064.814.191.938.127.123.517.185,1.168.185.098,0,.2,0,.309-.005s.216-.01.32-.017Z"/><path class="cls-9" d="M1480.139,138.755c-1.086,0-1.831.46-2.235,1.381-.209.486-.314,1.108-.314,1.864v6.626h-3.189v-12.219h3.089v1.785c.412-.629.801-1.081,1.168-1.358.659-.494,1.493-.741,2.505-.741,1.265,0,2.3.331,3.104.994.805.662,1.208,1.761,1.208,3.296v8.243h-3.279v-7.445c0-.645-.087-1.139-.259-1.482-.314-.629-.913-.943-1.797-.943Z"/><path class="cls-9" d="M1498.906,145.032c-.082.727-.46,1.464-1.134,2.213-1.049,1.189-2.516,1.785-4.402,1.785-1.558,0-2.932-.502-4.122-1.505s-1.786-2.636-1.786-4.896c0-2.119.538-3.743,1.612-4.874s2.469-1.695,4.183-1.695c1.019,0,1.936.19,2.752.572s1.49.984,2.021,1.809c.479.726.79,1.568.932,2.526.083.562.116,1.37.102,2.426h-8.378c.045,1.228.431,2.089,1.157,2.583.441.307.973.461,1.594.461.659,0,1.194-.188,1.606-.562.225-.201.423-.482.595-.842h3.269ZM1495.739,141.281c-.053-.846-.309-1.488-.77-1.926-.46-.438-1.031-.657-1.713-.657-.74,0-1.315.232-1.724.696s-.664,1.093-.769,1.887h4.975Z"/><path class="cls-9" d="M1507.373,139.339c-1.288,0-2.153.419-2.595,1.258-.247.471-.37,1.197-.37,2.178v5.852h-3.224v-12.241h3.055v2.134c.494-.816.925-1.374,1.292-1.674.599-.501,1.377-.752,2.336-.752.06,0,.11.002.151.006s.133.009.274.017v3.279c-.201-.022-.381-.037-.539-.045-.156-.008-.284-.011-.381-.011Z"/><path class="cls-9" d="M1444.611,165.134h-3.571v6.491h-3.381v-16.554h8.12c1.16.022,2.054.165,2.679.427s1.154.647,1.589,1.156c.359.42.644.884.854,1.393.21.51.314,1.09.314,1.741,0,.786-.198,1.56-.595,2.319-.397.76-1.053,1.297-1.966,1.611.764.307,1.305.743,1.623,1.309s.478,1.428.478,2.588v1.112c0,.756.029,1.269.09,1.538.09.428.299.742.629.943v.416h-3.808c-.104-.367-.18-.662-.225-.887-.09-.465-.139-.94-.146-1.427l-.023-1.538c-.015-1.057-.207-1.76-.578-2.111-.37-.353-1.064-.528-2.083-.528ZM1446.711,162.125c.688-.314,1.033-.936,1.033-1.864,0-1.003-.334-1.677-1-2.021-.374-.194-.936-.292-1.685-.292h-4.021v4.447h3.92c.778,0,1.362-.09,1.752-.27Z"/><path class="cls-9" d="M1464.14,160.934c1.033,1.295,1.55,2.826,1.55,4.594,0,1.797-.517,3.333-1.55,4.609s-2.602,1.915-4.706,1.915-3.672-.639-4.705-1.915-1.55-2.812-1.55-4.609c0-1.768.517-3.299,1.55-4.594s2.602-1.943,4.705-1.943,3.673.648,4.706,1.943ZM1459.423,161.698c-.936,0-1.656.331-2.162.994-.505.662-.758,1.607-.758,2.836s.253,2.175.758,2.841c.506.666,1.227.999,2.162.999s1.654-.333,2.156-.999.753-1.613.753-2.841-.251-2.174-.753-2.836c-.502-.663-1.221-.994-2.156-.994Z"/><path class="cls-9" d="M1478.19,160.934c1.033,1.295,1.55,2.826,1.55,4.594,0,1.797-.517,3.333-1.55,4.609s-2.602,1.915-4.706,1.915-3.672-.639-4.705-1.915-1.55-2.812-1.55-4.609c0-1.768.517-3.299,1.55-4.594s2.602-1.943,4.705-1.943,3.673.648,4.706,1.943ZM1473.473,161.698c-.936,0-1.656.331-2.162.994-.505.662-.758,1.607-.758,2.836s.253,2.175.758,2.841c.506.666,1.227.999,2.162.999s1.654-.333,2.156-.999.753-1.613.753-2.841-.251-2.174-.753-2.836c-.502-.663-1.221-.994-2.156-.994Z"/><path class="cls-9" d="M1488.905,162.754c-.27-.592-.798-.888-1.584-.888-.913,0-1.527.296-1.842.888-.172.337-.258.839-.258,1.505v7.367h-3.246v-12.219h3.111v1.785c.396-.636.771-1.089,1.123-1.358.621-.479,1.426-.719,2.414-.719.936,0,1.692.206,2.269.618.464.381.816.872,1.056,1.471.419-.719.939-1.246,1.561-1.584.659-.336,1.393-.505,2.201-.505.539,0,1.071.104,1.596.314.523.21.999.576,1.426,1.101.345.427.576.951.696,1.572.075.412.112,1.015.112,1.809l-.022,7.715h-3.279v-7.794c0-.464-.075-.846-.225-1.146-.284-.569-.809-.854-1.572-.854-.884,0-1.493.367-1.831,1.101-.172.39-.258.857-.258,1.403v7.289h-3.223v-7.289c0-.726-.075-1.254-.225-1.583Z"/><path class="cls-9" d="M1468.145,186.54c-.39,0-.727.049-1.011.146-.502.18-.88.513-1.135.999l-2.875-.135,1.146-8.995h8.973v2.717h-6.66l-.584,3.561c.494-.322.88-.535,1.157-.641.464-.172,1.029-.258,1.696-.258,1.348,0,2.522.453,3.525,1.359,1.004.905,1.506,2.223,1.506,3.953,0,1.504-.483,2.849-1.449,4.031s-2.411,1.774-4.335,1.774c-1.55,0-2.822-.415-3.818-1.247-.996-.83-1.55-2.01-1.662-3.537h3.189c.127.696.37,1.233.729,1.611s.884.567,1.572.567c.794,0,1.398-.279,1.814-.837.415-.558.623-1.26.623-2.105,0-.831-.194-1.533-.584-2.105-.39-.573-.996-.859-1.819-.859Z"/><path class="cls-9" d="M1339.863,361.195v2.931h-4.952v13.623h-3.481v-13.623h-4.975v-2.931h13.408Z"/><path class="cls-9" d="M1350.409,374.155c-.082.727-.46,1.464-1.134,2.213-1.049,1.189-2.516,1.785-4.402,1.785-1.558,0-2.932-.502-4.122-1.505s-1.786-2.636-1.786-4.896c0-2.119.538-3.743,1.612-4.874s2.469-1.695,4.183-1.695c1.019,0,1.936.19,2.752.572s1.49.984,2.021,1.809c.479.726.79,1.568.932,2.526.083.562.116,1.37.102,2.426h-8.378c.045,1.228.431,2.089,1.157,2.583.441.307.973.461,1.594.461.659,0,1.194-.188,1.606-.562.225-.201.423-.482.595-.842h3.269ZM1347.242,370.404c-.053-.846-.309-1.488-.77-1.926-.46-.438-1.031-.657-1.713-.657-.74,0-1.315.232-1.724.696s-.664,1.093-.769,1.887h4.975Z"/><path class="cls-9" d="M1353.182,366.833c.846-1.078,2.299-1.617,4.357-1.617,1.34,0,2.53.266,3.571.797,1.041.532,1.561,1.535,1.561,3.01v5.615c0,.39.008.861.023,1.416.021.419.086.703.19.854.104.149.262.272.472.37v.472h-3.481c-.098-.247-.165-.479-.202-.696s-.067-.464-.09-.741c-.441.479-.951.887-1.527,1.225-.688.396-1.468.595-2.336.595-1.108,0-2.023-.316-2.746-.949s-1.084-1.529-1.084-2.689c0-1.505.581-2.595,1.741-3.269.637-.366,1.572-.629,2.808-.785l1.09-.135c.591-.075,1.014-.169,1.269-.281.457-.194.685-.498.685-.91,0-.501-.174-.848-.521-1.038-.349-.191-.859-.286-1.533-.286-.756,0-1.291.187-1.605.561-.225.277-.375.652-.449,1.123h-3.089c.067-1.07.367-1.95.898-2.639ZM1355.563,375.436c.3.247.666.37,1.101.37.688,0,1.323-.201,1.903-.605s.882-1.143.904-2.213v-1.19c-.202.127-.406.23-.612.309-.206.079-.488.151-.848.22l-.719.135c-.674.119-1.156.266-1.449.438-.494.292-.74.745-.74,1.359,0,.546.153.939.46,1.179Z"/><path class="cls-9" d="M1372.387,368.877c-.27-.592-.798-.888-1.584-.888-.913,0-1.527.296-1.842.888-.172.337-.258.839-.258,1.505v7.367h-3.246v-12.219h3.111v1.785c.396-.636.771-1.089,1.123-1.358.621-.479,1.426-.719,2.414-.719.936,0,1.692.206,2.269.618.464.381.816.872,1.056,1.471.419-.719.939-1.246,1.561-1.584.659-.336,1.393-.505,2.201-.505.539,0,1.071.104,1.596.314.523.21.999.576,1.426,1.101.345.427.576.951.696,1.572.075.412.112,1.015.112,1.809l-.022,7.715h-3.279v-7.794c0-.464-.075-.846-.225-1.146-.284-.569-.809-.854-1.572-.854-.884,0-1.493.367-1.831,1.101-.172.39-.258.857-.258,1.403v7.289h-3.223v-7.289c0-.726-.075-1.254-.225-1.583Z"/><path class="cls-9" d="M1331.479,394.258h-3.571v6.491h-3.381v-16.554h8.12c1.16.022,2.054.165,2.679.427s1.154.647,1.589,1.156c.359.42.644.884.854,1.393.21.51.314,1.09.314,1.741,0,.786-.198,1.56-.595,2.319-.397.76-1.053,1.297-1.966,1.611.764.307,1.305.743,1.623,1.309s.478,1.428.478,2.588v1.112c0,.756.029,1.269.09,1.538.09.428.299.742.629.943v.416h-3.808c-.104-.367-.18-.662-.225-.887-.09-.465-.139-.94-.146-1.427l-.023-1.538c-.015-1.057-.207-1.76-.578-2.111-.37-.353-1.064-.528-2.083-.528ZM1333.579,391.248c.688-.314,1.033-.936,1.033-1.864,0-1.003-.334-1.677-1-2.021-.374-.194-.936-.292-1.685-.292h-4.021v4.447h3.92c.778,0,1.362-.09,1.752-.27Z"/><path class="cls-9" d="M1351.008,390.058c1.033,1.295,1.55,2.826,1.55,4.594,0,1.797-.517,3.333-1.55,4.609s-2.602,1.915-4.706,1.915-3.672-.639-4.705-1.915-1.55-2.812-1.55-4.609c0-1.768.517-3.299,1.55-4.594s2.602-1.943,4.705-1.943,3.673.648,4.706,1.943ZM1346.291,390.821c-.936,0-1.656.331-2.162.994-.505.662-.758,1.607-.758,2.836s.253,2.175.758,2.841c.506.666,1.227.999,2.162.999s1.654-.333,2.156-.999.753-1.613.753-2.841-.251-2.174-.753-2.836c-.502-.663-1.221-.994-2.156-.994Z"/><path class="cls-9" d="M1365.058,390.058c1.033,1.295,1.55,2.826,1.55,4.594,0,1.797-.517,3.333-1.55,4.609s-2.602,1.915-4.706,1.915-3.672-.639-4.705-1.915-1.55-2.812-1.55-4.609c0-1.768.517-3.299,1.55-4.594s2.602-1.943,4.705-1.943,3.673.648,4.706,1.943ZM1360.341,390.821c-.936,0-1.656.331-2.162.994-.505.662-.758,1.607-.758,2.836s.253,2.175.758,2.841c.506.666,1.227.999,2.162.999s1.654-.333,2.156-.999.753-1.613.753-2.841-.251-2.174-.753-2.836c-.502-.663-1.221-.994-2.156-.994Z"/><path class="cls-9" d="M1375.773,391.877c-.27-.592-.798-.888-1.584-.888-.913,0-1.527.296-1.842.888-.172.337-.258.839-.258,1.505v7.367h-3.246v-12.219h3.111v1.785c.396-.636.771-1.089,1.123-1.358.621-.479,1.426-.719,2.414-.719.936,0,1.692.206,2.269.618.464.381.816.872,1.056,1.471.419-.719.939-1.246,1.561-1.584.659-.336,1.393-.505,2.201-.505.539,0,1.071.104,1.596.314.523.21.999.576,1.426,1.101.345.427.576.951.696,1.572.075.412.112,1.015.112,1.809l-.022,7.715h-3.279v-7.794c0-.464-.075-.846-.225-1.146-.284-.569-.809-.854-1.572-.854-.884,0-1.493.367-1.831,1.101-.172.39-.258.857-.258,1.403v7.289h-3.223v-7.289c0-.726-.075-1.254-.225-1.583Z"/><path class="cls-9" d="M1351.818,423.749h-3.279v-11.23h-3.829v-2.179c1.011-.045,1.718-.112,2.122-.202.645-.143,1.168-.427,1.572-.854.277-.292.487-.682.629-1.168.083-.292.124-.509.124-.651h2.661v16.284Z"/><path class="cls-9" d="M1363.351,423.749h-3.279v-11.23h-3.829v-2.179c1.011-.045,1.718-.112,2.122-.202.645-.143,1.168-.427,1.572-.854.277-.292.487-.682.629-1.168.083-.292.124-.509.124-.651h2.661v16.284Z"/><path class="cls-9" d="M1585.923,142.674h-3.515v5.952h-3.438v-16.554h7.211c1.662,0,2.986.427,3.975,1.28s1.482,2.175,1.482,3.965c0,1.953-.494,3.335-1.482,4.144s-2.399,1.213-4.233,1.213ZM1587.54,139.225c.449-.396.674-1.025.674-1.887s-.227-1.475-.68-1.842c-.453-.366-1.087-.55-1.903-.55h-3.223v4.874h3.223c.816,0,1.452-.198,1.909-.596Z"/><path class="cls-9" d="M1594.436,137.71c.846-1.078,2.299-1.617,4.357-1.617,1.34,0,2.53.266,3.571.797,1.041.532,1.561,1.535,1.561,3.01v5.615c0,.39.008.861.023,1.416.021.419.086.703.19.854.104.149.262.272.472.37v.472h-3.481c-.098-.247-.165-.479-.202-.696s-.067-.464-.09-.741c-.441.479-.951.887-1.527,1.225-.688.396-1.468.595-2.336.595-1.108,0-2.023-.316-2.746-.949s-1.084-1.529-1.084-2.689c0-1.505.581-2.595,1.741-3.269.637-.366,1.572-.629,2.808-.785l1.09-.135c.591-.075,1.014-.169,1.269-.281.457-.194.685-.498.685-.91,0-.501-.174-.848-.521-1.038-.349-.191-.859-.286-1.533-.286-.756,0-1.291.187-1.605.561-.225.277-.375.652-.449,1.123h-3.089c.067-1.07.367-1.95.898-2.639ZM1596.817,146.312c.3.247.666.37,1.101.37.688,0,1.323-.201,1.903-.605s.882-1.143.904-2.213v-1.19c-.202.127-.406.23-.612.309-.206.079-.488.151-.848.22l-.719.135c-.674.119-1.156.266-1.449.438-.494.292-.74.745-.74,1.359,0,.546.153.939.46,1.179Z"/><path class="cls-9" d="M1612.921,139.339c-1.288,0-2.153.419-2.595,1.258-.247.471-.37,1.197-.37,2.178v5.852h-3.224v-12.241h3.055v2.134c.494-.816.925-1.374,1.292-1.674.599-.501,1.377-.752,2.336-.752.06,0,.11.002.151.006s.133.009.274.017v3.279c-.201-.022-.381-.037-.539-.045-.156-.008-.284-.011-.381-.011Z"/><path class="cls-9" d="M1621.322,146.346v2.392l-1.516.056c-1.513.053-2.546-.209-3.1-.785-.359-.367-.539-.933-.539-1.696v-7.536h-1.707v-2.279h1.707v-3.414h3.166v3.414h1.988v2.279h-1.988v6.469c0,.502.064.814.191.938.127.123.517.185,1.168.185.098,0,.2,0,.309-.005s.216-.01.32-.017Z"/><path class="cls-9" d="M1629.138,138.755c-1.086,0-1.831.46-2.235,1.381-.209.486-.314,1.108-.314,1.864v6.626h-3.189v-12.219h3.089v1.785c.412-.629.801-1.081,1.168-1.358.659-.494,1.493-.741,2.505-.741,1.265,0,2.3.331,3.104.994.805.662,1.208,1.761,1.208,3.296v8.243h-3.279v-7.445c0-.645-.087-1.139-.259-1.482-.314-.629-.913-.943-1.797-.943Z"/><path class="cls-9" d="M1647.905,145.032c-.082.727-.46,1.464-1.134,2.213-1.049,1.189-2.516,1.785-4.402,1.785-1.558,0-2.932-.502-4.122-1.505s-1.786-2.636-1.786-4.896c0-2.119.538-3.743,1.612-4.874s2.469-1.695,4.183-1.695c1.019,0,1.936.19,2.752.572s1.49.984,2.021,1.809c.479.726.79,1.568.932,2.526.083.562.116,1.37.102,2.426h-8.378c.045,1.228.431,2.089,1.157,2.583.441.307.973.461,1.594.461.659,0,1.194-.188,1.606-.562.225-.201.423-.482.595-.842h3.269ZM1644.738,141.281c-.053-.846-.309-1.488-.77-1.926-.46-.438-1.031-.657-1.713-.657-.74,0-1.315.232-1.724.696s-.664,1.093-.769,1.887h4.975Z"/><path class="cls-9" d="M1656.372,139.339c-1.288,0-2.153.419-2.595,1.258-.247.471-.37,1.197-.37,2.178v5.852h-3.224v-12.241h3.055v2.134c.494-.816.925-1.374,1.292-1.674.599-.501,1.377-.752,2.336-.752.06,0,.11.002.151.006s.133.009.274.017v3.279c-.201-.022-.381-.037-.539-.045-.156-.008-.284-.011-.381-.011Z"/><path class="cls-9" d="M1593.61,165.134h-3.571v6.491h-3.381v-16.554h8.12c1.16.022,2.054.165,2.679.427s1.154.647,1.589,1.156c.359.42.644.884.854,1.393.21.51.314,1.09.314,1.741,0,.786-.198,1.56-.595,2.319-.397.76-1.053,1.297-1.966,1.611.764.307,1.305.743,1.623,1.309s.478,1.428.478,2.588v1.112c0,.756.029,1.269.09,1.538.09.428.299.742.629.943v.416h-3.808c-.104-.367-.18-.662-.225-.887-.09-.465-.139-.94-.146-1.427l-.023-1.538c-.015-1.057-.207-1.76-.578-2.111-.37-.353-1.064-.528-2.083-.528ZM1595.71,162.125c.688-.314,1.033-.936,1.033-1.864,0-1.003-.334-1.677-1-2.021-.374-.194-.936-.292-1.685-.292h-4.021v4.447h3.92c.778,0,1.362-.09,1.752-.27Z"/><path class="cls-9" d="M1613.139,160.934c1.033,1.295,1.55,2.826,1.55,4.594,0,1.797-.517,3.333-1.55,4.609s-2.602,1.915-4.706,1.915-3.672-.639-4.705-1.915-1.55-2.812-1.55-4.609c0-1.768.517-3.299,1.55-4.594s2.602-1.943,4.705-1.943,3.673.648,4.706,1.943ZM1608.422,161.698c-.936,0-1.656.331-2.162.994-.505.662-.758,1.607-.758,2.836s.253,2.175.758,2.841c.506.666,1.227.999,2.162.999s1.654-.333,2.156-.999.753-1.613.753-2.841-.251-2.174-.753-2.836c-.502-.663-1.221-.994-2.156-.994Z"/><path class="cls-9" d="M1627.189,160.934c1.033,1.295,1.55,2.826,1.55,4.594,0,1.797-.517,3.333-1.55,4.609s-2.602,1.915-4.706,1.915-3.672-.639-4.705-1.915-1.55-2.812-1.55-4.609c0-1.768.517-3.299,1.55-4.594s2.602-1.943,4.705-1.943,3.673.648,4.706,1.943ZM1622.472,161.698c-.936,0-1.656.331-2.162.994-.505.662-.758,1.607-.758,2.836s.253,2.175.758,2.841c.506.666,1.227.999,2.162.999s1.654-.333,2.156-.999.753-1.613.753-2.841-.251-2.174-.753-2.836c-.502-.663-1.221-.994-2.156-.994Z"/><path class="cls-9" d="M1637.904,162.754c-.27-.592-.798-.888-1.584-.888-.913,0-1.527.296-1.842.888-.172.337-.258.839-.258,1.505v7.367h-3.246v-12.219h3.111v1.785c.396-.636.771-1.089,1.123-1.358.621-.479,1.426-.719,2.414-.719.936,0,1.692.206,2.269.618.464.381.816.872,1.056,1.471.419-.719.939-1.246,1.561-1.584.659-.336,1.393-.505,2.201-.505.539,0,1.071.104,1.596.314.523.21.999.576,1.426,1.101.345.427.576.951.696,1.572.075.412.112,1.015.112,1.809l-.022,7.715h-3.279v-7.794c0-.464-.075-.846-.225-1.146-.284-.569-.809-.854-1.572-.854-.884,0-1.493.367-1.831,1.101-.172.39-.258.857-.258,1.403v7.289h-3.223v-7.289c0-.726-.075-1.254-.225-1.583Z"/><path class="cls-9" d="M1618.042,184.057c1.445,0,2.63.491,3.555,1.472s1.387,2.235,1.387,3.763c0,1.52-.453,2.859-1.358,4.02-.906,1.161-2.314,1.741-4.223,1.741-2.052,0-3.564-.857-4.537-2.571-.757-1.341-1.135-3.07-1.135-5.189,0-1.242.053-2.253.157-3.031.188-1.386.55-2.539,1.089-3.459.465-.787,1.073-1.419,1.825-1.898.753-.479,1.653-.719,2.701-.719,1.513,0,2.718.388,3.616,1.162.898.775,1.404,1.807,1.516,3.094h-3.189c0-.262-.101-.55-.303-.864-.345-.509-.865-.764-1.561-.764-1.041,0-1.782.584-2.225,1.752-.239.644-.404,1.595-.494,2.853.397-.472.857-.816,1.382-1.033s1.123-.326,1.797-.326ZM1615.886,187.112c-.629.487-.943,1.273-.943,2.359,0,.875.235,1.591.708,2.145.471.554,1.07.831,1.797.831.711,0,1.271-.268,1.679-.803s.612-1.229.612-2.083c0-.951-.232-1.68-.697-2.185-.464-.506-1.033-.759-1.707-.759-.546,0-1.029.165-1.448.494Z"/><path class="cls-9" d="M1777.247,326.319h-3.515v5.952h-3.438v-16.554h7.211c1.662,0,2.986.427,3.975,1.28s1.482,2.175,1.482,3.965c0,1.953-.494,3.335-1.482,4.144s-2.399,1.213-4.233,1.213ZM1778.865,322.87c.449-.396.674-1.025.674-1.887s-.227-1.475-.68-1.842c-.453-.366-1.087-.55-1.903-.55h-3.223v4.874h3.223c.816,0,1.452-.198,1.909-.596Z"/><path class="cls-9" d="M1785.76,321.355c.846-1.078,2.299-1.617,4.357-1.617,1.34,0,2.53.266,3.571.797,1.041.532,1.561,1.535,1.561,3.01v5.615c0,.39.008.861.023,1.416.021.419.086.703.19.854.104.149.262.272.472.37v.472h-3.481c-.098-.247-.165-.479-.202-.696s-.067-.464-.09-.741c-.441.479-.951.887-1.527,1.225-.688.396-1.468.595-2.336.595-1.108,0-2.023-.316-2.746-.949s-1.084-1.529-1.084-2.689c0-1.505.581-2.595,1.741-3.269.637-.366,1.572-.629,2.808-.785l1.09-.135c.591-.075,1.014-.169,1.269-.281.457-.194.685-.498.685-.91,0-.501-.174-.848-.521-1.038-.349-.191-.859-.286-1.533-.286-.756,0-1.291.187-1.605.561-.225.277-.375.652-.449,1.123h-3.089c.067-1.07.367-1.95.898-2.639ZM1788.141,329.957c.3.247.666.37,1.101.37.688,0,1.323-.201,1.903-.605s.882-1.143.904-2.213v-1.19c-.202.127-.406.23-.612.309-.206.079-.488.151-.848.22l-.719.135c-.674.119-1.156.266-1.449.438-.494.292-.74.745-.74,1.359,0,.546.153.939.46,1.179Z"/><path class="cls-9" d="M1804.245,322.984c-1.288,0-2.153.419-2.595,1.258-.247.471-.37,1.197-.37,2.178v5.852h-3.224v-12.241h3.055v2.134c.494-.816.925-1.374,1.292-1.674.599-.501,1.377-.752,2.336-.752.06,0,.11.002.151.006s.133.009.274.017v3.279c-.201-.022-.381-.037-.539-.045-.156-.008-.284-.011-.381-.011Z"/><path class="cls-9" d="M1812.646,329.991v2.392l-1.516.056c-1.513.053-2.546-.209-3.1-.785-.359-.367-.539-.933-.539-1.696v-7.536h-1.707v-2.279h1.707v-3.414h3.166v3.414h1.988v2.279h-1.988v6.469c0,.502.064.814.191.938.127.123.517.185,1.168.185.098,0,.2,0,.309-.005s.216-.01.32-.017Z"/><path class="cls-9" d="M1820.462,322.4c-1.086,0-1.831.46-2.235,1.381-.209.486-.314,1.108-.314,1.864v6.626h-3.189v-12.219h3.089v1.785c.412-.629.801-1.081,1.168-1.358.659-.494,1.493-.741,2.505-.741,1.265,0,2.3.331,3.104.994.805.662,1.208,1.761,1.208,3.296v8.243h-3.279v-7.445c0-.645-.087-1.139-.259-1.482-.314-.629-.913-.943-1.797-.943Z"/><path class="cls-9" d="M1839.229,328.677c-.082.727-.46,1.464-1.134,2.213-1.049,1.189-2.516,1.785-4.402,1.785-1.558,0-2.932-.502-4.122-1.505s-1.786-2.636-1.786-4.896c0-2.119.538-3.743,1.612-4.874s2.469-1.695,4.183-1.695c1.019,0,1.936.19,2.752.572s1.49.984,2.021,1.809c.479.726.79,1.568.932,2.526.083.562.116,1.37.102,2.426h-8.378c.045,1.228.431,2.089,1.157,2.583.441.307.973.461,1.594.461.659,0,1.194-.188,1.606-.562.225-.201.423-.482.595-.842h3.269ZM1836.062,324.926c-.053-.846-.309-1.488-.77-1.926-.46-.438-1.031-.657-1.713-.657-.74,0-1.315.232-1.724.696s-.664,1.093-.769,1.887h4.975Z"/><path class="cls-9" d="M1847.697,322.984c-1.288,0-2.153.419-2.595,1.258-.247.471-.37,1.197-.37,2.178v5.852h-3.224v-12.241h3.055v2.134c.494-.816.925-1.374,1.292-1.674.599-.501,1.377-.752,2.336-.752.06,0,.11.002.151.006s.133.009.274.017v3.279c-.201-.022-.381-.037-.539-.045-.156-.008-.284-.011-.381-.011Z"/><path class="cls-9" d="M1784.934,348.779h-3.571v6.491h-3.381v-16.554h8.12c1.16.022,2.054.165,2.679.427s1.154.647,1.589,1.156c.359.42.644.884.854,1.393.21.51.314,1.09.314,1.741,0,.786-.198,1.56-.595,2.319-.397.76-1.053,1.297-1.966,1.611.764.307,1.305.743,1.623,1.309s.478,1.428.478,2.588v1.112c0,.756.029,1.269.09,1.538.09.428.299.742.629.943v.416h-3.808c-.104-.367-.18-.662-.225-.887-.09-.465-.139-.94-.146-1.427l-.023-1.538c-.015-1.057-.207-1.76-.578-2.111-.37-.353-1.064-.528-2.083-.528ZM1787.035,345.77c.688-.314,1.033-.936,1.033-1.864,0-1.003-.334-1.677-1-2.021-.374-.194-.936-.292-1.685-.292h-4.021v4.447h3.92c.778,0,1.362-.09,1.752-.27Z"/><path class="cls-9" d="M1804.463,344.579c1.033,1.295,1.55,2.826,1.55,4.594,0,1.797-.517,3.333-1.55,4.609s-2.602,1.915-4.706,1.915-3.672-.639-4.705-1.915-1.55-2.812-1.55-4.609c0-1.768.517-3.299,1.55-4.594s2.602-1.943,4.705-1.943,3.673.648,4.706,1.943ZM1799.746,345.343c-.936,0-1.656.331-2.162.994-.505.662-.758,1.607-.758,2.836s.253,2.175.758,2.841c.506.666,1.227.999,2.162.999s1.654-.333,2.156-.999.753-1.613.753-2.841-.251-2.174-.753-2.836c-.502-.663-1.221-.994-2.156-.994Z"/><path class="cls-9" d="M1818.513,344.579c1.033,1.295,1.55,2.826,1.55,4.594,0,1.797-.517,3.333-1.55,4.609s-2.602,1.915-4.706,1.915-3.672-.639-4.705-1.915-1.55-2.812-1.55-4.609c0-1.768.517-3.299,1.55-4.594s2.602-1.943,4.705-1.943,3.673.648,4.706,1.943ZM1813.796,345.343c-.936,0-1.656.331-2.162.994-.505.662-.758,1.607-.758,2.836s.253,2.175.758,2.841c.506.666,1.227.999,2.162.999s1.654-.333,2.156-.999.753-1.613.753-2.841-.251-2.174-.753-2.836c-.502-.663-1.221-.994-2.156-.994Z"/><path class="cls-9" d="M1829.228,346.399c-.27-.592-.798-.888-1.584-.888-.913,0-1.527.296-1.842.888-.172.337-.258.839-.258,1.505v7.367h-3.246v-12.219h3.111v1.785c.396-.636.771-1.089,1.123-1.358.621-.479,1.426-.719,2.414-.719.936,0,1.692.206,2.269.618.464.381.816.872,1.056,1.471.419-.719.939-1.246,1.561-1.584.659-.336,1.393-.505,2.201-.505.539,0,1.071.104,1.596.314.523.21.999.576,1.426,1.101.345.427.576.951.696,1.572.075.412.112,1.015.112,1.809l-.022,7.715h-3.279v-7.794c0-.464-.075-.846-.225-1.146-.284-.569-.809-.854-1.572-.854-.884,0-1.493.367-1.831,1.101-.172.39-.258.857-.258,1.403v7.289h-3.223v-7.289c0-.726-.075-1.254-.225-1.583Z"/><path class="cls-9" d="M1812.466,367.22c-.854,1.213-1.568,2.463-2.146,3.751-.456,1.011-.868,2.246-1.234,3.706-.367,1.46-.551,2.658-.551,3.594h-3.324c.098-2.92,1.056-5.956,2.875-9.107,1.176-1.955,2.16-3.317,2.953-4.088h-8.119l.045-2.875h11.5v2.504c-.479.472-1.146,1.311-1.999,2.516Z"/><path class="cls-9" d="M1782.766,871.048h-3.515v5.952h-3.438v-16.554h7.211c1.662,0,2.986.427,3.975,1.28s1.482,2.175,1.482,3.965c0,1.953-.494,3.335-1.482,4.144s-2.399,1.213-4.233,1.213ZM1784.383,867.6c.449-.396.674-1.025.674-1.887s-.227-1.475-.68-1.842c-.453-.366-1.087-.55-1.903-.55h-3.223v4.874h3.223c.816,0,1.452-.198,1.909-.596Z"/><path class="cls-9" d="M1791.279,866.084c.846-1.078,2.299-1.617,4.357-1.617,1.34,0,2.53.266,3.571.797,1.041.532,1.561,1.535,1.561,3.01v5.615c0,.39.008.861.023,1.416.021.419.086.703.19.854.104.149.262.272.472.37v.472h-3.481c-.098-.247-.165-.479-.202-.696s-.067-.464-.09-.741c-.441.479-.951.887-1.527,1.225-.688.396-1.468.595-2.336.595-1.108,0-2.023-.316-2.746-.949s-1.084-1.529-1.084-2.689c0-1.505.581-2.595,1.741-3.269.637-.366,1.572-.629,2.808-.785l1.09-.135c.591-.075,1.014-.169,1.269-.281.457-.194.685-.498.685-.91,0-.501-.174-.848-.521-1.038-.349-.191-.859-.286-1.533-.286-.756,0-1.291.187-1.605.561-.225.277-.375.652-.449,1.123h-3.089c.067-1.07.367-1.95.898-2.639ZM1793.66,874.687c.3.247.666.37,1.101.37.688,0,1.323-.201,1.903-.605s.882-1.143.904-2.213v-1.19c-.202.127-.406.23-.612.309-.206.079-.488.151-.848.22l-.719.135c-.674.119-1.156.266-1.449.438-.494.292-.74.745-.74,1.359,0,.546.153.939.46,1.179Z"/><path class="cls-9" d="M1809.764,867.713c-1.288,0-2.153.419-2.595,1.258-.247.471-.37,1.197-.37,2.178v5.852h-3.224v-12.241h3.055v2.134c.494-.816.925-1.374,1.292-1.674.599-.501,1.377-.752,2.336-.752.06,0,.11.002.151.006s.133.009.274.017v3.279c-.201-.022-.381-.037-.539-.045-.156-.008-.284-.011-.381-.011Z"/><path class="cls-9" d="M1818.164,874.721v2.392l-1.516.056c-1.513.053-2.546-.209-3.1-.785-.359-.367-.539-.933-.539-1.696v-7.536h-1.707v-2.279h1.707v-3.414h3.166v3.414h1.988v2.279h-1.988v6.469c0,.502.064.814.191.938.127.123.517.185,1.168.185.098,0,.2,0,.309-.005s.216-.01.32-.017Z"/><path class="cls-9" d="M1825.981,867.129c-1.086,0-1.831.46-2.235,1.381-.209.486-.314,1.108-.314,1.864v6.626h-3.189v-12.219h3.089v1.785c.412-.629.801-1.081,1.168-1.358.659-.494,1.493-.741,2.505-.741,1.265,0,2.3.331,3.104.994.805.662,1.208,1.761,1.208,3.296v8.243h-3.279v-7.445c0-.645-.087-1.139-.259-1.482-.314-.629-.913-.943-1.797-.943Z"/><path class="cls-9" d="M1844.747,873.406c-.082.727-.46,1.464-1.134,2.213-1.049,1.189-2.516,1.785-4.402,1.785-1.558,0-2.932-.502-4.122-1.505s-1.786-2.636-1.786-4.896c0-2.119.538-3.743,1.612-4.874s2.469-1.695,4.183-1.695c1.019,0,1.936.19,2.752.572s1.49.984,2.021,1.809c.479.726.79,1.568.932,2.526.083.562.116,1.37.102,2.426h-8.378c.045,1.228.431,2.089,1.157,2.583.441.307.973.461,1.594.461.659,0,1.194-.188,1.606-.562.225-.201.423-.482.595-.842h3.269ZM1841.58,869.655c-.053-.846-.309-1.488-.77-1.926-.46-.438-1.031-.657-1.713-.657-.74,0-1.315.232-1.724.696s-.664,1.093-.769,1.887h4.975Z"/><path class="cls-9" d="M1853.215,867.713c-1.288,0-2.153.419-2.595,1.258-.247.471-.37,1.197-.37,2.178v5.852h-3.224v-12.241h3.055v2.134c.494-.816.925-1.374,1.292-1.674.599-.501,1.377-.752,2.336-.752.06,0,.11.002.151.006s.133.009.274.017v3.279c-.201-.022-.381-.037-.539-.045-.156-.008-.284-.011-.381-.011Z"/><path class="cls-9" d="M1790.453,893.509h-3.571v6.491h-3.381v-16.554h8.12c1.16.022,2.054.165,2.679.427s1.154.647,1.589,1.156c.359.42.644.884.854,1.393.21.51.314,1.09.314,1.741,0,.786-.198,1.56-.595,2.319-.397.76-1.053,1.297-1.966,1.611.764.307,1.305.743,1.623,1.309s.478,1.428.478,2.588v1.112c0,.756.029,1.269.09,1.538.09.428.299.742.629.943v.416h-3.808c-.104-.367-.18-.662-.225-.887-.09-.465-.139-.94-.146-1.427l-.023-1.538c-.015-1.057-.207-1.76-.578-2.111-.37-.353-1.064-.528-2.083-.528ZM1792.553,890.499c.688-.314,1.033-.936,1.033-1.864,0-1.003-.334-1.677-1-2.021-.374-.194-.936-.292-1.685-.292h-4.021v4.447h3.92c.778,0,1.362-.09,1.752-.27Z"/><path class="cls-9" d="M1809.982,889.309c1.033,1.295,1.55,2.826,1.55,4.594,0,1.797-.517,3.333-1.55,4.609s-2.602,1.915-4.706,1.915-3.672-.639-4.705-1.915-1.55-2.812-1.55-4.609c0-1.768.517-3.299,1.55-4.594s2.602-1.943,4.705-1.943,3.673.648,4.706,1.943ZM1805.265,890.072c-.936,0-1.656.331-2.162.994-.505.662-.758,1.607-.758,2.836s.253,2.175.758,2.841c.506.666,1.227.999,2.162.999s1.654-.333,2.156-.999.753-1.613.753-2.841-.251-2.174-.753-2.836c-.502-.663-1.221-.994-2.156-.994Z"/><path class="cls-9" d="M1824.032,889.309c1.033,1.295,1.55,2.826,1.55,4.594,0,1.797-.517,3.333-1.55,4.609s-2.602,1.915-4.706,1.915-3.672-.639-4.705-1.915-1.55-2.812-1.55-4.609c0-1.768.517-3.299,1.55-4.594s2.602-1.943,4.705-1.943,3.673.648,4.706,1.943ZM1819.315,890.072c-.936,0-1.656.331-2.162.994-.505.662-.758,1.607-.758,2.836s.253,2.175.758,2.841c.506.666,1.227.999,2.162.999s1.654-.333,2.156-.999.753-1.613.753-2.841-.251-2.174-.753-2.836c-.502-.663-1.221-.994-2.156-.994Z"/><path class="cls-9" d="M1834.746,891.128c-.27-.592-.798-.888-1.584-.888-.913,0-1.527.296-1.842.888-.172.337-.258.839-.258,1.505v7.367h-3.246v-12.219h3.111v1.785c.396-.636.771-1.089,1.123-1.358.621-.479,1.426-.719,2.414-.719.936,0,1.692.206,2.269.618.464.381.816.872,1.056,1.471.419-.719.939-1.246,1.561-1.584.659-.336,1.393-.505,2.201-.505.539,0,1.071.104,1.596.314.523.21.999.576,1.426,1.101.345.427.576.951.696,1.572.075.412.112,1.015.112,1.809l-.022,7.715h-3.279v-7.794c0-.464-.075-.846-.225-1.146-.284-.569-.809-.854-1.572-.854-.884,0-1.493.367-1.831,1.101-.172.39-.258.857-.258,1.403v7.289h-3.223v-7.289c0-.726-.075-1.254-.225-1.583Z"/><path class="cls-9" d="M1809.865,921.979c-.936-.959-1.403-2.123-1.403-3.493,0-.913.208-1.741.623-2.481.416-.742,1.024-1.3,1.825-1.674-.786-.524-1.297-1.091-1.533-1.701-.235-.61-.354-1.182-.354-1.713,0-1.183.445-2.191,1.336-3.026.892-.835,2.149-1.253,3.773-1.253s2.883.418,3.773,1.253c.892.835,1.337,1.844,1.337,3.026,0,.531-.118,1.103-.354,1.713-.236.61-.747,1.14-1.533,1.589.801.449,1.403,1.044,1.808,1.786.404.74.607,1.568.607,2.481,0,1.37-.508,2.536-1.522,3.498s-2.431,1.443-4.251,1.443-3.196-.483-4.133-1.448ZM1811.786,918.272c0,.802.208,1.423.623,1.865.416.441.99.662,1.724.662s1.309-.221,1.725-.662c.415-.442.623-1.063.623-1.865,0-.83-.212-1.461-.635-1.892s-.994-.646-1.713-.646-1.289.215-1.712.646-.635,1.062-.635,1.892ZM1812.628,912.725c.359.374.86.561,1.504.561.652,0,1.155-.187,1.511-.561.355-.375.534-.857.534-1.449,0-.644-.179-1.147-.534-1.511s-.858-.544-1.511-.544c-.644,0-1.146.181-1.51.544s-.545.867-.545,1.511c0,.592.184,1.074.551,1.449Z"/></g><g id="Texts"><path class="cls-4" d="M1504.421,780.689h3.325c.548,0,.999.082,1.354.244.675.312,1.013.888,1.013,1.728,0,.438-.091.797-.271,1.076s-.435.503-.76.672c.286.116.501.269.646.458.145.189.225.497.241.921l.035.981c.01.279.033.486.069.622.06.232.166.382.318.448v.165h-1.215c-.033-.063-.06-.145-.079-.244-.021-.1-.037-.292-.05-.578l-.061-1.22c-.022-.478-.194-.798-.518-.961-.184-.09-.473-.135-.866-.135h-2.191v3.138h-.991v-7.316ZM1507.64,784.041c.452,0,.81-.093,1.073-.279.263-.186.395-.521.395-1.006,0-.521-.185-.876-.553-1.066-.196-.1-.46-.149-.789-.149h-2.354v2.5h2.228Z"/><path class="cls-4" d="M1512.245,786.277c.026.495.218.836.573,1.026.183.1.388.149.617.149.429,0,.793-.179,1.096-.536.302-.356.516-1.081.643-2.173-.199.315-.446.537-.74.665-.293.128-.609.192-.948.192-.688,0-1.231-.214-1.631-.642-.4-.428-.601-.978-.601-1.651,0-.647.198-1.216.593-1.707.396-.491.978-.736,1.748-.736,1.039,0,1.757.468,2.151,1.403.22.515.329,1.158.329,1.931,0,.873-.132,1.646-.394,2.319-.436,1.122-1.172,1.682-2.211,1.682-.697,0-1.228-.183-1.589-.548-.362-.365-.543-.823-.543-1.375h.906ZM1514.578,784.462c.294-.233.441-.642.441-1.226,0-.523-.132-.914-.396-1.171-.264-.257-.6-.385-1.008-.385-.438,0-.786.146-1.044.44-.257.293-.386.686-.386,1.176,0,.464.112.833.339,1.106.226.273.586.41,1.08.41.355,0,.68-.117.974-.351Z"/><path class="cls-4" d="M1517.434,786.92h1.041v1.085h-1.041v-1.085Z"/><path class="cls-4" d="M1524.158,782.014c.319.588.479,1.393.479,2.416,0,.969-.145,1.771-.434,2.405-.418.91-1.103,1.365-2.052,1.365-.856,0-1.494-.372-1.912-1.116-.349-.621-.523-1.454-.523-2.5,0-.81.104-1.506.314-2.087.392-1.082,1.101-1.624,2.126-1.624.923,0,1.591.38,2.002,1.141ZM1523.256,786.765c.275-.412.414-1.178.414-2.301,0-.81-.101-1.477-.3-2s-.587-.784-1.162-.784c-.529,0-.916.248-1.16.745-.244.496-.366,1.228-.366,2.193,0,.728.078,1.312.234,1.753.239.674.648,1.011,1.227,1.011.466,0,.837-.206,1.113-.618Z"/><path class="cls-4" d="M1377.636,873.338h3.325c.548,0,.999.082,1.354.244.675.312,1.013.889,1.013,1.729,0,.438-.091.797-.271,1.075-.181.279-.435.503-.76.673.286.116.501.269.646.458s.225.496.241.921l.035.981c.01.279.033.486.069.622.06.232.166.382.318.448v.165h-1.215c-.033-.063-.06-.145-.079-.244-.021-.1-.037-.292-.05-.578l-.061-1.22c-.022-.479-.194-.799-.518-.961-.184-.09-.473-.135-.866-.135h-2.191v3.138h-.991v-7.316ZM1380.855,876.69c.452,0,.81-.093,1.073-.278.263-.187.395-.521.395-1.006,0-.521-.185-.877-.553-1.066-.196-.1-.46-.149-.789-.149h-2.354v2.5h2.228Z"/><path class="cls-4" d="M1388.754,874.112c.313.414.47.84.47,1.277h-.886c-.054-.282-.138-.503-.254-.662-.216-.299-.543-.448-.981-.448-.501,0-.899.231-1.195.695-.296.463-.46,1.126-.493,1.989.206-.302.465-.528.777-.678.285-.133.604-.199.956-.199.598,0,1.119.191,1.563.573.445.382.668.951.668,1.708,0,.647-.211,1.221-.633,1.721s-1.022.749-1.803.749c-.668,0-1.243-.253-1.729-.759-.484-.507-.727-1.359-.727-2.558,0-.887.107-1.639.323-2.256.415-1.182,1.174-1.773,2.276-1.773.797,0,1.352.207,1.666.62ZM1388.081,879.566c.234-.316.352-.691.352-1.123,0-.364-.104-.713-.314-1.043-.209-.33-.589-.495-1.14-.495-.386,0-.724.128-1.014.383-.291.256-.436.642-.436,1.155,0,.452.132.831.396,1.139.264.307.63.46,1.098.46.472,0,.824-.158,1.059-.476Z"/><path class="cls-4" d="M1390.649,879.569h1.041v1.086h-1.041v-1.086Z"/><path class="cls-4" d="M1397.372,874.663c.319.588.479,1.393.479,2.415,0,.97-.145,1.771-.434,2.405-.418.91-1.103,1.365-2.052,1.365-.856,0-1.494-.372-1.912-1.116-.349-.62-.523-1.454-.523-2.5,0-.81.104-1.506.314-2.087.392-1.082,1.101-1.623,2.126-1.623.923,0,1.591.38,2.002,1.141ZM1396.471,879.414c.275-.412.414-1.179.414-2.301,0-.811-.101-1.477-.3-2-.199-.522-.587-.784-1.162-.784-.529,0-.916.248-1.16.745-.244.496-.366,1.228-.366,2.193,0,.728.078,1.312.234,1.753.239.674.648,1.011,1.227,1.011.466,0,.837-.205,1.113-.617Z"/><path class="cls-4" d="M1491.71,883.937h3.325c.548,0,.999.081,1.354.244.675.312,1.013.888,1.013,1.728,0,.438-.091.797-.271,1.076-.181.278-.435.503-.76.672.286.116.501.27.646.458.145.189.225.497.241.922l.035.981c.01.278.033.486.069.622.06.232.166.382.318.448v.164h-1.215c-.033-.062-.06-.145-.079-.244-.021-.1-.037-.292-.05-.577l-.061-1.221c-.022-.478-.194-.798-.518-.961-.184-.09-.473-.135-.866-.135h-2.191v3.138h-.991v-7.315ZM1494.929,887.288c.452,0,.81-.093,1.073-.279.263-.186.395-.521.395-1.006,0-.521-.185-.876-.553-1.065-.196-.1-.46-.149-.789-.149h-2.354v2.5h2.228Z"/><path class="cls-4" d="M1501.566,891.252v-1.743h-3.128v-.876l3.268-4.532h.757v4.627h1.051v.781h-1.051v1.743h-.896ZM1501.55,888.728v-3.239l-2.285,3.239h2.285Z"/><path class="cls-4" d="M1504.723,890.167h1.041v1.085h-1.041v-1.085Z"/><path class="cls-4" d="M1511.447,885.261c.319.588.479,1.394.479,2.416,0,.969-.145,1.771-.434,2.405-.418.909-1.103,1.364-2.052,1.364-.856,0-1.494-.372-1.912-1.115-.349-.621-.523-1.454-.523-2.5,0-.811.104-1.506.314-2.087.392-1.082,1.101-1.624,2.126-1.624.923,0,1.591.381,2.002,1.141ZM1510.545,890.012c.275-.411.414-1.178.414-2.301,0-.81-.101-1.477-.3-1.999-.199-.523-.587-.784-1.162-.784-.529,0-.916.248-1.16.744s-.366,1.228-.366,2.193c0,.728.078,1.312.234,1.754.239.674.648,1.011,1.227,1.011.466,0,.837-.206,1.113-.618Z"/><path class="cls-4" d="M1325.459,964.907h3.325c.548,0,.999.081,1.354.244.675.312,1.013.888,1.013,1.728,0,.438-.091.797-.271,1.076-.181.278-.435.503-.76.672.286.116.501.27.646.458.145.189.225.497.241.922l.035.981c.01.278.033.486.069.622.06.232.166.382.318.448v.164h-1.215c-.033-.062-.06-.145-.079-.244-.021-.1-.037-.292-.05-.577l-.061-1.221c-.022-.478-.194-.798-.518-.961-.184-.09-.473-.135-.866-.135h-2.191v3.138h-.991v-7.315ZM1328.678,968.259c.452,0,.81-.093,1.073-.279.263-.186.395-.521.395-1.006,0-.521-.185-.876-.553-1.065-.196-.1-.46-.149-.789-.149h-2.354v2.5h2.228Z"/><path class="cls-4" d="M1333.188,970.405c.06.511.297.865.712,1.061.213.1.459.149.737.149.531,0,.925-.169,1.181-.508s.384-.714.384-1.126c0-.498-.152-.883-.456-1.155-.304-.271-.668-.408-1.093-.408-.31,0-.574.06-.795.18-.221.119-.409.285-.565.498l-.776-.045.543-3.84h3.705v.866h-3.033l-.304,1.982c.166-.126.323-.221.473-.284.266-.109.573-.164.922-.164.654,0,1.208.211,1.663.633.455.421.683.956.683,1.604,0,.674-.209,1.268-.625,1.782-.417.515-1.082.772-1.995.772-.581,0-1.095-.164-1.541-.49-.446-.327-.696-.83-.749-1.507h.931Z"/><path class="cls-4" d="M1338.472,971.138h1.041v1.085h-1.041v-1.085Z"/><path class="cls-4" d="M1345.196,966.232c.319.588.479,1.394.479,2.416,0,.969-.145,1.771-.434,2.405-.418.909-1.103,1.364-2.052,1.364-.856,0-1.494-.372-1.912-1.115-.349-.621-.523-1.454-.523-2.5,0-.811.104-1.506.314-2.087.392-1.082,1.101-1.624,2.126-1.624.923,0,1.591.381,2.002,1.141ZM1344.294,970.983c.275-.411.414-1.178.414-2.301,0-.81-.101-1.477-.3-1.999-.199-.523-.587-.784-1.162-.784-.529,0-.916.248-1.16.744s-.366,1.228-.366,2.193c0,.728.078,1.312.234,1.754.239.674.648,1.011,1.227,1.011.466,0,.837-.206,1.113-.618Z"/><path class="cls-4" d="M1501.585,666.276h3.325c.548,0,.999.082,1.354.244.675.312,1.013.888,1.013,1.728,0,.438-.091.797-.271,1.076s-.435.503-.76.672c.286.116.501.269.646.458.145.189.225.497.241.921l.035.981c.01.279.033.486.069.622.06.232.166.382.318.448v.165h-1.215c-.033-.063-.06-.145-.079-.244-.021-.1-.037-.292-.05-.578l-.061-1.22c-.022-.478-.194-.798-.518-.961-.184-.09-.473-.135-.866-.135h-2.191v3.138h-.991v-7.316ZM1504.804,669.628c.452,0,.81-.093,1.073-.279.263-.186.395-.521.395-1.006,0-.521-.185-.876-.553-1.066-.196-.1-.46-.149-.789-.149h-2.354v2.5h2.228Z"/><path class="cls-4" d="M1509.031,668.542v-.688c.647-.063,1.099-.168,1.354-.316.255-.148.446-.498.572-1.048h.707v7.102h-.956v-5.05h-1.678Z"/><path class="cls-4" d="M1518.488,667.601c.319.588.479,1.393.479,2.416,0,.969-.145,1.771-.434,2.405-.418.91-1.103,1.365-2.052,1.365-.856,0-1.494-.372-1.912-1.116-.349-.621-.523-1.454-.523-2.5,0-.81.104-1.506.314-2.087.392-1.082,1.101-1.624,2.126-1.624.923,0,1.591.38,2.002,1.141ZM1517.586,672.352c.275-.412.414-1.178.414-2.301,0-.81-.101-1.477-.3-2s-.587-.784-1.162-.784c-.529,0-.916.248-1.16.745-.244.496-.366,1.228-.366,2.193,0,.728.078,1.312.234,1.753.239.674.648,1.011,1.227,1.011.466,0,.837-.206,1.113-.618Z"/><path class="cls-4" d="M1520.271,672.507h1.041v1.085h-1.041v-1.085Z"/><path class="cls-4" d="M1526.994,667.601c.319.588.479,1.393.479,2.416,0,.969-.145,1.771-.434,2.405-.418.91-1.103,1.365-2.052,1.365-.856,0-1.494-.372-1.912-1.116-.349-.621-.523-1.454-.523-2.5,0-.81.104-1.506.314-2.087.392-1.082,1.101-1.624,2.126-1.624.923,0,1.591.38,2.002,1.141ZM1526.092,672.352c.275-.412.414-1.178.414-2.301,0-.81-.101-1.477-.3-2s-.587-.784-1.162-.784c-.529,0-.916.248-1.16.745-.244.496-.366,1.228-.366,2.193,0,.728.078,1.312.234,1.753.239.674.648,1.011,1.227,1.011.466,0,.837-.206,1.113-.618Z"/><path class="cls-4" d="M1501.961,562.559h3.325c.548,0,.999.082,1.354.244.675.312,1.013.888,1.013,1.728,0,.438-.091.797-.271,1.076s-.435.503-.76.672c.286.116.501.269.646.458.145.189.225.497.241.921l.035.981c.01.279.033.486.069.622.06.232.166.382.318.448v.165h-1.215c-.033-.063-.06-.145-.079-.244-.021-.1-.037-.292-.05-.578l-.061-1.22c-.022-.478-.194-.798-.518-.961-.184-.09-.473-.135-.866-.135h-2.191v3.138h-.991v-7.316ZM1505.18,565.91c.452,0,.81-.093,1.073-.279.263-.186.395-.521.395-1.006,0-.521-.185-.876-.553-1.066-.196-.1-.46-.149-.789-.149h-2.354v2.5h2.228Z"/><path class="cls-4" d="M1509.407,564.825v-.688c.647-.063,1.099-.168,1.354-.316.255-.148.446-.498.572-1.048h.707v7.102h-.956v-5.05h-1.678Z"/><path class="cls-4" d="M1514.328,564.825v-.688c.647-.063,1.099-.168,1.354-.316.255-.148.446-.498.572-1.048h.707v7.102h-.956v-5.05h-1.678Z"/><path class="cls-4" d="M1519.895,568.789h1.041v1.085h-1.041v-1.085Z"/><path class="cls-4" d="M1526.618,563.883c.319.588.479,1.393.479,2.416,0,.969-.145,1.771-.434,2.405-.418.91-1.103,1.365-2.052,1.365-.856,0-1.494-.372-1.912-1.116-.349-.621-.523-1.454-.523-2.5,0-.81.104-1.506.314-2.087.392-1.082,1.101-1.624,2.126-1.624.923,0,1.591.38,2.002,1.141ZM1525.716,568.634c.275-.412.414-1.178.414-2.301,0-.81-.101-1.477-.3-2s-.587-.784-1.162-.784c-.529,0-.916.248-1.16.745-.244.496-.366,1.228-.366,2.193,0,.728.078,1.312.234,1.753.239.674.648,1.011,1.227,1.011.466,0,.837-.206,1.113-.618Z"/><path class="cls-4" d="M1545.96,474.183h3.325c.548,0,.999.082,1.354.244.675.312,1.013.888,1.013,1.728,0,.438-.091.797-.271,1.076s-.435.503-.76.672c.286.116.501.269.646.458.145.189.225.497.241.921l.035.981c.01.279.033.486.069.622.06.232.166.382.318.448v.165h-1.215c-.033-.063-.06-.145-.079-.244-.021-.1-.037-.292-.05-.578l-.061-1.22c-.022-.478-.194-.798-.518-.961-.184-.09-.473-.135-.866-.135h-2.191v3.138h-.991v-7.316ZM1549.179,477.535c.452,0,.81-.093,1.073-.279.263-.186.395-.521.395-1.006,0-.521-.185-.876-.553-1.066-.196-.1-.46-.149-.789-.149h-2.354v2.5h2.228Z"/><path class="cls-4" d="M1553.406,476.449v-.688c.647-.063,1.099-.168,1.354-.316.255-.148.446-.498.572-1.048h.707v7.102h-.956v-5.05h-1.678Z"/><path class="cls-4" d="M1558.802,479.896c.221-.455.651-.868,1.292-1.24l.956-.553c.429-.249.729-.462.901-.638.272-.276.408-.592.408-.948,0-.416-.124-.746-.373-.991-.249-.244-.581-.367-.996-.367-.614,0-1.039.233-1.275.699-.126.25-.195.596-.209,1.039h-.911c.01-.621.124-1.127.344-1.519.389-.69,1.074-1.036,2.057-1.036.816,0,1.413.221,1.79.663s.565.933.565,1.474c0,.571-.201,1.059-.603,1.464-.232.236-.649.521-1.25.856l-.683.378c-.325.179-.581.351-.767.513-.332.289-.541.609-.628.961h3.895v.847h-4.896c.033-.614.16-1.149.382-1.604Z"/><path class="cls-4" d="M1564.646,480.414h1.041v1.085h-1.041v-1.085Z"/><path class="cls-4" d="M1571.369,475.508c.319.588.479,1.393.479,2.416,0,.969-.145,1.771-.434,2.405-.418.91-1.103,1.365-2.052,1.365-.856,0-1.494-.372-1.912-1.116-.349-.621-.523-1.454-.523-2.5,0-.81.104-1.506.314-2.087.392-1.082,1.101-1.624,2.126-1.624.923,0,1.591.38,2.002,1.141ZM1570.467,480.259c.275-.412.414-1.178.414-2.301,0-.81-.101-1.477-.3-2s-.587-.784-1.162-.784c-.529,0-.916.248-1.16.745-.244.496-.366,1.228-.366,2.193,0,.728.078,1.312.234,1.753.239.674.648,1.011,1.227,1.011.466,0,.837-.206,1.113-.618Z"/><path class="cls-4" d="M655.472,575.82h3.325c.548,0,.999.082,1.354.244.675.312,1.013.888,1.013,1.728,0,.438-.091.797-.271,1.076s-.435.503-.76.672c.286.116.501.269.646.458.145.189.225.497.241.921l.035.981c.01.279.033.486.069.622.06.232.166.382.318.448v.165h-1.215c-.033-.063-.06-.145-.079-.244-.021-.1-.037-.292-.05-.578l-.061-1.22c-.022-.478-.194-.798-.518-.961-.184-.09-.473-.135-.866-.135h-2.191v3.138h-.991v-7.316ZM658.691,579.172c.452,0,.81-.093,1.073-.279.263-.186.395-.521.395-1.006,0-.521-.185-.876-.553-1.066-.196-.1-.46-.149-.789-.149h-2.354v2.5h2.228Z"/><path class="cls-4" d="M662.641,581.533c.221-.455.651-.868,1.292-1.24l.956-.553c.429-.249.729-.462.901-.638.272-.276.408-.592.408-.948,0-.416-.124-.746-.373-.991-.249-.244-.581-.367-.996-.367-.614,0-1.039.233-1.275.699-.126.25-.195.596-.209,1.039h-.911c.01-.621.124-1.127.344-1.519.389-.69,1.074-1.036,2.057-1.036.816,0,1.413.221,1.79.663s.565.933.565,1.474c0,.571-.201,1.059-.603,1.464-.232.236-.649.521-1.25.856l-.683.378c-.325.179-.581.351-.767.513-.332.289-.541.609-.628.961h3.895v.847h-4.896c.033-.614.16-1.149.382-1.604Z"/><path class="cls-4" d="M668.314,581.533c.221-.455.651-.868,1.292-1.24l.956-.553c.429-.249.729-.462.901-.638.272-.276.408-.592.408-.948,0-.416-.124-.746-.373-.991-.249-.244-.581-.367-.996-.367-.614,0-1.039.233-1.275.699-.126.25-.195.596-.209,1.039h-.911c.01-.621.124-1.127.344-1.519.389-.69,1.074-1.036,2.057-1.036.816,0,1.413.221,1.79.663s.565.933.565,1.474c0,.571-.201,1.059-.603,1.464-.232.236-.649.521-1.25.856l-.683.378c-.325.179-.581.351-.767.513-.332.289-.541.609-.628.961h3.895v.847h-4.896c.033-.614.16-1.149.382-1.604Z"/><path class="cls-4" d="M674.158,582.051h1.041v1.085h-1.041v-1.085Z"/><path class="cls-4" d="M680.88,577.145c.319.588.479,1.393.479,2.416,0,.969-.145,1.771-.434,2.405-.418.91-1.103,1.365-2.052,1.365-.856,0-1.494-.372-1.912-1.116-.349-.621-.523-1.454-.523-2.5,0-.81.104-1.506.314-2.087.392-1.082,1.101-1.624,2.126-1.624.923,0,1.591.38,2.002,1.141ZM679.979,581.896c.275-.412.414-1.178.414-2.301,0-.81-.101-1.477-.3-2s-.587-.784-1.162-.784c-.529,0-.916.248-1.16.745-.244.496-.366,1.228-.366,2.193,0,.728.078,1.312.234,1.753.239.674.648,1.011,1.227,1.011.466,0,.837-.206,1.113-.618Z"/><path class="cls-4" d="M1689.573,899.331h3.325c.548,0,.999.082,1.354.244.675.312,1.013.889,1.013,1.729,0,.438-.091.797-.271,1.075-.181.279-.435.503-.76.673.286.116.501.269.646.458s.225.496.241.921l.035.981c.01.279.033.486.069.622.06.232.166.382.318.448v.165h-1.215c-.033-.063-.06-.145-.079-.244-.021-.1-.037-.292-.05-.578l-.061-1.22c-.022-.479-.194-.799-.518-.961-.184-.09-.473-.135-.866-.135h-2.191v3.138h-.991v-7.316ZM1692.791,902.683c.452,0,.81-.093,1.073-.278.263-.187.395-.521.395-1.006,0-.521-.185-.877-.553-1.066-.196-.1-.46-.149-.789-.149h-2.354v2.5h2.228Z"/><path class="cls-4" d="M1701.375,899.635v.782c-.229.223-.534.609-.914,1.16-.38.552-.717,1.146-1.009,1.783-.288.621-.508,1.187-.657,1.698-.097.329-.221.858-.373,1.589h-.991c.226-1.361.724-2.716,1.494-4.064.454-.79.933-1.472,1.434-2.047h-3.944v-.901h4.961Z"/><path class="cls-4" d="M1702.585,905.562h1.041v1.086h-1.041v-1.086Z"/><path class="cls-4" d="M1709.309,900.656c.319.588.479,1.393.479,2.415,0,.97-.145,1.771-.434,2.405-.418.91-1.103,1.365-2.052,1.365-.856,0-1.494-.372-1.912-1.116-.349-.62-.523-1.454-.523-2.5,0-.81.104-1.506.314-2.087.392-1.082,1.101-1.623,2.126-1.623.923,0,1.591.38,2.002,1.141ZM1708.408,905.407c.275-.412.414-1.179.414-2.301,0-.811-.101-1.477-.3-2-.199-.522-.587-.784-1.162-.784-.529,0-.916.248-1.16.745-.244.496-.366,1.228-.366,2.193,0,.728.078,1.312.234,1.753.239.674.648,1.011,1.227,1.011.466,0,.837-.205,1.113-.617Z"/><path class="cls-4" d="M1192.477,356.756h3.325c.548,0,.999.082,1.354.244.675.312,1.013.888,1.013,1.728,0,.438-.091.797-.271,1.076s-.435.503-.76.672c.286.116.501.269.646.458.145.189.225.497.241.921l.035.981c.01.279.033.486.069.622.06.232.166.382.318.448v.165h-1.215c-.033-.063-.06-.145-.079-.244-.021-.1-.037-.292-.05-.578l-.061-1.22c-.022-.478-.194-.798-.518-.961-.184-.09-.473-.135-.866-.135h-2.191v3.138h-.991v-7.316ZM1195.696,360.107c.452,0,.81-.093,1.073-.279.263-.186.395-.521.395-1.006,0-.521-.185-.876-.553-1.066-.196-.1-.46-.149-.789-.149h-2.354v2.5h2.228Z"/><path class="cls-4" d="M1199.922,359.022v-.688c.647-.063,1.099-.168,1.354-.316.255-.148.446-.498.572-1.048h.707v7.102h-.956v-5.05h-1.678Z"/><path class="cls-4" d="M1209.953,357.059v.782c-.229.222-.534.609-.914,1.16s-.717,1.146-1.009,1.783c-.288.621-.508,1.187-.657,1.698-.097.329-.221.858-.373,1.589h-.991c.226-1.361.724-2.716,1.494-4.064.454-.79.933-1.472,1.434-2.047h-3.944v-.901h4.961Z"/><path class="cls-4" d="M1211.162,362.986h1.041v1.085h-1.041v-1.085Z"/><path class="cls-4" d="M1217.885,358.08c.319.588.479,1.393.479,2.416,0,.969-.145,1.771-.434,2.405-.418.91-1.103,1.365-2.052,1.365-.856,0-1.494-.372-1.912-1.116-.349-.621-.523-1.454-.523-2.5,0-.81.104-1.506.314-2.087.392-1.082,1.101-1.624,2.126-1.624.923,0,1.591.38,2.002,1.141ZM1216.984,362.831c.275-.412.414-1.178.414-2.301,0-.81-.101-1.477-.3-2s-.587-.784-1.162-.784c-.529,0-.916.248-1.16.745-.244.496-.366,1.228-.366,2.193,0,.728.078,1.312.234,1.753.239.674.648,1.011,1.227,1.011.466,0,.837-.206,1.113-.618Z"/><path class="cls-4" d="M1022.06,356.756h3.325c.548,0,.999.082,1.354.244.675.312,1.013.888,1.013,1.728,0,.438-.091.797-.271,1.076s-.435.503-.76.672c.286.116.501.269.646.458.145.189.225.497.241.921l.035.981c.01.279.033.486.069.622.06.232.166.382.318.448v.165h-1.215c-.033-.063-.06-.145-.079-.244-.021-.1-.037-.292-.05-.578l-.061-1.22c-.022-.478-.194-.798-.518-.961-.184-.09-.473-.135-.866-.135h-2.191v3.138h-.991v-7.316ZM1025.279,360.107c.452,0,.81-.093,1.073-.279.263-.186.395-.521.395-1.006,0-.521-.185-.876-.553-1.066-.196-.1-.46-.149-.789-.149h-2.354v2.5h2.228Z"/><path class="cls-4" d="M1029.505,359.022v-.688c.647-.063,1.099-.168,1.354-.316.255-.148.446-.498.572-1.048h.707v7.102h-.956v-5.05h-1.678Z"/><path class="cls-4" d="M1035.172,359.898c-.262-.266-.393-.611-.393-1.036,0-.531.191-.987.576-1.369s.931-.573,1.637-.573c.684,0,1.219.18,1.607.54.388.36.582.781.582,1.263,0,.445-.113.805-.339,1.081-.126.156-.321.309-.587.458.296.136.529.292.699.468.317.332.476.764.476,1.295,0,.627-.211,1.16-.633,1.596s-1.018.655-1.788.655c-.693,0-1.28-.188-1.761-.565-.479-.377-.719-.924-.719-1.641,0-.422.103-.786.309-1.093.205-.307.511-.542.916-.705-.249-.106-.443-.231-.583-.374ZM1038.064,363.123c.273-.224.411-.559.411-1.003,0-.461-.142-.812-.424-1.051-.282-.239-.645-.359-1.086-.359-.428,0-.777.122-1.048.366s-.406.582-.406,1.014c0,.372.124.693.371.963s.63.406,1.148.406c.415,0,.759-.112,1.033-.336ZM1037.898,359.596c.222-.221.333-.485.333-.791,0-.266-.106-.511-.318-.734-.212-.223-.535-.334-.97-.334-.431,0-.742.112-.934.334-.192.223-.289.484-.289.784,0,.336.125.599.373.789.249.19.542.285.88.285.395,0,.702-.11.925-.332Z"/><path class="cls-4" d="M1040.745,362.986h1.041v1.085h-1.041v-1.085Z"/><path class="cls-4" d="M1047.468,358.08c.319.588.479,1.393.479,2.416,0,.969-.145,1.771-.434,2.405-.418.91-1.103,1.365-2.052,1.365-.856,0-1.494-.372-1.912-1.116-.349-.621-.523-1.454-.523-2.5,0-.81.104-1.506.314-2.087.392-1.082,1.101-1.624,2.126-1.624.923,0,1.591.38,2.002,1.141ZM1046.567,362.831c.275-.412.414-1.178.414-2.301,0-.81-.101-1.477-.3-2s-.587-.784-1.162-.784c-.529,0-.916.248-1.16.745-.244.496-.366,1.228-.366,2.193,0,.728.078,1.312.234,1.753.239.674.648,1.011,1.227,1.011.466,0,.837-.206,1.113-.618Z"/><path class="cls-4" d="M836.533,356.756h3.325c.548,0,.999.082,1.354.244.675.312,1.013.888,1.013,1.728,0,.438-.091.797-.271,1.076s-.435.503-.76.672c.286.116.501.269.646.458.145.189.225.497.241.921l.035.981c.01.279.033.486.069.622.06.232.166.382.318.448v.165h-1.215c-.033-.063-.06-.145-.079-.244-.021-.1-.037-.292-.05-.578l-.061-1.22c-.022-.478-.194-.798-.518-.961-.184-.09-.473-.135-.866-.135h-2.191v3.138h-.991v-7.316ZM839.752,360.107c.452,0,.81-.093,1.073-.279.263-.186.395-.521.395-1.006,0-.521-.185-.876-.553-1.066-.196-.1-.46-.149-.789-.149h-2.354v2.5h2.228Z"/><path class="cls-4" d="M843.978,359.022v-.688c.647-.063,1.099-.168,1.354-.316.255-.148.446-.498.572-1.048h.707v7.102h-.956v-5.05h-1.678Z"/><path class="cls-4" d="M850.029,362.343c.026.495.218.836.573,1.026.183.1.388.149.617.149.429,0,.793-.179,1.096-.536.302-.356.516-1.081.643-2.173-.199.315-.446.537-.74.665-.293.128-.609.192-.948.192-.688,0-1.231-.214-1.631-.642-.4-.428-.601-.978-.601-1.651,0-.647.198-1.216.593-1.707.396-.491.978-.736,1.748-.736,1.039,0,1.757.468,2.151,1.403.22.515.329,1.158.329,1.931,0,.873-.132,1.646-.394,2.319-.436,1.122-1.172,1.682-2.211,1.682-.697,0-1.228-.183-1.589-.548-.362-.365-.543-.823-.543-1.375h.906ZM852.362,360.528c.294-.233.441-.642.441-1.226,0-.523-.132-.914-.396-1.171-.264-.257-.6-.385-1.008-.385-.438,0-.786.146-1.044.44-.257.293-.386.686-.386,1.176,0,.464.112.833.339,1.106.226.273.586.41,1.08.41.355,0,.68-.117.974-.351Z"/><path class="cls-4" d="M855.219,362.986h1.041v1.085h-1.041v-1.085Z"/><path class="cls-4" d="M861.941,358.08c.319.588.479,1.393.479,2.416,0,.969-.145,1.771-.434,2.405-.418.91-1.103,1.365-2.052,1.365-.856,0-1.494-.372-1.912-1.116-.349-.621-.523-1.454-.523-2.5,0-.81.104-1.506.314-2.087.392-1.082,1.101-1.624,2.126-1.624.923,0,1.591.38,2.002,1.141ZM861.04,362.831c.275-.412.414-1.178.414-2.301,0-.81-.101-1.477-.3-2s-.587-.784-1.162-.784c-.529,0-.916.248-1.16.745-.244.496-.366,1.228-.366,2.193,0,.728.078,1.312.234,1.753.239.674.648,1.011,1.227,1.011.466,0,.837-.206,1.113-.618Z"/></g><g id="Stroke"><polygon class="cls-2" points="175.479 272.411 358.443 272.411 358.443 89.447 1691.711 89.447 1691.711 272.411 1872.981 272.411 1872.981 1173.68 1695.099 1173.68 1695.099 1349.868 360.137 1349.868 360.137 1175.374 175.479 1175.374 175.479 272.411"/><polyline class="cls-1" points="175.479 419.679 308.768 419.679 308.768 409.514"/><line class="cls-1" x1="308.768" y1="376.477" x2="308.768" y2="272.411"/><line class="cls-1" x1="358.443" y1="222.512" x2="464.347" y2="222.512"/><polyline class="cls-1" points="502.428 222.512 598.16 222.512 512.477 222.512 512.477 89.447"/><path class="cls-1" d="M636.241,222.512s16.925-2.645,20.627-19.041c3.702-16.396,21.685-114.024,21.685-114.024"/><path class="cls-1" d="M725.546,433.829h-160.824v-96.989c0-15.464,4.247-42.526,33.438-42.526"/><line class="cls-1" x1="564.722" y1="507.715" x2="725.546" y2="507.715"/><line class="cls-1" x1="760.63" y1="488.02" x2="760.63" y2="507.715"/><polyline class="cls-1" points="817.448 294.314 806.624 294.314 806.624 314.417 760.63 314.417 760.63 444.372"/><polyline class="cls-1" points="751.29 294.314 760.63 294.314 760.63 314.417 760.63 314.417"/><line class="cls-1" x1="632.487" y1="294.314" x2="717.407" y2="294.314"/><polyline class="cls-1" points="725.546 433.829 884.768 433.829 884.768 401.014 892.316 401.014"/><polyline class="cls-1" points="1274.76 458.639 1274.76 294.314 1360.628 294.314 1211.688 294.314"/><polyline class="cls-1" points="942.433 433.829 1274.76 433.829 1274.76 458.639"/><polyline class="cls-1" points="1157.603 294.314 1001.235 294.314 1129.014 294.314 1129.014 433.829"/><polyline class="cls-1" points="962.455 294.314 858.079 294.314 942.433 294.314 942.433 433.829"/><polyline class="cls-1" points="1164.842 507.715 1014.353 507.715 1014.353 936.534 1163.603 936.534"/><path class="cls-1" d="M1400.28,294.314c23.106,0,37.469,15.868,37.469,40.847v172.553h-213.896"/><polyline class="cls-1" points="1226.051 936.534 1437.749 936.534 1437.749 892.196 1437.749 936.534 1335.335 936.534 1335.335 827.874 1437.749 827.874 1437.749 842.862 1437.749 507.715"/><line class="cls-1" x1="1236.617" y1="936.534" x2="1236.617" y2="921.5"/><polyline class="cls-1" points="1236.617 850.522 1236.617 826.416 1236.617 774.187"/><line class="cls-1" x1="1335.335" y1="827.874" x2="1236.617" y2="827.874"/><polyline class="cls-1" points="1236.617 738.028 1236.617 719.657 1236.617 728.843 1437.749 728.843 1437.749 709.235 1559.105 709.235 1559.105 728.329 1588.161 728.843 1588.161 709.235"/><polyline class="cls-1" points="1236.617 685.799 1236.617 640.935 1255.366 640.935 1255.366 631.561 1255.366 640.935"/><polyline class="cls-1" points="1255.366 603.437 1229.251 603.437 1229.251 507.715"/><line class="cls-1" x1="1157.603" y1="507.715" x2="1157.603" y2="536.476"/><line class="cls-1" x1="1157.603" y1="568.618" x2="1157.603" y2="801.641"/><polyline class="cls-1" points="1157.603 833.112 1157.603 850.522 1157.603 841.817 1014.353 841.817"/><line class="cls-1" x1="1157.603" y1="880.654" x2="1157.603" y2="936.534"/><line class="cls-1" x1="617.46" y1="574.919" x2="617.46" y2="507.715"/><polyline class="cls-1" points="617.46 614.885 617.46 640.464 716.654 640.464 175.479 640.464"/><polyline class="cls-1" points="716.654 507.715 716.654 937.013 774.128 937.013"/><polyline class="cls-1" points="817.291 937.013 926 937.013 926 507.715 817.291 507.715"/><line class="cls-1" x1="774.128" y1="507.715" x2="725.546" y2="507.715"/><path class="cls-1" d="M1374.784,89.447s25.73,113.318,28.629,123.827,14.858,9.06,14.858,9.06"/><polyline class="cls-1" points="1454.873 222.402 1552.357 222.402 1540.398 222.402 1540.398 89.447"/><line class="cls-1" x1="1587.872" y1="222.402" x2="1694.417" y2="222.402"/><line class="cls-1" x1="1742.586" y1="272.411" x2="1742.586" y2="371.006"/><polyline class="cls-1" points="1742.586 413.154 1742.586 423.476 1872.981 423.476"/><polyline class="cls-1" points="1522.748 443.634 1522.748 434.205 1590.845 434.205 1590.845 569.875 1590.845 523.255 1437.749 523.255"/><polyline class="cls-1" points="1437.749 613.352 1590.845 613.352 1590.845 603.437 1590.845 673.592"/><polyline class="cls-1" points="1437.749 842.862 1579.845 842.862 1588.161 820.262 1544.749 936.534 1514.297 936.534 1544.749 936.534 1555.509 907.714 1554.178 842.862"/><polyline class="cls-1" points="1601.322 905.122 1751.135 967.981 1872.981 967.981"/><polyline class="cls-1" points="1645.323 874.216 1653.18 855.359 1753.754 855.359 1753.754 967.981 1753.754 804.024 1766.85 804.024"/><line class="cls-1" x1="1797.232" y1="804.024" x2="1872.981" y2="804.024"/><line class="cls-1" x1="1872.981" y1="738.028" x2="1829.185" y2="763.689"/><line class="cls-1" x1="1183.146" y1="1286.568" x2="1223.083" y2="1349.868"/><polyline class="cls-1" points="1164.028 1255.129 1142.36 1218.591 1153.194 1181.628 1171.675 1185.877 1203.115 1066.067 1402.798 1066.067 1402.798 1055.446 1402.798 1296.765 1381.98 1349.868"/><polyline class="cls-1" points="1521.758 983.22 1509.437 1012.11 1002.582 1012.11 1272.579 1012.11 1272.579 980.246 1272.579 1012.11 1397.275 1012.11 1397.275 980.246"/><line class="cls-1" x1="1396" y1="941.159" x2="1396" y2="936.534"/><line class="cls-1" x1="1272.579" y1="936.534" x2="1272.579" y2="942.858"/><polyline class="cls-1" points="942.444 1012.11 788.342 1012.11 788.342 1349.868 788.342 1174.776 945.677 1174.776 943.397 1157.645 959.929 1280.784 957.649 1290.76"/><line class="cls-1" x1="948.243" y1="1328.386" x2="943.112" y2="1349.868"/><line class="cls-1" x1="938.738" y1="1120.172" x2="925.428" y2="1012.11"/><line class="cls-1" x1="617.827" y1="696.204" x2="617.827" y2="745.877"/><polyline class="cls-1" points="617.827 869.602 617.827 937.013 678.139 937.013"/><polyline class="cls-1" points="727.143 936.534 727.143 1012.11 788.342 1012.11"/><line class="cls-1" x1="1272.804" y1="490.583" x2="1272.804" y2="507.715"/><line class="cls-1" x1="942.433" y1="401.014" x2="926" y2="401.014"/><line class="cls-1" x1="645.134" y1="433.829" x2="645.134" y2="294.314"/></g></svg>