<svg id="Layer_1" data-name="Layer 1" xmlns="http://www.w3.org/2000/svg" viewBox="0 0 96.6 80"><defs><style>.cls-1,.cls-3{fill:#dcebfd;}.cls-2{fill:none;}.cls-2,.cls-3{stroke:#3b86ff;stroke-miterlimit:10;stroke-width:4px;}</style></defs><title>Transition Report Icon</title><g id="Artboard_1" data-name="Artboard 1"><g id="Group_2041" data-name="Group 2041"><path id="Path_18266" data-name="Path 18266" class="cls-1" d="M57.5,59.5c4.4-3.5,7.2-9.5,7.2-16.3s-4.1-14.9-10-18c-2-1.1-4.1,2.8-6.3,2.8s-5.2-3.4-7.4-2.1c-5.2,3.2-8.9,9.7-8.9,17.3S34.9,56,39.5,59.5l-.9,16.3H58.2Z"/><path class="cls-2" d="M38.6,75.8l.7-16.3a20.7,20.7,0,0,1-7.4-16.3c0-7.6,3.7-14.1,8.9-17.3C43,24.6,45.6,28,48.2,28s4.3-3.6,6.3-2.8c5.8,3.1,10,10,10,18a21.2,21.2,0,0,1-7.2,16.3V75.8"/><ellipse id="Ellipse_473" data-name="Ellipse 473" class="cls-3" cx="48.4" cy="11.8" rx="7.6" ry="9.8"/><g id="Group_1994" data-name="Group 1994"><line id="Line_326" data-name="Line 326" class="cls-2" x1="34.3" y1="21.5" x2="21.3" y2="8.5"/><path id="Path_18270" data-name="Path 18270" class="cls-2" d="M19.1,15V6.3h8.7"/><line id="Line_327" data-name="Line 327" class="cls-2" x1="24.3" y1="40" x2="5.9" y2="40"/><path id="Path_18271" data-name="Path 18271" class="cls-2" d="M8.9,46.1,2.8,40l6.1-6.1"/><line id="Line_328" data-name="Line 328" class="cls-2" x1="72.3" y1="40" x2="90.7" y2="40"/><path id="Path_18272" data-name="Path 18272" class="cls-2" d="M87.7,33.9,93.8,40l-6.1,6.1"/><line id="Line_329" data-name="Line 329" class="cls-2" x1="64.7" y1="23.7" x2="77.7" y2="10.7"/><path id="Path_18273" data-name="Path 18273" class="cls-2" d="M71.2,8.5h8.7v8.7"/></g><g id="Group_1995" data-name="Group 1995"><line id="Line_330" data-name="Line 330" class="cls-2" x1="32.1" y1="62.8" x2="19.1" y2="75.8"/><path id="Path_18274" data-name="Path 18274" class="cls-2" d="M16.9,69.3V78h8.7"/><line id="Line_331" data-name="Line 331" class="cls-2" x1="62.5" y1="60.6" x2="75.5" y2="73.6"/><path id="Path_18275" data-name="Path 18275" class="cls-2" d="M69,75.8h8.7V67.1"/></g></g></g></svg>