<?xml version="1.0" encoding="utf-8"?>
<!-- Generator: Adobe Illustrator 28.1.0, SVG Export Plug-In . SVG Version: 6.00 Build 0)  -->
<svg version="1.1" id="Layer_1" xmlns="http://www.w3.org/2000/svg" xmlns:xlink="http://www.w3.org/1999/xlink" x="0px" y="0px"
	 viewBox="0 0 1291.3 1413.2" style="enable-background:new 0 0 1291.3 1413.2;" xml:space="preserve">
<style type="text/css">
	.st0{fill:#5893AD;}
	.st1{fill:#B4DDE2;}
	.st2{fill:#9AC9CC;}
	.st3{fill:#9EB6BD;}
	.st4{opacity:0.15;fill:#020202;enable-background:new    ;}
	.st5{fill:#5A6068;}
	.st6{fill:#9EACB6;}
	.st7{fill:none;stroke:#7E8D92;stroke-linecap:round;stroke-miterlimit:10;}
	.st8{opacity:5.000000e-02;fill:#040404;enable-background:new    ;}
	.st9{fill:#B8BEC0;}
	.st10{fill:#FFFFFF;}
	.st11{fill:none;stroke:#DADCDB;stroke-width:0.175;stroke-miterlimit:10;}
	.st12{opacity:0.1;fill:#040404;enable-background:new    ;}
	.st13{fill:#F7F9FA;}
	.st14{opacity:0.1;fill:#030303;enable-background:new    ;}
	.st15{fill:#5A6067;}
	.st16{fill:#9EACB5;}
	.st17{fill:#7E8C91;}
	.st18{opacity:0.74;fill:#575757;enable-background:new    ;}
	.st19{fill:#656B6D;}
	.st20{fill:none;stroke:#EBF1F1;stroke-width:12;stroke-miterlimit:10;}
	.st21{fill:none;stroke:#FFFFFF;stroke-width:6;stroke-miterlimit:10;}
	.st22{fill:#777E80;}
	.st23{fill:#EBF1F1;}
	.st24{fill:#7E8C91;stroke:#7E8C91;stroke-width:0.359;stroke-miterlimit:10;}
	.st25{fill:#EBF2F2;}
	.st26{fill:none;stroke:#7A8E93;stroke-miterlimit:10;}
	.st27{fill:#646B6D;}
	.st28{fill:#7A8E93;}
</style>
<g id="Shadow">
	<polygon class="st0" points="176.5,153.2 1087.2,153.2 1087.2,189.3 1115.1,189.3 1115.1,1170.5 1098.4,1208.1 697.8,1208.1 
		697.8,1222.1 681.1,1260 136.6,1260 115.3,1222.1 115.3,717.9 201.8,717.9 201.8,525.9 195.5,525.9 174.4,488.5 	"/>
</g>
<g id="BG">
	<polygon class="st1" points="181.4,108.8 1087.2,108.8 1087.2,144.9 1109.8,144.9 1109.8,1163.6 691.9,1163.6 691.9,1215.6 
		120.5,1215.6 120.5,673.5 201.8,673.5 201.8,481.5 179.1,481.5 	"/>
</g>
<g id="Hihglights">
	<polygon class="st2" points="1109.8,841.9 728.9,841.9 728.9,575.1 533.3,575.1 533.3,675.6 398,675.6 398,814.7 279.1,814.7 
		279.1,962.9 595.3,962.9 595.3,1215.6 691.9,1215.6 691.9,1163.6 1103.5,1163.6 	"/>
	<rect x="120.5" y="1046.6" class="st2" width="355.5" height="169"/>
	<rect x="279.1" y="670.5" class="st3" width="118.9" height="144.2"/>
	<rect x="120.5" y="676.6" class="st3" width="81.3" height="370"/>
	<rect x="279.1" y="575.1" class="st3" width="95.7" height="98.4"/>
	<rect x="179.6" y="108.8" class="st3" width="128.4" height="283.8"/>
	<polygon class="st3" points="442.6,817.2 442.6,966.2 279.1,966.2 279.1,814.7 	"/>
</g>
<g id="Furn">
	<path class="st4" d="M404.7,259.9l-0.3,6.1c-0.1,4.7-4,8.4-8.7,8.3h-0.4l-6.1-0.6c-6.1-0.6-10.8-5.8-10.5-12l0,0
		c0.1-6.1,5.1-11,11.2-11.1h6.1c4.7,0,8.5,3.6,9,8.3L404.7,259.9L404.7,259.9z"/>
	<path class="st5" d="M403.6,259.9l-0.3,6.1c-0.1,4.7-4,8.4-8.7,8.3h-0.4l-6.1-0.6c-6.1-0.6-10.8-5.8-10.5-12l0,0
		c0.1-6.1,5.1-11,11.2-11.1h6.1c4.7,0,8.5,3.6,9,8.3L403.6,259.9L403.6,259.9z"/>
	<path class="st6" d="M402.5,259.9l-0.3,6.1c-0.1,4.7-4,8.4-8.7,8.3h-0.6l-6.1-0.6c-6.1-0.6-10.8-5.8-10.5-12l0,0
		c0.1-6.1,5.1-11,11.2-11.1h6.1c4.7,0,8.5,3.6,9,8.3L402.5,259.9L402.5,259.9z"/>
	<path class="st7" d="M394.2,274.7l-7.7-0.9c-6.1-0.6-10.8-5.8-10.5-12l0,0c0.1-6.1,5.1-11,11.2-11.1l7.7-0.3"/>
	<path class="st8" d="M435.1,224.7l0.4,73.9c0.1,1.6-1,3-2.6,3.1h-33.2c-1.6-0.1-2.8-1.6-2.7-3.1l0,0l-0.4-73.9
		c-0.1-1.6,1-3,2.6-3.1h33C433.8,221.6,435.1,223,435.1,224.7L435.1,224.7z"/>
	<path class="st9" d="M436.6,224.7l0.4,73.9c0.1,1.6-1,3-2.6,3.1h-33.2c-1.6-0.1-2.8-1.6-2.7-3.1l0,0l-0.4-73.9
		c-0.1-1.6,1-3,2.6-3.1h33.2c1.6,0,2.7,1.3,2.7,2.8V224.7z"/>
	<g id="tables-17-3-23-4">
		<path class="st10" d="M437.6,260v-35.6c0.1-1.6-1-3-2.6-3.1h-17.7v38.9L437.6,260L437.6,260z"/>
		<path class="st10" d="M417.4,301.7h17.5c1.6-0.1,2.8-1.6,2.7-3.1v-38.4h-20.1L417.4,301.7z"/>
		<path class="st10" d="M417.4,260h-17.9v38.4c-0.1,1.6,1,3,2.6,3.1h15.7L417.4,260z"/>
		<path class="st10" d="M417.4,221.2h-15.5c-1.6,0.1-2.8,1.6-2.7,3.1v35.6h18.1v-38.7H417.4L417.4,221.2z"/>
	</g>
	<line class="st11" x1="437.6" y1="260" x2="399.5" y2="260"/>
	<line class="st11" x1="417.4" y1="221.2" x2="417.4" y2="301.7"/>
	<path class="st4" d="M404.7,338.8l-0.3,6.1c-0.1,4.7-4,8.4-8.7,8.3h-0.4l-6.1-0.6c-6.1-0.6-10.8-5.8-10.5-12l0,0
		c0.1-6.1,5.1-11,11.2-11.1h6.1c4.7,0,8.5,3.6,9,8.3L404.7,338.8L404.7,338.8z"/>
	<path class="st5" d="M403.6,338.8l-0.3,6.1c-0.1,4.7-4,8.4-8.7,8.3h-0.4l-6.1-0.6c-6.1-0.6-10.8-5.8-10.5-12l0,0
		c0.1-6.1,5.1-11,11.2-11.1h6.1c4.7,0,8.5,3.6,9,8.3L403.6,338.8L403.6,338.8z"/>
	<path class="st6" d="M402.5,338.8l-0.3,6.1c-0.1,4.7-4,8.4-8.7,8.3h-0.6l-6.1-0.6c-6.1-0.6-10.8-5.8-10.5-12l0,0
		c0.1-6.1,5.1-11,11.2-11.1h6.1c4.7,0,8.5,3.6,9,8.3L402.5,338.8L402.5,338.8z"/>
	<path class="st7" d="M394.2,353.6l-7.7-0.9c-6.1-0.6-10.8-5.8-10.5-12l0,0c0.1-6.1,5.1-11,11.2-11.1l7.7-0.3"/>
	<path class="st8" d="M435.1,303.7l0.4,73.9c0.1,1.6-1,3-2.6,3.1h-33.2c-1.6-0.1-2.8-1.6-2.7-3.1l0,0l-0.4-73.9
		c-0.1-1.6,1-3,2.6-3.1h33C433.8,300.5,435.1,302,435.1,303.7L435.1,303.7L435.1,303.7z"/>
	<path class="st9" d="M436.6,303.7l0.4,73.9c0.1,1.6-1,3-2.6,3.1h-33.2c-1.6-0.1-2.8-1.6-2.7-3.1l0,0l-0.4-73.9
		c-0.1-1.6,1-3,2.6-3.1h33.2c1.6,0,2.7,1.3,2.7,2.8V303.7L436.6,303.7z"/>
	<g id="tables-17-3-23-4-2">
		<path class="st10" d="M437.6,339v-35.6c0.1-1.6-1-3-2.6-3.1h-17.7v38.9L437.6,339L437.6,339z"/>
		<path class="st10" d="M417.4,380.7h17.5c1.6-0.1,2.8-1.6,2.7-3.1v-38.4h-20.1L417.4,380.7L417.4,380.7z"/>
		<path class="st10" d="M417.4,339h-17.9v38.4c-0.1,1.6,1,3,2.6,3.1h15.7L417.4,339z"/>
		<path class="st10" d="M417.4,300.1h-15.5c-1.6,0.1-2.8,1.6-2.7,3.1v35.6h18.1v-38.7H417.4L417.4,300.1z"/>
	</g>
	<line class="st11" x1="437.6" y1="339" x2="399.5" y2="339"/>
	<line class="st11" x1="417.4" y1="300.1" x2="417.4" y2="380.7"/>
	<path class="st4" d="M404.5,179.6l-0.3,6.1c-0.1,4.7-4,8.4-8.7,8.3h-0.6l-6.1-0.6c-6.1-0.6-10.8-5.8-10.5-12l0,0
		c0.1-6.1,5.1-11,11.2-11.1h6.1c4.7,0,8.5,3.6,9,8.3L404.5,179.6L404.5,179.6z"/>
	<path class="st5" d="M403.3,179.6l-0.3,6.1c-0.1,4.7-4,8.4-8.7,8.3h-0.4l-6.1-0.6c-6.1-0.6-10.8-5.8-10.5-12l0,0
		c0.1-6.1,5.1-11,11.2-11.1h6.1c4.7,0,8.5,3.6,9,8.3L403.3,179.6L403.3,179.6z"/>
	<path class="st6" d="M402.2,179.6l-0.3,6.1c-0.1,4.7-4,8.4-8.7,8.3h-0.4l-6.1-0.6c-6.1-0.6-10.8-5.8-10.5-12l0,0
		c0.1-6.1,5.1-11,11.2-11.1h6.1c4.7,0,8.5,3.6,9,8.3L402.2,179.6L402.2,179.6z"/>
	<path class="st7" d="M393.8,194.4l-7.7-0.9c-6.1-0.6-10.8-5.8-10.5-12l0,0c0.1-6.1,5.1-11,11.2-11.1l7.7-0.3"/>
	<path class="st8" d="M434.6,144.3l0.4,73.9c0.1,1.6-1,3-2.6,3.1h-33.2c-1.6-0.1-2.8-1.6-2.7-3.1l0,0l-0.4-73.9
		c-0.1-1.6,1-3,2.6-3.1h33.2C433.5,141.3,434.6,142.6,434.6,144.3C434.7,144.2,434.7,144.2,434.6,144.3z"/>
	<path class="st9" d="M436.3,144.3l0.6,73.9c0.1,1.6-1,3-2.6,3.1h-33.2c-1.6-0.1-2.8-1.6-2.7-3.1l0,0l-0.4-73.9
		c-0.1-1.6,1-3,2.6-3.1h33.2C435.3,141.3,436.5,142.6,436.3,144.3L436.3,144.3L436.3,144.3z"/>
	<g id="tables-17-3-25-4">
		<path class="st10" d="M437.5,179.7v-35.6c0.1-1.6-1-3-2.6-3.1h-17.7v38.9L437.5,179.7L437.5,179.7L437.5,179.7z"/>
		<path class="st10" d="M417.1,221.5h17.5c1.6-0.1,2.8-1.6,2.7-3.1V180h-20.1v41.6h-0.1V221.5z"/>
		<path class="st10" d="M417.1,179.7h-17.9v38.4c-0.1,1.6,1,3,2.6,3.1h15.7L417.1,179.7z"/>
		<path class="st10" d="M417.1,140.9h-15.5c-1.6,0.1-2.8,1.6-2.7,3.1v35.6H417L417.1,140.9L417.1,140.9z"/>
	</g>
	<line class="st11" x1="437.5" y1="179.7" x2="399.2" y2="179.7"/>
	<line class="st11" x1="417.1" y1="140.9" x2="417.1" y2="221.5"/>
	<path class="st4" d="M470.2,258.9c0.4-4.7,4.3-8.3,9-8.3h6.1c6.1,0.1,11.1,5,11.2,11.1l0,0c0.3,6.1-4.4,11.4-10.5,12l-6.1,0.6h-0.4
		c-4.7,0.1-8.5-3.6-8.7-8.3l-0.3-6.1L470.2,258.9L470.2,258.9z"/>
	<path class="st5" d="M471.4,258.9c0.4-4.7,4.3-8.3,9-8.3h6.1c6.1,0.1,11.1,5,11.2,11.1l0,0c0.3,6.1-4.4,11.4-10.5,12l-6.1,0.6h-0.4
		c-4.7,0.1-8.5-3.6-8.7-8.3l-0.3-6.1L471.4,258.9L471.4,258.9z"/>
	<path class="st6" d="M472.7,258.9c0.4-4.7,4.3-8.3,9-8.3h6.1c6.1,0.1,11.1,5,11.2,11.1l0,0c0.3,6.1-4.4,11.4-10.5,12l-6.1,0.6h-0.6
		c-4.7,0.1-8.5-3.6-8.7-8.3l-0.3-6.1L472.7,258.9L472.7,258.9z"/>
	<path class="st7" d="M480.4,250.5l7.7,0.3c6.1,0.1,11.1,5,11.2,11.1l0,0c0.3,6.1-4.4,11.4-10.5,12l-7.7,0.9"/>
	<path class="st8" d="M440.2,224.7L440.2,224.7c0-1.7,1.3-3.1,2.8-3.1h33c1.6,0.1,2.7,1.6,2.6,3.1l-0.4,73.9l0,0
		c0.1,1.6-1.1,3-2.7,3.1h-33.2c-1.6-0.1-2.7-1.6-2.6-3.1L440.2,224.7L440.2,224.7z"/>
	<path class="st9" d="M438.6,224.4c0-1.6,1.1-2.8,2.7-2.8h33.2c1.6,0.1,2.7,1.6,2.6,3.1l-0.4,73.9l0,0c0.1,1.6-1.1,3-2.7,3.1h-33.2
		c-1.6-0.1-2.7-1.6-2.6-3.1l0.4-73.9V224.4L438.6,224.4z"/>
	<g id="tables-17-3-23-4-3">
		<path class="st10" d="M457.9,260.2v-38.9h-17.7c-1.6,0.1-2.7,1.6-2.6,3.1V260L457.9,260.2L457.9,260.2z"/>
		<path class="st10" d="M457.7,260.2h-20.1v38.4c-0.1,1.6,1.1,3,2.7,3.1h17.5L457.7,260.2L457.7,260.2z"/>
		<path class="st10" d="M457.6,301.6h15.7c1.6-0.1,2.7-1.6,2.6-3.1V260H458L457.6,301.6L457.6,301.6z"/>
		<path class="st10" d="M458,221.2v38.7h18.1v-35.6c0.1-1.6-1.1-3-2.7-3.1h-15.5L458,221.2L458,221.2z"/>
	</g>
	<line class="st11" x1="475.8" y1="260" x2="437.6" y2="260"/>
	<line class="st11" x1="457.9" y1="301.7" x2="457.9" y2="221.2"/>
	<path class="st4" d="M470.2,337.8c0.4-4.7,4.3-8.3,9-8.3h6.1c6.1,0.1,11.1,5,11.2,11.1l0,0c0.3,6.1-4.4,11.4-10.5,12l-6.1,0.6h-0.4
		c-4.7,0.1-8.5-3.6-8.7-8.3l-0.3-6.1L470.2,337.8L470.2,337.8z"/>
	<path class="st5" d="M471.4,337.8c0.4-4.7,4.3-8.3,9-8.3h6.1c6.1,0.1,11.1,5,11.2,11.1l0,0c0.3,6.1-4.4,11.4-10.5,12l-6.1,0.6h-0.4
		c-4.7,0.1-8.5-3.6-8.7-8.3l-0.3-6.1L471.4,337.8L471.4,337.8z"/>
	<path class="st6" d="M472.7,337.8c0.4-4.7,4.3-8.3,9-8.3h6.1c6.1,0.1,11.1,5,11.2,11.1l0,0c0.3,6.1-4.4,11.4-10.5,12l-6.1,0.6h-0.6
		c-4.7,0.1-8.5-3.6-8.7-8.3l-0.3-6.1L472.7,337.8L472.7,337.8z"/>
	<path class="st7" d="M480.4,329.4l7.7,0.3c6.1,0.1,11.1,5,11.2,11.1l0,0c0.3,6.1-4.4,11.4-10.5,12l-7.7,0.9"/>
	<path class="st8" d="M440.2,303.7L440.2,303.7c0-1.7,1.3-3.1,2.8-3.1h33c1.6,0.1,2.7,1.6,2.6,3.1l-0.4,73.9l0,0
		c0.1,1.6-1.1,3-2.7,3.1h-33.2c-1.6-0.1-2.7-1.6-2.6-3.1L440.2,303.7L440.2,303.7L440.2,303.7z"/>
	<path class="st9" d="M438.6,303.4c0-1.6,1.1-2.8,2.7-2.8h33.2c1.6,0.1,2.7,1.6,2.6,3.1l-0.4,73.9l0,0c0.1,1.6-1.1,3-2.7,3.1h-33.2
		c-1.6-0.1-2.7-1.6-2.6-3.1l0.4-73.9V303.4L438.6,303.4z"/>
	<g id="tables-17-3-23-4-4">
		<path class="st10" d="M457.9,339.1v-38.9h-17.7c-1.6,0.1-2.7,1.6-2.6,3.1V339L457.9,339.1L457.9,339.1z"/>
		<path class="st10" d="M457.7,339.1h-20.1v38.4c-0.1,1.6,1.1,3,2.7,3.1h17.5L457.7,339.1z"/>
		<path class="st10" d="M457.6,380.5h15.7c1.6-0.1,2.7-1.6,2.6-3.1V339H458L457.6,380.5z"/>
		<path class="st10" d="M458,300.1v38.7h18.1v-35.6c0.1-1.6-1.1-3-2.7-3.1h-15.5H458L458,300.1z"/>
	</g>
	<line class="st11" x1="475.8" y1="339" x2="437.6" y2="339"/>
	<line class="st11" x1="457.9" y1="380.7" x2="457.9" y2="300.1"/>
	<path class="st4" d="M470.7,178.6c0.4-4.7,4.3-8.3,9-8.3h6.1c6.1,0.1,11.1,5,11.2,11.1l0,0c0.3,6.1-4.4,11.4-10.5,12l-6.1,0.6h-0.6
		c-4.7,0.1-8.5-3.6-8.7-8.3l-0.3-6.1L470.7,178.6L470.7,178.6z"/>
	<path class="st5" d="M471.7,178.6c0.4-4.7,4.3-8.3,9-8.3h6.1c6.1,0.1,11.1,5,11.2,11.1l0,0c0.3,6.1-4.4,11.4-10.5,12l-6.1,0.6H481
		c-4.7,0.1-8.5-3.6-8.7-8.3l-0.3-6.1L471.7,178.6L471.7,178.6z"/>
	<path class="st6" d="M472.8,178.6c0.4-4.7,4.3-8.3,9-8.3h6.1c6.1,0.1,11.1,5,11.2,11.1l0,0c0.3,6.1-4.4,11.4-10.5,12l-6.1,0.6h-0.4
		c-4.7,0.1-8.5-3.6-8.7-8.3l-0.3-6.1L472.8,178.6L472.8,178.6z"/>
	<path class="st7" d="M480.8,170.2l7.7,0.3c6.1,0.1,11.1,5,11.2,11.1l0,0c0.3,6.1-4.4,11.4-10.5,12l-7.7,0.9"/>
	<path class="st8" d="M440.6,144.3c0-1.7,1.1-3,2.7-3.1h33.2c1.6,0.1,2.7,1.6,2.6,3.1l-0.4,73.9l0,0c0.1,1.6-1.1,3-2.7,3.1h-33.2
		c-1.6-0.1-2.7-1.6-2.6-3.1L440.6,144.3C440.5,144.2,440.5,144.2,440.6,144.3z"/>
	<path class="st9" d="M438.9,144.3c-0.1-1.7,1-3,2.6-3.1h33.2c1.6,0.1,2.7,1.6,2.6,3.1l-0.4,73.9l0,0c0.1,1.6-1.1,3-2.7,3.1H441
		c-1.6-0.1-2.7-1.6-2.6-3.1L438.9,144.3L438.9,144.3L438.9,144.3z"/>
	<g id="tables-17-3-25-4-2">
		<path class="st10" d="M437.8,179.7l20.2,0.1V141h-17.7c-1.6,0.1-2.7,1.6-2.6,3.1L437.8,179.7L437.8,179.7L437.8,179.7z"/>
		<path class="st10" d="M458,221.5v-41.6h-20.1v38.4c-0.1,1.6,1.1,3,2.7,3.1h17.5H458V221.5z"/>
		<path class="st10" d="M457.9,221.3h15.7c1.6-0.1,2.7-1.6,2.6-3.1v-38.4h-17.9L457.9,221.3z"/>
		<path class="st10" d="M458.3,179.6h18.1V144c0.1-1.6-1.1-3-2.7-3.1h-15.5L458.3,179.6L458.3,179.6z"/>
	</g>
	<line class="st11" x1="476.1" y1="179.7" x2="437.8" y2="179.7"/>
	<line class="st11" x1="458.1" y1="221.5" x2="458.1" y2="140.9"/>
	<path class="st4" d="M660.9,259.9l-0.3,6.1c-0.1,4.7-4,8.4-8.7,8.3h-0.4l-6.1-0.6c-6.1-0.6-10.8-5.8-10.5-12l0,0
		c0.1-6.1,5.1-11,11.2-11.1h6.1c4.7,0,8.5,3.6,9,8.3L660.9,259.9L660.9,259.9z"/>
	<path class="st5" d="M659.8,259.9l-0.3,6.1c-0.1,4.7-4,8.4-8.7,8.3h-0.4l-6.1-0.6c-6.1-0.6-10.8-5.8-10.5-12l0,0
		c0.1-6.1,5.1-11,11.2-11.1h6.1c4.7,0,8.5,3.6,9,8.3L659.8,259.9L659.8,259.9z"/>
	<path class="st6" d="M658.6,259.9l-0.3,6.1c-0.1,4.7-4,8.4-8.7,8.3H649l-6.1-0.6c-6.1-0.6-10.8-5.8-10.5-12l0,0
		c0.1-6.1,5.1-11,11.2-11.1h6.1c4.7,0,8.5,3.6,9,8.3L658.6,259.9L658.6,259.9z"/>
	<path class="st7" d="M650.4,274.7l-7.7-0.9c-6.1-0.6-10.8-5.8-10.5-12l0,0c0.1-6.1,5.1-11,11.2-11.1l7.7-0.3"/>
	<path class="st8" d="M691.2,224.7l0.4,73.9c0.1,1.6-1,3-2.6,3.1h-33.2c-1.6-0.1-2.8-1.6-2.7-3.1l0,0l-0.4-73.9
		c-0.1-1.6,1-3,2.6-3.1h33C690,221.6,691.2,223,691.2,224.7L691.2,224.7L691.2,224.7z"/>
	<path class="st9" d="M692.8,224.7l0.4,73.9c0.1,1.6-1,3-2.6,3.1h-33.2c-1.6-0.1-2.8-1.6-2.7-3.1l0,0l-0.4-73.9
		c-0.1-1.6,1-3,2.6-3.1h33.2c1.6,0,2.7,1.3,2.7,2.8V224.7z"/>
	<g id="tables-17-3-23-4-5">
		<path class="st10" d="M693.8,260v-35.6c0.1-1.6-1-3-2.6-3.1h-17.7v38.9L693.8,260z"/>
		<path class="st10" d="M673.6,301.7h17.5c1.6-0.1,2.8-1.6,2.7-3.1v-38.4h-20.1L673.6,301.7L673.6,301.7z"/>
		<path class="st10" d="M673.6,260h-17.9v38.4c-0.1,1.6,1,3,2.6,3.1H674L673.6,260L673.6,260z"/>
		<path class="st10" d="M673.6,221.2h-15.5c-1.6,0.1-2.8,1.6-2.7,3.1v35.6h18.1v-38.7H673.6z"/>
	</g>
	<line class="st11" x1="693.8" y1="260" x2="655.6" y2="260"/>
	<line class="st11" x1="673.6" y1="221.2" x2="673.6" y2="301.7"/>
	<path class="st4" d="M660.9,338.8l-0.3,6.1c-0.1,4.7-4,8.4-8.7,8.3h-0.4l-6.1-0.6c-6.1-0.6-10.8-5.8-10.5-12l0,0
		c0.1-6.1,5.1-11,11.2-11.1h6.1c4.7,0,8.5,3.6,9,8.3L660.9,338.8L660.9,338.8z"/>
	<path class="st5" d="M659.8,338.8l-0.3,6.1c-0.1,4.7-4,8.4-8.7,8.3h-0.4l-6.1-0.6c-6.1-0.6-10.8-5.8-10.5-12l0,0
		c0.1-6.1,5.1-11,11.2-11.1h6.1c4.7,0,8.5,3.6,9,8.3L659.8,338.8L659.8,338.8z"/>
	<path class="st6" d="M658.6,338.8l-0.3,6.1c-0.1,4.7-4,8.4-8.7,8.3H649l-6.1-0.6c-6.1-0.6-10.8-5.8-10.5-12l0,0
		c0.1-6.1,5.1-11,11.2-11.1h6.1c4.7,0,8.5,3.6,9,8.3L658.6,338.8L658.6,338.8z"/>
	<path class="st7" d="M650.4,353.6l-7.7-0.9c-6.1-0.6-10.8-5.8-10.5-12l0,0c0.1-6.1,5.1-11,11.2-11.1l7.7-0.3"/>
	<path class="st8" d="M691.2,303.7l0.4,73.9c0.1,1.6-1,3-2.6,3.1h-33.2c-1.6-0.1-2.8-1.6-2.7-3.1l0,0l-0.4-73.9
		c-0.1-1.6,1-3,2.6-3.1h33C690,300.5,691.2,302,691.2,303.7L691.2,303.7L691.2,303.7z"/>
	<path class="st9" d="M692.8,303.7l0.4,73.9c0.1,1.6-1,3-2.6,3.1h-33.2c-1.6-0.1-2.8-1.6-2.7-3.1l0,0l-0.4-73.9
		c-0.1-1.6,1-3,2.6-3.1h33.2c1.6,0,2.7,1.3,2.7,2.8V303.7L692.8,303.7z"/>
	<g id="tables-17-3-23-4-6">
		<path class="st10" d="M693.8,339v-35.6c0.1-1.6-1-3-2.6-3.1h-17.7v38.9L693.8,339z"/>
		<path class="st10" d="M673.6,380.7h17.5c1.6-0.1,2.8-1.6,2.7-3.1v-38.4h-20.1L673.6,380.7L673.6,380.7z"/>
		<path class="st10" d="M673.6,339h-17.9v38.4c-0.1,1.6,1,3,2.6,3.1H674L673.6,339L673.6,339z"/>
		<path class="st10" d="M673.6,300.1h-15.5c-1.6,0.1-2.8,1.6-2.7,3.1v35.6h18.1v-38.7H673.6z"/>
	</g>
	<line class="st11" x1="693.8" y1="339" x2="655.6" y2="339"/>
	<line class="st11" x1="673.6" y1="300.1" x2="673.6" y2="380.7"/>
	<path class="st4" d="M660.6,179.6l-0.3,6.1c-0.1,4.7-4,8.4-8.7,8.3H651l-6.1-0.6c-6.1-0.6-10.8-5.8-10.5-12l0,0
		c0.1-6.1,5.1-11,11.2-11.1h6.1c4.7,0,8.5,3.6,9,8.3L660.6,179.6L660.6,179.6z"/>
	<path class="st5" d="M659.5,179.6l-0.3,6.1c-0.1,4.7-4,8.4-8.7,8.3h-0.4l-6.1-0.6c-6.1-0.6-10.8-5.8-10.5-12l0,0
		c0.1-6.1,5.1-11,11.2-11.1h6.1c4.7,0,8.5,3.6,9,8.3L659.5,179.6L659.5,179.6z"/>
	<path class="st6" d="M658.3,179.6l-0.3,6.1c-0.1,4.7-4,8.4-8.7,8.3H649l-6.1-0.6c-6.1-0.6-10.8-5.8-10.5-12l0,0
		c0.1-6.1,5.1-11,11.2-11.1h6.1c4.7,0,8.5,3.6,9,8.3L658.3,179.6L658.3,179.6z"/>
	<path class="st7" d="M650,194.4l-7.7-0.9c-6.1-0.6-10.8-5.8-10.5-12l0,0c0.1-6.1,5.1-11,11.2-11.1l7.7-0.3"/>
	<path class="st8" d="M690.8,144.3l0.4,73.9c0.1,1.6-1,3-2.6,3.1h-33.2c-1.6-0.1-2.8-1.6-2.7-3.1l0,0l-0.4-73.9
		c-0.1-1.6,1-3,2.6-3.1h33.2C689.7,141.3,690.8,142.6,690.8,144.3C690.9,144.2,690.9,144.2,690.8,144.3L690.8,144.3z"/>
	<path class="st9" d="M692.5,144.3l0.6,73.9c0.1,1.6-1,3-2.6,3.1h-33.2c-1.6-0.1-2.8-1.6-2.7-3.1l0,0l-0.4-73.9
		c-0.1-1.6,1-3,2.6-3.1H690C691.5,141.3,692.7,142.6,692.5,144.3L692.5,144.3L692.5,144.3z"/>
	<g id="tables-17-3-25-4-3">
		<path class="st10" d="M693.7,179.7v-35.6c0.1-1.6-1-3-2.6-3.1h-17.7v38.9L693.7,179.7L693.7,179.7z"/>
		<path class="st10" d="M673.3,221.5h17.5c1.6-0.1,2.8-1.6,2.7-3.1V180h-20.1v41.6h-0.1L673.3,221.5L673.3,221.5z"/>
		<path class="st10" d="M673.3,179.7h-17.9v38.4c-0.1,1.6,1,3,2.6,3.1h15.7L673.3,179.7L673.3,179.7z"/>
		<path class="st10" d="M673.3,140.9h-15.5c-1.6,0.1-2.8,1.6-2.7,3.1v35.6h18.1L673.3,140.9z"/>
	</g>
	<line class="st11" x1="693.7" y1="179.7" x2="655.4" y2="179.7"/>
	<line class="st11" x1="673.3" y1="140.9" x2="673.3" y2="221.5"/>
	<path class="st4" d="M726.4,258.9c0.4-4.7,4.3-8.3,9-8.3h6.1c6.1,0.1,11.1,5,11.2,11.1l0,0c0.3,6.1-4.4,11.4-10.5,12l-6.1,0.6h-0.4
		c-4.7,0.1-8.5-3.6-8.7-8.3l-0.3-6.1L726.4,258.9L726.4,258.9z"/>
	<path class="st5" d="M727.6,258.9c0.4-4.7,4.3-8.3,9-8.3h6.1c6.1,0.1,11.1,5,11.2,11.1l0,0c0.3,6.1-4.4,11.4-10.5,12l-6.1,0.6h-0.4
		c-4.7,0.1-8.5-3.6-8.7-8.3l-0.3-6.1L727.6,258.9L727.6,258.9z"/>
	<path class="st6" d="M728.8,258.9c0.4-4.7,4.3-8.3,9-8.3h6.1c6.1,0.1,11.1,5,11.2,11.1l0,0c0.3,6.1-4.4,11.4-10.5,12l-6.1,0.6h-0.6
		c-4.7,0.1-8.5-3.6-8.7-8.3l-0.3-6.1L728.8,258.9L728.8,258.9z"/>
	<path class="st7" d="M736.5,250.5l7.7,0.3c6.1,0.1,11.1,5,11.2,11.1l0,0c0.3,6.1-4.4,11.4-10.5,12l-7.7,0.9"/>
	<path class="st8" d="M696.4,224.7L696.4,224.7c0-1.7,1.3-3.1,2.8-3.1h33c1.6,0.1,2.7,1.6,2.6,3.1l-0.4,73.9l0,0
		c0.1,1.6-1.1,3-2.7,3.1h-33.2c-1.6-0.1-2.7-1.6-2.6-3.1L696.4,224.7L696.4,224.7z"/>
	<path class="st9" d="M694.8,224.4c0-1.6,1.1-2.8,2.7-2.8h33.2c1.6,0.1,2.7,1.6,2.6,3.1l-0.4,73.9l0,0c0.1,1.6-1.1,3-2.7,3.1H697
		c-1.6-0.1-2.7-1.6-2.6-3.1l0.4-73.9L694.8,224.4L694.8,224.4z"/>
	<g id="tables-17-3-23-4-7">
		<path class="st10" d="M714,260.2v-38.9h-17.7c-1.6,0.1-2.7,1.6-2.6,3.1V260L714,260.2z"/>
		<path class="st10" d="M713.9,260.2h-20.1v38.4c-0.1,1.6,1.1,3,2.7,3.1H714L713.9,260.2L713.9,260.2z"/>
		<path class="st10" d="M713.7,301.6h15.7c1.6-0.1,2.7-1.6,2.6-3.1V260h-18L713.7,301.6L713.7,301.6z"/>
		<path class="st10" d="M714.2,221.2v38.7h18.1v-35.6c0.1-1.6-1.1-3-2.7-3.1H714L714.2,221.2L714.2,221.2z"/>
	</g>
	<line class="st11" x1="732" y1="260" x2="693.8" y2="260"/>
	<line class="st11" x1="714" y1="301.7" x2="714" y2="221.2"/>
	<path class="st4" d="M726.4,337.8c0.4-4.7,4.3-8.3,9-8.3h6.1c6.1,0.1,11.1,5,11.2,11.1l0,0c0.3,6.1-4.4,11.4-10.5,12l-6.1,0.6h-0.4
		c-4.7,0.1-8.5-3.6-8.7-8.3l-0.3-6.1L726.4,337.8L726.4,337.8z"/>
	<path class="st5" d="M727.6,337.8c0.4-4.7,4.3-8.3,9-8.3h6.1c6.1,0.1,11.1,5,11.2,11.1l0,0c0.3,6.1-4.4,11.4-10.5,12l-6.1,0.6h-0.4
		c-4.7,0.1-8.5-3.6-8.7-8.3l-0.3-6.1L727.6,337.8L727.6,337.8z"/>
	<path class="st6" d="M728.8,337.8c0.4-4.7,4.3-8.3,9-8.3h6.1c6.1,0.1,11.1,5,11.2,11.1l0,0c0.3,6.1-4.4,11.4-10.5,12l-6.1,0.6h-0.6
		c-4.7,0.1-8.5-3.6-8.7-8.3l-0.3-6.1L728.8,337.8L728.8,337.8z"/>
	<path class="st7" d="M736.5,329.4l7.7,0.3c6.1,0.1,11.1,5,11.2,11.1l0,0c0.3,6.1-4.4,11.4-10.5,12l-7.7,0.9"/>
	<path class="st8" d="M696.4,303.7L696.4,303.7c0-1.7,1.3-3.1,2.8-3.1h33c1.6,0.1,2.7,1.6,2.6,3.1l-0.4,73.9l0,0
		c0.1,1.6-1.1,3-2.7,3.1h-33.2c-1.6-0.1-2.7-1.6-2.6-3.1L696.4,303.7L696.4,303.7L696.4,303.7z"/>
	<path class="st9" d="M694.8,303.4c0-1.6,1.1-2.8,2.7-2.8h33.2c1.6,0.1,2.7,1.6,2.6,3.1l-0.4,73.9l0,0c0.1,1.6-1.1,3-2.7,3.1H697
		c-1.6-0.1-2.7-1.6-2.6-3.1l0.4-73.9L694.8,303.4L694.8,303.4z"/>
	<g id="tables-17-3-23-4-8">
		<path class="st10" d="M714,339.1v-38.9h-17.7c-1.6,0.1-2.7,1.6-2.6,3.1V339L714,339.1z"/>
		<path class="st10" d="M713.9,339.1h-20.1v38.4c-0.1,1.6,1.1,3,2.7,3.1H714L713.9,339.1L713.9,339.1z"/>
		<path class="st10" d="M713.7,380.5h15.7c1.6-0.1,2.7-1.6,2.6-3.1V339h-18L713.7,380.5L713.7,380.5z"/>
		<path class="st10" d="M714.2,300.1v38.7h18.1v-35.6c0.1-1.6-1.1-3-2.7-3.1H714H714.2z"/>
	</g>
	<line class="st11" x1="732" y1="339" x2="693.8" y2="339"/>
	<line class="st11" x1="714" y1="380.7" x2="714" y2="300.1"/>
	<path class="st4" d="M726.8,178.6c0.4-4.7,4.3-8.3,9-8.3h6.1c6.1,0.1,11.1,5,11.2,11.1l0,0c0.3,6.1-4.4,11.4-10.5,12l-6.1,0.6H736
		c-4.7,0.1-8.5-3.6-8.7-8.3l-0.3-6.1L726.8,178.6L726.8,178.6z"/>
	<path class="st5" d="M727.8,178.6c0.4-4.7,4.3-8.3,9-8.3h6.1c6.1,0.1,11.1,5,11.2,11.1l0,0c0.3,6.1-4.4,11.4-10.5,12l-6.1,0.6h-0.4
		c-4.7,0.1-8.5-3.6-8.7-8.3l-0.3-6.1L727.8,178.6L727.8,178.6z"/>
	<path class="st6" d="M729,178.6c0.4-4.7,4.3-8.3,9-8.3h6.1c6.1,0.1,11.1,5,11.2,11.1l0,0c0.3,6.1-4.4,11.4-10.5,12l-6.1,0.6h-0.4
		c-4.7,0.1-8.5-3.6-8.7-8.3l-0.3-6.1L729,178.6L729,178.6z"/>
	<path class="st7" d="M737,170.2l7.7,0.3c6.1,0.1,11.1,5,11.2,11.1l0,0c0.3,6.1-4.4,11.4-10.5,12l-7.7,0.9"/>
	<path class="st8" d="M696.8,144.3c0-1.7,1.1-3,2.7-3.1h33.2c1.6,0.1,2.7,1.6,2.6,3.1l-0.4,73.9l0,0c0.1,1.6-1.1,3-2.7,3.1H699
		c-1.6-0.1-2.7-1.6-2.6-3.1L696.8,144.3C696.7,144.2,696.7,144.2,696.8,144.3z"/>
	<path class="st9" d="M695.1,144.3c-0.1-1.7,1-3,2.6-3.1h33.2c1.6,0.1,2.7,1.6,2.6,3.1l-0.4,73.9l0,0c0.1,1.6-1.1,3-2.7,3.1h-33.2
		c-1.6-0.1-2.7-1.6-2.6-3.1L695.1,144.3L695.1,144.3L695.1,144.3z"/>
	<g id="tables-17-3-25-4-4">
		<path class="st10" d="M694,179.7l20.2,0.1V141h-17.7c-1.6,0.1-2.7,1.6-2.6,3.1L694,179.7L694,179.7z"/>
		<path class="st10" d="M714.2,221.5v-41.6h-20.1v38.4c-0.1,1.6,1.1,3,2.7,3.1h17.5h-0.1L714.2,221.5L714.2,221.5z"/>
		<path class="st10" d="M714,221.3h15.7c1.6-0.1,2.7-1.6,2.6-3.1v-38.4h-17.9L714,221.3L714,221.3z"/>
		<path class="st10" d="M714.5,179.6h18.1V144c0.1-1.6-1.1-3-2.7-3.1h-15.5L714.5,179.6z"/>
	</g>
	<line class="st11" x1="732.3" y1="179.7" x2="694" y2="179.7"/>
	<line class="st11" x1="714.3" y1="221.5" x2="714.3" y2="140.9"/>
	<path class="st4" d="M916.3,259.9L916,266c-0.1,4.7-4,8.4-8.7,8.3h-0.4l-6.1-0.6c-6.1-0.6-10.8-5.8-10.5-12l0,0
		c0.1-6.1,5.1-11,11.2-11.1h6.1c4.7,0,8.5,3.6,9,8.3L916.3,259.9L916.3,259.9z"/>
	<path class="st5" d="M915.2,259.9l-0.3,6.1c-0.1,4.7-4,8.4-8.7,8.3h-0.4l-6.1-0.6c-6.1-0.6-10.8-5.8-10.5-12l0,0
		c0.1-6.1,5.1-11,11.2-11.1h6.1c4.7,0,8.5,3.6,9,8.3L915.2,259.9L915.2,259.9z"/>
	<path class="st6" d="M914,259.9l-0.3,6.1c-0.1,4.7-4,8.4-8.7,8.3h-0.6l-6.1-0.6c-6.1-0.6-10.8-5.8-10.5-12l0,0
		c0.1-6.1,5.1-11,11.2-11.1h6.1c4.7,0,8.5,3.6,9,8.3L914,259.9L914,259.9z"/>
	<path class="st7" d="M905.8,274.7l-7.7-0.9c-6.1-0.6-10.8-5.8-10.5-12l0,0c0.1-6.1,5.1-11,11.2-11.1l7.7-0.3"/>
	<path class="st8" d="M946.6,224.7l0.4,73.9c0.1,1.6-1,3-2.6,3.1h-33.2c-1.6-0.1-2.8-1.6-2.7-3.1l0,0l-0.4-73.9
		c-0.1-1.6,1-3,2.6-3.1h33C945.4,221.6,946.6,223,946.6,224.7L946.6,224.7L946.6,224.7z"/>
	<path class="st9" d="M948.2,224.7l0.4,73.9c0.1,1.6-1,3-2.6,3.1h-33.2c-1.6-0.1-2.8-1.6-2.7-3.1l0,0l-0.4-73.9
		c-0.1-1.6,1-3,2.6-3.1h33.2c1.6,0,2.7,1.3,2.7,2.8V224.7L948.2,224.7z"/>
	<g id="tables-17-3-23-4-9">
		<path class="st10" d="M949.2,260v-35.6c0.1-1.6-1-3-2.6-3.1H929v38.9L949.2,260z"/>
		<path class="st10" d="M929,301.7h17.5c1.6-0.1,2.8-1.6,2.7-3.1v-38.4h-20.1L929,301.7L929,301.7z"/>
		<path class="st10" d="M929,260h-18v38.4c-0.1,1.6,1,3,2.6,3.1h15.7L929,260L929,260z"/>
		<path class="st10" d="M929,221.2h-15.5c-1.6,0.1-2.8,1.6-2.7,3.1v35.6h18.1v-38.7H929z"/>
	</g>
	<line class="st11" x1="949.2" y1="260" x2="911" y2="260"/>
	<line class="st11" x1="929" y1="221.2" x2="929" y2="301.7"/>
	<path class="st4" d="M916.3,338.8l-0.3,6.1c-0.1,4.7-4,8.4-8.7,8.3h-0.4l-6.1-0.6c-6.1-0.6-10.8-5.8-10.5-12l0,0
		c0.1-6.1,5.1-11,11.2-11.1h6.1c4.7,0,8.5,3.6,9,8.3L916.3,338.8L916.3,338.8z"/>
	<path class="st5" d="M915.2,338.8l-0.3,6.1c-0.1,4.7-4,8.4-8.7,8.3h-0.4l-6.1-0.6c-6.1-0.6-10.8-5.8-10.5-12l0,0
		c0.1-6.1,5.1-11,11.2-11.1h6.1c4.7,0,8.5,3.6,9,8.3L915.2,338.8L915.2,338.8z"/>
	<path class="st6" d="M914,338.8l-0.3,6.1c-0.1,4.7-4,8.4-8.7,8.3h-0.6l-6.1-0.6c-6.1-0.6-10.8-5.8-10.5-12l0,0
		c0.1-6.1,5.1-11,11.2-11.1h6.1c4.7,0,8.5,3.6,9,8.3L914,338.8L914,338.8z"/>
	<path class="st7" d="M905.8,353.6l-7.7-0.9c-6.1-0.6-10.8-5.8-10.5-12l0,0c0.1-6.1,5.1-11,11.2-11.1l7.7-0.3"/>
	<path class="st8" d="M946.6,303.7l0.4,73.9c0.1,1.6-1,3-2.6,3.1h-33.2c-1.6-0.1-2.8-1.6-2.7-3.1l0,0l-0.4-73.9
		c-0.1-1.6,1-3,2.6-3.1h33C945.4,300.5,946.6,302,946.6,303.7L946.6,303.7L946.6,303.7z"/>
	<path class="st9" d="M948.2,303.7l0.4,73.9c0.1,1.6-1,3-2.6,3.1h-33.2c-1.6-0.1-2.8-1.6-2.7-3.1l0,0l-0.4-73.9
		c-0.1-1.6,1-3,2.6-3.1h33.2c1.6,0,2.7,1.3,2.7,2.8V303.7L948.2,303.7z"/>
	<g id="tables-17-3-23-4-10">
		<path class="st10" d="M949.2,339v-35.6c0.1-1.6-1-3-2.6-3.1H929v38.9L949.2,339z"/>
		<path class="st10" d="M929,380.7h17.5c1.6-0.1,2.8-1.6,2.7-3.1v-38.4h-20.1L929,380.7L929,380.7z"/>
		<path class="st10" d="M929,339h-18v38.4c-0.1,1.6,1,3,2.6,3.1h15.7L929,339L929,339z"/>
		<path class="st10" d="M929,300.1h-15.5c-1.6,0.1-2.8,1.6-2.7,3.1v35.6h18.1v-38.7H929z"/>
	</g>
	<line class="st11" x1="949.2" y1="339" x2="911" y2="339"/>
	<line class="st11" x1="929" y1="300.1" x2="929" y2="380.7"/>
	<path class="st4" d="M916,179.6l-0.3,6.1c-0.1,4.7-4,8.4-8.7,8.3h-0.6l-6.1-0.6c-6.1-0.6-10.8-5.8-10.5-12l0,0
		c0.1-6.1,5.1-11,11.2-11.1h6.1c4.7,0,8.5,3.6,9,8.3L916,179.6L916,179.6z"/>
	<path class="st5" d="M914.9,179.6l-0.3,6.1c-0.1,4.7-4,8.4-8.7,8.3h-0.4l-6.1-0.6c-6.1-0.6-10.8-5.8-10.5-12l0,0
		c0.1-6.1,5.1-11,11.2-11.1h6.1c4.7,0,8.5,3.6,9,8.3L914.9,179.6L914.9,179.6z"/>
	<path class="st6" d="M913.8,179.6l-0.3,6.1c-0.1,4.7-4,8.4-8.7,8.3h-0.4l-6.1-0.6c-6.1-0.6-10.8-5.8-10.5-12l0,0
		c0.1-6.1,5.1-11,11.2-11.1h6.1c4.7,0,8.5,3.6,9,8.3L913.8,179.6L913.8,179.6z"/>
	<path class="st7" d="M905.4,194.4l-7.7-0.9c-6.1-0.6-10.8-5.8-10.5-12l0,0c0.1-6.1,5.1-11,11.2-11.1l7.7-0.3"/>
	<path class="st8" d="M946.2,144.3l0.4,73.9c0.1,1.6-1,3-2.6,3.1h-33.2c-1.6-0.1-2.8-1.6-2.7-3.1l0,0l-0.4-73.9
		c-0.1-1.6,1-3,2.6-3.1h33.2C945.1,141.3,946.2,142.6,946.2,144.3C946.3,144.2,946.3,144.2,946.2,144.3z"/>
	<path class="st9" d="M947.9,144.3l0.6,73.9c0.1,1.6-1,3-2.6,3.1h-33.2c-1.6-0.1-2.8-1.6-2.7-3.1l0,0l-0.4-73.9
		c-0.1-1.6,1-3,2.6-3.1h33.2C946.9,141.3,948.1,142.6,947.9,144.3L947.9,144.3L947.9,144.3z"/>
	<g id="tables-17-3-25-4-5">
		<path class="st10" d="M949.1,179.7v-35.6c0.1-1.6-1-3-2.6-3.1h-17.7v38.9L949.1,179.7L949.1,179.7z"/>
		<path class="st10" d="M928.7,221.5h17.5c1.6-0.1,2.8-1.6,2.7-3.1V180h-20.1v41.6h-0.1L928.7,221.5L928.7,221.5z"/>
		<path class="st10" d="M928.7,179.7h-17.9v38.4c-0.1,1.6,1,3,2.6,3.1H929L928.7,179.7L928.7,179.7z"/>
		<path class="st10" d="M928.7,140.9h-15.5c-1.6,0.1-2.8,1.6-2.7,3.1v35.6h18.1L928.7,140.9z"/>
	</g>
	<line class="st11" x1="949.1" y1="179.7" x2="910.8" y2="179.7"/>
	<line class="st11" x1="928.7" y1="140.9" x2="928.7" y2="221.5"/>
	<path class="st4" d="M981.8,258.9c0.4-4.7,4.3-8.3,9-8.3h6.1c6.1,0.1,11.1,5,11.2,11.1l0,0c0.3,6.1-4.4,11.4-10.5,12l-6.1,0.6h-0.4
		c-4.7,0.1-8.5-3.6-8.7-8.3l-0.3-6.1L981.8,258.9L981.8,258.9z"/>
	<path class="st5" d="M983,258.9c0.4-4.7,4.3-8.3,9-8.3h6.1c6.1,0.1,11.1,5,11.2,11.1l0,0c0.3,6.1-4.4,11.4-10.5,12l-6.1,0.6h-0.4
		c-4.7,0.1-8.5-3.6-8.7-8.3l-0.3-6.1L983,258.9L983,258.9z"/>
	<path class="st6" d="M984.2,258.9c0.4-4.7,4.3-8.3,9-8.3h6.1c6.1,0.1,11.1,5,11.2,11.1l0,0c0.3,6.1-4.4,11.4-10.5,12l-6.1,0.6h-0.6
		c-4.7,0.1-8.5-3.6-8.7-8.3l-0.3-6.1L984.2,258.9L984.2,258.9z"/>
	<path class="st7" d="M991.9,250.5l7.7,0.3c6.1,0.1,11.1,5,11.2,11.1l0,0c0.3,6.1-4.4,11.4-10.5,12l-7.7,0.9"/>
	<path class="st8" d="M951.8,224.7L951.8,224.7c0-1.7,1.3-3.1,2.8-3.1h33c1.6,0.1,2.7,1.6,2.6,3.1l-0.4,73.9l0,0
		c0.1,1.6-1.1,3-2.7,3.1h-33.2c-1.6-0.1-2.7-1.6-2.6-3.1L951.8,224.7L951.8,224.7z"/>
	<path class="st9" d="M950.2,224.4c0-1.6,1.1-2.8,2.7-2.8h33.2c1.6,0.1,2.7,1.6,2.6,3.1l-0.4,73.9l0,0c0.1,1.6-1.1,3-2.7,3.1h-33.2
		c-1.6-0.1-2.7-1.6-2.6-3.1l0.4-73.9V224.4L950.2,224.4z"/>
	<g id="tables-17-3-23-4-11">
		<path class="st10" d="M969.4,260.2v-38.9h-17.7c-1.6,0.1-2.7,1.6-2.6,3.1V260L969.4,260.2z"/>
		<path class="st10" d="M969.3,260.2h-20.1v38.4c-0.1,1.6,1.1,3,2.7,3.1h17.5L969.3,260.2L969.3,260.2z"/>
		<path class="st10" d="M969.2,301.6h15.7c1.6-0.1,2.7-1.6,2.6-3.1V260h-17.9L969.2,301.6L969.2,301.6z"/>
		<path class="st10" d="M969.6,221.2v38.7h18.1v-35.6c0.1-1.6-1.1-3-2.7-3.1h-15.5L969.6,221.2L969.6,221.2z"/>
	</g>
	<line class="st11" x1="987.4" y1="260" x2="949.2" y2="260"/>
	<line class="st11" x1="969.4" y1="301.7" x2="969.4" y2="221.2"/>
	<path class="st4" d="M981.8,337.8c0.4-4.7,4.3-8.3,9-8.3h6.1c6.1,0.1,11.1,5,11.2,11.1l0,0c0.3,6.1-4.4,11.4-10.5,12l-6.1,0.6h-0.4
		c-4.7,0.1-8.5-3.6-8.7-8.3l-0.3-6.1L981.8,337.8L981.8,337.8z"/>
	<path class="st5" d="M983,337.8c0.4-4.7,4.3-8.3,9-8.3h6.1c6.1,0.1,11.1,5,11.2,11.1l0,0c0.3,6.1-4.4,11.4-10.5,12l-6.1,0.6h-0.4
		c-4.7,0.1-8.5-3.6-8.7-8.3l-0.3-6.1L983,337.8L983,337.8z"/>
	<path class="st6" d="M984.2,337.8c0.4-4.7,4.3-8.3,9-8.3h6.1c6.1,0.1,11.1,5,11.2,11.1l0,0c0.3,6.1-4.4,11.4-10.5,12l-6.1,0.6h-0.6
		c-4.7,0.1-8.5-3.6-8.7-8.3l-0.3-6.1L984.2,337.8L984.2,337.8z"/>
	<path class="st7" d="M991.9,329.4l7.7,0.3c6.1,0.1,11.1,5,11.2,11.1l0,0c0.3,6.1-4.4,11.4-10.5,12l-7.7,0.9"/>
	<path class="st8" d="M951.8,303.7L951.8,303.7c0-1.7,1.3-3.1,2.8-3.1h33c1.6,0.1,2.7,1.6,2.6,3.1l-0.4,73.9l0,0
		c0.1,1.6-1.1,3-2.7,3.1h-33.2c-1.6-0.1-2.7-1.6-2.6-3.1L951.8,303.7L951.8,303.7L951.8,303.7z"/>
	<path class="st9" d="M950.2,303.4c0-1.6,1.1-2.8,2.7-2.8h33.2c1.6,0.1,2.7,1.6,2.6,3.1l-0.4,73.9l0,0c0.1,1.6-1.1,3-2.7,3.1h-33.2
		c-1.6-0.1-2.7-1.6-2.6-3.1l0.4-73.9V303.4L950.2,303.4z"/>
	<g id="tables-17-3-23-4-12">
		<path class="st10" d="M969.4,339.1v-38.9h-17.7c-1.6,0.1-2.7,1.6-2.6,3.1V339L969.4,339.1z"/>
		<path class="st10" d="M969.3,339.1h-20.1v38.4c-0.1,1.6,1.1,3,2.7,3.1h17.5L969.3,339.1L969.3,339.1z"/>
		<path class="st10" d="M969.2,380.5h15.7c1.6-0.1,2.7-1.6,2.6-3.1V339h-17.9L969.2,380.5L969.2,380.5z"/>
		<path class="st10" d="M969.6,300.1v38.7h18.1v-35.6c0.1-1.6-1.1-3-2.7-3.1h-15.5H969.6z"/>
	</g>
	<line class="st11" x1="987.4" y1="339" x2="949.2" y2="339"/>
	<line class="st11" x1="969.4" y1="380.7" x2="969.4" y2="300.1"/>
	<path class="st4" d="M982.2,178.6c0.4-4.7,4.3-8.3,9-8.3h6.1c6.1,0.1,11.1,5,11.2,11.1l0,0c0.3,6.1-4.4,11.4-10.5,12l-6.1,0.6h-0.6
		c-4.7,0.1-8.5-3.6-8.7-8.3l-0.3-6.1L982.2,178.6L982.2,178.6z"/>
	<path class="st5" d="M983.2,178.6c0.4-4.7,4.3-8.3,9-8.3h6.1c6.1,0.1,11.1,5,11.2,11.1l0,0c0.3,6.1-4.4,11.4-10.5,12l-6.1,0.6h-0.4
		c-4.7,0.1-8.5-3.6-8.7-8.3l-0.3-6.1L983.2,178.6L983.2,178.6z"/>
	<path class="st6" d="M984.4,178.6c0.4-4.7,4.3-8.3,9-8.3h6.1c6.1,0.1,11.1,5,11.2,11.1l0,0c0.3,6.1-4.4,11.4-10.5,12l-6.1,0.6h-0.4
		c-4.7,0.1-8.5-3.6-8.7-8.3l-0.3-6.1L984.4,178.6L984.4,178.6z"/>
	<path class="st7" d="M992.4,170.2l7.7,0.3c6.1,0.1,11.1,5,11.2,11.1l0,0c0.3,6.1-4.4,11.4-10.5,12l-7.7,0.9"/>
	<path class="st8" d="M952.2,144.3c0-1.7,1.1-3,2.7-3.1h33.2c1.6,0.1,2.7,1.6,2.6,3.1l-0.4,73.9l0,0c0.1,1.6-1.1,3-2.7,3.1h-33.2
		c-1.6-0.1-2.7-1.6-2.6-3.1L952.2,144.3C952.1,144.2,952.1,144.2,952.2,144.3z"/>
	<path class="st9" d="M950.5,144.3c-0.1-1.7,1-3,2.6-3.1h33.2c1.6,0.1,2.7,1.6,2.6,3.1l-0.4,73.9l0,0c0.1,1.6-1.1,3-2.7,3.1h-33.2
		c-1.6-0.1-2.7-1.6-2.6-3.1L950.5,144.3L950.5,144.3L950.5,144.3z"/>
	<g id="tables-17-3-25-4-6">
		<path class="st10" d="M949.4,179.7l20.2,0.1V141h-17.7c-1.6,0.1-2.7,1.6-2.6,3.1L949.4,179.7L949.4,179.7z"/>
		<path class="st10" d="M969.6,221.5v-41.6h-20.1v38.4c-0.1,1.6,1.1,3,2.7,3.1h17.5h-0.1L969.6,221.5L969.6,221.5z"/>
		<path class="st10" d="M969.4,221.3h15.7c1.6-0.1,2.7-1.6,2.6-3.1v-38.4h-17.9L969.4,221.3L969.4,221.3z"/>
		<path class="st10" d="M969.9,179.6H988V144c0.1-1.6-1.1-3-2.7-3.1h-15.5L969.9,179.6z"/>
	</g>
	<line class="st11" x1="987.7" y1="179.7" x2="949.4" y2="179.7"/>
	<line class="st11" x1="969.7" y1="221.5" x2="969.7" y2="140.9"/>
	<path class="st4" d="M951.8,485c4.7,0.4,8.3,4.3,8.3,9v6.1c-0.1,6.1-5,11.1-11.1,11.2l0,0c-6.1,0.3-11.4-4.4-12-10.5l-0.6-6.1v-0.4
		c-0.1-4.7,3.6-8.5,8.3-8.7l6.1-0.3L951.8,485L951.8,485z"/>
	<path class="st5" d="M951.8,486.1c4.7,0.4,8.3,4.3,8.3,9v6.1c-0.1,6.1-5,11.1-11.1,11.2l0,0c-6.1,0.3-11.4-4.4-12-10.5l-0.6-6.1
		v-0.4c-0.1-4.7,3.6-8.5,8.3-8.7l6.1-0.3L951.8,486.1L951.8,486.1z"/>
	<path class="st6" d="M951.8,487.4c4.7,0.4,8.3,4.3,8.3,9v6.1c-0.1,6.1-5,11.1-11.1,11.2l0,0c-6.1,0.3-11.4-4.4-12-10.5l-0.6-6.1
		v-0.6c-0.1-4.7,3.6-8.5,8.3-8.7l6.1-0.3L951.8,487.4L951.8,487.4z"/>
	<path class="st7" d="M960.2,495.1l-0.3,7.7c-0.1,6.1-5,11.1-11.1,11.2l0,0c-6.1,0.3-11.4-4.4-12-10.5l-0.9-7.7"/>
	<path class="st8" d="M986,454.9L986,454.9c1.7,0,3.1,1.3,3.1,2.8v33c-0.1,1.6-1.6,2.7-3.1,2.6l-73.9-0.4l0,0
		c-1.6,0.1-3-1.1-3.1-2.7V457c0.1-1.6,1.6-2.7,3.1-2.6L986,454.9L986,454.9z"/>
	<path class="st9" d="M986.3,453.4c1.6,0,2.8,1.1,2.8,2.7v33.2c-0.1,1.6-1.6,2.7-3.1,2.6l-73.9-0.4l0,0c-1.6,0.1-3-1.1-3.1-2.7
		v-33.2c0.1-1.6,1.6-2.7,3.1-2.6l73.9,0.4H986.3L986.3,453.4z"/>
	<g id="tables-17-3-23-4-13">
		<path class="st10" d="M950.5,472.6h38.9v-17.7c-0.1-1.6-1.6-2.7-3.1-2.6h-35.6L950.5,472.6L950.5,472.6z"/>
		<path class="st10" d="M950.5,472.4v-20.1h-38.4c-1.6-0.1-3,1.1-3.1,2.7v17.5L950.5,472.4z"/>
		<path class="st10" d="M909.1,472.3V488c0.1,1.6,1.6,2.7,3.1,2.6h38.4v-17.9L909.1,472.3z"/>
		<path class="st10" d="M989.5,472.7h-38.7v18.1h35.6c1.6,0.1,3-1.1,3.1-2.7v-15.5L989.5,472.7L989.5,472.7z"/>
	</g>
	<line class="st11" x1="950.7" y1="490.5" x2="950.7" y2="452.4"/>
	<path class="st4" d="M872.9,485c4.7,0.4,8.3,4.3,8.3,9v6.1c-0.1,6.1-5,11.1-11.1,11.2l0,0c-6.1,0.3-11.4-4.4-12-10.5l-0.6-6.1v-0.4
		c-0.1-4.7,3.6-8.5,8.3-8.7l6.1-0.3L872.9,485L872.9,485z"/>
	<path class="st5" d="M872.9,486.1c4.7,0.4,8.3,4.3,8.3,9v6.1c-0.1,6.1-5,11.1-11.1,11.2l0,0c-6.1,0.3-11.4-4.4-12-10.5l-0.6-6.1
		v-0.4c-0.1-4.7,3.6-8.5,8.3-8.7l6.1-0.3L872.9,486.1L872.9,486.1z"/>
	<path class="st6" d="M872.9,487.4c4.7,0.4,8.3,4.3,8.3,9v6.1c-0.1,6.1-5,11.1-11.1,11.2l0,0c-6.1,0.3-11.4-4.4-12-10.5l-0.6-6.1
		v-0.6c-0.1-4.7,3.6-8.5,8.3-8.7l6.1-0.3L872.9,487.4L872.9,487.4z"/>
	<path class="st7" d="M881.3,495.1l-0.3,7.7c-0.1,6.1-5,11.1-11.1,11.2l0,0c-6.1,0.3-11.4-4.4-12-10.5l-0.9-7.7"/>
	<path class="st8" d="M907,454.9L907,454.9c1.7,0,3.1,1.3,3.1,2.8v33c-0.1,1.6-1.6,2.7-3.1,2.6l-73.9-0.4l0,0
		c-1.6,0.1-3-1.1-3.1-2.7V457c0.1-1.6,1.6-2.7,3.1-2.6L907,454.9L907,454.9z"/>
	<path class="st9" d="M907.3,453.4c1.6,0,2.8,1.1,2.8,2.7v33.2c-0.1,1.6-1.6,2.7-3.1,2.6l-73.9-0.4l0,0c-1.6,0.1-3-1.1-3.1-2.7
		v-33.2c0.1-1.6,1.6-2.7,3.1-2.6l73.9,0.4H907.3L907.3,453.4z"/>
	<g id="tables-17-3-23-4-14">
		<path class="st10" d="M871.6,472.6h38.9v-17.7c-0.1-1.6-1.6-2.7-3.1-2.6h-35.6L871.6,472.6L871.6,472.6z"/>
		<path class="st10" d="M871.6,472.4v-20.1h-38.4c-1.6-0.1-3,1.1-3.1,2.7v17.5L871.6,472.4z"/>
		<path class="st10" d="M830.2,472.3V488c0.1,1.6,1.6,2.7,3.1,2.6h38.4v-17.9L830.2,472.3z"/>
		<path class="st10" d="M910.6,472.7h-38.7v18.1h35.6c1.6,0.1,3-1.1,3.1-2.7v-15.5L910.6,472.7L910.6,472.7z"/>
	</g>
	<line class="st11" x1="871.7" y1="490.5" x2="871.7" y2="452.4"/>
	<path class="st4" d="M1032.1,485.4c4.7,0.4,8.3,4.3,8.3,9v6.1c-0.1,6.1-5,11.1-11.1,11.2l0,0c-6.1,0.3-11.4-4.4-12-10.5l-0.6-6.1
		v-0.6c-0.1-4.7,3.6-8.5,8.3-8.7l6.1-0.3L1032.1,485.4L1032.1,485.4z"/>
	<path class="st5" d="M1032.1,486.4c4.7,0.4,8.3,4.3,8.3,9v6.1c-0.1,6.1-5,11.1-11.1,11.2l0,0c-6.1,0.3-11.4-4.4-12-10.5l-0.6-6.1
		v-0.4c-0.1-4.7,3.6-8.5,8.3-8.7l6.1-0.3L1032.1,486.4L1032.1,486.4z"/>
	<path class="st6" d="M1032.1,487.5c4.7,0.4,8.3,4.3,8.3,9v6.1c-0.1,6.1-5,11.1-11.1,11.2l0,0c-6.1,0.3-11.4-4.4-12-10.5l-0.6-6.1
		v-0.4c-0.1-4.7,3.6-8.5,8.3-8.7l6.1-0.3L1032.1,487.5L1032.1,487.5z"/>
	<path class="st7" d="M1040.5,495.5l-0.3,7.7c-0.1,6.1-5,11.1-11.1,11.2l0,0c-6.1,0.3-11.4-4.4-12-10.5l-0.9-7.7"/>
	<path class="st8" d="M1066.4,455.3c1.7,0,3,1.1,3.1,2.7v33.2c-0.1,1.6-1.6,2.7-3.1,2.6l-73.9-0.4l0,0c-1.6,0.1-3-1.1-3.1-2.7v-33.2
		c0.1-1.6,1.6-2.7,3.1-2.6L1066.4,455.3C1066.5,455.3,1066.5,455.3,1066.4,455.3z"/>
	<path class="st9" d="M1066.4,453.6c1.7-0.1,3,1,3.1,2.6v33.2c-0.1,1.6-1.6,2.7-3.1,2.6l-73.9-0.4l0,0c-1.6,0.1-3-1.1-3.1-2.7v-33.2
		c0.1-1.6,1.6-2.7,3.1-2.6L1066.4,453.6L1066.4,453.6L1066.4,453.6z"/>
	<g id="tables-17-3-25-4-7">
		<path class="st10" d="M1031,452.5l-0.1,20.2h38.9V455c-0.1-1.6-1.6-2.7-3.1-2.6L1031,452.5L1031,452.5z"/>
		<path class="st10" d="M989.2,472.7h41.6v-20.1h-38.4c-1.6-0.1-3,1.1-3.1,2.7v17.5v-0.1H989.2z"/>
		<path class="st10" d="M989.4,472.6v15.7c0.1,1.6,1.6,2.7,3.1,2.6h38.4V473L989.4,472.6L989.4,472.6z"/>
		<path class="st10" d="M1031.1,473v18.1h35.6c1.6,0.1,3-1.1,3.1-2.7v-15.5L1031.1,473L1031.1,473z"/>
	</g>
	<line class="st11" x1="1031" y1="490.8" x2="1031" y2="452.5"/>
	<path class="st4" d="M951.8,750.7c4.7,0.4,8.3,4.3,8.3,9v6.1c-0.1,6.1-5,11.1-11.1,11.2l0,0c-6.1,0.3-11.4-4.4-12-10.5l-0.6-6.1
		V760c-0.1-4.7,3.6-8.5,8.3-8.7l6.1-0.3L951.8,750.7L951.8,750.7z"/>
	<path class="st5" d="M951.8,751.8c4.7,0.4,8.3,4.3,8.3,9v6.1c-0.1,6.1-5,11.1-11.1,11.2l0,0c-6.1,0.3-11.4-4.4-12-10.5l-0.6-6.1
		V761c-0.1-4.7,3.6-8.5,8.3-8.7l6.1-0.3L951.8,751.8L951.8,751.8z"/>
	<path class="st6" d="M951.8,753.1c4.7,0.4,8.3,4.3,8.3,9v6.1c-0.1,6.1-5,11.1-11.1,11.2l0,0c-6.1,0.3-11.4-4.4-12-10.5l-0.6-6.1
		v-0.6c-0.1-4.7,3.6-8.5,8.3-8.7l6.1-0.3L951.8,753.1L951.8,753.1z"/>
	<path class="st7" d="M960.2,760.8l-0.3,7.7c-0.1,6.1-5,11.1-11.1,11.2l0,0c-6.1,0.3-11.4-4.4-12-10.5l-0.9-7.7"/>
	<path class="st8" d="M986,720.6L986,720.6c1.7,0,3.1,1.3,3.1,2.8v33c-0.1,1.6-1.6,2.7-3.1,2.6l-73.9-0.4l0,0
		c-1.6,0.1-3-1.1-3.1-2.7v-33.2c0.1-1.6,1.6-2.7,3.1-2.6L986,720.6L986,720.6L986,720.6z"/>
	<path class="st9" d="M986.3,719.1c1.6,0,2.8,1.1,2.8,2.7V755c-0.1,1.6-1.6,2.7-3.1,2.6l-73.9-0.4l0,0c-1.6,0.1-3-1.1-3.1-2.7v-33.2
		c0.1-1.6,1.6-2.7,3.1-2.6l73.9,0.4H986.3L986.3,719.1z"/>
	<g id="tables-17-3-23-4-15">
		<path class="st10" d="M950.5,738.3h38.9v-17.7c-0.1-1.6-1.6-2.7-3.1-2.6h-35.6L950.5,738.3L950.5,738.3z"/>
		<path class="st10" d="M950.5,738.1V718h-38.4c-1.6-0.1-3,1.1-3.1,2.7v17.5L950.5,738.1L950.5,738.1z"/>
		<path class="st10" d="M909.1,738v15.7c0.1,1.6,1.6,2.7,3.1,2.6h38.4v-17.9L909.1,738L909.1,738z"/>
		<path class="st10" d="M989.5,738.4h-38.7v18.1h35.6c1.6,0.1,3-1.1,3.1-2.7v-15.5L989.5,738.4L989.5,738.4z"/>
	</g>
	<line class="st11" x1="950.7" y1="756.2" x2="950.7" y2="718.1"/>
	<path class="st4" d="M872.6,750.7c4.7,0.4,8.3,4.3,8.3,9v6.1c-0.1,6.1-5,11.1-11.1,11.2l0,0c-6.1,0.3-11.4-4.4-12-10.5l-0.6-6.1
		V760c-0.1-4.7,3.6-8.5,8.3-8.7l6.1-0.3L872.6,750.7L872.6,750.7z"/>
	<path class="st5" d="M872.6,751.8c4.7,0.4,8.3,4.3,8.3,9v6.1c-0.1,6.1-5,11.1-11.1,11.2l0,0c-6.1,0.3-11.4-4.4-12-10.5l-0.6-6.1
		V761c-0.1-4.7,3.6-8.5,8.3-8.7l6.1-0.3L872.6,751.8L872.6,751.8z"/>
	<path class="st6" d="M872.6,753.1c4.7,0.4,8.3,4.3,8.3,9v6.1c-0.1,6.1-5,11.1-11.1,11.2l0,0c-6.1,0.3-11.4-4.4-12-10.5l-0.6-6.1
		v-0.6c-0.1-4.7,3.6-8.5,8.3-8.7l6.1-0.3L872.6,753.1L872.6,753.1z"/>
	<path class="st7" d="M881,760.8l-0.3,7.7c-0.1,6.1-5,11.1-11.1,11.2l0,0c-6.1,0.3-11.4-4.4-12-10.5l-0.9-7.7"/>
	<path class="st8" d="M906.8,720.6L906.8,720.6c1.7,0,3.1,1.3,3.1,2.8v33c-0.1,1.6-1.6,2.7-3.1,2.6l-73.9-0.4l0,0
		c-1.6,0.1-3-1.1-3.1-2.7v-33.2c0.1-1.6,1.6-2.7,3.1-2.6L906.8,720.6L906.8,720.6L906.8,720.6z"/>
	<path class="st9" d="M907.1,719.1c1.6,0,2.8,1.1,2.8,2.7V755c-0.1,1.6-1.6,2.7-3.1,2.6l-73.9-0.4l0,0c-1.6,0.1-3-1.1-3.1-2.7v-33.2
		c0.1-1.6,1.6-2.7,3.1-2.6l73.9,0.4H907.1L907.1,719.1z"/>
	<g id="tables-17-3-23-4-15_00000143585116702478367500000001767208358415214521_">
		<path class="st10" d="M871.3,738.3h38.9v-17.7c-0.1-1.6-1.6-2.7-3.1-2.6h-35.6L871.3,738.3L871.3,738.3z"/>
		<path class="st10" d="M871.3,738.1V718h-38.4c-1.6-0.1-3,1.1-3.1,2.7v17.5L871.3,738.1L871.3,738.1z"/>
		<path class="st10" d="M829.9,738v15.7c0.1,1.6,1.6,2.7,3.1,2.6h38.4v-17.9L829.9,738L829.9,738z"/>
		<path class="st10" d="M910.3,738.4h-38.7v18.1h35.6c1.6,0.1,3-1.1,3.1-2.7v-15.5L910.3,738.4L910.3,738.4z"/>
	</g>
	<line class="st11" x1="871.5" y1="756.2" x2="871.5" y2="718.1"/>
	<path class="st4" d="M680.8,974.4c4.7,0.4,8.3,4.3,8.3,9v6.1c-0.1,6.1-5,11.1-11.1,11.2l0,0c-6.1,0.3-11.4-4.4-12-10.5l-0.6-6.1
		v-0.4c-0.1-4.7,3.6-8.5,8.3-8.7l6.1-0.3L680.8,974.4L680.8,974.4z"/>
	<path class="st5" d="M680.8,975.5c4.7,0.4,8.3,4.3,8.3,9v6.1c-0.1,6.1-5,11.1-11.1,11.2l0,0c-6.1,0.3-11.4-4.4-12-10.5l-0.6-6.1
		v-0.4c-0.1-4.7,3.6-8.5,8.3-8.7l6.1-0.3L680.8,975.5L680.8,975.5z"/>
	<path class="st6" d="M680.8,976.8c4.7,0.4,8.3,4.3,8.3,9v6.1c-0.1,6.1-5,11.1-11.1,11.2l0,0c-6.1,0.3-11.4-4.4-12-10.5l-0.6-6.1
		v-0.6c-0.1-4.7,3.6-8.5,8.3-8.7l6.1-0.3L680.8,976.8L680.8,976.8z"/>
	<path class="st7" d="M689.2,984.5l-0.3,7.7c-0.1,6.1-5,11.1-11.1,11.2l0,0c-6.1,0.3-11.4-4.4-12-10.5l-0.9-7.7"/>
	<path class="st4" d="M711,974.4c4.7,0.4,8.3,4.3,8.3,9v6.1c-0.1,6.1-5,11.1-11.1,11.2l0,0c-6.1,0.3-11.4-4.4-12-10.5l-0.6-6.1v-0.4
		c-0.1-4.7,3.6-8.5,8.3-8.7l6.1-0.3L711,974.4L711,974.4z"/>
	<path class="st5" d="M711,975.5c4.7,0.4,8.3,4.3,8.3,9v6.1c-0.1,6.1-5,11.1-11.1,11.2l0,0c-6.1,0.3-11.4-4.4-12-10.5l-0.6-6.1v-0.4
		c-0.1-4.7,3.6-8.5,8.3-8.7l6.1-0.3L711,975.5L711,975.5z"/>
	<path class="st6" d="M711,976.8c4.7,0.4,8.3,4.3,8.3,9v6.1c-0.1,6.1-5,11.1-11.1,11.2l0,0c-6.1,0.3-11.4-4.4-12-10.5l-0.6-6.1v-0.6
		c-0.1-4.7,3.6-8.5,8.3-8.7l6.1-0.3L711,976.8L711,976.8z"/>
	<path class="st7" d="M719.4,984.5l-0.3,7.7c-0.1,6.1-5,11.1-11.1,11.2l0,0c-6.1,0.3-11.4-4.4-12-10.5l-0.9-7.7"/>
	<path class="st4" d="M744,974.4c4.7,0.4,8.3,4.3,8.3,9v6.1c-0.1,6.1-5,11.1-11.1,11.2l0,0c-6.1,0.3-11.4-4.4-12-10.5l-0.6-6.1v-0.4
		c-0.1-4.7,3.6-8.5,8.3-8.7l6.1-0.3L744,974.4L744,974.4z"/>
	<path class="st5" d="M744,975.5c4.7,0.4,8.3,4.3,8.3,9v6.1c-0.1,6.1-5,11.1-11.1,11.2l0,0c-6.1,0.3-11.4-4.4-12-10.5l-0.6-6.1v-0.4
		c-0.1-4.7,3.6-8.5,8.3-8.7l6.1-0.3L744,975.5L744,975.5z"/>
	<path class="st6" d="M744,976.8c4.7,0.4,8.3,4.3,8.3,9v6.1c-0.1,6.1-5,11.1-11.1,11.2l0,0c-6.1,0.3-11.4-4.4-12-10.5l-0.6-6.1v-0.6
		c-0.1-4.7,3.6-8.5,8.3-8.7l6.1-0.3L744,976.8L744,976.8z"/>
	<path class="st7" d="M752.4,984.5l-0.3,7.7c-0.1,6.1-5,11.1-11.1,11.2l0,0c-6.1,0.3-11.4-4.4-12-10.5l-0.9-7.7"/>
	<path class="st4" d="M1032.1,751.1c4.7,0.4,8.3,4.3,8.3,9v6.1c-0.1,6.1-5,11.1-11.1,11.2l0,0c-6.1,0.3-11.4-4.4-12-10.5l-0.6-6.1
		v-0.6c-0.1-4.7,3.6-8.5,8.3-8.7l6.1-0.3L1032.1,751.1L1032.1,751.1z"/>
	<path class="st5" d="M1032.1,752.1c4.7,0.4,8.3,4.3,8.3,9v6.1c-0.1,6.1-5,11.1-11.1,11.2l0,0c-6.1,0.3-11.4-4.4-12-10.5l-0.6-6.1
		v-0.4c-0.1-4.7,3.6-8.5,8.3-8.7l6.1-0.3L1032.1,752.1L1032.1,752.1z"/>
	<path class="st6" d="M1032.1,753.2c4.7,0.4,8.3,4.3,8.3,9v6.1c-0.1,6.1-5,11.1-11.1,11.2l0,0c-6.1,0.3-11.4-4.4-12-10.5l-0.6-6.1
		v-0.4c-0.1-4.7,3.6-8.5,8.3-8.7l6.1-0.3L1032.1,753.2L1032.1,753.2z"/>
	<path class="st7" d="M1040.5,761.2l-0.3,7.7c-0.1,6.1-5,11.1-11.1,11.2l0,0c-6.1,0.3-11.4-4.4-12-10.5l-0.9-7.7"/>
	<path class="st8" d="M1066.4,721c1.7,0,3,1.1,3.1,2.7v33.2c-0.1,1.6-1.6,2.7-3.1,2.6l-73.9-0.4l0,0c-1.6,0.1-3-1.1-3.1-2.7v-33.2
		c0.1-1.6,1.6-2.7,3.1-2.6L1066.4,721C1066.5,721,1066.5,721,1066.4,721L1066.4,721z"/>
	<path class="st9" d="M1066.4,719.3c1.7-0.1,3,1,3.1,2.6v33.2c-0.1,1.6-1.6,2.7-3.1,2.6l-73.9-0.4l0,0c-1.6,0.1-3-1.1-3.1-2.7v-33.2
		c0.1-1.6,1.6-2.7,3.1-2.6L1066.4,719.3L1066.4,719.3L1066.4,719.3z"/>
	<g id="tables-17-3-25-4-8">
		<path class="st10" d="M1031,718.2l-0.1,20.2h38.9v-17.7c-0.1-1.6-1.6-2.7-3.1-2.6L1031,718.2L1031,718.2z"/>
		<path class="st10" d="M989.2,738.4h41.6v-20.1h-38.4c-1.6-0.1-3,1.1-3.1,2.7v17.5v-0.1L989.2,738.4L989.2,738.4z"/>
		<path class="st10" d="M989.4,738.3V754c0.1,1.6,1.6,2.7,3.1,2.6h38.4v-17.9L989.4,738.3L989.4,738.3z"/>
		<path class="st10" d="M1031.1,738.7v18.1h35.6c1.6,0.1,3-1.1,3.1-2.7v-15.5L1031.1,738.7z"/>
	</g>
	<line class="st11" x1="1031" y1="756.5" x2="1031" y2="718.2"/>
	<path class="st4" d="M950.8,685.9l-6.1-0.3c-4.7-0.1-8.4-4-8.3-8.7v-0.4l0.6-6.1c0.6-6.1,5.8-10.8,12-10.5l0,0
		c6.1,0.1,11,5.1,11.1,11.2v6.1c0,4.7-3.6,8.5-8.3,9L950.8,685.9L950.8,685.9z"/>
	<path class="st5" d="M950.8,684.7l-6.1-0.3c-4.7-0.1-8.4-4-8.3-8.7v-0.4l0.6-6.1c0.6-6.1,5.8-10.8,12-10.5l0,0
		c6.1,0.1,11,5.1,11.1,11.2v6.1c0,4.7-3.6,8.5-8.3,9L950.8,684.7L950.8,684.7z"/>
	<path class="st6" d="M950.8,683.6l-6.1-0.3c-4.7-0.1-8.4-4-8.3-8.7V674l0.6-6.1c0.6-6.1,5.8-10.8,12-10.5l0,0
		c6.1,0.1,11,5.1,11.1,11.2v6.1c0,4.7-3.6,8.5-8.3,9L950.8,683.6L950.8,683.6z"/>
	<path class="st7" d="M936,675.3l0.9-7.7c0.6-6.1,5.8-10.8,12-10.5l0,0c6.1,0.1,11,5.1,11.1,11.2l0.3,7.7"/>
	<path class="st8" d="M986,716.2l-73.9,0.4c-1.6,0.1-3-1-3.1-2.6v-33.2c0.1-1.6,1.6-2.8,3.1-2.7l0,0l73.9-0.4c1.6-0.1,3,1,3.1,2.6
		v33C989.1,714.9,987.7,716.2,986,716.2L986,716.2L986,716.2z"/>
	<path class="st9" d="M986,717.8l-73.9,0.4c-1.6,0.1-3-1-3.1-2.6v-33.2c0.1-1.6,1.6-2.8,3.1-2.7l0,0l73.9-0.4c1.6-0.1,3,1,3.1,2.6
		V715c0,1.6-1.3,2.7-2.8,2.7L986,717.8L986,717.8z"/>
	<g id="tables-17-3-23-4-16">
		<path class="st10" d="M950.7,718.7h35.6c1.6,0.1,3-1,3.1-2.6v-17.7h-38.9L950.7,718.7L950.7,718.7z"/>
		<path class="st10" d="M909,698.5V716c0.1,1.6,1.6,2.8,3.1,2.7h38.4v-20.1L909,698.5L909,698.5z"/>
		<path class="st10" d="M950.7,698.5v-17.9h-38.4c-1.6-0.1-3,1-3.1,2.6v15.7L950.7,698.5L950.7,698.5z"/>
		<path class="st10" d="M989.5,698.5V683c-0.1-1.6-1.6-2.8-3.1-2.7h-35.6v18.1h38.7L989.5,698.5L989.5,698.5z"/>
	</g>
	<line class="st11" x1="950.7" y1="718.7" x2="950.7" y2="680.6"/>
	<path class="st4" d="M871.9,685.9l-6.1-0.3c-4.7-0.1-8.4-4-8.3-8.7v-0.4l0.6-6.1c0.6-6.1,5.8-10.8,12-10.5l0,0
		c6.1,0.1,11,5.1,11.1,11.2v6.1c0,4.7-3.6,8.5-8.3,9L871.9,685.9L871.9,685.9z"/>
	<path class="st5" d="M871.9,684.7l-6.1-0.3c-4.7-0.1-8.4-4-8.3-8.7v-0.4l0.6-6.1c0.6-6.1,5.8-10.8,12-10.5l0,0
		c6.1,0.1,11,5.1,11.1,11.2v6.1c0,4.7-3.6,8.5-8.3,9L871.9,684.7L871.9,684.7z"/>
	<path class="st6" d="M871.9,683.6l-6.1-0.3c-4.7-0.1-8.4-4-8.3-8.7V674l0.6-6.1c0.6-6.1,5.8-10.8,12-10.5l0,0
		c6.1,0.1,11,5.1,11.1,11.2v6.1c0,4.7-3.6,8.5-8.3,9L871.9,683.6L871.9,683.6z"/>
	<path class="st7" d="M857.1,675.3l0.9-7.7c0.6-6.1,5.8-10.8,12-10.5l0,0c6.1,0.1,11,5.1,11.1,11.2l0.3,7.7"/>
	<path class="st8" d="M907,716.2l-73.9,0.4c-1.6,0.1-3-1-3.1-2.6v-33.2c0.1-1.6,1.6-2.8,3.1-2.7l0,0l73.9-0.4c1.6-0.1,3,1,3.1,2.6
		v33C910.2,714.9,908.8,716.2,907,716.2L907,716.2L907,716.2z"/>
	<path class="st9" d="M907,717.8l-73.9,0.4c-1.6,0.1-3-1-3.1-2.6v-33.2c0.1-1.6,1.6-2.8,3.1-2.7l0,0l73.9-0.4c1.6-0.1,3,1,3.1,2.6
		V715c0,1.6-1.3,2.7-2.8,2.7L907,717.8L907,717.8z"/>
	<g id="tables-17-3-23-4-17">
		<path class="st10" d="M871.7,718.7h35.6c1.6,0.1,3-1,3.1-2.6v-17.7h-38.9L871.7,718.7L871.7,718.7z"/>
		<path class="st10" d="M830,698.5V716c0.1,1.6,1.6,2.8,3.1,2.7h38.4v-20.1L830,698.5L830,698.5z"/>
		<path class="st10" d="M871.7,698.5v-17.9h-38.4c-1.6-0.1-3,1-3.1,2.6v15.7L871.7,698.5L871.7,698.5z"/>
		<path class="st10" d="M910.6,698.5V683c-0.1-1.6-1.6-2.8-3.1-2.7h-35.6v18.1h38.7L910.6,698.5L910.6,698.5z"/>
	</g>
	<line class="st11" x1="871.7" y1="718.7" x2="871.7" y2="680.6"/>
	<path class="st4" d="M1031.1,685.6l-6.1-0.3c-4.7-0.1-8.4-4-8.3-8.7V676l0.6-6.1c0.6-6.1,5.8-10.8,12-10.5l0,0
		c6.1,0.1,11,5.1,11.1,11.2v6.1c0,4.7-3.6,8.5-8.3,9L1031.1,685.6L1031.1,685.6z"/>
	<path class="st5" d="M1031.1,684.4l-6.1-0.3c-4.7-0.1-8.4-4-8.3-8.7V675l0.6-6.1c0.6-6.1,5.8-10.8,12-10.5l0,0
		c6.1,0.1,11,5.1,11.1,11.2v6.1c0,4.7-3.6,8.5-8.3,9L1031.1,684.4L1031.1,684.4z"/>
	<path class="st6" d="M1031.1,683.3l-6.1-0.3c-4.7-0.1-8.4-4-8.3-8.7v-0.4l0.6-6.1c0.6-6.1,5.8-10.8,12-10.5l0,0
		c6.1,0.1,11,5.1,11.1,11.2v6.1c0,4.7-3.6,8.5-8.3,9L1031.1,683.3L1031.1,683.3z"/>
	<path class="st7" d="M1016.3,674.9l0.9-7.7c0.6-6.1,5.8-10.8,12-10.5l0,0c6.1,0.1,11,5.1,11.1,11.2l0.3,7.7"/>
	<path class="st8" d="M1066.4,715.8l-73.9,0.4c-1.6,0.1-3-1-3.1-2.6v-33.2c0.1-1.6,1.6-2.8,3.1-2.7l0,0l73.9-0.4
		c1.6-0.1,3,1,3.1,2.6v33.2C1069.4,714.6,1068.1,715.8,1066.4,715.8C1066.5,715.9,1066.5,715.9,1066.4,715.8z"/>
	<path class="st9" d="M1066.4,717.5l-73.9,0.6c-1.6,0.1-3-1-3.1-2.6v-33.2c0.1-1.6,1.6-2.8,3.1-2.7l0,0l73.9-0.4
		c1.6-0.1,3,1,3.1,2.6V715C1069.4,716.5,1068.1,717.6,1066.4,717.5L1066.4,717.5L1066.4,717.5z"/>
	<g id="tables-17-3-25-4-9">
		<path class="st10" d="M1031,718.6h35.6c1.6,0.1,3-1,3.1-2.6v-17.7h-38.9L1031,718.6L1031,718.6z"/>
		<path class="st10" d="M989.2,698.2v17.5c0.1,1.6,1.6,2.8,3.1,2.7h38.4v-20.1h-41.6v-0.1L989.2,698.2L989.2,698.2z"/>
		<path class="st10" d="M1031,698.2v-17.9h-38.4c-1.6-0.1-3,1-3.1,2.6v15.7L1031,698.2L1031,698.2z"/>
		<path class="st10" d="M1069.8,698.2v-15.5c-0.1-1.6-1.6-2.8-3.1-2.7h-35.6v18.1L1069.8,698.2z"/>
	</g>
	<line class="st11" x1="1031" y1="718.6" x2="1031" y2="680.3"/>
	<path class="st4" d="M596.4,626.6c-0.4,4.7-4.3,8.3-9,8.3h-6.1c-6.1-0.1-11.1-5-11.2-11.1l0,0c-0.3-6.1,4.4-11.4,10.5-12l6.1-0.6
		h0.4c4.7-0.1,8.5,3.6,8.7,8.3l0.3,6.1L596.4,626.6L596.4,626.6z"/>
	<path class="st5" d="M595.3,626.6c-0.4,4.7-4.3,8.3-9,8.3h-6.1c-6.1-0.1-11.1-5-11.2-11.1l0,0c-0.3-6.1,4.4-11.4,10.5-12l6.1-0.6
		h0.4c4.7-0.1,8.5,3.6,8.7,8.3l0.3,6.1L595.3,626.6L595.3,626.6z"/>
	<path class="st6" d="M594,626.6c-0.4,4.7-4.3,8.3-9,8.3h-6.1c-6.1-0.1-11.1-5-11.2-11.1l0,0c-0.3-6.1,4.4-11.4,10.5-12l6.1-0.6h0.6
		c4.7-0.1,8.5,3.6,8.7,8.3l0.3,6.1L594,626.6L594,626.6z"/>
	<path class="st7" d="M586.3,635l-7.7-0.3c-6.1-0.1-11.1-5-11.2-11.1l0,0c-0.3-6.1,4.4-11.4,10.5-12l7.7-0.9"/>
	<path class="st8" d="M626.4,660.7L626.4,660.7c0,1.7-1.3,3.1-2.8,3.1h-33c-1.6-0.1-2.7-1.6-2.6-3.1l0.4-73.9l0,0
		c-0.1-1.6,1.1-3,2.7-3.1h33.2c1.6,0.1,2.7,1.6,2.6,3.1L626.4,660.7L626.4,660.7L626.4,660.7z"/>
	<path class="st9" d="M628,661c0,1.6-1.1,2.8-2.7,2.8h-33.2c-1.6-0.1-2.7-1.6-2.6-3.1l0.4-73.9l0,0c-0.1-1.6,1.1-3,2.7-3.1h33.2
		c1.6,0.1,2.7,1.6,2.6,3.1l-0.4,73.9V661L628,661z"/>
	<g id="tables-17-3-23-4-18">
		<path class="st10" d="M608.8,625.3v38.9h17.7c1.6-0.1,2.7-1.6,2.6-3.1v-35.6L608.8,625.3L608.8,625.3z"/>
		<path class="st10" d="M608.9,625.3H629v-38.4c0.1-1.6-1.1-3-2.7-3.1h-17.5L608.9,625.3L608.9,625.3z"/>
		<path class="st10" d="M609.1,583.8h-15.7c-1.6,0.1-2.7,1.6-2.6,3.1v38.4h17.9L609.1,583.8L609.1,583.8z"/>
		<path class="st10" d="M608.6,664.3v-38.7h-18.1v35.6c-0.1,1.6,1.1,3,2.7,3.1h15.5L608.6,664.3L608.6,664.3z"/>
	</g>
	<line class="st11" x1="590.8" y1="625.4" x2="629" y2="625.4"/>
	<path class="st4" d="M694.2,626.6c-0.4,4.7-4.3,8.3-9,8.3h-6.1c-6.1-0.1-11.1-5-11.2-11.1l0,0c-0.3-6.1,4.4-11.4,10.5-12l6.1-0.6
		h0.4c4.7-0.1,8.5,3.6,8.7,8.3l0.3,6.1L694.2,626.6L694.2,626.6z"/>
	<path class="st5" d="M693,626.6c-0.4,4.7-4.3,8.3-9,8.3h-6.1c-6.1-0.1-11.1-5-11.2-11.1l0,0c-0.3-6.1,4.4-11.4,10.5-12l6.1-0.6h0.4
		c4.7-0.1,8.5,3.6,8.7,8.3l0.3,6.1L693,626.6L693,626.6z"/>
	<path class="st6" d="M691.7,626.6c-0.4,4.7-4.3,8.3-9,8.3h-6.1c-6.1-0.1-11.1-5-11.2-11.1l0,0c-0.3-6.1,4.4-11.4,10.5-12l6.1-0.6
		h0.6c4.7-0.1,8.5,3.6,8.7,8.3l0.3,6.1L691.7,626.6L691.7,626.6z"/>
	<path class="st7" d="M684.1,635l-7.7-0.3c-6.1-0.1-11.1-5-11.2-11.1l0,0c-0.3-6.1,4.4-11.4,10.5-12l7.7-0.9"/>
	<path class="st8" d="M724.2,660.7L724.2,660.7c0,1.7-1.3,3.1-2.8,3.1h-33c-1.6-0.1-2.7-1.6-2.6-3.1l0.4-73.9l0,0
		c-0.1-1.6,1.1-3,2.7-3.1h33.2c1.6,0.1,2.7,1.6,2.6,3.1L724.2,660.7L724.2,660.7z"/>
	<path class="st9" d="M725.8,661c0,1.6-1.1,2.8-2.7,2.8h-33.2c-1.6-0.1-2.7-1.6-2.6-3.1l0.4-73.9l0,0c-0.1-1.6,1.1-3,2.7-3.1h33.2
		c1.6,0.1,2.7,1.6,2.6,3.1l-0.4,73.9V661L725.8,661z"/>
	<g id="tables-17-3-23-4-19">
		<path class="st10" d="M706.5,625.3v38.9h17.7c1.6-0.1,2.7-1.6,2.6-3.1v-35.6L706.5,625.3L706.5,625.3z"/>
		<path class="st10" d="M706.7,625.3h20.1v-38.4c0.1-1.6-1.1-3-2.7-3.1h-17.5L706.7,625.3L706.7,625.3z"/>
		<path class="st10" d="M706.8,583.8h-15.7c-1.6,0.1-2.7,1.6-2.6,3.1v38.4h17.9L706.8,583.8L706.8,583.8z"/>
		<path class="st10" d="M706.4,664.3v-38.7h-18.1v35.6c-0.1,1.6,1.1,3,2.7,3.1h15.5L706.4,664.3L706.4,664.3z"/>
	</g>
	<line class="st11" x1="688.6" y1="625.4" x2="726.8" y2="625.4"/>
	<path class="st8" d="M751.4,939.7L751.4,939.7c2,0,3.6,1.5,3.6,3.3v38.5c-0.2,1.8-1.8,3.2-3.6,3l-86-0.5l0,0
		c-1.8,0.2-3.5-1.3-3.6-3.2v-38.6c0.2-1.8,1.8-3.2,3.6-3L751.4,939.7L751.4,939.7z"/>
	<path class="st9" d="M751.7,937.9c1.8,0,3.3,1.3,3.3,3.2v38.6c-0.2,1.8-1.8,3.2-3.6,3l-86-0.5l0,0c-1.8,0.2-3.5-1.3-3.6-3.2v-38.6
		c0.2-1.8,1.8-3.2,3.6-3l86,0.5H751.7L751.7,937.9z"/>
	<g id="tables-17-3-23-4-20">
		<path class="st10" d="M710.1,960.3h45.3v-20.6c-0.2-1.8-1.8-3.2-3.6-3h-41.4L710.1,960.3z"/>
		<path class="st10" d="M710.1,960.1v-23.4h-44.8c-1.8-0.2-3.5,1.3-3.6,3.2v20.4L710.1,960.1L710.1,960.1z"/>
		<path class="st10" d="M661.9,959.9v18.2c0.2,1.8,1.8,3.2,3.6,3h44.8v-20.9L661.9,959.9L661.9,959.9z"/>
		<path class="st10" d="M755.6,960.4h-45.1v21.1h41.4c1.8,0.2,3.5-1.3,3.6-3.2v-18.1L755.6,960.4L755.6,960.4z"/>
	</g>
	<line class="st11" x1="710.3" y1="981.1" x2="710.3" y2="936.7"/>
	<path class="st12" d="M752.7,1128.1c7.1-0.7,13.4,4.6,14.1,11.7v0.3l0,0v0.3c0.7,7.1-4.6,13.4-11.7,14.1h-0.4l-0.1,0.1
		c-7.1,0.7-13.4-4.6-14.1-11.7v-0.3l0,0v-0.3C740.1,1135.1,745.5,1128.7,752.7,1128.1L752.7,1128.1z"/>
	<circle class="st9" cx="753.5" cy="1139.8" r="13.2"/>
	<circle class="st13" cx="753.6" cy="1138.5" r="13.2"/>
	<path class="st14" d="M709.5,1153.8l-13.4-3.4c-8.3-2.2-13.1-10.7-11-18.9l0,0l5.6-21.1c1.4-5.1,6.6-8.1,11.7-6.7l24.7,6.6
		c5.1,1.4,8.1,6.6,6.7,11.7l0,0l-5.6,21.1C725.8,1151.1,717.6,1155.8,709.5,1153.8L709.5,1153.8L709.5,1153.8z"/>
	<path class="st15" d="M710.6,1152.9l-13.4-3.4c-8.3-2.2-13.1-10.7-11-18.9l0,0l5.6-21.1c1.4-5.1,6.6-8.1,11.7-6.7l0,0l24.7,6.6
		c5.1,1.4,8.1,6.6,6.7,11.7l0,0l-5.6,21.1C727.2,1150.3,718.7,1155.1,710.6,1152.9L710.6,1152.9z"/>
	<path class="st16" d="M711.5,1152.2l-13.4-3.4c-8.3-2.2-13.1-10.7-11-18.9l0,0l5.6-21.1c1.4-5.1,6.6-8.1,11.7-6.7l0,0l24.8,6.7
		c5.1,1.4,8.1,6.6,6.7,11.7l0,0l-5.6,21.1C728,1149.6,719.6,1154.4,711.5,1152.2L711.5,1152.2L711.5,1152.2z"/>
	<path class="st14" d="M687.8,1127.8c-2.3,8.2,2.7,16.7,10.8,18.9h0.2l13.4,3.4c8.2,2.3,16.7-2.7,18.9-10.8v-0.2l0,0
		C715.8,1139.2,700.9,1135.3,687.8,1127.8"/>
	<path class="st17" d="M687.3,1129.7c-2.3,8.2,2.7,16.7,10.8,18.9h0.2l13.4,3.4c8.2,2.3,16.7-2.7,18.9-10.8v-0.2l0,0
		C715.4,1141.3,700.4,1137.4,687.3,1129.7"/>
	<path class="st14" d="M809.3,1120.9l-8,11.2c-5.1,6.9-14.7,8.3-21.6,3.4l0,0l-17.6-12.9c-4.2-3.1-5.2-9.1-2-13.3l15.1-20.6
		c3.1-4.2,9.1-5.2,13.3-2l0,0l17.6,12.9C812.7,1104.8,814.2,1114.1,809.3,1120.9L809.3,1120.9L809.3,1120.9z"/>
	<path class="st15" d="M808.9,1119.6l-8,11.2c-5.1,6.9-14.7,8.3-21.6,3.4l0,0l-17.6-12.9c-4.2-3.1-5.2-9.1-2-13.3l0,0l15.1-20.6
		c3.1-4.2,9.1-5.2,13.3-2l0,0l17.6,12.9C812.5,1103.2,813.9,1112.8,808.9,1119.6L808.9,1119.6z"/>
	<path class="st16" d="M808.5,1118.4l-8,11.2c-5.1,6.9-14.7,8.3-21.6,3.4l0,0l-17.6-12.9c-4.2-3.1-5.2-9.1-2-13.3l0,0l15.2-20.7
		c3.1-4.2,9.1-5.2,13.3-2l0,0l17.6,12.9C812.2,1102.2,813.5,1111.7,808.5,1118.4L808.5,1118.4L808.5,1118.4z"/>
	<path class="st14" d="M777.2,1131.7c6.8,5.1,16.5,3.5,21.5-3.2l0.1-0.2l0,0l8-11.2c5.1-6.8,3.5-16.5-3.2-21.5l-0.2-0.1l0,0
		C798,1109.7,789,1122.2,777.2,1131.7"/>
	<path class="st17" d="M778.8,1132.8c6.8,5.1,16.5,3.5,21.5-3.2l0.1-0.2l0,0l8-11.2c5.1-6.8,3.5-16.5-3.2-21.5l-0.2-0.1l0,0
		C799.8,1110.9,790.8,1123.4,778.8,1132.8"/>
</g>
<g id="Bookable">
	<rect id="area-07.0702-status" x="818.8" y="837.5" class="st18" width="291" height="194.4"/>
	<rect id="area-07.0701-status" x="818.8" y="1030.6" class="st18" width="291" height="133.9"/>
	<g id="Names">
		<path class="st10" d="M938.6,1110.8c-2.4,0-4-0.8-5-2.5s-1.4-4-1.4-7.1s0.5-5.5,1.4-7.1s2.6-2.5,5-2.5s4,0.8,5,2.5
			s1.4,4.1,1.4,7.1s-0.5,5.5-1.4,7.1C942.6,1109.9,941,1110.8,938.6,1110.8z M940.7,1106.1c0.3-1.1,0.5-2.8,0.5-4.9
			c0-2.2-0.2-3.9-0.5-5s-1.1-1.6-2.1-1.6s-1.8,0.5-2.2,1.6s-0.5,2.7-0.5,5c0,2.1,0.2,3.8,0.5,4.9s1.1,1.7,2.2,1.7
			S940.4,1107.2,940.7,1106.1L940.7,1106.1z"/>
		<path class="st10" d="M957.6,1097.6c-1,1.4-1.8,2.8-2.5,4.3c-0.5,1.2-1,2.6-1.4,4.3s-0.6,3-0.6,4.1h-3.8c0.1-3.3,1.2-6.8,3.3-10.4
			c1.3-2.2,2.5-3.8,3.4-4.7h-9.3l0.1-3.3H960v2.9C959.3,1095.3,958.6,1096.2,957.6,1097.6L957.6,1097.6z"/>
		<path class="st10" d="M959.2,1110.3l7.4-19.6h3.1l-7.4,19.6H959.2z"/>
		<path class="st10" d="M975.3,1110.8c-2.4,0-4-0.8-5-2.5s-1.4-4-1.4-7.1s0.5-5.5,1.4-7.1s2.6-2.5,5-2.5s4,0.8,5,2.5
			s1.4,4.1,1.4,7.1s-0.5,5.5-1.4,7.1C979.3,1109.9,977.6,1110.8,975.3,1110.8z M977.4,1106.1c0.3-1.1,0.5-2.8,0.5-4.9
			c0-2.2-0.2-3.9-0.5-5s-1.1-1.6-2.1-1.6s-1.8,0.5-2.2,1.6s-0.5,2.7-0.5,5c0,2.1,0.2,3.8,0.5,4.9s1.1,1.7,2.2,1.7
			S977.1,1107.2,977.4,1106.1L977.4,1106.1z"/>
		<path class="st10" d="M992.6,1110.3h-3.8v-12.9h-4.4v-2.5c1.2-0.1,2-0.1,2.4-0.2c0.7-0.2,1.3-0.5,1.8-1c0.3-0.3,0.6-0.8,0.7-1.3
			c0.1-0.3,0.1-0.6,0.1-0.7h3.1L992.6,1110.3L992.6,1110.3z"/>
		<path class="st10" d="M938.6,948.9c-2.4,0-4-0.8-5-2.5s-1.4-4-1.4-7.1s0.5-5.5,1.4-7.1s2.6-2.5,5-2.5s4,0.8,5,2.5s1.4,4.1,1.4,7.1
			s-0.5,5.5-1.4,7.1C942.6,948.1,941,948.9,938.6,948.9z M940.7,944.2c0.3-1.1,0.5-2.8,0.5-4.9c0-2.2-0.2-3.9-0.5-5
			s-1.1-1.6-2.1-1.6s-1.8,0.5-2.2,1.6s-0.5,2.7-0.5,5c0,2.1,0.2,3.8,0.5,4.9s1.1,1.7,2.2,1.7S940.4,945.4,940.7,944.2L940.7,944.2z"
			/>
		<path class="st10" d="M957.6,935.8c-1,1.4-1.8,2.8-2.5,4.3c-0.5,1.2-1,2.6-1.4,4.3s-0.6,3-0.6,4.1h-3.8c0.1-3.3,1.2-6.8,3.3-10.4
			c1.3-2.2,2.5-3.8,3.4-4.7h-9.3l0.1-3.3H960v2.9C959.3,933.5,958.6,934.4,957.6,935.8L957.6,935.8z"/>
		<path class="st10" d="M959.2,948.5l7.4-19.6h3.1l-7.4,19.6H959.2z"/>
		<path class="st10" d="M975.3,948.9c-2.4,0-4-0.8-5-2.5s-1.4-4-1.4-7.1s0.5-5.5,1.4-7.1s2.6-2.5,5-2.5s4,0.8,5,2.5s1.4,4.1,1.4,7.1
			s-0.5,5.5-1.4,7.1C979.3,948.1,977.6,948.9,975.3,948.9z M977.4,944.2c0.3-1.1,0.5-2.8,0.5-4.9c0-2.2-0.2-3.9-0.5-5
			s-1.1-1.6-2.1-1.6s-1.8,0.5-2.2,1.6s-0.5,2.7-0.5,5c0,2.1,0.2,3.8,0.5,4.9s1.1,1.7,2.2,1.7S977.1,945.4,977.4,944.2L977.4,944.2z"
			/>
		<path class="st10" d="M991.8,933.6c-0.4-0.5-1.1-0.8-1.9-0.8c-1.1,0-1.9,0.4-2.3,1.2c-0.2,0.5-0.4,1.2-0.4,2.3h-3.6
			c0.1-1.6,0.3-2.9,0.9-3.9c1-1.9,2.7-2.8,5.2-2.8c2,0,3.5,0.5,4.7,1.6s1.8,2.5,1.8,4.3c0,1.4-0.4,2.6-1.2,3.7
			c-0.5,0.7-1.4,1.5-2.7,2.4l-1.5,1c-0.9,0.7-1.5,1.1-1.9,1.4c-0.3,0.3-0.6,0.6-0.9,1h8.2v3.2h-12.8c0-1.3,0.3-2.6,0.9-3.7
			c0.5-1.2,1.8-2.6,3.7-4c1.7-1.2,2.8-2.1,3.3-2.6c0.8-0.8,1.1-1.7,1.1-2.7C992.5,934.8,992.3,934.1,991.8,933.6L991.8,933.6z"/>
		<g>
			<path class="st19" d="M552.4,652.3c0.4,0.7,0.6,1.7,0.6,3c0,1.2-0.2,2.2-0.5,3c-0.5,1.1-1.4,1.7-2.6,1.7c-1.1,0-1.9-0.5-2.4-1.4
				c-0.4-0.8-0.7-1.8-0.7-3.1c0-1,0.1-1.9,0.4-2.6c0.5-1.4,1.4-2,2.7-2C551,650.9,551.9,651.4,552.4,652.3z M551.3,658.3
				c0.3-0.5,0.5-1.5,0.5-2.9c0-1-0.1-1.8-0.4-2.5c-0.2-0.7-0.7-1-1.5-1c-0.7,0-1.1,0.3-1.4,0.9c-0.3,0.6-0.5,1.5-0.5,2.7
				c0,0.9,0.1,1.6,0.3,2.2c0.3,0.8,0.8,1.3,1.5,1.3C550.4,659,550.9,658.8,551.3,658.3z"/>
			<path class="st19" d="M560.2,651v1c-0.3,0.3-0.7,0.8-1.1,1.4c-0.5,0.7-0.9,1.4-1.3,2.2c-0.4,0.8-0.6,1.5-0.8,2.1
				c-0.1,0.4-0.3,1.1-0.5,2h-1.2c0.3-1.7,0.9-3.4,1.9-5.1c0.6-1,1.2-1.8,1.8-2.6h-5v-1L560.2,651L560.2,651z"/>
			<path class="st19" d="M563.5,650.7h0.9l-2.9,9.1h-0.9L563.5,650.7z"/>
			<path class="st19" d="M570.1,652.3c0.4,0.7,0.6,1.7,0.6,3c0,1.2-0.2,2.2-0.5,3c-0.5,1.1-1.4,1.7-2.6,1.7c-1.1,0-1.9-0.5-2.4-1.4
				c-0.4-0.8-0.7-1.8-0.7-3.1c0-1,0.1-1.9,0.4-2.6c0.5-1.4,1.4-2,2.7-2C568.7,650.9,569.6,651.4,570.1,652.3z M569,658.3
				c0.3-0.5,0.5-1.5,0.5-2.9c0-1-0.1-1.8-0.4-2.5s-0.7-1-1.5-1c-0.7,0-1.1,0.3-1.4,0.9c-0.3,0.6-0.5,1.5-0.5,2.7
				c0,0.9,0.1,1.6,0.3,2.2c0.3,0.8,0.8,1.3,1.5,1.3C568.2,659,568.6,658.8,569,658.3z"/>
			<path class="st19" d="M572.8,657.5c0.1,0.6,0.4,1.1,0.9,1.3c0.3,0.1,0.6,0.2,0.9,0.2c0.7,0,1.2-0.2,1.5-0.6
				c0.3-0.4,0.5-0.9,0.5-1.4c0-0.6-0.2-1.1-0.6-1.4c-0.4-0.3-0.8-0.5-1.4-0.5c-0.4,0-0.7,0.1-1,0.2c-0.3,0.1-0.5,0.4-0.7,0.6l-1-0.1
				l0.7-4.8h4.6v1.1h-3.8l-0.4,2.5c0.2-0.2,0.4-0.3,0.6-0.4c0.3-0.1,0.7-0.2,1.2-0.2c0.8,0,1.5,0.3,2.1,0.8s0.9,1.2,0.9,2
				s-0.3,1.6-0.8,2.2c-0.5,0.6-1.4,1-2.5,1c-0.7,0-1.4-0.2-1.9-0.6s-0.9-1-0.9-1.9L572.8,657.5L572.8,657.5z"/>
		</g>
		<g>
			<path class="st19" d="M651.2,652.3c0.4,0.7,0.6,1.7,0.6,3c0,1.2-0.2,2.2-0.5,3c-0.5,1.1-1.4,1.7-2.6,1.7c-1.1,0-1.9-0.5-2.4-1.4
				c-0.4-0.8-0.7-1.8-0.7-3.1c0-1,0.1-1.9,0.4-2.6c0.5-1.4,1.4-2,2.7-2C649.9,650.9,650.7,651.4,651.2,652.3z M650.1,658.3
				c0.3-0.5,0.5-1.5,0.5-2.9c0-1-0.1-1.8-0.4-2.5c-0.2-0.7-0.7-1-1.5-1c-0.7,0-1.1,0.3-1.4,0.9c-0.3,0.6-0.5,1.5-0.5,2.7
				c0,0.9,0.1,1.6,0.3,2.2c0.3,0.8,0.8,1.3,1.5,1.3C649.3,659,649.7,658.8,650.1,658.3z"/>
			<path class="st19" d="M659,651v1c-0.3,0.3-0.7,0.8-1.1,1.4c-0.5,0.7-0.9,1.4-1.3,2.2c-0.4,0.8-0.6,1.5-0.8,2.1
				c-0.1,0.4-0.3,1.1-0.5,2h-1.2c0.3-1.7,0.9-3.4,1.9-5.1c0.6-1,1.2-1.8,1.8-2.6h-4.9v-1L659,651L659,651z"/>
			<path class="st19" d="M662.3,650.7h0.9l-2.9,9.1h-0.9L662.3,650.7z"/>
			<path class="st19" d="M668.9,652.3c0.4,0.7,0.6,1.7,0.6,3c0,1.2-0.2,2.2-0.5,3c-0.5,1.1-1.4,1.7-2.6,1.7c-1.1,0-1.9-0.5-2.4-1.4
				c-0.4-0.8-0.7-1.8-0.7-3.1c0-1,0.1-1.9,0.4-2.6c0.5-1.4,1.4-2,2.7-2C667.6,650.9,668.4,651.4,668.9,652.3z M667.8,658.3
				c0.3-0.5,0.5-1.5,0.5-2.9c0-1-0.1-1.8-0.4-2.5s-0.7-1-1.5-1c-0.7,0-1.1,0.3-1.4,0.9c-0.3,0.6-0.5,1.5-0.5,2.7
				c0,0.9,0.1,1.6,0.3,2.2c0.3,0.8,0.8,1.3,1.5,1.3C667,659,667.4,658.8,667.8,658.3z"/>
			<path class="st19" d="M674.3,659.8v-2.2h-3.9v-1.1l4.1-5.7h0.9v5.8h1.3v1h-1.3v2.2H674.3z M674.3,656.6v-4l-2.9,4H674.3z"/>
		</g>
		<g>
			<path class="st19" d="M942.3,805.6h1.2v9.1h-1.2V805.6z"/>
			<path class="st19" d="M945.4,808.1h1.1v0.9c0.3-0.4,0.6-0.7,1-0.8s0.7-0.3,1.2-0.3c0.9,0,1.6,0.3,1.9,1c0.2,0.4,0.3,0.9,0.3,1.5
				v4.3h-1.1v-4.2c0-0.4-0.1-0.7-0.2-1c-0.2-0.4-0.6-0.6-1.1-0.6c-0.3,0-0.5,0-0.7,0.1c-0.3,0.1-0.6,0.3-0.8,0.5s-0.3,0.4-0.4,0.7
				c-0.1,0.2-0.1,0.6-0.1,1v3.5h-1.1L945.4,808.1L945.4,808.1z"/>
			<path class="st19" d="M953.1,812.6c0,0.4,0.1,0.7,0.3,0.9c0.3,0.4,0.8,0.5,1.5,0.5c0.4,0,0.8-0.1,1.1-0.3s0.5-0.5,0.5-0.8
				s-0.1-0.5-0.4-0.7c-0.2-0.1-0.5-0.2-1-0.3l-0.9-0.2c-0.6-0.1-1-0.3-1.3-0.5c-0.5-0.3-0.7-0.7-0.7-1.3s0.2-1.1,0.7-1.5
				s1.1-0.6,1.9-0.6c1,0,1.7,0.3,2.2,0.9c0.3,0.4,0.4,0.8,0.4,1.2h-1.1c0-0.3-0.1-0.5-0.3-0.7c-0.3-0.3-0.7-0.4-1.4-0.4
				c-0.4,0-0.8,0.1-1,0.2s-0.3,0.4-0.3,0.6c0,0.3,0.1,0.5,0.4,0.7c0.2,0.1,0.4,0.2,0.7,0.3l0.8,0.2c0.8,0.2,1.4,0.4,1.6,0.6
				c0.4,0.3,0.7,0.7,0.7,1.3s-0.2,1.1-0.7,1.5s-1.1,0.6-2.1,0.6s-1.7-0.2-2.1-0.7c-0.4-0.5-0.6-1-0.7-1.7h1.2L953.1,812.6
				L953.1,812.6z"/>
			<path class="st19" d="M963,808.2c0.4,0.2,0.8,0.5,1,0.9c0.2,0.3,0.4,0.7,0.4,1.2c0.1,0.3,0.1,0.8,0.1,1.5h-4.8
				c0,0.7,0.2,1.2,0.5,1.6c0.3,0.4,0.8,0.6,1.4,0.6c0.6,0,1-0.2,1.4-0.6c0.2-0.2,0.3-0.5,0.4-0.8h1.1c0,0.2-0.1,0.5-0.3,0.8
				s-0.3,0.5-0.5,0.7c-0.3,0.3-0.8,0.6-1.3,0.7c-0.3,0.1-0.6,0.1-0.9,0.1c-0.8,0-1.5-0.3-2.1-0.9c-0.6-0.6-0.9-1.4-0.9-2.5
				s0.3-1.9,0.9-2.6s1.3-1,2.3-1C962.1,807.9,962.5,808,963,808.2z M963.4,810.9c0-0.5-0.2-0.9-0.3-1.2c-0.3-0.5-0.8-0.8-1.5-0.8
				c-0.5,0-0.9,0.2-1.3,0.6c-0.3,0.4-0.5,0.8-0.5,1.4H963.4z"/>
			<path class="st19" d="M966,805.6h1.1v9.1H966V805.6z"/>
			<path class="st19" d="M978.1,806v1c-0.3,0.3-0.7,0.8-1.1,1.4s-0.9,1.4-1.3,2.2c-0.4,0.8-0.6,1.5-0.8,2.1c-0.1,0.4-0.3,1.1-0.5,2
				h-1.2c0.3-1.7,0.9-3.4,1.9-5.1c0.6-1,1.2-1.8,1.8-2.6H972v-1L978.1,806L978.1,806z"/>
			<path class="st19" d="M981.5,805.6h0.9l-2.9,9.1h-0.9L981.5,805.6z"/>
			<path class="st19" d="M983.3,808.4v-0.9c0.8-0.1,1.4-0.2,1.7-0.4s0.6-0.6,0.7-1.3h0.9v8.9h-1.2v-6.3H983.3z"/>
		</g>
		<g>
			<path class="st19" d="M942.3,532.5h1.2v9.1h-1.2V532.5z"/>
			<path class="st19" d="M945.4,534.9h1.1v0.9c0.3-0.4,0.6-0.7,1-0.8s0.7-0.3,1.2-0.3c0.9,0,1.6,0.3,1.9,1c0.2,0.4,0.3,0.9,0.3,1.5
				v4.3h-1.1v-4.2c0-0.4-0.1-0.7-0.2-1c-0.2-0.4-0.6-0.6-1.1-0.6c-0.3,0-0.5,0-0.7,0.1c-0.3,0.1-0.6,0.3-0.8,0.5s-0.3,0.4-0.4,0.7
				c-0.1,0.2-0.1,0.6-0.1,1v3.5h-1.1L945.4,534.9L945.4,534.9z"/>
			<path class="st19" d="M953.1,539.5c0,0.4,0.1,0.7,0.3,0.9c0.3,0.4,0.8,0.5,1.5,0.5c0.4,0,0.8-0.1,1.1-0.3s0.5-0.5,0.5-0.8
				s-0.1-0.5-0.4-0.7c-0.2-0.1-0.5-0.2-1-0.3l-0.9-0.2c-0.6-0.1-1-0.3-1.3-0.5c-0.5-0.3-0.7-0.7-0.7-1.3s0.2-1.1,0.7-1.5
				s1.1-0.6,1.9-0.6c1,0,1.7,0.3,2.2,0.9c0.3,0.4,0.4,0.8,0.4,1.2h-1.1c0-0.3-0.1-0.5-0.3-0.7c-0.3-0.3-0.7-0.4-1.4-0.4
				c-0.4,0-0.8,0.1-1,0.2s-0.3,0.4-0.3,0.6c0,0.3,0.1,0.5,0.4,0.7c0.2,0.1,0.4,0.2,0.7,0.3l0.8,0.2c0.8,0.2,1.4,0.4,1.6,0.6
				c0.4,0.3,0.7,0.7,0.7,1.3s-0.2,1.1-0.7,1.5s-1.1,0.6-2.1,0.6s-1.7-0.2-2.1-0.7s-0.6-1-0.7-1.7h1.2L953.1,539.5L953.1,539.5z"/>
			<path class="st19" d="M963,535.1c0.4,0.2,0.8,0.5,1,0.9c0.2,0.3,0.4,0.7,0.4,1.2c0.1,0.3,0.1,0.8,0.1,1.5h-4.8
				c0,0.7,0.2,1.2,0.5,1.6c0.3,0.4,0.8,0.6,1.4,0.6c0.6,0,1-0.2,1.4-0.6c0.2-0.2,0.3-0.5,0.4-0.8h1.1c0,0.2-0.1,0.5-0.3,0.8
				s-0.3,0.5-0.5,0.7c-0.3,0.3-0.8,0.6-1.3,0.7c-0.3,0.1-0.6,0.1-0.9,0.1c-0.8,0-1.5-0.3-2.1-0.9c-0.6-0.6-0.9-1.4-0.9-2.5
				s0.3-1.9,0.9-2.6c0.6-0.7,1.3-1,2.3-1C962.1,534.8,962.5,534.9,963,535.1z M963.4,537.7c0-0.5-0.2-0.9-0.3-1.2
				c-0.3-0.5-0.8-0.8-1.5-0.8c-0.5,0-0.9,0.2-1.3,0.6c-0.3,0.4-0.5,0.8-0.5,1.4H963.4z"/>
			<path class="st19" d="M966,532.5h1.1v9.1H966V532.5z"/>
			<path class="st19" d="M978.1,532.8v1c-0.3,0.3-0.7,0.8-1.1,1.4c-0.5,0.7-0.9,1.4-1.3,2.2c-0.4,0.8-0.6,1.5-0.8,2.1
				c-0.1,0.4-0.3,1.1-0.5,2h-1.2c0.3-1.7,0.9-3.4,1.9-5.1c0.6-1,1.2-1.8,1.8-2.6H972v-1.1L978.1,532.8L978.1,532.8z"/>
			<path class="st19" d="M981.5,532.5h0.9l-2.9,9.1h-0.9L981.5,532.5z"/>
			<path class="st19" d="M983,539.6c0.3-0.6,0.8-1.1,1.6-1.5l1.2-0.7c0.5-0.3,0.9-0.6,1.1-0.8c0.3-0.3,0.5-0.7,0.5-1.2
				s-0.2-0.9-0.5-1.2s-0.7-0.5-1.2-0.5c-0.8,0-1.3,0.3-1.6,0.9c-0.2,0.3-0.2,0.7-0.3,1.3h-1.1c0-0.8,0.2-1.4,0.4-1.9
				c0.5-0.9,1.3-1.3,2.6-1.3c1,0,1.8,0.3,2.2,0.8s0.7,1.2,0.7,1.8c0,0.7-0.3,1.3-0.8,1.8c-0.3,0.3-0.8,0.7-1.6,1.1l-0.9,0.5
				c-0.4,0.2-0.7,0.4-1,0.6c-0.4,0.4-0.7,0.8-0.8,1.2h4.9v1.1h-6.1C982.5,540.8,982.7,540.2,983,539.6z"/>
		</g>
		<g>
			<path class="st19" d="M928.9,392.8h1.2v9.1h-1.2V392.8z"/>
			<path class="st19" d="M932,395.3h1.1v0.9c0.3-0.4,0.6-0.7,1-0.8s0.7-0.3,1.2-0.3c0.9,0,1.6,0.3,1.9,1c0.2,0.4,0.3,0.9,0.3,1.5
				v4.3h-1.1v-4.2c0-0.4-0.1-0.7-0.2-1c-0.2-0.4-0.6-0.6-1.1-0.6c-0.3,0-0.5,0-0.7,0.1c-0.3,0.1-0.6,0.3-0.8,0.5s-0.3,0.4-0.4,0.7
				c-0.1,0.2-0.1,0.6-0.1,1v3.5H932V395.3z"/>
			<path class="st19" d="M939.7,399.9c0,0.4,0.1,0.7,0.3,0.9c0.3,0.4,0.8,0.5,1.5,0.5c0.4,0,0.8-0.1,1.1-0.3
				c0.3-0.2,0.5-0.5,0.5-0.8s-0.1-0.5-0.4-0.7c-0.2-0.1-0.5-0.2-1-0.3l-0.9-0.2c-0.6-0.1-1-0.3-1.3-0.5c-0.5-0.3-0.7-0.7-0.7-1.3
				c0-0.6,0.2-1.1,0.7-1.5s1.1-0.6,1.9-0.6c1,0,1.7,0.3,2.2,0.9c0.3,0.4,0.4,0.8,0.4,1.2h-1.1c0-0.3-0.1-0.5-0.3-0.7
				c-0.3-0.3-0.7-0.4-1.4-0.4c-0.4,0-0.8,0.1-1,0.2s-0.3,0.4-0.3,0.6c0,0.3,0.1,0.5,0.4,0.7c0.2,0.1,0.4,0.2,0.7,0.3l0.8,0.2
				c0.8,0.2,1.4,0.4,1.6,0.6c0.4,0.3,0.7,0.7,0.7,1.3c0,0.6-0.2,1.1-0.7,1.5s-1.1,0.6-2.1,0.6s-1.7-0.2-2.1-0.7s-0.6-1-0.7-1.7h1.2
				L939.7,399.9L939.7,399.9z"/>
			<path class="st19" d="M949.6,395.5c0.4,0.2,0.8,0.5,1,0.9c0.2,0.3,0.4,0.7,0.4,1.2c0.1,0.3,0.1,0.8,0.1,1.5h-4.8
				c0,0.7,0.2,1.2,0.5,1.6s0.8,0.6,1.4,0.6c0.6,0,1-0.2,1.4-0.6c0.2-0.2,0.3-0.5,0.4-0.8h1.1c0,0.2-0.1,0.5-0.3,0.8
				s-0.3,0.5-0.5,0.7c-0.3,0.3-0.8,0.6-1.3,0.7c-0.3,0.1-0.6,0.1-0.9,0.1c-0.8,0-1.5-0.3-2.1-0.9s-0.9-1.4-0.9-2.5s0.3-1.9,0.9-2.6
				c0.6-0.7,1.3-1,2.3-1C948.7,395.2,949.1,395.3,949.6,395.5z M950,398.1c0-0.5-0.2-0.9-0.3-1.2c-0.3-0.5-0.8-0.8-1.5-0.8
				c-0.5,0-0.9,0.2-1.3,0.6c-0.3,0.4-0.5,0.8-0.5,1.4H950z"/>
			<path class="st19" d="M952.6,392.8h1.1v9.1h-1.1V392.8z"/>
			<path class="st19" d="M964.7,393.2v1c-0.3,0.3-0.7,0.8-1.1,1.4c-0.5,0.7-0.9,1.4-1.3,2.2c-0.4,0.8-0.6,1.5-0.8,2.1
				c-0.1,0.4-0.3,1.1-0.5,2h-1.2c0.3-1.7,0.9-3.4,1.9-5.1c0.6-1,1.2-1.8,1.8-2.6h-4.9v-1.1h6.1V393.2z"/>
			<path class="st19" d="M968.1,392.8h0.9l-2.9,9.1h-0.9L968.1,392.8z"/>
			<path class="st19" d="M969.7,401.3c-0.5-0.6-0.7-1.3-0.7-2.1h1.2c0,0.6,0.2,1,0.3,1.3c0.3,0.5,0.8,0.7,1.6,0.7
				c0.6,0,1.1-0.2,1.4-0.5s0.5-0.7,0.5-1.2c0-0.6-0.2-1-0.6-1.3c-0.4-0.2-0.9-0.4-1.6-0.4c-0.1,0-0.2,0-0.2,0c-0.1,0-0.2,0-0.2,0v-1
				c0.1,0,0.2,0,0.3,0s0.2,0,0.3,0c0.4,0,0.8-0.1,1-0.2c0.5-0.2,0.7-0.6,0.7-1.2c0-0.4-0.2-0.8-0.5-1s-0.7-0.4-1.1-0.4
				c-0.7,0-1.3,0.2-1.5,0.7c-0.2,0.3-0.2,0.7-0.3,1.2h-1.1c0-0.7,0.1-1.2,0.4-1.7c0.5-0.8,1.3-1.2,2.4-1.2c0.9,0,1.6,0.2,2.1,0.6
				s0.7,1,0.7,1.8c0,0.5-0.1,1-0.4,1.3c-0.2,0.2-0.4,0.4-0.7,0.5c0.5,0.1,0.8,0.4,1.1,0.7c0.3,0.4,0.4,0.8,0.4,1.3
				c0,0.9-0.3,1.5-0.8,2.1c-0.6,0.5-1.4,0.8-2.4,0.8C971,402.2,970.2,401.9,969.7,401.3z"/>
		</g>
		<g>
			<path class="st19" d="M670.5,392.8h1.2v9.1h-1.2V392.8z"/>
			<path class="st19" d="M673.6,395.3h1.1v0.9c0.3-0.4,0.6-0.7,1-0.8s0.7-0.3,1.2-0.3c0.9,0,1.6,0.3,1.9,1c0.2,0.4,0.3,0.9,0.3,1.5
				v4.3H678v-4.2c0-0.4-0.1-0.7-0.2-1c-0.2-0.4-0.6-0.6-1.1-0.6c-0.3,0-0.5,0-0.7,0.1c-0.3,0.1-0.6,0.3-0.8,0.5s-0.3,0.4-0.4,0.7
				c-0.1,0.2-0.1,0.6-0.1,1v3.5h-1.1L673.6,395.3L673.6,395.3z"/>
			<path class="st19" d="M681.4,399.9c0,0.4,0.1,0.7,0.3,0.9c0.3,0.4,0.8,0.5,1.5,0.5c0.4,0,0.8-0.1,1.1-0.3
				c0.3-0.2,0.5-0.5,0.5-0.8s-0.1-0.5-0.4-0.7c-0.2-0.1-0.5-0.2-1-0.3l-0.9-0.2c-0.6-0.1-1-0.3-1.3-0.5c-0.5-0.3-0.7-0.7-0.7-1.3
				c0-0.6,0.2-1.1,0.7-1.5s1.1-0.6,1.9-0.6c1,0,1.7,0.3,2.2,0.9c0.3,0.4,0.4,0.8,0.4,1.2h-1.1c0-0.3-0.1-0.5-0.3-0.7
				c-0.3-0.3-0.7-0.4-1.4-0.4c-0.4,0-0.8,0.1-1,0.2s-0.3,0.4-0.3,0.6c0,0.3,0.1,0.5,0.4,0.7c0.2,0.1,0.4,0.2,0.7,0.3l0.8,0.2
				c0.8,0.2,1.4,0.4,1.6,0.6c0.4,0.3,0.7,0.7,0.7,1.3c0,0.6-0.2,1.1-0.7,1.5s-1.1,0.6-2.1,0.6s-1.7-0.2-2.1-0.7s-0.6-1-0.7-1.7h1.2
				L681.4,399.9L681.4,399.9z"/>
			<path class="st19" d="M691.2,395.5c0.4,0.2,0.8,0.5,1,0.9c0.2,0.3,0.4,0.7,0.4,1.2c0.1,0.3,0.1,0.8,0.1,1.5h-4.8
				c0,0.7,0.2,1.2,0.5,1.6s0.8,0.6,1.4,0.6c0.6,0,1-0.2,1.4-0.6c0.2-0.2,0.3-0.5,0.4-0.8h1.1c0,0.2-0.1,0.5-0.3,0.8
				s-0.3,0.5-0.5,0.7c-0.3,0.3-0.8,0.6-1.3,0.7c-0.3,0.1-0.6,0.1-0.9,0.1c-0.8,0-1.5-0.3-2.1-0.9s-0.9-1.4-0.9-2.5s0.3-1.9,0.9-2.6
				c0.6-0.7,1.3-1,2.3-1C690.3,395.2,690.7,395.3,691.2,395.5z M691.6,398.1c0-0.5-0.2-0.9-0.3-1.2c-0.3-0.5-0.8-0.8-1.5-0.8
				c-0.5,0-0.9,0.2-1.3,0.6c-0.3,0.4-0.5,0.8-0.5,1.4H691.6z"/>
			<path class="st19" d="M694.2,392.8h1.1v9.1h-1.1V392.8z"/>
			<path class="st19" d="M706.4,393.2v1c-0.3,0.3-0.7,0.8-1.1,1.4c-0.5,0.7-0.9,1.4-1.3,2.2c-0.4,0.8-0.6,1.5-0.8,2.1
				c-0.1,0.4-0.3,1.1-0.5,2h-1.2c0.3-1.7,0.9-3.4,1.9-5.1c0.6-1,1.2-1.8,1.8-2.6h-4.9v-1.1h6.1V393.2z"/>
			<path class="st19" d="M709.7,392.8h0.9l-2.9,9.1h-0.9L709.7,392.8z"/>
			<path class="st19" d="M714.5,402v-2.2h-3.9v-1.1l4.1-5.7h0.9v5.8h1.3v1h-1.3v2.2L714.5,402L714.5,402z M714.5,398.8v-4l-2.9,4
				H714.5z"/>
		</g>
		<g>
			<path class="st19" d="M416.9,392.8h1.2v9.1h-1.2V392.8z"/>
			<path class="st19" d="M420,395.3h1.1v0.9c0.3-0.4,0.6-0.7,1-0.8s0.7-0.3,1.2-0.3c0.9,0,1.6,0.3,1.9,1c0.2,0.4,0.3,0.9,0.3,1.5
				v4.3h-1.1v-4.2c0-0.4-0.1-0.7-0.2-1c-0.2-0.4-0.6-0.6-1.1-0.6c-0.3,0-0.5,0-0.7,0.1c-0.3,0.1-0.6,0.3-0.8,0.5
				c-0.2,0.2-0.3,0.4-0.4,0.7c-0.1,0.2-0.1,0.6-0.1,1v3.5H420V395.3z"/>
			<path class="st19" d="M427.7,399.9c0,0.4,0.1,0.7,0.3,0.9c0.3,0.4,0.8,0.5,1.5,0.5c0.4,0,0.8-0.1,1.1-0.3
				c0.3-0.2,0.5-0.5,0.5-0.8s-0.1-0.5-0.4-0.7c-0.2-0.1-0.5-0.2-1-0.3l-0.9-0.2c-0.6-0.1-1-0.3-1.3-0.5c-0.5-0.3-0.7-0.7-0.7-1.3
				c0-0.6,0.2-1.1,0.7-1.5s1.1-0.6,1.9-0.6c1,0,1.7,0.3,2.2,0.9c0.3,0.4,0.4,0.8,0.4,1.2h-1.1c0-0.3-0.1-0.5-0.3-0.7
				c-0.3-0.3-0.7-0.4-1.4-0.4c-0.4,0-0.8,0.1-1,0.2s-0.3,0.4-0.3,0.6c0,0.3,0.1,0.5,0.4,0.7c0.2,0.1,0.4,0.2,0.7,0.3l0.8,0.2
				c0.8,0.2,1.4,0.4,1.6,0.6c0.4,0.3,0.7,0.7,0.7,1.3c0,0.6-0.2,1.1-0.7,1.5s-1.1,0.6-2.1,0.6s-1.7-0.2-2.1-0.7s-0.6-1-0.7-1.7h1.2
				L427.7,399.9L427.7,399.9z"/>
			<path class="st19" d="M437.6,395.5c0.4,0.2,0.8,0.5,1,0.9c0.2,0.3,0.4,0.7,0.4,1.2c0.1,0.3,0.1,0.8,0.1,1.5h-4.8
				c0,0.7,0.2,1.2,0.5,1.6s0.8,0.6,1.4,0.6s1-0.2,1.4-0.6c0.2-0.2,0.3-0.5,0.4-0.8h1.1c0,0.2-0.1,0.5-0.3,0.8
				c-0.2,0.3-0.3,0.5-0.5,0.7c-0.3,0.3-0.8,0.6-1.3,0.7c-0.3,0.1-0.6,0.1-0.9,0.1c-0.8,0-1.5-0.3-2.1-0.9s-0.9-1.4-0.9-2.5
				s0.3-1.9,0.9-2.6s1.3-1,2.3-1C436.7,395.2,437.1,395.3,437.6,395.5z M438,398.1c0-0.5-0.2-0.9-0.3-1.2c-0.3-0.5-0.8-0.8-1.5-0.8
				c-0.5,0-0.9,0.2-1.3,0.6c-0.3,0.4-0.5,0.8-0.5,1.4H438z"/>
			<path class="st19" d="M440.6,392.8h1.1v9.1h-1.1V392.8z"/>
			<path class="st19" d="M452.7,393.2v1c-0.3,0.3-0.7,0.8-1.1,1.4c-0.5,0.7-0.9,1.4-1.3,2.2c-0.4,0.8-0.6,1.5-0.8,2.1
				c-0.1,0.4-0.3,1.1-0.5,2h-1.2c0.3-1.7,0.9-3.4,1.9-5.1c0.6-1,1.2-1.8,1.8-2.6h-4.9v-1.1h6.1V393.2z"/>
			<path class="st19" d="M456.1,392.8h0.9l-2.9,9.1h-0.9L456.1,392.8z"/>
			<path class="st19" d="M458.3,399.7c0.1,0.6,0.4,1.1,0.9,1.3c0.3,0.1,0.6,0.2,0.9,0.2c0.7,0,1.2-0.2,1.5-0.6s0.5-0.9,0.5-1.4
				c0-0.6-0.2-1.1-0.6-1.4s-0.8-0.5-1.4-0.5c-0.4,0-0.7,0.1-1,0.2s-0.5,0.4-0.7,0.6l-1-0.1l0.7-4.8h4.6v1.1h-3.8l-0.4,2.5
				c0.2-0.2,0.4-0.3,0.6-0.4c0.3-0.1,0.7-0.2,1.2-0.2c0.8,0,1.5,0.3,2.1,0.8s0.9,1.2,0.9,2s-0.3,1.6-0.8,2.2s-1.4,1-2.5,1
				c-0.7,0-1.4-0.2-1.9-0.6s-0.9-1-0.9-1.9L458.3,399.7L458.3,399.7z"/>
		</g>
	</g>
</g>
<g id="Stroke">
	<polyline class="st20" points="180.7,227.8 181.4,108.8 1087.2,108.8 1087.2,144.9 1109.8,144.9 1109.8,1163.6 691.9,1163.6 
		691.9,1215.6 676.4,1215.6 	"/>
	<line class="st20" x1="180" y1="335" x2="180.4" y2="271.1"/>
	<line class="st20" x1="179.6" y1="410.3" x2="179.8" y2="374.9"/>
	<polyline class="st20" points="496.2,1215.6 120.5,1215.6 120.5,673.5 201.8,673.5 201.8,481.5 179.1,481.5 179.3,459.3 	"/>
	<line class="st20" x1="621.7" y1="1215.6" x2="560.5" y2="1215.6"/>
	<polyline class="st21" points="307.9,108.8 307.9,410.3 307.9,392.6 179.6,392.6 307.9,392.6 307.9,285 180.7,285 	"/>
	<polyline class="st21" points="307.9,467.9 307.9,484.9 279.1,484.9 279.1,672.9 728.9,672.9 728.9,682.2 728.9,575.1 705.2,575.1 
		728.9,575.1 728.9,672.9 629,672.9 629,575.1 637.4,575.1 610.3,575.1 629,575.1 629,672.9 533.3,672.9 533.3,575.1 542.6,575.1 	
		"/>
	<polyline class="st21" points="365.5,575.1 374.9,575.1 374.9,672.9 279.1,672.9 279.1,575.1 316.4,575.1 	"/>
	<polyline class="st21" points="728.9,724.3 728.9,842.6 740.3,842.6 598.2,842.6 598.2,781 598.2,1215.6 	"/>
	<line class="st21" x1="279.1" y1="672.9" x2="279.1" y2="715.4"/>
	<polyline class="st21" points="279.1,758.9 279.1,962.9 496.2,962.9 441.9,962.9 441.9,919.4 	"/>
	<polyline class="st21" points="445,837.5 445,814.7 279.1,814.7 598.2,814.7 399.2,814.7 399.2,672.9 	"/>
	<line class="st21" x1="560.5" y1="962.9" x2="598.2" y2="962.9"/>
	<polyline class="st21" points="201.8,673.5 201.8,1046.6 220,1046.6 120.5,1046.6 	"/>
	<polyline class="st21" points="260.4,1046.6 476,1046.6 476,1215.6 	"/>
	<polyline class="st20" points="796.3,841.9 1109.8,841.9 820.4,841.9 820.4,852.7 	"/>
	<polyline class="st20" points="818.8,897.7 818.8,1044.3 818.8,1031.9 1109.8,1031.9 	"/>
	<line class="st20" x1="818.8" y1="1087" x2="818.8" y2="1163.6"/>
	<line class="st21" x1="598.2" y1="728.8" x2="598.2" y2="672.9"/>
</g>
<g id="Icons">
	<g>
		<path class="st22" d="M276.8,1164.3v-9h6.5v1.1h-5.4v2.8h5v1.1h-5v3.1h5.5v1.1h-6.6V1164.3L276.8,1164.3z"/>
		<path class="st22" d="M285,1164.3v-9h1.1v9H285z"/>
		<path class="st22" d="M292.4,1162.2l1.1,0.1c-0.1,0.6-0.5,1.2-1,1.6s-1.1,0.6-1.8,0.6c-1,0-1.7-0.2-2.3-0.9
			c-0.6-0.6-0.9-1.5-0.9-2.4c0-1.1,0.2-2,0.9-2.6c0.6-0.6,1.3-0.9,2.2-0.9s1.6,0.2,2.2,0.9c0.6,0.6,0.9,1.5,0.9,2.6v0.2h-5
			c0,0.7,0.2,1.2,0.6,1.6s0.9,0.6,1.3,0.6s0.7-0.1,1.1-0.4C291.9,1163.1,292.1,1162.7,292.4,1162.2L292.4,1162.2z M288.7,1160.5h3.7
			c0-0.6-0.2-1-0.4-1.2c-0.4-0.4-0.9-0.6-1.3-0.6s-1,0.1-1.2,0.5C288.9,1159.4,288.7,1159.9,288.7,1160.5L288.7,1160.5z"/>
		<path class="st22" d="M296.7,1164.3l-2.4-6.5h1.2l1.3,3.9c0.1,0.4,0.2,0.9,0.4,1.3c0.1-0.4,0.2-0.7,0.4-1.2l1.5-4h1.1l-2.4,6.5
			L296.7,1164.3L296.7,1164.3z"/>
		<path class="st22" d="M305.5,1163.6c-0.4,0.4-0.9,0.6-1.2,0.7c-0.4,0.1-0.7,0.2-1.2,0.2c-0.7,0-1.2-0.1-1.7-0.5s-0.6-0.9-0.6-1.3
			s0.1-0.6,0.2-0.9c0.1-0.2,0.4-0.5,0.6-0.6s0.5-0.2,0.9-0.4c0.2,0,0.5-0.1,1-0.1c0.9-0.1,1.6-0.2,2-0.4v-0.2c0-0.5-0.1-0.7-0.4-1
			c-0.2-0.2-0.7-0.4-1.2-0.4s-0.9,0.1-1.1,0.2s-0.5,0.5-0.6,1l-1.1-0.1c0.1-0.5,0.2-0.9,0.5-1.1c0.2-0.2,0.6-0.5,1-0.6
			s1-0.2,1.5-0.2c0.6,0,1,0.1,1.3,0.2s0.6,0.2,0.7,0.5c0.1,0.2,0.2,0.5,0.4,0.7v2.5c0,1,0,1.7,0.1,2c0,0.2,0.1,0.5,0.2,0.7h-1.1
			C305.6,1164.2,305.5,1163.8,305.5,1163.6L305.5,1163.6z M305.3,1161.1c-0.4,0.1-1,0.2-1.8,0.4c-0.5,0.1-0.7,0.1-1,0.2
			c-0.2,0.1-0.4,0.2-0.5,0.4c-0.1,0.1-0.1,0.4-0.1,0.5c0,0.2,0.1,0.5,0.4,0.7s0.6,0.2,1,0.2s0.9-0.1,1.1-0.2
			c0.4-0.2,0.6-0.5,0.7-0.7s0.1-0.6,0.1-1.1L305.3,1161.1L305.3,1161.1L305.3,1161.1z"/>
		<path class="st22" d="M310.6,1163.3l0.1,1c-0.4,0.1-0.6,0.1-0.9,0.1c-0.4,0-0.7-0.1-1-0.2c-0.2-0.1-0.4-0.2-0.5-0.5
			c-0.1-0.2-0.1-0.6-0.1-1.3v-3.8h-0.9v-0.9h0.9v-1.6l1.1-0.6v2.3h1.1v0.9h-1.1v4.4c0,0.1,0.1,0.1,0.2,0.2s0.2,0.1,0.4,0.1
			C310.2,1163.4,310.5,1163.4,310.6,1163.3L310.6,1163.3z"/>
		<path class="st22" d="M311.3,1161.1c0-1.2,0.4-2.1,1-2.7c0.6-0.5,1.2-0.7,2.1-0.7s1.6,0.2,2.2,0.9c0.6,0.6,0.9,1.3,0.9,2.4
			c0,0.9-0.1,1.5-0.4,2c-0.2,0.5-0.6,0.9-1.1,1.1s-1,0.4-1.6,0.4c-0.9,0-1.7-0.2-2.2-0.9C311.6,1163.1,311.3,1162.2,311.3,1161.1
			L311.3,1161.1z M312.4,1161.1c0,0.9,0.1,1.5,0.5,1.8c0.4,0.4,0.9,0.6,1.3,0.6c0.5,0,1-0.2,1.3-0.6c0.4-0.4,0.5-1.1,0.5-2
			s-0.2-1.5-0.6-1.8c-0.4-0.4-0.9-0.6-1.3-0.6c-0.6,0-1,0.2-1.3,0.6C312.4,1159.5,312.4,1160.2,312.4,1161.1z"/>
		<path class="st22" d="M318.7,1164.3v-6.5h1v1c0.2-0.5,0.5-0.7,0.7-1c0.2-0.1,0.5-0.2,0.7-0.2c0.4,0,0.7,0.1,1.1,0.4l-0.4,1
			c-0.2-0.1-0.5-0.2-0.9-0.2c-0.2,0-0.5,0.1-0.6,0.2c-0.2,0.1-0.4,0.4-0.4,0.6c-0.1,0.4-0.2,0.9-0.2,1.3v3.4L318.7,1164.3
			L318.7,1164.3z"/>
	</g>
	<circle class="st23" cx="298.2" cy="1121.7" r="26.7"/>
	<path class="st24" d="M290.9,1132.2v-16.1h5.4v16.1H290.9z M296.8,1132.2v-16.1h5.4v16.1H296.8z M308.9,1132.2h-6.2v-16.4
		c0-0.1-0.1-0.2-0.2-0.2h-11.6c-0.1,0-0.2,0.1-0.2,0.2l0,0v16.4h-3v-21.1h21.2L308.9,1132.2L308.9,1132.2z M309,1110.7h-21.5
		c-0.1,0-0.2,0.1-0.2,0.2l0,0v21.5c0,0.1,0.1,0.2,0.2,0.2H309c0.1,0,0.2-0.1,0.2-0.2l0,0v-21.6
		C309.2,1110.7,309.1,1110.7,309,1110.7z"/>
	<path class="st24" d="M294.9,1113.5h3.3c0.1,0,0.2,0,0.2-0.1s0-0.2-0.1-0.2h-3.4c-0.1,0-0.2,0-0.2,0.2
		C294.6,1113.4,294.7,1113.5,294.9,1113.5z"/>
	<path class="st24" d="M305.1,1122.6l0.6-0.6l0.6,0.6c0.1,0.1,0.2,0,0.4-0.1l0,0v-0.2l-0.9-0.9c-0.1-0.1-0.2-0.1-0.2,0l0,0l-0.9,0.9
		c-0.1,0.1,0,0.2,0.1,0.4l0,0C304.8,1122.7,305,1122.7,305.1,1122.6L305.1,1122.6L305.1,1122.6z"/>
	<path class="st24" d="M305.6,1125.2L305.6,1125.2c0.1,0.1,0.2,0.1,0.2,0l0.9-0.9c0.1-0.1,0.1-0.2,0-0.4l0,0c0-0.1-0.1-0.1-0.2-0.1
		l0,0l-0.1,0.1l-0.6,0.6l-0.6-0.6c-0.1-0.1-0.2-0.1-0.4-0.1s-0.1,0.2-0.1,0.4l0.1,0.1L305.6,1125.2L305.6,1125.2z"/>
</g>
<circle class="st25" cx="663.5" cy="749.2" r="24.9"/>
<polygon class="st26" points="668.8,747.4 665.3,747.4 665.3,743.9 661.6,743.9 661.6,747.4 658.2,747.4 658.2,751.1 661.6,751.1 
	661.6,754.5 665.3,754.5 665.3,751.1 668.8,751.1 "/>
<rect x="652.9" y="739.1" class="st26" width="21.1" height="20.1"/>
<g>
	<path class="st19" d="M629.5,781.1h6.3v1.1h-5.1v2.8h4.5v1.1h-4.5v4.2h-1.2V781.1z"/>
	<path class="st19" d="M637,781.1h1.1v1.3H637V781.1z M637,783.6h1.1v6.6H637V783.6z"/>
	<path class="st19" d="M639.9,783.6h1.1v1.2c0.1-0.2,0.3-0.5,0.6-0.8s0.7-0.5,1.2-0.5h0.1c0,0,0.1,0,0.3,0v1.2c-0.1,0-0.1,0-0.2,0
		c-0.1,0-0.1,0-0.2,0c-0.6,0-1,0.2-1.3,0.5c-0.3,0.4-0.5,0.8-0.5,1.3v3.8h-1.1L639.9,783.6L639.9,783.6z"/>
	<path class="st19" d="M644.8,788.1c0,0.4,0.1,0.7,0.3,0.9c0.3,0.4,0.8,0.5,1.5,0.5c0.4,0,0.8-0.1,1.1-0.3s0.5-0.5,0.5-0.8
		s-0.1-0.5-0.4-0.7c-0.2-0.1-0.5-0.2-1-0.3l-0.9-0.2c-0.6-0.1-1-0.3-1.3-0.5c-0.5-0.3-0.7-0.7-0.7-1.3s0.2-1.1,0.7-1.5
		s1.1-0.6,1.9-0.6c1,0,1.7,0.3,2.2,0.9c0.3,0.4,0.4,0.8,0.4,1.2H648c0-0.3-0.1-0.5-0.3-0.7c-0.3-0.3-0.7-0.4-1.4-0.4
		c-0.4,0-0.8,0.1-1,0.2s-0.3,0.4-0.3,0.6c0,0.3,0.1,0.5,0.4,0.7c0.2,0.1,0.4,0.2,0.7,0.3l0.8,0.2c0.8,0.2,1.4,0.4,1.6,0.6
		c0.4,0.3,0.7,0.7,0.7,1.3s-0.2,1.1-0.7,1.5s-1.1,0.6-2.1,0.6s-1.7-0.2-2.1-0.7c-0.4-0.4-0.6-1-0.7-1.7h1.2L644.8,788.1L644.8,788.1
		z"/>
	<path class="st19" d="M650.7,781.7h1.1v1.9h1.1v0.9h-1.1v4.3c0,0.2,0.1,0.4,0.2,0.5c0.1,0,0.2,0.1,0.4,0.1c0.1,0,0.1,0,0.2,0
		s0.1,0,0.2,0v0.9c-0.1,0-0.3,0.1-0.4,0.1s-0.3,0-0.5,0c-0.5,0-0.9-0.1-1.1-0.4s-0.3-0.6-0.3-1v-4.4h-0.9v-0.9h0.9v-2L650.7,781.7
		L650.7,781.7z"/>
	<path class="st19" d="M659.7,781.1h1.4l3.3,9.1H663l-0.9-2.7h-3.6l-1,2.7h-1.3L659.7,781.1z M661.7,786.5l-1.4-4l-1.5,4H661.7z"/>
	<path class="st19" d="M665.4,781.1h1.1v1.3h-1.1V781.1z M665.4,783.6h1.1v6.6h-1.1V783.6z"/>
	<path class="st19" d="M671.8,783.8c0.2,0.1,0.4,0.3,0.7,0.7v-3.4h1.1v9.2h-1v-0.9c-0.3,0.4-0.6,0.7-0.9,0.9s-0.8,0.3-1.2,0.3
		c-0.7,0-1.4-0.3-1.9-0.9s-0.8-1.5-0.8-2.5s0.2-1.8,0.7-2.5s1.2-1.1,2.1-1.1C671.1,783.4,671.5,783.6,671.8,783.8z M669.3,788.8
		c0.3,0.5,0.8,0.7,1.4,0.7c0.5,0,0.9-0.2,1.3-0.7s0.5-1.1,0.5-1.9c0-0.8-0.2-1.5-0.5-1.9s-0.8-0.6-1.3-0.6c-0.6,0-1,0.2-1.4,0.6
		c-0.3,0.4-0.5,1.1-0.5,1.9C668.9,787.7,669,788.3,669.3,788.8z"/>
	<path class="st19" d="M678.9,781.1h3.9c1.1,0,1.8,0.3,2.3,1c0.3,0.4,0.4,0.8,0.4,1.3c0,0.6-0.2,1-0.5,1.4c-0.2,0.2-0.4,0.4-0.7,0.5
		c0.5,0.2,0.8,0.4,1.1,0.6c0.4,0.4,0.6,0.9,0.6,1.6c0,0.6-0.2,1.1-0.6,1.6c-0.6,0.7-1.4,1.1-2.6,1.1h-3.9V781.1z M682.4,785
		c0.5,0,0.9-0.1,1.2-0.2c0.5-0.2,0.7-0.6,0.7-1.2c0-0.6-0.2-1-0.7-1.2c-0.3-0.1-0.7-0.2-1.2-0.2h-2.2v2.8L682.4,785L682.4,785z
		 M682.8,789.2c0.8,0,1.3-0.2,1.6-0.7c0.2-0.3,0.3-0.6,0.3-1c0-0.7-0.3-1.1-0.9-1.4c-0.3-0.1-0.7-0.2-1.3-0.2H680v3.2h2.8V789.2z"/>
	<path class="st19" d="M692.1,784.2c0.6,0.6,0.9,1.4,0.9,2.5s-0.3,2-0.8,2.7s-1.3,1-2.4,1c-0.9,0-1.6-0.3-2.2-0.9s-0.8-1.5-0.8-2.5
		c0-1.1,0.3-2,0.8-2.7c0.6-0.7,1.3-1,2.3-1C690.8,783.4,691.5,783.7,692.1,784.2z M691.4,788.7c0.3-0.6,0.4-1.2,0.4-1.9
		c0-0.6-0.1-1.1-0.3-1.5c-0.3-0.6-0.8-0.9-1.6-0.9c-0.7,0-1.2,0.3-1.5,0.8s-0.5,1.2-0.5,1.9s0.2,1.3,0.5,1.8s0.8,0.7,1.5,0.7
		C690.7,789.5,691.2,789.2,691.4,788.7z"/>
	<path class="st19" d="M693.7,783.6h1.4l1.5,2.3l1.5-2.3h1.4l-2.2,3.2l2.3,3.4h-1.4l-1.7-2.5l-1.6,2.5h-1.4l2.3-3.4L693.7,783.6z"/>
</g>
<g id="NewGroup">
</g>
<circle class="st25" cx="457.6" cy="616.2" r="24.9"/>
<path class="st27" d="M431.6,654.2v-8.4h3.2c0.4,0,0.9,0,1.3,0.1s0.7,0.2,1,0.4c0.3,0.2,0.5,0.5,0.7,0.8c0.5,1,0.3,2.2-0.4,3
	c-0.7,0.6-1.6,0.8-2.5,0.7h-2.2v3.4H431.6z M432.7,649.8h2.2c0.5,0.1,1.1-0.1,1.5-0.4c0.3-0.3,0.5-0.7,0.5-1.1
	c0-0.3-0.1-0.6-0.3-0.9c-0.2-0.2-0.4-0.4-0.7-0.5c-0.3-0.1-0.7-0.1-1-0.1h-2.2V649.8z"/>
<path class="st27" d="M439.3,654.2v-6.1h0.9v0.9c0.2-0.3,0.4-0.6,0.7-0.9c0.2-0.1,0.4-0.2,0.7-0.2c0.4,0,0.7,0.1,1.1,0.3l-0.4,1
	c-0.2-0.1-0.5-0.2-0.8-0.2c-0.2,0-0.4,0.1-0.6,0.2s-0.3,0.3-0.4,0.6c-0.1,0.4-0.2,0.8-0.2,1.2v3.2H439.3z"/>
<path class="st27" d="M443.3,647v-1.2h1v1.2H443.3z M443.3,654.2v-6.1h1v6.1H443.3z"/>
<path class="st27" d="M445.9,654.2v-6.1h0.9v0.9c0.4-0.7,1.2-1,1.9-1c0.3,0,0.7,0.1,1,0.2s0.5,0.3,0.7,0.5s0.3,0.5,0.3,0.8
	s0.1,0.7,0.1,1v3.8h-1v-3.7c0-0.3,0-0.6-0.1-0.9c-0.1-0.2-0.2-0.4-0.4-0.5c-0.2-0.1-0.5-0.2-0.7-0.2c-0.4,0-0.8,0.1-1.1,0.4
	c-0.4,0.4-0.5,1-0.5,1.6v3.3L445.9,654.2z"/>
<path class="st27" d="M454.7,653.3l0.1,0.9c-0.3,0.1-0.5,0.1-0.8,0.1s-0.6,0-0.9-0.2c-0.2-0.1-0.3-0.3-0.4-0.5
	c-0.1-0.4-0.2-0.8-0.1-1.2v-3.5h-0.8v-0.8h0.8v-1.5l1-0.6v2.1h1v0.8h-1v3.6c0,0.2,0,0.4,0.1,0.6c0,0.1,0.1,0.2,0.2,0.2
	c0.1,0.1,0.2,0.1,0.4,0.1C454.4,653.3,454.6,653.3,454.7,653.3z"/>
<path class="st27" d="M459.1,654.2v-8.4h3.2c0.4,0,0.9,0,1.3,0.1s0.7,0.2,1,0.4c0.3,0.2,0.5,0.5,0.7,0.8c0.2,0.4,0.3,0.8,0.3,1.2
	c0,0.7-0.2,1.3-0.7,1.8c-0.7,0.6-1.6,0.8-2.5,0.7h-2.2v3.4H459.1z M460.2,649.8h2.2c0.5,0.1,1.1-0.1,1.5-0.4
	c0.3-0.3,0.5-0.7,0.5-1.1c0-0.3-0.1-0.6-0.3-0.9c-0.2-0.2-0.4-0.4-0.7-0.5c-0.3-0.1-0.7-0.1-1-0.1h-2.2V649.8z"/>
<path class="st27" d="M466.5,651.1c-0.1-0.9,0.3-1.9,0.9-2.5c0.5-0.5,1.2-0.7,1.9-0.7c0.8,0,1.5,0.3,2.1,0.8
	c0.6,0.6,0.8,1.4,0.8,2.3c0,0.6-0.1,1.3-0.4,1.9c-0.2,0.4-0.6,0.8-1,1.1c-0.5,0.3-1,0.4-1.5,0.4c-0.8,0-1.5-0.3-2.1-0.8
	C466.7,652.9,466.4,652,466.5,651.1z M467.5,651.1c0,0.6,0.1,1.3,0.5,1.8c0.6,0.7,1.7,0.8,2.4,0.2c0.1-0.1,0.1-0.1,0.2-0.2
	c0.4-0.5,0.6-1.1,0.5-1.8c0-0.6-0.1-1.2-0.5-1.7c-0.6-0.7-1.7-0.8-2.4-0.2c-0.1,0.1-0.1,0.1-0.2,0.2
	C467.7,649.9,467.5,650.5,467.5,651.1z"/>
<path class="st27" d="M473.4,647v-1.2h1v1.2H473.4z M473.4,654.2v-6.1h1v6.1H473.4z"/>
<path class="st27" d="M476,654.2v-6.1h0.9v0.9c0.4-0.7,1.2-1,1.9-1c0.3,0,0.7,0.1,1,0.2s0.5,0.3,0.7,0.5s0.3,0.5,0.3,0.8
	s0.1,0.7,0.1,1v3.8h-1v-3.7c0-0.3,0-0.6-0.1-0.9c-0.1-0.2-0.2-0.4-0.4-0.5c-0.2-0.1-0.5-0.2-0.7-0.2c-0.4,0-0.8,0.1-1.1,0.4
	c-0.4,0.4-0.5,1-0.5,1.6v3.3L476,654.2z"/>
<path class="st27" d="M484.8,653.3l0.1,0.9c-0.3,0.1-0.5,0.1-0.8,0.1s-0.6,0-0.9-0.2c-0.2-0.1-0.3-0.3-0.4-0.5
	c-0.1-0.4-0.2-0.8-0.1-1.2v-3.5h-0.8v-0.8h0.8v-1.5l1-0.6v2.1h1v0.8h-1v3.6c0,0.2,0,0.4,0.1,0.6c0,0.1,0.1,0.2,0.2,0.2
	c0.1,0.1,0.2,0.1,0.4,0.1C484.5,653.3,484.7,653.3,484.8,653.3z"/>
<g id="Outline_Icons-13-3-2">
	<g id="Outline_Icons-14-3-2">
		<path class="st28" d="M452,621.5h-2.6c-1.2,0-2.2-1-2.2-2.2V614c0-1.2,1-2.2,2.2-2.2h16.7c1.2,0,2.2,1,2.2,2.2v5.3
			c0,1.2-1,2.2-2.2,2.2h-2.6v-1h2.6c0.7,0,1.3-0.6,1.3-1.3v-5.3c0-0.7-0.6-1.3-1.3-1.3h-16.7c-0.7,0-1.3,0.6-1.3,1.3v5.3
			c0,0.7,0.6,1.3,1.3,1.3h2.6V621.5z"/>
		<polygon class="st28" points="463.9,610.4 463,610.4 463,609.8 460.6,607.4 452.5,607.4 452.5,610.4 451.5,610.4 451.5,606.4 
			461,606.4 463.9,609.4 		"/>
		<path class="st28" d="M463.9,625.9h-12.4v-8h12.4V625.9z M452.5,624.9H463v-6.1h-10.5V624.9z"/>
		<path class="st28" d="M450.3,616.2c-0.7,0-1.4-0.6-1.4-1.4c0-0.7,0.6-1.4,1.4-1.4c0.7,0,1.4,0.6,1.4,1.4l0,0l0,0
			C451.6,615.6,451,616.2,450.3,616.2z M450.3,614.4c-0.2,0-0.4,0.2-0.4,0.4c0,0.2,0.2,0.4,0.4,0.4c0.2,0,0.4-0.2,0.4-0.4
			S450.5,614.4,450.3,614.4L450.3,614.4z"/>
		<rect x="453.8" y="619.6" class="st28" width="7.9" height="1"/>
		<rect x="453.8" y="621.4" class="st28" width="7.9" height="1"/>
		<rect x="453.8" y="623.2" class="st28" width="7.9" height="1"/>
		<polygon class="st28" points="463.5,610 460.3,610 460.3,606.9 461.3,606.9 461.3,609.1 463.5,609.1 		"/>
	</g>
</g>
</svg>
