<?xml version="1.0" encoding="utf-8"?>
<!-- Generator: Adobe Illustrator 24.0.1, SVG Export Plug-In . SVG Version: 6.00 Build 0)  -->
<svg version="1.1" id="Layer_1" xmlns="http://www.w3.org/2000/svg" xmlns:xlink="http://www.w3.org/1999/xlink" x="0px" y="0px"
	 viewBox="0 0 451.1 544.4" style="enable-background:new 0 0 451.1 544.4;" xml:space="preserve">
<style type="text/css">
	.st0{fill:#4296B1;}
	.st1{fill:#ACDEE3;}
	.st2{fill:#8ECCCE;}
	.st3{opacity:5.000000e-02;fill:#040404;enable-background:new    ;}
	.st4{fill:#B8BFC1;}
	.st5{fill:#FFFFFF;}
	.st6{fill:none;stroke:#DBDDDC;stroke-width:0.28;stroke-miterlimit:10;}
	.st7{opacity:0.15;fill:#020202;enable-background:new    ;}
	.st8{fill:#596069;}
	.st9{fill:#9BAEB8;}
	.st10{fill:none;stroke:#7A8F94;stroke-width:0.86;stroke-linecap:round;stroke-miterlimit:10;}
	.st11{opacity:0.1;fill:#060606;enable-background:new    ;}
	.st12{fill:#5A616A;}
	.st13{fill:#9CAFB8;}
	.st14{fill:#7A8F94;}
	.st15{opacity:5.000000e-02;fill:#060606;enable-background:new    ;}
	.st16{opacity:0.1;fill:#030303;enable-background:new    ;}
	.st17{fill:none;stroke:#FFFFFF;stroke-width:4;stroke-miterlimit:10;}
	.st18{fill:none;stroke:#FFFFFF;stroke-width:2;stroke-miterlimit:10;}
	.st19{enable-background:new    ;}
	.st20{fill:#646B6D;}
	.st21{fill:#EBF2F2;}
	.st22{fill:none;stroke:#7A8E93;stroke-width:0.74;stroke-linecap:round;stroke-linejoin:round;}
	.st23{fill:none;stroke:#7A8E93;stroke-width:0.71;stroke-miterlimit:10;}
	.st24{opacity:0.74;fill:#575757;enable-background:new    ;}
</style>
<title>Casa Blanca_L1</title>
<g id="shadow">
	<path class="st0" d="M12.9,0v520.4l49.2,24c0,0,30.5-57.5,77.1-81.4c0,0,34.1-25.6,98.1-22.4c0,0,43.9-1.2,79.2,22.4l31.6,20.8
		l103-74.2L317,220.6l0.1-147.9l-145.7-0.3V0H12.9z"/>
</g>
<g id="background">
	<path class="st1" d="M14.2,3.9v504.3l47.7,23.2c0,0,29.6-55.7,74.7-78.9c0,0,33-24.8,95-21.7c0,0,42.6-1.2,76.8,21.7l30.6,20.2
		l99.8-71.9l-130-183.1l0.1-143.4L167.7,74V3.9H14.2z"/>
</g>
<g id="spaces">
	<rect x="14.2" y="74.3" class="st2" width="119.4" height="285.5"/>
	<rect x="14.2" y="3.9" class="st2" width="153.6" height="70.5"/>
	<rect x="167.7" y="74.6" class="st2" width="141.3" height="103.9"/>
	<polygon class="st2" points="167.9,194.6 167.9,239.7 279.1,239.7 308.9,218 308.9,178.5 167.7,178.5 	"/>
	<rect x="14.2" y="405.8" class="st2" width="45.5" height="53.9"/>
</g>
<g id="furniature">
	<path class="st3" d="M326.3,374.5l55-38.8c1.2-0.9,2.9-0.7,3.8,0.5l0,0l0.1,0.1v0.2l0,0l20.9,29.9c0.9,1.2,0.7,2.9-0.5,3.8l0,0
		c-0.1,0-0.1,0-0.1,0.1l0,0h-0.2l-55,38.8c-1.2,0.9-2.9,0.7-3.8-0.5l0,0l-0.1-0.1v-0.2l0,0l-21-29.9
		C324.6,377.1,325,375.4,326.3,374.5L326.3,374.5z"/>
	<path class="st4" d="M327.5,373.5l55-38.8c1.2-0.9,2.9-0.7,3.8,0.5l0,0l0.1,0.1v0.2l0,0l20.9,29.9c0.9,1.2,0.7,2.9-0.5,3.8l0,0
		c-0.1,0-0.1,0-0.1,0.1l0,0h-0.2l-55,38.8c-1.2,0.9-2.9,0.7-3.8-0.5l0,0l-0.1-0.1v-0.2l0,0l-20.9-29.9
		C325.9,376.1,326.3,374.4,327.5,373.5L327.5,373.5z"/>
	<path class="st5" d="M381.3,387.5l26.1-18.1c1.3-0.8,1.7-2.6,0.9-3.9l0,0v-0.2l0,0l-11-15.9l-28.9,19.9L381.3,387.5z"/>
	<path class="st5" d="M337.7,390.4l11,15.9c0.8,1.3,2.6,1.7,3.9,0.9h0.2l28.2-19.6l-13-18.5L337.7,390.4z"/>
	<path class="st5" d="M368.3,369l-11.5-16.4l-28.2,19.6c-1.3,0.8-1.7,2.6-0.9,3.9l0,0v0.2l0,0l9.9,14L368.3,369z"/>
	<path class="st5" d="M397,349.3l-9.9-14c-0.8-1.3-2.6-1.7-3.9-0.9H383l-26.1,18.1l11.5,16.4L397,349.3z"/>
	<line class="st6" x1="381.3" y1="387.5" x2="357.1" y2="352.6"/>
	<line class="st6" x1="397" y1="349.3" x2="337.7" y2="390.4"/>
	<path class="st7" d="M396.1,384.7c-2.4,1.6-3.2,4.8-1.9,7.4v0.3l0,0l2.2,3c2.4,3,6.7,3.7,9.8,1.5l0,0c3.4-1.8,4.6-6.1,2.7-9.4v-0.1
		l0,0l-1.9-3.3v-0.3c-1.7-2.3-4.9-3-7.4-1.6l0,0l-3.3,2.3C396.4,384.7,396.4,384.7,396.1,384.7z"/>
	<path class="st8" d="M396.8,384.7c-2.4,1.6-3.2,4.8-1.9,7.4v0.3l0,0l2.2,3c2.4,3,6.7,3.7,9.8,1.5l0,0c3.4-1.8,4.6-6.1,2.7-9.4v-0.1
		l0,0l-1.9-3.3v-0.3c-1.7-2.4-4.9-3.1-7.4-1.6l0,0l-3.3,2.3C396.9,384.4,396.7,384.5,396.8,384.7L396.8,384.7z"/>
	<path class="st9" d="M397,383.8c-2.3,1.5-2.9,4.6-1.4,6.9c0,0.1,0.1,0.1,0.1,0.2l0,0l2.2,3c2.1,3,6.2,3.8,9.2,1.8l0,0
		c3-2,4-6,2.4-9.2l-1.9-3.3v-0.3c-1.4-2.4-4.5-3.1-6.9-1.7l-0.1,0.1c-0.1,0-0.1,0-0.1,0.1l0,0l0,0L397,383.8L397,383.8z"/>
	<path class="st10" d="M395.4,390.2l2.6,3.6c2.1,3,6.2,3.8,9.2,1.8l0,0c3-2,4-6,2.4-9.2l-2-3.9"/>
	<path class="st11" d="M77.5,233c-1.7,0-3.1-1.2-3.2-2.9l0,0v-0.6l0.3-7.9l0,0c0.1-3,2.5-5.4,5.5-5.5H85c3,0.1,5.4,2.5,5.5,5.5
		l-0.3,7.9c-0.1,1.8-1.6,3.2-3.4,3.2h-0.1L77.5,233z"/>
	<path class="st12" d="M76.6,233c-1.8-0.1-3.2-1.6-3.2-3.4v-0.1l0,0l0.3-7.9l0,0c0.1-3,2.5-5.4,5.5-5.5h4.9c3,0.1,5.4,2.5,5.5,5.5
		l-0.3,7.9c0,1.7-1.2,3.1-2.9,3.2h-0.6L76.6,233z"/>
	<path class="st13" d="M76.3,233.3L76.3,233.3c-1.8-0.1-3.2-1.4-3.5-3.2v-7.9c0.1-3,2.5-5.4,5.5-5.5h4.9c3,0.1,5.4,2.5,5.5,5.5v7.9
		c-0.1,1.8-1.4,3.2-3.2,3.5C85.5,233.6,76.3,233.3,76.3,233.3z"/>
	<path class="st11" d="M88.8,222.2c-5.2-1.5-10.7-1.7-16-0.3l0,0c0.1-3,2.5-5.4,5.5-5.5h4.9C86.3,216.6,88.7,219.1,88.8,222.2"/>
	<path class="st14" d="M88.8,222.2c-5.2-1.5-10.7-1.7-16-0.3l0,0c0.1-3,2.5-5.4,5.5-5.5h4.9C86.3,216.6,88.7,219.1,88.8,222.2
		L88.8,222.2"/>
	<g id="details-5-2-9">
		<path class="st15" d="M56.7,318L56.7,318c-0.4,0-0.5-1.6-0.5-4.3v-31.1c0-1.4,0.1-2.9,0.5-4.3l0,0l20.3,0.5l0,0
			c0.4,0,0.5,1.6,0.5,4.3v31.1c0,1.4-0.1,2.9-0.5,4.3l0,0L56.7,318z"/>
		<path class="st4" d="M57,318L57,318c-0.4,0-0.5-1.6-0.5-4.3v-30.6c0-1.4,0.1-2.9,0.5-4.3l0,0l20.3,0.5l0,0c0.4,0,0.5,1.6,0.5,4.3
			v31.1c0,1.4-0.1,2.9-0.5,4.3l0,0L57,318z"/>
	</g>
	<path class="st5" d="M56.8,314.8c0,1.6,0.2,3.2,0.5,3.2h20.3c0.4,0,0.5-1.6,0.5-3.2v-31.7c0-1.4-0.1-2.9-0.5-4.3H57.2
		c-0.4,0-0.5,1.6-0.5,3.8l0,0L56.8,314.8z"/>
	<path class="st7" d="M368.7,404.7c-2.4,1.6-3.2,4.8-1.9,7.4v0.3l0,0l2.2,3c2.4,3,6.7,3.7,9.8,1.5l0,0c3.4-1.8,4.6-6.1,2.7-9.4v-0.1
		l0,0l-1.9-3.3v-0.3c-1.7-2.3-4.9-3-7.4-1.6l0,0l-3.3,2.3C369,404.7,369,404.7,368.7,404.7z"/>
	<path class="st8" d="M369.3,404.6c-2.4,1.6-3.2,4.8-1.9,7.4v0.3l0,0l2.2,3c2.4,3,6.7,3.7,9.8,1.5l0,0c3.4-1.8,4.6-6.1,2.7-9.4v-0.1
		l0,0l-1.9-3.3v-0.3c-1.7-2.4-4.9-3.1-7.4-1.6l0,0l-3.3,2.3C369.4,404.3,369.3,404.5,369.3,404.6L369.3,404.6z"/>
	<path class="st9" d="M369.6,403.7c-2.3,1.5-2.9,4.6-1.4,6.9c0,0.1,0.1,0.1,0.1,0.2l0,0l2.2,3c2.1,3,6.2,3.8,9.2,1.8l0,0
		c3-2,4-6,2.4-9.2l-1.9-3.3v-0.3c-1.4-2.4-4.5-3.1-6.9-1.7l-0.1,0.1c-0.1,0-0.1,0-0.1,0.1l0,0l0,0L369.6,403.7L369.6,403.7z"/>
	<path class="st10" d="M368,410.2l2.6,3.6c2.1,3,6.2,3.8,9.2,1.8l0,0c3-2,4-6,2.4-9.2l-2-3.9"/>
	<path class="st7" d="M342.1,358.3c2.4-1.6,3.2-4.8,1.9-7.4v-0.3l0,0l-2.2-3c-2.4-3-6.7-3.7-9.8-1.5l0,0c-3.4,1.8-4.6,6.1-2.7,9.4
		v0.1l0,0l1.9,3.3v0.3c1.7,2.3,4.9,3,7.4,1.6l0,0l3.3-2.3C341.8,358.3,341.8,358.3,342.1,358.3z"/>
	<path class="st8" d="M341.5,358.3c2.4-1.6,3.2-4.8,1.9-7.4v-0.3l0,0l-2.2-3c-2.4-3-6.7-3.7-9.8-1.5l0,0c-3.4,1.8-4.6,6.1-2.7,9.4
		v0.1l0,0l1.9,3.3v0.3c1.7,2.4,4.9,3.1,7.4,1.6l0,0l3.3-2.3C341.4,358.6,341.5,358.5,341.5,358.3L341.5,358.3z"/>
	<path class="st9" d="M341.3,359.2c2.3-1.5,2.9-4.6,1.4-6.9c0-0.1-0.1-0.1-0.1-0.2l0,0l-2.2-3c-2.1-3-6.2-3.8-9.2-1.8l0,0
		c-3,2-4,6-2.4,9.2l1.9,3.3v0.3c1.4,2.4,4.5,3.1,6.9,1.7l0.1-0.1c0.1,0,0.1,0,0.1-0.1l0,0l0,0L341.3,359.2L341.3,359.2z"/>
	<path class="st10" d="M342.8,352.8l-2.6-3.6c-2.1-3-6.2-3.8-9.2-1.8l0,0c-3,2-4,6-2.4,9.2l2,3.9"/>
	<path class="st7" d="M370,339.6c2.4-1.6,3.2-4.8,1.9-7.4v-0.3l0,0l-2.2-3c-2.4-3-6.7-3.7-9.8-1.5l0,0c-3.4,1.8-4.6,6.1-2.7,9.4v0.1
		l0,0l1.9,3.3v0.3c1.7,2.3,4.9,3,7.4,1.6l0,0l3.3-2.3C369.7,339.6,369.7,339.6,370,339.6z"/>
	<path class="st8" d="M369.4,339.6c2.4-1.6,3.2-4.8,1.9-7.4v-0.3l0,0l-2.2-3c-2.4-3-6.7-3.7-9.8-1.5l0,0c-3.4,1.8-4.6,6.1-2.7,9.4
		v0.1l0,0l1.9,3.3v0.3c1.7,2.4,4.9,3.1,7.4,1.6l0,0l3.3-2.3C369.3,339.9,369.4,339.8,369.4,339.6L369.4,339.6z"/>
	<path class="st9" d="M369.1,340.5c2.3-1.5,2.9-4.6,1.4-6.9c0-0.1-0.1-0.1-0.1-0.2l0,0l-2.2-3c-2.1-3-6.2-3.8-9.2-1.8l0,0
		c-3,2-4,6-2.4,9.2l1.9,3.3v0.3c1.4,2.4,4.5,3.1,6.9,1.7l0.1-0.1c0.1,0,0.1,0,0.1-0.1l0,0l0,0L369.1,340.5L369.1,340.5z"/>
	<path class="st10" d="M370.7,334.1l-2.6-3.6c-2.1-3-6.2-3.8-9.2-1.8l0,0c-3,2-4,6-2.4,9.2l2,3.9"/>
	<path class="st7" d="M229.5,314.5c2.4-1.6,3.2-4.8,1.9-7.4v-0.3l0,0l-2.2-3c-2.4-3-6.7-3.7-9.8-1.5l0,0c-3.4,1.8-4.6,6.1-2.7,9.4
		v0.1l0,0l1.9,3.3v0.3c1.7,2.3,4.9,3,7.4,1.6l0,0l3.3-2.3C229.2,314.5,229.2,314.5,229.5,314.5z"/>
	<path class="st8" d="M228.9,314.5c2.4-1.6,3.2-4.8,1.9-7.4v-0.3l0,0l-2.2-3c-2.4-3-6.7-3.7-9.8-1.5l0,0c-3.4,1.8-4.6,6.1-2.7,9.4
		v0.1l0,0l1.9,3.3v0.3c1.7,2.4,4.9,3.1,7.4,1.6l0,0l3.3-2.3C228.7,314.8,228.9,314.7,228.9,314.5L228.9,314.5z"/>
	<path class="st9" d="M228.6,315.4c2.3-1.5,2.9-4.6,1.4-6.9c0-0.1-0.1-0.1-0.1-0.2l0,0l-2.2-3c-2.1-3-6.2-3.8-9.2-1.8l0,0
		c-3,2-4,6-2.4,9.2l1.9,3.3v0.3c1.4,2.4,4.5,3.1,6.9,1.7l0.1-0.1c0.1,0,0.1,0,0.1-0.1l0,0l0,0L228.6,315.4z"/>
	<path class="st10" d="M230.2,309l-2.6-3.6c-2.1-3-6.2-3.8-9.2-1.8l0,0c-3,2-4,6-2.4,9.2l2,3.9"/>
	<path class="st7" d="M257.4,294.2c2.4-1.6,3.2-4.8,1.9-7.4v-0.3l0,0l-2.2-3c-2.4-3-6.7-3.7-9.8-1.5l0,0c-3.4,1.8-4.6,6.1-2.7,9.4
		v0.1l0,0l1.9,3.3v0.3c1.7,2.3,4.9,3,7.4,1.6l0,0l3.3-2.3C257,294.2,257,294.2,257.4,294.2z"/>
	<path class="st8" d="M256.7,294.2c2.4-1.6,3.2-4.8,1.9-7.4v-0.3l0,0l-2.2-3c-2.4-3-6.7-3.7-9.8-1.5l0,0c-3.4,1.8-4.6,6.1-2.7,9.4
		v0.1l0,0l1.9,3.3v0.3c1.7,2.4,4.9,3.1,7.4,1.6l0,0l3.3-2.3C256.6,294.5,256.7,294.3,256.7,294.2L256.7,294.2z"/>
	<path class="st9" d="M256.5,295.1c2.3-1.5,2.9-4.6,1.4-6.9c0-0.1-0.1-0.1-0.1-0.2l0,0l-2.2-3c-2.1-3-6.2-3.8-9.2-1.8l0,0
		c-3,2-4,6-2.4,9.2l1.9,3.3v0.3c1.4,2.4,4.5,3.1,6.9,1.7l0.1-0.1c0.1,0,0.1,0,0.1-0.1l0,0l0,0L256.5,295.1z"/>
	<path class="st10" d="M258.1,288.6l-2.6-3.6c-2.1-3-6.2-3.8-9.2-1.8l0,0c-3,2-4,6-2.4,9.2l2,3.9"/>
	<path class="st7" d="M284.8,276.4c2.4-1.6,3.2-4.8,1.9-7.4v-0.3l0,0l-2.2-3c-2.4-3-6.7-3.7-9.8-1.5l0,0c-3.4,1.8-4.6,6.1-2.7,9.4
		v0.1l0,0l1.9,3.3v0.3c1.7,2.3,4.9,3,7.4,1.6l0,0l3.3-2.3C284.5,276.4,284.5,276.4,284.8,276.4z"/>
	<path class="st8" d="M284.1,276.4c2.4-1.6,3.2-4.8,1.9-7.4v-0.3l0,0l-2.2-3c-2.4-3-6.7-3.7-9.8-1.5l0,0c-3.4,1.8-4.6,6.1-2.7,9.4
		v0.1l0,0l1.9,3.3v0.3c1.7,2.4,4.9,3.1,7.4,1.6l0,0l3.3-2.3C284,276.7,284.2,276.6,284.1,276.4L284.1,276.4z"/>
	<path class="st9" d="M283.9,277.3c2.3-1.5,2.9-4.6,1.4-6.9c0-0.1-0.1-0.1-0.1-0.2l0,0l-2.2-3c-2.1-3-6.2-3.8-9.2-1.8l0,0
		c-3,2-4,6-2.4,9.2l1.9,3.3v0.3c1.4,2.4,4.5,3.1,6.9,1.7l0.1-0.1c0.1,0,0.1,0,0.1-0.1l0,0l0,0L283.9,277.3L283.9,277.3z"/>
	<path class="st10" d="M285.5,270.9l-2.6-3.6c-2.1-3-6.2-3.8-9.2-1.8l0,0c-3,2-4,6-2.4,9.2l2,3.9"/>
	<path class="st7" d="M311.4,256.5c2.4-1.6,3.2-4.8,1.9-7.4v-0.3l0,0l-2.2-3c-2.4-3-6.7-3.7-9.8-1.5l0,0c-3.4,1.8-4.6,6.1-2.7,9.4
		v0.1l0,0l1.9,3.3v0.3c1.7,2.3,4.9,3,7.4,1.6l0,0l3.3-2.3C311.1,256.5,311.1,256.5,311.4,256.5z"/>
	<path class="st8" d="M310.8,256.5c2.4-1.6,3.2-4.8,1.9-7.4v-0.3l0,0l-2.2-3c-2.4-3-6.7-3.7-9.8-1.5l0,0c-3.4,1.8-4.6,6.1-2.7,9.4
		v0.1l0,0l1.9,3.3v0.3c1.7,2.4,4.9,3.1,7.4,1.6l0,0l3.3-2.3C310.6,256.9,310.8,256.7,310.8,256.5L310.8,256.5z"/>
	<path class="st9" d="M310.5,257.5c2.3-1.5,2.9-4.6,1.4-6.9c0-0.1-0.1-0.1-0.1-0.2l0,0l-2.2-3c-2.1-3-6.2-3.8-9.2-1.8l0,0
		c-3,2-4.1,6-2.4,9.2l1.9,3.3v0.3c1.4,2.4,4.5,3.1,6.9,1.7l0.1-0.1c0.1,0,0.1,0,0.1-0.1l0,0l0,0L310.5,257.5L310.5,257.5z"/>
	<path class="st10" d="M312.1,251l-2.6-3.6c-2.1-3-6.2-3.8-9.2-1.8l0,0c-3,2-4.1,6-2.4,9.2l2,3.9"/>
	<path class="st7" d="M257.2,359.1c-2.4,1.6-3.2,4.8-1.9,7.4v0.3l0,0l2.2,3c2.4,3,6.7,3.7,9.8,1.5l0,0c3.4-1.8,4.6-6.1,2.7-9.4v-0.1
		l0,0l-1.9-3.3v-0.3c-1.7-2.3-4.9-3-7.4-1.6l0,0l-3.3,2.2C257.5,359.1,257.5,359.1,257.2,359.1z"/>
	<path class="st8" d="M257.8,359.1c-2.4,1.6-3.2,4.8-1.9,7.4v0.3l0,0l2.2,3c2.4,3,6.7,3.7,9.8,1.5l0,0c3.4-1.8,4.6-6.1,2.7-9.4v-0.1
		l0,0l-1.9-3.3v-0.3c-1.7-2.4-4.9-3.1-7.4-1.6l0,0l-3.3,2.3C257.9,358.8,257.8,358.9,257.8,359.1L257.8,359.1z"/>
	<path class="st9" d="M258.1,358.2c-2.3,1.5-2.9,4.6-1.4,6.9c0,0.1,0.1,0.1,0.1,0.2l0,0l2.2,3c2.1,3,6.2,3.8,9.2,1.8l0,0
		c3-2,4-6,2.4-9.2l-1.9-3.3v-0.3c-1.4-2.4-4.5-3.1-6.9-1.7l-0.1,0.1c-0.1,0-0.1,0-0.1,0.1l0,0l0,0L258.1,358.2z"/>
	<path class="st10" d="M256.5,364.6l2.6,3.6c2.1,3,6.2,3.8,9.2,1.8l0,0c3-2,4-6,2.4-9.2l-2-3.9"/>
	<path class="st7" d="M283.2,340.3c-2.4,1.6-3.2,4.8-1.9,7.4v0.3l0,0l2.2,3c2.4,3,6.7,3.7,9.8,1.5l0,0c3.4-1.8,4.6-6.1,2.7-9.4V343
		l0,0l-1.9-3.3v-0.3c-1.7-2.3-4.9-3-7.4-1.6l0,0l-3.3,2.3C283.5,340.3,283.5,340.3,283.2,340.3z"/>
	<path class="st8" d="M283.8,340.3c-2.4,1.6-3.2,4.8-1.9,7.4v0.3l0,0l2.2,3c2.4,3,6.7,3.7,9.8,1.5l0,0c3.4-1.8,4.6-6.1,2.7-9.4V343
		l0,0l-1.9-3.3v-0.3c-1.7-2.4-4.9-3.1-7.4-1.6l0,0L284,340C283.9,340,283.8,340.1,283.8,340.3z"/>
	<path class="st9" d="M284.1,339.4c-2.3,1.5-2.9,4.6-1.4,6.9c0,0.1,0.1,0.1,0.1,0.2l0,0l2.2,3c2.1,3,6.2,3.8,9.2,1.8l0,0
		c3-2,4-6,2.4-9.2l-1.9-3.3v-0.3c-1.4-2.4-4.5-3.1-6.9-1.7l-0.1,0.1c-0.1,0-0.1,0-0.1,0.1l0,0l0,0L284.1,339.4L284.1,339.4z"/>
	<path class="st10" d="M282.5,345.8l2.6,3.6c2.1,3,6.2,3.8,9.2,1.8l0,0c3-2,4-6,2.4-9.2l-2-3.9"/>
	<path class="st7" d="M310.6,321.6c-2.4,1.6-3.2,4.8-1.9,7.4v0.3l0,0l2.2,3c2.4,3,6.7,3.7,9.8,1.5l0,0c3.4-1.8,4.6-6.1,2.7-9.4v-0.1
		l0,0l-1.9-3.3v-0.3c-1.7-2.3-4.9-3-7.4-1.6l0,0l-3.3,2.2C310.9,321.6,310.9,321.6,310.6,321.6z"/>
	<path class="st8" d="M311.2,321.6c-2.4,1.6-3.2,4.8-1.9,7.4v0.3l0,0l2.2,3c2.4,3,6.7,3.7,9.8,1.5l0,0c3.4-1.8,4.6-6.1,2.7-9.4v-0.1
		l0,0l-1.9-3.3v-0.3c-1.7-2.4-4.9-3.1-7.4-1.6l0,0l-3.3,2.3C311.3,321.3,311.2,321.4,311.2,321.6L311.2,321.6z"/>
	<path class="st9" d="M311.5,320.7c-2.3,1.5-2.9,4.6-1.4,6.9c0,0.1,0.1,0.1,0.1,0.2l0,0l2.2,3c2.1,3,6.2,3.8,9.2,1.8l0,0
		c3-2,4-6,2.4-9.2l-1.9-3.3v-0.3c-1.4-2.4-4.5-3.1-6.9-1.7l-0.1,0.1c-0.1,0-0.1,0-0.1,0.1l0,0l0,0L311.5,320.7L311.5,320.7z"/>
	<path class="st10" d="M309.9,327.1l2.6,3.6c2.1,3,6.2,3.8,9.2,1.8l0,0c3-2,4-6,2.4-9.2l-2-3.9"/>
	<path class="st7" d="M336.4,301.5c-2.4,1.6-3.2,4.8-1.9,7.4v0.3l0,0l2.2,3c2.4,3,6.7,3.7,9.8,1.5l0,0c3.4-1.8,4.6-6.1,2.7-9.4v-0.1
		l0,0l-1.9-3.3v-0.3c-1.7-2.3-4.9-3-7.4-1.6l0,0l-3.3,2.3C336.7,301.5,336.7,301.5,336.4,301.5z"/>
	<path class="st8" d="M337,301.5c-2.4,1.6-3.2,4.8-1.9,7.4v0.3l0,0l2.2,3c2.4,3,6.7,3.7,9.8,1.5l0,0c3.4-1.8,4.6-6.1,2.7-9.4v-0.1
		l0,0l-1.9-3.3v-0.3c-1.7-2.4-4.9-3.1-7.4-1.6l0,0l-3.3,2.3C337.1,301.2,337,301.3,337,301.5L337,301.5z"/>
	<path class="st9" d="M337.3,300.6c-2.3,1.5-2.9,4.6-1.4,6.9c0,0.1,0.1,0.1,0.1,0.2l0,0l2.2,3c2.1,3,6.2,3.8,9.2,1.8l0,0
		c3-2,4.1-6,2.4-9.2l-1.9-3.3v-0.3c-1.4-2.4-4.5-3.1-6.9-1.7l-0.1,0.1c-0.1,0-0.1,0-0.1,0.1l0,0l0,0L337.3,300.6L337.3,300.6z"/>
	<path class="st10" d="M335.7,307l2.6,3.6c2.1,3,6.2,3.8,9.2,1.8l0,0c3-2,4.1-6,2.4-9.2l-2-3.9"/>
	<path class="st4" d="M219.8,331.1l20.7,29.2c1.3,1.9,3.9,2.3,5.8,1l0,0l101.6-71.4c1.9-1.3,2.3-3.9,1-5.8l0,0l0,0l-20.8-29.4
		c-1.3-1.9-3.9-2.3-5.8-1l0,0l-101.4,71.6C219,326.6,218.5,329.2,219.8,331.1L219.8,331.1z"/>
	<path class="st5" d="M220.9,330.2l20.7,29.2c1.3,1.9,3.9,2.3,5.8,1l0,0L348.9,289c1.9-1.3,2.3-3.9,1-5.8l0,0l0,0l-20.8-29.4
		c-1.3-1.9-3.9-2.3-5.8-1l0,0l-101.4,71.6C220.1,325.8,219.6,328.3,220.9,330.2L220.9,330.2z"/>
	<g id="details-5-2-9-2">
		<path class="st15" d="M57.5,167L57.5,167c-0.6,0-1.5-1.5-1.5-3.3v-24.8c0-1.9,0.6-3.3,1.5-3.3l0,0L104,136l0,0
			c0.6,0,1.5,1.5,1.5,3.3v24.8c0,1.9-0.6,3.3-1.5,3.3l0,0L57.5,167z"/>
		<path class="st4" d="M58.1,167L58.1,167c-0.6,0-1.5-1.5-1.5-3.3v-24.5c0-1.9,0.6-3.3,1.5-3.3l0,0l46.5,0.4l0,0
			c0.6,0,1.5,1.5,1.5,3.3v24.8c0,1.9-0.6,3.3-1.5,3.3l0,0L58.1,167z"/>
	</g>
	<path class="st5" d="M57.8,164.4c0,1.5,0.3,2.6,0.9,2.6h46.2c0.6,0,0.9-1.1,0.9-2.6v-25.6c0-1.9-0.6-3.3-1.5-3.3H58.4
		c-0.6,0-1.5,1.5-1.5,3l0,0L57.8,164.4z"/>
	<g id="details-5-2-9-5">
		<path class="st15" d="M116.5,318.6L116.5,318.6c-0.4,0-0.5-1.6-0.5-4.3v-31.1c0-1.4,0.1-2.9,0.5-4.3l0,0l20.3,0.5l0,0
			c0.4,0,0.5,1.6,0.5,4.3v31.2c0,1.4-0.1,2.9-0.5,4.3l0,0L116.5,318.6z"/>
		<path class="st4" d="M116.8,318.6L116.8,318.6c-0.4,0-0.5-1.6-0.5-4.3v-30.6c0-1.4,0.1-2.9,0.5-4.3l0,0l20.3,0.5l0,0
			c0.4,0,0.5,1.6,0.5,4.3v31.1c0,1.4-0.1,2.9-0.5,4.3l0,0L116.8,318.6z"/>
	</g>
	<path class="st5" d="M116.7,315.4c0,1.6,0.2,3.2,0.5,3.2h20.3c0.4,0,0.5-1.6,0.5-3.2v-31.7c0-1.4-0.1-2.9-0.5-4.3H117
		c-0.4,0-0.5,1.6-0.5,3.8l0,0L116.7,315.4z"/>
	<g id="details-5-2-9-6">
		<path class="st15" d="M164,403.7L164,403.7c0,0.4-1.6,0.5-4.3,0.5h-31.1c-1.4,0-2.9-0.1-4.3-0.5l0,0l0.5-20.3l0,0
			c0-0.4,1.6-0.5,4.3-0.5h31.1c1.4,0,2.9,0.1,4.3,0.5l0,0L164,403.7z"/>
		<path class="st4" d="M164,403.3L164,403.3c0,0.4-1.6,0.5-4.3,0.5h-30.6c-1.4,0-2.9-0.1-4.3-0.5l0,0l0.5-20.3l0,0
			c0-0.4,1.6-0.5,4.3-0.5h31.1c1.4,0,2.9,0.1,4.3,0.5l0,0L164,403.3z"/>
	</g>
	<path class="st5" d="M160.8,403.5c1.6,0,3.2-0.2,3.2-0.5l0,0v-20.3c0-0.4-1.6-0.5-3.2-0.5h-31.7c-1.4,0-2.9,0.1-4.3,0.5v20.5
		c0,0.4,1.6,0.5,3.8,0.5l0,0L160.8,403.5z"/>
	<g id="details-5-2-9-7">
		<path class="st15" d="M204.8,403.4L204.8,403.4c0,0.4-1.6,0.5-4.3,0.5h-31.1c-1.4,0-2.9-0.1-4.3-0.5l0,0l0.5-20.3l0,0
			c0-0.4,1.6-0.5,4.3-0.5H201c1.4,0,2.9,0.1,4.3,0.5l0,0L204.8,403.4z"/>
		<path class="st4" d="M204.8,403L204.8,403c0,0.4-1.6,0.5-4.3,0.5h-30.6c-1.4,0-2.9-0.1-4.3-0.5l0,0l0.5-20.3l0,0
			c0-0.4,1.6-0.5,4.3-0.5h31.1c1.4,0,2.9,0.1,4.3,0.5l0,0L204.8,403z"/>
	</g>
	<path class="st5" d="M201.6,403.2c1.6,0,3.2-0.2,3.2-0.5l0,0v-20.3c0-0.4-1.6-0.5-3.2-0.5h-31.7c-1.4,0-2.9,0.1-4.3,0.5v20.5
		c0,0.4,1.6,0.5,3.8,0.5l0,0L201.6,403.2z"/>
	<path class="st11" d="M108.3,241.5c0-1.7,1.2-3.1,2.9-3.2h0.6l7.9,0.3l0,0c3,0.1,5.4,2.5,5.5,5.5l0,0v4.9l0,0
		c-0.1,3-2.5,5.4-5.5,5.5l-7.9-0.3c-1.8-0.1-3.2-1.6-3.2-3.4v-0.1l0,0L108.3,241.5z"/>
	<path class="st12" d="M108.3,240.6c0.1-1.8,1.6-3.2,3.4-3.2h0.1l7.9,0.3l0,0c3,0.1,5.4,2.5,5.5,5.5l0,0v4.9l0,0
		c-0.1,3-2.5,5.4-5.5,5.5l-7.9-0.3c-1.7,0-3.1-1.2-3.2-2.9l0,0v-0.6L108.3,240.6z"/>
	<path class="st13" d="M108,240.4L108,240.4c0.1-1.8,1.4-3.2,3.2-3.5h7.9c3,0.1,5.4,2.5,5.5,5.5l0,0v4.9l0,0c-0.1,3-2.5,5.4-5.5,5.5
		h-7.9c-1.8-0.1-3.2-1.4-3.5-3.2L108,240.4z"/>
	<path class="st11" d="M119.1,252.9c1.5-5.2,1.7-10.7,0.3-16l0,0c3,0.1,5.4,2.5,5.5,5.5l0,0v4.9l0,0
		C124.7,250.4,122.2,252.8,119.1,252.9"/>
	<path class="st14" d="M119.1,252.9c1.5-5.2,1.7-10.7,0.3-16l0,0c3,0.1,5.4,2.5,5.5,5.5l0,0v4.9l0,0
		C124.7,250.4,122.2,252.8,119.1,252.9L119.1,252.9"/>
	<path class="st11" d="M55.4,249.6c0,1.7-1.2,3.1-2.9,3.2h-0.6l-7.9-0.3l0,0c-3-0.1-5.4-2.5-5.5-5.5l0,0v-4.9l0,0
		c0.1-3,2.5-5.4,5.5-5.5l7.9,0.3c1.8,0.1,3.2,1.6,3.2,3.4v0.1l0,0L55.4,249.6z"/>
	<path class="st12" d="M55.4,250.5c-0.1,1.8-1.6,3.2-3.4,3.2h-0.1l-7.9-0.3l0,0c-3-0.1-5.4-2.5-5.5-5.5l0,0v-5l0,0
		c0.1-3,2.5-5.4,5.5-5.5l7.9,0.3c1.7,0,3.1,1.2,3.2,2.9l0,0v0.6L55.4,250.5z"/>
	<path class="st13" d="M55.7,250.7L55.7,250.7c-0.1,1.8-1.4,3.2-3.2,3.5h-7.9c-3-0.1-5.4-2.5-5.5-5.5l0,0v-4.9l0,0
		c0.1-3,2.5-5.4,5.5-5.5h7.9c1.8,0.1,3.2,1.4,3.5,3.2L55.7,250.7z"/>
	<path class="st11" d="M44.6,238.2c-1.5,5.2-1.7,10.7-0.3,16l0,0c-3-0.1-5.4-2.5-5.5-5.5l0,0v-4.9l0,0
		C39.1,240.7,41.5,238.4,44.6,238.2"/>
	<path class="st14" d="M44.6,238.2c-1.5,5.2-1.7,10.7-0.3,16l0,0c-3-0.1-5.4-2.5-5.5-5.5l0,0v-4.9l0,0
		C39.1,240.7,41.5,238.4,44.6,238.2L44.6,238.2"/>
	<path class="st11" d="M107,145.1c0-1.7,1.2-3.1,2.9-3.2h0.6l7.9,0.3l0,0c3,0.1,5.4,2.5,5.5,5.5l0,0v4.9l0,0c-0.1,3-2.5,5.4-5.5,5.5
		l-7.9-0.3c-1.8-0.1-3.2-1.6-3.2-3.4v-0.1l0,0L107,145.1z"/>
	<path class="st12" d="M107,144.2c0.1-1.8,1.6-3.2,3.4-3.2h0.1l7.9,0.3l0,0c3,0.1,5.4,2.5,5.5,5.5l0,0v4.9l0,0
		c-0.1,3-2.5,5.4-5.5,5.5l-7.9-0.3c-1.7,0-3.1-1.2-3.2-2.9l0,0v-0.6L107,144.2z"/>
	<path class="st13" d="M106.7,143.9L106.7,143.9c0.1-1.8,1.4-3.2,3.2-3.5h7.9c3,0.1,5.4,2.5,5.5,5.5l0,0v4.9l0,0
		c-0.1,3-2.5,5.4-5.5,5.5h-7.9c-1.8-0.1-3.2-1.4-3.5-3.2L106.7,143.9z"/>
	<path class="st11" d="M117.7,156.4c1.5-5.2,1.7-10.7,0.3-16l0,0c3,0.1,5.4,2.5,5.5,5.5l0,0v4.9l0,0
		C123.4,153.9,120.8,156.4,117.7,156.4"/>
	<path class="st14" d="M117.7,156.4c1.5-5.2,1.7-10.7,0.3-16l0,0c3,0.1,5.4,2.5,5.5,5.5l0,0v4.9l0,0
		C123.4,153.9,120.8,156.4,117.7,156.4L117.7,156.4"/>
	<path class="st11" d="M54,153.2c0,1.7-1.2,3.1-2.9,3.2h-0.6l-7.9-0.3l0,0c-3-0.1-5.4-2.5-5.5-5.5l0,0v-4.9l0,0
		c0.1-3,2.5-5.4,5.5-5.5l7.9,0.3c1.8,0.1,3.2,1.6,3.2,3.4v0.1l0,0L54,153.2z"/>
	<path class="st12" d="M54,154c-0.1,1.8-1.6,3.2-3.4,3.2h-0.1l-7.9-0.3l0,0c-3-0.1-5.4-2.5-5.5-5.5l0,0v-4.9l0,0
		c0.1-3,2.5-5.4,5.5-5.5l7.9,0.3c1.7,0,3.1,1.2,3.2,2.9l0,0v0.6L54,154z"/>
	<path class="st13" d="M54.3,154.3L54.3,154.3c-0.1,1.8-1.4,3.2-3.2,3.5h-7.9c-3-0.1-5.4-2.5-5.5-5.5l0,0v-4.9l0,0
		c0.1-3,2.5-5.4,5.5-5.5h7.9c1.8,0.1,3.2,1.4,3.5,3.2L54.3,154.3z"/>
	<path class="st11" d="M43.3,141.8c-1.5,5.2-1.7,10.7-0.3,16l0,0c-3-0.1-5.4-2.5-5.5-5.5l0,0v-4.9l0,0
		C37.7,144.3,40.2,141.9,43.3,141.8"/>
	<path class="st14" d="M43.3,141.8c-1.5,5.2-1.7,10.7-0.3,16l0,0c-3-0.1-5.4-2.5-5.5-5.5l0,0v-4.9l0,0
		C37.7,144.3,40.2,141.9,43.3,141.8L43.3,141.8"/>
	<g id="details-5-2-9-8">
		<path class="st15" d="M57.8,260.6L57.8,260.6c-0.6,0-1.5-1.5-1.5-3.3v-24.8c0-1.9,0.6-3.3,1.5-3.3l0,0l46.5,0.4l0,0
			c0.6,0,1.5,1.5,1.5,3.3v24.8c0,1.9-0.6,3.3-1.5,3.3l0,0L57.8,260.6z"/>
		<path class="st4" d="M58.4,260.6L58.4,260.6c-0.6,0-1.5-1.5-1.5-3.3v-24.5c0-1.9,0.6-3.3,1.5-3.3l0,0l46.5,0.4l0,0
			c0.6,0,1.5,1.5,1.5,3.3V258c0,1.9-0.6,3.3-1.5,3.3l0,0L58.4,260.6z"/>
	</g>
	<path class="st5" d="M58.1,258c0,1.5,0.3,2.6,0.9,2.6h46.2c0.6,0,0.9-1.1,0.9-2.6v-25.6c0-1.9-0.6-3.3-1.5-3.3H58.7
		c-0.6,0-1.5,1.5-1.5,3l0,0L58.1,258z"/>
	<path class="st11" d="M54.3,300.6c0,1.7-1.2,3.1-2.9,3.2h-0.6l-7.9-0.3l0,0c-3-0.1-5.4-2.5-5.5-5.5l0,0v-4.9l0,0
		c0.1-3,2.5-5.4,5.5-5.5l7.9,0.3c1.8,0.1,3.2,1.6,3.2,3.4v0.1l0,0L54.3,300.6L54.3,300.6z"/>
	<path class="st12" d="M54.3,301.5c-0.1,1.8-1.6,3.2-3.4,3.2h-0.1l-7.9-0.3l0,0c-3-0.1-5.4-2.5-5.5-5.5l0,0v-5l0,0
		c0.1-3,2.5-5.4,5.5-5.5l7.9,0.3c1.7,0,3.1,1.2,3.2,2.9l0,0v0.6L54.3,301.5z"/>
	<path class="st13" d="M54.6,301.8L54.6,301.8c-0.1,1.8-1.4,3.2-3.2,3.5h-7.9c-3-0.1-5.4-2.5-5.5-5.5l0,0v-4.9l0,0
		c0.1-3,2.5-5.4,5.5-5.5h7.9c1.8,0.1,3.2,1.4,3.5,3.2L54.6,301.8L54.6,301.8z"/>
	<path class="st11" d="M43.6,289.3c-1.5,5.2-1.7,10.7-0.3,16l0,0c-3-0.1-5.4-2.5-5.5-5.5l0,0v-4.9l0,0
		C37.9,291.8,40.5,289.3,43.6,289.3"/>
	<path class="st14" d="M43.6,289.3c-1.5,5.2-1.7,10.7-0.3,16l0,0c-3-0.1-5.4-2.5-5.5-5.5l0,0v-4.9l0,0
		C37.9,291.8,40.5,289.3,43.6,289.3L43.6,289.3"/>
	<g id="Layer_82_copy_5-7-2-9-2">
		<path class="st16" d="M135.4,371.2l0.8,0.5c3,1.7,4.1,5.5,2.5,8.5l-0.5,0.8c-1.7,3-5.5,4.1-8.5,2.5l-0.8-0.5
			c-3-1.7-4.1-5.5-2.5-8.5l0.5-0.8c1.4-2.9,4.8-4.2,7.8-2.9C134.9,370.9,135.2,371.1,135.4,371.2z"/>
		<path class="st4" d="M135.7,370.5l0.8,0.5c3,1.7,4.1,5.5,2.5,8.5l-0.5,0.8c-1.7,3-5.5,4.1-8.5,2.5l-0.8-0.5
			c-3-1.7-4.1-5.5-2.5-8.5l0.5-0.8c1.5-3,5.1-4.2,8-2.7c0,0,0,0,0.1,0C135.4,370.4,135.5,370.5,135.7,370.5z"/>
		<path class="st5" d="M136.1,369.8l0.8,0.5c3,1.7,4.1,5.5,2.5,8.5l-0.5,0.8c-1.7,3-5.5,4.1-8.5,2.5l-0.8-0.5
			c-3-1.7-4.1-5.5-2.5-8.5l0.5-0.8c1.6-3,5.3-4.2,8.4-2.6C136,369.8,136.1,369.8,136.1,369.8z"/>
	</g>
	<g id="Layer_82_copy_5-7-2-9-2-2">
		<path class="st16" d="M156.2,371.2l0.8,0.5c3,1.7,4.1,5.5,2.5,8.5L159,381c-1.7,3-5.5,4.1-8.5,2.5l-0.8-0.5
			c-3-1.7-4.1-5.5-2.5-8.5l0.5-0.8c1.4-2.9,4.8-4.2,7.8-2.9C155.7,370.9,156,371.1,156.2,371.2z"/>
		<path class="st4" d="M156.5,370.5l0.8,0.5c3,1.7,4.1,5.5,2.5,8.5l-0.5,0.8c-1.7,3-5.5,4.1-8.5,2.5l-0.8-0.5
			c-3-1.7-4.1-5.5-2.5-8.5l0.5-0.8c1.5-3,5.1-4.2,8-2.7c0,0,0,0,0.1,0C156.2,370.4,156.3,370.5,156.5,370.5z"/>
		<path class="st5" d="M156.9,369.8l0.8,0.5c3,1.7,4.1,5.5,2.5,8.5l-0.5,0.8c-1.7,3-5.5,4.1-8.5,2.5l-0.8-0.5
			c-3-1.7-4.1-5.5-2.5-8.5l0.5-0.8c1.6-3,5.3-4.2,8.4-2.6C156.8,369.8,156.9,369.8,156.9,369.8z"/>
	</g>
	<g id="Layer_82_copy_5-7-2-9-2-3">
		<path class="st16" d="M176.1,371.2l0.8,0.5c3,1.7,4.1,5.5,2.5,8.5l-0.5,0.8c-1.7,3-5.5,4.1-8.5,2.5l-0.8-0.5
			c-3-1.7-4.1-5.5-2.5-8.5l0.5-0.8c1.4-2.9,4.8-4.2,7.8-2.9C175.7,370.9,175.9,371,176.1,371.2z"/>
		<path class="st4" d="M176.4,370.5l0.8,0.5c3,1.7,4.1,5.5,2.5,8.5l-0.5,0.8c-1.7,3-5.5,4.1-8.5,2.5l-0.8-0.5
			c-3-1.7-4.1-5.5-2.5-8.5l0.5-0.8c1.5-3,5.1-4.2,8-2.7c0,0,0,0,0.1,0C176.2,370.4,176.3,370.5,176.4,370.5z"/>
		<path class="st5" d="M176.9,369.8l0.8,0.5c3,1.7,4.1,5.5,2.5,8.5l-0.5,0.8c-1.7,3-5.5,4.1-8.5,2.5l-0.8-0.5
			c-3-1.7-4.1-5.5-2.5-8.5l0.5-0.8c1.6-3,5.3-4.2,8.4-2.6C176.8,369.8,176.9,369.8,176.9,369.8z"/>
	</g>
	<g id="Layer_82_copy_5-7-2-9-2-4">
		<path class="st16" d="M196.9,371.2l0.8,0.5c3,1.7,4.1,5.5,2.5,8.5l-0.5,0.8c-1.7,3-5.5,4.1-8.5,2.5l-0.8-0.6
			c-3-1.7-4.1-5.5-2.5-8.5l0.5-0.8c1.4-2.9,4.8-4.2,7.8-2.9C196.4,370.9,196.7,371,196.9,371.2z"/>
		<path class="st4" d="M197.2,370.5l0.8,0.5c3,1.7,4.1,5.5,2.5,8.5l-0.5,0.8c-1.7,3-5.5,4.1-8.5,2.5l-0.8-0.5
			c-3-1.7-4.1-5.5-2.5-8.5l0.5-0.8c1.5-3,5.1-4.2,8-2.7c0,0,0,0,0.1,0C197,370.4,197.1,370.5,197.2,370.5z"/>
		<path class="st5" d="M197.7,369.8l0.8,0.5c3,1.7,4.1,5.5,2.5,8.5l-0.5,0.8c-1.7,3-5.5,4.1-8.5,2.5l-0.8-0.5
			c-3-1.7-4.1-5.5-2.5-8.5l0.5-0.8c1.6-3,5.3-4.2,8.3-2.6C197.6,369.7,197.6,369.8,197.7,369.8z"/>
	</g>
	<g id="Layer_82_copy_5-7-2-9-2-5">
		<path class="st16" d="M192.3,417.2l-0.8-0.5c-3-1.7-4.1-5.5-2.5-8.5l0.5-0.8c1.7-3,5.5-4.1,8.5-2.5l0.8,0.5c3,1.7,4.1,5.5,2.5,8.5
			l-0.5,0.8c-1.4,2.9-4.8,4.2-7.8,2.9C192.8,417.4,192.6,417.3,192.3,417.2z"/>
		<path class="st4" d="M192,417.8l-0.8-0.5c-3-1.7-4.1-5.5-2.5-8.5l0.5-0.8c1.7-3,5.5-4.1,8.5-2.5l0.8,0.5c3,1.7,4.1,5.5,2.5,8.5
			l-0.5,0.8c-1.5,3-5.1,4.2-8,2.7c0,0,0,0-0.1,0C192.2,417.9,192.1,417.9,192,417.8z"/>
		<path class="st5" d="M191.5,418.6l-0.8-0.5c-3-1.7-4.1-5.5-2.5-8.5l0.5-0.8c1.7-3,5.5-4.1,8.5-2.5l0.8,0.5c3,1.7,4.1,5.5,2.5,8.5
			l-0.5,0.8C198.3,419.1,194.5,420.2,191.5,418.6z"/>
	</g>
	<g id="Layer_82_copy_5-7-2-9-2-6">
		<path class="st16" d="M171.5,417.2l-0.8-0.5c-3-1.7-4.1-5.5-2.5-8.5l0.5-0.8c1.7-3,5.5-4.1,8.5-2.5l0.8,0.5c3,1.7,4.1,5.5,2.5,8.5
			l-0.5,0.8c-1.4,2.9-4.8,4.2-7.8,2.9C172,417.4,171.8,417.3,171.5,417.2z"/>
		<path class="st4" d="M171.2,417.8l-0.8-0.5c-3-1.7-4.1-5.5-2.5-8.5l0.5-0.8c1.7-3,5.5-4.1,8.5-2.5l0.8,0.5c3,1.7,4.1,5.5,2.5,8.5
			l-0.5,0.8c-1.5,3-5.1,4.2-8,2.7c0,0,0,0-0.1,0C171.5,417.9,171.4,417.9,171.2,417.8z"/>
		<path class="st5" d="M170.8,418.6l-0.8-0.5c-3-1.7-4.1-5.5-2.5-8.5l0.5-0.8c1.7-3,5.5-4.1,8.5-2.5l0.8,0.5c3,1.7,4.1,5.5,2.5,8.5
			l-0.5,0.8C177.6,419.1,173.8,420.2,170.8,418.6z"/>
	</g>
	<g id="Layer_82_copy_5-7-2-9-2-7">
		<path class="st16" d="M151.6,417.2l-0.8-0.5c-3-1.7-4.1-5.5-2.5-8.5l0.5-0.8c1.7-3,5.5-4.1,8.5-2.5l0.8,0.5c3,1.7,4.1,5.5,2.5,8.5
			l-0.5,0.8c-1.4,2.9-4.8,4.2-7.8,2.9C152.1,417.4,151.9,417.3,151.6,417.2z"/>
		<path class="st4" d="M151.3,417.8l-0.8-0.5c-3-1.7-4.1-5.5-2.5-8.5l0.5-0.8c1.7-3,5.5-4.1,8.5-2.5l0.8,0.5c3,1.7,4.1,5.5,2.5,8.5
			l-0.5,0.8c-1.5,3-5.1,4.2-8,2.7c0,0,0,0-0.1,0C151.5,417.9,151.4,417.9,151.3,417.8z"/>
		<path class="st5" d="M150.8,418.6l-0.8-0.5c-3-1.7-4.1-5.5-2.5-8.5l0.5-0.8c1.7-3,5.5-4.1,8.5-2.5l0.8,0.5c3,1.7,4.1,5.5,2.5,8.5
			l-0.5,0.8C157.6,419.1,153.8,420.2,150.8,418.6z"/>
	</g>
	<g id="Layer_82_copy_5-7-2-9-2-8">
		<path class="st16" d="M130.8,417.2l-0.8-0.5c-3-1.7-4.1-5.5-2.5-8.5l0.5-0.8c1.7-3,5.5-4.1,8.5-2.5l0.8,0.5c3,1.7,4.1,5.5,2.5,8.5
			l-0.5,0.8c-1.4,2.9-4.8,4.2-7.8,2.9C131.3,417.4,131.1,417.3,130.8,417.2z"/>
		<path class="st4" d="M130.5,417.8l-0.8-0.5c-3-1.7-4.1-5.5-2.5-8.5l0.5-0.8c1.7-3,5.5-4.1,8.5-2.5l0.8,0.5c3,1.7,4.1,5.5,2.5,8.5
			l-0.5,0.8c-1.5,3-5.1,4.2-8,2.7c0,0,0,0-0.1,0C130.7,417.9,130.6,417.9,130.5,417.8z"/>
		<path class="st5" d="M130,418.6l-0.8-0.5c-3-1.7-4.1-5.5-2.5-8.5l0.5-0.8c1.7-3,5.5-4.1,8.5-2.5l0.8,0.5c3,1.7,4.1,5.5,2.5,8.5
			l-0.5,0.8C136.8,419.1,133,420.2,130,418.6z"/>
	</g>
	<g id="Layer_82_copy_5-7-2-9-2-9">
		<path class="st16" d="M149.8,291l-0.5,0.8c-1.7,3-5.5,4.1-8.5,2.5l-0.8-0.5c-3-1.7-4.1-5.5-2.5-8.5l0.5-0.8c1.7-3,5.5-4.1,8.5-2.5
			l0.8,0.5c2.9,1.4,4.2,4.8,2.9,7.8C150.1,290.6,150,290.8,149.8,291z"/>
		<path class="st4" d="M150.4,291.3l-0.5,0.8c-1.7,3-5.5,4.1-8.5,2.5l-0.8-0.5c-3-1.7-4.1-5.5-2.5-8.5l0.5-0.8
			c1.7-3,5.5-4.1,8.5-2.5l0.8,0.5c3,1.5,4.2,5.1,2.7,8c0,0,0,0,0,0.1C150.6,291.1,150.5,291.2,150.4,291.3z"/>
		<path class="st5" d="M151.2,291.8l-0.5,0.8c-1.7,3-5.5,4.1-8.5,2.5l-0.8-0.5c-3-1.7-4.1-5.5-2.5-8.5l0.5-0.8
			c1.7-3,5.5-4.1,8.5-2.5l0.8,0.5c3,1.6,4.2,5.3,2.6,8.3C151.3,291.7,151.2,291.7,151.2,291.8z"/>
	</g>
	<g id="Layer_82_copy_5-7-2-9-2-10">
		<path class="st16" d="M149.8,311.8l-0.5,0.8c-1.7,3-5.5,4.1-8.5,2.5l-0.8-0.5c-3-1.7-4.1-5.5-2.5-8.5l0.5-0.8
			c1.7-3,5.5-4.1,8.5-2.5l0.8,0.5c2.9,1.4,4.2,4.8,2.9,7.8C150.1,311.3,149.9,311.6,149.8,311.8z"/>
		<path class="st4" d="M150.4,312.1l-0.5,0.8c-1.7,3-5.5,4.1-8.5,2.5l-0.8-0.5c-3-1.7-4.1-5.5-2.5-8.5l0.5-0.8
			c1.7-3,5.5-4.1,8.5-2.5l0.8,0.5c3,1.5,4.2,5.1,2.7,8c0,0,0,0,0,0.1C150.6,311.9,150.5,312,150.4,312.1z"/>
		<path class="st5" d="M151.2,312.5l-0.5,0.8c-1.7,3-5.5,4.1-8.5,2.5l-0.8-0.5c-3-1.7-4.1-5.5-2.5-8.5l0.5-0.8
			c1.7-3,5.5-4.1,8.5-2.5l0.8,0.5c3,1.6,4.2,5.3,2.6,8.4C151.2,312.4,151.2,312.5,151.2,312.5z"/>
	</g>
</g>
<g id="outline">
	<path class="st17" d="M382.4,441.7l56.4-40.6L308.8,218l0.1-143.4l-141.2-0.3V4.2H14.2v469.5"/>
	<path class="st17" d="M14.2,496.7v11.5l47.7,23.5c0,0,29.6-55.7,74.7-78.9c0,0,33-24.8,95-21.7c0,0,42.6-1.2,76.8,21.7L339,473
		l23-16.6"/>
	<line class="st18" x1="138.1" y1="74.3" x2="14.2" y2="74.3"/>
	<polyline class="st18" points="159.6,74.4 167.9,74.4 167.9,154.1 	"/>
	<line class="st18" x1="133.5" y1="111.3" x2="133.5" y2="74.3"/>
	<line class="st18" x1="133.5" y1="130.7" x2="133.5" y2="178.5"/>
	<line class="st18" x1="14.2" y1="133.4" x2="133.5" y2="133.4"/>
	<line class="st18" x1="133.5" y1="197.3" x2="133.5" y2="203.1"/>
	<polyline class="st18" points="133.5,223.8 133.5,263.6 14.2,263.6 	"/>
	<line class="st18" x1="133.5" y1="200.4" x2="14.2" y2="200.4"/>
	<polyline class="st18" points="14.2,319.1 133.5,319.1 133.5,323.6 	"/>
	<polyline class="st18" points="308.9,178.5 167.7,178.5 167.7,172.7 167.7,217.2 	"/>
	<polyline class="st18" points="167.7,239.7 279,239.7 308.9,218 	"/>
	<polyline class="st18" points="133.7,351.3 133.7,359.8 12.9,359.8 	"/>
	<polyline class="st18" points="14.2,405.6 59.8,405.6 59.8,411.7 	"/>
	<polyline class="st18" points="59.8,449.2 59.8,459.7 14.2,459.7 	"/>
</g>
<g id="icons">
	<g id="Coffee-2">
		<g class="st19">
			<path class="st20" d="M61.5,402.8v-4.7h0.6v2.3l2.3-2.3h0.8l-2,1.9l2.1,2.8h-0.8l-1.7-2.4l-0.8,0.8v1.6H61.5z"/>
			<path class="st20" d="M65.8,398.7v-0.7h0.6v0.7H65.8z M65.8,402.8v-3.4h0.6v3.4H65.8z"/>
			<path class="st20" d="M68.6,402.3l0.1,0.5c-0.2,0-0.3,0.1-0.4,0.1c-0.2,0-0.4,0-0.5-0.1s-0.2-0.2-0.2-0.3c0-0.1-0.1-0.3-0.1-0.7
				v-2H67v-0.5h0.4v-0.8l0.6-0.3v1.2h0.6v0.5H68v2c0,0.2,0,0.3,0,0.3c0,0,0.1,0.1,0.1,0.1c0,0,0.1,0,0.2,0
				C68.4,402.3,68.5,402.3,68.6,402.3z"/>
			<path class="st20" d="M71.4,401.5l0.6,0.1c-0.1,0.4-0.2,0.7-0.5,0.9s-0.6,0.3-0.9,0.3c-0.5,0-0.8-0.2-1.1-0.5s-0.4-0.7-0.4-1.3
				c0-0.4,0.1-0.7,0.2-1c0.1-0.3,0.3-0.5,0.6-0.6s0.5-0.2,0.8-0.2c0.4,0,0.7,0.1,0.9,0.3c0.2,0.2,0.4,0.5,0.5,0.8l-0.6,0.1
				c-0.1-0.2-0.1-0.4-0.3-0.5c-0.1-0.1-0.3-0.2-0.5-0.2c-0.3,0-0.5,0.1-0.7,0.3c-0.2,0.2-0.3,0.5-0.3,1c0,0.5,0.1,0.8,0.3,1
				c0.2,0.2,0.4,0.3,0.7,0.3c0.2,0,0.4-0.1,0.6-0.2S71.3,401.8,71.4,401.5z"/>
			<path class="st20" d="M72.4,402.8v-4.7H73v1.7c0.3-0.3,0.6-0.5,1-0.5c0.3,0,0.5,0,0.7,0.1c0.2,0.1,0.3,0.2,0.4,0.4
				s0.1,0.4,0.1,0.8v2.2h-0.6v-2.2c0-0.3-0.1-0.5-0.2-0.6s-0.3-0.2-0.5-0.2c-0.2,0-0.3,0-0.5,0.1s-0.3,0.2-0.3,0.4
				c-0.1,0.2-0.1,0.4-0.1,0.6v1.9H72.4z"/>
			<path class="st20" d="M78.4,401.7l0.6,0.1c-0.1,0.3-0.3,0.6-0.5,0.8c-0.3,0.2-0.6,0.3-1,0.3c-0.5,0-0.9-0.2-1.2-0.5
				c-0.3-0.3-0.4-0.7-0.4-1.3c0-0.6,0.1-1,0.4-1.3c0.3-0.3,0.7-0.5,1.2-0.5c0.5,0,0.8,0.2,1.1,0.5c0.3,0.3,0.4,0.7,0.4,1.3
				c0,0,0,0.1,0,0.2h-2.5c0,0.4,0.1,0.7,0.3,0.9s0.4,0.3,0.7,0.3c0.2,0,0.4-0.1,0.5-0.2C78.2,402.1,78.3,401.9,78.4,401.7z
				 M76.5,400.8h1.9c0-0.3-0.1-0.5-0.2-0.6c-0.2-0.2-0.4-0.3-0.7-0.3c-0.3,0-0.5,0.1-0.7,0.3C76.6,400.2,76.5,400.5,76.5,400.8z"/>
			<path class="st20" d="M79.8,402.8v-3.4h0.5v0.5c0.3-0.4,0.6-0.6,1.1-0.6c0.2,0,0.4,0,0.6,0.1c0.2,0.1,0.3,0.2,0.4,0.3
				s0.1,0.3,0.2,0.4c0,0.1,0,0.3,0,0.6v2.1h-0.6v-2.1c0-0.2,0-0.4-0.1-0.5c0-0.1-0.1-0.2-0.2-0.3c-0.1-0.1-0.2-0.1-0.4-0.1
				c-0.2,0-0.5,0.1-0.6,0.2c-0.2,0.2-0.3,0.5-0.3,0.9v1.9H79.8z"/>
		</g>
		
			<ellipse transform="matrix(0.1327 -0.9912 0.9912 0.1327 -316.1383 399.8351)" class="st21" cx="70.4" cy="380.6" rx="14.2" ry="14.2"/>
		<path class="st22" d="M75.5,379.3c0.8-0.1,1.6,0.5,1.7,1.3v0.4c0,2-2.6,2.1-2.6,2.1"/>
		<path class="st22" d="M72.3,373.7c0.3,0.4,0.3,0.9,0.1,1.3l0,0c-0.3,0.4-0.3,0.9,0,1.3"/>
		<path class="st22" d="M70.1,373.7c0.3,0.4,0.3,0.9,0.1,1.3l0,0c-0.3,0.4-0.3,0.9,0,1.3"/>
		<path class="st22" d="M67.9,373.7c0.3,0.4,0.3,0.9,0.1,1.3l0,0c-0.3,0.4-0.3,0.9,0,1.3"/>
		<path class="st22" d="M73,386.4h-5.1c-1.2,0-2.3-0.4-3.3-1.1h11.8C75.4,386,74.2,386.4,73,386.4z"/>
		<path class="st22" d="M72.7,385.1c1-0.7,1.8-1.8,2-3l0.6-3.7h-9.7l0.6,3.7c0.3,1.2,1,2.3,2,3"/>
	</g>
	<g id="Coffee-2-2">
		<g class="st19">
			<path class="st20" d="M3.2,505.6v-4.7h3.4v0.6H3.8v1.4h2.6v0.6H3.8v1.6h2.9v0.6H3.2z"/>
			<path class="st20" d="M7.5,505.6v-3.4H8v0.5c0.3-0.4,0.6-0.6,1.1-0.6c0.2,0,0.4,0,0.6,0.1c0.2,0.1,0.3,0.2,0.4,0.3
				s0.1,0.3,0.2,0.4c0,0.1,0,0.3,0,0.6v2.1H9.7v-2.1c0-0.2,0-0.4-0.1-0.5c0-0.1-0.1-0.2-0.2-0.3c-0.1-0.1-0.2-0.1-0.4-0.1
				c-0.2,0-0.5,0.1-0.6,0.2C8.1,503,8,503.3,8,503.7v1.9H7.5z"/>
			<path class="st20" d="M12.4,505.1l0.1,0.5c-0.2,0-0.3,0.1-0.4,0.1c-0.2,0-0.4,0-0.5-0.1s-0.2-0.2-0.2-0.3c0-0.1-0.1-0.3-0.1-0.7
				v-2h-0.4v-0.5h0.4v-0.8l0.6-0.3v1.2h0.6v0.5h-0.6v2c0,0.2,0,0.3,0,0.3c0,0,0.1,0.1,0.1,0.1c0,0,0.1,0,0.2,0
				C12.2,505.1,12.3,505.1,12.4,505.1z"/>
			<path class="st20" d="M13,505.6v-3.4h0.5v0.5c0.1-0.2,0.3-0.4,0.4-0.5c0.1-0.1,0.2-0.1,0.4-0.1c0.2,0,0.4,0.1,0.6,0.2l-0.2,0.5
				c-0.1-0.1-0.3-0.1-0.4-0.1c-0.1,0-0.2,0-0.3,0.1c-0.1,0.1-0.2,0.2-0.2,0.3c-0.1,0.2-0.1,0.4-0.1,0.7v1.8H13z"/>
			<path class="st20" d="M15.1,506.9l-0.1-0.5c0.1,0,0.2,0.1,0.3,0.1c0.1,0,0.2,0,0.3-0.1c0.1,0,0.1-0.1,0.2-0.2
				c0-0.1,0.1-0.2,0.2-0.4c0,0,0-0.1,0.1-0.1l-1.3-3.4h0.6l0.7,2c0.1,0.3,0.2,0.5,0.2,0.8c0.1-0.3,0.1-0.5,0.2-0.8l0.7-2H18
				l-1.3,3.5c-0.1,0.4-0.2,0.6-0.3,0.8c-0.1,0.2-0.2,0.3-0.4,0.4c-0.1,0.1-0.3,0.1-0.5,0.1C15.4,507,15.3,507,15.1,506.9z"/>
			<path class="st20" d="M18,505.7l1.4-4.9h0.5l-1.4,4.9H18z"/>
			<path class="st20" d="M20.4,505.6v-4.7h3.4v0.6H21v1.4h2.6v0.6H21v1.6h2.9v0.6H20.4z"/>
			<path class="st20" d="M24.3,505.6l1.2-1.8l-1.2-1.6h0.7l0.5,0.8c0.1,0.2,0.2,0.3,0.2,0.4c0.1-0.1,0.2-0.3,0.3-0.4l0.6-0.8h0.7
				l-1.2,1.6l1.3,1.8h-0.7l-0.7-1.1l-0.2-0.3l-0.9,1.3H24.3z"/>
			<path class="st20" d="M28,501.5v-0.7h0.6v0.7H28z M28,505.6v-3.4h0.6v3.4H28z"/>
			<path class="st20" d="M30.7,505.1l0.1,0.5c-0.2,0-0.3,0.1-0.4,0.1c-0.2,0-0.4,0-0.5-0.1s-0.2-0.2-0.2-0.3c0-0.1-0.1-0.3-0.1-0.7
				v-2h-0.4v-0.5h0.4v-0.8l0.6-0.3v1.2h0.6v0.5h-0.6v2c0,0.2,0,0.3,0,0.3c0,0,0.1,0.1,0.1,0.1c0,0,0.1,0,0.2,0
				C30.5,505.1,30.6,505.1,30.7,505.1z"/>
		</g>
		
			<ellipse transform="matrix(6.644732e-02 -0.9978 0.9978 6.644732e-02 -469.0185 465.4473)" class="st21" cx="14.2" cy="483.4" rx="14.2" ry="14.2"/>
	</g>
	<g id="stairs-4-2-2">
		<circle class="st21" cx="70.7" cy="335.3" r="14.6"/>
		<g class="st19">
			<path class="st20" d="M62.9,357.1l0.6-0.1c0,0.2,0.1,0.4,0.2,0.6c0.1,0.2,0.3,0.3,0.5,0.4c0.2,0.1,0.5,0.1,0.7,0.1
				c0.2,0,0.5,0,0.6-0.1c0.2-0.1,0.3-0.2,0.4-0.3c0.1-0.1,0.1-0.3,0.1-0.4c0-0.2,0-0.3-0.1-0.4c-0.1-0.1-0.2-0.2-0.4-0.3
				c-0.1,0-0.4-0.1-0.9-0.2c-0.4-0.1-0.7-0.2-0.9-0.3c-0.2-0.1-0.4-0.3-0.5-0.4c-0.1-0.2-0.2-0.4-0.2-0.6c0-0.2,0.1-0.5,0.2-0.7
				c0.1-0.2,0.3-0.4,0.6-0.5c0.3-0.1,0.6-0.2,0.9-0.2c0.4,0,0.7,0.1,0.9,0.2c0.3,0.1,0.5,0.3,0.6,0.5c0.1,0.2,0.2,0.5,0.2,0.8
				l-0.6,0c0-0.3-0.1-0.5-0.3-0.7c-0.2-0.2-0.5-0.2-0.8-0.2c-0.4,0-0.7,0.1-0.8,0.2c-0.2,0.1-0.3,0.3-0.3,0.5c0,0.2,0.1,0.3,0.2,0.4
				c0.1,0.1,0.4,0.2,1,0.3c0.5,0.1,0.9,0.2,1.1,0.3c0.3,0.1,0.5,0.3,0.6,0.5c0.1,0.2,0.2,0.4,0.2,0.7c0,0.3-0.1,0.5-0.2,0.7
				c-0.1,0.2-0.4,0.4-0.6,0.5c-0.3,0.1-0.6,0.2-0.9,0.2c-0.4,0-0.8-0.1-1.1-0.2s-0.5-0.3-0.7-0.6C63,357.7,62.9,357.4,62.9,357.1z"
				/>
			<path class="st20" d="M68.8,358.1l0.1,0.5c-0.2,0-0.3,0.1-0.4,0.1c-0.2,0-0.4,0-0.5-0.1c-0.1-0.1-0.2-0.2-0.2-0.3
				s-0.1-0.3-0.1-0.7v-2h-0.4v-0.5h0.4v-0.9l0.6-0.4v1.2h0.6v0.5h-0.6v2c0,0.2,0,0.3,0,0.3c0,0,0.1,0.1,0.1,0.1c0,0,0.1,0,0.2,0
				C68.6,358.1,68.7,358.1,68.8,358.1z"/>
			<path class="st20" d="M71.6,358.2c-0.2,0.2-0.4,0.3-0.6,0.4s-0.4,0.1-0.6,0.1c-0.4,0-0.7-0.1-0.9-0.3c-0.2-0.2-0.3-0.4-0.3-0.7
				c0-0.2,0-0.3,0.1-0.5c0.1-0.1,0.2-0.3,0.3-0.3s0.3-0.1,0.4-0.2c0.1,0,0.3-0.1,0.5-0.1c0.5-0.1,0.8-0.1,1-0.2c0-0.1,0-0.1,0-0.2
				c0-0.2-0.1-0.4-0.2-0.5c-0.1-0.1-0.4-0.2-0.7-0.2c-0.3,0-0.5,0-0.6,0.1c-0.1,0.1-0.2,0.3-0.3,0.5l-0.6-0.1
				c0.1-0.2,0.1-0.4,0.3-0.6c0.1-0.2,0.3-0.3,0.5-0.3c0.2-0.1,0.5-0.1,0.8-0.1c0.3,0,0.5,0,0.7,0.1c0.2,0.1,0.3,0.2,0.4,0.3
				s0.1,0.2,0.2,0.4c0,0.1,0,0.3,0,0.5v0.8c0,0.5,0,0.9,0,1c0,0.1,0.1,0.3,0.1,0.4h-0.6C71.6,358.5,71.6,358.3,71.6,358.2z
				 M71.5,356.9c-0.2,0.1-0.5,0.2-1,0.2c-0.2,0-0.4,0.1-0.5,0.1c-0.1,0-0.2,0.1-0.2,0.2c-0.1,0.1-0.1,0.2-0.1,0.3
				c0,0.2,0.1,0.3,0.2,0.4s0.3,0.2,0.5,0.2c0.2,0,0.4,0,0.6-0.1c0.2-0.1,0.3-0.2,0.4-0.4c0.1-0.1,0.1-0.3,0.1-0.6V356.9z"/>
			<path class="st20" d="M73,354.5v-0.7h0.6v0.7H73z M73,358.6v-3.5h0.6v3.5H73z"/>
			<path class="st20" d="M74.5,358.6v-3.5h0.5v0.5c0.1-0.2,0.3-0.4,0.4-0.5c0.1-0.1,0.2-0.1,0.4-0.1c0.2,0,0.4,0.1,0.6,0.2l-0.2,0.5
				c-0.1-0.1-0.3-0.1-0.4-0.1c-0.1,0-0.2,0-0.3,0.1c-0.1,0.1-0.2,0.2-0.2,0.3c-0.1,0.2-0.1,0.4-0.1,0.7v1.8H74.5z"/>
			<path class="st20" d="M76.5,357.6l0.6-0.1c0,0.2,0.1,0.4,0.3,0.5c0.1,0.1,0.4,0.2,0.6,0.2c0.3,0,0.5-0.1,0.6-0.2
				c0.1-0.1,0.2-0.2,0.2-0.4c0-0.1-0.1-0.2-0.2-0.3c-0.1-0.1-0.3-0.1-0.6-0.2c-0.4-0.1-0.7-0.2-0.9-0.3s-0.3-0.2-0.4-0.3
				c-0.1-0.1-0.1-0.3-0.1-0.5c0-0.2,0-0.3,0.1-0.4c0.1-0.1,0.2-0.2,0.3-0.3c0.1-0.1,0.2-0.1,0.4-0.2c0.2,0,0.3-0.1,0.5-0.1
				c0.3,0,0.5,0,0.7,0.1c0.2,0.1,0.4,0.2,0.5,0.3c0.1,0.1,0.2,0.3,0.2,0.5l-0.6,0.1c0-0.2-0.1-0.3-0.2-0.4c-0.1-0.1-0.3-0.2-0.5-0.2
				c-0.3,0-0.5,0-0.6,0.1s-0.2,0.2-0.2,0.3c0,0.1,0,0.1,0.1,0.2c0,0.1,0.1,0.1,0.2,0.2c0.1,0,0.2,0.1,0.5,0.2
				c0.4,0.1,0.7,0.2,0.9,0.3c0.2,0.1,0.3,0.2,0.4,0.3c0.1,0.1,0.1,0.3,0.1,0.5c0,0.2-0.1,0.4-0.2,0.6s-0.3,0.3-0.5,0.4
				s-0.5,0.1-0.7,0.1c-0.5,0-0.8-0.1-1-0.3C76.7,358.2,76.6,357.9,76.5,357.6z"/>
		</g>
		<g id="Outline_Icons-2-2-4-2-2">
			<line class="st23" x1="64.2" y1="340.9" x2="75.6" y2="340.9"/>
			<polyline class="st23" points="73.6,340.9 73.6,339 71.6,339 71.6,337 69.7,337 69.7,335 67.7,335 67.7,333 64.2,333 			"/>
			<line class="st23" x1="70.2" y1="329.6" x2="76.4" y2="335.8"/>
			<polyline class="st23" points="70.2,332 70.2,329.6 72.6,329.6 			"/>
			<polyline class="st23" points="76.4,333.3 76.4,335.8 73.9,335.8 			"/>
		</g>
	</g>
	<g id="Toilet">
		<g class="st19">
			<path class="st20" d="M81.5,56.9v-4.7h-1.8v-0.6H84v0.6h-1.8v4.7H81.5z"/>
		</g>
		<g class="st19">
			<path class="st20" d="M83.5,55c0-0.7,0.2-1.3,0.6-1.6c0.3-0.3,0.7-0.4,1.2-0.4c0.5,0,1,0.2,1.3,0.5c0.3,0.3,0.5,0.8,0.5,1.5
				c0,0.5-0.1,0.9-0.2,1.2c-0.1,0.3-0.4,0.5-0.7,0.7C86,56.9,85.7,57,85.4,57c-0.5,0-1-0.2-1.3-0.5C83.7,56.1,83.5,55.6,83.5,55z
				 M84.2,55c0,0.5,0.1,0.9,0.3,1.1c0.2,0.2,0.5,0.4,0.8,0.4c0.3,0,0.6-0.1,0.8-0.4c0.2-0.2,0.3-0.6,0.3-1.1c0-0.5-0.1-0.8-0.3-1.1
				c-0.2-0.2-0.5-0.4-0.8-0.4c-0.3,0-0.6,0.1-0.8,0.4C84.3,54.1,84.2,54.5,84.2,55z"/>
			<path class="st20" d="M88,52.3v-0.8h0.7v0.8H88z M88,56.9V53h0.7v3.9H88z"/>
			<path class="st20" d="M89.6,56.9v-5.4h0.7v5.4H89.6z"/>
			<path class="st20" d="M94,55.7l0.7,0.1c-0.1,0.4-0.3,0.7-0.6,0.9c-0.3,0.2-0.7,0.3-1.1,0.3c-0.6,0-1-0.2-1.4-0.5
				c-0.3-0.4-0.5-0.8-0.5-1.5c0-0.7,0.2-1.2,0.5-1.5c0.3-0.4,0.8-0.5,1.3-0.5c0.5,0,0.9,0.2,1.3,0.5c0.3,0.4,0.5,0.9,0.5,1.5
				c0,0,0,0.1,0,0.2h-2.9c0,0.4,0.1,0.8,0.4,1c0.2,0.2,0.5,0.3,0.8,0.3c0.2,0,0.4-0.1,0.6-0.2S93.9,56,94,55.7z M91.8,54.6H94
				c0-0.3-0.1-0.6-0.2-0.7c-0.2-0.3-0.5-0.4-0.8-0.4c-0.3,0-0.6,0.1-0.8,0.3C91.9,54,91.8,54.3,91.8,54.6z"/>
			<path class="st20" d="M96.9,56.3l0.1,0.6c-0.2,0-0.4,0.1-0.5,0.1c-0.2,0-0.4,0-0.6-0.1c-0.1-0.1-0.2-0.2-0.3-0.3
				c-0.1-0.1-0.1-0.4-0.1-0.8v-2.2h-0.5V53h0.5v-1l0.7-0.4V53h0.7v0.5h-0.7v2.3c0,0.2,0,0.3,0,0.4c0,0.1,0.1,0.1,0.1,0.1
				c0.1,0,0.1,0,0.2,0C96.7,56.4,96.8,56.4,96.9,56.3z"/>
			<path class="st20" d="M97.3,55.8l0.7-0.1c0,0.3,0.1,0.5,0.3,0.6c0.2,0.1,0.4,0.2,0.7,0.2c0.3,0,0.5-0.1,0.7-0.2
				c0.1-0.1,0.2-0.3,0.2-0.4c0-0.1-0.1-0.3-0.2-0.4c-0.1-0.1-0.3-0.1-0.7-0.2c-0.5-0.1-0.8-0.2-1-0.3c-0.2-0.1-0.3-0.2-0.4-0.4
				c-0.1-0.2-0.1-0.3-0.1-0.5c0-0.2,0-0.3,0.1-0.5c0.1-0.1,0.2-0.3,0.3-0.4c0.1-0.1,0.2-0.1,0.4-0.2c0.2-0.1,0.4-0.1,0.6-0.1
				c0.3,0,0.6,0,0.8,0.1c0.2,0.1,0.4,0.2,0.5,0.4c0.1,0.2,0.2,0.4,0.2,0.6l-0.6,0.1c0-0.2-0.1-0.4-0.3-0.5c-0.1-0.1-0.3-0.2-0.6-0.2
				c-0.3,0-0.5,0.1-0.6,0.2C98.1,53.7,98,53.9,98,54c0,0.1,0,0.2,0.1,0.2c0.1,0.1,0.1,0.1,0.3,0.2c0.1,0,0.3,0.1,0.6,0.2
				c0.5,0.1,0.8,0.2,1,0.3c0.2,0.1,0.3,0.2,0.4,0.3c0.1,0.2,0.2,0.3,0.2,0.6c0,0.2-0.1,0.4-0.2,0.6c-0.1,0.2-0.3,0.3-0.6,0.5
				C99.5,57,99.3,57,99,57c-0.5,0-0.9-0.1-1.2-0.3C97.5,56.5,97.4,56.2,97.3,55.8z"/>
		</g>
		<circle class="st21" cx="88.4" cy="32.5" r="16.2"/>
		<g id="Outline_Icons-4">
			<path class="st22" d="M94.3,32.2c0,0.4-0.3,0.7-0.7,0.7l0,0h-3.2v-7.2c0-0.7,0.6-1.3,1.3-1.3H93c0.7,0,1.3,0.6,1.3,1.3l0,0V32.2z
				"/>
			<path class="st22" d="M85.2,39.4h6.5v-3.9l2-1.3v-1.3H82.6c-0.1,1.7,1.2,3.2,2.9,3.3h0.1L85.2,39.4z"/>
			<rect x="81.9" y="31.5" class="st22" width="8.5" height="1.3"/>
			<circle class="st22" cx="92.7" cy="26.7" r="0.7"/>
		</g>
	</g>
	<g class="st19">
		<path class="st20" d="M28.4,427.3v-5.6h2.1c0.4,0,0.7,0,0.8,0.1c0.3,0,0.5,0.1,0.7,0.3c0.2,0.1,0.3,0.3,0.4,0.5
			c0.1,0.2,0.2,0.5,0.2,0.8c0,0.5-0.2,0.9-0.5,1.2c-0.3,0.3-0.8,0.5-1.6,0.5h-1.4v2.3H28.4z M29.2,424.4h1.4c0.5,0,0.8-0.1,1-0.3
			c0.2-0.2,0.3-0.4,0.3-0.7c0-0.2-0.1-0.4-0.2-0.6c-0.1-0.2-0.3-0.3-0.5-0.3c-0.1,0-0.4,0-0.7,0h-1.4V424.4z"/>
		<path class="st20" d="M33.5,427.3v-5.6h0.7v2c0.3-0.4,0.7-0.6,1.2-0.6c0.3,0,0.6,0.1,0.8,0.2c0.2,0.1,0.4,0.3,0.5,0.5
			c0.1,0.2,0.1,0.5,0.1,0.9v2.6h-0.7v-2.6c0-0.3-0.1-0.6-0.2-0.7s-0.4-0.2-0.6-0.2c-0.2,0-0.4,0.1-0.6,0.2c-0.2,0.1-0.3,0.2-0.4,0.4
			c-0.1,0.2-0.1,0.4-0.1,0.7v2.2H33.5z"/>
		<path class="st20" d="M37.6,425.3c0-0.7,0.2-1.3,0.6-1.7c0.3-0.3,0.8-0.4,1.3-0.4c0.6,0,1,0.2,1.4,0.5c0.4,0.4,0.5,0.9,0.5,1.5
			c0,0.5-0.1,0.9-0.2,1.2c-0.2,0.3-0.4,0.5-0.7,0.7c-0.3,0.2-0.6,0.2-1,0.2c-0.6,0-1-0.2-1.4-0.5C37.8,426.5,37.6,426,37.6,425.3z
			 M38.3,425.3c0,0.5,0.1,0.9,0.3,1.2s0.5,0.4,0.9,0.4c0.3,0,0.6-0.1,0.8-0.4c0.2-0.3,0.3-0.7,0.3-1.2c0-0.5-0.1-0.9-0.3-1.1
			c-0.2-0.3-0.5-0.4-0.8-0.4c-0.3,0-0.6,0.1-0.9,0.4C38.4,424.4,38.3,424.8,38.3,425.3z"/>
		<path class="st20" d="M42.2,427.3v-4h0.6v0.6c0.3-0.4,0.7-0.7,1.3-0.7c0.2,0,0.5,0,0.7,0.1s0.4,0.2,0.5,0.3
			c0.1,0.1,0.2,0.3,0.2,0.5c0,0.1,0,0.3,0,0.7v2.5h-0.7v-2.5c0-0.3,0-0.5-0.1-0.6c-0.1-0.1-0.1-0.2-0.3-0.3s-0.3-0.1-0.5-0.1
			c-0.3,0-0.5,0.1-0.8,0.3c-0.2,0.2-0.3,0.5-0.3,1.1v2.2H42.2z"/>
		<path class="st20" d="M49.3,426l0.7,0.1c-0.1,0.4-0.3,0.7-0.6,1c-0.3,0.2-0.7,0.3-1.2,0.3c-0.6,0-1.1-0.2-1.4-0.5
			c-0.3-0.4-0.5-0.9-0.5-1.5c0-0.7,0.2-1.2,0.5-1.6s0.8-0.6,1.4-0.6c0.5,0,1,0.2,1.3,0.5c0.3,0.4,0.5,0.9,0.5,1.5c0,0,0,0.1,0,0.2
			h-3c0,0.4,0.2,0.8,0.4,1s0.5,0.4,0.8,0.4c0.3,0,0.5-0.1,0.6-0.2C49,426.5,49.2,426.3,49.3,426z M47,424.9h2.2
			c0-0.3-0.1-0.6-0.3-0.8c-0.2-0.3-0.5-0.4-0.8-0.4c-0.3,0-0.6,0.1-0.8,0.3S47,424.6,47,424.9z"/>
	</g>
	<g class="st19">
		<path class="st20" d="M28.4,436.7v-5.6h2.1c0.4,0,0.8,0.1,1,0.2c0.3,0.1,0.5,0.3,0.6,0.5c0.1,0.2,0.2,0.5,0.2,0.7
			c0,0.2-0.1,0.5-0.2,0.7s-0.3,0.4-0.6,0.5c0.3,0.1,0.6,0.3,0.8,0.5c0.2,0.2,0.3,0.5,0.3,0.8c0,0.3-0.1,0.5-0.2,0.7
			s-0.2,0.4-0.4,0.5c-0.2,0.1-0.4,0.2-0.6,0.3c-0.2,0.1-0.5,0.1-0.9,0.1H28.4z M29.2,433.4h1.2c0.3,0,0.6,0,0.7-0.1
			c0.2-0.1,0.3-0.1,0.4-0.3s0.1-0.3,0.1-0.5c0-0.2,0-0.3-0.1-0.5c-0.1-0.1-0.2-0.2-0.4-0.3s-0.4-0.1-0.8-0.1h-1.1V433.4z M29.2,436
			h1.4c0.2,0,0.4,0,0.5,0c0.2,0,0.3-0.1,0.4-0.2c0.1-0.1,0.2-0.2,0.3-0.3c0.1-0.1,0.1-0.3,0.1-0.5c0-0.2-0.1-0.4-0.2-0.5
			c-0.1-0.2-0.3-0.3-0.4-0.3c-0.2-0.1-0.5-0.1-0.8-0.1h-1.3V436z"/>
		<path class="st20" d="M33.3,434.7c0-0.7,0.2-1.3,0.6-1.7c0.3-0.3,0.8-0.4,1.3-0.4c0.6,0,1,0.2,1.4,0.5c0.4,0.4,0.5,0.9,0.5,1.5
			c0,0.5-0.1,0.9-0.2,1.2c-0.2,0.3-0.4,0.5-0.7,0.7c-0.3,0.2-0.6,0.2-1,0.2c-0.6,0-1-0.2-1.4-0.5C33.5,435.9,33.3,435.3,33.3,434.7z
			 M34,434.7c0,0.5,0.1,0.9,0.3,1.2s0.5,0.4,0.9,0.4c0.3,0,0.6-0.1,0.8-0.4c0.2-0.3,0.3-0.7,0.3-1.2c0-0.5-0.1-0.9-0.3-1.1
			c-0.2-0.3-0.5-0.4-0.8-0.4c-0.3,0-0.6,0.1-0.9,0.4C34.1,433.8,34,434.1,34,434.7z"/>
		<path class="st20" d="M37.6,434.7c0-0.7,0.2-1.3,0.6-1.7c0.3-0.3,0.8-0.4,1.3-0.4c0.6,0,1,0.2,1.4,0.5c0.4,0.4,0.5,0.9,0.5,1.5
			c0,0.5-0.1,0.9-0.2,1.2c-0.2,0.3-0.4,0.5-0.7,0.7c-0.3,0.2-0.6,0.2-1,0.2c-0.6,0-1-0.2-1.4-0.5C37.8,435.9,37.6,435.3,37.6,434.7z
			 M38.3,434.7c0,0.5,0.1,0.9,0.3,1.2s0.5,0.4,0.9,0.4c0.3,0,0.6-0.1,0.8-0.4c0.2-0.3,0.3-0.7,0.3-1.2c0-0.5-0.1-0.9-0.3-1.1
			c-0.2-0.3-0.5-0.4-0.8-0.4c-0.3,0-0.6,0.1-0.9,0.4C38.4,433.8,38.3,434.1,38.3,434.7z"/>
		<path class="st20" d="M43.7,436.1l0.1,0.6c-0.2,0-0.4,0.1-0.5,0.1c-0.2,0-0.4,0-0.6-0.1s-0.2-0.2-0.3-0.3
			c-0.1-0.1-0.1-0.4-0.1-0.8v-2.3h-0.5v-0.5h0.5v-1l0.7-0.4v1.4h0.7v0.5H43v2.4c0,0.2,0,0.3,0,0.4s0.1,0.1,0.1,0.1
			c0.1,0,0.1,0,0.2,0C43.5,436.1,43.6,436.1,43.7,436.1z"/>
		<path class="st20" d="M44.3,436.7v-5.6H45v2c0.3-0.4,0.7-0.6,1.2-0.6c0.3,0,0.6,0.1,0.8,0.2c0.2,0.1,0.4,0.3,0.5,0.5
			c0.1,0.2,0.1,0.5,0.1,0.9v2.6h-0.7v-2.6c0-0.3-0.1-0.6-0.2-0.7s-0.4-0.2-0.6-0.2c-0.2,0-0.4,0.1-0.6,0.2c-0.2,0.1-0.3,0.2-0.4,0.4
			c-0.1,0.2-0.1,0.4-0.1,0.7v2.2H44.3z"/>
	</g>
	<line class="st23" x1="9.8" y1="483.6" x2="18.6" y2="483.3"/>
	<polyline class="st23" points="11.6,485.2 9.8,483.6 11.4,481.8 	"/>
	<polyline class="st23" points="16.8,481.6 18.6,483.3 16.9,485.1 	"/>
	<g id="Coffee-2-3">
		<g class="st19">
			<path class="st20" d="M364.4,473.8v-4.7h3.4v0.6H365v1.4h2.6v0.6H365v1.6h2.9v0.6H364.4z"/>
			<path class="st20" d="M368.7,473.8v-3.4h0.5v0.5c0.3-0.4,0.6-0.6,1.1-0.6c0.2,0,0.4,0,0.6,0.1c0.2,0.1,0.3,0.2,0.4,0.3
				c0.1,0.1,0.1,0.3,0.2,0.4c0,0.1,0,0.3,0,0.6v2.1h-0.6v-2.1c0-0.2,0-0.4-0.1-0.5c0-0.1-0.1-0.2-0.2-0.3c-0.1-0.1-0.2-0.1-0.4-0.1
				c-0.2,0-0.5,0.1-0.6,0.2c-0.2,0.2-0.3,0.5-0.3,0.9v1.9H368.7z"/>
			<path class="st20" d="M373.6,473.3l0.1,0.5c-0.2,0-0.3,0.1-0.4,0.1c-0.2,0-0.4,0-0.5-0.1c-0.1-0.1-0.2-0.2-0.2-0.3
				c0-0.1-0.1-0.3-0.1-0.7v-2H372v-0.5h0.4v-0.8l0.6-0.3v1.2h0.6v0.5H373v2c0,0.2,0,0.3,0,0.3c0,0,0.1,0.1,0.1,0.1c0,0,0.1,0,0.2,0
				C373.4,473.3,373.5,473.3,373.6,473.3z"/>
			<path class="st20" d="M374.2,473.8v-3.4h0.5v0.5c0.1-0.2,0.3-0.4,0.4-0.5c0.1-0.1,0.2-0.1,0.4-0.1c0.2,0,0.4,0.1,0.6,0.2
				l-0.2,0.5c-0.1-0.1-0.3-0.1-0.4-0.1c-0.1,0-0.2,0-0.3,0.1c-0.1,0.1-0.2,0.2-0.2,0.3c-0.1,0.2-0.1,0.4-0.1,0.7v1.8H374.2z"/>
			<path class="st20" d="M376.4,475.1l-0.1-0.5c0.1,0,0.2,0.1,0.3,0.1c0.1,0,0.2,0,0.3-0.1s0.1-0.1,0.2-0.2c0-0.1,0.1-0.2,0.2-0.4
				c0,0,0-0.1,0.1-0.1l-1.3-3.4h0.6l0.7,2c0.1,0.3,0.2,0.5,0.2,0.8c0.1-0.3,0.1-0.5,0.2-0.8l0.7-2h0.6l-1.3,3.5
				c-0.1,0.4-0.2,0.6-0.3,0.8c-0.1,0.2-0.2,0.3-0.4,0.4c-0.1,0.1-0.3,0.1-0.5,0.1C376.6,475.2,376.5,475.2,376.4,475.1z"/>
			<path class="st20" d="M379.3,473.9l1.4-4.9h0.5l-1.4,4.9H379.3z"/>
			<path class="st20" d="M381.6,473.8v-4.7h3.4v0.6h-2.8v1.4h2.6v0.6h-2.6v1.6h2.9v0.6H381.6z"/>
			<path class="st20" d="M385.5,473.8l1.2-1.8l-1.2-1.6h0.7l0.5,0.8c0.1,0.2,0.2,0.3,0.2,0.4c0.1-0.1,0.2-0.3,0.3-0.4l0.6-0.8h0.7
				l-1.2,1.6l1.3,1.8H388l-0.7-1.1l-0.2-0.3l-0.9,1.3H385.5z"/>
			<path class="st20" d="M389.2,469.8v-0.7h0.6v0.7H389.2z M389.2,473.8v-3.4h0.6v3.4H389.2z"/>
			<path class="st20" d="M391.9,473.3l0.1,0.5c-0.2,0-0.3,0.1-0.4,0.1c-0.2,0-0.4,0-0.5-0.1c-0.1-0.1-0.2-0.2-0.2-0.3
				c0-0.1-0.1-0.3-0.1-0.7v-2h-0.4v-0.5h0.4v-0.8l0.6-0.3v1.2h0.6v0.5h-0.6v2c0,0.2,0,0.3,0,0.3c0,0,0.1,0.1,0.1,0.1
				c0,0,0.1,0,0.2,0C391.7,473.3,391.8,473.3,391.9,473.3z"/>
		</g>
		<circle class="st21" cx="375.4" cy="451.6" r="14.2"/>
	</g>
	<line class="st23" x1="371" y1="451.8" x2="379.8" y2="451.5"/>
	<polyline class="st23" points="372.8,453.5 371,451.8 372.7,450.1 	"/>
	<polyline class="st23" points="378,449.8 379.8,451.5 378.1,453.3 	"/>
</g>
<g id="booking">
	<rect id="area-01.32-status" x="168.2" y="80.7" class="st24" width="135.2" height="95.5"/>
	<polygon id="area-01.33-status" class="st24" points="169.1,180.3 169.1,239.7 275.6,239.7 305.7,219 305.7,178.5 	"/>
	<rect id="area-01.31-status" x="16.9" y="74.6" class="st24" width="115.4" height="56.1"/>
	<g>
		<g class="st19">
			<path class="st5" d="M220.4,203.1v-7.2h2.2l1.3,4.9l1.3-4.9h2.2v7.2h-1.3v-5.6l-1.4,5.6h-1.4l-1.4-5.6v5.6H220.4z"/>
			<path class="st5" d="M229.7,199.5l-1.2-0.2c0.1-0.5,0.4-0.9,0.7-1.1s0.8-0.4,1.5-0.4c0.6,0,1.1,0.1,1.4,0.2
				c0.3,0.1,0.5,0.3,0.6,0.6c0.1,0.2,0.2,0.6,0.2,1.2l0,1.6c0,0.5,0,0.8,0.1,1c0,0.2,0.1,0.4,0.2,0.7h-1.4c0-0.1-0.1-0.2-0.1-0.4
				c0-0.1,0-0.1,0-0.2c-0.2,0.2-0.5,0.4-0.8,0.5c-0.3,0.1-0.6,0.2-0.9,0.2c-0.5,0-1-0.1-1.3-0.4s-0.5-0.7-0.5-1.1
				c0-0.3,0.1-0.6,0.2-0.8c0.1-0.2,0.3-0.4,0.6-0.5c0.3-0.1,0.6-0.2,1.1-0.3c0.6-0.1,1.1-0.2,1.3-0.3v-0.1c0-0.3-0.1-0.5-0.2-0.6
				c-0.1-0.1-0.4-0.2-0.7-0.2c-0.2,0-0.4,0-0.6,0.1C229.9,199.1,229.8,199.3,229.7,199.5z M231.6,200.6c-0.2,0.1-0.5,0.1-0.8,0.2
				s-0.6,0.2-0.7,0.2c-0.2,0.1-0.3,0.3-0.3,0.5c0,0.2,0.1,0.4,0.2,0.5c0.1,0.1,0.3,0.2,0.5,0.2c0.2,0,0.5-0.1,0.7-0.2
				c0.2-0.1,0.3-0.3,0.3-0.5c0-0.1,0.1-0.3,0.1-0.7V200.6z"/>
			<path class="st5" d="M233.7,203.1V202l1.9-2.2c0.3-0.4,0.6-0.6,0.7-0.8c-0.2,0-0.4,0-0.6,0l-1.8,0v-1.1h4.3v1l-2,2.3l-0.7,0.8
				c0.4,0,0.6,0,0.7,0h2.1v1.2H233.7z"/>
			<path class="st5" d="M240.3,199.5l-1.2-0.2c0.1-0.5,0.4-0.9,0.7-1.1s0.8-0.4,1.5-0.4c0.6,0,1.1,0.1,1.4,0.2
				c0.3,0.1,0.5,0.3,0.6,0.6c0.1,0.2,0.2,0.6,0.2,1.2l0,1.6c0,0.5,0,0.8,0.1,1c0,0.2,0.1,0.4,0.2,0.7h-1.4c0-0.1-0.1-0.2-0.1-0.4
				c0-0.1,0-0.1,0-0.2c-0.2,0.2-0.5,0.4-0.8,0.5c-0.3,0.1-0.6,0.2-0.9,0.2c-0.5,0-1-0.1-1.3-0.4s-0.5-0.7-0.5-1.1
				c0-0.3,0.1-0.6,0.2-0.8c0.1-0.2,0.3-0.4,0.6-0.5c0.3-0.1,0.6-0.2,1.1-0.3c0.6-0.1,1.1-0.2,1.3-0.3v-0.1c0-0.3-0.1-0.5-0.2-0.6
				c-0.1-0.1-0.4-0.2-0.7-0.2c-0.2,0-0.4,0-0.6,0.1C240.5,199.1,240.4,199.3,240.3,199.5z M242.1,200.6c-0.2,0.1-0.5,0.1-0.8,0.2
				s-0.6,0.2-0.7,0.2c-0.2,0.1-0.3,0.3-0.3,0.5c0,0.2,0.1,0.4,0.2,0.5c0.1,0.1,0.3,0.2,0.5,0.2c0.2,0,0.5-0.1,0.7-0.2
				c0.2-0.1,0.3-0.3,0.3-0.5c0-0.1,0.1-0.3,0.1-0.7V200.6z"/>
			<path class="st5" d="M244.7,203.4l1.6,0.2c0,0.2,0.1,0.3,0.2,0.4c0.1,0.1,0.3,0.1,0.6,0.1c0.4,0,0.6-0.1,0.8-0.2
				c0.1-0.1,0.2-0.2,0.3-0.3c0-0.1,0.1-0.3,0.1-0.6v-0.8c-0.4,0.6-0.9,0.8-1.6,0.8c-0.7,0-1.2-0.3-1.7-0.9c-0.3-0.5-0.5-1-0.5-1.7
				c0-0.9,0.2-1.5,0.6-2c0.4-0.5,0.9-0.7,1.6-0.7c0.6,0,1.2,0.3,1.6,0.8v-0.7h1.3v4.7c0,0.6-0.1,1.1-0.2,1.4
				c-0.1,0.3-0.2,0.5-0.4,0.7c-0.2,0.2-0.4,0.3-0.7,0.4c-0.3,0.1-0.7,0.1-1.2,0.1c-0.9,0-1.5-0.2-1.9-0.5c-0.4-0.3-0.6-0.7-0.6-1.1
				C244.7,203.6,244.7,203.5,244.7,203.4z M245.9,200.4c0,0.5,0.1,1,0.3,1.2c0.2,0.3,0.5,0.4,0.8,0.4c0.3,0,0.6-0.1,0.8-0.4
				c0.2-0.3,0.3-0.6,0.3-1.2c0-0.5-0.1-0.9-0.3-1.2c-0.2-0.3-0.5-0.4-0.8-0.4c-0.3,0-0.6,0.1-0.8,0.4
				C246,199.5,245.9,199.9,245.9,200.4z"/>
			<path class="st5" d="M252,199.5l-1.2-0.2c0.1-0.5,0.4-0.9,0.7-1.1s0.8-0.4,1.5-0.4c0.6,0,1.1,0.1,1.4,0.2
				c0.3,0.1,0.5,0.3,0.6,0.6c0.1,0.2,0.2,0.6,0.2,1.2l0,1.6c0,0.5,0,0.8,0.1,1c0,0.2,0.1,0.4,0.2,0.7h-1.4c0-0.1-0.1-0.2-0.1-0.4
				c0-0.1,0-0.1,0-0.2c-0.2,0.2-0.5,0.4-0.8,0.5c-0.3,0.1-0.6,0.2-0.9,0.2c-0.5,0-1-0.1-1.3-0.4s-0.5-0.7-0.5-1.1
				c0-0.3,0.1-0.6,0.2-0.8c0.1-0.2,0.3-0.4,0.6-0.5c0.3-0.1,0.6-0.2,1.1-0.3c0.6-0.1,1.1-0.2,1.3-0.3v-0.1c0-0.3-0.1-0.5-0.2-0.6
				c-0.1-0.1-0.4-0.2-0.7-0.2c-0.2,0-0.4,0-0.6,0.1C252.2,199.1,252,199.3,252,199.5z M253.8,200.6c-0.2,0.1-0.5,0.1-0.8,0.2
				s-0.6,0.2-0.7,0.2c-0.2,0.1-0.3,0.3-0.3,0.5c0,0.2,0.1,0.4,0.2,0.5c0.1,0.1,0.3,0.2,0.5,0.2c0.2,0,0.5-0.1,0.7-0.2
				c0.2-0.1,0.3-0.3,0.3-0.5c0-0.1,0.1-0.3,0.1-0.7V200.6z"/>
			<path class="st5" d="M261.2,203.1h-1.4v-2.6c0-0.6,0-0.9-0.1-1.1c-0.1-0.2-0.2-0.3-0.3-0.4s-0.3-0.1-0.5-0.1
				c-0.2,0-0.5,0.1-0.6,0.2c-0.2,0.1-0.3,0.3-0.4,0.5c-0.1,0.2-0.1,0.6-0.1,1.2v2.3h-1.4v-5.2h1.3v0.8c0.5-0.6,1-0.9,1.7-0.9
				c0.3,0,0.6,0.1,0.8,0.2c0.2,0.1,0.4,0.2,0.6,0.4c0.1,0.2,0.2,0.4,0.3,0.6c0.1,0.2,0.1,0.5,0.1,0.9V203.1z"/>
		</g>
		<g class="st19">
			<path class="st5" d="M235.6,213.2l1.3-0.2c0,0.3,0.2,0.6,0.3,0.8s0.4,0.3,0.7,0.3c0.3,0,0.5-0.1,0.7-0.3c0.2-0.2,0.3-0.5,0.3-0.9
				c0-0.3-0.1-0.6-0.3-0.8s-0.4-0.3-0.7-0.3c-0.2,0-0.4,0-0.6,0.1l0.2-1.1c0.4,0,0.7-0.1,0.8-0.2c0.2-0.2,0.3-0.4,0.3-0.7
				c0-0.2-0.1-0.4-0.2-0.6c-0.1-0.1-0.3-0.2-0.6-0.2c-0.2,0-0.4,0.1-0.6,0.2s-0.3,0.4-0.3,0.7l-1.3-0.2c0.1-0.4,0.2-0.8,0.4-1
				c0.2-0.3,0.4-0.5,0.7-0.6c0.3-0.1,0.7-0.2,1.1-0.2c0.7,0,1.2,0.2,1.6,0.6c0.3,0.4,0.5,0.7,0.5,1.2c0,0.6-0.3,1.1-1,1.5
				c0.4,0.1,0.7,0.3,1,0.6c0.2,0.3,0.4,0.7,0.4,1.1c0,0.6-0.2,1.2-0.7,1.6s-1,0.7-1.7,0.7c-0.6,0-1.2-0.2-1.6-0.6
				C236,214.3,235.7,213.8,235.6,213.2z"/>
			<path class="st5" d="M241.2,213.2l1.3-0.2c0,0.3,0.2,0.6,0.3,0.8s0.4,0.3,0.7,0.3c0.3,0,0.5-0.1,0.7-0.3c0.2-0.2,0.3-0.5,0.3-0.9
				c0-0.3-0.1-0.6-0.3-0.8s-0.4-0.3-0.7-0.3c-0.2,0-0.4,0-0.6,0.1l0.2-1.1c0.4,0,0.7-0.1,0.8-0.2c0.2-0.2,0.3-0.4,0.3-0.7
				c0-0.2-0.1-0.4-0.2-0.6c-0.1-0.1-0.3-0.2-0.6-0.2c-0.2,0-0.4,0.1-0.6,0.2s-0.3,0.4-0.3,0.7l-1.3-0.2c0.1-0.4,0.2-0.8,0.4-1
				c0.2-0.3,0.4-0.5,0.7-0.6c0.3-0.1,0.7-0.2,1.1-0.2c0.7,0,1.2,0.2,1.6,0.6c0.3,0.4,0.5,0.7,0.5,1.2c0,0.6-0.3,1.1-1,1.5
				c0.4,0.1,0.7,0.3,1,0.6c0.2,0.3,0.4,0.7,0.4,1.1c0,0.6-0.2,1.2-0.7,1.6s-1,0.7-1.7,0.7c-0.6,0-1.2-0.2-1.6-0.6
				C241.5,214.3,241.3,213.8,241.2,213.2z"/>
		</g>
	</g>
	<g class="st19">
		<path class="st5" d="M214.5,132.1l-2.6-7.2h1.6l1.8,5.3l1.8-5.3h1.5l-2.6,7.2H214.5z"/>
	</g>
	<g>
		<g class="st19">
			<path class="st5" d="M219.1,129.5c0-0.5,0.1-0.9,0.3-1.3s0.5-0.8,1-1s0.9-0.3,1.4-0.3c0.8,0,1.4,0.3,1.9,0.8
				c0.5,0.5,0.8,1.2,0.8,1.9c0,0.8-0.3,1.4-0.8,2c-0.5,0.5-1.1,0.8-1.9,0.8c-0.5,0-0.9-0.1-1.4-0.3s-0.8-0.5-1-0.9
				C219.2,130.6,219.1,130.1,219.1,129.5z M220.5,129.5c0,0.5,0.1,0.9,0.4,1.2s0.5,0.4,0.9,0.4s0.7-0.1,0.9-0.4s0.4-0.7,0.4-1.2
				c0-0.5-0.1-0.9-0.4-1.2s-0.5-0.4-0.9-0.4s-0.7,0.1-0.9,0.4S220.5,129,220.5,129.5z"/>
			<path class="st5" d="M225.5,132.1V125h1.4v7.2H225.5z"/>
			<path class="st5" d="M231.7,132.1v-0.8c-0.2,0.3-0.4,0.5-0.7,0.7s-0.6,0.2-1,0.2c-0.3,0-0.7-0.1-0.9-0.2
				c-0.3-0.2-0.5-0.4-0.6-0.6c-0.1-0.3-0.2-0.7-0.2-1.1V127h1.4v2.4c0,0.7,0,1.2,0.1,1.3c0.1,0.2,0.1,0.3,0.3,0.4
				c0.1,0.1,0.3,0.1,0.5,0.1c0.2,0,0.4-0.1,0.6-0.2c0.2-0.1,0.3-0.3,0.4-0.5c0.1-0.2,0.1-0.7,0.1-1.4V127h1.4v5.2H231.7z"/>
			<path class="st5" d="M234.4,132.1V125h1.4v2.6c0.4-0.5,0.9-0.7,1.5-0.7c0.6,0,1.2,0.2,1.6,0.7c0.4,0.5,0.6,1.1,0.6,2
				c0,0.9-0.2,1.6-0.6,2c-0.4,0.5-0.9,0.7-1.5,0.7c-0.3,0-0.6-0.1-0.9-0.2c-0.3-0.1-0.5-0.4-0.7-0.7v0.8H234.4z M235.7,129.4
				c0,0.5,0.1,0.9,0.3,1.2c0.2,0.4,0.6,0.5,0.9,0.5c0.3,0,0.6-0.1,0.8-0.4c0.2-0.3,0.3-0.7,0.3-1.2c0-0.6-0.1-1-0.3-1.3
				c-0.2-0.3-0.5-0.4-0.8-0.4c-0.3,0-0.6,0.1-0.8,0.4C235.8,128.5,235.7,128.9,235.7,129.4z"/>
			<path class="st5" d="M240.5,126.3V125h1.4v1.3H240.5z M240.5,132.1V127h1.4v5.2H240.5z"/>
			<path class="st5" d="M243.3,132.1V125h1.4v7.2H243.3z"/>
			<path class="st5" d="M246.1,126.3V125h1.4v1.3H246.1z M246.1,132.1V127h1.4v5.2H246.1z"/>
			<path class="st5" d="M248.4,130.7l1.4-0.2c0.1,0.3,0.2,0.5,0.4,0.6c0.2,0.1,0.4,0.2,0.8,0.2c0.4,0,0.6-0.1,0.8-0.2
				c0.1-0.1,0.2-0.2,0.2-0.4c0-0.1,0-0.2-0.1-0.3c-0.1-0.1-0.2-0.1-0.5-0.2c-1.1-0.2-1.8-0.5-2.1-0.7c-0.4-0.3-0.6-0.7-0.6-1.2
				c0-0.4,0.2-0.8,0.5-1.1c0.4-0.3,0.9-0.5,1.7-0.5c0.7,0,1.2,0.1,1.6,0.3c0.3,0.2,0.6,0.6,0.7,1l-1.3,0.2c-0.1-0.2-0.2-0.4-0.3-0.5
				c-0.2-0.1-0.4-0.2-0.7-0.2c-0.4,0-0.6,0.1-0.8,0.2c-0.1,0.1-0.2,0.2-0.2,0.3c0,0.1,0,0.2,0.1,0.2c0.1,0.1,0.6,0.2,1.3,0.4
				c0.7,0.2,1.2,0.4,1.5,0.6c0.3,0.2,0.4,0.6,0.4,1c0,0.5-0.2,0.9-0.6,1.2c-0.4,0.3-1,0.5-1.8,0.5c-0.7,0-1.3-0.1-1.7-0.4
				C248.8,131.5,248.5,131.2,248.4,130.7z"/>
		</g>
		<g class="st19">
			<path class="st5" d="M231,142.2l1.3-0.2c0,0.3,0.2,0.6,0.3,0.8s0.4,0.3,0.7,0.3c0.3,0,0.5-0.1,0.7-0.3c0.2-0.2,0.3-0.5,0.3-0.9
				c0-0.3-0.1-0.6-0.3-0.8s-0.4-0.3-0.7-0.3c-0.2,0-0.4,0-0.6,0.1l0.2-1.1c0.4,0,0.7-0.1,0.8-0.2c0.2-0.2,0.3-0.4,0.3-0.7
				c0-0.2-0.1-0.4-0.2-0.6c-0.1-0.1-0.3-0.2-0.6-0.2c-0.2,0-0.4,0.1-0.6,0.2s-0.3,0.4-0.3,0.7l-1.3-0.2c0.1-0.4,0.2-0.8,0.4-1
				c0.2-0.3,0.4-0.5,0.7-0.6c0.3-0.1,0.7-0.2,1.1-0.2c0.7,0,1.2,0.2,1.6,0.6c0.3,0.4,0.5,0.7,0.5,1.2c0,0.6-0.3,1.1-1,1.5
				c0.4,0.1,0.7,0.3,1,0.6c0.2,0.3,0.4,0.7,0.4,1.1c0,0.6-0.2,1.2-0.7,1.6s-1,0.7-1.7,0.7c-0.6,0-1.2-0.2-1.6-0.6
				C231.3,143.3,231,142.8,231,142.2z"/>
			<path class="st5" d="M241.2,142.9v1.3h-4.8c0.1-0.5,0.2-0.9,0.5-1.4c0.3-0.4,0.8-1,1.5-1.7c0.6-0.6,1-1,1.1-1.2
				c0.2-0.3,0.3-0.6,0.3-0.8c0-0.3-0.1-0.5-0.2-0.7c-0.2-0.2-0.4-0.2-0.7-0.2c-0.3,0-0.5,0.1-0.7,0.3c-0.2,0.2-0.3,0.5-0.3,0.9
				l-1.4-0.1c0.1-0.8,0.3-1.3,0.8-1.6s1-0.5,1.6-0.5c0.7,0,1.3,0.2,1.7,0.6c0.4,0.4,0.6,0.9,0.6,1.4c0,0.3-0.1,0.6-0.2,0.9
				c-0.1,0.3-0.3,0.6-0.5,0.9c-0.2,0.2-0.5,0.5-0.9,0.9c-0.4,0.4-0.7,0.7-0.8,0.8c-0.1,0.1-0.2,0.3-0.3,0.4H241.2z"/>
		</g>
	</g>
	<g class="st19">
		<path class="st5" d="M56.4,105.1v-5.9h-2.1v-1.2h5.7v1.2h-2.1v5.9H56.4z"/>
	</g>
	<g>
		<g class="st19">
			<path class="st5" d="M61,101.5l-1.2-0.2c0.1-0.5,0.4-0.9,0.7-1.1s0.8-0.4,1.5-0.4c0.6,0,1.1,0.1,1.4,0.2c0.3,0.1,0.5,0.3,0.6,0.6
				c0.1,0.2,0.2,0.6,0.2,1.2l0,1.6c0,0.5,0,0.8,0.1,1c0,0.2,0.1,0.4,0.2,0.7h-1.4c0-0.1-0.1-0.2-0.1-0.4c0-0.1,0-0.1,0-0.2
				c-0.2,0.2-0.5,0.4-0.8,0.5s-0.6,0.2-0.9,0.2c-0.5,0-1-0.1-1.3-0.4s-0.5-0.7-0.5-1.1c0-0.3,0.1-0.6,0.2-0.8
				c0.1-0.2,0.3-0.4,0.6-0.5c0.3-0.1,0.6-0.2,1.1-0.3c0.6-0.1,1.1-0.2,1.3-0.3v-0.1c0-0.3-0.1-0.5-0.2-0.6c-0.1-0.1-0.4-0.2-0.7-0.2
				c-0.2,0-0.4,0-0.6,0.1C61.2,101.1,61.1,101.2,61,101.5z M62.9,102.6c-0.2,0.1-0.5,0.1-0.8,0.2s-0.6,0.2-0.7,0.2
				c-0.2,0.1-0.3,0.3-0.3,0.5c0,0.2,0.1,0.4,0.2,0.5s0.3,0.2,0.5,0.2c0.2,0,0.5-0.1,0.7-0.2c0.2-0.1,0.3-0.3,0.3-0.5
				c0-0.1,0.1-0.3,0.1-0.7V102.6z"/>
			<path class="st5" d="M65.5,99.9h1.3v0.7c0.5-0.5,1-0.8,1.6-0.8c0.3,0,0.6,0.1,0.9,0.2s0.4,0.3,0.6,0.6c0.2-0.3,0.5-0.5,0.7-0.6
				s0.5-0.2,0.8-0.2c0.4,0,0.7,0.1,1,0.2c0.3,0.2,0.5,0.4,0.6,0.7c0.1,0.2,0.1,0.6,0.1,1.1v3.3h-1.4v-3c0-0.5,0-0.8-0.1-1
				c-0.1-0.2-0.3-0.3-0.6-0.3c-0.2,0-0.4,0.1-0.5,0.2s-0.3,0.3-0.4,0.5c-0.1,0.2-0.1,0.6-0.1,1.1v2.5h-1.4v-2.8c0-0.5,0-0.8-0.1-1
				s-0.1-0.3-0.2-0.3s-0.2-0.1-0.4-0.1c-0.2,0-0.4,0.1-0.6,0.2s-0.3,0.3-0.4,0.5s-0.1,0.6-0.1,1.1v2.5h-1.4V99.9z"/>
			<path class="st5" d="M77.9,105.1v-0.8c-0.2,0.3-0.4,0.5-0.7,0.7s-0.6,0.2-1,0.2c-0.3,0-0.7-0.1-0.9-0.2s-0.5-0.4-0.6-0.6
				s-0.2-0.7-0.2-1.1v-3.3h1.4v2.4c0,0.7,0,1.2,0.1,1.3c0.1,0.2,0.1,0.3,0.3,0.4c0.1,0.1,0.3,0.1,0.5,0.1c0.2,0,0.4-0.1,0.6-0.2
				c0.2-0.1,0.3-0.3,0.4-0.5c0.1-0.2,0.1-0.7,0.1-1.4v-2.2h1.4v5.2H77.9z"/>
			<path class="st5" d="M85.3,105.1h-1.3v-0.8c-0.2,0.3-0.5,0.5-0.7,0.7c-0.3,0.1-0.6,0.2-0.9,0.2c-0.6,0-1.1-0.2-1.5-0.7
				c-0.4-0.5-0.6-1.1-0.6-2c0-0.9,0.2-1.5,0.6-2c0.4-0.5,0.9-0.7,1.6-0.7c0.6,0,1.1,0.2,1.5,0.7v-2.6h1.4V105.1z M81.7,102.4
				c0,0.6,0.1,1,0.2,1.2c0.2,0.4,0.5,0.5,0.9,0.5c0.3,0,0.6-0.1,0.8-0.4c0.2-0.3,0.3-0.7,0.3-1.2c0-0.6-0.1-1-0.3-1.3
				c-0.2-0.3-0.5-0.4-0.8-0.4c-0.3,0-0.6,0.1-0.8,0.4C81.8,101.5,81.7,101.9,81.7,102.4z"/>
			<path class="st5" d="M87.7,101.5l-1.2-0.2c0.1-0.5,0.4-0.9,0.7-1.1s0.8-0.4,1.5-0.4c0.6,0,1.1,0.1,1.4,0.2
				c0.3,0.1,0.5,0.3,0.6,0.6c0.1,0.2,0.2,0.6,0.2,1.2l0,1.6c0,0.5,0,0.8,0.1,1c0,0.2,0.1,0.4,0.2,0.7h-1.4c0-0.1-0.1-0.2-0.1-0.4
				c0-0.1,0-0.1,0-0.2c-0.2,0.2-0.5,0.4-0.8,0.5s-0.6,0.2-0.9,0.2c-0.5,0-1-0.1-1.3-0.4s-0.5-0.7-0.5-1.1c0-0.3,0.1-0.6,0.2-0.8
				c0.1-0.2,0.3-0.4,0.6-0.5c0.3-0.1,0.6-0.2,1.1-0.3c0.6-0.1,1.1-0.2,1.3-0.3v-0.1c0-0.3-0.1-0.5-0.2-0.6c-0.1-0.1-0.4-0.2-0.7-0.2
				c-0.2,0-0.4,0-0.6,0.1C87.9,101.1,87.8,101.2,87.7,101.5z M89.5,102.6c-0.2,0.1-0.5,0.1-0.8,0.2S88.1,103,88,103
				c-0.2,0.1-0.3,0.3-0.3,0.5c0,0.2,0.1,0.4,0.2,0.5s0.3,0.2,0.5,0.2c0.2,0,0.5-0.1,0.7-0.2c0.2-0.1,0.3-0.3,0.3-0.5
				c0-0.1,0.1-0.3,0.1-0.7V102.6z"/>
		</g>
		<g class="st19">
			<path class="st5" d="M70.3,115.2l1.3-0.2c0,0.3,0.2,0.6,0.3,0.8s0.4,0.3,0.7,0.3c0.3,0,0.5-0.1,0.7-0.3s0.3-0.5,0.3-0.9
				c0-0.3-0.1-0.6-0.3-0.8s-0.4-0.3-0.7-0.3c-0.2,0-0.4,0-0.6,0.1l0.2-1.1c0.4,0,0.7-0.1,0.8-0.2c0.2-0.2,0.3-0.4,0.3-0.7
				c0-0.2-0.1-0.4-0.2-0.6s-0.3-0.2-0.6-0.2c-0.2,0-0.4,0.1-0.6,0.2s-0.3,0.4-0.3,0.7l-1.3-0.2c0.1-0.4,0.2-0.8,0.4-1
				c0.2-0.3,0.4-0.5,0.7-0.6c0.3-0.1,0.7-0.2,1.1-0.2c0.7,0,1.2,0.2,1.6,0.6c0.3,0.4,0.5,0.7,0.5,1.2c0,0.6-0.3,1.1-1,1.5
				c0.4,0.1,0.7,0.3,1,0.6s0.4,0.7,0.4,1.1c0,0.6-0.2,1.2-0.7,1.6s-1,0.7-1.7,0.7c-0.6,0-1.2-0.2-1.6-0.6
				C70.6,116.3,70.3,115.8,70.3,115.2z"/>
			<path class="st5" d="M79.4,117.1H78v-5.2c-0.5,0.5-1.1,0.8-1.8,1v-1.2c0.4-0.1,0.7-0.3,1.2-0.7c0.4-0.3,0.7-0.7,0.9-1.1h1.1
				V117.1z"/>
		</g>
	</g>
</g>
<g class="st19">
	<path class="st20" d="M57.8,184.1v-5.6h3.8v0.7h-3v1.7h2.6v0.7h-2.6v2.5H57.8z"/>
	<path class="st20" d="M62.3,182.3l0.7-0.1c0,0.3,0.1,0.5,0.2,0.7c0.1,0.2,0.3,0.3,0.6,0.4s0.5,0.2,0.9,0.2c0.3,0,0.5,0,0.7-0.1
		c0.2-0.1,0.4-0.2,0.5-0.3s0.2-0.3,0.2-0.5c0-0.2-0.1-0.3-0.2-0.5c-0.1-0.1-0.3-0.2-0.5-0.3c-0.1-0.1-0.5-0.1-1-0.3
		c-0.5-0.1-0.9-0.2-1.1-0.3c-0.3-0.1-0.5-0.3-0.6-0.5s-0.2-0.4-0.2-0.7c0-0.3,0.1-0.5,0.2-0.8c0.2-0.2,0.4-0.4,0.7-0.6
		c0.3-0.1,0.6-0.2,1-0.2c0.4,0,0.8,0.1,1.1,0.2s0.6,0.3,0.7,0.6c0.2,0.3,0.3,0.5,0.3,0.9l-0.7,0.1c0-0.4-0.2-0.6-0.4-0.8
		s-0.5-0.3-1-0.3c-0.4,0-0.8,0.1-1,0.2s-0.3,0.4-0.3,0.6c0,0.2,0.1,0.4,0.2,0.5c0.1,0.1,0.5,0.3,1.1,0.4c0.6,0.1,1,0.3,1.2,0.4
		c0.3,0.1,0.6,0.3,0.7,0.6c0.2,0.2,0.2,0.5,0.2,0.8c0,0.3-0.1,0.6-0.3,0.8s-0.4,0.5-0.7,0.6s-0.7,0.2-1.1,0.2
		c-0.5,0-0.9-0.1-1.3-0.2c-0.3-0.1-0.6-0.4-0.8-0.7C62.4,183,62.3,182.7,62.3,182.3z"/>
</g>
<g class="st19">
	<path class="st20" d="M67.7,184.1v-5.6h2.1c0.4,0,0.7,0,0.8,0.1c0.3,0,0.5,0.1,0.7,0.3c0.2,0.1,0.3,0.3,0.4,0.5
		c0.1,0.2,0.2,0.5,0.2,0.8c0,0.5-0.2,0.9-0.5,1.2c-0.3,0.3-0.8,0.5-1.6,0.5h-1.4v2.3H67.7z M68.5,181.2h1.4c0.5,0,0.8-0.1,1-0.3
		c0.2-0.2,0.3-0.4,0.3-0.7c0-0.2-0.1-0.4-0.2-0.6c-0.1-0.2-0.3-0.3-0.5-0.3c-0.1,0-0.4,0-0.7,0h-1.4V181.2z"/>
</g>
<g class="st19">
	<path class="st20" d="M74.6,182.1c0-0.7,0.2-1.3,0.6-1.7c0.3-0.3,0.8-0.4,1.3-0.4c0.6,0,1,0.2,1.4,0.5c0.4,0.4,0.5,0.9,0.5,1.5
		c0,0.5-0.1,0.9-0.2,1.2c-0.2,0.3-0.4,0.5-0.7,0.7c-0.3,0.2-0.6,0.2-1,0.2c-0.6,0-1-0.2-1.4-0.5C74.8,183.3,74.6,182.8,74.6,182.1z
		 M75.3,182.1c0,0.5,0.1,0.9,0.3,1.2s0.5,0.4,0.9,0.4c0.3,0,0.6-0.1,0.8-0.4c0.2-0.3,0.3-0.7,0.3-1.2c0-0.5-0.1-0.9-0.3-1.1
		c-0.2-0.3-0.5-0.4-0.8-0.4c-0.3,0-0.6,0.1-0.9,0.4C75.4,181.2,75.3,181.6,75.3,182.1z"/>
</g>
<g class="st19">
	<path class="st20" d="M79.3,184.1v-3.5h-0.6v-0.5h0.6v-0.4c0-0.3,0-0.5,0.1-0.6c0.1-0.2,0.2-0.3,0.3-0.4c0.2-0.1,0.4-0.2,0.7-0.2
		c0.2,0,0.4,0,0.6,0.1l-0.1,0.6c-0.1,0-0.3,0-0.4,0c-0.2,0-0.4,0-0.4,0.1c-0.1,0.1-0.1,0.3-0.1,0.5v0.4h0.8v0.5H80v3.5H79.3z"/>
</g>
<g class="st19">
	<path class="st20" d="M81.4,184.1v-3.5h-0.6v-0.5h0.6v-0.4c0-0.3,0-0.5,0.1-0.6c0.1-0.2,0.2-0.3,0.3-0.4c0.2-0.1,0.4-0.2,0.7-0.2
		c0.2,0,0.4,0,0.6,0.1l-0.1,0.6c-0.1,0-0.3,0-0.4,0c-0.2,0-0.4,0-0.4,0.1c-0.1,0.1-0.1,0.3-0.1,0.5v0.4h0.8v0.5H82v3.5H81.4z"/>
	<path class="st20" d="M83.4,179.3v-0.8H84v0.8H83.4z M83.4,184.1v-4H84v4H83.4z"/>
	<path class="st20" d="M87.7,182.6l0.7,0.1c-0.1,0.5-0.3,0.8-0.6,1.1s-0.7,0.4-1.1,0.4c-0.6,0-1-0.2-1.3-0.5s-0.5-0.9-0.5-1.5
		c0-0.4,0.1-0.8,0.2-1.1c0.1-0.3,0.4-0.6,0.7-0.7c0.3-0.2,0.6-0.2,1-0.2c0.4,0,0.8,0.1,1.1,0.3c0.3,0.2,0.5,0.5,0.5,0.9l-0.7,0.1
		c-0.1-0.3-0.2-0.5-0.3-0.6s-0.4-0.2-0.6-0.2c-0.3,0-0.6,0.1-0.8,0.4c-0.2,0.2-0.3,0.6-0.3,1.2c0,0.5,0.1,0.9,0.3,1.2
		c0.2,0.2,0.5,0.4,0.8,0.4c0.3,0,0.5-0.1,0.7-0.2C87.5,183.2,87.7,183,87.7,182.6z"/>
	<path class="st20" d="M91.7,182.8l0.7,0.1c-0.1,0.4-0.3,0.7-0.6,1c-0.3,0.2-0.7,0.3-1.2,0.3c-0.6,0-1.1-0.2-1.4-0.5
		c-0.3-0.4-0.5-0.9-0.5-1.5c0-0.7,0.2-1.2,0.5-1.6s0.8-0.6,1.4-0.6c0.5,0,1,0.2,1.3,0.5c0.3,0.4,0.5,0.9,0.5,1.5c0,0,0,0.1,0,0.2h-3
		c0,0.4,0.2,0.8,0.4,1s0.5,0.4,0.8,0.4c0.3,0,0.5-0.1,0.6-0.2C91.5,183.3,91.6,183.1,91.7,182.8z M89.5,181.7h2.2
		c0-0.3-0.1-0.6-0.3-0.8c-0.2-0.3-0.5-0.4-0.8-0.4c-0.3,0-0.6,0.1-0.8,0.3S89.5,181.3,89.5,181.7z"/>
</g>
<g class="st19">
	<path class="st20" d="M60.3,210.8v-5.6h3.8v0.7h-3v1.7h2.6v0.7h-2.6v2.5H60.3z"/>
	<path class="st20" d="M64.8,209l0.7-0.1c0,0.3,0.1,0.5,0.2,0.7c0.1,0.2,0.3,0.3,0.6,0.4s0.5,0.2,0.9,0.2c0.3,0,0.5,0,0.7-0.1
		c0.2-0.1,0.4-0.2,0.5-0.3s0.2-0.3,0.2-0.5c0-0.2-0.1-0.3-0.2-0.5c-0.1-0.1-0.3-0.2-0.5-0.3c-0.1-0.1-0.5-0.1-1-0.3
		c-0.5-0.1-0.9-0.2-1.1-0.3c-0.3-0.1-0.5-0.3-0.6-0.5s-0.2-0.4-0.2-0.7c0-0.3,0.1-0.5,0.2-0.8c0.2-0.2,0.4-0.4,0.7-0.6
		c0.3-0.1,0.6-0.2,1-0.2c0.4,0,0.8,0.1,1.1,0.2s0.6,0.3,0.7,0.6c0.2,0.3,0.3,0.5,0.3,0.9l-0.7,0.1c0-0.4-0.2-0.6-0.4-0.8
		s-0.5-0.3-1-0.3c-0.4,0-0.8,0.1-1,0.2s-0.3,0.4-0.3,0.6c0,0.2,0.1,0.4,0.2,0.5c0.1,0.1,0.5,0.3,1.1,0.4c0.6,0.1,1,0.3,1.2,0.4
		c0.3,0.1,0.6,0.3,0.7,0.6c0.2,0.2,0.2,0.5,0.2,0.8c0,0.3-0.1,0.6-0.3,0.8s-0.4,0.5-0.7,0.6s-0.7,0.2-1.1,0.2
		c-0.5,0-0.9-0.1-1.3-0.2c-0.3-0.1-0.6-0.4-0.8-0.7C64.9,209.7,64.8,209.4,64.8,209z"/>
</g>
<g class="st19">
	<path class="st20" d="M70.2,210.8v-5.6h2.1c0.4,0,0.7,0,0.8,0.1c0.3,0,0.5,0.1,0.7,0.3c0.2,0.1,0.3,0.3,0.4,0.5
		c0.1,0.2,0.2,0.5,0.2,0.8c0,0.5-0.2,0.9-0.5,1.2c-0.3,0.3-0.8,0.5-1.6,0.5H71v2.3H70.2z M71,207.9h1.4c0.5,0,0.8-0.1,1-0.3
		c0.2-0.2,0.3-0.4,0.3-0.7c0-0.2-0.1-0.4-0.2-0.6c-0.1-0.2-0.3-0.3-0.5-0.3c-0.1,0-0.4,0-0.7,0H71V207.9z"/>
</g>
<g class="st19">
	<path class="st20" d="M77.1,208.8c0-0.7,0.2-1.3,0.6-1.7c0.3-0.3,0.8-0.4,1.3-0.4c0.6,0,1,0.2,1.4,0.5c0.4,0.4,0.5,0.9,0.5,1.5
		c0,0.5-0.1,0.9-0.2,1.2c-0.2,0.3-0.4,0.5-0.7,0.7c-0.3,0.2-0.6,0.2-1,0.2c-0.6,0-1-0.2-1.4-0.5C77.3,210,77.1,209.5,77.1,208.8z
		 M77.8,208.8c0,0.5,0.1,0.9,0.3,1.2s0.5,0.4,0.9,0.4c0.3,0,0.6-0.1,0.8-0.4c0.2-0.3,0.3-0.7,0.3-1.2c0-0.5-0.1-0.9-0.3-1.1
		c-0.2-0.3-0.5-0.4-0.8-0.4c-0.3,0-0.6,0.1-0.9,0.4C77.9,207.9,77.8,208.3,77.8,208.8z"/>
</g>
<g class="st19">
	<path class="st20" d="M81.8,210.8v-3.5h-0.6v-0.5h0.6v-0.4c0-0.3,0-0.5,0.1-0.6c0.1-0.2,0.2-0.3,0.3-0.4c0.2-0.1,0.4-0.2,0.7-0.2
		c0.2,0,0.4,0,0.6,0.1l-0.1,0.6c-0.1,0-0.3,0-0.4,0c-0.2,0-0.4,0-0.4,0.1c-0.1,0.1-0.1,0.3-0.1,0.5v0.4h0.8v0.5h-0.8v3.5H81.8z"/>
</g>
<g class="st19">
	<path class="st20" d="M83.9,210.8v-3.5h-0.6v-0.5h0.6v-0.4c0-0.3,0-0.5,0.1-0.6c0.1-0.2,0.2-0.3,0.3-0.4c0.2-0.1,0.4-0.2,0.7-0.2
		c0.2,0,0.4,0,0.6,0.1l-0.1,0.6c-0.1,0-0.3,0-0.4,0c-0.2,0-0.4,0-0.4,0.1c-0.1,0.1-0.1,0.3-0.1,0.5v0.4h0.8v0.5h-0.8v3.5H83.9z"/>
	<path class="st20" d="M85.9,206v-0.8h0.7v0.8H85.9z M85.9,210.8v-4h0.7v4H85.9z"/>
	<path class="st20" d="M90.2,209.3l0.7,0.1c-0.1,0.5-0.3,0.8-0.6,1.1s-0.7,0.4-1.1,0.4c-0.6,0-1-0.2-1.3-0.5s-0.5-0.9-0.5-1.5
		c0-0.4,0.1-0.8,0.2-1.1c0.1-0.3,0.4-0.6,0.7-0.7c0.3-0.2,0.6-0.2,1-0.2c0.4,0,0.8,0.1,1.1,0.3c0.3,0.2,0.5,0.5,0.5,0.9l-0.7,0.1
		c-0.1-0.3-0.2-0.5-0.3-0.6s-0.4-0.2-0.6-0.2c-0.3,0-0.6,0.1-0.8,0.4c-0.2,0.2-0.3,0.6-0.3,1.2c0,0.5,0.1,0.9,0.3,1.2
		c0.2,0.2,0.5,0.4,0.8,0.4c0.3,0,0.5-0.1,0.7-0.2C90,209.9,90.2,209.7,90.2,209.3z"/>
	<path class="st20" d="M94.2,209.5l0.7,0.1c-0.1,0.4-0.3,0.7-0.6,1c-0.3,0.2-0.7,0.3-1.2,0.3c-0.6,0-1.1-0.2-1.4-0.5
		c-0.3-0.4-0.5-0.9-0.5-1.5c0-0.7,0.2-1.2,0.5-1.6s0.8-0.6,1.4-0.6c0.5,0,1,0.2,1.3,0.5c0.3,0.4,0.5,0.9,0.5,1.5c0,0,0,0.1,0,0.2h-3
		c0,0.4,0.2,0.8,0.4,1s0.5,0.4,0.8,0.4c0.3,0,0.5-0.1,0.6-0.2C94,210,94.1,209.8,94.2,209.5z M92,208.4h2.2c0-0.3-0.1-0.6-0.3-0.8
		c-0.2-0.3-0.5-0.4-0.8-0.4c-0.3,0-0.6,0.1-0.8,0.3S92,208,92,208.4z"/>
</g>
<g class="st19">
	<path class="st20" d="M61,274.2v-5.6h0.7v5.6H61z"/>
</g>
<g class="st19">
	<path class="st20" d="M64.5,274.2v-4.9h-1.8v-0.7h4.4v0.7h-1.8v4.9H64.5z"/>
</g>
<g class="st19">
	<path class="st20" d="M69.8,274.2v-5.6h0.7v4.9h2.7v0.7H69.8z"/>
	<path class="st20" d="M76.7,273.7c-0.3,0.2-0.5,0.4-0.7,0.5c-0.2,0.1-0.5,0.1-0.8,0.1c-0.4,0-0.8-0.1-1-0.3
		c-0.2-0.2-0.4-0.5-0.4-0.8c0-0.2,0-0.4,0.1-0.5s0.2-0.3,0.4-0.4c0.1-0.1,0.3-0.2,0.5-0.2c0.1,0,0.3-0.1,0.6-0.1
		c0.6-0.1,1-0.1,1.2-0.2c0-0.1,0-0.2,0-0.2c0-0.3-0.1-0.5-0.2-0.6c-0.2-0.2-0.4-0.2-0.8-0.2c-0.3,0-0.6,0.1-0.7,0.2
		c-0.2,0.1-0.3,0.3-0.3,0.6l-0.7-0.1c0.1-0.3,0.2-0.5,0.3-0.7c0.1-0.2,0.3-0.3,0.6-0.4c0.3-0.1,0.6-0.1,0.9-0.1c0.3,0,0.6,0,0.8,0.1
		s0.4,0.2,0.5,0.3s0.2,0.3,0.2,0.5c0,0.1,0,0.3,0,0.6v0.9c0,0.6,0,1,0,1.2c0,0.2,0.1,0.3,0.2,0.5h-0.7
		C76.8,274.1,76.7,273.9,76.7,273.7z M76.6,272.2c-0.2,0.1-0.6,0.2-1.1,0.3c-0.3,0-0.5,0.1-0.6,0.1c-0.1,0.1-0.2,0.1-0.3,0.2
		c-0.1,0.1-0.1,0.2-0.1,0.3c0,0.2,0.1,0.3,0.2,0.5c0.1,0.1,0.3,0.2,0.6,0.2c0.3,0,0.5-0.1,0.7-0.2s0.4-0.3,0.5-0.5
		c0.1-0.2,0.1-0.4,0.1-0.7V272.2z"/>
	<path class="st20" d="M79,274.2h-0.6v-5.6h0.7v2c0.3-0.4,0.7-0.5,1.1-0.5c0.2,0,0.5,0,0.7,0.1c0.2,0.1,0.4,0.2,0.5,0.4
		c0.1,0.2,0.3,0.4,0.3,0.7c0.1,0.3,0.1,0.5,0.1,0.8c0,0.7-0.2,1.2-0.5,1.6c-0.3,0.4-0.8,0.6-1.2,0.6c-0.5,0-0.8-0.2-1.1-0.6V274.2z
		 M79,272.2c0,0.5,0.1,0.8,0.2,1c0.2,0.4,0.5,0.5,0.9,0.5c0.3,0,0.6-0.1,0.8-0.4c0.2-0.3,0.3-0.6,0.3-1.2c0-0.5-0.1-0.9-0.3-1.2
		c-0.2-0.2-0.5-0.4-0.8-0.4c-0.3,0-0.6,0.1-0.8,0.4C79.1,271.3,79,271.7,79,272.2z"/>
</g>
</svg>
