<svg xmlns="http://www.w3.org/2000/svg" viewBox="0 0 1866.736 2274.946"><defs><style>.cls-1,.cls-17{fill:#4196b1;}.cls-2{fill:#a8e0e5;}.cls-3{fill:#99b8bf;opacity:0.7;}.cls-17,.cls-18,.cls-23,.cls-29,.cls-3,.cls-34,.cls-35,.cls-39,.cls-40,.cls-45,.cls-5,.cls-9{isolation:isolate;}.cls-4{fill:#8eccce;}.cls-29,.cls-5{fill:#030303;}.cls-5{opacity:0.05;}.cls-6{fill:#b8bfc1;}.cls-35,.cls-7{fill:#fff;}.cls-12,.cls-15,.cls-16,.cls-21,.cls-22,.cls-41,.cls-44,.cls-46,.cls-47,.cls-48,.cls-49,.cls-50,.cls-51,.cls-8{fill:none;}.cls-8{stroke:#dadcdc;stroke-width:1.123px;}.cls-12,.cls-15,.cls-16,.cls-21,.cls-22,.cls-33,.cls-41,.cls-44,.cls-46,.cls-47,.cls-48,.cls-49,.cls-50,.cls-51,.cls-8{stroke-miterlimit:10;}.cls-9{fill:#010101;opacity:0.15;}.cls-10{fill:#596068;}.cls-11{fill:#9baeb7;}.cls-12,.cls-21,.cls-22,.cls-41,.cls-44,.cls-46,.cls-47{stroke:#7a8e93;}.cls-12,.cls-21,.cls-22,.cls-25,.cls-26,.cls-27,.cls-28{stroke-linecap:round;}.cls-12{stroke-width:3.991px;}.cls-13{fill:#f4f4f4;}.cls-14{opacity:0.49;}.cls-15,.cls-16{stroke:#b8bfc1;}.cls-16{stroke-width:1.047px;}.cls-17{opacity:0.4;}.cls-18{fill:#83d8ef;opacity:0.5;}.cls-19{fill:#747676;}.cls-20{fill:#5d5f5f;}.cls-21{stroke-width:3.927px;}.cls-22{stroke-width:3.876px;}.cls-23{fill:#4ba9bf;opacity:0.23;}.cls-24{fill:#1e7e9b;}.cls-25,.cls-26{fill:#7dcfe2;stroke:#53c5f1;}.cls-25,.cls-26,.cls-27,.cls-28{stroke-linejoin:round;}.cls-25{stroke-width:0.444px;}.cls-26{stroke-width:0.265px;}.cls-27,.cls-28{fill:#4e9fb9;stroke:#4a90a0;}.cls-27{stroke-width:0.461px;}.cls-28{stroke-width:0.311px;}.cls-29{opacity:0.1;}.cls-30{fill:#7a8e93;}.cls-31{fill:#8ac1c1;}.cls-32,.cls-33{fill:#94d1d3;}.cls-33{stroke:#8ac1c1;}.cls-34{fill:#575757;opacity:0.74;}.cls-35{font-size:24px;font-family:Arial-BoldMT, Arial;font-weight:700;}.cls-36{letter-spacing:-0.018em;}.cls-37{letter-spacing:-0.055em;}.cls-38{fill:#ebf2f2;}.cls-39,.cls-40,.cls-42,.cls-43{font-size:15.799px;}.cls-39,.cls-40,.cls-42,.cls-43,.cls-45{fill:#646b6d;font-family:ArialMT, Arial;}.cls-40{letter-spacing:-0.164em;}.cls-41{stroke-width:1.308px;}.cls-43{letter-spacing:-0.018em;}.cls-44{stroke-width:1.305px;}.cls-45{font-size:15.809px;}.cls-46{stroke-width:1.282px;}.cls-47{stroke-width:1.353px;}.cls-48,.cls-49,.cls-50{stroke:#fff;}.cls-48{stroke-width:4px;}.cls-49{stroke-width:6px;}.cls-50{stroke-width:3px;}.cls-51{stroke:#ebf2f2;stroke-width:8px;}</style></defs><title>FTH Level 1</title><g id="bkr"><polyline class="cls-1" points="33.191 2274.946 1836.432 2274.946 1862.736 2246.655 1862.736 1622.894 804.058 1622.894 804.058 37 83.784 37 83.784 1622.894 4 1622.894 4 2246.946"/><path class="cls-2" d="M804.058,1619.894V8.244A2.244,2.244,0,0,0,801.814,6H86.029a2.245,2.245,0,0,0-2.245,2.244v1611.65H6.244A2.244,2.244,0,0,0,4,1622.138v620.808H1862.736V1622.138a2.245,2.245,0,0,0-2.245-2.244Z"/></g><g id="Blanks"><polygon class="cls-3" points="801.114 799.824 650.038 799.824 649.294 810.075 491.169 810.075 491.169 646.766 801.114 646.766 801.114 799.824"/><rect class="cls-3" x="4" y="2066.781" width="126.135" height="174.165"/><rect class="cls-3" x="373.858" y="2069.443" width="430.2" height="171.504"/></g><g id="Highlights"><polygon class="cls-4" points="2.244 1619.894 374.554 1619.894 378.554 1858.445 244.17 1858.445 244.17 1763.653 171.561 1763.653 171.561 1858.593 4 1858.593 2.244 1619.894"/><rect class="cls-4" x="510.906" y="1495.452" width="293.152" height="121.476"/><rect class="cls-4" x="650.038" y="799.824" width="152.872" height="121.476"/><rect class="cls-4" x="267.227" y="2066.781" width="106.63" height="174.924"/></g><g id="area-1-open"><path class="cls-5" d="M228.359,1181.139H384.008a2.985,2.985,0,0,1,2.985,2.985v39.932a2.985,2.985,0,0,1-2.985,2.985H228.359a0,0,0,0,1,0,0v-45.9A0,0,0,0,1,228.359,1181.139Z"/><path class="cls-6" d="M228.359,1178.446H384.008a2.985,2.985,0,0,1,2.985,2.985v39.932a2.985,2.985,0,0,1-2.985,2.985H228.359a0,0,0,0,1,0,0v-45.9A0,0,0,0,1,228.359,1178.446Z"/><g id="Layer_11" data-name="Layer 11"><g id="details-2"><path class="cls-5" d="M172.459,136.613l-.648-76.943a6.627,6.627,0,0,1,6.587-6.662h.057l78.554-.034a6.612,6.612,0,0,1,6.663,6.564h0l-.023.068.652,76.943A6.632,6.632,0,0,1,257.7,143.2h-.037l-78.555.083a6.625,6.625,0,0,1-6.667-6.572h0Z"/><path class="cls-6" d="M172.459,133.127l-.648-76.939a6.633,6.633,0,0,1,6.61-6.655h.034l78.554-.034a6.634,6.634,0,0,1,6.652,6.614h0v.03h0l.652,76.932a6.625,6.625,0,0,1-6.591,6.658h-.057l-78.555.038a6.636,6.636,0,0,1-6.651-6.614h0Z"/></g><path class="cls-7" d="M216.933,136.123,256.9,136.1a6.625,6.625,0,0,0,6.636-6.614h0v-.026L263.5,49.085a5.253,5.253,0,0,0-5.259-5.25l-41.366.051Z"/><path class="cls-7" d="M216.884,43.878l-39.931.02a5.253,5.253,0,0,0-5.249,5.254l.035,80.377a6.63,6.63,0,0,0,6.614,6.636h38.58Z"/><line class="cls-8" x1="217.005" y1="44.286" x2="216.933" y2="136.116"/><g id="chairs-2"><path class="cls-9" d="M269.273,96.231l.113-7.695a10.634,10.634,0,0,1,10.8-10.457h.524l7.608.486a14.09,14.09,0,0,1,13.189,14.282h0a14.1,14.1,0,0,1-13.607,13.9l-7.616.263a10.625,10.625,0,0,1-11-10.242h0C269.276,96.585,269.273,96.427,269.273,96.231Z"/><path class="cls-10" d="M268.711,95.489l.109-7.7a10.639,10.639,0,0,1,10.8-10.476h.52l7.6.49A14.124,14.124,0,0,1,300.953,92.09h0a14.113,14.113,0,0,1-13.622,13.9l-7.612.267a10.65,10.65,0,0,1-11-10.254C268.711,95.836,268.715,95.674,268.711,95.489Z"/><path class="cls-11" d="M266.314,92.96l.114-7.7a10.637,10.637,0,0,1,10.785-10.48h.531l7.6.486a14.109,14.109,0,0,1,13.212,14.29h0a14.119,14.119,0,0,1-13.622,13.9l-7.612.264a10.634,10.634,0,0,1-11-10.254C266.314,93.311,266.311,93.13,266.314,92.96Z"/><path class="cls-12" d="M276.172,74.661l9.165.777a14.11,14.11,0,0,1,13.189,14.285h0a14.1,14.1,0,0,1-13.619,13.9l-9.2.486"/><path class="cls-9" d="M166.317,98.444h0a10.632,10.632,0,0,1-11,10.25l-7.62-.264a14.1,14.1,0,0,1-13.607-13.9h0a14.089,14.089,0,0,1,13.189-14.282l7.6-.49h.524a10.631,10.631,0,0,1,10.8,10.458h0l.113,7.7C166.32,98.093,166.317,98.267,166.317,98.444Z"/><path class="cls-10" d="M166.871,97.686a10.646,10.646,0,0,1-11,10.254l-7.612-.268a14.12,14.12,0,0,1-13.623-13.9h0a14.132,14.132,0,0,1,13.212-14.286l7.6-.49h.524a10.639,10.639,0,0,1,10.8,10.476l.105,7.7C166.878,97.34,166.882,97.52,166.871,97.686Z"/><path class="cls-11" d="M169.271,95.146a10.639,10.639,0,0,1-11,10.258l-7.612-.264a14.124,14.124,0,0,1-13.622-13.9h0a14.108,14.108,0,0,1,13.212-14.289l7.6-.486h.528a10.63,10.63,0,0,1,10.789,10.468h0l.113,7.7A2.576,2.576,0,0,1,169.271,95.146Z"/><path class="cls-12" d="M159.884,105.792l-9.2-.486a14.113,14.113,0,0,1-13.619-13.9h0a14.115,14.115,0,0,1,13.189-14.289l9.165-.777"/></g><g id="details-2-2" data-name="details-2"><path class="cls-5" d="M396.541,135.459l-.648-76.943a6.627,6.627,0,0,1,6.587-6.662h.056l78.555-.034a6.612,6.612,0,0,1,6.663,6.564h0l-.023.068.652,76.943a6.632,6.632,0,0,1-6.606,6.651h-.038l-78.555.083a6.625,6.625,0,0,1-6.666-6.572h0Z"/><path class="cls-6" d="M396.541,131.973l-.648-76.939a6.632,6.632,0,0,1,6.609-6.655h.034l78.555-.034a6.633,6.633,0,0,1,6.651,6.614h0v.03h0l.652,76.932a6.625,6.625,0,0,1-6.59,6.658h-.057l-78.555.038A6.636,6.636,0,0,1,396.541,132h0Z"/></g><path class="cls-7" d="M441.015,134.969l39.967-.026a6.625,6.625,0,0,0,6.636-6.614h0V128.3l-.036-80.372a5.252,5.252,0,0,0-5.258-5.25l-41.366.051Z"/><path class="cls-7" d="M440.966,42.724l-39.931.02A5.252,5.252,0,0,0,395.786,48l.035,80.377a6.63,6.63,0,0,0,6.614,6.636h38.58Z"/><line class="cls-8" x1="441.087" y1="43.132" x2="441.015" y2="134.962"/><g id="chairs-2-2" data-name="chairs-2"><path class="cls-9" d="M493.354,95.077l.113-7.695a10.635,10.635,0,0,1,10.8-10.457h.523l7.609.486a14.09,14.09,0,0,1,13.189,14.282h0a14.1,14.1,0,0,1-13.608,13.9l-7.615.263a10.625,10.625,0,0,1-11-10.242h0C493.358,95.431,493.354,95.273,493.354,95.077Z"/><path class="cls-10" d="M492.793,94.335l.109-7.7A10.638,10.638,0,0,1,503.7,76.16h.52l7.6.49a14.124,14.124,0,0,1,13.212,14.286h0a14.112,14.112,0,0,1-13.623,13.9l-7.612.268a10.649,10.649,0,0,1-11-10.254C492.793,94.682,492.8,94.52,492.793,94.335Z"/><path class="cls-11" d="M490.4,91.806l.113-7.7a10.638,10.638,0,0,1,10.785-10.48h.532l7.6.486A14.108,14.108,0,0,1,522.642,88.4h0a14.12,14.12,0,0,1-13.623,13.9l-7.612.264a10.634,10.634,0,0,1-11-10.254C490.4,92.157,490.392,91.976,490.4,91.806Z"/><path class="cls-12" d="M500.254,73.507l9.165.777a14.111,14.111,0,0,1,13.189,14.285h0a14.1,14.1,0,0,1-13.619,13.9l-9.2.486"/><path class="cls-9" d="M390.4,97.29h0a10.631,10.631,0,0,1-11,10.25l-7.619-.264a14.106,14.106,0,0,1-13.608-13.9h0a14.091,14.091,0,0,1,13.19-14.282l7.6-.49h.524a10.631,10.631,0,0,1,10.8,10.458h0l.113,7.695C390.4,96.939,390.4,97.113,390.4,97.29Z"/><path class="cls-10" d="M390.952,96.532a10.645,10.645,0,0,1-11,10.254l-7.612-.268a14.119,14.119,0,0,1-13.622-13.9h0a14.13,14.13,0,0,1,13.212-14.286l7.6-.49h.524a10.637,10.637,0,0,1,10.8,10.476l.106,7.7C390.96,96.186,390.964,96.366,390.952,96.532Z"/><path class="cls-11" d="M393.353,93.992a10.639,10.639,0,0,1-11,10.258l-7.612-.264a14.123,14.123,0,0,1-13.622-13.9h0A14.108,14.108,0,0,1,374.327,75.8l7.6-.486h.528a10.629,10.629,0,0,1,10.788,10.468h0l.113,7.7A2.5,2.5,0,0,1,393.353,93.992Z"/><path class="cls-12" d="M383.966,104.638l-9.2-.486a14.113,14.113,0,0,1-13.619-13.9h0a14.115,14.115,0,0,1,13.189-14.289l9.165-.777"/></g><g id="details-2-3" data-name="details-2"><path class="cls-5" d="M621.453,135.372,620.8,58.429a6.629,6.629,0,0,1,6.587-6.663h.057L706,51.732a6.614,6.614,0,0,1,6.662,6.564h0l-.023.068.652,76.943a6.632,6.632,0,0,1-6.6,6.651h-.038l-78.555.083a6.625,6.625,0,0,1-6.666-6.572h0Z"/><path class="cls-6" d="M621.453,131.886,620.8,54.947a6.633,6.633,0,0,1,6.61-6.655h.034L706,48.258a6.632,6.632,0,0,1,6.651,6.613h0v.03h0l.652,76.932a6.625,6.625,0,0,1-6.591,6.659h-.057l-78.554.037a6.636,6.636,0,0,1-6.652-6.613h0Z"/></g><path class="cls-7" d="M665.927,134.882l39.967-.027a6.623,6.623,0,0,0,6.636-6.613h0v-.026L712.5,47.844a5.252,5.252,0,0,0-5.258-5.25l-41.366.05Z"/><path class="cls-7" d="M665.878,42.637l-39.931.02a5.251,5.251,0,0,0-5.249,5.254l.036,80.376a6.628,6.628,0,0,0,6.613,6.636h38.58Z"/><line class="cls-8" x1="665.999" y1="43.044" x2="665.927" y2="134.874"/><g id="chairs-2-3" data-name="chairs-2"><path class="cls-9" d="M718.267,94.99l.113-7.695a10.634,10.634,0,0,1,10.8-10.457h.524l7.608.486A14.089,14.089,0,0,1,750.5,91.606h0a14.1,14.1,0,0,1-13.607,13.9l-7.616.264a10.627,10.627,0,0,1-11-10.242h0C718.271,95.344,718.267,95.186,718.267,94.99Z"/><path class="cls-10" d="M717.705,94.247l.11-7.7a10.637,10.637,0,0,1,10.8-10.476h.52l7.6.49a14.123,14.123,0,0,1,13.212,14.285h0a14.112,14.112,0,0,1-13.622,13.9l-7.612.268a10.65,10.65,0,0,1-11-10.254C717.705,94.594,717.709,94.432,717.705,94.247Z"/><path class="cls-11" d="M715.309,91.719l.113-7.7a10.639,10.639,0,0,1,10.785-10.48h.531l7.6.487a14.107,14.107,0,0,1,13.211,14.289h0a14.119,14.119,0,0,1-13.622,13.9l-7.612.264a10.635,10.635,0,0,1-11-10.254C715.309,92.069,715.305,91.889,715.309,91.719Z"/><path class="cls-12" d="M725.167,73.42l9.164.776a14.113,14.113,0,0,1,13.19,14.286h0a14.1,14.1,0,0,1-13.619,13.9l-9.2.486"/><path class="cls-9" d="M615.311,97.2h0a10.63,10.63,0,0,1-11,10.25l-7.62-.264a14.1,14.1,0,0,1-13.607-13.9h0a14.09,14.09,0,0,1,13.189-14.282l7.6-.49h.523a10.63,10.63,0,0,1,10.8,10.457h0l.114,7.7C615.315,96.852,615.311,97.025,615.311,97.2Z"/><path class="cls-10" d="M615.865,96.445a10.645,10.645,0,0,1-11,10.253l-7.612-.267a14.12,14.12,0,0,1-13.623-13.9h0a14.131,14.131,0,0,1,13.212-14.285l7.605-.49h.524a10.638,10.638,0,0,1,10.8,10.476l.105,7.7C615.872,96.1,615.876,96.279,615.865,96.445Z"/><path class="cls-11" d="M618.265,93.905a10.636,10.636,0,0,1-11,10.257l-7.612-.263A14.125,14.125,0,0,1,586.027,90h0a14.11,14.11,0,0,1,13.212-14.29l7.605-.486h.527A10.631,10.631,0,0,1,618.16,85.694h0l.113,7.7A2.513,2.513,0,0,1,618.265,93.905Z"/><path class="cls-12" d="M608.878,104.551l-9.2-.487a14.112,14.112,0,0,1-13.619-13.9h0a14.117,14.117,0,0,1,13.189-14.29l9.165-.776"/></g></g><g id="Layer_12" data-name="Layer 12"><g id="table"><rect class="cls-5" x="130.944" y="235.257" width="251.899" height="92.824" rx="2.399"/><rect class="cls-6" x="130.944" y="230.717" width="251.899" height="92.824" rx="2.399"/><rect class="cls-13" x="136.773" y="226.735" width="240.39" height="39.272"/><rect class="cls-13" x="135.15" y="281.522" width="240.39" height="38.037"/><polygon class="cls-5" points="377.163 226.735 371.705 226.735 371.705 266.007 140.75 266.007 140.75 226.735 135.15 226.735 135.15 319.559 141.192 319.559 141.192 289.522 370.146 289.522 370.146 319.559 377.163 319.559 377.163 226.735"/><polygon class="cls-13" points="382.843 226.735 377.163 226.735 377.163 266.007 136.773 266.007 136.773 226.735 130.944 226.735 130.944 319.559 137.15 319.559 137.15 281.522 375.54 281.522 375.54 319.559 382.843 319.559 382.843 226.735"/><polygon class="cls-7" points="382.917 222.339 377.237 222.339 377.237 261.611 136.847 261.611 136.847 222.339 131.018 222.339 131.018 315.163 137.225 315.163 137.225 277.126 375.614 277.126 375.614 315.163 382.917 315.163 382.917 222.339"/><g class="cls-14"><line class="cls-15" x1="160.787" y1="226.735" x2="160.787" y2="261.611"/><line class="cls-15" x1="185.13" y1="226.735" x2="185.13" y2="261.611"/><line class="cls-15" x1="209.119" y1="226.735" x2="209.119" y2="261.611"/><line class="cls-15" x1="232.46" y1="226.735" x2="232.46" y2="261.611"/><line class="cls-15" x1="256.156" y1="226.735" x2="256.156" y2="261.611"/><line class="cls-15" x1="280.221" y1="226.735" x2="280.221" y2="261.611"/><line class="cls-15" x1="304.21" y1="226.735" x2="304.21" y2="261.611"/><line class="cls-15" x1="327.767" y1="226.735" x2="327.767" y2="261.611"/><line class="cls-15" x1="352.108" y1="226.735" x2="352.108" y2="261.611"/></g><g class="cls-14"><line class="cls-16" x1="160.496" y1="281.364" x2="160.496" y2="319.559"/><line class="cls-16" x1="184.839" y1="281.364" x2="184.839" y2="319.559"/><line class="cls-16" x1="208.828" y1="281.364" x2="208.828" y2="319.559"/><line class="cls-16" x1="232.169" y1="281.364" x2="232.169" y2="319.559"/><line class="cls-16" x1="255.866" y1="281.364" x2="255.866" y2="319.559"/><line class="cls-16" x1="279.93" y1="281.364" x2="279.93" y2="319.559"/><line class="cls-16" x1="303.919" y1="281.364" x2="303.919" y2="319.559"/><line class="cls-16" x1="327.476" y1="281.364" x2="327.476" y2="319.559"/><line class="cls-16" x1="351.817" y1="281.364" x2="351.817" y2="319.559"/></g></g><g id="table-2" data-name="table"><rect class="cls-5" x="130.907" y="438.721" width="251.899" height="92.824" rx="2.399"/><rect class="cls-6" x="130.907" y="434.181" width="251.899" height="92.824" rx="2.399"/><rect class="cls-13" x="136.736" y="430.199" width="240.39" height="39.272"/><rect class="cls-13" x="135.113" y="484.985" width="240.39" height="38.037"/><polygon class="cls-5" points="377.125 430.199 371.668 430.199 371.668 469.47 140.713 469.47 140.713 430.199 135.113 430.199 135.113 523.022 141.155 523.022 141.155 492.985 370.109 492.985 370.109 523.022 377.125 523.022 377.125 430.199"/><polygon class="cls-13" points="382.806 430.199 377.125 430.199 377.125 469.47 136.736 469.47 136.736 430.199 130.907 430.199 130.907 523.022 137.113 523.022 137.113 484.985 375.503 484.985 375.503 523.022 382.806 523.022 382.806 430.199"/><polygon class="cls-7" points="382.88 425.803 377.2 425.803 377.2 465.074 136.81 465.074 136.81 425.803 130.981 425.803 130.981 518.626 137.187 518.626 137.187 480.589 375.577 480.589 375.577 518.626 382.88 518.626 382.88 425.803"/><g class="cls-14"><line class="cls-15" x1="160.75" y1="430.199" x2="160.75" y2="465.074"/><line class="cls-15" x1="185.093" y1="430.199" x2="185.093" y2="465.074"/><line class="cls-15" x1="209.082" y1="430.199" x2="209.082" y2="465.074"/><line class="cls-15" x1="232.423" y1="430.199" x2="232.423" y2="465.074"/><line class="cls-15" x1="256.119" y1="430.199" x2="256.119" y2="465.074"/><line class="cls-15" x1="280.184" y1="430.199" x2="280.184" y2="465.074"/><line class="cls-15" x1="304.173" y1="430.199" x2="304.173" y2="465.074"/><line class="cls-15" x1="327.73" y1="430.199" x2="327.73" y2="465.074"/><line class="cls-15" x1="352.071" y1="430.199" x2="352.071" y2="465.074"/></g><g class="cls-14"><line class="cls-16" x1="160.459" y1="484.827" x2="160.459" y2="523.022"/><line class="cls-16" x1="184.802" y1="484.827" x2="184.802" y2="523.022"/><line class="cls-16" x1="208.791" y1="484.827" x2="208.791" y2="523.022"/><line class="cls-16" x1="232.132" y1="484.827" x2="232.132" y2="523.022"/><line class="cls-16" x1="255.829" y1="484.827" x2="255.829" y2="523.022"/><line class="cls-16" x1="279.893" y1="484.827" x2="279.893" y2="523.022"/><line class="cls-16" x1="303.882" y1="484.827" x2="303.882" y2="523.022"/><line class="cls-16" x1="327.439" y1="484.827" x2="327.439" y2="523.022"/><line class="cls-16" x1="351.78" y1="484.827" x2="351.78" y2="523.022"/></g></g><g id="chairs"><path class="cls-17" d="M246.2,221.386l5.963-18.3a5.588,5.588,0,0,0-6.752-7.131l-18.919,5.038a5.589,5.589,0,0,0-2.56,9.306l12.956,13.264A5.588,5.588,0,0,0,246.2,221.386Z"/><path class="cls-17" d="M246.2,219.43l5.963-18.3A5.589,5.589,0,0,0,245.408,194l-18.919,5.038a5.589,5.589,0,0,0-2.56,9.306L236.885,221.6A5.588,5.588,0,0,0,246.2,219.43Z"/><path class="cls-18" d="M246.2,217.484l5.963-18.3a5.589,5.589,0,0,0-6.752-7.132l-18.919,5.039a5.588,5.588,0,0,0-2.56,9.305l12.956,13.265A5.588,5.588,0,0,0,246.2,217.484Z"/><path class="cls-17" d="M199.51,356.813l5.963-18.3a5.589,5.589,0,0,0-6.752-7.132L179.8,336.417a5.588,5.588,0,0,0-2.56,9.305L190.2,358.987A5.589,5.589,0,0,0,199.51,356.813Z"/><path class="cls-17" d="M199.51,354.857l5.963-18.3a5.588,5.588,0,0,0-6.752-7.131L179.8,334.461a5.589,5.589,0,0,0-2.56,9.306L190.2,357.031A5.588,5.588,0,0,0,199.51,354.857Z"/><path class="cls-18" d="M199.51,352.911l5.963-18.3a5.589,5.589,0,0,0-6.752-7.132L179.8,332.515a5.588,5.588,0,0,0-2.56,9.305L190.2,355.085A5.589,5.589,0,0,0,199.51,352.911Z"/><path class="cls-17" d="M306.16,424.85l5.963-18.3a5.589,5.589,0,0,0-6.752-7.132l-18.919,5.039a5.588,5.588,0,0,0-2.56,9.305l12.956,13.265A5.589,5.589,0,0,0,306.16,424.85Z"/><path class="cls-17" d="M306.16,422.894l5.963-18.3a5.589,5.589,0,0,0-6.752-7.132L286.452,402.5a5.589,5.589,0,0,0-2.56,9.306l12.956,13.264A5.588,5.588,0,0,0,306.16,422.894Z"/><path class="cls-18" d="M306.16,420.948l5.963-18.3a5.589,5.589,0,0,0-6.752-7.132l-18.919,5.038a5.589,5.589,0,0,0-2.56,9.306l12.956,13.265A5.589,5.589,0,0,0,306.16,420.948Z"/><path class="cls-17" d="M189.473,560.277l5.963-18.3a5.589,5.589,0,0,0-6.752-7.132l-18.919,5.038a5.589,5.589,0,0,0-2.56,9.306l12.956,13.265A5.589,5.589,0,0,0,189.473,560.277Z"/><path class="cls-17" d="M189.473,558.321l5.963-18.3a5.589,5.589,0,0,0-6.752-7.132l-18.919,5.039a5.588,5.588,0,0,0-2.56,9.305L180.161,560.5A5.589,5.589,0,0,0,189.473,558.321Z"/><path class="cls-18" d="M189.473,556.374l5.963-18.3a5.589,5.589,0,0,0-6.752-7.132l-18.919,5.038a5.589,5.589,0,0,0-2.56,9.306l12.956,13.264A5.588,5.588,0,0,0,189.473,556.374Z"/></g></g><g id="Layer_12_copy" data-name="Layer 12 copy"><g id="table-3" data-name="table"><rect class="cls-5" x="500.944" y="235.257" width="251.899" height="92.824" rx="2.399"/><rect class="cls-6" x="500.944" y="230.717" width="251.899" height="92.824" rx="2.399"/><rect class="cls-13" x="506.773" y="226.735" width="240.39" height="39.272"/><rect class="cls-13" x="505.151" y="281.522" width="240.39" height="38.037"/><polygon class="cls-5" points="747.163 226.735 741.705 226.735 741.705 266.007 510.751 266.007 510.751 226.735 505.151 226.735 505.151 319.559 511.192 319.559 511.192 289.522 740.147 289.522 740.147 319.559 747.163 319.559 747.163 226.735"/><polygon class="cls-13" points="752.844 226.735 747.163 226.735 747.163 266.007 506.773 266.007 506.773 226.735 500.944 226.735 500.944 319.559 507.151 319.559 507.151 281.522 745.541 281.522 745.541 319.559 752.844 319.559 752.844 226.735"/><polygon class="cls-7" points="752.918 222.339 747.237 222.339 747.237 261.611 506.847 261.611 506.847 222.339 501.018 222.339 501.018 315.163 507.225 315.163 507.225 277.126 745.615 277.126 745.615 315.163 752.918 315.163 752.918 222.339"/><g class="cls-14"><line class="cls-15" x1="530.788" y1="226.735" x2="530.788" y2="261.611"/><line class="cls-15" x1="555.13" y1="226.735" x2="555.13" y2="261.611"/><line class="cls-15" x1="579.119" y1="226.735" x2="579.119" y2="261.611"/><line class="cls-15" x1="602.46" y1="226.735" x2="602.46" y2="261.611"/><line class="cls-15" x1="626.157" y1="226.735" x2="626.157" y2="261.611"/><line class="cls-15" x1="650.222" y1="226.735" x2="650.222" y2="261.611"/><line class="cls-15" x1="674.211" y1="226.735" x2="674.211" y2="261.611"/><line class="cls-15" x1="697.767" y1="226.735" x2="697.767" y2="261.611"/><line class="cls-15" x1="722.108" y1="226.735" x2="722.108" y2="261.611"/></g><g class="cls-14"><line class="cls-16" x1="530.497" y1="281.364" x2="530.497" y2="319.559"/><line class="cls-16" x1="554.839" y1="281.364" x2="554.839" y2="319.559"/><line class="cls-16" x1="578.828" y1="281.364" x2="578.828" y2="319.559"/><line class="cls-16" x1="602.169" y1="281.364" x2="602.169" y2="319.559"/><line class="cls-16" x1="625.866" y1="281.364" x2="625.866" y2="319.559"/><line class="cls-16" x1="649.931" y1="281.364" x2="649.931" y2="319.559"/><line class="cls-16" x1="673.92" y1="281.364" x2="673.92" y2="319.559"/><line class="cls-16" x1="697.477" y1="281.364" x2="697.477" y2="319.559"/><line class="cls-16" x1="721.817" y1="281.364" x2="721.817" y2="319.559"/></g></g><g id="table-4" data-name="table"><rect class="cls-5" x="500.907" y="440.205" width="251.899" height="92.824" rx="2.399"/><rect class="cls-6" x="500.907" y="435.665" width="251.899" height="92.824" rx="2.399"/><rect class="cls-13" x="506.736" y="431.683" width="240.39" height="39.272"/><rect class="cls-13" x="505.114" y="486.469" width="240.39" height="38.037"/><polygon class="cls-5" points="747.126 431.683 741.668 431.683 741.668 470.954 510.714 470.954 510.714 431.683 505.114 431.683 505.114 524.507 511.155 524.507 511.155 494.469 740.109 494.469 740.109 524.507 747.126 524.507 747.126 431.683"/><polygon class="cls-13" points="752.807 431.683 747.126 431.683 747.126 470.954 506.736 470.954 506.736 431.683 500.907 431.683 500.907 524.507 507.114 524.507 507.114 486.469 745.503 486.469 745.503 524.507 752.807 524.507 752.807 431.683"/><polygon class="cls-7" points="752.881 427.287 747.2 427.287 747.2 466.558 506.81 466.558 506.81 427.287 500.981 427.287 500.981 520.111 507.188 520.111 507.188 482.073 745.578 482.073 745.578 520.111 752.881 520.111 752.881 427.287"/><g class="cls-14"><line class="cls-15" x1="530.75" y1="431.683" x2="530.75" y2="466.558"/><line class="cls-15" x1="555.093" y1="431.683" x2="555.093" y2="466.558"/><line class="cls-15" x1="579.082" y1="431.683" x2="579.082" y2="466.558"/><line class="cls-15" x1="602.423" y1="431.683" x2="602.423" y2="466.558"/><line class="cls-15" x1="626.12" y1="431.683" x2="626.12" y2="466.558"/><line class="cls-15" x1="650.185" y1="431.683" x2="650.185" y2="466.558"/><line class="cls-15" x1="674.174" y1="431.683" x2="674.174" y2="466.558"/><line class="cls-15" x1="697.73" y1="431.683" x2="697.73" y2="466.558"/><line class="cls-15" x1="722.071" y1="431.683" x2="722.071" y2="466.558"/></g><g class="cls-14"><line class="cls-16" x1="530.46" y1="486.311" x2="530.46" y2="524.507"/><line class="cls-16" x1="554.802" y1="486.311" x2="554.802" y2="524.507"/><line class="cls-16" x1="578.791" y1="486.311" x2="578.791" y2="524.507"/><line class="cls-16" x1="602.132" y1="486.311" x2="602.132" y2="524.507"/><line class="cls-16" x1="625.829" y1="486.311" x2="625.829" y2="524.507"/><line class="cls-16" x1="649.894" y1="486.311" x2="649.894" y2="524.507"/><line class="cls-16" x1="673.883" y1="486.311" x2="673.883" y2="524.507"/><line class="cls-16" x1="697.439" y1="486.311" x2="697.439" y2="524.507"/><line class="cls-16" x1="721.78" y1="486.311" x2="721.78" y2="524.507"/></g></g><g id="chairs_copy" data-name="chairs copy"><path class="cls-17" d="M582.2,221.386l5.963-18.3a5.588,5.588,0,0,0-6.752-7.131l-18.919,5.038a5.589,5.589,0,0,0-2.56,9.306l12.956,13.264A5.588,5.588,0,0,0,582.2,221.386Z"/><path class="cls-17" d="M582.2,219.43l5.963-18.3A5.589,5.589,0,0,0,581.408,194l-18.919,5.038a5.589,5.589,0,0,0-2.56,9.306L572.885,221.6A5.588,5.588,0,0,0,582.2,219.43Z"/><path class="cls-18" d="M582.2,217.484l5.963-18.3a5.589,5.589,0,0,0-6.752-7.132l-18.919,5.039a5.588,5.588,0,0,0-2.56,9.305l12.956,13.265A5.588,5.588,0,0,0,582.2,217.484Z"/><path class="cls-17" d="M571.511,356.813l5.962-18.3a5.589,5.589,0,0,0-6.752-7.132L551.8,336.417a5.588,5.588,0,0,0-2.559,9.305L562.2,358.987A5.589,5.589,0,0,0,571.511,356.813Z"/><path class="cls-17" d="M571.511,354.857l5.962-18.3a5.588,5.588,0,0,0-6.752-7.131L551.8,334.461a5.589,5.589,0,0,0-2.559,9.306L562.2,357.031A5.589,5.589,0,0,0,571.511,354.857Z"/><path class="cls-18" d="M571.511,352.911l5.962-18.3a5.589,5.589,0,0,0-6.752-7.132L551.8,332.515a5.588,5.588,0,0,0-2.559,9.305L562.2,355.085A5.589,5.589,0,0,0,571.511,352.911Z"/><path class="cls-17" d="M659.16,426.334l5.963-18.3a5.589,5.589,0,0,0-6.752-7.132l-18.919,5.039a5.588,5.588,0,0,0-2.56,9.305l12.956,13.265A5.589,5.589,0,0,0,659.16,426.334Z"/><path class="cls-17" d="M659.16,424.378l5.963-18.3a5.589,5.589,0,0,0-6.752-7.132l-18.919,5.039a5.589,5.589,0,0,0-2.56,9.306l12.956,13.264A5.588,5.588,0,0,0,659.16,424.378Z"/><path class="cls-18" d="M659.16,422.432l5.963-18.3A5.589,5.589,0,0,0,658.371,397l-18.919,5.038a5.589,5.589,0,0,0-2.56,9.306l12.956,13.265A5.589,5.589,0,0,0,659.16,422.432Z"/><path class="cls-17" d="M639.474,561.761l5.962-18.3a5.589,5.589,0,0,0-6.752-7.132l-18.919,5.038a5.589,5.589,0,0,0-2.559,9.306l12.956,13.265A5.589,5.589,0,0,0,639.474,561.761Z"/><path class="cls-17" d="M639.474,559.8l5.962-18.3a5.589,5.589,0,0,0-6.752-7.132l-18.919,5.039a5.588,5.588,0,0,0-2.559,9.305l12.956,13.265A5.589,5.589,0,0,0,639.474,559.8Z"/><path class="cls-18" d="M639.474,557.858l5.962-18.3a5.589,5.589,0,0,0-6.752-7.132l-18.919,5.038a5.589,5.589,0,0,0-2.559,9.306l12.956,13.264A5.589,5.589,0,0,0,639.474,557.858Z"/></g><rect class="cls-19" x="545.384" y="641.365" width="54.23" height="2.33" rx="0.745"/><path class="cls-5" d="M605.639,638.7v-1.752a1.051,1.051,0,0,0-1.051-1.051H541.153a1.052,1.052,0,0,0-1.052,1.051h0V638.7a1.052,1.052,0,0,0,1.052,1.052h4.24v.876h0a.745.745,0,0,0,.745.745h52.744a.751.751,0,0,0,.742-.745v-.876h4.964a1.051,1.051,0,0,0,1.051-1.052Z"/><rect class="cls-20" x="540.101" y="638.231" width="65.529" height="3.855" rx="1.051"/></g><g id="details-2-4" data-name="details-2"><path class="cls-5" d="M112.118,795.539,111.47,760.6a6.629,6.629,0,0,1,6.587-6.663h.056l78.555-.034a6.614,6.614,0,0,1,6.663,6.564h0l-.023.068.652,34.943a6.633,6.633,0,0,1-6.606,6.651h-.038l-78.554.083a6.625,6.625,0,0,1-6.667-6.572h0Z"/><path class="cls-6" d="M112.118,792.053l-.648-34.939a6.631,6.631,0,0,1,6.609-6.655h.034l78.555-.034a6.631,6.631,0,0,1,6.651,6.613h0v.03h0L203.971,792a6.625,6.625,0,0,1-6.59,6.659h-.057l-78.555.038a6.636,6.636,0,0,1-6.651-6.614h0Z"/></g><path class="cls-7" d="M203.16,750.011a5.254,5.254,0,0,0-5.259-5.25l-41.358.05V744.8l-39.931.02a5.252,5.252,0,0,0-5.249,5.254l.035,38.376a6.629,6.629,0,0,0,6.614,6.636h38.58v-.041l39.967-.027a6.623,6.623,0,0,0,6.636-6.613v-.026Z"/><path class="cls-9" d="M151.9,742.974a10.473,10.473,0,0,1-10.032-10.858l.281-7.484a13.9,13.9,0,0,1,13.708-13.363h0a13.9,13.9,0,0,1,14.02,13.029l.458,7.492a4.023,4.023,0,0,1,0,.515v.038h0a10.455,10.455,0,0,1-10.362,10.547h-.012l-7.569.088Z"/><path class="cls-10" d="M152.4,741.818h-.5a10.455,10.455,0,0,1-10.059-10.835h0l.281-7.492a13.875,13.875,0,0,1,13.7-13.36h0a13.906,13.906,0,0,1,14.024,13.033l.457,7.477a3.045,3.045,0,0,1,0,.523h0a10.474,10.474,0,0,1-10.374,10.566l-7.573.088Z"/><path class="cls-11" d="M152.02,740.335a10.46,10.46,0,0,1-10.032-10.847l.277-7.492a13.9,13.9,0,0,1,13.713-13.359h0a13.877,13.877,0,0,1,14.016,13.029l.461,7.48a3.139,3.139,0,0,1,0,.531h0a10.467,10.467,0,0,1-10.369,10.562h-.005l-7.573.088Z"/><path class="cls-21" d="M141.554,731.014l.53-9.026a13.9,13.9,0,0,1,13.7-13.363h0a13.906,13.906,0,0,1,14.025,13.037l.768,9.006"/><path class="cls-5" d="M113.6,1228.236H204.66a0,0,0,0,1,0,0v45.29a0,0,0,0,1,0,0H115.487a1.884,1.884,0,0,1-1.884-1.884v-43.406A0,0,0,0,1,113.6,1228.236Z"/><path class="cls-6" d="M113.6,1225.374H204.66a0,0,0,0,1,0,0v45.29a0,0,0,0,1,0,0H115.487a1.884,1.884,0,0,1-1.884-1.884v-43.406A0,0,0,0,1,113.6,1225.374Z"/><path class="cls-13" d="M113.6,1222.424H204.66a0,0,0,0,1,0,0v45.29a0,0,0,0,1,0,0H115.487a1.884,1.884,0,0,1-1.884-1.884v-43.406A0,0,0,0,1,113.6,1222.424Z"/><path class="cls-7" d="M116.225,1176.033H328.57a0,0,0,0,1,0,0v45.9a0,0,0,0,1,0,0H113.6a0,0,0,0,1,0,0v-43.281A2.622,2.622,0,0,1,116.225,1176.033Z"/><path class="cls-13" d="M329.122,1176.033h54.886a2.985,2.985,0,0,1,2.985,2.985v39.932a2.985,2.985,0,0,1-2.985,2.985H329.122a0,0,0,0,1,0,0v-45.9A0,0,0,0,1,329.122,1176.033Z"/><path class="cls-5" d="M204.66,1226.385h23.7a0,0,0,0,1,0,0v105.86a1.629,1.629,0,0,1-1.629,1.629H206.289a1.629,1.629,0,0,1-1.629-1.629v-105.86A0,0,0,0,1,204.66,1226.385Z"/><path class="cls-6" d="M204.66,1224.344h23.7a0,0,0,0,1,0,0V1330.2a1.629,1.629,0,0,1-1.629,1.629H206.289a1.629,1.629,0,0,1-1.629-1.629v-105.86A0,0,0,0,1,204.66,1224.344Z"/><path class="cls-7" d="M204.66,1222.282h23.7a0,0,0,0,1,0,0v105.86a1.629,1.629,0,0,1-1.629,1.629H206.289a1.629,1.629,0,0,1-1.629-1.629v-105.86A0,0,0,0,1,204.66,1222.282Z"/><line class="cls-15" x1="112.797" y1="1222.424" x2="228.569" y2="1222.424"/><line class="cls-15" x1="329.122" y1="1176.033" x2="329.122" y2="1221.936"/><g id="chairs-6"><path class="cls-9" d="M167.248,1282.358l-8.139-.05a10.752,10.752,0,0,0-11.286,10.19h0v.565l.352,7.4a14.411,14.411,0,0,0,14.791,13.114h0a14.411,14.411,0,0,0,14.969-12.932l.459-7.388a10.755,10.755,0,0,0-10.6-10.911Z"/><path class="cls-10" d="M167.248,1281.4l-8.139-.054a10.756,10.756,0,0,0-11.286,10.2v0h0v.58l.352,7.4a14.412,14.412,0,0,0,14.814,13.122h0a14.411,14.411,0,0,0,14.958-12.943l.459-7.388a10.738,10.738,0,0,0-10.563-10.908h0A3.694,3.694,0,0,0,167.248,1281.4Z"/><path class="cls-11" d="M167.009,1278l-7.475-.049a10.323,10.323,0,0,0-10.392,10.24h0v.519l.319,7.392a13.725,13.725,0,0,0,13.6,13.111h0a13.729,13.729,0,0,0,13.763-12.94l.41-7.388A10.32,10.32,0,0,0,167.517,1278Z"/><path class="cls-22" d="M149.044,1287.205l.58,8.908a13.729,13.729,0,0,0,13.608,13.115h0a13.725,13.725,0,0,0,13.759-12.94l.687-8.9"/></g><path class="cls-5" d="M270.26,1453.11h88.356a0,0,0,0,1,0,0v45.29a0,0,0,0,1,0,0H269.443a1.884,1.884,0,0,1-1.884-1.884v-40.7A2.7,2.7,0,0,1,270.26,1453.11Z"/><path class="cls-6" d="M270.26,1450.247h88.356a0,0,0,0,1,0,0v45.29a0,0,0,0,1,0,0H269.443a1.884,1.884,0,0,1-1.884-1.884v-40.7A2.7,2.7,0,0,1,270.26,1450.247Z"/><path class="cls-13" d="M270.26,1447.3h88.356a0,0,0,0,1,0,0v45.29a0,0,0,0,1,0,0H269.443a1.884,1.884,0,0,1-1.884-1.884V1450A2.7,2.7,0,0,1,270.26,1447.3Z"/><path class="cls-5" d="M361.106,1341.7h18.719a2.49,2.49,0,0,1,2.49,2.49v180.37a1.629,1.629,0,0,1-1.629,1.629H360.245a1.629,1.629,0,0,1-1.629-1.629V1344.19A2.49,2.49,0,0,1,361.106,1341.7Z"/><path class="cls-6" d="M361.106,1339.658h18.719a2.49,2.49,0,0,1,2.49,2.49v180.37a1.629,1.629,0,0,1-1.629,1.629H360.245a1.629,1.629,0,0,1-1.629-1.629v-180.37A2.49,2.49,0,0,1,361.106,1339.658Z"/><path class="cls-7" d="M361.106,1337.6h18.719a2.49,2.49,0,0,1,2.49,2.49v180.37a1.629,1.629,0,0,1-1.629,1.629H360.245a1.629,1.629,0,0,1-1.629-1.629v-180.37A2.49,2.49,0,0,1,361.106,1337.6Z"/><path class="cls-9" d="M308.92,1442.928a10.474,10.474,0,0,1-10.032-10.858l.281-7.484a13.9,13.9,0,0,1,13.709-13.363h0a13.9,13.9,0,0,1,14.02,13.029l.457,7.492a4.023,4.023,0,0,1,0,.515v.038h0a10.455,10.455,0,0,1-10.362,10.547h-.012l-7.569.088Z"/><path class="cls-10" d="M309.42,1441.772h-.5a10.454,10.454,0,0,1-10.059-10.835h0l.281-7.492a13.875,13.875,0,0,1,13.7-13.36h0a13.906,13.906,0,0,1,14.024,13.033l.457,7.477a2.855,2.855,0,0,1,0,.523h0a10.474,10.474,0,0,1-10.374,10.566l-7.573.088Z"/><path class="cls-11" d="M309.039,1440.289a10.46,10.46,0,0,1-10.032-10.847l.277-7.492A13.9,13.9,0,0,1,313,1408.591h0a13.877,13.877,0,0,1,14.016,13.029l.461,7.48a3.139,3.139,0,0,1,0,.531h0a10.467,10.467,0,0,1-10.369,10.562h0l-7.573.088Z"/><path class="cls-21" d="M298.573,1430.968l.531-9.026a13.9,13.9,0,0,1,13.705-13.363h0a13.906,13.906,0,0,1,14.024,13.037l.768,9.006"/><path class="cls-5" d="M112.3,1580.516h83.972a4.384,4.384,0,0,1,4.384,4.384v40.906a0,0,0,0,1,0,0H111.487a1.884,1.884,0,0,1-1.884-1.884v-40.7A2.7,2.7,0,0,1,112.3,1580.516Z"/><path class="cls-6" d="M112.3,1577.654h83.972a4.384,4.384,0,0,1,4.384,4.384v40.906a0,0,0,0,1,0,0H111.487a1.884,1.884,0,0,1-1.884-1.884v-40.7A2.7,2.7,0,0,1,112.3,1577.654Z"/><path class="cls-13" d="M109.6,1618.11a1.884,1.884,0,0,0,1.884,1.884H200.66v-40.906a4.384,4.384,0,0,0-4.384-4.384H108.6l1,43.406"/><path class="cls-9" d="M150.964,1570.335a10.474,10.474,0,0,1-10.032-10.858l.281-7.485a13.9,13.9,0,0,1,13.708-13.363h0a13.9,13.9,0,0,1,14.021,13.029l.457,7.492a4.023,4.023,0,0,1,0,.515v.039h0a10.455,10.455,0,0,1-10.362,10.546h-.012l-7.569.089Z"/><path class="cls-10" d="M151.464,1569.178h-.5a10.454,10.454,0,0,1-10.059-10.834h0l.281-7.493a13.874,13.874,0,0,1,13.705-13.359h0a13.906,13.906,0,0,1,14.024,13.033l.457,7.477a2.844,2.844,0,0,1,0,.522h0A10.474,10.474,0,0,1,159,1569.09l-7.573.088Z"/><path class="cls-11" d="M151.083,1567.7a10.459,10.459,0,0,1-10.032-10.846l.277-7.492A13.906,13.906,0,0,1,155.041,1536h0a13.878,13.878,0,0,1,14.016,13.029l.461,7.481a3.127,3.127,0,0,1,0,.53h0a10.466,10.466,0,0,1-10.369,10.562h0l-7.573.089Z"/><path class="cls-21" d="M140.617,1558.374l.53-9.025a13.9,13.9,0,0,1,13.706-13.363h0a13.905,13.905,0,0,1,14.024,13.036l.768,9.006"/><rect class="cls-7" x="87.338" y="1522.085" width="21.796" height="98.577"/><g id="Layer_17" data-name="Layer 17"><path class="cls-5" d="M721.228,1237.742H593.189a3.587,3.587,0,0,1-3.587-3.587v-146.8a3.587,3.587,0,0,1,3.587-3.587H724.815v150.39A3.587,3.587,0,0,1,721.228,1237.742Z"/><path class="cls-6" d="M721.175,1232.989H593.137a3.587,3.587,0,0,1-3.587-3.587V1082.6a3.587,3.587,0,0,1,3.587-3.587H724.762V1229.4A3.587,3.587,0,0,1,721.175,1232.989Z"/><path class="cls-7" d="M721.175,1229.318H593.137a3.587,3.587,0,0,1-3.587-3.587v-146.8a3.587,3.587,0,0,1,3.587-3.587H724.762v150.39A3.587,3.587,0,0,1,721.175,1229.318Z"/><path class="cls-13" d="M683.45,1000.384h37.777a3.587,3.587,0,0,1,3.587,3.587v71.37a0,0,0,0,1,0,0H679.864a0,0,0,0,1,0,0v-71.37A3.587,3.587,0,0,1,683.45,1000.384Z"/><line class="cls-15" x1="634.448" y1="1074.009" x2="634.448" y2="1228.236"/><polyline class="cls-15" points="679.864 1228.236 679.864 1075.009 724.815 1075.009"/><line class="cls-15" x1="634.448" y1="1189.525" x2="679.864" y2="1189.525"/><path class="cls-9" d="M729.434,1043.254l.113-7.695a10.634,10.634,0,0,1,10.8-10.457h.524l7.608.486a14.089,14.089,0,0,1,13.189,14.282h0a14.1,14.1,0,0,1-13.607,13.9l-7.616.264a10.627,10.627,0,0,1-11-10.242h0C729.437,1043.608,729.434,1043.45,729.434,1043.254Z"/><path class="cls-10" d="M728.872,1042.511l.109-7.7a10.639,10.639,0,0,1,10.8-10.476h.52l7.6.49a14.123,14.123,0,0,1,13.212,14.285h0a14.112,14.112,0,0,1-13.622,13.9l-7.612.268a10.65,10.65,0,0,1-11-10.254C728.872,1042.858,728.876,1042.7,728.872,1042.511Z"/><path class="cls-11" d="M726.476,1039.983l.113-7.7a10.638,10.638,0,0,1,10.785-10.48h.531l7.6.486a14.11,14.11,0,0,1,13.212,14.29h0a14.12,14.12,0,0,1-13.622,13.9l-7.612.263a10.633,10.633,0,0,1-11-10.253C726.476,1040.333,726.472,1040.152,726.476,1039.983Z"/><path class="cls-12" d="M736.334,1021.684l9.164.776a14.112,14.112,0,0,1,13.189,14.286h0a14.1,14.1,0,0,1-13.618,13.9l-9.2.487"/></g><g id="details-2-5" data-name="details-2"><path class="cls-5" d="M1251.679,1876.8l-.648-176.943a6.629,6.629,0,0,1,6.587-6.663h.056l78.555-.033a6.613,6.613,0,0,1,6.663,6.564h0l-.023.068.652,176.943a6.632,6.632,0,0,1-6.606,6.651h-.038l-78.555.083a6.625,6.625,0,0,1-6.666-6.572h0Z"/><path class="cls-6" d="M1251.679,1873.318l-.648-176.939a6.632,6.632,0,0,1,6.609-6.655h.034l78.555-.034a6.633,6.633,0,0,1,6.651,6.614h0v.03h0l.652,176.932a6.625,6.625,0,0,1-6.59,6.658h-.057l-78.555.038a6.636,6.636,0,0,1-6.651-6.613h0Z"/></g><path class="cls-7" d="M1296.153,1876.314l39.967-.026a6.625,6.625,0,0,0,6.636-6.614h0v-.026l-.036-180.372a5.252,5.252,0,0,0-5.258-5.25l-41.366.051Z"/><path class="cls-7" d="M1296.1,1684.069l-39.931.02a5.251,5.251,0,0,0-5.249,5.254l.035,180.377a6.63,6.63,0,0,0,6.614,6.636h38.58Z"/><line class="cls-8" x1="1296.224" y1="1684.477" x2="1296.153" y2="1876.307"/><g id="chairs-2-4" data-name="chairs-2"><path class="cls-9" d="M1348.492,1736.422l.113-7.695a10.634,10.634,0,0,1,10.8-10.457h.524l7.609.486a14.09,14.09,0,0,1,13.189,14.282h0a14.1,14.1,0,0,1-13.608,13.9l-7.615.263a10.625,10.625,0,0,1-11-10.242h0C1348.5,1736.776,1348.492,1736.618,1348.492,1736.422Z"/><path class="cls-10" d="M1347.931,1735.68l.109-7.7a10.638,10.638,0,0,1,10.8-10.476h.52l7.605.49a14.124,14.124,0,0,1,13.212,14.286h0a14.112,14.112,0,0,1-13.623,13.9l-7.612.268a10.649,10.649,0,0,1-11-10.254C1347.931,1736.027,1347.935,1735.864,1347.931,1735.68Z"/><path class="cls-11" d="M1345.534,1733.151l.113-7.7a10.638,10.638,0,0,1,10.785-10.48h.532l7.6.486a14.108,14.108,0,0,1,13.212,14.289h0a14.12,14.12,0,0,1-13.623,13.9l-7.612.264a10.634,10.634,0,0,1-11-10.254C1345.534,1733.5,1345.53,1733.321,1345.534,1733.151Z"/><path class="cls-12" d="M1355.392,1714.852l9.165.776a14.113,14.113,0,0,1,13.189,14.286h0a14.1,14.1,0,0,1-13.619,13.9l-9.2.486"/><path class="cls-9" d="M1245.536,1738.635h0a10.631,10.631,0,0,1-11,10.25l-7.619-.264a14.106,14.106,0,0,1-13.608-13.9h0a14.09,14.09,0,0,1,13.19-14.282l7.6-.49h.524a10.631,10.631,0,0,1,10.8,10.458h0l.113,7.695C1245.54,1738.284,1245.536,1738.458,1245.536,1738.635Z"/><path class="cls-10" d="M1246.09,1737.877a10.645,10.645,0,0,1-11,10.254l-7.612-.268a14.119,14.119,0,0,1-13.622-13.9h0a14.13,14.13,0,0,1,13.212-14.286l7.6-.49h.524a10.637,10.637,0,0,1,10.8,10.476l.106,7.7C1246.1,1737.531,1246.1,1737.711,1246.09,1737.877Z"/><path class="cls-11" d="M1248.491,1735.337a10.639,10.639,0,0,1-11,10.258l-7.612-.264a14.123,14.123,0,0,1-13.622-13.9h0a14.107,14.107,0,0,1,13.211-14.289l7.605-.486h.528a10.629,10.629,0,0,1,10.788,10.468h0l.113,7.7A2.5,2.5,0,0,1,1248.491,1735.337Z"/><path class="cls-12" d="M1239.1,1745.983l-9.2-.486a14.113,14.113,0,0,1-13.619-13.9h0a14.115,14.115,0,0,1,13.189-14.289l9.165-.777"/></g><g id="chairs-2-5" data-name="chairs-2"><path class="cls-9" d="M1348.432,1831.968l.113-7.7a10.634,10.634,0,0,1,10.8-10.457h.524l7.608.486a14.089,14.089,0,0,1,13.189,14.282h0a14.1,14.1,0,0,1-13.607,13.9l-7.616.264a10.627,10.627,0,0,1-11-10.242h0C1348.436,1832.322,1348.432,1832.164,1348.432,1831.968Z"/><path class="cls-10" d="M1347.87,1831.225l.11-7.7a10.637,10.637,0,0,1,10.8-10.476h.52l7.6.49a14.123,14.123,0,0,1,13.212,14.285h0a14.112,14.112,0,0,1-13.622,13.9l-7.612.268a10.65,10.65,0,0,1-11-10.254C1347.87,1831.572,1347.874,1831.41,1347.87,1831.225Z"/><path class="cls-11" d="M1345.474,1828.7l.113-7.7a10.639,10.639,0,0,1,10.785-10.48h.531l7.605.486a14.109,14.109,0,0,1,13.211,14.29h0a14.119,14.119,0,0,1-13.622,13.9l-7.612.263a10.634,10.634,0,0,1-11-10.253C1345.474,1829.047,1345.47,1828.866,1345.474,1828.7Z"/><path class="cls-12" d="M1355.332,1810.4l9.164.776a14.113,14.113,0,0,1,13.19,14.286h0a14.1,14.1,0,0,1-13.619,13.9l-9.2.487"/><path class="cls-9" d="M1245.476,1834.18h0a10.63,10.63,0,0,1-11,10.25l-7.62-.264a14.1,14.1,0,0,1-13.607-13.9h0a14.089,14.089,0,0,1,13.189-14.282l7.605-.49h.523a10.63,10.63,0,0,1,10.8,10.457h0l.113,7.695C1245.48,1833.83,1245.476,1834,1245.476,1834.18Z"/><path class="cls-10" d="M1246.03,1833.423a10.645,10.645,0,0,1-11,10.253l-7.612-.267a14.12,14.12,0,0,1-13.623-13.9h0a14.133,14.133,0,0,1,13.212-14.286l7.605-.489h.524a10.637,10.637,0,0,1,10.8,10.476l.105,7.7C1246.037,1833.076,1246.041,1833.257,1246.03,1833.423Z"/><path class="cls-11" d="M1248.43,1830.883a10.636,10.636,0,0,1-11,10.257l-7.612-.263a14.125,14.125,0,0,1-13.623-13.9h0a14.109,14.109,0,0,1,13.212-14.29l7.605-.486h.527a10.631,10.631,0,0,1,10.789,10.469h0l.113,7.7A2.513,2.513,0,0,1,1248.43,1830.883Z"/><path class="cls-12" d="M1239.043,1841.528l-9.2-.486a14.112,14.112,0,0,1-13.619-13.9h0a14.117,14.117,0,0,1,13.189-14.29l9.165-.776"/></g><line class="cls-8" x1="1342.738" y1="1780.392" x2="1251.325" y2="1780.392"/><g id="details-2-6" data-name="details-2"><path class="cls-5" d="M1532.411,1877.88l-.648-176.943a6.629,6.629,0,0,1,6.587-6.663h.057l78.555-.034a6.614,6.614,0,0,1,6.662,6.564h0l-.023.068.652,176.943a6.632,6.632,0,0,1-6.606,6.651h-.037l-78.555.083a6.624,6.624,0,0,1-6.666-6.572h0Z"/><path class="cls-6" d="M1532.411,1874.394l-.648-176.939a6.633,6.633,0,0,1,6.61-6.655h.034l78.555-.034a6.632,6.632,0,0,1,6.651,6.613h0v.031h0l.652,176.931a6.626,6.626,0,0,1-6.591,6.659h-.057l-78.555.038a6.637,6.637,0,0,1-6.651-6.614h0Z"/></g><path class="cls-7" d="M1576.885,1877.39l39.967-.026a6.625,6.625,0,0,0,6.636-6.614h0v-.026l-.035-180.372a5.252,5.252,0,0,0-5.258-5.25l-41.366.05Z"/><path class="cls-7" d="M1576.836,1685.145l-39.931.02a5.252,5.252,0,0,0-5.249,5.254l.036,180.376a6.627,6.627,0,0,0,6.613,6.636h38.58Z"/><line class="cls-8" x1="1576.957" y1="1685.553" x2="1576.885" y2="1877.382"/><g id="chairs-2-6" data-name="chairs-2"><path class="cls-9" d="M1629.225,1737.5l.113-7.695a10.634,10.634,0,0,1,10.8-10.457h.524l7.608.486a14.089,14.089,0,0,1,13.189,14.282h0a14.1,14.1,0,0,1-13.607,13.9l-7.616.264a10.627,10.627,0,0,1-11-10.242h0C1629.228,1737.852,1629.225,1737.694,1629.225,1737.5Z"/><path class="cls-10" d="M1628.663,1736.756l.109-7.7a10.639,10.639,0,0,1,10.8-10.476h.52l7.6.49a14.124,14.124,0,0,1,13.212,14.286h0a14.112,14.112,0,0,1-13.622,13.9l-7.612.268a10.648,10.648,0,0,1-11-10.254C1628.663,1737.1,1628.667,1736.94,1628.663,1736.756Z"/><path class="cls-11" d="M1626.267,1734.227l.113-7.7a10.637,10.637,0,0,1,10.785-10.479h.531l7.6.486a14.108,14.108,0,0,1,13.212,14.289h0a14.12,14.12,0,0,1-13.622,13.9l-7.612.264a10.635,10.635,0,0,1-11-10.254C1626.267,1734.578,1626.263,1734.4,1626.267,1734.227Z"/><path class="cls-12" d="M1636.125,1715.928l9.164.776a14.112,14.112,0,0,1,13.189,14.286h0a14.1,14.1,0,0,1-13.618,13.9l-9.2.486"/><path class="cls-9" d="M1526.269,1739.71h0a10.631,10.631,0,0,1-11,10.25l-7.62-.263a14.105,14.105,0,0,1-13.607-13.9h0a14.089,14.089,0,0,1,13.189-14.282l7.6-.49h.524a10.63,10.63,0,0,1,10.8,10.457h0l.113,7.695C1526.273,1739.36,1526.269,1739.533,1526.269,1739.71Z"/><path class="cls-10" d="M1526.823,1738.953a10.646,10.646,0,0,1-11,10.254l-7.612-.268a14.12,14.12,0,0,1-13.623-13.9h0a14.131,14.131,0,0,1,13.212-14.285l7.605-.49h.523a10.639,10.639,0,0,1,10.8,10.476l.105,7.7C1526.83,1738.606,1526.834,1738.787,1526.823,1738.953Z"/><path class="cls-11" d="M1529.223,1736.413a10.638,10.638,0,0,1-11,10.258l-7.612-.264a14.124,14.124,0,0,1-13.623-13.9h0a14.108,14.108,0,0,1,13.212-14.289l7.6-.487h.528a10.631,10.631,0,0,1,10.789,10.469h0l.113,7.7A2.577,2.577,0,0,1,1529.223,1736.413Z"/><path class="cls-12" d="M1519.836,1747.059l-9.2-.486a14.113,14.113,0,0,1-13.619-13.9h0a14.117,14.117,0,0,1,13.189-14.29l9.165-.776"/></g><g id="chairs-2-7" data-name="chairs-2"><path class="cls-9" d="M1629.164,1833.044l.113-7.7a10.635,10.635,0,0,1,10.8-10.458h.524l7.609.487a14.09,14.09,0,0,1,13.189,14.282h0a14.1,14.1,0,0,1-13.608,13.9l-7.616.264a10.628,10.628,0,0,1-11-10.243h0C1629.168,1833.4,1629.164,1833.239,1629.164,1833.044Z"/><path class="cls-10" d="M1628.6,1832.3l.109-7.7a10.638,10.638,0,0,1,10.8-10.476h.52l7.605.49a14.124,14.124,0,0,1,13.212,14.286h0a14.113,14.113,0,0,1-13.623,13.9l-7.612.267a10.649,10.649,0,0,1-11-10.253C1628.6,1832.648,1628.606,1832.486,1628.6,1832.3Z"/><path class="cls-11" d="M1626.206,1829.773l.113-7.7a10.638,10.638,0,0,1,10.785-10.48h.531l7.605.486a14.11,14.11,0,0,1,13.212,14.29h0a14.12,14.12,0,0,1-13.623,13.9l-7.612.264a10.634,10.634,0,0,1-11-10.253C1626.206,1830.123,1626.2,1829.942,1626.206,1829.773Z"/><path class="cls-12" d="M1636.064,1811.474l9.165.776a14.113,14.113,0,0,1,13.189,14.286h0a14.1,14.1,0,0,1-13.619,13.9l-9.2.486"/><path class="cls-9" d="M1526.208,1835.256h0a10.63,10.63,0,0,1-11,10.25l-7.619-.264a14.105,14.105,0,0,1-13.608-13.9h0a14.09,14.09,0,0,1,13.189-14.282l7.605-.49h.524a10.63,10.63,0,0,1,10.8,10.457h0l.113,7.695C1526.212,1834.905,1526.208,1835.079,1526.208,1835.256Z"/><path class="cls-10" d="M1526.762,1834.5a10.646,10.646,0,0,1-11,10.254l-7.612-.267a14.12,14.12,0,0,1-13.622-13.9h0a14.131,14.131,0,0,1,13.212-14.286l7.6-.49h.524a10.638,10.638,0,0,1,10.8,10.476l.106,7.7C1526.77,1834.152,1526.774,1834.333,1526.762,1834.5Z"/><path class="cls-11" d="M1529.163,1831.959a10.638,10.638,0,0,1-11,10.257l-7.612-.264a14.122,14.122,0,0,1-13.622-13.9h0a14.108,14.108,0,0,1,13.211-14.29l7.605-.486h.527a10.631,10.631,0,0,1,10.789,10.468h0l.113,7.7A2.587,2.587,0,0,1,1529.163,1831.959Z"/><path class="cls-12" d="M1519.776,1842.6l-9.2-.486a14.112,14.112,0,0,1-13.618-13.9h0a14.116,14.116,0,0,1,13.189-14.289l9.164-.776"/></g><line class="cls-8" x1="1623.471" y1="1781.467" x2="1532.057" y2="1781.467"/><g id="details-2-7" data-name="details-2"><path class="cls-5" d="M1601.729,2072.664l-.648-76.943a6.628,6.628,0,0,1,6.587-6.662h.057l78.555-.034a6.614,6.614,0,0,1,6.662,6.564h0l-.023.068.652,76.943a6.632,6.632,0,0,1-6.606,6.651h-.037l-78.555.083a6.624,6.624,0,0,1-6.666-6.572h0Z"/><path class="cls-6" d="M1601.729,2069.179l-.648-76.94a6.632,6.632,0,0,1,6.61-6.654h.034l78.555-.034a6.632,6.632,0,0,1,6.651,6.613h0v.03h0l.652,76.932a6.626,6.626,0,0,1-6.591,6.659h-.057l-78.555.037a6.636,6.636,0,0,1-6.651-6.613h0Z"/></g><path class="cls-7" d="M1646.2,2072.175l39.967-.027a6.625,6.625,0,0,0,6.636-6.613h0v-.027l-.035-80.372a5.251,5.251,0,0,0-5.258-5.249l-41.367.05Z"/><path class="cls-7" d="M1646.154,1979.929l-39.931.02a5.253,5.253,0,0,0-5.249,5.255l.036,80.376a6.627,6.627,0,0,0,6.613,6.636h38.58Z"/><line class="cls-8" x1="1646.275" y1="1980.337" x2="1646.203" y2="2072.167"/><path class="cls-9" d="M1730.777,2028.9a14.1,14.1,0,0,1-13.607,13.9l-7.616.264a10.627,10.627,0,0,1-11-10.242h0c-.012-.185-.015-.343-.015-.539l.113-7.695a10.634,10.634,0,0,1,10.8-10.457h.524l7.608.486a14.089,14.089,0,0,1,13.189,14.282"/><path class="cls-10" d="M1697.981,2031.54l.109-7.7a10.639,10.639,0,0,1,10.8-10.476h.52l7.6.489a14.124,14.124,0,0,1,13.212,14.286h0a14.112,14.112,0,0,1-13.622,13.9l-7.612.267a10.648,10.648,0,0,1-11-10.253C1697.981,2031.887,1697.985,2031.725,1697.981,2031.54Z"/><path class="cls-11" d="M1695.585,2029.012l.113-7.7a10.638,10.638,0,0,1,10.785-10.48h.531l7.6.486a14.11,14.11,0,0,1,13.212,14.29h0a14.12,14.12,0,0,1-13.622,13.9l-7.612.263a10.634,10.634,0,0,1-11-10.253C1695.585,2029.362,1695.581,2029.181,1695.585,2029.012Z"/><path class="cls-12" d="M1705.443,2010.713l9.164.776a14.112,14.112,0,0,1,13.189,14.286h0a14.1,14.1,0,0,1-13.618,13.9l-9.2.487"/><path class="cls-9" d="M1595.587,2034.5h0a10.631,10.631,0,0,1-11,10.25l-7.62-.264a14.1,14.1,0,0,1-13.607-13.9h0a14.089,14.089,0,0,1,13.189-14.282l7.6-.49h.524a10.63,10.63,0,0,1,10.8,10.457h0l.113,7.695C1595.591,2034.145,1595.587,2034.318,1595.587,2034.5Z"/><path class="cls-10" d="M1596.141,2033.738a10.645,10.645,0,0,1-11,10.253l-7.612-.267a14.12,14.12,0,0,1-13.623-13.9h0a14.133,14.133,0,0,1,13.212-14.286l7.605-.49h.523a10.639,10.639,0,0,1,10.8,10.476l.105,7.7C1596.148,2033.391,1596.152,2033.572,1596.141,2033.738Z"/><path class="cls-11" d="M1598.541,2031.2a10.637,10.637,0,0,1-11,10.257l-7.612-.264a14.123,14.123,0,0,1-13.623-13.9h0a14.109,14.109,0,0,1,13.212-14.29l7.6-.486h.528a10.631,10.631,0,0,1,10.789,10.469h0l.113,7.7A2.586,2.586,0,0,1,1598.541,2031.2Z"/><path class="cls-12" d="M1589.154,2041.843l-9.2-.486a14.113,14.113,0,0,1-13.619-13.9h0a14.117,14.117,0,0,1,13.189-14.29l9.165-.776"/><g id="details-2-8" data-name="details-2"><path class="cls-5" d="M1604.669,2203.194l-.648-76.943a6.627,6.627,0,0,1,6.587-6.662h.056l78.555-.034a6.612,6.612,0,0,1,6.662,6.564h0l-.022.068.652,76.943a6.632,6.632,0,0,1-6.606,6.651h-.038l-78.555.083a6.625,6.625,0,0,1-6.666-6.572h0Z"/><path class="cls-6" d="M1604.669,2199.708l-.648-76.939a6.632,6.632,0,0,1,6.609-6.655h.034l78.555-.034a6.633,6.633,0,0,1,6.651,6.614h0v.03h0l.652,76.932a6.625,6.625,0,0,1-6.591,6.658h-.056l-78.555.038a6.636,6.636,0,0,1-6.651-6.614h0Z"/></g><path class="cls-7" d="M1649.143,2202.7l39.967-.026a6.626,6.626,0,0,0,6.636-6.614h0v-.026l-.036-80.372a5.252,5.252,0,0,0-5.258-5.25l-41.366.051Z"/><path class="cls-7" d="M1649.094,2110.459l-39.931.02a5.251,5.251,0,0,0-5.249,5.254l.035,80.377a6.63,6.63,0,0,0,6.613,6.636h38.581Z"/><line class="cls-8" x1="1649.214" y1="2110.867" x2="1649.143" y2="2202.697"/><path class="cls-9" d="M1733.717,2159.428a14.1,14.1,0,0,1-13.608,13.9l-7.616.264a10.628,10.628,0,0,1-11-10.243h0c-.011-.184-.015-.343-.015-.539l.113-7.695a10.634,10.634,0,0,1,10.8-10.457h.524l7.608.486a14.09,14.09,0,0,1,13.19,14.282"/><path class="cls-10" d="M1700.921,2162.07l.109-7.7a10.638,10.638,0,0,1,10.8-10.476h.52l7.605.49a14.124,14.124,0,0,1,13.212,14.286h0a14.113,14.113,0,0,1-13.623,13.9l-7.612.267a10.649,10.649,0,0,1-11-10.254C1700.921,2162.417,1700.924,2162.255,1700.921,2162.07Z"/><path class="cls-11" d="M1698.524,2159.541l.113-7.7a10.638,10.638,0,0,1,10.785-10.48h.531l7.605.486a14.11,14.11,0,0,1,13.212,14.29h0a14.12,14.12,0,0,1-13.623,13.9l-7.612.264a10.635,10.635,0,0,1-11-10.254C1698.524,2159.892,1698.52,2159.711,1698.524,2159.541Z"/><path class="cls-12" d="M1708.382,2141.242l9.165.777a14.112,14.112,0,0,1,13.189,14.285h0a14.1,14.1,0,0,1-13.619,13.9l-9.2.486"/><path class="cls-9" d="M1598.526,2165.025h0a10.631,10.631,0,0,1-11,10.25l-7.619-.264a14.106,14.106,0,0,1-13.608-13.9h0a14.09,14.09,0,0,1,13.189-14.282l7.605-.49h.524a10.631,10.631,0,0,1,10.8,10.458h0l.113,7.695C1598.53,2164.674,1598.526,2164.848,1598.526,2165.025Z"/><path class="cls-10" d="M1599.08,2164.267a10.646,10.646,0,0,1-11,10.254l-7.612-.268a14.119,14.119,0,0,1-13.622-13.9h0a14.131,14.131,0,0,1,13.212-14.286l7.6-.49h.524a10.638,10.638,0,0,1,10.8,10.476l.106,7.7C1599.088,2163.921,1599.091,2164.1,1599.08,2164.267Z"/><path class="cls-11" d="M1601.481,2161.727a10.639,10.639,0,0,1-11,10.258l-7.612-.264a14.125,14.125,0,0,1-13.623-13.9h0a14.109,14.109,0,0,1,13.212-14.289l7.605-.486h.527a10.63,10.63,0,0,1,10.789,10.468h0l.113,7.7A2.576,2.576,0,0,1,1601.481,2161.727Z"/><path class="cls-12" d="M1592.094,2172.373l-9.2-.486a14.112,14.112,0,0,1-13.618-13.9h0a14.115,14.115,0,0,1,13.189-14.289l9.164-.777"/><g id="details-2-9" data-name="details-2"><path class="cls-5" d="M1248.427,2071.654l-.688-76.943a6.835,6.835,0,0,1,6.99-6.663h.06l30.3-.034a6.832,6.832,0,0,1,7.07,6.564h0l-.024.068.692,76.943a6.841,6.841,0,0,1-7.01,6.651h-.04l-30.3.083a6.843,6.843,0,0,1-7.074-6.572h0Z"/><path class="cls-6" d="M1248.427,2068.168l-.688-76.939a6.841,6.841,0,0,1,7.014-6.655h.036l30.3-.034a6.846,6.846,0,0,1,7.058,6.613h0v.03h0l.692,76.932a6.831,6.831,0,0,1-6.994,6.659h-.06l-30.3.038a6.851,6.851,0,0,1-7.058-6.614h0Z"/></g><path class="cls-7" d="M1287.349,1978.921l-34.468.018a5.251,5.251,0,0,0-5.249,5.254l.035,80.376a6.629,6.629,0,0,0,6.614,6.636H1287.4a5.463,5.463,0,0,0,5.463-5.466l-.043-81.357A5.465,5.465,0,0,0,1287.349,1978.921Z"/><path class="cls-9" d="M1242.245,2033.484h0a10.631,10.631,0,0,1-11,10.25l-7.62-.264a14.1,14.1,0,0,1-13.607-13.9h0a14.089,14.089,0,0,1,13.189-14.282l7.6-.49h.524a10.63,10.63,0,0,1,10.8,10.457h0l.113,7.7C1242.248,2033.134,1242.245,2033.307,1242.245,2033.484Z"/><path class="cls-10" d="M1242.8,2032.727a10.646,10.646,0,0,1-11,10.254l-7.612-.268a14.12,14.12,0,0,1-13.623-13.9h0a14.131,14.131,0,0,1,13.212-14.285l7.6-.49h.524a10.639,10.639,0,0,1,10.8,10.476l.105,7.7C1242.806,2032.38,1242.81,2032.561,1242.8,2032.727Z"/><path class="cls-11" d="M1245.2,2030.187a10.638,10.638,0,0,1-11,10.257l-7.612-.263a14.124,14.124,0,0,1-13.622-13.9h0a14.11,14.11,0,0,1,13.212-14.29l7.6-.486h.528a10.631,10.631,0,0,1,10.789,10.469h0l.113,7.7A2.577,2.577,0,0,1,1245.2,2030.187Z"/><path class="cls-12" d="M1235.812,2040.833l-9.2-.487a14.112,14.112,0,0,1-13.619-13.9h0a14.117,14.117,0,0,1,13.189-14.29l9.165-.776"/><g id="details-2-10" data-name="details-2"><path class="cls-5" d="M1248.427,2199.682l-.688-76.943a6.835,6.835,0,0,1,6.99-6.663h.06l30.3-.034a6.832,6.832,0,0,1,7.07,6.565h0l-.024.068.692,76.943a6.841,6.841,0,0,1-7.01,6.651h-.04l-30.3.083a6.843,6.843,0,0,1-7.074-6.572h0Z"/><path class="cls-6" d="M1248.427,2196.2l-.688-76.939a6.841,6.841,0,0,1,7.014-6.655h.036l30.3-.034a6.847,6.847,0,0,1,7.058,6.613h0v.031h0l.692,76.931a6.831,6.831,0,0,1-6.994,6.659h-.06l-30.3.038a6.851,6.851,0,0,1-7.058-6.614h0Z"/></g><path class="cls-7" d="M1287.349,2106.95l-34.468.017a5.252,5.252,0,0,0-5.249,5.254l.035,80.376a6.629,6.629,0,0,0,6.614,6.636H1287.4a5.463,5.463,0,0,0,5.463-5.466l-.043-81.357A5.463,5.463,0,0,0,1287.349,2106.95Z"/><path class="cls-9" d="M1242.245,2161.512h0a10.631,10.631,0,0,1-11,10.25l-7.62-.263a14.1,14.1,0,0,1-13.607-13.9h0a14.089,14.089,0,0,1,13.189-14.282l7.6-.49h.524a10.631,10.631,0,0,1,10.8,10.457h0l.113,7.695C1242.248,2161.162,1242.245,2161.335,1242.245,2161.512Z"/><path class="cls-10" d="M1242.8,2160.755a10.646,10.646,0,0,1-11,10.254l-7.612-.268a14.12,14.12,0,0,1-13.623-13.9h0a14.131,14.131,0,0,1,13.212-14.286l7.6-.49h.524a10.639,10.639,0,0,1,10.8,10.476l.105,7.7C1242.806,2160.408,1242.81,2160.589,1242.8,2160.755Z"/><path class="cls-11" d="M1245.2,2158.215a10.639,10.639,0,0,1-11,10.258l-7.612-.264a14.124,14.124,0,0,1-13.622-13.9h0a14.108,14.108,0,0,1,13.212-14.289l7.6-.487h.528A10.631,10.631,0,0,1,1245.094,2150h0l.113,7.7A2.577,2.577,0,0,1,1245.2,2158.215Z"/><path class="cls-12" d="M1235.812,2168.861l-9.2-.486a14.113,14.113,0,0,1-13.619-13.9h0a14.117,14.117,0,0,1,13.189-14.29l9.165-.776"/><g id="meeting_area" data-name="meeting area"><rect class="cls-23" x="508.026" y="1365.865" width="246.883" height="129.586"/><circle class="cls-5" cx="708.684" cy="1401.184" r="27.727"/><circle class="cls-24" cx="708.684" cy="1398.592" r="27.727"/><circle class="cls-25" cx="708.684" cy="1396.003" r="27.727"/><circle class="cls-5" cx="617.921" cy="1407.156" r="16.574"/><circle class="cls-24" cx="617.921" cy="1405.607" r="16.574"/><circle class="cls-26" cx="617.921" cy="1404.059" r="16.574"/><path class="cls-5" d="M730.274,1461.064a2.932,2.932,0,0,1,2.931,2.932v24.576a2.931,2.931,0,0,1-2.931,2.931H628.856a2.932,2.932,0,0,1-2.932-2.931V1464a2.932,2.932,0,0,1,2.932-2.932"/><path class="cls-24" d="M730.274,1459.085a2.931,2.931,0,0,1,2.931,2.931v24.576a2.932,2.932,0,0,1-2.931,2.932H628.856a2.932,2.932,0,0,1-2.932-2.932v-24.576a2.932,2.932,0,0,1,2.932-2.931"/><rect class="cls-27" x="625.924" y="1457.216" width="107.281" height="30.439" rx="2.931"/><rect class="cls-5" x="558.892" y="1461.009" width="48.934" height="30.439" rx="1.98"/><rect class="cls-24" x="558.892" y="1459.03" width="48.934" height="30.439" rx="1.98"/><rect class="cls-28" x="558.892" y="1457.161" width="48.934" height="30.439" rx="1.98"/><rect class="cls-5" x="641.213" y="1381.342" width="17.942" height="27.022" rx="1.13"/><rect class="cls-24" x="641.213" y="1379.584" width="17.942" height="27.022" rx="1.13"/><rect class="cls-26" x="641.213" y="1377.925" width="17.942" height="27.022" rx="1.13"/><rect class="cls-26" x="680.958" y="1440.65" width="17.942" height="27.022" rx="1.13"/></g><path class="cls-5" d="M682.79,1807.537h69.6a1.91,1.91,0,0,0,1.91-1.91v-128.9H647.557a1.91,1.91,0,0,1-1.91-1.91v-11.7a1.91,1.91,0,0,1,1.91-1.91h156.5v181.268H649.774a1.91,1.91,0,0,1-1.91-1.909v-87.647a1.91,1.91,0,0,1,1.91-1.909h28.291a3.218,3.218,0,0,1,3.218,3.243l-.4,51.364A1.91,1.91,0,0,0,682.79,1807.537Z"/><path class="cls-6" d="M682.79,1803.21h69.6a1.91,1.91,0,0,0,1.91-1.909V1672.4H647.557a1.91,1.91,0,0,1-1.91-1.91v-11.7a1.91,1.91,0,0,1,1.91-1.91h156.5v181.269H649.774a1.91,1.91,0,0,1-1.91-1.91v-87.646a1.91,1.91,0,0,1,1.91-1.91h28.291a3.218,3.218,0,0,1,3.218,3.243l-.4,51.364A1.91,1.91,0,0,0,682.79,1803.21Z"/><path class="cls-13" d="M682.79,1797.8h69.6a1.91,1.91,0,0,0,1.91-1.91V1669.587a2.6,2.6,0,0,0-2.6-2.6H647.557a1.91,1.91,0,0,1-1.91-1.909v-11.7a1.91,1.91,0,0,1,1.91-1.909h156.5v181.268H649.774a1.91,1.91,0,0,1-1.91-1.91V1743.18a1.91,1.91,0,0,1,1.91-1.91h28.291a3.218,3.218,0,0,1,3.218,3.243l-.4,51.364A1.91,1.91,0,0,0,682.79,1797.8Z"/><path class="cls-7" d="M649.922,1741.27H680.1a1.308,1.308,0,0,1,1.308,1.308v90.158a0,0,0,0,1,0,0H649.922a2.148,2.148,0,0,1-2.148-2.148v-87.169A2.148,2.148,0,0,1,649.922,1741.27Z"/><line class="cls-15" x1="681.408" y1="1832.736" x2="681.408" y2="1795.877"/><path class="cls-29" d="M660.285,1738.664a5.354,5.354,0,0,1-5.219-5.46l.29-12.2h0c.12-4.8.442-8.617,5.242-8.5l7.7.188h0a8.7,8.7,0,0,1,8.481,8.9l-.29,12.2a5.357,5.357,0,0,1-5.474,5.222l-10.706-.329Z"/><path class="cls-10" d="M660.018,1737.331a5.352,5.352,0,0,1-5.221-5.474l.29-12.2h0a8.694,8.694,0,0,1,8.9-8.484h0l4.034.166h0a8.7,8.7,0,0,1,8.48,8.9l-.29,12.2a5.353,5.353,0,0,1-5.474,5.222h0l-10.709-.328Z"/><path class="cls-11" d="M660.294,1736.534h0a5.349,5.349,0,0,1-5.419-5.276h0l-.147-12.2h0a8.7,8.7,0,0,1,8.589-8.8h0l4.009-.113h0a8.7,8.7,0,0,1,8.8,8.59l.151,12.207,0,.022a5.35,5.35,0,0,1-5.281,5.409h0l-10.714.2Z"/><path class="cls-29" d="M676.28,1719.174a35.186,35.186,0,0,0-21.413-.586h0a8.694,8.694,0,0,1,8.9-8.48l4.018.179h0a8.687,8.687,0,0,1,8.468,8.9"/><path class="cls-30" d="M676.279,1719.166a35.25,35.25,0,0,0-21.414-.589h0a8.679,8.679,0,0,1,8.886-8.467h.006l4.033.169h0a8.683,8.683,0,0,1,8.476,8.886v.008h0"/><path class="cls-29" d="M527.856,1784.138a5.353,5.353,0,0,1-5.219-5.459l.29-12.205h0c.12-4.8.442-8.617,5.242-8.5l7.7.189h0a8.7,8.7,0,0,1,8.48,8.9l-.29,12.2a5.356,5.356,0,0,1-5.474,5.221l-10.706-.328Z"/><path class="cls-10" d="M527.589,1782.806a5.353,5.353,0,0,1-5.221-5.474l.29-12.2h0a8.693,8.693,0,0,1,8.9-8.483h0l4.033.165h0a8.7,8.7,0,0,1,8.48,8.9l-.29,12.2a5.352,5.352,0,0,1-5.474,5.221h0l-10.709-.327Z"/><path class="cls-11" d="M527.865,1782.009h0a5.349,5.349,0,0,1-5.419-5.276h0l-.146-12.2h0a8.694,8.694,0,0,1,8.588-8.8h0l4.01-.114h0a8.7,8.7,0,0,1,8.8,8.591l.151,12.207,0,.021a5.349,5.349,0,0,1-5.281,5.409h0l-10.714.2Z"/><path class="cls-29" d="M543.852,1764.648a35.2,35.2,0,0,0-21.414-.586h0a8.7,8.7,0,0,1,8.9-8.48l4.017.18h0a8.687,8.687,0,0,1,8.468,8.9"/><path class="cls-30" d="M543.85,1764.641a35.257,35.257,0,0,0-21.414-.59h0a8.679,8.679,0,0,1,8.886-8.467h.006l4.034.169h0a8.684,8.684,0,0,1,8.475,8.886v.008h0"/><path class="cls-29" d="M643.68,1760.289l.312,10.707a5.357,5.357,0,0,1-5.23,5.466l-12.2.271a8.7,8.7,0,0,1-8.891-8.494h0l-.176-7.7c-.11-4.8,3.708-5.115,8.508-5.228h0l12.206-.271a5.353,5.353,0,0,1,5.451,5.227Z"/><path class="cls-10" d="M643.662,1759.238l.311,10.71h0a5.353,5.353,0,0,1-5.23,5.466l-12.2.271a8.7,8.7,0,0,1-8.891-8.495h0l-.159-4.033h0a8.7,8.7,0,0,1,8.5-8.887h0l12.2-.271a5.353,5.353,0,0,1,5.465,5.23Z"/><path class="cls-11" d="M643.95,1758.726l-.215,10.714h0a5.35,5.35,0,0,1-5.417,5.273l-.022,0-12.207-.17a8.7,8.7,0,0,1-8.576-8.811h0l.12-4.01h0a8.694,8.694,0,0,1,8.811-8.575h0l12.2.165h0a5.348,5.348,0,0,1,5.267,5.427h0Z"/><path class="cls-29" d="M626.542,1774.667a8.686,8.686,0,0,1-8.885-8.483h0l-.174-4.017a8.694,8.694,0,0,1,8.494-8.887h0a35.2,35.2,0,0,0,.553,21.414"/><path class="cls-30" d="M626.529,1774.679h-.008a8.683,8.683,0,0,1-8.873-8.489h0l-.163-4.034h0v0a8.679,8.679,0,0,1,8.481-8.873h0a35.251,35.251,0,0,0,.556,21.415"/><path class="cls-29" d="M643.711,1803.026l.312,10.706a5.357,5.357,0,0,1-5.23,5.466l-12.2.271a8.7,8.7,0,0,1-8.891-8.494h0l-.176-7.7c-.109-4.8,3.708-5.116,8.508-5.229h0l12.206-.271a5.353,5.353,0,0,1,5.451,5.228Z"/><path class="cls-10" d="M643.693,1801.974l.311,10.71h0a5.353,5.353,0,0,1-5.23,5.466l-12.2.271a8.7,8.7,0,0,1-8.891-8.494h0l-.159-4.034h0a8.694,8.694,0,0,1,8.5-8.886h0l12.2-.272a5.353,5.353,0,0,1,5.465,5.23Z"/><path class="cls-11" d="M643.981,1801.462l-.215,10.714h0a5.349,5.349,0,0,1-5.417,5.273l-.021,0-12.208-.17a8.7,8.7,0,0,1-8.576-8.811h0l.12-4.01h0a8.694,8.694,0,0,1,8.811-8.575h0l12.2.165h0a5.349,5.349,0,0,1,5.267,5.427h0Z"/><path class="cls-29" d="M626.573,1817.4a8.687,8.687,0,0,1-8.885-8.482h0l-.174-4.018a8.694,8.694,0,0,1,8.494-8.887h0a35.2,35.2,0,0,0,.553,21.414"/><path class="cls-30" d="M626.56,1817.415h-.008a8.683,8.683,0,0,1-8.873-8.489h0l-.163-4.034h0v-.005a8.679,8.679,0,0,1,8.481-8.873h0a35.251,35.251,0,0,0,.557,21.415"/><path class="cls-29" d="M527.68,1837.826l10.706-.312a5.357,5.357,0,0,1,5.466,5.23l.271,12.2a8.7,8.7,0,0,1-8.494,8.89h0l-7.7.177c-4.817-1.465-5.116-3.708-5.229-8.508h0l-.271-12.206a5.353,5.353,0,0,1,5.228-5.451Z"/><path class="cls-10" d="M526.936,1837.017l10.71-.311h0a5.352,5.352,0,0,1,5.466,5.23l.271,12.2a8.7,8.7,0,0,1-8.494,8.891h0l-4.034.159h0a8.694,8.694,0,0,1-8.886-8.5h0l-.271-12.2a5.351,5.351,0,0,1,5.23-5.465Z"/><path class="cls-11" d="M527.28,1835.331l10.714.216h0a5.349,5.349,0,0,1,5.273,5.417l0,.021-.17,12.207a8.7,8.7,0,0,1-8.811,8.577h0l-4.01-.12h0a8.694,8.694,0,0,1-8.575-8.811h0l.165-12.2h0a5.35,5.35,0,0,1,5.427-5.268h0Z"/><path class="cls-29" d="M543.221,1852.739a8.688,8.688,0,0,1-8.483,8.886h0l-4.017.173a8.693,8.693,0,0,1-8.887-8.493h0a35.2,35.2,0,0,0,21.414-.553"/><path class="cls-30" d="M543.233,1852.753h0v.008a8.684,8.684,0,0,1-8.489,8.873h0l-4.034.162h0a8.678,8.678,0,0,1-8.873-8.481h0a35.244,35.244,0,0,0,21.415-.556"/><g id="details-2-11" data-name="details-2"><path class="cls-5" d="M514.461,1830.034l-.688-23.943a6.834,6.834,0,0,1,6.99-6.662h.06l24.3-.034a6.832,6.832,0,0,1,7.07,6.564h0l-.024.068.692,23.943a6.84,6.84,0,0,1-7.01,6.651h-.04l-24.3.083a6.842,6.842,0,0,1-7.074-6.572h0Z"/><path class="cls-6" d="M514.461,1826.549l-.688-23.94a6.841,6.841,0,0,1,7.014-6.655h.036l24.3-.034a6.848,6.848,0,0,1,7.058,6.614h0v.03h0l.692,23.932a6.831,6.831,0,0,1-6.994,6.658h-.06l-24.3.038a6.85,6.85,0,0,1-7.058-6.613h0Z"/></g><path class="cls-7" d="M547.383,1790.3l-28.468.017a5.253,5.253,0,0,0-5.249,5.254l.035,27.377a6.629,6.629,0,0,0,6.614,6.636h27.114a5.463,5.463,0,0,0,5.463-5.466l-.043-28.357A5.464,5.464,0,0,0,547.383,1790.3Z"/></g><g id="Storage"><rect class="cls-5" x="255.851" y="754.265" width="127.969" height="45.527" rx="1.308"/><rect class="cls-31" x="255.851" y="750.546" width="127.969" height="45.527" rx="1.308"/><rect class="cls-32" x="255.851" y="747.329" width="127.969" height="45.527" rx="1.308"/><line class="cls-33" x1="256.164" y1="770.093" x2="383.067" y2="770.093"/><rect class="cls-5" x="255.851" y="853.842" width="127.969" height="45.527" rx="1.308"/><rect class="cls-31" x="255.851" y="850.124" width="127.969" height="45.527" rx="1.308"/><rect class="cls-32" x="255.851" y="846.907" width="127.969" height="45.527" rx="1.308"/><line class="cls-33" x1="256.164" y1="869.67" x2="383.067" y2="869.67"/><rect class="cls-5" x="253.805" y="953.42" width="127.969" height="45.527" rx="1.308"/><rect class="cls-31" x="253.805" y="949.701" width="127.969" height="45.527" rx="1.308"/><rect class="cls-32" x="253.805" y="946.484" width="127.969" height="45.527" rx="1.308"/><line class="cls-33" x1="254.118" y1="969.248" x2="381.021" y2="969.248"/><rect class="cls-5" x="254.585" y="1051.496" width="127.969" height="45.527" rx="1.308"/><rect class="cls-31" x="254.585" y="1047.778" width="127.969" height="45.527" rx="1.308"/><rect class="cls-32" x="254.585" y="1044.561" width="127.969" height="45.527" rx="1.308"/><line class="cls-33" x1="254.898" y1="1067.324" x2="381.8" y2="1067.324"/><rect class="cls-5" x="496.94" y="1344.531" width="257.969" height="22.527" rx="1.308"/><rect class="cls-31" x="496.94" y="1340.813" width="257.969" height="22.527" rx="1.308"/><rect class="cls-32" x="496.94" y="1337.596" width="257.969" height="22.527" rx="1.308"/><rect class="cls-5" x="111.57" y="853.592" width="93.969" height="45.527" rx="1.308"/><rect class="cls-31" x="111.57" y="849.873" width="93.969" height="45.527" rx="1.308"/><rect class="cls-32" x="111.57" y="846.656" width="93.969" height="45.527" rx="1.308"/><line class="cls-33" x1="111.883" y1="869.42" x2="204.785" y2="869.42"/><rect class="cls-5" x="111.57" y="952.169" width="93.969" height="45.527" rx="1.308"/><rect class="cls-31" x="111.57" y="948.451" width="93.969" height="45.527" rx="1.308"/><rect class="cls-32" x="111.57" y="945.234" width="93.969" height="45.527" rx="1.308"/><line class="cls-33" x1="111.883" y1="967.997" x2="204.785" y2="967.997"/><rect class="cls-5" x="111.57" y="1051.245" width="93.969" height="45.527" rx="1.308"/><rect class="cls-31" x="111.57" y="1047.527" width="93.969" height="45.527" rx="1.308"/><rect class="cls-32" x="111.57" y="1044.31" width="93.969" height="45.527" rx="1.308"/><line class="cls-33" x1="111.883" y1="1067.074" x2="204.785" y2="1067.074"/><rect class="cls-5" x="589.602" y="1260.834" width="66.969" height="45.527" rx="1.308"/><rect class="cls-31" x="589.602" y="1257.116" width="66.969" height="45.527" rx="1.308"/><rect class="cls-32" x="589.602" y="1253.898" width="66.969" height="45.527" rx="1.308"/><rect class="cls-5" x="661.903" y="1260.792" width="66.969" height="45.527" rx="1.308"/><rect class="cls-31" x="661.903" y="1257.074" width="66.969" height="45.527" rx="1.308"/><rect class="cls-32" x="661.903" y="1253.857" width="66.969" height="45.527" rx="1.308"/><rect class="cls-5" x="496.627" y="1000.914" width="26.969" height="226.528" rx="1.308"/><rect class="cls-31" x="496.627" y="997.195" width="26.969" height="226.528" rx="1.308"/><rect class="cls-32" x="496.627" y="993.978" width="26.969" height="226.528" rx="1.308"/></g><g id="Bookings"><polygon id="area-FTH-1-Woodstock-Internal-10-dv-status" class="cls-34" points="804.058 1622.894 1152.424 1622.894 1152.424 1679.808 1132.441 1679.808 1132.441 1903.736 1041.93 1903.736 1041.93 1837.012 801.762 1837.012 804.058 1622.894"/><rect id="area-FTH-1-Venue-Internal-5-dv-status" class="cls-34" x="940.09" y="1979.887" width="189.342" height="261.059"/><rect id="area-FTH-1-Phone_box-Internal-4-dv-status" class="cls-34" x="1373.437" y="2019.117" width="129.141" height="142.295"/><g id="names"><text class="cls-35" transform="translate(897.359 1732.674)"> <tspan class="cls-36" x="6.668" y="0">W</tspan><tspan x="28.887" y="0">oodstock</tspan></text><text class="cls-35" transform="translate(1404.461 2082.84)">Phone<tspan x="10.664" y="28.8" xml:space="preserve"> Box</tspan></text><text class="cls-35" transform="translate(999.41 2114.84)"><tspan class="cls-37">V</tspan><tspan x="14.684" y="0">enue</tspan></text></g></g><g id="Signage"><g id="Female"><circle class="cls-38" cx="83.784" cy="1709.93" r="34.29"/><text class="cls-39" transform="translate(57.488 1765.889)">Female</text><text class="cls-40" transform="translate(61.437 1784.846)">T</text><text class="cls-39" transform="translate(69.335 1784.846)">oilets</text><circle class="cls-41" cx="83.552" cy="1698.61" r="4.952"/><path class="cls-41" d="M83.552,1705.683c-4.3,0-7.784,6.367-7.784,13.436h4.959v7.1h5.659v-7.086h4.952C91.332,1712.05,87.848,1705.683,83.552,1705.683Z"/></g><g id="Male"><circle class="cls-38" cx="308.962" cy="1706.032" r="33.803"/><text class="cls-42" transform="translate(292.741 1757.832)">Male</text><text class="cls-42" transform="translate(615.085 1549.189)">Refurbishment <tspan x="25.897" y="18.959">Storage</tspan></text><text class="cls-42" transform="translate(707.623 855.562)">Goods<tspan x="12.737" y="18.959">Lift</tspan></text><text class="cls-42" transform="translate(546.968 629.703)">Display</text><text class="cls-43" transform="translate(287.55 1776.521)">T</text><text class="cls-42" transform="translate(295.336 1776.521)">oilets</text><circle class="cls-44" cx="309.557" cy="1694.935" r="5.117"/><path class="cls-44" d="M317.6,1702.963H301.516a11.8,11.8,0,0,0,5.117,10.965v9.5h5.844v-9.5A11.763,11.763,0,0,0,317.6,1702.963Z"/><circle class="cls-38" cx="268.659" cy="912.682" r="33.803"/><text class="cls-42" transform="translate(241.438 964.481)">Storage</text><g id="utility-2"><circle class="cls-38" cx="238.423" cy="650.108" r="33.406"/><text class="cls-45" transform="translate(218.786 704.43)">Utility</text><g id="Outline_Icons-13-2" data-name="Outline Icons-13-2"><g id="Outline_Icons-14-2" data-name="Outline Icons-14-2"><path class="cls-46" d="M230.985,656.608h-3.541a2.367,2.367,0,0,1-2.361-2.358v-7.1a2.368,2.368,0,0,1,2.361-2.362H249.88a2.369,2.369,0,0,1,2.365,2.362v7.083a2.368,2.368,0,0,1-2.365,2.361h-3.538"/><polyline class="cls-46" points="230.985 642.435 230.985 637.713 242.791 637.713 246.332 641.258 246.332 642.435"/><rect class="cls-46" x="230.985" y="653.06" width="15.347" height="9.444"/><circle class="cls-46" cx="228.624" cy="648.341" r="1.181"/><line class="cls-46" x1="233.346" y1="655.421" x2="243.971" y2="655.421"/><line class="cls-46" x1="233.346" y1="657.782" x2="243.971" y2="657.782"/><line class="cls-46" x1="233.346" y1="660.146" x2="243.971" y2="660.146"/><polyline class="cls-46" points="242.791 637.713 242.791 641.258 246.332 641.258"/></g></g></g><rect class="cls-46" x="253.805" y="908.256" width="28.871" height="6.336"/><rect class="cls-46" x="253.805" y="899.08" width="28.871" height="6.336"/><rect class="cls-46" x="253.805" y="917.729" width="28.871" height="6.336"/><circle class="cls-38" cx="303.573" cy="1298.046" r="33.803"/><text class="cls-42" transform="translate(287.352 1349.845)">Post</text><text class="cls-42" transform="translate(528.593 1401.184)">Meeting <tspan x="13.612" y="18.959">Area</tspan></text><g id="Outline_Icons" data-name="Outline Icons"><g id="Outline_Icons-2" data-name="Outline Icons"><path class="cls-46" d="M318.591,1304.149a1.876,1.876,0,0,1-1.875,1.875H295.462a1.876,1.876,0,0,1-1.875-1.875v-17.5a1.877,1.877,0,0,1,1.875-1.876h21.254a1.877,1.877,0,0,1,1.875,1.876Z"/><polyline class="cls-46" points="317.966 1285.396 306.089 1296.648 294.212 1285.396"/><path class="cls-46" d="M293.587,1289.8h-2.5a1.254,1.254,0,0,0-1.25,1.25v17.5a1.255,1.255,0,0,0,1.25,1.25H312.34a1.254,1.254,0,0,0,1.25-1.25v-2.5"/></g></g></g><g id="stairs-3"><circle class="cls-38" cx="320.542" cy="2143.372" r="35.532"/><text class="cls-42" transform="translate(300.621 2199.886)">Stairs</text><g id="Outline_Icons-2-2-3" data-name="Outline Icons-2-2-3"><line class="cls-47" x1="304.637" y1="2157.245" x2="332.382" y2="2157.245"/><polyline class="cls-47" points="327.555 2157.245 327.555 2152.418 322.731 2152.418 322.731 2147.594 317.907 2147.594 317.907 2142.767 313.08 2142.767 313.08 2137.943 304.637 2137.943"/><line class="cls-47" x1="319.115" y1="2129.496" x2="334.266" y2="2144.654"/><polyline class="cls-47" points="319.115 2135.528 319.115 2129.496 325.143 2129.496"/><polyline class="cls-47" points="334.266 2138.62 334.266 2144.654 328.235 2144.654"/></g></g></g><g id="Skeleton"><g id="Walls"><line class="cls-48" x1="165.951" y1="152.102" x2="267.236" y2="152.102"/><line class="cls-48" x1="390.255" y1="152.348" x2="491.54" y2="152.348"/><line class="cls-48" x1="616.152" y1="152.348" x2="717.437" y2="152.348"/><polyline class="cls-49" points="807.087 646.766 491.169 646.766 491.169 810.075 649.294 810.075 649.294 832.756"/><polyline class="cls-49" points="804.058 920.019 555.669 920.019 555.669 902.783"/><polyline class="cls-49" points="648.515 810.075 648.515 799.824 801.114 799.824"/><line class="cls-49" x1="556.04" y1="810.075" x2="556.04" y2="832.756"/><line class="cls-49" x1="650.038" y1="918.449" x2="650.038" y2="905.116"/><polyline class="cls-49" points="801.762 1495.452 510.906 1495.452 510.906 1513.365"/><polyline class="cls-49" points="911.262 1838.145 1041.93 1838.145 1041.93 1903.736 1132.441 1903.736 1132.441 1679.808 1152.424 1679.808 1152.424 1616.92"/><polyline class="cls-49" points="510.906 1562.068 510.906 1616.928 804.058 1616.928 804.058 1838.145 856.824 1838.145"/><polyline class="cls-49" points="83.784 1618.86 172.63 1618.86 377.817 1618.86 377.817 1908.447"/><polyline class="cls-49" points="172.454 1618.86 172.454 1763.653 244.17 1763.653 244.17 1800.488"/><polyline class="cls-49" points="244.17 1843.326 244.17 1858.445 377.817 1858.445"/><polyline class="cls-49" points="172.349 1843.326 172.349 1858.445 7.86 1858.445"/><line class="cls-49" x1="172.454" y1="1750.697" x2="172.454" y2="1800.488"/><line class="cls-49" x1="373.858" y1="2013.11" x2="373.858" y2="2241.704"/><polyline class="cls-49" points="510.906 1708.037 510.906 1922.366 510.906 1940.227"/><line class="cls-49" x1="873.358" y1="1923.142" x2="510.906" y2="1923.142"/><line class="cls-49" x1="804.058" y1="1907.522" x2="804.058" y2="1925.391"/><line class="cls-49" x1="373.858" y1="2066.781" x2="621.368" y2="2066.781"/><polyline class="cls-49" points="610.582 2066.781 804.058 2066.781 804.058 2240.946"/><line class="cls-49" x1="510.906" y1="1987.454" x2="510.906" y2="2069.443"/><polyline class="cls-49" points="927.029 1923.142 940.09 1923.142 940.09 2240.946"/><line class="cls-49" x1="940.09" y1="1979.887" x2="970.796" y2="1979.887"/><polyline class="cls-49" points="1026.907 1979.887 1129.431 1979.887 1129.431 2240.946"/><polyline class="cls-49" points="1417.68 2019.117 1373.437 2019.117 1373.437 2161.411 1502.578 2161.411 1502.578 2019.117 1460.328 2019.117"/><rect class="cls-49" x="4" y="2066.781" width="126.135" height="174.165"/><line class="cls-49" x1="267.227" y1="2066.781" x2="267.227" y2="2241.704"/><line class="cls-50" x1="383.067" y1="846.963" x2="383.067" y2="893.582"/><line class="cls-50" x1="383.067" y1="946.484" x2="383.067" y2="993.103"/><line class="cls-50" x1="383.82" y1="1044.274" x2="383.82" y2="1090.893"/><line class="cls-50" x1="383.067" y1="746.784" x2="383.067" y2="793.402"/><line class="cls-50" x1="496.627" y1="995.286" x2="496.627" y2="1220.506"/><line class="cls-50" x1="498.248" y1="1363.34" x2="754.909" y2="1363.34"/></g><g id="Outline"><path class="cls-51" d="M804.058,1619.894V6.244A2.244,2.244,0,0,0,801.814,4H86.029a2.245,2.245,0,0,0-2.245,2.244v1613.65H6.244A2.244,2.244,0,0,0,4,1622.138v618.808H1862.736V1622.138a2.245,2.245,0,0,0-2.245-2.244Z"/></g></g></svg>