<?xml version="1.0" encoding="utf-8"?>
<!-- Generator: Adobe Illustrator 25.3.0, SVG Export Plug-In . SVG Version: 6.00 Build 0)  -->
<svg version="1.1" id="Layer_1" xmlns="http://www.w3.org/2000/svg" xmlns:xlink="http://www.w3.org/1999/xlink" x="0px" y="0px"
	 viewBox="0 0 1408.2 576.6" style="enable-background:new 0 0 1408.2 576.6;" xml:space="preserve">
<style type="text/css">
	.st0{fill:#4196B1;}
	.st1{fill:#AAE0E4;}
	.st2{fill:#8ECCCE;}
	.st3{fill:#99B8BF;}
	.st4{opacity:5.000000e-02;fill:#030303;enable-background:new    ;}
	.st5{fill:#B8BFC1;}
	.st6{fill:#F4F4F4;}
	.st7{opacity:0.15;fill:#010101;enable-background:new    ;}
	.st8{fill:#596068;}
	.st9{fill:#9BAEB7;}
	.st10{fill:none;stroke:#7A8E93;stroke-width:2;stroke-linecap:round;stroke-miterlimit:10;}
	.st11{opacity:0.15;fill:#0D5577;enable-background:new    ;}
	.st12{fill:#0D5577;}
	.st13{fill:#83D8EF;stroke:#53C5F1;stroke-width:0.799;stroke-linecap:round;stroke-linejoin:round;}
	.st14{fill:#4E9FB9;stroke:#4A90A0;stroke-width:0.799;stroke-linecap:round;stroke-linejoin:round;}
	.st15{opacity:0.43;fill:#53C5F1;enable-background:new    ;}
	.st16{opacity:8.000000e-02;fill:#101010;enable-background:new    ;}
	.st17{fill:#4FAFC6;stroke:#5798A3;stroke-width:0.931;stroke-linecap:round;stroke-linejoin:round;}
	.st18{fill:#7DCFE2;stroke:#53C5F1;stroke-width:1.164;stroke-linecap:round;stroke-linejoin:round;}
	.st19{fill:#FFFFFF;}
	.st20{opacity:0.74;fill:#575757;enable-background:new    ;}
	.st21{font-family:'Arial-BoldMT';}
	.st22{font-size:10px;}
	.st23{enable-background:new    ;}
	.st24{fill:none;stroke:#FFFFFF;stroke-width:8;stroke-miterlimit:10;}
	.st25{fill:none;stroke:#FFFFFF;stroke-width:4;stroke-miterlimit:10;}
	.st26{fill:#EBF2F2;}
	.st27{fill:#757D7F;}
	.st28{fill:#7A8E93;stroke:#7A8E93;stroke-width:0.14;stroke-miterlimit:10;}
	.st29{fill:none;stroke:#7A8E93;stroke-width:0.38;stroke-miterlimit:10;}
	.st30{fill:#646B6D;}
	.st31{fill:none;stroke:#7A8E93;stroke-width:0.5;stroke-linecap:round;stroke-linejoin:round;}
	.st32{fill:#EBF1F2;}
	.st33{fill:#767E80;}
	.st34{fill:none;stroke:#7A8E93;stroke-width:0.5;stroke-miterlimit:10;}
	.st35{fill:#7A8E93;}
</style>
<g id="shadow">
	<polygon class="st0" points="42.7,253.2 354.8,253.2 354.8,77.3 543.8,77.3 543.8,256 831.1,256 1049,47.7 1376.2,340.5 
		1154.2,548.8 42.7,548.8 	"/>
</g>
<g id="background">
	<polygon class="st1" points="42.7,241.4 352.3,241.4 352.3,66.8 539.8,66.8 539.8,244.1 824.8,244.1 1040.9,37.5 1365.5,328 
		1145.3,534.6 42.7,534.6 	"/>
</g>
<g id="spaces">
	<rect x="552.1" y="369.5" class="st2" width="433.8" height="165.7"/>
	<rect x="500.3" y="244.7" class="st3" width="100.9" height="67.9"/>
	<polygon class="st2" points="895.6,177.1 971.7,246.1 959.9,257.9 986.9,281 988,290.1 981.1,321.7 981.1,332.6 985.9,332.6 
		985.9,373.7 985.9,535.2 1145.3,534.6 1363.9,329.5 1041,38.1 	"/>
	<polygon class="st2" points="787.5,244.7 787.5,312.6 599.4,312.6 599.4,244.1 	"/>
	<rect x="139.7" y="386.7" class="st2" width="148.5" height="148.5"/>
	<rect x="289.4" y="386.7" class="st2" width="66" height="148.5"/>
	<polygon class="st2" points="121.2,242 317.7,242 317.7,339 238.3,339 238.3,304.7 195,304.7 195,339 121.2,339 	"/>
	<rect x="352.3" y="66.8" class="st2" width="34.1" height="155.7"/>
	<rect x="497.6" y="66.8" class="st2" width="42.2" height="157.4"/>
	<rect x="42.7" y="241.4" class="st3" width="78.4" height="97.6"/>
	<polygon class="st3" points="787.5,244.7 824.8,244.7 847.2,225.1 863.6,241.5 863.6,312.6 787.5,312.6 	"/>
	<rect x="42.7" y="339.2" class="st2" width="97" height="196"/>
</g>
<g id="furniture">
	<path class="st4" d="M522.6,452.9v20.5c0,0.8-1.6,1.6-3.3,1.6H390.2c-1.6,0-3.3-0.8-3.3-1.6v-20.5c0-0.8,1.6-1.6,3.3-1.6h129.2
		C521,451.3,522.6,452.1,522.6,452.9z"/>
	<path class="st5" d="M522.6,451.6V472c0,0.8-1.6,1.6-3.3,1.6H390.2c-1.6,0-3.3-0.8-3.3-1.6v-20.5c0-0.8,1.6-1.6,3.3-1.6h129.2
		C521,450,522.6,450.8,522.6,451.6z"/>
	<path class="st6" d="M522.6,450.3v20.5c0,0.8-1.6,1.6-3.3,1.6H390.2c-1.6,0-3.3-0.8-3.3-1.6v-20.5c0-0.8,1.6-1.6,3.3-1.6h129.2
		C521,448.7,522.6,449.5,522.6,450.3z"/>
	<path class="st7" d="M424.7,473.9c3.5,0,6.3,2.9,6.4,6.4v5c-0.1,4.6-3.9,8.4-8.5,8.5l0,0c-4.6,0-8.4-3.4-8.8-8l-0.3-4.8v-0.3l0,0
		c-0.1-3.6,2.7-6.7,6.4-6.9L424.7,473.9L424.7,473.9z"/>
	<path class="st8" d="M424.7,474.7c3.6,0.1,6.4,3,6.4,6.6l0,0v4.8c-0.1,4.6-3.9,8.4-8.5,8.5l0,0c-4.6,0.1-8.5-3.4-8.8-8l-0.3-4.8
		v-0.3l0,0c-0.1-3.6,2.7-6.7,6.4-6.9L424.7,474.7L424.7,474.7z"/>
	<path class="st9" d="M424.7,475.8c3.6,0.1,6.4,3,6.4,6.6l0,0v4.8c-0.1,4.6-3.9,8.4-8.5,8.5l0,0c-4.6,0-8.4-3.4-8.8-8l-0.3-4.8v-0.3
		l0,0c-0.1-3.6,2.7-6.7,6.4-6.9L424.7,475.8L424.7,475.8z"/>
	<path class="st10" d="M431.3,481.4L431,487c-0.1,4.6-3.9,8.4-8.5,8.5l0,0c-4.6,0.1-8.5-3.4-8.8-8l-0.5-5.6"/>
	<path class="st4" d="M411.6,277.6v38.3c0,0.5-0.4,1-1,1h-0.1h-13.3c-0.6,0-1-0.4-1.1-1v-38.3c0-0.5,0.4-1,1-1h0.1h13.3
		c0.5-0.1,1,0.2,1.1,0.7C411.6,277.4,411.6,277.5,411.6,277.6z"/>
	<path class="st5" d="M412.5,277.6v38.3c0,0.5-0.4,1-1,1h-0.1h-13.3c-0.6,0-1-0.4-1.1-1v-38.3c0-0.5,0.4-1,1-1h0.1h13.3
		c0.5-0.1,1,0.3,1.1,0.9C412.5,277.5,412.5,277.5,412.5,277.6z"/>
	<path class="st6" d="M413.4,277.6v38.3c0,0.5-0.4,1-1,1h-0.1H399c-0.6,0-1-0.4-1.1-1v-38.3c0-0.5,0.4-1,1-1h0.1h13.2
		c0.6-0.1,1.1,0.3,1.2,0.8C413.4,277.5,413.4,277.5,413.4,277.6z"/>
	<path class="st11" d="M386.9,296.7v-32.1c0.1-1.1-0.7-2.1-1.9-2.2h-21.4c-0.6,0.2-1.2,0.9-1,1.5v71.6c0,0.8,0.6,1.5,1.5,1.5h20.5
		c1.2-0.1,2.2-1,2.3-2.2v-32.7l0,0V296.7L386.9,296.7z"/>
	<path class="st12" d="M385.6,296.2V264c0-1-0.7-1.9-1.7-2.2h-20.1c-0.6,0.3-1,0.8-1,1.5v71.6c0,0.8,0.6,1.5,1.5,1.5h19.5
		c1.2-0.2,2.3-1.1,2.1-2.2v-32.7L385.6,296.2z"/>
	<path class="st13" d="M372.2,265.5c-2.2,0-4.5-0.3-6.6-0.9c1.9,7.8,2.5,26.4,2.5,34.5l0,0v1.8c0.2,7-0.4,26.9-1.9,33.8
		c2-0.5,4-0.8,6-0.9c4.6,0,8.5,1.1,9.7,3c1.2-0.2,2.3-1.1,2.1-2.2v-70.1c0-1-0.7-1.9-1.7-2.2C381.9,263.9,377.6,265.5,372.2,265.5z"
		/>
	<path class="st14" d="M362.2,261.8c-0.6,0.3-1,0.8-1,1.5v71.6c0,0.8,0.6,1.5,1.5,1.5c0.3-0.5,0.9-0.9,1.5-1.1v-71.6
		C363.2,263.5,362.4,262.7,362.2,261.8z"/>
	<path class="st15" d="M370.1,300.8V299c0.2-7.9-0.6-26.8-2.5-34.5c-0.7-0.2-1.3-0.5-1.9-0.9v71.6c0.7-0.4,1.5-0.7,2.3-0.9
		C369.5,327.7,370.3,307.6,370.1,300.8z"/>
	<path class="st14" d="M368.4,300.8V299c0.2-7.9-0.6-26.8-2.5-34.5c-0.7-0.2-1.3-0.5-1.9-0.9v71.6c0.7-0.4,1.5-0.7,2.3-0.9
		C368,327.7,368.4,307.6,368.4,300.8z"/>
	<path class="st14" d="M372.2,333.6c-2-0.1-4.1,0.2-6,0.9c-1.4,0.3-2.7,1-3.7,2H382C380.7,334.9,376.9,333.6,372.2,333.6z"/>
	<path class="st14" d="M372.2,265.5c-2,0-4.1-0.3-6-0.9c-1.5-0.3-2.9-1.3-3.7-2.6H382C380.7,264,376.7,265.5,372.2,265.5z"/>
	<path class="st16" d="M517.1,374.9c0.4-3.3,3.3-5.6,6.6-5.3l9.2,1c4.8,0.4,8.5,4.5,8.4,9.4l-0.1,6.6c-0.2,4.9-3.9,8.9-8.8,9.3
		l-9.3,0.5h-0.5l0,0c-3.3-0.1-5.9-2.8-5.9-6.1l0,0l0.4-14.5L517.1,374.9z"/>
	<path class="st12" d="M517.5,373.6L517.5,373.6c0.4-3.3,3.3-5.6,6.6-5.3l9.2,1c4.8,0.4,8.5,4.5,8.4,9.4l-0.1,6.6
		c-0.2,4.9-3.9,8.9-8.8,9.3l-9.3,0.5h-1c-3-0.4-5.2-3.1-5-6.2l0.3-14.3L517.5,373.6z"/>
	<path class="st17" d="M517.4,371.4c0.6-3.3,3.8-5.4,7.1-4.8l0,0l0,0l0,0l8.8,0.8c4.8,0.4,8.5,4.5,8.4,9.4l-0.1,6.6
		c-0.2,4.9-3.9,8.9-8.8,9.3l-9.3,0.5H523l0,0c-3.3-0.1-5.9-2.8-5.9-6.1l0,0l0,0l0.4-14.5L517.4,371.4z"/>
	<path class="st18" d="M518.6,373.9c0-2.6,2.1-4.6,4.7-4.5l0,0c0.2,0,0.4,0,0.7,0.1l6.3,0.7c4.1,0.5,7.2,4,7.3,8.2l-0.1,3.8
		c-0.1,4.2-3.5,7.6-7.7,7.8l-6.7,0.4l-0.2-0.1l0,0c-2.6-0.1-4.5-2.3-4.5-4.8l0,0L518.6,373.9L518.6,373.9z"/>
	<path class="st16" d="M516.9,418.8c0.4-3.3,3.3-5.6,6.6-5.3l9.2,1c4.8,0.4,8.5,4.5,8.4,9.4l-0.1,6.6c-0.2,4.9-3.9,8.9-8.8,9.3
		l-9.3,0.5h-0.5l0,0c-3.3-0.1-5.9-2.8-5.9-6.1l0,0l0.4-14.5L516.9,418.8z"/>
	<path class="st12" d="M517.3,417.5L517.3,417.5c0.4-3.3,3.3-5.6,6.6-5.3l9.2,1c4.8,0.4,8.5,4.5,8.4,9.4l-0.1,6.6
		c-0.2,4.9-3.9,8.9-8.8,9.3l-9.3,0.5h-1c-3-0.4-5.2-3.1-5-6.2l0.3-14.3L517.3,417.5z"/>
	<path class="st17" d="M517.2,415.4c0.6-3.3,3.8-5.4,7.1-4.8l0,0l0,0l8.8,0.8c4.8,0.4,8.5,4.5,8.4,9.4l-0.1,6.6
		c-0.2,4.9-3.9,8.9-8.8,9.3l-9.3,0.5h-0.5l0,0c-3.3-0.1-5.9-2.8-5.9-6.1l0,0l0,0l0.4-14.5L517.2,415.4z"/>
	<path class="st18" d="M518.4,417.8c0-2.6,2.1-4.6,4.7-4.5l0,0c0.2,0,0.4,0,0.7,0.1l6.3,0.7c4.1,0.5,7.2,4,7.3,8.2l-0.1,3.8
		c-0.1,4.2-3.5,7.6-7.7,7.8l-6.7,0.4l-0.2-0.1l0,0c-2.6-0.1-4.6-2.3-4.5-4.8l0,0L518.4,417.8L518.4,417.8z"/>
	
		<ellipse transform="matrix(0.1602 -0.9871 0.9871 0.1602 28.5777 836.189)" class="st4" cx="505.7" cy="401.3" rx="10.9" ry="10.9"/>
	
		<ellipse transform="matrix(0.1602 -0.9871 0.9871 0.1602 28.6573 837.4826)" class="st5" cx="506.5" cy="401.9" rx="10.9" ry="10.9"/>
	
		<ellipse transform="matrix(0.3162 -0.9487 0.9487 0.3162 -34.7449 756.6374)" class="st19" cx="507.5" cy="402.4" rx="10.9" ry="10.9"/>
</g>
<g id="bookable">
	<rect id="area-16.06-status" x="288.3" y="387" class="st20" width="67.1" height="150"/>
	<polygon id="area-16.05-status" class="st20" points="895.6,177.1 971.7,246.1 959.9,257.9 988,282.1 1148.7,134.5 1040.9,37.5 	
		"/>
	<polygon id="area-16.04-status" class="st20" points="981.1,332.6 1028.7,332.6 1194.5,489 1365.5,328 1148.7,134.5 988,282.1 
		981.5,321.5 	"/>
	<polygon id="area-16.03-status" class="st20" points="985.9,369.5 985.9,535.2 1145.3,535.2 1194.5,489 1028.7,332.6 985.9,332.6 	
		"/>
	<rect id="area-16.02-status" x="767" y="369.5" class="st20" width="218.8" height="164"/>
	<rect id="area-16.01-status" x="552.1" y="369.5" class="st20" width="215" height="164"/>
	<text transform="matrix(1 0 0 1 991.2029 150.2112)" class="st19 st21 st22">Sala Clientes 5</text>
	<text transform="matrix(1 0 0 1 1136.3258 320.1516)" class="st19 st21 st22">Sala Clientes 4</text>
	<text transform="matrix(1 0 0 1 1022.1504 454.9286)" class="st19 st21 st22">Sala Clientes 3</text>
	<text transform="matrix(1 0 0 1 843.8786 455.0588)" class="st19 st21 st22">Sala Clientes 2</text>
	<text transform="matrix(1 0 0 1 621.6976 454.9285)" class="st19 st21 st22">Sala Clientes 1</text>
	<text transform="matrix(1 0 0 1 300.176 461.4999)" class="st23"><tspan x="0" y="0" class="st19 st21 st22">Lactation</tspan><tspan x="8.1" y="12" class="st19 st21 st22">Room</tspan></text>
</g>
<g id="outline">
	<polygon class="st24" points="42.7,242 352.3,242 352.3,67.4 539.8,67.4 539.8,244.7 824.8,244.7 1041,38.1 1365.5,328.6 
		1145.3,535.2 42.7,535.2 	"/>
	<polyline class="st25" points="139.2,345.7 139.2,339 198,339 99.5,339 	"/>
	<polyline class="st25" points="121.2,339 121.2,242 317.7,242 317.7,339 236.7,339 355.4,339 355.4,345.7 	"/>
	<polyline class="st25" points="139.7,376.1 139.7,535.2 288.3,535.2 288.3,387 317.7,387 	"/>
	<line class="st25" x1="70.8" y1="339" x2="42.7" y2="339"/>
	<polyline class="st25" points="191.6,305.3 243.5,305.3 217.6,305.3 217.6,244.6 	"/>
	<polyline class="st25" points="348.7,386.9 355.4,386.9 355.4,364 355.4,533.5 767,533.5 767,369.2 757.4,369.2 775.4,369.2 	"/>
	<polyline class="st25" points="727.7,369.5 552.1,369.5 552.1,535.2 985.9,535.2 985.9,369.5 806.4,369.5 	"/>
	<polyline class="st25" points="1148.7,134.5 988,282.1 983,277 	"/>
	<polyline class="st25" points="895.6,177.1 971.7,246.1 959.1,258.7 	"/>
	<polyline class="st25" points="981.1,320.2 981.1,332.6 1028.7,332.6 1194.5,489 	"/>
	<line class="st25" x1="988" y1="282.1" x2="988" y2="291.5"/>
	<polyline class="st25" points="846.3,224.2 863.6,241.5 863.6,312.6 824.2,312.6 	"/>
	<polyline class="st25" points="787.5,244.7 787.5,312.6 795.2,312.6 720.2,312.6 	"/>
	<polyline class="st25" points="690.1,312.6 556,312.6 601.2,312.6 601.2,244.7 660.7,244.7 500.3,244.7 500.3,312.6 523.9,312.6 	
		"/>
	<polyline class="st25" points="497.6,83.4 497.6,69.1 539.8,69.1 539.8,224.2 497.6,224.2 497.6,212.5 	"/>
	<polyline class="st25" points="497.6,96.5 497.6,118.6 497.6,107.6 539.8,107.6 539.8,145.2 497.6,145.2 497.6,134.8 497.6,158.8 	
		"/>
	<polyline class="st25" points="497.6,171.1 497.6,199 497.6,187 539.8,187 	"/>
	<polyline class="st25" points="352.3,108.9 386.3,108.9 386.3,96.5 386.3,119 	"/>
	<polyline class="st25" points="352.3,146.6 386.3,146.6 386.3,135.2 386.3,156.8 	"/>
	<polyline class="st25" points="352.3,185 386.3,185 386.3,171.1 386.3,199 	"/>
	<polyline class="st25" points="355.4,222.5 386.3,222.5 386.3,213.2 	"/>
	<line class="st25" x1="386.3" y1="83.8" x2="386.3" y2="67.4"/>
</g>
<g id="icons_and_labels">
	<circle class="st26" cx="369.5" cy="144.5" r="11.8"/>
	<g>
		<path class="st27" d="M358.9,162.9v-4h2.9v0.4h-2.3v1.2h2.2v0.4h-2.2v1.3h2.4v0.4h-3V162.9z"/>
		<path class="st27" d="M362.6,162.9v-4h0.4v4H362.6z"/>
		<path class="st27" d="M365.8,162l0.6,0.1c-0.1,0.3-0.2,0.5-0.4,0.7c-0.3,0.2-0.6,0.2-0.9,0.2c-0.4,0-0.8-0.1-1-0.4
			c-0.2-0.3-0.3-0.7-0.3-1.1c0-0.4,0.1-0.8,0.3-1.1c0.3-0.3,0.6-0.4,1-0.4s0.8,0.1,1,0.4c0.2,0.3,0.4,0.7,0.3,1.1v0.1h-2.2
			c0,0.3,0.1,0.5,0.2,0.8c0.1,0.2,0.3,0.2,0.6,0.2s0.3,0,0.4-0.1S365.7,162.2,365.8,162z M364.1,161.3h1.7c0-0.2-0.1-0.4-0.2-0.6
			c-0.1-0.2-0.4-0.4-0.7-0.3c-0.2,0-0.4,0.1-0.6,0.2C364.2,160.8,364.2,161,364.1,161.3L364.1,161.3z"/>
		<path class="st27" d="M367.7,162.9l-1.1-2.9h0.6l0.7,1.8c0.1,0.2,0.1,0.3,0.2,0.6c0-0.2,0.1-0.4,0.2-0.6l0.7-1.8h0.6l-1.1,2.9
			H367.7z"/>
		<path class="st27" d="M371.5,162.6c-0.2,0.1-0.3,0.2-0.6,0.3c-0.2,0.1-0.4,0.1-0.6,0.1c-0.3,0-0.5-0.1-0.8-0.2
			c-0.2-0.1-0.2-0.3-0.2-0.6c0-0.2,0-0.3,0.1-0.4c0.1-0.1,0.1-0.2,0.2-0.3s0.2-0.1,0.3-0.1c0.2,0,0.3,0,0.4-0.1
			c0.3,0,0.6-0.1,0.9-0.2V161c0-0.2,0-0.3-0.1-0.4c-0.2-0.1-0.3-0.2-0.6-0.2c-0.2,0-0.4,0-0.6,0.1c-0.1,0.1-0.2,0.3-0.2,0.4
			l-0.4-0.1c0-0.2,0.1-0.3,0.2-0.6c0.1-0.1,0.3-0.2,0.4-0.3c0.2-0.1,0.4-0.1,0.7-0.1c0.2,0,0.4,0,0.6,0.1c0.1,0.1,0.2,0.1,0.3,0.2
			c0.1,0.1,0.1,0.2,0.1,0.3v2c0,0.1,0.1,0.2,0.1,0.3h-0.6C371.6,162.9,371.6,162.7,371.5,162.6z M371.5,161.5
			c-0.3,0.1-0.5,0.2-0.8,0.2c-0.2,0-0.3,0.1-0.4,0.1s-0.1,0.1-0.2,0.1s-0.1,0.1-0.1,0.2c0,0.1,0,0.2,0.1,0.3s0.2,0.1,0.4,0.1
			c0.2,0,0.4,0,0.6-0.1l0.3-0.3c0-0.1,0.1-0.2,0.1-0.4V161.5L371.5,161.5z"/>
		<path class="st27" d="M373.8,162.5l0.1,0.4h-0.3c-0.2,0-0.3,0-0.4-0.1s-0.2-0.1-0.2-0.2c0-0.2-0.1-0.4-0.1-0.6v-1.7h-0.3V160h0.3
			v-0.7l0.4-0.3v1h0.4v0.3h-0.4v1.9c0,0.1,0,0.1,0.1,0.1l0,0h0.2C373.7,162.6,373.7,162.6,373.8,162.5z"/>
		<path class="st27" d="M374.2,161.5c0-0.5,0.1-0.9,0.4-1.2c0.2-0.2,0.6-0.3,0.9-0.3c0.4,0,0.8,0.1,1,0.4c0.2,0.3,0.4,0.7,0.3,1.1
			c0,0.3-0.1,0.6-0.2,0.9c-0.1,0.2-0.3,0.4-0.4,0.6c-0.2,0.1-0.4,0.2-0.7,0.2c-0.4,0-0.8-0.1-1-0.4
			C374.3,162.3,374.2,161.9,374.2,161.5z M374.6,161.5c0,0.3,0.1,0.6,0.2,0.9c0.1,0.2,0.4,0.4,0.7,0.3c0.3,0,0.5-0.1,0.7-0.3
			s0.2-0.4,0.2-0.9c0-0.3-0.1-0.5-0.2-0.8c-0.1-0.2-0.3-0.2-0.6-0.2c-0.2,0-0.5,0.1-0.7,0.2C374.7,160.9,374.6,161.2,374.6,161.5z"
			/>
		<path class="st27" d="M377.4,162.9V160h0.4v0.4c0.1-0.2,0.2-0.3,0.3-0.4c0.1-0.1,0.2-0.1,0.3-0.1c0.2,0,0.4,0,0.6,0.1l-0.2,0.4
			c-0.2-0.1-0.5-0.1-0.7,0l-0.2,0.2c0,0.2-0.1,0.3-0.1,0.6v1.5h-0.4L377.4,162.9L377.4,162.9z"/>
	</g>
	<path class="st28" d="M366.3,149.1V142h2.4v7.3L366.3,149.1z M368.9,149.1V142h2.4v7.3L368.9,149.1z M374.2,149.1h-2.8v-7.3
		c0-0.1,0-0.1-0.1-0.1l0,0h-5.1c-0.1,0-0.1,0-0.1,0.1l0,0l0,0v7.3h-1.2v-9.4h9.4L374.2,149.1z M374.4,139.6h-9.5
		c-0.1,0-0.1,0-0.1,0.1l0,0l0,0v9.5c0,0.1,0,0.1,0.1,0.1l0,0h9.5c0.1,0,0.1,0,0.1-0.1l0,0l0,0L374.4,139.6z"/>
	<path class="st28" d="M368.1,140.8h1.7v-0.1L368.1,140.8C368.1,140.7,367.9,140.7,368.1,140.8z"/>
	<path class="st28" d="M372.6,144.3l0.2-0.2l0.2,0.2h0.1v-0.1l-0.3-0.3h-0.1l-0.4,0.4v0.1L372.6,144.3L372.6,144.3z"/>
	<path class="st28" d="M372.7,145.4L372.7,145.4l0.4-0.4c0,0,0.1-0.1,0-0.1H373l-0.2,0.2l-0.2-0.2h-0.1v0.1l0,0L372.7,145.4z"/>
	<g>
		<path class="st27" d="M365.8,169.7l1.1-1.5l-1-1.4h0.7l0.4,0.7c0.1,0.1,0.1,0.2,0.2,0.3c0.1-0.1,0.1-0.2,0.2-0.3l0.4-0.7h0.6
			l-1,1.3l1.1,1.5H368l-0.6-0.9l-0.1-0.2l-0.8,1.1L365.8,169.7L365.8,169.7z"/>
		<path class="st27" d="M370.3,169.7v-1h-1.8v-0.4l1.9-2.5h0.4v2.5h0.6v0.4h-0.6v1H370.3z M370.3,168.2v-1.8l-1.2,1.8H370.3z"/>
	</g>
	<g>
		<path class="st27" d="M435.5,149.3v-3.6h2.6v0.4H436v1.1h2v0.4h-2v1.2h2.2v0.4h-2.7V149.3z"/>
		<path class="st27" d="M438.8,149.3v-3.6h0.4v3.6H438.8z"/>
		<path class="st27" d="M441.7,148.5l0.5,0.1c0,0.2-0.2,0.5-0.4,0.6c-0.2,0.1-0.5,0.2-0.8,0.2c-0.4,0-0.7-0.1-0.9-0.4
			c-0.2-0.3-0.3-0.6-0.3-1s0.1-0.7,0.3-1c0.2-0.2,0.6-0.4,0.9-0.4s0.7,0.1,0.9,0.4c0.2,0.3,0.3,0.6,0.3,1v0.1h-2
			c0,0.2,0.1,0.5,0.2,0.7s0.3,0.2,0.5,0.2s0.3,0,0.4-0.1C441.5,148.8,441.7,148.7,441.7,148.5z M440.2,147.8h1.5
			c0-0.2-0.1-0.4-0.2-0.5c-0.1-0.2-0.3-0.3-0.5-0.3s-0.4,0.1-0.5,0.2C440.4,147.4,440.3,147.6,440.2,147.8z"/>
		<path class="st27" d="M443.4,149.3l-1-2.6h0.5l0.6,1.6c0.1,0.2,0.1,0.3,0.2,0.5c0-0.2,0.1-0.3,0.2-0.5l0.6-1.6h0.5l-1,2.6H443.4z"
			/>
		<path class="st27" d="M447,149c-0.2,0.1-0.3,0.2-0.5,0.3s-0.3,0.1-0.5,0.1s-0.5-0.1-0.7-0.2c-0.2-0.1-0.2-0.3-0.2-0.5
			c0-0.1,0-0.3,0.1-0.4c0.1-0.1,0.1-0.2,0.2-0.3s0.2-0.1,0.3-0.1c0.1,0,0.3,0,0.4-0.1c0.3,0,0.6-0.1,0.8-0.2v-0.1
			c0-0.2,0-0.3-0.1-0.4c-0.1-0.1-0.3-0.2-0.5-0.2s-0.4,0-0.5,0.1s-0.2,0.2-0.2,0.4l-0.4-0.1c0-0.2,0.1-0.3,0.2-0.5s0.2-0.2,0.4-0.3
			c0.2-0.1,0.4-0.1,0.6-0.1s0.4,0,0.5,0.1s0.2,0.1,0.3,0.2c0.1,0.1,0.1,0.2,0.1,0.3v1.8c0,0.1,0.1,0.2,0.1,0.3h-0.5
			C447,149.2,447,149.1,447,149z M446.9,148c-0.2,0.1-0.5,0.1-0.7,0.2c-0.2,0-0.3,0.1-0.4,0.1s-0.1,0.1-0.2,0.1
			c0,0.1-0.1,0.1-0.1,0.2c0,0.1,0,0.2,0.1,0.3s0.2,0.1,0.4,0.1c0.2,0,0.3,0,0.5-0.1l0.3-0.3c0-0.1,0.1-0.2,0.1-0.4L446.9,148
			L446.9,148z"/>
		<path class="st27" d="M449,148.9l0.1,0.4h-0.3c-0.2,0-0.3,0-0.4-0.1s-0.2-0.1-0.2-0.2c0-0.2-0.1-0.3-0.1-0.5V147h-0.3v-0.3h0.3
			v-0.6l0.4-0.3v0.9h0.4v0.3h-0.4v1.7c0,0.1,0,0.1,0.1,0.1l0,0h0.2C448.9,148.9,448.9,148.9,449,148.9z"/>
		<path class="st27" d="M449.3,148c0-0.4,0.1-0.8,0.4-1.1c0.2-0.2,0.5-0.3,0.8-0.3c0.4,0,0.7,0.1,0.9,0.4c0.2,0.3,0.3,0.6,0.3,1
			c0,0.3,0,0.6-0.2,0.8s-0.2,0.3-0.4,0.5c-0.2,0.1-0.4,0.2-0.6,0.2c-0.4,0-0.7-0.1-0.9-0.4C449.4,148.8,449.3,148.4,449.3,148z
			 M449.7,148c0,0.3,0.1,0.6,0.2,0.8s0.4,0.3,0.6,0.3s0.4-0.1,0.5-0.3s0.2-0.5,0.2-0.8c0-0.2-0.1-0.5-0.2-0.7
			c-0.1-0.1-0.3-0.2-0.5-0.2s-0.4,0.1-0.6,0.2S449.7,147.7,449.7,148L449.7,148z"/>
		<path class="st27" d="M452.3,149.3v-2.6h0.4v0.4c0.1-0.2,0.2-0.3,0.3-0.4c0.1-0.1,0.2-0.1,0.3-0.1c0.2,0,0.3,0,0.5,0.1l-0.2,0.4
			c-0.2-0.1-0.4-0.1-0.6,0l-0.2,0.2c0,0.2-0.1,0.3-0.1,0.5v1.4h-0.4L452.3,149.3z"/>
	</g>
	<g>
		<path class="st27" d="M437.8,155.4v-3.6h0.5v3.2h1.8v0.4L437.8,155.4z"/>
		<path class="st27" d="M440.4,154.1c0-0.4,0.1-0.8,0.4-1.1c0.2-0.2,0.5-0.3,0.8-0.3c0.4,0,0.7,0.1,0.9,0.4c0.2,0.3,0.3,0.6,0.3,1
			c0,0.3,0,0.6-0.2,0.8s-0.2,0.3-0.4,0.5c-0.2,0.1-0.4,0.2-0.6,0.2c-0.4,0-0.7-0.1-0.9-0.4C440.5,154.9,440.4,154.5,440.4,154.1z
			 M440.9,154.1c0,0.3,0.1,0.6,0.2,0.8s0.4,0.3,0.6,0.3s0.4-0.1,0.5-0.3s0.2-0.5,0.2-0.8c0-0.2-0.1-0.5-0.2-0.7
			c-0.1-0.1-0.3-0.2-0.5-0.2s-0.4,0.1-0.6,0.2S440.9,153.7,440.9,154.1z"/>
		<path class="st27" d="M443.8,155.4h-0.4v-3.6h0.4v1.3c0.2-0.2,0.4-0.4,0.7-0.4c0.2,0,0.3,0,0.5,0.1s0.3,0.2,0.4,0.3
			s0.2,0.2,0.2,0.4s0.1,0.3,0.1,0.5c0,0.4-0.1,0.7-0.3,1c-0.2,0.2-0.5,0.4-0.8,0.4s-0.6-0.1-0.7-0.4v0.4H443.8z M443.8,154.1
			c0,0.2,0,0.5,0.1,0.7s0.4,0.3,0.6,0.3s0.4-0.1,0.5-0.3s0.2-0.5,0.2-0.8s-0.1-0.6-0.2-0.8s-0.3-0.2-0.5-0.2s-0.4,0.1-0.5,0.3
			C443.9,153.6,443.8,153.8,443.8,154.1z"/>
		<path class="st27" d="M446.6,155.4h-0.4v-3.6h0.4v1.3c0.2-0.2,0.4-0.4,0.7-0.4c0.2,0,0.3,0,0.5,0.1c0.1,0.1,0.3,0.2,0.4,0.3
			s0.2,0.2,0.2,0.4s0.1,0.3,0.1,0.5c0,0.4-0.1,0.7-0.3,1c-0.2,0.2-0.5,0.4-0.8,0.4s-0.6-0.1-0.7-0.4v0.4H446.6z M446.6,154.1
			c0,0.2,0,0.5,0.1,0.7s0.4,0.3,0.6,0.3s0.4-0.1,0.5-0.3s0.2-0.5,0.2-0.8s-0.1-0.6-0.2-0.8s-0.3-0.2-0.5-0.2s-0.4,0.1-0.5,0.3
			C446.7,153.6,446.6,153.8,446.6,154.1z"/>
		<path class="st27" d="M449,156.4V156h0.5c0.1,0,0.1,0,0.1-0.1l0,0c0-0.1,0.1-0.2,0.1-0.3v-0.1l-1-2.6h0.5l0.5,1.5
			c0.1,0.2,0.1,0.4,0.2,0.6c0.1-0.2,0.1-0.4,0.2-0.6l0.6-1.5h0.4l-1,2.7c-0.1,0.2-0.1,0.4-0.2,0.6c-0.1,0.1-0.2,0.3-0.3,0.3
			c-0.1,0.1-0.2,0.1-0.4,0.1C449.2,156.4,449.1,156.4,449,156.4z"/>
	</g>
	
		<ellipse transform="matrix(0.1602 -0.9871 0.9871 0.1602 292.6865 632.9645)" class="st26" cx="518.3" cy="144.5" rx="11.8" ry="11.8"/>
	<g>
		<path class="st27" d="M507.7,162.9v-4h2.9v0.4h-2.3v1.2h2.2v0.4h-2.2v1.3h2.4v0.4h-3V162.9z"/>
		<path class="st27" d="M511.3,162.9v-4h0.4v4H511.3z"/>
		<path class="st27" d="M514.5,162l0.6,0.1c-0.1,0.3-0.2,0.5-0.4,0.7c-0.3,0.2-0.6,0.2-0.9,0.2c-0.4,0-0.8-0.1-1-0.4
			c-0.2-0.3-0.3-0.7-0.3-1.1c0-0.4,0.1-0.8,0.3-1.1c0.3-0.3,0.6-0.4,1-0.4s0.8,0.1,1,0.4c0.2,0.3,0.4,0.7,0.3,1.1v0.1h-2.2
			c0,0.3,0.1,0.5,0.2,0.8c0.1,0.2,0.3,0.2,0.6,0.2s0.3,0,0.4-0.1C514.3,162.4,514.5,162.2,514.5,162z M512.9,161.3h1.7
			c0-0.2-0.1-0.4-0.2-0.6c-0.1-0.2-0.4-0.4-0.7-0.3c-0.2,0-0.4,0.1-0.6,0.2C513,160.8,512.9,161,512.9,161.3z"/>
		<path class="st27" d="M516.4,162.9l-1.1-2.9h0.6l0.7,1.8c0.1,0.2,0.1,0.3,0.2,0.6c0-0.2,0.1-0.4,0.2-0.6l0.7-1.8h0.6l-1.1,2.9
			H516.4z"/>
		<path class="st27" d="M520.3,162.6c-0.2,0.1-0.3,0.2-0.6,0.3c-0.2,0.1-0.4,0.1-0.6,0.1c-0.3,0-0.5-0.1-0.8-0.2
			c-0.2-0.1-0.2-0.3-0.2-0.6c0-0.2,0-0.3,0.1-0.4c0.1-0.1,0.1-0.2,0.2-0.3c0.1-0.1,0.2-0.1,0.3-0.1c0.2,0,0.3,0,0.4-0.1
			c0.3,0,0.6-0.1,0.9-0.2V161c0-0.2,0-0.3-0.1-0.4c-0.2-0.1-0.3-0.2-0.6-0.2c-0.2,0-0.4,0-0.6,0.1c-0.1,0.1-0.2,0.3-0.2,0.4
			l-0.4-0.1c0-0.2,0.1-0.3,0.2-0.6c0.1-0.1,0.3-0.2,0.4-0.3c0.2-0.1,0.4-0.1,0.7-0.1c0.2,0,0.4,0,0.6,0.1c0.1,0.1,0.2,0.1,0.3,0.2
			c0.1,0.1,0.1,0.2,0.1,0.3v2c0,0.1,0.1,0.2,0.1,0.3h-0.6C520.4,162.9,520.4,162.7,520.3,162.6z M520.3,161.5
			c-0.3,0.1-0.5,0.2-0.8,0.2c-0.2,0-0.3,0.1-0.4,0.1s-0.1,0.1-0.2,0.1s-0.1,0.1-0.1,0.2c0,0.1,0,0.2,0.1,0.3s0.2,0.1,0.4,0.1
			s0.4,0,0.6-0.1l0.3-0.3c0-0.1,0.1-0.2,0.1-0.4L520.3,161.5L520.3,161.5z"/>
		<path class="st27" d="M522.6,162.5l0.1,0.4h-0.3c-0.2,0-0.3,0-0.4-0.1s-0.2-0.1-0.2-0.2c0-0.2-0.1-0.4-0.1-0.6v-1.7h-0.3V160h0.3
			v-0.7l0.4-0.3v1h0.4v0.3H522v1.9c0,0.1,0,0.1,0.1,0.1l0,0h0.2C522.5,162.6,522.5,162.6,522.6,162.5z"/>
		<path class="st27" d="M522.9,161.5c0-0.5,0.1-0.9,0.4-1.2c0.2-0.2,0.6-0.3,0.9-0.3c0.4,0,0.8,0.1,1,0.4c0.2,0.3,0.4,0.7,0.3,1.1
			c0,0.3-0.1,0.6-0.2,0.9c-0.1,0.2-0.3,0.4-0.4,0.6c-0.2,0.1-0.4,0.2-0.7,0.2c-0.4,0-0.8-0.1-1-0.4
			C523,162.3,522.9,161.9,522.9,161.5z M523.4,161.5c0,0.3,0.1,0.6,0.2,0.9c0.1,0.2,0.4,0.4,0.7,0.3c0.3,0,0.5-0.1,0.7-0.3
			s0.2-0.4,0.2-0.9c0-0.3-0.1-0.5-0.2-0.8c-0.1-0.2-0.3-0.2-0.6-0.2c-0.2,0-0.5,0.1-0.7,0.2C523.5,160.9,523.3,161.2,523.4,161.5z"
			/>
		<path class="st27" d="M526.1,162.9V160h0.4v0.4c0.1-0.2,0.2-0.3,0.3-0.4c0.1-0.1,0.2-0.1,0.3-0.1c0.2,0,0.4,0,0.6,0.1l-0.2,0.4
			c-0.2-0.1-0.5-0.1-0.7,0l-0.2,0.2c0,0.2-0.1,0.3-0.1,0.6v1.5h-0.4L526.1,162.9z"/>
	</g>
	<path class="st28" d="M515.1,149.1V142h2.4v7.3L515.1,149.1z M517.6,149.1V142h2.4v7.3L517.6,149.1z M522.9,149.1h-2.8v-7.3
		c0-0.1,0-0.1-0.1-0.1l0,0h-5c-0.1,0-0.1,0-0.1,0.1l0,0l0,0v7.3h-1.2v-9.4h9.4L522.9,149.1z M523.2,139.6h-9.5c-0.1,0-0.1,0-0.1,0.1
		l0,0l0,0v9.5c0,0.1,0,0.1,0.1,0.1l0,0h9.5c0.1,0,0.1,0,0.1-0.1l0,0l0,0L523.2,139.6z"/>
	<path class="st28" d="M516.9,140.8h1.7v-0.1L516.9,140.8C516.9,140.7,516.6,140.7,516.9,140.8z"/>
	<path class="st28" d="M521.4,144.3l0.2-0.2l0.2,0.2h0.1v-0.1l-0.3-0.3h-0.1l-0.4,0.4v0.1L521.4,144.3L521.4,144.3z"/>
	<path class="st28" d="M521.5,145.4L521.5,145.4l0.4-0.4c0,0,0.1-0.1,0-0.1h-0.1l-0.2,0.2l-0.2-0.2h-0.1v0.1l0,0L521.5,145.4z"/>
	<g>
		<path class="st27" d="M514.5,169.7l1.1-1.5l-1-1.4h0.7l0.4,0.7c0.1,0.1,0.1,0.2,0.2,0.3c0.1-0.1,0.1-0.2,0.2-0.3l0.4-0.7h0.6
			l-1,1.3l1.1,1.5h-0.6l-0.6-0.9l-0.1-0.2l-0.8,1.1h-0.8L514.5,169.7z"/>
		<path class="st27" d="M519.1,169.7v-1h-1.8v-0.4l1.9-2.5h0.4v2.5h0.6v0.4h-0.6v1H519.1z M519.1,168.2v-1.8l-1.2,1.8H519.1z"/>
	</g>
	<g id="reception">
		<circle class="st26" cx="448.6" cy="412.6" r="11.5"/>
		<g>
			<path class="st27" d="M436.5,430.8V427h1.7c0.3,0,0.6,0,0.7,0.1s0.3,0.2,0.4,0.3c0.1,0.2,0.2,0.3,0.2,0.5s-0.1,0.5-0.2,0.6
				c-0.2,0.2-0.5,0.3-0.8,0.3c0.1,0.1,0.2,0.1,0.3,0.2c0.2,0.2,0.3,0.3,0.4,0.5l0.6,1.1h-0.6l-0.5-0.8c-0.1-0.2-0.3-0.4-0.3-0.5
				s-0.2-0.2-0.2-0.2c-0.1,0-0.1-0.1-0.2-0.1h-0.9v1.7h-0.5L436.5,430.8z M437.1,428.7h1.1c0.2,0,0.4,0,0.5-0.1
				c0.1,0,0.2-0.1,0.3-0.2c0.1-0.1,0.1-0.2,0.1-0.3c0-0.2-0.1-0.3-0.2-0.4c-0.2-0.1-0.4-0.2-0.6-0.2h-1.2L437.1,428.7L437.1,428.7z"
				/>
			<path class="st27" d="M442.2,430l0.5,0.1c0,0.3-0.2,0.5-0.4,0.6c-0.3,0.1-0.5,0.2-0.8,0.2c-0.4,0-0.7-0.1-1-0.4
				c-0.2-0.3-0.3-0.7-0.3-1.1s0.1-0.8,0.3-1.1c0.2-0.3,0.6-0.4,1-0.4s0.7,0.1,0.9,0.4c0.2,0.3,0.3,0.7,0.3,1.1v0.1h-2.1
				c0,0.3,0.1,0.5,0.2,0.7s0.3,0.2,0.5,0.2s0.3,0,0.4-0.1C442.1,430.3,442.2,430.2,442.2,430z M440.8,429.1h1.6
				c0-0.2-0.1-0.4-0.2-0.5c-0.1-0.2-0.4-0.3-0.6-0.3s-0.4,0.1-0.5,0.2C440.9,428.7,440.8,428.9,440.8,429.1L440.8,429.1z"/>
			<path class="st27" d="M445.1,429.8l0.4,0.1c0,0.3-0.2,0.6-0.4,0.7c-0.2,0.2-0.5,0.3-0.7,0.3c-0.4,0-0.7-0.1-0.9-0.4
				c-0.2-0.3-0.3-0.7-0.3-1.1c0-0.3,0-0.5,0.1-0.7s0.2-0.4,0.4-0.5c0.2-0.1,0.4-0.2,0.6-0.2c0.3,0,0.5,0.1,0.7,0.2s0.3,0.4,0.3,0.6
				l-0.4,0.1c0-0.2-0.1-0.3-0.2-0.4s-0.2-0.1-0.4-0.1c-0.2,0-0.4,0.1-0.5,0.2c-0.3,0.5-0.3,1.2,0,1.7c0.1,0.2,0.3,0.2,0.5,0.2
				s0.3-0.1,0.4-0.2C445,430.2,445.1,430.1,445.1,429.8z"/>
			<path class="st27" d="M447.9,430l0.5,0.1c0,0.3-0.2,0.5-0.4,0.6c-0.3,0.1-0.5,0.2-0.8,0.2c-0.4,0-0.7-0.1-0.9-0.4
				c-0.2-0.3-0.3-0.7-0.3-1.1s0.1-0.8,0.3-1.1c0.2-0.3,0.6-0.4,0.9-0.4c0.4,0,0.7,0.1,1,0.4c0.2,0.3,0.3,0.7,0.3,1.1v0.1h-2.1
				c0,0.3,0.1,0.5,0.2,0.7s0.3,0.2,0.5,0.2s0.3,0,0.4-0.1C447.7,430.3,447.8,430.2,447.9,430z M446.4,429.1h1.6
				c0-0.2-0.1-0.4-0.2-0.5c-0.1-0.2-0.4-0.3-0.6-0.3s-0.4,0.1-0.5,0.2C446.4,428.7,446.4,428.9,446.4,429.1L446.4,429.1z"/>
			<path class="st27" d="M449,431.9v-3.8h0.4v0.3l0.3-0.3c0.1-0.1,0.3-0.1,0.4-0.1c0.2,0,0.4,0.1,0.6,0.2s0.3,0.3,0.4,0.5
				c0.1,0.5,0.1,1,0,1.5c-0.1,0.2-0.2,0.4-0.4,0.5c-0.2,0.1-0.4,0.2-0.6,0.2c-0.1,0-0.3,0-0.4-0.1s-0.2-0.1-0.3-0.2v1.4H449V431.9z
				 M449.4,429.4c0,0.3,0.1,0.5,0.2,0.7c0.1,0.1,0.3,0.2,0.5,0.2s0.4-0.1,0.5-0.3c0.1-0.3,0.2-0.5,0.2-0.8s-0.1-0.6-0.2-0.8
				c-0.1-0.2-0.3-0.2-0.5-0.2s-0.4,0.1-0.5,0.3C449.5,428.8,449.4,429.1,449.4,429.4z"/>
			<path class="st27" d="M453,430.4l0.1,0.4h-0.3c-0.2,0-0.3,0-0.4-0.1s-0.2-0.1-0.2-0.2c0-0.2-0.1-0.4-0.1-0.5v-1.6h-0.3v-0.3h0.3
				v-0.6l0.4-0.3v1h0.4v0.3h-0.4v1.8c0,0.1,0,0.1,0.1,0.1l0,0h0.2C452.8,430.4,452.9,430.4,453,430.4z"/>
			<path class="st27" d="M453.4,427.5V427h0.4v0.5H453.4z M453.4,430.8v-2.7h0.4v2.7H453.4z"/>
			<path class="st27" d="M454.4,429.4c0-0.4,0.1-0.9,0.4-1.2c0.2-0.2,0.5-0.3,0.8-0.3c0.4,0,0.7,0.1,0.9,0.4
				c0.2,0.3,0.3,0.7,0.3,1.1c0,0.3-0.1,0.6-0.2,0.8c-0.1,0.2-0.3,0.4-0.4,0.5c-0.2,0.1-0.4,0.2-0.6,0.2c-0.4,0-0.7-0.1-0.9-0.4
				C454.5,430.2,454.4,429.8,454.4,429.4z M454.9,429.4c0,0.3,0.1,0.6,0.2,0.8c0.1,0.2,0.4,0.3,0.6,0.3s0.5-0.1,0.6-0.3
				c0.2-0.2,0.2-0.4,0.2-0.8c0-0.3-0.1-0.5-0.2-0.7s-0.3-0.2-0.5-0.2s-0.4,0.1-0.6,0.2C455,428.9,454.9,429.2,454.9,429.4
				L454.9,429.4z"/>
			<path class="st27" d="M457.5,430.8v-2.7h0.4v0.4c0.2-0.3,0.5-0.4,0.8-0.4c0.2,0,0.3,0,0.4,0.1s0.2,0.1,0.3,0.2
				c0.1,0.1,0.1,0.2,0.1,0.3v2.1h-0.3v-1.7c0-0.2,0-0.3-0.1-0.4c0-0.1-0.1-0.2-0.2-0.2c-0.1-0.1-0.2-0.1-0.3-0.1
				c-0.2,0-0.4,0.1-0.5,0.2c-0.2,0.2-0.2,0.5-0.2,0.7v1.5H457.5z"/>
		</g>
		<g id="Outline_Icons-2-2">
			<circle class="st29" cx="446" cy="409" r="1.6"/>
			<path class="st29" d="M448.6,411.4h-4.9c-0.1,1.3,0.5,2.6,1.6,3.4v2.8h1.8v-2.8C448,413.9,448.6,412.7,448.6,411.4z"/>
			<line class="st29" x1="448.1" y1="413.2" x2="453.5" y2="413.2"/>
			<circle class="st29" cx="451.1" cy="409.2" r="1.2"/>
			<path class="st29" d="M449.2,413.2c0-1.1,0.9-2,2.1-2c0,0,0,0,0.1,0c1.1,0,2,0.9,2,2l0,0"/>
		</g>
	</g>
	<path class="st30" d="M687.3,296.5v-4.1h-1.5v-0.6h3.8v0.6H688v4.1H687.3z"/>
	<path class="st30" d="M689.1,294.9c-0.1-0.5,0.1-1.1,0.5-1.4c0.3-0.2,0.7-0.4,1.1-0.4c0.4,0,0.9,0.2,1.2,0.5s0.5,0.8,0.5,1.2
		c0,0.4-0.1,0.7-0.2,1.1c-0.1,0.3-0.3,0.5-0.6,0.6c-0.2,0.2-0.5,0.3-0.8,0.2c-0.4,0-0.9-0.2-1.2-0.5
		C689.2,295.9,689,295.4,689.1,294.9z M689.7,294.9c-0.1,0.3,0.1,0.7,0.3,0.9c0.4,0.4,1.1,0.4,1.5,0l0,0c0.2-0.3,0.4-0.7,0.3-1.1
		c0.1-0.3-0.1-0.7-0.3-0.9c-0.4-0.4-1.1-0.4-1.5,0l0,0C689.8,294.1,689.7,294.5,689.7,294.9z"/>
	<path class="st30" d="M693,292.5v-0.7h0.6v0.7H693z M693,296.5v-3.4h0.6v3.4H693z"/>
	<path class="st30" d="M694.5,296.5v-4.7h0.6v4.7H694.5z"/>
	<path class="st30" d="M698.4,295.5l0.6,0.1c-0.1,0.3-0.3,0.6-0.5,0.8c-0.3,0.2-0.6,0.3-0.9,0.3c-0.4,0-0.9-0.2-1.2-0.5
		c-0.6-0.8-0.6-1.9,0-2.7c0.3-0.3,0.7-0.5,1.2-0.5c0.4,0,0.8,0.2,1.1,0.5c0.3,0.4,0.5,0.9,0.5,1.4v0.2h-2.6c0,0.3,0.1,0.6,0.3,0.9
		c0.2,0.2,0.5,0.3,0.8,0.3c0.2,0,0.4-0.1,0.5-0.1C698.1,295.9,698.2,295.7,698.4,295.5z M696.4,294.5h2c0-0.5-0.4-1-0.9-1.1
		c-0.3,0-0.5,0.1-0.7,0.3C696.6,293.9,696.4,294.2,696.4,294.5z"/>
	<path class="st30" d="M701,296.1l0.1,0.5c-0.1,0-0.3,0.1-0.5,0.1s-0.4,0-0.5-0.1c-0.1,0-0.2-0.2-0.2-0.3c-0.1-0.2-0.1-0.4-0.1-0.7
		v-2h-0.5v-0.5h0.5v-0.8l0.6-0.4v1.2h0.6v0.5h-0.6v2.3c0,0.1,0.1,0.1,0.1,0.2s0.2,0.1,0.2,0.1C700.7,296.1,700.8,296.1,701,296.1z"
		/>
	<circle class="st26" cx="693.4" cy="274.9" r="14.3"/>
	<g id="Outline_Icons-4">
		<path class="st31" d="M698.7,274.7c0,0.3-0.3,0.6-0.6,0.6h-2.9V269c0-0.7,0.5-1.2,1.2-1.2h1.2c0.7,0,1.2,0.5,1.2,1.2l0,0
			L698.7,274.7L698.7,274.7z"/>
		<path class="st31" d="M690.5,281h5.8v-3.5l1.7-1.2v-1.2h-9.8c-0.1,1.5,1.1,2.8,2.6,2.9h0.2L690.5,281z"/>
		<rect x="687.6" y="274.1" class="st31" width="7.5" height="1.2"/>
		<circle class="st31" cx="697.2" cy="269.8" r="0.6"/>
	</g>
	<path class="st30" d="M270.4,308.4v-4.1h-1.5v-0.6h3.8v0.6h-1.5v4.1H270.4z"/>
	<path class="st30" d="M272.2,306.7c-0.1-0.5,0.1-1.1,0.5-1.4c0.3-0.2,0.7-0.4,1.1-0.4s0.9,0.2,1.2,0.5c0.3,0.3,0.5,0.8,0.5,1.2
		c0,0.4-0.1,0.7-0.2,1.1c-0.1,0.3-0.3,0.5-0.6,0.6c-0.2,0.2-0.5,0.2-0.8,0.2c-0.4,0-0.9-0.2-1.2-0.5
		C272.3,307.7,272.2,307.2,272.2,306.7z M272.8,306.7c-0.1,0.3,0.1,0.7,0.3,0.9c0.4,0.4,1.1,0.4,1.5,0l0,0c0.2-0.3,0.4-0.7,0.3-1.1
		c0.1-0.3-0.1-0.7-0.3-0.9c-0.4-0.4-1.1-0.4-1.5,0l0,0C272.9,306,272.8,306.4,272.8,306.7z"/>
	<path class="st30" d="M276.1,304.4v-0.7h0.6v0.7H276.1z M276.1,308.4V305h0.6v3.4H276.1z"/>
	<path class="st30" d="M277.6,308.4v-4.7h0.6v4.7H277.6z"/>
	<path class="st30" d="M281.5,307.3l0.6,0.1c-0.1,0.3-0.3,0.6-0.5,0.8c-0.3,0.2-0.6,0.3-0.9,0.3c-0.4,0-0.9-0.2-1.2-0.5
		c-0.6-0.8-0.6-1.9,0-2.7c0.3-0.3,0.7-0.5,1.2-0.5c0.4,0,0.8,0.2,1.1,0.5c0.3,0.4,0.5,0.9,0.5,1.4v0.2h-2.6c0,0.3,0.1,0.6,0.3,0.9
		c0.2,0.2,0.5,0.3,0.8,0.3c0.2,0,0.4-0.1,0.5-0.1C281.2,307.8,281.3,307.5,281.5,307.3z M279.5,306.3h2c0-0.5-0.4-1-0.9-1.1
		c-0.3,0-0.5,0.1-0.7,0.3C279.7,305.8,279.5,306,279.5,306.3L279.5,306.3z"/>
	<path class="st30" d="M284.1,307.9l0.1,0.5c-0.1,0-0.3,0.1-0.5,0.1s-0.4,0-0.5-0.1c-0.1,0-0.2-0.2-0.2-0.3
		c-0.1-0.2-0.1-0.4-0.1-0.7v-2h-0.5V305h0.5v-0.8l0.6-0.4v1.2h0.6v0.5h-0.6v2.3c0,0.1,0.1,0.1,0.1,0.2s0.2,0.1,0.2,0.1
		C283.9,307.9,283.9,307.9,284.1,307.9z"/>
	<circle class="st26" cx="276.6" cy="286.7" r="14.3"/>
	<g id="Outline_Icons-4-2">
		<path class="st31" d="M281.8,286.5c0,0.3-0.3,0.6-0.6,0.6h-2.9v-6.3c0-0.7,0.5-1.2,1.2-1.2h1.2c0.7,0,1.2,0.5,1.2,1.2l0,0
			L281.8,286.5L281.8,286.5z"/>
		<path class="st31" d="M273.7,292.8h5.8v-3.5l1.7-1.2v-1.2h-9.8c-0.1,1.5,1.1,2.8,2.6,2.9h0.2L273.7,292.8z"/>
		<rect x="270.8" y="285.9" class="st31" width="7.5" height="1.2"/>
		<circle class="st31" cx="280.3" cy="281.6" r="0.6"/>
	</g>
	<path class="st30" d="M154.1,307.8v-4.1h-1.5v-0.6h3.8v0.6h-1.5v4.1H154.1z"/>
	<path class="st30" d="M155.9,306.1c-0.1-0.5,0.1-1.1,0.5-1.4c0.3-0.2,0.7-0.4,1.1-0.4c0.4,0,0.9,0.2,1.2,0.5s0.5,0.8,0.5,1.2
		c0,0.4-0.1,0.7-0.2,1.1c-0.1,0.3-0.3,0.5-0.6,0.6c-0.2,0.2-0.5,0.3-0.8,0.2c-0.4,0-0.9-0.2-1.2-0.5
		C156.1,307.1,155.9,306.6,155.9,306.1z M156.6,306.1c-0.1,0.3,0.1,0.7,0.3,0.9c0.4,0.4,1.1,0.4,1.5,0l0,0c0.2-0.3,0.4-0.7,0.3-1.1
		c0.1-0.3-0.1-0.7-0.3-0.9c-0.4-0.4-1.1-0.4-1.5,0l0,0C156.6,305.4,156.5,305.8,156.6,306.1z"/>
	<path class="st30" d="M159.8,303.8v-0.7h0.6v0.7H159.8z M159.8,307.8v-3.4h0.6v3.4H159.8z"/>
	<path class="st30" d="M161.4,307.8v-4.7h0.6v4.7H161.4z"/>
	<path class="st30" d="M165.2,306.7l0.6,0.1c-0.1,0.3-0.3,0.6-0.5,0.8c-0.3,0.2-0.6,0.3-0.9,0.3c-0.4,0-0.9-0.2-1.2-0.5
		c-0.6-0.8-0.6-1.9,0-2.7c0.3-0.3,0.7-0.5,1.2-0.5c0.4,0,0.8,0.2,1.1,0.5c0.3,0.4,0.5,0.9,0.5,1.4v0.2h-2.6c0,0.3,0.1,0.6,0.3,0.9
		c0.2,0.2,0.5,0.3,0.8,0.3c0.2,0,0.4-0.1,0.5-0.1C165,307.2,165.1,306.9,165.2,306.7z M163.3,305.7h2c0-0.5-0.4-1-0.9-1.1
		c-0.3,0-0.5,0.1-0.7,0.3C163.4,305.2,163.3,305.4,163.3,305.7L163.3,305.7z"/>
	<path class="st30" d="M167.8,307.3l0.1,0.5c-0.1,0-0.3,0.1-0.5,0.1s-0.4,0-0.5-0.1c-0.1,0-0.2-0.2-0.2-0.3
		c-0.1-0.2-0.1-0.4-0.1-0.7v-2h-0.5v-0.5h0.5v-0.8l0.6-0.4v1.2h0.6v0.5h-0.6v2.3c0,0.1,0.1,0.1,0.1,0.2s0.2,0.1,0.2,0.1
		C167.6,307.3,167.6,307.3,167.8,307.3z"/>
	<circle class="st26" cx="160.3" cy="286.1" r="14.3"/>
	<g id="Outline_Icons-4-3">
		<path class="st31" d="M165.5,285.9c0,0.3-0.3,0.6-0.6,0.6H162v-6.3c0-0.7,0.5-1.2,1.2-1.2h1.2c0.7,0,1.2,0.5,1.2,1.2l0,0
			L165.5,285.9L165.5,285.9z"/>
		<path class="st31" d="M157.4,292.2h5.8v-3.5l1.7-1.2v-1.2h-9.8c-0.1,1.5,1.1,2.8,2.6,2.9h0.2L157.4,292.2z"/>
		<rect x="154.5" y="285.4" class="st31" width="7.5" height="1.2"/>
		<circle class="st31" cx="164" cy="281" r="0.6"/>
	</g>
	<circle class="st32" cx="214" cy="443.1" r="12.7"/>
	<g>
		<path class="st33" d="M207.3,461.8l0.5-0.1c0,0.2,0,0.4,0.2,0.5c0.1,0.1,0.3,0.2,0.4,0.3c0.2,0.1,0.4,0.1,0.6,0.1
			c0.2,0,0.4,0,0.6-0.1c0.1,0,0.3-0.1,0.3-0.3c0.1-0.1,0.1-0.2,0.1-0.3c0-0.1-0.1-0.2-0.1-0.3c-0.1-0.1-0.2-0.2-0.4-0.2
			c-0.2-0.1-0.5-0.2-0.7-0.2c-0.3,0-0.6-0.1-0.8-0.3c-0.2-0.1-0.3-0.2-0.5-0.4c-0.1-0.1-0.2-0.3-0.2-0.5s0.1-0.4,0.2-0.6
			c0.1-0.2,0.3-0.3,0.5-0.4c0.3-0.1,0.5-0.1,0.8-0.2c0.3,0,0.5,0.1,0.8,0.2c0.2,0.1,0.4,0.3,0.6,0.5c0.1,0.2,0.2,0.4,0.2,0.7
			l-0.5,0.1c0-0.2-0.1-0.5-0.3-0.6c-0.2-0.2-0.5-0.3-0.7-0.2c-0.3,0-0.5,0-0.7,0.2s-0.3,0.5-0.1,0.8c0,0,0,0,0.1,0.1
			c0.3,0.1,0.6,0.2,0.9,0.3c0.3,0.1,0.6,0.1,0.9,0.3c0.2,0.1,0.4,0.3,0.6,0.5c0.1,0.2,0.2,0.4,0.2,0.6s-0.1,0.4-0.2,0.6
			c-0.1,0.2-0.3,0.4-0.6,0.5s-0.5,0.2-0.8,0.2s-0.7,0-1-0.2c-0.3-0.1-0.5-0.3-0.6-0.5C207.4,462.3,207.4,462,207.3,461.8z"/>
		<path class="st33" d="M212.5,462.6l0.1,0.5c-0.1,0-0.3,0.1-0.4,0.1c-0.2,0-0.3,0-0.5-0.1c-0.1,0-0.2-0.1-0.2-0.2
			c-0.1-0.2-0.1-0.4-0.1-0.6v-1.7H211v-0.4h0.4v-0.7l0.5-0.3v1.1h0.5v0.4h-0.5v2c0,0.1,0.1,0.1,0.1,0.1s0.1,0.1,0.2,0.1
			C212.3,462.7,212.4,462.6,212.5,462.6z"/>
		<path class="st33" d="M215,462.7c-0.2,0.2-0.4,0.3-0.6,0.3c-0.2,0.1-0.4,0.1-0.6,0.1c-0.3,0-0.6-0.1-0.8-0.2
			c-0.2-0.2-0.3-0.4-0.3-0.6c0-0.1,0-0.3,0.1-0.4s0.2-0.2,0.3-0.3c0.1-0.1,0.3-0.1,0.4-0.2c0.1,0,0.2-0.1,0.5-0.1s0.6-0.1,0.9-0.2
			V461c0-0.2,0-0.3-0.2-0.5c-0.2-0.1-0.4-0.2-0.6-0.2c-0.2,0-0.4,0-0.5,0.1c-0.2,0.1-0.3,0.3-0.3,0.5l-0.5-0.1
			c0-0.2,0.1-0.4,0.2-0.5c0.1-0.1,0.3-0.2,0.5-0.3c0.2-0.1,0.5-0.1,0.7-0.1s0.4,0,0.6,0.1c0.1,0,0.3,0.1,0.3,0.2l0.2,0.3v1.1
			c0,0.3,0,0.6,0.1,0.9c0,0.1,0.1,0.2,0.1,0.3L215,462.7C215.1,463,215,462.8,215,462.7z M215,461.5c-0.3,0.1-0.6,0.1-0.9,0.2
			c-0.2,0-0.3,0.1-0.5,0.1c-0.1,0-0.2,0.1-0.2,0.2s-0.1,0.1-0.1,0.2s0.1,0.3,0.2,0.3c0.1,0.1,0.3,0.1,0.5,0.1s0.4,0,0.5-0.1
			s0.3-0.2,0.3-0.3c0.1-0.2,0.1-0.3,0.1-0.5L215,461.5z"/>
		<path class="st33" d="M216.3,459.5v-0.6h0.5v0.6H216.3z M216.3,463.1v-3h0.5v3H216.3z"/>
		<path class="st33" d="M217.6,463.1v-3h0.5v0.5c0.1-0.2,0.2-0.3,0.3-0.5c0.1-0.1,0.2-0.1,0.3-0.1c0.2,0,0.4,0.1,0.5,0.2l-0.2,0.5
			c-0.1-0.1-0.3-0.1-0.4-0.1c-0.1,0-0.2,0-0.3,0.1s-0.2,0.2-0.2,0.3c-0.1,0.2-0.1,0.4-0.1,0.6v1.6L217.6,463.1z"/>
		<path class="st33" d="M219.3,462.2l0.5-0.1c0,0.2,0.1,0.3,0.2,0.5c0.2,0.1,0.4,0.2,0.6,0.2c0.2,0,0.4,0,0.5-0.2
			c0.1-0.1,0.2-0.2,0.2-0.3c0-0.1-0.1-0.2-0.2-0.3c-0.2-0.1-0.3-0.2-0.5-0.2c-0.4-0.1-0.6-0.2-0.8-0.2c-0.1,0-0.3-0.1-0.3-0.3
			c-0.2-0.2-0.2-0.6,0-0.8c0.1-0.1,0.1-0.2,0.2-0.3c0.1-0.1,0.2-0.1,0.3-0.2c0.1,0,0.3-0.1,0.5-0.1s0.4,0,0.6,0.1
			c0.2,0,0.3,0.1,0.4,0.3c0.1,0.1,0.2,0.3,0.2,0.5l-0.5,0.1c0-0.1-0.1-0.3-0.2-0.3c-0.1-0.1-0.3-0.1-0.5-0.1s-0.4,0-0.5,0.1
			s-0.2,0.2-0.2,0.3c0,0.1,0,0.1,0.1,0.2s0.1,0.1,0.2,0.1s0.2,0.1,0.5,0.1c0.3,0.1,0.6,0.2,0.7,0.2c0.1,0,0.3,0.1,0.3,0.3
			c0.1,0.1,0.1,0.3,0.1,0.5s-0.1,0.4-0.2,0.5c-0.1,0.2-0.3,0.3-0.5,0.3c-0.2,0.1-0.4,0.1-0.6,0.1c-0.3,0-0.6-0.1-0.9-0.2
			C219.5,462.7,219.4,462.4,219.3,462.2z"/>
	</g>
	<g id="Outline_Icons-9-2-2">
		<line class="st34" x1="208.6" y1="447.5" x2="218.3" y2="447.5"/>
		<polyline class="st34" points="216.6,447.5 216.6,445.8 214.9,445.8 214.9,444.1 213.2,444.1 213.2,442.4 211.5,442.4 
			211.5,440.7 208.6,440.7 		"/>
		<line class="st34" x1="213.6" y1="437.9" x2="218.9" y2="443.1"/>
		<polyline class="st34" points="213.6,439.9 213.6,437.9 215.8,437.9 		"/>
		<polyline class="st34" points="218.9,441 218.9,443.1 216.7,443.1 		"/>
	</g>
	<g class="st23">
		<path class="st33" d="M86.8,458.6v-0.5h1.8v1.6c-0.3,0.2-0.6,0.4-0.9,0.5c-0.3,0.1-0.6,0.2-0.9,0.2c-0.4,0-0.8-0.1-1.2-0.3
			c-0.3-0.2-0.6-0.4-0.8-0.8c-0.2-0.3-0.3-0.7-0.3-1.2c0-0.4,0.1-0.8,0.3-1.2s0.4-0.6,0.8-0.8c0.3-0.2,0.7-0.3,1.1-0.3
			c0.3,0,0.6,0.1,0.9,0.2c0.3,0.1,0.5,0.2,0.6,0.4c0.1,0.2,0.3,0.4,0.3,0.7l-0.5,0.1c-0.1-0.2-0.1-0.4-0.2-0.5
			c-0.1-0.1-0.2-0.2-0.4-0.3s-0.4-0.1-0.6-0.1c-0.3,0-0.5,0-0.7,0.1s-0.3,0.2-0.5,0.3c-0.1,0.1-0.2,0.3-0.3,0.4
			c-0.1,0.3-0.2,0.6-0.2,0.9c0,0.4,0.1,0.7,0.2,1c0.1,0.3,0.3,0.5,0.6,0.6s0.5,0.2,0.8,0.2c0.2,0,0.5,0,0.7-0.1s0.4-0.2,0.5-0.3
			v-0.8H86.8z"/>
		<path class="st33" d="M89.4,461.5l-0.1-0.5c0.1,0,0.2,0,0.3,0s0.2,0,0.3-0.1c0.1,0,0.1-0.1,0.2-0.2c0-0.1,0.1-0.2,0.2-0.4v-0.1
			l-1.2-3.2h0.6l0.7,1.8c0.1,0.2,0.2,0.5,0.2,0.7c0.1-0.2,0.1-0.5,0.2-0.7l0.7-1.8H92l-1.2,3.2c-0.1,0.3-0.2,0.6-0.3,0.7
			c-0.1,0.2-0.2,0.3-0.3,0.4c-0.1,0.1-0.3,0.1-0.4,0.1C89.6,461.6,89.5,461.5,89.4,461.5z"/>
		<path class="st33" d="M92.5,460.3v-3.2H93v0.4c0.1-0.2,0.2-0.3,0.4-0.4c0.2-0.1,0.4-0.1,0.6-0.1c0.2,0,0.4,0,0.6,0.1
			s0.3,0.2,0.3,0.4c0.2-0.4,0.6-0.6,1-0.6c0.3,0,0.6,0.1,0.7,0.3c0.2,0.2,0.3,0.4,0.3,0.8v2.2h-0.5v-2c0-0.2,0-0.4-0.1-0.5
			s-0.1-0.2-0.2-0.2c-0.1-0.1-0.2-0.1-0.3-0.1c-0.2,0-0.4,0.1-0.6,0.2c-0.1,0.1-0.2,0.4-0.2,0.7v1.8h-0.5v-2c0-0.2,0-0.4-0.1-0.5
			s-0.2-0.2-0.4-0.2s-0.3,0-0.4,0.1c-0.1,0.1-0.2,0.2-0.3,0.3c-0.1,0.2-0.1,0.4-0.1,0.7v1.6h-0.7V460.3z"/>
	</g>
	<circle class="st32" cx="90.8" cy="439.8" r="13.2"/>
	<path class="st35" d="M81.7,439.1c0.4-0.7,0.5-0.8,1.5-0.8c-0.1-1.3,0.1-2.3,1.8-2c0-0.3,0-0.5,0-0.8c0-0.5,0.3-1,0.8-1
		c0.4-0.1,0.9-0.1,1.3,0c0.5,0.1,0.9,0.6,0.8,1.1c0,0.7,0,1.5,0,2.2v0.4h5.6v-2.3c0-1.1,0.4-1.4,1.4-1.4c0.2,0,0.4,0,0.5,0
		c0.6,0,1,0.5,1,1.1c0,0.1,0,0.2,0,0.4c0.6,0,1.3-0.2,1.6,0.5c0.2,0.6,0.3,1.2,0.3,1.8c0.6-0.1,1.2,0.3,1.4,0.9v1.3
		c-0.2,0.6-0.9,0.9-1.5,0.8c0.1,1.3-0.1,2.4-1.8,2.1c0,0.2,0,0.4,0,0.6c0,0.1,0,0.3,0,0.4c-0.1,0.7-0.8,1-1.9,0.9
		c-0.6,0-1.1-0.5-1-1.1c0-0.8,0-1.6,0-2.4c0-0.1,0-0.3,0-0.4H88v2.1c0,0.2,0,0.5,0,0.7c0,0.6-0.5,1.1-1.1,1.1h-0.1
		c-0.2,0-0.4,0-0.6,0c-0.6,0.1-1.1-0.4-1.2-1c0-0.1,0-0.1,0-0.2s0-0.2,0-0.3c-0.6,0-1.3,0.2-1.6-0.5c-0.2-0.6-0.3-1.2-0.3-1.8
		c-0.6,0.1-1.2-0.3-1.4-0.9V439.1z M87.4,439.8c0-1.4,0-2.7,0-4.1c0-0.5-0.1-0.6-0.6-0.6c-0.1,0-0.2,0-0.4,0c-0.6,0-0.7,0.1-0.7,0.7
		c0,2.6,0,5.1,0,7.7c0,1.1,0,1.1,1,1c0.5,0,0.7-0.1,0.7-0.7C87.4,442.5,87.4,441.1,87.4,439.8z M94.2,439.7c0,1.4,0,2.8,0,4.2
		c0,0.5,0.1,0.6,0.6,0.6c0.1,0,0.2,0,0.4,0c0.6,0,0.7-0.1,0.7-0.7c0-2.5,0-5.1,0-7.6c0-1.1,0-1.1-1.1-1.1c-0.5,0-0.6,0.1-0.6,0.6
		C94.2,437,94.2,438.4,94.2,439.7L94.2,439.7z M88.1,438.8v1.7h5.5v-1.7H88.1z M96.6,442.6c0.2,0,0.5,0,0.7,0s0.5-0.1,0.5-0.4v-0.1
		c0-1.7,0-3.4,0-5.1c0-0.2-0.2-0.4-0.4-0.5c0,0,0,0-0.1,0c-0.2,0-0.5,0-0.7,0V442.6z M85,442.9v-6.1h-0.4c-0.7,0-0.8,0.1-0.8,0.8
		v4.4c0,0.8,0.1,0.9,0.9,0.9C84.8,443,84.9,443,85,442.9L85,442.9z M98.4,440.5c0.7,0.1,0.8,0,0.8-0.7c0-0.1,0-0.2,0-0.4
		c0-0.6-0.2-0.7-0.8-0.6V440.5z M83.2,439c-0.7-0.1-0.8,0-0.8,0.7c0,0.1,0,0.2,0,0.3c0,0.6,0.1,0.7,0.8,0.6V439z"/>
</g>
</svg>
