<svg width="48" height="42" viewBox="0 0 48 42" fill="none" xmlns="http://www.w3.org/2000/svg">
<path fill-rule="evenodd" clip-rule="evenodd" d="M47.7299 38.9635L25.7299 0.963451C25.344 0.385372 24.6949 0.0382233 23.9999 0.0382233C23.3049 0.0382233 22.6558 0.385372 22.2699 0.963451L0.269903 38.9635C-0.08718 39.5819 -0.0873757 40.3439 0.26939 40.9626C0.626155 41.5812 1.28574 41.9627 1.9999 41.9635H45.9999C46.7141 41.9627 47.3736 41.5812 47.7304 40.9626C48.0872 40.3439 48.087 39.5819 47.7299 38.9635ZM26.4122 13.9637L25.4662 27.1637H22.5342L21.6422 13.9637H26.4122ZM24.0002 35.9641C22.3798 35.9641 21.0662 34.6505 21.0662 33.0301C21.0662 31.4097 22.3798 30.0961 24.0002 30.0961C25.6206 30.0961 26.9342 31.4097 26.9342 33.0301C26.9342 34.6505 25.6206 35.9641 24.0002 35.9641Z" fill="#6A4F00"/>
</svg>
