<svg id="Layer_1" data-name="Layer 1" xmlns="http://www.w3.org/2000/svg" viewBox="0 0 15.494 15.494"><defs><style>.cls-1{fill:#fff}</style></defs><title>Date icon</title><g id="My_day_icons" data-name="My day icons"><g id="Filled_Icons" data-name="Filled Icons"><g id="Group_3706" data-name="Group 3706"><path id="Rectangle_2549" data-name="Rectangle 2549" class="cls-1" d="M7.747 10.329h2.582v1.937H7.747z"/><path id="Rectangle_2550" data-name="Rectangle 2550" class="cls-1" d="M4.519 10.329h2.582v1.937H4.519z"/><path id="Rectangle_2551" data-name="Rectangle 2551" class="cls-1" d="M7.747 7.747h2.582v1.937H7.747z"/><path id="Rectangle_2552" data-name="Rectangle 2552" class="cls-1" d="M4.519 7.747h2.582v1.937H4.519z"/><path id="Path_19446" data-name="Path 19446" class="cls-1" d="M0 15.171a.323.323 0 0 0 .323.323h14.848a.323.323 0 0 0 .323-.323V5.165H0zm1.614-4.842a.323.323 0 1 1 0-.646h2.26V7.747h-2.26a.323.323 0 0 1 0-.646h2.26v-.968a.323.323 0 0 1 .646 0V7.1H7.1v-.967a.323.323 0 0 1 .646 0V7.1h2.582v-.967a.323.323 0 1 1 .646 0V7.1h2.906a.323.323 0 1 1 0 .646h-2.905v1.938h2.905a.323.323 0 1 1 0 .646h-2.905v1.935h2.905a.323.323 0 0 1 0 .646h-2.905v.968a.323.323 0 1 1-.646 0v-.968H7.747v.968a.323.323 0 1 1-.646 0v-.968H4.519v.968a.323.323 0 1 1-.646 0v-.968H1.614a.323.323 0 1 1 0-.646h2.26V10.33z"/><path id="Path_19447" data-name="Path 19447" class="cls-1" d="M15.171 1.291h-2.26V.323A.323.323 0 0 0 12.589 0h-1.937a.323.323 0 0 0-.323.323v.968H5.165V.323A.323.323 0 0 0 4.842 0H2.905a.323.323 0 0 0-.323.323v.968H.323A.323.323 0 0 0 0 1.614v2.905h15.494v-2.9a.323.323 0 0 0-.323-.323zM4.519 2.582H3.228V.646h1.291zm7.747 0h-1.291V.646h1.291z"/></g></g></g></svg>