<svg width="16" height="16" viewBox="0 0 16 16" fill="none" xmlns="http://www.w3.org/2000/svg">
<path fill-rule="evenodd" clip-rule="evenodd" d="M5.85357 2.64645C6.04883 2.84171 6.04883 3.15829 5.85357 3.35355L1.70712 7.5H15.5C15.7762 7.5 16 7.72386 16 8C16 8.27614 15.7762 8.5 15.5 8.5H1.70712L5.85357 12.6464C6.04883 12.8417 6.04883 13.1583 5.85357 13.3536C5.65831 13.5488 5.34172 13.5488 5.14646 13.3536L0.146432 8.3838C0.0468146 8.28418 -0.00197288 8.14511 6.10502e-05 8.00685C3.04258e-05 8.00457 1.50649e-05 8.00229 1.50649e-05 8C1.50649e-05 7.86179 0.0560888 7.73668 0.146727 7.64618M0.146727 7.64618L5.14646 2.64645C5.34172 2.45118 5.65831 2.45118 5.85357 2.64645" fill="black"/>
</svg>
