<svg width="64" height="64" viewBox="0 0 64 64" fill="none" xmlns="http://www.w3.org/2000/svg">
<path fill-rule="evenodd" clip-rule="evenodd" d="M31.0003 2.29199C14.5962 2.29199 1.29199 15.5962 1.29199 32.0003C1.29199 48.4045 14.5962 61.7087 31.0003 61.7087C47.4045 61.7087 60.7087 48.4045 60.7087 32.0003C60.7087 15.5962 47.4045 2.29199 31.0003 2.29199ZM42.2379 41.4293C42.7545 41.9459 42.7545 42.7209 42.2379 43.2376C41.9795 43.4959 41.7212 43.6251 41.3337 43.6251C40.9462 43.6251 40.6879 43.4959 40.4295 43.2376L31.0004 33.8084L21.5712 43.2376C21.3129 43.4959 21.0545 43.6251 20.667 43.6251C20.2795 43.6251 20.0212 43.4959 19.7629 43.2376C19.2462 42.7209 19.2462 41.9459 19.7629 41.4293L29.192 32.0001L19.7629 22.5709C19.2462 22.0543 19.2462 21.2793 19.7629 20.7626C20.2795 20.2459 21.0545 20.2459 21.5712 20.7626L31.0004 30.1918L40.4295 20.7626C40.9462 20.2459 41.7212 20.2459 42.2379 20.7626C42.7545 21.2793 42.7545 22.0543 42.2379 22.5709L32.8087 32.0001L42.2379 41.4293Z" fill="#E12E40"/>
</svg>
