<svg id="Layer_1" data-name="Layer 1" xmlns="http://www.w3.org/2000/svg" viewBox="0 0 30.276 30.976"><defs><style>.cls-1{fill:none;stroke:#4285f4;stroke-width:3px}</style></defs><title>Subject</title><g id="Artboard_1" data-name="Artboard 1"><g id="Group_1882" data-name="Group 1882"><path id="Path_114" data-name="Path 114" class="cls-1" d="M28.3 15.7L16 2.1a1.613 1.613 0 0 0-1.3-.6H3.3a1.793 1.793 0 0 0-1.8 1.787V14.3a1.847 1.847 0 0 0 .5 1.2l12.3 13.4a1.755 1.755 0 0 0 2.478.12L16.8 29l11.4-10.8a1.754 1.754 0 0 0 .121-2.478zM7.9 9a2.052 2.052 0 0 1-2.1-2v-.1a2.05 2.05 0 0 1 2-2.1h.1a2.05 2.05 0 0 1 2.1 2v.1A2.052 2.052 0 0 1 8 9z"/></g></g></svg>