<?xml version="1.0" encoding="utf-8"?>
<!-- Generator: Adobe Illustrator 25.4.0, SVG Export Plug-In . SVG Version: 6.00 Build 0)  -->
<svg version="1.1" id="Layer_1" xmlns="http://www.w3.org/2000/svg" xmlns:xlink="http://www.w3.org/1999/xlink" x="0px" y="0px"
	 viewBox="0 0 504.2 723.8" style="enable-background:new 0 0 504.2 723.8;" xml:space="preserve">
<style type="text/css">
	.st0{fill:#4196B1;}
	.st1{fill:#AAE0E4;}
	.st2{fill:#8ECCCE;}
	.st3{fill:#99B8BF;}
	.st4{opacity:0.1;fill:#040404;enable-background:new    ;}
	.st5{fill:#596069;}
	.st6{fill:#9BAEB8;}
	.st7{fill:#7A8F94;}
	.st8{fill:#B8BFC1;}
	.st9{fill:#F8FAFB;}
	.st10{opacity:0.15;fill:#020202;enable-background:new    ;}
	.st11{fill:none;stroke:#7A8F94;stroke-width:0.561;stroke-linecap:round;stroke-miterlimit:10;}
	.st12{opacity:5.000000e-02;fill:#040404;enable-background:new    ;}
	.st13{fill:#FFFFFF;}
	.st14{opacity:0.4;fill:#FFFFFF;enable-background:new    ;}
	.st15{fill:#EAF1F1;}
	.st16{fill:none;stroke:#7A8D92;stroke-width:0.37;stroke-miterlimit:10;}
	.st17{fill:#767E7F;}
	.st18{fill:none;stroke:#7A8D92;stroke-width:0.446;stroke-miterlimit:10;}
	.st19{fill:none;stroke:#7A8D92;stroke-width:0.463;stroke-miterlimit:10;}
	.st20{opacity:0.74;fill:#575757;enable-background:new    ;}
	.st21{fill:none;stroke:#EDEDED;stroke-width:8;stroke-miterlimit:10;}
	.st22{fill:none;stroke:#EFEFF0;stroke-width:4.061;stroke-miterlimit:10;}
</style>
<g id="spaces">
	<polygon class="st0" points="305,265.6 305,65.5 447.1,65.5 447.1,3.3 499.9,3.3 504.2,711 490.1,723.8 16.1,723.8 0,711 0,265.7 	
		"/>
</g>
<g id="background">
	<polygon class="st1" points="299.7,266.2 299.7,61.3 437.9,61.3 437.9,3.7 494.9,3.7 499.1,706.7 3.1,706.7 3.1,266.3 	"/>
</g>
<g id="spaces-2">
	<polygon class="st2" points="387.7,557 388.2,474.4 393,474.4 393,415 438.8,415 438.8,240.7 499.1,241.2 496.3,75.2 438.8,75.2 
		437.9,59.6 300.7,59.6 302.2,414 301.5,557 	"/>
	<polygon class="st2" points="417.8,519.1 500.1,519.1 500.1,707 5.4,706.7 4.1,551.2 95.3,551.2 95.3,508.6 153.3,508.8 
		152.9,542.6 123.1,542.6 122.8,592.8 244.7,593.1 385.9,593.5 386.3,603.3 417.8,604.1 	"/>
	<rect x="244.5" y="508.5" class="st2" width="25.9" height="35.5"/>
	<polygon class="st3" points="3.1,266.3 4.1,551.2 95.3,551.2 95.3,508.6 270.4,508.6 268.3,266.5 	"/>
	<rect x="268.4" y="269.9" class="st3" width="33.9" height="177.3"/>
	<rect x="348.9" y="313.8" class="st3" width="45.5" height="50.6"/>
	<rect x="438.8" y="4" class="st3" width="57.4" height="71.2"/>
</g>
<g id="furniature">
	<path class="st4" d="M193,535.7l-0.3-0.2l-15.7-9.6c-0.1-0.1-0.1-0.3-0.2-0.3l-2.6-1.9c-0.6-0.4-1.5-0.3-2,0.3l0,0L162,538
		c-0.4,0.6-0.3,1.4,0.2,1.9l2.5,2l0.2,0.1l14.2,12.3c0.2,0.2,0.4,0.3,0.7,0.3l0,0c0.6,0.5,1.5,0.4,2-0.1l0,0l0.7-0.9
		c0.1-0.2,0.3-0.4,0.3-0.6c4-4,7.3-8.6,10-13.5c0.3-0.1,0.5-0.3,0.6-0.5l0.7-0.9c0.4-0.5,0.3-1.3-0.2-1.7l0,0l-0.2-0.1L193,535.7z"
		/>
	<path class="st5" d="M191.9,534.8l-0.3-0.2l-15.7-9.6c-0.1-0.1-0.1-0.3-0.2-0.3l-2.6-1.9c-0.6-0.4-1.5-0.3-2,0.3l0,0l-1,1.3
		l-8.5,11.5l-0.8,1.1c-0.4,0.5-0.4,1.2,0,1.7l0,0l0.1,0.1l0,0l2.5,2l0.2,0.1l14.2,12.4c0.2,0.2,0.4,0.3,0.7,0.3l0,0
		c0.6,0.5,1.5,0.4,2-0.1l0,0l0.7-0.9c0.1-0.2,0.3-0.4,0.3-0.6c4-4,7.3-8.6,10-13.5c0.3-0.1,0.5-0.3,0.7-0.5l0.7-0.9
		c0.4-0.5,0.3-1.3-0.2-1.7l0,0l-0.2-0.1L191.9,534.8z"/>
	<path class="st6" d="M191.7,536.5L191.7,536.5c-3,6.1-7.1,11.7-12,16.4l0,0c-0.7,0.6-1.7,0.6-2.4,0l-15.8-13.8
		c-1.1-1-1.2-2.6-0.4-3.8l8.5-11.5c0.9-1.1,2.4-1.4,3.6-0.7l17.9,10.9C191.8,534.6,192,535.6,191.7,536.5z"/>
	<path class="st7" d="M175.6,526.4l-10.3,14.1c-0.5,0.6-1.4,0.8-2,0.3l0,0l-2.5-2c-0.5-0.4-0.7-1.1-0.3-1.7l0.1-0.1l0,0l10.3-14
		c0.5-0.6,1.4-0.8,2-0.3l0,0l2.6,1.9C175.8,525.2,175.8,525.8,175.6,526.4z"/>
	<path class="st7" d="M180.7,552.3l-0.7,0.9c-0.4,0.5-1.1,0.7-1.7,0.3l-0.1-0.1l0,0l-17.1-14.9l1.7-1.9l17.8,13.8
		C181,551,181,551.7,180.7,552.3z"/>
	<path class="st7" d="M191.6,537.7l0.7-0.9c0.4-0.5,0.3-1.3-0.2-1.7l0,0l-0.2-0.1l0,0l-19.3-11.8l-1.3,2.2l18.5,12.7
		C190.4,538.5,191.1,538.4,191.6,537.7C191.6,537.8,191.6,537.7,191.6,537.7z"/>
	<path class="st4" d="M224.6,555l0.3-0.3l12.1-13.9c0.1-0.1,0.3-0.1,0.4-0.2l2.3-2.2c0.5-0.6,0.5-1.4,0-2l0,0l-12.2-12.3
		c-0.5-0.5-1.3-0.6-1.9-0.1l-2.4,2.1l-0.2,0.2l-14.4,11.9c-0.2,0.2-0.4,0.4-0.5,0.6l0,0c-0.6,0.5-0.7,1.4-0.2,2l0,0l0.8,0.8
		c0.2,0.2,0.4,0.4,0.5,0.4c3.3,4.5,7.2,8.6,11.7,12c0,0.3,0.2,0.5,0.4,0.6l0.8,0.8c0.5,0.5,1.2,0.5,1.7,0.1l0,0l0.2-0.2L224.6,555z"
		/>
	<path class="st5" d="M225.7,554.2l0.3-0.3l12.1-13.9c0.1-0.1,0.3-0.1,0.4-0.2l2.3-2.2c0.5-0.6,0.5-1.4,0-2l0,0l-1.2-1.2l-9.9-10.2
		l-1-1c-0.5-0.5-1.3-0.6-1.8-0.1c0,0,0,0,0,0l0,0l-2.4,2.1l-0.2,0.2l-14.4,11.9c-0.2,0.2-0.4,0.4-0.5,0.6l0,0
		c-0.6,0.5-0.6,1.4-0.2,2l0,0l0.8,0.8c0.2,0.2,0.4,0.4,0.5,0.4c3.3,4.6,7.2,8.6,11.7,12c0.1,0.3,0.2,0.5,0.4,0.7l0.8,0.8
		c0.5,0.5,1.2,0.5,1.7,0.1l0,0l0.2-0.2L225.7,554.2z"/>
	<path class="st6" d="M224,553.6L224,553.6c-5.6-4-10.4-8.9-14.2-14.6l0,0c-0.5-0.7-0.4-1.7,0.3-2.3h0.1l16.2-13.3
		c1.1-0.9,2.8-0.8,3.8,0.2l9.9,10.2c1,1,1,2.6,0.1,3.7l-13.7,15.9C225.8,554.1,224.8,554.1,224,553.6z"/>
	<path class="st7" d="M236.6,539.4l-12.2-12.5c-0.5-0.6-0.5-1.4,0-2l0,0l2.4-2.1c0.5-0.5,1.3-0.5,1.8,0c0,0,0,0,0,0l0.1,0.1l0,0
		l12.1,12.3c0.5,0.6,0.5,1.4,0,2l-2.3,2.2C237.9,539.8,237.2,539.8,236.6,539.4z"/>
	<path class="st7" d="M210.2,540.2l-0.8-0.8c-0.5-0.4-0.5-1.2-0.1-1.6c0,0,0-0.1,0.1-0.1l0,0l0.1-0.1l0,0l17.5-14.4l1.6,2L212,540.5
		C211.4,540.8,210.7,540.7,210.2,540.2z"/>
	<path class="st7" d="M222.9,553.3l0.8,0.8c0.5,0.5,1.2,0.5,1.7,0.1l0,0l0.2-0.2l0,0l14.8-17.1l-2-1.6l-15.7,16.2
		c-0.5,0.5-0.4,1.2,0.1,1.7C222.8,553.2,222.8,553.3,222.9,553.3z"/>
	<path class="st4" d="M200.1,536.9c3.8,0.8,6.2,4.4,5.4,8.2c-0.8,3.8-4.4,6.2-8.2,5.4s-6.2-4.4-5.4-8.2c0,0,0,0,0,0l0,0
		C192.7,538.6,196.4,536.2,200.1,536.9z"/>
	<circle class="st8" cx="198.9" cy="543.1" r="6.9"/>
	<circle class="st9" cx="199.1" cy="542.3" r="6.9"/>
	<path class="st10" d="M430.3,493.2v-4.1c0.1-3-2.1-5.5-5.1-5.7h-0.3l-3.8,0.2c-3.9,0.3-6.8,3.6-6.6,7.5l0,0
		c-0.3,3.9,2.7,7.3,6.6,7.6l3.8,0.2c3,0,5.5-2.4,5.6-5.4L430.3,493.2z"/>
	<path class="st5" d="M430.7,493.2v-4.1c0.1-3-2.1-5.5-5.1-5.7h-0.3l-3.8,0.2c-3.9,0.3-6.8,3.6-6.6,7.5l0,0
		c-0.3,3.9,2.7,7.3,6.6,7.6l3.8,0.2c3,0,5.5-2.4,5.6-5.4l0,0C430.9,493.4,430.7,493.3,430.7,493.2z"/>
	<path class="st6" d="M432.5,493.1v-3.8c0-2.9-2.3-5.2-5.1-5.3h-0.3l-3.8,0.2c-3.7,0.2-6.6,3.3-6.6,7l0,0c0,3.7,2.9,6.8,6.6,7
		l3.8,0.2c2.9,0.1,5.3-2.1,5.6-5L432.5,493.1L432.5,493.1z"/>
	<path class="st11" d="M427.9,483.9l-4.5,0.3c-3.7,0.2-6.6,3.3-6.6,7l0,0c0,3.7,2.9,6.8,6.6,7l4.5,0.3"/>
	<path class="st10" d="M430.3,510.7v-4.1c0.1-3-2.1-5.5-5.1-5.7h-0.3l-3.8,0.2c-3.9,0.3-6.8,3.6-6.6,7.5l0,0
		c-0.2,3.9,2.7,7.2,6.6,7.6l3.8,0.2c3,0,5.5-2.4,5.6-5.4L430.3,510.7z"/>
	<path class="st5" d="M430.9,510.7v-4.1c0.1-3-2.1-5.5-5.1-5.7h-0.3l-3.8,0.2c-3.9,0.3-6.8,3.6-6.6,7.5l0,0
		c-0.3,3.9,2.7,7.3,6.6,7.6l3.8,0.2c3,0,5.5-2.4,5.6-5.4L430.9,510.7z"/>
	<path class="st6" d="M432.5,510.7v-3.8c0-2.9-2.3-5.2-5.1-5.3h-0.2l-3.8,0.1c-3.7,0.2-6.6,3.3-6.6,7l0,0c0,3.7,2.9,6.8,6.6,7
		l3.8,0.2c2.9,0.1,5.3-2.1,5.5-5L432.5,510.7z"/>
	<path class="st11" d="M427.7,501.5l-4.5,0.3c-3.7,0.2-6.6,3.3-6.6,7l0,0c0,3.7,2.9,6.8,6.6,7l4.5,0.3"/>
	<path class="st12" d="M449.7,461v53.6c0,0.8-0.7,1.5-1.5,1.5h-18.9c-0.8,0-1.5-0.7-1.5-1.5V461c0-0.8,0.7-1.5,1.5-1.5h18.9
		C449,459.5,449.7,460.2,449.7,461z"/>
	<path class="st8" d="M450.6,461v53.6c0,0.8-0.7,1.5-1.5,1.5h-18.9c-0.8,0-1.5-0.7-1.5-1.5V461c0-0.8,0.7-1.5,1.5-1.5h18.9
		C449.9,459.5,450.6,460.2,450.6,461z"/>
	<g id="tables-7-3-3">
		<path class="st13" d="M451.2,477.9V461c0-0.8-0.7-1.5-1.5-1.5h-10.1V478L451.2,477.9z"/>
		<path class="st13" d="M439.7,516.1h10.1c0.8,0,1.5-0.7,1.5-1.5v-18.3h-11.6V516.1z"/>
		<rect x="439.6" y="477.9" class="st13" width="11.6" height="18.4"/>
		<path class="st13" d="M439.7,496.3h-10.4v18.3c0,0.8,0.7,1.5,1.5,1.5h8.8v-19.8H439.7z"/>
		<rect x="429.3" y="477.9" class="st13" width="10.4" height="18.4"/>
		<path class="st13" d="M439.7,459.5h-8.8c-0.8,0-1.5,0.7-1.5,1.5v16.9h10.4v-18.4H439.7z"/>
	</g>
	<rect x="154.1" y="509.9" class="st14" width="89.1" height="51.9"/>
</g>
<g id="icons_and_labels">
	<circle class="st15" cx="318.9" cy="442.6" r="11.5"/>
	<g id="Outline_Icons-5-3">
		<path class="st16" d="M322.9,442.8c0,0.1-0.1,0.4-0.3,0.4h-2.3v-4.7c0-0.5,0.4-0.9,0.9-0.9c0,0,0,0,0,0h0.9c0.5,0,0.9,0.4,0.9,0.9
			c0,0,0,0,0,0l0,0L322.9,442.8L322.9,442.8z"/>
		<path class="st16" d="M316.9,447.5h4.3V445l1.3-0.9v-0.9h-7.4c-0.1,1.1,0.7,2.1,1.8,2.2c0,0,0,0,0.1,0h0.1L316.9,447.5z"/>
		<rect x="314.8" y="442.4" class="st16" width="5.6" height="0.9"/>
		<circle class="st16" cx="321.9" cy="439.1" r="0.4"/>
	</g>
	<g>
		<path class="st17" d="M305.8,462.6v-4.6h2c0.3,0,0.6,0,0.9,0.1c0.2,0.1,0.4,0.2,0.5,0.4c0.1,0.2,0.2,0.4,0.2,0.7
			c0,0.3-0.1,0.6-0.3,0.8c-0.3,0.2-0.6,0.4-1,0.4c0.1,0.1,0.3,0.1,0.4,0.2c0.2,0.2,0.4,0.4,0.5,0.6l0.8,1.2H309l-0.6-0.9
			c-0.2-0.3-0.3-0.5-0.4-0.6c-0.1-0.1-0.2-0.2-0.3-0.3c-0.1-0.1-0.2-0.1-0.3-0.1c-0.1,0-0.2,0-0.3,0h-0.7v2L305.8,462.6z
			 M306.4,460.1h1.3c0.2,0,0.4,0,0.6-0.1c0.1,0,0.3-0.1,0.4-0.3c0.1-0.1,0.1-0.3,0.1-0.4c0-0.2-0.1-0.4-0.2-0.5
			c-0.2-0.2-0.5-0.2-0.7-0.2h-1.4L306.4,460.1z"/>
		<path class="st17" d="M312.6,461.6l0.6,0.1c-0.1,0.3-0.3,0.6-0.5,0.8c-0.7,0.4-1.5,0.4-2.1-0.2c-0.3-0.3-0.5-0.8-0.4-1.3
			c0-0.5,0.1-0.9,0.4-1.3c0.3-0.3,0.7-0.5,1.1-0.5c0.4,0,0.8,0.2,1.1,0.5c0.3,0.4,0.4,0.8,0.4,1.3c0,0,0,0.1,0,0.1h-2.5
			c0,0.3,0.1,0.6,0.3,0.8c0.2,0.2,0.4,0.3,0.7,0.3c0.2,0,0.4-0.1,0.5-0.2C312.4,462,312.5,461.8,312.6,461.6z M310.7,460.7h1.8
			c0-0.2-0.1-0.4-0.2-0.6c-0.2-0.2-0.4-0.3-0.7-0.3c-0.2,0-0.5,0.1-0.6,0.3C310.8,460.2,310.7,460.4,310.7,460.7L310.7,460.7z"/>
		<path class="st17" d="M313.6,461.7l0.6-0.1c0,0.2,0.1,0.4,0.3,0.5c0.2,0.1,0.4,0.2,0.6,0.2c0.2,0,0.4,0,0.6-0.2
			c0.1-0.1,0.2-0.2,0.2-0.4c0-0.1-0.1-0.2-0.2-0.3c-0.2-0.1-0.4-0.2-0.6-0.2c-0.3-0.1-0.6-0.2-0.9-0.3c-0.3-0.1-0.5-0.4-0.5-0.8
			c0-0.1,0-0.3,0.1-0.4c0.1-0.1,0.2-0.2,0.3-0.3c0.1-0.1,0.2-0.1,0.4-0.2c0.2,0,0.3-0.1,0.5-0.1c0.2,0,0.5,0,0.7,0.1
			c0.2,0.1,0.3,0.2,0.4,0.3c0.1,0.2,0.2,0.3,0.2,0.5l-0.5,0.1c0-0.2-0.1-0.3-0.2-0.4c-0.1-0.1-0.3-0.2-0.5-0.1c-0.2,0-0.4,0-0.6,0.1
			c-0.1,0.1-0.2,0.2-0.2,0.3c0,0.1,0,0.1,0.1,0.2c0.1,0.1,0.1,0.1,0.2,0.1c0.1,0,0.2,0.1,0.5,0.1c0.3,0.1,0.6,0.2,0.8,0.3
			c0.1,0.1,0.3,0.2,0.4,0.3c0.1,0.1,0.1,0.3,0.1,0.5c0,0.2-0.1,0.4-0.2,0.5c-0.1,0.2-0.3,0.3-0.5,0.4c-0.2,0.1-0.5,0.1-0.7,0.1
			c-0.3,0-0.7-0.1-1-0.3C313.8,462.2,313.7,462,313.6,461.7z"/>
		<path class="st17" d="M318.3,462.1l0.1,0.5c-0.1,0-0.3,0-0.4,0c-0.2,0-0.3,0-0.5-0.1c-0.1-0.1-0.2-0.1-0.2-0.3
			c-0.1-0.2-0.1-0.4-0.1-0.7v-1.9h-0.4v-0.4h0.4v-0.8l0.6-0.3v1.2h0.6v0.4h-0.6v1.9c0,0.1,0,0.2,0,0.3c0,0,0.1,0.1,0.1,0.1
			c0.1,0,0.1,0,0.2,0C318.1,462.2,318.2,462.2,318.3,462.1z"/>
		<path class="st17" d="M318.8,462.6v-3.3h0.5v0.5c0.1-0.2,0.2-0.3,0.4-0.5c0.1-0.1,0.2-0.1,0.4-0.1c0.2,0,0.4,0.1,0.6,0.2l-0.2,0.5
			c-0.1-0.1-0.3-0.1-0.4-0.1c-0.1,0-0.2,0-0.3,0.1c-0.1,0.1-0.2,0.2-0.2,0.3c-0.1,0.2-0.1,0.4-0.1,0.7v1.7L318.8,462.6z"/>
		<path class="st17" d="M320.7,461c0-0.5,0.1-1,0.5-1.4c0.3-0.2,0.7-0.4,1-0.4c0.4,0,0.8,0.1,1.1,0.4c0.3,0.3,0.5,0.8,0.4,1.2
			c0,0.3,0,0.7-0.2,1c-0.1,0.2-0.3,0.4-0.6,0.6c-0.2,0.1-0.5,0.2-0.8,0.2c-0.4,0-0.8-0.1-1.1-0.4C320.8,461.9,320.7,461.5,320.7,461
			z M321.3,461c0,0.3,0.1,0.7,0.3,1c0.3,0.4,0.9,0.4,1.3,0.1c0,0,0.1-0.1,0.1-0.1c0.2-0.3,0.3-0.6,0.3-1c0-0.3-0.1-0.7-0.3-0.9
			c-0.3-0.4-0.9-0.4-1.3-0.1c0,0-0.1,0.1-0.1,0.1C321.4,460.3,321.3,460.6,321.3,461L321.3,461z"/>
		<path class="st17" d="M324.3,461c0-0.5,0.1-1,0.5-1.4c0.3-0.2,0.7-0.4,1-0.4c0.4,0,0.8,0.1,1.1,0.4c0.3,0.3,0.5,0.8,0.4,1.2
			c0,0.3,0,0.7-0.2,1c-0.1,0.2-0.3,0.4-0.6,0.6c-0.2,0.1-0.5,0.2-0.8,0.2c-0.4,0-0.8-0.1-1.1-0.4C324.4,461.9,324.2,461.5,324.3,461
			z M324.8,461c0,0.3,0.1,0.7,0.3,1c0.3,0.4,0.9,0.4,1.3,0.1c0,0,0.1-0.1,0.1-0.1c0.2-0.3,0.3-0.6,0.3-1c0-0.3-0.1-0.7-0.3-0.9
			c-0.3-0.4-0.9-0.4-1.3-0.1c0,0-0.1,0.1-0.1,0.1C324.9,460.3,324.8,460.6,324.8,461z"/>
		<path class="st17" d="M328,462.6v-3.3h0.5v0.5c0.2-0.3,0.6-0.5,1-0.5c0.2,0,0.4,0,0.6,0.2c0.2,0.1,0.3,0.3,0.3,0.4
			c0.2-0.4,0.6-0.6,1-0.6c0.3,0,0.6,0.1,0.8,0.3c0.2,0.2,0.3,0.5,0.3,0.8v2.3h-0.6v-2.1c0-0.2,0-0.3-0.1-0.5c0-0.1-0.1-0.2-0.2-0.2
			c-0.1-0.1-0.2-0.1-0.3-0.1c-0.2,0-0.4,0.1-0.6,0.2c-0.2,0.2-0.3,0.5-0.2,0.7v1.9H330v-2.1c0-0.2,0-0.4-0.1-0.6
			c-0.1-0.1-0.3-0.2-0.4-0.2c-0.2,0-0.3,0-0.4,0.1c-0.1,0.1-0.2,0.2-0.3,0.4c-0.1,0.2-0.1,0.5-0.1,0.7v1.7L328,462.6z"/>
	</g>
	<circle class="st15" cx="198.6" cy="561" r="11.5"/>
	<g>
		<path class="st17" d="M192.9,579.3v-0.5h1.9v1.7c-0.3,0.2-0.6,0.4-0.9,0.5c-0.3,0.1-0.6,0.2-1,0.2c-0.4,0-0.8-0.1-1.2-0.3
			c-0.4-0.2-0.6-0.5-0.8-0.8c-0.2-0.4-0.3-0.8-0.3-1.2c0-0.4,0.1-0.9,0.3-1.2c0.2-0.4,0.4-0.7,0.8-0.9c0.4-0.2,0.8-0.3,1.2-0.3
			c0.3,0,0.6,0,0.9,0.2c0.2,0.1,0.5,0.2,0.6,0.4c0.2,0.2,0.3,0.5,0.3,0.7l-0.5,0.1c-0.1-0.2-0.1-0.4-0.3-0.5
			c-0.1-0.1-0.3-0.3-0.4-0.3c-0.2-0.1-0.4-0.1-0.6-0.1c-0.2,0-0.5,0-0.7,0.1c-0.2,0.1-0.4,0.2-0.5,0.3c-0.1,0.1-0.2,0.3-0.3,0.5
			c-0.1,0.3-0.2,0.6-0.2,0.9c0,0.4,0.1,0.7,0.2,1c0.1,0.3,0.3,0.5,0.6,0.6c0.3,0.1,0.6,0.2,0.9,0.2c0.3,0,0.5-0.1,0.8-0.2
			c0.2-0.1,0.4-0.2,0.6-0.3v-0.8L192.9,579.3z"/>
		<path class="st17" d="M197.9,581.1v-0.5c-0.2,0.4-0.6,0.6-1,0.6c-0.2,0-0.4,0-0.5-0.1c-0.1-0.1-0.3-0.2-0.4-0.3
			c-0.1-0.1-0.1-0.3-0.2-0.4c0-0.2,0-0.3,0-0.5v-2h0.6v1.8c0,0.2,0,0.4,0,0.6c0,0.1,0.1,0.3,0.2,0.3c0.1,0.1,0.3,0.1,0.4,0.1
			c0.2,0,0.3,0,0.5-0.1c0.1-0.1,0.3-0.2,0.3-0.4c0.1-0.2,0.1-0.4,0.1-0.6v-1.8h0.6v3.3L197.9,581.1z"/>
		<path class="st17" d="M201.5,580l0.6,0.1c-0.1,0.3-0.3,0.6-0.5,0.8c-0.7,0.4-1.5,0.4-2.1-0.2c-0.3-0.3-0.5-0.8-0.4-1.3
			c0-0.5,0.1-0.9,0.4-1.3c0.3-0.3,0.7-0.5,1.1-0.5c0.4,0,0.8,0.2,1.1,0.5c0.3,0.4,0.4,0.8,0.4,1.3c0,0,0,0.1,0,0.1h-2.5
			c0,0.3,0.1,0.6,0.3,0.8c0.2,0.2,0.4,0.3,0.7,0.3c0.2,0,0.4-0.1,0.5-0.2C201.3,580.4,201.4,580.2,201.5,580z M199.7,579.1h1.8
			c0-0.2-0.1-0.4-0.2-0.6c-0.2-0.2-0.4-0.3-0.7-0.3c-0.2,0-0.5,0.1-0.6,0.3C199.8,578.6,199.7,578.8,199.7,579.1L199.7,579.1z"/>
		<path class="st17" d="M202.6,580.1l0.6-0.1c0,0.2,0.1,0.4,0.3,0.5c0.2,0.1,0.4,0.2,0.6,0.2c0.2,0,0.4,0,0.6-0.2
			c0.1-0.1,0.2-0.2,0.2-0.4c0-0.1-0.1-0.2-0.2-0.3c-0.2-0.1-0.4-0.2-0.6-0.2c-0.3-0.1-0.6-0.2-0.9-0.3c-0.3-0.1-0.5-0.4-0.5-0.8
			c0-0.1,0-0.3,0.1-0.4c0.1-0.1,0.2-0.2,0.3-0.3c0.1-0.1,0.2-0.1,0.4-0.2c0.2,0,0.3-0.1,0.5-0.1c0.2,0,0.5,0,0.7,0.1
			c0.2,0.1,0.3,0.2,0.4,0.3c0.1,0.2,0.2,0.3,0.2,0.5l-0.5,0.1c0-0.2-0.1-0.3-0.2-0.4c-0.1-0.1-0.3-0.2-0.5-0.1c-0.2,0-0.4,0-0.6,0.1
			c-0.1,0.1-0.2,0.2-0.2,0.3c0,0.1,0,0.1,0.1,0.2c0.1,0.1,0.1,0.1,0.2,0.1c0.1,0,0.2,0.1,0.5,0.1c0.3,0.1,0.6,0.2,0.8,0.3
			c0.1,0.1,0.3,0.2,0.4,0.3c0.1,0.1,0.1,0.3,0.1,0.5c0,0.2-0.1,0.4-0.2,0.5c-0.1,0.2-0.3,0.3-0.5,0.4c-0.2,0.1-0.5,0.1-0.7,0.1
			c-0.3,0-0.7-0.1-1-0.3C202.7,580.7,202.6,580.4,202.6,580.1z"/>
		<path class="st17" d="M207.2,580.6l0.1,0.5c-0.1,0-0.3,0-0.4,0c-0.2,0-0.3,0-0.5-0.1c-0.1-0.1-0.2-0.1-0.2-0.3
			c-0.1-0.2-0.1-0.4-0.1-0.7v-1.9h-0.4v-0.4h0.4v-0.8l0.6-0.3v1.2h0.6v0.4h-0.6v1.9c0,0.1,0,0.2,0,0.3c0,0,0.1,0.1,0.1,0.1
			c0.1,0,0.1,0,0.2,0C207,580.6,207.1,580.6,207.2,580.6z"/>
		<path class="st17" d="M188.6,587.4v-4.6h0.6v4h2.2v0.5L188.6,587.4z"/>
		<path class="st17" d="M191.9,585.8c0-0.5,0.1-1,0.5-1.4c0.3-0.2,0.7-0.4,1-0.4c0.4,0,0.8,0.1,1.1,0.4c0.3,0.3,0.5,0.8,0.4,1.2
			c0,0.3,0,0.7-0.2,1c-0.1,0.2-0.3,0.4-0.6,0.6c-0.2,0.1-0.5,0.2-0.8,0.2c-0.4,0-0.8-0.1-1.1-0.4
			C192.1,586.7,191.9,586.3,191.9,585.8z M192.5,585.8c0,0.3,0.1,0.7,0.3,1c0.3,0.4,0.9,0.4,1.3,0.1c0,0,0.1-0.1,0.1-0.1
			c0.2-0.3,0.3-0.6,0.3-1c0-0.3-0.1-0.7-0.3-0.9c-0.3-0.4-0.9-0.4-1.3-0.1c0,0-0.1,0.1-0.1,0.1C192.6,585.1,192.5,585.4,192.5,585.8
			z"/>
		<path class="st17" d="M197.9,587.4V587c-0.2,0.4-0.6,0.6-1,0.6c-0.2,0-0.4,0-0.5-0.1c-0.1-0.1-0.3-0.2-0.4-0.3
			c-0.1-0.1-0.1-0.3-0.2-0.4c0-0.2,0-0.3,0-0.5v-2h0.6v1.8c0,0.2,0,0.4,0,0.6c0,0.1,0.1,0.3,0.2,0.3c0.1,0.1,0.3,0.1,0.4,0.1
			c0.2,0,0.3,0,0.5-0.1c0.1-0.1,0.3-0.2,0.3-0.4c0.1-0.2,0.1-0.4,0.1-0.6v-1.8h0.6v3.3L197.9,587.4z"/>
		<path class="st17" d="M199.2,587.4v-3.3h0.5v0.5c0.2-0.4,0.6-0.6,1.1-0.5c0.2,0,0.4,0,0.5,0.1c0.1,0.1,0.3,0.2,0.4,0.3
			c0.1,0.1,0.1,0.3,0.2,0.4c0,0.2,0,0.4,0,0.5v2h-0.6v-2c0-0.2,0-0.3-0.1-0.5c0-0.1-0.1-0.2-0.2-0.3c-0.1-0.1-0.3-0.1-0.4-0.1
			c-0.2,0-0.4,0.1-0.6,0.2c-0.2,0.2-0.3,0.6-0.3,0.9v1.8L199.2,587.4z"/>
		<path class="st17" d="M202.7,587.7l0.5,0.1c0,0.1,0.1,0.3,0.2,0.4c0.2,0.1,0.4,0.2,0.6,0.2c0.2,0,0.4,0,0.6-0.2
			c0.1-0.1,0.2-0.3,0.3-0.4c0-0.2,0.1-0.5,0-0.7c-0.2,0.3-0.6,0.4-0.9,0.4c-0.4,0-0.8-0.2-1.1-0.5c-0.3-0.3-0.4-0.8-0.4-1.2
			c0-0.3,0.1-0.6,0.2-0.9c0.1-0.3,0.3-0.5,0.5-0.6c0.2-0.1,0.5-0.2,0.8-0.2c0.4,0,0.7,0.2,1,0.5v-0.4h0.5v2.9c0,0.4,0,0.7-0.2,1.1
			c-0.1,0.2-0.3,0.4-0.5,0.5c-0.3,0.1-0.5,0.2-0.8,0.2c-0.3,0-0.7-0.1-1-0.3C202.8,588.3,202.6,588,202.7,587.7z M203.1,585.7
			c0,0.3,0.1,0.7,0.3,0.9c0.3,0.4,0.8,0.4,1.2,0.1c0,0,0.1-0.1,0.1-0.1c0.2-0.3,0.3-0.6,0.3-0.9c0-0.3-0.1-0.7-0.3-0.9
			c-0.2-0.2-0.4-0.3-0.6-0.3c-0.2,0-0.5,0.1-0.6,0.3C203.2,585.1,203.1,585.4,203.1,585.7L203.1,585.7z"/>
		<path class="st17" d="M208.6,586.4l0.6,0.1c-0.1,0.3-0.3,0.6-0.5,0.8c-0.7,0.4-1.5,0.4-2.1-0.2c-0.3-0.3-0.5-0.8-0.4-1.3
			c0-0.5,0.1-0.9,0.4-1.3c0.3-0.3,0.7-0.5,1.1-0.5c0.4,0,0.8,0.2,1.1,0.5c0.3,0.4,0.4,0.8,0.4,1.3c0,0,0,0.1,0,0.1h-2.5
			c0,0.3,0.1,0.6,0.3,0.8c0.2,0.2,0.4,0.3,0.7,0.3c0.2,0,0.4-0.1,0.5-0.2C208.4,586.8,208.5,586.6,208.6,586.4z M206.7,585.5h1.8
			c0-0.2-0.1-0.4-0.2-0.6c-0.2-0.2-0.4-0.3-0.7-0.3c-0.2,0-0.5,0.1-0.6,0.3C206.9,585,206.8,585.2,206.7,585.5z"/>
	</g>
	<line class="st18" x1="198" y1="559.2" x2="198.6" y2="559.8"/>
	<line class="st18" x1="198" y1="560.8" x2="198.6" y2="560.2"/>
	<line class="st18" x1="195.5" y1="566.2" x2="195.5" y2="567.2"/>
	<line class="st18" x1="202.2" y1="566.2" x2="202.2" y2="567.2"/>
	<path class="st18" d="M203.7,565.2c0,0.5-0.4,1-0.9,1c0,0,0,0,0,0H195c-0.6,0-1-0.4-1-1l0,0v-0.8c0-0.4,0.3-0.8,0.7-1
		c2.7-1,5.7-1,8.4,0c0.4,0.1,0.7,0.5,0.7,1L203.7,565.2z"/>
	<path class="st18" d="M203.6,564c0.8-0.3,1.3-1.2,1-2c-0.3-0.8-1.2-1.3-2-1c-0.8,0.3-1.3,1.1-1,1.9"/>
	<path class="st18" d="M195.9,563c0.2-0.8-0.3-1.7-1.1-1.9c-0.8-0.2-1.6,0.2-1.9,1c-0.2,0.8,0.2,1.6,1,1.9"/>
	<path class="st18" d="M203.3,561c0.6-2.5-0.9-5-3.4-5.6c-2.5-0.6-5,0.9-5.6,3.4l0,0c-0.2,0.7-0.2,1.4,0,2.1"/>
	<line class="st18" x1="199" y1="560.2" x2="199.6" y2="560.8"/>
	<line class="st18" x1="199" y1="559.8" x2="199.6" y2="559.2"/>
	<path class="st18" d="M199,560c0,0.1-0.1,0.3-0.2,0.3c0,0,0,0,0,0l0,0c-0.1,0-0.3-0.1-0.3-0.2c0,0,0,0,0,0l0,0
		c0-0.1,0.1-0.3,0.2-0.3c0,0,0,0,0,0l0,0C198.9,559.7,199,559.8,199,560C199,560,199,560,199,560z"/>
	<circle class="st15" cx="364.4" cy="442.6" r="11.5"/>
	<g id="Outline_Icons-5-3-2">
		<path class="st16" d="M368.5,442.8c0,0.1-0.1,0.4-0.3,0.4h-2.3v-4.7c0-0.5,0.4-0.9,0.9-0.9c0,0,0,0,0,0h0.9c0.5,0,0.9,0.4,0.9,0.9
			c0,0,0,0,0,0l0,0L368.5,442.8L368.5,442.8z"/>
		<path class="st16" d="M362.5,447.5h4.3V445l1.3-0.9v-0.9h-7.4c-0.1,1.1,0.7,2.1,1.8,2.2c0,0,0,0,0.1,0h0.1L362.5,447.5z"/>
		<rect x="360.3" y="442.4" class="st16" width="5.6" height="0.9"/>
		<circle class="st16" cx="367.4" cy="439.1" r="0.4"/>
	</g>
	<g>
		<path class="st17" d="M351.3,462.6v-4.6h2c0.3,0,0.6,0,0.9,0.1c0.2,0.1,0.4,0.2,0.5,0.4c0.1,0.2,0.2,0.4,0.2,0.7
			c0,0.3-0.1,0.6-0.3,0.8c-0.3,0.2-0.6,0.4-1,0.4c0.1,0.1,0.3,0.1,0.4,0.2c0.2,0.2,0.4,0.4,0.5,0.6l0.8,1.2h-0.8l-0.6-0.9
			c-0.2-0.3-0.3-0.5-0.4-0.6c-0.1-0.1-0.2-0.2-0.3-0.3c-0.1-0.1-0.2-0.1-0.3-0.1c-0.1,0-0.2,0-0.3,0h-0.7v2L351.3,462.6z
			 M351.9,460.1h1.3c0.2,0,0.4,0,0.6-0.1c0.1,0,0.3-0.1,0.4-0.3c0.1-0.1,0.1-0.3,0.1-0.4c0-0.2-0.1-0.4-0.2-0.5
			c-0.2-0.2-0.5-0.2-0.7-0.2h-1.4L351.9,460.1z"/>
		<path class="st17" d="M358.1,461.6l0.6,0.1c-0.1,0.3-0.3,0.6-0.5,0.8c-0.7,0.4-1.5,0.4-2.1-0.2c-0.3-0.3-0.5-0.8-0.4-1.3
			c0-0.5,0.1-0.9,0.4-1.3c0.3-0.3,0.7-0.5,1.1-0.5c0.4,0,0.8,0.2,1.1,0.5c0.3,0.4,0.4,0.8,0.4,1.3c0,0,0,0.1,0,0.1h-2.5
			c0,0.3,0.1,0.6,0.3,0.8c0.2,0.2,0.4,0.3,0.7,0.3c0.2,0,0.4-0.1,0.5-0.2C357.9,462,358,461.8,358.1,461.6z M356.2,460.7h1.8
			c0-0.2-0.1-0.4-0.2-0.6c-0.2-0.2-0.4-0.3-0.7-0.3c-0.2,0-0.5,0.1-0.6,0.3C356.4,460.2,356.2,460.4,356.2,460.7L356.2,460.7z"/>
		<path class="st17" d="M359.1,461.7l0.6-0.1c0,0.2,0.1,0.4,0.3,0.5c0.2,0.1,0.4,0.2,0.6,0.2c0.2,0,0.4,0,0.6-0.2
			c0.1-0.1,0.2-0.2,0.2-0.4c0-0.1-0.1-0.2-0.2-0.3c-0.2-0.1-0.4-0.2-0.6-0.2c-0.3-0.1-0.6-0.2-0.9-0.3c-0.3-0.1-0.5-0.4-0.5-0.8
			c0-0.1,0-0.3,0.1-0.4c0.1-0.1,0.2-0.2,0.3-0.3c0.1-0.1,0.2-0.1,0.4-0.2c0.2,0,0.3-0.1,0.5-0.1c0.2,0,0.5,0,0.7,0.1
			c0.2,0.1,0.3,0.2,0.4,0.3c0.1,0.2,0.2,0.3,0.2,0.5l-0.5,0.1c0-0.2-0.1-0.3-0.2-0.4c-0.1-0.1-0.3-0.2-0.5-0.1c-0.2,0-0.4,0-0.6,0.1
			c-0.1,0.1-0.2,0.2-0.2,0.3c0,0.1,0,0.1,0.1,0.2c0.1,0.1,0.1,0.1,0.2,0.1c0.1,0,0.2,0.1,0.5,0.1c0.3,0.1,0.6,0.2,0.8,0.3
			c0.1,0.1,0.3,0.2,0.4,0.3c0.1,0.1,0.1,0.3,0.1,0.5c0,0.2-0.1,0.4-0.2,0.5c-0.1,0.2-0.3,0.3-0.5,0.4c-0.2,0.1-0.5,0.1-0.7,0.1
			c-0.3,0-0.7-0.1-1-0.3C359.3,462.2,359.2,462,359.1,461.7z"/>
		<path class="st17" d="M363.8,462.1l0.1,0.5c-0.1,0-0.3,0-0.4,0c-0.2,0-0.3,0-0.5-0.1c-0.1-0.1-0.2-0.1-0.2-0.3
			c-0.1-0.2-0.1-0.4-0.1-0.7v-1.9h-0.4v-0.4h0.4v-0.8l0.6-0.3v1.2h0.6v0.4h-0.6v1.9c0,0.1,0,0.2,0,0.3c0,0,0.1,0.1,0.1,0.1
			c0.1,0,0.1,0,0.2,0C363.6,462.2,363.7,462.2,363.8,462.1z"/>
		<path class="st17" d="M364.3,462.6v-3.3h0.5v0.5c0.1-0.2,0.2-0.3,0.4-0.5c0.1-0.1,0.2-0.1,0.4-0.1c0.2,0,0.4,0.1,0.6,0.2l-0.2,0.5
			c-0.1-0.1-0.3-0.1-0.4-0.1c-0.1,0-0.2,0-0.3,0.1c-0.1,0.1-0.2,0.2-0.2,0.3c-0.1,0.2-0.1,0.4-0.1,0.7v1.7L364.3,462.6z"/>
		<path class="st17" d="M366.2,461c0-0.5,0.1-1,0.5-1.4c0.3-0.2,0.7-0.4,1-0.4c0.4,0,0.8,0.1,1.1,0.4c0.3,0.3,0.5,0.8,0.4,1.2
			c0,0.3,0,0.7-0.2,1c-0.1,0.2-0.3,0.4-0.6,0.6c-0.2,0.1-0.5,0.2-0.8,0.2c-0.4,0-0.8-0.1-1.1-0.4C366.4,461.9,366.2,461.5,366.2,461
			z M366.8,461c0,0.3,0.1,0.7,0.3,1c0.3,0.4,0.9,0.4,1.3,0.1c0,0,0.1-0.1,0.1-0.1c0.2-0.3,0.3-0.6,0.3-1c0-0.3-0.1-0.7-0.3-0.9
			c-0.3-0.4-0.9-0.4-1.3-0.1c0,0-0.1,0.1-0.1,0.1C366.9,460.3,366.8,460.6,366.8,461L366.8,461z"/>
		<path class="st17" d="M369.8,461c0-0.5,0.1-1,0.5-1.4c0.3-0.2,0.7-0.4,1-0.4c0.4,0,0.8,0.1,1.1,0.4c0.3,0.3,0.5,0.8,0.4,1.2
			c0,0.3,0,0.7-0.2,1c-0.1,0.2-0.3,0.4-0.6,0.6c-0.2,0.1-0.5,0.2-0.8,0.2c-0.4,0-0.8-0.1-1.1-0.4C369.9,461.9,369.8,461.5,369.8,461
			z M370.4,461c0,0.3,0.1,0.7,0.3,1c0.3,0.4,0.9,0.4,1.3,0.1c0,0,0.1-0.1,0.1-0.1c0.2-0.3,0.3-0.6,0.3-1c0-0.3-0.1-0.7-0.3-0.9
			c-0.3-0.4-0.9-0.4-1.3-0.1c0,0-0.1,0.1-0.1,0.1C370.4,460.3,370.3,460.6,370.4,461z"/>
		<path class="st17" d="M373.5,462.6v-3.3h0.5v0.5c0.1-0.2,0.2-0.3,0.4-0.4c0.2-0.1,0.4-0.2,0.6-0.1c0.2,0,0.4,0,0.6,0.2
			c0.2,0.1,0.3,0.3,0.3,0.4c0.2-0.4,0.6-0.6,1-0.6c0.3,0,0.6,0.1,0.8,0.3c0.2,0.2,0.3,0.5,0.3,0.8v2.3h-0.6v-2.1
			c0-0.2,0-0.3-0.1-0.5c0-0.1-0.1-0.2-0.2-0.2c-0.1-0.1-0.2-0.1-0.3-0.1c-0.2,0-0.4,0.1-0.6,0.2c-0.2,0.2-0.3,0.5-0.2,0.7v1.9h-0.6
			v-2.1c0-0.2,0-0.4-0.1-0.6c-0.1-0.1-0.3-0.2-0.4-0.2c-0.2,0-0.3,0-0.4,0.1c-0.1,0.1-0.2,0.2-0.3,0.4c-0.1,0.2-0.1,0.5-0.1,0.7v1.7
			L373.5,462.6z"/>
	</g>
	<circle class="st15" cx="325.4" cy="334.8" r="11.5"/>
	<g>
		<path class="st17" d="M317.8,353.4l0.6,0c0,0.2,0.1,0.4,0.2,0.6c0.1,0.2,0.3,0.3,0.5,0.4c0.2,0.1,0.5,0.1,0.7,0.1
			c0.2,0,0.4,0,0.6-0.1c0.2-0.1,0.3-0.2,0.4-0.3c0.1-0.1,0.1-0.2,0.1-0.4c0-0.1,0-0.3-0.1-0.4c-0.1-0.1-0.3-0.2-0.4-0.3
			c-0.3-0.1-0.5-0.2-0.8-0.2c-0.3-0.1-0.6-0.2-0.9-0.3c-0.2-0.1-0.4-0.2-0.5-0.4c-0.1-0.2-0.2-0.4-0.2-0.6c0-0.2,0.1-0.5,0.2-0.6
			c0.1-0.2,0.3-0.4,0.6-0.5c0.3-0.1,0.6-0.2,0.8-0.2c0.3,0,0.6,0,0.9,0.2c0.2,0.1,0.5,0.3,0.6,0.5c0.1,0.2,0.2,0.5,0.2,0.7l-0.6,0
			c0-0.3-0.1-0.5-0.3-0.7c-0.2-0.2-0.5-0.2-0.8-0.2c-0.3,0-0.6,0-0.8,0.2c-0.2,0.1-0.2,0.3-0.2,0.5c0,0.2,0.1,0.3,0.2,0.4
			c0.3,0.2,0.6,0.3,0.9,0.3c0.3,0.1,0.7,0.2,1,0.3c0.2,0.1,0.4,0.3,0.6,0.5c0.1,0.2,0.2,0.4,0.2,0.6c0,0.2-0.1,0.5-0.2,0.7
			c-0.1,0.2-0.4,0.4-0.6,0.5c-0.3,0.1-0.6,0.2-0.9,0.2c-0.4,0-0.7-0.1-1-0.2c-0.3-0.1-0.5-0.3-0.7-0.5
			C317.9,354,317.8,353.7,317.8,353.4z"/>
		<path class="st17" d="M323.4,354.4l0.1,0.5c-0.1,0-0.3,0-0.4,0c-0.2,0-0.3,0-0.5-0.1c-0.1-0.1-0.2-0.1-0.2-0.3
			c-0.1-0.2-0.1-0.4-0.1-0.7V352h-0.4v-0.4h0.4v-0.8l0.6-0.3v1.2h0.6v0.4h-0.6v1.9c0,0.1,0,0.2,0,0.3c0,0,0.1,0.1,0.1,0.1
			c0.1,0,0.1,0,0.2,0C323.2,354.4,323.3,354.4,323.4,354.4z"/>
		<path class="st17" d="M326.1,354.5c-0.2,0.2-0.4,0.3-0.6,0.4c-0.2,0.1-0.4,0.1-0.6,0.1c-0.3,0-0.6-0.1-0.8-0.3
			c-0.2-0.2-0.3-0.4-0.3-0.7c0-0.3,0.1-0.6,0.4-0.8c0.1-0.1,0.3-0.1,0.4-0.2c0.2,0,0.3-0.1,0.5-0.1c0.3,0,0.7-0.1,1-0.2
			c0-0.1,0-0.1,0-0.1c0-0.2,0-0.4-0.2-0.5c-0.2-0.1-0.4-0.2-0.6-0.2c-0.2,0-0.4,0-0.6,0.1c-0.1,0.1-0.2,0.3-0.3,0.5l-0.5-0.1
			c0-0.2,0.1-0.4,0.2-0.6c0.1-0.2,0.3-0.3,0.5-0.3c0.2-0.1,0.5-0.1,0.8-0.1c0.2,0,0.5,0,0.7,0.1c0.1,0,0.3,0.1,0.4,0.3
			c0.1,0.1,0.1,0.2,0.2,0.4c0,0.2,0,0.3,0,0.5v0.7c0,0.3,0,0.7,0,1c0,0.1,0.1,0.3,0.1,0.4h-0.6C326.1,354.7,326.1,354.6,326.1,354.5
			z M326,353.2c-0.3,0.1-0.6,0.2-0.9,0.2c-0.2,0-0.3,0.1-0.5,0.1c-0.2,0.1-0.4,0.4-0.3,0.6c0,0.1,0.1,0.1,0.1,0.2
			c0.1,0.1,0.3,0.2,0.5,0.1c0.2,0,0.4,0,0.6-0.1c0.2-0.1,0.3-0.2,0.4-0.4c0.1-0.2,0.1-0.4,0.1-0.6L326,353.2z"/>
		<path class="st17" d="M327.5,351v-0.6h0.6v0.6H327.5z M327.5,354.9v-3.3h0.6v3.3H327.5z"/>
		<path class="st17" d="M328.9,354.9v-3.3h0.5v0.5c0.1-0.2,0.2-0.3,0.4-0.5c0.1-0.1,0.2-0.1,0.4-0.1c0.2,0,0.4,0.1,0.6,0.2l-0.2,0.5
			c-0.1-0.1-0.3-0.1-0.4-0.1c-0.1,0-0.2,0-0.3,0.1c-0.1,0.1-0.2,0.2-0.2,0.3c-0.1,0.2-0.1,0.4-0.1,0.7v1.7L328.9,354.9z"/>
		<path class="st17" d="M330.8,353.9l0.6-0.1c0,0.2,0.1,0.4,0.3,0.5c0.2,0.1,0.4,0.2,0.6,0.2c0.2,0,0.4,0,0.6-0.2
			c0.1-0.1,0.2-0.2,0.2-0.4c0-0.1-0.1-0.2-0.2-0.3c-0.2-0.1-0.4-0.2-0.6-0.2c-0.3-0.1-0.6-0.2-0.9-0.3c-0.3-0.1-0.5-0.4-0.5-0.8
			c0-0.1,0-0.3,0.1-0.4c0.1-0.1,0.2-0.2,0.3-0.3c0.1-0.1,0.2-0.1,0.4-0.2c0.2,0,0.3-0.1,0.5-0.1c0.2,0,0.5,0,0.7,0.1
			c0.2,0.1,0.3,0.2,0.4,0.3c0.1,0.2,0.2,0.3,0.2,0.5l-0.5,0.1c0-0.2-0.1-0.3-0.2-0.4c-0.1-0.1-0.3-0.2-0.5-0.1c-0.2,0-0.4,0-0.6,0.1
			c-0.1,0.1-0.2,0.2-0.2,0.3c0,0.1,0,0.1,0.1,0.2c0.1,0.1,0.1,0.1,0.2,0.1c0.1,0,0.2,0.1,0.5,0.1c0.3,0.1,0.6,0.2,0.8,0.3
			c0.1,0.1,0.3,0.2,0.4,0.3c0.1,0.1,0.1,0.3,0.1,0.5c0,0.2-0.1,0.4-0.2,0.5c-0.1,0.2-0.3,0.3-0.5,0.4c-0.2,0.1-0.5,0.1-0.7,0.1
			c-0.3,0-0.7-0.1-1-0.3C331,354.5,330.8,354.2,330.8,353.9z"/>
	</g>
	<g id="Outline_Icons-2-2-4-2-2-2-3">
		<line class="st16" x1="321" y1="338.7" x2="329" y2="338.7"/>
		<polyline class="st16" points="327.6,338.7 327.6,337.3 326.2,337.3 326.2,335.9 324.8,335.9 324.8,334.5 323.4,334.5 323.4,333 
			321,333 		"/>
		<line class="st16" x1="325.2" y1="330.6" x2="329.5" y2="335"/>
		<polyline class="st16" points="325.2,332.4 325.2,330.6 327,330.6 		"/>
		<polyline class="st16" points="329.5,333.3 329.5,335 327.9,335 		"/>
	</g>
	<circle class="st15" cx="476" cy="449.8" r="11.5"/>
	<g>
		<path class="st17" d="M466.1,469.9v-4.6h0.6v2.3l2.3-2.3h0.8l-1.9,1.9l2,2.7H469l-1.6-2.3l-0.7,0.7v1.6L466.1,469.9z"/>
		<path class="st17" d="M470.3,466v-0.6h0.6v0.6H470.3z M470.3,469.9v-3.3h0.6v3.3L470.3,469.9z"/>
		<path class="st17" d="M472.9,469.4l0.1,0.5c-0.1,0-0.3,0-0.4,0c-0.2,0-0.3,0-0.5-0.1c-0.1-0.1-0.2-0.1-0.2-0.3
			c-0.1-0.2-0.1-0.4-0.1-0.7V467h-0.4v-0.4h0.4v-0.8l0.6-0.3v1.2h0.6v0.4h-0.6v1.9c0,0.1,0,0.2,0,0.3c0,0,0.1,0.1,0.1,0.1
			c0.1,0,0.1,0,0.2,0C472.8,469.4,472.8,469.4,472.9,469.4z"/>
		<path class="st17" d="M475.6,468.7l0.6,0.1c0,0.3-0.2,0.7-0.5,0.9c-0.3,0.2-0.6,0.3-0.9,0.3c-0.4,0-0.8-0.1-1.1-0.4
			c-0.3-0.4-0.4-0.8-0.4-1.3c0-0.3,0.1-0.6,0.2-0.9c0.1-0.3,0.3-0.5,0.5-0.6c0.2-0.1,0.5-0.2,0.8-0.2c0.3,0,0.6,0.1,0.9,0.3
			c0.2,0.2,0.4,0.5,0.4,0.8l-0.5,0.1c0-0.2-0.1-0.4-0.3-0.5c-0.1-0.1-0.3-0.2-0.5-0.2c-0.3,0-0.5,0.1-0.7,0.3
			c-0.2,0.3-0.3,0.6-0.3,1c0,0.3,0.1,0.7,0.3,1c0.2,0.2,0.4,0.3,0.7,0.3c0.2,0,0.4-0.1,0.6-0.2C475.5,469.2,475.6,468.9,475.6,468.7
			z"/>
		<path class="st17" d="M476.7,469.9v-4.6h0.6v1.6c0.2-0.3,0.6-0.5,1-0.5c0.2,0,0.4,0,0.6,0.1c0.2,0.1,0.3,0.2,0.4,0.4
			c0.1,0.2,0.1,0.5,0.1,0.7v2.1h-0.6v-2.1c0-0.2,0-0.4-0.2-0.6c-0.1-0.1-0.3-0.2-0.5-0.2c-0.2,0-0.3,0-0.5,0.1
			c-0.1,0.1-0.3,0.2-0.3,0.4c-0.1,0.2-0.1,0.4-0.1,0.6v1.8L476.7,469.9z"/>
		<path class="st17" d="M482.5,468.8l0.6,0.1c-0.1,0.3-0.3,0.6-0.5,0.8c-0.7,0.4-1.5,0.4-2.1-0.2c-0.3-0.3-0.5-0.8-0.4-1.3
			c0-0.5,0.1-0.9,0.4-1.3c0.3-0.3,0.7-0.5,1.1-0.5c0.4,0,0.8,0.2,1.1,0.5c0.3,0.4,0.5,0.8,0.4,1.3c0,0,0,0.1,0,0.1h-2.5
			c0,0.3,0.1,0.6,0.3,0.8c0.2,0.2,0.4,0.3,0.7,0.3c0.2,0,0.4-0.1,0.5-0.2C482.3,469.2,482.4,469,482.5,468.8z M480.6,467.9h1.9
			c0-0.2-0.1-0.4-0.2-0.6c-0.2-0.2-0.4-0.3-0.7-0.3c-0.2,0-0.5,0.1-0.6,0.3C480.7,467.4,480.6,467.7,480.6,467.9L480.6,467.9z"/>
		<path class="st17" d="M483.8,469.9v-3.3h0.5v0.5c0.2-0.4,0.6-0.6,1.1-0.5c0.2,0,0.4,0,0.6,0.1c0.1,0.1,0.3,0.2,0.4,0.3
			c0.1,0.1,0.1,0.3,0.2,0.4c0,0.2,0,0.4,0,0.5v2h-0.6v-2c0-0.2,0-0.3-0.1-0.5c0-0.1-0.1-0.2-0.2-0.3c-0.1-0.1-0.3-0.1-0.4-0.1
			c-0.2,0-0.4,0.1-0.6,0.2c-0.2,0.2-0.3,0.6-0.3,0.9v1.8L483.8,469.9z"/>
	</g>
	<g id="Outline_Icons-2-2">
		<path class="st19" d="M480.1,446.9c-0.8,0-1.6-0.5-1.8-1.3c-0.3,0.2-0.7,0.3-1.1,0.3c-1.1,0-1.9-0.9-1.9-1.9v-0.2
			c-3.1,0.5-5.2,3.5-4.6,6.6s3.5,5.2,6.6,4.6c3.1-0.5,5.2-3.5,4.6-6.6c0,0,0,0,0,0c-0.1-0.6-0.3-1.2-0.6-1.8
			C480.8,446.8,480.5,446.9,480.1,446.9z"/>
		<circle class="st19" cx="474.2" cy="447.9" r="1"/>
		<circle class="st19" cx="477.7" cy="450.3" r="0.5"/>
		<circle class="st19" cx="474.7" cy="451.8" r="1"/>
		<circle class="st19" cx="478.2" cy="448.4" r="0.2"/>
		<circle class="st19" cx="472.2" cy="449.9" r="0.2"/>
		<circle class="st19" cx="477.7" cy="452.8" r="0.2"/>
	</g>
	<g>
		<path class="st17" d="M105,523.7v-4.6h1.7c0.2,0,0.5,0,0.7,0c0.2,0,0.4,0.1,0.6,0.2c0.2,0.1,0.3,0.3,0.4,0.4
			c0.2,0.5,0.2,1.2-0.2,1.6c-0.4,0.3-0.9,0.5-1.3,0.4h-1.2v1.9L105,523.7z M105.6,521.3h1.2c0.3,0,0.6,0,0.8-0.2
			c0.2-0.2,0.3-0.4,0.2-0.6c0-0.2,0-0.3-0.1-0.5c-0.1-0.1-0.2-0.2-0.4-0.3c-0.2,0-0.4,0-0.6,0h-1.2V521.3z"/>
		<path class="st17" d="M109.2,523.7v-4.6h0.6v1.9h2.4v-1.9h0.6v4.6h-0.6v-2.2h-2.4v2.2L109.2,523.7z"/>
		<path class="st17" d="M101,531.3v-4.6h1.7c0.3,0,0.6,0,0.8,0.1c0.2,0.1,0.4,0.2,0.5,0.4c0.1,0.2,0.2,0.4,0.2,0.6
			c0,0.2-0.1,0.4-0.2,0.6c-0.1,0.2-0.3,0.3-0.5,0.4c0.3,0.1,0.5,0.2,0.6,0.4c0.1,0.2,0.2,0.4,0.2,0.7c0,0.2,0,0.4-0.1,0.6
			c-0.1,0.2-0.2,0.3-0.3,0.4c-0.2,0.1-0.3,0.2-0.5,0.2c-0.2,0.1-0.5,0.1-0.7,0.1L101,531.3z M101.6,528.7h1c0.2,0,0.4,0,0.6-0.1
			c0.1,0,0.3-0.1,0.3-0.2c0.1-0.1,0.1-0.3,0.1-0.4c0-0.1,0-0.3-0.1-0.4c-0.1-0.1-0.2-0.2-0.3-0.2c-0.2-0.1-0.5-0.1-0.7-0.1h-0.9
			L101.6,528.7z M101.6,530.8h1.1c0.1,0,0.3,0,0.4,0c0.1,0,0.2-0.1,0.3-0.1c0.1-0.1,0.2-0.2,0.2-0.3c0.1-0.1,0.1-0.3,0.1-0.4
			c0-0.2,0-0.3-0.1-0.4c-0.1-0.1-0.2-0.2-0.4-0.3c-0.2-0.1-0.4-0.1-0.7-0.1h-1.1L101.6,530.8z"/>
		<path class="st17" d="M105,529.7c0-0.5,0.1-1,0.5-1.4c0.3-0.2,0.7-0.4,1-0.4c0.4,0,0.8,0.1,1.1,0.4c0.3,0.3,0.5,0.8,0.4,1.2
			c0,0.3,0,0.7-0.2,1c-0.1,0.2-0.3,0.4-0.6,0.6c-0.2,0.1-0.5,0.2-0.8,0.2c-0.4,0-0.8-0.1-1.1-0.4C105.2,530.6,105,530.2,105,529.7z
			 M105.6,529.7c0,0.3,0.1,0.7,0.3,1c0.3,0.4,0.9,0.4,1.3,0.1c0,0,0.1-0.1,0.1-0.1c0.2-0.3,0.3-0.6,0.3-1c0-0.3-0.1-0.7-0.3-0.9
			c-0.3-0.4-0.9-0.4-1.3-0.1c0,0-0.1,0.1-0.1,0.1C105.7,529,105.6,529.3,105.6,529.7z"/>
		<path class="st17" d="M108.6,529.7c0-0.5,0.1-1,0.5-1.4c0.3-0.2,0.7-0.4,1-0.4c0.4,0,0.8,0.1,1.1,0.4c0.3,0.3,0.5,0.8,0.4,1.2
			c0,0.3,0,0.7-0.2,1c-0.1,0.2-0.3,0.4-0.6,0.6c-0.2,0.1-0.5,0.2-0.8,0.2c-0.4,0-0.8-0.1-1.1-0.4
			C108.7,530.6,108.6,530.2,108.6,529.7z M109.2,529.7c0,0.3,0.1,0.7,0.3,1c0.3,0.4,0.9,0.4,1.3,0.1c0,0,0.1-0.1,0.1-0.1
			c0.2-0.3,0.3-0.6,0.3-1c0-0.3-0.1-0.7-0.3-0.9c-0.3-0.4-0.9-0.4-1.3-0.1c0,0-0.1,0.1-0.1,0.1C109.2,529,109.1,529.3,109.2,529.7
			L109.2,529.7z"/>
		<path class="st17" d="M113.6,530.8l0.1,0.5c-0.1,0-0.3,0-0.4,0c-0.2,0-0.3,0-0.5-0.1c-0.1-0.1-0.2-0.1-0.2-0.3
			c-0.1-0.2-0.1-0.4-0.1-0.7v-1.9H112V528h0.4v-0.8l0.6-0.3v1.2h0.6v0.4H113v1.9c0,0.1,0,0.2,0,0.3c0,0,0.1,0.1,0.1,0.1
			c0.1,0,0.1,0,0.2,0C113.4,530.9,113.5,530.9,113.6,530.8z"/>
		<path class="st17" d="M114.1,531.3v-4.6h0.6v1.6c0.2-0.3,0.6-0.5,1-0.5c0.2,0,0.4,0,0.6,0.1c0.2,0.1,0.3,0.2,0.4,0.4
			c0.1,0.2,0.1,0.5,0.1,0.7v2.1h-0.6v-2.1c0-0.2,0-0.4-0.2-0.6c-0.1-0.1-0.3-0.2-0.5-0.2c-0.2,0-0.3,0-0.5,0.1
			c-0.1,0.1-0.3,0.2-0.3,0.4c-0.1,0.2-0.1,0.4-0.1,0.6v1.8L114.1,531.3z"/>
	</g>
	<g>
		<path class="st17" d="M133.7,523.7v-4.6h1.7c0.2,0,0.5,0,0.7,0c0.2,0,0.4,0.1,0.6,0.2c0.2,0.1,0.3,0.3,0.4,0.4
			c0.2,0.5,0.2,1.2-0.2,1.6c-0.4,0.3-0.9,0.5-1.3,0.4h-1.2v1.9L133.7,523.7z M134.3,521.3h1.2c0.3,0,0.6-0.1,0.8-0.2
			c0.2-0.2,0.3-0.4,0.2-0.6c0-0.2,0-0.3-0.1-0.5c-0.1-0.1-0.2-0.2-0.4-0.3c-0.2,0-0.4,0-0.6,0h-1.2V521.3z"/>
		<path class="st17" d="M137.9,523.7v-4.6h0.6v1.9h2.4v-1.9h0.6v4.6h-0.6v-2.2h-2.4v2.2L137.9,523.7z"/>
		<path class="st17" d="M129.7,531.3v-4.6h1.7c0.3,0,0.6,0,0.8,0.1c0.2,0.1,0.4,0.2,0.5,0.4c0.1,0.2,0.2,0.4,0.2,0.6
			c0,0.2-0.1,0.4-0.2,0.6c-0.1,0.2-0.3,0.3-0.5,0.4c0.3,0.1,0.5,0.2,0.6,0.4c0.1,0.2,0.2,0.4,0.2,0.7c0,0.2,0,0.4-0.1,0.6
			c-0.1,0.2-0.2,0.3-0.3,0.4c-0.2,0.1-0.3,0.2-0.5,0.2c-0.2,0.1-0.5,0.1-0.7,0.1L129.7,531.3z M130.3,528.7h1c0.2,0,0.4,0,0.6-0.1
			c0.1,0,0.3-0.1,0.3-0.2c0.1-0.1,0.1-0.3,0.1-0.4c0-0.1,0-0.3-0.1-0.4c-0.1-0.1-0.2-0.2-0.3-0.2c-0.2-0.1-0.5-0.1-0.7-0.1h-0.9
			L130.3,528.7z M130.3,530.8h1.1c0.1,0,0.3,0,0.4,0c0.1,0,0.2-0.1,0.4-0.1c0.1-0.1,0.2-0.2,0.2-0.3c0.1-0.1,0.1-0.3,0.1-0.4
			c0-0.2,0-0.3-0.1-0.4c-0.1-0.1-0.2-0.2-0.4-0.3c-0.2-0.1-0.4-0.1-0.7-0.1h-1.1L130.3,530.8z"/>
		<path class="st17" d="M133.7,529.7c0-0.5,0.1-1,0.5-1.4c0.3-0.2,0.7-0.4,1-0.4c0.4,0,0.8,0.1,1.1,0.4c0.3,0.3,0.5,0.8,0.4,1.2
			c0,0.3,0,0.7-0.2,1c-0.1,0.2-0.3,0.4-0.6,0.6c-0.2,0.1-0.5,0.2-0.8,0.2c-0.4,0-0.8-0.1-1.1-0.4
			C133.8,530.6,133.7,530.2,133.7,529.7z M134.3,529.7c0,0.3,0.1,0.7,0.3,1c0.3,0.4,0.9,0.4,1.3,0.1c0,0,0.1-0.1,0.1-0.1
			c0.2-0.3,0.3-0.6,0.3-1c0-0.3-0.1-0.7-0.3-0.9c-0.3-0.4-0.9-0.4-1.3-0.1c0,0-0.1,0.1-0.1,0.1C134.4,529,134.3,529.3,134.3,529.7
			L134.3,529.7z"/>
		<path class="st17" d="M137.3,529.7c0-0.5,0.1-1,0.5-1.4c0.3-0.2,0.7-0.4,1-0.4c0.4,0,0.8,0.1,1.1,0.4c0.3,0.3,0.5,0.8,0.4,1.2
			c0,0.3,0,0.7-0.2,1c-0.1,0.2-0.3,0.4-0.6,0.6c-0.2,0.1-0.5,0.2-0.8,0.2c-0.4,0-0.8-0.1-1.1-0.4
			C137.4,530.6,137.2,530.2,137.3,529.7z M137.9,529.7c0,0.3,0.1,0.7,0.3,1c0.3,0.4,0.9,0.4,1.3,0.1c0,0,0.1-0.1,0.1-0.1
			c0.2-0.3,0.3-0.6,0.3-1c0-0.3-0.1-0.7-0.3-0.9c-0.3-0.4-0.9-0.4-1.3-0.1c0,0-0.1,0.1-0.1,0.1C137.9,529,137.8,529.3,137.9,529.7z"
			/>
		<path class="st17" d="M142.3,530.8l0.1,0.5c-0.1,0-0.3,0-0.4,0c-0.2,0-0.3,0-0.5-0.1c-0.1-0.1-0.2-0.1-0.2-0.3
			c-0.1-0.2-0.1-0.4-0.1-0.7v-1.9h-0.4V528h0.4v-0.8l0.6-0.3v1.2h0.6v0.4h-0.6v1.9c0,0.1,0,0.2,0,0.3c0,0,0.1,0.1,0.1,0.1
			c0.1,0,0.1,0,0.2,0C142.1,530.9,142.2,530.9,142.3,530.8z"/>
		<path class="st17" d="M142.8,531.3v-4.6h0.6v1.6c0.2-0.3,0.6-0.5,1-0.5c0.2,0,0.4,0,0.6,0.1c0.2,0.1,0.3,0.2,0.4,0.4
			c0.1,0.2,0.1,0.5,0.1,0.7v2.1H145v-2.1c0-0.2,0-0.4-0.2-0.6c-0.1-0.1-0.3-0.2-0.5-0.2c-0.2,0-0.3,0-0.5,0.1
			c-0.1,0.1-0.3,0.2-0.3,0.4c-0.1,0.2-0.1,0.4-0.1,0.6v1.8L142.8,531.3z"/>
	</g>
	<g>
		<path class="st17" d="M253.5,523.7v-4.6h1.7c0.2,0,0.5,0,0.7,0c0.2,0,0.4,0.1,0.6,0.2c0.2,0.1,0.3,0.3,0.4,0.4
			c0.2,0.5,0.2,1.2-0.2,1.6c-0.4,0.3-0.9,0.5-1.3,0.4h-1.2v1.9L253.5,523.7z M254.1,521.3h1.2c0.3,0,0.6,0,0.8-0.2
			c0.2-0.2,0.3-0.4,0.2-0.6c0-0.2,0-0.3-0.1-0.5c-0.1-0.1-0.2-0.2-0.4-0.3c-0.2,0-0.4,0-0.6,0h-1.2L254.1,521.3z"/>
		<path class="st17" d="M257.8,523.7v-4.6h0.6v1.9h2.4v-1.9h0.6v4.6h-0.6v-2.2h-2.4v2.2L257.8,523.7z"/>
		<path class="st17" d="M249.6,531.3v-4.6h1.7c0.3,0,0.6,0,0.8,0.1c0.2,0.1,0.4,0.2,0.5,0.4c0.1,0.2,0.2,0.4,0.2,0.6
			c0,0.2-0.1,0.4-0.2,0.6c-0.1,0.2-0.3,0.3-0.5,0.4c0.3,0.1,0.5,0.2,0.6,0.4c0.1,0.2,0.2,0.4,0.2,0.7c0,0.2,0,0.4-0.1,0.6
			c-0.1,0.2-0.2,0.3-0.3,0.4c-0.2,0.1-0.3,0.2-0.5,0.2c-0.2,0.1-0.5,0.1-0.7,0.1L249.6,531.3z M250.2,528.7h1c0.2,0,0.4,0,0.6-0.1
			c0.1,0,0.3-0.1,0.3-0.2c0.1-0.1,0.1-0.3,0.1-0.4c0-0.1,0-0.3-0.1-0.4c-0.1-0.1-0.2-0.2-0.3-0.2c-0.2-0.1-0.5-0.1-0.7-0.1h-0.9
			L250.2,528.7z M250.2,530.8h1.1c0.1,0,0.3,0,0.4,0c0.1,0,0.2-0.1,0.4-0.1c0.1-0.1,0.2-0.2,0.2-0.3c0.1-0.1,0.1-0.3,0.1-0.4
			c0-0.2,0-0.3-0.1-0.4c-0.1-0.1-0.2-0.2-0.4-0.3c-0.2-0.1-0.4-0.1-0.7-0.1h-1.1L250.2,530.8z"/>
		<path class="st17" d="M253.6,529.7c0-0.5,0.1-1,0.5-1.4c0.3-0.2,0.7-0.4,1-0.4c0.4,0,0.8,0.1,1.1,0.4c0.3,0.3,0.5,0.8,0.4,1.2
			c0,0.3,0,0.7-0.2,1c-0.1,0.2-0.3,0.4-0.6,0.6c-0.2,0.1-0.5,0.2-0.8,0.2c-0.4,0-0.8-0.1-1.1-0.4
			C253.7,530.6,253.5,530.2,253.6,529.7z M254.2,529.7c0,0.3,0.1,0.7,0.3,1c0.3,0.4,0.9,0.4,1.3,0.1c0,0,0.1-0.1,0.1-0.1
			c0.2-0.3,0.3-0.6,0.3-1c0-0.3-0.1-0.7-0.3-0.9c-0.3-0.4-0.9-0.4-1.3-0.1c0,0-0.1,0.1-0.1,0.1C254.2,529,254.1,529.3,254.2,529.7z"
			/>
		<path class="st17" d="M257.1,529.7c0-0.5,0.1-1,0.5-1.4c0.3-0.2,0.7-0.4,1-0.4c0.4,0,0.8,0.1,1.1,0.4c0.3,0.3,0.5,0.8,0.4,1.2
			c0,0.3,0,0.7-0.2,1c-0.1,0.2-0.3,0.4-0.6,0.6c-0.2,0.1-0.5,0.2-0.8,0.2c-0.4,0-0.8-0.1-1.1-0.4
			C257.3,530.6,257.1,530.2,257.1,529.7z M257.7,529.7c0,0.3,0.1,0.7,0.3,1c0.3,0.4,0.9,0.4,1.3,0.1c0,0,0.1-0.1,0.1-0.1
			c0.2-0.3,0.3-0.6,0.3-1c0-0.3-0.1-0.7-0.3-0.9c-0.3-0.4-0.9-0.4-1.3-0.1c0,0-0.1,0.1-0.1,0.1C257.8,529,257.7,529.3,257.7,529.7z"
			/>
		<path class="st17" d="M262.1,530.8l0.1,0.5c-0.1,0-0.3,0-0.4,0c-0.2,0-0.3,0-0.5-0.1c-0.1-0.1-0.2-0.1-0.2-0.3
			c-0.1-0.2-0.1-0.4-0.1-0.7v-1.9h-0.4V528h0.4v-0.8l0.6-0.3v1.2h0.6v0.4h-0.6v1.9c0,0.1,0,0.2,0,0.3c0,0,0.1,0.1,0.1,0.1
			c0.1,0,0.1,0,0.2,0C262,530.9,262,530.9,262.1,530.8z"/>
		<path class="st17" d="M262.7,531.3v-4.6h0.6v1.6c0.2-0.3,0.6-0.5,1-0.5c0.2,0,0.4,0,0.6,0.1c0.2,0.1,0.3,0.2,0.4,0.4
			c0.1,0.2,0.1,0.5,0.1,0.7v2.1h-0.6v-2.1c0-0.2,0-0.4-0.2-0.6c-0.1-0.1-0.3-0.2-0.5-0.2c-0.2,0-0.3,0-0.5,0.1
			c-0.1,0.1-0.3,0.2-0.3,0.4c-0.1,0.2-0.1,0.4-0.1,0.6v1.8L262.7,531.3z"/>
	</g>
	<g>
		<path class="st17" d="M367.3,250.7v-4.6h1.7c0.2,0,0.5,0,0.7,0c0.2,0,0.4,0.1,0.6,0.2c0.2,0.1,0.3,0.3,0.4,0.4
			c0.2,0.5,0.2,1.2-0.2,1.6c-0.4,0.3-0.9,0.5-1.3,0.4h-1.2v1.9L367.3,250.7z M367.9,248.3h1.2c0.3,0,0.6-0.1,0.8-0.2
			c0.2-0.2,0.3-0.4,0.2-0.6c0-0.2,0-0.3-0.1-0.5c-0.1-0.1-0.2-0.2-0.4-0.3c-0.2,0-0.4,0-0.6,0h-1.2L367.9,248.3z"/>
		<path class="st17" d="M371.5,250.7v-4.6h0.6v1.9h2.4v-1.9h0.6v4.6h-0.6v-2.2h-2.4v2.2L371.5,250.7z"/>
		<path class="st17" d="M363.3,258.3v-4.6h1.7c0.3,0,0.6,0,0.8,0.1c0.2,0.1,0.4,0.2,0.5,0.4c0.1,0.2,0.2,0.4,0.2,0.6
			c0,0.2-0.1,0.4-0.2,0.6c-0.1,0.2-0.3,0.3-0.5,0.4c0.3,0.1,0.5,0.2,0.6,0.4c0.1,0.2,0.2,0.4,0.2,0.7c0,0.2,0,0.4-0.1,0.6
			c-0.1,0.2-0.2,0.3-0.3,0.4c-0.2,0.1-0.3,0.2-0.5,0.2c-0.2,0.1-0.5,0.1-0.7,0.1L363.3,258.3z M363.9,255.7h1c0.2,0,0.4,0,0.6-0.1
			c0.1,0,0.3-0.1,0.3-0.2c0.1-0.1,0.1-0.3,0.1-0.4c0-0.1,0-0.3-0.1-0.4c-0.1-0.1-0.2-0.2-0.3-0.2c-0.2-0.1-0.5-0.1-0.7-0.1h-0.9
			L363.9,255.7z M363.9,257.8h1.1c0.1,0,0.3,0,0.4,0c0.1,0,0.2-0.1,0.4-0.1c0.1-0.1,0.2-0.2,0.2-0.3c0.1-0.1,0.1-0.3,0.1-0.4
			c0-0.2,0-0.3-0.1-0.4c-0.1-0.1-0.2-0.2-0.4-0.3c-0.2-0.1-0.4-0.1-0.7-0.1h-1.1L363.9,257.8z"/>
		<path class="st17" d="M367.3,256.7c0-0.5,0.1-1,0.5-1.4c0.3-0.2,0.7-0.4,1-0.4c0.4,0,0.8,0.1,1.1,0.4c0.3,0.3,0.5,0.8,0.4,1.2
			c0,0.3,0,0.7-0.2,1c-0.1,0.2-0.3,0.4-0.6,0.6c-0.2,0.1-0.5,0.2-0.8,0.2c-0.4,0-0.8-0.1-1.1-0.4
			C367.4,257.6,367.3,257.1,367.3,256.7z M367.9,256.7c0,0.3,0.1,0.7,0.3,1c0.3,0.4,0.9,0.4,1.3,0.1c0,0,0.1-0.1,0.1-0.1
			c0.2-0.3,0.3-0.6,0.3-1c0-0.3-0.1-0.7-0.3-0.9c-0.3-0.4-0.9-0.4-1.3-0.1c0,0-0.1,0.1-0.1,0.1C368,256,367.9,256.3,367.9,256.7z"/>
		<path class="st17" d="M370.9,256.7c0-0.5,0.1-1,0.5-1.4c0.3-0.2,0.7-0.4,1-0.4c0.4,0,0.8,0.1,1.1,0.4c0.3,0.3,0.5,0.8,0.4,1.2
			c0,0.3,0,0.7-0.2,1c-0.1,0.2-0.3,0.4-0.6,0.6c-0.2,0.1-0.5,0.2-0.8,0.2c-0.4,0-0.8-0.1-1.1-0.4C371,257.6,370.8,257.1,370.9,256.7
			z M371.5,256.7c0,0.3,0.1,0.7,0.3,1c0.3,0.4,0.9,0.4,1.3,0.1c0,0,0.1-0.1,0.1-0.1c0.2-0.3,0.3-0.6,0.3-1c0-0.3-0.1-0.7-0.3-0.9
			c-0.3-0.4-0.9-0.4-1.3-0.1c0,0-0.1,0.1-0.1,0.1C371.5,256,371.4,256.3,371.5,256.7z"/>
		<path class="st17" d="M375.9,257.8l0.1,0.5c-0.1,0-0.3,0-0.4,0c-0.2,0-0.3,0-0.5-0.1c-0.1-0.1-0.2-0.1-0.2-0.3
			c-0.1-0.2-0.1-0.4-0.1-0.7v-1.9h-0.4V255h0.4v-0.8l0.6-0.3v1.2h0.6v0.4h-0.6v1.9c0,0.1,0,0.2,0,0.3c0,0,0.1,0.1,0.1,0.1
			c0.1,0,0.1,0,0.2,0C375.7,257.9,375.8,257.9,375.9,257.8z"/>
		<path class="st17" d="M376.4,258.3v-4.6h0.6v1.6c0.2-0.3,0.6-0.5,1-0.5c0.2,0,0.4,0,0.6,0.1c0.2,0.1,0.3,0.2,0.4,0.4
			c0.1,0.2,0.1,0.5,0.1,0.7v2.1h-0.6v-2.1c0-0.2,0-0.4-0.2-0.6c-0.1-0.1-0.3-0.2-0.5-0.2c-0.2,0-0.3,0-0.5,0.1
			c-0.1,0.1-0.3,0.2-0.3,0.4c-0.1,0.2-0.1,0.4-0.1,0.6v1.8L376.4,258.3z"/>
	</g>
</g>
<g id="bookable">
	<rect id="area-06.602-status" x="417.8" y="519.1" class="st20" width="82.2" height="85.5"/>
	<rect id="area-06.604-status" x="232.2" y="594.3" class="st20" width="110.4" height="110.3"/>
	<rect id="area-06.605-status" x="122.4" y="594.3" class="st20" width="110.4" height="111.5"/>
	<rect id="area-06.606-status" x="7.2" y="552" class="st20" width="115.2" height="153.8"/>
	<rect id="area-06.607-status" x="302" y="474.6" class="st20" width="85.8" height="82"/>
	<polygon id="area-06.603-status" class="st20" points="342.6,594.3 342.6,704.6 499.1,704.6 500.1,605.7 385.8,605.7 386.1,594.3 	
		"/>
	<polygon id="area-06.601-status_00000014626869130979412280000003927017157844152193_" class="st20" points="299.7,61.3 
		299.7,235.1 358.3,235.1 358.3,239.5 383.8,239.5 383.8,266.3 402.5,266.3 402.5,239.5 438.8,241.2 496.6,241.2 496.6,75.2 
		437.8,75.2 437.8,61.3 	"/>
</g>
<g id="outline">
	<polygon class="st21" points="300.7,266.4 300.7,61.6 438.8,61.6 438.8,4 495.8,4 500.1,707 4.1,707 4.1,266.5 	"/>
	<polyline class="st22" points="400.8,415 393,415 393,474.4 302,474.9 301.5,557 387.7,557 387.7,546.7 	"/>
	<polyline class="st22" points="4.1,551.2 95.3,551.2 95.3,508.6 270.4,508.6 268.8,320.8 268.3,266.5 300.7,266.4 300.7,235.1 
		358.3,235.1 358.3,265.6 402.5,265.6 402.5,239.8 438.8,240.7 438.8,284.1 	"/>
	<polyline class="st22" points="388.2,519.1 388.2,474.4 335.8,474.4 335.8,414.7 393,415 302.2,414.7 302.2,456.4 300.7,266.4 	"/>
	<polyline class="st22" points="394.4,330.3 394.4,314.3 349.6,314.3 349.6,364.4 394.4,364.4 394.4,349.2 	"/>
	<line class="st22" x1="268.8" y1="324.2" x2="301.1" y2="324.2"/>
	<polyline class="st22" points="438.8,306.9 438.8,415 428.1,415 	"/>
	<line class="st22" x1="269.9" y1="447.2" x2="302.2" y2="447.2"/>
	<polyline class="st22" points="318,593.1 386.1,593.1 386.1,604.5 396.6,604.5 	"/>
	<polyline class="st22" points="342.6,593.1 342.6,707 500.1,707 499.5,604.5 418.3,604.5 414,604.5 	"/>
	<polyline class="st22" points="417.8,579 417.8,519.1 500.1,519.1 	"/>
	<polyline class="st22" points="122.4,571.8 122.4,508.6 152.8,508.6 152.8,542.7 148.6,542.5 	"/>
	<polyline class="st22" points="122.4,590.9 122.4,707 232.5,707 232.5,593.1 299,593.1 208.1,593.1 	"/>
	<line class="st22" x1="190" y1="593.1" x2="122.4" y2="593.1"/>
	<line class="st22" x1="131.3" y1="543" x2="122.4" y2="543"/>
	<polyline class="st22" points="250.7,544 244.7,544 244.7,508.6 270.4,508.6 270.4,544 266.5,544 	"/>
	<line class="st22" x1="458.3" y1="241.2" x2="496.6" y2="241.2"/>
	<polyline class="st22" points="378.9,239.5 383.8,239.5 383.8,264.6 	"/>
	<line class="st22" x1="362.5" y1="239.5" x2="357.4" y2="239.5"/>
	<polyline class="st22" points="460.2,75.2 437.8,75.2 437.8,54.4 	"/>
	<line class="st22" x1="480.5" y1="75.2" x2="497.8" y2="75.2"/>
</g>
<g id="Room_name">
	<g id="Text">
		<path class="st13" d="M56.7,631.4c0-0.3-0.1-0.5-0.3-0.7c-0.3-0.4-0.8-0.7-1.3-0.6c-0.9,0-1.7,0.6-1.9,1.5
			c-0.2,0.8-0.4,1.6-0.4,2.4c0.3-0.4,0.7-0.7,1.2-0.9c1.6-0.6,3.3-0.2,4.5,1c0.8,0.9,1.2,2,1.2,3.2c0,1.2-0.4,2.4-1.1,3.4
			c-0.9,1-2.2,1.6-3.5,1.5c-1.6,0.1-3.1-0.8-3.8-2.2c-0.7-1.3-1-2.8-1-4.4c0-0.9,0-1.7,0.1-2.5c0.1-1,0.4-2,0.9-2.9
			c0.4-0.6,0.9-1.2,1.5-1.6c0.7-0.4,1.5-0.6,2.3-0.6c1.1-0.1,2.2,0.3,3,1c0.8,0.7,1.2,1.6,1.3,2.6L56.7,631.4z M53.5,639.1
			c0.4,0.5,0.9,0.7,1.5,0.7c0.6,0,1.1-0.2,1.4-0.7c0.4-0.5,0.5-1.1,0.5-1.8c0-0.7-0.2-1.3-0.6-1.8c-0.4-0.4-0.9-0.6-1.4-0.6
			c-0.4,0-0.9,0.1-1.2,0.4c-0.6,0.5-0.9,1.2-0.8,2C52.9,637.9,53.1,638.6,53.5,639.1z"/>
		<path class="st13" d="M69.3,629.7c1.4,3.3,1.4,7.1,0,10.4c-0.8,1.3-2.2,2-3.7,1.8c-1.5,0.1-2.9-0.6-3.7-1.8
			c-1.4-3.3-1.4-7.1,0-10.4c0.8-1.3,2.2-2,3.7-1.8C67.1,627.7,68.6,628.4,69.3,629.7z M64.1,638.5c0.1,0.7,0.8,1.3,1.6,1.2
			c0.8,0,1.4-0.5,1.6-1.2c0.3-1.2,0.4-2.4,0.4-3.6c0-1.2-0.1-2.5-0.4-3.7c-0.2-0.7-0.8-1.2-1.6-1.2c-0.7,0-1.4,0.5-1.6,1.2
			c-0.3,1.2-0.4,2.4-0.4,3.7C63.7,636.1,63.8,637.3,64.1,638.5z"/>
		<path class="st13" d="M78.2,631.4c0-0.3-0.1-0.5-0.3-0.7c-0.3-0.4-0.8-0.7-1.3-0.6c-0.9,0-1.7,0.6-1.9,1.5
			c-0.2,0.8-0.4,1.6-0.4,2.4c0.3-0.4,0.7-0.7,1.2-0.9c1.6-0.6,3.3-0.2,4.5,1c0.8,0.9,1.2,2,1.2,3.2c0,1.2-0.4,2.4-1.1,3.4
			c-0.9,1-2.2,1.6-3.5,1.5c-1.6,0.1-3.1-0.8-3.8-2.2c-0.7-1.3-1-2.8-1-4.4c0-0.9,0-1.7,0.1-2.5c0.1-1,0.4-2,0.9-2.9
			c0.4-0.6,0.9-1.2,1.5-1.6c0.7-0.4,1.5-0.6,2.3-0.6c1.1-0.1,2.2,0.3,3,1c0.8,0.7,1.2,1.6,1.3,2.6L78.2,631.4z M75,639.1
			c0.4,0.5,0.9,0.7,1.5,0.7c0.6,0,1.1-0.2,1.4-0.7c0.4-0.5,0.5-1.1,0.5-1.8c0-0.7-0.2-1.3-0.6-1.8c-0.4-0.4-0.9-0.6-1.4-0.6
			c-0.4,0-0.9,0.1-1.2,0.4c-0.6,0.5-0.9,1.2-0.8,2C74.4,637.9,74.6,638.6,75,639.1L75,639.1z"/>
	</g>
	<g id="Text-2">
		<path class="st13" d="M170.9,648.1c0-0.3-0.1-0.5-0.3-0.7c-0.3-0.4-0.8-0.7-1.3-0.6c-0.9,0-1.7,0.6-1.9,1.5
			c-0.2,0.8-0.4,1.6-0.4,2.4c0.3-0.4,0.7-0.7,1.2-0.9c1.6-0.6,3.3-0.2,4.5,1c0.8,0.9,1.2,2,1.2,3.2c0,1.2-0.4,2.4-1.1,3.4
			c-0.9,1-2.2,1.6-3.5,1.5c-1.6,0.1-3.1-0.8-3.8-2.2c-0.7-1.3-1-2.8-1-4.4c0-0.9,0-1.7,0.1-2.5c0.1-1,0.4-2,0.9-2.9
			c0.4-0.6,0.9-1.2,1.5-1.6c0.7-0.4,1.5-0.6,2.3-0.6c1.1-0.1,2.2,0.3,3,1c0.8,0.7,1.2,1.6,1.3,2.6L170.9,648.1z M167.7,655.8
			c0.4,0.5,0.9,0.7,1.5,0.7c0.6,0,1.1-0.2,1.4-0.7c0.4-0.5,0.5-1.1,0.5-1.8c0-0.7-0.2-1.3-0.6-1.8c-0.4-0.4-0.9-0.6-1.4-0.6
			c-0.4,0-0.9,0.1-1.2,0.4c-0.6,0.5-0.9,1.2-0.8,2C167.1,654.7,167.3,655.3,167.7,655.8L167.7,655.8z"/>
		<path class="st13" d="M183.5,646.4c1.4,3.3,1.4,7.1,0,10.4c-1.5,2-4.4,2.4-6.4,0.9c-0.3-0.3-0.7-0.6-0.9-0.9
			c-1.4-3.3-1.4-7.1,0-10.4c1.5-2,4.4-2.4,6.4-0.9C183,645.8,183.3,646.1,183.5,646.4z M178.3,655.3c0.1,0.7,0.8,1.3,1.6,1.2
			c0.8,0,1.4-0.5,1.6-1.2c0.3-1.2,0.4-2.4,0.4-3.6c0-1.2-0.1-2.5-0.4-3.7c-0.2-0.7-0.8-1.2-1.6-1.2c-0.7,0-1.4,0.5-1.6,1.2
			c-0.3,1.2-0.4,2.4-0.4,3.7C177.9,652.9,178,654.1,178.3,655.3z"/>
		<path class="st13" d="M188.5,654.7c0.1,0.5,0.3,1,0.6,1.4c0.4,0.3,0.8,0.5,1.3,0.5c0.6,0,1.2-0.2,1.5-0.7c0.4-0.5,0.5-1.1,0.5-1.8
			c0-0.6-0.1-1.2-0.5-1.8c-0.3-0.5-0.9-0.8-1.5-0.7c-0.3,0-0.6,0-0.8,0.1c-0.4,0.1-0.8,0.4-1,0.8l-2.4-0.1l1-7.6h7.5v2.3h-5.6
			l-0.5,3c0.3-0.2,0.6-0.4,1-0.5c0.5-0.2,0.9-0.2,1.4-0.2c2.3-0.1,4.2,1.7,4.2,4c0,0.1,0,0.3,0,0.4c0,1.2-0.4,2.4-1.2,3.4
			c-0.9,1-2.3,1.6-3.6,1.5c-1.2,0-2.3-0.3-3.2-1c-0.9-0.8-1.4-1.8-1.4-3L188.5,654.7z"/>
	</g>
	<g id="Text-3">
		<path class="st13" d="M280.3,648.1c0-0.3-0.1-0.5-0.3-0.7c-0.3-0.4-0.8-0.7-1.3-0.6c-0.9,0-1.7,0.6-1.9,1.5
			c-0.2,0.8-0.4,1.6-0.4,2.4c0.3-0.4,0.7-0.7,1.2-0.9c1.6-0.6,3.3-0.2,4.5,1c0.8,0.9,1.2,2,1.2,3.2c0,1.2-0.4,2.4-1.1,3.4
			c-0.9,1-2.2,1.6-3.5,1.5c-1.6,0.1-3.1-0.8-3.8-2.2c-0.7-1.3-1-2.8-1-4.4c0-0.9,0-1.7,0.1-2.5c0.1-1,0.4-2,0.9-2.9
			c0.4-0.6,0.9-1.2,1.5-1.6c0.7-0.4,1.5-0.6,2.3-0.6c1.1-0.1,2.2,0.3,3,1c0.8,0.7,1.2,1.6,1.3,2.6L280.3,648.1z M277.1,655.8
			c0.4,0.5,0.9,0.7,1.5,0.7c0.6,0,1.1-0.2,1.4-0.7c0.4-0.5,0.5-1.1,0.5-1.8c0-0.7-0.2-1.3-0.6-1.8c-0.4-0.4-0.9-0.6-1.4-0.6
			c-0.4,0-0.9,0.1-1.2,0.4c-0.6,0.5-0.9,1.2-0.8,2C276.5,654.7,276.7,655.3,277.1,655.8L277.1,655.8z"/>
		<path class="st13" d="M293,646.4c1.4,3.3,1.4,7.1,0,10.4c-1.5,2-4.4,2.4-6.4,0.9c-0.3-0.3-0.7-0.6-0.9-0.9
			c-1.4-3.3-1.4-7.1,0-10.4c1.5-2,4.4-2.4,6.4-0.9C292.4,645.8,292.7,646.1,293,646.4z M287.7,655.3c0.1,0.7,0.8,1.3,1.6,1.2
			c0.8,0,1.4-0.5,1.6-1.2c0.3-1.2,0.4-2.4,0.4-3.6c0-1.2-0.1-2.5-0.4-3.7c-0.2-0.7-0.8-1.2-1.6-1.2c-0.7,0-1.4,0.5-1.6,1.2
			c-0.3,1.2-0.4,2.4-0.4,3.7C287.3,652.9,287.4,654.1,287.7,655.3z"/>
		<path class="st13" d="M304.8,655.4h-1.5v2.9h-2.6v-2.9h-5.4v-2.3l5-8.3h3v8.5h1.5L304.8,655.4z M300.6,653.3v-5.9l-3.4,5.9H300.6z
			"/>
	</g>
	<g id="Text-4">
		<path class="st13" d="M409.7,648.1c0-0.3-0.1-0.5-0.3-0.7c-0.3-0.4-0.8-0.7-1.3-0.6c-0.9,0-1.7,0.6-1.9,1.5
			c-0.2,0.8-0.4,1.6-0.4,2.4c0.3-0.4,0.7-0.7,1.2-0.9c1.6-0.6,3.3-0.2,4.5,1c0.8,0.9,1.2,2,1.2,3.2c0,1.2-0.4,2.4-1.1,3.4
			c-0.9,1-2.2,1.6-3.5,1.5c-1.6,0.1-3.1-0.8-3.8-2.2c-0.7-1.3-1-2.8-1-4.4c0-0.9,0-1.7,0.1-2.5c0.1-1,0.4-2,0.9-2.9
			c0.4-0.6,0.9-1.2,1.5-1.6c0.7-0.4,1.5-0.6,2.3-0.6c1.1-0.1,2.2,0.3,3,1c0.8,0.7,1.2,1.6,1.3,2.6L409.7,648.1z M406.5,655.8
			c0.4,0.5,0.9,0.7,1.5,0.7c0.6,0,1.1-0.2,1.4-0.7c0.4-0.5,0.5-1.1,0.5-1.8c0-0.7-0.2-1.3-0.6-1.8c-0.4-0.4-0.9-0.6-1.4-0.6
			c-0.4,0-0.9,0.1-1.2,0.4c-0.6,0.5-0.9,1.2-0.8,2C405.9,654.7,406.1,655.3,406.5,655.8L406.5,655.8z"/>
		<path class="st13" d="M422.4,646.4c1.4,3.3,1.4,7.1,0,10.4c-1.5,2-4.4,2.4-6.4,0.9c-0.3-0.3-0.7-0.6-0.9-0.9
			c-1.4-3.3-1.4-7.1,0-10.4c1.5-2,4.4-2.4,6.4-0.9C421.8,645.8,422.1,646.1,422.4,646.4z M417.1,655.3c0.1,0.7,0.8,1.3,1.6,1.2
			c0.8,0,1.4-0.5,1.6-1.2c0.3-1.2,0.4-2.4,0.4-3.6c0-1.2-0.1-2.5-0.4-3.7c-0.2-0.7-0.8-1.2-1.6-1.2c-0.7,0-1.4,0.5-1.6,1.2
			c-0.3,1.2-0.4,2.4-0.4,3.7C416.7,652.9,416.8,654.1,417.1,655.3z"/>
		<path class="st13" d="M427.3,654.2c0,0.5,0.1,0.9,0.3,1.4c0.3,0.7,1,1.1,1.8,1c0.5,0,1-0.2,1.4-0.5c0.4-0.4,0.6-1,0.6-1.6
			c0.1-0.8-0.4-1.5-1.1-1.8c-0.6-0.2-1.3-0.3-2-0.3v-1.9c0.6,0,1.2-0.1,1.8-0.3c0.6-0.3,1-0.9,0.9-1.6c0-0.5-0.1-0.9-0.5-1.3
			c-0.3-0.3-0.8-0.5-1.3-0.5c-0.5,0-1.1,0.2-1.4,0.6c-0.3,0.5-0.5,1-0.4,1.6h-2.5c0-0.7,0.1-1.3,0.3-1.9c0.2-0.6,0.6-1.1,1-1.5
			c0.4-0.3,0.8-0.6,1.3-0.7c0.6-0.2,1.2-0.3,1.8-0.3c1.1-0.1,2.3,0.3,3.2,1c0.8,0.7,1.2,1.7,1.2,2.7c0,0.7-0.2,1.5-0.7,2
			c-0.3,0.3-0.6,0.6-0.9,0.7c0.4,0.1,0.8,0.3,1.1,0.6c0.7,0.7,1.1,1.6,1,2.6c0,1.1-0.4,2.2-1.2,3.1c-0.9,0.9-2.2,1.4-3.6,1.3
			c-1.9,0-3.3-0.6-4-1.9c-0.4-0.8-0.7-1.7-0.7-2.6L427.3,654.2z"/>
	</g>
	<g id="Text-5">
		<path class="st13" d="M450.2,557c0-0.3-0.1-0.5-0.3-0.7c-0.3-0.4-0.8-0.7-1.3-0.6c-0.9,0-1.7,0.6-1.9,1.5
			c-0.2,0.8-0.4,1.6-0.4,2.4c0.3-0.4,0.7-0.7,1.2-0.9c1.6-0.6,3.3-0.2,4.5,1c0.8,0.9,1.2,2,1.2,3.2c0,1.2-0.4,2.4-1.1,3.4
			c-0.9,1-2.2,1.6-3.5,1.5c-1.6,0.1-3.1-0.8-3.8-2.2c-0.7-1.3-1-2.8-1-4.4c0-0.9,0-1.7,0.1-2.5c0.1-1,0.4-2,0.9-2.9
			c0.4-0.6,0.9-1.2,1.5-1.6c0.7-0.4,1.5-0.6,2.3-0.6c1.1-0.1,2.2,0.3,3,1c0.8,0.7,1.2,1.6,1.3,2.6L450.2,557z M447,564.7
			c0.4,0.5,0.9,0.7,1.5,0.7c0.6,0,1.1-0.2,1.4-0.7c0.4-0.5,0.5-1.1,0.5-1.8c0-0.7-0.2-1.3-0.6-1.8c-0.4-0.4-0.9-0.6-1.4-0.6
			c-0.4,0-0.9,0.1-1.2,0.4c-0.6,0.5-0.9,1.2-0.8,2C446.3,563.5,446.6,564.2,447,564.7z"/>
		<path class="st13" d="M462.8,555.3c1.4,3.3,1.4,7.1,0,10.4c-1.5,2-4.4,2.4-6.4,0.9c-0.3-0.3-0.7-0.6-0.9-0.9
			c-1.4-3.3-1.4-7.1,0-10.4c1.5-2,4.4-2.4,6.4-0.9C462.2,554.6,462.5,554.9,462.8,555.3L462.8,555.3z M457.6,564.1
			c0.1,0.7,0.8,1.3,1.6,1.2c0.8,0,1.4-0.5,1.6-1.2c0.3-1.2,0.4-2.4,0.4-3.6c0-1.2-0.1-2.5-0.4-3.7c-0.2-0.7-0.8-1.2-1.6-1.2
			c-0.7,0-1.4,0.5-1.6,1.2c-0.3,1.2-0.4,2.4-0.4,3.7C457.1,561.7,457.3,562.9,457.6,564.1z"/>
		<path class="st13" d="M465.8,564.5c0.6-1.2,1.6-2.2,2.7-2.9c0.8-0.6,1.7-1.2,2.4-1.9c0.5-0.5,0.8-1.2,0.8-2c0-0.5-0.2-1-0.5-1.4
			c-0.8-0.8-2-0.8-2.8,0c-0.1,0.1-0.2,0.2-0.3,0.3c-0.2,0.5-0.3,1.1-0.3,1.7h-2.6c0-1,0.2-1.9,0.6-2.8c0.8-1.4,2.3-2.2,3.8-2
			c1.3-0.1,2.5,0.4,3.5,1.2c0.9,0.8,1.3,2,1.3,3.2c0,1-0.3,1.9-0.9,2.7c-0.6,0.7-1.2,1.3-2,1.7l-1.1,0.8c-0.7,0.5-1.1,0.8-1.4,1
			c-0.2,0.2-0.5,0.5-0.6,0.7h6v2.4h-9.4C465.2,566.3,465.4,565.4,465.8,564.5z"/>
	</g>
	<g id="Text-6">
		<path class="st13" d="M336.8,513.4c0-0.3-0.1-0.5-0.3-0.7c-0.3-0.4-0.8-0.7-1.3-0.6c-0.9,0-1.7,0.6-1.9,1.5
			c-0.2,0.8-0.4,1.6-0.4,2.4c0.3-0.4,0.7-0.7,1.2-0.9c1.6-0.6,3.3-0.2,4.5,1c0.8,0.9,1.2,2,1.2,3.2c0,1.2-0.4,2.4-1.1,3.4
			c-0.9,1-2.2,1.6-3.5,1.5c-1.6,0.1-3.1-0.8-3.8-2.2c-0.7-1.3-1-2.8-1-4.4c0-0.9,0-1.7,0.1-2.5c0.1-1,0.4-2,0.9-2.9
			c0.4-0.6,0.9-1.2,1.5-1.6c0.7-0.4,1.5-0.6,2.3-0.6c1.1-0.1,2.2,0.3,3,1c0.8,0.7,1.2,1.6,1.3,2.6L336.8,513.4z M333.6,521.1
			c0.4,0.5,0.9,0.7,1.5,0.7c0.6,0,1.1-0.2,1.4-0.7c0.4-0.5,0.5-1.1,0.5-1.8c0-0.7-0.2-1.3-0.6-1.8c-0.4-0.4-0.9-0.6-1.4-0.6
			c-0.4,0-0.9,0.1-1.2,0.4c-0.6,0.5-0.9,1.2-0.8,2C333,519.9,333.2,520.6,333.6,521.1z"/>
		<path class="st13" d="M349.5,511.7c1.4,3.3,1.4,7.1,0,10.4c-1.5,2-4.4,2.4-6.4,0.9c-0.3-0.3-0.7-0.6-0.9-0.9
			c-1.4-3.3-1.4-7.1,0-10.4c1.5-2,4.4-2.4,6.4-0.9C348.9,511,349.2,511.3,349.5,511.7z M344.2,520.5c0.1,0.7,0.8,1.3,1.6,1.3
			c0.8,0,1.4-0.5,1.6-1.3c0.3-1.2,0.4-2.4,0.4-3.6c0-1.2-0.1-2.5-0.4-3.7c-0.2-0.7-0.8-1.2-1.6-1.2c-0.7,0-1.4,0.5-1.6,1.2
			c-0.3,1.2-0.4,2.4-0.4,3.7C343.8,518.1,343.9,519.3,344.2,520.5z"/>
		<path class="st13" d="M361.4,512.2c-0.6,0.7-1.2,1.4-1.7,2.1c-1.4,1.9-2.3,4-2.8,6.3c-0.3,1-0.4,2-0.5,3h-2.8
			c0.2-2.7,1-5.3,2.4-7.7c0.7-1.2,1.5-2.4,2.5-3.4h-6.8l0-2.4h9.7L361.4,512.2z"/>
	</g>
	<g id="Text-7">
		<path class="st13" d="M399.5,147.1c0-0.3-0.1-0.5-0.3-0.7c-0.3-0.4-0.8-0.7-1.3-0.6c-0.9,0-1.7,0.6-1.9,1.5
			c-0.2,0.8-0.4,1.6-0.4,2.4c0.3-0.4,0.7-0.7,1.2-0.9c1.6-0.6,3.3-0.2,4.5,1c0.8,0.9,1.2,2,1.2,3.2c0,1.2-0.4,2.4-1.1,3.4
			c-0.9,1-2.2,1.6-3.5,1.5c-1.6,0.1-3.1-0.8-3.8-2.2c-0.7-1.3-1-2.8-1-4.4c0-0.9,0-1.7,0.1-2.5c0.1-1,0.4-2,0.9-2.9
			c0.4-0.6,0.9-1.2,1.5-1.6c0.7-0.4,1.5-0.6,2.3-0.6c1.1-0.1,2.2,0.3,3,1c0.8,0.7,1.2,1.6,1.3,2.6L399.5,147.1z M396.3,154.8
			c0.4,0.5,0.9,0.7,1.5,0.7c0.6,0,1.1-0.2,1.4-0.7c0.4-0.5,0.5-1.1,0.5-1.8c0-0.7-0.2-1.3-0.6-1.8c-0.4-0.4-0.9-0.6-1.4-0.6
			c-0.4,0-0.9,0.1-1.2,0.4c-0.6,0.5-0.9,1.2-0.8,2C395.7,153.6,395.9,154.3,396.3,154.8L396.3,154.8z"/>
		<path class="st13" d="M412.1,145.4c1.4,3.3,1.4,7.1,0,10.4c-1.5,2-4.4,2.4-6.4,0.9c-0.3-0.3-0.7-0.6-0.9-0.9
			c-1.4-3.3-1.4-7.1,0-10.4c1.5-2,4.4-2.4,6.4-0.9C411.6,144.7,411.9,145,412.1,145.4z M406.9,154.2c0.1,0.7,0.8,1.3,1.6,1.3
			c0.8,0,1.4-0.5,1.6-1.3c0.3-1.2,0.4-2.4,0.4-3.6c0-1.2-0.1-2.5-0.4-3.7c-0.2-0.7-0.8-1.2-1.6-1.2c-0.7,0-1.4,0.5-1.6,1.2
			c-0.3,1.2-0.4,2.4-0.4,3.7C406.5,151.8,406.6,153,406.9,154.2z"/>
		<path class="st13" d="M415.2,147.9V146c0.6,0,1.2-0.1,1.8-0.2c0.5-0.1,1-0.3,1.3-0.7c0.3-0.3,0.4-0.6,0.5-1
			c0.1-0.2,0.1-0.4,0.1-0.5h2.2v13.7h-2.8v-9.4L415.2,147.9z"/>
	</g>
</g>
</svg>
