<svg id="Layer_1" data-name="Layer 1" xmlns="http://www.w3.org/2000/svg" viewBox="0 0 578.05 345.01"><defs><style>.cls-1{fill:#4196b1;}.cls-2{fill:#a8e0e5;}.cls-3{fill:#9cb7b6;opacity:0.4;}.cls-15,.cls-16,.cls-17,.cls-21,.cls-3,.cls-30,.cls-31,.cls-6,.cls-9{isolation:isolate;}.cls-4{fill:#99b8bf;}.cls-5{fill:#8eccce;}.cls-6{font-size:3.83px;}.cls-12,.cls-15,.cls-16,.cls-6,.cls-9{fill:#646b6d;font-family:ArialMT, Arial;}.cls-7{fill:#ebf2f2;}.cls-8{fill:#7a8e93;stroke-width:0.14px;}.cls-10,.cls-14,.cls-24,.cls-8{stroke:#7a8e93;}.cls-10,.cls-20,.cls-24,.cls-27,.cls-28,.cls-29,.cls-32,.cls-33,.cls-8{stroke-miterlimit:10;}.cls-12,.cls-9{font-size:3.72px;}.cls-10,.cls-14,.cls-20,.cls-24,.cls-27,.cls-28,.cls-29,.cls-32,.cls-33{fill:none;}.cls-10,.cls-14{stroke-width:0.31px;}.cls-11{letter-spacing:-0.02em;}.cls-13{letter-spacing:-0.11em;}.cls-14,.cls-24{stroke-linecap:round;}.cls-14{stroke-linejoin:round;}.cls-15,.cls-16{font-size:3.79px;}.cls-15{letter-spacing:-0.29em;}.cls-17{fill:#030303;opacity:0.05;}.cls-18{fill:#b8bfc1;}.cls-19{fill:#f7f2f2;}.cls-20{stroke:#dadcdc;stroke-width:0.25px;}.cls-21{fill:#010101;opacity:0.15;}.cls-22{fill:#596068;}.cls-23{fill:#9baeb7;}.cls-24,.cls-28{stroke-width:1.02px;}.cls-25,.cls-31{fill:#fff;}.cls-26{fill:#97ccce;}.cls-27,.cls-28,.cls-29{stroke:#8dc4c4;}.cls-29{stroke-width:0.7px;}.cls-30{fill:#575757;opacity:0.74;}.cls-31{font-size:6px;font-family:Arial-BoldMT, Arial;font-weight:700;}.cls-32{stroke:#fff;stroke-width:2px;}.cls-33{stroke:#ebf2f2;stroke-width:5px;}</style></defs><title>Tech_Hub</title><g id="bkd"><polygon class="cls-1" points="568.53 345.01 9.39 345.01 0.24 333.23 0.24 3.73 577.97 3.73 577.97 333.3 568.53 345.01"/><rect class="cls-2" x="2.5" y="2.5" width="573.05" height="328.28"/><polygon class="cls-3" points="1.44 298.44 284.58 298.44 284.58 274.69 297.55 274.69 297.55 245.92 285.66 245.92 285.66 216.14 573.53 216.14 573.53 330.78 2.5 330.78 1.44 298.44"/><polygon class="cls-3" points="61.54 194.89 61.54 175.3 148.03 175.3 148.03 4.57 5.14 4.57 5.14 196.84 61.54 194.89"/></g><g id="blanks"><polyline class="cls-4" points="261.59 195.58 285.66 195.58 285.66 245.92 297.55 245.92 297.55 274.25 261.57 274.25 261.57 195.58"/></g><g id="highlights"><rect class="cls-5" x="5.14" y="196.84" width="56.4" height="79.14"/><rect class="cls-5" x="105.94" y="195.35" width="75.53" height="78.91"/><polygon class="cls-5" points="184.92 274.69 220.53 274.69 220.53 267.47 261.59 267.47 261.59 195.58 181.48 195.58 181.48 274.25 184.92 274.69"/><rect class="cls-5" x="309.81" y="126.56" width="35.23" height="89.58"/><polyline class="cls-5" points="275.97 126.56 309.81 126.56 309.81 216.14 287.23 216.14 287.23 194.21 275.82 194.21 275.97 126.56"/><rect class="cls-5" x="174.95" y="127.3" width="42.72" height="47.07"/></g><g id="signage"><text class="cls-6" transform="translate(112.63 246.64)">Elevator x2</text><circle class="cls-7" cx="121.79" cy="233.37" r="8.25"/><path class="cls-8" d="M119.52,236.64v-5h1.68v5Zm1.81,0v-5H123v5Zm3.75,0h-1.94v-5.07a.11.11,0,0,0-.07-.06h-3.58a.06.06,0,0,0-.06.06h0v5.07h-.89v-6.55h6.55Zm.06-6.68h-6.67a.07.07,0,0,0-.07.07h0v6.68a.07.07,0,0,0,.07.06h6.68a.06.06,0,0,0,.06-.06h0V230c0-.07,0-.07-.06-.07Z"/><path class="cls-8" d="M120.77,230.85h1.06v-.07h-1a.06.06,0,0,0-.06.06h0C120.77,230.92,120.71,230.85,120.77,230.85Z"/><path class="cls-8" d="M123.9,233.64l.19-.19.2.19h.1v-.07l-.26-.26a.06.06,0,0,0-.08,0h0l-.26.26v.1h0a.06.06,0,0,0,.08,0h0Z"/><path class="cls-8" d="M124.06,234.44h.06l.26-.27a.09.09,0,0,0,0-.1.08.08,0,0,0-.09,0h0l-.2.2-.2-.2a.09.09,0,0,0-.1,0v.1h0Z"/><text class="cls-6" transform="translate(34.96 245.8)">Elevator x2</text><circle class="cls-7" cx="44.11" cy="232.54" r="8.25"/><path class="cls-8" d="M41.85,235.81v-5h1.68v5Zm1.81,0v-5h1.67v5Zm3.74,0H45.46v-5.07a.07.07,0,0,0-.06-.07H41.82a.07.07,0,0,0-.07.07h0v5.06h-.88v-6.54h6.54Zm.07-6.68H40.79a.06.06,0,0,0-.06.06h0v6.68a.06.06,0,0,0,.06.06h6.68a.07.07,0,0,0,.07-.06h0v-6.68C47.54,229.13,47.54,229.13,47.47,229.13Z"/><path class="cls-8" d="M43.1,230h1.06v-.06h-1s-.07,0-.07.06S43,230,43.1,230Z"/><path class="cls-8" d="M46.22,232.81l.2-.2.2.2h.1v-.06l-.27-.27a.06.06,0,0,0-.08,0h0l-.27.27v.1h0a.07.07,0,0,0,.09,0h0Z"/><path class="cls-8" d="M46.39,233.6h.06l.26-.27a.06.06,0,0,0,0-.08h0s-.05-.05-.09,0h0l-.19.2-.2-.2h-.1v.1h0Z"/><g id="stairs-4-2"><circle class="cls-7" cx="161" cy="233.68" r="8.11"/><text class="cls-9" transform="translate(156.46 246.69)">Stairs</text><g id="Outline_Icons-2-2-4-2" data-name="Outline Icons-2-2-4-2"><line class="cls-10" x1="157.37" y1="236.85" x2="163.71" y2="236.85"/><polyline class="cls-10" points="162.6 236.85 162.6 235.75 161.5 235.75 161.5 234.65 160.4 234.65 160.4 233.54 159.3 233.54 159.3 232.44 157.37 232.44"/><line class="cls-10" x1="160.68" y1="230.52" x2="164.14" y2="233.98"/><polyline class="cls-10" points="160.68 231.89 160.68 230.52 162.05 230.52"/><polyline class="cls-10" points="164.14 232.6 164.14 233.98 162.76 233.98"/></g></g><g id="stairs-4-2-2"><circle class="cls-7" cx="293.78" cy="164.19" r="8.11"/><text class="cls-9" transform="translate(287.23 177.2)">Kitchen</text><text class="cls-9" transform="translate(190.08 152.37)">Space</text><text class="cls-9" transform="translate(231.89 31.44)">Supplies</text><text class="cls-9" transform="translate(345.34 31.44)">O<tspan class="cls-11" x="2.89" y="0">f</tspan><tspan x="3.86" y="0">fice</tspan></text><text class="cls-9" transform="translate(405.53 30.56)">O<tspan class="cls-11" x="2.89" y="0">f</tspan><tspan x="3.86" y="0">fice</tspan></text><text class="cls-12" transform="translate(530.03 162.9)"><tspan class="cls-13">T</tspan><tspan x="1.86" y="0">elecom</tspan><tspan x="0.72" y="4.46">Service</tspan></text><text class="cls-9" transform="translate(545.99 79.74)">QC/<tspan x="-4.76" y="4.46">Assembly</tspan></text><text class="cls-9" transform="translate(171.16 55.02)">Shipping</text><text class="cls-9" transform="translate(68.73 85.83)">N.I.C</text><text class="cls-9" transform="translate(430.83 273.46)">N.I.C</text><ellipse class="cls-14" cx="297.46" cy="162.72" rx="0.51" ry="0.77"/><path class="cls-14" d="M290.56,162v4.86m6.9-3.32v3.32M291.32,162v.77a.51.51,0,0,1-.51.51h-.25"/><circle class="cls-14" cx="294.01" cy="164.64" r="2.43"/><path class="cls-14" d="M294.9,165.71a1.42,1.42,0,0,1-2-.16v0h0a1.28,1.28,0,0,1-.3-.75m.29-1a1.41,1.41,0,0,1,2.51.88"/><circle class="cls-7" cx="328.37" cy="164.62" r="8.11"/><text class="cls-9" transform="translate(321.83 177.63)">Storage</text><rect class="cls-14" x="325.96" y="162.23" width="5.43" height="5.43"/></g><g id="stairs-4-2-3"><circle class="cls-7" cx="14.38" cy="232.68" r="8.11"/><text class="cls-9" transform="translate(9.83 245.69)">Stairs</text><g id="Outline_Icons-2-2-4-2-2" data-name="Outline Icons-2-2-4-2-2"><line class="cls-10" x1="10.75" y1="235.85" x2="17.08" y2="235.85"/><polyline class="cls-10" points="15.98 235.85 15.98 234.75 14.88 234.75 14.88 233.65 13.78 233.65 13.78 232.54 12.68 232.54 12.68 231.44 10.75 231.44"/><line class="cls-10" x1="14.05" y1="229.51" x2="17.51" y2="232.97"/><polyline class="cls-10" points="14.05 230.89 14.05 229.51 15.43 229.51"/><polyline class="cls-10" points="17.51 231.6 17.51 232.97 16.13 232.97"/></g></g><g id="Toilet"><text class="cls-15" transform="translate(214.53 246.39)">T</text><text class="cls-16" transform="translate(216.42 246.39)">oilets</text><circle class="cls-7" cx="220.02" cy="234.04" r="8.17"/><g id="Outline_Icons-4" data-name="Outline Icons-4"><path class="cls-14" d="M223,233.91a.33.33,0,0,1-.33.33H221v-3.62a.68.68,0,0,1,.66-.66h.66a.68.68,0,0,1,.66.66Z"/><path class="cls-14" d="M218.37,237.53h3.29v-2l1-.66v-.65h-5.59a1.57,1.57,0,0,0,1.49,1.64h.07Z"/><rect class="cls-14" x="216.73" y="233.58" width="4.27" height="0.66"/><circle class="cls-14" cx="222.16" cy="231.11" r="0.33"/></g></g></g><g id="open"><path class="cls-17" d="M149.13,71.35h7a1.74,1.74,0,0,0,1.75-1.73h0v-46l7.2-7,47.82-.5H442.68a1.52,1.52,0,0,0,1.53-1.51h0V7.1H148.72Z"/><path class="cls-18" d="M149.13,70.16h7a1.75,1.75,0,0,0,1.75-1.75v-46l7.2-7,47.82-.5H442.68a1.52,1.52,0,0,0,1.53-1.51h0V5.9H148.72Z"/><path class="cls-19" d="M149.13,68.82h7a1.75,1.75,0,0,0,1.75-1.75v-46l7.2-7,47.82-.5H442.68A1.53,1.53,0,0,0,444.21,12V4.57H148.72Z"/><path class="cls-17" d="M454.74,7.52v7a1.77,1.77,0,0,0,1.75,1.75h99l7,7.2L563,71.3v54.76a1.54,1.54,0,0,0,1.54,1.54H574V7.1Z"/><path class="cls-18" d="M455.28,6.32v7A1.76,1.76,0,0,0,457,15.09h99l7,7.2.5,47.81v54.77a1.51,1.51,0,0,0,1.5,1.53h9.45V5.9Z"/><path class="cls-19" d="M454.74,5v7a1.75,1.75,0,0,0,1.75,1.75h99l7,7.2L563,68.82v54.76a1.53,1.53,0,0,0,1.53,1.53H574V4.62Z"/><line class="cls-20" x1="174.95" y1="3.73" x2="174.95" y2="13.6"/><line class="cls-20" x1="238.86" y1="3.86" x2="238.86" y2="13.73"/><line class="cls-20" x1="264.91" y1="3.86" x2="264.91" y2="13.73"/><line class="cls-20" x1="290.85" y1="3.86" x2="290.85" y2="13.73"/><line class="cls-20" x1="319.76" y1="3.86" x2="319.76" y2="13.73"/><line class="cls-20" x1="342.13" y1="3.86" x2="342.13" y2="13.73"/><line class="cls-20" x1="364.54" y1="3.86" x2="364.54" y2="13.73"/><line class="cls-20" x1="390.19" y1="3.73" x2="390.19" y2="13.6"/><line class="cls-20" x1="421" y1="3.86" x2="421" y2="13.73"/><line class="cls-20" x1="148.72" y1="30.16" x2="157.9" y2="30.16"/><path class="cls-21" d="M227.33,17.5h-2.12A2.71,2.71,0,0,0,222.28,20v.37l.12,2a3.75,3.75,0,0,0,3.88,3.42h0a3.69,3.69,0,0,0,3.89-3.42l.11-2a2.79,2.79,0,0,0-2.75-2.83h-.2Z"/><path class="cls-22" d="M227.33,17.27h-2.12a2.8,2.8,0,0,0-2.94,2.64V20h0v.11l.12,2a3.74,3.74,0,0,0,3.88,3.41h0a3.68,3.68,0,0,0,3.89-3.41l.11-2a2.77,2.77,0,0,0-2.72-2.82h-.22Z"/><path class="cls-23" d="M227.21,16.33h-2a2.66,2.66,0,0,0-2.71,2.61h0V19h0v.12l.12,2a3.6,3.6,0,0,0,3.53,3.42h0a3.71,3.71,0,0,0,3.65-3.42l.12-2a2.6,2.6,0,0,0-2.35-2.81h-.24Z"/><path class="cls-24" d="M222.5,18.8l.12,2.35a3.6,3.6,0,0,0,3.53,3.42h0a3.71,3.71,0,0,0,3.65-3.42l.2-2.35"/><path class="cls-21" d="M164,19.57l-1.45,1.54a2.71,2.71,0,0,0-.22,3.83h0a.75.75,0,0,0,.15.16l.08.08,1.54,1.29a3.76,3.76,0,0,0,5.15-.47h0a3.68,3.68,0,0,0,.19-5.17L168,19.38a2.79,2.79,0,0,0-3.95,0h0l-.05.06Z"/><path class="cls-22" d="M164.19,19.16l-1.46,1.53a2.78,2.78,0,0,0-.12,3.93h0v.06h0l.09.09,1.53,1.29a3.75,3.75,0,0,0,5.15-.48h0a3.66,3.66,0,0,0,.2-5.17L168.27,19a2.8,2.8,0,0,0-4,0l0,.06v.06h0Z"/><path class="cls-23" d="M164,18.43l-1.38,1.46a2.66,2.66,0,0,0,0,3.76l.06.06h0l.09.08,1.53,1.3a3.6,3.6,0,0,0,4.91-.22h0a3.69,3.69,0,0,0,0-5l-1.37-1.46a2.6,2.6,0,0,0-3.67-.21.75.75,0,0,0-.16.15l-.08.08Z"/><path class="cls-24" d="M162.55,23.55l1.79,1.54a3.6,3.6,0,0,0,4.91-.22h0a3.69,3.69,0,0,0,0-5l-1.55-1.79"/><path class="cls-21" d="M193.91,87.6a2.78,2.78,0,0,0,.17-3.93h0V83.6l-1.47-1.37a3.68,3.68,0,0,0-5.17.19h0a3.76,3.76,0,0,0-.47,5.15l1.29,1.54.08.08a2.73,2.73,0,0,0,3.85.1l.15-.16,1.54-1.45Z"/><path class="cls-22" d="M193.87,87h0a2.79,2.79,0,0,0,.18-3.93L194,83l-1.46-1.38a3.68,3.68,0,0,0-5.17.2h0A3.76,3.76,0,0,0,186.9,87l1.29,1.53.08.09h0a2.79,2.79,0,0,0,3.95,0h0l.05-.06,1.54-1.46Z"/><path class="cls-23" d="M194,86.88l.08-.08a2.61,2.61,0,0,0,.1-3.68h0L194,83l-1.46-1.37a3.71,3.71,0,0,0-5,0h0a3.6,3.6,0,0,0-.22,4.91l1.3,1.53.08.09h0a2.64,2.64,0,0,0,3.73.18h0l.08-.07Z"/><path class="cls-24" d="M194.39,83.14l-1.79-1.55a3.71,3.71,0,0,0-5,0h0a3.6,3.6,0,0,0-.22,4.91l1.54,1.79"/><path class="cls-21" d="M559.11,22.67l-1.54-1.45a2.71,2.71,0,0,0-3.83-.22h0a.75.75,0,0,0-.16.15l-.08.08-1.29,1.54a3.76,3.76,0,0,0,.47,5.15h0a3.68,3.68,0,0,0,5.17.19l1.46-1.37a2.79,2.79,0,0,0,0-3.95h0l-.06-.05Z"/><path class="cls-22" d="M559,22l-1.54-1.46a2.78,2.78,0,0,0-3.93-.12h0l-.06.05h0l-.08.09-1.29,1.53a3.74,3.74,0,0,0,.47,5.15h0a3.66,3.66,0,0,0,5.17.2l1.46-1.37a2.79,2.79,0,0,0-.05-3.95h0l-.06-.05h0Z"/><path class="cls-23" d="M558.91,21.3l-1.45-1.37a2.66,2.66,0,0,0-3.76,0l-.07.07h0l-.08.08-1.29,1.54a3.6,3.6,0,0,0,.21,4.91h0a3.71,3.71,0,0,0,5,0l1.46-1.37a2.6,2.6,0,0,0,.23-3.67h0l-.15-.16-.09-.08Z"/><path class="cls-24" d="M553.79,19.86l-1.53,1.79a3.6,3.6,0,0,0,.21,4.91h0a3.71,3.71,0,0,0,5,0L559.26,25"/><path class="cls-21" d="M561.6,52.2l-.11-2.11a2.72,2.72,0,0,0-2.65-2.79h-.34l-2,.23a3.75,3.75,0,0,0-3.19,4.07h0a3.67,3.67,0,0,0,3.62,3.69h2a2.8,2.8,0,0,0,2.67-2.91V52.2Z"/><path class="cls-22" d="M561.53,51.77l-.12-2.12a2.79,2.79,0,0,0-2.79-2.79h-.19l-2,.23a3.74,3.74,0,0,0-3.2,4.07h0a3.69,3.69,0,0,0,3.63,3.69h2a2.79,2.79,0,0,0,2.68-2.9h0v-.1h0Z"/><path class="cls-23" d="M561.85,51.07l-.11-2A2.67,2.67,0,0,0,559,46.51h-.22l-2,.23a3.61,3.61,0,0,0-3.21,3.72h0a3.7,3.7,0,0,0,3.61,3.45h2a2.58,2.58,0,0,0,2.67-2.49h0v-.34Z"/><path class="cls-24" d="M559.12,46.5l-2.35.25a3.61,3.61,0,0,0-3.21,3.72h0a3.7,3.7,0,0,0,3.61,3.45l2.37.11"/><path class="cls-21" d="M561.52,73.05l-.12-2.12a2.72,2.72,0,0,0-2.65-2.79h-.33l-2,.23a3.75,3.75,0,0,0-3.19,4.07h0a3.67,3.67,0,0,0,3.63,3.69h2a2.8,2.8,0,0,0,2.67-2.92v-.16Z"/><path class="cls-22" d="M561.45,72.61l-.12-2.11a2.79,2.79,0,0,0-2.79-2.79h-.2l-2,.23A3.76,3.76,0,0,0,553.16,72h0a3.67,3.67,0,0,0,3.62,3.69h2a2.8,2.8,0,0,0,2.67-2.91v-.09h0Z"/><path class="cls-23" d="M561.76,71.92l-.11-2a2.67,2.67,0,0,0-2.77-2.56h-.2l-2,.23a3.6,3.6,0,0,0-3.22,3.72h0a3.71,3.71,0,0,0,3.62,3.45h2a2.6,2.6,0,0,0,2.69-2.51h0a1,1,0,0,0,0-.24v-.08Z"/><path class="cls-24" d="M559,67.35l-2.34.25a3.6,3.6,0,0,0-3.22,3.72h0a3.71,3.71,0,0,0,3.62,3.45l2.36.1"/><path class="cls-21" d="M561.36,94.71l-.12-2.12a2.72,2.72,0,0,0-2.65-2.79h-.33l-2,.23a3.72,3.72,0,0,0-3.2,4.07h0a3.69,3.69,0,0,0,3.63,3.69h2a2.79,2.79,0,0,0,2.68-2.9h0a.17.17,0,0,1,0-.1Z"/><path class="cls-22" d="M561.29,94.27l-.12-2.12a2.8,2.8,0,0,0-2.81-2.79h-.17l-2,.23A3.76,3.76,0,0,0,553,93.67h0a3.67,3.67,0,0,0,3.63,3.69h2a2.8,2.8,0,0,0,2.67-2.92v-.08h0Z"/><path class="cls-23" d="M561.6,93.57l-.11-2A2.67,2.67,0,0,0,558.75,89h-.23l-2,.23a3.58,3.58,0,0,0-3.2,3.77h0a3.71,3.71,0,0,0,3.61,3.46h2A2.57,2.57,0,0,0,561.61,94v-.43Z"/><path class="cls-24" d="M558.87,89l-2.34.25A3.57,3.57,0,0,0,553.32,93h0a3.71,3.71,0,0,0,3.61,3.46l2.36.1"/><path class="cls-21" d="M561.53,116.36l-.12-2.11a2.72,2.72,0,0,0-2.64-2.79h-.34l-2,.22a3.75,3.75,0,0,0-3.19,4.07h0a3.67,3.67,0,0,0,3.63,3.69h2a2.79,2.79,0,0,0,2.68-2.9h0v-.1Z"/><path class="cls-22" d="M561.46,115.93l-.12-2.12a2.8,2.8,0,0,0-2.81-2.79h-.18l-2,.23a3.74,3.74,0,0,0-3.19,4.07h0a3.68,3.68,0,0,0,3.62,3.69h2a2.78,2.78,0,0,0,2.67-2.89h0V116h0Z"/><path class="cls-23" d="M561.77,115.23l-.11-2a2.65,2.65,0,0,0-2.75-2.55h-.22l-2,.22a3.61,3.61,0,0,0-3.22,3.72h0a3.73,3.73,0,0,0,3.62,3.46h2a2.59,2.59,0,0,0,2.68-2.5h0a.89.89,0,0,0,0-.23v-.12Z"/><path class="cls-24" d="M559,110.67l-2.34.24a3.61,3.61,0,0,0-3.22,3.72h0a3.73,3.73,0,0,0,3.62,3.46l2.36.1"/><path class="cls-21" d="M549.37,153.67l-.12-2.12a2.72,2.72,0,0,0-2.65-2.79h-.34l-2,.23a3.74,3.74,0,0,0-3.19,4.07h0a3.68,3.68,0,0,0,3.62,3.69h2a2.78,2.78,0,0,0,2.67-2.89h0v-.19Z"/><path class="cls-22" d="M549.29,153.23l-.11-2.12a2.8,2.8,0,0,0-2.81-2.79h-.18l-2,.23a3.75,3.75,0,0,0-3.19,4.07h0a3.68,3.68,0,0,0,3.62,3.69h2a2.8,2.8,0,0,0,2.67-2.91v-.09h0Z"/><path class="cls-23" d="M549.61,152.53l-.11-2a2.66,2.66,0,0,0-2.78-2.55h-.19l-2,.23a3.6,3.6,0,0,0-3.22,3.71h0a3.72,3.72,0,0,0,3.61,3.46h2a2.59,2.59,0,0,0,2.68-2.5h0v-.35Z"/><path class="cls-24" d="M546.88,148l-2.34.25a3.6,3.6,0,0,0-3.22,3.71h0a3.72,3.72,0,0,0,3.61,3.46l2.37.1"/><path class="cls-21" d="M416.6,141.4a2.78,2.78,0,0,0,2.54,3h2.13a3.69,3.69,0,0,0,3.63-3.69h0a3.72,3.72,0,0,0-3.2-4.07l-2-.23h-.12a2.73,2.73,0,0,0-2.86,2.58v.21l-.12,2.12Z"/><path class="cls-22" d="M416.68,141h0a2.78,2.78,0,0,0,2.54,3h2.12a3.68,3.68,0,0,0,3.62-3.69h0a3.75,3.75,0,0,0-3.19-4.07l-2-.23h-.12a2.8,2.8,0,0,0-2.87,2.73h0v.06l-.12,2.12Z"/><path class="cls-23" d="M416.37,140.15v.12a2.59,2.59,0,0,0,2.44,2.73H421a3.71,3.71,0,0,0,3.61-3.46h0a3.58,3.58,0,0,0-3.21-3.71l-2-.23h-.12a2.66,2.66,0,0,0-2.85,2.46h0v.09l-.11,2Z"/><path class="cls-24" d="M418.68,143.11,421,143a3.71,3.71,0,0,0,3.61-3.46h0a3.58,3.58,0,0,0-3.21-3.71l-2.34-.25"/><path class="cls-21" d="M253.54,16.91h-2.12a2.73,2.73,0,0,0-2.94,2.5v.33l.12,2a3.75,3.75,0,0,0,3.89,3.41h0a3.67,3.67,0,0,0,3.88-3.41l.12-2a2.8,2.8,0,0,0-2.77-2.83h-.18Z"/><path class="cls-22" d="M253.54,16.68h-2.12a2.79,2.79,0,0,0-2.95,2.62v.08h0v.12l.12,2a3.75,3.75,0,0,0,3.89,3.42h0a3.67,3.67,0,0,0,3.88-3.42l.12-2a2.79,2.79,0,0,0-2.76-2.82h-.18Z"/><path class="cls-23" d="M253.42,15.73h-2a2.67,2.67,0,0,0-2.71,2.63h0v.08h0v.12l.12,2A3.59,3.59,0,0,0,252.36,24h0A3.71,3.71,0,0,0,256,20.56l.12-2a2.6,2.6,0,0,0-2.36-2.82h-.34Z"/><path class="cls-24" d="M248.71,18.21l.12,2.35A3.59,3.59,0,0,0,252.36,24h0A3.71,3.71,0,0,0,256,20.56l.23-2.35"/><path class="cls-21" d="M279.72,16.91H277.6a2.71,2.71,0,0,0-2.93,2.47v.36l.12,2a3.74,3.74,0,0,0,3.88,3.41h0a3.68,3.68,0,0,0,3.89-3.41l.12-2a2.8,2.8,0,0,0-2.77-2.83h-.19Z"/><path class="cls-22" d="M279.72,16.68H277.6a2.78,2.78,0,0,0-2.94,2.61v.09h0v.12l.12,2a3.75,3.75,0,0,0,3.88,3.42h0a3.68,3.68,0,0,0,3.89-3.42l.12-2a2.79,2.79,0,0,0-2.76-2.82h-.19Z"/><path class="cls-23" d="M279.6,15.73h-2a2.67,2.67,0,0,0-2.71,2.63h0v.08h0v.12l.12,2A3.6,3.6,0,0,0,278.54,24h0a3.71,3.71,0,0,0,3.65-3.42l.12-2A2.6,2.6,0,0,0,280,15.76h-.23Z"/><path class="cls-24" d="M274.89,18.21l.12,2.35A3.6,3.6,0,0,0,278.54,24h0a3.71,3.71,0,0,0,3.65-3.42l.24-2.35"/><path class="cls-21" d="M304.7,16.91h-2.12a2.71,2.71,0,0,0-2.93,2.47v.36l.11,2a3.75,3.75,0,0,0,3.89,3.41h0a3.68,3.68,0,0,0,3.89-3.41l.11-2a2.79,2.79,0,0,0-2.75-2.83h-.2Z"/><path class="cls-22" d="M304.7,16.68h-2.12a2.78,2.78,0,0,0-2.94,2.61v.09h0v.12l.11,2a3.76,3.76,0,0,0,3.89,3.42h0a3.68,3.68,0,0,0,3.89-3.42l.11-2a2.77,2.77,0,0,0-2.72-2.82h-.22Z"/><path class="cls-23" d="M304.58,15.73h-2a2.67,2.67,0,0,0-2.71,2.63h0v.08h0v.12l.12,2A3.6,3.6,0,0,0,303.52,24h0a3.71,3.71,0,0,0,3.65-3.42l.12-2a2.6,2.6,0,0,0-2.36-2.82h-.23Z"/><path class="cls-24" d="M299.87,18.21l.12,2.35A3.6,3.6,0,0,0,303.52,24h0a3.71,3.71,0,0,0,3.65-3.42l.24-2.35"/><path class="cls-21" d="M351.93,17.5h-2.12A2.71,2.71,0,0,0,346.88,20v.36l.12,2a3.75,3.75,0,0,0,3.88,3.42h0a3.68,3.68,0,0,0,3.89-3.42l.11-2a2.77,2.77,0,0,0-2.72-2.82h-.23Z"/><path class="cls-22" d="M351.93,17.26h-2.12a2.8,2.8,0,0,0-2.94,2.64V20h0v.12l.12,2a3.74,3.74,0,0,0,3.88,3.41h0a3.68,3.68,0,0,0,3.89-3.41l.11-2a2.79,2.79,0,0,0-2.75-2.83h-.19Z"/><path class="cls-23" d="M351.81,16.32h-2A2.68,2.68,0,0,0,347.1,19v0h0v.11l.12,2a3.59,3.59,0,0,0,3.53,3.41h0a3.7,3.7,0,0,0,3.65-3.41l.12-2a2.59,2.59,0,0,0-2.35-2.81h-.24Z"/><path class="cls-24" d="M347.1,18.79l.12,2.36a3.59,3.59,0,0,0,3.53,3.41h0a3.7,3.7,0,0,0,3.65-3.41l.24-2.36"/><path class="cls-21" d="M378.82,17.56H376.7A2.71,2.71,0,0,0,373.77,20v.35l.12,2a3.75,3.75,0,0,0,3.88,3.42h0a3.66,3.66,0,0,0,3.89-3.41h0l.12-2A2.79,2.79,0,0,0,379,17.56h-.2Z"/><path class="cls-22" d="M378.82,17.32H376.7A2.8,2.8,0,0,0,373.76,20v0h0v.12l.12,2a3.74,3.74,0,0,0,3.88,3.41h0a3.67,3.67,0,0,0,3.89-3.41l.12-2A2.8,2.8,0,0,0,379,17.29h-.18Z"/><path class="cls-23" d="M378.71,16.38h-2A2.66,2.66,0,0,0,374,19h0v.09h0v.11l.11,2a3.6,3.6,0,0,0,3.54,3.41h0a3.7,3.7,0,0,0,3.65-3.41l.11-2a2.6,2.6,0,0,0-2.35-2.81h-.35Z"/><path class="cls-24" d="M374,18.85l.11,2.36a3.6,3.6,0,0,0,3.54,3.41h0a3.7,3.7,0,0,0,3.65-3.41l.23-2.36"/><path class="cls-21" d="M405.28,17.26h-2.12a2.71,2.71,0,0,0-2.93,2.47v.39l.12,2a3.74,3.74,0,0,0,3.88,3.41h0a3.68,3.68,0,0,0,3.89-3.41l.12-2a2.8,2.8,0,0,0-2.77-2.83h-.06Z"/><path class="cls-22" d="M405.28,17h-2.12a2.78,2.78,0,0,0-2.94,2.61v.09h0v.12l.12,2a3.75,3.75,0,0,0,3.88,3.42h0a3.68,3.68,0,0,0,3.89-3.42l.12-2A2.79,2.79,0,0,0,405.47,17h-.19Z"/><path class="cls-23" d="M405.16,16.08h-2a2.67,2.67,0,0,0-2.71,2.63h0v.08h0v.12l.12,2a3.6,3.6,0,0,0,3.53,3.42h0a3.71,3.71,0,0,0,3.65-3.42l.12-2a2.6,2.6,0,0,0-2.36-2.82h-.35Z"/><path class="cls-24" d="M400.45,18.56l.12,2.35a3.6,3.6,0,0,0,3.53,3.42h0a3.71,3.71,0,0,0,3.65-3.42l.24-2.35"/><path class="cls-21" d="M381.5,75.63h-2.12a2.72,2.72,0,0,0-2.94,2.48v.34l.12,2a3.75,3.75,0,0,0,3.89,3.41h0a3.67,3.67,0,0,0,3.88-3.41l.12-2a2.79,2.79,0,0,0-2.76-2.82h-.19Z"/><path class="cls-22" d="M381.5,75.39h-2.12A2.81,2.81,0,0,0,376.43,78v.07h0v.12l.12,2a3.76,3.76,0,0,0,3.89,3.42h0a3.68,3.68,0,0,0,3.88-3.42l.12-2a2.8,2.8,0,0,0-2.77-2.83h-.17Z"/><path class="cls-23" d="M381.38,74.45h-2a2.66,2.66,0,0,0-2.71,2.61h0v.1h0v.12l.12,2a3.59,3.59,0,0,0,3.53,3.41h0A3.71,3.71,0,0,0,384,79.28l.12-2a2.6,2.6,0,0,0-2.36-2.82h-.38Z"/><path class="cls-24" d="M376.67,76.92l.12,2.36a3.59,3.59,0,0,0,3.53,3.41h0A3.71,3.71,0,0,0,384,79.28l.23-2.36"/><path class="cls-21" d="M402.93,75.63h-2.12a2.73,2.73,0,0,0-2.94,2.5v.32l.12,2a3.75,3.75,0,0,0,3.89,3.41h0a3.66,3.66,0,0,0,3.88-3.41l.12-2a2.79,2.79,0,0,0-2.76-2.82h-.19Z"/><path class="cls-22" d="M402.93,75.39h-2.12a2.81,2.81,0,0,0-2.95,2.66h0v.12l.12,2a3.77,3.77,0,0,0,3.89,3.42h0a3.68,3.68,0,0,0,3.88-3.42l.12-2a2.8,2.8,0,0,0-2.77-2.83h-.17Z"/><path class="cls-23" d="M402.81,74.45h-2a2.67,2.67,0,0,0-2.71,2.63h0v.08h0v.12l.12,2a3.59,3.59,0,0,0,3.53,3.41h0a3.7,3.7,0,0,0,3.65-3.41l.12-2a2.6,2.6,0,0,0-2.36-2.82h-.35Z"/><path class="cls-24" d="M398.1,76.92l.12,2.36a3.59,3.59,0,0,0,3.53,3.41h0a3.7,3.7,0,0,0,3.65-3.41l.24-2.36"/><path class="cls-21" d="M463.65,17.61h-2.12a2.71,2.71,0,0,0-2.93,2.47v.36l.12,2a3.74,3.74,0,0,0,3.88,3.41h0a3.68,3.68,0,0,0,3.89-3.41l.12-2a2.8,2.8,0,0,0-2.77-2.83h-.19Z"/><path class="cls-22" d="M463.65,17.38h-2.12A2.78,2.78,0,0,0,458.59,20h0v.09h0v.12l.12,2a3.75,3.75,0,0,0,3.88,3.42h0a3.69,3.69,0,0,0,3.89-3.42l.12-2a2.79,2.79,0,0,0-2.76-2.82h-.19Z"/><path class="cls-23" d="M463.53,16.43h-2a2.67,2.67,0,0,0-2.71,2.63h0v.08h0v.12l.12,2a3.61,3.61,0,0,0,3.53,3.42h0a3.71,3.71,0,0,0,3.65-3.42l.12-2a2.6,2.6,0,0,0-2.36-2.82h-.35Z"/><path class="cls-24" d="M458.82,18.91l.12,2.35a3.61,3.61,0,0,0,3.53,3.42h0a3.71,3.71,0,0,0,3.65-3.42l.24-2.35"/><path class="cls-21" d="M484.81,17.61H482.7a2.72,2.72,0,0,0-2.94,2.48v.35l.12,2a3.74,3.74,0,0,0,3.89,3.41h0a3.67,3.67,0,0,0,3.88-3.41l.12-2A2.8,2.8,0,0,0,485,17.61h-.19Z"/><path class="cls-22" d="M484.81,17.38H482.7A2.79,2.79,0,0,0,479.75,20v.08h0v.12l.12,2a3.75,3.75,0,0,0,3.89,3.42h0a3.68,3.68,0,0,0,3.88-3.42l.12-2A2.79,2.79,0,0,0,485,17.38h-.19Z"/><path class="cls-23" d="M484.7,16.43h-2a2.66,2.66,0,0,0-2.7,2.62h0v.09h0v.12l.11,2a3.61,3.61,0,0,0,3.54,3.42h0a3.71,3.71,0,0,0,3.65-3.42l.12-2a2.61,2.61,0,0,0-2.36-2.82h-.36Z"/><path class="cls-24" d="M480,18.91l.11,2.35a3.61,3.61,0,0,0,3.54,3.42h0a3.71,3.71,0,0,0,3.65-3.42l.23-2.35"/><path class="cls-21" d="M506.14,17.61H504a2.73,2.73,0,0,0-2.94,2.5v.33l.12,2a3.75,3.75,0,0,0,3.89,3.41h0A3.68,3.68,0,0,0,509,22.47h0l.12-2a2.8,2.8,0,0,0-2.77-2.83h-.21Z"/><path class="cls-22" d="M506.14,17.38H504A2.79,2.79,0,0,0,501.05,20v.08h0v.12l.12,2a3.76,3.76,0,0,0,3.89,3.42h0a3.68,3.68,0,0,0,3.94-3.4h0l.12-2a2.79,2.79,0,0,0-2.76-2.82h-.22Z"/><path class="cls-23" d="M506,16.43h-2a2.67,2.67,0,0,0-2.71,2.63h0v.08h0v.12l.12,2A3.6,3.6,0,0,0,505,24.68h0a3.71,3.71,0,0,0,3.65-3.42l.12-2a2.6,2.6,0,0,0-2.36-2.82H506Z"/><path class="cls-24" d="M501.31,18.91l.12,2.35A3.6,3.6,0,0,0,505,24.68h0a3.71,3.71,0,0,0,3.65-3.42l.23-2.35"/><path class="cls-21" d="M479.84,84.53h-2.12A2.71,2.71,0,0,0,474.79,87v.34l.12,2a3.75,3.75,0,0,0,3.88,3.42h0a3.69,3.69,0,0,0,3.89-3.42l.12-2A2.8,2.8,0,0,0,480,84.53h-.17Z"/><path class="cls-22" d="M479.84,84.3h-2.12a2.78,2.78,0,0,0-2.94,2.61V87h0v.11l.12,2a3.75,3.75,0,0,0,3.88,3.42h0a3.68,3.68,0,0,0,3.89-3.42l.12-2A2.79,2.79,0,0,0,480,84.3h-.18Z"/><path class="cls-23" d="M479.73,83.36h-2A2.66,2.66,0,0,0,475,85.93v.17h0v.12l.11,2a3.6,3.6,0,0,0,3.54,3.42h0a3.71,3.71,0,0,0,3.65-3.42l.11-2a2.6,2.6,0,0,0-2.35-2.81h-.36Z"/><path class="cls-24" d="M475,85.83l.11,2.35a3.6,3.6,0,0,0,3.54,3.42h0a3.71,3.71,0,0,0,3.65-3.42l.23-2.35"/><path class="cls-21" d="M491.62,84.53H489.5A2.71,2.71,0,0,0,486.57,87v.34l.12,2a3.75,3.75,0,0,0,3.88,3.42h0a3.69,3.69,0,0,0,3.89-3.42l.11-2a2.79,2.79,0,0,0-2.75-2.83h-.19Z"/><path class="cls-22" d="M491.62,84.3H489.5a2.78,2.78,0,0,0-2.94,2.61V87h0v.11l.12,2a3.75,3.75,0,0,0,3.88,3.42h0a3.68,3.68,0,0,0,3.89-3.42l.11-2a2.77,2.77,0,0,0-2.72-2.82h-.22Z"/><path class="cls-23" d="M491.5,83.36h-2A2.66,2.66,0,0,0,486.79,86v.12h0v.12l.12,2a3.6,3.6,0,0,0,3.53,3.42h0a3.71,3.71,0,0,0,3.65-3.42l.12-2a2.59,2.59,0,0,0-2.35-2.81h-.36Z"/><path class="cls-24" d="M486.79,85.83l.12,2.35a3.6,3.6,0,0,0,3.53,3.42h0a3.71,3.71,0,0,0,3.65-3.42l.24-2.35"/><path class="cls-21" d="M503,84.53h-2.1a2.72,2.72,0,0,0-2.9,2.53h0v.3l.11,2A3.77,3.77,0,0,0,502,92.78h0a3.69,3.69,0,0,0,3.89-3.42l.11-2a2.79,2.79,0,0,0-2.75-2.83H503Z"/><path class="cls-22" d="M503,84.3h-2.1A2.78,2.78,0,0,0,498,87v0h0v.11l.11,2A3.76,3.76,0,0,0,502,92.54h0a3.68,3.68,0,0,0,3.89-3.42l.11-2a2.77,2.77,0,0,0-2.72-2.82H503Z"/><path class="cls-23" d="M502.9,83.36h-2A2.66,2.66,0,0,0,498.19,86v.12h0v.12l.12,2a3.6,3.6,0,0,0,3.53,3.42h0a3.71,3.71,0,0,0,3.65-3.42l.12-2a2.59,2.59,0,0,0-2.35-2.81h-.36Z"/><path class="cls-24" d="M498.19,85.83l.12,2.35a3.6,3.6,0,0,0,3.53,3.42h0a3.71,3.71,0,0,0,3.65-3.42l.24-2.35"/><path class="cls-21" d="M514.5,84.53h-2.12A2.71,2.71,0,0,0,509.45,87v.34l.12,2a3.75,3.75,0,0,0,3.88,3.42h0a3.69,3.69,0,0,0,3.89-3.42l.11-2a2.79,2.79,0,0,0-2.75-2.83h-.19Z"/><path class="cls-22" d="M514.5,84.3h-2.12a2.78,2.78,0,0,0-2.94,2.61V87h0v.11l.12,2a3.75,3.75,0,0,0,3.88,3.42h0a3.68,3.68,0,0,0,3.89-3.42l.11-2a2.77,2.77,0,0,0-2.72-2.82h-.22Z"/><path class="cls-23" d="M514.38,83.36h-2A2.66,2.66,0,0,0,509.67,86v.12h0v.12l.12,2a3.6,3.6,0,0,0,3.53,3.42h0A3.7,3.7,0,0,0,517,88.18l.12-2a2.59,2.59,0,0,0-2.35-2.81h-.39Z"/><path class="cls-24" d="M509.67,85.83l.12,2.35a3.6,3.6,0,0,0,3.53,3.42h0A3.7,3.7,0,0,0,517,88.18l.24-2.35"/><path class="cls-21" d="M525.92,84.53H523.8A2.71,2.71,0,0,0,520.87,87a.81.81,0,0,0,0,.22v.12l.12,2a3.75,3.75,0,0,0,3.88,3.42h0a3.69,3.69,0,0,0,3.89-3.42l.12-2a2.8,2.8,0,0,0-2.77-2.83h-.18Z"/><path class="cls-22" d="M525.92,84.3H523.8a2.78,2.78,0,0,0-2.94,2.61V87h0v.11l.12,2a3.75,3.75,0,0,0,3.88,3.42h0a3.66,3.66,0,0,0,3.89-3.41h0l.12-2a2.79,2.79,0,0,0-2.77-2.81h-.18Z"/><path class="cls-23" d="M525.81,83.36h-2a2.65,2.65,0,0,0-2.7,2.6h0v.1h0v.12l.11,2a3.6,3.6,0,0,0,3.54,3.42h0a3.71,3.71,0,0,0,3.65-3.42l.11-2a2.6,2.6,0,0,0-2.35-2.81h-.36Z"/><path class="cls-24" d="M521.1,85.83l.11,2.35a3.6,3.6,0,0,0,3.54,3.42h0a3.71,3.71,0,0,0,3.65-3.42l.23-2.35"/><path class="cls-21" d="M527.3,17h-2.12a2.71,2.71,0,0,0-2.93,2.47v0a.81.81,0,0,0,0,.22v.11l.11,2a3.75,3.75,0,0,0,3.89,3.41h0a3.66,3.66,0,0,0,3.88-3.41l.12-2A2.79,2.79,0,0,0,527.49,17h-.19Z"/><path class="cls-22" d="M527.3,16.78h-2.12a2.8,2.8,0,0,0-2.94,2.65h0v.12l.11,2A3.76,3.76,0,0,0,526.24,25h0a3.68,3.68,0,0,0,3.88-3.42l.12-2a2.79,2.79,0,0,0-2.75-2.83h-.19Z"/><path class="cls-23" d="M527.18,15.84h-2a2.67,2.67,0,0,0-2.71,2.63h0v.08h0v.12l.12,2a3.59,3.59,0,0,0,3.53,3.41h0a3.7,3.7,0,0,0,3.65-3.41l.12-2a2.6,2.6,0,0,0-2.36-2.82h-.35Z"/><path class="cls-24" d="M522.47,18.31l.12,2.36a3.59,3.59,0,0,0,3.53,3.41h0a3.7,3.7,0,0,0,3.65-3.41l.24-2.36"/><path class="cls-19" d="M166.39,101.68v-9a1,1,0,0,1,1-1h23.84l6.12-6.28V48a1,1,0,0,1,1-1h7.81v54.74Z"/><g id="tables_copy-25" data-name="tables copy-25"><path class="cls-17" d="M471.11,57.06h61.7a1.75,1.75,0,0,1,1.7,1.7v22.9a1.75,1.75,0,0,1-1.7,1.7h-61.7a1.75,1.75,0,0,1-1.7-1.7V58.76A1.75,1.75,0,0,1,471.11,57.06Z"/><path class="cls-18" d="M471.11,56.16h61.7a1.75,1.75,0,0,1,1.7,1.7v22.9a1.75,1.75,0,0,1-1.7,1.7h-61.7a1.75,1.75,0,0,1-1.7-1.7V57.86A1.75,1.75,0,0,1,471.11,56.16Z"/><path class="cls-25" d="M534.51,64.23h0v-7.7A1.55,1.55,0,0,0,533,55H470.9a1.54,1.54,0,0,0-1.5,1.5v7.8h0V79.9a1.54,1.54,0,0,0,1.5,1.5H533a1.54,1.54,0,0,0,1.5-1.5V64.23Z"/></g><g id="tables_copy-25-2" data-name="tables copy-25-2"><path class="cls-17" d="M405.93,127.27h7.7a1.75,1.75,0,0,1,1.7,1.7v22.9a1.75,1.75,0,0,1-1.7,1.7h-7.7a1.75,1.75,0,0,1-1.7-1.7V129A1.75,1.75,0,0,1,405.93,127.27Z"/><path class="cls-18" d="M405.93,126.37h7.7a1.75,1.75,0,0,1,1.7,1.7V151a1.75,1.75,0,0,1-1.7,1.7h-7.7a1.75,1.75,0,0,1-1.7-1.7V128.1A1.75,1.75,0,0,1,405.93,126.37Z"/><path class="cls-19" d="M415.33,134.44h0v-7.7a1.54,1.54,0,0,0-1.5-1.5h-8.1a1.54,1.54,0,0,0-1.5,1.5v7.8h0v15.6a1.54,1.54,0,0,0,1.5,1.5h8.1a1.54,1.54,0,0,0,1.5-1.5v-15.7Z"/></g><line class="cls-20" x1="469.41" y1="68.11" x2="534.51" y2="68.11"/><path class="cls-21" d="M479.58,54.67a2.8,2.8,0,0,0,2.82-2.78h0v-.06l-.13-2a3.66,3.66,0,0,0-3.89-3.4h0a3.76,3.76,0,0,0-3.88,3.43l-.11,2V52a2.73,2.73,0,0,0,2.75,2.71h2.48Z"/><path class="cls-22" d="M479.68,54.28h0a2.79,2.79,0,0,0,2.82-2.76h0v-.07l-.13-2a3.67,3.67,0,0,0-3.9-3.41h0a3.75,3.75,0,0,0-3.87,3.43l-.11,2v.11h0a2.79,2.79,0,0,0,2.88,2.7h2.31Z"/><path class="cls-23" d="M479.44,54h.12a2.61,2.61,0,0,0,2.59-2.63h0v-.21l-.12-2a3.71,3.71,0,0,0-3.67-3.4h0a3.6,3.6,0,0,0-3.52,3.43l-.11,2v.12h0A2.65,2.65,0,0,0,477.35,54Z"/><path class="cls-24" d="M482.26,51.49,482,49.14a3.71,3.71,0,0,0-3.67-3.4h0a3.6,3.6,0,0,0-3.52,3.43l-.11,2.35"/><path class="cls-21" d="M491.68,54.63a2.79,2.79,0,0,0,2.81-2.77h0v-.07l-.12-2a3.68,3.68,0,0,0-3.9-3.4h0a3.75,3.75,0,0,0-3.87,3.43l-.11,2v.12a2.71,2.71,0,0,0,2.72,2.7h2.47Z"/><path class="cls-22" d="M491.78,54.24h0a2.79,2.79,0,0,0,2.81-2.77h0V51.4l-.12-2a3.69,3.69,0,0,0-3.9-3.4h0a3.75,3.75,0,0,0-3.87,3.43l-.12,2v.12h0a2.81,2.81,0,0,0,2.91,2.7h2.29Z"/><path class="cls-23" d="M491.54,53.93h.12a2.59,2.59,0,0,0,2.59-2.59V51.1l-.13-2a3.71,3.71,0,0,0-3.66-3.41h0a3.6,3.6,0,0,0-3.52,3.43l-.11,2v.12h0a2.66,2.66,0,0,0,2.62,2.7h2.09Z"/><path class="cls-24" d="M494.36,51.45l-.25-2.35a3.71,3.71,0,0,0-3.66-3.41h0a3.6,3.6,0,0,0-3.52,3.43l-.11,2.36"/><path class="cls-21" d="M502.75,54.58a2.79,2.79,0,0,0,2.82-2.76h0v-.07l-.13-2a3.66,3.66,0,0,0-3.89-3.4h0a3.76,3.76,0,0,0-3.88,3.43l-.11,2v.12a2.73,2.73,0,0,0,2.75,2.71h2.48Z"/><path class="cls-22" d="M502.85,54.2h0a2.8,2.8,0,0,0,2.82-2.78h0v-.06l-.13-2a3.67,3.67,0,0,0-3.9-3.4h0a3.75,3.75,0,0,0-3.87,3.43l-.11,2v.12h0a2.79,2.79,0,0,0,2.86,2.69Z"/><path class="cls-23" d="M502.61,53.89h.12a2.61,2.61,0,0,0,2.59-2.63h0v-.21l-.12-2a3.71,3.71,0,0,0-3.67-3.4h0A3.6,3.6,0,0,0,498,49.08l-.11,2v.12h0a2.68,2.68,0,0,0,2.64,2.7h2.08Z"/><path class="cls-24" d="M505.43,51.41l-.24-2.36a3.71,3.71,0,0,0-3.67-3.4h0A3.6,3.6,0,0,0,498,49.08l-.11,2.35"/><path class="cls-21" d="M514.67,54.58a2.77,2.77,0,0,0,2.81-2.73h0v-.1l-.12-2a3.69,3.69,0,0,0-3.9-3.4h0a3.75,3.75,0,0,0-3.87,3.43l-.11,2v.12a2.72,2.72,0,0,0,2.73,2.71h2.46Z"/><path class="cls-22" d="M514.76,54.2h0a2.8,2.8,0,0,0,2.82-2.78h0v-.06l-.12-2a3.68,3.68,0,0,0-3.9-3.4h0a3.76,3.76,0,0,0-3.88,3.43l-.11,2v.12h0a2.79,2.79,0,0,0,2.88,2.7h2.31Z"/><path class="cls-23" d="M514.53,53.89h.12a2.61,2.61,0,0,0,2.59-2.63h0v-.21l-.13-2a3.71,3.71,0,0,0-3.66-3.4h0a3.6,3.6,0,0,0-3.52,3.43l-.11,2v.12h0a2.68,2.68,0,0,0,2.64,2.7h2.07Z"/><path class="cls-24" d="M517.34,51.41l-.24-2.36a3.71,3.71,0,0,0-3.66-3.4h0a3.6,3.6,0,0,0-3.52,3.43l-.11,2.35"/><path class="cls-21" d="M525.74,54.54a2.8,2.8,0,0,0,2.82-2.78h0V51.7l-.13-2a3.66,3.66,0,0,0-3.89-3.4h0a3.76,3.76,0,0,0-3.88,3.43l-.11,2v.12a2.71,2.71,0,0,0,2.71,2.71h2.48Z"/><path class="cls-22" d="M525.84,54.15h0a2.79,2.79,0,0,0,2.82-2.76h0v-.07l-.13-2a3.68,3.68,0,0,0-3.9-3.4h0a3.75,3.75,0,0,0-3.87,3.43l-.11,2v.12h0a2.8,2.8,0,0,0,2.87,2.71h2.37Z"/><path class="cls-23" d="M525.6,53.85h.12a2.61,2.61,0,0,0,2.59-2.63h0a.81.81,0,0,0,0-.22l-.12-2a3.71,3.71,0,0,0-3.67-3.4h0A3.59,3.59,0,0,0,521,49l-.11,2v.11h0a2.68,2.68,0,0,0,2.64,2.7h.08Z"/><path class="cls-24" d="M528.42,51.36,528.18,49a3.71,3.71,0,0,0-3.67-3.4h0A3.59,3.59,0,0,0,521,49l-.11,2.36"/><path class="cls-21" d="M522.78,201.73A2.8,2.8,0,0,0,525.6,199v-.06l-.13-2a3.67,3.67,0,0,0-3.9-3.4h0A3.75,3.75,0,0,0,517.7,197l-.11,2v0a2.71,2.71,0,0,0,2.72,2.7h2.47Z"/><path class="cls-22" d="M522.88,201.34h0a2.79,2.79,0,0,0,2.81-2.77h0v-.07l-.12-2a3.69,3.69,0,0,0-3.9-3.4h0a3.75,3.75,0,0,0-3.87,3.43l-.11,2v.12h0a2.78,2.78,0,0,0,2.86,2.7h2.33Z"/><path class="cls-23" d="M522.64,201h.12a2.59,2.59,0,0,0,2.59-2.59h0a1,1,0,0,0,0-.24l-.13-2a3.71,3.71,0,0,0-3.66-3.41h0a3.6,3.6,0,0,0-3.52,3.43l-.11,2v.12h0a2.68,2.68,0,0,0,2.64,2.7h2.07Z"/><path class="cls-24" d="M525.46,198.55l-.25-2.35a3.71,3.71,0,0,0-3.66-3.41h0a3.6,3.6,0,0,0-3.52,3.43l-.11,2.36"/><path class="cls-21" d="M548.47,201.68a2.79,2.79,0,0,0,2.82-2.76h0v-.07l-.13-2a3.66,3.66,0,0,0-3.89-3.4h0a3.76,3.76,0,0,0-3.88,3.43l-.11,2V199a2.73,2.73,0,0,0,2.75,2.71h2.48Z"/><path class="cls-22" d="M548.57,201.3h0a2.8,2.8,0,0,0,2.82-2.78h0v-.06l-.13-2a3.67,3.67,0,0,0-3.9-3.4h0a3.75,3.75,0,0,0-3.87,3.43l-.11,2v.12h0a2.79,2.79,0,0,0,2.86,2.7h2.33Z"/><path class="cls-23" d="M548.33,201h.12a2.61,2.61,0,0,0,2.59-2.63h0v-.21l-.12-2a3.71,3.71,0,0,0-3.67-3.4h0a3.6,3.6,0,0,0-3.52,3.43l-.11,2v.12h0a2.68,2.68,0,0,0,2.64,2.7h2.07Z"/><path class="cls-24" d="M551.15,198.51l-.24-2.36a3.71,3.71,0,0,0-3.67-3.4h0a3.6,3.6,0,0,0-3.52,3.43l-.11,2.35"/><path class="cls-17" d="M529,127.51V134a1.24,1.24,0,0,0,1.23,1.24h30.59v69H508.44V217.1h65.09V127.31Z"/><path class="cls-18" d="M529,126.28v6.45a1.24,1.24,0,0,0,1.23,1.24h30.59v69H508.44v12.86h65.09V126.08Z"/><path class="cls-19" d="M529,125.65v6.45a1.23,1.23,0,0,0,1.22,1.24h30.6v69H508.44v12.87h65.09V125.45Z"/><line class="cls-20" x1="561.05" y1="159.59" x2="576.11" y2="159.59"/><line class="cls-20" x1="560.76" y1="133.5" x2="575.82" y2="133.5"/><line class="cls-20" x1="560.76" y1="184.32" x2="575.82" y2="184.32"/><line class="cls-20" x1="534.51" y1="202.38" x2="534.51" y2="216.07"/><line class="cls-20" x1="560.76" y1="202.38" x2="560.76" y2="216.07"/></g><g id="Layer_13" data-name="Layer 13"><polygon class="cls-26" points="281.76 102.64 272.88 102.64 272.88 50.17 272.82 50.17 281.76 50.17 281.76 102.64"/><polygon class="cls-26" points="315.86 102.64 297.97 102.64 297.97 50.17 306.91 50.17 315.86 50.17 315.86 102.64"/><line class="cls-27" x1="306.91" y1="102.64" x2="306.91" y2="50.17"/><line class="cls-27" x1="297.97" y1="67.56" x2="315.85" y2="67.56"/><line class="cls-27" x1="297.97" y1="84.58" x2="315.85" y2="84.58"/><line class="cls-27" x1="273.2" y1="67.56" x2="281.08" y2="67.56"/><line class="cls-27" x1="272.85" y1="84.58" x2="281.73" y2="84.58"/><polygon class="cls-26" points="352.28 102.64 334.4 102.64 334.4 52.34 343.34 52.34 352.28 52.34 352.28 102.64"/><line class="cls-27" x1="343.34" y1="102.64" x2="343.34" y2="52.34"/><line class="cls-27" x1="334.4" y1="69.01" x2="352.28" y2="69.01"/><line class="cls-27" x1="334.4" y1="85.33" x2="352.28" y2="85.33"/><polygon class="cls-26" points="482.15 214.22 464.27 214.22 464.27 161.59 473.21 161.59 482.15 161.59 482.15 214.22"/><line class="cls-28" x1="473.21" y1="214.22" x2="473.21" y2="161.59"/><line class="cls-28" x1="464.27" y1="179.03" x2="482.15" y2="179.03"/><line class="cls-28" x1="464.27" y1="196.11" x2="482.15" y2="196.11"/><polygon class="cls-26" points="448.71 214.22 430.83 214.22 430.83 161.59 439.77 161.59 448.71 161.59 448.71 214.22"/><line class="cls-28" x1="439.77" y1="214.22" x2="439.77" y2="161.59"/><line class="cls-28" x1="430.83" y1="179.03" x2="448.71" y2="179.03"/><line class="cls-28" x1="430.83" y1="196.11" x2="448.71" y2="196.11"/><polygon class="cls-26" points="412.62 213.36 404.23 213.36 404.23 160.73 408.42 160.73 412.62 160.73 412.62 213.36"/><line class="cls-29" x1="404.23" y1="178.17" x2="412.61" y2="178.17"/><line class="cls-29" x1="404.23" y1="195.25" x2="412.61" y2="195.25"/><polygon class="cls-26" points="506.58 213.36 498.19 213.36 498.19 160.73 502.38 160.73 506.58 160.73 506.58 213.36"/><line class="cls-29" x1="498.19" y1="178.17" x2="506.58" y2="178.17"/><line class="cls-29" x1="498.19" y1="195.25" x2="506.58" y2="195.25"/><rect class="cls-26" x="207.15" y="50.17" width="24.74" height="4.85"/><rect class="cls-26" x="207.15" y="70.16" width="24.74" height="9.65"/><rect class="cls-26" x="207.15" y="94.93" width="34.32" height="7.71"/><line class="cls-27" x1="219.52" y1="50.17" x2="219.52" y2="55.01"/><line class="cls-27" x1="219.52" y1="70.16" x2="219.52" y2="79.64"/><line class="cls-27" x1="207.15" y1="75.4" x2="231.89" y2="75.4"/><line class="cls-27" x1="224.31" y1="94.93" x2="224.31" y2="102.64"/></g><g id="bookings"><rect id="area-04.02-status" class="cls-30" x="238.94" y="126.56" width="37.03" height="68.32"/><path id="area-04.01-status" class="cls-30" d="M345,141.35h29.3v-15h29.37v89.83H345S343.62,141.35,345,141.35Z"/><g id="names"><text class="cls-31" transform="translate(250.47 161.59)">CTH 2</text><text class="cls-31" transform="translate(367.22 178.72)">CTH 1</text></g></g><g id="skeleton"><g id="walls"><polyline class="cls-32" points="148.03 4.57 148.03 174.37 61.54 174.37 61.54 180.43"/><line class="cls-32" x1="61.54" y1="193.93" x2="61.54" y2="204.8"/><line class="cls-32" x1="4.27" y1="195.58" x2="61.54" y2="195.58"/><polyline class="cls-32" points="24.89 195.58 24.89 274.69 61.54 274.69 61.54 264.4"/><line class="cls-32" x1="4.04" y1="298.44" x2="63.41" y2="298.44"/><line class="cls-32" x1="104.79" y1="298.44" x2="285.66" y2="298.44"/><line class="cls-32" x1="285.66" y1="284.06" x2="285.66" y2="274.25"/><polyline class="cls-32" points="105.94 204.8 105.94 194.89 285.66 194.89 285.66 245.92 297.55 245.92 297.55 274.25 261.57 274.25 261.8 194.89"/><polyline class="cls-32" points="105.94 264.08 105.94 274.25 159.34 274.25"/><line class="cls-32" x1="141.72" y1="195.58" x2="141.72" y2="274.69"/><line class="cls-32" x1="181.48" y1="195.58" x2="181.48" y2="274.25"/><line class="cls-32" x1="171.16" y1="274.25" x2="192.5" y2="274.25"/><line class="cls-32" x1="285.66" y1="216.19" x2="573.99" y2="216.19"/><line class="cls-32" x1="165.78" y1="102.64" x2="246.58" y2="102.64"/><polyline class="cls-32" points="206.18 26.87 206.18 13.28 212.6 13.28 212.6 3.73"/><line class="cls-32" x1="206.18" y1="44.49" x2="206.18" y2="102.64"/><line class="cls-32" x1="263.95" y1="102.64" x2="362.22" y2="102.64"/><polyline class="cls-32" points="202.75 126.36 173.42 126.36 173.42 175.3"/><polyline class="cls-32" points="167.87 174.37 217.67 174.37 217.67 126.36"/><line class="cls-32" x1="239.97" y1="126.36" x2="239.97" y2="195.58"/><line class="cls-32" x1="254.93" y1="126.36" x2="290.7" y2="126.36"/><line class="cls-32" x1="275.97" y1="194.89" x2="275.97" y2="127.3"/><polyline class="cls-32" points="325.75 126.36 308.23 126.36 308.23 216.19"/><line class="cls-32" x1="337.49" y1="126.36" x2="346.78" y2="126.36"/><polyline class="cls-32" points="345.04 126.36 345.04 141.35 374.3 141.35 374.3 126.36"/><line class="cls-32" x1="371.41" y1="126.36" x2="380.44" y2="126.36"/><line class="cls-32" x1="393.52" y1="125.4" x2="418.22" y2="125.4"/><line class="cls-32" x1="403.67" y1="126.36" x2="403.67" y2="216.19"/><line class="cls-32" x1="508.26" y1="148.09" x2="508.26" y2="216.19"/><polyline class="cls-32" points="526.78 139.4 526.78 171.28 561.11 171.28"/><line class="cls-32" x1="528.38" y1="126.36" x2="573.99" y2="126.36"/><polyline class="cls-32" points="367.22 48.97 367.22 102.64 414.97 102.64 414.97 48.97"/><line class="cls-32" x1="345.04" y1="216.14" x2="345.04" y2="141.31"/><polyline class="cls-32" points="205.35 274.69 220.53 274.69 220.53 266.34 260.95 266.34"/></g><g id="outline"><rect class="cls-33" x="2.5" y="2.5" width="573.05" height="328.28"/></g></g></svg>