<?xml version="1.0" encoding="utf-8"?>
<!-- Generator: Adobe Illustrator 28.1.0, SVG Export Plug-In . SVG Version: 6.00 Build 0)  -->
<svg version="1.1" id="Layer_1" xmlns="http://www.w3.org/2000/svg" xmlns:xlink="http://www.w3.org/1999/xlink" x="0px" y="0px"
	 viewBox="0 0 710.9 1015" style="enable-background:new 0 0 710.9 1015;" xml:space="preserve">
<style type="text/css">
	.st0{fill:#5893AD;}
	.st1{fill:#B3DDE3;}
	.st2{fill:#9AC9CC;}
	.st3{opacity:0.74;fill:#575757;enable-background:new    ;}
	.st4{fill:#FFFFFF;}
	.st5{opacity:5.000000e-02;fill:#030303;enable-background:new    ;}
	.st6{fill:#B8BEC0;}
	.st7{fill:none;stroke:#D9DBDB;stroke-width:0.507;stroke-miterlimit:10;}
	.st8{opacity:0.15;fill:#010101;enable-background:new    ;}
	.st9{fill:#5A6067;}
	.st10{fill:#9EACB5;}
	.st11{fill:none;stroke:#7E8C91;stroke-linecap:round;stroke-miterlimit:10;}
	.st12{fill:#777E7F;}
	.st13{fill:#EAF0F0;}
	.st14{fill:#7E8B90;}
	.st15{fill:none;stroke:#F6F6F6;stroke-width:8;stroke-miterlimit:10;}
	.st16{fill:none;stroke:#F6F6F6;stroke-width:2;stroke-miterlimit:10;}
</style>
<g id="Shadow">
	<polygon class="st0" points="644.9,99.1 650,62.7 84.7,99.1 81.4,968.2 103.5,997 428.1,997 	"/>
</g>
<g id="BG">
	<polygon class="st1" points="644.9,66.3 84.7,66.3 84.7,964.2 428.1,964.2 	"/>
</g>
<g id="highlights">
	<polygon class="st2" points="410.8,68.6 410.8,325.5 581.6,325.5 644.9,66.3 	"/>
	<polygon class="st2" points="360.3,325.5 360.3,964.2 428.1,964.2 581.6,325.5 	"/>
	<polygon class="st2" points="84.7,325.5 212.9,325.5 212.9,454.1 87.6,454.1 	"/>
	<rect x="84.7" y="711.4" class="st2" width="125.6" height="252.8"/>
</g>
<g id="Bookable">
	<polygon id="area-01.Team_100-status" class="st3" points="360.3,454.1 551.3,454.1 519.3,583.4 360.3,583.4 	"/>
	<rect id="area-01.Team_101-status" x="84.7" y="325.5" class="st3" width="128.2" height="128.6"/>
	<polygon id="area-01.Conference_102-status" class="st3" points="410.8,68.6 410.8,325.5 581.6,325.5 644.9,66.3 	"/>
</g>
<g id="Name">
	<path class="st4" d="M141.8,377.9v2.1h-3.6v9.8h-2.5V380h-3.6v-2.1H141.8L141.8,377.9z"/>
	<path class="st4" d="M149.4,387.2c-0.1,0.5-0.3,1.1-0.8,1.6c-0.8,0.9-1.8,1.3-3.2,1.3c-1.1,0-2.1-0.4-3-1.1
		c-0.9-0.7-1.3-1.9-1.3-3.5c0-1.5,0.4-2.7,1.2-3.5c0.8-0.8,1.8-1.2,3-1.2c0.7,0,1.4,0.1,2,0.4c0.6,0.3,1.1,0.7,1.5,1.3
		c0.3,0.5,0.6,1.1,0.7,1.8c0.1,0.4,0.1,1,0.1,1.8h-6.1c0,0.9,0.3,1.5,0.8,1.9c0.3,0.2,0.7,0.3,1.2,0.3c0.5,0,0.9-0.1,1.2-0.4
		c0.2-0.1,0.3-0.3,0.4-0.6L149.4,387.2L149.4,387.2z M147.1,384.5c0-0.6-0.2-1.1-0.6-1.4c-0.3-0.3-0.7-0.5-1.2-0.5
		c-0.5,0-1,0.2-1.2,0.5c-0.3,0.3-0.5,0.8-0.6,1.4L147.1,384.5L147.1,384.5z"/>
	<path class="st4" d="M151.4,381.9c0.6-0.8,1.7-1.2,3.1-1.2c1,0,1.8,0.2,2.6,0.6c0.8,0.4,1.1,1.1,1.1,2.2v4.1c0,0.3,0,0.6,0,1
		c0,0.3,0.1,0.5,0.1,0.6c0.1,0.1,0.2,0.2,0.3,0.3v0.3h-2.5c-0.1-0.2-0.1-0.3-0.1-0.5c0-0.2,0-0.3-0.1-0.5c-0.3,0.3-0.7,0.6-1.1,0.9
		c-0.5,0.3-1.1,0.4-1.7,0.4c-0.8,0-1.5-0.2-2-0.7c-0.5-0.5-0.8-1.1-0.8-1.9c0-1.1,0.4-1.9,1.3-2.4c0.5-0.3,1.1-0.5,2-0.6l0.8-0.1
		c0.4-0.1,0.7-0.1,0.9-0.2c0.3-0.1,0.5-0.4,0.5-0.7c0-0.4-0.1-0.6-0.4-0.8c-0.3-0.1-0.6-0.2-1.1-0.2c-0.5,0-0.9,0.1-1.2,0.4
		c-0.2,0.2-0.3,0.5-0.3,0.8h-2.2C150.8,383.1,151,382.4,151.4,381.9L151.4,381.9z M153.1,388.1c0.2,0.2,0.5,0.3,0.8,0.3
		c0.5,0,1-0.1,1.4-0.4c0.4-0.3,0.6-0.8,0.7-1.6v-0.9c-0.1,0.1-0.3,0.2-0.4,0.2c-0.1,0.1-0.4,0.1-0.6,0.2l-0.5,0.1
		c-0.5,0.1-0.8,0.2-1,0.3c-0.4,0.2-0.5,0.5-0.5,1C152.8,387.7,152.9,388,153.1,388.1L153.1,388.1z"/>
	<path class="st4" d="M165.3,383.4c-0.2-0.4-0.6-0.6-1.1-0.6c-0.7,0-1.1,0.2-1.3,0.6c-0.1,0.2-0.2,0.6-0.2,1.1v5.3h-2.3V381h2.2v1.3
		c0.3-0.5,0.6-0.8,0.8-1c0.4-0.3,1-0.5,1.7-0.5c0.7,0,1.2,0.1,1.6,0.4c0.3,0.3,0.6,0.6,0.8,1.1c0.3-0.5,0.7-0.9,1.1-1.1
		c0.5-0.2,1-0.4,1.6-0.4c0.4,0,0.8,0.1,1.2,0.2c0.4,0.2,0.7,0.4,1,0.8c0.2,0.3,0.4,0.7,0.5,1.1c0.1,0.3,0.1,0.7,0.1,1.3l0,5.6h-2.4
		v-5.6c0-0.3-0.1-0.6-0.2-0.8c-0.2-0.4-0.6-0.6-1.1-0.6c-0.6,0-1.1,0.3-1.3,0.8c-0.1,0.3-0.2,0.6-0.2,1v5.3h-2.3v-5.3
		C165.4,384,165.4,383.6,165.3,383.4L165.3,383.4z"/>
	<path class="st4" d="M145.3,406.4H143v-8.1h-2.8v-1.6c0.7,0,1.2-0.1,1.5-0.1c0.5-0.1,0.8-0.3,1.1-0.6c0.2-0.2,0.4-0.5,0.5-0.8
		c0.1-0.2,0.1-0.4,0.1-0.5h1.9L145.3,406.4L145.3,406.4z"/>
	<path class="st4" d="M152.9,406.7c-1.5,0-2.6-0.5-3.2-1.6c-0.6-1.1-0.9-2.5-0.9-4.5s0.3-3.4,0.9-4.5c0.6-1.1,1.7-1.6,3.2-1.6
		s2.6,0.5,3.2,1.6c0.6,1.1,0.9,2.6,0.9,4.5s-0.3,3.4-0.9,4.5C155.4,406.2,154.4,406.7,152.9,406.7z M154.2,403.8
		c0.2-0.7,0.3-1.7,0.3-3.1c0-1.4-0.1-2.5-0.3-3.1c-0.2-0.7-0.7-1-1.4-1s-1.1,0.3-1.4,1c-0.2,0.7-0.3,1.7-0.3,3.1
		c0,1.4,0.1,2.4,0.3,3.1c0.2,0.7,0.7,1.1,1.4,1.1S154,404.5,154.2,403.8L154.2,403.8z"/>
	<path class="st4" d="M163.8,406.4h-2.4v-8.1h-2.8v-1.6c0.7,0,1.2-0.1,1.5-0.1c0.5-0.1,0.8-0.3,1.1-0.6c0.2-0.2,0.4-0.5,0.5-0.8
		c0.1-0.2,0.1-0.4,0.1-0.5h1.9L163.8,406.4L163.8,406.4z"/>
	<path class="st4" d="M476,188.8c-0.9,0.8-2,1.2-3.4,1.2c-1.7,0-3.1-0.6-4.1-1.7c-1-1.1-1.5-2.6-1.5-4.6c0-2.1,0.6-3.7,1.7-4.8
		c1-1,2.2-1.5,3.7-1.5c2,0,3.5,0.7,4.4,2c0.5,0.7,0.8,1.5,0.8,2.2h-2.5c-0.2-0.6-0.4-1-0.6-1.3c-0.5-0.5-1.1-0.8-2-0.8
		c-0.9,0-1.6,0.4-2.2,1.1c-0.5,0.7-0.8,1.8-0.8,3.1s0.3,2.3,0.8,3c0.6,0.7,1.3,1,2.1,1c0.9,0,1.5-0.3,2-0.9c0.3-0.3,0.5-0.8,0.6-1.4
		h2.5C477.5,187,476.9,188,476,188.8L476,188.8z"/>
	<path class="st4" d="M486.8,182c0.7,0.9,1.1,2,1.1,3.3c0,1.3-0.4,2.4-1.1,3.3c-0.7,0.9-1.9,1.4-3.4,1.4s-2.7-0.5-3.4-1.4
		c-0.7-0.9-1.1-2-1.1-3.3c0-1.3,0.4-2.4,1.1-3.3s1.9-1.4,3.4-1.4S486.1,181.1,486.8,182z M483.4,182.6c-0.7,0-1.2,0.2-1.6,0.7
		c-0.4,0.5-0.5,1.2-0.5,2.1s0.2,1.6,0.5,2.1c0.4,0.5,0.9,0.7,1.6,0.7s1.2-0.2,1.6-0.7c0.4-0.5,0.5-1.2,0.5-2.1s-0.2-1.6-0.5-2.1
		S484.1,182.6,483.4,182.6z"/>
	<path class="st4" d="M493.7,182.6c-0.8,0-1.3,0.3-1.6,1c-0.2,0.4-0.2,0.8-0.2,1.3v4.8h-2.3v-8.8h2.2v1.3c0.3-0.5,0.6-0.8,0.8-1
		c0.5-0.4,1.1-0.5,1.8-0.5c0.9,0,1.7,0.2,2.2,0.7c0.6,0.5,0.9,1.3,0.9,2.4v6h-2.4v-5.4c0-0.5-0.1-0.8-0.2-1.1
		C494.8,182.8,494.4,182.6,493.7,182.6L493.7,182.6z"/>
	<path class="st4" d="M503.9,177.7v1.9c-0.1,0-0.3,0-0.7,0c-0.3,0-0.5,0.1-0.6,0.2s-0.2,0.3-0.2,0.5v0.7h1.5v1.6h-1.5v7.1h-2.3v-7.1
		h-1.3V181h1.3v-0.6c0-0.9,0.2-1.6,0.5-2c0.3-0.5,1.1-0.8,2.4-0.8c0.1,0,0.3,0,0.4,0S503.7,177.7,503.9,177.7L503.9,177.7z"/>
	<path class="st4" d="M512.8,187.1c-0.1,0.5-0.3,1.1-0.8,1.6c-0.8,0.9-1.8,1.3-3.2,1.3c-1.1,0-2.1-0.4-3-1.1
		c-0.9-0.7-1.3-1.9-1.3-3.5c0-1.5,0.4-2.7,1.2-3.5c0.8-0.8,1.8-1.2,3-1.2c0.7,0,1.4,0.1,2,0.4c0.6,0.3,1.1,0.7,1.5,1.3
		c0.3,0.5,0.6,1.1,0.7,1.8c0.1,0.4,0.1,1,0.1,1.8h-6.1c0,0.9,0.3,1.5,0.8,1.9c0.3,0.2,0.7,0.3,1.2,0.3c0.5,0,0.9-0.1,1.2-0.4
		c0.2-0.1,0.3-0.3,0.4-0.6L512.8,187.1L512.8,187.1z M510.6,184.4c0-0.6-0.2-1.1-0.6-1.4c-0.3-0.3-0.7-0.5-1.2-0.5
		c-0.5,0-1,0.2-1.2,0.5c-0.3,0.3-0.5,0.8-0.6,1.4L510.6,184.4L510.6,184.4z"/>
	<path class="st4" d="M519,183c-0.9,0-1.6,0.3-1.9,0.9c-0.2,0.3-0.3,0.9-0.3,1.6v4.2h-2.3v-8.8h2.2v1.5c0.4-0.6,0.7-1,0.9-1.2
		c0.4-0.4,1-0.5,1.7-0.5c0,0,0.1,0,0.1,0c0,0,0.1,0,0.2,0v2.4c-0.1,0-0.3,0-0.4,0C519.1,183,519,183,519,183L519,183z"/>
	<path class="st4" d="M528.6,187.1c-0.1,0.5-0.3,1.1-0.8,1.6c-0.8,0.9-1.8,1.3-3.2,1.3c-1.1,0-2.1-0.4-3-1.1
		c-0.9-0.7-1.3-1.9-1.3-3.5c0-1.5,0.4-2.7,1.2-3.5c0.8-0.8,1.8-1.2,3-1.2c0.7,0,1.4,0.1,2,0.4c0.6,0.3,1.1,0.7,1.5,1.3
		c0.3,0.5,0.6,1.1,0.7,1.8c0.1,0.4,0.1,1,0.1,1.8h-6.1c0,0.9,0.3,1.5,0.8,1.9c0.3,0.2,0.7,0.3,1.2,0.3c0.5,0,0.9-0.1,1.2-0.4
		c0.2-0.1,0.3-0.3,0.4-0.6L528.6,187.1L528.6,187.1z M526.3,184.4c0-0.6-0.2-1.1-0.6-1.4c-0.3-0.3-0.7-0.5-1.2-0.5
		c-0.5,0-1,0.2-1.2,0.5c-0.3,0.3-0.5,0.8-0.6,1.4L526.3,184.4L526.3,184.4z"/>
	<path class="st4" d="M534.4,182.6c-0.8,0-1.3,0.3-1.6,1c-0.2,0.4-0.2,0.8-0.2,1.3v4.8h-2.3v-8.8h2.2v1.3c0.3-0.5,0.6-0.8,0.8-1
		c0.5-0.4,1.1-0.5,1.8-0.5c0.9,0,1.7,0.2,2.2,0.7c0.6,0.5,0.9,1.3,0.9,2.4v6h-2.4v-5.4c0-0.5-0.1-0.8-0.2-1.1
		C535.5,182.8,535,182.6,534.4,182.6L534.4,182.6z"/>
	<path class="st4" d="M548,184.1h-2.4c0-0.3-0.2-0.6-0.3-0.9c-0.3-0.4-0.7-0.5-1.2-0.5c-0.8,0-1.3,0.4-1.6,1.2
		c-0.2,0.4-0.2,1-0.2,1.6c0,0.6,0.1,1.2,0.2,1.6c0.3,0.7,0.8,1.1,1.6,1.1c0.5,0,0.9-0.1,1.2-0.4s0.4-0.7,0.4-1.1h2.4
		c-0.1,0.7-0.3,1.4-0.8,2c-0.7,1-1.8,1.5-3.2,1.5s-2.5-0.4-3.1-1.3s-1-1.9-1-3.3c0-1.5,0.4-2.7,1.1-3.5c0.7-0.8,1.8-1.3,3.1-1.3
		c1.1,0,2,0.2,2.7,0.7C547.5,181.9,547.9,182.8,548,184.1L548,184.1z"/>
	<path class="st4" d="M557.2,187.1c-0.1,0.5-0.3,1.1-0.8,1.6c-0.8,0.9-1.8,1.3-3.2,1.3c-1.1,0-2.1-0.4-3-1.1
		c-0.9-0.7-1.3-1.9-1.3-3.5c0-1.5,0.4-2.7,1.2-3.5c0.8-0.8,1.8-1.2,3-1.2c0.7,0,1.4,0.1,2,0.4c0.6,0.3,1.1,0.7,1.5,1.3
		c0.3,0.5,0.6,1.1,0.7,1.8c0.1,0.4,0.1,1,0.1,1.8h-6.1c0,0.9,0.3,1.5,0.8,1.9c0.3,0.2,0.7,0.3,1.2,0.3c0.5,0,0.9-0.1,1.2-0.4
		c0.2-0.1,0.3-0.3,0.4-0.6L557.2,187.1L557.2,187.1z M554.9,184.4c0-0.6-0.2-1.1-0.6-1.4c-0.3-0.3-0.7-0.5-1.2-0.5
		c-0.5,0-1,0.2-1.2,0.5c-0.3,0.3-0.5,0.8-0.6,1.4L554.9,184.4L554.9,184.4z"/>
	<path class="st4" d="M504.5,206.4h-2.4v-8.1h-2.8v-1.6c0.7,0,1.2-0.1,1.5-0.1c0.5-0.1,0.8-0.3,1.1-0.6c0.2-0.2,0.4-0.5,0.5-0.8
		c0.1-0.2,0.1-0.4,0.1-0.5h1.9V206.4L504.5,206.4z"/>
	<path class="st4" d="M512,206.6c-1.5,0-2.6-0.5-3.2-1.6c-0.6-1.1-0.9-2.5-0.9-4.5s0.3-3.4,0.9-4.5c0.6-1.1,1.7-1.6,3.2-1.6
		s2.6,0.5,3.2,1.6c0.6,1.1,0.9,2.6,0.9,4.5s-0.3,3.4-0.9,4.5C514.6,206.1,513.5,206.6,512,206.6L512,206.6z M513.4,203.7
		c0.2-0.7,0.3-1.7,0.3-3.1c0-1.4-0.1-2.5-0.3-3.1c-0.2-0.7-0.7-1-1.4-1s-1.1,0.3-1.4,1c-0.2,0.7-0.3,1.7-0.3,3.1
		c0,1.4,0.1,2.4,0.3,3.1c0.2,0.7,0.7,1.1,1.4,1.1S513.2,204.4,513.4,203.7L513.4,203.7z"/>
	<path class="st4" d="M522.5,197c-0.3-0.3-0.7-0.5-1.2-0.5c-0.7,0-1.2,0.3-1.4,0.8c-0.1,0.3-0.2,0.8-0.3,1.4h-2.2
		c0-1,0.2-1.8,0.5-2.4c0.6-1.2,1.7-1.8,3.3-1.8c1.2,0,2.2,0.3,3,1c0.7,0.7,1.1,1.6,1.1,2.7c0,0.9-0.3,1.6-0.8,2.3
		c-0.3,0.4-0.9,0.9-1.7,1.5l-0.9,0.7c-0.6,0.4-1,0.7-1.2,0.9c-0.2,0.2-0.4,0.4-0.5,0.6h5.1v2h-8.1c0-0.8,0.2-1.6,0.5-2.3
		c0.3-0.8,1.1-1.6,2.3-2.5c1.1-0.8,1.8-1.3,2.1-1.6c0.5-0.5,0.7-1.1,0.7-1.7C522.9,197.7,522.8,197.3,522.5,197L522.5,197z"/>
	<g>
		<path class="st4" d="M436.4,490.9v2.3h-3.8v10.5h-2.7v-10.5H426v-2.3H436.4z"/>
		<path class="st4" d="M444.5,501c-0.1,0.6-0.4,1.1-0.9,1.7c-0.8,0.9-1.9,1.4-3.4,1.4c-1.2,0-2.3-0.4-3.2-1.2
			c-0.9-0.8-1.4-2-1.4-3.8c0-1.6,0.4-2.9,1.2-3.8c0.8-0.9,1.9-1.3,3.2-1.3c0.8,0,1.5,0.1,2.1,0.4c0.6,0.3,1.2,0.8,1.6,1.4
			c0.4,0.6,0.6,1.2,0.7,2c0.1,0.4,0.1,1.1,0.1,1.9h-6.5c0,0.9,0.3,1.6,0.9,2c0.3,0.2,0.8,0.4,1.2,0.4c0.5,0,0.9-0.1,1.2-0.4
			c0.2-0.2,0.3-0.4,0.5-0.7H444.5z M442.1,498.1c0-0.7-0.2-1.1-0.6-1.5c-0.4-0.3-0.8-0.5-1.3-0.5c-0.6,0-1,0.2-1.3,0.5
			c-0.3,0.4-0.5,0.8-0.6,1.5H442.1z"/>
		<path class="st4" d="M446.6,495.3c0.7-0.8,1.8-1.2,3.4-1.2c1,0,2,0.2,2.8,0.6c0.8,0.4,1.2,1.2,1.2,2.3v4.3c0,0.3,0,0.7,0,1.1
			c0,0.3,0.1,0.5,0.1,0.7s0.2,0.2,0.4,0.3v0.4h-2.7c-0.1-0.2-0.1-0.4-0.2-0.5c0-0.2-0.1-0.4-0.1-0.6c-0.3,0.4-0.7,0.7-1.2,0.9
			c-0.5,0.3-1.1,0.5-1.8,0.5c-0.9,0-1.6-0.2-2.1-0.7c-0.6-0.5-0.8-1.2-0.8-2.1c0-1.2,0.4-2,1.3-2.5c0.5-0.3,1.2-0.5,2.2-0.6l0.8-0.1
			c0.5-0.1,0.8-0.1,1-0.2c0.4-0.2,0.5-0.4,0.5-0.7c0-0.4-0.1-0.7-0.4-0.8c-0.3-0.1-0.7-0.2-1.2-0.2c-0.6,0-1,0.1-1.2,0.4
			c-0.2,0.2-0.3,0.5-0.3,0.9h-2.4C446,496.5,446.2,495.8,446.6,495.3z M448.5,501.9c0.2,0.2,0.5,0.3,0.8,0.3c0.5,0,1-0.2,1.5-0.5
			c0.4-0.3,0.7-0.9,0.7-1.7v-0.9c-0.2,0.1-0.3,0.2-0.5,0.2c-0.2,0.1-0.4,0.1-0.7,0.2l-0.6,0.1c-0.5,0.1-0.9,0.2-1.1,0.3
			c-0.4,0.2-0.6,0.6-0.6,1C448.1,501.5,448.2,501.8,448.5,501.9z"/>
		<path class="st4" d="M461.5,496.9c-0.2-0.5-0.6-0.7-1.2-0.7c-0.7,0-1.2,0.2-1.4,0.7c-0.1,0.3-0.2,0.6-0.2,1.2v5.7h-2.5v-9.4h2.4
			v1.4c0.3-0.5,0.6-0.8,0.9-1c0.5-0.4,1.1-0.6,1.9-0.6c0.7,0,1.3,0.2,1.8,0.5c0.4,0.3,0.6,0.7,0.8,1.1c0.3-0.6,0.7-1,1.2-1.2
			c0.5-0.3,1.1-0.4,1.7-0.4c0.4,0,0.8,0.1,1.2,0.2c0.4,0.2,0.8,0.4,1.1,0.9c0.3,0.3,0.4,0.7,0.5,1.2c0.1,0.3,0.1,0.8,0.1,1.4l0,6
			h-2.5v-6c0-0.4-0.1-0.7-0.2-0.9c-0.2-0.4-0.6-0.7-1.2-0.7c-0.7,0-1.2,0.3-1.4,0.9c-0.1,0.3-0.2,0.7-0.2,1.1v5.6h-2.5v-5.6
			C461.6,497.5,461.6,497.1,461.5,496.9z"/>
		<path class="st4" d="M440.2,521.5h-2.5v-8.7h-3v-1.7c0.8,0,1.3-0.1,1.6-0.2c0.5-0.1,0.9-0.3,1.2-0.7c0.2-0.2,0.4-0.5,0.5-0.9
			c0.1-0.2,0.1-0.4,0.1-0.5h2.1V521.5z"/>
		<path class="st4" d="M448.2,521.8c-1.6,0-2.7-0.6-3.4-1.7s-1-2.7-1-4.8c0-2.1,0.3-3.7,1-4.8c0.6-1.1,1.8-1.7,3.4-1.7
			s2.7,0.6,3.4,1.7c0.6,1.1,1,2.7,1,4.8c0,2.1-0.3,3.7-1,4.8C450.9,521.2,449.8,521.8,448.2,521.8z M449.7,518.6
			c0.2-0.8,0.3-1.9,0.3-3.3c0-1.5-0.1-2.6-0.3-3.4c-0.2-0.7-0.7-1.1-1.4-1.1s-1.2,0.4-1.5,1.1c-0.2,0.7-0.4,1.9-0.4,3.4
			c0,1.4,0.1,2.6,0.4,3.3c0.2,0.8,0.7,1.1,1.5,1.1S449.4,519.4,449.7,518.6z"/>
		<path class="st4" d="M458.1,521.8c-1.6,0-2.7-0.6-3.4-1.7c-0.6-1.1-1-2.7-1-4.8c0-2.1,0.3-3.7,1-4.8c0.6-1.1,1.8-1.7,3.4-1.7
			s2.7,0.6,3.4,1.7c0.6,1.1,1,2.7,1,4.8c0,2.1-0.3,3.7-1,4.8S459.7,521.8,458.1,521.8z M459.5,518.6c0.2-0.8,0.3-1.9,0.3-3.3
			c0-1.5-0.1-2.6-0.3-3.4c-0.2-0.7-0.7-1.1-1.4-1.1s-1.2,0.4-1.5,1.1c-0.2,0.7-0.4,1.9-0.4,3.4c0,1.4,0.1,2.6,0.4,3.3
			c0.2,0.8,0.7,1.1,1.5,1.1S459.3,519.4,459.5,518.6z"/>
		<path class="st4" d="M384,542.8l-0.6-0.8c-0.4-0.5-0.8-1.3-1.3-2.3c-0.8-1.8-1.2-3.6-1.2-5.3c0-1.6,0.3-3.2,1-4.7
			c0.5-1.1,1.1-2.2,2-3.4h1.9l-0.5,1c-0.7,1.3-1.2,2.7-1.5,4.2c-0.2,1-0.3,2-0.3,3.1c0,1.8,0.3,3.4,0.8,4.9c0.3,0.9,0.8,2,1.6,3.4
			H384z"/>
		<path class="st4" d="M389.9,539.3h-2.5v-12.8h3.9l2.3,10.1l2.3-10.1h3.8v12.8h-2.5v-8.6c0-0.2,0-0.6,0-1s0-0.8,0-1l-2.4,10.7h-2.6
			l-2.4-10.7c0,0.2,0,0.6,0,1s0,0.8,0,1V539.3z"/>
		<path class="st4" d="M409.9,531c0.8,1,1.2,2.2,1.2,3.5c0,1.4-0.4,2.6-1.2,3.6c-0.8,1-2,1.5-3.6,1.5c-1.6,0-2.8-0.5-3.6-1.5
			c-0.8-1-1.2-2.2-1.2-3.6c0-1.4,0.4-2.5,1.2-3.5c0.8-1,2-1.5,3.6-1.5C407.9,529.5,409.1,530,409.9,531z M406.3,531.6
			c-0.7,0-1.3,0.3-1.7,0.8c-0.4,0.5-0.6,1.2-0.6,2.2s0.2,1.7,0.6,2.2c0.4,0.5,0.9,0.8,1.7,0.8s1.3-0.3,1.7-0.8s0.6-1.2,0.6-2.2
			s-0.2-1.7-0.6-2.2S407,531.6,406.3,531.6z"/>
		<path class="st4" d="M417.2,537.5v1.8l-1.2,0c-1.2,0-2-0.2-2.4-0.6c-0.3-0.3-0.4-0.7-0.4-1.3v-5.8h-1.3v-1.8h1.3v-2.6h2.4v2.6h1.5
			v1.8h-1.5v5c0,0.4,0,0.6,0.1,0.7s0.4,0.1,0.9,0.1c0.1,0,0.2,0,0.2,0S417.1,537.5,417.2,537.5z"/>
		<path class="st4" d="M427.3,533.7v5.6h-2.5v-5.8c0-0.5-0.1-0.9-0.3-1.2c-0.2-0.4-0.7-0.7-1.3-0.7c-0.7,0-1.1,0.2-1.5,0.7
			c-0.3,0.4-0.5,1.1-0.5,1.9v5.1h-2.5v-12.7h2.5v4.5c0.4-0.5,0.8-0.9,1.2-1.1c0.5-0.2,1-0.3,1.5-0.3c0.6,0,1.1,0.1,1.6,0.3
			c0.5,0.2,0.9,0.5,1.2,0.9c0.3,0.4,0.4,0.7,0.5,1.1S427.3,532.9,427.3,533.7z"/>
		<path class="st4" d="M437.7,536.5c-0.1,0.6-0.4,1.1-0.9,1.7c-0.8,0.9-1.9,1.4-3.4,1.4c-1.2,0-2.3-0.4-3.2-1.2
			c-0.9-0.8-1.4-2-1.4-3.8c0-1.6,0.4-2.9,1.2-3.8s1.9-1.3,3.2-1.3c0.8,0,1.5,0.1,2.1,0.4s1.2,0.8,1.6,1.4c0.4,0.6,0.6,1.2,0.7,2
			c0.1,0.4,0.1,1.1,0.1,1.9h-6.5c0,0.9,0.3,1.6,0.9,2c0.3,0.2,0.8,0.4,1.2,0.4c0.5,0,0.9-0.1,1.2-0.4c0.2-0.2,0.3-0.4,0.5-0.7H437.7
			z M435.3,533.6c0-0.7-0.2-1.1-0.6-1.5c-0.4-0.3-0.8-0.5-1.3-0.5c-0.6,0-1,0.2-1.3,0.5c-0.3,0.4-0.5,0.8-0.6,1.5H435.3z"/>
		<path class="st4" d="M444.3,532.1c-1,0-1.7,0.3-2,1c-0.2,0.4-0.3,0.9-0.3,1.7v4.5h-2.5v-9.5h2.4v1.6c0.4-0.6,0.7-1.1,1-1.3
			c0.5-0.4,1.1-0.6,1.8-0.6c0,0,0.1,0,0.1,0c0,0,0.1,0,0.2,0v2.5c-0.2,0-0.3,0-0.4,0C444.5,532.1,444.4,532.1,444.3,532.1z"/>
		<path class="st4" d="M453,530.2c0.7,0.5,1.2,1.3,1.3,2.4h-2.5c0-0.3-0.1-0.6-0.3-0.8c-0.3-0.3-0.7-0.5-1.4-0.5
			c-0.5,0-0.9,0.1-1.1,0.3c-0.2,0.2-0.3,0.4-0.3,0.6c0,0.3,0.1,0.5,0.4,0.6c0.2,0.1,1.1,0.4,2.6,0.7c1,0.2,1.7,0.6,2.2,1
			c0.5,0.5,0.7,1.1,0.7,1.8c0,0.9-0.3,1.7-1,2.3c-0.7,0.6-1.8,0.9-3.2,0.9c-1.5,0-2.6-0.3-3.3-0.9c-0.7-0.6-1.1-1.4-1.1-2.4h2.5
			c0.1,0.4,0.2,0.8,0.3,0.9c0.3,0.3,0.9,0.5,1.7,0.5c0.5,0,0.9-0.1,1.2-0.2c0.3-0.1,0.4-0.4,0.4-0.7c0-0.3-0.1-0.5-0.3-0.6
			s-1.1-0.4-2.6-0.7c-1.1-0.3-1.8-0.6-2.3-1c-0.4-0.4-0.7-1-0.7-1.7c0-0.9,0.3-1.6,1-2.2c0.7-0.6,1.6-0.9,2.9-0.9
			C451.3,529.5,452.2,529.8,453,530.2z"/>
		<path class="st4" d="M466.9,534.2h-2.8v5h-2.6v-12.8h6.3c0.9,0,1.6,0.1,2.1,0.3c0.5,0.2,0.9,0.5,1.2,0.9c0.3,0.3,0.5,0.7,0.7,1.1
			c0.2,0.4,0.2,0.8,0.2,1.3c0,0.6-0.2,1.2-0.5,1.8s-0.8,1-1.5,1.2c0.6,0.2,1,0.6,1.3,1c0.2,0.4,0.4,1.1,0.4,2v0.9c0,0.6,0,1,0.1,1.2
			c0.1,0.3,0.2,0.6,0.5,0.7v0.3h-2.9c-0.1-0.3-0.1-0.5-0.2-0.7c-0.1-0.4-0.1-0.7-0.1-1.1l0-1.2c0-0.8-0.2-1.4-0.4-1.6
			S467.7,534.2,466.9,534.2z M468.5,531.9c0.5-0.2,0.8-0.7,0.8-1.4c0-0.8-0.3-1.3-0.8-1.6c-0.3-0.1-0.7-0.2-1.3-0.2h-3.1v3.4h3
			C467.8,532.1,468.2,532.1,468.5,531.9z"/>
		<path class="st4" d="M482,531c0.8,1,1.2,2.2,1.2,3.5c0,1.4-0.4,2.6-1.2,3.6c-0.8,1-2,1.5-3.6,1.5s-2.8-0.5-3.6-1.5
			c-0.8-1-1.2-2.2-1.2-3.6c0-1.4,0.4-2.5,1.2-3.5s2-1.5,3.6-1.5S481.2,530,482,531z M478.3,531.6c-0.7,0-1.3,0.3-1.7,0.8
			c-0.4,0.5-0.6,1.2-0.6,2.2s0.2,1.7,0.6,2.2c0.4,0.5,0.9,0.8,1.7,0.8s1.3-0.3,1.7-0.8c0.4-0.5,0.6-1.2,0.6-2.2s-0.2-1.7-0.6-2.2
			C479.6,531.8,479,531.6,478.3,531.6z"/>
		<path class="st4" d="M492.8,531c0.8,1,1.2,2.2,1.2,3.5c0,1.4-0.4,2.6-1.2,3.6c-0.8,1-2,1.5-3.6,1.5s-2.8-0.5-3.6-1.5
			c-0.8-1-1.2-2.2-1.2-3.6c0-1.4,0.4-2.5,1.2-3.5s2-1.5,3.6-1.5S492,530,492.8,531z M489.2,531.6c-0.7,0-1.3,0.3-1.7,0.8
			c-0.4,0.5-0.6,1.2-0.6,2.2s0.2,1.7,0.6,2.2c0.4,0.5,0.9,0.8,1.7,0.8s1.3-0.3,1.7-0.8c0.4-0.5,0.6-1.2,0.6-2.2s-0.2-1.7-0.6-2.2
			C490.5,531.8,489.9,531.6,489.2,531.6z"/>
		<path class="st4" d="M501.1,532.4c-0.2-0.5-0.6-0.7-1.2-0.7c-0.7,0-1.2,0.2-1.4,0.7c-0.1,0.3-0.2,0.6-0.2,1.2v5.7h-2.5v-9.4h2.4
			v1.4c0.3-0.5,0.6-0.8,0.9-1c0.5-0.4,1.1-0.6,1.9-0.6c0.7,0,1.3,0.2,1.8,0.5c0.4,0.3,0.6,0.7,0.8,1.1c0.3-0.6,0.7-1,1.2-1.2
			c0.5-0.3,1.1-0.4,1.7-0.4c0.4,0,0.8,0.1,1.2,0.2c0.4,0.2,0.8,0.4,1.1,0.8c0.3,0.3,0.4,0.7,0.5,1.2c0.1,0.3,0.1,0.8,0.1,1.4l0,6
			h-2.5v-6c0-0.4-0.1-0.7-0.2-0.9c-0.2-0.4-0.6-0.7-1.2-0.7c-0.7,0-1.2,0.3-1.4,0.9c-0.1,0.3-0.2,0.7-0.2,1.1v5.6h-2.5v-5.6
			C501.3,533.1,501.2,532.7,501.1,532.4z"/>
		<path class="st4" d="M513.1,542l-0.6,0.8h-1.8c0.8-1.4,1.3-2.5,1.6-3.4c0.5-1.5,0.8-3.1,0.8-4.9c0-1.1-0.1-2.2-0.3-3.1
			c-0.3-1.5-0.8-2.9-1.5-4.2l-0.5-1h1.9c0.9,1.2,1.5,2.4,2,3.4c0.7,1.6,1,3.1,1,4.7c0,1.7-0.4,3.5-1.2,5.3
			C513.9,540.7,513.5,541.5,513.1,542z"/>
	</g>
</g>
<g id="Furn">
	<g id="tables_copy_2">
		<path class="st5" d="M135,252.2V127.4c0-2.3,1.7-4.2,4-4.2h44.9c2.3,0,4.2,1.7,4.2,4v125c0,2.3-1.7,4.2-4,4.2h-44.8
			C136.9,256.4,135.2,254.7,135,252.2L135,252.2z"/>
		<path class="st6" d="M132.7,252.2V127.4c0-2.3,1.7-4.2,4-4.2h44.9c2.3,0,4.2,1.7,4.2,4v125c0,2.3-1.7,4.2-4,4.2h-44.9
			C134.6,256.4,132.7,254.7,132.7,252.2L132.7,252.2z"/>
		<path id="table-17" class="st4" d="M131.2,212.8v40c0,2.1,1.5,3.6,3.6,3.8h24.7V213L131.2,212.8L131.2,212.8z"/>
		<path id="table-18" class="st4" d="M159.5,123.1H135c-2.1,0-3.6,1.5-3.8,3.6l0,0V169h28.1L159.5,123.1
			C159.5,123.1,159.5,123.1,159.5,123.1z"/>
		<rect id="table-19" x="131.2" y="169.3" class="st4" width="28.1" height="43.6"/>
		<path id="table-20" class="st4" d="M159.5,169h25.2v-42.1c0-2.1-1.5-3.6-3.6-3.8h-21.6V169z"/>
		<rect id="table-21" x="159.5" y="169.3" class="st4" width="25.2" height="43.6"/>
		<path id="table-22" class="st4" d="M159.5,256.4h21.4c2.1,0,3.6-1.5,3.8-3.6l0,0v-40h-25.2V256.4z"/>
		<line class="st7" x1="131.2" y1="212.8" x2="184.7" y2="212.8"/>
		<line class="st7" x1="131.2" y1="169.3" x2="184.7" y2="169.3"/>
		<line class="st7" x1="159.5" y1="256.4" x2="159.5" y2="123.1"/>
	</g>
	<g id="chairs_copy_2">
		<path class="st8" d="M193,232.3v4.7c-0.2,3.4,2.5,6.4,6.1,6.6h0.4l4.4-0.2c4.6-0.4,8-4.2,7.8-8.7l0,0c0.2-4.6-3.2-8.3-7.6-8.9
			l-4.4-0.2c-3.6,0-6.4,2.8-6.4,6.3L193,232.3L193,232.3z"/>
		<path class="st9" d="M192.4,232.3v4.7c-0.2,3.4,2.5,6.4,6.1,6.6h0.4l4.4-0.2c4.6-0.4,8-4.2,7.8-8.7l0,0c0.2-4.6-3.2-8.3-7.6-8.9
			l-4.4-0.2c-3.6,0-6.4,2.8-6.4,6.3L192.4,232.3L192.4,232.3z"/>
		<path class="st10" d="M190.4,232.3v4.4c0,3.4,2.7,6.1,6.1,6.3h0.2l4.4-0.2c4.4-0.2,7.8-3.8,7.8-8.2l0,0c0-4.4-3.4-8-7.6-8.2
			l-4.4-0.2c-3.2-0.2-6.1,2.3-6.4,5.5l0,0L190.4,232.3L190.4,232.3L190.4,232.3z"/>
		<path class="st11" d="M195.9,242.9l5.3-0.4c4.4-0.2,7.8-3.8,7.8-8.2l0,0c0-4.4-3.4-8-7.6-8.2l-5.3-0.4"/>
		<path class="st8" d="M193,187.7v4.7c-0.2,3.4,2.5,6.4,6.1,6.6h0.4l4.4-0.2c4.6-0.4,8-4.2,7.8-8.7l0,0c0.2-4.6-3.2-8.3-7.6-8.9
			l-4.4-0.2c-3.6,0-6.4,2.8-6.4,6.3L193,187.7L193,187.7z"/>
		<path class="st9" d="M192.4,187.7v4.7c-0.2,3.4,2.5,6.4,6.1,6.6h0.4l4.4-0.2c4.6-0.4,8-4.2,7.8-8.7l0,0c0.2-4.6-3.2-8.3-7.6-8.9
			l-4.4-0.2c-3.6,0-6.4,2.8-6.4,6.3L192.4,187.7L192.4,187.7z"/>
		<path class="st10" d="M190.4,188.1v4.4c0,3.4,2.7,6.1,6.1,6.3h0.2l4.4-0.2c4.4-0.2,7.8-3.8,7.8-8.2l0,0c0-4.4-3.4-8-7.6-8.2
			l-4.4-0.2c-3.2-0.2-6.1,2.3-6.4,5.5l0,0L190.4,188.1L190.4,188.1L190.4,188.1z"/>
		<path class="st11" d="M195.9,198.7l5.3-0.4c4.4-0.2,7.8-3.8,7.8-8.2l0,0c0-4.4-3.4-8-7.6-8.2l-5.3-0.4"/>
		<path class="st8" d="M193,143.6v4.7c-0.2,3.4,2.5,6.4,6.1,6.6h0.4l4.4-0.2c4.6-0.4,8-4.2,7.8-8.7l0,0c0.2-4.6-3.2-8.3-7.6-8.9
			l-4.4-0.2c-3.6,0-6.4,2.8-6.4,6.3L193,143.6L193,143.6z"/>
		<path class="st9" d="M192.4,143.6v4.7c-0.2,3.4,2.5,6.4,6.1,6.6h0.4l4.4-0.2c4.6-0.4,8-4.2,7.8-8.7l0,0c0.2-4.6-3.2-8.3-7.6-8.9
			l-4.4-0.2c-3.6,0-6.4,2.8-6.4,6.3L192.4,143.6L192.4,143.6z"/>
		<path class="st10" d="M190.4,143.7v4.4c0,3.4,2.7,6.1,6.1,6.3h0.2l4.4-0.2c4.4-0.2,7.8-3.8,7.8-8.2l0,0c0-4.4-3.4-8-7.6-8.2
			l-4.4-0.2c-3.2-0.2-6.1,2.3-6.4,5.5l0,0L190.4,143.7L190.4,143.7L190.4,143.7z"/>
		<path class="st11" d="M195.9,154.4l5.3-0.4c4.4-0.2,7.8-3.8,7.8-8.2l0,0c0-4.4-3.4-8-7.6-8.2l-5.3-0.4"/>
		<path class="st8" d="M129.7,233.1l-0.2,4.4c0,3.4-3,6.1-6.4,6.1h-0.2l-4.4-0.4c-4.4-0.4-7.6-4-7.6-8.3l0,0c0.2-4.4,3.6-7.8,8-8
			l4.4-0.2c3.4-0.2,6.1,2.5,6.3,5.9v0.2L129.7,233.1z"/>
		<path class="st9" d="M128.9,233.1l-0.2,4.4c0,3.4-3,6.1-6.4,6.1h-0.2l-4.4-0.4c-4.4-0.4-7.6-4-7.6-8.3l0,0c0.2-4.4,3.6-7.8,8-8
			l4.4-0.2c3.4,0,6.3,2.7,6.3,6.1L128.9,233.1L128.9,233.1z"/>
		<path class="st10" d="M128,233.1l-0.2,4.4c0,3.4-3,6.1-6.4,6.1H121l-4.4-0.4c-4.4-0.4-7.6-4-7.6-8.3l0,0c0.2-4.4,3.6-7.8,8-8
			l4.4-0.2c3.4,0,6.3,2.7,6.3,6.1C128,232.7,128,232.9,128,233.1L128,233.1z"/>
		<path class="st11" d="M122.1,243.7l-5.3-0.6c-4.4-0.4-7.6-4-7.6-8.3l0,0c0.2-4.4,3.6-7.8,8-8l5.3-0.2"/>
		<path class="st8" d="M129.7,188.9l-0.2,4.4c0,3.4-3,6.1-6.4,6.1h-0.2l-4.4-0.4c-4.4-0.4-7.6-4-7.6-8.3l0,0c0.2-4.4,3.6-7.8,8-8
			l4.4-0.2c3.4-0.2,6.1,2.5,6.3,5.9L129.7,188.9z"/>
		<path class="st9" d="M129.1,188.9l-0.2,4.4c0,3.4-3,6.1-6.4,6.1h-0.2l-4.4-0.4c-4.4-0.4-7.6-4-7.6-8.3l0,0c0.2-4.4,3.6-7.8,8-8
			l4.4-0.2c3.4,0,6.3,2.7,6.3,5.9L129.1,188.9z"/>
		<path class="st10" d="M128.2,188.9l-0.2,4.4c0,3.4-3,6.1-6.4,6.1h-0.4l-4.4-0.2c-4.4-0.4-7.6-4-7.6-8.3l0,0c0.2-4.4,3.6-7.8,8-8
			l4.4-0.2c3.4,0,6.3,2.7,6.3,5.9v0.2C128,188.7,128.2,188.8,128.2,188.9L128.2,188.9z"/>
		<path class="st11" d="M122.3,199.5l-5.3-0.6c-4.4-0.4-7.6-4-7.6-8.3l0,0c0.2-4.4,3.6-7.8,8-8l5.3-0.2"/>
		<path class="st8" d="M128.9,143.9l-0.2,4.4c0,3.4-3,6.1-6.4,6.1h-0.2l-4.4-0.4c-4.4-0.4-7.6-4-7.6-8.3l0,0c0.2-4.4,3.6-7.8,8-8
			l4.4-0.2c3.4-0.2,6.1,2.5,6.3,5.9L128.9,143.9z"/>
		<path class="st9" d="M128.2,143.9l-0.2,4.4c0,3.4-3,6.1-6.4,6.1h-0.2L117,154c-4.4-0.4-7.6-4-7.6-8.3l0,0c0.2-4.4,3.6-7.8,8-8
			l4.4-0.2c3.4,0,6.3,2.7,6.3,5.9L128.2,143.9L128.2,143.9z"/>
		<path class="st10" d="M127.2,143.9l-0.2,4.4c0,3.4-3,6.1-6.4,6.1h-0.4l-4.4-0.4c-4.4-0.4-7.6-4-7.6-8.3l0,0c0.2-4.4,3.6-7.8,8-8
			l4.4-0.2c3.4,0,6.3,2.7,6.3,5.9v0.2C127.2,143.7,127.4,143.9,127.2,143.9z"/>
		<path class="st11" d="M121.3,154.6L116,154c-4.4-0.4-7.6-4-7.6-8.3l0,0c0.2-4.4,3.6-7.8,8-8l5.3-0.2"/>
		<path class="st8" d="M155.6,118.7h4.7c3.4,0.2,6.4-2.5,6.6-6.1v-0.4l-0.2-4.4c-0.4-4.6-4.2-8-8.7-7.8l0,0
			c-4.6-0.2-8.3,3.2-8.9,7.6l-0.2,4.4c0,3.6,2.8,6.4,6.3,6.4L155.6,118.7L155.6,118.7z"/>
		<path class="st9" d="M155.6,119.3h4.7c3.4,0.2,6.4-2.5,6.6-6.1v-0.4l-0.2-4.4c-0.4-4.6-4.2-8-8.7-7.8l0,0
			c-4.6-0.2-8.3,3.2-8.9,7.6l-0.2,4.4c0,3.6,2.8,6.4,6.3,6.4L155.6,119.3L155.6,119.3z"/>
		<path class="st10" d="M155.8,121.4h4.4c3.4,0,6.1-2.7,6.3-6.1v-0.2l-0.2-4.4c-0.2-4.4-3.8-7.8-8.2-7.8l0,0c-4.4,0-8,3.4-8.2,7.6
			l-0.2,4.4c-0.2,3.2,2.3,6.1,5.5,6.4L155.8,121.4L155.8,121.4z"/>
		<path class="st11" d="M166.4,115.9l-0.4-5.3c-0.2-4.4-3.8-7.8-8.2-7.8l0,0c-4.4,0-8,3.4-8.2,7.6l-0.4,5.3"/>
		<path class="st8" d="M160.4,261.3h-4.7c-3.4-0.2-6.4,2.5-6.6,6.1v0.4l0.2,4.4c0.4,4.6,4.2,8,8.7,7.8l0,0c4.6,0.2,8.3-3.2,8.9-7.6
			l0.2-4.4c0-3.6-2.8-6.4-6.3-6.4L160.4,261.3L160.4,261.3z"/>
		<path class="st9" d="M160.4,260.8h-4.7c-3.4-0.2-6.4,2.5-6.6,6.1v0.4l0.2,4.4c0.4,4.6,4.2,8,8.7,7.8l0,0c4.6,0.2,8.3-3.2,8.9-7.6
			l0.2-4.4c0-3.6-2.8-6.4-6.3-6.4L160.4,260.8L160.4,260.8z"/>
		<path class="st10" d="M160.2,258.7h-4.4c-3.4,0-6.1,2.7-6.3,6.1v0.2l0.2,4.4c0.2,4.4,3.8,7.8,8.2,7.8l0,0c4.4,0,8-3.4,8.2-7.6
			l0.2-4.4c0.2-3.2-2.3-6.1-5.5-6.4H160.2L160.2,258.7z"/>
		<path class="st11" d="M149.6,264.2l0.4,5.3c0.2,4.4,3.8,7.8,8.2,7.8l0,0c4.4,0,8-3.4,8.2-7.6l0.4-5.3"/>
	</g>
	<g id="tables_copy_2-2">
		<path class="st5" d="M273.1,281.5V156.7c0-2.3,1.7-4.2,4-4.2H322c2.3,0,4.2,1.7,4.2,4v125c0,2.3-1.7,4.2-4,4.2h-44.8
			C275,285.6,273.3,283.9,273.1,281.5L273.1,281.5z"/>
		<path class="st6" d="M270.8,281.5V156.7c0-2.3,1.7-4.2,4-4.2h44.9c2.3,0,4.2,1.7,4.2,4v125c0,2.3-1.7,4.2-4,4.2H275
			C272.7,285.6,270.8,283.9,270.8,281.5L270.8,281.5z"/>
		<path id="table-17-2" class="st4" d="M269.3,242v40c0,2.1,1.5,3.6,3.6,3.8h24.7v-43.6L269.3,242L269.3,242L269.3,242z"/>
		<path id="table-18-2" class="st4" d="M297.5,152.3h-24.5c-2.1,0-3.6,1.5-3.8,3.6l0,0v42.3h28.1L297.5,152.3L297.5,152.3z"/>
		<rect id="table-19-2" x="269.3" y="198.6" class="st4" width="28.1" height="43.6"/>
		<path id="table-20-2" class="st4" d="M297.5,198.2h25.2v-42.1c0-2.1-1.5-3.6-3.6-3.8h-21.6V198.2z"/>
		<rect id="table-21-2" x="297.5" y="198.6" class="st4" width="25.2" height="43.6"/>
		<path id="table-22-2" class="st4" d="M297.5,285.6H319c2.1,0,3.6-1.5,3.8-3.6l0,0v-40h-25.2V285.6z"/>
		<line class="st7" x1="269.3" y1="242" x2="322.8" y2="242"/>
		<line class="st7" x1="269.3" y1="198.6" x2="322.8" y2="198.6"/>
		<line class="st7" x1="297.5" y1="285.6" x2="297.5" y2="152.3"/>
	</g>
	<g id="chairs_copy_2-2">
		<path class="st8" d="M331.1,261.5v4.7c-0.2,3.4,2.5,6.4,6.1,6.6h0.4l4.4-0.2c4.6-0.4,8-4.2,7.8-8.7l0,0c0.2-4.6-3.2-8.3-7.6-8.9
			l-4.4-0.2c-3.6,0-6.4,2.8-6.4,6.3L331.1,261.5L331.1,261.5z"/>
		<path class="st9" d="M330.5,261.5v4.7c-0.2,3.4,2.5,6.4,6.1,6.6h0.4l4.4-0.2c4.6-0.4,8-4.2,7.8-8.7l0,0c0.2-4.6-3.2-8.3-7.6-8.9
			l-4.4-0.2c-3.6,0-6.4,2.8-6.4,6.3L330.5,261.5L330.5,261.5z"/>
		<path class="st10" d="M328.5,261.5v4.4c0,3.4,2.7,6.1,6.1,6.3h0.2l4.4-0.2c4.4-0.2,7.8-3.8,7.8-8.2l0,0c0-4.4-3.4-8-7.6-8.2
			l-4.4-0.2c-3.2-0.2-6.1,2.3-6.4,5.5l0,0V261.5L328.5,261.5z"/>
		<path class="st11" d="M334,272.2l5.3-0.4c4.4-0.2,7.8-3.8,7.8-8.2l0,0c0-4.4-3.4-8-7.6-8.2l-5.3-0.4"/>
		<path class="st8" d="M331.1,217v4.7c-0.2,3.4,2.5,6.4,6.1,6.6h0.4l4.4-0.2c4.6-0.4,8-4.2,7.8-8.7l0,0c0.2-4.6-3.2-8.3-7.6-8.9
			l-4.4-0.2c-3.6,0-6.4,2.8-6.4,6.3L331.1,217L331.1,217z"/>
		<path class="st9" d="M330.5,217v4.7c-0.2,3.4,2.5,6.4,6.1,6.6h0.4l4.4-0.2c4.6-0.4,8-4.2,7.8-8.7l0,0c0.2-4.6-3.2-8.3-7.6-8.9
			l-4.4-0.2c-3.6,0-6.4,2.8-6.4,6.3L330.5,217L330.5,217z"/>
		<path class="st10" d="M328.5,217.4v4.4c0,3.4,2.7,6.1,6.1,6.3h0.2l4.4-0.2c4.4-0.2,7.8-3.8,7.8-8.2l0,0c0-4.4-3.4-8-7.6-8.2
			l-4.4-0.2c-3.2-0.2-6.1,2.3-6.4,5.5l0,0V217.4L328.5,217.4L328.5,217.4z"/>
		<path class="st11" d="M334,228l5.3-0.4c4.4-0.2,7.8-3.8,7.8-8.2l0,0c0-4.4-3.4-8-7.6-8.2l-5.3-0.4"/>
		<path class="st8" d="M331.1,172.8v4.7c-0.2,3.4,2.5,6.4,6.1,6.6h0.4l4.4-0.2c4.6-0.4,8-4.2,7.8-8.7l0,0c0.2-4.6-3.2-8.3-7.6-8.9
			l-4.4-0.2c-3.6,0-6.4,2.8-6.4,6.3L331.1,172.8L331.1,172.8z"/>
		<path class="st9" d="M330.5,172.8v4.7c-0.2,3.4,2.5,6.4,6.1,6.6h0.4l4.4-0.2c4.6-0.4,8-4.2,7.8-8.7l0,0c0.2-4.6-3.2-8.3-7.6-8.9
			l-4.4-0.2c-3.6,0-6.4,2.8-6.4,6.3L330.5,172.8L330.5,172.8z"/>
		<path class="st10" d="M328.5,173v4.4c0,3.4,2.7,6.1,6.1,6.3h0.2l4.4-0.2c4.4-0.2,7.8-3.8,7.8-8.2l0,0c0-4.4-3.4-8-7.6-8.2
			l-4.4-0.2c-3.2-0.2-6.1,2.3-6.4,5.5l0,0V173L328.5,173L328.5,173z"/>
		<path class="st11" d="M334,183.6l5.3-0.4c4.4-0.2,7.8-3.8,7.8-8.2l0,0c0-4.4-3.4-8-7.6-8.2l-5.3-0.4"/>
		<path class="st8" d="M267.8,262.3l-0.2,4.4c0,3.4-3,6.1-6.4,6.1h-0.2l-4.4-0.4c-4.4-0.4-7.6-4-7.6-8.3l0,0c0.2-4.4,3.6-7.8,8-8
			l4.4-0.2c3.4-0.2,6.1,2.5,6.3,5.9v0.2L267.8,262.3z"/>
		<path class="st9" d="M267,262.3l-0.2,4.4c0,3.4-3,6.1-6.4,6.1h-0.2l-4.4-0.4c-4.4-0.4-7.6-4-7.6-8.3l0,0c0.2-4.4,3.6-7.8,8-8
			l4.4-0.2c3.4,0,6.3,2.7,6.3,6.1L267,262.3L267,262.3z"/>
		<path class="st10" d="M266.1,262.3l-0.2,4.4c0,3.4-3,6.1-6.4,6.1h-0.4l-4.4-0.4c-4.4-0.4-7.6-4-7.6-8.3l0,0c0.2-4.4,3.6-7.8,8-8
			l4.4-0.2c3.4,0,6.3,2.7,6.3,6.1C266.1,261.9,266.1,262.1,266.1,262.3L266.1,262.3z"/>
		<path class="st11" d="M260.2,272.9l-5.3-0.6c-4.4-0.4-7.6-4-7.6-8.3l0,0c0.2-4.4,3.6-7.8,8-8l5.3-0.2"/>
		<path class="st8" d="M267.8,218.1l-0.2,4.4c0,3.4-3,6.1-6.4,6.1h-0.2l-4.4-0.4c-4.4-0.4-7.6-4-7.6-8.3l0,0c0.2-4.4,3.6-7.8,8-8
			l4.4-0.2c3.4-0.2,6.1,2.5,6.3,5.9L267.8,218.1z"/>
		<path class="st9" d="M267.2,218.1l-0.2,4.4c0,3.4-3,6.1-6.4,6.1h-0.2l-4.4-0.4c-4.4-0.4-7.6-4-7.6-8.3l0,0c0.2-4.4,3.6-7.8,8-8
			l4.4-0.2c3.4,0,6.3,2.7,6.3,5.9L267.2,218.1z"/>
		<path class="st10" d="M266.3,218.1l-0.2,4.4c0,3.4-3,6.1-6.4,6.1h-0.4l-4.4-0.2c-4.4-0.4-7.6-4-7.6-8.3l0,0c0.2-4.4,3.6-7.8,8-8
			l4.4-0.2c3.4,0,6.3,2.7,6.3,5.9v0.2C266.1,217.9,266.3,218,266.3,218.1z"/>
		<path class="st11" d="M260.4,228.7l-5.3-0.6c-4.4-0.4-7.6-4-7.6-8.3l0,0c0.2-4.4,3.6-7.8,8-8l5.3-0.2"/>
		<path class="st8" d="M267,173.2l-0.2,4.4c0,3.4-3,6.1-6.4,6.1h-0.2l-4.4-0.4c-4.4-0.4-7.6-4-7.6-8.3l0,0c0.2-4.4,3.6-7.8,8-8
			l4.4-0.2c3.4-0.2,6.1,2.5,6.3,5.9L267,173.2z"/>
		<path class="st9" d="M266.3,173.2l-0.2,4.4c0,3.4-3,6.1-6.4,6.1h-0.2l-4.4-0.4c-4.4-0.4-7.6-4-7.6-8.3l0,0c0.2-4.4,3.6-7.8,8-8
			l4.4-0.2c3.4,0,6.3,2.7,6.3,5.9L266.3,173.2L266.3,173.2z"/>
		<path class="st10" d="M265.3,173.2l-0.2,4.4c0,3.4-3,6.1-6.4,6.1h-0.4l-4.4-0.4c-4.4-0.4-7.6-4-7.6-8.3l0,0c0.2-4.4,3.6-7.8,8-8
			l4.4-0.2c3.4,0,6.3,2.7,6.3,5.9v0.2C265.3,173,265.5,173.2,265.3,173.2z"/>
		<path class="st11" d="M259.4,183.8l-5.3-0.6c-4.4-0.4-7.6-4-7.6-8.3l0,0c0.2-4.4,3.6-7.8,8-8l5.3-0.2"/>
		<path class="st8" d="M298.5,290.6h-4.7c-3.4-0.2-6.4,2.5-6.6,6.1v0.4l0.2,4.4c0.4,4.6,4.2,8,8.7,7.8l0,0c4.6,0.2,8.3-3.2,8.9-7.6
			l0.2-4.4c0-3.6-2.8-6.4-6.3-6.4L298.5,290.6L298.5,290.6z"/>
		<path class="st9" d="M298.5,290h-4.7c-3.4-0.2-6.4,2.5-6.6,6.1v0.4l0.2,4.4c0.4,4.6,4.2,8,8.7,7.8l0,0c4.6,0.2,8.3-3.2,8.9-7.6
			l0.2-4.4c0-3.6-2.8-6.4-6.3-6.4L298.5,290L298.5,290z"/>
		<path class="st10" d="M298.3,287.9h-4.4c-3.4,0-6.1,2.7-6.3,6.1v0.2l0.2,4.4c0.2,4.4,3.8,7.8,8.2,7.8l0,0c4.4,0,8-3.4,8.2-7.6
			l0.2-4.4c0.2-3.2-2.3-6.1-5.5-6.4H298.3z"/>
		<path class="st11" d="M287.7,293.4l0.4,5.3c0.2,4.4,3.8,7.8,8.2,7.8l0,0c4.4,0,8-3.4,8.2-7.6l0.4-5.3"/>
	</g>
	<g id="tables_copy_2-3">
		<path class="st5" d="M107.3,463.8h166c3.1,0,5.5,1,5.5,2.4v26c0,1.4-2.4,2.4-5.4,2.4H107.3c-3.1,0-5.5-1-5.5-2.4v-26
			C101.7,464.8,104.2,463.8,107.3,463.8z"/>
		<path class="st6" d="M107.3,462.4h166c3.1,0,5.5,1,5.5,2.4v26c0,1.4-2.4,2.4-5.4,2.4H107.3c-3.1,0-5.5-1-5.5-2.4v-26
			C101.7,463.6,104.2,462.4,107.3,462.4z"/>
		<path id="table-17-3" class="st4" d="M159.6,461.6h-53.3c-2.6,0-4.9,1-4.9,2.2V478h58.2V461.6z"/>
		<path id="table-18-3" class="st4" d="M279.2,478v-14.2c0-1.2-2.6-2.2-5.8-2.2h-68.7V478H279.2z"/>
		<rect id="table-19-3" x="159.6" y="461.6" class="st4" width="58" height="16.4"/>
		<path id="table-20-3" class="st4" d="M204.6,478v14.6H273c3.2,0,6-1,6-2.2V478H204.6L204.6,478z"/>
		<rect id="table-21-3" x="159.6" y="478" class="st4" width="58" height="14.6"/>
		<path id="table-22-3" class="st4" d="M101.7,478v12.4c0,1.2,2.1,2.2,4.7,2.2h53.3V478H101.7z"/>
	</g>
	<path class="st8" d="M251.5,497.2h-4.7c-3.4-0.2-6.4,2.5-6.6,6.1v0.4l0.2,4.4c0.4,4.6,4.2,8,8.7,7.8l0,0c4.6,0.2,8.3-3.2,8.9-7.6
		l0.2-4.4c0-3.6-2.8-6.4-6.3-6.4L251.5,497.2L251.5,497.2z"/>
	<path class="st9" d="M251.5,496.6h-4.7c-3.4-0.2-6.4,2.5-6.6,6.1v0.4l0.2,4.4c0.4,4.6,4.2,8,8.7,7.8l0,0c4.6,0.2,8.3-3.2,8.9-7.6
		l0.2-4.4c0-3.6-2.8-6.4-6.3-6.4L251.5,496.6L251.5,496.6z"/>
	<path class="st10" d="M251.3,494.5h-4.4c-3.4,0-6.1,2.7-6.3,6.1v0.2l0.2,4.4c0.2,4.4,3.8,7.8,8.2,7.8l0,0c4.4,0,8-3.4,8.2-7.6
		l0.2-4.4c0.2-3.2-2.3-6.1-5.5-6.4L251.3,494.5L251.3,494.5z"/>
	<path class="st11" d="M240.7,500l0.4,5.3c0.2,4.4,3.8,7.8,8.2,7.8l0,0c4.4,0,8-3.4,8.2-7.6l0.4-5.3"/>
	<path class="st8" d="M194.9,497.2h-4.7c-3.4-0.2-6.4,2.5-6.6,6.1v0.4l0.2,4.4c0.4,4.6,4.2,8,8.7,7.8l0,0c4.6,0.2,8.3-3.2,8.9-7.6
		l0.2-4.4c0-3.6-2.8-6.4-6.3-6.4L194.9,497.2L194.9,497.2z"/>
	<path class="st9" d="M194.9,496.6h-4.7c-3.4-0.2-6.4,2.5-6.6,6.1v0.4l0.2,4.4c0.4,4.6,4.2,8,8.7,7.8l0,0c4.6,0.2,8.3-3.2,8.9-7.6
		l0.2-4.4c0-3.6-2.8-6.4-6.3-6.4L194.9,496.6L194.9,496.6z"/>
	<path class="st10" d="M194.8,494.5h-4.4c-3.4,0-6.1,2.7-6.3,6.1v0.2l0.2,4.4c0.2,4.4,3.8,7.8,8.2,7.8l0,0c4.4,0,8-3.4,8.2-7.6
		l0.2-4.4c0.2-3.2-2.3-6.1-5.5-6.4L194.8,494.5L194.8,494.5z"/>
	<path class="st11" d="M184.1,500l0.4,5.3c0.2,4.4,3.8,7.8,8.2,7.8l0,0c4.4,0,8-3.4,8.2-7.6l0.4-5.3"/>
	<path class="st8" d="M133.1,497.2h-4.7c-3.4-0.2-6.4,2.5-6.6,6.1v0.4l0.2,4.4c0.4,4.6,4.2,8,8.7,7.8l0,0c4.6,0.2,8.3-3.2,8.9-7.6
		l0.2-4.4c0-3.6-2.8-6.4-6.3-6.4L133.1,497.2L133.1,497.2z"/>
	<path class="st9" d="M133.1,496.6h-4.7c-3.4-0.2-6.4,2.5-6.6,6.1v0.4l0.2,4.4c0.4,4.6,4.2,8,8.7,7.8l0,0c4.6,0.2,8.3-3.2,8.9-7.6
		l0.2-4.4c0-3.6-2.8-6.4-6.3-6.4L133.1,496.6L133.1,496.6z"/>
	<path class="st10" d="M132.9,494.5h-4.4c-3.4,0-6.1,2.7-6.3,6.1v0.2l0.2,4.4c0.2,4.4,3.8,7.8,8.2,7.8l0,0c4.4,0,8-3.4,8.2-7.6
		l0.2-4.4c0.2-3.2-2.3-6.1-5.5-6.4L132.9,494.5L132.9,494.5z"/>
	<path class="st11" d="M122.3,500l0.4,5.3c0.2,4.4,3.8,7.8,8.2,7.8l0,0c4.4,0,8-3.4,8.2-7.6l0.4-5.3"/>
	<g id="tables_copy_2-3-2">
		<path class="st5" d="M273.3,702.5h-166c-3.1,0-5.5-1-5.5-2.4v-26c0-1.4,2.4-2.4,5.4-2.4h166.2c3.1,0,5.5,1,5.5,2.4v26
			C278.8,701.6,276.4,702.5,273.3,702.5L273.3,702.5z"/>
		<path class="st6" d="M273.3,703.9h-166c-3.1,0-5.5-1-5.5-2.4v-26c0-1.4,2.4-2.4,5.4-2.4h166.2c3.1,0,5.5,1,5.5,2.4v26
			C278.8,702.7,276.4,703.9,273.3,703.9L273.3,703.9z"/>
		<path id="table-17-3-2" class="st4" d="M221,704.7h53.3c2.6,0,4.9-1,4.9-2.2v-14.2H221V704.7z"/>
		<path id="table-18-3-2" class="st4" d="M101.4,688.4v14.2c0,1.2,2.6,2.2,5.8,2.2H176v-16.3C176,688.4,101.4,688.4,101.4,688.4z"/>
		<rect id="table-19-3-2" x="163" y="688.4" class="st4" width="58" height="16.3"/>
		<path id="table-20-3-2" class="st4" d="M176,688.4v-14.6h-68.4c-3.2,0-6,1-6,2.2v12.4L176,688.4L176,688.4z"/>
		<rect id="table-21-3-2" x="163" y="673.8" class="st4" width="58" height="14.6"/>
		<path id="table-22-3-2" class="st4" d="M278.8,688.4V676c0-1.2-2.1-2.2-4.7-2.2h-53.3v14.6L278.8,688.4L278.8,688.4z"/>
	</g>
	<path class="st8" d="M129.1,669.2h4.7c3.4,0.2,6.4-2.5,6.6-6.1v-0.4l-0.2-4.4c-0.4-4.6-4.2-8-8.7-7.8l0,0c-4.6-0.2-8.3,3.2-8.9,7.6
		l-0.2,4.4c0,3.6,2.8,6.4,6.3,6.4L129.1,669.2L129.1,669.2z"/>
	<path class="st9" d="M129.1,669.7h4.7c3.4,0.2,6.4-2.5,6.6-6.1v-0.4l-0.2-4.4c-0.4-4.6-4.2-8-8.7-7.8l0,0c-4.6-0.2-8.3,3.2-8.9,7.6
		l-0.2,4.4c0,3.6,2.8,6.4,6.3,6.4L129.1,669.7L129.1,669.7z"/>
	<path class="st10" d="M129.3,671.8h4.4c3.4,0,6.1-2.7,6.3-6.1v-0.2l-0.2-4.4c-0.2-4.4-3.8-7.8-8.2-7.8l0,0c-4.4,0-8,3.4-8.2,7.6
		l-0.2,4.4c-0.2,3.2,2.3,6.1,5.5,6.4H129.3L129.3,671.8z"/>
	<path class="st11" d="M139.9,666.3l-0.4-5.3c-0.2-4.4-3.8-7.8-8.2-7.8l0,0c-4.4,0-8,3.4-8.2,7.6l-0.4,5.3"/>
	<path class="st8" d="M185.6,669.2h4.7c3.4,0.2,6.4-2.5,6.6-6.1v-0.4l-0.2-4.4c-0.4-4.6-4.2-8-8.7-7.8l0,0c-4.6-0.2-8.3,3.2-8.9,7.6
		l-0.2,4.4c0,3.6,2.8,6.4,6.3,6.4L185.6,669.2L185.6,669.2z"/>
	<path class="st9" d="M185.6,669.7h4.7c3.4,0.2,6.4-2.5,6.6-6.1v-0.4l-0.2-4.4c-0.4-4.6-4.2-8-8.7-7.8l0,0c-4.6-0.2-8.3,3.2-8.9,7.6
		l-0.2,4.4c0,3.6,2.8,6.4,6.3,6.4L185.6,669.7L185.6,669.7z"/>
	<path class="st10" d="M185.8,671.8h4.4c3.4,0,6.1-2.7,6.3-6.1v-0.2l-0.2-4.4c-0.2-4.4-3.8-7.8-8.2-7.8l0,0c-4.4,0-8,3.4-8.2,7.6
		l-0.2,4.4c-0.2,3.2,2.3,6.1,5.5,6.4H185.8L185.8,671.8z"/>
	<path class="st11" d="M196.4,666.3L196,661c-0.2-4.4-3.8-7.8-8.2-7.8l0,0c-4.4,0-8,3.4-8.2,7.6l-0.4,5.3"/>
	<path class="st8" d="M247.5,669.2h4.7c3.4,0.2,6.4-2.5,6.6-6.1v-0.4l-0.2-4.4c-0.4-4.6-4.2-8-8.7-7.8l0,0c-4.6-0.2-8.3,3.2-8.9,7.6
		l-0.2,4.4c0,3.6,2.8,6.4,6.3,6.4L247.5,669.2L247.5,669.2z"/>
	<path class="st9" d="M247.5,669.7h4.7c3.4,0.2,6.4-2.5,6.6-6.1v-0.4l-0.2-4.4c-0.4-4.6-4.2-8-8.7-7.8l0,0c-4.6-0.2-8.3,3.2-8.9,7.6
		l-0.2,4.4c0,3.6,2.8,6.4,6.3,6.4L247.5,669.7L247.5,669.7z"/>
	<path class="st10" d="M247.6,671.8h4.4c3.4,0,6.1-2.7,6.3-6.1v-0.2l-0.2-4.4c-0.2-4.4-3.8-7.8-8.2-7.8l0,0c-4.4,0-8,3.4-8.2,7.6
		l-0.2,4.4c-0.2,3.2,2.3,6.1,5.5,6.4H247.6L247.6,671.8z"/>
	<path class="st11" d="M258.3,666.3l-0.4-5.3c-0.2-4.4-3.8-7.8-8.2-7.8l0,0c-4.4,0-8,3.4-8.2,7.6l-0.4,5.3"/>
	<g id="tables_copy_2-3-3">
		<path class="st5" d="M292.8,837.8H215c-1.4,0-2.6-1-2.6-2.4v-26c0-1.4,1.1-2.4,2.5-2.4h77.9c1.4,0,2.6,1,2.6,2.4v26
			C295.4,836.8,294.3,837.8,292.8,837.8L292.8,837.8z"/>
		<path class="st6" d="M292.8,839.2H215c-1.4,0-2.6-1-2.6-2.4v-26c0-1.4,1.1-2.4,2.5-2.4h77.9c1.4,0,2.6,1,2.6,2.4v26
			C295.4,838,294.3,839.2,292.8,839.2L292.8,839.2z"/>
		<path id="table-17-3-3" class="st4" d="M268.3,840h25c1.2,0,2.3-1,2.3-2.2v-14.2h-27.3V840z"/>
		<path id="table-18-3-3" class="st4" d="M212.3,823.6v14.2c0,1.2,1.2,2.2,2.7,2.2h32.2v-16.3H212.3z"/>
		<rect id="table-19-3-3" x="241.2" y="823.6" class="st4" width="27.2" height="16.3"/>
		<path id="table-20-3-3" class="st4" d="M247.2,823.6v-14.6h-32c-1.5,0-2.8,1-2.8,2.2v12.4L247.2,823.6L247.2,823.6z"/>
		<rect id="table-21-3-3" x="241.2" y="809.1" class="st4" width="27.2" height="14.6"/>
		<path id="table-22-3-3" class="st4" d="M295.4,823.6v-12.4c0-1.2-1-2.2-2.2-2.2h-25v14.6L295.4,823.6L295.4,823.6z"/>
	</g>
	<path class="st8" d="M252.4,802.8h4.7c3.4,0.2,6.4-2.5,6.6-6.1v-0.4l-0.2-4.4c-0.4-4.6-4.2-8-8.7-7.8l0,0c-4.6-0.2-8.3,3.2-8.9,7.6
		l-0.2,4.4c0,3.6,2.8,6.4,6.3,6.4L252.4,802.8L252.4,802.8z"/>
	<path class="st9" d="M252.4,803.3h4.7c3.4,0.2,6.4-2.5,6.6-6.1v-0.4l-0.2-4.4c-0.4-4.6-4.2-8-8.7-7.8l0,0c-4.6-0.2-8.3,3.2-8.9,7.6
		l-0.2,4.4c0,3.6,2.8,6.4,6.3,6.4L252.4,803.3L252.4,803.3z"/>
	<path class="st10" d="M252.6,805.4h4.4c3.4,0,6.1-2.7,6.3-6.1v-0.2l-0.2-4.4c-0.2-4.4-3.8-7.8-8.2-7.8l0,0c-4.4,0-8,3.4-8.2,7.6
		l-0.2,4.4c-0.2,3.2,2.3,6.1,5.5,6.4H252.6L252.6,805.4z"/>
	<path class="st11" d="M263.2,799.9l-0.4-5.3c-0.2-4.4-3.8-7.8-8.2-7.8l0,0c-4.4,0-8,3.4-8.2,7.6l-0.4,5.3"/>
</g>
<g id="Icons">
	<path class="st12" d="M435.1,387.9h1.2v8.6h-1.2V387.9z"/>
	<path class="st12" d="M444.5,387.9v1h-2.9v7.6h-1.2v-7.6h-2.9v-1H444.5L444.5,387.9z"/>
	<path class="st12" d="M447.4,387.9h0.9l-2.7,8.6h-0.9L447.4,387.9z"/>
	<path class="st12" d="M449.6,393.7c0,0.5,0.1,0.9,0.3,1.2c0.4,0.6,1,0.9,2,0.9c0.4,0,0.8-0.1,1.2-0.2c0.7-0.2,1-0.7,1-1.3
		c0-0.5-0.1-0.8-0.4-1c-0.3-0.2-0.7-0.4-1.4-0.5l-1.1-0.3c-0.7-0.2-1.3-0.4-1.6-0.6c-0.5-0.4-0.8-0.9-0.8-1.6c0-0.8,0.3-1.4,0.8-1.9
		s1.3-0.7,2.2-0.7c0.9,0,1.6,0.2,2.2,0.7c0.6,0.4,0.9,1.1,0.9,2.1h-1.1c-0.1-0.5-0.2-0.8-0.4-1.1c-0.3-0.4-0.9-0.7-1.7-0.7
		c-0.7,0-1.1,0.1-1.4,0.4s-0.4,0.6-0.4,1c0,0.4,0.2,0.7,0.5,0.9c0.2,0.1,0.7,0.3,1.5,0.5l1.2,0.3c0.6,0.1,1,0.3,1.3,0.5
		c0.5,0.4,0.8,1,0.8,1.8c0,1-0.3,1.6-1,2c-0.7,0.4-1.5,0.6-2.4,0.6c-1,0-1.9-0.3-2.5-0.8c-0.6-0.5-0.9-1.3-0.9-2.2L449.6,393.7
		L449.6,393.7z"/>
	<path class="st12" d="M457,388.5h1.1v1.8h1v0.9h-1v4.1c0,0.2,0.1,0.4,0.2,0.4c0.1,0,0.2,0.1,0.4,0.1c0.1,0,0.1,0,0.2,0s0.1,0,0.2,0
		v0.8c-0.1,0-0.2,0.1-0.4,0.1s-0.3,0-0.4,0c-0.5,0-0.8-0.1-1-0.4s-0.3-0.6-0.3-1v-4.2h-0.9v-0.9h0.9L457,388.5L457,388.5z"/>
	<path class="st12" d="M464.6,390.8c0.6,0.5,0.8,1.3,0.8,2.4c0,1-0.2,1.8-0.7,2.5c-0.5,0.7-1.2,1-2.3,1c-0.9,0-1.5-0.3-2-0.9
		c-0.5-0.6-0.8-1.4-0.8-2.4c0-1.1,0.3-1.9,0.8-2.5c0.5-0.6,1.2-0.9,2.1-0.9C463.4,390,464.1,390.3,464.6,390.8L464.6,390.8z
		 M464,395c0.3-0.5,0.4-1.1,0.4-1.8c0-0.6-0.1-1.1-0.3-1.4c-0.3-0.6-0.8-0.9-1.5-0.9c-0.6,0-1.1,0.2-1.4,0.7
		c-0.3,0.5-0.4,1.1-0.4,1.8c0,0.7,0.1,1.2,0.4,1.7c0.3,0.4,0.7,0.7,1.4,0.7C463.2,395.8,463.7,395.5,464,395L464,395z"/>
	<path class="st12" d="M466.8,390.2h1v1.1c0.1-0.2,0.3-0.5,0.6-0.8s0.7-0.5,1.1-0.5c0,0,0.1,0,0.1,0s0.1,0,0.2,0v1.1
		c-0.1,0-0.1,0-0.2,0s-0.1,0-0.2,0c-0.5,0-0.9,0.2-1.2,0.5s-0.4,0.7-0.4,1.2v3.6h-1.1L466.8,390.2L466.8,390.2z"/>
	<path class="st12" d="M474.1,392.7c0.2,0,0.4-0.1,0.5-0.3c0-0.1,0.1-0.2,0.1-0.4c0-0.4-0.1-0.6-0.4-0.8s-0.6-0.2-1.1-0.2
		c-0.5,0-0.9,0.1-1.2,0.4c-0.1,0.2-0.2,0.4-0.3,0.7h-1c0-0.8,0.3-1.3,0.8-1.6c0.5-0.3,1-0.5,1.7-0.5c0.7,0,1.3,0.1,1.8,0.4
		c0.5,0.3,0.7,0.7,0.7,1.3v3.6c0,0.1,0,0.2,0.1,0.3s0.1,0.1,0.3,0.1c0,0,0.1,0,0.2,0s0.1,0,0.2,0v0.8c-0.2,0-0.3,0.1-0.4,0.1
		s-0.2,0-0.4,0c-0.4,0-0.6-0.1-0.8-0.4c-0.1-0.1-0.1-0.3-0.2-0.6c-0.2,0.3-0.5,0.5-0.9,0.7s-0.8,0.3-1.3,0.3c-0.6,0-1.1-0.2-1.4-0.5
		c-0.4-0.4-0.6-0.8-0.6-1.3c0-0.6,0.2-1,0.5-1.4c0.4-0.3,0.8-0.5,1.4-0.6L474.1,392.7L474.1,392.7z M471.9,395.5
		c0.2,0.2,0.5,0.3,0.8,0.3c0.4,0,0.7-0.1,1.1-0.3c0.6-0.3,0.9-0.8,0.9-1.4v-0.8c-0.1,0.1-0.3,0.2-0.5,0.2c-0.2,0.1-0.4,0.1-0.6,0.1
		l-0.6,0.1c-0.4,0.1-0.7,0.1-0.9,0.2c-0.3,0.2-0.5,0.5-0.5,0.9C471.6,395.1,471.7,395.4,471.9,395.5L471.9,395.5z"/>
	<path class="st12" d="M480.9,390.5c0.2,0.1,0.4,0.3,0.6,0.6v-0.8h1v5.7c0,0.8-0.1,1.4-0.4,1.9c-0.4,0.9-1.3,1.3-2.5,1.3
		c-0.7,0-1.2-0.2-1.7-0.5c-0.5-0.3-0.7-0.8-0.8-1.4h1.1c0.1,0.3,0.2,0.5,0.3,0.6c0.2,0.2,0.6,0.4,1.1,0.4c0.8,0,1.3-0.3,1.6-0.9
		c0.1-0.3,0.2-0.9,0.2-1.8c-0.2,0.3-0.5,0.6-0.8,0.7c-0.3,0.2-0.7,0.2-1.2,0.2c-0.7,0-1.3-0.2-1.8-0.7s-0.8-1.3-0.8-2.4
		c0-1.1,0.3-1.9,0.8-2.5s1.1-0.9,1.9-0.9C480.1,390.1,480.5,390.2,480.9,390.5L480.9,390.5z M481,391.6c-0.3-0.4-0.7-0.6-1.2-0.6
		c-0.7,0-1.2,0.3-1.5,1c-0.1,0.4-0.2,0.9-0.2,1.5c0,0.7,0.1,1.2,0.4,1.6c0.3,0.4,0.7,0.6,1.2,0.6c0.8,0,1.3-0.3,1.6-1
		c0.2-0.4,0.3-0.8,0.3-1.4C481.5,392.6,481.4,392,481,391.6L481,391.6z"/>
	<path class="st12" d="M488,390.4c0.4,0.2,0.7,0.5,0.9,0.8c0.2,0.3,0.4,0.7,0.4,1.1c0.1,0.3,0.1,0.8,0.1,1.4h-4.6
		c0,0.6,0.2,1.1,0.4,1.5c0.3,0.4,0.7,0.6,1.3,0.6c0.5,0,1-0.2,1.3-0.5c0.2-0.2,0.3-0.5,0.4-0.7h1c0,0.2-0.1,0.5-0.3,0.8
		s-0.3,0.5-0.5,0.7c-0.3,0.3-0.7,0.5-1.2,0.6c-0.3,0.1-0.5,0.1-0.9,0.1c-0.8,0-1.4-0.3-2-0.9s-0.8-1.4-0.8-2.4c0-1,0.3-1.8,0.8-2.5
		s1.3-0.9,2.1-0.9C487.1,390.1,487.6,390.2,488,390.4L488,390.4z M488.4,392.9c0-0.5-0.1-0.8-0.3-1.1c-0.3-0.5-0.8-0.8-1.4-0.8
		c-0.5,0-0.9,0.2-1.2,0.5s-0.5,0.8-0.5,1.3L488.4,392.9L488.4,392.9z"/>
	<path class="st12" d="M393.3,874.6v5.3c0,0.6,0.1,1.1,0.4,1.6c0.4,0.6,0.9,0.9,1.8,0.9c1,0,1.7-0.3,2-1c0.2-0.4,0.3-0.9,0.3-1.5
		v-5.3h1.2v4.8c0,1.1-0.1,1.9-0.4,2.4c-0.5,1-1.5,1.6-3,1.6s-2.4-0.5-3-1.6c-0.3-0.6-0.4-1.4-0.4-2.4v-4.8L393.3,874.6L393.3,874.6z
		"/>
	<path class="st12" d="M400.7,875.2h1.1v1.8h1v0.9h-1v4.1c0,0.2,0.1,0.4,0.2,0.4c0.1,0,0.2,0.1,0.4,0.1c0.1,0,0.1,0,0.2,0
		s0.1,0,0.2,0v0.8c-0.1,0-0.2,0.1-0.4,0.1s-0.3,0-0.4,0c-0.5,0-0.8-0.1-1-0.4s-0.3-0.6-0.3-1v-4.2h-0.9v-0.9h0.9L400.7,875.2
		L400.7,875.2z"/>
	<path class="st12" d="M403.9,874.6h1.1v1.2h-1.1V874.6z M403.9,877h1.1v6.2h-1.1V877z"/>
	<path class="st12" d="M406.5,874.6h1.1v8.6h-1.1V874.6z"/>
	<path class="st12" d="M409.2,874.6h1.1v1.2h-1.1V874.6z M409.2,877h1.1v6.2h-1.1V877z"/>
	<path class="st12" d="M412.1,875.2h1.1v1.8h1v0.9h-1v4.1c0,0.2,0.1,0.4,0.2,0.4c0.1,0,0.2,0.1,0.4,0.1c0.1,0,0.1,0,0.2,0
		s0.1,0,0.2,0v0.8c-0.1,0-0.2,0.1-0.4,0.1s-0.3,0-0.4,0c-0.5,0-0.8-0.1-1-0.4s-0.3-0.6-0.3-1v-4.2h-0.9v-0.9h0.9L412.1,875.2
		L412.1,875.2z"/>
	<path class="st12" d="M419.1,876.9h1.2c-0.1,0.4-0.5,1.3-1,2.8c-0.4,1.1-0.7,2-1,2.6c-0.6,1.6-1,2.6-1.3,2.9
		c-0.2,0.4-0.7,0.5-1.3,0.5c-0.1,0-0.3,0-0.3,0c-0.1,0-0.2,0-0.3-0.1v-1c0.2,0.1,0.3,0.1,0.4,0.1s0.2,0,0.2,0c0.2,0,0.3,0,0.4-0.1
		s0.2-0.1,0.2-0.2c0,0,0.1-0.2,0.2-0.5c0.1-0.3,0.2-0.5,0.3-0.6l-2.3-6.5h1.2l1.7,5.1L419.1,876.9L419.1,876.9z"/>
	<circle class="st13" cx="420.3" cy="650.5" r="11.5"/>
	<g id="Outline_Icons-5-3-2">
		<path class="st14" d="M424.2,651.5h-2.6v-5c0-0.7,0.5-1.2,1.2-1.2h1c0.7,0,1.2,0.5,1.2,1.2v0.1l-0.3,4.2
			C424.7,650.9,424.5,651.5,424.2,651.5L424.2,651.5z M422.2,650.9h1.9c0,0,0-0.1,0-0.1v0l0.3-4.2v-0.1c0-0.3-0.3-0.6-0.6-0.6h-1
			c-0.3,0-0.6,0.3-0.6,0.6L422.2,650.9L422.2,650.9z"/>
		<path class="st14" d="M423.1,655.8h-5l0.3-2.1c-0.6-0.1-1.1-0.4-1.4-0.8c-0.4-0.5-0.6-1.1-0.5-1.7l0-0.3h8v1.4l-1.3,0.9
			L423.1,655.8L423.1,655.8z M418.7,655.2h3.7v-2.4l1.3-0.9v-0.4H417c0,0.4,0.2,0.7,0.4,1c0.3,0.4,0.7,0.6,1.1,0.6h0.5L418.7,655.2
			L418.7,655.2z"/>
		<path class="st14" d="M422.3,651.6H416v-1.5h6.3V651.6z M416.6,651h5.1v-0.3h-5.1V651z"/>
		<path class="st14" d="M423.4,647.8c-0.4,0-0.7-0.3-0.7-0.7s0.3-0.7,0.7-0.7s0.7,0.3,0.7,0.7S423.8,647.8,423.4,647.8z M423.4,647
			C423.3,647,423.3,647,423.4,647C423.3,647.2,423.5,647.2,423.4,647C423.5,647,423.4,647,423.4,647L423.4,647z"/>
	</g>
	<g>
		<path class="st12" d="M412.2,669.1v-4.4h-1.7v-0.6h4v0.6h-1.7v4.4H412.2L412.2,669.1z"/>
	</g>
	<g>
		<path class="st12" d="M414.2,667.3c0-0.7,0.2-1.2,0.6-1.5c0.3-0.3,0.7-0.4,1.1-0.4c0.5,0,0.9,0.2,1.2,0.5s0.5,0.8,0.5,1.4
			c0,0.5-0.1,0.8-0.2,1.1s-0.3,0.5-0.6,0.6c-0.3,0.1-0.6,0.2-0.9,0.2c-0.5,0-0.9-0.2-1.2-0.5C414.3,668.4,414.2,667.9,414.2,667.3
			L414.2,667.3z M414.8,667.3c0,0.5,0.1,0.8,0.3,1s0.5,0.3,0.8,0.3s0.6-0.1,0.8-0.3s0.3-0.6,0.3-1.1c0-0.4-0.1-0.8-0.3-1
			c-0.2-0.2-0.5-0.3-0.8-0.3s-0.6,0.1-0.8,0.3S414.8,666.8,414.8,667.3z"/>
		<path class="st12" d="M418.3,664.8v-0.7h0.6v0.7H418.3z M418.3,669.1v-3.6h0.6v3.6H418.3z"/>
		<path class="st12" d="M419.8,669.1v-5h0.6v5H419.8z"/>
		<path class="st12" d="M423.9,667.9l0.6,0.1c-0.1,0.4-0.3,0.7-0.6,0.9s-0.6,0.3-1,0.3c-0.5,0-1-0.2-1.3-0.5s-0.5-0.8-0.5-1.4
			s0.2-1.1,0.5-1.4s0.7-0.5,1.2-0.5s0.9,0.2,1.2,0.5c0.3,0.3,0.5,0.8,0.5,1.4v0.2h-2.7c0,0.4,0.1,0.7,0.3,0.9s0.5,0.3,0.8,0.3
			c0.2,0,0.4-0.1,0.6-0.2S423.8,668.2,423.9,667.9z M421.9,666.9h2c0-0.3-0.1-0.5-0.2-0.7c-0.2-0.2-0.5-0.4-0.8-0.4
			s-0.5,0.1-0.7,0.3C422,666.4,421.9,666.6,421.9,666.9L421.9,666.9z"/>
		<path class="st12" d="M426.6,668.6l0.1,0.5c-0.2,0-0.3,0.1-0.5,0.1s-0.4,0-0.5-0.1l-0.3-0.3c-0.1-0.1-0.1-0.4-0.1-0.7V666h-0.5
			v-0.5h0.5v-0.9l0.6-0.4v1.3h0.6v0.5h-0.6v2.4l0.1,0.1h0.2C426.4,668.6,426.5,668.6,426.6,668.6L426.6,668.6z"/>
		<path class="st12" d="M427,668l0.6-0.1c0,0.2,0.1,0.4,0.3,0.6c0.2,0.1,0.4,0.2,0.7,0.2s0.5-0.1,0.6-0.2s0.2-0.2,0.2-0.4
			c0-0.1-0.1-0.2-0.2-0.3s-0.3-0.1-0.6-0.2c-0.5-0.1-0.8-0.2-0.9-0.3c-0.2-0.1-0.3-0.2-0.4-0.3s-0.1-0.3-0.1-0.5s0-0.3,0.1-0.4
			s0.2-0.3,0.3-0.3c0.1-0.1,0.2-0.1,0.4-0.2c0.2,0,0.3-0.1,0.5-0.1c0.3,0,0.5,0,0.8,0.1c0.2,0.1,0.4,0.2,0.5,0.3s0.2,0.3,0.2,0.6
			l-0.6,0.1c0-0.2-0.1-0.3-0.2-0.4s-0.3-0.2-0.6-0.2s-0.5,0-0.6,0.1s-0.2,0.2-0.2,0.3s0,0.2,0.1,0.2l0.2,0.2c0.1,0,0.2,0.1,0.5,0.2
			c0.4,0.1,0.7,0.2,0.9,0.3c0.2,0.1,0.3,0.2,0.4,0.3s0.1,0.3,0.1,0.5s-0.1,0.4-0.2,0.6s-0.3,0.3-0.5,0.4s-0.5,0.1-0.8,0.1
			c-0.5,0-0.8-0.1-1.1-0.3C427.2,668.7,427.1,668.4,427,668L427,668z"/>
	</g>
	<circle class="st13" cx="403.7" cy="762.5" r="11.8"/>
	<path class="st14" d="M409.2,768.6h-10.5c-0.4,0-0.7-0.3-0.7-0.7v-10.5c0-0.4,0.3-0.7,0.7-0.7h10.5c0.4,0,0.7,0.3,0.7,0.7v10.5
		C409.9,768.3,409.6,768.6,409.2,768.6z M398.7,757.3C398.6,757.3,398.6,757.3,398.7,757.3l-0.1,10.6c0,0.1,0,0.1,0.1,0.1h10.5
		c0.1,0,0.1,0,0.1-0.1v-10.5c0-0.1,0-0.1-0.1-0.1H398.7z"/>
	<path class="st14" d="M403.8,768.5h-3.5v-9.2h3.5V768.5z M400.9,767.9h2.3v-8h-2.3V767.9z"/>
	<path class="st14" d="M406.7,768.5h-3.5v-9.2h3.5V768.5z M403.8,767.9h2.3v-8h-2.3V767.9z"/>
	<rect x="402.9" y="758" class="st14" width="2.1" height="0.6"/>
	<polygon class="st14" points="408.4,763 408.1,762.7 407.7,763 407.4,762.7 408.1,762.2 408.7,762.7 	"/>
	<polygon class="st14" points="408.1,764.4 407.4,763.8 407.7,763.5 408.1,763.9 408.4,763.5 408.7,763.8 	"/>
	<g>
		<path class="st12" d="M392,781.6v-5h3.6v0.6h-3v1.5h2.8v0.6h-2.7v1.7h3.1v0.6L392,781.6L392,781.6z"/>
		<path class="st12" d="M396.6,781.6v-5h0.6v5H396.6z"/>
		<path class="st12" d="M400.6,780.5l0.6,0.1c-0.1,0.4-0.3,0.7-0.6,0.9s-0.6,0.3-1,0.3c-0.5,0-1-0.2-1.3-0.5s-0.5-0.8-0.5-1.4
			s0.2-1.1,0.5-1.4s0.7-0.5,1.2-0.5s0.9,0.2,1.2,0.5c0.3,0.3,0.5,0.8,0.5,1.4v0.2h-2.7c0,0.4,0.1,0.7,0.3,0.9s0.5,0.3,0.8,0.3
			c0.2,0,0.4-0.1,0.6-0.2S400.5,780.7,400.6,780.5z M398.6,779.5h2c0-0.3-0.1-0.5-0.2-0.7c-0.2-0.2-0.5-0.4-0.8-0.4
			s-0.5,0.1-0.7,0.3S398.6,779.1,398.6,779.5L398.6,779.5z"/>
		<path class="st12" d="M403.1,781.6l-1.4-3.6h0.6l0.8,2.2c0.1,0.2,0.2,0.5,0.2,0.7c0.1-0.2,0.1-0.4,0.2-0.7l0.8-2.2h0.6l-1.4,3.6
			H403.1L403.1,781.6z"/>
		<path class="st12" d="M407.9,781.2c-0.2,0.2-0.4,0.3-0.7,0.4c-0.2,0.1-0.4,0.1-0.7,0.1c-0.4,0-0.7-0.1-0.9-0.3s-0.3-0.4-0.3-0.7
			c0-0.2,0-0.3,0.1-0.5c0.1-0.1,0.2-0.3,0.3-0.4c0.1-0.1,0.3-0.2,0.4-0.2s0.3-0.1,0.5-0.1c0.5-0.1,0.9-0.1,1.1-0.2v-0.2
			c0-0.2-0.1-0.4-0.2-0.5c-0.2-0.1-0.4-0.2-0.7-0.2s-0.5,0.1-0.6,0.2s-0.2,0.3-0.3,0.5l-0.6-0.1c0.1-0.3,0.1-0.5,0.3-0.6
			s0.3-0.3,0.5-0.4s0.5-0.1,0.8-0.1s0.6,0,0.8,0.1s0.3,0.2,0.4,0.3s0.2,0.2,0.2,0.4v2.5c0,0.2,0.1,0.3,0.2,0.4h-0.6
			C408,781.5,407.9,781.4,407.9,781.2L407.9,781.2z M407.9,779.8c-0.2,0.1-0.6,0.2-1,0.2c-0.3,0-0.4,0.1-0.5,0.1s-0.2,0.1-0.2,0.2
			s-0.1,0.2-0.1,0.3c0,0.2,0.1,0.3,0.2,0.4s0.3,0.2,0.5,0.2s0.4-0.1,0.6-0.2s0.3-0.2,0.4-0.4c0.1-0.1,0.1-0.3,0.1-0.6V779.8z"/>
		<path class="st12" d="M410.8,781.1l0.1,0.5c-0.2,0-0.3,0.1-0.5,0.1s-0.4,0-0.5-0.1l-0.3-0.3c-0.1-0.1-0.1-0.4-0.1-0.7v-2.1H409
			V778h0.5v-0.9l0.6-0.4v1.3h0.6v0.5h-0.6v2.4l0.1,0.1h0.2C410.6,781.1,410.7,781.1,410.8,781.1L410.8,781.1z"/>
		<path class="st12" d="M411.2,779.8c0-0.7,0.2-1.2,0.6-1.5c0.3-0.3,0.7-0.4,1.1-0.4c0.5,0,0.9,0.2,1.2,0.5s0.5,0.8,0.5,1.4
			c0,0.5-0.1,0.8-0.2,1.1s-0.3,0.5-0.6,0.6c-0.3,0.1-0.6,0.2-0.9,0.2c-0.5,0-0.9-0.2-1.2-0.5C411.3,780.9,411.2,780.4,411.2,779.8
			L411.2,779.8z M411.8,779.8c0,0.5,0.1,0.8,0.3,1s0.5,0.3,0.8,0.3s0.6-0.1,0.8-0.3s0.3-0.6,0.3-1.1c0-0.4-0.1-0.8-0.3-1
			c-0.2-0.2-0.5-0.3-0.8-0.3s-0.6,0.1-0.8,0.3S411.8,779.3,411.8,779.8z"/>
		<path class="st12" d="M415.3,781.6V778h0.6v0.5c0.1-0.3,0.3-0.4,0.4-0.5s0.3-0.1,0.4-0.1c0.2,0,0.4,0.1,0.6,0.2l-0.2,0.6
			c-0.2-0.1-0.3-0.1-0.5-0.1c-0.1,0-0.3,0-0.4,0.1s-0.2,0.2-0.2,0.3c-0.1,0.2-0.1,0.5-0.1,0.7v1.9L415.3,781.6L415.3,781.6z"/>
	</g>
	<circle class="st13" cx="176" cy="819.4" r="11.3"/>
	<path class="st12" d="M168.4,837.8l0.5-0.1c0,0.2,0.1,0.4,0.2,0.5c0.1,0.2,0.2,0.3,0.4,0.4c0.2,0.1,0.4,0.1,0.7,0.1
		c0.2,0,0.4-0.1,0.6-0.1c0.2-0.1,0.3-0.1,0.4-0.3c0.2-0.2,0.2-0.5,0-0.7c-0.1-0.1-0.3-0.2-0.4-0.2c-0.2-0.1-0.5-0.2-0.8-0.2
		c-0.3-0.1-0.6-0.2-0.9-0.3c-0.2-0.1-0.4-0.3-0.5-0.4c-0.1-0.2-0.2-0.4-0.2-0.5c0-0.2,0.1-0.4,0.2-0.6s0.3-0.3,0.5-0.4
		c0.3-0.1,0.6-0.2,0.9-0.2s0.6,0.1,0.9,0.2c0.2,0.1,0.5,0.3,0.6,0.5s0.2,0.5,0.2,0.7l-0.5,0.1c0-0.3-0.1-0.5-0.3-0.7
		s-0.5-0.3-0.8-0.2c-0.3,0-0.5,0.1-0.8,0.2c-0.3,0.2-0.3,0.6-0.1,0.8c0,0,0,0.1,0.1,0.1c0.3,0.2,0.6,0.3,0.9,0.3
		c0.3,0.1,0.7,0.2,1,0.3c0.2,0.1,0.5,0.3,0.6,0.5c0.4,0.6,0.2,1.3-0.4,1.7c-0.1,0-0.2,0.1-0.2,0.1c-0.3,0.1-0.6,0.2-0.9,0.2
		c-0.4,0-0.7-0.1-1-0.2s-0.5-0.3-0.7-0.5C168.5,838.4,168.4,838.1,168.4,837.8L168.4,837.8z"/>
	<path class="st12" d="M174,838.8l0.1,0.5c-0.1,0.1-0.3,0.1-0.4,0.1c-0.2,0-0.3,0-0.5-0.1c-0.1,0-0.2-0.1-0.2-0.2
		c-0.1-0.2-0.1-0.4-0.1-0.7v-1.9h-0.4v-0.4h0.4v-0.8l0.5-0.3v1.2h0.5v0.4h-0.5v2.2c0,0.1,0.1,0.1,0.1,0.1c0.1,0,0.1,0.1,0.2,0.1
		C173.7,838.8,173.9,838.8,174,838.8L174,838.8z"/>
	<path class="st12" d="M176.6,838.9c-0.2,0.2-0.4,0.3-0.6,0.4s-0.4,0.1-0.6,0.1c-0.3,0-0.6-0.1-0.9-0.2c-0.2-0.2-0.3-0.4-0.3-0.7
		c0-0.2,0-0.3,0.1-0.4l0.3-0.3c0.1-0.1,0.3-0.1,0.4-0.2c0.2-0.1,0.3-0.1,0.5-0.1c0.3-0.1,0.7-0.1,1-0.2v-0.1c0-0.2-0.1-0.4-0.2-0.5
		c-0.2-0.1-0.4-0.2-0.6-0.2s-0.4,0-0.5,0.1s-0.2,0.3-0.3,0.5l-0.5-0.1c0.1-0.2,0.1-0.4,0.2-0.5c0.1-0.2,0.3-0.3,0.5-0.3
		c0.2-0.1,0.5-0.1,0.7-0.1s0.5,0,0.7,0.1c0.1,0.1,0.3,0.1,0.4,0.2l0.2,0.4c0,0.2,0.1,0.4,0,0.5v0.7c0,0.3,0,0.7,0.1,1
		c0,0.1,0.1,0.3,0.1,0.4h-0.5C176.7,839.2,176.7,839,176.6,838.9L176.6,838.9z M176.6,837.6c-0.3,0.1-0.6,0.2-0.9,0.2
		c-0.2,0-0.3,0.1-0.5,0.1c-0.1,0.1-0.2,0.1-0.2,0.2c-0.1,0.2-0.1,0.5,0.1,0.6c0.1,0.1,0.3,0.2,0.5,0.1c0.2,0,0.4-0.1,0.5-0.1
		c0.2-0.1,0.3-0.2,0.4-0.4c0.1-0.2,0.1-0.4,0.1-0.5L176.6,837.6L176.6,837.6z"/>
	<path class="st12" d="M178,835.4v-0.6h0.5v0.6H178z M178,839.2v-3.3h0.5v3.3H178z"/>
	<path class="st12" d="M179.4,839.2v-3.3h0.5v0.5c0.1-0.2,0.2-0.4,0.4-0.5c0.1-0.1,0.2-0.1,0.4-0.1s0.4,0.1,0.5,0.2l-0.2,0.5
		c-0.1-0.1-0.3-0.1-0.4-0.1s-0.2,0-0.3,0.1s-0.2,0.2-0.2,0.3c-0.1,0.2-0.1,0.4-0.1,0.7v1.7L179.4,839.2L179.4,839.2z"/>
	<path class="st12" d="M181.3,838.3l0.5-0.1c0,0.2,0.1,0.4,0.2,0.5c0.2,0.1,0.4,0.2,0.6,0.2s0.4-0.1,0.5-0.2s0.2-0.2,0.2-0.4
		c0-0.1-0.1-0.2-0.2-0.3l-0.5-0.2c-0.3-0.1-0.5-0.2-0.9-0.2c-0.3-0.1-0.5-0.4-0.5-0.7c0-0.1,0.1-0.3,0.1-0.4
		c0.1-0.1,0.1-0.2,0.2-0.3l0.4-0.2c0.2-0.1,0.3-0.1,0.5-0.1s0.5,0,0.7,0.1s0.3,0.2,0.4,0.3c0.1,0.1,0.2,0.3,0.2,0.5l-0.5,0.1
		c0-0.2-0.1-0.3-0.2-0.4s-0.3-0.2-0.5-0.1c-0.2,0-0.4,0-0.5,0.1s-0.2,0.2-0.2,0.3s0,0.1,0.1,0.2s0.1,0.1,0.2,0.1s0.2,0.1,0.5,0.1
		c0.3,0.1,0.5,0.2,0.8,0.2c0.1,0.1,0.3,0.2,0.4,0.3c0.1,0.1,0.1,0.3,0.1,0.5s-0.1,0.4-0.2,0.5c-0.1,0.2-0.3,0.3-0.5,0.4
		s-0.4,0.1-0.7,0.1s-0.7-0.1-1-0.2C181.5,838.8,181.4,838.5,181.3,838.3L181.3,838.3z"/>
	<g id="Outline_Icons-2-2-4-2-2-2-3">
		<rect x="171.6" y="822.9" class="st14" width="8" height="0.6"/>
		<polygon class="st14" points="178.5,823.2 177.9,823.2 177.9,822.1 176.5,822.1 176.5,820.7 175.1,820.7 175.1,819.3 173.7,819.3 
			173.7,817.9 171.6,817.9 171.6,817.3 174.3,817.3 174.3,818.7 175.7,818.7 175.7,820.1 177.1,820.1 177.1,821.5 178.5,821.5 		"/>
		
			<rect x="177.6" y="814.4" transform="matrix(0.6988 -0.7153 0.7153 0.6988 -531.1115 373.4958)" class="st14" width="0.6" height="6"/>
		<polygon class="st14" points="176.1,817 175.5,817 175.5,815 177.5,815 177.5,815.6 176.1,815.6 		"/>
		<polygon class="st14" points="180.4,819.8 178.4,819.8 178.4,819.2 179.8,819.2 179.8,817.9 180.4,817.9 		"/>
	</g>
</g>
<g id="Stroke">
	<polygon class="st15" points="644.9,66.3 84.7,66.3 84.7,964.2 428.1,964.2 	"/>
	<line class="st16" x1="221.1" y1="325.5" x2="84.7" y2="325.5"/>
	<line class="st16" x1="410.8" y1="280.1" x2="410.8" y2="66.3"/>
	<polyline class="st16" points="84.7,454.1 221.1,454.1 212.8,454.1 212.8,370.5 	"/>
	<polyline class="st16" points="360.3,364.1 360.3,325.5 581.6,325.5 410.1,325.5 410.1,316.9 	"/>
	<polyline class="st16" points="360.3,417.8 360.3,500.3 360.3,454.1 551.3,454.1 	"/>
	<polyline class="st16" points="360.3,544.1 360.3,629 360.3,583.4 519.3,583.4 422.4,583.4 422.4,635.3 	"/>
	<polyline class="st16" points="360.3,672.8 360.3,759.9 360.3,712 490.1,712 423.1,712 423.1,675.1 	"/>
	<polyline class="st16" points="84.7,711.4 223,711.4 210.4,711.4 210.4,727.7 	"/>
	<line class="st16" x1="209.8" y1="768.1" x2="209.8" y2="964.2"/>
	<line class="st16" x1="360.3" y1="964.2" x2="360.3" y2="935.7"/>
	<polyline class="st16" points="360.3,895.3 360.3,799.1 360.3,817.5 463.3,817.5 449.9,817.5 449.9,712 	"/>
</g>
</svg>
