<?xml version="1.0" encoding="UTF-8"?>
<svg xmlns="http://www.w3.org/2000/svg" viewBox="0 0 1225.686 863.807">
  <defs>
    <style>
      .cls-1 {
        stroke: #efeff0;
        stroke-width: 3px;
      }

      .cls-1, .cls-2, .cls-3, .cls-4, .cls-5 {
        fill: none;
        stroke-miterlimit: 10;
      }

      .cls-6 {
        letter-spacing: -.018em;
      }

      .cls-7 {
        fill: #eaf1f1;
      }

      .cls-8, .cls-9 {
        fill: #fff;
      }

      .cls-10 {
        fill: #b8bfc1;
      }

      .cls-11 {
        fill: #8eccce;
      }

      .cls-12 {
        fill: #a8e0e5;
      }

      .cls-13 {
        fill: #4095b0;
      }

      .cls-14 {
        fill: #9baeb7;
      }

      .cls-15 {
        fill: #596068;
      }

      .cls-16, .cls-17 {
        fill: #767e7f;
      }

      .cls-18 {
        fill: #7a8e93;
      }

      .cls-9 {
        font-family: Helvetica-Bold, Helvetica;
        font-size: 13px;
        font-weight: 700;
      }

      .cls-19 {
        fill: #99b8bf;
        opacity: .7;
      }

      .cls-19, .cls-20, .cls-21, .cls-22 {
        isolation: isolate;
      }

      .cls-20 {
        fill: #575757;
        opacity: .74;
      }

      .cls-23 {
        letter-spacing: -.074em;
      }

      .cls-24 {
        letter-spacing: -.074em;
      }

      .cls-2 {
        stroke-width: .232px;
      }

      .cls-2, .cls-4, .cls-5 {
        stroke: #7a8d92;
      }

      .cls-3 {
        stroke: #ededed;
        stroke-width: 8px;
      }

      .cls-21 {
        opacity: .05;
      }

      .cls-21, .cls-22 {
        fill: #030303;
      }

      .cls-17 {
        font-family: Helvetica, Helvetica;
        font-size: 6.482px;
      }

      .cls-22 {
        opacity: .1;
      }

      .cls-4 {
        stroke-width: .34px;
      }

      .cls-5 {
        stroke-width: .337px;
      }
    </style>
  </defs>
  <g id="Shadow">
    <polygon class="cls-13" points="394.764 190.292 84.754 235.221 109.016 382.588 61.391 524.564 788.342 786.05 1012.987 857.038 1093.859 626.103 1074.989 619.813 1155.861 343.05 1039.046 312.499 962.667 337.659 949.188 373.602 797.328 319.687 772.168 379.892 392.069 237.917 396.561 224.438 394.764 190.292"/>
    <polygon class="cls-13" points="1098.673 600.542 1093.859 626.103 1078.696 627.1 1098.673 600.542"/>
    <polygon class="cls-13" points="56.106 503.708 61.391 524.564 116.529 512.867 56.106 503.708"/>
    <polygon class="cls-13" points="1160.103 318.001 1155.861 343.05 1133.562 343.05 1160.103 318.001"/>
  </g>
  <g id="BG">
    <polygon class="cls-12" points="394.764 167.875 84.754 212.804 109.016 360.171 61.391 502.147 788.342 763.633 1012.987 834.621 1093.859 603.686 1074.989 597.396 1155.861 320.634 1039.046 290.082 962.667 315.242 949.188 351.185 797.328 297.271 772.168 357.475 392.069 215.5 396.561 202.021 394.764 167.875"/>
  </g>
  <g id="highlights">
    <polygon class="cls-11" points="240.088 187.991 258.336 322.126 328.371 348.96 284.23 468.167 247.695 569.161 62.293 499.458 109.016 360.171 84.754 212.804 240.088 187.991"/>
    <polygon class="cls-11" points="394.764 167.875 240.088 187.991 258.336 322.126 328.371 348.96 359.334 266.029 381.927 273.763 401.254 218.931 390.963 213.999 395.31 200.652 394.764 167.875"/>
    <polygon class="cls-11" points="797.328 297.271 762.945 383.2 923.656 440.402 984.511 462.867 1022.261 357.475 1068.023 371.76 1050.881 431.904 1117.463 452.041 1153.978 320.141 1039.046 290.082 961.636 316.384 946.576 351.524 797.328 297.271"/>
    <polygon class="cls-11" points="1079.936 580.467 898.596 520.38 877.349 576.597 1078.696 646.987 1093.859 603.686 1075.728 598.419 1079.936 580.467"/>
    <polygon class="cls-11" points="951.237 687.487 862.095 655.046 820.439 773.776 1012.987 834.621 1078.696 646.987 978.775 612.338 951.237 687.487"/>
    <polygon class="cls-11" points="718.818 521.574 978.775 612.338 951.237 687.487 862.095 655.046 820.439 773.776 648.538 713.345 703.116 566.394 680.138 556.44 691.579 523.753 713.763 530.696 718.818 521.574"/>
    <polygon class="cls-19" points="1036.97 480.716 984.511 462.867 1022.261 357.475 1068.023 371.76 1036.97 480.716"/>
    <polygon class="cls-19" points="328.371 348.96 258.336 322.126 240.088 187.991 84.754 212.804 109.016 360.171 135.829 372.111 125.043 408.962 284.23 468.167 328.371 348.96"/>
  </g>
  <g id="Furn">
    <g>
      <path class="cls-21" d="M978.981,747.159l-9.469,25.38c-.334,.895-1.33,1.349-2.224,1.016h0s-69.126-24.761-69.126-24.761c-.895-.334-1.349-1.33-1.016-2.224h0l9.469-25.38c.334-.895,1.33-1.349,2.224-1.016h0s69.126,24.761,69.126,24.761c.895,.334,1.349,1.33,1.016,2.224h0Z"/>
      <path class="cls-10" d="M980.421,747.696l-9.469,25.38c-.334,.895-1.33,1.349-2.224,1.016h0s-69.126-24.761-69.126-24.761c-.895-.334-1.349-1.33-1.016-2.224h0l9.469-25.38c.334-.895,1.33-1.349,2.224-1.016h0s69.126,24.761,69.126,24.761c.895,.334,1.349,1.33,1.016,2.224h0Z"/>
      <path class="cls-8" d="M982.041,748.301l-9.469,25.38c-.334,.895-1.33,1.349-2.224,1.016h0s-69.126-24.761-69.126-24.761c-.895-.334-1.349-1.33-1.016-2.224h0l9.469-25.38c.334-.895,1.33-1.349,2.224-1.016h0s69.126,24.761,69.126,24.761c.895,.334,1.349,1.33,1.016,2.224h0Z"/>
      <path class="cls-22" d="M966.541,732.86l-8.949-3.042h0c-2.431-.882-3.686-3.568-2.804-5.999h0s3.818-10.233,3.818-10.233c1.433-3.954,5.771-6.031,9.75-4.667h0l6.249,2.331c3.905,1.457,3,4.678,1.543,8.584l-3.788,10.154c-.61,2.299-2.969,3.668-5.268,3.058-.187-.049-.37-.112-.549-.186h0Z"/>
      <path class="cls-15" d="M967.322,733.151l-8.949-3.042h0c-2.431-.882-3.686-3.568-2.804-5.999h0s3.818-10.233,3.818-10.233c1.433-3.954,5.771-6.031,9.75-4.667h0l3.385,1.263h0c3.954,1.433,6.031,5.771,4.667,9.749l-3.788,10.154c-.767,2.378-3.316,3.684-5.694,2.918h0c-.129-.048-.256-.096-.383-.143h0Z"/>
      <path class="cls-14" d="M967.745,733.606l-8.755-3.563h0c-2.301-.858-3.47-3.419-2.612-5.72l.097-.26h0l4.049-10.057h0c1.576-3.899,5.986-5.817,9.913-4.31h0l3.288,1.523h0c3.9,1.576,5.817,5.986,4.31,9.913h0l-4.049,10.057h0c-1.183,2.253-3.849,3.285-6.241,2.417h0Z"/>
      <path class="cls-22" d="M960.07,714.429c1.433-3.954,5.771-6.031,9.75-4.667h0l3.385,1.263h0c3.954,1.433,6.031,5.771,4.667,9.749h0c-5.071-4.022-11.33-6.253-17.801-6.345"/>
      <path class="cls-18" d="M960.07,714.429h0c1.433-3.954,5.771-6.031,9.75-4.667h0l3.385,1.263h0c3.954,1.433,6.031,5.771,4.667,9.749h0c-5.071-4.022-11.33-6.253-17.801-6.345"/>
      <g>
        <path class="cls-22" d="M978.665,766.248l3.042-8.949h0c.882-2.431,3.568-3.686,5.999-2.804h0s10.232,3.818,10.232,3.818c3.954,1.433,6.031,5.771,4.667,9.75h0l-2.331,6.249c-1.457,3.905-4.678,3-8.584,1.543l-10.154-3.788c-2.356-.719-3.683-3.212-2.964-5.568,0-.002,.001-.005,.002-.007l.09-.242h0Z"/>
        <path class="cls-15" d="M978.374,767.029l3.042-8.949h0c.882-2.431,3.568-3.686,5.999-2.804h0s10.232,3.818,10.232,3.818c3.954,1.433,6.031,5.771,4.667,9.75h0l-1.263,3.385h0c-1.433,3.954-5.771,6.031-9.749,4.667l-10.154-3.788c-2.431-.882-3.686-3.568-2.804-5.999h0c.01-.026,.019-.052,.029-.078h0Z"/>
        <path class="cls-14" d="M978.016,767.192l3.563-8.755h0c.858-2.301,3.419-3.47,5.72-2.612l.26,.097h0l10.057,4.049h0c3.899,1.576,5.817,5.986,4.31,9.913h0l-1.523,3.288h0c-1.576,3.9-5.986,5.817-9.913,4.31h0l-10.057-4.049h0c-2.382-1.039-3.472-3.811-2.435-6.194l.017-.047h0Z"/>
        <path class="cls-22" d="M997.974,759.808c3.954,1.433,6.031,5.771,4.667,9.75h0l-1.263,3.385h0c-1.433,3.954-5.771,6.031-9.749,4.667h0c4.02-5.072,6.251-11.33,6.345-17.801"/>
        <path class="cls-18" d="M997.974,759.808h0c3.954,1.433,6.031,5.771,4.667,9.75h0l-1.263,3.385h0c-1.433,3.954-5.771,6.031-9.749,4.667h0c4.02-5.072,6.251-11.33,6.345-17.801"/>
      </g>
      <path class="cls-22" d="M918.971,762.633c2.388,.971,3.605,3.636,2.775,6.077l-3.788,10.154c-1.457,3.905-2.883,6.932-6.788,5.475l-6.249-2.331h0c-3.9-1.576-5.817-5.986-4.31-9.913l3.788-10.154c.972-2.388,3.637-3.605,6.077-2.775h0l8.495,3.466h0Z"/>
      <path class="cls-15" d="M919.752,762.925c2.388,.971,3.605,3.636,2.775,6.077l-3.788,10.154c-1.576,3.899-5.986,5.817-9.913,4.31h0l-3.385-1.263h0c-3.9-1.576-5.817-5.986-4.31-9.913l3.788-10.154c.972-2.388,3.637-3.605,6.077-2.775h0l8.755,3.563h0Z"/>
      <path class="cls-14" d="M920.37,762.859h0c2.431,.882,3.686,3.568,2.804,5.999h0s-.029,.079-.029,.079l-3.528,10.251h0c-1.433,3.954-5.771,6.031-9.75,4.667h0l-3.482-1.002h0c-3.954-1.433-6.031-5.771-4.667-9.749h0l3.528-10.251h0c.832-2.383,3.419-3.66,5.817-2.872h0l9.307,2.879h0Z"/>
      <path class="cls-22" d="M901.652,772.485c5.023,4.046,11.171,6.443,17.607,6.866h0c-1.576,3.899-5.986,5.817-9.913,4.31h0l-3.385-1.263h0c-3.824-1.653-5.709-5.989-4.31-9.913"/>
      <path class="cls-18" d="M901.652,772.485c5.023,4.046,11.171,6.443,17.607,6.866h0c-1.576,3.899-5.986,5.817-9.913,4.31h0l-3.385-1.263h0c-3.824-1.653-5.709-5.989-4.31-9.913h0"/>
      <g>
        <path class="cls-22" d="M899.055,735.64c-.971,2.388-3.636,3.605-6.077,2.775l-10.154-3.788c-3.905-1.457-6.932-2.883-5.475-6.788l2.331-6.249h0c1.576-3.9,5.986-5.817,9.913-4.31l10.154,3.788c2.388,.972,3.605,3.637,2.775,6.077h0l-3.466,8.495h0Z"/>
        <path class="cls-15" d="M898.764,736.421c-.971,2.388-3.636,3.605-6.077,2.775l-10.154-3.788c-3.899-1.576-5.817-5.986-4.31-9.913h0l1.263-3.385h0c1.576-3.9,5.986-5.817,9.913-4.31l10.154,3.788c2.388,.972,3.605,3.637,2.775,6.077h0l-3.563,8.755h0Z"/>
        <path class="cls-14" d="M898.83,737.039h0c-.882,2.431-3.568,3.686-5.999,2.804h0s-.078-.029-.078-.029l-10.251-3.528h0c-3.954-1.433-6.031-5.771-4.667-9.75h0l1.002-3.482h0c1.433-3.954,5.771-6.031,9.749-4.667h0l10.251,3.528h0c2.383,.832,3.66,3.419,2.872,5.817h0l-2.879,9.307h0Z"/>
        <path class="cls-22" d="M889.107,718.581c-4.046,5.023-6.443,11.171-6.866,17.607h0c-3.899-1.576-5.817-5.986-4.31-9.913h0l1.263-3.385h0c1.576-3.9,5.986-5.817,9.913-4.31"/>
        <path class="cls-18" d="M889.107,718.581c-4.046,5.023-6.443,11.171-6.866,17.607h0c-3.899-1.576-5.817-5.986-4.31-9.913h0l1.263-3.385h0c1.576-3.9,5.986-5.817,9.913-4.31h0"/>
      </g>
      <path class="cls-22" d="M951.612,774.804c2.388,.971,3.605,3.636,2.775,6.077l-3.788,10.154c-1.457,3.905-2.883,6.932-6.788,5.475l-6.249-2.331h0c-3.9-1.576-5.817-5.986-4.31-9.913l3.788-10.154c.972-2.388,3.637-3.605,6.077-2.775h0l8.495,3.466h0Z"/>
      <path class="cls-15" d="M952.393,775.095c2.388,.971,3.605,3.636,2.775,6.077l-3.788,10.154c-1.576,3.899-5.986,5.817-9.913,4.31h0l-3.385-1.263h0c-3.9-1.576-5.817-5.986-4.31-9.913l3.788-10.154c.972-2.388,3.637-3.605,6.077-2.775h0l8.755,3.563h0Z"/>
      <path class="cls-14" d="M953.011,775.029h0c2.431,.882,3.686,3.568,2.804,5.999h0s-.029,.079-.029,.079l-3.528,10.251h0c-1.433,3.954-5.771,6.031-9.75,4.667h0l-3.482-1.002h0c-3.954-1.433-6.031-5.771-4.667-9.749h0l3.528-10.251h0c.832-2.383,3.419-3.66,5.817-2.872h0l9.307,2.879h0Z"/>
      <path class="cls-22" d="M934.293,784.655c5.023,4.046,11.171,6.443,17.607,6.866h0c-1.576,3.899-5.986,5.817-9.913,4.31h0l-3.385-1.263h0c-3.824-1.653-5.709-5.989-4.31-9.913"/>
      <path class="cls-18" d="M934.293,784.655c5.023,4.046,11.171,6.443,17.607,6.866h0c-1.576,3.899-5.986,5.817-9.913,4.31h0l-3.385-1.263h0c-3.824-1.653-5.709-5.989-4.31-9.913h0"/>
      <path class="cls-22" d="M933.846,720.997l-8.949-3.042h0c-2.431-.882-3.686-3.568-2.804-5.999h0s3.818-10.233,3.818-10.233c1.433-3.954,5.771-6.031,9.75-4.667h0l6.249,2.331c3.905,1.457,3,4.678,1.543,8.584l-3.788,10.154c-.61,2.299-2.969,3.668-5.268,3.058-.187-.049-.37-.112-.549-.186h0Z"/>
      <path class="cls-15" d="M934.627,721.289l-8.949-3.042h0c-2.431-.882-3.686-3.568-2.804-5.999h0s3.818-10.233,3.818-10.233c1.433-3.954,5.771-6.031,9.75-4.667h0l3.385,1.263h0c3.954,1.433,6.031,5.771,4.667,9.749l-3.788,10.154c-.767,2.378-3.316,3.684-5.694,2.918h0c-.129-.048-.256-.096-.383-.143h0Z"/>
      <path class="cls-14" d="M935.05,721.743l-8.755-3.563h0c-2.301-.858-3.47-3.419-2.612-5.72l.097-.26h0l4.049-10.057h0c1.576-3.899,5.986-5.817,9.913-4.31h0l3.288,1.523h0c3.9,1.576,5.817,5.986,4.31,9.913h0l-4.049,10.057h0c-1.183,2.253-3.849,3.285-6.241,2.417h0Z"/>
      <path class="cls-22" d="M927.375,702.567c1.433-3.954,5.771-6.031,9.75-4.667h0l3.385,1.263h0c3.954,1.433,6.031,5.771,4.667,9.749h0c-5.071-4.022-11.33-6.253-17.801-6.345"/>
      <path class="cls-18" d="M927.375,702.567h0c1.433-3.954,5.771-6.031,9.75-4.667h0l3.385,1.263h0c3.954,1.433,6.031,5.771,4.667,9.749h0c-5.071-4.022-11.33-6.253-17.801-6.345"/>
      <g>
        <circle class="cls-21" cx="776.225" cy="630.692" r="18.354"/>
        <circle class="cls-10" cx="776.225" cy="629.44" r="18.354"/>
        <circle class="cls-8" cx="776.225" cy="628.606" r="18.354"/>
        <g>
          <path class="cls-22" d="M755.606,622.615c-.971,2.388-3.636,3.605-6.077,2.775l-10.154-3.788c-3.905-1.457-6.932-2.883-5.475-6.788l2.331-6.249h0c1.576-3.9,5.986-5.817,9.913-4.31l10.154,3.788c2.388,.972,3.605,3.637,2.775,6.077h0l-3.466,8.495h0Z"/>
          <path class="cls-15" d="M755.315,623.396c-.971,2.388-3.636,3.605-6.077,2.775l-10.154-3.788c-3.899-1.576-5.817-5.986-4.31-9.913h0l1.263-3.385h0c1.576-3.9,5.986-5.817,9.913-4.31l10.154,3.788c2.388,.972,3.605,3.637,2.775,6.077h0l-3.563,8.755h0Z"/>
          <path class="cls-14" d="M755.381,624.014h0c-.882,2.431-3.568,3.686-5.999,2.804h0s-.078-.029-.078-.029l-10.251-3.528h0c-3.954-1.433-6.031-5.771-4.667-9.75h0l1.002-3.482h0c1.433-3.954,5.771-6.031,9.749-4.667h0l10.251,3.528h0c2.383,.832,3.66,3.419,2.872,5.817h0l-2.879,9.307h0Z"/>
          <path class="cls-22" d="M745.657,605.556c-4.046,5.023-6.443,11.171-6.866,17.607h0c-3.899-1.576-5.817-5.986-4.31-9.913h0l1.263-3.385h0c1.576-3.9,5.986-5.817,9.913-4.31"/>
          <path class="cls-18" d="M745.657,605.556c-4.046,5.023-6.443,11.171-6.866,17.607h0c-3.899-1.576-5.817-5.986-4.31-9.913h0l1.263-3.385h0c1.576-3.9,5.986-5.817,9.913-4.31h0"/>
        </g>
        <g>
          <path class="cls-22" d="M798.305,633.926c.971-2.388,3.636-3.605,6.077-2.775l10.154,3.788c3.905,1.457,6.932,2.883,5.475,6.788l-2.331,6.249h0c-1.576,3.9-5.986,5.817-9.913,4.31l-10.154-3.788c-2.388-.972-3.605-3.637-2.775-6.077h0l3.466-8.495h0Z"/>
          <path class="cls-15" d="M798.596,633.144c.971-2.388,3.636-3.605,6.077-2.775l10.154,3.788c3.899,1.576,5.817,5.986,4.31,9.913h0l-1.263,3.385h0c-1.576,3.9-5.986,5.817-9.913,4.31l-10.154-3.788c-2.388-.972-3.605-3.637-2.775-6.077h0l3.563-8.755h0Z"/>
          <path class="cls-14" d="M798.53,632.527h0c.882-2.431,3.568-3.686,5.999-2.804h0s.078,.029,.078,.029l10.251,3.528h0c3.954,1.433,6.031,5.771,4.667,9.75h0l-1.002,3.482h0c-1.433,3.954-5.771,6.031-9.749,4.667h0l-10.251-3.528h0c-2.383-.832-3.66-3.419-2.872-5.817h0l2.879-9.307h0Z"/>
          <path class="cls-22" d="M808.253,650.984c4.046-5.023,6.443-11.171,6.866-17.607h0c3.899,1.576,5.817,5.986,4.31,9.913h0l-1.263,3.385h0c-1.576,3.9-5.986,5.817-9.913,4.31"/>
          <path class="cls-18" d="M808.253,650.984c4.046-5.023,6.443-11.171,6.866-17.607h0c3.899,1.576,5.817,5.986,4.31,9.913h0l-1.263,3.385h0c-1.576,3.9-5.986,5.817-9.913,4.31h0"/>
        </g>
        <g>
          <path class="cls-22" d="M771.3,649.619c2.388,.971,3.605,3.636,2.775,6.077l-3.788,10.154c-1.457,3.905-2.883,6.932-6.788,5.475l-6.249-2.331h0c-3.9-1.576-5.817-5.986-4.31-9.913l3.788-10.154c.972-2.388,3.637-3.605,6.077-2.775h0l8.495,3.466h0Z"/>
          <path class="cls-15" d="M772.081,649.911c2.388,.971,3.605,3.636,2.775,6.077l-3.788,10.154c-1.576,3.899-5.986,5.817-9.913,4.31h0l-3.385-1.263h0c-3.9-1.576-5.817-5.986-4.31-9.913l3.788-10.154c.972-2.388,3.637-3.605,6.077-2.775h0l8.755,3.563h0Z"/>
          <path class="cls-14" d="M772.699,649.845h0c2.431,.882,3.686,3.568,2.804,5.999h0s-.029,.079-.029,.079l-3.528,10.251h0c-1.433,3.954-5.771,6.031-9.75,4.667h0l-3.482-1.002h0c-3.954-1.433-6.031-5.771-4.667-9.749h0l3.528-10.251h0c.832-2.383,3.419-3.66,5.817-2.872h0l9.307,2.879h0Z"/>
          <path class="cls-22" d="M754.241,659.568c5.023,4.046,11.171,6.443,17.607,6.866h0c-1.576,3.899-5.986,5.817-9.913,4.31h0l-3.385-1.263h0c-3.9-1.576-5.817-5.986-4.31-9.913"/>
          <path class="cls-18" d="M754.241,659.568c5.023,4.046,11.171,6.443,17.607,6.866h0c-1.576,3.899-5.986,5.817-9.913,4.31h0l-3.385-1.263h0c-3.9-1.576-5.817-5.986-4.31-9.913h0"/>
        </g>
        <g>
          <path class="cls-22" d="M782.611,606.921c-2.388-.971-3.605-3.636-2.775-6.077l3.788-10.154c1.457-3.905,2.883-6.932,6.788-5.475l6.249,2.331h0c3.9,1.576,5.817,5.986,4.31,9.913l-3.788,10.154c-.972,2.388-3.637,3.605-6.077,2.775h0l-8.495-3.466h0Z"/>
          <path class="cls-15" d="M781.83,606.63c-2.388-.971-3.605-3.636-2.775-6.077l3.788-10.154c1.576-3.899,5.986-5.817,9.913-4.31h0l3.385,1.263h0c3.9,1.576,5.817,5.986,4.31,9.913l-3.788,10.154c-.972,2.388-3.637,3.605-6.077,2.775h0l-8.755-3.563h0Z"/>
          <path class="cls-14" d="M781.212,606.696h0c-2.431-.882-3.686-3.568-2.804-5.999h0s.029-.079,.029-.079l3.528-10.251h0c1.433-3.954,5.771-6.031,9.75-4.667h0l3.482,1.002h0c3.954,1.433,6.031,5.771,4.667,9.749h0l-3.528,10.251h0c-.832,2.383-3.419,3.66-5.817,2.872h0l-9.307-2.879h0Z"/>
          <path class="cls-22" d="M799.669,596.972c-5.023-4.046-11.171-6.443-17.607-6.866h0c1.576-3.899,5.986-5.817,9.913-4.31h0l3.385,1.263h0c3.9,1.576,5.817,5.986,4.31,9.913"/>
          <path class="cls-18" d="M799.669,596.972c-5.023-4.046-11.171-6.443-17.607-6.866h0c1.576-3.899,5.986-5.817,9.913-4.31h0l3.385,1.263h0c3.9,1.576,5.817,5.986,4.31,9.913h0"/>
        </g>
      </g>
      <g>
        <circle class="cls-21" cx="790.392" cy="710.921" r="18.354"/>
        <circle class="cls-10" cx="790.392" cy="709.67" r="18.354"/>
        <circle class="cls-8" cx="790.392" cy="708.836" r="18.354"/>
        <g>
          <path class="cls-22" d="M769.773,702.844c-.971,2.388-3.636,3.605-6.077,2.775l-10.154-3.788c-3.905-1.457-6.932-2.883-5.475-6.788l2.331-6.249h0c1.576-3.9,5.986-5.817,9.913-4.31l10.154,3.788c2.388,.972,3.605,3.637,2.775,6.077h0l-3.466,8.495h0Z"/>
          <path class="cls-15" d="M769.482,703.626c-.971,2.388-3.636,3.605-6.077,2.775l-10.154-3.788c-3.899-1.576-5.817-5.986-4.31-9.913h0l1.263-3.385h0c1.576-3.9,5.986-5.817,9.913-4.31l10.154,3.788c2.388,.972,3.605,3.637,2.775,6.077h0l-3.563,8.755h0Z"/>
          <path class="cls-14" d="M769.548,704.243h0c-.882,2.431-3.568,3.686-5.999,2.804h0s-.078-.029-.078-.029l-10.251-3.528h0c-3.954-1.433-6.031-5.771-4.667-9.75h0l1.002-3.482h0c1.433-3.954,5.771-6.031,9.749-4.667h0l10.251,3.528h0c2.383,.832,3.66,3.419,2.872,5.817h0l-2.879,9.307h0Z"/>
          <path class="cls-22" d="M759.825,685.786c-4.046,5.023-6.443,11.171-6.866,17.607h0c-3.899-1.576-5.817-5.986-4.31-9.913h0l1.263-3.385h0c1.576-3.9,5.986-5.817,9.913-4.31"/>
          <path class="cls-18" d="M759.825,685.786c-4.046,5.023-6.443,11.171-6.866,17.607h0c-3.899-1.576-5.817-5.986-4.31-9.913h0l1.263-3.385h0c1.576-3.9,5.986-5.817,9.913-4.31h0"/>
        </g>
        <g>
          <path class="cls-22" d="M812.472,714.155c.971-2.388,3.636-3.605,6.077-2.775l10.154,3.788c3.905,1.457,6.932,2.883,5.475,6.788l-2.331,6.249h0c-1.576,3.9-5.986,5.817-9.913,4.31l-10.154-3.788c-2.388-.972-3.605-3.637-2.775-6.077h0l3.466-8.495h0Z"/>
          <path class="cls-15" d="M812.763,713.374c.971-2.388,3.636-3.605,6.077-2.775l10.154,3.788c3.899,1.576,5.817,5.986,4.31,9.913h0l-1.263,3.385h0c-1.576,3.9-5.986,5.817-9.913,4.31l-10.154-3.788c-2.388-.972-3.605-3.637-2.775-6.077h0l3.563-8.755h0Z"/>
          <path class="cls-14" d="M812.697,712.756h0c.882-2.431,3.568-3.686,5.999-2.804h0s.078,.029,.078,.029l10.251,3.528h0c3.954,1.433,6.031,5.771,4.667,9.75h0l-1.002,3.482h0c-1.433,3.954-5.771,6.031-9.749,4.667h0l-10.251-3.528h0c-2.383-.832-3.66-3.419-2.872-5.817h0l2.879-9.307h0Z"/>
          <path class="cls-22" d="M822.42,731.214c4.046-5.023,6.443-11.171,6.866-17.607h0c3.899,1.576,5.817,5.986,4.31,9.913h0l-1.263,3.385h0c-1.576,3.9-5.986,5.817-9.913,4.31"/>
          <path class="cls-18" d="M822.42,731.214c4.046-5.023,6.443-11.171,6.866-17.607h0c3.899,1.576,5.817,5.986,4.31,9.913h0l-1.263,3.385h0c-1.576,3.9-5.986,5.817-9.913,4.31h0"/>
        </g>
        <g>
          <path class="cls-22" d="M785.467,729.849c2.388,.971,3.605,3.636,2.775,6.077l-3.788,10.154c-1.457,3.905-2.883,6.932-6.788,5.475l-6.249-2.331h0c-3.9-1.576-5.817-5.986-4.31-9.913l3.788-10.154c.972-2.388,3.637-3.605,6.077-2.775h0l8.495,3.466h0Z"/>
          <path class="cls-15" d="M786.248,730.14c2.388,.971,3.605,3.636,2.775,6.077l-3.788,10.154c-1.576,3.899-5.986,5.817-9.913,4.31h0l-3.385-1.263h0c-3.9-1.576-5.817-5.986-4.31-9.913l3.788-10.154c.972-2.388,3.637-3.605,6.077-2.775h0l8.755,3.563h0Z"/>
          <path class="cls-14" d="M786.866,730.074h0c2.431,.882,3.686,3.568,2.804,5.999h0s-.029,.079-.029,.079l-3.528,10.251h0c-1.433,3.954-5.771,6.031-9.75,4.667h0l-3.482-1.002h0c-3.954-1.433-6.031-5.771-4.667-9.749h0l3.528-10.251h0c.832-2.383,3.419-3.66,5.817-2.872h0l9.307,2.879h0Z"/>
          <path class="cls-22" d="M768.409,739.798c5.023,4.046,11.171,6.443,17.607,6.866h0c-1.576,3.899-5.986,5.817-9.913,4.31h0l-3.385-1.263h0c-3.9-1.576-5.817-5.986-4.31-9.913"/>
          <path class="cls-18" d="M768.409,739.798c5.023,4.046,11.171,6.443,17.607,6.866h0c-1.576,3.899-5.986,5.817-9.913,4.31h0l-3.385-1.263h0c-3.9-1.576-5.817-5.986-4.31-9.913h0"/>
        </g>
        <g>
          <path class="cls-22" d="M796.778,687.151c-2.388-.971-3.605-3.636-2.775-6.077l3.788-10.154c1.457-3.905,2.883-6.932,6.788-5.475l6.249,2.331h0c3.9,1.576,5.817,5.986,4.31,9.913l-3.788,10.154c-.972,2.388-3.637,3.605-6.077,2.775h0l-8.495-3.466h0Z"/>
          <path class="cls-15" d="M795.997,686.859c-2.388-.971-3.605-3.636-2.775-6.077l3.788-10.154c1.576-3.899,5.986-5.817,9.913-4.31h0l3.385,1.263h0c3.9,1.576,5.817,5.986,4.31,9.913l-3.788,10.154c-.972,2.388-3.637,3.605-6.077,2.775h0l-8.755-3.563h0Z"/>
          <path class="cls-14" d="M795.379,686.925h0c-2.431-.882-3.686-3.568-2.804-5.999h0s.029-.079,.029-.079l3.528-10.251h0c1.433-3.954,5.771-6.031,9.75-4.667h0l3.482,1.002h0c3.954,1.433,6.031,5.771,4.667,9.749h0l-3.528,10.251h0c-.832,2.383-3.419,3.66-5.817,2.872h0l-9.307-2.879h0Z"/>
          <path class="cls-22" d="M813.837,677.202c-5.023-4.046-11.171-6.443-17.607-6.866h0c1.576-3.899,5.986-5.817,9.913-4.31h0l3.385,1.263h0c3.9,1.576,5.817,5.986,4.31,9.913"/>
          <path class="cls-18" d="M813.837,677.202c-5.023-4.046-11.171-6.443-17.607-6.866h0c1.576-3.899,5.986-5.817,9.913-4.31h0l3.385,1.263h0c3.9,1.576,5.817,5.986,4.31,9.913h0"/>
        </g>
      </g>
      <g>
        <path class="cls-21" d="M611.966,611.622l-19.85,53.994c-.334,.895-1.33,1.349-2.224,1.016h0s-53.437-19.495-53.437-19.495c-.895-.334-1.349-1.33-1.016-2.224h0l19.85-53.994c.334-.895,1.33-1.349,2.224-1.016h0s53.437,19.495,53.437,19.495c.895,.334,1.349,1.33,1.016,2.224h0Z"/>
        <path class="cls-10" d="M613.406,612.159l-19.85,53.994c-.334,.895-1.33,1.349-2.224,1.016h0s-53.437-19.495-53.437-19.495c-.895-.334-1.349-1.33-1.016-2.224h0l19.85-53.994c.334-.895,1.33-1.349,2.224-1.016h0s53.437,19.495,53.437,19.495c.895,.334,1.349,1.33,1.016,2.224h0Z"/>
        <path class="cls-8" d="M615.026,612.763l-19.85,53.994c-.334,.895-1.33,1.349-2.224,1.016h0s-53.437-19.495-53.437-19.495c-.895-.334-1.349-1.33-1.016-2.224h0l19.85-53.994c.334-.895,1.33-1.349,2.224-1.016h0s53.437,19.495,53.437,19.495c.895,.334,1.349,1.33,1.016,2.224h0Z"/>
        <g>
          <path class="cls-22" d="M545.946,620.115c-.971,2.388-3.636,3.605-6.077,2.775l-10.154-3.788c-3.905-1.457-6.932-2.883-5.475-6.788l2.331-6.249h0c1.576-3.9,5.986-5.817,9.913-4.31l10.154,3.788c2.388,.972,3.605,3.637,2.775,6.077h0l-3.466,8.495h0Z"/>
          <path class="cls-15" d="M545.655,620.896c-.971,2.388-3.636,3.605-6.077,2.775l-10.154-3.788c-3.899-1.576-5.817-5.986-4.31-9.913h0l1.263-3.385h0c1.576-3.9,5.986-5.817,9.913-4.31l10.154,3.788c2.388,.972,3.605,3.637,2.775,6.077h0l-3.563,8.755h0Z"/>
          <path class="cls-14" d="M545.721,621.514h0c-.882,2.431-3.568,3.686-5.999,2.804h0s-.078-.029-.078-.029l-10.251-3.528h0c-3.954-1.433-6.031-5.771-4.667-9.75h0l1.002-3.482h0c1.433-3.954,5.771-6.031,9.749-4.667h0l10.251,3.528h0c2.383,.832,3.66,3.419,2.872,5.817h0l-2.879,9.307h0Z"/>
          <path class="cls-22" d="M535.998,603.056c-4.046,5.023-6.443,11.171-6.866,17.607h0c-3.899-1.576-5.817-5.986-4.31-9.913h0l1.263-3.385h0c1.576-3.9,5.986-5.817,9.913-4.31"/>
          <path class="cls-18" d="M535.998,603.056c-4.046,5.023-6.443,11.171-6.866,17.607h0c-3.899-1.576-5.817-5.986-4.31-9.913h0l1.263-3.385h0c1.576-3.9,5.986-5.817,9.913-4.31h0"/>
        </g>
        <g>
          <path class="cls-22" d="M607.179,633.894c.971-2.388,3.636-3.605,6.077-2.775l10.154,3.788c3.905,1.457,6.932,2.883,5.475,6.788l-2.331,6.249h0c-1.576,3.9-5.986,5.817-9.913,4.31l-10.154-3.788c-2.388-.972-3.605-3.637-2.775-6.077h0l3.466-8.495h0Z"/>
          <path class="cls-15" d="M607.471,633.113c.971-2.388,3.636-3.605,6.077-2.775l10.154,3.788c3.899,1.576,5.817,5.986,4.31,9.913h0l-1.263,3.385h0c-1.576,3.9-5.986,5.817-9.913,4.31l-10.154-3.788c-2.388-.972-3.605-3.637-2.775-6.077h0l3.563-8.755h0Z"/>
          <path class="cls-14" d="M607.405,632.495h0c.882-2.431,3.568-3.686,5.999-2.804h0s.078,.029,.078,.029l10.251,3.528h0c3.954,1.433,6.031,5.771,4.667,9.75h0l-1.002,3.482h0c-1.433,3.954-5.771,6.031-9.749,4.667h0l-10.251-3.528h0c-2.383-.832-3.66-3.419-2.872-5.817h0l2.879-9.307h0Z"/>
          <path class="cls-22" d="M617.128,650.953c4.046-5.023,6.443-11.171,6.866-17.607h0c3.899,1.576,5.817,5.986,4.31,9.913h0l-1.263,3.385h0c-1.576,3.9-5.986,5.817-9.913,4.31"/>
          <path class="cls-18" d="M617.128,650.953c4.046-5.023,6.443-11.171,6.866-17.607h0c3.899,1.576,5.817,5.986,4.31,9.913h0l-1.263,3.385h0c-1.576,3.9-5.986,5.817-9.913,4.31h0"/>
        </g>
      </g>
      <g>
        <path class="cls-21" d="M633.712,553.991l-19.85,53.994c-.334,.895-1.33,1.349-2.224,1.016h0s-53.437-19.495-53.437-19.495c-.895-.334-1.349-1.33-1.016-2.224h0l19.85-53.994c.334-.895,1.33-1.349,2.224-1.016h0s53.437,19.495,53.437,19.495c.895,.334,1.349,1.33,1.016,2.224h0Z"/>
        <path class="cls-10" d="M635.153,554.528l-19.85,53.994c-.334,.895-1.33,1.349-2.224,1.016h0s-53.437-19.495-53.437-19.495c-.895-.334-1.349-1.33-1.016-2.224h0l19.85-53.994c.334-.895,1.33-1.349,2.224-1.016h0s53.437,19.495,53.437,19.495c.895,.334,1.349,1.33,1.016,2.224h0Z"/>
        <path class="cls-8" d="M636.772,555.133l-19.85,53.994c-.334,.895-1.33,1.349-2.224,1.016h0s-53.437-19.495-53.437-19.495c-.895-.334-1.349-1.33-1.016-2.224h0l19.85-53.994c.334-.895,1.33-1.349,2.224-1.016h0s53.437,19.495,53.437,19.495c.895,.334,1.349,1.33,1.016,2.224h0Z"/>
        <g>
          <path class="cls-22" d="M567.693,562.484c-.971,2.388-3.636,3.605-6.077,2.775l-10.154-3.788c-3.905-1.457-6.932-2.883-5.475-6.788l2.331-6.249h0c1.576-3.9,5.986-5.817,9.913-4.31l10.154,3.788c2.388,.972,3.605,3.637,2.775,6.077h0l-3.466,8.495h0Z"/>
          <path class="cls-15" d="M567.401,563.265c-.971,2.388-3.636,3.605-6.077,2.775l-10.154-3.788c-3.899-1.576-5.817-5.986-4.31-9.913h0l1.263-3.385h0c1.576-3.9,5.986-5.817,9.913-4.31l10.154,3.788c2.388,.972,3.605,3.637,2.775,6.077h0l-3.563,8.755h0Z"/>
          <path class="cls-14" d="M567.467,563.883h0c-.882,2.431-3.568,3.686-5.999,2.804h0s-.078-.029-.078-.029l-10.251-3.528h0c-3.954-1.433-6.031-5.771-4.667-9.75h0l1.002-3.482h0c1.433-3.954,5.771-6.031,9.749-4.667h0l10.251,3.528h0c2.383,.832,3.66,3.419,2.872,5.817h0l-2.879,9.307h0Z"/>
          <path class="cls-22" d="M557.744,545.426c-4.046,5.023-6.443,11.171-6.866,17.607h0c-3.899-1.576-5.817-5.986-4.31-9.913h0l1.263-3.385h0c1.576-3.9,5.986-5.817,9.913-4.31"/>
          <path class="cls-18" d="M557.744,545.426c-4.046,5.023-6.443,11.171-6.866,17.607h0c-3.899-1.576-5.817-5.986-4.31-9.913h0l1.263-3.385h0c1.576-3.9,5.986-5.817,9.913-4.31h0"/>
        </g>
        <g>
          <path class="cls-22" d="M628.926,576.264c.971-2.388,3.636-3.605,6.077-2.775l10.154,3.788c3.905,1.457,6.932,2.883,5.475,6.788l-2.331,6.249h0c-1.576,3.9-5.986,5.817-9.913,4.31l-10.154-3.788c-2.388-.972-3.605-3.637-2.775-6.077h0l3.466-8.495h0Z"/>
          <path class="cls-15" d="M629.217,575.483c.971-2.388,3.636-3.605,6.077-2.775l10.154,3.788c3.899,1.576,5.817,5.986,4.31,9.913h0l-1.263,3.385h0c-1.576,3.9-5.986,5.817-9.913,4.31l-10.154-3.788c-2.388-.972-3.605-3.637-2.775-6.077h0l3.563-8.755h0Z"/>
          <path class="cls-14" d="M629.151,574.865h0c.882-2.431,3.568-3.686,5.999-2.804h0s.078,.029,.078,.029l10.251,3.528h0c3.954,1.433,6.031,5.771,4.667,9.75h0l-1.002,3.482h0c-1.433,3.954-5.771,6.031-9.749,4.667h0l-10.251-3.528h0c-2.383-.832-3.66-3.419-2.872-5.817h0l2.879-9.307h0Z"/>
          <path class="cls-22" d="M638.874,593.322c4.046-5.023,6.443-11.171,6.866-17.607h0c3.899,1.576,5.817,5.986,4.31,9.913h0l-1.263,3.385h0c-1.576,3.9-5.986,5.817-9.913,4.31"/>
          <path class="cls-18" d="M638.874,593.322c4.046-5.023,6.443-11.171,6.866-17.607h0c3.899,1.576,5.817,5.986,4.31,9.913h0l-1.263,3.385h0c-1.576,3.9-5.986,5.817-9.913,4.31h0"/>
        </g>
      </g>
      <g>
        <path class="cls-21" d="M656.024,496.276l-19.85,53.994c-.334,.895-1.33,1.349-2.224,1.016h0s-53.437-19.495-53.437-19.495c-.895-.334-1.349-1.33-1.016-2.224h0l19.85-53.994c.334-.895,1.33-1.349,2.224-1.016h0s53.437,19.495,53.437,19.495c.895,.334,1.349,1.33,1.016,2.224h0Z"/>
        <path class="cls-10" d="M657.464,496.813l-19.85,53.994c-.334,.895-1.33,1.349-2.224,1.016h0s-53.437-19.495-53.437-19.495c-.895-.334-1.349-1.33-1.016-2.224h0l19.85-53.994c.334-.895,1.33-1.349,2.224-1.016h0s53.437,19.495,53.437,19.495c.895,.334,1.349,1.33,1.016,2.224h0Z"/>
        <path class="cls-8" d="M659.084,497.417l-19.85,53.994c-.334,.895-1.33,1.349-2.224,1.016h0s-53.437-19.495-53.437-19.495c-.895-.334-1.349-1.33-1.016-2.224h0l19.85-53.994c.334-.895,1.33-1.349,2.224-1.016h0s53.437,19.495,53.437,19.495c.895,.334,1.349,1.33,1.016,2.224h0Z"/>
        <g>
          <path class="cls-22" d="M590.004,504.769c-.971,2.388-3.636,3.605-6.077,2.775l-10.154-3.788c-3.905-1.457-6.932-2.883-5.475-6.788l2.331-6.249h0c1.576-3.9,5.986-5.817,9.913-4.31l10.154,3.788c2.388,.972,3.605,3.637,2.775,6.077h0l-3.466,8.495h0Z"/>
          <path class="cls-15" d="M589.713,505.55c-.971,2.388-3.636,3.605-6.077,2.775l-10.154-3.788c-3.899-1.576-5.817-5.986-4.31-9.913h0l1.263-3.385h0c1.576-3.9,5.986-5.817,9.913-4.31l10.154,3.788c2.388,.972,3.605,3.637,2.775,6.077h0l-3.563,8.755h0Z"/>
          <path class="cls-14" d="M589.779,506.168h0c-.882,2.431-3.568,3.686-5.999,2.804h0s-.078-.029-.078-.029l-10.251-3.528h0c-3.954-1.433-6.031-5.771-4.667-9.75h0l1.002-3.482h0c1.433-3.954,5.771-6.031,9.749-4.667h0l10.251,3.528h0c2.383,.832,3.66,3.419,2.872,5.817h0l-2.879,9.307h0Z"/>
          <path class="cls-22" d="M580.056,487.71c-4.046,5.023-6.443,11.171-6.866,17.607h0c-3.899-1.576-5.817-5.986-4.31-9.913h0l1.263-3.385h0c1.576-3.9,5.986-5.817,9.913-4.31"/>
          <path class="cls-18" d="M580.056,487.71c-4.046,5.023-6.443,11.171-6.866,17.607h0c-3.899-1.576-5.817-5.986-4.31-9.913h0l1.263-3.385h0c1.576-3.9,5.986-5.817,9.913-4.31h0"/>
        </g>
        <g>
          <path class="cls-22" d="M651.237,518.548c.971-2.388,3.636-3.605,6.077-2.775l10.154,3.788c3.905,1.457,6.932,2.883,5.475,6.788l-2.331,6.249h0c-1.576,3.9-5.986,5.817-9.913,4.31l-10.154-3.788c-2.388-.972-3.605-3.637-2.775-6.077h0l3.466-8.495h0Z"/>
          <path class="cls-15" d="M651.529,517.767c.971-2.388,3.636-3.605,6.077-2.775l10.154,3.788c3.899,1.576,5.817,5.986,4.31,9.913h0l-1.263,3.385h0c-1.576,3.9-5.986,5.817-9.913,4.31l-10.154-3.788c-2.388-.972-3.605-3.637-2.775-6.077h0l3.563-8.755h0Z"/>
          <path class="cls-14" d="M651.463,517.149h0c.882-2.431,3.568-3.686,5.999-2.804h0s.078,.029,.078,.029l10.251,3.528h0c3.954,1.433,6.031,5.771,4.667,9.75h0l-1.002,3.482h0c-1.433,3.954-5.771,6.031-9.749,4.667h0l-10.251-3.528h0c-2.383-.832-3.66-3.419-2.872-5.817h0l2.879-9.307h0Z"/>
          <path class="cls-22" d="M661.186,535.607c4.046-5.023,6.443-11.171,6.866-17.607h0c3.899,1.576,5.817,5.986,4.31,9.913h0l-1.263,3.385h0c-1.576,3.9-5.986,5.817-9.913,4.31"/>
          <path class="cls-18" d="M661.186,535.607c4.046-5.023,6.443-11.171,6.866-17.607h0c3.899,1.576,5.817,5.986,4.31,9.913h0l-1.263,3.385h0c-1.576,3.9-5.986,5.817-9.913,4.31h0"/>
        </g>
      </g>
      <g>
        <path class="cls-21" d="M498.786,570.17l-19.85,53.994c-.334,.895-1.33,1.349-2.224,1.016h0s-53.437-19.495-53.437-19.495c-.895-.334-1.349-1.33-1.016-2.224h0l19.85-53.994c.334-.895,1.33-1.349,2.224-1.016h0s53.437,19.495,53.437,19.495c.895,.334,1.349,1.33,1.016,2.224h0Z"/>
        <path class="cls-10" d="M500.226,570.707l-19.85,53.994c-.334,.895-1.33,1.349-2.224,1.016h0s-53.437-19.495-53.437-19.495c-.895-.334-1.349-1.33-1.016-2.224h0l19.85-53.994c.334-.895,1.33-1.349,2.224-1.016h0s53.437,19.495,53.437,19.495c.895,.334,1.349,1.33,1.016,2.224h0Z"/>
        <path class="cls-8" d="M501.846,571.311l-19.85,53.994c-.334,.895-1.33,1.349-2.224,1.016h0s-53.437-19.495-53.437-19.495c-.895-.334-1.349-1.33-1.016-2.224h0l19.85-53.994c.334-.895,1.33-1.349,2.224-1.016h0s53.437,19.495,53.437,19.495c.895,.334,1.349,1.33,1.016,2.224h0Z"/>
        <g>
          <path class="cls-22" d="M432.767,578.663c-.971,2.388-3.636,3.605-6.077,2.775l-10.154-3.788c-3.905-1.457-6.932-2.883-5.475-6.788l2.331-6.249h0c1.576-3.9,5.986-5.817,9.913-4.31l10.154,3.788c2.388,.972,3.605,3.637,2.775,6.077h0l-3.466,8.495h0Z"/>
          <path class="cls-15" d="M432.475,579.444c-.971,2.388-3.636,3.605-6.077,2.775l-10.154-3.788c-3.899-1.576-5.817-5.986-4.31-9.913h0l1.263-3.385h0c1.576-3.9,5.986-5.817,9.913-4.31l10.154,3.788c2.388,.972,3.605,3.637,2.775,6.077h0l-3.563,8.755h0Z"/>
          <path class="cls-14" d="M432.541,580.062h0c-.882,2.431-3.568,3.686-5.999,2.804h0s-.078-.029-.078-.029l-10.251-3.528h0c-3.954-1.433-6.031-5.771-4.667-9.75h0l1.002-3.482h0c1.433-3.954,5.771-6.031,9.749-4.667h0l10.251,3.528h0c2.383,.832,3.66,3.419,2.872,5.817h0l-2.879,9.307h0Z"/>
          <path class="cls-22" d="M422.818,561.604c-4.046,5.023-6.443,11.171-6.866,17.607h0c-3.899-1.576-5.817-5.986-4.31-9.913h0l1.263-3.385h0c1.576-3.9,5.986-5.817,9.913-4.31"/>
          <path class="cls-18" d="M422.818,561.604c-4.046,5.023-6.443,11.171-6.866,17.607h0c-3.899-1.576-5.817-5.986-4.31-9.913h0l1.263-3.385h0c1.576-3.9,5.986-5.817,9.913-4.31h0"/>
        </g>
        <g>
          <path class="cls-22" d="M494,592.442c.971-2.388,3.636-3.605,6.077-2.775l10.154,3.788c3.905,1.457,6.932,2.883,5.475,6.788l-2.331,6.249h0c-1.576,3.9-5.986,5.817-9.913,4.31l-10.154-3.788c-2.388-.972-3.605-3.637-2.775-6.077h0l3.466-8.495h0Z"/>
          <path class="cls-15" d="M494.291,591.661c.971-2.388,3.636-3.605,6.077-2.775l10.154,3.788c3.899,1.576,5.817,5.986,4.31,9.913h0l-1.263,3.385h0c-1.576,3.9-5.986,5.817-9.913,4.31l-10.154-3.788c-2.388-.972-3.605-3.637-2.775-6.077h0l3.563-8.755h0Z"/>
          <path class="cls-14" d="M494.225,591.043h0c.882-2.431,3.568-3.686,5.999-2.804h0s.078,.029,.078,.029l10.251,3.528h0c3.954,1.433,6.031,5.771,4.667,9.75h0l-1.002,3.482h0c-1.433,3.954-5.771,6.031-9.749,4.667h0l-10.251-3.528h0c-2.383-.832-3.66-3.419-2.872-5.817h0l2.879-9.307h0Z"/>
          <path class="cls-22" d="M503.948,609.501c4.046-5.023,6.443-11.171,6.866-17.607h0c3.899,1.576,5.817,5.986,4.31,9.913h0l-1.263,3.385h0c-1.576,3.9-5.986,5.817-9.913,4.31"/>
          <path class="cls-18" d="M503.948,609.501c4.046-5.023,6.443-11.171,6.866-17.607h0c3.899,1.576,5.817,5.986,4.31,9.913h0l-1.263,3.385h0c-1.576,3.9-5.986,5.817-9.913,4.31h0"/>
        </g>
      </g>
      <g>
        <path class="cls-21" d="M520.533,512.539l-19.85,53.994c-.334,.895-1.33,1.349-2.224,1.016h0s-53.437-19.495-53.437-19.495c-.895-.334-1.349-1.33-1.016-2.224h0l19.85-53.994c.334-.895,1.33-1.349,2.224-1.016h0s53.437,19.495,53.437,19.495c.895,.334,1.349,1.33,1.016,2.224h0Z"/>
        <path class="cls-10" d="M521.973,513.077l-19.85,53.994c-.334,.895-1.33,1.349-2.224,1.016h0s-53.437-19.495-53.437-19.495c-.895-.334-1.349-1.33-1.016-2.224h0l19.85-53.994c.334-.895,1.33-1.349,2.224-1.016h0s53.437,19.495,53.437,19.495c.895,.334,1.349,1.33,1.016,2.224h0Z"/>
        <path class="cls-8" d="M523.593,513.681l-19.85,53.994c-.334,.895-1.33,1.349-2.224,1.016h0s-53.437-19.495-53.437-19.495c-.895-.334-1.349-1.33-1.016-2.224h0l19.85-53.994c.334-.895,1.33-1.349,2.224-1.016h0s53.437,19.495,53.437,19.495c.895,.334,1.349,1.33,1.016,2.224h0Z"/>
        <g>
          <path class="cls-22" d="M454.513,521.033c-.971,2.388-3.636,3.605-6.077,2.775l-10.154-3.788c-3.905-1.457-6.932-2.883-5.475-6.788l2.331-6.249h0c1.576-3.9,5.986-5.817,9.913-4.31l10.154,3.788c2.388,.972,3.605,3.637,2.775,6.077h0l-3.466,8.495h0Z"/>
          <path class="cls-15" d="M454.222,521.814c-.971,2.388-3.636,3.605-6.077,2.775l-10.154-3.788c-3.899-1.576-5.817-5.986-4.31-9.913h0l1.263-3.385h0c1.576-3.9,5.986-5.817,9.913-4.31l10.154,3.788c2.388,.972,3.605,3.637,2.775,6.077h0l-3.563,8.755h0Z"/>
          <path class="cls-14" d="M454.288,522.431h0c-.882,2.431-3.568,3.686-5.999,2.804h0s-.078-.029-.078-.029l-10.251-3.528h0c-3.954-1.433-6.031-5.771-4.667-9.75h0l1.002-3.482h0c1.433-3.954,5.771-6.031,9.749-4.667h0l10.251,3.528h0c2.383,.832,3.66,3.419,2.872,5.817h0l-2.879,9.307h0Z"/>
          <path class="cls-22" d="M444.565,503.974c-4.046,5.023-6.443,11.171-6.866,17.607h0c-3.899-1.576-5.817-5.986-4.31-9.913h0l1.263-3.385h0c1.576-3.9,5.986-5.817,9.913-4.31"/>
          <path class="cls-18" d="M444.565,503.974c-4.046,5.023-6.443,11.171-6.866,17.607h0c-3.899-1.576-5.817-5.986-4.31-9.913h0l1.263-3.385h0c1.576-3.9,5.986-5.817,9.913-4.31h0"/>
        </g>
        <g>
          <path class="cls-22" d="M515.746,534.812c.971-2.388,3.636-3.605,6.077-2.775l10.154,3.788c3.905,1.457,6.932,2.883,5.475,6.788l-2.331,6.249h0c-1.576,3.9-5.986,5.817-9.913,4.31l-10.154-3.788c-2.388-.972-3.605-3.637-2.775-6.077h0l3.466-8.495h0Z"/>
          <path class="cls-15" d="M516.037,534.031c.971-2.388,3.636-3.605,6.077-2.775l10.154,3.788c3.899,1.576,5.817,5.986,4.31,9.913h0l-1.263,3.385h0c-1.576,3.9-5.986,5.817-9.913,4.31l-10.154-3.788c-2.388-.972-3.605-3.637-2.775-6.077h0l3.563-8.755h0Z"/>
          <path class="cls-14" d="M515.971,533.413h0c.882-2.431,3.568-3.686,5.999-2.804h0s.078,.029,.078,.029l10.251,3.528h0c3.954,1.433,6.031,5.771,4.667,9.75h0l-1.002,3.482h0c-1.433,3.954-5.771,6.031-9.749,4.667h0l-10.251-3.528h0c-2.383-.832-3.66-3.419-2.872-5.817h0l2.879-9.307h0Z"/>
          <path class="cls-22" d="M525.695,551.87c4.046-5.023,6.443-11.171,6.866-17.607h0c3.899,1.576,5.817,5.986,4.31,9.913h0l-1.263,3.385h0c-1.576,3.9-5.986,5.817-9.913,4.31"/>
          <path class="cls-18" d="M525.695,551.87c4.046-5.023,6.443-11.171,6.866-17.607h0c3.899,1.576,5.817,5.986,4.31,9.913h0l-1.263,3.385h0c-1.576,3.9-5.986,5.817-9.913,4.31h0"/>
        </g>
      </g>
      <g>
        <path class="cls-21" d="M542.844,454.824l-19.85,53.994c-.334,.895-1.33,1.349-2.224,1.016h0s-53.437-19.495-53.437-19.495c-.895-.334-1.349-1.33-1.016-2.224h0l19.85-53.994c.334-.895,1.33-1.349,2.224-1.016h0s53.437,19.495,53.437,19.495c.895,.334,1.349,1.33,1.016,2.224h0Z"/>
        <path class="cls-10" d="M544.284,455.361l-19.85,53.994c-.334,.895-1.33,1.349-2.224,1.016h0s-53.437-19.495-53.437-19.495c-.895-.334-1.349-1.33-1.016-2.224h0l19.85-53.994c.334-.895,1.33-1.349,2.224-1.016h0s53.437,19.495,53.437,19.495c.895,.334,1.349,1.33,1.016,2.224h0Z"/>
        <path class="cls-8" d="M545.904,455.966l-19.85,53.994c-.334,.895-1.33,1.349-2.224,1.016h0s-53.437-19.495-53.437-19.495c-.895-.334-1.349-1.33-1.016-2.224h0l19.85-53.994c.334-.895,1.33-1.349,2.224-1.016h0s53.437,19.495,53.437,19.495c.895,.334,1.349,1.33,1.016,2.224h0Z"/>
        <g>
          <path class="cls-22" d="M476.825,463.317c-.971,2.388-3.636,3.605-6.077,2.775l-10.154-3.788c-3.905-1.457-6.932-2.883-5.475-6.788l2.331-6.249h0c1.576-3.9,5.986-5.817,9.913-4.31l10.154,3.788c2.388,.972,3.605,3.637,2.775,6.077h0l-3.466,8.495h0Z"/>
          <path class="cls-15" d="M476.533,464.098c-.971,2.388-3.636,3.605-6.077,2.775l-10.154-3.788c-3.899-1.576-5.817-5.986-4.31-9.913h0l1.263-3.385h0c1.576-3.9,5.986-5.817,9.913-4.31l10.154,3.788c2.388,.972,3.605,3.637,2.775,6.077h0l-3.563,8.755h0Z"/>
          <path class="cls-14" d="M476.599,464.716h0c-.882,2.431-3.568,3.686-5.999,2.804h0s-.078-.029-.078-.029l-10.251-3.528h0c-3.954-1.433-6.031-5.771-4.667-9.75h0l1.002-3.482h0c1.433-3.954,5.771-6.031,9.749-4.667h0l10.251,3.528h0c2.383,.832,3.66,3.419,2.872,5.817h0l-2.879,9.307h0Z"/>
          <path class="cls-22" d="M466.876,446.258c-4.046,5.023-6.443,11.171-6.866,17.607h0c-3.899-1.576-5.817-5.986-4.31-9.913h0l1.263-3.385h0c1.576-3.9,5.986-5.817,9.913-4.31"/>
          <path class="cls-18" d="M466.876,446.258c-4.046,5.023-6.443,11.171-6.866,17.607h0c-3.899-1.576-5.817-5.986-4.31-9.913h0l1.263-3.385h0c1.576-3.9,5.986-5.817,9.913-4.31h0"/>
        </g>
        <g>
          <path class="cls-22" d="M538.057,477.096c.971-2.388,3.636-3.605,6.077-2.775l10.154,3.788c3.905,1.457,6.932,2.883,5.475,6.788l-2.331,6.249h0c-1.576,3.9-5.986,5.817-9.913,4.31l-10.154-3.788c-2.388-.972-3.605-3.637-2.775-6.077h0l3.466-8.495h0Z"/>
          <path class="cls-15" d="M538.349,476.315c.971-2.388,3.636-3.605,6.077-2.775l10.154,3.788c3.899,1.576,5.817,5.986,4.31,9.913h0l-1.263,3.385h0c-1.576,3.9-5.986,5.817-9.913,4.31l-10.154-3.788c-2.388-.972-3.605-3.637-2.775-6.077h0l3.563-8.755h0Z"/>
          <path class="cls-14" d="M538.283,475.697h0c.882-2.431,3.568-3.686,5.999-2.804h0s.078,.029,.078,.029l10.251,3.528h0c3.954,1.433,6.031,5.771,4.667,9.75h0l-1.002,3.482h0c-1.433,3.954-5.771,6.031-9.749,4.667h0l-10.251-3.528h0c-2.383-.832-3.66-3.419-2.872-5.817h0l2.879-9.307h0Z"/>
          <path class="cls-22" d="M548.006,494.155c4.046-5.023,6.443-11.171,6.866-17.607h0c3.899,1.576,5.817,5.986,4.31,9.913h0l-1.263,3.385h0c-1.576,3.9-5.986,5.817-9.913,4.31"/>
          <path class="cls-18" d="M548.006,494.155c4.046-5.023,6.443-11.171,6.866-17.607h0c3.899,1.576,5.817,5.986,4.31,9.913h0l-1.263,3.385h0c-1.576,3.9-5.986,5.817-9.913,4.31h0"/>
        </g>
      </g>
      <g>
        <path class="cls-21" d="M385.606,530.554l-19.85,53.994c-.334,.895-1.33,1.349-2.224,1.016h0s-53.437-19.495-53.437-19.495c-.895-.334-1.349-1.33-1.016-2.224h0l19.85-53.994c.334-.895,1.33-1.349,2.224-1.016h0s53.437,19.495,53.437,19.495c.895,.334,1.349,1.33,1.016,2.224h0Z"/>
        <path class="cls-10" d="M387.046,531.091l-19.85,53.994c-.334,.895-1.33,1.349-2.224,1.016h0s-53.437-19.495-53.437-19.495c-.895-.334-1.349-1.33-1.016-2.224h0l19.85-53.994c.334-.895,1.33-1.349,2.224-1.016h0s53.437,19.495,53.437,19.495c.895,.334,1.349,1.33,1.016,2.224h0Z"/>
        <path class="cls-8" d="M388.666,531.696l-19.85,53.994c-.334,.895-1.33,1.349-2.224,1.016h0s-53.437-19.495-53.437-19.495c-.895-.334-1.349-1.33-1.016-2.224h0l19.85-53.994c.334-.895,1.33-1.349,2.224-1.016h0s53.437,19.495,53.437,19.495c.895,.334,1.349,1.33,1.016,2.224h0Z"/>
        <g>
          <path class="cls-22" d="M319.587,539.047c-.971,2.388-3.636,3.605-6.077,2.775l-10.154-3.788c-3.905-1.457-6.932-2.883-5.475-6.788l2.331-6.249h0c1.576-3.9,5.986-5.817,9.913-4.31l10.154,3.788c2.388,.972,3.605,3.637,2.775,6.077h0l-3.466,8.495h0Z"/>
          <path class="cls-15" d="M319.295,539.828c-.971,2.388-3.636,3.605-6.077,2.775l-10.154-3.788c-3.899-1.576-5.817-5.986-4.31-9.913h0l1.263-3.385h0c1.576-3.9,5.986-5.817,9.913-4.31l10.154,3.788c2.388,.972,3.605,3.637,2.775,6.077h0l-3.563,8.755h0Z"/>
          <path class="cls-14" d="M319.361,540.446h0c-.882,2.431-3.568,3.686-5.999,2.804h0s-.078-.029-.078-.029l-10.251-3.528h0c-3.954-1.433-6.031-5.771-4.667-9.75h0l1.002-3.482h0c1.433-3.954,5.771-6.031,9.749-4.667h0l10.251,3.528h0c2.383,.832,3.66,3.419,2.872,5.817h0l-2.879,9.307h0Z"/>
          <path class="cls-22" d="M309.638,521.988c-4.046,5.023-6.443,11.171-6.866,17.607h0c-3.899-1.576-5.817-5.986-4.31-9.913h0l1.263-3.385h0c1.576-3.9,5.986-5.817,9.913-4.31"/>
          <path class="cls-18" d="M309.638,521.988c-4.046,5.023-6.443,11.171-6.866,17.607h0c-3.899-1.576-5.817-5.986-4.31-9.913h0l1.263-3.385h0c1.576-3.9,5.986-5.817,9.913-4.31h0"/>
        </g>
        <g>
          <path class="cls-22" d="M380.82,552.826c.971-2.388,3.636-3.605,6.077-2.775l10.154,3.788c3.905,1.457,6.932,2.883,5.475,6.788l-2.331,6.249h0c-1.576,3.9-5.986,5.817-9.913,4.31l-10.154-3.788c-2.388-.972-3.605-3.637-2.775-6.077h0l3.466-8.495h0Z"/>
          <path class="cls-15" d="M381.111,552.045c.971-2.388,3.636-3.605,6.077-2.775l10.154,3.788c3.899,1.576,5.817,5.986,4.31,9.913h0l-1.263,3.385h0c-1.576,3.9-5.986,5.817-9.913,4.31l-10.154-3.788c-2.388-.972-3.605-3.637-2.775-6.077h0l3.563-8.755h0Z"/>
          <path class="cls-14" d="M381.045,551.427h0c.882-2.431,3.568-3.686,5.999-2.804h0s.078,.029,.078,.029l10.251,3.528h0c3.954,1.433,6.031,5.771,4.667,9.75h0l-1.002,3.482h0c-1.433,3.954-5.771,6.031-9.749,4.667h0l-10.251-3.528h0c-2.383-.832-3.66-3.419-2.872-5.817h0l2.879-9.307h0Z"/>
          <path class="cls-22" d="M390.768,569.885c4.046-5.023,6.443-11.171,6.866-17.607h0c3.899,1.576,5.817,5.986,4.31,9.913h0l-1.263,3.385h0c-1.576,3.9-5.986,5.817-9.913,4.31"/>
          <path class="cls-18" d="M390.768,569.885c4.046-5.023,6.443-11.171,6.866-17.607h0c3.899,1.576,5.817,5.986,4.31,9.913h0l-1.263,3.385h0c-1.576,3.9-5.986,5.817-9.913,4.31h0"/>
        </g>
      </g>
      <g>
        <path class="cls-21" d="M407.353,472.924l-19.85,53.994c-.334,.895-1.33,1.349-2.224,1.016h0s-53.437-19.495-53.437-19.495c-.895-.334-1.349-1.33-1.016-2.224h0l19.85-53.994c.334-.895,1.33-1.349,2.224-1.016h0s53.437,19.495,53.437,19.495c.895,.334,1.349,1.33,1.016,2.224h0Z"/>
        <path class="cls-10" d="M408.793,473.461l-19.85,53.994c-.334,.895-1.33,1.349-2.224,1.016h0s-53.437-19.495-53.437-19.495c-.895-.334-1.349-1.33-1.016-2.224h0l19.85-53.994c.334-.895,1.33-1.349,2.224-1.016h0s53.437,19.495,53.437,19.495c.895,.334,1.349,1.33,1.016,2.224h0Z"/>
        <path class="cls-8" d="M410.413,474.065l-19.85,53.994c-.334,.895-1.33,1.349-2.224,1.016h0s-53.437-19.495-53.437-19.495c-.895-.334-1.349-1.33-1.016-2.224h0l19.85-53.994c.334-.895,1.33-1.349,2.224-1.016h0s53.437,19.495,53.437,19.495c.895,.334,1.349,1.33,1.016,2.224h0Z"/>
        <g>
          <path class="cls-22" d="M341.333,481.417c-.971,2.388-3.636,3.605-6.077,2.775l-10.154-3.788c-3.905-1.457-6.932-2.883-5.475-6.788l2.331-6.249h0c1.576-3.9,5.986-5.817,9.913-4.31l10.154,3.788c2.388,.972,3.605,3.637,2.775,6.077h0l-3.466,8.495h0Z"/>
          <path class="cls-15" d="M341.042,482.198c-.971,2.388-3.636,3.605-6.077,2.775l-10.154-3.788c-3.899-1.576-5.817-5.986-4.31-9.913h0l1.263-3.385h0c1.576-3.9,5.986-5.817,9.913-4.31l10.154,3.788c2.388,.972,3.605,3.637,2.775,6.077h0l-3.563,8.755h0Z"/>
          <path class="cls-14" d="M341.108,482.816h0c-.882,2.431-3.568,3.686-5.999,2.804h0s-.078-.029-.078-.029l-10.251-3.528h0c-3.954-1.433-6.031-5.771-4.667-9.75h0l1.002-3.482h0c1.433-3.954,5.771-6.031,9.749-4.667h0l10.251,3.528h0c2.383,.832,3.66,3.419,2.872,5.817h0l-2.879,9.307h0Z"/>
          <path class="cls-22" d="M331.385,464.358c-4.046,5.023-6.443,11.171-6.866,17.607h0c-3.899-1.576-5.817-5.986-4.31-9.913h0l1.263-3.385h0c1.576-3.9,5.986-5.817,9.913-4.31"/>
          <path class="cls-18" d="M331.385,464.358c-4.046,5.023-6.443,11.171-6.866,17.607h0c-3.899-1.576-5.817-5.986-4.31-9.913h0l1.263-3.385h0c1.576-3.9,5.986-5.817,9.913-4.31h0"/>
        </g>
        <g>
          <path class="cls-22" d="M402.566,495.196c.971-2.388,3.636-3.605,6.077-2.775l10.154,3.788c3.905,1.457,6.932,2.883,5.475,6.788l-2.331,6.249h0c-1.576,3.9-5.986,5.817-9.913,4.31l-10.154-3.788c-2.388-.972-3.605-3.637-2.775-6.077h0l3.466-8.495h0Z"/>
          <path class="cls-15" d="M402.858,494.415c.971-2.388,3.636-3.605,6.077-2.775l10.154,3.788c3.899,1.576,5.817,5.986,4.31,9.913h0l-1.263,3.385h0c-1.576,3.9-5.986,5.817-9.913,4.31l-10.154-3.788c-2.388-.972-3.605-3.637-2.775-6.077h0l3.563-8.755h0Z"/>
          <path class="cls-14" d="M402.792,493.797h0c.882-2.431,3.568-3.686,5.999-2.804h0s.078,.029,.078,.029l10.251,3.528h0c3.954,1.433,6.031,5.771,4.667,9.75h0l-1.002,3.482h0c-1.433,3.954-5.771,6.031-9.749,4.667h0l-10.251-3.528h0c-2.383-.832-3.66-3.419-2.872-5.817h0l2.879-9.307h0Z"/>
          <path class="cls-22" d="M412.515,512.255c4.046-5.023,6.443-11.171,6.866-17.607h0c3.899,1.576,5.817,5.986,4.31,9.913h0l-1.263,3.385h0c-1.576,3.9-5.986,5.817-9.913,4.31"/>
          <path class="cls-18" d="M412.515,512.255c4.046-5.023,6.443-11.171,6.866-17.607h0c3.899,1.576,5.817,5.986,4.31,9.913h0l-1.263,3.385h0c-1.576,3.9-5.986,5.817-9.913,4.31h0"/>
        </g>
      </g>
      <g>
        <path class="cls-21" d="M429.664,415.208l-19.85,53.994c-.334,.895-1.33,1.349-2.224,1.016h0s-53.437-19.495-53.437-19.495c-.895-.334-1.349-1.33-1.016-2.224h0l19.85-53.994c.334-.895,1.33-1.349,2.224-1.016h0s53.437,19.495,53.437,19.495c.895,.334,1.349,1.33,1.016,2.224h0Z"/>
        <path class="cls-10" d="M431.104,415.745l-19.85,53.994c-.334,.895-1.33,1.349-2.224,1.016h0s-53.437-19.495-53.437-19.495c-.895-.334-1.349-1.33-1.016-2.224h0l19.85-53.994c.334-.895,1.33-1.349,2.224-1.016h0s53.437,19.495,53.437,19.495c.895,.334,1.349,1.33,1.016,2.224h0Z"/>
        <path class="cls-8" d="M432.724,416.35l-19.85,53.994c-.334,.895-1.33,1.349-2.224,1.016h0s-53.437-19.495-53.437-19.495c-.895-.334-1.349-1.33-1.016-2.224h0l19.85-53.994c.334-.895,1.33-1.349,2.224-1.016h0s53.437,19.495,53.437,19.495c.895,.334,1.349,1.33,1.016,2.224h0Z"/>
        <g>
          <path class="cls-22" d="M363.645,423.701c-.971,2.388-3.636,3.605-6.077,2.775l-10.154-3.788c-3.905-1.457-6.932-2.883-5.475-6.788l2.331-6.249h0c1.576-3.9,5.986-5.817,9.913-4.31l10.154,3.788c2.388,.972,3.605,3.637,2.775,6.077h0l-3.466,8.495h0Z"/>
          <path class="cls-15" d="M363.353,424.482c-.971,2.388-3.636,3.605-6.077,2.775l-10.154-3.788c-3.899-1.576-5.817-5.986-4.31-9.913h0l1.263-3.385h0c1.576-3.9,5.986-5.817,9.913-4.31l10.154,3.788c2.388,.972,3.605,3.637,2.775,6.077h0l-3.563,8.755h0Z"/>
          <path class="cls-14" d="M363.419,425.1h0c-.882,2.431-3.568,3.686-5.999,2.804h0s-.078-.029-.078-.029l-10.251-3.528h0c-3.954-1.433-6.031-5.771-4.667-9.75h0l1.002-3.482h0c1.433-3.954,5.771-6.031,9.749-4.667h0l10.251,3.528h0c2.383,.832,3.66,3.419,2.872,5.817h0l-2.879,9.307h0Z"/>
          <path class="cls-22" d="M353.696,406.643c-4.046,5.023-6.443,11.171-6.866,17.607h0c-3.899-1.576-5.817-5.986-4.31-9.913h0l1.263-3.385h0c1.576-3.9,5.986-5.817,9.913-4.31"/>
          <path class="cls-18" d="M353.696,406.643c-4.046,5.023-6.443,11.171-6.866,17.607h0c-3.899-1.576-5.817-5.986-4.31-9.913h0l1.263-3.385h0c1.576-3.9,5.986-5.817,9.913-4.31h0"/>
        </g>
        <g>
          <path class="cls-22" d="M424.878,437.481c.971-2.388,3.636-3.605,6.077-2.775l10.154,3.788c3.905,1.457,6.932,2.883,5.475,6.788l-2.331,6.249h0c-1.576,3.9-5.986,5.817-9.913,4.31l-10.154-3.788c-2.388-.972-3.605-3.637-2.775-6.077h0l3.466-8.495h0Z"/>
          <path class="cls-15" d="M425.169,436.7c.971-2.388,3.636-3.605,6.077-2.775l10.154,3.788c3.899,1.576,5.817,5.986,4.31,9.913h0l-1.263,3.385h0c-1.576,3.9-5.986,5.817-9.913,4.31l-10.154-3.788c-2.388-.972-3.605-3.637-2.775-6.077h0l3.563-8.755h0Z"/>
          <path class="cls-14" d="M425.103,436.082h0c.882-2.431,3.568-3.686,5.999-2.804h0s.078,.029,.078,.029l10.251,3.528h0c3.954,1.433,6.031,5.771,4.667,9.75h0l-1.002,3.482h0c-1.433,3.954-5.771,6.031-9.749,4.667h0l-10.251-3.528h0c-2.383-.832-3.66-3.419-2.872-5.817h0l2.879-9.307h0Z"/>
          <path class="cls-22" d="M434.826,454.539c4.046-5.023,6.443-11.171,6.866-17.607h0c3.899,1.576,5.817,5.986,4.31,9.913h0l-1.263,3.385h0c-1.576,3.9-5.986,5.817-9.913,4.31"/>
          <path class="cls-18" d="M434.826,454.539c4.046-5.023,6.443-11.171,6.866-17.607h0c3.899,1.576,5.817,5.986,4.31,9.913h0l-1.263,3.385h0c-1.576,3.9-5.986,5.817-9.913,4.31h0"/>
        </g>
      </g>
      <g>
        <path class="cls-21" d="M233.524,487.885l-11.4,31.387c-.334,.895-1.33,1.349-2.224,1.016h0s-68.493-24.196-68.493-24.196c-.895-.334-1.349-1.33-1.016-2.224h0l11.4-31.387c.334-.895,1.33-1.349,2.224-1.016h0s68.493,24.196,68.493,24.196c.895,.334,1.349,1.33,1.016,2.224h0Z"/>
        <path class="cls-10" d="M234.964,488.422l-11.4,31.387c-.334,.895-1.33,1.349-2.224,1.016h0s-68.493-24.196-68.493-24.196c-.895-.334-1.349-1.33-1.016-2.224h0l11.4-31.387c.334-.895,1.33-1.349,2.224-1.016h0s68.493,24.196,68.493,24.196c.895,.334,1.349,1.33,1.016,2.224h0Z"/>
        <path class="cls-8" d="M236.584,489.027l-11.4,31.387c-.334,.895-1.33,1.349-2.224,1.016h0s-68.493-24.196-68.493-24.196c-.895-.334-1.349-1.33-1.016-2.224h0l11.4-31.387c.334-.895,1.33-1.349,2.224-1.016h0s68.493,24.196,68.493,24.196c.895,.334,1.349,1.33,1.016,2.224h0Z"/>
        <g>
          <path class="cls-22" d="M172.215,505.3c2.388,.971,3.605,3.636,2.775,6.077l-3.788,10.154c-1.457,3.905-2.883,6.932-6.788,5.475l-6.249-2.331h0c-3.9-1.576-5.817-5.986-4.31-9.913l3.788-10.154c.972-2.388,3.637-3.605,6.077-2.775h0l8.495,3.466h0Z"/>
          <path class="cls-15" d="M172.996,505.592c2.388,.971,3.605,3.636,2.775,6.077l-3.788,10.154c-1.576,3.899-5.986,5.817-9.913,4.31h0l-3.385-1.263h0c-3.9-1.576-5.817-5.986-4.31-9.913l3.788-10.154c.972-2.388,3.637-3.605,6.077-2.775h0l8.755,3.563h0Z"/>
          <path class="cls-14" d="M173.614,505.526h0c2.431,.882,3.686,3.568,2.804,5.999h0s-.029,.079-.029,.079l-3.528,10.251h0c-1.433,3.954-5.771,6.031-9.75,4.667h0l-3.482-1.002h0c-3.954-1.433-6.031-5.771-4.667-9.749h0l3.528-10.251h0c.832-2.383,3.419-3.66,5.817-2.872h0l9.307,2.879h0Z"/>
          <path class="cls-22" d="M155.157,515.249c5.023,4.046,11.171,6.443,17.607,6.866h0c-1.576,3.899-5.986,5.817-9.913,4.31h0l-3.385-1.263h0c-3.9-1.576-5.817-5.986-4.31-9.913"/>
          <path class="cls-18" d="M155.157,515.249c5.023,4.046,11.171,6.443,17.607,6.866h0c-1.576,3.899-5.986,5.817-9.913,4.31h0l-3.385-1.263h0c-3.9-1.576-5.817-5.986-4.31-9.913h0"/>
        </g>
        <g>
          <path class="cls-22" d="M197.882,471.824c-2.388-.971-3.605-3.636-2.775-6.077l3.788-10.154c1.457-3.905,2.883-6.932,6.788-5.475l6.249,2.331h0c3.9,1.576,5.817,5.986,4.31,9.913l-3.788,10.154c-.972,2.388-3.637,3.605-6.077,2.775h0l-8.495-3.466h0Z"/>
          <path class="cls-15" d="M197.101,471.533c-2.388-.971-3.605-3.636-2.775-6.077l3.788-10.154c1.576-3.899,5.986-5.817,9.913-4.31h0l3.385,1.263h0c3.9,1.576,5.817,5.986,4.31,9.913l-3.788,10.154c-.972,2.388-3.637,3.605-6.077,2.775h0l-8.755-3.563h0Z"/>
          <path class="cls-14" d="M196.484,471.599h0c-2.431-.882-3.686-3.568-2.804-5.999h0s.029-.079,.029-.079l3.528-10.251h0c1.433-3.954,5.771-6.031,9.75-4.667h0l3.482,1.002h0c3.954,1.433,6.031,5.771,4.667,9.749h0l-3.528,10.251h0c-.832,2.383-3.419,3.66-5.817,2.872h0l-9.307-2.879h0Z"/>
          <path class="cls-22" d="M214.941,461.876c-5.023-4.046-11.171-6.443-17.607-6.866h0c1.576-3.899,5.986-5.817,9.913-4.31h0l3.385,1.263h0c3.9,1.576,5.817,5.986,4.31,9.913"/>
          <path class="cls-18" d="M214.941,461.876c-5.023-4.046-11.171-6.443-17.607-6.866h0c1.576-3.899,5.986-5.817,9.913-4.31h0l3.385,1.263h0c3.9,1.576,5.817,5.986,4.31,9.913h0"/>
        </g>
        <g>
          <path class="cls-22" d="M204.528,517.47c2.388,.971,3.605,3.636,2.775,6.077l-3.788,10.154c-1.457,3.905-2.883,6.932-6.788,5.475l-6.249-2.331h0c-3.9-1.576-5.817-5.986-4.31-9.913l3.788-10.154c.972-2.388,3.637-3.605,6.077-2.775h0l8.495,3.466h0Z"/>
          <path class="cls-15" d="M205.309,517.762c2.388,.971,3.605,3.636,2.775,6.077l-3.788,10.154c-1.576,3.899-5.986,5.817-9.913,4.31h0l-3.385-1.263h0c-3.9-1.576-5.817-5.986-4.31-9.913l3.788-10.154c.972-2.388,3.637-3.605,6.077-2.775h0l8.755,3.563h0Z"/>
          <path class="cls-14" d="M205.927,517.696h0c2.431,.882,3.686,3.568,2.804,5.999h0s-.029,.079-.029,.079l-3.528,10.251h0c-1.433,3.954-5.771,6.031-9.75,4.667h0l-3.482-1.002h0c-3.954-1.433-6.031-5.771-4.667-9.749h0l3.528-10.251h0c.832-2.383,3.419-3.66,5.817-2.872h0l9.307,2.879h0Z"/>
          <path class="cls-22" d="M187.47,527.419c5.023,4.046,11.171,6.443,17.607,6.866h0c-1.576,3.899-5.986,5.817-9.913,4.31h0l-3.385-1.263h0c-3.9-1.576-5.817-5.986-4.31-9.913"/>
          <path class="cls-18" d="M187.47,527.419c5.023,4.046,11.171,6.443,17.607,6.866h0c-1.576,3.899-5.986,5.817-9.913,4.31h0l-3.385-1.263h0c-3.9-1.576-5.817-5.986-4.31-9.913h0"/>
        </g>
      </g>
    </g>
  </g>
  <g id="Bookings">
    <polygon id="area-01.102-status" class="cls-20" points="111.296 361.186 137.464 370.59 123.24 409.617 284.23 468.167 247.009 571.513 61.391 502.147 111.296 361.186"/>
    <polygon id="area-01.101-status" class="cls-20" points="1051.708 724.052 862.095 655.046 823.697 774.805 1011.695 831.403 1051.708 724.052"/>
    <text class="cls-9" transform="translate(918.127 738.675)"><tspan class="cls-23" x="0" y="0">T</tspan><tspan x="6.982" y="0">eam</tspan><tspan x="-1.914" y="13">Room</tspan><tspan x="3.856" y="26">M01</tspan></text>
    <text class="cls-9" transform="translate(154.2 472.357)"><tspan class="cls-23" x="0" y="0">T</tspan><tspan x="6.982" y="0">eam</tspan><tspan x="-1.914" y="13">Room</tspan><tspan x="3.856" y="26">M02</tspan></text>
    <text class="cls-17" transform="translate(552.492 325.281)"><tspan x="0" y="0">BALCON</tspan><tspan class="cls-6" x="26.656" y="0">Y</tspan></text>
    <text class="cls-17" transform="translate(812.785 484.276)"><tspan class="cls-24" x="0" y="0">A</tspan><tspan x="3.846" y="0">TRIO</tspan></text>
  </g>
  <g id="Stroke">
    <polygon class="cls-3" points="394.764 167.875 84.754 212.804 109.016 360.171 61.391 502.147 788.342 763.633 1012.987 834.621 1093.859 603.686 1074.989 597.396 1155.861 320.634 1039.046 290.082 962.667 315.242 949.188 351.185 797.328 297.271 772.168 357.475 392.069 215.5 396.561 202.021 394.764 167.875"/>
    <polyline class="cls-1" points="332.153 338.53 318.939 374.982 328.371 348.96 258.336 322.126 240.088 190.292"/>
    <line class="cls-1" x1="300.867" y1="204.906" x2="298.037" y2="181.894"/>
    <polyline class="cls-1" points="305.806 235.993 307.259 249.358 249.289 256.763 307.259 249.358 318.59 252.554"/>
    <polyline class="cls-1" points="349.677 262.723 381.927 273.763 401.254 218.931"/>
    <line class="cls-1" x1="341.251" y1="311.242" x2="359.334" y2="266.029"/>
    <polyline class="cls-1" points="758.042 412.073 750.96 429.506 350.293 282.637"/>
    <polyline class="cls-1" points="772.168 357.475 762.945 383.2 795.087 394.64"/>
    <line class="cls-1" x1="826.14" y1="405.536" x2="866.454" y2="420.79"/>
    <polyline class="cls-1" points="898.596 431.904 923.656 440.402 917.118 457.835 970.105 312.792"/>
    <polyline class="cls-1" points="898.596 513.947 877.349 576.597 834.856 562.433 1078.696 646.987"/>
    <line class="cls-1" x1="1079.936" y1="580.467" x2="1048.955" y2="570.06"/>
    <polygon class="cls-1" points="983.581 465.462 1022.261 357.475 1068.023 371.76 1036.97 480.716 983.581 465.462"/>
    <line class="cls-1" x1="978.775" y1="612.338" x2="967.238" y2="643.605"/>
    <polyline class="cls-1" points="1051.708 724.052 862.095 655.046 840.849 718.24"/>
    <line class="cls-1" x1="956.776" y1="677.926" x2="952.763" y2="688.043"/>
    <line class="cls-1" x1="886.369" y1="663.88" x2="889.879" y2="655.046"/>
    <polyline class="cls-1" points="902.954 620.18 906.223 612.338 880.618 602.747 888.124 580.904"/>
    <polyline class="cls-1" points="791.819 547.179 718.818 521.574 729.169 494.184 718.818 521.574 715.549 530.836 691.579 523.753 680.138 556.44 704.109 565.702 675.235 643.605 679.667 631.647 709.557 643.605"/>
    <line class="cls-1" x1="660.526" y1="677.382" x2="648.538" y2="713.345"/>
    <polyline class="cls-1" points="109.016 360.171 137.464 370.59 123.24 409.617 286.12 468.855 266.393 518.336 308.905 409.617"/>
  </g>
  <g id="icon">
    <g>
      <circle class="cls-7" cx="1093.859" cy="401.582" r="10.46"/>
      <g>
        <path class="cls-16" d="M1086.908,418.538l.519-.045c.016,.182,.075,.357,.172,.512,.106,.146,.251,.258,.419,.323,.202,.085,.419,.127,.638,.124,.19,.003,.379-.028,.557-.094,.142-.049,.266-.138,.358-.257,.077-.103,.118-.228,.118-.356,.002-.124-.038-.244-.113-.342-.101-.114-.23-.199-.375-.246-.243-.079-.49-.146-.74-.2-.276-.057-.544-.144-.8-.26-.18-.087-.333-.221-.444-.387-.098-.155-.148-.335-.146-.518,0-.209,.062-.414,.179-.588,.127-.189,.309-.334,.522-.416,.243-.097,.502-.145,.764-.142,.279-.005,.556,.045,.815,.149,.221,.087,.411,.24,.543,.438,.128,.195,.199,.422,.205,.655l-.528,.04c-.01-.231-.114-.447-.288-.6-.211-.148-.468-.219-.725-.2-.256-.021-.512,.043-.728,.183-.142,.102-.227,.266-.229,.441-.004,.141,.055,.276,.161,.369,.253,.155,.536,.257,.83,.3,.314,.062,.622,.151,.921,.266,.214,.089,.4,.236,.536,.424,.116,.175,.177,.381,.173,.591,0,.223-.066,.44-.189,.626-.134,.202-.324,.361-.547,.457-.252,.112-.525,.167-.8,.163-.323,.01-.645-.046-.946-.165-.246-.103-.455-.277-.6-.5-.146-.221-.227-.48-.232-.745Z"/>
        <path class="cls-16" d="M1092.019,419.417l.074,.451c-.127,.028-.256,.043-.386,.045-.149,.008-.298-.022-.432-.088-.095-.052-.171-.133-.216-.231-.053-.195-.074-.398-.062-.6v-1.734h-.374v-.4h.374v-.747l.508-.306v1.053h.514v.4h-.514v1.762c-.006,.094,.003,.189,.027,.281,.018,.042,.049,.077,.088,.1,.054,.028,.115,.04,.175,.037,.075-.002,.15-.01,.224-.023Z"/>
        <path class="cls-16" d="M1094.485,419.503c-.161,.144-.346,.259-.546,.34-.18,.067-.371,.101-.563,.1-.276,.018-.549-.068-.764-.242-.176-.157-.274-.384-.267-.62-.003-.28,.134-.542,.365-.7,.112-.075,.236-.132,.367-.167,.15-.035,.301-.06,.454-.076,.308-.028,.613-.087,.91-.176v-.133c.017-.161-.036-.321-.145-.44-.166-.127-.373-.188-.581-.173-.186-.014-.372,.03-.532,.126-.133,.115-.223,.273-.254,.447l-.5-.068c.034-.188,.111-.365,.225-.518,.119-.141,.275-.245,.451-.3,.22-.075,.452-.11,.684-.106,.213-.007,.425,.024,.627,.091,.136,.044,.258,.123,.354,.229,.08,.101,.135,.221,.159,.348,.021,.156,.03,.314,.025,.471v.681c-.008,.3,.003,.601,.033,.9,.022,.127,.066,.25,.129,.362h-.533c-.055-.118-.088-.246-.098-.376Zm-.043-1.141c-.27,.096-.55,.161-.834,.193-.152,.016-.301,.049-.445,.1-.082,.034-.151,.092-.2,.166-.12,.188-.085,.436,.083,.583,.129,.099,.291,.147,.453,.136,.183,.003,.364-.041,.524-.129,.147-.079,.265-.203,.338-.354,.063-.163,.091-.337,.082-.511v-.184Z"/>
        <path class="cls-16" d="M1095.753,416.302v-.587h.511v.587h-.511Zm0,3.572v-3.013h.511v3.013h-.511Z"/>
        <path class="cls-16" d="M1097.036,419.874v-3.013h.46v.457c.076-.163,.187-.307,.325-.423,.096-.066,.21-.101,.327-.1,.187,.005,.369,.062,.525,.165l-.176,.474c-.113-.07-.242-.109-.375-.111-.108,0-.214,.034-.3,.1-.091,.071-.158,.169-.19,.28-.059,.194-.087,.397-.085,.6v1.578l-.511-.007Z"/>
        <path class="cls-16" d="M1098.772,418.975l.5-.08c.017,.18,.102,.346,.237,.465,.156,.117,.349,.174,.544,.162,.185,.014,.369-.036,.521-.143,.105-.08,.168-.204,.17-.336,.002-.111-.055-.215-.15-.272-.166-.079-.341-.137-.521-.173-.266-.059-.527-.142-.779-.246-.272-.121-.446-.393-.441-.691,0-.13,.031-.258,.093-.373,.061-.113,.146-.211,.251-.285,.099-.068,.209-.118,.325-.149,.143-.041,.292-.062,.441-.061,.212-.005,.422,.029,.622,.1,.157,.052,.296,.148,.4,.277,.094,.14,.154,.3,.176,.467l-.5,.068c-.016-.143-.088-.273-.2-.363-.134-.095-.297-.141-.461-.13-.175-.015-.35,.026-.5,.116-.091,.061-.147,.162-.15,.272,0,.065,.022,.129,.063,.179,.053,.063,.122,.11,.2,.136,.052,.019,.202,.063,.451,.131,.257,.063,.51,.142,.757,.237,.135,.055,.252,.148,.336,.268,.085,.13,.127,.282,.122,.437,0,.172-.052,.339-.149,.481-.106,.156-.255,.277-.43,.349-.201,.085-.418,.127-.636,.123-.317,.022-.633-.064-.895-.244-.218-.182-.36-.44-.397-.722Z"/>
      </g>
      <g id="Outline_Icons-2-2-4-2-2-2-3-4" data-name="Outline Icons-2-2-4-2-2-2-3-4">
        <line class="cls-5" x1="1089.836" y1="405.096" x2="1097.158" y2="405.096"/>
        <polyline class="cls-5" points="1095.88 405.096 1095.88 403.817 1094.602 403.817 1094.602 402.539 1093.323 402.539 1093.323 401.26 1092.045 401.26 1092.045 399.982 1089.836 399.982"/>
        <line class="cls-5" x1="1093.672" y1="397.774" x2="1097.623" y2="401.725"/>
        <polyline class="cls-5" points="1093.672 399.401 1093.672 397.774 1095.299 397.774"/>
        <polyline class="cls-5" points="1097.623 400.214 1097.623 401.725 1096.112 401.725"/>
      </g>
    </g>
    <g>
      <circle class="cls-7" cx="323.426" cy="269.812" r="10.46"/>
      <g id="Outline_Icons-5-3-3" data-name="Outline Icons-5-3-3">
        <path class="cls-5" d="M327.145,270.044c0,.116-.116,.349-.232,.349h-2.092v-4.3c-.011-.438,.335-.803,.773-.814,.014,0,.027,0,.041,0h.814c.438-.011,.803,.335,.814,.774,0,.013,0,.027,0,.04h0l-.116,3.952h-.002Z"/>
        <path class="cls-5" d="M321.683,274.345h3.952v-2.321l1.162-.814v-.814h-6.741c-.079,1.01,.676,1.893,1.686,1.972,.019,.001,.038,.003,.057,.004h.116l-.232,1.973Z"/>
        <rect class="cls-5" x="319.707" y="269.695" width="5.114" height=".814"/>
        <circle class="cls-5" cx="326.215" cy="266.674" r=".349"/>
      </g>
      <g>
        <path class="cls-16" d="M316.91,288.104v-3.669h-1.37v-.491h3.3v.491h-1.376v3.669h-.554Z"/>
        <path class="cls-16" d="M318.502,286.597c-.038-.462,.133-.917,.466-1.24,.263-.225,.601-.344,.947-.335,.381-.014,.75,.134,1.016,.407,.277,.307,.419,.712,.395,1.125,.015,.314-.045,.628-.174,.915-.114,.219-.291,.4-.508,.518-.223,.123-.474,.186-.729,.184-.383,.016-.754-.132-1.022-.406-.279-.323-.42-.742-.391-1.168Zm.525,0c-.023,.31,.066,.618,.252,.867,.306,.35,.838,.387,1.188,.081,.029-.025,.056-.052,.081-.081,.188-.254,.278-.568,.253-.883,.022-.304-.069-.605-.254-.847-.307-.35-.839-.385-1.19-.078-.028,.024-.054,.051-.078,.078-.186,.248-.276,.554-.253,.863h0Z"/>
        <path class="cls-16" d="M321.926,284.532v-.588h.511v.587h-.511Zm0,3.573v-3.013h.511v3.013h-.511Z"/>
        <path class="cls-16" d="M323.203,288.104v-4.16h.511v4.16h-.511Z"/>
        <path class="cls-16" d="M326.568,287.134l.528,.065c-.068,.285-.231,.539-.463,.718-.597,.39-1.383,.328-1.911-.151-.274-.315-.413-.725-.387-1.142-.027-.43,.113-.853,.392-1.181,.262-.281,.632-.434,1.016-.42,.373-.012,.733,.138,.987,.412,.272,.322,.409,.737,.383,1.158v.136h-2.247c-.001,.279,.098,.549,.281,.76,.163,.174,.392,.27,.63,.264,.172,.005,.34-.047,.479-.147,.148-.123,.257-.287,.312-.472Zm-1.677-.826h1.683c-.005-.205-.072-.404-.192-.57-.152-.194-.387-.305-.633-.3-.221-.006-.435,.079-.592,.235-.166,.17-.261,.397-.266,.635Z"/>
        <path class="cls-16" d="M328.852,287.647l.074,.451c-.127,.028-.256,.043-.386,.045-.149,.008-.298-.022-.432-.088-.095-.052-.171-.133-.216-.231-.053-.195-.074-.398-.062-.6v-1.736h-.374v-.4h.374v-.744l.508-.306v1.053h.514v.4h-.514v1.762c-.006,.095,.003,.189,.027,.281,.018,.042,.049,.077,.088,.1,.054,.028,.115,.04,.175,.037,.075-.003,.15-.011,.224-.024Z"/>
        <path class="cls-16" d="M329.148,287.205l.5-.08c.016,.18,.101,.346,.237,.465,.156,.117,.349,.174,.543,.162,.185,.014,.37-.036,.522-.143,.105-.08,.168-.204,.17-.336,.002-.111-.055-.215-.15-.272-.166-.079-.341-.137-.522-.173-.266-.06-.526-.142-.778-.246-.272-.121-.446-.393-.441-.691-.001-.13,.031-.258,.092-.373,.061-.113,.147-.211,.252-.285,.099-.068,.208-.118,.324-.149,.143-.041,.292-.062,.441-.061,.212-.005,.423,.029,.623,.1,.158,.051,.297,.148,.4,.277,.094,.14,.154,.3,.176,.467l-.5,.068c-.017-.142-.088-.273-.2-.363-.134-.095-.297-.14-.461-.13-.175-.015-.35,.026-.5,.116-.091,.061-.147,.162-.15,.272,0,.065,.021,.128,.062,.179,.053,.063,.122,.11,.2,.136,.051,.019,.201,.063,.451,.131,.257,.063,.509,.142,.756,.237,.135,.056,.252,.149,.337,.268,.085,.13,.127,.282,.122,.437,0,.172-.052,.339-.149,.481-.106,.156-.256,.277-.43,.349-.201,.085-.418,.127-.636,.123-.319,.023-.636-.063-.9-.244-.216-.183-.355-.441-.391-.722Z"/>
      </g>
    </g>
    <g>
      <circle class="cls-7" cx="1003.466" cy="659.929" r="10.46"/>
      <g id="Outline_Icons-5-3-3-2" data-name="Outline Icons-5-3-3">
        <path class="cls-5" d="M1007.185,660.161c0,.116-.116,.349-.232,.349h-2.092v-4.3c-.011-.438,.335-.803,.773-.814,.014,0,.027,0,.041,0h.814c.438-.011,.803,.335,.814,.774,0,.013,0,.027,0,.04h0l-.116,3.952h-.002Z"/>
        <path class="cls-5" d="M1001.723,664.462h3.952v-2.321l1.162-.814v-.814h-6.741c-.079,1.01,.676,1.893,1.686,1.972,.019,.001,.038,.003,.057,.004h.116l-.232,1.973Z"/>
        <rect class="cls-5" x="999.747" y="659.812" width="5.114" height=".814"/>
        <circle class="cls-5" cx="1006.255" cy="656.791" r=".349"/>
      </g>
      <g>
        <path class="cls-16" d="M996.95,678.221v-3.669h-1.37v-.491h3.3v.491h-1.376v3.669h-.554Z"/>
        <path class="cls-16" d="M998.542,676.714c-.038-.462,.133-.917,.466-1.24,.263-.225,.601-.344,.947-.335,.381-.014,.75,.134,1.016,.407,.277,.307,.419,.712,.395,1.125,.015,.314-.045,.628-.174,.915-.114,.219-.291,.4-.508,.518-.223,.123-.474,.186-.729,.184-.383,.016-.754-.132-1.022-.406-.279-.323-.42-.742-.391-1.168Zm.525,0c-.023,.31,.066,.618,.252,.867,.306,.35,.838,.387,1.188,.081,.029-.025,.056-.052,.081-.081,.188-.254,.278-.568,.253-.883,.022-.304-.069-.605-.254-.847-.307-.35-.839-.385-1.19-.078-.028,.024-.054,.051-.078,.078-.186,.248-.276,.554-.253,.863h0Z"/>
        <path class="cls-16" d="M1001.966,674.649v-.588h.511v.587h-.511Zm0,3.573v-3.013h.511v3.013h-.511Z"/>
        <path class="cls-16" d="M1003.243,678.221v-4.16h.511v4.16h-.511Z"/>
        <path class="cls-16" d="M1006.608,677.251l.528,.065c-.068,.285-.231,.539-.463,.718-.597,.39-1.383,.328-1.911-.151-.274-.315-.413-.725-.387-1.142-.027-.43,.113-.853,.392-1.181,.262-.281,.632-.434,1.016-.42,.373-.012,.733,.138,.987,.412,.272,.322,.409,.737,.383,1.158v.136h-2.247c-.001,.279,.098,.549,.281,.76,.163,.174,.392,.27,.63,.264,.172,.005,.34-.047,.479-.147,.148-.123,.257-.287,.312-.472Zm-1.677-.826h1.683c-.005-.205-.072-.404-.192-.57-.152-.194-.387-.305-.633-.3-.221-.006-.435,.079-.592,.235-.166,.17-.261,.397-.266,.635Z"/>
        <path class="cls-16" d="M1008.892,677.764l.074,.451c-.127,.028-.256,.043-.386,.045-.149,.008-.298-.022-.432-.088-.095-.052-.171-.133-.216-.231-.053-.195-.074-.398-.062-.6v-1.736h-.374v-.4h.374v-.744l.508-.306v1.053h.514v.4h-.514v1.762c-.006,.095,.003,.189,.027,.281,.018,.042,.049,.077,.088,.1,.054,.028,.115,.04,.175,.037,.075-.003,.15-.011,.224-.024Z"/>
        <path class="cls-16" d="M1009.188,677.322l.5-.08c.016,.18,.101,.346,.237,.465,.156,.117,.349,.174,.543,.162,.185,.014,.37-.036,.522-.143,.105-.08,.168-.204,.17-.336,.002-.111-.055-.215-.15-.272-.166-.079-.341-.137-.522-.173-.266-.06-.526-.142-.778-.246-.272-.121-.446-.393-.441-.691-.001-.13,.031-.258,.092-.373,.061-.113,.147-.211,.252-.285,.099-.068,.208-.118,.324-.149,.143-.041,.292-.062,.441-.061,.212-.005,.423,.029,.623,.1,.158,.051,.297,.148,.4,.277,.094,.14,.154,.3,.176,.467l-.5,.068c-.017-.142-.088-.273-.2-.363-.134-.095-.297-.14-.461-.13-.175-.015-.35,.026-.5,.116-.091,.061-.147,.162-.15,.272,0,.065,.021,.128,.062,.179,.053,.063,.122,.11,.2,.136,.051,.019,.201,.063,.451,.131,.257,.063,.509,.142,.756,.237,.135,.056,.252,.149,.337,.268,.085,.13,.127,.282,.122,.437,0,.172-.052,.339-.149,.481-.106,.156-.256,.277-.43,.349-.201,.085-.418,.127-.636,.123-.319,.023-.636-.063-.9-.244-.216-.183-.355-.441-.391-.722Z"/>
      </g>
    </g>
    <g>
      <circle class="cls-7" cx="854.709" cy="366.532" r="10.46"/>
      <g>
        <path class="cls-16" d="M840.849,384.825v-4.16h3.008v.491h-2.457v1.274h2.3v.488h-2.3v1.416h2.554v.491h-3.105Z"/>
        <path class="cls-16" d="M844.635,384.825v-4.16h.511v4.16h-.511Z"/>
        <path class="cls-16" d="M848,383.855l.528,.065c-.068,.285-.231,.539-.463,.718-.597,.39-1.383,.328-1.911-.151-.274-.315-.413-.725-.387-1.142-.027-.43,.113-.853,.392-1.181,.262-.281,.632-.434,1.016-.42,.373-.012,.733,.138,.987,.412,.272,.322,.409,.737,.383,1.158v.136h-2.247c-.001,.279,.098,.549,.281,.76,.163,.174,.392,.27,.63,.264,.172,.005,.34-.047,.479-.147,.148-.123,.257-.287,.312-.472Zm-1.677-.826h1.683c-.005-.205-.072-.404-.192-.57-.152-.194-.387-.305-.633-.3-.221-.006-.435,.079-.592,.235-.166,.17-.261,.397-.266,.635h0Z"/>
        <path class="cls-16" d="M850.007,384.825l-1.146-3.013h.539l.646,1.8c.07,.195,.134,.398,.193,.607,.045-.159,.108-.35,.19-.573l.669-1.838h.525l-1.141,3.013-.475,.004Z"/>
        <path class="cls-16" d="M854.041,384.454c-.161,.144-.346,.259-.546,.34-.18,.067-.371,.101-.563,.1-.276,.018-.549-.068-.764-.242-.176-.157-.274-.384-.267-.62-.003-.28,.134-.542,.365-.7,.112-.075,.236-.132,.367-.167,.15-.035,.301-.06,.454-.076,.308-.028,.613-.087,.91-.176v-.133c.017-.161-.036-.321-.145-.44-.166-.127-.373-.188-.581-.173-.186-.014-.372,.03-.532,.126-.133,.115-.223,.273-.254,.447l-.5-.068c.034-.188,.111-.365,.225-.518,.119-.141,.275-.245,.451-.3,.22-.075,.452-.11,.684-.106,.213-.007,.425,.024,.627,.091,.136,.044,.258,.123,.354,.229,.08,.101,.135,.221,.159,.348,.021,.156,.03,.314,.025,.471v.681c-.008,.3,.003,.601,.033,.9,.022,.127,.066,.25,.129,.362h-.533c-.055-.118-.088-.246-.098-.376Zm-.043-1.141c-.27,.096-.55,.161-.834,.193-.152,.016-.301,.049-.445,.1-.082,.034-.151,.092-.2,.166-.12,.188-.085,.436,.083,.583,.129,.099,.291,.147,.453,.136,.183,.003,.364-.041,.524-.129,.147-.079,.265-.203,.338-.354,.063-.163,.091-.337,.082-.511v-.184Z"/>
        <path class="cls-16" d="M856.422,384.368l.073,.451c-.127,.028-.256,.043-.386,.045-.149,.008-.297-.022-.431-.088-.096-.051-.172-.132-.216-.231-.054-.195-.075-.398-.062-.6v-1.734h-.375v-.4h.375v-.747l.508-.306v1.053h.514v.4h-.514v1.762c-.006,.095,.003,.189,.027,.281,.018,.042,.049,.077,.088,.1,.054,.028,.114,.04,.174,.037,.075-.002,.151-.01,.225-.023Z"/>
        <path class="cls-16" d="M856.732,383.318c-.038-.462,.133-.917,.465-1.24,.264-.225,.601-.345,.948-.335,.381-.014,.75,.134,1.016,.407,.276,.307,.419,.712,.395,1.125,.015,.315-.046,.628-.175,.915-.114,.22-.291,.4-.508,.518-.223,.123-.474,.186-.728,.184-.383,.015-.755-.132-1.023-.406-.279-.323-.419-.743-.39-1.168Zm.524,0c-.023,.31,.067,.618,.253,.867,.306,.35,.838,.387,1.188,.081,.029-.025,.056-.052,.081-.081,.187-.255,.277-.568,.252-.883,.022-.304-.068-.605-.254-.847-.306-.35-.838-.385-1.188-.079-.028,.024-.054,.051-.079,.079-.186,.248-.276,.554-.253,.863Z"/>
        <path class="cls-16" d="M860.149,384.825v-3.013h.46v.457c.076-.163,.187-.307,.325-.423,.096-.066,.21-.101,.327-.1,.187,.005,.369,.062,.525,.165l-.176,.474c-.113-.07-.242-.109-.375-.111-.108,0-.214,.034-.3,.1-.091,.071-.158,.169-.19,.28-.059,.194-.087,.397-.085,.6v1.578l-.511-.007Z"/>
        <path class="cls-16" d="M863.362,384.825l1.1-1.566-1.019-1.447h.639l.462,.707c.088,.134,.157,.247,.21,.337,.084-.125,.16-.235,.23-.332l.508-.712h.61l-1.042,1.418,1.121,1.595h-.627l-.619-.937-.164-.252-.792,1.189h-.617Z"/>
        <path class="cls-16" d="M869.149,384.334v.491h-2.749c-.004-.121,.016-.241,.06-.354,.079-.203,.193-.39,.336-.554,.204-.229,.428-.44,.668-.63,.338-.258,.645-.554,.917-.881,.143-.174,.226-.389,.238-.614,.004-.194-.075-.38-.217-.512-.153-.142-.357-.217-.566-.208-.219-.01-.432,.07-.59,.221-.155,.165-.236,.387-.225,.613l-.524-.054c.01-.342,.156-.666,.405-.9,.266-.216,.603-.326,.945-.308,.347-.018,.687,.101,.947,.332,.229,.212,.356,.511,.35,.823,0,.169-.034,.336-.1,.491-.085,.186-.2,.358-.339,.508-.247,.261-.51,.505-.788,.732-.306,.257-.5,.432-.59,.523-.081,.085-.154,.177-.216,.277l2.038,.004Z"/>
      </g>
      <rect class="cls-4" x="849.92" y="361.643" width="10.006" height="10.006" rx=".357" ry=".357"/>
      <rect class="cls-4" x="851.964" y="363.922" width="2.578" height="7.612"/>
      <rect class="cls-4" x="854.542" y="363.922" width="2.578" height="7.612"/>
      <line class="cls-4" x1="854.048" y1="362.747" x2="855.815" y2="362.747"/>
      <polyline class="cls-2" points="858.119 366.869 858.596 366.422 859.074 366.869"/>
      <polyline class="cls-2" points="858.119 367.504 858.596 367.952 859.074 367.504"/>
    </g>
  </g>
</svg>