<?xml version="1.0" encoding="utf-8"?>
<!-- Generator: Adobe Illustrator 25.2.0, SVG Export Plug-In . SVG Version: 6.00 Build 0)  -->
<svg version="1.1" id="Layer_1" xmlns="http://www.w3.org/2000/svg" xmlns:xlink="http://www.w3.org/1999/xlink" x="0px" y="0px"
	 viewBox="0 0 843.1 551.2" style="enable-background:new 0 0 843.1 551.2;" xml:space="preserve">
<style type="text/css">
	.st0{fill:#4196B1;}
	.st1{fill:#A8E0E5;}
	.st2{fill:#8ECCCE;}
	.st3{fill:#99B8BF;}
	.st4{opacity:0.15;fill:#0D5577;enable-background:new    ;}
	.st5{fill:#0D5577;}
	.st6{fill:#83D8EF;stroke:#53C5F1;stroke-width:0.5642;stroke-linecap:round;stroke-linejoin:round;stroke-miterlimit:4.0013;}
	.st7{fill:#4E9FB9;stroke:#4A90A0;stroke-width:0.5642;stroke-linecap:round;stroke-linejoin:round;}
	.st8{fill:#4E9FB9;stroke:#4A90A0;stroke-width:0.5642;stroke-linecap:round;stroke-linejoin:round;stroke-miterlimit:4.0013;}
	.st9{fill:none;stroke:#53C5F1;stroke-width:0.5642;stroke-linecap:round;stroke-linejoin:round;}
	.st10{fill:none;stroke:#4A90A0;stroke-width:0.5642;stroke-linecap:round;stroke-linejoin:round;}
	.st11{opacity:0.4;fill:#4196B1;enable-background:new    ;}
	.st12{opacity:8.000000e-02;fill:#101010;enable-background:new    ;}
	.st13{fill:#4FAFC6;stroke:#5798A3;stroke-width:0.4704;stroke-linecap:round;stroke-linejoin:round;}
	.st14{fill:#7DCFE2;stroke:#53C5F1;stroke-width:0.5877;stroke-linecap:round;stroke-linejoin:round;}
	.st15{fill:#83D8EF;stroke:#53C5F1;stroke-width:0.3962;stroke-linecap:round;stroke-linejoin:round;stroke-miterlimit:4.0006;}
	.st16{fill:#83D8EF;stroke:#53C5F1;stroke-width:0.5642;stroke-linecap:round;stroke-linejoin:round;stroke-miterlimit:4.0003;}
	.st17{fill:#4E9FB9;stroke:#4A90A0;stroke-width:0.5642;stroke-linecap:round;stroke-linejoin:round;stroke-miterlimit:4.0003;}
	.st18{opacity:0.15;fill:#010101;enable-background:new    ;}
	.st19{fill:#596068;}
	.st20{fill:#9BAEB7;}
	.st21{fill:none;stroke:#7A8E93;stroke-width:1.0215;stroke-linecap:round;stroke-miterlimit:10;}
	.st22{opacity:0.1;fill:#030303;enable-background:new    ;}
	.st23{fill:#B8BFC1;}
	.st24{fill:#FFFFFF;}
	.st25{enable-background:new    ;}
	.st26{fill:#646B6D;}
	.st27{opacity:5.000000e-02;fill:#030303;enable-background:new    ;}
	.st28{fill:#5D5F5F;}
	.st29{fill:#747676;}
	.st30{opacity:0.74;fill:#575757;enable-background:new    ;}
	.st31{fill:none;stroke:#FFFFFF;stroke-width:8;stroke-miterlimit:10;}
	.st32{fill:none;stroke:#FFFFFF;stroke-width:4;stroke-miterlimit:10;}
	.st33{fill:#EBF2F2;}
	.st34{fill:none;stroke:#7A8E93;stroke-width:0.8308;stroke-miterlimit:10;}
	.st35{fill:none;stroke:#7A8E93;stroke-width:0.616;stroke-linecap:round;stroke-linejoin:round;}
	.st36{fill:none;stroke:#7A8E93;stroke-width:0.616;stroke-miterlimit:10;}
	.st37{fill:none;stroke:#7A8E93;stroke-width:0.5183;stroke-miterlimit:10;}
	.st38{fill:#7A8E93;stroke:#7A8E93;stroke-width:0.298;stroke-miterlimit:10;}
	.st39{fill:none;stroke:#7A8E93;stroke-width:0.74;stroke-linecap:round;stroke-linejoin:round;}
</style>
<rect id="shadow" x="37.6" y="30.9" class="st0" width="775.9" height="478.9"/>
<rect id="background_1_" x="39.6" y="37.6" class="st1" width="755.1" height="457.2"/>
<g id="space">
	<rect x="380.5" y="310.3" class="st2" width="55.8" height="184.5"/>
	<rect x="497.8" y="308.6" class="st2" width="54.1" height="186.1"/>
	<rect x="682" y="310.3" class="st2" width="58.7" height="184.5"/>
	<rect x="581.1" y="416.9" class="st2" width="100.9" height="77.8"/>
	<rect x="39.6" y="260.8" class="st2" width="140.9" height="122.1"/>
	<polygon class="st2" points="259.9,329.5 290.8,329.5 290.8,346 322.3,346 322.3,333.6 380.5,333.6 380.5,398.5 284.9,398.5 
		284.9,373.6 259.9,373.6 	"/>
	<rect x="262" y="425.9" class="st2" width="118.6" height="69.8"/>
	<polygon class="st2" points="40.9,40.7 360.3,40.7 360.3,220.9 269.9,249.2 269.9,260.8 39.6,260.8 	"/>
	<polygon class="st2" points="701.3,40.7 796,40.7 796,245.8 710.2,222.3 699.5,121.3 	"/>
	<rect x="581.1" y="309.7" class="st3" width="100.9" height="107.2"/>
	<rect x="282.9" y="399" class="st3" width="97.6" height="26.9"/>
	<rect x="39.7" y="382.9" class="st3" width="114.7" height="111.9"/>
	<rect x="144.7" y="382.9" class="st3" width="35.8" height="81.6"/>
	<polygon class="st3" points="262,309.3 380.5,309.3 380.5,333.6 322.3,333.6 322.3,346 290.8,346 290.8,333.6 290.8,329.5 
		259.9,329.5 259.9,339.4 209.9,339.4 209.9,309.3 	"/>
	<rect x="209.9" y="339.4" class="st2" width="50" height="34.2"/>
	<rect x="211.5" y="421.4" class="st2" width="50.5" height="73.3"/>
</g>
<g id="furniature">
	<g>
		<path class="st4" d="M269.9,304.8v-16.7c0-0.6,0.4-1,0.9-1l0,0l37.9,0.4c0.6,0,1,0.4,1,0.9l0,0l-0.3,16.2c0,0.6-0.4,1-0.9,1
			l-37.6,0.1C270.3,305.7,269.9,305.3,269.9,304.8L269.9,304.8z"/>
		<path class="st5" d="M271.6,305.5v-16.7c0-0.6,0.4-1,0.9-1l0,0l37.9,0.4c0.6,0,1,0.4,1,0.9l0,0l-0.3,16.2c0,0.6-0.4,1-0.9,1
			l-37.6,0.1C271.9,306.3,271.6,306,271.6,305.5L271.6,305.5z"/>
		
			<rect x="284" y="278.5" transform="matrix(5.740908e-03 -1 1 5.740908e-03 -7.0198 588.106)" class="st6" width="16.4" height="38.2"/>
		<polygon class="st7" points="311.6,289.5 309.4,289.5 309.4,304.5 275.4,304.4 275.4,289.2 273.2,289.2 273.2,306 311.5,306.3 		
			"/>
		
			<rect x="291.1" y="286.3" transform="matrix(5.740908e-03 -1 1 5.740908e-03 -12.5262 593.8711)" class="st8" width="2.5" height="33.9"/>
		
			<rect x="291.4" y="284.4" transform="matrix(5.740908e-03 -1 1 5.740908e-03 -10.8469 591.7177)" class="st8" width="1.4" height="33.9"/>
		<line class="st9" x1="292.5" y1="300.5" x2="292.5" y2="289.3"/>
		<line class="st10" x1="292.3" y1="306.1" x2="292.5" y2="300.5"/>
	</g>
	<g>
		<path class="st11" d="M339.6,305.1L339.6,305.1c-3.7,0-6.7-3-6.7-6.6l0,0l0,0c0-3.7,3-6.7,6.6-6.7l0,0l0,0c3.7,0,6.7,3,6.7,6.6
			l0,0l0,0C346.1,301.9,343.1,304.9,339.6,305.1L339.6,305.1z"/>
		<path class="st11" d="M339.6,306.2L339.6,306.2c-3.7,0-6.7-3-6.7-6.6l0,0l0,0c0-3.7,3-6.7,6.6-6.7l0,0l0,0c3.7,0,6.7,3,6.7,6.6
			l0,0l0,0C346.3,303.1,343.3,306.1,339.6,306.2L339.6,306.2z"/>
		<path class="st11" d="M339.6,307.3L339.6,307.3c-3.7,0-6.7-3-6.7-6.6l0,0l0,0c0-3.7,3-6.7,6.6-6.7l0,0l0,0c3.7,0,6.7,3,6.7,6.6
			l0,0l0,0C346.1,304.3,343.1,307.1,339.6,307.3L339.6,307.3z"/>
	</g>
	<g>
		<path class="st12" d="M329.9,297l-0.3,7c-0.2,1.6-1.3,2.9-3,2.8l0,0l-0.1,0.1l-4.5-0.4c-2.3-0.2-4-2.2-4.1-4.7l0.1-3
			c0-2.3,1.9-4.2,4.3-4.3l4.5-0.2C328.3,294.2,329.5,295.3,329.9,297L329.9,297z"/>
		<path class="st5" d="M330.3,296.5l-0.3,6.7c0.1,1.4-1.2,2.7-2.5,2.9h-0.6l-4.5-0.4c-2.3-0.2-4-2.2-4.1-4.7l0.1-3
			c0-2.3,1.9-4.2,4.3-4.3l4.5-0.2c1.7,0,2.8,1.1,2.9,2.8l0,0L330.3,296.5L330.3,296.5z"/>
		<path class="st13" d="M330.9,295.9l-0.3,7c-0.2,1.6-1.3,2.9-3,2.8l0,0l-0.1,0.1l-4.5-0.4c-2.3-0.2-4-2.2-4.1-4.7l0.1-3
			c0-2.3,1.9-4.2,4.3-4.3l4.4-0.1C329.2,293,330.6,294.2,330.9,295.9L330.9,295.9z"/>
		<path class="st14" d="M330.3,296.5l-0.3,5.7l0,0c0,1.3-1.1,2.2-2.4,2.2l0,0l-0.1,0.1l-3.1-0.3c-2.1-0.3-3.3-1.8-3.4-3.9v-1.9
			c0.1-2.2,1.6-3.6,3.7-3.7l3.1-0.1c0.8-0.1,1.5,0.3,2,0.8C330.1,295.6,330.5,296.2,330.3,296.5L330.3,296.5z"/>
	</g>
	<g>
		<path class="st4" d="M209.9,304.8v-16.7c0-0.6,0.4-1,0.9-1l0,0l37.9,0.4c0.6,0,1,0.4,1,0.9l0,0l-0.3,16.2c0,0.6-0.4,1-0.9,1
			l-37.6,0.1C210.3,305.7,209.9,305.3,209.9,304.8L209.9,304.8z"/>
		<path class="st5" d="M211.6,305.5v-16.7c0-0.6,0.4-1,0.9-1l0,0l37.9,0.4c0.6,0,1,0.4,1,0.9l0,0l-0.3,16.2c0,0.6-0.4,1-0.9,1
			l-37.6,0.1C211.9,306.3,211.6,306,211.6,305.5L211.6,305.5z"/>
		
			<rect x="224" y="278.4" transform="matrix(5.740908e-03 -1 1 5.740908e-03 -66.6765 527.9672)" class="st6" width="16.4" height="38.2"/>
		<polygon class="st7" points="251.6,289.5 249.4,289.5 249.4,304.5 215.4,304.4 215.4,289.2 213.2,289.2 213.2,306 251.4,306.3 		
			"/>
		
			<rect x="231.2" y="286.3" transform="matrix(5.740908e-03 -1 1 5.740908e-03 -72.1835 533.9333)" class="st8" width="2.5" height="33.9"/>
		
			<rect x="231.3" y="284.5" transform="matrix(5.740908e-03 -1 1 5.740908e-03 -70.8018 531.6812)" class="st8" width="1.4" height="33.9"/>
		<line class="st9" x1="232.5" y1="300.5" x2="232.5" y2="289.3"/>
		<line class="st10" x1="232.3" y1="306.1" x2="232.5" y2="300.5"/>
	</g>
	<g>
		<path class="st11" d="M262,305.2L262,305.2c-3.7,0-6.7-3-6.7-6.6l0,0l0,0c0-3.7,3-6.7,6.6-6.7l0,0l0,0c3.7,0,6.7,3,6.7,6.6l0,0
			l0,0C268.6,302,265.6,305,262,305.2L262,305.2z"/>
		<path class="st11" d="M262,306.4L262,306.4c-3.7,0-6.7-3-6.7-6.6l0,0l0,0c0-3.7,3-6.7,6.6-6.7l0,0l0,0c3.7,0,6.7,3,6.7,6.6l0,0
			l0,0C268.7,303.2,265.7,306.2,262,306.4L262,306.4z"/>
		<path class="st11" d="M262,307.4L262,307.4c-3.7,0-6.7-3-6.7-6.6l0,0l0,0c0-3.7,3-6.7,6.6-6.7l0,0l0,0c3.7,0,6.7,3,6.7,6.6l0,0
			l0,0C268.6,304.4,265.6,307.3,262,307.4L262,307.4z"/>
	</g>
	<g>
		<path class="st12" d="M350,302.5l0.3-7c0.2-1.6,1.3-2.9,3-2.8l0,0l0.1-0.1l4.5,0.4c2.3,0.2,4,2.2,4.1,4.7l-0.1,3
			c0,2.3-1.9,4.2-4.3,4.3l-4.5,0.2C351.6,305.3,350.4,304.2,350,302.5L350,302.5z"/>
		<path class="st5" d="M349.7,303l0.3-6.7c-0.1-1.4,1.2-2.7,2.5-2.9h0.6l4.5,0.4c2.3,0.2,4,2.2,4.1,4.7l-0.1,3
			c0,2.3-1.9,4.2-4.3,4.3l-4.5,0.2c-1.7,0-2.8-1.1-2.9-2.8l0,0L349.7,303L349.7,303z"/>
		<path class="st13" d="M349,303.6l0.3-7c0.2-1.6,1.3-2.9,3-2.8l0,0l0.1-0.1l4.5,0.4c2.3,0.2,4,2.2,4.1,4.7l-0.1,3
			c0,2.3-1.9,4.2-4.3,4.3l-4.4,0.1C350.7,306.5,349.3,305.3,349,303.6L349,303.6z"/>
		<path class="st14" d="M349.7,303l0.3-5.7l0,0c0-1.3,1.1-2.2,2.4-2.2l0,0l0.1-0.1l3.1,0.3c2.1,0.3,3.3,1.8,3.4,3.9v1.9
			c-0.1,2.2-1.6,3.6-3.7,3.7l-3.1,0.1c-0.8,0.1-1.5-0.3-2-0.8C349.8,303.9,349.5,303.3,349.7,303L349.7,303z"/>
	</g>
	<g>
		<path class="st11" d="M384.5,305.4L384.5,305.4c-3.7,0-6.7-3-6.7-6.6l0,0l0,0c0-3.7,3-6.7,6.6-6.7l0,0l0,0c3.7,0,6.7,3,6.7,6.6
			l0,0l0,0C391.1,302.3,388.1,305.3,384.5,305.4L384.5,305.4z"/>
		<path class="st11" d="M384.5,306.6L384.5,306.6c-3.7,0-6.7-3-6.7-6.6l0,0l0,0c0-3.7,3-6.7,6.6-6.7l0,0l0,0c3.7,0,6.7,3,6.7,6.6
			l0,0l0,0C391.3,303.5,388.3,306.5,384.5,306.6L384.5,306.6z"/>
		<path class="st11" d="M384.5,307.7L384.5,307.7c-3.7,0-6.7-3-6.7-6.6l0,0l0,0c0-3.7,3-6.7,6.6-6.7l0,0l0,0c3.7,0,6.7,3,6.7,6.6
			l0,0l0,0C391.1,304.7,388.1,307.5,384.5,307.7L384.5,307.7z"/>
	</g>
	<g>
		<path class="st12" d="M374.9,297.3l-0.3,7c-0.2,1.6-1.3,2.9-3,2.8l0,0l-0.1,0.1l-4.5-0.4c-2.3-0.2-4-2.2-4.1-4.7l0.1-3
			c0-2.3,1.9-4.2,4.3-4.3l4.5-0.2C373.3,294.6,374.5,295.7,374.9,297.3L374.9,297.3z"/>
		<path class="st5" d="M375.3,296.9l-0.3,6.7c0.1,1.4-1.2,2.7-2.5,2.9h-0.6l-4.5-0.4c-2.3-0.2-4-2.2-4.1-4.7l0.1-3
			c0-2.3,1.9-4.2,4.3-4.3l4.5-0.2c1.7,0,2.8,1.1,2.9,2.8l0,0L375.3,296.9L375.3,296.9z"/>
		<path class="st13" d="M375.9,296.3l-0.3,7c-0.2,1.6-1.3,2.9-3,2.8l0,0l-0.1,0.1l-4.5-0.4c-2.3-0.2-4-2.2-4.1-4.7l0.1-3
			c0-2.3,1.9-4.2,4.3-4.3l4.4-0.1C374.2,293.4,375.6,294.6,375.9,296.3L375.9,296.3z"/>
		<path class="st14" d="M375.3,296.9l-0.3,5.7l0,0c0,1.3-1.1,2.2-2.4,2.2l0,0l-0.1,0.1l-3.1-0.3c-2.1-0.3-3.3-1.8-3.4-3.9v-1.9
			c0.1-2.2,1.6-3.6,3.7-3.7l3.1-0.1c0.8-0.1,1.5,0.3,2,0.8C375.1,296,375.4,296.6,375.3,296.9L375.3,296.9z"/>
	</g>
	<g>
		<path class="st12" d="M395,302.9l0.3-7c0.2-1.6,1.3-2.9,3-2.8l0,0l0.1-0.1l4.5,0.4c2.3,0.2,4,2.2,4.1,4.7l-0.1,3
			c0,2.3-1.9,4.2-4.3,4.3l-4.5,0.2C396.6,305.7,395.4,304.6,395,302.9L395,302.9z"/>
		<path class="st5" d="M394.6,303.4l0.3-6.7c-0.1-1.4,1.2-2.7,2.5-2.9h0.6l4.5,0.4c2.3,0.2,4,2.2,4.1,4.7l-0.1,3
			c0,2.3-1.9,4.2-4.3,4.3l-4.5,0.2c-1.7,0-2.8-1.1-2.9-2.8l0,0L394.6,303.4L394.6,303.4z"/>
		<path class="st13" d="M394,304l0.3-7c0.2-1.6,1.3-2.9,3-2.8l0,0l0.1-0.1l4.5,0.4c2.3,0.2,4,2.2,4.1,4.7l-0.1,3
			c0,2.3-1.9,4.2-4.3,4.3l-4.4,0.1C395.7,306.9,394.3,305.7,394,304L394,304z"/>
		<path class="st14" d="M394.6,303.4l0.3-5.7l0,0c0-1.3,1.1-2.2,2.4-2.2l0,0l0.1-0.1l3.1,0.3c2.1,0.3,3.3,1.8,3.4,3.9v1.9
			c-0.1,2.2-1.6,3.6-3.7,3.7l-3.1,0.1c-0.8,0.1-1.5-0.3-2-0.8C394.8,304.3,394.4,303.7,394.6,303.4L394.6,303.4z"/>
	</g>
	<g>
		<path class="st11" d="M355.8,265.5L355.8,265.5c-4.7,0-8.4-3.7-8.4-8.2l0,0l0,0c0-4.7,3.7-8.4,8.2-8.4l0,0l0,0
			c4.7,0,8.4,3.7,8.4,8.2l0,0l0,0C364,261.6,360.3,265.3,355.8,265.5L355.8,265.5z"/>
		<path class="st11" d="M355.8,267L355.8,267c-4.7,0-8.4-3.7-8.4-8.2l0,0l0,0c0-4.7,3.7-8.4,8.2-8.4l0,0l0,0c4.7,0,8.4,3.7,8.4,8.2
			l0,0l0,0C364.2,263.1,360.5,266.8,355.8,267L355.8,267z"/>
		<path class="st11" d="M355.8,268.3L355.8,268.3c-4.7,0-8.4-3.7-8.4-8.2l0,0l0,0c0-4.7,3.7-8.4,8.2-8.4l0,0l0,0
			c4.7,0,8.4,3.7,8.4,8.2l0,0l0,0C364,264.6,360.3,268.1,355.8,268.3L355.8,268.3z"/>
	</g>
	<g>
		<path class="st12" d="M346,264.6l4.8,5c1,1.3,1.3,2.9,0,4.1l0,0v0.2l-3.4,3c-1.7,1.5-4.4,1.4-6.2-0.2l-2.1-2.2
			c-1.7-1.6-1.7-4.3-0.1-6.1l3-3.4C342.9,263.9,344.5,263.8,346,264.6L346,264.6z"/>
		<path class="st5" d="M345.9,264.1l4.7,4.8c1.1,0.9,1.1,2.7,0.4,3.8l-0.4,0.5l-3.4,3c-1.7,1.5-4.4,1.4-6.2-0.2l-2.1-2.2
			c-1.7-1.6-1.7-4.3-0.1-6.1l3-3.4c1.1-1.2,2.7-1.3,4-0.2l0,0L345.9,264.1L345.9,264.1z"/>
		<path class="st13" d="M345.9,263.2l4.8,5c1,1.3,1.3,2.9,0,4.1l0,0v0.2l-3.4,3c-1.7,1.5-4.4,1.4-6.2-0.2l-2.1-2.2
			c-1.7-1.6-1.7-4.3-0.1-6.1l2.9-3.2C342.6,262.4,344.5,262.2,345.9,263.2L345.9,263.2z"/>
		<path class="st14" d="M345.9,264.1l3.9,4.1l0,0c0.9,0.9,0.8,2.3,0,3.2l0,0v0.2l-2.4,2.1c-1.7,1.3-3.6,1.1-5.2-0.2l-1.4-1.3
			c-1.5-1.5-1.5-3.7-0.1-5.2l2-2.3c0.5-0.6,1.2-0.9,2-0.9C345.1,263.6,345.8,263.7,345.9,264.1L345.9,264.1z"/>
	</g>
	<g>
		<path class="st12" d="M361.1,268.9l5-4.8c1.3-1,2.9-1.3,4.1,0l0,0h0.2l3,3.4c1.5,1.7,1.4,4.4-0.2,6.2l-2.2,2.1
			c-1.6,1.7-4.3,1.7-6.1,0.1l-3.4-3C360.3,272,360.3,270.3,361.1,268.9L361.1,268.9z"/>
		<path class="st5" d="M360.5,268.9l4.8-4.7c0.9-1.1,2.7-1.1,3.8-0.4l0.5,0.4l3,3.4c1.5,1.7,1.4,4.4-0.2,6.2l-2.2,2.1
			c-1.6,1.7-4.3,1.7-6.1,0.1l-3.4-3c-1.2-1.1-1.3-2.7-0.2-4l0,0L360.5,268.9L360.5,268.9z"/>
		<path class="st13" d="M359.6,269l5-4.8c1.3-1,2.9-1.3,4.1,0l0,0h0.2l3,3.4c1.5,1.7,1.4,4.4-0.2,6.2l-2.2,2.1
			c-1.6,1.7-4.3,1.7-6.1,0.1l-3.2-2.9C358.8,272.2,358.6,270.4,359.6,269L359.6,269z"/>
		<path class="st14" d="M360.5,268.9l4.1-3.9l0,0c0.9-0.9,2.3-0.8,3.2,0l0,0h0.2l2.1,2.4c1.3,1.7,1.1,3.6-0.2,5.2l-1.3,1.4
			c-1.5,1.5-3.7,1.5-5.2,0.1l-2.3-2c-0.6-0.5-0.9-1.2-0.9-2C360,269.7,360.1,269,360.5,268.9L360.5,268.9z"/>
	</g>
	<g>
		<path class="st12" d="M365,253.1l-4.8-5c-1-1.3-1.3-2.9,0-4.1l0,0v-0.2l3.4-3c1.7-1.5,4.4-1.4,6.2,0.2l2.1,2.2
			c1.7,1.6,1.7,4.3,0.1,6.1l-3,3.4C368.1,253.9,366.5,253.9,365,253.1L365,253.1z"/>
		<path class="st5" d="M365.1,253.7l-4.7-4.8c-1.1-0.9-1.1-2.7-0.4-3.8l0.4-0.5l3.4-3c1.7-1.5,4.4-1.4,6.2,0.2l2.1,2.2
			c1.7,1.6,1.7,4.3,0.1,6.1l-3,3.4c-1.1,1.2-2.7,1.3-4,0.2l0,0L365.1,253.7L365.1,253.7z"/>
		<path class="st13" d="M365.1,254.6l-4.8-5c-1-1.3-1.3-2.9,0-4.1l0,0v-0.2l3.4-3c1.7-1.5,4.4-1.4,6.2,0.2l2.1,2.2
			c1.7,1.6,1.7,4.3,0.1,6.1l-2.9,3.2C368.4,255.4,366.5,255.6,365.1,254.6L365.1,254.6z"/>
		<path class="st14" d="M365.1,253.7l-3.9-4.1l0,0c-0.9-0.9-0.8-2.3,0-3.2l0,0v-0.2l2.4-2.1c1.7-1.3,3.6-1.1,5.2,0.2l1.4,1.3
			c1.5,1.5,1.5,3.7,0.1,5.2l-2,2.3c-0.5,0.6-1.2,0.9-2,0.9C365.9,254.2,365.2,254.1,365.1,253.7L365.1,253.7z"/>
	</g>
	<g>
		<path class="st12" d="M349.9,248.9l-5,4.8c-1.3,1-2.9,1.3-4.1,0l0,0h-0.2l-3-3.4c-1.5-1.7-1.4-4.4,0.2-6.2l2.2-2.1
			c1.6-1.7,4.3-1.7,6.1-0.1l3.4,3C350.7,245.8,350.7,247.4,349.9,248.9L349.9,248.9z"/>
		<path class="st5" d="M350.5,248.8l-4.8,4.7c-0.9,1.1-2.7,1.1-3.8,0.4l-0.5-0.4l-3-3.4c-1.5-1.7-1.4-4.4,0.2-6.2l2.2-2.1
			c1.6-1.7,4.3-1.7,6.1-0.1l3.4,3c1.2,1.1,1.3,2.7,0.2,4l0,0L350.5,248.8L350.5,248.8z"/>
		<path class="st13" d="M351.4,248.8l-5,4.8c-1.3,1-2.9,1.3-4.1,0l0,0h-0.2l-3-3.4c-1.5-1.7-1.4-4.4,0.2-6.2l2.2-2.1
			c1.6-1.7,4.3-1.7,6.1-0.1l3.2,2.9C352.1,245.5,352.4,247.4,351.4,248.8L351.4,248.8z"/>
		<path class="st14" d="M350.5,248.8l-4.1,3.9l0,0c-0.9,0.9-2.3,0.8-3.2,0l0,0H343l-2.1-2.4c-1.3-1.7-1.1-3.6,0.2-5.2l1.3-1.4
			c1.5-1.5,3.7-1.5,5.2-0.1l2.3,2c0.6,0.5,0.9,1.2,0.9,2C351,248,350.8,248.7,350.5,248.8L350.5,248.8z"/>
	</g>
	<g>
		<path class="st11" d="M648.2,234.4L648.2,234.4c-0.9,3.6-4.5,5.8-8,4.9l0,0l0,0c-3.6-0.9-5.8-4.5-4.9-8l0,0l0,0
			c0.9-3.6,4.5-5.8,8-4.9l0,0l0,0C646.8,227.2,649,230.9,648.2,234.4L648.2,234.4z"/>
		<path class="st11" d="M649.4,234.7L649.4,234.7c-0.9,3.6-4.5,5.8-8,4.9l0,0l0,0c-3.6-0.9-5.8-4.5-4.9-8l0,0l0,0
			c0.9-3.6,4.5-5.8,8-4.9l0,0l0,0C648,227.4,650.2,231,649.4,234.7L649.4,234.7z"/>
		<path class="st11" d="M650.4,234.9L650.4,234.9c-0.9,3.6-4.5,5.8-8,4.9l0,0l0,0c-3.6-0.9-5.8-4.5-4.9-8l0,0l0,0
			c0.9-3.6,4.5-5.8,8-4.9l0,0l0,0C649.1,227.8,651.1,231.4,650.4,234.9L650.4,234.9z"/>
	</g>
	<g>
		<path class="st12" d="M638,241.8l6.7,2c1.5,0.6,2.5,1.9,2,3.6l0,0l0.1,0.2l-1.5,4.3c-0.8,2.1-3.1,3.3-5.5,2.9l-2.9-0.9
			c-2.2-0.5-3.6-2.9-3.1-5.3l0.9-4.4C635,242.6,636.4,241.8,638,241.8L638,241.8z"/>
		<path class="st5" d="M637.7,241.3l6.4,1.9c1.4,0.3,2.3,1.8,2.2,3.2l-0.2,0.6l-1.5,4.3c-0.8,2.1-3.1,3.3-5.5,2.9l-2.9-0.9
			c-2.2-0.5-3.6-2.9-3.1-5.3l0.9-4.4c0.4-1.6,1.8-2.5,3.4-2.1l0,0L637.7,241.3L637.7,241.3z"/>
		<path class="st13" d="M637.2,240.5l6.7,2c1.5,0.6,2.5,1.9,2,3.6l0,0l0.1,0.2l-1.5,4.3c-0.8,2.1-3.1,3.3-5.5,2.9l-2.9-0.9
			c-2.2-0.5-3.6-2.9-3.1-5.3l0.9-4.3C634,241.5,635.5,240.4,637.2,240.5L637.2,240.5z"/>
		<path class="st14" d="M637.7,241.3l5.4,1.7l0,0c1.2,0.3,1.9,1.6,1.5,2.8l0,0l0.1,0.2l-1,3c-0.8,2-2.6,2.8-4.6,2.4l-1.9-0.5
			c-2.1-0.6-3.1-2.5-2.7-4.5l0.6-3c0.1-0.8,0.7-1.3,1.3-1.7C636.8,241.3,637.4,241,637.7,241.3L637.7,241.3z"/>
	</g>
	<g>
		<path class="st12" d="M648.3,223.6l-6.7-2c-1.5-0.6-2.5-1.9-2-3.6l0,0l-0.1-0.2l1.5-4.3c0.8-2.1,3.1-3.3,5.5-2.9l2.9,0.9
			c2.2,0.5,3.6,2.9,3.1,5.3l-0.9,4.4C651.4,222.8,650,223.6,648.3,223.6L648.3,223.6z"/>
		<path class="st5" d="M648.7,224.1l-6.4-1.9c-1.4-0.3-2.3-1.8-2.2-3.2l0.2-0.6l1.5-4.3c0.8-2.1,3.1-3.3,5.5-2.9l2.9,0.9
			c2.2,0.5,3.6,2.9,3.1,5.3l-0.9,4.4c-0.4,1.6-1.8,2.5-3.4,2.1l0,0L648.7,224.1L648.7,224.1z"/>
		<path class="st13" d="M649.1,224.9l-6.7-2c-1.5-0.6-2.5-1.9-2-3.6l0,0l-0.1-0.2l1.5-4.3c0.8-2.1,3.1-3.3,5.5-2.9l2.9,0.9
			c2.2,0.5,3.6,2.9,3.1,5.3l-0.9,4.3C652.4,223.9,650.9,225,649.1,224.9L649.1,224.9z"/>
		<path class="st14" d="M648.7,224.1l-5.4-1.7l0,0c-1.2-0.3-1.9-1.6-1.5-2.8l0,0l-0.1-0.2l1-3c0.8-2,2.6-2.8,4.6-2.4l1.9,0.5
			c2.1,0.6,3.1,2.5,2.7,4.5l-0.6,3c-0.1,0.8-0.7,1.3-1.3,1.7C649.6,224.1,649,224.4,648.7,224.1L648.7,224.1z"/>
	</g>
	<g>
		<path class="st11" d="M660.9,185.8L660.9,185.8c-0.9,3.6-4.5,5.8-8,4.9l0,0l0,0c-3.6-0.9-5.8-4.5-4.9-8l0,0l0,0
			c0.9-3.6,4.5-5.8,8-4.9l0,0l0,0C659.5,178.6,661.7,182.2,660.9,185.8L660.9,185.8z"/>
		<path class="st11" d="M662.1,186L662.1,186c-0.9,3.6-4.5,5.8-8,4.9l0,0l0,0c-3.6-0.9-5.8-4.5-4.9-8l0,0l0,0c0.9-3.6,4.5-5.8,8-4.9
			l0,0l0,0C660.7,178.8,662.9,182.4,662.1,186L662.1,186z"/>
		<path class="st11" d="M663.1,186.3L663.1,186.3c-0.9,3.6-4.5,5.8-8,4.9l0,0l0,0c-3.6-0.9-5.8-4.5-4.9-8l0,0l0,0
			c0.9-3.6,4.5-5.8,8-4.9l0,0l0,0C661.8,179.2,663.8,182.8,663.1,186.3L663.1,186.3z"/>
	</g>
	<g>
		<path class="st12" d="M650.8,193.1l6.7,2c1.5,0.6,2.5,1.9,2,3.6l0,0l0.1,0.2l-1.5,4.3c-0.8,2.1-3.1,3.3-5.5,2.9l-2.9-0.9
			c-2.2-0.5-3.6-2.9-3.1-5.3l0.9-4.4C647.7,194,649.1,193.2,650.8,193.1L650.8,193.1z"/>
		<path class="st5" d="M650.4,192.7l6.4,1.9c1.4,0.3,2.3,1.8,2.2,3.2l-0.2,0.6l-1.5,4.3c-0.8,2.1-3.1,3.3-5.5,2.9l-2.9-0.9
			c-2.2-0.5-3.6-2.9-3.1-5.3l0.9-4.4c0.4-1.6,1.8-2.5,3.4-2.1l0,0L650.4,192.7L650.4,192.7z"/>
		<path class="st13" d="M650,191.9l6.7,2c1.5,0.6,2.5,1.9,2,3.6l0,0l0.1,0.2l-1.5,4.3c-0.8,2.1-3.1,3.3-5.5,2.9l-2.9-0.9
			c-2.2-0.5-3.6-2.9-3.1-5.3l0.9-4.3C646.7,192.9,648.2,191.8,650,191.9L650,191.9z"/>
		<path class="st14" d="M650.4,192.7l5.4,1.7l0,0c1.2,0.3,1.9,1.6,1.5,2.8l0,0l0.1,0.2l-1,3c-0.8,2-2.6,2.8-4.6,2.4l-1.9-0.5
			c-2.1-0.6-3.1-2.5-2.7-4.5l0.6-3c0.1-0.8,0.7-1.3,1.3-1.7C649.5,192.6,650.1,192.4,650.4,192.7L650.4,192.7z"/>
	</g>
	<g>
		<path class="st12" d="M661,175l-6.7-2c-1.5-0.6-2.5-1.9-2-3.6l0,0l-0.1-0.2l1.5-4.3c0.8-2.1,3.1-3.3,5.5-2.9l2.9,0.9
			c2.2,0.5,3.6,2.9,3.1,5.3l-0.9,4.4C664.1,174.1,662.7,175,661,175L661,175z"/>
		<path class="st5" d="M661.4,175.5l-6.4-1.9c-1.4-0.3-2.3-1.8-2.2-3.2l0.2-0.6l1.5-4.3c0.8-2.1,3.1-3.3,5.5-2.9l2.9,0.9
			c2.2,0.5,3.6,2.9,3.1,5.3l-0.9,4.4c-0.4,1.6-1.8,2.5-3.4,2.1l0,0L661.4,175.5L661.4,175.5z"/>
		<path class="st13" d="M661.8,176.2l-6.7-2c-1.5-0.6-2.5-1.9-2-3.6l0,0l-0.1-0.2l1.5-4.3c0.8-2.1,3.1-3.3,5.5-2.9l2.9,0.9
			c2.2,0.5,3.6,2.9,3.1,5.3l-0.9,4.3C665.1,175.3,663.6,176.4,661.8,176.2L661.8,176.2z"/>
		<path class="st14" d="M661.4,175.5l-5.4-1.7l0,0c-1.2-0.3-1.9-1.6-1.5-2.8l0,0l-0.1-0.2l1-3c0.8-2,2.6-2.8,4.6-2.4l1.9,0.5
			c2.1,0.6,3.1,2.5,2.7,4.5l-0.6,3c-0.1,0.8-0.7,1.3-1.3,1.7C662.3,175.5,661.7,175.7,661.4,175.5L661.4,175.5z"/>
	</g>
	<polygon class="st15" points="303.2,287.1 278.6,287.1 278.9,274.6 303.8,274.7 	"/>
	<g>
		<polygon class="st15" points="575.3,282.6 551.3,277.2 554.3,265.1 578.6,270.6 		"/>
		<g>
			<path class="st12" d="M584.6,279.1l2.2-6.6c0.6-1.5,2-2.5,3.7-1.9l0,0l0.2-0.1l4.2,1.7c2.1,0.8,3.2,3.3,2.7,5.7l-1,2.9
				c-0.6,2.2-3,3.5-5.4,2.9l-4.4-1.1C585.4,282.2,584.6,280.8,584.6,279.1L584.6,279.1z"/>
			<path class="st5" d="M584.2,279.4l2.1-6.4c0.3-1.4,1.9-2.2,3.2-2.1l0.6,0.2l4.2,1.7c2.1,0.8,3.2,3.3,2.7,5.7l-1,2.9
				c-0.6,2.2-3,3.5-5.4,2.9l-4.4-1.1c-1.6-0.4-2.4-1.8-2-3.5l0,0L584.2,279.4L584.2,279.4z"/>
			<path class="st13" d="M583.4,279.8l2.2-6.6c0.6-1.5,2-2.5,3.7-1.9l0,0l0.2-0.1l4.2,1.7c2.1,0.8,3.2,3.3,2.7,5.7l-1,2.9
				c-0.6,2.2-3,3.5-5.4,2.9l-4.2-1.1C584.2,283.1,583.2,281.6,583.4,279.8L583.4,279.8z"/>
			<path class="st14" d="M584.2,279.4l1.9-5.4l0,0c0.4-1.2,1.7-1.8,2.9-1.4l0,0l0.2-0.1l2.9,1.1c1.9,0.9,2.7,2.7,2.2,4.7l-0.5,1.8
				c-0.7,2.1-2.6,3-4.6,2.5l-3-0.7c-0.8-0.1-1.3-0.7-1.7-1.3C584.1,280.4,583.9,279.7,584.2,279.4L584.2,279.4z"/>
		</g>
		<g>
			<path class="st12" d="M545.7,263.1l-2.2,6.6c-0.6,1.5-2,2.5-3.7,1.9l0,0l-0.2,0.1l-4.2-1.7c-2.1-0.8-3.2-3.3-2.7-5.7l1-2.9
				c0.6-2.2,3-3.5,5.4-2.9l4.4,1.1C545,260,545.8,261.4,545.7,263.1L545.7,263.1z"/>
			<path class="st5" d="M546.2,262.8l-2.1,6.4c-0.3,1.4-1.9,2.2-3.2,2.1l-0.6-0.2l-4.2-1.7c-2.1-0.8-3.2-3.3-2.7-5.7l1-2.9
				c0.6-2.2,3-3.5,5.4-2.9l4.4,1.1c1.6,0.4,2.4,1.8,2,3.5l0,0L546.2,262.8L546.2,262.8z"/>
			<path class="st13" d="M547,262.3l-2.2,6.6c-0.6,1.5-2,2.5-3.7,1.9l0,0l-0.2,0.1l-4.2-1.7c-2.1-0.8-3.2-3.3-2.7-5.7l1-2.9
				c0.6-2.2,3-3.5,5.4-2.9l4.2,1.1C546.2,259.1,547.2,260.6,547,262.3L547,262.3z"/>
			<path class="st14" d="M546.2,262.8l-1.9,5.4l0,0c-0.4,1.2-1.7,1.8-2.9,1.4l0,0l-0.2,0.1l-2.9-1.1c-1.9-0.9-2.7-2.7-2.2-4.7
				l0.5-1.8c0.7-2.1,2.6-3,4.6-2.5l3,0.7c0.8,0.1,1.3,0.7,1.7,1.3C546.3,261.8,546.5,262.5,546.2,262.8L546.2,262.8z"/>
		</g>
		<g>
			<path class="st4" d="M592.6,254.6l-4,16.2c-0.1,0.6-0.7,0.9-1.1,0.8l0,0l-36.7-9.5c-0.6-0.1-0.9-0.7-0.8-1.1l0,0l4.2-15.7
				c0.1-0.6,0.7-0.9,1.1-0.8l36.6,8.9C592.4,253.6,592.7,254.1,592.6,254.6L592.6,254.6z"/>
			<path class="st5" d="M591.1,253.4l-4,16.2c-0.1,0.6-0.7,0.9-1.1,0.8l0,0l-36.7-9.5c-0.6-0.1-0.9-0.7-0.8-1.1l0,0l4.2-15.7
				c0.1-0.6,0.7-0.9,1.1-0.8l36.6,8.9C591,252.7,591.2,253,591.1,253.4L591.1,253.4z"/>
			
				<rect x="561.1" y="237.2" transform="matrix(0.245 -0.9695 0.9695 0.245 181.3457 745.4338)" class="st16" width="16.4" height="38.2"/>
			<polygon class="st7" points="548.5,259.5 550.6,260 554.2,245.4 587.2,253.7 583.6,268.4 585.7,268.9 589.7,252.6 552.6,243.2 
							"/>
			
				<rect x="569.2" y="233.8" transform="matrix(0.245 -0.9695 0.9695 0.245 187.567 742.3854)" class="st17" width="2.5" height="33.9"/>
			
				<rect x="569.5" y="235.9" transform="matrix(0.245 -0.9695 0.9695 0.245 185.3813 743.6906)" class="st17" width="1.4" height="33.9"/>
			<line class="st9" x1="569.7" y1="253.4" x2="567" y2="264.2"/>
			<line class="st10" x1="571.2" y1="247.9" x2="569.7" y2="253.4"/>
		</g>
	</g>
	<polygon class="st15" points="737.9,260.9 713.7,256.5 716.2,244.2 740.7,248.8 	"/>
	<g>
		<path class="st12" d="M722.5,240.5l-6.7-2c-1.5-0.6-2.5-1.9-2-3.6l0,0l-0.1-0.2l1.5-4.3c0.7-2.1,3.1-3.3,5.5-2.9l2.9,0.8
			c2.2,0.5,3.6,2.8,3.2,5.3l-0.9,4.4C725.6,239.6,724.2,240.5,722.5,240.5L722.5,240.5z"/>
		<path class="st5" d="M722.9,241l-6.5-1.8c-1.4-0.3-2.3-1.8-2.2-3.1l0.2-0.6l1.5-4.3c0.7-2.1,3.1-3.3,5.5-2.9l2.9,0.8
			c2.2,0.5,3.6,2.8,3.2,5.3l-0.9,4.4c-0.4,1.6-1.7,2.5-3.4,2.1l0,0L722.9,241L722.9,241z"/>
		<path class="st13" d="M723.3,241.7l-6.7-2c-1.5-0.6-2.5-1.9-2-3.6l0,0l-0.1-0.2l1.5-4.3c0.7-2.1,3.1-3.3,5.5-2.9l2.9,0.8
			c2.2,0.5,3.6,2.8,3.2,5.3l-0.9,4.3C726.6,240.8,725.1,241.9,723.3,241.7L723.3,241.7z"/>
		<path class="st14" d="M722.9,241l-5.4-1.6l0,0c-1.2-0.3-1.9-1.6-1.6-2.8l0,0l-0.1-0.2l1-3c0.8-2,2.6-2.8,4.6-2.4l1.9,0.5
			c2.1,0.6,3.1,2.5,2.7,4.5l-0.6,3c-0.1,0.8-0.6,1.4-1.3,1.8C723.8,241,723.2,241.2,722.9,241L722.9,241z"/>
	</g>
	<g>
		<path class="st12" d="M708.8,242.6l-2,6.7c-0.6,1.5-1.9,2.5-3.6,2l0,0l-0.2,0.1l-4.3-1.5c-2.1-0.7-3.3-3.1-2.9-5.5l0.8-2.9
			c0.5-2.2,2.8-3.6,5.3-3.2l4.4,0.9C707.9,239.5,708.8,240.9,708.8,242.6L708.8,242.6z"/>
		<path class="st5" d="M709.3,242.2l-1.8,6.5c-0.3,1.4-1.8,2.3-3.1,2.2l-0.6-0.2l-4.3-1.5c-2.1-0.7-3.3-3.1-2.9-5.5l0.8-2.9
			c0.5-2.2,2.8-3.6,5.3-3.2l4.4,0.9c1.6,0.4,2.5,1.7,2.1,3.4l0,0L709.3,242.2L709.3,242.2z"/>
		<path class="st13" d="M710,241.8l-2,6.7c-0.6,1.5-1.9,2.5-3.6,2l0,0l-0.2,0.1L700,249c-2.1-0.7-3.3-3.1-2.9-5.5l0.8-2.9
			c0.5-2.2,2.8-3.6,5.3-3.2l4.3,0.9C709.1,238.5,710.2,240,710,241.8L710,241.8z"/>
		<path class="st14" d="M709.3,242.2l-1.6,5.4l0,0c-0.3,1.2-1.6,1.9-2.8,1.6l0,0l-0.2,0.1l-3-1c-2-0.8-2.8-2.6-2.4-4.6l0.5-1.9
			c0.6-2.1,2.5-3.1,4.5-2.7l3,0.6c0.8,0.1,1.4,0.6,1.8,1.3C709.3,241.3,709.5,241.9,709.3,242.2L709.3,242.2z"/>
	</g>
	<g>
		<path class="st12" d="M738.7,245.4l-6.7-2c-1.5-0.6-2.5-1.9-2-3.6l0,0l-0.1-0.2l1.5-4.3c0.7-2.1,3.1-3.3,5.5-2.9l2.9,0.8
			c2.2,0.5,3.6,2.8,3.2,5.3l-0.9,4.4C741.8,244.5,740.4,245.3,738.7,245.4L738.7,245.4z"/>
		<path class="st5" d="M739,245.8l-6.5-1.8c-1.4-0.3-2.3-1.8-2.2-3.1l0.2-0.6l1.5-4.3c0.7-2.1,3.1-3.3,5.5-2.9l2.9,0.8
			c2.2,0.5,3.6,2.8,3.2,5.3l-0.9,4.4c-0.4,1.6-1.7,2.5-3.4,2.1l0,0L739,245.8L739,245.8z"/>
		<path class="st13" d="M739.5,246.6l-6.7-2c-1.5-0.6-2.5-1.9-2-3.6l0,0l-0.1-0.2l1.5-4.3c0.7-2.1,3.1-3.3,5.5-2.9l2.9,0.8
			c2.2,0.5,3.6,2.8,3.2,5.3l-0.9,4.3C742.7,245.6,741.2,246.7,739.5,246.6L739.5,246.6z"/>
		<path class="st14" d="M739,245.8l-5.4-1.6l0,0c-1.2-0.3-1.9-1.6-1.6-2.8l0,0l-0.1-0.2l1-3c0.8-2,2.6-2.8,4.6-2.4l1.9,0.5
			c2.1,0.6,3.1,2.5,2.7,4.5l-0.6,3c-0.1,0.8-0.6,1.4-1.3,1.8C740,245.9,739.3,246.1,739,245.8L739,245.8z"/>
	</g>
	<g>
		<g>
			<path class="st18" d="M777.2,264.4l-2.3-1.2c-1.7-0.9-2.2-3.2-1.3-4.9v-0.2l1.5-2.1c1.5-2.1,4.3-2.8,6.5-1.5l0,0
				c2.1,1.5,3,4.1,2,6.5l-1.2,2.3C781.5,264.8,779.1,265.5,777.2,264.4L777.2,264.4z"/>
			<path class="st19" d="M777.4,264.1l-2.2-1.5c-1.7-0.9-2.2-3.2-1.3-4.9l0,0v-0.2l1.5-2.1c1.5-2.1,4.3-2.8,6.5-1.5l0,0
				c2.1,1.2,3,4.1,2,6.5l-1.2,2.3c-0.9,1.7-3.1,2.6-4.8,1.5L777.4,264.1L777.4,264.1z"/>
			<path class="st20" d="M777.7,263.7l-2.2-1.5c-1.7-0.9-2.2-3.2-1.3-4.9l0,0v-0.2l1.5-2.1c1.5-2.1,4.3-2.8,6.5-1.5l0,0
				c2.1,1.2,3,4.1,2,6.5l-1.2,2.3c-0.9,1.7-3.1,2.6-4.8,1.5C777.7,263.7,777.7,263.7,777.7,263.7z"/>
			<path class="st21" d="M773.9,257.4l1.9-2.5c1.5-2.1,4.3-2.8,6.5-1.5l0,0c2.1,1.2,3,4.1,2,6.5l-1.3,2.9"/>
		</g>
		<path class="st22" d="M788.3,283.6l-32-5.7l6-34.2l11.5,2l-2.8,16.1c0,0-0.5,3,2.2,3.5s17.8,3.1,17.8,3.1L788.3,283.6L788.3,283.6
			z"/>
		<path class="st23" d="M788.5,282.7l-32-5.7l6-34.2l11.5,2l-2.9,16.2c0,0-0.5,3,2.2,3.5s17.8,3.1,17.8,3.1L788.5,282.7L788.5,282.7
			z"/>
		<path class="st24" d="M788.6,282.1l-32-5.7l6-34.2l11.5,2l-2.8,16.1c0,0-0.5,3,2.2,3.5s17.8,3.1,17.8,3.1L788.6,282.1L788.6,282.1
			z"/>
	</g>
	<g>
		
			<ellipse transform="matrix(0.1545 -0.988 0.988 0.1545 -183.478 372.7817)" class="st22" cx="126.1" cy="293.6" rx="8.9" ry="9.4"/>
		
			<ellipse transform="matrix(0.1545 -0.988 0.988 0.1545 -184.8446 373.3559)" class="st23" cx="125.7" cy="294.7" rx="8.9" ry="9.4"/>
		
			<ellipse transform="matrix(0.1545 -0.988 0.988 0.1545 -186.1161 373.6005)" class="st24" cx="125.2" cy="295.5" rx="8.9" ry="9.4"/>
	</g>
	<g>
		
			<ellipse transform="matrix(0.1545 -0.988 0.988 0.1545 -231.9553 315.9721)" class="st22" cx="68.6" cy="293.5" rx="8.9" ry="9.4"/>
		
			<ellipse transform="matrix(0.1545 -0.988 0.988 0.1545 -233.2305 316.4259)" class="st23" cx="68.3" cy="294.5" rx="8.9" ry="9.4"/>
		
			<ellipse transform="matrix(0.1545 -0.988 0.988 0.1545 -234.6634 316.7983)" class="st24" cx="67.8" cy="295.5" rx="8.9" ry="9.4"/>
	</g>
	<g>
		
			<ellipse transform="matrix(0.1545 -0.988 0.988 0.1545 -215.6706 334.8407)" class="st22" cx="87.8" cy="293.4" rx="8.9" ry="9.4"/>
		
			<ellipse transform="matrix(0.1545 -0.988 0.988 0.1545 -217.1494 335.4805)" class="st23" cx="87.4" cy="294.6" rx="8.9" ry="9.4"/>
		
			<ellipse transform="matrix(0.1545 -0.988 0.988 0.1545 -218.4034 335.7159)" class="st24" cx="86.9" cy="295.5" rx="8.9" ry="9.4"/>
	</g>
	<g>
		<ellipse transform="matrix(0.1545 -0.988 0.988 0.1545 -199.544 353.8645)" class="st22" cx="107" cy="293.5" rx="8.9" ry="9.4"/>
		
			<ellipse transform="matrix(0.1545 -0.988 0.988 0.1545 -200.8346 354.2409)" class="st23" cx="106.6" cy="294.5" rx="8.9" ry="9.4"/>
		
			<ellipse transform="matrix(0.1545 -0.988 0.988 0.1545 -202.2677 354.6133)" class="st24" cx="106.1" cy="295.5" rx="8.9" ry="9.4"/>
	</g>
	<g class="st25">
		<path class="st26" d="M227.1,355.9l0.8-0.1c0,0.5,0.1,0.9,0.3,1c0.2,0.2,0.4,0.3,0.7,0.3c0.2,0,0.4-0.1,0.6-0.2
			c0.2-0.1,0.3-0.2,0.3-0.4c0.1-0.2,0.1-0.5,0.1-0.8v-4.6h0.9v4.5c0,0.6-0.1,1-0.2,1.3c-0.1,0.3-0.3,0.5-0.6,0.7s-0.6,0.2-1,0.2
			c-0.6,0-1-0.2-1.3-0.5C227.2,357,227.1,356.5,227.1,355.9z"/>
		<path class="st26" d="M231.5,357.7l2.5-6.6h0.9l2.7,6.6h-1l-0.8-2H233l-0.7,2H231.5z M233.4,355h2.2l-0.7-1.8
			c-0.2-0.6-0.4-1-0.5-1.4c-0.1,0.4-0.2,0.8-0.4,1.3L233.4,355z"/>
		<path class="st26" d="M238.3,357.7v-6.6h0.9l3.5,5.2v-5.2h0.8v6.6h-0.9l-3.5-5.2v5.2H238.3z"/>
	</g>
	<polygon class="st23" points="517.7,219.1 618.5,241.8 640.3,152.7 655.6,152.7 626.6,259.4 513.4,232.8 	"/>
	<polygon class="st24" points="517.3,217.9 618,240.6 639.9,151.6 655.2,151.6 626.2,258.2 513,231.7 	"/>
	<g>
		<path class="st27" d="M444,302h6.1v0.7c0,0.3,0.2,0.6,0.5,0.6H483c0.3,0,0.5-0.3,0.5-0.6V302h5.6c0.4-0.1,0.7-0.4,0.6-0.9v-1.4
			c0-0.4-0.2-0.8-0.6-0.9h-45c-0.4,0.1-0.7,0.4-0.6,0.9v1.4C443.3,301.5,443.6,301.9,444,302z"/>
		<path class="st28" d="M489,303.9h-45c-0.4-0.1-0.7-0.4-0.6-0.9v-1.4c0-0.4,0.2-0.8,0.6-0.9h45c0.4,0.1,0.7,0.4,0.6,0.9v1.4
			C489.7,303.4,489.4,303.8,489,303.9z"/>
		<path class="st29" d="M483,305.2h-32.5c-0.3,0-0.5-0.3-0.5-0.6v-0.7c0-0.3,0.2-0.6,0.5-0.6H483c0.3,0,0.5,0.3,0.5,0.6v0.7
			C483.5,304.9,483.3,305.1,483,305.2z"/>
		<g class="st25">
			<path class="st26" d="M461.8,296.2v-5.6h-2.1v-0.8h5.1v0.8h-2.1v5.6H461.8L461.8,296.2z"/>
			<path class="st26" d="M467.4,296.2l-2.5-6.4h0.9l1.7,4.7c0.1,0.4,0.2,0.7,0.3,1c0.1-0.3,0.2-0.7,0.3-1l1.7-4.7h0.9l-2.5,6.4
				H467.4z"/>
		</g>
		<rect x="449.5" y="305.1" class="st20" width="34" height="4.2"/>
	</g>
</g>
<g id="bookable">
	<polygon id="area-0G.70-status" class="st30" points="40.9,40.7 360.6,40.7 360.6,220.9 269.9,249.2 269.9,260.8 40.9,260.8 	"/>
	<g>
		<path class="st24" d="M171.6,116.4h3.2c0.7,0,1.3,0.1,1.6,0.2c0.5,0.1,0.9,0.4,1.3,0.8s0.6,0.8,0.8,1.4s0.3,1.2,0.3,2
			c0,0.7-0.1,1.3-0.3,1.8c-0.2,0.6-0.5,1.1-0.9,1.5c-0.3,0.3-0.7,0.5-1.2,0.7c-0.4,0.1-0.9,0.2-1.5,0.2h-3.3L171.6,116.4
			L171.6,116.4z M173.3,117.9v5.7h1.3c0.5,0,0.8,0,1-0.1c0.3-0.1,0.5-0.2,0.7-0.4s0.3-0.4,0.5-0.8s0.2-0.9,0.2-1.6s-0.1-1.2-0.2-1.5
			s-0.3-0.6-0.5-0.8s-0.5-0.3-0.8-0.4c-0.2-0.1-0.7-0.1-1.4-0.1C174.1,117.9,173.3,117.9,173.3,117.9z"/>
		<path class="st24" d="M185.8,121.8l1.7,0.5c-0.3,0.9-0.7,1.6-1.3,2.1s-1.4,0.7-2.3,0.7c-1.1,0-2.1-0.4-2.8-1.2s-1.1-1.8-1.1-3.2
			c0-1.4,0.4-2.5,1.1-3.3s1.7-1.2,2.9-1.2c1.1,0,1.9,0.3,2.6,0.9c0.4,0.4,0.7,0.9,0.9,1.6l-1.7,0.4c-0.1-0.4-0.3-0.8-0.6-1.1
			s-0.7-0.4-1.2-0.4c-0.6,0-1.2,0.2-1.5,0.7s-0.6,1.2-0.6,2.2c0,1.1,0.2,1.9,0.6,2.3s0.9,0.7,1.5,0.7c0.5,0,0.9-0.1,1.2-0.4
			S185.6,122.5,185.8,121.8z"/>
		<path class="st24" d="M194.4,121.8l1.7,0.5c-0.3,0.9-0.7,1.6-1.3,2.1s-1.4,0.7-2.3,0.7c-1.1,0-2.1-0.4-2.8-1.2s-1.1-1.8-1.1-3.2
			c0-1.4,0.4-2.5,1.1-3.3s1.7-1.2,2.9-1.2c1.1,0,1.9,0.3,2.6,0.9c0.4,0.4,0.7,0.9,0.9,1.6l-1.7,0.4c-0.1-0.4-0.3-0.8-0.6-1.1
			s-0.7-0.4-1.2-0.4c-0.6,0-1.2,0.2-1.5,0.7s-0.6,1.2-0.6,2.2c0,1.1,0.2,1.9,0.6,2.3s0.9,0.7,1.5,0.7c0.5,0,0.9-0.1,1.2-0.4
			S194.3,122.5,194.4,121.8z"/>
		<path class="st24" d="M204.8,125h-1.6v-6.2c-0.6,0.6-1.3,1-2.1,1.2v-1.5c0.4-0.1,0.9-0.4,1.4-0.8s0.8-0.9,1-1.4h1.3L204.8,125
			L204.8,125z"/>
	</g>
</g>
<g id="outline_1_">
	<rect x="40.9" y="40.7" class="st31" width="755.1" height="454.1"/>
	<line class="st32" x1="40.9" y1="260.8" x2="184.8" y2="260.8"/>
	<polyline class="st32" points="360.3,40.7 360.3,220.9 269.9,249.2 269.9,260.8 	"/>
	<path class="st32" d="M227.6,40.7"/>
	<line class="st32" x1="214.1" y1="260.8" x2="239.6" y2="260.8"/>
	<polyline class="st32" points="360.3,220.9 389.6,236.2 385.3,245.9 396.3,251.1 486.7,198.7 476.2,177.3 476,170.2 	"/>
	<line class="st32" x1="701.3" y1="40.7" x2="699.5" y2="127.5"/>
	<polyline class="st32" points="794.3,245.8 710.2,222.3 705.4,179.5 	"/>
	<polyline class="st32" points="794.3,149.2 701.3,149.2 700.4,143.2 703.4,162.2 	"/>
	<polyline class="st32" points="40.9,307.4 180.5,307.4 180.5,321.3 	"/>
	<polyline class="st32" points="40.9,382.9 180.5,382.9 180.5,342.3 180.5,464.5 153.7,464.5 152.9,382.9 	"/>
	<polyline class="st32" points="209.9,410.4 209.9,494.8 262,494.8 262,421.8 250.5,421.8 	"/>
	<line class="st32" x1="209.9" y1="421.4" x2="226.8" y2="421.4"/>
	<polyline class="st32" points="209.9,388.2 209.9,310.3 204.1,310.3 	"/>
	<line class="st32" x1="209.9" y1="373" x2="238.2" y2="373"/>
	<polyline class="st32" points="209.9,339.4 259.9,339.4 259.9,373 253.4,373 	"/>
	<polyline class="st32" points="259.9,339.4 259.9,310.3 380.5,310.3 380.5,494.8 436.3,494.8 436.3,464.5 	"/>
	<polyline class="st32" points="259.9,329.5 290.8,329.5 290.8,373 280,373 285.8,373 285.8,379.6 	"/>
	<polyline class="st32" points="380.5,310.3 436.3,310.3 436.3,329.5 	"/>
	<polyline class="st32" points="291.1,346 322.3,346 322.3,333.6 380.5,333.6 380.5,398.5 282.9,398.5 282.9,405 	"/>
	<line class="st32" x1="282.9" y1="416.1" x2="282.9" y2="452.6"/>
	<polyline class="st32" points="282.9,424.7 436.3,424.7 436.3,408.3 436.3,445.2 	"/>
	<polyline class="st32" points="380.5,369.3 436.3,369.3 436.3,349.2 436.3,386.6 	"/>
	<line class="st32" x1="497.8" y1="494.8" x2="497.8" y2="465.3"/>
	<line class="st32" x1="497.8" y1="349.2" x2="497.8" y2="389.4"/>
	<line class="st32" x1="497.8" y1="406.7" x2="497.8" y2="445.2"/>
	<polyline class="st32" points="497.8,329.5 497.8,308.6 552,308.6 552,494.8 552,426.8 497.8,426.8 	"/>
	<line class="st32" x1="497.8" y1="369.3" x2="552" y2="369.3"/>
	<polyline class="st32" points="581.1,317.6 581.1,310.3 755,310.3 738.6,310.3 738.6,347.2 	"/>
	<polyline class="st32" points="581.1,339.4 581.1,416.9 682,416.9 682,310.3 682,494.8 740.7,494.8 740.7,472.7 	"/>
	<polyline class="st32" points="581.1,494.8 581.1,449.7 589.7,449.7 	"/>
	<line class="st32" x1="740.7" y1="364.4" x2="740.7" y2="401.7"/>
	<line class="st32" x1="740.7" y1="419.4" x2="740.7" y2="454.7"/>
	<line class="st32" x1="209.9" y1="310.3" x2="259.9" y2="310.3"/>
</g>
<g id="icons">
	<g>
		<g class="st25">
			<path class="st26" d="M759.4,397.1v-6.6h1.3l1.6,4.7c0.1,0.4,0.3,0.8,0.3,1c0.1-0.2,0.2-0.6,0.4-1.1l1.6-4.6h1.2v6.6H765v-5.5
				l-1.9,5.5h-0.8l-1.9-5.6v5.6H759.4z"/>
			<path class="st26" d="M770.2,396.5c-0.3,0.3-0.6,0.4-0.9,0.5s-0.6,0.2-0.9,0.2c-0.5,0-0.9-0.1-1.2-0.4s-0.4-0.6-0.4-1
				c0-0.2,0.1-0.4,0.2-0.6c0.1-0.2,0.2-0.4,0.4-0.5s0.4-0.2,0.6-0.3c0.2,0,0.4-0.1,0.7-0.1c0.7-0.1,1.1-0.2,1.5-0.3
				c0-0.1,0-0.2,0-0.2c0-0.3-0.1-0.6-0.2-0.7c-0.2-0.2-0.5-0.3-0.9-0.3s-0.7,0.1-0.8,0.2c-0.2,0.1-0.3,0.4-0.4,0.7l-0.8-0.1
				c0.1-0.3,0.2-0.6,0.4-0.8c0.2-0.2,0.4-0.4,0.7-0.5s0.7-0.2,1.1-0.2c0.4,0,0.7,0,1,0.1s0.4,0.2,0.6,0.4c0.1,0.1,0.2,0.3,0.3,0.6
				c0,0.1,0,0.4,0,0.8v1.1c0,0.8,0,1.2,0.1,1.4c0,0.2,0.1,0.4,0.2,0.6h-0.8C770.2,396.9,770.2,396.7,770.2,396.5z M770.1,394.7
				c-0.3,0.1-0.7,0.2-1.3,0.3c-0.3,0-0.6,0.1-0.7,0.2c-0.1,0.1-0.2,0.1-0.3,0.3c-0.1,0.1-0.1,0.2-0.1,0.4c0,0.2,0.1,0.4,0.2,0.5
				s0.4,0.2,0.7,0.2s0.6-0.1,0.8-0.2s0.4-0.3,0.5-0.6c0.1-0.2,0.1-0.5,0.1-0.8L770.1,394.7L770.1,394.7z"/>
			<path class="st26" d="M772.2,391.4v-0.9h0.8v0.9H772.2z M772.2,397.1v-4.8h0.8v4.8H772.2z"/>
			<path class="st26" d="M774.2,397.1v-4.8h0.7v0.7c0.4-0.5,0.9-0.8,1.5-0.8c0.3,0,0.6,0.1,0.8,0.2s0.4,0.2,0.5,0.4s0.2,0.4,0.3,0.6
				c0,0.2,0,0.4,0,0.8v3h-0.8v-2.9c0-0.3,0-0.6-0.1-0.7s-0.2-0.3-0.3-0.4c-0.2-0.1-0.4-0.1-0.6-0.1c-0.3,0-0.6,0.1-0.9,0.3
				c-0.3,0.2-0.4,0.6-0.4,1.3v2.6h-0.7V397.1z"/>
		</g>
		<g class="st25">
			<path class="st26" d="M759.4,408.2v-6.6h4.8v0.8h-3.9v2h3.7v0.8h-3.7v2.3h4.1v0.8L759.4,408.2L759.4,408.2z"/>
			<path class="st26" d="M765.5,408.2v-4.8h0.7v0.7c0.4-0.5,0.9-0.8,1.5-0.8c0.3,0,0.6,0.1,0.8,0.2s0.4,0.2,0.5,0.4
				c0.1,0.2,0.2,0.4,0.3,0.6c0,0.2,0,0.4,0,0.8v3h-0.8v-2.9c0-0.3,0-0.6-0.1-0.7c-0.1-0.2-0.2-0.3-0.3-0.4c-0.2-0.1-0.3-0.1-0.6-0.1
				s-0.6,0.1-0.9,0.3c-0.3,0.2-0.4,0.6-0.4,1.3v2.6h-0.7V408.2z"/>
			<path class="st26" d="M772.4,407.5l0.1,0.7c-0.2,0-0.4,0.1-0.6,0.1c-0.3,0-0.5,0-0.7-0.1s-0.3-0.2-0.3-0.4
				c-0.1-0.2-0.1-0.5-0.1-1V404h-0.6v-0.6h0.6v-1.2l0.8-0.5v1.7h0.8v0.6h-0.8v2.8c0,0.2,0,0.4,0,0.4c0,0.1,0.1,0.1,0.1,0.2
				s0.2,0.1,0.3,0.1S772.3,407.5,772.4,407.5z"/>
			<path class="st26" d="M773.2,408.2v-4.8h0.7v0.7c0.2-0.3,0.4-0.6,0.5-0.7s0.3-0.2,0.5-0.2c0.3,0,0.6,0.1,0.8,0.3l-0.3,0.8
				c-0.2-0.1-0.4-0.2-0.6-0.2c-0.2,0-0.3,0.1-0.5,0.2c-0.1,0.1-0.2,0.3-0.3,0.4c-0.1,0.3-0.1,0.6-0.1,0.9v2.5h-0.7L773.2,408.2
				L773.2,408.2z"/>
			<path class="st26" d="M776.3,410l-0.1-0.8c0.2,0,0.3,0.1,0.5,0.1s0.3,0,0.4-0.1s0.2-0.1,0.3-0.3c0.1-0.1,0.1-0.3,0.2-0.6
				c0,0,0-0.1,0.1-0.2l-1.8-4.8h0.9l1,2.8c0.1,0.4,0.2,0.7,0.3,1.1c0.1-0.4,0.2-0.7,0.3-1.1l1-2.8h0.8l-1.8,4.9
				c-0.2,0.5-0.3,0.9-0.5,1.1c-0.1,0.3-0.3,0.5-0.5,0.6s-0.4,0.2-0.7,0.2C776.6,410.1,776.4,410.1,776.3,410z"/>
		</g>
		<g>
			<g id="stairs-4-2-6-2">
				<circle class="st33" cx="112.1" cy="336.4" r="20.2"/>
				<g class="st25">
					<path class="st26" d="M101.2,366.3l0.8-0.1c0,0.3,0.1,0.6,0.3,0.8c0.1,0.2,0.4,0.4,0.7,0.5c0.3,0.1,0.6,0.2,1,0.2
						c0.3,0,0.6,0,0.9-0.1s0.4-0.2,0.6-0.4c0.1-0.2,0.2-0.4,0.2-0.6s-0.1-0.4-0.2-0.5c-0.1-0.2-0.3-0.3-0.6-0.4
						c-0.2-0.1-0.6-0.2-1.2-0.3c-0.6-0.1-1-0.3-1.3-0.4c-0.3-0.2-0.6-0.4-0.7-0.6c-0.2-0.2-0.2-0.5-0.2-0.8s0.1-0.6,0.3-0.9
						c0.2-0.3,0.5-0.5,0.8-0.7c0.4-0.2,0.8-0.2,1.2-0.2c0.5,0,0.9,0.1,1.3,0.2c0.4,0.2,0.7,0.4,0.9,0.7c0.2,0.3,0.3,0.7,0.3,1
						l-0.8,0.1c0-0.4-0.2-0.7-0.5-0.9c-0.3-0.2-0.6-0.3-1.2-0.3c-0.5,0-0.9,0.1-1.2,0.3c-0.2,0.2-0.4,0.4-0.4,0.7
						c0,0.2,0.1,0.4,0.3,0.6c0.2,0.2,0.6,0.3,1.3,0.5c0.7,0.2,1.2,0.3,1.5,0.4c0.4,0.2,0.7,0.4,0.9,0.7c0.2,0.3,0.3,0.6,0.3,0.9
						c0,0.4-0.1,0.7-0.3,1c-0.2,0.3-0.5,0.6-0.9,0.7c-0.4,0.2-0.8,0.3-1.3,0.3c-0.6,0-1.1-0.1-1.5-0.3c-0.4-0.2-0.7-0.4-1-0.8
						C101.3,367.1,101.2,366.7,101.2,366.3z"/>
					<path class="st26" d="M109.3,367.7l0.1,0.7c-0.2,0-0.4,0.1-0.6,0.1c-0.3,0-0.5,0-0.7-0.1s-0.3-0.2-0.3-0.4
						c-0.1-0.2-0.1-0.5-0.1-1v-2.8h-0.6v-0.6h0.6v-1.2l0.8-0.5v1.7h0.8v0.6h-0.8v2.8c0,0.2,0,0.4,0,0.4c0,0.1,0.1,0.1,0.1,0.2
						s0.2,0.1,0.3,0.1C109.1,367.7,109.2,367.7,109.3,367.7z"/>
					<path class="st26" d="M113.3,367.8c-0.3,0.3-0.6,0.4-0.9,0.5s-0.6,0.2-0.9,0.2c-0.5,0-0.9-0.1-1.2-0.4c-0.3-0.3-0.4-0.6-0.4-1
						c0-0.2,0.1-0.4,0.2-0.6s0.2-0.4,0.4-0.5c0.2-0.1,0.4-0.2,0.6-0.3c0.2,0,0.4-0.1,0.7-0.1c0.7-0.1,1.1-0.2,1.5-0.3
						c0-0.1,0-0.2,0-0.2c0-0.3-0.1-0.6-0.2-0.7c-0.2-0.2-0.5-0.3-0.9-0.3s-0.7,0.1-0.8,0.2c-0.2,0.1-0.3,0.4-0.4,0.7h-1
						c0.1-0.3,0.2-0.6,0.4-0.8c0.2-0.2,0.4-0.4,0.7-0.5s0.7-0.2,1.1-0.2s0.7,0,1,0.1s0.4,0.2,0.6,0.4c0.1,0.1,0.2,0.3,0.3,0.6
						c0,0.1,0,0.4,0,0.8v1.1c0,0.8,0,1.2,0.1,1.4c0,0.2,0.1,0.4,0.2,0.6h-0.9C113.3,368.3,113.3,368.1,113.3,367.8z M113.2,366
						c-0.3,0.1-0.7,0.2-1.3,0.3c-0.3,0-0.6,0.1-0.7,0.2s-0.2,0.1-0.3,0.3c-0.1,0.1-0.1,0.2-0.1,0.4c0,0.2,0.1,0.4,0.2,0.5
						s0.4,0.2,0.7,0.2c0.3,0,0.6-0.1,0.8-0.2c0.2-0.1,0.4-0.3,0.5-0.6c0.1-0.2,0.1-0.5,0.1-0.8V366H113.2z"/>
					<path class="st26" d="M115.3,362.7v-0.9h0.8v0.9H115.3z M115.3,368.4v-4.8h0.8v4.8H115.3z"/>
					<path class="st26" d="M117.3,368.4v-4.8h0.7v0.7c0.2-0.3,0.4-0.6,0.5-0.7s0.3-0.2,0.5-0.2c0.3,0,0.6,0.1,0.8,0.3l-0.3,0.8
						c-0.2-0.1-0.4-0.2-0.6-0.2s-0.3,0.1-0.5,0.2s-0.2,0.3-0.3,0.4c-0.1,0.3-0.1,0.6-0.1,0.9v2.5h-0.7V368.4z"/>
					<path class="st26" d="M120.1,367l0.8-0.1c0,0.3,0.2,0.6,0.4,0.7c0.2,0.2,0.5,0.3,0.9,0.3s0.7-0.1,0.8-0.2s0.3-0.3,0.3-0.5
						s-0.1-0.3-0.2-0.4s-0.4-0.2-0.8-0.3c-0.6-0.2-1-0.3-1.2-0.4s-0.4-0.3-0.5-0.5s-0.2-0.4-0.2-0.6s0-0.4,0.1-0.6s0.2-0.3,0.4-0.5
						c0.1-0.1,0.3-0.2,0.5-0.2s0.5-0.1,0.7-0.1c0.4,0,0.7,0.1,1,0.2s0.5,0.3,0.6,0.4c0.1,0.2,0.2,0.4,0.3,0.7l-0.8,0.1
						c0-0.2-0.1-0.4-0.3-0.6c-0.2-0.1-0.4-0.2-0.7-0.2c-0.4,0-0.6,0.1-0.8,0.2c-0.2,0.1-0.2,0.3-0.2,0.4s0,0.2,0.1,0.3
						c0.1,0.1,0.2,0.2,0.3,0.2c0.1,0,0.3,0.1,0.7,0.2c0.6,0.2,1,0.3,1.2,0.4s0.4,0.2,0.5,0.4c0.1,0.2,0.2,0.4,0.2,0.7
						c0,0.3-0.1,0.5-0.2,0.8c-0.2,0.2-0.4,0.4-0.7,0.6c-0.3,0.1-0.6,0.2-1,0.2c-0.6,0-1.1-0.1-1.4-0.4
						C120.4,367.9,120.2,367.5,120.1,367z"/>
				</g>
				<g id="Outline_Icons-2-2-4-2-5-2">
					<line class="st34" x1="103" y1="344.2" x2="118.8" y2="344.2"/>
					<polyline class="st34" points="116.1,344.2 116.1,341.4 113.3,341.4 113.3,338.7 110.6,338.7 110.6,335.9 107.8,335.9 
						107.8,333.2 103,333.2 					"/>
					<line class="st34" x1="111.3" y1="328.4" x2="119.9" y2="337"/>
					<polyline class="st34" points="111.3,331.8 111.3,328.4 114.7,328.4 					"/>
					<polyline class="st34" points="119.9,333.6 119.9,337 116.5,337 					"/>
				</g>
			</g>
			<g id="stairs-4-2-6-2_2_">
				<circle class="st33" cx="631.6" cy="446.7" r="20.2"/>
				<g class="st25">
					<path class="st26" d="M620.7,476.5l0.8-0.1c0,0.3,0.1,0.6,0.3,0.8c0.1,0.2,0.4,0.4,0.7,0.5s0.6,0.2,1,0.2c0.3,0,0.6,0,0.9-0.1
						c0.3-0.1,0.4-0.2,0.6-0.4c0.1-0.2,0.2-0.4,0.2-0.6s-0.1-0.4-0.2-0.5c-0.1-0.2-0.3-0.3-0.6-0.4c-0.2-0.1-0.6-0.2-1.2-0.3
						c-0.6-0.1-1-0.3-1.3-0.4c-0.3-0.2-0.6-0.4-0.7-0.6c-0.2-0.2-0.2-0.5-0.2-0.8s0.1-0.6,0.3-0.9s0.5-0.5,0.8-0.7
						c0.4-0.2,0.8-0.2,1.2-0.2c0.5,0,0.9,0.1,1.3,0.2c0.4,0.2,0.7,0.4,0.9,0.7c0.2,0.3,0.3,0.7,0.3,1L625,474c0-0.4-0.2-0.7-0.5-0.9
						c-0.3-0.2-0.6-0.3-1.2-0.3c-0.5,0-0.9,0.1-1.2,0.3c-0.2,0.2-0.4,0.4-0.4,0.7c0,0.2,0.1,0.4,0.3,0.6s0.6,0.3,1.3,0.5
						s1.2,0.3,1.5,0.4c0.4,0.2,0.7,0.4,0.9,0.7c0.2,0.3,0.3,0.6,0.3,0.9c0,0.4-0.1,0.7-0.3,1s-0.5,0.6-0.9,0.7
						c-0.4,0.2-0.8,0.3-1.3,0.3c-0.6,0-1.1-0.1-1.5-0.3c-0.4-0.2-0.7-0.4-1-0.8C620.8,477.4,620.7,477,620.7,476.5z"/>
					<path class="st26" d="M628.8,477.9l0.1,0.7c-0.2,0-0.4,0.1-0.6,0.1c-0.3,0-0.5,0-0.7-0.1s-0.3-0.2-0.3-0.4
						c-0.1-0.2-0.1-0.5-0.1-1v-2.8h-0.6v-0.6h0.6v-1.2l0.8-0.5v1.7h0.8v0.6H628v2.8c0,0.2,0,0.4,0,0.4c0,0.1,0.1,0.1,0.1,0.2
						s0.2,0.1,0.3,0.1C628.6,478,628.7,478,628.8,477.9z"/>
					<path class="st26" d="M632.8,478.1c-0.3,0.3-0.6,0.4-0.9,0.5c-0.3,0.1-0.6,0.2-0.9,0.2c-0.5,0-0.9-0.1-1.2-0.4s-0.4-0.6-0.4-1
						c0-0.2,0.1-0.4,0.2-0.6c0.1-0.2,0.2-0.4,0.4-0.5s0.4-0.2,0.6-0.3c0.2,0,0.4-0.1,0.7-0.1c0.7-0.1,1.1-0.2,1.5-0.3
						c0-0.1,0-0.2,0-0.2c0-0.3-0.1-0.6-0.2-0.7c-0.2-0.2-0.5-0.3-0.9-0.3s-0.7,0.1-0.8,0.2c-0.2,0.1-0.3,0.4-0.4,0.7l-0.8-0.1
						c0.1-0.3,0.2-0.6,0.4-0.8c0.2-0.2,0.4-0.4,0.7-0.5s0.7-0.2,1.1-0.2c0.4,0,0.7,0,1,0.1s0.4,0.2,0.6,0.4c0.1,0.1,0.2,0.3,0.3,0.6
						c0,0.1,0,0.4,0,0.8v1.1c0,0.8,0,1.2,0.1,1.4c0,0.2,0.1,0.4,0.2,0.6h-0.9C632.8,478.5,632.8,478.3,632.8,478.1z M632.7,476.3
						c-0.3,0.1-0.7,0.2-1.3,0.3c-0.3,0-0.6,0.1-0.7,0.2c-0.1,0.1-0.2,0.1-0.3,0.3c-0.1,0.1-0.1,0.2-0.1,0.4c0,0.2,0.1,0.4,0.2,0.5
						s0.4,0.2,0.7,0.2s0.6-0.1,0.8-0.2s0.4-0.3,0.5-0.6c0.1-0.2,0.1-0.5,0.1-0.8L632.7,476.3L632.7,476.3z"/>
					<path class="st26" d="M634.8,473v-1h0.8v0.9h-0.8V473z M634.8,478.7v-4.8h0.8v4.8H634.8z"/>
					<path class="st26" d="M636.8,478.7v-4.8h0.7v0.7c0.2-0.3,0.4-0.6,0.5-0.7s0.3-0.2,0.5-0.2c0.3,0,0.6,0.1,0.8,0.3l-0.3,0.8
						c-0.2-0.1-0.4-0.2-0.6-0.2c-0.2,0-0.3,0.1-0.5,0.2s-0.2,0.3-0.3,0.4c-0.1,0.3-0.1,0.6-0.1,0.9v2.5h-0.7L636.8,478.7
						L636.8,478.7z"/>
					<path class="st26" d="M639.6,477.2l0.8-0.1c0,0.3,0.2,0.6,0.4,0.7c0.2,0.2,0.5,0.3,0.9,0.3s0.7-0.1,0.8-0.2s0.3-0.3,0.3-0.5
						s-0.1-0.3-0.2-0.4c-0.1-0.1-0.4-0.2-0.8-0.3c-0.6-0.2-1-0.3-1.2-0.4s-0.4-0.3-0.5-0.5s-0.2-0.4-0.2-0.6s0-0.4,0.1-0.6
						s0.2-0.3,0.4-0.5c0.1-0.1,0.3-0.2,0.5-0.2s0.5-0.1,0.7-0.1c0.4,0,0.7,0.1,1,0.2s0.5,0.3,0.6,0.4c0.1,0.2,0.2,0.4,0.3,0.7
						l-0.8,0.1c0-0.2-0.1-0.4-0.3-0.6c-0.2-0.1-0.4-0.2-0.7-0.2c-0.4,0-0.6,0.1-0.8,0.2s-0.2,0.3-0.2,0.4s0,0.2,0.1,0.3
						c0.1,0.1,0.2,0.2,0.3,0.2s0.3,0.1,0.7,0.2c0.6,0.2,1,0.3,1.2,0.4s0.4,0.2,0.5,0.4c0.1,0.2,0.2,0.4,0.2,0.7
						c0,0.3-0.1,0.5-0.2,0.8c-0.2,0.2-0.4,0.4-0.7,0.6c-0.3,0.1-0.6,0.2-1,0.2c-0.6,0-1.1-0.1-1.4-0.4
						C639.9,478.1,639.7,477.8,639.6,477.2z"/>
				</g>
				<g id="Outline_Icons-2-2-4-2-5-2_2_">
					<line class="st34" x1="622.5" y1="454.5" x2="638.3" y2="454.5"/>
					<polyline class="st34" points="635.7,454.5 635.7,451.6 632.8,451.6 632.8,449 630.1,449 630.1,446.1 627.3,446.1 627.3,443.5 
						622.5,443.5 					"/>
					<line class="st34" x1="630.9" y1="438.7" x2="639.4" y2="447.2"/>
					<polyline class="st34" points="630.9,442.1 630.9,438.7 634.2,438.7 					"/>
					<polyline class="st34" points="639.4,443.8 639.4,447.2 636,447.2 					"/>
				</g>
			</g>
			<g>
				<line class="st35" x1="680.1" y1="263.6" x2="680.1" y2="264.5"/>
				<g id="elevator-7-4_2_">
					<g class="st25">
						<path class="st26" d="M654.3,291.8v-6.5h2.9c0.6,0,1,0.1,1.3,0.2s0.5,0.3,0.7,0.6c0.2,0.3,0.3,0.6,0.3,1
							c0,0.5-0.2,0.9-0.4,1.2c-0.3,0.3-0.8,0.5-1.4,0.6c0.2,0.1,0.4,0.2,0.5,0.3c0.3,0.2,0.5,0.5,0.7,0.9l1.1,1.8h-1l-0.9-1.4
							c-0.3-0.4-0.5-0.7-0.6-0.9c-0.2-0.2-0.3-0.4-0.4-0.4c-0.1-0.1-0.3-0.1-0.4-0.2c-0.1,0-0.3,0-0.5,0h-1v2.9h-0.9L654.3,291.8
							L654.3,291.8z M655.2,288.2h1.9c0.4,0,0.7,0,0.9-0.1s0.4-0.2,0.5-0.4c0.1-0.2,0.2-0.4,0.2-0.6c0-0.3-0.1-0.6-0.3-0.8
							c-0.2-0.2-0.6-0.3-1.1-0.3h-2.1L655.2,288.2L655.2,288.2z"/>
						<path class="st26" d="M664,290.3l0.8,0.1c-0.1,0.5-0.4,0.9-0.7,1.1c-0.4,0.3-0.8,0.4-1.4,0.4c-0.7,0-1.2-0.2-1.6-0.6
							c-0.4-0.4-0.6-1-0.6-1.8s0.2-1.4,0.6-1.9c0.4-0.4,0.9-0.7,1.6-0.7c0.6,0,1.1,0.2,1.5,0.6s0.6,1,0.6,1.8c0,0,0,0.1,0,0.2h-3.5
							c0,0.5,0.2,0.9,0.4,1.2c0.3,0.3,0.6,0.4,1,0.4c0.3,0,0.5-0.1,0.8-0.2C663.7,290.9,663.9,290.6,664,290.3z M661.4,289h2.6
							c0-0.4-0.1-0.7-0.3-0.9c-0.3-0.3-0.6-0.5-1-0.5s-0.7,0.1-0.9,0.4C661.6,288.2,661.4,288.6,661.4,289z"/>
						<path class="st26" d="M668.9,290.1l0.8,0.1c-0.1,0.5-0.3,1-0.7,1.3s-0.8,0.5-1.3,0.5c-0.6,0-1.2-0.2-1.6-0.6
							c-0.4-0.4-0.6-1-0.6-1.8c0-0.5,0.1-1,0.3-1.3c0.2-0.4,0.4-0.7,0.8-0.9s0.7-0.3,1.1-0.3c0.5,0,0.9,0.1,1.3,0.4s0.5,0.6,0.6,1.1
							l-0.8,0.1c-0.1-0.3-0.2-0.6-0.4-0.7s-0.4-0.2-0.7-0.2c-0.4,0-0.7,0.1-1,0.4s-0.4,0.7-0.4,1.4c0,0.6,0.1,1.1,0.4,1.4
							c0.2,0.3,0.6,0.4,1,0.4c0.3,0,0.6-0.1,0.8-0.3C668.7,290.8,668.9,290.5,668.9,290.1z"/>
						<path class="st26" d="M673.6,290.3l0.8,0.1c-0.1,0.5-0.4,0.9-0.7,1.1c-0.4,0.3-0.8,0.4-1.4,0.4c-0.7,0-1.2-0.2-1.6-0.6
							c-0.4-0.4-0.6-1-0.6-1.8s0.2-1.4,0.6-1.9c0.4-0.4,0.9-0.7,1.6-0.7c0.6,0,1.1,0.2,1.5,0.6s0.6,1,0.6,1.8c0,0,0,0.1,0,0.2H671
							c0,0.5,0.2,0.9,0.4,1.2c0.3,0.3,0.6,0.4,1,0.4c0.3,0,0.5-0.1,0.8-0.2C673.4,290.9,673.5,290.6,673.6,290.3z M671,289h2.6
							c0-0.4-0.1-0.7-0.3-0.9c-0.3-0.3-0.6-0.5-1-0.5s-0.7,0.1-0.9,0.4S671,288.6,671,289z"/>
						<path class="st26" d="M675.5,293.6v-6.5h0.7v0.6c0.2-0.2,0.4-0.4,0.6-0.5c0.2-0.1,0.5-0.2,0.8-0.2c0.4,0,0.8,0.1,1.1,0.3
							c0.3,0.2,0.5,0.5,0.7,0.9s0.2,0.8,0.2,1.2c0,0.5-0.1,0.9-0.3,1.3s-0.4,0.7-0.8,0.9c-0.3,0.2-0.7,0.3-1,0.3s-0.5-0.1-0.7-0.2
							s-0.4-0.3-0.5-0.4v2.3L675.5,293.6L675.5,293.6z M676.2,289.5c0,0.6,0.1,1.1,0.4,1.3c0.2,0.3,0.5,0.4,0.9,0.4s0.7-0.2,0.9-0.5
							c0.3-0.3,0.4-0.8,0.4-1.4s-0.1-1.1-0.4-1.4s-0.5-0.4-0.9-0.4c-0.3,0-0.6,0.2-0.9,0.5C676.3,288.4,676.2,288.9,676.2,289.5z"/>
						<path class="st26" d="M682.3,291.1l0.1,0.7c-0.2,0-0.4,0.1-0.6,0.1c-0.3,0-0.5,0-0.7-0.1s-0.3-0.2-0.3-0.4
							c-0.1-0.1-0.1-0.5-0.1-0.9v-2.7h-0.6v-0.6h0.6V286l0.8-0.5v1.7h0.8v0.6h-0.8v2.8c0,0.2,0,0.4,0,0.4s0.1,0.1,0.1,0.2
							c0.1,0,0.2,0.1,0.3,0.1C682,291.1,682.1,291.1,682.3,291.1z"/>
						<path class="st26" d="M683.1,286.2v-0.9h0.8v0.9H683.1z M683.1,291.8v-4.7h0.8v4.7H683.1z"/>
						<path class="st26" d="M684.8,289.4c0-0.9,0.2-1.5,0.7-1.9c0.4-0.3,0.9-0.5,1.5-0.5c0.7,0,1.2,0.2,1.6,0.6
							c0.4,0.4,0.6,1,0.6,1.8c0,0.6-0.1,1.1-0.3,1.4s-0.4,0.6-0.8,0.8c-0.3,0.2-0.7,0.3-1.1,0.3c-0.7,0-1.2-0.2-1.6-0.6
							S684.8,290.2,684.8,289.4z M685.6,289.4c0,0.6,0.1,1.1,0.4,1.4c0.3,0.3,0.6,0.5,1,0.5s0.7-0.2,1-0.5s0.4-0.8,0.4-1.4
							s-0.1-1-0.4-1.3c-0.3-0.3-0.6-0.5-1-0.5s-0.7,0.2-1,0.4C685.8,288.4,685.6,288.8,685.6,289.4z"/>
						<path class="st26" d="M690.2,291.8v-4.7h0.7v0.7c0.3-0.5,0.8-0.8,1.5-0.8c0.3,0,0.5,0.1,0.8,0.2c0.2,0.1,0.4,0.2,0.5,0.4
							c0.1,0.2,0.2,0.4,0.2,0.6c0,0.1,0,0.4,0,0.8v2.9h-0.8V289c0-0.3,0-0.6-0.1-0.7c-0.1-0.2-0.2-0.3-0.3-0.4
							c-0.2-0.1-0.3-0.1-0.6-0.1s-0.6,0.1-0.9,0.3c-0.2,0.2-0.4,0.6-0.4,1.2v2.6h-0.6L690.2,291.8L690.2,291.8z"/>
					</g>
					<circle class="st33" cx="673.2" cy="262.6" r="19.3"/>
					<g id="Outline_Icons-2_2_">
						<path class="st36" d="M672.5,258.1v1.2l-2.7,0.9c-0.5,0.2-0.9,0.7-0.9,1.2v0.4"/>
						<path class="st36" d="M674.8,258.1v1.2l2.7,0.9c0.5,0.2,0.9,0.7,0.9,1.2v0.4"/>
						<ellipse class="st36" cx="673.7" cy="255.8" rx="2.3" ry="2.7"/>
						<path class="st36" d="M675.9,255.7h-0.2c-0.7,0.2-1.4-0.2-1.6-0.9c-0.4,0.5-1.1,0.9-1.6,0.9c-0.4,0-0.5,0-0.9-0.2"/>
						<rect x="664.3" y="261.7" class="st36" width="17.8" height="6.2"/>
						<line class="st36" x1="666.6" y1="267.9" x2="666.6" y2="271.1"/>
						<line class="st36" x1="679.9" y1="267.9" x2="679.9" y2="271.1"/>
					</g>
				</g>
			</g>
			<g>
				<ellipse class="st33" cx="332.7" cy="453.7" rx="20.8" ry="20.8"/>
				<g class="st25">
					<path class="st26" d="M307,484.3v-6.8h1.4l1.6,4.8c0.1,0.5,0.3,0.8,0.3,1c0.1-0.2,0.2-0.6,0.4-1.1l1.6-4.8h1.2v6.8h-0.9v-5.7
						l-2,5.7h-0.8l-2-5.8v5.8H307V484.3z"/>
					<path class="st26" d="M318.1,483.6c-0.3,0.3-0.6,0.5-0.9,0.6s-0.6,0.2-0.9,0.2c-0.5,0-1-0.1-1.3-0.4s-0.4-0.6-0.4-1
						c0-0.2,0.1-0.5,0.2-0.7s0.3-0.4,0.4-0.5s0.4-0.2,0.6-0.3c0.2,0,0.4-0.1,0.7-0.1c0.7-0.1,1.2-0.2,1.5-0.3c0-0.1,0-0.2,0-0.2
						c0-0.3-0.1-0.6-0.2-0.7c-0.2-0.2-0.5-0.3-1-0.3c-0.4,0-0.7,0.1-0.9,0.2c-0.2,0.1-0.3,0.4-0.4,0.7l-0.8-0.1
						c0.1-0.4,0.2-0.6,0.4-0.9c0.2-0.2,0.4-0.4,0.7-0.5c0.3-0.1,0.7-0.2,1.1-0.2s0.8,0,1,0.1s0.5,0.2,0.6,0.4
						c0.1,0.2,0.2,0.3,0.3,0.6c0,0.1,0,0.4,0,0.8v1.1c0,0.8,0,1.3,0.1,1.5c0,0.2,0.1,0.4,0.2,0.6h-0.9
						C318.2,484.1,318.1,483.9,318.1,483.6z M318,481.8c-0.3,0.1-0.8,0.2-1.4,0.3c-0.3,0-0.6,0.1-0.7,0.2s-0.3,0.2-0.3,0.3
						c-0.1,0.1-0.1,0.3-0.1,0.4c0,0.2,0.1,0.4,0.3,0.6c0.2,0.1,0.4,0.2,0.7,0.2c0.3,0,0.6-0.1,0.9-0.2s0.4-0.3,0.6-0.6
						c0.1-0.2,0.1-0.5,0.1-0.8v-0.4H318z"/>
					<path class="st26" d="M320.1,484.3v-6.8h0.8v6.8H320.1z"/>
					<path class="st26" d="M325.7,482.7l0.9,0.1c-0.1,0.5-0.4,0.9-0.8,1.2c-0.4,0.3-0.8,0.4-1.4,0.4c-0.7,0-1.3-0.2-1.7-0.7
						c-0.4-0.4-0.6-1.1-0.6-1.9s0.2-1.5,0.6-1.9c0.4-0.5,1-0.7,1.7-0.7s1.2,0.2,1.6,0.7s0.6,1.1,0.6,1.9c0,0,0,0.1,0,0.2h-3.7
						c0,0.5,0.2,1,0.5,1.2c0.3,0.3,0.6,0.4,1,0.4c0.3,0,0.6-0.1,0.8-0.2C325.4,483.3,325.5,483,325.7,482.7z M322.9,481.3h2.8
						c0-0.4-0.1-0.7-0.3-0.9c-0.3-0.3-0.6-0.5-1-0.5s-0.7,0.1-1,0.4S322.9,480.9,322.9,481.3z"/>
				</g>
				<g class="st25">
					<path class="st26" d="M331.9,484.3v-6h-2.3v-0.8h5.4v0.8h-2.3v6H331.9z"/>
				</g>
				<g class="st25">
					<path class="st26" d="M334.5,481.8c0-0.9,0.3-1.6,0.8-2c0.4-0.4,0.9-0.5,1.6-0.5s1.2,0.2,1.7,0.7c0.4,0.4,0.6,1.1,0.6,1.8
						c0,0.6-0.1,1.1-0.3,1.5s-0.5,0.6-0.8,0.9s-0.8,0.3-1.2,0.3c-0.7,0-1.3-0.2-1.7-0.7S334.5,482.6,334.5,481.8z M335.4,481.8
						c0,0.6,0.1,1.1,0.4,1.4s0.6,0.5,1,0.5s0.8-0.2,1-0.5c0.3-0.3,0.4-0.8,0.4-1.4s-0.1-1.1-0.4-1.4s-0.6-0.5-1-0.5s-0.8,0.2-1,0.5
						C335.5,480.7,335.4,481.1,335.4,481.8z"/>
					<path class="st26" d="M340.2,478.4v-1h0.8v1H340.2z M340.2,484.3v-5h0.8v5H340.2z"/>
					<path class="st26" d="M342.2,484.3v-6.8h0.8v6.8H342.2z"/>
					<path class="st26" d="M347.8,482.7l0.9,0.1c-0.1,0.5-0.4,0.9-0.8,1.2c-0.4,0.3-0.8,0.4-1.4,0.4c-0.7,0-1.3-0.2-1.7-0.7
						c-0.4-0.4-0.6-1.1-0.6-1.9s0.2-1.5,0.6-1.9c0.4-0.5,1-0.7,1.7-0.7s1.2,0.2,1.6,0.7s0.6,1.1,0.6,1.9c0,0,0,0.1,0,0.2H345
						c0,0.5,0.2,1,0.5,1.2c0.3,0.3,0.6,0.4,1,0.4c0.3,0,0.6-0.1,0.8-0.2C347.5,483.3,347.7,483,347.8,482.7z M345,481.3h2.8
						c0-0.4-0.1-0.7-0.3-0.9c-0.3-0.3-0.6-0.5-1-0.5s-0.7,0.1-1,0.4S345.1,480.9,345,481.3z"/>
					<path class="st26" d="M351.5,483.5l0.1,0.7c-0.2,0-0.4,0.1-0.6,0.1c-0.3,0-0.5,0-0.7-0.1s-0.3-0.2-0.4-0.4s-0.1-0.5-0.1-1V480
						h-0.6v-0.7h0.6v-1.2l0.8-0.5v1.7h0.8v0.7h-0.8v2.9c0,0.2,0,0.4,0,0.5s0.1,0.1,0.1,0.2s0.2,0.1,0.3,0.1
						C351.3,483.5,351.4,483.5,351.5,483.5z"/>
					<path class="st26" d="M352,482.8l0.8-0.1c0,0.3,0.2,0.6,0.4,0.8s0.5,0.3,0.9,0.3s0.7-0.1,0.9-0.2s0.3-0.3,0.3-0.6
						c0-0.2-0.1-0.3-0.2-0.4s-0.4-0.2-0.9-0.3c-0.6-0.2-1-0.3-1.3-0.4s-0.4-0.3-0.5-0.5s-0.2-0.4-0.2-0.7c0-0.2,0.1-0.4,0.2-0.6
						s0.2-0.3,0.4-0.5c0.1-0.1,0.3-0.2,0.5-0.2c0.2-0.1,0.5-0.1,0.7-0.1c0.4,0,0.7,0.1,1,0.2s0.5,0.3,0.7,0.5
						c0.1,0.2,0.2,0.4,0.3,0.8l-0.8,0.1c0-0.3-0.1-0.5-0.3-0.6c-0.2-0.1-0.4-0.2-0.8-0.2s-0.7,0.1-0.8,0.2c-0.2,0.1-0.2,0.3-0.2,0.4
						s0,0.2,0.1,0.3c0.1,0.1,0.2,0.2,0.3,0.2c0.1,0,0.3,0.1,0.7,0.2c0.6,0.2,1,0.3,1.2,0.4s0.4,0.2,0.6,0.4c0.1,0.2,0.2,0.4,0.2,0.7
						c0,0.3-0.1,0.5-0.2,0.8c-0.2,0.2-0.4,0.4-0.7,0.6c-0.3,0.1-0.7,0.2-1,0.2c-0.6,0-1.1-0.1-1.5-0.4
						C352.3,483.7,352.1,483.3,352,482.8z"/>
				</g>
				<circle class="st34" cx="333.2" cy="446.7" r="3.2"/>
				<path class="st34" d="M338,451.7h-9.9c-0.4,2.7,0.9,5.3,3.2,6.7v5.9h3.6v-5.9C337.2,456.9,338.4,454.4,338,451.7z"/>
			</g>
			<g>
				<ellipse class="st33" cx="343.6" cy="358.8" rx="20.8" ry="20.8"/>
				<g class="st25">
					<path class="st26" d="M315.4,390.8V384h4.6v0.8h-3.7v2.1h3.2v0.8h-3.2v3.1H315.4z"/>
					<path class="st26" d="M324.4,389.2l0.9,0.1c-0.1,0.5-0.4,0.9-0.8,1.2c-0.4,0.3-0.8,0.4-1.4,0.4c-0.7,0-1.3-0.2-1.7-0.7
						c-0.4-0.4-0.6-1.1-0.6-1.9s0.2-1.5,0.6-1.9s1-0.7,1.7-0.7s1.2,0.2,1.6,0.7s0.6,1.1,0.6,1.9c0,0,0,0.1,0,0.2h-3.7
						c0,0.5,0.2,1,0.5,1.2c0.3,0.3,0.6,0.4,1,0.4c0.3,0,0.6-0.1,0.8-0.2C324.1,389.8,324.3,389.5,324.4,389.2z M321.7,387.8h2.8
						c0-0.4-0.1-0.7-0.3-0.9c-0.3-0.3-0.6-0.5-1-0.5s-0.7,0.1-1,0.4S321.7,387.4,321.7,387.8z"/>
					<path class="st26" d="M326.4,390.8v-5h0.8v0.7c0.2-0.2,0.4-0.4,0.6-0.6s0.6-0.2,0.9-0.2c0.4,0,0.7,0.1,0.9,0.2s0.4,0.4,0.5,0.6
						c0.4-0.6,0.9-0.9,1.5-0.9c0.5,0,0.9,0.1,1.1,0.4c0.3,0.3,0.4,0.7,0.4,1.3v3.4h-0.8v-3.1c0-0.3,0-0.6-0.1-0.7s-0.2-0.3-0.3-0.4
						c-0.1-0.1-0.3-0.1-0.5-0.1c-0.3,0-0.6,0.1-0.9,0.3c-0.2,0.2-0.3,0.6-0.3,1.1v2.9h-0.8v-3.2c0-0.4-0.1-0.7-0.2-0.8
						s-0.4-0.3-0.7-0.3c-0.2,0-0.5,0.1-0.7,0.2s-0.3,0.3-0.4,0.5s-0.1,0.6-0.1,1v2.6h-0.9V390.8z"/>
					<path class="st26" d="M337.5,390.2c-0.3,0.3-0.6,0.5-0.9,0.6s-0.6,0.2-0.9,0.2c-0.5,0-1-0.1-1.3-0.4s-0.4-0.6-0.4-1
						c0-0.2,0.1-0.5,0.2-0.7s0.3-0.4,0.4-0.5s0.4-0.2,0.6-0.3c0.2,0,0.4-0.1,0.7-0.1c0.7-0.1,1.2-0.2,1.5-0.3c0-0.1,0-0.2,0-0.2
						c0-0.3-0.1-0.6-0.2-0.7c-0.2-0.2-0.5-0.3-1-0.3c-0.4,0-0.7,0.1-0.9,0.2c-0.2,0.1-0.3,0.4-0.4,0.7l-0.8-0.1
						c0.1-0.4,0.2-0.6,0.4-0.9c0.2-0.2,0.4-0.4,0.7-0.5c0.3-0.1,0.7-0.2,1.1-0.2s0.8,0,1,0.1c0.3,0.1,0.5,0.2,0.6,0.4
						c0.1,0.2,0.2,0.3,0.3,0.6c0,0.1,0,0.4,0,0.8v1.1c0,0.8,0,1.3,0.1,1.5c0,0.2,0.1,0.4,0.2,0.6h-0.9
						C337.6,390.6,337.6,390.4,337.5,390.2z M337.5,388.3c-0.3,0.1-0.8,0.2-1.4,0.3c-0.3,0-0.6,0.1-0.7,0.2s-0.3,0.2-0.3,0.3
						c-0.1,0.1-0.1,0.3-0.1,0.4c0,0.2,0.1,0.4,0.3,0.6c0.2,0.1,0.4,0.2,0.7,0.2c0.3,0,0.6-0.1,0.9-0.2s0.4-0.3,0.6-0.6
						c0.1-0.2,0.1-0.5,0.1-0.8v-0.4H337.5z"/>
					<path class="st26" d="M339.6,390.8V384h0.8v6.8H339.6z"/>
					<path class="st26" d="M345.1,389.2l0.9,0.1c-0.1,0.5-0.4,0.9-0.8,1.2c-0.4,0.3-0.8,0.4-1.4,0.4c-0.7,0-1.3-0.2-1.7-0.7
						c-0.4-0.4-0.6-1.1-0.6-1.9s0.2-1.5,0.6-1.9s1-0.7,1.7-0.7s1.2,0.2,1.6,0.7s0.6,1.1,0.6,1.9c0,0,0,0.1,0,0.2h-3.7
						c0,0.5,0.2,1,0.5,1.2c0.3,0.3,0.6,0.4,1,0.4c0.3,0,0.6-0.1,0.8-0.2C344.8,389.8,345,389.5,345.1,389.2z M342.4,387.8h2.8
						c0-0.4-0.1-0.7-0.3-0.9c-0.3-0.3-0.6-0.5-1-0.5s-0.7,0.1-1,0.4S342.4,387.4,342.4,387.8z"/>
				</g>
				<g class="st25">
					<path class="st26" d="M348.9,390.8v-6h-2.3V384h5.4v0.8h-2.3v6H348.9z"/>
				</g>
				<g class="st25">
					<path class="st26" d="M351.5,388.3c0-0.9,0.3-1.6,0.8-2c0.4-0.4,0.9-0.5,1.6-0.5s1.2,0.2,1.7,0.7c0.4,0.4,0.6,1.1,0.6,1.8
						c0,0.6-0.1,1.1-0.3,1.5s-0.5,0.6-0.8,0.9s-0.8,0.3-1.2,0.3c-0.7,0-1.3-0.2-1.7-0.7S351.5,389.1,351.5,388.3z M352.4,388.3
						c0,0.6,0.1,1.1,0.4,1.4s0.6,0.5,1,0.5s0.8-0.2,1-0.5c0.3-0.3,0.4-0.8,0.4-1.4s-0.1-1.1-0.4-1.4s-0.6-0.5-1-0.5s-0.8,0.2-1,0.5
						C352.5,387.2,352.4,387.7,352.4,388.3z"/>
					<path class="st26" d="M357.1,384.9v-1h0.8v1H357.1z M357.1,390.8v-5h0.8v5H357.1z"/>
					<path class="st26" d="M359.2,390.8V384h0.8v6.8H359.2z"/>
					<path class="st26" d="M364.8,389.2l0.9,0.1c-0.1,0.5-0.4,0.9-0.8,1.2c-0.4,0.3-0.8,0.4-1.4,0.4c-0.7,0-1.3-0.2-1.7-0.7
						c-0.4-0.4-0.6-1.1-0.6-1.9s0.2-1.5,0.6-1.9c0.4-0.5,1-0.7,1.7-0.7s1.2,0.2,1.6,0.7s0.6,1.1,0.6,1.9c0,0,0,0.1,0,0.2H362
						c0,0.5,0.2,1,0.5,1.2c0.3,0.3,0.6,0.4,1,0.4c0.3,0,0.6-0.1,0.8-0.2C364.5,389.8,364.6,389.5,364.8,389.2z M362,387.8h2.8
						c0-0.4-0.1-0.7-0.3-0.9c-0.3-0.3-0.6-0.5-1-0.5s-0.7,0.1-1,0.4S362,387.4,362,387.8z"/>
					<path class="st26" d="M368.5,390l0.1,0.7c-0.2,0-0.4,0.1-0.6,0.1c-0.3,0-0.5,0-0.7-0.1s-0.3-0.2-0.4-0.4s-0.1-0.5-0.1-1v-2.8
						h-0.6v-0.7h0.6v-1.2l0.8-0.5v1.7h0.8v0.7h-0.8v2.9c0,0.2,0,0.4,0,0.5s0.1,0.1,0.1,0.2s0.2,0.1,0.3,0.1
						C368.3,390.1,368.4,390.1,368.5,390z"/>
				</g>
				<circle class="st34" cx="343.4" cy="352.1" r="3"/>
				<path class="st34" d="M343.4,356.3c-2.7,0-4.8,3.9-4.8,8.2h3v4.3h3.4v-4.3h3C348,360.2,346.1,356.3,343.4,356.3z"/>
			</g>
			<g>
				<g class="st25">
					<path class="st26" d="M268.3,363.7l1.6-4.3h0.6l1.7,4.3h-0.6l-0.5-1.3h-1.8l-0.5,1.3H268.3z M269.5,362h1.4l-0.4-1.2
						c-0.1-0.4-0.2-0.7-0.3-0.9c-0.1,0.3-0.1,0.5-0.2,0.8L269.5,362z"/>
					<path class="st26" d="M275.7,362.2l0.6,0.1c-0.1,0.5-0.3,0.8-0.6,1.1s-0.7,0.4-1.1,0.4c-0.5,0-0.8-0.1-1.1-0.3
						c-0.3-0.2-0.5-0.5-0.7-0.8c-0.2-0.4-0.2-0.7-0.2-1.1s0.1-0.8,0.3-1.2c0.2-0.3,0.4-0.6,0.7-0.8c0.3-0.2,0.7-0.3,1-0.3
						c0.4,0,0.8,0.1,1.1,0.3c0.3,0.2,0.5,0.5,0.6,0.9l-0.6,0.1c-0.1-0.3-0.2-0.5-0.4-0.7c-0.2-0.1-0.4-0.2-0.7-0.2
						c-0.3,0-0.6,0.1-0.8,0.2c-0.2,0.2-0.4,0.4-0.5,0.6c-0.1,0.3-0.1,0.5-0.1,0.8c0,0.4,0.1,0.7,0.2,0.9c0.1,0.3,0.3,0.5,0.5,0.6
						s0.5,0.2,0.7,0.2c0.3,0,0.6-0.1,0.8-0.3C275.5,362.9,275.7,362.6,275.7,362.2z"/>
					<path class="st26" d="M280,362.2l0.6,0.1c-0.1,0.5-0.3,0.8-0.6,1.1s-0.7,0.4-1.1,0.4c-0.5,0-0.8-0.1-1.1-0.3
						c-0.3-0.2-0.5-0.5-0.7-0.8c-0.1-0.4-0.2-0.7-0.2-1.1s0.1-0.8,0.3-1.2c0.2-0.3,0.4-0.6,0.7-0.8c0.3-0.2,0.7-0.3,1-0.3
						c0.4,0,0.8,0.1,1.1,0.3c0.3,0.2,0.5,0.5,0.6,0.9l-0.6,0.1c-0.1-0.3-0.2-0.5-0.4-0.7c-0.2-0.1-0.4-0.2-0.7-0.2
						c-0.3,0-0.6,0.1-0.8,0.2c-0.2,0.2-0.4,0.4-0.5,0.6c-0.1,0.3-0.1,0.5-0.1,0.8c0,0.4,0.1,0.7,0.2,0.9c0.1,0.3,0.3,0.5,0.5,0.6
						s0.5,0.2,0.7,0.2c0.3,0,0.6-0.1,0.8-0.3C279.8,362.9,280,362.6,280,362.2z"/>
				</g>
				<g class="st25">
					<path class="st26" d="M269.2,370.9v-3.8h-1.4v-0.5h3.4v0.5h-1.4v3.8H269.2z"/>
				</g>
				<g class="st25">
					<path class="st26" d="M270.8,369.3c0-0.6,0.2-1,0.5-1.3c0.3-0.2,0.6-0.3,1-0.3s0.8,0.1,1,0.4c0.3,0.3,0.4,0.7,0.4,1.2
						c0,0.4-0.1,0.7-0.2,0.9c-0.1,0.2-0.3,0.4-0.5,0.5s-0.5,0.2-0.7,0.2c-0.4,0-0.8-0.1-1-0.4C270.9,370.2,270.8,369.8,270.8,369.3z
						 M271.3,369.3c0,0.4,0.1,0.7,0.3,0.9c0.2,0.2,0.4,0.3,0.7,0.3c0.3,0,0.5-0.1,0.6-0.3c0.2-0.2,0.3-0.5,0.3-0.9s-0.1-0.7-0.3-0.9
						c-0.2-0.2-0.4-0.3-0.6-0.3c-0.3,0-0.5,0.1-0.7,0.3C271.4,368.6,271.3,368.9,271.3,369.3z"/>
					<path class="st26" d="M274.3,367.2v-0.6h0.5v0.6H274.3z M274.3,370.9v-3.1h0.5v3.1H274.3z"/>
					<path class="st26" d="M275.6,370.9v-4.3h0.5v4.3H275.6z"/>
					<path class="st26" d="M279,369.9l0.5,0.1c-0.1,0.3-0.2,0.6-0.5,0.7c-0.2,0.2-0.5,0.3-0.9,0.3c-0.5,0-0.8-0.1-1.1-0.4
						c-0.3-0.3-0.4-0.7-0.4-1.2s0.1-0.9,0.4-1.2c0.3-0.3,0.6-0.4,1-0.4s0.7,0.1,1,0.4s0.4,0.7,0.4,1.2v0.1h-2.3
						c0,0.3,0.1,0.6,0.3,0.8c0.2,0.2,0.4,0.3,0.6,0.3s0.4,0,0.5-0.2S279,370.1,279,369.9z M277.3,369h1.7c0-0.3-0.1-0.5-0.2-0.6
						c-0.2-0.2-0.4-0.3-0.6-0.3s-0.4,0.1-0.6,0.2C277.4,368.5,277.4,368.8,277.3,369z"/>
					<path class="st26" d="M281.4,370.4l0.1,0.5c-0.1,0-0.3,0-0.4,0c-0.2,0-0.3,0-0.4-0.1s-0.2-0.1-0.2-0.2s-0.1-0.3-0.1-0.6v-1.8
						H280v-0.4h0.4V367l0.5-0.3v1.1h0.5v0.4h-0.5v1.8c0,0.1,0,0.2,0,0.3c0,0,0,0.1,0.1,0.1c0,0,0.1,0,0.2,0
						C281.2,370.4,281.3,370.4,281.4,370.4z"/>
				</g>
				<circle class="st33" cx="275.3" cy="345.5" r="12.2"/>
				<circle class="st37" cx="275.2" cy="339.6" r="1.1"/>
				<path class="st37" d="M276,345.9l2.3,0.7c0.2,0,0.5,0.4,0.5,0.5l1.2,4.4h-0.7l-1.6-3.9l-2.5-0.2c-0.4,0-0.7-0.4-0.7-0.7l0,0
					v-4.8h1.2L276,345.9z"/>
				<path class="st37" d="M275.3,347.5c-0.4,0-0.7-0.4-0.7-0.7l0,0V346c-1.6-0.2-3,0.9-3.2,2.3s0.9,3,2.3,3.2s3-0.9,3.2-2.3l0,0l0,0
					c0-0.2,0-0.2,0-0.4c0-0.4,0-0.7-0.2-1.1L275.3,347.5z"/>
			</g>
			<g class="st25">
				<path class="st26" d="M90.1,274.4l0.8-0.1c0,0.3,0.1,0.6,0.3,0.8c0.1,0.2,0.4,0.4,0.7,0.5c0.3,0.1,0.6,0.2,1,0.2
					c0.3,0,0.6,0,0.9-0.1s0.4-0.2,0.6-0.4c0.1-0.2,0.2-0.4,0.2-0.6s-0.1-0.4-0.2-0.5s-0.3-0.3-0.6-0.4c-0.2-0.1-0.6-0.2-1.2-0.3
					c-0.6-0.1-1-0.3-1.3-0.4c-0.3-0.2-0.6-0.4-0.7-0.6c-0.2-0.2-0.2-0.5-0.2-0.8s0.1-0.6,0.3-0.9s0.5-0.5,0.8-0.7
					c0.4-0.2,0.8-0.2,1.2-0.2c0.5,0,0.9,0.1,1.3,0.2c0.4,0.2,0.7,0.4,0.9,0.7c0.2,0.3,0.3,0.7,0.3,1l-0.8,0.1c0-0.4-0.2-0.7-0.5-0.9
					c-0.3-0.2-0.6-0.3-1.2-0.3c-0.5,0-0.9,0.1-1.2,0.3c-0.2,0.2-0.4,0.4-0.4,0.7c0,0.2,0.1,0.4,0.3,0.6c0.2,0.2,0.6,0.3,1.3,0.5
					c0.7,0.2,1.2,0.3,1.5,0.4c0.4,0.2,0.7,0.4,0.9,0.7c0.2,0.3,0.3,0.6,0.3,0.9c0,0.4-0.1,0.7-0.3,1c-0.2,0.3-0.5,0.6-0.9,0.7
					c-0.4,0.2-0.8,0.3-1.3,0.3c-0.6,0-1.1-0.1-1.5-0.3c-0.4-0.2-0.7-0.4-1-0.8C90.2,275.2,90.1,274.8,90.1,274.4z"/>
				<path class="st26" d="M98.2,275.8l0.1,0.7c-0.2,0-0.4,0.1-0.6,0.1c-0.3,0-0.5,0-0.7-0.1s-0.3-0.2-0.3-0.4
					c-0.1-0.2-0.1-0.5-0.1-1v-2.8H96v-0.6h0.6v-1.2l0.8-0.5v1.7h0.8v0.6h-0.8v2.8c0,0.2,0,0.4,0,0.4c0,0.1,0.1,0.1,0.1,0.2
					c0.1,0,0.2,0.1,0.3,0.1C97.9,275.8,98.1,275.8,98.2,275.8z"/>
				<path class="st26" d="M102.2,276.5v-0.7c-0.4,0.5-0.9,0.8-1.5,0.8c-0.3,0-0.5-0.1-0.8-0.2c-0.2-0.1-0.4-0.2-0.5-0.4
					c-0.1-0.2-0.2-0.4-0.3-0.6c0-0.2,0-0.4,0-0.8v-3h0.8v2.7c0,0.4,0,0.7,0,0.9c0.1,0.2,0.2,0.4,0.3,0.5c0.2,0.1,0.4,0.2,0.6,0.2
					s0.5-0.1,0.7-0.2s0.4-0.3,0.5-0.5s0.1-0.5,0.1-0.9v-2.6h0.8v4.8L102.2,276.5L102.2,276.5z"/>
				<path class="st26" d="M107.3,276.5v-0.6c-0.3,0.5-0.8,0.7-1.3,0.7c-0.4,0-0.7-0.1-1.1-0.3c-0.3-0.2-0.6-0.5-0.7-0.9
					c-0.2-0.4-0.3-0.8-0.3-1.3s0.1-0.9,0.2-1.3s0.4-0.7,0.7-0.9c0.3-0.2,0.7-0.3,1.1-0.3c0.3,0,0.5,0.1,0.8,0.2s0.4,0.3,0.6,0.5
					v-2.4h0.8v6.6L107.3,276.5L107.3,276.5z M104.7,274.1c0,0.6,0.1,1.1,0.4,1.4s0.6,0.5,0.9,0.5c0.4,0,0.7-0.1,0.9-0.4
					c0.2-0.3,0.4-0.7,0.4-1.3c0-0.7-0.1-1.1-0.4-1.4s-0.6-0.5-0.9-0.5c-0.4,0-0.7,0.1-0.9,0.4C104.8,273,104.7,273.5,104.7,274.1z"
					/>
				<path class="st26" d="M109.3,278.3l-0.1-0.8c0.2,0,0.3,0.1,0.5,0.1s0.3,0,0.4-0.1s0.2-0.1,0.3-0.3c0.1-0.1,0.1-0.3,0.2-0.6
					c0,0,0-0.1,0.1-0.2l-1.8-4.8h0.9l1,2.8c0.1,0.4,0.2,0.7,0.3,1.1c0.1-0.4,0.2-0.7,0.3-1.1l1-2.8h0.8l-1.8,4.9
					c-0.2,0.5-0.3,0.9-0.5,1.1c-0.1,0.3-0.3,0.5-0.5,0.6s-0.4,0.2-0.7,0.2C109.6,278.4,109.5,278.4,109.3,278.3z"/>
				<path class="st26" d="M116.6,276.5v-6.6h2.5c0.4,0,0.8,0,1,0.1c0.3,0.1,0.6,0.2,0.8,0.3s0.4,0.4,0.5,0.6s0.2,0.6,0.2,0.9
					c0,0.6-0.2,1-0.5,1.4c-0.4,0.4-1,0.6-1.9,0.6h-1.7v2.7H116.6z M117.5,273h1.7c0.6,0,1-0.1,1.2-0.3c0.2-0.2,0.4-0.5,0.4-0.9
					c0-0.3-0.1-0.5-0.2-0.7s-0.3-0.3-0.6-0.4c-0.1,0-0.4-0.1-0.8-0.1h-1.7V273z"/>
				<path class="st26" d="M122.4,274.1c0-0.9,0.2-1.5,0.7-2c0.4-0.4,0.9-0.5,1.5-0.5c0.7,0,1.2,0.2,1.6,0.6s0.6,1,0.6,1.8
					c0,0.6-0.1,1.1-0.3,1.5c-0.2,0.4-0.5,0.6-0.8,0.8c-0.4,0.2-0.7,0.3-1.2,0.3c-0.7,0-1.2-0.2-1.6-0.6S122.4,274.9,122.4,274.1z
					 M123.2,274.1c0,0.6,0.1,1.1,0.4,1.4s0.6,0.5,1,0.5s0.7-0.2,1-0.5s0.4-0.8,0.4-1.4s-0.1-1-0.4-1.3s-0.6-0.5-1-0.5
					s-0.7,0.2-1,0.5C123.4,273,123.2,273.5,123.2,274.1z"/>
				<path class="st26" d="M131,276.5v-0.6c-0.3,0.5-0.8,0.7-1.3,0.7c-0.4,0-0.7-0.1-1.1-0.3c-0.3-0.2-0.6-0.5-0.7-0.9
					c-0.2-0.4-0.3-0.8-0.3-1.3s0.1-0.9,0.2-1.3s0.4-0.7,0.7-0.9c0.3-0.2,0.7-0.3,1.1-0.3c0.3,0,0.5,0.1,0.8,0.2s0.4,0.3,0.6,0.5
					v-2.4h0.8v6.6L131,276.5L131,276.5z M128.4,274.1c0,0.6,0.1,1.1,0.4,1.4s0.6,0.5,0.9,0.5c0.4,0,0.7-0.1,0.9-0.4s0.4-0.7,0.4-1.3
					c0-0.7-0.1-1.1-0.4-1.4c-0.3-0.3-0.6-0.5-0.9-0.5c-0.4,0-0.7,0.1-0.9,0.4C128.5,273,128.4,273.5,128.4,274.1z"/>
				<path class="st26" d="M132.7,275.1l0.8-0.1c0,0.3,0.2,0.6,0.4,0.7s0.5,0.3,0.9,0.3s0.7-0.1,0.8-0.2c0.2-0.2,0.3-0.3,0.3-0.5
					s-0.1-0.3-0.2-0.4c-0.1-0.1-0.4-0.2-0.8-0.3c-0.6-0.2-1-0.3-1.2-0.4s-0.4-0.3-0.5-0.5s-0.2-0.4-0.2-0.6s0-0.4,0.1-0.6
					s0.2-0.3,0.4-0.5c0.1-0.1,0.3-0.2,0.5-0.2s0.5-0.1,0.7-0.1c0.4,0,0.7,0.1,1,0.2s0.5,0.3,0.6,0.4c0.1,0.2,0.2,0.4,0.3,0.7
					l-0.8,0.1c0-0.2-0.1-0.4-0.3-0.6c-0.2-0.1-0.4-0.2-0.7-0.2c-0.4,0-0.6,0.1-0.8,0.2s-0.2,0.3-0.2,0.4s0,0.2,0.1,0.3
					c0.1,0.1,0.2,0.2,0.3,0.2s0.3,0.1,0.7,0.2c0.6,0.2,1,0.3,1.2,0.4s0.4,0.2,0.5,0.4c0.1,0.2,0.2,0.4,0.2,0.7
					c0,0.3-0.1,0.5-0.2,0.8c-0.2,0.2-0.4,0.4-0.7,0.6c-0.3,0.1-0.6,0.2-1,0.2c-0.6,0-1.1-0.1-1.4-0.4
					C133,275.9,132.8,275.6,132.7,275.1z"/>
			</g>
			<g class="st25">
				<path class="st26" d="M721,178.2v-6.6h2.5c0.5,0,0.9,0.1,1.2,0.2c0.3,0.1,0.5,0.3,0.7,0.6s0.3,0.6,0.3,0.9
					c0,0.3-0.1,0.6-0.2,0.8c-0.2,0.2-0.4,0.5-0.7,0.6c0.4,0.1,0.7,0.3,0.9,0.6s0.3,0.6,0.3,1c0,0.3-0.1,0.6-0.2,0.9
					s-0.3,0.5-0.5,0.6s-0.4,0.3-0.7,0.3c-0.3,0.1-0.6,0.1-1.1,0.1L721,178.2L721,178.2z M721.9,174.4h1.4c0.4,0,0.7,0,0.8-0.1
					c0.2-0.1,0.4-0.2,0.5-0.3c0.1-0.2,0.2-0.3,0.2-0.6c0-0.2-0.1-0.4-0.2-0.6c-0.1-0.2-0.3-0.3-0.5-0.3s-0.5-0.1-1-0.1h-1.3
					L721.9,174.4L721.9,174.4z M721.9,177.4h1.7c0.3,0,0.5,0,0.6,0c0.2,0,0.4-0.1,0.5-0.2c0.1-0.1,0.2-0.2,0.3-0.4s0.1-0.3,0.1-0.6
					c0-0.2-0.1-0.5-0.2-0.6s-0.3-0.3-0.5-0.4c-0.2-0.1-0.5-0.1-1-0.1h-1.5L721.9,177.4L721.9,177.4z"/>
				<path class="st26" d="M727.1,178.2v-4.8h0.7v0.7c0.2-0.3,0.4-0.6,0.5-0.7s0.3-0.2,0.5-0.2c0.3,0,0.6,0.1,0.8,0.3l-0.3,0.8
					c-0.2-0.1-0.4-0.2-0.6-0.2c-0.2,0-0.3,0.1-0.5,0.2c-0.1,0.1-0.2,0.3-0.3,0.4c-0.1,0.3-0.1,0.6-0.1,0.9v2.5h-0.7L727.1,178.2
					L727.1,178.2z"/>
				<path class="st26" d="M733.5,176.7l0.8,0.1c-0.1,0.5-0.4,0.9-0.7,1.1c-0.4,0.3-0.8,0.4-1.4,0.4c-0.7,0-1.3-0.2-1.7-0.6
					c-0.4-0.4-0.6-1-0.6-1.8s0.2-1.4,0.6-1.9s1-0.7,1.6-0.7s1.2,0.2,1.6,0.7c0.4,0.4,0.6,1.1,0.6,1.8c0,0,0,0.1,0,0.2h-3.6
					c0,0.5,0.2,0.9,0.4,1.2s0.6,0.4,1,0.4c0.3,0,0.6-0.1,0.8-0.2C733.2,177.2,733.4,177,733.5,176.7z M730.8,175.3h2.7
					c0-0.4-0.1-0.7-0.3-0.9c-0.3-0.3-0.6-0.5-1-0.5s-0.7,0.1-0.9,0.4C731,174.6,730.9,174.9,730.8,175.3z"/>
				<path class="st26" d="M738.5,177.6c-0.3,0.3-0.6,0.4-0.9,0.5c-0.3,0.1-0.6,0.2-0.9,0.2c-0.5,0-0.9-0.1-1.2-0.4s-0.4-0.6-0.4-1
					c0-0.2,0.1-0.4,0.2-0.6s0.2-0.4,0.4-0.5s0.4-0.2,0.6-0.3c0.2,0,0.4-0.1,0.7-0.1c0.7-0.1,1.1-0.2,1.5-0.3c0-0.1,0-0.2,0-0.2
					c0-0.3-0.1-0.6-0.2-0.7c-0.2-0.2-0.5-0.3-0.9-0.3s-0.7,0.1-0.8,0.2c-0.2,0.1-0.3,0.4-0.4,0.7l-0.8-0.1c0.1-0.3,0.2-0.6,0.4-0.8
					s0.4-0.4,0.7-0.5s0.7-0.2,1.1-0.2c0.4,0,0.7,0,1,0.1s0.4,0.2,0.6,0.4c0.1,0.1,0.2,0.3,0.3,0.6c0,0.1,0,0.4,0,0.8v1.1
					c0,0.8,0,1.2,0.1,1.4c0,0.2,0.1,0.4,0.2,0.6h-0.9C738.6,178,738.5,177.8,738.5,177.6z M738.4,175.8c-0.3,0.1-0.7,0.2-1.3,0.3
					c-0.3,0-0.6,0.1-0.7,0.2c-0.1,0.1-0.2,0.1-0.3,0.3c-0.1,0.1-0.1,0.2-0.1,0.4s0.1,0.4,0.2,0.5s0.4,0.2,0.7,0.2s0.6-0.1,0.8-0.2
					c0.2-0.1,0.4-0.3,0.5-0.6c0.1-0.2,0.1-0.5,0.1-0.8L738.4,175.8L738.4,175.8z"/>
				<path class="st26" d="M740.5,178.2v-6.6h0.8v3.8l1.9-2h1.1l-1.8,1.8l2,3h-1l-1.6-2.5l-0.6,0.6v1.9H740.5z"/>
				<path class="st26" d="M744.8,175.8c0-0.9,0.2-1.5,0.7-2c0.4-0.4,0.9-0.5,1.5-0.5c0.7,0,1.2,0.2,1.6,0.6c0.4,0.4,0.6,1,0.6,1.8
					c0,0.6-0.1,1.1-0.3,1.5s-0.5,0.6-0.8,0.8c-0.4,0.2-0.7,0.3-1.2,0.3c-0.7,0-1.2-0.2-1.6-0.6C745.1,177.2,744.8,176.6,744.8,175.8
					z M745.7,175.8c0,0.6,0.1,1.1,0.4,1.4c0.3,0.3,0.6,0.5,1,0.5s0.7-0.2,1-0.5s0.4-0.8,0.4-1.4c0-0.6-0.1-1-0.4-1.3
					c-0.3-0.3-0.6-0.5-1-0.5s-0.7,0.2-1,0.5C745.8,174.7,745.7,175.2,745.7,175.8z"/>
				<path class="st26" d="M753.4,178.2v-0.7c-0.4,0.5-0.9,0.8-1.5,0.8c-0.3,0-0.5-0.1-0.8-0.2c-0.2-0.1-0.4-0.2-0.5-0.4
					s-0.2-0.4-0.2-0.6c0-0.2-0.1-0.4-0.1-0.8v-3h0.8v2.7c0,0.4,0,0.7,0,0.9c0.1,0.2,0.2,0.4,0.3,0.5s0.4,0.2,0.6,0.2
					s0.5-0.1,0.7-0.2c0.2-0.1,0.4-0.3,0.5-0.5s0.1-0.5,0.1-0.9v-2.6h0.8v4.8H753.4z"/>
				<path class="st26" d="M757.2,177.5l0.1,0.7c-0.2,0-0.4,0.1-0.6,0.1c-0.3,0-0.5,0-0.7-0.1s-0.3-0.2-0.3-0.4s-0.1-0.5-0.1-1V174
					H755v-0.6h0.6v-1.2l0.8-0.5v1.7h0.8v0.6h-0.8v2.8c0,0.2,0,0.4,0,0.4s0.1,0.1,0.1,0.2s0.2,0.1,0.3,0.1
					C757,177.5,757.1,177.5,757.2,177.5z"/>
				<path class="st26" d="M760.2,178.2v-0.8l3.4-4.2c0.2-0.3,0.5-0.6,0.7-0.8h-3.7v-0.8h4.7v0.8l-3.7,4.6l-0.4,0.5h4.2v0.8h-5.2
					V178.2z"/>
				<path class="st26" d="M765.9,175.8c0-0.9,0.2-1.5,0.7-2c0.4-0.4,0.9-0.5,1.5-0.5c0.7,0,1.2,0.2,1.6,0.6c0.4,0.4,0.6,1,0.6,1.8
					c0,0.6-0.1,1.1-0.3,1.5s-0.5,0.6-0.8,0.8c-0.4,0.2-0.7,0.3-1.2,0.3c-0.7,0-1.2-0.2-1.6-0.6C766.2,177.2,765.9,176.6,765.9,175.8
					z M766.8,175.8c0,0.6,0.1,1.1,0.4,1.4c0.3,0.3,0.6,0.5,1,0.5s0.7-0.2,1-0.5s0.4-0.8,0.4-1.4c0-0.6-0.1-1-0.4-1.3
					c-0.3-0.3-0.6-0.5-1-0.5s-0.7,0.2-1,0.5C766.9,174.7,766.8,175.2,766.8,175.8z"/>
				<path class="st26" d="M771.4,178.2v-4.8h0.7v0.7c0.4-0.5,0.9-0.8,1.5-0.8c0.3,0,0.6,0.1,0.8,0.2c0.2,0.1,0.4,0.2,0.5,0.4
					s0.2,0.4,0.3,0.6c0,0.2,0,0.4,0,0.8v3h-0.8v-2.9c0-0.3,0-0.6-0.1-0.7c-0.1-0.2-0.2-0.3-0.3-0.4c-0.2-0.1-0.4-0.1-0.6-0.1
					c-0.3,0-0.6,0.1-0.9,0.3c-0.3,0.2-0.4,0.6-0.4,1.3v2.6h-0.7V178.2z"/>
				<path class="st26" d="M779.8,176.7l0.8,0.1c-0.1,0.5-0.4,0.9-0.7,1.1c-0.4,0.3-0.8,0.4-1.4,0.4c-0.7,0-1.3-0.2-1.7-0.6
					c-0.4-0.4-0.6-1-0.6-1.8s0.2-1.4,0.6-1.9s1-0.7,1.6-0.7s1.2,0.2,1.6,0.7c0.4,0.4,0.6,1.1,0.6,1.8c0,0,0,0.1,0,0.2H777
					c0,0.5,0.2,0.9,0.4,1.2c0.3,0.3,0.6,0.4,1,0.4c0.3,0,0.6-0.1,0.8-0.2C779.5,177.2,779.7,177,779.8,176.7z M777.2,175.3h2.7
					c0-0.4-0.1-0.7-0.3-0.9c-0.3-0.3-0.6-0.5-1-0.5s-0.7,0.1-0.9,0.4C777.3,174.6,777.2,174.9,777.2,175.3z"/>
			</g>
			<g class="st25">
				<path class="st26" d="M737.1,121.2l2.5-6.6h0.9l2.7,6.6h-1l-0.8-2h-2.8l-0.7,2H737.1z M739,118.4h2.2l-0.7-1.8
					c-0.2-0.6-0.4-1-0.5-1.4c-0.1,0.4-0.2,0.8-0.4,1.3L739,118.4z"/>
				<path class="st26" d="M747,121.2v-0.7c-0.4,0.5-0.9,0.8-1.5,0.8c-0.3,0-0.5-0.1-0.8-0.2c-0.2-0.1-0.4-0.2-0.5-0.4
					c-0.1-0.2-0.2-0.4-0.3-0.6c0-0.2,0-0.4,0-0.8v-3h0.8v2.7c0,0.4,0,0.7,0.1,0.9c0.1,0.2,0.2,0.4,0.3,0.5c0.2,0.1,0.4,0.2,0.6,0.2
					s0.5-0.1,0.7-0.2s0.4-0.3,0.5-0.5s0.1-0.5,0.1-0.9v-2.6h0.8v4.8C747.8,121.2,747,121.2,747,121.2z"/>
				<path class="st26" d="M752.1,121.2v-0.6c-0.3,0.5-0.8,0.7-1.3,0.7c-0.4,0-0.7-0.1-1.1-0.3c-0.3-0.2-0.6-0.5-0.7-0.9
					c-0.2-0.4-0.3-0.8-0.3-1.3s0.1-0.9,0.2-1.3c0.2-0.4,0.4-0.7,0.7-0.9s0.7-0.3,1.1-0.3c0.3,0,0.5,0.1,0.8,0.2s0.4,0.3,0.6,0.5
					v-2.4h0.8v6.6L752.1,121.2L752.1,121.2z M749.6,118.8c0,0.6,0.1,1.1,0.4,1.4s0.6,0.5,0.9,0.5c0.4,0,0.7-0.1,0.9-0.4
					s0.4-0.7,0.4-1.3c0-0.7-0.1-1.1-0.4-1.4c-0.3-0.3-0.6-0.5-0.9-0.5c-0.4,0-0.7,0.1-0.9,0.4C749.7,117.7,749.6,118.1,749.6,118.8z
					"/>
				<path class="st26" d="M754.2,115.5v-0.9h0.8v0.9H754.2z M754.2,121.2v-4.8h0.8v4.8H754.2z"/>
			</g>
			<g class="st25">
				<path class="st26" d="M624.7,357.6l2.5-6.6h0.9l2.7,6.6h-1l-0.8-2h-2.8l-0.7,2H624.7z M626.6,354.9h2.2l-0.7-1.8
					c-0.2-0.6-0.4-1-0.5-1.4c-0.1,0.4-0.2,0.8-0.4,1.3L626.6,354.9z"/>
				<path class="st26" d="M631.6,357.6V351h0.9v2.7h3.4V351h0.9v6.6H636v-3.1h-3.4v3.1H631.6z"/>
				<path class="st26" d="M642.6,351h0.9v3.8c0,0.7-0.1,1.2-0.2,1.6s-0.4,0.7-0.8,1c-0.4,0.2-0.9,0.4-1.5,0.4s-1.1-0.1-1.5-0.3
					s-0.7-0.5-0.8-0.9c-0.2-0.4-0.3-1-0.3-1.7V351h0.9v3.8c0,0.6,0.1,1,0.2,1.3c0.1,0.3,0.3,0.5,0.6,0.6s0.6,0.2,1,0.2
					c0.6,0,1.1-0.1,1.4-0.4c0.3-0.3,0.4-0.9,0.4-1.7V351H642.6z"/>
			</g>
			<g class="st25">
				<path class="st26" d="M622.8,368.7v-6.6h2.9c0.6,0,1,0.1,1.3,0.2s0.6,0.3,0.7,0.6c0.2,0.3,0.3,0.6,0.3,1c0,0.5-0.2,0.9-0.5,1.2
					c-0.3,0.3-0.8,0.5-1.4,0.6c0.2,0.1,0.4,0.2,0.5,0.3c0.3,0.2,0.5,0.5,0.7,0.9l1.2,1.8h-1.1l-0.9-1.4c-0.3-0.4-0.5-0.7-0.6-0.9
					s-0.3-0.4-0.4-0.4c-0.1-0.1-0.3-0.1-0.4-0.2c-0.1,0-0.3,0-0.5,0h-1v2.9H622.8z M623.7,365h1.9c0.4,0,0.7,0,0.9-0.1
					s0.4-0.2,0.5-0.4s0.2-0.4,0.2-0.6c0-0.3-0.1-0.6-0.3-0.8s-0.6-0.3-1.1-0.3h-2.1L623.7,365L623.7,365z"/>
				<path class="st26" d="M629.1,366.3c0-0.9,0.2-1.5,0.7-2c0.4-0.4,0.9-0.5,1.5-0.5c0.7,0,1.2,0.2,1.6,0.6s0.6,1,0.6,1.8
					c0,0.6-0.1,1.1-0.3,1.5s-0.5,0.6-0.8,0.8c-0.4,0.2-0.7,0.3-1.2,0.3c-0.7,0-1.2-0.2-1.6-0.6C629.3,367.7,629.1,367.1,629.1,366.3
					z M630,366.3c0,0.6,0.1,1.1,0.4,1.4c0.3,0.3,0.6,0.5,1,0.5s0.7-0.2,1-0.5s0.4-0.8,0.4-1.4s-0.1-1-0.4-1.3
					c-0.3-0.3-0.6-0.5-1-0.5s-0.7,0.2-1,0.5C630.1,365.2,630,365.7,630,366.3z"/>
				<path class="st26" d="M634.3,366.3c0-0.9,0.2-1.5,0.7-2c0.4-0.4,0.9-0.5,1.5-0.5c0.7,0,1.2,0.2,1.6,0.6s0.6,1,0.6,1.8
					c0,0.6-0.1,1.1-0.3,1.5s-0.5,0.6-0.8,0.8c-0.4,0.2-0.7,0.3-1.2,0.3c-0.7,0-1.2-0.2-1.6-0.6C634.5,367.7,634.3,367.1,634.3,366.3
					z M635.1,366.3c0,0.6,0.1,1.1,0.4,1.4c0.3,0.3,0.6,0.5,1,0.5s0.7-0.2,1-0.5s0.4-0.8,0.4-1.4s-0.1-1-0.4-1.3
					c-0.3-0.3-0.6-0.5-1-0.5s-0.7,0.2-1,0.5C635.2,365.2,635.1,365.7,635.1,366.3z"/>
				<path class="st26" d="M639.7,368.7v-4.8h0.7v0.7c0.2-0.2,0.4-0.4,0.6-0.6c0.2-0.1,0.5-0.2,0.9-0.2s0.6,0.1,0.9,0.2
					c0.2,0.1,0.4,0.4,0.5,0.6c0.4-0.6,0.9-0.8,1.5-0.8c0.5,0,0.8,0.1,1.1,0.4s0.4,0.7,0.4,1.2v3.3h-0.8v-3c0-0.3,0-0.6-0.1-0.7
					s-0.1-0.3-0.3-0.3s-0.3-0.1-0.5-0.1c-0.3,0-0.6,0.1-0.8,0.3c-0.2,0.2-0.3,0.6-0.3,1.1v2.8h-0.8v-3.1c0-0.4-0.1-0.6-0.2-0.8
					c-0.1-0.2-0.3-0.3-0.7-0.3c-0.2,0-0.4,0.1-0.6,0.2c-0.2,0.1-0.3,0.3-0.4,0.5c-0.1,0.2-0.1,0.6-0.1,1v2.5h-1L639.7,368.7
					L639.7,368.7z"/>
			</g>
			<g id="Elevator-3">
				<g class="st25">
					<path class="st26" d="M394.5,421v-7.1h0.9v6.3h3.5v0.8L394.5,421L394.5,421z"/>
					<path class="st26" d="M400,414.9v-1h0.9v1H400z M400,421v-5.1h0.9v5.1H400z"/>
					<path class="st26" d="M402.4,421v-4.5h-0.8v-0.7h0.8v-0.5c0-0.3,0-0.6,0.1-0.8c0.1-0.2,0.2-0.4,0.4-0.6s0.5-0.2,0.9-0.2
						c0.2,0,0.5,0,0.8,0.1l-0.1,0.8c-0.2,0-0.4,0-0.5,0c-0.3,0-0.5,0.1-0.6,0.2s-0.2,0.3-0.2,0.6v0.5h1v0.7h-1v4.5h-0.8L402.4,421
						L402.4,421z"/>
					<path class="st26" d="M406.9,420.2l0.1,0.8c-0.2,0.1-0.5,0.1-0.7,0.1c-0.3,0-0.6-0.1-0.7-0.2c-0.2-0.1-0.3-0.2-0.4-0.4
						c-0.1-0.2-0.1-0.5-0.1-1v-3h-0.6v-0.7h0.6v-1.3l0.9-0.5v1.8h0.9v0.7H406v3c0,0.2,0,0.4,0,0.5s0.1,0.1,0.2,0.2
						c0.1,0,0.2,0.1,0.3,0.1C406.6,420.2,406.7,420.2,406.9,420.2z"/>
					<path class="st26" d="M409.9,421l1.9-2.7l-1.7-2.5h1.1l0.8,1.2c0.1,0.2,0.3,0.4,0.4,0.6c0.1-0.2,0.3-0.4,0.4-0.6l0.9-1.2h1
						l-1.8,2.4l1.9,2.7h-1.1l-1.1-1.6l-0.3-0.4l-1.4,2h-1L409.9,421L409.9,421z"/>
					<path class="st26" d="M415.2,419.1l0.9-0.1c0.1,0.5,0.3,0.9,0.5,1.1s0.5,0.3,0.9,0.3s0.8-0.1,1-0.4c0.3-0.3,0.4-0.6,0.4-1.1
						c0-0.4-0.1-0.7-0.4-1s-0.6-0.4-1-0.4c-0.2,0-0.4,0-0.6,0.1l0.1-0.8c0.1,0,0.1,0,0.1,0c0.4,0,0.7-0.1,1-0.3
						c0.3-0.2,0.4-0.5,0.4-0.9c0-0.3-0.1-0.6-0.3-0.8c-0.2-0.2-0.5-0.3-0.8-0.3s-0.6,0.1-0.8,0.3c-0.2,0.2-0.4,0.5-0.4,1l-0.9-0.2
						c0.1-0.6,0.3-1,0.7-1.4c0.4-0.3,0.8-0.5,1.4-0.5c0.4,0,0.7,0.1,1.1,0.2c0.3,0.2,0.6,0.4,0.7,0.7c0.2,0.3,0.3,0.6,0.3,0.9
						s-0.1,0.6-0.2,0.8c-0.2,0.3-0.4,0.5-0.7,0.6c0.4,0.1,0.7,0.3,1,0.6c0.2,0.3,0.3,0.7,0.3,1.1c0,0.6-0.2,1.1-0.7,1.6
						s-1,0.6-1.7,0.6c-0.6,0-1.1-0.2-1.6-0.6S415.2,419.7,415.2,419.1z"/>
				</g>
				<circle class="st33" cx="407.4" cy="386.6" r="21.5"/>
				<path class="st38" d="M401.4,395.2v-13h4.3v13H401.4z M406.1,395.2v-13h4.3v13H406.1z M415.9,395.2h-5V382c0-0.2,0-0.2-0.2-0.2
					h-9.3c-0.2,0-0.2,0-0.2,0.2l0,0v13.2h-2.3v-17h17V395.2z M415.9,377.7h-17.2c-0.2,0-0.2,0-0.2,0.2l0,0v17.2c0,0,0,0.2,0.2,0.2
					h17.2c0.2,0,0.2,0,0.2-0.2l0,0L415.9,377.7C416.1,377.7,416.1,377.7,415.9,377.7z"/>
				<path class="st38" d="M404.7,380.1h2.7h0.2v-0.2h-2.7C404.5,379.9,404.5,379.9,404.7,380.1C404.3,380.1,404.5,380.1,404.7,380.1
					z"/>
				<path class="st38" d="M412.8,387.4l0.6-0.6l0.6,0.6h0.2l0,0v-0.2l-0.8-1h-0.2l0,0l-0.8,0.8C412.4,387.2,412.6,387.2,412.8,387.4
					L412.8,387.4C412.6,387.4,412.8,387.4,412.8,387.4L412.8,387.4z"/>
				<path class="st38" d="M413.2,389.4L413.2,389.4C413.4,389.5,413.4,389.5,413.2,389.4l1-0.8c0,0,0.2-0.2,0-0.2H414l0,0l0,0
					l-0.6,0.6l-0.6-0.6c0,0-0.2-0.2-0.2,0v0.2l0,0L413.2,389.4z"/>
			</g>
			<g id="Elevator-3_1_">
				<g class="st25">
					<path class="st26" d="M514.2,421v-7.1h0.9v6.3h3.5v0.8L514.2,421L514.2,421z"/>
					<path class="st26" d="M519.6,414.9v-1h0.9v1H519.6z M519.6,421v-5.1h0.9v5.1H519.6z"/>
					<path class="st26" d="M522,421v-4.5h-0.8v-0.7h0.8v-0.5c0-0.3,0-0.6,0.1-0.8c0.1-0.2,0.2-0.4,0.4-0.6s0.5-0.2,0.9-0.2
						c0.2,0,0.5,0,0.8,0.1l-0.1,0.8c-0.2,0-0.4,0-0.5,0c-0.3,0-0.5,0.1-0.6,0.2s-0.2,0.3-0.2,0.6v0.5h1v0.7h-1v4.5H522V421z"/>
					<path class="st26" d="M526.5,420.2l0.1,0.8c-0.2,0.1-0.5,0.1-0.7,0.1c-0.3,0-0.6-0.1-0.7-0.2c-0.2-0.1-0.3-0.2-0.4-0.4
						s-0.1-0.5-0.1-1v-3h-0.6v-0.7h0.6v-1.3l0.9-0.5v1.8h0.9v0.7h-0.9v3c0,0.2,0,0.4,0,0.5s0.1,0.1,0.2,0.2s0.2,0.1,0.3,0.1
						C526.2,420.2,526.3,420.2,526.5,420.2z"/>
					<path class="st26" d="M529.5,421l1.9-2.7l-1.7-2.5h1.1l0.8,1.2c0.1,0.2,0.3,0.4,0.4,0.6c0.1-0.2,0.3-0.4,0.4-0.6l0.9-1.2h1
						l-1.8,2.4l1.9,2.7h-1.1l-1.1-1.6l-0.3-0.4l-1.4,2h-1L529.5,421L529.5,421z"/>
					<path class="st26" d="M534.8,419.1l0.9-0.1c0.1,0.5,0.3,0.9,0.5,1.1s0.5,0.3,0.9,0.3s0.8-0.1,1-0.4c0.3-0.3,0.4-0.6,0.4-1.1
						c0-0.4-0.1-0.7-0.4-1c-0.3-0.3-0.6-0.4-1-0.4c-0.2,0-0.4,0-0.6,0.1l0.1-0.8c0.1,0,0.1,0,0.1,0c0.4,0,0.7-0.1,1-0.3
						c0.3-0.2,0.4-0.5,0.4-0.9c0-0.3-0.1-0.6-0.3-0.8c-0.2-0.2-0.5-0.3-0.8-0.3s-0.6,0.1-0.8,0.3c-0.2,0.2-0.4,0.5-0.4,1l-0.9-0.2
						c0.1-0.6,0.3-1,0.7-1.4c0.4-0.3,0.8-0.5,1.4-0.5c0.4,0,0.7,0.1,1.1,0.2c0.3,0.2,0.6,0.4,0.7,0.7s0.3,0.6,0.3,0.9
						s-0.1,0.6-0.2,0.8c-0.2,0.3-0.4,0.5-0.7,0.6c0.4,0.1,0.7,0.3,1,0.6c0.2,0.3,0.3,0.7,0.3,1.1c0,0.6-0.2,1.1-0.7,1.6
						c-0.5,0.4-1,0.6-1.7,0.6c-0.6,0-1.1-0.2-1.6-0.6S534.9,419.7,534.8,419.1z"/>
				</g>
				<circle class="st33" cx="527" cy="386.6" r="21.5"/>
				<path class="st38" d="M521,395.2v-13h4.3v13H521z M525.7,395.2v-13h4.3v13H525.7z M535.6,395.2h-5V382c0-0.2,0-0.2-0.2-0.2H521
					c-0.2,0-0.2,0-0.2,0.2l0,0v13.2h-2.3v-17h17L535.6,395.2L535.6,395.2z M535.6,377.7h-17.2c-0.2,0-0.2,0-0.2,0.2l0,0v17.2
					c0,0,0,0.2,0.2,0.2h17.2c0.2,0,0.2,0,0.2-0.2l0,0L535.6,377.7C535.7,377.7,535.7,377.7,535.6,377.7z"/>
				<path class="st38" d="M524.3,380.1h2.7h0.2v-0.2h-2.7C524.1,379.9,524.1,379.9,524.3,380.1C523.9,380.1,524.1,380.1,524.3,380.1
					z"/>
				<path class="st38" d="M532.5,387.4l0.6-0.6l0.6,0.6h0.2l0,0v-0.2l-0.8-1h-0.2l0,0l-0.8,0.8C532.1,387.2,532.3,387.2,532.5,387.4
					L532.5,387.4C532.3,387.4,532.5,387.4,532.5,387.4L532.5,387.4z"/>
				<path class="st38" d="M532.8,389.4L532.8,389.4C533,389.5,533,389.5,532.8,389.4l1-0.8c0,0,0.2-0.2,0-0.2h-0.2l0,0l0,0L533,389
					l-0.6-0.6c0,0-0.2-0.2-0.2,0v0.2l0,0L532.8,389.4z"/>
			</g>
			<g id="Elevator-3_2_">
				<g class="st25">
					<path class="st26" d="M698.5,436.1V429h0.9v6.3h3.5v0.8L698.5,436.1L698.5,436.1z"/>
					<path class="st26" d="M703.9,430v-1h0.9v1H703.9z M703.9,436.1V431h0.9v5.1H703.9z"/>
					<path class="st26" d="M706.3,436.1v-4.5h-0.8V431h0.8v-0.5c0-0.3,0-0.6,0.1-0.8c0.1-0.2,0.2-0.4,0.4-0.6s0.5-0.2,0.9-0.2
						c0.2,0,0.5,0,0.8,0.1l-0.1,0.8c-0.2,0-0.4,0-0.5,0c-0.3,0-0.5,0.1-0.6,0.2s-0.2,0.3-0.2,0.6v0.5h1v0.7h-1v4.5h-0.8L706.3,436.1
						L706.3,436.1z"/>
					<path class="st26" d="M710.8,435.3l0.1,0.8c-0.2,0.1-0.5,0.1-0.7,0.1c-0.3,0-0.6-0.1-0.7-0.2c-0.2-0.1-0.3-0.2-0.4-0.4
						s-0.1-0.5-0.1-1v-3h-0.6V431h0.6v-1.3l0.9-0.5v1.8h0.9v0.7h-0.9v3c0,0.2,0,0.4,0,0.5s0.1,0.1,0.2,0.2s0.2,0.1,0.3,0.1
						C710.5,435.4,710.6,435.3,710.8,435.3z"/>
					<path class="st26" d="M713.8,436.1l1.9-2.7L714,431h1.1l0.8,1.2c0.1,0.2,0.3,0.4,0.4,0.6c0.1-0.2,0.3-0.4,0.4-0.6l0.9-1.2h1
						l-1.8,2.4l1.9,2.7h-1.1l-1.1-1.6l-0.3-0.4l-1.4,2H713.8z"/>
					<path class="st26" d="M719.1,434.2l0.9-0.1c0.1,0.5,0.3,0.9,0.5,1.1s0.5,0.3,0.9,0.3s0.8-0.1,1-0.4c0.3-0.3,0.4-0.6,0.4-1.1
						c0-0.4-0.1-0.7-0.4-1c-0.3-0.3-0.6-0.4-1-0.4c-0.2,0-0.4,0-0.6,0.1l0.1-0.8c0.1,0,0.1,0,0.1,0c0.4,0,0.7-0.1,1-0.3
						c0.3-0.2,0.4-0.5,0.4-0.9c0-0.3-0.1-0.6-0.3-0.8c-0.2-0.2-0.5-0.3-0.8-0.3s-0.6,0.1-0.8,0.3c-0.2,0.2-0.4,0.5-0.4,1l-0.9-0.2
						c0.1-0.6,0.3-1,0.7-1.4c0.4-0.3,0.8-0.5,1.4-0.5c0.4,0,0.7,0.1,1.1,0.2c0.3,0.2,0.6,0.4,0.7,0.7s0.3,0.6,0.3,0.9
						s-0.1,0.6-0.2,0.8c-0.2,0.3-0.4,0.5-0.7,0.6c0.4,0.1,0.7,0.3,1,0.6c0.2,0.3,0.3,0.7,0.3,1.1c0,0.6-0.2,1.1-0.7,1.6
						c-0.5,0.4-1,0.6-1.7,0.6c-0.6,0-1.1-0.2-1.6-0.6S719.2,434.8,719.1,434.2z"/>
				</g>
				<circle class="st33" cx="711.4" cy="401.8" r="21.5"/>
				<path class="st38" d="M705.4,410.3v-13h4.3v13H705.4z M710,410.3v-13h4.3v13H710z M719.9,410.3h-5v-13.2c0-0.2,0-0.2-0.2-0.2
					h-9.3c-0.2,0-0.2,0-0.2,0.2l0,0v13.2h-2.3v-17h17V410.3z M719.9,392.9h-17.2c-0.2,0-0.2,0-0.2,0.2l0,0v17.2c0,0,0,0.2,0.2,0.2
					h17.2c0.2,0,0.2,0,0.2-0.2l0,0L719.9,392.9C720.1,392.9,720.1,392.9,719.9,392.9z"/>
				<path class="st38" d="M708.6,395.2h2.7h0.2V395h-2.7C708.5,395,708.5,395,708.6,395.2C708.3,395.2,708.5,395.2,708.6,395.2z"/>
				<path class="st38" d="M716.8,402.5l0.6-0.6l0.6,0.6h0.2l0,0v-0.2l-0.8-1h-0.2l0,0l-0.8,0.8C716.4,402.3,716.6,402.3,716.8,402.5
					L716.8,402.5C716.6,402.5,716.8,402.5,716.8,402.5L716.8,402.5z"/>
				<path class="st38" d="M717.2,404.5L717.2,404.5C717.4,404.7,717.4,404.7,717.2,404.5l1-0.8c0,0,0.2-0.2,0-0.2H718l0,0l0,0
					l-0.6,0.6l-0.6-0.6c0,0-0.2-0.2-0.2,0v0.2l0,0L717.2,404.5z"/>
			</g>
			<g class="st25">
				<path class="st26" d="M111.5,185.2v-6.6h2.5c0.4,0,0.8,0,1,0.1c0.3,0.1,0.6,0.2,0.8,0.3s0.4,0.4,0.5,0.6s0.2,0.6,0.2,0.9
					c0,0.6-0.2,1-0.5,1.4c-0.4,0.4-1,0.6-1.9,0.6h-1.7v2.7H111.5z M112.4,181.8h1.7c0.6,0,1-0.1,1.2-0.3s0.4-0.5,0.4-0.9
					c0-0.3-0.1-0.5-0.2-0.7s-0.3-0.3-0.6-0.4c-0.1,0-0.4-0.1-0.8-0.1h-1.7V181.8z"/>
				<path class="st26" d="M117.6,185.2v-6.6h0.8v6.6H117.6z"/>
				<path class="st26" d="M123,183.7l0.8,0.1c-0.1,0.5-0.4,0.9-0.7,1.1c-0.4,0.3-0.8,0.4-1.4,0.4c-0.7,0-1.3-0.2-1.7-0.6
					c-0.4-0.4-0.6-1-0.6-1.8s0.2-1.4,0.6-1.9s1-0.7,1.6-0.7s1.2,0.2,1.6,0.7c0.4,0.4,0.6,1.1,0.6,1.8c0,0,0,0.1,0,0.2h-3.6
					c0,0.5,0.2,0.9,0.4,1.2c0.3,0.3,0.6,0.4,1,0.4c0.3,0,0.6-0.1,0.8-0.2C122.7,184.3,122.8,184,123,183.7z M120.3,182.4h2.7
					c0-0.4-0.1-0.7-0.3-0.9c-0.3-0.3-0.6-0.5-1-0.5s-0.7,0.1-0.9,0.4C120.4,181.6,120.3,182,120.3,182.4z"/>
				<path class="st26" d="M124.8,185.2v-4.8h0.7v0.7c0.4-0.5,0.9-0.8,1.5-0.8c0.3,0,0.6,0.1,0.8,0.2c0.2,0.1,0.4,0.2,0.5,0.4
					s0.2,0.4,0.3,0.6c0,0.2,0,0.4,0,0.8v3h-0.8v-2.9c0-0.3,0-0.6-0.1-0.7s-0.2-0.3-0.3-0.4c-0.2-0.1-0.4-0.1-0.6-0.1
					c-0.3,0-0.6,0.1-0.9,0.3s-0.4,0.6-0.4,1.3v2.6h-0.7V185.2z"/>
				<path class="st26" d="M133.1,184.7c-0.3,0.3-0.6,0.4-0.9,0.5s-0.6,0.2-0.9,0.2c-0.5,0-0.9-0.1-1.2-0.4c-0.3-0.3-0.4-0.6-0.4-1
					c0-0.2,0.1-0.4,0.2-0.6s0.2-0.4,0.4-0.5s0.4-0.2,0.6-0.3c0.2,0,0.4-0.1,0.7-0.1c0.7-0.1,1.1-0.2,1.5-0.3c0-0.1,0-0.2,0-0.2
					c0-0.3-0.1-0.6-0.2-0.7c-0.2-0.2-0.5-0.3-0.9-0.3s-0.7,0.1-0.8,0.2c-0.2,0.1-0.3,0.4-0.4,0.7l-0.8-0.1c0.1-0.3,0.2-0.6,0.4-0.8
					s0.4-0.4,0.7-0.5s0.7-0.2,1.1-0.2c0.4,0,0.7,0,1,0.1s0.4,0.2,0.6,0.4c0.1,0.1,0.2,0.3,0.3,0.6c0,0.1,0,0.4,0,0.8v1.1
					c0,0.8,0,1.2,0.1,1.4c0,0.2,0.1,0.4,0.2,0.6h-0.9C133.2,185.1,133.1,184.9,133.1,184.7z M133,182.8c-0.3,0.1-0.7,0.2-1.3,0.3
					c-0.3,0-0.6,0.1-0.7,0.2c-0.1,0.1-0.2,0.1-0.3,0.3c-0.1,0.1-0.1,0.2-0.1,0.4s0.1,0.4,0.2,0.5c0.2,0.1,0.4,0.2,0.7,0.2
					s0.6-0.1,0.8-0.2c0.2-0.1,0.4-0.3,0.5-0.6c0.1-0.2,0.1-0.5,0.1-0.8v-0.3L133,182.8L133,182.8z"/>
				<path class="st26" d="M135.1,185.2v-4.8h0.7v0.7c0.2-0.3,0.4-0.6,0.5-0.7s0.3-0.2,0.5-0.2c0.3,0,0.6,0.1,0.8,0.3l-0.3,0.8
					c-0.2-0.1-0.4-0.2-0.6-0.2c-0.2,0-0.3,0.1-0.5,0.2s-0.2,0.3-0.3,0.4c-0.1,0.3-0.1,0.6-0.1,0.9v2.5h-0.7L135.1,185.2L135.1,185.2
					z"/>
				<path class="st26" d="M138.2,187.1l-0.1-0.8c0.2,0,0.3,0.1,0.5,0.1s0.3,0,0.4-0.1s0.2-0.1,0.3-0.3c0.1-0.1,0.1-0.3,0.2-0.6
					c0,0,0-0.1,0.1-0.2l-1.8-4.8h0.9l1,2.8c0.1,0.4,0.2,0.7,0.3,1.1c0.1-0.4,0.2-0.7,0.3-1.1l1-2.8h0.8l-1.8,4.9
					c-0.2,0.5-0.3,0.9-0.5,1.1c-0.1,0.3-0.3,0.5-0.5,0.6s-0.4,0.2-0.7,0.2C138.5,187.2,138.4,187.2,138.2,187.1z"/>
				<path class="st26" d="M145.5,185.2v-6.6h2.9c0.6,0,1,0.1,1.3,0.2c0.3,0.1,0.6,0.3,0.7,0.6c0.2,0.3,0.3,0.6,0.3,1
					c0,0.5-0.2,0.9-0.5,1.2s-0.8,0.5-1.4,0.6c0.2,0.1,0.4,0.2,0.5,0.3c0.3,0.2,0.5,0.5,0.7,0.9l1.2,1.8h-1.1l-0.9-1.4
					c-0.3-0.4-0.5-0.7-0.6-0.9c-0.2-0.2-0.3-0.4-0.4-0.4c-0.1-0.1-0.3-0.1-0.4-0.2c-0.1,0-0.3,0-0.5,0h-1v2.9L145.5,185.2
					L145.5,185.2z M146.4,181.5h1.9c0.4,0,0.7,0,0.9-0.1s0.4-0.2,0.5-0.4s0.2-0.4,0.2-0.6c0-0.3-0.1-0.6-0.3-0.8s-0.6-0.3-1.1-0.3
					h-2.1L146.4,181.5L146.4,181.5z"/>
				<path class="st26" d="M151.8,182.8c0-0.9,0.2-1.5,0.7-2c0.4-0.4,0.9-0.5,1.5-0.5c0.7,0,1.2,0.2,1.6,0.6s0.6,1,0.6,1.8
					c0,0.6-0.1,1.1-0.3,1.5s-0.5,0.6-0.8,0.8c-0.4,0.2-0.7,0.3-1.2,0.3c-0.7,0-1.2-0.2-1.6-0.6S151.8,183.7,151.8,182.8z
					 M152.6,182.8c0,0.6,0.1,1.1,0.4,1.4c0.3,0.3,0.6,0.5,1,0.5s0.7-0.2,1-0.5s0.4-0.8,0.4-1.4c0-0.6-0.1-1-0.4-1.3
					c-0.3-0.3-0.6-0.5-1-0.5s-0.7,0.2-1,0.5C152.8,181.8,152.6,182.2,152.6,182.8z"/>
				<path class="st26" d="M156.9,182.8c0-0.9,0.2-1.5,0.7-2c0.4-0.4,0.9-0.5,1.5-0.5c0.7,0,1.2,0.2,1.6,0.6s0.6,1,0.6,1.8
					c0,0.6-0.1,1.1-0.3,1.5s-0.5,0.6-0.8,0.8c-0.4,0.2-0.7,0.3-1.2,0.3c-0.7,0-1.2-0.2-1.6-0.6S156.9,183.7,156.9,182.8z
					 M157.8,182.8c0,0.6,0.1,1.1,0.4,1.4c0.3,0.3,0.6,0.5,1,0.5s0.7-0.2,1-0.5s0.4-0.8,0.4-1.4c0-0.6-0.1-1-0.4-1.3
					c-0.3-0.3-0.6-0.5-1-0.5s-0.7,0.2-1,0.5S157.8,182.2,157.8,182.8z"/>
				<path class="st26" d="M162.4,185.2v-4.8h0.7v0.7c0.2-0.2,0.4-0.4,0.6-0.6c0.2-0.1,0.5-0.2,0.9-0.2s0.6,0.1,0.9,0.2
					c0.2,0.1,0.4,0.4,0.5,0.6c0.4-0.6,0.9-0.8,1.5-0.8c0.5,0,0.8,0.1,1.1,0.4c0.3,0.3,0.4,0.7,0.4,1.2v3.3h-0.8v-3
					c0-0.3,0-0.6-0.1-0.7c-0.1-0.1-0.1-0.3-0.3-0.3s-0.3-0.1-0.5-0.1c-0.3,0-0.6,0.1-0.8,0.3s-0.3,0.6-0.3,1.1v2.8h-0.8v-3.1
					c0-0.4-0.1-0.6-0.2-0.8c-0.1-0.2-0.3-0.3-0.7-0.3c-0.2,0-0.4,0.1-0.6,0.2c-0.2,0.1-0.3,0.3-0.4,0.5c-0.1,0.2-0.1,0.6-0.1,1v2.5
					L162.4,185.2L162.4,185.2z"/>
			</g>
			<g class="st25">
				<path class="st26" d="M283.7,167.1l-1.8-6.6h0.9l1,4.3c0.1,0.5,0.2,0.9,0.3,1.4c0.2-0.7,0.3-1.1,0.3-1.2l1.3-4.5h1.1l0.9,3.4
					c0.2,0.8,0.4,1.6,0.5,2.3c0.1-0.4,0.2-0.9,0.3-1.4l1-4.3h0.9l-1.8,6.6h-0.8l-1.4-5.1c-0.1-0.4-0.2-0.7-0.2-0.8
					c-0.1,0.3-0.1,0.6-0.2,0.8l-1.4,5.1H283.7z"/>
				<path class="st26" d="M290.7,164.7c0-0.9,0.2-1.5,0.7-2c0.4-0.4,0.9-0.5,1.5-0.5c0.7,0,1.2,0.2,1.6,0.6s0.6,1,0.6,1.8
					c0,0.6-0.1,1.1-0.3,1.5c-0.2,0.4-0.5,0.6-0.8,0.8c-0.4,0.2-0.7,0.3-1.2,0.3c-0.7,0-1.2-0.2-1.6-0.6S290.7,165.5,290.7,164.7z
					 M291.6,164.7c0,0.6,0.1,1.1,0.4,1.4c0.3,0.3,0.6,0.5,1,0.5s0.7-0.2,1-0.5s0.4-0.8,0.4-1.4c0-0.6-0.1-1-0.4-1.3s-0.6-0.5-1-0.5
					s-0.7,0.2-1,0.5C291.7,163.6,291.6,164.1,291.6,164.7z"/>
				<path class="st26" d="M296.2,167.1v-4.8h0.7v0.7c0.2-0.3,0.4-0.6,0.5-0.7s0.3-0.2,0.5-0.2c0.3,0,0.6,0.1,0.8,0.3l-0.3,0.8
					c-0.2-0.1-0.4-0.2-0.6-0.2s-0.3,0.1-0.5,0.2s-0.2,0.3-0.3,0.4c-0.1,0.3-0.1,0.6-0.1,0.9v2.5h-0.7V167.1z"/>
				<path class="st26" d="M299.3,167.1v-6.6h0.8v3.8l1.9-2h1.1l-1.8,1.8l2,3h-1l-1.6-2.5l-0.6,0.6v1.9H299.3z"/>
				<path class="st26" d="M303.6,165.6l0.8-0.1c0,0.3,0.2,0.6,0.4,0.7s0.5,0.3,0.9,0.3s0.7-0.1,0.8-0.2c0.2-0.2,0.3-0.3,0.3-0.5
					s-0.1-0.3-0.2-0.4c-0.1-0.1-0.4-0.2-0.8-0.3c-0.6-0.2-1-0.3-1.2-0.4c-0.2-0.1-0.4-0.3-0.5-0.5s-0.2-0.4-0.2-0.6
					c0-0.2,0-0.4,0.1-0.6c0.1-0.2,0.2-0.3,0.4-0.5c0.1-0.1,0.3-0.2,0.5-0.2s0.5-0.1,0.7-0.1c0.4,0,0.7,0.1,1,0.2s0.5,0.3,0.6,0.4
					c0.1,0.2,0.2,0.4,0.3,0.7l-0.8,0.1c0-0.2-0.1-0.4-0.3-0.6c-0.2-0.1-0.4-0.2-0.7-0.2c-0.4,0-0.6,0.1-0.8,0.2
					c-0.2,0.1-0.2,0.3-0.2,0.4c0,0.1,0,0.2,0.1,0.3s0.2,0.2,0.3,0.2c0.1,0,0.3,0.1,0.7,0.2c0.6,0.2,1,0.3,1.2,0.4
					c0.2,0.1,0.4,0.2,0.5,0.4s0.2,0.4,0.2,0.7s-0.1,0.5-0.2,0.8c-0.2,0.2-0.4,0.4-0.7,0.6c-0.3,0.1-0.6,0.2-1,0.2
					c-0.6,0-1.1-0.1-1.4-0.4C303.9,166.5,303.7,166.2,303.6,165.6z"/>
				<path class="st26" d="M308.5,167.1v-6.6h0.8v2.4c0.4-0.4,0.9-0.7,1.4-0.7c0.4,0,0.7,0.1,0.9,0.2c0.3,0.1,0.4,0.3,0.6,0.6
					c0.1,0.2,0.2,0.6,0.2,1.1v3h-0.8v-3c0-0.4-0.1-0.7-0.3-0.9s-0.4-0.3-0.7-0.3c-0.2,0-0.5,0.1-0.7,0.2c-0.2,0.1-0.4,0.3-0.5,0.5
					s-0.1,0.5-0.1,0.9v2.6H308.5z"/>
				<path class="st26" d="M313.4,164.7c0-0.9,0.2-1.5,0.7-2c0.4-0.4,0.9-0.5,1.5-0.5c0.7,0,1.2,0.2,1.6,0.6s0.6,1,0.6,1.8
					c0,0.6-0.1,1.1-0.3,1.5c-0.2,0.4-0.5,0.6-0.8,0.8c-0.4,0.2-0.7,0.3-1.2,0.3c-0.7,0-1.2-0.2-1.6-0.6S313.4,165.5,313.4,164.7z
					 M314.2,164.7c0,0.6,0.1,1.1,0.4,1.4c0.3,0.3,0.6,0.5,1,0.5s0.7-0.2,1-0.5s0.4-0.8,0.4-1.4c0-0.6-0.1-1-0.4-1.3s-0.6-0.5-1-0.5
					s-0.7,0.2-1,0.5C314.3,163.6,314.2,164.1,314.2,164.7z"/>
				<path class="st26" d="M318.8,168.9v-6.6h0.7v0.6c0.2-0.2,0.4-0.4,0.6-0.5s0.5-0.2,0.8-0.2c0.4,0,0.8,0.1,1.1,0.3
					c0.3,0.2,0.6,0.5,0.7,0.9s0.2,0.8,0.2,1.3s-0.1,0.9-0.3,1.3s-0.4,0.7-0.8,0.9c-0.3,0.2-0.7,0.3-1.1,0.3c-0.3,0-0.5-0.1-0.7-0.2
					c-0.2-0.1-0.4-0.3-0.5-0.4v2.3L318.8,168.9L318.8,168.9z M319.6,164.7c0,0.6,0.1,1.1,0.4,1.4c0.3,0.3,0.6,0.4,0.9,0.4
					c0.4,0,0.7-0.2,0.9-0.5s0.4-0.8,0.4-1.4c0-0.6-0.1-1.1-0.4-1.4c-0.3-0.3-0.6-0.5-0.9-0.5s-0.7,0.2-0.9,0.5
					C319.7,163.6,319.6,164.1,319.6,164.7z"/>
				<path class="st26" d="M326.7,167.1v-6.6h2.9c0.6,0,1,0.1,1.3,0.2c0.3,0.1,0.6,0.3,0.7,0.6c0.2,0.3,0.3,0.6,0.3,1
					c0,0.5-0.2,0.9-0.5,1.2s-0.8,0.5-1.4,0.6c0.2,0.1,0.4,0.2,0.5,0.3c0.3,0.2,0.5,0.5,0.7,0.9l1.2,1.8h-1.1l-0.9-1.4
					c-0.3-0.4-0.5-0.7-0.6-0.9c-0.2-0.2-0.3-0.4-0.4-0.4c-0.1-0.1-0.3-0.1-0.4-0.2c-0.1,0-0.3,0-0.5,0h-1v2.9L326.7,167.1
					L326.7,167.1z M327.5,163.4h1.9c0.4,0,0.7,0,0.9-0.1s0.4-0.2,0.5-0.4s0.2-0.4,0.2-0.6c0-0.3-0.1-0.6-0.3-0.8s-0.6-0.3-1.1-0.3
					h-2.1V163.4z"/>
				<path class="st26" d="M332.9,164.7c0-0.9,0.2-1.5,0.7-2c0.4-0.4,0.9-0.5,1.5-0.5c0.7,0,1.2,0.2,1.6,0.6s0.6,1,0.6,1.8
					c0,0.6-0.1,1.1-0.3,1.5c-0.2,0.4-0.5,0.6-0.8,0.8c-0.4,0.2-0.7,0.3-1.2,0.3c-0.7,0-1.2-0.2-1.6-0.6S332.9,165.5,332.9,164.7z
					 M333.8,164.7c0,0.6,0.1,1.1,0.4,1.4c0.3,0.3,0.6,0.5,1,0.5s0.7-0.2,1-0.5s0.4-0.8,0.4-1.4c0-0.6-0.1-1-0.4-1.3s-0.6-0.5-1-0.5
					s-0.7,0.2-1,0.5C333.9,163.6,333.8,164.1,333.8,164.7z"/>
				<path class="st26" d="M338.1,164.7c0-0.9,0.2-1.5,0.7-2c0.4-0.4,0.9-0.5,1.5-0.5c0.7,0,1.2,0.2,1.6,0.6s0.6,1,0.6,1.8
					c0,0.6-0.1,1.1-0.3,1.5c-0.2,0.4-0.5,0.6-0.8,0.8c-0.4,0.2-0.7,0.3-1.2,0.3c-0.7,0-1.2-0.2-1.6-0.6S338.1,165.5,338.1,164.7z
					 M338.9,164.7c0,0.6,0.1,1.1,0.4,1.4c0.3,0.3,0.6,0.5,1,0.5s0.7-0.2,1-0.5s0.4-0.8,0.4-1.4c0-0.6-0.1-1-0.4-1.3s-0.6-0.5-1-0.5
					s-0.7,0.2-1,0.5C339.1,163.6,338.9,164.1,338.9,164.7z"/>
				<path class="st26" d="M343.5,167.1v-4.8h0.7v0.7c0.2-0.2,0.4-0.4,0.6-0.6c0.2-0.1,0.5-0.2,0.9-0.2s0.6,0.1,0.9,0.2
					c0.2,0.1,0.4,0.4,0.5,0.6c0.4-0.6,0.9-0.8,1.5-0.8c0.5,0,0.8,0.1,1.1,0.4c0.3,0.3,0.4,0.7,0.4,1.2v3.3h-0.8v-3
					c0-0.3,0-0.6-0.1-0.7c-0.1-0.1-0.1-0.3-0.3-0.3s-0.3-0.1-0.5-0.1c-0.3,0-0.6,0.1-0.8,0.3s-0.3,0.6-0.3,1.1v2.8h-0.8V164
					c0-0.4-0.1-0.6-0.2-0.8s-0.3-0.3-0.7-0.3c-0.2,0-0.4,0.1-0.6,0.2c-0.2,0.1-0.3,0.3-0.4,0.5s-0.1,0.6-0.1,1v2.5L343.5,167.1
					L343.5,167.1z"/>
			</g>
		</g>
	</g>
	<g id="Elevator-3_3_">
		<g class="st25">
			<path class="st26" d="M217.6,475.6l0.9-0.1c0,0.4,0.1,0.6,0.3,0.9c0.2,0.2,0.4,0.4,0.7,0.6s0.7,0.2,1.1,0.2c0.4,0,0.7-0.1,1-0.2
				s0.5-0.3,0.6-0.4s0.2-0.4,0.2-0.6s-0.1-0.4-0.2-0.6c-0.1-0.2-0.3-0.3-0.6-0.4c-0.2-0.1-0.6-0.2-1.3-0.3c-0.7-0.2-1.1-0.3-1.4-0.4
				c-0.3-0.2-0.6-0.4-0.8-0.7c-0.2-0.3-0.2-0.6-0.2-0.9c0-0.4,0.1-0.7,0.3-1s0.5-0.5,0.9-0.7s0.8-0.2,1.3-0.2s1,0.1,1.4,0.3
				c0.4,0.2,0.7,0.4,0.9,0.7c0.2,0.3,0.3,0.7,0.3,1.1l-0.9,0.1c0-0.4-0.2-0.8-0.5-1s-0.7-0.3-1.2-0.3c-0.6,0-1,0.1-1.2,0.3
				c-0.3,0.2-0.4,0.5-0.4,0.8s0.1,0.5,0.3,0.6c0.2,0.2,0.7,0.3,1.4,0.5s1.3,0.3,1.6,0.5c0.4,0.2,0.7,0.4,0.9,0.7
				c0.2,0.3,0.3,0.6,0.3,1s-0.1,0.7-0.3,1.1c-0.2,0.3-0.5,0.6-0.9,0.8c-0.4,0.2-0.9,0.3-1.4,0.3c-0.6,0-1.2-0.1-1.6-0.3
				c-0.4-0.2-0.8-0.5-1-0.8C217.7,476.5,217.6,476,217.6,475.6z"/>
			<path class="st26" d="M228,476.2l0.9,0.1c-0.1,0.5-0.4,0.9-0.8,1.2s-0.9,0.4-1.5,0.4c-0.8,0-1.4-0.2-1.8-0.7
				c-0.4-0.5-0.7-1.1-0.7-2s0.2-1.5,0.7-2c0.4-0.5,1-0.7,1.7-0.7s1.3,0.2,1.7,0.7s0.7,1.1,0.7,2c0,0.1,0,0.1,0,0.2H225
				c0,0.6,0.2,1,0.5,1.3s0.6,0.5,1.1,0.5c0.3,0,0.6-0.1,0.8-0.3C227.6,476.8,227.8,476.6,228,476.2z M225.1,474.8h2.9
				c0-0.4-0.1-0.8-0.3-1c-0.3-0.3-0.6-0.5-1.1-0.5c-0.4,0-0.7,0.1-1,0.4C225.3,474,225.1,474.3,225.1,474.8z"/>
			<path class="st26" d="M229.9,477.8v-5.1h0.8v0.8c0.2-0.4,0.4-0.6,0.6-0.7c0.2-0.1,0.4-0.2,0.6-0.2c0.3,0,0.6,0.1,0.9,0.3
				l-0.3,0.8c-0.2-0.1-0.4-0.2-0.6-0.2c-0.2,0-0.4,0.1-0.5,0.2c-0.2,0.1-0.3,0.3-0.3,0.5c-0.1,0.3-0.1,0.7-0.1,1v2.7L229.9,477.8
				L229.9,477.8z"/>
			<path class="st26" d="M234.7,477.8l-2-5.1h0.9l1.1,3.1c0.1,0.3,0.2,0.7,0.3,1c0.1-0.3,0.2-0.6,0.3-1l1.1-3.1h0.9l-1.9,5.1H234.7z
				"/>
			<path class="st26" d="M238.2,471.7v-1h0.9v1H238.2z M238.2,477.8v-5.1h0.9v5.1H238.2z"/>
			<path class="st26" d="M243.8,476l0.9,0.1c-0.1,0.6-0.3,1.1-0.7,1.4s-0.9,0.5-1.4,0.5c-0.7,0-1.3-0.2-1.7-0.7s-0.6-1.1-0.6-2
				c0-0.6,0.1-1,0.3-1.5c0.2-0.4,0.5-0.7,0.8-0.9c0.4-0.2,0.8-0.3,1.2-0.3c0.6,0,1,0.1,1.4,0.4s0.6,0.7,0.7,1.2l-0.8,0.1
				c-0.1-0.3-0.2-0.6-0.4-0.8c-0.2-0.2-0.5-0.3-0.7-0.3c-0.4,0-0.8,0.2-1.1,0.5s-0.4,0.8-0.4,1.5s0.1,1.2,0.4,1.5s0.6,0.5,1,0.5
				c0.3,0,0.6-0.1,0.9-0.3C243.6,476.7,243.7,476.4,243.8,476z"/>
			<path class="st26" d="M248.9,476.2l0.9,0.1c-0.1,0.5-0.4,0.9-0.8,1.2s-0.9,0.4-1.5,0.4c-0.8,0-1.4-0.2-1.8-0.7
				c-0.4-0.5-0.7-1.1-0.7-2s0.2-1.5,0.7-2c0.4-0.5,1-0.7,1.7-0.7s1.3,0.2,1.7,0.7s0.7,1.1,0.7,2c0,0.1,0,0.1,0,0.2H246
				c0,0.6,0.2,1,0.5,1.3s0.6,0.5,1.1,0.5c0.3,0,0.6-0.1,0.8-0.3C248.6,476.8,248.8,476.6,248.9,476.2z M246.1,474.8h2.9
				c0-0.4-0.1-0.8-0.3-1c-0.3-0.3-0.6-0.5-1.1-0.5c-0.4,0-0.7,0.1-1,0.4C246.2,474,246.1,474.3,246.1,474.8z"/>
		</g>
		<g class="st25">
			<path class="st26" d="M229.2,489.7v-7.1h0.9v6.3h3.5v0.8L229.2,489.7L229.2,489.7z"/>
			<path class="st26" d="M234.6,483.6v-1h0.9v1H234.6z M234.6,489.7v-5.1h0.9v5.1H234.6z"/>
			<path class="st26" d="M237,489.7v-4.5h-0.8v-0.7h0.8V484c0-0.3,0-0.6,0.1-0.8c0.1-0.2,0.2-0.4,0.4-0.6s0.5-0.2,0.9-0.2
				c0.2,0,0.5,0,0.8,0.1l-0.1,0.8c-0.2,0-0.4,0-0.5,0c-0.3,0-0.5,0.1-0.6,0.2s-0.2,0.3-0.2,0.6v0.5h1v0.7h-1v4.5H237V489.7z"/>
			<path class="st26" d="M241.5,489l0.1,0.8c-0.2,0.1-0.5,0.1-0.7,0.1c-0.3,0-0.6-0.1-0.7-0.2c-0.2-0.1-0.3-0.2-0.4-0.4
				c-0.1-0.2-0.1-0.5-0.1-1v-3h-0.6v-0.7h0.6v-1.3l0.9-0.5v1.8h0.9v0.7h-0.9v3c0,0.2,0,0.4,0,0.5s0.1,0.1,0.2,0.2
				c0.1,0,0.2,0.1,0.3,0.1C241.2,489,241.3,489,241.5,489z"/>
		</g>
		<circle class="st33" cx="235.1" cy="443.5" r="21.5"/>
		<path class="st38" d="M229.1,452v-13h4.3v13H229.1z M233.7,452v-13h4.3v13H233.7z M243.6,452h-5v-13.2c0-0.2,0-0.2-0.2-0.2h-9.3
			c-0.2,0-0.2,0-0.2,0.2l0,0V452h-2.3v-17h17V452z M243.6,434.6h-17.2c-0.2,0-0.2,0-0.2,0.2l0,0V452c0,0,0,0.2,0.2,0.2h17.2
			c0.2,0,0.2,0,0.2-0.2l0,0L243.6,434.6C243.8,434.6,243.8,434.6,243.6,434.6z"/>
		<path class="st38" d="M232.4,436.9h2.7h0.2v-0.2h-2.7C232.2,436.7,232.2,436.7,232.4,436.9C232,436.9,232.2,436.9,232.4,436.9z"/>
		<path class="st38" d="M240.5,444.3l0.6-0.6l0.6,0.6h0.2l0,0v-0.2l-0.8-1h-0.2l0,0l-0.8,0.8C240.1,444.1,240.3,444.1,240.5,444.3
			L240.5,444.3C240.3,444.3,240.5,444.3,240.5,444.3L240.5,444.3z"/>
		<path class="st38" d="M240.9,446.2L240.9,446.2C241.1,446.4,241.1,446.4,240.9,446.2l1-0.8c0,0,0.2-0.2,0-0.2h-0.2l0,0l0,0
			l-0.6,0.6l-0.6-0.6c0,0-0.2-0.2-0.2,0v0.2l0,0L240.9,446.2z"/>
	</g>
	<g id="Coffee">
		<g class="st25">
			<path class="st26" d="M441,274.3l0.9,0.2c-0.2,0.7-0.5,1.3-1,1.6c-0.5,0.4-1.1,0.6-1.8,0.6c-0.7,0-1.3-0.1-1.7-0.4
				c-0.4-0.3-0.8-0.7-1-1.3s-0.4-1.1-0.4-1.8s0.1-1.3,0.4-1.8s0.6-0.9,1.1-1.2s1-0.4,1.6-0.4c0.7,0,1.2,0.2,1.7,0.5s0.8,0.8,0.9,1.4
				l-0.9,0.2c-0.2-0.5-0.4-0.8-0.7-1.1s-0.7-0.3-1.1-0.3c-0.5,0-0.9,0.1-1.3,0.4c-0.3,0.2-0.6,0.6-0.7,1s-0.2,0.8-0.2,1.3
				c0,0.6,0.1,1.1,0.2,1.5s0.4,0.7,0.8,0.9c0.3,0.2,0.7,0.3,1.1,0.3c0.5,0,0.9-0.1,1.2-0.4C440.7,275.2,440.9,274.8,441,274.3z"/>
			<path class="st26" d="M442.6,274.2c0-0.9,0.2-1.5,0.7-2c0.4-0.4,0.9-0.5,1.5-0.5c0.7,0,1.2,0.2,1.6,0.6s0.6,1,0.6,1.8
				c0,0.6-0.1,1.1-0.3,1.5c-0.2,0.4-0.5,0.6-0.8,0.8c-0.4,0.2-0.7,0.3-1.2,0.3c-0.7,0-1.2-0.2-1.6-0.6S442.6,275,442.6,274.2z
				 M443.4,274.2c0,0.6,0.1,1.1,0.4,1.4s0.6,0.5,1,0.5s0.7-0.2,1-0.5s0.4-0.8,0.4-1.4s-0.1-1-0.4-1.3s-0.6-0.5-1-0.5s-0.7,0.2-1,0.5
				C443.5,273.1,443.4,273.6,443.4,274.2z"/>
		</g>
		<g class="st25">
			<path class="st26" d="M448.2,276.6v-4.2h-0.7v-0.6h0.7v-0.5c0-0.3,0-0.6,0.1-0.7c0.1-0.2,0.2-0.4,0.4-0.5s0.5-0.2,0.8-0.2
				c0.2,0,0.5,0,0.8,0.1l-0.1,0.7c-0.2,0-0.3,0-0.5,0s-0.4,0.1-0.5,0.2s-0.2,0.3-0.2,0.6v0.4h0.9v0.6H449v4.2L448.2,276.6
				L448.2,276.6z"/>
		</g>
		<g class="st25">
			<path class="st26" d="M450.6,276.6v-4.2h-0.7v-0.6h0.7v-0.5c0-0.3,0-0.6,0.1-0.7c0.1-0.2,0.2-0.4,0.4-0.5s0.5-0.2,0.8-0.2
				c0.2,0,0.5,0,0.8,0.1l-0.1,0.7c-0.2,0-0.3,0-0.5,0s-0.4,0.1-0.5,0.2s-0.2,0.3-0.2,0.6v0.4h0.9v0.6h-0.9v4.2L450.6,276.6
				L450.6,276.6z"/>
			<path class="st26" d="M456.3,275l0.8,0.1c-0.1,0.5-0.4,0.9-0.7,1.1c-0.4,0.3-0.8,0.4-1.4,0.4c-0.7,0-1.3-0.2-1.7-0.6
				c-0.4-0.4-0.6-1-0.6-1.8s0.2-1.4,0.6-1.9c0.4-0.4,1-0.7,1.6-0.7s1.2,0.2,1.6,0.7s0.6,1.1,0.6,1.8c0,0,0,0.1,0,0.2h-3.6
				c0,0.5,0.2,0.9,0.4,1.2c0.3,0.3,0.6,0.4,1,0.4c0.3,0,0.6-0.1,0.8-0.2S456.1,275.4,456.3,275z M453.6,273.7h2.7
				c0-0.4-0.1-0.7-0.3-0.9c-0.3-0.3-0.6-0.5-1-0.5s-0.7,0.1-0.9,0.4C453.8,273,453.6,273.3,453.6,273.7z"/>
			<path class="st26" d="M461.4,275l0.8,0.1c-0.1,0.5-0.4,0.9-0.7,1.1c-0.4,0.3-0.8,0.4-1.4,0.4c-0.7,0-1.3-0.2-1.7-0.6
				c-0.4-0.4-0.6-1-0.6-1.8s0.2-1.4,0.6-1.9c0.4-0.4,1-0.7,1.6-0.7s1.2,0.2,1.6,0.7s0.6,1.1,0.6,1.8c0,0,0,0.1,0,0.2h-3.6
				c0,0.5,0.2,0.9,0.4,1.2c0.3,0.3,0.6,0.4,1,0.4c0.3,0,0.6-0.1,0.8-0.2S461.3,275.4,461.4,275z M458.7,273.7h2.7
				c0-0.4-0.1-0.7-0.3-0.9c-0.3-0.3-0.6-0.5-1-0.5s-0.7,0.1-0.9,0.4C458.9,273,458.8,273.3,458.7,273.7z"/>
		</g>
		<circle class="st33" cx="448.8" cy="244.5" r="19.9"/>
		<path class="st39" d="M455.9,242.7c1.2-0.2,2.3,0.7,2.5,1.9c0,0.2,0,0.4,0,0.6c0,2.8-3.6,2.9-3.6,2.9"/>
		<path class="st39" d="M451.5,234.8c0.4,0.5,0.5,1.3,0.1,1.8l0,0c-0.4,0.5-0.4,1.3,0,1.8"/>
		<path class="st39" d="M448.4,234.8c0.4,0.5,0.5,1.3,0.1,1.8l0,0c-0.4,0.5-0.4,1.3,0,1.8"/>
		<path class="st39" d="M445.2,234.8c0.4,0.5,0.5,1.3,0.1,1.8l0,0c-0.4,0.5-0.4,1.3,0,1.8"/>
		<path class="st39" d="M452.5,252.6h-7.1c-1.7,0-3.3-0.6-4.6-1.6h16.4C455.8,252.1,454.2,252.6,452.5,252.6z"/>
		<path class="st39" d="M452,250.8c1.5-1,2.5-2.5,2.8-4.2l0.8-5.2h-13.7l0.8,5.2c0.4,1.7,1.4,3.2,2.8,4.2"/>
	</g>
</g>
</svg>
