<?xml version="1.0" encoding="utf-8"?>
<!-- Generator: Adobe Illustrator 25.4.0, SVG Export Plug-In . SVG Version: 6.00 Build 0)  -->
<svg version="1.1" id="Layer_1" xmlns="http://www.w3.org/2000/svg" xmlns:xlink="http://www.w3.org/1999/xlink" x="0px" y="0px"
	 viewBox="0 0 841.9 1190.6" style="enable-background:new 0 0 841.9 1190.6;" xml:space="preserve">
<style type="text/css">
	.st0{fill:#4196B1;}
	.st1{fill:#AAE0E4;}
	.st2{fill:#8ECCCE;}
	.st3{fill:#99B8BF;}
	.st4{opacity:0.15;fill:#020202;enable-background:new    ;}
	.st5{fill:#596069;}
	.st6{fill:#9BAEB8;}
	.st7{fill:none;stroke:#7A8F94;stroke-linecap:round;stroke-miterlimit:10;}
	.st8{opacity:5.000000e-02;fill:#030303;enable-background:new    ;}
	.st9{fill:#B8BFC1;}
	.st10{fill:#FFFFFF;}
	.st11{opacity:8.000000e-02;fill:#101010;enable-background:new    ;}
	.st12{fill:#0D5577;}
	.st13{fill:#4FAFC6;stroke:#5798A3;stroke-width:0.931;stroke-linecap:round;stroke-linejoin:round;}
	.st14{fill:#7DCFE2;stroke:#53C5F1;stroke-width:1.164;stroke-linecap:round;stroke-linejoin:round;}
	.st15{opacity:0.15;fill:#0D5577;enable-background:new    ;}
	.st16{fill:#83D8EF;stroke:#53C5F1;stroke-width:0.799;stroke-linecap:round;stroke-linejoin:round;}
	.st17{fill:#4E9FB9;stroke:#4A90A0;stroke-width:0.799;stroke-linecap:round;stroke-linejoin:round;}
	.st18{opacity:0.43;fill:#53C5F1;enable-background:new    ;}
	.st19{fill:none;stroke:#4A90A0;stroke-miterlimit:10;}
	.st20{fill:#646B6D;}
	.st21{fill:#EBF2F2;}
	.st22{fill:none;stroke:#7A8E93;stroke-width:0.742;stroke-miterlimit:10;}
	.st23{fill:none;stroke:#7A8E93;stroke-width:0.693;stroke-miterlimit:10;}
	.st24{fill:#EBF1F2;}
	.st25{fill:none;stroke:#7A8E93;stroke-width:0.827;stroke-miterlimit:10;}
	.st26{fill:#767E80;}
	.st27{font-family:'ArialMT';}
	.st28{font-size:8px;}
	.st29{font-size:10.311px;}
	.st30{opacity:0.74;fill:#575757;enable-background:new    ;}
	.st31{fill:none;}
	.st32{font-family:'Arial-BoldMT';}
	.st33{font-size:10px;}
	.st34{fill:none;stroke:#FFFFFF;stroke-width:10;stroke-miterlimit:10;}
	.st35{fill:none;stroke:#FFFFFF;stroke-width:5;stroke-miterlimit:10;}
</style>
<g id="shadow">
	<polygon class="st0" points="61.8,65.2 61.8,364.3 487.6,364.3 487.6,855.6 122.4,855.6 122.4,1164.6 805.5,1164.6 805.5,65.2 	"/>
</g>
<g id="background">
	<polygon class="st1" points="61.8,47.6 61.8,346.6 471.9,346.6 471.9,838 120.2,838 120.2,1147 778.1,1147 778.1,47.6 	"/>
</g>
<g id="spaces">
	<rect x="660.6" y="250.6" class="st2" width="119.6" height="517.2"/>
	<rect x="471.6" y="777.4" class="st3" width="70.8" height="78.8"/>
	<rect x="61.8" y="49.7" class="st2" width="156.3" height="299.1"/>
	<polygon class="st2" points="484.5,47.6 780.2,47.6 780.2,250.6 660.6,250.6 660.6,223.4 602.1,223.4 602.1,277.8 484.5,277.8 	"/>
	<polygon class="st2" points="120.2,838 296.3,838 296.3,1012.5 778.1,1012.5 778.1,1149.1 120.2,1149.1 	"/>
	<polygon class="st2" points="471.9,683.6 613,683.6 613,950 558.6,950 558.6,856.2 542.4,856.2 542.4,778.5 471.9,778.5 	"/>
</g>
<g id="furniature">
	<path class="st4" d="M736,869.3l-0.2-5c0.1-3.6-2.7-6.5-6.3-6.6l0,0h-0.3l-4.7,0.4c-4.6,0.6-8,4.7-7.7,9.3l0,0
		c0.1,4.7,3.7,8.5,8.3,9l4.7,0.1c3.6-0.1,6.5-3.1,6.5-6.7L736,869.3L736,869.3z"/>
	<path class="st5" d="M736.7,869.4l-0.2-5c0.1-3.6-2.7-6.5-6.3-6.6l0,0h-0.3l-4.7,0.4c-4.6,0.6-8,4.7-7.7,9.3l0,0
		c0.1,4.7,3.7,8.5,8.3,9l4.7,0.1c3.6-0.1,6.5-3.1,6.5-6.7l0,0C736.5,869.5,736.5,869.5,736.7,869.4z"/>
	<path class="st6" d="M738.6,868.9l-0.2-4.7c-0.1-3.4-3-6.1-6.4-5.9l0,0l0,0h-0.3l-4.7,0.4c-4.4,0.3-7.8,4.1-7.7,8.6l0,0
		c0.1,4.5,3.8,8,8.3,8l4.7,0.1c3.4,0.1,6.3-2.5,6.5-6c0-0.1,0-0.1,0-0.2l0,0L738.6,868.9z"/>
	<path class="st7" d="M732.5,858.4l-5.4,0.6c-4.4,0.3-7.8,4.1-7.7,8.6l0,0c0.1,4.5,3.8,8,8.3,8l5.5,0.1"/>
	<rect x="739.2" y="844.9" class="st8" width="17.5" height="49.8"/>
	<rect x="741.1" y="844.9" class="st9" width="17.5" height="49.8"/>
	<rect x="742.1" y="844.9" class="st10" width="17.5" height="49.8"/>
	<path class="st4" d="M736,935.4l-0.2-5c0.1-3.6-2.7-6.5-6.3-6.6l0,0h-0.3l-4.7,0.4c-4.6,0.6-8,4.7-7.7,9.3l0,0
		c0.1,4.7,3.7,8.5,8.3,9l4.7,0.1c3.6-0.1,6.5-3.1,6.5-6.7L736,935.4L736,935.4z"/>
	<path class="st5" d="M736.7,935.5l-0.2-5c0.1-3.6-2.7-6.5-6.3-6.6l0,0h-0.3l-4.7,0.4c-4.6,0.6-8,4.7-7.7,9.3l0,0
		c0.1,4.7,3.7,8.5,8.3,9l4.7,0.1c3.6-0.1,6.5-3.1,6.5-6.7l0,0C736.5,935.6,736.5,935.6,736.7,935.5z"/>
	<path class="st6" d="M738.6,935l-0.2-4.7c-0.1-3.4-3-6.1-6.4-5.9l0,0l0,0h-0.3l-4.7,0.4c-4.4,0.3-7.8,4.1-7.7,8.6l0,0
		c0.1,4.5,3.8,8,8.3,8l4.7,0.1c3.4,0.1,6.3-2.5,6.5-6c0-0.1,0-0.1,0-0.2l0,0L738.6,935z"/>
	<path class="st7" d="M732.5,924.5l-5.4,0.6c-4.4,0.3-7.8,4.1-7.7,8.6l0,0c0.1,4.5,3.8,8,8.3,8l5.5,0.1"/>
	<rect x="739.2" y="911" class="st8" width="17.5" height="49.8"/>
	<rect x="741.1" y="911" class="st9" width="17.5" height="49.8"/>
	<rect x="742.1" y="911" class="st10" width="17.5" height="49.8"/>
	<path class="st4" d="M723.1,984.7l-5,0.2c-3.6-0.1-6.5,2.7-6.6,6.3l0,0v0.3l0.4,4.7c0.6,4.6,4.7,8,9.3,7.7l0,0
		c4.7-0.1,8.5-3.7,9-8.3l0.1-4.7c-0.1-3.6-3.1-6.5-6.7-6.5L723.1,984.7L723.1,984.7z"/>
	<path class="st5" d="M723.2,984.1l-5,0.2c-3.6-0.1-6.5,2.7-6.6,6.3l0,0v0.3l0.4,4.7c0.6,4.6,4.7,8,9.3,7.7l0,0
		c4.7-0.1,8.5-3.7,9-8.3l0.1-4.7c-0.1-3.6-3.1-6.5-6.7-6.5l0,0C723.3,984.2,723.3,984.2,723.2,984.1z"/>
	<path class="st6" d="M722.7,982.1l-4.7,0.2c-3.4,0.1-6.1,3-5.9,6.4l0,0l0,0v0.3l0.4,4.7c0.3,4.4,4.1,7.8,8.6,7.7l0,0
		c4.5-0.1,8-3.8,8-8.3l0.1-4.7c0.1-3.4-2.5-6.3-6-6.5c-0.1,0-0.1,0-0.2,0l0,0L722.7,982.1z"/>
	<path class="st7" d="M712.2,988.3l0.6,5.4c0.3,4.4,4.1,7.8,8.5,7.7l0,0c4.5-0.1,8.1-3.8,8-8.3l0.1-5.5"/>
	<rect x="692.7" y="965.3" class="st8" width="49.8" height="17.5"/>
	<rect x="692.7" y="963.4" class="st9" width="49.8" height="17.5"/>
	<rect x="692.7" y="962.3" class="st10" width="49.8" height="17.5"/>
	<path class="st4" d="M687.5,793.8l-5,0.2c-3.6-0.1-6.5,2.7-6.6,6.3l0,0v0.3l0.4,4.7c0.6,4.6,4.7,8,9.3,7.7l0,0
		c4.7-0.1,8.5-3.7,9-8.3l0.1-4.7c-0.1-3.6-3.1-6.5-6.7-6.5L687.5,793.8L687.5,793.8z"/>
	<path class="st5" d="M687.6,793.1l-5,0.2c-3.6-0.1-6.5,2.7-6.6,6.3l0,0v0.3l0.4,4.7c0.6,4.6,4.7,8,9.3,7.7l0,0
		c4.7-0.1,8.5-3.7,9-8.3l0.1-4.7c-0.1-3.6-3.1-6.5-6.7-6.5l0,0C687.7,793.2,687.7,793.2,687.6,793.1z"/>
	<path class="st6" d="M687.1,791.2l-4.7,0.2c-3.4,0.1-6.1,3-5.9,6.4l0,0l0,0v0.3l0.4,4.7c0.3,4.4,4.1,7.8,8.6,7.7l0,0
		c4.5-0.1,8-3.8,8-8.3l0.1-4.7c0.1-3.4-2.5-6.3-6-6.5c-0.1,0-0.1,0-0.2,0l0,0L687.1,791.2z"/>
	<path class="st7" d="M676.6,797.3l0.6,5.4c0.3,4.4,4.1,7.8,8.5,7.7l0,0c4.5-0.1,8-3.8,8-8.3l0.1-5.5"/>
	<rect x="663.1" y="773.1" class="st8" width="49.8" height="17.5"/>
	<rect x="663.1" y="771.2" class="st9" width="49.8" height="17.5"/>
	<rect x="663.1" y="770.1" class="st10" width="49.8" height="17.5"/>
	<path class="st4" d="M738.4,793.8l-5,0.2c-3.6-0.1-6.5,2.7-6.6,6.3l0,0v0.3l0.4,4.7c0.6,4.6,4.7,8,9.3,7.7l0,0
		c4.7-0.1,8.5-3.7,9-8.3l0.1-4.7c-0.1-3.6-3.1-6.5-6.7-6.5L738.4,793.8L738.4,793.8z"/>
	<path class="st5" d="M738.5,793.1l-5,0.2c-3.6-0.1-6.5,2.7-6.6,6.3l0,0v0.3l0.4,4.7c0.6,4.6,4.7,8,9.3,7.7l0,0
		c4.7-0.1,8.5-3.7,9-8.3l0.1-4.7c-0.1-3.6-3.1-6.5-6.7-6.5l0,0C738.7,793.2,738.7,793.2,738.5,793.1z"/>
	<path class="st6" d="M738.1,791.2l-4.7,0.2c-3.4,0.1-6.1,3-5.9,6.4l0,0l0,0v0.3l0.4,4.7c0.3,4.4,4.1,7.8,8.5,7.7l0,0
		c4.5-0.1,8-3.8,8-8.3l0.1-4.7c0.1-3.4-2.5-6.3-6-6.5c-0.1,0-0.1,0-0.2,0l0,0L738.1,791.2z"/>
	<path class="st7" d="M727.5,797.3l0.6,5.4c0.3,4.4,4.1,7.8,8.6,7.7l0,0c4.5-0.1,8-3.8,8-8.3l0.1-5.5"/>
	<rect x="714" y="773.1" class="st8" width="49.8" height="17.5"/>
	<rect x="714" y="771.2" class="st9" width="49.8" height="17.5"/>
	<rect x="714" y="770.1" class="st10" width="49.8" height="17.5"/>
	<path class="st4" d="M688.1,313.4l0.2,5c-0.1,3.6,2.7,6.5,6.3,6.6l0,0h0.3l4.7-0.4c4.6-0.6,8-4.7,7.7-9.3l0,0
		c-0.1-4.7-3.7-8.5-8.3-9l-4.7-0.1c-3.6,0.1-6.5,3.1-6.5,6.7L688.1,313.4L688.1,313.4z"/>
	<path class="st5" d="M687.5,313.3l0.2,5c-0.1,3.6,2.7,6.5,6.3,6.6l0,0h0.3l4.7-0.4c4.6-0.6,8-4.7,7.7-9.3l0,0
		c-0.1-4.7-3.7-8.5-8.3-9l-4.7-0.1c-3.6,0.1-6.5,3.1-6.5,6.7l0,0C687.6,313.2,687.6,313.2,687.5,313.3z"/>
	<path class="st6" d="M685.5,313.8l0.2,4.7c0.1,3.4,3,6.1,6.4,5.9l0,0l0,0h0.3l4.7-0.4c4.4-0.3,7.8-4.1,7.7-8.6l0,0
		c-0.1-4.5-3.8-8-8.3-8l-4.7-0.1c-3.4-0.1-6.3,2.5-6.5,6c0,0.1,0,0.1,0,0.2l0,0L685.5,313.8z"/>
	<path class="st7" d="M691.7,324.3l5.4-0.6c4.4-0.3,7.8-4.1,7.7-8.6l0,0c-0.1-4.5-3.8-8-8.3-8L691,307"/>
	<rect x="667.4" y="288.1" class="st8" width="17.5" height="49.8"/>
	<rect x="665.6" y="288.1" class="st9" width="17.5" height="49.8"/>
	<rect x="664.5" y="288.1" class="st10" width="17.5" height="49.8"/>
	<path class="st4" d="M734,354.6l-0.2-5c0.1-3.6-2.7-6.5-6.3-6.6l0,0h-0.3l-4.7,0.4c-4.6,0.6-8,4.7-7.7,9.3l0,0
		c0.1,4.7,3.7,8.5,8.3,9l4.7,0.1c3.6-0.1,6.5-3.1,6.5-6.7L734,354.6L734,354.6z"/>
	<path class="st5" d="M734.6,354.8l-0.2-5c0.1-3.6-2.7-6.5-6.3-6.6l0,0h-0.3l-4.7,0.4c-4.6,0.6-8,4.7-7.7,9.3l0,0
		c0.1,4.7,3.7,8.5,8.3,9l4.7,0.1c3.6-0.1,6.5-3.1,6.5-6.7l0,0C734.5,354.9,734.5,354.9,734.6,354.8z"/>
	<path class="st6" d="M736.6,354.3l-0.2-4.7c-0.1-3.4-3-6.1-6.4-5.9l0,0l0,0h-0.3l-4.7,0.4c-4.4,0.3-7.8,4.1-7.7,8.6l0,0
		c0.1,4.5,3.8,8,8.3,8l4.7,0.1c3.4,0.1,6.3-2.5,6.5-6c0-0.1,0-0.1,0-0.2l0,0L736.6,354.3z"/>
	<path class="st7" d="M730.4,343.7l-5.4,0.6c-4.4,0.3-7.8,4.1-7.7,8.5l0,0c0.1,4.5,3.8,8.1,8.3,8l5.5,0.1"/>
	<rect x="737.2" y="330.2" class="st8" width="17.5" height="49.8"/>
	<rect x="739" y="330.2" class="st9" width="17.5" height="49.8"/>
	<rect x="740.1" y="330.2" class="st10" width="17.5" height="49.8"/>
	<path class="st4" d="M734,287.6l-0.2-5c0.1-3.6-2.7-6.5-6.3-6.6l0,0h-0.3l-4.7,0.4c-4.6,0.6-8,4.7-7.7,9.3l0,0
		c0.1,4.7,3.7,8.5,8.3,9l4.7,0.1c3.6-0.1,6.5-3.1,6.5-6.7L734,287.6L734,287.6z"/>
	<path class="st5" d="M734.6,287.7l-0.2-5c0.1-3.6-2.7-6.5-6.3-6.6l0,0h-0.3l-4.7,0.4c-4.6,0.6-8,4.7-7.7,9.3l0,0
		c0.1,4.7,3.7,8.5,8.3,9l4.7,0.1c3.6-0.1,6.5-3.1,6.5-6.7l0,0C734.5,287.8,734.5,287.8,734.6,287.7z"/>
	<path class="st6" d="M736.6,287.2l-0.2-4.7c-0.1-3.4-3-6.1-6.4-5.9l0,0l0,0h-0.3L725,277c-4.4,0.3-7.8,4.1-7.7,8.5l0,0
		c0.1,4.5,3.8,8,8.3,8l4.7,0.1c3.4,0.1,6.3-2.5,6.5-6c0-0.1,0-0.1,0-0.2l0,0L736.6,287.2z"/>
	<path class="st7" d="M730.4,276.7l-5.4,0.6c-4.4,0.3-7.8,4.1-7.7,8.6l0,0c0.1,4.5,3.8,8,8.3,8l5.5,0.1"/>
	<rect x="737.2" y="263.2" class="st8" width="17.5" height="49.8"/>
	<rect x="739" y="263.2" class="st9" width="17.5" height="49.8"/>
	<rect x="740.1" y="263.2" class="st10" width="17.5" height="49.8"/>
	<path class="st4" d="M345.1,80.7l0.2,5c-0.1,3.6,2.7,6.5,6.3,6.6l0,0h0.3l4.7-0.4c4.6-0.6,8-4.7,7.7-9.3l0,0
		c-0.1-4.7-3.7-8.5-8.3-9l-4.7-0.1c-3.6,0.1-6.5,3.1-6.5,6.7L345.1,80.7z"/>
	<path class="st5" d="M344.5,80.6l0.2,5c-0.1,3.6,2.7,6.5,6.3,6.6l0,0h0.3l4.7-0.4c4.6-0.6,8-4.7,7.7-9.3l0,0
		c-0.1-4.7-3.7-8.5-8.3-9l-4.7-0.1c-3.6,0.1-6.5,3.1-6.5,6.7l0,0C344.6,80.4,344.6,80.4,344.5,80.6z"/>
	<path class="st6" d="M342.5,81l0.2,4.7c0.1,3.4,3,6.1,6.4,5.9l0,0l0,0h0.3l4.7-0.4c4.4-0.3,7.8-4.1,7.7-8.6l0,0
		c-0.1-4.5-3.8-8-8.3-8l-4.7-0.1c-3.4-0.1-6.3,2.5-6.5,6c0,0.1,0,0.1,0,0.2l0,0L342.5,81z"/>
	<path class="st7" d="M348.7,91.6L354,91c4.4-0.3,7.8-4.1,7.7-8.6l0,0c-0.1-4.5-3.8-8-8.3-8l-5.5-0.1"/>
	<rect x="319.6" y="62" class="st8" width="24.5" height="39.4"/>
	<rect x="317" y="62" class="st9" width="24.5" height="39.4"/>
	<rect x="315.5" y="62" class="st10" width="24.5" height="39.4"/>
	<path class="st4" d="M345.1,119.8l0.2,5c-0.1,3.6,2.7,6.5,6.3,6.6l0,0h0.3l4.7-0.4c4.6-0.6,8-4.7,7.7-9.3l0,0
		c-0.1-4.7-3.7-8.5-8.3-9l-4.7-0.1c-3.6,0.1-6.5,3.1-6.5,6.7L345.1,119.8z"/>
	<path class="st5" d="M344.5,119.7l0.2,5c-0.1,3.6,2.7,6.5,6.3,6.6l0,0h0.3l4.7-0.4c4.6-0.6,8-4.7,7.7-9.3l0,0
		c-0.1-4.7-3.7-8.5-8.3-9l-4.7-0.1c-3.6,0.1-6.5,3.1-6.5,6.7l0,0C344.6,119.6,344.6,119.6,344.5,119.7z"/>
	<path class="st6" d="M342.5,120.2l0.2,4.7c0.1,3.4,3,6.1,6.4,5.9l0,0l0,0h0.3l4.7-0.4c4.4-0.3,7.8-4.1,7.7-8.6l0,0
		c-0.1-4.5-3.8-8-8.3-8l-4.7-0.1c-3.4-0.1-6.3,2.5-6.5,6c0,0.1,0,0.1,0,0.2l0,0L342.5,120.2z"/>
	<path class="st7" d="M348.7,130.7l5.4-0.6c4.4-0.3,7.8-4.1,7.7-8.6l0,0c-0.1-4.5-3.8-8-8.3-8l-5.5-0.1"/>
	<rect x="319.6" y="101.1" class="st8" width="24.5" height="39.4"/>
	<rect x="317" y="101.1" class="st9" width="24.5" height="39.4"/>
	<rect x="315.5" y="101.1" class="st10" width="24.5" height="39.4"/>
	<path class="st4" d="M345.1,158.9l0.2,5c-0.1,3.6,2.7,6.5,6.3,6.6l0,0h0.3l4.7-0.4c4.6-0.6,8-4.7,7.7-9.3l0,0
		c-0.1-4.7-3.7-8.5-8.3-9l-4.7-0.1c-3.6,0.1-6.5,3.1-6.5,6.7L345.1,158.9L345.1,158.9z"/>
	<path class="st5" d="M344.5,158.8l0.2,5c-0.1,3.6,2.7,6.5,6.3,6.6l0,0h0.3l4.7-0.4c4.6-0.6,8-4.7,7.7-9.3l0,0
		c-0.1-4.7-3.7-8.5-8.3-9l-4.7-0.1c-3.6,0.1-6.5,3.1-6.5,6.7l0,0C344.6,158.7,344.6,158.7,344.5,158.8z"/>
	<path class="st6" d="M342.5,159.3l0.2,4.7c0.1,3.4,3,6.1,6.4,5.9l0,0l0,0h0.3l4.7-0.4c4.4-0.3,7.8-4.1,7.7-8.6l0,0
		c-0.1-4.5-3.8-8-8.3-8l-4.7-0.1c-3.4-0.1-6.3,2.5-6.5,6c0,0.1,0,0.1,0,0.2l0,0L342.5,159.3z"/>
	<path class="st7" d="M348.7,169.8l5.4-0.6c4.4-0.3,7.8-4.1,7.7-8.6l0,0c-0.1-4.5-3.8-8-8.3-8l-5.5-0.1"/>
	<rect x="319.6" y="140.2" class="st8" width="24.5" height="39.4"/>
	<rect x="317" y="140.2" class="st9" width="24.5" height="39.4"/>
	<rect x="315.5" y="140.2" class="st10" width="24.5" height="39.4"/>
	<path class="st4" d="M283.6,160.9l-0.2-5c0.1-3.6-2.7-6.5-6.3-6.6l0,0h-0.3l-4.7,0.4c-4.6,0.6-8,4.7-7.7,9.3l0,0
		c0.1,4.7,3.7,8.5,8.3,9l4.7,0.1c3.6-0.1,6.5-3.1,6.5-6.7L283.6,160.9z"/>
	<path class="st5" d="M284.2,161l-0.2-5c0.1-3.6-2.7-6.5-6.3-6.6l0,0h-0.3l-4.7,0.4c-4.6,0.6-8,4.7-7.7,9.3l0,0
		c0.1,4.7,3.7,8.5,8.3,9l4.7,0.1c3.6-0.1,6.5-3.1,6.5-6.7l0,0C284.1,161.1,284.1,161.1,284.2,161z"/>
	<path class="st6" d="M286.2,160.5l-0.2-4.7c-0.1-3.4-3-6.1-6.4-5.9l0,0l0,0h-0.3l-4.7,0.4c-4.4,0.3-7.8,4.1-7.7,8.6l0,0
		c0.1,4.5,3.8,8,8.3,8l4.7,0.1c3.4,0.1,6.3-2.5,6.5-6c0-0.1,0-0.1,0-0.2l0,0L286.2,160.5z"/>
	<path class="st7" d="M280,150l-5.4,0.6c-4.4,0.3-7.8,4.1-7.7,8.6l0,0c0.1,4.5,3.8,8,8.3,8l5.5,0.1"/>
	<rect x="284.6" y="140.2" class="st8" width="24.5" height="39.4"/>
	<rect x="287.2" y="140.2" class="st9" width="24.5" height="39.4"/>
	<rect x="288.7" y="140.2" class="st10" width="24.5" height="39.4"/>
	<path class="st4" d="M283.6,121.8l-0.2-5c0.1-3.6-2.7-6.5-6.3-6.6l0,0h-0.3l-4.7,0.4c-4.6,0.6-8,4.7-7.7,9.3l0,0
		c0.1,4.7,3.7,8.5,8.3,9l4.7,0.1c3.6-0.1,6.5-3.1,6.5-6.7L283.6,121.8L283.6,121.8z"/>
	<path class="st5" d="M284.2,121.9l-0.2-5c0.1-3.6-2.7-6.5-6.3-6.6l0,0h-0.3l-4.7,0.4c-4.6,0.6-8,4.7-7.7,9.3l0,0
		c0.1,4.7,3.7,8.5,8.3,9l4.7,0.1c3.6-0.1,6.5-3.1,6.5-6.7l0,0C284.1,122,284.1,122,284.2,121.9z"/>
	<path class="st6" d="M286.2,121.4l-0.2-4.7c-0.1-3.4-3-6.1-6.4-5.9l0,0l0,0h-0.3l-4.7,0.4c-4.4,0.3-7.8,4.1-7.7,8.6l0,0
		c0.1,4.5,3.8,8,8.3,8l4.7,0.1c3.4,0.1,6.3-2.5,6.5-6c0-0.1,0-0.1,0-0.2l0,0L286.2,121.4z"/>
	<path class="st7" d="M280,110.9l-5.4,0.6c-4.4,0.3-7.8,4.1-7.7,8.6l0,0c0.1,4.5,3.8,8,8.3,8l5.5,0.1"/>
	<rect x="284.6" y="101.1" class="st8" width="24.5" height="39.4"/>
	<rect x="287.2" y="101.1" class="st9" width="24.5" height="39.4"/>
	<rect x="288.7" y="101.1" class="st10" width="24.5" height="39.4"/>
	<path class="st4" d="M283.6,82.7l-0.2-5c0.1-3.6-2.7-6.5-6.3-6.6l0,0h-0.3l-4.7,0.4c-4.6,0.6-8,4.7-7.7,9.3l0,0
		c0.1,4.7,3.7,8.5,8.3,9l4.7,0.1c3.6-0.1,6.5-3.1,6.5-6.7L283.6,82.7z"/>
	<path class="st5" d="M284.2,82.8l-0.2-5c0.1-3.6-2.7-6.5-6.3-6.6l0,0h-0.3l-4.7,0.4c-4.6,0.6-8,4.7-7.7,9.3l0,0
		c0.1,4.7,3.7,8.5,8.3,9L278,90c3.6-0.1,6.5-3.1,6.5-6.7l0,0C284.1,82.9,284.1,82.9,284.2,82.8z"/>
	<path class="st6" d="M286.2,82.3l-0.2-4.7c-0.1-3.4-3-6.1-6.4-5.9l0,0l0,0h-0.3l-4.7,0.4c-4.4,0.3-7.8,4.1-7.7,8.6l0,0
		c0.1,4.5,3.8,8,8.3,8l4.7,0.1c3.4,0.1,6.3-2.5,6.5-6c0-0.1,0-0.1,0-0.2l0,0L286.2,82.3z"/>
	<path class="st7" d="M280,71.8l-5.4,0.6c-4.4,0.3-7.8,4.1-7.7,8.6l0,0c0.1,4.5,3.8,8,8.3,8l5.5,0.1"/>
	<rect x="284.6" y="62" class="st8" width="24.5" height="39.4"/>
	<rect x="287.2" y="62" class="st9" width="24.5" height="39.4"/>
	<rect x="288.7" y="62" class="st10" width="24.5" height="39.4"/>
	<path class="st4" d="M452.7,160.9l-0.2-5c0.1-3.6-2.7-6.5-6.3-6.6l0,0h-0.3l-4.7,0.4c-4.6,0.6-8,4.7-7.7,9.3l0,0
		c0.1,4.7,3.7,8.5,8.3,9l4.7,0.1c3.6-0.1,6.5-3.1,6.5-6.7L452.7,160.9z"/>
	<path class="st5" d="M453.4,161l-0.2-5c0.1-3.6-2.7-6.5-6.3-6.6l0,0h-0.3l-4.7,0.4c-4.6,0.6-8,4.7-7.7,9.3l0,0
		c0.1,4.7,3.7,8.5,8.3,9l4.7,0.1c3.6-0.1,6.5-3.1,6.5-6.7l0,0C453.2,161.1,453.2,161.1,453.4,161z"/>
	<path class="st6" d="M455.3,160.5l-0.2-4.7c-0.1-3.4-3-6.1-6.4-5.9l0,0l0,0h-0.3l-4.7,0.4c-4.4,0.3-7.8,4.1-7.7,8.6l0,0
		c0.1,4.5,3.8,8,8.3,8l4.7,0.1c3.4,0.1,6.3-2.5,6.5-6c0-0.1,0-0.1,0-0.2l0,0L455.3,160.5z"/>
	<path class="st7" d="M449.1,150l-5.4,0.6c-4.4,0.3-7.8,4.1-7.7,8.6l0,0c0.1,4.5,3.8,8,8.3,8l5.5,0.1"/>
	<rect x="453.8" y="140.2" class="st8" width="24.5" height="39.4"/>
	<rect x="456.4" y="140.2" class="st9" width="24.5" height="39.4"/>
	<rect x="457.9" y="140.2" class="st10" width="24.5" height="39.4"/>
	<path class="st4" d="M452.7,121.8l-0.2-5c0.1-3.6-2.7-6.5-6.3-6.6l0,0h-0.3l-4.7,0.4c-4.6,0.6-8,4.7-7.7,9.3l0,0
		c0.1,4.7,3.7,8.5,8.3,9l4.7,0.1c3.6-0.1,6.5-3.1,6.5-6.7C453.1,122.4,452.7,121.8,452.7,121.8z"/>
	<path class="st5" d="M453.4,121.9l-0.2-5c0.1-3.6-2.7-6.5-6.3-6.6l0,0h-0.3l-4.7,0.4c-4.6,0.6-8,4.7-7.7,9.3l0,0
		c0.1,4.7,3.7,8.5,8.3,9l4.7,0.1c3.6-0.1,6.5-3.1,6.5-6.7l0,0C453.2,122,453.2,122,453.4,121.9z"/>
	<path class="st6" d="M455.3,121.4l-0.2-4.7c-0.1-3.4-3-6.1-6.4-5.9l0,0l0,0h-0.3l-4.7,0.4c-4.4,0.3-7.8,4.1-7.7,8.6l0,0
		c0.1,4.5,3.8,8,8.3,8l4.7,0.1c3.4,0.1,6.3-2.5,6.5-6c0-0.1,0-0.1,0-0.2l0,0L455.3,121.4z"/>
	<path class="st7" d="M449.1,110.9l-5.4,0.6c-4.4,0.3-7.8,4.1-7.7,8.6l0,0c0.1,4.5,3.8,8,8.3,8l5.5,0.1"/>
	<rect x="453.8" y="101.1" class="st8" width="24.5" height="39.4"/>
	<rect x="456.4" y="101.1" class="st9" width="24.5" height="39.4"/>
	<rect x="457.9" y="101.1" class="st10" width="24.5" height="39.4"/>
	<path class="st4" d="M452.7,82.7l-0.2-5c0.1-3.6-2.7-6.5-6.3-6.6l0,0h-0.3l-4.7,0.4c-4.6,0.6-8,4.7-7.7,9.3l0,0
		c0.1,4.7,3.7,8.5,8.3,9l4.7,0.1c3.6-0.1,6.5-3.1,6.5-6.7L452.7,82.7z"/>
	<path class="st5" d="M453.4,82.8l-0.2-5c0.1-3.6-2.7-6.5-6.3-6.6l0,0h-0.3l-4.7,0.4c-4.6,0.6-8,4.7-7.7,9.3l0,0
		c0.1,4.7,3.7,8.5,8.3,9l4.7,0.1c3.6-0.1,6.5-3.1,6.5-6.7l0,0C453.2,82.9,453.2,82.9,453.4,82.8z"/>
	<path class="st6" d="M455.3,82.3l-0.2-4.7c-0.1-3.4-3-6.1-6.4-5.9l0,0l0,0h-0.3l-4.7,0.4c-4.4,0.3-7.8,4.1-7.7,8.6l0,0
		c0.1,4.5,3.8,8,8.3,8l4.7,0.1c3.4,0.1,6.3-2.5,6.5-6c0-0.1,0-0.1,0-0.2l0,0L455.3,82.3z"/>
	<path class="st7" d="M449.1,71.8l-5.4,0.6c-4.4,0.3-7.8,4.1-7.7,8.6l0,0c0.1,4.5,3.8,8,8.3,8l5.5,0.1"/>
	<rect x="453.8" y="62" class="st8" width="24.5" height="39.4"/>
	<rect x="456.4" y="62" class="st9" width="24.5" height="39.4"/>
	<rect x="457.9" y="62" class="st10" width="24.5" height="39.4"/>
	<path class="st4" d="M452.7,200l-0.2-5c0.1-3.6-2.7-6.5-6.3-6.6l0,0h-0.3l-4.7,0.4c-4.6,0.6-8,4.7-7.7,9.3l0,0
		c0.1,4.7,3.7,8.5,8.3,9l4.7,0.1c3.6-0.1,6.5-3.1,6.5-6.7L452.7,200z"/>
	<path class="st5" d="M453.4,200.1l-0.2-5c0.1-3.6-2.7-6.5-6.3-6.6l0,0h-0.3l-4.7,0.4c-4.6,0.6-8,4.7-7.7,9.3l0,0
		c0.1,4.7,3.7,8.5,8.3,9l4.7,0.1c3.6-0.1,6.5-3.1,6.5-6.7l0,0C453.2,200.3,453.2,200.3,453.4,200.1z"/>
	<path class="st6" d="M455.3,199.7l-0.2-4.7c-0.1-3.4-3-6.1-6.4-5.9l0,0l0,0h-0.3l-4.7,0.4c-4.4,0.3-7.8,4.1-7.7,8.6l0,0
		c0.1,4.5,3.8,8,8.3,8l4.7,0.1c3.4,0.1,6.3-2.5,6.5-6c0-0.1,0-0.1,0-0.2l0,0L455.3,199.7z"/>
	<path class="st7" d="M449.1,189.1l-5.4,0.6c-4.4,0.3-7.8,4.1-7.7,8.6l0,0c0.1,4.5,3.8,8,8.3,8l5.5,0.1"/>
	<rect x="453.8" y="179.3" class="st8" width="24.5" height="39.4"/>
	<rect x="456.4" y="179.3" class="st9" width="24.5" height="39.4"/>
	<rect x="457.9" y="179.3" class="st10" width="24.5" height="39.4"/>
	<path class="st4" d="M546,401.6l5-0.2c3.6,0.1,6.5-2.7,6.6-6.3l0,0v-0.3l-0.4-4.7c-0.6-4.6-4.7-8-9.3-7.7l0,0
		c-4.7,0.1-8.5,3.7-9,8.3l-0.1,4.7c0.1,3.6,3.1,6.5,6.7,6.5L546,401.6L546,401.6z"/>
	<path class="st5" d="M545.9,402.2l5-0.2c3.6,0.1,6.5-2.7,6.6-6.3l0,0v-0.3l-0.4-4.7c-0.6-4.6-4.7-8-9.3-7.7l0,0
		c-4.7,0.1-8.5,3.7-9,8.3l-0.1,4.7c0.1,3.6,3.1,6.5,6.7,6.5l0,0C545.7,402.1,545.7,402.1,545.9,402.2z"/>
	<path class="st6" d="M546.3,404.2l4.7-0.2c3.4-0.1,6.1-3,5.9-6.4l0,0l0,0v-0.3l-0.4-4.7c-0.3-4.4-4.1-7.8-8.5-7.7l0,0
		c-4.5,0.1-8,3.8-8,8.3l-0.1,4.7c-0.1,3.4,2.5,6.3,6,6.5c0.1,0,0.1,0,0.2,0l0,0L546.3,404.2z"/>
	<path class="st7" d="M556.9,398l-0.6-5.4c-0.3-4.4-4.1-7.8-8.6-7.7l0,0c-4.5,0.1-8,3.8-8,8.3l-0.1,5.5"/>
	<rect x="527.2" y="402.6" class="st8" width="39.4" height="24.5"/>
	<rect x="527.2" y="405.2" class="st9" width="39.4" height="24.5"/>
	<rect x="527.2" y="406.7" class="st10" width="39.4" height="24.5"/>
	<path class="st4" d="M585.1,401.6l5-0.2c3.6,0.1,6.5-2.7,6.6-6.3l0,0v-0.3l-0.4-4.7c-0.6-4.6-4.7-8-9.3-7.7l0,0
		c-4.7,0.1-8.5,3.7-9,8.3l-0.1,4.7c0.1,3.6,3.1,6.5,6.7,6.5L585.1,401.6L585.1,401.6z"/>
	<path class="st5" d="M585,402.2l5-0.2c3.6,0.1,6.5-2.7,6.6-6.3l0,0v-0.3l-0.4-4.7c-0.6-4.6-4.7-8-9.3-7.7l0,0
		c-4.7,0.1-8.5,3.7-9,8.3l-0.1,4.7c0.1,3.6,3.1,6.5,6.7,6.5l0,0C584.8,402.1,584.8,402.1,585,402.2z"/>
	<path class="st6" d="M585.4,404.2l4.7-0.2c3.4-0.1,6.1-3,5.9-6.4l0,0l0,0v-0.3l-0.4-4.7c-0.3-4.4-4.1-7.8-8.6-7.7l0,0
		c-4.5,0.1-8,3.8-8,8.3v4.8c-0.1,3.4,2.5,6.3,6,6.5c0.1,0,0.1,0,0.2,0l0,0L585.4,404.2z"/>
	<path class="st7" d="M596,398l-0.6-5.4c-0.3-4.4-4.1-7.8-8.5-7.7l0,0c-4.5,0.1-8,3.8-8,8.3l-0.1,5.5"/>
	<rect x="566.4" y="402.6" class="st8" width="39.4" height="24.5"/>
	<rect x="566.4" y="405.2" class="st9" width="39.4" height="24.5"/>
	<rect x="566.4" y="406.7" class="st10" width="39.4" height="24.5"/>
	<path class="st4" d="M506.8,401.6l5-0.2c3.6,0.1,6.5-2.7,6.6-6.3l0,0v-0.3l-0.4-4.7c-0.6-4.6-4.7-8-9.3-7.7l0,0
		c-4.7,0.1-8.5,3.7-9,8.3l-0.1,4.7c0.1,3.6,3.1,6.5,6.7,6.5L506.8,401.6L506.8,401.6z"/>
	<path class="st5" d="M506.7,402.2l5-0.2c3.6,0.1,6.5-2.7,6.6-6.3l0,0v-0.3l-0.4-4.7c-0.6-4.6-4.7-8-9.3-7.7l0,0
		c-4.7,0.1-8.5,3.7-9,8.3l-0.1,4.7c0.1,3.6,3.1,6.5,6.7,6.5l0,0C506.6,402.1,506.6,402.1,506.7,402.2z"/>
	<path class="st6" d="M507.2,404.2l4.7-0.2c3.4-0.1,6.1-3,5.9-6.4l0,0l0,0v-0.3l-0.4-4.7c-0.3-4.4-4.1-7.8-8.6-7.7l0,0
		c-4.5,0.1-8,3.8-8,8.3l-0.1,4.7c-0.1,3.4,2.5,6.3,6,6.5c0.1,0,0.1,0,0.2,0l0,0L507.2,404.2z"/>
	<path class="st7" d="M517.8,398l-0.6-5.4c-0.3-4.4-4.1-7.8-8.6-7.7l0,0c-4.5,0.1-8,3.8-8,8.3l-0.1,5.5"/>
	<rect x="488.1" y="402.6" class="st8" width="39.4" height="24.5"/>
	<rect x="488.1" y="405.2" class="st9" width="39.4" height="24.5"/>
	<rect x="488.1" y="406.7" class="st10" width="39.4" height="24.5"/>
	<path class="st4" d="M547.7,533.3l-5,0.2c-3.6-0.1-6.5,2.7-6.6,6.3l0,0v0.3l0.4,4.7c0.6,4.6,4.7,8,9.3,7.7l0,0
		c4.7-0.1,8.5-3.7,9-8.3l0.1-4.7c-0.1-3.6-3.1-6.5-6.7-6.5L547.7,533.3L547.7,533.3z"/>
	<path class="st5" d="M547.8,532.6l-5,0.2c-3.6-0.1-6.5,2.7-6.6,6.3l0,0v0.3l0.4,4.7c0.6,4.6,4.7,8,9.3,7.7l0,0
		c4.7-0.1,8.5-3.7,9-8.3l0.1-4.7c-0.1-3.6-3.1-6.5-6.7-6.5l0,0C548,532.7,548,532.7,547.8,532.6z"/>
	<path class="st6" d="M547.4,530.6l-4.7,0.2c-3.4,0.1-6.1,3-5.9,6.4l0,0l0,0v0.3l0.4,4.7c0.3,4.4,4.1,7.8,8.6,7.7l0,0
		c4.5-0.1,8-3.8,8-8.3l0.1-4.7c0.1-3.4-2.5-6.3-6-6.5c-0.1,0-0.1,0-0.2,0l0,0L547.4,530.6z"/>
	<path class="st7" d="M536.8,536.8l0.6,5.4c0.3,4.4,4.1,7.8,8.6,7.7l0,0c4.5-0.1,8-3.8,8-8.3l0.1-5.5"/>
	<rect x="527" y="507.7" class="st8" width="39.4" height="24.5"/>
	<rect x="527" y="505.1" class="st9" width="39.4" height="24.5"/>
	<rect x="527" y="503.6" class="st10" width="39.4" height="24.5"/>
	<path class="st4" d="M508.6,533.3l-5,0.2c-3.6-0.1-6.5,2.7-6.6,6.3l0,0v0.3l0.4,4.7c0.6,4.6,4.7,8,9.3,7.7l0,0
		c4.7-0.1,8.5-3.7,9-8.3l0.1-4.7c-0.1-3.6-3.1-6.5-6.7-6.5L508.6,533.3L508.6,533.3z"/>
	<path class="st5" d="M508.7,532.6l-5,0.2c-3.6-0.1-6.5,2.7-6.6,6.3l0,0v0.3l0.4,4.7c0.6,4.6,4.7,8,9.3,7.7l0,0
		c4.7-0.1,8.5-3.7,9-8.3l0.1-4.7c-0.1-3.6-3.1-6.5-6.7-6.5l0,0C508.8,532.7,508.8,532.7,508.7,532.6z"/>
	<path class="st6" d="M508.2,530.6l-4.7,0.2c-3.4,0.1-6.1,3-5.9,6.4l0,0l0,0v0.3l0.4,4.7c0.3,4.4,4.1,7.8,8.6,7.7l0,0
		c4.5-0.1,8-3.8,8-8.3l0.1-4.7c0.1-3.4-2.5-6.3-6-6.5c-0.1,0-0.1,0-0.2,0l0,0L508.2,530.6z"/>
	<path class="st7" d="M497.7,536.8l0.6,5.4c0.3,4.4,4.1,7.8,8.6,7.7l0,0c4.5-0.1,8-3.8,8-8.3l0.1-5.5"/>
	<rect x="487.9" y="507.7" class="st8" width="39.4" height="24.5"/>
	<rect x="487.9" y="505.1" class="st9" width="39.4" height="24.5"/>
	<rect x="487.9" y="503.6" class="st10" width="39.4" height="24.5"/>
	<path class="st4" d="M586.8,533.3l-5,0.2c-3.6-0.1-6.5,2.7-6.6,6.3l0,0v0.3l0.4,4.7c0.6,4.6,4.7,8,9.3,7.7l0,0
		c4.7-0.1,8.5-3.7,9-8.3l0.1-4.7c-0.1-3.6-3.1-6.5-6.7-6.5L586.8,533.3L586.8,533.3z"/>
	<path class="st5" d="M586.9,532.6l-5,0.2c-3.6-0.1-6.5,2.7-6.6,6.3l0,0v0.3l0.4,4.7c0.6,4.6,4.7,8,9.3,7.7l0,0
		c4.7-0.1,8.5-3.7,9-8.3l0.1-4.7c-0.1-3.6-3.1-6.5-6.7-6.5l0,0C587.1,532.7,587.1,532.7,586.9,532.6z"/>
	<path class="st6" d="M586.5,530.6l-4.7,0.2c-3.4,0.1-6.1,3-5.9,6.4l0,0l0,0v0.3l0.4,4.7c0.3,4.4,4.1,7.8,8.5,7.7l0,0
		c4.5-0.1,8-3.8,8-8.3l0.1-4.7c0.1-3.4-2.5-6.3-6-6.5c-0.1,0-0.1,0-0.2,0l0,0L586.5,530.6z"/>
	<path class="st7" d="M575.9,536.8l0.6,5.4c0.3,4.4,4.1,7.8,8.6,7.7l0,0c4.5-0.1,8-3.8,8-8.3l0.1-5.5"/>
	<rect x="566.1" y="507.7" class="st8" width="39.4" height="24.5"/>
	<rect x="566.1" y="505.1" class="st9" width="39.4" height="24.5"/>
	<rect x="566.1" y="503.6" class="st10" width="39.4" height="24.5"/>
	<path class="st4" d="M547.7,649.3l-5,0.2c-3.6-0.1-6.5,2.7-6.6,6.3l0,0v0.3l0.4,4.7c0.6,4.6,4.7,8,9.3,7.7l0,0
		c4.7-0.1,8.5-3.7,9-8.3l0.1-4.7c-0.1-3.6-3.1-6.5-6.7-6.5L547.7,649.3L547.7,649.3z"/>
	<path class="st5" d="M547.8,648.7l-5,0.2c-3.6-0.1-6.5,2.7-6.6,6.3l0,0v0.3l0.4,4.7c0.6,4.6,4.7,8,9.3,7.7l0,0
		c4.7-0.1,8.5-3.7,9-8.3l0.1-4.7c-0.1-3.6-3.1-6.5-6.7-6.5l0,0C548,648.8,548,648.8,547.8,648.7z"/>
	<path class="st6" d="M547.4,646.7l-4.7,0.2c-3.4,0.1-6.1,3-5.9,6.4l0,0l0,0v0.3l0.4,4.7c0.3,4.4,4.1,7.8,8.6,7.7l0,0
		c4.5-0.1,8-3.8,8-8.3l0.1-4.7c0.1-3.4-2.5-6.3-6-6.5c-0.1,0-0.1,0-0.2,0l0,0L547.4,646.7z"/>
	<path class="st7" d="M536.8,652.9l0.6,5.4c0.3,4.4,4.1,7.8,8.6,7.7l0,0c4.5-0.1,8-3.8,8-8.3l0.1-5.5"/>
	<rect x="527" y="623.8" class="st8" width="39.4" height="24.5"/>
	<rect x="527" y="621.2" class="st9" width="39.4" height="24.5"/>
	<rect x="527" y="619.7" class="st10" width="39.4" height="24.5"/>
	<path class="st4" d="M508.6,649.3l-5,0.2c-3.6-0.1-6.5,2.7-6.6,6.3l0,0v0.3l0.4,4.7c0.6,4.6,4.7,8,9.3,7.7l0,0
		c4.7-0.1,8.5-3.7,9-8.3l0.1-4.7c-0.1-3.6-3.1-6.5-6.7-6.5L508.6,649.3L508.6,649.3z"/>
	<path class="st5" d="M508.7,648.7l-5,0.2c-3.6-0.1-6.5,2.7-6.6,6.3l0,0v0.3l0.4,4.7c0.6,4.6,4.7,8,9.3,7.7l0,0
		c4.7-0.1,8.5-3.7,9-8.3l0.1-4.7c-0.1-3.6-3.1-6.5-6.7-6.5l0,0C508.8,648.8,508.8,648.8,508.7,648.7z"/>
	<path class="st6" d="M508.2,646.7l-4.7,0.2c-3.4,0.1-6.1,3-5.9,6.4l0,0l0,0v0.3l0.4,4.7c0.3,4.4,4.1,7.8,8.6,7.7l0,0
		c4.5-0.1,8-3.8,8-8.3l0.1-4.7c0.1-3.4-2.5-6.3-6-6.5c-0.1,0-0.1,0-0.2,0l0,0L508.2,646.7z"/>
	<path class="st7" d="M497.7,652.9l0.6,5.4c0.3,4.4,4.1,7.8,8.6,7.7l0,0c4.5-0.1,8-3.8,8-8.3l0.1-5.5"/>
	<rect x="487.9" y="623.8" class="st8" width="39.4" height="24.5"/>
	<rect x="487.9" y="621.2" class="st9" width="39.4" height="24.5"/>
	<rect x="487.9" y="619.7" class="st10" width="39.4" height="24.5"/>
	<path class="st4" d="M586.8,649.3l-5,0.2c-3.6-0.1-6.5,2.7-6.6,6.3l0,0v0.3l0.4,4.7c0.6,4.6,4.7,8,9.3,7.7l0,0
		c4.7-0.1,8.5-3.7,9-8.3l0.1-4.7c-0.1-3.6-3.1-6.5-6.7-6.5L586.8,649.3L586.8,649.3z"/>
	<path class="st5" d="M586.9,648.7l-5,0.2c-3.6-0.1-6.5,2.7-6.6,6.3l0,0v0.3l0.4,4.7c0.6,4.6,4.7,8,9.3,7.7l0,0
		c4.7-0.1,8.5-3.7,9-8.3l0.1-4.7c-0.1-3.6-3.1-6.5-6.7-6.5l0,0C587.1,648.8,587.1,648.8,586.9,648.7z"/>
	<path class="st6" d="M586.5,646.7l-4.7,0.2c-3.4,0.1-6.1,3-5.9,6.4l0,0l0,0v0.3l0.4,4.7c0.3,4.4,4.1,7.8,8.5,7.7l0,0
		c4.5-0.1,8-3.8,8-8.3l0.1-4.7c0.1-3.4-2.5-6.3-6-6.5c-0.1,0-0.1,0-0.2,0l0,0L586.5,646.7z"/>
	<path class="st7" d="M575.9,652.9l0.6,5.4c0.3,4.4,4.1,7.8,8.6,7.7l0,0c4.5-0.1,8-3.8,8-8.3l0.1-5.5"/>
	<rect x="566.1" y="623.8" class="st8" width="39.4" height="24.5"/>
	<rect x="566.1" y="621.2" class="st9" width="39.4" height="24.5"/>
	<rect x="566.1" y="619.7" class="st10" width="39.4" height="24.5"/>
	<path class="st4" d="M545.7,589.3l5-0.2c3.6,0.1,6.5-2.7,6.6-6.3l0,0v-0.3l-0.4-4.7c-0.6-4.6-4.7-8-9.3-7.7l0,0
		c-4.7,0.1-8.5,3.7-9,8.3l-0.1,4.7c0.1,3.6,3.1,6.5,6.7,6.5L545.7,589.3L545.7,589.3z"/>
	<path class="st5" d="M545.6,590l5-0.2c3.6,0.1,6.5-2.7,6.6-6.3l0,0v-0.3l-0.4-4.7c-0.6-4.6-4.7-8-9.3-7.7l0,0
		c-4.7,0.1-8.5,3.7-9,8.3l-0.1,4.7c0.1,3.6,3.1,6.5,6.7,6.5l0,0C545.5,589.8,545.5,589.8,545.6,590z"/>
	<path class="st6" d="M546.1,591.9l4.7-0.2c3.4-0.1,6.1-3,5.9-6.4l0,0l0,0V585l-0.4-4.7c-0.3-4.4-4.1-7.8-8.6-7.7l0,0
		c-4.5,0.1-8,3.8-8,8.3l-0.1,4.7c-0.1,3.4,2.5,6.3,6,6.5c0.1,0,0.1,0,0.2,0l0,0L546.1,591.9z"/>
	<path class="st7" d="M556.6,585.8l-0.6-5.4c-0.3-4.4-4.1-7.8-8.6-7.7l0,0c-4.5,0.1-8,3.8-8,8.3l-0.1,5.5"/>
	<rect x="527" y="590.4" class="st8" width="39.4" height="24.5"/>
	<rect x="527" y="593" class="st9" width="39.4" height="24.5"/>
	<rect x="527" y="594.5" class="st10" width="39.4" height="24.5"/>
	<path class="st4" d="M584.8,589.3l5-0.2c3.6,0.1,6.5-2.7,6.6-6.3l0,0v-0.3l-0.4-4.7c-0.6-4.6-4.7-8-9.3-7.7l0,0
		c-4.7,0.1-8.5,3.7-9,8.3l-0.1,4.7c0.1,3.6,3.1,6.5,6.7,6.5L584.8,589.3L584.8,589.3z"/>
	<path class="st5" d="M584.7,590l5-0.2c3.6,0.1,6.5-2.7,6.6-6.3l0,0v-0.3l-0.4-4.7c-0.6-4.6-4.7-8-9.3-7.7l0,0
		c-4.7,0.1-8.5,3.7-9,8.3l-0.1,4.7c0.1,3.6,3.1,6.5,6.7,6.5l0,0C584.6,589.8,584.6,589.8,584.7,590z"/>
	<path class="st6" d="M585.2,591.9l4.7-0.2c3.4-0.1,6.1-3,5.9-6.4l0,0l0,0V585l-0.4-4.7c-0.3-4.4-4.1-7.8-8.6-7.7l0,0
		c-4.5,0.1-8,3.8-8,8.3l-0.1,4.7c-0.1,3.4,2.5,6.3,6,6.5c0.1,0,0.1,0,0.2,0l0,0L585.2,591.9z"/>
	<path class="st7" d="M595.7,585.8l-0.6-5.4c-0.3-4.4-4.1-7.8-8.6-7.7l0,0c-4.5,0.1-8,3.8-8,8.3l-0.1,5.5"/>
	<rect x="566.1" y="590.4" class="st8" width="39.4" height="24.5"/>
	<rect x="566.1" y="593" class="st9" width="39.4" height="24.5"/>
	<rect x="566.1" y="594.5" class="st10" width="39.4" height="24.5"/>
	<path class="st4" d="M506.6,589.3l5-0.2c3.6,0.1,6.5-2.7,6.6-6.3l0,0v-0.3l-0.4-4.7c-0.6-4.6-4.7-8-9.3-7.7l0,0
		c-4.7,0.1-8.5,3.7-9,8.3l-0.1,4.7c0.1,3.6,3.1,6.5,6.7,6.5L506.6,589.3L506.6,589.3z"/>
	<path class="st5" d="M506.5,590l5-0.2c3.6,0.1,6.5-2.7,6.6-6.3l0,0v-0.3l-0.4-4.7c-0.6-4.6-4.7-8-9.3-7.7l0,0
		c-4.7,0.1-8.5,3.7-9,8.3l-0.1,4.7c0.1,3.6,3.1,6.5,6.7,6.5l0,0C506.4,589.8,506.4,589.8,506.5,590z"/>
	<path class="st6" d="M507,591.9l4.7-0.2c3.4-0.1,6.1-3,5.9-6.4l0,0l0,0V585l-0.4-4.7c-0.3-4.4-4.1-7.8-8.6-7.7l0,0
		c-4.5,0.1-8,3.8-8,8.3l-0.1,4.7c-0.1,3.4,2.5,6.3,6,6.5c0.1,0,0.1,0,0.2,0l0,0L507,591.9z"/>
	<path class="st7" d="M517.5,585.8l-0.6-5.4c-0.3-4.4-4.1-7.8-8.6-7.7l0,0c-4.5,0.1-8,3.8-8,8.3l-0.1,5.5"/>
	<rect x="487.9" y="590.4" class="st8" width="39.4" height="24.5"/>
	<rect x="487.9" y="593" class="st9" width="39.4" height="24.5"/>
	<rect x="487.9" y="594.5" class="st10" width="39.4" height="24.5"/>
	<path class="st4" d="M516.7,893.7l0.2,5c-0.1,3.6,2.7,6.5,6.3,6.6l0,0h0.3l4.7-0.4c4.6-0.6,8-4.7,7.7-9.3l0,0
		c-0.1-4.7-3.7-8.5-8.3-9l-4.7-0.1c-3.6,0.1-6.5,3.1-6.5,6.7L516.7,893.7L516.7,893.7z"/>
	<path class="st5" d="M516,893.6l0.2,5c-0.1,3.6,2.7,6.5,6.3,6.6l0,0h0.3l4.7-0.4c4.6-0.6,8-4.7,7.7-9.3l0,0c-0.1-4.7-3.7-8.5-8.3-9
		l-4.7-0.1c-3.6,0.1-6.5,3.1-6.5,6.7l0,0C516.1,893.5,516.1,893.5,516,893.6z"/>
	<path class="st6" d="M514.1,894.1l0.2,4.7c0.1,3.4,3,6.1,6.4,5.9l0,0l0,0h0.3l4.7-0.4c4.4-0.3,7.8-4.1,7.7-8.6l0,0
		c-0.1-4.5-3.8-8-8.3-8l-4.7-0.1c-3.4-0.1-6.3,2.5-6.5,6c0,0.1,0,0.1,0,0.2l0,0L514.1,894.1z"/>
	<path class="st7" d="M520.2,904.6l5.4-0.6c4.4-0.3,7.8-4.1,7.7-8.6l0,0c-0.1-4.5-3.8-8-8.3-8l-5.5-0.1"/>
	<rect x="486.9" y="858.4" class="st8" width="28.7" height="83.9"/>
	<rect x="483.8" y="858.4" class="st9" width="28.7" height="83.9"/>
	<rect x="482.1" y="858.4" class="st10" width="28.7" height="83.9"/>
	<path class="st4" d="M517.3,923.9l0.2,5c-0.1,3.6,2.7,6.5,6.3,6.6l0,0h0.3l4.7-0.4c4.6-0.6,8-4.7,7.7-9.3l0,0
		c-0.1-4.7-3.7-8.5-8.3-9l-4.7-0.1c-3.6,0.1-6.5,3.1-6.5,6.7L517.3,923.9L517.3,923.9z"/>
	<path class="st5" d="M516.6,923.8l0.2,5c-0.1,3.6,2.7,6.5,6.3,6.6l0,0h0.3l4.7-0.4c4.6-0.6,8-4.7,7.7-9.3l0,0
		c-0.1-4.7-3.7-8.5-8.3-9l-4.7-0.1c-3.6,0.1-6.5,3.1-6.5,6.7l0,0C516.7,923.7,516.7,923.7,516.6,923.8z"/>
	<path class="st6" d="M514.6,924.3l0.2,4.7c0.1,3.4,3,6.1,6.4,5.9l0,0l0,0h0.3l4.7-0.4c4.4-0.3,7.8-4.1,7.7-8.6l0,0
		c-0.1-4.5-3.8-8-8.3-8l-4.7-0.1c-3.4-0.1-6.3,2.5-6.5,6c0,0.1,0,0.1,0,0.2l0,0L514.6,924.3z"/>
	<path class="st7" d="M520.8,934.8l5.4-0.6c4.4-0.3,7.8-4.1,7.7-8.6l0,0c-0.1-4.5-3.8-8-8.3-8l-5.5-0.1"/>
	<rect x="342.1" y="890.7" class="st8" width="14.9" height="33.7"/>
	<rect x="343.7" y="890.7" class="st9" width="14.9" height="33.7"/>
	<rect x="344.6" y="890.7" class="st10" width="14.9" height="33.7"/>
	<path class="st11" d="M332.6,900.6c-0.3,2.5-2.5,4.2-5,4l-7-0.8c-3.7-0.3-6.5-3.4-6.4-7.1l0.1-5c0.1-3.7,3-6.7,6.6-7l7-0.4h0.4l0,0
		c2.5,0,4.5,2.1,4.4,4.6l0,0l0,0l-0.3,10.9L332.6,900.6z"/>
	<path class="st12" d="M332.3,901.6L332.3,901.6c-0.3,2.5-2.5,4.2-5,4l-7-0.8c-3.7-0.3-6.5-3.4-6.4-7.1l0.1-5c0.1-3.7,3-6.7,6.6-7
		l7-0.4h0.8c2.3,0.3,3.9,2.4,3.8,4.7l-0.2,10.8L332.3,901.6z"/>
	<path class="st13" d="M332.3,903.2c-0.5,2.5-2.9,4.1-5.3,3.6l0,0l0,0l0,0l-6.7-0.6c-3.7-0.3-6.5-3.4-6.4-7.1l0.1-5
		c0.1-3.7,3-6.7,6.6-7l7-0.4h0.4l0,0c2.5,0,4.5,2.1,4.4,4.6l0,0l0,0l-0.3,10.9L332.3,903.2z"/>
	<path class="st14" d="M331.4,901.3c0,1.9-1.6,3.5-3.6,3.4c-0.2,0-0.3,0-0.5,0l-4.8-0.5c-3.1-0.4-5.5-3-5.5-6.2l0.1-2.9
		c0.1-3.2,2.6-5.8,5.8-5.9l5-0.3l0.1,0.1l0,0c1.9,0.1,3.4,1.7,3.4,3.7l0,0V901.3L331.4,901.3z"/>
	<path class="st11" d="M332.8,923.7c-0.3,2.5-2.5,4.2-5,4l-7-0.8c-3.7-0.3-6.5-3.4-6.4-7.1l0.1-5c0.1-3.7,3-6.7,6.6-7l7-0.4h0.4l0,0
		c2.5,0,4.5,2.1,4.4,4.6l0,0l0,0l-0.3,10.9L332.8,923.7z"/>
	<path class="st12" d="M332.4,924.7L332.4,924.7c-0.3,2.5-2.5,4.2-5,4l-7-0.8c-3.7-0.3-6.5-3.4-6.4-7.1l0.1-5c0.1-3.7,3-6.7,6.6-7
		l7-0.4h0.8c2.3,0.3,3.9,2.4,3.8,4.7l-0.2,10.8L332.4,924.7z"/>
	<path class="st13" d="M332.5,926.3c-0.5,2.5-2.9,4.1-5.3,3.6l0,0l0,0l-6.7-0.6c-3.7-0.3-6.5-3.4-6.4-7.1l0.1-5c0.1-3.7,3-6.7,6.6-7
		l7-0.4h0.4l0,0c2.5,0,4.5,2.1,4.4,4.6l0,0l0,0l-0.3,10.9L332.5,926.3z"/>
	<path class="st14" d="M331.6,924.4c0,1.9-1.6,3.5-3.6,3.4c-0.2,0-0.3,0-0.5,0l-4.8-0.5c-3.1-0.4-5.5-3-5.5-6.2l0.1-2.9
		c0.1-3.2,2.6-5.8,5.8-5.9l5-0.3l0.1,0.1l0,0c1.9,0.1,3.4,1.7,3.4,3.7l0,0V924.4L331.6,924.4z"/>
	<path class="st11" d="M370,915.2c0.3-2.5,2.5-4.2,5-4l7,0.8c3.7,0.3,6.5,3.4,6.4,7.1l-0.1,5c-0.1,3.7-3,6.7-6.6,7l-7,0.4h-0.4l0,0
		c-2.5,0-4.5-2.1-4.4-4.6l0,0l0,0l0.3-10.9L370,915.2z"/>
	<path class="st12" d="M370.3,914.2L370.3,914.2c0.3-2.5,2.5-4.2,5-4l7,0.8c3.7,0.3,6.5,3.4,6.4,7.1l-0.1,5c-0.1,3.7-3,6.7-6.6,7
		l-7,0.4h-0.8c-2.3-0.3-3.9-2.4-3.8-4.7l0.2-10.8L370.3,914.2z"/>
	<path class="st13" d="M370.2,912.6c0.5-2.5,2.9-4.1,5.3-3.6l0,0l6.7,0.6c3.7,0.3,6.5,3.4,6.4,7.1l-0.1,5c-0.1,3.7-3,6.7-6.6,7
		l-7,0.4h-0.4l0,0c-2.5,0-4.5-2.1-4.4-4.6l0,0l0,0l0.3-10.9L370.2,912.6z"/>
	<path class="st14" d="M371.1,914.5c0-1.9,1.6-3.5,3.6-3.4c0.2,0,0.3,0,0.5,0l4.8,0.5c3.1,0.4,5.5,3,5.5,6.2l-0.1,2.9
		c-0.1,3.2-2.6,5.8-5.8,5.9l-5,0.3l-0.1-0.1l0,0c-1.9-0.1-3.4-1.7-3.4-3.7l0,0V914.5L371.1,914.5z"/>
	<path class="st11" d="M369.8,892c0.3-2.5,2.5-4.2,5-4l7,0.8c3.7,0.3,6.5,3.4,6.4,7.1l-0.1,5c-0.1,3.7-3,6.7-6.6,7l-7,0.4h-0.4l0,0
		c-2.5,0-4.5-2.1-4.4-4.6l0,0l0,0l0.3-10.9L369.8,892z"/>
	<path class="st12" d="M370.1,891L370.1,891c0.3-2.5,2.5-4.2,5-4l7,0.8c3.7,0.3,6.5,3.4,6.4,7.1l-0.1,5c-0.1,3.7-3,6.7-6.6,7l-7,0.4
		H374c-2.3-0.3-3.9-2.4-3.8-4.7l0.2-10.8L370.1,891z"/>
	<path class="st13" d="M370.1,889.4c0.5-2.5,2.9-4.1,5.3-3.6l0,0l6.7,0.6c3.7,0.3,6.5,3.4,6.4,7.1l-0.1,5c-0.1,3.7-3,6.7-6.6,7
		l-7,0.4h-0.4l0,0c-2.5,0-4.5-2.1-4.4-4.6l0,0l0,0l0.3-10.9L370.1,889.4z"/>
	<path class="st14" d="M371,891.3c0-1.9,1.6-3.5,3.6-3.4c0.2,0,0.3,0,0.5,0l4.8,0.5c3.1,0.4,5.5,3,5.5,6.2l-0.1,2.9
		c-0.1,3.2-2.6,5.8-5.8,5.9l-5,0.3l-0.1-0.1l0,0c-1.9-0.1-3.4-1.7-3.4-3.7l0,0V891.3L371,891.3z"/>
	<path class="st15" d="M364,340.6h38.6c1.4,0.1,2.5-0.9,2.7-2.3v-25.9c-0.2-0.8-1.1-1.5-1.8-1.3h-86.1c-1,0-1.8,0.8-1.8,1.8v24.9
		c0.1,1.4,1.2,2.6,2.7,2.8H364L364,340.6z"/>
	<path class="st12" d="M363.5,341.4h38.6c1.2-0.1,2.3-0.9,2.7-2.1v-25.4c-0.3-0.7-1-1.2-1.8-1.3h-86.1c-1,0-1.8,0.8-1.8,1.8V339
		c0.2,1.6,1.3,2.9,2.7,2.6h39.3L363.5,341.4z"/>
	<path class="st15" d="M300.3,289.6v22.9c0,0.8,0.6,1.5,1.4,1.6h16.1c0.5-0.1,0.9-0.7,0.8-1.1v-51c0-0.6-0.5-1.1-1.1-1.1H302
		c-0.9,0-1.6,0.7-1.7,1.6v23.2l0,0V289.6L300.3,289.6z"/>
	<path class="st12" d="M299.8,289.3v22.9c0,0.7,0.5,1.4,1.2,1.6h15.2c0.4-0.2,0.7-0.6,0.8-1.1v-51c0-0.6-0.5-1.1-1.1-1.1h-14.7
		c-0.9,0.1-1.7,0.8-1.6,1.6v23.2L299.8,289.3z"/>
	<circle class="st8" cx="278.7" cy="250.8" r="7.5"/>
	<circle class="st9" cx="278.3" cy="251.3" r="7.5"/>
	<circle class="st10" cx="278" cy="252" r="7.5"/>
	<circle class="st8" cx="378.5" cy="253.1" r="7.5"/>
	<circle class="st9" cx="378.2" cy="253.7" r="7.5"/>
	<circle class="st10" cx="377.8" cy="254.4" r="7.5"/>
	<circle class="st8" cx="341.8" cy="261.3" r="7.5"/>
	<circle class="st9" cx="341.4" cy="261.8" r="7.5"/>
	<circle class="st10" cx="341.1" cy="262.6" r="7.5"/>
	<circle class="st8" cx="378.2" cy="294.8" r="7.5"/>
	<circle class="st9" cx="377.8" cy="295.4" r="7.5"/>
	<circle class="st10" cx="377.4" cy="296.1" r="7.5"/>
	<circle class="st8" cx="275.2" cy="272.6" r="7.5"/>
	<circle class="st9" cx="274.9" cy="273.2" r="7.5"/>
	<circle class="st10" cx="274.5" cy="273.9" r="7.5"/>
	<rect x="328.9" y="282.7" class="st8" width="27.9" height="24.5"/>
	<rect x="328.9" y="280.1" class="st9" width="27.9" height="24.5"/>
	<rect x="328.9" y="278.6" class="st10" width="27.9" height="24.5"/>
	<path class="st11" d="M450.4,319.1c2-1.6,4.9-1.3,6.5,0.7l4.5,5.6c2.4,2.9,2.2,7.1-0.5,9.7l-3.7,3.6c-2.7,2.6-7,2.7-9.9,0.3
		l-5.3-4.8l-0.3-0.3l0,0c-1.8-1.8-1.7-4.8,0.1-6.5l0,0l8.1-7.7L450.4,319.1z"/>
	<path class="st12" d="M451.4,318.7L451.4,318.7c2-1.6,4.9-1.3,6.5,0.7l4.5,5.6c2.4,2.9,2.2,7.1-0.5,9.7l-3.7,3.6
		c-2.7,2.6-7,2.7-9.9,0.3l-5.3-4.8l-0.5-0.6c-1.4-1.9-1.1-4.6,0.6-6.1l8-7.7L451.4,318.7z"/>
	<path class="st13" d="M452.5,317.5c2.1-1.5,5-0.9,6.5,1.2l0,0l0,0l0,0l4.4,5.3c2.4,2.9,2.2,7.1-0.5,9.7l-3.7,3.6
		c-2.7,2.6-7,2.7-9.9,0.3l-5.3-4.8l-0.3-0.3l0,0c-1.8-1.8-1.7-4.8,0.1-6.5l0,0l0,0l8.1-7.7L452.5,317.5z"/>
	<path class="st14" d="M451.8,319.5c1.4-1.4,3.7-1.3,5.1,0.1c0.1,0.1,0.2,0.2,0.3,0.4l3.1,3.8c2,2.5,1.8,6.2-0.5,8.5l-2.1,2
		c-2.4,2.2-6.1,2.3-8.5,0l-3.9-3.4v-0.2l0,0c-1.3-1.5-1.2-3.7,0.2-5.1l0,0L451.8,319.5L451.8,319.5z"/>
	<path class="st11" d="M431.2,325.7c1.6,2,1.3,4.9-0.7,6.5l-5.6,4.5c-2.9,2.4-7.1,2.2-9.7-0.5l-3.6-3.7c-2.6-2.7-2.7-7-0.3-9.9
		l4.8-5.3l0.3-0.3l0,0c1.8-1.8,4.8-1.7,6.5,0.1l0,0l0,0l7.7,8.1L431.2,325.7z"/>
	<path class="st12" d="M431.6,326.6L431.6,326.6c1.6,2,1.2,4.9-0.7,6.5l-5.6,4.5c-2.9,2.4-7.1,2.2-9.7-0.5l-3.6-3.7
		c-2.6-2.7-2.7-7-0.3-9.9l4.8-5.3l0.6-0.5c1.9-1.4,4.6-1.1,6.1,0.6l7.7,8L431.6,326.6z"/>
	<path class="st13" d="M432.8,327.7c1.5,2.1,0.9,5-1.2,6.5l0,0l0,0l0,0l-5.3,4.4c-2.9,2.4-7.1,2.2-9.7-0.5l-3.6-3.7
		c-2.6-2.7-2.7-7-0.3-9.9l4.8-5.3l0.3-0.3l0,0c1.8-1.8,4.8-1.7,6.5,0.1l0,0l0,0l7.7,8.1L432.8,327.7z"/>
	<path class="st14" d="M430.8,327c1.4,1.4,1.3,3.7-0.1,5.1c-0.1,0.1-0.2,0.2-0.4,0.3l-3.8,3.1c-2.5,2-6.2,1.8-8.5-0.5l-2-2.1
		c-2.2-2.4-2.3-6.1,0-8.5l3.4-3.9h0.2l0,0c1.5-1.3,3.7-1.2,5.1,0.2l0,0L430.8,327L430.8,327z"/>
	<path class="st16" d="M297.2,267.7H313c1.3,0,2.3,1,2.3,2.3l0,0v40.6c0,1.8,1.5,3.3,3.3,3.3h77.1c1.4,0,2.5,1.1,2.5,2.5v16.8
		c0,1.5-1.2,2.7-2.7,2.7h-97.1c-1.7,0-3.1-1.4-3.1-3.1v-63.3C295.4,268.6,296.2,267.7,297.2,267.7z"/>
	<path class="st17" d="M289.2,261.3c-0.7,0.3-1.1,0.9-1.2,1.6v77.2c0,0.9,0.8,1.6,1.7,1.6c0.4-0.6,1-1,1.7-1.2v-77.2
		C290.4,263.1,289.5,262.3,289.2,261.3z"/>
	<path class="st18" d="M298.5,303.3v-2c0.2-8.6-0.7-28.9-2.9-37.2c-0.8-0.2-1.5-0.6-2.2-1v77.2c0.9-0.4,1.7-0.8,2.7-1
		C297.7,332.3,298.7,310.6,298.5,303.3z"/>
	<path class="st17" d="M296.5,303.3v-2c0.2-8.6-0.7-28.9-2.9-37.2c-0.8-0.3-1.5-0.6-2.2-1v77.2c0.9-0.4,1.7-0.8,2.7-1
		C296,332.3,296.5,310.6,296.5,303.3z"/>
	<path class="st17" d="M289,340.8c0.5,0.7,1.4,1.2,2.3,1.2H403c1.4-0.1,2.4-0.8,2.3-1.7c-0.8-0.3-1.4-0.9-1.7-1.7H291.9
		C291.4,339.8,290.3,340.7,289,340.8z"/>
	<path class="st18" d="M349.7,331.6h-2.9c-12.4-0.2-41.7,0.7-53.8,2.9c-0.4,0.8-0.9,1.5-1.4,2.2h111.7c-0.6-0.8-1.1-1.7-1.4-2.7
		C391.7,332.3,360.4,331.4,349.7,331.6z"/>
	<path class="st17" d="M349.7,333.5h-2.9c-12.4-0.2-41.7,0.7-53.8,2.9c-0.4,0.8-0.9,1.5-1.4,2.2h111.7c-0.6-0.8-1.1-1.7-1.4-2.7
		C391.7,334,360.4,333.5,349.7,333.5z"/>
	<path class="st17" d="M395.8,327.1c0.1-3.2,0.9-6.2,2.5-9c0.7-2.2,3.2-4.2,7-5.6v29.1C399.8,339.8,395.8,334,395.8,327.1z"/>
	<path class="st17" d="M302.5,269.4c-3.1-0.1-6.2-0.8-8.9-2.2c-2.2-0.6-4.2-2.9-5.5-6.3h29C315.1,265.8,309.3,269.4,302.5,269.4z"/>
	<line class="st19" x1="295.4" y1="286" x2="315.1" y2="286"/>
	<line class="st19" x1="315.1" y1="312.5" x2="295.4" y2="312.5"/>
	<line class="st19" x1="317" y1="334.7" x2="317" y2="314.1"/>
	<line class="st19" x1="336.7" y1="314.1" x2="336.7" y2="334.7"/>
	<line class="st19" x1="356.9" y1="314.1" x2="356.9" y2="334.7"/>
	<line class="st19" x1="377.8" y1="314.1" x2="377.8" y2="334.7"/>
</g>
<g id="icons_and_labels">
	<g id="elevator-7-4-3">
		<path class="st20" d="M406.1,939.5v-8h3.5c0.5,0,1.1,0.1,1.6,0.3c0.4,0.1,0.7,0.4,0.9,0.8c0.3,0.4,0.4,0.8,0.4,1.3s-0.1,1-0.5,1.4
			c-0.5,0.4-1.1,0.7-1.8,0.8c0.2,0.1,0.4,0.2,0.6,0.4c0.4,0.3,0.7,0.7,0.9,1.1l1.4,2.1h-1.3l-1-1.6c-0.2-0.4-0.5-0.8-0.8-1.1
			l-0.5-0.5c-0.1-0.1-0.4-0.1-0.5-0.2h-1.9v3.5L406.1,939.5z M407.3,934.9h2.3c0.4,0,0.7,0,1.1-0.1c0.3-0.1,0.5-0.3,0.6-0.5
			c0.1-0.3,0.2-0.5,0.3-0.8c0-0.3-0.1-0.7-0.4-0.9c-0.4-0.2-0.9-0.3-1.3-0.4h-2.5v2.6L407.3,934.9z"/>
		<path class="st20" d="M418,937.6l1,0.1c-0.1,0.6-0.4,1.1-0.9,1.4c-0.5,0.4-1,0.5-1.6,0.5c-0.8,0-1.5-0.3-2-0.8c-1-1.3-1-3.2,0-4.5
			c0.5-0.5,1.3-0.8,2-0.8s1.4,0.3,1.9,0.8c0.5,0.6,0.8,1.5,0.8,2.3v0.3h-4.4c0,0.5,0.2,1.1,0.5,1.5c0.4,0.3,0.8,0.5,1.3,0.5
			c0.3,0,0.6-0.1,0.9-0.3C417.7,938.3,417.9,937.9,418,937.6z M414.9,935.9h3.3c0-0.9-0.7-1.7-1.6-1.8c-0.4,0-0.9,0.1-1.1,0.5
			C415.1,934.9,414.9,935.4,414.9,935.9L414.9,935.9z"/>
		<path class="st20" d="M424.2,937.3l1,0.1c-0.1,0.6-0.4,1.2-0.8,1.6c-0.4,0.4-1,0.6-1.6,0.6c-0.7,0-1.4-0.3-1.9-0.8
			c-0.5-0.6-0.8-1.5-0.8-2.3c0-0.5,0.1-1.1,0.3-1.6c0.1-0.5,0.5-0.9,1-1c0.4-0.2,0.9-0.3,1.4-0.4c0.5,0,1.1,0.1,1.5,0.5
			s0.7,0.9,0.8,1.4l-1,0.1c-0.1-0.3-0.3-0.6-0.5-0.9c-0.3-0.2-0.6-0.3-0.9-0.3c-0.5,0-0.9,0.2-1.3,0.5c-0.3,0.5-0.5,1-0.5,1.6
			c-0.1,0.6,0.1,1.3,0.5,1.8c0.3,0.3,0.7,0.5,1.1,0.5s0.7-0.1,1-0.4C423.9,938.2,424.1,937.8,424.2,937.3z"/>
		<path class="st20" d="M429.9,937.6l1,0.1c-0.1,0.6-0.4,1.1-0.9,1.4c-0.5,0.4-1,0.5-1.6,0.5c-0.8,0-1.5-0.3-2-0.8
			c-1-1.3-1-3.2,0-4.5c0.5-0.5,1.3-0.8,2-0.8s1.4,0.3,1.9,0.8c0.5,0.6,0.8,1.5,0.8,2.3v0.3h-4.4c0,0.5,0.2,1.1,0.5,1.5
			c0.4,0.3,0.8,0.5,1.3,0.5c0.3,0,0.6-0.1,0.9-0.3C429.6,938.3,429.8,937.9,429.9,937.6z M426.7,935.9h3.3c0-0.9-0.7-1.7-1.6-1.8
			c-0.4,0-0.9,0.1-1.1,0.5C426.9,934.9,426.7,935.4,426.7,935.9z"/>
		<path class="st20" d="M432.2,941.7v-8h0.9v0.8c0.2-0.3,0.5-0.5,0.8-0.6s0.7-0.2,1-0.3c0.5,0,0.9,0.1,1.3,0.4
			c0.4,0.3,0.7,0.7,0.9,1.1c0.2,0.5,0.3,1,0.2,1.5c0,0.6-0.1,1.1-0.4,1.6c-0.2,0.4-0.5,0.8-0.9,1.1c-0.4,0.2-0.8,0.4-1.3,0.4
			c-0.3,0-0.6-0.1-0.9-0.3c-0.3-0.1-0.5-0.3-0.6-0.5v2.9L432.2,941.7L432.2,941.7z M433.1,936.6c-0.1,0.6,0.1,1.2,0.5,1.6
			c0.5,0.6,1.5,0.7,2.1,0.1l0.1-0.1c0.3-0.5,0.5-1.2,0.5-1.8c0.1-0.6-0.1-1.2-0.5-1.6c-0.3-0.3-0.7-0.5-1.1-0.5
			c-0.4,0.1-0.8,0.3-1.1,0.6C433.2,935.2,433.1,935.8,433.1,936.6z"/>
		<path class="st20" d="M440.6,938.6l0.1,0.9c-0.3,0-0.5,0.1-0.8,0.1s-0.6,0-0.9-0.1s-0.4-0.2-0.4-0.5c-0.1-0.4-0.2-0.7-0.1-1.1
			v-3.4h-0.7v-0.8h0.8v-1.5l1-0.6v2h1v0.8h-1v3.9c0,0.1,0.1,0.1,0.1,0.3s0.3,0.1,0.4,0.1L440.6,938.6z"/>
		<path class="st20" d="M441.5,932.6v-1.1h1v1.1H441.5z M441.5,939.5v-5.8h1v5.8H441.5z"/>
		<path class="st20" d="M443.6,936.6c-0.1-0.9,0.2-1.8,0.9-2.4c0.5-0.4,1.2-0.6,1.9-0.6c0.7,0,1.5,0.3,2,0.8
			c0.5,0.6,0.8,1.3,0.8,2.1c0,0.6-0.1,1.2-0.4,1.8c-0.2,0.4-0.6,0.8-1,1c-0.4,0.3-0.9,0.4-1.4,0.4c-0.8,0-1.5-0.3-2-0.8
			C443.8,938.2,443.6,937.4,443.6,936.6z M444.6,936.6c-0.1,0.6,0.1,1.2,0.5,1.6c0.7,0.7,1.8,0.7,2.5,0l0,0c0.4-0.5,0.6-1.2,0.5-1.8
			c0.1-0.6-0.1-1.2-0.5-1.6c-0.7-0.7-1.8-0.7-2.5,0l0,0C444.8,935.3,444.6,935.9,444.6,936.6z"/>
		<path class="st20" d="M450.2,939.5v-5.8h0.9v0.9c0.4-0.7,1.1-1,1.9-1c0.4,0,0.7,0.1,1,0.3c0.3,0.1,0.5,0.2,0.6,0.5
			s0.2,0.5,0.3,0.8v4.6h-1V936c0-0.3,0-0.6-0.1-0.9c-0.1-0.2-0.2-0.4-0.4-0.5c-0.2-0.1-0.4-0.1-0.6-0.1c-0.4,0-0.8,0.1-1.1,0.4
			c-0.4,0.4-0.5,1-0.5,1.5v3.1H450.2z"/>
		<circle class="st21" cx="429.8" cy="902.7" r="24.2"/>
		<g id="Outline_Icons-8">
			<path class="st22" d="M428.9,897.3v1.5l-3.3,1c-0.6,0.2-1.1,0.7-1.1,1.4v0.5"/>
			<path class="st22" d="M431.8,897.3v1.5l3.3,1c0.6,0.2,1.1,0.7,1.1,1.4v0.5"/>
			<ellipse class="st22" cx="430.4" cy="894.5" rx="2.8" ry="3.4"/>
			<path class="st22" d="M433.2,894.2h-0.3c-0.9,0.2-1.8-0.3-2.1-1.1c-0.5,0.7-1.3,1.1-2.1,1.1c-0.4,0-0.7-0.1-1.1-0.2"/>
			<rect x="418.8" y="901.7" class="st22" width="22.2" height="7.8"/>
			<line class="st22" x1="421.7" y1="909.5" x2="421.7" y2="913.4"/>
			<line class="st22" x1="438.1" y1="909.5" x2="438.1" y2="913.4"/>
		</g>
	</g>
	<g id="utility-2-4">
		<circle class="st21" cx="542.4" cy="727.8" r="22.7"/>
		<path class="st20" d="M534.9,755.8h1v4.4c0,0.6-0.1,1.3-0.3,1.9c-0.1,0.5-0.5,0.9-1,1.1c-1.1,0.5-2.4,0.5-3.5,0
			c-0.5-0.2-0.8-0.6-1-1.1c-0.2-0.6-0.3-1.3-0.2-1.9v-4.4h1v4.4c0,0.5,0,1,0.1,1.5c0.1,0.4,0.4,0.5,0.6,0.8c0.3,0.2,0.7,0.3,1.1,0.3
			c0.6,0.1,1.2-0.1,1.6-0.5c0.4-0.6,0.6-1.3,0.5-2L534.9,755.8L534.9,755.8z"/>
		<path class="st20" d="M539.5,762.6l0.1,0.9c-0.3,0-0.5,0.1-0.8,0.1s-0.5,0-0.8-0.1s-0.4-0.3-0.4-0.4c-0.1-0.4-0.1-0.7-0.1-1.1
			v-3.3h-0.8v-0.8h0.8v-1.4l0.9-0.6v1.9h1v0.8h-1v3.8c0,0.1,0,0.1,0.1,0.1l0,0c0.1,0,0.1,0.1,0.4,0.1
			C539.3,762.7,539.4,762.7,539.5,762.6z"/>
		<path class="st20" d="M540.5,756.9v-1.1h1v1.1H540.5z M540.5,763.4v-5.5h1v5.5H540.5z"/>
		<path class="st20" d="M542.9,763.4v-7.6h1v7.6H542.9z"/>
		<path class="st20" d="M545.3,756.9v-1.1h1v1.1H545.3z M545.3,763.4v-5.5h1v5.5H545.3z"/>
		<path class="st20" d="M549.7,762.6l0.1,0.9c-0.3,0-0.5,0.1-0.8,0.1s-0.5,0-0.8-0.1s-0.4-0.3-0.4-0.4c-0.1-0.4-0.1-0.7-0.1-1.1
			v-3.3h-0.8v-0.8h0.8v-1.4l0.9-0.6v1.9h1v0.8h-1v3.8c0,0.1,0,0.1,0.1,0.1l0,0c0.1,0,0.1,0.1,0.4,0.1
			C549.3,762.7,549.6,762.7,549.7,762.6z"/>
		<path class="st20" d="M550.6,765.6l-0.1-0.9c0.2,0,0.3,0,0.5,0.1c0.3,0,0.4,0,0.5-0.1s0.2-0.1,0.2-0.2c0.1-0.3,0.2-0.6,0.3-0.8
			c0-0.1,0-0.1,0.1-0.2L550,758h1l1.1,3.3c0.1,0.4,0.2,0.9,0.4,1.3c0.1-0.4,0.2-0.9,0.4-1.3l1.1-3.3h1l-2.1,5.6
			c-0.2,0.4-0.4,0.9-0.5,1.3c-0.1,0.3-0.3,0.5-0.6,0.6s-0.5,0.2-0.8,0.3C551.1,765.7,550.8,765.7,550.6,765.6z"/>
		<g id="Outline_Icons-13-2-4">
			<g id="Outline_Icons-14-2-4">
				<path class="st23" d="M537.4,732.2H535c-0.9,0-1.6-0.7-1.6-1.6l0,0v-4.8c0-0.9,0.7-1.6,1.6-1.6l0,0h15.2c0.9,0,1.6,0.7,1.6,1.6
					l0,0v4.8c0,0.9-0.7,1.6-1.6,1.6l0,0h-2.4"/>
				<polyline class="st23" points="537.4,722.7 537.4,719.4 545.3,719.4 547.8,721.8 547.8,722.7 				"/>
				<rect x="537.4" y="729.8" class="st23" width="10.4" height="6.4"/>
				<circle class="st23" cx="535.8" cy="726.7" r="0.8"/>
				<line class="st23" x1="538.9" y1="731.5" x2="546.2" y2="731.5"/>
				<line class="st23" x1="538.9" y1="733.1" x2="546.2" y2="733.1"/>
				<line class="st23" x1="538.9" y1="734.7" x2="546.2" y2="734.7"/>
				<polyline class="st23" points="545.3,719.4 545.3,721.8 547.8,721.8 				"/>
			</g>
		</g>
	</g>
	<g id="Outline_Icons-6">
		<circle class="st24" cx="635.6" cy="118" r="22.8"/>
		<g id="Outline_Icons-2-2">
			<path class="st25" d="M642.7,113.5c-1.5,0-2.8-1-3.3-2.4c-0.6,0.4-1.3,0.6-2,0.6c-1.9,0-3.5-1.6-3.5-3.5v-0.3
				c-5.5,0.9-9.2,6.2-8.3,11.7s6.2,9.2,11.7,8.3s9.2-6.2,8.3-11.7c-0.2-1.1-0.6-2.2-1.1-3.2C644,113.3,643.3,113.5,642.7,113.5z"/>
			<circle class="st25" cx="632.1" cy="115.3" r="1.8"/>
			<circle class="st25" cx="638.3" cy="119.7" r="0.9"/>
			<circle class="st25" cx="633" cy="122.4" r="1.8"/>
			<circle class="st25" cx="639.1" cy="116.2" r="0.4"/>
			<circle class="st25" cx="628.6" cy="118.8" r="0.4"/>
			<circle class="st25" cx="638.3" cy="124.1" r="0.4"/>
		</g>
		<text transform="matrix(1 0 0 1 604.039 152.054)" class="st26 st27 st28">Kitchen/ Breakout</text>
		<text transform="matrix(1 0 0 1 407.283 286.282)" class="st26 st27 st28">Lounge</text>
		<text transform="matrix(1 0 0 1 433.978 286.282)" class="st26 st27 st28"> </text>
		<text transform="matrix(1 0 0 1 435.76 286.282)" class="st26 st27 st28">Area</text>
		<text transform="matrix(1 0 0 1 507.049 246.524)" class="st26 st27 st28">PH</text>
		<text transform="matrix(1 0 0 1 502.153 256.1241)" class="st26 st27 st28">Booth</text>
		<text transform="matrix(1 0 0 1 570.382 246.524)" class="st26 st27 st28">PH</text>
		<text transform="matrix(1 0 0 1 565.486 256.1241)" class="st26 st27 st28">Booth</text>
		<text transform="matrix(1 0 0 1 126.0808 319.4909)" class="st26 st27 st28">Storage</text>
	</g>
	<circle class="st24" cx="578.8" cy="810.1" r="22.3"/>
	<text transform="matrix(1 0 0 1 565.757 845.7971)" class="st26 st27 st29">Coats</text>
	<path class="st25" d="M577.2,798c0.2,3.8,0.9,7.5,1.9,11.1v5.9c-0.2,1.8-1.3,3.4-2.8,4.4h-3v-8.7"/>
	<path class="st25" d="M579.3,797.8h-2.2l-4.8,2.2c-2.6,5.2-4,11-4.1,16.8h3.3c0.6-3.2,1.3-6.3,2.2-9.4"/>
	<path class="st25" d="M574.4,799c0.5,3.8,2.2,7.3,4.8,10.1"/>
	<path class="st25" d="M575.1,813h2.8"/>
	<path class="st25" d="M581.4,798c-0.4,3.8-1.1,7.5-2.2,11.1v5.9c0.2,1.8,1.3,3.4,2.8,4.4h3.7v-8.7"/>
	<path class="st25" d="M579.3,797.8h2.2l4.8,2.2c2.6,5.2,4,11,4.1,16.8h-3.3c-0.6-3.2-1.3-6.3-2.2-9.4"/>
	<path class="st25" d="M584,799c-0.5,3.8-2.2,7.3-4.8,10.1"/>
	<path class="st25" d="M583.4,813H581"/>
	<circle class="st24" cx="585.8" cy="897" r="22.3"/>
	<text transform="matrix(1 0 0 1 572.795 932.7281)" class="st26 st27 st29">Coats</text>
	<path class="st25" d="M584.2,884.9c0.2,3.8,0.9,7.5,1.9,11.1v5.9c-0.2,1.8-1.3,3.4-2.8,4.4h-3v-8.7"/>
	<path class="st25" d="M586.3,884.7h-2.2l-4.8,2.2c-2.6,5.2-4,11-4.1,16.8h3.3c0.6-3.2,1.3-6.3,2.2-9.4"/>
	<path class="st25" d="M581.4,885.9c0.5,3.8,2.2,7.3,4.8,10.1"/>
	<path class="st25" d="M582.1,899.9h2.8"/>
	<path class="st25" d="M588.4,884.9c-0.4,3.8-1.1,7.5-2.2,11.1v5.9c0.2,1.8,1.3,3.4,2.8,4.4h3.7v-8.7"/>
	<path class="st25" d="M586.3,884.7h2.2l4.8,2.2c2.6,5.2,4,11,4.1,16.8h-3.3c-0.6-3.2-1.3-6.3-2.2-9.4"/>
	<path class="st25" d="M591,885.9c-0.5,3.8-2.2,7.3-4.8,10.1"/>
	<path class="st25" d="M590.4,899.9H588"/>
</g>
<g id="bookable">
	<rect id="area-02.09-status" x="64.5" y="52.9" class="st30" width="153.6" height="114.1"/>
	<rect id="area-02.08-status" x="63.1" y="166.4" class="st30" width="153.6" height="122.3"/>
	<rect id="area-02.07-status" x="659.8" y="424.4" class="st30" width="117.1" height="166"/>
	<rect id="area-02.06-status" x="659.8" y="592" class="st30" width="117.1" height="175.9"/>
	<rect id="area-02.05-status" x="589.2" y="1012.5" class="st30" width="191" height="136.6"/>
	<rect id="area-02.04-status" x="477" y="1012.5" class="st30" width="112.2" height="136.6"/>
	<rect id="area-02.03-status" x="297.2" y="1012.5" class="st30" width="179.8" height="136.6"/>
	<rect id="area-02.02-status" x="120.2" y="977.2" class="st30" width="176.1" height="171.9"/>
	<rect id="area-02.01-status" x="120.2" y="840.6" class="st30" width="176.1" height="136.6"/>
	<rect x="138.2" y="901.9" class="st31" width="140" height="13.9"/>
	<text transform="matrix(1 0 0 1 187.0751 909.0579)" class="st10 st32 st33">Saryarka</text>
	<rect x="138.2" y="1065.1" class="st31" width="140" height="13.9"/>
	<text transform="matrix(1 0 0 1 192.9247 1072.2424)" class="st10 st32 st33">Alatau</text>
	<rect x="318.1" y="1065.1" class="st31" width="140" height="13.9"/>
	<text transform="matrix(1 0 0 1 368.1057 1072.2424)" class="st10 st32 st33">Burabay</text>
	<rect x="468.2" y="1065.1" class="st31" width="140" height="13.9"/>
	<text transform="matrix(1 0 0 1 522.361 1072.2424)" class="st10 st32 st33">Medeo</text>
	<rect x="618" y="1067.4" class="st31" width="140" height="13.9"/>
	<text transform="matrix(1 0 0 1 670.723 1074.5273)" class="st10 st32 st33">Zaysan</text>
	<rect x="650.4" y="672.9" class="st31" width="140" height="13.9"/>
	<text transform="matrix(1 0 0 1 689.2468 680.1023)" class="st10 st32 st33">Team room 1</text>
	<rect x="650.4" y="500.7" class="st31" width="140" height="13.9"/>
	<text transform="matrix(1 0 0 1 689.2468 507.8987)" class="st10 st32 st33">Team room 2</text>
	<rect x="69.9" y="110.1" class="st31" width="140" height="13.9"/>
	<text transform="matrix(1 0 0 1 103.5291 117.2857)" class="st10 st32 st33">Partner office 1</text>
	<rect x="71.3" y="226.5" class="st31" width="140" height="13.9"/>
	<text transform="matrix(1 0 0 1 110.1748 233.6781)" class="st10 st32 st33">Team room 3</text>
</g>
<g id="outline">
	<polygon class="st34" points="61.8,49.7 61.8,348.7 471.9,348.7 471.9,840 120.2,840 120.2,1149.1 778.1,1149.1 778.1,49.7 	"/>
	<polyline class="st35" points="61.8,167 218.1,167 218.1,103.1 218.1,242.5 	"/>
	<polyline class="st35" points="64.5,288.7 218.1,288.7 218.1,300.2 218.1,275.1 	"/>
	<polyline class="st35" points="218.1,66.4 218.1,49.7 484.5,49.7 484.5,223.4 621.8,223.4 602.1,223.4 602.1,277.8 595.3,277.8 	
		"/>
	<polyline class="st35" points="545.7,223.4 545.7,277.8 567.4,277.8 530.7,277.8 	"/>
	<polyline class="st35" points="484.5,223.4 484.5,277.8 496.1,277.8 	"/>
	<polyline class="st35" points="655.8,223.4 661.9,223.4 661.9,250.6 778.1,250.6 778.1,421.9 660.6,421.9 660.6,277.8 660.6,447.7 
			"/>
	<polyline class="st35" points="660.6,474.2 660.6,625.1 660.6,590.5 780.2,590.5 780.2,767.8 660.6,767.8 660.6,660.5 660.6,801.8 
		660.6,950 650.4,950 621.5,950 613,950 	"/>
	<polyline class="st35" points="471.9,683.6 613,683.6 613,706.7 	"/>
	<polyline class="st35" points="471.9,777.4 613,777.4 613,738.6 613,792.3 	"/>
	<polyline class="st35" points="542.4,777.4 542.4,856.2 613,856.2 613,835.1 613,950 600.7,950 	"/>
	<polyline class="st35" points="558.6,856.2 558.6,950 570.8,950 	"/>
	<polyline class="st35" points="471.9,840 471.9,856.2 542.4,856.2 	"/>
	<polyline class="st35" points="120.2,976.5 296.3,976.5 296.3,990.8 296.3,958.8 	"/>
	<line class="st35" x1="296.3" y1="928.9" x2="296.3" y2="840"/>
	<polyline class="st35" points="296.3,1012.5 296.3,1149.1 477,1149.1 477,1012.5 337,1012.5 495.4,1012.5 	"/>
	<polyline class="st35" points="530.1,1012.5 778.1,1012.5 589.9,1012.5 589.9,1149.1 	"/>
</g>
<polyline class="st35" points="660.6,1001.4 660.6,950 660.6,974 "/>
<line class="st35" x1="660.6" y1="994.2" x2="660.6" y2="1012.5"/>
</svg>
