<?xml version="1.0" encoding="utf-8"?>
<!-- Generator: Adobe Illustrator 26.2.1, SVG Export Plug-In . SVG Version: 6.00 Build 0)  -->
<svg version="1.1" id="Layer_1" xmlns="http://www.w3.org/2000/svg" xmlns:xlink="http://www.w3.org/1999/xlink" x="0px" y="0px"
	 viewBox="0 0 835.1 687.8" style="enable-background:new 0 0 835.1 687.8;" xml:space="preserve">
<style type="text/css">
	.st0{fill:#6393AD;}
	.st1{fill:#B7D8DF;}
	.st2{fill:#A1CACC;}
	.st3{fill:#9FB5BB;}
	.st4{fill:#A4C2C3;}
	.st5{opacity:0.74;fill:#5A595A;enable-background:new    ;}
	.st6{fill:#FFFFFF;}
	.st7{fill:#FCFCFC;}
	.st8{fill:#9FACB4;}
	.st9{opacity:0.1;fill:#0D0E0E;enable-background:new    ;}
	.st10{fill:#7F8D91;}
	.st11{fill:#E4E6E8;}
	.st12{fill:none;stroke:#ECECEC;stroke-width:8;stroke-miterlimit:10;}
	.st13{fill:none;stroke:#EFEFEF;stroke-width:3;stroke-miterlimit:10;}
	.st14{fill:#EBF1F0;}
	.st15{fill:#777D7E;}
	.st16{fill:none;stroke:#7F8B90;stroke-width:0.33;stroke-miterlimit:10;}
	.st17{fill:none;stroke:#7F8B90;stroke-width:0.333;stroke-miterlimit:10;}
	.st18{fill:none;stroke:#7F8B90;stroke-width:0.228;stroke-miterlimit:10;}
	.st19{fill:none;stroke:#7F8B90;stroke-width:0.399;stroke-miterlimit:10;}
</style>
<g id="Shadow">
	<path class="st0" d="M0,435.3h208.5v-22h43v22h11.7v-7h71.7v8.7h99.7v24.7h13.7c0,0,11-37.3,23.3-76.3l12.3-39l-17.5-5.1l-8.4-23.5
		l8.3-23.9l34.3,10.1l4.7-12.7l-7.6-2.2l-7.5-22.9l23.8-55.9l18.6,5.1c0,0,22-45.7,52.3-105.3S641.6,8.7,641.6,8.7l193.3,115.6
		l-0.3,17.2c0,0-96,153.4-142.5,307.9c-33.4,111-44.7,185.7-48.4,218.8L621,687.8H26.5L0,667.4V543.3h26.5v-43H15.2L0,480.9V435.3z"
		/>
</g>
<g id="Background">
	<path class="st1" d="M4,411.4h204.5v-22h43v22h11.7v-7h71.7v8.7h99.7v24.7h13.7c0,0,11-37.3,23.3-76.3l12.3-39l-21-7.3l15-43
		l22.7,8l4.7-12.7l-10-3.7l31.7-74.3l5.7,2c0,0,22-45.7,52.3-105.3s44-80.7,44-80.7l200.7,120c0,0-90.9,145.6-137.4,300.1
		S639.6,664,639.6,664H4V519.4h22.5v-43H4V411.4z"/>
</g>
<g id="Highlights_and_Blanks">
	<rect x="208.5" y="389.4" class="st2" width="42.8" height="77.2"/>
	<polygon class="st2" points="333,466.7 333,404.4 263.2,404.4 263.2,413.1 251.2,413.1 251.2,466.7 	"/>
	<polygon class="st3" points="360.4,424.9 360.4,466.7 333,466.7 333,424.6 	"/>
	<rect x="406" y="424.9" class="st2" width="29.3" height="41.8"/>
	<rect x="209.2" y="490.2" class="st2" width="34.2" height="87.5"/>
	<path class="st2" d="M461.4,432.5c-11.5,7.5-12.3,30.9,3.3,51.9s36.9,24.8,47.6,17.2s11-20.4,3.1-41.1S480.9,419.9,461.4,432.5z"/>
	<polygon class="st2" points="552.3,300.1 538.2,340.7 462.8,315.1 478.5,272.3 	"/>
	<polygon class="st2" points="573.5,314.5 561.5,349.2 638.1,376.5 650.5,341.2 	"/>
	<polygon class="st2" points="586.2,216.5 552.3,300.1 500.7,280.1 505.2,267.4 495.2,263.7 526.2,190.8 	"/>
	<polygon class="st2" points="600.9,183.8 549.3,157 533,194.2 586.2,216.5 	"/>
	<rect x="60.8" y="655.4" class="st3" width="526.8" height="8.6"/>
	<rect x="276.5" y="490.2" class="st3" width="20.5" height="88.8"/>
	<polygon class="st3" points="42.5,411.4 42.5,424.4 209.2,424.4 209.2,413.3 	"/>
	<polygon class="st3" points="593.2,256.7 671.5,289.4 663.5,308.7 585.5,277.2 	"/>
	<polygon class="st3" points="629,193.8 678.3,215.7 674.2,223.7 625.6,200.5 	"/>
	<polygon class="st2" points="483.8,322.4 538.2,340.7 528.7,369.4 474.6,351.6 	"/>
	<path class="st3" d="M549.3,157c0,0,8.1-22,42.8-85.2s36.2-65.6,36.2-65.6l10.1,5.7c0,0-27.2,50-43.5,82.5S560.9,163,560.9,163
		L549.3,157z"/>
	<rect x="333" y="411.4" class="st3" width="101.5" height="13.5"/>
	<polygon class="st3" points="187.7,490.8 187.7,572.1 133.2,572.1 133.2,490.1 	"/>
</g>
<g id="Room">
	<polygon class="st3" points="6.5,433.9 42.5,433.9 42.5,424.4 131.8,424.4 131.8,466.7 132.8,466.7 132.8,655.4 60.8,655.4 
		60.8,660.9 42.5,660.9 42.5,653.9 6.5,653.9 6.5,518.7 30,518.7 30,474.9 6.5,474.9 	"/>
	<rect x="131.8" y="424.4" class="st3" width="76.8" height="42.2"/>
	<polygon class="st3" points="133.2,594.7 209.2,594.7 209.2,655.4 132.8,655.4 	"/>
	<rect x="209.2" y="578.9" class="st3" width="74.5" height="76.5"/>
	<polygon class="st3" points="361.2,568.2 361.2,587.4 358,587.4 358,655.4 283.8,655.4 283.8,578.9 297,578.9 297,568.2 	"/>
	<path class="st3" d="M297,490.2v78h64.2v-72.5C361.2,495.7,335.2,490.4,297,490.2z"/>
	<path class="st4" d="M435.2,510.7v57.5h-74v-72.5C361.2,495.7,389,496.2,435.2,510.7z"/>
	<rect x="358" y="587.4" class="st4" width="77.2" height="68"/>
	<rect x="435.2" y="587.2" class="st4" width="77" height="68.2"/>
	<polygon class="st4" points="571.2,587.2 568.2,601.4 645.9,616.8 638.2,662.9 587.5,662.9 587.5,655.2 512.2,655.2 512.2,587.2 	
		"/>
	<path class="st4" d="M584.8,527c0,0-6.8,27.2-11.3,48.9s-5.3,25.4-5.3,25.4l77.7,15.4l14.2-71L584.8,527z"/>
	<path class="st4" d="M605.5,448.4c0,0-5.5,19.4-11.2,41.5c-5.8,22.1-9.4,37.1-9.4,37.1l75.3,18.8l19-75.4L605.5,448.4z"/>
	<polygon class="st4" points="699,398.3 613.8,367.8 586.5,450.9 603.2,456.5 605.5,448.4 677,469.7 	"/>
	<path class="st4" d="M542,437.7l44.5,13.2l27.3-83.1l-52.3-18.7C553.3,378.3,546.8,407.9,542,437.7z"/>
	<polygon class="st4" points="460,398.3 514.2,415.4 528.7,369.4 475.8,351.6 	"/>
	<polygon class="st4" points="560.9,163 583.7,116.7 623.5,136.4 600.9,183.8 	"/>
	<polygon class="st4" points="599.1,86.2 637.5,13.7 746.5,78.4 709.6,144.8 	"/>
	<polygon class="st4" points="707.8,148.3 789.7,190.3 827,126.2 746.5,78.4 	"/>
	<polygon class="st4" points="696.2,228.9 731,160.2 789.7,190.3 757.1,260.3 	"/>
	<polygon class="st4" points="676.4,218.8 649.4,280.1 671.5,289.4 667,300.2 726.6,323.6 757.1,260.3 	"/>
	<polygon class="st4" points="638.1,376.5 667,300.2 726.6,323.6 699,398.3 	"/>
	<path class="st4" d="M595,257.4l54.4,22.8l25-57.2l-49.5-22.8C624.9,200.2,610.5,222.9,595,257.4z"/>
	<rect x="360.4" y="424.9" class="st4" width="45.6" height="41.8"/>
	<polygon class="st4" points="599.1,86.2 638.5,107.1 623.5,136.4 583.7,116.7 	"/>
</g>
<g id="Bookings">
	<path id="area-07.725-status" class="st5" d="M435.2,510.7v57.5h-74v-72.5C361.2,495.7,389,496.2,435.2,510.7z"/>
	<rect id="area-07.703-status" x="358" y="587.4" class="st5" width="77.2" height="68"/>
	<polygon id="area-07.701-status" class="st5" points="571.2,587.2 568.2,601.4 645.9,616.8 638.2,662.9 587.5,662.9 587.5,655.2 
		512.2,655.2 512.2,587.2 	"/>
	<path id="area-07.722-status" class="st5" d="M542,437.7l44.5,13.2l27.3-83.1l-52.3-18.7C553.3,378.3,546.8,407.9,542,437.7z"/>
	<polygon id="area-07.717-status" class="st5" points="599.1,86.2 637.5,13.7 746.5,78.4 709.6,144.8 	"/>
	<polygon id="area-07.719-status" class="st5" points="696.2,228.9 731,160.2 789.7,190.3 757.1,260.3 	"/>
	<polygon id="area-07.721-status" class="st5" points="638.1,376.5 667,300.2 726.6,323.6 699,398.3 	"/>
	<path id="area-07.726-status" class="st5" d="M595,257.4l54.4,22.8l25-57.2l-49.5-22.8C624.9,200.2,610.5,222.9,595,257.4z"/>
</g>
<g id="Room_names">
	<g id="Text">
		<path class="st6" d="M670,79.3c-0.3,0.3-0.5,0.6-0.8,1c-0.6,0.9-1.1,1.9-1.3,2.9c-0.1,0.5-0.2,0.9-0.2,1.4h-1.3
			c0.1-1.3,0.5-2.5,1.1-3.6c0.3-0.6,0.7-1.1,1.2-1.6h-3.2l0-1.1h4.5L670,79.3z"/>
		<path class="st6" d="M670.9,80.2v-0.9c0.3,0,0.6,0,0.8-0.1c0.2,0,0.4-0.2,0.6-0.3c0.1-0.1,0.2-0.3,0.2-0.5c0-0.1,0-0.2,0-0.3h1
			v6.4h-1.3v-4.4L670.9,80.2z"/>
		<path class="st6" d="M680.1,79.3c-0.3,0.3-0.5,0.6-0.8,1c-0.6,0.9-1.1,1.9-1.3,2.9c-0.1,0.5-0.2,0.9-0.2,1.4h-1.3
			c0.1-1.3,0.5-2.5,1.1-3.6c0.3-0.6,0.7-1.1,1.2-1.6h-3.2l0-1.1h4.5L680.1,79.3z"/>
	</g>
	<g id="Text-2">
		<path class="st6" d="M741.2,207.7c-0.3,0.3-0.5,0.6-0.8,1c-0.6,0.9-1.1,1.9-1.3,2.9c-0.1,0.5-0.2,0.9-0.2,1.4h-1.3
			c0.1-1.3,0.5-2.5,1.1-3.6c0.3-0.6,0.7-1.1,1.2-1.6h-3.2l0-1.1h4.5L741.2,207.7z"/>
		<path class="st6" d="M742.1,208.6v-0.9c0.3,0,0.6,0,0.8-0.1c0.2,0,0.4-0.2,0.6-0.3c0.1-0.1,0.2-0.3,0.2-0.5c0-0.1,0-0.2,0-0.3h1
			v6.4h-1.3v-4.4H742.1z"/>
		<path class="st6" d="M747.3,207.2c0.9-0.9,2.2-0.8,3.1,0c0.2,0.2,0.3,0.4,0.4,0.6c0.2,0.6,0.3,1.3,0.3,1.9c0,0.7-0.1,1.3-0.3,1.9
			c-0.3,0.9-1.1,1.5-2.1,1.5c-0.5,0-0.9-0.1-1.3-0.4c-0.4-0.3-0.6-0.7-0.7-1.2h1.2c0,0.2,0.1,0.3,0.2,0.5c0.1,0.1,0.3,0.2,0.5,0.2
			c0.4,0,0.8-0.3,0.9-0.7c0.1-0.4,0.2-0.7,0.2-1.1c-0.1,0.1-0.2,0.2-0.4,0.3c-0.3,0.1-0.6,0.2-0.9,0.2c-0.5,0-1-0.2-1.3-0.5
			c-0.4-0.4-0.6-0.9-0.6-1.5C746.7,208.3,746.9,207.7,747.3,207.2z M749.4,209.8c0.3-0.2,0.5-0.6,0.4-0.9c0-0.3-0.1-0.6-0.3-0.9
			c-0.2-0.2-0.4-0.3-0.7-0.3c-0.2,0-0.4,0.1-0.5,0.2c-0.3,0.2-0.4,0.6-0.4,1c0,0.3,0.1,0.6,0.2,0.9c0.2,0.2,0.4,0.3,0.7,0.3
			C749.1,209.9,749.3,209.9,749.4,209.8L749.4,209.8z"/>
	</g>
	<g id="Text-6">
		<path class="st6" d="M571.7,622.5c-0.3,0.3-0.5,0.6-0.8,1c-0.6,0.9-1.1,1.9-1.3,2.9c-0.1,0.5-0.2,0.9-0.2,1.4h-1.3
			c0.1-1.3,0.5-2.5,1.1-3.6c0.3-0.6,0.7-1.1,1.2-1.6h-3.2l0-1.1h4.5L571.7,622.5z"/>
		<path class="st6" d="M576.2,622.3c0.7,1.6,0.7,3.3,0,4.9c-0.7,0.9-2,1.1-3,0.4c-0.2-0.1-0.3-0.3-0.4-0.4c-0.7-1.6-0.7-3.3,0-4.9
			c0.7-0.9,2-1.1,3-0.4C575.9,621.9,576.1,622.1,576.2,622.3z M573.7,626.4c0.1,0.3,0.4,0.6,0.7,0.6c0.4,0,0.7-0.2,0.7-0.6
			c0.1-0.5,0.2-1.1,0.2-1.7c0-0.6,0-1.1-0.2-1.7c-0.1-0.3-0.4-0.6-0.7-0.6c-0.3,0-0.7,0.2-0.7,0.6c-0.1,0.6-0.2,1.1-0.2,1.7
			C573.5,625.3,573.6,625.8,573.7,626.4L573.7,626.4z"/>
		<path class="st6" d="M577.6,623.4v-0.9c0.3,0,0.6,0,0.8-0.1c0.2,0,0.4-0.2,0.6-0.3c0.1-0.1,0.2-0.3,0.2-0.5c0-0.1,0-0.2,0-0.3h1
			v6.4h-1.3v-4.4L577.6,623.4z"/>
	</g>
	<g id="Text-7">
		<path class="st6" d="M393.9,622.5c-0.3,0.3-0.5,0.6-0.8,1c-0.6,0.9-1.1,1.9-1.3,2.9c-0.1,0.5-0.2,0.9-0.2,1.4h-1.3
			c0.1-1.3,0.5-2.5,1.1-3.6c0.3-0.6,0.7-1.1,1.2-1.6h-3.2l0-1.1h4.5L393.9,622.5z"/>
		<path class="st6" d="M398.3,622.3c0.7,1.6,0.7,3.3,0,4.9c-0.7,0.9-2,1.1-3,0.4c-0.2-0.1-0.3-0.3-0.4-0.4c-0.7-1.6-0.7-3.3,0-4.9
			c0.7-0.9,2-1.1,3-0.4C398,622,398.2,622.1,398.3,622.3z M395.9,626.4c0.1,0.3,0.4,0.6,0.7,0.6c0.4,0,0.7-0.2,0.7-0.6
			c0.1-0.6,0.2-1.1,0.2-1.7c0-0.6,0-1.1-0.2-1.7c-0.1-0.3-0.4-0.6-0.7-0.6c-0.3,0-0.7,0.2-0.7,0.6c-0.1,0.6-0.2,1.1-0.2,1.7
			C395.7,625.3,395.7,625.8,395.9,626.4z"/>
		<path class="st6" d="M400.6,625.9c0,0.2,0,0.4,0.1,0.6c0.2,0.3,0.5,0.5,0.8,0.5c0.2,0,0.5-0.1,0.6-0.3c0.2-0.2,0.3-0.5,0.3-0.7
			c0-0.4-0.2-0.7-0.5-0.8c-0.3-0.1-0.6-0.1-0.9-0.1v-0.9c0.3,0,0.6,0,0.8-0.1c0.3-0.1,0.5-0.4,0.4-0.7c0-0.2-0.1-0.4-0.2-0.6
			c-0.2-0.2-0.4-0.2-0.6-0.2c-0.3,0-0.5,0.1-0.7,0.3c-0.1,0.2-0.2,0.5-0.2,0.8h-1.2c0-0.3,0.1-0.6,0.2-0.9c0.1-0.3,0.3-0.5,0.5-0.7
			c0.2-0.2,0.4-0.3,0.6-0.3c0.3-0.1,0.5-0.1,0.8-0.1c0.5,0,1.1,0.1,1.5,0.5c0.4,0.3,0.6,0.8,0.6,1.3c0,0.3-0.1,0.7-0.3,0.9
			c-0.1,0.1-0.3,0.3-0.4,0.3c0.2,0,0.4,0.1,0.5,0.3c0.3,0.3,0.5,0.8,0.5,1.2c0,0.5-0.2,1-0.6,1.4c-0.4,0.4-1,0.7-1.7,0.6
			c-0.7,0.1-1.5-0.3-1.9-0.9c-0.2-0.4-0.3-0.8-0.3-1.2L400.6,625.9z"/>
	</g>
	<g id="Text-8">
		<path class="st6" d="M395.6,534.8c-0.3,0.3-0.5,0.6-0.8,1c-0.6,0.9-1.1,1.9-1.3,2.9c-0.1,0.5-0.2,0.9-0.2,1.4H392
			c0.1-1.3,0.5-2.5,1.1-3.6c0.3-0.6,0.7-1.1,1.2-1.6h-3.2l0-1.1h4.5L395.6,534.8z"/>
		<path class="st6" d="M396.4,538.9c0.3-0.6,0.7-1,1.3-1.3c0.4-0.3,0.8-0.6,1.1-0.9c0.2-0.2,0.4-0.6,0.4-0.9c0-0.2-0.1-0.5-0.2-0.7
			c-0.4-0.4-0.9-0.4-1.3,0c0,0-0.1,0.1-0.1,0.2c-0.1,0.2-0.1,0.5-0.1,0.8h-1.2c0-0.5,0.1-0.9,0.3-1.3c0.3-0.6,1.1-1,1.8-1
			c0.6,0,1.2,0.2,1.6,0.6c0.4,0.4,0.6,0.9,0.6,1.5c0,0.5-0.1,0.9-0.4,1.3c-0.3,0.3-0.6,0.6-0.9,0.8l-0.5,0.4
			c-0.3,0.2-0.5,0.4-0.6,0.5c-0.1,0.1-0.2,0.2-0.3,0.3h2.8v1.1h-4.4C396.2,539.7,396.3,539.3,396.4,538.9z"/>
		<path class="st6" d="M402.4,538.5c0,0.2,0.1,0.5,0.3,0.6c0.2,0.2,0.4,0.2,0.6,0.2c0.3,0,0.5-0.1,0.7-0.3c0.2-0.2,0.3-0.5,0.2-0.8
			c0-0.3-0.1-0.6-0.2-0.8c-0.2-0.2-0.4-0.4-0.7-0.3c-0.1,0-0.3,0-0.4,0.1c-0.2,0.1-0.4,0.2-0.4,0.4l-1.1-0.1l0.4-3.5h3.5v1.1h-2.6
			l-0.2,1.4c0.1-0.1,0.3-0.2,0.5-0.2c0.2-0.1,0.4-0.1,0.7-0.1c1.1,0,1.9,0.8,2,1.9c0,0.1,0,0.1,0,0.2c0,0.6-0.2,1.1-0.6,1.6
			c-0.4,0.5-1.1,0.7-1.7,0.7c-0.5,0-1.1-0.2-1.5-0.5c-0.4-0.4-0.6-0.9-0.6-1.4L402.4,538.5z"/>
	</g>
	<g>
		<path class="st7" d="M670.9,343v-1h3.8v0.8c-0.3,0.3-0.6,0.7-0.9,1.3s-0.6,1.2-0.7,1.8s-0.3,1.2-0.2,1.7h-1.1
			c0-0.8,0.2-1.6,0.5-2.4s0.7-1.6,1.2-2.2H670.9z"/>
		<path class="st7" d="M675.6,347.6v-1.1h1.1v1.1H675.6z"/>
		<path class="st7" d="M681.3,346.6v1h-3.8c0-0.4,0.2-0.8,0.4-1.1s0.6-0.8,1.2-1.4c0.5-0.5,0.8-0.8,0.9-0.9c0.2-0.2,0.2-0.5,0.2-0.7
			c0-0.2-0.1-0.4-0.2-0.6s-0.3-0.2-0.5-0.2c-0.2,0-0.4,0.1-0.5,0.2s-0.2,0.4-0.2,0.7l-1.1-0.1c0.1-0.6,0.3-1,0.6-1.3
			s0.8-0.4,1.3-0.4c0.6,0,1,0.2,1.3,0.5s0.5,0.7,0.5,1.1c0,0.3,0,0.5-0.1,0.7s-0.2,0.5-0.4,0.7c-0.1,0.2-0.4,0.4-0.7,0.7
			s-0.6,0.5-0.7,0.6s-0.2,0.2-0.2,0.3H681.3z"/>
		<path class="st7" d="M684.8,347.6h-1.1v-4.1c-0.4,0.4-0.9,0.7-1.4,0.8v-1c0.3-0.1,0.6-0.3,0.9-0.5s0.6-0.6,0.7-0.9h0.9V347.6z"/>
		<path class="st7" d="M650.9,357.2v-5.7h2.4c0.6,0,1.1,0.1,1.3,0.2s0.5,0.3,0.7,0.5s0.2,0.6,0.2,0.9c0,0.4-0.1,0.8-0.4,1.1
			s-0.6,0.5-1.1,0.5c0.2,0.1,0.5,0.3,0.6,0.5s0.4,0.5,0.7,0.9l0.7,1.1h-1.4l-0.8-1.2c-0.3-0.4-0.5-0.7-0.6-0.8s-0.2-0.2-0.3-0.2
			s-0.3-0.1-0.6-0.1h-0.2v2.4H650.9z M652.1,353.9h0.9c0.6,0,0.9,0,1-0.1s0.2-0.1,0.3-0.2s0.1-0.3,0.1-0.4c0-0.2-0.1-0.3-0.2-0.5
			s-0.2-0.2-0.4-0.2c-0.1,0-0.4,0-0.8,0h-0.9V353.9z"/>
		<path class="st7" d="M659.1,355.9l1.1,0.2c-0.1,0.4-0.4,0.7-0.7,0.9s-0.7,0.3-1.1,0.3c-0.7,0-1.3-0.2-1.6-0.7
			c-0.3-0.4-0.4-0.9-0.4-1.4c0-0.7,0.2-1.2,0.5-1.6s0.8-0.6,1.4-0.6c0.6,0,1.1,0.2,1.5,0.6s0.5,1,0.5,1.9h-2.8
			c0,0.3,0.1,0.6,0.3,0.8s0.4,0.3,0.6,0.3c0.2,0,0.3,0,0.4-0.1S659,356.1,659.1,355.9z M659.1,354.8c0-0.3-0.1-0.6-0.2-0.7
			s-0.3-0.2-0.6-0.2c-0.2,0-0.4,0.1-0.6,0.3s-0.2,0.4-0.2,0.7H659.1z"/>
		<path class="st7" d="M660.7,356l1.1-0.2c0,0.2,0.1,0.4,0.3,0.5s0.3,0.2,0.6,0.2c0.3,0,0.5-0.1,0.6-0.2c0.1-0.1,0.1-0.2,0.1-0.3
			c0-0.1,0-0.2-0.1-0.2c-0.1-0.1-0.2-0.1-0.4-0.1c-0.9-0.2-1.4-0.4-1.7-0.5c-0.3-0.2-0.5-0.5-0.5-0.9c0-0.4,0.1-0.7,0.4-0.9
			s0.7-0.4,1.3-0.4c0.6,0,1,0.1,1.3,0.3s0.5,0.5,0.6,0.8l-1,0.2c0-0.2-0.1-0.3-0.3-0.4s-0.3-0.1-0.5-0.1c-0.3,0-0.5,0-0.6,0.1
			c-0.1,0.1-0.1,0.1-0.1,0.2c0,0.1,0,0.1,0.1,0.2c0.1,0.1,0.4,0.2,1,0.3s1,0.3,1.2,0.5c0.2,0.2,0.3,0.5,0.3,0.8c0,0.4-0.2,0.7-0.5,1
			s-0.8,0.4-1.4,0.4c-0.6,0-1-0.1-1.3-0.3S660.8,356.4,660.7,356z"/>
		<path class="st7" d="M667.5,353.1v0.9h-0.8v1.7c0,0.3,0,0.5,0,0.6s0,0.1,0.1,0.1s0.1,0.1,0.2,0.1c0.1,0,0.2,0,0.4-0.1l0.1,0.9
			c-0.3,0.1-0.5,0.2-0.9,0.2c-0.2,0-0.4,0-0.5-0.1s-0.3-0.2-0.3-0.3s-0.1-0.2-0.2-0.4c0-0.1,0-0.4,0-0.8v-1.8h-0.5v-0.9h0.5v-0.8
			l1.1-0.6v1.5H667.5z"/>
		<path class="st7" d="M669.1,354.3l-1-0.2c0.1-0.4,0.3-0.7,0.6-0.9s0.7-0.3,1.2-0.3c0.5,0,0.9,0.1,1.1,0.2s0.4,0.3,0.5,0.4
			s0.1,0.5,0.1,1l0,1.3c0,0.4,0,0.6,0.1,0.8s0.1,0.4,0.2,0.6h-1.1c0-0.1-0.1-0.2-0.1-0.3c0-0.1,0-0.1,0-0.1
			c-0.2,0.2-0.4,0.3-0.6,0.4s-0.4,0.1-0.7,0.1c-0.4,0-0.8-0.1-1-0.3s-0.4-0.5-0.4-0.9c0-0.2,0.1-0.4,0.2-0.6s0.3-0.3,0.5-0.4
			s0.5-0.2,0.9-0.3c0.5-0.1,0.9-0.2,1.1-0.3v-0.1c0-0.2-0.1-0.4-0.2-0.5s-0.3-0.1-0.6-0.1c-0.2,0-0.3,0-0.5,0.1
			S669.1,354.1,669.1,354.3z M670.5,355.2c-0.1,0-0.4,0.1-0.7,0.2s-0.5,0.1-0.6,0.2c-0.1,0.1-0.2,0.2-0.2,0.4c0,0.2,0.1,0.3,0.2,0.4
			s0.3,0.2,0.4,0.2c0.2,0,0.4-0.1,0.6-0.2c0.1-0.1,0.2-0.2,0.3-0.4c0-0.1,0-0.3,0-0.5V355.2z"/>
		<path class="st7" d="M675.4,357.2v-0.6c-0.2,0.2-0.3,0.4-0.6,0.5s-0.5,0.2-0.8,0.2c-0.3,0-0.5-0.1-0.8-0.2s-0.4-0.3-0.5-0.5
			s-0.1-0.5-0.1-0.9v-2.6h1.1v1.9c0,0.6,0,0.9,0.1,1.1s0.1,0.2,0.2,0.3s0.2,0.1,0.4,0.1c0.2,0,0.4-0.1,0.5-0.2s0.2-0.2,0.3-0.4
			s0.1-0.5,0.1-1.1v-1.8h1.1v4.1H675.4z"/>
		<path class="st7" d="M678.6,357.2h-1.1v-4.1h1v0.6c0.2-0.3,0.3-0.5,0.5-0.6s0.3-0.1,0.5-0.1c0.2,0,0.5,0.1,0.7,0.2l-0.3,1
			c-0.2-0.1-0.4-0.2-0.5-0.2c-0.2,0-0.3,0-0.4,0.1s-0.2,0.2-0.3,0.5s-0.1,0.7-0.1,1.4V357.2z"/>
		<path class="st7" d="M681.5,354.3l-1-0.2c0.1-0.4,0.3-0.7,0.6-0.9s0.7-0.3,1.2-0.3c0.5,0,0.9,0.1,1.1,0.2s0.4,0.3,0.5,0.4
			s0.1,0.5,0.1,1l0,1.3c0,0.4,0,0.6,0.1,0.8s0.1,0.4,0.2,0.6h-1.1c0-0.1-0.1-0.2-0.1-0.3c0-0.1,0-0.1,0-0.1
			c-0.2,0.2-0.4,0.3-0.6,0.4s-0.4,0.1-0.7,0.1c-0.4,0-0.8-0.1-1-0.3s-0.4-0.5-0.4-0.9c0-0.2,0.1-0.4,0.2-0.6s0.3-0.3,0.5-0.4
			s0.5-0.2,0.9-0.3c0.5-0.1,0.9-0.2,1.1-0.3v-0.1c0-0.2-0.1-0.4-0.2-0.5s-0.3-0.1-0.6-0.1c-0.2,0-0.3,0-0.5,0.1
			S681.6,354.1,681.5,354.3z M683,355.2c-0.1,0-0.4,0.1-0.7,0.2s-0.5,0.1-0.6,0.2c-0.1,0.1-0.2,0.2-0.2,0.4c0,0.2,0.1,0.3,0.2,0.4
			s0.3,0.2,0.4,0.2c0.2,0,0.4-0.1,0.6-0.2c0.1-0.1,0.2-0.2,0.3-0.4c0-0.1,0-0.3,0-0.5V355.2z"/>
		<path class="st7" d="M688.9,357.2h-1v-0.6c-0.2,0.2-0.4,0.4-0.6,0.5s-0.5,0.2-0.7,0.2c-0.5,0-0.9-0.2-1.2-0.6s-0.5-0.9-0.5-1.6
			c0-0.7,0.2-1.2,0.5-1.6s0.7-0.5,1.3-0.5c0.5,0,0.9,0.2,1.2,0.6v-2.1h1.1V357.2z M686,355c0,0.4,0.1,0.8,0.2,1
			c0.2,0.3,0.4,0.4,0.7,0.4c0.3,0,0.5-0.1,0.6-0.3s0.3-0.5,0.3-1c0-0.5-0.1-0.8-0.3-1s-0.4-0.3-0.7-0.3c-0.3,0-0.5,0.1-0.7,0.3
			S686,354.6,686,355z"/>
		<path class="st7" d="M689.8,355.1c0-0.4,0.1-0.7,0.3-1.1s0.4-0.6,0.8-0.8s0.7-0.3,1.1-0.3c0.6,0,1.1,0.2,1.5,0.6s0.6,0.9,0.6,1.5
			c0,0.6-0.2,1.1-0.6,1.6s-0.9,0.6-1.5,0.6c-0.4,0-0.7-0.1-1.1-0.3s-0.6-0.4-0.8-0.8S689.8,355.6,689.8,355.1z M690.9,355.1
			c0,0.4,0.1,0.7,0.3,0.9s0.4,0.3,0.7,0.3s0.5-0.1,0.7-0.3s0.3-0.5,0.3-1c0-0.4-0.1-0.7-0.3-0.9s-0.4-0.3-0.7-0.3s-0.5,0.1-0.7,0.3
			S690.9,354.7,690.9,355.1z"/>
		<path class="st7" d="M696,357.2h-1.1v-4.1h1v0.6c0.2-0.3,0.3-0.5,0.5-0.6s0.3-0.1,0.5-0.1c0.2,0,0.5,0.1,0.7,0.2l-0.3,1
			c-0.2-0.1-0.4-0.2-0.5-0.2c-0.2,0-0.3,0-0.4,0.1s-0.2,0.2-0.3,0.5s-0.1,0.7-0.1,1.4V357.2z"/>
		<path class="st7" d="M700.4,355.9l1.1,0.2c-0.1,0.4-0.4,0.7-0.7,0.9s-0.7,0.3-1.1,0.3c-0.7,0-1.3-0.2-1.6-0.7
			c-0.3-0.4-0.4-0.9-0.4-1.4c0-0.7,0.2-1.2,0.5-1.6s0.8-0.6,1.4-0.6c0.6,0,1.1,0.2,1.5,0.6s0.5,1,0.5,1.9h-2.8
			c0,0.3,0.1,0.6,0.3,0.8s0.4,0.3,0.6,0.3c0.2,0,0.3,0,0.4-0.1S700.4,356.1,700.4,355.9z M700.5,354.8c0-0.3-0.1-0.6-0.2-0.7
			s-0.3-0.2-0.6-0.2c-0.2,0-0.4,0.1-0.6,0.3s-0.2,0.4-0.2,0.7H700.5z"/>
		<path class="st7" d="M702.1,356l1.1-0.2c0,0.2,0.1,0.4,0.3,0.5s0.3,0.2,0.6,0.2c0.3,0,0.5-0.1,0.6-0.2c0.1-0.1,0.1-0.2,0.1-0.3
			c0-0.1,0-0.2-0.1-0.2c-0.1-0.1-0.2-0.1-0.4-0.1c-0.9-0.2-1.4-0.4-1.7-0.5c-0.3-0.2-0.5-0.5-0.5-0.9c0-0.4,0.1-0.7,0.4-0.9
			s0.7-0.4,1.3-0.4c0.6,0,1,0.1,1.3,0.3s0.5,0.5,0.6,0.8l-1,0.2c0-0.2-0.1-0.3-0.3-0.4s-0.3-0.1-0.5-0.1c-0.3,0-0.5,0-0.6,0.1
			c-0.1,0.1-0.1,0.1-0.1,0.2c0,0.1,0,0.1,0.1,0.2c0.1,0.1,0.4,0.2,1,0.3s1,0.3,1.2,0.5c0.2,0.2,0.3,0.5,0.3,0.8c0,0.4-0.2,0.7-0.5,1
			s-0.8,0.4-1.4,0.4c-0.6,0-1-0.1-1.3-0.3S702.2,356.4,702.1,356z"/>
	</g>
	<g>
		<path class="st7" d="M569.7,387.5v-1h3.8v0.8c-0.3,0.3-0.6,0.7-0.9,1.3s-0.6,1.2-0.7,1.8s-0.3,1.2-0.2,1.7h-1.1
			c0-0.8,0.2-1.6,0.5-2.4s0.7-1.6,1.2-2.2H569.7z"/>
		<path class="st7" d="M574.4,392.1V391h1.1v1.1H574.4z"/>
		<path class="st7" d="M580.1,391.1v1h-3.8c0-0.4,0.2-0.8,0.4-1.1s0.6-0.8,1.2-1.4c0.5-0.5,0.8-0.8,0.9-0.9c0.2-0.2,0.2-0.5,0.2-0.7
			c0-0.2-0.1-0.4-0.2-0.6s-0.3-0.2-0.5-0.2c-0.2,0-0.4,0.1-0.5,0.2s-0.2,0.4-0.2,0.7l-1.1-0.1c0.1-0.6,0.3-1,0.6-1.3
			s0.8-0.4,1.3-0.4c0.6,0,1,0.2,1.3,0.5s0.5,0.7,0.5,1.1c0,0.3,0,0.5-0.1,0.7s-0.2,0.5-0.4,0.7c-0.1,0.2-0.4,0.4-0.7,0.7
			s-0.6,0.5-0.7,0.6s-0.2,0.2-0.2,0.3H580.1z"/>
		<path class="st7" d="M584.6,391.1v1h-3.8c0-0.4,0.2-0.8,0.4-1.1s0.6-0.8,1.2-1.4c0.5-0.5,0.8-0.8,0.9-0.9c0.2-0.2,0.2-0.5,0.2-0.7
			c0-0.2-0.1-0.4-0.2-0.6s-0.3-0.2-0.5-0.2c-0.2,0-0.4,0.1-0.5,0.2s-0.2,0.4-0.2,0.7l-1.1-0.1c0.1-0.6,0.3-1,0.6-1.3
			s0.8-0.4,1.3-0.4c0.6,0,1,0.2,1.3,0.5s0.5,0.7,0.5,1.1c0,0.3,0,0.5-0.1,0.7s-0.2,0.5-0.4,0.7c-0.1,0.2-0.4,0.4-0.7,0.7
			s-0.6,0.5-0.7,0.6s-0.2,0.2-0.2,0.3H584.6z"/>
		<path class="st7" d="M564.4,401.7V396h2.4c0.6,0,1.1,0.1,1.3,0.2s0.5,0.3,0.7,0.5s0.2,0.6,0.2,0.9c0,0.4-0.1,0.8-0.4,1.1
			s-0.6,0.5-1.1,0.5c0.2,0.1,0.5,0.3,0.6,0.5s0.4,0.5,0.7,0.9l0.7,1.1h-1.4l-0.8-1.2c-0.3-0.4-0.5-0.7-0.6-0.8s-0.2-0.2-0.3-0.2
			s-0.3-0.1-0.6-0.1h-0.2v2.4H564.4z M565.6,398.4h0.9c0.6,0,0.9,0,1-0.1s0.2-0.1,0.3-0.2s0.1-0.3,0.1-0.4c0-0.2-0.1-0.3-0.2-0.5
			s-0.2-0.2-0.4-0.2c-0.1,0-0.4,0-0.8,0h-0.9V398.4z"/>
		<path class="st7" d="M569.9,399.6c0-0.4,0.1-0.7,0.3-1.1s0.4-0.6,0.8-0.8s0.7-0.3,1.1-0.3c0.6,0,1.1,0.2,1.5,0.6s0.6,0.9,0.6,1.5
			c0,0.6-0.2,1.1-0.6,1.6s-0.9,0.6-1.5,0.6c-0.4,0-0.7-0.1-1.1-0.3s-0.6-0.4-0.8-0.8S569.9,400,569.9,399.6z M571.1,399.6
			c0,0.4,0.1,0.7,0.3,0.9s0.4,0.3,0.7,0.3s0.5-0.1,0.7-0.3s0.3-0.5,0.3-1c0-0.4-0.1-0.7-0.3-0.9s-0.4-0.3-0.7-0.3s-0.5,0.1-0.7,0.3
			S571.1,399.2,571.1,399.6z"/>
		<path class="st7" d="M574.7,400.5l1.1-0.2c0,0.2,0.1,0.4,0.3,0.5s0.3,0.2,0.6,0.2c0.3,0,0.5-0.1,0.6-0.2c0.1-0.1,0.1-0.2,0.1-0.3
			c0-0.1,0-0.2-0.1-0.2c-0.1-0.1-0.2-0.1-0.4-0.1c-0.9-0.2-1.4-0.4-1.7-0.5c-0.3-0.2-0.5-0.5-0.5-0.9c0-0.4,0.1-0.7,0.4-0.9
			s0.7-0.4,1.3-0.4c0.6,0,1,0.1,1.3,0.3s0.5,0.5,0.6,0.8l-1,0.2c0-0.2-0.1-0.3-0.3-0.4s-0.3-0.1-0.5-0.1c-0.3,0-0.5,0-0.6,0.1
			c-0.1,0.1-0.1,0.1-0.1,0.2c0,0.1,0,0.1,0.1,0.2c0.1,0.1,0.4,0.2,1,0.3s1,0.3,1.2,0.5c0.2,0.2,0.3,0.5,0.3,0.8c0,0.4-0.2,0.7-0.5,1
			s-0.8,0.4-1.4,0.4c-0.6,0-1-0.1-1.3-0.3S574.8,400.9,574.7,400.5z"/>
		<path class="st7" d="M579.1,400.5l1.1-0.2c0,0.2,0.1,0.4,0.3,0.5s0.3,0.2,0.6,0.2c0.3,0,0.5-0.1,0.6-0.2c0.1-0.1,0.1-0.2,0.1-0.3
			c0-0.1,0-0.2-0.1-0.2c-0.1-0.1-0.2-0.1-0.4-0.1c-0.9-0.2-1.4-0.4-1.7-0.5c-0.3-0.2-0.5-0.5-0.5-0.9c0-0.4,0.1-0.7,0.4-0.9
			s0.7-0.4,1.3-0.4c0.6,0,1,0.1,1.3,0.3s0.5,0.5,0.6,0.8l-1,0.2c0-0.2-0.1-0.3-0.3-0.4s-0.3-0.1-0.5-0.1c-0.3,0-0.5,0-0.6,0.1
			c-0.1,0.1-0.1,0.1-0.1,0.2c0,0.1,0,0.1,0.1,0.2c0.1,0.1,0.4,0.2,1,0.3s1,0.3,1.2,0.5c0.2,0.2,0.3,0.5,0.3,0.8c0,0.4-0.2,0.7-0.5,1
			s-0.8,0.4-1.4,0.4c-0.6,0-1-0.1-1.3-0.3S579.2,400.9,579.1,400.5z"/>
		<path class="st7" d="M584,397v-1h1.1v1H584z M584,401.7v-4.1h1.1v4.1H584z"/>
		<path class="st7" d="M585.9,399.6c0-0.4,0.1-0.7,0.3-1.1s0.4-0.6,0.8-0.8s0.7-0.3,1.1-0.3c0.6,0,1.1,0.2,1.5,0.6s0.6,0.9,0.6,1.5
			c0,0.6-0.2,1.1-0.6,1.6s-0.9,0.6-1.5,0.6c-0.4,0-0.7-0.1-1.1-0.3s-0.6-0.4-0.8-0.8S585.9,400,585.9,399.6z M587.1,399.6
			c0,0.4,0.1,0.7,0.3,0.9s0.4,0.3,0.7,0.3s0.5-0.1,0.7-0.3s0.3-0.5,0.3-1c0-0.4-0.1-0.7-0.3-0.9s-0.4-0.3-0.7-0.3s-0.5,0.1-0.7,0.3
			S587.1,399.2,587.1,399.6z"/>
	</g>
	<g>
		<path class="st7" d="M626.4,229.8v-1h3.8v0.8c-0.3,0.3-0.6,0.7-0.9,1.3s-0.6,1.2-0.7,1.8s-0.3,1.2-0.2,1.7h-1.1
			c0-0.8,0.2-1.6,0.5-2.4s0.7-1.6,1.2-2.2H626.4z"/>
		<path class="st7" d="M631.1,234.4v-1.1h1.1v1.1H631.1z"/>
		<path class="st7" d="M636.8,233.4v1H633c0-0.4,0.2-0.8,0.4-1.1s0.6-0.8,1.2-1.4c0.5-0.5,0.8-0.8,0.9-0.9c0.2-0.2,0.2-0.5,0.2-0.7
			c0-0.2-0.1-0.4-0.2-0.6s-0.3-0.2-0.5-0.2c-0.2,0-0.4,0.1-0.5,0.2s-0.2,0.4-0.2,0.7l-1.1-0.1c0.1-0.6,0.3-1,0.6-1.3
			s0.8-0.4,1.3-0.4c0.6,0,1,0.2,1.3,0.5s0.5,0.7,0.5,1.1c0,0.3,0,0.5-0.1,0.7s-0.2,0.5-0.4,0.7c-0.1,0.2-0.4,0.4-0.7,0.7
			s-0.6,0.5-0.7,0.6s-0.2,0.2-0.2,0.3H636.8z"/>
		<path class="st7" d="M641.3,230.1l-1.1,0.1c0-0.2-0.1-0.4-0.2-0.5s-0.3-0.2-0.4-0.2c-0.2,0-0.4,0.1-0.6,0.3s-0.3,0.6-0.3,1.3
			c0.3-0.3,0.6-0.5,1-0.5c0.5,0,0.9,0.2,1.2,0.5s0.5,0.8,0.5,1.4c0,0.6-0.2,1.1-0.5,1.4s-0.8,0.5-1.3,0.5c-0.6,0-1.1-0.2-1.4-0.7
			s-0.6-1.2-0.6-2.2c0-1,0.2-1.8,0.6-2.3s0.9-0.7,1.5-0.7c0.4,0,0.8,0.1,1.1,0.4S641.2,229.6,641.3,230.1z M638.8,232.5
			c0,0.4,0.1,0.6,0.2,0.8s0.4,0.3,0.6,0.3c0.2,0,0.4-0.1,0.5-0.2s0.2-0.4,0.2-0.8c0-0.4-0.1-0.6-0.2-0.8s-0.3-0.3-0.5-0.3
			c-0.2,0-0.4,0.1-0.5,0.2S638.8,232.1,638.8,232.5z"/>
		<path class="st7" d="M624.6,241.9l1.1,0.4c-0.2,0.6-0.5,1.1-0.9,1.4s-0.9,0.5-1.5,0.5c-0.8,0-1.4-0.3-1.9-0.8s-0.7-1.2-0.7-2.1
			c0-1,0.2-1.7,0.7-2.2s1.1-0.8,1.9-0.8c0.7,0,1.3,0.2,1.7,0.6c0.3,0.2,0.5,0.6,0.6,1.1l-1.1,0.3c-0.1-0.3-0.2-0.5-0.4-0.7
			s-0.5-0.3-0.8-0.3c-0.4,0-0.8,0.2-1,0.5s-0.4,0.8-0.4,1.5c0,0.7,0.1,1.2,0.4,1.5s0.6,0.5,1,0.5c0.3,0,0.6-0.1,0.8-0.3
			S624.5,242.3,624.6,241.9z"/>
		<path class="st7" d="M627.5,241.1l-1-0.2c0.1-0.4,0.3-0.7,0.6-0.9s0.7-0.3,1.2-0.3c0.5,0,0.9,0.1,1.1,0.2s0.4,0.3,0.5,0.4
			s0.1,0.5,0.1,1l0,1.3c0,0.4,0,0.6,0.1,0.8s0.1,0.4,0.2,0.6h-1.1c0-0.1-0.1-0.2-0.1-0.3c0-0.1,0-0.1,0-0.1
			c-0.2,0.2-0.4,0.3-0.6,0.4s-0.4,0.1-0.7,0.1c-0.4,0-0.8-0.1-1-0.3s-0.4-0.5-0.4-0.9c0-0.2,0.1-0.4,0.2-0.6s0.3-0.3,0.5-0.4
			s0.5-0.2,0.9-0.3c0.5-0.1,0.9-0.2,1.1-0.3v-0.1c0-0.2-0.1-0.4-0.2-0.5s-0.3-0.1-0.6-0.1c-0.2,0-0.3,0-0.5,0.1
			S627.6,240.9,627.5,241.1z M629,242c-0.1,0-0.4,0.1-0.7,0.2s-0.5,0.1-0.6,0.2c-0.1,0.1-0.2,0.2-0.2,0.4c0,0.2,0.1,0.3,0.2,0.4
			s0.3,0.2,0.4,0.2c0.2,0,0.4-0.1,0.6-0.2c0.1-0.1,0.2-0.2,0.3-0.4c0-0.1,0-0.3,0-0.5V242z"/>
		<path class="st7" d="M631,239.8h1v0.6c0.4-0.4,0.8-0.7,1.3-0.7c0.3,0,0.5,0.1,0.7,0.2s0.4,0.3,0.5,0.5c0.2-0.2,0.4-0.4,0.6-0.5
			s0.4-0.2,0.7-0.2c0.3,0,0.6,0.1,0.8,0.2s0.4,0.3,0.5,0.5c0.1,0.2,0.1,0.5,0.1,0.9v2.7H636v-2.4c0-0.4,0-0.7-0.1-0.8
			c-0.1-0.2-0.3-0.2-0.5-0.2c-0.2,0-0.3,0-0.4,0.1s-0.2,0.2-0.3,0.4s-0.1,0.5-0.1,0.9v2h-1.1v-2.3c0-0.4,0-0.7-0.1-0.8
			s-0.1-0.2-0.2-0.3s-0.2-0.1-0.3-0.1c-0.2,0-0.3,0-0.5,0.1s-0.2,0.2-0.3,0.4s-0.1,0.5-0.1,0.9v2H631V239.8z"/>
		<path class="st7" d="M638.2,239.8h1v0.6c0.1-0.2,0.3-0.4,0.5-0.5s0.5-0.2,0.8-0.2c0.5,0,0.9,0.2,1.2,0.6s0.5,0.9,0.5,1.6
			c0,0.7-0.2,1.2-0.5,1.6s-0.7,0.6-1.2,0.6c-0.2,0-0.4,0-0.6-0.1s-0.4-0.2-0.6-0.5v2.1h-1.1V239.8z M639.3,241.8
			c0,0.5,0.1,0.8,0.3,1s0.4,0.3,0.7,0.3c0.3,0,0.5-0.1,0.6-0.3s0.3-0.5,0.3-1c0-0.4-0.1-0.8-0.3-1s-0.4-0.3-0.6-0.3
			c-0.3,0-0.5,0.1-0.7,0.3S639.3,241.4,639.3,241.8z"/>
		<path class="st7" d="M642.9,241.9c0-0.4,0.1-0.7,0.3-1.1s0.4-0.6,0.8-0.8s0.7-0.3,1.1-0.3c0.6,0,1.1,0.2,1.5,0.6s0.6,0.9,0.6,1.5
			c0,0.6-0.2,1.1-0.6,1.6s-0.9,0.6-1.5,0.6c-0.4,0-0.7-0.1-1.1-0.3s-0.6-0.4-0.8-0.8S642.9,242.3,642.9,241.9z M644,241.9
			c0,0.4,0.1,0.7,0.3,0.9s0.4,0.3,0.7,0.3s0.5-0.1,0.7-0.3s0.3-0.5,0.3-1c0-0.4-0.1-0.7-0.3-0.9s-0.4-0.3-0.7-0.3s-0.5,0.1-0.7,0.3
			S644,241.5,644,241.9z"/>
		<path class="st7" d="M623.1,251.5v-1h2.5v2.3c-0.2,0.2-0.6,0.4-1.1,0.6s-0.9,0.3-1.4,0.3c-0.6,0-1.1-0.1-1.6-0.4s-0.8-0.6-1-1.1
			s-0.3-1-0.3-1.5c0-0.6,0.1-1.1,0.4-1.6s0.6-0.8,1.1-1.1c0.4-0.2,0.8-0.3,1.4-0.3c0.7,0,1.3,0.1,1.7,0.4s0.7,0.7,0.8,1.2l-1.1,0.2
			c-0.1-0.3-0.2-0.5-0.5-0.7s-0.5-0.2-0.8-0.2c-0.5,0-0.9,0.2-1.2,0.5s-0.4,0.8-0.4,1.4c0,0.7,0.2,1.2,0.5,1.5s0.7,0.5,1.2,0.5
			c0.2,0,0.5,0,0.7-0.1s0.5-0.2,0.6-0.3v-0.7H623.1z"/>
		<path class="st7" d="M627.7,253.6h-1.1v-4.1h1v0.6c0.2-0.3,0.3-0.5,0.5-0.6s0.3-0.1,0.5-0.1c0.2,0,0.5,0.1,0.7,0.2l-0.3,1
			c-0.2-0.1-0.4-0.2-0.5-0.2c-0.2,0-0.3,0-0.4,0.1s-0.2,0.2-0.3,0.5s-0.1,0.7-0.1,1.4V253.6z"/>
		<path class="st7" d="M630.6,250.7l-1-0.2c0.1-0.4,0.3-0.7,0.6-0.9s0.7-0.3,1.2-0.3c0.5,0,0.9,0.1,1.1,0.2s0.4,0.3,0.5,0.4
			s0.1,0.5,0.1,1l0,1.3c0,0.4,0,0.6,0.1,0.8s0.1,0.4,0.2,0.6h-1.1c0-0.1-0.1-0.2-0.1-0.3c0-0.1,0-0.1,0-0.1
			c-0.2,0.2-0.4,0.3-0.6,0.4s-0.4,0.1-0.7,0.1c-0.4,0-0.8-0.1-1-0.3s-0.4-0.5-0.4-0.9c0-0.2,0.1-0.4,0.2-0.6s0.3-0.3,0.5-0.4
			s0.5-0.2,0.9-0.3c0.5-0.1,0.9-0.2,1.1-0.3v-0.1c0-0.2-0.1-0.4-0.2-0.5s-0.3-0.1-0.6-0.1c-0.2,0-0.3,0-0.5,0.1
			S630.7,250.5,630.6,250.7z M632.1,251.6c-0.1,0-0.4,0.1-0.7,0.2s-0.5,0.1-0.6,0.2c-0.1,0.1-0.2,0.2-0.2,0.4c0,0.2,0.1,0.3,0.2,0.4
			s0.3,0.2,0.4,0.2c0.2,0,0.4-0.1,0.6-0.2c0.1-0.1,0.2-0.2,0.3-0.4c0-0.1,0-0.3,0-0.5V251.6z"/>
		<path class="st7" d="M638,253.6h-1.1v-2.1c0-0.4,0-0.7-0.1-0.9s-0.1-0.2-0.2-0.3s-0.2-0.1-0.4-0.1c-0.2,0-0.4,0.1-0.5,0.2
			s-0.3,0.2-0.3,0.4s-0.1,0.5-0.1,1v1.9h-1.1v-4.1h1v0.6c0.4-0.5,0.8-0.7,1.4-0.7c0.2,0,0.5,0,0.7,0.1s0.4,0.2,0.5,0.3
			s0.2,0.3,0.2,0.5s0.1,0.4,0.1,0.7V253.6z"/>
		<path class="st7" d="M642.9,253.6h-1V253c-0.2,0.2-0.4,0.4-0.6,0.5s-0.5,0.2-0.7,0.2c-0.5,0-0.9-0.2-1.2-0.6s-0.5-0.9-0.5-1.6
			c0-0.7,0.2-1.2,0.5-1.6s0.7-0.5,1.3-0.5c0.5,0,0.9,0.2,1.2,0.6v-2.1h1.1V253.6z M640,251.4c0,0.4,0.1,0.8,0.2,1
			c0.2,0.3,0.4,0.4,0.7,0.4c0.3,0,0.5-0.1,0.6-0.3s0.3-0.5,0.3-1c0-0.5-0.1-0.8-0.3-1s-0.4-0.3-0.7-0.3c-0.3,0-0.5,0.1-0.7,0.3
			S640,251,640,251.4z"/>
		<path class="st7" d="M646.4,252.3l1.1,0.2c-0.1,0.4-0.4,0.7-0.7,0.9s-0.7,0.3-1.1,0.3c-0.7,0-1.3-0.2-1.6-0.7
			c-0.3-0.4-0.4-0.9-0.4-1.4c0-0.7,0.2-1.2,0.5-1.6s0.8-0.6,1.4-0.6c0.6,0,1.1,0.2,1.5,0.6s0.5,1,0.5,1.9h-2.8
			c0,0.3,0.1,0.6,0.3,0.8s0.4,0.3,0.6,0.3c0.2,0,0.3,0,0.4-0.1S646.3,252.5,646.4,252.3z M646.5,251.2c0-0.3-0.1-0.6-0.2-0.7
			s-0.3-0.2-0.6-0.2c-0.2,0-0.4,0.1-0.6,0.3s-0.2,0.4-0.2,0.7H646.5z"/>
	</g>
</g>
<g id="Furniture">
	<path class="st8" d="M664.3,131.5l4.1-8l17.5,8.9l-4.1,8c-0.1,0.3-0.6,0.4-1.2,0.1l0,0l-15.7-8c-0.3-0.1-0.8-0.4-0.8-0.7l0,0l0-0.1
		L664.3,131.5z"/>
	
		<rect x="675.1" y="119.5" transform="matrix(0.4541 -0.891 0.891 0.4541 254.1033 673.4402)" class="st9" width="3" height="19.7"/>
	<path class="st8" d="M682,140.5l4.1-8l17.5,8.9l-4.1,8c-0.1,0.3-0.6,0.4-1.2,0.1l0,0l-15.7-8c-0.3-0.1-0.8-0.4-0.8-0.7l0,0l0-0.1
		L682,140.5z"/>
	
		<rect x="692.6" y="128.5" transform="matrix(0.4541 -0.891 0.891 0.4541 255.7133 693.9395)" class="st9" width="3" height="19.7"/>
	<rect x="675" y="119.4" transform="matrix(0.4541 -0.891 0.891 0.4541 254.0895 673.2617)" class="st10" width="3" height="19.7"/>
	
		<rect x="692.6" y="128.5" transform="matrix(0.4541 -0.891 0.891 0.4541 255.7133 693.9395)" class="st10" width="3" height="19.7"/>
	
		<rect x="656.5" y="119.6" transform="matrix(0.4541 -0.891 0.891 0.4541 249.4447 657.4852)" class="st11" width="9.5" height="11.1"/>
	
		<rect x="699.6" y="143.8" transform="matrix(0.4541 -0.891 0.891 0.4541 253.5854 707.5564)" class="st11" width="9.1" height="6"/>
	<path class="st8" d="M636.2,203.6l4.1-8l16.6,8.4l-4.1,8c-0.1,0.3-0.6,0.4-1.1,0.1l0,0l-14.8-7.6c-0.4-0.1-0.7-0.3-0.7-0.7l0,0
		l0-0.1L636.2,203.6z"/>
	<rect x="646.5" y="191.9" transform="matrix(0.4541 -0.891 0.891 0.4541 174.487 687.218)" class="st9" width="3" height="18.6"/>
	<path class="st8" d="M652.9,212.1l4.1-8l16.6,8.4l-4.1,8c-0.1,0.3-0.6,0.4-1.1,0.1l0,0l-14.8-7.6c-0.4-0.1-0.7-0.3-0.7-0.7l0,0
		l0-0.1L652.9,212.1z"/>
	<rect x="663.1" y="200.4" transform="matrix(0.4541 -0.891 0.891 0.4541 176.009 706.5925)" class="st9" width="3" height="18.6"/>
	
		<rect x="646.4" y="191.8" transform="matrix(0.4541 -0.891 0.891 0.4541 174.4745 687.0499)" class="st10" width="3" height="18.6"/>
	
		<rect x="663.1" y="200.4" transform="matrix(0.4541 -0.891 0.891 0.4541 176.009 706.5925)" class="st10" width="3" height="18.6"/>
	
		<rect x="628.7" y="192.2" transform="matrix(0.4541 -0.891 0.891 0.4541 169.8981 672.1537)" class="st11" width="9.5" height="10.5"/>
	
		<rect x="669.5" y="215.1" transform="matrix(0.4541 -0.891 0.891 0.4541 173.8231 719.4756)" class="st11" width="9.1" height="5.7"/>
	<circle class="st6" cx="668.7" cy="215.2" r="4.6"/>
</g>
<g id="Outline">
	<path class="st12" d="M41.1,411.4h167.4v-22h43v22h11.7v-7h71.7v8.7h99.7v24.7h13.7c0,0,11-37.3,23.3-76.3l12.3-39l-21-7.3l15-43
		l22.7,8l4.7-12.7l-10-3.7l31.7-74.3l5.7,2c0,0,22-45.7,52.3-105.3s44-80.7,44-80.7l200.7,120c0,0-90.9,145.6-137.4,300.1
		S639.6,664,639.6,664H41.1"/>
	<polyline class="st12" points="4,667.4 4,519.4 26.5,519.4 26.5,476.4 4,476.4 4,407.7 	"/>
	<polyline class="st13" points="208.5,411.4 208.5,466.7 233.2,466.7 	"/>
	<polyline class="st13" points="247.2,466.7 257.5,466.7 251.2,466.7 251.2,411.4 	"/>
	<polyline class="st13" points="208.5,424.4 61,424.4 61,411.4 42.5,411.4 42.5,433.9 4,433.9 	"/>
	<path class="st13" d="M169.2,424.4"/>
	<polyline class="st13" points="193.3,466.7 131.8,466.7 132.8,466.7 132.8,474.9 132.8,466.7 131.8,466.7 131.8,424.4 169.2,424.4 
			"/>
	<line class="st13" x1="206.3" y1="466.7" x2="208.5" y2="466.7"/>
	<line class="st13" x1="133.2" y1="485.4" x2="133.2" y2="490.2"/>
	<polyline class="st13" points="156.5,572.1 187.7,572.1 187.7,490.2 133.2,490.2 133.2,572.1 156.5,572.1 133.2,572.1 	"/>
	<path class="st13" d="M51,548.4"/>
	<path class="st13" d="M4,548.4"/>
	<polyline class="st13" points="133,586.4 133,594.7 164.8,594.7 	"/>
	<polyline class="st13" points="179,594.7 209.2,594.7 209.2,591.7 209.2,664 209.2,655.4 60.8,655.4 60.8,664 42.5,664 42.5,653.9 
		4,653.9 	"/>
	<polyline class="st13" points="243.5,499.7 243.5,490.2 209.2,490.2 209.2,581.9 209.2,577.7 243.5,577.7 243.5,569.4 243.5,577.7 
		209.2,577.7 209.2,543.7 243.5,543.7 243.5,536 243.5,552.4 243.5,543.7 209.2,543.7 209.2,517.9 243.5,517.9 243.5,511.7 
		243.5,523.9 	"/>
	<polyline class="st13" points="272.2,466.7 335.8,466.7 333,466.7 333,404.4 	"/>
	<rect x="276.5" y="490.2" class="st13" width="20.5" height="88.8"/>
	<polyline class="st13" points="283.8,664 283.8,578.9 209.2,578.9 	"/>
	<path class="st13" d="M297,490.2c8.7,0,17.4,0.4,26,1.2l16.2,1.5"/>
	<polyline class="st13" points="351.8,494.4 361.2,495.7 361.2,573.7 361.2,568.2 297,568.2 435.2,568.2 435.2,510.7 	"/>
	<line class="st13" x1="372.5" y1="497.2" x2="361.2" y2="495.7"/>
	<path class="st13" d="M387,499.2c0,0,47.5,6.5,82.2,23.2c34.8,16.8,50,32.5,50,32.5"/>
	<polyline class="st13" points="361.2,583.7 361.2,587.4 358,587.4 358,664 358,587.4 391.2,587.4 	"/>
	<line class="st13" x1="403.5" y1="587.2" x2="468.5" y2="587.2"/>
	<polyline class="st13" points="481,587.2 548,587.2 512.2,587.2 512.2,664 	"/>
	<polyline class="st13" points="561.2,587.2 571.2,587.2 568.2,601.4 574.5,571.2 	"/>
	<line class="st13" x1="577.2" y1="558.2" x2="592.8" y2="494.4"/>
	<polyline class="st13" points="596.2,480.9 605.5,448.4 605.5,448.4 679.1,470.4 	"/>
	<line class="st13" x1="584.8" y1="527" x2="660.1" y2="545.8"/>
	<line class="st13" x1="645.9" y1="616.8" x2="566.2" y2="600.9"/>
	<polyline class="st13" points="209.2,655.4 587.5,655.4 587.5,651.4 587.5,664 	"/>
	<line class="st13" x1="435.2" y1="587.2" x2="435.2" y2="664"/>
	<polyline class="st13" points="355,466.7 392.8,466.7 360.4,466.7 360.4,413.1 	"/>
	<polyline class="st13" points="333,424.9 435.2,424.9 406,424.9 406,411.4 406,466.7 403.8,466.7 408.5,466.7 	"/>
	<polyline class="st13" points="420.5,466.7 435.2,466.7 435.2,437.7 	"/>
	<path class="st13" d="M491.9,503.6c-9.9-2.4-20.3-9.7-28.3-20.7c-13.6-18.9-14.5-41.6-1.8-50.7s33.9-1.1,47.5,17.8
		c7.7,10.7,11.3,22.7,10.7,32.7"/>
	<path class="st13" d="M700.6,398.8l-139.1-49.7c0,0-5.6,20.6-7.7,29.1"/>
	<polyline class="st13" points="550.3,393.4 542,437.7 586.5,450.9 613.8,367.8 	"/>
	<polyline class="st13" points="460,398.3 514.2,415.4 523.4,385.1 	"/>
	<polyline class="st13" points="527.3,373.4 530.8,362.9 528.7,369.4 474.6,351.6 	"/>
	<polyline class="st13" points="483.8,322.4 538.2,340.7 535.5,349.2 546,317.7 	"/>
	<polyline class="st13" points="551,303.4 554.5,294.7 552.3,300.1 500.5,280.1 	"/>
	<polyline class="st13" points="559.8,280.1 587.8,212.9 586.2,216.5 527.5,191.7 	"/>
	<polyline class="st13" points="591.8,202.9 615,154.2 600.9,183.8 549.3,157 	"/>
	<polyline class="st13" points="621,141.4 626,131.4 623.5,136.4 572.2,111 	"/>
	<polyline class="st13" points="587.8,80.4 646.2,111 638.5,107 631.1,120.7 	"/>
	<polyline class="st13" points="657.8,117.8 709.6,144.8 747.6,76.4 707.8,148.3 713,150.9 	"/>
	<polyline class="st13" points="722.6,155.7 791.9,191.5 731.1,160 716.2,188.9 	"/>
	<polyline class="st13" points="710.5,200.2 696.2,228.9 688.5,224.7 757.1,260.3 	"/>
	<polygon class="st13" points="593.2,256.7 585.5,277.2 663.5,308.7 671.5,289.4 	"/>
	<line class="st13" x1="728.6" y1="324.3" x2="667" y2="300.2"/>
	<polyline class="st13" points="679.5,220.2 676.4,218.8 649.4,280.1 674.2,223.7 624.9,200.2 629.5,193 623.1,202.9 	"/>
	<path class="st13" d="M617.5,212c0,0-8.6,17-15.1,30.2s-7.4,15.1-7.4,15.1"/>
	<polyline class="st13" points="582.2,316.6 574.3,313.5 561.5,349.2 	"/>
	<polyline class="st13" points="594.2,321.2 605.5,325.2 599.8,323.2 587.8,358.5 	"/>
	<polyline class="st13" points="616.8,329.2 631.8,334.7 624.3,332 611.7,367.1 	"/>
	<polyline class="st13" points="643,338.4 650.5,341.2 638.1,376.5 	"/>
	<path class="st13" d="M638.5,13.7c0,0-21.3,37-42,77.7S560.9,163,560.9,163"/>
	<line class="st13" x1="663.5" y1="308.7" x2="660.2" y2="316.6"/>
	<line class="st13" x1="653.8" y1="333.4" x2="650.5" y2="341.2"/>
	<line class="st13" x1="42.5" y1="424.4" x2="61" y2="424.4"/>
	<line class="st13" x1="133.2" y1="572.1" x2="133.2" y2="574.4"/>
	<line class="st13" x1="133" y1="594.7" x2="133" y2="655.4"/>
	<line class="st13" x1="586.5" y1="450.9" x2="590" y2="452.2"/>
	<line class="st13" x1="601" y1="455.7" x2="603.2" y2="456.5"/>
	<line class="st13" x1="187.7" y1="466.7" x2="187.7" y2="474.9"/>
	<line class="st13" x1="187.7" y1="486.2" x2="187.7" y2="490.2"/>
</g>
<g id="Signages">
	<circle class="st14" cx="230.2" cy="427" r="10.2"/>
	<g>
		<path class="st15" d="M221.4,444.9v-4.1h2.9v0.5h-2.4v1.2h2.3v0.5h-2.3v1.4h2.5v0.5L221.4,444.9z"/>
		<path class="st15" d="M224.9,444l0.5-0.1c0,0.2,0.1,0.3,0.2,0.5c0.2,0.1,0.3,0.2,0.5,0.2c0.2,0,0.4,0,0.5-0.1
			c0.1-0.1,0.2-0.2,0.2-0.3c0-0.1-0.1-0.2-0.1-0.3c-0.2-0.1-0.3-0.1-0.5-0.2c-0.3-0.1-0.5-0.1-0.8-0.2c-0.1-0.1-0.2-0.2-0.3-0.3
			c-0.1-0.1-0.1-0.3-0.1-0.4c0-0.1,0-0.3,0.1-0.4c0.1-0.1,0.1-0.2,0.2-0.3c0.1-0.1,0.2-0.1,0.3-0.1c0.1,0,0.3-0.1,0.4-0.1
			c0.2,0,0.4,0,0.6,0.1c0.2,0.1,0.3,0.1,0.4,0.3c0.1,0.1,0.2,0.3,0.2,0.5l-0.5,0.1c0-0.1-0.1-0.3-0.2-0.4c-0.1-0.1-0.3-0.1-0.5-0.1
			c-0.2,0-0.3,0-0.5,0.1c-0.1,0.1-0.1,0.2-0.1,0.3c0,0.1,0,0.1,0.1,0.2c0.1,0.1,0.1,0.1,0.2,0.1c0,0,0.2,0.1,0.4,0.1
			c0.3,0.1,0.5,0.1,0.7,0.2c0.1,0.1,0.2,0.1,0.3,0.3c0.1,0.1,0.1,0.3,0.1,0.4c0,0.2-0.1,0.3-0.1,0.5c-0.1,0.2-0.3,0.3-0.4,0.3
			c-0.2,0.1-0.4,0.1-0.6,0.1c-0.3,0-0.6-0.1-0.9-0.2C225.1,444.6,224.9,444.3,224.9,444z"/>
		<path class="st15" d="M229.9,443.8l0.5,0.1c0,0.3-0.2,0.6-0.4,0.8c-0.2,0.2-0.5,0.3-0.8,0.3c-0.4,0-0.7-0.1-1-0.4
			c-0.3-0.3-0.4-0.7-0.4-1.1c0-0.3,0-0.6,0.2-0.8c0.1-0.2,0.3-0.4,0.5-0.5c0.2-0.1,0.5-0.2,0.7-0.2c0.3,0,0.6,0.1,0.8,0.2
			c0.2,0.2,0.4,0.4,0.4,0.7l-0.5,0.1c0-0.2-0.1-0.3-0.2-0.4c-0.1-0.1-0.3-0.2-0.4-0.2c-0.2,0-0.5,0.1-0.6,0.3
			c-0.2,0.2-0.3,0.6-0.2,0.9c0,0.3,0.1,0.6,0.2,0.9c0.1,0.2,0.4,0.3,0.6,0.3c0.2,0,0.4-0.1,0.5-0.2
			C229.8,444.2,229.9,444,229.9,443.8z"/>
		<path class="st15" d="M232.7,444.5c-0.2,0.1-0.3,0.3-0.5,0.3c-0.2,0.1-0.4,0.1-0.6,0.1c-0.3,0-0.5-0.1-0.7-0.2
			c-0.2-0.2-0.3-0.4-0.3-0.6c0-0.1,0-0.3,0.1-0.4c0.1-0.1,0.2-0.2,0.3-0.3c0.1-0.1,0.2-0.1,0.4-0.2c0.1,0,0.3-0.1,0.4-0.1
			c0.3,0,0.6-0.1,0.9-0.2c0-0.1,0-0.1,0-0.1c0-0.2,0-0.3-0.1-0.4c-0.2-0.1-0.4-0.2-0.6-0.2c-0.2,0-0.4,0-0.5,0.1
			c-0.1,0.1-0.2,0.3-0.2,0.4l-0.5-0.1c0-0.2,0.1-0.4,0.2-0.5c0.1-0.1,0.3-0.2,0.4-0.3c0.2-0.1,0.4-0.1,0.7-0.1c0.2,0,0.4,0,0.6,0.1
			c0.1,0,0.3,0.1,0.3,0.2c0.1,0.1,0.1,0.2,0.2,0.3c0,0.2,0,0.3,0,0.5v0.7c0,0.3,0,0.6,0,0.9c0,0.1,0.1,0.2,0.1,0.4h-0.5
			C232.8,444.8,232.7,444.7,232.7,444.5z M232.7,443.4c-0.3,0.1-0.5,0.2-0.8,0.2c-0.1,0-0.3,0-0.4,0.1c-0.1,0-0.2,0.1-0.2,0.2
			c-0.1,0.2-0.1,0.4,0.1,0.6c0.1,0.1,0.3,0.1,0.4,0.1c0.2,0,0.4,0,0.5-0.1c0.1-0.1,0.3-0.2,0.3-0.3c0.1-0.2,0.1-0.3,0.1-0.5
			L232.7,443.4z"/>
		<path class="st15" d="M235.9,444.9v-0.4c-0.2,0.3-0.5,0.5-0.8,0.4c-0.2,0-0.5-0.1-0.6-0.2c-0.2-0.1-0.4-0.3-0.5-0.5
			c-0.1-0.3-0.2-0.5-0.2-0.8c0-0.3,0-0.5,0.1-0.8c0.1-0.2,0.2-0.4,0.4-0.6c0.2-0.1,0.4-0.2,0.7-0.2c0.2,0,0.3,0,0.5,0.1
			c0.1,0.1,0.2,0.2,0.3,0.3v-1.5h0.5v4.1L235.9,444.9z M234.3,443.4c0,0.3,0.1,0.6,0.2,0.8c0.1,0.2,0.3,0.3,0.6,0.3
			c0.2,0,0.4-0.1,0.6-0.3c0.2-0.2,0.3-0.5,0.2-0.8c0-0.3-0.1-0.6-0.2-0.9c-0.1-0.2-0.4-0.3-0.6-0.3c-0.2,0-0.4,0.1-0.6,0.3
			C234.3,442.8,234.3,443.1,234.3,443.4z"/>
		<path class="st15" d="M239,444.5c-0.2,0.1-0.3,0.3-0.5,0.3c-0.2,0.1-0.4,0.1-0.6,0.1c-0.3,0-0.5-0.1-0.7-0.2
			c-0.2-0.2-0.3-0.4-0.3-0.6c0-0.1,0-0.3,0.1-0.4c0.1-0.1,0.2-0.2,0.3-0.3c0.1-0.1,0.2-0.1,0.4-0.2c0.1,0,0.3-0.1,0.4-0.1
			c0.3,0,0.6-0.1,0.9-0.2c0-0.1,0-0.1,0-0.1c0-0.2,0-0.3-0.1-0.4c-0.2-0.1-0.4-0.2-0.6-0.2c-0.2,0-0.4,0-0.5,0.1
			c-0.1,0.1-0.2,0.3-0.2,0.4l-0.5-0.1c0-0.2,0.1-0.4,0.2-0.5c0.1-0.1,0.3-0.2,0.4-0.3c0.2-0.1,0.4-0.1,0.7-0.1c0.2,0,0.4,0,0.6,0.1
			c0.1,0,0.3,0.1,0.3,0.2c0.1,0.1,0.1,0.2,0.2,0.3c0,0.2,0,0.3,0,0.5v0.7c0,0.3,0,0.6,0,0.9c0,0.1,0.1,0.2,0.1,0.4h-0.5
			C239.1,444.8,239.1,444.7,239,444.5z M239,443.4c-0.3,0.1-0.5,0.2-0.8,0.2c-0.1,0-0.3,0-0.4,0.1c-0.1,0-0.2,0.1-0.2,0.2
			c-0.1,0.2-0.1,0.4,0.1,0.6c0.1,0.1,0.3,0.1,0.4,0.1c0.2,0,0.4,0,0.5-0.1c0.1-0.1,0.3-0.2,0.3-0.3c0.1-0.2,0.1-0.3,0.1-0.5
			L239,443.4z"/>
	</g>
	<g id="Outline_Icons-2-2-4-2-2-2-3">
		<line class="st16" x1="226.3" y1="430.4" x2="233.4" y2="430.4"/>
		<polyline class="st16" points="232.2,430.4 232.2,429.2 230.9,429.2 230.9,427.9 229.7,427.9 229.7,426.7 228.4,426.7 
			228.4,425.4 226.3,425.4 		"/>
		<line class="st16" x1="230" y1="423.3" x2="233.9" y2="427.1"/>
		<polyline class="st16" points="230,424.8 230,423.3 231.6,423.3 		"/>
		<polyline class="st16" points="233.9,425.6 233.9,427.1 232.4,427.1 		"/>
	</g>
	<circle class="st14" cx="293.1" cy="434.5" r="10.2"/>
	<g id="Outline_Icons-5-3">
		<path class="st16" d="M296.8,434.8c0,0.1-0.1,0.3-0.2,0.3h-2v-4.2c0-0.4,0.3-0.8,0.8-0.8c0,0,0,0,0,0h0.8c0.4,0,0.8,0.3,0.8,0.8
			c0,0,0,0,0,0l0,0L296.8,434.8L296.8,434.8z"/>
		<path class="st16" d="M291.4,439h3.9v-2.3l1.1-0.8v-0.8h-6.6c-0.1,1,0.7,1.9,1.7,1.9c0,0,0,0,0.1,0h0.1L291.4,439z"/>
		<rect x="289.5" y="434.4" class="st16" width="5" height="0.8"/>
		<circle class="st16" cx="295.9" cy="431.5" r="0.3"/>
	</g>
	<g>
		<path class="st15" d="M286.7,452.5v-3.6h-1.3v-0.5h3.2v0.5h-1.4v3.6H286.7z"/>
		<path class="st15" d="M288.3,451c0-0.5,0.1-0.9,0.5-1.2c0.3-0.2,0.6-0.3,0.9-0.3c0.4,0,0.7,0.1,1,0.4c0.3,0.3,0.4,0.7,0.4,1.1
			c0,0.3,0,0.6-0.2,0.9c-0.1,0.2-0.3,0.4-0.5,0.5c-0.2,0.1-0.5,0.2-0.7,0.2c-0.4,0-0.7-0.1-1-0.4C288.4,451.8,288.3,451.4,288.3,451
			z M288.8,451c0,0.3,0.1,0.6,0.2,0.8c0.3,0.3,0.8,0.4,1.2,0.1c0,0,0.1-0.1,0.1-0.1c0.2-0.2,0.3-0.6,0.2-0.9c0-0.3-0.1-0.6-0.2-0.8
			c-0.3-0.3-0.8-0.4-1.2-0.1c0,0-0.1,0.1-0.1,0.1C288.9,450.4,288.8,450.7,288.8,451z"/>
		<path class="st15" d="M291.7,449v-0.6h0.5v0.6H291.7z M291.7,452.5v-3h0.5v3L291.7,452.5z"/>
		<path class="st15" d="M292.9,452.5v-4.1h0.5v4.1H292.9z"/>
		<path class="st15" d="M296.2,451.5l0.5,0.1c-0.1,0.3-0.2,0.5-0.5,0.7c-0.6,0.4-1.4,0.3-1.9-0.1c-0.3-0.3-0.4-0.7-0.4-1.1
			c0-0.4,0.1-0.8,0.4-1.2c0.3-0.3,0.6-0.4,1-0.4c0.4,0,0.7,0.1,1,0.4c0.3,0.3,0.4,0.7,0.4,1.1c0,0,0,0.1,0,0.1h-2.2
			c0,0.3,0.1,0.5,0.3,0.7c0.2,0.2,0.4,0.3,0.6,0.3c0.2,0,0.3,0,0.5-0.1C296,451.8,296.2,451.7,296.2,451.5z M294.6,450.7h1.6
			c0-0.2-0.1-0.4-0.2-0.6c-0.2-0.2-0.4-0.3-0.6-0.3c-0.2,0-0.4,0.1-0.6,0.2C294.7,450.2,294.6,450.5,294.6,450.7L294.6,450.7z"/>
		<path class="st15" d="M298.4,452l0.1,0.4c-0.1,0-0.3,0-0.4,0c-0.1,0-0.3,0-0.4-0.1c-0.1-0.1-0.2-0.1-0.2-0.2
			c-0.1-0.2-0.1-0.4-0.1-0.6v-1.7h-0.4v-0.4h0.4v-0.7l0.5-0.3v1h0.5v0.4h-0.5v1.7c0,0.1,0,0.2,0,0.3c0,0,0,0.1,0.1,0.1
			c0.1,0,0.1,0,0.2,0C298.3,452,298.4,452,298.4,452z"/>
		<path class="st15" d="M298.7,451.6l0.5-0.1c0,0.2,0.1,0.3,0.2,0.5c0.2,0.1,0.3,0.2,0.5,0.2c0.2,0,0.4,0,0.5-0.1
			c0.1-0.1,0.2-0.2,0.2-0.3c0-0.1-0.1-0.2-0.1-0.3c-0.2-0.1-0.3-0.1-0.5-0.2c-0.3-0.1-0.5-0.1-0.8-0.2c-0.1-0.1-0.2-0.2-0.3-0.3
			c-0.1-0.1-0.1-0.3-0.1-0.4c0-0.1,0-0.3,0.1-0.4c0.1-0.1,0.1-0.2,0.2-0.3c0.1-0.1,0.2-0.1,0.3-0.1c0.1,0,0.3-0.1,0.4-0.1
			c0.2,0,0.4,0,0.6,0.1c0.2,0.1,0.3,0.1,0.4,0.3c0.1,0.1,0.2,0.3,0.2,0.5l-0.5,0.1c0-0.1-0.1-0.3-0.2-0.4c-0.1-0.1-0.3-0.1-0.5-0.1
			c-0.2,0-0.3,0-0.5,0.1c-0.1,0.1-0.1,0.2-0.1,0.3c0,0.1,0,0.1,0.1,0.2c0.1,0.1,0.1,0.1,0.2,0.1c0,0,0.2,0.1,0.4,0.1
			c0.3,0.1,0.5,0.1,0.7,0.2c0.1,0.1,0.2,0.1,0.3,0.3c0.1,0.1,0.1,0.3,0.1,0.4c0,0.2-0.1,0.3-0.1,0.5c-0.1,0.2-0.3,0.3-0.4,0.3
			c-0.2,0.1-0.4,0.1-0.6,0.1c-0.3,0-0.6-0.1-0.9-0.2C298.9,452.1,298.8,451.8,298.7,451.6z"/>
	</g>
	<circle class="st14" cx="420.8" cy="439.1" r="10.2"/>
	<g>
		<path class="st15" d="M415.6,457v-4.1h1.5c0.2,0,0.4,0,0.6,0c0.2,0,0.3,0.1,0.5,0.2c0.1,0.1,0.3,0.2,0.3,0.4
			c0.2,0.5,0.1,1-0.2,1.4c-0.3,0.3-0.8,0.4-1.2,0.4h-1v1.7L415.6,457z M416.1,454.9h1.1c0.3,0,0.5,0,0.7-0.2
			c0.2-0.1,0.2-0.3,0.2-0.5c0-0.2,0-0.3-0.1-0.4c-0.1-0.1-0.2-0.2-0.3-0.2c-0.2,0-0.3,0-0.5,0h-1L416.1,454.9z"/>
		<path class="st15" d="M419.3,457v-3h0.5v0.4c0.1-0.2,0.2-0.3,0.3-0.4c0.1-0.1,0.2-0.1,0.3-0.1c0.2,0,0.4,0.1,0.5,0.2l-0.2,0.5
			c-0.1-0.1-0.2-0.1-0.4-0.1c-0.1,0-0.2,0-0.3,0.1c-0.1,0.1-0.2,0.2-0.2,0.3c-0.1,0.2-0.1,0.4-0.1,0.6v1.5L419.3,457z"/>
		<path class="st15" d="M421.2,453.5v-0.6h0.5v0.6L421.2,453.5z M421.2,457v-3h0.5v3H421.2z"/>
		<path class="st15" d="M422.5,457v-3h0.5v0.4c0.2-0.3,0.6-0.5,0.9-0.5c0.2,0,0.3,0,0.5,0.1c0.1,0.1,0.2,0.1,0.3,0.3
			c0.1,0.1,0.1,0.2,0.2,0.4c0,0.2,0,0.3,0,0.5v1.8h-0.5v-1.8c0-0.2,0-0.3-0.1-0.5c0-0.1-0.1-0.2-0.2-0.2c-0.1-0.1-0.2-0.1-0.3-0.1
			c-0.2,0-0.4,0.1-0.6,0.2c-0.2,0.2-0.3,0.5-0.2,0.8v1.6L422.5,457z"/>
		<path class="st15" d="M426.7,456.6l0.1,0.4c-0.1,0-0.3,0-0.4,0c-0.1,0-0.3,0-0.4-0.1c-0.1-0.1-0.2-0.1-0.2-0.2
			c-0.1-0.2-0.1-0.4-0.1-0.6v-1.7h-0.4V454h0.4v-0.7l0.5-0.3v1h0.5v0.4h-0.5v1.7c0,0.1,0,0.2,0,0.3c0,0,0,0.1,0.1,0.1
			c0.1,0,0.1,0,0.2,0C426.6,456.6,426.7,456.6,426.7,456.6z"/>
	</g>
	<g id="Outline_Icons-13-2-4-2-5">
		<g id="Outline_Icons-14-2-4-2-5">
			<path class="st16" d="M419,441.6h-1c-0.4,0-0.7-0.3-0.7-0.7V439c0-0.4,0.3-0.7,0.7-0.7h6c0.4,0,0.7,0.3,0.7,0.6c0,0,0,0,0,0.1
				l0,0v1.9c0,0.4-0.3,0.7-0.7,0.7h-0.9"/>
			<polyline class="st16" points="419,437.7 419,436.5 422.3,436.5 423.2,437.4 423.2,437.7 			"/>
			<rect x="419" y="440.6" class="st16" width="4.1" height="2.5"/>
			<circle class="st16" cx="418.4" cy="439.3" r="0.3"/>
			<line class="st16" x1="419.7" y1="441.2" x2="422.5" y2="441.2"/>
			<line class="st16" x1="419.7" y1="441.9" x2="422.5" y2="441.9"/>
			<line class="st16" x1="419.7" y1="442.5" x2="422.5" y2="442.5"/>
			<polyline class="st16" points="422.3,436.5 422.3,437.4 423.2,437.4 			"/>
		</g>
	</g>
	<circle class="st14" cx="227.2" cy="531.4" r="10.2"/>
	<g>
		<path class="st15" d="M216,549.4v-4.1h2.9v0.5h-2.4v1.2h2.3v0.5h-2.3v1.4h2.5v0.5L216,549.4z"/>
		<path class="st15" d="M219.7,549.4v-4.1h0.5v4.1H219.7z"/>
		<path class="st15" d="M223,548.4l0.5,0.1c-0.1,0.3-0.2,0.5-0.5,0.7c-0.6,0.4-1.4,0.3-1.9-0.1c-0.3-0.3-0.4-0.7-0.4-1.1
			c0-0.4,0.1-0.8,0.4-1.2c0.3-0.3,0.6-0.4,1-0.4c0.4,0,0.7,0.1,1,0.4c0.3,0.3,0.4,0.7,0.4,1.1c0,0,0,0.1,0,0.1h-2.2
			c0,0.3,0.1,0.5,0.3,0.7c0.2,0.2,0.4,0.3,0.6,0.3c0.2,0,0.3,0,0.5-0.1C222.9,548.8,223,548.6,223,548.4z M221.4,547.6h1.6
			c0-0.2-0.1-0.4-0.2-0.6c-0.2-0.2-0.4-0.3-0.6-0.3c-0.2,0-0.4,0.1-0.6,0.2C221.5,547.2,221.4,547.4,221.4,547.6z"/>
		<path class="st15" d="M225,549.4l-1.1-3h0.5l0.6,1.8c0.1,0.2,0.1,0.4,0.2,0.6c0-0.2,0.1-0.3,0.2-0.6l0.7-1.8h0.5l-1.1,3L225,549.4
			z"/>
		<path class="st15" d="M229,549c-0.2,0.1-0.3,0.3-0.5,0.3c-0.2,0.1-0.4,0.1-0.6,0.1c-0.3,0-0.5-0.1-0.7-0.2
			c-0.2-0.2-0.3-0.4-0.3-0.6c0-0.1,0-0.3,0.1-0.4c0.1-0.1,0.2-0.2,0.3-0.3c0.1-0.1,0.2-0.1,0.4-0.2c0.1,0,0.3-0.1,0.4-0.1
			c0.3,0,0.6-0.1,0.9-0.2c0-0.1,0-0.1,0-0.1c0-0.2,0-0.3-0.1-0.4c-0.2-0.1-0.4-0.2-0.6-0.2c-0.2,0-0.4,0-0.5,0.1
			c-0.1,0.1-0.2,0.3-0.2,0.4l-0.5-0.1c0-0.2,0.1-0.4,0.2-0.5c0.1-0.1,0.3-0.2,0.4-0.3c0.2-0.1,0.4-0.1,0.7-0.1c0.2,0,0.4,0,0.6,0.1
			c0.1,0,0.3,0.1,0.3,0.2c0.1,0.1,0.1,0.2,0.2,0.3c0,0.2,0,0.3,0,0.5v0.7c0,0.3,0,0.6,0,0.9c0,0.1,0.1,0.2,0.1,0.4H229
			C229,549.3,229,549.1,229,549z M228.9,547.9c-0.3,0.1-0.5,0.2-0.8,0.2c-0.1,0-0.3,0-0.4,0.1c-0.1,0-0.2,0.1-0.2,0.2
			c-0.1,0.2-0.1,0.4,0.1,0.6c0.1,0.1,0.3,0.1,0.4,0.1c0.2,0,0.4,0,0.5-0.1c0.1-0.1,0.3-0.2,0.3-0.3c0.1-0.2,0.1-0.3,0.1-0.5
			L228.9,547.9z"/>
		<path class="st15" d="M231.3,548.9l0.1,0.4c-0.1,0-0.3,0-0.4,0c-0.1,0-0.3,0-0.4-0.1c-0.1-0.1-0.2-0.1-0.2-0.2
			c-0.1-0.2-0.1-0.4-0.1-0.6v-1.7h-0.4v-0.4h0.4v-0.7l0.5-0.3v1h0.5v0.4h-0.5v1.7c0,0.1,0,0.2,0,0.3c0,0,0,0.1,0.1,0.1
			c0.1,0,0.1,0,0.2,0C231.1,548.9,231.2,548.9,231.3,548.9z"/>
		<path class="st15" d="M231.6,547.9c0-0.5,0.1-0.9,0.5-1.2c0.3-0.2,0.6-0.3,0.9-0.3c0.4,0,0.7,0.1,1,0.4c0.3,0.3,0.4,0.7,0.4,1.1
			c0,0.3,0,0.6-0.2,0.9c-0.1,0.2-0.3,0.4-0.5,0.5c-0.2,0.1-0.5,0.2-0.7,0.2c-0.4,0-0.7-0.1-1-0.4
			C231.7,548.7,231.6,548.3,231.6,547.9z M232.1,547.9c0,0.3,0.1,0.6,0.2,0.8c0.3,0.3,0.8,0.4,1.2,0.1c0,0,0.1-0.1,0.1-0.1
			c0.2-0.2,0.3-0.6,0.2-0.9c0-0.3-0.1-0.6-0.2-0.8c-0.3-0.3-0.8-0.4-1.2-0.1c0,0-0.1,0.1-0.1,0.1
			C232.2,547.3,232.1,547.6,232.1,547.9L232.1,547.9z"/>
		<path class="st15" d="M234.9,549.4v-3h0.5v0.4c0.1-0.2,0.2-0.3,0.3-0.4c0.1-0.1,0.2-0.1,0.3-0.1c0.2,0,0.4,0.1,0.5,0.2l-0.2,0.5
			c-0.1-0.1-0.2-0.1-0.4-0.1c-0.1,0-0.2,0-0.3,0.1c-0.1,0.1-0.2,0.2-0.2,0.3c-0.1,0.2-0.1,0.4-0.1,0.6v1.5L234.9,549.4z"/>
		<path class="st15" d="M236.6,548.5l0.5-0.1c0,0.2,0.1,0.3,0.2,0.5c0.2,0.1,0.3,0.2,0.5,0.2c0.2,0,0.4,0,0.5-0.1
			c0.1-0.1,0.2-0.2,0.2-0.3c0-0.1-0.1-0.2-0.1-0.3c-0.2-0.1-0.3-0.1-0.5-0.2c-0.3-0.1-0.5-0.1-0.8-0.2c-0.1-0.1-0.2-0.2-0.3-0.3
			c-0.1-0.1-0.1-0.3-0.1-0.4c0-0.1,0-0.3,0.1-0.4c0.1-0.1,0.1-0.2,0.2-0.3c0.1-0.1,0.2-0.1,0.3-0.1c0.1,0,0.3-0.1,0.4-0.1
			c0.2,0,0.4,0,0.6,0.1c0.2,0.1,0.3,0.1,0.4,0.3c0.1,0.1,0.2,0.3,0.2,0.5l-0.5,0.1c0-0.1-0.1-0.3-0.2-0.4c-0.1-0.1-0.3-0.1-0.5-0.1
			c-0.2,0-0.3,0-0.5,0.1c-0.1,0.1-0.1,0.2-0.1,0.3c0,0.1,0,0.1,0.1,0.2c0.1,0.1,0.1,0.1,0.2,0.1c0,0,0.2,0.1,0.4,0.1
			c0.3,0.1,0.5,0.1,0.7,0.2c0.1,0.1,0.2,0.1,0.3,0.3c0.1,0.1,0.1,0.3,0.1,0.4c0,0.2-0.1,0.3-0.1,0.5c-0.1,0.2-0.3,0.3-0.4,0.3
			c-0.2,0.1-0.4,0.1-0.6,0.1c-0.3,0-0.6-0.1-0.9-0.2C236.8,549,236.7,548.8,236.6,548.5z"/>
	</g>
	<path class="st17" d="M222.9,526.6h9.1c0.2,0,0.4,0.2,0.4,0.3v9.1c0,0.2-0.2,0.3-0.4,0.3h-9.1c-0.2,0-0.4-0.2-0.4-0.3V527
		C222.5,526.8,222.7,526.6,222.9,526.6z"/>
	<rect x="224.5" y="528.9" class="st17" width="2.5" height="7.5"/>
	<rect x="227.1" y="528.9" class="st17" width="2.5" height="7.5"/>
	<line class="st17" x1="226.6" y1="527.7" x2="228.3" y2="527.7"/>
	<polyline class="st18" points="230.6,531.8 231,531.3 231.5,531.8 	"/>
	<polyline class="st18" points="230.6,532.4 231,532.8 231.5,532.4 	"/>
	<circle class="st14" cx="260" cy="531.4" r="10.2"/>
	<g>
		<path class="st15" d="M254.3,549.4l1.6-4.1h0.6l1.7,4.1h-0.6l-0.5-1.2h-1.7l-0.4,1.2H254.3z M255.5,547.7h1.4l-0.4-1.1
			c-0.1-0.3-0.2-0.6-0.3-0.8c-0.1,0.3-0.1,0.5-0.2,0.8L255.5,547.7z M255.9,545l0.4-0.8h0.7l-0.6,0.8H255.9z"/>
		<path class="st15" d="M259.6,548.9l0.1,0.4c-0.1,0-0.3,0-0.4,0c-0.1,0-0.3,0-0.4-0.1c-0.1-0.1-0.2-0.1-0.2-0.2
			c-0.1-0.2-0.1-0.4-0.1-0.6v-1.7h-0.4v-0.4h0.4v-0.7l0.5-0.3v1h0.5v0.4h-0.5v1.7c0,0.1,0,0.2,0,0.3c0,0,0,0.1,0.1,0.1
			c0.1,0,0.1,0,0.2,0C259.5,548.9,259.6,548.9,259.6,548.9z"/>
		<path class="st15" d="M260.1,549.4v-3h0.5v0.4c0.1-0.2,0.2-0.3,0.3-0.4c0.1-0.1,0.2-0.1,0.3-0.1c0.2,0,0.4,0.1,0.5,0.2l-0.2,0.5
			c-0.1-0.1-0.2-0.1-0.4-0.1c-0.1,0-0.2,0-0.3,0.1c-0.1,0.1-0.2,0.2-0.2,0.3c-0.1,0.2-0.1,0.4-0.1,0.6v1.5L260.1,549.4z"/>
		<path class="st15" d="M262,545.9v-0.6h0.5v0.6H262z M262,549.4v-3h0.5v3H262z"/>
		<path class="st15" d="M263.1,547.9c0-0.5,0.1-0.9,0.5-1.2c0.3-0.2,0.6-0.3,0.9-0.3c0.4,0,0.7,0.1,1,0.4c0.3,0.3,0.4,0.7,0.4,1.1
			c0,0.3,0,0.6-0.2,0.9c-0.1,0.2-0.3,0.4-0.5,0.5c-0.2,0.1-0.5,0.2-0.7,0.2c-0.4,0-0.7-0.1-1-0.4
			C263.2,548.7,263.1,548.3,263.1,547.9z M263.6,547.9c0,0.3,0.1,0.6,0.2,0.8c0.3,0.3,0.8,0.4,1.2,0.1c0,0,0.1-0.1,0.1-0.1
			c0.2-0.2,0.3-0.6,0.2-0.9c0-0.3-0.1-0.6-0.2-0.8c-0.3-0.3-0.8-0.4-1.2-0.1c0,0-0.1,0.1-0.1,0.1
			C263.7,547.3,263.6,547.6,263.6,547.9L263.6,547.9z"/>
	</g>
	<path class="st17" d="M255.7,526.6h9.1c0.2,0,0.4,0.2,0.4,0.3v9.1c0,0.2-0.2,0.3-0.4,0.3h-9.1c-0.2,0-0.4-0.2-0.4-0.3V527
		C255.3,526.8,255.5,526.6,255.7,526.6z"/>
	<rect x="257.3" y="528.9" class="st17" width="2.5" height="7.5"/>
	<rect x="259.8" y="528.9" class="st17" width="2.5" height="7.5"/>
	<line class="st17" x1="259.4" y1="527.7" x2="261.1" y2="527.7"/>
	<polyline class="st18" points="263.3,531.8 263.8,531.3 264.3,531.8 	"/>
	<polyline class="st18" points="263.3,532.4 263.8,532.8 264.3,532.4 	"/>
	<circle class="st14" cx="517.5" cy="521.4" r="10.2"/>
	<g>
		<path class="st15" d="M508.6,539.3v-4.1h0.5v3.6h2v0.5L508.6,539.3z"/>
		<path class="st15" d="M511.6,537.8c0-0.5,0.1-0.9,0.5-1.2c0.3-0.2,0.6-0.3,0.9-0.3c0.4,0,0.7,0.1,1,0.4c0.3,0.3,0.4,0.7,0.4,1.1
			c0,0.3,0,0.6-0.2,0.9c-0.1,0.2-0.3,0.4-0.5,0.5c-0.2,0.1-0.5,0.2-0.7,0.2c-0.4,0-0.7-0.1-1-0.4
			C511.7,538.7,511.5,538.2,511.6,537.8z M512.1,537.8c0,0.3,0.1,0.6,0.2,0.8c0.3,0.3,0.8,0.4,1.2,0.1c0,0,0.1-0.1,0.1-0.1
			c0.2-0.2,0.3-0.6,0.2-0.9c0-0.3-0.1-0.6-0.2-0.8c-0.3-0.3-0.8-0.4-1.2-0.1c0,0-0.1,0.1-0.1,0.1
			C512.1,537.2,512.1,537.5,512.1,537.8z"/>
		<path class="st15" d="M516.9,539.3v-0.4c-0.2,0.3-0.6,0.5-0.9,0.5c-0.2,0-0.3,0-0.5-0.1c-0.1-0.1-0.2-0.1-0.3-0.3
			c-0.1-0.1-0.1-0.2-0.2-0.4c0-0.2,0-0.3,0-0.5v-1.8h0.5v1.6c0,0.2,0,0.4,0,0.5c0,0.1,0.1,0.2,0.2,0.3c0.1,0.1,0.2,0.1,0.4,0.1
			c0.1,0,0.3,0,0.4-0.1c0.1-0.1,0.2-0.2,0.3-0.3c0.1-0.2,0.1-0.4,0.1-0.6v-1.6h0.5v3L516.9,539.3z"/>
		<path class="st15" d="M518.1,539.3v-3h0.5v0.4c0.2-0.3,0.6-0.5,0.9-0.5c0.2,0,0.3,0,0.5,0.1c0.1,0.1,0.2,0.1,0.3,0.3
			c0.1,0.1,0.1,0.2,0.2,0.4c0,0.2,0,0.3,0,0.5v1.8H520v-1.8c0-0.2,0-0.3-0.1-0.5c0-0.1-0.1-0.2-0.2-0.2c-0.1-0.1-0.2-0.1-0.3-0.1
			c-0.2,0-0.4,0.1-0.6,0.2c-0.2,0.2-0.3,0.5-0.2,0.8v1.6L518.1,539.3z"/>
		<path class="st15" d="M521.2,539.5l0.5,0.1c0,0.1,0.1,0.2,0.2,0.3c0.2,0.1,0.3,0.1,0.5,0.1c0.2,0,0.4,0,0.5-0.1
			c0.1-0.1,0.2-0.2,0.3-0.4c0-0.2,0-0.4,0-0.6c-0.2,0.2-0.5,0.4-0.8,0.4c-0.4,0-0.7-0.1-0.9-0.4c-0.2-0.3-0.3-0.7-0.3-1.1
			c0-0.3,0-0.5,0.2-0.8c0.1-0.2,0.2-0.4,0.4-0.6c0.2-0.1,0.4-0.2,0.7-0.2c0.3,0,0.7,0.2,0.9,0.4v-0.4h0.5v2.6c0,0.3,0,0.7-0.1,1
			c-0.1,0.2-0.3,0.4-0.4,0.5c-0.2,0.1-0.5,0.2-0.8,0.2c-0.3,0-0.6-0.1-0.9-0.2C521.3,540.1,521.1,539.8,521.2,539.5z M521.6,537.8
			c0,0.3,0.1,0.6,0.2,0.8c0.1,0.2,0.4,0.3,0.6,0.3c0.2,0,0.4-0.1,0.6-0.3c0.2-0.2,0.3-0.5,0.2-0.8c0-0.3-0.1-0.6-0.2-0.8
			c-0.1-0.2-0.4-0.3-0.6-0.3c-0.2,0-0.4,0.1-0.6,0.3C521.6,537.2,521.6,537.5,521.6,537.8L521.6,537.8z"/>
		<path class="st15" d="M526.4,538.4l0.5,0.1c-0.1,0.3-0.2,0.5-0.5,0.7c-0.6,0.4-1.4,0.3-1.9-0.1c-0.3-0.3-0.4-0.7-0.4-1.1
			c0-0.4,0.1-0.8,0.4-1.2c0.3-0.3,0.6-0.4,1-0.4c0.4,0,0.7,0.1,1,0.4c0.3,0.3,0.4,0.7,0.4,1.1c0,0,0,0.1,0,0.1h-2.2
			c0,0.3,0.1,0.5,0.3,0.7c0.2,0.2,0.4,0.3,0.6,0.3c0.2,0,0.3,0,0.5-0.1C526.3,538.7,526.4,538.5,526.4,538.4z M524.8,537.5h1.6
			c0-0.2-0.1-0.4-0.2-0.6c-0.1-0.2-0.4-0.3-0.6-0.3c-0.2,0-0.4,0.1-0.6,0.2C524.9,537.1,524.8,537.3,524.8,537.5L524.8,537.5z"/>
	</g>
	<line class="st19" x1="517" y1="519.8" x2="517.6" y2="520.3"/>
	<line class="st19" x1="517" y1="521.2" x2="517.6" y2="520.6"/>
	<line class="st19" x1="514.7" y1="526" x2="514.7" y2="526.9"/>
	<line class="st19" x1="520.7" y1="526" x2="520.7" y2="526.9"/>
	<path class="st19" d="M522.1,525.1c0,0.5-0.3,0.9-0.8,0.9c0,0,0,0,0,0h-7c-0.5,0-0.9-0.4-0.9-0.9l0,0v-0.7c0-0.4,0.3-0.8,0.6-0.9
		c2.4-0.9,5.1-0.9,7.5,0c0.4,0.1,0.6,0.5,0.6,0.9L522.1,525.1z"/>
	<path class="st19" d="M522,524.1c0.7-0.3,1.1-1.1,0.8-1.8c-0.3-0.7-1-1-1.7-0.8c-0.7,0.2-1.1,1-0.9,1.7"/>
	<path class="st19" d="M515.2,523.1c0.2-0.7-0.2-1.5-1-1.7c-0.7-0.2-1.4,0.2-1.7,0.9c-0.2,0.7,0.2,1.5,0.9,1.7"/>
	<path class="st19" d="M521.7,521.4c0.5-2.2-0.8-4.5-3-5s-4.5,0.8-5,3l0,0c-0.1,0.6-0.1,1.3,0,1.9"/>
	<line class="st19" x1="517.9" y1="520.6" x2="518.4" y2="521.2"/>
	<line class="st19" x1="517.9" y1="520.3" x2="518.4" y2="519.8"/>
	<path class="st19" d="M517.9,520.5c0,0.1-0.1,0.2-0.2,0.2c0,0,0,0,0,0l0,0c-0.1,0-0.2-0.1-0.2-0.2c0,0,0,0,0,0l0,0
		c0-0.1,0.1-0.2,0.2-0.2c0,0,0,0,0,0l0,0C517.8,520.2,517.9,520.3,517.9,520.5C517.9,520.5,517.9,520.5,517.9,520.5z"/>
	<circle class="st14" cx="486.9" cy="462.2" r="10.2"/>
	<g>
		<path class="st15" d="M478.1,480.1V476h2.9v0.5h-2.4v1.2h2.3v0.5h-2.3v1.4h2.5v0.5L478.1,480.1z"/>
		<path class="st15" d="M481.6,479.2l0.5-0.1c0,0.2,0.1,0.3,0.2,0.5c0.2,0.1,0.3,0.2,0.5,0.2c0.2,0,0.4,0,0.5-0.1
			c0.1-0.1,0.2-0.2,0.2-0.3c0-0.1-0.1-0.2-0.1-0.3c-0.2-0.1-0.3-0.1-0.5-0.2c-0.3-0.1-0.5-0.1-0.8-0.2c-0.1-0.1-0.2-0.2-0.3-0.3
			c-0.1-0.1-0.1-0.3-0.1-0.4c0-0.1,0-0.3,0.1-0.4c0.1-0.1,0.1-0.2,0.2-0.3c0.1-0.1,0.2-0.1,0.3-0.1c0.1,0,0.3-0.1,0.4-0.1
			c0.2,0,0.4,0,0.6,0.1c0.2,0.1,0.3,0.1,0.4,0.3c0.1,0.1,0.2,0.3,0.2,0.5l-0.5,0.1c0-0.1-0.1-0.3-0.2-0.4c-0.1-0.1-0.3-0.1-0.5-0.1
			c-0.2,0-0.3,0-0.5,0.1c-0.1,0.1-0.1,0.2-0.1,0.3c0,0.1,0,0.1,0.1,0.2c0.1,0.1,0.1,0.1,0.2,0.1c0.1,0,0.2,0.1,0.4,0.1
			c0.3,0.1,0.5,0.1,0.7,0.2c0.1,0.1,0.2,0.1,0.3,0.3c0.1,0.1,0.1,0.3,0.1,0.4c0,0.2-0.1,0.3-0.1,0.5c-0.1,0.2-0.2,0.3-0.4,0.3
			c-0.2,0.1-0.4,0.1-0.6,0.1c-0.3,0-0.6-0.1-0.9-0.2C481.8,479.8,481.6,479.5,481.6,479.2z"/>
		<path class="st15" d="M486.6,479l0.5,0.1c0,0.3-0.2,0.6-0.4,0.8c-0.2,0.2-0.5,0.3-0.8,0.3c-0.4,0-0.7-0.1-1-0.4
			c-0.3-0.3-0.4-0.7-0.4-1.1c0-0.3,0-0.6,0.2-0.8c0.1-0.2,0.3-0.4,0.5-0.5c0.2-0.1,0.5-0.2,0.7-0.2c0.3,0,0.6,0.1,0.8,0.2
			c0.2,0.2,0.4,0.4,0.4,0.7l-0.5,0.1c0-0.2-0.1-0.3-0.2-0.4c-0.1-0.1-0.3-0.2-0.4-0.2c-0.2,0-0.5,0.1-0.6,0.3
			c-0.2,0.2-0.3,0.6-0.2,0.9c0,0.3,0.1,0.6,0.2,0.9c0.1,0.2,0.4,0.3,0.6,0.3c0.2,0,0.4-0.1,0.5-0.2
			C486.5,479.4,486.5,479.2,486.6,479z"/>
		<path class="st15" d="M489.4,479.7c-0.2,0.1-0.3,0.3-0.5,0.3c-0.2,0.1-0.4,0.1-0.6,0.1c-0.3,0-0.5-0.1-0.7-0.2
			c-0.2-0.2-0.3-0.4-0.3-0.6c0-0.1,0-0.3,0.1-0.4c0.1-0.1,0.2-0.2,0.3-0.3c0.1-0.1,0.2-0.1,0.4-0.2c0.1,0,0.3-0.1,0.4-0.1
			c0.3,0,0.6-0.1,0.9-0.2c0-0.1,0-0.1,0-0.1c0-0.2,0-0.3-0.1-0.4c-0.2-0.1-0.4-0.2-0.6-0.2c-0.2,0-0.4,0-0.5,0.1
			c-0.1,0.1-0.2,0.3-0.2,0.4l-0.5-0.1c0-0.2,0.1-0.4,0.2-0.5c0.1-0.1,0.3-0.2,0.4-0.3c0.2-0.1,0.4-0.1,0.7-0.1c0.2,0,0.4,0,0.6,0.1
			c0.1,0,0.3,0.1,0.3,0.2c0.1,0.1,0.1,0.2,0.2,0.3c0,0.2,0,0.3,0,0.5v0.7c0,0.3,0,0.6,0,0.9c0,0.1,0.1,0.2,0.1,0.4h-0.5
			C489.5,480,489.4,479.9,489.4,479.7z M489.4,478.6c-0.3,0.1-0.5,0.2-0.8,0.2c-0.1,0-0.3,0-0.4,0.1c-0.1,0-0.2,0.1-0.2,0.2
			c-0.1,0.2-0.1,0.4,0.1,0.6c0.1,0.1,0.3,0.1,0.4,0.1c0.2,0,0.4,0,0.5-0.1c0.1-0.1,0.3-0.2,0.3-0.3c0.1-0.2,0.1-0.3,0.1-0.5
			L489.4,478.6z"/>
		<path class="st15" d="M492.6,480.1v-0.4c-0.2,0.3-0.5,0.5-0.8,0.4c-0.2,0-0.5-0.1-0.6-0.2c-0.2-0.1-0.4-0.3-0.5-0.5
			c-0.1-0.3-0.2-0.5-0.2-0.8c0-0.3,0-0.5,0.1-0.8c0.2-0.5,0.6-0.8,1.1-0.7c0.2,0,0.3,0,0.5,0.1c0.1,0.1,0.2,0.2,0.3,0.3V476h0.5v4.1
			L492.6,480.1z M491,478.6c0,0.3,0.1,0.6,0.2,0.8c0.1,0.2,0.3,0.3,0.6,0.3c0.2,0,0.4-0.1,0.6-0.3c0.2-0.2,0.3-0.5,0.2-0.8
			c0-0.3-0.1-0.6-0.2-0.9c-0.1-0.2-0.4-0.3-0.6-0.3c-0.2,0-0.4,0.1-0.6,0.3C491,478,491,478.3,491,478.6L491,478.6z"/>
		<path class="st15" d="M495.7,479.7c-0.2,0.1-0.3,0.3-0.5,0.3c-0.2,0.1-0.4,0.1-0.6,0.1c-0.3,0-0.5-0.1-0.7-0.2
			c-0.2-0.2-0.3-0.4-0.3-0.6c0-0.1,0-0.3,0.1-0.4c0.1-0.1,0.2-0.2,0.3-0.3c0.1-0.1,0.2-0.1,0.4-0.2c0.1,0,0.3-0.1,0.4-0.1
			c0.3,0,0.6-0.1,0.9-0.2c0-0.1,0-0.1,0-0.1c0-0.2,0-0.3-0.1-0.4c-0.2-0.1-0.4-0.2-0.6-0.2c-0.2,0-0.4,0-0.5,0.1
			c-0.1,0.1-0.2,0.3-0.2,0.4l-0.5-0.1c0-0.2,0.1-0.4,0.2-0.5c0.1-0.1,0.3-0.2,0.4-0.3c0.2-0.1,0.4-0.1,0.7-0.1c0.2,0,0.4,0,0.6,0.1
			c0.1,0,0.3,0.1,0.3,0.2c0.1,0.1,0.1,0.2,0.2,0.3c0,0.2,0,0.3,0,0.5v0.7c0,0.3,0,0.6,0,0.9c0,0.1,0.1,0.2,0.1,0.4h-0.5
			C495.8,480,495.8,479.9,495.7,479.7z M495.7,478.6c-0.3,0.1-0.5,0.2-0.8,0.2c-0.1,0-0.3,0-0.4,0.1c-0.1,0-0.2,0.1-0.2,0.2
			c-0.1,0.2-0.1,0.4,0.1,0.6c0.1,0.1,0.3,0.1,0.4,0.1c0.2,0,0.4,0,0.5-0.1c0.1-0.1,0.3-0.2,0.3-0.3c0.1-0.2,0.1-0.3,0.1-0.5
			L495.7,478.6z"/>
	</g>
	<g id="Outline_Icons-2-2-4-2-2-2-3-2">
		<line class="st16" x1="483" y1="465.6" x2="490.1" y2="465.6"/>
		<polyline class="st16" points="488.9,465.6 488.9,464.4 487.6,464.4 487.6,463.1 486.4,463.1 486.4,461.9 485.1,461.9 
			485.1,460.6 483,460.6 		"/>
		<line class="st16" x1="486.7" y1="458.5" x2="490.6" y2="462.3"/>
		<polyline class="st16" points="486.7,460 486.7,458.5 488.3,458.5 		"/>
		<polyline class="st16" points="490.6,460.8 490.6,462.3 489.1,462.3 		"/>
	</g>
	
		<ellipse transform="matrix(0.1602 -0.9871 0.9871 0.1602 91.9251 785.951)" class="st14" cx="507.9" cy="339" rx="10.3" ry="10.2"/>
	<g>
		<path class="st15" d="M498.1,355.1l0.5,0c0,0.2,0.1,0.3,0.2,0.5c0.1,0.1,0.2,0.3,0.4,0.3c0.2,0.1,0.4,0.1,0.6,0.1
			c0.2,0,0.4,0,0.5-0.1c0.1,0,0.3-0.1,0.4-0.3c0.1-0.1,0.1-0.2,0.1-0.3c0-0.1,0-0.2-0.1-0.3c-0.1-0.1-0.2-0.2-0.4-0.2
			c-0.2-0.1-0.5-0.1-0.7-0.2c-0.3-0.1-0.5-0.1-0.8-0.3c-0.2-0.1-0.3-0.2-0.4-0.4c-0.1-0.2-0.1-0.3-0.1-0.5c0-0.2,0.1-0.4,0.2-0.6
			c0.1-0.2,0.3-0.3,0.5-0.4c0.2-0.1,0.5-0.1,0.7-0.1c0.3,0,0.5,0,0.8,0.1c0.2,0.1,0.4,0.2,0.5,0.4c0.1,0.2,0.2,0.4,0.2,0.6l-0.5,0
			c0-0.2-0.1-0.4-0.3-0.6c-0.2-0.1-0.5-0.2-0.7-0.2c-0.3,0-0.5,0-0.7,0.2c-0.1,0.1-0.2,0.3-0.2,0.4c0,0.1,0.1,0.3,0.2,0.4
			c0.2,0.2,0.5,0.2,0.8,0.3c0.3,0.1,0.6,0.1,0.9,0.3c0.2,0.1,0.4,0.2,0.5,0.4c0.1,0.2,0.2,0.4,0.2,0.6c0,0.2-0.1,0.4-0.2,0.6
			c-0.1,0.2-0.3,0.4-0.5,0.4c-0.2,0.1-0.5,0.2-0.8,0.2c-0.3,0-0.6,0-0.9-0.2c-0.2-0.1-0.4-0.3-0.6-0.5
			C498.2,355.7,498.1,355.4,498.1,355.1z"/>
		<path class="st15" d="M503.1,356l0.1,0.4c-0.1,0-0.3,0-0.4,0c-0.1,0-0.3,0-0.4-0.1c-0.1-0.1-0.2-0.1-0.2-0.2
			c-0.1-0.2-0.1-0.4-0.1-0.6v-1.7h-0.4v-0.4h0.4v-0.7l0.5-0.3v1h0.5v0.4h-0.5v1.7c0,0.1,0,0.2,0,0.3c0,0,0,0.1,0.1,0.1
			c0.1,0,0.1,0,0.2,0C503,356,503.1,356,503.1,356z"/>
		<path class="st15" d="M503.4,355c0-0.5,0.1-0.9,0.5-1.2c0.3-0.2,0.6-0.3,0.9-0.3c0.4,0,0.7,0.1,1,0.4c0.3,0.3,0.4,0.7,0.4,1.1
			c0,0.3,0,0.6-0.2,0.9c-0.1,0.2-0.3,0.4-0.5,0.5c-0.2,0.1-0.5,0.2-0.7,0.2c-0.4,0-0.7-0.1-1-0.4C503.6,355.8,503.4,355.4,503.4,355
			z M504,355c0,0.3,0.1,0.6,0.2,0.9c0.3,0.3,0.8,0.4,1.2,0.1c0,0,0.1-0.1,0.1-0.1c0.2-0.2,0.3-0.6,0.2-0.9c0-0.3-0.1-0.6-0.2-0.8
			c-0.3-0.3-0.8-0.4-1.2-0.1c0,0-0.1,0-0.1,0.1C504,354.4,503.9,354.7,504,355L504,355z"/>
		<path class="st15" d="M506.8,356.5v-3h0.5v0.4c0.1-0.2,0.2-0.3,0.3-0.4c0.1-0.1,0.2-0.1,0.3-0.1c0.2,0,0.4,0.1,0.5,0.2l-0.2,0.5
			c-0.1-0.1-0.2-0.1-0.4-0.1c-0.1,0-0.2,0-0.3,0.1c-0.1,0.1-0.2,0.2-0.2,0.3c-0.1,0.2-0.1,0.4-0.1,0.6v1.5L506.8,356.5z"/>
		<path class="st15" d="M510.6,356.1c-0.2,0.1-0.3,0.3-0.5,0.3c-0.2,0.1-0.4,0.1-0.6,0.1c-0.3,0-0.5-0.1-0.7-0.2
			c-0.2-0.2-0.3-0.4-0.3-0.6c0-0.3,0.1-0.5,0.4-0.7c0.1-0.1,0.2-0.1,0.4-0.2c0.1,0,0.3-0.1,0.4-0.1c0.3,0,0.6-0.1,0.9-0.2
			c0-0.1,0-0.1,0-0.1c0-0.2,0-0.3-0.1-0.4c-0.2-0.1-0.4-0.2-0.6-0.2c-0.2,0-0.4,0-0.5,0.1c-0.1,0.1-0.2,0.3-0.2,0.4l-0.5-0.1
			c0-0.2,0.1-0.4,0.2-0.5c0.1-0.1,0.3-0.2,0.4-0.3c0.2-0.1,0.4-0.1,0.7-0.1c0.2,0,0.4,0,0.6,0.1c0.1,0,0.3,0.1,0.3,0.2
			c0.1,0.1,0.1,0.2,0.2,0.3c0,0.2,0,0.3,0,0.5v0.7c0,0.3,0,0.6,0,0.9c0,0.1,0.1,0.2,0.1,0.4h-0.5
			C510.7,356.3,510.6,356.2,510.6,356.1z M510.6,355c-0.3,0.1-0.5,0.2-0.8,0.2c-0.1,0-0.3,0-0.4,0.1c-0.1,0-0.2,0.1-0.2,0.2
			c-0.1,0.2-0.1,0.4,0.1,0.6c0.1,0.1,0.3,0.1,0.4,0.1c0.2,0,0.4,0,0.5-0.1c0.1-0.1,0.3-0.2,0.3-0.3c0.1-0.2,0.1-0.3,0.1-0.5
			L510.6,355z"/>
		<path class="st15" d="M511.8,356.7l0.5,0.1c0,0.1,0.1,0.2,0.2,0.3c0.2,0.1,0.3,0.1,0.5,0.1c0.2,0,0.4,0,0.5-0.1
			c0.1-0.1,0.2-0.2,0.3-0.4c0-0.2,0-0.4,0-0.6c-0.2,0.2-0.5,0.4-0.8,0.4c-0.4,0-0.7-0.1-0.9-0.4c-0.2-0.3-0.3-0.7-0.3-1.1
			c0-0.3,0-0.5,0.2-0.8c0.1-0.2,0.2-0.4,0.4-0.6c0.2-0.1,0.4-0.2,0.7-0.2c0.3,0,0.7,0.2,0.9,0.4v-0.4h0.5v2.6c0,0.3,0,0.7-0.1,1
			c-0.1,0.2-0.3,0.4-0.4,0.5c-0.2,0.1-0.5,0.2-0.8,0.2c-0.3,0-0.6-0.1-0.9-0.2C511.9,357.2,511.7,357,511.8,356.7z M512.2,354.9
			c0,0.3,0.1,0.6,0.2,0.8c0.3,0.3,0.8,0.4,1.1,0.1c0,0,0.1-0.1,0.1-0.1c0.2-0.2,0.3-0.5,0.2-0.8c0-0.3-0.1-0.6-0.2-0.8
			c-0.1-0.2-0.4-0.3-0.6-0.3c-0.2,0-0.4,0.1-0.6,0.3C512.2,354.4,512.2,354.6,512.2,354.9L512.2,354.9z"/>
		<path class="st15" d="M517,355.5l0.5,0.1c-0.1,0.3-0.2,0.5-0.5,0.7c-0.2,0.2-0.5,0.3-0.8,0.2c-0.4,0-0.8-0.1-1-0.4
			c-0.3-0.3-0.4-0.7-0.4-1.1c0-0.4,0.1-0.8,0.4-1.2c0.3-0.3,0.6-0.4,1-0.4c0.4,0,0.7,0.1,1,0.4c0.3,0.3,0.4,0.7,0.4,1.1
			c0,0,0,0.1,0,0.1h-2.2c0,0.3,0.1,0.5,0.3,0.7c0.2,0.2,0.4,0.3,0.6,0.3c0.2,0,0.3,0,0.5-0.1C516.9,355.8,517,355.7,517,355.5z
			 M515.4,354.7h1.6c0-0.2-0.1-0.4-0.2-0.6c-0.1-0.2-0.4-0.3-0.6-0.3c-0.2,0-0.4,0.1-0.6,0.2C515.5,354.2,515.4,354.5,515.4,354.7
			L515.4,354.7z"/>
	</g>
	<rect x="503.8" y="337" class="st19" width="8.3" height="7.1"/>
	<line class="st19" x1="505.2" y1="336" x2="511" y2="336"/>
	<line class="st19" x1="506.5" y1="334.8" x2="509.7" y2="334.8"/>
	<polyline class="st19" points="509.9,338.9 509.9,339.9 506.4,339.9 506.4,338.9 	"/>
	<circle class="st14" cx="540.7" cy="240.6" r="10.2"/>
	<g id="Outline_Icons-5-3-2">
		<path class="st16" d="M544.3,240.8c0,0.1-0.1,0.3-0.2,0.3h-2v-4.2c0-0.4,0.3-0.8,0.8-0.8c0,0,0,0,0,0h0.8c0.4,0,0.8,0.3,0.8,0.8
			c0,0,0,0,0,0l0,0L544.3,240.8L544.3,240.8z"/>
		<path class="st16" d="M539,245h3.9v-2.3l1.1-0.8v-0.8h-6.6c-0.1,1,0.7,1.9,1.7,1.9c0,0,0,0,0.1,0h0.1L539,245z"/>
		<rect x="537.1" y="240.5" class="st16" width="5" height="0.8"/>
		<circle class="st16" cx="543.4" cy="237.5" r="0.3"/>
	</g>
	<g>
		<path class="st15" d="M534.3,258.5v-3.6H533v-0.5h3.2v0.5h-1.3v3.6H534.3z"/>
		<path class="st15" d="M535.9,257c0-0.5,0.1-0.9,0.5-1.2c0.3-0.2,0.6-0.3,0.9-0.3c0.4,0,0.7,0.1,1,0.4c0.3,0.3,0.4,0.7,0.4,1.1
			c0,0.3,0,0.6-0.2,0.9c-0.1,0.2-0.3,0.4-0.5,0.5c-0.2,0.1-0.5,0.2-0.7,0.2c-0.4,0-0.7-0.1-1-0.4C536,257.9,535.9,257.5,535.9,257z
			 M536.4,257c0,0.3,0.1,0.6,0.2,0.9c0.3,0.3,0.8,0.4,1.2,0.1c0,0,0.1-0.1,0.1-0.1c0.2-0.2,0.3-0.6,0.2-0.9c0-0.3-0.1-0.6-0.2-0.8
			c-0.3-0.3-0.8-0.4-1.2-0.1c0,0-0.1,0-0.1,0.1C536.5,256.4,536.4,256.7,536.4,257z"/>
		<path class="st15" d="M539.2,255v-0.6h0.5v0.6H539.2z M539.2,258.5v-3h0.5v3H539.2z"/>
		<path class="st15" d="M540.5,258.5v-4.1h0.5v4.1H540.5z"/>
		<path class="st15" d="M543.8,257.6l0.5,0.1c-0.1,0.3-0.2,0.5-0.5,0.7c-0.6,0.4-1.4,0.3-1.9-0.1c-0.3-0.3-0.4-0.7-0.4-1.1
			c0-0.4,0.1-0.8,0.4-1.2c0.3-0.3,0.6-0.4,1-0.4c0.4,0,0.7,0.1,1,0.4c0.3,0.3,0.4,0.7,0.4,1.1c0,0,0,0.1,0,0.1h-2.2
			c0,0.3,0.1,0.5,0.3,0.7c0.2,0.2,0.4,0.3,0.6,0.3c0.2,0,0.3,0,0.5-0.1C543.6,257.9,543.7,257.7,543.8,257.6z M542.1,256.8h1.6
			c0-0.2-0.1-0.4-0.2-0.6c-0.1-0.2-0.4-0.3-0.6-0.3c-0.2,0-0.4,0.1-0.6,0.2C542.2,256.3,542.1,256.5,542.1,256.8L542.1,256.8z"/>
		<path class="st15" d="M546,258.1l0.1,0.4c-0.1,0-0.3,0-0.4,0c-0.1,0-0.3,0-0.4-0.1c-0.1-0.1-0.2-0.1-0.2-0.2
			c-0.1-0.2-0.1-0.4-0.1-0.6v-1.7h-0.4v-0.4h0.4v-0.7l0.5-0.3v1h0.5v0.4h-0.5v1.7c0,0.1,0,0.2,0,0.3c0,0,0,0.1,0.1,0.1
			c0.1,0,0.1,0,0.2,0C545.9,258.1,545.9,258.1,546,258.1z"/>
		<path class="st15" d="M546.3,257.6l0.5-0.1c0,0.2,0.1,0.3,0.2,0.5c0.2,0.1,0.3,0.2,0.5,0.2c0.2,0,0.4,0,0.5-0.1
			c0.1-0.1,0.2-0.2,0.2-0.3c0-0.1-0.1-0.2-0.1-0.3c-0.2-0.1-0.3-0.1-0.5-0.2c-0.3-0.1-0.5-0.1-0.8-0.2c-0.3-0.1-0.4-0.4-0.4-0.7
			c0-0.1,0-0.3,0.1-0.4c0.1-0.1,0.1-0.2,0.2-0.3c0.1-0.1,0.2-0.1,0.3-0.1c0.1,0,0.3-0.1,0.4-0.1c0.2,0,0.4,0,0.6,0.1
			c0.2,0.1,0.3,0.1,0.4,0.3c0.1,0.1,0.2,0.3,0.2,0.5l-0.5,0.1c0-0.1-0.1-0.3-0.2-0.4c-0.1-0.1-0.3-0.1-0.5-0.1c-0.2,0-0.3,0-0.5,0.1
			c-0.1,0.1-0.1,0.2-0.1,0.3c0,0.1,0,0.1,0.1,0.2c0.1,0.1,0.1,0.1,0.2,0.1c0.1,0,0.2,0.1,0.4,0.1c0.3,0.1,0.5,0.1,0.7,0.2
			c0.1,0.1,0.2,0.1,0.3,0.3c0.1,0.1,0.1,0.3,0.1,0.4c0,0.2-0.1,0.3-0.1,0.5c-0.1,0.2-0.3,0.3-0.4,0.3c-0.2,0.1-0.4,0.1-0.6,0.1
			c-0.3,0-0.6-0.1-0.9-0.2C546.5,258.2,546.3,257.9,546.3,257.6z"/>
	</g>
	<circle class="st14" cx="566.9" cy="182.9" r="10.2"/>
	<g>
		<path class="st15" d="M561.7,200.8v-4.1h1.5c0.2,0,0.4,0,0.6,0c0.2,0,0.3,0.1,0.5,0.2c0.1,0.1,0.3,0.2,0.3,0.4
			c0.2,0.5,0.1,1-0.2,1.4c-0.3,0.3-0.8,0.4-1.2,0.4h-1v1.7L561.7,200.8z M562.3,198.7h1.1c0.3,0,0.5,0,0.7-0.2
			c0.2-0.1,0.2-0.3,0.2-0.5c0-0.2,0-0.3-0.1-0.4c-0.1-0.1-0.2-0.2-0.3-0.2c-0.2,0-0.3,0-0.5,0h-1V198.7z"/>
		<path class="st15" d="M565.4,200.8v-3h0.5v0.4c0.1-0.2,0.2-0.3,0.3-0.4c0.1-0.1,0.2-0.1,0.3-0.1c0.2,0,0.4,0.1,0.5,0.2l-0.2,0.5
			c-0.1-0.1-0.2-0.1-0.4-0.1c-0.1,0-0.2,0-0.3,0.1c-0.1,0.1-0.2,0.2-0.2,0.3c-0.1,0.2-0.1,0.4-0.1,0.6v1.5L565.4,200.8z"/>
		<path class="st15" d="M567.4,197.3v-0.6h0.5v0.6H567.4z M567.4,200.8v-3h0.5v3H567.4z"/>
		<path class="st15" d="M568.6,200.8v-3h0.5v0.4c0.2-0.3,0.6-0.5,0.9-0.5c0.2,0,0.3,0,0.5,0.1c0.1,0.1,0.2,0.1,0.3,0.3
			c0.1,0.1,0.1,0.2,0.2,0.4c0,0.2,0,0.3,0,0.5v1.8h-0.5V199c0-0.2,0-0.3-0.1-0.5c0-0.1-0.1-0.2-0.2-0.2c-0.1-0.1-0.2-0.1-0.3-0.1
			c-0.2,0-0.4,0.1-0.6,0.2c-0.2,0.2-0.3,0.5-0.2,0.8v1.6L568.6,200.8z"/>
		<path class="st15" d="M572.9,200.4l0.1,0.4c-0.1,0-0.3,0-0.4,0c-0.1,0-0.3,0-0.4-0.1c-0.1-0.1-0.2-0.1-0.2-0.2
			c-0.1-0.2-0.1-0.4-0.1-0.6v-1.7h-0.4v-0.4h0.4v-0.7l0.5-0.3v1h0.5v0.4h-0.5v1.7c0,0.1,0,0.2,0,0.3c0,0,0,0.1,0.1,0.1
			c0.1,0,0.1,0,0.2,0C572.7,200.4,572.8,200.4,572.9,200.4z"/>
	</g>
	<g id="Outline_Icons-13-2-4-2-5-2">
		<g id="Outline_Icons-14-2-4-2-5-2">
			<path class="st16" d="M565.1,185.4h-1c-0.4,0-0.7-0.3-0.7-0.7v-1.9c0-0.4,0.3-0.7,0.7-0.7h6c0.4,0,0.7,0.3,0.7,0.6c0,0,0,0,0,0.1
				l0,0v1.9c0,0.4-0.3,0.7-0.7,0.7h-0.9"/>
			<polyline class="st16" points="565.1,181.5 565.1,180.3 568.4,180.3 569.3,181.2 569.3,181.5 			"/>
			<rect x="565.1" y="184.4" class="st16" width="4.1" height="2.5"/>
			<circle class="st16" cx="564.5" cy="183.1" r="0.3"/>
			<line class="st16" x1="565.8" y1="185.1" x2="568.6" y2="185.1"/>
			<line class="st16" x1="565.8" y1="185.8" x2="568.6" y2="185.8"/>
			<line class="st16" x1="565.8" y1="186.3" x2="568.6" y2="186.3"/>
			<polyline class="st16" points="568.4,180.3 568.4,181.2 569.3,181.2 			"/>
		</g>
	</g>
	<circle class="st14" cx="510.8" cy="304.8" r="10.2"/>
	<g>
		<path class="st15" d="M501.9,322.7v-4.1h2.9v0.5h-2.4v1.2h2.3v0.5h-2.3v1.4h2.5v0.5H501.9z"/>
		<path class="st15" d="M505.4,321.9l0.5-0.1c0,0.2,0.1,0.3,0.2,0.5c0.2,0.1,0.3,0.2,0.5,0.2c0.2,0,0.4,0,0.5-0.1
			c0.1-0.1,0.2-0.2,0.2-0.3c0-0.1-0.1-0.2-0.1-0.3c-0.2-0.1-0.3-0.1-0.5-0.2c-0.3-0.1-0.5-0.1-0.8-0.2c-0.1-0.1-0.2-0.2-0.3-0.3
			c-0.1-0.1-0.1-0.3-0.1-0.4c0-0.1,0-0.3,0.1-0.4c0.1-0.1,0.1-0.2,0.2-0.3c0.1-0.1,0.2-0.1,0.3-0.1c0.1,0,0.3-0.1,0.4-0.1
			c0.2,0,0.4,0,0.6,0.1c0.2,0.1,0.3,0.1,0.4,0.3c0.1,0.1,0.2,0.3,0.2,0.5l-0.5,0.1c0-0.1-0.1-0.3-0.2-0.4c-0.1-0.1-0.3-0.1-0.5-0.1
			c-0.2,0-0.3,0-0.5,0.1c-0.1,0.1-0.1,0.2-0.1,0.3c0,0.1,0,0.1,0.1,0.2c0.1,0.1,0.1,0.1,0.2,0.1c0.1,0,0.2,0.1,0.4,0.1
			c0.3,0.1,0.5,0.1,0.7,0.2c0.1,0.1,0.2,0.1,0.3,0.3c0.1,0.1,0.1,0.3,0.1,0.4c0,0.2-0.1,0.3-0.1,0.5c-0.1,0.2-0.2,0.3-0.4,0.3
			c-0.2,0.1-0.4,0.1-0.6,0.1c-0.3,0-0.6-0.1-0.9-0.2C505.6,322.4,505.5,322.1,505.4,321.9z"/>
		<path class="st15" d="M510.4,321.7l0.5,0.1c0,0.3-0.2,0.6-0.4,0.8c-0.2,0.2-0.5,0.3-0.8,0.3c-0.4,0-0.7-0.1-1-0.4
			c-0.3-0.3-0.4-0.7-0.4-1.1c0-0.3,0-0.6,0.2-0.8c0.1-0.2,0.3-0.4,0.5-0.5c0.2-0.1,0.5-0.2,0.7-0.2c0.3,0,0.6,0.1,0.8,0.2
			c0.2,0.2,0.4,0.4,0.4,0.7l-0.5,0.1c0-0.2-0.1-0.3-0.2-0.4c-0.1-0.1-0.3-0.2-0.4-0.1c-0.2,0-0.5,0.1-0.6,0.3
			c-0.2,0.2-0.3,0.6-0.2,0.9c0,0.3,0.1,0.6,0.2,0.9c0.1,0.2,0.4,0.3,0.6,0.3c0.2,0,0.4-0.1,0.5-0.2
			C510.3,322.1,510.4,321.9,510.4,321.7z"/>
		<path class="st15" d="M513.3,322.4c-0.2,0.1-0.3,0.3-0.5,0.3c-0.2,0.1-0.4,0.1-0.6,0.1c-0.3,0-0.5-0.1-0.7-0.2
			c-0.2-0.2-0.3-0.4-0.3-0.6c0-0.1,0-0.3,0.1-0.4c0.1-0.1,0.2-0.2,0.3-0.3c0.1-0.1,0.2-0.1,0.4-0.2c0.1,0,0.3-0.1,0.4-0.1
			c0.3,0,0.6-0.1,0.9-0.2c0-0.1,0-0.1,0-0.1c0-0.2,0-0.3-0.1-0.4c-0.2-0.1-0.4-0.2-0.6-0.2c-0.2,0-0.4,0-0.5,0.1
			c-0.1,0.1-0.2,0.3-0.2,0.4l-0.5-0.1c0-0.2,0.1-0.4,0.2-0.5c0.1-0.1,0.3-0.2,0.4-0.3c0.2-0.1,0.4-0.1,0.7-0.1c0.2,0,0.4,0,0.6,0.1
			c0.1,0,0.3,0.1,0.3,0.2c0.1,0.1,0.1,0.2,0.2,0.3c0,0.2,0,0.3,0,0.5v0.7c0,0.3,0,0.6,0,0.9c0,0.1,0.1,0.2,0.1,0.4h-0.5
			C513.3,322.6,513.3,322.5,513.3,322.4z M513.2,321.3c-0.3,0.1-0.5,0.2-0.8,0.2c-0.1,0-0.3,0-0.4,0.1c-0.1,0-0.2,0.1-0.2,0.2
			c-0.1,0.2-0.1,0.4,0.1,0.6c0.1,0.1,0.3,0.1,0.4,0.1c0.2,0,0.4,0,0.5-0.1c0.1-0.1,0.3-0.2,0.3-0.3c0.1-0.2,0.1-0.3,0.1-0.5
			L513.2,321.3z"/>
		<path class="st15" d="M516.4,322.7v-0.4c-0.2,0.3-0.5,0.5-0.8,0.4c-0.2,0-0.5-0.1-0.6-0.2c-0.2-0.1-0.4-0.3-0.5-0.5
			c-0.1-0.3-0.2-0.5-0.2-0.8c0-0.3,0-0.5,0.1-0.8c0.2-0.5,0.6-0.8,1.1-0.7c0.2,0,0.3,0,0.5,0.1c0.1,0.1,0.2,0.2,0.3,0.3v-1.5h0.5
			v4.1L516.4,322.7z M514.8,321.3c0,0.3,0.1,0.6,0.2,0.8c0.1,0.2,0.3,0.3,0.6,0.3c0.2,0,0.4-0.1,0.6-0.3c0.2-0.2,0.3-0.5,0.2-0.8
			c0-0.3-0.1-0.6-0.2-0.9c-0.1-0.2-0.4-0.3-0.6-0.3c-0.2,0-0.4,0.1-0.6,0.3C514.9,320.7,514.8,321,514.8,321.3L514.8,321.3z"/>
		<path class="st15" d="M519.6,322.4c-0.2,0.1-0.3,0.3-0.5,0.3c-0.2,0.1-0.4,0.1-0.6,0.1c-0.3,0-0.5-0.1-0.7-0.2
			c-0.2-0.2-0.3-0.4-0.3-0.6c0-0.1,0-0.3,0.1-0.4c0.1-0.1,0.2-0.2,0.3-0.3c0.1-0.1,0.2-0.1,0.4-0.2c0.1,0,0.3-0.1,0.4-0.1
			c0.3,0,0.6-0.1,0.9-0.2c0-0.1,0-0.1,0-0.1c0-0.2,0-0.3-0.1-0.4c-0.2-0.1-0.4-0.2-0.6-0.2c-0.2,0-0.4,0-0.5,0.1
			c-0.1,0.1-0.2,0.3-0.2,0.4l-0.5-0.1c0-0.2,0.1-0.4,0.2-0.5c0.1-0.1,0.3-0.2,0.4-0.3c0.2-0.1,0.4-0.1,0.7-0.1c0.2,0,0.4,0,0.6,0.1
			c0.1,0,0.3,0.1,0.3,0.2c0.1,0.1,0.1,0.2,0.2,0.3c0,0.2,0,0.3,0,0.5v0.7c0,0.3,0,0.6,0,0.9c0,0.1,0.1,0.2,0.1,0.4h-0.5
			C519.6,322.6,519.6,322.5,519.6,322.4z M519.6,321.3c-0.3,0.1-0.5,0.2-0.8,0.2c-0.1,0-0.3,0-0.4,0.1c-0.1,0-0.2,0.1-0.2,0.2
			c-0.1,0.2-0.1,0.4,0.1,0.6c0.1,0.1,0.3,0.1,0.4,0.1c0.2,0,0.4,0,0.5-0.1c0.1-0.1,0.3-0.2,0.3-0.3c0.1-0.2,0.1-0.3,0.1-0.5
			L519.6,321.3z"/>
	</g>
	<g id="Outline_Icons-2-2-4-2-2-2-3-3">
		<line class="st16" x1="506.8" y1="308.3" x2="514" y2="308.3"/>
		<polyline class="st16" points="512.7,308.3 512.7,307 511.5,307 511.5,305.8 510.2,305.8 510.2,304.5 509,304.5 509,303.3 
			506.8,303.3 		"/>
		<line class="st16" x1="510.6" y1="301.1" x2="514.4" y2="305"/>
		<polyline class="st16" points="510.6,302.7 510.6,301.1 512.2,301.1 		"/>
		<polyline class="st16" points="514.4,303.5 514.4,305 513,305 		"/>
	</g>
	<circle class="st14" cx="602.8" cy="337.4" r="10.2"/>
	<g>
		<path class="st15" d="M591.5,355.3v-4.1h2.9v0.5h-2.4v1.2h2.3v0.5h-2.3v1.4h2.5v0.5H591.5z"/>
		<path class="st15" d="M595.3,355.3v-4.1h0.5v4.1H595.3z"/>
		<path class="st15" d="M598.5,354.4l0.5,0.1c-0.1,0.3-0.2,0.5-0.5,0.7c-0.6,0.4-1.4,0.3-1.9-0.1c-0.3-0.3-0.4-0.7-0.4-1.1
			c0-0.4,0.1-0.8,0.4-1.2c0.3-0.3,0.6-0.4,1-0.4c0.4,0,0.7,0.1,1,0.4c0.3,0.3,0.4,0.7,0.4,1.1c0,0,0,0.1,0,0.1h-2.2
			c0,0.3,0.1,0.5,0.3,0.7c0.2,0.2,0.4,0.3,0.6,0.3c0.2,0,0.3,0,0.5-0.1C598.4,354.7,598.5,354.6,598.5,354.4z M596.9,353.6h1.6
			c0-0.2-0.1-0.4-0.2-0.6c-0.1-0.2-0.4-0.3-0.6-0.3c-0.2,0-0.4,0.1-0.6,0.2C597,353.1,596.9,353.3,596.9,353.6z"/>
		<path class="st15" d="M600.5,355.3l-1.1-3h0.5l0.6,1.8c0.1,0.2,0.1,0.4,0.2,0.6c0-0.2,0.1-0.3,0.2-0.6l0.7-1.8h0.5l-1.1,3
			L600.5,355.3z"/>
		<path class="st15" d="M604.5,355c-0.2,0.1-0.3,0.3-0.5,0.3c-0.2,0.1-0.4,0.1-0.6,0.1c-0.3,0-0.5-0.1-0.7-0.2
			c-0.2-0.2-0.3-0.4-0.3-0.6c0-0.1,0-0.3,0.1-0.4c0.1-0.1,0.2-0.2,0.3-0.3c0.1-0.1,0.2-0.1,0.4-0.2c0.1,0,0.3-0.1,0.4-0.1
			c0.3,0,0.6-0.1,0.9-0.2c0-0.1,0-0.1,0-0.1c0-0.2,0-0.3-0.1-0.4c-0.2-0.1-0.4-0.2-0.6-0.2c-0.2,0-0.4,0-0.5,0.1
			c-0.1,0.1-0.2,0.3-0.2,0.4l-0.5-0.1c0-0.2,0.1-0.4,0.2-0.5c0.1-0.1,0.3-0.2,0.4-0.3c0.2-0.1,0.4-0.1,0.7-0.1c0.2,0,0.4,0,0.6,0.1
			c0.1,0,0.3,0.1,0.3,0.2c0.1,0.1,0.1,0.2,0.2,0.3c0,0.2,0,0.3,0,0.5v0.7c0,0.3,0,0.6,0,0.9c0,0.1,0.1,0.2,0.1,0.4h-0.5
			C604.5,355.2,604.5,355.1,604.5,355z M604.4,353.8c-0.3,0.1-0.5,0.2-0.8,0.2c-0.1,0-0.3,0-0.4,0.1c-0.1,0-0.2,0.1-0.2,0.2
			c-0.1,0.2-0.1,0.4,0.1,0.6c0.1,0.1,0.3,0.1,0.4,0.1c0.2,0,0.4,0,0.5-0.1c0.1-0.1,0.3-0.2,0.3-0.3c0.1-0.2,0.1-0.3,0.1-0.5
			L604.4,353.8z"/>
		<path class="st15" d="M606.8,354.9l0.1,0.4c-0.1,0-0.3,0-0.4,0c-0.1,0-0.3,0-0.4-0.1c-0.1-0.1-0.2-0.1-0.2-0.2
			c-0.1-0.2-0.1-0.4-0.1-0.6v-1.7h-0.4v-0.4h0.4v-0.7l0.5-0.3v1h0.5v0.4h-0.5v1.7c0,0.1,0,0.2,0,0.3c0,0,0,0.1,0.1,0.1
			c0.1,0,0.1,0,0.2,0C606.7,354.9,606.7,354.9,606.8,354.9z"/>
		<path class="st15" d="M607.1,353.9c0-0.5,0.1-0.9,0.5-1.2c0.3-0.2,0.6-0.3,0.9-0.3c0.4,0,0.7,0.1,1,0.4c0.3,0.3,0.4,0.7,0.4,1.1
			c0,0.3,0,0.6-0.2,0.9c-0.1,0.2-0.3,0.4-0.5,0.5c-0.2,0.1-0.5,0.2-0.7,0.2c-0.4,0-0.7-0.1-1-0.4
			C607.2,354.7,607.1,354.3,607.1,353.9z M607.6,353.9c0,0.3,0.1,0.6,0.2,0.9c0.3,0.3,0.8,0.4,1.2,0.1c0,0,0.1-0.1,0.1-0.1
			c0.2-0.2,0.3-0.6,0.2-0.9c0-0.3-0.1-0.6-0.2-0.8c-0.3-0.3-0.8-0.4-1.2-0.1c0,0-0.1,0.1-0.1,0.1
			C607.7,353.3,607.6,353.6,607.6,353.9z"/>
		<path class="st15" d="M610.5,355.3v-3h0.5v0.4c0.1-0.2,0.2-0.3,0.3-0.4c0.1-0.1,0.2-0.1,0.3-0.1c0.2,0,0.4,0.1,0.5,0.2l-0.2,0.5
			c-0.1-0.1-0.2-0.1-0.4-0.1c-0.1,0-0.2,0-0.3,0.1c-0.1,0.1-0.2,0.2-0.2,0.3c-0.1,0.2-0.1,0.4-0.1,0.6v1.5L610.5,355.3z"/>
		<path class="st15" d="M612.2,354.4l0.5-0.1c0,0.2,0.1,0.3,0.2,0.5c0.2,0.1,0.3,0.2,0.5,0.2c0.2,0,0.4,0,0.5-0.1
			c0.1-0.1,0.2-0.2,0.2-0.3c0-0.1-0.1-0.2-0.1-0.3c-0.2-0.1-0.3-0.1-0.5-0.2c-0.3-0.1-0.5-0.1-0.8-0.2c-0.1-0.1-0.2-0.2-0.3-0.3
			c-0.1-0.1-0.1-0.3-0.1-0.4c0-0.1,0-0.3,0.1-0.4c0.1-0.1,0.1-0.2,0.2-0.3c0.1-0.1,0.2-0.1,0.3-0.1c0.1,0,0.3-0.1,0.4-0.1
			c0.2,0,0.4,0,0.6,0.1c0.2,0.1,0.3,0.1,0.4,0.3c0.1,0.1,0.2,0.3,0.2,0.5l-0.5,0.1c0-0.1-0.1-0.3-0.2-0.4c-0.1-0.1-0.3-0.1-0.5-0.1
			c-0.2,0-0.3,0-0.5,0.1c-0.1,0.1-0.1,0.2-0.1,0.3c0,0.1,0,0.1,0.1,0.2c0.1,0.1,0.1,0.1,0.2,0.1c0.1,0,0.2,0.1,0.4,0.1
			c0.3,0.1,0.5,0.1,0.7,0.2c0.1,0.1,0.2,0.1,0.3,0.3c0.1,0.1,0.1,0.3,0.1,0.4c0,0.2-0.1,0.3-0.1,0.5c-0.1,0.2-0.2,0.3-0.4,0.3
			c-0.2,0.1-0.4,0.1-0.6,0.1c-0.3,0-0.6-0.1-0.9-0.2C612.3,355,612.2,354.7,612.2,354.4z"/>
	</g>
	<path class="st17" d="M598.4,332.6h9.1c0.2,0,0.3,0.2,0.3,0.4v9.1c0,0.2-0.2,0.4-0.3,0.4h-9.1c-0.2,0-0.3-0.2-0.3-0.4V333
		C598.1,332.8,598.2,332.6,598.4,332.6z"/>
	<rect x="600.1" y="334.8" class="st17" width="2.5" height="7.5"/>
	<rect x="602.6" y="334.8" class="st17" width="2.5" height="7.5"/>
	<line class="st17" x1="602.1" y1="333.7" x2="603.8" y2="333.7"/>
	<polyline class="st18" points="606.1,337.7 606.6,337.3 607,337.7 	"/>
	<polyline class="st18" points="606.1,338.4 606.6,338.8 607,338.4 	"/>
	<circle class="st14" cx="615" cy="304.8" r="10.2"/>
	<g>
		<path class="st15" d="M609.3,322.7l1.6-4.1h0.6l1.7,4.1h-0.6l-0.5-1.2h-1.7l-0.4,1.2H609.3z M610.5,321.1h1.4l-0.4-1.1
			c-0.1-0.3-0.2-0.6-0.3-0.8c-0.1,0.3-0.1,0.5-0.2,0.8L610.5,321.1z M610.9,318.4l0.4-0.8h0.7l-0.6,0.8H610.9z"/>
		<path class="st15" d="M614.6,322.3l0.1,0.4c-0.1,0-0.3,0-0.4,0c-0.1,0-0.3,0-0.4-0.1c-0.1-0.1-0.2-0.1-0.2-0.2
			c-0.1-0.2-0.1-0.4-0.1-0.6v-1.7h-0.4v-0.4h0.4v-0.7l0.5-0.3v1h0.5v0.4h-0.5v1.7c0,0.1,0,0.2,0,0.3c0,0,0,0.1,0.1,0.1
			c0.1,0,0.1,0,0.2,0C614.5,322.3,614.5,322.3,614.6,322.3z"/>
		<path class="st15" d="M615.1,322.7v-3h0.5v0.4c0.1-0.2,0.2-0.3,0.3-0.4c0.1-0.1,0.2-0.1,0.3-0.1c0.2,0,0.4,0.1,0.5,0.2l-0.2,0.5
			c-0.1-0.1-0.2-0.1-0.4-0.1c-0.1,0-0.2,0-0.3,0.1c-0.1,0.1-0.2,0.2-0.2,0.3c-0.1,0.2-0.1,0.4-0.1,0.6v1.5L615.1,322.7z"/>
		<path class="st15" d="M617,319.2v-0.6h0.5v0.6H617z M617,322.7v-3h0.5v3H617z"/>
		<path class="st15" d="M618.1,321.3c0-0.5,0.1-0.9,0.5-1.2c0.3-0.2,0.6-0.3,0.9-0.3c0.4,0,0.7,0.1,1,0.4c0.3,0.3,0.4,0.7,0.4,1.1
			c0,0.3,0,0.6-0.2,0.9c-0.1,0.2-0.3,0.4-0.5,0.5c-0.2,0.1-0.5,0.2-0.7,0.2c-0.4,0-0.7-0.1-1-0.4
			C618.2,322.1,618.1,321.7,618.1,321.3z M618.6,321.3c0,0.3,0.1,0.6,0.2,0.9c0.3,0.3,0.8,0.4,1.2,0.1c0,0,0.1-0.1,0.1-0.1
			c0.2-0.2,0.3-0.6,0.2-0.9c0-0.3-0.1-0.6-0.2-0.8c-0.3-0.3-0.8-0.4-1.2-0.1c0,0-0.1,0.1-0.1,0.1C618.7,320.7,618.6,321,618.6,321.3
			L618.6,321.3z"/>
	</g>
	<path class="st17" d="M610.7,300h9.1c0.2,0,0.3,0.2,0.3,0.4v9.1c0,0.2-0.2,0.4-0.3,0.4h-9.1c-0.2,0-0.3-0.2-0.3-0.4v-9.1
		C610.3,300.2,610.5,300,610.7,300z"/>
	<rect x="612.3" y="302.3" class="st17" width="2.5" height="7.5"/>
	<rect x="614.8" y="302.3" class="st17" width="2.5" height="7.5"/>
	<line class="st17" x1="614.4" y1="301.1" x2="616.1" y2="301.1"/>
	<polyline class="st18" points="618.3,305.2 618.8,304.7 619.3,305.2 	"/>
	<polyline class="st18" points="618.3,305.8 618.8,306.2 619.3,305.8 	"/>
	<g>
		<path class="st15" d="M626.7,185.5l0.5,0.1c-0.1,0.4-0.3,0.8-0.6,1c-0.3,0.2-0.7,0.4-1.1,0.3c-0.4,0-0.7-0.1-1.1-0.3
			c-0.3-0.2-0.5-0.5-0.6-0.8c-0.1-0.3-0.2-0.7-0.2-1.1c0-0.4,0.1-0.8,0.2-1.1c0.2-0.3,0.4-0.6,0.7-0.7c0.3-0.2,0.6-0.2,1-0.2
			c0.4,0,0.7,0.1,1,0.3c0.3,0.2,0.5,0.5,0.6,0.9l-0.5,0.1c-0.1-0.3-0.2-0.5-0.4-0.6c-0.2-0.1-0.4-0.2-0.7-0.2
			c-0.3,0-0.6,0.1-0.8,0.2c-0.2,0.1-0.4,0.4-0.4,0.6c-0.1,0.3-0.1,0.5-0.1,0.8c0,0.3,0,0.6,0.2,0.9c0.1,0.2,0.3,0.4,0.5,0.6
			c0.2,0.1,0.4,0.2,0.7,0.2c0.3,0,0.6-0.1,0.8-0.3C626.5,186,626.7,185.8,626.7,185.5z"/>
		<path class="st15" d="M627.9,183.4v-0.6h0.5v0.6L627.9,183.4z M627.9,186.9v-3h0.5v3H627.9z"/>
		<path class="st15" d="M629.1,186.9v-3h0.5v0.4c0.1-0.2,0.2-0.3,0.3-0.4c0.1-0.1,0.2-0.1,0.3-0.1c0.2,0,0.4,0.1,0.5,0.2l-0.2,0.5
			c-0.1-0.1-0.2-0.1-0.4-0.1c-0.1,0-0.2,0-0.3,0.1c-0.1,0.1-0.2,0.2-0.2,0.3c-0.1,0.2-0.1,0.4-0.1,0.6v1.5L629.1,186.9z"/>
		<path class="st15" d="M633,185.8l0.5,0.1c0,0.3-0.2,0.6-0.4,0.8c-0.2,0.2-0.5,0.3-0.8,0.3c-0.4,0-0.7-0.1-1-0.4
			c-0.3-0.3-0.4-0.7-0.4-1.1c0-0.3,0-0.6,0.2-0.8c0.1-0.2,0.3-0.4,0.5-0.5c0.2-0.1,0.5-0.2,0.7-0.2c0.3,0,0.6,0.1,0.8,0.2
			c0.2,0.2,0.4,0.4,0.4,0.7l-0.5,0.1c0-0.2-0.1-0.3-0.2-0.4c-0.1-0.1-0.3-0.2-0.4-0.1c-0.2,0-0.5,0.1-0.6,0.3
			c-0.2,0.2-0.3,0.6-0.2,0.9c0,0.3,0.1,0.6,0.2,0.9c0.1,0.2,0.4,0.3,0.6,0.3c0.2,0,0.4-0.1,0.5-0.2C632.9,186.2,632.9,186,633,185.8
			z"/>
		<path class="st15" d="M635.8,186.9v-0.4c-0.2,0.3-0.6,0.5-0.9,0.5c-0.2,0-0.3,0-0.5-0.1c-0.1-0.1-0.2-0.1-0.3-0.3
			c-0.1-0.1-0.1-0.2-0.2-0.4c0-0.2,0-0.3,0-0.5v-1.8h0.5v1.6c0,0.2,0,0.4,0,0.5c0,0.1,0.1,0.2,0.2,0.3c0.1,0.1,0.2,0.1,0.4,0.1
			c0.1,0,0.3,0,0.4-0.1c0.1-0.1,0.2-0.2,0.3-0.3c0.1-0.2,0.1-0.4,0.1-0.6v-1.6h0.5v3L635.8,186.9z"/>
		<path class="st15" d="M637,186.9v-4.1h0.5v4.1L637,186.9z"/>
		<path class="st15" d="M640.2,186.5c-0.2,0.1-0.3,0.3-0.5,0.3c-0.2,0.1-0.4,0.1-0.6,0.1c-0.3,0-0.5-0.1-0.7-0.2
			c-0.2-0.2-0.3-0.4-0.3-0.6c0-0.3,0.1-0.5,0.4-0.7c0.1-0.1,0.2-0.1,0.4-0.2c0.1,0,0.3-0.1,0.4-0.1c0.3,0,0.6-0.1,0.9-0.2
			c0-0.1,0-0.1,0-0.1c0-0.2,0-0.3-0.1-0.4c-0.2-0.1-0.4-0.2-0.6-0.2c-0.2,0-0.4,0-0.5,0.1c-0.1,0.1-0.2,0.3-0.2,0.4l-0.5-0.1
			c0-0.2,0.1-0.4,0.2-0.5c0.1-0.1,0.3-0.2,0.4-0.3c0.2-0.1,0.4-0.1,0.7-0.1c0.2,0,0.4,0,0.6,0.1c0.1,0,0.3,0.1,0.3,0.2
			c0.1,0.1,0.1,0.2,0.2,0.3c0,0.2,0,0.3,0,0.5v0.7c0,0.3,0,0.6,0,0.9c0,0.1,0.1,0.2,0.1,0.4h-0.5
			C640.3,186.8,640.3,186.7,640.2,186.5z M640.2,185.4c-0.3,0.1-0.5,0.2-0.8,0.2c-0.1,0-0.3,0-0.4,0.1c-0.1,0-0.2,0.1-0.2,0.2
			c-0.1,0.2-0.1,0.4,0.1,0.6c0.1,0.1,0.3,0.1,0.4,0.1c0.2,0,0.4,0,0.5-0.1c0.1-0.1,0.3-0.2,0.3-0.3c0.1-0.2,0.1-0.3,0.1-0.5
			L640.2,185.4z"/>
		<path class="st15" d="M643.4,185.8l0.5,0.1c0,0.3-0.2,0.6-0.4,0.8c-0.2,0.2-0.5,0.3-0.8,0.3c-0.4,0-0.7-0.1-1-0.4
			c-0.3-0.3-0.4-0.7-0.4-1.1c0-0.3,0-0.6,0.2-0.8c0.1-0.2,0.3-0.4,0.5-0.5c0.2-0.1,0.5-0.2,0.7-0.2c0.3,0,0.6,0.1,0.8,0.2
			c0.2,0.2,0.4,0.4,0.4,0.7l-0.5,0.1c0-0.2-0.1-0.3-0.2-0.4c-0.1-0.1-0.3-0.2-0.4-0.1c-0.2,0-0.5,0.1-0.6,0.3
			c-0.2,0.2-0.3,0.6-0.2,0.9c0,0.3,0.1,0.6,0.2,0.9c0.1,0.2,0.4,0.3,0.6,0.3c0.2,0,0.4-0.1,0.5-0.2
			C643.3,186.2,643.4,186,643.4,185.8z M642.3,187.3l0.1-0.5h0.4l-0.1,0.3c0.1,0,0.3,0.1,0.4,0.1c0.1,0.1,0.1,0.2,0.1,0.3
			c0,0.1-0.1,0.3-0.2,0.4c-0.2,0.1-0.4,0.2-0.6,0.2c-0.1,0-0.3,0-0.4,0l0-0.3c0.1,0,0.2,0,0.3,0c0.1,0,0.3,0,0.4-0.1
			c0,0,0.1-0.1,0.1-0.1c0,0,0-0.1,0-0.1c0,0-0.1-0.1-0.1-0.1C642.4,187.3,642.3,187.3,642.3,187.3L642.3,187.3z"/>
		<path class="st15" d="M646.3,186.5c-0.2,0.1-0.3,0.3-0.5,0.3c-0.2,0.1-0.4,0.1-0.6,0.1c-0.3,0-0.5-0.1-0.7-0.2
			c-0.2-0.2-0.3-0.4-0.3-0.6c0-0.3,0.1-0.5,0.4-0.7c0.1-0.1,0.2-0.1,0.4-0.2c0.1,0,0.3-0.1,0.4-0.1c0.3,0,0.6-0.1,0.9-0.2
			c0-0.1,0-0.1,0-0.1c0-0.2,0-0.3-0.1-0.4c-0.2-0.1-0.4-0.2-0.6-0.2c-0.2,0-0.4,0-0.5,0.1c-0.1,0.1-0.2,0.3-0.2,0.4l-0.5-0.1
			c0-0.2,0.1-0.4,0.2-0.5c0.1-0.1,0.3-0.2,0.4-0.3c0.2-0.1,0.4-0.1,0.7-0.1c0.2,0,0.4,0,0.6,0.1c0.1,0,0.3,0.1,0.3,0.2
			c0.1,0.1,0.1,0.2,0.2,0.3c0,0.2,0,0.3,0,0.5v0.7c0,0.3,0,0.6,0,0.9c0,0.1,0.1,0.2,0.1,0.4h-0.5
			C646.3,186.8,646.3,186.7,646.3,186.5z M644.6,183.5c0-0.2,0-0.3,0.2-0.5c0.1-0.1,0.3-0.2,0.4-0.2c0.2,0,0.3,0.1,0.5,0.1
			c0.1,0,0.2,0.1,0.3,0.1c0.1,0,0.1,0,0.1,0c0-0.1,0.1-0.1,0.1-0.2h0.4c0,0.2,0,0.3-0.2,0.5c-0.1,0.1-0.2,0.2-0.4,0.2
			c-0.2,0-0.3-0.1-0.5-0.2c-0.1-0.1-0.2-0.1-0.3-0.1c-0.1,0-0.1,0-0.2,0.1c0,0.1-0.1,0.1-0.1,0.2L644.6,183.5z M646.2,185.4
			c-0.3,0.1-0.5,0.2-0.8,0.2c-0.1,0-0.3,0-0.4,0.1c-0.1,0-0.2,0.1-0.2,0.2c-0.1,0.2-0.1,0.4,0.1,0.6c0.1,0.1,0.3,0.1,0.4,0.1
			c0.2,0,0.4,0,0.5-0.1c0.1-0.1,0.3-0.2,0.3-0.3c0.1-0.2,0.1-0.3,0.1-0.5L646.2,185.4z"/>
		<path class="st15" d="M647.3,185.4c0-0.5,0.1-0.9,0.5-1.2c0.3-0.2,0.6-0.3,0.9-0.3c0.4,0,0.7,0.1,1,0.4c0.3,0.3,0.4,0.7,0.4,1.1
			c0,0.3,0,0.6-0.2,0.9c-0.1,0.2-0.3,0.4-0.5,0.5c-0.2,0.1-0.5,0.2-0.7,0.2c-0.4,0-0.7-0.1-1-0.4
			C647.4,186.2,647.3,185.8,647.3,185.4z M647.8,185.4c0,0.3,0.1,0.6,0.2,0.9c0.3,0.3,0.8,0.4,1.2,0.1c0,0,0.1-0.1,0.1-0.1
			c0.2-0.2,0.3-0.6,0.2-0.9c0-0.3-0.1-0.6-0.2-0.8c-0.3-0.3-0.8-0.4-1.2-0.1c0,0-0.1,0-0.1,0.1C647.9,184.8,647.8,185.1,647.8,185.4
			L647.8,185.4z"/>
	</g>
	<g>
		<path class="st15" d="M592.5,171.5V171h2.6v0.4c-0.3,0.3-0.6,0.7-0.8,1.1c-0.3,0.4-0.4,0.9-0.6,1.4c-0.1,0.4-0.2,0.7-0.2,1.1H593
			c0-0.4,0.1-0.8,0.2-1.2c0.1-0.5,0.3-0.9,0.5-1.3c0.2-0.4,0.4-0.7,0.7-1.1L592.5,171.5z"/>
		<path class="st15" d="M597.5,175H597v-3.2c-0.1,0.1-0.3,0.2-0.5,0.3c-0.2,0.1-0.3,0.2-0.5,0.3v-0.5c0.3-0.1,0.5-0.3,0.7-0.5
			c0.2-0.2,0.3-0.3,0.4-0.5h0.3V175z"/>
		<path class="st15" d="M598.8,173.9l0.5,0c0,0.2,0.1,0.4,0.3,0.6c0.1,0.1,0.3,0.2,0.5,0.2c0.2,0,0.5-0.1,0.6-0.3
			c0.2-0.2,0.3-0.5,0.2-0.7c0-0.2-0.1-0.5-0.2-0.7c-0.2-0.2-0.4-0.3-0.6-0.2c-0.2,0-0.3,0-0.4,0.1c-0.1,0.1-0.2,0.2-0.3,0.3
			l-0.5-0.1l0.4-2.1h2v0.5h-1.6l-0.2,1.1c0.2-0.2,0.5-0.3,0.8-0.3c0.3,0,0.7,0.1,0.9,0.4c0.2,0.3,0.4,0.6,0.4,1c0,0.3-0.1,0.7-0.3,1
			c-0.3,0.3-0.7,0.5-1.1,0.5c-0.3,0-0.7-0.1-0.9-0.3C598.9,174.5,598.8,174.2,598.8,173.9z"/>
	</g>
	<g>
		<path class="st15" d="M614.7,125.3v-0.5h2.6v0.4c-0.3,0.3-0.6,0.7-0.8,1.1c-0.3,0.4-0.4,0.9-0.6,1.4c-0.1,0.4-0.2,0.7-0.2,1.1
			h-0.5c0-0.4,0.1-0.8,0.2-1.2c0.1-0.5,0.3-0.9,0.5-1.3c0.2-0.4,0.4-0.7,0.7-1.1L614.7,125.3z"/>
		<path class="st15" d="M619.7,128.8h-0.5v-3.2c-0.1,0.1-0.3,0.2-0.5,0.3c-0.2,0.1-0.3,0.2-0.5,0.3v-0.5c0.3-0.1,0.5-0.3,0.7-0.5
			c0.2-0.2,0.3-0.3,0.4-0.5h0.3V128.8z"/>
		<path class="st15" d="M623.6,125.8l-0.5,0c0-0.2-0.1-0.3-0.2-0.4c-0.1-0.1-0.3-0.2-0.5-0.2c-0.2,0-0.3,0-0.4,0.1
			c-0.2,0.1-0.3,0.3-0.4,0.5c-0.1,0.3-0.2,0.6-0.1,0.9c0.1-0.2,0.3-0.3,0.4-0.4c0.2-0.1,0.4-0.1,0.5-0.1c0.3,0,0.6,0.1,0.9,0.4
			c0.2,0.3,0.4,0.6,0.4,1c0,0.2-0.1,0.5-0.2,0.7c-0.1,0.2-0.3,0.4-0.5,0.5c-0.2,0.1-0.4,0.2-0.7,0.2c-0.4,0-0.8-0.2-1-0.5
			c-0.3-0.4-0.4-1-0.4-1.5c-0.1-0.6,0.1-1.2,0.4-1.7c0.2-0.3,0.6-0.5,1-0.5c0.3,0,0.6,0.1,0.8,0.3
			C623.4,125.2,623.6,125.5,623.6,125.8z M621.5,127.5c0,0.2,0,0.3,0.1,0.5c0.1,0.1,0.2,0.3,0.3,0.4c0.1,0.1,0.3,0.1,0.4,0.1
			c0.2,0,0.4-0.1,0.5-0.3c0.2-0.2,0.2-0.4,0.2-0.7c0-0.2-0.1-0.5-0.2-0.7c-0.1-0.2-0.4-0.2-0.6-0.2c-0.2,0-0.4,0.1-0.6,0.2
			C621.6,127,621.5,127.3,621.5,127.5L621.5,127.5z"/>
	</g>
	<g>
		<path class="st15" d="M780,176.5v-0.5h2.6v0.4c-0.3,0.3-0.6,0.7-0.8,1.1c-0.3,0.4-0.4,0.9-0.6,1.4c-0.1,0.4-0.2,0.7-0.2,1.1h-0.5
			c0-0.4,0.1-0.8,0.2-1.2c0.1-0.5,0.3-0.9,0.5-1.3c0.2-0.4,0.4-0.7,0.7-1.1L780,176.5z"/>
		<path class="st15" d="M785,180.1h-0.5v-3.2c-0.1,0.1-0.3,0.2-0.5,0.3c-0.2,0.1-0.3,0.2-0.5,0.3V177c0.3-0.1,0.5-0.3,0.7-0.5
			c0.2-0.2,0.3-0.3,0.4-0.5h0.3V180.1z"/>
		<path class="st15" d="M787.1,177.9c-0.2-0.1-0.3-0.2-0.5-0.3c-0.1-0.1-0.2-0.3-0.2-0.5c0-0.3,0.1-0.6,0.3-0.7
			c0.2-0.2,0.5-0.3,0.9-0.3c0.3,0,0.6,0.1,0.9,0.3c0.2,0.2,0.3,0.5,0.3,0.8c0,0.2,0,0.3-0.1,0.5c-0.1,0.2-0.3,0.3-0.5,0.3
			c0.2,0.1,0.4,0.2,0.6,0.4c0.1,0.2,0.2,0.4,0.2,0.6c0,0.3-0.1,0.7-0.4,0.9c-0.6,0.5-1.4,0.5-1.9,0c-0.2-0.2-0.4-0.6-0.4-0.9
			c0-0.2,0.1-0.5,0.2-0.7C786.7,178.1,786.9,177.9,787.1,177.9z M786.8,178.9c0,0.1,0,0.3,0.1,0.4c0.1,0.1,0.2,0.2,0.3,0.3
			c0.1,0.1,0.3,0.1,0.4,0.1c0.2,0,0.4-0.1,0.6-0.2c0.2-0.2,0.2-0.4,0.2-0.6c0-0.2-0.1-0.4-0.2-0.6c-0.2-0.2-0.4-0.2-0.6-0.2
			C787.2,178.1,786.8,178.4,786.8,178.9C786.8,178.9,786.8,178.9,786.8,178.9L786.8,178.9z M787,177c0,0.2,0.1,0.3,0.2,0.5
			c0.1,0.1,0.3,0.2,0.5,0.2c0.2,0,0.3-0.1,0.5-0.2c0.1-0.1,0.2-0.3,0.2-0.4c0-0.2-0.1-0.3-0.2-0.5c-0.1-0.1-0.3-0.2-0.5-0.2
			c-0.2,0-0.3,0.1-0.5,0.2C787.1,176.7,787,176.9,787,177L787,177z"/>
	</g>
	<g>
		<path class="st15" d="M716.4,309.1v-0.5h2.6v0.4c-0.3,0.3-0.6,0.7-0.8,1.1c-0.3,0.4-0.4,0.9-0.6,1.4c-0.1,0.4-0.2,0.7-0.2,1.1
			h-0.5c0-0.4,0.1-0.8,0.2-1.2c0.1-0.5,0.3-0.9,0.5-1.3c0.2-0.4,0.4-0.7,0.7-1.1L716.4,309.1z"/>
		<path class="st15" d="M722.1,312.1v0.5h-2.7c0-0.1,0-0.2,0.1-0.3c0.1-0.2,0.2-0.4,0.3-0.5c0.2-0.2,0.4-0.4,0.7-0.6
			c0.3-0.3,0.6-0.5,0.9-0.9c0.1-0.2,0.2-0.4,0.2-0.6c0-0.2-0.1-0.4-0.2-0.5c-0.2-0.1-0.4-0.2-0.6-0.2c-0.2,0-0.4,0.1-0.6,0.2
			c-0.2,0.2-0.2,0.4-0.2,0.6l-0.5-0.1c0-0.3,0.2-0.6,0.4-0.9c0.3-0.2,0.6-0.3,0.9-0.3c0.3,0,0.7,0.1,0.9,0.3
			c0.2,0.2,0.3,0.5,0.3,0.8c0,0.2,0,0.3-0.1,0.5c-0.1,0.2-0.2,0.4-0.3,0.5c-0.2,0.3-0.5,0.5-0.8,0.7c-0.3,0.3-0.5,0.4-0.6,0.5
			c-0.1,0.1-0.2,0.2-0.2,0.3L722.1,312.1z"/>
		<path class="st15" d="M722.7,310.6c0-0.4,0-0.8,0.1-1.2c0.1-0.3,0.2-0.5,0.4-0.7c0.2-0.2,0.5-0.2,0.7-0.2c0.2,0,0.4,0,0.6,0.1
			c0.2,0.1,0.3,0.2,0.4,0.4c0.1,0.2,0.2,0.4,0.3,0.6c0.1,0.3,0.1,0.6,0.1,1c0,0.4,0,0.8-0.1,1.2c-0.1,0.3-0.2,0.5-0.4,0.7
			c-0.2,0.2-0.5,0.3-0.7,0.2c-0.4,0-0.7-0.1-0.9-0.4C722.7,311.8,722.6,311.2,722.7,310.6z M723.2,310.6c0,0.5,0,0.9,0.2,1.3
			c0.2,0.3,0.6,0.4,0.9,0.2c0.1-0.1,0.2-0.1,0.2-0.2c0.3-0.9,0.3-1.8,0-2.7c-0.1-0.2-0.3-0.3-0.6-0.3c-0.2,0-0.4,0.1-0.5,0.3
			C723.2,309.7,723.1,310.1,723.2,310.6z"/>
	</g>
	<g>
		<path class="st15" d="M662.5,455.7v-0.5h2.6v0.4c-0.3,0.3-0.6,0.7-0.8,1.1c-0.3,0.4-0.4,0.9-0.6,1.4c-0.1,0.4-0.2,0.7-0.2,1.1
			h-0.5c0-0.4,0.1-0.8,0.2-1.2c0.1-0.5,0.3-0.9,0.5-1.3c0.2-0.4,0.4-0.7,0.7-1.1L662.5,455.7z"/>
		<path class="st15" d="M668.3,458.8v0.5h-2.7c0-0.1,0-0.2,0.1-0.3c0.1-0.2,0.2-0.4,0.3-0.5c0.2-0.2,0.4-0.4,0.7-0.6
			c0.3-0.3,0.6-0.5,0.9-0.9c0.1-0.2,0.2-0.4,0.2-0.6c0-0.2-0.1-0.4-0.2-0.5c-0.2-0.1-0.4-0.2-0.6-0.2c-0.2,0-0.4,0.1-0.6,0.2
			c-0.2,0.2-0.2,0.4-0.2,0.6l-0.5-0.1c0-0.3,0.2-0.6,0.4-0.9c0.3-0.2,0.6-0.3,0.9-0.3c0.3,0,0.7,0.1,0.9,0.3
			c0.2,0.2,0.3,0.5,0.3,0.8c0,0.2,0,0.3-0.1,0.5c-0.1,0.2-0.2,0.4-0.3,0.5c-0.2,0.3-0.5,0.5-0.8,0.7c-0.3,0.3-0.5,0.4-0.6,0.5
			c-0.1,0.1-0.2,0.2-0.2,0.3L668.3,458.8z"/>
		<path class="st15" d="M668.9,455.7v-0.5h2.6v0.4c-0.3,0.3-0.6,0.7-0.8,1.1c-0.3,0.4-0.4,0.9-0.6,1.4c-0.1,0.4-0.2,0.7-0.2,1.1
			h-0.5c0-0.4,0.1-0.8,0.2-1.2c0.1-0.5,0.3-0.9,0.5-1.3c0.2-0.4,0.4-0.7,0.7-1.1L668.9,455.7z"/>
	</g>
	<g>
		<path class="st15" d="M646,532.9v-0.5h2.6v0.4c-0.3,0.3-0.6,0.7-0.8,1.1c-0.3,0.4-0.4,0.9-0.6,1.4c-0.1,0.4-0.2,0.7-0.2,1.1h-0.5
			c0-0.4,0.1-0.8,0.2-1.2c0.1-0.5,0.3-0.9,0.5-1.3c0.2-0.4,0.4-0.7,0.7-1.1L646,532.9z"/>
		<path class="st15" d="M651.8,535.9v0.5h-2.7c0-0.1,0-0.2,0.1-0.3c0.1-0.2,0.2-0.4,0.3-0.5c0.2-0.2,0.4-0.4,0.7-0.6
			c0.3-0.3,0.6-0.5,0.9-0.9c0.1-0.2,0.2-0.4,0.2-0.6c0-0.2-0.1-0.4-0.2-0.5c-0.2-0.1-0.4-0.2-0.6-0.2c-0.2,0-0.4,0.1-0.6,0.2
			c-0.2,0.2-0.2,0.4-0.2,0.6l-0.5-0.1c0-0.3,0.2-0.6,0.4-0.9c0.3-0.2,0.6-0.3,0.9-0.3c0.3,0,0.7,0.1,0.9,0.3
			c0.2,0.2,0.3,0.5,0.3,0.8c0,0.2,0,0.3-0.1,0.5c-0.1,0.2-0.2,0.4-0.3,0.5c-0.2,0.3-0.5,0.5-0.8,0.7c-0.3,0.3-0.5,0.4-0.6,0.5
			c-0.1,0.1-0.2,0.2-0.2,0.3L651.8,535.9z"/>
		<path class="st15" d="M652.3,535.3l0.5-0.1c0,0.2,0.1,0.4,0.3,0.6c0.1,0.1,0.3,0.2,0.5,0.2c0.2,0,0.4-0.1,0.6-0.2
			c0.2-0.2,0.2-0.4,0.2-0.6c0-0.2-0.1-0.4-0.2-0.6c-0.2-0.2-0.4-0.2-0.6-0.2c-0.1,0-0.2,0-0.4,0.1l0.1-0.4c0,0,0.1,0,0.1,0
			c0.2,0,0.4-0.1,0.6-0.2c0.2-0.1,0.3-0.3,0.3-0.5c0-0.2-0.1-0.3-0.2-0.5c-0.1-0.1-0.3-0.2-0.5-0.2c-0.2,0-0.4,0.1-0.5,0.2
			c-0.1,0.2-0.2,0.3-0.2,0.6l-0.5-0.1c0-0.3,0.2-0.6,0.4-0.8c0.2-0.2,0.5-0.3,0.8-0.3c0.2,0,0.4,0,0.6,0.1c0.2,0.1,0.3,0.2,0.4,0.4
			c0.1,0.2,0.1,0.3,0.1,0.5c0,0.2,0,0.3-0.1,0.5c-0.1,0.2-0.2,0.3-0.4,0.3c0.2,0,0.4,0.2,0.6,0.3c0.1,0.2,0.2,0.4,0.2,0.7
			c0,0.3-0.1,0.7-0.4,0.9c-0.3,0.2-0.6,0.4-1,0.4c-0.3,0-0.6-0.1-0.9-0.3C652.5,536,652.3,535.7,652.3,535.3z"/>
	</g>
	<g>
		<path class="st15" d="M632.4,603.5v-0.5h2.6v0.4c-0.3,0.3-0.6,0.7-0.8,1.1c-0.3,0.4-0.4,0.9-0.6,1.4c-0.1,0.4-0.2,0.7-0.2,1.1
			h-0.5c0-0.4,0.1-0.8,0.2-1.2c0.1-0.5,0.3-0.9,0.5-1.3c0.2-0.4,0.4-0.7,0.7-1.1L632.4,603.5z"/>
		<path class="st15" d="M638.1,606.6v0.5h-2.7c0-0.1,0-0.2,0.1-0.3c0.1-0.2,0.2-0.4,0.3-0.5c0.2-0.2,0.4-0.4,0.7-0.6
			c0.3-0.3,0.6-0.5,0.9-0.9c0.1-0.2,0.2-0.4,0.2-0.6c0-0.2-0.1-0.4-0.2-0.5c-0.2-0.1-0.4-0.2-0.6-0.2c-0.2,0-0.4,0.1-0.6,0.2
			c-0.2,0.2-0.2,0.4-0.2,0.6l-0.5-0.1c0-0.3,0.2-0.6,0.4-0.9c0.3-0.2,0.6-0.3,0.9-0.3c0.3,0,0.7,0.1,0.9,0.3
			c0.2,0.2,0.3,0.5,0.3,0.8c0,0.2,0,0.3-0.1,0.5c-0.1,0.2-0.2,0.4-0.3,0.5c-0.2,0.3-0.5,0.5-0.8,0.7c-0.3,0.3-0.5,0.4-0.6,0.5
			c-0.1,0.1-0.2,0.2-0.2,0.3L638.1,606.6z"/>
		<path class="st15" d="M640.3,607.1v-1h-1.8v-0.5l1.9-2.6h0.4v2.6h0.6v0.5h-0.6v1H640.3z M640.3,605.6v-1.8l-1.3,1.8H640.3z"/>
	</g>
	<g>
		<path class="st15" d="M498.7,593.7v-0.5h2.6v0.4c-0.3,0.3-0.6,0.7-0.8,1.1c-0.3,0.4-0.4,0.9-0.6,1.4c-0.1,0.4-0.2,0.7-0.2,1.1
			h-0.5c0-0.4,0.1-0.8,0.2-1.2c0.1-0.5,0.3-0.9,0.5-1.3c0.2-0.4,0.4-0.7,0.7-1.1L498.7,593.7z"/>
		<path class="st15" d="M501.8,595.2c0-0.4,0-0.8,0.1-1.2c0.1-0.3,0.2-0.5,0.4-0.7c0.2-0.2,0.5-0.2,0.7-0.2c0.2,0,0.4,0,0.6,0.1
			c0.2,0.1,0.3,0.2,0.4,0.4c0.1,0.2,0.2,0.4,0.3,0.6c0.1,0.3,0.1,0.6,0.1,1c0,0.4,0,0.8-0.1,1.2c-0.1,0.3-0.2,0.5-0.4,0.7
			c-0.2,0.2-0.5,0.3-0.7,0.2c-0.4,0-0.7-0.1-0.9-0.4C501.9,596.4,501.8,595.8,501.8,595.2z M502.3,595.2c0,0.5,0,0.9,0.2,1.3
			c0.2,0.3,0.6,0.4,0.9,0.2c0.1-0.1,0.2-0.1,0.2-0.2c0.3-0.9,0.3-1.8,0-2.7c-0.1-0.2-0.3-0.3-0.6-0.3c-0.2,0-0.4,0.1-0.5,0.3
			C502.4,594.3,502.3,594.7,502.3,595.2z"/>
		<path class="st15" d="M507.6,596.7v0.5h-2.7c0-0.1,0-0.2,0.1-0.3c0.1-0.2,0.2-0.4,0.3-0.5c0.2-0.2,0.4-0.4,0.7-0.6
			c0.3-0.3,0.6-0.5,0.9-0.9c0.1-0.2,0.2-0.4,0.2-0.6c0-0.2-0.1-0.4-0.2-0.5c-0.2-0.1-0.4-0.2-0.6-0.2c-0.2,0-0.4,0.1-0.6,0.2
			c-0.2,0.2-0.2,0.4-0.2,0.6l-0.5-0.1c0-0.3,0.2-0.6,0.4-0.9c0.3-0.2,0.6-0.3,0.9-0.3c0.3,0,0.7,0.1,0.9,0.3
			c0.2,0.2,0.3,0.5,0.3,0.8c0,0.2,0,0.3-0.1,0.5c-0.1,0.2-0.2,0.4-0.3,0.5c-0.2,0.3-0.5,0.5-0.8,0.7c-0.3,0.3-0.5,0.4-0.6,0.5
			c-0.1,0.1-0.2,0.2-0.2,0.3L507.6,596.7z"/>
	</g>
	<g>
		<path class="st15" d="M392.1,430.9v-0.5h2.6v0.4c-0.3,0.3-0.6,0.7-0.8,1.1c-0.3,0.4-0.4,0.9-0.6,1.4c-0.1,0.4-0.2,0.7-0.2,1.1
			h-0.5c0-0.4,0.1-0.8,0.2-1.2c0.1-0.5,0.3-0.9,0.5-1.3c0.2-0.4,0.4-0.7,0.7-1.1L392.1,430.9z"/>
		<path class="st15" d="M397.2,434.4h-0.5v-3.2c-0.1,0.1-0.3,0.2-0.5,0.3c-0.2,0.1-0.3,0.2-0.5,0.3v-0.5c0.3-0.1,0.5-0.3,0.7-0.5
			c0.2-0.2,0.3-0.3,0.4-0.5h0.3V434.4z"/>
		<path class="st15" d="M398.4,432.4c0-0.4,0-0.8,0.1-1.2c0.1-0.3,0.2-0.5,0.4-0.7c0.2-0.2,0.5-0.2,0.7-0.2c0.2,0,0.4,0,0.6,0.1
			c0.2,0.1,0.3,0.2,0.4,0.4c0.1,0.2,0.2,0.4,0.3,0.6c0.1,0.3,0.1,0.6,0.1,1c0,0.4,0,0.8-0.1,1.2c-0.1,0.3-0.2,0.5-0.4,0.7
			c-0.2,0.2-0.5,0.3-0.7,0.2c-0.4,0-0.7-0.1-0.9-0.4C398.5,433.6,398.4,433,398.4,432.4z M399,432.4c0,0.5,0,0.9,0.2,1.3
			c0.2,0.3,0.6,0.4,0.9,0.2c0.1-0.1,0.2-0.1,0.2-0.2c0.3-0.9,0.3-1.8,0-2.7c-0.1-0.2-0.3-0.3-0.6-0.3c-0.2,0-0.4,0.1-0.5,0.3
			C399,431.5,398.9,431.9,399,432.4z"/>
	</g>
	<g>
		<path class="st15" d="M503.1,403.7v-0.5h2.6v0.4c-0.3,0.3-0.6,0.7-0.8,1.1c-0.3,0.4-0.4,0.9-0.6,1.4c-0.1,0.4-0.2,0.7-0.2,1.1
			h-0.5c0-0.4,0.1-0.8,0.2-1.2c0.1-0.5,0.3-0.9,0.5-1.3c0.2-0.4,0.4-0.7,0.7-1.1L503.1,403.7z"/>
		<path class="st15" d="M508.1,407.3h-0.5v-3.2c-0.1,0.1-0.3,0.2-0.5,0.3c-0.2,0.1-0.3,0.2-0.5,0.3v-0.5c0.3-0.1,0.5-0.3,0.7-0.5
			c0.2-0.2,0.3-0.3,0.4-0.5h0.3V407.3z"/>
		<path class="st15" d="M512,406.8v0.5h-2.7c0-0.1,0-0.2,0.1-0.3c0.1-0.2,0.2-0.4,0.3-0.5c0.2-0.2,0.4-0.4,0.7-0.6
			c0.3-0.3,0.6-0.5,0.9-0.9c0.1-0.2,0.2-0.4,0.2-0.6c0-0.2-0.1-0.4-0.2-0.5c-0.2-0.1-0.4-0.2-0.6-0.2c-0.2,0-0.4,0.1-0.6,0.2
			c-0.2,0.2-0.2,0.4-0.2,0.6l-0.5-0.1c0-0.3,0.2-0.6,0.4-0.9c0.3-0.2,0.6-0.3,0.9-0.3c0.3,0,0.7,0.1,0.9,0.3
			c0.2,0.2,0.3,0.5,0.3,0.8c0,0.2,0,0.3-0.1,0.5c-0.1,0.2-0.2,0.4-0.3,0.5c-0.2,0.3-0.5,0.5-0.8,0.7c-0.3,0.3-0.5,0.4-0.6,0.5
			c-0.1,0.1-0.2,0.2-0.2,0.3L512,406.8z"/>
	</g>
</g>
</svg>
