<?xml version="1.0" encoding="utf-8"?>
<!-- Generator: Adobe Illustrator 25.4.0, SVG Export Plug-In . SVG Version: 6.00 Build 0)  -->
<svg version="1.1" id="Layer_1" xmlns="http://www.w3.org/2000/svg" xmlns:xlink="http://www.w3.org/1999/xlink" x="0px" y="0px"
	 viewBox="0 0 1340 841.9" style="enable-background:new 0 0 1340 841.9;" xml:space="preserve">
<style type="text/css">
	.st0{fill:#4196B1;}
	.st1{fill:#AAE0E4;}
	.st2{fill:#8ECCCE;}
	.st3{fill:#99B8BF;}
	.st4{fill:#9AD8D6;}
	.st5{opacity:0.74;fill:#575757;enable-background:new    ;}
	.st6{enable-background:new    ;}
	.st7{fill:#FFFFFF;}
	.st8{display:none;}
	.st9{opacity:0.15;fill:#010101;enable-background:new    ;}
	.st10{fill:#596068;}
	.st11{fill:#9BAEB7;}
	.st12{fill:none;stroke:#7A8E93;stroke-linecap:round;stroke-miterlimit:10;}
	.st13{opacity:5.000000e-02;fill:#040404;enable-background:new    ;}
	.st14{fill:#B8BFC1;}
	.st15{fill:#7A8E93;stroke:#758589;stroke-width:0.749;stroke-miterlimit:10;}
	.st16{fill:#9BAEB7;stroke:#93A6AD;stroke-width:0.752;stroke-miterlimit:10;}
	.st17{fill:none;stroke:#93A6AD;stroke-width:0.752;stroke-miterlimit:10;}
	.st18{opacity:8.000000e-02;fill:#101010;enable-background:new    ;}
	.st19{fill:#7A8E93;stroke:#758589;stroke-width:0.78;stroke-miterlimit:10;}
	.st20{fill:#9BAEB7;stroke:#93A6AD;stroke-width:0.78;stroke-miterlimit:10;}
	.st21{fill:none;stroke:#EFEFEF;stroke-width:8;stroke-miterlimit:10;}
	.st22{fill:none;stroke:#EFEFEF;stroke-width:4;stroke-miterlimit:10;}
	.st23{fill:#EBF1F2;}
	.st24{fill:#767E80;}
	.st25{fill:none;stroke:#7A8E93;stroke-width:0.5;stroke-miterlimit:10;}
	.st26{fill:#EBF2F2;}
	.st27{fill:#7A8E93;stroke:#7A8E93;stroke-width:0.65;stroke-miterlimit:10;}
	.st28{fill:#757D7F;}
	.st29{fill:none;stroke:#7A8E93;stroke-width:0.75;stroke-miterlimit:10;}
	.st30{fill:none;stroke:#7A8E93;stroke-width:0.75;stroke-miterlimit:10.0009;}
	.st31{fill:none;stroke:#7A8E93;stroke-width:0.75;stroke-miterlimit:9.9997;}
	.st32{fill:none;stroke:#7A8E93;stroke-width:0.38;stroke-miterlimit:10;}
</style>
<g id="shadow">
	<path class="st0" d="M12.2,274l209.3,434l63.8,37.4l883.1-1.8c0,0,78.7-193.8,112.4-237L830,103.9l-343.7,73.3l-41.7-99.3L12.2,274
		z"/>
</g>
<g id="background">
	<path class="st1" d="M31,271l206.1,427.4l62.8,36.8l869.7-1.8c0,0,77.5-190.9,110.7-233.4L836.4,103.5L498,175.7l-41.1-97.8L31,271
		z"/>
</g>
<g id="spaces">
	<polygon class="st2" points="769.7,241.2 810.5,231 937.8,345.6 1039.2,436.3 1037.2,439.9 1100.7,490.6 1069.7,545.3 
		1054.1,545.3 1054.1,558.1 1001.6,558.1 1001.4,492.6 782.7,295 	"/>
	<polygon class="st2" points="497.4,244.3 688,201.8 854.7,166.9 842,108.5 833.9,102.2 498,176.6 497.4,241.9 	"/>
	<polygon class="st2" points="495.4,267.8 580.2,250.3 580.2,361.1 495.4,361.1 495.4,270.9 	"/>
	<polygon class="st3" points="861,200.1 923.4,184.3 842,108.5 846.6,129.6 	"/>
	<polygon class="st3" points="495.4,361.1 580.2,361.1 580.2,499.2 495,499.2 	"/>
	<polygon class="st3" points="456.9,77.8 498,176.6 492.9,733.4 299.9,735.1 237.1,698.3 31,271 	"/>
	<polygon class="st3" points="1027.2,274 1111.5,349.2 1083.4,379.5 1050.6,415 967.9,340.8 	"/>
	<polygon class="st3" points="1184.7,413.6 1164.4,447.6 1167.6,451.2 1274.7,505.6 1278.7,498.6 	"/>
	<polygon class="st2" points="821.8,209.5 885.5,265.1 967.9,340.8 1027.2,274 926.8,184.3 	"/>
	<polygon class="st2" points="1050.6,415 1112.5,470.9 1139.9,494 1184.7,413.6 1111.5,349.2 	"/>
	<polygon class="st2" points="1087,588.6 1207.4,644.1 1254.9,539.7 1274.7,505.6 1269.3,505.6 1164.4,447.6 	"/>
	<rect x="1037.2" y="603.7" class="st2" width="29.9" height="42.9"/>
	<polygon class="st2" points="1030,676.1 1030,668.5 1067.1,668.5 1067.1,735.1 1004.2,735.1 1004.2,676.6 	"/>
	<polygon class="st2" points="936.3,595.9 945.6,595.9 945.6,733.4 492.9,733.4 492.9,605 624.6,605 783.8,605 896.5,605 936.3,605 
			"/>
	<path class="st2" d="M779.1,532.8h82.2v-23.5h31.9v-21.2c0,0-9.2-10.8-13.2-10s-87.3,0-87.3,0s-13.6,1-13.6,14.6L779.1,532.8z"/>
	<rect x="494.5" y="499.2" class="st2" width="91" height="56.2"/>
	<polygon class="st2" points="655.7,234.1 692.7,226.5 703.7,267.8 736.1,260 747.8,302.3 676,317.5 676,490.9 676,505.4 
		616.7,505.4 616.7,447.5 605.5,447.5 605.5,417 605.5,292.8 670,292.8 	"/>
	<path class="st4" d="M676,317.5L782.7,295l218.6,197.6v51.2l-108.2-1.2v-54.5c0,0-4.7-10.3-13.2-10s-89.4,0-89.4,0
		s-11.5,2.7-11.5,14.6v48.7h-70.5v-48.7H676V317.5z"/>
</g>
<g id="bookable">
	<polygon id="area-GF.17-status" class="st5" points="769.7,240.1 809.8,231 849.5,269.2 849.5,273.1 807.6,317.5 782.7,295 	"/>
	<polygon id="area-GF.16-status" class="st5" points="851.5,270.9 896.6,309.7 851.5,357.2 807.6,317.5 	"/>
	<polygon id="area-GF.15-status" class="st5" points="945.2,352.2 990.4,392.7 945.2,442 900.7,401.7 	"/>
	<polygon id="area-GF.14-status" class="st5" points="990.4,392.7 1039.2,436.3 994.2,486.3 945.2,442 	"/>
	<polygon id="area-GF.13-status" class="st5" points="1100.7,490.6 1069.7,545.3 1054.1,545.3 1054.1,559 1000.3,558.1 
		1001.4,492.6 994.2,486.3 1036.3,439.5 1048.6,449.1 	"/>
	<polygon id="area-GF.12-status" class="st5" points="491.8,605 568.3,605 568.3,732.2 492.9,732.2 	"/>
	<rect id="area-GF.11-status" x="568.3" y="604.2" class="st5" width="101.7" height="128"/>
	<rect id="area-GF.10-status" x="670" y="605" class="st5" width="78.4" height="127.2"/>
	<rect id="area-GF.09-status" x="748.1" y="605" class="st5" width="111.7" height="127.2"/>
	<circle id="area-GF.08-status" class="st5" cx="1121.7" cy="657.1" r="46.4"/>
	<path id="area-GF.07-status" class="st5" d="M1163.6,449.1l111.2,58.2c0,0-61.5,113.7-69.1,136L1087,589.7L1163.6,449.1z"/>
	<polygon id="area-GF.06-status" class="st5" points="931.6,187.3 1027.2,274 967.9,340.8 868.7,250 	"/>
	<g class="st6">
		<path class="st7" d="M911.1,261.4v-7.1h-2.5v-1.5h6.8v1.5h-2.5v7.1H911.1z"/>
	</g>
	<g class="st6">
		<path class="st7" d="M919.2,259.4l1.6,0.3c-0.2,0.6-0.5,1.1-1,1.4s-1,0.5-1.7,0.5c-1.1,0-1.9-0.4-2.4-1.1
			c-0.4-0.6-0.6-1.3-0.6-2.1c0-1,0.3-1.8,0.8-2.4s1.2-0.9,2-0.9c0.9,0,1.7,0.3,2.2,0.9c0.5,0.6,0.8,1.5,0.8,2.8h-4.1
			c0,0.5,0.1,0.9,0.4,1.1s0.6,0.4,0.9,0.4c0.3,0,0.5-0.1,0.7-0.2S919.1,259.8,919.2,259.4z M919.3,257.8c0-0.5-0.1-0.8-0.4-1.1
			s-0.5-0.4-0.9-0.4s-0.7,0.1-0.9,0.4s-0.3,0.6-0.3,1.1H919.3z"/>
		<path class="st7" d="M923.5,257.1l-1.5-0.3c0.2-0.6,0.5-1,0.9-1.3s1-0.4,1.8-0.4c0.7,0,1.3,0.1,1.6,0.3s0.6,0.4,0.8,0.7
			s0.2,0.8,0.2,1.5v1.9c0,0.5,0,1,0.1,1.2s0.2,0.5,0.3,0.8H926c0-0.1-0.1-0.3-0.2-0.5c0-0.1,0-0.2-0.1-0.2c-0.3,0.3-0.6,0.5-0.9,0.6
			s-0.7,0.2-1,0.2c-0.6,0-1.1-0.2-1.5-0.5s-0.6-0.8-0.6-1.3c0-0.4,0.1-0.7,0.3-0.9s0.4-0.5,0.7-0.6s0.7-0.3,1.3-0.4
			c0.8-0.1,1.3-0.3,1.6-0.4v-0.2c0-0.3-0.1-0.5-0.2-0.7s-0.5-0.2-0.9-0.2c-0.3,0-0.5,0.1-0.7,0.2S923.6,256.8,923.5,257.1z
			 M925.7,258.4c-0.2,0.1-0.5,0.2-1,0.3s-0.8,0.2-0.9,0.3c-0.2,0.2-0.3,0.3-0.3,0.6c0,0.2,0.1,0.4,0.3,0.6s0.4,0.3,0.7,0.3
			s0.6-0.1,0.8-0.3c0.2-0.1,0.3-0.3,0.4-0.5c0-0.1,0.1-0.4,0.1-0.8L925.7,258.4L925.7,258.4z"/>
		<path class="st7" d="M928.8,255.2h1.5v0.8c0.5-0.7,1.2-1,1.9-1c0.4,0,0.7,0.1,1,0.2s0.5,0.4,0.7,0.7c0.3-0.3,0.6-0.6,0.9-0.7
			s0.7-0.2,1-0.2c0.5,0,0.8,0.1,1.2,0.3s0.6,0.5,0.7,0.8c0.1,0.3,0.2,0.7,0.2,1.3v4h-1.6v-3.6c0-0.6-0.1-1-0.2-1.2
			c-0.2-0.2-0.4-0.4-0.7-0.4c-0.2,0-0.4,0.1-0.7,0.2s-0.3,0.3-0.4,0.6s-0.1,0.7-0.1,1.3v3h-1.6V258c0-0.6,0-1-0.1-1.2
			s-0.1-0.3-0.3-0.4s-0.3-0.1-0.5-0.1c-0.3,0-0.5,0.1-0.7,0.2s-0.3,0.3-0.4,0.6s-0.1,0.7-0.1,1.3v3h-1.6v-6.2H928.8z"/>
		<path class="st7" d="M942.9,261.4v-8.6h3.7c0.9,0,1.6,0.1,2,0.2s0.7,0.4,1,0.8s0.4,0.8,0.4,1.4c0,0.6-0.2,1.2-0.6,1.6
			s-0.9,0.7-1.7,0.8c0.4,0.2,0.7,0.5,0.9,0.7s0.6,0.7,1,1.4l1,1.7h-2.1l-1.3-1.9c-0.4-0.7-0.8-1.1-0.9-1.3s-0.3-0.3-0.5-0.4
			s-0.5-0.1-0.9-0.1h-0.4v3.6L942.9,261.4L942.9,261.4z M944.7,256.5h1.3c0.8,0,1.4,0,1.6-0.1s0.4-0.2,0.5-0.4s0.2-0.4,0.2-0.6
			c0-0.3-0.1-0.5-0.2-0.7s-0.4-0.3-0.7-0.3c-0.1,0-0.6,0-1.3,0h-1.4L944.7,256.5L944.7,256.5z"/>
		<path class="st7" d="M951.2,258.2c0-0.5,0.1-1.1,0.4-1.6s0.7-0.9,1.1-1.2s1-0.4,1.7-0.4c0.9,0,1.7,0.3,2.3,0.9s0.9,1.4,0.9,2.3
			s-0.3,1.7-0.9,2.3s-1.4,0.9-2.3,0.9c-0.6,0-1.1-0.1-1.6-0.4s-0.9-0.6-1.2-1.1S951.2,258.9,951.2,258.2z M952.9,258.3
			c0,0.6,0.1,1.1,0.4,1.4s0.7,0.5,1.1,0.5s0.8-0.2,1.1-0.5s0.4-0.8,0.4-1.4s-0.1-1.1-0.4-1.4s-0.7-0.5-1.1-0.5s-0.8,0.2-1.1,0.5
			S952.9,257.7,952.9,258.3z"/>
		<path class="st7" d="M958.5,258.2c0-0.5,0.1-1.1,0.4-1.6s0.7-0.9,1.1-1.2s1-0.4,1.7-0.4c0.9,0,1.7,0.3,2.3,0.9s0.9,1.4,0.9,2.3
			s-0.3,1.7-0.9,2.3s-1.4,0.9-2.3,0.9c-0.6,0-1.1-0.1-1.6-0.4s-0.9-0.6-1.2-1.1S958.5,258.9,958.5,258.2z M960.2,258.3
			c0,0.6,0.1,1.1,0.4,1.4s0.7,0.5,1.1,0.5s0.8-0.2,1.1-0.5s0.4-0.8,0.4-1.4s-0.1-1.1-0.4-1.4s-0.7-0.5-1.1-0.5s-0.8,0.2-1.1,0.5
			S960.2,257.7,960.2,258.3z"/>
		<path class="st7" d="M966.1,255.2h1.5v0.8c0.5-0.7,1.2-1,1.9-1c0.4,0,0.7,0.1,1,0.2s0.5,0.4,0.7,0.7c0.3-0.3,0.6-0.6,0.9-0.7
			s0.7-0.2,1-0.2c0.5,0,0.8,0.1,1.2,0.3s0.6,0.5,0.7,0.8c0.1,0.3,0.2,0.7,0.2,1.3v4h-1.6v-3.6c0-0.6-0.1-1-0.2-1.2
			c-0.2-0.2-0.4-0.4-0.7-0.4c-0.2,0-0.4,0.1-0.7,0.2s-0.3,0.3-0.4,0.6s-0.1,0.7-0.1,1.3v3h-1.6V258c0-0.6,0-1-0.1-1.2
			s-0.1-0.3-0.3-0.4s-0.3-0.1-0.5-0.1c-0.3,0-0.5,0.1-0.7,0.2s-0.3,0.3-0.4,0.6s-0.1,0.7-0.1,1.3v3h-1.6v-6.2H966.1z"/>
	</g>
	<g class="st6">
		<path class="st7" d="M937.1,267.2c0.8,0,1.5,0.3,2,0.9c0.6,0.7,0.8,1.9,0.8,3.5s-0.3,2.8-0.8,3.5c-0.5,0.6-1.1,0.9-1.9,0.9
			c-0.8,0-1.5-0.3-2-1s-0.8-1.8-0.8-3.4s0.3-2.8,0.8-3.5C935.6,267.5,936.3,267.2,937.1,267.2z M937.1,268.6c-0.2,0-0.4,0.1-0.5,0.2
			s-0.3,0.4-0.4,0.7c-0.1,0.4-0.2,1.1-0.2,2.2s0.1,1.7,0.2,2.1s0.2,0.6,0.4,0.8s0.3,0.2,0.5,0.2s0.4-0.1,0.5-0.2s0.3-0.4,0.4-0.7
			c0.1-0.4,0.2-1.1,0.2-2.1s-0.1-1.7-0.2-2.1s-0.2-0.6-0.4-0.8S937.3,268.6,937.1,268.6z"/>
		<path class="st7" d="M943.8,267.2c0.8,0,1.5,0.3,2,0.9c0.6,0.7,0.8,1.9,0.8,3.5s-0.3,2.8-0.8,3.5c-0.5,0.6-1.1,0.9-1.9,0.9
			c-0.8,0-1.5-0.3-2-1s-0.8-1.8-0.8-3.4s0.3-2.8,0.8-3.5C942.3,267.5,943,267.2,943.8,267.2z M943.8,268.6c-0.2,0-0.4,0.1-0.5,0.2
			s-0.3,0.4-0.4,0.7c-0.1,0.4-0.2,1.1-0.2,2.2s0.1,1.7,0.2,2.1s0.2,0.6,0.4,0.8s0.3,0.2,0.5,0.2s0.4-0.1,0.5-0.2s0.3-0.4,0.4-0.7
			c0.1-0.4,0.2-1.1,0.2-2.1s-0.1-1.7-0.2-2.1s-0.2-0.6-0.4-0.8S944,268.6,943.8,268.6z"/>
		<path class="st7" d="M951.9,275.8h-1.6v-6.2c-0.6,0.6-1.3,1-2.1,1.2v-1.5c0.4-0.1,0.9-0.4,1.4-0.8s0.8-0.9,1-1.4h1.3L951.9,275.8
			L951.9,275.8z"/>
	</g>
	<g class="st6">
		<path class="st7" d="M1177.9,550.1l1.7,0.5c-0.3,0.9-0.7,1.6-1.3,2.1s-1.4,0.7-2.3,0.7c-1.1,0-2.1-0.4-2.8-1.2s-1.1-1.8-1.1-3.2
			s0.4-2.5,1.1-3.3s1.7-1.2,2.9-1.2c1.1,0,1.9,0.3,2.6,0.9c0.4,0.4,0.7,0.9,0.9,1.6l-1.7,0.4c-0.1-0.4-0.3-0.8-0.6-1.1
			s-0.7-0.4-1.2-0.4c-0.6,0-1.2,0.2-1.5,0.7s-0.6,1.2-0.6,2.2c0,1.1,0.2,1.9,0.6,2.3s0.9,0.7,1.5,0.7c0.5,0,0.9-0.1,1.2-0.4
			S1177.8,550.7,1177.9,550.1z"/>
		<path class="st7" d="M1181.1,553.3v-8.6h3.7c0.9,0,1.6,0.1,2,0.2s0.7,0.4,1,0.8s0.4,0.8,0.4,1.4c0,0.6-0.2,1.2-0.6,1.6
			s-0.9,0.7-1.7,0.8c0.4,0.2,0.7,0.5,0.9,0.7s0.6,0.7,1,1.4l1,1.7h-2.1l-1.3-1.9c-0.4-0.7-0.8-1.1-0.9-1.3s-0.3-0.3-0.5-0.4
			s-0.5-0.1-0.9-0.1h-0.4v3.6L1181.1,553.3L1181.1,553.3z M1182.9,548.3h1.3c0.8,0,1.4,0,1.6-0.1s0.4-0.2,0.5-0.4s0.2-0.4,0.2-0.6
			c0-0.3-0.1-0.5-0.2-0.7s-0.4-0.3-0.7-0.3c-0.1,0-0.6,0-1.3,0h-1.4V548.3z"/>
		<path class="st7" d="M1193.6,553.3h-1.6v-6.2c-0.6,0.6-1.3,1-2.1,1.2v-1.5c0.4-0.1,0.9-0.4,1.4-0.8s0.8-0.9,1-1.4h1.3
			L1193.6,553.3L1193.6,553.3z"/>
	</g>
	<g class="st6">
		<path class="st7" d="M1116,658.6l1.7,0.5c-0.3,0.9-0.7,1.6-1.3,2.1s-1.4,0.7-2.3,0.7c-1.1,0-2.1-0.4-2.8-1.2s-1.1-1.8-1.1-3.2
			s0.4-2.5,1.1-3.3s1.7-1.2,2.9-1.2c1.1,0,1.9,0.3,2.6,0.9c0.4,0.4,0.7,0.9,0.9,1.6l-1.7,0.4c-0.1-0.4-0.3-0.8-0.6-1.1
			s-0.7-0.4-1.2-0.4c-0.6,0-1.2,0.2-1.5,0.7s-0.6,1.2-0.6,2.2c0,1.1,0.2,1.9,0.6,2.3s0.9,0.7,1.5,0.7c0.5,0,0.9-0.1,1.2-0.4
			S1115.9,659.2,1116,658.6z"/>
		<path class="st7" d="M1119.2,661.7v-8.6h3.7c0.9,0,1.6,0.1,2,0.2s0.7,0.4,1,0.8s0.4,0.8,0.4,1.4c0,0.6-0.2,1.2-0.6,1.6
			s-0.9,0.7-1.7,0.8c0.4,0.2,0.7,0.5,0.9,0.7s0.6,0.7,1,1.4l1,1.7h-2.1l-1.3-1.9c-0.4-0.7-0.8-1.1-0.9-1.3s-0.3-0.3-0.5-0.4
			s-0.5-0.1-0.9-0.1h-0.4v3.6L1119.2,661.7L1119.2,661.7z M1120.9,656.8h1.3c0.8,0,1.4,0,1.6-0.1s0.4-0.2,0.5-0.4s0.2-0.4,0.2-0.6
			c0-0.3-0.1-0.5-0.2-0.7s-0.4-0.3-0.7-0.3c-0.1,0-0.6,0-1.3,0h-1.4V656.8z"/>
		<path class="st7" d="M1133.1,660.2v1.5h-5.8c0.1-0.6,0.2-1.1,0.6-1.6s0.9-1.2,1.9-2.1c0.7-0.7,1.2-1.2,1.4-1.4
			c0.2-0.3,0.3-0.7,0.3-1c0-0.4-0.1-0.6-0.3-0.8s-0.5-0.3-0.8-0.3s-0.6,0.1-0.8,0.3s-0.3,0.6-0.4,1l-1.6-0.2c0.1-0.9,0.4-1.6,0.9-2
			s1.2-0.6,1.9-0.6c0.8,0,1.5,0.2,2,0.7s0.7,1,0.7,1.7c0,0.4-0.1,0.8-0.2,1.1s-0.4,0.7-0.7,1.1c-0.2,0.3-0.6,0.6-1.1,1.1
			s-0.8,0.8-1,0.9s-0.3,0.3-0.3,0.5L1133.1,660.2L1133.1,660.2z"/>
	</g>
	<g class="st6">
		<path class="st7" d="M797.8,661.5l1.7,0.5c-0.3,0.9-0.7,1.6-1.3,2.1s-1.4,0.7-2.3,0.7c-1.1,0-2.1-0.4-2.8-1.2s-1.1-1.8-1.1-3.2
			s0.4-2.5,1.1-3.3s1.7-1.2,2.9-1.2c1.1,0,1.9,0.3,2.6,0.9c0.4,0.4,0.7,0.9,0.9,1.6l-1.7,0.4c-0.1-0.4-0.3-0.8-0.6-1.1
			s-0.7-0.4-1.2-0.4c-0.6,0-1.2,0.2-1.5,0.7s-0.6,1.2-0.6,2.2c0,1.1,0.2,1.9,0.6,2.3s0.9,0.7,1.5,0.7c0.5,0,0.9-0.1,1.2-0.4
			S797.6,662.1,797.8,661.5z"/>
		<path class="st7" d="M801,664.7v-8.6h3.7c0.9,0,1.6,0.1,2,0.2s0.7,0.4,1,0.8s0.4,0.8,0.4,1.4c0,0.6-0.2,1.2-0.6,1.6
			s-0.9,0.7-1.7,0.8c0.4,0.2,0.7,0.5,0.9,0.7s0.6,0.7,1,1.4l1,1.7h-2.1l-1.3-1.9c-0.4-0.7-0.8-1.1-0.9-1.3s-0.3-0.3-0.5-0.4
			s-0.5-0.1-0.9-0.1h-0.4v3.6L801,664.7L801,664.7z M802.7,659.7h1.3c0.8,0,1.4,0,1.6-0.1s0.4-0.2,0.5-0.4s0.2-0.4,0.2-0.6
			c0-0.3-0.1-0.5-0.2-0.7s-0.4-0.3-0.7-0.3c-0.1,0-0.6,0-1.3,0h-1.4L802.7,659.7L802.7,659.7z"/>
		<path class="st7" d="M809.2,662.4l1.6-0.2c0.1,0.4,0.2,0.7,0.4,0.9s0.5,0.3,0.8,0.3s0.6-0.1,0.9-0.4s0.3-0.6,0.3-1s-0.1-0.7-0.3-1
			s-0.5-0.4-0.8-0.4c-0.2,0-0.5,0-0.8,0.1l0.2-1.3c0.4,0,0.8-0.1,1-0.3s0.4-0.5,0.4-0.8s-0.1-0.5-0.3-0.7s-0.4-0.3-0.7-0.3
			s-0.5,0.1-0.7,0.3s-0.3,0.5-0.4,0.9l-1.5-0.3c0.1-0.5,0.3-0.9,0.5-1.2s0.5-0.6,0.9-0.7s0.8-0.3,1.3-0.3c0.8,0,1.5,0.3,1.9,0.8
			c0.4,0.4,0.6,0.9,0.6,1.4c0,0.8-0.4,1.4-1.2,1.8c0.5,0.1,0.9,0.3,1.2,0.7s0.4,0.8,0.4,1.3c0,0.8-0.3,1.4-0.8,1.9s-1.2,0.8-2.1,0.8
			c-0.8,0-1.4-0.2-1.9-0.7S809.3,663.1,809.2,662.4z"/>
	</g>
	<g class="st6">
		<path class="st7" d="M705.9,661.5l1.7,0.5c-0.3,0.9-0.7,1.6-1.3,2.1s-1.4,0.7-2.3,0.7c-1.1,0-2.1-0.4-2.8-1.2s-1.1-1.8-1.1-3.2
			s0.4-2.5,1.1-3.3s1.7-1.2,2.9-1.2c1.1,0,1.9,0.3,2.6,0.9c0.4,0.4,0.7,0.9,0.9,1.6l-1.7,0.4c-0.1-0.4-0.3-0.8-0.6-1.1
			s-0.7-0.4-1.2-0.4c-0.6,0-1.2,0.2-1.5,0.7s-0.6,1.2-0.6,2.2c0,1.1,0.2,1.9,0.6,2.3s0.9,0.7,1.5,0.7c0.5,0,0.9-0.1,1.2-0.4
			S705.7,662.1,705.9,661.5z"/>
		<path class="st7" d="M709,664.7v-8.6h3.7c0.9,0,1.6,0.1,2,0.2s0.7,0.4,1,0.8s0.4,0.8,0.4,1.4c0,0.6-0.2,1.2-0.6,1.6
			s-0.9,0.7-1.7,0.8c0.4,0.2,0.7,0.5,0.9,0.7s0.6,0.7,1,1.4l1,1.7h-2.1l-1.3-1.9c-0.4-0.7-0.8-1.1-0.9-1.3s-0.3-0.3-0.5-0.4
			s-0.5-0.1-0.9-0.1h-0.4v3.6L709,664.7L709,664.7z M710.8,659.7h1.3c0.8,0,1.4,0,1.6-0.1s0.4-0.2,0.5-0.4s0.2-0.4,0.2-0.6
			c0-0.3-0.1-0.5-0.2-0.7s-0.4-0.3-0.7-0.3c-0.1,0-0.6,0-1.3,0h-1.4L710.8,659.7L710.8,659.7z"/>
		<path class="st7" d="M720.6,664.7V663H717v-1.4l3.7-5.5h1.4v5.4h1.1v1.4h-1.1v1.7L720.6,664.7L720.6,664.7z M720.6,661.5v-2.9
			l-2,2.9H720.6z"/>
	</g>
	<g class="st6">
		<path class="st7" d="M617.1,661.5l1.7,0.5c-0.3,0.9-0.7,1.6-1.3,2.1s-1.4,0.7-2.3,0.7c-1.1,0-2.1-0.4-2.8-1.2s-1.1-1.8-1.1-3.2
			s0.4-2.5,1.1-3.3s1.7-1.2,2.9-1.2c1.1,0,1.9,0.3,2.6,0.9c0.4,0.4,0.7,0.9,0.9,1.6l-1.7,0.4c-0.1-0.4-0.3-0.8-0.6-1.1
			s-0.7-0.4-1.2-0.4c-0.6,0-1.2,0.2-1.5,0.7s-0.6,1.2-0.6,2.2c0,1.1,0.2,1.9,0.6,2.3s0.9,0.7,1.5,0.7c0.5,0,0.9-0.1,1.2-0.4
			S616.9,662.1,617.1,661.5z"/>
		<path class="st7" d="M620.2,664.7v-8.6h3.7c0.9,0,1.6,0.1,2,0.2s0.7,0.4,1,0.8s0.4,0.8,0.4,1.4c0,0.6-0.2,1.2-0.6,1.6
			s-0.9,0.7-1.7,0.8c0.4,0.2,0.7,0.5,0.9,0.7s0.6,0.7,1,1.4l1,1.7h-2.1l-1.3-1.9c-0.4-0.7-0.8-1.1-0.9-1.3s-0.3-0.3-0.5-0.4
			s-0.5-0.1-0.9-0.1H622v3.6L620.2,664.7L620.2,664.7z M622,659.7h1.3c0.8,0,1.4,0,1.6-0.1s0.4-0.2,0.5-0.4s0.2-0.4,0.2-0.6
			c0-0.3-0.1-0.5-0.2-0.7s-0.4-0.3-0.7-0.3c-0.1,0-0.6,0-1.3,0H622V659.7z"/>
		<path class="st7" d="M628.6,662.4l1.6-0.2c0,0.4,0.2,0.7,0.4,0.9s0.5,0.3,0.8,0.3s0.6-0.1,0.9-0.4s0.4-0.7,0.4-1.3
			c0-0.5-0.1-0.9-0.4-1.2s-0.5-0.4-0.9-0.4c-0.5,0-0.9,0.2-1.3,0.6l-1.3-0.2l0.8-4.5h4.4v1.5h-3.1l-0.3,1.5c0.4-0.2,0.7-0.3,1.1-0.3
			c0.7,0,1.3,0.3,1.9,0.8s0.8,1.2,0.8,2.1c0,0.7-0.2,1.3-0.6,1.9c-0.6,0.8-1.3,1.1-2.3,1.1c-0.8,0-1.4-0.2-1.9-0.6
			S628.7,663.2,628.6,662.4z"/>
	</g>
	<g class="st6">
		<path class="st7" d="M525.1,661.5l1.7,0.5c-0.3,0.9-0.7,1.6-1.3,2.1s-1.4,0.7-2.3,0.7c-1.1,0-2.1-0.4-2.8-1.2s-1.1-1.8-1.1-3.2
			s0.4-2.5,1.1-3.3s1.7-1.2,2.9-1.2c1.1,0,1.9,0.3,2.6,0.9c0.4,0.4,0.7,0.9,0.9,1.6l-1.7,0.4c-0.1-0.4-0.3-0.8-0.6-1.1
			s-0.7-0.4-1.2-0.4c-0.6,0-1.2,0.2-1.5,0.7s-0.6,1.2-0.6,2.2c0,1.1,0.2,1.9,0.6,2.3s0.9,0.7,1.5,0.7c0.5,0,0.9-0.1,1.2-0.4
			S525,662.1,525.1,661.5z"/>
		<path class="st7" d="M528.3,664.7v-8.6h3.7c0.9,0,1.6,0.1,2,0.2s0.7,0.4,1,0.8s0.4,0.8,0.4,1.4c0,0.6-0.2,1.2-0.6,1.6
			s-0.9,0.7-1.7,0.8c0.4,0.2,0.7,0.5,0.9,0.7s0.6,0.7,1,1.4l1,1.7h-2l-1.3-1.9c-0.4-0.7-0.8-1.1-0.9-1.3s-0.3-0.3-0.5-0.4
			s-0.5-0.1-0.9-0.1H530v3.6L528.3,664.7L528.3,664.7z M530.1,659.7h1.3c0.8,0,1.4,0,1.6-0.1s0.4-0.2,0.5-0.4s0.2-0.4,0.2-0.6
			c0-0.3-0.1-0.5-0.2-0.7s-0.4-0.3-0.7-0.3c-0.1,0-0.6,0-1.3,0h-1.4L530.1,659.7L530.1,659.7z"/>
		<path class="st7" d="M542.2,658.2l-1.6,0.2c0-0.3-0.1-0.6-0.3-0.7s-0.4-0.2-0.6-0.2c-0.3,0-0.6,0.2-0.9,0.5s-0.4,1-0.5,2
			c0.4-0.5,0.9-0.7,1.5-0.7c0.7,0,1.3,0.3,1.8,0.8s0.7,1.2,0.7,2c0,0.9-0.3,1.6-0.8,2.1s-1.2,0.8-2,0.8c-0.9,0-1.6-0.3-2.1-1
			s-0.8-1.8-0.8-3.3c0-1.6,0.3-2.7,0.9-3.4s1.3-1,2.3-1c0.7,0,1.2,0.2,1.6,0.5S542.1,657.5,542.2,658.2z M538.5,661.8
			c0,0.5,0.1,0.9,0.4,1.2s0.5,0.4,0.8,0.4s0.6-0.1,0.8-0.4s0.3-0.6,0.3-1.2c0-0.6-0.1-1-0.3-1.2s-0.5-0.4-0.8-0.4s-0.6,0.1-0.8,0.4
			S538.5,661.3,538.5,661.8z"/>
	</g>
	<g class="st6">
		<path class="st7" d="M1038,500.2l1.7,0.5c-0.3,0.9-0.7,1.6-1.3,2.1s-1.4,0.7-2.3,0.7c-1.1,0-2.1-0.4-2.8-1.2s-1.1-1.8-1.1-3.2
			c0-1.4,0.4-2.5,1.1-3.3s1.7-1.2,2.9-1.2c1.1,0,1.9,0.3,2.6,0.9c0.4,0.4,0.7,0.9,0.9,1.6l-1.7,0.4c-0.1-0.4-0.3-0.8-0.6-1.1
			s-0.7-0.4-1.2-0.4c-0.6,0-1.2,0.2-1.5,0.7s-0.6,1.2-0.6,2.2c0,1.1,0.2,1.9,0.6,2.3s0.9,0.7,1.5,0.7c0.5,0,0.9-0.1,1.2-0.4
			S1037.9,500.8,1038,500.2z"/>
		<path class="st7" d="M1041.2,503.3v-8.6h3.7c0.9,0,1.6,0.1,2,0.2s0.7,0.4,1,0.8s0.4,0.8,0.4,1.4s-0.2,1.2-0.6,1.6
			s-0.9,0.7-1.7,0.8c0.4,0.2,0.7,0.5,0.9,0.7s0.6,0.7,1,1.4l1,1.7h-2.1l-1.3-1.9c-0.4-0.7-0.8-1.1-0.9-1.3s-0.3-0.3-0.5-0.4
			s-0.5-0.1-0.9-0.1h-0.4v3.6L1041.2,503.3L1041.2,503.3z M1043,498.4h1.3c0.8,0,1.4,0,1.6-0.1s0.4-0.2,0.5-0.4s0.2-0.4,0.2-0.6
			c0-0.3-0.1-0.5-0.2-0.7s-0.4-0.3-0.7-0.3c-0.1,0-0.6,0-1.3,0h-1.4V498.4z"/>
		<path class="st7" d="M1049.5,496.4v-1.5h5.6v1.2c-0.5,0.5-0.9,1.1-1.4,2s-0.8,1.8-1.1,2.7s-0.4,1.8-0.4,2.6h-1.6
			c0-1.2,0.3-2.4,0.7-3.6s1.1-2.3,1.9-3.3h-3.7V496.4z"/>
	</g>
	<g class="st6">
		<path class="st7" d="M983.1,441.4v-8.6h1.7v8.6H983.1z"/>
		<path class="st7" d="M986.5,441.4v-8.6h3.7c0.9,0,1.6,0.1,2,0.2s0.7,0.4,1,0.8s0.4,0.8,0.4,1.4s-0.2,1.2-0.6,1.6s-0.9,0.7-1.7,0.8
			c0.4,0.2,0.7,0.5,0.9,0.7s0.6,0.7,1,1.4l1,1.7h-2.1l-1.3-1.9c-0.4-0.7-0.8-1.1-0.9-1.3s-0.3-0.3-0.5-0.4s-0.5-0.1-0.9-0.1h-0.4
			v3.6L986.5,441.4L986.5,441.4z M988.2,436.5h1.3c0.8,0,1.4,0,1.6-0.1s0.4-0.2,0.5-0.4s0.2-0.4,0.2-0.6c0-0.3-0.1-0.5-0.2-0.7
			s-0.4-0.3-0.7-0.3c-0.1,0-0.6,0-1.3,0h-1.4L988.2,436.5L988.2,436.5z"/>
		<path class="st7" d="M999,441.4h-1.6v-6.2c-0.6,0.6-1.3,1-2.1,1.2V435c0.4-0.1,0.9-0.4,1.4-0.8s0.8-0.9,1-1.4h1.3L999,441.4
			L999,441.4z"/>
	</g>
	<g class="st6">
		<path class="st7" d="M939.4,399v-8.6h1.7v8.6H939.4z"/>
		<path class="st7" d="M942.8,399v-8.6h3.7c0.9,0,1.6,0.1,2,0.2s0.7,0.4,1,0.8s0.4,0.8,0.4,1.4s-0.2,1.2-0.6,1.6s-0.9,0.7-1.7,0.8
			c0.4,0.2,0.7,0.5,0.9,0.7s0.6,0.7,1,1.4l1,1.7h-2.1l-1.3-1.9c-0.4-0.7-0.8-1.1-0.9-1.3s-0.3-0.3-0.5-0.4s-0.5-0.1-0.9-0.1h-0.4
			v3.6L942.8,399L942.8,399z M944.6,394h1.3c0.8,0,1.4,0,1.6-0.1s0.4-0.2,0.5-0.4s0.2-0.4,0.2-0.6c0-0.3-0.1-0.5-0.2-0.7
			s-0.4-0.3-0.7-0.3c-0.1,0-0.6,0-1.3,0h-1.4L944.6,394L944.6,394z"/>
		<path class="st7" d="M956.7,397.4v1.5h-5.8c0.1-0.6,0.2-1.1,0.6-1.6s0.9-1.2,1.9-2.1c0.7-0.7,1.2-1.2,1.4-1.4
			c0.2-0.3,0.3-0.7,0.3-1c0-0.4-0.1-0.6-0.3-0.8s-0.5-0.3-0.8-0.3s-0.6,0.1-0.8,0.3s-0.3,0.6-0.4,1l-1.6-0.2c0.1-0.9,0.4-1.6,0.9-2
			s1.2-0.6,1.9-0.6c0.8,0,1.5,0.2,2,0.7s0.7,1,0.7,1.7c0,0.4-0.1,0.8-0.2,1.1s-0.4,0.7-0.7,1.1c-0.2,0.3-0.6,0.6-1.1,1.1
			s-0.8,0.8-1,0.9s-0.3,0.3-0.3,0.5L956.7,397.4L956.7,397.4z"/>
	</g>
	<g class="st6">
		<path class="st7" d="M843.3,319.6V311h1.7v8.6H843.3z"/>
		<path class="st7" d="M846.7,319.6V311h3.7c0.9,0,1.6,0.1,2,0.2s0.7,0.4,1,0.8c0.3,0.4,0.4,0.8,0.4,1.4s-0.2,1.2-0.6,1.6
			c-0.4,0.4-0.9,0.7-1.7,0.8c0.4,0.2,0.7,0.5,0.9,0.7c0.2,0.2,0.6,0.7,1,1.4l1,1.7h-2.1l-1.3-1.9c-0.4-0.7-0.8-1.1-0.9-1.3
			c-0.1-0.2-0.3-0.3-0.5-0.4c-0.2-0.1-0.5-0.1-0.9-0.1h-0.4v3.6L846.7,319.6L846.7,319.6z M848.5,314.6h1.3c0.8,0,1.4,0,1.6-0.1
			s0.4-0.2,0.5-0.4s0.2-0.4,0.2-0.6c0-0.3-0.1-0.5-0.2-0.7c-0.1-0.2-0.4-0.3-0.7-0.3c-0.1,0-0.6,0-1.3,0h-1.4L848.5,314.6
			L848.5,314.6z"/>
		<path class="st7" d="M858.2,319.6v-1.7h-3.5v-1.4l3.7-5.5h1.4v5.4h1.1v1.4h-1.1v1.7h-1.6L858.2,319.6L858.2,319.6z M858.2,316.4
			v-2.9l-2,2.9H858.2z"/>
	</g>
	<g>
		<path class="st7" d="M797.6,272.8v-8.6h1.7v8.6H797.6z"/>
		<path class="st7" d="M801,272.8v-8.6h3.7c0.9,0,1.6,0.1,2,0.2s0.7,0.4,1,0.8s0.4,0.8,0.4,1.4c0,0.6-0.2,1.2-0.6,1.6
			s-0.9,0.7-1.7,0.8c0.4,0.2,0.7,0.5,0.9,0.7s0.6,0.7,1,1.4l1,1.7h-2.1l-1.3-1.9c-0.4-0.7-0.8-1.1-0.9-1.3s-0.3-0.3-0.5-0.4
			s-0.5-0.1-0.9-0.1h-0.4v3.6H801z M802.7,267.9h1.3c0.8,0,1.4,0,1.6-0.1s0.4-0.2,0.5-0.4s0.2-0.4,0.2-0.6c0-0.3-0.1-0.5-0.2-0.7
			s-0.4-0.3-0.7-0.3c-0.1,0-0.6,0-1.3,0h-1.4V267.9z"/>
		<path class="st7" d="M809.3,270.6l1.6-0.2c0,0.4,0.2,0.7,0.4,0.9s0.5,0.3,0.8,0.3c0.3,0,0.6-0.1,0.9-0.4s0.4-0.7,0.4-1.3
			c0-0.5-0.1-0.9-0.4-1.2s-0.5-0.4-0.9-0.4c-0.5,0-0.9,0.2-1.3,0.6l-1.3-0.2l0.8-4.5h4.4v1.5h-3.1l-0.3,1.5c0.4-0.2,0.7-0.3,1.1-0.3
			c0.7,0,1.3,0.3,1.9,0.8s0.8,1.2,0.8,2.1c0,0.7-0.2,1.3-0.6,1.9c-0.6,0.8-1.3,1.1-2.3,1.1c-0.8,0-1.4-0.2-1.9-0.6
			S809.4,271.3,809.3,270.6z"/>
	</g>
</g>
<g id="map" class="st8">
</g>
<g id="furniature">
	<g id="Layer_83_copy-10-2-3_00000106120909642976687870000013640787710163718038_">
		<path class="st9" d="M894.1,686.6l0.1-2.7l0,0c0.1-2-1.5-3.7-3.5-3.8h-0.3l-2.7,0.1c-2.7,0.1-4.8,2.2-4.9,4.8l0,0
			c-0.1,2.6,1.9,4.9,4.6,5.1l2.7,0.2l0,0c2,0.2,3.9-1.3,4.1-3.3l0,0v-0.1l0,0L894.1,686.6z"/>
		<path class="st10" d="M893.9,686.3l0.1-2.7l0,0c0.1-2-1.5-3.7-3.5-3.8h-0.3l-2.7,0.1c-2.7,0.1-4.8,2.2-4.9,4.8l0,0
			c-0.1,2.6,1.9,4.9,4.6,5.1l2.7,0.2l0,0c2,0.2,3.9-1.3,4.1-3.3l0,0v-0.1l0,0L893.9,686.3L893.9,686.3z"/>
		<path class="st11" d="M894.3,685.4l0.1-2.7c0.1-2-1.5-3.7-3.5-3.8h-0.3l-2.7-0.1c-2.7,0.1-4.8,2.2-4.9,4.8l0,0
			c-0.1,2.6,1.9,4.9,4.6,5.1l2.7,0.2l0,0c2,0.2,3.9-1.3,4.1-3.3l0,0v-0.1l0,0C894.2,685.5,894.3,685.4,894.3,685.4z"/>
		<path class="st12" d="M891.1,678.8l-3.2,0.1c-2.7,0.1-4.8,2.2-4.9,4.8l0,0c-0.1,2.6,1.9,4.9,4.6,5.1l3.2,0.3"/>
	</g>
	<g>
		<path class="st13" d="M908.4,662.8l-0.2,28.5c0,0.5-0.5,0.8-1,0.8l-12.9-0.1c-0.6,0-1-0.4-1-0.8l0,0l0.2-28.5c0-0.5,0.5-0.8,1-0.8
			l0,0l12.9,0.1C907.9,661.9,908.4,662.3,908.4,662.8C908.4,662.7,908.4,662.7,908.4,662.8L908.4,662.8L908.4,662.8z"/>
		<path class="st14" d="M909.1,662.8l-0.2,28.5c0,0.5-0.5,0.8-1,0.8l0,0L895,692c-0.6,0-1-0.4-1-0.8l0,0l0.2-28.5
			c0-0.5,0.5-0.8,1-0.8l12.9,0.1C908.6,662,909.1,662.3,909.1,662.8L909.1,662.8L909.1,662.8L909.1,662.8z"/>
		<g id="tables-7-5_00000170264215686081065530000006185644966012632239_">
			<path class="st7" d="M909.4,671.8l0.1-9c0-0.5-0.5-0.8-1-0.8l0,0l-6.9-0.1l-0.1,9.8L909.4,671.8z"/>
			<path class="st7" d="M901.4,692.1l6.9,0.1c0.6,0,1-0.4,1-0.8l0,0l0.1-9.7l-7.9-0.1L901.4,692.1z"/>
			
				<rect x="900.7" y="672.6" transform="matrix(7.382193e-03 -1 1 7.382193e-03 222.395 1577.218)" class="st7" width="9.8" height="7.9"/>
			<path class="st7" d="M901.5,681.5l-7.1-0.1l-0.1,9.7c0,0.5,0.5,0.8,1,0.8h6L901.5,681.5z"/>
			
				<rect x="893.2" y="672.9" transform="matrix(7.382193e-03 -1 1 7.382193e-03 215.0627 1569.4734)" class="st7" width="9.8" height="7.1"/>
			<path class="st7" d="M901.6,661.9h-6.1c-0.6,0-1,0.4-1,0.8l0,0l-0.1,9l7.1,0.1L901.6,661.9z"/>
		</g>
	</g>
	<g id="Layer_83_copy-10-2-3_00000181072702598837228680000009136285330044213653_">
		<path class="st9" d="M894.2,643.3l0.1-2.7l0,0c0.1-2-1.5-3.7-3.5-3.8h-0.3l-2.7,0.1c-2.7,0.1-4.8,2.2-4.9,4.8l0,0
			c-0.1,2.6,1.9,4.9,4.6,5.1l2.7,0.2l0,0c2,0.2,3.9-1.3,4.1-3.3l0,0v-0.1l0,0L894.2,643.3z"/>
		<path class="st10" d="M894,642.9l0.1-2.7l0,0c0.1-2-1.5-3.7-3.5-3.8h-0.3l-2.7,0.1c-2.7,0.1-4.8,2.2-4.9,4.8l0,0
			c-0.1,2.6,1.9,4.9,4.6,5.1l2.7,0.2l0,0c2,0.2,3.9-1.3,4.1-3.3l0,0v-0.1l0,0L894,642.9L894,642.9z"/>
		<path class="st11" d="M894.5,642l0.1-2.7c0.1-2-1.5-3.7-3.5-3.8h-0.3l-2.7,0.1c-2.7,0.1-4.8,2.2-4.9,4.8l0,0
			c-0.1,2.6,1.9,4.9,4.6,5.1l2.7,0.2l0,0c2,0.2,3.9-1.3,4.1-3.3l0,0v-0.1l0,0C894.4,642.1,894.5,642.1,894.5,642z"/>
		<path class="st12" d="M891.3,635.4l-3.2,0.1c-2.7,0.1-4.8,2.2-4.9,4.8l0,0c-0.1,2.6,1.9,4.9,4.6,5.1l3.2,0.3"/>
	</g>
	<g>
		<path class="st13" d="M908.6,632.5l-0.2,28.5c0,0.5-0.5,0.8-1,0.8l-12.9-0.1c-0.6,0-1-0.4-1-0.8l0,0l0.2-28.5c0-0.5,0.5-0.8,1-0.8
			l0,0l12.9,0.1C908.1,631.6,908.5,632,908.6,632.5C908.6,632.4,908.6,632.4,908.6,632.5L908.6,632.5L908.6,632.5z"/>
		<path class="st14" d="M909.2,632.5L909,661c0,0.5-0.5,0.8-1,0.8l0,0l-12.9-0.1c-0.6,0-1-0.4-1-0.8l0,0l0.2-28.5
			c0-0.5,0.5-0.8,1-0.8l12.9,0.1C908.7,631.7,909.2,632,909.2,632.5L909.2,632.5L909.2,632.5L909.2,632.5z"/>
		<g id="tables-7-5_00000152239973513423874940000004200689483917107105_">
			<path class="st7" d="M909.6,641.5l0.1-9c0-0.5-0.5-0.8-1-0.8l0,0l-6.9-0.1l-0.1,9.8L909.6,641.5z"/>
			<path class="st7" d="M901.5,661.8l6.9,0.1c0.6,0,1-0.4,1-0.8l0,0l0.1-9.7l-7.9-0.1L901.5,661.8z"/>
			
				<rect x="900.7" y="642.3" transform="matrix(7.382193e-03 -1 1 7.382193e-03 252.657 1547.1069)" class="st7" width="9.8" height="7.9"/>
			<path class="st7" d="M901.6,651.2l-7.1-0.1l-0.1,9.7c0,0.5,0.5,0.8,1,0.8h6L901.6,651.2z"/>
			
				<rect x="893.4" y="642.7" transform="matrix(7.382193e-03 -1 1 7.382193e-03 245.5213 1539.761)" class="st7" width="9.8" height="7.1"/>
			<path class="st7" d="M901.7,631.6h-6.1c-0.6,0-1,0.4-1,0.8l0,0l-0.1,9l7.1,0.1L901.7,631.6z"/>
		</g>
	</g>
	<g id="Layer_83_copy-10-2-3_00000183954829812704390110000007326104163631147155_">
		<path class="st9" d="M642.5,442.6l-0.1,2.7l0,0c-0.1,2,1.5,3.7,3.5,3.8h0.3l2.7-0.1c2.7-0.1,4.8-2.2,4.9-4.8l0,0
			c0.1-2.6-1.9-4.9-4.6-5.1l-2.7-0.2l0,0c-2-0.2-3.9,1.3-4.1,3.3l0,0v0.1l0,0L642.5,442.6z"/>
		<path class="st10" d="M642.7,442.9l-0.1,2.7l0,0c-0.1,2,1.5,3.7,3.5,3.8h0.3l2.7-0.1c2.7-0.1,4.8-2.2,4.9-4.8l0,0
			c0.1-2.6-1.9-4.9-4.6-5.1l-2.7-0.2l0,0c-2-0.2-3.9,1.3-4.1,3.3l0,0v0.1l0,0L642.7,442.9L642.7,442.9z"/>
		<path class="st11" d="M642.3,443.8l-0.1,2.7c-0.1,2,1.5,3.7,3.5,3.8h0.3l2.7,0.1c2.7-0.1,4.8-2.2,4.9-4.8l0,0
			c0.1-2.6-1.9-4.9-4.6-5.1l-2.7-0.2l0,0c-2-0.2-3.9,1.3-4.1,3.3l0,0v0.1l0,0C642.4,443.7,642.3,443.8,642.3,443.8z"/>
		<path class="st12" d="M645.5,450.4l3.2-0.1c2.7-0.1,4.8-2.2,4.9-4.8l0,0c0.1-2.6-1.9-4.9-4.6-5.1l-3.2-0.3"/>
	</g>
	<g>
		<path class="st13" d="M628.2,466.4l0.2-28.5c0-0.5,0.5-0.8,1-0.8l12.9,0.1c0.6,0,1,0.4,1,0.8l0,0l-0.2,28.5c0,0.5-0.5,0.8-1,0.8
			l0,0l-12.9-0.1C628.7,467.3,628.2,466.9,628.2,466.4C628.2,466.5,628.2,466.5,628.2,466.4L628.2,466.4L628.2,466.4z"/>
		<path class="st14" d="M627.5,466.4l0.2-28.5c0-0.5,0.5-0.8,1-0.8l0,0l12.9,0.1c0.6,0,1,0.4,1,0.8l0,0l-0.2,28.5
			c0,0.5-0.5,0.8-1,0.8l-12.9-0.1C628,467.2,627.5,466.9,627.5,466.4L627.5,466.4L627.5,466.4L627.5,466.4z"/>
		<g id="tables-7-5_00000031924906462961001350000018069422870958847131_">
			<path class="st7" d="M627.2,457.4l-0.1,9c0,0.5,0.5,0.8,1,0.8l0,0l6.9,0.1l0.1-9.8L627.2,457.4z"/>
			<path class="st7" d="M635.2,437.1l-6.9-0.1c-0.6,0-1,0.4-1,0.8l0,0l-0.1,9.7l7.9,0.1L635.2,437.1z"/>
			
				<rect x="626.2" y="448.6" transform="matrix(7.382193e-03 -1 1 7.382193e-03 173.9732 1080.3042)" class="st7" width="9.8" height="7.9"/>
			<path class="st7" d="M635.1,447.7l7.1,0.1l0.1-9.7c0-0.5-0.5-0.8-1-0.8h-6L635.1,447.7z"/>
			
				<rect x="633.7" y="449.1" transform="matrix(7.382193e-03 -1 1 7.382193e-03 181.2071 1087.948)" class="st7" width="9.8" height="7.1"/>
			<path class="st7" d="M635,467.3h6.1c0.6,0,1-0.4,1-0.8l0,0l0.1-9l-7.1-0.1L635,467.3z"/>
		</g>
	</g>
	<g>
		<g id="Layer_83_copy-10-2-3_00000111875798387745289560000000582048618514772884_">
			<path class="st9" d="M651.2,331.2l2.7,0.1l0,0c2,0.1,3.7-1.5,3.8-3.5v-0.3l-0.1-2.7c-0.1-2.7-2.3-4.8-4.9-4.8l0,0
				c-2.6-0.1-4.9,2-5,4.7l-0.2,2.7l0,0c-0.2,2,1.3,3.9,3.4,4.1l0,0h0.1l0,0L651.2,331.2z"/>
			<path class="st10" d="M651.6,331l2.7,0.1l0,0c2,0.1,3.7-1.5,3.8-3.5v-0.3l-0.1-2.7c-0.1-2.7-2.3-4.8-4.9-4.8l0,0
				c-2.6-0.1-4.9,2-5,4.7l-0.2,2.7l0,0c-0.2,2,1.3,3.9,3.4,4.1l0,0h0.1l0,0L651.6,331L651.6,331z"/>
			<path class="st11" d="M652.5,331.5l2.7,0.1c2,0.1,3.7-1.5,3.8-3.5v-0.3l-0.1-2.7c-0.1-2.7-2.3-4.8-4.9-4.8l0,0
				c-2.6-0.1-4.9,2-5,4.7l-0.2,2.7l0,0c-0.2,2,1.3,3.9,3.4,4.1l0,0h0.1l0,0C652.4,331.4,652.4,331.5,652.5,331.5z"/>
			<path class="st12" d="M659,328.2l-0.1-3.2c-0.1-2.7-2.3-4.8-4.9-4.8l0,0c-2.6-0.1-4.9,2-5,4.7l-0.3,3.2"/>
		</g>
		<g>
			<path class="st13" d="M668.7,345.4l-28.5,0.2c-0.5,0-0.8-0.5-0.8-1l-0.1-12.9c0-0.6,0.4-1,0.8-1l0,0l28.5-0.2
				c0.5,0,0.8,0.5,0.8,1l0,0l0.1,12.9C669.6,344.9,669.2,345.3,668.7,345.4C668.8,345.4,668.8,345.4,668.7,345.4L668.7,345.4
				L668.7,345.4z"/>
			<path class="st14" d="M668.7,346l-28.5,0.2c-0.5,0-0.8-0.5-0.8-1l0,0l-0.1-12.9c0-0.6,0.4-1,0.8-1l0,0l28.5-0.2
				c0.5,0,0.8,0.5,0.8,1l0.1,12.9C669.5,345.5,669.2,346,668.7,346L668.7,346L668.7,346L668.7,346z"/>
			<g id="tables-7-5_00000060741267701391435730000003541668475700087462_">
				<path class="st7" d="M659.7,346.5h9c0.5,0,0.8-0.5,0.8-1l0,0v-6.9h-9.8V346.5z"/>
				<path class="st7" d="M639.3,338.7v6.9c0,0.6,0.4,1,0.8,1l0,0h9.7v-7.9H639.3z"/>
				
					<rect x="649.9" y="338.6" transform="matrix(1 -5.111498e-03 5.111498e-03 1 -1.7424 3.3515)" class="st7" width="9.8" height="7.9"/>
				<path class="st7" d="M649.9,338.6v-7.1h-9.7c-0.5,0-0.8,0.5-0.8,1l0.1,6L649.9,338.6z"/>
				
					<rect x="649.9" y="331.6" transform="matrix(1 -5.111498e-03 5.111498e-03 1 -1.7046 3.3514)" class="st7" width="9.8" height="7.1"/>
				<path class="st7" d="M669.5,338.5l-0.1-6.1c0-0.6-0.4-1-0.8-1l0,0h-9v7.1H669.5z"/>
			</g>
		</g>
	</g>
	<g>
		<g id="Layer_83_copy-10-2-3_00000079480923184128191540000002811477385426042546_">
			<path class="st9" d="M657.7,361.6l-2.7-0.1l0,0c-2-0.1-3.7,1.5-3.8,3.5v0.3l0.1,2.7c0.1,2.7,2.3,4.8,4.9,4.8l0,0
				c2.6,0.1,4.9-2,5-4.7l0.2-2.7l0,0c0.2-2-1.3-3.9-3.4-4.1l0,0h-0.1l0,0L657.7,361.6z"/>
			<path class="st10" d="M657.3,361.8l-2.7-0.1l0,0c-2-0.1-3.7,1.5-3.8,3.5v0.3l0.1,2.7c0.1,2.7,2.3,4.8,4.9,4.8l0,0
				c2.6,0.1,4.9-2,5-4.7l0.2-2.7l0,0c0.2-2-1.3-3.9-3.4-4.1l0,0h-0.1l0,0L657.3,361.8L657.3,361.8z"/>
			<path class="st11" d="M656.4,361.3l-2.7-0.1c-2-0.1-3.7,1.5-3.8,3.5v0.3l0.1,2.7c0.1,2.7,2.3,4.8,4.9,4.8l0,0
				c2.6,0.1,4.9-2,5-4.7l0.2-2.7l0,0c0.2-2-1.3-3.9-3.4-4.1l0,0h-0.1l0,0C656.5,361.4,656.5,361.3,656.4,361.3z"/>
			<path class="st12" d="M649.8,364.6l0.1,3.2c0.1,2.7,2.3,4.8,4.9,4.8l0,0c2.6,0.1,4.9-2,5-4.7l0.3-3.2"/>
		</g>
		<g>
			<path class="st13" d="M640.2,347.4l28.5-0.2c0.5,0,0.8,0.5,0.8,1l0.1,12.9c0,0.6-0.4,1-0.8,1l0,0l-28.5,0.2c-0.5,0-0.8-0.5-0.8-1
				l0,0l-0.1-12.9C639.3,348,639.7,347.5,640.2,347.4C640.1,347.4,640.1,347.4,640.2,347.4L640.2,347.4L640.2,347.4z"/>
			<path class="st14" d="M640.2,346.8l28.5-0.2c0.5,0,0.8,0.5,0.8,1l0,0l0.1,12.9c0,0.6-0.4,1-0.8,1l0,0l-28.5,0.2
				c-0.5,0-0.8-0.5-0.8-1l-0.1-12.9C639.4,347.4,639.7,346.8,640.2,346.8L640.2,346.8L640.2,346.8L640.2,346.8z"/>
			<g id="tables-7-5_00000172441830112032887810000010674235643807871875_">
				<path class="st7" d="M649.2,346.3h-9c-0.5,0-0.8,0.5-0.8,1l0,0v6.9h9.8V346.3z"/>
				<path class="st7" d="M669.6,354.2v-6.9c0-0.6-0.4-1-0.8-1l0,0h-9.7v7.9H669.6z"/>
				
					<rect x="649.1" y="346.3" transform="matrix(1 -5.111498e-03 5.111498e-03 1 -1.7818 3.3475)" class="st7" width="9.8" height="7.9"/>
				<path class="st7" d="M659,354.2v7.1h9.7c0.5,0,0.8-0.5,0.8-1l-0.1-6L659,354.2z"/>
				
					<rect x="649.2" y="354.1" transform="matrix(1 -5.111498e-03 5.111498e-03 1 -1.8196 3.3481)" class="st7" width="9.8" height="7.1"/>
				<path class="st7" d="M639.4,354.4l0.1,6.1c0,0.6,0.4,1,0.8,1l0,0h9v-7.1H639.4z"/>
			</g>
		</g>
	</g>
	<g>
		<g id="Layer_83_copy-10-2-3_00000039116268046406334070000004388104757249893775_">
			<path class="st9" d="M650.8,388.2l2.7,0.1l0,0c2,0.1,3.7-1.5,3.8-3.5v-0.3l-0.1-2.7c-0.1-2.7-2.3-4.8-4.9-4.8l0,0
				c-2.6-0.1-4.9,2-5,4.7l-0.2,2.7l0,0c-0.2,2,1.3,3.9,3.4,4.1l0,0h0.1l0,0L650.8,388.2z"/>
			<path class="st10" d="M651.2,387.9l2.7,0.1l0,0c2,0.1,3.7-1.5,3.8-3.5v-0.3l-0.1-2.7c-0.1-2.7-2.3-4.8-4.9-4.8l0,0
				c-2.6-0.1-4.9,2-5,4.7l-0.2,2.7l0,0c-0.2,2,1.3,3.9,3.4,4.1l0,0h0.1l0,0L651.2,387.9L651.2,387.9z"/>
			<path class="st11" d="M652.1,388.4l2.7,0.1c2,0.1,3.7-1.5,3.8-3.5v-0.3l-0.1-2.7c-0.1-2.7-2.3-4.8-4.9-4.8l0,0
				c-2.6-0.1-4.9,2-5,4.7l-0.2,2.7l0,0c-0.2,2,1.3,3.9,3.4,4.1l0,0h0.1l0,0C652,388.3,652,388.4,652.1,388.4z"/>
			<path class="st12" d="M658.7,385.2l-0.1-3.2c-0.1-2.7-2.3-4.8-4.9-4.8l0,0c-2.6-0.1-4.9,2-5,4.7l-0.3,3.2"/>
		</g>
		<g>
			<path class="st13" d="M668.3,402.3l-28.5,0.2c-0.5,0-0.8-0.5-0.8-1l-0.1-12.9c0-0.6,0.4-1,0.8-1l0,0l28.5-0.2
				c0.5,0,0.8,0.5,0.8,1l0,0l0.1,12.9C669.2,401.8,668.8,402.2,668.3,402.3C668.4,402.3,668.4,402.3,668.3,402.3L668.3,402.3
				L668.3,402.3z"/>
			<path class="st14" d="M668.3,402.9l-28.5,0.2c-0.5,0-0.8-0.5-0.8-1l0,0l-0.1-12.9c0-0.6,0.4-1,0.8-1l0,0l28.5-0.2
				c0.5,0,0.8,0.5,0.8,1l0.1,12.9C669.1,402.4,668.8,402.9,668.3,402.9L668.3,402.9L668.3,402.9L668.3,402.9z"/>
			<g id="tables-7-5_00000109727820325780927640000001435656706052407940_">
				<path class="st7" d="M659.3,403.4h9c0.5,0,0.8-0.5,0.8-1l0,0v-6.9h-9.8V403.4z"/>
				<path class="st7" d="M638.9,395.6v6.9c0,0.6,0.4,1,0.8,1l0,0h9.7v-7.9H638.9z"/>
				
					<rect x="649.6" y="395.6" transform="matrix(1 -5.111498e-03 5.111498e-03 1 -2.0338 3.3507)" class="st7" width="9.8" height="7.9"/>
				<path class="st7" d="M649.5,395.6v-7.1h-9.7c-0.5,0-0.8,0.5-0.8,1l0.1,6L649.5,395.6z"/>
				
					<rect x="649.5" y="388.5" transform="matrix(1 -5.111498e-03 5.111498e-03 1 -1.9954 3.3501)" class="st7" width="9.8" height="7.1"/>
				<path class="st7" d="M669.1,395.4l-0.1-6.1c0-0.6-0.4-1-0.8-1l0,0h-9v7.1H669.1z"/>
			</g>
		</g>
	</g>
	<g>
		<g id="Layer_83_copy-10-2-3_00000082348236091720143320000007961721867572416683_">
			<path class="st9" d="M657.3,418.6l-2.7-0.1l0,0c-2-0.1-3.7,1.5-3.8,3.5v0.3l0.1,2.7c0.1,2.7,2.3,4.8,4.9,4.8l0,0
				c2.6,0.1,4.9-2,5-4.7l0.2-2.7l0,0c0.2-2-1.3-3.9-3.4-4.1l0,0h-0.1l0,0L657.3,418.6z"/>
			<path class="st10" d="M656.9,418.8l-2.7-0.1l0,0c-2-0.1-3.7,1.5-3.8,3.5v0.3l0.1,2.7c0.1,2.7,2.3,4.8,4.9,4.8l0,0
				c2.6,0.1,4.9-2,5-4.7l0.2-2.7l0,0c0.2-2-1.3-3.9-3.4-4.1l0,0h-0.1l0,0L656.9,418.8L656.9,418.8z"/>
			<path class="st11" d="M656,418.3l-2.7-0.1c-2-0.1-3.7,1.5-3.8,3.5v0.3l0.1,2.7c0.1,2.7,2.3,4.8,4.9,4.8l0,0c2.6,0.1,4.9-2,5-4.7
				l0.2-2.7l0,0c0.2-2-1.3-3.9-3.4-4.1l0,0h-0.1l0,0C656.1,418.4,656.1,418.3,656,418.3z"/>
			<path class="st12" d="M649.5,421.6l0.1,3.2c0.1,2.7,2.3,4.8,4.9,4.8l0,0c2.6,0.1,4.9-2,5-4.7l0.3-3.2"/>
		</g>
		<g>
			<path class="st13" d="M639.9,404.4l28.5-0.2c0.5,0,0.8,0.5,0.8,1l0.1,12.9c0,0.6-0.4,1-0.8,1l0,0l-28.5,0.2c-0.5,0-0.8-0.5-0.8-1
				l0,0l-0.1-12.9C639,404.9,639.4,404.5,639.9,404.4C639.8,404.4,639.8,404.4,639.9,404.4L639.9,404.4L639.9,404.4z"/>
			<path class="st14" d="M639.8,403.8l28.5-0.2c0.5,0,0.8,0.5,0.8,1l0,0l0.1,12.9c0,0.6-0.4,1-0.8,1l0,0l-28.5,0.2
				c-0.5,0-0.8-0.5-0.8-1l-0.1-12.9C639.1,404.3,639.3,403.8,639.8,403.8L639.8,403.8L639.8,403.8L639.8,403.8z"/>
			<g id="tables-7-5_00000146476235927608003110000001112301011660155791_">
				<path class="st7" d="M648.8,403.3h-9c-0.5,0-0.8,0.5-0.8,1l0,0v6.9h9.8V403.3z"/>
				<path class="st7" d="M669.2,411.1v-6.9c0-0.6-0.4-1-0.8-1l0,0h-9.7v7.9H669.2z"/>
				
					<rect x="648.8" y="403.3" transform="matrix(1 -5.111498e-03 5.111498e-03 1 -2.0731 3.3467)" class="st7" width="9.8" height="7.9"/>
				<path class="st7" d="M658.6,411.2v7.1h9.7c0.5,0,0.8-0.5,0.8-1l-0.1-6L658.6,411.2z"/>
				
					<rect x="648.9" y="411.1" transform="matrix(1 -5.111498e-03 5.111498e-03 1 -2.111 3.3474)" class="st7" width="9.8" height="7.1"/>
				<path class="st7" d="M639,411.3l0.1,6.1c0,0.6,0.4,1,0.8,1l0,0h9v-7.1H639z"/>
			</g>
		</g>
	</g>
	<g>
		<g id="Layer_83_copy-10-2-3_00000054252651398830519190000000659616516652834693_">
			<path class="st9" d="M547.7,302.3l2.7,0.1l0,0c2,0.1,3.7-1.5,3.8-3.5v-0.3l-0.1-2.7c-0.1-2.7-2.3-4.8-4.9-4.8l0,0
				c-2.6-0.1-4.9,2-5,4.7l-0.2,2.7l0,0c-0.2,2,1.3,3.9,3.4,4.1l0,0h0.1l0,0L547.7,302.3z"/>
			<path class="st10" d="M548.1,302l2.7,0.1l0,0c2,0.1,3.7-1.5,3.8-3.5v-0.3l-0.1-2.7c-0.1-2.7-2.3-4.8-4.9-4.8l0,0
				c-2.6-0.1-4.9,2-5,4.7l-0.2,2.7l0,0c-0.2,2,1.3,3.9,3.4,4.1l0,0h0.1l0,0L548.1,302L548.1,302z"/>
			<path class="st11" d="M549,302.5l2.7,0.1c2,0.1,3.7-1.5,3.8-3.5v-0.3l-0.1-2.7c-0.1-2.7-2.3-4.8-4.9-4.8l0,0
				c-2.6-0.1-4.9,2-5,4.7l-0.2,2.7l0,0c-0.2,2,1.3,3.9,3.4,4.1l0,0h0.1l0,0C548.9,302.4,548.9,302.5,549,302.5z"/>
			<path class="st12" d="M555.6,299.3l-0.1-3.2c-0.1-2.7-2.3-4.8-4.9-4.8l0,0c-2.6-0.1-4.9,2-5,4.7l-0.3,3.2"/>
		</g>
		<g>
			<path class="st13" d="M565.2,316.4l-28.5,0.2c-0.5,0-0.8-0.5-0.8-1l-0.1-12.9c0-0.6,0.4-1,0.8-1l0,0l28.5-0.2
				c0.5,0,0.8,0.5,0.8,1l0,0l0.1,12.9C566.1,315.9,565.7,316.3,565.2,316.4C565.3,316.4,565.3,316.4,565.2,316.4L565.2,316.4
				L565.2,316.4z"/>
			<path class="st14" d="M565.2,317l-28.5,0.2c-0.5,0-0.8-0.5-0.8-1l0,0l-0.1-12.9c0-0.6,0.4-1,0.8-1l0,0l28.5-0.2
				c0.5,0,0.8,0.5,0.8,1L566,316C566,316.5,565.7,317,565.2,317L565.2,317L565.2,317L565.2,317z"/>
			<g id="tables-7-5_00000074404225439673998970000004824779974018278050_">
				<path class="st7" d="M556.2,317.5h9c0.5,0,0.8-0.5,0.8-1l0,0v-6.9h-9.8V317.5z"/>
				<path class="st7" d="M535.8,309.7v6.9c0,0.6,0.4,1,0.8,1l0,0h9.7v-7.9H535.8z"/>
				
					<rect x="546.4" y="309.7" transform="matrix(1 -5.111498e-03 5.111498e-03 1 -1.596 2.8221)" class="st7" width="9.8" height="7.9"/>
				<path class="st7" d="M546.4,309.7v-7.1h-9.7c-0.5,0-0.8,0.5-0.8,1l0.1,6L546.4,309.7z"/>
				
					<rect x="546.4" y="302.6" transform="matrix(1 -5.111498e-03 5.111498e-03 1 -1.5577 2.822)" class="st7" width="9.8" height="7.1"/>
				<path class="st7" d="M566,309.5l-0.1-6.1c0-0.6-0.4-1-0.8-1l0,0h-9v7.1H566z"/>
			</g>
		</g>
	</g>
	<g>
		<g id="Layer_83_copy-10-2-3_00000009558230857407400120000007390173587759713708_">
			<path class="st9" d="M554.2,332.7l-2.7-0.1l0,0c-2-0.1-3.7,1.5-3.8,3.5v0.3l0.1,2.7c0.1,2.7,2.3,4.8,4.9,4.8l0,0
				c2.6,0.1,4.9-2,5-4.7l0.2-2.7l0,0c0.2-2-1.3-3.9-3.4-4.1l0,0h-0.1l0,0L554.2,332.7z"/>
			<path class="st10" d="M553.8,332.9l-2.7-0.1l0,0c-2-0.1-3.7,1.5-3.8,3.5v0.3l0.1,2.7c0.1,2.7,2.3,4.8,4.9,4.8l0,0
				c2.6,0.1,4.9-2,5-4.7l0.2-2.7l0,0c0.2-2-1.3-3.9-3.4-4.1l0,0H554l0,0L553.8,332.9L553.8,332.9z"/>
			<path class="st11" d="M552.9,332.4l-2.7-0.1c-2-0.1-3.7,1.5-3.8,3.5v0.3l0.1,2.7c0.1,2.7,2.3,4.8,4.9,4.8l0,0
				c2.6,0.1,4.9-2,5-4.7l0.2-2.7l0,0c0.2-2-1.3-3.9-3.4-4.1l0,0h-0.1l0,0C553,332.5,553,332.4,552.9,332.4z"/>
			<path class="st12" d="M546.3,335.7l0.1,3.2c0.1,2.7,2.3,4.8,4.9,4.8l0,0c2.6,0.1,4.9-2,5-4.7l0.3-3.2"/>
		</g>
		<g>
			<path class="st13" d="M536.7,318.5l28.5-0.2c0.5,0,0.8,0.5,0.8,1l0.1,12.9c0,0.6-0.4,1-0.8,1l0,0l-28.5,0.2c-0.5,0-0.8-0.5-0.8-1
				l0,0l-0.1-12.9C535.8,319,536.2,318.6,536.7,318.5C536.6,318.5,536.6,318.5,536.7,318.5L536.7,318.5L536.7,318.5z"/>
			<path class="st14" d="M536.7,317.9l28.5-0.2c0.5,0,0.8,0.5,0.8,1l0,0l0.1,12.9c0,0.6-0.4,1-0.8,1l0,0l-28.5,0.2
				c-0.5,0-0.8-0.5-0.8-1l-0.1-12.9C535.9,318.4,536.2,317.9,536.7,317.9L536.7,317.9L536.7,317.9L536.7,317.9z"/>
			<g id="tables-7-5_00000161621080450092550330000002537598422945130159_">
				<path class="st7" d="M545.7,317.4h-9c-0.5,0-0.8,0.5-0.8,1l0,0v6.9h9.8V317.4z"/>
				<path class="st7" d="M566.1,325.2v-6.9c0-0.6-0.4-1-0.8-1l0,0h-9.7v7.9H566.1z"/>
				
					<rect x="545.7" y="317.4" transform="matrix(1 -5.111498e-03 5.111498e-03 1 -1.6354 2.8186)" class="st7" width="9.8" height="7.9"/>
				<path class="st7" d="M555.5,325.3v7.1h9.7c0.5,0,0.8-0.5,0.8-1l-0.1-6L555.5,325.3z"/>
				
					<rect x="545.7" y="325.2" transform="matrix(1 -5.111498e-03 5.111498e-03 1 -1.6732 2.8187)" class="st7" width="9.8" height="7.1"/>
				<path class="st7" d="M535.9,325.4l0.1,6.1c0,0.6,0.4,1,0.8,1l0,0h9v-7.1H535.9z"/>
			</g>
		</g>
	</g>
	<g id="Layer_83_copy-10-2-3_00000027592830868186494970000011748496452177393343_">
		<path class="st9" d="M651.8,484.1l-2.7-0.1l0,0c-2-0.1-3.7,1.5-3.8,3.5v0.3l0.1,2.7c0.1,2.7,2.2,4.8,4.8,4.9l0,0
			c2.6,0.1,4.9-1.9,5.1-4.6l0.2-2.7l0,0c0.2-2-1.3-3.9-3.3-4.1l0,0h-0.1l0,0L651.8,484.1z"/>
		<path class="st10" d="M651.5,484.3l-2.7-0.1l0,0c-2-0.1-3.7,1.5-3.8,3.5v0.3l0.1,2.7c0.1,2.7,2.2,4.8,4.8,4.9l0,0
			c2.6,0.1,4.9-1.9,5.1-4.6l0.2-2.7l0,0c0.2-2-1.3-3.9-3.3-4.1l0,0h-0.1l0,0L651.5,484.3L651.5,484.3z"/>
		<path class="st11" d="M650.6,483.9l-2.7-0.1c-2-0.1-3.7,1.5-3.8,3.5v0.3l-0.1,2.7c0.1,2.7,2.2,4.8,4.8,4.9l0,0
			c2.6,0.1,4.9-1.9,5.1-4.6l0.2-2.7l0,0c0.2-2-1.3-3.9-3.3-4.1l0,0h-0.1l0,0C650.7,484,650.6,483.9,650.6,483.9z"/>
		<path class="st12" d="M644,487.1l0.1,3.2c0.1,2.7,2.2,4.8,4.8,4.9l0,0c2.6,0.1,4.9-1.9,5.1-4.6l0.3-3.2"/>
	</g>
	<g>
		<path class="st13" d="M628.2,469.8l33,0.2c0.6,0,0.9,0.5,0.9,1l-0.1,12.9c0,0.6-0.5,1-0.9,1l0,0l-33-0.2c-0.6,0-0.9-0.5-0.9-1l0,0
			l0.1-12.9C627.1,470.3,627.6,469.8,628.2,469.8C628,469.8,628,469.8,628.2,469.8L628.2,469.8L628.2,469.8z"/>
		<path class="st14" d="M628.2,469.1l33,0.2c0.6,0,0.9,0.5,0.9,1l0,0l-0.1,12.9c0,0.6-0.5,1-0.9,1l0,0l-33-0.2c-0.6,0-0.9-0.5-0.9-1
			l0.1-12.9c0-0.5,0.3-1,0.8-1l0,0H628.2L628.2,469.1z"/>
		<g id="tables-7-5_00000076581764945742539890000011770431505310354333_">
			<path class="st7" d="M638.6,468.8l-10.4-0.1c-0.6,0-0.9,0.5-0.9,1l0,0l-0.1,6.9l11.3,0.1L638.6,468.8z"/>
			<path class="st7" d="M662,476.8l0.1-6.9c0-0.6-0.5-1-0.9-1l0,0l-11.2-0.1l-0.1,7.9L662,476.8z"/>
			<polygon class="st7" points="649.8,476.7 638.5,476.7 638.6,468.8 649.9,468.8 			"/>
			<path class="st7" d="M649.8,476.7l-0.1,7.1l11.2,0.1c0.6,0,0.9-0.5,0.9-1v-6L649.8,476.7z"/>
			<polygon class="st7" points="649.7,483.8 638.3,483.7 638.4,476.6 649.7,476.7 			"/>
			<path class="st7" d="M627.1,476.6v6.1c0,0.6,0.5,1,0.9,1l0,0l10.4,0.1l0.1-7.1L627.1,476.6z"/>
		</g>
	</g>
	<g>
		<g id="Layer_83_copy-10-2-3_00000129917301707990595400000013491826590101875896_">
			<path class="st9" d="M758.6,155l2.6-0.6l0,0c2-0.4,3.2-2.3,2.8-4.3l-0.1-0.3l-0.7-2.6c-0.7-2.6-3.3-4.1-5.8-3.6l0,0
				c-2.5,0.5-4.3,3-3.8,5.7l0.5,2.7l0,0c0.3,2,2.2,3.5,4.2,3.2l0,0h0.1l0,0L758.6,155z"/>
			<path class="st10" d="M758.9,154.7l2.6-0.6l0,0c2-0.4,3.2-2.3,2.8-4.3l-0.1-0.3l-0.7-2.6c-0.7-2.6-3.3-4.1-5.8-3.6l0,0
				c-2.5,0.5-4.3,3-3.8,5.7l0.5,2.7l0,0c0.3,2,2.2,3.5,4.2,3.2l0,0h0.1l0,0L758.9,154.7L758.9,154.7z"/>
			<path class="st11" d="M759.9,155l2.6-0.6c2-0.4,3.2-2.3,2.8-4.3l-0.1-0.3l-0.7-2.6c-0.7-2.6-3.3-4.1-5.8-3.6l0,0
				c-2.5,0.5-4.3,3-3.8,5.7l0.5,2.7l0,0c0.3,2,2.2,3.5,4.2,3.2l0,0h0.1l0,0C759.8,154.9,759.8,155,759.9,155z"/>
			<path class="st12" d="M765.6,150.3l-0.9-3.1c-0.7-2.6-3.3-4.1-5.8-3.6l0,0c-2.5,0.5-4.3,3-3.8,5.7l0.5,3.2"/>
		</g>
		<g>
			<path class="st13" d="M778.8,164.9l-27.7,6.6c-0.5,0.1-0.9-0.3-1-0.8l-3-12.5c-0.1-0.6,0.1-1.1,0.5-1.2l0,0l27.7-6.6
				c0.5-0.1,0.9,0.3,1,0.8l0,0l3,12.5C779.6,164.2,779.3,164.6,778.8,164.9C778.9,164.8,778.9,164.8,778.8,164.9L778.8,164.9
				L778.8,164.9z"/>
			<path class="st14" d="M779,165.4l-27.7,6.6c-0.5,0.1-0.9-0.3-1-0.8l0,0l-3-12.5c-0.1-0.6,0.1-1.1,0.5-1.2l0,0l27.7-6.6
				c0.5-0.1,0.9,0.3,1,0.8l3,12.5C779.6,164.8,779.5,165.3,779,165.4L779,165.4L779,165.4L779,165.4z"/>
			<g id="tables-7-5_00000082350054160448381300000004792506801769108629_">
				<path class="st7" d="M770.3,168l8.8-2.1c0.5-0.1,0.7-0.7,0.5-1.2l0,0L778,158l-9.5,2.3L770.3,168z"/>
				<path class="st7" d="M748.7,165l1.6,6.7c0.1,0.6,0.6,0.9,1,0.8l0,0l9.4-2.2l-1.8-7.7L748.7,165z"/>
				
					<rect x="759.8" y="161.3" transform="matrix(0.9725 -0.2329 0.2329 0.9725 -17.4576 182.6428)" class="st7" width="9.8" height="7.9"/>
				<path class="st7" d="M759,162.5l-1.6-6.9l-9.4,2.2c-0.5,0.1-0.7,0.7-0.5,1.2l1.4,5.8L759,162.5z"/>
				
					<rect x="758.1" y="154.5" transform="matrix(0.9725 -0.2329 0.2329 0.9725 -15.8276 182.0489)" class="st7" width="9.8" height="7.1"/>
				<path class="st7" d="M778.1,157.9l-1.5-5.9c-0.1-0.6-0.6-0.9-1-0.8l0,0l-8.8,2.1l1.6,6.9L778.1,157.9z"/>
			</g>
		</g>
	</g>
	<path class="st9" d="M732.6,537.3l25-0.1c0.5,0,0.9-0.4,0.9-0.9l0,0v-10.4c0-0.5-0.4-0.9-0.9-0.9l0,0l-25,0.1
		c-0.5,0-0.9,0.4-0.9,0.9l0,0v10.4C731.8,536.9,732.1,537.3,732.6,537.3L732.6,537.3z"/>
	<path class="st10" d="M732.1,537.5l25-0.1c0.5,0,0.9-0.4,0.9-0.9l0,0v-10.4c0-0.5-0.4-0.9-0.9-0.9l0,0l-25,0.1
		c-0.5,0-0.9,0.4-0.9,0.9v10.4C731.2,537.1,731.6,537.5,732.1,537.5C732,537.5,732.1,537.5,732.1,537.5L732.1,537.5z"/>
	<path class="st15" d="M755,535.1v2.7h1.5c0.5,0,0.9-0.4,0.9-0.9v-10.4c0-0.5-0.4-0.9-0.9-0.9l0,0H755V535.1"/>
	
		<rect x="732.6" y="535.1" transform="matrix(1 -2.236523e-03 2.236523e-03 1 -1.1979 1.6648)" class="st15" width="22.3" height="2.7"/>
	
		<rect x="732.6" y="525.6" transform="matrix(1 -2.236523e-03 2.236523e-03 1 -1.1842 1.6647)" class="st16" width="22.3" height="9.4"/>
	<path class="st15" d="M732.7,535.1v-9.4h-1.1c-0.5,0-0.9,0.4-0.9,0.9l0,0V537c0,0.5,0.4,0.9,0.9,0.9h1.1V535.1"/>
	<line class="st17" x1="744.3" y1="535.1" x2="744.3" y2="525.6"/>
	<g>
		<path class="st18" d="M757.6,521.3v-8.5c0-1.9,1.5-3.5,3.5-3.5l0,0l0,0l0,0c0.1,0,0.1,0,0.2,0l5.4,0.4c2.8,0.2,5,2.5,5,5.4v3.8
			c0,2.8-2.2,5.1-5,5.4l-5.4,0.5c-1.9,0.1-3.6-1.3-3.7-3.2C757.6,521.5,757.6,521.4,757.6,521.3z"/>
		<path class="st10" d="M758.1,520.6v-8.3c0-1.8,1.3-3.3,3.1-3.6h0.6l5.4,0.4c2.8,0.2,5,2.5,5,5.4v3.8c0,2.8-2.2,5.2-5,5.4l-5.4,0.5
			c-1.9,0.2-3.5-1.2-3.7-3.1l0,0l0,0l0,0V521l0,0C758.1,520.8,758.1,520.7,758.1,520.6z"/>
		<path class="st19" d="M758.6,519.8v-8.5c0-1.9,1.5-3.5,3.5-3.5l0,0l0,0l0,0c0.1,0,0.1,0,0.2,0l5.4,0.4c2.8,0.2,5,2.5,5,5.4v3.8
			c0,2.8-2.2,5.2-5,5.4l-5.1,0.4c-1.9,0.3-3.7-0.9-4-2.8l0,0C758.6,520.2,758.5,520,758.6,519.8L758.6,519.8z"/>
		<path class="st20" d="M759.3,518.9v-6.6c0-1.5,1.2-2.7,2.7-2.7l0,0l0,0l0,0h0.2l3.9,0.2c2.4,0.2,4.3,2.2,4.4,4.6v2.2
			c0,2.4-1.9,4.5-4.3,4.7l-3.6,0.3c-1.4,0.2-2.8-0.7-3.2-2.2C759.3,519.3,759.3,519.1,759.3,518.9z"/>
	</g>
	<g>
		<path class="st18" d="M730.6,510.8v8.5c0,1.9-1.5,3.5-3.5,3.5l0,0l0,0l0,0c-0.1,0-0.1,0-0.2,0l-5.4-0.4c-2.8-0.2-5-2.5-5-5.4v-3.8
			c0-2.8,2.2-5.1,5-5.4l5.4-0.5c1.9-0.1,3.6,1.3,3.7,3.2C730.6,510.7,730.6,510.8,730.6,510.8z"/>
		<path class="st10" d="M730.1,511.6v8.3c0,1.8-1.3,3.3-3.1,3.6h-0.6l-5.4-0.4c-2.8-0.2-5-2.5-5-5.4v-3.8c0-2.8,2.2-5.2,5-5.4
			l5.4-0.5c1.9-0.2,3.5,1.2,3.7,3.1l0,0l0,0l0,0v0.1l0,0C730.1,511.4,730.1,511.5,730.1,511.6z"/>
		<path class="st19" d="M729.7,512.4v8.5c0,1.9-1.5,3.5-3.5,3.5l0,0l0,0l0,0c-0.1,0-0.1,0-0.2,0l-5.4-0.4c-2.8-0.2-5-2.5-5-5.4v-3.8
			c0-2.8,2.2-5.2,5-5.4l5.1-0.4c1.9-0.3,3.7,0.9,4,2.8l0,0C729.7,512,729.7,512.1,729.7,512.4L729.7,512.4z"/>
		<path class="st20" d="M728.9,513.2v6.6c0,1.5-1.2,2.7-2.7,2.7l0,0l0,0l0,0H726l-3.9-0.2c-2.4-0.2-4.3-2.2-4.4-4.6v-2.2
			c0-2.4,1.9-4.5,4.3-4.7l3.6-0.3c1.4-0.2,2.8,0.7,3.2,2.2C728.9,512.9,728.9,513.1,728.9,513.2z"/>
	</g>
	<g>
		<path class="st13" d="M732.4,511.4l21.7,0.2c0.4,0,0.6,0.4,0.6,0.8l-0.1,10.7c0,0.5-0.3,0.8-0.6,0.8l0,0l-21.7-0.2
			c-0.4,0-0.6-0.4-0.6-0.8l0,0l0.1-10.7C731.7,511.9,732,511.4,732.4,511.4C732.3,511.4,732.3,511.4,732.4,511.4L732.4,511.4
			L732.4,511.4z"/>
		<path class="st14" d="M732.4,510.9l21.7,0.2c0.4,0,0.6,0.4,0.6,0.8l0,0l-0.1,10.7c0,0.5-0.3,0.8-0.6,0.8l0,0l-21.7-0.2
			c-0.4,0-0.6-0.4-0.6-0.8l0.1-10.7C731.8,511.3,732,510.9,732.4,510.9L732.4,510.9L732.4,510.9L732.4,510.9z"/>
		<g id="tables-7-5_00000121981170590031117570000008676594373681617813_">
			<path class="st7" d="M739.2,510.6l-6.9-0.1c-0.4,0-0.6,0.4-0.6,0.8l0,0l-0.1,5.7l7.5,0.1L739.2,510.6z"/>
			<path class="st7" d="M754.7,517.3l0.1-5.7c0-0.5-0.3-0.8-0.6-0.8l0,0l-7.4-0.1l-0.1,6.6H754.7z"/>
			<polygon class="st7" points="746.7,517.2 739.2,517.1 739.2,510.6 746.7,510.6 			"/>
			<path class="st7" d="M746.6,517.2l-0.1,5.9l7.4,0.1c0.4,0,0.6-0.4,0.6-0.8v-5L746.6,517.2z"/>
			<polygon class="st7" points="746.6,523 739.1,523 739.1,517.1 746.6,517.1 			"/>
			<path class="st7" d="M731.7,517.1v5.1c0,0.5,0.3,0.8,0.6,0.8l0,0l6.9,0.1l0.1-5.9L731.7,517.1z"/>
		</g>
	</g>
</g>
<g id="outline">
	<path class="st21" d="M498,176.6l-41.1-98.8L31,271l206.1,427.4l59.2,35.1h873.3c0,0,67.9-181.3,110.7-233.4L836.4,103.5L498,176.6
		z"/>
	<line class="st21" x1="498" y1="176.6" x2="492.9" y2="733.4"/>
	<polyline class="st22" points="495.4,267.8 582.4,249.8 601.9,245.8 	"/>
	<line class="st22" x1="580.2" y1="263.4" x2="580.2" y2="250.3"/>
	<polyline class="st22" points="580.2,282 580.2,361.1 495.4,361.1 	"/>
	<polyline class="st22" points="580.2,361.1 580.2,499.2 495.4,499.2 585.5,499.2 585.5,530.6 539,530.6 	"/>
	<line class="st22" x1="494.5" y1="555.4" x2="599.2" y2="555.4"/>
	<polyline class="st22" points="564.3,230.8 548.7,165.7 633.8,147.3 646.5,211 577.3,226.4 	"/>
	<polyline class="st22" points="670,206.4 664.2,180.7 687.7,175.7 693.7,200.3 	"/>
	<polyline class="st22" points="721.3,196.8 704.4,132 783.7,114.9 799.8,179.1 795.5,180.5 804.8,177.6 	"/>
	<line class="st22" x1="736.1" y1="192.2" x2="783.1" y2="182.5"/>
	<polyline class="st22" points="739.6,191 746.9,226 804.8,213.2 	"/>
	<line class="st22" x1="751.7" y1="188.9" x2="736.1" y2="125.2"/>
	<line class="st22" x1="617.8" y1="241.9" x2="660.8" y2="233.1"/>
	<polyline class="st22" points="655.7,234.1 676,317.5 688,313.7 	"/>
	<path class="st22" d="M676,317.5v175.2h32.5v48.7H779v-51.1c0,0,2.4-11.5,11.9-11.5h91c0,0,11.2,2.7,11.2,10.7v53.1h57"/>
	<polyline class="st22" points="710.3,310.1 782.7,295 1001.6,492.9 1001.6,545.4 1001.6,558.1 1054.1,558.1 1054.1,545.3 
		1069.7,545.3 1088.9,508.7 	"/>
	<line class="st22" x1="813.9" y1="175.8" x2="840.8" y2="170.7"/>
	<line class="st22" x1="828.7" y1="173" x2="815" y2="106.5"/>
	<line class="st22" x1="818.3" y1="210.3" x2="926.8" y2="184.3"/>
	<line class="st22" x1="855.9" y1="173.2" x2="843.5" y2="109.8"/>
	<line class="st22" x1="858.4" y1="187.3" x2="861" y2="200.1"/>
	<line class="st22" x1="838.3" y1="222.6" x2="936.5" y2="311"/>
	<polyline class="st22" points="869.5,250.8 931.6,187.3 1027.2,274 967.9,340.8 948.4,324.2 974.8,346.9 1050.6,415 	"/>
	<polyline class="st22" points="1120.8,478 1093.2,454.5 1153.4,386.7 1111.5,349.2 1050.6,415 1076.9,438.8 1093.5,422.2 	"/>
	<line class="st22" x1="1167.6" y1="441.4" x2="1123" y2="525.9"/>
	<line class="st22" x1="1163.6" y1="449.1" x2="1274.7" y2="507.3"/>
	<line class="st22" x1="1175.3" y1="429.3" x2="1183.6" y2="413.6"/>
	<line class="st22" x1="1131.3" y1="487.3" x2="1139.9" y2="494"/>
	<path class="st22" d="M1205.7,643.9l-52.2-24.9l-1.8,5.1c0,0,27,20.4,11.9,50.1l25.4,9.8"/>
	<path class="st22" d="M1178.3,710.9l-27.2-10v31.2H1123v-29.3c-11.8,0.3-29.3-1.6-43.7-26.5s5.7-50.4,5.7-50.4l-15.3-22.3h-17.8
		l0,0h-47.7v47.8"/>
	<path class="st22" d="M1087,589.7l15.9,24.5c0,0,4.1-2.6,17.5-2.9l3.6,0.3l1.2-4.1L1087,589.7l21.4-38.9"/>
	<polyline class="st22" points="994.2,486.3 1042.3,432.8 1047.1,437.3 1036.9,426.5 	"/>
	<polyline class="st22" points="1037.2,438.5 1100.7,490.6 1097.2,495.3 	"/>
	<polyline class="st22" points="911.9,322.2 946,353.1 900.7,401.7 	"/>
	<line class="st22" x1="960.1" y1="363.9" x2="1023.2" y2="421.5"/>
	<line class="st22" x1="990.4" y1="392.7" x2="946" y2="441.4"/>
	<polyline class="st22" points="782.7,295 769.7,241.2 810.5,231 838.3,255.9 	"/>
	<line class="st22" x1="846.6" y1="266.8" x2="856.5" y2="275"/>
	<polyline class="st22" points="851.5,270.9 807.6,317.5 851.5,357.2 896.6,309.7 866,283.3 	"/>
	<polyline class="st22" points="688,227.5 725.4,219.5 729.2,237.5 	"/>
	<line class="st22" x1="693.7" y1="226.3" x2="713.3" y2="307.8"/>
	<polyline class="st22" points="703.4,266.8 736.1,260 739.6,275 	"/>
	<polyline class="st22" points="670,292.8 605.5,292.8 605.5,297.3 	"/>
	<line class="st22" x1="605.5" y1="309.7" x2="605.5" y2="430"/>
	<polyline class="st22" points="605.5,447.5 616.7,447.5 616.7,484.1 	"/>
	<polyline class="st22" points="676,492.6 676,504.5 616.7,504.5 616.7,498.6 616.7,552 683.3,552 	"/>
	<line class="st22" x1="1004.2" y1="676.1" x2="1004.2" y2="732.2"/>
	<polyline class="st22" points="911.9,605.5 936.3,605.5 936.3,595.9 945.6,595.9 945.6,642.7 945.6,735.1 	"/>
	<polyline class="st22" points="899.6,605 885.6,605 814.5,605 814.5,598.1 	"/>
	<polyline class="st22" points="814.5,605 782.8,605 782.8,592.5 782.8,615.8 	"/>
	<line class="st22" x1="859.8" y1="733.4" x2="859.8" y2="605"/>
	<line class="st22" x1="893.2" y1="542.6" x2="893.2" y2="563.9"/>
	<polyline class="st22" points="820.9,534.2 814.5,534.2 814.5,565.4 814.5,500.2 861.3,500.2 861.3,534.7 837.9,534.7 	"/>
	<line class="st22" x1="877.5" y1="537.1" x2="893.2" y2="537.1"/>
	<line class="st22" x1="893.2" y1="595.9" x2="893.2" y2="605"/>
	<polyline class="st22" points="779.1,541.3 782.8,541.3 782.8,566.2 	"/>
	<polyline class="st22" points="720.3,615.8 720.3,605 595.6,605 595.6,615.8 	"/>
	<polyline class="st22" points="670,605 670,732.2 748.1,732.2 748.1,605 742.6,605 753,605 	"/>
	<polyline class="st22" points="1067.1,603.7 1067.1,733.4 1067.1,646.5 1037.2,646.5 1037.2,640.7 	"/>
	<line class="st22" x1="1037.2" y1="619" x2="1037.2" y2="603.7"/>
	<polyline class="st22" points="1067.1,668.5 1030,668.5 1030,676.1 1025.8,676.1 	"/>
	<polyline class="st22" points="556.6,605 576.7,605 568.3,604.2 568.3,732.2 	"/>
	<line class="st22" x1="541" y1="605" x2="495.4" y2="605"/>
	<line class="st22" x1="549.3" y1="232.7" x2="520.4" y2="237.5"/>
	<line class="st22" x1="533.5" y1="234.1" x2="519.1" y2="173.2"/>
	<line class="st22" x1="506.6" y1="240.3" x2="497.2" y2="242.6"/>
	<line class="st22" x1="893.2" y1="509.3" x2="881.3" y2="509.3"/>
	<line class="st22" x1="867.8" y1="509.3" x2="860.6" y2="509.3"/>
</g>
<g id="icons_and_labels">
	<g id="stairs-2-2-3">
		<ellipse transform="matrix(0.6 -0.8 0.8 0.6 -144.4708 1109.3734)" class="st23" cx="1037.1" cy="699.2" rx="16.7" ry="16.7"/>
		<path class="st24" d="M1028.8,723.7l0.7-0.1c0,0.2,0.1,0.5,0.2,0.7s0.4,0.4,0.6,0.4c0.3,0.1,0.5,0.2,0.8,0.2c0.2,0,0.5,0,0.7-0.1
			s0.3-0.2,0.5-0.3c0.1-0.1,0.2-0.3,0.2-0.5s-0.1-0.3-0.2-0.5s-0.3-0.3-0.5-0.3c-0.3-0.1-0.6-0.2-1-0.3s-0.7-0.2-1.1-0.3
			c-0.2-0.1-0.4-0.3-0.6-0.5c-0.1-0.2-0.2-0.5-0.2-0.7c0-0.3,0.1-0.5,0.2-0.8c0.2-0.2,0.4-0.4,0.7-0.5c0.3-0.1,0.7-0.2,1-0.2
			c0.4,0,0.7,0.1,1.1,0.2c0.3,0.1,0.5,0.3,0.7,0.6s0.3,0.6,0.3,0.9l-0.7,0.1c0-0.3-0.2-0.6-0.4-0.8c-0.3-0.2-0.6-0.3-1-0.3
			c-0.3,0-0.7,0.1-1,0.2c-0.2,0.1-0.3,0.4-0.3,0.6c0,0.2,0.1,0.4,0.2,0.5c0.3,0.2,0.7,0.3,1.1,0.4c0.4,0.1,0.8,0.2,1.2,0.4
			c0.3,0.1,0.5,0.3,0.7,0.6c0.2,0.2,0.2,0.5,0.2,0.8s-0.1,0.6-0.3,0.8c-0.2,0.3-0.4,0.5-0.7,0.6c-0.4,0.1-0.7,0.2-1.1,0.2
			s-0.9-0.1-1.3-0.2c-0.3-0.1-0.6-0.4-0.8-0.7C1028.8,724.5,1028.8,724.1,1028.8,723.7z"/>
		<path class="st24" d="M1035.5,724.9l0.1,0.6c-0.2,0-0.3,0.1-0.5,0.1s-0.4,0-0.6-0.1l-0.3-0.3c-0.1-0.3-0.1-0.5-0.1-0.8v-2.3h-0.5
			v-0.5h0.5v-1l0.7-0.4v1.4h0.7v0.5h-0.7v2.7c0,0.1,0,0.1,0.1,0.1s0.2,0.1,0.2,0H1035.5z"/>
		<path class="st24" d="M1038.8,725c-0.2,0.2-0.4,0.3-0.7,0.4c-0.6,0.2-1.2,0.1-1.7-0.2c-0.2-0.2-0.4-0.5-0.4-0.8
			c0-0.2,0-0.4,0.1-0.5c0.1-0.2,0.2-0.3,0.3-0.4c0.1-0.1,0.3-0.2,0.5-0.2s0.4-0.1,0.6-0.1c0.4,0,0.8-0.1,1.2-0.2v-0.2
			c0-0.2,0-0.4-0.2-0.6c-0.2-0.2-0.5-0.2-0.8-0.2s-0.5,0-0.7,0.2s-0.3,0.4-0.3,0.6l-0.7-0.1c0-0.3,0.1-0.5,0.3-0.7
			c0.2-0.2,0.4-0.3,0.6-0.4c0.3-0.1,0.6-0.1,0.9-0.1s0.5,0,0.8,0.1c0.2,0.1,0.3,0.2,0.5,0.3c0.1,0.1,0.2,0.3,0.2,0.5v2.7
			c0,0.2,0.1,0.3,0.2,0.5h-0.7L1038.8,725z M1038.7,723.5c-0.4,0.1-0.7,0.2-1.1,0.3c-0.2,0-0.4,0.1-0.6,0.1c-0.1,0-0.2,0.1-0.3,0.2
			c-0.2,0.3-0.1,0.6,0.1,0.8c0.2,0.1,0.4,0.2,0.6,0.2s0.5-0.1,0.7-0.2c0.2-0.1,0.4-0.3,0.4-0.5c0.1-0.2,0.1-0.5,0.1-0.7
			L1038.7,723.5L1038.7,723.5z"/>
		<path class="st24" d="M1040.4,720.8V720h0.7v0.8H1040.4z M1040.4,725.5v-4h0.7v4H1040.4z"/>
		<path class="st24" d="M1042.1,725.5v-4h0.6v0.6c0.1-0.2,0.2-0.4,0.4-0.6c0.1-0.1,0.3-0.1,0.4-0.1c0.2,0,0.5,0.1,0.7,0.2l-0.2,0.6
			c-0.1-0.1-0.3-0.1-0.5-0.1c-0.1,0-0.3,0-0.4,0.1s-0.2,0.2-0.3,0.4c-0.1,0.3-0.1,0.5-0.1,0.8v2.1H1042.1z"/>
		<path class="st24" d="M1044.4,724.3l0.7-0.1c0,0.2,0.1,0.5,0.3,0.6c0.4,0.3,1,0.3,1.4,0c0.2-0.2,0.3-0.5,0.1-0.7l-0.1-0.1
			c-0.2-0.1-0.5-0.2-0.7-0.2c-0.4-0.1-0.7-0.2-1-0.3c-0.4-0.1-0.6-0.5-0.6-0.9c0-0.2,0-0.3,0.1-0.5c0.1-0.1,0.2-0.3,0.3-0.4
			c0.1-0.1,0.2-0.2,0.4-0.2c0.2-0.1,0.4-0.1,0.6-0.1c0.3,0,0.5,0,0.8,0.1c0.2,0.1,0.4,0.2,0.5,0.4s0.2,0.4,0.2,0.6l-0.7,0.1
			c0-0.2-0.1-0.4-0.3-0.5c-0.2-0.1-0.4-0.2-0.6-0.2c-0.3,0-0.5,0-0.7,0.2c-0.1,0.1-0.2,0.2-0.2,0.4c0,0.1,0,0.2,0.1,0.2
			c0.1,0.1,0.2,0.1,0.3,0.2c0.2,0.1,0.4,0.1,0.6,0.2c0.3,0.1,0.7,0.2,1,0.3c0.2,0.1,0.3,0.2,0.4,0.4c0.3,0.4,0.3,0.8,0,1.2
			c-0.1,0.2-0.3,0.4-0.6,0.5c-0.3,0.1-0.5,0.2-0.8,0.2c-0.4,0-0.8-0.1-1.2-0.3C1044.6,725.1,1044.5,724.7,1044.4,724.3z"/>
	</g>
	<g id="Outline_Icons-9-2">
		<line class="st25" x1="1030.3" y1="705" x2="1042.8" y2="705"/>
		<polyline class="st25" points="1040.7,705 1040.7,702.7 1038.5,702.7 1038.5,700.6 1036.4,700.6 1036.4,698.4 1034.1,698.4 
			1034.1,696.2 1030.3,696.2 		"/>
		<line class="st25" x1="1036.8" y1="692.4" x2="1043.7" y2="699.2"/>
		<polyline class="st25" points="1036.8,695.1 1036.8,692.4 1039.6,692.4 		"/>
		<polyline class="st25" points="1043.7,696.5 1043.7,699.2 1041,699.2 		"/>
	</g>
	<g id="stairs-2-2-3-2">
		<circle class="st23" cx="1107.5" cy="390" r="16.7"/>
		<path class="st24" d="M1099.1,414.5l0.7-0.1c0,0.2,0.1,0.5,0.2,0.7s0.4,0.4,0.6,0.4c0.3,0.1,0.5,0.2,0.8,0.2c0.2,0,0.5,0,0.7-0.1
			s0.3-0.2,0.5-0.3c0.1-0.1,0.2-0.3,0.2-0.5s-0.1-0.3-0.2-0.5s-0.3-0.3-0.5-0.3c-0.3-0.1-0.6-0.2-1-0.3s-0.7-0.2-1.1-0.3
			c-0.2-0.1-0.4-0.3-0.6-0.5c-0.1-0.2-0.2-0.5-0.2-0.7c0-0.3,0.1-0.5,0.2-0.8c0.2-0.2,0.4-0.4,0.7-0.5c0.3-0.1,0.7-0.2,1-0.2
			c0.4,0,0.7,0.1,1.1,0.2c0.3,0.1,0.5,0.3,0.7,0.6c0.2,0.3,0.3,0.6,0.3,0.9l-0.7,0.1c0-0.3-0.2-0.6-0.4-0.8c-0.3-0.2-0.6-0.3-1-0.3
			c-0.3,0-0.7,0.1-1,0.2c-0.2,0.1-0.3,0.4-0.3,0.6s0.1,0.4,0.2,0.5c0.3,0.2,0.7,0.3,1.1,0.4s0.8,0.2,1.2,0.4
			c0.3,0.1,0.5,0.3,0.7,0.6c0.2,0.2,0.2,0.5,0.2,0.8s-0.1,0.6-0.3,0.8c-0.2,0.3-0.4,0.5-0.7,0.6c-0.4,0.1-0.7,0.2-1.1,0.2
			s-0.9-0.1-1.3-0.2c-0.3-0.1-0.6-0.4-0.8-0.7C1099.1,415.3,1099.1,414.9,1099.1,414.5z"/>
		<path class="st24" d="M1105.8,415.7l0.1,0.6c-0.2,0-0.3,0.1-0.5,0.1s-0.4,0-0.6-0.1l-0.3-0.3c-0.1-0.3-0.1-0.5-0.1-0.8v-2.3h-0.5
			v-0.5h0.5v-1l0.7-0.4v1.4h0.7v0.5h-0.7v2.7c0,0.1,0,0.1,0.1,0.1s0.2,0.1,0.2,0L1105.8,415.7z"/>
		<path class="st24" d="M1109.1,415.8c-0.2,0.2-0.4,0.3-0.7,0.4c-0.6,0.2-1.2,0.1-1.7-0.2c-0.2-0.2-0.4-0.5-0.4-0.8
			c0-0.2,0-0.4,0.1-0.5c0.1-0.2,0.2-0.3,0.3-0.4c0.1-0.1,0.3-0.2,0.5-0.2s0.4-0.1,0.6-0.1c0.4,0,0.8-0.1,1.2-0.2v-0.2
			c0-0.2,0-0.4-0.2-0.6s-0.5-0.2-0.8-0.2s-0.5,0-0.7,0.2s-0.3,0.4-0.3,0.6l-0.7-0.1c0-0.3,0.1-0.5,0.3-0.7c0.2-0.2,0.4-0.3,0.6-0.4
			c0.3-0.1,0.6-0.1,0.9-0.1s0.5,0,0.8,0.1c0.2,0.1,0.3,0.2,0.5,0.3c0.1,0.1,0.2,0.3,0.2,0.5v2.7c0,0.2,0.1,0.3,0.2,0.5h-0.7
			L1109.1,415.8z M1109,414.3c-0.4,0.1-0.7,0.2-1.1,0.3c-0.2,0-0.4,0.1-0.6,0.1c-0.1,0-0.2,0.1-0.3,0.2c-0.2,0.3-0.1,0.6,0.1,0.8
			c0.2,0.1,0.4,0.2,0.6,0.2s0.5-0.1,0.7-0.2s0.4-0.3,0.4-0.5c0.1-0.2,0.1-0.5,0.1-0.7L1109,414.3L1109,414.3z"/>
		<path class="st24" d="M1110.7,411.6v-0.8h0.7v0.8H1110.7z M1110.7,416.3v-4h0.7v4H1110.7z"/>
		<path class="st24" d="M1112.4,416.3v-4h0.6v0.6c0.1-0.2,0.2-0.4,0.4-0.6c0.1-0.1,0.3-0.1,0.4-0.1c0.2,0,0.5,0.1,0.7,0.2l-0.2,0.6
			c-0.1-0.1-0.3-0.1-0.5-0.1c-0.1,0-0.3,0-0.4,0.1s-0.2,0.2-0.3,0.4c-0.1,0.3-0.1,0.5-0.1,0.8v2.1H1112.4z"/>
		<path class="st24" d="M1114.7,415.1l0.7-0.1c0,0.2,0.1,0.5,0.3,0.6c0.4,0.3,1,0.3,1.4,0c0.2-0.2,0.3-0.5,0.1-0.7l-0.1-0.1
			c-0.2-0.1-0.5-0.2-0.7-0.2c-0.4-0.1-0.7-0.2-1-0.3c-0.4-0.1-0.6-0.5-0.6-0.9c0-0.2,0-0.3,0.1-0.5c0.1-0.1,0.2-0.3,0.3-0.4
			c0.1-0.1,0.2-0.2,0.4-0.2c0.2-0.1,0.4-0.1,0.6-0.1c0.3,0,0.5,0,0.8,0.1c0.2,0.1,0.4,0.2,0.5,0.4c0.1,0.2,0.2,0.4,0.2,0.6l-0.7,0.1
			c0-0.2-0.1-0.4-0.3-0.5c-0.2-0.1-0.4-0.2-0.6-0.2c-0.3,0-0.5,0-0.7,0.2c-0.1,0.1-0.2,0.2-0.2,0.4c0,0.1,0,0.2,0.1,0.2
			c0.1,0.1,0.2,0.1,0.3,0.2c0.2,0.1,0.4,0.1,0.6,0.2c0.3,0.1,0.7,0.2,1,0.3c0.2,0.1,0.3,0.2,0.4,0.4c0.3,0.4,0.3,0.8,0,1.2
			c-0.1,0.2-0.3,0.4-0.6,0.5c-0.3,0.1-0.5,0.2-0.8,0.2c-0.4,0-0.8-0.1-1.2-0.3C1114.9,415.9,1114.8,415.5,1114.7,415.1z"/>
	</g>
	<g id="Outline_Icons-9-2-2">
		<line class="st25" x1="1100.6" y1="395.8" x2="1113.1" y2="395.8"/>
		<polyline class="st25" points="1111,395.8 1111,393.5 1108.8,393.5 1108.8,391.4 1106.7,391.4 1106.7,389.2 1104.4,389.2 
			1104.4,387 1100.6,387 		"/>
		<line class="st25" x1="1107.1" y1="383.2" x2="1114" y2="390"/>
		<polyline class="st25" points="1107.1,385.9 1107.1,383.2 1109.9,383.2 		"/>
		<polyline class="st25" points="1114,387.3 1114,390 1111.3,390 		"/>
	</g>
	<g id="stairs-2-2-3-3">
		<circle class="st23" cx="684.7" cy="266.9" r="13.5"/>
		<path class="st24" d="M677.9,286.8l0.6-0.1c0,0.2,0.1,0.4,0.2,0.6c0.1,0.2,0.3,0.3,0.5,0.3c0.2,0.1,0.4,0.1,0.6,0.2
			c0.2,0,0.4,0,0.6-0.1c0.1-0.1,0.3-0.1,0.4-0.2c0.1-0.1,0.2-0.3,0.2-0.4c0-0.2-0.1-0.2-0.2-0.4c-0.1-0.2-0.2-0.2-0.4-0.2
			c-0.2-0.1-0.5-0.2-0.8-0.2s-0.6-0.2-0.9-0.2c-0.2-0.1-0.3-0.2-0.5-0.4c-0.1-0.2-0.2-0.4-0.2-0.6s0.1-0.4,0.2-0.6
			c0.2-0.2,0.3-0.3,0.6-0.4s0.5-0.1,0.8-0.2c0.3,0,0.6,0.1,0.9,0.2c0.2,0.1,0.4,0.3,0.6,0.5c0.2,0.2,0.2,0.5,0.2,0.7l-0.6,0.1
			c0-0.2-0.1-0.5-0.3-0.6c-0.2-0.2-0.5-0.2-0.8-0.2s-0.5,0.1-0.8,0.2c-0.2,0.1-0.2,0.3-0.2,0.5c0,0.1,0.1,0.3,0.2,0.4
			c0.3,0.2,0.6,0.3,0.9,0.3c0.3,0.1,0.7,0.2,1,0.3c0.2,0.1,0.4,0.3,0.6,0.5c0.1,0.2,0.2,0.4,0.2,0.6s-0.1,0.5-0.2,0.6
			c-0.1,0.2-0.3,0.4-0.6,0.5s-0.6,0.2-0.9,0.2c-0.4,0-0.7-0.1-1.1-0.2c-0.3-0.1-0.5-0.3-0.6-0.6
			C677.9,287.4,677.9,287.1,677.9,286.8z"/>
		<path class="st24" d="M683.3,287.8l0.1,0.5c-0.2,0-0.2,0.1-0.4,0.1s-0.3,0-0.5-0.1l-0.2-0.2c-0.1-0.2-0.1-0.4-0.1-0.6v-1.9h-0.4
			v-0.4h0.4v-0.8l0.6-0.3v1.1h0.6v0.4h-0.6v2.2c0,0,0,0.1,0.1,0.1l0,0c0.1,0,0.2,0.1,0.2,0h0.2L683.3,287.8L683.3,287.8z"/>
		<path class="st24" d="M686,287.8c-0.2,0.1-0.4,0.2-0.6,0.3c-0.5,0.2-1,0.1-1.4-0.2c-0.2-0.2-0.3-0.4-0.3-0.6c0-0.1,0-0.3,0.1-0.4
			s0.1-0.2,0.2-0.3c0.1-0.1,0.3-0.2,0.4-0.2c0.2,0,0.3-0.1,0.5-0.1c0.3,0,0.7-0.1,1-0.2v-0.2c0-0.2,0-0.4-0.2-0.5s-0.4-0.2-0.6-0.2
			c-0.2,0-0.4,0-0.6,0.2c-0.1,0.1-0.2,0.3-0.2,0.5l-0.6-0.1c0-0.2,0.1-0.4,0.2-0.6c0.1-0.1,0.3-0.2,0.5-0.3c0.2-0.1,0.5-0.1,0.7-0.1
			s0.4,0,0.6,0.1c0.2,0.1,0.2,0.2,0.4,0.2c0.1,0.1,0.2,0.3,0.2,0.4v2.2c0,0.2,0.1,0.2,0.2,0.4H686V287.8z M685.9,286.6
			c-0.3,0.1-0.6,0.2-0.9,0.2c-0.2,0-0.3,0.1-0.5,0.1c-0.1,0-0.2,0.1-0.2,0.2c-0.1,0.2-0.1,0.5,0.1,0.6c0.1,0.1,0.3,0.1,0.5,0.2
			c0.2,0,0.4-0.1,0.6-0.2c0.2-0.1,0.3-0.2,0.3-0.4c0.1-0.2,0.1-0.4,0.1-0.6L685.9,286.6L685.9,286.6z"/>
		<path class="st24" d="M687.3,284.4v-0.6h0.6v0.6H687.3z M687.3,288.2V285h0.6v3.2H687.3z"/>
		<path class="st24" d="M688.7,288.2V285h0.5v0.5c0.1-0.2,0.2-0.3,0.3-0.5c0.1-0.1,0.2-0.1,0.3-0.1c0.2,0,0.4,0.1,0.6,0.2l-0.2,0.5
			c-0.1-0.1-0.3-0.1-0.4-0.1c-0.1,0-0.2,0-0.3,0.1s-0.2,0.2-0.2,0.3c-0.1,0.2-0.1,0.4-0.1,0.6v1.7H688.7z"/>
		<path class="st24" d="M690.5,287.3l0.6-0.1c0,0.2,0.1,0.4,0.2,0.5c0.3,0.2,0.8,0.2,1.1,0c0.2-0.1,0.2-0.4,0.1-0.6l-0.1-0.1
			c-0.2-0.1-0.4-0.1-0.6-0.2c-0.3-0.1-0.6-0.2-0.8-0.2c-0.3-0.1-0.5-0.4-0.5-0.7c0-0.1,0-0.3,0.1-0.4s0.2-0.2,0.2-0.3
			c0.1-0.1,0.2-0.1,0.3-0.2c0.2-0.1,0.3-0.1,0.5-0.1s0.4,0,0.6,0.1c0.2,0.1,0.3,0.2,0.4,0.3c0.1,0.1,0.1,0.3,0.2,0.5l-0.6,0.1
			c0-0.2-0.1-0.3-0.2-0.4c-0.1-0.1-0.3-0.1-0.5-0.2c-0.2,0-0.4,0-0.6,0.2c-0.1,0.1-0.2,0.2-0.2,0.3c0,0.1,0,0.2,0.1,0.2
			c0.1,0.1,0.2,0.1,0.2,0.2c0.2,0,0.3,0.1,0.5,0.2s0.6,0.2,0.8,0.2c0.1,0.1,0.3,0.2,0.3,0.3c0.2,0.3,0.2,0.7,0,1
			c-0.1,0.2-0.3,0.3-0.5,0.4s-0.4,0.1-0.6,0.2c-0.3,0-0.7-0.1-1-0.2C690.7,287.9,690.6,287.6,690.5,287.3z"/>
	</g>
	<g id="Outline_Icons-9-2-3">
		<line class="st25" x1="679.1" y1="271.6" x2="689.2" y2="271.6"/>
		<polyline class="st25" points="687.5,271.6 687.5,269.8 685.8,269.8 685.8,268.1 684,268.1 684,266.3 682.2,266.3 682.2,264.5 
			679.1,264.5 		"/>
		<line class="st25" x1="684.4" y1="261.4" x2="690" y2="266.9"/>
		<polyline class="st25" points="684.4,263.6 684.4,261.4 686.6,261.4 		"/>
		<polyline class="st25" points="690,264.7 690,266.9 687.8,266.9 		"/>
	</g>
	<g id="stairs-2-2-3-4">
		<circle class="st23" cx="676.6" cy="171.4" r="13.5"/>
		<path class="st24" d="M669.8,191.3l0.6-0.1c0,0.2,0.1,0.4,0.2,0.6c0.1,0.2,0.3,0.3,0.5,0.3c0.2,0.1,0.4,0.1,0.6,0.2
			c0.2,0,0.4,0,0.6-0.1c0.1-0.1,0.3-0.1,0.4-0.2c0.1-0.1,0.2-0.3,0.2-0.4c0-0.2-0.1-0.2-0.2-0.4c-0.1-0.2-0.2-0.2-0.4-0.2
			c-0.2-0.1-0.5-0.2-0.8-0.2s-0.6-0.2-0.9-0.2c-0.2-0.1-0.3-0.2-0.5-0.4c-0.1-0.2-0.2-0.4-0.2-0.6c0-0.2,0.1-0.4,0.2-0.6
			c0.2-0.2,0.3-0.3,0.6-0.4c0.3-0.1,0.5-0.1,0.8-0.2c0.3,0,0.6,0.1,0.9,0.2c0.2,0.1,0.4,0.3,0.6,0.5c0.2,0.2,0.2,0.5,0.2,0.7
			l-0.6,0.1c0-0.2-0.1-0.5-0.3-0.6c-0.2-0.2-0.5-0.2-0.8-0.2s-0.5,0.1-0.8,0.2c-0.2,0.1-0.2,0.3-0.2,0.5s0.1,0.3,0.2,0.4
			c0.3,0.2,0.6,0.3,0.9,0.3c0.3,0.1,0.7,0.2,1,0.3c0.2,0.1,0.4,0.3,0.6,0.5c0.1,0.2,0.2,0.4,0.2,0.6c0,0.2-0.1,0.5-0.2,0.6
			c-0.1,0.2-0.3,0.4-0.6,0.5s-0.6,0.2-0.9,0.2c-0.4,0-0.7-0.1-1.1-0.2c-0.3-0.1-0.5-0.3-0.6-0.6
			C669.8,191.9,669.8,191.6,669.8,191.3z"/>
		<path class="st24" d="M675.2,192.3l0.1,0.5c-0.2,0-0.2,0.1-0.4,0.1s-0.3,0-0.5-0.1l-0.2-0.2c-0.1-0.2-0.1-0.4-0.1-0.6v-2h-0.4
			v-0.4h0.4v-0.8l0.6-0.3v1.1h0.6v0.4h-0.6v2.2c0,0,0,0.1,0.1,0.1l0,0c0.1,0,0.2,0.1,0.2,0H675.2z"/>
		<path class="st24" d="M677.9,192.3c-0.2,0.1-0.4,0.2-0.6,0.3c-0.5,0.2-1,0.1-1.4-0.2c-0.2-0.2-0.3-0.4-0.3-0.6
			c0-0.1,0-0.3,0.1-0.4c0.1-0.1,0.1-0.2,0.2-0.3c0.1-0.1,0.3-0.2,0.4-0.2c0.2,0,0.3-0.1,0.5-0.1c0.3,0,0.7-0.1,1-0.2v-0.2
			c0-0.2,0-0.4-0.2-0.5s-0.4-0.2-0.7-0.2c-0.2,0-0.4,0-0.6,0.2c-0.1,0.1-0.2,0.3-0.2,0.5l-0.6-0.1c0-0.2,0.1-0.4,0.2-0.6
			c0.1-0.1,0.3-0.2,0.5-0.3s0.5-0.1,0.7-0.1s0.4,0,0.6,0.1c0.2,0.1,0.2,0.2,0.4,0.2c0.1,0.1,0.2,0.3,0.2,0.4v2.2
			c0,0.2,0.1,0.2,0.2,0.4h-0.6v-0.3L677.9,192.3L677.9,192.3z M677.8,191.1c-0.3,0.1-0.6,0.2-0.9,0.2c-0.2,0-0.3,0.1-0.5,0.1
			c-0.1,0-0.2,0.1-0.2,0.2c-0.1,0.2-0.1,0.5,0.1,0.6c0.1,0.1,0.3,0.1,0.5,0.2c0.2,0,0.4-0.1,0.6-0.2c0.2-0.1,0.3-0.2,0.3-0.4
			c0.1-0.2,0.1-0.4,0.1-0.6L677.8,191.1L677.8,191.1z"/>
		<path class="st24" d="M679.2,188.9v-0.6h0.6v0.6H679.2z M679.2,192.7v-3.2h0.6v3.2H679.2z"/>
		<path class="st24" d="M680.6,192.7v-3.2h0.5v0.5c0.1-0.2,0.2-0.3,0.3-0.5c0.1-0.1,0.2-0.1,0.3-0.1c0.2,0,0.4,0.1,0.6,0.2l-0.2,0.5
			c-0.1-0.1-0.3-0.1-0.4-0.1c-0.1,0-0.2,0-0.3,0.1s-0.2,0.2-0.2,0.3c-0.1,0.2-0.1,0.4-0.1,0.6v1.7H680.6z"/>
		<path class="st24" d="M682.4,191.8l0.6-0.1c0,0.2,0.1,0.4,0.2,0.5c0.3,0.2,0.8,0.2,1.1,0c0.2-0.1,0.2-0.4,0.1-0.6l-0.1-0.1
			c-0.2-0.1-0.4-0.1-0.6-0.2c-0.3-0.1-0.6-0.2-0.8-0.2c-0.3-0.1-0.5-0.4-0.5-0.7c0-0.1,0-0.3,0.1-0.4c0.1-0.1,0.2-0.2,0.2-0.3
			c0.1-0.1,0.2-0.1,0.3-0.2c0.2-0.1,0.3-0.1,0.5-0.1s0.4,0,0.6,0.1c0.2,0.1,0.3,0.2,0.4,0.3c0.1,0.1,0.1,0.3,0.2,0.5l-0.6,0.1
			c0-0.2-0.1-0.3-0.2-0.4c-0.1-0.1-0.3-0.1-0.5-0.2c-0.2,0-0.4,0-0.6,0.2c-0.1,0.1-0.2,0.2-0.2,0.3s0,0.2,0.1,0.2
			c0.1,0.1,0.2,0.1,0.2,0.2c0.2,0,0.3,0.1,0.5,0.2c0.2,0.1,0.6,0.2,0.8,0.2c0.1,0.1,0.3,0.2,0.3,0.3c0.2,0.3,0.2,0.7,0,1
			c-0.1,0.2-0.3,0.3-0.5,0.4c-0.2,0.1-0.4,0.1-0.6,0.2c-0.3,0-0.7-0.1-1-0.2C682.6,192.4,682.5,192.1,682.4,191.8z"/>
	</g>
	<g id="Outline_Icons-9-2-4">
		<line class="st25" x1="671" y1="176.1" x2="681.1" y2="176.1"/>
		<polyline class="st25" points="679.4,176.1 679.4,174.3 677.7,174.3 677.7,172.6 676,172.6 676,170.8 674.1,170.8 674.1,169 
			671,169 		"/>
		<line class="st25" x1="676.3" y1="165.9" x2="681.9" y2="171.4"/>
		<polyline class="st25" points="676.3,168.1 676.3,165.9 678.5,165.9 		"/>
		<polyline class="st25" points="681.9,169.2 681.9,171.4 679.7,171.4 		"/>
	</g>
	<g id="stairs-2-2-3-5">
		<ellipse class="st23" cx="519.9" cy="523.1" rx="13.5" ry="13.5"/>
		<path class="st24" d="M513.1,543l0.6-0.1c0,0.2,0.1,0.4,0.2,0.6c0.1,0.2,0.3,0.3,0.5,0.3c0.2,0.1,0.4,0.1,0.6,0.2
			c0.2,0,0.4,0,0.6-0.1c0.1-0.1,0.3-0.1,0.4-0.2c0.1-0.1,0.2-0.3,0.2-0.4c0-0.2-0.1-0.2-0.2-0.4c-0.1-0.2-0.2-0.2-0.4-0.2
			c-0.2-0.1-0.5-0.2-0.8-0.2s-0.6-0.2-0.9-0.2c-0.2-0.1-0.3-0.2-0.5-0.4c-0.1-0.2-0.2-0.4-0.2-0.6c0-0.2,0.1-0.4,0.2-0.6
			c0.2-0.2,0.3-0.3,0.6-0.4c0.3-0.1,0.5-0.1,0.8-0.2c0.3,0,0.6,0.1,0.9,0.2c0.2,0.1,0.4,0.3,0.6,0.5c0.2,0.2,0.2,0.5,0.2,0.7
			l-0.6,0.1c0-0.2-0.1-0.5-0.3-0.6c-0.2-0.2-0.5-0.2-0.8-0.2s-0.5,0.1-0.8,0.2c-0.2,0.1-0.2,0.3-0.2,0.5c0,0.1,0.1,0.3,0.2,0.4
			c0.3,0.2,0.6,0.3,0.9,0.3c0.3,0.1,0.7,0.2,1,0.3c0.2,0.1,0.4,0.3,0.6,0.5c0.1,0.2,0.2,0.4,0.2,0.6c0,0.2-0.1,0.5-0.2,0.6
			c-0.1,0.2-0.3,0.4-0.6,0.5s-0.6,0.2-0.9,0.2c-0.4,0-0.7-0.1-1.1-0.2c-0.3-0.1-0.5-0.3-0.6-0.6C513.1,543.6,513.2,543.3,513.1,543z
			"/>
		<path class="st24" d="M518.5,543.9l0.1,0.5c-0.2,0-0.2,0.1-0.4,0.1s-0.3,0-0.5-0.1l-0.2-0.2c-0.1-0.2-0.1-0.4-0.1-0.6v-1.9H517
			v-0.4h0.4v-0.8l0.6-0.3v1.1h0.6v0.4H518v2.2c0,0,0,0.1,0.1,0.1l0,0c0.1,0,0.2,0.1,0.2,0L518.5,543.9z"/>
		<path class="st24" d="M521.2,544c-0.2,0.1-0.4,0.2-0.6,0.3c-0.5,0.2-1,0.1-1.4-0.2c-0.2-0.2-0.3-0.4-0.3-0.6c0-0.1,0-0.3,0.1-0.4
			c0.1-0.1,0.1-0.2,0.2-0.3c0.1-0.1,0.3-0.2,0.4-0.2c0.2,0,0.3-0.1,0.5-0.1c0.3,0,0.7-0.1,1-0.2v-0.2c0-0.2,0-0.4-0.2-0.5
			s-0.4-0.2-0.6-0.2c-0.2,0-0.4,0-0.6,0.2c-0.1,0.1-0.2,0.3-0.2,0.5l-0.6-0.1c0-0.2,0.1-0.4,0.2-0.6c0.1-0.1,0.3-0.2,0.5-0.3
			s0.5-0.1,0.7-0.1s0.4,0,0.6,0.1c0.2,0.1,0.2,0.2,0.4,0.2c0.1,0.1,0.2,0.3,0.2,0.4v2.2c0,0.2,0.1,0.2,0.2,0.4h-0.6L521.2,544z
			 M521.1,542.8c-0.3,0.1-0.6,0.2-0.9,0.2c-0.2,0-0.3,0.1-0.5,0.1c-0.1,0-0.2,0.1-0.2,0.2c-0.1,0.2-0.1,0.5,0.1,0.6
			c0.1,0.1,0.3,0.1,0.5,0.2c0.2,0,0.4-0.1,0.6-0.2c0.2-0.1,0.3-0.2,0.3-0.4C521.1,543.3,521.1,543.1,521.1,542.8L521.1,542.8
			L521.1,542.8z"/>
		<path class="st24" d="M522.5,540.6V540h0.6v0.6H522.5z M522.5,544.4v-3.2h0.6v3.2H522.5z"/>
		<path class="st24" d="M523.9,544.4v-3.2h0.5v0.5c0.1-0.2,0.2-0.3,0.3-0.5c0.1-0.1,0.2-0.1,0.3-0.1c0.2,0,0.4,0.1,0.6,0.2l-0.2,0.5
			c-0.1-0.1-0.3-0.1-0.4-0.1c-0.1,0-0.2,0-0.3,0.1s-0.2,0.2-0.2,0.3c-0.1,0.2-0.1,0.4-0.1,0.6v1.7H523.9z"/>
		<path class="st24" d="M525.8,543.5l0.6-0.1c0,0.2,0.1,0.4,0.2,0.5c0.3,0.2,0.8,0.2,1.1,0c0.2-0.1,0.2-0.4,0.1-0.6l-0.1-0.1
			c-0.2-0.1-0.4-0.1-0.6-0.2c-0.3-0.1-0.6-0.2-0.8-0.2c-0.3-0.1-0.5-0.4-0.5-0.7c0-0.1,0-0.3,0.1-0.4c0.1-0.1,0.2-0.2,0.2-0.3
			c0.1-0.1,0.2-0.1,0.3-0.2c0.2-0.1,0.3-0.1,0.5-0.1s0.4,0,0.6,0.1c0.2,0.1,0.3,0.2,0.4,0.3c0.1,0.1,0.1,0.3,0.2,0.5l-0.6,0.1
			c0-0.2-0.1-0.3-0.2-0.4c-0.1-0.1-0.3-0.1-0.5-0.2c-0.2,0-0.4,0-0.6,0.2c-0.1,0.1-0.2,0.2-0.2,0.3s0,0.2,0.1,0.2
			c0.1,0.1,0.2,0.1,0.2,0.2c0.2,0,0.3,0.1,0.5,0.2c0.2,0.1,0.6,0.2,0.8,0.2c0.1,0.1,0.3,0.2,0.3,0.3c0.2,0.3,0.2,0.7,0,1
			c-0.1,0.2-0.3,0.3-0.5,0.4c-0.2,0.1-0.4,0.1-0.6,0.2c-0.3,0-0.7-0.1-1-0.2C526,544,525.9,543.7,525.8,543.5z"/>
	</g>
	<g id="Outline_Icons-9-2-5">
		<line class="st25" x1="514.3" y1="527.8" x2="524.5" y2="527.8"/>
		<polyline class="st25" points="522.8,527.8 522.8,526 521,526 521,524.3 519.3,524.3 519.3,522.5 517.4,522.5 517.4,520.7 
			514.3,520.7 		"/>
		<line class="st25" x1="519.6" y1="517.6" x2="525.2" y2="523.1"/>
		<polyline class="st25" points="519.6,519.8 519.6,517.6 521.9,517.6 		"/>
		<polyline class="st25" points="525.2,520.9 525.2,523.1 523,523.1 		"/>
	</g>
	<g id="stairs-2-2-3-6">
		<circle class="st23" cx="796.3" cy="508.8" r="13.5"/>
		<path class="st24" d="M789.5,528.7l0.6-0.1c0,0.2,0.1,0.4,0.2,0.6c0.1,0.2,0.3,0.3,0.5,0.3c0.2,0.1,0.4,0.1,0.6,0.2
			c0.2,0,0.4,0,0.6-0.1c0.1-0.1,0.3-0.1,0.4-0.2c0.1-0.1,0.2-0.3,0.2-0.4c0-0.2-0.1-0.2-0.2-0.4c-0.1-0.2-0.2-0.2-0.4-0.2
			c-0.2-0.1-0.5-0.2-0.8-0.2s-0.6-0.2-0.9-0.2c-0.2-0.1-0.3-0.2-0.5-0.4c-0.1-0.2-0.2-0.4-0.2-0.6c0-0.2,0.1-0.4,0.2-0.6
			c0.2-0.2,0.3-0.3,0.6-0.4c0.3-0.1,0.5-0.1,0.8-0.2c0.3,0,0.6,0.1,0.9,0.2c0.2,0.1,0.4,0.3,0.6,0.5c0.2,0.2,0.2,0.5,0.2,0.7
			l-0.6,0.1c0-0.2-0.1-0.5-0.3-0.6c-0.2-0.2-0.5-0.2-0.8-0.2s-0.5,0.1-0.8,0.2c-0.2,0.1-0.2,0.3-0.2,0.5c0,0.1,0.1,0.3,0.2,0.4
			c0.3,0.2,0.6,0.3,0.9,0.3c0.3,0.1,0.7,0.2,1,0.3c0.2,0.1,0.4,0.3,0.6,0.5c0.1,0.2,0.2,0.4,0.2,0.6c0,0.2-0.1,0.5-0.2,0.6
			c-0.1,0.2-0.3,0.4-0.6,0.5s-0.6,0.2-0.9,0.2c-0.4,0-0.7-0.1-1.1-0.2c-0.3-0.1-0.5-0.3-0.6-0.6C789.5,529.3,789.6,529,789.5,528.7z
			"/>
		<path class="st24" d="M794.9,529.6l0.1,0.5c-0.2,0-0.2,0.1-0.4,0.1s-0.3,0-0.5-0.1l-0.2-0.2c-0.1-0.2-0.1-0.4-0.1-0.6v-1.9h-0.4
			V527h0.4v-0.8l0.6-0.3v1.1h0.6v0.4h-0.6v2.2c0,0,0,0.1,0.1,0.1l0,0c0.1,0,0.2,0.1,0.2,0L794.9,529.6z"/>
		<path class="st24" d="M797.6,529.7c-0.2,0.1-0.4,0.2-0.6,0.3c-0.5,0.2-1,0.1-1.4-0.2c-0.2-0.2-0.3-0.4-0.3-0.6
			c0-0.1,0-0.3,0.1-0.4c0.1-0.1,0.1-0.2,0.2-0.3c0.1-0.1,0.3-0.2,0.4-0.2c0.2,0,0.3-0.1,0.5-0.1c0.3,0,0.7-0.1,1-0.2v-0.2
			c0-0.2,0-0.4-0.2-0.5s-0.4-0.2-0.6-0.2c-0.2,0-0.4,0-0.6,0.2c-0.1,0.1-0.2,0.3-0.2,0.5l-0.6-0.1c0-0.2,0.1-0.4,0.2-0.6
			c0.1-0.1,0.3-0.2,0.5-0.3s0.5-0.1,0.7-0.1s0.4,0,0.6,0.1c0.2,0.1,0.2,0.2,0.4,0.2c0.1,0.1,0.2,0.3,0.2,0.4v2.2
			c0,0.2,0.1,0.2,0.2,0.4h-0.6L797.6,529.7z M797.5,528.5c-0.3,0.1-0.6,0.2-0.9,0.2c-0.2,0-0.3,0.1-0.5,0.1c-0.1,0-0.2,0.1-0.2,0.2
			c-0.1,0.2-0.1,0.5,0.1,0.6c0.1,0.1,0.3,0.1,0.5,0.2c0.2,0,0.4-0.1,0.6-0.2c0.2-0.1,0.3-0.2,0.3-0.4
			C797.5,529,797.5,528.8,797.5,528.5L797.5,528.5L797.5,528.5z"/>
		<path class="st24" d="M798.9,526.3v-0.6h0.6v0.6H798.9z M798.9,530.1v-3.2h0.6v3.2H798.9z"/>
		<path class="st24" d="M800.3,530.1v-3.2h0.5v0.5c0.1-0.2,0.2-0.3,0.3-0.5c0.1-0.1,0.2-0.1,0.3-0.1c0.2,0,0.4,0.1,0.6,0.2l-0.2,0.5
			c-0.1-0.1-0.3-0.1-0.4-0.1c-0.1,0-0.2,0-0.3,0.1s-0.2,0.2-0.2,0.3c-0.1,0.2-0.1,0.4-0.1,0.6v1.7H800.3z"/>
		<path class="st24" d="M802.2,529.2l0.6-0.1c0,0.2,0.1,0.4,0.2,0.5c0.3,0.2,0.8,0.2,1.1,0c0.2-0.1,0.2-0.4,0.1-0.6l-0.1-0.1
			c-0.2-0.1-0.4-0.1-0.6-0.2c-0.3-0.1-0.6-0.2-0.8-0.2c-0.3-0.1-0.5-0.4-0.5-0.7c0-0.1,0-0.3,0.1-0.4c0.1-0.1,0.2-0.2,0.2-0.3
			c0.1-0.1,0.2-0.1,0.3-0.2c0.2-0.1,0.3-0.1,0.5-0.1s0.4,0,0.6,0.1c0.2,0.1,0.3,0.2,0.4,0.3c0.1,0.1,0.1,0.3,0.2,0.5l-0.6,0.1
			c0-0.2-0.1-0.3-0.2-0.4c-0.1-0.1-0.3-0.1-0.5-0.2c-0.2,0-0.4,0-0.6,0.2c-0.1,0.1-0.2,0.2-0.2,0.3s0,0.2,0.1,0.2
			c0.1,0.1,0.2,0.1,0.2,0.2c0.2,0,0.3,0.1,0.5,0.2c0.2,0.1,0.6,0.2,0.8,0.2c0.1,0.1,0.3,0.2,0.3,0.3c0.2,0.3,0.2,0.7,0,1
			c-0.1,0.2-0.3,0.3-0.5,0.4c-0.2,0.1-0.4,0.1-0.6,0.2c-0.3,0-0.7-0.1-1-0.2C802.4,529.7,802.3,529.4,802.2,529.2z"/>
	</g>
	<g id="Outline_Icons-9-2-6">
		<line class="st25" x1="790.7" y1="513.5" x2="800.9" y2="513.5"/>
		<polyline class="st25" points="799.2,513.5 799.2,511.7 797.4,511.7 797.4,510 795.7,510 795.7,508.2 793.8,508.2 793.8,506.4 
			790.7,506.4 		"/>
		<line class="st25" x1="796" y1="503.3" x2="801.6" y2="508.8"/>
		<polyline class="st25" points="796,505.5 796,503.3 798.3,503.3 		"/>
		<polyline class="st25" points="801.6,506.6 801.6,508.8 799.4,508.8 		"/>
	</g>
	<circle class="st26" cx="836" cy="514.5" r="11.1"/>
	<path class="st27" d="M833,518.8v-6.7h2.3v6.7H833z M835.4,518.8v-6.7h2.3v6.7H835.4z M840.4,518.8h-2.6V512c0,0,0-0.1-0.1-0.1l0,0
		h-4.8c0,0-0.1,0-0.1,0.1l0,0l0,0v6.8h-1.2V510h8.8L840.4,518.8z M840.5,509.9h-8.9c0,0-0.1,0-0.1,0.1l0,0l0,0v8.9
		c0,0,0,0.1,0.1,0.1l0,0h9c0,0,0.1,0,0.1-0.1l0,0l0,0V510C840.6,509.9,840.6,509.9,840.5,509.9L840.5,509.9z"/>
	<path class="st27" d="M834.6,511.1h1.4c0.1,0,0.1,0,0.1-0.1s0-0.1-0.1-0.1h-1.4c-0.1,0-0.1,0-0.1,0.1S834.5,511.1,834.6,511.1z"/>
	<path class="st27" d="M838.8,514.9l0.3-0.3l0.3,0.3c0.1,0.1,0.1,0,0.1-0.1l0,0v-0.1l-0.4-0.4H839l0,0l0,0l-0.4,0.4
		c-0.1,0.1,0,0.1,0.1,0.1L838.8,514.9L838.8,514.9z"/>
	<path class="st27" d="M839,515.9L839,515.9l0.5-0.4c0.1,0,0.1-0.1,0-0.1c0-0.1-0.1-0.1-0.1-0.1l0,0l-0.1,0.1l-0.3,0.3l-0.3-0.3
		c-0.1-0.1-0.1-0.1-0.1-0.1l-0.1,0.1l0.1,0.1L839,515.9z"/>
	<path class="st28" d="M826.5,530.7v-4.1h3v0.5h-2.4v1.3h2.3v0.5h-2.3v1.4h2.5v0.5h-3L826.5,530.7L826.5,530.7z"/>
	<path class="st28" d="M830.3,530.7v-4.1h0.5v4.1H830.3z"/>
	<path class="st28" d="M833.7,529.7l0.5,0.1c-0.1,0.3-0.2,0.5-0.5,0.7c-0.6,0.4-1.3,0.3-1.9-0.1c-0.5-0.7-0.5-1.6,0-2.3
		c0.3-0.3,0.6-0.4,1-0.4s0.7,0.1,1,0.4c0.3,0.3,0.4,0.7,0.4,1.2v0.1H832c0,0.3,0.1,0.5,0.3,0.8c0.2,0.2,0.4,0.3,0.6,0.3
		c0.2,0,0.3,0,0.5-0.1C833.5,530.1,833.6,529.9,833.7,529.7z M832,529h1.7c0-0.2-0.1-0.4-0.2-0.6c-0.2-0.2-0.4-0.3-0.6-0.3
		c-0.2,0-0.4,0.1-0.6,0.3C832.1,528.5,832,528.7,832,529L832,529z"/>
	<path class="st28" d="M835.6,530.7l-1.2-3h0.5l0.6,1.8l0.2,0.6c0.1-0.2,0.1-0.4,0.2-0.6l0.6-1.8h0.5l-1.2,3H835.6z"/>
	<path class="st28" d="M839.7,530.3c-0.1,0.1-0.3,0.3-0.5,0.3c-0.2,0.1-0.4,0.1-0.6,0.1c-0.3,0-0.6-0.1-0.8-0.3s-0.3-0.4-0.3-0.6
		c0-0.1,0.1-0.3,0.1-0.4c0.1-0.1,0.2-0.2,0.3-0.3l0.4-0.2c0.1-0.1,0.3-0.1,0.5-0.1c0.3,0,0.6-0.1,0.9-0.2v-0.1
		c0-0.2-0.1-0.3-0.1-0.5c-0.2-0.1-0.4-0.2-0.6-0.2c-0.2,0-0.4,0-0.5,0.1s-0.2,0.3-0.3,0.5l-0.5-0.1c0.1-0.2,0.1-0.3,0.2-0.5
		c0.1-0.1,0.3-0.3,0.5-0.3c0.2-0.1,0.5-0.1,0.7-0.1s0.4,0,0.6,0.1c0.1,0,0.2,0.1,0.3,0.3c0.1,0.1,0.1,0.2,0.1,0.3v2.1
		c0,0.1,0.1,0.3,0.1,0.4h-0.5C839.7,530.6,839.7,530.4,839.7,530.3z M839.6,529.2c-0.3,0.1-0.5,0.1-0.8,0.2c-0.2,0-0.3,0.1-0.5,0.1
		c-0.1,0.1-0.1,0.1-0.2,0.2c-0.1,0.2-0.1,0.4,0.1,0.6c0.1,0.1,0.3,0.2,0.5,0.1c0.2,0,0.4,0,0.5-0.1s0.2-0.2,0.3-0.3
		c0.1-0.2,0.1-0.3,0.1-0.5L839.6,529.2L839.6,529.2z"/>
	<path class="st28" d="M842,530.2l0.1,0.5c-0.1,0-0.3,0.1-0.4,0.1c-0.2,0-0.3,0-0.5-0.1c-0.1-0.1-0.2-0.1-0.2-0.3
		c-0.1-0.2-0.1-0.4-0.1-0.6v-1.7h-0.4v-0.4h0.4V527l0.5-0.3v1h0.5v0.4h-0.5v2c0,0.1,0.1,0.1,0.1,0.1c0.1,0,0.1,0.1,0.2,0.1
		S841.9,530.2,842,530.2z"/>
	<path class="st28" d="M842.3,529.2c0-0.5,0.1-0.9,0.5-1.2c0.3-0.2,0.6-0.3,1-0.3s0.7,0.1,1,0.4c0.2,0.3,0.4,0.7,0.4,1.1
		c0,0.3-0.1,0.6-0.2,0.9c-0.3,0.4-0.7,0.7-1.2,0.7c-0.4,0-0.8-0.1-1-0.4C842.4,530,842.3,529.6,842.3,529.2z M842.8,529.2
		c0,0.3,0.1,0.6,0.3,0.8c0.3,0.3,0.8,0.4,1.2,0.1l0,0l0.1-0.1c0.2-0.3,0.3-0.6,0.3-0.9c0-0.3-0.1-0.6-0.3-0.8
		c-0.3-0.3-0.8-0.4-1.2-0.1l0,0l-0.1,0.1C842.9,528.6,842.8,528.9,842.8,529.2z"/>
	<path class="st28" d="M845.7,530.7v-3h0.5v0.5c0.1-0.2,0.2-0.3,0.3-0.5c0.1-0.1,0.2-0.1,0.3-0.1c0.2,0,0.4,0.1,0.5,0.2l-0.2,0.5
		c-0.1-0.1-0.2-0.1-0.4-0.1c-0.1,0-0.2,0.1-0.3,0.1c-0.1,0.1-0.1,0.2-0.2,0.3c-0.1,0.2-0.1,0.4-0.1,0.6v1.5H845.7L845.7,530.7
		L845.7,530.7z"/>
	<circle class="st26" cx="724.1" cy="281.6" r="12.5"/>
	<path class="st27" d="M721.9,287.2l-1.7-7.4l2.5-0.6l1.7,7.3L721.9,287.2z M724.5,286.5l-1.7-7.3l2.5-0.6l1.7,7.3L724.5,286.5z
		 M730,285.2l-2.8,0.7l-1.8-7.5c0,0,0-0.1-0.1-0.1l0,0l-5.3,1.3c0,0-0.1,0-0.1,0.1l0,0l0,0l1.8,7.5l-1.3,0.3l-2.3-9.7l9.6-2.3
		L730,285.2z M727.9,275.4l-9.8,2.3c0,0-0.1,0-0.1,0.1l0,0l0,0l2.3,9.8c0,0,0,0.1,0.1,0.1l0,0l9.9-2.4c0,0,0.1,0,0.1-0.1l0,0l0,0
		l-2.3-9.8C728,275.4,727.9,275.4,727.9,275.4L727.9,275.4z"/>
	<path class="st27" d="M721.7,278.3l1.5-0.4c0.1,0,0.1,0,0.1-0.1s0-0.1-0.1-0.1l-1.6,0.4c-0.1,0-0.1,0-0.1,0.1
		C721.6,278.2,721.6,278.3,721.7,278.3z"/>
	<path class="st27" d="M727.3,281.3l0.2-0.4l0.3,0.2c0.1,0.1,0.1,0,0.1-0.1l0,0v-0.1l-0.5-0.3h-0.1l0,0l0,0l-0.3,0.5
		c-0.1,0.1,0,0.1,0.1,0.1l0,0L727.3,281.3L727.3,281.3z"/>
	<path class="st27" d="M727.8,282.3L727.8,282.3l0.4-0.5c0.1,0,0.1-0.1,0-0.1c0-0.1-0.1-0.1-0.2,0l0,0l-0.1,0.1l-0.2,0.4l-0.3-0.2
		c-0.1-0.1-0.1-0.1-0.2,0s-0.1,0.1,0,0.2l0.1,0.1H727.8z"/>
	<path class="st28" d="M717.9,301.8l-1.1-4.5l3.3-0.8l0.1,0.6l-2.7,0.6l0.3,1.4l2.5-0.6l0.1,0.6l-2.5,0.6l0.4,1.6l2.8-0.7l0.1,0.6
		L718,302L717.9,301.8z"/>
	<path class="st28" d="M722.1,300.9l-1.1-4.5l0.6-0.1l1.1,4.5L722.1,300.9z"/>
	<path class="st28" d="M725.5,298.9l0.6-0.1c0,0.3-0.1,0.6-0.3,0.9c-0.5,0.6-1.4,0.7-2.1,0.3c-0.7-0.6-1-1.7-0.6-2.5
		c0.2-0.4,0.6-0.6,1-0.7s0.8,0,1.2,0.2c0.4,0.3,0.6,0.7,0.7,1.2v0.1l-2.5,0.6c0.1,0.3,0.3,0.6,0.5,0.8c0.2,0.1,0.5,0.2,0.8,0.1
		c0.2,0,0.3-0.1,0.5-0.3C725.4,299.4,725.5,299.2,725.5,298.9z M723.5,298.5l1.8-0.4c-0.1-0.2-0.2-0.4-0.4-0.6s-0.5-0.3-0.8-0.2
		c-0.2,0-0.5,0.2-0.6,0.4C723.4,298,723.4,298.2,723.5,298.5z"/>
	<path class="st28" d="M727.9,299.5l-2-2.9l0.6-0.1l1.2,1.8l0.4,0.6c0-0.2,0.1-0.5,0.1-0.7l0.2-2.1l0.6-0.1l-0.5,3.6L727.9,299.5z"
		/>
	<path class="st28" d="M732.3,298c-0.1,0.2-0.3,0.4-0.5,0.5s-0.4,0.2-0.6,0.3c-0.3,0.1-0.6,0-0.9-0.1c-0.2-0.1-0.4-0.4-0.5-0.6
		c0-0.2,0-0.3,0-0.5s0.1-0.3,0.2-0.4l0.4-0.3c0.1-0.1,0.3-0.2,0.5-0.2c0.3-0.1,0.7-0.2,0.9-0.4v-0.1c-0.1-0.2-0.1-0.3-0.3-0.5
		c-0.2-0.1-0.5-0.1-0.7-0.1s-0.4,0.1-0.5,0.3c-0.1,0.2-0.2,0.4-0.2,0.6l-0.6,0.1c0-0.2,0-0.4,0.1-0.6s0.2-0.3,0.4-0.5
		c0.2-0.1,0.5-0.3,0.7-0.3c0.2-0.1,0.5-0.1,0.7-0.1s0.3,0.1,0.4,0.2c0.1,0.1,0.2,0.2,0.2,0.3l0.1,0.5l0.2,0.8l0.2,1
		c0.1,0.1,0.1,0.3,0.2,0.4l-0.6,0.1C732.3,298.3,732.3,298.1,732.3,298z M731.9,296.8c-0.3,0.1-0.5,0.3-0.9,0.4
		c-0.2,0.1-0.3,0.1-0.5,0.3c-0.1,0.1-0.1,0.1-0.2,0.3c-0.1,0.2,0,0.5,0.2,0.6s0.4,0.1,0.5,0c0.2-0.1,0.4-0.1,0.5-0.3
		c0.1-0.1,0.2-0.3,0.3-0.4c0-0.2,0-0.4-0.1-0.6L731.9,296.8L731.9,296.8z"/>
	<path class="st28" d="M734.8,297.3l0.2,0.5c-0.1,0-0.3,0.1-0.4,0.2c-0.2,0.1-0.3,0.1-0.5,0c-0.1-0.1-0.2-0.1-0.3-0.2
		c-0.1-0.2-0.2-0.4-0.2-0.6l-0.5-1.9l-0.4,0.1l-0.1-0.4l0.4-0.1l-0.2-0.8l0.5-0.5l0.3,1.1l0.6-0.1l0.1,0.4l-0.6,0.1l0.5,1.9l0.1,0.3
		c0,0.1,0.1,0.1,0.1,0.1c0.1,0,0.2,0,0.2,0C734.6,297.4,734.7,297.3,734.8,297.3z"/>
	<path class="st28" d="M734.9,296.1c-0.2-0.5-0.1-1,0.2-1.5c0.2-0.3,0.6-0.5,1-0.6s0.9-0.1,1.2,0.2c0.4,0.3,0.6,0.7,0.7,1.1
		c0.1,0.3,0.1,0.7,0,1s-0.2,0.5-0.4,0.7s-0.5,0.3-0.7,0.4c-0.4,0.1-0.9,0.1-1.2-0.2C735.2,297,735,296.6,734.9,296.1z M735.4,296
		c0.1,0.3,0.2,0.6,0.5,0.9c0.4,0.3,1,0.2,1.3-0.2l0,0l0.1-0.1c0.1-0.3,0.1-0.7,0-1.1c-0.1-0.3-0.2-0.6-0.5-0.9
		c-0.4-0.3-1-0.2-1.3,0.2l0,0l-0.1,0.1C735.4,295.3,735.3,295.6,735.4,296z"/>
	<path class="st28" d="M739,296.8l-0.8-3.3l0.5-0.1l0.1,0.5c0-0.2,0.1-0.4,0.2-0.6c0.1-0.1,0.2-0.2,0.3-0.2c0.2-0.1,0.4,0,0.6,0.1
		l-0.1,0.5c-0.1,0-0.3-0.1-0.5,0c-0.1,0-0.2,0.1-0.3,0.2s-0.1,0.2-0.1,0.3c0,0.2,0,0.4,0.1,0.7l0.4,1.7L739,296.8L739,296.8
		L739,296.8z"/>
	
		<ellipse transform="matrix(0.1602 -0.9871 0.9871 0.1602 236.1061 693.076)" class="st26" cx="525.4" cy="207.8" rx="15.7" ry="15.7"/>
	<g id="Outline_Icons-2-2-2-3">
		<g id="Outline_Icons-4">
			<path class="st29" d="M530.4,207.8c0.1,0.3-0.1,0.6-0.4,0.6l0,0l-3,0.5l-1.1-6.6c-0.1-0.6,0.3-1.3,0.9-1.4l0,0l1.2-0.2
				c0.6-0.1,1.3,0.3,1.4,0.9l0,0L530.4,207.8z"/>
			<path class="st29" d="M523,215.9l6.1-1l-0.6-3.6l1.6-1.5l-0.2-1.2l-10.3,1.7c0.2,1.6,1.6,2.7,3.1,2.6l0,0h0.2L523,215.9z"/>
			
				<rect x="518.9" y="208.4" transform="matrix(0.9872 -0.1597 0.1597 0.9872 -26.6663 86.1895)" class="st30" width="8" height="1.2"/>
			<circle class="st29" cx="528" cy="202.9" r="0.6"/>
		</g>
	</g>
	<circle class="st26" cx="820.6" cy="139.7" r="15.7"/>
	<g id="Outline_Icons-2-2-2-3-2">
		<g id="Outline_Icons-4-2">
			<path class="st29" d="M825.7,139.6c0.1,0.3-0.1,0.6-0.4,0.6l0,0l-3,0.5l-1.1-6.6c-0.1-0.6,0.3-1.3,0.9-1.4l0,0l1.2-0.2
				c0.6-0.1,1.3,0.3,1.4,0.9l0,0L825.7,139.6z"/>
			<path class="st29" d="M818.2,147.7l6.1-1l-0.6-3.6l1.6-1.5l-0.2-1.2l-10.2,1.7c0.2,1.6,1.6,2.7,3.1,2.6l0,0h0.2L818.2,147.7z"/>
			
				<rect x="814.1" y="140.3" transform="matrix(0.9872 -0.1597 0.1597 0.9872 -12.0021 132.4588)" class="st30" width="8" height="1.2"/>
			<circle class="st29" cx="823.3" cy="134.7" r="0.6"/>
		</g>
	</g>
	<circle class="st26" cx="1144.6" cy="442.5" r="15.7"/>
	<g id="Outline_Icons-2-2-2-3-3">
		<g id="Outline_Icons-4-3">
			<path class="st29" d="M1147.8,446.4c-0.2,0.2-0.5,0.3-0.8,0.1l0,0l-2.3-2l4.5-5c0.4-0.5,1.2-0.6,1.7-0.1l0,0l0.9,0.8
				c0.5,0.4,0.6,1.2,0.1,1.7l0,0L1147.8,446.4z"/>
			<path class="st29" d="M1136.9,445.7l4.6,4.1l2.4-2.7l2.2,0.3l0.8-0.9l-7.8-6.9c-1.1,1.1-1.1,2.9,0,4.1l0,0l0.1,0.1L1136.9,445.7z
				"/>
			
				<rect x="1141.5" y="437.3" transform="matrix(0.6656 -0.7463 0.7463 0.6656 52.5526 999.8901)" class="st31" width="1.2" height="8"/>
			<circle class="st29" cx="1150.1" cy="441.4" r="0.6"/>
		</g>
	</g>
	<circle class="st26" cx="758.5" cy="418.6" r="13.4"/>
	<g id="Outline_Icons-6">
		<g id="Outline_Icons-7">
			<polygon class="st29" points="760.1,425.3 757.2,425.3 756.1,421.9 761.2,421.9 			"/>
			<path class="st29" d="M764.1,417.8c0.8,0,1.4-0.5,1.5-1.3v-0.2c-0.1-0.8-0.7-1.4-1.5-1.5h-0.9c-0.3-0.7-1-1.1-1.7-1.2
				c-0.6-1.4-2.3-2.1-3.7-1.5c-0.7,0.3-1.2,0.8-1.5,1.5c-0.7,0.1-1.4,0.5-1.7,1.2h-0.9c-0.8,0.1-1.4,0.7-1.5,1.5
				c0,0.8,0.5,1.4,1.3,1.5H764.1z"/>
			<line class="st29" x1="758.7" y1="417.8" x2="758.7" y2="421.9"/>
			<line class="st29" x1="761" y1="417.8" x2="758.7" y2="420.1"/>
			<line class="st29" x1="756.4" y1="417.8" x2="758.7" y2="420.1"/>
		</g>
	</g>
	<path class="st24" d="M751,437.7v-2.9h1.1c0.2,0,0.4,0,0.5,0.1s0.2,0.2,0.3,0.3c0.1,0.1,0.1,0.2,0.1,0.4c0,0.1,0,0.2-0.1,0.4
		c-0.1,0.1-0.2,0.2-0.3,0.3c0.2,0,0.3,0.1,0.4,0.3c0.1,0.1,0.1,0.3,0.1,0.4s0,0.3-0.1,0.4c0,0.1-0.1,0.2-0.2,0.3
		c-0.1,0.1-0.2,0.1-0.3,0.1c-0.2,0-0.3,0.1-0.5,0L751,437.7z M751.4,436h0.6c0.1,0,0.2,0,0.4,0c0.1,0,0.2-0.1,0.2-0.1
		c0.1-0.1,0.1-0.2,0.1-0.3c0-0.1,0-0.2-0.1-0.3c0-0.1-0.1-0.1-0.2-0.2c-0.1,0-0.3,0-0.4,0h-0.6V436z M751.4,437.3h0.7
		c0.1,0,0.2,0,0.3,0s0.2,0,0.2-0.1c0.1,0,0.1-0.1,0.1-0.2s0.1-0.2,0.1-0.2c0-0.1,0-0.2-0.1-0.3c-0.1-0.1-0.1-0.1-0.2-0.2
		c-0.1,0-0.3-0.1-0.4,0h-0.7L751.4,437.3L751.4,437.3z"/>
	<path class="st24" d="M755,437.4c-0.1,0.1-0.2,0.2-0.4,0.2c-0.1,0-0.3,0.1-0.4,0.1c-0.2,0-0.4,0-0.5-0.2c-0.1-0.1-0.2-0.3-0.2-0.4
		s0-0.2,0.1-0.3c0-0.1,0.1-0.2,0.2-0.2c0.1-0.1,0.2-0.1,0.3-0.1s0.2,0,0.3-0.1c0.2,0,0.4-0.1,0.6-0.1v-0.1c0-0.1,0-0.2-0.1-0.3
		c-0.1-0.1-0.3-0.1-0.4-0.1c-0.1,0-0.3,0-0.4,0.1c-0.1,0.1-0.2,0.2-0.2,0.3h-0.3c0-0.1,0.1-0.3,0.2-0.4c0.1-0.1,0.2-0.2,0.3-0.2
		c0.2-0.1,0.3-0.1,0.5-0.1c0.1,0,0.3,0,0.4,0.1c0.1,0,0.2,0.1,0.2,0.2c0.1,0.1,0.1,0.2,0.1,0.2c0,0.1,0,0.2,0,0.3v0.5
		c0,0.2,0,0.4,0,0.6c0,0.1,0,0.2,0.1,0.3H755C755.1,437.6,755,437.5,755,437.4z M755,436.6c-0.2,0.1-0.4,0.1-0.6,0.1
		c-0.1,0-0.2,0-0.3,0.1c-0.1,0-0.1,0.1-0.1,0.1c0,0.1-0.1,0.1,0,0.2c0,0.1,0,0.2,0.1,0.2c0.1,0.1,0.2,0.1,0.3,0.1s0.3,0,0.4-0.1
		c0.1-0.1,0.2-0.1,0.2-0.2s0.1-0.2,0.1-0.4L755,436.6z"/>
	<path class="st24" d="M757.3,436.9h0.4c0,0.2-0.1,0.4-0.3,0.6c-0.2,0.1-0.4,0.2-0.6,0.2c-0.3,0-0.5-0.1-0.7-0.3
		c-0.2-0.2-0.3-0.5-0.3-0.8c0-0.2,0-0.4,0.1-0.6s0.2-0.3,0.3-0.4c0.2-0.1,0.3-0.1,0.5-0.1s0.4,0.1,0.6,0.2c0.2,0.1,0.3,0.3,0.3,0.5
		l-0.3,0.1c0-0.1-0.1-0.2-0.2-0.3c-0.1-0.1-0.2-0.1-0.3-0.1c-0.2,0-0.3,0.1-0.4,0.2c-0.1,0.2-0.2,0.4-0.2,0.6s0,0.4,0.2,0.6
		c0.1,0.1,0.3,0.2,0.4,0.2c0.1,0,0.3,0,0.4-0.1C757.2,437.2,757.3,437,757.3,436.9z"/>
	<path class="st24" d="M758,437.7v-2.9h0.4v1.7l0.8-0.9h0.5l-0.8,0.8l0.9,1.3h-0.4l-0.7-1.1l-0.3,0.2v0.8L758,437.7z"/>
	<path class="st24" d="M760,438.5v-0.3c0.1,0,0.1,0,0.2,0c0.1,0,0.1,0,0.2,0l0.1-0.1c0-0.1,0.1-0.2,0.1-0.3c0,0,0,0,0-0.1l-0.8-2.1
		h0.4l0.4,1.2c0.1,0.2,0.1,0.3,0.2,0.5c0-0.2,0.1-0.3,0.1-0.5l0.5-1.2h0.4l-0.8,2.1c-0.1,0.2-0.1,0.3-0.2,0.5
		c-0.1,0.1-0.1,0.2-0.2,0.3c-0.1,0.1-0.2,0.1-0.3,0.1C760.1,438.5,760,438.5,760,438.5z"/>
	<path class="st24" d="M763.4,437.4c-0.1,0.1-0.2,0.2-0.4,0.2c-0.1,0-0.3,0.1-0.4,0.1c-0.2,0-0.4,0-0.5-0.2
		c-0.1-0.1-0.2-0.3-0.2-0.4c0-0.2,0.1-0.4,0.3-0.5c0.1-0.1,0.2-0.1,0.3-0.1s0.2,0,0.3-0.1c0.2,0,0.4-0.1,0.6-0.1v-0.1
		c0-0.1,0-0.2-0.1-0.3c-0.1-0.1-0.3-0.1-0.4-0.1c-0.1,0-0.3,0-0.4,0.1c-0.1,0.1-0.2,0.2-0.2,0.3H762c0-0.1,0.1-0.3,0.2-0.4
		c0.1-0.1,0.2-0.2,0.3-0.2c0.2-0.1,0.3-0.1,0.5-0.1c0.1,0,0.3,0,0.4,0.1c0.1,0,0.2,0.1,0.2,0.2c0.1,0.1,0.1,0.2,0.1,0.2
		c0,0.1,0,0.2,0,0.3v0.5c0,0.2,0,0.4,0,0.6c0,0.1,0,0.2,0.1,0.3h-0.4C763.4,437.6,763.4,437.5,763.4,437.4z M763.4,436.6
		c-0.2,0.1-0.4,0.1-0.6,0.1c-0.1,0-0.2,0-0.3,0.1c-0.1,0-0.1,0.1-0.1,0.1c0,0.1-0.1,0.1,0,0.2c0,0.1,0,0.2,0.1,0.2
		c0.1,0.1,0.2,0.1,0.3,0.1s0.3,0,0.4-0.1c0.1-0.1,0.2-0.1,0.2-0.2s0.1-0.2,0.1-0.4v-0.1L763.4,436.6L763.4,436.6z"/>
	<path class="st24" d="M764.3,437.7v-2.1h0.3v0.3c0.1-0.1,0.1-0.2,0.2-0.3c0.1,0,0.1-0.1,0.2-0.1c0.1,0,0.3,0,0.4,0.1l-0.1,0.3
		c-0.1,0-0.2-0.1-0.3-0.1s-0.2,0-0.2,0.1c-0.1,0-0.1,0.1-0.1,0.2s-0.1,0.3-0.1,0.4v1.1L764.3,437.7z"/>
	<path class="st24" d="M767,437.7v-0.3c-0.1,0.2-0.4,0.3-0.6,0.3c-0.2,0-0.3,0-0.5-0.1c-0.1-0.1-0.3-0.2-0.3-0.4
		c-0.1-0.2-0.1-0.4-0.1-0.6s0-0.4,0.1-0.6c0.1-0.3,0.4-0.5,0.8-0.5c0.1,0,0.2,0,0.3,0.1s0.2,0.1,0.2,0.2v-1h0.4v2.9H767z
		 M765.9,436.6c0,0.2,0,0.4,0.2,0.6c0.1,0.1,0.2,0.2,0.4,0.2s0.3-0.1,0.4-0.2c0.1-0.2,0.2-0.4,0.2-0.6s0-0.4-0.2-0.6
		c-0.1-0.1-0.3-0.2-0.4-0.2c-0.2,0-0.3,0.1-0.4,0.2C765.9,436.2,765.9,436.4,765.9,436.6L765.9,436.6z"/>
	<g id="reception">
		<circle class="st26" cx="689.4" cy="524.4" r="12.2"/>
		<g>
			<path class="st28" d="M676.7,543.7v-4h1.8c0.3,0,0.7,0,0.8,0.1s0.3,0.2,0.4,0.3c0.1,0.2,0.2,0.3,0.2,0.6c0,0.2-0.1,0.5-0.2,0.7
				c-0.2,0.2-0.6,0.3-0.9,0.3c0.1,0.1,0.2,0.1,0.3,0.2c0.2,0.2,0.3,0.4,0.4,0.6l0.7,1.1h-0.7l-0.6-0.9c-0.1-0.2-0.3-0.4-0.3-0.6
				s-0.2-0.2-0.2-0.2c-0.1,0-0.1-0.1-0.2-0.1h-1v1.8L676.7,543.7L676.7,543.7z M677.2,541.5h1.1c0.2,0,0.4,0,0.6-0.1
				c0.1,0,0.2-0.1,0.3-0.2c0.1-0.1,0.1-0.2,0.1-0.3c0-0.2-0.1-0.3-0.2-0.4c-0.2-0.2-0.4-0.2-0.7-0.2h-1.2L677.2,541.5z"/>
			<path class="st28" d="M682.7,542.8l0.6,0.1c-0.1,0.3-0.2,0.5-0.4,0.7c-0.3,0.2-0.6,0.2-0.9,0.2c-0.4,0-0.8-0.1-1-0.4
				c-0.2-0.3-0.3-0.7-0.3-1.1c0-0.4,0.1-0.8,0.3-1.1c0.3-0.3,0.6-0.4,1-0.4s0.8,0.1,1,0.4c0.2,0.3,0.4,0.7,0.3,1.1v0.1H681
				c0,0.3,0.1,0.5,0.2,0.8c0.1,0.2,0.3,0.2,0.6,0.2s0.3,0,0.4-0.1C682.6,543.2,682.7,543.1,682.7,542.8z M681.1,542h1.7
				c0-0.2-0.1-0.4-0.2-0.6c-0.1-0.2-0.4-0.4-0.7-0.3c-0.2,0-0.4,0.1-0.6,0.2C681.2,541.5,681.1,541.7,681.1,542L681.1,542z"/>
			<path class="st28" d="M685.7,542.6l0.4,0.1c0,0.3-0.2,0.6-0.4,0.8s-0.5,0.3-0.8,0.3c-0.4,0-0.8-0.1-1-0.4
				c-0.3-0.6-0.4-1.3-0.2-1.9c0.1-0.2,0.2-0.4,0.4-0.6c0.2-0.1,0.4-0.2,0.7-0.2s0.5,0.1,0.8,0.2c0.2,0.1,0.4,0.4,0.3,0.7l-0.4,0.1
				c0-0.2-0.1-0.3-0.2-0.4c-0.1-0.1-0.2-0.1-0.4-0.1s-0.4,0.1-0.6,0.2c-0.3,0.6-0.3,1.2,0,1.8c0.1,0.2,0.3,0.2,0.6,0.2
				c0.2,0,0.3-0.1,0.4-0.2C685.6,543.1,685.7,543,685.7,542.6z"/>
			<path class="st28" d="M688.7,542.8l0.6,0.1c-0.1,0.3-0.2,0.5-0.4,0.7c-0.3,0.2-0.6,0.2-0.9,0.2c-0.4,0-0.8-0.1-1-0.4
				c-0.2-0.3-0.3-0.7-0.3-1.1c0-0.4,0.1-0.8,0.3-1.1c0.3-0.3,0.6-0.4,1-0.4s0.8,0.1,1,0.4c0.2,0.3,0.4,0.7,0.3,1.1v0.1H687
				c0,0.3,0.1,0.5,0.2,0.8c0.1,0.2,0.3,0.2,0.6,0.2s0.3,0,0.4-0.1C688.5,543.2,688.6,543,688.7,542.8z M687,542h1.7
				c0-0.2-0.1-0.4-0.2-0.6c-0.1-0.2-0.4-0.4-0.7-0.3c-0.2,0-0.4,0.1-0.6,0.2C687.1,541.5,687,541.7,687,542L687,542z"/>
			<path class="st28" d="M689.8,544.9v-4h0.4v0.3l0.3-0.3c0.1-0.1,0.3-0.1,0.4-0.1c0.2,0,0.5,0.1,0.7,0.2c0.2,0.1,0.4,0.3,0.4,0.6
				c0.1,0.5,0.1,1.1,0,1.6c-0.1,0.2-0.2,0.4-0.4,0.6c-0.2,0.1-0.4,0.2-0.7,0.2c-0.2,0-0.3,0-0.4-0.1c-0.1-0.1-0.2-0.1-0.3-0.2v1.4
				L689.8,544.9L689.8,544.9z M690.3,542.3c0,0.3,0.1,0.6,0.2,0.8c0.2,0.1,0.4,0.2,0.6,0.2c0.2,0,0.5-0.1,0.6-0.3
				c0.2-0.3,0.2-0.6,0.2-0.9c0-0.3-0.1-0.6-0.2-0.9c-0.1-0.2-0.3-0.2-0.6-0.2c-0.2,0-0.5,0.1-0.6,0.3
				C690.3,541.6,690.3,541.9,690.3,542.3z"/>
			<path class="st28" d="M694,543.3l0.1,0.4h-0.3c-0.2,0-0.3,0-0.4-0.1s-0.2-0.1-0.2-0.2c0-0.2-0.1-0.4-0.1-0.6v-1.7h-0.3v-0.3h0.3
				v-0.7l0.4-0.3v1h0.4v0.3h-0.4v1.9c0,0.1,0,0.1,0.1,0.1l0,0h0.2C693.8,543.3,693.9,543.3,694,543.3z"/>
			<path class="st28" d="M694.5,540.3v-0.6h0.4v0.6H694.5z M694.5,543.7v-2.9h0.4v2.9H694.5z"/>
			<path class="st28" d="M695.5,542.3c0-0.5,0.1-0.9,0.4-1.2c0.2-0.2,0.6-0.3,0.9-0.3c0.4,0,0.8,0.1,1,0.4c0.2,0.3,0.4,0.7,0.3,1.1
				c0,0.3-0.1,0.6-0.2,0.9c-0.1,0.2-0.3,0.4-0.4,0.6c-0.2,0.1-0.4,0.2-0.7,0.2c-0.4,0-0.8-0.1-1-0.4
				C695.7,543.1,695.5,542.7,695.5,542.3z M696.1,542.3c0,0.3,0.1,0.6,0.2,0.9c0.1,0.2,0.4,0.4,0.7,0.3c0.3,0,0.5-0.1,0.7-0.3
				s0.2-0.4,0.2-0.9c0-0.3-0.1-0.6-0.2-0.8c-0.1-0.2-0.3-0.2-0.6-0.2c-0.2,0-0.5,0.1-0.7,0.2C696.2,541.7,696,542,696.1,542.3
				L696.1,542.3z"/>
			<path class="st28" d="M698.8,543.7v-2.9h0.4v0.4c0.2-0.3,0.5-0.5,0.9-0.4c0.2,0,0.3,0,0.4,0.1s0.2,0.1,0.3,0.2
				c0.1,0.1,0.1,0.2,0.1,0.3v2.2h-0.3V542c0-0.2,0-0.3-0.1-0.4c0-0.1-0.1-0.2-0.2-0.2c-0.1-0.1-0.2-0.1-0.3-0.1
				c-0.2,0-0.4,0.1-0.6,0.2c-0.2,0.2-0.3,0.5-0.2,0.8v1.6L698.8,543.7z"/>
		</g>
		<g id="Outline_Icons-2-2">
			<circle class="st32" cx="686.7" cy="520.7" r="1.7"/>
			<path class="st32" d="M689.4,523.2h-5.1c-0.1,1.4,0.6,2.7,1.7,3.6v3h1.9v-3C688.8,525.9,689.4,524.6,689.4,523.2z"/>
			<line class="st32" x1="688.9" y1="525.1" x2="694.6" y2="525.1"/>
			<circle class="st32" cx="692" cy="520.9" r="1.2"/>
			<path class="st32" d="M690,525.1c0-1.2,1-2.1,2.2-2.1c0,0,0,0,0.1,0c1.2,0,2.1,1,2.1,2.1l0,0"/>
		</g>
	</g>
	<g>
		<path class="st28" d="M820.9,164.5l-3-5.1l0.8-0.2l1.8,3.4c0.2,0.4,0.4,0.7,0.5,1.1c0-0.6,0-1,0-1.1v-4l0.9-0.2l1.6,2.6
			c0.4,0.6,0.7,1.3,1,1.8c0-0.4,0-0.8-0.1-1.3l-0.1-3.8l0.7-0.2v5.9l-0.7,0.2l-2.3-3.9c-0.2-0.3-0.3-0.5-0.3-0.6c0,0.3,0,0.5,0,0.7
			v4.5L820.9,164.5z"/>
		<path class="st28" d="M826.9,162.9l-0.2-0.8l0.8-0.2l0.2,0.8L826.9,162.9z"/>
		<path class="st28" d="M832.3,159.3h0.8c0,0.6-0.1,1.2-0.5,1.6c-0.3,0.4-0.8,0.7-1.3,0.9c-0.6,0.2-1.1,0.2-1.6,0
			c-0.4-0.1-0.8-0.4-1.1-0.8c-0.3-0.4-0.6-0.9-0.7-1.4c-0.2-0.6-0.2-1.1-0.1-1.6s0.3-0.9,0.7-1.2c0.3-0.3,0.8-0.6,1.2-0.7
			c0.6-0.2,1.1-0.1,1.5,0c0.5,0.2,0.8,0.5,1.1,1l-0.7,0.4c-0.2-0.4-0.5-0.6-0.8-0.7s-0.6-0.1-1,0s-0.8,0.3-1,0.6s-0.4,0.6-0.4,1
			s0,0.7,0.1,1.1c0.1,0.5,0.3,0.9,0.5,1.2s0.5,0.5,0.9,0.6c0.3,0.1,0.7,0.1,1,0c0.4-0.1,0.7-0.3,0.9-0.6
			C832.2,160.2,832.3,159.8,832.3,159.3z"/>
	</g>
	<g>
		<path class="st28" d="M525.7,231l-3.2-5l0.7-0.2l2,3.3c0.2,0.3,0.4,0.7,0.6,1c0-0.6-0.1-1-0.1-1.1l-0.1-4l0.9-0.3l1.7,2.5
			c0.4,0.6,0.8,1.2,1,1.8c0-0.4-0.1-0.8-0.1-1.3l-0.3-3.8l0.7-0.2l0.2,5.9l-0.7,0.2l-2.5-3.8c-0.2-0.3-0.3-0.5-0.4-0.6
			c0,0.3,0,0.5,0,0.7l0.2,4.5L525.7,231z"/>
		<path class="st28" d="M531.6,229.1l-0.2-0.8l0.8-0.2l0.2,0.8L531.6,229.1z"/>
		<path class="st28" d="M536.9,225.3h0.8c0,0.6-0.1,1.2-0.4,1.6s-0.7,0.7-1.3,0.9s-1.1,0.2-1.5,0.1s-0.8-0.4-1.2-0.8
			c-0.3-0.4-0.6-0.9-0.8-1.4c-0.2-0.6-0.2-1.1-0.1-1.6c0.1-0.5,0.3-0.9,0.6-1.3c0.3-0.3,0.7-0.6,1.2-0.7c0.5-0.2,1-0.2,1.5,0
			s0.8,0.5,1.1,0.9l-0.7,0.4c-0.3-0.4-0.5-0.6-0.8-0.7c-0.3-0.1-0.6-0.1-1,0s-0.7,0.3-1,0.6c-0.2,0.3-0.3,0.6-0.3,1s0,0.7,0.2,1.1
			c0.1,0.5,0.3,0.8,0.6,1.2c0.2,0.3,0.5,0.5,0.9,0.6c0.3,0.1,0.7,0.1,1,0c0.4-0.1,0.7-0.4,0.9-0.7
			C536.9,226.2,537,225.8,536.9,225.3z"/>
	</g>
	<g>
		<path class="st28" d="M1124.7,455.7l2.2-5.5l0.6,0.5l-1.5,3.5c-0.2,0.4-0.3,0.7-0.5,1.1c0.5-0.4,0.8-0.6,0.8-0.7l3.2-2.5l0.7,0.5
			l-1.1,2.8c-0.3,0.7-0.5,1.3-0.8,1.9c0.3-0.2,0.6-0.5,1-0.8l2.9-2.4l0.6,0.4l-4.7,3.7l-0.6-0.4l1.6-4.2c0.1-0.4,0.2-0.6,0.3-0.6
			c-0.2,0.2-0.4,0.3-0.5,0.4l-3.6,2.8L1124.7,455.7z"/>
		<path class="st28" d="M1129.7,459.4l0.5-0.6l0.6,0.5l-0.5,0.6L1129.7,459.4z"/>
		<path class="st28" d="M1135.9,461.4l0.5,0.6c-0.5,0.4-1,0.6-1.5,0.6s-1-0.1-1.5-0.5s-0.8-0.8-1-1.2c-0.2-0.4-0.2-0.9-0.1-1.4
			s0.3-1,0.7-1.4c0.4-0.5,0.8-0.8,1.2-1.1s0.9-0.3,1.4-0.2c0.5,0.1,0.9,0.2,1.3,0.5c0.5,0.3,0.8,0.7,0.9,1.2s0.1,1-0.1,1.5l-0.7-0.3
			c0.1-0.4,0.2-0.8,0.1-1.1c-0.1-0.3-0.3-0.6-0.6-0.8c-0.4-0.3-0.7-0.4-1.1-0.4s-0.7,0.1-1,0.3s-0.6,0.5-0.8,0.8
			c-0.3,0.4-0.5,0.8-0.6,1.2s-0.1,0.7,0.1,1c0.1,0.3,0.3,0.6,0.6,0.8c0.3,0.3,0.7,0.4,1.1,0.3
			C1135.2,461.9,1135.6,461.7,1135.9,461.4z"/>
	</g>
</g>
</svg>
