<svg id="Capa_1" data-name="Capa 1" xmlns="http://www.w3.org/2000/svg" viewBox="0 0 1261.294 932.039"><defs><style>.cls-1{opacity:.22}.cls-2{fill:none;stroke:#fff;stroke-miterlimit:10}</style></defs><title>Triangle pattern</title><g class="cls-1"><path class="cls-2" d="M630.814 850.385l69.964-40.394v80.788l-69.964-40.394zm0-80.788l69.964-40.394v80.788l-69.964-40.394zm0-80.788l69.964-40.394v80.788l-69.964-40.394zm0-80.788l69.964-40.395v80.789l-69.964-40.394zm0-80.788l69.964-40.395v80.788l-69.964-40.393z"/><path class="cls-2" d="M630.814 446.445l69.964-40.395v80.788l-69.964-40.393zm0-80.788l69.964-40.395v80.788l-69.964-40.393z"/><path class="cls-2" d="M700.778 325.262l-69.964 40.395v-80.788l69.964 40.393zm0 80.788l-69.964 40.395v-80.788l69.964 40.393zm0 80.788l-69.964 40.395v-80.788l69.964 40.393z"/><path class="cls-2" d="M700.778 567.626l-69.964 40.395v-80.788l69.964 40.393zm.102 80.967l-70.169 40.038.411-80.787 69.758 40.749zm-.102 80.61l-69.964 40.394v-80.788l69.964 40.394zm0 80.788l-69.964 40.394v-80.788l69.964 40.394zm0 80.788l-69.964 40.394v-80.788l69.964 40.394zm69.882-525.123l-69.965 40.394v-80.787l69.965 40.393zm0 80.789l-69.965 40.394V406.05l69.965 40.395z"/><path class="cls-2" d="M770.66 527.232l-69.965 40.394v-80.787l69.965 40.393zm0 80.789l-69.965 40.394v-80.789l69.965 40.395zm0 80.788l-69.965 40.394v-80.788l69.965 40.394zm0 80.788l-69.965 40.394v-80.788l69.965 40.394zm0 80.788l-69.965 40.394v-80.788l69.965 40.394zm-69.965-40.394l69.965-40.394v80.788l-69.965-40.394zm0-80.788l69.965-40.394v80.788l-69.965-40.394zm0-80.788l69.965-40.394v80.788l-69.965-40.394zm0-80.789l69.965-40.394v80.789l-69.965-40.395zm0-80.787l69.965-40.394v80.787l-69.965-40.393zm0-80.789l69.965-40.394v80.789l-69.965-40.395zm0-80.787l69.965-40.394v80.787l-69.965-40.393zm0 565.517l69.965-40.395v80.788l-69.965-40.393zm69.984-40.395l69.965-40.394v80.788l-69.965-40.394zm0-80.788l69.965-40.394v80.788l-69.965-40.394zm0-80.788l69.965-40.394v80.788l-69.965-40.394zm0-80.788l69.965-40.395v80.789l-69.965-40.394zm0-80.788l69.965-40.395v80.788l-69.965-40.393z"/><path class="cls-2" d="M770.679 446.445l69.965-40.395v80.788l-69.965-40.393zm0-80.788l69.965-40.395v80.788l-69.965-40.393z"/><path class="cls-2" d="M840.644 325.262l-69.965 40.395v-80.788l69.965 40.393zm0 80.788l-69.965 40.395v-80.788l69.965 40.393zm0 80.788l-69.965 40.395v-80.788l69.965 40.393z"/><path class="cls-2" d="M840.644 567.626l-69.965 40.395v-80.788l69.965 40.393zm.102 80.967l-70.17 40.038.411-80.787 69.759 40.749zm-.102 80.61l-69.965 40.394v-80.788l69.965 40.394zm0 80.788l-69.965 40.394v-80.788l69.965 40.394zm0 80.788l-69.965 40.394v-80.788l69.965 40.394zm69.701-525.123L840.38 406.05v-80.787l69.965 40.393zm0 80.789l-69.965 40.394V406.05l69.965 40.395z"/><path class="cls-2" d="M910.345 527.232l-69.965 40.394v-80.787l69.965 40.393zm0 80.789l-69.965 40.394v-80.789l69.965 40.395zm0 80.788l-69.965 40.394v-80.788l69.965 40.394zm0 80.788l-69.965 40.394v-80.788l69.965 40.394zm0 80.788l-69.965 40.394v-80.788l69.965 40.394z"/><path class="cls-2" d="M840.38 809.991l69.965-40.394v80.788l-69.965-40.394zm0-80.788l69.965-40.394v80.788l-69.965-40.394zm0-80.788l69.965-40.394v80.788l-69.965-40.394zm0-80.789l69.965-40.394v80.789l-69.965-40.395zm0-80.787l69.965-40.394v80.787l-69.965-40.393zm0-80.789l69.965-40.394v80.789L840.38 406.05zm0-80.787l69.965-40.394v80.787l-69.965-40.393zm0 565.517l69.965-40.395v80.788L840.38 890.78zm69.974-40.395l69.964-40.394v80.788l-69.964-40.394zm0-80.788l69.964-40.394v80.788l-69.964-40.394zm0-80.788l69.964-40.394v80.788l-69.964-40.394zm0-80.788l69.964-40.395v80.789l-69.964-40.394zm0-80.788l69.964-40.395v80.788l-69.964-40.393z"/><path class="cls-2" d="M910.354 446.445l69.964-40.395v80.788l-69.964-40.393zm0-80.788l69.964-40.395v80.788l-69.964-40.393z"/><path class="cls-2" d="M980.318 325.262l-69.964 40.395v-80.788l69.964 40.393zm0 80.788l-69.964 40.395v-80.788l69.964 40.393zm0 80.788l-69.964 40.395v-80.788l69.964 40.393z"/><path class="cls-2" d="M980.318 567.626l-69.964 40.395v-80.788l69.964 40.393zm.103 80.967l-70.17 40.038.411-80.787 69.759 40.749zm-.103 80.61l-69.964 40.394v-80.788l69.964 40.394zm0 80.788l-69.964 40.394v-80.788l69.964 40.394zm0 80.788l-69.964 40.394v-80.788l69.964 40.394zm69.966-525.123l-69.965 40.394v-80.787l69.965 40.393zm0 80.789l-69.965 40.394V406.05l69.965 40.395z"/><path class="cls-2" d="M1050.284 527.232l-69.965 40.394v-80.787l69.965 40.393zm0 80.789l-69.965 40.394v-80.789l69.965 40.395zm0 80.788l-69.965 40.394v-80.788l69.965 40.394zm0 80.788l-69.965 40.394v-80.788l69.965 40.394zm0 80.788l-69.965 40.394v-80.788l69.965 40.394z"/><path class="cls-2" d="M980.319 809.991l69.965-40.394v80.788l-69.965-40.394zm0-80.788l69.965-40.394v80.788l-69.965-40.394zm0-80.788l69.965-40.394v80.788l-69.965-40.394zm0-80.789l69.965-40.394v80.789l-69.965-40.395zm0-80.787l69.965-40.394v80.787l-69.965-40.393zm0-80.789l69.965-40.394v80.789l-69.965-40.395zm0-80.787l69.965-40.394v80.787l-69.965-40.393zm0 565.517l69.965-40.395v80.788l-69.965-40.393zm69.967-40.395l69.965-40.394v80.788l-69.965-40.394zm0-80.788l69.965-40.394v80.788l-69.965-40.394zm0-80.788l69.965-40.394v80.788l-69.965-40.394zm0-80.788l69.965-40.395v80.789l-69.965-40.394zm0-80.788l69.965-40.395v80.788l-69.965-40.393z"/><path class="cls-2" d="M1050.286 446.445l69.965-40.395v80.788l-69.965-40.393zm0-80.788l69.965-40.395v80.788l-69.965-40.393z"/><path class="cls-2" d="M1120.251 325.262l-69.965 40.395v-80.788l69.965 40.393zm0 80.788l-69.965 40.395v-80.788l69.965 40.393zm0 80.788l-69.965 40.395v-80.788l69.965 40.393z"/><path class="cls-2" d="M1120.251 567.626l-69.965 40.395v-80.788l69.965 40.393zm.102 80.967l-70.17 40.038.41-80.787 69.76 40.749zm-.102 80.61l-69.965 40.394v-80.788l69.965 40.394zm0 80.788l-69.965 40.394v-80.788l69.965 40.394zm0 80.788l-69.965 40.394v-80.788l69.965 40.394zm69.964-525.123l-69.964 40.394v-80.787l69.964 40.393zm0 80.789l-69.964 40.394V406.05l69.964 40.395z"/><path class="cls-2" d="M1190.215 527.232l-69.964 40.394v-80.787l69.964 40.393zm0 80.789l-69.964 40.394v-80.789l69.964 40.395zm0 80.788l-69.964 40.394v-80.788l69.964 40.394zm0 80.788l-69.964 40.394v-80.788l69.964 40.394zm0 80.788l-69.964 40.394v-80.788l69.964 40.394z"/><path class="cls-2" d="M1120.251 809.991l69.964-40.394v80.788l-69.964-40.394zm0-80.788l69.964-40.394v80.788l-69.964-40.394zm0-80.788l69.964-40.394v80.788l-69.964-40.394zm0-80.789l69.964-40.394v80.789l-69.964-40.395zm0-80.787l69.964-40.394v80.787l-69.964-40.393zm0-80.789l69.964-40.394v80.789l-69.964-40.395zm0-80.787l69.964-40.394v80.787l-69.964-40.393zm0 565.517l69.964-40.395v80.788l-69.964-40.393zm69.976-40.395l69.965-40.394v80.788l-69.965-40.394zm0-80.788l69.965-40.394v80.788l-69.965-40.394zm0-80.788l69.965-40.394v80.788l-69.965-40.394zm0-80.788l69.965-40.395v80.789l-69.965-40.394zm0-80.788l69.965-40.395v80.788l-69.965-40.393zm0-80.788l69.965-40.395v80.788l-69.965-40.393zm0-80.788l69.965-40.395v80.788l-69.965-40.393z"/><path class="cls-2" d="M1260.192 325.262l-69.965 40.395v-80.788l69.965 40.393zm0 80.788l-69.965 40.395v-80.788l69.965 40.393zm0 80.788l-69.965 40.395v-80.788l69.965 40.393zM630.647 283.625l69.965-40.395v80.788l-69.965-40.393zm0-80.788l69.965-40.395v80.788l-69.965-40.393z"/><path class="cls-2" d="M630.647 122.049l69.965-40.395v80.788l-69.965-40.393zm0-80.788L700.612.866v80.788l-69.965-40.393zm69.965 40.393l-69.965 40.395V41.261l69.965 40.393zm0 80.788l-69.965 40.395v-80.788l69.965 40.393z"/><path class="cls-2" d="M700.612 243.23l-69.965 40.395v-80.788l69.965 40.393zm69.881-201.969l-69.964 40.394V.866l69.964 40.395zm0 80.787l-69.964 40.394V81.655l69.964 40.393z"/><path class="cls-2" d="M770.493 202.837l-69.964 40.394v-80.789l69.964 40.395zm0 80.787l-69.964 40.394v-80.787l69.964 40.393z"/><path class="cls-2" d="M700.529 243.231l69.964-40.394v80.787l-69.964-40.393zm0-80.789l69.964-40.394v80.789l-69.964-40.395zm0-80.787l69.964-40.394v80.787l-69.964-40.393zm69.983 201.97l69.965-40.395v80.788l-69.965-40.393zm0-80.788l69.965-40.395v80.788l-69.965-40.393z"/><path class="cls-2" d="M770.512 122.049l69.965-40.395v80.788l-69.965-40.393zm0-80.788L840.477.866v80.788l-69.965-40.393z"/><path class="cls-2" d="M840.477 81.654l-69.965 40.395V41.261l69.965 40.393zm0 80.788l-69.965 40.395v-80.788l69.965 40.393z"/><path class="cls-2" d="M840.477 243.23l-69.965 40.395v-80.788l69.965 40.393zm69.702-201.969l-69.965 40.394V.866l69.965 40.395zm0 80.787l-69.965 40.394V81.655l69.965 40.393z"/><path class="cls-2" d="M910.179 202.837l-69.965 40.394v-80.789l69.965 40.395zm0 80.787l-69.965 40.394v-80.787l69.965 40.393zm-69.965-40.393l69.965-40.394v80.787l-69.965-40.393zm0-80.789l69.965-40.394v80.789l-69.965-40.395zm0-80.787l69.965-40.394v80.787l-69.965-40.393zm69.974 201.97l69.964-40.395v80.788l-69.964-40.393zm0-80.788l69.964-40.395v80.788l-69.964-40.393z"/><path class="cls-2" d="M910.188 122.049l69.964-40.395v80.788l-69.964-40.393zm0-80.788L980.152.866v80.788l-69.964-40.393z"/><path class="cls-2" d="M980.152 81.654l-69.964 40.395V41.261l69.964 40.393zm0 80.788l-69.964 40.395v-80.788l69.964 40.393z"/><path class="cls-2" d="M980.152 243.23l-69.964 40.395v-80.788l69.964 40.393zm69.965-201.969l-69.964 40.394V.866l69.964 40.395zm0 80.787l-69.964 40.394V81.655l69.964 40.393zm0 80.789l-69.964 40.394v-80.789l69.964 40.395zm0 80.787l-69.964 40.394v-80.787l69.964 40.393z"/><path class="cls-2" d="M980.153 243.231l69.964-40.394v80.787l-69.964-40.393zm0-80.789l69.964-40.394v80.789l-69.964-40.395zm0-80.787l69.964-40.394v80.787l-69.964-40.393zm69.966 201.97l69.965-40.395v80.788l-69.965-40.393zm0-80.788l69.965-40.395v80.788l-69.965-40.393z"/><path class="cls-2" d="M1050.119 122.049l69.965-40.395v80.788l-69.965-40.393zm0-80.788L1120.084.866v80.788l-69.965-40.393z"/><path class="cls-2" d="M1120.084 81.654l-69.965 40.395V41.261l69.965 40.393zm0 80.788l-69.965 40.395v-80.788l69.965 40.393z"/><path class="cls-2" d="M1120.084 243.23l-69.965 40.395v-80.788l69.965 40.393zm69.965-201.969l-69.965 40.394V.866l69.965 40.395zm0 80.787l-69.965 40.394V81.655l69.965 40.393zm0 80.789l-69.965 40.394v-80.789l69.965 40.395zm0 80.787l-69.965 40.394v-80.787l69.965 40.393z"/><path class="cls-2" d="M1120.084 243.231l69.965-40.394v80.787l-69.965-40.393zm0-80.789l69.965-40.394v80.789l-69.965-40.395zm0-80.787l69.965-40.394v80.787l-69.965-40.393zm69.977 201.97l69.965-40.395v80.788l-69.965-40.393zm0-80.788l69.965-40.395v80.788l-69.965-40.393zm0-80.788l69.965-40.395v80.788l-69.965-40.393zm0-80.788L1260.026.866v80.788l-69.965-40.393z"/><path class="cls-2" d="M1260.026 81.654l-69.965 40.395V41.261l69.965 40.393zm0 80.788l-69.965 40.395v-80.788l69.965 40.393z"/><path class="cls-2" d="M1260.026 243.23l-69.965 40.395v-80.788l69.965 40.393zm.166 324.396l-69.965 40.395v-80.788l69.965 40.393zm.102 80.967l-70.169 40.038.41-80.787 69.759 40.749zm-.102 80.61l-69.965 40.394v-80.788l69.965 40.394zm0 80.788l-69.965 40.394v-80.788l69.965 40.394zm0 80.788l-69.965 40.394v-80.788l69.965 40.394z"/></g><g class="cls-1"><path class="cls-2" d="M1.166 850.385l69.965-40.394v80.788L1.166 850.385zm0-80.788l69.965-40.394v80.788L1.166 769.597zm0-80.788l69.965-40.394v80.788L1.166 688.809zm0-80.788l69.965-40.395v80.789L1.166 608.021zm0-80.788l69.965-40.395v80.788L1.166 527.233z"/><path class="cls-2" d="M1.166 446.445l69.965-40.395v80.788L1.166 446.445zm0-80.788l69.965-40.395v80.788L1.166 365.657z"/><path class="cls-2" d="M71.131 325.262L1.166 365.657v-80.788l69.965 40.393zm0 80.788L1.166 446.445v-80.788l69.965 40.393z"/><path class="cls-2" d="M71.131 486.838L1.166 527.233v-80.788l69.965 40.393zm0 80.788L1.166 608.021v-80.788l69.965 40.393zm.102 80.967L1.064 688.631l.41-80.787 69.759 40.749zm-.102 80.61L1.166 769.597v-80.788l69.965 40.394zm0 80.788L1.166 850.385v-80.788l69.965 40.394zm0 80.788L1.166 931.173v-80.788l69.965 40.394zm69.881-525.123L71.048 406.05v-80.787l69.964 40.393z"/><path class="cls-2" d="M141.012 446.445l-69.964 40.394V406.05l69.964 40.395z"/><path class="cls-2" d="M141.012 527.232l-69.964 40.394v-80.787l69.964 40.393zm0 80.789l-69.964 40.394v-80.789l69.964 40.395zm0 80.788l-69.964 40.394v-80.788l69.964 40.394zm0 80.788l-69.964 40.394v-80.788l69.964 40.394zm0 80.788l-69.964 40.394v-80.788l69.964 40.394z"/><path class="cls-2" d="M71.048 809.991l69.964-40.394v80.788l-69.964-40.394zm0-80.788l69.964-40.394v80.788l-69.964-40.394zm0-80.788l69.964-40.394v80.788l-69.964-40.394zm0-80.789l69.964-40.394v80.789l-69.964-40.395zm0-80.787l69.964-40.394v80.787l-69.964-40.393zm0-80.789l69.964-40.394v80.789L71.048 406.05zm0-80.787l69.964-40.394v80.787l-69.964-40.393zm0 565.517l69.964-40.395v80.788L71.048 890.78zm69.984-40.395l69.964-40.394v80.788l-69.964-40.394zm0-80.788l69.964-40.394v80.788l-69.964-40.394zm0-80.788l69.964-40.394v80.788l-69.964-40.394zm0-80.788l69.964-40.395v80.789l-69.964-40.394zm0-80.788l69.964-40.395v80.788l-69.964-40.393z"/><path class="cls-2" d="M141.032 446.445l69.964-40.395v80.788l-69.964-40.393zm0-80.788l69.964-40.395v80.788l-69.964-40.393z"/><path class="cls-2" d="M210.996 325.262l-69.964 40.395v-80.788l69.964 40.393zm0 80.788l-69.964 40.395v-80.788l69.964 40.393zm0 80.788l-69.964 40.395v-80.788l69.964 40.393z"/><path class="cls-2" d="M210.996 567.626l-69.964 40.395v-80.788l69.964 40.393zm.102 80.967l-70.169 40.038.411-80.787 69.758 40.749zm-.102 80.61l-69.964 40.394v-80.788l69.964 40.394zm0 80.788l-69.964 40.394v-80.788l69.964 40.394zm0 80.788l-69.964 40.394v-80.788l69.964 40.394zm69.702-525.123l-69.965 40.394v-80.787l69.965 40.393zm0 80.789l-69.965 40.394V406.05l69.965 40.395z"/><path class="cls-2" d="M280.698 527.232l-69.965 40.394v-80.787l69.965 40.393zm0 80.789l-69.965 40.394v-80.789l69.965 40.395zm0 80.788l-69.965 40.394v-80.788l69.965 40.394zm0 80.788l-69.965 40.394v-80.788l69.965 40.394zm0 80.788l-69.965 40.394v-80.788l69.965 40.394z"/><path class="cls-2" d="M210.733 809.991l69.965-40.394v80.788l-69.965-40.394zm0-80.788l69.965-40.394v80.788l-69.965-40.394zm0-80.788l69.965-40.394v80.788l-69.965-40.394zm0-80.789l69.965-40.394v80.789l-69.965-40.395zm0-80.787l69.965-40.394v80.787l-69.965-40.393zm0-80.789l69.965-40.394v80.789l-69.965-40.395zm0-80.787l69.965-40.394v80.787l-69.965-40.393zm0 565.517l69.965-40.395v80.788l-69.965-40.393zm69.974-40.395l69.964-40.394v80.788l-69.964-40.394zm0-80.788l69.964-40.394v80.788l-69.964-40.394zm0-80.788l69.964-40.394v80.788l-69.964-40.394zm0-80.788l69.964-40.395v80.789l-69.964-40.394zm0-80.788l69.964-40.395v80.788l-69.964-40.393z"/><path class="cls-2" d="M280.707 446.445l69.964-40.395v80.788l-69.964-40.393zm0-80.788l69.964-40.395v80.788l-69.964-40.393z"/><path class="cls-2" d="M350.671 325.262l-69.964 40.395v-80.788l69.964 40.393zm0 80.788l-69.964 40.395v-80.788l69.964 40.393zm0 80.788l-69.964 40.395v-80.788l69.964 40.393z"/><path class="cls-2" d="M350.671 567.626l-69.964 40.395v-80.788l69.964 40.393zm.103 80.967l-70.17 40.038.411-80.787 69.759 40.749zm-.103 80.61l-69.964 40.394v-80.788l69.964 40.394zm0 80.788l-69.964 40.394v-80.788l69.964 40.394zm0 80.788l-69.964 40.394v-80.788l69.964 40.394zm69.966-525.123l-69.965 40.394v-80.787l69.965 40.393zm0 80.789l-69.965 40.394V406.05l69.965 40.395z"/><path class="cls-2" d="M420.637 527.232l-69.965 40.394v-80.787l69.965 40.393zm0 80.789l-69.965 40.394v-80.789l69.965 40.395zm0 80.788l-69.965 40.394v-80.788l69.965 40.394zm0 80.788l-69.965 40.394v-80.788l69.965 40.394zm0 80.788l-69.965 40.394v-80.788l69.965 40.394z"/><path class="cls-2" d="M350.672 809.991l69.965-40.394v80.788l-69.965-40.394zm0-80.788l69.965-40.394v80.788l-69.965-40.394zm0-80.788l69.965-40.394v80.788l-69.965-40.394zm0-80.789l69.965-40.394v80.789l-69.965-40.395zm0-80.787l69.965-40.394v80.787l-69.965-40.393zm0-80.789l69.965-40.394v80.789l-69.965-40.395zm0-80.787l69.965-40.394v80.787l-69.965-40.393zm0 565.517l69.965-40.395v80.788l-69.965-40.393zm69.966-40.395l69.965-40.394v80.788l-69.965-40.394zm0-80.788l69.965-40.394v80.788l-69.965-40.394zm0-80.788l69.965-40.394v80.788l-69.965-40.394zm0-80.788l69.965-40.395v80.789l-69.965-40.394zm0-80.788l69.965-40.395v80.788l-69.965-40.393zm0-80.788l69.965-40.395v80.788l-69.965-40.393zm0-80.788l69.965-40.395v80.788l-69.965-40.393z"/><path class="cls-2" d="M490.603 325.262l-69.965 40.395v-80.788l69.965 40.393zm0 80.788l-69.965 40.395v-80.788l69.965 40.393zm0 80.788l-69.965 40.395v-80.788l69.965 40.393z"/><path class="cls-2" d="M490.603 567.626l-69.965 40.395v-80.788l69.965 40.393zm.103 80.967l-70.17 40.038.41-80.787 69.76 40.749zm-.103 80.61l-69.965 40.394v-80.788l69.965 40.394zm0 80.788l-69.965 40.394v-80.788l69.965 40.394zm0 80.788l-69.965 40.394v-80.788l69.965 40.394zm69.965-525.123l-69.965 40.394v-80.787l69.965 40.393zm0 80.789l-69.965 40.394V406.05l69.965 40.395z"/><path class="cls-2" d="M560.568 527.232l-69.965 40.394v-80.787l69.965 40.393zm0 80.789l-69.965 40.394v-80.789l69.965 40.395zm0 80.788l-69.965 40.394v-80.788l69.965 40.394zm0 80.788l-69.965 40.394v-80.788l69.965 40.394zm0 80.788l-69.965 40.394v-80.788l69.965 40.394z"/><path class="cls-2" d="M490.603 809.991l69.965-40.394v80.788l-69.965-40.394zm0-80.788l69.965-40.394v80.788l-69.965-40.394zm0-80.788l69.965-40.394v80.788l-69.965-40.394zm0-80.789l69.965-40.394v80.789l-69.965-40.395zm0-80.787l69.965-40.394v80.787l-69.965-40.393zm0-80.789l69.965-40.394v80.789l-69.965-40.395zm0-80.787l69.965-40.394v80.787l-69.965-40.393zm0 565.517l69.965-40.395v80.788l-69.965-40.393zm69.977-40.395l69.965-40.394v80.788l-69.965-40.394zm0-80.788l69.965-40.394v80.788l-69.965-40.394zm0-80.788l69.965-40.394v80.788l-69.965-40.394zm0-80.788l69.965-40.395v80.789l-69.965-40.394zm0-80.788l69.965-40.395v80.788l-69.965-40.393z"/><path class="cls-2" d="M560.58 446.445l69.965-40.395v80.788l-69.965-40.393zm0-80.788l69.965-40.395v80.788l-69.965-40.393zm69.965-40.395l-69.965 40.395v-80.788l69.965 40.393zm0 80.788l-69.965 40.395v-80.788l69.965 40.393zm0 80.788l-69.965 40.395v-80.788l69.965 40.393zM1 283.625l69.965-40.395v80.788L1 283.625zm0-80.788l69.965-40.395v80.788L1 202.837z"/><path class="cls-2" d="M1 122.049l69.965-40.395v80.788L1 122.049zm0-80.788L70.965.866v80.788L1 41.261z"/><path class="cls-2" d="M70.965 81.654L1 122.049V41.261l69.965 40.393z"/><path class="cls-2" d="M70.965 162.442L1 202.837v-80.788l69.965 40.393zm0 80.788L1 283.625v-80.788l69.965 40.393zm69.881-201.969L70.881 81.655V.866l69.965 40.395z"/><path class="cls-2" d="M140.846 122.048l-69.965 40.394V81.655l69.965 40.393zm0 80.789l-69.965 40.394v-80.789l69.965 40.395zm0 80.787l-69.965 40.394v-80.787l69.965 40.393z"/><path class="cls-2" d="M70.881 243.231l69.965-40.394v80.787l-69.965-40.393zm0-80.789l69.965-40.394v80.789l-69.965-40.395zm0-80.787l69.965-40.394v80.787L70.881 81.655zm69.984 201.97l69.965-40.395v80.788l-69.965-40.393zm0-80.788l69.965-40.395v80.788l-69.965-40.393z"/><path class="cls-2" d="M140.865 122.049l69.965-40.395v80.788l-69.965-40.393zm0-80.788L210.83.866v80.788l-69.965-40.393z"/><path class="cls-2" d="M210.83 81.654l-69.965 40.395V41.261l69.965 40.393zm0 80.788l-69.965 40.395v-80.788l69.965 40.393z"/><path class="cls-2" d="M210.83 243.23l-69.965 40.395v-80.788l69.965 40.393zm69.702-201.969l-69.965 40.394V.866l69.965 40.395zm0 80.787l-69.965 40.394V81.655l69.965 40.393z"/><path class="cls-2" d="M280.532 202.837l-69.965 40.394v-80.789l69.965 40.395zm0 80.787l-69.965 40.394v-80.787l69.965 40.393zm-69.965-40.393l69.965-40.394v80.787l-69.965-40.393zm0-80.789l69.965-40.394v80.789l-69.965-40.395zm0-80.787l69.965-40.394v80.787l-69.965-40.393zm69.974 201.97l69.963-40.395v80.788l-69.963-40.393zm0-80.788l69.963-40.395v80.788l-69.963-40.393z"/><path class="cls-2" d="M280.541 122.049l69.963-40.395v80.788l-69.963-40.393zm0-80.788L350.504.866v80.788l-69.963-40.393z"/><path class="cls-2" d="M350.504 81.654l-69.963 40.395V41.261l69.963 40.393zm0 80.788l-69.963 40.395v-80.788l69.963 40.393z"/><path class="cls-2" d="M350.504 243.23l-69.963 40.395v-80.788l69.963 40.393zM420.47 41.261l-69.965 40.394V.866l69.965 40.395zm0 80.787l-69.965 40.394V81.655l69.965 40.393zm0 80.789l-69.965 40.394v-80.789l69.965 40.395zm0 80.787l-69.965 40.394v-80.787l69.965 40.393z"/><path class="cls-2" d="M350.505 243.231l69.965-40.394v80.787l-69.965-40.393zm0-80.789l69.965-40.394v80.789l-69.965-40.395zm0-80.787l69.965-40.394v80.787l-69.965-40.393zm69.967 201.97l69.965-40.395v80.788l-69.965-40.393zm0-80.788l69.965-40.395v80.788l-69.965-40.393z"/><path class="cls-2" d="M420.472 122.049l69.965-40.395v80.788l-69.965-40.393zm0-80.788L490.437.866v80.788l-69.965-40.393z"/><path class="cls-2" d="M490.437 81.654l-69.965 40.395V41.261l69.965 40.393zm0 80.788l-69.965 40.395v-80.788l69.965 40.393z"/><path class="cls-2" d="M490.437 243.23l-69.965 40.395v-80.788l69.965 40.393zm69.965-201.969l-69.965 40.394V.866l69.965 40.395zm0 80.787l-69.965 40.394V81.655l69.965 40.393zm0 80.789l-69.965 40.394v-80.789l69.965 40.395zm0 80.787l-69.965 40.394v-80.787l69.965 40.393z"/><path class="cls-2" d="M490.437 243.231l69.965-40.394v80.787l-69.965-40.393zm0-80.789l69.965-40.394v80.789l-69.965-40.395zm0-80.787l69.965-40.394v80.787l-69.965-40.393zm69.977 201.97l69.964-40.395v80.788l-69.964-40.393zm0-80.788l69.964-40.395v80.788l-69.964-40.393z"/><path class="cls-2" d="M560.414 122.049l69.964-40.395v80.788l-69.964-40.393zm0-80.788L630.378.866v80.788l-69.964-40.393z"/><path class="cls-2" d="M630.378 81.654l-69.964 40.395V41.261l69.964 40.393zm0 80.788l-69.964 40.395v-80.788l69.964 40.393z"/><path class="cls-2" d="M630.378 243.23l-69.964 40.395v-80.788l69.964 40.393zm.167 324.396l-69.965 40.395v-80.788l69.965 40.393zm.102 80.967l-70.17 40.038.41-80.787 69.76 40.749zm-.102 80.61l-69.965 40.394v-80.788l69.965 40.394zm0 80.788l-69.965 40.394v-80.788l69.965 40.394zm0 80.788l-69.965 40.394v-80.788l69.965 40.394z"/></g></svg>