<svg id="Layer_1" data-name="Layer 1" xmlns="http://www.w3.org/2000/svg" viewBox="0 0 24 23"><defs><style>.cls-1,.cls-2{fill:none;stroke:#646464;stroke-linejoin:round}.cls-2{stroke-linecap:round}</style></defs><title>Add user</title><g id="Artboard_2" data-name="Artboard 2"><g id="Group_2090" data-name="Group 2090"><g id="Outline_Icons" data-name="Outline Icons"><g id="Outline_Icons-2" data-name="Outline Icons"><g id="Group_2089" data-name="Group 2089"><g id="Group_2087" data-name="Group 2087"><circle id="Ellipse_481" data-name="Ellipse 481" class="cls-1" cx="18.5" cy="17.5" r="5"/><path id="Line_422" data-name="Line 422" class="cls-2" d="M18.5 15v5"/><path id="Line_423" data-name="Line 423" class="cls-2" d="M21 17.5h-5"/></g><g id="Group_2088" data-name="Group 2088"><path id="Path_18547" data-name="Path 18547" class="cls-2" d="M13 12.44l-3-1.07V9.32"/><path id="Path_18548" data-name="Path 18548" class="cls-2" d="M6 9.32v2.04l-3.94 1.41A2.365 2.365 0 0 0 .5 15v1.49H11"/><path id="Path_18549" data-name="Path 18549" class="cls-2" d="M11.95 5.24c0 2.62-1.77 4.74-3.95 4.74S4.05 7.86 4.05 5.24 5.82.5 8 .5s3.95 2.12 3.95 4.74z"/><path id="Path_18550" data-name="Path 18550" class="cls-2" d="M11.92 4.81c-.13.02-.24.01-.37.03a2.535 2.535 0 0 1-2.96-1.52 3.643 3.643 0 0 1-2.97 1.52 3.094 3.094 0 0 1-1.53-.37"/><path id="Path_18551" data-name="Path 18551" class="cls-2" d="M14.5.5c2.18 0 3.95 2.12 3.95 4.74s-1.77 4.74-3.95 4.74"/><path id="Path_18552" data-name="Path 18552" class="cls-2" d="M18.42 4.81c-.13.02-.24.01-.37.03a2.525 2.525 0 0 1-2.95-1.53"/><path id="Line_424" data-name="Line 424" class="cls-2" d="M16.5 11V9.32"/></g></g></g></g></g></g></svg>