<?xml version="1.0" encoding="utf-8"?>
<!-- Generator: Adobe Illustrator 22.1.0, SVG Export Plug-In . SVG Version: 6.00 Build 0)  -->
<svg version="1.1" id="Layer_1" xmlns="http://www.w3.org/2000/svg" xmlns:xlink="http://www.w3.org/1999/xlink" x="0px" y="0px"
	 viewBox="0 0 32.3 23.4" style="enable-background:new 0 0 32.3 23.4;" xml:space="preserve">
<style type="text/css">
	.st0{fill:none;stroke:#4285F4;stroke-width:3;stroke-linecap:round;}
	.st1{fill:#4285F4;}
	.st2{fill:none;stroke:#4285F4;stroke-width:3;stroke-linecap:round;stroke-linejoin:round;stroke-miterlimit:1;}
</style>
<g>
	<g id="Artboard_2">
		<g id="Group_1884" transform="translate(7.068 10.283)">
			<path id="Path_434" class="st0" d="M4.6-8.8c2.5,0,4.5,2,4.5,4.5s-2,4.5-4.5,4.5s-4.5-2-4.5-4.5c0,0,0,0,0,0
				C0.1-6.8,2.1-8.8,4.6-8.8z"/>
			<path id="Path_435" class="st1" d="M16.5-5.8c2.1,0,3.9,1.7,3.9,3.9s-1.7,3.9-3.9,3.9s-3.9-1.7-3.9-3.9c0,0,0,0,0,0
				C12.6-4.1,14.3-5.8,16.5-5.8z"/>
			<path id="Path_4" class="st1" d="M16.5,4.9c8.7,0,8.7,2.9,8.7,6.8h-7.9L16.5,4.9z"/>
			<path id="Path_5" class="st2" d="M12.5,5.1c-1.5-0.9-3.9-1.4-7.9-1.4c-10.1,0-10.2,3.2-10.2,7.9h20.4C14.9,8.9,14.8,6.5,12.5,5.1
				z"/>
		</g>
	</g>
</g>
</svg>
