<svg id="Layer_1" data-name="Layer 1" xmlns="http://www.w3.org/2000/svg" viewBox="0 0 27.643 29.77">
  <defs>
    <style>
      .cls-1 {
        fill: #4285f4;
      }
    </style>
  </defs>
  <title>calendar</title>
  <g id="Artboard_1" data-name="Artboard 1">
    <g id="Group_1880" data-name="Group 1880">
      <path id="Path_111" data-name="Path 111" class="cls-1" d="M27.643,2.6h-4.3V0H20.325V2.6H7.319V0H4.3V2.6H0V29.77H27.643ZM3.017,26.531V9.495H24.652V26.531Z"/>
      <rect id="Rectangle_1452" data-name="Rectangle 1452" class="cls-1" x="4.055" y="11.226" width="3.338" height="3.338"/>
      <rect id="Rectangle_1453" data-name="Rectangle 1453" class="cls-1" x="9.247" y="11.226" width="3.338" height="3.338"/>
      <rect id="Rectangle_1454" data-name="Rectangle 1454" class="cls-1" x="14.687" y="11.226" width="3.338" height="3.338"/>
      <rect id="Rectangle_1455" data-name="Rectangle 1455" class="cls-1" x="19.88" y="11.226" width="3.338" height="3.338"/>
      <rect id="Rectangle_1456" data-name="Rectangle 1456" class="cls-1" x="4.006" y="15.874" width="3.338" height="3.338"/>
      <rect id="Rectangle_1457" data-name="Rectangle 1457" class="cls-1" x="9.173" y="15.874" width="3.338" height="3.338"/>
      <rect id="Rectangle_1458" data-name="Rectangle 1458" class="cls-1" x="14.638" y="15.874" width="3.338" height="3.338"/>
      <rect id="Rectangle_1459" data-name="Rectangle 1459" class="cls-1" x="19.805" y="15.874" width="3.338" height="3.338"/>
      <rect id="Rectangle_1460" data-name="Rectangle 1460" class="cls-1" x="4.006" y="20.498" width="3.338" height="3.338"/>
      <rect id="Rectangle_1461" data-name="Rectangle 1461" class="cls-1" x="9.173" y="20.498" width="3.338" height="3.338"/>
      <rect id="Rectangle_1462" data-name="Rectangle 1462" class="cls-1" x="14.638" y="20.498" width="3.338" height="3.338"/>
    </g>
  </g>
</svg>
