<svg width="45" height="45" viewBox="0 0 45 45" fill="none" xmlns="http://www.w3.org/2000/svg">
<path d="M22.5 2.8125C11.6279 2.8125 2.8125 11.6279 2.8125 22.5C2.8125 33.3721 11.6279 42.1875 22.5 42.1875C33.3721 42.1875 42.1875 33.3721 42.1875 22.5C42.1875 11.6279 33.3721 2.8125 22.5 2.8125ZM30.2563 28.5513L28.9995 30.2651C28.9722 30.3025 28.9377 30.334 28.8982 30.358C28.8586 30.3819 28.8147 30.3979 28.7689 30.4048C28.7232 30.4117 28.6765 30.4096 28.6317 30.3984C28.5868 30.3873 28.5445 30.3674 28.5073 30.3398L21.2388 25.04C21.1935 25.0075 21.1567 24.9646 21.1314 24.9149C21.1062 24.8652 21.0933 24.8101 21.0938 24.7544V12.6562C21.0938 12.4629 21.252 12.3047 21.4453 12.3047H23.5591C23.7524 12.3047 23.9106 12.4629 23.9106 12.6562V23.5327L30.1772 28.0635C30.3354 28.1733 30.3706 28.3931 30.2563 28.5513Z" fill="#B3B3B3"/>
</svg>
