<svg width="48" height="48" viewBox="0 0 48 48" fill="none" xmlns="http://www.w3.org/2000/svg">
<g filter="url(#filter0_d)">
<rect x="4" y="4" width="40" height="40" fill="white"/>
</g>
<path fill-rule="evenodd" clip-rule="evenodd" d="M22 15H18.5C17.6719 15 17 15.6719 17 16.5V20H18V16.5C18 16.2241 18.2241 16 18.5 16H22V15ZM22 30H18.5C18.2241 30 18 29.7759 18 29.5V26H17V29.5C17 30.3281 17.6719 31 18.5 31H22V30ZM28 31V30H31.5C31.7759 30 32 29.7759 32 29.5V26H33V29.5C33 30.3281 32.3281 31 31.5 31H28ZM28 16V15H31.5C32.3281 15 33 15.6719 33 16.5V20H32V16.5C32 16.2241 31.7759 16 31.5 16H28Z" fill="black"/>
<defs>
<filter id="filter0_d" x="0" y="0" width="48" height="48" filterUnits="userSpaceOnUse" color-interpolation-filters="sRGB">
<feFlood flood-opacity="0" result="BackgroundImageFix"/>
<feColorMatrix in="SourceAlpha" type="matrix" values="0 0 0 0 0 0 0 0 0 0 0 0 0 0 0 0 0 0 127 0"/>
<feMorphology radius="2" operator="dilate" in="SourceAlpha" result="effect1_dropShadow"/>
<feOffset/>
<feGaussianBlur stdDeviation="1"/>
<feColorMatrix type="matrix" values="0 0 0 0 0 0 0 0 0 0 0 0 0 0 0 0 0 0 0.08 0"/>
<feBlend mode="normal" in2="BackgroundImageFix" result="effect1_dropShadow"/>
<feBlend mode="normal" in="SourceGraphic" in2="effect1_dropShadow" result="shape"/>
</filter>
</defs>
</svg>
