<svg width="16" height="16" viewBox="0 0 16 16" fill="none" xmlns="http://www.w3.org/2000/svg">
<path fill-rule="evenodd" clip-rule="evenodd" d="M12 4C12 6.20914 10.2091 8 8 8C5.79086 8 4 6.20914 4 4C4 1.79086 5.79086 0 8 0C10.2091 0 12 1.79086 12 4ZM5 4C5 5.65685 6.34315 7 8 7C9.65686 7 11 5.65685 11 4C11 2.34315 9.65686 1 8 1C6.34315 1 5 2.34315 5 4ZM7.97884 10.0004C10.2298 9.90508 12.4547 10.5117 14.361 11.7466C14.762 12.0277 15.0006 12.4868 15 12.976V15.5C15 15.7761 14.7761 16 14.5 16H1.5C1.22386 16 1 15.7761 1 15.5V12.9766C0.999443 12.4868 1.23799 12.0277 1.65422 11.7363C3.54528 10.5117 5.77022 9.90508 7.97884 10.0004ZM2 15H14V12.976L14 12.9754C14.0002 12.8122 13.9207 12.6591 13.8022 12.5757C12.0852 11.4637 10.065 10.913 7.97884 10.9996C5.93503 10.913 3.91483 11.4637 2.213 12.5654C2.07933 12.6591 1.99981 12.8122 2 12.976V15Z" fill="black"/>
</svg>
