<?xml version="1.0" encoding="utf-8"?>
<!-- Generator: Adobe Illustrator 23.0.1, SVG Export Plug-In . SVG Version: 6.00 Build 0)  -->
<svg version="1.1" id="Layer_1" xmlns="http://www.w3.org/2000/svg" xmlns:xlink="http://www.w3.org/1999/xlink" x="0px" y="0px"
	 viewBox="0 0 5.8 20.4" style="enable-background:new 0 0 5.8 20.4;" xml:space="preserve">
<style type="text/css">
	.st0{fill:#656565;}
</style>
<g>
	<g id="Info">
		<g id="Group_952" transform="translate(98.606 62.003)">
			<path id="Path_492" class="st0" d="M-93.5-43H-95v-12.8c0-0.4-0.3-0.7-0.7-0.7h-2.2c-0.4,0-0.7,0.3-0.7,0.7s0.3,0.7,0.7,0.7h1.6
				V-43h-1.6c-0.4,0-0.7,0.3-0.7,0.7s0.3,0.7,0.7,0.7h4.5c0.4,0,0.7-0.3,0.7-0.7S-93.1-43-93.5-43L-93.5-43z"/>
			<path id="Path_493" class="st0" d="M-95.7-58.4c1,0,1.8-0.8,1.8-1.8c0-1-0.8-1.8-1.8-1.8c-1,0-1.8,0.8-1.8,1.8
				C-97.5-59.2-96.7-58.4-95.7-58.4z"/>
		</g>
	</g>
</g>
</svg>
