<svg width="26" height="24" viewBox="0 0 26 24" fill="none" xmlns="http://www.w3.org/2000/svg">
<path fill-rule="evenodd" clip-rule="evenodd" d="M21.9693 0H3.13847C2.56069 0 2.09231 0.447715 2.09231 1V23C2.09231 23.5523 2.56069 24 3.13847 24H21.9693C22.5471 24 23.0154 23.5523 23.0154 23V1C23.0154 0.447715 22.5471 0 21.9693 0ZM13.6293 18.724H11.469V9H13.6293V18.724ZM13.4504 7.259C13.2095 7.46988 12.8893 7.57816 12.5633 7.559C12.2313 7.58023 11.9044 7.472 11.6573 7.259C11.4386 7.03444 11.3253 6.7343 11.3435 6.428C11.3212 6.11455 11.4347 5.80613 11.6573 5.575C11.9049 5.3627 12.2314 5.25458 12.5633 5.275C12.8892 5.25653 13.2091 5.36472 13.4504 5.575C13.673 5.80613 13.7865 6.11455 13.7643 6.428C13.7825 6.7343 13.6691 7.03444 13.4504 7.259Z" fill="#1B1B19"/>
</svg>
