<?xml version="1.0" encoding="utf-8"?>
<!-- Generator: Adobe Illustrator 22.1.0, SVG Export Plug-In . SVG Version: 6.00 Build 0)  -->
<svg version="1.1" id="Layer_1" xmlns="http://www.w3.org/2000/svg" xmlns:xlink="http://www.w3.org/1999/xlink" x="0px" y="0px"
	 viewBox="0 0 88 88.1" style="enable-background:new 0 0 88 88.1;" xml:space="preserve">
<path d="M46.3,0.1C33.2-0.6,21,4.3,12.1,13.7c-8.4,8.8-12.7,20.4-12,32.6C1.2,68.5,19.5,86.8,41.8,88c0.8,0,1.5,0.1,2.3,0.1
	c12.2,0,23.5-4.9,31.9-13.7S88.7,54,88,41.8C86.8,19.5,68.5,1.2,46.3,0.1z M73.7,72.2C65.4,81,54,85.6,41.9,84.9
	c-20.7-1-37.8-18.1-38.8-38.8C2.5,34.8,6.5,24,14.3,15.8C22.1,7.5,32.7,3,44,3c0.7,0,1.4,0,2.1,0.1c20.7,1,37.8,18.1,38.8,38.8
	C85.5,53.2,81.5,64,73.7,72.2z"/>
<path d="M49,65h-3.5V36.5c0-0.8-0.7-1.5-1.5-1.5h-5c-0.8,0-1.5,0.7-1.5,1.5S38.2,38,39,38h3.5v27H39c-0.8,0-1.5,0.7-1.5,1.5
	S38.2,68,39,68h10c0.8,0,1.5-0.7,1.5-1.5S49.8,65,49,65z"/>
<path d="M44,30.5c2.2,0,4-1.8,4-4s-1.8-4-4-4s-4,1.8-4,4S41.8,30.5,44,30.5z"/>
</svg>
