<svg width="66" height="46" viewBox="0 0 66 46" xmlns="http://www.w3.org/2000/svg"><title>people</title><g id="Page-1" fill="#FFF"><path d="M18.372 44.781c-1.616 0-3.073.091-5.478.307-4.862.436-6.181.472-7.958-.049-2.632-.773-3.964-2.847-3.964-6.258 0-8.457 7.783-15.19 17.4-15.3 9.57 0 17.4 6.808 17.4 15.3 0 3.411-1.332 5.485-3.964 6.258-1.777.521-3.096.485-7.958.049-2.405-.216-3.862-.307-5.478-.307zm0-3c1.728 0 3.258.096 5.746.319 4.362.391 5.601.425 6.845.06 1.263-.37 1.809-1.221 1.809-3.379 0-6.734-6.4-12.3-14.383-12.3-8.05.091-14.417 5.6-14.417 12.3 0 2.158.546 3.009 1.81 3.38 1.243.364 2.482.33 6.844-.061 2.488-.223 4.018-.319 5.746-.319z" id="Path_28"/><path d="M18.372 21.881c-6.04-.116-10.9-4.976-10.9-10.9v-.129c.116-6.029 4.994-10.871 11-10.871 6.015 0 10.9 4.957 10.9 11 0 6.015-4.957 10.9-11 10.9zm8-10.9c0-4.396-3.552-8-7.9-8-4.363 0-7.916 3.526-8 7.9v.1c0 4.272 3.532 7.808 7.914 7.9 4.39-.008 7.986-3.557 7.986-7.9z" id="Path_29"/><path d="M51.665 45.55c-1.276 0-2.43.073-4.346.247-3.926.358-4.991.388-6.466-.045-2.243-.659-3.388-2.443-3.388-5.302 0-6.968 6.401-12.5 14.2-12.5 7.865 0 14.2 5.504 14.2 12.5 0 2.835-1.156 4.607-3.407 5.264-1.48.432-2.564.405-6.496.068-1.897-.164-3.036-.232-4.297-.232zm0-3c1.369 0 2.577.073 4.554.243 3.443.295 4.444.32 5.398.041.888-.26 1.248-.81 1.248-2.384 0-5.238-4.905-9.5-11.2-9.5-6.231 0-11.2 4.294-11.2 9.5 0 1.606.36 2.167 1.233 2.423.94.276 1.924.248 5.35-.063 1.999-.182 3.227-.26 4.617-.26z" id="Path_30"/><path d="M51.665 27.25c-4.975-.12-9-4.109-9-9v-.136c.12-5.025 4.096-8.964 9.136-8.964 5.064.121 9.083 4.14 8.964 9.136-.12 5.025-4.096 8.964-9.1 8.964zm6.1-9.036c.08-3.306-2.597-5.983-6-6.064-3.365 0-6.02 2.63-6.1 6v.1c0 3.234 2.694 5.91 6.018 6 3.357-.01 6.001-2.636 6.082-6.036z" id="Path_31"/></g></svg>