<svg id="Layer_1" data-name="Layer 1" xmlns="http://www.w3.org/2000/svg" viewBox="0 0 67.887 39.943"><title>Spaces filter btn</title><path d="M8.621,17.421a8.711,8.711,0,1,1,8.8-8.62A8.722,8.722,0,0,1,8.621,17.421ZM8.79,1.107a7.6,7.6,0,0,0-.158,15.208h0A7.6,7.6,0,1,0,8.79,1.107Z"/><path d="M34.259,17.134l-.939-.01a7.71,7.71,0,0,1-7.608-7.767l.009-.94A7.712,7.712,0,0,1,33.489.809l.939.01a7.711,7.711,0,0,1,7.608,7.767l-.01.94A7.711,7.711,0,0,1,34.259,17.134Z"/><path d="M33.786,17.405a8.434,8.434,0,1,1,8.521-8.346A8.443,8.443,0,0,1,33.786,17.405Zm.17-16.314a7.881,7.881,0,1,0-.164,15.761h0a7.881,7.881,0,0,0,.164-15.761Z"/><path d="M58.947,17.943a8.711,8.711,0,1,1,8.8-8.62A8.721,8.721,0,0,1,58.947,17.943Zm.169-16.315a7.6,7.6,0,1,0,7.525,7.683A7.614,7.614,0,0,0,59.116,1.628Z"/><path d="M9.317,39.39H8.378A7.711,7.711,0,0,1,.69,31.7v-.939a7.71,7.71,0,0,1,7.688-7.688h.939a7.71,7.71,0,0,1,7.688,7.688V31.7A7.71,7.71,0,0,1,9.317,39.39Z"/><path d="M8.848,39.667a8.435,8.435,0,1,1,8.434-8.435A8.445,8.445,0,0,1,8.848,39.667Zm0-16.316a7.881,7.881,0,0,0,0,15.762h0a7.881,7.881,0,0,0,0-15.762Z"/><path d="M34.012,39.943a8.711,8.711,0,1,1,8.711-8.711A8.721,8.721,0,0,1,34.012,39.943Zm0-16.315a7.6,7.6,0,1,0,0,15.209h0a7.6,7.6,0,1,0,0-15.209Z"/><path d="M59.176,39.943a8.711,8.711,0,1,1,8.711-8.711A8.72,8.72,0,0,1,59.176,39.943Zm0-16.315a7.6,7.6,0,1,0,7.605,7.6A7.612,7.612,0,0,0,59.176,23.628Z"/></svg>