<svg id="Layer_1" data-name="Layer 1" xmlns="http://www.w3.org/2000/svg" viewBox="0 0 67.887 39.943"><title>Spaces filter btn</title><path d="M8.621 17.421a8.711 8.711 0 1 1 8.8-8.62 8.722 8.722 0 0 1-8.8 8.62zM8.79 1.107a7.6 7.6 0 0 0-.158 15.208A7.6 7.6 0 1 0 8.79 1.107zm25.469 16.027l-.939-.01a7.71 7.71 0 0 1-7.608-7.767l.009-.94A7.712 7.712 0 0 1 33.489.809l.939.01a7.711 7.711 0 0 1 7.608 7.767l-.01.94a7.711 7.711 0 0 1-7.767 7.608z"/><path d="M33.786 17.405a8.434 8.434 0 1 1 8.521-8.346 8.443 8.443 0 0 1-8.521 8.346zm.17-16.314a7.881 7.881 0 1 0-.164 15.761 7.881 7.881 0 0 0 .164-15.761zm24.991 16.852a8.711 8.711 0 1 1 8.8-8.62 8.721 8.721 0 0 1-8.8 8.62zm.169-16.315a7.6 7.6 0 1 0 7.525 7.683 7.614 7.614 0 0 0-7.525-7.683zM9.317 39.39h-.939A7.711 7.711 0 0 1 .69 31.7v-.939a7.71 7.71 0 0 1 7.688-7.688h.939a7.71 7.71 0 0 1 7.688 7.688v.939a7.71 7.71 0 0 1-7.688 7.69z"/><path d="M8.848 39.667a8.435 8.435 0 1 1 8.434-8.435 8.445 8.445 0 0 1-8.434 8.435zm0-16.316a7.881 7.881 0 0 0 0 15.762 7.881 7.881 0 0 0 0-15.762zm25.164 16.592a8.711 8.711 0 1 1 8.711-8.711 8.721 8.721 0 0 1-8.711 8.711zm0-16.315a7.6 7.6 0 1 0 0 15.209 7.6 7.6 0 1 0 0-15.209zm25.164 16.315a8.711 8.711 0 1 1 8.711-8.711 8.72 8.72 0 0 1-8.711 8.711zm0-16.315a7.6 7.6 0 1 0 7.605 7.6 7.612 7.612 0 0 0-7.605-7.6z"/></svg>