<svg width="110" height="110" viewBox="0 0 110 110" fill="none" xmlns="http://www.w3.org/2000/svg">
<circle cx="55" cy="55" r="55" fill="#1F40E6"/>
<path d="M84 55.4681C84 54.1409 83.4722 52.9042 82.5624 51.9921C83.5937 50.8637 84.1193 49.3509 83.9757 47.7764C83.7173 44.9696 81.1887 42.7701 78.2164 42.7701H64.5755C65.2512 40.7185 66.3333 36.9578 66.3333 33.9368C66.3333 29.1469 62.2634 25.1035 59.7083 25.1035C57.416 25.1035 55.7752 26.3954 55.7068 26.4484C55.444 26.6582 55.2916 26.9762 55.2916 27.3118V34.8002L48.9294 48.5781L48.6666 48.7127V48.2909C48.6666 47.6814 48.1719 47.1867 47.5624 47.1867H36.5208C33.4756 47.1868 31 49.6624 31 52.7076V70.3743C31 73.4196 33.4756 75.8951 36.5208 75.8951H43.1458C45.533 75.8951 47.5735 74.3714 48.342 72.2447C50.1794 73.1899 52.6527 73.6868 54.1875 73.6868H74.4578C76.8627 73.6868 78.9673 72.0659 79.4619 69.8311C79.7158 68.6783 79.5679 67.5189 79.0644 66.5119C80.6941 65.6926 81.7917 64.0077 81.7917 62.0931C81.7917 61.3113 81.6128 60.5627 81.2749 59.8869C82.9047 59.0654 84 57.3827 84 55.4681ZM79.3426 58.1931C78.9165 58.2439 78.5564 58.5332 78.4196 58.9417C78.2849 59.3503 78.3975 59.7985 78.7111 60.0945C79.272 60.6223 79.5834 61.3334 79.5834 62.0931C79.5834 63.4865 78.53 64.6569 77.1366 64.8181C76.7104 64.8689 76.3504 65.1582 76.2136 65.5667C76.0789 65.9753 76.1915 66.4235 76.5051 66.7195C77.2316 67.404 77.5231 68.3647 77.3045 69.3541C77.0329 70.5863 75.8359 71.4785 74.4579 71.4785H54.1875C52.3943 71.4785 49.3865 70.6371 48.3442 69.5926C48.0284 69.279 47.5514 69.1863 47.1407 69.3541C46.7278 69.5241 46.4583 69.9283 46.4583 70.3743C46.4583 72.2006 44.9721 73.6868 43.1458 73.6868H36.5208C34.6945 73.6868 33.2083 72.2006 33.2083 70.3743V52.7076C33.2083 50.8813 34.6945 49.3951 36.5208 49.3951H46.4583V50.4993C46.4583 50.8814 46.657 51.2369 46.9838 51.4401C47.3063 51.6344 47.7126 51.6542 48.0571 51.4864L50.2654 50.3822C50.4885 50.2718 50.6673 50.0863 50.7733 49.8589L57.3983 35.5047C57.4646 35.3589 57.4999 35.1999 57.4999 35.0409V27.9102C57.9593 27.6563 58.7566 27.3118 59.7083 27.3118C60.9185 27.3118 64.125 30.3196 64.125 33.9368C64.125 37.8235 62.0095 43.426 61.9896 43.4813C61.8615 43.8191 61.9056 44.2012 62.111 44.5015C62.3186 44.7996 62.6587 44.9785 63.0208 44.9785H78.2164C80.0581 44.9785 81.6216 46.2969 81.7762 47.9796C81.8932 49.2384 81.2881 50.4353 80.2039 51.1045C79.866 51.312 79.6651 51.6875 79.6805 52.0871C79.6959 52.4868 79.9256 52.8446 80.2789 53.0279C81.2131 53.5027 81.7916 54.439 81.7916 55.4681C81.7917 56.8615 80.7383 58.0319 79.3426 58.1931Z" fill="white"/>
<path d="M47.5625 49.3965C46.953 49.3965 46.4583 49.8912 46.4583 50.5007V70.3757C46.4583 70.9852 46.953 71.4799 47.5625 71.4799C48.172 71.4799 48.6667 70.9852 48.6667 70.3757V50.5007C48.6667 49.8912 48.172 49.3965 47.5625 49.3965Z" fill="white"/>
</svg>
