<svg id="Capa_1" data-name="Capa 1" xmlns="http://www.w3.org/2000/svg" viewBox="0 0 1261.294 932.039">
  <defs>
    <style>
      .cls-1 {
        opacity: 0.22;
      }

      .cls-2 {
        fill: none;
        stroke: #fff;
        stroke-miterlimit: 10;
      }
    </style>
  </defs>
  <title>Triangle pattern</title>
  <g class="cls-1">
    <polygon class="cls-2" points="630.814 850.385 700.778 809.991 700.778 890.779 630.814 850.385"/>
    <polygon class="cls-2" points="630.814 769.597 700.778 729.203 700.778 809.991 630.814 769.597"/>
    <polygon class="cls-2" points="630.814 688.809 700.778 648.415 700.778 729.203 630.814 688.809"/>
    <polygon class="cls-2" points="630.814 608.021 700.778 567.626 700.778 648.415 630.814 608.021"/>
    <polygon class="cls-2" points="630.814 527.233 700.778 486.838 700.778 567.626 630.814 527.233"/>
    <polygon class="cls-2" points="630.814 446.445 700.778 406.05 700.778 486.838 630.814 446.445"/>
    <polygon class="cls-2" points="630.814 365.657 700.778 325.262 700.778 406.05 630.814 365.657"/>
    <polygon class="cls-2" points="700.778 325.262 630.814 365.657 630.814 284.869 700.778 325.262"/>
    <polygon class="cls-2" points="700.778 406.05 630.814 446.445 630.814 365.657 700.778 406.05"/>
    <polygon class="cls-2" points="700.778 486.838 630.814 527.233 630.814 446.445 700.778 486.838"/>
    <polygon class="cls-2" points="700.778 567.626 630.814 608.021 630.814 527.233 700.778 567.626"/>
    <polygon class="cls-2" points="700.88 648.593 630.711 688.631 631.122 607.844 700.88 648.593"/>
    <polygon class="cls-2" points="700.778 729.203 630.814 769.597 630.814 688.809 700.778 729.203"/>
    <polygon class="cls-2" points="700.778 809.991 630.814 850.385 630.814 769.597 700.778 809.991"/>
    <polygon class="cls-2" points="700.778 890.779 630.814 931.173 630.814 850.385 700.778 890.779"/>
    <polygon class="cls-2" points="770.66 365.656 700.695 406.05 700.695 325.263 770.66 365.656"/>
    <polygon class="cls-2" points="770.66 446.445 700.695 486.839 700.695 406.05 770.66 446.445"/>
    <polygon class="cls-2" points="770.66 527.232 700.695 567.626 700.695 486.839 770.66 527.232"/>
    <polygon class="cls-2" points="770.66 608.021 700.695 648.415 700.695 567.626 770.66 608.021"/>
    <polygon class="cls-2" points="770.66 688.809 700.695 729.203 700.695 648.415 770.66 688.809"/>
    <polygon class="cls-2" points="770.66 769.597 700.695 809.991 700.695 729.203 770.66 769.597"/>
    <polygon class="cls-2" points="770.66 850.385 700.695 890.779 700.695 809.991 770.66 850.385"/>
    <polygon class="cls-2" points="700.695 809.991 770.66 769.597 770.66 850.385 700.695 809.991"/>
    <polygon class="cls-2" points="700.695 729.203 770.66 688.809 770.66 769.597 700.695 729.203"/>
    <polygon class="cls-2" points="700.695 648.415 770.66 608.021 770.66 688.809 700.695 648.415"/>
    <polygon class="cls-2" points="700.695 567.626 770.66 527.232 770.66 608.021 700.695 567.626"/>
    <polygon class="cls-2" points="700.695 486.839 770.66 446.445 770.66 527.232 700.695 486.839"/>
    <polygon class="cls-2" points="700.695 406.05 770.66 365.656 770.66 446.445 700.695 406.05"/>
    <polygon class="cls-2" points="700.695 325.263 770.66 284.869 770.66 365.656 700.695 325.263"/>
    <polygon class="cls-2" points="700.695 890.78 770.66 850.385 770.66 931.173 700.695 890.78"/>
    <polygon class="cls-2" points="770.679 850.385 840.644 809.991 840.644 890.779 770.679 850.385"/>
    <polygon class="cls-2" points="770.679 769.597 840.644 729.203 840.644 809.991 770.679 769.597"/>
    <polygon class="cls-2" points="770.679 688.809 840.644 648.415 840.644 729.203 770.679 688.809"/>
    <polygon class="cls-2" points="770.679 608.021 840.644 567.626 840.644 648.415 770.679 608.021"/>
    <polygon class="cls-2" points="770.679 527.233 840.644 486.838 840.644 567.626 770.679 527.233"/>
    <polygon class="cls-2" points="770.679 446.445 840.644 406.05 840.644 486.838 770.679 446.445"/>
    <polygon class="cls-2" points="770.679 365.657 840.644 325.262 840.644 406.05 770.679 365.657"/>
    <polygon class="cls-2" points="840.644 325.262 770.679 365.657 770.679 284.869 840.644 325.262"/>
    <polygon class="cls-2" points="840.644 406.05 770.679 446.445 770.679 365.657 840.644 406.05"/>
    <polygon class="cls-2" points="840.644 486.838 770.679 527.233 770.679 446.445 840.644 486.838"/>
    <polygon class="cls-2" points="840.644 567.626 770.679 608.021 770.679 527.233 840.644 567.626"/>
    <polygon class="cls-2" points="840.746 648.593 770.576 688.631 770.987 607.844 840.746 648.593"/>
    <polygon class="cls-2" points="840.644 729.203 770.679 769.597 770.679 688.809 840.644 729.203"/>
    <polygon class="cls-2" points="840.644 809.991 770.679 850.385 770.679 769.597 840.644 809.991"/>
    <polygon class="cls-2" points="840.644 890.779 770.679 931.173 770.679 850.385 840.644 890.779"/>
    <polygon class="cls-2" points="910.345 365.656 840.38 406.05 840.38 325.263 910.345 365.656"/>
    <polygon class="cls-2" points="910.345 446.445 840.38 486.839 840.38 406.05 910.345 446.445"/>
    <polygon class="cls-2" points="910.345 527.232 840.38 567.626 840.38 486.839 910.345 527.232"/>
    <polygon class="cls-2" points="910.345 608.021 840.38 648.415 840.38 567.626 910.345 608.021"/>
    <polygon class="cls-2" points="910.345 688.809 840.38 729.203 840.38 648.415 910.345 688.809"/>
    <polygon class="cls-2" points="910.345 769.597 840.38 809.991 840.38 729.203 910.345 769.597"/>
    <polygon class="cls-2" points="910.345 850.385 840.38 890.779 840.38 809.991 910.345 850.385"/>
    <polygon class="cls-2" points="840.38 809.991 910.345 769.597 910.345 850.385 840.38 809.991"/>
    <polygon class="cls-2" points="840.38 729.203 910.345 688.809 910.345 769.597 840.38 729.203"/>
    <polygon class="cls-2" points="840.38 648.415 910.345 608.021 910.345 688.809 840.38 648.415"/>
    <polygon class="cls-2" points="840.38 567.626 910.345 527.232 910.345 608.021 840.38 567.626"/>
    <polygon class="cls-2" points="840.38 486.839 910.345 446.445 910.345 527.232 840.38 486.839"/>
    <polygon class="cls-2" points="840.38 406.05 910.345 365.656 910.345 446.445 840.38 406.05"/>
    <polygon class="cls-2" points="840.38 325.263 910.345 284.869 910.345 365.656 840.38 325.263"/>
    <polygon class="cls-2" points="840.38 890.78 910.345 850.385 910.345 931.173 840.38 890.78"/>
    <polygon class="cls-2" points="910.354 850.385 980.318 809.991 980.318 890.779 910.354 850.385"/>
    <polygon class="cls-2" points="910.354 769.597 980.318 729.203 980.318 809.991 910.354 769.597"/>
    <polygon class="cls-2" points="910.354 688.809 980.318 648.415 980.318 729.203 910.354 688.809"/>
    <polygon class="cls-2" points="910.354 608.021 980.318 567.626 980.318 648.415 910.354 608.021"/>
    <polygon class="cls-2" points="910.354 527.233 980.318 486.838 980.318 567.626 910.354 527.233"/>
    <polygon class="cls-2" points="910.354 446.445 980.318 406.05 980.318 486.838 910.354 446.445"/>
    <polygon class="cls-2" points="910.354 365.657 980.318 325.262 980.318 406.05 910.354 365.657"/>
    <polygon class="cls-2" points="980.318 325.262 910.354 365.657 910.354 284.869 980.318 325.262"/>
    <polygon class="cls-2" points="980.318 406.05 910.354 446.445 910.354 365.657 980.318 406.05"/>
    <polygon class="cls-2" points="980.318 486.838 910.354 527.233 910.354 446.445 980.318 486.838"/>
    <polygon class="cls-2" points="980.318 567.626 910.354 608.021 910.354 527.233 980.318 567.626"/>
    <polygon class="cls-2" points="980.421 648.593 910.251 688.631 910.662 607.844 980.421 648.593"/>
    <polygon class="cls-2" points="980.318 729.203 910.354 769.597 910.354 688.809 980.318 729.203"/>
    <polygon class="cls-2" points="980.318 809.991 910.354 850.385 910.354 769.597 980.318 809.991"/>
    <polygon class="cls-2" points="980.318 890.779 910.354 931.173 910.354 850.385 980.318 890.779"/>
    <polygon class="cls-2" points="1050.284 365.656 980.319 406.05 980.319 325.263 1050.284 365.656"/>
    <polygon class="cls-2" points="1050.284 446.445 980.319 486.839 980.319 406.05 1050.284 446.445"/>
    <polygon class="cls-2" points="1050.284 527.232 980.319 567.626 980.319 486.839 1050.284 527.232"/>
    <polygon class="cls-2" points="1050.284 608.021 980.319 648.415 980.319 567.626 1050.284 608.021"/>
    <polygon class="cls-2" points="1050.284 688.809 980.319 729.203 980.319 648.415 1050.284 688.809"/>
    <polygon class="cls-2" points="1050.284 769.597 980.319 809.991 980.319 729.203 1050.284 769.597"/>
    <polygon class="cls-2" points="1050.284 850.385 980.319 890.779 980.319 809.991 1050.284 850.385"/>
    <polygon class="cls-2" points="980.319 809.991 1050.284 769.597 1050.284 850.385 980.319 809.991"/>
    <polygon class="cls-2" points="980.319 729.203 1050.284 688.809 1050.284 769.597 980.319 729.203"/>
    <polygon class="cls-2" points="980.319 648.415 1050.284 608.021 1050.284 688.809 980.319 648.415"/>
    <polygon class="cls-2" points="980.319 567.626 1050.284 527.232 1050.284 608.021 980.319 567.626"/>
    <polygon class="cls-2" points="980.319 486.839 1050.284 446.445 1050.284 527.232 980.319 486.839"/>
    <polygon class="cls-2" points="980.319 406.05 1050.284 365.656 1050.284 446.445 980.319 406.05"/>
    <polygon class="cls-2" points="980.319 325.263 1050.284 284.869 1050.284 365.656 980.319 325.263"/>
    <polygon class="cls-2" points="980.319 890.78 1050.284 850.385 1050.284 931.173 980.319 890.78"/>
    <polygon class="cls-2" points="1050.286 850.385 1120.251 809.991 1120.251 890.779 1050.286 850.385"/>
    <polygon class="cls-2" points="1050.286 769.597 1120.251 729.203 1120.251 809.991 1050.286 769.597"/>
    <polygon class="cls-2" points="1050.286 688.809 1120.251 648.415 1120.251 729.203 1050.286 688.809"/>
    <polygon class="cls-2" points="1050.286 608.021 1120.251 567.626 1120.251 648.415 1050.286 608.021"/>
    <polygon class="cls-2" points="1050.286 527.233 1120.251 486.838 1120.251 567.626 1050.286 527.233"/>
    <polygon class="cls-2" points="1050.286 446.445 1120.251 406.05 1120.251 486.838 1050.286 446.445"/>
    <polygon class="cls-2" points="1050.286 365.657 1120.251 325.262 1120.251 406.05 1050.286 365.657"/>
    <polygon class="cls-2" points="1120.251 325.262 1050.286 365.657 1050.286 284.869 1120.251 325.262"/>
    <polygon class="cls-2" points="1120.251 406.05 1050.286 446.445 1050.286 365.657 1120.251 406.05"/>
    <polygon class="cls-2" points="1120.251 486.838 1050.286 527.233 1050.286 446.445 1120.251 486.838"/>
    <polygon class="cls-2" points="1120.251 567.626 1050.286 608.021 1050.286 527.233 1120.251 567.626"/>
    <polygon class="cls-2" points="1120.353 648.593 1050.183 688.631 1050.593 607.844 1120.353 648.593"/>
    <polygon class="cls-2" points="1120.251 729.203 1050.286 769.597 1050.286 688.809 1120.251 729.203"/>
    <polygon class="cls-2" points="1120.251 809.991 1050.286 850.385 1050.286 769.597 1120.251 809.991"/>
    <polygon class="cls-2" points="1120.251 890.779 1050.286 931.173 1050.286 850.385 1120.251 890.779"/>
    <polygon class="cls-2" points="1190.215 365.656 1120.251 406.05 1120.251 325.263 1190.215 365.656"/>
    <polygon class="cls-2" points="1190.215 446.445 1120.251 486.839 1120.251 406.05 1190.215 446.445"/>
    <polygon class="cls-2" points="1190.215 527.232 1120.251 567.626 1120.251 486.839 1190.215 527.232"/>
    <polygon class="cls-2" points="1190.215 608.021 1120.251 648.415 1120.251 567.626 1190.215 608.021"/>
    <polygon class="cls-2" points="1190.215 688.809 1120.251 729.203 1120.251 648.415 1190.215 688.809"/>
    <polygon class="cls-2" points="1190.215 769.597 1120.251 809.991 1120.251 729.203 1190.215 769.597"/>
    <polygon class="cls-2" points="1190.215 850.385 1120.251 890.779 1120.251 809.991 1190.215 850.385"/>
    <polygon class="cls-2" points="1120.251 809.991 1190.215 769.597 1190.215 850.385 1120.251 809.991"/>
    <polygon class="cls-2" points="1120.251 729.203 1190.215 688.809 1190.215 769.597 1120.251 729.203"/>
    <polygon class="cls-2" points="1120.251 648.415 1190.215 608.021 1190.215 688.809 1120.251 648.415"/>
    <polygon class="cls-2" points="1120.251 567.626 1190.215 527.232 1190.215 608.021 1120.251 567.626"/>
    <polygon class="cls-2" points="1120.251 486.839 1190.215 446.445 1190.215 527.232 1120.251 486.839"/>
    <polygon class="cls-2" points="1120.251 406.05 1190.215 365.656 1190.215 446.445 1120.251 406.05"/>
    <polygon class="cls-2" points="1120.251 325.263 1190.215 284.869 1190.215 365.656 1120.251 325.263"/>
    <polygon class="cls-2" points="1120.251 890.78 1190.215 850.385 1190.215 931.173 1120.251 890.78"/>
    <polygon class="cls-2" points="1190.227 850.385 1260.192 809.991 1260.192 890.779 1190.227 850.385"/>
    <polygon class="cls-2" points="1190.227 769.597 1260.192 729.203 1260.192 809.991 1190.227 769.597"/>
    <polygon class="cls-2" points="1190.227 688.809 1260.192 648.415 1260.192 729.203 1190.227 688.809"/>
    <polygon class="cls-2" points="1190.227 608.021 1260.192 567.626 1260.192 648.415 1190.227 608.021"/>
    <polygon class="cls-2" points="1190.227 527.233 1260.192 486.838 1260.192 567.626 1190.227 527.233"/>
    <polygon class="cls-2" points="1190.227 446.445 1260.192 406.05 1260.192 486.838 1190.227 446.445"/>
    <polygon class="cls-2" points="1190.227 365.657 1260.192 325.262 1260.192 406.05 1190.227 365.657"/>
    <polygon class="cls-2" points="1260.192 325.262 1190.227 365.657 1190.227 284.869 1260.192 325.262"/>
    <polygon class="cls-2" points="1260.192 406.05 1190.227 446.445 1190.227 365.657 1260.192 406.05"/>
    <polygon class="cls-2" points="1260.192 486.838 1190.227 527.233 1190.227 446.445 1260.192 486.838"/>
    <polygon class="cls-2" points="630.647 283.625 700.612 243.23 700.612 324.018 630.647 283.625"/>
    <polygon class="cls-2" points="630.647 202.837 700.612 162.442 700.612 243.23 630.647 202.837"/>
    <polygon class="cls-2" points="630.647 122.049 700.612 81.654 700.612 162.442 630.647 122.049"/>
    <polygon class="cls-2" points="630.647 41.261 700.612 0.866 700.612 81.654 630.647 41.261"/>
    <polygon class="cls-2" points="700.612 81.654 630.647 122.049 630.647 41.261 700.612 81.654"/>
    <polygon class="cls-2" points="700.612 162.442 630.647 202.837 630.647 122.049 700.612 162.442"/>
    <polygon class="cls-2" points="700.612 243.23 630.647 283.625 630.647 202.837 700.612 243.23"/>
    <polygon class="cls-2" points="770.493 41.261 700.529 81.655 700.529 0.866 770.493 41.261"/>
    <polygon class="cls-2" points="770.493 122.048 700.529 162.442 700.529 81.655 770.493 122.048"/>
    <polygon class="cls-2" points="770.493 202.837 700.529 243.231 700.529 162.442 770.493 202.837"/>
    <polygon class="cls-2" points="770.493 283.624 700.529 324.018 700.529 243.231 770.493 283.624"/>
    <polygon class="cls-2" points="700.529 243.231 770.493 202.837 770.493 283.624 700.529 243.231"/>
    <polygon class="cls-2" points="700.529 162.442 770.493 122.048 770.493 202.837 700.529 162.442"/>
    <polygon class="cls-2" points="700.529 81.655 770.493 41.261 770.493 122.048 700.529 81.655"/>
    <polygon class="cls-2" points="770.512 283.625 840.477 243.23 840.477 324.018 770.512 283.625"/>
    <polygon class="cls-2" points="770.512 202.837 840.477 162.442 840.477 243.23 770.512 202.837"/>
    <polygon class="cls-2" points="770.512 122.049 840.477 81.654 840.477 162.442 770.512 122.049"/>
    <polygon class="cls-2" points="770.512 41.261 840.477 0.866 840.477 81.654 770.512 41.261"/>
    <polygon class="cls-2" points="840.477 81.654 770.512 122.049 770.512 41.261 840.477 81.654"/>
    <polygon class="cls-2" points="840.477 162.442 770.512 202.837 770.512 122.049 840.477 162.442"/>
    <polygon class="cls-2" points="840.477 243.23 770.512 283.625 770.512 202.837 840.477 243.23"/>
    <polygon class="cls-2" points="910.179 41.261 840.214 81.655 840.214 0.866 910.179 41.261"/>
    <polygon class="cls-2" points="910.179 122.048 840.214 162.442 840.214 81.655 910.179 122.048"/>
    <polygon class="cls-2" points="910.179 202.837 840.214 243.231 840.214 162.442 910.179 202.837"/>
    <polygon class="cls-2" points="910.179 283.624 840.214 324.018 840.214 243.231 910.179 283.624"/>
    <polygon class="cls-2" points="840.214 243.231 910.179 202.837 910.179 283.624 840.214 243.231"/>
    <polygon class="cls-2" points="840.214 162.442 910.179 122.048 910.179 202.837 840.214 162.442"/>
    <polygon class="cls-2" points="840.214 81.655 910.179 41.261 910.179 122.048 840.214 81.655"/>
    <polygon class="cls-2" points="910.188 283.625 980.152 243.23 980.152 324.018 910.188 283.625"/>
    <polygon class="cls-2" points="910.188 202.837 980.152 162.442 980.152 243.23 910.188 202.837"/>
    <polygon class="cls-2" points="910.188 122.049 980.152 81.654 980.152 162.442 910.188 122.049"/>
    <polygon class="cls-2" points="910.188 41.261 980.152 0.866 980.152 81.654 910.188 41.261"/>
    <polygon class="cls-2" points="980.152 81.654 910.188 122.049 910.188 41.261 980.152 81.654"/>
    <polygon class="cls-2" points="980.152 162.442 910.188 202.837 910.188 122.049 980.152 162.442"/>
    <polygon class="cls-2" points="980.152 243.23 910.188 283.625 910.188 202.837 980.152 243.23"/>
    <polygon class="cls-2" points="1050.117 41.261 980.153 81.655 980.153 0.866 1050.117 41.261"/>
    <polygon class="cls-2" points="1050.117 122.048 980.153 162.442 980.153 81.655 1050.117 122.048"/>
    <polygon class="cls-2" points="1050.117 202.837 980.153 243.231 980.153 162.442 1050.117 202.837"/>
    <polygon class="cls-2" points="1050.117 283.624 980.153 324.018 980.153 243.231 1050.117 283.624"/>
    <polygon class="cls-2" points="980.153 243.231 1050.117 202.837 1050.117 283.624 980.153 243.231"/>
    <polygon class="cls-2" points="980.153 162.442 1050.117 122.048 1050.117 202.837 980.153 162.442"/>
    <polygon class="cls-2" points="980.153 81.655 1050.117 41.261 1050.117 122.048 980.153 81.655"/>
    <polygon class="cls-2" points="1050.119 283.625 1120.084 243.23 1120.084 324.018 1050.119 283.625"/>
    <polygon class="cls-2" points="1050.119 202.837 1120.084 162.442 1120.084 243.23 1050.119 202.837"/>
    <polygon class="cls-2" points="1050.119 122.049 1120.084 81.654 1120.084 162.442 1050.119 122.049"/>
    <polygon class="cls-2" points="1050.119 41.261 1120.084 0.866 1120.084 81.654 1050.119 41.261"/>
    <polygon class="cls-2" points="1120.084 81.654 1050.119 122.049 1050.119 41.261 1120.084 81.654"/>
    <polygon class="cls-2" points="1120.084 162.442 1050.119 202.837 1050.119 122.049 1120.084 162.442"/>
    <polygon class="cls-2" points="1120.084 243.23 1050.119 283.625 1050.119 202.837 1120.084 243.23"/>
    <polygon class="cls-2" points="1190.049 41.261 1120.084 81.655 1120.084 0.866 1190.049 41.261"/>
    <polygon class="cls-2" points="1190.049 122.048 1120.084 162.442 1120.084 81.655 1190.049 122.048"/>
    <polygon class="cls-2" points="1190.049 202.837 1120.084 243.231 1120.084 162.442 1190.049 202.837"/>
    <polygon class="cls-2" points="1190.049 283.624 1120.084 324.018 1120.084 243.231 1190.049 283.624"/>
    <polygon class="cls-2" points="1120.084 243.231 1190.049 202.837 1190.049 283.624 1120.084 243.231"/>
    <polygon class="cls-2" points="1120.084 162.442 1190.049 122.048 1190.049 202.837 1120.084 162.442"/>
    <polygon class="cls-2" points="1120.084 81.655 1190.049 41.261 1190.049 122.048 1120.084 81.655"/>
    <polygon class="cls-2" points="1190.061 283.625 1260.026 243.23 1260.026 324.018 1190.061 283.625"/>
    <polygon class="cls-2" points="1190.061 202.837 1260.026 162.442 1260.026 243.23 1190.061 202.837"/>
    <polygon class="cls-2" points="1190.061 122.049 1260.026 81.654 1260.026 162.442 1190.061 122.049"/>
    <polygon class="cls-2" points="1190.061 41.261 1260.026 0.866 1260.026 81.654 1190.061 41.261"/>
    <polygon class="cls-2" points="1260.026 81.654 1190.061 122.049 1190.061 41.261 1260.026 81.654"/>
    <polygon class="cls-2" points="1260.026 162.442 1190.061 202.837 1190.061 122.049 1260.026 162.442"/>
    <polygon class="cls-2" points="1260.026 243.23 1190.061 283.625 1190.061 202.837 1260.026 243.23"/>
    <polygon class="cls-2" points="1260.192 567.626 1190.227 608.021 1190.227 527.233 1260.192 567.626"/>
    <polygon class="cls-2" points="1260.294 648.593 1190.125 688.631 1190.535 607.844 1260.294 648.593"/>
    <polygon class="cls-2" points="1260.192 729.203 1190.227 769.597 1190.227 688.809 1260.192 729.203"/>
    <polygon class="cls-2" points="1260.192 809.991 1190.227 850.385 1190.227 769.597 1260.192 809.991"/>
    <polygon class="cls-2" points="1260.192 890.779 1190.227 931.173 1190.227 850.385 1260.192 890.779"/>
  </g>
  <g class="cls-1">
    <polygon class="cls-2" points="1.166 850.385 71.131 809.991 71.131 890.779 1.166 850.385"/>
    <polygon class="cls-2" points="1.166 769.597 71.131 729.203 71.131 809.991 1.166 769.597"/>
    <polygon class="cls-2" points="1.166 688.809 71.131 648.415 71.131 729.203 1.166 688.809"/>
    <polygon class="cls-2" points="1.166 608.021 71.131 567.626 71.131 648.415 1.166 608.021"/>
    <polygon class="cls-2" points="1.166 527.233 71.131 486.838 71.131 567.626 1.166 527.233"/>
    <polygon class="cls-2" points="1.166 446.445 71.131 406.05 71.131 486.838 1.166 446.445"/>
    <polygon class="cls-2" points="1.166 365.657 71.131 325.262 71.131 406.05 1.166 365.657"/>
    <polygon class="cls-2" points="71.131 325.262 1.166 365.657 1.166 284.869 71.131 325.262"/>
    <polygon class="cls-2" points="71.131 406.05 1.166 446.445 1.166 365.657 71.131 406.05"/>
    <polygon class="cls-2" points="71.131 486.838 1.166 527.233 1.166 446.445 71.131 486.838"/>
    <polygon class="cls-2" points="71.131 567.626 1.166 608.021 1.166 527.233 71.131 567.626"/>
    <polygon class="cls-2" points="71.233 648.593 1.064 688.631 1.474 607.844 71.233 648.593"/>
    <polygon class="cls-2" points="71.131 729.203 1.166 769.597 1.166 688.809 71.131 729.203"/>
    <polygon class="cls-2" points="71.131 809.991 1.166 850.385 1.166 769.597 71.131 809.991"/>
    <polygon class="cls-2" points="71.131 890.779 1.166 931.173 1.166 850.385 71.131 890.779"/>
    <polygon class="cls-2" points="141.012 365.656 71.048 406.05 71.048 325.263 141.012 365.656"/>
    <polygon class="cls-2" points="141.012 446.445 71.048 486.839 71.048 406.05 141.012 446.445"/>
    <polygon class="cls-2" points="141.012 527.232 71.048 567.626 71.048 486.839 141.012 527.232"/>
    <polygon class="cls-2" points="141.012 608.021 71.048 648.415 71.048 567.626 141.012 608.021"/>
    <polygon class="cls-2" points="141.012 688.809 71.048 729.203 71.048 648.415 141.012 688.809"/>
    <polygon class="cls-2" points="141.012 769.597 71.048 809.991 71.048 729.203 141.012 769.597"/>
    <polygon class="cls-2" points="141.012 850.385 71.048 890.779 71.048 809.991 141.012 850.385"/>
    <polygon class="cls-2" points="71.048 809.991 141.012 769.597 141.012 850.385 71.048 809.991"/>
    <polygon class="cls-2" points="71.048 729.203 141.012 688.809 141.012 769.597 71.048 729.203"/>
    <polygon class="cls-2" points="71.048 648.415 141.012 608.021 141.012 688.809 71.048 648.415"/>
    <polygon class="cls-2" points="71.048 567.626 141.012 527.232 141.012 608.021 71.048 567.626"/>
    <polygon class="cls-2" points="71.048 486.839 141.012 446.445 141.012 527.232 71.048 486.839"/>
    <polygon class="cls-2" points="71.048 406.05 141.012 365.656 141.012 446.445 71.048 406.05"/>
    <polygon class="cls-2" points="71.048 325.263 141.012 284.869 141.012 365.656 71.048 325.263"/>
    <polygon class="cls-2" points="71.048 890.78 141.012 850.385 141.012 931.173 71.048 890.78"/>
    <polygon class="cls-2" points="141.032 850.385 210.996 809.991 210.996 890.779 141.032 850.385"/>
    <polygon class="cls-2" points="141.032 769.597 210.996 729.203 210.996 809.991 141.032 769.597"/>
    <polygon class="cls-2" points="141.032 688.809 210.996 648.415 210.996 729.203 141.032 688.809"/>
    <polygon class="cls-2" points="141.032 608.021 210.996 567.626 210.996 648.415 141.032 608.021"/>
    <polygon class="cls-2" points="141.032 527.233 210.996 486.838 210.996 567.626 141.032 527.233"/>
    <polygon class="cls-2" points="141.032 446.445 210.996 406.05 210.996 486.838 141.032 446.445"/>
    <polygon class="cls-2" points="141.032 365.657 210.996 325.262 210.996 406.05 141.032 365.657"/>
    <polygon class="cls-2" points="210.996 325.262 141.032 365.657 141.032 284.869 210.996 325.262"/>
    <polygon class="cls-2" points="210.996 406.05 141.032 446.445 141.032 365.657 210.996 406.05"/>
    <polygon class="cls-2" points="210.996 486.838 141.032 527.233 141.032 446.445 210.996 486.838"/>
    <polygon class="cls-2" points="210.996 567.626 141.032 608.021 141.032 527.233 210.996 567.626"/>
    <polygon class="cls-2" points="211.098 648.593 140.929 688.631 141.34 607.844 211.098 648.593"/>
    <polygon class="cls-2" points="210.996 729.203 141.032 769.597 141.032 688.809 210.996 729.203"/>
    <polygon class="cls-2" points="210.996 809.991 141.032 850.385 141.032 769.597 210.996 809.991"/>
    <polygon class="cls-2" points="210.996 890.779 141.032 931.173 141.032 850.385 210.996 890.779"/>
    <polygon class="cls-2" points="280.698 365.656 210.733 406.05 210.733 325.263 280.698 365.656"/>
    <polygon class="cls-2" points="280.698 446.445 210.733 486.839 210.733 406.05 280.698 446.445"/>
    <polygon class="cls-2" points="280.698 527.232 210.733 567.626 210.733 486.839 280.698 527.232"/>
    <polygon class="cls-2" points="280.698 608.021 210.733 648.415 210.733 567.626 280.698 608.021"/>
    <polygon class="cls-2" points="280.698 688.809 210.733 729.203 210.733 648.415 280.698 688.809"/>
    <polygon class="cls-2" points="280.698 769.597 210.733 809.991 210.733 729.203 280.698 769.597"/>
    <polygon class="cls-2" points="280.698 850.385 210.733 890.779 210.733 809.991 280.698 850.385"/>
    <polygon class="cls-2" points="210.733 809.991 280.698 769.597 280.698 850.385 210.733 809.991"/>
    <polygon class="cls-2" points="210.733 729.203 280.698 688.809 280.698 769.597 210.733 729.203"/>
    <polygon class="cls-2" points="210.733 648.415 280.698 608.021 280.698 688.809 210.733 648.415"/>
    <polygon class="cls-2" points="210.733 567.626 280.698 527.232 280.698 608.021 210.733 567.626"/>
    <polygon class="cls-2" points="210.733 486.839 280.698 446.445 280.698 527.232 210.733 486.839"/>
    <polygon class="cls-2" points="210.733 406.05 280.698 365.656 280.698 446.445 210.733 406.05"/>
    <polygon class="cls-2" points="210.733 325.263 280.698 284.869 280.698 365.656 210.733 325.263"/>
    <polygon class="cls-2" points="210.733 890.78 280.698 850.385 280.698 931.173 210.733 890.78"/>
    <polygon class="cls-2" points="280.707 850.385 350.671 809.991 350.671 890.779 280.707 850.385"/>
    <polygon class="cls-2" points="280.707 769.597 350.671 729.203 350.671 809.991 280.707 769.597"/>
    <polygon class="cls-2" points="280.707 688.809 350.671 648.415 350.671 729.203 280.707 688.809"/>
    <polygon class="cls-2" points="280.707 608.021 350.671 567.626 350.671 648.415 280.707 608.021"/>
    <polygon class="cls-2" points="280.707 527.233 350.671 486.838 350.671 567.626 280.707 527.233"/>
    <polygon class="cls-2" points="280.707 446.445 350.671 406.05 350.671 486.838 280.707 446.445"/>
    <polygon class="cls-2" points="280.707 365.657 350.671 325.262 350.671 406.05 280.707 365.657"/>
    <polygon class="cls-2" points="350.671 325.262 280.707 365.657 280.707 284.869 350.671 325.262"/>
    <polygon class="cls-2" points="350.671 406.05 280.707 446.445 280.707 365.657 350.671 406.05"/>
    <polygon class="cls-2" points="350.671 486.838 280.707 527.233 280.707 446.445 350.671 486.838"/>
    <polygon class="cls-2" points="350.671 567.626 280.707 608.021 280.707 527.233 350.671 567.626"/>
    <polygon class="cls-2" points="350.774 648.593 280.604 688.631 281.015 607.844 350.774 648.593"/>
    <polygon class="cls-2" points="350.671 729.203 280.707 769.597 280.707 688.809 350.671 729.203"/>
    <polygon class="cls-2" points="350.671 809.991 280.707 850.385 280.707 769.597 350.671 809.991"/>
    <polygon class="cls-2" points="350.671 890.779 280.707 931.173 280.707 850.385 350.671 890.779"/>
    <polygon class="cls-2" points="420.637 365.656 350.672 406.05 350.672 325.263 420.637 365.656"/>
    <polygon class="cls-2" points="420.637 446.445 350.672 486.839 350.672 406.05 420.637 446.445"/>
    <polygon class="cls-2" points="420.637 527.232 350.672 567.626 350.672 486.839 420.637 527.232"/>
    <polygon class="cls-2" points="420.637 608.021 350.672 648.415 350.672 567.626 420.637 608.021"/>
    <polygon class="cls-2" points="420.637 688.809 350.672 729.203 350.672 648.415 420.637 688.809"/>
    <polygon class="cls-2" points="420.637 769.597 350.672 809.991 350.672 729.203 420.637 769.597"/>
    <polygon class="cls-2" points="420.637 850.385 350.672 890.779 350.672 809.991 420.637 850.385"/>
    <polygon class="cls-2" points="350.672 809.991 420.637 769.597 420.637 850.385 350.672 809.991"/>
    <polygon class="cls-2" points="350.672 729.203 420.637 688.809 420.637 769.597 350.672 729.203"/>
    <polygon class="cls-2" points="350.672 648.415 420.637 608.021 420.637 688.809 350.672 648.415"/>
    <polygon class="cls-2" points="350.672 567.626 420.637 527.232 420.637 608.021 350.672 567.626"/>
    <polygon class="cls-2" points="350.672 486.839 420.637 446.445 420.637 527.232 350.672 486.839"/>
    <polygon class="cls-2" points="350.672 406.05 420.637 365.656 420.637 446.445 350.672 406.05"/>
    <polygon class="cls-2" points="350.672 325.263 420.637 284.869 420.637 365.656 350.672 325.263"/>
    <polygon class="cls-2" points="350.672 890.78 420.637 850.385 420.637 931.173 350.672 890.78"/>
    <polygon class="cls-2" points="420.638 850.385 490.603 809.991 490.603 890.779 420.638 850.385"/>
    <polygon class="cls-2" points="420.638 769.597 490.603 729.203 490.603 809.991 420.638 769.597"/>
    <polygon class="cls-2" points="420.638 688.809 490.603 648.415 490.603 729.203 420.638 688.809"/>
    <polygon class="cls-2" points="420.638 608.021 490.603 567.626 490.603 648.415 420.638 608.021"/>
    <polygon class="cls-2" points="420.638 527.233 490.603 486.838 490.603 567.626 420.638 527.233"/>
    <polygon class="cls-2" points="420.638 446.445 490.603 406.05 490.603 486.838 420.638 446.445"/>
    <polygon class="cls-2" points="420.638 365.657 490.603 325.262 490.603 406.05 420.638 365.657"/>
    <polygon class="cls-2" points="490.603 325.262 420.638 365.657 420.638 284.869 490.603 325.262"/>
    <polygon class="cls-2" points="490.603 406.05 420.638 446.445 420.638 365.657 490.603 406.05"/>
    <polygon class="cls-2" points="490.603 486.838 420.638 527.233 420.638 446.445 490.603 486.838"/>
    <polygon class="cls-2" points="490.603 567.626 420.638 608.021 420.638 527.233 490.603 567.626"/>
    <polygon class="cls-2" points="490.706 648.593 420.536 688.631 420.946 607.844 490.706 648.593"/>
    <polygon class="cls-2" points="490.603 729.203 420.638 769.597 420.638 688.809 490.603 729.203"/>
    <polygon class="cls-2" points="490.603 809.991 420.638 850.385 420.638 769.597 490.603 809.991"/>
    <polygon class="cls-2" points="490.603 890.779 420.638 931.173 420.638 850.385 490.603 890.779"/>
    <polygon class="cls-2" points="560.568 365.656 490.603 406.05 490.603 325.263 560.568 365.656"/>
    <polygon class="cls-2" points="560.568 446.445 490.603 486.839 490.603 406.05 560.568 446.445"/>
    <polygon class="cls-2" points="560.568 527.232 490.603 567.626 490.603 486.839 560.568 527.232"/>
    <polygon class="cls-2" points="560.568 608.021 490.603 648.415 490.603 567.626 560.568 608.021"/>
    <polygon class="cls-2" points="560.568 688.809 490.603 729.203 490.603 648.415 560.568 688.809"/>
    <polygon class="cls-2" points="560.568 769.597 490.603 809.991 490.603 729.203 560.568 769.597"/>
    <polygon class="cls-2" points="560.568 850.385 490.603 890.779 490.603 809.991 560.568 850.385"/>
    <polygon class="cls-2" points="490.603 809.991 560.568 769.597 560.568 850.385 490.603 809.991"/>
    <polygon class="cls-2" points="490.603 729.203 560.568 688.809 560.568 769.597 490.603 729.203"/>
    <polygon class="cls-2" points="490.603 648.415 560.568 608.021 560.568 688.809 490.603 648.415"/>
    <polygon class="cls-2" points="490.603 567.626 560.568 527.232 560.568 608.021 490.603 567.626"/>
    <polygon class="cls-2" points="490.603 486.839 560.568 446.445 560.568 527.232 490.603 486.839"/>
    <polygon class="cls-2" points="490.603 406.05 560.568 365.656 560.568 446.445 490.603 406.05"/>
    <polygon class="cls-2" points="490.603 325.263 560.568 284.869 560.568 365.656 490.603 325.263"/>
    <polygon class="cls-2" points="490.603 890.78 560.568 850.385 560.568 931.173 490.603 890.78"/>
    <polygon class="cls-2" points="560.58 850.385 630.545 809.991 630.545 890.779 560.58 850.385"/>
    <polygon class="cls-2" points="560.58 769.597 630.545 729.203 630.545 809.991 560.58 769.597"/>
    <polygon class="cls-2" points="560.58 688.809 630.545 648.415 630.545 729.203 560.58 688.809"/>
    <polygon class="cls-2" points="560.58 608.021 630.545 567.626 630.545 648.415 560.58 608.021"/>
    <polygon class="cls-2" points="560.58 527.233 630.545 486.838 630.545 567.626 560.58 527.233"/>
    <polygon class="cls-2" points="560.58 446.445 630.545 406.05 630.545 486.838 560.58 446.445"/>
    <polygon class="cls-2" points="560.58 365.657 630.545 325.262 630.545 406.05 560.58 365.657"/>
    <polygon class="cls-2" points="630.545 325.262 560.58 365.657 560.58 284.869 630.545 325.262"/>
    <polygon class="cls-2" points="630.545 406.05 560.58 446.445 560.58 365.657 630.545 406.05"/>
    <polygon class="cls-2" points="630.545 486.838 560.58 527.233 560.58 446.445 630.545 486.838"/>
    <polygon class="cls-2" points="1 283.625 70.965 243.23 70.965 324.018 1 283.625"/>
    <polygon class="cls-2" points="1 202.837 70.965 162.442 70.965 243.23 1 202.837"/>
    <polygon class="cls-2" points="1 122.049 70.965 81.654 70.965 162.442 1 122.049"/>
    <polygon class="cls-2" points="1 41.261 70.965 0.866 70.965 81.654 1 41.261"/>
    <polygon class="cls-2" points="70.965 81.654 1 122.049 1 41.261 70.965 81.654"/>
    <polygon class="cls-2" points="70.965 162.442 1 202.837 1 122.049 70.965 162.442"/>
    <polygon class="cls-2" points="70.965 243.23 1 283.625 1 202.837 70.965 243.23"/>
    <polygon class="cls-2" points="140.846 41.261 70.881 81.655 70.881 0.866 140.846 41.261"/>
    <polygon class="cls-2" points="140.846 122.048 70.881 162.442 70.881 81.655 140.846 122.048"/>
    <polygon class="cls-2" points="140.846 202.837 70.881 243.231 70.881 162.442 140.846 202.837"/>
    <polygon class="cls-2" points="140.846 283.624 70.881 324.018 70.881 243.231 140.846 283.624"/>
    <polygon class="cls-2" points="70.881 243.231 140.846 202.837 140.846 283.624 70.881 243.231"/>
    <polygon class="cls-2" points="70.881 162.442 140.846 122.048 140.846 202.837 70.881 162.442"/>
    <polygon class="cls-2" points="70.881 81.655 140.846 41.261 140.846 122.048 70.881 81.655"/>
    <polygon class="cls-2" points="140.865 283.625 210.83 243.23 210.83 324.018 140.865 283.625"/>
    <polygon class="cls-2" points="140.865 202.837 210.83 162.442 210.83 243.23 140.865 202.837"/>
    <polygon class="cls-2" points="140.865 122.049 210.83 81.654 210.83 162.442 140.865 122.049"/>
    <polygon class="cls-2" points="140.865 41.261 210.83 0.866 210.83 81.654 140.865 41.261"/>
    <polygon class="cls-2" points="210.83 81.654 140.865 122.049 140.865 41.261 210.83 81.654"/>
    <polygon class="cls-2" points="210.83 162.442 140.865 202.837 140.865 122.049 210.83 162.442"/>
    <polygon class="cls-2" points="210.83 243.23 140.865 283.625 140.865 202.837 210.83 243.23"/>
    <polygon class="cls-2" points="280.532 41.261 210.567 81.655 210.567 0.866 280.532 41.261"/>
    <polygon class="cls-2" points="280.532 122.048 210.567 162.442 210.567 81.655 280.532 122.048"/>
    <polygon class="cls-2" points="280.532 202.837 210.567 243.231 210.567 162.442 280.532 202.837"/>
    <polygon class="cls-2" points="280.532 283.624 210.567 324.018 210.567 243.231 280.532 283.624"/>
    <polygon class="cls-2" points="210.567 243.231 280.532 202.837 280.532 283.624 210.567 243.231"/>
    <polygon class="cls-2" points="210.567 162.442 280.532 122.048 280.532 202.837 210.567 162.442"/>
    <polygon class="cls-2" points="210.567 81.655 280.532 41.261 280.532 122.048 210.567 81.655"/>
    <polygon class="cls-2" points="280.541 283.625 350.504 243.23 350.504 324.018 280.541 283.625"/>
    <polygon class="cls-2" points="280.541 202.837 350.504 162.442 350.504 243.23 280.541 202.837"/>
    <polygon class="cls-2" points="280.541 122.049 350.504 81.654 350.504 162.442 280.541 122.049"/>
    <polygon class="cls-2" points="280.541 41.261 350.504 0.866 350.504 81.654 280.541 41.261"/>
    <polygon class="cls-2" points="350.504 81.654 280.541 122.049 280.541 41.261 350.504 81.654"/>
    <polygon class="cls-2" points="350.504 162.442 280.541 202.837 280.541 122.049 350.504 162.442"/>
    <polygon class="cls-2" points="350.504 243.23 280.541 283.625 280.541 202.837 350.504 243.23"/>
    <polygon class="cls-2" points="420.47 41.261 350.505 81.655 350.505 0.866 420.47 41.261"/>
    <polygon class="cls-2" points="420.47 122.048 350.505 162.442 350.505 81.655 420.47 122.048"/>
    <polygon class="cls-2" points="420.47 202.837 350.505 243.231 350.505 162.442 420.47 202.837"/>
    <polygon class="cls-2" points="420.47 283.624 350.505 324.018 350.505 243.231 420.47 283.624"/>
    <polygon class="cls-2" points="350.505 243.231 420.47 202.837 420.47 283.624 350.505 243.231"/>
    <polygon class="cls-2" points="350.505 162.442 420.47 122.048 420.47 202.837 350.505 162.442"/>
    <polygon class="cls-2" points="350.505 81.655 420.47 41.261 420.47 122.048 350.505 81.655"/>
    <polygon class="cls-2" points="420.472 283.625 490.437 243.23 490.437 324.018 420.472 283.625"/>
    <polygon class="cls-2" points="420.472 202.837 490.437 162.442 490.437 243.23 420.472 202.837"/>
    <polygon class="cls-2" points="420.472 122.049 490.437 81.654 490.437 162.442 420.472 122.049"/>
    <polygon class="cls-2" points="420.472 41.261 490.437 0.866 490.437 81.654 420.472 41.261"/>
    <polygon class="cls-2" points="490.437 81.654 420.472 122.049 420.472 41.261 490.437 81.654"/>
    <polygon class="cls-2" points="490.437 162.442 420.472 202.837 420.472 122.049 490.437 162.442"/>
    <polygon class="cls-2" points="490.437 243.23 420.472 283.625 420.472 202.837 490.437 243.23"/>
    <polygon class="cls-2" points="560.402 41.261 490.437 81.655 490.437 0.866 560.402 41.261"/>
    <polygon class="cls-2" points="560.402 122.048 490.437 162.442 490.437 81.655 560.402 122.048"/>
    <polygon class="cls-2" points="560.402 202.837 490.437 243.231 490.437 162.442 560.402 202.837"/>
    <polygon class="cls-2" points="560.402 283.624 490.437 324.018 490.437 243.231 560.402 283.624"/>
    <polygon class="cls-2" points="490.437 243.231 560.402 202.837 560.402 283.624 490.437 243.231"/>
    <polygon class="cls-2" points="490.437 162.442 560.402 122.048 560.402 202.837 490.437 162.442"/>
    <polygon class="cls-2" points="490.437 81.655 560.402 41.261 560.402 122.048 490.437 81.655"/>
    <polygon class="cls-2" points="560.414 283.625 630.378 243.23 630.378 324.018 560.414 283.625"/>
    <polygon class="cls-2" points="560.414 202.837 630.378 162.442 630.378 243.23 560.414 202.837"/>
    <polygon class="cls-2" points="560.414 122.049 630.378 81.654 630.378 162.442 560.414 122.049"/>
    <polygon class="cls-2" points="560.414 41.261 630.378 0.866 630.378 81.654 560.414 41.261"/>
    <polygon class="cls-2" points="630.378 81.654 560.414 122.049 560.414 41.261 630.378 81.654"/>
    <polygon class="cls-2" points="630.378 162.442 560.414 202.837 560.414 122.049 630.378 162.442"/>
    <polygon class="cls-2" points="630.378 243.23 560.414 283.625 560.414 202.837 630.378 243.23"/>
    <polygon class="cls-2" points="630.545 567.626 560.58 608.021 560.58 527.233 630.545 567.626"/>
    <polygon class="cls-2" points="630.647 648.593 560.477 688.631 560.887 607.844 630.647 648.593"/>
    <polygon class="cls-2" points="630.545 729.203 560.58 769.597 560.58 688.809 630.545 729.203"/>
    <polygon class="cls-2" points="630.545 809.991 560.58 850.385 560.58 769.597 630.545 809.991"/>
    <polygon class="cls-2" points="630.545 890.779 560.58 931.173 560.58 850.385 630.545 890.779"/>
  </g>
</svg>
