<svg width="18" height="23" viewBox="0 0 18 23" fill="none" xmlns="http://www.w3.org/2000/svg">
<path fill-rule="evenodd" clip-rule="evenodd" d="M9.35382 21.8514H9.35574L9.37217 21.8346C9.70511 21.4949 10.1998 20.9679 10.7985 20.2943C11.7474 19.2266 12.6843 18.0939 13.5517 16.9363C16.0249 13.6354 17.5 10.7399 17.5 8.5C17.5 3.50823 13.6055 0 9 0C4.39446 0 0.5 3.50823 0.5 8.5C0.5 10.7723 2.01712 13.718 4.55049 17.0721C5.42916 18.2354 6.37251 19.3678 7.32 20.4272C7.89895 21.0745 8.35991 21.5627 8.64211 21.8492L8.96097 22.1728L9.31359 21.8863L8.99849 21.4985L8.64426 21.1486L8.65795 21.1347L9.01359 21.4832L9.3545 21.1474L9.35574 21.1486L9.01527 21.4849L9.33035 21.8727L9.35382 21.8514ZM12.7514 16.3366C11.9021 17.4701 10.9826 18.5818 10.051 19.63C9.64467 20.0872 9.28788 20.4748 8.9999 20.7791C8.74807 20.5128 8.43111 20.1694 8.06536 19.7605C7.13514 18.7205 6.20906 17.6088 5.34845 16.4694C2.94085 13.2818 1.5 10.4842 1.5 8.5C1.5 4.08516 4.92481 1 9 1C13.0752 1 16.5 4.08516 16.5 8.5C16.5 10.4544 15.1007 13.2012 12.7514 16.3366ZM12.5 8.5C12.5 10.433 10.933 12 9 12C7.067 12 5.5 10.433 5.5 8.5C5.5 6.567 7.067 5 9 5C10.933 5 12.5 6.567 12.5 8.5ZM6.5 8.5C6.5 9.88071 7.61929 11 9 11C10.3807 11 11.5 9.88071 11.5 8.5C11.5 7.11929 10.3807 6 9 6C7.61929 6 6.5 7.11929 6.5 8.5Z" fill="black"/>
</svg>
