<svg width="16" height="16" viewBox="0 0 16 16" fill="none" xmlns="http://www.w3.org/2000/svg">
    <path fill-rule="evenodd" clip-rule="evenodd"
          d="M10.1464 13.3536C9.95118 13.1583 9.95118 12.8417 10.1464 12.6464L14.2929 8.5H0.5C0.223858 8.5 0 8.27614 0 8C0 7.72386 0.223858 7.5 0.5 7.5H14.2929L10.1464 3.35355C9.95118 3.15829 9.95118 2.84171 10.1464 2.64645C10.3417 2.45118 10.6583 2.45118 10.8536 2.64645L15.8536 7.64645C15.9015 7.69439 15.9377 7.74964 15.9621 7.80861C15.9865 7.86756 16 7.93221 16 8C16 8.06779 15.9865 8.13244 15.9621 8.19139C15.9377 8.25036 15.9015 8.30561 15.8536 8.35355L10.8536 13.3536C10.6583 13.5488 10.3417 13.5488 10.1464 13.3536Z"
          fill="black" />
</svg>
