<svg width="22" height="22" fill="none" xmlns="http://www.w3.org/2000/svg">
    <path fill-rule="evenodd" clip-rule="evenodd"
          d="M13.57 5.239l-.132.99 6.99.933.935-6.89-.991-.134-.677 4.992C17.815 2.274 14.575.5 11 .5 5.224.5.5 5.224.5 11h1c0-5.224 4.276-9.5 9.5-9.5 3.355 0 6.378 1.722 8.042 4.468l-5.472-.73zM11 20.5c5.224 0 9.5-4.276 9.5-9.5h1c0 5.776-4.724 10.5-10.5 10.5-3.575 0-6.815-1.773-8.695-4.629l-.677 4.992-.99-.134.934-6.89 6.99.932-.132.991-5.472-.73C4.622 18.778 7.645 20.5 11 20.5z"
          fill="#000" />
</svg>
