<svg width="43" height="63" fill="none" xmlns="http://www.w3.org/2000/svg">
    <ellipse cx="21.5" cy="59.063" rx="7.167" ry="3.938" fill="#000" fill-opacity=".33" />
    <path fill-rule="evenodd" clip-rule="evenodd"
          d="M39.954 32.995C41.934 28.807 43 25 43 21.656 43 9.024 33.061 0 21.5 0S0 9.024 0 21.656c0 3.345 1.066 7.151 3.046 11.339 1.831 3.873 4.396 7.975 7.507 12.186a125.72 125.72 0 007.204 8.844c.86.965 1.659 1.833 2.376 2.591.43.456.74.774.906.942l.461.464.46-.464c.167-.168.476-.486.907-.942.717-.758 1.516-1.626 2.375-2.59a125.72 125.72 0 007.205-8.845c3.111-4.211 5.676-8.313 7.507-12.186z"
          fill="#D95040" />
    <path fill-rule="evenodd" clip-rule="evenodd"
          d="M22.151 28.875c-4.318 0-7.818-3.526-7.818-7.875 0-4.35 3.5-7.875 7.818-7.875S29.97 16.651 29.97 21c0 4.35-3.5 7.875-7.818 7.875z"
          fill="#99221A" />
</svg>
