<svg xmlns="http://www.w3.org/2000/svg" xmlns:xlink="http://www.w3.org/1999/xlink" width="69.559" height="72.445" viewBox="0 0 69.559 72.445">
  <defs>
    <clipPath id="clip-path">
      <path id="Background04Mask" d="M69.561,0H.891S-.038,41.329,0,43.779A30.182,30.182,0,0,0,10.5,65.969c10.358,8.661,26.847,7.156,39.032,3.964,6.823-1.787,14.4-4.864,18.113-11.287a12.053,12.053,0,0,0,1.469-9.57C67.814,44.95,69.561,0,69.561,0Z" transform="translate(-0.002)" fill="none"/>
    </clipPath>
    <clipPath id="clip-path-2">
      <rect width="42.709" height="75.562" fill="none"/>
    </clipPath>
    <clipPath id="clip-path-3">
      <rect width="15.58" height="21.589" fill="none"/>
    </clipPath>
    <clipPath id="clip-path-4">
      <rect width="33.278" height="41.824" fill="none"/>
    </clipPath>
    <clipPath id="clip-path-5">
      <rect width="57.195" height="22.506" fill="none"/>
    </clipPath>
    <clipPath id="clip-path-6">
      <rect width="10.724" height="4.22" fill="none"/>
    </clipPath>
    <clipPath id="clip-path-7">
      <rect width="38.644" height="29.52" fill="none"/>
    </clipPath>
    <clipPath id="clip-path-8">
      <rect width="15.143" height="15.609" fill="none"/>
    </clipPath>
  </defs>
  <g id="Group_4501" data-name="Group 4501" transform="translate(0)">
    <g id="Background04_Copy" data-name="Background04 Copy" transform="translate(0 0)">
      <path id="Background04Mask-2" data-name="Background04Mask" d="M69.561,0H.891S-.038,41.329,0,43.779A30.182,30.182,0,0,0,10.5,65.969c10.358,8.661,26.847,7.156,39.032,3.964,6.823-1.787,14.4-4.864,18.113-11.287a12.053,12.053,0,0,0,1.469-9.57C67.814,44.95,69.561,0,69.561,0Z" transform="translate(-0.002)" fill="none"/>
      <g id="Background04_Copy-2" data-name="Background04 Copy" transform="translate(0)" clip-path="url(#clip-path)">
        <path id="Background04" d="M51.258,16.563c-3.444,1.254-6.861,2.71-10.536,3.137C33.09,20.588,30.206,14.28,27.2,8.425,24.3,2.784,18.688-1.255,12.045.358,6.291,1.754,2.391,6.867.891,12.372-1.962,22.845,2.249,34.924,10.5,41.824c10.358,8.661,26.847,7.156,39.032,3.965C56.356,44,63.932,40.924,67.646,34.5a12.053,12.053,0,0,0,1.469-9.57c-1.3-4.127-7.183-12.256-17.856-8.368" transform="translate(-0.003 24.146)" fill="#051c2c"/>
        <g id="Character__Full_Character_Female_8" data-name="Character/_Full Character/Female 8" transform="translate(20.259 16.687)" clip-path="url(#clip-path-2)">
          <g id="Character_Head_Female_Bun" data-name="Character/Head/Female/Bun" transform="translate(4.874)" clip-path="url(#clip-path-3)">
            <path id="Face" d="M3.686,16.125c-1.638-.109-1.823-.564-2.3-1.295s-.028-2.575-.028-2.575c2.112,0,1.77-2.368,1.445-3.609a4.954,4.954,0,0,1-1.23-1.9C1.213,7.089.488,6.632.229,6.3a1.109,1.109,0,0,1-.22-.815A.7.7,0,0,1,.267,5,.714.714,0,0,1,.78,4.9a1.161,1.161,0,0,1,.34.1C.729,3.734.322.907,4.1.1,7.574-.65,8.342,3.2,8.342,3.2a4.809,4.809,0,0,1,.109.515c.018.179.027.36.046.539a4.921,4.921,0,0,0,.209,1.057,3.316,3.316,0,0,0,.451.881c.142.2.475.52.391.8-.05.167-.266.212-.439.2-.37-.033-.56-.015-.657.38a7.614,7.614,0,0,1-.138.845,2.841,2.841,0,0,1-.517.913,2.214,2.214,0,0,1-1.975.666,6.159,6.159,0,0,1-.8-.144c-.831,2.97,1.541,2.129,2.225,3a3.7,3.7,0,0,1-.376,2.622,2.792,2.792,0,0,1-2.237.691C4.344,16.161,4.029,16.148,3.686,16.125Z" transform="translate(5.427 1.687)" fill="#d0d0d0"/>
            <path id="Hair" d="M12.672,3.685a3.678,3.678,0,0,0-1.837.3A2.349,2.349,0,0,0,9.651,5.622c-.033.268-.074.571-.124.881C9.346,7.642,8.912,9.159,8.42,9.258a2.677,2.677,0,0,0-.87-1.808,2.875,2.875,0,0,0-1-.761,1.159,1.159,0,0,0-.34-.1.714.714,0,0,0-.513.1.7.7,0,0,0-.258.484,1.109,1.109,0,0,0,.22.815c.259.334.983.791,1.342.452a4.953,4.953,0,0,0,1.23,1.9c.324,1.241.667,3.609-1.446,3.609a3.487,3.487,0,0,0,.028,2.575c.479.731.664,1.185,2.3,1.295a5.825,5.825,0,0,0,2.551-.209,1.736,1.736,0,0,0,.631-.446,3.7,3.7,0,0,0,.376-2.622c-.684-.875-3.056-.034-2.225-3a6.165,6.165,0,0,0,.8.144,2.245,2.245,0,0,0,1.885-.571c-.016.15,1.153,2.454,2.445,2.839-1.06.36-1.367.159-2.276-.555.423.888,1.935,1.626,1.061,3.77a1.42,1.42,0,0,0-1.628-1.214,1.771,1.771,0,0,1-1.073,1.66,2.306,2.306,0,0,0-.11.347,9.489,9.489,0,0,0,.39,3.638c-1.652-1.551-3.051-1.32-4.2-4.017a8.169,8.169,0,0,1-3.233,3.285c.39-.234.48-.7.15-1.653s-.794,0-1.79,0A4.889,4.889,0,0,0,3.3,17.157a3.254,3.254,0,0,1-2.775,0c1.432-.64,2.625-1.579,2.775-2.622-.684.428-2.6.877-3.3.479.536-.091,1.536-1.217,1.955-1.626.92-.9,1.01-1.857.719-4.13C2.4,7.136,2.115,5.809,3.3,3.685A7.735,7.735,0,0,1,6.54.59,5.007,5.007,0,0,1,8.883,0C11.3,0,12.92,1.982,13.6,4.3,13.4,3.739,13.114,3.739,12.672,3.685Z" fill="#1f40e6"/>
            <rect id="Rectangle_Copy" data-name="Rectangle Copy" width="2.625" height="3.562" rx="1.312" transform="translate(5.427 5.636)" fill="#1f40e6"/>
            <rect id="Rectangle" width="2.25" height="3.187" rx="1.125" transform="translate(5.802 6.011)" fill="#00a9f4"/>
            <path id="Path_12" data-name="Path 12" d="M.584,3.738C.773,1.715,4.063-1.023,6.8,1.684,6.209-.68.584-1.023,0,3.738Z" transform="translate(6.528 1.899)" fill="#d8d8d8"/>
          </g>
          <g id="Character_Legs_Standing_Pants" data-name="Character/Legs/Standing/Pants" transform="translate(0 33.737)" clip-path="url(#clip-path-4)">
            <path id="Skirt_Bottom" data-name="Skirt Bottom" d="M0,2.55s3.1,4.729,7.4,3.9c5.842-1.123,7.932.595,12.11.595,3.988,0,8.756-5.483,8.756-5.483S17.2,0,12.269,0,0,2.55,0,2.55Z" transform="translate(2.121 23.342)" fill="#051c2c"/>
            <path id="Skin" d="M19.563,22.5c-1.96-4.8-4.336-9.748-6.227-13.509-.8,3.538-1.555,7.12-1.86,9.2-.16,1.087-1.135,3.413-1.462,5.176C6.662,28.178,5.879,28.791,2.2,34.506a2.541,2.541,0,0,1-1.1-.3A2.538,2.538,0,0,0,0,33.9c.012-.207,3.191-6.637,5.659-12.34.151-3.32-.2-5.5,0-8.047C5.867,10.912,6.827,4,6.827,0H17.762l7.1,22.5L23.141,37.592a6.618,6.618,0,0,1-2.109.282S20.207,31.512,19.563,22.5Z" transform="translate(2.259 0.012)" fill="#d0d0d0"/>
            <path id="Skirt" d="M6.468.02C3.73,5.26,2.585,9.687,2.585,13.332S2.1,17.312,1.153,19.7A24.3,24.3,0,0,0,0,25.9s1.312-.473,7.459.66,7.069-1.645,11.033-1.645h9.774a25.979,25.979,0,0,1-3.637-7.642c-.93-3.854-2.049-5.493-3.414-9.754S18.491.02,18.491.02,10.473-.007,6.468.02Z" transform="translate(2.121 -0.008)" fill="#1f40e6"/>
            <path id="Path_3" data-name="Path 3" d="M6.126,16.569s-1.163-4.909-2.91-6.68S.11,2.385.479,0c-.9,1.388-.5,6.255.989,8.792.74,1.257,1.6,2,2.219,2.981a9.881,9.881,0,0,1,1.657,5.108Z" transform="translate(11.235 9.012)" fill="rgba(0,0,0,0.2)"/>
            <g id="Shoe_Copy" data-name="Shoe Copy" transform="matrix(0.891, 0.454, -0.454, 0.891, 1.916, 33.16)" clip-path="url(#clip-path-5)">
              <path id="Skin-2" data-name="Skin" d="M16.438,4.1A146.632,146.632,0,0,0,31.09,8.863C38.965,11,42.46,13.281,52.709,14.843c4.543,1.1,5.206,5.665,2.461,6.67s-9.4.99-14.888.99H1.08Q-.582,21,.314,15.94C.387,15.9,1.3,8.828,2.624,5.666l.445-1.939L3.451,1.5,14.887,0Z" transform="translate(0.396)" fill="#e6e6e6"/>
              <path id="Sandal" d="M53.106,12.837c4.543,1.1,5.206,5.665,2.461,6.67s-9.4.99-14.888.99H1.08Q-.053,19.476,0,16.8H14C11.181,11.073,6.266,7.326,2.123,4.977,2.3,4.394,3.02,0,3.02,0,13.132,7.25,19.159,13,19.694,16.8c3.278-.028,6.386-.028,11.752,0,2.22-3.959,2.22-7.058,2.5-9.591C33.948,7.206,44.528,11.53,53.106,12.837Z" transform="translate(0 2.009)" fill="#4d4d4d"/>
            </g>
            <g id="Shoe" transform="translate(22.554 37.604)" clip-path="url(#clip-path-6)">
              <path id="Skin-3" data-name="Skin" d="M3.082.768a27.493,27.493,0,0,0,2.747.893A26.5,26.5,0,0,0,9.883,2.783c.852.206.976,1.062.461,1.251a11.573,11.573,0,0,1-2.791.186H.2q-.312-.281-.144-1.23A12.354,12.354,0,0,1,.492,1.062L.575.7.647.282,2.791,0Z" transform="translate(0.074)" fill="#e6e6e6"/>
              <path id="Sandal-2" data-name="Sandal" d="M9.957,2.407c.852.206.976,1.062.461,1.251a11.573,11.573,0,0,1-2.791.186H.2A.884.884,0,0,1,0,3.149H2.624A5.366,5.366,0,0,0,.4.933C.43.824.566,0,.566,0c1.9,1.359,3.026,2.437,3.126,3.149.615-.005,1.2-.005,2.2,0a4.025,4.025,0,0,0,.469-1.8A19.212,19.212,0,0,0,9.957,2.407Z" transform="translate(0 0.377)" fill="#4d4d4d"/>
            </g>
          </g>
          <g id="Character_Body_Standing_2_Shirts_Long_Sleeve" data-name="Character/Body/Standing/2 Shirts Long Sleeve" transform="translate(4.064 13.881)" clip-path="url(#clip-path-7)">
            <path id="Arms" d="M.7,29.275C.3,29.23-.1,28.22.024,26.369c.072-.88.558-2.351.673-3.244a56.723,56.723,0,0,0,.678-6.589,22.252,22.252,0,0,1,.874-5.975L4.137,10S2.674,22.79,2.5,23.543a5.035,5.035,0,0,0,.383,3.441c-.4.105-.717-.2-.967-.5-.428-.517-.655-1.035-.737.5-.012.908.279,2.292-.473,2.291ZM20.982,5.083q.334-1.111.631-2.228A31.8,31.8,0,0,0,33,2.221c1.477-1.007,2.059-2.5,2.308-2.175.235.406-.533,1.633-.533,1.633a.7.7,0,0,0,.14.221A21.561,21.561,0,0,0,37.8,1.124c1.157-.272.874.448.6.742-1.155.872-2.4,1.22-4.628,1.947a29.982,29.982,0,0,1-9.3,1.46A32.379,32.379,0,0,1,20.982,5.083Z" transform="translate(0 0.244)" fill="#d0d0d0"/>
            <path id="Combined_Shape" data-name="Combined Shape" d="M2.851,24.26A5.755,5.755,0,0,1,0,23.079l2.305-19.2A4.9,4.9,0,0,1,3.78,1.153,12.885,12.885,0,0,1,5.7.518,3.812,3.812,0,0,1,6.187.326c.179-.058.36-.108.542-.159A3.86,3.86,0,0,1,7.546,0c.561,1.367,1.184,2.881,2.861,2.881a1.92,1.92,0,0,0,1.9-1.929,4.772,4.772,0,0,0,.088-.863s1.216.327,1.552.444a4.668,4.668,0,0,1,1.09.524,1.915,1.915,0,0,1,.169.144c1.012.459,6.46,2.615,16.629,1.147v5.6s-6.184-.972-10-2.02c-1.6-.441-3.63-.561-5.5-.945-.023.616-.08,1.228-.108,1.756,0,0,.011.706.013,1.021q.008,1.065-.013,1.741c.476,8.191.778,9.777.69,11.465a23.785,23.785,0,0,1-10.536.576L6.8,24.26a13.361,13.361,0,0,1-2.05.152A11.218,11.218,0,0,1,2.851,24.26Z" transform="translate(0.024)" fill="#00a9f4"/>
            <path id="Combined_Shape-2" data-name="Combined Shape" d="M5.719,0A12.994,12.994,0,0,0,3.781.64,4.9,4.9,0,0,0,2.305,3.365L0,22.567a5.755,5.755,0,0,0,2.851,1.181,13.16,13.16,0,0,0,3.948,0L5.165,13.079l-.478-6.6Z" transform="translate(0.024 0.513)" fill="rgba(0,0,0,0.2)"/>
          </g>
        </g>
        <rect id="Rectangle-2" data-name="Rectangle" width="82.873" height="25.499" transform="translate(-6.377 56.061)" fill="#7f7f7f"/>
        <g id="Objects_Laptop" data-name="Objects/Laptop" transform="translate(62.246 61.124) rotate(180)">
          <rect id="Objects_Laptop_background" data-name="Objects/Laptop background" width="15" height="10.125" transform="translate(15 10.125) rotate(-180)" fill="rgba(0,0,0,0)"/>
          <g id="Laptop" transform="translate(0.631 0.437)">
            <path id="Fill_57" data-name="Fill 57" d="M3.333,0l6.823.233L7.435,9.073,0,9.187.52,7.78Z" transform="translate(10.155 9.241) rotate(-180)" fill="#051c2c"/>
            <path id="Fill_59" data-name="Fill 59" d="M.123.27,11.374,0l-.4,1.307L0,1.475Z" transform="translate(13.692 1.475) rotate(-180)" fill="#1f40e6"/>
            <path id="Oval" d="M.532,0C.239,0,0,.373,0,.833s.236.832.529.831.531-.373.532-.833S.825,0,.532,0Z" transform="translate(4.942 5.912) rotate(-166)" fill="#fff"/>
          </g>
        </g>
        <g id="Objects_Microphone" data-name="Objects/Microphone" transform="translate(9.747 49.419)" clip-path="url(#clip-path-8)">
          <path id="Fill_1" data-name="Fill 1" d="M0,2.25H8.389V0H0Z" transform="translate(0 13.359)" fill="#051c2c"/>
          <path id="Fill_4" data-name="Fill 4" d="M5.542,3.948,2.736,4.976a2.036,2.036,0,0,1-1.4-3.824L4.142.125a2.036,2.036,0,0,1,1.4,3.824" transform="translate(8.264 0)" fill="#d0d0d0"/>
          <path id="Combined_Shape-3" data-name="Combined Shape" d="M.905,3.5l.447-.164.494,1.35L1.4,4.851Zm1.179-.432L2.532,2.9l.494,1.35-.448.164Zm1.179-.432.447-.164.495,1.35-.448.164ZM0,1.027.447.863l.494,1.35-.448.164ZM1.179.6,1.627.432l.494,1.35-.448.164ZM2.358.164,2.806,0,3.3,1.35l-.448.164Z" transform="translate(9.6 0.125)" fill="#051c2c"/>
        </g>
      </g>
    </g>
    <g id="Group_4496" data-name="Group 4496" transform="translate(52.768 15.131)">
      <g id="Outline_Icons_1_" transform="translate(0 0)">
        <g id="Group_2158" data-name="Group 2158">
          <path id="Path_18592" data-name="Path 18592" d="M14.634,6.9c0,4.719-6.067,9.1-6.067,9.1S2.5,11.623,2.5,6.9A6.122,6.122,0,0,1,8.567.5,6.122,6.122,0,0,1,14.634,6.9Z" transform="translate(-2.5 -0.5)" fill="#1f40e6"/>
          <path id="Path_19715" data-name="Path 19715" d="M3.371,0A3.371,3.371,0,1,1,0,3.371,3.371,3.371,0,0,1,3.371,0Z" transform="translate(2.696 2.696)" fill="#fff" stroke="#fff" stroke-linecap="round" stroke-width="1"/>
        </g>
      </g>
    </g>
  </g>
</svg>
