<?xml version="1.0" encoding="UTF-8"?><svg xmlns="http://www.w3.org/2000/svg" viewBox="0 0 1291.341 1413.22"><defs><style>.cls-1{opacity:.05;}.cls-1,.cls-2,.cls-3,.cls-4,.cls-5,.cls-6{isolation:isolate;}.cls-1,.cls-2,.cls-3,.cls-4,.cls-5,.cls-7,.cls-8,.cls-9,.cls-10,.cls-11,.cls-12,.cls-13,.cls-14,.cls-15,.cls-16,.cls-17,.cls-18,.cls-19,.cls-20,.cls-21{stroke-width:0px;}.cls-1,.cls-4{fill:#040404;}.cls-22{stroke:#ebf1f1;stroke-width:12px;}.cls-22,.cls-23,.cls-24,.cls-25{fill:none;}.cls-22,.cls-23,.cls-24,.cls-25,.cls-26{stroke-miterlimit:10;}.cls-2{fill:#020202;opacity:.15;}.cls-3{fill:#030303;}.cls-3,.cls-4{opacity:.1;}.cls-23{stroke:#fff;stroke-width:6px;}.cls-24{stroke:#7e8d92;stroke-linecap:round;}.cls-25{stroke:#dadcdb;stroke-width:.175px;}.cls-5{fill:#575757;opacity:.74;}.cls-26{stroke:#7e8c91;stroke-width:.359px;}.cls-26,.cls-18{fill:#7e8c91;}.cls-7{fill:#f7f9fa;}.cls-8{fill:#777e80;}.cls-9{fill:#5893ad;}.cls-10{fill:#9ac9cc;}.cls-11{fill:#5a6068;}.cls-12{fill:#5a6067;}.cls-13{fill:#b4dde2;}.cls-14{fill:#b8bec0;}.cls-15{fill:#9eb6bd;}.cls-16{fill:#9eacb6;}.cls-17{fill:#9eacb5;}.cls-19{fill:#656b6d;}.cls-20{fill:#fff;}.cls-21{fill:#ebf1f1;}</style></defs><g id="Shadow"><polygon class="cls-9" points="176.494 153.2 1087.227 153.2 1087.227 189.341 1115.066 189.341 1115.066 1170.5 1098.372 1208.068 697.804 1208.068 697.804 1222.097 681.11 1260.021 136.605 1260.021 115.282 1222.097 115.282 717.904 201.77 717.904 201.77 525.905 195.504 525.905 174.412 488.523 176.494 153.2"/></g><g id="BG"><polygon class="cls-13" points="181.44 108.771 1087.227 108.771 1087.227 144.912 1109.815 144.912 1109.815 1163.64 691.933 1163.64 691.933 1215.593 120.452 1215.593 120.452 673.476 201.77 673.476 201.77 481.476 179.126 481.476 181.44 108.771"/></g><g id="Hihglights"><polygon class="cls-10" points="1109.815 841.863 728.921 841.863 728.921 575.076 533.251 575.076 533.251 675.614 398.036 675.614 398.036 814.715 279.134 814.715 279.134 962.866 595.259 962.866 595.259 1215.593 691.933 1215.593 691.933 1163.64 1103.497 1163.64 1109.815 841.863"/><rect class="cls-10" x="120.452" y="1046.637" width="355.535" height="168.955"/><rect class="cls-15" x="279.134" y="670.538" width="118.902" height="144.177"/><rect class="cls-15" x="120.452" y="676.566" width="81.317" height="369.973"/><rect class="cls-15" x="279.134" y="575.076" width="95.717" height="98.4"/><rect class="cls-15" x="179.568" y="108.771" width="128.366" height="283.814"/><polygon class="cls-15" points="442.65 817.193 442.65 966.25 279.134 966.25 279.134 814.715 442.65 817.193"/></g><g id="Furn"><path class="cls-2" d="M404.739,259.888l-.285,6.121c-.142,4.698-3.986,8.399-8.683,8.256h-.427l-6.121-.569c-6.121-.569-10.819-5.836-10.534-11.958h0c.142-6.121,5.125-10.961,11.246-11.104h6.121c4.698,0,8.541,3.559,8.968,8.256l-.285.996Z"/><path class="cls-11" d="M403.6,259.888l-.285,6.121c-.142,4.698-3.986,8.399-8.683,8.256h-.427l-6.121-.569c-6.121-.569-10.819-5.836-10.534-11.958h0c.142-6.121,5.125-10.961,11.246-11.104h6.121c4.698,0,8.541,3.559,8.968,8.256l-.285.996Z"/><path class="cls-16" d="M402.461,259.888l-.285,6.121c-.142,4.698-3.986,8.399-8.683,8.256h-.569l-6.121-.569c-6.121-.569-10.819-5.836-10.534-11.958h0c.142-6.121,5.125-10.961,11.246-11.104h6.121c4.698,0,8.541,3.559,8.968,8.256l-.142.996Z"/><path class="cls-24" d="M394.205,274.693l-7.687-.854c-6.121-.569-10.819-5.836-10.534-11.958h0c.142-6.121,5.125-10.961,11.246-11.104l7.687-.285"/><path class="cls-1" d="M435.06,224.727l.427,73.881c.142,1.566-.996,2.989-2.562,3.132h-33.168c-1.566-.142-2.847-1.566-2.705-3.132h0l-.427-73.881c-.142-1.566.996-2.989,2.562-3.132h33.026c1.566,0,2.847,1.424,2.847,3.132h0Z"/><path class="cls-14" d="M436.626,224.727l.427,73.881c.142,1.566-.996,2.989-2.562,3.132h-33.168c-1.566-.142-2.847-1.566-2.705-3.132h0l-.427-73.881c-.142-1.566.996-2.989,2.562-3.132h33.168c1.566,0,2.705,1.281,2.705,2.847v.285Z"/><g id="tables-17-3-23-4"><path class="cls-20" d="M437.623,260.031v-35.588c.142-1.566-.996-2.989-2.562-3.132h-17.652v38.862l20.214-.142Z"/><path class="cls-20" d="M417.408,301.74h17.509c1.566-.142,2.847-1.566,2.705-3.132v-38.435h-20.072l-.142,41.567Z"/><path class="cls-20" d="M417.408,260.031h-17.936v38.435c-.142,1.566.996,2.989,2.562,3.132h15.659l-.285-41.567Z"/><path class="cls-20" d="M417.408,221.168h-15.516c-1.566.142-2.847,1.566-2.705,3.132v35.588h18.079v-38.72h.142Z"/></g><line class="cls-25" x1="437.623" y1="260.031" x2="399.472" y2="260.031"/><line class="cls-25" x1="417.408" y1="221.168" x2="417.408" y2="301.74"/><path class="cls-2" d="M404.739,338.819l-.285,6.121c-.142,4.698-3.986,8.399-8.683,8.256h-.427l-6.121-.569c-6.121-.569-10.819-5.836-10.534-11.958h0c.142-6.121,5.125-10.961,11.246-11.104h6.121c4.698,0,8.541,3.559,8.968,8.256l-.285.996Z"/><path class="cls-11" d="M403.6,338.819l-.285,6.121c-.142,4.698-3.986,8.399-8.683,8.256h-.427l-6.121-.569c-6.121-.569-10.819-5.836-10.534-11.958h0c.142-6.121,5.125-10.961,11.246-11.104h6.121c4.698,0,8.541,3.559,8.968,8.256l-.285.996Z"/><path class="cls-16" d="M402.461,338.819l-.285,6.121c-.142,4.698-3.986,8.399-8.683,8.256h-.569l-6.121-.569c-6.121-.569-10.819-5.836-10.534-11.958h0c.142-6.121,5.125-10.961,11.246-11.104h6.121c4.698,0,8.541,3.559,8.968,8.256l-.142.996Z"/><path class="cls-24" d="M394.205,353.624l-7.687-.854c-6.121-.569-10.819-5.836-10.534-11.958h0c.142-6.121,5.125-10.961,11.246-11.104l7.687-.285"/><path class="cls-1" d="M435.06,303.658l.427,73.881c.142,1.566-.996,2.989-2.562,3.132h-33.168c-1.566-.142-2.847-1.566-2.705-3.132h0l-.427-73.881c-.142-1.566.996-2.989,2.562-3.132h33.026c1.566,0,2.847,1.424,2.847,3.132h0Z"/><path class="cls-14" d="M436.626,303.658l.427,73.881c.142,1.566-.996,2.989-2.562,3.132h-33.168c-1.566-.142-2.847-1.566-2.705-3.132h0l-.427-73.881c-.142-1.566.996-2.989,2.562-3.132h33.168c1.566,0,2.705,1.281,2.705,2.847v.285Z"/><g id="tables-17-3-23-4-2"><path class="cls-20" d="M437.623,338.961v-35.588c.142-1.566-.996-2.989-2.562-3.132h-17.652v38.862l20.214-.142Z"/><path class="cls-20" d="M417.408,380.671h17.509c1.566-.142,2.847-1.566,2.705-3.132v-38.435h-20.072l-.142,41.567Z"/><path class="cls-20" d="M417.408,338.961h-17.936v38.435c-.142,1.566.996,2.989,2.562,3.132h15.659l-.285-41.567Z"/><path class="cls-20" d="M417.408,300.099h-15.516c-1.566.142-2.847,1.566-2.705,3.132v35.588h18.079v-38.72h.142Z"/></g><line class="cls-25" x1="437.623" y1="338.961" x2="399.472" y2="338.961"/><line class="cls-25" x1="417.408" y1="300.099" x2="417.408" y2="380.671"/><path class="cls-2" d="M404.454,179.601l-.285,6.121c-.142,4.698-3.986,8.399-8.683,8.256h-.569l-6.121-.569c-6.121-.569-10.819-5.836-10.534-11.958h0c.142-6.121,5.125-10.961,11.246-11.104h6.121c4.698,0,8.541,3.559,8.968,8.256l-.142.996Z"/><path class="cls-11" d="M403.316,179.601l-.285,6.121c-.142,4.698-3.986,8.399-8.683,8.256h-.427l-6.121-.569c-6.121-.569-10.819-5.836-10.534-11.958h0c.142-6.121,5.125-10.961,11.246-11.104h6.121c4.698,0,8.541,3.559,8.968,8.256l-.285.996Z"/><path class="cls-16" d="M402.177,179.601l-.285,6.121c-.142,4.698-3.986,8.399-8.683,8.256h-.427l-6.121-.569c-6.121-.569-10.819-5.836-10.534-11.958h0c.142-6.121,5.125-10.961,11.246-11.104h6.121c4.698,0,8.541,3.559,8.968,8.256l-.285.996Z"/><path class="cls-24" d="M393.778,194.406l-7.687-.854c-6.121-.569-10.819-5.836-10.534-11.958h0c.142-6.121,5.125-10.961,11.246-11.104l7.687-.285"/><path class="cls-1" d="M434.633,144.298l.427,73.881c.142,1.566-.996,2.989-2.562,3.132h-33.168c-1.566-.142-2.847-1.566-2.705-3.132h0l-.427-73.881c-.142-1.566.996-2.989,2.562-3.132h33.168c1.566.142,2.705,1.424,2.705,3.132q.142-.142,0,0Z"/><path class="cls-14" d="M436.341,144.298l.569,73.881c.142,1.566-.996,2.989-2.562,3.132h-33.168c-1.566-.142-2.847-1.566-2.705-3.132h0l-.427-73.881c-.142-1.566.996-2.989,2.562-3.132h33.168c1.566.142,2.705,1.424,2.562,3.132h0Z"/><g id="tables-17-3-25-4"><path class="cls-20" d="M437.48,179.744v-35.588c.142-1.566-.996-2.989-2.562-3.132h-17.652v38.862l20.214-.142h0Z"/><path class="cls-20" d="M417.124,221.453h17.509c1.566-.142,2.847-1.566,2.705-3.132v-38.435h-20.072v41.567h-.142Z"/><path class="cls-20" d="M417.124,179.744h-17.936v38.435c-.142,1.566.996,2.989,2.562,3.132h15.659l-.285-41.567Z"/><path class="cls-20" d="M417.124,140.882h-15.516c-1.566.142-2.847,1.566-2.705,3.132v35.588h18.079l.142-38.72Z"/></g><line class="cls-25" x1="437.48" y1="179.744" x2="399.187" y2="179.744"/><line class="cls-25" x1="417.124" y1="140.882" x2="417.124" y2="221.453"/><path class="cls-2" d="M470.245,258.892c.427-4.698,4.271-8.256,8.968-8.256h6.121c6.121.142,11.104,4.982,11.246,11.104h0c.285,6.121-4.413,11.388-10.534,11.958l-6.121.569h-.427c-4.698.142-8.541-3.559-8.683-8.256l-.285-6.121-.285-.996Z"/><path class="cls-11" d="M471.384,258.892c.427-4.698,4.271-8.256,8.968-8.256h6.121c6.121.142,11.104,4.982,11.246,11.104h0c.285,6.121-4.413,11.388-10.534,11.958l-6.121.569h-.427c-4.698.142-8.541-3.559-8.683-8.256l-.285-6.121-.285-.996Z"/><path class="cls-16" d="M472.665,258.892c.427-4.698,4.271-8.256,8.968-8.256h6.121c6.121.142,11.104,4.982,11.246,11.104h0c.285,6.121-4.413,11.388-10.534,11.958l-6.121.569h-.569c-4.698.142-8.541-3.559-8.683-8.256l-.285-6.121-.142-.996Z"/><path class="cls-24" d="M480.352,250.493l7.687.285c6.121.142,11.104,4.982,11.246,11.104h0c.285,6.121-4.413,11.388-10.534,11.958l-7.687.854"/><path class="cls-1" d="M440.209,224.727h0c0-1.708,1.281-3.132,2.847-3.132h33.026c1.566.142,2.705,1.566,2.562,3.132l-.427,73.881h0c.142,1.566-1.139,2.989-2.705,3.132h-33.168c-1.566-.142-2.705-1.566-2.562-3.132l.427-73.881h0Z"/><path class="cls-14" d="M438.643,224.443c0-1.566,1.139-2.847,2.705-2.847h33.168c1.566.142,2.705,1.566,2.562,3.132l-.427,73.881h0c.142,1.566-1.139,2.989-2.705,3.132h-33.168c-1.566-.142-2.705-1.566-2.562-3.132l.427-73.881v-.285Z"/><g id="tables-17-3-23-4-3"><path class="cls-20" d="M457.861,260.173v-38.862s-17.652,0-17.652,0c-1.566.142-2.705,1.566-2.562,3.132v35.588s20.214.142,20.214.142Z"/><path class="cls-20" d="M457.718,260.173h-20.072s0,38.435,0,38.435c-.142,1.566,1.139,2.989,2.705,3.132h17.509s-.142-41.567-.142-41.567Z"/><path class="cls-20" d="M457.576,301.598h15.659c1.566-.142,2.705-1.566,2.562-3.132v-38.435s-17.936,0-17.936,0l-.285,41.567Z"/><path class="cls-20" d="M458.003,221.168v38.72s18.079,0,18.079,0v-35.588c.142-1.566-1.139-2.989-2.705-3.132h-15.516s.142,0,.142,0Z"/></g><line class="cls-25" x1="475.797" y1="260.031" x2="437.647" y2="260.031"/><line class="cls-25" x1="457.861" y1="301.74" x2="457.861" y2="221.168"/><path class="cls-2" d="M470.245,337.822c.427-4.698,4.271-8.256,8.968-8.256h6.121c6.121.142,11.104,4.982,11.246,11.104h0c.285,6.121-4.413,11.388-10.534,11.958l-6.121.569h-.427c-4.698.142-8.541-3.559-8.683-8.256l-.285-6.121-.285-.996Z"/><path class="cls-11" d="M471.384,337.822c.427-4.698,4.271-8.256,8.968-8.256h6.121c6.121.142,11.104,4.982,11.246,11.104h0c.285,6.121-4.413,11.388-10.534,11.958l-6.121.569h-.427c-4.698.142-8.541-3.559-8.683-8.256l-.285-6.121-.285-.996Z"/><path class="cls-16" d="M472.665,337.822c.427-4.698,4.271-8.256,8.968-8.256h6.121c6.121.142,11.104,4.982,11.246,11.104h0c.285,6.121-4.413,11.388-10.534,11.958l-6.121.569h-.569c-4.698.142-8.541-3.559-8.683-8.256l-.285-6.121-.142-.996Z"/><path class="cls-24" d="M480.352,329.424l7.687.285c6.121.142,11.104,4.982,11.246,11.104h0c.285,6.121-4.413,11.388-10.534,11.958l-7.687.854"/><path class="cls-1" d="M440.209,303.658h0c0-1.708,1.281-3.132,2.847-3.132h33.026c1.566.142,2.705,1.566,2.562,3.132l-.427,73.881h0c.142,1.566-1.139,2.989-2.705,3.132h-33.168c-1.566-.142-2.705-1.566-2.562-3.132l.427-73.881h0Z"/><path class="cls-14" d="M438.643,303.373c0-1.566,1.139-2.847,2.705-2.847h33.168c1.566.142,2.705,1.566,2.562,3.132l-.427,73.881h0c.142,1.566-1.139,2.989-2.705,3.132h-33.168c-1.566-.142-2.705-1.566-2.562-3.132l.427-73.881v-.285Z"/><g id="tables-17-3-23-4-4"><path class="cls-20" d="M457.861,339.104v-38.862s-17.652,0-17.652,0c-1.566.142-2.705,1.566-2.562,3.132v35.588s20.214.142,20.214.142Z"/><path class="cls-20" d="M457.718,339.104h-20.072s0,38.435,0,38.435c-.142,1.566,1.139,2.989,2.705,3.132h17.509s-.142-41.567-.142-41.567Z"/><path class="cls-20" d="M457.576,380.528h15.659c1.566-.142,2.705-1.566,2.562-3.132v-38.435s-17.936,0-17.936,0l-.285,41.567Z"/><path class="cls-20" d="M458.003,300.099v38.72s18.079,0,18.079,0v-35.588c.142-1.566-1.139-2.989-2.705-3.132h-15.516s.142,0,.142,0Z"/></g><line class="cls-25" x1="475.797" y1="338.961" x2="437.647" y2="338.961"/><line class="cls-25" x1="457.861" y1="380.671" x2="457.861" y2="300.099"/><path class="cls-2" d="M470.672,178.605c.427-4.698,4.271-8.256,8.968-8.256h6.121c6.121.142,11.104,4.982,11.246,11.104h0c.285,6.121-4.413,11.388-10.534,11.958l-6.121.569h-.569c-4.698.142-8.541-3.559-8.683-8.256l-.285-6.121-.142-.996Z"/><path class="cls-11" d="M471.669,178.605c.427-4.698,4.271-8.256,8.968-8.256h6.121c6.121.142,11.104,4.982,11.246,11.104h0c.285,6.121-4.413,11.388-10.534,11.958l-6.121.569h-.427c-4.698.142-8.541-3.559-8.683-8.256l-.285-6.121-.285-.996Z"/><path class="cls-16" d="M472.808,178.605c.427-4.698,4.271-8.256,8.968-8.256h6.121c6.121.142,11.104,4.982,11.246,11.104h0c.285,6.121-4.413,11.388-10.534,11.958l-6.121.569h-.427c-4.698.142-8.541-3.559-8.683-8.256l-.285-6.121-.285-.996Z"/><path class="cls-24" d="M480.779,170.206l7.687.285c6.121.142,11.104,4.982,11.246,11.104h0c.285,6.121-4.413,11.388-10.534,11.958l-7.687.854"/><path class="cls-1" d="M440.636,144.298c0-1.708,1.139-2.989,2.705-3.132h33.168c1.566.142,2.705,1.566,2.562,3.132l-.427,73.881h0c.142,1.566-1.139,2.989-2.705,3.132h-33.168c-1.566-.142-2.705-1.566-2.562-3.132l.427-73.881q-.142-.142,0,0Z"/><path class="cls-14" d="M438.928,144.298c-.142-1.708.996-2.989,2.562-3.132h33.168c1.566.142,2.705,1.566,2.562,3.132l-.427,73.881h0c.142,1.566-1.139,2.989-2.705,3.132h-33.168c-1.566-.142-2.705-1.566-2.562-3.132l.569-73.881h0Z"/><g id="tables-17-3-25-4-2"><path class="cls-20" d="M437.789,179.744l20.214.142v-38.862s-17.652,0-17.652,0c-1.566.142-2.705,1.566-2.562,3.132v35.588h0Z"/><path class="cls-20" d="M458.003,221.453v-41.567s-20.072,0-20.072,0v38.435c-.142,1.566,1.139,2.989,2.705,3.132h17.509s-.142,0-.142,0Z"/><path class="cls-20" d="M457.861,221.311h15.659c1.566-.142,2.705-1.566,2.562-3.132v-38.435s-17.936,0-17.936,0l-.285,41.567Z"/><path class="cls-20" d="M458.288,179.601h18.079s0-35.588,0-35.588c.142-1.566-1.139-2.989-2.705-3.132h-15.516s.142,38.72.142,38.72Z"/></g><line class="cls-25" x1="476.082" y1="179.744" x2="437.789" y2="179.744"/><line class="cls-25" x1="458.145" y1="221.453" x2="458.145" y2="140.882"/><path class="cls-2" d="M660.911,259.888l-.285,6.121c-.142,4.698-3.986,8.399-8.683,8.256h-.427l-6.121-.569c-6.121-.569-10.819-5.836-10.534-11.958h0c.142-6.121,5.125-10.961,11.246-11.104h6.121c4.698,0,8.541,3.559,8.968,8.256l-.285.996Z"/><path class="cls-11" d="M659.773,259.888l-.285,6.121c-.142,4.698-3.986,8.399-8.683,8.256h-.427l-6.121-.569c-6.121-.569-10.819-5.836-10.534-11.958h0c.142-6.121,5.125-10.961,11.246-11.104h6.121c4.698,0,8.541,3.559,8.968,8.256l-.285.996Z"/><path class="cls-16" d="M658.634,259.888l-.285,6.121c-.142,4.698-3.986,8.399-8.683,8.256h-.569l-6.121-.569c-6.121-.569-10.819-5.836-10.534-11.958h0c.142-6.121,5.125-10.961,11.246-11.104h6.121c4.698,0,8.541,3.559,8.968,8.256l-.142.996Z"/><path class="cls-24" d="M650.377,274.693l-7.687-.854c-6.121-.569-10.819-5.836-10.534-11.958h0c.142-6.121,5.125-10.961,11.246-11.104l7.687-.285"/><path class="cls-1" d="M691.233,224.727l.427,73.881c.142,1.566-.996,2.989-2.562,3.132h-33.168c-1.566-.142-2.847-1.566-2.705-3.132h0l-.427-73.881c-.142-1.566.996-2.989,2.562-3.132h33.026c1.566,0,2.847,1.424,2.847,3.132h0Z"/><path class="cls-14" d="M692.799,224.727l.427,73.881c.142,1.566-.996,2.989-2.562,3.132h-33.168c-1.566-.142-2.847-1.566-2.705-3.132h0l-.427-73.881c-.142-1.566.996-2.989,2.562-3.132h33.168c1.566,0,2.705,1.281,2.705,2.847v.285Z"/><g id="tables-17-3-23-4-5"><path class="cls-20" d="M693.795,260.031v-35.588c.142-1.566-.996-2.989-2.562-3.132h-17.652v38.862l20.214-.142Z"/><path class="cls-20" d="M673.581,301.74h17.509c1.566-.142,2.847-1.566,2.705-3.132v-38.435h-20.072l-.142,41.567Z"/><path class="cls-20" d="M673.581,260.031h-17.936v38.435c-.142,1.566.996,2.989,2.562,3.132h15.659l-.285-41.567Z"/><path class="cls-20" d="M673.581,221.168h-15.516c-1.566.142-2.847,1.566-2.705,3.132v35.588h18.079v-38.72h.142Z"/></g><line class="cls-25" x1="693.795" y1="260.031" x2="655.645" y2="260.031"/><line class="cls-25" x1="673.581" y1="221.168" x2="673.581" y2="301.74"/><path class="cls-2" d="M660.911,338.819l-.285,6.121c-.142,4.698-3.986,8.399-8.683,8.256h-.427l-6.121-.569c-6.121-.569-10.819-5.836-10.534-11.958h0c.142-6.121,5.125-10.961,11.246-11.104h6.121c4.698,0,8.541,3.559,8.968,8.256l-.285.996Z"/><path class="cls-11" d="M659.773,338.819l-.285,6.121c-.142,4.698-3.986,8.399-8.683,8.256h-.427l-6.121-.569c-6.121-.569-10.819-5.836-10.534-11.958h0c.142-6.121,5.125-10.961,11.246-11.104h6.121c4.698,0,8.541,3.559,8.968,8.256l-.285.996Z"/><path class="cls-16" d="M658.634,338.819l-.285,6.121c-.142,4.698-3.986,8.399-8.683,8.256h-.569l-6.121-.569c-6.121-.569-10.819-5.836-10.534-11.958h0c.142-6.121,5.125-10.961,11.246-11.104h6.121c4.698,0,8.541,3.559,8.968,8.256l-.142.996Z"/><path class="cls-24" d="M650.377,353.624l-7.687-.854c-6.121-.569-10.819-5.836-10.534-11.958h0c.142-6.121,5.125-10.961,11.246-11.104l7.687-.285"/><path class="cls-1" d="M691.233,303.658l.427,73.881c.142,1.566-.996,2.989-2.562,3.132h-33.168c-1.566-.142-2.847-1.566-2.705-3.132h0l-.427-73.881c-.142-1.566.996-2.989,2.562-3.132h33.026c1.566,0,2.847,1.424,2.847,3.132h0Z"/><path class="cls-14" d="M692.799,303.658l.427,73.881c.142,1.566-.996,2.989-2.562,3.132h-33.168c-1.566-.142-2.847-1.566-2.705-3.132h0l-.427-73.881c-.142-1.566.996-2.989,2.562-3.132h33.168c1.566,0,2.705,1.281,2.705,2.847v.285Z"/><g id="tables-17-3-23-4-6"><path class="cls-20" d="M693.795,338.961v-35.588c.142-1.566-.996-2.989-2.562-3.132h-17.652v38.862l20.214-.142Z"/><path class="cls-20" d="M673.581,380.671h17.509c1.566-.142,2.847-1.566,2.705-3.132v-38.435h-20.072l-.142,41.567Z"/><path class="cls-20" d="M673.581,338.961h-17.936v38.435c-.142,1.566.996,2.989,2.562,3.132h15.659l-.285-41.567Z"/><path class="cls-20" d="M673.581,300.099h-15.516c-1.566.142-2.847,1.566-2.705,3.132v35.588h18.079v-38.72h.142Z"/></g><line class="cls-25" x1="693.795" y1="338.961" x2="655.645" y2="338.961"/><line class="cls-25" x1="673.581" y1="300.099" x2="673.581" y2="380.671"/><path class="cls-2" d="M660.627,179.601l-.285,6.121c-.142,4.698-3.986,8.399-8.683,8.256h-.569l-6.121-.569c-6.121-.569-10.819-5.836-10.534-11.958h0c.142-6.121,5.125-10.961,11.246-11.104h6.121c4.698,0,8.541,3.559,8.968,8.256l-.142.996Z"/><path class="cls-11" d="M659.488,179.601l-.285,6.121c-.142,4.698-3.986,8.399-8.683,8.256h-.427l-6.121-.569c-6.121-.569-10.819-5.836-10.534-11.958h0c.142-6.121,5.125-10.961,11.246-11.104h6.121c4.698,0,8.541,3.559,8.968,8.256l-.285.996Z"/><path class="cls-16" d="M658.349,179.601l-.285,6.121c-.142,4.698-3.986,8.399-8.683,8.256h-.427l-6.121-.569c-6.121-.569-10.819-5.836-10.534-11.958h0c.142-6.121,5.125-10.961,11.246-11.104h6.121c4.698,0,8.541,3.559,8.968,8.256l-.285.996Z"/><path class="cls-24" d="M649.95,194.406l-7.687-.854c-6.121-.569-10.819-5.836-10.534-11.958h0c.142-6.121,5.125-10.961,11.246-11.104l7.687-.285"/><path class="cls-1" d="M690.806,144.298l.427,73.881c.142,1.566-.996,2.989-2.562,3.132h-33.168c-1.566-.142-2.847-1.566-2.705-3.132h0l-.427-73.881c-.142-1.566.996-2.989,2.562-3.132h33.168c1.566.142,2.705,1.424,2.705,3.132q.142-.142,0,0Z"/><path class="cls-14" d="M692.514,144.298l.569,73.881c.142,1.566-.996,2.989-2.562,3.132h-33.168c-1.566-.142-2.847-1.566-2.705-3.132h0l-.427-73.881c-.142-1.566.996-2.989,2.562-3.132h33.168c1.566.142,2.705,1.424,2.562,3.132h0Z"/><g id="tables-17-3-25-4-3"><path class="cls-20" d="M693.653,179.744v-35.588c.142-1.566-.996-2.989-2.562-3.132h-17.652v38.862l20.214-.142h0Z"/><path class="cls-20" d="M673.296,221.453h17.509c1.566-.142,2.847-1.566,2.705-3.132v-38.435h-20.072v41.567h-.142Z"/><path class="cls-20" d="M673.296,179.744h-17.936v38.435c-.142,1.566.996,2.989,2.562,3.132h15.659l-.285-41.567Z"/><path class="cls-20" d="M673.296,140.882h-15.516c-1.566.142-2.847,1.566-2.705,3.132v35.588h18.079l.142-38.72Z"/></g><line class="cls-25" x1="693.653" y1="179.744" x2="655.36" y2="179.744"/><line class="cls-25" x1="673.296" y1="140.882" x2="673.296" y2="221.453"/><path class="cls-2" d="M726.418,258.892c.427-4.698,4.271-8.256,8.968-8.256h6.121c6.121.142,11.104,4.982,11.246,11.104h0c.285,6.121-4.413,11.388-10.534,11.958l-6.121.569h-.427c-4.698.142-8.541-3.559-8.683-8.256l-.285-6.121-.285-.996Z"/><path class="cls-11" d="M727.556,258.892c.427-4.698,4.271-8.256,8.968-8.256h6.121c6.121.142,11.104,4.982,11.246,11.104h0c.285,6.121-4.413,11.388-10.534,11.958l-6.121.569h-.427c-4.698.142-8.541-3.559-8.683-8.256l-.285-6.121-.285-.996Z"/><path class="cls-16" d="M728.837,258.892c.427-4.698,4.271-8.256,8.968-8.256h6.121c6.121.142,11.104,4.982,11.246,11.104h0c.285,6.121-4.413,11.388-10.534,11.958l-6.121.569h-.569c-4.698.142-8.541-3.559-8.683-8.256l-.285-6.121-.142-.996Z"/><path class="cls-24" d="M736.525,250.493l7.687.285c6.121.142,11.104,4.982,11.246,11.104h0c.285,6.121-4.413,11.388-10.534,11.958l-7.687.854"/><path class="cls-1" d="M696.381,224.727h0c0-1.708,1.281-3.132,2.847-3.132h33.026c1.566.142,2.705,1.566,2.562,3.132l-.427,73.881h0c.142,1.566-1.139,2.989-2.705,3.132h-33.168c-1.566-.142-2.705-1.566-2.562-3.132l.427-73.881h0Z"/><path class="cls-14" d="M694.815,224.443c0-1.566,1.139-2.847,2.705-2.847h33.168c1.566.142,2.705,1.566,2.562,3.132l-.427,73.881h0c.142,1.566-1.139,2.989-2.705,3.132h-33.168c-1.566-.142-2.705-1.566-2.562-3.132l.427-73.881v-.285Z"/><g id="tables-17-3-23-4-7"><path class="cls-20" d="M714.033,260.173v-38.862s-17.652,0-17.652,0c-1.566.142-2.705,1.566-2.562,3.132v35.588s20.214.142,20.214.142Z"/><path class="cls-20" d="M713.89,260.173h-20.072s0,38.435,0,38.435c-.142,1.566,1.139,2.989,2.705,3.132h17.509s-.142-41.567-.142-41.567Z"/><path class="cls-20" d="M713.748,301.598h15.659c1.566-.142,2.705-1.566,2.562-3.132v-38.435s-17.936,0-17.936,0l-.285,41.567Z"/><path class="cls-20" d="M714.175,221.168v38.72s18.079,0,18.079,0v-35.588c.142-1.566-1.139-2.989-2.705-3.132h-15.516s.142,0,.142,0Z"/></g><line class="cls-25" x1="731.969" y1="260.031" x2="693.819" y2="260.031"/><line class="cls-25" x1="714.033" y1="301.74" x2="714.033" y2="221.168"/><path class="cls-2" d="M726.418,337.822c.427-4.698,4.271-8.256,8.968-8.256h6.121c6.121.142,11.104,4.982,11.246,11.104h0c.285,6.121-4.413,11.388-10.534,11.958l-6.121.569h-.427c-4.698.142-8.541-3.559-8.683-8.256l-.285-6.121-.285-.996Z"/><path class="cls-11" d="M727.556,337.822c.427-4.698,4.271-8.256,8.968-8.256h6.121c6.121.142,11.104,4.982,11.246,11.104h0c.285,6.121-4.413,11.388-10.534,11.958l-6.121.569h-.427c-4.698.142-8.541-3.559-8.683-8.256l-.285-6.121-.285-.996Z"/><path class="cls-16" d="M728.837,337.822c.427-4.698,4.271-8.256,8.968-8.256h6.121c6.121.142,11.104,4.982,11.246,11.104h0c.285,6.121-4.413,11.388-10.534,11.958l-6.121.569h-.569c-4.698.142-8.541-3.559-8.683-8.256l-.285-6.121-.142-.996Z"/><path class="cls-24" d="M736.525,329.424l7.687.285c6.121.142,11.104,4.982,11.246,11.104h0c.285,6.121-4.413,11.388-10.534,11.958l-7.687.854"/><path class="cls-1" d="M696.381,303.658h0c0-1.708,1.281-3.132,2.847-3.132h33.026c1.566.142,2.705,1.566,2.562,3.132l-.427,73.881h0c.142,1.566-1.139,2.989-2.705,3.132h-33.168c-1.566-.142-2.705-1.566-2.562-3.132l.427-73.881h0Z"/><path class="cls-14" d="M694.815,303.373c0-1.566,1.139-2.847,2.705-2.847h33.168c1.566.142,2.705,1.566,2.562,3.132l-.427,73.881h0c.142,1.566-1.139,2.989-2.705,3.132h-33.168c-1.566-.142-2.705-1.566-2.562-3.132l.427-73.881v-.285Z"/><g id="tables-17-3-23-4-8"><path class="cls-20" d="M714.033,339.104v-38.862s-17.652,0-17.652,0c-1.566.142-2.705,1.566-2.562,3.132v35.588s20.214.142,20.214.142Z"/><path class="cls-20" d="M713.89,339.104h-20.072s0,38.435,0,38.435c-.142,1.566,1.139,2.989,2.705,3.132h17.509s-.142-41.567-.142-41.567Z"/><path class="cls-20" d="M713.748,380.528h15.659c1.566-.142,2.705-1.566,2.562-3.132v-38.435s-17.936,0-17.936,0l-.285,41.567Z"/><path class="cls-20" d="M714.175,300.099v38.72s18.079,0,18.079,0v-35.588c.142-1.566-1.139-2.989-2.705-3.132h-15.516s.142,0,.142,0Z"/></g><line class="cls-25" x1="731.969" y1="338.961" x2="693.819" y2="338.961"/><line class="cls-25" x1="714.033" y1="380.671" x2="714.033" y2="300.099"/><path class="cls-2" d="M726.845,178.605c.427-4.698,4.271-8.256,8.968-8.256h6.121c6.121.142,11.104,4.982,11.246,11.104h0c.285,6.121-4.413,11.388-10.534,11.958l-6.121.569h-.569c-4.698.142-8.541-3.559-8.683-8.256l-.285-6.121-.142-.996Z"/><path class="cls-11" d="M727.841,178.605c.427-4.698,4.271-8.256,8.968-8.256h6.121c6.121.142,11.104,4.982,11.246,11.104h0c.285,6.121-4.413,11.388-10.534,11.958l-6.121.569h-.427c-4.698.142-8.541-3.559-8.683-8.256l-.285-6.121-.285-.996Z"/><path class="cls-16" d="M728.98,178.605c.427-4.698,4.271-8.256,8.968-8.256h6.121c6.121.142,11.104,4.982,11.246,11.104h0c.285,6.121-4.413,11.388-10.534,11.958l-6.121.569h-.427c-4.698.142-8.541-3.559-8.683-8.256l-.285-6.121-.285-.996Z"/><path class="cls-24" d="M736.952,170.206l7.687.285c6.121.142,11.104,4.982,11.246,11.104h0c.285,6.121-4.413,11.388-10.534,11.958l-7.687.854"/><path class="cls-1" d="M696.808,144.298c0-1.708,1.139-2.989,2.705-3.132h33.168c1.566.142,2.705,1.566,2.562,3.132l-.427,73.881h0c.142,1.566-1.139,2.989-2.705,3.132h-33.168c-1.566-.142-2.705-1.566-2.562-3.132l.427-73.881q-.142-.142,0,0Z"/><path class="cls-14" d="M695.1,144.298c-.142-1.708.996-2.989,2.562-3.132h33.168c1.566.142,2.705,1.566,2.562,3.132l-.427,73.881h0c.142,1.566-1.139,2.989-2.705,3.132h-33.168c-1.566-.142-2.705-1.566-2.562-3.132l.569-73.881h0Z"/><g id="tables-17-3-25-4-4"><path class="cls-20" d="M693.961,179.744l20.214.142v-38.862s-17.652,0-17.652,0c-1.566.142-2.705,1.566-2.562,3.132v35.588h0Z"/><path class="cls-20" d="M714.175,221.453v-41.567s-20.072,0-20.072,0v38.435c-.142,1.566,1.139,2.989,2.705,3.132h17.509s-.142,0-.142,0Z"/><path class="cls-20" d="M714.033,221.311h15.659c1.566-.142,2.705-1.566,2.562-3.132v-38.435s-17.936,0-17.936,0l-.285,41.567Z"/><path class="cls-20" d="M714.46,179.601h18.079s0-35.588,0-35.588c.142-1.566-1.139-2.989-2.705-3.132h-15.516s.142,38.72.142,38.72Z"/></g><line class="cls-25" x1="732.254" y1="179.744" x2="693.961" y2="179.744"/><line class="cls-25" x1="714.318" y1="221.453" x2="714.318" y2="140.882"/><path class="cls-2" d="M916.316,259.888l-.285,6.121c-.142,4.698-3.986,8.399-8.683,8.256h-.427l-6.121-.569c-6.121-.569-10.819-5.836-10.534-11.958h0c.142-6.121,5.125-10.961,11.246-11.104h6.121c4.698,0,8.541,3.559,8.968,8.256l-.285.996Z"/><path class="cls-11" d="M915.177,259.888l-.285,6.121c-.142,4.698-3.986,8.399-8.683,8.256h-.427l-6.121-.569c-6.121-.569-10.819-5.836-10.534-11.958h0c.142-6.121,5.125-10.961,11.246-11.104h6.121c4.698,0,8.541,3.559,8.968,8.256l-.285.996Z"/><path class="cls-16" d="M914.038,259.888l-.285,6.121c-.142,4.698-3.986,8.399-8.683,8.256h-.569l-6.121-.569c-6.121-.569-10.819-5.836-10.534-11.958h0c.142-6.121,5.125-10.961,11.246-11.104h6.121c4.698,0,8.541,3.559,8.968,8.256l-.142.996Z"/><path class="cls-24" d="M905.782,274.693l-7.687-.854c-6.121-.569-10.819-5.836-10.534-11.958h0c.142-6.121,5.125-10.961,11.246-11.104l7.687-.285"/><path class="cls-1" d="M946.637,224.727l.427,73.881c.142,1.566-.996,2.989-2.562,3.132h-33.168c-1.566-.142-2.847-1.566-2.705-3.132h0l-.427-73.881c-.142-1.566.996-2.989,2.562-3.132h33.026c1.566,0,2.847,1.424,2.847,3.132h0Z"/><path class="cls-14" d="M948.203,224.727l.427,73.881c.142,1.566-.996,2.989-2.562,3.132h-33.168c-1.566-.142-2.847-1.566-2.705-3.132h0l-.427-73.881c-.142-1.566.996-2.989,2.562-3.132h33.168c1.566,0,2.705,1.281,2.705,2.847v.285Z"/><g id="tables-17-3-23-4-9"><path class="cls-20" d="M949.199,260.031v-35.588c.142-1.566-.996-2.989-2.562-3.132h-17.652v38.862l20.214-.142Z"/><path class="cls-20" d="M928.985,301.74h17.509c1.566-.142,2.847-1.566,2.705-3.132v-38.435h-20.072l-.142,41.567Z"/><path class="cls-20" d="M928.985,260.031h-17.936v38.435c-.142,1.566.996,2.989,2.562,3.132h15.659l-.285-41.567Z"/><path class="cls-20" d="M928.985,221.168h-15.516c-1.566.142-2.847,1.566-2.705,3.132v35.588h18.079v-38.72h.142Z"/></g><line class="cls-25" x1="949.199" y1="260.031" x2="911.049" y2="260.031"/><line class="cls-25" x1="928.985" y1="221.168" x2="928.985" y2="301.74"/><path class="cls-2" d="M916.316,338.819l-.285,6.121c-.142,4.698-3.986,8.399-8.683,8.256h-.427l-6.121-.569c-6.121-.569-10.819-5.836-10.534-11.958h0c.142-6.121,5.125-10.961,11.246-11.104h6.121c4.698,0,8.541,3.559,8.968,8.256l-.285.996Z"/><path class="cls-11" d="M915.177,338.819l-.285,6.121c-.142,4.698-3.986,8.399-8.683,8.256h-.427l-6.121-.569c-6.121-.569-10.819-5.836-10.534-11.958h0c.142-6.121,5.125-10.961,11.246-11.104h6.121c4.698,0,8.541,3.559,8.968,8.256l-.285.996Z"/><path class="cls-16" d="M914.038,338.819l-.285,6.121c-.142,4.698-3.986,8.399-8.683,8.256h-.569l-6.121-.569c-6.121-.569-10.819-5.836-10.534-11.958h0c.142-6.121,5.125-10.961,11.246-11.104h6.121c4.698,0,8.541,3.559,8.968,8.256l-.142.996Z"/><path class="cls-24" d="M905.782,353.624l-7.687-.854c-6.121-.569-10.819-5.836-10.534-11.958h0c.142-6.121,5.125-10.961,11.246-11.104l7.687-.285"/><path class="cls-1" d="M946.637,303.658l.427,73.881c.142,1.566-.996,2.989-2.562,3.132h-33.168c-1.566-.142-2.847-1.566-2.705-3.132h0l-.427-73.881c-.142-1.566.996-2.989,2.562-3.132h33.026c1.566,0,2.847,1.424,2.847,3.132h0Z"/><path class="cls-14" d="M948.203,303.658l.427,73.881c.142,1.566-.996,2.989-2.562,3.132h-33.168c-1.566-.142-2.847-1.566-2.705-3.132h0l-.427-73.881c-.142-1.566.996-2.989,2.562-3.132h33.168c1.566,0,2.705,1.281,2.705,2.847v.285Z"/><g id="tables-17-3-23-4-10"><path class="cls-20" d="M949.199,338.961v-35.588c.142-1.566-.996-2.989-2.562-3.132h-17.652v38.862l20.214-.142Z"/><path class="cls-20" d="M928.985,380.671h17.509c1.566-.142,2.847-1.566,2.705-3.132v-38.435h-20.072l-.142,41.567Z"/><path class="cls-20" d="M928.985,338.961h-17.936v38.435c-.142,1.566.996,2.989,2.562,3.132h15.659l-.285-41.567Z"/><path class="cls-20" d="M928.985,300.099h-15.516c-1.566.142-2.847,1.566-2.705,3.132v35.588h18.079v-38.72h.142Z"/></g><line class="cls-25" x1="949.199" y1="338.961" x2="911.049" y2="338.961"/><line class="cls-25" x1="928.985" y1="300.099" x2="928.985" y2="380.671"/><path class="cls-2" d="M916.031,179.601l-.285,6.121c-.142,4.698-3.986,8.399-8.683,8.256h-.569l-6.121-.569c-6.121-.569-10.819-5.836-10.534-11.958h0c.142-6.121,5.125-10.961,11.246-11.104h6.121c4.698,0,8.541,3.559,8.968,8.256l-.142.996Z"/><path class="cls-11" d="M914.893,179.601l-.285,6.121c-.142,4.698-3.986,8.399-8.683,8.256h-.427l-6.121-.569c-6.121-.569-10.819-5.836-10.534-11.958h0c.142-6.121,5.125-10.961,11.246-11.104h6.121c4.698,0,8.541,3.559,8.968,8.256l-.285.996Z"/><path class="cls-16" d="M913.754,179.601l-.285,6.121c-.142,4.698-3.986,8.399-8.683,8.256h-.427l-6.121-.569c-6.121-.569-10.819-5.836-10.534-11.958h0c.142-6.121,5.125-10.961,11.246-11.104h6.121c4.698,0,8.541,3.559,8.968,8.256l-.285.996Z"/><path class="cls-24" d="M905.355,194.406l-7.687-.854c-6.121-.569-10.819-5.836-10.534-11.958h0c.142-6.121,5.125-10.961,11.246-11.104l7.687-.285"/><path class="cls-1" d="M946.21,144.298l.427,73.881c.142,1.566-.996,2.989-2.562,3.132h-33.168c-1.566-.142-2.847-1.566-2.705-3.132h0l-.427-73.881c-.142-1.566.996-2.989,2.562-3.132h33.168c1.566.142,2.705,1.424,2.705,3.132q.142-.142,0,0Z"/><path class="cls-14" d="M947.918,144.298l.569,73.881c.142,1.566-.996,2.989-2.562,3.132h-33.168c-1.566-.142-2.847-1.566-2.705-3.132h0l-.427-73.881c-.142-1.566.996-2.989,2.562-3.132h33.168c1.566.142,2.705,1.424,2.562,3.132h0Z"/><g id="tables-17-3-25-4-5"><path class="cls-20" d="M949.057,179.744v-35.588c.142-1.566-.996-2.989-2.562-3.132h-17.652v38.862l20.214-.142h0Z"/><path class="cls-20" d="M928.701,221.453h17.509c1.566-.142,2.847-1.566,2.705-3.132v-38.435h-20.072v41.567h-.142Z"/><path class="cls-20" d="M928.701,179.744h-17.936v38.435c-.142,1.566.996,2.989,2.562,3.132h15.659l-.285-41.567Z"/><path class="cls-20" d="M928.701,140.882h-15.516c-1.566.142-2.847,1.566-2.705,3.132v35.588h18.079l.142-38.72Z"/></g><line class="cls-25" x1="949.057" y1="179.744" x2="910.764" y2="179.744"/><line class="cls-25" x1="928.701" y1="140.882" x2="928.701" y2="221.453"/><path class="cls-2" d="M981.822,258.892c.427-4.698,4.271-8.256,8.968-8.256h6.121c6.121.142,11.104,4.982,11.246,11.104h0c.285,6.121-4.413,11.388-10.534,11.958l-6.121.569h-.427c-4.698.142-8.541-3.559-8.683-8.256l-.285-6.121-.285-.996Z"/><path class="cls-11" d="M982.961,258.892c.427-4.698,4.271-8.256,8.968-8.256h6.121c6.121.142,11.104,4.982,11.246,11.104h0c.285,6.121-4.413,11.388-10.534,11.958l-6.121.569h-.427c-4.698.142-8.541-3.559-8.683-8.256l-.285-6.121-.285-.996Z"/><path class="cls-16" d="M984.242,258.892c.427-4.698,4.271-8.256,8.968-8.256h6.121c6.121.142,11.104,4.982,11.246,11.104h0c.285,6.121-4.413,11.388-10.534,11.958l-6.121.569h-.569c-4.698.142-8.541-3.559-8.683-8.256l-.285-6.121-.142-.996Z"/><path class="cls-24" d="M991.929,250.493l7.687.285c6.121.142,11.104,4.982,11.246,11.104h0c.285,6.121-4.413,11.388-10.534,11.958l-7.687.854"/><path class="cls-1" d="M951.786,224.727h0c0-1.708,1.281-3.132,2.847-3.132h33.026c1.566.142,2.705,1.566,2.562,3.132l-.427,73.881h0c.142,1.566-1.139,2.989-2.705,3.132h-33.168c-1.566-.142-2.705-1.566-2.562-3.132l.427-73.881h0Z"/><path class="cls-14" d="M950.22,224.443c0-1.566,1.139-2.847,2.705-2.847h33.168c1.566.142,2.705,1.566,2.562,3.132l-.427,73.881h0c.142,1.566-1.139,2.989-2.705,3.132h-33.168c-1.566-.142-2.705-1.566-2.562-3.132l.427-73.881v-.285Z"/><g id="tables-17-3-23-4-11"><path class="cls-20" d="M969.438,260.173v-38.862s-17.652,0-17.652,0c-1.566.142-2.705,1.566-2.562,3.132v35.588s20.214.142,20.214.142Z"/><path class="cls-20" d="M969.295,260.173h-20.072s0,38.435,0,38.435c-.142,1.566,1.139,2.989,2.705,3.132h17.509s-.142-41.567-.142-41.567Z"/><path class="cls-20" d="M969.153,301.598h15.659c1.566-.142,2.705-1.566,2.562-3.132v-38.435s-17.936,0-17.936,0l-.285,41.567Z"/><path class="cls-20" d="M969.58,221.168v38.72s18.079,0,18.079,0v-35.588c.142-1.566-1.139-2.989-2.705-3.132h-15.516s.142,0,.142,0Z"/></g><line class="cls-25" x1="987.374" y1="260.031" x2="949.223" y2="260.031"/><line class="cls-25" x1="969.438" y1="301.74" x2="969.438" y2="221.168"/><path class="cls-2" d="M981.822,337.822c.427-4.698,4.271-8.256,8.968-8.256h6.121c6.121.142,11.104,4.982,11.246,11.104h0c.285,6.121-4.413,11.388-10.534,11.958l-6.121.569h-.427c-4.698.142-8.541-3.559-8.683-8.256l-.285-6.121-.285-.996Z"/><path class="cls-11" d="M982.961,337.822c.427-4.698,4.271-8.256,8.968-8.256h6.121c6.121.142,11.104,4.982,11.246,11.104h0c.285,6.121-4.413,11.388-10.534,11.958l-6.121.569h-.427c-4.698.142-8.541-3.559-8.683-8.256l-.285-6.121-.285-.996Z"/><path class="cls-16" d="M984.242,337.822c.427-4.698,4.271-8.256,8.968-8.256h6.121c6.121.142,11.104,4.982,11.246,11.104h0c.285,6.121-4.413,11.388-10.534,11.958l-6.121.569h-.569c-4.698.142-8.541-3.559-8.683-8.256l-.285-6.121-.142-.996Z"/><path class="cls-24" d="M991.929,329.424l7.687.285c6.121.142,11.104,4.982,11.246,11.104h0c.285,6.121-4.413,11.388-10.534,11.958l-7.687.854"/><path class="cls-1" d="M951.786,303.658h0c0-1.708,1.281-3.132,2.847-3.132h33.026c1.566.142,2.705,1.566,2.562,3.132l-.427,73.881h0c.142,1.566-1.139,2.989-2.705,3.132h-33.168c-1.566-.142-2.705-1.566-2.562-3.132l.427-73.881h0Z"/><path class="cls-14" d="M950.22,303.373c0-1.566,1.139-2.847,2.705-2.847h33.168c1.566.142,2.705,1.566,2.562,3.132l-.427,73.881h0c.142,1.566-1.139,2.989-2.705,3.132h-33.168c-1.566-.142-2.705-1.566-2.562-3.132l.427-73.881v-.285Z"/><g id="tables-17-3-23-4-12"><path class="cls-20" d="M969.438,339.104v-38.862s-17.652,0-17.652,0c-1.566.142-2.705,1.566-2.562,3.132v35.588s20.214.142,20.214.142Z"/><path class="cls-20" d="M969.295,339.104h-20.072s0,38.435,0,38.435c-.142,1.566,1.139,2.989,2.705,3.132h17.509s-.142-41.567-.142-41.567Z"/><path class="cls-20" d="M969.153,380.528h15.659c1.566-.142,2.705-1.566,2.562-3.132v-38.435s-17.936,0-17.936,0l-.285,41.567Z"/><path class="cls-20" d="M969.58,300.099v38.72s18.079,0,18.079,0v-35.588c.142-1.566-1.139-2.989-2.705-3.132h-15.516s.142,0,.142,0Z"/></g><line class="cls-25" x1="987.374" y1="338.961" x2="949.223" y2="338.961"/><line class="cls-25" x1="969.438" y1="380.671" x2="969.438" y2="300.099"/><path class="cls-2" d="M982.249,178.605c.427-4.698,4.271-8.256,8.968-8.256h6.121c6.121.142,11.104,4.982,11.246,11.104h0c.285,6.121-4.413,11.388-10.534,11.958l-6.121.569h-.569c-4.698.142-8.541-3.559-8.683-8.256l-.285-6.121-.142-.996Z"/><path class="cls-11" d="M983.246,178.605c.427-4.698,4.271-8.256,8.968-8.256h6.121c6.121.142,11.104,4.982,11.246,11.104h0c.285,6.121-4.413,11.388-10.534,11.958l-6.121.569h-.427c-4.698.142-8.541-3.559-8.683-8.256l-.285-6.121-.285-.996Z"/><path class="cls-16" d="M984.385,178.605c.427-4.698,4.271-8.256,8.968-8.256h6.121c6.121.142,11.104,4.982,11.246,11.104h0c.285,6.121-4.413,11.388-10.534,11.958l-6.121.569h-.427c-4.698.142-8.541-3.559-8.683-8.256l-.285-6.121-.285-.996Z"/><path class="cls-24" d="M992.356,170.206l7.687.285c6.121.142,11.104,4.982,11.246,11.104h0c.285,6.121-4.413,11.388-10.534,11.958l-7.687.854"/><path class="cls-1" d="M952.213,144.298c0-1.708,1.139-2.989,2.705-3.132h33.168c1.566.142,2.705,1.566,2.562,3.132l-.427,73.881h0c.142,1.566-1.139,2.989-2.705,3.132h-33.168c-1.566-.142-2.705-1.566-2.562-3.132l.427-73.881q-.142-.142,0,0Z"/><path class="cls-14" d="M950.505,144.298c-.142-1.708.996-2.989,2.562-3.132h33.168c1.566.142,2.705,1.566,2.562,3.132l-.427,73.881h0c.142,1.566-1.139,2.989-2.705,3.132h-33.168c-1.566-.142-2.705-1.566-2.562-3.132l.569-73.881h0Z"/><g id="tables-17-3-25-4-6"><path class="cls-20" d="M949.366,179.744l20.214.142v-38.862s-17.652,0-17.652,0c-1.566.142-2.705,1.566-2.562,3.132v35.588h0Z"/><path class="cls-20" d="M969.58,221.453v-41.567s-20.072,0-20.072,0v38.435c-.142,1.566,1.139,2.989,2.705,3.132h17.509s-.142,0-.142,0Z"/><path class="cls-20" d="M969.438,221.311h15.659c1.566-.142,2.705-1.566,2.562-3.132v-38.435s-17.936,0-17.936,0l-.285,41.567Z"/><path class="cls-20" d="M969.865,179.601h18.079s0-35.588,0-35.588c.142-1.566-1.139-2.989-2.705-3.132h-15.516s.142,38.72.142,38.72Z"/></g><line class="cls-25" x1="987.659" y1="179.744" x2="949.366" y2="179.744"/><line class="cls-25" x1="969.722" y1="221.453" x2="969.722" y2="140.882"/><path class="cls-2" d="M951.807,484.955c4.698.427,8.256,4.271,8.256,8.968v6.121c-.142,6.121-4.982,11.104-11.104,11.246h0c-6.121.285-11.388-4.413-11.958-10.534l-.569-6.121v-.427c-.142-4.698,3.559-8.541,8.256-8.683l6.121-.285.996-.285Z"/><path class="cls-11" d="M951.807,486.094c4.698.427,8.256,4.271,8.256,8.968v6.121c-.142,6.121-4.982,11.104-11.104,11.246h0c-6.121.285-11.388-4.413-11.958-10.534l-.569-6.121v-.427c-.142-4.698,3.559-8.541,8.256-8.683l6.121-.285.996-.285Z"/><path class="cls-16" d="M951.807,487.375c4.698.427,8.256,4.271,8.256,8.968v6.121c-.142,6.121-4.982,11.104-11.104,11.246h0c-6.121.285-11.388-4.413-11.958-10.534l-.569-6.121v-.569c-.142-4.698,3.559-8.541,8.256-8.683l6.121-.285.996-.142Z"/><path class="cls-24" d="M960.206,495.062l-.285,7.687c-.142,6.121-4.982,11.104-11.104,11.246h0c-6.121.285-11.388-4.413-11.958-10.534l-.854-7.687"/><path class="cls-1" d="M985.972,454.918h0c1.708,0,3.132,1.281,3.132,2.847v33.026c-.142,1.566-1.566,2.705-3.132,2.562l-73.881-.427h0c-1.566.142-2.989-1.139-3.132-2.705v-33.168c.142-1.566,1.566-2.705,3.132-2.562l73.881.427h0Z"/><path class="cls-14" d="M986.257,453.353c1.566,0,2.847,1.139,2.847,2.705v33.168c-.142,1.566-1.566,2.705-3.132,2.562l-73.881-.427h0c-1.566.142-2.989-1.139-3.132-2.705v-33.168c.142-1.566,1.566-2.705,3.132-2.562l73.881.427h.285Z"/><g id="tables-17-3-23-4-13"><path class="cls-20" d="M950.526,472.57h38.862s0-17.652,0-17.652c-.142-1.566-1.566-2.705-3.132-2.562h-35.588s-.142,20.214-.142,20.214Z"/><path class="cls-20" d="M950.526,472.428v-20.072s-38.435,0-38.435,0c-1.566-.142-2.989,1.139-3.132,2.705v17.509s41.567-.142,41.567-.142Z"/><path class="cls-20" d="M909.102,472.285v15.659c.142,1.566,1.566,2.705,3.132,2.562h38.435s0-17.936,0-17.936l-41.567-.285Z"/><path class="cls-20" d="M989.531,472.713h-38.72s0,18.079,0,18.079h35.588c1.566.142,2.989-1.139,3.132-2.705v-15.516s0,.142,0,.142Z"/></g><line class="cls-25" x1="950.669" y1="490.507" x2="950.669" y2="452.356"/><path class="cls-2" d="M872.877,484.955c4.698.427,8.256,4.271,8.256,8.968v6.121c-.142,6.121-4.982,11.104-11.104,11.246h0c-6.121.285-11.388-4.413-11.958-10.534l-.569-6.121v-.427c-.142-4.698,3.559-8.541,8.256-8.683l6.121-.285.996-.285Z"/><path class="cls-11" d="M872.877,486.094c4.698.427,8.256,4.271,8.256,8.968v6.121c-.142,6.121-4.982,11.104-11.104,11.246h0c-6.121.285-11.388-4.413-11.958-10.534l-.569-6.121v-.427c-.142-4.698,3.559-8.541,8.256-8.683l6.121-.285.996-.285Z"/><path class="cls-16" d="M872.877,487.375c4.698.427,8.256,4.271,8.256,8.968v6.121c-.142,6.121-4.982,11.104-11.104,11.246h0c-6.121.285-11.388-4.413-11.958-10.534l-.569-6.121v-.569c-.142-4.698,3.559-8.541,8.256-8.683l6.121-.285.996-.142Z"/><path class="cls-24" d="M881.276,495.062l-.285,7.687c-.142,6.121-4.982,11.104-11.104,11.246h0c-6.121.285-11.388-4.413-11.958-10.534l-.854-7.687"/><path class="cls-1" d="M907.042,454.918h0c1.708,0,3.132,1.281,3.132,2.847v33.026c-.142,1.566-1.566,2.705-3.132,2.562l-73.881-.427h0c-1.566.142-2.989-1.139-3.132-2.705v-33.168c.142-1.566,1.566-2.705,3.132-2.562l73.881.427h0Z"/><path class="cls-14" d="M907.326,453.353c1.566,0,2.847,1.139,2.847,2.705v33.168c-.142,1.566-1.566,2.705-3.132,2.562l-73.881-.427h0c-1.566.142-2.989-1.139-3.132-2.705v-33.168c.142-1.566,1.566-2.705,3.132-2.562l73.881.427h.285Z"/><g id="tables-17-3-23-4-14"><path class="cls-20" d="M871.596,472.57h38.862s0-17.652,0-17.652c-.142-1.566-1.566-2.705-3.132-2.562h-35.588s-.142,20.214-.142,20.214Z"/><path class="cls-20" d="M871.596,472.428v-20.072s-38.435,0-38.435,0c-1.566-.142-2.989,1.139-3.132,2.705v17.509s41.567-.142,41.567-.142Z"/><path class="cls-20" d="M830.171,472.285v15.659c.142,1.566,1.566,2.705,3.132,2.562h38.435s0-17.936,0-17.936l-41.567-.285Z"/><path class="cls-20" d="M910.6,472.713h-38.72s0,18.079,0,18.079h35.588c1.566.142,2.989-1.139,3.132-2.705v-15.516s0,.142,0,.142Z"/></g><line class="cls-25" x1="871.738" y1="490.507" x2="871.738" y2="452.356"/><path class="cls-2" d="M1032.094,485.382c4.698.427,8.256,4.271,8.256,8.968v6.121c-.142,6.121-4.982,11.104-11.104,11.246h0c-6.121.285-11.388-4.413-11.958-10.534l-.569-6.121v-.569c-.142-4.698,3.559-8.541,8.256-8.683l6.121-.285.996-.142Z"/><path class="cls-11" d="M1032.094,486.378c4.698.427,8.256,4.271,8.256,8.968v6.121c-.142,6.121-4.982,11.104-11.104,11.246h0c-6.121.285-11.388-4.413-11.958-10.534l-.569-6.121v-.427c-.142-4.698,3.559-8.541,8.256-8.683l6.121-.285.996-.285Z"/><path class="cls-16" d="M1032.094,487.517c4.698.427,8.256,4.271,8.256,8.968v6.121c-.142,6.121-4.982,11.104-11.104,11.246h0c-6.121.285-11.388-4.413-11.958-10.534l-.569-6.121v-.427c-.142-4.698,3.559-8.541,8.256-8.683l6.121-.285.996-.285Z"/><path class="cls-24" d="M1040.493,495.489l-.285,7.687c-.142,6.121-4.982,11.104-11.104,11.246h0c-6.121.285-11.388-4.413-11.958-10.534l-.854-7.687"/><path class="cls-1" d="M1066.401,455.345c1.708,0,2.989,1.139,3.132,2.705v33.168c-.142,1.566-1.566,2.705-3.132,2.562l-73.881-.427h0c-1.566.142-2.989-1.139-3.132-2.705v-33.168c.142-1.566,1.566-2.705,3.132-2.562l73.881.427q.142-.142,0,0Z"/><path class="cls-14" d="M1066.401,453.637c1.708-.142,2.989.996,3.132,2.562v33.168c-.142,1.566-1.566,2.705-3.132,2.562l-73.881-.427h0c-1.566.142-2.989-1.139-3.132-2.705v-33.168c.142-1.566,1.566-2.705,3.132-2.562l73.881.569h0Z"/><g id="tables-17-3-25-4-7"><path class="cls-20" d="M1030.955,452.498l-.142,20.214h38.862s0-17.652,0-17.652c-.142-1.566-1.566-2.705-3.132-2.562h-35.588Z"/><path class="cls-20" d="M989.246,472.712h41.567s0-20.072,0-20.072h-38.435c-1.566-.142-2.989,1.139-3.132,2.705v17.509s0-.142,0-.142Z"/><path class="cls-20" d="M989.389,472.57v15.659c.142,1.566,1.566,2.705,3.132,2.562h38.435s0-17.936,0-17.936l-41.567-.285Z"/><path class="cls-20" d="M1031.098,472.997v18.079s35.588,0,35.588,0c1.566.142,2.989-1.139,3.132-2.705v-15.516s-38.72.142-38.72.142Z"/></g><line class="cls-25" x1="1030.955" y1="490.791" x2="1030.955" y2="452.498"/><path class="cls-2" d="M951.807,750.658c4.698.427,8.256,4.271,8.256,8.968v6.121c-.142,6.121-4.982,11.104-11.104,11.246h0c-6.121.285-11.388-4.413-11.958-10.534l-.569-6.121v-.427c-.142-4.698,3.559-8.541,8.256-8.683l6.121-.285.996-.285Z"/><path class="cls-11" d="M951.807,751.797c4.698.427,8.256,4.271,8.256,8.968v6.121c-.142,6.121-4.982,11.104-11.104,11.246h0c-6.121.285-11.388-4.413-11.958-10.534l-.569-6.121v-.427c-.142-4.698,3.559-8.541,8.256-8.683l6.121-.285.996-.285Z"/><path class="cls-16" d="M951.807,753.078c4.698.427,8.256,4.271,8.256,8.968v6.121c-.142,6.121-4.982,11.104-11.104,11.246h0c-6.121.285-11.388-4.413-11.958-10.534l-.569-6.121v-.569c-.142-4.698,3.559-8.541,8.256-8.683l6.121-.285.996-.142Z"/><path class="cls-24" d="M960.206,760.765l-.285,7.687c-.142,6.121-4.982,11.104-11.104,11.246h0c-6.121.285-11.388-4.413-11.958-10.534l-.854-7.687"/><path class="cls-1" d="M985.972,720.622h0c1.708,0,3.132,1.281,3.132,2.847v33.026c-.142,1.566-1.566,2.705-3.132,2.562l-73.881-.427h0c-1.566.142-2.989-1.139-3.132-2.705v-33.168c.142-1.566,1.566-2.705,3.132-2.562l73.881.427h0Z"/><path class="cls-14" d="M986.257,719.056c1.566,0,2.847,1.139,2.847,2.705v33.168c-.142,1.566-1.566,2.705-3.132,2.562l-73.881-.427h0c-1.566.142-2.989-1.139-3.132-2.705v-33.168c.142-1.566,1.566-2.705,3.132-2.562l73.881.427h.285Z"/><g id="tables-17-3-23-4-15"><path class="cls-20" d="M950.526,738.273h38.862s0-17.652,0-17.652c-.142-1.566-1.566-2.705-3.132-2.562h-35.588s-.142,20.214-.142,20.214Z"/><path class="cls-20" d="M950.526,738.131v-20.072s-38.435,0-38.435,0c-1.566-.142-2.989,1.139-3.132,2.705v17.509s41.567-.142,41.567-.142Z"/><path class="cls-20" d="M909.102,737.988v15.659c.142,1.566,1.566,2.705,3.132,2.562h38.435s0-17.936,0-17.936l-41.567-.285Z"/><path class="cls-20" d="M989.531,738.416h-38.72s0,18.079,0,18.079h35.588c1.566.142,2.989-1.139,3.132-2.705v-15.516s0,.142,0,.142Z"/></g><line class="cls-25" x1="950.669" y1="756.21" x2="950.669" y2="718.059"/><path class="cls-2" d="M680.796,974.363c4.698.427,8.256,4.271,8.256,8.968v6.121c-.142,6.121-4.982,11.104-11.104,11.246h0c-6.121.285-11.388-4.413-11.958-10.534l-.569-6.121v-.427c-.142-4.698,3.559-8.541,8.256-8.683l6.121-.285.996-.285Z"/><path class="cls-11" d="M680.796,975.502c4.698.427,8.256,4.271,8.256,8.968v6.121c-.142,6.121-4.982,11.104-11.104,11.246h0c-6.121.285-11.388-4.413-11.958-10.534l-.569-6.121v-.427c-.142-4.698,3.559-8.541,8.256-8.683l6.121-.285.996-.285Z"/><path class="cls-16" d="M680.796,976.783c4.698.427,8.256,4.271,8.256,8.968v6.121c-.142,6.121-4.982,11.104-11.104,11.246h0c-6.121.285-11.388-4.413-11.958-10.534l-.569-6.121v-.569c-.142-4.698,3.559-8.541,8.256-8.683l6.121-.285.996-.142Z"/><path class="cls-24" d="M689.195,984.47l-.285,7.687c-.142,6.121-4.982,11.104-11.104,11.246h0c-6.121.285-11.388-4.413-11.958-10.534l-.854-7.687"/><path class="cls-2" d="M711.004,974.363c4.698.427,8.256,4.271,8.256,8.968v6.121c-.142,6.121-4.982,11.104-11.104,11.246h0c-6.121.285-11.388-4.413-11.958-10.534l-.569-6.121v-.427c-.142-4.698,3.559-8.541,8.256-8.683l6.121-.285.996-.285Z"/><path class="cls-11" d="M711.004,975.502c4.698.427,8.256,4.271,8.256,8.968v6.121c-.142,6.121-4.982,11.104-11.104,11.246h0c-6.121.285-11.388-4.413-11.958-10.534l-.569-6.121v-.427c-.142-4.698,3.559-8.541,8.256-8.683l6.121-.285.996-.285Z"/><path class="cls-16" d="M711.004,976.783c4.698.427,8.256,4.271,8.256,8.968v6.121c-.142,6.121-4.982,11.104-11.104,11.246h0c-6.121.285-11.388-4.413-11.958-10.534l-.569-6.121v-.569c-.142-4.698,3.559-8.541,8.256-8.683l6.121-.285.996-.142Z"/><path class="cls-24" d="M719.403,984.47l-.285,7.687c-.142,6.121-4.982,11.104-11.104,11.246h0c-6.121.285-11.388-4.413-11.958-10.534l-.854-7.687"/><path class="cls-2" d="M744.033,974.363c4.698.427,8.256,4.271,8.256,8.968v6.121c-.142,6.121-4.982,11.104-11.104,11.246h0c-6.121.285-11.388-4.413-11.958-10.534l-.569-6.121v-.427c-.142-4.698,3.559-8.541,8.256-8.683l6.121-.285.996-.285Z"/><path class="cls-11" d="M744.033,975.502c4.698.427,8.256,4.271,8.256,8.968v6.121c-.142,6.121-4.982,11.104-11.104,11.246h0c-6.121.285-11.388-4.413-11.958-10.534l-.569-6.121v-.427c-.142-4.698,3.559-8.541,8.256-8.683l6.121-.285.996-.285Z"/><path class="cls-16" d="M744.033,976.783c4.698.427,8.256,4.271,8.256,8.968v6.121c-.142,6.121-4.982,11.104-11.104,11.246h0c-6.121.285-11.388-4.413-11.958-10.534l-.569-6.121v-.569c-.142-4.698,3.559-8.541,8.256-8.683l6.121-.285.996-.142Z"/><path class="cls-24" d="M752.432,984.47l-.285,7.687c-.142,6.121-4.982,11.104-11.104,11.246h0c-6.121.285-11.388-4.413-11.958-10.534l-.854-7.687"/><path class="cls-2" d="M1032.094,751.085c4.698.427,8.256,4.271,8.256,8.968v6.121c-.142,6.121-4.982,11.104-11.104,11.246h0c-6.121.285-11.388-4.413-11.958-10.534l-.569-6.121v-.569c-.142-4.698,3.559-8.541,8.256-8.683l6.121-.285.996-.142Z"/><path class="cls-11" d="M1032.094,752.081c4.698.427,8.256,4.271,8.256,8.968v6.121c-.142,6.121-4.982,11.104-11.104,11.246h0c-6.121.285-11.388-4.413-11.958-10.534l-.569-6.121v-.427c-.142-4.698,3.559-8.541,8.256-8.683l6.121-.285.996-.285Z"/><path class="cls-16" d="M1032.094,753.22c4.698.427,8.256,4.271,8.256,8.968v6.121c-.142,6.121-4.982,11.104-11.104,11.246h0c-6.121.285-11.388-4.413-11.958-10.534l-.569-6.121v-.427c-.142-4.698,3.559-8.541,8.256-8.683l6.121-.285.996-.285Z"/><path class="cls-24" d="M1040.493,761.192l-.285,7.687c-.142,6.121-4.982,11.104-11.104,11.246h0c-6.121.285-11.388-4.413-11.958-10.534l-.854-7.687"/><path class="cls-1" d="M1066.401,721.049c1.708,0,2.989,1.139,3.132,2.705v33.168c-.142,1.566-1.566,2.705-3.132,2.562l-73.881-.427h0c-1.566.142-2.989-1.139-3.132-2.705v-33.168c.142-1.566,1.566-2.705,3.132-2.562l73.881.427q.142-.142,0,0Z"/><path class="cls-14" d="M1066.401,719.34c1.708-.142,2.989.996,3.132,2.562v33.168c-.142,1.566-1.566,2.705-3.132,2.562l-73.881-.427h0c-1.566.142-2.989-1.139-3.132-2.705v-33.168c.142-1.566,1.566-2.705,3.132-2.562l73.881.569h0Z"/><g id="tables-17-3-25-4-8"><path class="cls-20" d="M1030.955,718.202l-.142,20.214h38.862s0-17.652,0-17.652c-.142-1.566-1.566-2.705-3.132-2.562h-35.588Z"/><path class="cls-20" d="M989.246,738.416h41.567s0-20.072,0-20.072h-38.435c-1.566-.142-2.989,1.139-3.132,2.705v17.509s0-.142,0-.142Z"/><path class="cls-20" d="M989.389,738.273v15.659c.142,1.566,1.566,2.705,3.132,2.562h38.435s0-17.936,0-17.936l-41.567-.285Z"/><path class="cls-20" d="M1031.098,738.701v18.079s35.588,0,35.588,0c1.566.142,2.989-1.139,3.132-2.705v-15.516s-38.72.142-38.72.142Z"/></g><line class="cls-25" x1="1030.955" y1="756.494" x2="1030.955" y2="718.202"/><path class="cls-2" d="M950.811,685.864l-6.121-.285c-4.698-.142-8.399-3.986-8.256-8.683v-.427s.569-6.121.569-6.121c.569-6.121,5.836-10.819,11.958-10.534h0c6.121.142,10.961,5.125,11.104,11.246v6.121c0,4.698-3.559,8.541-8.256,8.968l-.996-.285Z"/><path class="cls-11" d="M950.811,684.725l-6.121-.285c-4.698-.142-8.399-3.986-8.256-8.683v-.427s.569-6.121.569-6.121c.569-6.121,5.836-10.819,11.958-10.534h0c6.121.142,10.961,5.125,11.104,11.246v6.121c0,4.698-3.559,8.541-8.256,8.968l-.996-.285Z"/><path class="cls-16" d="M950.811,683.586l-6.121-.285c-4.698-.142-8.399-3.986-8.256-8.683v-.569s.569-6.121.569-6.121c.569-6.121,5.836-10.819,11.958-10.534h0c6.121.142,10.961,5.125,11.104,11.246v6.121c0,4.698-3.559,8.541-8.256,8.968l-.996-.142Z"/><path class="cls-24" d="M936.006,675.329l.854-7.687c.569-6.121,5.836-10.819,11.958-10.534h0c6.121.142,10.961,5.125,11.104,11.246l.285,7.687"/><path class="cls-1" d="M985.972,716.185l-73.881.427c-1.566.142-2.989-.996-3.132-2.562v-33.168c.142-1.566,1.566-2.847,3.132-2.705h0l73.881-.427c1.566-.142,2.989.996,3.132,2.562v33.026c0,1.566-1.424,2.847-3.132,2.847h0Z"/><path class="cls-14" d="M985.972,717.751l-73.881.427c-1.566.142-2.989-.996-3.132-2.562v-33.168c.142-1.566,1.566-2.847,3.132-2.705h0l73.881-.427c1.566-.142,2.989.996,3.132,2.562v33.168c0,1.566-1.281,2.705-2.847,2.705h-.285Z"/><g id="tables-17-3-23-4-16"><path class="cls-20" d="M950.669,718.747h35.588c1.566.142,2.989-.996,3.132-2.562v-17.652h-38.862s.142,20.214.142,20.214Z"/><path class="cls-20" d="M908.959,698.533v17.509c.142,1.566,1.566,2.847,3.132,2.705h38.435v-20.072s-41.567-.142-41.567-.142Z"/><path class="cls-20" d="M950.669,698.533v-17.936h-38.435c-1.566-.142-2.989.996-3.132,2.562v15.659s41.567-.285,41.567-.285Z"/><path class="cls-20" d="M989.531,698.533v-15.516c-.142-1.566-1.566-2.847-3.132-2.705h-35.588v18.079h38.72s0,.142,0,.142Z"/></g><line class="cls-25" x1="950.669" y1="718.747" x2="950.669" y2="680.597"/><path class="cls-2" d="M871.88,685.864l-6.121-.285c-4.698-.142-8.399-3.986-8.256-8.683v-.427s.569-6.121.569-6.121c.569-6.121,5.836-10.819,11.958-10.534h0c6.121.142,10.961,5.125,11.104,11.246v6.121c0,4.698-3.559,8.541-8.256,8.968l-.996-.285Z"/><path class="cls-11" d="M871.88,684.725l-6.121-.285c-4.698-.142-8.399-3.986-8.256-8.683v-.427s.569-6.121.569-6.121c.569-6.121,5.836-10.819,11.958-10.534h0c6.121.142,10.961,5.125,11.104,11.246v6.121c0,4.698-3.559,8.541-8.256,8.968l-.996-.285Z"/><path class="cls-16" d="M871.88,683.586l-6.121-.285c-4.698-.142-8.399-3.986-8.256-8.683v-.569s.569-6.121.569-6.121c.569-6.121,5.836-10.819,11.958-10.534h0c6.121.142,10.961,5.125,11.104,11.246v6.121c0,4.698-3.559,8.541-8.256,8.968l-.996-.142Z"/><path class="cls-24" d="M857.076,675.329l.854-7.687c.569-6.121,5.836-10.819,11.958-10.534h0c6.121.142,10.961,5.125,11.104,11.246l.285,7.687"/><path class="cls-1" d="M907.042,716.185l-73.881.427c-1.566.142-2.989-.996-3.132-2.562v-33.168c.142-1.566,1.566-2.847,3.132-2.705h0l73.881-.427c1.566-.142,2.989.996,3.132,2.562v33.026c0,1.566-1.424,2.847-3.132,2.847h0Z"/><path class="cls-14" d="M907.042,717.751l-73.881.427c-1.566.142-2.989-.996-3.132-2.562v-33.168c.142-1.566,1.566-2.847,3.132-2.705h0l73.881-.427c1.566-.142,2.989.996,3.132,2.562v33.168c0,1.566-1.281,2.705-2.847,2.705h-.285Z"/><g id="tables-17-3-23-4-17"><path class="cls-20" d="M871.738,718.747h35.588c1.566.142,2.989-.996,3.132-2.562v-17.652h-38.862s.142,20.214.142,20.214Z"/><path class="cls-20" d="M830.029,698.533v17.509c.142,1.566,1.566,2.847,3.132,2.705h38.435v-20.072s-41.567-.142-41.567-.142Z"/><path class="cls-20" d="M871.738,698.533v-17.936h-38.435c-1.566-.142-2.989.996-3.132,2.562v15.659s41.567-.285,41.567-.285Z"/><path class="cls-20" d="M910.6,698.533v-15.516c-.142-1.566-1.566-2.847-3.132-2.705h-35.588v18.079h38.72s0,.142,0,.142Z"/></g><line class="cls-25" x1="871.738" y1="718.747" x2="871.738" y2="680.597"/><path class="cls-2" d="M1031.098,685.579l-6.121-.285c-4.698-.142-8.399-3.986-8.256-8.683v-.569s.569-6.121.569-6.121c.569-6.121,5.836-10.819,11.958-10.534h0c6.121.142,10.961,5.125,11.104,11.246v6.121c0,4.698-3.559,8.541-8.256,8.968l-.996-.142Z"/><path class="cls-11" d="M1031.098,684.44l-6.121-.285c-4.698-.142-8.399-3.986-8.256-8.683v-.427s.569-6.121.569-6.121c.569-6.121,5.836-10.819,11.958-10.534h0c6.121.142,10.961,5.125,11.104,11.246v6.121c0,4.698-3.559,8.541-8.256,8.968l-.996-.285Z"/><path class="cls-16" d="M1031.098,683.301l-6.121-.285c-4.698-.142-8.399-3.986-8.256-8.683v-.427s.569-6.121.569-6.121c.569-6.121,5.836-10.819,11.958-10.534h0c6.121.142,10.961,5.125,11.104,11.246v6.121c0,4.698-3.559,8.541-8.256,8.968l-.996-.285Z"/><path class="cls-24" d="M1016.293,674.902l.854-7.687c.569-6.121,5.836-10.819,11.958-10.534h0c6.121.142,10.961,5.125,11.104,11.246l.285,7.687"/><path class="cls-1" d="M1066.401,715.758l-73.881.427c-1.566.142-2.989-.996-3.132-2.562v-33.168c.142-1.566,1.566-2.847,3.132-2.705h0l73.881-.427c1.566-.142,2.989.996,3.132,2.562v33.168c-.142,1.566-1.424,2.705-3.132,2.705q.142.142,0,0Z"/><path class="cls-14" d="M1066.401,717.466l-73.881.569c-1.566.142-2.989-.996-3.132-2.562v-33.168c.142-1.566,1.566-2.847,3.132-2.705h0l73.881-.427c1.566-.142,2.989.996,3.132,2.562v33.168c-.142,1.566-1.424,2.705-3.132,2.562h0Z"/><g id="tables-17-3-25-4-9"><path class="cls-20" d="M1030.955,718.605h35.588c1.566.142,2.989-.996,3.132-2.562v-17.652h-38.862s.142,20.214.142,20.214h0Z"/><path class="cls-20" d="M989.246,698.248v17.509c.142,1.566,1.566,2.847,3.132,2.705h38.435v-20.072h-41.567s0-.142,0-.142Z"/><path class="cls-20" d="M1030.955,698.248v-17.936h-38.435c-1.566-.142-2.989.996-3.132,2.562v15.659s41.567-.285,41.567-.285Z"/><path class="cls-20" d="M1069.818,698.248v-15.516c-.142-1.566-1.566-2.847-3.132-2.705h-35.588v18.079s38.72.142,38.72.142Z"/></g><line class="cls-25" x1="1030.955" y1="718.605" x2="1030.955" y2="680.312"/><path class="cls-2" d="M596.398,626.556c-.427,4.698-4.271,8.256-8.968,8.256h-6.121c-6.121-.142-11.104-4.982-11.246-11.104h0c-.285-6.121,4.413-11.388,10.534-11.958l6.121-.569h.427c4.698-.142,8.541,3.559,8.683,8.256l.285,6.121.285.996Z"/><path class="cls-11" d="M595.259,626.556c-.427,4.698-4.271,8.256-8.968,8.256h-6.121c-6.121-.142-11.104-4.982-11.246-11.104h0c-.285-6.121,4.413-11.388,10.534-11.958l6.121-.569h.427c4.698-.142,8.541,3.559,8.683,8.256l.285,6.121.285.996Z"/><path class="cls-16" d="M593.978,626.556c-.427,4.698-4.271,8.256-8.968,8.256h-6.121c-6.121-.142-11.104-4.982-11.246-11.104h0c-.285-6.121,4.413-11.388,10.534-11.958l6.121-.569h.569c4.698-.142,8.541,3.559,8.683,8.256l.285,6.121.142.996Z"/><path class="cls-24" d="M586.29,634.955l-7.687-.285c-6.121-.142-11.104-4.982-11.246-11.104h0c-.285-6.121,4.413-11.388,10.534-11.958l7.687-.854"/><path class="cls-1" d="M626.434,660.721h0c0,1.708-1.281,3.132-2.847,3.132h-33.026c-1.566-.142-2.705-1.566-2.562-3.132l.427-73.881h0c-.142-1.566,1.139-2.989,2.705-3.132h33.168c1.566.142,2.705,1.566,2.562,3.132l-.427,73.881h0Z"/><path class="cls-14" d="M628,661.005c0,1.566-1.139,2.847-2.705,2.847h-33.168c-1.566-.142-2.705-1.566-2.562-3.132l.427-73.881h0c-.142-1.566,1.139-2.989,2.705-3.132h33.168c1.566.142,2.705,1.566,2.562,3.132l-.427,73.881v.285Z"/><g id="tables-17-3-23-4-18"><path class="cls-20" d="M608.782,625.275v38.862s17.652,0,17.652,0c1.566-.142,2.705-1.566,2.562-3.132v-35.588s-20.214-.142-20.214-.142Z"/><path class="cls-20" d="M608.925,625.275h20.072s0-38.435,0-38.435c.142-1.566-1.139-2.989-2.705-3.132h-17.509s.142,41.567.142,41.567Z"/><path class="cls-20" d="M609.067,583.85h-15.659c-1.566.142-2.705,1.566-2.562,3.132v38.435s17.936,0,17.936,0l.285-41.567Z"/><path class="cls-20" d="M608.64,664.28v-38.72s-18.079,0-18.079,0v35.588c-.142,1.566,1.139,2.989,2.705,3.132h15.516s-.142,0-.142,0Z"/></g><line class="cls-25" x1="590.846" y1="625.417" x2="628.996" y2="625.417"/><path class="cls-2" d="M694.163,626.556c-.427,4.698-4.271,8.256-8.968,8.256h-6.121c-6.121-.142-11.104-4.982-11.246-11.104h0c-.285-6.121,4.413-11.388,10.534-11.958l6.121-.569h.427c4.698-.142,8.541,3.559,8.683,8.256l.285,6.121.285.996Z"/><path class="cls-11" d="M693.024,626.556c-.427,4.698-4.271,8.256-8.968,8.256h-6.121c-6.121-.142-11.104-4.982-11.246-11.104h0c-.285-6.121,4.413-11.388,10.534-11.958l6.121-.569h.427c4.698-.142,8.541,3.559,8.683,8.256l.285,6.121.285.996Z"/><path class="cls-16" d="M691.743,626.556c-.427,4.698-4.271,8.256-8.968,8.256h-6.121c-6.121-.142-11.104-4.982-11.246-11.104h0c-.285-6.121,4.413-11.388,10.534-11.958l6.121-.569h.569c4.698-.142,8.541,3.559,8.683,8.256l.285,6.121.142.996Z"/><path class="cls-24" d="M684.056,634.955l-7.687-.285c-6.121-.142-11.104-4.982-11.246-11.104h0c-.285-6.121,4.413-11.388,10.534-11.958l7.687-.854"/><path class="cls-1" d="M724.199,660.721h0c0,1.708-1.281,3.132-2.847,3.132h-33.026c-1.566-.142-2.705-1.566-2.562-3.132l.427-73.881h0c-.142-1.566,1.139-2.989,2.705-3.132h33.168c1.566.142,2.705,1.566,2.562,3.132l-.427,73.881h0Z"/><path class="cls-14" d="M725.765,661.005c0,1.566-1.139,2.847-2.705,2.847h-33.168c-1.566-.142-2.705-1.566-2.562-3.132l.427-73.881h0c-.142-1.566,1.139-2.989,2.705-3.132h33.168c1.566.142,2.705,1.566,2.562,3.132l-.427,73.881v.285Z"/><g id="tables-17-3-23-4-19"><path class="cls-20" d="M706.547,625.275v38.862s17.652,0,17.652,0c1.566-.142,2.705-1.566,2.562-3.132v-35.588s-20.214-.142-20.214-.142Z"/><path class="cls-20" d="M706.69,625.275h20.072s0-38.435,0-38.435c.142-1.566-1.139-2.989-2.705-3.132h-17.509s.142,41.567.142,41.567Z"/><path class="cls-20" d="M706.832,583.85h-15.659c-1.566.142-2.705,1.566-2.562,3.132v38.435s17.936,0,17.936,0l.285-41.567Z"/><path class="cls-20" d="M706.405,664.28v-38.72s-18.079,0-18.079,0v35.588c-.142,1.566,1.139,2.989,2.705,3.132h15.516s-.142,0-.142,0Z"/></g><line class="cls-25" x1="688.611" y1="625.417" x2="726.762" y2="625.417"/><path class="cls-1" d="M751.409,939.696h0c1.989,0,3.647,1.492,3.647,3.316v38.46c-.166,1.824-1.824,3.15-3.647,2.984l-86.038-.497h0c-1.824.166-3.481-1.326-3.647-3.15v-38.626c.166-1.824,1.824-3.15,3.647-2.984l86.038.497h0Z"/><path class="cls-14" d="M751.741,937.873c1.824,0,3.316,1.326,3.316,3.15v38.626c-.166,1.824-1.824,3.15-3.647,2.984l-86.038-.497h0c-1.824.166-3.481-1.326-3.647-3.15v-38.626c.166-1.824,1.824-3.15,3.647-2.984l86.038.497h.332Z"/><g id="tables-17-3-23-4-20"><path class="cls-20" d="M710.131,960.253h45.257s0-20.556,0-20.556c-.166-1.824-1.824-3.15-3.647-2.984h-41.444s-.166,23.54-.166,23.54Z"/><path class="cls-20" d="M710.131,960.087v-23.374s-44.759,0-44.759,0c-1.824-.166-3.481,1.326-3.647,3.15v20.39s48.406-.166,48.406-.166Z"/><path class="cls-20" d="M661.891,959.921v18.235c.166,1.824,1.824,3.15,3.647,2.984h44.759s0-20.888,0-20.888l-48.406-.332Z"/><path class="cls-20" d="M755.554,960.419h-45.091s0,21.053,0,21.053h41.444c1.824.166,3.481-1.326,3.647-3.15v-18.07s0,.166,0,.166Z"/></g><line class="cls-25" x1="710.297" y1="981.14" x2="710.297" y2="936.713"/><path class="cls-4" d="M752.711,1128.071c7.112-.658,13.433,4.609,14.091,11.721v.263h0v.263c.658,7.112-4.609,13.433-11.721,14.091h-.395l-.132.132c-7.112.658-13.433-4.609-14.091-11.721v-.263h0v-.263c-.395-7.243,5.004-13.565,12.248-14.223Z"/><circle class="cls-14" cx="753.501" cy="1139.792" r="13.17"/><circle class="cls-7" cx="753.633" cy="1138.475" r="13.17"/><path class="cls-3" d="M709.5,1153.825l-13.363-3.379c-8.294-2.192-13.102-10.656-11.002-18.858h0l5.573-21.104c1.371-5.069,6.614-8.12,11.683-6.749l24.699,6.578c5.069,1.371,8.12,6.614,6.749,11.683h0l-5.573,21.104c-2.47,8.019-10.657,12.734-18.766,10.725h0Z"/><path class="cls-12" d="M710.603,1152.902l-13.363-3.379c-8.294-2.192-13.102-10.656-11.002-18.858h0l5.573-21.104c1.371-5.069,6.614-8.12,11.683-6.749h0l24.699,6.578c5.069,1.371,8.12,6.614,6.749,11.683h0l-5.573,21.105c-2.193,8.11-10.656,12.918-18.766,10.725Z"/><path class="cls-17" d="M711.523,1152.163l-13.363-3.379c-8.294-2.192-13.102-10.656-11.002-18.858h0l5.573-21.104c1.371-5.069,6.614-8.12,11.683-6.749h0l24.791,6.67c5.069,1.371,8.12,6.614,6.749,11.683h0l-5.573,21.104c-2.377,8.111-10.749,12.826-18.859,10.633h0Z"/><path class="cls-3" d="M687.798,1127.806c-2.285,8.202,2.707,16.665,10.817,18.858h.184s13.363,3.378,13.363,3.378c8.202,2.285,16.665-2.707,18.858-10.817v-.184h0c-15.197.125-30.127-3.711-43.222-11.235"/><path class="cls-18" d="M687.342,1129.741c-2.285,8.202,2.707,16.665,10.817,18.858h.184s13.363,3.378,13.363,3.378c8.202,2.285,16.665-2.707,18.858-10.817v-.184h0c-15.197.309-30.126-3.527-43.222-11.235"/><path class="cls-3" d="M809.331,1120.933l-8.009,11.218c-5.06,6.928-14.692,8.328-21.568,3.387h0l-17.631-12.869c-4.223-3.121-5.157-9.115-2.036-13.338l15.113-20.613c3.121-4.223,9.115-5.157,13.338-2.036h0l17.631,12.869c6.571,5.218,7.984,14.559,3.163,21.382h0Z"/><path class="cls-12" d="M808.872,1119.569l-8.009,11.218c-5.06,6.928-14.692,8.328-21.568,3.387h0l-17.631-12.869c-4.223-3.121-5.157-9.115-2.036-13.338h0l15.113-20.613c3.121-4.223,9.115-5.157,13.338-2.036h0l17.631,12.869c6.757,4.993,8.156,14.626,3.163,21.382Z"/><path class="cls-17" d="M808.518,1118.444l-8.009,11.218c-5.06,6.928-14.692,8.328-21.568,3.387h0l-17.631-12.869c-4.223-3.121-5.157-9.115-2.036-13.338h0l15.232-20.666c3.121-4.223,9.115-5.157,13.338-2.036h0l17.631,12.869c6.69,5.165,8.037,14.678,3.044,21.435h0Z"/><path class="cls-3" d="M777.2,1131.681c6.809,5.112,16.508,3.541,21.501-3.215l.067-.172h0l8.009-11.218c5.112-6.809,3.541-16.508-3.215-21.501l-.172-.067h0c-5.412,14.201-14.417,26.712-26.19,36.173"/><path class="cls-18" d="M778.836,1132.811c6.809,5.112,16.508,3.541,21.501-3.215l.067-.172h0l8.009-11.218c5.112-6.809,3.541-16.508-3.215-21.501l-.172-.067h0c-5.241,14.268-14.245,26.779-26.19,36.173"/></g><g id="Bookable"><rect id="area-07.0702-status" class="cls-5" x="818.83" y="837.454" width="290.985" height="194.445"/><rect id="area-07.0701-status" class="cls-5" x="818.83" y="1030.584" width="290.985" height="133.908"/><g id="Names"><path class="cls-20" d="M938.578,1110.755c-2.379,0-4.047-.833-5.005-2.499s-1.437-4.041-1.437-7.124.479-5.462,1.437-7.137,2.626-2.512,5.005-2.512,4.049.837,5.011,2.512c.953,1.675,1.43,4.054,1.43,7.137s-.479,5.458-1.436,7.124c-.958,1.666-2.626,2.499-5.005,2.499ZM940.729,1106.053c.335-1.134.502-2.773.502-4.921,0-2.25-.17-3.916-.509-4.998s-1.054-1.623-2.145-1.623-1.812.541-2.164,1.623c-.353,1.082-.528,2.748-.528,4.998,0,2.147.176,3.79.528,4.928.352,1.138,1.073,1.707,2.164,1.707s1.808-.571,2.151-1.714Z"/><path class="cls-20" d="M957.604,1097.615c-.979,1.391-1.799,2.825-2.46,4.303-.524,1.159-.996,2.576-1.417,4.251s-.631,3.049-.631,4.122h-3.813c.111-3.35,1.211-6.832,3.298-10.447,1.348-2.241,2.478-3.805,3.388-4.689h-9.313l.052-3.298h13.191v2.873c-.55.541-1.314,1.503-2.294,2.886Z"/><path class="cls-20" d="M959.216,1110.291l7.355-19.567h3.053l-7.381,19.567h-3.027Z"/><path class="cls-20" d="M975.253,1110.755c-2.379,0-4.047-.833-5.005-2.499s-1.437-4.041-1.437-7.124.479-5.462,1.437-7.137,2.626-2.512,5.005-2.512,4.049.837,5.011,2.512c.953,1.675,1.43,4.054,1.43,7.137s-.479,5.458-1.436,7.124c-.958,1.666-2.626,2.499-5.005,2.499ZM977.404,1106.053c.335-1.134.502-2.773.502-4.921,0-2.25-.17-3.916-.509-4.998s-1.054-1.623-2.145-1.623-1.812.541-2.164,1.623c-.353,1.082-.528,2.748-.528,4.998,0,2.147.176,3.79.528,4.928.352,1.138,1.073,1.707,2.164,1.707s1.808-.571,2.151-1.714Z"/><path class="cls-20" d="M992.644,1110.291h-3.762v-12.882h-4.393v-2.499c1.159-.052,1.971-.129,2.435-.232.739-.163,1.34-.489,1.804-.979.317-.335.559-.781.722-1.34.094-.335.142-.584.142-.747h3.053v18.679Z"/><path class="cls-20" d="M938.578,948.939c-2.379,0-4.047-.833-5.005-2.499s-1.437-4.041-1.437-7.124.479-5.462,1.437-7.137,2.626-2.512,5.005-2.512,4.049.837,5.011,2.512c.953,1.675,1.43,4.054,1.43,7.137s-.479,5.458-1.436,7.124c-.958,1.666-2.626,2.499-5.005,2.499ZM940.729,944.237c.335-1.134.502-2.773.502-4.921,0-2.25-.17-3.916-.509-4.998s-1.054-1.623-2.145-1.623-1.812.541-2.164,1.623c-.353,1.082-.528,2.748-.528,4.998,0,2.147.176,3.79.528,4.928.352,1.138,1.073,1.707,2.164,1.707s1.808-.571,2.151-1.714Z"/><path class="cls-20" d="M957.604,935.8c-.979,1.391-1.799,2.825-2.46,4.303-.524,1.159-.996,2.576-1.417,4.251s-.631,3.049-.631,4.122h-3.813c.111-3.35,1.211-6.832,3.298-10.447,1.348-2.241,2.478-3.805,3.388-4.689h-9.313l.052-3.298h13.191v2.873c-.55.541-1.314,1.503-2.294,2.886Z"/><path class="cls-20" d="M959.216,948.476l7.355-19.567h3.053l-7.381,19.567h-3.027Z"/><path class="cls-20" d="M975.253,948.939c-2.379,0-4.047-.833-5.005-2.499s-1.437-4.041-1.437-7.124.479-5.462,1.437-7.137,2.626-2.512,5.005-2.512,4.049.837,5.011,2.512c.953,1.675,1.43,4.054,1.43,7.137s-.479,5.458-1.436,7.124c-.958,1.666-2.626,2.499-5.005,2.499ZM977.404,944.237c.335-1.134.502-2.773.502-4.921,0-2.25-.17-3.916-.509-4.998s-1.054-1.623-2.145-1.623-1.812.541-2.164,1.623c-.353,1.082-.528,2.748-.528,4.998,0,2.147.176,3.79.528,4.928.352,1.138,1.073,1.707,2.164,1.707s1.808-.571,2.151-1.714Z"/><path class="cls-20" d="M991.832,933.597c-.438-.523-1.064-.786-1.881-.786-1.116,0-1.876.417-2.28,1.25-.231.481-.369,1.245-.412,2.293h-3.568c.061-1.589.348-2.873.863-3.852.979-1.863,2.718-2.796,5.218-2.796,1.975,0,3.546.548,4.715,1.643,1.167,1.096,1.752,2.545,1.752,4.348,0,1.383-.413,2.611-1.237,3.685-.541.713-1.43,1.507-2.666,2.383l-1.469,1.044c-.919.652-1.548,1.125-1.888,1.417-.339.292-.624.631-.856,1.018h8.154v3.233h-12.792c.034-1.34.322-2.563.863-3.671.523-1.246,1.761-2.564,3.71-3.955,1.692-1.211,2.787-2.078,3.285-2.603.764-.815,1.146-1.709,1.146-2.68,0-.79-.219-1.446-.657-1.971Z"/><path class="cls-19" d="M934.676,801.678h1.322v9.668h-1.322v-9.668Z"/><path class="cls-19" d="M937.966,804.298h1.125v1c.333-.412.687-.709,1.06-.889s.787-.27,1.244-.27c1,0,1.676.349,2.026,1.046.193.382.29.929.29,1.639v4.521h-1.205v-4.442c0-.43-.063-.776-.19-1.04-.211-.438-.593-.657-1.146-.657-.28,0-.511.028-.69.085-.325.097-.61.29-.855.579-.197.232-.326.473-.385.721-.06.248-.089.603-.089,1.062v3.692h-1.185v-7.048Z"/><path class="cls-19" d="M946.166,809.135c.035.395.136.697.302.908.305.382.833.572,1.585.572.448,0,.842-.096,1.183-.286.34-.191.511-.486.511-.886,0-.303-.137-.532-.408-.69-.174-.097-.518-.208-1.03-.336l-.956-.236c-.611-.149-1.062-.316-1.352-.501-.517-.319-.775-.763-.775-1.329,0-.667.243-1.206.73-1.619.486-.412,1.142-.618,1.964-.618,1.076,0,1.852.312,2.327.935.298.395.442.82.435,1.276h-1.119c-.022-.266-.119-.508-.29-.727-.278-.31-.761-.465-1.448-.465-.458,0-.805.086-1.041.256-.235.171-.354.396-.354.676,0,.306.155.551.465.734.179.109.442.206.791.289l.798.19c.867.207,1.448.406,1.744.6.46.303.69.778.69,1.428,0,.627-.241,1.169-.723,1.625-.482.457-1.216.685-2.202.685-1.062,0-1.813-.237-2.256-.714-.441-.476-.678-1.064-.709-1.767h1.139Z"/><path class="cls-19" d="M956.555,804.491c.466.235.821.539,1.065.912.235.355.393.77.472,1.243.069.325.104.843.104,1.554h-5.127c.021.717.189,1.292.503,1.726s.799.65,1.456.65c.613,0,1.104-.205,1.469-.615.205-.238.35-.514.436-.826h1.165c-.031.259-.133.547-.307.865-.173.318-.366.578-.58.779-.356.352-.799.588-1.325.711-.283.07-.604.105-.96.105-.872,0-1.611-.319-2.218-.957-.605-.639-.909-1.532-.909-2.683,0-1.132.306-2.051.916-2.757s1.408-1.06,2.394-1.06c.497,0,.979.117,1.446.352ZM956.979,807.259c-.048-.514-.159-.924-.333-1.23-.321-.57-.859-.855-1.611-.855-.54,0-.992.196-1.357.589s-.56.892-.581,1.497h3.883Z"/><path class="cls-19" d="M959.729,801.678h1.185v9.668h-1.185v-9.668Z"/><path class="cls-19" d="M972.614,802.08v1.033c-.303.294-.705.805-1.207,1.533-.503.729-.947,1.514-1.333,2.355-.382.82-.671,1.568-.868,2.244-.128.435-.292,1.135-.494,2.1h-1.31c.299-1.799.957-3.589,1.975-5.37.601-1.044,1.232-1.945,1.896-2.705h-5.213v-1.19h6.555Z"/><path class="cls-19" d="M974.353,804.673v-.908c.855-.084,1.452-.223,1.79-.418s.59-.657.757-1.386h.935v9.385h-1.264v-6.673h-2.218Z"/><path class="cls-19" d="M980.854,804.673v-.908c.855-.084,1.452-.223,1.79-.418s.59-.657.757-1.386h.935v9.385h-1.264v-6.673h-2.218Z"/><path class="cls-19" d="M934.179,531.648h1.322v9.668h-1.322v-9.668Z"/><path class="cls-19" d="M937.469,534.268h1.125v1c.333-.412.687-.709,1.06-.889s.787-.27,1.244-.27c1,0,1.676.349,2.026,1.046.193.382.29.929.29,1.639v4.521h-1.205v-4.442c0-.43-.063-.776-.19-1.04-.211-.438-.593-.657-1.146-.657-.28,0-.511.028-.69.085-.325.097-.61.29-.855.579-.197.232-.326.473-.385.721-.06.248-.089.603-.089,1.062v3.692h-1.185v-7.048Z"/><path class="cls-19" d="M945.669,539.105c.035.395.136.697.302.908.305.382.833.572,1.585.572.448,0,.842-.096,1.183-.286.34-.191.511-.486.511-.886,0-.303-.137-.532-.408-.69-.174-.097-.518-.208-1.03-.336l-.956-.236c-.611-.149-1.062-.316-1.352-.501-.517-.319-.775-.763-.775-1.329,0-.667.243-1.206.73-1.619.486-.412,1.142-.618,1.964-.618,1.076,0,1.852.312,2.327.935.298.395.442.82.435,1.276h-1.119c-.022-.266-.119-.508-.29-.727-.278-.31-.761-.465-1.448-.465-.458,0-.805.086-1.041.256-.235.171-.354.396-.354.676,0,.306.155.551.465.734.179.109.442.206.791.289l.798.19c.867.207,1.448.406,1.744.6.46.303.69.778.69,1.428,0,.627-.241,1.169-.723,1.625-.482.457-1.216.685-2.202.685-1.062,0-1.813-.237-2.256-.714-.441-.476-.678-1.064-.709-1.767h1.139Z"/><path class="cls-19" d="M956.058,534.461c.466.235.821.539,1.065.912.235.355.393.77.472,1.243.069.325.104.843.104,1.554h-5.127c.021.717.189,1.292.503,1.726s.799.65,1.456.65c.613,0,1.104-.205,1.469-.615.205-.238.35-.514.436-.826h1.165c-.031.259-.133.547-.307.865-.173.318-.366.578-.58.779-.356.352-.799.588-1.325.711-.283.07-.604.105-.96.105-.872,0-1.611-.319-2.218-.957-.605-.639-.909-1.532-.909-2.683,0-1.132.306-2.051.916-2.757s1.408-1.06,2.394-1.06c.497,0,.979.117,1.446.352ZM956.481,537.229c-.048-.514-.159-.924-.333-1.23-.321-.57-.859-.855-1.611-.855-.54,0-.992.196-1.357.589s-.56.892-.581,1.497h3.883Z"/><path class="cls-19" d="M959.232,531.648h1.185v9.668h-1.185v-9.668Z"/><path class="cls-19" d="M972.117,532.05v1.033c-.303.294-.705.805-1.207,1.533-.503.729-.947,1.514-1.333,2.355-.382.82-.671,1.568-.868,2.244-.128.435-.292,1.135-.494,2.1h-1.31c.299-1.799.957-3.589,1.975-5.37.601-1.044,1.232-1.945,1.896-2.705h-5.213v-1.19h6.555Z"/><path class="cls-19" d="M973.855,534.643v-.908c.855-.084,1.452-.223,1.79-.418s.59-.657.757-1.386h.935v9.385h-1.264v-6.673h-2.218Z"/><path class="cls-19" d="M980.986,539.197c.292-.601.86-1.147,1.708-1.639l1.263-.73c.566-.329.964-.61,1.191-.843.36-.365.54-.782.54-1.253,0-.55-.165-.986-.494-1.309-.329-.323-.768-.485-1.315-.485-.812,0-1.374.309-1.686.924-.166.33-.259.788-.276,1.373h-1.204c.014-.82.165-1.489.454-2.007.514-.913,1.419-1.369,2.718-1.369,1.08,0,1.868.292,2.366.875.498.584.747,1.233.747,1.948,0,.755-.266,1.399-.797,1.935-.307.312-.857.689-1.651,1.132l-.901.501c-.431.236-.769.463-1.014.678-.438.382-.715.805-.829,1.27h5.146v1.119h-6.47c.044-.812.212-1.518.504-2.119Z"/><path class="cls-19" d="M922.615,393.659h1.322v9.668h-1.322v-9.668Z"/><path class="cls-19" d="M925.905,396.279h1.125v1c.333-.412.687-.709,1.06-.889s.787-.27,1.244-.27c1,0,1.676.349,2.026,1.046.193.382.29.929.29,1.639v4.521h-1.205v-4.442c0-.43-.063-.776-.19-1.04-.211-.438-.593-.657-1.146-.657-.28,0-.511.028-.69.085-.325.097-.61.29-.855.579-.197.232-.326.473-.385.721-.06.248-.089.603-.089,1.062v3.692h-1.185v-7.048Z"/><path class="cls-19" d="M934.105,401.116c.035.395.136.697.302.908.305.382.833.572,1.585.572.448,0,.842-.096,1.183-.286.34-.191.511-.486.511-.886,0-.303-.137-.532-.408-.69-.174-.097-.518-.208-1.03-.336l-.956-.236c-.611-.149-1.062-.316-1.352-.501-.517-.319-.775-.763-.775-1.329,0-.667.243-1.206.73-1.619.486-.412,1.142-.618,1.964-.618,1.076,0,1.852.312,2.327.935.298.395.442.82.435,1.276h-1.119c-.022-.266-.119-.508-.29-.727-.278-.31-.761-.465-1.448-.465-.458,0-.805.086-1.041.256-.235.171-.354.396-.354.676,0,.306.155.551.465.734.179.109.442.206.791.289l.798.19c.867.207,1.448.406,1.744.6.46.303.69.778.69,1.428,0,.627-.241,1.169-.723,1.625-.482.457-1.216.685-2.202.685-1.062,0-1.813-.237-2.256-.714-.441-.476-.678-1.064-.709-1.767h1.139Z"/><path class="cls-19" d="M944.494,396.473c.466.235.821.539,1.065.912.235.355.393.77.472,1.243.069.325.104.843.104,1.554h-5.127c.021.717.189,1.292.503,1.726s.799.65,1.456.65c.613,0,1.104-.205,1.469-.615.205-.238.35-.514.436-.826h1.165c-.031.259-.133.547-.307.865-.173.318-.366.578-.58.779-.356.352-.799.588-1.325.711-.283.07-.604.105-.96.105-.872,0-1.611-.319-2.218-.957-.605-.639-.909-1.532-.909-2.683,0-1.132.306-2.051.916-2.757s1.408-1.06,2.394-1.06c.497,0,.979.117,1.446.352ZM944.918,399.24c-.048-.514-.159-.924-.333-1.23-.321-.57-.859-.855-1.611-.855-.54,0-.992.196-1.357.589s-.56.892-.581,1.497h3.883Z"/><path class="cls-19" d="M947.669,393.659h1.185v9.668h-1.185v-9.668Z"/><path class="cls-19" d="M960.554,394.062v1.033c-.303.294-.705.805-1.207,1.533-.503.729-.947,1.514-1.333,2.355-.382.82-.671,1.568-.868,2.244-.128.435-.292,1.135-.494,2.1h-1.31c.299-1.799.957-3.589,1.975-5.37.601-1.044,1.232-1.945,1.896-2.705h-5.213v-1.19h6.555Z"/><path class="cls-19" d="M962.292,396.654v-.908c.855-.084,1.452-.223,1.79-.418s.59-.657.757-1.386h.935v9.385h-1.264v-6.673h-2.218Z"/><path class="cls-19" d="M969.574,402.666c-.503-.612-.754-1.357-.754-2.234h1.237c.053.609.167,1.053.343,1.329.307.496.861.744,1.665.744.622,0,1.123-.167,1.5-.501.377-.333.566-.763.566-1.289,0-.649-.199-1.104-.596-1.362-.397-.259-.949-.389-1.655-.389-.079,0-.159,0-.24.003-.081.003-.164.006-.247.011v-1.047c.123.014.226.022.31.026.083.005.173.007.27.007.443,0,.808-.07,1.093-.211.5-.245.75-.685.75-1.316,0-.469-.167-.831-.5-1.086-.334-.254-.722-.381-1.165-.381-.79,0-1.336.263-1.639.789-.167.29-.261.702-.283,1.237h-1.171c0-.702.141-1.299.421-1.79.482-.877,1.332-1.316,2.547-1.316.961,0,1.704.214,2.231.642.526.428.789,1.048.789,1.859,0,.579-.155,1.049-.467,1.408-.193.224-.443.399-.75.526.495.137.883.398,1.161.787.278.388.418.863.418,1.425,0,.899-.296,1.632-.889,2.197-.592.566-1.433.85-2.521.85-1.114,0-1.923-.307-2.425-.918Z"/><path class="cls-19" d="M667.637,393.659h1.322v9.668h-1.322v-9.668Z"/><path class="cls-19" d="M670.927,396.279h1.125v1c.333-.412.687-.709,1.06-.889s.787-.27,1.244-.27c1,0,1.676.349,2.026,1.046.193.382.29.929.29,1.639v4.521h-1.205v-4.442c0-.43-.063-.776-.19-1.04-.211-.438-.593-.657-1.146-.657-.28,0-.511.028-.69.085-.325.097-.61.29-.855.579-.197.232-.326.473-.385.721-.06.248-.089.603-.089,1.062v3.692h-1.185v-7.048Z"/><path class="cls-19" d="M679.127,401.116c.035.395.136.697.302.908.305.382.833.572,1.585.572.448,0,.842-.096,1.183-.286.34-.191.511-.486.511-.886,0-.303-.137-.532-.408-.69-.174-.097-.518-.208-1.03-.336l-.956-.236c-.611-.149-1.062-.316-1.352-.501-.517-.319-.775-.763-.775-1.329,0-.667.243-1.206.73-1.619.486-.412,1.142-.618,1.964-.618,1.076,0,1.852.312,2.327.935.298.395.442.82.435,1.276h-1.119c-.022-.266-.119-.508-.29-.727-.278-.31-.761-.465-1.448-.465-.458,0-.805.086-1.041.256-.235.171-.354.396-.354.676,0,.306.155.551.465.734.179.109.442.206.791.289l.798.19c.867.207,1.448.406,1.744.6.46.303.69.778.69,1.428,0,.627-.241,1.169-.723,1.625-.482.457-1.216.685-2.202.685-1.062,0-1.813-.237-2.256-.714-.441-.476-.678-1.064-.709-1.767h1.139Z"/><path class="cls-19" d="M689.516,396.473c.466.235.821.539,1.065.912.235.355.393.77.472,1.243.069.325.104.843.104,1.554h-5.127c.021.717.189,1.292.503,1.726s.799.65,1.456.65c.613,0,1.104-.205,1.469-.615.205-.238.35-.514.436-.826h1.165c-.031.259-.133.547-.307.865-.173.318-.366.578-.58.779-.356.352-.799.588-1.325.711-.283.07-.604.105-.96.105-.872,0-1.611-.319-2.218-.957-.605-.639-.909-1.532-.909-2.683,0-1.132.306-2.051.916-2.757s1.408-1.06,2.394-1.06c.497,0,.979.117,1.446.352ZM689.939,399.24c-.048-.514-.159-.924-.333-1.23-.321-.57-.859-.855-1.611-.855-.54,0-.992.196-1.357.589s-.56.892-.581,1.497h3.883Z"/><path class="cls-19" d="M692.69,393.659h1.185v9.668h-1.185v-9.668Z"/><path class="cls-19" d="M705.575,394.062v1.033c-.303.294-.705.805-1.207,1.533-.503.729-.947,1.514-1.333,2.355-.382.82-.671,1.568-.868,2.244-.128.435-.292,1.135-.494,2.1h-1.31c.299-1.799.957-3.589,1.975-5.37.601-1.044,1.232-1.945,1.896-2.705h-5.213v-1.19h6.555Z"/><path class="cls-19" d="M707.313,396.654v-.908c.855-.084,1.452-.223,1.79-.418s.59-.657.757-1.386h.935v9.385h-1.264v-6.673h-2.218Z"/><path class="cls-19" d="M717.994,403.327v-2.304h-4.133v-1.158l4.317-5.988h1.001v6.113h1.388v1.033h-1.388v2.304h-1.186ZM717.975,399.99v-4.28l-3.021,4.28h3.021Z"/><path class="cls-19" d="M411.322,393.659h1.322v9.668h-1.322v-9.668Z"/><path class="cls-19" d="M414.612,396.279h1.125v1c.333-.412.687-.709,1.06-.889s.787-.27,1.244-.27c1,0,1.676.349,2.026,1.046.193.382.29.929.29,1.639v4.521h-1.205v-4.442c0-.43-.063-.776-.19-1.04-.211-.438-.593-.657-1.146-.657-.28,0-.511.028-.69.085-.325.097-.61.29-.855.579-.197.232-.326.473-.385.721-.06.248-.089.603-.089,1.062v3.692h-1.185v-7.048Z"/><path class="cls-19" d="M422.812,401.116c.035.395.136.697.302.908.305.382.833.572,1.585.572.448,0,.842-.096,1.183-.286.34-.191.511-.486.511-.886,0-.303-.137-.532-.408-.69-.174-.097-.518-.208-1.03-.336l-.956-.236c-.611-.149-1.062-.316-1.352-.501-.517-.319-.775-.763-.775-1.329,0-.667.243-1.206.73-1.619.486-.412,1.142-.618,1.964-.618,1.076,0,1.852.312,2.327.935.298.395.442.82.435,1.276h-1.119c-.022-.266-.119-.508-.29-.727-.278-.31-.761-.465-1.448-.465-.458,0-.805.086-1.041.256-.235.171-.354.396-.354.676,0,.306.155.551.465.734.179.109.442.206.791.289l.798.19c.867.207,1.448.406,1.744.6.46.303.69.778.69,1.428,0,.627-.241,1.169-.723,1.625-.482.457-1.216.685-2.202.685-1.062,0-1.813-.237-2.256-.714-.441-.476-.678-1.064-.709-1.767h1.139Z"/><path class="cls-19" d="M433.201,396.473c.466.235.821.539,1.065.912.235.355.393.77.472,1.243.069.325.104.843.104,1.554h-5.127c.021.717.189,1.292.503,1.726s.799.65,1.456.65c.613,0,1.104-.205,1.469-.615.205-.238.35-.514.436-.826h1.165c-.031.259-.133.547-.307.865-.173.318-.366.578-.58.779-.356.352-.799.588-1.325.711-.283.07-.604.105-.96.105-.872,0-1.611-.319-2.218-.957-.605-.639-.909-1.532-.909-2.683,0-1.132.306-2.051.916-2.757s1.408-1.06,2.394-1.06c.497,0,.979.117,1.446.352ZM433.625,399.24c-.048-.514-.159-.924-.333-1.23-.321-.57-.859-.855-1.611-.855-.54,0-.992.196-1.357.589s-.56.892-.581,1.497h3.883Z"/><path class="cls-19" d="M436.375,393.659h1.185v9.668h-1.185v-9.668Z"/><path class="cls-19" d="M449.26,394.062v1.033c-.303.294-.705.805-1.207,1.533-.503.729-.947,1.514-1.333,2.355-.382.82-.671,1.568-.868,2.244-.128.435-.292,1.135-.494,2.1h-1.31c.299-1.799.957-3.589,1.975-5.37.601-1.044,1.232-1.945,1.896-2.705h-5.213v-1.19h6.555Z"/><path class="cls-19" d="M450.999,396.654v-.908c.855-.084,1.452-.223,1.79-.418s.59-.657.757-1.386h.935v9.385h-1.264v-6.673h-2.218Z"/><path class="cls-19" d="M458.87,400.925c.079.676.393,1.144.941,1.402.28.131.605.197.974.197.702,0,1.222-.224,1.56-.672.338-.447.507-.942.507-1.487,0-.657-.201-1.167-.603-1.526s-.883-.54-1.444-.54c-.408,0-.758.079-1.05.237-.291.158-.54.377-.747.658l-1.026-.06.718-5.073h4.896v1.145h-4.008l-.402,2.619c.22-.166.428-.292.626-.375.351-.145.757-.217,1.217-.217.864,0,1.598.278,2.198.836.602.557.901,1.263.901,2.119,0,.891-.275,1.676-.825,2.355-.551.68-1.43,1.021-2.636,1.021-.769,0-1.447-.217-2.037-.648-.59-.433-.92-1.096-.99-1.991h1.23Z"/><path class="cls-19" d="M548.065,650.188c.422.776.632,1.841.632,3.191,0,1.281-.19,2.341-.572,3.179-.553,1.202-1.457,1.804-2.711,1.804-1.132,0-1.975-.491-2.527-1.475-.461-.82-.691-1.921-.691-3.304,0-1.07.139-1.989.415-2.757.518-1.431,1.454-2.146,2.81-2.146,1.22,0,2.102.502,2.646,1.507ZM546.874,656.467c.364-.544.547-1.558.547-3.04,0-1.071-.132-1.952-.396-2.643-.264-.691-.775-1.036-1.536-1.036-.698,0-1.209.327-1.532.983s-.484,1.622-.484,2.899c0,.96.103,1.732.31,2.316.316.891.856,1.336,1.621,1.336.615,0,1.105-.272,1.471-.816Z"/><path class="cls-19" d="M556.318,648.84v1.033c-.303.294-.705.805-1.207,1.533-.503.729-.947,1.514-1.333,2.355-.382.82-.671,1.568-.868,2.244-.128.435-.292,1.135-.494,2.1h-1.31c.299-1.799.957-3.589,1.975-5.37.601-1.044,1.232-1.945,1.896-2.705h-5.213v-1.19h6.555Z"/><path class="cls-19" d="M558.056,651.433v-.908c.855-.084,1.452-.223,1.79-.418s.59-.657.757-1.386h.935v9.385h-1.264v-6.673h-2.218Z"/><path class="cls-19" d="M570.553,650.188c.422.776.632,1.841.632,3.191,0,1.281-.19,2.341-.572,3.179-.553,1.202-1.457,1.804-2.711,1.804-1.132,0-1.975-.491-2.527-1.475-.461-.82-.691-1.921-.691-3.304,0-1.07.139-1.989.415-2.757.518-1.431,1.454-2.146,2.81-2.146,1.22,0,2.102.502,2.646,1.507ZM569.361,656.467c.364-.544.547-1.558.547-3.04,0-1.071-.132-1.952-.396-2.643-.264-.691-.775-1.036-1.536-1.036-.698,0-1.209.327-1.532.983s-.484,1.622-.484,2.899c0,.96.103,1.732.31,2.316.316.891.856,1.336,1.621,1.336.615,0,1.105-.272,1.471-.816Z"/><path class="cls-19" d="M573.423,655.703c.079.676.393,1.144.941,1.402.28.131.605.197.974.197.702,0,1.222-.224,1.56-.672.338-.447.507-.942.507-1.487,0-.657-.201-1.167-.603-1.526s-.883-.54-1.444-.54c-.408,0-.758.079-1.05.237-.291.158-.54.377-.747.658l-1.026-.06.718-5.073h4.896v1.145h-4.008l-.402,2.619c.22-.166.428-.292.626-.375.351-.145.757-.217,1.217-.217.864,0,1.598.278,2.198.836.602.557.901,1.263.901,2.119,0,.891-.275,1.676-.825,2.355-.551.68-1.43,1.021-2.636,1.021-.769,0-1.447-.217-2.037-.648-.59-.433-.92-1.096-.99-1.991h1.23Z"/><path class="cls-19" d="M646.917,650.188c.422.776.632,1.841.632,3.191,0,1.281-.19,2.341-.572,3.179-.553,1.202-1.457,1.804-2.711,1.804-1.132,0-1.975-.491-2.527-1.475-.461-.82-.691-1.921-.691-3.304,0-1.07.139-1.989.415-2.757.518-1.431,1.454-2.146,2.81-2.146,1.22,0,2.102.502,2.646,1.507ZM645.726,656.467c.364-.544.547-1.558.547-3.04,0-1.071-.132-1.952-.396-2.643-.264-.691-.775-1.036-1.536-1.036-.698,0-1.209.327-1.532.983s-.484,1.622-.484,2.899c0,.96.103,1.732.31,2.316.316.891.856,1.336,1.621,1.336.615,0,1.105-.272,1.471-.816Z"/><path class="cls-19" d="M655.17,648.84v1.033c-.303.294-.705.805-1.207,1.533-.503.729-.947,1.514-1.333,2.355-.382.82-.671,1.568-.868,2.244-.128.435-.292,1.135-.494,2.1h-1.31c.299-1.799.957-3.589,1.975-5.37.601-1.044,1.232-1.945,1.896-2.705h-5.213v-1.19h6.555Z"/><path class="cls-19" d="M656.907,651.433v-.908c.855-.084,1.452-.223,1.79-.418s.59-.657.757-1.386h.935v9.385h-1.264v-6.673h-2.218Z"/><path class="cls-19" d="M669.404,650.188c.422.776.632,1.841.632,3.191,0,1.281-.19,2.341-.572,3.179-.553,1.202-1.457,1.804-2.711,1.804-1.132,0-1.975-.491-2.527-1.475-.461-.82-.691-1.921-.691-3.304,0-1.07.139-1.989.415-2.757.518-1.431,1.454-2.146,2.81-2.146,1.22,0,2.102.502,2.646,1.507ZM668.213,656.467c.364-.544.547-1.558.547-3.04,0-1.071-.132-1.952-.396-2.643-.264-.691-.775-1.036-1.536-1.036-.698,0-1.209.327-1.532.983s-.484,1.622-.484,2.899c0,.96.103,1.732.31,2.316.316.891.856,1.336,1.621,1.336.615,0,1.105-.272,1.471-.816Z"/><path class="cls-19" d="M675.084,658.105v-2.304h-4.133v-1.158l4.317-5.988h1.001v6.113h1.388v1.033h-1.388v2.304h-1.186ZM675.064,654.769v-4.28l-3.021,4.28h3.021Z"/></g></g><g id="Stroke"><polyline class="cls-22" points="180.701 227.758 181.44 108.771 1087.227 108.771 1087.227 144.912 1109.815 144.912 1109.815 1163.64 691.933 1163.64 691.933 1215.593 676.447 1215.593"/><line class="cls-22" x1="180.035" y1="334.979" x2="180.432" y2="271.1"/><line class="cls-22" x1="179.568" y1="410.272" x2="179.788" y2="374.899"/><polyline class="cls-22" points="496.154 1215.593 120.452 1215.593 120.452 673.476 201.77 673.476 201.77 481.476 179.126 481.476 179.263 459.316"/><line class="cls-22" x1="621.697" y1="1215.593" x2="560.534" y2="1215.593"/><polyline class="cls-23" points="307.934 108.771 307.934 410.272 307.934 392.585 179.568 392.585 307.934 392.585 307.934 284.959 180.701 284.959"/><polyline class="cls-23" points="307.934 467.923 307.934 484.865 279.134 484.865 279.134 672.911 728.921 672.911 728.921 682.229 728.921 575.076 705.204 575.076 728.921 575.076 728.921 672.911 628.969 672.911 628.969 575.076 637.439 575.076 610.333 575.076 628.969 575.076 628.969 672.911 533.251 672.911 533.251 575.076 542.569 575.076"/><polyline class="cls-23" points="365.534 575.076 374.852 575.076 374.852 672.911 279.134 672.911 279.134 575.076 316.405 575.076"/><polyline class="cls-23" points="728.921 724.342 728.921 842.562 740.332 842.562 598.177 842.562 598.177 781.041 598.177 1215.593"/><line class="cls-23" x1="279.134" y1="672.911" x2="279.134" y2="715.43"/><polyline class="cls-23" points="279.134 758.867 279.134 962.866 496.154 962.866 441.858 962.866 441.858 919.429"/><polyline class="cls-23" points="444.961 837.454 444.961 814.715 279.134 814.715 598.177 814.715 399.197 814.715 399.197 672.911"/><line class="cls-23" x1="560.534" y1="962.866" x2="598.177" y2="962.866"/><polyline class="cls-23" points="201.77 673.476 201.77 1046.637 220.019 1046.637 120.452 1046.637"/><polyline class="cls-23" points="260.353 1046.637 475.987 1046.637 475.987 1215.593"/><polyline class="cls-22" points="796.335 841.863 1109.815 841.863 820.381 841.863 820.381 852.722"/><polyline class="cls-22" points="818.83 897.71 818.83 1044.31 818.83 1031.9 1109.815 1031.9"/><line class="cls-22" x1="818.83" y1="1086.972" x2="818.83" y2="1163.64"/><line class="cls-23" x1="598.177" y1="728.765" x2="598.177" y2="672.911"/></g><g id="Icons"><g class="cls-6"><path class="cls-8" d="M473.916,785.208v-9h6.5v1.1h-5.4v2.8h5v1.1h-5v3.1h5.5v1.1h-6.6v-.2h0Z"/><path class="cls-8" d="M482.116,785.208v-9h1.1v9h-1.1Z"/><path class="cls-8" d="M489.516,783.108l1.1.1c-.1.6-.5,1.2-1,1.6-.5.4-1.1.6-1.8.6-1,0-1.7-.2-2.3-.9-.6-.6-.9-1.5-.9-2.4,0-1.1.2-2,.9-2.6.6-.6,1.3-.9,2.2-.9s1.6.2,2.2.9c.6.6.9,1.5.9,2.6v.2h-5c0,.7.2,1.2.6,1.6s.9.6,1.3.6.7-.1,1.1-.4c.2-.1.4-.5.7-1ZM485.816,781.408h3.7c0-.6-.2-1-.4-1.2-.4-.4-.9-.6-1.3-.6s-1,.1-1.2.5c-.6.2-.8.7-.8,1.3Z"/><path class="cls-8" d="M493.816,785.208l-2.4-6.5h1.2l1.3,3.9c.1.4.2.9.4,1.3.1-.4.2-.7.4-1.2l1.5-4h1.1l-2.4,6.5h-1.1Z"/><path class="cls-8" d="M502.616,784.508c-.4.4-.9.6-1.2.7-.4.1-.7.2-1.2.2-.7,0-1.2-.1-1.7-.5s-.6-.9-.6-1.3.1-.6.2-.9c.1-.2.4-.5.6-.6.2-.1.5-.2.9-.4.2,0,.5-.1,1-.1.9-.1,1.6-.2,2-.4v-.2c0-.5-.1-.7-.4-1-.2-.2-.7-.4-1.2-.4s-.9.1-1.1.2-.5.5-.6,1l-1.1-.1c.1-.5.2-.9.5-1.1.2-.2.6-.5,1-.6s1-.2,1.5-.2c.6,0,1,.1,1.3.2s.6.2.7.5c.1.2.2.5.4.7v2.5c0,1,0,1.7.1,2,0,.2.1.5.2.7h-1.1c-.1-.3-.2-.7-.2-.9ZM502.416,782.008c-.4.1-1,.2-1.8.4-.5.1-.7.1-1,.2-.2.1-.4.2-.5.4-.1.1-.1.4-.1.5,0,.2.1.5.4.7s.6.2,1,.2.9-.1,1.1-.2c.4-.2.6-.5.7-.7s.1-.6.1-1.1l.1-.4h0Z"/><path class="cls-8" d="M507.716,784.208l.1,1c-.4.1-.6.1-.9.1-.4,0-.7-.1-1-.2-.2-.1-.4-.2-.5-.5-.1-.2-.1-.6-.1-1.3v-3.8h-.9v-.9h.9v-1.6l1.1-.6v2.3h1.1v.9h-1.1v4.4c0,.1.1.1.2.2s.2.1.4.1c.3,0,.6,0,.7-.1Z"/><path class="cls-8" d="M508.416,782.008c0-1.2.4-2.1,1-2.7.6-.5,1.2-.7,2.1-.7s1.6.2,2.2.9c.6.6.9,1.3.9,2.4,0,.9-.1,1.5-.4,2-.2.5-.6.9-1.1,1.1-.5.2-1,.4-1.6.4-.9,0-1.7-.2-2.2-.9-.6-.5-.9-1.4-.9-2.5ZM509.516,782.008c0,.9.1,1.5.5,1.8.4.4.9.6,1.3.6.5,0,1-.2,1.3-.6.4-.4.5-1.1.5-2s-.2-1.5-.6-1.8c-.4-.4-.9-.6-1.3-.6-.6,0-1,.2-1.3.6-.4.4-.4,1.1-.4,2Z"/><path class="cls-8" d="M515.816,785.208v-6.5h1v1c.2-.5.5-.7.7-1,.2-.1.5-.2.7-.2.4,0,.7.1,1.1.4l-.4,1c-.2-.1-.5-.2-.9-.2-.2,0-.5.1-.6.2-.2.1-.4.4-.4.6-.1.4-.2.9-.2,1.3v3.4h-1Z"/></g><circle class="cls-21" cx="495.316" cy="742.608" r="26.7"/><path class="cls-26" d="M488.016,753.108v-16.1h5.4v16.1h-5.4ZM493.916,753.108v-16.1h5.4v16.1h-5.4ZM506.016,753.108h-6.2v-16.4c0-.1-.1-.2-.2-.2h-11.6c-.1,0-.2.1-.2.2h0v16.4h-3v-21.1h21.2v21.1ZM506.116,731.608h-21.5c-.1,0-.2.1-.2.2h0v21.5c0,.1.1.2.2.2h21.5c.1,0,.2-.1.2-.2h0v-21.6c0-.1-.1-.1-.2-.1Z"/><path class="cls-26" d="M492.016,734.408h3.3c.1,0,.2,0,.2-.1s0-.2-.1-.2h-3.4c-.1,0-.2,0-.2.2-.1,0,0,.1.2.1Z"/><path class="cls-26" d="M502.216,743.508l.6-.6.6.6c.1.1.2,0,.4-.1h0v-.2l-.9-.9c-.1-.1-.2-.1-.2,0h0l-.9.9c-.1.1,0,.2.1.4h0s.2,0,.3-.1h0Z"/><path class="cls-26" d="M502.716,746.108h0q.2.1.2,0l.9-.9c.1-.1.1-.2,0-.4h0c0-.1-.1-.1-.2-.1h0l-.1.1-.6.6-.6-.6c-.1-.1-.2-.1-.4-.1s-.1.2-.1.4l.1.1.8.9Z"/><g class="cls-6"><path class="cls-8" d="M276.82,1164.291v-9h6.5v1.1h-5.4v2.8h5v1.1h-5v3.1h5.5v1.1h-6.6v-.2h0Z"/><path class="cls-8" d="M285.02,1164.291v-9h1.1v9h-1.1Z"/><path class="cls-8" d="M292.42,1162.191l1.1.1c-.1.6-.5,1.2-1,1.6-.5.4-1.1.6-1.8.6-1,0-1.7-.2-2.3-.9-.6-.6-.9-1.5-.9-2.4,0-1.1.2-2,.9-2.6.6-.6,1.3-.9,2.2-.9s1.6.2,2.2.9c.6.6.9,1.5.9,2.6v.2h-5c0,.7.2,1.2.6,1.6s.9.6,1.3.6.7-.1,1.1-.4c.2-.1.4-.5.7-1ZM288.72,1160.491h3.7c0-.6-.2-1-.4-1.2-.4-.4-.9-.6-1.3-.6s-1,.1-1.2.5c-.6.2-.8.7-.8,1.3Z"/><path class="cls-8" d="M296.72,1164.291l-2.4-6.5h1.2l1.3,3.9c.1.4.2.9.4,1.3.1-.4.2-.7.4-1.2l1.5-4h1.1l-2.4,6.5h-1.1Z"/><path class="cls-8" d="M305.52,1163.591c-.4.4-.9.6-1.2.7-.4.1-.7.2-1.2.2-.7,0-1.2-.1-1.7-.5s-.6-.9-.6-1.3.1-.6.2-.9c.1-.2.4-.5.6-.6.2-.1.5-.2.9-.4.2,0,.5-.1,1-.1.9-.1,1.6-.2,2-.4v-.2c0-.5-.1-.7-.4-1-.2-.2-.7-.4-1.2-.4s-.9.1-1.1.2-.5.5-.6,1l-1.1-.1c.1-.5.2-.9.5-1.1.2-.2.6-.5,1-.6s1-.2,1.5-.2c.6,0,1,.1,1.3.2s.6.2.7.5c.1.2.2.5.4.7v2.5c0,1,0,1.7.1,2,0,.2.1.5.2.7h-1.1c-.1-.3-.2-.7-.2-.9ZM305.32,1161.091c-.4.1-1,.2-1.8.4-.5.1-.7.1-1,.2-.2.1-.4.2-.5.4-.1.1-.1.4-.1.5,0,.2.1.5.4.7s.6.2,1,.2.9-.1,1.1-.2c.4-.2.6-.5.7-.7s.1-.6.1-1.1l.1-.4h0Z"/><path class="cls-8" d="M310.62,1163.291l.1,1c-.4.1-.6.1-.9.1-.4,0-.7-.1-1-.2-.2-.1-.4-.2-.5-.5-.1-.2-.1-.6-.1-1.3v-3.8h-.9v-.9h.9v-1.6l1.1-.6v2.3h1.1v.9h-1.1v4.4c0,.1.1.1.2.2s.2.1.4.1c.3,0,.6,0,.7-.1Z"/><path class="cls-8" d="M311.32,1161.091c0-1.2.4-2.1,1-2.7.6-.5,1.2-.7,2.1-.7s1.6.2,2.2.9c.6.6.9,1.3.9,2.4,0,.9-.1,1.5-.4,2-.2.5-.6.9-1.1,1.1-.5.2-1,.4-1.6.4-.9,0-1.7-.2-2.2-.9-.6-.5-.9-1.4-.9-2.5ZM312.42,1161.091c0,.9.1,1.5.5,1.8.4.4.9.6,1.3.6.5,0,1-.2,1.3-.6.4-.4.5-1.1.5-2s-.2-1.5-.6-1.8c-.4-.4-.9-.6-1.3-.6-.6,0-1,.2-1.3.6-.4.4-.4,1.1-.4,2Z"/><path class="cls-8" d="M318.72,1164.291v-6.5h1v1c.2-.5.5-.7.7-1,.2-.1.5-.2.7-.2.4,0,.7.1,1.1.4l-.4,1c-.2-.1-.5-.2-.9-.2-.2,0-.5.1-.6.2-.2.1-.4.4-.4.6-.1.4-.2.9-.2,1.3v3.4h-1Z"/></g><circle class="cls-21" cx="298.22" cy="1121.691" r="26.7"/><path class="cls-26" d="M290.92,1132.191v-16.1h5.4v16.1h-5.4ZM296.82,1132.191v-16.1h5.4v16.1h-5.4ZM308.92,1132.191h-6.2v-16.4c0-.1-.1-.2-.2-.2h-11.6c-.1,0-.2.1-.2.2h0v16.4h-3v-21.1h21.2v21.1ZM309.02,1110.691h-21.5c-.1,0-.2.1-.2.2h0v21.5c0,.1.1.2.2.2h21.5c.1,0,.2-.1.2-.2h0v-21.6c0-.1-.1-.1-.2-.1Z"/><path class="cls-26" d="M294.92,1113.491h3.3c.1,0,.2,0,.2-.1s0-.2-.1-.2h-3.4c-.1,0-.2,0-.2.2-.1,0,0,.1.2.1Z"/><path class="cls-26" d="M305.12,1122.591l.6-.6.6.6c.1.1.2,0,.4-.1h0v-.2l-.9-.9c-.1-.1-.2-.1-.2,0h0l-.9.9c-.1.1,0,.2.1.4h0s.2,0,.3-.1h0Z"/><path class="cls-26" d="M305.62,1125.191h0q.2.1.2,0l.9-.9c.1-.1.1-.2,0-.4h0c0-.1-.1-.1-.2-.1h0l-.1.1-.6.6-.6-.6c-.1-.1-.2-.1-.4-.1s-.1.2-.1.4l.1.1.8.9Z"/></g></svg>