<?xml version="1.0" encoding="utf-8"?>
<!-- Generator: Adobe Illustrator 26.2.1, SVG Export Plug-In . SVG Version: 6.00 Build 0)  -->
<svg version="1.1" id="Layer_1" xmlns="http://www.w3.org/2000/svg" xmlns:xlink="http://www.w3.org/1999/xlink" x="0px" y="0px"
	 viewBox="0 0 843.7 658.2" style="enable-background:new 0 0 843.7 658.2;" xml:space="preserve">
<style type="text/css">
	.st0{fill:#4196B1;}
	.st1{fill:#99C5C6;}
	.st2{fill:#A8E0E5;}
	.st3{fill:#8ECCCE;}
	.st4{fill:#99B8BF;}
	.st5{fill:#FFFFFF;}
	.st6{opacity:0.15;fill:#010101;enable-background:new    ;}
	.st7{fill:#596068;}
	.st8{fill:#9BAEB7;}
	.st9{fill:none;stroke:#7A8E93;stroke-width:1.992;stroke-linecap:round;stroke-miterlimit:10;}
	.st10{fill:#646B6D;}
	.st11{fill:#EBF2F2;}
	.st12{enable-background:new    ;}
	.st13{fill:none;stroke:#7A8E93;stroke-width:0.709;stroke-miterlimit:10;}
	.st14{fill:none;stroke:#EBF2F2;stroke-width:6;stroke-miterlimit:10;}
	.st15{fill:none;stroke:#EBF2F2;stroke-width:3;stroke-miterlimit:10;}
</style>
<g id="background">
	<polygon class="st0" points="46.5,84.9 46.5,284.9 39.5,284.9 39.5,407.7 33.2,407.7 33.2,549.7 643.7,549.7 643.7,638.8 
		729.3,623.5 820.5,638.8 820.5,612.7 820.5,29.1 733.8,40.2 643,29.1 643,114.7 546.4,114.7 546.4,85.7 	"/>
</g>
<g id="spaces">
	<polygon class="st1" points="46.5,84.9 547.3,84.9 547.3,113.6 553.9,113.6 553.9,237.1 645.8,237.1 645.8,29.1 735.2,40 
		820.5,29.1 820.5,627.7 731.7,613.8 643.7,627.7 643.7,541.6 33.2,541.6 33.2,458.3 155.9,458.3 155.9,372.3 160.4,372.3 
		160.4,284.9 46.5,284.9 	"/>
	<polygon class="st2" points="46.5,228.9 523.7,228.9 519.6,284.6 592.7,284.6 592.7,373.5 552.2,373.5 515.2,373.5 505.4,458.3 
		33.2,458.3 33.2,407.7 39.5,407.7 39.5,284.8 46.5,284.8 	"/>
	<rect x="553.9" y="114.8" class="st3" width="91.9" height="122.3"/>
	<rect x="39.5" y="284.9" class="st3" width="120.9" height="86.8"/>
	<polygon class="st3" points="155.9,372.3 155.9,457.4 35,457.4 35,406.7 39.7,406.7 39.7,371.2 	"/>
	<polygon class="st3" points="333,420.9 267.1,420.9 267.1,357.7 332.2,357.9 	"/>
	<rect x="434.5" y="286.9" class="st4" width="158.6" height="86.7"/>
	<polygon class="st3" points="515.2,373.5 505.4,458.3 434.5,458.3 434.5,373.5 	"/>
</g>
<g id="furniature">
	<polygon class="st5" points="55.1,241.2 66.3,241.2 66.3,270.5 160.4,270.5 160.4,281.2 55.1,281.2 	"/>
	<polygon class="st5" points="451.9,271 507.9,271 511.7,233.2 524.6,233.2 519.6,284.6 451.9,284.6 	"/>
	<path class="st6" d="M79.5,266.2l-3.8-0.1c-2.9,0-5.3-2.5-5.2-5.4v-0.3l0.2-3.8c0.2-3.7,3.4-6.6,7.1-6.6l0,0c3.8,0.1,6.8,3,6.9,6.8
		l0.1,3.8c0.1,2.9-2.2,5.4-5.1,5.5l0,0C79.7,266.2,79.6,266.2,79.5,266.2z"/>
	<path class="st7" d="M79.2,266.5l-3.8-0.1c-2.9,0-5.3-2.5-5.2-5.4v-0.3l0.2-3.8c0.2-3.7,3.4-6.6,7.1-6.6l0,0c3.8,0.1,6.8,3,6.9,6.8
		l0.1,3.8c0.1,2.9-2.2,5.4-5.1,5.5C79.3,266.5,79.2,266.5,79.2,266.5z"/>
	<path class="st8" d="M77.9,267.7l-3.8-0.1c-2.9,0-5.3-2.5-5.2-5.4l0,0l0,0V262l0.2-3.8c0.2-3.7,3.4-6.6,7.1-6.6l0,0
		c3.8,0.1,6.8,3,6.9,6.8l0.1,3.8c0.1,2.9-2.2,5.4-5.1,5.5C78.1,267.7,78,267.7,77.9,267.7z"/>
	<path class="st9" d="M68.8,262.8l0.4-4.6c0.2-3.7,3.4-6.6,7.1-6.6l0,0c3.8,0.1,6.8,3,6.9,6.8l0.2,4.6"/>
	<path class="st6" d="M108.5,266.2l-3.8-0.1c-2.9,0-5.3-2.5-5.2-5.4v-0.3l0.2-3.8c0.2-3.7,3.4-6.6,7.1-6.6l0,0
		c3.8,0.1,6.8,3,6.9,6.8l0.1,3.8c0.1,2.9-2.2,5.4-5.1,5.5l0,0C108.6,266.2,108.5,266.2,108.5,266.2z"/>
	<path class="st7" d="M108.1,266.5l-3.8-0.1c-2.9,0-5.3-2.5-5.2-5.4v-0.3l0.2-3.8c0.2-3.7,3.4-6.6,7.1-6.6l0,0
		c3.8,0.1,6.8,3,6.9,6.8l0.1,3.8c0.1,2.9-2.2,5.4-5.1,5.5C108.3,266.5,108.2,266.5,108.1,266.5z"/>
	<path class="st8" d="M106.8,267.7l-3.8-0.1c-2.9,0-5.3-2.5-5.2-5.4l0,0l0,0V262l0.2-3.8c0.2-3.7,3.4-6.6,7.1-6.6l0,0
		c3.8,0.1,6.8,3,6.9,6.8l0.1,3.8c0.1,2.9-2.2,5.4-5.1,5.5C107,267.7,106.9,267.7,106.8,267.7z"/>
	<path class="st9" d="M97.7,262.8l0.4-4.6c0.2-3.7,3.4-6.6,7.1-6.6l0,0c3.8,0.1,6.8,3,6.9,6.8l0.2,4.6"/>
	<path class="st6" d="M136,266.2l-3.8-0.1c-2.9,0-5.3-2.5-5.2-5.4v-0.3l0.2-3.8c0.2-3.7,3.4-6.6,7.1-6.6l0,0c3.8,0.1,6.8,3,6.9,6.8
		l0.1,3.8c0.1,2.9-2.2,5.4-5.1,5.5l0,0C136.1,266.2,136,266.2,136,266.2z"/>
	<path class="st7" d="M135.6,266.5l-3.8-0.1c-2.9,0-5.3-2.5-5.2-5.4v-0.3l0.2-3.8c0.2-3.7,3.4-6.6,7.1-6.6l0,0
		c3.8,0.1,6.8,3,6.9,6.8l0.1,3.8c0.1,2.9-2.2,5.4-5.1,5.5C135.8,266.5,135.7,266.5,135.6,266.5z"/>
	<path class="st8" d="M134.3,267.7l-3.8-0.1c-2.9,0-5.3-2.5-5.2-5.4l0,0l0,0V262l0.2-3.8c0.2-3.7,3.4-6.6,7.1-6.6l0,0
		c3.8,0.1,6.8,3,6.9,6.8l0.1,3.8c0.1,2.9-2.2,5.4-5.1,5.5C134.5,267.7,134.4,267.7,134.3,267.7z"/>
	<path class="st9" d="M125.2,262.8l0.4-4.6c0.2-3.7,3.4-6.6,7.1-6.6l0,0c3.8,0.1,6.8,3,6.9,6.8l0.2,4.6"/>
	<path class="st6" d="M467.5,266.2l-3.8-0.1c-2.9,0-5.3-2.5-5.2-5.4v-0.3l0.2-3.8c0.2-3.7,3.4-6.6,7.1-6.6l0,0
		c3.8,0.1,6.8,3,6.9,6.8l0.1,3.8c0.1,2.9-2.2,5.4-5.1,5.5l0,0C467.7,266.2,467.6,266.2,467.5,266.2z"/>
	<path class="st7" d="M467.1,266.5l-3.8-0.1c-2.9,0-5.3-2.5-5.2-5.4l0,0v-0.3l0.2-3.8c0.2-3.7,3.4-6.6,7.1-6.6l0,0
		c3.8,0.1,6.8,3,6.9,6.8l0.1,3.8c0.1,2.9-2.2,5.4-5.1,5.5C467.3,266.5,467.2,266.5,467.1,266.5z"/>
	<path class="st8" d="M465.8,267.7l-3.8-0.1c-2.9,0-5.3-2.5-5.2-5.4l0,0V262l0.2-3.8c0.2-3.7,3.4-6.6,7.1-6.6l0,0
		c3.8,0.1,6.8,3,6.9,6.8l0.1,3.8c0.1,2.9-2.2,5.4-5.1,5.5C466,267.7,465.9,267.7,465.8,267.7z"/>
	<path class="st9" d="M456.7,262.8l0.4-4.6c0.2-3.7,3.4-6.6,7.1-6.6l0,0c3.8,0.1,6.8,3,6.9,6.8l0.2,4.6"/>
	<path class="st6" d="M495,266.2l-3.8-0.1c-2.9,0-5.3-2.5-5.2-5.4v-0.3l0.2-3.8c0.2-3.7,3.4-6.6,7.1-6.6l0,0c3.8,0.1,6.8,3,6.9,6.8
		l0.1,3.8c0.1,2.9-2.2,5.4-5.1,5.5l0,0C495.2,266.2,495.1,266.2,495,266.2z"/>
	<path class="st7" d="M494.6,266.5l-3.8-0.1c-2.9,0-5.3-2.5-5.2-5.4l0,0v-0.3l0.2-3.8c0.2-3.7,3.4-6.6,7.1-6.6l0,0
		c3.8,0.1,6.8,3,6.9,6.8l0.1,3.8c0.1,2.9-2.2,5.4-5.1,5.5C494.8,266.5,494.7,266.5,494.6,266.5z"/>
	<path class="st8" d="M493.4,267.7l-3.8-0.1c-2.9,0-5.3-2.5-5.2-5.4l0,0V262l0.2-3.8c0.2-3.7,3.4-6.6,7.1-6.6l0,0
		c3.8,0.1,6.8,3,6.9,6.8l0.1,3.8c0.1,2.9-2.2,5.4-5.1,5.5C493.5,267.7,493.4,267.7,493.4,267.7z"/>
	<path class="st9" d="M484.2,262.8l0.4-4.6c0.2-3.7,3.4-6.6,7.1-6.6l0,0c3.8,0.1,6.8,3,6.9,6.8l0.2,4.6"/>
</g>
<g id="bookable">
	<g>
		<path class="st10" d="M364,329.2v-5.7h4.1v0.7h-3.4v1.8h3.2v0.7h-3.2v1.9h3.5v0.7H364z"/>
		<path class="st10" d="M369.2,329.2v-4.1h0.6v0.6c0.3-0.5,0.7-0.7,1.3-0.7c0.2,0,0.5,0,0.7,0.1s0.4,0.2,0.5,0.4s0.2,0.3,0.2,0.5
			c0,0.1,0,0.4,0,0.7v2.6h-0.7v-2.5c0-0.3,0-0.5-0.1-0.6s-0.2-0.3-0.3-0.3s-0.3-0.1-0.5-0.1c-0.3,0-0.6,0.1-0.8,0.3
			s-0.3,0.6-0.3,1.1v2.3H369.2z"/>
		<path class="st10" d="M375.2,328.6l0.1,0.6c-0.2,0-0.4,0.1-0.5,0.1c-0.3,0-0.5,0-0.6-0.1s-0.2-0.2-0.3-0.3s-0.1-0.4-0.1-0.8v-2.4
			h-0.5v-0.5h0.5v-1l0.7-0.4v1.4h0.7v0.5h-0.7v2.4c0,0.2,0,0.3,0,0.4s0.1,0.1,0.1,0.1s0.1,0.1,0.2,0.1
			C374.9,328.6,375,328.6,375.2,328.6z"/>
		<path class="st10" d="M375.8,329.2v-4.1h0.6v0.6c0.2-0.3,0.3-0.5,0.4-0.6s0.3-0.1,0.5-0.1c0.2,0,0.5,0.1,0.7,0.2l-0.2,0.7
			c-0.2-0.1-0.3-0.2-0.5-0.2c-0.2,0-0.3,0-0.4,0.1s-0.2,0.2-0.3,0.4c-0.1,0.2-0.1,0.5-0.1,0.8v2.2H375.8z"/>
		<path class="st10" d="M381.4,327.9l0.7,0.1c-0.1,0.4-0.3,0.8-0.6,1s-0.7,0.4-1.2,0.4c-0.6,0-1.1-0.2-1.4-0.6s-0.5-0.9-0.5-1.6
			c0-0.7,0.2-1.2,0.5-1.6s0.8-0.6,1.4-0.6c0.6,0,1,0.2,1.4,0.6s0.5,0.9,0.5,1.6c0,0,0,0.1,0,0.2H379c0,0.5,0.2,0.8,0.4,1
			s0.5,0.4,0.9,0.4c0.3,0,0.5-0.1,0.7-0.2S381.3,328.2,381.4,327.9z M379,326.7h2.3c0-0.3-0.1-0.6-0.3-0.8c-0.2-0.3-0.5-0.4-0.9-0.4
			c-0.3,0-0.6,0.1-0.8,0.3S379.1,326.4,379,326.7z"/>
		<path class="st10" d="M382.7,328l0.7-0.1c0,0.3,0.1,0.5,0.3,0.6s0.4,0.2,0.7,0.2c0.3,0,0.6-0.1,0.7-0.2s0.2-0.3,0.2-0.5
			c0-0.2-0.1-0.3-0.2-0.4c-0.1-0.1-0.3-0.1-0.7-0.2c-0.5-0.1-0.9-0.2-1.1-0.3s-0.4-0.2-0.5-0.4s-0.2-0.4-0.2-0.6
			c0-0.2,0-0.4,0.1-0.5s0.2-0.3,0.3-0.4c0.1-0.1,0.3-0.1,0.4-0.2s0.4-0.1,0.6-0.1c0.3,0,0.6,0,0.9,0.1s0.4,0.2,0.5,0.4
			s0.2,0.4,0.2,0.6l-0.7,0.1c0-0.2-0.1-0.4-0.3-0.5s-0.4-0.2-0.6-0.2c-0.3,0-0.6,0.1-0.7,0.2s-0.2,0.2-0.2,0.4c0,0.1,0,0.2,0.1,0.2
			c0.1,0.1,0.1,0.1,0.3,0.2c0.1,0,0.3,0.1,0.6,0.2c0.5,0.1,0.8,0.2,1,0.3s0.4,0.2,0.5,0.4s0.2,0.4,0.2,0.6c0,0.2-0.1,0.5-0.2,0.7
			s-0.3,0.4-0.6,0.5s-0.5,0.2-0.9,0.2c-0.5,0-0.9-0.1-1.2-0.3S382.8,328.4,382.7,328z"/>
		<path class="st10" d="M386.7,327.1c0-0.8,0.2-1.3,0.6-1.7c0.4-0.3,0.8-0.5,1.3-0.5c0.6,0,1,0.2,1.4,0.6s0.5,0.9,0.5,1.5
			c0,0.5-0.1,1-0.2,1.3s-0.4,0.5-0.7,0.7s-0.6,0.3-1,0.3c-0.6,0-1.1-0.2-1.4-0.6S386.7,327.8,386.7,327.1z M387.4,327.1
			c0,0.5,0.1,0.9,0.3,1.2s0.5,0.4,0.9,0.4c0.3,0,0.6-0.1,0.9-0.4s0.3-0.7,0.3-1.2c0-0.5-0.1-0.9-0.3-1.2s-0.5-0.4-0.9-0.4
			c-0.4,0-0.6,0.1-0.9,0.4S387.4,326.6,387.4,327.1z"/>
		<path class="st10" d="M391.4,329.2v-5.7h0.7v5.7H391.4z"/>
		<path class="st10" d="M395.5,329.2v-5.7h1.1l1.4,4.1c0.1,0.4,0.2,0.7,0.3,0.8c0.1-0.2,0.2-0.5,0.3-0.9l1.4-4h1v5.7h-0.7v-4.8
			l-1.7,4.8h-0.7l-1.7-4.9v4.9H395.5z"/>
		<path class="st10" d="M401.8,327.5v-0.7h2.2v0.7H401.8z"/>
		<path class="st10" d="M404.5,326.4c0-0.7,0.1-1.2,0.2-1.6s0.3-0.7,0.6-1s0.6-0.3,1-0.3c0.3,0,0.6,0.1,0.8,0.2s0.4,0.3,0.6,0.5
			s0.3,0.5,0.4,0.9s0.1,0.8,0.1,1.4c0,0.7-0.1,1.2-0.2,1.6s-0.3,0.7-0.6,1s-0.6,0.3-1,0.3c-0.6,0-1-0.2-1.3-0.6
			C404.7,328.2,404.5,327.5,404.5,326.4z M405.3,326.4c0,0.9,0.1,1.6,0.3,1.9s0.5,0.5,0.8,0.5s0.6-0.2,0.8-0.5s0.3-0.9,0.3-1.9
			c0-0.9-0.1-1.6-0.3-1.9s-0.5-0.5-0.8-0.5c-0.3,0-0.6,0.1-0.8,0.4C405.4,324.8,405.3,325.4,405.3,326.4z"/>
		<path class="st10" d="M411.6,329.2h-0.7v-4.5c-0.2,0.2-0.4,0.3-0.7,0.5s-0.5,0.3-0.7,0.4v-0.7c0.4-0.2,0.7-0.4,1-0.7
			s0.5-0.5,0.6-0.8h0.5V329.2z"/>
	</g>
	<g>
		<path class="st10" d="M448.1,419.7V414h4.1v0.7h-3.4v1.8h3.2v0.7h-3.2v1.9h3.5v0.7H448.1z"/>
		<path class="st10" d="M453.4,419.7v-4.1h0.6v0.6c0.3-0.5,0.7-0.7,1.3-0.7c0.2,0,0.5,0,0.7,0.1c0.2,0.1,0.4,0.2,0.5,0.4
			c0.1,0.1,0.2,0.3,0.2,0.5c0,0.1,0,0.4,0,0.7v2.6H456v-2.5c0-0.3,0-0.5-0.1-0.6c-0.1-0.1-0.2-0.3-0.3-0.3c-0.1-0.1-0.3-0.1-0.5-0.1
			c-0.3,0-0.6,0.1-0.8,0.3c-0.2,0.2-0.3,0.6-0.3,1.1v2.3H453.4z"/>
		<path class="st10" d="M459.4,419.1l0.1,0.6c-0.2,0-0.4,0.1-0.5,0.1c-0.3,0-0.5,0-0.6-0.1c-0.1-0.1-0.2-0.2-0.3-0.3
			c-0.1-0.1-0.1-0.4-0.1-0.8v-2.4h-0.5v-0.5h0.5v-1l0.7-0.4v1.4h0.7v0.5h-0.7v2.4c0,0.2,0,0.3,0,0.4c0,0.1,0.1,0.1,0.1,0.1
			c0.1,0,0.1,0.1,0.2,0.1C459.1,419.1,459.2,419.1,459.4,419.1z"/>
		<path class="st10" d="M460,419.7v-4.1h0.6v0.6c0.2-0.3,0.3-0.5,0.4-0.6s0.3-0.1,0.5-0.1c0.2,0,0.5,0.1,0.7,0.2l-0.2,0.7
			c-0.2-0.1-0.3-0.2-0.5-0.2c-0.2,0-0.3,0-0.4,0.1c-0.1,0.1-0.2,0.2-0.3,0.4c-0.1,0.2-0.1,0.5-0.1,0.8v2.2H460z"/>
		<path class="st10" d="M465.5,418.4l0.7,0.1c-0.1,0.4-0.3,0.8-0.6,1c-0.3,0.2-0.7,0.4-1.2,0.4c-0.6,0-1.1-0.2-1.4-0.6
			c-0.4-0.4-0.5-0.9-0.5-1.6c0-0.7,0.2-1.2,0.5-1.6c0.4-0.4,0.8-0.6,1.4-0.6c0.6,0,1,0.2,1.4,0.6c0.4,0.4,0.5,0.9,0.5,1.6
			c0,0,0,0.1,0,0.2h-3.1c0,0.5,0.2,0.8,0.4,1c0.2,0.2,0.5,0.4,0.9,0.4c0.3,0,0.5-0.1,0.7-0.2C465.3,418.9,465.4,418.7,465.5,418.4z
			 M463.2,417.2h2.3c0-0.3-0.1-0.6-0.3-0.8c-0.2-0.3-0.5-0.4-0.9-0.4c-0.3,0-0.6,0.1-0.8,0.3C463.4,416.6,463.3,416.9,463.2,417.2z"
			/>
		<path class="st10" d="M466.9,418.5l0.7-0.1c0,0.3,0.1,0.5,0.3,0.6c0.2,0.1,0.4,0.2,0.7,0.2c0.3,0,0.6-0.1,0.7-0.2
			c0.2-0.1,0.2-0.3,0.2-0.5c0-0.2-0.1-0.3-0.2-0.4c-0.1-0.1-0.3-0.1-0.7-0.2c-0.5-0.1-0.9-0.2-1.1-0.3c-0.2-0.1-0.4-0.2-0.5-0.4
			c-0.1-0.2-0.2-0.4-0.2-0.6c0-0.2,0-0.4,0.1-0.5c0.1-0.2,0.2-0.3,0.3-0.4c0.1-0.1,0.3-0.1,0.4-0.2c0.2-0.1,0.4-0.1,0.6-0.1
			c0.3,0,0.6,0,0.9,0.1s0.4,0.2,0.5,0.4s0.2,0.4,0.2,0.6l-0.7,0.1c0-0.2-0.1-0.4-0.3-0.5c-0.2-0.1-0.4-0.2-0.6-0.2
			c-0.3,0-0.6,0.1-0.7,0.2c-0.1,0.1-0.2,0.2-0.2,0.4c0,0.1,0,0.2,0.1,0.2c0.1,0.1,0.1,0.1,0.3,0.2c0.1,0,0.3,0.1,0.6,0.2
			c0.5,0.1,0.8,0.2,1,0.3c0.2,0.1,0.4,0.2,0.5,0.4c0.1,0.2,0.2,0.4,0.2,0.6c0,0.2-0.1,0.5-0.2,0.7s-0.3,0.4-0.6,0.5
			s-0.5,0.2-0.9,0.2c-0.5,0-1-0.1-1.2-0.3C467.1,419.2,467,418.9,466.9,418.5z"/>
		<path class="st10" d="M470.9,417.6c0-0.8,0.2-1.3,0.6-1.7c0.4-0.3,0.8-0.5,1.3-0.5c0.6,0,1,0.2,1.4,0.6c0.4,0.4,0.5,0.9,0.5,1.5
			c0,0.5-0.1,1-0.2,1.3c-0.2,0.3-0.4,0.5-0.7,0.7c-0.3,0.2-0.6,0.3-1,0.3c-0.6,0-1.1-0.2-1.4-0.6
			C471.1,418.9,470.9,418.3,470.9,417.6z M471.6,417.6c0,0.5,0.1,0.9,0.3,1.2c0.2,0.3,0.5,0.4,0.9,0.4c0.3,0,0.6-0.1,0.9-0.4
			c0.2-0.3,0.3-0.7,0.3-1.2c0-0.5-0.1-0.9-0.3-1.2c-0.2-0.3-0.5-0.4-0.9-0.4c-0.4,0-0.6,0.1-0.9,0.4
			C471.7,416.7,471.6,417.1,471.6,417.6z"/>
		<path class="st10" d="M475.6,419.7V414h0.7v5.7H475.6z"/>
		<path class="st10" d="M479.7,419.7V414h1.1l1.4,4.1c0.1,0.4,0.2,0.7,0.3,0.8c0.1-0.2,0.2-0.5,0.3-0.9l1.4-4h1v5.7h-0.7v-4.8
			l-1.7,4.8h-0.7l-1.7-4.9v4.9H479.7z"/>
		<path class="st10" d="M486,418v-0.7h2.2v0.7H486z"/>
		<path class="st10" d="M488.7,416.9c0-0.7,0.1-1.2,0.2-1.6c0.1-0.4,0.3-0.7,0.6-1c0.3-0.2,0.6-0.3,1-0.3c0.3,0,0.6,0.1,0.8,0.2
			c0.2,0.1,0.4,0.3,0.6,0.5c0.2,0.2,0.3,0.5,0.4,0.9c0.1,0.3,0.1,0.8,0.1,1.4c0,0.7-0.1,1.2-0.2,1.6c-0.1,0.4-0.3,0.7-0.6,1
			c-0.3,0.2-0.6,0.3-1,0.3c-0.6,0-1-0.2-1.3-0.6C488.9,418.7,488.7,418,488.7,416.9z M489.5,416.9c0,0.9,0.1,1.6,0.3,1.9
			c0.2,0.3,0.5,0.5,0.8,0.5c0.3,0,0.6-0.2,0.8-0.5c0.2-0.3,0.3-0.9,0.3-1.9c0-0.9-0.1-1.6-0.3-1.9c-0.2-0.3-0.5-0.5-0.8-0.5
			c-0.3,0-0.6,0.1-0.8,0.4C489.6,415.3,489.5,415.9,489.5,416.9z"/>
		<path class="st10" d="M496.9,419v0.7h-3.8c0-0.2,0-0.3,0.1-0.5c0.1-0.3,0.2-0.5,0.5-0.8c0.2-0.2,0.5-0.5,0.9-0.9
			c0.6-0.5,1-0.9,1.3-1.2c0.2-0.3,0.3-0.6,0.3-0.8c0-0.3-0.1-0.5-0.3-0.7s-0.5-0.3-0.8-0.3c-0.3,0-0.6,0.1-0.8,0.3s-0.3,0.5-0.3,0.8
			l-0.7-0.1c0-0.5,0.2-1,0.6-1.2c0.3-0.3,0.8-0.4,1.3-0.4c0.5,0,1,0.2,1.3,0.5s0.5,0.7,0.5,1.1c0,0.2,0,0.5-0.1,0.7
			c-0.1,0.2-0.2,0.5-0.5,0.7c-0.2,0.2-0.6,0.6-1.1,1c-0.4,0.4-0.7,0.6-0.8,0.7c-0.1,0.1-0.2,0.3-0.3,0.4H496.9z"/>
	</g>
	<g>
		<path class="st10" d="M275.8,389.1v-5.7h4.1v0.7h-3.4v1.8h3.2v0.7h-3.2v1.9h3.5v0.7H275.8z"/>
		<path class="st10" d="M281,389.1V385h0.6v0.6c0.3-0.5,0.7-0.7,1.3-0.7c0.2,0,0.5,0,0.7,0.1s0.4,0.2,0.5,0.4
			c0.1,0.1,0.2,0.3,0.2,0.5c0,0.1,0,0.4,0,0.7v2.6h-0.7v-2.5c0-0.3,0-0.5-0.1-0.6c-0.1-0.1-0.2-0.3-0.3-0.3
			c-0.1-0.1-0.3-0.1-0.5-0.1c-0.3,0-0.6,0.1-0.8,0.3c-0.2,0.2-0.3,0.6-0.3,1.1v2.3H281z"/>
		<path class="st10" d="M287,388.5l0.1,0.6c-0.2,0-0.4,0.1-0.5,0.1c-0.3,0-0.5,0-0.6-0.1c-0.1-0.1-0.2-0.2-0.3-0.3
			c-0.1-0.1-0.1-0.4-0.1-0.8v-2.4h-0.5V385h0.5v-1l0.7-0.4v1.4h0.7v0.5h-0.7v2.4c0,0.2,0,0.3,0,0.4c0,0.1,0.1,0.1,0.1,0.1
			c0.1,0,0.1,0.1,0.2,0.1C286.8,388.5,286.9,388.5,287,388.5z"/>
		<path class="st10" d="M287.7,389.1V385h0.6v0.6c0.2-0.3,0.3-0.5,0.4-0.6s0.3-0.1,0.5-0.1c0.2,0,0.5,0.1,0.7,0.2l-0.2,0.7
			c-0.2-0.1-0.3-0.2-0.5-0.2c-0.2,0-0.3,0-0.4,0.1c-0.1,0.1-0.2,0.2-0.3,0.4c-0.1,0.2-0.1,0.5-0.1,0.8v2.2H287.7z"/>
		<path class="st10" d="M293.2,387.8l0.7,0.1c-0.1,0.4-0.3,0.8-0.6,1s-0.7,0.4-1.2,0.4c-0.6,0-1.1-0.2-1.4-0.6
			c-0.4-0.4-0.5-0.9-0.5-1.6c0-0.7,0.2-1.2,0.5-1.6c0.4-0.4,0.8-0.6,1.4-0.6c0.6,0,1,0.2,1.4,0.6c0.4,0.4,0.5,0.9,0.5,1.6
			c0,0,0,0.1,0,0.2h-3.1c0,0.5,0.2,0.8,0.4,1s0.5,0.4,0.9,0.4c0.3,0,0.5-0.1,0.7-0.2C292.9,388.3,293.1,388.1,293.2,387.8z
			 M290.9,386.6h2.3c0-0.3-0.1-0.6-0.3-0.8c-0.2-0.3-0.5-0.4-0.9-0.4c-0.3,0-0.6,0.1-0.8,0.3C291,386,290.9,386.3,290.9,386.6z"/>
		<path class="st10" d="M294.5,387.9l0.7-0.1c0,0.3,0.1,0.5,0.3,0.6s0.4,0.2,0.7,0.2c0.3,0,0.6-0.1,0.7-0.2c0.2-0.1,0.2-0.3,0.2-0.5
			c0-0.2-0.1-0.3-0.2-0.4c-0.1-0.1-0.3-0.1-0.7-0.2c-0.5-0.1-0.9-0.2-1.1-0.3c-0.2-0.1-0.4-0.2-0.5-0.4s-0.2-0.4-0.2-0.6
			c0-0.2,0-0.4,0.1-0.5c0.1-0.2,0.2-0.3,0.3-0.4c0.1-0.1,0.3-0.1,0.4-0.2c0.2-0.1,0.4-0.1,0.6-0.1c0.3,0,0.6,0,0.9,0.1
			s0.4,0.2,0.5,0.4s0.2,0.4,0.2,0.6l-0.7,0.1c0-0.2-0.1-0.4-0.3-0.5c-0.1-0.1-0.4-0.2-0.6-0.2c-0.3,0-0.6,0.1-0.7,0.2
			c-0.1,0.1-0.2,0.2-0.2,0.4c0,0.1,0,0.2,0.1,0.2c0.1,0.1,0.1,0.1,0.3,0.2c0.1,0,0.3,0.1,0.6,0.2c0.5,0.1,0.8,0.2,1,0.3
			c0.2,0.1,0.4,0.2,0.5,0.4c0.1,0.2,0.2,0.4,0.2,0.6c0,0.2-0.1,0.5-0.2,0.7s-0.3,0.4-0.6,0.5s-0.5,0.2-0.9,0.2
			c-0.5,0-0.9-0.1-1.2-0.3C294.8,388.6,294.6,388.3,294.5,387.9z"/>
		<path class="st10" d="M298.5,387c0-0.8,0.2-1.3,0.6-1.7c0.4-0.3,0.8-0.5,1.3-0.5c0.6,0,1,0.2,1.4,0.6c0.4,0.4,0.5,0.9,0.5,1.5
			c0,0.5-0.1,1-0.2,1.3c-0.2,0.3-0.4,0.5-0.7,0.7c-0.3,0.2-0.6,0.3-1,0.3c-0.6,0-1.1-0.2-1.4-0.6C298.7,388.3,298.5,387.7,298.5,387
			z M299.3,387c0,0.5,0.1,0.9,0.3,1.2c0.2,0.3,0.5,0.4,0.9,0.4c0.3,0,0.6-0.1,0.9-0.4s0.3-0.7,0.3-1.2c0-0.5-0.1-0.9-0.3-1.2
			c-0.2-0.3-0.5-0.4-0.9-0.4c-0.4,0-0.6,0.1-0.9,0.4C299.4,386.1,299.3,386.5,299.3,387z"/>
		<path class="st10" d="M303.2,389.1v-5.7h0.7v5.7H303.2z"/>
		<path class="st10" d="M307.3,389.1v-5.7h1.1l1.4,4.1c0.1,0.4,0.2,0.7,0.3,0.8c0.1-0.2,0.2-0.5,0.3-0.9l1.4-4h1v5.7H312v-4.8
			l-1.7,4.8h-0.7l-1.7-4.9v4.9H307.3z"/>
		<path class="st10" d="M313.6,387.4v-0.7h2.2v0.7H313.6z"/>
		<path class="st10" d="M316.4,386.3c0-0.7,0.1-1.2,0.2-1.6c0.1-0.4,0.3-0.7,0.6-1c0.3-0.2,0.6-0.3,1-0.3c0.3,0,0.6,0.1,0.8,0.2
			c0.2,0.1,0.4,0.3,0.6,0.5c0.2,0.2,0.3,0.5,0.4,0.9c0.1,0.3,0.1,0.8,0.1,1.4c0,0.7-0.1,1.2-0.2,1.6c-0.1,0.4-0.3,0.7-0.6,1
			c-0.3,0.2-0.6,0.3-1,0.3c-0.6,0-1-0.2-1.3-0.6C316.6,388.1,316.4,387.4,316.4,386.3z M317.1,386.3c0,0.9,0.1,1.6,0.3,1.9
			c0.2,0.3,0.5,0.5,0.8,0.5s0.6-0.2,0.8-0.5s0.3-0.9,0.3-1.9c0-0.9-0.1-1.6-0.3-1.9c-0.2-0.3-0.5-0.5-0.8-0.5
			c-0.3,0-0.6,0.1-0.8,0.4C317.2,384.7,317.1,385.3,317.1,386.3z"/>
		<path class="st10" d="M320.8,387.6l0.7-0.1c0.1,0.4,0.2,0.7,0.4,0.9s0.4,0.3,0.7,0.3c0.3,0,0.6-0.1,0.8-0.3
			c0.2-0.2,0.3-0.5,0.3-0.9c0-0.3-0.1-0.6-0.3-0.8c-0.2-0.2-0.5-0.3-0.8-0.3c-0.1,0-0.3,0-0.5,0.1l0.1-0.6c0,0,0.1,0,0.1,0
			c0.3,0,0.6-0.1,0.8-0.2s0.4-0.4,0.4-0.7c0-0.3-0.1-0.5-0.3-0.6c-0.2-0.2-0.4-0.3-0.7-0.3c-0.3,0-0.5,0.1-0.7,0.3s-0.3,0.4-0.4,0.8
			l-0.7-0.1c0.1-0.5,0.3-0.8,0.6-1.1c0.3-0.3,0.7-0.4,1.1-0.4c0.3,0,0.6,0.1,0.9,0.2c0.3,0.1,0.5,0.3,0.6,0.5
			c0.1,0.2,0.2,0.5,0.2,0.7c0,0.2-0.1,0.5-0.2,0.7s-0.3,0.4-0.6,0.5c0.3,0.1,0.6,0.2,0.8,0.5s0.3,0.6,0.3,0.9c0,0.5-0.2,0.9-0.5,1.3
			s-0.8,0.5-1.4,0.5c-0.5,0-0.9-0.1-1.3-0.4C321.1,388.5,320.9,388.1,320.8,387.6z"/>
	</g>
	<g>
		<path class="st10" d="M93.8,425.6v-5.7H98v0.7h-3.4v1.8h3.2v0.7h-3.2v1.9h3.5v0.7H93.8z"/>
		<path class="st10" d="M99.1,425.6v-4.1h0.6v0.6c0.3-0.5,0.7-0.7,1.3-0.7c0.2,0,0.5,0,0.7,0.1s0.4,0.2,0.5,0.4
			c0.1,0.1,0.2,0.3,0.2,0.5c0,0.1,0,0.4,0,0.7v2.6h-0.7v-2.5c0-0.3,0-0.5-0.1-0.6c-0.1-0.1-0.2-0.3-0.3-0.3
			c-0.1-0.1-0.3-0.1-0.5-0.1c-0.3,0-0.6,0.1-0.8,0.3c-0.2,0.2-0.3,0.6-0.3,1.1v2.3H99.1z"/>
		<path class="st10" d="M105,425l0.1,0.6c-0.2,0-0.4,0.1-0.5,0.1c-0.3,0-0.5,0-0.6-0.1c-0.1-0.1-0.2-0.2-0.3-0.3
			c-0.1-0.1-0.1-0.4-0.1-0.8V422h-0.5v-0.5h0.5v-1l0.7-0.4v1.4h0.7v0.5h-0.7v2.4c0,0.2,0,0.3,0,0.4c0,0.1,0.1,0.1,0.1,0.1
			c0.1,0,0.1,0.1,0.2,0.1C104.8,425,104.9,425,105,425z"/>
		<path class="st10" d="M105.7,425.6v-4.1h0.6v0.6c0.2-0.3,0.3-0.5,0.4-0.6s0.3-0.1,0.5-0.1c0.2,0,0.5,0.1,0.7,0.2l-0.2,0.7
			c-0.2-0.1-0.3-0.2-0.5-0.2c-0.2,0-0.3,0-0.4,0.1c-0.1,0.1-0.2,0.2-0.3,0.4c-0.1,0.2-0.1,0.5-0.1,0.8v2.2H105.7z"/>
		<path class="st10" d="M111.2,424.3l0.7,0.1c-0.1,0.4-0.3,0.8-0.6,1s-0.7,0.4-1.2,0.4c-0.6,0-1.1-0.2-1.4-0.6
			c-0.4-0.4-0.5-0.9-0.5-1.6c0-0.7,0.2-1.2,0.5-1.6c0.4-0.4,0.8-0.6,1.4-0.6c0.6,0,1,0.2,1.4,0.6c0.4,0.4,0.5,0.9,0.5,1.6
			c0,0,0,0.1,0,0.2h-3.1c0,0.5,0.2,0.8,0.4,1s0.5,0.4,0.9,0.4c0.3,0,0.5-0.1,0.7-0.2C111,424.8,111.1,424.6,111.2,424.3z
			 M108.9,423.2h2.3c0-0.3-0.1-0.6-0.3-0.8c-0.2-0.3-0.5-0.4-0.9-0.4c-0.3,0-0.6,0.1-0.8,0.3C109.1,422.5,109,422.8,108.9,423.2z"/>
		<path class="st10" d="M112.6,424.4l0.7-0.1c0,0.3,0.1,0.5,0.3,0.6s0.4,0.2,0.7,0.2c0.3,0,0.6-0.1,0.7-0.2c0.2-0.1,0.2-0.3,0.2-0.5
			c0-0.2-0.1-0.3-0.2-0.4c-0.1-0.1-0.3-0.1-0.7-0.2c-0.5-0.1-0.9-0.2-1.1-0.3c-0.2-0.1-0.4-0.2-0.5-0.4s-0.2-0.4-0.2-0.6
			c0-0.2,0-0.4,0.1-0.5c0.1-0.2,0.2-0.3,0.3-0.4c0.1-0.1,0.3-0.1,0.4-0.2c0.2-0.1,0.4-0.1,0.6-0.1c0.3,0,0.6,0,0.9,0.1
			s0.4,0.2,0.5,0.4s0.2,0.4,0.2,0.6l-0.7,0.1c0-0.2-0.1-0.4-0.3-0.5c-0.1-0.1-0.4-0.2-0.6-0.2c-0.3,0-0.6,0.1-0.7,0.2
			c-0.1,0.1-0.2,0.2-0.2,0.4c0,0.1,0,0.2,0.1,0.2c0.1,0.1,0.1,0.1,0.3,0.2c0.1,0,0.3,0.1,0.6,0.2c0.5,0.1,0.8,0.2,1,0.3
			c0.2,0.1,0.4,0.2,0.5,0.4c0.1,0.2,0.2,0.4,0.2,0.6c0,0.2-0.1,0.5-0.2,0.7s-0.3,0.4-0.6,0.5s-0.5,0.2-0.9,0.2
			c-0.5,0-0.9-0.1-1.2-0.3C112.8,425.2,112.6,424.8,112.6,424.4z"/>
		<path class="st10" d="M116.6,423.6c0-0.8,0.2-1.3,0.6-1.7c0.4-0.3,0.8-0.5,1.3-0.5c0.6,0,1,0.2,1.4,0.6c0.4,0.4,0.5,0.9,0.5,1.5
			c0,0.5-0.1,1-0.2,1.3c-0.2,0.3-0.4,0.5-0.7,0.7c-0.3,0.2-0.6,0.3-1,0.3c-0.6,0-1.1-0.2-1.4-0.6
			C116.8,424.8,116.6,424.3,116.6,423.6z M117.3,423.6c0,0.5,0.1,0.9,0.3,1.2c0.2,0.3,0.5,0.4,0.9,0.4c0.3,0,0.6-0.1,0.9-0.4
			s0.3-0.7,0.3-1.2c0-0.5-0.1-0.9-0.3-1.2c-0.2-0.3-0.5-0.4-0.9-0.4c-0.4,0-0.6,0.1-0.9,0.4C117.4,422.6,117.3,423,117.3,423.6z"/>
		<path class="st10" d="M121.3,425.6v-5.7h0.7v5.7H121.3z"/>
		<path class="st10" d="M125.4,425.6v-5.7h1.1l1.4,4.1c0.1,0.4,0.2,0.7,0.3,0.8c0.1-0.2,0.2-0.5,0.3-0.9l1.4-4h1v5.7h-0.7v-4.8
			l-1.7,4.8h-0.7l-1.7-4.9v4.9H125.4z"/>
		<path class="st10" d="M131.7,423.9v-0.7h2.2v0.7H131.7z"/>
		<path class="st10" d="M134.4,422.8c0-0.7,0.1-1.2,0.2-1.6c0.1-0.4,0.3-0.7,0.6-1c0.3-0.2,0.6-0.3,1-0.3c0.3,0,0.6,0.1,0.8,0.2
			c0.2,0.1,0.4,0.3,0.6,0.5c0.2,0.2,0.3,0.5,0.4,0.9c0.1,0.3,0.1,0.8,0.1,1.4c0,0.7-0.1,1.2-0.2,1.6c-0.1,0.4-0.3,0.7-0.6,1
			c-0.3,0.2-0.6,0.3-1,0.3c-0.6,0-1-0.2-1.3-0.6C134.6,424.7,134.4,423.9,134.4,422.8z M135.2,422.8c0,0.9,0.1,1.6,0.3,1.9
			c0.2,0.3,0.5,0.5,0.8,0.5s0.6-0.2,0.8-0.5s0.3-0.9,0.3-1.9c0-0.9-0.1-1.6-0.3-1.9c-0.2-0.3-0.5-0.5-0.8-0.5
			c-0.3,0-0.6,0.1-0.8,0.4C135.3,421.2,135.2,421.9,135.2,422.8z"/>
		<path class="st10" d="M141.1,425.6v-1.4h-2.5v-0.6l2.6-3.7h0.6v3.7h0.8v0.6h-0.8v1.4H141.1z M141.1,423.6V421l-1.8,2.6H141.1z"/>
	</g>
	<g>
		<path class="st10" d="M186.4,347.2v-5.7h4.1v0.7h-3.4v1.8h3.2v0.7h-3.2v1.9h3.5v0.7H186.4z"/>
		<path class="st10" d="M191.6,347.2v-4.1h0.6v0.6c0.3-0.5,0.7-0.7,1.3-0.7c0.2,0,0.5,0,0.7,0.1s0.4,0.2,0.5,0.4
			c0.1,0.1,0.2,0.3,0.2,0.5c0,0.1,0,0.4,0,0.7v2.6h-0.7v-2.5c0-0.3,0-0.5-0.1-0.6c-0.1-0.1-0.2-0.3-0.3-0.3
			c-0.1-0.1-0.3-0.1-0.5-0.1c-0.3,0-0.6,0.1-0.8,0.3c-0.2,0.2-0.3,0.6-0.3,1.1v2.3H191.6z"/>
		<path class="st10" d="M197.6,346.6l0.1,0.6c-0.2,0-0.4,0.1-0.5,0.1c-0.3,0-0.5,0-0.6-0.1c-0.1-0.1-0.2-0.2-0.3-0.3
			c-0.1-0.1-0.1-0.4-0.1-0.8v-2.4h-0.5v-0.5h0.5v-1l0.7-0.4v1.4h0.7v0.5h-0.7v2.4c0,0.2,0,0.3,0,0.4c0,0.1,0.1,0.1,0.1,0.1
			c0.1,0,0.1,0.1,0.2,0.1C197.4,346.6,197.5,346.6,197.6,346.6z"/>
		<path class="st10" d="M198.3,347.2v-4.1h0.6v0.6c0.2-0.3,0.3-0.5,0.4-0.6s0.3-0.1,0.5-0.1c0.2,0,0.5,0.1,0.7,0.2l-0.2,0.7
			c-0.2-0.1-0.3-0.2-0.5-0.2c-0.2,0-0.3,0-0.4,0.1c-0.1,0.1-0.2,0.2-0.3,0.4c-0.1,0.2-0.1,0.5-0.1,0.8v2.2H198.3z"/>
		<path class="st10" d="M203.8,345.9l0.7,0.1c-0.1,0.4-0.3,0.8-0.6,1s-0.7,0.4-1.2,0.4c-0.6,0-1.1-0.2-1.4-0.6
			c-0.4-0.4-0.5-0.9-0.5-1.6c0-0.7,0.2-1.2,0.5-1.6c0.4-0.4,0.8-0.6,1.4-0.6c0.6,0,1,0.2,1.4,0.6c0.4,0.4,0.5,0.9,0.5,1.6
			c0,0,0,0.1,0,0.2h-3.1c0,0.5,0.2,0.8,0.4,1s0.5,0.4,0.9,0.4c0.3,0,0.5-0.1,0.7-0.2C203.6,346.4,203.7,346.2,203.8,345.9z
			 M201.5,344.7h2.3c0-0.3-0.1-0.6-0.3-0.8c-0.2-0.3-0.5-0.4-0.9-0.4c-0.3,0-0.6,0.1-0.8,0.3C201.6,344.1,201.5,344.4,201.5,344.7z"
			/>
		<path class="st10" d="M205.1,346l0.7-0.1c0,0.3,0.1,0.5,0.3,0.6s0.4,0.2,0.7,0.2c0.3,0,0.6-0.1,0.7-0.2c0.2-0.1,0.2-0.3,0.2-0.5
			c0-0.2-0.1-0.3-0.2-0.4c-0.1-0.1-0.3-0.1-0.7-0.2c-0.5-0.1-0.9-0.2-1.1-0.3c-0.2-0.1-0.4-0.2-0.5-0.4s-0.2-0.4-0.2-0.6
			c0-0.2,0-0.4,0.1-0.5c0.1-0.2,0.2-0.3,0.3-0.4c0.1-0.1,0.3-0.1,0.4-0.2c0.2-0.1,0.4-0.1,0.6-0.1c0.3,0,0.6,0,0.9,0.1
			s0.4,0.2,0.5,0.4s0.2,0.4,0.2,0.6l-0.7,0.1c0-0.2-0.1-0.4-0.3-0.5c-0.1-0.1-0.4-0.2-0.6-0.2c-0.3,0-0.6,0.1-0.7,0.2
			c-0.1,0.1-0.2,0.2-0.2,0.4c0,0.1,0,0.2,0.1,0.2c0.1,0.1,0.1,0.1,0.3,0.2c0.1,0,0.3,0.1,0.6,0.2c0.5,0.1,0.8,0.2,1,0.3
			c0.2,0.1,0.4,0.2,0.5,0.4c0.1,0.2,0.2,0.4,0.2,0.6c0,0.2-0.1,0.5-0.2,0.7s-0.3,0.4-0.6,0.5s-0.5,0.2-0.9,0.2
			c-0.5,0-0.9-0.1-1.2-0.3C205.4,346.7,205.2,346.4,205.1,346z"/>
		<path class="st10" d="M209.2,345.1c0-0.8,0.2-1.3,0.6-1.7c0.4-0.3,0.8-0.5,1.3-0.5c0.6,0,1,0.2,1.4,0.6c0.4,0.4,0.5,0.9,0.5,1.5
			c0,0.5-0.1,1-0.2,1.3c-0.2,0.3-0.4,0.5-0.7,0.7c-0.3,0.2-0.6,0.3-1,0.3c-0.6,0-1.1-0.2-1.4-0.6
			C209.3,346.4,209.2,345.8,209.2,345.1z M209.9,345.1c0,0.5,0.1,0.9,0.3,1.2c0.2,0.3,0.5,0.4,0.9,0.4c0.3,0,0.6-0.1,0.9-0.4
			s0.3-0.7,0.3-1.2c0-0.5-0.1-0.9-0.3-1.2c-0.2-0.3-0.5-0.4-0.9-0.4c-0.4,0-0.6,0.1-0.9,0.4C210,344.2,209.9,344.6,209.9,345.1z"/>
		<path class="st10" d="M213.8,347.2v-5.7h0.7v5.7H213.8z"/>
		<path class="st10" d="M217.9,347.2v-5.7h1.1l1.4,4.1c0.1,0.4,0.2,0.7,0.3,0.8c0.1-0.2,0.2-0.5,0.3-0.9l1.4-4h1v5.7h-0.7v-4.8
			l-1.7,4.8h-0.7l-1.7-4.9v4.9H217.9z"/>
		<path class="st10" d="M224.3,345.5v-0.7h2.2v0.7H224.3z"/>
		<path class="st10" d="M227,344.4c0-0.7,0.1-1.2,0.2-1.6c0.1-0.4,0.3-0.7,0.6-1c0.3-0.2,0.6-0.3,1-0.3c0.3,0,0.6,0.1,0.8,0.2
			c0.2,0.1,0.4,0.3,0.6,0.5c0.2,0.2,0.3,0.5,0.4,0.9c0.1,0.3,0.1,0.8,0.1,1.4c0,0.7-0.1,1.2-0.2,1.6c-0.1,0.4-0.3,0.7-0.6,1
			c-0.3,0.2-0.6,0.3-1,0.3c-0.6,0-1-0.2-1.3-0.6C227.2,346.2,227,345.5,227,344.4z M227.7,344.4c0,0.9,0.1,1.6,0.3,1.9
			c0.2,0.3,0.5,0.5,0.8,0.5s0.6-0.2,0.8-0.5s0.3-0.9,0.3-1.9c0-0.9-0.1-1.6-0.3-1.9c-0.2-0.3-0.5-0.5-0.8-0.5
			c-0.3,0-0.6,0.1-0.8,0.4C227.8,342.8,227.7,343.4,227.7,344.4z"/>
		<path class="st10" d="M231.4,345.7l0.7-0.1c0.1,0.4,0.2,0.6,0.4,0.8c0.2,0.2,0.4,0.3,0.7,0.3c0.3,0,0.6-0.1,0.9-0.4
			c0.2-0.3,0.4-0.6,0.4-1c0-0.4-0.1-0.7-0.3-0.9c-0.2-0.2-0.5-0.3-0.9-0.3c-0.2,0-0.4,0.1-0.6,0.2c-0.2,0.1-0.3,0.2-0.4,0.4
			l-0.7-0.1l0.6-2.9h2.8v0.7h-2.3l-0.3,1.5c0.3-0.2,0.7-0.4,1.1-0.4c0.5,0,0.9,0.2,1.3,0.5c0.3,0.3,0.5,0.8,0.5,1.3
			c0,0.5-0.2,1-0.5,1.3c-0.4,0.5-0.9,0.7-1.5,0.7c-0.5,0-0.9-0.1-1.3-0.4C231.7,346.6,231.5,346.2,231.4,345.7z"/>
	</g>
</g>
<g id="icons">
	<g id="stairs-4-2-2">
		<circle class="st11" cx="95.4" cy="317.4" r="18.6"/>
		<g class="st12">
			<path class="st10" d="M85.4,345.3l0.8-0.1c0,0.3,0.1,0.6,0.3,0.8c0.1,0.2,0.3,0.4,0.6,0.5c0.3,0.1,0.6,0.2,0.9,0.2s0.6,0,0.8-0.1
				s0.4-0.2,0.5-0.4c0.1-0.2,0.2-0.3,0.2-0.5s-0.1-0.4-0.2-0.5s-0.3-0.3-0.6-0.4c-0.2-0.1-0.5-0.2-1.1-0.3s-1-0.3-1.2-0.4
				c-0.3-0.2-0.5-0.3-0.7-0.6c-0.1-0.2-0.2-0.5-0.2-0.8s0.1-0.6,0.3-0.9c0.2-0.3,0.4-0.5,0.8-0.6c0.3-0.1,0.7-0.2,1.1-0.2
				c0.5,0,0.9,0.1,1.2,0.2c0.3,0.1,0.6,0.4,0.8,0.6s0.3,0.6,0.3,1l-0.8,0.1c0-0.4-0.2-0.7-0.4-0.9c-0.2-0.2-0.6-0.3-1.1-0.3
				s-0.8,0.1-1.1,0.3c-0.2,0.2-0.3,0.4-0.3,0.6s0.1,0.4,0.2,0.5c0.2,0.1,0.6,0.3,1.2,0.4s1.1,0.3,1.4,0.4c0.4,0.2,0.6,0.4,0.8,0.6
				c0.2,0.3,0.3,0.5,0.3,0.9c0,0.3-0.1,0.6-0.3,0.9c-0.2,0.3-0.5,0.5-0.8,0.7s-0.7,0.2-1.2,0.2c-0.6,0-1-0.1-1.4-0.2
				c-0.4-0.2-0.7-0.4-0.9-0.7C85.5,346.1,85.4,345.7,85.4,345.3z"/>
			<path class="st10" d="M92.9,346.6l0.1,0.7c-0.2,0-0.4,0.1-0.6,0.1c-0.3,0-0.5,0-0.6-0.1s-0.3-0.2-0.3-0.3
				c-0.1-0.1-0.1-0.4-0.1-0.9v-2.5h-0.6V343h0.6v-1.1l0.7-0.5v1.5h0.8v0.6h-0.8v2.6c0,0.2,0,0.4,0,0.4c0,0.1,0.1,0.1,0.1,0.1
				c0.1,0,0.1,0.1,0.3,0.1C92.7,346.6,92.8,346.6,92.9,346.6z"/>
			<path class="st10" d="M96.5,346.7c-0.3,0.2-0.5,0.4-0.8,0.5s-0.5,0.1-0.8,0.1c-0.5,0-0.9-0.1-1.1-0.4c-0.3-0.2-0.4-0.5-0.4-0.9
				c0-0.2,0-0.4,0.1-0.6s0.2-0.3,0.4-0.4s0.3-0.2,0.5-0.2c0.1,0,0.4-0.1,0.7-0.1c0.6-0.1,1.1-0.2,1.3-0.3c0-0.1,0-0.2,0-0.2
				c0-0.3-0.1-0.5-0.2-0.6c-0.2-0.2-0.5-0.3-0.9-0.3s-0.6,0.1-0.8,0.2c-0.2,0.1-0.3,0.3-0.4,0.7l-0.7-0.1c0.1-0.3,0.2-0.6,0.3-0.8
				s0.4-0.3,0.7-0.4c0.3-0.1,0.6-0.2,1-0.2s0.7,0,0.9,0.1s0.4,0.2,0.5,0.3c0.1,0.1,0.2,0.3,0.2,0.5c0,0.1,0,0.4,0,0.7v1
				c0,0.7,0,1.1,0,1.3c0,0.2,0.1,0.4,0.2,0.5h-0.8C96.6,347.1,96.6,346.9,96.5,346.7z M96.5,345c-0.3,0.1-0.7,0.2-1.2,0.3
				c-0.3,0-0.5,0.1-0.7,0.1s-0.2,0.1-0.3,0.2c-0.1,0.1-0.1,0.2-0.1,0.4c0,0.2,0.1,0.4,0.2,0.5c0.2,0.1,0.4,0.2,0.7,0.2
				c0.3,0,0.5-0.1,0.8-0.2c0.2-0.1,0.4-0.3,0.5-0.5s0.1-0.4,0.1-0.8V345z"/>
			<path class="st10" d="M98.4,342v-0.9h0.8v0.9H98.4z M98.4,347.3v-4.4h0.8v4.4H98.4z"/>
			<path class="st10" d="M100.3,347.3v-4.4h0.7v0.7c0.2-0.3,0.3-0.5,0.5-0.6s0.3-0.2,0.5-0.2c0.3,0,0.5,0.1,0.8,0.2l-0.3,0.7
				c-0.2-0.1-0.4-0.2-0.6-0.2s-0.3,0-0.4,0.1s-0.2,0.2-0.3,0.4c-0.1,0.3-0.1,0.6-0.1,0.9v2.3h-0.8V347.3z"/>
			<path class="st10" d="M102.8,345.9l0.7-0.1c0,0.3,0.2,0.5,0.3,0.7s0.5,0.2,0.8,0.2s0.6-0.1,0.8-0.2c0.2-0.1,0.3-0.3,0.3-0.5
				s-0.1-0.3-0.2-0.4s-0.4-0.2-0.8-0.3c-0.6-0.1-0.9-0.3-1.1-0.4s-0.4-0.2-0.5-0.4c-0.1-0.2-0.2-0.4-0.2-0.6s0-0.4,0.1-0.5
				c0.1-0.2,0.2-0.3,0.4-0.4c0.1-0.1,0.3-0.2,0.5-0.2s0.4-0.1,0.6-0.1c0.3,0,0.7,0.1,0.9,0.2s0.5,0.2,0.6,0.4
				c0.1,0.2,0.2,0.4,0.3,0.7l-0.7,0.1c0-0.2-0.1-0.4-0.3-0.5c-0.2-0.1-0.4-0.2-0.7-0.2c-0.3,0-0.6,0.1-0.7,0.2s-0.2,0.2-0.2,0.4
				c0,0.1,0,0.2,0.1,0.3c0.1,0.1,0.2,0.1,0.3,0.2c0.1,0,0.3,0.1,0.7,0.2c0.5,0.1,0.9,0.3,1.1,0.3c0.2,0.1,0.4,0.2,0.5,0.4
				c0.1,0.2,0.2,0.4,0.2,0.6s-0.1,0.5-0.2,0.7s-0.4,0.4-0.6,0.5c-0.3,0.1-0.6,0.2-0.9,0.2c-0.6,0-1-0.1-1.3-0.4
				C103.1,346.8,102.9,346.4,102.8,345.9z"/>
		</g>
		<g id="Outline_Icons-2-2-4-2-2">
			<line class="st13" x1="87.1" y1="324.7" x2="101.6" y2="324.7"/>
			<polyline class="st13" points="99.1,324.7 99.1,322.2 96.6,322.2 96.6,319.6 94.1,319.6 94.1,317.1 91.5,317.1 91.5,314.6 
				87.1,314.6 			"/>
			<line class="st13" x1="94.7" y1="310.2" x2="102.6" y2="318.1"/>
			<polyline class="st13" points="94.7,313.3 94.7,310.2 97.9,310.2 			"/>
			<polyline class="st13" points="102.6,314.9 102.6,318.1 99.5,318.1 			"/>
		</g>
	</g>
	<g id="stairs-4-2-2-2">
		<circle class="st11" cx="599.8" cy="170.3" r="18.6"/>
		<g class="st12">
			<path class="st10" d="M589.8,198.2l0.8-0.1c0,0.3,0.1,0.6,0.3,0.8c0.1,0.2,0.3,0.4,0.6,0.5s0.6,0.2,0.9,0.2c0.3,0,0.6,0,0.8-0.1
				s0.4-0.2,0.5-0.4s0.2-0.3,0.2-0.5s-0.1-0.4-0.2-0.5c-0.1-0.1-0.3-0.3-0.5-0.4c-0.2-0.1-0.5-0.2-1.1-0.3s-1-0.3-1.2-0.4
				c-0.3-0.2-0.5-0.3-0.7-0.6c-0.1-0.2-0.2-0.5-0.2-0.8s0.1-0.6,0.3-0.9c0.2-0.3,0.4-0.5,0.8-0.6c0.3-0.1,0.7-0.2,1.1-0.2
				c0.5,0,0.9,0.1,1.2,0.2c0.3,0.1,0.6,0.4,0.8,0.6c0.2,0.3,0.3,0.6,0.3,1l-0.8,0.1c0-0.4-0.2-0.7-0.4-0.9s-0.6-0.3-1.1-0.3
				s-0.8,0.1-1.1,0.3c-0.2,0.2-0.3,0.4-0.3,0.6c0,0.2,0.1,0.4,0.2,0.5c0.2,0.1,0.6,0.3,1.2,0.4s1.1,0.3,1.4,0.4
				c0.4,0.2,0.6,0.4,0.8,0.6c0.2,0.3,0.3,0.5,0.3,0.9c0,0.3-0.1,0.6-0.3,0.9c-0.2,0.3-0.5,0.5-0.8,0.7s-0.7,0.2-1.2,0.2
				c-0.6,0-1-0.1-1.4-0.2c-0.4-0.2-0.7-0.4-0.9-0.7C589.9,199,589.8,198.6,589.8,198.2z"/>
			<path class="st10" d="M597.3,199.5l0.1,0.7c-0.2,0-0.4,0.1-0.6,0.1c-0.3,0-0.5,0-0.6-0.1c-0.2-0.1-0.3-0.2-0.3-0.3
				c-0.1-0.1-0.1-0.4-0.1-0.9v-2.5h-0.6v-0.6h0.6v-1.1l0.7-0.5v1.5h0.8v0.6h-0.8v2.6c0,0.2,0,0.4,0,0.4c0,0.1,0.1,0.1,0.1,0.1
				s0.1,0.1,0.3,0.1C597,199.5,597.2,199.5,597.3,199.5z"/>
			<path class="st10" d="M600.9,199.6c-0.3,0.2-0.5,0.4-0.8,0.5s-0.5,0.1-0.8,0.1c-0.5,0-0.9-0.1-1.1-0.4c-0.3-0.2-0.4-0.5-0.4-0.9
				c0-0.2,0-0.4,0.1-0.6c0.1-0.2,0.2-0.3,0.4-0.4c0.2-0.1,0.3-0.2,0.5-0.2c0.1,0,0.4-0.1,0.7-0.1c0.6-0.1,1.1-0.2,1.3-0.3
				c0-0.1,0-0.2,0-0.2c0-0.3-0.1-0.5-0.2-0.6c-0.2-0.2-0.5-0.3-0.9-0.3s-0.6,0.1-0.8,0.2c-0.2,0.1-0.3,0.3-0.4,0.7l-0.7-0.1
				c0.1-0.3,0.2-0.6,0.3-0.8c0.2-0.2,0.4-0.3,0.7-0.4c0.3-0.1,0.6-0.2,1-0.2s0.7,0,0.9,0.1s0.4,0.2,0.5,0.3s0.2,0.3,0.2,0.5
				c0,0.1,0,0.4,0,0.7v1c0,0.7,0,1.1,0,1.3s0.1,0.4,0.2,0.5h-0.8C601,200,600.9,199.8,600.9,199.6z M600.9,198
				c-0.3,0.1-0.7,0.2-1.2,0.3c-0.3,0-0.5,0.1-0.7,0.1c-0.1,0.1-0.2,0.1-0.3,0.2c-0.1,0.1-0.1,0.2-0.1,0.4s0.1,0.4,0.2,0.5
				c0.2,0.1,0.4,0.2,0.7,0.2s0.5-0.1,0.8-0.2c0.2-0.1,0.4-0.3,0.5-0.5s0.1-0.4,0.1-0.8V198z"/>
			<path class="st10" d="M602.8,194.9V194h0.8v0.9H602.8z M602.8,200.2v-4.4h0.8v4.4H602.8z"/>
			<path class="st10" d="M604.7,200.2v-4.4h0.7v0.7c0.2-0.3,0.3-0.5,0.5-0.6s0.3-0.2,0.5-0.2c0.3,0,0.5,0.1,0.8,0.2l-0.3,0.7
				c-0.2-0.1-0.4-0.2-0.6-0.2c-0.2,0-0.3,0-0.4,0.1s-0.2,0.2-0.3,0.4c-0.1,0.3-0.1,0.6-0.1,0.9v2.3h-0.8V200.2z"/>
			<path class="st10" d="M607.2,198.9l0.7-0.1c0,0.3,0.2,0.5,0.3,0.7s0.5,0.2,0.8,0.2s0.6-0.1,0.8-0.2c0.2-0.1,0.2-0.3,0.2-0.5
				s-0.1-0.3-0.2-0.4c-0.1-0.1-0.4-0.2-0.8-0.3c-0.5-0.1-0.9-0.3-1.1-0.4c-0.2-0.1-0.4-0.2-0.5-0.4s-0.2-0.4-0.2-0.6
				c0-0.2,0-0.4,0.1-0.5c0.1-0.2,0.2-0.3,0.4-0.4c0.1-0.1,0.3-0.2,0.5-0.2s0.4-0.1,0.6-0.1c0.3,0,0.7,0.1,0.9,0.2s0.5,0.2,0.6,0.4
				s0.2,0.4,0.3,0.7l-0.6,0c0-0.2-0.1-0.4-0.3-0.5s-0.4-0.2-0.7-0.2s-0.6,0.1-0.7,0.2c-0.1,0.1-0.2,0.2-0.2,0.4c0,0.1,0,0.2,0.1,0.3
				s0.2,0.1,0.3,0.2c0.1,0,0.3,0.1,0.7,0.2c0.5,0.1,0.9,0.3,1.1,0.3c0.2,0.1,0.4,0.2,0.5,0.4s0.2,0.4,0.2,0.6c0,0.2-0.1,0.5-0.2,0.7
				c-0.1,0.2-0.4,0.4-0.6,0.5c-0.3,0.1-0.6,0.2-0.9,0.2c-0.6,0-1-0.1-1.3-0.4C607.5,199.7,607.3,199.3,607.2,198.9z"/>
		</g>
		<g id="Outline_Icons-2-2-4-2-2-2">
			<line class="st13" x1="591.5" y1="177.6" x2="606" y2="177.6"/>
			<polyline class="st13" points="603.5,177.6 603.5,175.1 601,175.1 601,172.5 598.4,172.5 598.4,170 595.9,170 595.9,167.5 
				591.5,167.5 			"/>
			<line class="st13" x1="599.1" y1="163.1" x2="607" y2="171"/>
			<polyline class="st13" points="599.1,166.2 599.1,163.1 602.2,163.1 			"/>
			<polyline class="st13" points="607,167.8 607,171 603.9,171 			"/>
		</g>
	</g>
</g>
<g id="outline">
	<polyline class="st14" points="703.1,112.2 764.6,112.2 764.6,293.8 	"/>
	<polyline class="st14" points="643.7,540.4 33.2,540.4 33.2,407.7 39.5,407.7 39.5,284.8 46.5,284.8 46.5,228.9 46.5,84.9 
		547.3,85.7 547.3,113.6 684.2,113.6 643,113.6 643,29.1 733.1,40.3 820.5,29.1 820.5,627.7 731.7,613.8 643.7,627.7 643.7,540.4 
		764.6,540.4 764.6,358.8 	"/>
	<polyline class="st15" points="73.7,229.6 46.5,229.6 525,229.6 519.4,286.9 592.7,286.9 592.7,373.5 552.2,373.5 552.2,540.4 
		617.2,540.4 617.2,429.4 594.8,429.4 	"/>
	<line class="st15" x1="574.9" y1="428.6" x2="552.2" y2="428.6"/>
	<polyline class="st15" points="553.9,286.9 553.9,113.6 645.8,113.6 645.8,236.4 632.5,236.4 	"/>
	<line class="st15" x1="553.9" y1="237.1" x2="567.2" y2="237.1"/>
	<line class="st15" x1="589.7" y1="237.1" x2="609.2" y2="237.1"/>
	<polyline class="st15" points="552.2,373.5 515.2,373.5 434.5,373.5 434.5,286.9 519.4,286.9 	"/>
	<polyline class="st15" points="552.2,423.4 509.7,423.4 515.2,373.5 505.4,458.3 33.2,458.3 84,458.3 84,448.4 	"/>
	<polyline class="st15" points="39.5,372 156.6,372 156.6,428.9 	"/>
	<line class="st15" x1="85" y1="372" x2="85" y2="429.6"/>
	<line class="st15" x1="155.5" y1="458.3" x2="155.5" y2="449.4"/>
	<polyline class="st15" points="46.5,284.8 160.2,284.8 160.2,338.8 	"/>
	<polyline class="st15" points="156.6,372 160.2,372 160.2,365.3 	"/>
	<line class="st15" x1="434.5" y1="373.5" x2="434.5" y2="431"/>
	<line class="st15" x1="434.5" y1="458.3" x2="434.5" y2="452.5"/>
	<polyline class="st15" points="329.7,420.9 333,420.9 333,357.7 267.1,357.7 267.1,420.9 310.3,420.9 	"/>
	<line class="st15" x1="523.7" y1="242.3" x2="553.9" y2="242.3"/>
	<polyline class="st15" points="477,458.3 477,540.4 347.3,540.4 347.3,458.3 185,458.3 185,540.4 	"/>
</g>
</svg>
