<?xml version="1.0" encoding="utf-8"?>
<!-- Generator: Adobe Illustrator 25.4.0, SVG Export Plug-In . SVG Version: 6.00 Build 0)  -->
<svg version="1.1" id="Layer_1" xmlns="http://www.w3.org/2000/svg" xmlns:xlink="http://www.w3.org/1999/xlink" x="0px" y="0px"
	 viewBox="0 0 1501.8 873.2" style="enable-background:new 0 0 1501.8 873.2;" xml:space="preserve">
<style type="text/css">
	.st0{fill:#4196B1;}
	.st1{fill:#AAE0E4;}
	.st2{fill:#99B8BF;}
	.st3{fill:#8ECCCE;}
	.st4{opacity:0.65;fill:#575757;enable-background:new    ;}
	.st5{fill:#FFFFFF;}
	.st6{font-family:'Arial-BoldMT';}
	.st7{font-size:10px;}
	.st8{fill:none;stroke:#FFFFFF;stroke-width:8;}
	.st9{fill:none;stroke:#FFFFFF;stroke-width:4;}
	.st10{fill:#EBF2F2;}
	.st11{fill:#757D7F;}
	.st12{fill:none;stroke:#7A8E93;stroke-width:0.34;stroke-linecap:round;stroke-linejoin:round;}
	.st13{fill:#767E80;}
	.st14{font-family:'ArialMT';}
	.st15{font-size:9.562px;}
	.st16{fill:#EBF1F2;}
	.st17{fill:none;stroke:#7A8E93;stroke-width:0.827;stroke-miterlimit:10;}
	.st18{fill:none;stroke:#7A8E93;stroke-width:0.38;stroke-miterlimit:10;}
	.st19{fill:none;stroke:#7A8E93;stroke-width:0.74;stroke-linecap:round;stroke-linejoin:round;}
	.st20{fill:none;stroke:#7A8E93;stroke-width:0.827;stroke-linecap:round;stroke-linejoin:round;}
	.st21{fill:none;stroke:#7A8E93;stroke-width:0.693;stroke-miterlimit:10;}
</style>
<g id="shadow">
	<rect x="12.6" y="25.4" class="st0" width="1436.4" height="801.1"/>
</g>
<g id="background">
	<rect x="12.6" y="25.4" class="st1" width="1418" height="776.9"/>
</g>
<g id="spaces">
	<rect x="392" y="294.6" class="st2" width="323.2" height="182.8"/>
	<polygon class="st3" points="12.6,25.4 717.9,25.4 717.9,182.9 356.9,123.1 113.1,184.9 113.1,650.3 403.7,696.9 764.1,638.8 
		1052.6,687.8 1312.7,647.3 1325.1,644.3 1325.1,222.2 857.9,222.2 857.9,25.4 1430.6,25.4 1430.6,802.2 12.6,802.2 	"/>
	<polygon class="st3" points="360.5,173.9 715.2,228.3 715.2,295.3 286.4,295.3 286.4,475.3 332.4,475.3 332.4,630.9 246.8,615.2 
		246.8,609 203.2,609 164.2,609 164.2,218.9 	"/>
	<rect x="321.6" y="293.9" class="st3" width="70.4" height="181.4"/>
	<rect x="886.7" y="295.3" class="st3" width="72.9" height="178.7"/>
	<polygon class="st3" points="794.1,475.3 1168.6,475.3 1168.6,295.3 1274.4,295.3 1274.4,596.2 1272.8,599.6 1048.6,638.8 
		820.2,599.2 794.1,595 	"/>
	<polygon class="st3" points="383.9,533.2 497.5,533.2 497.5,518.5 716,518.5 716,598.1 416.1,644.3 383.3,638.5 	"/>
	<rect x="794.1" y="295.3" class="st2" width="92.4" height="179.6"/>
	<rect x="959.5" y="295.6" class="st2" width="209.1" height="179.3"/>
	<rect x="163.9" y="295.2" class="st2" width="122.5" height="180.1"/>
	<rect x="1168.6" y="450.8" class="st2" width="105.8" height="90.3"/>
	<polygon class="st2" points="1209.1,611.2 1272.8,611.2 1272.8,541.1 1209.2,541.1 	"/>
	<polygon class="st2" points="1247,657.5 1277.9,804.7 1430.6,804.7 1430.6,646 1322.4,646 	"/>
	<polygon class="st2" points="913.6,666.5 1052.6,687.8 1052.6,802.2 895.3,802.2 	"/>
	<polygon class="st2" points="666.7,656.5 761.1,638.8 820.2,651.2 820.2,802.5 667.1,802.5 	"/>
	<polygon class="st2" points="403.7,696.9 575.2,669.2 588.7,802.2 403.7,802.2 	"/>
	<polygon class="st2" points="383.9,589.3 383.9,639 416.1,644.3 497.5,631.8 497.5,533.2 442.4,533.2 442.4,589.9 	"/>
	<polygon class="st2" points="12.7,602.5 113.1,602.5 113.1,650.7 203.1,664.7 170.2,802.3 12.7,802.3 	"/>
	<polygon class="st2" points="162.4,547.8 246.8,547.8 246.8,477.4 332.4,477.4 332.4,630.9 246.8,615.2 246.8,609 198.6,609 
		164.2,602.5 	"/>
	<polygon class="st2" points="360.5,173.9 447.6,187.3 441.6,296 360.5,295.2 	"/>
	<polygon class="st2" points="164.2,218.9 249.6,199.6 249.6,293.9 163.9,293.9 	"/>
	<polygon class="st2" points="16,28 240.9,28 240.9,151.8 113.1,184.9 16,184.9 	"/>
	<polygon class="st2" points="794.1,523.5 867,523.5 867,474.9 907.7,474.9 907.7,614.8 794.1,595 	"/>
	<polygon class="st2" points="557.3,518.4 716,518.4 716,598.1 557.8,623.1 	"/>
</g>
<g id="bookable">
	<rect id="area-10.29-status" x="383.9" y="533.2" class="st4" width="58.5" height="56.6"/>
	<rect id="area-10.17-status" x="858.9" y="27.2" class="st4" width="112.3" height="195"/>
	<rect id="area-10.18-status" x="971.2" y="26.3" class="st4" width="192.3" height="195"/>
	<polygon id="area-10.19-status" class="st4" points="482,25.4 482,142.8 717.9,182.9 717.9,27.2 710.9,25.4 	"/>
	<polygon id="area-10.20-status" class="st4" points="613.7,213.8 715.2,228.3 715.2,295.3 613.7,295.3 	"/>
	<polygon id="area-10.21-status" class="st4" points="552.6,206.3 613.7,213.8 613.7,295.3 552.6,295.3 	"/>
	<polygon id="area-10.22-status" class="st4" points="250.3,199.6 360.5,173.9 360.5,294.6 250.3,294.6 	"/>
	<polygon id="area-10.23-status" class="st4" points="958.4,475.3 1059.4,475.3 1059.4,636.6 1049.5,639 958.4,621.6 	"/>
	<polygon id="area-10.24-status" class="st4" points="1168.6,475.3 1168.6,618.2 1059.4,636.6 1059.4,475.3 	"/>
	<polygon id="area-10.25-status" class="st4" points="1209.1,542.2 1209.1,609.9 1168.6,618.2 1168.6,541.1 	"/>
	<rect id="area-10.26-status" x="907" y="475.3" class="st4" width="51.2" height="59.9"/>
	<rect id="area-10.27-status" x="794.1" y="475.3" class="st4" width="73.2" height="49.5"/>
	<polygon id="area-10.28-status" class="st4" points="958.2,535.3 958.4,621.6 908.8,613.1 908.8,535.3 	"/>
	<rect id="area-10.01-status" x="1168.6" y="358" class="st4" width="105.8" height="94.3"/>
	<rect id="area-10.02-status" x="1325.1" y="353.6" class="st4" width="107.8" height="120.5"/>
	<rect id="area-10.03-status" x="1325.1" y="474.1" class="st4" width="105.5" height="172"/>
	<polygon id="area-10.04-status" class="st4" points="1155.9,670.5 1246.8,656.7 1277.9,802.2 1155.9,802.2 	"/>
	<polygon id="area-10.05-status" class="st4" points="1052.6,689 1155.9,670.5 1155.9,802.2 1052.6,802.2 	"/>
	<polygon id="area-10.06-status" class="st4" points="820.2,649.7 913.7,666.5 895.3,803.8 820.2,803.8 	"/>
	<polygon id="area-10.07-status" class="st4" points="575.2,668.9 667.1,655.5 667.1,802.2 589.3,802.2 	"/>
	<polygon id="area-10.09-status" class="st4" points="285.4,677.2 403.7,696.9 403.7,802.2 285.4,802.2 	"/>
	<polygon id="area-10.10-status" class="st4" points="201.2,663.3 285.4,677.2 285.4,802.2 170.2,802.2 	"/>
	<polygon id="area-10.08-status" class="st4" points="497.5,518.5 557.8,518.5 557.8,622 497.5,630.9 	"/>
	<polygon id="area-10.16-status" class="st4" points="356.9,25.4 356.9,122.7 482,142.8 482,25.4 	"/>
	<polygon id="area-10.15-status" class="st4" points="241.3,25.4 241.3,152.1 356.9,122.7 356.9,25.4 	"/>
	<rect id="area-10.14-status" x="12.6" y="184.9" class="st4" width="100.5" height="111.3"/>
	<rect id="area-10.13-status" x="11.9" y="297" class="st4" width="101.3" height="88.1"/>
	<rect id="area-10.11-status" x="12.6" y="475.1" class="st4" width="100.5" height="126.9"/>
	<rect id="area-10.12-status" x="11.9" y="385" class="st4" width="101.3" height="90.3"/>
	<text transform="matrix(1 0 0 1 886.4763 130.71)" class="st5 st6 st7">Henry Flagler</text>
	<text transform="matrix(1 0 0 1 1039.89 130.71)" class="st5 st6 st7">Jullia </text>
	<text transform="matrix(1 0 0 1 1068.235 130.71)" class="st5 st6 st7">T</text>
	<text transform="matrix(1 0 0 1 1073.6011 130.71)" class="st5 st6 st7">uttle</text>
	<text transform="matrix(1 0 0 1 561.146 95.866)" class="st5 st6 st7">Mary Brickell</text>
	<text transform="matrix(1 0 0 1 626.36 260.508)" class="st5 st6 st7">David Fairchild</text>
	<text transform="matrix(1 0 0 1 563.72 255.233)" class="st5 st6 st7">Marjorie </text>
	<text transform="matrix(1 0 0 1 563.447 267.233)" class="st5 st6 st7">Douglas</text>
	<text transform="matrix(1 0 0 1 268.088 255.233)" class="st5 st6 st7">Manatee Room</text>
	<text transform="matrix(1 0 0 1 972.843 566.857)" class="st5 st6 st7">Flamingo Room</text>
	<text transform="matrix(1 0 0 1 1072.4449 561.696)" class="st5 st6 st7">Key Largo Room</text>
	<path class="st5" d="M1178,597.8v-2.6c0-0.5,0-0.9,0.1-1.4c0.1-0.4,0.3-0.8,0.7-1.1c0.3-0.3,0.7-0.5,1.2-0.7s1.1-0.2,1.7-0.2
		c0.5,0,1,0.1,1.5,0.2c0.5,0.2,0.9,0.4,1.3,0.8c0.3,0.3,0.5,0.6,0.6,1s0.2,0.8,0.2,1.3v2.7H1178z M1179.2,596.3h4.7v-1.1
		c0-0.3,0-0.6-0.1-0.9c0-0.2-0.2-0.4-0.3-0.6c-0.2-0.2-0.4-0.3-0.7-0.4c-0.4-0.1-0.9-0.2-1.3-0.1c-0.4,0-0.9,0-1.3,0.1
		c-0.3,0.1-0.5,0.2-0.7,0.4s-0.3,0.4-0.3,0.7c-0.1,0.4-0.1,0.8-0.1,1.2L1179.2,596.3z"/>
	<path class="st5" d="M1181.5,589.5l-0.2,1.2c-0.4-0.1-0.8-0.4-1.1-0.7c-0.3-0.5-0.4-1-0.4-1.5s0-0.9,0.2-1.4
		c0.1-0.3,0.3-0.5,0.6-0.6c0.4-0.2,0.8-0.2,1.2-0.2h1.6c0.3,0,0.7,0,1-0.1c0.2-0.1,0.5-0.1,0.7-0.2v1.4c-0.1,0-0.2,0.1-0.4,0.1h-0.2
		c0.2,0.2,0.4,0.5,0.5,0.8s0.2,0.6,0.2,0.9c0,0.5-0.1,0.9-0.4,1.3c-0.3,0.3-0.7,0.5-1.1,0.5c-0.3,0-0.5-0.1-0.8-0.2
		c-0.2-0.1-0.4-0.3-0.5-0.6c-0.2-0.3-0.3-0.7-0.3-1.1c-0.1-0.5-0.2-0.9-0.3-1.3h-0.1c-0.2,0-0.4,0.1-0.6,0.2
		c-0.1,0.2-0.2,0.5-0.2,0.7s0,0.4,0.1,0.6C1181.1,589.4,1181.3,589.5,1181.5,589.5z M1182.6,587.7c0.1,0.3,0.2,0.6,0.2,0.8
		c0,0.3,0.1,0.5,0.2,0.7s0.3,0.3,0.5,0.3s0.4-0.1,0.5-0.2c0.1-0.1,0.2-0.3,0.2-0.5c0-0.3-0.1-0.5-0.2-0.7s-0.3-0.3-0.5-0.3
		s-0.4-0.1-0.7-0.1H1182.6z"/>
	<path class="st5" d="M1179.9,585.7v-1.5l3.7-1.2l-3.7-1.2v-1.4l5,1.8l0.9,0.3c0.2,0.1,0.5,0.2,0.7,0.3s0.3,0.2,0.4,0.4
		s0.2,0.3,0.2,0.5c0.1,0.2,0.1,0.5,0.1,0.7c0,0.3,0,0.5-0.1,0.8l-1.1,0.1c0-0.2,0.1-0.4,0.1-0.6c0-0.3-0.1-0.5-0.3-0.7
		c-0.2-0.2-0.5-0.3-0.7-0.4L1179.9,585.7z"/>
	<path class="st5" d="M1179.9,577.1h1.1v0.9h2.1c0.2,0,0.5,0,0.7,0c0.1,0,0.1-0.1,0.2-0.1c0-0.1,0.1-0.1,0.1-0.2
		c0-0.2-0.1-0.4-0.1-0.6l1.1-0.1c0.1,0.3,0.2,0.7,0.2,1.1c0,0.2,0,0.5-0.1,0.7s-0.2,0.3-0.3,0.4c-0.2,0.1-0.3,0.2-0.5,0.2
		c-0.3,0-0.6,0.1-1,0h-2.3v0.6h-1.1v-0.6h-1l-0.8-1.4h1.8L1179.9,577.1z"/>
	<path class="st5" d="M1182.5,576.4c-0.5,0-0.9-0.1-1.3-0.3s-0.8-0.5-1-1c-0.2-0.4-0.3-0.9-0.3-1.4c0-0.7,0.3-1.4,0.8-1.9
		s1.2-0.8,1.9-0.8c0.7,0,1.4,0.3,2,0.8c0.5,0.5,0.8,1.2,0.8,1.9c0,0.5-0.1,0.9-0.3,1.4c-0.2,0.4-0.5,0.8-0.9,1
		C1183.5,576.3,1183,576.5,1182.5,576.4z M1182.5,575c0.4,0,0.8-0.1,1.2-0.4c0.5-0.4,0.5-1.2,0.1-1.7l-0.1-0.1
		c-0.3-0.3-0.8-0.4-1.2-0.4c-0.4,0-0.8,0.1-1.2,0.4c-0.5,0.4-0.5,1.2-0.1,1.7l0.1,0.1C1181.7,574.9,1182.1,575.1,1182.5,575z"/>
	<path class="st5" d="M1185.1,565.3v1.4h-2.6c-0.4,0-0.7,0-1.1,0.1c-0.2,0.1-0.3,0.2-0.4,0.3s-0.1,0.3-0.1,0.5s0.1,0.5,0.2,0.6
		c0.1,0.2,0.3,0.3,0.5,0.4c0.4,0.1,0.8,0.1,1.2,0.1h2.3v1.4h-5.2v-1.3h0.8c-0.8-0.6-1.1-1.6-0.7-2.5c0.1-0.2,0.2-0.4,0.4-0.6
		c0.2-0.1,0.4-0.2,0.6-0.3c0.3-0.1,0.6-0.1,0.9-0.1L1185.1,565.3z"/>
	<path class="st5" d="M1181.5,562.9l-0.2,1.2c-0.4-0.1-0.8-0.4-1.1-0.7c-0.3-0.5-0.4-1-0.4-1.5s0-0.9,0.2-1.4
		c0.1-0.3,0.3-0.5,0.6-0.6c0.4-0.2,0.8-0.2,1.2-0.2h1.6c0.3,0,0.7,0,1-0.1c0.2-0.1,0.5-0.1,0.7-0.2v1.4c-0.1,0-0.2,0.1-0.4,0.1
		c-0.1,0-0.1,0-0.2,0c0.2,0.2,0.4,0.5,0.5,0.8s0.2,0.6,0.2,0.9c0,0.5-0.1,0.9-0.4,1.3c-0.3,0.3-0.7,0.5-1.1,0.5
		c-0.3,0-0.5-0.1-0.8-0.2c-0.2-0.1-0.4-0.3-0.5-0.6c-0.2-0.3-0.3-0.7-0.3-1.1c-0.1-0.5-0.2-0.9-0.3-1.3h-0.1c-0.2,0-0.4,0.1-0.6,0.2
		c-0.1,0.2-0.2,0.5-0.2,0.7s0,0.4,0.1,0.6C1181.1,562.7,1181.3,562.8,1181.5,562.9z M1182.6,561c0.1,0.3,0.2,0.6,0.2,0.8
		c0,0.3,0.1,0.5,0.2,0.7s0.3,0.3,0.5,0.3s0.4-0.1,0.5-0.2c0.1-0.1,0.2-0.3,0.2-0.5c0-0.3-0.1-0.5-0.2-0.7s-0.3-0.3-0.5-0.3
		s-0.4-0.1-0.7-0.1H1182.6z"/>
	<path class="st5" d="M1190,593.1v-2.9c0-0.4,0-0.8,0.1-1.3c0-0.3,0.1-0.5,0.3-0.7c0.2-0.2,0.4-0.4,0.6-0.5c0.3-0.1,0.5-0.2,0.8-0.2
		c0.7,0,1.3,0.4,1.6,1c0.1-0.4,0.3-0.8,0.6-1c0.3-0.2,0.7-0.4,1.1-0.4c0.3,0,0.7,0.1,0.9,0.2c0.3,0.1,0.5,0.4,0.7,0.6
		c0.2,0.3,0.3,0.6,0.3,1c0,0.2,0,0.8,0,1.7v2.4L1190,593.1z M1191.2,591.6h1.7v-0.9c0-0.6,0-0.9,0-1.1c0-0.2-0.1-0.4-0.3-0.6
		c-0.1-0.1-0.4-0.2-0.6-0.2s-0.4,0.1-0.5,0.2c-0.1,0.1-0.2,0.3-0.3,0.5c0,0.1,0,0.6,0,1.2L1191.2,591.6L1191.2,591.6z M1194,591.6
		h1.9v-1.3c0-0.3,0-0.7,0-1c0-0.2-0.1-0.4-0.3-0.5c-0.2-0.1-0.4-0.2-0.6-0.2s-0.4,0-0.5,0.2c-0.2,0.1-0.3,0.3-0.3,0.5
		c-0.1,0.4-0.1,0.9-0.1,1.3L1194,591.6z"/>
	<path class="st5" d="M1195.5,582.9l0.2-1.4c0.5,0.1,0.9,0.4,1.1,0.8c0.3,0.4,0.4,0.9,0.4,1.4c0.1,0.8-0.3,1.5-0.9,2
		c-0.5,0.4-1.2,0.5-1.8,0.5c-0.7,0-1.5-0.2-2-0.7c-0.5-0.4-0.7-1.1-0.7-1.7c0-0.7,0.2-1.4,0.8-1.8c0.7-0.5,1.5-0.7,2.3-0.6v3.4
		c0.3,0,0.7-0.1,1-0.3c0.2-0.2,0.3-0.5,0.3-0.8c0-0.2-0.1-0.4-0.2-0.5C1195.9,583,1195.7,582.9,1195.5,582.9z M1194.1,582.8
		c-0.3,0-0.7,0.1-0.9,0.3c-0.2,0.2-0.3,0.4-0.3,0.7s0.1,0.6,0.3,0.7c0.2,0.2,0.6,0.3,0.9,0.3V582.8z"/>
	<path class="st5" d="M1193.5,579.3l-0.2,1.2c-0.4-0.1-0.8-0.4-1.1-0.7c-0.3-0.5-0.4-1-0.4-1.5s0-0.9,0.2-1.4
		c0.1-0.3,0.3-0.5,0.6-0.6c0.4-0.2,0.8-0.2,1.2-0.2h1.6c0.3,0,0.7,0,1-0.1c0.2-0.1,0.5-0.1,0.7-0.2v1.4c-0.1,0-0.2,0.1-0.4,0.1
		c-0.1,0-0.1,0-0.2,0c0.2,0.2,0.4,0.5,0.5,0.8s0.2,0.6,0.2,0.9c0,0.5-0.1,0.9-0.4,1.3c-0.3,0.3-0.7,0.5-1.1,0.5
		c-0.3,0-0.5-0.1-0.8-0.2c-0.2-0.1-0.4-0.3-0.5-0.6c-0.2-0.3-0.3-0.7-0.3-1.1c-0.1-0.5-0.2-0.9-0.3-1.3h-0.1c-0.2,0-0.4,0.1-0.6,0.2
		c-0.1,0.2-0.2,0.5-0.2,0.7s0,0.4,0.1,0.6C1193.1,579.1,1193.3,579.2,1193.5,579.3z M1194.6,577.4c0.1,0.3,0.2,0.6,0.2,0.8
		c0,0.3,0.1,0.5,0.2,0.7s0.3,0.3,0.5,0.3s0.4-0.1,0.5-0.2c0.1-0.1,0.2-0.3,0.2-0.5c0-0.3-0.1-0.5-0.2-0.7s-0.3-0.3-0.5-0.3
		s-0.4-0.1-0.7-0.1H1194.6z"/>
	<path class="st5" d="M1193.5,570.2l0.2,1.4c-0.2,0-0.5,0.1-0.6,0.3s-0.2,0.4-0.2,0.6c0,0.3,0.1,0.6,0.4,0.8s0.8,0.3,1.2,0.3
		c0.5,0,0.9-0.1,1.3-0.3c0.3-0.2,0.4-0.5,0.4-0.8c0-0.2-0.1-0.5-0.2-0.6c-0.2-0.2-0.5-0.3-0.8-0.4l0.2-1.3c0.5,0.1,1,0.4,1.4,0.8
		c0.3,0.5,0.5,1,0.5,1.6c0,0.7-0.2,1.3-0.7,1.8c-1.2,0.9-2.8,0.9-4,0c-0.5-0.5-0.8-1.1-0.7-1.8c0-0.5,0.1-1.1,0.4-1.5
		C1192.5,570.6,1193,570.3,1193.5,570.2z"/>
	<path class="st5" d="M1190,567.8h2.6c-0.7-0.6-1-1.6-0.6-2.4c0.1-0.2,0.3-0.4,0.4-0.6c0.2-0.1,0.4-0.2,0.6-0.3
		c0.3-0.1,0.7-0.1,1-0.1h3v1.4h-2.7c-0.3,0-0.7,0-1,0.1c-0.1,0.1-0.3,0.1-0.3,0.3c-0.1,0.1-0.1,0.3-0.1,0.5s0.1,0.4,0.2,0.6
		c0.1,0.2,0.3,0.3,0.5,0.4c0.3,0.1,0.7,0.1,1,0.1h2.6v1.4h-7.2V567.8z"/>
	<text transform="matrix(1 0 0 1 909.449 511.574)" class="st5 st6 st7">Biscayne</text>
	<text transform="matrix(1 0 0 1 816.006 495.178)" class="st5 st6 st7">Marco </text>
	<text transform="matrix(1 0 0 1 816.285 507.178)" class="st5 st6 st7">Island</text>
	<text transform="matrix(1 0 0 1 922.234 570.791)" class="st5 st6 st7">Key </text>
	<text transform="matrix(1 0 0 1 919.55 582.791)" class="st5 st6 st7">W</text>
	<text transform="matrix(1 0 0 1 928.808 582.791)" class="st5 st6 st7">est  </text>
	<text transform="matrix(1 0 0 1 1203.9659 402.321)" class="st5 st6 st7">Partner </text>
	<text transform="matrix(1 0 0 1 1202.8619 414.321)" class="st5 st6 st7">Room-1</text>
	<text transform="matrix(1 0 0 1 1361.454 414.881)" class="st5 st6 st7">Partner </text>
	<text transform="matrix(1 0 0 1 1360.35 426.881)" class="st5 st6 st7">Room-2</text>
	<text transform="matrix(1 0 0 1 1358.1851 552.743)" class="st5 st6 st7">Partner </text>
	<text transform="matrix(1 0 0 1 1357.0811 564.743)" class="st5 st6 st7">Room-3</text>
	<text transform="matrix(1 0 0 1 1191.627 727.142)" class="st5 st6 st7">Partner </text>
	<text transform="matrix(1 0 0 1 1190.5229 739.142)" class="st5 st6 st7">Room-4</text>
	<text transform="matrix(1 0 0 1 1081.9449 730.045)" class="st5 st6 st7">Partner </text>
	<text transform="matrix(1 0 0 1 1080.8409 742.045)" class="st5 st6 st7">Room-5</text>
	<text transform="matrix(1 0 0 1 842.923 723.992)" class="st5 st6 st7">Partner </text>
	<text transform="matrix(1 0 0 1 841.819 735.992)" class="st5 st6 st7">Room-6</text>
	<text transform="matrix(1 0 0 1 603.651 725.139)" class="st5 st6 st7">Partner </text>
	<text transform="matrix(1 0 0 1 602.547 737.139)" class="st5 st6 st7">Room-7</text>
	<text transform="matrix(1 0 0 1 510.126 570.792)" class="st5 st6 st7">Partner </text>
	<text transform="matrix(1 0 0 1 509.022 582.792)" class="st5 st6 st7">Room-8</text>
	<text transform="matrix(1 0 0 1 322.134 735.744)" class="st5 st6 st7">Partner </text>
	<text transform="matrix(1 0 0 1 321.03 747.744)" class="st5 st6 st7">Room-9</text>
	<text transform="matrix(1 0 0 1 219.981 730.48)" class="st5 st6 st7">Partner </text>
	<text transform="matrix(1 0 0 1 216.097 742.48)" class="st5 st6 st7">Room-10</text>
	<text transform="matrix(1 0 0 1 47.279 529.995)" class="st5 st6 st7">Partner </text>
	<text transform="matrix(1 0 0 1 43.671 541.995)" class="st5 st6 st7">Room-</text>
	<text transform="matrix(1 0 0 1 75.331 541.995)" class="st5 st6 st7">1</text>
	<text transform="matrix(1 0 0 1 80.341 541.995)" class="st5 st6 st7">1</text>
	<text transform="matrix(1 0 0 1 45.364 427.962)" class="st5 st6 st7">Partner </text>
	<text transform="matrix(1 0 0 1 41.48 439.962)" class="st5 st6 st7">Room-12</text>
	<text transform="matrix(1 0 0 1 47.279 335.047)" class="st5 st6 st7">Partner </text>
	<text transform="matrix(1 0 0 1 43.395 347.047)" class="st5 st6 st7">Room-13</text>
	<text transform="matrix(1 0 0 1 47.279 246.888)" class="st5 st6 st7">Partner </text>
	<text transform="matrix(1 0 0 1 43.395 258.888)" class="st5 st6 st7">Room-14</text>
	<text transform="matrix(1 0 0 1 281.632 81.449)" class="st5 st6 st7">Partner </text>
	<text transform="matrix(1 0 0 1 277.748 93.449)" class="st5 st6 st7">Room-15</text>
	<text transform="matrix(1 0 0 1 407.434 81.449)" class="st5 st6 st7">Partner </text>
	<text transform="matrix(1 0 0 1 403.55 93.449)" class="st5 st6 st7">Room-16</text>
	<text transform="matrix(1 0 0 1 394.3328 567.0721)" class="st5 st6 st7">Surfside</text>
</g>
<g id="outline">
	<rect x="12.6" y="25.4" class="st8" width="1418" height="776.9"/>
	<polyline class="st9" points="707.4,181.3 717.9,182.9 717.9,25.4 482,25.4 482,143.2 679,176.6 356.9,123.1 347.5,126.3 	"/>
	<polyline class="st9" points="325.5,130.6 241.5,151.4 226.8,155 	"/>
	<line class="st9" x1="241.3" y1="25.4" x2="241.3" y2="150.6"/>
	<polyline class="st9" points="356.9,123.1 356.9,25.4 12.6,25.4 12.6,184.9 113.1,184.9 113.1,270.6 	"/>
	<line class="st9" x1="113.1" y1="184.9" x2="204" y2="162.5"/>
	<polyline class="st9" points="12.6,296.2 113.1,296.2 113.1,290.3 113.1,305.6 	"/>
	<polyline class="st9" points="12.6,385 113.1,385 113.1,324.1 113.1,407.7 	"/>
	<polyline class="st9" points="12.6,475.1 113.1,475.1 113.1,425.9 113.1,485.3 	"/>
	<polyline class="st9" points="12.6,603.7 113.1,603.7 113.1,504.6 113.1,648.9 170.2,657.5 	"/>
	<polyline class="st9" points="189,661.1 201.2,663.3 217.3,666.2 	"/>
	<polyline class="st9" points="201.2,663.3 170.2,800.7 285.4,800.7 285.4,677.2 244.5,669.3 309.4,681.1 	"/>
	<polyline class="st9" points="339.6,685.8 403.7,696.9 538.6,676 	"/>
	<polyline class="st9" points="403.7,696.9 403.7,802.2 589.3,802.2 575.2,668.9 609.4,664.2 	"/>
	<line class="st9" x1="647.5" y1="658.3" x2="697.5" y2="651.2"/>
	<polyline class="st9" points="667.1,655.5 667.1,800.3 820.2,800.3 820.2,649.7 760.8,639 721.6,645.3 	"/>
	<line class="st9" x1="820.2" y1="649.7" x2="839" y2="653.2"/>
	<line class="st9" x1="867.3" y1="658.3" x2="938.5" y2="670.9"/>
	<polyline class="st9" points="913.7,666.5 895.3,802.2 1052.6,802.2 1052.6,687.8 968,674.8 	"/>
	<line class="st9" x1="1052.6" y1="687.8" x2="1079.3" y2="683.1"/>
	<polyline class="st9" points="1108,678.4 1155.9,670.5 1180.3,666.5 	"/>
	<polyline class="st9" points="1155.9,670.5 1155.9,802.2 1277.9,802.2 1246.8,656.7 1205.9,663 1266.1,653.2 	"/>
	<polyline class="st9" points="1430.6,646.1 1320.7,646.1 1295.6,649.7 	"/>
	<polyline class="st9" points="1430.6,473.9 1325.1,473.9 1325.1,618.2 1325.1,442.8 	"/>
	<polyline class="st9" points="1325.1,267.5 1325.1,420.8 1325.1,353.6 1430.6,353.6 	"/>
	<polyline class="st9" points="1212.2,222.2 1325.1,222.2 1325.1,249.4 	"/>
	<polyline class="st9" points="1163.4,25.4 1163.4,222.2 1025.8,222.2 	"/>
	<polyline class="st9" points="1001.8,222.2 891.7,222.2 971.2,222.2 971.2,27.2 857.9,27.2 857.9,222.2 867.7,222.2 	"/>
	<polyline class="st9" points="418.6,185.3 360.5,173.9 360.5,295.3 715.2,295.3 715.2,228.3 715.2,475.3 794.1,475.3 521.3,475.3 	
		"/>
	<polyline class="st9" points="640.3,475.3 640.3,295.3 514.3,295.3 514.3,417.7 557.3,417.7 557.3,435.2 	"/>
	<polyline class="st9" points="514.3,417.7 448,417.7 448,430.7 	"/>
	<polyline class="st9" points="392,295.3 392,475.3 476.3,475.3 	"/>
	<path class="st9" d="M321.6,295.3L321.6,295.3z"/>
	<polyline class="st9" points="688,517.8 716,517.8 716,598.1 416.1,644.3 246.8,615.2 246.8,475.3 282.8,475.3 360.5,475.3 
		321.6,475.3 321.6,295.3 	"/>
	<polyline class="st9" points="442.4,640.2 442.4,533.2 383.9,533.2 383.9,518.5 360.5,518.5 	"/>
	<line class="st9" x1="383.9" y1="533.2" x2="383.9" y2="557.9"/>
	<polyline class="st9" points="442.4,589.8 383.9,589.8 383.9,578.2 383.9,615.3 	"/>
	<polyline class="st9" points="466.8,533.2 497.5,533.2 497.5,518.5 512.5,518.5 	"/>
	<polyline class="st9" points="497.5,533.2 497.5,630.9 557.8,622.4 557.8,518.5 535,518.5 570.6,518.5 	"/>
	<polyline class="st9" points="597.2,518.5 654.6,518.5 628.3,518.5 628.3,611 	"/>
	<polyline class="st9" points="246.8,608.9 199.8,608.9 164.2,602.5 164.2,590.1 	"/>
	<polyline class="st9" points="246.8,475.3 162.4,475.3 162.4,490.8 162.4,417.7 162.4,256.1 	"/>
	<polyline class="st9" points="246.8,547.8 162.4,547.8 162.4,564.8 162.4,513.7 	"/>
	<line class="st9" x1="286.4" y1="475.3" x2="286.4" y2="454.2"/>
	<polyline class="st9" points="250.3,199.6 250.3,295.3 303.3,295.3 286.4,295.3 286.4,307.1 	"/>
	<polyline class="st9" points="286.4,322.1 286.4,437.2 286.4,385.3 162.4,385.3 	"/>
	<line class="st9" x1="250.3" y1="295.3" x2="162.4" y2="295.3"/>
	<polyline class="st9" points="162.4,229.1 162.4,219.4 360.5,173.9 	"/>
	<polyline class="st9" points="446.5,190.5 441.6,295.3 552.6,295.3 552.6,206.3 476.3,192.4 575.5,210.8 	"/>
	<line class="st9" x1="715.2" y1="228.3" x2="655" y2="220.1"/>
	<polyline class="st9" points="613.7,295.3 613.7,213.8 630.6,216.8 598.4,210.4 	"/>
	<path class="st9" d="M321.6,295.3L321.6,295.3z"/>
	<rect x="794.1" y="295.3" class="st9" width="92.5" height="180"/>
	<polyline class="st9" points="886.7,475.3 1168.6,475.3 1168.6,295.3 1057.2,295.3 1065.9,295.3 1065.9,271.9 	"/>
	<polyline class="st9" points="913,295.3 998,295.3 959.6,295.3 959.6,475.3 1025.8,475.3 1025.8,295.3 1018.3,295.3 1038,295.3 	
		"/>
	<line class="st9" x1="959.6" y1="405.1" x2="995.8" y2="405.1"/>
	<line class="st9" x1="1018.8" y1="405.1" x2="1025.8" y2="405.1"/>
	<polyline class="st9" points="1168.6,295.3 1274.4,295.3 1274.4,306.4 	"/>
	<polyline class="st9" points="1274.4,325.6 1274.4,390.3 1274.4,358 1168.6,358 1168.6,452.3 1274.4,452.3 1274.4,413.8 
		1274.4,475.3 	"/>
	<polyline class="st9" points="1168.6,475.3 1168.6,618.2 1183.9,615.7 1099.5,630 	"/>
	<line class="st9" x1="1205.3" y1="611.9" x2="1227.2" y2="608"/>
	<polyline class="st9" points="1168.6,542.2 1274.4,542.2 1274.4,496.2 1274.4,599.3 1250.8,604.2 	"/>
	<line class="st9" x1="1209.1" y1="542.2" x2="1209.1" y2="609.9"/>
	<polyline class="st9" points="1059.4,475.3 1059.4,637 1079.3,633.4 1048.6,638.8 995.5,628 	"/>
	<line class="st9" x1="969.1" y1="623.1" x2="947.7" y2="620"/>
	<polyline class="st9" points="958.4,620 958.4,535.5 958.4,475.3 907,475.3 907,499.8 	"/>
	<line class="st9" x1="908.8" y1="520.8" x2="908.8" y2="614.6"/>
	<line class="st9" x1="958.4" y1="535.5" x2="908.8" y2="535.5"/>
	<line class="st9" x1="867.3" y1="475.3" x2="867.3" y2="499.8"/>
	<polyline class="st9" points="794.1,475.3 794.1,595 832.8,601.2 	"/>
	<polyline class="st9" points="794.1,523 867.3,523 867.3,515.4 867.3,608 852.5,606.1 	"/>
	<line class="st9" x1="332.4" y1="475.3" x2="332.4" y2="547.7"/>
	<polyline class="st9" points="246.8,581 332.4,581 332.4,599.5 332.4,571.9 	"/>
</g>
<g id="icons">
	<circle class="st10" cx="919.6" cy="384.4" r="23.2"/>
	<path class="st11" d="M907.7,418.9h1.1c0,0.4,0.2,0.6,0.2,0.9c0.2,0.3,0.5,0.5,0.8,0.6c0.4,0.2,0.8,0.3,1.3,0.2
		c0.4,0,0.7,0,1.1-0.2c0.2-0.2,0.4-0.2,0.6-0.4c0.3-0.4,0.3-0.9,0-1.3c-0.2-0.2-0.4-0.4-0.6-0.4c-0.4-0.1-0.9-0.2-1.3-0.4
		c-0.5-0.2-1-0.3-1.5-0.4c-0.3-0.2-0.6-0.4-0.8-0.6c-0.2-0.3-0.3-0.7-0.2-1.1c0-0.4,0.2-0.8,0.4-1.1c0.3-0.4,0.6-0.7,1.1-0.9
		c1-0.3,2-0.3,3,0c0.4,0.2,0.8,0.5,1.1,0.9c0.2,0.4,0.4,0.8,0.4,1.3h-1.1c0-0.4-0.2-0.9-0.6-1.1c-0.4-0.3-0.8-0.4-1.3-0.4
		s-0.9,0.1-1.3,0.4c-0.3,0.2-0.4,0.5-0.4,0.9c0,0.2,0,0.5,0.2,0.6c0.4,0.3,0.9,0.6,1.5,0.6c0.9,0.2,1.5,0.4,1.7,0.4
		c0.4,0.2,0.8,0.5,1.1,0.9c0.6,0.6,0.6,1.5,0,2.1c-0.3,0.3-0.7,0.6-1.1,0.9c-0.5,0.2-1,0.3-1.5,0.2c-0.6,0-1.2,0-1.7-0.2
		c-0.4-0.2-0.8-0.5-1.1-0.9C907.7,419.7,907.7,419.3,907.7,418.9z"/>
	<path class="st11" d="M917,420.4l0.2,0.9h-0.6c-0.4,0-0.6,0-0.9-0.2s-0.4-0.2-0.4-0.4c-0.1-0.3-0.2-0.7-0.2-1.1v-3.2h-0.6v-0.6h0.6
		v-1.3l0.8-0.6v1.9h0.9v0.6H916v3.6c0,0.1,0.1,0.2,0.2,0.2h0.4C916.8,420.4,916.8,420.4,917,420.4z"/>
	<path class="st11" d="M921.5,420.6c-0.4,0.2-0.6,0.4-1.1,0.6c-0.3,0.2-0.7,0.2-1.1,0.2c-0.5,0-1-0.2-1.5-0.4
		c-0.4-0.2-0.4-0.6-0.4-1.1c0-0.3,0.1-0.6,0.2-0.9c0.2-0.2,0.2-0.4,0.4-0.6s0.4-0.2,0.6-0.2c0.3,0,0.6-0.1,0.8-0.2
		c0.6,0,1.2-0.1,1.7-0.4v-0.2c0-0.4,0-0.6-0.2-0.8c-0.3-0.3-0.7-0.4-1.1-0.4c-0.4-0.1-0.7,0-1.1,0.2c-0.3,0.2-0.4,0.5-0.4,0.9
		l-0.8-0.2c0-0.4,0.2-0.6,0.4-1.1c0.2-0.3,0.5-0.5,0.9-0.6c0.4-0.2,0.8-0.2,1.3-0.2c0.4-0.1,0.7,0,1.1,0.2c0.2,0.2,0.4,0.2,0.6,0.4
		c0.2,0.2,0.2,0.4,0.2,0.6v3.8c0,0.2,0.2,0.4,0.2,0.6h-1.1C921.7,421,921.7,420.8,921.5,420.6z M921.5,418.5c-0.5,0.2-1,0.3-1.5,0.4
		c-0.4,0-0.6,0.2-0.8,0.2s-0.2,0.2-0.4,0.2s-0.2,0.2-0.2,0.4c0,0.2,0,0.5,0.2,0.6c0.2,0.2,0.4,0.2,0.8,0.2c0.4,0,0.7,0,1.1-0.2
		l0.6-0.6c0-0.2,0.2-0.4,0.2-0.9L921.5,418.5L921.5,418.5z"/>
	<path class="st11" d="M924,414.6v-1.1h0.8v1.1H924z M924,421.2v-5.5h0.8v5.5H924z"/>
	<path class="st11" d="M926.4,421.2v-5.5h0.8v0.9c0.2-0.3,0.4-0.6,0.6-0.9c0.2-0.2,0.4-0.2,0.6-0.2c0.4,0,0.7,0.1,1.1,0.2l-0.4,0.9
		c-0.4-0.3-0.9-0.3-1.3,0l-0.4,0.4c0,0.4-0.2,0.6-0.2,1.1v3h-0.8L926.4,421.2L926.4,421.2z"/>
	<path class="st11" d="M929.6,419.5l0.9-0.2c0,0.3,0.2,0.6,0.4,0.9c0.7,0.3,1.4,0.3,2.1,0c0.2-0.2,0.2-0.4,0.2-0.6s0-0.4-0.2-0.4
		s-0.4-0.2-1.1-0.4c-0.5-0.2-1-0.3-1.5-0.4c-0.2-0.2-0.4-0.2-0.6-0.4s-0.2-0.4-0.2-0.9c0-0.2,0-0.5,0.2-0.6c0.2-0.2,0.2-0.4,0.4-0.4
		c0.2-0.2,0.4-0.2,0.6-0.2c0.2,0,0.4-0.2,0.9-0.2c0.4-0.1,0.7,0,1.1,0.2c0.4,0.2,0.6,0.2,0.6,0.4c0.2,0.2,0.2,0.4,0.4,0.9l-0.8,0.2
		c0-0.2-0.2-0.4-0.4-0.6s-0.4-0.2-0.8-0.2s-0.6,0-0.9,0.2s-0.2,0.2-0.2,0.4s0,0.2,0.2,0.4c0.1,0.1,0.3,0.2,0.4,0.2
		c0.3,0.1,0.6,0.2,0.9,0.2c0.5,0.2,1,0.4,1.5,0.4c0.4,0,0.4,0.2,0.6,0.4s0.2,0.4,0.2,0.9c0,0.3,0,0.6-0.2,0.8
		c-0.2,0.3-0.5,0.5-0.9,0.6c-0.4,0.2-0.8,0.3-1.3,0.2c-0.6,0-1.2-0.2-1.7-0.4C929.9,420.6,929.5,420.1,929.6,419.5z"/>
	<line class="st12" x1="910" y1="392.5" x2="927.7" y2="392.5"/>
	<polyline class="st12" points="924.5,392.5 924.5,389.5 921.3,389.5 921.3,386.6 918.3,386.6 918.3,383.4 915.1,383.4 915.1,380.2 
		910,380.2 	"/>
	<line class="st12" x1="919.2" y1="374.9" x2="928.9" y2="384.4"/>
	<polyline class="st12" points="919.2,378.7 919.2,374.9 923,374.9 	"/>
	<polyline class="st12" points="928.9,380.8 928.9,384.4 924.9,384.4 	"/>
	<text transform="matrix(1 0 0 1 1209.58 351.66)" class="st13 st14 st15">Pantry</text>
	<circle class="st16" cx="1223.6" cy="320.3" r="20.8"/>
	<g id="Outline_Icons-2-2-2">
		<path class="st17" d="M1230.7,316.2c-1.4,0-2.6-0.9-2.9-2.3c-0.6,0.4-1.2,0.5-1.9,0.5c-1.7,0-3.1-1.4-3.1-3.1V311
			c-5.1,0.9-8.5,5.7-7.6,10.7c0.9,5.1,5.7,8.5,10.7,7.6s8.5-5.7,7.6-10.7l0,0l0,0c-0.2-1-0.5-2-1-2.9
			C1231.9,316,1231.3,316.1,1230.7,316.2z"/>
		<circle class="st17" cx="1221" cy="317.7" r="1.6"/>
		<circle class="st17" cx="1226.7" cy="321.7" r="0.9"/>
		<circle class="st17" cx="1221.8" cy="324.1" r="1.6"/>
		<circle class="st17" cx="1227.4" cy="318.6" r="0.3"/>
		<circle class="st17" cx="1217.9" cy="321" r="0.3"/>
		<circle class="st17" cx="1226.7" cy="325.7" r="0.3"/>
	</g>
	<circle class="st10" cx="353.8" cy="384.7" r="23.2"/>
	<path class="st11" d="M341.9,419.2h1.1c0,0.4,0.2,0.6,0.2,0.9c0.2,0.3,0.5,0.5,0.9,0.6c0.4,0.2,0.8,0.3,1.3,0.2
		c0.4,0,0.7,0,1.1-0.2c0.2-0.2,0.4-0.2,0.6-0.4c0.3-0.4,0.3-0.9,0-1.3c-0.2-0.2-0.4-0.4-0.6-0.4c-0.4-0.1-0.9-0.2-1.3-0.4
		c-0.5-0.2-1-0.3-1.5-0.4c-0.3-0.2-0.6-0.4-0.8-0.6c-0.2-0.3-0.3-0.7-0.2-1.1c0-0.4,0.2-0.8,0.4-1.1c0.3-0.4,0.6-0.7,1.1-0.9
		c1-0.3,2-0.3,3,0c0.4,0.2,0.8,0.5,1.1,0.9c0.2,0.4,0.4,0.8,0.4,1.3h-1.1c0-0.4-0.2-0.9-0.6-1.1c-0.4-0.3-0.8-0.4-1.3-0.4
		s-0.9,0.1-1.3,0.4c-0.3,0.2-0.4,0.5-0.4,0.9c0,0.2,0.1,0.5,0.2,0.6c0.4,0.3,0.9,0.6,1.5,0.6c0.9,0.2,1.5,0.4,1.7,0.4
		c0.4,0.2,0.8,0.5,1.1,0.9c0.6,0.6,0.6,1.5,0,2.1c-0.3,0.3-0.7,0.6-1.1,0.9c-0.5,0.2-1,0.3-1.5,0.2c-0.6,0-1.2,0-1.7-0.2
		c-0.4-0.2-0.8-0.5-1.1-0.9C341.9,420,341.9,419.6,341.9,419.2z"/>
	<path class="st11" d="M351.3,420.7l0.2,0.9h-0.6c-0.4,0-0.6,0-0.9-0.2s-0.4-0.2-0.4-0.4c-0.1-0.3-0.2-0.7-0.2-1.1v-3.2h-0.6V416
		h0.6v-1.3l0.9-0.6v1.9h0.9v0.6h-0.9v3.6c0,0.1,0.1,0.2,0.2,0.2h0.4C351.1,420.7,351.1,420.7,351.3,420.7z"/>
	<path class="st11" d="M355.7,420.9c-0.4,0.2-0.6,0.4-1.1,0.6c-0.3,0.2-0.7,0.2-1.1,0.2c-0.5,0-1-0.2-1.5-0.4
		c-0.4-0.2-0.4-0.6-0.4-1.1c0-0.3,0.1-0.6,0.2-0.9c0.2-0.2,0.2-0.4,0.4-0.6c0.2-0.2,0.4-0.2,0.6-0.2c0.3,0,0.6-0.1,0.9-0.2
		c0.6,0,1.2-0.1,1.7-0.4v-0.2c0-0.4,0-0.6-0.2-0.8c-0.3-0.3-0.7-0.4-1.1-0.4c-0.4-0.1-0.7,0-1.1,0.2c-0.3,0.2-0.4,0.5-0.4,0.9
		l-0.9-0.2c0-0.4,0.2-0.6,0.4-1.1c0.2-0.3,0.5-0.5,0.9-0.6c0.4-0.2,0.8-0.2,1.3-0.2c0.4-0.1,0.7,0,1.1,0.2c0.2,0.2,0.4,0.2,0.6,0.4
		c0.2,0.2,0.2,0.4,0.2,0.6v3.8c0,0.2,0.2,0.4,0.2,0.6h-1.1C356,421.3,356,421.1,355.7,420.9z M355.7,418.8c-0.5,0.2-1,0.3-1.5,0.4
		c-0.4,0-0.6,0.2-0.9,0.2s-0.2,0.2-0.4,0.2s-0.2,0.2-0.2,0.4c0,0.2,0,0.5,0.2,0.6c0.2,0.2,0.4,0.2,0.9,0.2c0.4,0,0.7,0,1.1-0.2
		l0.6-0.6c0-0.2,0.2-0.4,0.2-0.9L355.7,418.8L355.7,418.8z"/>
	<path class="st11" d="M358.3,414.9v-1.1h0.9v1.1H358.3z M358.3,421.5V416h0.9v5.5H358.3z"/>
	<path class="st11" d="M360.6,421.5V416h0.9v0.9c0.2-0.3,0.4-0.6,0.6-0.9c0.2-0.2,0.4-0.2,0.6-0.2c0.4,0,0.7,0.1,1.1,0.2l-0.4,0.9
		c-0.4-0.3-0.9-0.3-1.3,0l-0.4,0.4c0,0.4-0.2,0.6-0.2,1.1v3h-0.9L360.6,421.5z"/>
	<path class="st11" d="M363.8,419.8l0.9-0.2c0,0.3,0.2,0.6,0.4,0.9c0.7,0.3,1.4,0.3,2.1,0c0.2-0.2,0.2-0.4,0.2-0.6s0-0.4-0.2-0.4
		s-0.4-0.2-1.1-0.4c-0.5-0.2-1-0.3-1.5-0.4c-0.2-0.2-0.4-0.2-0.6-0.4s-0.2-0.4-0.2-0.9c0-0.2,0-0.5,0.2-0.6c0.2-0.2,0.2-0.4,0.4-0.4
		c0.2-0.2,0.4-0.2,0.6-0.2s0.4-0.2,0.9-0.2c0.4-0.1,0.7,0,1.1,0.2s0.6,0.2,0.6,0.4c0.2,0.2,0.2,0.4,0.4,0.9l-0.9,0.2
		c0-0.2-0.2-0.4-0.4-0.6s-0.4-0.2-0.8-0.2s-0.6,0-0.9,0.2s-0.2,0.2-0.2,0.4s0,0.2,0.2,0.4c0.1,0.1,0.3,0.2,0.4,0.2
		c0.3,0.1,0.6,0.2,0.9,0.2c0.5,0.2,1,0.4,1.5,0.4c0.4,0,0.4,0.2,0.6,0.4s0.2,0.4,0.2,0.9c0,0.3,0,0.6-0.2,0.8
		c-0.2,0.3-0.5,0.5-0.9,0.6c-0.4,0.2-0.8,0.3-1.3,0.2c-0.6,0-1.2-0.2-1.7-0.4C364.1,420.9,363.7,420.4,363.8,419.8z"/>
	<line class="st12" x1="344.3" y1="392.8" x2="361.9" y2="392.8"/>
	<polyline class="st12" points="358.7,392.8 358.7,389.8 355.5,389.8 355.5,386.9 352.6,386.9 352.6,383.7 349.4,383.7 349.4,380.5 
		344.3,380.5 	"/>
	<line class="st12" x1="353.4" y1="375.2" x2="363.2" y2="384.7"/>
	<polyline class="st12" points="353.4,379 353.4,375.2 357.2,375.2 	"/>
	<polyline class="st12" points="363.2,381.1 363.2,384.7 359.1,384.7 	"/>
	<g id="reception">
		<circle class="st10" cx="778.9" cy="195.8" r="21.9"/>
		<path class="st11" d="M756,230.5v-7.1h3.2c0.5-0.1,1,0,1.4,0.2c0.2,0.2,0.6,0.5,0.8,0.6c0.2,0.5,0.5,0.6,0.5,1
			c0,0.5-0.1,0.9-0.5,1.3c-0.4,0.4-1,0.7-1.6,0.6c0.2,0.2,0.5,0.2,0.6,0.5s0.6,0.6,0.8,1l1.3,2.1h-1.3l-1-1.6
			c-0.2-0.5-0.6-0.8-0.6-1s-0.5-0.5-0.5-0.5c-0.2,0-0.2-0.2-0.5-0.2h-1.9v3.2H756V230.5z M756.9,226.6h2.1c0.5,0,0.8,0,1-0.2
			c0.3,0,0.5-0.2,0.6-0.5c0.1-0.2,0.2-0.4,0.2-0.6c0-0.3-0.2-0.7-0.5-0.8c-0.4-0.3-0.8-0.5-1.3-0.5h-2.2v2.5L756.9,226.6z"/>
		<path class="st11" d="M766.8,228.9l1,0.2c-0.1,0.5-0.4,0.9-0.8,1.3c-0.4,0.4-1,0.5-1.6,0.5c-0.8,0-1.4-0.2-1.7-0.8
			c-0.4-0.6-0.7-1.3-0.6-2.1c-0.1-0.7,0.2-1.5,0.6-2.1c0.4-0.5,1.1-0.8,1.7-0.8c0.7-0.1,1.4,0.2,1.7,0.8c0.5,0.6,0.7,1.3,0.6,2.1
			v0.2h-4c0,0.5,0.2,1,0.5,1.4c0.2,0.5,0.6,0.5,1,0.5c0.3,0,0.6,0,0.8-0.2C766.6,229.6,766.8,229.3,766.8,228.9z M763.9,227.4h3
			c0-0.4-0.1-0.8-0.5-1c-0.2-0.5-0.6-0.6-1.3-0.6c-0.4,0-0.8,0.1-1,0.5C764.2,226.6,763.9,226.9,763.9,227.4L763.9,227.4z"/>
		<path class="st11" d="M772.2,228.5l0.8,0.2c0,0.6-0.5,1-0.8,1.4c-0.3,0.5-0.9,0.7-1.4,0.6c-0.7,0.1-1.4-0.2-1.7-0.8
			c-0.5-0.6-0.7-1.3-0.6-2.1c0-0.5,0-1,0.2-1.4c0.1-0.4,0.4-0.8,0.8-1c0.5-0.2,0.8-0.5,1.3-0.5s1,0.2,1.4,0.5
			c0.5,0.2,0.6,0.6,0.6,1.3l-0.8,0.2c0-0.3-0.1-0.7-0.5-0.8c-0.2-0.1-0.5-0.2-0.8-0.2c-0.4,0-0.8,0.1-1,0.5c-0.3,0.5-0.4,1-0.5,1.6
			s0.1,1.1,0.5,1.6c0.2,0.5,0.6,0.5,1,0.5c0.3,0,0.7-0.2,0.8-0.5C772,229.3,772.2,229.1,772.2,228.5z"/>
		<path class="st11" d="M777.6,228.9l1,0.2c-0.1,0.5-0.4,0.9-0.8,1.3c-0.4,0.4-1,0.5-1.6,0.5c-0.8,0-1.4-0.2-1.7-0.8
			c-0.4-0.6-0.7-1.3-0.6-2.1c-0.1-0.7,0.2-1.5,0.6-2.1c0.4-0.5,1.1-0.8,1.7-0.8c0.7-0.1,1.4,0.2,1.7,0.8c0.5,0.6,0.7,1.3,0.6,2.1
			v0.2h-4c0,0.5,0.2,1,0.5,1.4c0.2,0.5,0.6,0.5,1,0.5c0.3,0,0.6,0,0.8-0.2C777.1,229.7,777.4,229.3,777.6,228.9z M774.6,227.4h3
			c0-0.4-0.1-0.8-0.5-1c-0.2-0.5-0.6-0.6-1.3-0.6c-0.4,0-0.8,0.1-1,0.5C774.9,226.6,774.6,226.9,774.6,227.4L774.6,227.4z"/>
		<path class="st11" d="M779.6,232.4v-7.1h0.8v0.6l0.6-0.6c0.2-0.2,0.6-0.2,0.8-0.2c0.5,0,0.9,0.2,1.3,0.5c0.5,0.2,0.6,0.6,0.8,1
			c0.2,0.9,0.2,1.9,0,2.9c-0.1,0.4-0.4,0.8-0.8,1c-0.4,0.3-0.8,0.4-1.3,0.5c-0.2,0-0.6,0-0.8-0.2s-0.5-0.2-0.6-0.5v2.5h-0.8V232.4z
			 M780.4,227.8c0,0.6,0.2,1.3,0.5,1.4c0.3,0.3,0.6,0.4,1,0.5c0.4,0,0.8-0.2,1-0.6c0.3-0.5,0.4-1,0.5-1.6c0-0.6-0.1-1.1-0.5-1.6
			c-0.2-0.5-0.6-0.5-1-0.5s-0.8,0.2-1,0.6C780.7,226.6,780.5,227.2,780.4,227.8L780.4,227.8z"/>
		<path class="st11" d="M787.3,229.7l0.2,0.8h-0.6c-0.5,0-0.6,0-0.8-0.2s-0.5-0.2-0.5-0.5s-0.2-0.6-0.2-1v-3h-0.5v-0.6h0.6V224
			l0.8-0.6v1.7h0.8v0.6h-0.8v3.5c0,0.1,0.1,0.2,0.2,0.2h0.5C786.8,229.7,787.1,229.7,787.3,229.7z"/>
		<path class="st11" d="M788.1,224.3v-1h0.8v1H788.1z M788.1,230.5v-5.2h0.8v5.2H788.1z"/>
		<path class="st11" d="M789.8,227.8c-0.1-0.8,0.2-1.6,0.8-2.2c0.4-0.4,1-0.7,1.6-0.6c0.8,0,1.4,0.2,1.7,0.8
			c0.5,0.6,0.7,1.3,0.6,2.1c0,0.6-0.1,1.1-0.5,1.6c-0.2,0.5-0.5,0.6-0.8,1c-0.5,0.2-0.8,0.5-1.3,0.5c-0.8,0-1.4-0.2-1.7-0.8
			C790.3,229.6,789.8,228.6,789.8,227.8z M790.9,227.8c0,0.6,0.1,1.1,0.5,1.6c0.5,0.7,1.5,0.8,2.2,0.3l0,0c0.1-0.1,0.2-0.2,0.3-0.3
			c0.5-0.5,0.5-0.8,0.5-1.6c0-0.6-0.2-1.3-0.5-1.4c-0.2-0.5-0.6-0.5-1-0.5c-0.5,0-0.9,0.2-1.3,0.5
			C791.2,226.7,790.9,227.2,790.9,227.8L790.9,227.8z"/>
		<path class="st11" d="M795.8,230.5v-5.2h0.8v0.8c0.3-0.5,1-0.8,1.6-0.8c0.5,0,0.6,0,0.8,0.2s0.5,0.2,0.6,0.5
			c0.1,0.2,0.2,0.4,0.2,0.6v4h-0.6v-3.2c0-0.5,0-0.6-0.2-0.8c0-0.3-0.2-0.5-0.5-0.5c-0.5-0.3-1.2-0.2-1.6,0.3
			c-0.3,0.4-0.5,0.9-0.5,1.4v2.9L795.8,230.5L795.8,230.5z"/>
		<g id="Outline_Icons-2-2">
			<circle class="st18" cx="774.1" cy="189.1" r="3"/>
			<path class="st18" d="M778.9,193.7h-9.2c-0.1,2.5,1,4.9,3,6.4v5.4h3.3v-5.4C777.8,198.5,778.9,196.1,778.9,193.7z"/>
			<line class="st18" x1="778.1" y1="197" x2="788.2" y2="197"/>
			<circle class="st18" cx="783.6" cy="189.4" r="2.2"/>
			<path class="st18" d="M780,197c0-2.1,1.7-3.8,3.8-3.8l0,0c0.1,0,0.1,0,0.2,0c2.1,0,3.8,1.7,3.8,3.8l0,0"/>
		</g>
	</g>
	
		<ellipse transform="matrix(6.698043e-02 -0.9978 0.9978 6.698043e-02 1113.3542 1386.261)" class="st10" cx="1297.9" cy="97.8" rx="19.9" ry="19.9"/>
	<path class="st19" d="M1304.5,96.3c1.2-0.2,2.3,0.7,2.5,1.9v0.6c0,2.8-3.6,2.9-3.6,2.9"/>
	<path class="st19" d="M1300,88.5c0.4,0.5,0.5,1.2,0.1,1.8l0,0c-0.4,0.5-0.4,1.3,0,1.8"/>
	<path class="st19" d="M1296.9,88.5c0.4,0.5,0.5,1.2,0.1,1.8l0,0c-0.4,0.5-0.4,1.3,0,1.8"/>
	<path class="st19" d="M1293.8,88.5c0.4,0.5,0.5,1.2,0.1,1.8l0,0c-0.4,0.5-0.4,1.3,0,1.8"/>
	<path class="st19" d="M1301.1,106.3h-7.1c-1.7,0-3.3-0.6-4.6-1.6h16.4C1304.5,105.7,1302.8,106.3,1301.1,106.3z"/>
	<path class="st19" d="M1300.5,104.4c1.5-1,2.5-2.5,2.8-4.2l0.8-5.2h-13.7l0.8,5.2c0.4,1.7,1.4,3.2,2.8,4.2"/>
	<text transform="matrix(1 0 0 1 1271.637 129.397)" class="st13 st14 st15">Collins Cafe</text>
	<text transform="matrix(1 0 0 1 739.925 463.081)" class="st13 st14 st15">No Exit</text>
	<circle class="st16" cx="201.8" cy="506.8" r="21.2"/>
	<g id="Outline_Icons-3-2">
		<g id="Outline_Icons-2-3">
			<path class="st20" d="M201.2,516.4c0,0,8.5-6.6,8.5-12.8s-7.6-6.7-8.5-0.5c-1-6.2-8.5-5.7-8.5,1
				C192.5,510.9,201.2,516.4,201.2,516.4z"/>
		</g>
	</g>
	<path class="st13" d="M171.3,537.8l-1.9-7h1l1.1,4.6c0.1,0.5,0.2,1,0.3,1.4c0.1-0.4,0.2-0.9,0.3-1.3l1.3-4.7h1.1l1,3.5
		c0.2,0.8,0.4,1.7,0.5,2.5c0.1-0.4,0.2-0.9,0.3-1.5l1.1-4.5h0.9l-1.9,7h-0.9l-1.5-5.3c-0.1-0.4-0.2-0.7-0.2-0.8
		c-0.1,0.3-0.1,0.6-0.2,0.8l-1.5,5.3H171.3z"/>
	<path class="st13" d="M182.5,536.2l0.9,0.1c-0.1,0.5-0.4,0.9-0.8,1.2c-1,0.7-2.4,0.6-3.2-0.3c-0.5-0.5-0.7-1.2-0.7-1.9
		s0.2-1.4,0.7-2c0.4-0.5,1.1-0.7,1.7-0.7c0.6,0,1.3,0.2,1.7,0.7c0.5,0.5,0.7,1.2,0.6,1.9v0.2h-3.8c0,0.5,0.2,0.9,0.5,1.3
		c0.3,0.3,0.7,0.5,1.1,0.4c0.3,0,0.6-0.1,0.8-0.2C182.2,536.7,182.4,536.5,182.5,536.2z M179.7,534.8h2.8c0-0.4-0.1-0.7-0.3-1
		c-0.3-0.3-0.7-0.5-1.1-0.5c-0.4,0-0.7,0.1-1,0.4C179.8,534,179.7,534.4,179.7,534.8z"/>
	<path class="st13" d="M184.4,537.8v-7h0.9v7H184.4z"/>
	<path class="st13" d="M186.6,537.8v-7h0.9v7H186.6z"/>
	<path class="st13" d="M188.8,537.8v-5.1h0.8v0.7c0.4-0.5,1-0.8,1.6-0.8c0.3,0,0.6,0.1,0.8,0.2c0.2,0.1,0.4,0.2,0.6,0.4l0.3,0.6
		c0,0.3,0.1,0.6,0,0.8v3.1H192v-3.1c0-0.3,0-0.5-0.1-0.8c-0.1-0.2-0.2-0.3-0.4-0.4c-0.2-0.1-0.4-0.2-0.6-0.2c-0.3,0-0.6,0.1-0.9,0.3
		c-0.3,0.4-0.5,0.8-0.4,1.3v2.8L188.8,537.8z"/>
	<path class="st13" d="M197.7,536.2l0.9,0.1c-0.1,0.5-0.4,0.9-0.8,1.2c-1,0.7-2.4,0.6-3.2-0.3c-0.5-0.5-0.7-1.2-0.7-1.9
		s0.2-1.4,0.7-2c0.4-0.5,1.1-0.7,1.7-0.7c0.6,0,1.3,0.2,1.7,0.7c0.5,0.5,0.7,1.2,0.6,1.9v0.2h-3.8c0,0.5,0.2,0.9,0.5,1.3
		c0.3,0.3,0.7,0.5,1.1,0.4c0.3,0,0.6-0.1,0.8-0.2C197.4,536.7,197.6,536.5,197.7,536.2z M194.9,534.8h2.8c0-0.4-0.1-0.7-0.3-1
		c-0.3-0.3-0.7-0.5-1.1-0.5c-0.4,0-0.7,0.1-1,0.4C195.1,534,194.9,534.4,194.9,534.8z"/>
	<path class="st13" d="M199.3,536.3l0.8-0.1c0,0.3,0.2,0.6,0.4,0.8c0.3,0.2,0.6,0.3,0.9,0.3c0.3,0,0.6-0.1,0.9-0.2
		c0.2-0.1,0.3-0.4,0.3-0.6c0-0.2-0.1-0.4-0.3-0.5l-0.9-0.3c-0.4-0.1-0.9-0.2-1.3-0.4c-0.5-0.2-0.8-0.7-0.7-1.2
		c0-0.2,0.1-0.4,0.2-0.6c0.1-0.2,0.2-0.4,0.4-0.5s0.3-0.2,0.5-0.3s0.5-0.1,0.7-0.1c0.3,0,0.7,0.1,1,0.2c0.3,0.1,0.5,0.2,0.7,0.5
		c0.2,0.2,0.3,0.5,0.3,0.8l-0.8,0.1c0-0.2-0.1-0.5-0.3-0.6c-0.5-0.3-1.1-0.3-1.6,0c-0.2,0.1-0.2,0.3-0.3,0.5c0,0.1,0,0.2,0.1,0.3
		s0.2,0.2,0.3,0.2s0.3,0.1,0.8,0.2c0.4,0.1,0.9,0.2,1.3,0.4c0.2,0.1,0.4,0.3,0.6,0.5c0.1,0.2,0.2,0.5,0.2,0.7c0,0.3-0.1,0.6-0.3,0.8
		c-0.2,0.3-0.4,0.5-0.7,0.6c-0.4,0.1-0.7,0.2-1.1,0.2c-0.5,0-1.1-0.1-1.5-0.4C199.6,537.2,199.4,536.7,199.3,536.3z"/>
	<path class="st13" d="M204.2,536.3l0.9-0.1c0,0.3,0.2,0.6,0.4,0.8c0.3,0.2,0.6,0.3,0.9,0.3c0.3,0,0.6-0.1,0.9-0.2
		c0.2-0.1,0.3-0.4,0.3-0.6c0-0.2-0.1-0.4-0.3-0.5l-0.9-0.3c-0.4-0.1-0.9-0.2-1.3-0.4c-0.5-0.2-0.8-0.7-0.7-1.2
		c0-0.2,0.1-0.4,0.2-0.6c0.1-0.2,0.2-0.4,0.4-0.5s0.3-0.2,0.5-0.3s0.5-0.1,0.7-0.1c0.3,0,0.7,0.1,1,0.2c0.3,0.1,0.5,0.2,0.7,0.5
		c0.2,0.2,0.3,0.5,0.3,0.8l-0.8,0.1c0-0.2-0.1-0.5-0.3-0.6c-0.5-0.3-1.1-0.3-1.6,0c-0.2,0.1-0.2,0.3-0.3,0.5c0,0.1,0,0.2,0.1,0.3
		s0.2,0.2,0.3,0.2s0.3,0.1,0.8,0.2c0.4,0.1,0.9,0.2,1.3,0.4c0.2,0.1,0.4,0.3,0.6,0.5c0.1,0.2,0.2,0.5,0.2,0.7c0,0.3-0.1,0.6-0.3,0.8
		c-0.2,0.3-0.4,0.5-0.7,0.6c-0.4,0.1-0.7,0.2-1.1,0.2c-0.5,0-1.1-0.1-1.5-0.4C204.5,537.2,204.3,536.8,204.2,536.3z"/>
	<path class="st13" d="M212.3,537.8v-7h3.1c0.5,0,1,0,1.4,0.2c0.3,0.1,0.6,0.4,0.8,0.7s0.3,0.7,0.3,1.1c0,0.5-0.2,0.9-0.5,1.3
		c-0.4,0.4-0.9,0.6-1.5,0.6l0.6,0.3c0.3,0.3,0.6,0.6,0.8,0.9l1.2,1.9h-1.2l-0.9-1.5c-0.3-0.4-0.5-0.7-0.7-1
		c-0.1-0.2-0.3-0.3-0.5-0.5c-0.1-0.1-0.3-0.1-0.4-0.2h-1.6v3.1L212.3,537.8z M213.2,533.9h2c0.3,0,0.7,0,1-0.1
		c0.2-0.1,0.4-0.2,0.5-0.4s0.2-0.4,0.2-0.6c0-0.3-0.1-0.6-0.4-0.8c-0.3-0.2-0.7-0.4-1.1-0.3h-2.2V533.9z"/>
	<path class="st13" d="M218.9,535.3c-0.1-0.8,0.2-1.6,0.8-2.1c0.4-0.4,1-0.6,1.6-0.6s1.3,0.2,1.7,0.7c0.5,0.5,0.7,1.2,0.7,1.9
		c0,0.5-0.1,1-0.3,1.5c-0.2,0.4-0.5,0.7-0.9,0.9s-0.8,0.3-1.2,0.3c-0.6,0-1.3-0.2-1.7-0.7C219.1,536.7,218.9,536,218.9,535.3z
		 M219.8,535.3c0,0.5,0.1,1,0.4,1.5c0.5,0.6,1.3,0.7,1.9,0.2l0.1-0.1l0.1-0.1c0.3-0.4,0.5-1,0.4-1.5c0-0.5-0.1-1-0.4-1.4
		c-0.5-0.6-1.4-0.6-2-0.1l-0.1,0.1C219.9,534.3,219.8,534.8,219.8,535.3z"/>
	<path class="st13" d="M224.4,535.3c-0.1-0.8,0.2-1.6,0.8-2.1c0.4-0.4,1-0.6,1.6-0.6s1.3,0.2,1.7,0.7c0.5,0.5,0.7,1.2,0.7,1.9
		c0,0.5-0.1,1-0.3,1.5c-0.2,0.4-0.5,0.7-0.9,0.9s-0.8,0.3-1.2,0.3c-0.6,0-1.3-0.2-1.7-0.7C224.6,536.7,224.3,536,224.4,535.3z
		 M225.3,535.3c0,0.5,0.1,1,0.4,1.5c0.5,0.6,1.3,0.7,1.9,0.2l0.1-0.1l0.1-0.1c0.3-0.4,0.5-1,0.4-1.5c0-0.5-0.1-1-0.4-1.4
		c-0.5-0.6-1.4-0.6-2-0.1l-0.1,0.1C225.4,534.3,225.2,534.8,225.3,535.3z"/>
	<path class="st13" d="M230.1,537.8v-5.1h0.8v0.7c0.3-0.5,0.9-0.8,1.5-0.8c0.3,0,0.6,0.1,0.9,0.2c0.2,0.2,0.4,0.4,0.5,0.7
		c0.3-0.6,0.9-0.9,1.6-0.9c0.4,0,0.9,0.1,1.2,0.4c0.3,0.4,0.4,0.8,0.4,1.3v3.5h-0.9v-3.2c0-0.2,0-0.5-0.1-0.7s-0.2-0.3-0.3-0.4
		c-0.2-0.1-0.3-0.1-0.5-0.1c-0.3,0-0.7,0.1-0.9,0.4c-0.3,0.3-0.4,0.7-0.4,1.1v2.9H233v-3.3c0-0.3-0.1-0.6-0.2-0.9
		c-0.2-0.2-0.4-0.3-0.7-0.3c-0.2,0-0.5,0.1-0.7,0.2c-0.2,0.1-0.4,0.3-0.4,0.6c-0.1,0.3-0.2,0.7-0.1,1.1v2.6H230.1z"/>
	<g id="utility-2-3-3-4">
		
			<ellipse transform="matrix(0.3827 -0.9239 0.9239 0.3827 94.6738 601.6438)" class="st10" cx="497.6" cy="230" rx="25.2" ry="25.2"/>
		<g id="Outline_Icons-13-2-3-3-4">
			<g id="Outline_Icons-14-2-3-3-4">
				<path class="st21" d="M492,234.8h-2.7c-1,0-1.8-0.8-1.8-1.8v-5.3c0-1,0.8-1.8,1.8-1.8h16.9c1,0,1.8,0.8,1.8,1.8v5.3
					c0,1-0.8,1.8-1.8,1.8h-2.7"/>
				<polyline class="st21" points="492,224.3 492,220.6 500.9,220.6 503.6,223.3 503.6,224.3 				"/>
				<rect x="492" y="232.3" class="st21" width="11.6" height="7.2"/>
				<circle class="st21" cx="490.1" cy="228.7" r="0.8"/>
				<line class="st21" x1="493.7" y1="234" x2="501.7" y2="234"/>
				<line class="st21" x1="493.7" y1="235.9" x2="501.7" y2="235.9"/>
				<line class="st21" x1="493.7" y1="237.7" x2="501.7" y2="237.7"/>
				<polyline class="st21" points="500.9,220.6 500.9,223.3 503.6,223.3 				"/>
			</g>
		</g>
		<text transform="matrix(1 0 0 1 472.564 265.387)" class="st13 st14 st15">Copy Room</text>
	</g>
</g>
</svg>
