<?xml version="1.0" encoding="utf-8"?>
<!-- Generator: Adobe Illustrator 25.3.1, SVG Export Plug-In . SVG Version: 6.00 Build 0)  -->
<svg version="1.1" id="Layer_1" xmlns="http://www.w3.org/2000/svg" xmlns:xlink="http://www.w3.org/1999/xlink" x="0px" y="0px"
	 viewBox="0 0 846 681" style="enable-background:new 0 0 846 681;" xml:space="preserve">
<style type="text/css">
	.st0{fill:#4196B1;}
	.st1{fill:#AAE0E4;}
	.st2{fill:#99B8BF;}
	.st3{fill:#8ECCCE;}
	.st4{display:none;}
	.st5{fill:none;}
	.st6{enable-background:new    ;}
	.st7{fill:#646B6D;}
	.st8{opacity:0.15;fill:#020202;enable-background:new    ;}
	.st9{fill:#596069;}
	.st10{fill:#9BAEB8;}
	.st11{fill:none;stroke:#7A8F94;stroke-linecap:round;stroke-miterlimit:10;}
	.st12{fill:#FFFFFF;}
	.st13{opacity:0.1;fill:#040404;enable-background:new    ;}
	.st14{fill:#B8BFC1;}
	.st15{fill:#F8FAFB;}
	.st16{opacity:0.65;fill:#575757;enable-background:new    ;}
	.st17{fill:none;stroke:#FFFFFF;stroke-width:4;stroke-miterlimit:10;}
	.st18{fill:none;stroke:#FFFFFF;stroke-width:8;stroke-miterlimit:10;}
	.st19{fill:#EBF2F2;}
	.st20{fill:#7A8E93;}
	.st21{fill:#EBF1F2;}
	.st22{fill:none;stroke:#7A8E93;stroke-width:0.74;stroke-linecap:round;stroke-linejoin:round;}
	.st23{fill:#767E80;}
	.st24{fill:none;stroke:#7A8E93;stroke-width:0.827;stroke-miterlimit:10;}
	.st25{fill:#7A8E93;stroke:#7A8E93;stroke-width:0.145;stroke-miterlimit:10;}
	.st26{fill:#7A8E93;stroke:#7A8E93;stroke-width:0.142;stroke-miterlimit:10;}
	.st27{fill:#757D7F;}
	.st28{fill:none;stroke:#7A8E93;stroke-width:0.39;stroke-miterlimit:10;}
	.st29{fill:none;stroke:#7A8E93;stroke-width:0.4;stroke-linecap:round;stroke-linejoin:round;}
</style>
<g id="shadow">
	<polygon class="st0" points="194.7,47.9 664.8,39.3 670,100.8 748.7,100.8 716.3,674 70.4,674 67,510 82.3,510 116,50.5 	"/>
</g>
<g id="background">
	<polygon class="st1" points="183.9,40.4 648.1,32 653.3,92.7 731,92.7 699,658.7 61.1,658.7 57.9,496.8 72.9,496.8 106.2,43.1 	"/>
</g>
<g id="spaces">
	<rect x="355.6" y="126.6" class="st2" width="231.8" height="189.3"/>
	<polygon class="st2" points="333.7,37.7 522.3,33.1 522.3,90.3 333.7,90.3 	"/>
	<polygon class="st2" points="587.4,33.1 647,32 652.2,92.7 663,92.7 664,126.6 587.4,126.6 	"/>
	<polygon class="st3" points="664,126.6 587.4,126.6 587.4,315.9 636.1,315.9 636.1,364.9 431.5,361.8 431.2,470.4 396.7,470.4 
		396.7,419.4 258.4,419.4 263.2,338.3 315,343.5 331.2,126.6 269.4,126.6 270.9,90.3 333.7,90.3 333.7,37.7 105.1,43.1 71.8,496.8 
		55.3,496.8 61,660.3 697.9,658.7 717.4,313.4 729.9,92.7 663,92.7 	"/>
	<polygon class="st3" points="522.3,33.1 522.9,125.3 587.4,126.6 587.4,33.1 	"/>
</g>
<g id="map" class="st4">
</g>
<g id="bookable">
	<rect x="502" y="524" class="st5" width="97.7" height="24.9"/>
	<rect x="175.9" y="499" class="st5" width="97.7" height="24.9"/>
	<rect x="577.9" y="390.3" class="st5" width="97.7" height="24.9"/>
	<g class="st6">
		<path class="st7" d="M611.7,396v-5.7h0.8v5.1h2.8v0.7h-3.6V396z"/>
		<path class="st7" d="M618.8,396v-0.6c-0.3,0.5-0.8,0.7-1.3,0.7c-0.2,0-0.5,0-0.7-0.1s-0.4-0.2-0.5-0.4c-0.1-0.1-0.2-0.3-0.2-0.5
			c0-0.1,0-0.4,0-0.7v-2.6h0.7v2.3c0,0.4,0,0.6,0,0.7c0,0.2,0.1,0.3,0.3,0.4c0.1,0.1,0.3,0.2,0.5,0.2s0.4-0.1,0.6-0.2
			c0.2-0.1,0.3-0.3,0.4-0.4c0.1-0.2,0.1-0.5,0.1-0.8v-2.2h0.7v4.1h-0.6V396z"/>
		<path class="st7" d="M620.4,396.4l0.7,0.1c0,0.2,0.1,0.4,0.2,0.5c0.2,0.1,0.4,0.2,0.7,0.2s0.6-0.1,0.8-0.2s0.3-0.3,0.4-0.5
			c0-0.1,0.1-0.4,0.1-0.9c-0.3,0.4-0.7,0.5-1.1,0.5c-0.6,0-1-0.2-1.3-0.6s-0.5-0.9-0.5-1.5c0-0.4,0.1-0.8,0.2-1.1
			c0.1-0.3,0.4-0.6,0.6-0.8c0.3-0.2,0.6-0.3,1-0.3c0.5,0,0.9,0.2,1.2,0.6v-0.5h0.6v3.6c0,0.6-0.1,1.1-0.2,1.4
			c-0.1,0.3-0.3,0.5-0.6,0.6s-0.6,0.2-1.1,0.2s-0.9-0.1-1.2-0.3S620.4,396.8,620.4,396.4z M621,393.9c0,0.5,0.1,0.9,0.3,1.2
			c0.2,0.2,0.5,0.4,0.8,0.4s0.6-0.1,0.8-0.4s0.3-0.6,0.3-1.2c0-0.5-0.1-0.9-0.3-1.1c-0.2-0.3-0.5-0.4-0.8-0.4s-0.6,0.1-0.8,0.4
			S621,393.4,621,393.9z"/>
		<path class="st7" d="M624.9,396.4l0.7,0.1c0,0.2,0.1,0.4,0.2,0.5c0.2,0.1,0.4,0.2,0.7,0.2s0.6-0.1,0.8-0.2s0.3-0.3,0.4-0.5
			c0-0.1,0.1-0.4,0.1-0.9c-0.3,0.4-0.7,0.5-1.1,0.5c-0.6,0-1-0.2-1.3-0.6s-0.5-0.9-0.5-1.5c0-0.4,0.1-0.8,0.2-1.1
			c0.1-0.3,0.4-0.6,0.6-0.8c0.3-0.2,0.6-0.3,1-0.3c0.5,0,0.9,0.2,1.2,0.6v-0.5h0.6v3.6c0,0.6-0.1,1.1-0.2,1.4
			c-0.1,0.3-0.3,0.5-0.6,0.6s-0.6,0.2-1.1,0.2s-0.9-0.1-1.2-0.3S624.9,396.8,624.9,396.4z M625.5,393.9c0,0.5,0.1,0.9,0.3,1.2
			c0.2,0.2,0.5,0.4,0.8,0.4s0.6-0.1,0.8-0.4s0.3-0.6,0.3-1.2c0-0.5-0.1-0.9-0.3-1.1c-0.2-0.3-0.5-0.4-0.8-0.4s-0.6,0.1-0.8,0.4
			S625.5,393.4,625.5,393.9z"/>
		<path class="st7" d="M632.2,395.5c-0.3,0.2-0.5,0.4-0.8,0.5c-0.2,0.1-0.5,0.1-0.8,0.1c-0.5,0-0.8-0.1-1.1-0.3
			c-0.2-0.2-0.4-0.5-0.4-0.9c0-0.2,0-0.4,0.1-0.6s0.2-0.3,0.4-0.4s0.3-0.2,0.5-0.2c0.1,0,0.3-0.1,0.6-0.1c0.6-0.1,1-0.1,1.3-0.2
			c0-0.1,0-0.2,0-0.2c0-0.3-0.1-0.5-0.2-0.6c-0.2-0.2-0.4-0.2-0.8-0.2c-0.3,0-0.6,0.1-0.7,0.2c-0.2,0.1-0.3,0.3-0.3,0.6l-0.7-0.1
			c0.1-0.3,0.2-0.5,0.3-0.7s0.4-0.3,0.6-0.4c0.3-0.1,0.6-0.1,0.9-0.1c0.4,0,0.6,0,0.9,0.1c0.2,0.1,0.4,0.2,0.5,0.3
			c0.1,0.1,0.2,0.3,0.2,0.5c0,0.1,0,0.3,0,0.6v0.9c0,0.7,0,1.1,0,1.2c0,0.2,0.1,0.3,0.2,0.5h-0.7
			C632.2,395.9,632.2,395.7,632.2,395.5z M632.1,393.9c-0.3,0.1-0.6,0.2-1.1,0.3c-0.3,0-0.5,0.1-0.6,0.1c-0.1,0.1-0.2,0.1-0.3,0.2
			s-0.1,0.2-0.1,0.3c0,0.2,0.1,0.3,0.2,0.5c0.1,0.1,0.3,0.2,0.6,0.2s0.5-0.1,0.7-0.2s0.4-0.3,0.5-0.5s0.1-0.4,0.1-0.7L632.1,393.9
			L632.1,393.9z"/>
		<path class="st7" d="M633.8,396.4l0.7,0.1c0,0.2,0.1,0.4,0.2,0.5c0.2,0.1,0.4,0.2,0.7,0.2s0.6-0.1,0.8-0.2s0.3-0.3,0.4-0.5
			c0-0.1,0.1-0.4,0.1-0.9c-0.3,0.4-0.7,0.5-1.1,0.5c-0.6,0-1-0.2-1.3-0.6s-0.5-0.9-0.5-1.5c0-0.4,0.1-0.8,0.2-1.1
			c0.1-0.3,0.4-0.6,0.6-0.8c0.3-0.2,0.6-0.3,1-0.3c0.5,0,0.9,0.2,1.2,0.6v-0.5h0.6v3.6c0,0.6-0.1,1.1-0.2,1.4
			c-0.1,0.3-0.3,0.5-0.6,0.6s-0.6,0.2-1.1,0.2s-0.9-0.1-1.2-0.3S633.8,396.8,633.8,396.4z M634.4,393.9c0,0.5,0.1,0.9,0.3,1.2
			c0.2,0.2,0.5,0.4,0.8,0.4s0.6-0.1,0.8-0.4s0.3-0.6,0.3-1.2c0-0.5-0.1-0.9-0.3-1.1c-0.2-0.3-0.5-0.4-0.8-0.4s-0.6,0.1-0.8,0.4
			S634.4,393.4,634.4,393.9z"/>
		<path class="st7" d="M641.2,394.7l0.7,0.1c-0.1,0.4-0.3,0.8-0.6,1s-0.7,0.4-1.2,0.4c-0.6,0-1.1-0.2-1.4-0.6s-0.5-0.9-0.5-1.6
			s0.2-1.2,0.5-1.6s0.8-0.6,1.4-0.6c0.6,0,1,0.2,1.4,0.6s0.5,0.9,0.5,1.6c0,0,0,0.1,0,0.2h-3.1c0,0.5,0.2,0.8,0.4,1s0.5,0.4,0.9,0.4
			c0.3,0,0.5-0.1,0.7-0.2C640.9,395.2,641.1,395,641.2,394.7z M638.9,393.5h2.3c0-0.3-0.1-0.6-0.3-0.8c-0.2-0.3-0.5-0.4-0.9-0.4
			c-0.3,0-0.6,0.1-0.8,0.3C639,392.9,638.9,393.2,638.9,393.5z"/>
	</g>
</g>
<g id="furniature">
	<path class="st8" d="M209.5,220.2v-4.3l0,0c0.1-2.8-2.2-5.2-5-5.3H204l-3.8,0.3c-3.7,0.4-6.5,3.6-6.3,7.3l0,0c0,3.8,2.8,7,6.6,7.3
		l3.8,0.2c2.9,0,5.3-2.3,5.3-5.2v-0.1L209.5,220.2L209.5,220.2z"/>
	<path class="st9" d="M210.1,220l-0.2-4.1l0,0c0.1-2.8-2.2-5.2-5-5.3h-0.5l-3.8,0.3c-3.7,0.4-6.5,3.6-6.3,7.3l0,0
		c0,3.8,2.8,7,6.6,7.3l3.8,0.2c2.9,0,5.3-2.3,5.3-5.2v-0.1l0,0C210,220.4,209.9,220.2,210.1,220L210.1,220z"/>
	<path class="st10" d="M211.5,219.9l-0.2-3.8c0-2.7-2.3-4.9-5-4.8l0,0H206l-3.8,0.3c-3.6,0.2-6.3,3.3-6.3,6.9l0,0
		c0.1,3.6,3,6.5,6.6,6.6l3.8,0.2l0,0c2.8,0.1,5.2-2,5.3-4.8l0,0L211.5,219.9z"/>
	<path class="st11" d="M206.8,211.4l-4.4,0.5c-3.6,0.2-6.3,3.3-6.3,6.9l0,0c0.1,3.6,3,6.5,6.6,6.6l4.4,0.2"/>
	<path class="st8" d="M209.5,281.1v-4.2l0,0c0.1-2.8-2.2-5.2-5-5.3H204l-3.8,0.3c-3.7,0.4-6.5,3.6-6.3,7.3l0,0c0,3.8,2.8,7,6.6,7.3
		l3.8,0.2c2.9,0,5.3-2.3,5.3-5.2v-0.1L209.5,281.1L209.5,281.1z"/>
	<path class="st9" d="M210.1,281l-0.2-4.1l0,0c0.1-2.8-2.2-5.2-5-5.3h-0.5l-3.8,0.3c-3.7,0.4-6.5,3.6-6.3,7.3l0,0
		c0,3.8,2.8,7,6.6,7.3l3.8,0.2c2.9,0,5.3-2.3,5.3-5.2v-0.1l0,0C210,281.4,209.9,281.2,210.1,281L210.1,281z"/>
	<path class="st10" d="M211.5,280.8l-0.2-3.8c0-2.7-2.2-4.9-5-4.8l0,0H206l-3.8,0.3c-3.6,0.2-6.3,3.3-6.3,6.9l0,0
		c0.1,3.6,3,6.5,6.6,6.6l3.8,0.2l0,0c2.8,0.1,5.2-2,5.3-4.8l0,0L211.5,280.8z"/>
	<path class="st11" d="M206.8,272.4l-4.4,0.5c-3.6,0.2-6.3,3.3-6.3,6.9l0,0c0.1,3.6,3,6.5,6.6,6.6l4.4,0.2"/>
	<path class="st8" d="M209.5,249.9v-4.2l0,0c0.1-2.8-2.2-5.2-5-5.3H204l-3.8,0.3c-3.7,0.4-6.5,3.6-6.3,7.3l0,0c0,3.8,2.8,7,6.6,7.3
		l3.8,0.2c2.9,0,5.3-2.3,5.3-5.2v-0.1L209.5,249.9L209.5,249.9z"/>
	<path class="st9" d="M210.1,249.7l-0.2-4.1l0,0c0.1-2.8-2.2-5.2-5-5.3h-0.5l-3.8,0.3c-3.7,0.4-6.5,3.6-6.3,7.3l0,0
		c0,3.8,2.8,7,6.6,7.3l3.8,0.2c2.9,0,5.3-2.3,5.3-5.2v-0.1l0,0C210,250.1,209.9,249.9,210.1,249.7
		C210.1,249.8,210.1,249.7,210.1,249.7z"/>
	<path class="st10" d="M211.5,249.6l-0.2-3.8c0-2.7-2.2-4.9-5-4.8l0,0H206l-3.8,0.3c-3.6,0.2-6.3,3.3-6.3,6.9l0,0
		c0.1,3.6,3,6.5,6.6,6.6l3.8,0.2l0,0c2.8,0.1,5.2-2,5.3-4.8l0,0L211.5,249.6z"/>
	<path class="st11" d="M206.8,241.1l-4.4,0.5c-3.6,0.2-6.3,3.3-6.3,6.9l0,0c0.1,3.6,3,6.5,6.6,6.6l4.4,0.2"/>
	<rect x="213.4" y="205.7" class="st8" width="13.2" height="84.4"/>
	<rect x="214.2" y="205.7" class="st12" width="13.2" height="84.4"/>
	<path class="st8" d="M232,276.4v4.3l0,0c-0.1,2.8,2.2,5.2,5,5.3h0.5l3.8-0.3c3.7-0.4,6.5-3.6,6.3-7.3l0,0c0-3.8-2.8-7-6.6-7.3
		l-3.8-0.2c-2.9,0-5.3,2.3-5.3,5.2v0.1L232,276.4L232,276.4z"/>
	<path class="st9" d="M231.4,276.6l0.2,4.1l0,0c-0.1,2.8,2.2,5.2,5,5.3h0.5l3.8-0.3c3.7-0.4,6.5-3.6,6.3-7.3l0,0
		c0-3.8-2.8-7-6.6-7.3l-3.8-0.2c-2.9,0-5.3,2.3-5.3,5.2v0.1l0,0C231.5,276.2,231.6,276.4,231.4,276.6L231.4,276.6z"/>
	<path class="st10" d="M230,276.7l0.2,3.8c0,2.7,2.3,4.9,5,4.8l0,0h0.3l3.8-0.3c3.6-0.2,6.3-3.3,6.3-6.9l0,0c-0.1-3.6-3-6.5-6.6-6.6
		l-3.8-0.2l0,0c-2.8-0.1-5.2,2-5.3,4.8l0,0L230,276.7z"/>
	<path class="st11" d="M234.7,285.2l4.4-0.5c3.6-0.2,6.3-3.3,6.3-6.9l0,0c-0.1-3.6-3-6.5-6.6-6.6l-4.4-0.2"/>
	<path class="st8" d="M232,215.5v4.2l0,0c-0.1,2.8,2.2,5.2,5,5.3h0.5l3.8-0.3c3.7-0.4,6.5-3.6,6.3-7.3l0,0c0-3.8-2.8-7-6.6-7.3
		l-3.8-0.2c-2.9,0-5.3,2.3-5.3,5.2v0.1L232,215.5L232,215.5z"/>
	<path class="st9" d="M231.4,215.6l0.2,4.1l0,0c-0.1,2.8,2.2,5.2,5,5.3h0.5l3.8-0.3c3.7-0.4,6.5-3.6,6.3-7.3l0,0
		c0-3.8-2.8-7-6.6-7.3l-3.8-0.2c-2.9,0-5.3,2.3-5.3,5.2v0.1l0,0C231.5,215.2,231.6,215.4,231.4,215.6L231.4,215.6z"/>
	<path class="st10" d="M230,215.8l0.2,3.8c0,2.7,2.2,4.9,5,4.8l0,0h0.3l3.8-0.3c3.6-0.2,6.3-3.3,6.3-6.9l0,0c-0.1-3.6-3-6.5-6.6-6.6
		l-3.8-0.2l0,0c-2.8-0.1-5.2,2-5.3,4.8l0,0L230,215.8z"/>
	<path class="st11" d="M234.7,224.2l4.4-0.5c3.6-0.2,6.3-3.3,6.3-6.9l0,0c-0.1-3.6-3-6.5-6.6-6.6l-4.4-0.2"/>
	<path class="st8" d="M232,246.7v4.2l0,0c-0.1,2.8,2.2,5.2,5,5.3h0.5l3.8-0.3c3.7-0.4,6.5-3.6,6.3-7.3l0,0c0-3.8-2.8-7-6.6-7.3
		l-3.8-0.2c-2.9,0-5.3,2.3-5.3,5.2v0.1L232,246.7L232,246.7z"/>
	<path class="st9" d="M231.4,246.9l0.2,4.1l0,0c-0.1,2.8,2.2,5.2,5,5.3h0.5l3.8-0.3c3.7-0.4,6.5-3.6,6.3-7.3l0,0
		c0-3.8-2.8-7-6.6-7.3l-3.8-0.2c-2.9,0-5.3,2.3-5.3,5.2v0.1l0,0C231.5,246.5,231.6,246.7,231.4,246.9
		C231.4,246.8,231.4,246.9,231.4,246.9z"/>
	<path class="st10" d="M230,247l0.2,3.8c0,2.7,2.2,4.9,5,4.8l0,0h0.3l3.8-0.3c3.6-0.2,6.3-3.3,6.3-6.9l0,0c-0.1-3.6-3-6.5-6.6-6.6
		l-3.8-0.2l0,0c-2.8-0.1-5.2,2-5.3,4.8l0,0L230,247z"/>
	<path class="st11" d="M234.7,255.5l4.4-0.5c3.6-0.2,6.3-3.3,6.3-6.9l0,0c-0.1-3.6-3-6.5-6.6-6.6l-4.4-0.2"/>
	<g>
		<path class="st8" d="M295.8,241.6l3.1,2.8l0,0c2,2,5.3,1.9,7.3-0.1l0.3-0.4l2.3-3c2.2-3,1.7-7.2-1.1-9.6l0,0
			c-2.8-2.6-7.1-2.7-9.8-0.1l-2.7,2.7c-2,2.1-1.9,5.5,0.3,7.4l0.1,0.1L295.8,241.6L295.8,241.6z"/>
		<path class="st9" d="M295.6,242.2l3.2,2.6l0,0c2,2,5.3,1.9,7.3-0.1l0.3-0.4l2.3-3c2.2-3,1.7-7.2-1.1-9.6l0,0
			c-2.8-2.6-7.1-2.7-9.8-0.1l-2.7,2.7c-2,2.1-1.9,5.5,0.3,7.4l0.1,0.1l0,0C295.4,241.8,295.6,241.9,295.6,242.2
			C295.5,242.1,295.6,242.2,295.6,242.2z"/>
		<path class="st10" d="M294.7,243.3l2.9,2.4c2,1.8,5.1,1.7,6.9-0.4l0,0l0.2-0.2l2.3-3c2.3-2.8,1.8-6.9-0.8-9.3l0,0
			c-2.7-2.4-6.8-2.2-9.3,0.4l-2.7,2.7l0,0c-2,2-2,5.2,0,7.2l0,0L294.7,243.3z"/>
		<path class="st11" d="M304.2,245.5l2.6-3.6c2.3-2.8,1.8-6.9-0.8-9.3l0,0c-2.7-2.4-6.8-2.2-9.3,0.4l-3.1,3.1"/>
	</g>
	<g>
		<path class="st8" d="M300.3,263.1l-2.8,3.1l0,0c-2,2-1.9,5.3,0.1,7.3l0.4,0.3l3,2.3c3,2.2,7.2,1.7,9.6-1.1l0,0
			c2.6-2.8,2.7-7.1,0.1-9.8l-2.7-2.7c-2.1-2-5.5-1.9-7.4,0.3l-0.1,0.1L300.3,263.1L300.3,263.1z"/>
		<path class="st9" d="M299.7,262.9l-2.6,3.2l0,0c-2,2-1.9,5.3,0.1,7.3l0.4,0.3l3,2.3c3,2.2,7.2,1.7,9.6-1.1l0,0
			c2.6-2.8,2.7-7.1,0.1-9.8l-2.7-2.7c-2.1-2-5.5-1.9-7.4,0.3l-0.1,0.1l0,0C300.1,262.6,300,262.8,299.7,262.9
			C299.8,262.8,299.7,262.9,299.7,262.9z"/>
		<path class="st10" d="M298.6,262l-2.4,2.9c-1.8,2-1.7,5.1,0.4,6.9l0,0l0.2,0.2l3,2.3c2.8,2.3,6.9,1.8,9.3-0.8l0,0
			c2.4-2.7,2.2-6.8-0.4-9.3l-2.7-2.7l0,0c-2-2-5.2-2-7.2,0l0,0L298.6,262z"/>
		<path class="st11" d="M296.4,271.4l3.6,2.6c2.8,2.3,6.9,1.8,9.3-0.8l0,0c2.4-2.7,2.2-6.8-0.4-9.3l-3.1-3.1"/>
	</g>
	<g>
		<path class="st8" d="M277.6,268.9l-3.1-2.8l0,0c-2-2-5.3-1.9-7.3,0.1l-0.3,0.4l-2.3,3c-2.2,3-1.7,7.2,1.1,9.6l0,0
			c2.8,2.6,7.1,2.7,9.8,0.1l2.7-2.7c2-2.1,1.9-5.5-0.3-7.4l-0.1-0.1L277.6,268.9L277.6,268.9z"/>
		<path class="st9" d="M277.9,268.3l-3.2-2.6l0,0c-2-2-5.3-1.9-7.3,0.1l-0.3,0.4l-2.3,3c-2.2,3-1.7,7.2,1.1,9.6l0,0
			c2.8,2.6,7.1,2.7,9.8,0.1l2.7-2.7c2-2.1,1.9-5.5-0.3-7.4l-0.1-0.1l0,0C278.1,268.6,277.9,268.6,277.9,268.3L277.9,268.3z"/>
		<path class="st10" d="M278.7,267.2l-2.9-2.4c-2-1.8-5.1-1.7-6.9,0.4l0,0l-0.2,0.2l-2.3,3c-2.3,2.8-1.8,6.9,0.8,9.3l0,0
			c2.7,2.4,6.8,2.2,9.3-0.4l2.7-2.7l0,0c2-2,2-5.2,0-7.2l0,0L278.7,267.2z"/>
		<path class="st11" d="M269.3,264.9l-2.6,3.6c-2.3,2.8-1.8,6.9,0.8,9.3l0,0c2.7,2.4,6.8,2.2,9.3-0.4l3.1-3.1"/>
	</g>
	<g>
		<path class="st8" d="M276,246l2.8-3.1l0,0c2-2,1.9-5.3-0.1-7.3l-0.4-0.3l-3-2.3c-3-2.2-7.2-1.7-9.6,1.1l0,0
			c-2.6,2.8-2.7,7.1-0.1,9.8l2.7,2.7c2.1,2,5.5,1.9,7.4-0.3l0.1-0.1L276,246L276,246z"/>
		<path class="st9" d="M276.6,246.3l2.6-3.2l0,0c2-2,1.9-5.3-0.1-7.3l-0.4-0.3l-3-2.3c-3-2.2-7.2-1.7-9.6,1.1l0,0
			c-2.6,2.8-2.7,7.1-0.1,9.8l2.7,2.7c2.1,2,5.5,1.9,7.4-0.3l0.1-0.1l0,0C276.2,246.5,276.3,246.3,276.6,246.3
			C276.5,246.4,276.6,246.3,276.6,246.3z"/>
		<path class="st10" d="M277.7,247.2l2.4-2.9c1.8-2,1.7-5.1-0.4-6.9l0,0l-0.2-0.2l-3-2.3c-2.8-2.3-6.9-1.8-9.3,0.8l0,0
			c-2.4,2.7-2.2,6.8,0.4,9.3l2.7,2.7l0,0c2,2,5.2,2,7.2,0l0,0L277.7,247.2z"/>
		<path class="st11" d="M280,237.7l-3.6-2.6c-2.8-2.3-6.9-1.8-9.3,0.8l0,0c-2.4,2.7-2.2,6.8,0.4,9.3l3.1,3.1"/>
	</g>
	<path class="st13" d="M274.8,255.2L274.8,255.2l0.1-0.3c0.9-6.5,6.9-11,13.3-10.1c0,0,0,0,0.1,0h0.1l0.3,0.1
		c6.4,0.9,10.8,6.8,9.9,13.2v0.1l-0.1,0.3c-0.9,6.5-6.9,11-13.3,10.1c0,0,0,0-0.1,0C278.7,267.7,274.1,261.7,274.8,255.2z"/>
	<circle class="st14" cx="286.9" cy="256.2" r="11.9"/>
	<circle class="st15" cx="286.7" cy="255.8" r="11.8"/>
</g>
<g id="bookable_1_">
	<polygon id="area-04.403-status" class="st16" points="357,469.8 431.2,469.8 431.2,515.3 548.1,515.3 548.1,432.2 594.7,432.2 
		594.7,414.2 711.6,414.2 701.7,591.2 357,591.2 	"/>
	<polygon id="area-04.411-status" class="st16" points="158,331.1 263.2,338.3 258.4,407.9 258.4,470.4 357,469.8 357,591.2 
		136.3,589.8 	"/>
	<g class="st6">
		<path class="st12" d="M523,548.9v-7.2h3c0.8,0,1.3,0.1,1.7,0.2c0.3,0.1,0.6,0.4,0.8,0.7s0.3,0.7,0.3,1.1c0,0.5-0.2,1-0.5,1.3
			s-0.8,0.6-1.4,0.7c0.3,0.2,0.6,0.4,0.8,0.6c0.2,0.2,0.5,0.6,0.8,1.2l0.9,1.4h-1.7l-1-1.6c-0.4-0.6-0.6-0.9-0.8-1.1
			c-0.1-0.1-0.3-0.2-0.4-0.3c-0.2-0.1-0.4-0.1-0.7-0.1h-0.3v3L523,548.9L523,548.9z M524.5,544.8h1.1c0.7,0,1.1,0,1.3-0.1
			s0.3-0.2,0.4-0.3s0.1-0.3,0.1-0.5s-0.1-0.4-0.2-0.6c-0.1-0.1-0.3-0.2-0.5-0.3c-0.1,0-0.5,0-1.1,0h-1.1V544.8z"/>
		<path class="st12" d="M529.9,546.2c0-0.5,0.1-0.9,0.3-1.3s0.5-0.8,1-1c0.4-0.2,0.9-0.3,1.4-0.3c0.8,0,1.4,0.3,1.9,0.8
			s0.8,1.2,0.8,1.9c0,0.8-0.3,1.4-0.8,2c-0.5,0.5-1.1,0.8-1.9,0.8c-0.5,0-0.9-0.1-1.4-0.3c-0.4-0.2-0.8-0.5-1-0.9
			C530,547.3,529.9,546.8,529.9,546.2z M531.3,546.3c0,0.5,0.1,0.9,0.4,1.2s0.5,0.4,0.9,0.4s0.7-0.1,0.9-0.4
			c0.2-0.3,0.4-0.7,0.4-1.2s-0.1-0.9-0.4-1.2c-0.2-0.3-0.5-0.4-0.9-0.4s-0.7,0.1-0.9,0.4S531.3,545.8,531.3,546.3z"/>
		<path class="st12" d="M536,546.2c0-0.5,0.1-0.9,0.3-1.3s0.5-0.8,1-1c0.4-0.2,0.9-0.3,1.4-0.3c0.8,0,1.4,0.3,1.9,0.8
			s0.8,1.2,0.8,1.9c0,0.8-0.3,1.4-0.8,2c-0.5,0.5-1.1,0.8-1.9,0.8c-0.5,0-0.9-0.1-1.4-0.3c-0.4-0.2-0.8-0.5-1-0.9
			C536.1,547.3,536,546.8,536,546.2z M537.4,546.3c0,0.5,0.1,0.9,0.4,1.2s0.5,0.4,0.9,0.4s0.7-0.1,0.9-0.4c0.2-0.3,0.4-0.7,0.4-1.2
			s-0.1-0.9-0.4-1.2c-0.2-0.3-0.5-0.4-0.9-0.4s-0.7,0.1-0.9,0.4S537.4,545.8,537.4,546.3z"/>
		<path class="st12" d="M542.4,543.7h1.3v0.7c0.5-0.5,1-0.8,1.6-0.8c0.3,0,0.6,0.1,0.9,0.2s0.4,0.3,0.6,0.6c0.2-0.3,0.5-0.5,0.7-0.6
			s0.5-0.2,0.8-0.2c0.4,0,0.7,0.1,1,0.2c0.3,0.2,0.5,0.4,0.6,0.7c0.1,0.2,0.1,0.6,0.1,1.1v3.3h-1.4v-3c0-0.5,0-0.8-0.1-1
			s-0.3-0.3-0.6-0.3c-0.2,0-0.4,0.1-0.5,0.2c-0.2,0.1-0.3,0.3-0.4,0.5c-0.1,0.2-0.1,0.6-0.1,1.1v2.5h-1.4v-2.8c0-0.5,0-0.8-0.1-1
			s-0.1-0.3-0.2-0.3s-0.2-0.1-0.4-0.1s-0.4,0.1-0.6,0.2c-0.2,0.1-0.3,0.3-0.4,0.5s-0.1,0.6-0.1,1.1v2.5h-1.4v-5.3H542.4z"/>
		<path class="st12" d="M554.1,548.9v-7.2h2.3c0.9,0,1.5,0,1.7,0.1c0.4,0.1,0.8,0.3,1,0.7c0.3,0.4,0.4,0.8,0.4,1.4
			c0,0.4-0.1,0.8-0.2,1.1c-0.2,0.3-0.4,0.5-0.6,0.7c-0.2,0.2-0.5,0.3-0.7,0.3c-0.3,0.1-0.8,0.1-1.5,0.1h-0.9v2.7h-1.5V548.9z
			 M555.6,543v2h0.8c0.6,0,1,0,1.1-0.1c0.2-0.1,0.3-0.2,0.5-0.4c0.1-0.2,0.2-0.3,0.2-0.6s-0.1-0.5-0.2-0.6c-0.2-0.2-0.3-0.3-0.6-0.3
			c-0.2,0-0.5,0-1,0L555.6,543L555.6,543z"/>
		<path class="st12" d="M561.8,545.3l-1.2-0.2c0.1-0.5,0.4-0.9,0.7-1.1s0.8-0.4,1.5-0.4c0.6,0,1.1,0.1,1.4,0.2
			c0.3,0.1,0.5,0.3,0.6,0.6c0.1,0.2,0.2,0.6,0.2,1.2v1.6c0,0.5,0,0.8,0.1,1c0,0.2,0.1,0.4,0.2,0.7h-1.4c0-0.1-0.1-0.2-0.1-0.4
			c0-0.1,0-0.1,0-0.2c-0.2,0.2-0.5,0.4-0.8,0.5s-0.6,0.2-0.9,0.2c-0.5,0-1-0.1-1.3-0.4s-0.5-0.7-0.5-1.1c0-0.3,0.1-0.6,0.2-0.8
			c0.1-0.2,0.3-0.4,0.6-0.5s0.6-0.2,1.1-0.3c0.6-0.1,1.1-0.2,1.3-0.3v-0.1c0-0.3-0.1-0.5-0.2-0.6c-0.1-0.1-0.4-0.2-0.7-0.2
			c-0.2,0-0.4,0-0.6,0.1C562,544.9,561.9,545.1,561.8,545.3z M563.7,546.4c-0.2,0.1-0.5,0.1-0.8,0.2s-0.6,0.2-0.7,0.2
			c-0.2,0.1-0.3,0.3-0.3,0.5s0.1,0.4,0.2,0.5c0.1,0.1,0.3,0.2,0.5,0.2s0.5-0.1,0.7-0.2c0.2-0.1,0.3-0.3,0.3-0.5
			c0-0.1,0.1-0.3,0.1-0.7V546.4z"/>
		<path class="st12" d="M571.1,548.9h-1.4v-2.6c0-0.6,0-0.9-0.1-1.1c-0.1-0.2-0.2-0.3-0.3-0.4s-0.3-0.1-0.5-0.1s-0.5,0.1-0.6,0.2
			c-0.2,0.1-0.3,0.3-0.4,0.5c-0.1,0.2-0.1,0.6-0.1,1.2v2.3h-1.4v-5.2h1.3v0.8c0.5-0.6,1-0.9,1.7-0.9c0.3,0,0.6,0.1,0.8,0.2
			c0.2,0.1,0.4,0.2,0.6,0.4c0.1,0.2,0.2,0.4,0.3,0.6c0.1,0.2,0.1,0.5,0.1,0.9L571.1,548.9L571.1,548.9z"/>
		<path class="st12" d="M572.1,546.2c0-0.5,0.1-0.9,0.3-1.3s0.5-0.8,1-1c0.4-0.2,0.9-0.3,1.4-0.3c0.8,0,1.4,0.3,1.9,0.8
			s0.8,1.2,0.8,1.9c0,0.8-0.3,1.4-0.8,2c-0.5,0.5-1.1,0.8-1.9,0.8c-0.5,0-0.9-0.1-1.4-0.3c-0.4-0.2-0.8-0.5-1-0.9
			C572.3,547.3,572.1,546.8,572.1,546.2z M573.6,546.3c0,0.5,0.1,0.9,0.4,1.2s0.5,0.4,0.9,0.4s0.7-0.1,0.9-0.4
			c0.2-0.3,0.4-0.7,0.4-1.2s-0.1-0.9-0.4-1.2c-0.2-0.3-0.5-0.4-0.9-0.4s-0.7,0.1-0.9,0.4S573.6,545.8,573.6,546.3z"/>
		<path class="st12" d="M579.9,548.9h-1.4v-5.2h1.3v0.7c0.2-0.3,0.4-0.6,0.6-0.7c0.2-0.1,0.4-0.2,0.6-0.2c0.3,0,0.6,0.1,0.9,0.3
			l-0.4,1.2c-0.2-0.1-0.4-0.2-0.6-0.2c-0.2,0-0.4,0.1-0.5,0.2c-0.1,0.1-0.2,0.3-0.3,0.6s-0.1,0.9-0.1,1.7L579.9,548.9L579.9,548.9z"
			/>
		<path class="st12" d="M583.5,545.3l-1.2-0.2c0.1-0.5,0.4-0.9,0.7-1.1s0.8-0.4,1.5-0.4c0.6,0,1.1,0.1,1.4,0.2
			c0.3,0.1,0.5,0.3,0.6,0.6c0.1,0.2,0.2,0.6,0.2,1.2v1.6c0,0.5,0,0.8,0.1,1c0,0.2,0.1,0.4,0.2,0.7h-1.4c0-0.1-0.1-0.2-0.1-0.4
			c0-0.1,0-0.1,0-0.2c-0.2,0.2-0.5,0.4-0.8,0.5s-0.6,0.2-0.9,0.2c-0.5,0-1-0.1-1.3-0.4s-0.5-0.7-0.5-1.1c0-0.3,0.1-0.6,0.2-0.8
			c0.1-0.2,0.3-0.4,0.6-0.5s0.6-0.2,1.1-0.3c0.6-0.1,1.1-0.2,1.3-0.3v-0.1c0-0.3-0.1-0.5-0.2-0.6c-0.1-0.1-0.4-0.2-0.7-0.2
			c-0.2,0-0.4,0-0.6,0.1C583.7,544.9,583.6,545.1,583.5,545.3z M585.3,546.4c-0.2,0.1-0.5,0.1-0.8,0.2s-0.6,0.2-0.7,0.2
			c-0.2,0.1-0.3,0.3-0.3,0.5s0.1,0.4,0.2,0.5c0.1,0.1,0.3,0.2,0.5,0.2s0.5-0.1,0.7-0.2c0.2-0.1,0.3-0.3,0.3-0.5
			c0-0.1,0.1-0.3,0.1-0.7V546.4z"/>
		<path class="st12" d="M587.9,543.7h1.3v0.7c0.5-0.5,1-0.8,1.6-0.8c0.3,0,0.6,0.1,0.9,0.2s0.4,0.3,0.6,0.6c0.2-0.3,0.5-0.5,0.7-0.6
			s0.5-0.2,0.8-0.2c0.4,0,0.7,0.1,1,0.2c0.3,0.2,0.5,0.4,0.6,0.7c0.1,0.2,0.1,0.6,0.1,1.1v3.3h-1.4v-3c0-0.5,0-0.8-0.1-1
			s-0.3-0.3-0.6-0.3c-0.2,0-0.4,0.1-0.5,0.2c-0.2,0.1-0.3,0.3-0.4,0.5c-0.1,0.2-0.1,0.6-0.1,1.1v2.5H591v-2.8c0-0.5,0-0.8-0.1-1
			s-0.1-0.3-0.2-0.3s-0.2-0.1-0.4-0.1s-0.4,0.1-0.6,0.2c-0.2,0.1-0.3,0.3-0.4,0.5s-0.1,0.6-0.1,1.1v2.5h-1.4v-5.3H587.9z"/>
		<path class="st12" d="M597.9,545.3l-1.2-0.2c0.1-0.5,0.4-0.9,0.7-1.1s0.8-0.4,1.5-0.4c0.6,0,1.1,0.1,1.4,0.2
			c0.3,0.1,0.5,0.3,0.6,0.6c0.1,0.2,0.2,0.6,0.2,1.2v1.6c0,0.5,0,0.8,0.1,1c0,0.2,0.1,0.4,0.2,0.7H600c0-0.1-0.1-0.2-0.1-0.4
			c0-0.1,0-0.1,0-0.2c-0.2,0.2-0.5,0.4-0.8,0.5s-0.6,0.2-0.9,0.2c-0.5,0-1-0.1-1.3-0.4s-0.5-0.7-0.5-1.1c0-0.3,0.1-0.6,0.2-0.8
			c0.1-0.2,0.3-0.4,0.6-0.5s0.6-0.2,1.1-0.3c0.6-0.1,1.1-0.2,1.3-0.3v-0.1c0-0.3-0.1-0.5-0.2-0.6c-0.1-0.1-0.4-0.2-0.7-0.2
			c-0.2,0-0.4,0-0.6,0.1C598.1,544.9,598,545.1,597.9,545.3z M599.8,546.4c-0.2,0.1-0.5,0.1-0.8,0.2s-0.6,0.2-0.7,0.2
			c-0.2,0.1-0.3,0.3-0.3,0.5s0.1,0.4,0.2,0.5c0.1,0.1,0.3,0.2,0.5,0.2s0.5-0.1,0.7-0.2c0.2-0.1,0.3-0.3,0.3-0.5
			c0-0.1,0.1-0.3,0.1-0.7V546.4z"/>
	</g>
	<g class="st6">
		<path class="st12" d="M196.8,526.5v-7.2h3c0.8,0,1.3,0.1,1.7,0.2c0.3,0.1,0.6,0.4,0.8,0.7s0.3,0.7,0.3,1.1c0,0.5-0.2,1-0.5,1.3
			s-0.8,0.6-1.4,0.7c0.3,0.2,0.6,0.4,0.8,0.6s0.5,0.6,0.8,1.2l0.9,1.4h-1.7l-1-1.6c-0.4-0.6-0.6-0.9-0.8-1.1
			c-0.1-0.1-0.3-0.2-0.4-0.3c-0.2-0.1-0.4-0.1-0.7-0.1h-0.3v3L196.8,526.5L196.8,526.5z M198.3,522.4h1.1c0.7,0,1.1,0,1.3-0.1
			s0.3-0.2,0.4-0.3s0.1-0.3,0.1-0.5s-0.1-0.4-0.2-0.6c-0.1-0.1-0.3-0.2-0.5-0.3c-0.1,0-0.5,0-1.1,0h-1.1V522.4z"/>
		<path class="st12" d="M203.7,523.8c0-0.5,0.1-0.9,0.3-1.3s0.5-0.8,1-1s0.9-0.3,1.4-0.3c0.8,0,1.4,0.3,1.9,0.8s0.8,1.2,0.8,1.9
			c0,0.8-0.3,1.4-0.8,2c-0.5,0.5-1.1,0.8-1.9,0.8c-0.5,0-0.9-0.1-1.4-0.3s-0.8-0.5-1-0.9C203.8,524.9,203.7,524.4,203.7,523.8z
			 M205.1,523.9c0,0.5,0.1,0.9,0.4,1.2s0.5,0.4,0.9,0.4s0.7-0.1,0.9-0.4s0.4-0.7,0.4-1.2s-0.1-0.9-0.4-1.2s-0.5-0.4-0.9-0.4
			s-0.7,0.1-0.9,0.4S205.1,523.4,205.1,523.9z"/>
		<path class="st12" d="M209.8,523.8c0-0.5,0.1-0.9,0.3-1.3s0.5-0.8,1-1s0.9-0.3,1.4-0.3c0.8,0,1.4,0.3,1.9,0.8s0.8,1.2,0.8,1.9
			c0,0.8-0.3,1.4-0.8,2c-0.5,0.5-1.1,0.8-1.9,0.8c-0.5,0-0.9-0.1-1.4-0.3s-0.8-0.5-1-0.9C209.9,524.9,209.8,524.4,209.8,523.8z
			 M211.2,523.9c0,0.5,0.1,0.9,0.4,1.2s0.5,0.4,0.9,0.4s0.7-0.1,0.9-0.4s0.4-0.7,0.4-1.2s-0.1-0.9-0.4-1.2s-0.5-0.4-0.9-0.4
			s-0.7,0.1-0.9,0.4S211.2,523.4,211.2,523.9z"/>
		<path class="st12" d="M216.2,521.3h1.3v0.7c0.5-0.5,1-0.8,1.6-0.8c0.3,0,0.6,0.1,0.9,0.2s0.4,0.3,0.6,0.6c0.2-0.3,0.5-0.5,0.7-0.6
			s0.5-0.2,0.8-0.2c0.4,0,0.7,0.1,1,0.2c0.3,0.2,0.5,0.4,0.6,0.7c0.1,0.2,0.1,0.6,0.1,1.1v3.3h-1.4v-3c0-0.5,0-0.8-0.1-1
			s-0.3-0.3-0.6-0.3c-0.2,0-0.4,0.1-0.5,0.2s-0.3,0.3-0.4,0.5c-0.1,0.2-0.1,0.6-0.1,1.1v2.5h-1.4v-2.8c0-0.5,0-0.8-0.1-1
			s-0.1-0.3-0.2-0.3s-0.2-0.1-0.4-0.1s-0.4,0.1-0.6,0.2s-0.3,0.3-0.4,0.5s-0.1,0.6-0.1,1.1v2.5h-1.4L216.2,521.3L216.2,521.3z"/>
		<path class="st12" d="M229.8,526.5l-2.6-7.2h1.6l1.8,5.3l1.8-5.3h1.5l-2.6,7.2H229.8z"/>
		<path class="st12" d="M237.9,523.9v-1.2h3.1v2.9c-0.3,0.3-0.7,0.6-1.3,0.8s-1.2,0.3-1.7,0.3c-0.7,0-1.4-0.2-2-0.5s-1-0.8-1.3-1.3
			c-0.3-0.6-0.4-1.2-0.4-1.9s0.2-1.4,0.5-2s0.8-1,1.4-1.3c0.5-0.2,1-0.4,1.7-0.4c0.9,0,1.6,0.2,2.1,0.6c0.5,0.4,0.8,0.9,1,1.5
			l-1.4,0.3c-0.1-0.4-0.3-0.6-0.6-0.8s-0.6-0.3-1-0.3c-0.6,0-1.1,0.2-1.5,0.6s-0.6,1-0.6,1.8s0.2,1.5,0.6,1.9
			c0.4,0.4,0.9,0.6,1.5,0.6c0.3,0,0.6-0.1,0.9-0.2c0.3-0.1,0.6-0.3,0.8-0.4V524L237.9,523.9L237.9,523.9z"/>
		<path class="st12" d="M246.2,522.9l-1.2-0.2c0.1-0.5,0.4-0.9,0.7-1.1s0.8-0.4,1.5-0.4c0.6,0,1.1,0.1,1.4,0.2
			c0.3,0.1,0.5,0.3,0.6,0.6c0.1,0.2,0.2,0.6,0.2,1.2v1.6c0,0.5,0,0.8,0.1,1c0,0.2,0.1,0.4,0.2,0.7h-1.4c0-0.1-0.1-0.2-0.1-0.4
			c0-0.1,0-0.1,0-0.2c-0.2,0.2-0.5,0.4-0.8,0.5s-0.6,0.2-0.9,0.2c-0.5,0-1-0.1-1.3-0.4s-0.5-0.7-0.5-1.1c0-0.3,0.1-0.6,0.2-0.8
			c0.1-0.2,0.3-0.4,0.6-0.5s0.6-0.2,1.1-0.3c0.6-0.1,1.1-0.2,1.3-0.3V523c0-0.3-0.1-0.5-0.2-0.6c-0.1-0.1-0.4-0.2-0.7-0.2
			c-0.2,0-0.4,0-0.6,0.1C246.4,522.5,246.3,522.7,246.2,522.9z M248,524c-0.2,0.1-0.5,0.1-0.8,0.2s-0.6,0.2-0.7,0.2
			c-0.2,0.1-0.3,0.3-0.3,0.5s0.1,0.4,0.2,0.5s0.3,0.2,0.5,0.2s0.5-0.1,0.7-0.2c0.2-0.1,0.3-0.3,0.3-0.5c0-0.1,0.1-0.3,0.1-0.7V524z"
			/>
		<path class="st12" d="M255.4,526.5H254v-2.6c0-0.6,0-0.9-0.1-1.1c-0.1-0.2-0.2-0.3-0.3-0.4s-0.3-0.1-0.5-0.1s-0.5,0.1-0.6,0.2
			s-0.3,0.3-0.4,0.5s-0.1,0.6-0.1,1.2v2.3h-1.4v-5.2h1.3v0.8c0.5-0.6,1-0.9,1.7-0.9c0.3,0,0.6,0.1,0.8,0.2c0.3,0.1,0.4,0.2,0.6,0.4
			s0.2,0.4,0.3,0.6s0.1,0.5,0.1,0.9L255.4,526.5L255.4,526.5z"/>
		<path class="st12" d="M261.6,526.5h-1.3v-0.8c-0.2,0.3-0.5,0.5-0.7,0.7c-0.3,0.1-0.6,0.2-0.9,0.2c-0.6,0-1.1-0.2-1.5-0.7
			s-0.6-1.1-0.6-2s0.2-1.5,0.6-2s0.9-0.7,1.6-0.7c0.6,0,1.1,0.2,1.5,0.7v-2.6h1.4v7.2H261.6z M257.9,523.8c0,0.6,0.1,1,0.2,1.2
			c0.2,0.4,0.5,0.5,0.9,0.5c0.3,0,0.6-0.1,0.8-0.4c0.2-0.3,0.3-0.7,0.3-1.2c0-0.6-0.1-1-0.3-1.3c-0.2-0.3-0.5-0.4-0.8-0.4
			s-0.6,0.1-0.8,0.4C258,522.9,257.9,523.3,257.9,523.8z"/>
		<path class="st12" d="M265.7,526.5v-7.2h1.4v7.2H265.7z"/>
		<path class="st12" d="M270.1,526.5v-5.9H268v-1.2h5.7v1.2h-2.1v5.9H270.1z"/>
	</g>
</g>
<g id="outlines">
	<polyline class="st17" points="522.9,114.2 522.9,126.6 348,126.6 664,126.6 664,92.7 	"/>
	<polygon class="st18" points="182.8,40.4 647,32 652.2,92.7 729.9,92.7 697.9,658.7 60.1,658.7 56.8,496.8 71.8,496.8 105.1,43.1 	
		"/>
	<polyline class="st17" points="181.8,64.8 182.8,40.4 272.9,40.4 269.4,126.6 293.6,126.6 	"/>
	<polyline class="st17" points="312.9,126.6 331.2,126.6 314.6,343.5 289.4,340.5 	"/>
	<polyline class="st17" points="273.6,339 158,331.1 164.2,255.5 	"/>
	<polyline class="st17" points="93.9,195.1 169.4,202.4 179,83.5 166.6,235.1 	"/>
	<polyline class="st17" points="84.4,324.6 158,331.1 148.3,441.8 	"/>
	<polyline class="st17" points="146.6,461.8 136.3,589.8 290.1,591.2 	"/>
	<polyline class="st17" points="310.5,591.2 403.6,591.2 357,591.2 357,469.8 357,658.7 357,419.4 377.4,419.4 290.1,419.4 	"/>
	<polyline class="st17" points="393.3,419.4 396.7,419.4 396.7,470.4 403.6,470.4 258.4,470.4 258.4,403.2 	"/>
	<line class="st17" x1="258.4" y1="385.2" x2="263.2" y2="338.3"/>
	<line class="st17" x1="270.8" y1="419.4" x2="258.4" y2="419.4"/>
	<polyline class="st17" points="314.6,343.5 314.6,361.8 328.4,361.8 	"/>
	<line class="st17" x1="346.9" y1="361.8" x2="398.4" y2="361.8"/>
	<polyline class="st17" points="415,361.8 479.8,361.8 431.5,361.8 431.5,377.3 	"/>
	<rect x="470.9" y="388" class="st17" width="39" height="88.3"/>
	<polyline class="st17" points="431.2,393.9 431.2,515.3 548.1,515.3 548.1,361.8 496,361.8 563.6,361.8 	"/>
	<line class="st17" x1="419.8" y1="470.4" x2="431.2" y2="470.4"/>
	<polyline class="st17" points="548.1,432.2 594.7,432.2 594.7,361.8 583,361.8 	"/>
	<polyline class="st17" points="594.7,414.2 711.6,414.2 662,414.2 662,401.1 	"/>
	<line class="st17" x1="594.7" y1="364.9" x2="604.7" y2="364.9"/>
	<polyline class="st17" points="622.3,364.9 636.1,364.9 636.1,315.9 622.3,315.9 717.3,315.9 715.5,347 656.8,347 664.4,347 
		664.4,359.4 	"/>
	<line class="st17" x1="663" y1="380.4" x2="713.5" y2="380.4"/>
	<polyline class="st17" points="355.6,126.6 355.6,315.9 604.7,315.9 587.4,315.9 587.4,33.1 522.3,33.1 522.3,98.8 522.3,90.3 
		312.9,90.3 333.7,90.3 333.7,37.7 	"/>
	<line class="st17" x1="291.6" y1="90.3" x2="270.9" y2="90.3"/>
	<circle class="st17" cx="556.8" cy="64.3" r="15"/>
	<polyline class="st17" points="423,591.2 606.4,591.2 543.9,591.2 543.9,658.9 	"/>
	<line class="st17" x1="625.2" y1="591.2" x2="701.7" y2="591.2"/>
</g>
<g id="icons">
	<circle class="st19" cx="136.4" cy="127.5" r="14.6"/>
	<path class="st20" d="M131.7,129.6h-0.3c-0.1,0-0.4-0.1-0.4-0.3l0,0V128c0-0.2,0.1-0.3,0.3-0.4h1.8c0-0.1-0.1-0.1-0.1-0.1
		c-0.6-1-1-2-1.3-3c-0.3-1.2-0.6-2.3-0.7-3.5v-0.4c0-0.1,0.1-0.3,0.1-0.3c0.1-0.1,0.2-0.1,0.4,0c0.3,0.2,0.5,0.4,0.8,0.6
		c0.8,0.6,1.6,1.3,2.3,2.1l0.1,0.1c0.1-0.4,0.1-0.8,0.3-1.1c0.2-0.6,0.4-1.3,0.6-1.8c0.1-0.2,0.2-0.5,0.3-0.7
		c0.1-0.4,0.3-0.6,0.4-0.9c0.1-0.1,0.2-0.2,0.3-0.1c0.1,0,0.3,0.1,0.3,0.2l0.4,1.1c0.3,0.8,0.6,1.7,0.8,2.5c0.1,0.4,0.1,0.6,0.2,1.1
		c0.1-0.1,0.2-0.2,0.2-0.3c0.8-0.8,1.7-1.6,2.7-2.3c0.1-0.1,0.2-0.2,0.4-0.1c0.2,0,0.3,0.2,0.3,0.4l0,0c0,0.3-0.1,0.6-0.1,0.8
		c-0.2,1.1-0.4,2.2-0.7,3.3c-0.3,1-0.7,2-1.3,3v0.1h1.7c0.2,0,0.4,0.1,0.4,0.3v1.3c0,0.2-0.1,0.3-0.3,0.4h-0.4
		c0,0.2-0.1,0.4-0.1,0.6c-0.1,0.9-0.1,1.8-0.2,2.7c-0.1,1.2-0.2,2.4-0.4,3.6v0.2c0,0.2-0.2,0.3-0.4,0.3h-7.4c-0.2,0-0.4-0.1-0.4-0.3
		v-0.1c-0.1-1-0.2-2-0.3-3c-0.1-0.8-0.1-1.8-0.2-2.6C131.8,130.6,131.7,130.1,131.7,129.6z M136,118.9c-0.1,0-0.1,0.1-0.1,0.1v0.6
		h0.1c0.1-0.2,0.2-0.4,0.1-0.6C136.1,119.1,136.1,119,136,118.9z M139.9,136.4l0.6-6.8h-8.1v0.1c0.1,0.9,0.1,1.6,0.2,2.5
		c0.1,0.7,0.1,1.3,0.2,2.1s0.1,1.3,0.2,2.1c0,0.1,0,0.1,0.1,0.1h6.8V136.4z M136.4,119.2L136.4,119.2c-0.4,0.9-0.7,1.9-0.9,2.9
		c-0.2,0.9-0.4,1.8-0.4,2.8c0,0.6,0,1.2,0.1,1.8c0,0.3,0.1,0.6,0.1,0.9h2.3C138.1,124.7,137.7,121.8,136.4,119.2L136.4,119.2z
		 M131.8,121.1L131.8,121.1c0.1,1.3,0.4,2.5,0.8,3.8c0.3,0.9,0.7,1.8,1.2,2.5c0,0,0,0.1,0.1,0.1l0,0h0.6c0-0.2-0.1-0.4-0.1-0.5
		c-0.1-1.1-0.1-2.2,0-3.3c0-0.1,0-0.1-0.1-0.1c-0.6-0.6-1.1-1.1-1.6-1.6C132.5,121.7,132.2,121.5,131.8,121.1L131.8,121.1z
		 M138.3,127.5h0.6c0,0,0.1,0,0.1-0.1l0,0c0.5-0.7,0.8-1.4,1.1-2.2c0.4-1.1,0.7-2.3,0.9-3.5c0-0.1,0.1-0.4,0.1-0.6H141
		c-1,0.7-1.8,1.6-2.6,2.5c0,0.1-0.1,0.1-0.1,0.1c0.1,1,0.1,2.1,0,3.1C138.4,127.1,138.4,127.3,138.3,127.5L138.3,127.5z
		 M131.7,128.9h9.6v-0.7h-9.6V128.9z M134.5,127.7l-0.3,0.1C134.4,127.8,134.4,127.8,134.5,127.7z M134.2,128l-0.1-0.3
		C133.9,127.9,134,128,134.2,128z M141.4,120.3l0.1,0.3C141.6,120.5,141.5,120.4,141.4,120.3z"/>
	<rect x="95.1" y="144.7" class="st5" width="82.7" height="18.5"/>
	<g class="st6">
		<path class="st7" d="M127.7,149v-3.8h-1.4v-0.5h3.4v0.5h-1.4v3.8H127.7z"/>
		<path class="st7" d="M131.7,148l0.5,0.1c-0.1,0.3-0.2,0.6-0.5,0.7s-0.5,0.3-0.9,0.3c-0.5,0-0.8-0.1-1.1-0.4s-0.4-0.7-0.4-1.2
			s0.1-0.9,0.4-1.2s0.6-0.4,1-0.4s0.8,0.1,1,0.4s0.4,0.7,0.4,1.2v0.1h-2.3c0,0.3,0.1,0.6,0.3,0.8s0.4,0.3,0.7,0.3
			c0.2,0,0.4-0.1,0.5-0.2S131.6,148.2,131.7,148z M130,147.1h1.7c0-0.3-0.1-0.5-0.2-0.6c-0.2-0.2-0.4-0.3-0.7-0.3
			c-0.2,0-0.4,0.1-0.6,0.2S130,146.9,130,147.1z"/>
		<path class="st7" d="M132.9,149v-3.1h0.5v0.5c0.1-0.2,0.2-0.4,0.3-0.4s0.2-0.1,0.3-0.1c0.2,0,0.4,0.1,0.5,0.2l-0.2,0.5
			c-0.1-0.1-0.3-0.1-0.4-0.1c-0.1,0-0.2,0-0.3,0.1s-0.2,0.2-0.2,0.3c-0.1,0.2-0.1,0.4-0.1,0.6v1.6h-0.4V149z"/>
		<path class="st7" d="M134.9,149v-3.1h0.5v0.5c0.1-0.2,0.2-0.4,0.3-0.4s0.2-0.1,0.3-0.1c0.2,0,0.4,0.1,0.5,0.2l-0.2,0.5
			c-0.1-0.1-0.3-0.1-0.4-0.1c-0.1,0-0.2,0-0.3,0.1s-0.2,0.2-0.2,0.3c-0.1,0.2-0.1,0.4-0.1,0.6v1.6h-0.4V149z"/>
		<path class="st7" d="M138.9,148.6c-0.2,0.2-0.4,0.3-0.6,0.4s-0.4,0.1-0.6,0.1c-0.3,0-0.6-0.1-0.8-0.2c-0.2-0.2-0.3-0.4-0.3-0.6
			c0-0.2,0-0.3,0.1-0.4c0.1-0.1,0.2-0.2,0.3-0.3s0.2-0.1,0.4-0.2c0.1,0,0.3-0.1,0.5-0.1c0.4-0.1,0.7-0.1,0.9-0.2c0-0.1,0-0.1,0-0.1
			c0-0.2,0-0.4-0.1-0.5s-0.3-0.2-0.6-0.2c-0.2,0-0.4,0-0.5,0.1s-0.2,0.2-0.3,0.5l-0.5-0.1c0-0.2,0.1-0.4,0.2-0.5s0.3-0.2,0.5-0.3
			s0.4-0.1,0.7-0.1s0.5,0,0.6,0.1s0.3,0.1,0.4,0.2s0.1,0.2,0.2,0.4c0,0.1,0,0.3,0,0.5v0.7c0,0.5,0,0.8,0,0.9s0.1,0.3,0.1,0.4H139
			C139,148.9,138.9,148.8,138.9,148.6z M138.9,147.4c-0.2,0.1-0.5,0.1-0.9,0.2c-0.2,0-0.4,0.1-0.5,0.1s-0.2,0.1-0.2,0.2
			c0,0.1-0.1,0.2-0.1,0.3s0.1,0.3,0.2,0.4s0.3,0.1,0.5,0.1s0.4,0,0.5-0.1c0.2-0.1,0.3-0.2,0.3-0.4c0.1-0.1,0.1-0.3,0.1-0.5
			L138.9,147.4L138.9,147.4z"/>
		<path class="st7" d="M142.3,147.9l0.5,0.1c-0.1,0.4-0.2,0.6-0.4,0.8s-0.5,0.3-0.9,0.3s-0.8-0.1-1-0.4c-0.3-0.3-0.4-0.7-0.4-1.2
			c0-0.3,0.1-0.6,0.2-0.9s0.3-0.4,0.5-0.6c0.2-0.1,0.5-0.2,0.7-0.2c0.3,0,0.6,0.1,0.8,0.3s0.4,0.4,0.4,0.7l-0.5,0.1
			c0-0.2-0.1-0.4-0.3-0.5s-0.3-0.2-0.4-0.2c-0.3,0-0.5,0.1-0.6,0.3c-0.2,0.2-0.2,0.5-0.2,0.9s0.1,0.7,0.2,0.9s0.4,0.3,0.6,0.3
			c0.2,0,0.4-0.1,0.5-0.2S142.2,148.1,142.3,147.9z"/>
		<path class="st7" d="M145.4,148l0.5,0.1c-0.1,0.3-0.2,0.6-0.5,0.7s-0.5,0.3-0.9,0.3c-0.5,0-0.8-0.1-1.1-0.4s-0.4-0.7-0.4-1.2
			s0.1-0.9,0.4-1.2s0.6-0.4,1-0.4s0.8,0.1,1,0.4s0.4,0.7,0.4,1.2v0.1h-2.3c0,0.3,0.1,0.6,0.3,0.8s0.4,0.3,0.7,0.3
			c0.2,0,0.4-0.1,0.5-0.2S145.3,148.2,145.4,148z M143.6,147.1h1.7c0-0.3-0.1-0.5-0.2-0.6c-0.2-0.2-0.4-0.3-0.7-0.3
			c-0.2,0-0.4,0.1-0.6,0.2S143.6,146.9,143.6,147.1z"/>
	</g>
	<circle class="st19" cx="121.8" cy="265.8" r="14.6"/>
	<path class="st20" d="M117.1,267.9h-0.3c-0.1,0-0.4-0.1-0.4-0.3l0,0v-1.3c0-0.2,0.1-0.3,0.3-0.4h1.8c0-0.1-0.1-0.1-0.1-0.1
		c-0.6-1-1-2-1.3-3c-0.3-1.2-0.6-2.3-0.7-3.5v-0.4c0-0.1,0.1-0.3,0.1-0.3c0.1-0.1,0.2-0.1,0.4,0c0.3,0.2,0.5,0.4,0.8,0.6
		c0.8,0.6,1.6,1.3,2.3,2.1l0.1,0.1c0.1-0.4,0.1-0.8,0.3-1.1c0.2-0.6,0.4-1.3,0.6-1.8c0.1-0.2,0.2-0.5,0.3-0.7
		c0.1-0.4,0.3-0.6,0.4-0.9c0.1-0.1,0.2-0.2,0.3-0.1c0.1,0,0.3,0.1,0.3,0.2l0.4,1.1c0.3,0.8,0.6,1.7,0.8,2.5c0.1,0.4,0.1,0.6,0.2,1.1
		c0.1-0.1,0.2-0.2,0.2-0.3c0.8-0.8,1.7-1.6,2.7-2.3c0.1-0.1,0.2-0.2,0.4-0.1c0.2,0,0.3,0.2,0.3,0.4l0,0c0,0.3-0.1,0.6-0.1,0.8
		c-0.2,1.1-0.4,2.2-0.7,3.3c-0.3,1-0.7,2-1.3,3v0.1h1.7c0.2,0,0.4,0.1,0.4,0.3v1.3c0,0.2-0.1,0.3-0.3,0.4h-0.4
		c0,0.2-0.1,0.4-0.1,0.6c-0.1,0.9-0.1,1.8-0.2,2.7c-0.1,1.2-0.2,2.4-0.4,3.6v0.2c0,0.2-0.2,0.3-0.4,0.3h-7.4c-0.2,0-0.4-0.1-0.4-0.3
		v-0.1c-0.1-1-0.2-2-0.3-3c-0.1-0.8-0.1-1.8-0.2-2.6C117.2,268.9,117.1,268.4,117.1,267.9z M121.4,257.2c-0.1,0-0.1,0.1-0.1,0.1v0.6
		h0.1c0.1-0.2,0.2-0.4,0.1-0.6C121.5,257.4,121.5,257.3,121.4,257.2z M125.3,274.7l0.6-6.8h-8.1v0.1c0.1,0.9,0.1,1.6,0.2,2.5
		c0.1,0.7,0.1,1.3,0.2,2.1s0.1,1.3,0.2,2.1c0,0.1,0,0.1,0.1,0.1h6.8C125.3,274.8,125.3,274.7,125.3,274.7z M121.8,257.5L121.8,257.5
		c-0.4,0.9-0.7,1.9-0.9,2.9c-0.2,0.9-0.4,1.8-0.4,2.8c0,0.6,0,1.2,0.1,1.8c0,0.3,0.1,0.6,0.1,0.9h2.3
		C123.5,263,123.1,260.1,121.8,257.5L121.8,257.5z M117.2,259.4L117.2,259.4c0.1,1.3,0.4,2.5,0.8,3.8c0.3,0.9,0.7,1.8,1.2,2.5
		c0,0,0,0.1,0.1,0.1l0,0h0.6c0-0.2-0.1-0.4-0.1-0.5c-0.1-1.1-0.1-2.2,0-3.3c0-0.1,0-0.1-0.1-0.1c-0.6-0.6-1.1-1.1-1.6-1.6
		C117.9,260,117.6,259.8,117.2,259.4L117.2,259.4z M123.7,265.8h0.6c0,0,0.1,0,0.1-0.1l0,0c0.5-0.7,0.8-1.4,1.1-2.2
		c0.4-1.1,0.7-2.3,0.9-3.5c0-0.1,0.1-0.4,0.1-0.6h-0.1c-1,0.7-1.8,1.6-2.6,2.5c0,0.1-0.1,0.1-0.1,0.1c0.1,1,0.1,2.1,0,3.1
		C123.8,265.4,123.8,265.6,123.7,265.8L123.7,265.8z M117.1,267.2h9.6v-0.7h-9.6V267.2z M119.9,266l-0.3,0.1
		C119.8,266.1,119.8,266.1,119.9,266z M119.6,266.3l-0.1-0.3C119.3,266.2,119.4,266.3,119.6,266.3z M126.8,258.6l0.1,0.3
		C127,258.8,126.9,258.7,126.8,258.6z"/>
	<rect x="80.5" y="283" class="st5" width="82.7" height="18.5"/>
	<g class="st6">
		<path class="st7" d="M113.1,287.3v-3.8h-1.4V283h3.4v0.5h-1.4v3.8H113.1z"/>
		<path class="st7" d="M117,286.3l0.5,0.1c-0.1,0.3-0.2,0.6-0.5,0.7s-0.5,0.3-0.9,0.3c-0.5,0-0.8-0.1-1.1-0.4s-0.4-0.7-0.4-1.2
			s0.1-0.9,0.4-1.2s0.6-0.4,1-0.4s0.8,0.1,1,0.4s0.4,0.7,0.4,1.2v0.1h-2.3c0,0.3,0.1,0.6,0.3,0.8s0.4,0.3,0.7,0.3
			c0.2,0,0.4-0.1,0.5-0.2S117,286.5,117,286.3z M115.3,285.5h1.7c0-0.3-0.1-0.5-0.2-0.6c-0.2-0.2-0.4-0.3-0.7-0.3
			c-0.2,0-0.4,0.1-0.6,0.2S115.3,285.2,115.3,285.5z"/>
		<path class="st7" d="M118.2,287.3v-3.1h0.5v0.5c0.1-0.2,0.2-0.4,0.3-0.4s0.2-0.1,0.3-0.1c0.2,0,0.4,0.1,0.5,0.2l-0.2,0.5
			c-0.1-0.1-0.3-0.1-0.4-0.1s-0.2,0-0.3,0.1c-0.1,0.1-0.2,0.2-0.2,0.3c-0.1,0.2-0.1,0.4-0.1,0.6v1.6h-0.4V287.3z"/>
		<path class="st7" d="M120.2,287.3v-3.1h0.5v0.5c0.1-0.2,0.2-0.4,0.3-0.4s0.2-0.1,0.3-0.1c0.2,0,0.4,0.1,0.5,0.2l-0.2,0.5
			c-0.1-0.1-0.3-0.1-0.4-0.1s-0.2,0-0.3,0.1c-0.1,0.1-0.2,0.2-0.2,0.3c-0.1,0.2-0.1,0.4-0.1,0.6v1.6h-0.4V287.3z"/>
		<path class="st7" d="M124.3,286.9c-0.2,0.2-0.4,0.3-0.6,0.4s-0.4,0.1-0.6,0.1c-0.3,0-0.6-0.1-0.8-0.2c-0.2-0.2-0.3-0.4-0.3-0.6
			s0-0.3,0.1-0.4s0.2-0.2,0.3-0.3s0.2-0.1,0.4-0.2c0.1,0,0.3-0.1,0.5-0.1c0.4-0.1,0.7-0.1,0.9-0.2c0-0.1,0-0.1,0-0.1
			c0-0.2,0-0.4-0.1-0.5s-0.3-0.2-0.6-0.2c-0.2,0-0.4,0-0.5,0.1s-0.2,0.2-0.3,0.5l-0.5-0.1c0-0.2,0.1-0.4,0.2-0.5s0.3-0.2,0.5-0.3
			c0.2-0.1,0.4-0.1,0.7-0.1c0.3,0,0.5,0,0.6,0.1s0.3,0.1,0.4,0.2s0.1,0.2,0.2,0.4c0,0.1,0,0.3,0,0.5v0.7c0,0.5,0,0.8,0,0.9
			s0.1,0.3,0.1,0.4h-0.6C124.3,287.2,124.3,287.1,124.3,286.9z M124.2,285.8c-0.2,0.1-0.5,0.1-0.9,0.2c-0.2,0-0.4,0.1-0.5,0.1
			s-0.2,0.1-0.2,0.2s-0.1,0.2-0.1,0.3c0,0.1,0.1,0.3,0.2,0.4s0.3,0.1,0.5,0.1s0.4,0,0.5-0.1c0.2-0.1,0.3-0.2,0.3-0.4
			c0.1-0.1,0.1-0.3,0.1-0.5L124.2,285.8L124.2,285.8z"/>
		<path class="st7" d="M127.6,286.2l0.5,0.1c-0.1,0.4-0.2,0.6-0.4,0.8c-0.2,0.2-0.5,0.3-0.9,0.3s-0.8-0.1-1-0.4
			c-0.3-0.3-0.4-0.7-0.4-1.2c0-0.3,0.1-0.6,0.2-0.9s0.3-0.4,0.5-0.6c0.2-0.1,0.5-0.2,0.7-0.2c0.3,0,0.6,0.1,0.8,0.3
			c0.2,0.2,0.4,0.4,0.4,0.7l-0.5,0.1c0-0.2-0.1-0.4-0.3-0.5s-0.3-0.2-0.4-0.2c-0.3,0-0.5,0.1-0.6,0.3c-0.2,0.2-0.2,0.5-0.2,0.9
			s0.1,0.7,0.2,0.9s0.4,0.3,0.6,0.3s0.4-0.1,0.5-0.2S127.6,286.4,127.6,286.2z"/>
		<path class="st7" d="M130.7,286.3l0.5,0.1c-0.1,0.3-0.2,0.6-0.5,0.7s-0.5,0.3-0.9,0.3c-0.5,0-0.8-0.1-1.1-0.4s-0.4-0.7-0.4-1.2
			s0.1-0.9,0.4-1.2s0.6-0.4,1-0.4s0.8,0.1,1,0.4s0.4,0.7,0.4,1.2v0.1h-2.3c0,0.3,0.1,0.6,0.3,0.8s0.4,0.3,0.7,0.3
			c0.2,0,0.4-0.1,0.5-0.2S130.6,286.5,130.7,286.3z M129,285.5h1.7c0-0.3-0.1-0.5-0.2-0.6c-0.2-0.2-0.4-0.3-0.7-0.3
			c-0.2,0-0.4,0.1-0.6,0.2S129,285.2,129,285.5z"/>
	</g>
	
		<ellipse transform="matrix(0.9806 -0.1961 0.1961 0.9806 -116.512 59.5212)" class="st19" cx="242.3" cy="618.1" rx="14.6" ry="14.6"/>
	<path class="st20" d="M237.6,620.2h-0.3c-0.1,0-0.4-0.1-0.4-0.3l0,0v-1.3c0-0.2,0.1-0.3,0.3-0.4h1.8c0-0.1-0.1-0.1-0.1-0.1
		c-0.6-1-1-2-1.3-3c-0.3-1.2-0.6-2.3-0.7-3.5v-0.4c0-0.1,0.1-0.3,0.1-0.3c0.1-0.1,0.2-0.1,0.4,0c0.3,0.2,0.5,0.4,0.8,0.6
		c0.8,0.6,1.6,1.3,2.3,2.1l0.1,0.1c0.1-0.4,0.1-0.8,0.3-1.1c0.2-0.6,0.4-1.3,0.6-1.8c0.1-0.2,0.2-0.5,0.3-0.7
		c0.1-0.4,0.3-0.6,0.4-0.9c0.1-0.1,0.2-0.2,0.3-0.1c0.1,0,0.3,0.1,0.3,0.2l0.4,1.1c0.3,0.8,0.6,1.7,0.8,2.5c0.1,0.4,0.1,0.6,0.2,1.1
		c0.1-0.1,0.2-0.2,0.2-0.3c0.8-0.8,1.7-1.6,2.7-2.3c0.1-0.1,0.2-0.2,0.4-0.1c0.2,0,0.3,0.2,0.3,0.4l0,0c0,0.3-0.1,0.6-0.1,0.8
		c-0.2,1.1-0.4,2.2-0.7,3.3c-0.3,1-0.7,2-1.3,3v0.1h1.7c0.2,0,0.4,0.1,0.4,0.3v1.3c0,0.2-0.1,0.3-0.3,0.4h-0.4
		c0,0.2-0.1,0.4-0.1,0.6c-0.1,0.9-0.1,1.8-0.2,2.7c-0.1,1.2-0.2,2.4-0.4,3.6v0.2c0,0.2-0.2,0.3-0.4,0.3h-7.4c-0.2,0-0.4-0.1-0.4-0.3
		v-0.1c-0.1-1-0.2-2-0.3-3c-0.1-0.8-0.1-1.8-0.2-2.6C237.7,621.2,237.6,620.7,237.6,620.2z M241.9,609.5c-0.1,0-0.1,0.1-0.1,0.1v0.6
		h0.1c0.1-0.2,0.2-0.4,0.1-0.6C242,609.7,242,609.6,241.9,609.5z M245.8,627l0.6-6.8h-8.1v0.1c0.1,0.9,0.1,1.6,0.2,2.5
		c0.1,0.7,0.1,1.3,0.2,2.1s0.1,1.3,0.2,2.1c0,0.1,0,0.1,0.1,0.1L245.8,627L245.8,627z M242.3,609.8L242.3,609.8
		c-0.4,0.9-0.7,1.9-0.9,2.9c-0.2,0.9-0.4,1.8-0.4,2.8c0,0.6,0,1.2,0.1,1.8c0,0.3,0.1,0.6,0.1,0.9h2.3
		C244,615.3,243.6,612.4,242.3,609.8L242.3,609.8z M237.7,611.7L237.7,611.7c0.1,1.3,0.4,2.5,0.8,3.8c0.3,0.9,0.7,1.8,1.2,2.5
		c0,0,0,0.1,0.1,0.1l0,0h0.6c0-0.2-0.1-0.4-0.1-0.5c-0.1-1.1-0.1-2.2,0-3.3c0-0.1,0-0.1-0.1-0.1c-0.6-0.6-1.1-1.1-1.6-1.6
		C238.4,612.3,238.1,612.1,237.7,611.7L237.7,611.7z M244.2,618.1h0.6c0,0,0.1,0,0.1-0.1l0,0c0.5-0.7,0.8-1.4,1.1-2.2
		c0.4-1.1,0.7-2.3,0.9-3.5c0-0.1,0.1-0.4,0.1-0.6h-0.1c-1,0.7-1.8,1.6-2.6,2.5c0,0.1-0.1,0.1-0.1,0.1c0.1,1,0.1,2.1,0,3.1
		C244.3,617.7,244.3,617.9,244.2,618.1L244.2,618.1z M237.6,619.5h9.6v-0.7h-9.6V619.5z M240.4,618.3l-0.3,0.1
		C240.3,618.4,240.3,618.4,240.4,618.3z M240.1,618.6l-0.1-0.3C239.8,618.5,239.9,618.6,240.1,618.6z M247.3,610.9l0.1,0.3
		C247.5,611.1,247.4,611,247.3,610.9z"/>
	<rect x="201" y="635.3" class="st5" width="82.7" height="18.5"/>
	<g class="st6">
		<path class="st7" d="M233.5,639.6v-3.8h-1.4v-0.5h3.4v0.5h-1.4v3.8H233.5z"/>
		<path class="st7" d="M237.5,638.6l0.5,0.1c-0.1,0.3-0.2,0.6-0.5,0.7s-0.5,0.3-0.9,0.3c-0.5,0-0.8-0.1-1.1-0.4s-0.4-0.7-0.4-1.2
			s0.1-0.9,0.4-1.2s0.6-0.4,1-0.4s0.8,0.1,1,0.4s0.4,0.7,0.4,1.2v0.1h-2.3c0,0.3,0.1,0.6,0.3,0.8s0.4,0.3,0.7,0.3
			c0.2,0,0.4-0.1,0.5-0.2S237.4,638.8,237.5,638.6z M235.8,637.8h1.7c0-0.3-0.1-0.5-0.2-0.6c-0.2-0.2-0.4-0.3-0.7-0.3
			c-0.2,0-0.4,0.1-0.6,0.2S235.8,637.5,235.8,637.8z"/>
		<path class="st7" d="M238.7,639.6v-3.1h0.5v0.5c0.1-0.2,0.2-0.4,0.3-0.4s0.2-0.1,0.3-0.1c0.2,0,0.4,0.1,0.5,0.2l-0.2,0.5
			c-0.1-0.1-0.3-0.1-0.4-0.1c-0.1,0-0.2,0-0.3,0.1s-0.2,0.2-0.2,0.3c-0.1,0.2-0.1,0.4-0.1,0.6v1.6L238.7,639.6L238.7,639.6z"/>
		<path class="st7" d="M240.7,639.6v-3.1h0.5v0.5c0.1-0.2,0.2-0.4,0.3-0.4s0.2-0.1,0.3-0.1c0.2,0,0.4,0.1,0.5,0.2l-0.2,0.5
			c-0.1-0.1-0.3-0.1-0.4-0.1c-0.1,0-0.2,0-0.3,0.1s-0.2,0.2-0.2,0.3c-0.1,0.2-0.1,0.4-0.1,0.6v1.6L240.7,639.6L240.7,639.6z"/>
		<path class="st7" d="M244.7,639.2c-0.2,0.2-0.4,0.3-0.6,0.4s-0.4,0.1-0.6,0.1c-0.3,0-0.6-0.1-0.8-0.2c-0.2-0.2-0.3-0.4-0.3-0.6
			c0-0.2,0-0.3,0.1-0.4c0.1-0.1,0.2-0.2,0.3-0.3s0.2-0.1,0.4-0.2c0.1,0,0.3-0.1,0.5-0.1c0.4-0.1,0.7-0.1,0.9-0.2c0-0.1,0-0.1,0-0.1
			c0-0.2,0-0.4-0.1-0.5s-0.3-0.2-0.6-0.2c-0.2,0-0.4,0-0.5,0.1s-0.2,0.2-0.3,0.5l-0.5-0.1c0-0.2,0.1-0.4,0.2-0.5s0.3-0.2,0.5-0.3
			s0.4-0.1,0.7-0.1s0.5,0,0.6,0.1s0.3,0.1,0.4,0.2s0.1,0.2,0.2,0.4c0,0.1,0,0.3,0,0.5v0.7c0,0.5,0,0.8,0,0.9s0.1,0.3,0.1,0.4h-0.6
			C244.8,639.5,244.8,639.4,244.7,639.2z M244.7,638.1c-0.2,0.1-0.5,0.1-0.9,0.2c-0.2,0-0.4,0.1-0.5,0.1s-0.2,0.1-0.2,0.2
			c0,0.1-0.1,0.2-0.1,0.3s0.1,0.3,0.2,0.4s0.3,0.1,0.5,0.1s0.4,0,0.5-0.1c0.2-0.1,0.3-0.2,0.3-0.4c0.1-0.1,0.1-0.3,0.1-0.5
			L244.7,638.1L244.7,638.1z"/>
		<path class="st7" d="M248.1,638.5l0.5,0.1c-0.1,0.4-0.2,0.6-0.4,0.8s-0.5,0.3-0.9,0.3s-0.8-0.1-1-0.4c-0.3-0.3-0.4-0.7-0.4-1.2
			c0-0.3,0.1-0.6,0.2-0.9s0.3-0.4,0.5-0.6c0.2-0.1,0.5-0.2,0.7-0.2c0.3,0,0.6,0.1,0.8,0.3s0.4,0.4,0.4,0.7l-0.5,0.1
			c0-0.2-0.1-0.4-0.3-0.5s-0.3-0.2-0.4-0.2c-0.3,0-0.5,0.1-0.6,0.3c-0.2,0.2-0.2,0.5-0.2,0.9s0.1,0.7,0.2,0.9s0.4,0.3,0.6,0.3
			c0.2,0,0.4-0.1,0.5-0.2S248,638.7,248.1,638.5z"/>
		<path class="st7" d="M251.2,638.6l0.5,0.1c-0.1,0.3-0.2,0.6-0.5,0.7s-0.5,0.3-0.9,0.3c-0.5,0-0.8-0.1-1.1-0.4s-0.4-0.7-0.4-1.2
			s0.1-0.9,0.4-1.2s0.6-0.4,1-0.4s0.8,0.1,1,0.4s0.4,0.7,0.4,1.2v0.1h-2.3c0,0.3,0.1,0.6,0.3,0.8s0.4,0.3,0.7,0.3
			c0.2,0,0.4-0.1,0.5-0.2S251.1,638.8,251.2,638.6z M249.4,637.8h1.7c0-0.3-0.1-0.5-0.2-0.6c-0.2-0.2-0.4-0.3-0.7-0.3
			c-0.2,0-0.4,0.1-0.6,0.2S249.5,637.5,249.4,637.8z"/>
	</g>
	<circle class="st21" cx="309.3" cy="437" r="14"/>
	<circle class="st22" cx="310" cy="431.5" r="2.1"/>
	<path class="st22" d="M310,434.5c-1.9,0-3.3,2.6-3.3,5.9h2.1v3.1h2.5v-3.1h2.1C313.4,437.2,311.7,434.5,310,434.5z"/>
	<g>
		<g class="st6">
			<path class="st23" d="M296.4,457.4l-1.3-4.8h0.6l0.8,3.2c0.1,0.3,0.1,0.7,0.2,1c0.1-0.5,0.2-0.8,0.2-0.9l0.9-3.3h0.8l0.7,2.4
				c0.2,0.7,0.3,1.2,0.3,1.8c0.1-0.3,0.1-0.7,0.2-1.1l0.8-3.1h0.7l-1.3,4.8h-0.7l-1-3.7c-0.1-0.3-0.1-0.5-0.1-0.5
				c0,0.2-0.1,0.4-0.1,0.5l-1,3.7H296.4L296.4,457.4z"/>
		</g>
		<g class="st6">
			<path class="st23" d="M301.5,455.6c0-0.7,0.2-1.1,0.5-1.4c0.3-0.2,0.7-0.4,1.1-0.4s0.9,0.1,1.2,0.4s0.4,0.8,0.4,1.3
				c0,0.4-0.1,0.8-0.2,1.1c-0.1,0.2-0.3,0.4-0.5,0.5s-0.5,0.2-0.9,0.2s-0.9-0.1-1.2-0.4C301.6,456.7,301.5,456.3,301.5,455.6z
				 M302.1,455.6c0,0.4,0.1,0.8,0.3,1c0.2,0.2,0.4,0.3,0.8,0.3c0.3,0,0.5-0.1,0.8-0.3c0.2-0.2,0.3-0.5,0.3-1s-0.1-0.8-0.3-1
				c-0.2-0.2-0.4-0.3-0.8-0.3c-0.3,0-0.5,0.1-0.8,0.3C302.2,454.9,302.1,455.2,302.1,455.6z"/>
			<path class="st23" d="M305.5,457.4v-3.5h0.5v0.4c0.1-0.2,0.2-0.3,0.4-0.4c0.2-0.1,0.4-0.1,0.7-0.1c0.2,0,0.4,0,0.7,0.1
				c0.2,0.1,0.3,0.2,0.3,0.4c0.3-0.4,0.7-0.7,1.1-0.7c0.3,0,0.7,0.1,0.8,0.3c0.1,0.2,0.3,0.4,0.3,0.9v2.4h-0.5V455
				c0-0.2,0-0.4-0.1-0.5c0-0.1-0.1-0.2-0.2-0.2c-0.1-0.1-0.2-0.1-0.3-0.1c-0.2,0-0.4,0.1-0.7,0.2c-0.1,0.1-0.2,0.4-0.2,0.8v2.1h-0.5
				V455c0-0.2,0-0.4-0.1-0.5s-0.2-0.2-0.4-0.2c-0.2,0-0.3,0-0.4,0.1s-0.2,0.2-0.3,0.4c-0.1,0.2-0.1,0.4-0.1,0.8v1.9L305.5,457.4
				L305.5,457.4z"/>
			<path class="st23" d="M313.5,456.3l0.7,0.1c-0.1,0.3-0.3,0.7-0.5,0.9c-0.2,0.2-0.5,0.3-1,0.3s-0.9-0.1-1.2-0.4
				c-0.3-0.3-0.4-0.8-0.4-1.3s0.1-1.1,0.4-1.4s0.7-0.4,1.2-0.4c0.4,0,0.9,0.1,1.1,0.4c0.3,0.3,0.4,0.8,0.4,1.3v0.1h-2.6
				c0,0.4,0.1,0.7,0.3,0.9c0.2,0.2,0.4,0.3,0.8,0.3c0.2,0,0.4-0.1,0.5-0.2C313.3,456.7,313.5,456.5,313.5,456.3z M311.6,455.3h2
				c0-0.3-0.1-0.5-0.2-0.7c-0.2-0.2-0.4-0.3-0.8-0.3c-0.2,0-0.5,0.1-0.7,0.2S311.6,455,311.6,455.3z"/>
			<path class="st23" d="M314.9,457.4v-3.5h0.5v0.5c0.2-0.4,0.7-0.5,1.1-0.5c0.2,0,0.4,0,0.5,0.1c0.2,0.1,0.3,0.2,0.4,0.3
				c0.1,0.1,0.1,0.2,0.2,0.4c0,0.1,0,0.3,0,0.5v2.2h-0.5v-2.1c0-0.2,0-0.4-0.1-0.5c0-0.1-0.1-0.2-0.2-0.3c-0.1-0.1-0.2-0.1-0.4-0.1
				c-0.2,0-0.4,0.1-0.7,0.2c-0.2,0.1-0.3,0.4-0.3,0.9v1.9H314.9z"/>
		</g>
		<g class="st6">
			<path class="st23" d="M318.7,453.2v-0.7h0.7v0.5c0,0.3,0,0.5-0.1,0.7s-0.2,0.3-0.4,0.4l-0.1-0.2c0.1,0,0.2-0.1,0.2-0.2
				c0.1-0.1,0.1-0.2,0.1-0.4L318.7,453.2L318.7,453.2z"/>
		</g>
		<g class="st6">
			<path class="st23" d="M319.8,456.4l0.5-0.1c0,0.2,0.1,0.4,0.3,0.5c0.1,0.1,0.3,0.2,0.7,0.2c0.2,0,0.4-0.1,0.7-0.2
				c0.1-0.1,0.2-0.2,0.2-0.4c0-0.1-0.1-0.2-0.2-0.3c-0.1,0-0.3-0.1-0.7-0.2c-0.4-0.1-0.8-0.2-0.9-0.3c-0.2-0.1-0.3-0.2-0.3-0.3
				c-0.1-0.1-0.1-0.3-0.1-0.4s0-0.3,0.1-0.4s0.2-0.2,0.3-0.3c0.1-0.1,0.2-0.1,0.3-0.2s0.3-0.1,0.5-0.1c0.3,0,0.5,0,0.8,0.1
				c0.2,0.1,0.3,0.2,0.4,0.3c0.1,0.1,0.2,0.3,0.2,0.5l-0.5,0.1c0-0.2-0.1-0.3-0.2-0.4s-0.3-0.1-0.5-0.1s-0.4,0-0.5,0.1
				s-0.2,0.2-0.2,0.3c0,0.1,0,0.1,0.1,0.2c0,0.1,0.1,0.1,0.2,0.1s0.2,0.1,0.5,0.1c0.4,0.1,0.8,0.2,0.9,0.3s0.3,0.2,0.4,0.3
				c0.1,0.1,0.1,0.3,0.1,0.5s-0.1,0.4-0.2,0.5c-0.1,0.2-0.3,0.3-0.5,0.4s-0.4,0.1-0.8,0.1s-0.8-0.1-1-0.3
				C320,457.1,319.9,456.7,319.8,456.4z"/>
		</g>
		<g class="st6">
			<path class="st23" d="M303.8,465.5v-4.3h-1.6v-0.5h3.8v0.5h-1.6v4.3H303.8z"/>
		</g>
		<g class="st6">
			<path class="st23" d="M305.7,463.8c0-0.7,0.2-1.1,0.5-1.4c0.3-0.2,0.7-0.4,1.1-0.4s0.9,0.1,1.2,0.4c0.3,0.3,0.4,0.8,0.4,1.3
				c0,0.4-0.1,0.8-0.2,1.1c-0.1,0.2-0.3,0.4-0.5,0.5s-0.5,0.2-0.9,0.2s-0.9-0.1-1.2-0.4C305.8,464.9,305.7,464.4,305.7,463.8z
				 M306.2,463.8c0,0.4,0.1,0.8,0.3,1c0.2,0.2,0.4,0.3,0.8,0.3c0.3,0,0.5-0.1,0.8-0.3c0.2-0.2,0.3-0.5,0.3-1s-0.1-0.8-0.3-1
				c-0.2-0.2-0.4-0.3-0.8-0.3c-0.3,0-0.5,0.1-0.8,0.3C306.3,463,306.2,463.3,306.2,463.8z"/>
			<path class="st23" d="M309.6,461.3v-0.7h0.5v0.7H309.6z M309.6,465.5V462h0.5v3.5H309.6z"/>
			<path class="st23" d="M311.1,465.5v-4.8h0.5v4.8H311.1z"/>
			<path class="st23" d="M315,464.4l0.7,0.1c-0.1,0.3-0.3,0.7-0.5,0.9c-0.2,0.2-0.5,0.3-1,0.3s-0.9-0.1-1.2-0.4
				c-0.3-0.3-0.4-0.8-0.4-1.3s0.1-1.1,0.4-1.4s0.7-0.4,1.2-0.4c0.4,0,0.9,0.1,1.1,0.4c0.3,0.3,0.4,0.8,0.4,1.3v0.1h-2.6
				c0,0.4,0.1,0.7,0.3,0.9c0.2,0.2,0.4,0.3,0.8,0.3c0.2,0,0.4-0.1,0.5-0.2C314.8,464.9,314.9,464.6,315,464.4z M313.1,463.4h2
				c0-0.3-0.1-0.5-0.2-0.7c-0.2-0.2-0.4-0.3-0.8-0.3c-0.2,0-0.5,0.1-0.7,0.2S313.1,463.1,313.1,463.4z"/>
			<path class="st23" d="M317.7,465l0.1,0.5c-0.2,0-0.3,0-0.4,0c-0.2,0-0.3,0-0.5-0.1c-0.1-0.1-0.2-0.1-0.2-0.2s-0.1-0.3-0.1-0.7v-2
				h-0.4v-0.4h0.4v-1l0.5-0.3v1.2h0.5v0.4h-0.5v2.1c0,0.2,0,0.3,0,0.3s0,0.1,0.1,0.1c0,0,0.1,0,0.2,0
				C317.4,465.1,317.6,465,317.7,465z"/>
		</g>
	</g>
	<g>
		<g class="st6">
			<path class="st23" d="M367.9,459.1v-4.6h1l1.1,3.4c0.1,0.3,0.1,0.6,0.3,0.7c0-0.1,0.1-0.4,0.3-0.7l1.1-3.2h0.8v4.6h-0.6v-4
				l-1.4,3.9h-0.6l-1.4-3.9v3.9h-0.7C367.9,459.2,367.9,459.1,367.9,459.1z"/>
			<path class="st23" d="M375.6,458l0.6,0.1c-0.1,0.3-0.3,0.6-0.6,0.8c-0.3,0.3-0.6,0.3-1,0.3c-0.6,0-0.8-0.1-1.1-0.4
				c-0.3-0.3-0.4-0.7-0.4-1.3s0.1-1,0.4-1.3s0.7-0.4,1.1-0.4s0.8,0.1,1.1,0.4c0.3,0.3,0.4,0.7,0.4,1.3v0.1h-2.5
				c0,0.4,0.1,0.7,0.3,0.8s0.4,0.3,0.7,0.3c0.3,0,0.4,0,0.6-0.1C375.5,458.4,375.5,458.2,375.6,458z M373.8,457h2
				c0-0.3-0.1-0.6-0.3-0.7c-0.1-0.3-0.4-0.3-0.7-0.3s-0.4,0.1-0.7,0.3C373.8,456.4,373.8,456.7,373.8,457z"/>
			<path class="st23" d="M376.9,459.1v-3.5h0.6v0.4c0.3-0.4,0.6-0.6,1.1-0.6c0.1,0,0.4,0,0.6,0.1c0.1,0.1,0.3,0.1,0.4,0.3
				s0.1,0.3,0.1,0.4s0,0.3,0,0.6v2.1h-0.6v-2c0-0.3,0-0.4,0-0.6s-0.1-0.1-0.3-0.3c-0.1,0-0.3-0.1-0.4-0.1c-0.3,0-0.4,0.1-0.7,0.3
				c-0.1,0.1-0.3,0.4-0.3,0.8v1.8h-0.6C376.9,458.9,376.9,459.1,376.9,459.1z"/>
		</g>
		<g class="st6">
			<path class="st23" d="M380.5,455v-0.7h0.6v0.6c0,0.3,0,0.6-0.1,0.6c-0.1,0.1-0.3,0.3-0.4,0.4l-0.1-0.3c0.1,0,0.1-0.1,0.3-0.3
				c0-0.1,0.1-0.3,0.1-0.4h-0.3v0.1L380.5,455L380.5,455z"/>
		</g>
		<g class="st6">
			<path class="st23" d="M381.6,458l0.6-0.1c0,0.3,0.1,0.4,0.3,0.6c0.1,0.1,0.3,0.1,0.6,0.1c0.3,0,0.4,0,0.6-0.1s0.1-0.3,0.1-0.4
				s0-0.3-0.1-0.3s-0.3-0.1-0.6-0.1c-0.4-0.1-0.7-0.1-0.8-0.3s-0.3-0.1-0.4-0.3c-0.1-0.1-0.1-0.3-0.1-0.4s0-0.3,0.1-0.4
				s0.1-0.3,0.3-0.3s0.3-0.1,0.4-0.1s0.3,0,0.6,0c0.3,0,0.6,0,0.7,0.1s0.3,0.1,0.4,0.3c0.1,0.1,0.1,0.3,0.1,0.6l-0.6,0.1
				c0-0.1-0.1-0.3-0.3-0.4c-0.1-0.1-0.3-0.1-0.6-0.1c-0.3,0-0.4,0-0.6,0.1s-0.1,0.1-0.1,0.3s0,0.1,0,0.1s0.1,0.1,0.3,0.1
				c0,0,0.3,0.1,0.6,0.1c0.4,0.1,0.7,0.1,0.8,0.3c0.1,0,0.3,0.1,0.4,0.3s0.1,0.3,0.1,0.6c0,0.1,0,0.4-0.1,0.6
				c-0.1,0.1-0.3,0.3-0.4,0.4c-0.3,0.1-0.4,0.1-0.7,0.1c-0.4,0-0.8-0.1-1-0.3C382.1,458.9,381.8,458.4,381.6,458z"/>
		</g>
		<g class="st6">
			<path class="st23" d="M371,466.9v-4.1h-1.5v-0.5h3.6v0.6h-1.5v4.1H371V466.9z"/>
		</g>
		<g class="st6">
			<path class="st23" d="M372.8,465.2c0-0.6,0.1-1.1,0.6-1.4c0.3-0.3,0.7-0.4,1.1-0.4s0.8,0.1,1.1,0.4c0.3,0.3,0.4,0.7,0.4,1.3
				c0,0.4,0,0.8-0.1,1s-0.3,0.4-0.6,0.6s-0.6,0.1-0.8,0.1c-0.4,0-0.8-0.1-1.1-0.4C372.9,466.2,372.8,465.8,372.8,465.2z
				 M373.4,465.2c0,0.4,0.1,0.7,0.3,1c0.1,0.3,0.4,0.3,0.7,0.3c0.3,0,0.6-0.1,0.7-0.3c0.1-0.3,0.3-0.6,0.3-1s-0.1-0.7-0.3-1
				c-0.1-0.3-0.4-0.3-0.7-0.3c-0.3,0-0.6,0.1-0.7,0.3C373.5,464.4,373.4,464.7,373.4,465.2z"/>
			<path class="st23" d="M376.7,462.9v-0.7h0.6v0.7H376.7z M376.7,466.9v-3.4h0.6v3.4H376.7z"/>
			<path class="st23" d="M378.1,466.9v-4.6h0.6v4.6H378.1z"/>
			<path class="st23" d="M381.9,465.8l0.6,0.1c-0.1,0.3-0.3,0.6-0.6,0.8c-0.3,0.3-0.6,0.3-1,0.3c-0.6,0-0.8-0.1-1.1-0.4
				c-0.3-0.3-0.4-0.7-0.4-1.3s0.1-1,0.4-1.3s0.7-0.4,1.1-0.4s0.8,0.1,1.1,0.4c0.3,0.3,0.4,0.7,0.4,1.3v0.1h-2.5
				c0,0.4,0.1,0.7,0.3,0.8c0.1,0.1,0.4,0.3,0.7,0.3c0.3,0,0.4,0,0.6-0.1C381.8,466.2,381.8,466.1,381.9,465.8z M380.1,464.8h2
				c0-0.3-0.1-0.6-0.3-0.7c-0.1-0.3-0.4-0.3-0.7-0.3c-0.3,0-0.4,0.1-0.7,0.3C380.1,464.3,380.1,464.5,380.1,464.8z"/>
			<path class="st23" d="M384.4,466.4l0.1,0.6c-0.1,0-0.3,0-0.4,0s-0.4,0-0.4-0.1c-0.1,0-0.1-0.1-0.3-0.3c0-0.1-0.1-0.3-0.1-0.7
				v-1.8h-0.4v-0.4h0.4v-1l0.6-0.4v1.1h0.6v0.4h-0.6v2c0,0.1,0,0.3,0,0.3s0,0.1,0.1,0.1s0.1,0,0.1,0
				C384.3,466.4,384.4,466.4,384.4,466.4z"/>
		</g>
	</g>
	<circle class="st21" cx="377" cy="438.5" r="14.4"/>
	<circle class="st24" cx="377" cy="434" r="2.2"/>
	<path class="st24" d="M380.5,437.5h-7c-0.1,2,0.7,3.8,2.2,4.9v4.2h2.5v-4.2C379.8,441.4,380.8,439.5,380.5,437.5z"/>
	<circle class="st19" cx="570.7" cy="396.6" r="16"/>
	<path class="st25" d="M566.2,402.8v-9.7h3.3v9.7H566.2z M569.7,402.8v-9.7h3.3v9.7H569.7z M577.1,402.8h-3.7V393
		c0-0.1-0.1-0.2-0.2-0.2h-6.9c-0.1,0-0.2,0.1-0.2,0.2l0,0v9.9h-1.8v-12.8H577L577.1,402.8z M577.1,390h-13c-0.1,0-0.2,0.1-0.2,0.2
		l0,0v13c0,0.1,0.1,0.2,0.2,0.2h13c0.1,0,0.2-0.1,0.2-0.2l0,0v-13C577.3,390,577.2,390,577.1,390L577.1,390z"/>
	<path class="st25" d="M568.7,391.6h2c0.1,0,0.2,0,0.2-0.1s0-0.2-0.1-0.2h-2.1c-0.1,0-0.2,0-0.2,0.2
		C568.5,391.5,568.5,391.6,568.7,391.6z"/>
	<path class="st26" d="M574.7,396.3l0.4-0.4l0.4,0.4c0.1,0.1,0.2,0,0.2-0.1l0,0V396l-0.5-0.5c-0.1-0.1-0.1-0.1-0.2,0l0,0l-0.5,0.5
		C574.5,396.2,574.6,396.2,574.7,396.3L574.7,396.3C574.6,396.3,574.7,396.3,574.7,396.3L574.7,396.3L574.7,396.3z"/>
	<path class="st26" d="M575.1,397.8L575.1,397.8c0.2,0.1,0.2,0.1,0.2,0l0.5-0.5c0.1,0,0.1-0.2,0.1-0.2l0,0c0-0.1-0.1-0.1-0.2-0.1
		l0,0l-0.1,0.1l-0.4,0.4l-0.4-0.4c-0.1-0.1-0.1-0.1-0.2-0.1c-0.1,0-0.1,0.2-0.1,0.2l0.1,0.1L575.1,397.8z"/>
	<g class="st6">
		<path class="st27" d="M566.1,421.6v-5.4h0.7v4.8h2.6v0.6H566.1z"/>
		<path class="st27" d="M570.3,416.9v-0.8h0.6v0.8H570.3z M570.3,421.6v-3.9h0.6v3.9H570.3z"/>
		<path class="st27" d="M572.1,421.6v-3.4h-0.6v-0.5h0.6v-0.5c0-0.2,0-0.5,0.1-0.6c0.1-0.2,0.2-0.3,0.3-0.4c0.2-0.1,0.4-0.2,0.6-0.2
			c0.2,0,0.4,0,0.6,0.1l-0.1,0.6c-0.2,0-0.2,0-0.4,0s-0.3,0.1-0.4,0.2c-0.1,0.1-0.2,0.2-0.2,0.5v0.4h0.8v0.5h-0.8v3.4L572.1,421.6
			L572.1,421.6z"/>
		<path class="st27" d="M575.5,420.9l0.1,0.6c-0.2,0-0.3,0.1-0.5,0.1s-0.4,0-0.6-0.1s-0.2-0.2-0.3-0.3c-0.1-0.2-0.1-0.4-0.1-0.8
			v-2.2h-0.5v-0.5h0.5v-1l0.6-0.4v1.4h0.6v0.5h-0.6v2.3c0,0.2,0,0.3,0,0.4s0.1,0.1,0.1,0.2s0.2,0.1,0.2,0.1
			C575.3,420.9,575.3,420.9,575.5,420.9z"/>
	</g>
	<g class="st6">
		<path class="st7" d="M278.6,179v-5h0.7v2.5l2.5-2.5h0.9l-2.1,2l2.2,3h-0.9l-1.8-2.5l-0.8,0.8v1.8L278.6,179L278.6,179z"/>
		<path class="st7" d="M283.2,174.7V174h0.6v0.7H283.2z M283.2,179v-3.6h0.6v3.6H283.2z"/>
		<path class="st7" d="M286.1,178.5l0.1,0.5c-0.2,0.1-0.3,0.1-0.5,0.1s-0.4-0.1-0.5-0.1c-0.1-0.1-0.2-0.1-0.3-0.3s-0.1-0.3-0.1-0.7
			v-2.1h-0.5v-0.5h0.5v-0.9l0.6-0.3v1.3h0.6v0.5h-0.6v2.1c0,0.2,0,0.3,0,0.3c0,0.1,0.1,0.1,0.1,0.1c0.1,0,0.1,0.1,0.2,0.1
			C285.9,178.5,286,178.5,286.1,178.5z"/>
		<path class="st7" d="M289,177.7l0.6,0.1c-0.1,0.4-0.2,0.7-0.5,1c-0.3,0.2-0.6,0.3-1,0.3c-0.5,0-0.9-0.1-1.2-0.5
			c-0.3-0.3-0.5-0.8-0.5-1.4c0-0.4,0.1-0.7,0.2-1s0.3-0.5,0.6-0.7c0.3-0.1,0.5-0.2,0.9-0.2s0.7,0.1,1,0.3s0.4,0.5,0.5,0.8l-0.6,0.1
			c-0.1-0.3-0.1-0.4-0.3-0.5c-0.1-0.1-0.3-0.2-0.5-0.2c-0.3,0-0.5,0.1-0.7,0.3s-0.3,0.5-0.3,1.1c0,0.5,0.1,0.8,0.3,1.1
			c0.2,0.2,0.4,0.3,0.7,0.3c0.3,0,0.5-0.1,0.6-0.2C288.9,178.2,289,178,289,177.7z"/>
		<path class="st7" d="M290.2,179v-5h0.6v1.8c0.3-0.3,0.7-0.5,1.1-0.5c0.3,0,0.5,0.1,0.7,0.1c0.2,0.1,0.3,0.3,0.4,0.4
			c0.1,0.2,0.1,0.5,0.1,0.8v2.3h-0.6v-2.3c0-0.3-0.1-0.5-0.2-0.7c-0.1-0.1-0.3-0.2-0.5-0.2s-0.3,0.1-0.5,0.1
			c-0.1,0.1-0.3,0.2-0.3,0.4c-0.1,0.1-0.1,0.4-0.1,0.7v2L290.2,179L290.2,179z"/>
		<path class="st7" d="M296.6,177.8l0.6,0.1c-0.1,0.3-0.3,0.7-0.5,0.9c-0.3,0.2-0.6,0.3-1,0.3c-0.5,0-1-0.1-1.3-0.5
			s-0.5-0.8-0.5-1.4s0.1-1.1,0.5-1.4s0.7-0.5,1.2-0.5s0.9,0.1,1.2,0.5c0.3,0.3,0.5,0.8,0.5,1.4c0,0.1,0,0.1,0,0.1h-2.7
			c0,0.4,0.1,0.7,0.3,0.9c0.2,0.2,0.5,0.3,0.7,0.3s0.4-0.1,0.5-0.2C296.3,178.3,296.5,178.1,296.6,177.8z M294.6,176.9h2
			c0-0.3-0.1-0.5-0.2-0.7c-0.2-0.2-0.5-0.3-0.7-0.3c-0.3,0-0.5,0.1-0.7,0.3C294.7,176.3,294.6,176.5,294.6,176.9z"/>
		<path class="st7" d="M298,179v-3.6h0.5v0.5c0.3-0.4,0.7-0.6,1.2-0.6c0.2,0,0.4,0.1,0.6,0.1c0.2,0.1,0.3,0.2,0.4,0.3
			s0.1,0.3,0.2,0.5c0,0.1,0,0.3,0,0.6v2.2h-0.6v-2.3c0-0.3,0-0.4-0.1-0.5s-0.1-0.2-0.3-0.3c-0.1-0.1-0.3-0.1-0.4-0.1
			c-0.3,0-0.5,0.1-0.7,0.3c-0.2,0.1-0.3,0.5-0.3,1v2L298,179L298,179L298,179z"/>
	</g>
	<circle class="st19" cx="290.1" cy="156.5" r="15"/>
	<path class="st28" d="M283.8,160.2h12.9v0.9c0,0.5-0.3,0.9-0.8,0.9l0,0c-0.1,0-0.1,0-0.1,0h-11.1c-0.5,0-0.9-0.3-0.9-0.8l0,0
		c0-0.1,0-0.1,0-0.1l0,0V160.2z"/>
	<path class="st28" d="M284.7,153.2h11.1c0.5,0,0.9,0.3,0.9,0.8l0,0c0,0.1,0,0.1,0,0.1v0.9h-12.9v-0.9c0-0.5,0.3-0.9,0.8-0.9
		C284.6,153.2,284.7,153.2,284.7,153.2z"/>
	<path class="st28" d="M283.8,157.4l0.9-0.7c0.5-0.3,1.2-0.3,1.8,0l0.5,0.3c0.5,0.3,1.2,0.3,1.8,0l0.5-0.3c0.5-0.3,1.2-0.3,1.8,0
		l0.5,0.3c0.5,0.3,1.2,0.3,1.8,0l0.5-0.3c0.5-0.3,1.2-0.3,1.8,0l0.9,0.7"/>
	<line class="st28" x1="283.5" y1="158.8" x2="297.2" y2="158.8"/>
	<line class="st28" x1="290.3" y1="151.4" x2="290.3" y2="152"/>
	<circle class="st28" cx="290.3" cy="150.3" r="0.9"/>
	<circle class="st21" cx="488.4" cy="425.6" r="13.9"/>
	<path class="st23" d="M481.2,446.3h0.6c0,0.2,0.1,0.4,0.2,0.6c0.1,0.1,0.2,0.2,0.5,0.4c0.2,0.1,0.5,0.1,0.7,0.1s0.5,0,0.6-0.1
		s0.4-0.1,0.4-0.2c0.1-0.1,0.1-0.2,0.1-0.4c0-0.1,0-0.2-0.1-0.4c-0.1-0.1-0.2-0.2-0.4-0.2s-0.4-0.1-0.9-0.2
		c-0.4-0.1-0.7-0.2-0.9-0.2c-0.2-0.1-0.4-0.2-0.5-0.5c-0.1-0.2-0.1-0.4-0.1-0.6s0.1-0.5,0.2-0.6s0.4-0.4,0.6-0.5s0.5-0.1,0.9-0.1
		s0.6,0,0.9,0.1c0.2,0.1,0.5,0.2,0.6,0.5c0.1,0.2,0.2,0.5,0.2,0.7h-0.6c0-0.2-0.1-0.5-0.4-0.6c-0.1-0.1-0.5-0.2-0.9-0.2
		s-0.6,0.1-0.9,0.2c-0.1,0.1-0.2,0.2-0.2,0.5c0,0.1,0,0.2,0.1,0.4c0.1,0.1,0.4,0.2,1,0.4c0.5,0.1,0.9,0.2,1,0.2
		c0.2,0.1,0.5,0.2,0.6,0.5c0.1,0.2,0.2,0.4,0.2,0.6s-0.1,0.5-0.2,0.7s-0.4,0.4-0.6,0.5s-0.6,0.1-0.9,0.1c-0.4,0-0.7,0-1.1-0.1
		c-0.2-0.1-0.5-0.4-0.6-0.6C481.3,446.8,481.2,446.5,481.2,446.3z"/>
	<path class="st23" d="M486.9,447.3l0.1,0.5c-0.1,0-0.2,0-0.5,0s-0.4,0-0.5-0.1s-0.2-0.1-0.2-0.2s-0.1-0.4-0.1-0.6v-2h-0.4v-0.5h0.4
		v-0.7l0.6-0.4v1.2h0.6v0.5h-0.6v2c0,0.1,0,0.2,0,0.4c0,0,0,0.1,0.1,0.1s0.1,0,0.2,0C486.6,447.3,486.8,447.3,486.9,447.3z"/>
	<path class="st23" d="M489.6,447.3c-0.2,0.1-0.4,0.2-0.6,0.4c-0.2,0.1-0.4,0.1-0.6,0.1c-0.4,0-0.6-0.1-0.9-0.2
		c-0.2-0.1-0.2-0.4-0.2-0.7c0-0.1,0-0.4,0.1-0.5s0.1-0.2,0.2-0.4c0.1-0.1,0.2-0.1,0.4-0.2c0.1,0,0.2,0,0.5-0.1c0.5,0,0.9-0.1,1-0.2
		c0-0.1,0-0.1,0-0.1c0-0.2,0-0.4-0.1-0.5s-0.4-0.2-0.6-0.2s-0.5,0-0.6,0.1s-0.2,0.2-0.2,0.5l-0.6-0.1c0-0.2,0.1-0.5,0.2-0.6
		s0.2-0.2,0.5-0.4c0.2-0.1,0.5-0.1,0.7-0.1s0.5,0,0.7,0.1c0.1,0.1,0.4,0.1,0.4,0.2c0.1,0.1,0.1,0.2,0.1,0.4c0,0.1,0,0.2,0,0.5v0.7
		c0,0.5,0,0.9,0,1s0.1,0.2,0.1,0.4h-0.6C489.7,447.6,489.6,447.5,489.6,447.3z M489.6,446c-0.2,0.1-0.5,0.1-1,0.2
		c-0.2,0-0.4,0.1-0.5,0.1s-0.1,0.1-0.2,0.2c0,0.1-0.1,0.1-0.1,0.2s0,0.2,0.1,0.4c0.1,0.1,0.2,0.1,0.5,0.1s0.4,0,0.6-0.1
		s0.2-0.2,0.4-0.4c0-0.1,0.1-0.4,0.1-0.6L489.6,446L489.6,446z"/>
	<path class="st23" d="M491,443.7v-0.6h0.6v0.6H491z M491,447.7v-3.3h0.6v3.3H491z"/>
	<path class="st23" d="M492.4,447.7v-3.3h0.5v0.5c0.1-0.2,0.2-0.4,0.4-0.5c0.1-0.1,0.2-0.1,0.4-0.1s0.4,0,0.6,0.1l-0.2,0.5
		c-0.1-0.1-0.2-0.1-0.4-0.1c-0.1,0-0.2,0-0.4,0.1c-0.1,0.1-0.1,0.1-0.2,0.4c-0.1,0.2-0.1,0.4-0.1,0.6v1.7L492.4,447.7L492.4,447.7z"
		/>
	<path class="st23" d="M494.3,446.8l0.6-0.1c0,0.2,0.1,0.4,0.2,0.5s0.4,0.1,0.6,0.1s0.5,0,0.6-0.1s0.2-0.2,0.2-0.4
		c0-0.1,0-0.2-0.1-0.2s-0.2-0.1-0.6-0.2s-0.7-0.2-0.9-0.2c-0.1-0.1-0.2-0.1-0.4-0.4c-0.1-0.1-0.1-0.2-0.1-0.5c0-0.1,0-0.2,0.1-0.4
		c0.1-0.1,0.1-0.2,0.2-0.4c0.1-0.1,0.2-0.1,0.4-0.1c0.1,0,0.4-0.1,0.5-0.1c0.2,0,0.5,0,0.7,0.1s0.4,0.1,0.5,0.4
		c0.1,0.1,0.1,0.2,0.2,0.5l-0.6,0.1c0-0.1-0.1-0.4-0.2-0.4s-0.2-0.1-0.5-0.1c-0.2,0-0.5,0-0.6,0.1s-0.1,0.2-0.1,0.2
		c0,0.1,0,0.1,0.1,0.2c0,0,0.1,0.1,0.2,0.1c0,0,0.2,0.1,0.5,0.1c0.4,0.1,0.7,0.2,0.9,0.2c0.1,0.1,0.2,0.1,0.4,0.2
		c0.1,0.1,0.1,0.2,0.1,0.5c0,0.2,0,0.4-0.1,0.5s-0.2,0.2-0.5,0.4c-0.2,0.1-0.5,0.1-0.7,0.1c-0.5,0-0.7-0.1-1-0.2
		C494.6,447.4,494.5,447.1,494.3,446.8z"/>
	<line class="st24" x1="482.5" y1="430.5" x2="493.2" y2="430.5"/>
	<polyline class="st24" points="491.4,430.5 491.4,428.6 489.5,428.6 489.5,426.7 487.6,426.7 487.6,424.9 485.8,424.9 485.8,423.1 
		482.5,423.1 	"/>
	<line class="st24" x1="488.1" y1="419.9" x2="493.9" y2="425.6"/>
	<polyline class="st24" points="488.1,422.1 488.1,419.9 490.4,419.9 	"/>
	<polyline class="st24" points="493.9,423.3 493.9,425.6 491.5,425.6 	"/>
	<circle class="st21" cx="556.8" cy="65.2" r="13.9"/>
	<path class="st23" d="M549.6,85.9h0.6c0,0.2,0.1,0.4,0.2,0.6c0.1,0.1,0.2,0.2,0.5,0.4c0.2,0.1,0.5,0.1,0.7,0.1s0.5,0,0.6-0.1
		s0.4-0.1,0.4-0.2c0.1-0.1,0.1-0.2,0.1-0.4c0-0.1,0-0.2-0.1-0.4c-0.1-0.1-0.2-0.2-0.4-0.2s-0.4-0.1-0.9-0.2
		c-0.4-0.1-0.7-0.2-0.9-0.2c-0.2-0.1-0.4-0.2-0.5-0.5c-0.1-0.2-0.1-0.4-0.1-0.6s0.1-0.5,0.2-0.6c0.1-0.1,0.4-0.4,0.6-0.5
		c0.2-0.1,0.5-0.1,0.9-0.1s0.6,0,0.9,0.1c0.2,0.1,0.5,0.2,0.6,0.5c0.1,0.2,0.2,0.5,0.2,0.7h-0.6c0-0.2-0.1-0.5-0.4-0.6
		c-0.1-0.1-0.5-0.2-0.9-0.2s-0.6,0.1-0.9,0.2c-0.1,0.1-0.2,0.2-0.2,0.5c0,0.1,0,0.2,0.1,0.4c0.1,0.1,0.4,0.2,1,0.4
		c0.5,0.1,0.9,0.2,1,0.2c0.2,0.1,0.5,0.2,0.6,0.5c0.1,0.2,0.2,0.4,0.2,0.6s-0.1,0.5-0.2,0.7c-0.1,0.2-0.4,0.4-0.6,0.5
		c-0.2,0.1-0.6,0.1-0.9,0.1c-0.4,0-0.7,0-1.1-0.1c-0.2-0.1-0.5-0.4-0.6-0.6C549.7,86.4,549.6,86.1,549.6,85.9z"/>
	<path class="st23" d="M555.3,86.9l0.1,0.5c-0.1,0-0.2,0-0.5,0s-0.4,0-0.5-0.1s-0.2-0.1-0.2-0.2s-0.1-0.4-0.1-0.6v-2h-0.4V84h0.4
		v-0.7l0.6-0.4v1.2h0.6v0.5h-0.6v2c0,0.1,0,0.2,0,0.4c0,0,0,0.1,0.1,0.1s0.1,0,0.2,0C555,86.9,555.2,86.9,555.3,86.9z"/>
	<path class="st23" d="M558,86.9c-0.2,0.1-0.4,0.2-0.6,0.4c-0.2,0.1-0.4,0.1-0.6,0.1c-0.4,0-0.6-0.1-0.9-0.2
		c-0.2-0.1-0.2-0.4-0.2-0.7c0-0.1,0-0.4,0.1-0.5s0.1-0.2,0.2-0.4c0.1-0.1,0.2-0.1,0.4-0.2c0.1,0,0.2,0,0.5-0.1c0.5,0,0.9-0.1,1-0.2
		c0-0.1,0-0.1,0-0.1c0-0.2,0-0.4-0.1-0.5s-0.4-0.2-0.6-0.2c-0.2,0-0.5,0-0.6,0.1s-0.2,0.2-0.2,0.5l-0.6-0.1c0-0.2,0.1-0.5,0.2-0.6
		s0.2-0.2,0.5-0.4c0.2-0.1,0.5-0.1,0.7-0.1s0.5,0,0.7,0.1c0.1,0.1,0.4,0.1,0.4,0.2c0.1,0.1,0.1,0.2,0.1,0.4c0,0.1,0,0.2,0,0.5v0.7
		c0,0.5,0,0.9,0,1s0.1,0.2,0.1,0.4h-0.6C558.1,87.2,558,87.1,558,86.9z M558,85.6c-0.2,0.1-0.5,0.1-1,0.2c-0.2,0-0.4,0.1-0.5,0.1
		s-0.1,0.1-0.2,0.2c0,0.1-0.1,0.1-0.1,0.2s0,0.2,0.1,0.4c0.1,0.1,0.2,0.1,0.5,0.1s0.4,0,0.6-0.1c0.2-0.1,0.2-0.2,0.4-0.4
		c0-0.1,0.1-0.4,0.1-0.6L558,85.6L558,85.6z"/>
	<path class="st23" d="M559.4,83.3v-0.6h0.6v0.6H559.4z M559.4,87.3V84h0.6v3.3H559.4z"/>
	<path class="st23" d="M560.8,87.3V84h0.5v0.5c0.1-0.2,0.2-0.4,0.4-0.5c0.1-0.1,0.2-0.1,0.4-0.1s0.4,0,0.6,0.1l-0.2,0.5
		c-0.1-0.1-0.2-0.1-0.4-0.1c-0.1,0-0.2,0-0.4,0.1c-0.1,0.1-0.1,0.1-0.2,0.4c-0.1,0.2-0.1,0.4-0.1,0.6v1.7L560.8,87.3L560.8,87.3z"/>
	<path class="st23" d="M562.7,86.4l0.6-0.1c0,0.2,0.1,0.4,0.2,0.5c0.1,0.1,0.4,0.1,0.6,0.1c0.2,0,0.5,0,0.6-0.1s0.2-0.2,0.2-0.4
		c0-0.1,0-0.2-0.1-0.2s-0.2-0.1-0.6-0.2c-0.4-0.1-0.7-0.2-0.9-0.2c-0.1-0.1-0.2-0.1-0.4-0.4c-0.1-0.1-0.1-0.2-0.1-0.5
		c0-0.1,0-0.2,0.1-0.4c0.1-0.1,0.1-0.2,0.2-0.4c0.1-0.1,0.2-0.1,0.4-0.1c0.1,0,0.4-0.1,0.5-0.1c0.2,0,0.5,0,0.7,0.1s0.4,0.1,0.5,0.4
		c0.1,0.1,0.1,0.2,0.2,0.5l-0.6,0.1c0-0.1-0.1-0.4-0.2-0.4s-0.2-0.1-0.5-0.1c-0.2,0-0.5,0-0.6,0.1s-0.1,0.2-0.1,0.2
		c0,0.1,0,0.1,0.1,0.2c0,0,0.1,0.1,0.2,0.1c0,0,0.2,0.1,0.5,0.1c0.4,0.1,0.7,0.2,0.9,0.2c0.1,0.1,0.2,0.1,0.4,0.2
		c0.1,0.1,0.1,0.2,0.1,0.5c0,0.2,0,0.4-0.1,0.5s-0.2,0.2-0.5,0.4c-0.2,0.1-0.5,0.1-0.7,0.1c-0.5,0-0.7-0.1-1-0.2
		C563,87,562.9,86.7,562.7,86.4z"/>
	<line class="st24" x1="550.9" y1="70.1" x2="561.6" y2="70.1"/>
	<polyline class="st24" points="559.8,70.1 559.8,68.2 557.9,68.2 557.9,66.3 556,66.3 556,64.5 554.2,64.5 554.2,62.7 550.9,62.7 	
		"/>
	<line class="st24" x1="556.5" y1="59.5" x2="562.3" y2="65.2"/>
	<polyline class="st24" points="556.5,61.7 556.5,59.5 558.8,59.5 	"/>
	<polyline class="st24" points="562.3,62.9 562.3,65.2 559.9,65.2 	"/>
	<circle class="st19" cx="302.8" cy="64.6" r="16"/>
	<path class="st25" d="M298.3,70.8v-9.7h3.3v9.7H298.3z M301.8,70.8v-9.7h3.3v9.7H301.8z M309.2,70.8h-3.7V61c0-0.1-0.1-0.2-0.2-0.2
		h-6.9c-0.1,0-0.2,0.1-0.2,0.2l0,0v9.9h-1.8V58.1h12.7L309.2,70.8z M309.2,58h-13c-0.1,0-0.2,0.1-0.2,0.2l0,0v13
		c0,0.1,0.1,0.2,0.2,0.2h13c0.1,0,0.2-0.1,0.2-0.2l0,0v-13C309.4,58,309.3,58,309.2,58L309.2,58z"/>
	<path class="st25" d="M300.8,59.6h2c0.1,0,0.2,0,0.2-0.1s0-0.2-0.1-0.2h-2.1c-0.1,0-0.2,0-0.2,0.2
		C300.6,59.5,300.6,59.6,300.8,59.6z"/>
	<path class="st26" d="M306.8,64.3l0.4-0.4l0.4,0.4c0.1,0.1,0.2,0,0.2-0.1l0,0V64l-0.5-0.5c-0.1-0.1-0.1-0.1-0.2,0l0,0l-0.5,0.5
		C306.6,64.2,306.7,64.2,306.8,64.3L306.8,64.3C306.7,64.3,306.8,64.3,306.8,64.3L306.8,64.3L306.8,64.3z"/>
	<path class="st26" d="M307.2,65.8L307.2,65.8c0.2,0.1,0.2,0.1,0.2,0l0.5-0.5c0.1,0,0.1-0.2,0.1-0.2l0,0c0-0.1-0.1-0.1-0.2-0.1l0,0
		l-0.1,0.1l-0.4,0.4l-0.4-0.4c-0.1-0.1-0.1-0.1-0.2-0.1s-0.1,0.2-0.1,0.2l0.1,0.1L307.2,65.8z"/>
	<g class="st6">
		<path class="st27" d="M298.2,89.6v-5.4h0.7V89h2.6v0.6H298.2z"/>
		<path class="st27" d="M302.4,84.9v-0.8h0.6v0.8H302.4z M302.4,89.6v-3.9h0.6v3.9H302.4z"/>
		<path class="st27" d="M304.2,89.6v-3.4h-0.6v-0.5h0.6v-0.5c0-0.2,0-0.5,0.1-0.6c0.1-0.2,0.2-0.3,0.3-0.4c0.2-0.1,0.4-0.2,0.6-0.2
			s0.4,0,0.6,0.1l-0.1,0.6c-0.2,0-0.2,0-0.4,0c-0.2,0-0.3,0.1-0.4,0.2s-0.2,0.2-0.2,0.5v0.4h0.8v0.5h-0.8v3.4L304.2,89.6L304.2,89.6
			z"/>
		<path class="st27" d="M307.6,88.9l0.1,0.6c-0.2,0-0.3,0.1-0.5,0.1s-0.4,0-0.6-0.1s-0.2-0.2-0.3-0.3c-0.1-0.2-0.1-0.4-0.1-0.8v-2.2
			h-0.5v-0.5h0.5v-1l0.6-0.4v1.4h0.6v0.5h-0.6v2.3c0,0.2,0,0.3,0,0.4s0.1,0.1,0.1,0.2s0.2,0.1,0.2,0.1
			C307.4,88.9,307.4,88.9,307.6,88.9z"/>
	</g>
	<circle class="st19" cx="686.6" cy="361.1" r="11.4"/>
	<rect x="654.7" y="373.8" class="st5" width="63.6" height="14.3"/>
	<g class="st6">
		<path class="st7" d="M678.9,376h0.4c0,0.2,0.1,0.3,0.1,0.4c0.1,0.1,0.2,0.2,0.3,0.3c0.2,0.1,0.3,0.1,0.5,0.1s0.3,0,0.4-0.1
			c0.1,0,0.2-0.1,0.3-0.2s0.1-0.2,0.1-0.3c0-0.1,0-0.2-0.1-0.3c-0.1-0.1-0.2-0.1-0.3-0.2c-0.1,0-0.3-0.1-0.6-0.2s-0.5-0.1-0.6-0.2
			c-0.2-0.1-0.3-0.2-0.4-0.3c-0.1-0.1-0.1-0.3-0.1-0.4c0-0.2,0-0.3,0.1-0.5c0.1-0.1,0.2-0.3,0.4-0.3c0.2-0.1,0.4-0.1,0.6-0.1
			c0.2,0,0.5,0,0.6,0.1c0.2,0.1,0.3,0.2,0.4,0.3c0.1,0.2,0.2,0.3,0.2,0.5h-0.4c0-0.2-0.1-0.4-0.2-0.5c-0.1-0.1-0.3-0.2-0.6-0.2
			s-0.5,0-0.6,0.1s-0.2,0.2-0.2,0.4c0,0.1,0,0.2,0.1,0.3c0.1,0.1,0.3,0.2,0.7,0.2c0.4,0.1,0.6,0.2,0.7,0.2c0.2,0.1,0.3,0.2,0.4,0.3
			c0.1,0.1,0.1,0.3,0.1,0.5s0,0.3-0.2,0.5c-0.1,0.2-0.2,0.3-0.4,0.4s-0.4,0.1-0.6,0.1c-0.3,0-0.5,0-0.8-0.1
			c-0.2-0.1-0.4-0.2-0.5-0.4C679,376.4,678.9,376.2,678.9,376z"/>
		<path class="st7" d="M682.1,377.1v-3.3h0.4v1.2c0.2-0.2,0.4-0.3,0.7-0.3c0.2,0,0.3,0,0.5,0.1c0.1,0.1,0.2,0.2,0.3,0.3
			c0.1,0.1,0.1,0.3,0.1,0.5v1.5h-0.4v-1.5c0-0.2,0-0.4-0.1-0.4c-0.1-0.1-0.2-0.1-0.4-0.1c-0.1,0-0.2,0-0.3,0.1s-0.2,0.1-0.2,0.3
			c0,0.1-0.1,0.3-0.1,0.4v1.3h-0.5V377.1z"/>
		<path class="st7" d="M684.5,375.9c0-0.4,0.1-0.8,0.4-1c0.2-0.2,0.5-0.3,0.8-0.3s0.6,0.1,0.8,0.3c0.2,0.2,0.3,0.5,0.3,0.9
			c0,0.3,0,0.6-0.1,0.7c-0.1,0.2-0.2,0.3-0.4,0.4s-0.4,0.1-0.6,0.1c-0.3,0-0.6-0.1-0.8-0.3C684.6,376.6,684.5,376.3,684.5,375.9z
			 M684.9,375.9c0,0.3,0.1,0.5,0.2,0.7c0.1,0.2,0.3,0.2,0.5,0.2s0.4-0.1,0.5-0.2c0.1-0.2,0.2-0.4,0.2-0.7c0-0.3-0.1-0.5-0.2-0.7
			c-0.1-0.2-0.3-0.2-0.5-0.2s-0.4,0.1-0.5,0.2C685,375.3,684.9,375.6,684.9,375.9z"/>
		<path class="st7" d="M687.7,377.1l-0.7-2.4h0.4l0.4,1.4l0.1,0.5c0,0,0-0.2,0.1-0.5l0.4-1.4h0.4l0.4,1.4l0.1,0.5l0.1-0.5l0.4-1.4
			h0.4l-0.7,2.4h-0.4l-0.4-1.4l-0.1-0.4l-0.5,1.8H687.7z"/>
		<path class="st7" d="M692.2,376.3l0.4,0.1c-0.1,0.2-0.2,0.4-0.4,0.6c-0.2,0.1-0.4,0.2-0.7,0.2c-0.4,0-0.6-0.1-0.8-0.3
			s-0.3-0.5-0.3-0.9s0.1-0.7,0.3-0.9c0.2-0.2,0.5-0.3,0.8-0.3s0.6,0.1,0.8,0.3c0.2,0.2,0.3,0.5,0.3,0.9v0.1h-1.8
			c0,0.3,0.1,0.5,0.2,0.6c0.1,0.1,0.3,0.2,0.5,0.2c0.1,0,0.3,0,0.4-0.1C692.1,376.6,692.1,376.5,692.2,376.3z M690.9,375.6h1.3
			c0-0.2-0.1-0.4-0.2-0.5c-0.1-0.2-0.3-0.2-0.5-0.2s-0.3,0.1-0.5,0.2C691,375.3,690.9,375.4,690.9,375.6z"/>
		<path class="st7" d="M693.1,377.1v-2.4h0.4v0.4c0.1-0.2,0.2-0.3,0.3-0.3c0.1-0.1,0.2-0.1,0.3-0.1s0.3,0,0.4,0.1l-0.1,0.4
			c-0.1-0.1-0.2-0.1-0.3-0.1s-0.2,0-0.2,0.1c-0.1,0.1-0.1,0.1-0.2,0.2c0,0.1-0.1,0.3-0.1,0.5v1.3h-0.5L693.1,377.1L693.1,377.1z"/>
	</g>
	<g id="Outline_Icons-2_1_">
		<line class="st28" x1="686.5" y1="361.8" x2="686.5" y2="362.7"/>
		<line class="st28" x1="686.5" y1="363.6" x2="686.5" y2="364.4"/>
		<line class="st28" x1="686.5" y1="365.5" x2="686.5" y2="366.1"/>
		<line class="st28" x1="688.4" y1="361.8" x2="688.9" y2="362.5"/>
		<line class="st28" x1="689.3" y1="363.5" x2="689.6" y2="364.2"/>
		<line class="st28" x1="690" y1="365" x2="690.3" y2="365.7"/>
		<line class="st28" x1="684.4" y1="361.8" x2="684.2" y2="362.5"/>
		<line class="st28" x1="683.8" y1="363.5" x2="683.6" y2="364.2"/>
		<line class="st28" x1="683.1" y1="365" x2="682.7" y2="365.7"/>
		<line class="st28" x1="687.5" y1="361.8" x2="687.5" y2="362.7"/>
		<line class="st28" x1="687.8" y1="363.6" x2="688" y2="364.4"/>
		<line class="st28" x1="688.2" y1="365.3" x2="688.3" y2="366.1"/>
		<line class="st28" x1="685.6" y1="361.8" x2="685.5" y2="362.7"/>
		<line class="st28" x1="685.3" y1="363.6" x2="685" y2="364.4"/>
		<line class="st28" x1="684.9" y1="365.3" x2="684.8" y2="366.1"/>
		<path class="st28" d="M691.1,360.4h-9l0.5-0.6c1.8-2.3,5.1-2.6,7.3-0.8l0.8,0.8L691.1,360.4z"/>
		<polyline class="st28" points="685.6,357.9 686.1,357 687,357 687.5,357.9 		"/>
		<line class="st28" x1="686.5" y1="357" x2="686.5" y2="355.9"/>
	</g>
	<circle class="st19" cx="686.9" cy="329.1" r="10.7"/>
	<rect x="656.9" y="341.1" class="st5" width="59.9" height="13.4"/>
	<g class="st6">
		<path class="st7" d="M679.7,343.2h0.4c0,0.2,0.1,0.3,0.1,0.4c0.1,0.1,0.2,0.2,0.3,0.2c0.1,0.1,0.3,0.1,0.5,0.1s0.3,0,0.4-0.1
			c0.1,0,0.2-0.1,0.3-0.2s0.1-0.2,0.1-0.3c0-0.1,0-0.2-0.1-0.3c-0.1-0.1-0.1-0.1-0.3-0.2c-0.1,0-0.3-0.1-0.6-0.2s-0.5-0.1-0.6-0.2
			s-0.3-0.2-0.3-0.3c-0.1-0.1-0.1-0.2-0.1-0.4c0-0.2,0-0.3,0.1-0.4s0.2-0.2,0.4-0.3c0.2-0.1,0.4-0.1,0.6-0.1c0.2,0,0.4,0,0.6,0.1
			c0.2,0.1,0.3,0.2,0.4,0.3c0.1,0.1,0.1,0.3,0.2,0.5h-0.4c0-0.2-0.1-0.3-0.2-0.4c-0.1-0.1-0.3-0.2-0.5-0.2s-0.4,0-0.5,0.1
			s-0.2,0.2-0.2,0.3c0,0.1,0,0.2,0.1,0.3c0.1,0.1,0.3,0.1,0.6,0.2s0.6,0.1,0.7,0.2c0.2,0.1,0.3,0.2,0.4,0.3c0.1,0.1,0.1,0.3,0.1,0.4
			c0,0.2,0,0.3-0.1,0.5c-0.1,0.1-0.2,0.3-0.4,0.3c-0.2,0.1-0.4,0.1-0.6,0.1c-0.3,0-0.5,0-0.7-0.1s-0.3-0.2-0.4-0.4
			C679.7,343.5,679.7,343.4,679.7,343.2z"/>
		<path class="st7" d="M682.7,344.2V341h0.4v1.1c0.2-0.2,0.4-0.3,0.7-0.3c0.2,0,0.3,0,0.4,0.1c0.1,0.1,0.2,0.2,0.3,0.3
			c0.1,0.1,0.1,0.3,0.1,0.5v1.4h-0.4v-1.4c0-0.2,0-0.3-0.1-0.4s-0.2-0.1-0.4-0.1c-0.1,0-0.2,0-0.3,0.1s-0.2,0.1-0.2,0.2
			s-0.1,0.2-0.1,0.4v1.2L682.7,344.2L682.7,344.2z"/>
		<path class="st7" d="M684.9,343c0-0.4,0.1-0.7,0.3-0.9c0.2-0.2,0.4-0.3,0.7-0.3s0.6,0.1,0.8,0.3c0.2,0.2,0.3,0.5,0.3,0.8
			s0,0.5-0.1,0.7s-0.2,0.3-0.4,0.4s-0.3,0.1-0.5,0.1c-0.3,0-0.6-0.1-0.8-0.3C685,343.7,684.9,343.4,684.9,343z M685.3,343
			c0,0.3,0.1,0.5,0.2,0.6c0.1,0.1,0.3,0.2,0.5,0.2s0.3-0.1,0.5-0.2c0.1-0.1,0.2-0.4,0.2-0.7c0-0.3-0.1-0.5-0.2-0.6
			c-0.1-0.1-0.3-0.2-0.5-0.2s-0.3,0.1-0.5,0.2C685.4,342.5,685.3,342.7,685.3,343z"/>
		<path class="st7" d="M687.9,344.2l-0.7-2.3h0.4l0.4,1.3l0.1,0.5c0,0,0-0.2,0.1-0.5l0.4-1.3h0.4l0.3,1.3l0.1,0.4l0.1-0.4l0.4-1.3
			h0.4l-0.7,2.3h-0.4l-0.4-1.3l-0.1-0.4l-0.5,1.7L687.9,344.2L687.9,344.2z"/>
		<path class="st7" d="M692.2,343.4h0.4c-0.1,0.2-0.2,0.4-0.3,0.5c-0.2,0.1-0.4,0.2-0.6,0.2c-0.3,0-0.6-0.1-0.8-0.3
			c-0.2-0.2-0.3-0.5-0.3-0.9s0.1-0.7,0.3-0.9c0.2-0.2,0.4-0.3,0.8-0.3c0.3,0,0.5,0.1,0.7,0.3c0.2,0.2,0.3,0.5,0.3,0.9v0.1H691
			c0,0.2,0.1,0.4,0.2,0.6c0.1,0.1,0.3,0.2,0.5,0.2c0.1,0,0.3,0,0.4-0.1C692,343.7,692.1,343.6,692.2,343.4z M690.9,342.8h1.3
			c0-0.2-0.1-0.3-0.1-0.4c-0.1-0.1-0.3-0.2-0.5-0.2s-0.3,0.1-0.4,0.2C691,342.5,690.9,342.6,690.9,342.8z"/>
		<path class="st7" d="M693,344.2v-2.3h0.3v0.3c0.1-0.2,0.2-0.3,0.2-0.3c0.1-0.1,0.2-0.1,0.2-0.1c0.1,0,0.3,0,0.4,0.1l-0.1,0.4
			c-0.1-0.1-0.2-0.1-0.3-0.1s-0.2,0-0.2,0.1c-0.1,0.1-0.1,0.1-0.1,0.2s-0.1,0.3-0.1,0.4v1.2L693,344.2L693,344.2z"/>
	</g>
	<g id="Outline_Icons-2_2_">
		<line class="st28" x1="686.8" y1="329.8" x2="686.8" y2="330.7"/>
		<line class="st28" x1="686.8" y1="331.5" x2="686.8" y2="332.2"/>
		<line class="st28" x1="686.8" y1="333.3" x2="686.8" y2="333.9"/>
		<line class="st28" x1="688.6" y1="329.8" x2="689.1" y2="330.4"/>
		<line class="st28" x1="689.5" y1="331.4" x2="689.7" y2="332"/>
		<line class="st28" x1="690.1" y1="332.8" x2="690.4" y2="333.5"/>
		<line class="st28" x1="684.9" y1="329.8" x2="684.6" y2="330.4"/>
		<line class="st28" x1="684.3" y1="331.4" x2="684" y2="332"/>
		<line class="st28" x1="683.6" y1="332.8" x2="683.2" y2="333.5"/>
		<line class="st28" x1="687.7" y1="329.8" x2="687.8" y2="330.7"/>
		<line class="st28" x1="688" y1="331.5" x2="688.2" y2="332.2"/>
		<line class="st28" x1="688.4" y1="333.1" x2="688.5" y2="333.8"/>
		<line class="st28" x1="685.9" y1="329.8" x2="685.9" y2="330.7"/>
		<line class="st28" x1="685.6" y1="331.5" x2="685.4" y2="332.2"/>
		<line class="st28" x1="685.3" y1="333.1" x2="685.2" y2="333.8"/>
		<path class="st28" d="M691.1,328.5h-8.5l0.5-0.5c1.7-2.1,4.8-2.4,6.9-0.8l0.8,0.8L691.1,328.5z"/>
		<polyline class="st28" points="685.9,326.2 686.4,325.3 687.2,325.3 687.8,326.2 		"/>
		<line class="st28" x1="686.8" y1="325.3" x2="686.8" y2="324.3"/>
	</g>
	<g>
		<path class="st23" d="M675.1,410.7v-3.6h1.6c0.3,0,0.5,0,0.7,0.1c0.1,0.1,0.3,0.2,0.4,0.3c0.1,0.1,0.1,0.3,0.1,0.5
			c0,0.3-0.1,0.5-0.3,0.7s-0.5,0.3-0.7,0.3c0.1,0.1,0.2,0.1,0.3,0.2s0.3,0.3,0.4,0.5l0.6,1h-0.6l-0.5-0.7c-0.1-0.2-0.3-0.4-0.3-0.5
			s-0.1-0.2-0.3-0.3c-0.1-0.1-0.1-0.1-0.2-0.1c-0.1,0-0.2,0-0.3,0h-0.5v1.6H675.1z M675.6,408.7h1c0.2,0,0.3,0,0.5-0.1
			c0.1-0.1,0.2-0.1,0.3-0.2s0.1-0.2,0.1-0.3c0-0.1-0.1-0.3-0.2-0.4c-0.1-0.1-0.4-0.2-0.6-0.1h-1.2L675.6,408.7L675.6,408.7z"/>
		<path class="st23" d="M680.5,409.9l0.5,0.1c-0.1,0.3-0.2,0.5-0.4,0.6s-0.5,0.2-0.7,0.2c-0.3,0-0.7-0.1-0.9-0.3
			c-0.2-0.3-0.3-0.6-0.3-1c0-0.3,0.1-0.7,0.3-1s0.5-0.4,0.9-0.3c0.3,0,0.6,0.1,0.9,0.3c0.2,0.3,0.3,0.6,0.3,1v0.1h-2
			c0,0.3,0.1,0.5,0.3,0.7c0.1,0.1,0.3,0.2,0.5,0.2c0.1,0,0.3-0.1,0.4-0.1C680.3,410.2,680.4,410,680.5,409.9z M679,409.2h1.4
			c0-0.2-0.1-0.3-0.1-0.5c-0.1-0.1-0.3-0.3-0.5-0.3s-0.4,0.1-0.5,0.2C679.1,408.7,679,408.9,679,409.2L679,409.2z"/>
		<path class="st23" d="M681.3,410l0.4-0.1c0,0.1,0.1,0.3,0.2,0.4c0.1,0.1,0.3,0.1,0.5,0.1c0.1,0,0.3,0,0.5-0.1
			c0.1-0.1,0.1-0.2,0.1-0.3c0-0.1-0.1-0.2-0.1-0.2c-0.1-0.1-0.3-0.1-0.5-0.1c-0.2-0.1-0.5-0.1-0.7-0.2s-0.4-0.3-0.4-0.6
			c0-0.1,0-0.2,0.1-0.3c0.1-0.1,0.1-0.2,0.2-0.3c0.1-0.1,0.2-0.1,0.3-0.1c0.1-0.1,0.3-0.1,0.4-0.1c0.2,0,0.3,0,0.5,0.1
			c0.1,0.1,0.3,0.1,0.3,0.3c0.1,0.1,0.1,0.3,0.1,0.4l-0.4,0.1c0-0.1-0.1-0.2-0.2-0.3c-0.1-0.1-0.3-0.1-0.4-0.1s-0.3,0-0.4,0.1
			c-0.1,0.1-0.1,0.1-0.1,0.2s0,0.1,0.1,0.1c0.1,0.1,0.1,0.1,0.1,0.1c0.1,0,0.2,0.1,0.4,0.1c0.2,0.1,0.4,0.1,0.7,0.2
			c0.1,0.1,0.2,0.1,0.3,0.2s0.1,0.3,0.1,0.4s-0.1,0.3-0.1,0.4c-0.1,0.1-0.2,0.3-0.3,0.3c-0.2,0.1-0.3,0.1-0.5,0.1
			c-0.3,0-0.5-0.1-0.7-0.2C681.4,410.4,681.3,410.2,681.3,410z"/>
		<path class="st23" d="M685,410.3l0.1,0.4c-0.1,0-0.2,0.1-0.3,0.1s-0.3,0-0.3-0.1s-0.1-0.1-0.2-0.2c-0.1-0.1-0.1-0.3-0.1-0.5v-1.5
			h-0.3v-0.3h0.3v-0.7l0.4-0.3v0.9h0.5v0.3h-0.5v1.5c0,0.1,0,0.1,0,0.3c0,0.1,0.1,0.1,0.1,0.1c0.1,0,0.1,0.1,0.1,0
			C684.8,410.4,684.9,410.4,685,410.3z"/>
		<path class="st23" d="M685.4,410.7v-2.6h0.4v0.4c0.1-0.1,0.1-0.3,0.3-0.3c0.1-0.1,0.2-0.1,0.3-0.1s0.3,0.1,0.5,0.1l-0.1,0.4
			c-0.1-0.1-0.2-0.1-0.3-0.1s-0.2,0-0.3,0.1s-0.1,0.1-0.1,0.3c-0.1,0.1-0.1,0.3-0.1,0.5v1.4L685.4,410.7z"/>
		<path class="st23" d="M686.9,409.4c0-0.4,0.1-0.8,0.4-1.1c0.2-0.2,0.5-0.3,0.8-0.3s0.7,0.1,0.9,0.3c0.3,0.3,0.3,0.6,0.3,1
			c0,0.3-0.1,0.5-0.1,0.8c-0.1,0.2-0.3,0.3-0.4,0.5c-0.2,0.1-0.4,0.1-0.6,0.1c-0.3,0-0.7-0.1-0.9-0.3
			C687,410.2,686.9,409.8,686.9,409.4z M687.3,409.4c0,0.3,0.1,0.5,0.2,0.7c0.3,0.3,0.7,0.3,1,0.1l0.1-0.1c0.1-0.2,0.3-0.5,0.2-0.7
			c0-0.3-0.1-0.5-0.2-0.7c-0.3-0.3-0.7-0.3-1-0.1l-0.1,0.1C687.4,408.9,687.3,409.2,687.3,409.4z"/>
		<path class="st23" d="M689.7,409.4c0-0.4,0.1-0.8,0.4-1.1c0.2-0.2,0.5-0.3,0.8-0.3s0.7,0.1,0.9,0.3c0.3,0.3,0.3,0.6,0.3,1
			c0,0.3-0.1,0.5-0.1,0.8c-0.1,0.2-0.3,0.3-0.4,0.5c-0.2,0.1-0.4,0.1-0.6,0.1c-0.3,0-0.7-0.1-0.9-0.3
			C689.8,410.2,689.7,409.8,689.7,409.4z M690.2,409.4c0,0.3,0.1,0.5,0.2,0.7c0.3,0.3,0.7,0.3,1,0.1l0.1-0.1
			c0.1-0.2,0.3-0.5,0.2-0.7c0-0.3-0.1-0.5-0.2-0.7c-0.3-0.3-0.7-0.3-1-0.1l-0.1,0.1C690.2,408.9,690.1,409.2,690.2,409.4z"/>
		<path class="st23" d="M692.7,410.7v-2.6h0.4v0.3c0.2-0.3,0.5-0.4,0.8-0.4c0.1,0,0.3,0.1,0.5,0.1c0.1,0.1,0.2,0.2,0.3,0.3
			c0.1-0.3,0.5-0.5,0.8-0.5c0.2,0,0.4,0.1,0.6,0.2c0.1,0.2,0.2,0.4,0.2,0.7v1.8h-0.4V409c0-0.1,0-0.3-0.1-0.4c0-0.1-0.1-0.1-0.1-0.2
			s-0.2-0.1-0.3-0.1c-0.2,0-0.3,0.1-0.5,0.2c-0.1,0.1-0.2,0.4-0.2,0.6v1.5h-0.4V409c0-0.1,0-0.3-0.1-0.5c-0.1-0.1-0.2-0.1-0.3-0.1
			s-0.3,0-0.3,0.1c-0.1,0.1-0.2,0.1-0.2,0.3c-0.1,0.2-0.1,0.3-0.1,0.5v1.4L692.7,410.7z"/>
	</g>
	<circle class="st21" cx="685.6" cy="394" r="10.8"/>
	<g id="Outline_Icons-5-2-2">
		<path class="st29" d="M689.6,394.2c0,0.2-0.1,0.4-0.4,0.5h-2v-4.4c0-0.4,0.3-0.7,0.7-0.8h0.8c0.4,0,0.7,0.3,0.8,0.7v0.1
			L689.6,394.2z"/>
		<path class="st29" d="M683.9,398.7h4.1v-2.4l1.2-0.8v-0.8h-6.8c-0.1,1,0.7,1.9,1.7,2h0.2L683.9,398.7z"/>
		<rect x="681.8" y="393.8" class="st29" width="5.2" height="0.8"/>
		<circle class="st29" cx="688.5" cy="390.8" r="0.5"/>
	</g>
	<g>
		<path class="st23" d="M646.5,209.7h-2.1v1.9h2.3v0.6h-3v-5.4h2.9v0.6h-2.2v1.7h2.1V209.7z"/>
		<path class="st23" d="M647.7,209.4c0-0.4,0-0.7,0-1h0.6l0,0.6h0c0.2-0.4,0.6-0.7,1.3-0.7c0.5,0,1.4,0.3,1.4,1.6v2.3h-0.7V210
			c0-0.6-0.2-1.1-0.9-1.1c-0.5,0-0.8,0.3-0.9,0.7c0,0.1,0,0.2,0,0.3v2.3h-0.7V209.4z"/>
		<path class="st23" d="M655.4,208.4c0,0.3,0,0.6,0,1.1v2.2c0,0.9-0.2,1.4-0.6,1.8c-0.4,0.4-0.9,0.5-1.4,0.5c-0.5,0-1-0.1-1.3-0.3
			l0.2-0.5c0.3,0.2,0.7,0.3,1.1,0.3c0.7,0,1.2-0.4,1.2-1.4v-0.4h0c-0.2,0.4-0.6,0.6-1.2,0.6c-1,0-1.6-0.8-1.6-1.9
			c0-1.3,0.9-2.1,1.7-2.1c0.7,0,1,0.4,1.2,0.7h0l0-0.6H655.4z M654.7,209.9c0-0.1,0-0.2,0-0.3c-0.1-0.4-0.5-0.7-1-0.7
			c-0.7,0-1.2,0.6-1.2,1.5c0,0.8,0.4,1.4,1.1,1.4c0.4,0,0.8-0.3,1-0.7c0-0.1,0.1-0.3,0.1-0.4V209.9z"/>
		<path class="st23" d="M657.3,207.3c0,0.2-0.2,0.4-0.4,0.4c-0.2,0-0.4-0.2-0.4-0.4c0-0.2,0.2-0.4,0.4-0.4
			C657.1,206.8,657.3,207,657.3,207.3z M656.5,212.2v-3.9h0.7v3.9H656.5z"/>
		<path class="st23" d="M658.4,209.4c0-0.4,0-0.7,0-1h0.6l0,0.6h0c0.2-0.4,0.6-0.7,1.3-0.7c0.5,0,1.4,0.3,1.4,1.6v2.3H661V210
			c0-0.6-0.2-1.1-0.9-1.1c-0.5,0-0.8,0.3-0.9,0.7c0,0.1,0,0.2,0,0.3v2.3h-0.7V209.4z"/>
		<path class="st23" d="M663.2,210.4c0,1,0.6,1.3,1.3,1.3c0.5,0,0.8-0.1,1.1-0.2l0.1,0.5c-0.2,0.1-0.7,0.2-1.3,0.2
			c-1.2,0-1.9-0.8-1.9-2c0-1.2,0.7-2.1,1.8-2.1c1.3,0,1.6,1.1,1.6,1.8c0,0.1,0,0.3,0,0.3H663.2z M665.3,209.9c0-0.4-0.2-1.1-1-1.1
			c-0.7,0-1,0.7-1.1,1.1H665.3z"/>
		<path class="st23" d="M645.4,216.5c0.4-0.1,0.9-0.1,1.3-0.1c0.7,0,1.2,0.1,1.6,0.4c0.3,0.2,0.4,0.6,0.4,1c0,0.7-0.4,1.2-1,1.4v0
			c0.4,0.1,0.7,0.5,0.8,1.1c0.2,0.8,0.3,1.3,0.4,1.5h-0.7c-0.1-0.2-0.2-0.6-0.4-1.3c-0.2-0.7-0.4-1-1.1-1h-0.7v2.3h-0.7V216.5z
			 M646.1,219h0.7c0.7,0,1.2-0.4,1.2-1c0-0.7-0.5-1-1.2-1c-0.3,0-0.6,0-0.7,0.1V219z"/>
		<path class="st23" d="M653.2,219.9c0,1.4-1,2.1-1.9,2.1c-1,0-1.9-0.8-1.9-2c0-1.3,0.8-2.1,1.9-2.1
			C652.5,217.9,653.2,218.7,653.2,219.9z M650.2,219.9c0,0.8,0.5,1.5,1.2,1.5c0.7,0,1.2-0.6,1.2-1.5c0-0.7-0.3-1.5-1.2-1.5
			C650.5,218.4,650.2,219.2,650.2,219.9z"/>
		<path class="st23" d="M657.6,219.9c0,1.4-1,2.1-1.9,2.1c-1,0-1.9-0.8-1.9-2c0-1.3,0.8-2.1,1.9-2.1
			C656.9,217.9,657.6,218.7,657.6,219.9z M654.5,219.9c0,0.8,0.5,1.5,1.2,1.5c0.7,0,1.2-0.6,1.2-1.5c0-0.7-0.3-1.5-1.2-1.5
			C654.9,218.4,654.5,219.2,654.5,219.9z"/>
		<path class="st23" d="M658.5,219c0-0.4,0-0.7,0-1h0.6l0,0.6h0c0.2-0.4,0.6-0.7,1.2-0.7c0.5,0,0.9,0.3,1.1,0.8h0
			c0.1-0.2,0.3-0.4,0.4-0.5c0.2-0.2,0.5-0.3,0.9-0.3c0.5,0,1.3,0.3,1.3,1.7v2.3h-0.7v-2.2c0-0.7-0.3-1.2-0.8-1.2
			c-0.4,0-0.7,0.3-0.8,0.6c0,0.1-0.1,0.2-0.1,0.4v2.4h-0.7v-2.3c0-0.6-0.3-1.1-0.8-1.1c-0.4,0-0.8,0.4-0.9,0.7
			c0,0.1-0.1,0.2-0.1,0.3v2.3h-0.7V219z"/>
	</g>
</g>
</svg>
