<?xml version="1.0" encoding="utf-8"?>
<!-- Generator: Adobe Illustrator 25.3.1, SVG Export Plug-In . SVG Version: 6.00 Build 0)  -->
<svg version="1.1" id="Layer_1" xmlns="http://www.w3.org/2000/svg" xmlns:xlink="http://www.w3.org/1999/xlink" x="0px" y="0px"
	 viewBox="0 0 774 719" style="enable-background:new 0 0 774 719;" xml:space="preserve">
<style type="text/css">
	.st0{fill:#4196B1;}
	.st1{fill:#AAE0E4;}
	.st2{fill:#8ECCCE;}
	.st3{fill:#99B8BF;}
	.st4{display:none;}
	.st5{opacity:0.15;fill:#010101;enable-background:new    ;}
	.st6{fill:#596068;}
	.st7{fill:#9BAEB7;}
	.st8{fill:none;stroke:#7A8E93;stroke-width:1.5;stroke-linecap:round;stroke-miterlimit:10;}
	.st9{opacity:5.000000e-02;fill:#030303;enable-background:new    ;}
	.st10{fill:#B8BFC1;}
	.st11{fill:#FFFFFF;}
	.st12{opacity:0.65;fill:#575757;enable-background:new    ;}
	.st13{fill:none;}
	.st14{enable-background:new    ;}
	.st15{fill:none;stroke:#FFFFFF;stroke-width:8;stroke-miterlimit:10;}
	.st16{fill:none;stroke:#FFFFFF;stroke-width:4;stroke-miterlimit:10;}
	.st17{fill:#EBF1F2;}
	.st18{fill:none;stroke:#7A8E93;stroke-width:0.74;stroke-linecap:round;stroke-linejoin:round;}
	.st19{fill:#767E80;}
	.st20{fill:none;stroke:#7A8E93;stroke-width:0.827;stroke-miterlimit:10;}
	.st21{fill:#646B6D;}
	.st22{fill:#EBF2F2;}
	.st23{fill:none;stroke:#7A8E93;stroke-width:0.742;stroke-miterlimit:10;}
	.st24{fill:#7A8E93;stroke:#7A8E93;stroke-width:0.145;stroke-miterlimit:10;}
	.st25{fill:#7A8E93;stroke:#7A8E93;stroke-width:0.142;stroke-miterlimit:10;}
	.st26{fill:#757D7F;}
	.st27{fill:none;stroke:#7A8E93;stroke-width:0.693;stroke-miterlimit:10;}
	.st28{fill:none;stroke:#7A8E93;stroke-width:0.39;stroke-miterlimit:10;}
	.st29{fill:none;stroke:#7A8E93;stroke-width:0.26;stroke-linecap:round;stroke-linejoin:round;}
	.st30{fill:none;stroke:#7A8E93;stroke-width:0.29;stroke-miterlimit:10;}
</style>
<g id="shadow">
	<polygon class="st0" points="114.4,69.9 668.4,57.2 672,120.1 751.5,117 719.6,690.8 72.3,690.8 67.3,557 	"/>
</g>
<g id="background">
	<polygon class="st1" points="103.8,44.8 657.7,32.2 661.3,95 740.9,92 708.9,665.7 61.7,665.7 56.6,531.9 	"/>
</g>
<g id="spaces">
	<polygon class="st2" points="230.9,375.3 438.1,375.3 602.6,375.3 602.6,442.2 555.8,442.2 555.8,520.5 648.7,520.5 648.7,320.7 
		709.8,320.7 709.8,364.6 696.9,364.6 696.9,422.4 722.4,422.4 708.8,665.7 61.5,665.7 56.5,520.5 72.4,367.4 80.6,284.3 
		96.4,139.1 105.3,44.8 251.8,41.5 243.9,140.6 238.6,233.6 	"/>
	<polygon class="st2" points="602.6,89.5 661,89.2 661,96.5 740.7,92 728,320.7 602.6,320.7 	"/>
	<polygon class="st2" points="251.8,41.5 602.6,32.2 602.8,117.3 538.3,117.3 537.4,90.3 413.2,91.1 246.9,91.1 	"/>
	<rect x="277.8" y="184" class="st2" width="75.4" height="39.9"/>
	<rect x="299.9" y="306" class="st2" width="53.3" height="14.7"/>
	<polygon class="st3" points="353.2,117.3 602.8,117.3 602.6,320.7 353.2,320.7 	"/>
	<polygon class="st3" points="602.6,32.2 657.9,30.4 661,89.2 602.6,89.5 	"/>
	<polygon class="st3" points="709.8,320.7 728,320.7 722.4,422.4 696.9,422.4 696.9,364.6 709.8,364.6 	"/>
</g>
<g id="maps" class="st4">
</g>
<g id="furniture_1_">
	<g id="furniture">
		<g>
			<g>
				<path class="st5" d="M308.1,247c-1.7,1.7-4.4,1.7-6.2,0l-2.4-2.4c-2.2-2.3-2.2-5.9,0-8.2l0,0c2.2-2.2,5.7-2.4,8.1-0.4l2.4,2.2
					l0.1,0.1c1.8,1.7,1.9,4.6,0.3,6.4L308.1,247L308.1,247z"/>
				<path class="st6" d="M307.8,246.6c-1.8,1.7-4.6,1.6-6.3-0.1l-2.3-2.3c-2.2-2.3-2.2-5.9,0-8.2l0,0c2.1-2.3,5.7-2.5,8.1-0.4
					l2.4,2.2l0.1,0.1c1.8,1.7,1.9,4.6,0.3,6.4L307.8,246.6z"/>
				<path class="st7" d="M307.2,246.1c-1.8,1.7-4.6,1.6-6.3-0.1l-2.3-2.3c-2.2-2.3-2.2-5.9,0-8.2l0,0c2.2-2.2,5.7-2.4,8.1-0.4
					l2.4,2.2l0.1,0.1c1.8,1.7,1.9,4.6,0.3,6.4L307.2,246.1z"/>
				<path class="st8" d="M301.3,246.6l-2.6-2.8c-2.2-2.3-2.2-5.9,0-8.2l0,0c2.1-2.3,5.7-2.5,8.1-0.4l3,2.4"/>
			</g>
			<circle class="st9" cx="317.2" cy="253.5" r="11.5"/>
			<circle class="st10" cx="318.1" cy="254.1" r="11.5"/>
			<circle class="st11" cx="319.2" cy="254.6" r="11.5"/>
			<g>
				<path class="st5" d="M330,260.1c1.7-1.7,4.4-1.7,6.2,0l2.4,2.4c2.2,2.3,2.2,5.9,0,8.2l0,0c-2.2,2.2-5.7,2.4-8.1,0.4l-2.4-2.2
					l-0.1-0.1c-1.8-1.7-1.9-4.6-0.3-6.4L330,260.1L330,260.1z"/>
				<path class="st6" d="M330.4,260.5c1.8-1.7,4.6-1.6,6.3,0.1l2.3,2.3c2.2,2.3,2.2,5.9,0,8.2l0,0c-2.1,2.3-5.7,2.5-8.1,0.4
					l-2.4-2.2l-0.1-0.1c-1.8-1.7-1.9-4.6-0.3-6.4L330.4,260.5z"/>
				<path class="st7" d="M330.9,261c1.8-1.7,4.6-1.6,6.3,0.1l2.3,2.3c2.2,2.3,2.2,5.9,0,8.2l0,0c-2.2,2.2-5.7,2.4-8.1,0.4l-2.4-2.2
					l-0.1-0.1c-1.8-1.7-1.9-4.6-0.3-6.4L330.9,261z"/>
				<path class="st8" d="M336.8,260.5l2.6,2.8c2.2,2.3,2.2,5.9,0,8.2l0,0c-2.1,2.3-5.7,2.5-8.1,0.4l-3-2.4"/>
			</g>
			<g>
				<path class="st5" d="M311.5,265.6c1.7,1.7,1.7,4.4,0,6.2l-2.4,2.4c-2.3,2.2-5.9,2.2-8.2,0l0,0c-2.2-2.2-2.4-5.7-0.4-8.1l2.2-2.4
					l0.1-0.1c1.7-1.8,4.6-1.9,6.4-0.3L311.5,265.6L311.5,265.6z"/>
				<path class="st6" d="M311.2,265.9c1.7,1.8,1.6,4.6-0.1,6.3l-2.3,2.3c-2.3,2.2-5.9,2.2-8.2,0l0,0c-2.3-2.1-2.5-5.7-0.4-8.1
					l2.2-2.4l0.1-0.1c1.7-1.8,4.6-1.9,6.4-0.3L311.2,265.9z"/>
				<path class="st7" d="M310.6,266.5c1.7,1.8,1.6,4.6-0.1,6.3l-2.3,2.3c-2.3,2.2-5.9,2.2-8.2,0l0,0c-2.2-2.2-2.4-5.7-0.4-8.1
					l2.2-2.4l0.1-0.1c1.7-1.8,4.6-1.9,6.4-0.3L310.6,266.5z"/>
				<path class="st8" d="M311.2,272.4l-2.8,2.6c-2.3,2.2-5.9,2.2-8.2,0l0,0c-2.3-2.1-2.5-5.7-0.4-8.1l2.4-3"/>
			</g>
			<g>
				<path class="st5" d="M324.6,243.7c-1.7-1.7-1.7-4.4,0-6.2l2.4-2.4c2.3-2.2,5.9-2.2,8.2,0l0,0c2.2,2.2,2.4,5.7,0.4,8.1l-2.2,2.4
					l-0.1,0.1c-1.7,1.8-4.6,1.9-6.4,0.3L324.6,243.7L324.6,243.7z"/>
				<path class="st6" d="M325,243.3c-1.7-1.8-1.6-4.6,0.1-6.3l2.3-2.3c2.3-2.2,5.9-2.2,8.2,0l0,0c2.3,2.1,2.5,5.7,0.4,8.1l-2.2,2.4
					l-0.1,0.1c-1.7,1.8-4.6,1.9-6.4,0.3L325,243.3z"/>
				<path class="st7" d="M325.5,242.8c-1.7-1.8-1.6-4.6,0.1-6.3l2.3-2.3c2.3-2.2,5.9-2.2,8.2,0l0,0c2.2,2.2,2.4,5.7,0.4,8.1
					l-2.2,2.4l-0.1,0.1c-1.7,1.8-4.6,1.9-6.4,0.3L325.5,242.8z"/>
				<path class="st8" d="M325,236.9l2.8-2.6c2.3-2.2,5.9-2.2,8.2,0l0,0c2.3,2.1,2.5,5.7,0.4,8.1l-2.4,3"/>
			</g>
			<g>
				<path class="st5" d="M308.3,148.2c-1.7,1.7-4.4,1.7-6.2,0l-2.4-2.4c-2.2-2.3-2.2-5.9,0-8.2l0,0c2.2-2.2,5.7-2.4,8.1-0.4l2.4,2.2
					l0.1,0.1c1.8,1.7,1.9,4.6,0.3,6.4L308.3,148.2L308.3,148.2z"/>
				<path class="st6" d="M307.9,147.8c-1.8,1.7-4.6,1.6-6.3-0.1l-2.3-2.3c-2.2-2.3-2.2-5.9,0-8.2l0,0c2.1-2.3,5.7-2.5,8.1-0.4
					l2.4,2.2l0.1,0.1c1.8,1.7,1.9,4.6,0.3,6.4L307.9,147.8z"/>
				<path class="st7" d="M307.4,147.3c-1.8,1.7-4.6,1.6-6.3-0.1l-2.3-2.3c-2.2-2.3-2.2-5.9,0-8.2l0,0c2.2-2.2,5.7-2.4,8.1-0.4
					l2.4,2.2l0.1,0.1c1.8,1.7,1.9,4.6,0.3,6.4L307.4,147.3z"/>
				<path class="st8" d="M301.5,147.8l-2.6-2.8c-2.2-2.3-2.2-5.9,0-8.2l0,0c2.1-2.3,5.7-2.5,8.1-0.4l3,2.4"/>
			</g>
			<circle class="st9" cx="317.4" cy="154.7" r="11.5"/>
			<circle class="st10" cx="318.2" cy="155.3" r="11.5"/>
			<circle class="st11" cx="319.3" cy="155.8" r="11.5"/>
			<g>
				<path class="st5" d="M330.1,161.3c1.7-1.7,4.4-1.7,6.2,0l2.4,2.4c2.2,2.3,2.2,5.9,0,8.2l0,0c-2.2,2.2-5.7,2.4-8.1,0.4l-2.4-2.2
					l-0.1-0.1c-1.8-1.7-1.9-4.6-0.3-6.4L330.1,161.3L330.1,161.3z"/>
				<path class="st6" d="M330.5,161.7c1.8-1.7,4.6-1.6,6.3,0.1l2.3,2.3c2.2,2.3,2.2,5.9,0,8.2l0,0c-2.1,2.3-5.7,2.5-8.1,0.4
					l-2.4-2.2l-0.1-0.1c-1.8-1.7-1.9-4.6-0.3-6.4L330.5,161.7z"/>
				<path class="st7" d="M331,162.2c1.8-1.7,4.6-1.6,6.3,0.1l2.3,2.3c2.2,2.3,2.2,5.9,0,8.2l0,0c-2.2,2.2-5.7,2.4-8.1,0.4l-2.4-2.2
					l-0.1-0.1c-1.8-1.7-1.9-4.6-0.3-6.4L331,162.2z"/>
				<path class="st8" d="M336.9,161.7l2.6,2.8c2.2,2.3,2.2,5.9,0,8.2l0,0c-2.1,2.3-5.7,2.5-8.1,0.4l-3-2.4"/>
			</g>
			<g>
				<path class="st5" d="M311.7,166.8c1.7,1.7,1.7,4.4,0,6.2l-2.4,2.4c-2.3,2.2-5.9,2.2-8.2,0l0,0c-2.2-2.2-2.4-5.7-0.4-8.1l2.2-2.4
					l0.1-0.1c1.7-1.8,4.6-1.9,6.4-0.3L311.7,166.8L311.7,166.8z"/>
				<path class="st6" d="M311.3,167.2c1.7,1.8,1.6,4.6-0.1,6.3l-2.3,2.3c-2.3,2.2-5.9,2.2-8.2,0l0,0c-2.3-2.1-2.5-5.7-0.4-8.1
					l2.2-2.4l0.1-0.1c1.7-1.8,4.6-1.9,6.4-0.3L311.3,167.2z"/>
				<path class="st7" d="M310.8,167.7c1.7,1.8,1.6,4.6-0.1,6.3l-2.3,2.3c-2.3,2.2-5.9,2.2-8.2,0l0,0c-2.2-2.2-2.4-5.7-0.4-8.1
					l2.2-2.4l0.1-0.1c1.7-1.8,4.6-1.9,6.4-0.3L310.8,167.7z"/>
				<path class="st8" d="M311.3,173.6l-2.8,2.6c-2.3,2.2-5.9,2.2-8.2,0l0,0c-2.3-2.1-2.5-5.7-0.4-8.1l2.4-3"/>
			</g>
			<g>
				<path class="st5" d="M324.8,144.9c-1.7-1.7-1.7-4.4,0-6.2l2.4-2.4c2.3-2.2,5.9-2.2,8.2,0l0,0c2.2,2.2,2.4,5.7,0.4,8.1l-2.2,2.4
					l-0.1,0.1c-1.7,1.8-4.6,1.9-6.4,0.3L324.8,144.9L324.8,144.9z"/>
				<path class="st6" d="M325.1,144.5c-1.7-1.8-1.6-4.6,0.1-6.3l2.3-2.3c2.3-2.2,5.9-2.2,8.2,0l0,0c2.3,2.1,2.5,5.7,0.4,8.1
					l-2.2,2.4l-0.1,0.1c-1.7,1.8-4.6,1.9-6.4,0.3L325.1,144.5z"/>
				<path class="st7" d="M325.7,144c-1.7-1.8-1.6-4.6,0.1-6.3l2.3-2.3c2.3-2.2,5.9-2.2,8.2,0l0,0c2.2,2.2,2.4,5.7,0.4,8.1l-2.2,2.4
					l-0.1,0.1c-1.7,1.8-4.6,1.9-6.4,0.3L325.7,144z"/>
				<path class="st8" d="M325.1,138.1l2.8-2.6c2.3-2.2,5.9-2.2,8.2,0l0,0c2.3,2.1,2.5,5.7,0.4,8.1l-2.4,3"/>
			</g>
		</g>
	</g>
</g>
<g id="bookable">
	<rect id="area-01.105-status" x="510" y="520.5" class="st12" width="99.9" height="145.2"/>
	<rect id="area-01.106-status" x="346.5" y="520.5" class="st12" width="163.5" height="145.2"/>
	<polygon id="area-01.104-status" class="st12" points="715.8,520.5 708.8,665.7 609.9,665.7 609.9,520.5 	"/>
	<polygon id="area-01.107-status" class="st12" points="57.7,518.7 348.4,518.7 346.5,665.7 61.7,665.7 57.7,588.3 56.6,536.1 	"/>
	<polygon id="area-01.108-status" class="st12" points="80.6,284.3 234.5,299.7 225,442.8 221.5,496.8 218.6,518.4 57.7,518.7 
		68.1,412.9 	"/>
	<polygon id="area-01.110-status" class="st12" points="103.8,44.8 250.3,42.6 243.9,152.3 94.5,139 	"/>
	<polygon id="area-01.119-status" class="st12" points="728,320.7 602.6,320.7 602.6,221.4 733.4,221.4 	"/>
	<polygon id="area-01.118-status" class="st12" points="602.6,89.5 661,89.5 661,96.5 740.7,92 733.4,221.4 602.6,221.4 	"/>
	<polygon id="area-01.109-status" class="st12" points="94.5,139 243.9,152.3 234.5,299.7 80.6,284.3 	"/>
	<rect x="611.8" y="566.7" class="st13" width="102.1" height="42"/>
	<g class="st14">
		<path class="st11" d="M641,575.3v-8.6h2.6l1.6,5.9l1.5-5.9h2.6v8.6h-1.6v-6.8l-1.7,6.8h-1.7l-1.7-6.8v6.8H641z"/>
		<path class="st11" d="M654.6,573.3l1.6,0.3c-0.2,0.6-0.5,1.1-1,1.4s-1,0.5-1.7,0.5c-1.1,0-1.9-0.4-2.4-1.1
			c-0.4-0.6-0.6-1.3-0.6-2.1c0-1,0.3-1.8,0.8-2.4s1.2-0.9,2-0.9c0.9,0,1.7,0.3,2.2,0.9s0.8,1.5,0.8,2.8h-4.1c0,0.5,0.1,0.9,0.4,1.1
			s0.6,0.4,0.9,0.4c0.3,0,0.5-0.1,0.7-0.2S654.5,573.6,654.6,573.3z M654.7,571.6c0-0.5-0.1-0.8-0.4-1.1s-0.5-0.4-0.9-0.4
			s-0.7,0.1-0.9,0.4s-0.3,0.6-0.3,1.1H654.7z"/>
		<path class="st11" d="M661.3,573.3l1.6,0.3c-0.2,0.6-0.5,1.1-1,1.4s-1,0.5-1.7,0.5c-1.1,0-1.9-0.4-2.4-1.1
			c-0.4-0.6-0.6-1.3-0.6-2.1c0-1,0.3-1.8,0.8-2.4s1.2-0.9,2-0.9c0.9,0,1.7,0.3,2.2,0.9s0.8,1.5,0.8,2.8h-4.1c0,0.5,0.1,0.9,0.4,1.1
			s0.6,0.4,0.9,0.4c0.3,0,0.5-0.1,0.7-0.2S661.2,573.6,661.3,573.3z M661.4,571.6c0-0.5-0.1-0.8-0.4-1.1s-0.5-0.4-0.9-0.4
			s-0.7,0.1-0.9,0.4s-0.3,0.6-0.3,1.1H661.4z"/>
		<path class="st11" d="M667.2,569v1.3h-1.1v2.5c0,0.5,0,0.8,0,0.9s0.1,0.2,0.1,0.2s0.2,0.1,0.3,0.1c0.2,0,0.4-0.1,0.7-0.2l0.1,1.3
			c-0.4,0.2-0.8,0.2-1.3,0.2c-0.3,0-0.6,0-0.8-0.1s-0.4-0.2-0.5-0.4s-0.2-0.4-0.2-0.6c0-0.2-0.1-0.6-0.1-1.2v-2.7h-0.8V569h0.8v-1.2
			l1.7-1v2.2H667.2z"/>
		<path class="st11" d="M668.4,568.2v-1.5h1.6v1.5H668.4z M668.4,575.3V569h1.6v6.2L668.4,575.3L668.4,575.3z"/>
		<path class="st11" d="M677.4,575.3h-1.6v-3.2c0-0.7,0-1.1-0.1-1.3s-0.2-0.4-0.3-0.5s-0.3-0.2-0.6-0.2s-0.5,0.1-0.8,0.2
			s-0.4,0.4-0.5,0.6s-0.1,0.7-0.1,1.4v2.8h-1.6V569h1.5v0.9c0.5-0.7,1.2-1.1,2.1-1.1c0.4,0,0.7,0.1,1,0.2s0.5,0.3,0.7,0.5
			s0.3,0.4,0.3,0.7s0.1,0.6,0.1,1.1v4H677.4z"/>
		<path class="st11" d="M678.9,575.7l1.9,0.2c0,0.2,0.1,0.4,0.2,0.5c0.2,0.1,0.4,0.2,0.7,0.2c0.4,0,0.8-0.1,1-0.2
			c0.1-0.1,0.3-0.2,0.3-0.4c0.1-0.1,0.1-0.4,0.1-0.8v-0.9c-0.5,0.7-1.1,1-1.9,1c-0.8,0-1.5-0.4-2-1.1c-0.4-0.6-0.6-1.3-0.6-2.1
			c0-1,0.3-1.8,0.8-2.4s1.1-0.8,1.9-0.8c0.8,0,1.4,0.3,1.9,1V569h1.5v5.6c0,0.7-0.1,1.3-0.2,1.6s-0.3,0.6-0.5,0.9s-0.5,0.4-0.9,0.5
			s-0.8,0.2-1.4,0.2c-1.1,0-1.8-0.2-2.2-0.5s-0.7-0.8-0.7-1.4C678.9,575.8,678.9,575.8,678.9,575.7z M680.3,572
			c0,0.7,0.1,1.1,0.4,1.5s0.6,0.5,0.9,0.5c0.4,0,0.7-0.2,1-0.5s0.4-0.8,0.4-1.4c0-0.6-0.1-1.1-0.4-1.4s-0.6-0.5-1-0.5
			s-0.7,0.2-1,0.5S680.3,571.4,680.3,572z"/>
	</g>
	<g class="st14">
		<path class="st11" d="M646.7,589.7v-8.6h3.7c0.9,0,1.6,0.1,2,0.2s0.7,0.4,1,0.8s0.4,0.8,0.4,1.4c0,0.6-0.2,1.2-0.6,1.6
			s-0.9,0.7-1.7,0.8c0.4,0.2,0.7,0.5,0.9,0.7s0.6,0.7,1,1.4l1,1.7h-2.1l-1.3-1.9c-0.4-0.7-0.8-1.1-0.9-1.3s-0.3-0.3-0.5-0.4
			s-0.5-0.1-0.9-0.1h-0.4v3.6L646.7,589.7L646.7,589.7z M648.5,584.7h1.3c0.8,0,1.4,0,1.6-0.1s0.4-0.2,0.5-0.4s0.2-0.4,0.2-0.6
			c0-0.3-0.1-0.5-0.2-0.7s-0.4-0.3-0.7-0.3c-0.1,0-0.6,0-1.3,0h-1.4L648.5,584.7L648.5,584.7z"/>
		<path class="st11" d="M655,586.5c0-0.5,0.1-1.1,0.4-1.6s0.7-0.9,1.1-1.2s1-0.4,1.7-0.4c0.9,0,1.7,0.3,2.3,0.9s0.9,1.4,0.9,2.3
			c0,0.9-0.3,1.7-0.9,2.3s-1.4,0.9-2.3,0.9c-0.6,0-1.1-0.1-1.6-0.4s-0.9-0.6-1.2-1.1S655,587.2,655,586.5z M656.7,586.6
			c0,0.6,0.1,1.1,0.4,1.4s0.7,0.5,1.1,0.5s0.8-0.2,1.1-0.5s0.4-0.8,0.4-1.4c0-0.6-0.1-1.1-0.4-1.4s-0.7-0.5-1.1-0.5
			s-0.8,0.2-1.1,0.5S656.7,585.9,656.7,586.6z"/>
		<path class="st11" d="M662.3,586.5c0-0.5,0.1-1.1,0.4-1.6s0.7-0.9,1.1-1.2s1-0.4,1.7-0.4c0.9,0,1.7,0.3,2.3,0.9s0.9,1.4,0.9,2.3
			c0,0.9-0.3,1.7-0.9,2.3s-1.4,0.9-2.3,0.9c-0.6,0-1.1-0.1-1.6-0.4s-0.9-0.6-1.2-1.1S662.3,587.2,662.3,586.5z M664,586.6
			c0,0.6,0.1,1.1,0.4,1.4s0.7,0.5,1.1,0.5s0.8-0.2,1.1-0.5s0.4-0.8,0.4-1.4c0-0.6-0.1-1.1-0.4-1.4s-0.7-0.5-1.1-0.5
			s-0.8,0.2-1.1,0.5S664,585.9,664,586.6z"/>
		<path class="st11" d="M669.9,583.4h1.5v0.8c0.5-0.7,1.2-1,1.9-1c0.4,0,0.7,0.1,1,0.2s0.5,0.4,0.7,0.7c0.3-0.3,0.6-0.6,0.9-0.7
			s0.7-0.2,1-0.2c0.5,0,0.8,0.1,1.2,0.3s0.6,0.5,0.7,0.8c0.1,0.3,0.2,0.7,0.2,1.3v4h-1.6V586c0-0.6-0.1-1-0.2-1.2
			c-0.2-0.2-0.4-0.4-0.7-0.4c-0.2,0-0.4,0.1-0.7,0.2s-0.3,0.3-0.4,0.6s-0.1,0.7-0.1,1.3v3h-1.6v-3.4c0-0.6,0-1-0.1-1.2
			s-0.1-0.3-0.3-0.4s-0.3-0.1-0.5-0.1c-0.3,0-0.5,0.1-0.7,0.2s-0.3,0.3-0.4,0.6s-0.1,0.7-0.1,1.3v3H670v-6.1H669.9z"/>
	</g>
	<g class="st14">
		<path class="st11" d="M657.6,604.1H656v-6.2c-0.6,0.6-1.3,1-2.1,1.2v-1.5c0.4-0.1,0.9-0.4,1.4-0.8s0.8-0.9,1-1.4h1.3L657.6,604.1
			L657.6,604.1z"/>
		<path class="st11" d="M662.8,595.4c0.8,0,1.5,0.3,2,0.9c0.6,0.7,0.8,1.9,0.8,3.5s-0.3,2.8-0.8,3.5c-0.5,0.6-1.1,0.9-1.9,0.9
			c-0.8,0-1.5-0.3-2-1s-0.8-1.8-0.8-3.4c0-1.6,0.3-2.8,0.8-3.5C661.3,595.7,662,595.4,662.8,595.4z M662.8,596.8
			c-0.2,0-0.4,0.1-0.5,0.2s-0.3,0.4-0.4,0.7c-0.1,0.4-0.2,1.1-0.2,2.2s0.1,1.7,0.2,2.1s0.2,0.6,0.4,0.8s0.3,0.2,0.5,0.2
			s0.4-0.1,0.5-0.2s0.3-0.4,0.4-0.7c0.1-0.4,0.2-1.1,0.2-2.1s-0.1-1.7-0.2-2.1s-0.2-0.6-0.4-0.8S663,596.8,662.8,596.8z"/>
		<path class="st11" d="M669.9,604.1v-1.7h-3.5V601l3.7-5.5h1.4v5.4h1.1v1.4h-1.1v1.7L669.9,604.1L669.9,604.1z M669.9,600.9V598
			l-2,2.9H669.9z"/>
	</g>
	<rect x="510" y="580.1" class="st13" width="97.7" height="42"/>
	<g class="st14">
		<path class="st11" d="M542.8,588.6V580h3.7c0.9,0,1.6,0.1,2,0.2s0.7,0.4,1,0.8s0.4,0.8,0.4,1.4c0,0.6-0.2,1.2-0.6,1.6
			s-0.9,0.7-1.7,0.8c0.4,0.2,0.7,0.5,0.9,0.7s0.6,0.7,1,1.4l1,1.7h-2.1l-1.3-1.9c-0.4-0.7-0.8-1.1-0.9-1.3s-0.3-0.3-0.5-0.4
			s-0.5-0.1-0.9-0.1h-0.4v3.6L542.8,588.6L542.8,588.6z M544.5,583.7h1.3c0.8,0,1.4,0,1.6-0.1s0.4-0.2,0.5-0.4s0.2-0.4,0.2-0.6
			c0-0.3-0.1-0.5-0.2-0.7s-0.4-0.3-0.7-0.3c-0.1,0-0.6,0-1.3,0h-1.4L544.5,583.7L544.5,583.7z"/>
		<path class="st11" d="M551,585.4c0-0.5,0.1-1.1,0.4-1.6s0.7-0.9,1.1-1.2s1-0.4,1.7-0.4c0.9,0,1.7,0.3,2.3,0.9s0.9,1.4,0.9,2.3
			c0,0.9-0.3,1.7-0.9,2.3s-1.4,0.9-2.3,0.9c-0.6,0-1.1-0.1-1.6-0.4s-0.9-0.6-1.2-1.1S551,586.2,551,585.4z M552.7,585.5
			c0,0.6,0.1,1.1,0.4,1.4s0.7,0.5,1.1,0.5s0.8-0.2,1.1-0.5s0.4-0.8,0.4-1.4c0-0.6-0.1-1.1-0.4-1.4s-0.7-0.5-1.1-0.5
			s-0.8,0.2-1.1,0.5S552.7,584.9,552.7,585.5z"/>
		<path class="st11" d="M558.4,585.4c0-0.5,0.1-1.1,0.4-1.6s0.7-0.9,1.1-1.2s1-0.4,1.7-0.4c0.9,0,1.7,0.3,2.3,0.9s0.9,1.4,0.9,2.3
			c0,0.9-0.3,1.7-0.9,2.3s-1.4,0.9-2.3,0.9c-0.6,0-1.1-0.1-1.6-0.4s-0.9-0.6-1.2-1.1S558.4,586.2,558.4,585.4z M560,585.5
			c0,0.6,0.1,1.1,0.4,1.4s0.7,0.5,1.1,0.5s0.8-0.2,1.1-0.5s0.4-0.8,0.4-1.4c0-0.6-0.1-1.1-0.4-1.4s-0.7-0.5-1.1-0.5
			s-0.8,0.2-1.1,0.5S560,584.9,560,585.5z"/>
		<path class="st11" d="M565.9,582.4h1.5v0.8c0.5-0.7,1.2-1,1.9-1c0.4,0,0.7,0.1,1,0.2s0.5,0.4,0.7,0.7c0.3-0.3,0.6-0.6,0.9-0.7
			s0.7-0.2,1-0.2c0.5,0,0.8,0.1,1.2,0.3s0.6,0.5,0.7,0.8c0.1,0.3,0.2,0.7,0.2,1.3v4h-1.6V585c0-0.6-0.1-1-0.2-1.2
			c-0.2-0.2-0.4-0.4-0.7-0.4c-0.2,0-0.4,0.1-0.7,0.2s-0.3,0.3-0.4,0.6s-0.1,0.7-0.1,1.3v3h-1.6v-3.4c0-0.6,0-1-0.1-1.2
			s-0.1-0.3-0.3-0.4s-0.3-0.1-0.5-0.1c-0.3,0-0.5,0.1-0.7,0.2s-0.3,0.3-0.4,0.6s-0.1,0.7-0.1,1.3v3H566v-6.1H565.9z"/>
	</g>
	<g class="st14">
		<path class="st11" d="M553.6,603H552v-6.2c-0.6,0.6-1.3,1-2.1,1.2v-1.5c0.4-0.1,0.9-0.4,1.4-0.8s0.8-0.9,1-1.4h1.3L553.6,603
			L553.6,603z"/>
		<path class="st11" d="M558.8,594.4c0.8,0,1.5,0.3,2,0.9c0.6,0.7,0.8,1.9,0.8,3.5s-0.3,2.8-0.8,3.5c-0.5,0.6-1.1,0.9-1.9,0.9
			c-0.8,0-1.5-0.3-2-1s-0.8-1.8-0.8-3.4c0-1.6,0.3-2.8,0.8-3.5C557.4,594.7,558,594.4,558.8,594.4z M558.8,595.8
			c-0.2,0-0.4,0.1-0.5,0.2s-0.3,0.4-0.4,0.7c-0.1,0.4-0.2,1.1-0.2,2.2s0.1,1.7,0.2,2.1s0.2,0.6,0.4,0.8s0.3,0.2,0.5,0.2
			s0.4-0.1,0.5-0.2s0.3-0.4,0.4-0.7c0.1-0.4,0.2-1.1,0.2-2.1s-0.1-1.7-0.2-2.1s-0.2-0.6-0.4-0.8S559,595.8,558.8,595.8z"/>
		<path class="st11" d="M562.8,600.8l1.6-0.2c0,0.4,0.2,0.7,0.4,0.9s0.5,0.3,0.8,0.3s0.6-0.1,0.9-0.4s0.4-0.7,0.4-1.3
			c0-0.5-0.1-0.9-0.4-1.2s-0.5-0.4-0.9-0.4c-0.5,0-0.9,0.2-1.3,0.6L563,599l0.8-4.5h4.4v1.5H565l-0.3,1.5c0.4-0.2,0.7-0.3,1.1-0.3
			c0.7,0,1.3,0.3,1.9,0.8s0.8,1.2,0.8,2.1c0,0.7-0.2,1.3-0.6,1.9c-0.6,0.8-1.3,1.1-2.3,1.1c-0.8,0-1.4-0.2-1.9-0.6
			S562.9,601.6,562.8,600.8z"/>
	</g>
	<rect x="374.9" y="583.2" class="st13" width="97.7" height="42"/>
	<g class="st14">
		<path class="st11" d="M383.2,591.8v-8.6h2.6l1.6,5.9l1.5-5.9h2.6v8.6h-1.6V585l-1.7,6.8h-1.7l-1.7-6.8v6.8H383.2z"/>
		<path class="st11" d="M396.9,589.9l1.6,0.3c-0.2,0.6-0.5,1.1-1,1.4s-1,0.5-1.7,0.5c-1.1,0-1.9-0.4-2.4-1.1
			c-0.4-0.6-0.6-1.3-0.6-2.1c0-1,0.3-1.8,0.8-2.4s1.2-0.9,2-0.9c0.9,0,1.7,0.3,2.2,0.9s0.8,1.5,0.8,2.8h-4.1c0,0.5,0.1,0.9,0.4,1.1
			s0.6,0.4,0.9,0.4s0.5-0.1,0.7-0.2S396.8,590.2,396.9,589.9z M396.9,588.2c0-0.5-0.1-0.8-0.4-1.1s-0.5-0.4-0.9-0.4
			s-0.7,0.1-0.9,0.4s-0.3,0.6-0.3,1.1H396.9z"/>
		<path class="st11" d="M403.5,589.9l1.6,0.3c-0.2,0.6-0.5,1.1-1,1.4s-1,0.5-1.7,0.5c-1.1,0-1.9-0.4-2.4-1.1
			c-0.4-0.6-0.6-1.3-0.6-2.1c0-1,0.3-1.8,0.8-2.4s1.2-0.9,2-0.9c0.9,0,1.7,0.3,2.2,0.9s0.8,1.5,0.8,2.8h-4.1c0,0.5,0.1,0.9,0.4,1.1
			s0.6,0.4,0.9,0.4s0.5-0.1,0.7-0.2S403.4,590.2,403.5,589.9z M403.6,588.2c0-0.5-0.1-0.8-0.4-1.1s-0.5-0.4-0.9-0.4
			s-0.7,0.1-0.9,0.4s-0.3,0.6-0.3,1.1H403.6z"/>
		<path class="st11" d="M409.4,585.6v1.3h-1.1v2.5c0,0.5,0,0.8,0,0.9s0.1,0.2,0.1,0.2s0.2,0.1,0.3,0.1c0.2,0,0.4-0.1,0.7-0.2
			l0.1,1.3c-0.4,0.2-0.8,0.2-1.3,0.2c-0.3,0-0.6,0-0.8-0.1s-0.4-0.2-0.5-0.4s-0.2-0.4-0.2-0.6c0-0.2-0.1-0.6-0.1-1.2v-2.7h-0.8v-1.3
			h0.8v-1.2l1.7-1v2.2H409.4z"/>
		<path class="st11" d="M410.6,584.8v-1.5h1.6v1.5H410.6z M410.6,591.8v-6.2h1.6v6.2H410.6z"/>
		<path class="st11" d="M419.6,591.8H418v-3.2c0-0.7,0-1.1-0.1-1.3s-0.2-0.4-0.3-0.5s-0.3-0.2-0.6-0.2c-0.3,0-0.5,0.1-0.8,0.2
			s-0.4,0.4-0.5,0.6s-0.1,0.7-0.1,1.4v2.8H414v-6.2h1.5v0.9c0.5-0.7,1.2-1.1,2.1-1.1c0.4,0,0.7,0.1,1,0.2s0.5,0.3,0.7,0.5
			s0.3,0.4,0.3,0.7s0.1,0.6,0.1,1.1v4.1H419.6z"/>
		<path class="st11" d="M421.1,592.2l1.9,0.2c0,0.2,0.1,0.4,0.2,0.5c0.2,0.1,0.4,0.2,0.7,0.2c0.4,0,0.8-0.1,1-0.2
			c0.1-0.1,0.3-0.2,0.3-0.4c0.1-0.1,0.1-0.4,0.1-0.8v-0.9c-0.5,0.7-1.1,1-1.9,1s-1.5-0.4-2-1.1c-0.4-0.6-0.6-1.3-0.6-2.1
			c0-1,0.3-1.8,0.8-2.4s1.1-0.8,1.9-0.8s1.4,0.3,1.9,1v-0.9h1.5v5.6c0,0.7-0.1,1.3-0.2,1.6s-0.3,0.6-0.5,0.9s-0.5,0.4-0.9,0.5
			s-0.8,0.2-1.4,0.2c-1.1,0-1.8-0.2-2.2-0.5s-0.7-0.8-0.7-1.4C421.1,592.4,421.1,592.3,421.1,592.2z M422.6,588.6
			c0,0.7,0.1,1.1,0.4,1.5s0.6,0.5,0.9,0.5c0.4,0,0.7-0.2,1-0.5s0.4-0.8,0.4-1.4c0-0.6-0.1-1.1-0.4-1.4s-0.6-0.5-1-0.5
			s-0.7,0.2-1,0.5S422.6,588,422.6,588.6z"/>
		<path class="st11" d="M431.9,591.8v-8.6h3.7c0.9,0,1.6,0.1,2,0.2s0.7,0.4,1,0.8s0.4,0.8,0.4,1.4c0,0.6-0.2,1.2-0.6,1.6
			s-0.9,0.7-1.7,0.8c0.4,0.2,0.7,0.5,0.9,0.7s0.6,0.7,1,1.4l1,1.7h-2.1l-1.3-1.9c-0.4-0.7-0.8-1.1-0.9-1.3s-0.3-0.3-0.5-0.4
			s-0.5-0.1-0.9-0.1h-0.4v3.6L431.9,591.8L431.9,591.8z M433.7,586.9h1.3c0.8,0,1.4,0,1.6-0.1s0.4-0.2,0.5-0.4s0.2-0.4,0.2-0.6
			c0-0.3-0.1-0.5-0.2-0.7s-0.4-0.3-0.7-0.3c-0.1,0-0.6,0-1.3,0h-1.4V586.9z"/>
		<path class="st11" d="M440.2,588.6c0-0.5,0.1-1.1,0.4-1.6s0.7-0.9,1.1-1.2s1-0.4,1.7-0.4c0.9,0,1.7,0.3,2.3,0.9s0.9,1.4,0.9,2.3
			c0,0.9-0.3,1.7-0.9,2.3s-1.4,0.9-2.3,0.9c-0.6,0-1.1-0.1-1.6-0.4s-0.9-0.6-1.2-1.1S440.2,589.4,440.2,588.6z M441.9,588.7
			c0,0.6,0.1,1.1,0.4,1.4s0.7,0.5,1.1,0.5s0.8-0.2,1.1-0.5s0.4-0.8,0.4-1.4c0-0.6-0.1-1.1-0.4-1.4s-0.7-0.5-1.1-0.5
			s-0.8,0.2-1.1,0.5S441.9,588.1,441.9,588.7z"/>
		<path class="st11" d="M447.5,588.6c0-0.5,0.1-1.1,0.4-1.6s0.7-0.9,1.1-1.2s1-0.4,1.7-0.4c0.9,0,1.7,0.3,2.3,0.9s0.9,1.4,0.9,2.3
			c0,0.9-0.3,1.7-0.9,2.3s-1.4,0.9-2.3,0.9c-0.6,0-1.1-0.1-1.6-0.4s-0.9-0.6-1.2-1.1S447.5,589.4,447.5,588.6z M449.2,588.7
			c0,0.6,0.1,1.1,0.4,1.4s0.7,0.5,1.1,0.5s0.8-0.2,1.1-0.5s0.4-0.8,0.4-1.4c0-0.6-0.1-1.1-0.4-1.4s-0.7-0.5-1.1-0.5
			s-0.8,0.2-1.1,0.5S449.2,588.1,449.2,588.7z"/>
		<path class="st11" d="M455.1,585.6h1.5v0.8c0.5-0.7,1.2-1,1.9-1c0.4,0,0.7,0.1,1,0.2s0.5,0.4,0.7,0.7c0.3-0.3,0.6-0.6,0.9-0.7
			s0.7-0.2,1-0.2c0.5,0,0.8,0.1,1.2,0.3s0.6,0.5,0.7,0.8s0.2,0.7,0.2,1.3v4h-1.6v-3.6c0-0.6-0.1-1-0.2-1.2c-0.2-0.2-0.4-0.4-0.7-0.4
			c-0.2,0-0.4,0.1-0.7,0.2s-0.3,0.3-0.4,0.6s-0.1,0.7-0.1,1.3v3h-1.6v-3.4c0-0.6,0-1-0.1-1.2s-0.1-0.3-0.3-0.4s-0.3-0.1-0.5-0.1
			c-0.3,0-0.5,0.1-0.7,0.2s-0.3,0.3-0.4,0.6s-0.1,0.7-0.1,1.3v3h-1.6L455.1,585.6L455.1,585.6z"/>
	</g>
	<g class="st14">
		<path class="st11" d="M418.4,606.2h-1.6V600c-0.6,0.6-1.3,1-2.1,1.2v-1.5c0.4-0.1,0.9-0.4,1.4-0.8s0.8-0.9,1-1.4h1.3L418.4,606.2
			L418.4,606.2z"/>
		<path class="st11" d="M423.7,597.6c0.8,0,1.5,0.3,2,0.9c0.6,0.7,0.8,1.9,0.8,3.5s-0.3,2.8-0.8,3.5c-0.5,0.6-1.1,0.9-1.9,0.9
			s-1.5-0.3-2-1s-0.8-1.8-0.8-3.4c0-1.6,0.3-2.8,0.8-3.5C422.2,597.9,422.8,597.6,423.7,597.6z M423.7,599c-0.2,0-0.4,0.1-0.5,0.2
			s-0.3,0.4-0.4,0.7c-0.1,0.4-0.2,1.1-0.2,2.2s0.1,1.7,0.2,2.1s0.2,0.6,0.4,0.8s0.3,0.2,0.5,0.2s0.4-0.1,0.5-0.2s0.3-0.4,0.4-0.7
			c0.1-0.4,0.2-1.1,0.2-2.1s-0.1-1.7-0.2-2.1s-0.2-0.6-0.4-0.8S423.9,599,423.7,599z"/>
		<path class="st11" d="M433.1,599.7l-1.6,0.2c0-0.3-0.1-0.6-0.3-0.7s-0.4-0.2-0.6-0.2c-0.3,0-0.6,0.2-0.9,0.5s-0.4,1-0.5,2
			c0.4-0.5,0.9-0.7,1.5-0.7c0.7,0,1.3,0.3,1.8,0.8s0.7,1.2,0.7,2c0,0.9-0.3,1.6-0.8,2.1s-1.2,0.8-2,0.8c-0.9,0-1.6-0.3-2.1-1
			s-0.8-1.8-0.8-3.3c0-1.6,0.3-2.7,0.9-3.4s1.3-1,2.3-1c0.7,0,1.2,0.2,1.6,0.5S433,599.1,433.1,599.7z M429.4,603.3
			c0,0.5,0.1,0.9,0.4,1.2s0.5,0.4,0.8,0.4s0.6-0.1,0.8-0.4s0.3-0.6,0.3-1.2c0-0.6-0.1-1-0.3-1.2s-0.5-0.4-0.8-0.4s-0.6,0.1-0.8,0.4
			S429.4,602.9,429.4,603.3z"/>
	</g>
	<rect x="148.4" y="585.4" class="st13" width="97.7" height="42"/>
	<g class="st14">
		<path class="st11" d="M156.8,594v-8.6h2.6l1.6,5.9l1.5-5.9h2.6v8.6h-1.6v-6.8l-1.7,6.8h-1.7l-1.7-6.8v6.8H156.8z"/>
		<path class="st11" d="M170.4,592l1.6,0.3c-0.2,0.6-0.5,1.1-1,1.4s-1,0.5-1.7,0.5c-1.1,0-1.9-0.4-2.4-1.1c-0.4-0.6-0.6-1.3-0.6-2.1
			c0-1,0.3-1.8,0.8-2.4s1.2-0.9,2-0.9c0.9,0,1.7,0.3,2.2,0.9s0.8,1.5,0.8,2.8H168c0,0.5,0.1,0.9,0.4,1.1s0.6,0.4,0.9,0.4
			c0.3,0,0.5-0.1,0.7-0.2S170.3,592.3,170.4,592z M170.5,590.4c0-0.5-0.1-0.8-0.4-1.1s-0.5-0.4-0.9-0.4s-0.7,0.1-0.9,0.4
			s-0.3,0.6-0.3,1.1H170.5z"/>
		<path class="st11" d="M177.1,592l1.6,0.3c-0.2,0.6-0.5,1.1-1,1.4s-1,0.5-1.7,0.5c-1.1,0-1.9-0.4-2.4-1.1c-0.4-0.6-0.6-1.3-0.6-2.1
			c0-1,0.3-1.8,0.8-2.4s1.2-0.9,2-0.9c0.9,0,1.7,0.3,2.2,0.9s0.8,1.5,0.8,2.8h-4.1c0,0.5,0.1,0.9,0.4,1.1s0.6,0.4,0.9,0.4
			c0.3,0,0.5-0.1,0.7-0.2S177,592.3,177.1,592z M177.2,590.4c0-0.5-0.1-0.8-0.4-1.1s-0.5-0.4-0.9-0.4s-0.7,0.1-0.9,0.4
			s-0.3,0.6-0.3,1.1H177.2z"/>
		<path class="st11" d="M183,587.8v1.3h-1.1v2.5c0,0.5,0,0.8,0,0.9s0.1,0.2,0.1,0.2s0.2,0.1,0.3,0.1c0.2,0,0.4-0.1,0.7-0.2l0.1,1.3
			c-0.4,0.2-0.8,0.2-1.3,0.2c-0.3,0-0.6-0.1-0.8-0.2s-0.4-0.2-0.5-0.4s-0.2-0.4-0.2-0.6c0-0.2-0.1-0.6-0.1-1.2V589h-0.8v-1.3h0.8
			v-1.2l1.7-1v2.2h1.1V587.8z"/>
		<path class="st11" d="M184.1,586.9v-1.5h1.6v1.5H184.1z M184.1,594v-6.2h1.6v6.2H184.1z"/>
		<path class="st11" d="M193.1,594h-1.6v-3.2c0-0.7,0-1.1-0.1-1.3s-0.2-0.3-0.3-0.5s-0.3-0.2-0.6-0.2s-0.5,0.1-0.8,0.2
			s-0.4,0.4-0.5,0.6s-0.1,0.7-0.1,1.4v2.8h-1.6v-6.2h1.5v0.9c0.5-0.7,1.2-1.1,2.1-1.1c0.4,0,0.7,0.1,1,0.2s0.5,0.3,0.7,0.5
			s0.3,0.4,0.3,0.7s0.1,0.6,0.1,1.1L193.1,594L193.1,594z"/>
		<path class="st11" d="M194.6,594.4l1.9,0.2c0,0.2,0.1,0.4,0.2,0.5c0.2,0.1,0.4,0.2,0.7,0.2c0.4,0,0.8-0.1,1-0.2
			c0.1-0.1,0.3-0.2,0.3-0.4c0.1-0.1,0.1-0.4,0.1-0.8V593c-0.5,0.7-1.1,1-1.9,1c-0.8,0-1.5-0.4-2-1.1c-0.4-0.6-0.6-1.3-0.6-2.1
			c0-1,0.3-1.8,0.8-2.4s1.1-0.8,1.9-0.8c0.8,0,1.4,0.3,1.9,1v-0.9h1.5v5.6c0,0.7-0.1,1.3-0.2,1.6s-0.3,0.6-0.5,0.9s-0.5,0.4-0.9,0.5
			s-0.8,0.2-1.4,0.2c-1.1,0-1.8-0.2-2.2-0.5s-0.7-0.8-0.7-1.4C194.6,594.6,194.6,594.5,194.6,594.4z M196.1,590.8
			c0,0.7,0.1,1.1,0.4,1.4s0.6,0.5,0.9,0.5c0.4,0,0.7-0.2,1-0.5s0.4-0.8,0.4-1.4c0-0.6-0.1-1.1-0.4-1.4s-0.6-0.5-1-0.5
			s-0.7,0.2-1,0.5S196.1,590.1,196.1,590.8z"/>
		<path class="st11" d="M205.5,594v-8.6h3.7c0.9,0,1.6,0.1,2,0.2s0.7,0.4,1,0.8s0.4,0.8,0.4,1.4c0,0.6-0.2,1.2-0.6,1.6
			s-0.9,0.7-1.7,0.8c0.4,0.2,0.7,0.5,0.9,0.7s0.6,0.7,1,1.4l1,1.7h-2.1l-1.3-1.9c-0.4-0.7-0.8-1.1-0.9-1.3s-0.3-0.3-0.5-0.4
			s-0.5-0.1-0.9-0.1h-0.4v3.6L205.5,594L205.5,594z M207.2,589h1.3c0.8,0,1.4,0,1.6-0.1s0.4-0.2,0.5-0.4s0.2-0.4,0.2-0.6
			c0-0.3-0.1-0.5-0.2-0.7s-0.4-0.3-0.7-0.3c-0.1,0-0.6,0-1.3,0h-1.4L207.2,589L207.2,589z"/>
		<path class="st11" d="M213.7,590.8c0-0.5,0.1-1.1,0.4-1.6s0.7-0.9,1.1-1.2s1-0.4,1.7-0.4c0.9,0,1.7,0.3,2.3,0.9s0.9,1.4,0.9,2.3
			c0,0.9-0.3,1.7-0.9,2.3s-1.4,0.9-2.3,0.9c-0.6,0-1.1-0.1-1.6-0.4s-0.9-0.6-1.2-1.1S213.7,591.5,213.7,590.8z M215.4,590.9
			c0,0.6,0.1,1.1,0.4,1.4s0.7,0.5,1.1,0.5s0.8-0.2,1.1-0.5s0.4-0.8,0.4-1.4c0-0.6-0.1-1.1-0.4-1.4s-0.7-0.5-1.1-0.5
			s-0.8,0.2-1.1,0.5S215.4,590.3,215.4,590.9z"/>
		<path class="st11" d="M221.1,590.8c0-0.5,0.1-1.1,0.4-1.6s0.7-0.9,1.1-1.2s1-0.4,1.7-0.4c0.9,0,1.7,0.3,2.3,0.9s0.9,1.4,0.9,2.3
			c0,0.9-0.3,1.7-0.9,2.3s-1.4,0.9-2.3,0.9c-0.6,0-1.1-0.1-1.6-0.4s-0.9-0.6-1.2-1.1S221.1,591.5,221.1,590.8z M222.8,590.9
			c0,0.6,0.1,1.1,0.4,1.4s0.7,0.5,1.1,0.5s0.8-0.2,1.1-0.5s0.4-0.8,0.4-1.4c0-0.6-0.1-1.1-0.4-1.4s-0.7-0.5-1.1-0.5
			s-0.8,0.2-1.1,0.5S222.8,590.3,222.8,590.9z"/>
		<path class="st11" d="M228.7,587.8h1.5v0.8c0.5-0.7,1.2-1,1.9-1c0.4,0,0.7,0.1,1,0.2s0.5,0.4,0.7,0.7c0.3-0.3,0.6-0.6,0.9-0.7
			s0.7-0.2,1-0.2c0.5,0,0.8,0.1,1.2,0.3s0.6,0.5,0.7,0.8c0.1,0.3,0.2,0.7,0.2,1.3v4h-1.6v-3.6c0-0.6-0.1-1-0.2-1.2
			c-0.2-0.2-0.4-0.4-0.7-0.4c-0.2,0-0.4,0.1-0.7,0.2s-0.3,0.3-0.4,0.6s-0.1,0.7-0.1,1.3v3h-1.6v-3.4c0-0.6,0-1-0.1-1.2
			s-0.1-0.3-0.3-0.4s-0.3-0.1-0.5-0.1c-0.3,0-0.5,0.1-0.7,0.2s-0.3,0.3-0.4,0.6s-0.1,0.7-0.1,1.3v3h-1.6L228.7,587.8L228.7,587.8z"
			/>
	</g>
	<g class="st14">
		<path class="st11" d="M192,608.4h-1.6v-6.2c-0.6,0.6-1.3,1-2.1,1.2v-1.5c0.4-0.1,0.9-0.4,1.4-0.8s0.8-0.9,1-1.4h1.3L192,608.4
			L192,608.4z"/>
		<path class="st11" d="M197.2,599.8c0.8,0,1.5,0.3,2,0.9c0.6,0.7,0.8,1.9,0.8,3.5s-0.3,2.8-0.8,3.5c-0.5,0.6-1.1,0.9-1.9,0.9
			c-0.8,0-1.5-0.3-2-1s-0.8-1.8-0.8-3.4c0-1.6,0.3-2.8,0.8-3.5C195.7,600.1,196.4,599.8,197.2,599.8z M197.2,601.1
			c-0.2,0-0.4,0.1-0.5,0.2s-0.3,0.4-0.4,0.7c-0.1,0.4-0.2,1.1-0.2,2.2s0.1,1.7,0.2,2.1s0.2,0.6,0.4,0.8s0.3,0.2,0.5,0.2
			s0.4-0.1,0.5-0.2s0.3-0.4,0.4-0.7c0.1-0.4,0.2-1.1,0.2-2.1s-0.1-1.7-0.2-2.1s-0.2-0.6-0.4-0.8S197.4,601.1,197.2,601.1z"/>
		<path class="st11" d="M201.1,601.5V600h5.6v1.2c-0.5,0.5-0.9,1.1-1.4,2s-0.8,1.8-1.1,2.7s-0.4,1.8-0.4,2.6h-1.6
			c0-1.2,0.3-2.4,0.7-3.6s1.1-2.3,1.9-3.3h-3.7V601.5z"/>
	</g>
	<rect x="101" y="401.7" class="st13" width="97.7" height="24.9"/>
	<g class="st14">
		<path class="st11" d="M109.3,410.3v-8.6h2.6l1.6,5.9l1.5-5.9h2.6v8.6H116v-6.8l-1.7,6.8h-1.7l-1.7-6.8v6.8H109.3z"/>
		<path class="st11" d="M122.9,408.3l1.6,0.3c-0.2,0.6-0.5,1.1-1,1.4s-1,0.5-1.7,0.5c-1.1,0-1.9-0.4-2.4-1.1
			c-0.4-0.6-0.6-1.3-0.6-2.1c0-1,0.3-1.8,0.8-2.4s1.2-0.9,2-0.9c0.9,0,1.7,0.3,2.2,0.9s0.8,1.5,0.8,2.8h-4.1c0,0.5,0.1,0.9,0.4,1.1
			s0.6,0.4,0.9,0.4s0.5-0.1,0.7-0.2S122.8,408.6,122.9,408.3z M123,406.6c0-0.5-0.1-0.8-0.4-1.1s-0.5-0.4-0.9-0.4s-0.7,0.1-0.9,0.4
			s-0.3,0.6-0.3,1.1H123z"/>
		<path class="st11" d="M129.6,408.3l1.6,0.3c-0.2,0.6-0.5,1.1-1,1.4s-1,0.5-1.7,0.5c-1.1,0-1.9-0.4-2.4-1.1
			c-0.4-0.6-0.6-1.3-0.6-2.1c0-1,0.3-1.8,0.8-2.4s1.2-0.9,2-0.9c0.9,0,1.7,0.3,2.2,0.9s0.8,1.5,0.8,2.8h-4.1c0,0.5,0.1,0.9,0.4,1.1
			s0.6,0.4,0.9,0.4c0.3,0,0.5-0.1,0.7-0.2S129.5,408.6,129.6,408.3z M129.7,406.6c0-0.5-0.1-0.8-0.4-1.1s-0.5-0.4-0.9-0.4
			s-0.7,0.1-0.9,0.4s-0.3,0.6-0.3,1.1H129.7z"/>
		<path class="st11" d="M135.5,404.1v1.3h-1.1v2.5c0,0.5,0,0.8,0,0.9s0.1,0.2,0.1,0.2s0.2,0.1,0.3,0.1c0.2,0,0.4-0.1,0.7-0.2
			l0.1,1.3c-0.4,0.2-0.8,0.2-1.3,0.2c-0.3,0-0.6,0-0.8-0.1s-0.4-0.2-0.5-0.4s-0.2-0.4-0.2-0.6s-0.1-0.6-0.1-1.2v-2.7H132v-1.3h0.8
			v-1.2l1.7-1v2.2L135.5,404.1L135.5,404.1z"/>
		<path class="st11" d="M136.7,403.2v-1.5h1.6v1.5H136.7z M136.7,410.3v-6.2h1.6v6.2H136.7z"/>
		<path class="st11" d="M145.7,410.3H144v-3.2c0-0.7,0-1.1-0.1-1.3s-0.2-0.4-0.3-0.5s-0.3-0.2-0.6-0.2s-0.5,0.1-0.8,0.2
			s-0.4,0.4-0.5,0.6s-0.1,0.7-0.1,1.4v2.8H140v-6.2h1.5v0.9c0.5-0.7,1.2-1.1,2.1-1.1c0.4,0,0.7,0.1,1,0.2s0.5,0.3,0.7,0.5
			s0.3,0.4,0.3,0.7s0.1,0.6,0.1,1.1L145.7,410.3L145.7,410.3z"/>
		<path class="st11" d="M147.2,410.7l1.9,0.2c0,0.2,0.1,0.4,0.2,0.5c0.2,0.1,0.4,0.2,0.7,0.2c0.4,0,0.8-0.1,1-0.2
			c0.1-0.1,0.3-0.2,0.3-0.4c0.1-0.1,0.1-0.4,0.1-0.8v-0.9c-0.5,0.7-1.1,1-1.9,1c-0.8,0-1.5-0.4-2-1.1c-0.4-0.6-0.6-1.3-0.6-2.1
			c0-1,0.3-1.8,0.8-2.4s1.1-0.8,1.9-0.8c0.8,0,1.4,0.3,1.9,1V404h1.5v5.6c0,0.7-0.1,1.3-0.2,1.6s-0.3,0.6-0.5,0.9s-0.5,0.4-0.9,0.5
			s-0.8,0.2-1.4,0.2c-1.1,0-1.8-0.2-2.2-0.5s-0.7-0.8-0.7-1.4C147.2,410.8,147.2,410.8,147.2,410.7z M148.7,407
			c0,0.7,0.1,1.1,0.4,1.5s0.6,0.5,0.9,0.5c0.4,0,0.7-0.2,1-0.5s0.4-0.8,0.4-1.4s-0.1-1.1-0.4-1.4s-0.6-0.5-1-0.5s-0.7,0.2-1,0.5
			S148.7,406.4,148.7,407z"/>
		<path class="st11" d="M158,410.3v-8.6h3.7c0.9,0,1.6,0.1,2,0.2s0.7,0.4,1,0.8s0.4,0.8,0.4,1.4s-0.2,1.2-0.6,1.6s-0.9,0.7-1.7,0.8
			c0.4,0.2,0.7,0.5,0.9,0.7s0.6,0.7,1,1.4l1,1.7h-2.1l-1.3-1.9c-0.4-0.7-0.8-1.1-0.9-1.3s-0.3-0.3-0.5-0.4s-0.5-0.1-0.9-0.1h-0.4
			v3.6L158,410.3L158,410.3z M159.8,405.3h1.3c0.8,0,1.4,0,1.6-0.1s0.4-0.2,0.5-0.4s0.2-0.4,0.2-0.6c0-0.3-0.1-0.5-0.2-0.7
			s-0.4-0.3-0.7-0.3c-0.1,0-0.6,0-1.3,0h-1.4L159.8,405.3L159.8,405.3z"/>
		<path class="st11" d="M166.3,407.1c0-0.5,0.1-1.1,0.4-1.6s0.7-0.9,1.1-1.2s1-0.4,1.7-0.4c0.9,0,1.7,0.3,2.3,0.9s0.9,1.4,0.9,2.3
			s-0.3,1.7-0.9,2.3s-1.4,0.9-2.3,0.9c-0.6,0-1.1-0.1-1.6-0.4s-0.9-0.6-1.2-1.1S166.3,407.8,166.3,407.1z M168,407.2
			c0,0.6,0.1,1.1,0.4,1.4s0.7,0.5,1.1,0.5s0.8-0.2,1.1-0.5s0.4-0.8,0.4-1.4s-0.1-1.1-0.4-1.4s-0.7-0.5-1.1-0.5s-0.8,0.2-1.1,0.5
			S168,406.6,168,407.2z"/>
		<path class="st11" d="M173.6,407.1c0-0.5,0.1-1.1,0.4-1.6s0.7-0.9,1.1-1.2s1-0.4,1.7-0.4c0.9,0,1.7,0.3,2.3,0.9s0.9,1.4,0.9,2.3
			s-0.3,1.7-0.9,2.3s-1.4,0.9-2.3,0.9c-0.6,0-1.1-0.1-1.6-0.4s-0.9-0.6-1.2-1.1S173.6,407.8,173.6,407.1z M175.3,407.2
			c0,0.6,0.1,1.1,0.4,1.4s0.7,0.5,1.1,0.5s0.8-0.2,1.1-0.5s0.4-0.8,0.4-1.4s-0.1-1.1-0.4-1.4s-0.7-0.5-1.1-0.5s-0.8,0.2-1.1,0.5
			S175.3,406.6,175.3,407.2z"/>
		<path class="st11" d="M181.2,404.1h1.5v0.8c0.5-0.7,1.2-1,1.9-1c0.4,0,0.7,0.1,1,0.2s0.5,0.4,0.7,0.7c0.3-0.3,0.6-0.6,0.9-0.7
			s0.7-0.2,1-0.2c0.5,0,0.8,0.1,1.2,0.3s0.6,0.5,0.7,0.8c0.1,0.3,0.2,0.7,0.2,1.3v4h-1.6v-3.6c0-0.6-0.1-1-0.2-1.2
			c-0.2-0.2-0.4-0.4-0.7-0.4c-0.2,0-0.4,0.1-0.7,0.2s-0.3,0.3-0.4,0.6s-0.1,0.7-0.1,1.3v3H185v-3.4c0-0.6,0-1-0.1-1.2
			s-0.1-0.3-0.3-0.4s-0.3-0.1-0.5-0.1c-0.3,0-0.5,0.1-0.7,0.2s-0.3,0.3-0.4,0.6s-0.1,0.7-0.1,1.3v3h-1.6L181.2,404.1L181.2,404.1z"
			/>
	</g>
	<g class="st14">
		<path class="st11" d="M144.5,424.7h-1.6v-6.2c-0.6,0.6-1.3,1-2.1,1.2v-1.5c0.4-0.1,0.9-0.4,1.4-0.8s0.8-0.9,1-1.4h1.3L144.5,424.7
			L144.5,424.7z"/>
		<path class="st11" d="M149.7,416.1c0.8,0,1.5,0.3,2,0.9c0.6,0.7,0.8,1.9,0.8,3.5s-0.3,2.8-0.8,3.5c-0.5,0.6-1.1,0.9-1.9,0.9
			c-0.8,0-1.5-0.3-2-1s-0.8-1.8-0.8-3.4s0.3-2.8,0.8-3.5C148.3,416.4,148.9,416.1,149.7,416.1z M149.7,417.4c-0.2,0-0.4,0.1-0.5,0.2
			s-0.3,0.4-0.4,0.7c-0.1,0.4-0.2,1.1-0.2,2.2s0.1,1.7,0.2,2.1s0.2,0.6,0.4,0.8s0.3,0.2,0.5,0.2s0.4-0.1,0.5-0.2s0.3-0.4,0.4-0.7
			c0.1-0.4,0.2-1.1,0.2-2.1s-0.1-1.7-0.2-2.1s-0.2-0.6-0.4-0.8S149.9,417.4,149.7,417.4z"/>
		<path class="st11" d="M155,420.1c-0.4-0.2-0.7-0.4-0.9-0.7s-0.3-0.7-0.3-1c0-0.6,0.2-1.2,0.7-1.6s1.1-0.6,1.9-0.6
			c0.8,0,1.5,0.2,1.9,0.6s0.7,0.9,0.7,1.6c0,0.4-0.1,0.8-0.3,1.1s-0.5,0.5-0.9,0.7c0.5,0.2,0.8,0.5,1.1,0.8s0.4,0.8,0.4,1.3
			c0,0.8-0.3,1.4-0.8,1.9s-1.2,0.7-2,0.7s-1.4-0.2-2-0.6c-0.6-0.5-0.9-1.1-0.9-2c0-0.5,0.1-0.9,0.3-1.3S154.5,420.3,155,420.1z
			 M155.2,422.1c0,0.5,0.1,0.8,0.3,1.1s0.5,0.4,0.9,0.4c0.3,0,0.6-0.1,0.8-0.4s0.3-0.6,0.3-1.1c0-0.4-0.1-0.7-0.3-1
			s-0.5-0.4-0.9-0.4s-0.7,0.1-0.9,0.4S155.2,421.7,155.2,422.1z M155.4,418.4c0,0.3,0.1,0.6,0.3,0.8s0.4,0.3,0.7,0.3
			s0.6-0.1,0.8-0.3s0.3-0.4,0.3-0.8c0-0.3-0.1-0.6-0.3-0.7s-0.4-0.3-0.7-0.3s-0.6,0.1-0.8,0.3S155.4,418.1,155.4,418.4z"/>
	</g>
	<rect x="107.9" y="243.3" class="st13" width="97.7" height="24.9"/>
	<rect x="126.9" y="85" class="st13" width="97.7" height="24.9"/>
	<g class="st14">
		<path class="st11" d="M147.9,93.6V85h3.7c0.9,0,1.6,0.1,2,0.2s0.7,0.4,1,0.8s0.4,0.8,0.4,1.4s-0.2,1.2-0.6,1.6s-0.9,0.7-1.7,0.8
			c0.4,0.2,0.7,0.5,0.9,0.7s0.6,0.7,1,1.4l1,1.7h-2.1l-1.3-1.9c-0.4-0.7-0.8-1.1-0.9-1.3s-0.3-0.3-0.5-0.4s-0.4,0-0.8,0h-0.4v3.6
			H147.9z M149.6,88.6h1.3c0.8,0,1.4,0,1.6-0.1s0.4-0.2,0.5-0.4s0.2-0.4,0.2-0.6c0-0.3-0.1-0.5-0.2-0.7s-0.4-0.3-0.7-0.3
			c-0.1,0-0.6,0-1.3,0h-1.4L149.6,88.6L149.6,88.6z"/>
		<path class="st11" d="M156.2,90.4c0-0.5,0.1-1.1,0.4-1.6s0.7-0.9,1.1-1.2s1-0.4,1.7-0.4c0.9,0,1.7,0.3,2.3,0.9s0.9,1.4,0.9,2.3
			s-0.3,1.7-0.9,2.3s-1.4,0.9-2.3,0.9c-0.6,0-1.1-0.1-1.6-0.4s-0.9-0.6-1.2-1.1S156.2,91.1,156.2,90.4z M157.9,90.5
			c0,0.6,0.1,1.1,0.4,1.4s0.7,0.5,1.1,0.5s0.8-0.2,1.1-0.5s0.4-0.8,0.4-1.4s-0.1-1.1-0.4-1.4s-0.7-0.5-1.1-0.5s-0.8,0.2-1.1,0.5
			S157.9,89.8,157.9,90.5z"/>
		<path class="st11" d="M163.5,90.4c0-0.5,0.1-1.1,0.4-1.6s0.7-0.9,1.1-1.2s1-0.4,1.7-0.4c0.9,0,1.7,0.3,2.3,0.9s0.9,1.4,0.9,2.3
			s-0.3,1.7-0.9,2.3s-1.4,0.9-2.3,0.9c-0.6,0-1.1-0.1-1.6-0.4s-0.9-0.6-1.2-1.1S163.5,91.1,163.5,90.4z M165.2,90.5
			c0,0.6,0.1,1.1,0.4,1.4s0.7,0.5,1.1,0.5s0.8-0.2,1.1-0.5s0.4-0.8,0.4-1.4s-0.1-1.1-0.4-1.4s-0.7-0.5-1.1-0.5s-0.8,0.2-1.1,0.5
			S165.2,89.8,165.2,90.5z"/>
		<path class="st11" d="M171.1,87.4h1.5v0.8c0.5-0.7,1.2-1,1.9-1c0.4,0,0.7,0.1,1,0.2s0.5,0.4,0.7,0.7c0.3-0.3,0.6-0.6,0.9-0.7
			s0.7-0.2,1-0.2c0.5,0,0.8,0.1,1.2,0.3s0.6,0.5,0.7,0.8c0.1,0.3,0.2,0.7,0.2,1.3v4h-1.6V90c0-0.6-0.1-1-0.2-1.2
			c-0.2-0.2-0.4-0.4-0.7-0.4c-0.2,0-0.4,0.1-0.7,0.2s-0.3,0.3-0.4,0.6s-0.1,0.7-0.1,1.3v3h-1.6v-3.4c0-0.6,0-1-0.1-1.2
			s-0.1-0.3-0.3-0.4s-0.3-0.1-0.5-0.1c-0.3,0-0.5,0.1-0.7,0.2s-0.3,0.3-0.4,0.6s-0.1,0.7-0.1,1.3v3h-1.6L171.1,87.4L171.1,87.4z"/>
		<path class="st11" d="M189.1,93.6h-1.6v-6.2c-0.6,0.6-1.3,1-2.1,1.2v-1.5c0.4-0.1,0.9-0.4,1.4-0.8s0.8-0.9,1-1.4h1.3L189.1,93.6
			L189.1,93.6z"/>
		<path class="st11" d="M195.1,93.6h-1.6v-6.2c-0.6,0.6-1.3,1-2.1,1.2v-1.5c0.4-0.1,0.9-0.4,1.4-0.8s0.8-0.9,1-1.4h1.3L195.1,93.6
			L195.1,93.6z"/>
		<path class="st11" d="M200.3,85c0.8,0,1.5,0.3,2,0.9c0.6,0.7,0.8,1.9,0.8,3.5s-0.3,2.8-0.8,3.5c-0.5,0.6-1.1,0.9-1.9,0.9
			c-0.8,0-1.5-0.3-2-1s-0.8-1.8-0.8-3.4s0.3-2.8,0.8-3.5C198.9,85.2,199.5,85,200.3,85z M200.3,86.3c-0.2,0-0.4,0.1-0.5,0.2
			s-0.3,0.4-0.4,0.7c-0.1,0.4-0.2,1.1-0.2,2.2s0.1,1.7,0.2,2.1s0.2,0.6,0.4,0.8s0.3,0.2,0.5,0.2s0.4-0.1,0.5-0.2s0.3-0.4,0.4-0.7
			c0.1-0.4,0.2-1.1,0.2-2.1s-0.1-1.7-0.2-2.1s-0.2-0.6-0.4-0.8S200.5,86.3,200.3,86.3z"/>
	</g>
	<rect x="653" y="104.1" class="st13" width="97.7" height="38.6"/>
	<rect x="620.4" y="264.8" class="st13" width="97.7" height="12.5"/>
	<g class="st14">
		<path class="st11" d="M641.4,273.4v-8.6h3.7c0.9,0,1.6,0.1,2,0.2s0.7,0.4,1,0.8s0.4,0.8,0.4,1.4s-0.2,1.2-0.6,1.6
			s-0.9,0.7-1.7,0.8c0.4,0.2,0.7,0.5,0.9,0.7s0.6,0.7,1,1.4l1,1.7H647l-1.3-1.9c-0.4-0.7-0.8-1.1-0.9-1.3s-0.3-0.3-0.5-0.4
			s-0.5-0.1-0.9-0.1H643v3.6L641.4,273.4L641.4,273.4z M643.2,268.4h1.3c0.8,0,1.4,0,1.6-0.1s0.4-0.2,0.5-0.4s0.2-0.4,0.2-0.6
			c0-0.3-0.1-0.5-0.2-0.7s-0.4-0.3-0.7-0.3c-0.1,0-0.6,0-1.3,0h-1.4L643.2,268.4L643.2,268.4z"/>
		<path class="st11" d="M649.7,270.2c0-0.5,0.1-1.1,0.4-1.6s0.7-0.9,1.1-1.2s1-0.4,1.7-0.4c0.9,0,1.7,0.3,2.3,0.9s0.9,1.4,0.9,2.3
			s-0.3,1.7-0.9,2.3s-1.4,0.9-2.3,0.9c-0.6,0-1.1-0.1-1.6-0.4s-0.9-0.6-1.2-1.1S649.7,270.9,649.7,270.2z M651.4,270.3
			c0,0.6,0.1,1.1,0.4,1.4s0.7,0.5,1.1,0.5s0.8-0.2,1.1-0.5s0.4-0.8,0.4-1.4s-0.1-1.1-0.4-1.4s-0.7-0.5-1.1-0.5s-0.8,0.2-1.1,0.5
			S651.4,269.7,651.4,270.3z"/>
		<path class="st11" d="M657,270.2c0-0.5,0.1-1.1,0.4-1.6s0.7-0.9,1.1-1.2s1-0.4,1.7-0.4c0.9,0,1.7,0.3,2.3,0.9s0.9,1.4,0.9,2.3
			s-0.3,1.7-0.9,2.3s-1.4,0.9-2.3,0.9c-0.6,0-1.1-0.1-1.6-0.4s-0.9-0.6-1.2-1.1S657,270.9,657,270.2z M658.7,270.3
			c0,0.6,0.1,1.1,0.4,1.4s0.7,0.5,1.1,0.5s0.8-0.2,1.1-0.5s0.4-0.8,0.4-1.4s-0.1-1.1-0.4-1.4s-0.7-0.5-1.1-0.5s-0.8,0.2-1.1,0.5
			S658.7,269.7,658.7,270.3z"/>
		<path class="st11" d="M664.6,267.2h1.5v0.8c0.5-0.7,1.2-1,1.9-1c0.4,0,0.7,0.1,1,0.2s0.5,0.4,0.7,0.7c0.3-0.3,0.6-0.6,0.9-0.7
			s0.7-0.2,1-0.2c0.5,0,0.8,0.1,1.2,0.3s0.6,0.5,0.7,0.8c0.1,0.3,0.2,0.7,0.2,1.3v4h-1.6v-3.6c0-0.6-0.1-1-0.2-1.2
			c-0.2-0.2-0.4-0.4-0.7-0.4c-0.2,0-0.4,0.1-0.7,0.2s-0.3,0.3-0.4,0.6s-0.1,0.7-0.1,1.3v3h-1.6V270c0-0.6,0-1-0.1-1.2
			s-0.1-0.3-0.3-0.4s-0.3-0.1-0.5-0.1c-0.3,0-0.5,0.1-0.7,0.2s-0.3,0.3-0.4,0.6s-0.1,0.7-0.1,1.3v3h-1.6v-6.2H664.6z"/>
		<path class="st11" d="M682.6,273.4H681v-6.2c-0.6,0.6-1.3,1-2.1,1.2v-1.5c0.4-0.1,0.9-0.4,1.4-0.8s0.8-0.9,1-1.4h1.3L682.6,273.4
			L682.6,273.4z"/>
		<path class="st11" d="M688.6,273.4H687v-6.2c-0.6,0.6-1.3,1-2.1,1.2v-1.5c0.4-0.1,0.9-0.4,1.4-0.8s0.8-0.9,1-1.4h1.3L688.6,273.4
			L688.6,273.4z"/>
		<path class="st11" d="M691.1,271.4l1.6-0.2c0,0.3,0.1,0.6,0.3,0.7s0.4,0.2,0.7,0.2s0.6-0.2,0.9-0.5s0.4-1,0.5-1.9
			c-0.4,0.5-0.9,0.7-1.6,0.7c-0.7,0-1.3-0.3-1.7-0.8s-0.7-1.2-0.7-2c0-0.9,0.3-1.6,0.8-2.1s1.2-0.8,2-0.8c0.9,0,1.6,0.3,2.1,1
			s0.8,1.8,0.8,3.3c0,1.6-0.3,2.7-0.9,3.4s-1.3,1-2.3,1c-0.7,0-1.2-0.2-1.6-0.5S691.2,272.1,691.1,271.4z M694.8,267.8
			c0-0.5-0.1-0.9-0.4-1.2s-0.5-0.4-0.8-0.4s-0.6,0.1-0.8,0.4s-0.3,0.6-0.3,1.2s0.1,1,0.3,1.2s0.5,0.4,0.8,0.4s0.6-0.1,0.8-0.4
			S694.8,268.3,694.8,267.8z"/>
	</g>
	<g class="st14">
		<path class="st11" d="M121,223.9v-8.6h3.7c0.9,0,1.6,0.1,2,0.2s0.7,0.4,1,0.8s0.4,0.8,0.4,1.4c0,0.6-0.2,1.2-0.6,1.6
			s-0.9,0.7-1.7,0.8c0.4,0.2,0.7,0.5,0.9,0.7s0.6,0.7,1,1.4l1,1.7h-2.1l-1.3-1.9c-0.4-0.7-0.8-1.1-0.9-1.3s-0.3-0.3-0.5-0.4
			s-0.5-0.1-0.9-0.1h-0.4v3.6H121V223.9z M122.7,218.9h1.3c0.8,0,1.4,0,1.6-0.1s0.4-0.2,0.5-0.4s0.2-0.4,0.2-0.6
			c0-0.3-0.1-0.5-0.2-0.7s-0.4-0.3-0.7-0.3c-0.1,0-0.6,0-1.3,0h-1.4V218.9z"/>
		<path class="st11" d="M129.2,220.7c0-0.5,0.1-1.1,0.4-1.6s0.7-0.9,1.1-1.2s1-0.4,1.7-0.4c0.9,0,1.7,0.3,2.3,0.9s0.9,1.4,0.9,2.3
			c0,0.9-0.3,1.7-0.9,2.3s-1.4,0.9-2.3,0.9c-0.6,0-1.1-0.1-1.6-0.4s-0.9-0.6-1.2-1.1S129.2,221.4,129.2,220.7z M130.9,220.8
			c0,0.6,0.1,1.1,0.4,1.4s0.7,0.5,1.1,0.5s0.8-0.2,1.1-0.5s0.4-0.8,0.4-1.4c0-0.6-0.1-1.1-0.4-1.4s-0.7-0.5-1.1-0.5
			s-0.8,0.2-1.1,0.5S130.9,220.2,130.9,220.8z"/>
		<path class="st11" d="M136.6,220.7c0-0.5,0.1-1.1,0.4-1.6s0.7-0.9,1.1-1.2s1-0.4,1.7-0.4c0.9,0,1.7,0.3,2.3,0.9s0.9,1.4,0.9,2.3
			c0,0.9-0.3,1.7-0.9,2.3s-1.4,0.9-2.3,0.9c-0.6,0-1.1-0.1-1.6-0.4s-0.9-0.6-1.2-1.1S136.6,221.4,136.6,220.7z M138.2,220.8
			c0,0.6,0.1,1.1,0.4,1.4s0.7,0.5,1.1,0.5s0.8-0.2,1.1-0.5s0.4-0.8,0.4-1.4c0-0.6-0.1-1.1-0.4-1.4s-0.7-0.5-1.1-0.5
			s-0.8,0.2-1.1,0.5S138.2,220.2,138.2,220.8z"/>
		<path class="st11" d="M144.1,217.7h1.5v0.8c0.5-0.7,1.2-1,1.9-1c0.4,0,0.7,0.1,1,0.2s0.5,0.4,0.7,0.7c0.3-0.3,0.6-0.6,0.9-0.7
			s0.7-0.2,1-0.2c0.5,0,0.8,0.1,1.2,0.3s0.6,0.5,0.7,0.8c0.1,0.3,0.2,0.7,0.2,1.3v4h-1.6v-3.6c0-0.6-0.1-1-0.2-1.2
			c-0.2-0.2-0.4-0.4-0.7-0.4c-0.2,0-0.4,0.1-0.7,0.2s-0.3,0.3-0.4,0.6s-0.1,0.7-0.1,1.3v3h-1.6v-3.4c0-0.6,0-1-0.1-1.2
			s-0.1-0.3-0.3-0.4s-0.3-0.1-0.5-0.1c-0.3,0-0.5,0.1-0.7,0.2s-0.3,0.3-0.4,0.6s-0.1,0.7-0.1,1.3v3h-1.6L144.1,217.7L144.1,217.7z"
			/>
		<path class="st11" d="M158.3,223.9v-8.6h5.9v1.5H160v2h3.6v1.5H160v3.7L158.3,223.9L158.3,223.9z"/>
		<path class="st11" d="M165.6,216.8v-1.5h1.6v1.5H165.6z M165.6,223.9v-6.2h1.6v6.2H165.6z"/>
		<path class="st11" d="M174.6,223.9H173v-3.2c0-0.7,0-1.1-0.1-1.3s-0.2-0.4-0.3-0.5s-0.3-0.2-0.6-0.2s-0.5,0.1-0.8,0.2
			s-0.4,0.4-0.5,0.6s-0.1,0.7-0.1,1.4v2.8H169v-6.2h1.5v0.9c0.5-0.7,1.2-1.1,2.1-1.1c0.4,0,0.7,0.1,1,0.2s0.5,0.3,0.7,0.5
			s0.3,0.4,0.3,0.7s0.1,0.6,0.1,1.1L174.6,223.9L174.6,223.9z"/>
		<path class="st11" d="M177.5,219.6l-1.5-0.3c0.2-0.6,0.5-1,0.9-1.3s1-0.4,1.8-0.4c0.7,0,1.3,0.1,1.6,0.3s0.6,0.4,0.8,0.7
			s0.2,0.8,0.2,1.5v1.9c0,0.5,0,1,0.1,1.2s0.2,0.5,0.3,0.8H180c0-0.1-0.1-0.3-0.2-0.5c0-0.1,0-0.2-0.1-0.2c-0.3,0.3-0.6,0.5-0.9,0.6
			s-0.7,0.2-1,0.2c-0.6,0-1.1-0.2-1.5-0.5s-0.6-0.8-0.6-1.3c0-0.4,0.1-0.7,0.3-0.9s0.4-0.5,0.7-0.6s0.7-0.3,1.3-0.4
			c0.8-0.1,1.3-0.3,1.6-0.4v-0.2c0-0.3-0.1-0.5-0.2-0.7s-0.5-0.2-0.9-0.2c-0.3,0-0.5,0.1-0.7,0.2S177.6,219.3,177.5,219.6z
			 M179.7,220.9c-0.2,0.1-0.5,0.2-1,0.3s-0.8,0.2-0.9,0.3c-0.2,0.2-0.3,0.3-0.3,0.6c0,0.2,0.1,0.4,0.3,0.6s0.4,0.3,0.7,0.3
			s0.6-0.1,0.8-0.3c0.2-0.1,0.3-0.3,0.4-0.5c0-0.1,0.1-0.4,0.1-0.8v-0.5H179.7z"/>
		<path class="st11" d="M188.6,223.9H187v-3.2c0-0.7,0-1.1-0.1-1.3s-0.2-0.4-0.3-0.5s-0.3-0.2-0.6-0.2s-0.5,0.1-0.8,0.2
			s-0.4,0.4-0.5,0.6s-0.1,0.7-0.1,1.4v2.8H183v-6.2h1.5v0.9c0.5-0.7,1.2-1.1,2.1-1.1c0.4,0,0.7,0.1,1,0.2s0.5,0.3,0.7,0.5
			s0.3,0.4,0.3,0.7s0.1,0.6,0.1,1.1L188.6,223.9L188.6,223.9z"/>
		<path class="st11" d="M195.7,219.5l-1.6,0.3c-0.1-0.3-0.2-0.6-0.4-0.7s-0.4-0.2-0.8-0.2c-0.4,0-0.7,0.1-1,0.4s-0.4,0.8-0.4,1.4
			c0,0.7,0.1,1.3,0.4,1.6s0.6,0.5,1,0.5c0.3,0,0.6-0.1,0.8-0.3s0.3-0.5,0.4-0.9l1.6,0.3c-0.2,0.7-0.5,1.3-1,1.7s-1.1,0.6-1.9,0.6
			c-0.9,0-1.6-0.3-2.2-0.9s-0.8-1.4-0.8-2.4s0.3-1.8,0.8-2.4s1.3-0.9,2.2-0.9c0.8,0,1.4,0.2,1.8,0.5S195.5,218.8,195.7,219.5z"/>
		<path class="st11" d="M200.5,221.9l1.6,0.3c-0.2,0.6-0.5,1.1-1,1.4s-1,0.5-1.7,0.5c-1.1,0-1.9-0.4-2.4-1.1
			c-0.4-0.6-0.6-1.3-0.6-2.1c0-1,0.3-1.8,0.8-2.4s1.2-0.9,2-0.9c0.9,0,1.7,0.3,2.2,0.9s0.8,1.5,0.8,2.8h-4.1c0,0.5,0.1,0.9,0.4,1.1
			s0.6,0.4,0.9,0.4c0.3,0,0.5-0.1,0.7-0.2S200.5,222.2,200.5,221.9z M200.6,220.3c0-0.5-0.1-0.8-0.4-1.1s-0.5-0.4-0.9-0.4
			s-0.7,0.1-0.9,0.4s-0.3,0.6-0.3,1.1H200.6z"/>
	</g>
	<g class="st14">
		<path class="st11" d="M626.9,163.4v-8.6h3.7c0.9,0,1.6,0.1,2,0.2s0.7,0.4,1,0.8s0.4,0.8,0.4,1.4c0,0.6-0.2,1.2-0.6,1.6
			s-0.9,0.7-1.7,0.8c0.4,0.2,0.7,0.5,0.9,0.7s0.6,0.7,1,1.4l1,1.7h-2.1l-1.3-1.9c-0.4-0.7-0.8-1.1-0.9-1.3s-0.3-0.3-0.5-0.4
			s-0.5-0.1-0.9-0.1h-0.4v3.6h-1.6V163.4z M628.7,158.4h1.3c0.8,0,1.4,0,1.6-0.1s0.4-0.2,0.5-0.4s0.2-0.4,0.2-0.6
			c0-0.3-0.1-0.5-0.2-0.7s-0.4-0.3-0.7-0.3c-0.1,0-0.6,0-1.3,0h-1.4L628.7,158.4L628.7,158.4z"/>
		<path class="st11" d="M635.2,160.2c0-0.5,0.1-1.1,0.4-1.6s0.7-0.9,1.1-1.2s1-0.4,1.7-0.4c0.9,0,1.7,0.3,2.3,0.9s0.9,1.4,0.9,2.3
			c0,0.9-0.3,1.7-0.9,2.3s-1.4,0.9-2.3,0.9c-0.6,0-1.1-0.1-1.6-0.4s-0.9-0.6-1.2-1.1S635.2,160.9,635.2,160.2z M636.9,160.3
			c0,0.6,0.1,1.1,0.4,1.4s0.7,0.5,1.1,0.5s0.8-0.2,1.1-0.5s0.4-0.8,0.4-1.4c0-0.6-0.1-1.1-0.4-1.4s-0.7-0.5-1.1-0.5
			s-0.8,0.2-1.1,0.5S636.9,159.6,636.9,160.3z"/>
		<path class="st11" d="M642.5,160.2c0-0.5,0.1-1.1,0.4-1.6s0.7-0.9,1.1-1.2s1-0.4,1.7-0.4c0.9,0,1.7,0.3,2.3,0.9s0.9,1.4,0.9,2.3
			c0,0.9-0.3,1.7-0.9,2.3s-1.4,0.9-2.3,0.9c-0.6,0-1.1-0.1-1.6-0.4s-0.9-0.6-1.2-1.1S642.5,160.9,642.5,160.2z M644.2,160.3
			c0,0.6,0.1,1.1,0.4,1.4s0.7,0.5,1.1,0.5s0.8-0.2,1.1-0.5s0.4-0.8,0.4-1.4c0-0.6-0.1-1.1-0.4-1.4s-0.7-0.5-1.1-0.5
			s-0.8,0.2-1.1,0.5S644.2,159.6,644.2,160.3z"/>
		<path class="st11" d="M650.1,157.1h1.5v0.8c0.5-0.7,1.2-1,1.9-1c0.4,0,0.7,0.1,1,0.2s0.5,0.4,0.7,0.7c0.3-0.3,0.6-0.6,0.9-0.7
			s0.7-0.2,1-0.2c0.5,0,0.8,0.1,1.2,0.3s0.6,0.5,0.7,0.8c0.1,0.3,0.2,0.7,0.2,1.3v4h-1.6v-3.6c0-0.6-0.1-1-0.2-1.2
			c-0.2-0.2-0.4-0.4-0.7-0.4c-0.2,0-0.4,0.1-0.7,0.2s-0.3,0.3-0.4,0.6s-0.1,0.7-0.1,1.3v3h-1.6V160c0-0.6,0-1-0.1-1.2
			s-0.1-0.3-0.3-0.4s-0.3-0.1-0.5-0.1c-0.3,0-0.5,0.1-0.7,0.2s-0.3,0.3-0.4,0.6s-0.1,0.7-0.1,1.3v3h-1.6v-6.3H650.1z"/>
		<path class="st11" d="M664.3,163.4v-8.6h3.7c0.9,0,1.6,0.1,2,0.2s0.7,0.4,1,0.8s0.4,0.8,0.4,1.4c0,0.6-0.2,1.2-0.6,1.6
			s-0.9,0.7-1.7,0.8c0.4,0.2,0.7,0.5,0.9,0.7s0.6,0.7,1,1.4l1,1.7h-2.1l-1.3-1.9c-0.4-0.7-0.8-1.1-0.9-1.3s-0.3-0.3-0.5-0.4
			s-0.5-0.1-0.9-0.1H666v3.6h-1.7V163.4z M666,158.4h1.3c0.8,0,1.4,0,1.6-0.1s0.4-0.2,0.5-0.4s0.2-0.4,0.2-0.6
			c0-0.3-0.1-0.5-0.2-0.7s-0.4-0.3-0.7-0.3c-0.1,0-0.6,0-1.3,0H666V158.4z"/>
		<path class="st11" d="M676.5,161.4l1.6,0.3c-0.2,0.6-0.5,1.1-1,1.4s-1,0.5-1.7,0.5c-1.1,0-1.9-0.4-2.4-1.1
			c-0.4-0.6-0.6-1.3-0.6-2.1c0-1,0.3-1.8,0.8-2.4s1.2-0.9,2-0.9c0.9,0,1.7,0.3,2.2,0.9s0.8,1.5,0.8,2.8h-4.1c0,0.5,0.1,0.9,0.4,1.1
			s0.6,0.4,0.9,0.4c0.3,0,0.5-0.1,0.7-0.2S676.4,161.7,676.5,161.4z M676.6,159.7c0-0.5-0.1-0.8-0.4-1.1s-0.5-0.4-0.9-0.4
			s-0.7,0.1-0.9,0.4s-0.3,0.6-0.3,1.1H676.6z"/>
		<path class="st11" d="M679,161.6l1.7-0.3c0.1,0.3,0.2,0.6,0.4,0.7s0.5,0.2,0.9,0.2s0.7-0.1,1-0.2c0.1-0.1,0.2-0.3,0.2-0.4
			c0-0.1,0-0.2-0.1-0.3s-0.3-0.2-0.6-0.2c-1.3-0.3-2.2-0.6-2.5-0.8c-0.5-0.3-0.7-0.8-0.7-1.4c0-0.5,0.2-1,0.6-1.4s1.1-0.6,2-0.6
			s1.5,0.1,1.9,0.4s0.7,0.7,0.9,1.2l-1.6,0.3c-0.1-0.2-0.2-0.4-0.4-0.6s-0.5-0.2-0.8-0.2c-0.4,0-0.7,0.1-0.9,0.2
			c-0.1,0.1-0.2,0.2-0.2,0.3s0.1,0.2,0.2,0.3c0.1,0.1,0.7,0.3,1.5,0.5s1.5,0.4,1.8,0.7s0.5,0.7,0.5,1.2c0,0.6-0.2,1.1-0.7,1.5
			s-1.2,0.6-2.1,0.6c-0.8,0-1.5-0.2-2-0.5S679.2,162.2,679,161.6z"/>
		<path class="st11" d="M689.9,161.4l1.6,0.3c-0.2,0.6-0.5,1.1-1,1.4s-1,0.5-1.7,0.5c-1.1,0-1.9-0.4-2.4-1.1
			c-0.4-0.6-0.6-1.3-0.6-2.1c0-1,0.3-1.8,0.8-2.4s1.2-0.9,2-0.9c0.9,0,1.7,0.3,2.2,0.9s0.8,1.5,0.8,2.8h-4.1c0,0.5,0.1,0.9,0.4,1.1
			s0.6,0.4,0.9,0.4c0.3,0,0.5-0.1,0.7-0.2S689.8,161.7,689.9,161.4z M690,159.7c0-0.5-0.1-0.8-0.4-1.1s-0.5-0.4-0.9-0.4
			s-0.7,0.1-0.9,0.4s-0.3,0.6-0.3,1.1H690z"/>
		<path class="st11" d="M694.2,159l-1.5-0.3c0.2-0.6,0.5-1,0.9-1.3s1-0.4,1.8-0.4c0.7,0,1.3,0.1,1.6,0.3s0.6,0.4,0.8,0.7
			s0.2,0.8,0.2,1.5v1.9c0,0.5,0,1,0.1,1.2s0.2,0.5,0.3,0.8h-1.6c0-0.1-0.1-0.3-0.2-0.5c0-0.1,0-0.2-0.1-0.2
			c-0.3,0.3-0.6,0.5-0.9,0.6s-0.7,0.2-1,0.2c-0.6,0-1.1-0.2-1.5-0.5s-0.6-0.8-0.6-1.3c0-0.4,0.1-0.7,0.3-0.9s0.4-0.5,0.7-0.6
			s0.7-0.3,1.3-0.4c0.8-0.1,1.3-0.3,1.6-0.4v-0.2c0-0.3-0.1-0.5-0.2-0.7s-0.5-0.2-0.9-0.2c-0.3,0-0.5,0.1-0.7,0.2
			S694.3,158.8,694.2,159z M696.4,160.4c-0.2,0.1-0.5,0.2-1,0.3s-0.8,0.2-0.9,0.3c-0.2,0.2-0.3,0.3-0.3,0.6c0,0.2,0.1,0.4,0.3,0.6
			s0.4,0.3,0.7,0.3s0.6-0.1,0.8-0.3c0.2-0.1,0.3-0.3,0.4-0.5c0-0.1,0.1-0.4,0.1-0.8L696.4,160.4L696.4,160.4z"/>
		<path class="st11" d="M701.2,163.4h-1.6v-6.2h1.5v0.9c0.3-0.4,0.5-0.7,0.7-0.8s0.4-0.2,0.7-0.2c0.4,0,0.7,0.1,1.1,0.3l-0.5,1.4
			c-0.3-0.2-0.5-0.3-0.8-0.3c-0.2,0-0.4,0.1-0.6,0.2s-0.3,0.4-0.4,0.7s-0.1,1-0.1,2.1L701.2,163.4L701.2,163.4z"/>
		<path class="st11" d="M709.7,159l-1.6,0.3c-0.1-0.3-0.2-0.6-0.4-0.7s-0.4-0.2-0.8-0.2c-0.4,0-0.7,0.1-1,0.4s-0.4,0.8-0.4,1.4
			c0,0.7,0.1,1.3,0.4,1.6s0.6,0.5,1,0.5c0.3,0,0.6-0.1,0.8-0.3s0.3-0.5,0.4-0.9l1.6,0.3c-0.2,0.7-0.5,1.3-1,1.7s-1.1,0.6-1.9,0.6
			c-0.9,0-1.6-0.3-2.2-0.9s-0.8-1.4-0.8-2.4s0.3-1.8,0.8-2.4s1.3-0.9,2.2-0.9c0.8,0,1.4,0.2,1.8,0.5S709.5,158.3,709.7,159z"/>
		<path class="st11" d="M712.6,154.8v3.2c0.5-0.6,1.2-0.9,1.9-0.9c0.4,0,0.7,0.1,1,0.2s0.5,0.3,0.7,0.5s0.3,0.5,0.3,0.7
			s0.1,0.7,0.1,1.2v3.7H715v-3.3c0-0.7,0-1.1-0.1-1.2s-0.2-0.3-0.3-0.4s-0.4-0.2-0.6-0.2c-0.3,0-0.5,0.1-0.7,0.2s-0.4,0.3-0.5,0.6
			s-0.1,0.7-0.1,1.2v3.1h-1.6v-8.6H712.6z"/>
		<path class="st11" d="M640.2,173.4l-1.5-0.3c0.2-0.6,0.5-1,0.9-1.3s1-0.4,1.8-0.4c0.7,0,1.3,0.1,1.6,0.3s0.6,0.4,0.8,0.7
			s0.2,0.8,0.2,1.5v1.9c0,0.5,0,1,0.1,1.2s0.2,0.5,0.3,0.8h-1.6c0-0.1-0.1-0.3-0.2-0.5c0-0.1,0-0.2-0.1-0.2
			c-0.3,0.3-0.6,0.5-0.9,0.6s-0.7,0.2-1,0.2c-0.6,0-1.1-0.2-1.5-0.5s-0.6-0.8-0.6-1.3c0-0.4,0.1-0.7,0.3-0.9s0.4-0.5,0.7-0.6
			s0.7-0.3,1.3-0.4c0.8-0.1,1.3-0.3,1.6-0.4v-0.2c0-0.3-0.1-0.5-0.2-0.7s-0.5-0.2-0.9-0.2c-0.3,0-0.5,0.1-0.7,0.2
			S640.3,173.2,640.2,173.4z M642.4,174.8c-0.2,0.1-0.5,0.2-1,0.3s-0.8,0.2-0.9,0.3c-0.2,0.2-0.3,0.3-0.3,0.6c0,0.2,0.1,0.4,0.3,0.6
			s0.4,0.3,0.7,0.3s0.6-0.1,0.8-0.3c0.2-0.1,0.3-0.3,0.4-0.5c0-0.1,0.1-0.4,0.1-0.8L642.4,174.8L642.4,174.8z"/>
		<path class="st11" d="M651.3,177.8h-1.6v-3.2c0-0.7,0-1.1-0.1-1.3s-0.2-0.4-0.3-0.5s-0.3-0.2-0.6-0.2s-0.5,0.1-0.8,0.2
			s-0.4,0.4-0.5,0.6s-0.1,0.7-0.1,1.4v2.8h-1.6v-6.2h1.5v0.9c0.5-0.7,1.2-1.1,2.1-1.1c0.4,0,0.7,0.1,1,0.2s0.5,0.3,0.7,0.5
			s0.3,0.4,0.3,0.7s0.1,0.6,0.1,1.1v4.1H651.3z"/>
		<path class="st11" d="M658.6,177.8h-1.5v-0.9c-0.3,0.4-0.6,0.6-0.9,0.8s-0.7,0.3-1,0.3c-0.7,0-1.3-0.3-1.8-0.9s-0.8-1.4-0.8-2.4
			c0-1.1,0.2-1.9,0.7-2.4s1.1-0.8,1.9-0.8c0.7,0,1.3,0.3,1.8,0.9v-3.1h1.6V177.8z M654.2,174.5c0,0.7,0.1,1.1,0.3,1.4
			c0.3,0.4,0.6,0.6,1.1,0.6c0.4,0,0.7-0.2,1-0.5s0.4-0.8,0.4-1.4c0-0.7-0.1-1.2-0.4-1.5s-0.6-0.5-1-0.5s-0.7,0.2-1,0.5
			S654.2,173.9,654.2,174.5z"/>
		<path class="st11" d="M663.6,177.8v-8.6h1.7v8.6H663.6z"/>
		<path class="st11" d="M672.6,177.8H671v-3.2c0-0.7,0-1.1-0.1-1.3s-0.2-0.4-0.3-0.5s-0.3-0.2-0.6-0.2s-0.5,0.1-0.8,0.2
			s-0.4,0.4-0.5,0.6s-0.1,0.7-0.1,1.4v2.8H667v-6.2h1.5v0.9c0.5-0.7,1.2-1.1,2.1-1.1c0.4,0,0.7,0.1,1,0.2s0.5,0.3,0.7,0.5
			s0.3,0.4,0.3,0.7s0.1,0.6,0.1,1.1v4.1H672.6z"/>
		<path class="st11" d="M673.7,176l1.7-0.3c0.1,0.3,0.2,0.6,0.4,0.7s0.5,0.2,0.9,0.2s0.7-0.1,1-0.2c0.1-0.1,0.2-0.3,0.2-0.4
			c0-0.1,0-0.2-0.1-0.3s-0.3-0.2-0.6-0.2c-1.3-0.3-2.2-0.6-2.5-0.8c-0.5-0.3-0.7-0.8-0.7-1.4c0-0.5,0.2-1,0.6-1.4s1.1-0.6,2-0.6
			s1.5,0.1,1.9,0.4s0.7,0.7,0.9,1.2l-1.6,0.3c-0.1-0.2-0.2-0.4-0.4-0.6s-0.5-0.2-0.8-0.2c-0.4,0-0.7,0.1-0.9,0.2
			c-0.1,0.1-0.2,0.2-0.2,0.3s0.1,0.2,0.2,0.3c0.1,0.1,0.7,0.3,1.5,0.5s1.5,0.4,1.8,0.7s0.5,0.7,0.5,1.2c0,0.6-0.2,1.1-0.7,1.5
			s-1.2,0.6-2.1,0.6c-0.8,0-1.5-0.2-2-0.5S673.8,176.6,673.7,176z"/>
		<path class="st11" d="M680.9,170.7v-1.5h1.6v1.5H680.9z M680.9,177.8v-6.2h1.6v6.2H680.9z"/>
		<path class="st11" d="M684.1,178.2l1.9,0.2c0,0.2,0.1,0.4,0.2,0.5c0.2,0.1,0.4,0.2,0.7,0.2c0.4,0,0.8-0.1,1-0.2
			c0.1-0.1,0.3-0.2,0.3-0.4c0.1-0.1,0.1-0.4,0.1-0.8v-0.9c-0.5,0.7-1.1,1-1.9,1c-0.8,0-1.5-0.4-2-1.1c-0.4-0.6-0.6-1.3-0.6-2.1
			c0-1,0.3-1.8,0.8-2.4s1.1-0.8,1.9-0.8c0.8,0,1.4,0.3,1.9,1v-0.9h1.5v5.6c0,0.7-0.1,1.3-0.2,1.6s-0.3,0.6-0.5,0.9s-0.5,0.4-0.9,0.5
			s-0.8,0.2-1.4,0.2c-1.1,0-1.8-0.2-2.2-0.5s-0.7-0.8-0.7-1.4C684.1,178.3,684.1,178.3,684.1,178.2z M685.6,174.5
			c0,0.7,0.1,1.1,0.4,1.5s0.6,0.5,0.9,0.5c0.4,0,0.7-0.2,1-0.5s0.4-0.8,0.4-1.4c0-0.6-0.1-1.1-0.4-1.4s-0.6-0.5-1-0.5
			s-0.7,0.2-1,0.5S685.6,173.9,685.6,174.5z"/>
		<path class="st11" d="M693.2,169.2v3.2c0.5-0.6,1.2-0.9,1.9-0.9c0.4,0,0.7,0.1,1,0.2s0.5,0.3,0.7,0.5s0.3,0.5,0.3,0.7
			s0.1,0.7,0.1,1.2v3.7h-1.6v-3.3c0-0.7,0-1.1-0.1-1.2s-0.2-0.3-0.3-0.4s-0.4-0.2-0.6-0.2c-0.3,0-0.5,0.1-0.7,0.2s-0.4,0.3-0.5,0.6
			s-0.1,0.7-0.1,1.2v3.1h-1.6v-8.6H693.2z"/>
		<path class="st11" d="M701.8,171.5v1.3h-1.1v2.5c0,0.5,0,0.8,0,0.9s0.1,0.2,0.1,0.2s0.2,0.1,0.3,0.1c0.2,0,0.4-0.1,0.7-0.2
			l0.1,1.3c-0.4,0.2-0.8,0.2-1.3,0.2c-0.3,0-0.6,0-0.8-0.1s-0.4-0.2-0.5-0.4s-0.2-0.4-0.2-0.6c0-0.2-0.1-0.6-0.1-1.2v-2.7h-0.8v-1.3
			h0.8v-1.2l1.7-1v2.2H701.8z"/>
		<path class="st11" d="M702.3,176l1.7-0.3c0.1,0.3,0.2,0.6,0.4,0.7s0.5,0.2,0.9,0.2s0.7-0.1,1-0.2c0.1-0.1,0.2-0.3,0.2-0.4
			c0-0.1,0-0.2-0.1-0.3s-0.3-0.2-0.6-0.2c-1.3-0.3-2.2-0.6-2.5-0.8c-0.5-0.3-0.7-0.8-0.7-1.4c0-0.5,0.2-1,0.6-1.4s1.1-0.6,2-0.6
			s1.5,0.1,1.9,0.4s0.7,0.7,0.9,1.2l-1.6,0.3c-0.1-0.2-0.2-0.4-0.4-0.6s-0.5-0.2-0.8-0.2c-0.4,0-0.7,0.1-0.9,0.2
			c-0.1,0.1-0.2,0.2-0.2,0.3s0.1,0.2,0.2,0.3c0.1,0.1,0.7,0.3,1.5,0.5s1.5,0.4,1.8,0.7s0.5,0.7,0.5,1.2c0,0.6-0.2,1.1-0.7,1.5
			s-1.2,0.6-2.1,0.6c-0.8,0-1.5-0.2-2-0.5S702.5,176.6,702.3,176z"/>
	</g>
</g>
<g id="outline">
	<polygon class="st15" points="103.6,44.8 657.6,32.2 661.1,95 740.7,92 708.8,665.7 61.5,665.7 56.5,531.9 	"/>
	<polyline class="st16" points="245,117.3 250.5,40.1 309.4,40.1 309.4,91.1 289.1,90.8 	"/>
	<line class="st16" x1="309.4" y1="91.1" x2="433.2" y2="91.1"/>
	<polyline class="st16" points="451.8,91.1 451.8,36.9 538.3,34.9 538.3,91.1 468.9,91.1 	"/>
	<line class="st16" x1="246.9" y1="91.1" x2="268.5" y2="91.1"/>
	<polyline class="st16" points="245,133.8 243.9,152.3 238.6,244.6 	"/>
	<line class="st16" x1="94.5" y1="139" x2="243.9" y2="152.3"/>
	<polyline class="st16" points="80.3,285.8 234.5,299.7 237.1,259.4 231.9,341.8 	"/>
	<line class="st16" x1="230.9" y1="358.5" x2="224.8" y2="444.9"/>
	<line class="st16" x1="57.7" y1="518.7" x2="159" y2="518.7"/>
	<polyline class="st16" points="177.2,518.7 219.4,518.7 276.6,518.7 	"/>
	<line class="st16" x1="224.8" y1="461.2" x2="219.4" y2="518.7"/>
	<line class="st16" x1="230.9" y1="375.3" x2="276.6" y2="375.3"/>
	<polyline class="st16" points="291.2,375.3 378.8,375.3 353.2,375.3 353.2,359.5 	"/>
	<polyline class="st16" points="353.2,341.8 353.2,117.3 306.3,117.3 602.6,117.3 602.6,111.5 602.6,126.8 	"/>
	<polyline class="st16" points="602.6,146.6 602.6,320.7 621.8,320.7 409.4,320.7 	"/>
	<line class="st16" x1="391.8" y1="320.7" x2="297" y2="320.7"/>
	<line class="st16" x1="276.6" y1="320.7" x2="233.2" y2="320.7"/>
	<polyline class="st16" points="299.9,319.4 299.9,306 306.3,306 	"/>
	<line class="st16" x1="353.2" y1="306" x2="346.2" y2="306"/>
	<polyline class="st16" points="353.2,223.9 277.8,223.9 277.8,212.1 	"/>
	<polyline class="st16" points="277.8,198.7 277.8,184 353.2,184 	"/>
	<polyline class="st16" points="602.6,93.1 602.6,34.9 602.6,89.5 630.4,89.5 	"/>
	<line class="st16" x1="650.4" y1="89.2" x2="660.8" y2="89.2"/>
	<polyline class="st16" points="639.8,221.4 733.4,221.4 726.2,320.7 639.8,320.7 	"/>
	<polyline class="st16" points="618.3,221.4 602.6,221.4 602.6,335.5 	"/>
	<polyline class="st16" points="602.6,355.2 602.6,442.2 555.8,442.2 555.8,376.1 569.4,376.1 	"/>
	<polyline class="st16" points="555.8,442.2 555.8,520.5 573.4,520.5 394.7,520.5 438.1,520.5 438.1,375.3 396.6,375.3 	"/>
	<rect x="476" y="375.3" class="st16" width="39.1" height="104.9"/>
	<line class="st16" x1="588.2" y1="375.3" x2="602.6" y2="375.3"/>
	<polyline class="st16" points="293.1,518.7 378.4,518.7 348.3,518.7 345.9,596.3 	"/>
	<line class="st16" x1="346.5" y1="615.4" x2="346.5" y2="665.7"/>
	<polyline class="st16" points="591.8,520.5 715.8,520.5 609.9,520.5 609.2,597.6 	"/>
	<line class="st16" x1="609.9" y1="615.9" x2="609.9" y2="665.7"/>
	<line class="st16" x1="648.7" y1="520.5" x2="648.7" y2="515"/>
	<polyline class="st16" points="648.7,498.2 648.7,454.2 648.7,471 719.4,471 719.4,422.4 697.6,422.4 697.6,364.6 709.8,364.6 
		709.8,320.7 648.7,320.7 648.7,341.8 	"/>
	<polyline class="st16" points="697.6,364.6 648.7,364.6 648.7,388.5 648.7,359.5 	"/>
	<polyline class="st16" points="697.6,410.8 648.7,410.8 648.7,405.6 648.7,438 	"/>
	<circle class="st16" cx="572.7" cy="63.3" r="15.6"/>
	<line class="st16" x1="510" y1="518.7" x2="510" y2="596.3"/>
</g>
<g id="icons">
	<g>
		<circle class="st17" cx="678.3" cy="435.7" r="13.9"/>
		<circle class="st18" cx="678.9" cy="430.2" r="2.1"/>
		<path class="st18" d="M678.9,433.2c-1.9,0-3.3,2.6-3.3,5.9h2.1v3.1h2.5v-3.1h2.1C682.3,435.9,680.7,433.2,678.9,433.2z"/>
		<g>
			<g class="st14">
				<path class="st19" d="M665.4,456l-1.3-4.8h0.7l0.8,3.2c0.1,0.3,0.1,0.7,0.2,1c0.1-0.5,0.2-0.8,0.2-0.9l0.9-3.3h0.8l0.7,2.4
					c0.2,0.7,0.3,1.2,0.3,1.7c0.1-0.3,0.1-0.7,0.2-1.1l0.8-3.1h0.7l-1.3,4.8h-0.7l-1-3.7c-0.1-0.3-0.1-0.5-0.1-0.5
					c0,0.2-0.1,0.4-0.1,0.5l-1,3.7L665.4,456L665.4,456z"/>
			</g>
			<g class="st14">
				<path class="st19" d="M670.5,454.2c0-0.7,0.2-1.1,0.5-1.4c0.3-0.2,0.7-0.4,1.1-0.4c0.4,0,0.9,0.1,1.2,0.4s0.4,0.8,0.4,1.3
					c0,0.4-0.1,0.8-0.2,1.1c-0.1,0.2-0.3,0.4-0.5,0.5s-0.5,0.2-0.9,0.2s-0.9-0.1-1.2-0.4C670.6,455.3,670.5,454.9,670.5,454.2z
					 M671.1,454.2c0,0.4,0.1,0.8,0.3,1s0.4,0.3,0.8,0.3c0.3,0,0.5-0.1,0.8-0.3c0.2-0.2,0.3-0.5,0.3-1c0-0.4-0.1-0.8-0.3-1
					s-0.4-0.3-0.8-0.3c-0.3,0-0.5,0.1-0.8,0.3C671.2,453.4,671.1,453.8,671.1,454.2z"/>
				<path class="st19" d="M674.5,456v-3.5h0.5v0.4c0.1-0.2,0.2-0.3,0.4-0.4s0.4-0.1,0.7-0.1c0.2,0,0.4,0,0.7,0.1
					c0.2,0.1,0.3,0.2,0.3,0.4c0.3-0.4,0.7-0.7,1.1-0.7c0.3,0,0.7,0.1,0.8,0.3c0.1,0.2,0.3,0.4,0.3,0.9v2.4h-0.5v-2.2
					c0-0.2,0-0.4-0.1-0.5c0-0.1-0.1-0.2-0.2-0.2c-0.1-0.1-0.2-0.1-0.3-0.1c-0.2,0-0.4,0.1-0.7,0.2c-0.1,0.1-0.2,0.4-0.2,0.8v2.1
					h-0.5v-2.3c0-0.2,0-0.4-0.1-0.5s-0.2-0.2-0.4-0.2s-0.3,0-0.4,0.1c-0.1,0.1-0.2,0.2-0.3,0.4c-0.1,0.2-0.1,0.4-0.1,0.8v1.9
					L674.5,456L674.5,456z"/>
				<path class="st19" d="M682.4,454.9l0.7,0.1c-0.1,0.3-0.3,0.7-0.5,0.9c-0.2,0.2-0.5,0.3-1,0.3s-0.9-0.1-1.2-0.4s-0.4-0.8-0.4-1.3
					s0.1-1.1,0.4-1.4c0.3-0.3,0.7-0.4,1.2-0.4c0.4,0,0.9,0.1,1.1,0.4c0.3,0.3,0.4,0.8,0.4,1.3v0.1h-2.6c0,0.4,0.1,0.7,0.3,0.9
					c0.2,0.2,0.4,0.3,0.8,0.3c0.2,0,0.4-0.1,0.5-0.2C682.2,455.3,682.4,455.1,682.4,454.9z M680.6,453.9h2c0-0.3-0.1-0.5-0.2-0.7
					c-0.2-0.2-0.4-0.3-0.8-0.3c-0.2,0-0.5,0.1-0.7,0.2C680.8,453.2,680.6,453.6,680.6,453.9z"/>
				<path class="st19" d="M683.8,456v-3.5h0.5v0.5c0.2-0.4,0.7-0.5,1.1-0.5c0.2,0,0.4,0,0.5,0.1c0.2,0.1,0.3,0.2,0.4,0.3
					c0.1,0.1,0.1,0.2,0.2,0.4c0,0.1,0,0.3,0,0.5v2.2H686v-2c0-0.2,0-0.4-0.1-0.5c0-0.1-0.1-0.2-0.2-0.3c-0.1-0.1-0.2-0.1-0.4-0.1
					s-0.4,0.1-0.7,0.2c-0.2,0.1-0.3,0.4-0.3,0.9v1.9h-0.5V456z"/>
			</g>
			<g class="st14">
				<path class="st19" d="M687.6,451.8v-0.7h0.7v0.5c0,0.3,0,0.5-0.1,0.7s-0.2,0.3-0.4,0.4l-0.1-0.2c0.1,0,0.2-0.1,0.2-0.2
					c0.1-0.1,0.1-0.2,0.1-0.4L687.6,451.8L687.6,451.8z"/>
			</g>
			<g class="st14">
				<path class="st19" d="M688.6,455l0.5-0.1c0,0.2,0.1,0.4,0.3,0.5c0.1,0.1,0.3,0.2,0.7,0.2c0.2,0,0.4-0.1,0.7-0.2
					c0.1-0.1,0.2-0.2,0.2-0.4c0-0.1-0.1-0.2-0.2-0.3c-0.1,0-0.3-0.1-0.7-0.2s-0.8-0.2-0.9-0.3c-0.2-0.1-0.3-0.2-0.3-0.3
					c-0.1-0.1-0.1-0.3-0.1-0.4s0-0.3,0.1-0.4s0.2-0.2,0.3-0.3c0.1-0.1,0.2-0.1,0.3-0.2s0.3-0.1,0.5-0.1c0.3,0,0.5,0,0.8,0.1
					c0.2,0.1,0.3,0.2,0.4,0.3c0.1,0.1,0.2,0.3,0.2,0.5l-0.5,0.1c0-0.2-0.1-0.3-0.2-0.4c-0.1-0.1-0.3-0.1-0.5-0.1s-0.4,0-0.5,0.1
					s-0.2,0.2-0.2,0.3s0,0.1,0.1,0.2c0,0.1,0.1,0.1,0.2,0.1c0.1,0,0.2,0.1,0.5,0.1c0.4,0.1,0.8,0.2,0.9,0.3c0.1,0.1,0.3,0.2,0.4,0.3
					c0.1,0.1,0.1,0.3,0.1,0.5s-0.1,0.4-0.2,0.5c-0.1,0.2-0.3,0.3-0.5,0.4s-0.4,0.1-0.8,0.1c-0.4,0-0.8-0.1-1-0.3
					C688.9,455.6,688.8,455.3,688.6,455z"/>
			</g>
			<g class="st14">
				<path class="st19" d="M672.8,464v-4.3h-1.6v-0.5h3.8v0.5h-1.6v4.3H672.8z"/>
			</g>
			<g class="st14">
				<path class="st19" d="M674.7,462.3c0-0.7,0.2-1.1,0.5-1.4c0.3-0.2,0.7-0.4,1.1-0.4s0.9,0.1,1.2,0.4s0.4,0.8,0.4,1.3
					c0,0.4-0.1,0.8-0.2,1.1c-0.1,0.2-0.3,0.4-0.5,0.5s-0.5,0.2-0.9,0.2s-0.9-0.1-1.2-0.4C674.8,463.4,674.7,462.9,674.7,462.3z
					 M675.2,462.3c0,0.4,0.1,0.8,0.3,1s0.4,0.3,0.8,0.3s0.5-0.1,0.8-0.3c0.2-0.2,0.3-0.5,0.3-1s-0.1-0.8-0.3-1s-0.4-0.3-0.8-0.3
					s-0.5,0.1-0.8,0.3C675.3,461.5,675.2,461.9,675.2,462.3z"/>
				<path class="st19" d="M678.6,459.9v-0.7h0.5v0.7H678.6z M678.6,464v-3.5h0.5v3.5H678.6z"/>
				<path class="st19" d="M680,464v-4.8h0.5v4.8H680z"/>
				<path class="st19" d="M683.9,462.9l0.7,0.1c-0.1,0.3-0.3,0.7-0.5,0.9c-0.2,0.2-0.5,0.3-1,0.3s-0.9-0.1-1.2-0.4s-0.4-0.8-0.4-1.3
					s0.1-1.1,0.4-1.4s0.7-0.4,1.2-0.4c0.4,0,0.9,0.1,1.1,0.4c0.3,0.3,0.4,0.8,0.4,1.3v0.1H682c0,0.4,0.1,0.7,0.3,0.9
					c0.2,0.2,0.4,0.3,0.8,0.3c0.2,0,0.4-0.1,0.5-0.2C683.7,463.4,683.8,463.2,683.9,462.9z M682,462h2c0-0.3-0.1-0.5-0.2-0.7
					c-0.2-0.2-0.4-0.3-0.8-0.3c-0.2,0-0.5,0.1-0.7,0.2C682.2,461.3,682,461.6,682,462z"/>
				<path class="st19" d="M686.6,463.5l0.1,0.5c-0.2,0-0.3,0-0.4,0c-0.2,0-0.3,0-0.5-0.1c-0.1-0.1-0.2-0.1-0.2-0.2s-0.1-0.3-0.1-0.7
					v-2h-0.4v-0.4h0.4v-1l0.5-0.3v1.2h0.5v0.4H686v2.1c0,0.2,0,0.3,0,0.3s0,0.1,0.1,0.1c0,0,0.1,0,0.2,0
					C686.4,463.6,686.5,463.5,686.6,463.5z"/>
			</g>
		</g>
	</g>
	<g>
		<circle class="st17" cx="380.8" cy="59.2" r="14"/>
		<circle class="st18" cx="381.4" cy="53.7" r="2.1"/>
		<path class="st18" d="M381.4,56.7c-1.9,0-3.3,2.6-3.3,5.9h2.1v3.1h2.5v-3.1h2.1C384.8,59.4,383.2,56.7,381.4,56.7z"/>
		<g>
			<g class="st14">
				<path class="st19" d="M367.8,79.6l-1.3-4.8h0.7L368,78c0.1,0.3,0.1,0.7,0.2,1c0.1-0.5,0.2-0.8,0.2-0.9l0.9-3.3h0.8l0.7,2.4
					c0.2,0.7,0.3,1.2,0.3,1.8c0.1-0.3,0.1-0.7,0.2-1.1l0.8-3.1h0.7l-1.3,4.8h-0.7l-1-3.7c-0.1-0.3-0.1-0.5-0.1-0.5
					c0,0.2-0.1,0.4-0.1,0.5l-1,3.7L367.8,79.6L367.8,79.6z"/>
			</g>
			<g class="st14">
				<path class="st19" d="M373,77.8c0-0.7,0.2-1.1,0.5-1.4c0.3-0.2,0.7-0.4,1.1-0.4s0.9,0.1,1.2,0.4s0.4,0.8,0.4,1.3
					c0,0.4-0.1,0.8-0.2,1.1c-0.1,0.2-0.3,0.4-0.5,0.5s-0.5,0.2-0.9,0.2s-0.9-0.1-1.2-0.4C373.1,78.9,373,78.5,373,77.8z M373.5,77.8
					c0,0.4,0.1,0.8,0.3,1c0.2,0.2,0.4,0.3,0.8,0.3c0.3,0,0.5-0.1,0.8-0.3c0.2-0.2,0.3-0.5,0.3-1s-0.1-0.8-0.3-1
					c-0.2-0.2-0.4-0.3-0.8-0.3s-0.5,0.1-0.8,0.3C373.6,77.1,373.5,77.4,373.5,77.8z"/>
				<path class="st19" d="M376.9,79.6v-3.5h0.5v0.4c0.1-0.2,0.2-0.3,0.4-0.4c0.2-0.1,0.4-0.1,0.7-0.1c0.2,0,0.4,0,0.7,0.1
					c0.2,0.1,0.3,0.2,0.3,0.4c0.3-0.4,0.7-0.7,1.1-0.7c0.3,0,0.7,0.1,0.8,0.3c0.1,0.2,0.3,0.4,0.3,0.9v2.4h-0.5v-2.2
					c0-0.2,0-0.4-0.1-0.5c0-0.1-0.1-0.2-0.2-0.2c-0.1-0.1-0.2-0.1-0.3-0.1c-0.2,0-0.4,0.1-0.7,0.2c-0.1,0.1-0.2,0.4-0.2,0.8v2.1
					h-0.5v-2.3c0-0.2,0-0.4-0.1-0.5s-0.2-0.2-0.4-0.2c-0.2,0-0.3,0-0.4,0.1s-0.2,0.2-0.3,0.4c-0.1,0.2-0.1,0.4-0.1,0.8v1.9
					L376.9,79.6L376.9,79.6z"/>
				<path class="st19" d="M384.9,78.5l0.7,0.1c-0.1,0.3-0.3,0.7-0.5,0.9c-0.2,0.2-0.5,0.3-1,0.3s-0.9-0.1-1.2-0.4
					c-0.3-0.3-0.4-0.8-0.4-1.3s0.1-1.1,0.4-1.4s0.7-0.4,1.2-0.4c0.4,0,0.9,0.1,1.1,0.4c0.3,0.3,0.4,0.8,0.4,1.3l0,0H383
					c0,0.4,0.1,0.7,0.3,0.9c0.2,0.2,0.4,0.3,0.8,0.3c0.2,0,0.4-0.1,0.5-0.2C384.7,78.9,384.9,78.7,384.9,78.5z M383.1,77.5h2
					c0-0.3-0.1-0.5-0.2-0.7c-0.2-0.2-0.4-0.3-0.8-0.3c-0.2,0-0.5,0.1-0.7,0.2S383.1,77.2,383.1,77.5z"/>
				<path class="st19" d="M386.4,79.6v-3.5h0.5v0.5c0.2-0.4,0.7-0.5,1.1-0.5c0.2,0,0.4,0,0.5,0.1c0.2,0.1,0.3,0.2,0.4,0.3
					c0.1,0.1,0.1,0.2,0.2,0.4c0,0.1,0,0.3,0,0.5v2.2h-0.5v-2.1c0-0.2,0-0.4-0.1-0.5c0-0.1-0.1-0.2-0.2-0.3c-0.1-0.1-0.2-0.1-0.4-0.1
					c-0.2,0-0.4,0.1-0.7,0.2c-0.2,0.1-0.3,0.4-0.3,0.9v1.9H386.4z"/>
			</g>
			<g class="st14">
				<path class="st19" d="M390.1,75.4v-0.7h0.7v0.5c0,0.3,0,0.5-0.1,0.7s-0.2,0.3-0.4,0.4l-0.1-0.2c0.1,0,0.2-0.1,0.2-0.2
					c0.1-0.1,0.1-0.2,0.1-0.4L390.1,75.4L390.1,75.4z"/>
			</g>
			<g class="st14">
				<path class="st19" d="M391.2,78.6l0.5-0.1c0,0.2,0.1,0.4,0.3,0.5c0.1,0.1,0.3,0.2,0.7,0.2c0.2,0,0.4-0.1,0.7-0.2
					c0.1-0.1,0.2-0.2,0.2-0.4c0-0.1-0.1-0.2-0.2-0.3c-0.1,0-0.3-0.1-0.7-0.2c-0.4-0.1-0.8-0.2-0.9-0.3c-0.2-0.1-0.3-0.2-0.3-0.3
					c-0.1-0.1-0.1-0.3-0.1-0.4s0-0.3,0.1-0.4s0.2-0.2,0.3-0.3c0.1-0.1,0.2-0.1,0.3-0.2s0.3-0.1,0.5-0.1c0.3,0,0.5,0,0.8,0.1
					c0.2,0.1,0.3,0.2,0.4,0.3s0.2,0.3,0.2,0.5l-0.5,0.1c0-0.2-0.1-0.3-0.2-0.4s-0.3-0.1-0.5-0.1s-0.4,0-0.5,0.1s-0.2,0.2-0.2,0.3
					c0,0.1,0,0.1,0.1,0.2c0,0.1,0.1,0.1,0.2,0.1s0.2,0.1,0.5,0.1c0.4,0.1,0.8,0.2,0.9,0.3c0.1,0.1,0.3,0.2,0.4,0.3
					c0.1,0.1,0.1,0.3,0.1,0.5s-0.1,0.4-0.2,0.5c-0.1,0.2-0.3,0.3-0.5,0.4s-0.4,0.1-0.8,0.1s-0.8-0.1-1-0.3
					C391.4,79.3,391.3,78.9,391.2,78.6z"/>
			</g>
			<g class="st14">
				<path class="st19" d="M375.3,87.7v-4.3h-1.6v-0.5h3.8v0.5h-1.6v4.3H375.3z"/>
			</g>
			<g class="st14">
				<path class="st19" d="M377.1,86c0-0.7,0.2-1.1,0.5-1.4c0.3-0.2,0.7-0.4,1.1-0.4s0.9,0.1,1.2,0.4c0.3,0.3,0.4,0.8,0.4,1.3
					c0,0.4-0.1,0.8-0.2,1.1c-0.1,0.2-0.3,0.4-0.5,0.5s-0.5,0.2-0.9,0.2s-0.9-0.1-1.2-0.4C377.2,87.1,377.1,86.6,377.1,86z M377.7,86
					c0,0.4,0.1,0.8,0.3,1c0.2,0.2,0.4,0.3,0.8,0.3c0.3,0,0.5-0.1,0.8-0.3c0.2-0.2,0.3-0.5,0.3-1s-0.1-0.8-0.3-1
					c-0.2-0.2-0.4-0.3-0.8-0.3c-0.3,0-0.5,0.1-0.8,0.3C377.8,85.2,377.7,85.5,377.7,86z"/>
				<path class="st19" d="M381.1,83.5v-0.7h0.5v0.7H381.1z M381.1,87.7v-3.5h0.5v3.5H381.1z"/>
				<path class="st19" d="M382.5,87.7v-4.8h0.5v4.8H382.5z"/>
				<path class="st19" d="M386.5,86.6l0.7,0.1c-0.1,0.3-0.3,0.7-0.5,0.9c-0.2,0.2-0.5,0.3-1,0.3s-0.9-0.1-1.2-0.4
					c-0.3-0.3-0.4-0.8-0.4-1.3s0.1-1.1,0.4-1.4s0.7-0.4,1.2-0.4c0.4,0,0.9,0.1,1.1,0.4c0.3,0.3,0.4,0.8,0.4,1.3v0.1h-2.6
					c0,0.4,0.1,0.7,0.3,0.9c0.2,0.2,0.4,0.3,0.8,0.3c0.2,0,0.4-0.1,0.5-0.2C386.3,87.1,386.4,86.8,386.5,86.6z M384.5,85.6h2
					c0-0.3-0.1-0.5-0.2-0.7c-0.2-0.2-0.4-0.3-0.8-0.3c-0.2,0-0.5,0.1-0.7,0.2S384.5,85.3,384.5,85.6z"/>
				<path class="st19" d="M389.1,87.2l0.1,0.5c-0.2,0-0.3,0-0.4,0c-0.2,0-0.3,0-0.5-0.1c-0.1-0.1-0.2-0.1-0.2-0.2s-0.1-0.3-0.1-0.7
					v-2h-0.4v-0.4h0.4v-1l0.5-0.3v1.2h0.5v0.4h-0.5v2.1c0,0.2,0,0.3,0,0.3s0,0.1,0.1,0.1c0,0,0.1,0,0.2,0
					C388.9,87.3,389,87.2,389.1,87.2z"/>
			</g>
		</g>
	</g>
	<g>
		<g>
			<g class="st14">
				<path class="st19" d="M670.2,509.8v-4.6h1l1.1,3.4c0.1,0.3,0.1,0.6,0.3,0.7c0-0.1,0.1-0.4,0.3-0.7l1.1-3.2h0.8v4.6h-0.6v-4
					l-1.4,3.9h-0.6l-1.4-3.9v3.9h-0.7C670.2,509.9,670.2,509.8,670.2,509.8z"/>
				<path class="st19" d="M677.9,508.7l0.6,0.1c-0.1,0.3-0.3,0.6-0.6,0.8c-0.3,0.3-0.6,0.3-1,0.3c-0.6,0-0.8-0.1-1.1-0.4
					s-0.4-0.7-0.4-1.3c0-0.6,0.1-1,0.4-1.3c0.3-0.3,0.7-0.4,1.1-0.4c0.4,0,0.8,0.1,1.1,0.4s0.4,0.7,0.4,1.3v0.1h-2.5
					c0,0.4,0.1,0.7,0.3,0.8c0.1,0.1,0.4,0.3,0.7,0.3s0.4,0,0.6-0.1C677.7,509.1,677.7,508.9,677.9,508.7z M676.1,507.7h2
					c0-0.3-0.1-0.6-0.3-0.7c-0.1-0.3-0.4-0.3-0.7-0.3s-0.4,0.1-0.7,0.3S676.1,507.4,676.1,507.7z"/>
				<path class="st19" d="M679.1,509.8v-3.5h0.6v0.4c0.3-0.4,0.6-0.6,1.1-0.6c0.1,0,0.4,0,0.6,0.1c0.1,0.1,0.3,0.1,0.4,0.3
					c0.1,0.1,0.1,0.3,0.1,0.4s0,0.3,0,0.6v2.1h-0.6v-2c0-0.3,0-0.4,0-0.6s-0.1-0.1-0.3-0.3c-0.1,0-0.3-0.1-0.4-0.1
					c-0.3,0-0.4,0.1-0.7,0.3c-0.1,0.1-0.3,0.4-0.3,0.8v1.8H679C679.1,509.6,679.1,509.8,679.1,509.8z"/>
			</g>
			<g class="st14">
				<path class="st19" d="M682.8,505.7V505h0.6v0.6c0,0.3,0,0.6-0.1,0.6c-0.1,0.1-0.3,0.3-0.4,0.4l-0.1-0.3c0.1,0,0.1-0.1,0.3-0.3
					c0-0.1,0.1-0.3,0.1-0.4L682.8,505.7L682.8,505.7L682.8,505.7z"/>
			</g>
			<g class="st14">
				<path class="st19" d="M683.9,508.7l0.6-0.1c0,0.3,0.1,0.4,0.3,0.6c0.1,0.1,0.3,0.1,0.6,0.1s0.4,0,0.6-0.1
					c0.1-0.1,0.1-0.3,0.1-0.4s0-0.3-0.1-0.3s-0.3-0.1-0.6-0.1c-0.4-0.1-0.7-0.1-0.8-0.3c-0.1-0.1-0.3-0.1-0.4-0.3
					c-0.1-0.1-0.1-0.3-0.1-0.4s0-0.3,0.1-0.4s0.1-0.3,0.3-0.3s0.3-0.1,0.4-0.1c0.1,0,0.3,0,0.6,0s0.6,0,0.7,0.1s0.3,0.1,0.4,0.3
					c0.1,0.1,0.1,0.3,0.1,0.6l-0.6,0.1c0-0.1-0.1-0.3-0.3-0.4c-0.1-0.1-0.3-0.1-0.6-0.1s-0.4,0-0.6,0.1s-0.1,0.1-0.1,0.3
					s0,0.1,0,0.1s0.1,0.1,0.3,0.1c0,0,0.3,0.1,0.6,0.1c0.4,0.1,0.7,0.1,0.8,0.3c0.1,0,0.3,0.1,0.4,0.3c0.1,0.1,0.1,0.3,0.1,0.6
					c0,0.1,0,0.4-0.1,0.6c-0.1,0.1-0.3,0.3-0.4,0.4c-0.3,0.1-0.4,0.1-0.7,0.1c-0.4,0-0.8-0.1-1-0.3
					C684.3,509.6,684,509.1,683.9,508.7z"/>
			</g>
			<g class="st14">
				<path class="st19" d="M673.3,517.6v-4.1h-1.5V513h3.6v0.6h-1.5v4.1L673.3,517.6L673.3,517.6z"/>
			</g>
			<g class="st14">
				<path class="st19" d="M675.1,515.9c0-0.6,0.1-1.1,0.6-1.4c0.3-0.3,0.7-0.4,1.1-0.4c0.4,0,0.8,0.1,1.1,0.4
					c0.3,0.3,0.4,0.7,0.4,1.3c0,0.4,0,0.8-0.1,1c-0.1,0.1-0.3,0.4-0.6,0.6c-0.3,0.1-0.6,0.1-0.8,0.1c-0.4,0-0.8-0.1-1.1-0.4
					C675.2,516.9,675.1,516.5,675.1,515.9z M675.6,515.9c0,0.4,0.1,0.7,0.3,1c0.1,0.3,0.4,0.3,0.7,0.3s0.6-0.1,0.7-0.3
					c0.1-0.3,0.3-0.6,0.3-1s-0.1-0.7-0.3-1s-0.4-0.3-0.7-0.3s-0.6,0.1-0.7,0.3C675.8,515.1,675.6,515.4,675.6,515.9z"/>
				<path class="st19" d="M679,513.6v-0.7h0.6v0.7H679z M679,517.6v-3.4h0.6v3.4H679z"/>
				<path class="st19" d="M680.4,517.6V513h0.6v4.6H680.4z"/>
				<path class="st19" d="M684.2,516.5l0.6,0.1c-0.1,0.3-0.3,0.6-0.6,0.8c-0.3,0.3-0.6,0.3-1,0.3c-0.6,0-0.8-0.1-1.1-0.4
					c-0.3-0.3-0.4-0.7-0.4-1.3s0.1-1,0.4-1.3s0.7-0.4,1.1-0.4s0.8,0.1,1.1,0.4c0.3,0.3,0.4,0.7,0.4,1.3v0.1h-2.5
					c0,0.4,0.1,0.7,0.3,0.8c0.1,0.1,0.4,0.3,0.7,0.3s0.4,0,0.6-0.1C684,516.9,684,516.8,684.2,516.5z M682.4,515.5h2
					c0-0.3-0.1-0.6-0.3-0.7c-0.1-0.3-0.4-0.3-0.7-0.3s-0.4,0.1-0.7,0.3S682.4,515.2,682.4,515.5z"/>
				<path class="st19" d="M686.7,517.1l0.1,0.6c-0.1,0-0.3,0-0.4,0c-0.1,0-0.4,0-0.4-0.1c-0.1,0-0.1-0.1-0.3-0.3
					c0-0.1-0.1-0.3-0.1-0.7v-1.8h-0.4v-0.4h0.4v-1l0.6-0.3v1.1h0.6v0.4h-0.6v2c0,0.1,0,0.3,0,0.3s0,0.1,0.1,0.1s0.1,0,0.1,0
					C686.6,517.1,686.7,517.1,686.7,517.1z"/>
			</g>
		</g>
		<circle class="st17" cx="679.3" cy="489.2" r="14.4"/>
		<circle class="st20" cx="679.3" cy="484.7" r="2.2"/>
		<path class="st20" d="M682.8,488.2h-7c-0.1,2,0.7,3.8,2.2,4.9v4.2h2.5v-4.2C682.1,492.1,683.1,490.2,682.8,488.2z"/>
	</g>
	<g>
		<g>
			<g class="st14">
				<path class="st19" d="M488.5,77.6V73h1l1.1,3.4c0.1,0.3,0.1,0.6,0.3,0.7c0-0.1,0.1-0.4,0.3-0.7l1.1-3.2h0.8v4.6h-0.6v-3.9
					l-1.4,3.9h-0.6l-1.4-3.9v3.9h-0.7C488.5,77.8,488.5,77.6,488.5,77.6z"/>
				<path class="st19" d="M496.3,76.5l0.6,0.1c-0.1,0.3-0.3,0.6-0.6,0.8s-0.6,0.3-1,0.3c-0.6,0-0.8-0.1-1.1-0.4
					c-0.3-0.3-0.4-0.7-0.4-1.3s0.1-1,0.4-1.3s0.7-0.4,1.1-0.4s0.8,0.1,1.1,0.4c0.3,0.3,0.4,0.7,0.4,1.3v0.1h-2.5
					c0,0.4,0.1,0.7,0.3,0.8c0.1,0.1,0.4,0.3,0.7,0.3c0.3,0,0.4,0,0.6-0.1C496.1,76.9,496.1,76.8,496.3,76.5z M494.4,75.5h2
					c0-0.3-0.1-0.6-0.3-0.7c-0.1-0.3-0.4-0.3-0.7-0.3c-0.3,0-0.4,0.1-0.7,0.3C494.4,74.9,494.4,75.2,494.4,75.5z"/>
				<path class="st19" d="M497.5,77.6v-3.5h0.6v0.4c0.3-0.4,0.6-0.6,1.1-0.6c0.1,0,0.4,0,0.6,0.1c0.1,0.1,0.3,0.1,0.4,0.3
					c0.1,0.1,0.1,0.3,0.1,0.4s0,0.3,0,0.6v2.1h-0.6v-2c0-0.3,0-0.4,0-0.6s-0.1-0.1-0.3-0.3c-0.1,0-0.3-0.1-0.4-0.1
					c-0.3,0-0.4,0.1-0.7,0.3c-0.1,0.1-0.3,0.4-0.3,0.8v1.8h-0.6C497.5,77.5,497.5,77.6,497.5,77.6z"/>
			</g>
			<g class="st14">
				<path class="st19" d="M501.2,73.5v-0.7h0.6v0.6c0,0.3,0,0.6-0.1,0.6c-0.1,0.1-0.3,0.3-0.4,0.4l-0.1-0.3c0.1,0,0.1-0.1,0.3-0.3
					c0-0.1,0.1-0.3,0.1-0.4h-0.3v0.1C501.3,73.5,501.2,73.5,501.2,73.5z"/>
			</g>
			<g class="st14">
				<path class="st19" d="M502.3,76.5l0.6-0.1c0,0.3,0.1,0.4,0.3,0.6c0.1,0.1,0.3,0.1,0.6,0.1s0.4,0,0.6-0.1
					c0.1-0.1,0.1-0.3,0.1-0.4s0-0.3-0.1-0.3s-0.3-0.1-0.6-0.1c-0.4-0.1-0.7-0.1-0.8-0.3c-0.1-0.1-0.3-0.1-0.4-0.3
					c-0.1-0.1-0.1-0.3-0.1-0.4s0-0.3,0.1-0.4s0.1-0.3,0.3-0.3s0.3-0.1,0.4-0.1s0.3,0,0.6,0s0.6,0,0.7,0.1s0.3,0.1,0.4,0.3
					c0.1,0.1,0.1,0.3,0.1,0.6l-0.6,0.1c0-0.1-0.1-0.3-0.3-0.4c-0.1-0.1-0.3-0.1-0.6-0.1c-0.3,0-0.4,0-0.6,0.1s-0.1,0.1-0.1,0.3
					c0,0.1,0,0.1,0,0.1s0.1,0.1,0.3,0.1c0,0,0.3,0.1,0.6,0.1c0.4,0.1,0.7,0.1,0.8,0.3c0.1,0,0.3,0.1,0.4,0.3
					c0.1,0.1,0.1,0.3,0.1,0.6c0,0.1,0,0.4-0.1,0.6c-0.1,0.1-0.3,0.3-0.4,0.4c-0.3,0.1-0.4,0.1-0.7,0.1c-0.4,0-0.8-0.1-1-0.3
					C502.7,77.5,502.4,76.9,502.3,76.5z"/>
			</g>
			<g class="st14">
				<path class="st19" d="M491.6,85.5v-4.1h-1.5v-0.6h3.6v0.6h-1.5v4.1H491.6z"/>
			</g>
			<g class="st14">
				<path class="st19" d="M493.5,83.8c0-0.6,0.1-1.1,0.6-1.4c0.3-0.3,0.7-0.4,1.1-0.4s0.8,0.1,1.1,0.4c0.3,0.3,0.4,0.7,0.4,1.3
					c0,0.4,0,0.8-0.1,1c-0.1,0.1-0.3,0.4-0.6,0.6s-0.6,0.1-0.8,0.1c-0.4,0-0.8-0.1-1.1-0.4C493.6,84.8,493.5,84.3,493.5,83.8z
					 M494,83.8c0,0.4,0.1,0.7,0.3,1c0.1,0.3,0.4,0.3,0.7,0.3c0.3,0,0.6-0.1,0.7-0.3c0.1-0.3,0.3-0.6,0.3-1s-0.1-0.7-0.3-1
					c-0.1-0.3-0.4-0.3-0.7-0.3c-0.3,0-0.6,0.1-0.7,0.3C494.2,82.9,494,83.2,494,83.8z"/>
				<path class="st19" d="M497.4,81.4v-0.7h0.6v0.7H497.4z M497.4,85.5v-3.4h0.6v3.4H497.4z"/>
				<path class="st19" d="M498.8,85.5v-4.6h0.6v4.6H498.8z"/>
				<path class="st19" d="M502.6,84.3l0.6,0.1c-0.1,0.3-0.3,0.6-0.6,0.8c-0.3,0.3-0.6,0.3-1,0.3c-0.6,0-0.8-0.1-1.1-0.4
					c-0.3-0.3-0.4-0.7-0.4-1.3s0.1-1,0.4-1.3s0.7-0.4,1.1-0.4s0.8,0.1,1.1,0.4c0.3,0.3,0.4,0.7,0.4,1.3v0.1h-2.5
					c0,0.4,0.1,0.7,0.3,0.8c0.1,0.1,0.4,0.3,0.7,0.3c0.3,0,0.4,0,0.6-0.1C502.4,84.8,502.4,84.6,502.6,84.3z M500.7,83.4h2
					c0-0.3-0.1-0.6-0.3-0.7c-0.1-0.3-0.4-0.3-0.7-0.3c-0.3,0-0.4,0.1-0.7,0.3C500.7,82.8,500.7,83.1,500.7,83.4z"/>
				<path class="st19" d="M505.1,84.9l0.1,0.6c-0.1,0-0.3,0-0.4,0s-0.4,0-0.4-0.1c-0.1,0-0.1-0.1-0.3-0.3c0-0.1-0.1-0.3-0.1-0.7
					v-1.8h-0.4v-0.4h0.4v-1l0.6-0.3V82h0.6v0.4h-0.6v2c0,0.1,0,0.3,0,0.3s0,0.1,0.1,0.1s0.1,0,0.1,0
					C504.9,84.9,505.1,84.9,505.1,84.9z"/>
			</g>
		</g>
		
			<ellipse transform="matrix(0.4473 -0.8944 0.8944 0.4473 224.1026 476.6831)" class="st17" cx="497.7" cy="57" rx="14.4" ry="14.4"/>
		<circle class="st20" cx="497.7" cy="52.5" r="2.2"/>
		<path class="st20" d="M501.2,56h-7c-0.1,2,0.7,3.8,2.2,4.9v4.2h2.5v-4.2C500.5,60,501.4,58,501.2,56z"/>
	</g>
	<circle class="st17" cx="572.7" cy="63.2" r="13.9"/>
	<g class="st14">
		<path class="st19" d="M565.5,83.9h0.6c0,0.2,0.1,0.4,0.2,0.6c0.1,0.1,0.2,0.2,0.5,0.4c0.2,0.1,0.5,0.1,0.7,0.1s0.5,0,0.6-0.1
			s0.4-0.1,0.4-0.2c0.1-0.1,0.1-0.2,0.1-0.4c0-0.1,0-0.2-0.1-0.4c-0.1-0.1-0.2-0.2-0.4-0.2s-0.4-0.1-0.9-0.2
			c-0.4-0.1-0.7-0.2-0.9-0.2c-0.2-0.1-0.4-0.2-0.5-0.5c-0.1-0.2-0.1-0.4-0.1-0.6s0.1-0.5,0.2-0.6c0.1-0.1,0.4-0.4,0.6-0.5
			c0.2-0.1,0.5-0.1,0.9-0.1s0.6,0,0.9,0.1c0.2,0.1,0.5,0.2,0.6,0.5c0.1,0.2,0.2,0.5,0.2,0.7h-0.6c0-0.2-0.1-0.5-0.4-0.6
			c-0.1-0.1-0.5-0.2-0.9-0.2s-0.6,0.1-0.9,0.2c-0.1,0.1-0.2,0.2-0.2,0.5c0,0.1,0,0.2,0.1,0.4c0.1,0.1,0.4,0.2,1,0.4
			c0.5,0.1,0.9,0.2,1,0.2c0.2,0.1,0.5,0.2,0.6,0.5c0.1,0.2,0.2,0.4,0.2,0.6s-0.1,0.5-0.2,0.7c-0.1,0.2-0.4,0.4-0.6,0.5
			c-0.2,0.1-0.6,0.1-0.9,0.1c-0.4,0-0.7,0-1.1-0.1c-0.2-0.1-0.5-0.4-0.6-0.6C565.6,84.3,565.5,84.1,565.5,83.9z"/>
		<path class="st19" d="M571.2,84.8l0.1,0.5c-0.1,0-0.2,0-0.5,0s-0.4,0-0.5-0.1s-0.2-0.1-0.2-0.2s-0.1-0.4-0.1-0.6v-2h-0.4v-0.5h0.4
			v-0.7l0.6-0.4V82h0.6v0.5h-0.6v2c0,0.1,0,0.2,0,0.4c0,0,0,0.1,0.1,0.1s0.1,0,0.2,0C571,84.8,571.1,84.8,571.2,84.8z"/>
		<path class="st19" d="M573.9,84.8c-0.2,0.1-0.4,0.2-0.6,0.4c-0.2,0.1-0.4,0.1-0.6,0.1c-0.4,0-0.6-0.1-0.9-0.2
			c-0.2-0.1-0.2-0.4-0.2-0.7c0-0.1,0-0.4,0.1-0.5s0.1-0.2,0.2-0.4c0.1-0.1,0.2-0.1,0.4-0.2c0.1,0,0.2,0,0.5-0.1c0.5,0,0.9-0.1,1-0.2
			c0-0.1,0-0.1,0-0.1c0-0.2,0-0.4-0.1-0.5s-0.4-0.2-0.6-0.2c-0.2,0-0.5,0-0.6,0.1s-0.2,0.2-0.2,0.5l-0.6-0.1c0-0.2,0.1-0.5,0.2-0.6
			s0.2-0.2,0.5-0.4c0.2-0.1,0.5-0.1,0.7-0.1s0.5,0,0.7,0.1c0.1,0.1,0.4,0.1,0.4,0.2c0.1,0.1,0.1,0.2,0.1,0.4c0,0.1,0,0.2,0,0.5v0.7
			c0,0.5,0,0.9,0,1s0.1,0.2,0.1,0.4h-0.6C574,85.2,573.9,85.1,573.9,84.8z M573.9,83.6c-0.2,0.1-0.5,0.1-1,0.2
			c-0.2,0-0.4,0.1-0.5,0.1s-0.1,0.1-0.2,0.2c0,0.1-0.1,0.1-0.1,0.2s0,0.2,0.1,0.4c0.1,0.1,0.2,0.1,0.5,0.1s0.4,0,0.6-0.1
			c0.2-0.1,0.2-0.2,0.4-0.4c0-0.1,0.1-0.4,0.1-0.6L573.9,83.6L573.9,83.6z"/>
		<path class="st19" d="M575.4,81.3v-0.6h0.6v0.6H575.4z M575.4,85.3V82h0.6v3.3H575.4z"/>
		<path class="st19" d="M576.7,85.3V82h0.5v0.5c0.1-0.2,0.2-0.4,0.4-0.5c0.1-0.1,0.2-0.1,0.4-0.1s0.4,0,0.6,0.1l-0.2,0.5
			c-0.1-0.1-0.2-0.1-0.4-0.1c-0.1,0-0.2,0-0.4,0.1c-0.1,0.1-0.1,0.1-0.2,0.4c-0.1,0.2-0.1,0.4-0.1,0.6v1.7L576.7,85.3L576.7,85.3z"
			/>
		<path class="st19" d="M578.7,84.3l0.6-0.1c0,0.2,0.1,0.4,0.2,0.5c0.1,0.1,0.4,0.1,0.6,0.1c0.2,0,0.5,0,0.6-0.1s0.2-0.2,0.2-0.4
			c0-0.1,0-0.2-0.1-0.2s-0.2-0.1-0.6-0.2c-0.4-0.1-0.7-0.2-0.9-0.2c-0.1-0.1-0.2-0.1-0.4-0.4c-0.1-0.1-0.1-0.2-0.1-0.5
			c0-0.1,0-0.2,0.1-0.4c0.1-0.1,0.1-0.2,0.2-0.4c0.1-0.1,0.2-0.1,0.4-0.1c0.1,0,0.4-0.1,0.5-0.1c0.2,0,0.5,0,0.7,0.1
			s0.4,0.1,0.5,0.4c0.1,0.1,0.1,0.2,0.2,0.5l-0.6,0.1c0-0.1-0.1-0.4-0.2-0.4s-0.2-0.1-0.5-0.1c-0.2,0-0.5,0-0.6,0.1
			s-0.1,0.2-0.1,0.2c0,0.1,0,0.1,0.1,0.2c0,0,0.1,0.1,0.2,0.1c0,0,0.2,0.1,0.5,0.1c0.4,0.1,0.7,0.2,0.9,0.2c0.1,0.1,0.2,0.1,0.4,0.2
			c0.1,0.1,0.1,0.2,0.1,0.5c0,0.2,0,0.4-0.1,0.5s-0.2,0.2-0.5,0.4c-0.2,0.1-0.5,0.1-0.7,0.1c-0.5,0-0.7-0.1-1-0.2
			C578.9,85,578.8,84.7,578.7,84.3z"/>
	</g>
	<g id="Outline_Icons-9-2-2">
		<line class="st20" x1="566.8" y1="68.1" x2="577.6" y2="68.1"/>
		<polyline class="st20" points="575.8,68.1 575.8,66.1 573.8,66.1 573.8,64.3 572,64.3 572,62.5 570.1,62.5 570.1,60.7 566.8,60.7 
					"/>
		<line class="st20" x1="572.5" y1="57.5" x2="578.2" y2="63.2"/>
		<polyline class="st20" points="572.5,59.7 572.5,57.5 574.8,57.5 		"/>
		<polyline class="st20" points="578.2,60.9 578.2,63.2 575.9,63.2 		"/>
	</g>
	<circle class="st17" cx="494.4" cy="431.5" r="13.9"/>
	<g class="st14">
		<path class="st19" d="M487.2,452.2h0.6c0,0.2,0.1,0.4,0.2,0.6c0.1,0.1,0.2,0.2,0.5,0.4c0.2,0.1,0.5,0.1,0.7,0.1s0.5,0,0.6-0.1
			s0.4-0.1,0.4-0.2c0.1-0.1,0.1-0.2,0.1-0.4c0-0.1,0-0.2-0.1-0.4c-0.1-0.1-0.2-0.2-0.4-0.2c-0.1,0-0.4-0.1-0.9-0.2
			c-0.4-0.1-0.7-0.2-0.9-0.2c-0.2-0.1-0.4-0.2-0.5-0.5s-0.1-0.4-0.1-0.6s0.1-0.5,0.2-0.6s0.4-0.4,0.6-0.5s0.5-0.1,0.9-0.1
			s0.6,0,0.9,0.1c0.2,0.1,0.5,0.2,0.6,0.5c0.1,0.2,0.2,0.5,0.2,0.7h-0.6c0-0.2-0.1-0.5-0.4-0.6c-0.1-0.1-0.5-0.2-0.9-0.2
			s-0.6,0.1-0.9,0.2c-0.1,0.1-0.2,0.2-0.2,0.5c0,0.1,0,0.2,0.1,0.4s0.4,0.2,1,0.4c0.5,0.1,0.9,0.2,1,0.2c0.2,0.1,0.5,0.2,0.6,0.5
			c0.1,0.2,0.2,0.4,0.2,0.6s-0.1,0.5-0.2,0.7s-0.4,0.4-0.6,0.5s-0.6,0.1-0.9,0.1c-0.4,0-0.7,0-1.1-0.1c-0.2-0.1-0.5-0.4-0.6-0.6
			C487.3,452.6,487.2,452.4,487.2,452.2z"/>
		<path class="st19" d="M492.9,453.1l0.1,0.5c-0.1,0-0.2,0-0.5,0c-0.2,0-0.4,0-0.5-0.1s-0.2-0.1-0.2-0.2s-0.1-0.4-0.1-0.6v-2h-0.4
			v-0.5h0.4v-0.7l0.6-0.4v1.2h0.6v0.5h-0.6v2c0,0.1,0,0.2,0,0.4c0,0,0,0.1,0.1,0.1s0.1,0,0.2,0C492.7,453.1,492.8,453.1,492.9,453.1
			z"/>
		<path class="st19" d="M495.6,453.1c-0.2,0.1-0.4,0.2-0.6,0.4c-0.2,0.1-0.4,0.1-0.6,0.1c-0.4,0-0.6-0.1-0.9-0.2
			c-0.2-0.1-0.2-0.4-0.2-0.7c0-0.1,0-0.4,0.1-0.5s0.1-0.2,0.2-0.4s0.2-0.1,0.4-0.2c0.1,0,0.2,0,0.5-0.1c0.5,0,0.9-0.1,1-0.2
			c0-0.1,0-0.1,0-0.1c0-0.2,0-0.4-0.1-0.5s-0.4-0.2-0.6-0.2s-0.5,0-0.6,0.1s-0.2,0.2-0.2,0.5l-0.6-0.1c0-0.2,0.1-0.5,0.2-0.6
			s0.2-0.2,0.5-0.4c0.2-0.1,0.5-0.1,0.7-0.1s0.5,0,0.7,0.1c0.1,0.1,0.4,0.1,0.4,0.2c0.1,0.1,0.1,0.2,0.1,0.4c0,0.1,0,0.2,0,0.5v0.7
			c0,0.5,0,0.9,0,1s0.1,0.2,0.1,0.4h-0.6C495.7,453.5,495.6,453.4,495.6,453.1z M495.6,451.9c-0.2,0.1-0.5,0.1-1,0.2
			c-0.2,0-0.4,0.1-0.5,0.1s-0.1,0.1-0.2,0.2c0,0.1-0.1,0.1-0.1,0.2s0,0.2,0.1,0.4c0.1,0.1,0.2,0.1,0.5,0.1c0.2,0,0.4,0,0.6-0.1
			s0.2-0.2,0.4-0.4c0-0.1,0.1-0.4,0.1-0.6L495.6,451.9L495.6,451.9z"/>
		<path class="st19" d="M497.1,449.6V449h0.6v0.6H497.1z M497.1,453.6v-3.3h0.6v3.3H497.1z"/>
		<path class="st19" d="M498.4,453.6v-3.3h0.5v0.5c0.1-0.2,0.2-0.4,0.4-0.5c0.1-0.1,0.2-0.1,0.4-0.1c0.2,0,0.4,0,0.6,0.1l-0.2,0.5
			c-0.1-0.1-0.2-0.1-0.4-0.1c-0.1,0-0.2,0-0.4,0.1c-0.1,0.1-0.1,0.1-0.2,0.4c-0.1,0.2-0.1,0.4-0.1,0.6v1.7L498.4,453.6L498.4,453.6z
			"/>
		<path class="st19" d="M500.4,452.6l0.6-0.1c0,0.2,0.1,0.4,0.2,0.5s0.4,0.1,0.6,0.1s0.5,0,0.6-0.1s0.2-0.2,0.2-0.4
			c0-0.1,0-0.2-0.1-0.2s-0.2-0.1-0.6-0.2s-0.7-0.2-0.9-0.2c-0.1-0.1-0.2-0.1-0.4-0.4c-0.1-0.1-0.1-0.2-0.1-0.5c0-0.1,0-0.2,0.1-0.4
			c0.1-0.1,0.1-0.2,0.2-0.4s0.2-0.1,0.4-0.1c0.1,0,0.4-0.1,0.5-0.1c0.2,0,0.5,0,0.7,0.1s0.4,0.1,0.5,0.4c0.1,0.1,0.1,0.2,0.2,0.5
			l-0.6,0.1c0-0.1-0.1-0.4-0.2-0.4s-0.2-0.1-0.5-0.1c-0.2,0-0.5,0-0.6,0.1s-0.1,0.2-0.1,0.2c0,0.1,0,0.1,0.1,0.2
			c0,0,0.1,0.1,0.2,0.1c0,0,0.2,0.1,0.5,0.1c0.4,0.1,0.7,0.2,0.9,0.2c0.1,0.1,0.2,0.1,0.4,0.2c0.1,0.1,0.1,0.2,0.1,0.5
			s0,0.4-0.1,0.5s-0.2,0.2-0.5,0.4c-0.2,0.1-0.5,0.1-0.7,0.1c-0.5,0-0.7-0.1-1-0.2C500.6,453.3,500.5,453,500.4,452.6z"/>
	</g>
	<g id="Outline_Icons-9-2-2_1_">
		<line class="st20" x1="488.5" y1="436.4" x2="499.3" y2="436.4"/>
		<polyline class="st20" points="497.4,436.4 497.4,434.4 495.5,434.4 495.5,432.6 493.7,432.6 493.7,430.8 491.8,430.8 491.8,429 
			488.5,429 		"/>
		<line class="st20" x1="494.1" y1="425.8" x2="499.9" y2="431.5"/>
		<polyline class="st20" points="494.1,428 494.1,425.8 496.5,425.8 		"/>
		<polyline class="st20" points="499.9,429.2 499.9,431.5 497.6,431.5 		"/>
	</g>
	<g id="elevator-7-4-3">
		<g>
			<path class="st21" d="M274.6,472.1v-5.2h2.3c0.4,0,0.7,0,1.1,0.1c0.3,0.1,0.4,0.3,0.6,0.6c0.1,0.3,0.3,0.6,0.3,0.8
				c0,0.3-0.1,0.7-0.3,0.8c-0.3,0.3-0.7,0.4-1.1,0.6c0.1,0,0.3,0.1,0.4,0.3c0.3,0.3,0.4,0.4,0.6,0.7l0.8,1.4h-0.8l-0.7-1.1
				c-0.1-0.3-0.4-0.6-0.6-0.7L277,470c-0.1-0.1-0.3-0.1-0.3-0.1h-1.2v2.3L274.6,472.1z M275.5,469.2h1.5c0.3,0,0.6,0,0.7-0.1
				c0.1,0,0.3-0.1,0.4-0.3c0.1-0.1,0.1-0.3,0.1-0.6s-0.1-0.4-0.3-0.6c-0.3-0.1-0.6-0.3-0.8-0.3h-1.7L275.5,469.2L275.5,469.2z"/>
			<path class="st21" d="M282.4,470.9l0.7,0.1c-0.1,0.4-0.3,0.7-0.6,0.8c-0.3,0.3-0.7,0.4-1.1,0.3c-0.6,0-1-0.1-1.2-0.6
				c-0.7-0.8-0.7-2.1,0-2.9c0.4-0.3,0.8-0.6,1.2-0.6c0.4,0,1,0.1,1.2,0.6c0.4,0.4,0.6,1,0.6,1.5v0.1h-2.9c0,0.4,0.1,0.7,0.3,1
				c0.3,0.3,0.6,0.3,0.8,0.3c0.1,0,0.4,0,0.6-0.1C282.2,471.3,282.4,471.1,282.4,470.9z M280.4,469.7h2.1c0-0.6-0.4-1.1-1.1-1.1
				c-0.3,0-0.6,0.1-0.7,0.3C280.4,469.2,280.4,469.5,280.4,469.7L280.4,469.7z"/>
			<path class="st21" d="M286.4,470.7l0.7,0.1c0,0.4-0.3,0.7-0.6,1.1c-0.3,0.3-0.7,0.4-1.1,0.4s-1-0.1-1.2-0.6
				c-0.4-0.4-0.6-1-0.6-1.5c0-0.4,0-0.7,0.1-1.1c0.1-0.3,0.3-0.6,0.7-0.7c0.3-0.1,0.6-0.1,1-0.3c0.4,0,0.7,0.1,1,0.3
				c0.3,0.3,0.4,0.6,0.6,0.8l-0.7,0.1c0-0.3-0.1-0.4-0.3-0.6c-0.1-0.1-0.4-0.1-0.6-0.1c-0.3,0-0.6,0.1-0.8,0.3
				c-0.3,0.3-0.3,0.7-0.3,1.1s0.1,0.8,0.3,1.1c0.1,0.3,0.4,0.3,0.7,0.3s0.4-0.1,0.7-0.3C286.2,471.3,286.4,471,286.4,470.7z"/>
			<path class="st21" d="M290.1,470.9l0.7,0.1c-0.1,0.4-0.3,0.7-0.6,0.8c-0.3,0.3-0.7,0.4-1.1,0.3c-0.6,0-1-0.1-1.2-0.6
				c-0.7-0.8-0.7-2.1,0-2.9c0.4-0.3,0.8-0.6,1.2-0.6c0.4,0,1,0.1,1.2,0.6c0.4,0.4,0.6,1,0.6,1.5v0.1H288c0,0.4,0.1,0.7,0.3,1
				c0.3,0.3,0.6,0.3,0.8,0.3c0.1,0,0.4,0,0.6-0.1C289.9,471.3,290.1,471.1,290.1,470.9z M288,469.7h2.1c0-0.6-0.4-1.1-1.1-1.1
				c-0.3,0-0.6,0.1-0.7,0.3C288.1,469.2,288,469.5,288,469.7L288,469.7z"/>
			<path class="st21" d="M291.6,473.5v-5.2h0.6v0.6c0.1-0.1,0.3-0.3,0.6-0.4c0.1-0.1,0.4-0.1,0.7-0.1s0.6,0.1,0.8,0.3
				c0.3,0.1,0.4,0.4,0.6,0.7c0.1,0.3,0.1,0.7,0.1,1c0,0.4-0.1,0.7-0.3,1.1c-0.1,0.3-0.3,0.6-0.6,0.7c-0.3,0.1-0.6,0.3-0.8,0.3
				c-0.1,0-0.4,0-0.6-0.1c-0.1,0-0.3-0.1-0.4-0.3v1.9L291.6,473.5L291.6,473.5z M292.1,470.2c0,0.4,0.1,0.8,0.3,1.1
				c0.1,0.3,0.4,0.3,0.7,0.3s0.6-0.1,0.7-0.3c0.3-0.3,0.3-0.7,0.3-1.1s-0.1-0.8-0.3-1.1c-0.1-0.3-0.4-0.3-0.7-0.3s-0.6,0.1-0.7,0.4
				C292.3,469.3,292.1,469.7,292.1,470.2L292.1,470.2z"/>
			<path class="st21" d="M297.1,471.5l0.1,0.6c-0.1,0-0.3,0.1-0.6,0.1c-0.1,0-0.4,0-0.6-0.1c-0.1-0.1-0.3-0.1-0.3-0.3
				c-0.1-0.3-0.1-0.6-0.1-0.7v-2.2H295v-0.6h0.6v-1l0.7-0.4v1.2h0.7v0.6h-0.7v2.5c0,0.1,0.1,0.1,0.1,0.1s0.1,0.1,0.3,0.1
				L297.1,471.5L297.1,471.5z"/>
			<path class="st21" d="M297.7,467.5v-0.7h0.7v0.7H297.7z M297.7,472.1v-3.7h0.7v3.7H297.7z"/>
			<path class="st21" d="M299,470.2c-0.1-0.6,0.1-1.1,0.6-1.5c0.4-0.3,0.8-0.4,1.2-0.4c0.4,0,1,0.1,1.2,0.6c0.3,0.4,0.6,0.8,0.6,1.4
				c0,0.4,0,0.8-0.3,1.1c-0.1,0.3-0.4,0.6-0.7,0.7c-0.3,0.1-0.6,0.3-0.8,0.3c-0.4,0-1-0.1-1.2-0.6C299.2,471.3,299,470.7,299,470.2z
				 M299.7,470.2c0,0.4,0.1,0.8,0.3,1.1c0.4,0.4,1.2,0.4,1.7,0c0.3-0.3,0.4-0.7,0.3-1.1c0-0.4-0.1-0.8-0.3-1.1
				c-0.4-0.4-1.2-0.4-1.7,0C299.7,469.3,299.7,469.7,299.7,470.2L299.7,470.2z"/>
			<path class="st21" d="M303.3,472.1v-3.7h0.6v0.6c0.3-0.4,0.7-0.7,1.2-0.7c0.3,0,0.4,0.1,0.7,0.1c0.1,0,0.3,0.1,0.4,0.3
				c0.1,0.1,0.1,0.3,0.1,0.6v3h-0.7v-2.5c0-0.3,0-0.6-0.1-0.6c0-0.1-0.1-0.3-0.3-0.3c-0.1,0-0.3-0.1-0.4-0.1c-0.3,0-0.6,0.1-0.7,0.3
				c-0.3,0.3-0.4,0.7-0.3,1v2.1L303.3,472.1z"/>
		</g>
		<circle class="st22" cx="290.1" cy="448.2" r="15.7"/>
		<g id="Outline_Icons-8">
			<path class="st23" d="M289.5,444.6v1l-2.1,0.7c-0.4,0.1-0.7,0.4-0.7,0.8v0.3"/>
			<path class="st23" d="M291.3,444.6v1l2.1,0.7c0.4,0.1,0.7,0.4,0.7,0.8v0.3"/>
			<ellipse class="st23" cx="290.5" cy="442.8" rx="1.8" ry="2.2"/>
			<path class="st23" d="M292.3,442.7L292.3,442.7c-0.7,0.1-1.4-0.1-1.5-0.7c-0.3,0.4-0.8,0.7-1.4,0.7c-0.3,0-0.6-0.1-0.7-0.1"/>
			<rect x="282.9" y="447.5" class="st23" width="14.3" height="5.1"/>
			<line class="st23" x1="284.8" y1="452.6" x2="284.8" y2="455.1"/>
			<line class="st23" x1="295.5" y1="452.6" x2="295.5" y2="455.1"/>
		</g>
	</g>
	<g>
		<circle class="st22" cx="579.2" cy="406.2" r="16"/>
		<path class="st24" d="M574.7,412.5v-9.7h3.3v9.7H574.7z M578.2,412.5v-9.7h3.3v9.7H578.2z M585.6,412.5h-3.7v-9.9
			c0-0.1-0.1-0.2-0.2-0.2h-6.9c-0.1,0-0.2,0.1-0.2,0.2l0,0v9.9h-1.8v-12.7h12.7L585.6,412.5z M585.6,399.6h-13
			c-0.1,0-0.2,0.1-0.2,0.2l0,0v13c0,0.1,0.1,0.2,0.2,0.2h13c0.1,0,0.2-0.1,0.2-0.2l0,0v-13C585.8,399.6,585.7,399.6,585.6,399.6
			L585.6,399.6z"/>
		<path class="st24" d="M577.2,401.3h2c0.1,0,0.2,0,0.2-0.1s0-0.2-0.1-0.2h-2.1c-0.1,0-0.2,0-0.2,0.2
			C577,401.2,577.1,401.3,577.2,401.3z"/>
		<path class="st25" d="M583.3,406l0.4-0.4l0.4,0.4c0.1,0.1,0.2,0,0.2-0.1l0,0v-0.2l-0.5-0.5c-0.1-0.1-0.1-0.1-0.2,0l0,0l-0.5,0.5
			C583,405.8,583.1,405.9,583.3,406L583.3,406C583.1,406,583.2,406,583.3,406L583.3,406L583.3,406z"/>
		<path class="st25" d="M583.6,407.4L583.6,407.4c0.2,0.1,0.2,0.1,0.2,0l0.5-0.5c0.1,0,0.1-0.2,0.1-0.2l0,0c0-0.1-0.1-0.1-0.2-0.1
			l0,0l-0.1,0.1l-0.4,0.4l-0.4-0.4c-0.1-0.1-0.1-0.1-0.2-0.1c-0.1,0-0.1,0.2-0.1,0.2l0.1,0.1L583.6,407.4z"/>
		<g class="st14">
			<path class="st26" d="M574.6,431.2v-5.4h0.7v4.8h2.6v0.6H574.6z"/>
			<path class="st26" d="M578.8,426.5v-0.8h0.6v0.8H578.8z M578.8,431.2v-3.9h0.6v3.9H578.8z"/>
			<path class="st26" d="M580.6,431.2v-3.4H580v-0.5h0.6v-0.5c0-0.2,0-0.5,0.1-0.6c0.1-0.2,0.2-0.3,0.3-0.4c0.2-0.1,0.4-0.2,0.6-0.2
				c0.2,0,0.4,0,0.6,0.1l-0.1,0.6c-0.2,0-0.2,0-0.4,0s-0.3,0.1-0.4,0.2c-0.1,0.1-0.2,0.2-0.2,0.5v0.4h0.8v0.5h-0.8v3.4L580.6,431.2
				L580.6,431.2z"/>
			<path class="st26" d="M584,430.5l0.1,0.6c-0.2,0-0.3,0.1-0.5,0.1s-0.4,0-0.6-0.1c-0.2-0.1-0.2-0.2-0.3-0.3
				c-0.1-0.2-0.1-0.4-0.1-0.8v-2.2h-0.5v-0.5h0.5v-1l0.6-0.4v1.4h0.6v0.5h-0.6v2.3c0,0.2,0,0.3,0,0.4s0.1,0.1,0.1,0.2
				s0.2,0.1,0.2,0.1C583.8,430.5,583.9,430.5,584,430.5z"/>
		</g>
	</g>
	<g>
		<circle class="st22" cx="279.6" cy="63.6" r="16"/>
		<path class="st24" d="M275.2,69.9v-9.7h3.3v9.7H275.2z M278.7,69.9v-9.7h3.3v9.7H278.7z M286,69.9h-3.7V60c0-0.1-0.1-0.2-0.2-0.2
			h-6.9c-0.1,0-0.2,0.1-0.2,0.2l0,0v9.9h-1.8V57.1H286V69.9z M286.1,57h-13c-0.1,0-0.2,0.1-0.2,0.2l0,0v13c0,0.1,0.1,0.2,0.2,0.2h13
			c0.1,0,0.2-0.1,0.2-0.2l0,0v-13C286.2,57,286.2,57,286.1,57L286.1,57z"/>
		<path class="st24" d="M277.6,58.6h2c0.1,0,0.2,0,0.2-0.1s0-0.2-0.1-0.2h-2.1c-0.1,0-0.2,0-0.2,0.2
			C277.4,58.5,277.5,58.6,277.6,58.6z"/>
		<path class="st25" d="M283.7,63.3l0.4-0.4l0.4,0.4c0.1,0.1,0.2,0,0.2-0.1l0,0V63l-0.5-0.5c-0.1-0.1-0.1-0.1-0.2,0l0,0l-0.5,0.5
			C283.5,63.2,283.5,63.2,283.7,63.3L283.7,63.3C283.5,63.3,283.6,63.3,283.7,63.3L283.7,63.3L283.7,63.3z"/>
		<path class="st25" d="M284,64.8L284,64.8c0.2,0.1,0.2,0.1,0.2,0l0.5-0.5c0.1,0,0.1-0.2,0.1-0.2l0,0c0-0.1-0.1-0.1-0.2-0.1l0,0
			l-0.1,0.1l-0.4,0.4l-0.4-0.4c-0.1-0.1-0.1-0.1-0.2-0.1s-0.1,0.2-0.1,0.2l0.1,0.1L284,64.8z"/>
		<g class="st14">
			<path class="st26" d="M275.1,88.6v-5.4h0.7V88h2.6v0.6H275.1z"/>
			<path class="st26" d="M279.2,83.9v-0.8h0.6v0.8H279.2z M279.2,88.6v-3.9h0.6v3.9H279.2z"/>
			<path class="st26" d="M281,88.6v-3.4h-0.6v-0.5h0.6v-0.5c0-0.2,0-0.5,0.1-0.6c0.1-0.2,0.2-0.3,0.3-0.4c0.2-0.1,0.4-0.2,0.6-0.2
				s0.4,0,0.6,0.1l-0.1,0.6c-0.2,0-0.2,0-0.4,0c-0.2,0-0.3,0.1-0.4,0.2s-0.2,0.2-0.2,0.5v0.4h0.8v0.5h-0.8v3.4L281,88.6L281,88.6z"
				/>
			<path class="st26" d="M284.4,87.9l0.1,0.6c-0.2,0-0.3,0.1-0.5,0.1s-0.4,0-0.6-0.1s-0.2-0.2-0.3-0.3c-0.1-0.2-0.1-0.4-0.1-0.8
				v-2.2h-0.5v-0.5h0.5v-1l0.6-0.4v1.4h0.6v0.5h-0.6v2.3c0,0.2,0,0.3,0,0.4s0.1,0.1,0.1,0.2s0.2,0.1,0.2,0.1
				C284.2,87.9,284.3,87.9,284.4,87.9z"/>
		</g>
	</g>
	<g id="utility-2-3-3">
		<circle class="st22" cx="322.8" cy="203.6" r="16.1"/>
		<g>
			<path class="st21" d="M303,198.4v0.7h-3.1c-0.4,0-0.9-0.1-1.3-0.1c-0.4-0.1-0.7-0.4-0.8-0.7c-0.4-0.8-0.4-1.7,0-2.5
				c0.1-0.3,0.4-0.6,0.8-0.7c0.4-0.1,0.9-0.2,1.3-0.1h3.1v0.7h-3.1c-0.4,0-0.7,0-1,0.1s-0.4,0.3-0.5,0.4c-0.1,0.2-0.1,0.5-0.1,0.8
				c-0.1,0.4,0.1,0.8,0.4,1.1c0.4,0.3,0.9,0.4,1.4,0.4L303,198.4L303,198.4z"/>
			<path class="st21" d="M298.3,201.7l-0.6,0.1c0-0.1-0.1-0.4-0.1-0.5c0-0.3,0-0.4,0.1-0.5s0.1-0.3,0.3-0.3c0.1-0.1,0.4-0.1,0.8-0.1
				h2.3v-0.5h0.5v0.5h1l0.4,0.6h-1.3v0.7h-0.5V201h-2.7c-0.1,0-0.1,0.1-0.1,0.1l0,0c-0.1,0.1-0.1,0.1-0.1,0.3
				C298.1,201.4,298.1,201.5,298.3,201.7z"/>
			<path class="st21" d="M302.2,202.3h0.8v0.7h-0.8V202.3z M297.6,202.3h3.9v0.7h-3.9V202.3z"/>
			<path class="st21" d="M297.6,204h5.4v0.7h-5.4V204z"/>
			<path class="st21" d="M302.2,205.7h0.8v0.7h-0.8V205.7z M297.6,205.7h3.9v0.7h-3.9V205.7z"/>
			<path class="st21" d="M298.3,208.9l-0.6,0.1c0-0.1-0.1-0.4-0.1-0.5c0-0.3,0-0.4,0.1-0.5s0.1-0.3,0.3-0.3c0.1-0.1,0.4-0.1,0.8-0.1
				h2.3V207h0.5v0.5h1l0.4,0.6h-1.3v0.7h-0.5v-0.7h-2.7c-0.1,0-0.1,0.1-0.1,0.1l0,0c-0.1,0.1-0.1,0.1-0.1,0.3
				C298.1,208.6,298.1,208.7,298.3,208.9z"/>
			<path class="st21" d="M296.1,209.5l0.6-0.1c0,0.1-0.1,0.3-0.1,0.4c0,0.1,0,0.3,0.1,0.4c0.1,0.1,0.1,0.1,0.1,0.1
				c0.1,0.1,0.4,0.1,0.5,0.1s0.1,0.1,0.1,0.1l3.9-1.5v0.7l-2.3,0.8c-0.3,0.1-0.6,0.1-0.9,0.3c0.3,0.1,0.6,0.1,0.9,0.3l2.3,0.8v0.7
				l-4-1.5c-0.4-0.1-0.7-0.3-0.9-0.4c-0.2-0.1-0.4-0.2-0.4-0.4c-0.1-0.1-0.1-0.4-0.1-0.5C296,209.7,296,209.6,296.1,209.5z"/>
		</g>
		<g id="Outline_Icons-13-2-3-3">
			<g id="Outline_Icons-14-2-3-3">
				<path class="st27" d="M319.8,200.1v-1.7c0-0.6,0.5-1.1,1.1-1.1h3.4c0.6,0,1.1,0.5,1.1,1.1v10.8c0,0.6-0.5,1.1-1.1,1.1h-3.4
					c-0.6,0-1.1-0.5-1.1-1.1v-1.7"/>
				<polyline class="st27" points="326.5,200.1 328.8,200.1 328.8,205.8 327.1,207.5 326.5,207.5 				"/>
				<rect x="316.8" y="200.1" class="st27" width="4.6" height="7.4"/>
				<circle class="st27" cx="323.6" cy="198.9" r="0.5"/>
				<line class="st27" x1="320.3" y1="201.2" x2="320.3" y2="206.3"/>
				<line class="st27" x1="319.1" y1="201.2" x2="319.1" y2="206.3"/>
				<line class="st27" x1="318" y1="201.2" x2="318" y2="206.3"/>
				<polyline class="st27" points="328.8,205.8 327.1,205.8 327.1,207.5 				"/>
			</g>
		</g>
	</g>
	<g id="Coffee-2">
		<g class="st14">
			<path class="st21" d="M665.9,361.1v-5h0.7v2.5l2.5-2.5h0.9l-2.1,2l2.2,3h-0.9l-1.8-2.5l-0.8,0.8v1.8L665.9,361.1L665.9,361.1z"/>
			<path class="st21" d="M670.5,356.8v-0.7h0.6v0.7H670.5z M670.5,361.1v-3.6h0.6v3.6H670.5z"/>
			<path class="st21" d="M673.5,360.5l0.1,0.5c-0.2,0.1-0.3,0.1-0.5,0.1s-0.4-0.1-0.5-0.1c-0.1-0.1-0.2-0.1-0.3-0.3
				c-0.1-0.1-0.1-0.3-0.1-0.7v-2.1h-0.5v-0.5h0.5v-0.9l0.6-0.3v1.3h0.6v0.5h-0.6v2.1c0,0.2,0,0.3,0,0.3c0,0.1,0.1,0.1,0.1,0.1
				c0.1,0,0.1,0.1,0.2,0.1S673.3,360.6,673.5,360.5z"/>
			<path class="st21" d="M676.4,359.8l0.6,0.1c-0.1,0.4-0.2,0.7-0.5,1c-0.3,0.2-0.6,0.3-1,0.3c-0.5,0-0.9-0.1-1.2-0.5
				s-0.5-0.8-0.5-1.4c0-0.4,0.1-0.7,0.2-1c0.1-0.3,0.3-0.5,0.6-0.7c0.3-0.1,0.5-0.2,0.9-0.2s0.7,0.1,1,0.3c0.3,0.2,0.4,0.5,0.5,0.8
				l-0.6,0.1c-0.1-0.3-0.1-0.4-0.3-0.5s-0.3-0.2-0.5-0.2c-0.3,0-0.5,0.1-0.7,0.3c-0.2,0.2-0.3,0.5-0.3,1.1c0,0.5,0.1,0.8,0.3,1.1
				c0.2,0.2,0.4,0.3,0.7,0.3s0.5-0.1,0.6-0.2C676.2,360.2,676.4,360,676.4,359.8z"/>
			<path class="st21" d="M677.5,361.1v-5h0.6v1.8c0.3-0.3,0.7-0.5,1.1-0.5c0.3,0,0.5,0.1,0.7,0.1c0.2,0.1,0.3,0.3,0.4,0.4
				c0.1,0.2,0.1,0.5,0.1,0.8v2.3h-0.6v-2.3c0-0.3-0.1-0.5-0.2-0.7c-0.1-0.1-0.3-0.2-0.5-0.2s-0.3,0.1-0.5,0.1
				c-0.1,0.1-0.3,0.2-0.3,0.4c-0.1,0.1-0.1,0.4-0.1,0.7v2L677.5,361.1L677.5,361.1z"/>
			<path class="st21" d="M683.9,359.9l0.6,0.1c-0.1,0.3-0.3,0.7-0.5,0.9c-0.3,0.2-0.6,0.3-1,0.3c-0.5,0-1-0.1-1.3-0.5
				c-0.3-0.3-0.5-0.8-0.5-1.4s0.1-1.1,0.5-1.4s0.7-0.5,1.2-0.5s0.9,0.1,1.2,0.5c0.3,0.3,0.5,0.8,0.5,1.4c0,0.1,0,0.1,0,0.1h-2.7
				c0,0.4,0.1,0.7,0.3,0.9c0.2,0.2,0.5,0.3,0.7,0.3s0.4-0.1,0.5-0.2C683.7,360.4,683.8,360.2,683.9,359.9z M681.9,359h2
				c0-0.3-0.1-0.5-0.2-0.7c-0.2-0.2-0.5-0.3-0.7-0.3c-0.3,0-0.5,0.1-0.7,0.3C682,358.3,681.9,358.6,681.9,359z"/>
			<path class="st21" d="M685.3,361.1v-3.6h0.5v0.5c0.3-0.4,0.7-0.6,1.2-0.6c0.2,0,0.4,0.1,0.6,0.1c0.2,0.1,0.3,0.2,0.4,0.3
				c0.1,0.1,0.1,0.3,0.2,0.5c0,0.1,0,0.3,0,0.6v2.2h-0.6v-2.3c0-0.3,0-0.4-0.1-0.5s-0.1-0.2-0.3-0.3c-0.1-0.1-0.3-0.1-0.4-0.1
				c-0.3,0-0.5,0.1-0.7,0.3c-0.2,0.1-0.3,0.5-0.3,1v2L685.3,361.1L685.3,361.1L685.3,361.1z"/>
		</g>
		<circle class="st22" cx="677.4" cy="338.5" r="15"/>
	</g>
	<path class="st28" d="M671.1,342.3H684v0.9c0,0.5-0.3,0.9-0.8,0.9l0,0c-0.1,0-0.1,0-0.1,0H672c-0.5,0-0.9-0.3-0.9-0.8l0,0
		c0-0.1,0-0.1,0-0.1l0,0V342.3z"/>
	<path class="st28" d="M672,335.3h11.1c0.5,0,0.9,0.3,0.9,0.8l0,0c0,0.1,0,0.1,0,0.1v0.9h-12.9v-0.9c0-0.5,0.3-0.9,0.8-0.9
		C672,335.3,672,335.3,672,335.3z"/>
	<path class="st28" d="M671.1,339.4l0.9-0.7c0.5-0.3,1.2-0.3,1.8,0l0.5,0.3c0.5,0.3,1.2,0.3,1.8,0l0.5-0.3c0.5-0.3,1.2-0.3,1.8,0
		l0.5,0.3c0.5,0.3,1.2,0.3,1.8,0l0.5-0.3c0.5-0.3,1.2-0.3,1.8,0l0.9,0.7"/>
	<line class="st28" x1="670.8" y1="340.9" x2="684.5" y2="340.9"/>
	<line class="st28" x1="677.6" y1="333.5" x2="677.6" y2="334"/>
	<circle class="st28" cx="677.6" cy="332.4" r="0.9"/>
	<g id="Pantry-2">
		<circle class="st22" cx="674.6" cy="384" r="14.6"/>
		<g class="st14">
			<path class="st26" d="M663.5,406.3v-4.8h1.8c0.3,0,0.5,0,0.8,0s0.4,0.1,0.7,0.3c0.1,0.1,0.3,0.3,0.4,0.5s0.1,0.4,0.1,0.7
				c0,0.4-0.1,0.8-0.4,1c-0.3,0.3-0.8,0.4-1.4,0.4h-1.2v2h-0.8L663.5,406.3L663.5,406.3z M664.1,403.7h1.3c0.4,0,0.7-0.1,0.9-0.3
				c0.1-0.1,0.3-0.4,0.3-0.7c0-0.3,0-0.4-0.1-0.5s-0.3-0.3-0.4-0.3c-0.1,0-0.3,0-0.7,0h-1.2L664.1,403.7L664.1,403.7L664.1,403.7z"
				/>
			<path class="st26" d="M670.1,405.8c-0.3,0.1-0.4,0.3-0.7,0.4s-0.4,0.1-0.7,0.1c-0.4,0-0.7-0.1-0.9-0.3c-0.3-0.1-0.3-0.4-0.3-0.7
				c0-0.1,0-0.3,0.1-0.5c0.1-0.1,0.1-0.3,0.3-0.4c0.1-0.1,0.3-0.1,0.4-0.1c0.1,0,0.3,0,0.5-0.1c0.5,0,0.8-0.1,1-0.3
				c0-0.1,0-0.1,0-0.1c0-0.3,0-0.4-0.1-0.5s-0.4-0.3-0.7-0.3s-0.5,0-0.7,0.1c-0.1,0.1-0.3,0.3-0.3,0.5l-0.5-0.1
				c0-0.3,0.1-0.4,0.3-0.7c0.1-0.1,0.3-0.3,0.5-0.4c0.3-0.1,0.5-0.1,0.8-0.1s0.5,0,0.8,0.1s0.3,0.1,0.4,0.3c0.1,0.1,0.1,0.3,0.1,0.4
				s0,0.3,0,0.5v0.8c0,0.5,0,0.9,0,1s0.1,0.3,0.1,0.4h-0.7C670.3,406.2,670.1,406,670.1,405.8z M670.1,404.5
				c-0.3,0.1-0.5,0.1-0.9,0.3c-0.3,0-0.4,0.1-0.5,0.1s-0.1,0.1-0.3,0.1c-0.1,0-0.1,0.1-0.1,0.3s0,0.3,0.1,0.4s0.3,0.1,0.5,0.1
				s0.4,0,0.7-0.1c0.1-0.1,0.3-0.3,0.4-0.4C670,405.2,670.1,404.9,670.1,404.5L670.1,404.5L670.1,404.5z"/>
			<path class="st26" d="M671.6,406.3v-3.5h0.5v0.5c0.3-0.4,0.7-0.5,1-0.5s0.4,0,0.5,0.1s0.3,0.1,0.4,0.3c0.1,0.1,0.1,0.3,0.1,0.4
				s0,0.3,0,0.5v2.1h-0.7v-2.1c0-0.3,0-0.4-0.1-0.5c0-0.1-0.1-0.3-0.3-0.3c-0.1-0.1-0.3-0.1-0.4-0.1c-0.3,0-0.5,0.1-0.7,0.3
				c-0.1,0.1-0.3,0.5-0.3,0.9V406.3L671.6,406.3L671.6,406.3z"/>
			<path class="st26" d="M676.7,405.8l0.1,0.5c-0.1,0-0.3,0-0.4,0c-0.3,0-0.4,0-0.5-0.1s-0.3-0.1-0.3-0.3s-0.1-0.4-0.1-0.7v-2h-0.4
				v-0.5h0.4v-0.9l0.5-0.4v1.2h0.7v0.5H676v2.1c0,0.1,0,0.3,0,0.3s0,0.1,0.1,0.1s0.1,0,0.3,0C676.4,405.8,676.5,405.8,676.7,405.8z"
				/>
			<path class="st26" d="M677.2,406.3v-3.5h0.5v0.5c0.1-0.3,0.3-0.4,0.4-0.5s0.3-0.1,0.4-0.1c0.3,0,0.4,0,0.7,0.1l-0.3,0.5
				c-0.1-0.1-0.3-0.1-0.4-0.1s-0.3,0-0.4,0.1c-0.1,0.1-0.1,0.1-0.3,0.3c0,0.3-0.1,0.4-0.1,0.7v1.8h-0.5L677.2,406.3L677.2,406.3z"/>
			<path class="st26" d="M679.4,407.6l-0.1-0.5c0.1,0,0.3,0,0.4,0s0.3,0,0.3-0.1c0.1,0,0.1-0.1,0.1-0.1s0.1-0.3,0.1-0.4v-0.1
				l-1.3-3.5h0.7l0.8,2c0.1,0.3,0.1,0.5,0.3,0.8c0.1-0.3,0.1-0.5,0.3-0.8l0.8-2.1h0.7l-1.3,3.5c-0.1,0.4-0.3,0.7-0.4,0.8
				c-0.1,0.1-0.3,0.4-0.4,0.4c-0.1,0-0.3,0.1-0.5,0.1C679.7,407.6,679.5,407.6,679.4,407.6z"/>
		</g>
		<path class="st29" d="M679.4,381.2c0-0.4-0.3-0.7-0.7-0.7c0.3,0,0.7-0.5,0.7-0.8s-0.1-0.8-0.7-0.8h-0.1v-0.1c0-0.1,0-0.3-0.1-0.3
			l-0.1-0.1c-0.1-0.1-0.1-0.1-0.3-0.1h-0.3c-0.1,0.4-0.5,0.7-0.9,0.7c-0.3,0-0.5-0.3-0.7-0.7c-0.8-0.4-1.7-0.1-2.1,0.7l0,0v0.1
			c-0.3,0-0.8-0.3-0.8-0.7l0,0c-0.4,0-0.7,0.3-0.7,0.7c0-0.5-0.3-0.7-0.8-0.7c-0.4,0-0.7,0.3-0.7,0.7v0.1H671
			c-0.5,0-0.7,0.5-0.7,0.8c0,0.4,0.3,0.7,0.7,0.8c-0.4,0-0.7,0.4-0.7,0.8l0,0c0.4,0,0.7,0.4,0.7,0.8l0,0c-0.4,0-0.7,0.3-0.7,0.7
			s0.3,0.7,0.7,0.7c0,0.4-0.3,0.7-0.7,0.7l0,0c-0.3,0.7,0,1.4,0.7,2c0,0.4-0.3,0.7-0.7,0.7l0,0c0,0.4,0.3,0.7,0.7,0.7
			c-0.3,0-0.7,0.5-0.7,0.8s0.1,0.8,0.7,0.8h0.5v0.1c0,0.3,0.5,0.7,0.8,0.7c0-0.3,0.3-0.8,0.7-0.8s0.8,0.3,0.8,0.7l0,0
			c0-0.3,0.3-0.8,0.7-0.8s0.8,0.3,0.8,0.7l0,0c0-0.4,0.3-0.7,0.7-0.7s0.7,0.3,0.7,0.7l0,0c0.4,0,0.7-0.3,0.7-0.7
			c0,0.3,0.5,0.7,0.8,0.7s0.8-0.3,0.8-0.7h0.1c0.5,0,0.7-0.5,0.7-0.8c0-0.4-0.3-0.7-0.7-0.8c0.4,0,0.7-0.4,0.7-0.8l0,0
			c-0.4,0-0.7-0.4-0.7-0.8l0,0c0-0.4,0.3-0.7,0.7-0.7c0.3-0.7,0-1.4-0.7-2c0-0.4,0.3-0.7,0.7-0.7l0,0c0-0.4-0.3-0.7-0.7-0.7
			C679.3,381.9,679.7,381.6,679.4,381.2z"/>
		<circle class="st29" cx="673.4" cy="381.9" r="0.5"/>
		<circle class="st29" cx="676.4" cy="381.9" r="0.5"/>
		<circle class="st29" cx="673.4" cy="384" r="0.5"/>
		<circle class="st29" cx="676.4" cy="384" r="0.5"/>
		<circle class="st29" cx="673.4" cy="386.2" r="0.5"/>
		<circle class="st29" cx="676.4" cy="386.2" r="0.5"/>
	</g>
	<circle class="st22" cx="327.8" cy="294.8" r="14.7"/>
	<g class="st14">
		<path class="st26" d="M312.3,316.4v-4.9h1l1.1,3.5c0.1,0.3,0.1,0.6,0.3,0.7c0-0.1,0.1-0.4,0.3-0.8l1.1-3.5h0.8v4.9h-0.6v-4.1
			l-1.4,4.1h-0.6l-1.4-4.2v4.2h-0.7L312.3,316.4L312.3,316.4z"/>
		<path class="st26" d="M320.2,316c-0.3,0.1-0.4,0.3-0.7,0.4c-0.1,0.1-0.4,0.1-0.7,0.1c-0.4,0-0.7-0.1-0.8-0.3
			c-0.3-0.1-0.3-0.4-0.3-0.7c0-0.1,0-0.3,0.1-0.4s0.1-0.3,0.3-0.3c0.1-0.1,0.3-0.1,0.4-0.1s0.3,0,0.6-0.1c0.4,0,0.8-0.1,1.1-0.1
			c0-0.1,0-0.1,0-0.1c0-0.3,0-0.4-0.1-0.6c-0.1-0.1-0.4-0.1-0.7-0.1c-0.3,0-0.6,0-0.7,0.1s-0.3,0.3-0.3,0.6l-0.6-0.1
			c0-0.3,0.1-0.4,0.3-0.6c0.1-0.1,0.3-0.3,0.6-0.4c0.3-0.1,0.6-0.1,0.8-0.1c0.3,0,0.6,0,0.7,0.1s0.3,0.1,0.4,0.3
			c0.1,0.1,0.1,0.3,0.1,0.4s0,0.3,0,0.6v0.8c0,0.6,0,1,0,1.1s0.1,0.3,0.1,0.4h-0.7C320.4,316.3,320.2,316.1,320.2,316z M320.2,314.7
			c-0.3,0.1-0.6,0.1-1,0.3c-0.3,0-0.4,0.1-0.6,0.1c-0.1,0-0.1,0.1-0.3,0.1c0,0.1-0.1,0.1-0.1,0.3c0,0.1,0,0.3,0.1,0.4
			s0.3,0.1,0.6,0.1c0.3,0,0.4,0,0.6-0.1c0.1-0.1,0.3-0.3,0.4-0.4c0-0.1,0.1-0.3,0.1-0.6v-0.3L320.2,314.7L320.2,314.7z"/>
		<path class="st26" d="M321.8,312.2v-0.7h0.6v0.7H321.8z M321.8,316.4v-3.6h0.6v3.6H321.8z"/>
		<path class="st26" d="M323.3,316.4v-4.9h0.6v4.9H323.3z"/>
		<path class="st26" d="M326.8,316.4v-4.9h2.2c0.4,0,0.8,0,1,0.1c0.3,0.1,0.4,0.3,0.6,0.4s0.1,0.4,0.1,0.7c0,0.3-0.1,0.7-0.3,0.8
			c-0.3,0.3-0.6,0.4-1,0.4c0.1,0.1,0.3,0.1,0.4,0.3c0.1,0.1,0.4,0.4,0.6,0.7l0.8,1.4h-0.8l-0.7-1c-0.1-0.3-0.3-0.6-0.4-0.7
			s-0.3-0.3-0.3-0.3c-0.1,0-0.1-0.1-0.3-0.1c-0.1,0-0.1,0-0.4,0h-0.7v2.2H326.8L326.8,316.4z M327.5,313.8h1.4c0.3,0,0.6,0,0.7-0.1
			s0.3-0.1,0.4-0.3c0.1-0.1,0.1-0.3,0.1-0.4c0-0.3-0.1-0.4-0.3-0.6c-0.1-0.1-0.4-0.3-0.8-0.3h-1.5L327.5,313.8L327.5,313.8z"/>
		<path class="st26" d="M331.4,314.7c0-0.7,0.1-1.1,0.6-1.4c0.3-0.3,0.7-0.4,1.1-0.4c0.6,0,0.8,0.1,1.3,0.4c0.3,0.3,0.4,0.7,0.4,1.4
			c0,0.4,0,0.8-0.1,1.1c-0.1,0.3-0.3,0.4-0.6,0.6c-0.3,0.1-0.6,0.3-0.8,0.3c-0.6,0-0.8-0.1-1.3-0.4
			C331.6,315.7,331.4,315.3,331.4,314.7z M332.1,314.7c0,0.4,0.1,0.8,0.3,1c0.1,0.3,0.4,0.3,0.7,0.3c0.3,0,0.6-0.1,0.7-0.3
			c0.1-0.1,0.3-0.6,0.3-1s-0.1-0.8-0.3-1c-0.1-0.3-0.4-0.3-0.7-0.3c-0.3,0-0.6,0.1-0.7,0.3C332.1,313.9,332.1,314.2,332.1,314.7z"/>
		<path class="st26" d="M335.3,314.7c0-0.7,0.1-1.1,0.6-1.4c0.3-0.3,0.7-0.4,1.1-0.4c0.6,0,0.8,0.1,1.3,0.4c0.3,0.3,0.4,0.7,0.4,1.4
			c0,0.4,0,0.8-0.1,1.1c-0.1,0.3-0.3,0.4-0.6,0.6c-0.3,0.1-0.6,0.3-0.8,0.3c-0.6,0-0.8-0.1-1.3-0.4
			C335.5,315.7,335.3,315.3,335.3,314.7z M335.9,314.7c0,0.4,0.1,0.8,0.3,1c0.1,0.3,0.4,0.3,0.7,0.3c0.3,0,0.6-0.1,0.7-0.3
			c0.1-0.1,0.3-0.6,0.3-1s-0.1-0.8-0.3-1c-0.1-0.3-0.4-0.3-0.7-0.3c-0.3,0-0.6,0.1-0.7,0.3C336,313.9,335.9,314.2,335.9,314.7z"/>
		<path class="st26" d="M339.4,316.4v-3.6h0.6v0.6c0.1-0.1,0.3-0.3,0.4-0.4s0.4-0.1,0.7-0.1c0.3,0,0.4,0,0.7,0.1
			c0.3,0.1,0.3,0.3,0.4,0.4c0.3-0.4,0.7-0.6,1.1-0.6s0.6,0.1,0.8,0.3c0.1,0.1,0.3,0.6,0.3,0.8v2.5h-0.6v-2.2c0-0.3,0-0.4,0-0.6
			c0-0.1-0.1-0.1-0.3-0.3c-0.1,0-0.3-0.1-0.4-0.1c-0.3,0-0.4,0.1-0.6,0.3c-0.1,0.1-0.3,0.4-0.3,0.8v2.1h-0.6V314
			c0-0.3,0-0.4-0.1-0.6c-0.1-0.1-0.3-0.1-0.4-0.1s-0.3,0-0.4,0.1s-0.3,0.3-0.3,0.4s-0.1,0.4-0.1,0.7v1.8L339.4,316.4L339.4,316.4z"
			/>
	</g>
	<g id="Outline_Icons-3">
		<g id="Outline_Icons-4">
			<path class="st30" d="M334.5,297.7c0,0.4-0.3,0.7-0.7,0.8H325c-0.4,0-0.7-0.3-0.8-0.7l0,0v-7.3c0-0.4,0.3-0.7,0.7-0.8h8.8
				c0.4,0,0.7,0.3,0.8,0.7l0,0V297.7z"/>
			<polyline class="st30" points="334.2,290.2 329.5,294.8 324.7,290.2 			"/>
			<path class="st30" d="M324.3,292h-1c-0.1,0-0.4,0.1-0.4,0.3l0,0v7.3c0,0.1,0.1,0.4,0.3,0.4h8.8c0.1,0,0.4-0.1,0.4-0.3l0,0v-1.1"
				/>
		</g>
	</g>
</g>
<line class="st16" x1="510" y1="611" x2="510" y2="665.7"/>
</svg>
