<?xml version="1.0" standalone="no"?>
<!DOCTYPE svg PUBLIC "-//W3C//DTD SVG 1.1//EN" "http://www.w3.org/Graphics/SVG/1.1/DTD/svg11.dtd" >
<svg xmlns="http://www.w3.org/2000/svg" xmlns:xlink="http://www.w3.org/1999/xlink" version="1.1">
<metadata>
Created by FontForge 20170908 at Tue Sep  4 04:21:45 2018
 By Tomas Celizna
Copyright \(c\) 2007 by Radim Pesko. All rights reserved.
</metadata>
<defs>
<font id="LarishMcKinseySemibold" horiz-adv-x="400" >
  <font-face 
    font-family="LarishMcKinseySemibold"
    font-weight="600"
    font-stretch="normal"
    units-per-em="1000"
    panose-1="2 0 0 0 0 0 0 0 0 0"
    ascent="771"
    descent="-229"
    x-height="479"
    cap-height="728"
    bbox="-25 -262 1054 1134"
    underline-thickness="50"
    underline-position="-100"
    stemh="36"
    stemv="128"
    unicode-range="U+000D-FB04"
  />
<missing-glyph horiz-adv-x="310" 
 />
    <glyph glyph-name="f_f" unicode="ff" horiz-adv-x="665" 
d="M534 426v-335c0 -16 42 -55 55 -55h30v-36h-288v36h20c14 0 55 39 55 55v335h-179v-335c0 -16 42 -55 55 -55h20v-36h-279v36h20c14 0 55 39 55 55v335h-78v53h78v95c0 125 85 197 208 197c66 0 104 -11 146 -43c29 29 70 43 118 43c50 0 85 -29 85 -71
c0 -37 -24 -63 -66 -63c-48 0 -73 38 -71 84c-32 -6 -53 -38 -53 -71c0 -68 67 -105 67 -160v-11h114v-53h-112zM225 479h181v125c-54 0 -82 41 -72 101c-12 15 -39 23 -54 23c-63 0 -98 -31 -98 -87c0 -61 43 -87 43 -151v-11z" />
    <glyph glyph-name="f_i" unicode="fi" horiz-adv-x="621" 
d="M412 762c54 -11 93 -41 93 -89c0 -43 -25 -69 -72 -69c-54 0 -83 40 -73 100c-18 16 -41 24 -71 24c-69 0 -107 -34 -107 -90c0 -61 43 -84 43 -148v-11h309v-388c0 -16 42 -55 55 -55h20v-36h-278v36h20c14 0 55 39 55 55v280c0 15 -41 55 -55 55h-124v-335
c0 -16 42 -55 55 -55h20v-36h-279v36h20c14 0 55 39 55 55v335h-78v53h78v75c0 144 74 217 228 217c32 0 55 -3 86 -9z" />
    <glyph glyph-name="f_l" unicode="fl" horiz-adv-x="618" 
d="M302 770c35 0 85 -8 121 -28c67 15 110 29 110 29v-680c0 -16 42 -55 55 -55h20l1 -36h-278v36h20c14 0 55 39 55 55v335h-179v-335c0 -16 42 -55 55 -55h20v-36h-279v36h20c14 0 55 39 55 55v335h-78v53h78v75c0 144 77 216 204 216zM225 479h181v126
c-54 0 -81 39 -71 99c-18 16 -35 25 -65 25c-63 0 -89 -38 -89 -90c0 -61 44 -85 44 -149v-11z" />
    <glyph glyph-name="f_f_i" unicode="ffi" horiz-adv-x="929" 
d="M842 479v-388c0 -16 42 -55 55 -55h20v-36h-278v36h20c14 0 55 39 55 55v280c0 15 -41 55 -55 55h-124v-335c0 -16 42 -55 55 -55h20v-36h-279v36h20c14 0 55 39 55 55v335h-179v-335c0 -16 42 -55 55 -55h20v-36h-279v36h20c14 0 55 39 55 55v335h-78v53h78v95
c0 125 85 197 208 197c72 0 111 -13 158 -52l-1 -1c38 35 95 53 171 53c32 0 55 -2 86 -8c54 -11 93 -42 93 -90c0 -43 -26 -69 -73 -69c-54 0 -82 40 -72 100c-18 16 -41 23 -71 23c-69 0 -107 -33 -107 -89c0 -61 43 -84 43 -148v-11h309zM225 490v-11h181v75
c0 18 1 34 3 50h-3c-54 0 -82 41 -72 101c-12 15 -39 23 -54 23c-63 0 -98 -31 -98 -87c0 -61 43 -87 43 -151z" />
    <glyph glyph-name="f_f_l" unicode="ffl" horiz-adv-x="926" 
d="M597 770c47 0 90 -9 133 -28c67 15 110 29 111 29v-680c0 -16 42 -55 55 -55h20v-36h-276v36h20c14 0 54 39 54 55v335h-180v-335c0 -16 42 -55 55 -55h20v-36h-278v36h20c14 0 55 39 55 55v335h-179v-335c0 -16 42 -55 55 -55h20v-36h-279v36h20c14 0 55 39 55 55v335
h-78v53h78v95c0 125 84 196 207 196c67 0 105 -16 149 -45c32 29 72 45 143 45zM714 479v126c-54 0 -82 39 -72 99c-18 16 -35 25 -65 25c-63 0 -89 -38 -89 -90c0 -61 44 -85 44 -149v-11h182zM225 490v-11h181v127c-54 0 -80 39 -70 99c-12 15 -41 23 -56 23
c-63 0 -98 -31 -98 -87c0 -61 43 -87 43 -151z" />
    <glyph glyph-name=".notdef" horiz-adv-x="310" 
 />
    <glyph glyph-name=".null" horiz-adv-x="0" 
 />
    <glyph glyph-name=".null" horiz-adv-x="0" 
 />
    <glyph glyph-name="CR" unicode="&#xd;" horiz-adv-x="0" 
 />
    <glyph glyph-name="space" unicode=" " horiz-adv-x="310" 
 />
    <glyph glyph-name="exclam" unicode="!" horiz-adv-x="292" 
d="M129 226l-64 440c0 48 36 75 81 75s81 -27 81 -75l-64 -440h-34zM68 75c0 -43 32 -75 77 -75s77 32 77 75s-32 75 -77 75s-77 -32 -77 -75z" />
    <glyph glyph-name="quotedbl" unicode="&#x22;" horiz-adv-x="420" 
d="M118 444l-53 220c0 37 23 67 67 67s67 -30 67 -67l-52 -220h-29zM273 444l-52 220c0 37 23 67 67 67s67 -30 67 -67l-53 -220h-29z" />
    <glyph glyph-name="numbersign" unicode="#" horiz-adv-x="660" 
d="M30 250h115l50 229h-104v64h118l40 185h72l-40 -185h168l40 185h72l-40 -185h109v-64h-123l-50 -229h112v-65h-126l-40 -185h-72l40 185h-168l-40 -185h-72l40 185h-101v65zM267 479l-50 -229h168l50 229h-168z" />
    <glyph glyph-name="dollar" unicode="$" horiz-adv-x="621" 
d="M279 737v84h48v-91c34 -8 68 -20 100 -20c23 0 37 7 49 18h35v-207h-38c0 32 -56 133 -146 161v-241c23 -11 46 -21 69 -30c93 -39 165 -92 165 -207c0 -111 -76 -211 -234 -211v-93h-48v99c-38 7 -68 22 -104 22c-32 0 -53 -10 -66 -21h-36v229h40
c0 -41 65 -152 166 -181v245c-28 14 -56 29 -87 46c-80 42 -132 106 -132 194c0 105 61 204 219 204zM327 270v-228c72 0 129 28 129 99c0 81 -73 103 -129 129zM164 593c0 -54 44 -90 83 -112c10 -6 21 -12 32 -17v225c-66 -1 -115 -32 -115 -96z" />
    <glyph glyph-name="percent" unicode="%" horiz-adv-x="780" 
d="M599 728h74l-492 -728h-75zM40 567c0 98 78 166 159 166s159 -68 159 -166s-78 -166 -159 -166s-159 68 -159 166zM266 523c3 29 3 59 0 88c-3 53 -25 80 -67 80s-64 -27 -68 -80c-2 -29 -2 -59 0 -88c4 -53 26 -80 68 -80s64 27 67 80zM422 161c0 98 78 166 159 166
s159 -68 159 -166s-78 -166 -159 -166s-159 68 -159 166zM648 117c3 29 3 59 0 88c-3 53 -25 80 -67 80s-64 -27 -68 -80c-2 -29 -2 -59 0 -88c4 -53 26 -80 68 -80s64 27 67 80z" />
    <glyph glyph-name="ampersand" unicode="&#x26;" horiz-adv-x="833" 
d="M290 700c-73 0 -117 -34 -117 -100c0 -58 42 -98 106 -121c71 -73 196 -190 305 -285c22 43 31 84 31 139c0 67 -44 107 -110 109v37h272v-37h-28c-14 0 -69 -57 -69 -79c-1 -78 -20 -134 -65 -197c44 -39 120 -98 164 -130h41v-36h-129c-65 0 -111 19 -166 64
c-58 -52 -131 -83 -234 -83c-132 0 -245 88 -245 216c0 98 51 177 115 224c-36 46 -56 85 -56 152c0 101 70 170 184 170c67 0 113 -30 144 -30c16 0 26 3 34 15h38v-193h-38c0 40 -81 165 -177 165zM184 393c-33 -35 -46 -77 -46 -144c0 -104 108 -197 212 -197
c58 0 105 14 143 38c-111 92 -209 186 -309 303z" />
    <glyph glyph-name="quotesingle" unicode="'" horiz-adv-x="250" 
d="M110 444l-56 217c0 39 25 70 71 70s71 -31 71 -70l-56 -217h-30z" />
    <glyph glyph-name="parenleft" unicode="(" horiz-adv-x="380" 
d="M184 282c0 -299 72 -370 173 -459l-24 -30c-77 54 -263 190 -263 489s186 435 263 489l24 -30c-101 -89 -173 -160 -173 -459z" />
    <glyph glyph-name="parenright" unicode=")" horiz-adv-x="380" 
d="M196 282c0 299 -72 370 -173 459l24 30c77 -54 263 -190 263 -489s-186 -435 -263 -489l-24 30c101 89 173 160 173 459z" />
    <glyph glyph-name="asterisk" unicode="*" horiz-adv-x="470" 
d="M404 597l36 -36l-36 -36l-155 30l133 -89v-50h-56l-86 132l34 -154l-39 -40l-41 40l34 154l-84 -132h-56v50l132 89l-154 -30l-36 36l36 36l154 -30l-132 89v50h56l84 -132l-34 154l41 40l39 -40l-34 -154l86 132h56v-50l-133 -89z" />
    <glyph glyph-name="plus" unicode="+" horiz-adv-x="640" 
d="M360 559v-231h232v-77h-232v-237h-80v237h-232v77h232v231h80z" />
    <glyph glyph-name="comma" unicode="," horiz-adv-x="274" 
d="M212 73c5 -146 -64 -193 -171 -196l-11 46c64 -2 118 24 119 77h-32c-35 8 -61 31 -61 74c0 45 31 76 78 76c45 0 76 -32 78 -77z" />
    <glyph glyph-name="hyphen" unicode="-" horiz-adv-x="340" 
d="M25 330h290v-93h-290v93z" />
    <glyph glyph-name="period" unicode="." horiz-adv-x="274" 
d="M60 75c0 43 32 75 77 75s77 -32 77 -75s-32 -75 -77 -75s-77 32 -77 75z" />
    <glyph glyph-name="slash" unicode="/" horiz-adv-x="521" 
d="M429 771l62 -28l-405 -880l-61 29z" />
    <glyph glyph-name="zero" unicode="0" horiz-adv-x="600" 
d="M299 741c171 0 277 -183 277 -369s-106 -385 -276 -385s-277 198 -277 375s105 379 276 379zM300 45c68 0 121 49 128 188c3 61 3 214 0 276c-6 121 -39 177 -128 177c-68 0 -124 -42 -131 -181c-3 -61 -3 -214 0 -276c6 -121 42 -184 131 -184z" />
    <glyph glyph-name="one" unicode="1" horiz-adv-x="391" 
d="M130 96v441c0 16 -33 48 -45 48h-45v35c81 27 143 59 226 112h5v-636c0 -16 41 -60 55 -60h35v-36h-321v36h35c14 0 55 44 55 60z" />
    <glyph glyph-name="two" unicode="2" horiz-adv-x="550" 
d="M137 109h368l-26 -109h-449v34c34 90 156 217 262 327c41 43 75 89 75 157c0 81 -50 130 -134 130c-81 0 -124 -49 -165 -103l-38 34c52 79 130 162 249 162c128 0 226 -72 226 -211c0 -117 -85 -183 -158 -239c-78 -61 -186 -142 -210 -182z" />
    <glyph glyph-name="three" unicode="3" horiz-adv-x="556" 
d="M146 376v47l105 35c43 27 70 58 70 101c0 64 -43 94 -103 94c-55 0 -121 -37 -165 -73l-33 42c57 59 159 119 263 119c91 0 172 -43 172 -136c0 -83 -72 -134 -140 -161c85 2 201 -38 201 -161c0 -215 -301 -308 -454 -308l-10 61c106 2 324 62 324 228
c0 107 -102 141 -230 112z" />
    <glyph glyph-name="four" unicode="4" horiz-adv-x="580" 
d="M449 186v-90c0 -16 41 -60 55 -60h35v-36h-319v36h35c14 0 55 44 55 60v90h-292v52c162 215 303 441 303 441l128 55v-477h109v-71h-109zM313 257v317c-5 -7 -93 -159 -206 -317h206z" />
    <glyph glyph-name="five" unicode="5" horiz-adv-x="549" 
d="M441 728l26 -108h-327l-28 -186c54 45 115 80 193 80c120 0 204 -68 204 -193c0 -216 -275 -343 -449 -346l-10 62c127 7 332 102 332 248c0 92 -50 135 -137 135c-54 0 -111 -31 -153 -61l-42 23l46 346h345z" />
    <glyph glyph-name="six" unicode="6" horiz-adv-x="580" 
d="M456 735l13 -59c-12 1 -23 2 -34 2c-165 0 -264 -139 -271 -278c36 51 86 86 167 86c136 0 219 -121 219 -241c0 -143 -84 -259 -231 -259c-198 0 -285 188 -285 347c0 223 153 404 377 404c15 0 30 0 45 -2zM173 261c0 -107 35 -209 137 -209c85 0 109 86 109 155
c0 96 -39 203 -135 203c-82 0 -111 -73 -111 -149z" />
    <glyph glyph-name="seven" unicode="7" horiz-adv-x="571" 
d="M260 0h-155c115 347 311 571 350 620h-425l26 108h470l20 -34l-45 -79c-100 -175 -219 -475 -241 -615z" />
    <glyph glyph-name="eight" unicode="8" horiz-adv-x="580" 
d="M438 154c0 83 -124 142 -199 176c-55 -29 -116 -63 -116 -149c0 -84 76 -134 163 -134c83 0 152 29 152 107zM333 442c43 25 83 67 83 124c0 81 -69 122 -151 122c-60 0 -99 -35 -99 -88c0 -66 81 -117 167 -158zM194 364c-69 42 -140 103 -140 194c0 110 93 182 225 182
c113 0 233 -53 233 -167c0 -85 -75 -134 -131 -158c83 -45 175 -98 174 -215c-1 -127 -121 -213 -279 -213c-116 0 -253 59 -253 189c0 109 109 162 171 188z" />
    <glyph glyph-name="nine" unicode="9" horiz-adv-x="580" 
d="M124 -9l-13 59c12 -1 23 -2 34 -2c165 0 264 150 270 289c-30 -47 -85 -85 -166 -85c-136 0 -219 113 -219 233c0 143 84 255 231 255c204 0 285 -182 285 -341c0 -236 -153 -410 -377 -410c-15 0 -30 0 -45 2zM407 480c0 107 -35 200 -137 200c-85 0 -109 -82 -109 -151
c0 -96 38 -193 134 -193c82 0 112 68 112 144z" />
    <glyph glyph-name="colon" unicode=":" horiz-adv-x="274" 
d="M60 404c0 43 32 75 77 75s77 -32 77 -75s-32 -75 -77 -75s-77 32 -77 75zM60 75c0 43 32 75 77 75s77 -32 77 -75s-32 -75 -77 -75s-77 32 -77 75z" />
    <glyph glyph-name="semicolon" unicode=";" horiz-adv-x="274" 
d="M60 404c0 43 32 75 77 75s77 -32 77 -75s-32 -75 -77 -75s-77 32 -77 75zM214 73c5 -146 -64 -193 -171 -196l-11 46c64 -2 118 24 119 77h-32c-35 8 -61 31 -61 74c0 45 31 76 78 76c45 0 76 -32 78 -77z" />
    <glyph glyph-name="less" unicode="&#x3c;" horiz-adv-x="640" 
d="M157 299l435 -213v-86l-544 272v55l544 271v-87z" />
    <glyph glyph-name="equal" unicode="=" horiz-adv-x="640" 
d="M48 414h544v-77h-544v77zM48 242h544v-77h-544v77z" />
    <glyph glyph-name="greater" unicode="&#x3e;" horiz-adv-x="640" 
d="M48 86l435 213l-435 212v87l544 -271v-55l-544 -272v86z" />
    <glyph glyph-name="question" unicode="?" horiz-adv-x="448" 
d="M298 586c0 58 -41 91 -92 91c-58 0 -96 -27 -111 -94l-50 10c26 92 81 148 189 148c90 0 179 -55 179 -173c0 -169 -199 -193 -199 -284v-56h-44v59c0 162 128 161 128 299zM120 75c0 -43 32 -75 77 -75s77 32 77 75s-32 75 -77 75s-77 -32 -77 -75z" />
    <glyph glyph-name="at" unicode="@" horiz-adv-x="890" 
d="M528 92c-25 -40 -78 -90 -142 -90c-75 0 -128 53 -128 126c0 90 85 124 158 139l97 19v54c0 58 -32 87 -98 87s-94 -37 -72 -117h-35l-58 82c29 36 86 84 193 84c109 0 186 -48 186 -138v-241c0 -23 15 -38 37 -38c61 0 109 79 109 195c0 215 -122 337 -315 337
s-338 -122 -338 -348c0 -220 136 -354 355 -354c74 0 151 3 217 6l-6 -58c-59 -2 -121 -3 -212 -1c-260 6 -434 164 -434 407c0 242 190 396 420 396s388 -153 388 -384c0 -150 -102 -253 -214 -253c-63 0 -94 43 -108 90zM513 139v108l-86 -23c-44 -12 -68 -39 -68 -83
c0 -39 22 -66 64 -66c36 0 73 34 90 64z" />
    <glyph glyph-name="A" unicode="A" horiz-adv-x="756" 
d="M490 102l-44 123h-232l-48 -122c3 -17 35 -66 50 -66h34v-37h-240v37h13c14 1 69 48 80 66l245 603l60 35l249 -639c12 -16 61 -65 75 -65h14v-37h-345v37h35c15 1 54 48 54 65zM337 537l-101 -255h190z" />
    <glyph glyph-name="B" unicode="B" horiz-adv-x="675" 
d="M20 728h313c152 0 275 -55 275 -180c0 -67 -34 -106 -81 -130l-84 -23c105 -15 207 -64 207 -187c0 -132 -118 -208 -307 -208h-322v36h30c14 0 55 44 55 60v536c0 15 -42 60 -56 60h-30v36zM253 405h91c53 7 110 34 114 110c1 18 1 31 0 50c-2 75 -68 117 -126 117h-46
c-12 0 -33 -22 -33 -34v-243zM253 358v-275c0 -11 23 -33 33 -33h58c83 0 149 45 153 129c1 21 1 35 0 57c-2 81 -77 122 -141 122h-103z" />
    <glyph glyph-name="C" unicode="C" horiz-adv-x="713" 
d="M381 691c-112 0 -183 -58 -194 -229c-4 -62 -4 -123 2 -186c12 -125 94 -215 226 -215c105 0 181 40 227 136h61c-45 -113 -143 -210 -310 -210c-223 0 -363 172 -363 380s123 374 341 374c79 0 130 -32 188 -32c19 0 34 6 43 19h40v-249h-43c0 43 -80 212 -218 212z" />
    <glyph glyph-name="D" unicode="D" horiz-adv-x="721" 
d="M329 682h-30c-15 0 -47 -37 -47 -50v-536c0 -14 29 -47 44 -47h37c108 0 197 52 204 226c2 47 2 131 0 179c-7 174 -94 228 -208 228zM333 0h-312v36h30c14 0 55 44 55 60v536c0 15 -42 60 -56 60h-30v36h311c181 0 360 -146 360 -362s-170 -366 -358 -366z" />
    <glyph glyph-name="E" unicode="E" horiz-adv-x="679" 
d="M615 0h-594v36h30c14 0 55 44 55 60v536c0 15 -42 60 -56 60h-30v36h569v-206h-37c0 20 -106 158 -123 158h-158c-6 0 -18 -13 -18 -19v-259h126l107 98h4v-248h-4l-107 102h-126v-283c0 -6 12 -21 17 -21h158c38 0 191 161 191 183h40z" />
    <glyph glyph-name="F" unicode="F" horiz-adv-x="624" 
d="M253 348v-252c0 -16 41 -60 55 -60h30v-36h-317v36h30c14 0 55 44 55 60v536c0 15 -42 60 -56 60h-30v36h584v-211h-37c0 20 -106 163 -123 163h-173c-6 0 -18 -13 -18 -19v-264h146l107 98h4v-249h-4l-107 102h-146z" />
    <glyph glyph-name="G" unicode="G" horiz-adv-x="790" 
d="M188 276c12 -142 95 -228 216 -228c85 0 134 37 134 87v92c0 14 -46 59 -55 59h-78v41h365v-39h-34c-9 0 -51 -44 -51 -58v-232h-5l-90 88c-37 -62 -98 -98 -202 -98c-229 0 -358 175 -358 379s131 374 350 374c79 0 131 -32 189 -32c19 0 34 6 43 19h40v-249h-43
c0 38 -80 211 -218 211c-115 0 -193 -57 -204 -228c-4 -62 -4 -123 1 -186z" />
    <glyph glyph-name="H" unicode="H" horiz-adv-x="820" 
d="M484 0v36h30c14 0 55 44 55 60v251h-317v-251c0 -16 41 -60 55 -60h30v-36h-316v36h30c14 0 55 44 55 60v536c0 15 -42 60 -56 60h-30v36h318v-36h-30c-14 0 -56 -45 -56 -60v-223h317v223c0 15 -42 60 -56 60h-30v36h317v-36h-30c-14 0 -56 -45 -56 -60v-536
c0 -16 41 -60 55 -60h30v-36h-315z" />
    <glyph glyph-name="I" unicode="I" horiz-adv-x="359" 
d="M21 0v36h30c14 0 55 44 55 60v536c0 15 -42 60 -56 60h-30v36h319v-36h-30c-14 0 -56 -45 -56 -60v-536c0 -16 41 -60 55 -60h30v-36h-317z" />
    <glyph glyph-name="J" unicode="J" horiz-adv-x="431" 
d="M183 86v546c0 15 -42 60 -56 60h-30v36h319v-36h-30c-14 0 -56 -45 -56 -60v-529c0 -133 -70 -232 -185 -232c-87 0 -130 42 -130 121v44h53v-44c0 -35 19 -56 58 -56c42 0 59 27 59 66c0 31 -2 50 -2 84z" />
    <glyph glyph-name="K" unicode="K" horiz-adv-x="755" 
d="M335 0h-314v36h30c14 0 55 44 55 60v536c0 15 -42 60 -56 60h-30v36h318v-36h-29c-15 0 -57 -45 -57 -60v-273l237 263c11 13 -31 70 -45 70h-31v36h281v-36h-18c-15 0 -104 -64 -112 -74l-174 -184l250 -332c11 -16 74 -65 88 -65h22v-37h-226l-227 335l-45 -48v-191
c0 -16 39 -60 54 -60h29v-36z" />
    <glyph glyph-name="L" unicode="L" horiz-adv-x="679" 
d="M20 728h319v-36h-30c-14 0 -56 -45 -56 -60v-561c0 -6 12 -21 17 -21h158c38 0 191 161 191 183h40l-44 -233h-594v36h30c14 0 55 44 55 60v536c0 15 -42 60 -56 60h-30v36z" />
    <glyph glyph-name="M" unicode="M" horiz-adv-x="960" 
d="M438 -20l-271 612v-496c0 -14 44 -60 55 -60h36v-36h-238v36h32c10 0 55 46 55 60v535c0 15 -46 60 -57 60h-30v37h242l218 -498h6l219 498h235v-37h-30c-12 0 -57 -47 -57 -60v-535c0 -14 43 -60 55 -60h30v-36h-321v36h36c12 0 54 46 54 60v496z" />
    <glyph glyph-name="N" unicode="N" horiz-adv-x="824" 
d="M718 632v-643h-5l-546 608v-496c0 -16 46 -65 60 -65h40v-36h-246v36h30c14 0 55 44 55 60v536c0 15 -42 60 -56 60h-30v36h233l406 -456v355c0 15 -47 65 -61 65h-40v36h246v-36h-30c-14 0 -56 -45 -56 -60z" />
    <glyph glyph-name="O" unicode="O" horiz-adv-x="816" 
d="M411 -13c-216 0 -381 162 -381 375s153 379 375 379s381 -166 381 -378s-159 -376 -375 -376zM189 241c14 -122 103 -195 229 -195c129 0 197 77 211 195c8 65 7 185 0 249c-14 122 -103 198 -229 198c-129 0 -198 -80 -211 -198c-7 -65 -7 -185 0 -249z" />
    <glyph glyph-name="P" unicode="P" horiz-adv-x="637" 
d="M20 728h309c151 0 288 -59 288 -209c0 -155 -134 -218 -291 -205l-73 6v-224c0 -16 41 -60 55 -60h30v-36h-317v36h30c14 0 55 44 55 60v536c0 15 -42 60 -56 60h-30v36zM328 682h-42c-12 0 -33 -22 -33 -34v-278h65c84 0 141 40 147 115c2 24 2 48 0 72
c-6 78 -63 125 -137 125z" />
    <glyph glyph-name="Q" unicode="Q" horiz-adv-x="826" 
d="M413 -10c-216 0 -383 159 -383 372s153 379 375 379s381 -166 381 -378c0 -177 -113 -318 -274 -360l100 -3s62 -88 156 -148v-35h-165l-124 146c-19 23 -42 27 -66 27zM189 244c14 -122 103 -198 229 -198c129 0 197 77 211 195c8 65 7 185 0 249
c-14 122 -103 198 -229 198c-129 0 -198 -77 -211 -195c-7 -65 -7 -185 0 -249z" />
    <glyph glyph-name="R" unicode="R" horiz-adv-x="766" 
d="M761 37v-37h-209s-140 227 -223 336h-76v-240c0 -16 41 -60 55 -60h30v-36h-317v36h30c14 0 55 44 55 60v536c0 15 -42 60 -56 60h-30v36h307c151 0 285 -44 285 -183c0 -110 -91 -160 -196 -180l80 -18c65 -101 98 -146 171 -245c12 -16 63 -65 77 -65h17zM325 682h-39
c-12 0 -33 -22 -33 -34v-261h62c84 0 141 37 147 112c2 24 2 48 0 71c-7 78 -63 112 -137 112z" />
    <glyph glyph-name="S" unicode="S" horiz-adv-x="598" 
d="M509 728v-225h-39c-1 36 -97 187 -206 187c-73 0 -113 -34 -113 -94c0 -47 48 -87 86 -106c56 -28 117 -56 178 -81c93 -38 148 -106 148 -203c0 -131 -100 -218 -237 -218c-77 0 -126 37 -186 37c-23 0 -42 -7 -54 -25h-37v236h39c1 -39 119 -192 239 -192
c75 0 125 31 125 97c0 64 -53 93 -96 111c-63 26 -120 54 -179 86c-84 45 -137 107 -137 198c0 119 89 205 222 205c67 0 106 -31 161 -31c18 0 40 3 50 18h36z" />
    <glyph glyph-name="T" unicode="T" horiz-adv-x="751" 
d="M284 728h183c239 0 254 5 254 5l10 -243h-37c0 20 -106 189 -123 189h-104c-6 0 -18 -13 -18 -19v-559c0 -16 46 -65 60 -65h30v-36h-327v36h30c14 0 60 49 60 65v559c0 6 -12 19 -18 19h-104c-17 0 -123 -169 -123 -189h-37l11 243s16 -5 253 -5z" />
    <glyph glyph-name="U" unicode="U" horiz-adv-x="775" 
d="M248 627v-383c0 -117 61 -188 187 -188c121 0 180 72 180 187v384c0 15 -47 65 -61 65h-40v36h246v-36h-30c-14 0 -56 -45 -56 -60v-388c0 -163 -103 -256 -275 -256c-169 0 -298 92 -298 256v388c0 15 -42 60 -56 60h-30v36h334v-36h-40c-14 0 -61 -50 -61 -65z" />
    <glyph glyph-name="V" unicode="V" horiz-adv-x="730" 
d="M261 626l158 -432l148 431c-3 17 -37 66 -52 66h-34v37h244v-37h-13c-14 -1 -69 -48 -80 -66l-221 -601l-60 -35l-257 637c-12 16 -61 65 -75 65h-14v37h345v-37h-35c-15 -1 -54 -48 -54 -65z" />
    <glyph glyph-name="W" unicode="W" horiz-adv-x="1063" 
d="M960 625l-178 -596l-62 -41l-190 542l-174 -501l-61 -41l-196 638c-12 16 -61 65 -75 65h-14v37h340v-37h-35c-15 -1 -54 -48 -54 -65l103 -380l127 355l121 140l178 -496l105 380c-3 17 -37 66 -52 66h-34v37h244v-37h-13c-14 -1 -69 -48 -80 -66z" />
    <glyph glyph-name="X" unicode="X" horiz-adv-x="751" 
d="M113 626c-12 16 -63 65 -77 65h-19v37h357v-37h-35c-15 -1 -54 -48 -54 -65l115 -163l128 162c-3 17 -37 66 -52 66h-34v37h263v-37h-18c-14 -1 -75 -49 -88 -66l-167 -208l223 -315c12 -16 63 -65 77 -65h14v-37h-359v37h35c15 1 54 48 54 65l-140 201l-150 -200
c3 -17 37 -66 52 -66h34v-37h-267v37h13c14 1 72 49 85 66l202 246z" />
    <glyph glyph-name="Y" unicode="Y" horiz-adv-x="695" 
d="M277 101v250l-181 275c-12 16 -63 65 -77 65h-14v37h348v-37h-35c-15 -1 -54 -48 -54 -65l133 -220l133 219c-3 17 -37 66 -52 66h-34v37h246v-37h-13c-14 -1 -69 -48 -80 -66l-173 -273v-251c0 -16 46 -65 60 -65h30v-36h-327v36h30c14 0 60 49 60 65z" />
    <glyph glyph-name="Z" unicode="Z" horiz-adv-x="644" 
d="M434 679h-210c-20 0 -138 -146 -138 -163h-39l19 212h563l-437 -677h182c37 0 202 182 202 200h43l-31 -251h-557l-11 41z" />
    <glyph glyph-name="bracketleft" unicode="[" horiz-adv-x="358" 
d="M102 813h246v-42h-91c-11 0 -43 -31 -43 -44v-847c0 -12 31 -44 43 -44h91v-42h-246v1019z" />
    <glyph glyph-name="backslash" unicode="\" horiz-adv-x="521" 
d="M30 743l62 28l404 -879l-61 -29z" />
    <glyph glyph-name="bracketright" unicode="]" horiz-adv-x="358" 
d="M10 813h246v-1019h-246v42h91c12 0 43 32 43 44v847c0 13 -32 44 -43 44h-91v42z" />
    <glyph glyph-name="asciicircum" unicode="^" horiz-adv-x="640" 
d="M533 184l-213 435l-212 -435h-87l271 544h55l272 -544h-86z" />
    <glyph glyph-name="underscore" unicode="_" horiz-adv-x="560" 
d="M0 0h560v-71h-560v71z" />
    <glyph glyph-name="grave" unicode="`" horiz-adv-x="500" 
d="M100 713h150l49 -176h-41z" />
    <glyph glyph-name="a" unicode="a" horiz-adv-x="515" 
d="M307 138v109l-90 -24c-47 -13 -77 -41 -77 -87c0 -41 28 -70 72 -70c38 0 77 40 95 72zM322 0l-8 77c-23 -31 -83 -87 -142 -87c-79 0 -138 55 -138 132c0 95 94 130 171 146l101 20l1 57c1 61 -35 92 -104 92c-70 0 -104 -39 -81 -123h-37l-60 86c31 38 96 90 208 90
c115 0 199 -52 199 -147v-252c0 -16 39 -55 53 -55h20v-36h-183z" />
    <glyph glyph-name="b" unicode="b" horiz-adv-x="588" 
d="M75 -5v647c0 15 -41 50 -53 50h-22v36c103 18 203 43 203 43v-346c31 36 73 65 146 65c124 0 214 -87 214 -244c0 -159 -99 -257 -222 -257c-80 0 -136 27 -166 94l-95 -88h-5zM322 433c-70 0 -106 -59 -120 -127v-127c0 -73 49 -126 116 -126s105 48 112 121
c4 43 4 93 0 135c-7 75 -45 124 -108 124z" />
    <glyph glyph-name="c" unicode="c" horiz-adv-x="485" 
d="M255 444c-79 0 -117 -79 -117 -188c0 -100 57 -173 152 -173c88 0 122 40 150 94h37c-32 -118 -105 -188 -224 -188c-133 0 -228 107 -228 239c0 160 105 263 242 262c91 -1 146 -49 171 -72l-73 -114l-37 -3c17 94 -9 143 -73 143z" />
    <glyph glyph-name="d" unicode="d" horiz-adv-x="601" 
d="M385 431v211c0 15 -41 50 -53 50h-22v36c103 18 203 43 203 43v-680c0 -16 39 -55 53 -55h20v-36h-184l-10 67c-25 -38 -68 -78 -145 -78c-123 0 -222 97 -222 256c0 157 101 245 223 245c61 0 106 -23 137 -59zM266 433c-63 0 -101 -49 -108 -124c-4 -42 -4 -92 0 -135
c7 -73 45 -122 112 -122s116 49 116 122v130c0 72 -50 129 -120 129z" />
    <glyph glyph-name="e" unicode="e" horiz-adv-x="490" 
d="M451 278l-302 -24c2 -86 55 -171 148 -171c77 0 110 32 141 86h37c-36 -110 -104 -180 -216 -180c-154 0 -234 116 -234 249c0 143 96 253 234 252c127 -1 182 -97 189 -176zM147 299l185 15c9 68 -4 131 -76 131c-85 0 -111 -75 -109 -146z" />
    <glyph glyph-name="f" unicode="f" horiz-adv-x="357" 
d="M228 426v-335c0 -16 42 -55 55 -55h30v-36h-290v36h20c14 0 55 39 55 55v335h-78v53h78v114c0 127 70 178 164 178c50 0 85 -29 85 -71c0 -37 -24 -63 -66 -63c-48 0 -73 38 -71 84c-32 -6 -53 -38 -53 -71c0 -68 69 -105 69 -160v-11h114v-53h-112z" />
    <glyph glyph-name="g" unicode="g" horiz-adv-x="580" 
d="M490 303c0 -115 -90 -181 -219 -181h-62c-31 -2 -55 -15 -55 -43s22 -39 50 -41c58 -4 121 -5 188 -6c85 -1 132 -41 132 -122c0 -101 -105 -140 -243 -140c-151 0 -261 22 -261 108c0 56 64 91 110 101c-42 9 -88 28 -88 77c0 57 74 83 146 94c-54 11 -142 62 -142 161
c0 106 101 179 222 179c64 0 122 -20 163 -56c0 0 27 86 99 121h35v-133h-122c29 -31 47 -71 47 -119zM269 445c-63 0 -88 -39 -93 -96c-2 -27 -2 -57 0 -84c4 -54 32 -96 94 -96s88 38 93 97c2 27 2 57 0 84c-4 55 -31 95 -94 95zM395 -74c-182 0 -233 12 -233 31
c-23 -10 -64 -32 -64 -74c0 -48 39 -75 182 -75c120 0 175 22 175 67c0 33 -24 51 -60 51z" />
    <glyph glyph-name="h" unicode="h" horiz-adv-x="611" 
d="M90 91v551c0 15 -41 50 -53 50h-22v36c103 18 203 43 203 43v-389c41 46 94 108 178 108c78 0 135 -67 135 -142v-257c0 -16 37 -55 50 -55h20v-36h-271v36h20c14 0 53 39 53 55v245c0 39 -21 64 -57 64c-49 0 -128 -54 -128 -85v-224c0 -16 37 -55 50 -55h20v-36h-271
v36h20c14 0 53 39 53 55z" />
    <glyph glyph-name="i" unicode="i" horiz-adv-x="313" 
d="M223 479v-388c0 -16 42 -55 55 -55h20v-36h-278v36h20c14 0 55 39 55 55v297c0 15 -41 55 -55 55h-20v36h203zM81 650c0 45 32 73 75 73s74 -28 74 -73s-31 -74 -74 -74s-75 29 -75 74z" />
    <glyph glyph-name="j" unicode="j" horiz-adv-x="321" 
d="M114 -134c0 46 -4 80 -4 134v388c0 15 -41 55 -55 55h-20v36h203v-506c0 -116 -63 -202 -163 -202c-63 0 -100 33 -100 95v56h44v-56c0 -29 16 -47 46 -47s49 16 49 47zM93 650c0 45 32 73 75 73s74 -28 74 -73s-31 -74 -74 -74s-75 29 -75 74z" />
    <glyph glyph-name="k" unicode="k" horiz-adv-x="593" 
d="M426 368l-86 -76l163 -187c11 -13 59 -69 69 -69h21v-36h-176s-29 32 -166 214l-33 -30v-93c0 -16 37 -55 50 -55h15v-36h-268v36h20c14 0 55 39 55 55v551c0 15 -41 50 -53 50h-22v36c103 18 203 43 203 43v-535l137 134c14 15 -12 74 -29 74h-23v35h257v-35h-21
c-12 0 -98 -62 -113 -76z" />
    <glyph glyph-name="l" unicode="l" horiz-adv-x="303" 
d="M218 771v-680c0 -16 42 -55 55 -55h20v-36h-278v36h20c14 0 55 39 55 55v551c0 15 -41 50 -53 50h-22v36c103 18 203 43 203 43z" />
    <glyph glyph-name="m" unicode="m" horiz-adv-x="887" 
d="M15 443v36h181l17 -97c41 49 85 108 169 108c66 0 116 -45 129 -104c41 46 89 104 172 104c78 0 133 -67 133 -142v-257c0 -16 37 -55 50 -55h20v-36h-267v36h20c14 0 51 39 51 55v246c0 39 -21 64 -57 64c-48 0 -115 -51 -118 -83v-227c0 -16 35 -55 48 -55h20v-36h-265
v36h20c14 0 51 39 51 55v246c0 39 -21 64 -57 64c-49 0 -118 -54 -118 -85v-225c0 -16 35 -55 48 -55h20v-36h-267v36h20c14 0 53 39 53 55v297c0 16 -39 55 -53 55h-20z" />
    <glyph glyph-name="n" unicode="n" horiz-adv-x="609" 
d="M15 443v36h183l17 -97c41 46 95 108 179 108c78 0 135 -67 135 -142v-257c0 -16 37 -55 50 -55h20v-36h-271v36h20c14 0 53 39 53 55v245c0 39 -21 64 -57 64c-49 0 -128 -54 -128 -85v-224c0 -16 37 -55 50 -55h20v-36h-271v36h20c14 0 53 39 53 55v297
c0 16 -39 55 -53 55h-20z" />
    <glyph glyph-name="o" unicode="o" horiz-adv-x="553" 
d="M279 43c74 0 110 44 118 120c5 44 5 113 0 158c-8 75 -45 122 -118 122s-112 -45 -120 -121c-5 -44 -5 -113 0 -158c8 -75 46 -121 120 -121zM278 -12c-131 0 -253 93 -253 252s122 251 253 251s250 -92 250 -251s-119 -252 -250 -252z" />
    <glyph glyph-name="p" unicode="p" horiz-adv-x="603" 
d="M339 429c-71 0 -111 -62 -122 -134v-121c0 -73 49 -122 116 -122s105 49 112 122c4 43 4 91 0 133c-7 75 -44 122 -106 122zM90 -138v526c0 16 -39 55 -53 55h-20v36h182l12 -83c30 57 84 94 162 94c117 0 205 -95 205 -244c0 -159 -99 -257 -222 -257
c-77 0 -113 36 -138 74v-201c0 -16 42 -55 55 -55h20v-36h-278v36h20c14 0 55 39 55 55z" />
    <glyph glyph-name="q" unicode="q" horiz-adv-x="588" 
d="M265 427c-62 0 -100 -45 -107 -120c-4 -42 -4 -90 0 -133c7 -73 45 -122 112 -122s116 49 116 122v120c-12 72 -51 133 -121 133zM513 482v-620c0 -16 41 -55 55 -55h20v-36h-278v36h20c13 0 55 39 55 55v199c-25 -38 -61 -72 -138 -72c-123 0 -222 98 -222 257
c0 149 92 244 209 244c78 0 136 -33 166 -90l108 82h5z" />
    <glyph glyph-name="r" unicode="r" horiz-adv-x="442" 
d="M90 91v297c0 16 -39 55 -53 55h-20v36h174l19 -106c39 72 76 117 144 117c28 0 46 -3 68 -11v-125h-32c-12 21 -32 37 -66 37c-73 0 -106 -59 -106 -72v-228c0 -16 42 -55 55 -55h20v-36h-278v36h20c14 0 55 39 55 55z" />
    <glyph glyph-name="s" unicode="s" horiz-adv-x="433" 
d="M37 166h32c0 -32 76 -127 174 -127c44 0 73 19 73 54c0 37 -36 58 -71 71c-37 14 -67 27 -105 45c-66 31 -105 77 -105 139c0 88 63 142 158 142c53 0 92 -24 124 -24c12 0 22 5 27 13h30v-149h-32c0 29 -68 116 -154 116c-44 0 -67 -21 -67 -54c0 -35 36 -51 72 -67
s64 -28 102 -43c59 -23 113 -74 113 -146c0 -91 -67 -147 -169 -147c-60 0 -110 28 -141 28c-12 0 -24 -8 -31 -17h-30v166z" />
    <glyph glyph-name="t" unicode="t" horiz-adv-x="371" 
d="M216 426v-311c0 -28 19 -45 46 -45c25 0 57 13 77 28l22 -31c-21 -22 -91 -78 -155 -78c-67 0 -118 40 -118 111v326h-73v36c64 43 120 94 166 149h32v-132h132v-53h-129z" />
    <glyph glyph-name="u" unicode="u" horiz-adv-x="609" 
d="M208 479v-336c0 -39 21 -64 57 -64c49 0 128 59 128 90v219c0 16 -37 55 -50 55h-25v36h204l-1 -388c0 -16 39 -55 53 -55h20v-36h-183l-17 97c-41 -46 -95 -108 -179 -108c-78 0 -135 67 -135 142v257c0 16 -37 55 -50 55h-20v36h198z" />
    <glyph glyph-name="v" unicode="v" horiz-adv-x="546" 
d="M471 385l-162 -365l-44 -31l-188 395c-9 16 -46 59 -57 59h-20v36h281v-36h-27c-13 0 -35 -40 -35 -57l100 -231l100 230c0 16 -22 58 -35 58h-29v36h191v-36h-20c-11 0 -46 -42 -55 -58z" />
    <glyph glyph-name="w" unicode="w" horiz-adv-x="774" 
d="M573 181l74 204c-1 16 -21 58 -34 58h-35v36h196v-36h-20c-11 0 -46 -42 -55 -58l-140 -363l-47 -33l-124 334l-122 -301l-47 -33l-145 395c-9 16 -43 59 -54 59h-20v36h276v-36h-32c-13 0 -34 -40 -35 -57l66 -206l87 218l87 81z" />
    <glyph glyph-name="x" unicode="x" horiz-adv-x="571" 
d="M335 275l146 -179c8 -10 59 -60 73 -60h12v-36h-279v36h20c13 0 29 50 20 61l-72 92l-74 -92c-11 -12 7 -61 20 -61h20v-36h-217v36h15c13 1 83 52 93 62l115 128l-122 158c-8 10 -59 60 -73 60h-15v35h267v-35h-21c-13 0 -24 -50 -15 -62l60 -74l57 74
c10 13 -2 62 -13 62h-21v35h201v-35h-13c-13 -1 -83 -52 -93 -63z" />
    <glyph glyph-name="y" unicode="y" horiz-adv-x="552" 
d="M257 36l-179 348c-8 15 -52 59 -64 59h-14v36h288v-36h-25c-13 0 -42 -39 -42 -57l101 -221l100 221c1 19 -29 57 -42 57h-25v36h197v-36h-15c-11 0 -48 -41 -58 -57l-171 -364l-128 -265l-57 27z" />
    <glyph glyph-name="z" unicode="z" horiz-adv-x="473" 
d="M20 36l277 403h-139c-18 0 -85 -92 -85 -111h-31l15 151h399l-290 -434h128c32 0 116 110 117 128h31l-15 -173h-396z" />
    <glyph glyph-name="braceleft" unicode="{" horiz-adv-x="349" 
d="M50 295v38c86 15 115 37 115 96c0 56 -39 134 -39 211c0 83 47 115 145 132l8 -39c-48 -5 -72 -25 -72 -64c0 -63 66 -145 66 -229c0 -87 -71 -104 -163 -126c92 -22 163 -39 163 -126c0 -84 -66 -166 -66 -229c0 -39 24 -59 72 -64l-8 -39c-98 17 -145 49 -145 132
c0 77 39 155 39 211c0 59 -29 81 -115 96z" />
    <glyph glyph-name="bar" unicode="|" horiz-adv-x="270" 
d="M100 -206v977h70v-977h-70z" />
    <glyph glyph-name="braceright" unicode="}" horiz-adv-x="349" 
d="M299 333v-38c-86 -15 -115 -37 -115 -96c0 -56 39 -134 39 -211c0 -83 -47 -115 -145 -132l-8 39c48 5 72 25 72 64c0 63 -66 145 -66 229c0 87 71 104 163 126c-92 22 -163 39 -163 126c0 84 66 166 66 229c0 39 -24 59 -72 64l8 39c98 -17 145 -49 145 -132
c0 -77 -39 -155 -39 -211c0 -59 29 -81 115 -96z" />
    <glyph glyph-name="asciitilde" unicode="~" horiz-adv-x="640" 
d="M185 371c100 0 214 -68 284 -68c47 0 72 20 71 67l45 -8c1 -73 -23 -153 -130 -153c-82 0 -202 68 -284 68c-47 0 -72 -20 -71 -67l-45 8c-1 72 26 153 130 153z" />
    <glyph glyph-name="nbspace" unicode="&#xa0;" horiz-adv-x="310" 
 />
    <glyph glyph-name="exclamdown" unicode="&#xa1;" horiz-adv-x="292" 
d="M129 253l-64 -440c0 -48 36 -75 81 -75s81 27 81 75l-64 440h-34zM68 404c0 43 32 75 77 75s77 -32 77 -75s-32 -75 -77 -75s-77 32 -77 75z" />
    <glyph glyph-name="cent" unicode="&#xa2;" horiz-adv-x="560" 
d="M260 634v148h48v-145c76 -2 144 -49 169 -72l-73 -114l-37 -3c21 86 -7 135 -59 143v-362h17c82 0 120 40 148 96h37c-29 -113 -97 -184 -202 -192v-154h-48v155c-120 14 -210 112 -210 243c0 142 85 239 210 257zM162 405c0 -83 34 -143 98 -166v350
c-61 -18 -98 -90 -98 -184z" />
    <glyph glyph-name="sterling" unicode="&#xa3;" horiz-adv-x="630" 
d="M177 347v213c0 113 66 181 178 181c104 0 161 -55 161 -149v-32h-53v31c0 53 -28 80 -77 80s-78 -27 -78 -78v-246h188v-47h-191c-23 -124 -105 -171 -158 -195h342c15 0 55 47 64 61h41l-56 -166h-506l-7 37c90 64 144 144 152 263h-79v47h79z" />
    <glyph glyph-name="currency" unicode="&#xa4;" horiz-adv-x="620" 
d="M76 307c0 59 18 98 46 137l-48 49l48 49l48 -49c39 29 81 47 140 47s100 -18 139 -47l47 47l47 -47l-47 -47c29 -39 48 -79 48 -139s-19 -101 -48 -140l50 -49l-49 -48l-51 49c-37 -28 -77 -45 -136 -45s-101 17 -140 46l-47 -47l-47 47l47 47c-29 39 -47 81 -47 140z
M201 245l47 -48l-34 -34c28 -18 51 -28 96 -28s66 9 93 27l-33 35l48 48l35 -35c19 28 29 53 29 97s-10 68 -29 96l-35 -35l-47 47l35 35c-28 19 -51 29 -96 29s-69 -10 -97 -29l35 -35l-48 -48l-35 33c-18 -27 -27 -49 -27 -93s10 -68 28 -96z" />
    <glyph glyph-name="yen" unicode="&#xa5;" horiz-adv-x="690" 
d="M592 254h-169v-153c0 -16 46 -65 60 -65h30v-36h-325v36h30c14 0 60 49 60 65v153h-174v47h174v45h-174v47h151l-149 233c-12 16 -63 65 -77 65h-14v37h343v-37h-35c-15 -1 -54 -48 -54 -65l128 -233l128 232c-3 17 -37 66 -52 66h-34v37h236v-37h-13
c-14 -1 -69 -48 -80 -66l-136 -232h146v-47h-169v-45h169v-47z" />
    <glyph glyph-name="brokenbar" unicode="&#xa6;" horiz-adv-x="270" 
d="M100 400v371h70v-371h-70zM100 -206v370h70v-370h-70z" />
    <glyph glyph-name="section" unicode="&#xa7;" horiz-adv-x="600" 
d="M191 429c-21 -16 -41 -45 -41 -78c0 -54 33 -91 89 -107c62 -18 140 -40 173 -60c21 16 39 44 39 77c0 54 -33 91 -89 107c-62 18 -139 41 -171 61zM154 451c-49 31 -83 83 -83 145c0 113 77 184 195 184c62 0 90 -26 139 -26c22 0 33 6 44 17h35v-221h-37
c0 39 -69 181 -175 181c-61 0 -100 -27 -100 -87c0 -55 41 -87 90 -109c52 -23 93 -40 148 -59c80 -28 130 -85 130 -166c0 -71 -41 -116 -91 -148c49 -31 88 -75 88 -150c0 -118 -92 -184 -210 -184c-62 0 -103 26 -152 26c-22 0 -33 -6 -44 -17h-35v224h37
c0 -39 73 -184 188 -184c62 0 108 30 108 90c0 55 -44 88 -93 110c-52 23 -90 40 -145 59c-80 28 -131 76 -131 164c0 71 44 119 94 151z" />
    <glyph glyph-name="dieresis" unicode="&#xa8;" horiz-adv-x="500" 
d="M405 616c0 -37 -28 -62 -63 -62s-63 25 -63 62s28 62 63 62s63 -25 63 -62zM221 616c0 -37 -28 -62 -63 -62s-63 25 -63 62s28 62 63 62s63 -25 63 -62z" />
    <glyph glyph-name="copyright" unicode="&#xa9;" horiz-adv-x="824" 
d="M412 741c208 0 367 -149 367 -377s-159 -375 -367 -375s-367 147 -367 375s159 377 367 377zM412 40c183 0 310 121 310 324s-127 327 -310 327s-310 -125 -310 -327s127 -324 310 -324zM422 553c-59 0 -113 -39 -119 -138c-2 -37 -2 -63 1 -101c6 -74 53 -127 134 -127
c76 0 110 34 134 87h43c-31 -75 -89 -138 -194 -138c-134 0 -222 93 -222 227s86 228 216 228c47 0 72 -19 106 -19c11 0 27 4 32 13h29v-161h-35c0 29 -41 129 -125 129z" />
    <glyph glyph-name="ordfeminine" unicode="&#xaa;" horiz-adv-x="430" 
d="M247 488v76l-63 -17c-33 -9 -54 -29 -54 -61c0 -29 20 -49 51 -49c26 0 54 28 66 51zM258 391l-6 54c-16 -22 -58 -61 -99 -61c-55 0 -97 38 -97 92c0 67 66 91 120 103l71 14v39c0 43 -24 65 -72 65c-49 0 -73 -27 -57 -86h-26l-42 60c22 27 67 63 146 63
c80 0 139 -36 139 -103v-176c0 -11 27 -39 37 -39h14v-25h-128z" />
    <glyph glyph-name="guillemotleft" unicode="&#xab;" horiz-adv-x="580" 
d="M158 312l164 -156v-92l-277 248l277 249v-92zM356 312l164 -156v-92l-277 248l277 249v-92z" />
    <glyph glyph-name="logicalnot" unicode="&#xac;" horiz-adv-x="640" 
d="M519 58v193h-471v77h544v-270h-73z" />
    <glyph glyph-name="uni00AD" unicode="&#xad;" horiz-adv-x="340" 
d="M25 330h290v-93h-290v93z" />
    <glyph glyph-name="registered" unicode="&#xae;" horiz-adv-x="824" 
d="M364 384h47c31 0 71 18 73 62c1 15 1 28 0 42c-2 44 -40 64 -75 64h-22c-8 0 -23 -15 -23 -23v-145zM364 350v-181h-149v28h21c9 0 32 25 32 35v289c0 9 -25 34 -33 34h-19v28h203c86 0 165 -34 165 -114c0 -54 -42 -87 -110 -102l45 -9c33 -49 71 -101 119 -164v-25
h-109c-37 60 -84 129 -114 181h-51zM412 741c208 0 367 -149 367 -377s-159 -375 -367 -375s-367 147 -367 375s159 377 367 377zM412 40c183 0 310 121 310 324s-127 327 -310 327s-310 -125 -310 -327s127 -324 310 -324z" />
    <glyph glyph-name="macron" unicode="&#xaf;" horiz-adv-x="500" 
d="M108 654h284v-81h-284v81z" />
    <glyph glyph-name="degree" unicode="&#xb0;" horiz-adv-x="403" 
d="M50 595c0 82 62 146 151 146s152 -64 152 -146s-63 -145 -152 -145s-151 63 -151 145zM111 595c0 -54 33 -90 90 -90s91 37 91 90s-34 91 -91 91s-90 -37 -90 -91z" />
    <glyph glyph-name="plusminus" unicode="&#xb1;" horiz-adv-x="640" 
d="M360 711v-232h232v-75h-232v-238h-80v238h-232v75h232v232h80zM48 77h544v-77h-544v77z" />
    <glyph glyph-name="two.sups" unicode="&#xb2;" 
d="M107 599h231l-26 -66h-261v33c13 57 67 102 150 166c26 20 45 44 45 76c0 41 -26 66 -69 66c-41 0 -72 -26 -94 -54l-29 23c31 44 78 89 148 89c81 0 129 -41 129 -114c0 -75 -60 -111 -100 -133s-95 -45 -124 -86z" />
    <glyph glyph-name="three.sups" unicode="&#xb3;" 
d="M124 732v32l57 19c26 16 36 26 36 51c0 28 -21 44 -49 44c-29 0 -66 -19 -93 -39l-19 29c42 32 100 64 156 64c48 0 85 -24 85 -73c0 -46 -39 -72 -75 -87c43 0 107 -12 107 -82c0 -109 -178 -166 -245 -169l-9 39c42 6 161 35 161 116c0 57 -55 62 -112 56z" />
    <glyph glyph-name="acute" unicode="&#xb4;" horiz-adv-x="500" 
d="M296 713h156l-194 -176h-41z" />
    <glyph glyph-name="uni00B5" unicode="&#xb5;" horiz-adv-x="609" 
d="M208 479v-337c0 -39 21 -63 57 -63c49 0 128 59 128 90v219c0 16 -37 55 -50 55h-25v36h204l-1 -388c0 -16 39 -55 53 -55h20v-36h-183l-17 97c-41 -46 -84 -97 -168 -97h-19v-206h-127v594c0 16 -37 55 -50 55h-20v36h198z" />
    <glyph glyph-name="paragraph" unicode="&#xb6;" horiz-adv-x="503" 
d="M464 728v-36h-30c-14 0 -56 -45 -56 -60v-838h-71v887h-58v-887h-68v646h-37c-79 0 -144 50 -144 144s65 144 144 144h320z" />
    <glyph glyph-name="periodcentered" unicode="&#xb7;" horiz-adv-x="282" 
d="M60 342c0 43 32 75 77 75s77 -32 77 -75s-32 -75 -77 -75s-77 32 -77 75z" />
    <glyph glyph-name="cedilla" unicode="&#xb8;" 
d="M131 -83l40 98h67l-73 -88c17 11 34 16 53 16c44 0 73 -26 73 -71c0 -56 -46 -89 -106 -89c-56 0 -82 26 -97 47l28 27c11 -17 30 -32 59 -32c31 0 51 14 51 40c0 27 -17 38 -41 38c-8 0 -17 -2 -26 -6z" />
    <glyph glyph-name="one.sups" unicode="&#xb9;" horiz-adv-x="392" 
d="M247 926v-325c0 -10 22 -33 29 -33h35v-35h-222v35h34c7 0 30 23 30 33v191c0 9 -18 27 -25 27h-42v28c80 29 158 79 158 79h3z" />
    <glyph glyph-name="ordmasculine" unicode="&#xba;" horiz-adv-x="430" 
d="M216 422c52 0 77 31 83 84c3 31 3 79 0 111c-6 52 -32 85 -83 85s-78 -32 -84 -85c-3 -31 -3 -79 0 -110c6 -53 32 -85 84 -85zM216 383c-92 0 -178 66 -178 177s86 176 178 176c91 0 175 -65 175 -176s-84 -177 -175 -177z" />
    <glyph glyph-name="guillemotright" unicode="&#xbb;" horiz-adv-x="580" 
d="M258 156l164 156l-164 157v92l277 -249l-277 -248v92zM60 156l164 156l-164 157v92l277 -249l-277 -248v92z" />
    <glyph glyph-name="onequarter" unicode="&#xbc;" horiz-adv-x="800" 
d="M597 63v29h-170v36c103 128 188 251 188 251l73 21v-263h54v-45h-54v-29c0 -10 21 -33 30 -33h16v-30h-181v30h14c7 0 30 23 30 33zM607 728h75l-486 -728h-74zM219 730v-325c0 -10 22 -33 29 -33h35v-35h-222v35h34c7 0 30 23 30 33v191c0 9 -18 27 -25 27h-42v28
c80 29 158 79 158 79h3zM597 135v158s-56 -85 -116 -158h116z" />
    <glyph glyph-name="onehalf" unicode="&#xbd;" horiz-adv-x="800" 
d="M607 728h75l-486 -728h-74zM521 66h231l-26 -66h-261v33c13 57 67 102 150 166c26 20 45 44 45 76c0 41 -26 66 -69 66c-41 0 -72 -26 -94 -54l-29 23c31 44 78 89 148 89c81 0 129 -41 129 -114c0 -75 -60 -111 -100 -133s-95 -45 -124 -86zM219 730v-325
c0 -10 22 -33 29 -33h35v-35h-222v35h34c7 0 30 23 30 33v191c0 9 -18 27 -25 27h-42v28c80 29 158 79 158 79h3z" />
    <glyph glyph-name="threequarters" unicode="&#xbe;" horiz-adv-x="800" 
d="M597 63v29h-170v36c103 128 188 251 188 251l73 21v-263h54v-45h-54v-29c0 -10 21 -33 30 -33h16v-30h-181v30h14c7 0 30 23 30 33zM607 728h75l-486 -728h-74zM115 536v32l57 19c26 16 36 26 36 51c0 28 -21 44 -49 44c-29 0 -66 -19 -93 -39l-19 29
c42 32 100 64 156 64c48 0 85 -24 85 -73c0 -46 -39 -72 -75 -87c43 0 107 -12 107 -82c0 -109 -178 -166 -245 -169l-9 39c42 6 161 35 161 116c0 57 -55 62 -112 56zM597 135v158s-56 -85 -116 -158h116z" />
    <glyph glyph-name="questiondown" unicode="&#xbf;" horiz-adv-x="448" 
d="M288 -107c0 -58 -41 -91 -92 -91c-58 0 -96 27 -111 94l-50 -10c26 -92 81 -148 189 -148c90 0 179 55 179 173c0 169 -199 193 -199 284v56h-44v-59c0 -162 128 -161 128 -299zM110 404c0 43 32 75 77 75s77 -32 77 -75s-32 -75 -77 -75s-77 32 -77 75z" />
    <glyph glyph-name="Agrave" unicode="&#xc0;" horiz-adv-x="756" 
d="M490 102l-44 123h-232l-48 -122c3 -17 35 -66 50 -66h34v-37h-240v37h13c14 1 69 48 80 66l245 603l60 35l249 -639c12 -16 61 -65 75 -65h14v-37h-345v37h35c15 1 54 48 54 65zM337 537l-101 -255h190zM208 917h165l51 -140h-49z" />
    <glyph glyph-name="Aacute" unicode="&#xc1;" horiz-adv-x="756" 
d="M490 102l-44 123h-232l-48 -122c3 -17 35 -66 50 -66h34v-37h-240v37h13c14 1 69 48 80 66l245 603l60 35l249 -639c12 -16 61 -65 75 -65h14v-37h-345v37h35c15 1 54 48 54 65zM337 537l-101 -255h190zM438 917h165l-192 -140h-48z" />
    <glyph glyph-name="Acircumflex" unicode="&#xc2;" horiz-adv-x="756" 
d="M490 102l-44 123h-232l-48 -122c3 -17 35 -66 50 -66h34v-37h-240v37h13c14 1 69 48 80 66l245 603l60 35l249 -639c12 -16 61 -65 75 -65h14v-37h-345v37h35c15 1 54 48 54 65zM337 537l-101 -255h190zM336 934h96l99 -157h-50l-97 79l-97 -79h-50z" />
    <glyph glyph-name="Atilde" unicode="&#xc3;" horiz-adv-x="756" 
d="M490 102l-44 123h-232l-48 -122c3 -17 35 -66 50 -66h34v-37h-240v37h13c14 1 69 48 80 66l245 603l60 35l249 -639c12 -16 61 -65 75 -65h14v-37h-345v37h35c15 1 54 48 54 65zM337 537l-101 -255h190zM529 815l-25 -20c-8 20 -18 38 -53 38c-47 0 -92 -48 -149 -48
c-51 0 -84 35 -88 94l25 20c8 -20 18 -38 53 -38c47 0 92 48 149 48c51 0 84 -35 88 -94z" />
    <glyph glyph-name="Adieresis" unicode="&#xc4;" horiz-adv-x="756" 
d="M490 102l-44 123h-232l-48 -122c3 -17 35 -66 50 -66h34v-37h-240v37h13c14 1 69 48 80 66l245 603l60 35l249 -639c12 -16 61 -65 75 -65h14v-37h-345v37h35c15 1 54 48 54 65zM337 537l-101 -255h190zM563 840c0 -40 -30 -69 -69 -69s-71 29 -71 69s32 69 71 69
s69 -29 69 -69zM358 840c0 -40 -31 -69 -70 -69s-70 29 -70 69s31 69 70 69s70 -29 70 -69z" />
    <glyph glyph-name="Aring" unicode="&#xc5;" horiz-adv-x="756" 
d="M490 102l-44 123h-232l-48 -122c3 -17 35 -66 50 -66h34v-37h-240v37h13c14 1 69 48 80 66l245 603l60 35l249 -639c12 -16 61 -65 75 -65h14v-37h-345v37h35c15 1 54 48 54 65zM337 537l-101 -255h190zM275 878c0 66 51 107 111 107s110 -41 110 -107
s-50 -107 -110 -107s-111 41 -111 107zM329 878c0 -34 23 -56 57 -56c33 0 56 22 56 56c0 33 -23 55 -56 55c-34 0 -57 -22 -57 -55z" />
    <glyph glyph-name="AE" unicode="&#xc6;" horiz-adv-x="1014" 
d="M950 0h-561v37h35c15 1 54 48 54 65l-42 123h-228l-47 -122c3 -17 35 -66 50 -66h34v-37h-240v37h13c14 1 69 48 80 66l237 588l60 37h529v-206h-37c0 20 -106 158 -123 158h-321c-6 0 -17 -13 -17 -19l99 -259h189l107 98h4v-248h-4l-107 102h-170l109 -283
c0 -6 18 -21 23 -21h87c38 0 191 161 191 183h40zM330 538l-100 -256h187z" />
    <glyph glyph-name="Ccedilla" unicode="&#xc7;" horiz-adv-x="713" 
d="M327 -95l34 84c-205 15 -331 180 -331 378c0 208 123 374 341 374c79 0 130 -32 188 -32c19 0 34 6 43 19h40v-249h-43c0 43 -80 212 -218 212c-112 0 -183 -58 -194 -229c-4 -62 -4 -123 2 -186c12 -125 94 -215 226 -215c105 0 181 40 227 136h61
c-43 -107 -132 -198 -282 -209l-60 -73c17 11 34 16 53 16c44 0 73 -26 73 -71c0 -56 -46 -89 -106 -89c-56 0 -82 26 -97 47l28 27c11 -17 30 -32 59 -32c31 0 51 14 51 40c0 27 -17 38 -41 38c-8 0 -17 -2 -26 -6z" />
    <glyph glyph-name="Egrave" unicode="&#xc8;" horiz-adv-x="679" 
d="M615 0h-594v36h30c14 0 55 44 55 60v536c0 15 -42 60 -56 60h-30v36h569v-206h-37c0 20 -106 158 -123 158h-158c-6 0 -18 -13 -18 -19v-259h126l107 98h4v-248h-4l-107 102h-126v-283c0 -6 12 -21 17 -21h158c38 0 191 161 191 183h40zM168 917h165l51 -140h-49z" />
    <glyph glyph-name="Eacute" unicode="&#xc9;" horiz-adv-x="679" 
d="M615 0h-594v36h30c14 0 55 44 55 60v536c0 15 -42 60 -56 60h-30v36h569v-206h-37c0 20 -106 158 -123 158h-158c-6 0 -18 -13 -18 -19v-259h126l107 98h4v-248h-4l-107 102h-126v-283c0 -6 12 -21 17 -21h158c38 0 191 161 191 183h40zM348 917h165l-192 -140h-48z" />
    <glyph glyph-name="Ecircumflex" unicode="&#xca;" horiz-adv-x="679" 
d="M615 0h-594v36h30c14 0 55 44 55 60v536c0 15 -42 60 -56 60h-30v36h569v-206h-37c0 20 -106 158 -123 158h-158c-6 0 -18 -13 -18 -19v-259h126l107 98h4v-248h-4l-107 102h-126v-283c0 -6 12 -21 17 -21h158c38 0 191 161 191 183h40zM285 934h96l99 -157h-50l-97 79
l-97 -79h-50z" />
    <glyph glyph-name="Edieresis" unicode="&#xcb;" horiz-adv-x="679" 
d="M615 0h-594v36h30c14 0 55 44 55 60v536c0 15 -42 60 -56 60h-30v36h569v-206h-37c0 20 -106 158 -123 158h-158c-6 0 -18 -13 -18 -19v-259h126l107 98h4v-248h-4l-107 102h-126v-283c0 -6 12 -21 17 -21h158c38 0 191 161 191 183h40zM503 840c0 -40 -30 -69 -69 -69
s-71 29 -71 69s32 69 71 69s69 -29 69 -69zM298 840c0 -40 -31 -69 -70 -69s-70 29 -70 69s31 69 70 69s70 -29 70 -69z" />
    <glyph glyph-name="Igrave" unicode="&#xcc;" horiz-adv-x="359" 
d="M21 0v36h30c14 0 55 44 55 60v536c0 15 -42 60 -56 60h-30v36h319v-36h-30c-14 0 -56 -45 -56 -60v-536c0 -16 41 -60 55 -60h30v-36h-317zM20 917h165l51 -140h-49z" />
    <glyph glyph-name="Iacute" unicode="&#xcd;" horiz-adv-x="359" 
d="M21 0v36h30c14 0 55 44 55 60v536c0 15 -42 60 -56 60h-30v36h319v-36h-30c-14 0 -56 -45 -56 -60v-536c0 -16 41 -60 55 -60h30v-36h-317zM174 917h165l-192 -140h-48z" />
    <glyph glyph-name="Icircumflex" unicode="&#xce;" horiz-adv-x="359" 
d="M132 934h96l99 -157h-50l-97 79l-97 -79h-50zM21 0v36h30c14 0 55 44 55 60v536c0 15 -42 60 -56 60h-30v36h319v-36h-30c-14 0 -56 -45 -56 -60v-536c0 -16 41 -60 55 -60h30v-36h-317z" />
    <glyph glyph-name="Idieresis" unicode="&#xcf;" horiz-adv-x="359" 
d="M352 840c0 -40 -30 -69 -69 -69s-71 29 -71 69s32 69 71 69s69 -29 69 -69zM147 840c0 -40 -31 -69 -70 -69s-70 29 -70 69s31 69 70 69s70 -29 70 -69zM21 0v36h30c14 0 55 44 55 60v536c0 15 -42 60 -56 60h-30v36h319v-36h-30c-14 0 -56 -45 -56 -60v-536
c0 -16 41 -60 55 -60h30v-36h-317z" />
    <glyph glyph-name="Eth" unicode="&#xd0;" horiz-adv-x="756" 
d="M333 0h-312v36h30c14 0 55 44 55 60v254h-65v53h65v229c0 15 -42 60 -56 60h-30v36h311c181 0 360 -146 360 -362s-170 -366 -358 -366zM329 682h-30c-15 0 -47 -37 -47 -50v-229h192v-53h-192v-254c0 -14 29 -47 44 -47h37c108 0 197 52 204 226c2 47 2 131 0 179
c-7 174 -94 228 -208 228z" />
    <glyph glyph-name="Ntilde" unicode="&#xd1;" horiz-adv-x="824" 
d="M718 632v-643h-5l-546 608v-496c0 -16 46 -65 60 -65h40v-36h-246v36h30c14 0 55 44 55 60v536c0 15 -42 60 -56 60h-30v36h233l406 -456v355c0 15 -47 65 -61 65h-40v36h246v-36h-30c-14 0 -56 -45 -56 -60zM570 815l-25 -20c-8 20 -18 38 -53 38
c-47 0 -92 -48 -149 -48c-51 0 -84 35 -88 94l25 20c8 -20 18 -38 53 -38c47 0 92 48 149 48c51 0 84 -35 88 -94z" />
    <glyph glyph-name="Ograve" unicode="&#xd2;" horiz-adv-x="816" 
d="M411 -13c-216 0 -381 162 -381 375s153 379 375 379s381 -166 381 -378s-159 -376 -375 -376zM189 241c14 -122 103 -195 229 -195c129 0 197 77 211 195c8 65 7 185 0 249c-14 122 -103 198 -229 198c-129 0 -198 -80 -211 -198c-7 -65 -7 -185 0 -249zM222 917h165
l51 -140h-49z" />
    <glyph glyph-name="Oacute" unicode="&#xd3;" horiz-adv-x="816" 
d="M411 -13c-216 0 -381 162 -381 375s153 379 375 379s381 -166 381 -378s-159 -376 -375 -376zM189 241c14 -122 103 -195 229 -195c129 0 197 77 211 195c8 65 7 185 0 249c-14 122 -103 198 -229 198c-129 0 -198 -80 -211 -198c-7 -65 -7 -185 0 -249zM455 917h165
l-192 -140h-48z" />
    <glyph glyph-name="Ocircumflex" unicode="&#xd4;" horiz-adv-x="816" 
d="M411 -13c-216 0 -381 162 -381 375s153 379 375 379s381 -166 381 -378s-159 -376 -375 -376zM189 241c14 -122 103 -195 229 -195c129 0 197 77 211 195c8 65 7 185 0 249c-14 122 -103 198 -229 198c-129 0 -198 -80 -211 -198c-7 -65 -7 -185 0 -249zM362 934h96
l99 -157h-50l-97 79l-97 -79h-50z" />
    <glyph glyph-name="Otilde" unicode="&#xd5;" horiz-adv-x="816" 
d="M411 -13c-216 0 -381 162 -381 375s153 379 375 379s381 -166 381 -378s-159 -376 -375 -376zM189 241c14 -122 103 -195 229 -195c129 0 197 77 211 195c8 65 7 185 0 249c-14 122 -103 198 -229 198c-129 0 -198 -80 -211 -198c-7 -65 -7 -185 0 -249zM566 815l-25 -20
c-8 20 -18 38 -53 38c-47 0 -92 -48 -149 -48c-51 0 -84 35 -88 94l25 20c8 -20 18 -38 53 -38c47 0 92 48 149 48c51 0 84 -35 88 -94z" />
    <glyph glyph-name="Odieresis" unicode="&#xd6;" horiz-adv-x="816" 
d="M411 -13c-216 0 -381 162 -381 375s153 379 375 379s381 -166 381 -378s-159 -376 -375 -376zM189 241c14 -122 103 -195 229 -195c129 0 197 77 211 195c8 65 7 185 0 249c-14 122 -103 198 -229 198c-129 0 -198 -80 -211 -198c-7 -65 -7 -185 0 -249zM580 840
c0 -40 -30 -69 -69 -69s-71 29 -71 69s32 69 71 69s69 -29 69 -69zM375 840c0 -40 -31 -69 -70 -69s-70 29 -70 69s31 69 70 69s70 -29 70 -69z" />
    <glyph glyph-name="multiply" unicode="&#xd7;" horiz-adv-x="640" 
d="M72 93l196 196l-198 199l51 52l199 -199l197 197l50 -50l-197 -197l200 -200l-52 -51l-199 199l-197 -196z" />
    <glyph glyph-name="Oslash" unicode="&#xd8;" horiz-adv-x="816" 
d="M411 -13c-78 0 -149 21 -208 58l-64 -84l-52 39l64 84c-75 67 -121 165 -121 278c0 213 153 379 375 379c78 0 148 -21 207 -57l64 84l52 -40l-64 -83c76 -69 122 -169 122 -282c0 -212 -159 -376 -375 -376zM189 241c3 -30 11 -56 22 -79l356 464c-40 40 -99 62 -167 62
c-129 0 -198 -80 -211 -198c-7 -65 -7 -185 0 -249zM418 46c129 0 197 77 211 195c8 65 7 185 0 249c-4 29 -11 56 -23 79l-355 -462c41 -39 98 -61 167 -61z" />
    <glyph glyph-name="Ugrave" unicode="&#xd9;" horiz-adv-x="775" 
d="M248 627v-383c0 -117 61 -188 187 -188c121 0 180 72 180 187v384c0 15 -47 65 -61 65h-40v36h246v-36h-30c-14 0 -56 -45 -56 -60v-388c0 -163 -103 -256 -275 -256c-169 0 -298 92 -298 256v388c0 15 -42 60 -56 60h-30v36h334v-36h-40c-14 0 -61 -50 -61 -65zM240 917
h165l51 -140h-49z" />
    <glyph glyph-name="Uacute" unicode="&#xda;" horiz-adv-x="775" 
d="M248 627v-383c0 -117 61 -188 187 -188c121 0 180 72 180 187v384c0 15 -47 65 -61 65h-40v36h246v-36h-30c-14 0 -56 -45 -56 -60v-388c0 -163 -103 -256 -275 -256c-169 0 -298 92 -298 256v388c0 15 -42 60 -56 60h-30v36h334v-36h-40c-14 0 -61 -50 -61 -65zM483 917
h165l-192 -140h-48z" />
    <glyph glyph-name="Ucircumflex" unicode="&#xdb;" horiz-adv-x="775" 
d="M248 627v-383c0 -117 61 -188 187 -188c121 0 180 72 180 187v384c0 15 -47 65 -61 65h-40v36h246v-36h-30c-14 0 -56 -45 -56 -60v-388c0 -163 -103 -256 -275 -256c-169 0 -298 92 -298 256v388c0 15 -42 60 -56 60h-30v36h334v-36h-40c-14 0 -61 -50 -61 -65zM385 934
h96l99 -157h-50l-97 79l-97 -79h-50z" />
    <glyph glyph-name="Udieresis" unicode="&#xdc;" horiz-adv-x="775" 
d="M248 627v-383c0 -117 61 -188 187 -188c121 0 180 72 180 187v384c0 15 -47 65 -61 65h-40v36h246v-36h-30c-14 0 -56 -45 -56 -60v-388c0 -163 -103 -256 -275 -256c-169 0 -298 92 -298 256v388c0 15 -42 60 -56 60h-30v36h334v-36h-40c-14 0 -61 -50 -61 -65zM604 840
c0 -40 -30 -69 -69 -69s-71 29 -71 69s32 69 71 69s69 -29 69 -69zM399 840c0 -40 -31 -69 -70 -69s-70 29 -70 69s31 69 70 69s70 -29 70 -69z" />
    <glyph glyph-name="Yacute" unicode="&#xdd;" horiz-adv-x="695" 
d="M277 101v250l-181 275c-12 16 -63 65 -77 65h-14v37h348v-37h-35c-15 -1 -54 -48 -54 -65l133 -220l133 219c-3 17 -37 66 -52 66h-34v37h246v-37h-13c-14 -1 -69 -48 -80 -66l-173 -273v-251c0 -16 46 -65 60 -65h30v-36h-327v36h30c14 0 60 49 60 65zM452 917h165
l-192 -140h-48z" />
    <glyph glyph-name="Thorn" unicode="&#xde;" horiz-adv-x="637" 
d="M105 96v536c0 16 -41 60 -55 60h-30v36h317v-36h-30c-14 0 -55 -44 -55 -60v-50h71c157 0 288 -54 288 -204s-132 -204 -291 -204h-68v-78c0 -16 41 -60 55 -60h30v-36h-317v36h30c14 0 55 44 55 60zM322 536h-37c-12 0 -33 -22 -33 -34v-278h60c84 0 141 40 147 115
c2 24 2 48 0 72c-6 78 -63 125 -137 125z" />
    <glyph glyph-name="germandbls" unicode="&#xdf;" horiz-adv-x="635" 
d="M216 564v-564h-201v36h20c14 0 55 39 55 55v438c0 166 148 251 276 251c76 0 143 -44 143 -133s-75 -134 -134 -169c36 -29 74 -56 130 -96c69 -50 105 -106 105 -168c0 -139 -127 -259 -283 -258c-34 0 -63 6 -98 20l72 111h36c25 -31 50 -50 94 -50c50 0 86 36 86 91
c0 65 -33 112 -98 162c-49 37 -106 79 -165 128v36c113 58 142 92 142 152c0 69 -48 117 -107 117c-66 0 -73 -67 -73 -159z" />
    <glyph glyph-name="agrave" unicode="&#xe0;" horiz-adv-x="515" 
d="M322 0l-8 77c-23 -31 -83 -87 -142 -87c-79 0 -138 55 -138 132c0 95 94 130 171 146l101 20l1 57c1 61 -35 92 -104 92c-70 0 -104 -39 -81 -123h-37l-60 86c31 38 96 90 208 90c115 0 199 -52 199 -147v-252c0 -16 39 -55 53 -55h20v-36h-183zM307 138v109l-90 -24
c-47 -13 -77 -41 -77 -87c0 -41 28 -70 72 -70c38 0 77 40 95 72zM74 713h150l49 -176h-41z" />
    <glyph glyph-name="aacute" unicode="&#xe1;" horiz-adv-x="515" 
d="M322 0l-8 77c-23 -31 -83 -87 -142 -87c-79 0 -138 55 -138 132c0 95 94 130 171 146l101 20l1 57c1 61 -35 92 -104 92c-70 0 -104 -39 -81 -123h-37l-60 86c31 38 96 90 208 90c115 0 199 -52 199 -147v-252c0 -16 39 -55 53 -55h20v-36h-183zM307 138v109l-90 -24
c-47 -13 -77 -41 -77 -87c0 -41 28 -70 72 -70c38 0 77 40 95 72zM259 713h156l-194 -176h-41z" />
    <glyph glyph-name="acircumflex" unicode="&#xe2;" horiz-adv-x="515" 
d="M202 713h86l94 -176h-45l-92 91l-92 -91h-45zM307 138v109l-90 -24c-47 -13 -77 -41 -77 -87c0 -41 28 -70 72 -70c38 0 77 40 95 72zM322 0l-8 77c-23 -31 -83 -87 -142 -87c-79 0 -138 55 -138 132c0 95 94 130 171 146l101 20l1 57c1 61 -35 92 -104 92
c-70 0 -104 -39 -81 -123h-37l-60 86c31 38 96 90 208 90c115 0 199 -52 199 -147v-252c0 -16 39 -55 53 -55h20v-36h-183z" />
    <glyph glyph-name="atilde" unicode="&#xe3;" horiz-adv-x="515" 
d="M322 0l-8 77c-23 -31 -83 -87 -142 -87c-79 0 -138 55 -138 132c0 95 94 130 171 146l101 20l1 57c1 61 -35 92 -104 92c-70 0 -104 -39 -81 -123h-37l-60 86c31 38 96 90 208 90c115 0 199 -52 199 -147v-252c0 -16 39 -55 53 -55h20v-36h-183zM391 583l-29 -21
c-8 23 -15 43 -47 43c-52 0 -81 -50 -143 -50c-63 0 -86 41 -89 104l28 21c6 -23 14 -44 47 -44c63 0 82 50 143 50s88 -41 90 -103zM307 138v109l-90 -24c-47 -13 -77 -41 -77 -87c0 -41 28 -70 72 -70c38 0 77 40 95 72z" />
    <glyph glyph-name="adieresis" unicode="&#xe4;" horiz-adv-x="515" 
d="M394 616c0 -37 -28 -62 -63 -62s-63 25 -63 62s28 62 63 62s63 -25 63 -62zM210 616c0 -37 -28 -62 -63 -62s-63 25 -63 62s28 62 63 62s63 -25 63 -62zM307 138v109l-90 -24c-47 -13 -77 -41 -77 -87c0 -41 28 -70 72 -70c38 0 77 40 95 72zM322 0l-8 77
c-23 -31 -83 -87 -142 -87c-79 0 -138 55 -138 132c0 95 94 130 171 146l101 20l1 57c1 61 -35 92 -104 92c-70 0 -104 -39 -81 -123h-37l-60 86c31 38 96 90 208 90c115 0 199 -52 199 -147v-252c0 -16 39 -55 53 -55h20v-36h-183z" />
    <glyph glyph-name="aring" unicode="&#xe5;" horiz-adv-x="515" 
d="M132 636c0 62 47 102 107 102s106 -40 106 -102s-46 -102 -106 -102s-107 40 -107 102zM184 636c0 -35 25 -53 55 -53c29 0 54 19 54 53s-24 54 -54 54s-55 -20 -55 -54zM307 138v109l-90 -24c-47 -13 -77 -41 -77 -87c0 -41 28 -70 72 -70c38 0 77 40 95 72zM322 0
l-8 77c-23 -31 -83 -87 -142 -87c-79 0 -138 55 -138 132c0 95 94 130 171 146l101 20l1 57c1 61 -35 92 -104 92c-70 0 -104 -39 -81 -123h-37l-60 86c31 38 96 90 208 90c115 0 199 -52 199 -147v-252c0 -16 39 -55 53 -55h20v-36h-183z" />
    <glyph glyph-name="ae" unicode="&#xe6;" horiz-adv-x="770" 
d="M327 0l-9 82c-29 -41 -83 -92 -146 -92c-79 0 -138 55 -138 132c0 95 94 131 171 146l102 20l1 58c1 61 -36 92 -105 92c-70 0 -104 -40 -81 -124h-37l-60 86c31 38 96 90 208 90c69 0 122 -21 153 -58c39 36 90 58 154 58c127 0 181 -97 188 -176l3 -36l-302 -21
c2 -86 56 -174 149 -174c77 0 109 32 140 86h37c-36 -110 -103 -180 -215 -180c-40 0 -73 8 -103 21zM308 138v108l-91 -23c-48 -12 -77 -41 -77 -87c0 -42 27 -70 71 -70c39 0 79 40 97 72zM427 299l186 15c9 68 -4 131 -76 131c-85 0 -112 -75 -110 -146z" />
    <glyph glyph-name="ccedilla" unicode="&#xe7;" horiz-adv-x="485" 
d="M177 -83l31 77c-109 20 -183 117 -183 234c0 160 105 263 242 262c91 -1 146 -49 171 -72l-73 -114l-37 -3c17 94 -9 143 -73 143c-79 0 -117 -79 -117 -188c0 -100 57 -173 152 -173c88 0 122 40 150 94h37c-31 -115 -101 -184 -215 -188l-51 -62c17 11 34 16 53 16
c44 0 73 -26 73 -71c0 -56 -46 -89 -106 -89c-56 0 -82 26 -97 47l28 27c11 -17 30 -32 59 -32c31 0 51 14 51 40c0 27 -17 38 -41 38c-8 0 -17 -2 -26 -6z" />
    <glyph glyph-name="egrave" unicode="&#xe8;" horiz-adv-x="490" 
d="M451 278l-302 -24c2 -86 55 -171 148 -171c77 0 110 32 141 86h37c-36 -110 -104 -180 -216 -180c-154 0 -234 116 -234 249c0 143 96 253 234 252c127 -1 182 -97 189 -176zM147 299l185 15c9 68 -4 131 -76 131c-85 0 -111 -75 -109 -146zM93 713h150l49 -176h-41z" />
    <glyph glyph-name="eacute" unicode="&#xe9;" horiz-adv-x="490" 
d="M451 278l-302 -24c2 -86 55 -171 148 -171c77 0 110 32 141 86h37c-36 -110 -104 -180 -216 -180c-154 0 -234 116 -234 249c0 143 96 253 234 252c127 -1 182 -97 189 -176zM147 299l185 15c9 68 -4 131 -76 131c-85 0 -111 -75 -109 -146zM294 713h156l-194 -176h-41z
" />
    <glyph glyph-name="ecircumflex" unicode="&#xea;" horiz-adv-x="490" 
d="M451 278l-302 -24c2 -86 55 -171 148 -171c77 0 110 32 141 86h37c-36 -110 -104 -180 -216 -180c-154 0 -234 116 -234 249c0 143 96 253 234 252c127 -1 182 -97 189 -176zM147 299l185 15c9 68 -4 131 -76 131c-85 0 -111 -75 -109 -146zM214 713h86l94 -176h-45
l-92 91l-92 -91h-45z" />
    <glyph glyph-name="edieresis" unicode="&#xeb;" horiz-adv-x="490" 
d="M451 278l-302 -24c2 -86 55 -171 148 -171c77 0 110 32 141 86h37c-36 -110 -104 -180 -216 -180c-154 0 -234 116 -234 249c0 143 96 253 234 252c127 -1 182 -97 189 -176zM147 299l185 15c9 68 -4 131 -76 131c-85 0 -111 -75 -109 -146zM406 616
c0 -37 -28 -62 -63 -62s-63 25 -63 62s28 62 63 62s63 -25 63 -62zM222 616c0 -37 -28 -62 -63 -62s-63 25 -63 62s28 62 63 62s63 -25 63 -62z" />
    <glyph glyph-name="igrave" unicode="&#xec;" horiz-adv-x="313" 
d="M223 479v-388c0 -16 42 -55 55 -55h20v-36h-278v36h20c14 0 55 39 55 55v297c0 15 -41 55 -55 55h-20v36h203zM0 713h150l49 -176h-41z" />
    <glyph glyph-name="iacute" unicode="&#xed;" horiz-adv-x="313" 
d="M223 479v-388c0 -16 42 -55 55 -55h20v-36h-278v36h20c14 0 55 39 55 55v297c0 15 -41 55 -55 55h-20v36h203zM157 713h156l-194 -176h-41z" />
    <glyph glyph-name="icircumflex" unicode="&#xee;" horiz-adv-x="313" 
d="M223 479v-388c0 -16 42 -55 55 -55h20v-36h-278v36h20c14 0 55 39 55 55v297c0 15 -41 55 -55 55h-20v36h203zM104 713h86l94 -176h-45l-92 91l-92 -91h-45z" />
    <glyph glyph-name="idieresis" unicode="&#xef;" horiz-adv-x="313" 
d="M223 479v-388c0 -16 42 -55 55 -55h20v-36h-278v36h20c14 0 55 39 55 55v297c0 15 -41 55 -55 55h-20v36h203zM310 616c0 -37 -28 -62 -63 -62s-63 25 -63 62s28 62 63 62s63 -25 63 -62zM126 616c0 -37 -28 -62 -63 -62s-63 25 -63 62s28 62 63 62s63 -25 63 -62z" />
    <glyph glyph-name="eth" unicode="&#xf0;" horiz-adv-x="563" 
d="M187 599l135 52c-43 34 -99 59 -165 77l15 43c88 -10 168 -38 229 -90l123 47v-62l-78 -31c51 -66 82 -157 82 -281c0 -203 -120 -365 -285 -365c-147 0 -218 97 -218 237c0 157 100 264 222 264c95 0 137 -45 174 -113c9 98 -10 172 -53 227l-181 -71v66zM391 299
c0 68 -34 113 -102 113c-88 0 -151 -127 -151 -250c0 -72 35 -117 100 -117c88 0 153 133 153 254z" />
    <glyph glyph-name="ntilde" unicode="&#xf1;" horiz-adv-x="609" 
d="M15 443v36h183l17 -97c41 46 95 108 179 108c78 0 135 -67 135 -142v-257c0 -16 37 -55 50 -55h20v-36h-271v36h20c14 0 53 39 53 55v245c0 39 -21 64 -57 64c-49 0 -128 -54 -128 -85v-224c0 -16 37 -55 50 -55h20v-36h-271v36h20c14 0 53 39 53 55v297
c0 16 -39 55 -53 55h-20zM462 583l-29 -21c-8 23 -15 43 -47 43c-52 0 -81 -50 -143 -50c-63 0 -86 41 -89 104l28 21c6 -23 14 -44 47 -44c63 0 82 50 143 50s88 -41 90 -103z" />
    <glyph glyph-name="ograve" unicode="&#xf2;" horiz-adv-x="553" 
d="M278 -12c131 0 250 93 250 252s-119 251 -250 251s-253 -92 -253 -251s122 -252 253 -252zM279 43c-74 0 -112 46 -120 121c-5 45 -5 114 0 158c8 76 47 121 120 121s110 -47 118 -122c5 -45 5 -114 0 -158c-8 -76 -44 -120 -118 -120zM116 713h150l49 -176h-41z" />
    <glyph glyph-name="oacute" unicode="&#xf3;" horiz-adv-x="553" 
d="M278 -12c-131 0 -253 93 -253 252s122 251 253 251s250 -92 250 -251s-119 -252 -250 -252zM279 43c74 0 110 44 118 120c5 44 5 113 0 158c-8 75 -45 122 -118 122s-112 -45 -120 -121c-5 -44 -5 -113 0 -158c8 -75 46 -121 120 -121zM325 713h156l-194 -176h-41z" />
    <glyph glyph-name="ocircumflex" unicode="&#xf4;" horiz-adv-x="553" 
d="M279 43c-74 0 -112 46 -120 121c-5 45 -5 114 0 158c8 76 47 121 120 121s110 -47 118 -122c5 -45 5 -114 0 -158c-8 -76 -44 -120 -118 -120zM278 -12c131 0 250 93 250 252s-119 251 -250 251s-253 -92 -253 -251s122 -252 253 -252zM234 713h86l94 -176h-45l-92 91
l-92 -91h-45z" />
    <glyph glyph-name="otilde" unicode="&#xf5;" horiz-adv-x="553" 
d="M278 -12c-131 0 -253 93 -253 252s122 251 253 251s250 -92 250 -251s-119 -252 -250 -252zM279 43c74 0 110 44 118 120c5 44 5 113 0 158c-8 75 -45 122 -118 122s-112 -45 -120 -121c-5 -44 -5 -113 0 -158c8 -75 46 -121 120 -121zM435 583l-29 -21
c-8 23 -15 43 -47 43c-52 0 -81 -50 -143 -50c-63 0 -86 41 -89 104l28 21c6 -23 14 -44 47 -44c63 0 82 50 143 50s88 -41 90 -103z" />
    <glyph glyph-name="odieresis" unicode="&#xf6;" horiz-adv-x="553" 
d="M279 43c-74 0 -112 46 -120 121c-5 45 -5 114 0 158c8 76 47 121 120 121s110 -47 118 -122c5 -45 5 -114 0 -158c-8 -76 -44 -120 -118 -120zM278 -12c131 0 250 93 250 252s-119 251 -250 251s-253 -92 -253 -251s122 -252 253 -252zM434 616c0 -37 -28 -62 -63 -62
s-63 25 -63 62s28 62 63 62s63 -25 63 -62zM250 616c0 -37 -28 -62 -63 -62s-63 25 -63 62s28 62 63 62s63 -25 63 -62z" />
    <glyph glyph-name="divide" unicode="&#xf7;" horiz-adv-x="640" 
d="M48 328h544v-77h-544v77zM393 93c0 -39 -30 -70 -71 -70c-40 0 -71 31 -71 70s31 70 71 70c41 0 71 -31 71 -70zM393 486c0 -39 -30 -70 -71 -70c-40 0 -71 31 -71 70s31 70 71 70c41 0 71 -31 71 -70z" />
    <glyph glyph-name="oslash" unicode="&#xf8;" horiz-adv-x="563" 
d="M283 -12c-51 0 -101 16 -143 44l-37 -42l-37 32l36 40c-44 44 -72 105 -72 178c0 159 122 251 253 251c55 0 108 -18 152 -51l43 50l38 -33l-45 -50c38 -43 62 -100 62 -167c0 -159 -119 -252 -250 -252zM284 443c-73 0 -112 -45 -120 -121c-6 -54 -8 -132 3 -185
l218 247c-19 37 -52 59 -101 59zM284 43c74 0 109 44 118 120c7 58 6 111 0 165l-213 -241c20 -28 51 -44 95 -44z" />
    <glyph glyph-name="ugrave" unicode="&#xf9;" horiz-adv-x="609" 
d="M208 143v336h-198v-36h20c13 0 50 -39 50 -55v-257c0 -75 57 -142 135 -142c84 0 138 62 179 108l17 -97h183v36h-20c-14 0 -53 39 -53 55l1 388h-204v-36h25c13 0 50 -39 50 -55v-219c0 -31 -79 -90 -128 -90c-36 0 -57 25 -57 64zM122 713h150l49 -176h-41z" />
    <glyph glyph-name="uacute" unicode="&#xfa;" horiz-adv-x="609" 
d="M208 479v-336c0 -39 21 -64 57 -64c49 0 128 59 128 90v219c0 16 -37 55 -50 55h-25v36h204l-1 -388c0 -16 39 -55 53 -55h20v-36h-183l-17 97c-41 -46 -95 -108 -179 -108c-78 0 -135 67 -135 142v257c0 16 -37 55 -50 55h-20v36h198zM320 713h156l-194 -176h-41z" />
    <glyph glyph-name="ucircumflex" unicode="&#xfb;" horiz-adv-x="609" 
d="M208 143v336h-198v-36h20c13 0 50 -39 50 -55v-257c0 -75 57 -142 135 -142c84 0 138 62 179 108l17 -97h183v36h-20c-14 0 -53 39 -53 55l1 388h-204v-36h25c13 0 50 -39 50 -55v-219c0 -31 -79 -90 -128 -90c-36 0 -57 25 -57 64zM255 713h86l94 -176h-45l-92 91
l-92 -91h-45z" />
    <glyph glyph-name="udieresis" unicode="&#xfc;" horiz-adv-x="609" 
d="M208 143v336h-198v-36h20c13 0 50 -39 50 -55v-257c0 -75 57 -142 135 -142c84 0 138 62 179 108l17 -97h183v36h-20c-14 0 -53 39 -53 55l1 388h-204v-36h25c13 0 50 -39 50 -55v-219c0 -31 -79 -90 -128 -90c-36 0 -57 25 -57 64zM453 616c0 -37 -28 -62 -63 -62
s-63 25 -63 62s28 62 63 62s63 -25 63 -62zM269 616c0 -37 -28 -62 -63 -62s-63 25 -63 62s28 62 63 62s63 -25 63 -62z" />
    <glyph glyph-name="yacute" unicode="&#xfd;" horiz-adv-x="552" 
d="M257 36l-179 348c-8 15 -52 59 -64 59h-14v36h288v-36h-25c-13 0 -42 -39 -42 -57l101 -221l100 221c1 19 -29 57 -42 57h-25v36h197v-36h-15c-11 0 -48 -41 -58 -57l-171 -364l-128 -265l-57 27zM368 713h156l-194 -176h-41z" />
    <glyph glyph-name="thorn" unicode="&#xfe;" horiz-adv-x="618" 
d="M217 306v-132c0 -73 49 -122 116 -122s105 49 112 122c4 43 4 93 0 135c-7 75 -44 124 -107 124c-70 0 -107 -59 -121 -127zM90 -138v780c0 15 -41 50 -53 50h-22v36c103 18 203 43 203 43v-346c31 36 73 65 146 65c124 0 214 -87 214 -244c0 -159 -99 -257 -222 -257
c-77 0 -113 36 -138 74v-201c0 -16 42 -55 55 -55h20v-36h-278v36h20c14 0 55 39 55 55z" />
    <glyph glyph-name="ydieresis" unicode="&#xff;" horiz-adv-x="552" 
d="M78 384l179 -348l-134 -252l57 -27l128 265l171 364c10 16 47 57 58 57h15v36h-197v-36h25c13 0 43 -38 42 -57l-100 -221l-101 221c0 18 29 57 42 57h25v36h-288v-36h14c12 0 56 -44 64 -59zM477 616c0 -37 -28 -62 -63 -62s-63 25 -63 62s28 62 63 62s63 -25 63 -62z
M293 616c0 -37 -28 -62 -63 -62s-63 25 -63 62s28 62 63 62s63 -25 63 -62z" />
    <glyph glyph-name="Amacron" unicode="&#x100;" horiz-adv-x="756" 
d="M490 102l-44 123h-232l-48 -122c3 -17 35 -66 50 -66h34v-37h-240v37h13c14 1 69 48 80 66l245 603l60 35l249 -639c12 -16 61 -65 75 -65h14v-37h-345v37h35c15 1 54 48 54 65zM337 537l-101 -255h190zM247 881h273v-81h-273v81z" />
    <glyph glyph-name="amacron" unicode="&#x101;" horiz-adv-x="515" 
d="M100 654h284v-81h-284v81zM307 138v109l-90 -24c-47 -13 -77 -41 -77 -87c0 -41 28 -70 72 -70c38 0 77 40 95 72zM322 0l-8 77c-23 -31 -83 -87 -142 -87c-79 0 -138 55 -138 132c0 95 94 130 171 146l101 20l1 57c1 61 -35 92 -104 92c-70 0 -104 -39 -81 -123h-37
l-60 86c31 38 96 90 208 90c115 0 199 -52 199 -147v-252c0 -16 39 -55 53 -55h20v-36h-183z" />
    <glyph glyph-name="Abreve" unicode="&#x102;" horiz-adv-x="756" 
d="M490 102l-44 123h-232l-48 -122c3 -17 35 -66 50 -66h34v-37h-240v37h13c14 1 69 48 80 66l245 603l60 35l249 -639c12 -16 61 -65 75 -65h14v-37h-345v37h35c15 1 54 48 54 65zM337 537l-101 -255h190zM391 776c-101 0 -155 64 -152 145l36 6c2 -51 54 -69 114 -69
c61 0 115 17 116 69l36 -6c3 -81 -50 -145 -150 -145z" />
    <glyph glyph-name="abreve" unicode="&#x103;" horiz-adv-x="515" 
d="M244 620c70 0 111 27 113 77l35 -6c0 -88 -35 -152 -148 -152s-148 64 -148 152l35 6c2 -50 43 -77 113 -77zM307 138v109l-90 -24c-47 -13 -77 -41 -77 -87c0 -41 28 -70 72 -70c38 0 77 40 95 72zM322 0l-8 77c-23 -31 -83 -87 -142 -87c-79 0 -138 55 -138 132
c0 95 94 130 171 146l101 20l1 57c1 61 -35 92 -104 92c-70 0 -104 -39 -81 -123h-37l-60 86c31 38 96 90 208 90c115 0 199 -52 199 -147v-252c0 -16 39 -55 53 -55h20v-36h-183z" />
    <glyph glyph-name="Aogonek" unicode="&#x104;" horiz-adv-x="756" 
d="M660 0h-259v37h35c15 1 54 48 54 65l-44 123h-232l-48 -122c3 -17 35 -66 50 -66h34v-37h-240v37h13c14 1 69 48 80 66l245 603l60 35l249 -639c12 -16 61 -65 75 -65h14v-37h-43c-23 -24 -75 -77 -75 -117c0 -23 16 -39 40 -39c22 0 39 19 50 32l26 -23
c-29 -38 -59 -70 -111 -70c-56 0 -83 32 -83 76c0 64 83 123 110 141zM337 537l-101 -255h190z" />
    <glyph glyph-name="aogonek" unicode="&#x105;" horiz-adv-x="515" 
d="M322 0l-8 77c-23 -31 -83 -87 -142 -87c-79 0 -138 55 -138 132c0 95 94 130 171 146l101 20l1 57c1 61 -35 92 -104 92c-70 0 -104 -39 -81 -123h-37l-60 86c31 38 96 90 208 90c115 0 199 -52 199 -147v-252c0 -16 39 -55 53 -55h20v-36h-31c-23 -24 -75 -77 -75 -117
c0 -23 16 -39 40 -39c22 0 39 19 50 32l26 -23c-29 -38 -59 -70 -111 -70c-56 0 -83 32 -83 76c0 64 83 123 110 141h-109zM307 138v109l-90 -24c-47 -13 -77 -41 -77 -87c0 -41 28 -70 72 -70c38 0 77 40 95 72z" />
    <glyph glyph-name="Cacute" unicode="&#x106;" horiz-adv-x="713" 
d="M381 691c-112 0 -183 -58 -194 -229c-4 -62 -4 -123 2 -186c12 -125 94 -215 226 -215c105 0 181 40 227 136h61c-45 -113 -143 -210 -310 -210c-223 0 -363 172 -363 380s123 374 341 374c79 0 130 -32 188 -32c19 0 34 6 43 19h40v-249h-43c0 43 -80 212 -218 212z
M441 917h165l-192 -140h-48z" />
    <glyph glyph-name="cacute" unicode="&#x107;" horiz-adv-x="485" 
d="M255 444c-79 0 -117 -79 -117 -188c0 -100 57 -173 152 -173c88 0 122 40 150 94h37c-32 -118 -105 -188 -224 -188c-133 0 -228 107 -228 239c0 160 105 263 242 262c91 -1 146 -49 171 -72l-73 -114l-37 -3c17 94 -9 143 -73 143zM279 713h156l-194 -176h-41z" />
    <glyph glyph-name="Ccircumflex" unicode="&#x108;" horiz-adv-x="713" 
d="M381 691c-112 0 -183 -58 -194 -229c-4 -62 -4 -123 2 -186c12 -125 94 -215 226 -215c105 0 181 40 227 136h61c-45 -113 -143 -210 -310 -210c-223 0 -363 172 -363 380s123 374 341 374c79 0 130 -32 188 -32c19 0 34 6 43 19h40v-249h-43c0 43 -80 212 -218 212z
M373 934h96l99 -157h-50l-97 79l-97 -79h-50z" />
    <glyph glyph-name="ccircumflex" unicode="&#x109;" horiz-adv-x="485" 
d="M255 444c-79 0 -117 -79 -117 -188c0 -100 57 -173 152 -173c88 0 122 40 150 94h37c-32 -118 -105 -188 -224 -188c-133 0 -228 107 -228 239c0 160 105 263 242 262c91 -1 146 -49 171 -72l-73 -114l-37 -3c17 94 -9 143 -73 143zM212 713h86l94 -176h-45l-92 91
l-92 -91h-45z" />
    <glyph glyph-name="Cdotaccent" unicode="&#x10a;" horiz-adv-x="713" 
d="M381 691c-112 0 -183 -58 -194 -229c-4 -62 -4 -123 2 -186c12 -125 94 -215 226 -215c105 0 181 40 227 136h61c-45 -113 -143 -210 -310 -210c-223 0 -363 172 -363 380s123 374 341 374c79 0 130 -32 188 -32c19 0 34 6 43 19h40v-249h-43c0 43 -80 212 -218 212z
M454 857c0 -45 -33 -77 -78 -77c-44 0 -78 32 -78 77s34 77 78 77c45 0 78 -32 78 -77z" />
    <glyph glyph-name="cdotaccent" unicode="&#x10b;" horiz-adv-x="485" 
d="M255 444c-79 0 -117 -79 -117 -188c0 -100 57 -173 152 -173c88 0 122 40 150 94h37c-32 -118 -105 -188 -224 -188c-133 0 -228 107 -228 239c0 160 105 263 242 262c91 -1 146 -49 171 -72l-73 -114l-37 -3c17 94 -9 143 -73 143zM187 637c0 44 31 72 73 72
s72 -28 72 -72s-30 -73 -72 -73s-73 29 -73 73z" />
    <glyph glyph-name="Ccaron" unicode="&#x10c;" horiz-adv-x="713" 
d="M381 691c-112 0 -183 -58 -194 -229c-4 -62 -4 -123 2 -186c12 -125 94 -215 226 -215c105 0 181 40 227 136h61c-45 -113 -143 -210 -310 -210c-223 0 -363 172 -363 380s123 374 341 374c79 0 130 -32 188 -32c19 0 34 6 43 19h40v-249h-43c0 43 -80 212 -218 212z
M459 777h-96l-99 157h50l97 -79l97 79h50z" />
    <glyph glyph-name="ccaron" unicode="&#x10d;" horiz-adv-x="485" 
d="M255 444c-79 0 -117 -79 -117 -188c0 -100 57 -173 152 -173c88 0 122 40 150 94h37c-32 -118 -105 -188 -224 -188c-133 0 -228 107 -228 239c0 160 105 263 242 262c91 -1 146 -49 171 -72l-73 -114l-37 -3c17 94 -9 143 -73 143zM307 537h-96l-94 176h45l97 -99l97 99
h45z" />
    <glyph glyph-name="Dcaron" unicode="&#x10e;" horiz-adv-x="721" 
d="M329 682h-30c-15 0 -47 -37 -47 -50v-536c0 -14 29 -47 44 -47h37c108 0 197 52 204 226c2 47 2 131 0 179c-7 174 -94 228 -208 228zM333 0h-312v36h30c14 0 55 44 55 60v536c0 15 -42 60 -56 60h-30v36h311c181 0 360 -146 360 -362s-170 -366 -358 -366zM374 777h-96
l-99 157h50l97 -79l97 79h50z" />
    <glyph glyph-name="dcaron" unicode="&#x10f;" horiz-adv-x="682" 
d="M385 431v211c0 15 -41 50 -53 50h-22v36c103 18 203 43 203 43v-680c0 -16 39 -55 53 -55h20v-36h-184l-10 67c-25 -38 -68 -78 -145 -78c-123 0 -222 97 -222 256c0 157 101 245 223 245c61 0 106 -23 137 -59zM266 433c-63 0 -101 -49 -108 -124c-4 -42 -4 -92 0 -135
c7 -73 45 -122 112 -122s116 49 116 122v130c0 72 -50 129 -120 129zM676 710c5 -109 -45 -149 -125 -153v36c43 2 78 21 78 60h-28c-27 6 -49 25 -49 59c0 35 25 59 62 59c36 0 60 -24 62 -61z" />
    <glyph glyph-name="Dcroat" unicode="&#x110;" horiz-adv-x="721" 
d="M333 0h-312v36h30c14 0 55 44 55 60v256h-86v48h86v232c0 15 -42 60 -56 60h-30v36h311c181 0 360 -146 360 -362s-170 -366 -358 -366zM329 682h-30c-15 0 -47 -37 -47 -50v-232h192v-48h-192v-256c0 -14 29 -47 44 -47h37c108 0 197 52 204 226c2 47 2 131 0 179
c-7 174 -94 228 -208 228z" />
    <glyph glyph-name="dcroat" unicode="&#x111;" horiz-adv-x="601" 
d="M385 606v36c0 15 -41 50 -53 50h-22v36c103 18 203 43 203 43v-165h73v-56h-73v-459c0 -16 39 -55 53 -55h20v-36h-184l-10 67c-25 -38 -68 -78 -145 -78c-123 0 -222 97 -222 256c0 157 101 245 223 245c61 0 106 -23 137 -59v119h-158v56h158zM266 433
c-63 0 -101 -49 -108 -124c-4 -42 -4 -92 0 -135c7 -73 45 -122 112 -122s116 49 116 122v130c0 72 -50 129 -120 129z" />
    <glyph glyph-name="Emacron" unicode="&#x112;" horiz-adv-x="679" 
d="M615 0h-594v36h30c14 0 55 44 55 60v536c0 15 -42 60 -56 60h-30v36h569v-206h-37c0 20 -106 158 -123 158h-158c-6 0 -18 -13 -18 -19v-259h126l107 98h4v-248h-4l-107 102h-126v-283c0 -6 12 -21 17 -21h158c38 0 191 161 191 183h40zM187 881h273v-81h-273v81z" />
    <glyph glyph-name="emacron" unicode="&#x113;" horiz-adv-x="490" 
d="M451 278l-302 -24c2 -86 55 -171 148 -171c77 0 110 32 141 86h37c-36 -110 -104 -180 -216 -180c-154 0 -234 116 -234 249c0 143 96 253 234 252c127 -1 182 -97 189 -176zM147 299l185 15c9 68 -4 131 -76 131c-85 0 -111 -75 -109 -146zM114 654h284v-81h-284v81z
" />
    <glyph glyph-name="Ebreve" unicode="&#x114;" horiz-adv-x="679" 
d="M615 0h-594v36h30c14 0 55 44 55 60v536c0 15 -42 60 -56 60h-30v36h569v-206h-37c0 20 -106 158 -123 158h-158c-6 0 -18 -13 -18 -19v-259h126l107 98h4v-248h-4l-107 102h-126v-283c0 -6 12 -21 17 -21h158c38 0 191 161 191 183h40zM334 776c-101 0 -155 64 -152 145
l36 6c2 -51 54 -69 114 -69c61 0 115 17 116 69l36 -6c3 -81 -50 -145 -150 -145z" />
    <glyph glyph-name="ebreve" unicode="&#x115;" horiz-adv-x="490" 
d="M451 278l-302 -24c2 -86 55 -171 148 -171c77 0 110 32 141 86h37c-36 -110 -104 -180 -216 -180c-154 0 -234 116 -234 249c0 143 96 253 234 252c127 -1 182 -97 189 -176zM147 299l185 15c9 68 -4 131 -76 131c-85 0 -111 -75 -109 -146zM254 620c70 0 111 27 113 77
l35 -6c0 -88 -35 -152 -148 -152s-148 64 -148 152l35 6c2 -50 43 -77 113 -77z" />
    <glyph glyph-name="Edotaccent" unicode="&#x116;" horiz-adv-x="679" 
d="M615 0h-594v36h30c14 0 55 44 55 60v536c0 15 -42 60 -56 60h-30v36h569v-206h-37c0 20 -106 158 -123 158h-158c-6 0 -18 -13 -18 -19v-259h126l107 98h4v-248h-4l-107 102h-126v-283c0 -6 12 -21 17 -21h158c38 0 191 161 191 183h40zM409 848c0 -45 -33 -77 -78 -77
c-44 0 -78 32 -78 77s34 77 78 77c45 0 78 -32 78 -77z" />
    <glyph glyph-name="edotaccent" unicode="&#x117;" horiz-adv-x="490" 
d="M451 278l-302 -24c2 -86 55 -171 148 -171c77 0 110 32 141 86h37c-36 -110 -104 -180 -216 -180c-154 0 -234 116 -234 249c0 143 96 253 234 252c127 -1 182 -97 189 -176zM147 299l185 15c9 68 -4 131 -76 131c-85 0 -111 -75 -109 -146zM176 637c0 44 31 72 73 72
s72 -28 72 -72s-30 -73 -72 -73s-73 29 -73 73z" />
    <glyph glyph-name="Eogonek" unicode="&#x118;" horiz-adv-x="679" 
d="M392 0h-371v36h30c14 0 55 44 55 60v536c0 15 -42 60 -56 60h-30v36h569v-206h-37c0 20 -106 158 -123 158h-158c-6 0 -18 -13 -18 -19v-259h126l107 98h4v-248h-4l-107 102h-126v-283c0 -6 12 -21 17 -21h158c38 0 191 161 191 183h40l-44 -233h-180
c-23 -24 -75 -77 -75 -117c0 -23 16 -39 40 -39c22 0 39 19 50 32l26 -23c-29 -38 -59 -70 -111 -70c-56 0 -83 32 -83 76c0 64 83 123 110 141z" />
    <glyph glyph-name="eogonek" unicode="&#x119;" horiz-adv-x="490" 
d="M451 278l-302 -24c2 -86 55 -171 148 -171c77 0 110 32 141 86h37c-28 -84 -74 -145 -144 -169c-23 -24 -75 -77 -75 -117c0 -23 16 -39 40 -39c22 0 39 19 50 32l26 -23c-29 -38 -59 -70 -111 -70c-56 0 -83 32 -83 76c0 54 59 106 94 131c-4 0 -9 -1 -13 -1
c-154 0 -234 116 -234 249c0 143 96 253 234 252c127 -1 182 -97 189 -176zM147 299l185 15c9 68 -4 131 -76 131c-85 0 -111 -75 -109 -146z" />
    <glyph glyph-name="Ecaron" unicode="&#x11a;" horiz-adv-x="679" 
d="M615 0h-594v36h30c14 0 55 44 55 60v536c0 15 -42 60 -56 60h-30v36h569v-206h-37c0 20 -106 158 -123 158h-158c-6 0 -18 -13 -18 -19v-259h126l107 98h4v-248h-4l-107 102h-126v-283c0 -6 12 -21 17 -21h158c38 0 191 161 191 183h40zM379 777h-96l-99 157h50l97 -79
l97 79h50z" />
    <glyph glyph-name="ecaron" unicode="&#x11b;" horiz-adv-x="490" 
d="M451 278l-302 -24c2 -86 55 -171 148 -171c77 0 110 32 141 86h37c-36 -110 -104 -180 -216 -180c-154 0 -234 116 -234 249c0 143 96 253 234 252c127 -1 182 -97 189 -176zM147 299l185 15c9 68 -4 131 -76 131c-85 0 -111 -75 -109 -146zM305 537h-96l-94 176h45
l97 -99l97 99h45z" />
    <glyph glyph-name="Gcircumflex" unicode="&#x11c;" horiz-adv-x="790" 
d="M188 276c12 -142 95 -228 216 -228c85 0 134 37 134 87v92c0 14 -46 59 -55 59h-78v41h365v-39h-34c-9 0 -51 -44 -51 -58v-232h-5l-90 88c-37 -62 -98 -98 -202 -98c-229 0 -358 175 -358 379s131 374 350 374c79 0 131 -32 189 -32c19 0 34 6 43 19h40v-249h-43
c0 38 -80 211 -218 211c-115 0 -193 -57 -204 -228c-4 -62 -4 -123 1 -186zM343 934h96l99 -157h-50l-97 79l-97 -79h-50z" />
    <glyph glyph-name="gcircumflex" unicode="&#x11d;" horiz-adv-x="580" 
d="M230 713h86l94 -176h-45l-92 91l-92 -91h-45zM490 303c0 48 -18 88 -47 119h122v133h-35c-72 -35 -99 -121 -99 -121c-41 36 -99 56 -163 56c-121 0 -222 -73 -222 -179c0 -99 88 -150 142 -161c-72 -11 -146 -37 -146 -94c0 -49 46 -68 88 -77
c-46 -10 -110 -45 -110 -101c0 -86 110 -108 261 -108c138 0 243 39 243 140c0 81 -47 121 -132 122c-67 1 -130 2 -188 6c-28 2 -50 13 -50 41s24 41 55 43h62c129 0 219 66 219 181zM269 445c63 0 90 -40 94 -95c2 -27 2 -57 0 -84c-5 -59 -31 -97 -93 -97s-90 42 -94 96
c-2 27 -2 57 0 84c5 57 30 96 93 96zM395 -74c36 0 60 -18 60 -51c0 -45 -55 -67 -175 -67c-143 0 -182 27 -182 75c0 42 41 64 64 74c0 -19 51 -31 233 -31z" />
    <glyph glyph-name="Gbreve" unicode="&#x11e;" horiz-adv-x="790" 
d="M188 276c12 -142 95 -228 216 -228c85 0 134 37 134 87v92c0 14 -46 59 -55 59h-78v41h365v-39h-34c-9 0 -51 -44 -51 -58v-232h-5l-90 88c-37 -62 -98 -98 -202 -98c-229 0 -358 175 -358 379s131 374 350 374c79 0 131 -32 189 -32c19 0 34 6 43 19h40v-249h-43
c0 38 -80 211 -218 211c-115 0 -193 -57 -204 -228c-4 -62 -4 -123 1 -186zM403 776c-101 0 -155 64 -152 145l36 6c2 -51 54 -69 114 -69c61 0 115 17 116 69l36 -6c3 -81 -50 -145 -150 -145z" />
    <glyph glyph-name="gbreve" unicode="&#x11f;" horiz-adv-x="580" 
d="M272 620c70 0 111 27 113 77l35 -6c0 -88 -35 -152 -148 -152s-148 64 -148 152l35 6c2 -50 43 -77 113 -77zM490 303c0 -115 -90 -181 -219 -181h-62c-31 -2 -55 -15 -55 -43s22 -39 50 -41c58 -4 121 -5 188 -6c85 -1 132 -41 132 -122c0 -101 -105 -140 -243 -140
c-151 0 -261 22 -261 108c0 56 64 91 110 101c-42 9 -88 28 -88 77c0 57 74 83 146 94c-54 11 -142 62 -142 161c0 106 101 179 222 179c64 0 122 -20 163 -56c0 0 27 86 99 121h35v-133h-122c29 -31 47 -71 47 -119zM269 445c-63 0 -88 -39 -93 -96c-2 -27 -2 -57 0 -84
c4 -54 32 -96 94 -96s88 38 93 97c2 27 2 57 0 84c-4 55 -31 95 -94 95zM395 -74c-182 0 -233 12 -233 31c-23 -10 -64 -32 -64 -74c0 -48 39 -75 182 -75c120 0 175 22 175 67c0 33 -24 51 -60 51z" />
    <glyph glyph-name="Gdotaccent" unicode="&#x120;" horiz-adv-x="790" 
d="M188 276c12 -142 95 -228 216 -228c85 0 134 37 134 87v92c0 14 -46 59 -55 59h-78v41h365v-39h-34c-9 0 -51 -44 -51 -58v-232h-5l-90 88c-37 -62 -98 -98 -202 -98c-229 0 -358 175 -358 379s131 374 350 374c79 0 131 -32 189 -32c19 0 34 6 43 19h40v-249h-43
c0 38 -80 211 -218 211c-115 0 -193 -57 -204 -228c-4 -62 -4 -123 1 -186zM474 848c0 -45 -33 -77 -78 -77c-44 0 -78 32 -78 77s34 77 78 77c45 0 78 -32 78 -77z" />
    <glyph glyph-name="gdotaccent" unicode="&#x121;" horiz-adv-x="580" 
d="M198 637c0 44 31 72 73 72s72 -28 72 -72s-30 -73 -72 -73s-73 29 -73 73zM490 303c0 -115 -90 -181 -219 -181h-62c-31 -2 -55 -15 -55 -43s22 -39 50 -41c58 -4 121 -5 188 -6c85 -1 132 -41 132 -122c0 -101 -105 -140 -243 -140c-151 0 -261 22 -261 108
c0 56 64 91 110 101c-42 9 -88 28 -88 77c0 57 74 83 146 94c-54 11 -142 62 -142 161c0 106 101 179 222 179c64 0 122 -20 163 -56c0 0 27 86 99 121h35v-133h-122c29 -31 47 -71 47 -119zM269 445c-63 0 -88 -39 -93 -96c-2 -27 -2 -57 0 -84c4 -54 32 -96 94 -96
s88 38 93 97c2 27 2 57 0 84c-4 55 -31 95 -94 95zM395 -74c-182 0 -233 12 -233 31c-23 -10 -64 -32 -64 -74c0 -48 39 -75 182 -75c120 0 175 22 175 67c0 33 -24 51 -60 51z" />
    <glyph glyph-name="Gcommaaccent" unicode="&#x122;" horiz-adv-x="790" 
d="M188 276c12 -142 95 -228 216 -228c85 0 134 37 134 87v92c0 14 -46 59 -55 59h-78v41h365v-39h-34c-9 0 -51 -44 -51 -58v-232h-5l-90 88c-37 -62 -98 -98 -202 -98c-229 0 -358 175 -358 379s131 374 350 374c79 0 131 -32 189 -32c19 0 34 6 43 19h40v-249h-43
c0 38 -80 211 -218 211c-115 0 -193 -57 -204 -228c-4 -62 -4 -123 1 -186zM457 -102c5 -109 -45 -149 -125 -153v36c43 2 78 21 78 60h-28c-27 6 -49 25 -49 59c0 35 25 59 62 59c36 0 60 -24 62 -61z" />
    <glyph glyph-name="gcommaaccent" unicode="&#x123;" horiz-adv-x="580" 
d="M211 602c-5 109 45 149 125 153v-36c-43 -2 -78 -21 -78 -60h28c27 -6 49 -25 49 -59c0 -35 -25 -59 -62 -59c-36 0 -60 24 -62 61zM490 303c0 48 -18 88 -47 119h122v133h-35c-72 -35 -99 -121 -99 -121c-41 36 -99 56 -163 56c-121 0 -222 -73 -222 -179
c0 -99 88 -150 142 -161c-72 -11 -146 -37 -146 -94c0 -49 46 -68 88 -77c-46 -10 -110 -45 -110 -101c0 -86 110 -108 261 -108c138 0 243 39 243 140c0 81 -47 121 -132 122c-67 1 -130 2 -188 6c-28 2 -50 13 -50 41s24 41 55 43h62c129 0 219 66 219 181zM269 445
c63 0 90 -40 94 -95c2 -27 2 -57 0 -84c-5 -59 -31 -97 -93 -97s-90 42 -94 96c-2 27 -2 57 0 84c5 57 30 96 93 96zM395 -74c36 0 60 -18 60 -51c0 -45 -55 -67 -175 -67c-143 0 -182 27 -182 75c0 42 41 64 64 74c0 -19 51 -31 233 -31z" />
    <glyph glyph-name="Hcircumflex" unicode="&#x124;" horiz-adv-x="820" 
d="M484 0v36h30c14 0 55 44 55 60v251h-317v-251c0 -16 41 -60 55 -60h30v-36h-316v36h30c14 0 55 44 55 60v536c0 15 -42 60 -56 60h-30v36h318v-36h-30c-14 0 -56 -45 -56 -60v-223h317v223c0 15 -42 60 -56 60h-30v36h317v-36h-30c-14 0 -56 -45 -56 -60v-536
c0 -16 41 -60 55 -60h30v-36h-315zM366 934h96l99 -157h-50l-97 79l-97 -79h-50z" />
    <glyph glyph-name="hcircumflex" unicode="&#x125;" horiz-adv-x="611" 
d="M90 91v551c0 15 -41 50 -53 50h-22v36c103 18 203 43 203 43v-389c41 46 94 108 178 108c78 0 135 -67 135 -142v-257c0 -16 37 -55 50 -55h20v-36h-271v36h20c14 0 53 39 53 55v245c0 39 -21 64 -57 64c-49 0 -128 -54 -128 -85v-224c0 -16 37 -55 50 -55h20v-36h-271
v36h20c14 0 53 39 53 55zM194 983h86l94 -176h-45l-92 91l-92 -91h-45z" />
    <glyph glyph-name="Hbar" unicode="&#x126;" horiz-adv-x="820" 
d="M484 0v36h30c14 0 55 44 55 60v251h-317v-251c0 -16 41 -60 55 -60h30v-36h-316v36h30c14 0 55 44 55 60v407h-66v48h66v81c0 15 -42 60 -56 60h-30v36h318v-36h-30c-14 0 -56 -45 -56 -60v-81h317v81c0 15 -42 60 -56 60h-30v36h317v-36h-30c-14 0 -56 -45 -56 -60v-81
h66v-48h-66v-407c0 -16 41 -60 55 -60h30v-36h-315zM252 409h317v94h-317v-94z" />
    <glyph glyph-name="hbar" unicode="&#x127;" horiz-adv-x="611" 
d="M90 91v459h-75v56h75v36c0 15 -41 50 -53 50h-22v36c103 18 203 43 203 43v-165h177v-56h-177v-168c41 46 94 108 178 108c78 0 135 -67 135 -142v-257c0 -16 37 -55 50 -55h20v-36h-271v36h20c14 0 53 39 53 55v245c0 39 -21 64 -57 64c-49 0 -128 -54 -128 -85v-224
c0 -16 37 -55 50 -55h20v-36h-271v36h20c14 0 53 39 53 55z" />
    <glyph glyph-name="Itilde" unicode="&#x128;" horiz-adv-x="359" 
d="M21 0v36h30c14 0 55 44 55 60v536c0 15 -42 60 -56 60h-30v36h319v-36h-30c-14 0 -56 -45 -56 -60v-536c0 -16 41 -60 55 -60h30v-36h-317zM336 815l-25 -20c-8 20 -18 38 -53 38c-47 0 -92 -48 -149 -48c-51 0 -84 35 -88 94l25 20c8 -20 18 -38 53 -38
c47 0 92 48 149 48c51 0 84 -35 88 -94z" />
    <glyph glyph-name="itilde" unicode="&#x129;" horiz-adv-x="313" 
d="M223 479v-388c0 -16 42 -55 55 -55h20v-36h-278v36h20c14 0 55 39 55 55v297c0 15 -41 55 -55 55h-20v36h203zM308 583l-29 -21c-8 23 -15 43 -47 43c-52 0 -81 -50 -143 -50c-63 0 -86 41 -89 104l28 21c6 -23 14 -44 47 -44c63 0 82 50 143 50s88 -41 90 -103z" />
    <glyph glyph-name="Imacron" unicode="&#x12a;" horiz-adv-x="359" 
d="M44 881h273v-81h-273v81zM21 0v36h30c14 0 55 44 55 60v536c0 15 -42 60 -56 60h-30v36h319v-36h-30c-14 0 -56 -45 -56 -60v-536c0 -16 41 -60 55 -60h30v-36h-317z" />
    <glyph glyph-name="imacron" unicode="&#x12b;" horiz-adv-x="313" 
d="M223 479v-388c0 -16 42 -55 55 -55h20v-36h-278v36h20c14 0 55 39 55 55v297c0 15 -41 55 -55 55h-20v36h203zM0 654h284v-81h-284v81z" />
    <glyph glyph-name="Ibreve" unicode="&#x12c;" horiz-adv-x="359" 
d="M181 776c-101 0 -155 64 -152 145l36 6c2 -51 54 -69 114 -69c61 0 115 17 116 69l36 -6c3 -81 -50 -145 -150 -145zM21 0v36h30c14 0 55 44 55 60v536c0 15 -42 60 -56 60h-30v36h319v-36h-30c-14 0 -56 -45 -56 -60v-536c0 -16 41 -60 55 -60h30v-36h-317z" />
    <glyph glyph-name="ibreve" unicode="&#x12d;" horiz-adv-x="313" 
d="M223 479v-388c0 -16 42 -55 55 -55h20v-36h-278v36h20c14 0 55 39 55 55v297c0 15 -41 55 -55 55h-20v36h203zM148 620c70 0 111 27 113 77l35 -6c0 -88 -35 -152 -148 -152s-148 64 -148 152l35 6c2 -50 43 -77 113 -77z" />
    <glyph glyph-name="Iogonek" unicode="&#x12e;" horiz-adv-x="359" 
d="M21 0v36h30c14 0 55 44 55 60v536c0 15 -42 60 -56 60h-30v36h319v-36h-30c-14 0 -56 -45 -56 -60v-536c0 -16 41 -60 55 -60h30v-36h-100c-23 -24 -75 -77 -75 -117c0 -23 16 -39 40 -39c22 0 39 19 50 32l26 -23c-29 -38 -59 -70 -111 -70c-56 0 -83 32 -83 76
c0 64 83 123 110 141h-174z" />
    <glyph glyph-name="iogonek" unicode="&#x12f;" horiz-adv-x="313" 
d="M180 0h-160v36h20c14 0 55 39 55 55v297c0 15 -41 55 -55 55h-20v36h203v-388c0 -16 42 -55 55 -55h20v-36h-75c-23 -24 -75 -77 -75 -117c0 -23 16 -39 40 -39c22 0 39 19 50 32l26 -23c-29 -38 -59 -70 -111 -70c-56 0 -83 32 -83 76c0 64 83 123 110 141zM81 650
c0 45 32 73 75 73s74 -28 74 -73s-31 -74 -74 -74s-75 29 -75 74z" />
    <glyph glyph-name="Idotaccent" unicode="&#x130;" horiz-adv-x="359" 
d="M257 848c0 -45 -33 -77 -78 -77c-44 0 -78 32 -78 77s34 77 78 77c45 0 78 -32 78 -77zM21 0v36h30c14 0 55 44 55 60v536c0 15 -42 60 -56 60h-30v36h319v-36h-30c-14 0 -56 -45 -56 -60v-536c0 -16 41 -60 55 -60h30v-36h-317z" />
    <glyph glyph-name="dotlessi" unicode="&#x131;" horiz-adv-x="313" 
d="M223 479v-388c0 -16 42 -55 55 -55h20v-36h-278v36h20c14 0 55 39 55 55v297c0 15 -41 55 -55 55h-20v36h203z" />
    <glyph glyph-name="Jcircumflex" unicode="&#x134;" horiz-adv-x="431" 
d="M183 86v546c0 15 -42 60 -56 60h-30v36h319v-36h-30c-14 0 -56 -45 -56 -60v-529c0 -133 -70 -232 -185 -232c-87 0 -130 42 -130 121v44h53v-44c0 -35 19 -56 58 -56c42 0 59 27 59 66c0 31 -2 50 -2 84zM208 934h96l99 -157h-50l-97 79l-97 -79h-50z" />
    <glyph glyph-name="jcircumflex" unicode="&#x135;" horiz-adv-x="321" 
d="M114 -134c0 46 -4 80 -4 134v388c0 15 -41 55 -55 55h-20v36h203v-506c0 -116 -63 -202 -163 -202c-63 0 -100 33 -100 95v56h44v-56c0 -29 16 -47 46 -47s49 16 49 47zM113 713h86l94 -176h-45l-92 91l-92 -91h-45z" />
    <glyph glyph-name="Kcommaaccent" unicode="&#x136;" horiz-adv-x="755" 
d="M335 0h-314v36h30c14 0 55 44 55 60v536c0 15 -42 60 -56 60h-30v36h318v-36h-29c-15 0 -57 -45 -57 -60v-273l237 263c11 13 -31 70 -45 70h-31v36h281v-36h-18c-15 0 -104 -64 -112 -74l-174 -184l250 -332c11 -16 74 -65 88 -65h22v-37h-226l-227 335l-45 -48v-191
c0 -16 39 -60 54 -60h29v-36zM481 -100c5 -109 -45 -149 -125 -153v36c43 2 78 21 78 60h-28c-27 6 -49 25 -49 59c0 35 25 59 62 59c36 0 60 -24 62 -61z" />
    <glyph glyph-name="kcommaaccent" unicode="&#x137;" horiz-adv-x="593" 
d="M426 368l-86 -76l163 -187c11 -13 59 -69 69 -69h21v-36h-176s-29 32 -166 214l-33 -30v-93c0 -16 37 -55 50 -55h15v-36h-268v36h20c14 0 55 39 55 55v551c0 15 -41 50 -53 50h-22v36c103 18 203 43 203 43v-535l137 134c14 15 -12 74 -29 74h-23v35h257v-35h-21
c-12 0 -98 -62 -113 -76zM407 -100c5 -109 -45 -149 -125 -153v36c43 2 78 21 78 60h-28c-27 6 -49 25 -49 59c0 35 25 59 62 59c36 0 60 -24 62 -61z" />
    <glyph glyph-name="Lacute" unicode="&#x139;" horiz-adv-x="679" 
d="M20 728h319v-36h-30c-14 0 -56 -45 -56 -60v-561c0 -6 12 -21 17 -21h158c38 0 191 161 191 183h40l-44 -233h-594v36h30c14 0 55 44 55 60v536c0 15 -42 60 -56 60h-30v36zM209 917h165l-192 -140h-48z" />
    <glyph glyph-name="lacute" unicode="&#x13a;" horiz-adv-x="301" 
d="M218 771v-680c0 -16 42 -55 55 -55h20v-36h-278v36h20c14 0 55 39 55 55v551c0 15 -41 50 -53 50h-22v36c103 18 203 43 203 43zM149 927h165l-192 -140h-48z" />
    <glyph glyph-name="Lcommaaccent" unicode="&#x13b;" horiz-adv-x="679" 
d="M393 -102c5 -109 -45 -149 -125 -153v36c43 2 78 21 78 60h-28c-27 6 -49 25 -49 59c0 35 25 59 62 59c36 0 60 -24 62 -61zM20 728h319v-36h-30c-14 0 -56 -45 -56 -60v-561c0 -6 12 -21 17 -21h158c38 0 191 161 191 183h40l-44 -233h-594v36h30c14 0 55 44 55 60v536
c0 15 -42 60 -56 60h-30v36z" />
    <glyph glyph-name="lcommaaccent" unicode="&#x13c;" horiz-adv-x="303" 
d="M218 771v-680c0 -16 42 -55 55 -55h20v-36h-278v36h20c14 0 55 39 55 55v551c0 15 -41 50 -53 50h-22v36c103 18 203 43 203 43zM214 -100c5 -109 -45 -149 -125 -153v36c43 2 78 21 78 60h-28c-27 6 -49 25 -49 59c0 35 25 59 62 59c36 0 60 -24 62 -61z" />
    <glyph glyph-name="Lcaron" unicode="&#x13d;" horiz-adv-x="679" 
d="M521 728c5 -120 -50 -164 -138 -168v39c48 3 86 24 86 67h-31c-29 6 -54 27 -54 64c0 39 28 65 69 65c39 0 66 -26 68 -67zM20 728h319v-36h-30c-14 0 -56 -45 -56 -60v-561c0 -6 12 -21 17 -21h158c38 0 191 161 191 183h40l-44 -233h-594v36h30c14 0 55 44 55 60v536
c0 15 -42 60 -56 60h-30v36z" />
    <glyph glyph-name="lcaron" unicode="&#x13e;" horiz-adv-x="386" 
d="M218 771v-680c0 -16 42 -55 55 -55h20v-36h-278v36h20c14 0 55 39 55 55v551c0 15 -41 50 -53 50h-22v36c103 18 203 43 203 43zM380 702c5 -109 -45 -149 -125 -153v36c43 2 78 21 78 60h-28c-27 6 -49 25 -49 59c0 35 25 59 62 59c36 0 60 -24 62 -61z" />
    <glyph glyph-name="Ldot" unicode="&#x13f;" horiz-adv-x="679" 
d="M367 372c0 -43 32 -75 77 -75s77 32 77 75s-32 75 -77 75s-77 -32 -77 -75zM20 728h319v-36h-30c-14 0 -56 -45 -56 -60v-561c0 -6 12 -21 17 -21h158c38 0 191 161 191 183h40l-44 -233h-594v36h30c14 0 55 44 55 60v536c0 15 -42 60 -56 60h-30v36z" />
    <glyph glyph-name="ldot" unicode="&#x140;" horiz-adv-x="418" 
d="M218 771v-680c0 -16 42 -55 55 -55h20v-36h-278v36h20c14 0 55 39 55 55v551c0 15 -41 50 -53 50h-22v36c103 18 203 43 203 43zM259 342c0 -43 32 -75 77 -75s77 32 77 75s-32 75 -77 75s-77 -32 -77 -75z" />
    <glyph glyph-name="Lslash" unicode="&#x141;" horiz-adv-x="679" 
d="M20 728h319v-36h-30c-14 0 -56 -45 -56 -60v-248l206 131v-65l-206 -130v-249c0 -6 12 -21 17 -21h158c38 0 191 161 191 183h40l-44 -233h-594v36h30c14 0 55 44 55 60v132l-75 -47v63l75 47v341c0 15 -42 60 -56 60h-30v36z" />
    <glyph glyph-name="lslash" unicode="&#x142;" horiz-adv-x="303" 
d="M218 771v-285l69 63v-74l-69 -64v-320c0 -16 42 -55 55 -55h20v-36h-278v36h20c14 0 55 39 55 55v202l-68 -62v76l68 62v273c0 15 -41 50 -53 50h-22v36c103 18 203 43 203 43z" />
    <glyph glyph-name="Nacute" unicode="&#x143;" horiz-adv-x="824" 
d="M718 632v-643h-5l-546 608v-496c0 -16 46 -65 60 -65h40v-36h-246v36h30c14 0 55 44 55 60v536c0 15 -42 60 -56 60h-30v36h233l406 -456v355c0 15 -47 65 -61 65h-40v36h246v-36h-30c-14 0 -56 -45 -56 -60zM457 917h165l-192 -140h-48z" />
    <glyph glyph-name="nacute" unicode="&#x144;" horiz-adv-x="609" 
d="M15 443v36h183l17 -97c41 46 95 108 179 108c78 0 135 -67 135 -142v-257c0 -16 37 -55 50 -55h20v-36h-271v36h20c14 0 53 39 53 55v245c0 39 -21 64 -57 64c-49 0 -128 -54 -128 -85v-224c0 -16 37 -55 50 -55h20v-36h-271v36h20c14 0 53 39 53 55v297
c0 16 -39 55 -53 55h-20zM342 712h156l-194 -176h-41z" />
    <glyph glyph-name="Ncommaaccent" unicode="&#x145;" horiz-adv-x="824" 
d="M718 632v-643h-5l-546 608v-496c0 -16 46 -65 60 -65h40v-36h-246v36h30c14 0 55 44 55 60v536c0 15 -42 60 -56 60h-30v36h233l406 -456v355c0 15 -47 65 -61 65h-40v36h246v-36h-30c-14 0 -56 -45 -56 -60zM515 -100c5 -109 -45 -149 -125 -153v36c43 2 78 21 78 60
h-28c-27 6 -49 25 -49 59c0 35 25 59 62 59c36 0 60 -24 62 -61z" />
    <glyph glyph-name="ncommaaccent" unicode="&#x146;" horiz-adv-x="609" 
d="M15 443v36h183l17 -97c41 46 95 108 179 108c78 0 135 -67 135 -142v-257c0 -16 37 -55 50 -55h20v-36h-271v36h20c14 0 53 39 53 55v245c0 39 -21 64 -57 64c-49 0 -128 -54 -128 -85v-224c0 -16 37 -55 50 -55h20v-36h-271v36h20c14 0 53 39 53 55v297
c0 16 -39 55 -53 55h-20zM372 -102c5 -109 -45 -149 -125 -153v36c43 2 78 21 78 60h-28c-27 6 -49 25 -49 59c0 35 25 59 62 59c36 0 60 -24 62 -61z" />
    <glyph glyph-name="Ncaron" unicode="&#x147;" horiz-adv-x="824" 
d="M718 632v-643h-5l-546 608v-496c0 -16 46 -65 60 -65h40v-36h-246v36h30c14 0 55 44 55 60v536c0 15 -42 60 -56 60h-30v36h233l406 -456v355c0 15 -47 65 -61 65h-40v36h246v-36h-30c-14 0 -56 -45 -56 -60zM467 777h-96l-99 157h50l97 -79l97 79h50z" />
    <glyph glyph-name="ncaron" unicode="&#x148;" horiz-adv-x="609" 
d="M15 479v-36h20c14 0 53 -39 53 -55v-297c0 -16 -39 -55 -53 -55h-20v-36h271v36h-20c-13 0 -50 39 -50 55v224c0 31 79 85 128 85c36 0 57 -25 57 -64v-245c0 -16 -39 -55 -53 -55h-20v-36h271v36h-20c-13 0 -50 39 -50 55v257c0 75 -57 142 -135 142
c-84 0 -138 -62 -179 -108l-17 97h-183zM351 537h-96l-94 176h45l97 -99l97 99h45z" />
    <glyph glyph-name="Eng" unicode="&#x14a;" horiz-adv-x="817" 
d="M603 1v101l-438 495v-496c0 -16 46 -65 60 -65h40v-36h-246v36h30c14 0 55 44 55 60v536c0 15 -42 60 -56 60h-30v36h233l406 -464v363c0 15 -47 65 -61 65h-40v36h246v-36h-30c-14 0 -56 -45 -56 -60v-614c0 -133 -36 -224 -151 -224c-87 0 -130 42 -130 121v44h53v-44
c0 -35 19 -56 58 -56c42 0 59 27 59 66c0 31 -2 42 -2 76z" />
    <glyph glyph-name="eng" unicode="&#x14b;" horiz-adv-x="609" 
d="M529 348v-375c0 -116 -62 -202 -162 -202c-63 0 -100 33 -100 95v56h44v-56c0 -29 16 -47 46 -47s48 16 48 47c0 46 -4 80 -4 134v336c0 39 -21 64 -57 64c-49 0 -128 -54 -128 -85v-224c0 -16 37 -55 50 -55h20v-36h-271v36h20c14 0 53 39 53 55v297c0 16 -39 55 -53 55
h-20v36h183l17 -97c41 46 95 108 179 108c78 0 135 -67 135 -142z" />
    <glyph glyph-name="Omacron" unicode="&#x14c;" horiz-adv-x="816" 
d="M411 -13c-216 0 -381 162 -381 375s153 379 375 379s381 -166 381 -378s-159 -376 -375 -376zM189 241c14 -122 103 -195 229 -195c129 0 197 77 211 195c8 65 7 185 0 249c-14 122 -103 198 -229 198c-129 0 -198 -80 -211 -198c-7 -65 -7 -185 0 -249zM271 881h273v-81
h-273v81z" />
    <glyph glyph-name="omacron" unicode="&#x14d;" horiz-adv-x="553" 
d="M279 43c74 0 110 44 118 120c5 44 5 113 0 158c-8 75 -45 122 -118 122s-112 -45 -120 -121c-5 -44 -5 -113 0 -158c8 -75 46 -121 120 -121zM278 -12c-131 0 -253 93 -253 252s122 251 253 251s250 -92 250 -251s-119 -252 -250 -252zM137 654h284v-81h-284v81z" />
    <glyph glyph-name="Obreve" unicode="&#x14e;" horiz-adv-x="816" 
d="M411 -13c-216 0 -381 162 -381 375s153 379 375 379s381 -166 381 -378s-159 -376 -375 -376zM189 241c14 -122 103 -195 229 -195c129 0 197 77 211 195c8 65 7 185 0 249c-14 122 -103 198 -229 198c-129 0 -198 -80 -211 -198c-7 -65 -7 -185 0 -249zM409 776
c-101 0 -155 64 -152 145l36 6c2 -51 54 -69 114 -69c61 0 115 17 116 69l36 -6c3 -81 -50 -145 -150 -145z" />
    <glyph glyph-name="obreve" unicode="&#x14f;" horiz-adv-x="553" 
d="M279 43c74 0 110 44 118 120c5 44 5 113 0 158c-8 75 -45 122 -118 122s-112 -45 -120 -121c-5 -44 -5 -113 0 -158c8 -75 46 -121 120 -121zM278 -12c-131 0 -253 93 -253 252s122 251 253 251s250 -92 250 -251s-119 -252 -250 -252zM279 620c70 0 111 27 113 77l35 -6
c0 -88 -35 -152 -148 -152s-148 64 -148 152l35 6c2 -50 43 -77 113 -77z" />
    <glyph glyph-name="Ohungarumlaut" unicode="&#x150;" horiz-adv-x="816" 
d="M411 -13c-216 0 -381 162 -381 375s153 379 375 379s381 -166 381 -378s-159 -376 -375 -376zM189 241c14 -122 103 -195 229 -195c129 0 197 77 211 195c8 65 7 185 0 249c-14 122 -103 198 -229 198c-129 0 -198 -80 -211 -198c-7 -65 -7 -185 0 -249zM518 917h152
l-159 -140h-48zM338 917h148l-157 -140h-46z" />
    <glyph glyph-name="ohungarumlaut" unicode="&#x151;" horiz-adv-x="553" 
d="M278 -12c-131 0 -253 93 -253 252s122 251 253 251s250 -92 250 -251s-119 -252 -250 -252zM279 43c74 0 110 44 118 120c5 44 5 113 0 158c-8 75 -45 122 -118 122s-112 -45 -120 -121c-5 -44 -5 -113 0 -158c8 -75 46 -121 120 -121zM407 713h141l-177 -176h-44z
M233 713h137l-165 -176h-42z" />
    <glyph glyph-name="OE" unicode="&#x152;" horiz-adv-x="1074" 
d="M1010 0h-496c-33 -8 -69 -13 -106 -13c-216 0 -378 162 -378 375s150 379 372 379c40 0 77 -4 112 -13h470v-206h-37c0 20 -106 158 -123 158h-147c-6 0 -18 -13 -18 -19v-259h121l107 98h4v-248h-4l-107 102h-121v-283c0 -6 12 -21 17 -21h147c38 0 191 161 191 183h40z
M189 242c14 -122 98 -196 224 -196c39 0 73 5 101 18v600c-34 16 -74 24 -119 24c-129 0 -193 -80 -206 -198c-7 -65 -7 -184 0 -248z" />
    <glyph glyph-name="oe" unicode="&#x153;" horiz-adv-x="845" 
d="M803 278l-304 -24c2 -86 58 -171 151 -171c77 0 107 32 138 86h37c-36 -110 -101 -180 -213 -180c-79 0 -136 30 -173 79c-43 -52 -99 -80 -177 -80c-131 0 -247 96 -247 252s116 251 247 251c76 0 137 -27 179 -82c40 51 98 81 171 81c127 -1 181 -97 188 -176zM263 42
c73 0 108 48 116 124c5 44 5 107 0 152c-8 75 -44 126 -116 126s-110 -49 -118 -125c-5 -44 -5 -107 0 -152c8 -75 45 -125 118 -125zM498 299l186 15c9 68 -3 132 -75 132c-85 0 -113 -76 -111 -147z" />
    <glyph glyph-name="Racute" unicode="&#x154;" horiz-adv-x="766" 
d="M761 37v-37h-209s-140 227 -223 336h-76v-240c0 -16 41 -60 55 -60h30v-36h-317v36h30c14 0 55 44 55 60v536c0 15 -42 60 -56 60h-30v36h307c151 0 285 -44 285 -183c0 -110 -91 -160 -196 -180l80 -18c65 -101 98 -146 171 -245c12 -16 63 -65 77 -65h17zM325 682h-39
c-12 0 -33 -22 -33 -34v-261h62c84 0 141 37 147 112c2 24 2 48 0 71c-7 78 -63 112 -137 112zM346 917h165l-192 -140h-48z" />
    <glyph glyph-name="racute" unicode="&#x155;" horiz-adv-x="442" 
d="M90 91v297c0 16 -39 55 -53 55h-20v36h174l19 -106c39 72 76 117 144 117c28 0 46 -3 68 -11v-125h-32c-12 21 -32 37 -66 37c-73 0 -106 -59 -106 -72v-228c0 -16 42 -55 55 -55h20v-36h-278v36h20c14 0 55 39 55 55zM265 713h156l-194 -176h-41z" />
    <glyph glyph-name="Rcommaaccent" unicode="&#x156;" horiz-adv-x="766" 
d="M761 37v-37h-209s-140 227 -223 336h-76v-240c0 -16 41 -60 55 -60h30v-36h-317v36h30c14 0 55 44 55 60v536c0 15 -42 60 -56 60h-30v36h307c151 0 285 -44 285 -183c0 -110 -91 -160 -196 -180l80 -18c65 -101 98 -146 171 -245c12 -16 63 -65 77 -65h17zM325 682h-39
c-12 0 -33 -22 -33 -34v-261h62c84 0 141 37 147 112c2 24 2 48 0 71c-7 78 -63 112 -137 112zM485 -102c5 -109 -45 -149 -125 -153v36c43 2 78 21 78 60h-28c-27 6 -49 25 -49 59c0 35 25 59 62 59c36 0 60 -24 62 -61z" />
    <glyph glyph-name="rcommaaccent" unicode="&#x157;" horiz-adv-x="442" 
d="M90 91v297c0 16 -39 55 -53 55h-20v36h174l19 -106c39 72 76 117 144 117c28 0 46 -3 68 -11v-125h-32c-12 21 -32 37 -66 37c-73 0 -106 -59 -106 -72v-228c0 -16 42 -55 55 -55h20v-36h-278v36h20c14 0 55 39 55 55zM217 -102c5 -109 -45 -149 -125 -153v36
c43 2 78 21 78 60h-28c-27 6 -49 25 -49 59c0 35 25 59 62 59c36 0 60 -24 62 -61z" />
    <glyph glyph-name="Rcaron" unicode="&#x158;" horiz-adv-x="766" 
d="M761 37v-37h-209s-140 227 -223 336h-76v-240c0 -16 41 -60 55 -60h30v-36h-317v36h30c14 0 55 44 55 60v536c0 15 -42 60 -56 60h-30v36h307c151 0 285 -44 285 -183c0 -110 -91 -160 -196 -180l80 -18c65 -101 98 -146 171 -245c12 -16 63 -65 77 -65h17zM325 682h-39
c-12 0 -33 -22 -33 -34v-261h62c84 0 141 37 147 112c2 24 2 48 0 71c-7 78 -63 112 -137 112zM372 777h-96l-99 157h50l97 -79l97 79h50z" />
    <glyph glyph-name="rcaron" unicode="&#x159;" horiz-adv-x="442" 
d="M90 91v297c0 16 -39 55 -53 55h-20v36h174l19 -106c39 72 76 117 144 117c28 0 46 -3 68 -11v-125h-32c-12 21 -32 37 -66 37c-73 0 -106 -59 -106 -72v-228c0 -16 42 -55 55 -55h20v-36h-278v36h20c14 0 55 39 55 55zM277 537h-96l-94 176h45l97 -99l97 99h45z" />
    <glyph glyph-name="Sacute" unicode="&#x15a;" horiz-adv-x="598" 
d="M509 728v-225h-39c-1 36 -97 187 -206 187c-73 0 -113 -34 -113 -94c0 -47 48 -87 86 -106c56 -28 117 -56 178 -81c93 -38 148 -106 148 -203c0 -131 -100 -218 -237 -218c-77 0 -126 37 -186 37c-23 0 -42 -7 -54 -25h-37v236h39c1 -39 119 -192 239 -192
c75 0 125 31 125 97c0 64 -53 93 -96 111c-63 26 -120 54 -179 86c-84 45 -137 107 -137 198c0 119 89 205 222 205c67 0 106 -31 161 -31c18 0 40 3 50 18h36zM317 917h165l-192 -140h-48z" />
    <glyph glyph-name="sacute" unicode="&#x15b;" horiz-adv-x="433" 
d="M37 166h32c0 -32 76 -127 174 -127c44 0 73 19 73 54c0 37 -36 58 -71 71c-37 14 -67 27 -105 45c-66 31 -105 77 -105 139c0 88 63 142 158 142c53 0 92 -24 124 -24c12 0 22 5 27 13h30v-149h-32c0 29 -68 116 -154 116c-44 0 -67 -21 -67 -54c0 -35 36 -51 72 -67
s64 -28 102 -43c59 -23 113 -74 113 -146c0 -91 -67 -147 -169 -147c-60 0 -110 28 -141 28c-12 0 -24 -8 -31 -17h-30v166zM256 713h156l-194 -176h-41z" />
    <glyph glyph-name="Scircumflex" unicode="&#x15c;" horiz-adv-x="598" 
d="M509 728v-225h-39c-1 36 -97 187 -206 187c-73 0 -113 -34 -113 -94c0 -47 48 -87 86 -106c56 -28 117 -56 178 -81c93 -38 148 -106 148 -203c0 -131 -100 -218 -237 -218c-77 0 -126 37 -186 37c-23 0 -42 -7 -54 -25h-37v236h39c1 -39 119 -192 239 -192
c75 0 125 31 125 97c0 64 -53 93 -96 111c-63 26 -120 54 -179 86c-84 45 -137 107 -137 198c0 119 89 205 222 205c67 0 106 -31 161 -31c18 0 40 3 50 18h36zM247 934h96l99 -157h-50l-97 79l-97 -79h-50z" />
    <glyph glyph-name="scircumflex" unicode="&#x15d;" horiz-adv-x="433" 
d="M37 166h32c0 -32 76 -127 174 -127c44 0 73 19 73 54c0 37 -36 58 -71 71c-37 14 -67 27 -105 45c-66 31 -105 77 -105 139c0 88 63 142 158 142c53 0 92 -24 124 -24c12 0 22 5 27 13h30v-149h-32c0 29 -68 116 -154 116c-44 0 -67 -21 -67 -54c0 -35 36 -51 72 -67
s64 -28 102 -43c59 -23 113 -74 113 -146c0 -91 -67 -147 -169 -147c-60 0 -110 28 -141 28c-12 0 -24 -8 -31 -17h-30v166zM171 713h86l94 -176h-45l-92 91l-92 -91h-45z" />
    <glyph glyph-name="Scedilla" unicode="&#x15e;" horiz-adv-x="598" 
d="M235 -95l36 90c-48 10 -87 30 -131 30c-23 0 -42 -7 -54 -25h-37v236h39c1 -39 119 -192 239 -192c75 0 125 31 125 97c0 64 -53 93 -96 111c-63 26 -120 54 -179 86c-84 45 -137 107 -137 198c0 119 89 205 222 205c67 0 106 -31 161 -31c18 0 40 3 50 18h36v-225h-39
c-1 36 -97 187 -206 187c-73 0 -113 -34 -113 -94c0 -47 48 -87 86 -106c56 -28 117 -56 178 -81c93 -38 148 -106 148 -203c0 -130 -99 -216 -234 -218l-60 -73c17 11 34 16 53 16c44 0 73 -26 73 -71c0 -56 -46 -89 -106 -89c-56 0 -82 26 -97 47l28 27
c11 -17 30 -32 59 -32c31 0 51 14 51 40c0 27 -17 38 -41 38c-8 0 -17 -2 -26 -6z" />
    <glyph glyph-name="scedilla" unicode="&#x15f;" horiz-adv-x="433" 
d="M149 -83l32 80c-34 8 -63 20 -83 20c-12 0 -24 -8 -31 -17h-30v166h32c0 -32 76 -127 174 -127c44 0 73 19 73 54c0 37 -36 58 -71 71c-37 14 -67 27 -105 45c-66 31 -105 77 -105 139c0 88 63 142 158 142c53 0 92 -24 124 -24c12 0 22 5 27 13h30v-149h-32
c0 29 -68 116 -154 116c-44 0 -67 -21 -67 -54c0 -35 36 -51 72 -67s64 -28 102 -43c59 -23 113 -74 113 -146c0 -91 -67 -147 -169 -147h-5l-51 -62c17 11 34 16 53 16c44 0 73 -26 73 -71c0 -56 -46 -89 -106 -89c-56 0 -82 26 -97 47l28 27c11 -17 30 -32 59 -32
c31 0 51 14 51 40c0 27 -17 38 -41 38c-8 0 -17 -2 -26 -6z" />
    <glyph glyph-name="Scaron" unicode="&#x160;" horiz-adv-x="598" 
d="M509 728v-225h-39c-1 36 -97 187 -206 187c-73 0 -113 -34 -113 -94c0 -47 48 -87 86 -106c56 -28 117 -56 178 -81c93 -38 148 -106 148 -203c0 -131 -100 -218 -237 -218c-77 0 -126 37 -186 37c-23 0 -42 -7 -54 -25h-37v236h39c1 -39 119 -192 239 -192
c75 0 125 31 125 97c0 64 -53 93 -96 111c-63 26 -120 54 -179 86c-84 45 -137 107 -137 198c0 119 89 205 222 205c67 0 106 -31 161 -31c18 0 40 3 50 18h36zM338 777h-96l-99 157h50l97 -79l97 79h50z" />
    <glyph glyph-name="scaron" unicode="&#x161;" horiz-adv-x="433" 
d="M37 166h32c0 -32 76 -127 174 -127c44 0 73 19 73 54c0 37 -36 58 -71 71c-37 14 -67 27 -105 45c-66 31 -105 77 -105 139c0 88 63 142 158 142c53 0 92 -24 124 -24c12 0 22 5 27 13h30v-149h-32c0 29 -68 116 -154 116c-44 0 -67 -21 -67 -54c0 -35 36 -51 72 -67
s64 -28 102 -43c59 -23 113 -74 113 -146c0 -91 -67 -147 -169 -147c-60 0 -110 28 -141 28c-12 0 -24 -8 -31 -17h-30v166zM262 537h-96l-94 176h45l97 -99l97 99h45z" />
    <glyph glyph-name="uni0162" unicode="&#x162;" horiz-adv-x="729" 
d="M307 -95l39 95h-167v37h49c11 0 55 46 55 60v582h-97c-25 0 -115 -169 -127 -189h-39l9 249c58 -10 134 -11 157 -11h357c23 0 97 1 157 11l9 -249h-39c-12 20 -102 189 -127 189h-99v-582c0 -14 43 -60 54 -60h49v-37h-136l-70 -85c17 11 34 16 53 16
c44 0 73 -26 73 -71c0 -56 -46 -89 -106 -89c-56 0 -82 26 -97 47l28 27c11 -17 30 -32 59 -32c31 0 51 14 51 40c0 27 -17 38 -41 38c-8 0 -17 -2 -26 -6z" />
    <glyph glyph-name="uni0163" unicode="&#x163;" horiz-adv-x="371" 
d="M136 -83l31 77c-47 12 -79 49 -79 106v326h-73v36c64 43 120 94 166 149h32v-132h132v-53h-129v-311c0 -28 19 -45 46 -45c25 0 57 13 77 28l22 -31c-19 -20 -80 -69 -139 -77l-52 -63c17 11 34 16 53 16c44 0 73 -26 73 -71c0 -56 -46 -89 -106 -89c-56 0 -82 26 -97 47
l28 27c11 -17 30 -32 59 -32c31 0 51 14 51 40c0 27 -17 38 -41 38c-8 0 -17 -2 -26 -6z" />
    <glyph glyph-name="Tcaron" unicode="&#x164;" horiz-adv-x="729" 
d="M543 679h-99v-582c0 -14 43 -60 54 -60h49v-37h-368v37h49c11 0 55 46 55 60v582h-97c-25 0 -115 -169 -127 -189h-39l9 249c58 -10 134 -11 157 -11h357c23 0 97 1 157 11l9 -249h-39c-12 20 -102 189 -127 189zM411 777h-96l-99 157h50l97 -79l97 79h50z" />
    <glyph glyph-name="tcaron" unicode="&#x165;" horiz-adv-x="390" 
d="M216 426v-311c0 -28 19 -45 46 -45c25 0 57 13 77 28l22 -31c-21 -22 -91 -78 -155 -78c-67 0 -118 40 -118 111v326h-73v36c64 43 120 94 166 149h32v-132h132v-53h-129zM384 702c5 -109 -45 -149 -125 -153v36c43 2 78 21 78 60h-28c-27 6 -49 25 -49 59
c0 35 25 59 62 59c36 0 60 -24 62 -61z" />
    <glyph glyph-name="Tbar" unicode="&#x166;" horiz-adv-x="729" 
d="M543 679h-99v-298h132v-48h-132v-236c0 -14 43 -60 54 -60h49v-37h-368v37h49c11 0 55 46 55 60v236h-131v48h131v298h-97c-25 0 -115 -169 -127 -189h-39l9 249c58 -10 134 -11 157 -11h357c23 0 97 1 157 11l9 -249h-39c-12 20 -102 189 -127 189z" />
    <glyph glyph-name="tbar" unicode="&#x167;" horiz-adv-x="371" 
d="M216 426v-118h129v-56h-129v-137c0 -28 19 -45 46 -45c25 0 57 13 77 28l22 -31c-21 -22 -91 -78 -155 -78c-67 0 -118 40 -118 111v152h-73v56h73v118h-73v36c64 43 120 94 166 149h32v-132h132v-53h-129z" />
    <glyph glyph-name="Utilde" unicode="&#x168;" horiz-adv-x="775" 
d="M248 627v-383c0 -117 61 -188 187 -188c121 0 180 72 180 187v384c0 15 -47 65 -61 65h-40v36h246v-36h-30c-14 0 -56 -45 -56 -60v-388c0 -163 -103 -256 -275 -256c-169 0 -298 92 -298 256v388c0 15 -42 60 -56 60h-30v36h334v-36h-40c-14 0 -61 -50 -61 -65zM586 815
l-25 -20c-8 20 -18 38 -53 38c-47 0 -92 -48 -149 -48c-51 0 -84 35 -88 94l25 20c8 -20 18 -38 53 -38c47 0 92 48 149 48c51 0 84 -35 88 -94z" />
    <glyph glyph-name="utilde" unicode="&#x169;" horiz-adv-x="609" 
d="M208 479v-336c0 -39 21 -64 57 -64c49 0 128 59 128 90v219c0 16 -37 55 -50 55h-25v36h204l-1 -388c0 -16 39 -55 53 -55h20v-36h-183l-17 97c-41 -46 -95 -108 -179 -108c-78 0 -135 67 -135 142v257c0 16 -37 55 -50 55h-20v36h198zM446 583l-29 -21
c-8 23 -15 43 -47 43c-52 0 -81 -50 -143 -50c-63 0 -86 41 -89 104l28 21c6 -23 14 -44 47 -44c63 0 82 50 143 50s88 -41 90 -103z" />
    <glyph glyph-name="Umacron" unicode="&#x16a;" horiz-adv-x="775" 
d="M248 627v-383c0 -117 61 -188 187 -188c121 0 180 72 180 187v384c0 15 -47 65 -61 65h-40v36h246v-36h-30c-14 0 -56 -45 -56 -60v-388c0 -163 -103 -256 -275 -256c-169 0 -298 92 -298 256v388c0 15 -42 60 -56 60h-30v36h334v-36h-40c-14 0 -61 -50 -61 -65zM296 881
h273v-81h-273v81z" />
    <glyph glyph-name="umacron" unicode="&#x16b;" horiz-adv-x="609" 
d="M208 479v-336c0 -39 21 -64 57 -64c49 0 128 59 128 90v219c0 16 -37 55 -50 55h-25v36h204l-1 -388c0 -16 39 -55 53 -55h20v-36h-183l-17 97c-41 -46 -95 -108 -179 -108c-78 0 -135 67 -135 142v257c0 16 -37 55 -50 55h-20v36h198zM152 654h284v-81h-284v81z" />
    <glyph glyph-name="Ubreve" unicode="&#x16c;" horiz-adv-x="775" 
d="M248 627v-383c0 -117 61 -188 187 -188c121 0 180 72 180 187v384c0 15 -47 65 -61 65h-40v36h246v-36h-30c-14 0 -56 -45 -56 -60v-388c0 -163 -103 -256 -275 -256c-169 0 -298 92 -298 256v388c0 15 -42 60 -56 60h-30v36h334v-36h-40c-14 0 -61 -50 -61 -65zM433 776
c-101 0 -155 64 -152 145l36 6c2 -51 54 -69 114 -69c61 0 115 17 116 69l36 -6c3 -81 -50 -145 -150 -145z" />
    <glyph glyph-name="ubreve" unicode="&#x16d;" horiz-adv-x="609" 
d="M208 479v-336c0 -39 21 -64 57 -64c49 0 128 59 128 90v219c0 16 -37 55 -50 55h-25v36h204l-1 -388c0 -16 39 -55 53 -55h20v-36h-183l-17 97c-41 -46 -95 -108 -179 -108c-78 0 -135 67 -135 142v257c0 16 -37 55 -50 55h-20v36h198zM302 620c70 0 111 27 113 77l35 -6
c0 -88 -35 -152 -148 -152s-148 64 -148 152l35 6c2 -50 43 -77 113 -77z" />
    <glyph glyph-name="Uring" unicode="&#x16e;" horiz-adv-x="775" 
d="M248 627v-383c0 -117 61 -188 187 -188c121 0 180 72 180 187v384c0 15 -47 65 -61 65h-40v36h246v-36h-30c-14 0 -56 -45 -56 -60v-388c0 -163 -103 -256 -275 -256c-169 0 -298 92 -298 256v388c0 15 -42 60 -56 60h-30v36h334v-36h-40c-14 0 -61 -50 -61 -65zM321 865
c0 66 51 107 111 107s110 -41 110 -107s-50 -107 -110 -107s-111 41 -111 107zM375 865c0 -34 23 -56 57 -56c33 0 56 22 56 56c0 33 -23 55 -56 55c-34 0 -57 -22 -57 -55z" />
    <glyph glyph-name="uring" unicode="&#x16f;" horiz-adv-x="609" 
d="M208 479v-336c0 -39 21 -64 57 -64c49 0 128 59 128 90v219c0 16 -37 55 -50 55h-25v36h204l-1 -388c0 -16 39 -55 53 -55h20v-36h-183l-17 97c-41 -46 -95 -108 -179 -108c-78 0 -135 67 -135 142v257c0 16 -37 55 -50 55h-20v36h198zM187 636c0 62 47 102 107 102
s106 -40 106 -102s-46 -102 -106 -102s-107 40 -107 102zM239 636c0 -35 25 -53 55 -53c29 0 54 19 54 53s-24 54 -54 54s-55 -20 -55 -54z" />
    <glyph glyph-name="Uhungarumlaut" unicode="&#x170;" horiz-adv-x="775" 
d="M248 627v-383c0 -117 61 -188 187 -188c121 0 180 72 180 187v384c0 15 -47 65 -61 65h-40v36h246v-36h-30c-14 0 -56 -45 -56 -60v-388c0 -163 -103 -256 -275 -256c-169 0 -298 92 -298 256v388c0 15 -42 60 -56 60h-30v36h334v-36h-40c-14 0 -61 -50 -61 -65zM542 917
h152l-159 -140h-48zM362 917h148l-157 -140h-46z" />
    <glyph glyph-name="uhungarumlaut" unicode="&#x171;" horiz-adv-x="609" 
d="M208 479v-336c0 -39 21 -64 57 -64c49 0 128 59 128 90v219c0 16 -37 55 -50 55h-25v36h204l-1 -388c0 -16 39 -55 53 -55h20v-36h-183l-17 97c-41 -46 -95 -108 -179 -108c-78 0 -135 67 -135 142v257c0 16 -37 55 -50 55h-20v36h198zM410 713h141l-177 -176h-44z
M236 713h137l-165 -176h-42z" />
    <glyph glyph-name="Uogonek" unicode="&#x172;" horiz-adv-x="775" 
d="M248 627v-383c0 -117 61 -188 187 -188c121 0 180 72 180 187v384c0 15 -47 65 -61 65h-40v36h246v-36h-30c-14 0 -56 -45 -56 -60v-388c0 -129 -65 -214 -177 -244h1c-23 -24 -75 -77 -75 -117c0 -23 16 -39 40 -39c22 0 39 19 50 32l26 -23c-29 -38 -59 -70 -111 -70
c-56 0 -83 32 -83 76c0 55 60 106 95 131c-13 -1 -27 -2 -41 -2c-169 0 -298 92 -298 256v388c0 15 -42 60 -56 60h-30v36h334v-36h-40c-14 0 -61 -50 -61 -65z" />
    <glyph glyph-name="uogonek" unicode="&#x173;" horiz-adv-x="609" 
d="M208 479v-336c0 -39 21 -64 57 -64c49 0 128 59 128 90v219c0 16 -37 55 -50 55h-25v36h204l-1 -388c0 -16 39 -55 53 -55h20v-36h-183l-17 97c-41 -46 -95 -108 -179 -108c-78 0 -135 67 -135 142v257c0 16 -37 55 -50 55h-20v36h198zM509 0h43
c-23 -24 -75 -77 -75 -117c0 -23 16 -39 40 -39c22 0 39 19 50 32l26 -23c-29 -38 -59 -70 -111 -70c-56 0 -83 32 -83 76c0 64 83 123 110 141z" />
    <glyph glyph-name="Wcircumflex" unicode="&#x174;" horiz-adv-x="1063" 
d="M960 625l-178 -596l-62 -41l-190 542l-174 -501l-61 -41l-196 638c-12 16 -61 65 -75 65h-14v37h340v-37h-35c-15 -1 -54 -48 -54 -65l103 -380l127 355l121 140l178 -496l105 380c-3 17 -37 66 -52 66h-34v37h244v-37h-13c-14 -1 -69 -48 -80 -66zM527 934h96l99 -157
h-50l-97 79l-97 -79h-50z" />
    <glyph glyph-name="wcircumflex" unicode="&#x175;" horiz-adv-x="774" 
d="M573 181l74 204c-1 16 -21 58 -34 58h-35v36h196v-36h-20c-11 0 -46 -42 -55 -58l-140 -363l-47 -33l-124 334l-122 -301l-47 -33l-145 395c-9 16 -43 59 -54 59h-20v36h276v-36h-32c-13 0 -34 -40 -35 -57l66 -206l87 218l87 81zM384 713h86l94 -176h-45l-92 91l-92 -91
h-45z" />
    <glyph glyph-name="Ycircumflex" unicode="&#x176;" horiz-adv-x="695" 
d="M277 101v250l-181 275c-12 16 -63 65 -77 65h-14v37h348v-37h-35c-15 -1 -54 -48 -54 -65l133 -220l133 219c-3 17 -37 66 -52 66h-34v37h246v-37h-13c-14 -1 -69 -48 -80 -66l-173 -273v-251c0 -16 46 -65 60 -65h30v-36h-327v36h30c14 0 60 49 60 65zM345 934h96
l99 -157h-50l-97 79l-97 -79h-50z" />
    <glyph glyph-name="ycircumflex" unicode="&#x177;" horiz-adv-x="552" 
d="M78 384l179 -348l-134 -252l57 -27l128 265l171 364c10 16 47 57 58 57h15v36h-197v-36h25c13 0 43 -38 42 -57l-100 -221l-101 221c0 18 29 57 42 57h25v36h-288v-36h14c12 0 56 -44 64 -59zM277 713h86l94 -176h-45l-92 91l-92 -91h-45z" />
    <glyph glyph-name="Ydieresis" unicode="&#x178;" horiz-adv-x="695" 
d="M277 101v250l-181 275c-12 16 -63 65 -77 65h-14v37h348v-37h-35c-15 -1 -54 -48 -54 -65l133 -220l133 219c-3 17 -37 66 -52 66h-34v37h246v-37h-13c-14 -1 -69 -48 -80 -66l-173 -273v-251c0 -16 46 -65 60 -65h30v-36h-327v36h30c14 0 60 49 60 65zM566 840
c0 -40 -30 -69 -69 -69s-71 29 -71 69s32 69 71 69s69 -29 69 -69zM361 840c0 -40 -31 -69 -70 -69s-70 29 -70 69s31 69 70 69s70 -29 70 -69z" />
    <glyph glyph-name="Zacute" unicode="&#x179;" horiz-adv-x="644" 
d="M434 679h-210c-20 0 -138 -146 -138 -163h-39l19 212h563l-437 -677h182c37 0 202 182 202 200h43l-31 -251h-557l-11 41zM349 917h165l-192 -140h-48z" />
    <glyph glyph-name="zacute" unicode="&#x17a;" horiz-adv-x="473" 
d="M20 36l277 403h-139c-18 0 -85 -92 -85 -111h-31l15 151h399l-290 -434h128c32 0 116 110 117 128h31l-15 -173h-396zM280 713h156l-194 -176h-41z" />
    <glyph glyph-name="Zdotaccent" unicode="&#x17b;" horiz-adv-x="644" 
d="M434 679h-210c-20 0 -138 -146 -138 -163h-39l19 212h563l-437 -677h182c37 0 202 182 202 200h43l-31 -251h-557l-11 41zM414 848c0 -45 -33 -77 -78 -77c-44 0 -78 32 -78 77s34 77 78 77c45 0 78 -32 78 -77z" />
    <glyph glyph-name="zdotaccent" unicode="&#x17c;" horiz-adv-x="473" 
d="M20 36l277 403h-139c-18 0 -85 -92 -85 -111h-31l15 151h399l-290 -434h128c32 0 116 110 117 128h31l-15 -173h-396zM177 637c0 44 31 72 73 72s72 -28 72 -72s-30 -73 -72 -73s-73 29 -73 73z" />
    <glyph glyph-name="Zcaron" unicode="&#x17d;" horiz-adv-x="644" 
d="M434 679h-210c-20 0 -138 -146 -138 -163h-39l19 212h563l-437 -677h182c37 0 202 182 202 200h43l-31 -251h-557l-11 41zM397 777h-96l-99 157h50l97 -79l97 79h50z" />
    <glyph glyph-name="zcaron" unicode="&#x17e;" horiz-adv-x="473" 
d="M20 36l277 403h-139c-18 0 -85 -92 -85 -111h-31l15 151h399l-290 -434h128c32 0 116 110 117 128h31l-15 -173h-396zM299 537h-96l-94 176h45l97 -99l97 99h45z" />
    <glyph glyph-name="florin" unicode="&#x192;" horiz-adv-x="500" 
d="M312 426l-13 -655h-106l-10 655h-123v53h123v114c0 127 70 178 164 178c50 0 85 -29 85 -71c0 -37 -24 -63 -66 -63c-48 0 -73 38 -71 84c-32 -6 -53 -38 -53 -71c0 -68 68 -105 68 -160v-11h140v-53h-138z" />
    <glyph glyph-name="Aringacute" unicode="&#x1fa;" horiz-adv-x="756" 
d="M490 102l-44 123h-232l-48 -122c3 -17 35 -66 50 -66h34v-37h-240v37h13c14 1 69 48 80 66l245 603l60 35l249 -639c12 -16 61 -65 75 -65h14v-37h-345v37h35c15 1 54 48 54 65zM272 864c0 66 51 107 111 107s110 -41 110 -107s-50 -107 -110 -107s-111 41 -111 107z
M337 537l-101 -255h190zM421 1134h165l-192 -140h-48zM326 864c0 -34 23 -56 57 -56c33 0 56 22 56 56c0 33 -23 55 -56 55c-34 0 -57 -22 -57 -55z" />
    <glyph glyph-name="aringacute" unicode="&#x1fb;" horiz-adv-x="515" 
d="M322 0l-8 77c-23 -31 -83 -87 -142 -87c-79 0 -138 55 -138 132c0 95 94 130 171 146l101 20l1 57c1 61 -35 92 -104 92c-70 0 -104 -39 -81 -123h-37l-60 86c31 38 96 90 208 90c115 0 199 -52 199 -147v-252c0 -16 39 -55 53 -55h20v-36h-183zM132 624
c0 62 47 102 107 102s106 -40 106 -102s-46 -102 -106 -102s-107 40 -107 102zM307 138v109l-90 -24c-47 -13 -77 -41 -77 -87c0 -41 28 -70 72 -70c38 0 77 40 95 72zM272 935h156l-194 -176h-41zM184 624c0 -35 25 -53 55 -53c29 0 54 19 54 53s-24 54 -54 54
s-55 -20 -55 -54z" />
    <glyph glyph-name="AEacute" unicode="&#x1fc;" horiz-adv-x="1019" 
d="M955 0h-561v37h35c15 1 54 48 54 65l-42 123h-228l-47 -122c3 -17 35 -66 50 -66h34v-37h-240v37h13c14 1 69 48 80 66l237 588l60 37h529v-206h-37c0 20 -106 158 -123 158h-321c-6 0 -17 -13 -17 -19l99 -259h189l107 98h4v-248h-4l-107 102h-170l109 -283
c0 -6 18 -21 23 -21h87c38 0 191 161 191 183h40zM335 538l-100 -256h187zM666 917h165l-192 -140h-48z" />
    <glyph glyph-name="aeacute" unicode="&#x1fd;" horiz-adv-x="770" 
d="M327 0l-9 82c-29 -41 -83 -92 -146 -92c-79 0 -138 55 -138 132c0 95 94 131 171 146l102 20l1 58c1 61 -36 92 -105 92c-70 0 -104 -40 -81 -124h-37l-60 86c31 38 96 90 208 90c69 0 122 -21 153 -58c39 36 90 58 154 58c127 0 181 -97 188 -176l3 -36l-302 -21
c2 -86 56 -174 149 -174c77 0 109 32 140 86h37c-36 -110 -103 -180 -215 -180c-40 0 -73 8 -103 21zM308 138v108l-91 -23c-48 -12 -77 -41 -77 -87c0 -42 27 -70 71 -70c39 0 79 40 97 72zM427 299l186 15c9 68 -4 131 -76 131c-85 0 -112 -75 -110 -146zM445 713h156
l-194 -176h-41z" />
    <glyph glyph-name="Oslashacute" unicode="&#x1fe;" horiz-adv-x="816" 
d="M411 -13c-78 0 -149 21 -208 58l-64 -84l-52 39l64 84c-75 67 -121 165 -121 278c0 213 153 379 375 379c78 0 148 -21 207 -57l64 84l52 -40l-64 -83c76 -69 122 -169 122 -282c0 -212 -159 -376 -375 -376zM189 241c3 -30 11 -56 22 -79l356 464c-40 40 -99 62 -167 62
c-129 0 -198 -80 -211 -198c-7 -65 -7 -185 0 -249zM418 46c129 0 197 77 211 195c8 65 7 185 0 249c-4 29 -11 56 -23 79l-355 -462c41 -39 98 -61 167 -61zM457 917h165l-192 -140h-48z" />
    <glyph glyph-name="oslashacute" unicode="&#x1ff;" horiz-adv-x="563" 
d="M283 -12c-51 0 -101 16 -143 44l-37 -42l-37 32l36 40c-44 44 -72 105 -72 178c0 159 122 251 253 251c55 0 108 -18 152 -51l43 50l38 -33l-45 -50c38 -43 62 -100 62 -167c0 -159 -119 -252 -250 -252zM284 443c-73 0 -112 -45 -120 -121c-6 -54 -8 -132 3 -185
l218 247c-19 37 -52 59 -101 59zM284 43c74 0 109 44 118 120c7 58 6 111 0 165l-213 -241c20 -28 51 -44 95 -44zM343 713h156l-194 -176h-41z" />
    <glyph glyph-name="uni0218" unicode="&#x218;" horiz-adv-x="598" 
d="M509 728v-225h-39c-1 36 -97 187 -206 187c-73 0 -113 -34 -113 -94c0 -47 48 -87 86 -106c56 -28 117 -56 178 -81c93 -38 148 -106 148 -203c0 -131 -100 -218 -237 -218c-77 0 -126 37 -186 37c-23 0 -42 -7 -54 -25h-37v236h39c1 -39 119 -192 239 -192
c75 0 125 31 125 97c0 64 -53 93 -96 111c-63 26 -120 54 -179 86c-84 45 -137 107 -137 198c0 119 89 205 222 205c67 0 106 -31 161 -31c18 0 40 3 50 18h36zM370 -100c5 -109 -45 -149 -125 -153v36c43 2 78 21 78 60h-28c-27 6 -49 25 -49 59c0 35 25 59 62 59
c36 0 60 -24 62 -61z" />
    <glyph glyph-name="uni0219" unicode="&#x219;" horiz-adv-x="433" 
d="M37 166h32c0 -32 76 -127 174 -127c44 0 73 19 73 54c0 37 -36 58 -71 71c-37 14 -67 27 -105 45c-66 31 -105 77 -105 139c0 88 63 142 158 142c53 0 92 -24 124 -24c12 0 22 5 27 13h30v-149h-32c0 29 -68 116 -154 116c-44 0 -67 -21 -67 -54c0 -35 36 -51 72 -67
s64 -28 102 -43c59 -23 113 -74 113 -146c0 -91 -67 -147 -169 -147c-60 0 -110 28 -141 28c-12 0 -24 -8 -31 -17h-30v166zM276 -100c5 -109 -45 -149 -125 -153v36c43 2 78 21 78 60h-28c-27 6 -49 25 -49 59c0 35 25 59 62 59c36 0 60 -24 62 -61z" />
    <glyph glyph-name="uni021A" unicode="&#x21a;" horiz-adv-x="729" 
d="M543 679h-99v-582c0 -14 43 -60 54 -60h49v-37h-368v37h49c11 0 55 46 55 60v582h-97c-25 0 -115 -169 -127 -189h-39l9 249c58 -10 134 -11 157 -11h357c23 0 97 1 157 11l9 -249h-39c-12 20 -102 189 -127 189zM424 -102c5 -109 -45 -149 -125 -153v36
c43 2 78 21 78 60h-28c-27 6 -49 25 -49 59c0 35 25 59 62 59c36 0 60 -24 62 -61z" />
    <glyph glyph-name="uni021B" unicode="&#x21b;" horiz-adv-x="371" 
d="M216 426v-311c0 -28 19 -45 46 -45c25 0 57 13 77 28l22 -31c-21 -22 -91 -78 -155 -78c-67 0 -118 40 -118 111v326h-73v36c64 43 120 94 166 149h32v-132h132v-53h-129zM275 -102c5 -109 -45 -149 -125 -153v36c43 2 78 21 78 60h-28c-27 6 -49 25 -49 59
c0 35 25 59 62 59c36 0 60 -24 62 -61z" />
    <glyph glyph-name="circumflex" unicode="&#x2c6;" horiz-adv-x="500" 
d="M207 713h86l94 -176h-45l-92 91l-92 -91h-45z" />
    <glyph glyph-name="caron" unicode="&#x2c7;" horiz-adv-x="500" 
d="M298 537h-96l-94 176h45l97 -99l97 99h45z" />
    <glyph glyph-name="breve" unicode="&#x2d8;" horiz-adv-x="500" 
d="M251 620c70 0 111 27 113 77l35 -6c0 -88 -35 -152 -148 -152s-148 64 -148 152l35 6c2 -50 43 -77 113 -77z" />
    <glyph glyph-name="dotaccent" unicode="&#x2d9;" horiz-adv-x="500" 
d="M177 637c0 44 31 72 73 72s72 -28 72 -72s-30 -73 -72 -73s-73 29 -73 73z" />
    <glyph glyph-name="ring" unicode="&#x2da;" horiz-adv-x="500" 
d="M144 636c0 62 47 102 107 102s106 -40 106 -102s-46 -102 -106 -102s-107 40 -107 102zM196 636c0 -35 25 -53 55 -53c29 0 54 19 54 53s-24 54 -54 54s-55 -20 -55 -54z" />
    <glyph glyph-name="ogonek" unicode="&#x2db;" 
d="M206 0h43c-23 -24 -75 -77 -75 -117c0 -23 16 -39 40 -39c22 0 39 19 50 32l26 -23c-29 -38 -59 -70 -111 -70c-56 0 -83 32 -83 76c0 64 83 123 110 141z" />
    <glyph glyph-name="tilde" unicode="&#x2dc;" horiz-adv-x="500" 
d="M404 583l-29 -21c-8 23 -15 43 -47 43c-52 0 -81 -50 -143 -50c-63 0 -86 41 -89 104l28 21c6 -23 14 -44 47 -44c63 0 82 50 143 50s88 -41 90 -103z" />
    <glyph glyph-name="hungarumlaut" unicode="&#x2dd;" horiz-adv-x="500" 
d="M366 713h141l-177 -176h-44zM192 713h137l-165 -176h-42z" />
    <glyph glyph-name="pi" unicode="&#x3c0;" horiz-adv-x="700" 
d="M150 0v409h-93l36 70h524v-70h-68v-409h-123v409h-153v-409h-123z" />
    <glyph glyph-name="Wgrave" unicode="&#x1e80;" horiz-adv-x="1063" 
d="M960 625l-178 -596l-62 -41l-190 542l-174 -501l-61 -41l-196 638c-12 16 -61 65 -75 65h-14v37h340v-37h-35c-15 -1 -54 -48 -54 -65l103 -380l127 355l121 140l178 -496l105 380c-3 17 -37 66 -52 66h-34v37h244v-37h-13c-14 -1 -69 -48 -80 -66zM390 917h165l51 -140
h-49z" />
    <glyph glyph-name="wgrave" unicode="&#x1e81;" horiz-adv-x="774" 
d="M573 181l74 204c-1 16 -21 58 -34 58h-35v36h196v-36h-20c-11 0 -46 -42 -55 -58l-140 -363l-47 -33l-124 334l-122 -301l-47 -33l-145 395c-9 16 -43 59 -54 59h-20v36h276v-36h-32c-13 0 -34 -40 -35 -57l66 -206l87 218l87 81zM237 713h150l49 -176h-41z" />
    <glyph glyph-name="Wacute" unicode="&#x1e82;" horiz-adv-x="1063" 
d="M960 625l-178 -596l-62 -41l-190 542l-174 -501l-61 -41l-196 638c-12 16 -61 65 -75 65h-14v37h340v-37h-35c-15 -1 -54 -48 -54 -65l103 -380l127 355l121 140l178 -496l105 380c-3 17 -37 66 -52 66h-34v37h244v-37h-13c-14 -1 -69 -48 -80 -66zM613 917h165
l-192 -140h-48z" />
    <glyph glyph-name="wacute" unicode="&#x1e83;" horiz-adv-x="774" 
d="M573 181l74 204c-1 16 -21 58 -34 58h-35v36h196v-36h-20c-11 0 -46 -42 -55 -58l-140 -363l-47 -33l-124 334l-122 -301l-47 -33l-145 395c-9 16 -43 59 -54 59h-20v36h276v-36h-32c-13 0 -34 -40 -35 -57l66 -206l87 218l87 81zM476 713h156l-194 -176h-41z" />
    <glyph glyph-name="Wdieresis" unicode="&#x1e84;" horiz-adv-x="1063" 
d="M960 625l-178 -596l-62 -41l-190 542l-174 -501l-61 -41l-196 638c-12 16 -61 65 -75 65h-14v37h340v-37h-35c-15 -1 -54 -48 -54 -65l103 -380l127 355l121 140l178 -496l105 380c-3 17 -37 66 -52 66h-34v37h244v-37h-13c-14 -1 -69 -48 -80 -66zM752 840
c0 -40 -30 -69 -69 -69s-71 29 -71 69s32 69 71 69s69 -29 69 -69zM547 840c0 -40 -31 -69 -70 -69s-70 29 -70 69s31 69 70 69s70 -29 70 -69z" />
    <glyph glyph-name="wdieresis" unicode="&#x1e85;" horiz-adv-x="774" 
d="M573 181l74 204c-1 16 -21 58 -34 58h-35v36h196v-36h-20c-11 0 -46 -42 -55 -58l-140 -363l-47 -33l-124 334l-122 -301l-47 -33l-145 395c-9 16 -43 59 -54 59h-20v36h276v-36h-32c-13 0 -34 -40 -35 -57l66 -206l87 218l87 81zM582 616c0 -37 -28 -62 -63 -62
s-63 25 -63 62s28 62 63 62s63 -25 63 -62zM398 616c0 -37 -28 -62 -63 -62s-63 25 -63 62s28 62 63 62s63 -25 63 -62z" />
    <glyph glyph-name="Ygrave" unicode="&#x1ef2;" horiz-adv-x="695" 
d="M277 101v250l-181 275c-12 16 -63 65 -77 65h-14v37h348v-37h-35c-15 -1 -54 -48 -54 -65l133 -220l133 219c-3 17 -37 66 -52 66h-34v37h246v-37h-13c-14 -1 -69 -48 -80 -66l-173 -273v-251c0 -16 46 -65 60 -65h30v-36h-327v36h30c14 0 60 49 60 65zM202 917h165
l51 -140h-49z" />
    <glyph glyph-name="ygrave" unicode="&#x1ef3;" horiz-adv-x="552" 
d="M78 384l179 -348l-134 -252l57 -27l128 265l171 364c10 16 47 57 58 57h15v36h-197v-36h25c13 0 43 -38 42 -57l-100 -221l-101 221c0 18 29 57 42 57h25v36h-288v-36h14c12 0 56 -44 64 -59zM152 713h150l49 -176h-41z" />
    <glyph glyph-name="endash" unicode="&#x2013;" horiz-adv-x="610" 
d="M25 330h560v-93h-560v93z" />
    <glyph glyph-name="emdash" unicode="&#x2014;" horiz-adv-x="890" 
d="M5 330h880v-93h-880v93z" />
    <glyph glyph-name="quoteleft" unicode="&#x2018;" horiz-adv-x="250" 
d="M55 548c-6 133 60 179 160 180l10 -42c-59 2 -111 -19 -112 -71h31c32 -7 57 -29 57 -69c0 -42 -30 -70 -74 -70c-42 0 -70 28 -72 72z" />
    <glyph glyph-name="quoteright" unicode="&#x2019;" horiz-adv-x="250" 
d="M195 659c6 -133 -60 -179 -160 -180l-10 42c59 -2 111 19 112 71h-31c-32 7 -57 29 -57 69c0 42 30 70 74 70c42 0 70 -28 72 -72z" />
    <glyph glyph-name="quotesinglbase" unicode="&#x201a;" horiz-adv-x="258" 
d="M195 67c6 -133 -60 -179 -160 -180l-10 42c59 -2 111 19 112 71h-31c-32 7 -57 29 -57 69c0 42 30 70 74 70c42 0 70 -28 72 -72z" />
    <glyph glyph-name="quotedblleft" unicode="&#x201c;" horiz-adv-x="420" 
d="M228 548c-6 133 57 179 157 180l10 -41c-59 2 -111 -20 -112 -73h32c32 -7 56 -28 56 -68c0 -42 -28 -70 -72 -70c-42 0 -69 28 -71 72zM55 548c-6 133 63 179 163 180l10 -41c-59 2 -116 -20 -117 -73h32c32 -7 56 -28 56 -68c0 -42 -28 -70 -72 -70
c-42 0 -70 28 -72 72z" />
    <glyph glyph-name="quotedblright" unicode="&#x201d;" horiz-adv-x="420" 
d="M192 659c6 -133 -57 -179 -157 -180l-10 41c59 -2 111 20 112 73h-32c-32 7 -56 28 -56 68c0 42 28 70 72 70c42 0 69 -28 71 -72zM365 659c6 -133 -63 -179 -163 -180l-10 41c59 -2 116 20 117 73h-32c-32 7 -56 28 -56 68c0 42 28 70 72 70c42 0 70 -28 72 -72z" />
    <glyph glyph-name="quotedblbase" unicode="&#x201e;" horiz-adv-x="434" 
d="M195 66c6 -133 -57 -179 -157 -180l-10 41c59 -2 111 20 112 73h-32c-32 7 -56 28 -56 68c0 42 28 70 72 70c42 0 69 -28 71 -72zM368 66c6 -133 -63 -179 -163 -180l-10 41c59 -2 116 20 117 73h-32c-32 7 -56 28 -56 68c0 42 28 70 72 70c42 0 70 -28 72 -72z" />
    <glyph glyph-name="dagger" unicode="&#x2020;" horiz-adv-x="515" 
d="M58 543l182 -33l-33 218h100l-33 -218l183 33v-96l-182 32l25 -479v-99h-86v99l25 479l-181 -32v96z" />
    <glyph glyph-name="daggerdbl" unicode="&#x2021;" horiz-adv-x="515" 
d="M300 250l-25 -230l182 32v-96l-183 33l33 -218h-100l33 218l-182 -33v96l181 -32l-25 230l25 229l-181 -32v96l182 -33l-33 218h100l-33 -218l183 33v-96l-182 32z" />
    <glyph glyph-name="bullet" unicode="&#x2022;" horiz-adv-x="376" 
d="M188 527c77 0 138 -55 138 -136s-61 -136 -138 -136s-138 55 -138 136s61 136 138 136z" />
    <glyph glyph-name="ellipsis" unicode="&#x2026;" horiz-adv-x="890" 
d="M60 75c0 43 32 75 77 75s77 -32 77 -75s-32 -75 -77 -75s-77 32 -77 75zM368 75c0 43 32 75 77 75s77 -32 77 -75s-32 -75 -77 -75s-77 32 -77 75zM676 75c0 43 32 75 77 75s77 -32 77 -75s-32 -75 -77 -75s-77 32 -77 75z" />
    <glyph glyph-name="perthousand" unicode="&#x2030;" horiz-adv-x="1003" 
d="M558 728h71l-484 -728h-72zM60 567c0 94 69 166 150 166s150 -72 150 -166s-69 -166 -150 -166s-150 72 -150 166zM270 523c2 29 2 59 0 88c-4 53 -20 80 -60 80s-57 -27 -61 -80c-2 -29 -2 -59 0 -88c4 -53 21 -80 61 -80s56 27 60 80zM344 161c0 94 69 166 150 166
s150 -72 150 -166s-69 -166 -150 -166s-150 72 -150 166zM554 117c2 29 2 59 0 88c-4 53 -20 80 -60 80s-57 -27 -61 -80c-2 -29 -2 -59 0 -88c4 -53 21 -80 61 -80s56 27 60 80zM673 161c0 94 69 166 150 166s150 -72 150 -166s-69 -166 -150 -166s-150 72 -150 166z
M883 117c2 29 2 59 0 88c-4 53 -20 80 -60 80s-57 -27 -61 -80c-2 -29 -2 -59 0 -88c4 -53 21 -80 61 -80s56 27 60 80z" />
    <glyph glyph-name="guilsinglleft" unicode="&#x2039;" 
d="M164 312l176 -155v-94l-295 249l295 250v-94z" />
    <glyph glyph-name="guilsinglright" unicode="&#x203a;" horiz-adv-x="401" 
d="M60 157l177 155l-177 156v94l296 -250l-296 -249v94z" />
    <glyph glyph-name="interrobang" unicode="&#x203d;" horiz-adv-x="496" 
d="M92 292c0 52 31 86 83 114l-105 259c0 48 33 76 79 76c41 0 70 -21 79 -58c21 35 68 58 115 58c81 0 134 -55 134 -139c0 -119 -129 -177 -224 -219l8 -89c0 -50 -31 -78 -84 -78c-49 0 -85 29 -85 76zM370 587c0 42 -24 68 -66 68c-43 0 -72 -27 -69 -68l11 -145
c64 33 124 85 124 145zM218 296l-22 59c-29 -16 -49 -35 -49 -59c0 -20 13 -34 36 -34s35 14 35 34zM124 75c0 -43 32 -75 77 -75s77 32 77 75s-32 75 -77 75s-77 -32 -77 -75z" />
    <glyph glyph-name="fraction" unicode="&#x2044;" horiz-adv-x="610" 
d="M510 728h75l-486 -728h-74z" />
    <glyph glyph-name="zero.sups" unicode="&#x2070;" 
d="M124 790c-2 -33 -2 -90 0 -124c3 -65 30 -97 76 -97s73 32 76 97c2 34 2 91 0 124c-3 65 -30 97 -76 97s-73 -32 -76 -97zM31 728c0 114 71 203 169 203s169 -89 169 -203s-71 -203 -169 -203s-169 89 -169 203z" />
    <glyph glyph-name="four.sups" unicode="&#x2074;" 
d="M196 596v29h-170v36c103 128 188 251 188 251l73 21v-263h54v-45h-54v-29c0 -10 21 -33 30 -33h16v-30h-181v30h14c7 0 30 23 30 33zM196 668v158s-56 -85 -116 -158h116z" />
    <glyph glyph-name="five.sups" unicode="&#x2075;" 
d="M299 924l17 -66h-195l-19 -94c33 24 67 48 118 48c73 0 117 -40 117 -107c0 -117 -156 -182 -267 -184l-4 39c89 5 188 51 188 130c0 43 -22 68 -70 68c-35 0 -69 -21 -96 -38l-27 15l32 189h206z" />
    <glyph glyph-name="six.sups" unicode="&#x2076;" 
d="M292 931l9 -37c-7 1 -14 1 -21 1c-104 0 -161 -79 -160 -156c25 37 56 58 103 58c77 0 127 -58 127 -133c0 -84 -62 -141 -140 -141c-106 0 -165 92 -165 184c0 143 96 225 223 225c8 0 16 0 24 -1zM130 672c0 -57 25 -103 77 -103c49 0 64 39 64 76
c0 66 -30 102 -76 102c-45 0 -65 -38 -65 -75z" />
    <glyph glyph-name="seven.sups" unicode="&#x2077;" 
d="M184 533h-112c74 171 194 308 211 325h-236l18 66h282l15 -24l-32 -42c-86 -112 -138 -280 -146 -325z" />
    <glyph glyph-name="eight.sups" unicode="&#x2078;" 
d="M287 614c0 46 -71 59 -119 87c-34 -15 -64 -36 -64 -77c0 -37 47 -57 92 -57c55 0 91 17 91 47zM225 774c26 13 50 32 50 58c0 39 -33 63 -83 63c-37 0 -64 -20 -64 -46c0 -34 44 -53 97 -75zM137 726c-51 23 -82 60 -82 103c0 64 69 103 144 103c71 0 140 -35 140 -96
c0 -44 -45 -69 -80 -82c52 -22 103 -52 103 -115c0 -68 -73 -115 -171 -115c-72 0 -154 30 -154 98c0 56 61 90 100 104z" />
    <glyph glyph-name="nine.sups" unicode="&#x2079;" 
d="M97 524l-9 37c7 -1 14 -1 21 -1c104 0 161 79 160 156c-25 -37 -56 -53 -103 -53c-77 0 -127 53 -127 128c0 84 62 141 140 141c106 0 165 -92 165 -184c0 -143 -96 -225 -223 -225c-8 0 -16 0 -24 1zM259 788c0 57 -25 103 -77 103c-49 0 -64 -38 -64 -75
c0 -66 29 -100 75 -100c44 0 66 35 66 72z" />
    <glyph glyph-name="zero.sinf" unicode="&#x2080;" 
d="M124 62c-2 -33 -2 -90 0 -124c3 -65 30 -97 76 -97s73 32 76 97c2 34 2 91 0 124c-3 65 -30 97 -76 97s-73 -32 -76 -97zM31 0c0 114 71 203 169 203s169 -89 169 -203s-71 -203 -169 -203s-169 89 -169 203z" />
    <glyph glyph-name="one.sinf" unicode="&#x2081;" horiz-adv-x="392" 
d="M247 198v-325c0 -10 22 -33 29 -33h35v-35h-222v35h34c7 0 30 23 30 33v191c0 9 -18 27 -25 27h-42v28c80 29 158 79 158 79h3z" />
    <glyph glyph-name="two.sinf" unicode="&#x2082;" 
d="M108 -129h231l-26 -66h-261v33c13 57 67 102 150 166c26 20 45 44 45 76c0 41 -26 66 -69 66c-41 0 -72 -26 -94 -54l-29 23c31 44 78 89 148 89c81 0 129 -41 129 -114c0 -75 -60 -111 -100 -133s-95 -45 -124 -86z" />
    <glyph glyph-name="three.sinf" unicode="&#x2083;" 
d="M124 5v32l57 19c26 16 36 26 36 51c0 28 -21 44 -49 44c-29 0 -66 -19 -93 -39l-19 29c42 32 100 64 156 64c48 0 85 -24 85 -73c0 -46 -39 -72 -75 -87c43 0 107 -12 107 -82c0 -109 -178 -166 -245 -169l-9 39c42 6 161 35 161 116c0 57 -55 62 -112 56z" />
    <glyph glyph-name="four.sinf" unicode="&#x2084;" 
d="M197 -132v29h-170v36c103 128 188 251 188 251l73 21v-263h54v-45h-54v-29c0 -10 21 -33 30 -33h16v-30h-181v30h14c7 0 30 23 30 33zM197 -60v158s-56 -85 -116 -158h116z" />
    <glyph glyph-name="five.sinf" unicode="&#x2085;" 
d="M299 196l17 -66h-195l-19 -94c33 24 67 48 118 48c73 0 117 -40 117 -107c0 -117 -156 -182 -267 -184l-4 39c89 5 188 51 188 130c0 43 -22 68 -70 68c-35 0 -69 -21 -96 -38l-27 15l32 189h206z" />
    <glyph glyph-name="six.sinf" unicode="&#x2086;" 
d="M292 203l9 -37c-7 1 -14 1 -21 1c-104 0 -161 -79 -160 -156c25 37 56 58 103 58c77 0 127 -58 127 -133c0 -84 -62 -141 -140 -141c-106 0 -165 92 -165 184c0 143 96 225 223 225c8 0 16 0 24 -1zM130 -56c0 -57 25 -103 77 -103c49 0 64 39 64 76
c0 66 -30 102 -76 102c-45 0 -65 -38 -65 -75z" />
    <glyph glyph-name="seven.sinf" unicode="&#x2087;" 
d="M182 -195h-112c74 171 194 308 211 325h-236l18 66h282l15 -24l-32 -42c-86 -112 -138 -280 -146 -325z" />
    <glyph glyph-name="eight.sinf" unicode="&#x2088;" 
d="M287 -113c0 46 -71 59 -119 87c-34 -15 -64 -36 -64 -77c0 -37 47 -57 92 -57c55 0 91 17 91 47zM225 47c26 13 50 32 50 58c0 39 -33 63 -83 63c-37 0 -64 -20 -64 -46c0 -34 44 -53 97 -75zM137 -1c-51 23 -82 60 -82 103c0 64 69 103 144 103c71 0 140 -35 140 -96
c0 -44 -45 -69 -80 -82c52 -22 103 -52 103 -115c0 -68 -73 -115 -171 -115c-72 0 -154 30 -154 98c0 56 61 90 100 104z" />
    <glyph glyph-name="nine.sinf" unicode="&#x2089;" 
d="M97 -203l-9 37c7 -1 14 -1 21 -1c104 0 161 79 160 156c-25 -37 -56 -53 -103 -53c-77 0 -127 53 -127 128c0 84 62 141 140 141c106 0 165 -92 165 -184c0 -143 -96 -225 -223 -225c-8 0 -16 0 -24 1zM259 61c0 57 -25 103 -77 103c-49 0 -64 -38 -64 -75
c0 -66 29 -100 75 -100c44 0 66 35 66 72z" />
    <glyph glyph-name="Euro" unicode="&#x20ac;" horiz-adv-x="655" 
d="M373 691c-93 0 -161 -58 -161 -229v-23h231v-47h-232v-45h232v-47h-231v-25c0 -144 64 -224 178 -224c98 0 151 55 176 138h59c-37 -105 -102 -200 -254 -200c-167 0 -273 139 -297 311h-54v47h53v45h-53v47h54c25 177 119 302 288 302c78 0 117 -31 166 -31
c19 0 30 5 40 18h41v-238h-43c0 43 -62 201 -193 201z" />
    <glyph glyph-name="trademark" unicode="&#x2122;" horiz-adv-x="990" 
d="M263 698v-322c0 -8 20 -34 27 -34h18v-29h-190v29h20c6 0 31 26 31 34v322h-40c-12 0 -81 -105 -81 -116h-23l8 149s36 -3 96 -3h175c64 0 97 3 97 3l7 -149h-23c0 11 -71 116 -81 116h-41zM663 301l-145 339v-264c0 -8 24 -34 30 -34h20v-29h-139v29h19c6 0 29 26 29 34
v290c0 9 -24 34 -30 34h-14l-1 28h152l109 -261l107 261h145v-28h-18c-7 0 -31 -26 -31 -34v-290c0 -8 23 -34 30 -34h19v-29h-188v29h19c7 0 30 26 30 34v265z" />
    <glyph glyph-name="uni2126" unicode="&#x2126;" horiz-adv-x="700" 
d="M350 689c-98 0 -171 -51 -183 -177c-6 -61 -5 -147 3 -209c15 -120 110 -187 150 -212v-91h-210l-34 100h182c-88 47 -211 141 -211 318c0 191 128 318 303 318s303 -127 303 -318c0 -177 -126 -272 -211 -318h183l-35 -100h-210v91c47 27 135 92 150 212
c8 62 9 147 3 209c-12 126 -85 177 -183 177z" />
    <glyph glyph-name="partialdiff" unicode="&#x2202;" horiz-adv-x="700" 
d="M320 685c-106 0 -135 -88 -135 -128h-37v149c41 21 92 35 184 35c177 0 259 -151 259 -347c0 -201 -115 -405 -289 -405c-129 0 -212 89 -212 225c0 135 87 276 234 276c80 0 129 -39 157 -113c23 165 -34 308 -161 308zM452 298c0 69 -30 120 -107 120
c-98 0 -155 -125 -155 -250c0 -71 32 -119 105 -119c87 0 157 121 157 249z" />
    <glyph glyph-name="uni2206" unicode="&#x2206;" horiz-adv-x="700" 
d="M33 0l264 728h106l264 -728h-634zM564 70l-214 605l-214 -605h428z" />
    <glyph glyph-name="product" unicode="&#x220f;" horiz-adv-x="700" 
d="M594 -88h-125v747h-237v-747h-125v720c0 15 -42 60 -56 60h-21v36h640v-36h-20c-14 0 -56 -45 -56 -60v-720z" />
    <glyph glyph-name="summation" unicode="&#x2211;" horiz-adv-x="700" 
d="M25 -229l284 490l-278 467h614v-70h-434l239 -397l-246 -420h441v-70h-620z" />
    <glyph glyph-name="minus" unicode="&#x2212;" horiz-adv-x="640" 
d="M48 328h544v-77h-544v77z" />
    <glyph glyph-name="radical" unicode="&#x221a;" horiz-adv-x="700" 
d="M134 315h-99v76h204l135 -457l225 794h74l-261 -897l-111 -37z" />
    <glyph glyph-name="infinity" unicode="&#x221e;" horiz-adv-x="640" 
d="M320 351c31 40 69 90 145 90c79 0 132 -58 132 -152c0 -93 -53 -151 -132 -151c-75 0 -115 51 -145 90c-30 -39 -70 -90 -145 -90c-79 0 -132 58 -132 151c0 94 53 152 132 152c76 0 114 -50 145 -90zM281 290c-24 38 -56 83 -105 83c-47 0 -71 -32 -71 -84
c0 -53 24 -81 71 -81c50 0 81 42 105 82zM359 290c24 -40 56 -82 105 -82c47 0 71 28 71 81c0 52 -24 84 -71 84c-49 0 -81 -45 -105 -83z" />
    <glyph glyph-name="integral" unicode="&#x222b;" horiz-adv-x="500" 
d="M189 164v429c0 127 67 178 161 178c50 0 85 -29 85 -71c0 -37 -24 -63 -66 -63c-48 0 -73 38 -71 84c-32 -6 -53 -38 -53 -71c0 -68 66 -193 66 -259v-442c0 -127 -68 -178 -162 -178c-50 0 -85 29 -85 71c0 37 24 63 66 63c48 0 73 -38 71 -84c32 6 53 38 53 71
c0 68 -65 199 -65 272z" />
    <glyph glyph-name="therefore" unicode="&#x2234;" horiz-adv-x="890" 
d="M60 75c0 43 32 75 77 75s77 -32 77 -75s-32 -75 -77 -75s-77 32 -77 75zM368 592c0 43 32 75 77 75s77 -32 77 -75s-32 -75 -77 -75s-77 32 -77 75zM676 75c0 43 32 75 77 75s77 -32 77 -75s-32 -75 -77 -75s-77 32 -77 75z" />
    <glyph glyph-name="because" unicode="&#x2235;" horiz-adv-x="890" 
d="M60 592c0 43 32 75 77 75s77 -32 77 -75s-32 -75 -77 -75s-77 32 -77 75zM368 75c0 43 32 75 77 75s77 -32 77 -75s-32 -75 -77 -75s-77 32 -77 75zM676 592c0 43 32 75 77 75s77 -32 77 -75s-32 -75 -77 -75s-77 32 -77 75z" />
    <glyph glyph-name="approxequal" unicode="&#x2248;" horiz-adv-x="640" 
d="M185 455c100 0 214 -65 284 -65c47 0 72 17 71 64l45 -8c1 -73 -23 -135 -130 -135c-82 0 -202 65 -284 65c-47 0 -72 -17 -71 -64l-45 8c-1 72 26 135 130 135zM185 281c100 0 214 -65 284 -65c47 0 72 17 71 64l45 -8c1 -73 -23 -135 -130 -135c-82 0 -202 65 -284 65
c-47 0 -72 -17 -71 -64l-45 8c-1 72 26 135 130 135z" />
    <glyph glyph-name="notequal" unicode="&#x2260;" horiz-adv-x="640" 
d="M48 242h195l64 95h-259v77h311l126 187h76l-126 -187h157v-77h-208l-64 -95h272v-77h-323l-111 -165h-77l111 165h-144v77z" />
    <glyph glyph-name="lessequal" unicode="&#x2264;" horiz-adv-x="640" 
d="M157 299l435 -213v-86h-539v70h371l47 -3l-423 205v55l544 271v-87z" />
    <glyph glyph-name="greaterequal" unicode="&#x2265;" horiz-adv-x="640" 
d="M48 86l435 213l-435 212v87l544 -271v-55l-423 -205l47 3h371v-70h-539v86z" />
    <glyph glyph-name="lozenge" unicode="&#x25ca;" horiz-adv-x="700" 
d="M625 364l-222 -364h-106l-222 364l222 364h106zM540 364l-190 316l-190 -316l190 -316z" />
    <glyph glyph-name="commaaccent" unicode="&#xf6c3;" horiz-adv-x="251" 
d="M187 -102c5 -109 -45 -149 -125 -153v36c43 2 78 21 78 60h-28c-27 6 -49 25 -49 59c0 35 25 59 62 59c36 0 60 -24 62 -61z" />
    <glyph glyph-name="interfinity" horiz-adv-x="448" 
d="M401 594c0 -94 -81 -146 -129 -185c36 -32 62 -62 62 -104c0 -61 -48 -90 -110 -90s-112 34 -112 92c0 47 31 89 66 123c-58 42 -116 88 -116 163c0 88 66 148 172 148c98 0 167 -57 167 -147zM121 588c0 -55 40 -93 85 -129c40 37 85 79 85 126c0 46 -32 77 -85 77
s-85 -33 -85 -74zM286 304c0 28 -21 53 -44 75c-20 -24 -40 -48 -40 -75c0 -23 18 -37 42 -37s42 14 42 37zM146 75c0 -43 32 -75 77 -75s77 32 77 75s-32 75 -77 75s-77 -32 -77 -75z" />
    <glyph glyph-name="at.case" horiz-adv-x="890" 
d="M528 200c-25 -40 -78 -90 -142 -90c-75 0 -128 53 -128 126c0 90 85 124 158 139l97 19v54c0 58 -32 87 -98 87s-94 -37 -72 -117h-35l-58 82c29 36 86 84 193 84c109 0 186 -48 186 -138v-241c0 -23 15 -38 37 -38c61 0 109 79 109 195c0 215 -122 337 -315 337
s-338 -122 -338 -348c0 -220 136 -354 355 -354c74 0 151 3 217 6l-6 -58c-59 -2 -121 -3 -212 -1c-260 6 -434 164 -434 407c0 242 190 396 420 396s388 -153 388 -384c0 -150 -102 -253 -214 -253c-63 0 -94 43 -108 90zM513 247v108l-86 -23c-44 -12 -68 -39 -68 -83
c0 -39 22 -66 64 -66c36 0 73 34 90 64z" />
    <glyph glyph-name="zero.tnum" horiz-adv-x="620" 
d="M309 741c171 0 281 -183 281 -369s-110 -385 -280 -385s-280 198 -280 375s108 379 279 379zM310 45c68 0 125 49 132 188c3 61 3 214 0 276c-6 121 -43 177 -132 177c-68 0 -127 -42 -134 -181c-3 -61 -3 -214 0 -276c6 -121 45 -184 134 -184z" />
    <glyph glyph-name="one.tnum" horiz-adv-x="620" 
d="M237 96v441c0 16 -33 48 -45 48h-45v35c81 27 143 59 226 112h5v-636c0 -16 41 -60 55 -60h45v-36h-341v36h45c14 0 55 44 55 60z" />
    <glyph glyph-name="two.tnum" horiz-adv-x="620" 
d="M167 109h368l-26 -109h-449v34c34 90 156 217 262 327c41 43 75 89 75 157c0 81 -50 130 -134 130c-81 0 -124 -49 -165 -103l-38 34c52 79 130 162 249 162c128 0 226 -72 226 -211c0 -117 -85 -183 -158 -239c-78 -61 -186 -142 -210 -182z" />
    <glyph glyph-name="three.tnum" horiz-adv-x="620" 
d="M169 376v47l105 35c43 27 70 58 70 101c0 64 -43 94 -103 94c-55 0 -121 -37 -165 -73l-33 42c57 59 159 119 263 119c91 0 172 -43 172 -136c0 -83 -72 -134 -140 -161c85 2 201 -38 201 -161c0 -215 -301 -308 -454 -308l-10 61c106 2 324 62 324 228
c0 107 -102 141 -230 112z" />
    <glyph glyph-name="four.tnum" horiz-adv-x="620" 
d="M457 186v-90c0 -16 41 -60 55 -60h35v-36h-319v36h35c14 0 55 44 55 60v90h-292v52c162 215 303 441 303 441l128 55v-477h109v-71h-109zM321 257v317c-5 -7 -93 -159 -206 -317h206z" />
    <glyph glyph-name="five.tnum" horiz-adv-x="620" 
d="M470 728l26 -108h-327l-28 -186c54 45 115 80 193 80c120 0 204 -68 204 -193c0 -216 -275 -343 -449 -346l-10 62c127 7 332 102 332 248c0 92 -50 135 -137 135c-54 0 -111 -31 -153 -61l-42 23l46 346h345z" />
    <glyph glyph-name="six.tnum" horiz-adv-x="620" 
d="M483 735l13 -59c-12 1 -23 2 -34 2c-165 0 -264 -139 -271 -278c36 51 86 86 167 86c136 0 219 -121 219 -241c0 -143 -84 -259 -231 -259c-198 0 -285 188 -285 347c0 223 153 404 377 404c15 0 30 0 45 -2zM200 261c0 -107 35 -209 137 -209c85 0 109 86 109 155
c0 96 -39 203 -135 203c-82 0 -111 -73 -111 -149z" />
    <glyph glyph-name="seven.tnum" horiz-adv-x="620" 
d="M279 0h-155c115 347 311 571 350 620h-425l26 108h470l20 -34l-45 -79c-100 -175 -219 -475 -241 -615z" />
    <glyph glyph-name="eight.tnum" horiz-adv-x="620" 
d="M459 154c0 83 -124 142 -199 176c-55 -29 -116 -63 -116 -149c0 -84 76 -134 163 -134c83 0 152 29 152 107zM354 442c43 25 83 67 83 124c0 81 -69 122 -151 122c-60 0 -99 -35 -99 -88c0 -66 81 -117 167 -158zM215 364c-69 42 -140 103 -140 194c0 110 93 182 225 182
c113 0 233 -53 233 -167c0 -85 -75 -134 -131 -158c83 -45 175 -98 174 -215c-1 -127 -121 -213 -279 -213c-116 0 -253 59 -253 189c0 109 109 162 171 188z" />
    <glyph glyph-name="nine.tnum" horiz-adv-x="620" 
d="M133 -9l-13 59c12 -1 23 -2 34 -2c165 0 264 150 270 289c-30 -47 -85 -85 -166 -85c-136 0 -219 113 -219 233c0 143 84 255 231 255c204 0 285 -182 285 -341c0 -236 -153 -410 -377 -410c-15 0 -30 0 -45 2zM416 480c0 107 -35 200 -137 200c-85 0 -109 -82 -109 -151
c0 -96 38 -193 134 -193c82 0 112 68 112 144z" />
    <glyph glyph-name="zero.onum" horiz-adv-x="571" 
d="M35 239c0 145 104 252 250 252s251 -107 251 -252s-105 -251 -251 -251s-250 106 -250 251zM106 239c0 -113 69 -173 179 -173s180 60 180 173s-70 174 -180 174s-179 -61 -179 -174z" />
    <glyph glyph-name="one.onum" horiz-adv-x="456" 
d="M51 0v36h56c14 0 55 44 55 60v287c0 15 -42 60 -56 60h-55v36h354v-36h-52c-14 0 -56 -45 -56 -60v-287c0 -16 41 -60 55 -60h53v-36h-354z" />
    <glyph glyph-name="two.onum" horiz-adv-x="536" 
d="M144 103h340l-25 -103h-411v34c24 85 108 142 225 203c46 24 89 52 89 105c0 48 -33 78 -87 78c-79 0 -125 -42 -168 -93l-38 32c51 70 124 135 238 135c100 0 169 -42 169 -140c0 -96 -92 -138 -181 -173c-80 -31 -132 -53 -151 -78z" />
    <glyph glyph-name="three.onum" horiz-adv-x="571" 
d="M156 155v46l105 35c43 23 71 52 71 91c0 60 -41 83 -101 83c-75 0 -124 -41 -168 -78l-33 42c57 59 159 119 263 119c91 0 165 -37 165 -127c0 -78 -72 -123 -134 -146c98 10 197 -30 197 -148c0 -211 -296 -307 -449 -307l-10 61c106 2 324 60 324 226
c0 107 -102 132 -230 103z" />
    <glyph glyph-name="four.onum" horiz-adv-x="610" 
d="M330 71v268s-87 -131 -209 -268h209zM462 0v-229h-136v229h-296v52c169 200 303 387 303 387l129 52v-420h108v-71h-108z" />
    <glyph glyph-name="five.onum" horiz-adv-x="553" 
d="M441 479l26 -108h-326l-28 -162c54 44 114 80 192 80c120 0 203 -60 203 -185c0 -216 -277 -336 -451 -339l-7 62c127 7 331 95 331 241c0 88 -47 128 -134 128c-54 0 -111 -31 -153 -61l-42 23l46 321h343z" />
    <glyph glyph-name="six.onum" horiz-adv-x="605" 
d="M473 728l13 -59c-12 1 -23 2 -34 2c-165 0 -264 -134 -271 -273c36 51 86 87 167 87c136 0 219 -120 219 -240c0 -143 -84 -258 -231 -258c-198 0 -285 187 -285 346c0 223 153 397 377 397c15 0 30 0 45 -2zM190 261c0 -107 35 -209 137 -209c85 0 109 86 109 155
c0 96 -39 203 -135 203c-82 0 -111 -73 -111 -149z" />
    <glyph glyph-name="seven.onum" horiz-adv-x="560" 
d="M262 -229h-145c115 347 288 551 327 600h-409l26 108h454l20 -34l-45 -79c-100 -175 -206 -455 -228 -595z" />
    <glyph glyph-name="eight.onum" horiz-adv-x="603" 
d="M450 154c0 83 -124 142 -199 176c-55 -29 -116 -63 -116 -149c0 -84 76 -134 163 -134c83 0 152 29 152 107zM345 442c43 25 83 67 83 124c0 81 -69 122 -151 122c-60 0 -99 -35 -99 -88c0 -66 81 -117 167 -158zM206 364c-69 42 -140 103 -140 194c0 110 93 182 225 182
c113 0 233 -53 233 -167c0 -85 -75 -134 -131 -158c83 -45 175 -98 174 -215c-1 -127 -121 -213 -279 -213c-116 0 -253 59 -253 189c0 109 109 162 171 188z" />
    <glyph glyph-name="nine.onum" horiz-adv-x="604" 
d="M133 -241l-13 59c12 -1 23 -2 34 -2c165 0 265 138 271 277c-30 -47 -86 -86 -167 -86c-136 0 -219 113 -219 233c0 143 84 254 231 254c204 0 285 -181 285 -340c0 -236 -153 -397 -377 -397c-15 0 -30 0 -45 2zM416 235c0 107 -35 200 -137 200
c-85 0 -109 -82 -109 -151c0 -96 38 -193 134 -193c82 0 112 68 112 144z" />
    <glyph glyph-name="zero.numr" 
d="M124 593c-2 -33 -2 -90 0 -124c3 -65 30 -97 76 -97s73 32 76 97c2 34 2 91 0 124c-3 65 -30 97 -76 97s-73 -32 -76 -97zM31 531c0 114 71 203 169 203s169 -89 169 -203s-71 -203 -169 -203s-169 89 -169 203z" />
    <glyph glyph-name="one.numr" horiz-adv-x="375" 
d="M237 730v-325c0 -10 22 -33 29 -33h35v-35h-222v35h34c7 0 30 23 30 33v191c0 9 -18 27 -25 27h-42v28c80 29 158 79 158 79h3z" />
    <glyph glyph-name="two.numr" 
d="M110 403h231l-26 -66h-261v33c13 57 67 102 150 166c26 20 45 44 45 76c0 41 -26 66 -69 66c-41 0 -72 -26 -94 -54l-29 23c31 44 78 89 148 89c81 0 129 -41 129 -114c0 -75 -60 -111 -100 -133s-95 -45 -124 -86z" />
    <glyph glyph-name="three.numr" 
d="M123 536v32l57 19c26 16 36 26 36 51c0 28 -21 44 -49 44c-29 0 -66 -19 -93 -39l-19 29c42 32 100 64 156 64c48 0 85 -24 85 -73c0 -46 -39 -72 -75 -87c43 0 107 -12 107 -82c0 -109 -178 -166 -245 -169l-9 39c42 6 161 35 161 116c0 57 -55 62 -112 56z" />
    <glyph glyph-name="four.numr" 
d="M195 400v29h-170v36c103 128 188 251 188 251l73 21v-263h54v-45h-54v-29c0 -10 21 -33 30 -33h16v-30h-181v30h14c7 0 30 23 30 33zM195 472v158s-56 -85 -116 -158h116z" />
    <glyph glyph-name="five.numr" 
d="M301 728l17 -66h-195l-19 -94c33 24 67 48 118 48c73 0 117 -40 117 -107c0 -117 -156 -182 -267 -184l-4 39c89 5 188 51 188 130c0 43 -22 68 -70 68c-35 0 -69 -21 -96 -38l-27 15l32 189h206z" />
    <glyph glyph-name="six.numr" 
d="M299 735l9 -37c-7 1 -14 1 -21 1c-104 0 -161 -79 -160 -156c25 37 56 58 103 58c77 0 127 -58 127 -133c0 -84 -62 -141 -140 -141c-106 0 -165 92 -165 184c0 143 96 225 223 225c8 0 16 0 24 -1zM137 476c0 -57 25 -103 77 -103c49 0 64 39 64 76
c0 66 -30 102 -76 102c-45 0 -65 -38 -65 -75z" />
    <glyph glyph-name="seven.numr" 
d="M192 337h-112c74 171 194 308 211 325h-236l18 66h282l15 -24l-32 -42c-86 -112 -138 -280 -146 -325z" />
    <glyph glyph-name="eight.numr" 
d="M288 418c0 46 -71 59 -119 87c-34 -15 -64 -36 -64 -77c0 -37 47 -57 92 -57c55 0 91 17 91 47zM226 578c26 13 50 32 50 58c0 39 -33 63 -83 63c-37 0 -64 -20 -64 -46c0 -34 44 -53 97 -75zM138 530c-51 23 -82 60 -82 103c0 64 69 103 144 103c71 0 140 -35 140 -96
c0 -44 -45 -69 -80 -82c52 -22 103 -52 103 -115c0 -68 -73 -115 -171 -115c-72 0 -154 30 -154 98c0 56 61 90 100 104z" />
    <glyph glyph-name="nine.numr" 
d="M101 328l-9 37c7 -1 14 -1 21 -1c104 0 161 79 160 156c-25 -37 -56 -53 -103 -53c-77 0 -127 53 -127 128c0 84 62 141 140 141c106 0 165 -92 165 -184c0 -143 -96 -225 -223 -225c-8 0 -16 0 -24 1zM263 592c0 57 -25 103 -77 103c-49 0 -64 -38 -64 -75
c0 -66 29 -100 75 -100c44 0 66 35 66 72z" />
    <glyph glyph-name="zero.dnom" 
d="M124 257c-2 -33 -2 -90 0 -124c3 -65 30 -97 76 -97s73 32 76 97c2 34 2 91 0 124c-3 65 -30 97 -76 97s-73 -32 -76 -97zM31 195c0 114 71 203 169 203s169 -89 169 -203s-71 -203 -169 -203s-169 89 -169 203z" />
    <glyph glyph-name="one.dnom" horiz-adv-x="392" 
d="M247 393v-325c0 -10 22 -33 29 -33h35v-35h-222v35h34c7 0 30 23 30 33v191c0 9 -18 27 -25 27h-42v28c80 29 158 79 158 79h3z" />
    <glyph glyph-name="two.dnom" 
d="M108 66h231l-26 -66h-261v33c13 57 67 102 150 166c26 20 45 44 45 76c0 41 -26 66 -69 66c-41 0 -72 -26 -94 -54l-29 23c31 44 78 89 148 89c81 0 129 -41 129 -114c0 -75 -60 -111 -100 -133s-95 -45 -124 -86z" />
    <glyph glyph-name="three.dnom" 
d="M124 199v32l57 19c26 16 36 26 36 51c0 28 -21 44 -49 44c-29 0 -66 -19 -93 -39l-19 29c42 32 100 64 156 64c48 0 85 -24 85 -73c0 -46 -39 -72 -75 -87c43 0 107 -12 107 -82c0 -109 -178 -166 -245 -169l-9 39c42 6 161 35 161 116c0 57 -55 62 -112 56z" />
    <glyph glyph-name="four.dnom" 
d="M196 63v29h-170v36c103 128 188 251 188 251l73 21v-263h54v-45h-54v-29c0 -10 21 -33 30 -33h16v-30h-181v30h14c7 0 30 23 30 33zM196 135v158s-56 -85 -116 -158h116z" />
    <glyph glyph-name="five.dnom" 
d="M299 391l17 -66h-195l-19 -94c33 24 67 48 118 48c73 0 117 -40 117 -107c0 -117 -156 -182 -267 -184l-4 39c89 5 188 51 188 130c0 43 -22 68 -70 68c-35 0 -69 -21 -96 -38l-27 15l32 189h206z" />
    <glyph glyph-name="six.dnom" 
d="M292 398l9 -37c-7 1 -14 1 -21 1c-104 0 -161 -79 -160 -156c25 37 56 58 103 58c77 0 127 -58 127 -133c0 -84 -62 -141 -140 -141c-106 0 -165 92 -165 184c0 143 96 225 223 225c8 0 16 0 24 -1zM130 139c0 -57 25 -103 77 -103c49 0 64 39 64 76
c0 66 -30 102 -76 102c-45 0 -65 -38 -65 -75z" />
    <glyph glyph-name="seven.dnom" 
d="M182 0h-112c74 171 194 308 211 325h-236l18 66h282l15 -24l-32 -42c-86 -112 -138 -280 -146 -325z" />
    <glyph glyph-name="eight.dnom" 
d="M287 81c0 46 -71 59 -119 87c-34 -15 -64 -36 -64 -77c0 -37 47 -57 92 -57c55 0 91 17 91 47zM225 241c26 13 50 32 50 58c0 39 -33 63 -83 63c-37 0 -64 -20 -64 -46c0 -34 44 -53 97 -75zM137 193c-51 23 -82 60 -82 103c0 64 69 103 144 103c71 0 140 -35 140 -96
c0 -44 -45 -69 -80 -82c52 -22 103 -52 103 -115c0 -68 -73 -115 -171 -115c-72 0 -154 30 -154 98c0 56 61 90 100 104z" />
    <glyph glyph-name="nine.dnom" 
d="M97 -9l-9 37c7 -1 14 -1 21 -1c104 0 161 79 160 156c-25 -37 -56 -53 -103 -53c-77 0 -127 53 -127 128c0 84 62 141 140 141c106 0 165 -92 165 -184c0 -143 -96 -225 -223 -225c-8 0 -16 0 -24 1zM259 255c0 57 -25 103 -77 103c-49 0 -64 -38 -64 -75
c0 -66 29 -100 75 -100c44 0 66 35 66 72z" />
    <glyph glyph-name="commaaccent.salt" horiz-adv-x="251" 
d="M60 611c-5 109 45 149 125 153v-36c-43 -2 -78 -21 -78 -60h28c27 -6 49 -25 49 -59c0 -35 -25 -59 -62 -59c-36 0 -60 24 -62 61z" />
    <glyph glyph-name="caron.salt" horiz-adv-x="259" 
d="M189 702c5 -109 -45 -149 -125 -153v36c43 2 78 21 78 60h-28c-27 6 -49 25 -49 59c0 35 25 59 62 59c36 0 60 -24 62 -61z" />
    <glyph glyph-name="caron.case" horiz-adv-x="500" 
d="M298 777h-96l-99 157h50l97 -79l97 79h50z" />
    <glyph glyph-name="circumflex.case" horiz-adv-x="500" 
d="M202 934h96l99 -157h-50l-97 79l-97 -79h-50z" />
    <glyph glyph-name="acute.case" horiz-adv-x="500" 
d="M290 917h165l-192 -140h-48z" />
    <glyph glyph-name="grave.case" horiz-adv-x="500" 
d="M80 917h165l51 -140h-49z" />
    <glyph glyph-name="macron.case" horiz-adv-x="500" 
d="M114 881h273v-81h-273v81z" />
    <glyph glyph-name="breve.case" horiz-adv-x="500" 
d="M251 776c-101 0 -155 64 -152 145l36 6c2 -51 54 -69 114 -69c61 0 115 17 116 69l36 -6c3 -81 -50 -145 -150 -145z" />
    <glyph glyph-name="ring.case" horiz-adv-x="500" 
d="M140 865c0 66 51 107 111 107s110 -41 110 -107s-50 -107 -110 -107s-111 41 -111 107zM194 865c0 -34 23 -56 57 -56c33 0 56 22 56 56c0 33 -23 55 -56 55c-34 0 -57 -22 -57 -55z" />
    <glyph glyph-name="tilde.case" horiz-adv-x="500" 
d="M408 815l-25 -20c-8 20 -18 38 -53 38c-47 0 -92 -48 -149 -48c-51 0 -84 35 -88 94l25 20c8 -20 18 -38 53 -38c47 0 92 48 149 48c51 0 84 -35 88 -94z" />
    <glyph glyph-name="dotaccent.case" horiz-adv-x="500" 
d="M328 848c0 -45 -33 -77 -78 -77c-44 0 -78 32 -78 77s34 77 78 77c45 0 78 -32 78 -77z" />
    <glyph glyph-name="hungarumlaut.case" horiz-adv-x="500" 
d="M337 917h152l-159 -140h-48zM157 917h148l-157 -140h-46z" />
    <glyph glyph-name="dieresis.case" horiz-adv-x="500" 
d="M422 840c0 -40 -30 -69 -69 -69s-71 29 -71 69s32 69 71 69s69 -29 69 -69zM217 840c0 -40 -31 -69 -70 -69s-70 29 -70 69s31 69 70 69s70 -29 70 -69z" />
    <glyph glyph-name="germandbls.ss02" horiz-adv-x="635" 
d="M96 479v50c0 166 147 251 275 251c76 0 143 -44 143 -133s-75 -134 -134 -169c36 -29 71 -56 127 -96c69 -50 103 -106 103 -168c0 -139 -122 -259 -278 -258c-34 0 -63 6 -98 20l72 111h36c25 -31 47 -50 91 -50c50 0 85 36 85 91c0 65 -32 112 -97 162
c-49 37 -103 79 -162 128v36c113 58 142 92 142 152c0 69 -48 117 -107 117c-66 0 -73 -67 -73 -159v-564h-200v36h20c14 0 55 39 55 55v335h-75v53h75z" />
    <glyph glyph-name="colon.ss01" horiz-adv-x="274" 
d="M60 531c0 43 32 75 77 75s77 -32 77 -75s-32 -75 -77 -75s-77 32 -77 75zM60 202c0 43 32 75 77 75s77 -32 77 -75s-32 -75 -77 -75s-77 32 -77 75z" />
    <glyph glyph-name="ellipsis.ss01" horiz-adv-x="890" 
d="M60 75c0 43 32 75 77 75s77 -32 77 -75s-32 -75 -77 -75s-77 32 -77 75zM368 75c0 43 32 75 77 75s77 -32 77 -75s-32 -75 -77 -75s-77 32 -77 75zM676 75c0 43 32 75 77 75s77 -32 77 -75s-32 -75 -77 -75s-77 32 -77 75z" />
    <glyph glyph-name="arrow_right" horiz-adv-x="890" 
d="M50 278v90h663l-222 209h128l241 -254l-241 -254h-128l222 209h-663z" />
    <glyph glyph-name="arrow_left" horiz-adv-x="890" 
d="M840 368v-90h-663l222 -209h-128l-241 254l241 254h128l-222 -209h663z" />
    <glyph glyph-name="arrow_down" horiz-adv-x="640" 
d="M275 771h90v-668l209 220v-127l-254 -240l-254 240v127l209 -220v668z" />
    <glyph glyph-name="arrow_up" horiz-adv-x="640" 
d="M365 0h-90v668l-209 -220v127l254 240l254 -240v-127l-209 220v-668z" />
    <glyph glyph-name="arrow_left_up" horiz-adv-x="745" 
d="M680 140l-63 -63l-469 469l9 -305l-91 90l10 350l350 10l90 -91l-305 9z" />
    <glyph glyph-name="arrow_left_down" horiz-adv-x="745" 
d="M617 690l63 -63l-469 -469l305 9l-90 -91l-350 10l-10 350l91 90l-9 -305z" />
    <glyph glyph-name="arrow_right_up" horiz-adv-x="745" 
d="M128 77l-63 63l469 469l-305 -9l90 91l350 -10l10 -350l-91 -90l9 305z" />
    <glyph glyph-name="arrow_right_down" horiz-adv-x="745" 
d="M65 627l63 63l469 -469l-9 305l91 -90l-10 -350l-350 -10l-90 91l305 -9z" />
    <glyph glyph-name="RP" horiz-adv-x="810" 
d="M361 433l-140 246l6 4l140 -247zM450 433l140 246l-6 4l-140 -247zM361 297l-140 -246l6 -4l140 247zM450 297l140 -246l-6 -4l-140 247zM338 319l-230 -164l4 -6l230 165zM473 411l230 164l-4 6l-230 -165zM338 411l-230 164l4 6l230 -165zM473 319l230 -164l-4 -6
l-230 165zM377 441l-87 269l7 2l86 -269zM377 289l-87 -269l7 -2l86 269zM434 441l87 269l-7 2l-86 -269zM434 289l87 -269l-7 -2l-86 269zM349 307l-190 -210l5 -5l190 211zM349 423l-190 210l5 5l190 -211zM462 423l190 210l-5 5l-190 -211zM462 307l190 -210l-5 -5
l-190 211zM330 335l-260 -114l3 -6l260 114zM481 395l260 114l-3 6l-260 -114zM481 335l260 -114l-3 -6l-260 114zM330 395l-260 114l3 6l260 -114zM325 379l-277 57l2 7l276 -58zM325 351l-277 -57l2 -7l276 58zM486 379l277 57l-2 7l-276 -58zM486 351l277 -57l-2 -7
l-276 58zM394 285l-31 -281l7 -1l30 281zM417 445l31 281l-7 1l-30 -281zM417 285l31 -281l-7 -1l-30 281zM394 445l-31 281l7 1l30 -281zM40 368h284v-6h-284v6zM770 368h-283v-6h283v6zM490 476l133 181l-6 5l-133 -182zM321 476l-133 181l6 5l133 -182zM321 254
l-133 -181l6 -5l133 182zM490 254l133 -181l-6 -5l-133 182zM373 501l-46 219l7 2l46 -220zM373 229l-46 -219l7 -2l46 220zM438 501l46 219l-7 2l-46 -220zM438 229l46 -219l-7 -2l-46 220zM402 225v-225h7v225h-7zM402 505v225h7v-225h-7zM528 299l196 -112l-3 -6
l-197 112zM283 299l-196 -112l3 -6l197 112zM283 431l-196 112l3 6l197 -112zM528 431l196 112l-3 6l-197 -112zM540 325l214 -68l-2 -7l-214 69zM540 405l214 68l-2 7l-214 -69zM271 325l-214 -68l2 -7l214 69zM271 405l-214 68l2 7l214 -69zM679 606l-5 5l-167 -151l4 -5z
M132 606l5 5l167 -151l-4 -5zM679 124l-5 -5l-167 151l4 5zM132 124l5 -5l167 151l-4 5zM347 491l-92 206l6 3l92 -206zM464 491l92 206l-6 3l-92 -206zM464 239l92 -206l-6 -3l-92 206zM347 239l-92 -206l6 -3l92 206zM769 331l-1 -7l-224 24l1 6zM42 399l1 7l224 -24
l-1 -6zM769 399l-1 7l-224 -24l1 -6zM42 331l1 -7l224 24l-1 6z" />
    <glyph glyph-name="threestars" horiz-adv-x="948" 
d="M618 626l30 -31l-30 -31l-132 26l113 -76v-42h-48l-73 112l29 -131l-33 -34l-35 34l29 131l-71 -112h-48v42l112 76l-131 -26l-30 31l30 31l131 -26l-112 76v42h48l71 -112l-29 131l35 34l33 -34l-29 -131l73 112h48v-42l-113 -76zM368 207l30 -31l-30 -31l-132 26
l113 -76v-42h-48l-73 112l29 -131l-33 -34l-35 34l29 131l-71 -112h-48v42l112 76l-131 -26l-30 31l30 31l131 -26l-112 76v42h48l71 -112l-29 131l35 34l33 -34l-29 -131l73 112h48v-42l-113 -76zM868 207l30 -31l-30 -31l-132 26l113 -76v-42h-48l-73 112l29 -131l-33 -34
l-35 34l29 131l-71 -112h-48v42l112 76l-131 -26l-30 31l30 31l131 -26l-112 76v42h48l71 -112l-29 131l35 34l33 -34l-29 -131l73 112h48v-42l-113 -76z" />
    <glyph glyph-name="ampersand.alt" horiz-adv-x="833" 
d="M737 36v-36h-79c-75 0 -113 23 -167 76l-22 21c-61 -61 -125 -108 -209 -108c-116 0 -200 86 -200 194c0 107 74 173 156 216c-47 59 -80 122 -80 186c0 103 81 166 183 166s163 -53 163 -139c0 -83 -59 -132 -135 -180c43 -55 110 -133 179 -209c47 60 63 98 78 137
c-1 25 -41 83 -53 83h-30v36h292v-36h-28c-14 0 -86 -66 -101 -83c-34 -46 -77 -109 -128 -170c54 -59 107 -114 151 -154h30zM238 362c-63 -35 -98 -115 -64 -189c11 -24 29 -48 51 -65c61 -47 141 -32 212 22c-77 81 -146 165 -199 232zM311 483l14 -18
c49 44 73 92 73 148c0 57 -38 94 -98 94c-62 0 -104 -36 -104 -90c0 -78 73 -79 115 -134z" />
    </font>
</defs>
</svg>
