<svg id="Layer_1" data-name="Layer 1" xmlns="http://www.w3.org/2000/svg" viewBox="0 0 684.3 454.45"><defs><style>.cls-1{fill:#4196b1;}.cls-2{fill:#aae0e4;}.cls-3{fill:#8eccce;}.cls-4{fill:#99b8bf;}.cls-11,.cls-12,.cls-13,.cls-14,.cls-15,.cls-5,.cls-6,.cls-8{fill:none;stroke-miterlimit:10;}.cls-5{stroke:#efeff0;stroke-width:3px;}.cls-6{stroke:#ededed;stroke-width:5px;}.cls-7{fill:#eaf1f1;}.cls-11,.cls-12,.cls-14,.cls-8{stroke:#7a8d92;}.cls-8{stroke-width:0.29px;}.cls-9{isolation:isolate;}.cls-10{fill:#767e7f;}.cls-11{stroke-width:0.293px;}.cls-12{stroke-width:0.2px;}.cls-13,.cls-15{stroke:#7e8a8f;}.cls-13{stroke-width:0.347px;}.cls-14{stroke-width:0.35px;}.cls-15{stroke-width:0.355px;}</style></defs><title>Paris-L3-EDIT</title><g id="shadow"><polygon class="cls-1" points="638.3 4.55 684.2 4.55 684.2 440.5 670.2 454.45 14 454.45 0.2 440.5 0.2 125.25 638.988 125.25 638.3 4.55"/></g><g id="background"><polygon class="cls-2" points="638.3 2.3 681.8 2.3 681.8 437.7 2.5 437.7 2.5 119.1 639 119.1 638.3 2.3"/></g><g id="spaces"><rect class="cls-3" x="73.3" y="243.1" width="113.2" height="46.4"/><polygon class="cls-3" points="206.3 243.1 295 243.1 295 290.5 302.6 290.5 302.6 323.7 206.3 323.7 206.3 243.1"/><polygon class="cls-3" points="386.3 201.3 386.3 119.3 1.7 119.3 1.7 310.3 36.3 310.3 36.3 188.3 72.6 188.3 72.6 216.2 180.2 216.2 252.7 216.2 252.7 197.9 267.4 197.9 267.4 218 291.4 218 291.4 201.3 386.3 201.3"/><rect class="cls-3" x="295" y="242" width="91.7" height="38.1"/><rect class="cls-3" x="568.6" y="280.1" width="79" height="43.4"/><rect class="cls-3" x="640.2" y="1.1" width="42.7" height="118.2"/><polygon class="cls-3" points="482.9 213.9 647.5 213.9 647.5 280.1 492.9 280.1 492.9 244.3 503.4 234.7 482.9 213.9"/><polygon class="cls-4" points="1.7 310.3 34.3 310.3 34.3 316.5 104.3 316.5 104.3 289.5 186.6 289.5 186.6 243.1 206.3 243.1 206.3 323.8 302.6 323.8 302.6 290.5 295 290.5 295 280.1 568.6 280.1 568.6 323.5 647.5 323.5 647.5 280.1 681.8 280.1 681.8 436.5 2.5 436.5 1.7 310.3"/></g><g id="outline"><polyline class="cls-5" points="2.5 188.8 72.6 188.8 72.6 223.6"/><polyline class="cls-5" points="72.6 240.7 72.6 289.5 79.9 289.5"/><polyline class="cls-5" points="89.1 289.5 172.6 289.5 104.3 289.5 104.3 316.5 68.5 316.5"/><polyline class="cls-5" points="51.1 316.5 34.3 316.5 34.3 310.3 2.5 310.3 2.5 280.2 36.3 280.2 36.3 288.6 36.3 271.4"/><polyline class="cls-5" points="2.5 248.7 36.3 248.7 36.3 260.5 36.3 240.7"/><polyline class="cls-5" points="2.5 218 36.3 218 36.3 228.5 36.3 211.1"/><polyline class="cls-5" points="36.3 200.2 36.3 188.8 66.1 188.8 66.1 167.9"/><polyline class="cls-5" points="34.3 310.3 36.3 310.3 36.3 299.6"/><line class="cls-5" x1="72.6" y1="243.1" x2="78.8" y2="243.1"/><line class="cls-5" x1="90" y1="243.1" x2="172.6" y2="243.1"/><polyline class="cls-5" points="184.2 243.1 210.4 243.1 206.3 243.1 206.3 289.5 184.2 289.5 185.8 289.5 185.9 243.1"/><polyline class="cls-5" points="220 243.1 282.7 243.1 248.8 243.1 248.8 291.6 206.3 291.6 206.3 287.1 206.3 308.4"/><polyline class="cls-5" points="206.3 319.9 206.3 323.7 302.6 323.7 302.6 290.5 295 290.5 295 243.1 291.7 243.1 302.6 243.1"/><polyline class="cls-5" points="315.2 243.1 341.4 243.1 327.3 243.1 327.3 280.1 295 280.1 386.8 280.1 647.5 280.1 647.5 282.4 647.5 213.3 614.4 213.3"/><polyline class="cls-5" points="602.3 213.3 501.1 213.3 566 213.3 566 239.8 530.6 239.8 530.6 233"/><line class="cls-5" x1="552.4" y1="250.7" x2="552.4" y2="239.8"/><polyline class="cls-5" points="551.7 261 551.7 280.1 595.1 280.1 595.1 263.8 575.4 263.8"/><polyline class="cls-5" points="490.1 193.3 482.9 193.3 482.9 213.9 492.9 222.8 504.2 234.5"/><polyline class="cls-5" points="516.1 234.5 502 234.5 492.3 243.9 492.3 265.5"/><polyline class="cls-5" points="492.3 275.8 492.3 280.1 386.8 280.1 386.8 234.5 386.8 241.6 367 241.6"/><polyline class="cls-5" points="357.1 242 352.2 242 354.6 242 354.6 280.1"/><polyline class="cls-5" points="326.1 201.3 329.4 201.3 327.7 201.3 327.7 119.3 386.3 119.3 386.3 201.3 339.2 201.3 458.4 201.3 458.4 194.2"/><line class="cls-5" x1="386.3" y1="201.3" x2="386.3" y2="213.3"/><polyline class="cls-5" points="215.1 139.4 215.1 119.3 252.7 119.3 252.7 216.2 197.3 216.2"/><polyline class="cls-5" points="264.7 198.5 267.1 198.5 267.1 218 291.4 218 291.4 119.3 177.1 119.3 177.1 216.2 186.5 216.2 103.4 216.2"/><line class="cls-5" x1="66.1" y1="156.4" x2="66.1" y2="120.5"/><line class="cls-5" x1="85" y1="216.2" x2="72.6" y2="216.2"/><polyline class="cls-5" points="252.7 179.1 215.4 179.1 215.4 150"/><polyline class="cls-5" points="595.1 263.8 595.1 254 614.1 254 602.3 254 602.3 239.8 608.7 239.8"/><line class="cls-5" x1="551.7" y1="263.8" x2="565.7" y2="263.8"/><polyline class="cls-5" points="621.6 222.7 621.6 213.3 647.5 213.3 647.5 239.8 618.9 239.8 621.6 239.8 621.6 233.1"/><polyline class="cls-5" points="614.1 266.2 614.1 280.1 647.5 280.1 647.5 266.2 624.8 266.2 627.2 266.2 627.2 251.8"/><polyline class="cls-5" points="568.6 280.1 568.6 323.5 647.5 323.5 647.5 292.4"/><polyline class="cls-5" points="661.1 119.3 681.8 119.3 681.8 280.1 661.1 280.1"/><polyline class="cls-5" points="639 119.3 651.2 119.3 647.5 119.3 647.5 201.3"/><polyline class="cls-5" points="618.9 239.8 618.9 254.1 609.5 254.1"/><line class="cls-5" x1="291.4" y1="201.3" x2="317.2" y2="201.3"/><polygon class="cls-6" points="638.3 2.5 681.8 2.5 681.8 437.9 2.5 437.9 2.5 119.3 639 119.3 638.3 2.5"/></g><g id="icons_and_labels" data-name="icons and labels"><circle class="cls-7" cx="228.2" cy="263.068" r="9"/><g id="Outline_Icons-5-3" data-name="Outline Icons-5-3"><path class="cls-8" d="M268.2,292.268c0,.1-.1.3-.2.3h-1.8v-3.7a.684.684,0,0,1,.7-.7h.7a.684.684,0,0,1,.7.7h0l-.1,3.4Z" transform="translate(-36.8 -29)"/><path class="cls-8" d="M263.5,295.968h3.4v-2l1-.7v-.7h-5.8a1.579,1.579,0,0,0,1.5,1.7h.1Z" transform="translate(-36.8 -29)"/><rect class="cls-8" x="225" y="262.968" width="4.4" height="0.7"/><circle class="cls-8" cx="230.6" cy="260.368" r="0.3"/></g><g class="cls-9"><path class="cls-10" d="M254.741,307.807v-3.579h1.587a2.108,2.108,0,0,1,.728.1.8.8,0,0,1,.4.34,1.019,1.019,0,0,1,.149.54.9.9,0,0,1-.247.642.423.423,0,1,0-.476.511,2.487,2.487,0,0,1,.393.476l.623.975h-.6l-.474-.744q-.207-.322-.342-.494a1.054,1.054,0,0,0-.241-.238.691.691,0,0,0-.216-.1,1.384,1.384,0,0,0-.264-.018h-.549v1.59Zm.474-2h1.018a1.526,1.526,0,0,0,.508-.066.54.54,0,0,0,.278-.215.583.583,0,0,0,.1-.321.533.533,0,0,0-.184-.417.862.862,0,0,0-.583-.164h-1.133Z" transform="translate(-36.8 -29)"/><path class="cls-10" d="M260.063,306.972l.454.056a1.108,1.108,0,0,1-.4.618,1.347,1.347,0,0,1-1.644-.131,1.365,1.365,0,0,1-.333-.982,1.433,1.433,0,0,1,.337-1.016,1.14,1.14,0,0,1,.874-.361,1.108,1.108,0,0,1,.85.354,1.4,1.4,0,0,1,.33,1c0,.025,0,.064,0,.117H258.6a1,1,0,0,0,.242.654.723.723,0,0,0,.542.227.67.67,0,0,0,.413-.127A.847.847,0,0,0,260.063,306.972Zm-1.443-.71h1.448a.878.878,0,0,0-.166-.491.674.674,0,0,0-.544-.254.7.7,0,0,0-.509.2A.806.806,0,0,0,258.621,306.262Z" transform="translate(-36.8 -29)"/><path class="cls-10" d="M260.894,307.033l.435-.068a.611.611,0,0,0,.2.4.717.717,0,0,0,.468.139.688.688,0,0,0,.449-.123.368.368,0,0,0,.146-.289.266.266,0,0,0-.129-.234,1.911,1.911,0,0,0-.449-.149,4.078,4.078,0,0,1-.67-.211.64.64,0,0,1-.379-.595.667.667,0,0,1,.08-.321.708.708,0,0,1,.216-.245.9.9,0,0,1,.279-.128,1.325,1.325,0,0,1,.38-.053,1.5,1.5,0,0,1,.536.088.727.727,0,0,1,.34.238.927.927,0,0,1,.151.4l-.43.059a.471.471,0,0,0-.169-.312.62.62,0,0,0-.4-.112.714.714,0,0,0-.432.1.29.29,0,0,0-.129.234.244.244,0,0,0,.054.153.391.391,0,0,0,.168.117c.044.017.173.054.388.112a5.431,5.431,0,0,1,.651.2.661.661,0,0,1,.289.23.645.645,0,0,1,.1.376.736.736,0,0,1-.128.414.824.824,0,0,1-.37.3,1.338,1.338,0,0,1-.547.106,1.219,1.219,0,0,1-.77-.21A.975.975,0,0,1,260.894,307.033Z" transform="translate(-36.8 -29)"/><path class="cls-10" d="M264.529,307.414l.063.388a1.606,1.606,0,0,1-.332.039.759.759,0,0,1-.371-.075.426.426,0,0,1-.186-.2,1.583,1.583,0,0,1-.054-.52v-1.491h-.322v-.342h.322v-.642l.437-.264v.905h.442v.342h-.442v1.517a.778.778,0,0,0,.023.241.178.178,0,0,0,.076.085.287.287,0,0,0,.15.032A1.527,1.527,0,0,0,264.529,307.414Z" transform="translate(-36.8 -29)"/><path class="cls-10" d="M264.954,307.807v-2.593h.4v.394a1.065,1.065,0,0,1,.28-.364.486.486,0,0,1,.282-.088.854.854,0,0,1,.452.142l-.151.408a.62.62,0,0,0-.322-.1.42.42,0,0,0-.259.087.468.468,0,0,0-.164.24,1.712,1.712,0,0,0-.073.513v1.357Z" transform="translate(-36.8 -29)"/><path class="cls-10" d="M266.46,306.51a1.336,1.336,0,0,1,.4-1.066,1.2,1.2,0,0,1,.815-.288,1.164,1.164,0,0,1,.874.351,1.332,1.332,0,0,1,.339.968,1.72,1.72,0,0,1-.15.787,1.07,1.07,0,0,1-.437.446,1.274,1.274,0,0,1-.626.158,1.163,1.163,0,0,1-.88-.35A1.392,1.392,0,0,1,266.46,306.51Zm.452,0a1.1,1.1,0,0,0,.217.746.723.723,0,0,0,1.091,0,1.129,1.129,0,0,0,.217-.759,1.07,1.07,0,0,0-.219-.729.725.725,0,0,0-1.09,0A1.1,1.1,0,0,0,266.912,306.51Z" transform="translate(-36.8 -29)"/><path class="cls-10" d="M269.241,306.51a1.336,1.336,0,0,1,.4-1.066,1.2,1.2,0,0,1,.815-.288,1.164,1.164,0,0,1,.874.351,1.332,1.332,0,0,1,.339.968,1.72,1.72,0,0,1-.15.787,1.07,1.07,0,0,1-.437.446,1.274,1.274,0,0,1-.626.158,1.163,1.163,0,0,1-.88-.35A1.392,1.392,0,0,1,269.241,306.51Zm.452,0a1.1,1.1,0,0,0,.217.746.723.723,0,0,0,1.091,0,1.129,1.129,0,0,0,.217-.759,1.07,1.07,0,0,0-.219-.729.725.725,0,0,0-1.09,0A1.1,1.1,0,0,0,269.692,306.51Z" transform="translate(-36.8 -29)"/><path class="cls-10" d="M272.185,307.807v-2.593h.393v.364a.914.914,0,0,1,.786-.423.852.852,0,0,1,.473.12.636.636,0,0,1,.26.334.931.931,0,0,1,.8-.454.788.788,0,0,1,.593.214.914.914,0,0,1,.208.658v1.779h-.437v-1.633a1.21,1.21,0,0,0-.042-.38.369.369,0,0,0-.155-.187.478.478,0,0,0-.264-.071.615.615,0,0,0-.454.182.8.8,0,0,0-.181.583v1.506h-.439v-1.685a.74.74,0,0,0-.107-.439.407.407,0,0,0-.352-.146.634.634,0,0,0-.343.1.553.553,0,0,0-.229.286,1.6,1.6,0,0,0-.071.541v1.346Z" transform="translate(-36.8 -29)"/></g><circle class="cls-7" cx="20.221" cy="199.746" r="9"/><g class="cls-9"><path class="cls-10" d="M48.43,244.485v-3.579h2.588v.423H48.9v1.1h1.98v.42H48.9v1.219h2.2v.422Z" transform="translate(-36.8 -29)"/><path class="cls-10" d="M51.689,244.485v-3.579h.439v3.579Z" transform="translate(-36.8 -29)"/><path class="cls-10" d="M54.585,243.65l.454.056a1.108,1.108,0,0,1-.4.618A1.347,1.347,0,0,1,53,244.193a1.365,1.365,0,0,1-.333-.982A1.433,1.433,0,0,1,53,242.195a1.14,1.14,0,0,1,.874-.361,1.108,1.108,0,0,1,.85.354,1.4,1.4,0,0,1,.33,1c0,.025,0,.064,0,.117H53.118a1,1,0,0,0,.242.654.723.723,0,0,0,.542.227.67.67,0,0,0,.413-.127A.847.847,0,0,0,54.585,243.65Zm-1.443-.71H54.59a.878.878,0,0,0-.166-.491.674.674,0,0,0-.544-.254.7.7,0,0,0-.509.2A.806.806,0,0,0,53.142,242.94Z" transform="translate(-36.8 -29)"/><path class="cls-10" d="M56.311,244.485l-.986-2.593h.464l.557,1.553q.09.252.166.522.059-.205.164-.493l.576-1.582H57.7l-.981,2.593Z" transform="translate(-36.8 -29)"/><path class="cls-10" d="M59.783,244.165a1.621,1.621,0,0,1-.47.293,1.347,1.347,0,0,1-.485.086.94.94,0,0,1-.657-.209.688.688,0,0,1-.229-.533.7.7,0,0,1,.087-.348.714.714,0,0,1,.227-.253,1.062,1.062,0,0,1,.316-.144,3.061,3.061,0,0,1,.391-.066,3.987,3.987,0,0,0,.784-.151c0-.061,0-.1,0-.114a.485.485,0,0,0-.125-.379.734.734,0,0,0-.5-.148.779.779,0,0,0-.458.108.665.665,0,0,0-.218.384l-.43-.059a1.068,1.068,0,0,1,.193-.445.838.838,0,0,1,.388-.261,1.719,1.719,0,0,1,.588-.092,1.565,1.565,0,0,1,.54.078.706.706,0,0,1,.305.2.693.693,0,0,1,.137.3,2.491,2.491,0,0,1,.022.406v.586a6.264,6.264,0,0,0,.028.774.993.993,0,0,0,.111.312h-.459A.934.934,0,0,1,59.783,244.165Zm-.037-.98a3.285,3.285,0,0,1-.718.166,1.592,1.592,0,0,0-.383.088.381.381,0,0,0-.173.143.389.389,0,0,0,.072.5.573.573,0,0,0,.39.117.9.9,0,0,0,.452-.111.686.686,0,0,0,.291-.3,1.055,1.055,0,0,0,.071-.439Z" transform="translate(-36.8 -29)"/><path class="cls-10" d="M61.831,244.092l.063.388a1.606,1.606,0,0,1-.332.039.759.759,0,0,1-.371-.075.426.426,0,0,1-.186-.2,1.583,1.583,0,0,1-.054-.52v-1.491H60.63v-.342h.322v-.642l.437-.264v.905h.442v.342h-.442v1.517a.778.778,0,0,0,.023.241.178.178,0,0,0,.076.085.287.287,0,0,0,.15.032A1.527,1.527,0,0,0,61.831,244.092Z" transform="translate(-36.8 -29)"/><path class="cls-10" d="M62.1,243.188a1.336,1.336,0,0,1,.4-1.066,1.2,1.2,0,0,1,.815-.288,1.164,1.164,0,0,1,.874.351,1.332,1.332,0,0,1,.339.968,1.72,1.72,0,0,1-.15.787,1.07,1.07,0,0,1-.437.446,1.274,1.274,0,0,1-.626.158,1.163,1.163,0,0,1-.88-.35A1.392,1.392,0,0,1,62.1,243.188Zm.452,0a1.1,1.1,0,0,0,.217.746.723.723,0,0,0,1.091,0,1.129,1.129,0,0,0,.217-.759,1.07,1.07,0,0,0-.219-.729.725.725,0,0,0-1.09,0A1.1,1.1,0,0,0,62.549,243.188Z" transform="translate(-36.8 -29)"/><path class="cls-10" d="M65.037,244.485v-2.593h.4v.394a1.065,1.065,0,0,1,.28-.364.486.486,0,0,1,.282-.088.854.854,0,0,1,.452.142l-.151.408a.62.62,0,0,0-.322-.1.42.42,0,0,0-.259.087.468.468,0,0,0-.164.24,1.712,1.712,0,0,0-.073.513v1.357Z" transform="translate(-36.8 -29)"/></g><rect class="cls-11" x="16.101" y="195.538" width="8.609" height="8.609" rx="0.307" ry="0.307"/><rect class="cls-11" x="17.859" y="197.5" width="2.218" height="6.549"/><rect class="cls-11" x="20.078" y="197.5" width="2.218" height="6.549"/><line class="cls-11" x1="19.652" y1="196.489" x2="21.173" y2="196.489"/><polyline class="cls-12" points="23.155 200.035 23.566 199.65 23.977 200.035"/><polyline class="cls-12" points="23.155 200.582 23.566 200.967 23.977 200.582"/><circle class="cls-7" cx="129.4" cy="263.068" r="9"/><g class="cls-9"><path class="cls-10" d="M160.218,306.656l.447-.039a.983.983,0,0,0,.147.441.811.811,0,0,0,.36.278,1.369,1.369,0,0,0,.549.106,1.314,1.314,0,0,0,.479-.081.659.659,0,0,0,.309-.221.509.509,0,0,0,.1-.307.464.464,0,0,0-.1-.294.712.712,0,0,0-.322-.211,6.145,6.145,0,0,0-.637-.175,3.243,3.243,0,0,1-.691-.224.97.97,0,0,1-.382-.333.817.817,0,0,1-.126-.446.911.911,0,0,1,.154-.506.947.947,0,0,1,.449-.357,1.69,1.69,0,0,1,.656-.123,1.787,1.787,0,0,1,.7.129,1.014,1.014,0,0,1,.468.377,1.094,1.094,0,0,1,.176.564l-.454.033a.732.732,0,0,0-.248-.512.961.961,0,0,0-.624-.174,1,1,0,0,0-.626.157.473.473,0,0,0-.2.38.406.406,0,0,0,.139.317,1.888,1.888,0,0,0,.714.255,4.67,4.67,0,0,1,.793.229,1.078,1.078,0,0,1,.461.365.886.886,0,0,1,.149.509.97.97,0,0,1-.164.538,1.072,1.072,0,0,1-.47.394,1.635,1.635,0,0,1-.689.14,2.072,2.072,0,0,1-.814-.141,1.15,1.15,0,0,1-.516-.427A1.213,1.213,0,0,1,160.218,306.656Z" transform="translate(-36.8 -29)"/><path class="cls-10" d="M164.617,307.414l.063.388a1.6,1.6,0,0,1-.332.039.76.76,0,0,1-.371-.075.428.428,0,0,1-.186-.2,1.6,1.6,0,0,1-.054-.52v-1.491h-.322v-.342h.322v-.642l.438-.264v.905h.441v.342h-.441v1.517a.8.8,0,0,0,.022.241.178.178,0,0,0,.076.085.289.289,0,0,0,.15.032A1.514,1.514,0,0,0,164.617,307.414Z" transform="translate(-36.8 -29)"/><path class="cls-10" d="M166.739,307.486a1.628,1.628,0,0,1-.47.293,1.35,1.35,0,0,1-.485.086.939.939,0,0,1-.656-.209.686.686,0,0,1-.229-.533.7.7,0,0,1,.087-.348.71.71,0,0,1,.227-.253,1.062,1.062,0,0,1,.316-.144,3.03,3.03,0,0,1,.391-.066,3.98,3.98,0,0,0,.783-.151q0-.091,0-.114a.485.485,0,0,0-.125-.379.733.733,0,0,0-.5-.148.778.778,0,0,0-.458.108.665.665,0,0,0-.219.384l-.43-.059a1.063,1.063,0,0,1,.193-.445.836.836,0,0,1,.388-.261,1.722,1.722,0,0,1,.589-.092,1.562,1.562,0,0,1,.539.078.614.614,0,0,1,.442.5,2.508,2.508,0,0,1,.021.406v.586a6.224,6.224,0,0,0,.028.774.969.969,0,0,0,.111.312h-.459A.912.912,0,0,1,166.739,307.486Zm-.037-.98a3.271,3.271,0,0,1-.718.166,1.58,1.58,0,0,0-.383.088.373.373,0,0,0-.234.352.374.374,0,0,0,.133.293.573.573,0,0,0,.39.117.9.9,0,0,0,.451-.111.689.689,0,0,0,.291-.3,1.064,1.064,0,0,0,.07-.439Z" transform="translate(-36.8 -29)"/><path class="cls-10" d="M167.83,304.732v-.5h.439v.5Zm0,3.074v-2.593h.439v2.593Z" transform="translate(-36.8 -29)"/><path class="cls-10" d="M168.934,307.807v-2.593h.4v.394a1.071,1.071,0,0,1,.28-.364.485.485,0,0,1,.281-.088.856.856,0,0,1,.452.142l-.151.408a.62.62,0,0,0-.322-.1.418.418,0,0,0-.259.087.469.469,0,0,0-.164.24,1.712,1.712,0,0,0-.073.513v1.357Z" transform="translate(-36.8 -29)"/><path class="cls-10" d="M170.428,307.033l.435-.068a.611.611,0,0,0,.2.4.716.716,0,0,0,.468.139.689.689,0,0,0,.449-.123.368.368,0,0,0,.146-.289.265.265,0,0,0-.13-.234,1.9,1.9,0,0,0-.449-.149,4.068,4.068,0,0,1-.67-.211.642.642,0,0,1-.38-.595.662.662,0,0,1,.08-.321.7.7,0,0,1,.216-.245.9.9,0,0,1,.279-.128,1.323,1.323,0,0,1,.38-.053,1.505,1.505,0,0,1,.536.088.726.726,0,0,1,.34.238.921.921,0,0,1,.151.4l-.43.059a.473.473,0,0,0-.169-.312.621.621,0,0,0-.4-.112.712.712,0,0,0-.432.1.289.289,0,0,0-.13.234.246.246,0,0,0,.054.153.393.393,0,0,0,.169.117c.044.017.173.054.388.112a5.416,5.416,0,0,1,.651.2.667.667,0,0,1,.289.23.649.649,0,0,1,.1.376.736.736,0,0,1-.128.414.826.826,0,0,1-.37.3,1.336,1.336,0,0,1-.547.106,1.216,1.216,0,0,1-.77-.21A.976.976,0,0,1,170.428,307.033Z" transform="translate(-36.8 -29)"/></g><g id="Outline_Icons-2-2-4-2-2-2-3" data-name="Outline Icons-2-2-4-2-2-2-3"><line class="cls-8" x1="125.939" y1="266.091" x2="132.239" y2="266.091"/><polyline class="cls-8" points="131.139 266.091 131.139 264.991 130.039 264.991 130.039 263.891 128.939 263.891 128.939 262.791 127.839 262.791 127.839 261.691 125.939 261.691"/><line class="cls-8" x1="129.239" y1="259.791" x2="132.639" y2="263.191"/><polyline class="cls-8" points="129.239 261.191 129.239 259.791 130.639 259.791"/><polyline class="cls-8" points="132.639 261.891 132.639 263.191 131.339 263.191"/></g><circle class="cls-7" cx="304.3" cy="212.116" r="9"/><g class="cls-9"><path class="cls-10" d="M330.137,256.854v-3.579h1.35a3.3,3.3,0,0,1,.544.034,1.08,1.08,0,0,1,.442.167.874.874,0,0,1,.287.346,1.164,1.164,0,0,1-.182,1.261,1.393,1.393,0,0,1-1.05.316h-.918v1.455Zm.474-1.877h.925a.978.978,0,0,0,.652-.172.607.607,0,0,0,.193-.48.645.645,0,0,0-.114-.385.529.529,0,0,0-.3-.211,2.011,2.011,0,0,0-.442-.031h-.916Z" transform="translate(-36.8 -29)"/><path class="cls-10" d="M333.411,256.854v-2.593h.4v.394a1.065,1.065,0,0,1,.28-.364.486.486,0,0,1,.282-.088.854.854,0,0,1,.452.142l-.151.408a.62.62,0,0,0-.322-.1.42.42,0,0,0-.259.087.468.468,0,0,0-.164.24,1.712,1.712,0,0,0-.073.513v1.357Z" transform="translate(-36.8 -29)"/><path class="cls-10" d="M335.083,253.78v-.5h.439v.5Zm0,3.074v-2.593h.439v2.593Z" transform="translate(-36.8 -29)"/><path class="cls-10" d="M336.191,256.854v-2.593h.4v.368a.933.933,0,0,1,.825-.427,1.093,1.093,0,0,1,.431.084.677.677,0,0,1,.294.222.846.846,0,0,1,.137.324,2.533,2.533,0,0,1,.024.428v1.594h-.439v-1.577a1.184,1.184,0,0,0-.051-.4.421.421,0,0,0-.182-.213.579.579,0,0,0-.306-.079.712.712,0,0,0-.485.179.878.878,0,0,0-.2.676v1.416Z" transform="translate(-36.8 -29)"/><path class="cls-10" d="M339.932,256.462l.063.388a1.606,1.606,0,0,1-.332.039.759.759,0,0,1-.371-.075.426.426,0,0,1-.186-.2,1.583,1.583,0,0,1-.054-.52V254.6h-.322v-.342h.322v-.642l.437-.264v.905h.442v.342h-.442v1.517a.778.778,0,0,0,.023.241.178.178,0,0,0,.076.085.287.287,0,0,0,.15.032A1.527,1.527,0,0,0,339.932,256.462Z" transform="translate(-36.8 -29)"/><path class="cls-10" d="M341.807,256.854v-3.579h1.35a3.3,3.3,0,0,1,.544.034,1.08,1.08,0,0,1,.442.167.874.874,0,0,1,.287.346,1.164,1.164,0,0,1-.182,1.261,1.393,1.393,0,0,1-1.05.316h-.918v1.455Zm.474-1.877h.925a.978.978,0,0,0,.652-.172.607.607,0,0,0,.193-.48.645.645,0,0,0-.114-.385.529.529,0,0,0-.3-.211,2.011,2.011,0,0,0-.442-.031h-.916Z" transform="translate(-36.8 -29)"/><path class="cls-10" d="M344.922,255.558a1.336,1.336,0,0,1,.4-1.066,1.2,1.2,0,0,1,.815-.288,1.164,1.164,0,0,1,.874.351,1.332,1.332,0,0,1,.339.968,1.72,1.72,0,0,1-.15.787,1.07,1.07,0,0,1-.437.446,1.274,1.274,0,0,1-.626.158,1.163,1.163,0,0,1-.88-.35A1.392,1.392,0,0,1,344.922,255.558Zm.452,0a1.1,1.1,0,0,0,.217.746.723.723,0,0,0,1.091,0,1.129,1.129,0,0,0,.217-.759,1.07,1.07,0,0,0-.219-.729.725.725,0,0,0-1.09,0A1.1,1.1,0,0,0,345.374,255.558Z" transform="translate(-36.8 -29)"/><path class="cls-10" d="M347.869,253.78v-.5h.439v.5Zm0,3.074v-2.593h.439v2.593Z" transform="translate(-36.8 -29)"/><path class="cls-10" d="M348.977,256.854v-2.593h.4v.368a.933.933,0,0,1,.825-.427,1.093,1.093,0,0,1,.431.084.677.677,0,0,1,.294.222.846.846,0,0,1,.137.324,2.533,2.533,0,0,1,.024.428v1.594h-.439v-1.577a1.184,1.184,0,0,0-.051-.4.421.421,0,0,0-.182-.213.579.579,0,0,0-.306-.079.712.712,0,0,0-.485.179.878.878,0,0,0-.2.676v1.416Z" transform="translate(-36.8 -29)"/><path class="cls-10" d="M352.717,256.462l.063.388a1.606,1.606,0,0,1-.332.039.759.759,0,0,1-.371-.075.426.426,0,0,1-.186-.2,1.583,1.583,0,0,1-.054-.52V254.6h-.322v-.342h.322v-.642l.437-.264v.905h.442v.342h-.442v1.517a.778.778,0,0,0,.023.241.178.178,0,0,0,.076.085.287.287,0,0,0,.15.032A1.527,1.527,0,0,0,352.717,256.462Z" transform="translate(-36.8 -29)"/></g><g id="Outline_Icons-13-2-4-2-5" data-name="Outline Icons-13-2-4-2-5"><g id="Outline_Icons-14-2-4-2-5" data-name="Outline Icons-14-2-4-2-5"><path class="cls-8" d="M339.5,243.316h-.9a.645.645,0,0,1-.6-.6v-1.7a.645.645,0,0,1,.6-.6h5.3a.576.576,0,0,1,.6.6h0v1.7a.645.645,0,0,1-.6.6h-.8" transform="translate(-36.8 -29)"/><polyline class="cls-8" points="302.698 210.916 302.698 209.816 305.598 209.816 306.398 210.616 306.398 210.916"/><rect class="cls-8" x="302.698" y="213.416" width="3.6" height="2.2"/><circle class="cls-8" cx="302.198" cy="212.316" r="0.3"/><line class="cls-8" x1="303.298" y1="214.016" x2="305.798" y2="214.016"/><line class="cls-8" x1="303.298" y1="214.616" x2="305.798" y2="214.616"/><line class="cls-8" x1="303.298" y1="215.116" x2="305.798" y2="215.116"/><polyline class="cls-8" points="305.598 209.816 305.598 210.616 306.398 210.616"/></g></g><circle class="cls-7" cx="311.2" cy="255.423" r="9"/><g class="cls-9"><path class="cls-10" d="M343.277,296.583h.474v2.067a2.445,2.445,0,0,1-.122.857,1.048,1.048,0,0,1-.44.517,1.561,1.561,0,0,1-.836.2,1.723,1.723,0,0,1-.823-.173.989.989,0,0,1-.457-.5,2.386,2.386,0,0,1-.137-.9v-2.067h.474v2.065a2.022,2.022,0,0,0,.086.688.656.656,0,0,0,.3.34,1.031,1.031,0,0,0,.517.12.986.986,0,0,0,.745-.237,1.363,1.363,0,0,0,.222-.91Z" transform="translate(-36.8 -29)"/><path class="cls-10" d="M344.483,300.162v-2.593h.4v.368a.933.933,0,0,1,.825-.427,1.093,1.093,0,0,1,.431.084.677.677,0,0,1,.294.222.846.846,0,0,1,.137.324,2.533,2.533,0,0,1,.024.428v1.594h-.439v-1.577a1.184,1.184,0,0,0-.051-.4.421.421,0,0,0-.182-.213.579.579,0,0,0-.306-.079.712.712,0,0,0-.485.179.878.878,0,0,0-.2.676v1.416Z" transform="translate(-36.8 -29)"/><path class="cls-10" d="M347.266,297.088v-.5h.439v.5Zm0,3.074v-2.593h.439v2.593Z" transform="translate(-36.8 -29)"/><path class="cls-10" d="M348.2,299.389l.435-.068a.611.611,0,0,0,.2.4.717.717,0,0,0,.468.139.688.688,0,0,0,.449-.123.368.368,0,0,0,.146-.289.266.266,0,0,0-.129-.234,1.911,1.911,0,0,0-.449-.149,4.078,4.078,0,0,1-.67-.211.64.64,0,0,1-.379-.595.667.667,0,0,1,.08-.321.708.708,0,0,1,.216-.245.9.9,0,0,1,.279-.128,1.325,1.325,0,0,1,.38-.053,1.5,1.5,0,0,1,.536.088.727.727,0,0,1,.34.238.927.927,0,0,1,.151.4l-.43.059a.471.471,0,0,0-.169-.312.62.62,0,0,0-.4-.112.714.714,0,0,0-.432.1.29.29,0,0,0-.129.234.244.244,0,0,0,.054.153.391.391,0,0,0,.168.117c.044.017.173.054.388.112a5.431,5.431,0,0,1,.651.2.661.661,0,0,1,.289.23.645.645,0,0,1,.1.376.736.736,0,0,1-.128.414.824.824,0,0,1-.37.3,1.338,1.338,0,0,1-.547.106,1.219,1.219,0,0,1-.77-.21A.975.975,0,0,1,348.2,299.389Z" transform="translate(-36.8 -29)"/><path class="cls-10" d="M352.649,299.327l.454.056a1.108,1.108,0,0,1-.4.618,1.347,1.347,0,0,1-1.644-.131,1.365,1.365,0,0,1-.333-.982,1.433,1.433,0,0,1,.337-1.016,1.14,1.14,0,0,1,.874-.361,1.108,1.108,0,0,1,.85.354,1.4,1.4,0,0,1,.33,1c0,.025,0,.064,0,.117h-1.934a1,1,0,0,0,.242.654.723.723,0,0,0,.542.227.67.67,0,0,0,.413-.127A.847.847,0,0,0,352.649,299.327Zm-1.443-.71h1.448a.878.878,0,0,0-.166-.491.674.674,0,0,0-.544-.254.7.7,0,0,0-.509.2A.806.806,0,0,0,351.207,298.617Z" transform="translate(-36.8 -29)"/><path class="cls-10" d="M353.362,300.162l.947-1.348-.876-1.245h.549l.4.608c.075.115.135.212.181.29.072-.107.138-.2.2-.286l.437-.612h.525l-.9,1.221.964,1.372h-.54l-.532-.806-.142-.218-.681,1.023Z" transform="translate(-36.8 -29)"/><path class="cls-10" d="M339.932,304.012l.447-.039a.983.983,0,0,0,.148.441.812.812,0,0,0,.36.278,1.371,1.371,0,0,0,.549.106,1.315,1.315,0,0,0,.479-.081.662.662,0,0,0,.309-.221.512.512,0,0,0,.1-.307.466.466,0,0,0-.1-.294.717.717,0,0,0-.322-.211,6.168,6.168,0,0,0-.637-.175,3.247,3.247,0,0,1-.691-.224.966.966,0,0,1-.382-.333.817.817,0,0,1-.126-.446.91.91,0,0,1,.154-.506.95.95,0,0,1,.449-.357,1.692,1.692,0,0,1,.657-.123,1.789,1.789,0,0,1,.7.129,1.01,1.01,0,0,1,.467.377,1.085,1.085,0,0,1,.176.564l-.454.033a.731.731,0,0,0-.248-.512.962.962,0,0,0-.624-.174,1,1,0,0,0-.626.157.472.472,0,0,0-.2.38.407.407,0,0,0,.139.317,1.885,1.885,0,0,0,.714.255,4.66,4.66,0,0,1,.792.229,1.08,1.08,0,0,1,.461.365.889.889,0,0,1,.149.509.973.973,0,0,1-.164.538,1.075,1.075,0,0,1-.47.394,1.637,1.637,0,0,1-.69.14,2.071,2.071,0,0,1-.814-.141,1.147,1.147,0,0,1-.516-.427A1.208,1.208,0,0,1,339.932,304.012Z" transform="translate(-36.8 -29)"/><path class="cls-10" d="M343.372,305.162v-3.579h.439v1.284a.983.983,0,0,1,.776-.356,1.053,1.053,0,0,1,.5.113.668.668,0,0,1,.3.313,1.443,1.443,0,0,1,.092.582v1.643h-.439V303.52a.682.682,0,0,0-.143-.48.534.534,0,0,0-.4-.15.712.712,0,0,0-.367.1.568.568,0,0,0-.246.275,1.258,1.258,0,0,0-.073.479v1.418Z" transform="translate(-36.8 -29)"/><path class="cls-10" d="M345.989,303.865a1.336,1.336,0,0,1,.4-1.066,1.2,1.2,0,0,1,.815-.288,1.164,1.164,0,0,1,.874.351,1.332,1.332,0,0,1,.339.968,1.72,1.72,0,0,1-.15.787,1.07,1.07,0,0,1-.437.446,1.274,1.274,0,0,1-.626.158,1.163,1.163,0,0,1-.88-.35A1.392,1.392,0,0,1,345.989,303.865Zm.452,0a1.1,1.1,0,0,0,.217.746.723.723,0,0,0,1.091,0,1.129,1.129,0,0,0,.217-.759,1.07,1.07,0,0,0-.219-.729.725.725,0,0,0-1.09,0A1.1,1.1,0,0,0,346.441,303.865Z" transform="translate(-36.8 -29)"/><path class="cls-10" d="M349.412,305.162l-.793-2.593h.454l.413,1.5.154.557c.006-.028.051-.206.134-.535l.413-1.519h.452l.388,1.5.129.5.149-.5.444-1.5h.427l-.811,2.593h-.457l-.413-1.553-.1-.441-.525,1.994Z" transform="translate(-36.8 -29)"/><path class="cls-10" d="M354.319,304.327l.454.056a1.108,1.108,0,0,1-.4.618,1.347,1.347,0,0,1-1.644-.131,1.365,1.365,0,0,1-.333-.982,1.433,1.433,0,0,1,.337-1.016,1.14,1.14,0,0,1,.874-.361,1.108,1.108,0,0,1,.85.354,1.4,1.4,0,0,1,.33,1c0,.025,0,.064,0,.117h-1.934a1,1,0,0,0,.242.654.723.723,0,0,0,.542.227.67.67,0,0,0,.413-.127A.847.847,0,0,0,354.319,304.327Zm-1.443-.71h1.448a.878.878,0,0,0-.166-.491.674.674,0,0,0-.544-.254.7.7,0,0,0-.509.2A.806.806,0,0,0,352.876,303.617Z" transform="translate(-36.8 -29)"/><path class="cls-10" d="M355.32,305.162v-2.593h.4v.394a1.065,1.065,0,0,1,.28-.364.486.486,0,0,1,.282-.088.854.854,0,0,1,.452.142l-.151.408a.62.62,0,0,0-.322-.1.42.42,0,0,0-.259.087.468.468,0,0,0-.164.24,1.712,1.712,0,0,0-.073.513v1.357Z" transform="translate(-36.8 -29)"/></g><g id="Outline_Icons" data-name="Outline Icons"><line class="cls-13" x1="311.338" y1="256.183" x2="311.338" y2="256.865"/><line class="cls-13" x1="311.338" y1="257.79" x2="311.338" y2="258.52"/><line class="cls-13" x1="311.338" y1="259.446" x2="311.338" y2="260.128"/><line class="cls-13" x1="313.238" y1="256.183" x2="313.53" y2="256.816"/><line class="cls-13" x1="313.92" y1="257.644" x2="314.212" y2="258.277"/><line class="cls-13" x1="314.601" y1="259.154" x2="314.942" y2="259.787"/><line class="cls-13" x1="309.488" y1="256.183" x2="309.195" y2="256.816"/><line class="cls-13" x1="308.806" y1="257.644" x2="308.513" y2="258.277"/><line class="cls-13" x1="308.124" y1="259.154" x2="307.783" y2="259.787"/><line class="cls-13" x1="312.215" y1="256.183" x2="312.361" y2="256.865"/><line class="cls-13" x1="312.556" y1="257.79" x2="312.702" y2="258.472"/><line class="cls-13" x1="312.897" y1="259.397" x2="313.043" y2="260.079"/><line class="cls-13" x1="310.51" y1="256.183" x2="310.364" y2="256.865"/><line class="cls-13" x1="310.169" y1="257.79" x2="310.023" y2="258.472"/><line class="cls-13" x1="309.828" y1="259.397" x2="309.682" y2="260.079"/><path class="cls-13" d="M352.376,283.77H343.95l.39-.536a4.92,4.92,0,0,1,6.867-.779,5.892,5.892,0,0,1,.779.779Z" transform="translate(-36.8 -29)"/><polyline class="cls-13" points="310.413 252.53 310.9 251.507 311.825 251.507 312.312 252.53"/><line class="cls-13" x1="311.338" y1="251.507" x2="311.338" y2="250.533"/></g><circle class="cls-7" cx="522.1" cy="252.813" r="9"/><g class="cls-9"><path class="cls-10" d="M552.51,297.553v-3.579h.713l.847,2.534c.078.236.136.412.171.529q.062-.195.19-.573l.857-2.49h.637v3.579h-.456v-3l-1.04,3H554l-1.035-3.047v3.047Z" transform="translate(-36.8 -29)"/><path class="cls-10" d="M558.325,297.232a1.628,1.628,0,0,1-.47.293,1.35,1.35,0,0,1-.485.086.939.939,0,0,1-.656-.209.686.686,0,0,1-.229-.533.7.7,0,0,1,.087-.348.71.71,0,0,1,.227-.253,1.062,1.062,0,0,1,.316-.144,3.03,3.03,0,0,1,.391-.066,3.98,3.98,0,0,0,.783-.151q0-.091,0-.114a.485.485,0,0,0-.125-.379.733.733,0,0,0-.5-.148.778.778,0,0,0-.458.108.665.665,0,0,0-.219.384l-.43-.059a1.063,1.063,0,0,1,.193-.445.836.836,0,0,1,.388-.261,1.722,1.722,0,0,1,.589-.092,1.562,1.562,0,0,1,.539.078.614.614,0,0,1,.442.5,2.508,2.508,0,0,1,.021.406v.586a6.224,6.224,0,0,0,.028.774.969.969,0,0,0,.111.312h-.459A.912.912,0,0,1,558.325,297.232Zm-.037-.98a3.271,3.271,0,0,1-.718.166,1.58,1.58,0,0,0-.383.088.373.373,0,0,0-.234.352.374.374,0,0,0,.133.293.573.573,0,0,0,.39.117.9.9,0,0,0,.451-.111.689.689,0,0,0,.291-.3,1.064,1.064,0,0,0,.07-.439Z" transform="translate(-36.8 -29)"/><path class="cls-10" d="M559.416,294.479v-.5h.439v.5Zm0,3.074V294.96h.439v2.593Z" transform="translate(-36.8 -29)"/><path class="cls-10" d="M560.515,297.553v-3.579h.439v3.579Z" transform="translate(-36.8 -29)"/><path class="cls-10" d="M565.07,297.131a1.516,1.516,0,0,1-.474.362,1.289,1.289,0,0,1-.554.12,1.094,1.094,0,0,1-.872-.371,1.008,1.008,0,0,1-.261-.676.936.936,0,0,1,.214-.6,1.774,1.774,0,0,1,.638-.47,2.129,2.129,0,0,1-.322-.452.788.788,0,0,1-.08-.334.745.745,0,0,1,.253-.561.891.891,0,0,1,.636-.238.831.831,0,0,1,.6.225.724.724,0,0,1,.232.54q0,.51-.676.872l.642.817a2.014,2.014,0,0,0,.171-.5l.457.1a2.51,2.51,0,0,1-.317.771,2.566,2.566,0,0,0,.559.55l-.295.349A2.579,2.579,0,0,1,565.07,297.131Zm-.275-.348-.806-1a1.54,1.54,0,0,0-.481.395.634.634,0,0,0-.124.359.767.767,0,0,0,.173.452.576.576,0,0,0,.491.234.815.815,0,0,0,.409-.123A.991.991,0,0,0,564.795,296.783Zm-.618-1.518a1.173,1.173,0,0,0,.37-.3.5.5,0,0,0,.084-.28.4.4,0,0,0-.115-.3.4.4,0,0,0-.29-.116.409.409,0,0,0-.3.115.376.376,0,0,0-.119.281.413.413,0,0,0,.043.174.906.906,0,0,0,.128.194Z" transform="translate(-36.8 -29)"/><path class="cls-10" d="M549.771,302.553v-3.579h2.414v.423h-1.94V300.5h1.68v.423h-1.68v1.626Z" transform="translate(-36.8 -29)"/><path class="cls-10" d="M554.436,302.232a1.615,1.615,0,0,1-.47.293,1.345,1.345,0,0,1-.484.086.942.942,0,0,1-.657-.209.689.689,0,0,1-.229-.533.709.709,0,0,1,.087-.348.719.719,0,0,1,.227-.253,1.062,1.062,0,0,1,.316-.144,3.094,3.094,0,0,1,.391-.066,3.993,3.993,0,0,0,.784-.151c0-.061,0-.1,0-.114a.485.485,0,0,0-.124-.379.735.735,0,0,0-.5-.148.78.78,0,0,0-.458.108.664.664,0,0,0-.218.384l-.43-.059a1.074,1.074,0,0,1,.192-.445.84.84,0,0,1,.389-.261,1.716,1.716,0,0,1,.588-.092,1.568,1.568,0,0,1,.54.078.7.7,0,0,1,.3.2.682.682,0,0,1,.137.3,2.475,2.475,0,0,1,.022.406v.586a6.3,6.3,0,0,0,.027.774,1.018,1.018,0,0,0,.111.312h-.459A.956.956,0,0,1,554.436,302.232Zm-.036-.98a3.3,3.3,0,0,1-.718.166,1.6,1.6,0,0,0-.384.088.379.379,0,0,0-.173.143.372.372,0,0,0-.062.209.377.377,0,0,0,.133.293.573.573,0,0,0,.39.117.9.9,0,0,0,.452-.111.682.682,0,0,0,.29-.3,1.046,1.046,0,0,0,.071-.439Z" transform="translate(-36.8 -29)"/><path class="cls-10" d="M557.217,301.6l.432.056a1.118,1.118,0,0,1-.362.7,1.054,1.054,0,0,1-.717.253,1.115,1.115,0,0,1-.855-.348,1.412,1.412,0,0,1-.323-1,1.8,1.8,0,0,1,.139-.734.974.974,0,0,1,.424-.473,1.26,1.26,0,0,1,.619-.157,1.074,1.074,0,0,1,.69.214.979.979,0,0,1,.345.606l-.428.065a.7.7,0,0,0-.216-.393.56.56,0,0,0-.375-.132.68.68,0,0,0-.539.238,1.126,1.126,0,0,0-.208.753,1.173,1.173,0,0,0,.2.76.653.653,0,0,0,.522.236.619.619,0,0,0,.433-.158A.8.8,0,0,0,557.217,301.6Z" transform="translate(-36.8 -29)"/><path class="cls-10" d="M558.027,299.479v-.5h.439v.5Zm0,3.074V299.96h.439v2.593Z" transform="translate(-36.8 -29)"/><path class="cls-10" d="M559.126,302.553v-3.579h.439v3.579Z" transform="translate(-36.8 -29)"/><path class="cls-10" d="M560.249,299.479v-.5h.439v.5Zm0,3.074V299.96h.439v2.593Z" transform="translate(-36.8 -29)"/><path class="cls-10" d="M562.316,302.16l.063.388a1.6,1.6,0,0,1-.332.039.76.76,0,0,1-.371-.075.428.428,0,0,1-.186-.2,1.6,1.6,0,0,1-.054-.52V300.3h-.322v-.342h.322v-.642l.438-.264v.905h.441v.342h-.441v1.517a.8.8,0,0,0,.022.241.178.178,0,0,0,.076.085.289.289,0,0,0,.15.032A1.514,1.514,0,0,0,562.316,302.16Z" transform="translate(-36.8 -29)"/><path class="cls-10" d="M562.749,299.479v-.5h.439v.5Zm0,3.074V299.96h.439v2.593Z" transform="translate(-36.8 -29)"/><path class="cls-10" d="M565.632,301.718l.454.056a1.107,1.107,0,0,1-.4.618,1.2,1.2,0,0,1-.742.22,1.186,1.186,0,0,1-.9-.351,1.365,1.365,0,0,1-.333-.982,1.433,1.433,0,0,1,.337-1.016,1.139,1.139,0,0,1,.874-.361,1.108,1.108,0,0,1,.85.354,1.4,1.4,0,0,1,.329,1c0,.025,0,.064,0,.117h-1.934a1,1,0,0,0,.241.654.725.725,0,0,0,.542.227.672.672,0,0,0,.413-.127A.846.846,0,0,0,565.632,301.718Zm-1.442-.71h1.447a.874.874,0,0,0-.166-.491.674.674,0,0,0-.544-.254.7.7,0,0,0-.51.2A.808.808,0,0,0,564.189,301.008Z" transform="translate(-36.8 -29)"/><path class="cls-10" d="M566.462,301.779l.435-.068a.611.611,0,0,0,.2.4.716.716,0,0,0,.468.139.689.689,0,0,0,.449-.123.368.368,0,0,0,.146-.289.265.265,0,0,0-.13-.234,1.9,1.9,0,0,0-.449-.149,4.068,4.068,0,0,1-.67-.211.642.642,0,0,1-.38-.595.662.662,0,0,1,.08-.321.7.7,0,0,1,.216-.245.9.9,0,0,1,.279-.128,1.323,1.323,0,0,1,.38-.053,1.505,1.505,0,0,1,.536.088.726.726,0,0,1,.34.238.921.921,0,0,1,.151.4l-.43.059a.473.473,0,0,0-.169-.312.621.621,0,0,0-.4-.112.712.712,0,0,0-.432.1.289.289,0,0,0-.13.234.246.246,0,0,0,.054.153.393.393,0,0,0,.169.117c.044.017.173.054.388.112a5.416,5.416,0,0,1,.651.2.667.667,0,0,1,.289.23.649.649,0,0,1,.1.376.736.736,0,0,1-.128.414.826.826,0,0,1-.37.3,1.336,1.336,0,0,1-.547.106,1.216,1.216,0,0,1-.77-.21A.976.976,0,0,1,566.462,301.779Z" transform="translate(-36.8 -29)"/></g><g id="Outline_Icons-9" data-name="Outline Icons-9"><g id="Outline_Icons-10" data-name="Outline Icons-10"><path class="cls-14" d="M563.344,283.849a.556.556,0,0,1-.556.556h-6.3a.557.557,0,0,1-.557-.556v-5.191a.557.557,0,0,1,.556-.556h6.3a.557.557,0,0,1,.557.556h0Z" transform="translate(-36.8 -29)"/><polyline class="cls-14" points="526.362 249.288 522.841 252.625 519.319 249.288"/><path class="cls-14" d="M555.934,279.594h-.743a.372.372,0,0,0-.371.371v5.189a.374.374,0,0,0,.371.371h6.3a.372.372,0,0,0,.371-.371v-.743" transform="translate(-36.8 -29)"/></g></g><circle class="cls-7" cx="586.1" cy="189.93" r="9"/><g class="cls-9"><path class="cls-10" d="M611.248,234.669V231.09h1.587a2.106,2.106,0,0,1,.728.1.8.8,0,0,1,.4.34,1.023,1.023,0,0,1,.148.54.9.9,0,0,1-.246.642,1.246,1.246,0,0,1-.762.332,1.227,1.227,0,0,1,.285.179,2.488,2.488,0,0,1,.394.476l.622.975h-.6l-.474-.744q-.207-.322-.342-.494a1.044,1.044,0,0,0-.24-.238.691.691,0,0,0-.216-.1,1.384,1.384,0,0,0-.264-.018h-.55v1.59Zm.474-2h1.019a1.528,1.528,0,0,0,.508-.066.54.54,0,0,0,.278-.215.583.583,0,0,0,.095-.321.534.534,0,0,0-.184-.417.862.862,0,0,0-.583-.164h-1.133Z" transform="translate(-36.8 -29)"/><path class="cls-10" d="M616.57,233.834l.454.056a1.107,1.107,0,0,1-.4.618,1.2,1.2,0,0,1-.742.22,1.186,1.186,0,0,1-.9-.351,1.365,1.365,0,0,1-.333-.982,1.433,1.433,0,0,1,.337-1.016,1.139,1.139,0,0,1,.874-.361,1.108,1.108,0,0,1,.85.354,1.4,1.4,0,0,1,.329,1c0,.025,0,.064,0,.117H615.1a1,1,0,0,0,.241.654.725.725,0,0,0,.542.227.672.672,0,0,0,.413-.127A.846.846,0,0,0,616.57,233.834Zm-1.442-.71h1.447a.874.874,0,0,0-.166-.491.674.674,0,0,0-.544-.254.7.7,0,0,0-.51.2A.808.808,0,0,0,615.128,233.125Z" transform="translate(-36.8 -29)"/><path class="cls-10" d="M617.4,233.9l.435-.068a.611.611,0,0,0,.2.4.716.716,0,0,0,.468.139.689.689,0,0,0,.449-.123.368.368,0,0,0,.146-.289.265.265,0,0,0-.13-.234,1.9,1.9,0,0,0-.449-.149,4.068,4.068,0,0,1-.67-.211.642.642,0,0,1-.38-.595.662.662,0,0,1,.08-.321.7.7,0,0,1,.216-.245.9.9,0,0,1,.279-.128,1.323,1.323,0,0,1,.38-.053,1.505,1.505,0,0,1,.536.088.726.726,0,0,1,.34.238.921.921,0,0,1,.151.4l-.43.059a.473.473,0,0,0-.169-.312.621.621,0,0,0-.4-.112.712.712,0,0,0-.432.1.289.289,0,0,0-.13.234.246.246,0,0,0,.054.153.393.393,0,0,0,.169.117c.044.017.173.054.388.112a5.416,5.416,0,0,1,.651.2.667.667,0,0,1,.289.23.649.649,0,0,1,.1.376.736.736,0,0,1-.128.414.826.826,0,0,1-.37.3,1.336,1.336,0,0,1-.547.106,1.216,1.216,0,0,1-.77-.21A.976.976,0,0,1,617.4,233.9Z" transform="translate(-36.8 -29)"/><path class="cls-10" d="M621.036,234.277l.063.388a1.61,1.61,0,0,1-.332.039.758.758,0,0,1-.371-.075.423.423,0,0,1-.186-.2,1.569,1.569,0,0,1-.054-.52v-1.491h-.322v-.342h.322v-.642l.437-.264v.905h.442v.342h-.442v1.517a.757.757,0,0,0,.023.241.178.178,0,0,0,.076.085.285.285,0,0,0,.149.032A1.541,1.541,0,0,0,621.036,234.277Z" transform="translate(-36.8 -29)"/><path class="cls-10" d="M623.157,234.349a1.615,1.615,0,0,1-.47.293,1.345,1.345,0,0,1-.484.086.942.942,0,0,1-.657-.209.689.689,0,0,1-.229-.533.709.709,0,0,1,.087-.348.719.719,0,0,1,.227-.253,1.062,1.062,0,0,1,.316-.144,3.094,3.094,0,0,1,.391-.066,3.993,3.993,0,0,0,.784-.151c0-.061,0-.1,0-.114a.485.485,0,0,0-.124-.379.735.735,0,0,0-.5-.148.78.78,0,0,0-.458.108.664.664,0,0,0-.218.384l-.43-.059a1.074,1.074,0,0,1,.192-.445.84.84,0,0,1,.389-.261,1.716,1.716,0,0,1,.588-.092,1.568,1.568,0,0,1,.54.078.7.7,0,0,1,.3.2.682.682,0,0,1,.137.3,2.475,2.475,0,0,1,.022.406v.586a6.3,6.3,0,0,0,.027.774,1.018,1.018,0,0,0,.111.312h-.459A.956.956,0,0,1,623.157,234.349Zm-.036-.98a3.3,3.3,0,0,1-.718.166,1.6,1.6,0,0,0-.384.088.379.379,0,0,0-.173.143.372.372,0,0,0-.062.209.377.377,0,0,0,.133.293.573.573,0,0,0,.39.117.9.9,0,0,0,.452-.111.682.682,0,0,0,.29-.3,1.046,1.046,0,0,0,.071-.439Z" transform="translate(-36.8 -29)"/><path class="cls-10" d="M625.945,234.669v-.381a.947.947,0,0,1-.822.439,1.049,1.049,0,0,1-.429-.088.7.7,0,0,1-.295-.221.817.817,0,0,1-.136-.326,2.16,2.16,0,0,1-.027-.41v-1.606h.439v1.438a2.478,2.478,0,0,0,.027.463.453.453,0,0,0,.176.272.54.54,0,0,0,.332.1.726.726,0,0,0,.371-.1.565.565,0,0,0,.245-.276,1.384,1.384,0,0,0,.072-.506v-1.39h.439v2.593Z" transform="translate(-36.8 -29)"/><path class="cls-10" d="M627.022,234.669v-2.593h.4v.394a1.059,1.059,0,0,1,.279-.364.488.488,0,0,1,.282-.088.853.853,0,0,1,.451.142l-.151.408a.62.62,0,0,0-.322-.1.422.422,0,0,0-.259.087.467.467,0,0,0-.163.24,1.712,1.712,0,0,0-.073.513v1.357Z" transform="translate(-36.8 -29)"/><path class="cls-10" d="M630.384,234.349a1.615,1.615,0,0,1-.47.293,1.345,1.345,0,0,1-.484.086.942.942,0,0,1-.657-.209.689.689,0,0,1-.229-.533.709.709,0,0,1,.087-.348.719.719,0,0,1,.227-.253,1.062,1.062,0,0,1,.316-.144,3.094,3.094,0,0,1,.391-.066,3.993,3.993,0,0,0,.784-.151c0-.061,0-.1,0-.114a.485.485,0,0,0-.124-.379.735.735,0,0,0-.5-.148.78.78,0,0,0-.458.108.664.664,0,0,0-.218.384l-.43-.059a1.074,1.074,0,0,1,.192-.445.84.84,0,0,1,.389-.261,1.716,1.716,0,0,1,.588-.092,1.568,1.568,0,0,1,.54.078.7.7,0,0,1,.3.2.682.682,0,0,1,.137.3,2.475,2.475,0,0,1,.022.406v.586a6.3,6.3,0,0,0,.027.774,1.018,1.018,0,0,0,.111.312h-.459A.956.956,0,0,1,630.384,234.349Zm-.036-.98a3.3,3.3,0,0,1-.718.166,1.6,1.6,0,0,0-.384.088.379.379,0,0,0-.173.143.372.372,0,0,0-.062.209.377.377,0,0,0,.133.293.573.573,0,0,0,.39.117.9.9,0,0,0,.452-.111.682.682,0,0,0,.29-.3,1.046,1.046,0,0,0,.071-.439Z" transform="translate(-36.8 -29)"/><path class="cls-10" d="M631.473,234.669v-2.593h.4v.368a.933.933,0,0,1,.825-.427,1.1,1.1,0,0,1,.432.084.68.68,0,0,1,.294.222.861.861,0,0,1,.137.324,2.587,2.587,0,0,1,.024.428v1.594h-.439v-1.577a1.182,1.182,0,0,0-.052-.4.422.422,0,0,0-.182-.213.58.58,0,0,0-.307-.079.711.711,0,0,0-.484.179.878.878,0,0,0-.2.676v1.416Z" transform="translate(-36.8 -29)"/><path class="cls-10" d="M635.213,234.277l.063.388a1.6,1.6,0,0,1-.332.039.76.76,0,0,1-.371-.075.428.428,0,0,1-.186-.2,1.6,1.6,0,0,1-.054-.52v-1.491h-.322v-.342h.322v-.642l.438-.264v.905h.441v.342h-.441v1.517a.8.8,0,0,0,.022.241.178.178,0,0,0,.076.085.289.289,0,0,0,.15.032A1.514,1.514,0,0,0,635.213,234.277Z" transform="translate(-36.8 -29)"/></g><path class="cls-15" d="M618.728,221.346h8.436v.577a.551.551,0,0,1-.533.577h-7.326a.551.551,0,0,1-.577-.533h0v-.089h0Z" transform="translate(-36.8 -29)"/><path class="cls-15" d="M619.305,216.772h7.237a.551.551,0,0,1,.577.533h0v.666h-8.436v-.577a.551.551,0,0,1,.533-.577A.138.138,0,0,1,619.305,216.772Z" transform="translate(-36.8 -29)"/><path class="cls-15" d="M618.728,219.481l.577-.488a1.084,1.084,0,0,1,1.154,0l.355.222a1.084,1.084,0,0,0,1.154,0l.355-.222a1.084,1.084,0,0,1,1.154,0l.355.222a1.084,1.084,0,0,0,1.154,0l.355-.222a1.084,1.084,0,0,1,1.154,0l.577.488" transform="translate(-36.8 -29)"/><line class="cls-15" x1="581.706" y1="191.413" x2="590.675" y2="191.413"/><line class="cls-15" x1="586.146" y1="186.618" x2="586.146" y2="186.973"/><circle class="cls-15" cx="586.146" cy="185.908" r="0.577"/><circle class="cls-7" cx="20.221" cy="229.871" r="9"/><g class="cls-9"><path class="cls-10" d="M48.43,274.61v-3.579h2.588v.423H48.9v1.1h1.98v.42H48.9v1.219h2.2v.422Z" transform="translate(-36.8 -29)"/><path class="cls-10" d="M51.689,274.61v-3.579h.439v3.579Z" transform="translate(-36.8 -29)"/><path class="cls-10" d="M54.585,273.775l.454.056a1.108,1.108,0,0,1-.4.618A1.347,1.347,0,0,1,53,274.318a1.365,1.365,0,0,1-.333-.982A1.433,1.433,0,0,1,53,272.32a1.14,1.14,0,0,1,.874-.361,1.108,1.108,0,0,1,.85.354,1.4,1.4,0,0,1,.33,1c0,.025,0,.064,0,.117H53.118a1,1,0,0,0,.242.654.723.723,0,0,0,.542.227.67.67,0,0,0,.413-.127A.847.847,0,0,0,54.585,273.775Zm-1.443-.71H54.59a.878.878,0,0,0-.166-.491.674.674,0,0,0-.544-.254.7.7,0,0,0-.509.2A.806.806,0,0,0,53.142,273.065Z" transform="translate(-36.8 -29)"/><path class="cls-10" d="M56.311,274.61l-.986-2.593h.464l.557,1.553q.09.252.166.522.059-.205.164-.493l.576-1.582H57.7l-.981,2.593Z" transform="translate(-36.8 -29)"/><path class="cls-10" d="M59.783,274.29a1.621,1.621,0,0,1-.47.293,1.347,1.347,0,0,1-.485.086.94.94,0,0,1-.657-.209.688.688,0,0,1-.229-.533.7.7,0,0,1,.087-.348.714.714,0,0,1,.227-.253,1.062,1.062,0,0,1,.316-.144,3.061,3.061,0,0,1,.391-.066,3.987,3.987,0,0,0,.784-.151c0-.061,0-.1,0-.114a.485.485,0,0,0-.125-.379.734.734,0,0,0-.5-.148.779.779,0,0,0-.458.108.665.665,0,0,0-.218.384l-.43-.059a1.068,1.068,0,0,1,.193-.445.838.838,0,0,1,.388-.261,1.719,1.719,0,0,1,.588-.092,1.565,1.565,0,0,1,.54.078.706.706,0,0,1,.305.2.693.693,0,0,1,.137.3,2.491,2.491,0,0,1,.022.406v.586a6.264,6.264,0,0,0,.028.774.993.993,0,0,0,.111.312h-.459A.934.934,0,0,1,59.783,274.29Zm-.037-.98a3.285,3.285,0,0,1-.718.166,1.592,1.592,0,0,0-.383.088.381.381,0,0,0-.173.143.389.389,0,0,0,.072.5.573.573,0,0,0,.39.117.9.9,0,0,0,.452-.111.686.686,0,0,0,.291-.3,1.055,1.055,0,0,0,.071-.439Z" transform="translate(-36.8 -29)"/><path class="cls-10" d="M61.831,274.218l.063.388a1.606,1.606,0,0,1-.332.039.759.759,0,0,1-.371-.075.426.426,0,0,1-.186-.2,1.583,1.583,0,0,1-.054-.52v-1.491H60.63v-.342h.322v-.642l.437-.264v.905h.442v.342h-.442v1.517a.778.778,0,0,0,.023.241.178.178,0,0,0,.076.085.287.287,0,0,0,.15.032A1.527,1.527,0,0,0,61.831,274.218Z" transform="translate(-36.8 -29)"/><path class="cls-10" d="M62.1,273.313a1.336,1.336,0,0,1,.4-1.066,1.2,1.2,0,0,1,.815-.288,1.164,1.164,0,0,1,.874.351,1.332,1.332,0,0,1,.339.968,1.72,1.72,0,0,1-.15.787,1.07,1.07,0,0,1-.437.446,1.274,1.274,0,0,1-.626.158,1.163,1.163,0,0,1-.88-.35A1.392,1.392,0,0,1,62.1,273.313Zm.452,0a1.1,1.1,0,0,0,.217.746.723.723,0,0,0,1.091,0,1.129,1.129,0,0,0,.217-.759,1.07,1.07,0,0,0-.219-.729.725.725,0,0,0-1.09,0A1.1,1.1,0,0,0,62.549,273.313Z" transform="translate(-36.8 -29)"/><path class="cls-10" d="M65.037,274.61v-2.593h.4v.394a1.065,1.065,0,0,1,.28-.364.486.486,0,0,1,.282-.088.854.854,0,0,1,.452.142l-.151.408a.62.62,0,0,0-.322-.1.42.42,0,0,0-.259.087.468.468,0,0,0-.164.24,1.712,1.712,0,0,0-.073.513v1.357Z" transform="translate(-36.8 -29)"/></g><rect class="cls-11" x="16.101" y="225.663" width="8.609" height="8.609" rx="0.307" ry="0.307"/><rect class="cls-11" x="17.859" y="227.625" width="2.218" height="6.549"/><rect class="cls-11" x="20.078" y="227.625" width="2.218" height="6.549"/><line class="cls-11" x1="19.652" y1="226.614" x2="21.173" y2="226.614"/><polyline class="cls-12" points="23.155 230.16 23.566 229.775 23.977 230.16"/><polyline class="cls-12" points="23.155 230.707 23.566 231.092 23.977 230.707"/><circle class="cls-7" cx="20.221" cy="261.039" r="9"/><g class="cls-9"><path class="cls-10" d="M48.43,305.777V302.2h2.588v.422H48.9v1.1h1.98v.42H48.9v1.219h2.2v.422Z" transform="translate(-36.8 -29)"/><path class="cls-10" d="M51.689,305.777V302.2h.439v3.578Z" transform="translate(-36.8 -29)"/><path class="cls-10" d="M54.585,304.943l.454.055a1.111,1.111,0,0,1-.4.619A1.351,1.351,0,0,1,53,305.486a1.367,1.367,0,0,1-.333-.982A1.429,1.429,0,0,1,53,303.488a1.136,1.136,0,0,1,.874-.361,1.107,1.107,0,0,1,.85.354,1.408,1.408,0,0,1,.33,1c0,.025,0,.064,0,.117H53.118a1,1,0,0,0,.242.654.723.723,0,0,0,.542.227.664.664,0,0,0,.413-.127A.839.839,0,0,0,54.585,304.943Zm-1.443-.711H54.59a.874.874,0,0,0-.166-.49.672.672,0,0,0-.544-.254.7.7,0,0,0-.509.2A.808.808,0,0,0,53.142,304.232Z" transform="translate(-36.8 -29)"/><path class="cls-10" d="M56.311,305.777l-.986-2.592h.464l.557,1.553q.09.252.166.521.059-.205.164-.492l.576-1.582H57.7l-.981,2.592Z" transform="translate(-36.8 -29)"/><path class="cls-10" d="M59.783,305.457a1.621,1.621,0,0,1-.47.293,1.327,1.327,0,0,1-.485.086.936.936,0,0,1-.657-.209.688.688,0,0,1-.229-.533.722.722,0,0,1,.313-.6,1.064,1.064,0,0,1,.316-.145,3.061,3.061,0,0,1,.391-.066,3.929,3.929,0,0,0,.784-.15c0-.061,0-.1,0-.115a.487.487,0,0,0-.125-.379.734.734,0,0,0-.5-.148.778.778,0,0,0-.458.109.662.662,0,0,0-.218.383l-.43-.059a1.068,1.068,0,0,1,.193-.445.837.837,0,0,1,.388-.26,1.7,1.7,0,0,1,.588-.092,1.542,1.542,0,0,1,.54.078.612.612,0,0,1,.442.494,2.5,2.5,0,0,1,.022.406v.586a6.3,6.3,0,0,0,.028.775,1,1,0,0,0,.111.311h-.459A.927.927,0,0,1,59.783,305.457Zm-.037-.98a3.229,3.229,0,0,1-.718.166,1.592,1.592,0,0,0-.383.088.387.387,0,0,0-.173.143.389.389,0,0,0,.072.5.573.573,0,0,0,.39.117.9.9,0,0,0,.452-.111.686.686,0,0,0,.291-.3,1.049,1.049,0,0,0,.071-.439Z" transform="translate(-36.8 -29)"/><path class="cls-10" d="M61.831,305.385l.063.389a1.676,1.676,0,0,1-.332.039.747.747,0,0,1-.371-.076.426.426,0,0,1-.186-.2,1.583,1.583,0,0,1-.054-.52v-1.49H60.63v-.342h.322v-.643l.437-.264v.906h.442v.342h-.442v1.516a.79.79,0,0,0,.023.242.176.176,0,0,0,.076.084.287.287,0,0,0,.15.033A1.389,1.389,0,0,0,61.831,305.385Z" transform="translate(-36.8 -29)"/><path class="cls-10" d="M62.1,304.48a1.339,1.339,0,0,1,.4-1.066,1.209,1.209,0,0,1,.815-.287,1.167,1.167,0,0,1,.874.35,1.336,1.336,0,0,1,.339.969,1.72,1.72,0,0,1-.15.787,1.063,1.063,0,0,1-.437.445,1.274,1.274,0,0,1-.626.158,1.159,1.159,0,0,1-.88-.35A1.39,1.39,0,0,1,62.1,304.48Zm.452,0a1.1,1.1,0,0,0,.217.746.724.724,0,0,0,1.091,0,1.132,1.132,0,0,0,.217-.76,1.067,1.067,0,0,0-.219-.729.724.724,0,0,0-1.09,0A1.1,1.1,0,0,0,62.549,304.48Z" transform="translate(-36.8 -29)"/><path class="cls-10" d="M65.037,305.777v-2.592h.4v.393a1.069,1.069,0,0,1,.28-.363.486.486,0,0,1,.282-.088.861.861,0,0,1,.452.141l-.151.408a.62.62,0,0,0-.322-.1.415.415,0,0,0-.259.088.46.46,0,0,0-.164.24,1.705,1.705,0,0,0-.073.512v1.357Z" transform="translate(-36.8 -29)"/></g><rect class="cls-11" x="16.101" y="256.831" width="8.609" height="8.609" rx="0.307" ry="0.307"/><rect class="cls-11" x="17.859" y="258.793" width="2.218" height="6.549"/><rect class="cls-11" x="20.078" y="258.793" width="2.218" height="6.549"/><line class="cls-11" x1="19.652" y1="257.782" x2="21.173" y2="257.782"/><polyline class="cls-12" points="23.155 261.328 23.566 260.943 23.977 261.328"/><polyline class="cls-12" points="23.155 261.875 23.566 262.26 23.977 261.875"/><circle class="cls-7" cx="20.221" cy="291.9" r="9"/><g class="cls-9"><path class="cls-10" d="M48.43,336.639V333.06h2.588v.423H48.9v1.1h1.98V335H48.9v1.219h2.2v.422Z" transform="translate(-36.8 -29)"/><path class="cls-10" d="M51.689,336.639V333.06h.439v3.579Z" transform="translate(-36.8 -29)"/><path class="cls-10" d="M54.585,335.8l.454.056a1.108,1.108,0,0,1-.4.618A1.347,1.347,0,0,1,53,336.347a1.365,1.365,0,0,1-.333-.982A1.433,1.433,0,0,1,53,334.349a1.14,1.14,0,0,1,.874-.361,1.108,1.108,0,0,1,.85.354,1.4,1.4,0,0,1,.33,1c0,.025,0,.064,0,.117H53.118a1,1,0,0,0,.242.654.723.723,0,0,0,.542.227.67.67,0,0,0,.413-.127A.847.847,0,0,0,54.585,335.8Zm-1.443-.71H54.59a.878.878,0,0,0-.166-.491.674.674,0,0,0-.544-.254.7.7,0,0,0-.509.2A.806.806,0,0,0,53.142,335.094Z" transform="translate(-36.8 -29)"/><path class="cls-10" d="M56.311,336.639l-.986-2.593h.464l.557,1.553q.09.252.166.522.059-.205.164-.493l.576-1.582H57.7l-.981,2.593Z" transform="translate(-36.8 -29)"/><path class="cls-10" d="M59.783,336.318a1.621,1.621,0,0,1-.47.293,1.347,1.347,0,0,1-.485.086.94.94,0,0,1-.657-.209.688.688,0,0,1-.229-.533.7.7,0,0,1,.087-.348.714.714,0,0,1,.227-.253,1.062,1.062,0,0,1,.316-.144,3.061,3.061,0,0,1,.391-.066,3.987,3.987,0,0,0,.784-.151c0-.061,0-.1,0-.114a.485.485,0,0,0-.125-.379.734.734,0,0,0-.5-.148.779.779,0,0,0-.458.108.665.665,0,0,0-.218.384l-.43-.059a1.068,1.068,0,0,1,.193-.445.838.838,0,0,1,.388-.261,1.719,1.719,0,0,1,.588-.092,1.565,1.565,0,0,1,.54.078.706.706,0,0,1,.305.2.693.693,0,0,1,.137.3,2.491,2.491,0,0,1,.022.406v.586a6.264,6.264,0,0,0,.028.774.993.993,0,0,0,.111.312h-.459A.934.934,0,0,1,59.783,336.318Zm-.037-.98a3.285,3.285,0,0,1-.718.166,1.592,1.592,0,0,0-.383.088.381.381,0,0,0-.173.143.389.389,0,0,0,.072.5.573.573,0,0,0,.39.117.9.9,0,0,0,.452-.111.686.686,0,0,0,.291-.3,1.055,1.055,0,0,0,.071-.439Z" transform="translate(-36.8 -29)"/><path class="cls-10" d="M61.831,336.246l.063.388a1.606,1.606,0,0,1-.332.039.759.759,0,0,1-.371-.075.426.426,0,0,1-.186-.2,1.583,1.583,0,0,1-.054-.52v-1.491H60.63v-.342h.322V333.4l.437-.264v.905h.442v.342h-.442V335.9a.778.778,0,0,0,.023.241.178.178,0,0,0,.076.085.287.287,0,0,0,.15.032A1.527,1.527,0,0,0,61.831,336.246Z" transform="translate(-36.8 -29)"/><path class="cls-10" d="M62.1,335.342a1.336,1.336,0,0,1,.4-1.066,1.2,1.2,0,0,1,.815-.288,1.164,1.164,0,0,1,.874.351,1.332,1.332,0,0,1,.339.968,1.72,1.72,0,0,1-.15.787,1.07,1.07,0,0,1-.437.446,1.274,1.274,0,0,1-.626.158,1.163,1.163,0,0,1-.88-.35A1.392,1.392,0,0,1,62.1,335.342Zm.452,0a1.1,1.1,0,0,0,.217.746.723.723,0,0,0,1.091,0,1.129,1.129,0,0,0,.217-.759,1.07,1.07,0,0,0-.219-.729.725.725,0,0,0-1.09,0A1.1,1.1,0,0,0,62.549,335.342Z" transform="translate(-36.8 -29)"/><path class="cls-10" d="M65.037,336.639v-2.593h.4v.394a1.065,1.065,0,0,1,.28-.364.486.486,0,0,1,.282-.088.854.854,0,0,1,.452.142l-.151.408a.62.62,0,0,0-.322-.1.42.42,0,0,0-.259.087.468.468,0,0,0-.164.24,1.712,1.712,0,0,0-.073.513v1.357Z" transform="translate(-36.8 -29)"/></g><rect class="cls-11" x="16.101" y="287.693" width="8.609" height="8.609" rx="0.307" ry="0.307"/><rect class="cls-11" x="17.859" y="289.654" width="2.218" height="6.549"/><rect class="cls-11" x="20.078" y="289.654" width="2.218" height="6.549"/><line class="cls-11" x1="19.652" y1="288.643" x2="21.173" y2="288.643"/><polyline class="cls-12" points="23.155 292.19 23.566 291.805 23.977 292.19"/><polyline class="cls-12" points="23.155 292.736 23.566 293.121 23.977 292.736"/><circle class="cls-7" cx="272" cy="263.068" r="9"/><g id="Outline_Icons-5-3-2" data-name="Outline Icons-5-3"><path class="cls-8" d="M312,292.268c0,.1-.1.3-.2.3H310v-3.7a.684.684,0,0,1,.7-.7h.7a.684.684,0,0,1,.7.7h0l-.1,3.4Z" transform="translate(-36.8 -29)"/><path class="cls-8" d="M307.3,295.968h3.4v-2l1-.7v-.7h-5.8a1.579,1.579,0,0,0,1.5,1.7h.1Z" transform="translate(-36.8 -29)"/><rect class="cls-8" x="268.8" y="262.968" width="4.4" height="0.7"/><circle class="cls-8" cx="274.4" cy="260.368" r="0.3"/></g><g class="cls-9"><path class="cls-10" d="M298.541,307.807v-3.579h1.587a2.108,2.108,0,0,1,.728.1.8.8,0,0,1,.4.34,1.019,1.019,0,0,1,.149.54.9.9,0,0,1-.247.642.423.423,0,1,0-.476.511,2.487,2.487,0,0,1,.393.476l.623.975h-.6l-.474-.744q-.207-.322-.342-.494a1.054,1.054,0,0,0-.241-.238.691.691,0,0,0-.216-.1,1.384,1.384,0,0,0-.264-.018h-.549v1.59Zm.474-2h1.018a1.526,1.526,0,0,0,.508-.066.54.54,0,0,0,.278-.215.583.583,0,0,0,.1-.321.533.533,0,0,0-.184-.417.862.862,0,0,0-.583-.164h-1.133Z" transform="translate(-36.8 -29)"/><path class="cls-10" d="M303.863,306.972l.454.056a1.108,1.108,0,0,1-.4.618,1.347,1.347,0,0,1-1.644-.131,1.365,1.365,0,0,1-.333-.982,1.433,1.433,0,0,1,.337-1.016,1.14,1.14,0,0,1,.874-.361,1.108,1.108,0,0,1,.85.354,1.4,1.4,0,0,1,.33,1c0,.025,0,.064,0,.117H302.4a1,1,0,0,0,.242.654.723.723,0,0,0,.542.227.67.67,0,0,0,.413-.127A.847.847,0,0,0,303.863,306.972Zm-1.443-.71h1.448a.878.878,0,0,0-.166-.491.674.674,0,0,0-.544-.254.7.7,0,0,0-.509.2A.806.806,0,0,0,302.42,306.262Z" transform="translate(-36.8 -29)"/><path class="cls-10" d="M304.693,307.033l.435-.068a.611.611,0,0,0,.2.4.717.717,0,0,0,.468.139.688.688,0,0,0,.449-.123.368.368,0,0,0,.146-.289.266.266,0,0,0-.129-.234,1.911,1.911,0,0,0-.449-.149,4.078,4.078,0,0,1-.67-.211.64.64,0,0,1-.379-.595.667.667,0,0,1,.08-.321.708.708,0,0,1,.216-.245.9.9,0,0,1,.279-.128,1.325,1.325,0,0,1,.38-.053,1.5,1.5,0,0,1,.536.088.727.727,0,0,1,.34.238.927.927,0,0,1,.151.4l-.43.059a.471.471,0,0,0-.169-.312.62.62,0,0,0-.4-.112.714.714,0,0,0-.432.1.29.29,0,0,0-.129.234.244.244,0,0,0,.054.153.391.391,0,0,0,.168.117c.044.017.173.054.388.112a5.431,5.431,0,0,1,.651.2.661.661,0,0,1,.289.23.645.645,0,0,1,.1.376.736.736,0,0,1-.128.414.824.824,0,0,1-.37.3,1.338,1.338,0,0,1-.547.106,1.219,1.219,0,0,1-.77-.21A.975.975,0,0,1,304.693,307.033Z" transform="translate(-36.8 -29)"/><path class="cls-10" d="M308.329,307.414l.063.388a1.606,1.606,0,0,1-.332.039.759.759,0,0,1-.371-.075.426.426,0,0,1-.186-.2,1.583,1.583,0,0,1-.054-.52v-1.491h-.322v-.342h.322v-.642l.437-.264v.905h.442v.342h-.442v1.517a.778.778,0,0,0,.023.241.178.178,0,0,0,.076.085.287.287,0,0,0,.15.032A1.527,1.527,0,0,0,308.329,307.414Z" transform="translate(-36.8 -29)"/><path class="cls-10" d="M308.753,307.807v-2.593h.4v.394a1.065,1.065,0,0,1,.28-.364.486.486,0,0,1,.282-.088.854.854,0,0,1,.452.142l-.151.408a.62.62,0,0,0-.322-.1.42.42,0,0,0-.259.087.468.468,0,0,0-.164.24,1.712,1.712,0,0,0-.073.513v1.357Z" transform="translate(-36.8 -29)"/><path class="cls-10" d="M310.26,306.51a1.336,1.336,0,0,1,.4-1.066,1.2,1.2,0,0,1,.815-.288,1.164,1.164,0,0,1,.874.351,1.332,1.332,0,0,1,.339.968,1.72,1.72,0,0,1-.15.787,1.07,1.07,0,0,1-.437.446,1.274,1.274,0,0,1-.626.158,1.163,1.163,0,0,1-.88-.35A1.392,1.392,0,0,1,310.26,306.51Zm.452,0a1.1,1.1,0,0,0,.217.746.723.723,0,0,0,1.091,0,1.129,1.129,0,0,0,.217-.759,1.07,1.07,0,0,0-.219-.729.725.725,0,0,0-1.09,0A1.1,1.1,0,0,0,310.711,306.51Z" transform="translate(-36.8 -29)"/><path class="cls-10" d="M313.041,306.51a1.336,1.336,0,0,1,.4-1.066,1.2,1.2,0,0,1,.815-.288,1.164,1.164,0,0,1,.874.351,1.332,1.332,0,0,1,.339.968,1.72,1.72,0,0,1-.15.787,1.07,1.07,0,0,1-.437.446,1.274,1.274,0,0,1-.626.158,1.163,1.163,0,0,1-.88-.35A1.392,1.392,0,0,1,313.041,306.51Zm.452,0a1.1,1.1,0,0,0,.217.746.723.723,0,0,0,1.091,0,1.129,1.129,0,0,0,.217-.759,1.07,1.07,0,0,0-.219-.729.725.725,0,0,0-1.09,0A1.1,1.1,0,0,0,313.492,306.51Z" transform="translate(-36.8 -29)"/><path class="cls-10" d="M315.985,307.807v-2.593h.393v.364a.914.914,0,0,1,.786-.423.852.852,0,0,1,.473.12.636.636,0,0,1,.26.334.931.931,0,0,1,.8-.454.788.788,0,0,1,.593.214.914.914,0,0,1,.208.658v1.779h-.437v-1.633a1.21,1.21,0,0,0-.042-.38.369.369,0,0,0-.155-.187.478.478,0,0,0-.264-.071.615.615,0,0,0-.454.182.8.8,0,0,0-.181.583v1.506h-.439v-1.685a.74.74,0,0,0-.107-.439.407.407,0,0,0-.352-.146.634.634,0,0,0-.343.1.553.553,0,0,0-.229.286,1.6,1.6,0,0,0-.071.541v1.346Z" transform="translate(-36.8 -29)"/></g><circle class="cls-7" cx="660.1" cy="58.807" r="9"/><g class="cls-9"><path class="cls-10" d="M690.918,102.4l.447-.039a.983.983,0,0,0,.147.441.811.811,0,0,0,.36.278,1.369,1.369,0,0,0,.549.106,1.314,1.314,0,0,0,.479-.081.659.659,0,0,0,.309-.221.509.509,0,0,0,.1-.307.464.464,0,0,0-.1-.294.712.712,0,0,0-.322-.211,6.145,6.145,0,0,0-.637-.175,3.243,3.243,0,0,1-.691-.224.97.97,0,0,1-.382-.333.817.817,0,0,1-.126-.446.911.911,0,0,1,.154-.506.947.947,0,0,1,.449-.357,1.69,1.69,0,0,1,.656-.123,1.787,1.787,0,0,1,.7.129,1.014,1.014,0,0,1,.468.377,1.094,1.094,0,0,1,.176.564l-.454.033a.732.732,0,0,0-.248-.512.961.961,0,0,0-.624-.174,1,1,0,0,0-.626.157.473.473,0,0,0-.2.38.406.406,0,0,0,.139.317,1.888,1.888,0,0,0,.714.255,4.67,4.67,0,0,1,.793.229,1.078,1.078,0,0,1,.461.365.886.886,0,0,1,.149.509.97.97,0,0,1-.164.538,1.072,1.072,0,0,1-.47.394,1.635,1.635,0,0,1-.689.14,2.072,2.072,0,0,1-.814-.141,1.15,1.15,0,0,1-.516-.427A1.213,1.213,0,0,1,690.918,102.4Z" transform="translate(-36.8 -29)"/><path class="cls-10" d="M695.317,103.154l.063.388a1.6,1.6,0,0,1-.332.039.76.76,0,0,1-.371-.075.428.428,0,0,1-.186-.2,1.6,1.6,0,0,1-.054-.52V101.3h-.322v-.342h.322v-.642l.438-.264v.905h.441v.342h-.441v1.517a.8.8,0,0,0,.022.241.178.178,0,0,0,.076.085.289.289,0,0,0,.15.032A1.514,1.514,0,0,0,695.317,103.154Z" transform="translate(-36.8 -29)"/><path class="cls-10" d="M697.439,103.226a1.628,1.628,0,0,1-.47.293,1.35,1.35,0,0,1-.485.086.939.939,0,0,1-.656-.209.686.686,0,0,1-.229-.533.7.7,0,0,1,.087-.348.71.71,0,0,1,.227-.253,1.062,1.062,0,0,1,.316-.144,3.03,3.03,0,0,1,.391-.066,3.98,3.98,0,0,0,.783-.151q0-.091,0-.114a.485.485,0,0,0-.125-.379.733.733,0,0,0-.5-.148.778.778,0,0,0-.458.108.665.665,0,0,0-.219.384l-.43-.059a1.063,1.063,0,0,1,.193-.445.836.836,0,0,1,.388-.261,1.722,1.722,0,0,1,.589-.092,1.562,1.562,0,0,1,.539.078.614.614,0,0,1,.442.5,2.508,2.508,0,0,1,.021.406v.586a6.224,6.224,0,0,0,.028.774.969.969,0,0,0,.111.312h-.459A.912.912,0,0,1,697.439,103.226Zm-.037-.98a3.271,3.271,0,0,1-.718.166,1.58,1.58,0,0,0-.383.088.373.373,0,0,0-.234.352.374.374,0,0,0,.133.293.573.573,0,0,0,.39.117.9.9,0,0,0,.451-.111.689.689,0,0,0,.291-.3,1.064,1.064,0,0,0,.07-.439Z" transform="translate(-36.8 -29)"/><path class="cls-10" d="M698.53,100.472v-.5h.439v.5Zm0,3.074v-2.593h.439v2.593Z" transform="translate(-36.8 -29)"/><path class="cls-10" d="M699.634,103.546v-2.593h.4v.394a1.071,1.071,0,0,1,.28-.364.485.485,0,0,1,.281-.088.856.856,0,0,1,.452.142l-.151.408a.62.62,0,0,0-.322-.1.418.418,0,0,0-.259.087.469.469,0,0,0-.164.24,1.712,1.712,0,0,0-.073.513v1.357Z" transform="translate(-36.8 -29)"/><path class="cls-10" d="M701.128,102.773l.435-.068a.611.611,0,0,0,.2.4.716.716,0,0,0,.468.139.689.689,0,0,0,.449-.123.368.368,0,0,0,.146-.289.265.265,0,0,0-.13-.234,1.9,1.9,0,0,0-.449-.149,4.068,4.068,0,0,1-.67-.211.642.642,0,0,1-.38-.595.662.662,0,0,1,.08-.321.7.7,0,0,1,.216-.245.9.9,0,0,1,.279-.128,1.323,1.323,0,0,1,.38-.053,1.505,1.505,0,0,1,.536.088.726.726,0,0,1,.34.238.921.921,0,0,1,.151.4l-.43.059a.473.473,0,0,0-.169-.312.621.621,0,0,0-.4-.112.712.712,0,0,0-.432.1.289.289,0,0,0-.13.234.246.246,0,0,0,.054.153.393.393,0,0,0,.169.117c.044.017.173.054.388.112a5.416,5.416,0,0,1,.651.2.667.667,0,0,1,.289.23.649.649,0,0,1,.1.376.736.736,0,0,1-.128.414.826.826,0,0,1-.37.3,1.336,1.336,0,0,1-.547.106,1.216,1.216,0,0,1-.77-.21A.976.976,0,0,1,701.128,102.773Z" transform="translate(-36.8 -29)"/></g><g id="Outline_Icons-2-2-4-2-2-2-3-2" data-name="Outline Icons-2-2-4-2-2-2-3"><line class="cls-8" x1="656.639" y1="61.83" x2="662.939" y2="61.83"/><polyline class="cls-8" points="661.839 61.83 661.839 60.73 660.739 60.73 660.739 59.63 659.639 59.63 659.639 58.53 658.539 58.53 658.539 57.43 656.639 57.43"/><line class="cls-8" x1="659.939" y1="55.53" x2="663.339" y2="58.93"/><polyline class="cls-8" points="659.939 56.93 659.939 55.53 661.339 55.53"/><polyline class="cls-8" points="663.339 57.63 663.339 58.93 662.039 58.93"/></g></g></svg>