<svg id="Layer_1" data-name="Layer 1" xmlns="http://www.w3.org/2000/svg" viewBox="0 0 753.637 710.054"><defs><style>.cls-1{fill:#4095b0;}.cls-2{fill:#aae0e4;}.cls-3{fill:#8eccce;}.cls-4{fill:#99b8bf;}.cls-5{fill:#030303;opacity:0.05;}.cls-14,.cls-17,.cls-21,.cls-24,.cls-28,.cls-5,.cls-9{isolation:isolate;}.cls-6{fill:#b8bfc1;}.cls-7{fill:#fff;}.cls-12,.cls-13,.cls-22,.cls-23,.cls-25,.cls-26,.cls-30,.cls-31,.cls-32,.cls-33,.cls-8{fill:none;}.cls-8{stroke:#dadcdc;stroke-width:0.507px;}.cls-12,.cls-13,.cls-22,.cls-25,.cls-26,.cls-30,.cls-31,.cls-32,.cls-33,.cls-8{stroke-miterlimit:10;}.cls-9{fill:#010101;}.cls-14,.cls-9{opacity:0.15;}.cls-10{fill:#596068;}.cls-11{fill:#9baeb7;}.cls-12,.cls-13,.cls-22{stroke:#7a8e93;}.cls-12,.cls-13,.cls-16,.cls-18,.cls-19,.cls-20,.cls-22,.cls-23{stroke-linecap:round;}.cls-12{stroke-width:1.87px;}.cls-13{stroke-width:1.887px;}.cls-14,.cls-15{fill:#0d5577;}.cls-16{fill:#7dcfe2;stroke-width:0.977px;}.cls-16,.cls-19{stroke:#53c5f1;}.cls-16,.cls-18,.cls-19,.cls-20,.cls-23{stroke-linejoin:round;}.cls-17{fill:#53c5f1;opacity:0.43;}.cls-18{fill:#4fafc6;stroke-width:0.781px;}.cls-18,.cls-23{stroke:#5798a3;}.cls-19{fill:#83d8ef;stroke-width:0.67px;}.cls-20{fill:#4e9fb9;stroke:#4a90a0;stroke-width:0.674px;}.cls-21{fill:#4196b1;opacity:0.4;}.cls-23{stroke-width:3px;}.cls-24{fill:#575757;opacity:0.74;}.cls-25,.cls-26{stroke:#f7f7f7;}.cls-25{stroke-width:8px;}.cls-26{stroke-width:4px;}.cls-27{fill:#eaf1f1;}.cls-29{fill:#767e7f;}.cls-30,.cls-31,.cls-32,.cls-33{stroke:#7a8d92;}.cls-30{stroke-width:0.333px;}.cls-31{stroke-width:0.402px;}.cls-32{stroke-width:0.336px;}.cls-33{stroke-width:0.23px;}</style></defs><title>Zurich-L5-EDIT2</title><g id="shadow"><polygon class="cls-1" points="12.478 0.949 255.116 17.708 334.295 5.641 334.295 283.182 527.429 283.182 527.429 323.155 745.912 307.93 753.209 689.694 731.709 710.054 26.376 710.054 0.248 690.283 12.478 0.949"/></g><g id="background"><polygon class="cls-2" points="16.473 4.643 257.187 16.314 335.237 4.643 335.237 273.076 525.62 273.076 525.62 311.736 742.263 311.736 749.558 685.937 4.073 685.937 16.473 4.643"/></g><g id="spaces"><polygon class="cls-3" points="16.473 4.643 138.198 8.751 138.198 329.578 10.559 329.578 16.473 4.643"/><polygon class="cls-3" points="192.89 13.196 192.89 282.096 335.237 282.096 335.237 4.643 259.212 14.919 192.89 13.196"/><polygon class="cls-3" points="193.286 319.717 239.864 319.717 239.864 381.14 193.286 380.101 193.286 319.717"/><polygon class="cls-3" points="192.968 488.562 276.337 488.562 276.337 478.802 307.255 478.802 307.255 447.114 325.61 447.114 325.61 341.314 267.429 341.314 267.429 408.538 237.992 408.538 239.864 381.14 193.286 380.101 192.968 488.562"/><rect class="cls-3" x="365.783" y="354.127" width="32.625" height="101.817"/><rect class="cls-3" x="421.249" y="320.165" width="43.031" height="55.535"/><rect class="cls-4" x="267.429" y="318.984" width="58.181" height="21.094"/><polygon class="cls-3" points="398.408 319.883 398.408 492.944 421.249 492.944 421.249 320.165 398.408 319.883"/><polygon class="cls-4" points="742.263 311.736 749.558 685.937 4.073 688.911 7.665 490.562 421.249 490.562 421.249 375.7 421.249 320.165 464.28 320.165 524.043 320.165 524.043 311.736 742.263 311.736"/></g><g id="Furniture"><g id="tables_copy_3" data-name="tables copy 3"><path class="cls-5" d="M80.991,152.913h54.178A2.789,2.789,0,0,1,138,155.659h0v30.293a2.789,2.789,0,0,1-2.746,2.829H80.991a2.789,2.789,0,0,1-2.829-2.746h0V155.743a2.806,2.806,0,0,1,2.782-2.83Z" transform="translate(-32.291 -41.946)"/><path class="cls-6" d="M80.991,151.332h54.178A2.789,2.789,0,0,1,138,154.078h0v30.293a2.789,2.789,0,0,1-2.746,2.83H80.991a2.789,2.789,0,0,1-2.829-2.746h0V154.162a2.806,2.806,0,0,1,2.782-2.83Z" transform="translate(-32.291 -41.946)"/><path id="table-23" class="cls-7" d="M107.539,150.333H80.575a2.488,2.488,0,0,0-2.5,2.414v16.561h29.461Z" transform="translate(-32.291 -41.946)"/><path id="table-24" class="cls-7" d="M138.082,169.308V152.83a2.489,2.489,0,0,0-2.414-2.5H107.206V169.3Z" transform="translate(-32.291 -41.946)"/><path id="table-25" class="cls-7" d="M107.206,169.308v16.977h28.379a2.487,2.487,0,0,0,2.5-2.413V169.308Z" transform="translate(-32.291 -41.946)"/><path id="table-26" class="cls-7" d="M78.162,169.308v14.481a2.487,2.487,0,0,0,2.413,2.5h27.047V169.308Z" transform="translate(-32.291 -41.946)"/><line class="cls-8" x1="75.248" y1="108.387" x2="75.248" y2="144.339"/><line class="cls-8" x1="45.871" y1="127.362" x2="105.791" y2="127.362"/></g><g id="chairs_copy_3" data-name="chairs copy 3"><path class="cls-9" d="M94.473,191.945H91.228a4.339,4.339,0,0,0-4.494,4.077h0v.25l.166,3a5.7,5.7,0,0,0,5.909,5.243h0a5.761,5.761,0,0,0,5.992-5.16l.166-3a4.351,4.351,0,0,0-4.244-4.41Z" transform="translate(-32.291 -41.946)"/><path class="cls-10" d="M94.473,191.528H91.228a4.341,4.341,0,0,0-4.494,4.078h0v.25l.166,3a5.7,5.7,0,0,0,5.909,5.243h0a5.762,5.762,0,0,0,5.992-5.16l.166-3a4.353,4.353,0,0,0-4.244-4.411Z" transform="translate(-32.291 -41.946)"/><path class="cls-11" d="M94.39,190.2h-3a4.212,4.212,0,0,0-4.161,4.078h0v.166l.166,3a5.552,5.552,0,0,0,5.493,5.243h0a5.48,5.48,0,0,0,5.493-5.16l.166-3A4.157,4.157,0,0,0,94.64,190.2Z" transform="translate(-32.291 -41.946)"/><path class="cls-12" d="M87.233,193.859l.249,3.578a5.552,5.552,0,0,0,5.493,5.243h0a5.48,5.48,0,0,0,5.493-5.16l.249-3.578" transform="translate(-32.291 -41.946)"/><path class="cls-9" d="M124.433,191.945h-3.245a4.339,4.339,0,0,0-4.494,4.077h0v.25l.166,3a5.7,5.7,0,0,0,5.909,5.243h0a5.761,5.761,0,0,0,5.992-5.16l.166-3a4.351,4.351,0,0,0-4.244-4.41Z" transform="translate(-32.291 -41.946)"/><path class="cls-10" d="M124.433,191.528h-3.245a4.341,4.341,0,0,0-4.494,4.078h0v.25l.166,3a5.7,5.7,0,0,0,5.909,5.243h0a5.762,5.762,0,0,0,5.992-5.16l.166-3a4.353,4.353,0,0,0-4.244-4.411Z" transform="translate(-32.291 -41.946)"/><path class="cls-11" d="M124.267,190.2h-3a4.212,4.212,0,0,0-4.161,4.078h0v.166l.166,3a5.552,5.552,0,0,0,5.493,5.243h0a5.478,5.478,0,0,0,5.492-5.16l.167-3a4.023,4.023,0,0,0-3.7-4.324l-.047,0h-.412Z" transform="translate(-32.291 -41.946)"/><path class="cls-12" d="M117.11,193.859l.249,3.578a5.552,5.552,0,0,0,5.493,5.243h0a5.48,5.48,0,0,0,5.493-5.16l.249-3.578" transform="translate(-32.291 -41.946)"/><path class="cls-9" d="M93.974,149.251l-3-.083a4.192,4.192,0,0,1-4.079-4.3v-.192l.25-3a5.693,5.693,0,0,1,5.659-5.16h0a5.626,5.626,0,0,1,5.409,5.41l.083,3a4.087,4.087,0,0,1-3.911,4.244h-.167Z" transform="translate(-32.291 -41.946)"/><path class="cls-10" d="M93.974,148.752l-3-.083a4.193,4.193,0,0,1-4.079-4.3v-.024h0v-.166l.25-3A5.557,5.557,0,0,1,92.8,136.1h0a5.626,5.626,0,0,1,5.409,5.41l.083,3a4.174,4.174,0,0,1-4.078,4.244Z" transform="translate(-32.291 -41.946)"/><path class="cls-11" d="M93.974,148.17l-3-.084a4.192,4.192,0,0,1-4.079-4.3v-.025h0v-.25l.25-3a5.556,5.556,0,0,1,5.659-5.076h0a5.625,5.625,0,0,1,5.409,5.409l.083,3a4.174,4.174,0,0,1-4.078,4.244A.3.3,0,0,1,93.974,148.17Z" transform="translate(-32.291 -41.946)"/><path class="cls-13" d="M86.817,144.175l.333-3.579a5.557,5.557,0,0,1,5.659-5.076h0a5.625,5.625,0,0,1,5.409,5.409l.167,3.579" transform="translate(-32.291 -41.946)"/><path class="cls-9" d="M123.684,149.251l-3-.083a4.192,4.192,0,0,1-4.079-4.3v-.192l.25-3a5.557,5.557,0,0,1,5.659-5.076h0a5.626,5.626,0,0,1,5.41,5.409l.083,3a4.089,4.089,0,0,1-3.912,4.244Z" transform="translate(-32.291 -41.946)"/><path class="cls-10" d="M123.684,148.835l-3-.083a4.192,4.192,0,0,1-4.079-4.3v-.025h0v-.167l.25-3a5.557,5.557,0,0,1,5.659-5.076h0a5.626,5.626,0,0,1,5.41,5.409l.083,3a4.157,4.157,0,0,1-4,4.244Z" transform="translate(-32.291 -41.946)"/><path class="cls-11" d="M123.684,148.253l-3-.083a4.194,4.194,0,0,1-4.079-4.306v-.022h0v-.25l.25-3a5.558,5.558,0,0,1,5.659-5.076h0a5.626,5.626,0,0,1,5.41,5.409l.083,3a4.159,4.159,0,0,1-4,4.245h-.083A.307.307,0,0,1,123.684,148.253Z" transform="translate(-32.291 -41.946)"/><path class="cls-13" d="M116.527,144.258l.333-3.578a5.558,5.558,0,0,1,5.659-5.077h0a5.626,5.626,0,0,1,5.41,5.409l.166,3.579" transform="translate(-32.291 -41.946)"/></g><g id="tables_copy_3-2" data-name="tables copy 3-2"><path class="cls-5" d="M76.807,317.538h54.177a2.789,2.789,0,0,1,2.83,2.746v30.293a2.789,2.789,0,0,1-2.747,2.829H76.807a2.789,2.789,0,0,1-2.83-2.746h0V320.367a2.806,2.806,0,0,1,2.783-2.829Z" transform="translate(-32.291 -41.946)"/><path class="cls-6" d="M76.807,315.956h54.177a2.79,2.79,0,0,1,2.83,2.747h0V349a2.789,2.789,0,0,1-2.747,2.829H76.807a2.789,2.789,0,0,1-2.83-2.746h0v-30.3a2.807,2.807,0,0,1,2.784-2.83h.046Z" transform="translate(-32.291 -41.946)"/><path id="table-23-2" class="cls-7" d="M103.354,314.958H76.39a2.487,2.487,0,0,0-2.5,2.413v16.561h29.46Z" transform="translate(-32.291 -41.946)"/><path id="table-24-2" class="cls-7" d="M133.9,333.932V317.454a2.487,2.487,0,0,0-2.413-2.5H103.022v18.974Z" transform="translate(-32.291 -41.946)"/><path id="table-25-2" class="cls-7" d="M103.022,333.932V350.91H131.4a2.488,2.488,0,0,0,2.5-2.414V333.932Z" transform="translate(-32.291 -41.946)"/><path id="table-26-2" class="cls-7" d="M73.977,333.932v14.481a2.488,2.488,0,0,0,2.413,2.5h27.048V333.932Z" transform="translate(-32.291 -41.946)"/><line class="cls-8" x1="71.063" y1="273.012" x2="71.063" y2="308.964"/><line class="cls-8" x1="41.686" y1="291.986" x2="101.606" y2="291.986"/></g><g id="chairs_copy_3-2" data-name="chairs copy 3-2"><path class="cls-9" d="M90.289,356.569H87.043a4.341,4.341,0,0,0-4.494,4.078h0v.249l.166,3a5.7,5.7,0,0,0,5.909,5.243h0a5.761,5.761,0,0,0,5.992-5.159l.167-3a4.352,4.352,0,0,0-4.245-4.411Z" transform="translate(-32.291 -41.946)"/><path class="cls-10" d="M90.289,356.153H87.043a4.341,4.341,0,0,0-4.494,4.078h0v.249l.166,3a5.7,5.7,0,0,0,5.909,5.243h0a5.761,5.761,0,0,0,5.992-5.159l.167-3a4.352,4.352,0,0,0-4.245-4.411Z" transform="translate(-32.291 -41.946)"/><path class="cls-11" d="M90.205,354.821h-3a4.212,4.212,0,0,0-4.161,4.078h0v.167l.167,3a5.552,5.552,0,0,0,5.492,5.243h0a5.479,5.479,0,0,0,5.493-5.16l.166-3a4.158,4.158,0,0,0-3.911-4.328Z" transform="translate(-32.291 -41.946)"/><path class="cls-12" d="M83.048,358.483l.25,3.579a5.552,5.552,0,0,0,5.493,5.243h0a5.479,5.479,0,0,0,5.492-5.16l.25-3.579" transform="translate(-32.291 -41.946)"/><path class="cls-9" d="M120.249,356.569H117a4.341,4.341,0,0,0-4.494,4.078h0v.249l.166,3a5.7,5.7,0,0,0,5.909,5.243h0a5.761,5.761,0,0,0,5.992-5.159l.167-3a4.352,4.352,0,0,0-4.245-4.411Z" transform="translate(-32.291 -41.946)"/><path class="cls-10" d="M120.249,356.153H117a4.341,4.341,0,0,0-4.494,4.078h0v.249l.166,3a5.7,5.7,0,0,0,5.909,5.243h0a5.761,5.761,0,0,0,5.992-5.159l.167-3a4.352,4.352,0,0,0-4.245-4.411Z" transform="translate(-32.291 -41.946)"/><path class="cls-11" d="M120.082,354.821h-3a4.212,4.212,0,0,0-4.161,4.078h0v.167l.166,3a5.553,5.553,0,0,0,5.493,5.243h0a5.48,5.48,0,0,0,5.493-5.16l.166-3a4.024,4.024,0,0,0-3.7-4.325l-.046,0h-.412Z" transform="translate(-32.291 -41.946)"/><path class="cls-12" d="M112.925,358.483l.25,3.579a5.552,5.552,0,0,0,5.492,5.243h0a5.479,5.479,0,0,0,5.493-5.16l.25-3.579" transform="translate(-32.291 -41.946)"/><path class="cls-9" d="M89.789,313.876l-3-.083a4.194,4.194,0,0,1-4.079-4.306V309.3l.25-3a5.693,5.693,0,0,1,5.659-5.16h0a5.626,5.626,0,0,1,5.41,5.409l.083,3a4.09,4.09,0,0,1-3.912,4.245h-.166Z" transform="translate(-32.291 -41.946)"/><path class="cls-10" d="M89.789,313.376l-3-.083a4.192,4.192,0,0,1-4.079-4.3v-.025h0V308.8l.25-3a5.557,5.557,0,0,1,5.659-5.076h0a5.626,5.626,0,0,1,5.41,5.409l.083,3a4.174,4.174,0,0,1-4.078,4.244Z" transform="translate(-32.291 -41.946)"/><path class="cls-11" d="M89.789,312.794l-3-.083a4.193,4.193,0,0,1-4.079-4.3v-.024h0v-.25l.25-3a5.558,5.558,0,0,1,5.659-5.077h0a5.626,5.626,0,0,1,5.41,5.409l.083,3a4.174,4.174,0,0,1-4.078,4.245A.307.307,0,0,1,89.789,312.794Z" transform="translate(-32.291 -41.946)"/><path class="cls-13" d="M82.632,308.8l.333-3.578a5.558,5.558,0,0,1,5.659-5.077h0a5.626,5.626,0,0,1,5.41,5.41l.166,3.578" transform="translate(-32.291 -41.946)"/><path class="cls-9" d="M119.5,313.876l-3-.083a4.192,4.192,0,0,1-4.079-4.3V309.3l.249-3a5.559,5.559,0,0,1,5.659-5.077h0a5.626,5.626,0,0,1,5.41,5.409l.083,3a4.089,4.089,0,0,1-3.911,4.245Z" transform="translate(-32.291 -41.946)"/><path class="cls-10" d="M119.5,313.46l-3-.084a4.191,4.191,0,0,1-4.079-4.3v-.027h0v-.167l.249-3a5.559,5.559,0,0,1,5.659-5.076h0a5.626,5.626,0,0,1,5.41,5.409l.083,3a4.159,4.159,0,0,1-4,4.245Z" transform="translate(-32.291 -41.946)"/><path class="cls-11" d="M119.5,312.877l-3-.083a4.191,4.191,0,0,1-4.079-4.3v-.028h0v-.249l.249-3a5.559,5.559,0,0,1,5.659-5.077h0a5.626,5.626,0,0,1,5.41,5.41l.083,3a4.157,4.157,0,0,1-4,4.244h-.083A.3.3,0,0,1,119.5,312.877Z" transform="translate(-32.291 -41.946)"/><path class="cls-13" d="M112.342,308.882l.333-3.578a5.559,5.559,0,0,1,5.659-5.077h0a5.626,5.626,0,0,1,5.41,5.41l.166,3.578" transform="translate(-32.291 -41.946)"/></g><g id="tables_copy_3-3" data-name="tables copy 3-3"><path class="cls-5" d="M79.581,237.389h54.177a2.79,2.79,0,0,1,2.83,2.747v30.293a2.789,2.789,0,0,1-2.746,2.829H79.581a2.789,2.789,0,0,1-2.83-2.746h0V240.219a2.807,2.807,0,0,1,2.784-2.83h.046Z" transform="translate(-32.291 -41.946)"/><path class="cls-6" d="M79.581,235.808h54.177a2.789,2.789,0,0,1,2.83,2.746h0v30.293a2.789,2.789,0,0,1-2.746,2.83H79.581a2.789,2.789,0,0,1-2.83-2.746h0V238.638a2.806,2.806,0,0,1,2.782-2.83Z" transform="translate(-32.291 -41.946)"/><path id="table-23-3" class="cls-7" d="M106.129,234.809H79.165a2.488,2.488,0,0,0-2.5,2.414v16.561h29.461Z" transform="translate(-32.291 -41.946)"/><path id="table-24-3" class="cls-7" d="M136.671,253.784V237.306a2.488,2.488,0,0,0-2.413-2.5H105.8v18.975Z" transform="translate(-32.291 -41.946)"/><path id="table-25-3" class="cls-7" d="M105.8,253.784v16.977h28.379a2.487,2.487,0,0,0,2.5-2.413V253.784Z" transform="translate(-32.291 -41.946)"/><path id="table-26-3" class="cls-7" d="M76.751,253.784v14.481a2.488,2.488,0,0,0,2.414,2.5h27.047V253.784Z" transform="translate(-32.291 -41.946)"/><line class="cls-8" x1="73.838" y1="192.863" x2="73.838" y2="228.815"/><line class="cls-8" x1="44.46" y1="211.838" x2="104.38" y2="211.838"/></g><g id="chairs_copy_3-3" data-name="chairs copy 3-3"><path class="cls-9" d="M93.063,276.421H89.817a4.34,4.34,0,0,0-4.494,4.077h0v.25l.167,3a5.7,5.7,0,0,0,5.908,5.243h0a5.761,5.761,0,0,0,5.992-5.16l.167-3a4.352,4.352,0,0,0-4.245-4.41Z" transform="translate(-32.291 -41.946)"/><path class="cls-10" d="M93.063,276H89.817a4.341,4.341,0,0,0-4.494,4.078h0v.25l.167,3a5.7,5.7,0,0,0,5.908,5.243h0a5.762,5.762,0,0,0,5.992-5.16l.167-3A4.353,4.353,0,0,0,93.312,276Z" transform="translate(-32.291 -41.946)"/><path class="cls-11" d="M92.979,274.673h-3a4.213,4.213,0,0,0-4.161,4.078h0v.166l.167,3a5.551,5.551,0,0,0,5.493,5.243h0a5.479,5.479,0,0,0,5.5-5.16l.167-3a4.158,4.158,0,0,0-3.912-4.327Z" transform="translate(-32.291 -41.946)"/><path class="cls-12" d="M85.822,278.335l.25,3.578a5.551,5.551,0,0,0,5.493,5.243h0A5.479,5.479,0,0,0,97.057,282l.25-3.578" transform="translate(-32.291 -41.946)"/><path class="cls-9" d="M123.023,276.421h-3.246a4.34,4.34,0,0,0-4.494,4.077h0v.25l.167,3a5.7,5.7,0,0,0,5.908,5.243h0a5.761,5.761,0,0,0,5.992-5.16l.167-3a4.352,4.352,0,0,0-4.245-4.41Z" transform="translate(-32.291 -41.946)"/><path class="cls-10" d="M123.023,276h-3.246a4.341,4.341,0,0,0-4.494,4.078h0v.25l.167,3a5.7,5.7,0,0,0,5.908,5.243h0a5.762,5.762,0,0,0,5.992-5.16l.167-3A4.353,4.353,0,0,0,123.272,276Z" transform="translate(-32.291 -41.946)"/><path class="cls-11" d="M122.856,274.673h-3a4.212,4.212,0,0,0-4.161,4.078h0v.166l.167,3a5.551,5.551,0,0,0,5.492,5.243h0a5.479,5.479,0,0,0,5.493-5.16l.166-3a4.023,4.023,0,0,0-3.7-4.324l-.047,0h-.412Z" transform="translate(-32.291 -41.946)"/><path class="cls-12" d="M115.7,278.335l.25,3.578a5.551,5.551,0,0,0,5.493,5.243h0a5.479,5.479,0,0,0,5.492-5.16l.25-3.578" transform="translate(-32.291 -41.946)"/><path class="cls-9" d="M92.563,233.727l-3-.083a4.192,4.192,0,0,1-4.079-4.3v-.192l.25-3a5.693,5.693,0,0,1,5.659-5.16h0a5.627,5.627,0,0,1,5.41,5.41l.083,3a4.089,4.089,0,0,1-3.912,4.244h-.166Z" transform="translate(-32.291 -41.946)"/><path class="cls-10" d="M92.563,233.228l-3-.083a4.193,4.193,0,0,1-4.079-4.3v-.024h0v-.166l.25-3a5.558,5.558,0,0,1,5.659-5.077h0a5.627,5.627,0,0,1,5.41,5.41l.083,3a4.174,4.174,0,0,1-4.078,4.244Z" transform="translate(-32.291 -41.946)"/><path class="cls-11" d="M92.563,232.646l-3-.084a4.192,4.192,0,0,1-4.079-4.3v-.025h0v-.25l.25-3a5.557,5.557,0,0,1,5.659-5.076h0a5.626,5.626,0,0,1,5.41,5.409l.083,3a4.174,4.174,0,0,1-4.078,4.244A.3.3,0,0,1,92.563,232.646Z" transform="translate(-32.291 -41.946)"/><path class="cls-13" d="M85.406,228.651l.333-3.579A5.558,5.558,0,0,1,91.4,220h0a5.626,5.626,0,0,1,5.41,5.409l.166,3.579" transform="translate(-32.291 -41.946)"/><path class="cls-9" d="M122.274,233.727l-3-.083a4.192,4.192,0,0,1-4.079-4.3v-.192l.25-3a5.556,5.556,0,0,1,5.659-5.076h0a5.625,5.625,0,0,1,5.409,5.409l.083,3a4.087,4.087,0,0,1-3.911,4.244Z" transform="translate(-32.291 -41.946)"/><path class="cls-10" d="M122.274,233.311l-3-.083a4.192,4.192,0,0,1-4.075-4.306V228.9h0v-.167l.25-3a5.556,5.556,0,0,1,5.659-5.076h0a5.625,5.625,0,0,1,5.409,5.409l.083,3a4.156,4.156,0,0,1-3.994,4.244Z" transform="translate(-32.291 -41.946)"/><path class="cls-11" d="M122.274,232.729l-3-.083a4.194,4.194,0,0,1-4.079-4.306v-.022h0v-.25l.25-3A5.557,5.557,0,0,1,121.109,220h0a5.625,5.625,0,0,1,5.409,5.409l.083,3a4.157,4.157,0,0,1-3.994,4.245h-.084A.3.3,0,0,1,122.274,232.729Z" transform="translate(-32.291 -41.946)"/><path class="cls-13" d="M115.117,228.734l.333-3.578a5.557,5.557,0,0,1,5.659-5.077h0a5.625,5.625,0,0,1,5.409,5.409l.167,3.579" transform="translate(-32.291 -41.946)"/></g><g id="tables_copy_3-4" data-name="tables copy 3-4"><path class="cls-5" d="M285.087,81.864h54.178a2.789,2.789,0,0,1,2.829,2.746V114.9a2.789,2.789,0,0,1-2.746,2.829H285.087a2.789,2.789,0,0,1-2.829-2.746h0V84.693a2.806,2.806,0,0,1,2.783-2.829Z" transform="translate(-32.291 -41.946)"/><path class="cls-6" d="M285.087,80.282h54.178a2.789,2.789,0,0,1,2.829,2.747h0v30.293a2.789,2.789,0,0,1-2.746,2.829H285.087a2.789,2.789,0,0,1-2.829-2.746h0V83.112a2.806,2.806,0,0,1,2.782-2.83Z" transform="translate(-32.291 -41.946)"/><path id="table-23-4" class="cls-7" d="M311.635,79.284H284.671a2.488,2.488,0,0,0-2.5,2.413V98.258h29.461Z" transform="translate(-32.291 -41.946)"/><path id="table-24-4" class="cls-7" d="M342.178,98.258V81.78a2.488,2.488,0,0,0-2.414-2.5H311.3V98.258Z" transform="translate(-32.291 -41.946)"/><path id="table-25-4" class="cls-7" d="M311.3,98.258v16.978h28.379a2.488,2.488,0,0,0,2.5-2.414V98.258Z" transform="translate(-32.291 -41.946)"/><path id="table-26-4" class="cls-7" d="M282.258,98.258v14.481a2.487,2.487,0,0,0,2.413,2.5h27.047V98.258Z" transform="translate(-32.291 -41.946)"/><line class="cls-8" x1="279.344" y1="37.338" x2="279.344" y2="73.29"/><line class="cls-8" x1="249.967" y1="56.312" x2="309.887" y2="56.312"/></g><g id="chairs_copy_3-4" data-name="chairs copy 3-4"><path class="cls-9" d="M298.569,120.9h-3.245a4.34,4.34,0,0,0-4.494,4.078h0v.249l.166,3a5.7,5.7,0,0,0,5.909,5.243h0a5.761,5.761,0,0,0,5.995-5.17l.166-3a4.352,4.352,0,0,0-4.244-4.411Z" transform="translate(-32.291 -41.946)"/><path class="cls-10" d="M298.569,120.479h-3.245a4.339,4.339,0,0,0-4.494,4.078h0v.249l.166,3a5.7,5.7,0,0,0,5.909,5.243h0a5.761,5.761,0,0,0,5.992-5.16l.166-3a4.351,4.351,0,0,0-4.244-4.41Z" transform="translate(-32.291 -41.946)"/><path class="cls-11" d="M298.486,119.147h-3a4.212,4.212,0,0,0-4.161,4.078h0v.166l.166,3a5.552,5.552,0,0,0,5.493,5.243h0a5.48,5.48,0,0,0,5.493-5.159l.166-3a4.158,4.158,0,0,0-3.911-4.328Z" transform="translate(-32.291 -41.946)"/><path class="cls-12" d="M291.329,122.809l.249,3.578a5.552,5.552,0,0,0,5.493,5.243h0a5.48,5.48,0,0,0,5.493-5.159l.249-3.579" transform="translate(-32.291 -41.946)"/><path class="cls-9" d="M328.529,120.9h-3.245a4.34,4.34,0,0,0-4.494,4.078h0v.249l.166,3a5.7,5.7,0,0,0,5.909,5.243h0a5.761,5.761,0,0,0,5.992-5.159l.166-3a4.352,4.352,0,0,0-4.244-4.411Z" transform="translate(-32.291 -41.946)"/><path class="cls-10" d="M328.529,120.479h-3.245a4.339,4.339,0,0,0-4.494,4.078h0v.249l.166,3a5.7,5.7,0,0,0,5.909,5.243h0a5.761,5.761,0,0,0,5.992-5.16l.166-3a4.351,4.351,0,0,0-4.244-4.41Z" transform="translate(-32.291 -41.946)"/><path class="cls-11" d="M328.363,119.147h-3a4.212,4.212,0,0,0-4.161,4.078h0v.166l.166,3a5.552,5.552,0,0,0,5.493,5.243h0a5.478,5.478,0,0,0,5.492-5.159l.167-3a4.025,4.025,0,0,0-3.7-4.325l-.044,0h-.412Z" transform="translate(-32.291 -41.946)"/><path class="cls-12" d="M321.206,122.809l.249,3.578a5.552,5.552,0,0,0,5.493,5.243h0a5.48,5.48,0,0,0,5.493-5.159l.249-3.579" transform="translate(-32.291 -41.946)"/><path class="cls-9" d="M298.07,78.2l-3-.083A4.194,4.194,0,0,1,291,73.8v-.178l.25-3a5.693,5.693,0,0,1,5.659-5.16h0a5.625,5.625,0,0,1,5.409,5.409l.083,3a4.087,4.087,0,0,1-3.911,4.244h-.167Z" transform="translate(-32.291 -41.946)"/><path class="cls-10" d="M298.07,77.7l-3-.083a4.192,4.192,0,0,1-4.07-4.31v-.015h0v-.167l.25-3a5.556,5.556,0,0,1,5.659-5.076h0a5.625,5.625,0,0,1,5.409,5.409l.083,3a4.174,4.174,0,0,1-4.078,4.244Z" transform="translate(-32.291 -41.946)"/><path class="cls-11" d="M298.07,77.12l-3-.083A4.194,4.194,0,0,1,291,72.723v-.014h0v-.25l.25-3a5.557,5.557,0,0,1,5.659-5.076h0a5.625,5.625,0,0,1,5.409,5.409l.083,3a4.174,4.174,0,0,1-4.078,4.245A.3.3,0,0,1,298.07,77.12Z" transform="translate(-32.291 -41.946)"/><path class="cls-13" d="M290.913,73.125l.333-3.578A5.557,5.557,0,0,1,296.9,64.47h0a5.626,5.626,0,0,1,5.409,5.41l.167,3.578" transform="translate(-32.291 -41.946)"/><path class="cls-9" d="M327.78,78.2l-3-.083a4.194,4.194,0,0,1-4.079-4.306v-.188l.25-3a5.558,5.558,0,0,1,5.659-5.077h0a5.626,5.626,0,0,1,5.41,5.409l.083,3a4.089,4.089,0,0,1-3.9,4.245Z" transform="translate(-32.291 -41.946)"/><path class="cls-10" d="M327.78,77.786l-3-.084a4.192,4.192,0,0,1-4.079-4.3v-.025h0v-.167l.25-3a5.558,5.558,0,0,1,5.659-5.076h0a5.626,5.626,0,0,1,5.41,5.409l.083,3a4.159,4.159,0,0,1-4,4.245Z" transform="translate(-32.291 -41.946)"/><path class="cls-11" d="M327.78,77.2l-3-.083a4.193,4.193,0,0,1-4.079-4.3v-.024h0V72.54l.25-3a5.558,5.558,0,0,1,5.659-5.077h0a5.626,5.626,0,0,1,5.41,5.41l.083,3a4.157,4.157,0,0,1-4,4.244h-.083A.307.307,0,0,1,327.78,77.2Z" transform="translate(-32.291 -41.946)"/><path class="cls-13" d="M320.623,73.208l.333-3.578a5.558,5.558,0,0,1,5.659-5.077h0a5.627,5.627,0,0,1,5.41,5.41l.166,3.578" transform="translate(-32.291 -41.946)"/></g><path class="cls-14" d="M119.78,451.55a.51.51,0,0,0-.019-.679l-.808-.812a5.153,5.153,0,0,0-6.01-.858l-7.158,3.834a5.08,5.08,0,0,0-2.568,5.423l.264,1.152.026.166a.435.435,0,0,0,.589.179l.032-.019h0l.236-.122,4.552,8.5h0a1.133,1.133,0,0,0,1.614.517l.083-.013h0l12.812-6.925h0a1.131,1.131,0,0,0,.517-1.613l-.013-.083h0l-4.552-8.5.237-.122C119.71,451.646,119.71,451.646,119.78,451.55Z" transform="translate(-32.291 -41.946)"/><path class="cls-15" d="M118.366,451.768h0a.509.509,0,0,0-.02-.678l-.807-.812a5.153,5.153,0,0,0-6.01-.858l-7.158,3.834a5.08,5.08,0,0,0-2.568,5.423l.264,1.152.026.166a.435.435,0,0,0,.589.179l.032-.019h0l.236-.122,4.552,8.5a1.132,1.132,0,0,0,1.614.516l.083-.012,12.812-6.925a1.131,1.131,0,0,0,.517-1.613l-.013-.083h0l-4.552-8.5.237-.122.166-.026Z" transform="translate(-32.291 -41.946)"/><path class="cls-16" d="M106.235,468.042l-4.4-8.091h0a3.218,3.218,0,0,1,1.274-4.369l.008,0h0l9.276-5.013h0a3.216,3.216,0,0,1,4.367,1.272l.005.01h0l4.4,8.092h0a1.783,1.783,0,0,1-.733,2.413h0l-11.866,6.437A1.839,1.839,0,0,1,106.235,468.042Z" transform="translate(-32.291 -41.946)"/><path class="cls-17" d="M116.913,451.738l.808.812.1.07a.435.435,0,0,1-.128.6l-.032.019h0l-7.388,3.444a7.342,7.342,0,0,0-1.184.609l-6.914,4.307-.166.026a.471.471,0,0,1-.564-.339l-.263-1.151a5.081,5.081,0,0,1,2.567-5.424l7.158-3.834A5.155,5.155,0,0,1,116.913,451.738Z" transform="translate(-32.291 -41.946)"/><path class="cls-18" d="M116.432,450.279l.807.812a.51.51,0,0,1,.02.679c-.083.012-.083.012-.07.1l-7.389,3.443a7.421,7.421,0,0,0-1.183.61L101.7,460.23l-.166.026a.471.471,0,0,1-.563-.339l-.264-1.152a5.08,5.08,0,0,1,2.568-5.423l7.158-3.834A5.117,5.117,0,0,1,116.432,450.279Z" transform="translate(-32.291 -41.946)"/><path class="cls-14" d="M147.626,418.142H86.216c-1.181,0-2.067-.7-2.067-1.5v-19.9h65.543v19.8c.148.8-.59,1.5-1.771,1.6Z" transform="translate(-32.291 -41.946)"/><path class="cls-15" d="M145.707,418.142H84.3c-1.181,0-2.067-.7-2.067-1.5v-19.9h65.543v19.8C147.773,417.342,146.888,418.042,145.707,418.142Z" transform="translate(-32.291 -41.946)"/><path class="cls-19" d="M143.345,418.142H81.935c-1.181,0-2.067-.7-2.067-1.5v-19.9h65.543v19.8C145.559,417.342,144.673,418.042,143.345,418.142Z" transform="translate(-32.291 -41.946)"/><rect class="cls-20" x="47.282" y="354.796" width="66.429" height="4.9"/><rect class="cls-14" x="47.282" y="359.696" width="66.429" height="1.6"/><path class="cls-14" d="M135.1,500.861a.51.51,0,0,0,.02.678l.807.812a5.157,5.157,0,0,0,6.011.859l7.158-3.834a5.082,5.082,0,0,0,2.567-5.424L151.4,492.8l-.026-.167a.435.435,0,0,0-.589-.178l-.032.019h0l-.237.122-4.552-8.5h0a1.131,1.131,0,0,0-1.613-.517l-.083.013h0l-12.813,6.924h0a1.132,1.132,0,0,0-.517,1.613l.013.083h0l4.552,8.5-.236.122C135.165,500.765,135.165,500.765,135.1,500.861Z" transform="translate(-32.291 -41.946)"/><path class="cls-15" d="M136.509,500.642h0a.51.51,0,0,0,.02.678l.807.812a5.157,5.157,0,0,0,6.011.859l7.158-3.834a5.082,5.082,0,0,0,2.567-5.424l-.263-1.151-.026-.167a.435.435,0,0,0-.589-.178l-.032.019h0l-.237.122-4.552-8.5a1.131,1.131,0,0,0-1.613-.517l-.083.013L132.864,490.3a1.132,1.132,0,0,0-.517,1.613l.013.084h0l4.552,8.494-.236.122-.167.026Z" transform="translate(-32.291 -41.946)"/><path class="cls-16" d="M148.641,484.368l4.4,8.092h0a3.216,3.216,0,0,1-1.272,4.367l-.01.005h0l-9.275,5.014h0a3.216,3.216,0,0,1-4.367-1.272l-.005-.01h0l-4.4-8.092h0a1.784,1.784,0,0,1,.734-2.414h0l11.866-6.437A1.84,1.84,0,0,1,148.641,484.368Z" transform="translate(-32.291 -41.946)"/><path class="cls-17" d="M137.962,500.673l-.807-.812-.1-.071a.435.435,0,0,1,.127-.6l.032-.019h0l7.389-3.443a7.421,7.421,0,0,0,1.183-.61l6.915-4.307.166-.026a.472.472,0,0,1,.564.339l.263,1.152a5.08,5.08,0,0,1-2.568,5.423l-7.157,3.834A5.156,5.156,0,0,1,137.962,500.673Z" transform="translate(-32.291 -41.946)"/><path class="cls-18" d="M138.444,502.131l-.808-.812a.509.509,0,0,1-.019-.678c.083-.013.083-.013.07-.1l7.388-3.444a7.38,7.38,0,0,0,1.184-.609l6.914-4.308.166-.025a.472.472,0,0,1,.564.338l.263,1.152a5.077,5.077,0,0,1-2.567,5.423l-7.158,3.834A5.116,5.116,0,0,1,138.444,502.131Z" transform="translate(-32.291 -41.946)"/><path class="cls-14" d="M153.647,461.884a.509.509,0,0,0,.551-.4l.224-1.123a5.155,5.155,0,0,0-2.643-5.466l-7.176-3.8a5.08,5.08,0,0,0-5.933.9l-.809.861-.123.114a.435.435,0,0,0,.179.588l.035.017h0l.233.128-4.508,8.518h0a1.133,1.133,0,0,0,.472,1.628l.057.061h0l12.9,6.767h0a1.131,1.131,0,0,0,1.627-.472l.062-.057h0l4.508-8.518.233.128C153.528,461.879,153.528,461.879,153.647,461.884Z" transform="translate(-32.291 -41.946)"/><path class="cls-15" d="M152.676,460.833h0a.509.509,0,0,0,.551-.4l.224-1.123a5.154,5.154,0,0,0-2.643-5.466l-7.176-3.8a5.08,5.08,0,0,0-5.933.9l-.809.861-.123.114a.435.435,0,0,0,.179.588l.035.017h0l.233.128-4.508,8.518a1.131,1.131,0,0,0,.472,1.627l.057.062,12.9,6.767a1.132,1.132,0,0,0,1.627-.472l.062-.057h0l4.508-8.518.233.128.115.124Z" transform="translate(-32.291 -41.946)"/><path class="cls-16" d="M132.4,459.85l4.256-8.171h0a3.217,3.217,0,0,1,4.334-1.384l.01.005h0l9.337,4.9h0a3.217,3.217,0,0,1,1.381,4.335l0,.009h0l-4.256,8.171h0a1.783,1.783,0,0,1-2.411.739h0L133.082,462.2A1.84,1.84,0,0,1,132.4,459.85Z" transform="translate(-32.291 -41.946)"/><path class="cls-17" d="M151.89,459.61l-.223,1.123v.119a.434.434,0,0,1-.57.228l-.03-.014h0l-6.981-4.208a7.456,7.456,0,0,0-1.166-.642l-7.433-3.333-.115-.124a.47.47,0,0,1-.033-.656l.808-.862a5.08,5.08,0,0,1,5.933-.9l7.177,3.8A5.154,5.154,0,0,1,151.89,459.61Z" transform="translate(-32.291 -41.946)"/><path class="cls-18" d="M152.832,458.4l-.223,1.123a.51.51,0,0,1-.552.4c-.057-.062-.057-.062-.119,0l-6.981-4.209a7.456,7.456,0,0,0-1.166-.642l-7.434-3.333-.114-.123a.472.472,0,0,1-.033-.657l.808-.861a5.08,5.08,0,0,1,5.933-.9l7.177,3.8A5.117,5.117,0,0,1,152.832,458.4Z" transform="translate(-32.291 -41.946)"/><path class="cls-14" d="M101.914,488.974a.51.51,0,0,0-.552.4l-.223,1.123a5.154,5.154,0,0,0,2.643,5.466l7.176,3.8a5.08,5.08,0,0,0,5.933-.9L117.7,498l.123-.114a.434.434,0,0,0-.184-.586l-.03-.014h0l-.233-.128,4.508-8.519h0a1.132,1.132,0,0,0-.472-1.627l-.057-.062h0l-12.9-6.766h0a1.132,1.132,0,0,0-1.628.471l-.061.057h0l-4.508,8.519-.234-.129C102.033,488.978,102.033,488.978,101.914,488.974Z" transform="translate(-32.291 -41.946)"/><path class="cls-15" d="M102.885,490.025h0a.51.51,0,0,0-.552.4l-.223,1.123a5.154,5.154,0,0,0,2.643,5.466l7.176,3.8a5.08,5.08,0,0,0,5.933-.9l.808-.861.124-.115a.434.434,0,0,0-.184-.586l-.03-.014h0l-.233-.128,4.508-8.519a1.132,1.132,0,0,0-.472-1.627l-.057-.062-12.9-6.766a1.131,1.131,0,0,0-1.627.472l-.062.057h0l-4.507,8.518-.234-.128-.114-.124Z" transform="translate(-32.291 -41.946)"/><path class="cls-16" d="M123.159,491.008l-4.255,8.171h0a3.217,3.217,0,0,1-4.335,1.381l-.009,0h0l-9.337-4.9h0a3.217,3.217,0,0,1-1.381-4.335l0-.009h0l4.256-8.171h0a1.783,1.783,0,0,1,2.411-.739h0l11.963,6.253A1.839,1.839,0,0,1,123.159,491.008Z" transform="translate(-32.291 -41.946)"/><path class="cls-17" d="M103.671,491.247l.223-1.122v-.119a.435.435,0,0,1,.571-.229l.029.014h0l6.99,4.209a7.411,7.411,0,0,0,1.166.642l7.433,3.333.114.124a.471.471,0,0,1,.034.656l-.809.862a5.081,5.081,0,0,1-5.933.9l-7.176-3.8A5.156,5.156,0,0,1,103.671,491.247Z" transform="translate(-32.291 -41.946)"/><path class="cls-18" d="M102.729,492.461l.223-1.123a.51.51,0,0,1,.552-.4c.057.062.057.062.119,0l6.981,4.208a7.457,7.457,0,0,0,1.166.642l7.433,3.333.115.124a.47.47,0,0,1,.033.656l-.808.862a5.08,5.08,0,0,1-5.933.9l-7.177-3.8A5.118,5.118,0,0,1,102.729,492.461Z" transform="translate(-32.291 -41.946)"/><path class="cls-21" d="M121.77,480.034v-1.4a5.848,5.848,0,0,1,5.8-5.9h1.4a5.848,5.848,0,0,1,5.9,5.8q0,.052,0,.1v1.4a5.848,5.848,0,0,1-5.8,5.9h-1.4A6.045,6.045,0,0,1,121.77,480.034Z" transform="translate(-32.291 -41.946)"/><path class="cls-21" d="M120.57,480.034v-1.4a5.848,5.848,0,0,1,5.8-5.9h1.4a5.848,5.848,0,0,1,5.9,5.8q0,.052,0,.1v1.4a5.848,5.848,0,0,1-5.8,5.9h-1.4A5.911,5.911,0,0,1,120.57,480.034Z" transform="translate(-32.291 -41.946)"/><path class="cls-21" d="M119.47,479.334h0a6.616,6.616,0,0,1,6.531-6.7h.069a6.659,6.659,0,0,1,6.6,6.6v.1a6.658,6.658,0,0,1-6.6,6.6h0A6.657,6.657,0,0,1,119.47,479.334Z" transform="translate(-32.291 -41.946)"/><path class="cls-21" d="M126.145,470.448v-1.2a5.012,5.012,0,0,1,4.967-5.057h1.205a5.012,5.012,0,0,1,5.057,4.967q0,.045,0,.09v1.2a5.013,5.013,0,0,1-4.969,5.057H131.2A5.181,5.181,0,0,1,126.145,470.448Z" transform="translate(-32.291 -41.946)"/><path class="cls-21" d="M125.117,470.448v-1.2a5.011,5.011,0,0,1,4.965-5.057h1.206a5.011,5.011,0,0,1,5.057,4.965q0,.046,0,.092v1.2a5.012,5.012,0,0,1-4.967,5.057h-1.2A5.066,5.066,0,0,1,125.117,470.448Z" transform="translate(-32.291 -41.946)"/><path class="cls-21" d="M124.174,469.848h0a5.671,5.671,0,0,1,5.6-5.743h.058a5.707,5.707,0,0,1,5.657,5.657v.086a5.707,5.707,0,0,1-5.657,5.657h0A5.707,5.707,0,0,1,124.174,469.848Z" transform="translate(-32.291 -41.946)"/><rect class="cls-18" x="53.568" y="378.567" width="16.172" height="9.171" rx="3.299" ry="3.299"/><rect class="cls-18" x="94.493" y="378.567" width="16.172" height="9.171" rx="3.299" ry="3.299"/><rect class="cls-18" x="78.126" y="369.265" width="9.171" height="16.172" rx="3.299" ry="3.299"/><rect class="cls-7" x="143.188" y="446.786" width="12.173" height="45.193" rx="3.299" ry="3.299"/><rect class="cls-7" x="176.626" y="397.992" width="15.591" height="92.39" rx="3.299" ry="3.299"/><rect class="cls-7" x="200.589" y="226.956" width="105.41" height="9.349" rx="3.299" ry="3.299"/><path class="cls-14" d="M248.513,86.467a.51.51,0,0,0-.167-.658l-.965-.617a5.156,5.156,0,0,0-6.053.473l-6.15,5.3a5.081,5.081,0,0,0-1.324,5.852l.508,1.067.062.157a.436.436,0,0,0,.615.044l.026-.024h0l.2-.171,6.294,7.3h0a1.132,1.132,0,0,0,1.687.153l.079-.031h0l11-9.551h0a1.131,1.131,0,0,0,.153-1.687L254.446,94h0l-6.294-7.3.2-.171C248.465,86.576,248.465,86.576,248.513,86.467Z" transform="translate(-32.291 -41.946)"/><path class="cls-15" d="M247.181,86.989h0a.51.51,0,0,0-.168-.658l-.964-.617a5.156,5.156,0,0,0-6.053.473l-6.15,5.3a5.078,5.078,0,0,0-1.324,5.852l.508,1.067.061.157a.436.436,0,0,0,.615.044l.026-.024h0l.205-.171,6.294,7.3a1.132,1.132,0,0,0,1.687.153l.078-.031,11-9.551a1.132,1.132,0,0,0,.152-1.687l-.03-.078h0l-6.3-7.3.205-.17.157-.061Z" transform="translate(-32.291 -41.946)"/><path class="cls-16" d="M238.888,105.515l-6.062-6.937h0a3.215,3.215,0,0,1,.29-4.537l.01-.009h0l7.959-6.915h0a3.217,3.217,0,0,1,4.54.292l.007.008h0l6.062,6.937h0a1.783,1.783,0,0,1-.188,2.515h0l-10.177,8.868A1.839,1.839,0,0,1,238.888,105.515Z" transform="translate(-32.291 -41.946)"/><path class="cls-17" d="M245.756,87.275l.965.617.109.048a.435.435,0,0,1,.006.615l-.026.025h0l-6.461,4.972a7.472,7.472,0,0,0-1.022.852l-5.809,5.711-.157.061a.471.471,0,0,1-.624-.207l-.508-1.067a5.081,5.081,0,0,1,1.324-5.852l6.15-5.3A5.156,5.156,0,0,1,245.756,87.275Z" transform="translate(-32.291 -41.946)"/><path class="cls-18" d="M244.968,85.957l.965.616a.509.509,0,0,1,.167.658c-.078.031-.078.031-.047.109l-6.461,4.971a7.48,7.48,0,0,0-1.022.853l-5.809,5.711-.157.061a.47.47,0,0,1-.623-.207l-.509-1.067a5.082,5.082,0,0,1,1.324-5.853l6.15-5.3A5.119,5.119,0,0,1,244.968,85.957Z" transform="translate(-32.291 -41.946)"/><path class="cls-21" d="M256.044,108.574l-1.118-.437a5.012,5.012,0,0,1-2.9-6.466l.033-.084.4-1.038a5.013,5.013,0,0,1,6.468-2.9l.083.033,1.118.437a5.013,5.013,0,0,1,2.9,6.468l-.032.083-.4,1.037A5.181,5.181,0,0,1,256.044,108.574Z" transform="translate(-32.291 -41.946)"/><path class="cls-21" d="M255.67,109.532l-1.118-.437a5.012,5.012,0,0,1-2.9-6.466l.033-.084.4-1.038a5.013,5.013,0,0,1,6.468-2.9l.083.033,1.117.437a5.013,5.013,0,0,1,2.9,6.468l-.033.083-.406,1.038A5.066,5.066,0,0,1,255.67,109.532Z" transform="translate(-32.291 -41.946)"/><path class="cls-21" d="M254.768,110.192h0a5.671,5.671,0,0,1-3.312-7.3l.021-.055h0a5.708,5.708,0,0,1,7.328-3.211l.08.031a5.709,5.709,0,0,1,3.211,7.328h0a5.708,5.708,0,0,1-7.328,3.211Z" transform="translate(-32.291 -41.946)"/><path class="cls-5" d="M280.754,237.765V223.991c0-.278.41-.525.873-.525h9.243c.462,0,.873.247.873.525v13.774c0,.216-.308.4-.668.4h-9.7c-.36,0-.616-.185-.616-.4Z" transform="translate(-32.291 -41.946)"/><path class="cls-6" d="M279.573,237.765V223.991c0-.278.41-.525.873-.525h9.243c.462,0,.873.247.873.525v13.774c0,.216-.308.4-.668.4H280.24C279.881,238.166,279.573,237.981,279.573,237.765Z" transform="translate(-32.291 -41.946)"/><path class="cls-7" d="M278.8,237.765V223.991c0-.278.411-.525.873-.525h9.244c.462,0,.873.247.873.525v13.774c0,.216-.308.4-.668.4h-9.7C279.059,238.135,278.8,237.981,278.8,237.765Z" transform="translate(-32.291 -41.946)"/><path class="cls-5" d="M320.784,241.615V227.841c0-.278.41-.525.873-.525H330.9c.462,0,.873.247.873.525v13.774c0,.216-.308.4-.668.4h-9.7C321.04,242.015,320.784,241.83,320.784,241.615Z" transform="translate(-32.291 -41.946)"/><path class="cls-6" d="M319.6,241.615V227.841c0-.278.41-.525.873-.525h9.243c.462,0,.873.247.873.525v13.774c0,.216-.308.4-.668.4H320.27C319.911,242.016,319.6,241.831,319.6,241.615Z" transform="translate(-32.291 -41.946)"/><path class="cls-7" d="M318.832,241.615V227.841c0-.278.411-.525.873-.525h9.244c.462,0,.873.247.873.525v13.774c0,.216-.309.4-.668.4h-9.7C319.089,241.985,318.832,241.831,318.832,241.615Z" transform="translate(-32.291 -41.946)"/><path class="cls-5" d="M229.608,241.615V227.841c0-.278.411-.525.873-.525h9.243c.463,0,.873.247.873.525v13.774c0,.216-.308.4-.667.4h-9.706C229.865,242.015,229.608,241.83,229.608,241.615Z" transform="translate(-32.291 -41.946)"/><path class="cls-6" d="M228.427,241.615V227.841c0-.278.411-.525.873-.525h9.243c.462,0,.873.247.873.525v13.774c0,.216-.308.4-.667.4H229.1C228.735,242.016,228.427,241.831,228.427,241.615Z" transform="translate(-32.291 -41.946)"/><path class="cls-7" d="M227.657,241.615V227.841c0-.278.411-.525.873-.525h9.243c.462,0,.873.247.873.525v13.774c0,.216-.308.4-.668.4h-9.705C227.914,241.985,227.657,241.831,227.657,241.615Z" transform="translate(-32.291 -41.946)"/><path class="cls-9" d="M332.592,233.827v2.11a2.822,2.822,0,0,0,2.651,2.921h.162l1.947-.108a3.7,3.7,0,0,0,3.408-3.841h0a3.744,3.744,0,0,0-3.354-3.9l-1.947-.108a2.829,2.829,0,0,0-2.867,2.759Z" transform="translate(-32.291 -41.946)"/><path class="cls-10" d="M332.321,233.827v2.11a2.822,2.822,0,0,0,2.651,2.921h.162l1.948-.108a3.7,3.7,0,0,0,3.408-3.841h0a3.745,3.745,0,0,0-3.354-3.9l-1.948-.108a2.829,2.829,0,0,0-2.867,2.759Z" transform="translate(-32.291 -41.946)"/><path class="cls-11" d="M331.456,233.881v1.947a2.738,2.738,0,0,0,2.65,2.7h.109l1.947-.108a3.609,3.609,0,0,0,3.408-3.57h0a3.562,3.562,0,0,0-3.354-3.571l-1.947-.108a2.616,2.616,0,0,0-2.811,2.405l0,.03v.275Z" transform="translate(-32.291 -41.946)"/><path class="cls-22" d="M333.836,238.533l2.326-.162a3.609,3.609,0,0,0,3.408-3.57h0a3.561,3.561,0,0,0-3.354-3.571l-2.326-.162" transform="translate(-32.291 -41.946)"/><path class="cls-9" d="M240.733,233.746v2.109a2.822,2.822,0,0,0,2.651,2.922h.162l1.948-.109a3.7,3.7,0,0,0,3.408-3.84h0a3.745,3.745,0,0,0-3.354-3.9l-1.947-.108a2.83,2.83,0,0,0-2.868,2.758Z" transform="translate(-32.291 -41.946)"/><path class="cls-10" d="M240.463,233.746v2.109a2.822,2.822,0,0,0,2.651,2.922h.162l1.947-.109a3.7,3.7,0,0,0,3.408-3.84h0a3.744,3.744,0,0,0-3.354-3.9l-1.947-.108a2.828,2.828,0,0,0-2.867,2.758Z" transform="translate(-32.291 -41.946)"/><path class="cls-11" d="M239.6,233.8v1.947a2.738,2.738,0,0,0,2.651,2.7h.108l1.948-.108a3.609,3.609,0,0,0,3.408-3.57h0a3.562,3.562,0,0,0-3.354-3.571l-1.948-.108A2.617,2.617,0,0,0,239.6,233.5l0,.027v.276Z" transform="translate(-32.291 -41.946)"/><path class="cls-22" d="M241.978,238.452l2.326-.162a3.609,3.609,0,0,0,3.408-3.571h0a3.562,3.562,0,0,0-3.354-3.57l-2.326-.162" transform="translate(-32.291 -41.946)"/><rect class="cls-16" x="232.925" y="182.588" width="11.753" height="21.465"/><polyline class="cls-23" points="232.925 201.798 232.925 183.279 240.76 183.279"/><rect class="cls-16" x="261.981" y="182.589" width="11.753" height="21.465"/><polyline class="cls-23" points="273.734 201.798 273.734 183.279 265.899 183.279"/><g id="tables_copy_3-2-2" data-name="tables copy 3"><path class="cls-5" d="M80.991,75.6h54.178A2.789,2.789,0,0,1,138,78.342h0v30.293a2.789,2.789,0,0,1-2.746,2.829H80.991a2.789,2.789,0,0,1-2.829-2.746h0V78.426a2.806,2.806,0,0,1,2.782-2.83Z" transform="translate(-32.291 -41.946)"/><path class="cls-6" d="M80.991,74.015h54.178A2.789,2.789,0,0,1,138,76.761h0v30.293a2.789,2.789,0,0,1-2.746,2.83H80.991a2.789,2.789,0,0,1-2.829-2.746h0V76.845a2.806,2.806,0,0,1,2.782-2.83Z" transform="translate(-32.291 -41.946)"/><path id="table-23-2-2" data-name="table-23" class="cls-7" d="M107.539,73.016H80.575a2.488,2.488,0,0,0-2.5,2.414V91.991h29.461Z" transform="translate(-32.291 -41.946)"/><path id="table-24-2-2" data-name="table-24" class="cls-7" d="M138.082,91.991V75.513a2.489,2.489,0,0,0-2.414-2.5H107.206V91.988Z" transform="translate(-32.291 -41.946)"/><path id="table-25-2-2" data-name="table-25" class="cls-7" d="M107.206,91.991v16.977h28.379a2.487,2.487,0,0,0,2.5-2.413V91.991Z" transform="translate(-32.291 -41.946)"/><path id="table-26-2-2" data-name="table-26" class="cls-7" d="M78.162,91.991v14.481a2.487,2.487,0,0,0,2.413,2.5h27.047V91.991Z" transform="translate(-32.291 -41.946)"/><line class="cls-8" x1="75.248" y1="31.069" x2="75.248" y2="67.021"/><line class="cls-8" x1="45.871" y1="50.044" x2="105.791" y2="50.044"/></g><g id="chairs_copy_3-2-2" data-name="chairs copy 3"><path class="cls-9" d="M94.473,114.628H91.228a4.339,4.339,0,0,0-4.494,4.077h0v.25l.166,3a5.7,5.7,0,0,0,5.909,5.243h0a5.761,5.761,0,0,0,5.992-5.16l.166-3a4.351,4.351,0,0,0-4.244-4.41Z" transform="translate(-32.291 -41.946)"/><path class="cls-10" d="M94.473,114.211H91.228a4.341,4.341,0,0,0-4.494,4.078h0v.25l.166,3a5.7,5.7,0,0,0,5.909,5.243h0a5.762,5.762,0,0,0,5.992-5.16l.166-3a4.353,4.353,0,0,0-4.244-4.411Z" transform="translate(-32.291 -41.946)"/><path class="cls-11" d="M94.39,112.883h-3a4.212,4.212,0,0,0-4.161,4.078h0v.166l.166,3a5.552,5.552,0,0,0,5.493,5.243h0a5.48,5.48,0,0,0,5.493-5.16l.166-3a4.157,4.157,0,0,0-3.907-4.327Z" transform="translate(-32.291 -41.946)"/><path class="cls-12" d="M87.233,116.542l.249,3.578a5.552,5.552,0,0,0,5.493,5.243h0a5.48,5.48,0,0,0,5.493-5.16l.249-3.578" transform="translate(-32.291 -41.946)"/><path class="cls-9" d="M124.433,114.628h-3.245a4.339,4.339,0,0,0-4.494,4.077h0v.25l.166,3a5.7,5.7,0,0,0,5.909,5.243h0a5.761,5.761,0,0,0,5.992-5.16l.166-3a4.351,4.351,0,0,0-4.244-4.41Z" transform="translate(-32.291 -41.946)"/><path class="cls-10" d="M124.433,114.211h-3.245a4.341,4.341,0,0,0-4.494,4.078h0v.25l.166,3a5.7,5.7,0,0,0,5.909,5.243h0a5.762,5.762,0,0,0,5.992-5.16l.166-3a4.353,4.353,0,0,0-4.244-4.411Z" transform="translate(-32.291 -41.946)"/><path class="cls-11" d="M124.267,112.883h-3a4.212,4.212,0,0,0-4.161,4.078h0v.166l.166,3a5.552,5.552,0,0,0,5.493,5.243h0a5.478,5.478,0,0,0,5.492-5.16l.167-3a4.023,4.023,0,0,0-3.7-4.324l-.047,0h-.412Z" transform="translate(-32.291 -41.946)"/><path class="cls-12" d="M117.11,116.542l.249,3.578a5.552,5.552,0,0,0,5.493,5.243h0a5.48,5.48,0,0,0,5.493-5.16l.249-3.578" transform="translate(-32.291 -41.946)"/><path class="cls-9" d="M93.974,71.934l-3-.083a4.192,4.192,0,0,1-4.079-4.3v-.192l.25-3A5.693,5.693,0,0,1,92.8,59.2h0a5.626,5.626,0,0,1,5.409,5.41l.083,3a4.087,4.087,0,0,1-3.911,4.244h-.167Z" transform="translate(-32.291 -41.946)"/><path class="cls-10" d="M93.974,71.435l-3-.083a4.193,4.193,0,0,1-4.079-4.3v-.024h0v-.166l.25-3A5.557,5.557,0,0,1,92.8,58.781h0a5.626,5.626,0,0,1,5.409,5.41l.083,3a4.174,4.174,0,0,1-4.078,4.244Z" transform="translate(-32.291 -41.946)"/><path class="cls-11" d="M93.974,70.853l-3-.084a4.192,4.192,0,0,1-4.079-4.3v-.025h0v-.25l.25-3A5.556,5.556,0,0,1,92.8,58.116h0a5.625,5.625,0,0,1,5.409,5.409l.083,3a4.174,4.174,0,0,1-4.078,4.244A.3.3,0,0,1,93.974,70.853Z" transform="translate(-32.291 -41.946)"/><path class="cls-13" d="M86.817,66.858l.333-3.579A5.557,5.557,0,0,1,92.809,58.2h0a5.625,5.625,0,0,1,5.409,5.409l.167,3.579" transform="translate(-32.291 -41.946)"/><path class="cls-9" d="M123.684,71.934l-3-.083a4.192,4.192,0,0,1-4.079-4.3v-.192l.25-3a5.557,5.557,0,0,1,5.659-5.076h0a5.626,5.626,0,0,1,5.41,5.409l.083,3a4.089,4.089,0,0,1-3.912,4.244Z" transform="translate(-32.291 -41.946)"/><path class="cls-10" d="M123.684,71.518l-3-.083a4.192,4.192,0,0,1-4.079-4.3v-.025h0v-.167l.25-3a5.557,5.557,0,0,1,5.659-5.076h0a5.626,5.626,0,0,1,5.41,5.409l.083,3a4.157,4.157,0,0,1-4,4.244Z" transform="translate(-32.291 -41.946)"/><path class="cls-11" d="M123.684,70.936l-3-.083a4.194,4.194,0,0,1-4.079-4.306v-.022h0v-.25l.25-3a5.558,5.558,0,0,1,5.659-5.076h0a5.626,5.626,0,0,1,5.41,5.409l.083,3a4.159,4.159,0,0,1-4,4.245h-.083A.307.307,0,0,1,123.684,70.936Z" transform="translate(-32.291 -41.946)"/><path class="cls-13" d="M116.527,66.941l.333-3.578a5.558,5.558,0,0,1,5.659-5.077h0a5.626,5.626,0,0,1,5.41,5.409l.166,3.579" transform="translate(-32.291 -41.946)"/></g><g id="tables_copy_3-4-2" data-name="tables copy 3-4"><path class="cls-5" d="M267.184,159.182h54.178a2.789,2.789,0,0,1,2.829,2.746v30.29a2.789,2.789,0,0,1-2.746,2.829H267.184a2.789,2.789,0,0,1-2.829-2.746h0v-30.29a2.806,2.806,0,0,1,2.783-2.829Z" transform="translate(-32.291 -41.946)"/><path class="cls-6" d="M267.184,157.6h54.178a2.789,2.789,0,0,1,2.829,2.747h0V190.64a2.789,2.789,0,0,1-2.746,2.829H267.184a2.789,2.789,0,0,1-2.829-2.746h0V160.43a2.806,2.806,0,0,1,2.782-2.83Z" transform="translate(-32.291 -41.946)"/><path id="table-23-4-2" data-name="table-23-4" class="cls-7" d="M293.732,156.6H266.768a2.488,2.488,0,0,0-2.5,2.413v16.561h29.461Z" transform="translate(-32.291 -41.946)"/><path id="table-24-4-2" data-name="table-24-4" class="cls-7" d="M324.275,175.576V159.1a2.488,2.488,0,0,0-2.414-2.5H293.4v18.978Z" transform="translate(-32.291 -41.946)"/><path id="table-25-4-2" data-name="table-25-4" class="cls-7" d="M293.4,175.576v16.978h28.379a2.488,2.488,0,0,0,2.5-2.414V175.576Z" transform="translate(-32.291 -41.946)"/><path id="table-26-4-2" data-name="table-26-4" class="cls-7" d="M264.355,175.576v14.481a2.487,2.487,0,0,0,2.413,2.5h27.047V175.576Z" transform="translate(-32.291 -41.946)"/><line class="cls-8" x1="261.442" y1="114.656" x2="261.442" y2="150.608"/><line class="cls-8" x1="232.065" y1="133.63" x2="291.985" y2="133.63"/></g><g id="chairs_copy_3-4-2" data-name="chairs copy 3-4"><path class="cls-9" d="M280.666,198.218h-3.245a4.34,4.34,0,0,0-4.494,4.078h0v.249l.166,3A5.7,5.7,0,0,0,279,210.788h0a5.761,5.761,0,0,0,5.995-5.17l.166-3a4.352,4.352,0,0,0-4.244-4.411Z" transform="translate(-32.291 -41.946)"/><path class="cls-10" d="M280.666,197.8h-3.245a4.339,4.339,0,0,0-4.494,4.078h0v.249l.166,3A5.7,5.7,0,0,0,279,210.367h0a5.761,5.761,0,0,0,5.992-5.16l.166-3a4.351,4.351,0,0,0-4.244-4.41Z" transform="translate(-32.291 -41.946)"/><path class="cls-11" d="M280.583,196.465h-3a4.212,4.212,0,0,0-4.161,4.078h0v.166l.166,3a5.552,5.552,0,0,0,5.493,5.243h0a5.48,5.48,0,0,0,5.493-5.159l.166-3a4.158,4.158,0,0,0-3.911-4.328Z" transform="translate(-32.291 -41.946)"/><path class="cls-12" d="M273.426,200.127l.249,3.578a5.552,5.552,0,0,0,5.493,5.243h0a5.48,5.48,0,0,0,5.493-5.159l.249-3.579" transform="translate(-32.291 -41.946)"/><path class="cls-9" d="M310.626,198.218h-3.245a4.34,4.34,0,0,0-4.494,4.078h0v.249l.166,3a5.7,5.7,0,0,0,5.909,5.243h0a5.761,5.761,0,0,0,5.992-5.159l.166-3a4.352,4.352,0,0,0-4.244-4.411Z" transform="translate(-32.291 -41.946)"/><path class="cls-10" d="M310.626,197.8h-3.245a4.339,4.339,0,0,0-4.494,4.078h0v.249l.166,3a5.7,5.7,0,0,0,5.909,5.243h0a5.761,5.761,0,0,0,5.992-5.16l.166-3a4.351,4.351,0,0,0-4.244-4.41Z" transform="translate(-32.291 -41.946)"/><path class="cls-11" d="M310.46,196.465h-3a4.212,4.212,0,0,0-4.161,4.078h0v.166l.166,3a5.552,5.552,0,0,0,5.493,5.243h0a5.478,5.478,0,0,0,5.492-5.159l.167-3a4.025,4.025,0,0,0-3.7-4.325l-.044,0h-.412Z" transform="translate(-32.291 -41.946)"/><path class="cls-12" d="M303.3,200.127l.249,3.578a5.552,5.552,0,0,0,5.493,5.243h0a5.48,5.48,0,0,0,5.493-5.159l.249-3.579" transform="translate(-32.291 -41.946)"/><path class="cls-9" d="M280.167,155.518l-3-.083a4.194,4.194,0,0,1-4.07-4.314v-.178l.25-3a5.693,5.693,0,0,1,5.659-5.16h0a5.625,5.625,0,0,1,5.409,5.409l.083,3a4.087,4.087,0,0,1-3.911,4.244h-.167Z" transform="translate(-32.291 -41.946)"/><path class="cls-10" d="M280.167,155.018l-3-.083a4.192,4.192,0,0,1-4.07-4.31v-.015h0v-.167l.25-3a5.556,5.556,0,0,1,5.659-5.076h0a5.625,5.625,0,0,1,5.409,5.409l.083,3a4.174,4.174,0,0,1-4.078,4.244Z" transform="translate(-32.291 -41.946)"/><path class="cls-11" d="M280.167,154.438l-3-.083a4.194,4.194,0,0,1-4.07-4.314v-.014h0v-.25l.25-3a5.557,5.557,0,0,1,5.659-5.076h0a5.625,5.625,0,0,1,5.409,5.409l.083,3a4.174,4.174,0,0,1-4.078,4.245A.3.3,0,0,1,280.167,154.438Z" transform="translate(-32.291 -41.946)"/><path class="cls-13" d="M273.01,150.443l.333-3.578A5.557,5.557,0,0,1,279,141.788h0a5.626,5.626,0,0,1,5.409,5.41l.167,3.578" transform="translate(-32.291 -41.946)"/><path class="cls-9" d="M309.877,155.518l-3-.083a4.194,4.194,0,0,1-4.079-4.306v-.188l.25-3a5.558,5.558,0,0,1,5.659-5.077h0a5.626,5.626,0,0,1,5.41,5.409l.083,3a4.089,4.089,0,0,1-3.9,4.245Z" transform="translate(-32.291 -41.946)"/><path class="cls-10" d="M309.877,155.1l-3-.084a4.192,4.192,0,0,1-4.079-4.3v-.025h0v-.167l.25-3a5.558,5.558,0,0,1,5.659-5.076h0a5.626,5.626,0,0,1,5.41,5.409l.083,3a4.159,4.159,0,0,1-4,4.245Z" transform="translate(-32.291 -41.946)"/><path class="cls-11" d="M309.877,154.518l-3-.083a4.193,4.193,0,0,1-4.079-4.3v-.024h0v-.249l.25-3a5.558,5.558,0,0,1,5.659-5.077h0a5.626,5.626,0,0,1,5.41,5.41l.083,3a4.157,4.157,0,0,1-4,4.244h-.083A.307.307,0,0,1,309.877,154.518Z" transform="translate(-32.291 -41.946)"/><path class="cls-13" d="M302.72,150.526l.333-3.578a5.558,5.558,0,0,1,5.659-5.077h0a5.627,5.627,0,0,1,5.41,5.41l.166,3.578" transform="translate(-32.291 -41.946)"/></g></g><g id="bookable"><polygon id="area-05.503.2-status" class="cls-24" points="138.198 8.915 138.198 91.109 13.42 91.109 16.473 4.643 138.198 8.915"/><rect id="area-05.502-status" class="cls-24" x="13.42" y="172.373" width="124.778" height="79.716"/><polygon id="area-05.504-status" class="cls-24" points="192.89 13.196 192.89 95.785 335.237 95.785 335.237 5.641 264.064 18.444 192.89 13.196"/><polygon id="area-05.501-status" class="cls-24" points="10.559 329.578 13.42 252.089 138.198 252.089 138.198 329.578 10.559 329.578"/><rect id="area-05.505-status" class="cls-24" x="192.89" y="95.785" width="142.347" height="77.032"/><rect id="area-05.503.1-status" class="cls-24" x="13.42" y="91.109" width="124.778" height="81.264"/></g><g id="Room_name" data-name="Room name"><g id="Text"><path class="cls-7" d="M101.73,94.5a1.209,1.209,0,0,0,.285.631.8.8,0,0,0,.613.222.826.826,0,0,0,.708-.327,1.345,1.345,0,0,0,.244-.824,1.433,1.433,0,0,0-.229-.824.8.8,0,0,0-.71-.336,1.215,1.215,0,0,0-.395.057.785.785,0,0,0-.443.391l-1.122-.053.446-3.52h3.507v1.063h-2.6l-.229,1.393a2.618,2.618,0,0,1,.452-.25,1.913,1.913,0,0,1,.663-.1,1.922,1.922,0,0,1,1.966,2.079,2.426,2.426,0,0,1-.566,1.578,2.059,2.059,0,0,1-1.694.694,2.25,2.25,0,0,1-1.493-.488,1.9,1.9,0,0,1-.649-1.384Z" transform="translate(-32.291 -41.946)"/><path class="cls-7" d="M109.437,90.649a6.279,6.279,0,0,1,0,4.865,2.135,2.135,0,0,1-3.414,0,6.279,6.279,0,0,1,0-4.865,2.129,2.129,0,0,1,3.414,0Zm-2.445,4.116a.725.725,0,0,0,.738.582.715.715,0,0,0,.731-.582,6.2,6.2,0,0,0,.174-1.681,6.129,6.129,0,0,0-.174-1.705.708.708,0,0,0-.731-.554.719.719,0,0,0-.738.554,5.939,5.939,0,0,0-.18,1.705A6.007,6.007,0,0,0,106.991,94.765Z" transform="translate(-32.291 -41.946)"/><path class="cls-7" d="M111.725,94.252a1.433,1.433,0,0,0,.123.633.84.84,0,0,0,.828.461.915.915,0,0,0,.643-.253.939.939,0,0,0,.274-.727.82.82,0,0,0-.509-.839,2.569,2.569,0,0,0-.911-.119v-.9a2.353,2.353,0,0,0,.85-.119.733.733,0,0,0,.416-.747.837.837,0,0,0-.213-.593.776.776,0,0,0-.6-.229.756.756,0,0,0-.651.281,1.2,1.2,0,0,0-.2.751h-1.169a3.143,3.143,0,0,1,.162-.9,2.028,2.028,0,0,1,.483-.69,1.682,1.682,0,0,1,.584-.343,2.52,2.52,0,0,1,.829-.119,2.207,2.207,0,0,1,1.473.472,1.576,1.576,0,0,1,.561,1.268,1.406,1.406,0,0,1-.334.949,1.148,1.148,0,0,1-.439.33.91.91,0,0,1,.492.294,1.576,1.576,0,0,1,.479,1.213,2.043,2.043,0,0,1-.56,1.421,2.131,2.131,0,0,1-1.657.613,2,2,0,0,1-1.879-.883,2.622,2.622,0,0,1-.308-1.23Z" transform="translate(-32.291 -41.946)"/><path class="cls-7" d="M115.825,94.894h1.332v1.314h-1.332Z" transform="translate(-32.291 -41.946)"/><path class="cls-7" d="M118.339,94.955a3.525,3.525,0,0,1,1.266-1.349,9.346,9.346,0,0,0,1.12-.888,1.313,1.313,0,0,0,.392-.914,1.013,1.013,0,0,0-.225-.672.914.914,0,0,0-1.42.158,2.135,2.135,0,0,0-.141.782h-1.217a3.078,3.078,0,0,1,.295-1.314,1.835,1.835,0,0,1,1.781-.954,2.264,2.264,0,0,1,1.61.56,1.939,1.939,0,0,1,.6,1.483,2.009,2.009,0,0,1-.423,1.257,4.226,4.226,0,0,1-.912.813l-.5.356q-.47.334-.645.483a1.426,1.426,0,0,0-.292.347h2.781v1.1h-4.363A2.98,2.98,0,0,1,118.339,94.955Z" transform="translate(-32.291 -41.946)"/></g><g id="Text-2" data-name="Text"><path class="cls-7" d="M105.483,256.619a1.209,1.209,0,0,0,.285.631.8.8,0,0,0,.613.222.826.826,0,0,0,.708-.327,1.345,1.345,0,0,0,.244-.824,1.433,1.433,0,0,0-.229-.824.8.8,0,0,0-.71-.336,1.215,1.215,0,0,0-.395.057.785.785,0,0,0-.443.391l-1.122-.053.446-3.52h3.507V253.1h-2.6l-.229,1.393a2.618,2.618,0,0,1,.452-.25,1.913,1.913,0,0,1,.663-.1,1.922,1.922,0,0,1,1.966,2.079,2.426,2.426,0,0,1-.566,1.578,2.059,2.059,0,0,1-1.694.694,2.25,2.25,0,0,1-1.493-.488,1.9,1.9,0,0,1-.649-1.384Z" transform="translate(-32.291 -41.946)"/><path class="cls-7" d="M113.188,252.765a6.279,6.279,0,0,1,0,4.865,2.135,2.135,0,0,1-3.414,0,6.279,6.279,0,0,1,0-4.865,2.129,2.129,0,0,1,3.414,0Zm-2.445,4.116a.725.725,0,0,0,.738.582.715.715,0,0,0,.731-.582,6.2,6.2,0,0,0,.174-1.681,6.129,6.129,0,0,0-.174-1.705.708.708,0,0,0-.731-.554.719.719,0,0,0-.738.554,5.939,5.939,0,0,0-.18,1.705A6.007,6.007,0,0,0,110.743,256.88Z" transform="translate(-32.291 -41.946)"/><path class="cls-7" d="M114.585,257.071a3.525,3.525,0,0,1,1.266-1.349,9.346,9.346,0,0,0,1.12-.888,1.313,1.313,0,0,0,.392-.914,1.013,1.013,0,0,0-.225-.672.914.914,0,0,0-1.42.158,2.135,2.135,0,0,0-.141.782H114.36a3.078,3.078,0,0,1,.295-1.314,1.835,1.835,0,0,1,1.781-.954,2.264,2.264,0,0,1,1.61.56,1.939,1.939,0,0,1,.6,1.483,2.009,2.009,0,0,1-.423,1.257,4.226,4.226,0,0,1-.912.813l-.5.356q-.47.334-.645.483a1.426,1.426,0,0,0-.292.347h2.781v1.1H114.29A2.98,2.98,0,0,1,114.585,257.071Z" transform="translate(-32.291 -41.946)"/></g><g id="Text-3" data-name="Text"><path class="cls-7" d="M105.483,333.767a1.209,1.209,0,0,0,.285.631.8.8,0,0,0,.613.222.826.826,0,0,0,.708-.327,1.345,1.345,0,0,0,.244-.824,1.433,1.433,0,0,0-.229-.824.8.8,0,0,0-.71-.336,1.215,1.215,0,0,0-.395.057.785.785,0,0,0-.443.391l-1.122-.053.446-3.52h3.507v1.063h-2.6l-.229,1.393a2.618,2.618,0,0,1,.452-.25,1.913,1.913,0,0,1,.663-.1,1.922,1.922,0,0,1,1.966,2.079,2.426,2.426,0,0,1-.566,1.578,2.059,2.059,0,0,1-1.694.694,2.25,2.25,0,0,1-1.493-.488,1.9,1.9,0,0,1-.649-1.384Z" transform="translate(-32.291 -41.946)"/><path class="cls-7" d="M113.188,329.913a6.279,6.279,0,0,1,0,4.865,2.135,2.135,0,0,1-3.414,0,6.279,6.279,0,0,1,0-4.865,2.129,2.129,0,0,1,3.414,0Zm-2.445,4.116a.725.725,0,0,0,.738.582.715.715,0,0,0,.731-.582,6.2,6.2,0,0,0,.174-1.681,6.129,6.129,0,0,0-.174-1.705.708.708,0,0,0-.731-.554.719.719,0,0,0-.738.554,5.939,5.939,0,0,0-.18,1.705A6.007,6.007,0,0,0,110.743,334.029Z" transform="translate(-32.291 -41.946)"/><path class="cls-7" d="M114.633,331.078v-.853a5.509,5.509,0,0,0,.828-.079,1.168,1.168,0,0,0,.614-.334,1.11,1.11,0,0,0,.245-.457,1.043,1.043,0,0,0,.048-.255h1.047v6.372h-1.283v-4.395Z" transform="translate(-32.291 -41.946)"/></g><g id="Text-4" data-name="Text"><path class="cls-7" d="M288.25,101.946a1.209,1.209,0,0,0,.285.631.8.8,0,0,0,.613.222.826.826,0,0,0,.708-.327,1.345,1.345,0,0,0,.244-.824,1.433,1.433,0,0,0-.229-.824.8.8,0,0,0-.71-.336,1.215,1.215,0,0,0-.395.057.785.785,0,0,0-.443.391l-1.122-.053.446-3.52h3.507v1.063h-2.6l-.229,1.393a2.618,2.618,0,0,1,.452-.25,1.913,1.913,0,0,1,.663-.1,1.922,1.922,0,0,1,1.966,2.079,2.426,2.426,0,0,1-.566,1.578,2.059,2.059,0,0,1-1.694.694,2.25,2.25,0,0,1-1.493-.488,1.9,1.9,0,0,1-.649-1.384Z" transform="translate(-32.291 -41.946)"/><path class="cls-7" d="M295.955,98.092a6.279,6.279,0,0,1,0,4.865,2.135,2.135,0,0,1-3.414,0,6.279,6.279,0,0,1,0-4.865,2.129,2.129,0,0,1,3.414,0Zm-2.445,4.116a.725.725,0,0,0,.738.582.715.715,0,0,0,.731-.582,6.2,6.2,0,0,0,.174-1.681,6.129,6.129,0,0,0-.174-1.705.708.708,0,0,0-.731-.554.719.719,0,0,0-.738.554,5.939,5.939,0,0,0-.18,1.705A6.007,6.007,0,0,0,293.509,102.207Z" transform="translate(-32.291 -41.946)"/><path class="cls-7" d="M301.482,102.28h-.721v1.371h-1.227V102.28h-2.522v-1.094l2.343-3.867h1.406V101.3h.721Zm-1.947-.98V98.555l-1.591,2.745Z" transform="translate(-32.291 -41.946)"/></g><g id="Text-5" data-name="Text"><path class="cls-7" d="M288.25,180.364a1.209,1.209,0,0,0,.285.631.8.8,0,0,0,.613.222.826.826,0,0,0,.708-.327,1.345,1.345,0,0,0,.244-.824,1.433,1.433,0,0,0-.229-.824.8.8,0,0,0-.71-.336,1.215,1.215,0,0,0-.395.057.785.785,0,0,0-.443.391L287.2,179.3l.446-3.52h3.507v1.063h-2.6l-.229,1.393a2.618,2.618,0,0,1,.452-.25,1.913,1.913,0,0,1,.663-.1,1.922,1.922,0,0,1,1.966,2.079,2.426,2.426,0,0,1-.566,1.578,2.059,2.059,0,0,1-1.694.694,2.25,2.25,0,0,1-1.493-.488,1.9,1.9,0,0,1-.649-1.384Z" transform="translate(-32.291 -41.946)"/><path class="cls-7" d="M295.955,176.51a6.279,6.279,0,0,1,0,4.865,2.135,2.135,0,0,1-3.414,0,6.279,6.279,0,0,1,0-4.865,2.129,2.129,0,0,1,3.414,0Zm-2.445,4.116a.725.725,0,0,0,.738.582.715.715,0,0,0,.731-.582,6.2,6.2,0,0,0,.174-1.681,6.129,6.129,0,0,0-.174-1.705.708.708,0,0,0-.731-.554.719.719,0,0,0-.738.554,5.939,5.939,0,0,0-.18,1.705A6.007,6.007,0,0,0,293.509,180.626Z" transform="translate(-32.291 -41.946)"/><path class="cls-7" d="M298.26,180.364a1.209,1.209,0,0,0,.285.631.8.8,0,0,0,.613.222.826.826,0,0,0,.708-.327,1.345,1.345,0,0,0,.244-.824,1.433,1.433,0,0,0-.229-.824.8.8,0,0,0-.71-.336,1.215,1.215,0,0,0-.395.057.785.785,0,0,0-.443.391l-1.122-.053.446-3.52h3.507v1.063h-2.6l-.229,1.393a2.618,2.618,0,0,1,.452-.25,1.913,1.913,0,0,1,.663-.1,1.922,1.922,0,0,1,1.966,2.079,2.426,2.426,0,0,1-.566,1.578,2.059,2.059,0,0,1-1.694.694,2.25,2.25,0,0,1-1.493-.488,1.9,1.9,0,0,1-.649-1.384Z" transform="translate(-32.291 -41.946)"/></g><g id="Text-6" data-name="Text"><path class="cls-7" d="M101.73,172.754a1.209,1.209,0,0,0,.285.631.8.8,0,0,0,.613.222.826.826,0,0,0,.708-.327,1.345,1.345,0,0,0,.244-.824,1.433,1.433,0,0,0-.229-.824.8.8,0,0,0-.71-.336,1.215,1.215,0,0,0-.395.057.785.785,0,0,0-.443.391l-1.122-.053.446-3.52h3.507v1.063h-2.6l-.229,1.393a2.618,2.618,0,0,1,.452-.25,1.913,1.913,0,0,1,.663-.1,1.922,1.922,0,0,1,1.966,2.079,2.426,2.426,0,0,1-.566,1.578,2.059,2.059,0,0,1-1.694.694,2.25,2.25,0,0,1-1.493-.488,1.9,1.9,0,0,1-.649-1.384Z" transform="translate(-32.291 -41.946)"/><path class="cls-7" d="M109.437,168.9a6.279,6.279,0,0,1,0,4.865,2.135,2.135,0,0,1-3.414,0,6.279,6.279,0,0,1,0-4.865,2.129,2.129,0,0,1,3.414,0Zm-2.445,4.116a.725.725,0,0,0,.738.582.715.715,0,0,0,.731-.582,6.2,6.2,0,0,0,.174-1.681,6.129,6.129,0,0,0-.174-1.705.708.708,0,0,0-.731-.554.719.719,0,0,0-.738.554,5.939,5.939,0,0,0-.18,1.705A6.007,6.007,0,0,0,106.991,173.016Z" transform="translate(-32.291 -41.946)"/><path class="cls-7" d="M111.725,172.5a1.433,1.433,0,0,0,.123.633.84.84,0,0,0,.828.461.915.915,0,0,0,.643-.253.939.939,0,0,0,.274-.727.82.82,0,0,0-.509-.839,2.569,2.569,0,0,0-.911-.119v-.9a2.353,2.353,0,0,0,.85-.119.733.733,0,0,0,.416-.747.837.837,0,0,0-.213-.593.776.776,0,0,0-.6-.229.756.756,0,0,0-.651.281,1.2,1.2,0,0,0-.2.751h-1.169a3.143,3.143,0,0,1,.162-.9,2.028,2.028,0,0,1,.483-.69,1.682,1.682,0,0,1,.584-.343,2.52,2.52,0,0,1,.829-.119,2.207,2.207,0,0,1,1.473.472,1.576,1.576,0,0,1,.561,1.268,1.406,1.406,0,0,1-.334.949,1.148,1.148,0,0,1-.439.33.91.91,0,0,1,.492.294,1.576,1.576,0,0,1,.479,1.213,2.043,2.043,0,0,1-.56,1.421,2.131,2.131,0,0,1-1.657.613,2,2,0,0,1-1.879-.883,2.622,2.622,0,0,1-.308-1.23Z" transform="translate(-32.291 -41.946)"/><path class="cls-7" d="M115.825,173.145h1.332v1.314h-1.332Z" transform="translate(-32.291 -41.946)"/><path class="cls-7" d="M118.387,170.065v-.853a5.509,5.509,0,0,0,.828-.079,1.168,1.168,0,0,0,.614-.334,1.11,1.11,0,0,0,.245-.457,1.043,1.043,0,0,0,.048-.255h1.047v6.372h-1.283v-4.395Z" transform="translate(-32.291 -41.946)"/></g></g><g id="outline"><polygon class="cls-25" points="16.473 4.643 257.187 16.314 335.237 4.643 335.237 273.076 525.62 273.076 525.62 311.736 742.263 311.736 749.558 685.937 4.073 685.937 16.473 4.643"/><polyline class="cls-26" points="13.42 172.373 138.198 172.373 138.198 140.123 138.198 224.322"/><polyline class="cls-26" points="138.198 121.313 138.198 12.93 192.89 13.196 192.89 67.121"/><polyline class="cls-26" points="192.89 83.244 192.89 146.393 192.89 95.785 335.237 95.785 335.237 172.817 192.89 172.817 192.89 162.964"/><polyline class="cls-26" points="13.42 252.089 138.198 252.089 138.198 239.549 138.198 300.011"/><polyline class="cls-26" points="10.559 329.578 138.198 329.578 138.198 319.717 138.198 379.731"/><polyline class="cls-26" points="421.249 375.7 421.249 320.165 421.249 347.932"/><polyline class="cls-26" points="335.237 273.076 335.237 282.096 192.89 282.096 192.89 300.011 192.89 266.421"/><polyline class="cls-26" points="192.89 381.14 239.864 381.14 239.864 374.214 239.864 385.989"/><polyline class="cls-26" points="193.286 423.737 237.992 423.737 237.992 491.479"/><polyline class="cls-26" points="237.992 423.737 237.992 401.573 237.992 408.153 267.429 408.153 267.429 319.717 261.541 319.717 338.77 319.717 324.225 319.717 324.225 327.461"/><polyline class="cls-26" points="267.429 378.881 325.61 378.881 325.61 374.214 325.61 388.066"/><polyline class="cls-26" points="267.429 341.314 325.61 341.314 325.61 354.127"/><polyline class="cls-26" points="267.429 408.153 282.32 408.153 282.32 412.655 325.61 412.655 325.61 408.153 325.61 423.737"/><polyline class="cls-26" points="372.709 354.127 365.783 354.127 365.783 455.945 372.709 455.945"/><polyline class="cls-26" points="255.654 447.287 325.61 447.287 325.61 441.053 325.61 453.174"/><line class="cls-26" x1="282.32" y1="412.655" x2="282.32" y2="447.114"/><polyline class="cls-26" points="421.249 375.7 421.249 491.479 7.586 491.479"/><path class="cls-26" d="M498.548,361.829" transform="translate(-32.291 -41.946)"/><polyline class="cls-26" points="372.709 319.883 466.258 319.883 524.043 319.883 524.043 273.076"/><line class="cls-26" x1="398.408" y1="320.227" x2="398.408" y2="491.479"/><polyline class="cls-26" points="307.255 447.287 307.255 478.802 276.337 478.802 276.337 491.479"/></g><g id="icons"><circle class="cls-27" cx="309.144" cy="248.667" r="10.336"/><g class="cls-28"><path class="cls-29" d="M329.22,307.248l.544.138a1.831,1.831,0,0,1-.616,1.022,1.7,1.7,0,0,1-1.086.352,1.952,1.952,0,0,1-1.081-.271,1.686,1.686,0,0,1-.633-.784,2.791,2.791,0,0,1-.217-1.1,2.42,2.42,0,0,1,.245-1.12,1.683,1.683,0,0,1,.7-.727,2.044,2.044,0,0,1,1-.248,1.687,1.687,0,0,1,1.038.314,1.633,1.633,0,0,1,.586.883l-.536.126a1.268,1.268,0,0,0-.415-.653,1.106,1.106,0,0,0-.685-.205,1.33,1.33,0,0,0-.792.228,1.2,1.2,0,0,0-.447.61,2.454,2.454,0,0,0-.129.789,2.5,2.5,0,0,0,.153.916,1.139,1.139,0,0,0,.475.584,1.335,1.335,0,0,0,.7.193,1.171,1.171,0,0,0,.774-.263A1.348,1.348,0,0,0,329.22,307.248Z" transform="translate(-32.291 -41.946)"/><path class="cls-29" d="M330.181,307.2a1.536,1.536,0,0,1,.46-1.226,1.388,1.388,0,0,1,.937-.331,1.336,1.336,0,0,1,1,.4,1.531,1.531,0,0,1,.39,1.112,1.973,1.973,0,0,1-.172.9,1.225,1.225,0,0,1-.5.512,1.466,1.466,0,0,1-.719.182,1.339,1.339,0,0,1-1.011-.4A1.6,1.6,0,0,1,330.181,307.2Zm.519,0a1.267,1.267,0,0,0,.25.856.831.831,0,0,0,1.253,0,1.3,1.3,0,0,0,.25-.872,1.232,1.232,0,0,0-.251-.837.832.832,0,0,0-1.252,0A1.263,1.263,0,0,0,330.7,307.2Z" transform="translate(-32.291 -41.946)"/><path class="cls-29" d="M333.563,309.83v-4.119h.46v.387a1.136,1.136,0,0,1,.367-.341,1.01,1.01,0,0,1,.5-.113,1.177,1.177,0,0,1,.673.2,1.2,1.2,0,0,1,.44.554,2.021,2.021,0,0,1,.149.784,1.988,1.988,0,0,1-.164.823,1.236,1.236,0,0,1-.477.561,1.222,1.222,0,0,1-.657.195.95.95,0,0,1-.453-.106,1.034,1.034,0,0,1-.33-.27v1.45Zm.457-2.613a1.294,1.294,0,0,0,.233.85.714.714,0,0,0,.563.275.729.729,0,0,0,.576-.285,1.35,1.35,0,0,0,.24-.882,1.316,1.316,0,0,0-.234-.852.705.705,0,0,0-.56-.283.727.727,0,0,0-.571.3A1.35,1.35,0,0,0,334.02,307.217Z" transform="translate(-32.291 -41.946)"/><path class="cls-29" d="M336.733,309.836l-.056-.474a1.131,1.131,0,0,0,.289.045.551.551,0,0,0,.269-.056.458.458,0,0,0,.166-.157,2.52,2.52,0,0,0,.154-.376c.009-.028.024-.069.045-.124l-1.13-2.983h.544l.62,1.724q.12.328.216.69a6.66,6.66,0,0,1,.208-.679l.636-1.735h.5l-1.133,3.028a5.915,5.915,0,0,1-.283.676,1,1,0,0,1-.309.366.731.731,0,0,1-.415.116A1.013,1.013,0,0,1,336.733,309.836Z" transform="translate(-32.291 -41.946)"/><path class="cls-29" d="M339.249,308.76l1.191-4.251h.4l-1.188,4.251Z" transform="translate(-32.291 -41.946)"/><path class="cls-29" d="M341.287,308.689v-4.11h1.551a3.777,3.777,0,0,1,.625.039,1.236,1.236,0,0,1,.508.192,1.007,1.007,0,0,1,.329.4,1.337,1.337,0,0,1-.208,1.448,1.6,1.6,0,0,1-1.206.363h-1.054v1.671Zm.544-2.156h1.063a1.128,1.128,0,0,0,.749-.2.7.7,0,0,0,.221-.552.742.742,0,0,0-.13-.441.608.608,0,0,0-.343-.243,2.314,2.314,0,0,0-.507-.037h-1.052Z" transform="translate(-32.291 -41.946)"/><path class="cls-29" d="M345.052,308.689v-4.11h.5v1.475a1.127,1.127,0,0,1,.892-.409,1.2,1.2,0,0,1,.575.13.767.767,0,0,1,.349.36,1.656,1.656,0,0,1,.1.667v1.887h-.5V306.8a.78.78,0,0,0-.164-.551.611.611,0,0,0-.464-.172.818.818,0,0,0-.422.116.657.657,0,0,0-.282.315,1.449,1.449,0,0,0-.084.55v1.629Z" transform="translate(-32.291 -41.946)"/><path class="cls-29" d="M348.058,307.2a1.536,1.536,0,0,1,.46-1.226,1.388,1.388,0,0,1,.937-.331,1.336,1.336,0,0,1,1,.4,1.531,1.531,0,0,1,.39,1.112,1.973,1.973,0,0,1-.172.9,1.225,1.225,0,0,1-.5.512,1.466,1.466,0,0,1-.719.182,1.339,1.339,0,0,1-1.011-.4A1.6,1.6,0,0,1,348.058,307.2Zm.519,0a1.267,1.267,0,0,0,.25.856.831.831,0,0,0,1.253,0,1.3,1.3,0,0,0,.25-.872,1.232,1.232,0,0,0-.251-.837.832.832,0,0,0-1.252,0A1.263,1.263,0,0,0,348.577,307.2Z" transform="translate(-32.291 -41.946)"/><path class="cls-29" d="M351.439,308.689v-2.978h.454v.423a1.071,1.071,0,0,1,.948-.491,1.244,1.244,0,0,1,.5.1.776.776,0,0,1,.338.254.972.972,0,0,1,.157.373,2.849,2.849,0,0,1,.028.491v1.831h-.5v-1.812a1.365,1.365,0,0,0-.059-.461.487.487,0,0,0-.209-.244.667.667,0,0,0-.352-.091.817.817,0,0,0-.557.2,1.011,1.011,0,0,0-.234.776v1.626Z" transform="translate(-32.291 -41.946)"/><path class="cls-29" d="M356.671,307.73l.521.064a1.276,1.276,0,0,1-.457.709,1.549,1.549,0,0,1-1.889-.15,1.573,1.573,0,0,1-.382-1.128,1.646,1.646,0,0,1,.387-1.167,1.309,1.309,0,0,1,1-.415,1.272,1.272,0,0,1,.976.407,1.614,1.614,0,0,1,.378,1.144c0,.03,0,.075,0,.135h-2.221a1.143,1.143,0,0,0,.277.751.827.827,0,0,0,.623.261.772.772,0,0,0,.474-.146A.966.966,0,0,0,356.671,307.73Zm-1.657-.816h1.663a1.009,1.009,0,0,0-.19-.563.774.774,0,0,0-.625-.292.8.8,0,0,0-.584.232A.924.924,0,0,0,355.014,306.914Z" transform="translate(-32.291 -41.946)"/></g><g id="Outline_Icons-13-2-4-2-5" data-name="Outline Icons-13-2-4-2-5"><g id="Outline_Icons-14-2-4-2-5" data-name="Outline Icons-14-2-4-2-5"><path class="cls-30" d="M339.595,293.14h-1.034a.741.741,0,0,1-.689-.689V290.5a.741.741,0,0,1,.689-.689h6.087a.662.662,0,0,1,.689.689h0v1.952a.741.741,0,0,1-.689.689h-.919" transform="translate(-32.291 -41.946)"/><polyline class="cls-30" points="307.304 247.289 307.304 246.025 310.635 246.025 311.554 246.944 311.554 247.289"/><rect class="cls-30" x="307.304" y="250.16" width="4.134" height="2.527"/><circle class="cls-30" cx="306.73" cy="248.896" r="0.345"/><line class="cls-30" x1="307.994" y1="250.849" x2="310.865" y2="250.849"/><line class="cls-30" x1="307.994" y1="251.538" x2="310.865" y2="251.538"/><line class="cls-30" x1="307.994" y1="252.112" x2="310.865" y2="252.112"/><polyline class="cls-30" points="310.635 246.025 310.635 246.944 311.554 246.944"/></g></g><circle class="cls-27" cx="137.017" cy="414.868" r="10.336"/><g class="cls-28"><path class="cls-29" d="M160.359,474.892v-4.11h.544v3.625h2.024v.485Z" transform="translate(-32.291 -41.946)"/><path class="cls-29" d="M163.322,473.4a1.536,1.536,0,0,1,.46-1.226,1.39,1.39,0,0,1,.937-.33,1.335,1.335,0,0,1,1,.4,1.529,1.529,0,0,1,.39,1.111,1.972,1.972,0,0,1-.172.9,1.219,1.219,0,0,1-.5.512,1.466,1.466,0,0,1-.719.183,1.337,1.337,0,0,1-1.011-.4A1.6,1.6,0,0,1,163.322,473.4Zm.519,0a1.266,1.266,0,0,0,.25.856.83.83,0,0,0,1.253,0,1.3,1.3,0,0,0,.25-.872,1.231,1.231,0,0,0-.251-.837.832.832,0,0,0-1.252,0A1.265,1.265,0,0,0,163.841,473.4Z" transform="translate(-32.291 -41.946)"/><path class="cls-29" d="M168.655,474.892v-.437a1.092,1.092,0,0,1-.945.5,1.2,1.2,0,0,1-.492-.1.806.806,0,0,1-.339-.254.956.956,0,0,1-.156-.374,2.563,2.563,0,0,1-.031-.471v-1.845h.5v1.651a2.945,2.945,0,0,0,.031.532.525.525,0,0,0,.2.313.623.623,0,0,0,.381.114.827.827,0,0,0,.426-.117.643.643,0,0,0,.282-.316,1.588,1.588,0,0,0,.083-.582v-1.595h.5v2.978Z" transform="translate(-32.291 -41.946)"/><path class="cls-29" d="M169.9,474.892v-2.978h.454v.423a1.07,1.07,0,0,1,.948-.49,1.244,1.244,0,0,1,.5.1.773.773,0,0,1,.338.254.97.97,0,0,1,.157.372,2.856,2.856,0,0,1,.028.491v1.831h-.5V473.08a1.361,1.361,0,0,0-.059-.461.483.483,0,0,0-.209-.244.667.667,0,0,0-.352-.091.817.817,0,0,0-.557.2,1.011,1.011,0,0,0-.234.776v1.627Z" transform="translate(-32.291 -41.946)"/><path class="cls-29" d="M173,475.138l.491.073a.467.467,0,0,0,.171.331.838.838,0,0,0,.513.14.9.9,0,0,0,.541-.14.693.693,0,0,0,.258-.393,3.192,3.192,0,0,0,.037-.647,1.039,1.039,0,0,1-.824.39,1.122,1.122,0,0,1-.951-.443,1.706,1.706,0,0,1-.336-1.062,1.972,1.972,0,0,1,.154-.786,1.232,1.232,0,0,1,.447-.557,1.207,1.207,0,0,1,.688-.2,1.068,1.068,0,0,1,.87.426v-.358h.465v2.573a2.45,2.45,0,0,1-.142.986,1.039,1.039,0,0,1-.449.458,1.553,1.553,0,0,1-.756.168,1.427,1.427,0,0,1-.86-.239A.811.811,0,0,1,173,475.138Zm.417-1.788a1.288,1.288,0,0,0,.233.854.768.768,0,0,0,1.167,0,1.253,1.253,0,0,0,.235-.84,1.221,1.221,0,0,0-.243-.824.749.749,0,0,0-.584-.278.73.73,0,0,0-.572.273A1.215,1.215,0,0,0,173.416,473.35Z" transform="translate(-32.291 -41.946)"/><path class="cls-29" d="M178.322,473.933l.521.064a1.273,1.273,0,0,1-.457.709,1.547,1.547,0,0,1-1.889-.149,1.574,1.574,0,0,1-.382-1.129,1.644,1.644,0,0,1,.387-1.166,1.308,1.308,0,0,1,1-.415,1.271,1.271,0,0,1,.976.406,1.615,1.615,0,0,1,.378,1.144c0,.03,0,.075,0,.135h-2.221a1.144,1.144,0,0,0,.277.752.827.827,0,0,0,.623.261.769.769,0,0,0,.474-.146A.965.965,0,0,0,178.322,473.933Zm-1.657-.816h1.663a1.011,1.011,0,0,0-.19-.563.773.773,0,0,0-.625-.291.8.8,0,0,0-.584.232A.923.923,0,0,0,176.665,473.117Z" transform="translate(-32.291 -41.946)"/><path class="cls-29" d="M163.446,480.634l1.579-4.11h.586l1.682,4.11h-.62l-.479-1.245h-1.719l-.451,1.245Zm1.186-1.688h1.394l-.429-1.138q-.2-.519-.292-.853a5.182,5.182,0,0,1-.222.785Z" transform="translate(-32.291 -41.946)"/><path class="cls-29" d="M167.657,480.634v-2.978h.454v.451a1.235,1.235,0,0,1,.321-.418.561.561,0,0,1,.324-.1.984.984,0,0,1,.519.162l-.174.469a.719.719,0,0,0-.37-.109.481.481,0,0,0-.3.1.537.537,0,0,0-.187.275,1.966,1.966,0,0,0-.084.589v1.56Z" transform="translate(-32.291 -41.946)"/><path class="cls-29" d="M171.613,479.675l.521.064a1.273,1.273,0,0,1-.457.709,1.547,1.547,0,0,1-1.889-.149,1.574,1.574,0,0,1-.382-1.129,1.644,1.644,0,0,1,.387-1.166,1.308,1.308,0,0,1,1-.415,1.271,1.271,0,0,1,.976.406,1.615,1.615,0,0,1,.378,1.144c0,.03,0,.075,0,.135h-2.221a1.144,1.144,0,0,0,.277.752.827.827,0,0,0,.623.261.769.769,0,0,0,.474-.146A.965.965,0,0,0,171.613,479.675Zm-1.657-.816h1.663a1.011,1.011,0,0,0-.19-.563A.773.773,0,0,0,170.8,478a.8.8,0,0,0-.584.232A.923.923,0,0,0,169.956,478.859Z" transform="translate(-32.291 -41.946)"/><path class="cls-29" d="M174.711,480.267a1.9,1.9,0,0,1-.54.336,1.559,1.559,0,0,1-.557.1,1.079,1.079,0,0,1-.754-.24.79.79,0,0,1-.264-.612.83.83,0,0,1,.36-.689,1.213,1.213,0,0,1,.363-.166,3.625,3.625,0,0,1,.449-.075,4.616,4.616,0,0,0,.9-.174q0-.1,0-.132a.555.555,0,0,0-.143-.435.843.843,0,0,0-.575-.172.891.891,0,0,0-.525.125.761.761,0,0,0-.251.441l-.494-.066a1.217,1.217,0,0,1,.222-.512.97.97,0,0,1,.446-.3,2.006,2.006,0,0,1,.675-.1,1.774,1.774,0,0,1,.62.09.812.812,0,0,1,.35.226.8.8,0,0,1,.157.343,2.865,2.865,0,0,1,.025.466v.673a7.156,7.156,0,0,0,.032.891,1.128,1.128,0,0,0,.127.357h-.527A1.067,1.067,0,0,1,174.711,480.267Zm-.042-1.128a3.687,3.687,0,0,1-.824.191,1.889,1.889,0,0,0-.44.1.437.437,0,0,0-.2.164.446.446,0,0,0,.083.576.657.657,0,0,0,.447.135,1.043,1.043,0,0,0,.519-.128.786.786,0,0,0,.333-.349,1.221,1.221,0,0,0,.081-.5Z" transform="translate(-32.291 -41.946)"/></g><line class="cls-31" x1="136.529" y1="413.284" x2="137.074" y2="413.779"/><line class="cls-31" x1="136.529" y1="414.67" x2="137.074" y2="414.126"/><line class="cls-31" x1="134.202" y1="419.522" x2="134.202" y2="420.463"/><line class="cls-31" x1="140.243" y1="419.522" x2="140.243" y2="420.463"/><path class="cls-31" d="M173.919,460.577a.847.847,0,0,1-.842.891h-7.031a.965.965,0,0,1-.941-.891h0v-.743a.951.951,0,0,1,.644-.891,10.387,10.387,0,0,1,7.526,0,.951.951,0,0,1,.644.891Z" transform="translate(-32.291 -41.946)"/><path class="cls-31" d="M173.87,459.538a1.409,1.409,0,0,0-.891-2.674,1.418,1.418,0,0,0-.941,1.733" transform="translate(-32.291 -41.946)"/><path class="cls-31" d="M166.938,458.6a1.394,1.394,0,0,0-2.674-.792,1.457,1.457,0,0,0,.891,1.733" transform="translate(-32.291 -41.946)"/><path class="cls-31" d="M173.523,456.815a4.179,4.179,0,0,0-8.12-1.98h0a4.24,4.24,0,0,0,0,1.931" transform="translate(-32.291 -41.946)"/><line class="cls-31" x1="137.371" y1="414.126" x2="137.965" y2="414.67"/><line class="cls-31" x1="137.371" y1="413.779" x2="137.965" y2="413.284"/><path class="cls-31" d="M169.711,455.923a.234.234,0,0,1-.248.248h0a.234.234,0,0,1-.248-.248h0a.234.234,0,0,1,.248-.248h0a.234.234,0,0,1,.248.248Z" transform="translate(-32.291 -41.946)"/><circle class="cls-27" cx="296.52" cy="356.013" r="10.336"/><g class="cls-28"><path class="cls-29" d="M323.218,416.036v-4.11h.544v3.625h2.024v.485Z" transform="translate(-32.291 -41.946)"/><path class="cls-29" d="M326.372,412.505v-.58h.5v.58Zm0,3.53v-2.978h.5v2.978Z" transform="translate(-32.291 -41.946)"/><path class="cls-29" d="M327.766,416.036v-2.585h-.446v-.393h.446v-.317a1.377,1.377,0,0,1,.053-.445.646.646,0,0,1,.257-.318.925.925,0,0,1,.514-.122,2.43,2.43,0,0,1,.471.051l-.076.439a1.7,1.7,0,0,0-.3-.027.442.442,0,0,0-.325.1.532.532,0,0,0-.1.367v.275h.581v.393h-.581v2.585Z" transform="translate(-32.291 -41.946)"/><path class="cls-29" d="M330.342,415.583l.073.446a1.846,1.846,0,0,1-.381.045.868.868,0,0,1-.426-.087.484.484,0,0,1-.213-.229,1.812,1.812,0,0,1-.062-.6v-1.713h-.37v-.393h.37v-.738l.5-.3v1.041h.507v.393h-.507v1.741a.887.887,0,0,0,.026.277.21.21,0,0,0,.087.1.334.334,0,0,0,.172.037A1.577,1.577,0,0,0,330.342,415.583Z" transform="translate(-32.291 -41.946)"/><path class="cls-29" d="M334.191,416.036h-.5V412.82a2.655,2.655,0,0,1-.478.348,3.523,3.523,0,0,1-.531.261v-.488a3.024,3.024,0,0,0,.74-.482,1.889,1.889,0,0,0,.449-.55h.325Z" transform="translate(-32.291 -41.946)"/></g><rect class="cls-32" x="291.788" y="351.181" width="9.887" height="9.887" rx="0.353" ry="0.353"/><rect class="cls-32" x="293.807" y="353.433" width="2.547" height="7.521"/><rect class="cls-32" x="296.355" y="353.433" width="2.547" height="7.521"/><line class="cls-32" x1="295.866" y1="352.272" x2="297.613" y2="352.272"/><polyline class="cls-33" points="299.889 356.345 300.361 355.903 300.833 356.345"/><polyline class="cls-33" points="299.889 356.973 300.361 357.415 300.833 356.973"/><circle class="cls-27" cx="383.046" cy="398.609" r="10.336"/><g class="cls-28"><path class="cls-29" d="M408.467,457.312l.513-.045a1.131,1.131,0,0,0,.17.506.929.929,0,0,0,.414.32,1.568,1.568,0,0,0,.631.121,1.515,1.515,0,0,0,.549-.092.76.76,0,0,0,.354-.254.588.588,0,0,0,.117-.352.533.533,0,0,0-.112-.338.828.828,0,0,0-.37-.243,7.3,7.3,0,0,0-.732-.2,3.707,3.707,0,0,1-.793-.257,1.109,1.109,0,0,1-.438-.383.933.933,0,0,1-.145-.512A1.039,1.039,0,0,1,408.8,455a1.094,1.094,0,0,1,.516-.411,1.952,1.952,0,0,1,.754-.141,2.07,2.07,0,0,1,.806.147,1.161,1.161,0,0,1,.537.434,1.24,1.24,0,0,1,.2.647l-.521.039a.843.843,0,0,0-.285-.589,1.107,1.107,0,0,0-.716-.2,1.146,1.146,0,0,0-.719.182.541.541,0,0,0-.226.436.467.467,0,0,0,.16.364,2.15,2.15,0,0,0,.82.293,5.43,5.43,0,0,1,.91.263,1.246,1.246,0,0,1,.53.419,1.02,1.02,0,0,1,.171.585,1.119,1.119,0,0,1-.188.618,1.237,1.237,0,0,1-.54.451,1.88,1.88,0,0,1-.792.161,2.383,2.383,0,0,1-.935-.162,1.308,1.308,0,0,1-.591-.49A1.386,1.386,0,0,1,408.467,457.312Z" transform="translate(-32.291 -41.946)"/><path class="cls-29" d="M413.52,458.181l.073.446a1.909,1.909,0,0,1-.381.044.857.857,0,0,1-.426-.087.484.484,0,0,1-.213-.229,1.808,1.808,0,0,1-.062-.6v-1.713h-.37v-.393h.37v-.737l.5-.3v1.04h.507v.393h-.507v1.741a.887.887,0,0,0,.026.277.212.212,0,0,0,.087.1.334.334,0,0,0,.172.036A1.71,1.71,0,0,0,413.52,458.181Z" transform="translate(-32.291 -41.946)"/><path class="cls-29" d="M415.956,458.265a1.878,1.878,0,0,1-.54.337,1.559,1.559,0,0,1-.557.1,1.084,1.084,0,0,1-.754-.239.792.792,0,0,1-.264-.613.816.816,0,0,1,.1-.4.831.831,0,0,1,.261-.29,1.211,1.211,0,0,1,.363-.165,3.587,3.587,0,0,1,.449-.076,4.616,4.616,0,0,0,.9-.174q0-.1,0-.132a.556.556,0,0,0-.143-.435.843.843,0,0,0-.575-.171.891.891,0,0,0-.525.125.761.761,0,0,0-.251.441l-.494-.067a1.222,1.222,0,0,1,.222-.512.969.969,0,0,1,.446-.3,1.981,1.981,0,0,1,.675-.105,1.8,1.8,0,0,1,.62.09.812.812,0,0,1,.35.226.793.793,0,0,1,.157.344,2.865,2.865,0,0,1,.025.466v.673a7.136,7.136,0,0,0,.032.89,1.12,1.12,0,0,0,.127.357h-.527A1.061,1.061,0,0,1,415.956,458.265Zm-.042-1.127a3.642,3.642,0,0,1-.824.19,1.878,1.878,0,0,0-.44.1.441.441,0,0,0-.2.163.447.447,0,0,0,.083.577.662.662,0,0,0,.447.134,1.043,1.043,0,0,0,.519-.127.789.789,0,0,0,.333-.35,1.218,1.218,0,0,0,.081-.5Z" transform="translate(-32.291 -41.946)"/><path class="cls-29" d="M417.209,455.1v-.58h.5v.58Zm0,3.53v-2.978h.5v2.978Z" transform="translate(-32.291 -41.946)"/><path class="cls-29" d="M418.477,458.632v-2.978h.454v.451a1.219,1.219,0,0,1,.321-.417.562.562,0,0,1,.324-.1.986.986,0,0,1,.519.163l-.174.468a.728.728,0,0,0-.37-.109.481.481,0,0,0-.3.1.536.536,0,0,0-.187.276,1.966,1.966,0,0,0-.084.589v1.559Z" transform="translate(-32.291 -41.946)"/><path class="cls-29" d="M420.192,457.744l.5-.078a.7.7,0,0,0,.234.46.818.818,0,0,0,.538.159.787.787,0,0,0,.516-.142.422.422,0,0,0,.168-.332.306.306,0,0,0-.148-.27,2.2,2.2,0,0,0-.516-.171,4.644,4.644,0,0,1-.77-.242.735.735,0,0,1-.436-.683.766.766,0,0,1,.091-.369.8.8,0,0,1,.248-.281,1.024,1.024,0,0,1,.321-.147,1.536,1.536,0,0,1,.437-.061,1.721,1.721,0,0,1,.615.1.84.84,0,0,1,.392.272,1.081,1.081,0,0,1,.174.462l-.494.067a.54.54,0,0,0-.194-.359.714.714,0,0,0-.456-.129.82.82,0,0,0-.5.115.334.334,0,0,0-.149.269.276.276,0,0,0,.062.177.437.437,0,0,0,.193.135c.051.019.2.062.446.129a6.365,6.365,0,0,1,.747.234.761.761,0,0,1,.332.265.742.742,0,0,1,.12.432.849.849,0,0,1-.146.476.956.956,0,0,1-.425.345,1.536,1.536,0,0,1-.628.122,1.4,1.4,0,0,1-.885-.241A1.119,1.119,0,0,1,420.192,457.744Z" transform="translate(-32.291 -41.946)"/></g><g id="Outline_Icons-2-2-4-2-2-2-3" data-name="Outline Icons-2-2-4-2-2-2-3"><line class="cls-30" x1="379.07" y1="402.082" x2="386.306" y2="402.082"/><polyline class="cls-30" points="385.042 402.082 385.042 400.818 383.779 400.818 383.779 399.555 382.516 399.555 382.516 398.292 381.253 398.292 381.253 397.028 379.07 397.028"/><line class="cls-30" x1="382.86" y1="394.846" x2="386.765" y2="398.751"/><polyline class="cls-30" points="382.86 396.454 382.86 394.846 384.468 394.846"/><polyline class="cls-30" points="386.765 397.258 386.765 398.751 385.272 398.751"/></g><circle class="cls-27" cx="296.52" cy="391.502" r="10.336"/><g class="cls-28"><path class="cls-29" d="M323.218,451.526v-4.11h.544v3.625h2.024v.485Z" transform="translate(-32.291 -41.946)"/><path class="cls-29" d="M326.372,448v-.58h.5V448Zm0,3.53v-2.978h.5v2.978Z" transform="translate(-32.291 -41.946)"/><path class="cls-29" d="M327.766,451.526v-2.585h-.446v-.393h.446v-.317a1.377,1.377,0,0,1,.053-.445.646.646,0,0,1,.257-.318.925.925,0,0,1,.514-.122,2.43,2.43,0,0,1,.471.051l-.076.439a1.7,1.7,0,0,0-.3-.027.442.442,0,0,0-.325.1.532.532,0,0,0-.1.367v.275h.581v.393h-.581v2.585Z" transform="translate(-32.291 -41.946)"/><path class="cls-29" d="M330.342,451.074l.073.446a1.846,1.846,0,0,1-.381.045.868.868,0,0,1-.426-.087.484.484,0,0,1-.213-.229,1.812,1.812,0,0,1-.062-.6v-1.713h-.37v-.393h.37v-.738l.5-.3v1.041h.507v.393h-.507v1.741a.887.887,0,0,0,.026.277.21.21,0,0,0,.087.1.334.334,0,0,0,.172.037A1.577,1.577,0,0,0,330.342,451.074Z" transform="translate(-32.291 -41.946)"/><path class="cls-29" d="M334.943,451.04v.485h-2.717a.89.89,0,0,1,.059-.351,1.844,1.844,0,0,1,.332-.547,5.192,5.192,0,0,1,.66-.622,5.626,5.626,0,0,0,.906-.871,1.04,1.04,0,0,0,.235-.607.675.675,0,0,0-.214-.506.777.777,0,0,0-.559-.206.79.79,0,0,0-.583.219.826.826,0,0,0-.221.605l-.519-.053a1.28,1.28,0,0,1,.4-.885,1.367,1.367,0,0,1,.934-.3,1.3,1.3,0,0,1,.937.328,1.079,1.079,0,0,1,.345.813,1.236,1.236,0,0,1-.1.485,1.9,1.9,0,0,1-.335.5,8.19,8.19,0,0,1-.778.723c-.3.255-.5.427-.583.518a1.637,1.637,0,0,0-.213.273Z" transform="translate(-32.291 -41.946)"/></g><rect class="cls-32" x="291.788" y="386.67" width="9.887" height="9.887" rx="0.353" ry="0.353"/><rect class="cls-32" x="293.807" y="388.923" width="2.547" height="7.521"/><rect class="cls-32" x="296.355" y="388.923" width="2.547" height="7.521"/><line class="cls-32" x1="295.866" y1="387.762" x2="297.613" y2="387.762"/><polyline class="cls-33" points="299.889 391.835 300.361 391.393 300.833 391.835"/><polyline class="cls-33" points="299.889 392.463 300.361 392.905 300.833 392.463"/><circle class="cls-27" cx="304.386" cy="426.014" r="10.336"/><g class="cls-28"><path class="cls-29" d="M331.084,486.036v-4.11h.544v3.626h2.024v.484Z" transform="translate(-32.291 -41.946)"/><path class="cls-29" d="M334.239,482.506v-.58h.5v.58Zm0,3.53v-2.978h.5v2.978Z" transform="translate(-32.291 -41.946)"/><path class="cls-29" d="M335.632,486.036v-2.585h-.446v-.393h.446v-.316a1.388,1.388,0,0,1,.053-.446.65.65,0,0,1,.257-.318.925.925,0,0,1,.514-.122,2.509,2.509,0,0,1,.471.051l-.076.44a1.706,1.706,0,0,0-.3-.028.442.442,0,0,0-.325.1.532.532,0,0,0-.1.367v.274h.581v.393h-.581v2.585Z" transform="translate(-32.291 -41.946)"/><path class="cls-29" d="M338.209,485.585l.073.446a1.909,1.909,0,0,1-.381.044.857.857,0,0,1-.426-.087.484.484,0,0,1-.213-.229,1.808,1.808,0,0,1-.062-.6v-1.713h-.37v-.393h.37v-.737l.5-.3v1.04h.507v.393H337.7v1.741a.887.887,0,0,0,.026.277.212.212,0,0,0,.087.1.334.334,0,0,0,.172.036A1.71,1.71,0,0,0,338.209,485.585Z" transform="translate(-32.291 -41.946)"/><path class="cls-29" d="M340.16,484.952l.5-.067a1.112,1.112,0,0,0,.3.618.732.732,0,0,0,.509.189.813.813,0,0,0,.6-.247.831.831,0,0,0,.246-.61.775.775,0,0,0-.227-.574.787.787,0,0,0-.578-.226,1.421,1.421,0,0,0-.356.057l.056-.443a.744.744,0,0,0,.082.006,1.045,1.045,0,0,0,.58-.168.576.576,0,0,0,.258-.52.617.617,0,0,0-.188-.46.669.669,0,0,0-.485-.182.688.688,0,0,0-.491.185.93.93,0,0,0-.252.556l-.5-.09a1.3,1.3,0,0,1,.421-.786,1.212,1.212,0,0,1,.816-.279,1.34,1.34,0,0,1,.62.145,1.044,1.044,0,0,1,.433.394,1.012,1.012,0,0,1,.15.53.871.871,0,0,1-.143.485.977.977,0,0,1-.423.348.951.951,0,0,1,.566.349,1.061,1.061,0,0,1,.2.663,1.215,1.215,0,0,1-.392.913,1.383,1.383,0,0,1-.993.374,1.292,1.292,0,0,1-.9-.322A1.248,1.248,0,0,1,340.16,484.952Z" transform="translate(-32.291 -41.946)"/></g><rect class="cls-32" x="299.654" y="421.182" width="9.887" height="9.887" rx="0.353" ry="0.353"/><rect class="cls-32" x="301.674" y="423.435" width="2.547" height="7.521"/><rect class="cls-32" x="304.221" y="423.435" width="2.547" height="7.521"/><line class="cls-32" x1="303.733" y1="422.274" x2="305.48" y2="422.274"/><polyline class="cls-33" points="307.756 426.347 308.228 425.904 308.699 426.347"/><polyline class="cls-33" points="307.756 426.974 308.228 427.417 308.699 426.974"/><circle class="cls-27" cx="216.345" cy="454.524" r="10.336"/><g id="Outline_Icons-5-3" data-name="Outline Icons-5-3"><path class="cls-30" d="M252.31,496.7c0,.115-.115.345-.23.345h-2.067v-4.249a.785.785,0,0,1,.8-.8h.8a.785.785,0,0,1,.8.8h0l-.115,3.9Z" transform="translate(-32.291 -41.946)"/><path class="cls-30" d="M246.913,500.949h3.9v-2.3l1.148-.8v-.8H245.3A1.813,1.813,0,0,0,247.027,499h.115Z" transform="translate(-32.291 -41.946)"/><rect class="cls-30" x="212.67" y="454.409" width="5.053" height="0.804"/><circle class="cls-30" cx="219.101" cy="451.423" r="0.345"/></g><g class="cls-28"><path class="cls-29" d="M243.633,514.546v-3.625h-1.354v-.485h3.258v.485h-1.36v3.625Z" transform="translate(-32.291 -41.946)"/><path class="cls-29" d="M245.207,513.058a1.535,1.535,0,0,1,.46-1.226,1.386,1.386,0,0,1,.937-.331,1.338,1.338,0,0,1,1,.4,1.532,1.532,0,0,1,.39,1.112,1.974,1.974,0,0,1-.172.9,1.23,1.23,0,0,1-.5.512,1.466,1.466,0,0,1-.719.182,1.34,1.34,0,0,1-1.011-.4A1.6,1.6,0,0,1,245.207,513.058Zm.519,0a1.268,1.268,0,0,0,.25.856.831.831,0,0,0,1.253,0,1.3,1.3,0,0,0,.25-.872,1.233,1.233,0,0,0-.251-.837.832.832,0,0,0-1.252,0A1.261,1.261,0,0,0,245.726,513.058Z" transform="translate(-32.291 -41.946)"/><path class="cls-29" d="M248.591,511.016v-.58h.5v.58Zm0,3.53v-2.978h.5v2.978Z" transform="translate(-32.291 -41.946)"/><path class="cls-29" d="M249.852,514.546v-4.11h.5v4.11Z" transform="translate(-32.291 -41.946)"/><path class="cls-29" d="M253.178,513.587l.521.064a1.279,1.279,0,0,1-.457.71,1.377,1.377,0,0,1-.853.252,1.361,1.361,0,0,1-1.036-.4,1.572,1.572,0,0,1-.382-1.128,1.647,1.647,0,0,1,.387-1.167,1.311,1.311,0,0,1,1-.415,1.272,1.272,0,0,1,.976.407,1.614,1.614,0,0,1,.378,1.144c0,.03,0,.075,0,.135h-2.221a1.141,1.141,0,0,0,.277.751.827.827,0,0,0,.623.261.775.775,0,0,0,.474-.146A.968.968,0,0,0,253.178,513.587Zm-1.657-.815h1.663a1.008,1.008,0,0,0-.19-.563.774.774,0,0,0-.625-.292.806.806,0,0,0-.584.232A.925.925,0,0,0,251.521,512.772Z" transform="translate(-32.291 -41.946)"/><path class="cls-29" d="M255.435,514.1l.073.446a1.909,1.909,0,0,1-.381.044.857.857,0,0,1-.426-.087.484.484,0,0,1-.213-.229,1.808,1.808,0,0,1-.062-.6v-1.713h-.37v-.393h.37v-.737l.5-.3v1.04h.507v.393h-.507V513.7a.887.887,0,0,0,.026.277.212.212,0,0,0,.087.1.334.334,0,0,0,.172.036A1.71,1.71,0,0,0,255.435,514.1Z" transform="translate(-32.291 -41.946)"/></g><circle class="cls-27" cx="259.452" cy="454.524" r="10.336"/><g id="Outline_Icons-5-3-2" data-name="Outline Icons-5-3"><path class="cls-30" d="M295.418,496.7c0,.115-.115.345-.23.345h-2.067v-4.249a.785.785,0,0,1,.8-.8h.8a.785.785,0,0,1,.8.8h0l-.115,3.9Z" transform="translate(-32.291 -41.946)"/><path class="cls-30" d="M290.02,500.949h3.9v-2.3l1.148-.8v-.8h-6.661A1.813,1.813,0,0,0,290.135,499h.115Z" transform="translate(-32.291 -41.946)"/><rect class="cls-30" x="255.777" y="454.409" width="5.053" height="0.804"/><circle class="cls-30" cx="262.209" cy="451.423" r="0.345"/></g><g class="cls-28"><path class="cls-29" d="M286.741,514.546v-3.625h-1.354v-.485h3.258v.485h-1.36v3.625Z" transform="translate(-32.291 -41.946)"/><path class="cls-29" d="M288.314,513.058a1.535,1.535,0,0,1,.46-1.226,1.386,1.386,0,0,1,.937-.331,1.338,1.338,0,0,1,1,.4,1.532,1.532,0,0,1,.39,1.112,1.974,1.974,0,0,1-.172.9,1.23,1.23,0,0,1-.5.512,1.466,1.466,0,0,1-.719.182,1.34,1.34,0,0,1-1.011-.4A1.6,1.6,0,0,1,288.314,513.058Zm.519,0a1.268,1.268,0,0,0,.25.856.831.831,0,0,0,1.253,0,1.3,1.3,0,0,0,.25-.872,1.233,1.233,0,0,0-.251-.837.832.832,0,0,0-1.252,0A1.261,1.261,0,0,0,288.833,513.058Z" transform="translate(-32.291 -41.946)"/><path class="cls-29" d="M291.7,511.016v-.58h.5v.58Zm0,3.53v-2.978h.5v2.978Z" transform="translate(-32.291 -41.946)"/><path class="cls-29" d="M292.959,514.546v-4.11h.5v4.11Z" transform="translate(-32.291 -41.946)"/><path class="cls-29" d="M296.286,513.587l.521.064a1.279,1.279,0,0,1-.457.71,1.377,1.377,0,0,1-.853.252,1.361,1.361,0,0,1-1.036-.4,1.572,1.572,0,0,1-.382-1.128,1.647,1.647,0,0,1,.387-1.167,1.311,1.311,0,0,1,1-.415,1.272,1.272,0,0,1,.976.407,1.614,1.614,0,0,1,.378,1.144c0,.03,0,.075,0,.135H294.6a1.141,1.141,0,0,0,.277.751.827.827,0,0,0,.623.261.775.775,0,0,0,.474-.146A.968.968,0,0,0,296.286,513.587Zm-1.657-.815h1.663a1.008,1.008,0,0,0-.19-.563.774.774,0,0,0-.625-.292.806.806,0,0,0-.584.232A.925.925,0,0,0,294.628,512.772Z" transform="translate(-32.291 -41.946)"/><path class="cls-29" d="M298.542,514.1l.073.446a1.909,1.909,0,0,1-.381.044.857.857,0,0,1-.426-.087.484.484,0,0,1-.213-.229,1.808,1.808,0,0,1-.062-.6v-1.713h-.37v-.393h.37v-.737l.5-.3v1.04h.507v.393h-.507V513.7a.887.887,0,0,0,.026.277.212.212,0,0,0,.087.1.334.334,0,0,0,.172.036A1.71,1.71,0,0,0,298.542,514.1Z" transform="translate(-32.291 -41.946)"/></g><circle class="cls-27" cx="216.345" cy="398.212" r="10.336"/><g id="Outline_Icons-5-3-3" data-name="Outline Icons-5-3"><path class="cls-30" d="M252.31,440.388c0,.115-.115.345-.23.345h-2.067v-4.249a.785.785,0,0,1,.8-.8h.8a.785.785,0,0,1,.8.8h0l-.115,3.9Z" transform="translate(-32.291 -41.946)"/><path class="cls-30" d="M246.913,444.637h3.9v-2.3l1.148-.8v-.8H245.3a1.813,1.813,0,0,0,1.723,1.952h.115Z" transform="translate(-32.291 -41.946)"/><rect class="cls-30" x="212.67" y="398.097" width="5.053" height="0.804"/><circle class="cls-30" cx="219.101" cy="395.111" r="0.345"/></g><g class="cls-28"><path class="cls-29" d="M243.633,458.235v-3.626h-1.354v-.484h3.258v.484h-1.36v3.626Z" transform="translate(-32.291 -41.946)"/><path class="cls-29" d="M245.207,456.745a1.536,1.536,0,0,1,.46-1.226,1.39,1.39,0,0,1,.937-.33,1.335,1.335,0,0,1,1,.4A1.529,1.529,0,0,1,248,456.7a1.972,1.972,0,0,1-.172.9,1.219,1.219,0,0,1-.5.512,1.466,1.466,0,0,1-.719.183,1.337,1.337,0,0,1-1.011-.4A1.6,1.6,0,0,1,245.207,456.745Zm.519,0a1.266,1.266,0,0,0,.25.856.83.83,0,0,0,1.253,0,1.3,1.3,0,0,0,.25-.872,1.231,1.231,0,0,0-.251-.837.832.832,0,0,0-1.252,0A1.265,1.265,0,0,0,245.726,456.745Z" transform="translate(-32.291 -41.946)"/><path class="cls-29" d="M248.591,454.7v-.58h.5v.58Zm0,3.53v-2.978h.5v2.978Z" transform="translate(-32.291 -41.946)"/><path class="cls-29" d="M249.852,458.235v-4.11h.5v4.11Z" transform="translate(-32.291 -41.946)"/><path class="cls-29" d="M253.178,457.276l.521.064a1.273,1.273,0,0,1-.457.709,1.547,1.547,0,0,1-1.889-.149,1.574,1.574,0,0,1-.382-1.129,1.644,1.644,0,0,1,.387-1.166,1.308,1.308,0,0,1,1-.415,1.271,1.271,0,0,1,.976.406,1.615,1.615,0,0,1,.378,1.144c0,.03,0,.075,0,.135h-2.221a1.144,1.144,0,0,0,.277.752.827.827,0,0,0,.623.261.769.769,0,0,0,.474-.146A.965.965,0,0,0,253.178,457.276Zm-1.657-.816h1.663a1.011,1.011,0,0,0-.19-.563.773.773,0,0,0-.625-.291.8.8,0,0,0-.584.232A.923.923,0,0,0,251.521,456.459Z" transform="translate(-32.291 -41.946)"/><path class="cls-29" d="M255.435,457.783l.073.446a1.846,1.846,0,0,1-.381.045.868.868,0,0,1-.426-.087.484.484,0,0,1-.213-.229,1.812,1.812,0,0,1-.062-.6V455.65h-.37v-.393h.37v-.738l.5-.3v1.041h.507v.393h-.507v1.741a.887.887,0,0,0,.026.277.21.21,0,0,0,.087.1.334.334,0,0,0,.172.037A1.577,1.577,0,0,0,255.435,457.783Z" transform="translate(-32.291 -41.946)"/></g><circle class="cls-27" cx="216.345" cy="346.918" r="10.336"/><g id="Outline_Icons-5-3-4" data-name="Outline Icons-5-3"><path class="cls-30" d="M252.31,389.094c0,.115-.115.345-.23.345h-2.067V385.19a.785.785,0,0,1,.8-.8h.8a.785.785,0,0,1,.8.8h0l-.115,3.9Z" transform="translate(-32.291 -41.946)"/><path class="cls-30" d="M246.913,393.344h3.9v-2.3l1.148-.8v-.8H245.3a1.813,1.813,0,0,0,1.723,1.952h.115Z" transform="translate(-32.291 -41.946)"/><rect class="cls-30" x="212.67" y="346.803" width="5.053" height="0.804"/><circle class="cls-30" cx="219.101" cy="343.817" r="0.345"/></g><g class="cls-28"><path class="cls-29" d="M243.633,406.941v-3.625h-1.354v-.485h3.258v.485h-1.36v3.625Z" transform="translate(-32.291 -41.946)"/><path class="cls-29" d="M245.206,405.453a1.535,1.535,0,0,1,.46-1.226,1.386,1.386,0,0,1,.937-.331,1.338,1.338,0,0,1,1,.4,1.532,1.532,0,0,1,.39,1.112,1.974,1.974,0,0,1-.172.9,1.23,1.23,0,0,1-.5.512,1.466,1.466,0,0,1-.719.182,1.34,1.34,0,0,1-1.011-.4A1.6,1.6,0,0,1,245.206,405.453Zm.519,0a1.268,1.268,0,0,0,.25.856.831.831,0,0,0,1.253,0,1.3,1.3,0,0,0,.25-.872,1.233,1.233,0,0,0-.251-.837.832.832,0,0,0-1.252,0A1.261,1.261,0,0,0,245.725,405.453Z" transform="translate(-32.291 -41.946)"/><path class="cls-29" d="M248.591,403.411v-.58h.5v.58Zm0,3.53v-2.978h.5v2.978Z" transform="translate(-32.291 -41.946)"/><path class="cls-29" d="M249.852,406.941v-4.11h.5v4.11Z" transform="translate(-32.291 -41.946)"/><path class="cls-29" d="M253.178,405.982l.521.064a1.279,1.279,0,0,1-.457.71,1.377,1.377,0,0,1-.853.252,1.361,1.361,0,0,1-1.036-.4,1.572,1.572,0,0,1-.382-1.128,1.647,1.647,0,0,1,.387-1.167,1.311,1.311,0,0,1,1-.415,1.272,1.272,0,0,1,.976.407,1.614,1.614,0,0,1,.378,1.144c0,.03,0,.075,0,.135h-2.221a1.141,1.141,0,0,0,.277.751.827.827,0,0,0,.623.261.775.775,0,0,0,.474-.146A.968.968,0,0,0,253.178,405.982Zm-1.657-.815h1.663a1.008,1.008,0,0,0-.19-.563.774.774,0,0,0-.625-.292.806.806,0,0,0-.584.232A.925.925,0,0,0,251.521,405.166Z" transform="translate(-32.291 -41.946)"/><path class="cls-29" d="M255.435,406.49l.073.446a1.909,1.909,0,0,1-.381.044.857.857,0,0,1-.426-.087.484.484,0,0,1-.213-.229,1.808,1.808,0,0,1-.062-.6v-1.713h-.37v-.393h.37v-.737l.5-.3v1.04h.507v.393h-.507V406.1a.887.887,0,0,0,.026.277.212.212,0,0,0,.087.1.334.334,0,0,0,.172.036A1.71,1.71,0,0,0,255.435,406.49Z" transform="translate(-32.291 -41.946)"/></g></g><polyline class="cls-26" points="192.968 491.479 192.968 319.717 239.864 319.717 239.864 356.973"/></svg>