<?xml version="1.0" encoding="UTF-8"?>
<svg id="Layer_2" data-name="Layer 2" xmlns="http://www.w3.org/2000/svg" viewBox="0 0 1288.594 1667.593">
  <defs>
    <style>
      .cls-1 {
        fill: #ebf2f2;
      }

      .cls-2 {
        fill: #ebf1f2;
      }

      .cls-3 {
        fill: #eaf1f1;
      }

      .cls-4 {
        fill: #fff;
      }

      .cls-5 {
        fill: #b8bfc1;
      }

      .cls-6 {
        fill: #8eccce;
      }

      .cls-7 {
        fill: #a8e0e5;
      }

      .cls-8 {
        fill: #23a2b7;
      }

      .cls-9 {
        fill: #9baeb7;
      }

      .cls-10 {
        fill: #596068;
      }

      .cls-11 {
        fill: #767e80;
      }

      .cls-12 {
        fill: #757d7f;
      }

      .cls-13 {
        fill: #7a8d92;
      }

      .cls-14 {
        fill: #7a8e93;
      }

      .cls-15 {
        fill: #010101;
        opacity: .15;
      }

      .cls-15, .cls-16, .cls-17, .cls-18 {
        isolation: isolate;
      }

      .cls-16 {
        fill: #98b7be;
        opacity: .7;
      }

      .cls-17 {
        fill: #575757;
        opacity: .74;
      }

      .cls-19 {
        stroke: #efeff0;
        stroke-width: 4.061px;
      }

      .cls-19, .cls-20, .cls-21 {
        fill: none;
        stroke-miterlimit: 10;
      }

      .cls-20 {
        stroke: #7a8e93;
        stroke-linecap: round;
        stroke-width: 1.87px;
      }

      .cls-21 {
        stroke: #ededed;
        stroke-width: 8px;
      }

      .cls-18 {
        fill: #030303;
        opacity: .05;
      }
    </style>
  </defs>
  <g id="shadow">
    <polygon class="cls-8" points="9.669 1418.671 31.479 1440.482 269.246 1440.482 291.413 1418.314 291.413 1383.275 1192.779 1383.275 1212.086 1363.967 644.297 1124.147 9.669 1418.671"/>
  </g>
  <g id="background">
    <polygon class="cls-7" points="13.374 924.188 13.374 1415.088 287.336 1415.088 287.336 1360.543 1208.393 1360.543 1208.393 254.779 493.117 254.779 493.117 474.196 406.342 474.196 406.342 798.984 129.901 798.984 129.901 922.948 13.374 924.188"/>
  </g>
  <g id="spaces">
    <polygon class="cls-6" points="9.669 1070.078 285.513 1070.078 285.513 1234.852 412.262 1234.852 412.262 1141.746 879.825 1141.746 879.825 1360.543 287.336 1360.543 287.336 1415.088 9.669 1415.088 9.669 1070.078"/>
    <polygon class="cls-6" points="498.169 808.13 498.169 254.779 1208.393 254.779 1208.393 458.865 818.575 458.865 818.575 691.239 712.411 691.239 712.411 808.13 498.169 808.13"/>
    <rect class="cls-16" x="13.374" y="922.948" width="272.139" height="59.109"/>
  </g>
  <g id="Furn">
    <rect class="cls-18" x="1113.191" y="1011.97" width="89.707" height="43.093"/>
    <rect class="cls-5" x="1113.191" y="1007.467" width="89.707" height="43.093"/>
    <rect class="cls-4" x="1113.191" y="1004.68" width="89.707" height="43.093"/>
    <path class="cls-15" d="M1162.591,1059.137h-7.718c-5.574-.214-10.291,4.073-10.72,9.648v.858l.429,7.075c.643,7.289,6.861,12.864,14.15,12.649h0c7.289,.214,13.507-5.145,14.364-12.435l.429-7.075c0-5.574-4.502-10.291-10.076-10.505l-.857-.214Z"/>
    <path class="cls-10" d="M1162.591,1058.279h-7.718c-5.574-.214-10.291,4.073-10.72,9.648v.214h0v.429l.429,7.075c.643,7.289,6.861,12.864,14.15,12.649h0c7.289,.214,13.507-5.145,14.364-12.435l.429-7.075c0-5.574-4.502-10.291-10.076-10.505h-.857Z"/>
    <path class="cls-9" d="M1162.377,1055.063h-7.075c-5.36,0-9.862,4.288-9.862,9.862h0v.429l.214,7.075c.214,7.075,6.003,12.649,13.078,12.649h0c7.075,0,12.864-5.36,13.292-12.435l.429-7.075c.214-5.36-3.859-10.077-9.219-10.505h-.857Z"/>
    <path class="cls-20" d="M1145.226,1063.853l.643,8.576c.214,7.075,6.003,12.649,13.078,12.649h0c7.075,0,12.864-5.36,13.292-12.435l.643-8.576"/>
    <g id="Furn-2" data-name="Furn">
      <rect class="cls-18" x="1023.484" y="1011.97" width="89.707" height="43.093"/>
      <rect class="cls-5" x="1023.484" y="1007.467" width="89.707" height="43.093"/>
      <rect class="cls-4" x="1023.484" y="1004.68" width="89.707" height="43.093"/>
      <path class="cls-15" d="M1072.884,1059.137h-7.718c-5.574-.214-10.291,4.073-10.72,9.648v.858l.429,7.075c.643,7.289,6.861,12.864,14.15,12.649h0c7.289,.214,13.507-5.145,14.364-12.435l.429-7.075c0-5.574-4.502-10.291-10.076-10.505l-.857-.214Z"/>
      <path class="cls-10" d="M1072.884,1058.279h-7.718c-5.574-.214-10.291,4.073-10.72,9.648v.214h0v.429l.429,7.075c.643,7.289,6.861,12.864,14.15,12.649h0c7.289,.214,13.507-5.145,14.364-12.435l.429-7.075c0-5.574-4.502-10.291-10.076-10.505h-.857Z"/>
      <path class="cls-9" d="M1072.67,1055.063h-7.075c-5.36,0-9.862,4.288-9.862,9.862h0v.429l.214,7.075c.214,7.075,6.003,12.649,13.078,12.649h0c7.075,0,12.864-5.36,13.292-12.435l.429-7.075c.214-5.36-3.859-10.077-9.219-10.505h-.857Z"/>
      <path class="cls-20" d="M1055.519,1063.853l.643,8.576c.214,7.075,6.003,12.649,13.078,12.649h0c7.075,0,12.864-5.36,13.292-12.435l.643-8.576"/>
    </g>
    <g id="Furn-3" data-name="Furn">
      <rect class="cls-18" x="933.777" y="1011.97" width="89.707" height="43.093"/>
      <rect class="cls-5" x="933.777" y="1007.467" width="89.707" height="43.093"/>
      <rect class="cls-4" x="933.777" y="1004.68" width="89.707" height="43.093"/>
      <path class="cls-15" d="M983.178,1059.137h-7.718c-5.574-.214-10.291,4.073-10.72,9.648v.858l.429,7.075c.643,7.289,6.861,12.864,14.15,12.649h0c7.289,.214,13.507-5.145,14.364-12.435l.429-7.075c0-5.574-4.502-10.291-10.076-10.505l-.857-.214Z"/>
      <path class="cls-10" d="M983.178,1058.279h-7.718c-5.574-.214-10.291,4.073-10.72,9.648v.214h0v.429l.429,7.075c.643,7.289,6.861,12.864,14.15,12.649h0c7.289,.214,13.507-5.145,14.364-12.435l.429-7.075c0-5.574-4.502-10.291-10.076-10.505h-.857Z"/>
      <path class="cls-9" d="M982.963,1055.063h-7.075c-5.36,0-9.862,4.288-9.862,9.862h0v.429l.214,7.075c.214,7.075,6.003,12.649,13.078,12.649h0c7.075,0,12.864-5.36,13.292-12.435l.429-7.075c.214-5.36-3.859-10.077-9.219-10.505h-.857Z"/>
      <path class="cls-20" d="M965.812,1063.853l.643,8.576c.214,7.075,6.003,12.649,13.078,12.649h0c7.075,0,12.864-5.36,13.292-12.435l.643-8.576"/>
      <g id="Furn-4" data-name="Furn">
        <rect class="cls-18" x="844.07" y="1011.97" width="89.707" height="43.093"/>
        <rect class="cls-5" x="844.07" y="1007.467" width="89.707" height="43.093"/>
        <rect class="cls-4" x="844.07" y="1004.68" width="89.707" height="43.093"/>
        <path class="cls-15" d="M893.471,1059.137h-7.718c-5.574-.214-10.291,4.073-10.72,9.648v.858l.429,7.075c.643,7.289,6.861,12.864,14.15,12.649h0c7.289,.214,13.507-5.145,14.364-12.435l.429-7.075c0-5.574-4.502-10.291-10.076-10.505l-.857-.214Z"/>
        <path class="cls-10" d="M893.471,1058.279h-7.718c-5.574-.214-10.291,4.073-10.72,9.648v.214h0v.429l.429,7.075c.643,7.289,6.861,12.864,14.15,12.649h0c7.289,.214,13.507-5.145,14.364-12.435l.429-7.075c0-5.574-4.502-10.291-10.076-10.505h-.857Z"/>
        <path class="cls-9" d="M893.256,1055.063h-7.075c-5.36,0-9.862,4.288-9.862,9.862h0v.429l.214,7.075c.214,7.075,6.003,12.649,13.078,12.649h0c7.075,0,12.864-5.36,13.292-12.435l.429-7.075c.214-5.36-3.859-10.077-9.219-10.505h-.857Z"/>
        <path class="cls-20" d="M876.105,1063.853l.643,8.576c.214,7.075,6.003,12.649,13.078,12.649h0c7.075,0,12.864-5.36,13.292-12.435l.643-8.576"/>
      </g>
    </g>
    <g id="Furn-5" data-name="Furn">
      <rect class="cls-18" x="1113.191" y="952.02" width="89.707" height="43.093"/>
      <rect class="cls-5" x="1113.191" y="956.523" width="89.707" height="43.093"/>
      <rect class="cls-4" x="1113.191" y="959.31" width="89.707" height="43.093"/>
      <path class="cls-15" d="M1163.449,947.732c5.574-.214,10.076-4.931,10.076-10.505l-.429-7.075c-.857-7.289-7.075-12.649-14.364-12.435h0c-7.289-.214-13.507,5.36-14.15,12.649l-.429,7.075v.858c.429,5.574,5.146,9.862,10.72,9.648h7.718l.857-.214Z"/>
      <path class="cls-10" d="M1163.449,948.804c5.574-.214,10.076-4.931,10.076-10.505l-.429-7.075c-.857-7.289-7.075-12.649-14.364-12.435h0c-7.289-.214-13.507,5.36-14.15,12.649l-.429,7.075v.429h0v.214c.429,5.574,5.146,9.862,10.72,9.648h8.576Z"/>
      <path class="cls-9" d="M1163.234,952.02c5.36-.429,9.433-5.145,9.219-10.505l-.429-7.075c-.429-7.075-6.217-12.435-13.292-12.435h0c-7.075,0-12.864,5.574-13.078,12.649l-.214,7.075v.429h0c0,5.574,4.502,9.862,9.862,9.862h7.932Z"/>
      <path class="cls-20" d="M1172.882,943.016l-.643-8.576c-.429-7.075-6.217-12.435-13.292-12.435h0c-7.075,0-12.864,5.574-13.078,12.649l-.643,8.576"/>
      <g id="Furn-6" data-name="Furn">
        <rect class="cls-18" x="1023.484" y="952.02" width="89.707" height="43.093"/>
        <rect class="cls-5" x="1023.484" y="956.523" width="89.707" height="43.093"/>
        <rect class="cls-4" x="1023.484" y="959.31" width="89.707" height="43.093"/>
        <path class="cls-15" d="M1073.742,947.732c5.574-.214,10.076-4.931,10.076-10.505l-.429-7.075c-.857-7.289-7.075-12.649-14.364-12.435h0c-7.289-.214-13.507,5.36-14.15,12.649l-.429,7.075v.858c.429,5.574,5.146,9.862,10.72,9.648h7.718l.857-.214Z"/>
        <path class="cls-10" d="M1073.742,948.804c5.574-.214,10.076-4.931,10.076-10.505l-.429-7.075c-.857-7.289-7.075-12.649-14.364-12.435h0c-7.289-.214-13.507,5.36-14.15,12.649l-.429,7.075v.429h0v.214c.429,5.574,5.146,9.862,10.72,9.648h8.576Z"/>
        <path class="cls-9" d="M1073.527,952.02c5.36-.429,9.433-5.145,9.219-10.505l-.429-7.075c-.429-7.075-6.217-12.435-13.292-12.435h0c-7.075,0-12.864,5.574-13.078,12.649l-.214,7.075v.429h0c0,5.574,4.502,9.862,9.862,9.862h7.932Z"/>
        <path class="cls-20" d="M1083.176,943.016l-.643-8.576c-.429-7.075-6.217-12.435-13.292-12.435h0c-7.075,0-12.864,5.574-13.078,12.649l-.643,8.576"/>
      </g>
      <g id="Furn-7" data-name="Furn">
        <rect class="cls-18" x="933.777" y="952.02" width="89.707" height="43.093"/>
        <rect class="cls-5" x="933.777" y="956.523" width="89.707" height="43.093"/>
        <rect class="cls-4" x="933.777" y="959.31" width="89.707" height="43.093"/>
        <path class="cls-15" d="M984.035,947.732c5.574-.214,10.076-4.931,10.076-10.505l-.429-7.075c-.857-7.289-7.075-12.649-14.364-12.435h0c-7.289-.214-13.507,5.36-14.15,12.649l-.429,7.075v.858c.429,5.574,5.146,9.862,10.72,9.648h7.718l.857-.214Z"/>
        <path class="cls-10" d="M984.035,948.804c5.574-.214,10.076-4.931,10.076-10.505l-.429-7.075c-.857-7.289-7.075-12.649-14.364-12.435h0c-7.289-.214-13.507,5.36-14.15,12.649l-.429,7.075v.429h0v.214c.429,5.574,5.146,9.862,10.72,9.648h8.576Z"/>
        <path class="cls-9" d="M983.82,952.02c5.36-.429,9.433-5.145,9.219-10.505l-.429-7.075c-.429-7.075-6.217-12.435-13.292-12.435h0c-7.075,0-12.864,5.574-13.078,12.649l-.214,7.075v.429h0c0,5.574,4.502,9.862,9.862,9.862h7.932Z"/>
        <path class="cls-20" d="M993.469,943.016l-.643-8.576c-.429-7.075-6.217-12.435-13.292-12.435h0c-7.075,0-12.864,5.574-13.078,12.649l-.643,8.576"/>
        <g id="Furn-8" data-name="Furn">
          <rect class="cls-18" x="844.07" y="952.02" width="89.707" height="43.093"/>
          <rect class="cls-5" x="844.07" y="956.523" width="89.707" height="43.093"/>
          <rect class="cls-4" x="844.07" y="959.31" width="89.707" height="43.093"/>
          <path class="cls-15" d="M894.328,947.732c5.574-.214,10.076-4.931,10.076-10.505l-.429-7.075c-.857-7.289-7.075-12.649-14.364-12.435h0c-7.289-.214-13.507,5.36-14.15,12.649l-.429,7.075v.858c.429,5.574,5.146,9.862,10.72,9.648h7.718l.857-.214Z"/>
          <path class="cls-10" d="M894.328,948.804c5.574-.214,10.076-4.931,10.076-10.505l-.429-7.075c-.857-7.289-7.075-12.649-14.364-12.435h0c-7.289-.214-13.507,5.36-14.15,12.649l-.429,7.075v.429h0v.214c.429,5.574,5.146,9.862,10.72,9.648h8.576Z"/>
          <path class="cls-9" d="M894.113,952.02c5.36-.429,9.433-5.145,9.219-10.505l-.429-7.075c-.429-7.075-6.217-12.435-13.292-12.435h0c-7.075,0-12.864,5.574-13.078,12.649l-.214,7.075v.429h0c0,5.574,4.502,9.862,9.862,9.862h7.932Z"/>
          <path class="cls-20" d="M903.762,943.016l-.643-8.576c-.429-7.075-6.217-12.435-13.292-12.435h0c-7.075,0-12.864,5.574-13.078,12.649l-.643,8.576"/>
        </g>
      </g>
    </g>
    <rect class="cls-18" x="898.039" y="740.881" width="89.707" height="43.093"/>
    <rect class="cls-5" x="898.039" y="745.383" width="89.707" height="43.093"/>
    <rect class="cls-4" x="898.039" y="748.17" width="89.707" height="43.093"/>
    <path class="cls-15" d="M948.297,736.593c5.574-.214,10.076-4.931,10.076-10.505l-.429-7.075c-.857-7.289-7.075-12.649-14.364-12.435h0c-7.289-.214-13.507,5.36-14.15,12.649l-.429,7.075v.858c.429,5.574,5.146,9.862,10.72,9.648h7.718l.857-.214Z"/>
    <path class="cls-10" d="M948.297,737.665c5.574-.214,10.076-4.931,10.076-10.505l-.429-7.075c-.857-7.289-7.075-12.649-14.364-12.435h0c-7.289-.214-13.507,5.36-14.15,12.649l-.429,7.075v.429h0v.214c.429,5.574,5.146,9.862,10.72,9.648h8.576Z"/>
    <path class="cls-9" d="M948.083,740.881c5.36-.429,9.433-5.145,9.219-10.505l-.429-7.075c-.429-7.075-6.217-12.435-13.292-12.435h0c-7.075,0-12.864,5.574-13.078,12.649l-.214,7.075v.429h0c0,5.574,4.502,9.862,9.862,9.862h7.932Z"/>
    <path class="cls-20" d="M957.731,731.876l-.643-8.576c-.429-7.075-6.217-12.435-13.292-12.435h0c-7.075,0-12.864,5.574-13.078,12.649l-.643,8.576"/>
    <rect class="cls-18" x="987.746" y="740.881" width="89.707" height="43.093"/>
    <rect class="cls-5" x="987.746" y="745.383" width="89.707" height="43.093"/>
    <rect class="cls-4" x="987.746" y="748.17" width="89.707" height="43.093"/>
    <path class="cls-15" d="M1038.004,736.593c5.574-.214,10.076-4.931,10.076-10.505l-.429-7.075c-.857-7.289-7.075-12.649-14.364-12.435h0c-7.289-.214-13.507,5.36-14.15,12.649l-.429,7.075v.858c.429,5.574,5.146,9.862,10.72,9.648h7.718l.857-.214Z"/>
    <path class="cls-10" d="M1038.004,737.665c5.574-.214,10.076-4.931,10.076-10.505l-.429-7.075c-.857-7.289-7.075-12.649-14.364-12.435h0c-7.289-.214-13.507,5.36-14.15,12.649l-.429,7.075v.429h0v.214c.429,5.574,5.146,9.862,10.72,9.648h8.576Z"/>
    <path class="cls-9" d="M1037.79,740.881c5.36-.429,9.433-5.145,9.219-10.505l-.429-7.075c-.429-7.075-6.217-12.435-13.292-12.435h0c-7.075,0-12.864,5.574-13.078,12.649l-.214,7.075v.429h0c0,5.574,4.502,9.862,9.862,9.862h7.932Z"/>
    <path class="cls-20" d="M1047.438,731.876l-.643-8.576c-.429-7.075-6.217-12.435-13.292-12.435h0c-7.075,0-12.864,5.574-13.078,12.649l-.643,8.576"/>
    <rect class="cls-18" x="1077.453" y="740.881" width="89.707" height="43.093"/>
    <rect class="cls-5" x="1077.453" y="745.383" width="89.707" height="43.093"/>
    <rect class="cls-4" x="1077.453" y="748.17" width="89.707" height="43.093"/>
    <path class="cls-15" d="M1127.711,736.593c5.574-.214,10.076-4.931,10.076-10.505l-.429-7.075c-.857-7.289-7.075-12.649-14.364-12.435h0c-7.289-.214-13.507,5.36-14.15,12.649l-.429,7.075v.858c.429,5.574,5.146,9.862,10.72,9.648h7.718l.857-.214Z"/>
    <path class="cls-10" d="M1127.711,737.665c5.574-.214,10.076-4.931,10.076-10.505l-.429-7.075c-.857-7.289-7.075-12.649-14.364-12.435h0c-7.289-.214-13.507,5.36-14.15,12.649l-.429,7.075v.429h0v.214c.429,5.574,5.146,9.862,10.72,9.648h8.576Z"/>
    <path class="cls-9" d="M1127.496,740.881c5.36-.429,9.433-5.145,9.219-10.505l-.429-7.075c-.429-7.075-6.217-12.435-13.292-12.435h0c-7.075,0-12.864,5.574-13.078,12.649l-.214,7.075v.429h0c0,5.574,4.502,9.862,9.862,9.862h7.932Z"/>
    <path class="cls-20" d="M1137.145,731.876l-.643-8.576c-.429-7.075-6.217-12.435-13.292-12.435h0c-7.075,0-12.864,5.574-13.078,12.649l-.643,8.576"/>
    <rect class="cls-18" x="898.039" y="799.877" width="89.707" height="43.093"/>
    <rect class="cls-5" x="898.039" y="795.375" width="89.707" height="43.093"/>
    <rect class="cls-4" x="898.039" y="792.587" width="89.707" height="43.093"/>
    <path class="cls-15" d="M947.44,847.044h-7.718c-5.574-.214-10.291,4.073-10.72,9.648v.858l.429,7.075c.643,7.289,6.861,12.864,14.15,12.649h0c7.289,.214,13.507-5.145,14.364-12.435l.429-7.075c0-5.574-4.502-10.291-10.076-10.505l-.857-.214Z"/>
    <path class="cls-10" d="M947.44,846.186h-7.718c-5.574-.214-10.291,4.073-10.72,9.648v.214h0v.429l.429,7.075c.643,7.289,6.861,12.864,14.15,12.649h0c7.289,.214,13.507-5.145,14.364-12.435l.429-7.075c0-5.574-4.502-10.291-10.076-10.505h-.857Z"/>
    <path class="cls-9" d="M947.225,842.97h-7.075c-5.36,0-9.862,4.288-9.862,9.862h0v.429l.214,7.075c.214,7.075,6.003,12.649,13.078,12.649h0c7.075,0,12.864-5.36,13.292-12.435l.429-7.075c.214-5.36-3.859-10.077-9.219-10.505h-.857Z"/>
    <path class="cls-20" d="M930.074,851.76l.643,8.576c.214,7.075,6.003,12.649,13.078,12.649h0c7.075,0,12.864-5.36,13.292-12.435l.643-8.576"/>
    <rect class="cls-18" x="987.746" y="799.877" width="89.707" height="43.093"/>
    <rect class="cls-5" x="987.746" y="795.375" width="89.707" height="43.093"/>
    <rect class="cls-4" x="987.746" y="792.587" width="89.707" height="43.093"/>
    <path class="cls-15" d="M1037.147,847.044h-7.718c-5.574-.214-10.291,4.073-10.72,9.648v.858l.429,7.075c.643,7.289,6.861,12.864,14.15,12.649h0c7.289,.214,13.507-5.145,14.364-12.435l.429-7.075c0-5.574-4.502-10.291-10.076-10.505l-.857-.214Z"/>
    <path class="cls-10" d="M1037.147,846.186h-7.718c-5.574-.214-10.291,4.073-10.72,9.648v.214h0v.429l.429,7.075c.643,7.289,6.861,12.864,14.15,12.649h0c7.289,.214,13.507-5.145,14.364-12.435l.429-7.075c0-5.574-4.502-10.291-10.076-10.505h-.857Z"/>
    <path class="cls-9" d="M1036.932,842.97h-7.075c-5.36,0-9.862,4.288-9.862,9.862h0v.429l.214,7.075c.214,7.075,6.003,12.649,13.078,12.649h0c7.075,0,12.864-5.36,13.292-12.435l.429-7.075c.214-5.36-3.859-10.077-9.219-10.505h-.857Z"/>
    <path class="cls-20" d="M1019.781,851.76l.643,8.576c.214,7.075,6.003,12.649,13.078,12.649h0c7.075,0,12.864-5.36,13.292-12.435l.643-8.576"/>
    <rect class="cls-18" x="1077.453" y="799.877" width="89.707" height="43.093"/>
    <rect class="cls-5" x="1077.453" y="795.375" width="89.707" height="43.093"/>
    <rect class="cls-4" x="1077.453" y="792.587" width="89.707" height="43.093"/>
    <path class="cls-15" d="M1126.854,847.044h-7.718c-5.574-.214-10.291,4.073-10.72,9.648v.858l.429,7.075c.643,7.289,6.861,12.864,14.15,12.649h0c7.289,.214,13.507-5.145,14.364-12.435l.429-7.075c0-5.574-4.502-10.291-10.076-10.505l-.857-.214Z"/>
    <path class="cls-10" d="M1126.854,846.186h-7.718c-5.574-.214-10.291,4.073-10.72,9.648v.214h0v.429l.429,7.075c.643,7.289,6.861,12.864,14.15,12.649h0c7.289,.214,13.507-5.145,14.364-12.435l.429-7.075c0-5.574-4.502-10.291-10.076-10.505h-.857Z"/>
    <path class="cls-9" d="M1126.639,842.97h-7.075c-5.36,0-9.862,4.288-9.862,9.862h0v.429l.214,7.075c.214,7.075,6.003,12.649,13.078,12.649h0c7.075,0,12.864-5.36,13.292-12.435l.429-7.075c.214-5.36-3.859-10.077-9.219-10.505h-.857Z"/>
    <path class="cls-20" d="M1109.488,851.76l.643,8.576c.214,7.075,6.003,12.649,13.078,12.649h0c7.075,0,12.864-5.36,13.292-12.435l.643-8.576"/>
    <rect class="cls-18" x="933.777" y="531.353" width="89.707" height="43.093"/>
    <rect class="cls-5" x="933.777" y="535.855" width="89.707" height="43.093"/>
    <rect class="cls-4" x="933.777" y="538.642" width="89.707" height="43.093"/>
    <path class="cls-15" d="M984.035,527.065c5.574-.214,10.076-4.931,10.076-10.505l-.429-7.075c-.857-7.289-7.075-12.649-14.364-12.435h0c-7.289-.214-13.507,5.36-14.15,12.649l-.429,7.075v.858c.429,5.574,5.146,9.862,10.72,9.648h7.718l.857-.214Z"/>
    <path class="cls-10" d="M984.035,528.137c5.574-.214,10.076-4.931,10.076-10.505l-.429-7.075c-.857-7.289-7.075-12.649-14.364-12.435h0c-7.289-.214-13.507,5.36-14.15,12.649l-.429,7.075v.429h0v.214c.429,5.574,5.146,9.862,10.72,9.648h8.576Z"/>
    <path class="cls-9" d="M983.82,531.353c5.36-.429,9.433-5.145,9.219-10.505l-.429-7.075c-.429-7.075-6.217-12.435-13.292-12.435h0c-7.075,0-12.864,5.574-13.078,12.649l-.214,7.075v.429h0c0,5.574,4.502,9.862,9.862,9.862h7.932Z"/>
    <path class="cls-20" d="M993.469,522.348l-.643-8.576c-.429-7.075-6.217-12.435-13.292-12.435h0c-7.075,0-12.864,5.574-13.078,12.649l-.643,8.576"/>
    <rect class="cls-18" x="1023.484" y="531.353" width="89.707" height="43.093"/>
    <rect class="cls-5" x="1023.484" y="535.855" width="89.707" height="43.093"/>
    <rect class="cls-4" x="1023.484" y="538.642" width="89.707" height="43.093"/>
    <path class="cls-15" d="M1073.742,527.065c5.574-.214,10.076-4.931,10.076-10.505l-.429-7.075c-.857-7.289-7.075-12.649-14.364-12.435h0c-7.289-.214-13.507,5.36-14.15,12.649l-.429,7.075v.858c.429,5.574,5.146,9.862,10.72,9.648h7.718l.857-.214Z"/>
    <path class="cls-10" d="M1073.742,528.137c5.574-.214,10.076-4.931,10.076-10.505l-.429-7.075c-.857-7.289-7.075-12.649-14.364-12.435h0c-7.289-.214-13.507,5.36-14.15,12.649l-.429,7.075v.429h0v.214c.429,5.574,5.146,9.862,10.72,9.648h8.576Z"/>
    <path class="cls-9" d="M1073.527,531.353c5.36-.429,9.433-5.145,9.219-10.505l-.429-7.075c-.429-7.075-6.217-12.435-13.292-12.435h0c-7.075,0-12.864,5.574-13.078,12.649l-.214,7.075v.429h0c0,5.574,4.502,9.862,9.862,9.862h7.932Z"/>
    <path class="cls-20" d="M1083.176,522.348l-.643-8.576c-.429-7.075-6.217-12.435-13.292-12.435h0c-7.075,0-12.864,5.574-13.078,12.649l-.643,8.576"/>
    <rect class="cls-18" x="1113.191" y="531.353" width="89.707" height="43.093"/>
    <rect class="cls-5" x="1113.191" y="535.855" width="89.707" height="43.093"/>
    <rect class="cls-4" x="1113.191" y="538.642" width="89.707" height="43.093"/>
    <path class="cls-15" d="M1163.449,527.065c5.574-.214,10.076-4.931,10.076-10.505l-.429-7.075c-.857-7.289-7.075-12.649-14.364-12.435h0c-7.289-.214-13.507,5.36-14.15,12.649l-.429,7.075v.858c.429,5.574,5.146,9.862,10.72,9.648h7.718l.857-.214Z"/>
    <path class="cls-10" d="M1163.449,528.137c5.574-.214,10.076-4.931,10.076-10.505l-.429-7.075c-.857-7.289-7.075-12.649-14.364-12.435h0c-7.289-.214-13.507,5.36-14.15,12.649l-.429,7.075v.429h0v.214c.429,5.574,5.146,9.862,10.72,9.648h8.576Z"/>
    <path class="cls-9" d="M1163.234,531.353c5.36-.429,9.433-5.145,9.219-10.505l-.429-7.075c-.429-7.075-6.217-12.435-13.292-12.435h0c-7.075,0-12.864,5.574-13.078,12.649l-.214,7.075v.429h0c0,5.574,4.502,9.862,9.862,9.862h7.932Z"/>
    <path class="cls-20" d="M1172.882,522.348l-.643-8.576c-.429-7.075-6.217-12.435-13.292-12.435h0c-7.075,0-12.864,5.574-13.078,12.649l-.643,8.576"/>
    <rect class="cls-18" x="933.777" y="590.349" width="89.707" height="43.093"/>
    <rect class="cls-5" x="933.777" y="585.846" width="89.707" height="43.093"/>
    <rect class="cls-4" x="933.777" y="583.059" width="89.707" height="43.093"/>
    <path class="cls-15" d="M983.178,637.515h-7.718c-5.574-.214-10.291,4.073-10.72,9.648v.858l.429,7.075c.643,7.289,6.861,12.864,14.15,12.649h0c7.289,.214,13.507-5.145,14.364-12.435l.429-7.075c0-5.574-4.502-10.291-10.076-10.505l-.857-.214Z"/>
    <path class="cls-10" d="M983.178,636.658h-7.718c-5.574-.214-10.291,4.073-10.72,9.648v.214h0v.429l.429,7.075c.643,7.289,6.861,12.864,14.15,12.649h0c7.289,.214,13.507-5.145,14.364-12.435l.429-7.075c0-5.574-4.502-10.291-10.076-10.505h-.857Z"/>
    <path class="cls-9" d="M982.963,633.442h-7.075c-5.36,0-9.862,4.288-9.862,9.862h0v.429l.214,7.075c.214,7.075,6.003,12.649,13.078,12.649h0c7.075,0,12.864-5.36,13.292-12.435l.429-7.075c.214-5.36-3.859-10.077-9.219-10.505h-.857Z"/>
    <path class="cls-20" d="M965.812,642.232l.643,8.576c.214,7.075,6.003,12.649,13.078,12.649h0c7.075,0,12.864-5.36,13.292-12.435l.643-8.576"/>
    <rect class="cls-18" x="1023.484" y="590.349" width="89.707" height="43.093"/>
    <rect class="cls-5" x="1023.484" y="585.846" width="89.707" height="43.093"/>
    <rect class="cls-4" x="1023.484" y="583.059" width="89.707" height="43.093"/>
    <path class="cls-15" d="M1072.884,637.515h-7.718c-5.574-.214-10.291,4.073-10.72,9.648v.858l.429,7.075c.643,7.289,6.861,12.864,14.15,12.649h0c7.289,.214,13.507-5.145,14.364-12.435l.429-7.075c0-5.574-4.502-10.291-10.076-10.505l-.857-.214Z"/>
    <path class="cls-10" d="M1072.884,636.658h-7.718c-5.574-.214-10.291,4.073-10.72,9.648v.214h0v.429l.429,7.075c.643,7.289,6.861,12.864,14.15,12.649h0c7.289,.214,13.507-5.145,14.364-12.435l.429-7.075c0-5.574-4.502-10.291-10.076-10.505h-.857Z"/>
    <path class="cls-9" d="M1072.67,633.442h-7.075c-5.36,0-9.862,4.288-9.862,9.862h0v.429l.214,7.075c.214,7.075,6.003,12.649,13.078,12.649h0c7.075,0,12.864-5.36,13.292-12.435l.429-7.075c.214-5.36-3.859-10.077-9.219-10.505h-.857Z"/>
    <path class="cls-20" d="M1055.519,642.232l.643,8.576c.214,7.075,6.003,12.649,13.078,12.649h0c7.075,0,12.864-5.36,13.292-12.435l.643-8.576"/>
    <rect class="cls-18" x="1113.191" y="590.349" width="89.707" height="43.093"/>
    <rect class="cls-5" x="1113.191" y="585.846" width="89.707" height="43.093"/>
    <rect class="cls-4" x="1113.191" y="583.059" width="89.707" height="43.093"/>
    <path class="cls-15" d="M1162.591,637.515h-7.718c-5.574-.214-10.291,4.073-10.72,9.648v.858l.429,7.075c.643,7.289,6.861,12.864,14.15,12.649h0c7.289,.214,13.507-5.145,14.364-12.435l.429-7.075c0-5.574-4.502-10.291-10.076-10.505l-.857-.214Z"/>
    <path class="cls-10" d="M1162.591,636.658h-7.718c-5.574-.214-10.291,4.073-10.72,9.648v.214h0v.429l.429,7.075c.643,7.289,6.861,12.864,14.15,12.649h0c7.289,.214,13.507-5.145,14.364-12.435l.429-7.075c0-5.574-4.502-10.291-10.076-10.505h-.857Z"/>
    <path class="cls-9" d="M1162.377,633.442h-7.075c-5.36,0-9.862,4.288-9.862,9.862h0v.429l.214,7.075c.214,7.075,6.003,12.649,13.078,12.649h0c7.075,0,12.864-5.36,13.292-12.435l.429-7.075c.214-5.36-3.859-10.077-9.219-10.505h-.857Z"/>
    <path class="cls-20" d="M1145.226,642.232l.643,8.576c.214,7.075,6.003,12.649,13.078,12.649h0c7.075,0,12.864-5.36,13.292-12.435l.643-8.576"/>
    <rect class="cls-18" x="1041.715" y="328.206" width="135.014" height="43.093"/>
    <rect class="cls-5" x="1041.715" y="323.704" width="135.014" height="43.093"/>
    <rect class="cls-4" x="1041.715" y="320.917" width="135.014" height="43.093"/>
    <path class="cls-15" d="M1136.423,375.373h-7.718c-5.574-.214-10.291,4.073-10.72,9.648v.858l.429,7.075c.643,7.289,6.861,12.864,14.15,12.649h0c7.289,.214,13.507-5.145,14.364-12.435l.429-7.075c0-5.574-4.502-10.291-10.076-10.505l-.857-.214Z"/>
    <path class="cls-10" d="M1136.423,374.515h-7.718c-5.574-.214-10.291,4.073-10.72,9.648v.214h0v.429l.429,7.075c.643,7.289,6.861,12.864,14.15,12.649h0c7.289,.214,13.507-5.145,14.364-12.435l.429-7.075c0-5.574-4.502-10.291-10.076-10.505h-.857Z"/>
    <path class="cls-9" d="M1136.209,371.299h-7.075c-5.36,0-9.862,4.288-9.862,9.862h0v.429l.214,7.075c.214,7.075,6.003,12.649,13.078,12.649h0c7.075,0,12.864-5.36,13.292-12.435l.429-7.075c.214-5.36-3.859-10.077-9.219-10.505h-.857Z"/>
    <path class="cls-20" d="M1119.057,380.089l.643,8.576c.214,7.075,6.003,12.649,13.078,12.649h0c7.075,0,12.864-5.36,13.292-12.435l.643-8.576"/>
    <path class="cls-15" d="M1086.506,375.373h-7.718c-5.574-.214-10.291,4.073-10.72,9.648v.858l.429,7.075c.643,7.289,6.861,12.864,14.15,12.649h0c7.289,.214,13.507-5.145,14.364-12.435l.429-7.075c0-5.574-4.502-10.291-10.076-10.505l-.857-.214Z"/>
    <path class="cls-10" d="M1086.506,374.515h-7.718c-5.574-.214-10.291,4.073-10.72,9.648v.214h0v.429l.429,7.075c.643,7.289,6.861,12.864,14.15,12.649h0c7.289,.214,13.507-5.145,14.364-12.435l.429-7.075c0-5.574-4.502-10.291-10.076-10.505h-.857Z"/>
    <path class="cls-9" d="M1086.292,371.299h-7.075c-5.36,0-9.862,4.288-9.862,9.862h0v.429l.214,7.075c.214,7.075,6.003,12.649,13.078,12.649h0c7.075,0,12.864-5.36,13.292-12.435l.429-7.075c.214-5.36-3.859-10.077-9.219-10.505h-.857Z"/>
    <path class="cls-20" d="M1069.141,380.089l.643,8.576c.214,7.075,6.003,12.649,13.078,12.649h0c7.075,0,12.864-5.36,13.292-12.435l.643-8.576"/>
    <path class="cls-15" d="M1105.47,313.742h7.718c5.574,.214,10.291-4.073,10.72-9.648v-.858l-.429-7.075c-.643-7.289-6.861-12.864-14.15-12.649h0c-7.289-.214-13.507,5.145-14.364,12.435l-.429,7.075c0,5.574,4.502,10.291,10.076,10.505l.857,.214Z"/>
    <path class="cls-10" d="M1105.47,314.6h7.718c5.574,.214,10.291-4.073,10.72-9.648v-.214h0v-.429l-.429-7.075c-.643-7.289-6.861-12.864-14.15-12.649h0c-7.289-.214-13.507,5.145-14.364,12.435l-.429,7.075c0,5.574,4.502,10.291,10.076,10.505h.857Z"/>
    <path class="cls-9" d="M1105.685,317.816h7.075c5.36,0,9.862-4.288,9.862-9.862h0v-.429l-.214-7.075c-.214-7.075-6.003-12.649-13.078-12.649h0c-7.075,0-12.864,5.36-13.292,12.435l-.429,7.075c-.214,5.36,3.859,10.077,9.219,10.505h.857Z"/>
    <path class="cls-20" d="M1122.836,309.025l-.643-8.576c-.214-7.075-6.003-12.649-13.078-12.649h0c-7.075,0-12.864,5.36-13.292,12.435l-.643,8.576"/>
    <rect class="cls-18" x="740.916" y="328.206" width="135.014" height="43.093"/>
    <rect class="cls-5" x="740.916" y="323.704" width="135.014" height="43.093"/>
    <rect class="cls-4" x="740.916" y="320.917" width="135.014" height="43.093"/>
    <path class="cls-15" d="M835.625,375.373h-7.718c-5.574-.214-10.291,4.073-10.72,9.648v.858l.429,7.075c.643,7.289,6.861,12.864,14.15,12.649h0c7.289,.214,13.507-5.145,14.364-12.435l.429-7.075c0-5.574-4.502-10.291-10.076-10.505l-.857-.214Z"/>
    <path class="cls-10" d="M835.625,374.515h-7.718c-5.574-.214-10.291,4.073-10.72,9.648v.214h0v.429l.429,7.075c.643,7.289,6.861,12.864,14.15,12.649h0c7.289,.214,13.507-5.145,14.364-12.435l.429-7.075c0-5.574-4.502-10.291-10.076-10.505h-.857Z"/>
    <path class="cls-9" d="M835.41,371.299h-7.075c-5.36,0-9.862,4.288-9.862,9.862h0v.429l.214,7.075c.214,7.075,6.003,12.649,13.078,12.649h0c7.075,0,12.864-5.36,13.292-12.435l.429-7.075c.214-5.36-3.859-10.077-9.219-10.505h-.857Z"/>
    <path class="cls-20" d="M818.259,380.089l.643,8.576c.214,7.075,6.003,12.649,13.078,12.649h0c7.075,0,12.864-5.36,13.292-12.435l.643-8.576"/>
    <path class="cls-15" d="M785.708,375.373h-7.718c-5.574-.214-10.291,4.073-10.72,9.648v.858l.429,7.075c.643,7.289,6.861,12.864,14.15,12.649h0c7.289,.214,13.507-5.145,14.364-12.435l.429-7.075c0-5.574-4.502-10.291-10.076-10.505l-.857-.214Z"/>
    <path class="cls-10" d="M785.708,374.515h-7.718c-5.574-.214-10.291,4.073-10.72,9.648v.214h0v.429l.429,7.075c.643,7.289,6.861,12.864,14.15,12.649h0c7.289,.214,13.507-5.145,14.364-12.435l.429-7.075c0-5.574-4.502-10.291-10.076-10.505h-.857Z"/>
    <path class="cls-9" d="M785.493,371.299h-7.075c-5.36,0-9.862,4.288-9.862,9.862h0v.429l.214,7.075c.214,7.075,6.003,12.649,13.078,12.649h0c7.075,0,12.864-5.36,13.292-12.435l.429-7.075c.214-5.36-3.859-10.077-9.219-10.505h-.857Z"/>
    <path class="cls-20" d="M768.342,380.089l.643,8.576c.214,7.075,6.003,12.649,13.078,12.649h0c7.075,0,12.864-5.36,13.292-12.435l.643-8.576"/>
    <path class="cls-15" d="M804.672,313.742h7.718c5.574,.214,10.291-4.073,10.72-9.648v-.858l-.429-7.075c-.643-7.289-6.861-12.864-14.15-12.649h0c-7.289-.214-13.507,5.145-14.364,12.435l-.429,7.075c0,5.574,4.502,10.291,10.076,10.505l.857,.214Z"/>
    <path class="cls-10" d="M804.672,314.6h7.718c5.574,.214,10.291-4.073,10.72-9.648v-.214h0v-.429l-.429-7.075c-.643-7.289-6.861-12.864-14.15-12.649h0c-7.289-.214-13.507,5.145-14.364,12.435l-.429,7.075c0,5.574,4.502,10.291,10.076,10.505h.857Z"/>
    <path class="cls-9" d="M804.886,317.816h7.075c5.36,0,9.862-4.288,9.862-9.862h0v-.429l-.214-7.075c-.214-7.075-6.003-12.649-13.078-12.649h0c-7.075,0-12.864,5.36-13.292,12.435l-.429,7.075c-.214,5.36,3.859,10.077,9.219,10.505h.857Z"/>
    <path class="cls-20" d="M822.038,309.025l-.643-8.576c-.214-7.075-6.003-12.649-13.078-12.649h0c-7.075,0-12.864,5.36-13.292,12.435l-.643,8.576"/>
    <path class="cls-15" d="M609.645,315.889h7.718c5.574,.214,10.291-4.073,10.72-9.648v-.858l-.429-7.075c-.643-7.289-6.861-12.864-14.15-12.649h0c-7.289-.214-13.507,5.145-14.364,12.435l-.429,7.075c0,5.574,4.502,10.291,10.076,10.505l.857,.214Z"/>
    <path class="cls-10" d="M609.645,316.747h7.718c5.574,.214,10.291-4.073,10.72-9.648v-.214h0v-.429l-.429-7.075c-.643-7.289-6.861-12.864-14.15-12.649h0c-7.289-.214-13.507,5.145-14.364,12.435l-.429,7.075c0,5.574,4.502,10.291,10.076,10.505h.857Z"/>
    <path class="cls-9" d="M609.86,319.963h7.075c5.36,0,9.862-4.288,9.862-9.862h0v-.429l-.214-7.075c-.214-7.075-6.003-12.649-13.078-12.649h0c-7.075,0-12.864,5.36-13.292,12.435l-.429,7.075c-.214,5.36,3.859,10.077,9.219,10.505h.857Z"/>
    <path class="cls-20" d="M627.011,311.172l-.643-8.576c-.214-7.075-6.003-12.649-13.078-12.649h0c-7.075,0-12.864,5.36-13.292,12.435l-.643,8.576"/>
    <path class="cls-15" d="M617.149,483.962h-7.718c-5.574-.214-10.291,4.073-10.72,9.648v.858l.429,7.075c.643,7.289,6.861,12.864,14.15,12.649h0c7.289,.214,13.507-5.145,14.364-12.435l.429-7.075c0-5.574-4.502-10.291-10.076-10.505l-.857-.214Z"/>
    <path class="cls-10" d="M617.149,483.105h-7.718c-5.574-.214-10.291,4.073-10.72,9.648v.214h0v.429l.429,7.075c.643,7.289,6.861,12.864,14.15,12.649h0c7.289,.214,13.507-5.145,14.364-12.435l.429-7.075c0-5.574-4.502-10.291-10.076-10.505h-.857Z"/>
    <path class="cls-9" d="M616.935,479.889h-7.075c-5.36,0-9.862,4.288-9.862,9.862h0v.429l.214,7.075c.214,7.075,6.003,12.649,13.078,12.649h0c7.075,0,12.864-5.36,13.292-12.435l.429-7.075c.214-5.36-3.859-10.077-9.219-10.505h-.857Z"/>
    <path class="cls-20" d="M599.783,488.679l.643,8.576c.214,7.075,6.003,12.649,13.078,12.649h0c7.075,0,12.864-5.36,13.292-12.435l.643-8.576"/>
    <path class="cls-15" d="M581.515,353.505v-7.718c.214-5.574-4.073-10.291-9.648-10.72h-.858l-7.075,.429c-7.289,.643-12.864,6.861-12.649,14.15h0c-.214,7.289,5.145,13.507,12.435,14.364l7.075,.429c5.574,0,10.291-4.502,10.505-10.076l.214-.857Z"/>
    <path class="cls-10" d="M582.372,353.505v-7.718c.214-5.574-4.073-10.291-9.648-10.72h-.643l-7.075,.429c-7.289,.643-12.864,6.861-12.649,14.15h0c-.214,7.289,5.145,13.507,12.435,14.364l7.075,.429c5.574,0,10.291-4.502,10.505-10.076v-.857Z"/>
    <path class="cls-9" d="M585.588,353.29v-7.075c0-5.36-4.288-9.862-9.862-9.862h-.429l-7.075,.214c-7.075,.214-12.649,6.003-12.649,13.078h0c0,7.075,5.36,12.864,12.435,13.292l7.075,.429c5.36,.214,10.077-3.859,10.505-9.219v-.857Z"/>
    <path class="cls-20" d="M576.798,336.139l-8.576,.643c-7.075,.214-12.649,6.003-12.649,13.078h0c0,7.075,5.36,12.864,12.435,13.292l8.576,.643"/>
    <path class="cls-15" d="M581.515,408.289v-7.718c.214-5.574-4.073-10.291-9.648-10.72h-.858l-7.075,.429c-7.289,.643-12.864,6.861-12.649,14.15h0c-.214,7.289,5.145,13.507,12.435,14.364l7.075,.429c5.574,0,10.291-4.502,10.505-10.076l.214-.857Z"/>
    <path class="cls-10" d="M582.372,408.289v-7.718c.214-5.574-4.073-10.291-9.648-10.72h-.643l-7.075,.429c-7.289,.643-12.864,6.861-12.649,14.15h0c-.214,7.289,5.145,13.507,12.435,14.364l7.075,.429c5.574,0,10.291-4.502,10.505-10.076v-.857Z"/>
    <path class="cls-9" d="M585.588,408.074v-7.075c0-5.36-4.288-9.862-9.862-9.862h-.429l-7.075,.214c-7.075,.214-12.649,6.003-12.649,13.078h0c0,7.075,5.36,12.864,12.435,13.292l7.075,.429c5.36,.214,10.077-3.859,10.505-9.219v-.857Z"/>
    <path class="cls-20" d="M576.798,390.923l-8.576,.643c-7.075,.214-12.649,6.003-12.649,13.078h0c0,7.075,5.36,12.864,12.435,13.292l8.576,.643"/>
    <path class="cls-15" d="M581.515,458.684v-7.718c.214-5.574-4.073-10.291-9.648-10.72h-.858l-7.075,.429c-7.289,.643-12.864,6.861-12.649,14.15h0c-.214,7.289,5.145,13.507,12.435,14.364l7.075,.429c5.574,0,10.291-4.502,10.505-10.076l.214-.857Z"/>
    <path class="cls-10" d="M582.372,458.684v-7.718c.214-5.574-4.073-10.291-9.648-10.72h-.643l-7.075,.429c-7.289,.643-12.864,6.861-12.649,14.15h0c-.214,7.289,5.145,13.507,12.435,14.364l7.075,.429c5.574,0,10.291-4.502,10.505-10.076v-.857Z"/>
    <path class="cls-9" d="M585.588,458.47v-7.075c0-5.36-4.288-9.862-9.862-9.862h-.429l-7.075,.214c-7.075,.214-12.649,6.003-12.649,13.078h0c0,7.075,5.36,12.864,12.435,13.292l7.075,.429c5.36,.214,10.077-3.859,10.505-9.219v-.857Z"/>
    <path class="cls-20" d="M576.798,441.318l-8.576,.643c-7.075,.214-12.649,6.003-12.649,13.078h0c0,7.075,5.36,12.864,12.435,13.292l8.576,.643"/>
    <path class="cls-15" d="M648.585,354.362c.214,5.574,4.931,10.076,10.505,10.076l7.075-.429c7.289-.857,12.649-7.075,12.435-14.364h0c.214-7.289-5.36-13.507-12.649-14.15l-7.075-.429h-.858c-5.574,.429-9.862,5.146-9.648,10.72v7.718s.214,.857,.214,.857Z"/>
    <path class="cls-10" d="M647.513,354.362c.214,5.574,4.931,10.076,10.505,10.076l7.075-.429c7.289-.857,12.649-7.075,12.435-14.364h0c.214-7.289-5.36-13.507-12.649-14.15l-7.075-.429h-.643c-5.574,.429-9.862,5.146-9.648,10.72v7.718s0,.857,0,.857Z"/>
    <path class="cls-9" d="M644.297,354.147c.429,5.36,5.145,9.433,10.505,9.219l7.075-.429c7.075-.429,12.435-6.217,12.435-13.292h0c0-7.075-5.574-12.864-12.649-13.078l-7.075-.214h-.429c-5.574,0-9.862,4.502-9.862,9.862v7.075s0,.857,0,.857Z"/>
    <path class="cls-20" d="M653.302,363.796l8.576-.643c7.075-.429,12.435-6.217,12.435-13.292h0c0-7.075-5.574-12.864-12.649-13.078l-8.576-.643"/>
    <path class="cls-15" d="M648.585,409.146c.214,5.574,4.931,10.076,10.505,10.076l7.075-.429c7.289-.857,12.649-7.075,12.435-14.364h0c.214-7.289-5.36-13.507-12.649-14.15l-7.075-.429h-.858c-5.574,.429-9.862,5.146-9.648,10.72v7.718s.214,.857,.214,.857Z"/>
    <path class="cls-10" d="M647.513,409.146c.214,5.574,4.931,10.076,10.505,10.076l7.075-.429c7.289-.857,12.649-7.075,12.435-14.364h0c.214-7.289-5.36-13.507-12.649-14.15l-7.075-.429h-.643c-5.574,.429-9.862,5.146-9.648,10.72v7.718s0,.857,0,.857Z"/>
    <path class="cls-9" d="M644.297,408.931c.429,5.36,5.145,9.433,10.505,9.219l7.075-.429c7.075-.429,12.435-6.217,12.435-13.292h0c0-7.075-5.574-12.864-12.649-13.078l-7.075-.214h-.429c-5.574,0-9.862,4.502-9.862,9.862v7.075s0,.857,0,.857Z"/>
    <path class="cls-20" d="M653.302,418.58l8.576-.643c7.075-.429,12.435-6.217,12.435-13.292h0c0-7.075-5.574-12.864-12.649-13.078l-8.576-.643"/>
    <path class="cls-15" d="M648.585,459.542c.214,5.574,4.931,10.076,10.505,10.076l7.075-.429c7.289-.857,12.649-7.075,12.435-14.364h0c.214-7.289-5.36-13.507-12.649-14.15l-7.075-.429h-.858c-5.574,.429-9.862,5.146-9.648,10.72v7.718s.214,.857,.214,.857Z"/>
    <path class="cls-10" d="M647.513,459.542c.214,5.574,4.931,10.076,10.505,10.076l7.075-.429c7.289-.857,12.649-7.075,12.435-14.364h0c.214-7.289-5.36-13.507-12.649-14.15l-7.075-.429h-.643c-5.574,.429-9.862,5.146-9.648,10.72v7.718s0,.857,0,.857Z"/>
    <path class="cls-9" d="M644.297,459.327c.429,5.36,5.145,9.433,10.505,9.219l7.075-.429c7.075-.429,12.435-6.217,12.435-13.292h0c0-7.075-5.574-12.864-12.649-13.078l-7.075-.214h-.429c-5.574,0-9.862,4.502-9.862,9.862v7.075s0,.857,0,.857Z"/>
    <path class="cls-20" d="M653.302,468.975l8.576-.643c7.075-.429,12.435-6.217,12.435-13.292h0c0-7.075-5.574-12.864-12.649-13.078l-8.576-.643"/>
    <rect class="cls-18" x="577.22" y="327.348" width="72.354" height="157.571"/>
    <rect class="cls-5" x="577.22" y="322.846" width="72.354" height="157.571"/>
    <rect class="cls-4" x="577.22" y="320.059" width="72.354" height="157.571"/>
    <path class="cls-15" d="M581.515,626.059v-7.718c.214-5.574-4.073-10.291-9.648-10.72h-.858l-7.075,.429c-7.289,.643-12.864,6.861-12.649,14.15h0c-.214,7.289,5.145,13.507,12.435,14.364l7.075,.429c5.574,0,10.291-4.502,10.505-10.076l.214-.857Z"/>
    <path class="cls-10" d="M582.372,626.059v-7.718c.214-5.574-4.073-10.291-9.648-10.72h-.643l-7.075,.429c-7.289,.643-12.864,6.861-12.649,14.15h0c-.214,7.289,5.145,13.507,12.435,14.364l7.075,.429c5.574,0,10.291-4.502,10.505-10.076v-.857Z"/>
    <path class="cls-9" d="M585.588,625.844v-7.075c0-5.36-4.288-9.862-9.862-9.862h-.429l-7.075,.214c-7.075,.214-12.649,6.003-12.649,13.078h0c0,7.075,5.36,12.864,12.435,13.292l7.075,.429c5.36,.214,10.077-3.859,10.505-9.219v-.857Z"/>
    <path class="cls-20" d="M576.798,608.693l-8.576,.643c-7.075,.214-12.649,6.003-12.649,13.078h0c0,7.075,5.36,12.864,12.435,13.292l8.576,.643"/>
    <path class="cls-15" d="M581.515,680.843v-7.718c.214-5.574-4.073-10.291-9.648-10.72h-.858l-7.075,.429c-7.289,.643-12.864,6.861-12.649,14.15h0c-.214,7.289,5.145,13.507,12.435,14.364l7.075,.429c5.574,0,10.291-4.502,10.505-10.076l.214-.857Z"/>
    <path class="cls-10" d="M582.372,680.843v-7.718c.214-5.574-4.073-10.291-9.648-10.72h-.643l-7.075,.429c-7.289,.643-12.864,6.861-12.649,14.15h0c-.214,7.289,5.145,13.507,12.435,14.364l7.075,.429c5.574,0,10.291-4.502,10.505-10.076v-.857Z"/>
    <path class="cls-9" d="M585.588,680.628v-7.075c0-5.36-4.288-9.862-9.862-9.862h-.429l-7.075,.214c-7.075,.214-12.649,6.003-12.649,13.078h0c0,7.075,5.36,12.864,12.435,13.292l7.075,.429c5.36,.214,10.077-3.859,10.505-9.219v-.857Z"/>
    <path class="cls-20" d="M576.798,663.477l-8.576,.643c-7.075,.214-12.649,6.003-12.649,13.078h0c0,7.075,5.36,12.864,12.435,13.292l8.576,.643"/>
    <path class="cls-15" d="M581.515,731.238v-7.718c.214-5.574-4.073-10.291-9.648-10.72h-.858l-7.075,.429c-7.289,.643-12.864,6.861-12.649,14.15h0c-.214,7.289,5.145,13.507,12.435,14.364l7.075,.429c5.574,0,10.291-4.502,10.505-10.076l.214-.857Z"/>
    <path class="cls-10" d="M582.372,731.238v-7.718c.214-5.574-4.073-10.291-9.648-10.72h-.643l-7.075,.429c-7.289,.643-12.864,6.861-12.649,14.15h0c-.214,7.289,5.145,13.507,12.435,14.364l7.075,.429c5.574,0,10.291-4.502,10.505-10.076v-.857Z"/>
    <path class="cls-9" d="M585.588,731.024v-7.075c0-5.36-4.288-9.862-9.862-9.862h-.429l-7.075,.214c-7.075,.214-12.649,6.003-12.649,13.078h0c0,7.075,5.36,12.864,12.435,13.292l7.075,.429c5.36,.214,10.077-3.859,10.505-9.219v-.857Z"/>
    <path class="cls-20" d="M576.798,713.872l-8.576,.643c-7.075,.214-12.649,6.003-12.649,13.078h0c0,7.075,5.36,12.864,12.435,13.292l8.576,.643"/>
    <path class="cls-15" d="M648.585,626.916c.214,5.574,4.931,10.076,10.505,10.076l7.075-.429c7.289-.857,12.649-7.075,12.435-14.364h0c.214-7.289-5.36-13.507-12.649-14.15l-7.075-.429h-.858c-5.574,.429-9.862,5.146-9.648,10.72v7.718s.214,.857,.214,.857Z"/>
    <path class="cls-10" d="M647.513,626.916c.214,5.574,4.931,10.076,10.505,10.076l7.075-.429c7.289-.857,12.649-7.075,12.435-14.364h0c.214-7.289-5.36-13.507-12.649-14.15l-7.075-.429h-.643c-5.574,.429-9.862,5.146-9.648,10.72v7.718s0,.857,0,.857Z"/>
    <path class="cls-9" d="M644.297,626.701c.429,5.36,5.145,9.433,10.505,9.219l7.075-.429c7.075-.429,12.435-6.217,12.435-13.292h0c0-7.075-5.574-12.864-12.649-13.078l-7.075-.214h-.429c-5.574,0-9.862,4.502-9.862,9.862v7.075s0,.857,0,.857Z"/>
    <path class="cls-20" d="M653.302,636.35l8.576-.643c7.075-.429,12.435-6.217,12.435-13.292h0c0-7.075-5.574-12.864-12.649-13.078l-8.576-.643"/>
    <path class="cls-15" d="M648.585,681.7c.214,5.574,4.931,10.076,10.505,10.076l7.075-.429c7.289-.857,12.649-7.075,12.435-14.364h0c.214-7.289-5.36-13.507-12.649-14.15l-7.075-.429h-.858c-5.574,.429-9.862,5.146-9.648,10.72v7.718s.214,.857,.214,.857Z"/>
    <path class="cls-10" d="M647.513,681.7c.214,5.574,4.931,10.076,10.505,10.076l7.075-.429c7.289-.857,12.649-7.075,12.435-14.364h0c.214-7.289-5.36-13.507-12.649-14.15l-7.075-.429h-.643c-5.574,.429-9.862,5.146-9.648,10.72v7.718s0,.857,0,.857Z"/>
    <path class="cls-9" d="M644.297,681.485c.429,5.36,5.145,9.433,10.505,9.219l7.075-.429c7.075-.429,12.435-6.217,12.435-13.292h0c0-7.075-5.574-12.864-12.649-13.078l-7.075-.214h-.429c-5.574,0-9.862,4.502-9.862,9.862v7.075s0,.857,0,.857Z"/>
    <path class="cls-20" d="M653.302,691.134l8.576-.643c7.075-.429,12.435-6.217,12.435-13.292h0c0-7.075-5.574-12.864-12.649-13.078l-8.576-.643"/>
    <path class="cls-15" d="M648.585,732.096c.214,5.574,4.931,10.076,10.505,10.076l7.075-.429c7.289-.857,12.649-7.075,12.435-14.364h0c.214-7.289-5.36-13.507-12.649-14.15l-7.075-.429h-.858c-5.574,.429-9.862,5.146-9.648,10.72v7.718s.214,.857,.214,.857Z"/>
    <path class="cls-10" d="M647.513,732.096c.214,5.574,4.931,10.076,10.505,10.076l7.075-.429c7.289-.857,12.649-7.075,12.435-14.364h0c.214-7.289-5.36-13.507-12.649-14.15l-7.075-.429h-.643c-5.574,.429-9.862,5.146-9.648,10.72v7.718s0,.857,0,.857Z"/>
    <path class="cls-9" d="M644.297,731.881c.429,5.36,5.145,9.433,10.505,9.219l7.075-.429c7.075-.429,12.435-6.217,12.435-13.292h0c0-7.075-5.574-12.864-12.649-13.078l-7.075-.214h-.429c-5.574,0-9.862,4.502-9.862,9.862v7.075s0,.857,0,.857Z"/>
    <path class="cls-20" d="M653.302,741.529l8.576-.643c7.075-.429,12.435-6.217,12.435-13.292h0c0-7.075-5.574-12.864-12.649-13.078l-8.576-.643"/>
    <rect class="cls-18" x="577.22" y="599.902" width="72.354" height="157.571"/>
    <rect class="cls-5" x="577.22" y="595.4" width="72.354" height="157.571"/>
    <rect class="cls-4" x="577.22" y="592.613" width="72.354" height="157.571"/>
    <rect class="cls-18" x="719.841" y="474.847" width="89.707" height="43.093"/>
    <rect class="cls-5" x="719.841" y="470.345" width="89.707" height="43.093"/>
    <rect class="cls-4" x="719.841" y="467.558" width="89.707" height="43.093"/>
    <path class="cls-15" d="M769.242,522.014h-7.718c-5.574-.214-10.291,4.073-10.72,9.648v.858l.429,7.075c.643,7.289,6.861,12.864,14.15,12.649h0c7.289,.214,13.507-5.145,14.364-12.435l.429-7.075c0-5.574-4.502-10.291-10.076-10.505l-.857-.214Z"/>
    <path class="cls-10" d="M769.242,521.157h-7.718c-5.574-.214-10.291,4.073-10.72,9.648v.214h0v.429l.429,7.075c.643,7.289,6.861,12.864,14.15,12.649h0c7.289,.214,13.507-5.145,14.364-12.435l.429-7.075c0-5.574-4.502-10.291-10.076-10.505h-.857Z"/>
    <path class="cls-9" d="M769.028,517.941h-7.075c-5.36,0-9.862,4.288-9.862,9.862h0v.429l.214,7.075c.214,7.075,6.003,12.649,13.078,12.649h0c7.075,0,12.864-5.36,13.292-12.435l.429-7.075c.214-5.36-3.859-10.077-9.219-10.505h-.857Z"/>
    <path class="cls-20" d="M751.876,526.731l.643,8.576c.214,7.075,6.003,12.649,13.078,12.649h0c7.075,0,12.864-5.36,13.292-12.435l.643-8.576"/>
    <rect class="cls-18" x="719.841" y="587.464" width="89.707" height="43.093"/>
    <rect class="cls-5" x="719.841" y="582.962" width="89.707" height="43.093"/>
    <rect class="cls-4" x="719.841" y="580.175" width="89.707" height="43.093"/>
    <path class="cls-15" d="M769.242,634.631h-7.718c-5.574-.214-10.291,4.073-10.72,9.648v.858l.429,7.075c.643,7.289,6.861,12.864,14.15,12.649h0c7.289,.214,13.507-5.145,14.364-12.435l.429-7.075c0-5.574-4.502-10.291-10.076-10.505l-.857-.214Z"/>
    <path class="cls-10" d="M769.242,633.774h-7.718c-5.574-.214-10.291,4.073-10.72,9.648v.214h0v.429l.429,7.075c.643,7.289,6.861,12.864,14.15,12.649h0c7.289,.214,13.507-5.145,14.364-12.435l.429-7.075c0-5.574-4.502-10.291-10.076-10.505h-.857Z"/>
    <path class="cls-9" d="M769.028,630.558h-7.075c-5.36,0-9.862,4.288-9.862,9.862h0v.429l.214,7.075c.214,7.075,6.003,12.649,13.078,12.649h0c7.075,0,12.864-5.36,13.292-12.435l.429-7.075c.214-5.36-3.859-10.077-9.219-10.505h-.857Z"/>
    <path class="cls-20" d="M751.876,639.348l.643,8.576c.214,7.075,6.003,12.649,13.078,12.649h0c7.075,0,12.864-5.36,13.292-12.435l.643-8.576"/>
    <rect class="cls-18" x="531.129" y="808.13" width="43.093" height="118.781"/>
    <rect class="cls-5" x="526.627" y="808.13" width="43.093" height="118.781"/>
    <rect class="cls-4" x="523.839" y="808.13" width="43.093" height="118.781"/>
    <path class="cls-15" d="M578.296,857.826v7.718c-.214,5.574,4.073,10.291,9.648,10.72h.858l7.075-.429c7.289-.643,12.864-6.861,12.649-14.15h0c.214-7.289-5.145-13.507-12.435-14.364l-7.075-.429c-5.574,0-10.291,4.502-10.505,10.076l-.214,.857Z"/>
    <path class="cls-10" d="M577.438,857.826v7.718c-.214,5.574,4.073,10.291,9.648,10.72h.643l7.075-.429c7.289-.643,12.864-6.861,12.649-14.15h0c.214-7.289-5.145-13.507-12.435-14.364l-7.075-.429c-5.574,0-10.291,4.502-10.505,10.076v.857Z"/>
    <path class="cls-9" d="M574.222,858.04v7.075c0,5.36,4.288,9.862,9.862,9.862h.429l7.075-.214c7.075-.214,12.649-6.003,12.649-13.078h0c0-7.075-5.36-12.864-12.435-13.292l-7.075-.429c-5.36-.214-10.077,3.859-10.505,9.219v.857Z"/>
    <path class="cls-20" d="M583.012,875.192l8.576-.643c7.075-.214,12.649-6.003,12.649-13.078h0c0-7.075-5.36-12.864-12.435-13.292l-8.576-.643"/>
  </g>
  <g id="bookable">
    <rect id="area-07.01-status" class="cls-17" x="498.169" y="254.779" width="214.065" height="310.415"/>
    <rect id="area-07.02-status" class="cls-17" x="498.169" y="565.194" width="214.065" height="242.936"/>
    <rect id="area-07.03-status" class="cls-17" x="712.235" y="254.779" width="286.946" height="204.086"/>
    <rect id="area-07.04-status" class="cls-17" x="999.181" y="254.779" width="209.212" height="204.086"/>
  </g>
  <g id="Room_Name" data-name="Room Name">
    <g>
      <path class="cls-4" d="M563.675,690.004c-1.235,1.13-2.815,1.696-4.739,1.696-2.381,0-4.252-.764-5.615-2.291-1.363-1.535-2.044-3.639-2.044-6.312,0-2.89,.775-5.117,2.325-6.682,1.348-1.363,3.062-2.044,5.144-2.044,2.785,0,4.822,.914,6.109,2.74,.711,1.026,1.093,2.055,1.146,3.088h-3.459c-.225-.793-.513-1.393-.865-1.797-.629-.719-1.561-1.078-2.796-1.078-1.258,0-2.25,.507-2.976,1.522-.726,1.014-1.089,2.45-1.089,4.307s.384,3.248,1.151,4.172c.768,.925,1.743,1.387,2.926,1.387,1.213,0,2.138-.397,2.774-1.19,.352-.427,.644-1.067,.876-1.92h3.425c-.299,1.804-1.063,3.272-2.291,4.402Z"/>
      <path class="cls-4" d="M579.409,684.052v7.188h-3.268v-7.446c0-.659-.112-1.19-.337-1.595-.292-.569-.846-.854-1.662-.854-.846,0-1.488,.283-1.926,.848-.438,.565-.657,1.372-.657,2.42v6.626h-3.189v-16.498h3.189v5.851c.464-.711,1.001-1.207,1.612-1.488,.61-.28,1.252-.421,1.926-.421,.756,0,1.443,.131,2.061,.393,.618,.262,1.125,.663,1.522,1.202,.337,.457,.543,.927,.618,1.409,.075,.483,.112,1.271,.112,2.364Z"/>
      <path class="cls-4" d="M585.687,674.584v2.954h-3.246v-2.954h3.246Zm0,4.414v12.241h-3.246v-12.241h3.246Z"/>
      <path class="cls-4" d="M595.66,682.367c-.27-.591-.797-.887-1.583-.887-.914,0-1.527,.296-1.842,.887-.172,.337-.258,.838-.258,1.505v7.367h-3.246v-12.219h3.111v1.786c.397-.636,.771-1.089,1.123-1.359,.622-.479,1.426-.719,2.415-.719,.936,0,1.692,.206,2.269,.618,.464,.382,.816,.872,1.056,1.471,.419-.719,.939-1.247,1.561-1.583,.659-.337,1.393-.505,2.201-.505,.539,0,1.071,.105,1.595,.314s1,.577,1.426,1.101c.344,.427,.577,.951,.696,1.572,.075,.412,.112,1.015,.112,1.808l-.022,7.715h-3.279v-7.794c0-.464-.075-.846-.225-1.146-.285-.569-.809-.854-1.572-.854-.883,0-1.494,.367-1.831,1.101-.172,.389-.258,.857-.258,1.404v7.289h-3.223v-7.289c0-.726-.075-1.254-.225-1.583Z"/>
      <path class="cls-4" d="M609.698,680.323c.846-1.078,2.298-1.617,4.357-1.617,1.34,0,2.531,.266,3.571,.797s1.561,1.535,1.561,3.01v5.615c0,.389,.007,.861,.022,1.415,.022,.419,.086,.704,.191,.854s.262,.273,.472,.371v.472h-3.481c-.097-.247-.165-.479-.202-.696s-.067-.464-.09-.741c-.442,.479-.951,.887-1.527,1.224-.689,.397-1.467,.595-2.336,.595-1.108,0-2.023-.316-2.746-.949-.722-.632-1.083-1.529-1.083-2.689,0-1.505,.58-2.594,1.741-3.268,.636-.367,1.572-.629,2.808-.786l1.089-.135c.591-.075,1.015-.168,1.269-.281,.457-.195,.685-.498,.685-.91,0-.501-.174-.848-.522-1.039-.349-.191-.859-.287-1.533-.287-.756,0-1.292,.187-1.606,.562-.225,.277-.375,.651-.449,1.123h-3.088c.067-1.071,.367-1.95,.898-2.639Zm2.381,8.603c.299,.247,.667,.371,1.101,.371,.689,0,1.323-.202,1.903-.606,.581-.404,.882-1.142,.904-2.212v-1.19c-.202,.127-.406,.23-.612,.309-.206,.079-.488,.152-.848,.219l-.719,.135c-.674,.12-1.157,.266-1.449,.438-.494,.292-.741,.745-.741,1.359,0,.546,.153,.939,.46,1.179Z"/>
      <path class="cls-4" d="M628.183,681.952c-1.288,0-2.152,.419-2.594,1.258-.247,.472-.371,1.198-.371,2.179v5.851h-3.223v-12.241h3.055v2.134c.494-.816,.925-1.374,1.292-1.673,.599-.501,1.377-.752,2.336-.752,.06,0,.11,.002,.152,.006,.041,.003,.133,.009,.275,.017v3.279c-.202-.022-.382-.038-.539-.045s-.285-.011-.382-.011Z"/>
      <path class="cls-4" d="M637.134,681.952c-1.288,0-2.152,.419-2.594,1.258-.247,.472-.371,1.198-.371,2.179v5.851h-3.223v-12.241h3.055v2.134c.494-.816,.925-1.374,1.292-1.673,.599-.501,1.377-.752,2.336-.752,.06,0,.11,.002,.152,.006,.041,.003,.133,.009,.275,.017v3.279c-.202-.022-.382-.038-.539-.045s-.285-.011-.382-.011Z"/>
      <path class="cls-4" d="M640.391,680.323c.846-1.078,2.298-1.617,4.357-1.617,1.34,0,2.531,.266,3.571,.797s1.561,1.535,1.561,3.01v5.615c0,.389,.007,.861,.022,1.415,.022,.419,.086,.704,.191,.854s.262,.273,.472,.371v.472h-3.481c-.097-.247-.165-.479-.202-.696s-.067-.464-.09-.741c-.442,.479-.951,.887-1.527,1.224-.689,.397-1.467,.595-2.336,.595-1.108,0-2.023-.316-2.746-.949-.722-.632-1.083-1.529-1.083-2.689,0-1.505,.58-2.594,1.741-3.268,.636-.367,1.572-.629,2.808-.786l1.089-.135c.591-.075,1.015-.168,1.269-.281,.457-.195,.685-.498,.685-.91,0-.501-.174-.848-.522-1.039-.349-.191-.859-.287-1.533-.287-.756,0-1.292,.187-1.606,.562-.225,.277-.375,.651-.449,1.123h-3.088c.067-1.071,.367-1.95,.898-2.639Zm6.166-3.291c-.232,0-.562-.056-.988-.168-.247-.06-.483-.127-.708-.202l-.91-.303c-.127-.045-.251-.077-.371-.095-.12-.019-.24-.028-.359-.028-.285,0-.517,.083-.696,.247-.18,.172-.307,.408-.382,.708h-1.46c.165-.771,.378-1.355,.64-1.752,.479-.711,1.19-1.067,2.134-1.067,.202,0,.4,.022,.595,.067s.359,.094,.494,.146l1.056,.393c.314,.105,.521,.172,.618,.202s.206,.045,.326,.045c.359,0,.612-.096,.758-.286,.146-.191,.253-.417,.32-.68h1.494c-.135,.786-.402,1.445-.803,1.977-.4,.532-.986,.797-1.757,.797Zm-3.785,11.893c.299,.247,.667,.371,1.101,.371,.689,0,1.323-.202,1.903-.606,.581-.404,.882-1.142,.904-2.212v-1.19c-.202,.127-.406,.23-.612,.309-.206,.079-.488,.152-.848,.219l-.719,.135c-.674,.12-1.157,.266-1.449,.438-.494,.292-.741,.745-.741,1.359,0,.546,.153,.939,.46,1.179Z"/>
      <path class="cls-4" d="M662.93,680.548c1.033,1.295,1.55,2.826,1.55,4.593,0,1.797-.517,3.333-1.55,4.61-1.033,1.277-2.602,1.915-4.706,1.915s-3.672-.638-4.706-1.915c-1.033-1.276-1.55-2.813-1.55-4.61,0-1.767,.517-3.298,1.55-4.593s2.602-1.943,4.706-1.943,3.672,.647,4.706,1.943Zm-4.717,.764c-.936,0-1.656,.331-2.162,.994-.505,.662-.758,1.607-.758,2.835s.253,2.175,.758,2.841c.506,.667,1.226,1,2.162,1s1.655-.333,2.156-1,.752-1.613,.752-2.841-.251-2.173-.752-2.835c-.501-.663-1.22-.994-2.156-.994Z"/>
    </g>
    <g>
      <path class="cls-4" d="M563.675,416.498c-1.235,1.13-2.815,1.696-4.739,1.696-2.381,0-4.252-.764-5.615-2.291-1.363-1.535-2.044-3.639-2.044-6.312,0-2.89,.775-5.117,2.325-6.682,1.348-1.363,3.062-2.044,5.144-2.044,2.785,0,4.822,.914,6.109,2.74,.711,1.026,1.093,2.055,1.146,3.088h-3.459c-.225-.793-.513-1.393-.865-1.797-.629-.719-1.561-1.078-2.796-1.078-1.258,0-2.25,.507-2.976,1.522-.726,1.014-1.089,2.45-1.089,4.307s.384,3.248,1.151,4.172c.768,.925,1.743,1.387,2.926,1.387,1.213,0,2.138-.397,2.774-1.19,.352-.427,.644-1.067,.876-1.92h3.425c-.299,1.804-1.063,3.272-2.291,4.402Z"/>
      <path class="cls-4" d="M579.409,410.546v7.188h-3.268v-7.446c0-.659-.112-1.19-.337-1.595-.292-.569-.846-.854-1.662-.854-.846,0-1.488,.283-1.926,.848-.438,.565-.657,1.372-.657,2.42v6.626h-3.189v-16.498h3.189v5.851c.464-.711,1.001-1.207,1.612-1.488,.61-.28,1.252-.421,1.926-.421,.756,0,1.443,.131,2.061,.393,.618,.262,1.125,.663,1.522,1.202,.337,.457,.543,.927,.618,1.409,.075,.483,.112,1.271,.112,2.364Z"/>
      <path class="cls-4" d="M590.246,416.004c-.03,.038-.105,.15-.225,.337s-.262,.352-.427,.494c-.501,.449-.986,.756-1.454,.921-.468,.165-1.017,.247-1.646,.247-1.812,0-3.032-.651-3.661-1.954-.352-.719-.528-1.778-.528-3.178v-7.378h3.279v7.378c0,.696,.083,1.22,.247,1.572,.292,.622,.865,.932,1.718,.932,1.093,0,1.842-.442,2.246-1.325,.209-.479,.314-1.112,.314-1.898v-6.66h3.246v12.241h-3.111v-1.729Z"/>
      <path class="cls-4" d="M602.6,408.446c-1.288,0-2.152,.419-2.594,1.258-.247,.472-.371,1.198-.371,2.179v5.851h-3.223v-12.241h3.055v2.134c.494-.816,.925-1.374,1.292-1.673,.599-.501,1.377-.752,2.336-.752,.06,0,.11,.002,.152,.006,.041,.003,.133,.009,.275,.017v3.279c-.202-.022-.382-.038-.539-.045s-.285-.011-.382-.011Z"/>
      <path class="cls-4" d="M611.551,408.446c-1.288,0-2.152,.419-2.594,1.258-.247,.472-.371,1.198-.371,2.179v5.851h-3.223v-12.241h3.055v2.134c.494-.816,.925-1.374,1.292-1.673,.599-.501,1.377-.752,2.336-.752,.06,0,.11,.002,.152,.006,.041,.003,.133,.009,.275,.017v3.279c-.202-.022-.382-.038-.539-.045s-.285-.011-.382-.011Z"/>
      <path class="cls-4" d="M614.807,406.818c.846-1.078,2.298-1.617,4.357-1.617,1.34,0,2.531,.266,3.571,.797s1.561,1.535,1.561,3.01v5.615c0,.389,.007,.861,.022,1.415,.022,.419,.086,.704,.191,.854s.262,.273,.472,.371v.472h-3.481c-.097-.247-.165-.479-.202-.696s-.067-.464-.09-.741c-.442,.479-.951,.887-1.527,1.224-.689,.397-1.467,.595-2.336,.595-1.108,0-2.023-.316-2.746-.949-.722-.632-1.083-1.529-1.083-2.689,0-1.505,.58-2.594,1.741-3.268,.636-.367,1.572-.629,2.808-.786l1.089-.135c.591-.075,1.015-.168,1.269-.281,.457-.195,.685-.498,.685-.91,0-.501-.174-.848-.522-1.039-.349-.191-.859-.287-1.533-.287-.756,0-1.292,.187-1.606,.562-.225,.277-.375,.651-.449,1.123h-3.088c.067-1.071,.367-1.95,.898-2.639Zm2.381,8.603c.299,.247,.667,.371,1.101,.371,.689,0,1.323-.202,1.903-.606,.581-.404,.882-1.142,.904-2.212v-1.19c-.202,.127-.406,.23-.612,.309-.206,.079-.488,.152-.848,.219l-.719,.135c-.674,.12-1.157,.266-1.449,.438-.494,.292-.741,.745-.741,1.359,0,.546,.153,.939,.46,1.179Z"/>
      <path class="cls-4" d="M635.573,406.054c.958,.614,1.509,1.669,1.651,3.167h-3.201c-.045-.412-.161-.737-.348-.977-.352-.434-.951-.651-1.797-.651-.696,0-1.192,.108-1.488,.326-.296,.217-.444,.472-.444,.764,0,.367,.157,.633,.472,.797,.314,.172,1.426,.468,3.335,.887,1.273,.299,2.228,.752,2.864,1.359,.629,.614,.943,1.381,.943,2.302,0,1.213-.451,2.203-1.353,2.971-.902,.767-2.297,1.151-4.184,1.151-1.924,0-3.345-.406-4.262-1.218-.917-.812-1.376-1.848-1.376-3.105h3.246c.067,.569,.213,.973,.438,1.213,.397,.427,1.13,.64,2.201,.64,.629,0,1.129-.094,1.499-.281,.371-.187,.556-.468,.556-.842,0-.359-.15-.633-.449-.82s-1.411-.509-3.335-.966c-1.385-.344-2.362-.775-2.931-1.292-.569-.509-.854-1.243-.854-2.201,0-1.13,.444-2.102,1.331-2.915,.888-.812,2.136-1.218,3.746-1.218,1.527,0,2.774,.303,3.74,.91Z"/>
      <path class="cls-4" d="M650.52,409.884h-3.279c-.06-.457-.213-.869-.46-1.235-.359-.494-.917-.741-1.673-.741-1.078,0-1.815,.535-2.212,1.606-.209,.569-.314,1.325-.314,2.269,0,.898,.105,1.621,.314,2.167,.382,1.018,1.101,1.527,2.156,1.527,.749,0,1.28-.202,1.595-.606s.505-.928,.573-1.572h3.268c-.075,.973-.427,1.894-1.056,2.763-1.003,1.4-2.489,2.1-4.458,2.1s-3.418-.584-4.346-1.752-1.393-2.684-1.393-4.548c0-2.104,.513-3.74,1.539-4.908s2.441-1.752,4.245-1.752c1.535,0,2.791,.344,3.768,1.033,.978,.689,1.556,1.905,1.735,3.65Z"/>
      <path class="cls-4" d="M662.93,407.042c1.033,1.295,1.55,2.826,1.55,4.593,0,1.797-.517,3.333-1.55,4.61-1.033,1.277-2.602,1.915-4.706,1.915s-3.672-.638-4.706-1.915c-1.033-1.276-1.55-2.813-1.55-4.61,0-1.767,.517-3.298,1.55-4.593s2.602-1.943,4.706-1.943,3.672,.647,4.706,1.943Zm-4.717,.764c-.936,0-1.656,.331-2.162,.994-.505,.662-.758,1.607-.758,2.835s.253,2.175,.758,2.841c.506,.667,1.226,1,2.162,1s1.655-.333,2.156-1,.752-1.613,.752-2.841-.251-2.173-.752-2.835c-.501-.663-1.22-.994-2.156-.994Z"/>
    </g>
    <g>
      <path class="cls-4" d="M821.796,350.87h-3.515v5.952h-3.437v-16.554h7.21c1.662,0,2.987,.427,3.976,1.28s1.482,2.175,1.482,3.964c0,1.954-.494,3.335-1.482,4.144s-2.399,1.213-4.234,1.213Zm1.617-3.448c.449-.397,.674-1.026,.674-1.887s-.227-1.475-.68-1.842c-.453-.367-1.087-.55-1.903-.55h-3.223v4.874h3.223c.816,0,1.453-.198,1.909-.595Z"/>
      <path class="cls-4" d="M830.308,345.906c.846-1.078,2.298-1.617,4.357-1.617,1.34,0,2.531,.266,3.571,.797s1.561,1.535,1.561,3.01v5.615c0,.389,.007,.861,.022,1.415,.022,.419,.086,.704,.191,.854s.262,.273,.472,.371v.472h-3.481c-.097-.247-.165-.479-.202-.696s-.067-.464-.09-.741c-.442,.479-.951,.887-1.527,1.224-.689,.397-1.467,.595-2.336,.595-1.108,0-2.023-.316-2.746-.949-.722-.632-1.083-1.529-1.083-2.689,0-1.505,.58-2.594,1.741-3.268,.636-.367,1.572-.629,2.808-.786l1.089-.135c.591-.075,1.015-.168,1.269-.281,.457-.195,.685-.498,.685-.91,0-.501-.174-.848-.522-1.039-.349-.191-.859-.287-1.533-.287-.756,0-1.292,.187-1.606,.562-.225,.277-.375,.651-.449,1.123h-3.088c.067-1.071,.367-1.95,.898-2.639Zm2.381,8.603c.299,.247,.667,.371,1.101,.371,.689,0,1.323-.202,1.903-.606,.581-.404,.882-1.142,.904-2.212v-1.19c-.202,.127-.406,.23-.612,.309-.206,.079-.488,.152-.848,.219l-.719,.135c-.674,.12-1.157,.266-1.449,.438-.494,.292-.741,.745-.741,1.359,0,.546,.153,.939,.46,1.179Z"/>
      <path class="cls-4" d="M848.794,347.535c-1.288,0-2.152,.419-2.594,1.258-.247,.472-.371,1.198-.371,2.179v5.851h-3.223v-12.241h3.055v2.134c.494-.816,.925-1.374,1.292-1.673,.599-.501,1.377-.752,2.336-.752,.06,0,.11,.002,.152,.006,.041,.003,.133,.009,.275,.017v3.279c-.202-.022-.382-.038-.539-.045s-.285-.011-.382-.011Z"/>
      <path class="cls-4" d="M857.194,354.542v2.392l-1.516,.056c-1.512,.052-2.545-.209-3.1-.786-.359-.367-.539-.932-.539-1.696v-7.536h-1.707v-2.28h1.707v-3.414h3.167v3.414h1.988v2.28h-1.988v6.469c0,.501,.063,.814,.191,.938,.127,.123,.517,.185,1.168,.185,.097,0,.2-.002,.309-.005,.109-.004,.215-.01,.32-.017Z"/>
      <path class="cls-4" d="M865.011,346.951c-1.085,0-1.831,.46-2.235,1.381-.209,.487-.314,1.108-.314,1.864v6.626h-3.189v-12.219h3.088v1.786c.412-.629,.801-1.082,1.168-1.359,.659-.494,1.494-.741,2.504-.741,1.265,0,2.3,.331,3.105,.994,.805,.662,1.208,1.761,1.208,3.296v8.243h-3.279v-7.446c0-.644-.086-1.138-.258-1.482-.314-.629-.914-.943-1.797-.943Z"/>
      <path class="cls-4" d="M883.777,353.228c-.083,.726-.46,1.464-1.134,2.212-1.048,1.19-2.516,1.786-4.402,1.786-1.557,0-2.931-.501-4.122-1.505s-1.786-2.635-1.786-4.896c0-2.119,.537-3.744,1.612-4.874,1.074-1.13,2.469-1.696,4.183-1.696,1.018,0,1.936,.191,2.751,.573s1.49,.984,2.021,1.808c.479,.726,.79,1.568,.932,2.527,.083,.562,.116,1.37,.101,2.426h-8.378c.045,1.228,.431,2.089,1.157,2.583,.442,.307,.973,.46,1.595,.46,.659,0,1.194-.187,1.606-.562,.225-.202,.423-.483,.595-.842h3.268Zm-3.167-3.751c-.052-.846-.309-1.488-.77-1.926-.46-.438-1.031-.657-1.712-.657-.741,0-1.316,.232-1.724,.696-.408,.464-.664,1.093-.769,1.887h4.975Z"/>
      <path class="cls-4" d="M892.245,347.535c-1.288,0-2.152,.419-2.594,1.258-.247,.472-.371,1.198-.371,2.179v5.851h-3.223v-12.241h3.055v2.134c.494-.816,.925-1.374,1.292-1.673,.599-.501,1.377-.752,2.336-.752,.06,0,.11,.002,.152,.006,.041,.003,.133,.009,.275,.017v3.279c-.202-.022-.382-.038-.539-.045s-.285-.011-.382-.011Z"/>
      <path class="cls-4" d="M819.892,373.331h-3.571v6.491h-3.38v-16.554h8.12c1.161,.022,2.053,.165,2.679,.427,.625,.262,1.155,.647,1.589,1.157,.359,.419,.644,.883,.854,1.393s.314,1.089,.314,1.741c0,.786-.198,1.559-.595,2.319-.397,.76-1.052,1.297-1.965,1.611,.764,.307,1.305,.743,1.623,1.309,.318,.565,.477,1.428,.477,2.588v1.112c0,.756,.03,1.269,.09,1.539,.09,.427,.299,.741,.629,.943v.416h-3.807c-.105-.367-.18-.663-.225-.887-.09-.464-.139-.939-.146-1.426l-.022-1.539c-.015-1.056-.208-1.759-.579-2.111-.37-.352-1.065-.528-2.083-.528Zm2.1-3.01c.689-.314,1.033-.936,1.033-1.864,0-1.003-.333-1.677-1-2.021-.375-.195-.936-.292-1.685-.292h-4.021v4.447h3.919c.779,0,1.363-.09,1.752-.27Z"/>
      <path class="cls-4" d="M839.422,369.131c1.033,1.295,1.55,2.826,1.55,4.593,0,1.797-.517,3.333-1.55,4.61-1.033,1.277-2.602,1.915-4.706,1.915s-3.672-.638-4.706-1.915c-1.033-1.276-1.55-2.813-1.55-4.61,0-1.767,.517-3.298,1.55-4.593s2.602-1.943,4.706-1.943,3.672,.647,4.706,1.943Zm-4.717,.764c-.936,0-1.656,.331-2.162,.994-.505,.662-.758,1.607-.758,2.835s.253,2.175,.758,2.841c.506,.667,1.226,1,2.162,1s1.655-.333,2.156-1,.752-1.613,.752-2.841-.251-2.173-.752-2.835c-.501-.663-1.22-.994-2.156-.994Z"/>
      <path class="cls-4" d="M853.472,369.131c1.033,1.295,1.55,2.826,1.55,4.593,0,1.797-.517,3.333-1.55,4.61-1.033,1.277-2.602,1.915-4.706,1.915s-3.672-.638-4.706-1.915c-1.033-1.276-1.55-2.813-1.55-4.61,0-1.767,.517-3.298,1.55-4.593s2.602-1.943,4.706-1.943,3.672,.647,4.706,1.943Zm-4.717,.764c-.936,0-1.656,.331-2.162,.994-.505,.662-.758,1.607-.758,2.835s.253,2.175,.758,2.841c.506,.667,1.226,1,2.162,1s1.655-.333,2.156-1,.752-1.613,.752-2.841-.251-2.173-.752-2.835c-.501-.663-1.22-.994-2.156-.994Z"/>
      <path class="cls-4" d="M864.185,370.95c-.27-.591-.797-.887-1.583-.887-.914,0-1.527,.296-1.842,.887-.172,.337-.258,.838-.258,1.505v7.367h-3.246v-12.219h3.111v1.786c.397-.636,.771-1.089,1.123-1.359,.622-.479,1.426-.719,2.415-.719,.936,0,1.692,.206,2.269,.618,.464,.382,.816,.872,1.056,1.471,.419-.719,.939-1.247,1.561-1.583,.659-.337,1.393-.505,2.201-.505,.539,0,1.071,.105,1.595,.314s1,.577,1.426,1.101c.344,.427,.577,.951,.696,1.572,.075,.412,.112,1.015,.112,1.808l-.022,7.715h-3.279v-7.794c0-.464-.075-.846-.225-1.146-.285-.569-.809-.854-1.572-.854-.883,0-1.494,.367-1.831,1.101-.172,.389-.258,.857-.258,1.404v7.289h-3.223v-7.289c0-.726-.075-1.254-.225-1.583Z"/>
      <path class="cls-4" d="M891.363,379.822h-3.279v-11.23h-3.83v-2.179c1.011-.045,1.718-.112,2.123-.202,.644-.142,1.168-.427,1.572-.854,.277-.292,.487-.681,.629-1.168,.083-.292,.124-.509,.124-.651h2.662v16.284Z"/>
    </g>
    <g>
      <path class="cls-4" d="M1072.302,350.87h-3.516v5.952h-3.437v-16.554h7.21c1.662,0,2.987,.427,3.976,1.28s1.482,2.175,1.482,3.964c0,1.954-.494,3.335-1.482,4.144s-2.399,1.213-4.233,1.213Zm1.617-3.448c.449-.397,.674-1.026,.674-1.887s-.227-1.475-.68-1.842-1.088-.55-1.903-.55h-3.224v4.874h3.224c.815,0,1.452-.198,1.909-.595Z"/>
      <path class="cls-4" d="M1080.815,345.906c.846-1.078,2.298-1.617,4.357-1.617,1.34,0,2.53,.266,3.571,.797,1.04,.532,1.561,1.535,1.561,3.01v5.615c0,.389,.008,.861,.022,1.415,.022,.419,.086,.704,.191,.854,.104,.15,.262,.273,.472,.371v.472h-3.481c-.098-.247-.165-.479-.202-.696-.038-.217-.067-.464-.09-.741-.442,.479-.951,.887-1.527,1.224-.689,.397-1.468,.595-2.336,.595-1.108,0-2.023-.316-2.746-.949-.723-.632-1.084-1.529-1.084-2.689,0-1.505,.58-2.594,1.741-3.268,.636-.367,1.572-.629,2.808-.786l1.089-.135c.592-.075,1.015-.168,1.27-.281,.456-.195,.685-.498,.685-.91,0-.501-.174-.848-.521-1.039-.349-.191-.859-.287-1.533-.287-.757,0-1.292,.187-1.606,.562-.225,.277-.374,.651-.449,1.123h-3.088c.067-1.071,.366-1.95,.898-2.639Zm2.381,8.603c.299,.247,.666,.371,1.101,.371,.688,0,1.323-.202,1.903-.606s.882-1.142,.904-2.212v-1.19c-.202,.127-.406,.23-.612,.309-.206,.079-.488,.152-.848,.219l-.719,.135c-.674,.12-1.157,.266-1.449,.438-.494,.292-.741,.745-.741,1.359,0,.546,.153,.939,.461,1.179Z"/>
      <path class="cls-4" d="M1099.3,347.535c-1.288,0-2.152,.419-2.595,1.258-.247,.472-.37,1.198-.37,2.179v5.851h-3.224v-12.241h3.055v2.134c.494-.816,.925-1.374,1.292-1.673,.599-.501,1.377-.752,2.336-.752,.06,0,.11,.002,.151,.006,.041,.003,.133,.009,.275,.017v3.279c-.202-.022-.382-.038-.539-.045s-.285-.011-.382-.011Z"/>
      <path class="cls-4" d="M1107.701,354.542v2.392l-1.517,.056c-1.512,.052-2.545-.209-3.1-.786-.359-.367-.539-.932-.539-1.696v-7.536h-1.707v-2.28h1.707v-3.414h3.167v3.414h1.988v2.28h-1.988v6.469c0,.501,.063,.814,.191,.938,.127,.123,.517,.185,1.168,.185,.097,0,.2-.002,.309-.005,.108-.004,.215-.01,.32-.017Z"/>
      <path class="cls-4" d="M1115.517,346.951c-1.086,0-1.831,.46-2.235,1.381-.209,.487-.314,1.108-.314,1.864v6.626h-3.189v-12.219h3.089v1.786c.411-.629,.801-1.082,1.168-1.359,.658-.494,1.493-.741,2.504-.741,1.266,0,2.301,.331,3.105,.994,.805,.662,1.207,1.761,1.207,3.296v8.243h-3.279v-7.446c0-.644-.086-1.138-.258-1.482-.314-.629-.914-.943-1.797-.943Z"/>
      <path class="cls-4" d="M1134.283,353.228c-.082,.726-.46,1.464-1.134,2.212-1.049,1.19-2.516,1.786-4.402,1.786-1.558,0-2.932-.501-4.122-1.505s-1.785-2.635-1.785-4.896c0-2.119,.537-3.744,1.611-4.874s2.469-1.696,4.184-1.696c1.018,0,1.936,.191,2.751,.573,.816,.382,1.49,.984,2.021,1.808,.479,.726,.79,1.568,.933,2.527,.082,.562,.116,1.37,.101,2.426h-8.378c.045,1.228,.431,2.089,1.157,2.583,.441,.307,.973,.46,1.595,.46,.658,0,1.194-.187,1.605-.562,.225-.202,.423-.483,.596-.842h3.268Zm-3.167-3.751c-.052-.846-.309-1.488-.77-1.926-.46-.438-1.031-.657-1.712-.657-.741,0-1.316,.232-1.725,.696-.407,.464-.664,1.093-.769,1.887h4.975Z"/>
      <path class="cls-4" d="M1142.75,347.535c-1.287,0-2.152,.419-2.594,1.258-.247,.472-.371,1.198-.371,2.179v5.851h-3.223v-12.241h3.055v2.134c.494-.816,.925-1.374,1.291-1.673,.6-.501,1.378-.752,2.336-.752,.061,0,.11,.002,.152,.006,.041,.003,.133,.009,.274,.017v3.279c-.202-.022-.382-.038-.539-.045s-.284-.011-.382-.011Z"/>
      <path class="cls-4" d="M1070.399,373.331h-3.571v6.491h-3.381v-16.554h8.12c1.16,.022,2.053,.165,2.679,.427,.625,.262,1.154,.647,1.589,1.157,.359,.419,.644,.883,.854,1.393,.209,.509,.314,1.089,.314,1.741,0,.786-.198,1.559-.596,2.319-.396,.76-1.052,1.297-1.965,1.611,.764,.307,1.305,.743,1.623,1.309,.317,.565,.477,1.428,.477,2.588v1.112c0,.756,.03,1.269,.09,1.539,.09,.427,.3,.741,.629,.943v.416h-3.807c-.105-.367-.18-.663-.225-.887-.09-.464-.139-.939-.146-1.426l-.022-1.539c-.015-1.056-.207-1.759-.578-2.111-.37-.352-1.065-.528-2.083-.528Zm2.1-3.01c.689-.314,1.033-.936,1.033-1.864,0-1.003-.333-1.677-.999-2.021-.375-.195-.937-.292-1.685-.292h-4.021v4.447h3.919c.779,0,1.363-.09,1.752-.27Z"/>
      <path class="cls-4" d="M1089.928,369.131c1.033,1.295,1.55,2.826,1.55,4.593,0,1.797-.517,3.333-1.55,4.61-1.033,1.277-2.602,1.915-4.705,1.915s-3.673-.638-4.706-1.915c-1.033-1.276-1.55-2.813-1.55-4.61,0-1.767,.517-3.298,1.55-4.593s2.602-1.943,4.706-1.943,3.672,.647,4.705,1.943Zm-4.717,.764c-.936,0-1.656,.331-2.162,.994-.505,.662-.758,1.607-.758,2.835s.253,2.175,.758,2.841c.506,.667,1.227,1,2.162,1s1.655-.333,2.156-1c.502-.667,.753-1.613,.753-2.841s-.251-2.173-.753-2.835c-.501-.663-1.22-.994-2.156-.994Z"/>
      <path class="cls-4" d="M1103.978,369.131c1.033,1.295,1.55,2.826,1.55,4.593,0,1.797-.517,3.333-1.55,4.61-1.033,1.277-2.602,1.915-4.706,1.915s-3.672-.638-4.705-1.915c-1.033-1.276-1.55-2.813-1.55-4.61,0-1.767,.517-3.298,1.55-4.593s2.602-1.943,4.705-1.943,3.673,.647,4.706,1.943Zm-4.717,.764c-.937,0-1.656,.331-2.162,.994-.505,.662-.758,1.607-.758,2.835s.253,2.175,.758,2.841c.506,.667,1.226,1,2.162,1s1.654-.333,2.156-1c.501-.667,.752-1.613,.752-2.841s-.251-2.173-.752-2.835c-.502-.663-1.221-.994-2.156-.994Z"/>
      <path class="cls-4" d="M1114.692,370.95c-.27-.591-.798-.887-1.584-.887-.913,0-1.527,.296-1.842,.887-.172,.337-.258,.838-.258,1.505v7.367h-3.246v-12.219h3.111v1.786c.396-.636,.771-1.089,1.123-1.359,.621-.479,1.426-.719,2.414-.719,.937,0,1.692,.206,2.269,.618,.465,.382,.816,.872,1.056,1.471,.42-.719,.939-1.247,1.562-1.583,.658-.337,1.393-.505,2.201-.505,.539,0,1.07,.105,1.595,.314,.523,.209,.999,.577,1.426,1.101,.345,.427,.577,.951,.696,1.572,.075,.412,.112,1.015,.112,1.808l-.022,7.715h-3.279v-7.794c0-.464-.074-.846-.225-1.146-.284-.569-.809-.854-1.572-.854-.883,0-1.493,.367-1.83,1.101-.173,.389-.259,.857-.259,1.404v7.289h-3.223v-7.289c0-.726-.075-1.254-.225-1.583Z"/>
      <path class="cls-4" d="M1141.162,366.851c-.382-.457-.928-.685-1.64-.685-.973,0-1.636,.363-1.987,1.089-.202,.419-.322,1.085-.359,1.999h-3.111c.053-1.385,.304-2.504,.753-3.358,.854-1.625,2.369-2.437,4.548-2.437,1.723,0,3.093,.477,4.11,1.432,1.019,.954,1.527,2.218,1.527,3.79,0,1.206-.359,2.276-1.078,3.212-.472,.622-1.246,1.314-2.324,2.078l-1.28,.91c-.802,.569-1.35,.981-1.646,1.235s-.545,.55-.747,.887h7.109v2.819h-11.152c.03-1.168,.281-2.235,.753-3.201,.456-1.085,1.534-2.235,3.234-3.448,1.475-1.056,2.43-1.812,2.863-2.269,.667-.711,1-1.49,1-2.336,0-.689-.191-1.262-.573-1.718Z"/>
    </g>
  </g>
  <g id="outline">
    <polygon class="cls-21" points="13.374 924.188 13.374 1415.088 287.336 1415.088 287.336 1360.543 1208.393 1360.543 1208.393 254.779 493.117 254.779 493.117 474.196 406.342 474.196 406.342 798.984 129.901 798.984 129.901 922.948 13.374 924.188"/>
    <polyline class="cls-19" points="129.901 922.948 285.513 922.948 285.513 1053.178 300.3 1053.178 285.513 1053.178 285.513 1360.543"/>
    <line class="cls-19" x1="13.374" y1="1070.078" x2="203.83" y2="1070.078"/>
    <line class="cls-19" x1="268.613" y1="1070.078" x2="285.513" y2="1070.078"/>
    <line class="cls-19" x1="285.513" y1="982.058" x2="13.374" y2="982.058"/>
    <line class="cls-19" x1="319.312" y1="1234.852" x2="285.513" y2="1234.852"/>
    <polyline class="cls-19" points="386.912 1234.852 412.262 1234.852 412.262 1197.531 412.262 1234.852 541.827 1234.852 541.827 1360.543 541.827 1141.746 412.262 1141.746 412.262 1151.056 412.262 1141.746 610.878 1141.746"/>
    <polyline class="cls-19" points="675.618 1141.746 767.159 1141.746 714.347 1141.746 714.347 1131.34 714.347 1360.543"/>
    <polyline class="cls-19" points="831.942 1141.746 879.825 1141.746 879.825 1360.543"/>
    <polyline class="cls-19" points="712.235 1028.532 712.235 1065.149 712.235 1053.178 377.054 1053.178"/>
    <polyline class="cls-19" points="712.235 963.749 712.235 808.13 498.169 808.13 498.169 796.159"/>
    <polyline class="cls-19" points="498.169 726.447 498.169 553.927 498.169 565.194 712.235 565.194 712.235 808.13 712.235 254.779"/>
    <line class="cls-19" x1="498.169" y1="489.849" x2="498.169" y2="254.779"/>
    <polyline class="cls-19" points="922.075 458.865 712.235 458.865 817.155 458.865 817.155 510.973"/>
    <polyline class="cls-19" points="817.155 565.194 817.155 632.089 817.155 581.39 712.235 581.39"/>
    <polyline class="cls-19" points="984.745 458.865 1013.616 458.865 999.181 458.865 999.181 254.779"/>
    <line class="cls-19" x1="1072.765" y1="458.865" x2="1208.393" y2="458.865"/>
    <polyline class="cls-19" points="817.155 675.043 817.155 691.239 712.235 691.239"/>
  </g>
  <g id="icons">
    <g id="reception">
      <circle class="cls-1" cx="611.784" cy="916.411" r="23.8"/>
      <g>
        <path class="cls-12" d="M587.184,953.911v-7.8h3.5c.5,0,1.1,.1,1.6,.2,.4,.1,.7,.4,.9,.7,.2,.4,.3,.8,.3,1.2,0,.5-.2,1-.5,1.4-.5,.4-1.1,.7-1.7,.7,.2,.1,.4,.2,.6,.4,.3,.3,.6,.6,.9,1l1.4,2.1h-1.3l-1-1.6c-.3-.3-.5-.7-.7-1.1-.1-.3-.4-.4-.5-.5s-.3-.2-.5-.2h-1.8v3.5h-1.2Zm1.1-4.4h2.2c.4,0,.7,0,1.1-.1,.3-.1,.5-.3,.6-.5s.2-.5,.2-.7c0-.4-.1-.7-.4-.9-.4-.3-.8-.4-1.3-.4h-2.5l.1,2.6h0Z"/>
        <path class="cls-12" d="M598.884,952.011l1,.1c-.1,.6-.5,1-.9,1.4-1.1,.8-2.6,.6-3.6-.3-.9-1.3-.9-3.1,0-4.4,1-1,2.7-1.1,3.8,0h0c.5,.6,.8,1.4,.7,2.2v.3h-4.2c0,.5,.2,1,.5,1.4,.3,.3,.7,.5,1.2,.5,.3,0,.7-.1,.9-.3,.3-.1,.5-.4,.6-.9Zm-3.1-1.5h3.2c0-.4-.1-.8-.4-1.1-.3-.4-.7-.6-1.2-.6-.4,0-.8,.1-1.1,.4-.3,.3-.5,.8-.5,1.3Z"/>
        <path class="cls-12" d="M604.784,951.811l.9,.1c-.1,.6-.3,1.1-.8,1.5-.4,.4-1,.6-1.6,.6-.7,0-1.4-.3-1.9-.8-.5-.6-.8-1.4-.7-2.2,0-.5,.1-1.1,.3-1.6,.2-.4,.5-.8,.9-1s.9-.3,1.4-.3,1.1,.2,1.5,.5c.4,.4,.7,.8,.8,1.3l-.9,.1c0-.4-.2-.7-.5-.9-.2-.2-.5-.3-.8-.3-.5,0-.9,.2-1.2,.5-.4,.5-.6,1.1-.5,1.7-.1,.6,.1,1.2,.4,1.7,.3,.3,.7,.5,1.1,.5,.3,0,.7-.1,.9-.3,.4-.2,.7-.6,.7-1.1Z"/>
        <path class="cls-12" d="M610.484,952.011l1,.1c-.1,.6-.5,1-.9,1.4-1.1,.8-2.6,.6-3.6-.3-.9-1.3-.9-3.1,0-4.4,1-1,2.7-1.1,3.8,0h0c.5,.6,.8,1.4,.7,2.2v.3h-4.2c0,.5,.2,1,.5,1.4,.3,.3,.7,.5,1.2,.5,.3,0,.7-.1,.9-.3,.3-.2,.5-.5,.6-.9Zm-3.2-1.5h3.2c0-.4-.1-.8-.4-1.1-.3-.4-.7-.6-1.2-.6-.4,0-.8,.1-1.1,.4-.3,.4-.4,.8-.5,1.3Z"/>
        <path class="cls-12" d="M612.684,956.111v-7.9h.9v.7c.2-.3,.4-.5,.7-.7,.3-.1,.6-.2,.9-.2,.5,0,.9,.1,1.3,.4,.4,.2,.7,.6,.8,1.1,.2,.5,.3,1,.3,1.5s-.1,1.1-.3,1.6c-.2,.4-.5,.8-.9,1.1s-.8,.4-1.3,.4c-.3,0-.6-.1-.9-.2-.3-.1-.5-.3-.6-.5v2.8l-.9-.1h0Zm.9-5c-.1,.6,.1,1.1,.4,1.6,.5,.6,1.5,.7,2.1,.1l.1-.1c.4-.5,.6-1.1,.5-1.7,.1-.6-.1-1.1-.4-1.6-.3-.3-.7-.5-1.1-.5s-.9,.2-1.1,.6c-.4,.3-.5,.8-.5,1.6Z"/>
        <path class="cls-12" d="M620.884,953.011l.1,.9c-.2,.1-.5,.1-.7,.1-.3,0-.6-.1-.8-.2-.2-.1-.3-.3-.4-.4-.1-.4-.1-.7-.1-1.1v-3.4h-.7v-.7h.7v-1.4l1-.6v2h1v.7h-1v3.3c0,.3,0,.5,.1,.5,0,.1,.1,.1,.2,.2,.1,0,.2,.1,.3,.1,0,.1,.1,0,.3,0Z"/>
        <path class="cls-12" d="M621.784,947.111v-1.1h1v1.1h-1Zm0,6.8v-5.7h1v5.7h-1Z"/>
        <path class="cls-12" d="M623.884,951.011c-.1-.9,.3-1.7,.9-2.3,.5-.4,1.1-.6,1.8-.6s1.4,.3,1.9,.8c.5,.6,.8,1.3,.7,2.1,0,.6-.1,1.2-.3,1.7-.2,.4-.6,.8-1,1s-.9,.3-1.4,.3c-.7,0-1.4-.3-1.9-.8-.5-.6-.7-1.4-.7-2.2Zm1,0c0,.6,.1,1.1,.5,1.6,.3,.4,.7,.6,1.2,.5,.5,0,.9-.2,1.2-.5,.4-.5,.5-1.1,.5-1.7s-.2-1.1-.5-1.6c-.3-.4-.7-.6-1.2-.5-.5,0-.9,.2-1.2,.5-.3,.5-.5,1.1-.5,1.7Z"/>
        <path class="cls-12" d="M630.384,953.911v-5.7h.9v.8c.4-.6,1.1-.9,1.8-.9,.3,0,.6,.1,.9,.2,.3,.1,.5,.3,.6,.5s.2,.5,.3,.7c0,.2,.1,.5,.1,.9v3.5h-1v-3.5c0-.3,0-.6-.1-.9-.1-.2-.2-.4-.4-.5s-.5-.2-.7-.2c-.4,0-.8,.1-1.1,.4-.3,.4-.5,1-.4,1.5v3.1h-.9v.1h0Z"/>
      </g>
      <g id="Outline_Icons-2" data-name="Outline Icons-2">
        <path class="cls-14" d="M606.584,912.811c-2.041,0-3.7-1.66-3.7-3.7s1.66-3.7,3.7-3.7,3.7,1.66,3.7,3.7-1.66,3.7-3.7,3.7Zm0-6.4c-1.489,0-2.7,1.211-2.7,2.7s1.211,2.7,2.7,2.7,2.7-1.211,2.7-2.7-1.211-2.7-2.7-2.7Z"/>
        <path class="cls-14" d="M608.884,927.411h-4.6v-6.135c-2.261-1.598-3.51-4.401-3.197-7.22l.049-.445h10.896l.049,.445c.312,2.808-.909,5.511-3.197,7.121v6.235Zm-3.6-1h2.6v-5.771l.227-.148c1.991-1.298,3.118-3.521,3.011-5.881h-9.076c-.108,2.387,1.043,4.698,3.011,5.981l.227,.148v5.671Z"/>
        <rect class="cls-14" x="610.984" y="917.211" width="11.1" height="1"/>
        <path class="cls-14" d="M617.084,912.311c-1.544,0-2.8-1.256-2.8-2.8s1.256-2.8,2.8-2.8,2.8,1.256,2.8,2.8-1.256,2.8-2.8,2.8Zm0-4.6c-.992,0-1.8,.808-1.8,1.8s.808,1.8,1.8,1.8,1.8-.808,1.8-1.8-.808-1.8-1.8-1.8Z"/>
        <path class="cls-14" d="M621.684,917.711h-1c0-2.019-1.582-3.6-3.6-3.6s-3.6,1.581-3.6,3.6h-1c0-2.579,2.021-4.6,4.6-4.6s4.6,2.021,4.6,4.6Z"/>
      </g>
    </g>
    <g>
      <path class="cls-11" d="M812.689,731.379c.734,.981,1.102,2.237,1.102,3.766,0,1.655-.42,3.032-1.26,4.128-.986,1.288-2.393,1.932-4.219,1.932-1.706,0-3.047-.563-4.023-1.691-.87-1.086-1.305-2.46-1.305-4.121,0-1.499,.372-2.782,1.117-3.849,.956-1.368,2.37-2.053,4.242-2.053,1.957,0,3.406,.629,4.347,1.887Zm-1.325,7.067c.591-.949,.887-2.041,.887-3.274,0-1.304-.341-2.354-1.022-3.15-.682-.795-1.614-1.193-2.796-1.193-1.147,0-2.083,.394-2.808,1.182s-1.086,1.95-1.086,3.486c0,1.229,.311,2.265,.932,3.108,.622,.843,1.629,1.265,3.023,1.265,1.323,0,2.28-.475,2.872-1.424Z"/>
      <path class="cls-11" d="M815.285,732.836h1.329v1.072c.272-.367,.57-.651,.893-.853,.459-.302,.999-.453,1.62-.453,.918,0,1.697,.351,2.338,1.053,.641,.702,.961,1.705,.961,3.008,0,1.761-.462,3.019-1.386,3.773-.586,.478-1.268,.717-2.046,.717-.611,0-1.124-.133-1.538-.4-.243-.151-.513-.41-.811-.777v4.128h-1.359v-11.268Zm5.111,6.336c.421-.531,.632-1.325,.632-2.381,0-.644-.093-1.198-.28-1.661-.354-.891-1-1.336-1.938-1.336-.944,0-1.59,.471-1.939,1.412-.187,.503-.28,1.142-.28,1.917,0,.624,.094,1.155,.28,1.592,.354,.835,1,1.253,1.939,1.253,.636,0,1.165-.266,1.586-.796Z"/>
      <path class="cls-11" d="M828.987,733.021c.535,.269,.943,.618,1.223,1.045,.27,.407,.45,.883,.54,1.426,.08,.373,.12,.966,.12,1.781h-5.879c.025,.822,.217,1.482,.576,1.979,.36,.497,.917,.746,1.67,.746,.704,0,1.266-.235,1.685-.705,.234-.273,.401-.589,.499-.948h1.336c-.035,.297-.152,.627-.351,.992-.199,.365-.421,.663-.666,.895-.409,.402-.916,.674-1.521,.815-.324,.081-.691,.121-1.101,.121-1,0-1.847-.366-2.542-1.098-.695-.732-1.042-1.757-1.042-3.075,0-1.298,.35-2.352,1.05-3.162s1.615-1.215,2.745-1.215c.57,0,1.123,.135,1.658,.404Zm.487,3.174c-.055-.589-.182-1.059-.382-1.412-.369-.654-.985-.981-1.849-.981-.619,0-1.137,.225-1.557,.675-.419,.45-.641,1.023-.666,1.717h4.453Z"/>
      <path class="cls-11" d="M832.59,732.798h1.291v1.147c.382-.473,.788-.812,1.215-1.019s.903-.31,1.426-.31c1.147,0,1.922,.4,2.325,1.2,.221,.438,.332,1.064,.332,1.879v5.185h-1.381v-5.094c0-.493-.073-.891-.219-1.192-.242-.503-.679-.755-1.313-.755-.322,0-.586,.033-.792,.098-.373,.111-.7,.332-.981,.664-.226,.267-.374,.542-.441,.827s-.102,.69-.102,1.219v4.234h-1.358v-8.083Z"/>
      <path class="cls-11" d="M846.643,737.304c.034,.629,.177,1.14,.429,1.532,.48,.735,1.326,1.102,2.537,1.102,.543,0,1.037-.081,1.483-.242,.863-.312,1.294-.87,1.294-1.675,0-.604-.183-1.034-.548-1.291-.371-.251-.951-.47-1.74-.657l-1.455-.339c-.951-.222-1.624-.465-2.018-.732-.683-.463-1.023-1.154-1.023-2.075,0-.996,.335-1.814,1.006-2.453,.671-.639,1.621-.958,2.85-.958,1.131,0,2.092,.28,2.883,.841,.791,.561,1.186,1.458,1.186,2.69h-1.411c-.073-.594-.227-1.049-.463-1.366-.439-.579-1.184-.868-2.236-.868-.849,0-1.459,.186-1.831,.559-.372,.373-.557,.805-.557,1.298,0,.543,.219,.941,.658,1.192,.288,.161,.938,.362,1.952,.604l1.506,.354c.727,.171,1.287,.405,1.682,.702,.683,.518,1.023,1.271,1.023,2.256,0,1.228-.435,2.106-1.306,2.634s-1.883,.792-3.036,.792c-1.345,0-2.397-.353-3.158-1.057-.761-.699-1.134-1.648-1.119-2.845h1.412Z"/>
      <path class="cls-11" d="M855.677,732.836h1.329v1.072c.272-.367,.57-.651,.893-.853,.459-.302,.999-.453,1.62-.453,.918,0,1.697,.351,2.338,1.053,.641,.702,.961,1.705,.961,3.008,0,1.761-.462,3.019-1.386,3.773-.586,.478-1.268,.717-2.046,.717-.611,0-1.124-.133-1.538-.4-.243-.151-.513-.41-.811-.777v4.128h-1.359v-11.268Zm5.111,6.336c.421-.531,.632-1.325,.632-2.381,0-.644-.093-1.198-.28-1.661-.354-.891-1-1.336-1.938-1.336-.944,0-1.59,.471-1.939,1.412-.187,.503-.28,1.142-.28,1.917,0,.624,.094,1.155,.28,1.592,.354,.835,1,1.253,1.939,1.253,.636,0,1.165-.266,1.586-.796Z"/>
      <path class="cls-11" d="M868.719,735.99c.312-.04,.521-.171,.626-.392,.061-.121,.091-.295,.091-.522,0-.465-.165-.802-.494-1.012-.329-.209-.799-.314-1.412-.314-.708,0-1.21,.192-1.506,.576-.166,.212-.273,.529-.324,.948h-1.268c.025-.999,.348-1.694,.969-2.085,.621-.391,1.34-.586,2.16-.586,.95,0,1.721,.181,2.314,.543,.588,.362,.882,.926,.882,1.691v4.657c0,.141,.029,.254,.086,.339,.058,.085,.18,.128,.366,.128,.061,0,.128-.003,.204-.011,.076-.007,.156-.019,.242-.034v1.003c-.211,.061-.373,.098-.483,.113-.111,.015-.262,.022-.453,.022-.468,0-.808-.166-1.019-.498-.111-.176-.189-.425-.234-.747-.276,.362-.674,.676-1.192,.943-.518,.267-1.089,.4-1.713,.4-.75,0-1.362-.227-1.838-.682-.476-.455-.713-1.023-.713-1.707,0-.749,.234-1.329,.702-1.741s1.082-.666,1.841-.762l2.167-.271Zm-2.861,3.67c.287,.226,.626,.339,1.019,.339,.478,0,.941-.111,1.389-.332,.755-.367,1.132-.967,1.132-1.801v-1.092c-.166,.106-.379,.194-.64,.265-.261,.07-.517,.121-.768,.151l-.821,.105c-.492,.065-.862,.168-1.11,.309-.42,.236-.63,.612-.63,1.129,0,.392,.144,.7,.43,.926Z"/>
      <path class="cls-11" d="M878.322,733.228c.571,.443,.914,1.205,1.03,2.287h-1.321c-.081-.498-.264-.912-.551-1.241-.287-.33-.747-.495-1.381-.495-.866,0-1.484,.422-1.857,1.267-.241,.548-.362,1.224-.362,2.028,0,.809,.171,1.49,.513,2.042,.342,.553,.88,.829,1.615,.829,.563,0,1.01-.171,1.34-.515s.557-.813,.683-1.41h1.321c-.151,1.072-.528,1.855-1.132,2.351-.604,.496-1.376,.743-2.317,.743-1.057,0-1.899-.386-2.528-1.158-.629-.772-.943-1.737-.943-2.895,0-1.419,.345-2.523,1.034-3.313,.689-.79,1.567-1.185,2.634-1.185,.911,0,1.651,.222,2.223,.664Z"/>
      <path class="cls-11" d="M885.703,733.021c.535,.269,.943,.618,1.223,1.045,.27,.407,.45,.883,.54,1.426,.08,.373,.12,.966,.12,1.781h-5.879c.025,.822,.217,1.482,.576,1.979,.36,.497,.917,.746,1.67,.746,.704,0,1.266-.235,1.685-.705,.234-.273,.401-.589,.499-.948h1.336c-.035,.297-.152,.627-.351,.992-.199,.365-.421,.663-.666,.895-.409,.402-.916,.674-1.521,.815-.324,.081-.691,.121-1.101,.121-1,0-1.847-.366-2.542-1.098-.695-.732-1.042-1.757-1.042-3.075,0-1.298,.35-2.352,1.05-3.162s1.615-1.215,2.745-1.215c.57,0,1.123,.135,1.658,.404Zm.487,3.174c-.055-.589-.182-1.059-.382-1.412-.369-.654-.985-.981-1.849-.981-.619,0-1.137,.225-1.557,.675-.419,.45-.641,1.023-.666,1.717h4.453Z"/>
    </g>
    <g>
      <path class="cls-11" d="M770.191,1250.444h1.517v11.088h-1.517v-11.088Z"/>
      <path class="cls-11" d="M782.206,1250.444v1.321h-3.736v9.767h-1.517v-9.767h-3.736v-1.321h8.989Z"/>
      <path class="cls-11" d="M787.79,1250.444h5.04c.83,0,1.514,.124,2.053,.371,1.023,.473,1.534,1.346,1.534,2.618,0,.664-.137,1.208-.411,1.63-.274,.423-.658,.763-1.151,1.02,.433,.176,.759,.407,.978,.693,.219,.287,.341,.753,.366,1.396l.053,1.487c.015,.423,.05,.737,.105,.943,.091,.353,.251,.579,.483,.679v.25h-1.841c-.05-.096-.09-.219-.121-.37s-.056-.442-.076-.876l-.09-1.849c-.034-.725-.296-1.21-.785-1.456-.279-.137-.716-.205-1.312-.205h-3.322v4.756h-1.502v-11.088Zm4.878,5.08c.685,0,1.227-.141,1.626-.423,.398-.282,.598-.79,.598-1.524,0-.79-.279-1.328-.837-1.615-.298-.15-.697-.227-1.196-.227h-3.567v3.789h3.376Z"/>
      <path class="cls-11" d="M804.447,1254.254c.715,.694,1.072,1.715,1.072,3.062,0,1.302-.315,2.377-.944,3.227s-1.606,1.274-2.93,1.274c-1.104,0-1.981-.376-2.63-1.127s-.974-1.761-.974-3.028c0-1.356,.342-2.438,1.026-3.242,.685-.804,1.604-1.206,2.758-1.206,1.034,0,1.908,.347,2.623,1.04Zm-.843,5.373c.331-.682,.496-1.439,.496-2.273,0-.754-.119-1.367-.358-1.839-.378-.744-1.03-1.116-1.955-1.116-.821,0-1.418,.316-1.791,.95-.374,.634-.56,1.397-.56,2.292,0,.859,.187,1.574,.56,2.148,.373,.572,.965,.859,1.776,.859,.891,0,1.501-.342,1.832-1.021Z"/>
      <path class="cls-11" d="M813.043,1254.254c.715,.694,1.072,1.715,1.072,3.062,0,1.302-.315,2.377-.944,3.227s-1.606,1.274-2.93,1.274c-1.104,0-1.981-.376-2.63-1.127s-.974-1.761-.974-3.028c0-1.356,.342-2.438,1.026-3.242,.685-.804,1.604-1.206,2.758-1.206,1.034,0,1.908,.347,2.623,1.04Zm-.843,5.373c.331-.682,.496-1.439,.496-2.273,0-.754-.119-1.367-.358-1.839-.378-.744-1.03-1.116-1.955-1.116-.821,0-1.418,.316-1.791,.95-.374,.634-.56,1.397-.56,2.292,0,.859,.187,1.574,.56,2.148,.373,.572,.965,.859,1.776,.859,.891,0,1.501-.342,1.832-1.021Z"/>
      <path class="cls-11" d="M815.783,1253.448h1.344v1.147c.322-.397,.614-.687,.875-.868,.448-.307,.956-.46,1.525-.46,.644,0,1.162,.159,1.555,.476,.221,.182,.422,.447,.604,.8,.302-.433,.657-.753,1.064-.962,.407-.209,.865-.313,1.374-.313,1.086,0,1.826,.393,2.219,1.177,.211,.424,.317,.992,.317,1.707v5.381h-1.411v-5.615c0-.539-.135-.908-.404-1.109-.27-.201-.598-.303-.985-.303-.534,0-.993,.18-1.377,.536-.385,.357-.578,.954-.578,1.789v4.702h-1.381v-5.275c0-.549-.065-.949-.196-1.201-.207-.377-.591-.565-1.155-.565-.513,0-.98,.198-1.4,.597-.42,.396-.63,1.117-.63,2.158v4.287h-1.358v-8.084Z"/>
    </g>
    <circle class="cls-2" cx="149.443" cy="1266.742" r="20.8"/>
    <rect class="cls-14" x="140.743" y="1273.529" width="15.9" height=".826"/>
    <polygon class="cls-14" points="154.257 1273.942 153.43 1273.942 153.43 1271.555 150.63 1271.555 150.63 1268.755 147.829 1268.755 147.829 1265.954 145.13 1265.954 145.13 1263.255 140.743 1263.255 140.743 1262.429 145.957 1262.429 145.957 1265.128 148.657 1265.128 148.657 1267.929 151.457 1267.929 151.457 1270.729 154.257 1270.729 154.257 1273.942"/>
    <rect class="cls-14" x="152.83" y="1256.361" width=".827" height="12.162" transform="translate(-847.819 478.148) rotate(-45.002)"/>
    <polygon class="cls-14" points="149.357 1261.442 148.53 1261.442 148.53 1257.729 152.443 1257.729 152.443 1258.555 149.357 1258.555 149.357 1261.442"/>
    <polygon class="cls-14" points="157.957 1267.155 154.043 1267.155 154.043 1266.328 157.13 1266.328 157.13 1263.342 157.957 1263.342 157.957 1267.155"/>
    <g>
      <path class="cls-11" d="M137.406,1297.566c.025,.454,.128,.822,.31,1.105,.346,.529,.956,.794,1.83,.794,.392,0,.748-.058,1.07-.174,.622-.225,.933-.628,.933-1.208,0-.436-.132-.746-.396-.932-.267-.181-.686-.339-1.255-.473l-1.049-.245c-.686-.16-1.171-.336-1.456-.528-.492-.334-.738-.833-.738-1.497,0-.719,.242-1.308,.726-1.769s1.169-.691,2.055-.691c.816,0,1.509,.202,2.08,.606,.57,.405,.855,1.052,.855,1.94h-1.018c-.052-.428-.164-.756-.334-.985-.317-.417-.854-.626-1.613-.626-.612,0-1.052,.135-1.32,.403s-.402,.58-.402,.937c0,.392,.158,.679,.475,.859,.208,.116,.677,.262,1.408,.436l1.086,.256c.524,.124,.928,.292,1.213,.507,.492,.373,.738,.916,.738,1.627,0,.886-.314,1.519-.942,1.9-.628,.381-1.358,.571-2.19,.571-.97,0-1.729-.254-2.277-.762-.549-.505-.818-1.188-.807-2.053h1.018Z"/>
      <path class="cls-11" d="M144.2,1292.689h.991v1.627h.931v.801h-.931v3.805c0,.203,.069,.34,.207,.408,.076,.04,.203,.06,.381,.06,.047,0,.098,0,.152-.003,.055-.003,.118-.009,.19-.019v.778c-.112,.033-.229,.057-.351,.071s-.253,.021-.395,.021c-.458,0-.768-.117-.931-.352-.164-.233-.245-.537-.245-.911v-3.859h-.79v-.801h.79v-1.627Z"/>
      <path class="cls-11" d="M150.226,1296.618c.225-.028,.375-.123,.452-.282,.043-.088,.065-.213,.065-.377,0-.335-.119-.578-.356-.729s-.577-.227-1.019-.227c-.511,0-.873,.139-1.086,.415-.12,.153-.197,.382-.234,.685h-.915c.019-.721,.251-1.223,.699-1.504,.448-.282,.967-.424,1.558-.424,.685,0,1.242,.131,1.669,.393,.424,.261,.636,.668,.636,1.219v3.359c0,.102,.021,.184,.062,.245,.042,.062,.129,.092,.264,.092,.043,0,.092-.003,.147-.008,.054-.006,.112-.014,.174-.024v.724c-.152,.044-.269,.071-.348,.082-.08,.011-.189,.016-.327,.016-.337,0-.583-.119-.735-.358-.08-.127-.136-.307-.169-.539-.2,.261-.486,.488-.86,.681-.374,.191-.786,.288-1.236,.288-.541,0-.982-.164-1.325-.492-.343-.328-.515-.738-.515-1.231,0-.54,.169-.959,.506-1.256s.78-.48,1.328-.549l1.562-.196Zm-2.063,2.647c.207,.163,.452,.244,.735,.244,.345,0,.679-.08,1.002-.239,.544-.265,.816-.697,.816-1.299v-.788c-.12,.076-.273,.141-.462,.191-.188,.051-.373,.087-.554,.109l-.592,.076c-.355,.047-.622,.121-.801,.223-.303,.17-.455,.441-.455,.814,0,.282,.104,.505,.31,.668Z"/>
      <path class="cls-11" d="M153.302,1292.15h.996v1.11h-.996v-1.11Zm0,2.193h.996v5.803h-.996v-5.803Z"/>
      <path class="cls-11" d="M155.805,1294.316h.931v1.008c.076-.196,.263-.435,.561-.716,.297-.281,.641-.422,1.029-.422,.018,0,.049,.002,.092,.005,.044,.004,.118,.011,.224,.021v1.035c-.058-.012-.112-.019-.161-.022-.049-.003-.103-.005-.161-.005-.494,0-.873,.158-1.138,.476-.265,.318-.397,.684-.397,1.098v3.353h-.98v-5.83Z"/>
      <path class="cls-11" d="M160.073,1298.317c.03,.327,.113,.577,.25,.752,.252,.315,.689,.474,1.312,.474,.37,0,.696-.079,.978-.237,.282-.158,.422-.401,.422-.732,0-.25-.112-.44-.337-.571-.144-.08-.428-.172-.852-.277l-.791-.196c-.505-.123-.878-.261-1.118-.414-.428-.265-.642-.631-.642-1.099,0-.552,.202-.998,.604-1.34,.403-.341,.944-.512,1.625-.512,.89,0,1.532,.258,1.925,.773,.247,.326,.366,.679,.359,1.056h-.925c-.019-.22-.099-.42-.24-.601-.23-.256-.63-.385-1.198-.385-.379,0-.666,.071-.861,.212-.195,.141-.292,.327-.292,.559,0,.253,.128,.456,.385,.607,.147,.091,.366,.17,.654,.239l.66,.157c.717,.171,1.198,.336,1.442,.496,.381,.25,.571,.644,.571,1.181,0,.52-.199,.968-.598,1.345-.399,.378-1.006,.566-1.822,.566-.878,0-1.5-.197-1.865-.591s-.562-.881-.587-1.462h.941Z"/>
    </g>
    <circle class="cls-3" cx="474.571" cy="1182.387" r="20.8"/>
    <g id="Outline_Icons-5-3" data-name="Outline Icons-5-3">
      <path class="cls-13" d="M481.613,1183.779h-4.425v-8.867c0-1.066,.819-1.934,1.825-1.934h1.733c1.066,0,1.934,.818,1.934,1.825v.108l-.325,7.916c-.004,.331-.292,.951-.742,.951Zm-3.808-.617h3.808c.015-.029,.125-.25,.125-.342v-.013s.325-7.908,.325-7.908v-.096c0-.666-.591-1.208-1.317-1.208h-1.733c-.666,0-1.208,.591-1.208,1.316v8.25Z"/>
      <path class="cls-13" d="M479.321,1191.687h-8.452l.433-4.01c-2.208-.126-3.768-1.938-3.647-4.224l.016-.292h13.926v2.093l-2.275,1.625v4.808Zm-7.765-.617h7.147v-4.509l2.275-1.625v-1.157h-12.712c.018,.817,.297,1.581,.798,2.173,.565,.668,1.373,1.062,2.272,1.11h.652s-.433,4.008-.433,4.008Z"/>
      <path class="cls-13" d="M477.696,1184.104h-10.8v-2.242h10.8v2.242Zm-10.183-.617h9.566v-1.008h-9.566v1.008Z"/>
      <path class="cls-13" d="M480.204,1177.062c-.528,0-.958-.431-.958-.959s.43-.958,.958-.958,.958,.43,.958,.958-.43,.959-.958,.959Zm0-1.3c-.188,0-.341,.153-.341,.341,0,.188,.153,.342,.341,.342s.341-.153,.341-.342c0-.188-.153-.341-.341-.341Z"/>
    </g>
    <g>
      <path class="cls-11" d="M465.136,1207.418l1.507,6.496,1.808-6.496h1.171l1.812,6.509,1.508-6.509h1.188l-2.101,7.996h-1.138l-1.846-6.63-1.856,6.63h-1.138l-2.09-7.996h1.176Z"/>
      <path class="cls-11" d="M480.783,1208c.552,.534,.859,1.14,.92,1.818h-1.056c-.118-.516-.352-.924-.703-1.225-.351-.302-.844-.452-1.479-.452-.773,0-1.398,.277-1.874,.831s-.713,1.403-.713,2.547c0,.938,.214,1.697,.644,2.28s1.07,.874,1.922,.874c.784,0,1.381-.307,1.792-.92,.217-.323,.379-.747,.486-1.273h1.056c-.093,.842-.402,1.548-.925,2.117-.628,.686-1.475,1.029-2.54,1.029-.918,0-1.689-.281-2.313-.845-.821-.744-1.232-1.894-1.232-3.448,0-1.18,.309-2.147,.926-2.903,.667-.82,1.587-1.23,2.76-1.23,1,0,1.777,.267,2.33,.8Z"/>
    </g>
    <circle class="cls-3" cx="628.284" cy="1242.583" r="20.817"/>
    <path class="cls-13" d="M632.681,1252.107l-7.006-.022c-3.598-1.462-5.941-4.979-5.831-8.751l.009-.298,18.823-.112v.311c0,3.911-2.331,7.385-5.939,8.851l-.056,.022Zm-6.829-.617h6.708c3.247-1.344,5.375-4.435,5.494-7.945l-17.596,.104c.024,3.384,2.159,6.502,5.394,7.841Z"/>
    <path class="cls-13" d="M625.557,1241.699h-.309c-3.033,0-5.502-2.416-5.621-5.501v-1.621s.308,0,.308,0c3.033,0,5.502,2.416,5.621,5.501v1.621Zm-5.312-6.495v.982c.102,2.635,2.138,4.729,4.695,4.886v-.982c-.102-2.635-2.138-4.729-4.695-4.886Z"/>
    <path class="cls-13" d="M632.729,1241.265c-1.784,0-3.236-1.451-3.236-3.235h.617c0,1.443,1.175,2.618,2.619,2.618v.617Z"/>
    <path class="cls-13" d="M637.158,1241.282h-.617c0-1.551-1.254-2.844-2.854-2.944l-.221-.014-.058-.213c-.596-2.187-2.767-3.444-5.055-2.925l-.177,.008c-.797,.185-1.501,.654-2.026,1.389l-.502-.359c.607-.85,1.458-1.416,2.461-1.639l.175-.008c2.475-.573,4.895,.78,5.657,3.165,1.82,.22,3.216,1.735,3.216,3.54Z"/>
    <g>
      <path class="cls-11" d="M610.727,1268.198h1.056v3.914l4-3.914h1.514l-3.417,3.228,3.487,4.769h-1.417l-2.865-4.018-1.303,1.23v2.787h-1.056v-7.996Z"/>
      <path class="cls-11" d="M618.033,1268.198h.996v1.11h-.996v-1.11Zm0,2.193h.996v5.803h-.996v-5.803Z"/>
      <path class="cls-11" d="M620.705,1268.737h.991v1.627h.931v.801h-.931v3.805c0,.203,.069,.34,.207,.408,.076,.04,.203,.06,.381,.06,.047,0,.098,0,.152-.003,.055-.003,.118-.009,.19-.019v.778c-.112,.033-.229,.057-.351,.071s-.253,.021-.395,.021c-.458,0-.768-.117-.931-.352-.164-.233-.245-.537-.245-.911v-3.859h-.79v-.801h.79v-1.627Z"/>
      <path class="cls-11" d="M627.458,1270.674c.412,.319,.66,.869,.743,1.649h-.953c-.058-.359-.19-.657-.397-.896-.207-.237-.539-.356-.996-.356-.625,0-1.071,.305-1.339,.913-.174,.396-.261,.883-.261,1.463,0,.584,.124,1.074,.37,1.474,.247,.398,.635,.598,1.165,.598,.406,0,.729-.124,.966-.371,.237-.248,.402-.587,.493-1.017h.953c-.109,.772-.381,1.338-.817,1.695-.435,.357-.992,.536-1.671,.536-.762,0-1.37-.278-1.824-.836-.454-.557-.68-1.252-.68-2.087,0-1.023,.249-1.82,.746-2.39,.497-.57,1.13-.854,1.9-.854,.657,0,1.191,.159,1.603,.479Z"/>
      <path class="cls-11" d="M629.181,1268.17h.979v2.983c.232-.294,.441-.501,.626-.621,.316-.207,.709-.311,1.181-.311,.846,0,1.419,.296,1.72,.888,.164,.323,.245,.771,.245,1.345v3.739h-1.007v-3.674c0-.429-.055-.742-.164-.942-.178-.319-.512-.479-1.001-.479-.407,0-.775,.14-1.105,.419-.331,.279-.496,.808-.496,1.584v3.092h-.979v-8.023Z"/>
      <path class="cls-11" d="M638.982,1270.525c.386,.194,.68,.445,.882,.754,.195,.294,.325,.637,.39,1.028,.058,.269,.087,.697,.087,1.285h-4.241c.018,.593,.157,1.069,.416,1.428s.661,.537,1.204,.537c.508,0,.913-.17,1.215-.509,.169-.196,.29-.425,.36-.684h.963c-.025,.215-.11,.453-.253,.716-.144,.264-.303,.479-.479,.646-.295,.29-.661,.486-1.097,.588-.234,.058-.499,.087-.794,.087-.721,0-1.333-.264-1.834-.792-.501-.528-.751-1.268-.751-2.218,0-.937,.252-1.697,.757-2.281s1.165-.876,1.98-.876c.411,0,.81,.097,1.195,.291Zm.351,2.289c-.04-.425-.131-.764-.275-1.019-.266-.472-.71-.707-1.333-.707-.446,0-.82,.162-1.123,.487-.303,.324-.463,.737-.48,1.238h3.211Z"/>
      <path class="cls-11" d="M641.581,1270.364h.931v.828c.276-.342,.568-.586,.876-.735,.308-.148,.651-.223,1.029-.223,.827,0,1.386,.288,1.676,.865,.16,.315,.24,.768,.24,1.355v3.739h-.996v-3.674c0-.355-.053-.643-.158-.86-.174-.363-.49-.544-.947-.544-.232,0-.423,.023-.572,.07-.269,.08-.504,.239-.708,.479-.164,.192-.27,.391-.318,.596-.049,.205-.074,.498-.074,.879v3.054h-.979v-5.83Z"/>
    </g>
  </g>
</svg>