<?xml version="1.0" encoding="utf-8"?>
<!-- Generator: Adobe Illustrator 24.2.3, SVG Export Plug-In . SVG Version: 6.00 Build 0)  -->
<svg version="1.1" id="Layer_1" xmlns="http://www.w3.org/2000/svg" xmlns:xlink="http://www.w3.org/1999/xlink" x="0px" y="0px"
	 viewBox="0 0 1126.9 490.9" style="enable-background:new 0 0 1126.9 490.9;" xml:space="preserve">
<style type="text/css">
	.st0{fill:#4196B1;}
	.st1{fill:#AAE0E4;}
	.st2{fill:#99B8BF;}
	.st3{fill:#8ECCCE;}
	.st4{fill:#F8FAFB;}
	.st5{opacity:0.15;fill:#020202;enable-background:new    ;}
	.st6{fill:#596069;}
	.st7{fill:#9BAEB8;}
	.st8{fill:none;stroke:#7A8F94;stroke-width:0.568;stroke-linecap:round;stroke-miterlimit:10;}
	.st9{fill:none;stroke:#7A8F94;stroke-width:0.561;stroke-linecap:round;stroke-miterlimit:10;}
	.st10{opacity:5.000000e-02;fill:#040404;enable-background:new    ;}
	.st11{fill:#B8BFC1;}
	.st12{fill:#FFFFFF;}
	.st13{opacity:0.1;fill:#040404;enable-background:new    ;}
	.st14{fill:#9BAEB8;stroke:#93A6AD;stroke-width:0.25;stroke-miterlimit:10;}
	.st15{fill:#7A8F94;stroke:#75868A;stroke-width:0.25;stroke-miterlimit:10;}
	.st16{fill:#9BAEB8;stroke:#93A6AD;stroke-width:0.257;stroke-miterlimit:10;}
	.st17{fill:#7A8F94;stroke:#75868A;stroke-width:0.256;stroke-miterlimit:10;}
	.st18{fill:#7A8F94;}
	.st19{opacity:0.65;fill:#575757;enable-background:new    ;}
	.st20{fill:none;stroke:#EBF1F2;stroke-width:6;stroke-miterlimit:10;}
	.st21{fill:none;stroke:#EBF1F2;stroke-width:3;stroke-miterlimit:10;}
	.st22{fill:#767E80;}
	.st23{font-family:'ArialMT';}
	.st24{font-size:7.733px;}
	.st25{letter-spacing:-1;}
	.st26{fill:#EBF1F2;}
	.st27{fill:none;stroke:#7A8E93;stroke-width:0.827;stroke-miterlimit:10;}
	.st28{font-size:7.603px;}
	.st29{font-size:7.327px;}
	.st30{fill:#EBF2F2;}
	.st31{fill:#7A8E93;stroke:#7A8E93;stroke-width:0.15;stroke-miterlimit:10;}
	.st32{font-family:'Arial-BoldMT';}
	.st33{font-size:10px;}
</style>
<g id="shadow">
	<g id="background_1_">
		<polygon class="st0" points="16.5,26.2 16.5,445.5 46,445.5 46,480.5 291.8,480.5 291.8,468 309,468 309,480.5 554.9,480.5 
			554.9,468.7 572.1,468.7 572.1,480.5 817.3,480.5 817.3,468.7 834.3,468.7 834.3,480.5 1080.6,480.5 1080.6,468 1101.7,468 
			1101.7,448.5 1111.3,448.5 1111.3,205.3 1100.9,205.3 1100.9,185.8 1111.3,185.8 1111.3,26.2 		"/>
	</g>
</g>
<g id="background">
	<polygon class="st1" points="21.1,23.9 21.1,437.9 50.1,437.9 50.1,472.4 292.8,472.4 292.8,460 309.8,460 309.8,472.4 
		552.6,472.4 552.6,460.8 569.6,460.8 569.6,472.4 811.7,472.4 811.7,460.8 828.5,460.8 828.5,472.4 1071.7,472.4 1071.7,460 
		1092.5,460 1092.5,440.8 1102,440.8 1102,200.7 1091.7,200.7 1091.7,181.4 1102,181.4 1102,23.9 	"/>
</g>
<g id="spaces">
	<polygon class="st2" points="21.1,22.8 21.1,240.4 250.7,240.4 250.7,134.6 295.3,134.6 295.3,91 372.6,91 372.6,199.9 
		590.7,199.9 590.7,118.3 634.8,118.3 676.4,74.8 702.1,100.7 1102,100.7 1102,20.8 	"/>
	<g id="coloured_rooms-2">
		<rect x="312" y="239.6" class="st3" width="569.8" height="92.6"/>
	</g>
	<rect x="21.1" y="240.1" class="st3" width="163.4" height="121.7"/>
	<rect x="184.4" y="239.6" class="st3" width="74.8" height="92.6"/>
	<rect x="734.9" y="100.7" class="st3" width="96.1" height="98.5"/>
	<rect x="396.8" y="37.4" class="st3" width="134.4" height="74.7"/>
	<rect x="294.5" y="91" class="st3" width="78.1" height="108.9"/>
	<polygon class="st3" points="21.1,361.8 216.9,361.8 216.9,469.8 50.1,469.8 50.1,434.8 21.1,434.8 	"/>
	<polygon class="st3" points="950.3,237.6 1102,237.6 1102,439.8 1092.5,439.8 1092.5,459 1071.7,459 1071.7,471.3 950.3,471.3 	"/>
	<rect x="440.1" y="199.2" class="st2" width="150.7" height="40.4"/>
</g>
<g id="furniature">
	<path class="st4" d="M732.3,434.5l0.1-34.2l0,0l-17-0.1l0,0l-0.1,32c0,1.2,0.9,2.1,2,2.1L732.3,434.5z"/>
	<g id="Layer_83_copy-24-2">
		<path class="st5" d="M713.6,413.4v3.5l0,0c0,2.6-2,4.8-4.7,4.8h-0.2l-3.4-0.2c-3.4-0.3-5.9-3.1-5.8-6.5l0,0
			c-0.1-3.4,2.5-6.2,5.9-6.4l3.3-0.2l0,0c2.6-0.1,4.8,1.9,4.8,4.5c0,0,0,0,0,0v0.1l0,0C713.6,413.2,713.6,413.3,713.6,413.4z"/>
		<path class="st6" d="M713.4,413.9v3.5l0,0c0,2.6-2,4.8-4.7,4.8h-0.2l-3.4-0.2c-3.4-0.3-5.9-3.1-5.8-6.5l0,0
			c-0.1-3.4,2.5-6.2,5.9-6.4l3.3-0.2l0,0c2.6-0.1,4.8,1.9,4.8,4.5c0,0,0,0,0,0v0.1l0,0C713.3,413.7,713.4,413.8,713.4,413.9z"/>
		<path class="st7" d="M713.8,415v3.5c0,2.6-2,4.8-4.7,4.8c0,0,0,0,0,0h-0.2l-3.4-0.2c-3.4-0.3-5.9-3.1-5.8-6.5l0,0
			c-0.1-3.4,2.5-6.2,5.9-6.4l3.3-0.2l0,0c2.6-0.1,4.8,1.9,4.8,4.5c0,0,0,0,0,0v0.1l0,0C713.8,414.8,713.9,414.9,713.8,415z"/>
		<path class="st8" d="M709.6,423.5l-4-0.3c-3.4-0.3-5.9-3.1-5.8-6.5l0,0c-0.1-3.4,2.5-6.2,5.9-6.4l4-0.3"/>
	</g>
	<path class="st4" d="M736.5,361.6l-0.1,34.2l0,0l17,0.1l0,0l0.1-32c0-1.2-0.9-2.1-2-2.1L736.5,361.6z"/>
	<g id="Layer_83_copy-24-3">
		<path class="st5" d="M755.2,382.7v-3.5l0,0c0-2.6,2-4.8,4.7-4.8c0,0,0,0,0,0h0.2l3.4,0.2c3.4,0.3,5.9,3.1,5.8,6.5l0,0
			c0.1,3.4-2.5,6.2-5.9,6.4l-3.3,0.2l0,0c-2.6,0.1-4.8-1.9-4.8-4.5v-0.1l0,0C755.2,382.9,755.2,382.8,755.2,382.7z"/>
		<path class="st6" d="M755.5,382.2v-3.5l0,0c0-2.6,2-4.8,4.7-4.8c0,0,0,0,0,0h0.2l3.4,0.2c3.4,0.3,5.9,3.1,5.8,6.5l0,0
			c0.1,3.4-2.5,6.2-5.9,6.4l-3.3,0.2l0,0c-2.6,0.1-4.8-1.9-4.8-4.5c0,0,0,0,0,0v-0.1l0,0C755.5,382.4,755.5,382.3,755.5,382.2z"/>
		<path class="st7" d="M755,381.1v-3.5c0-2.6,2-4.8,4.7-4.8c0,0,0,0,0,0h0.2l3.4,0.2c3.4,0.3,5.9,3.1,5.8,6.5l0,0
			c0.1,3.4-2.5,6.2-5.9,6.4l-3.3,0.2l0,0c-2.6,0.1-4.8-1.9-4.8-4.5v-0.1l0,0C755.1,381.3,755,381.2,755,381.1z"/>
		<path class="st8" d="M759.2,372.7l4,0.3c3.4,0.3,5.9,3.1,5.8,6.5l0,0c0.1,3.4-2.5,6.2-5.9,6.4l-4,0.3"/>
	</g>
	<path class="st4" d="M717.2,361.7c-1.2,0-2.1,1-2,2.1l0.1,32l0,0l17-0.1l0,0l-0.1-34.2L717.2,361.7z"/>
	<g id="Layer_83_copy-24-4">
		<path class="st5" d="M713.5,383L713.5,383c-0.1,2.6-2.2,4.6-4.8,4.6h-0.1l-3.3-0.2c-3.3-0.2-5.9-3-5.9-6.4l0,0
			c-0.1-3.4,2.5-6.2,5.8-6.5l3.4-0.2h0.2c2.6,0.1,4.7,2.2,4.7,4.8l0,0v3.5C713.5,382.8,713.5,382.9,713.5,383z"/>
		<path class="st6" d="M713.3,382.5L713.3,382.5c-0.1,2.6-2.2,4.6-4.8,4.6h-0.1l-3.3-0.2c-3.3-0.2-5.9-3-5.9-6.4l0,0
			c-0.1-3.4,2.5-6.2,5.8-6.5l3.4-0.2h0.2c2.6,0.1,4.7,2.2,4.7,4.8l0,0v3.5C713.3,382.3,713.3,382.4,713.3,382.5z"/>
		<path class="st7" d="M713.7,381.3L713.7,381.3c-0.1,2.6-2.2,4.6-4.8,4.6h-0.1l-3.3-0.2c-3.3-0.2-5.9-3-5.9-6.4l0,0
			c-0.1-3.4,2.5-6.2,5.8-6.5l3.4-0.2h0.2c2.6,0.1,4.7,2.2,4.7,4.8v3.5C713.7,381.2,713.7,381.3,713.7,381.3z"/>
		<path class="st8" d="M709.5,386.1l-4-0.3c-3.3-0.2-5.9-3-5.9-6.4l0,0c-0.1-3.4,2.5-6.2,5.8-6.5l4-0.3"/>
	</g>
	<path class="st4" d="M751.5,434.4c1.2,0,2.1-1,2-2.1l-0.1-32l0,0l-17,0.1l0,0l0.1,34.2L751.5,434.4z"/>
	<g id="Layer_83_copy-24-5">
		<path class="st5" d="M755.2,413.2L755.2,413.2c0.1-2.6,2.2-4.6,4.8-4.6h0.1l3.3,0.2c3.3,0.2,5.9,3,5.9,6.4l0,0
			c0.1,3.4-2.5,6.2-5.8,6.5l-3.4,0.2h-0.2c-2.6-0.1-4.7-2.2-4.7-4.8l0,0v-3.5C755.1,413.4,755.1,413.3,755.2,413.2z"/>
		<path class="st6" d="M755.4,413.6L755.4,413.6c0.1-2.6,2.2-4.6,4.8-4.6h0.1l3.3,0.2c3.3,0.2,5.9,3,5.9,6.4l0,0
			c0.1,3.4-2.5,6.2-5.8,6.5l-3.4,0.2H760c-2.6-0.1-4.7-2.2-4.7-4.8l0,0v-3.5C755.4,413.8,755.4,413.7,755.4,413.6z"/>
		<path class="st7" d="M755,414.8L755,414.8c0.1-2.6,2.2-4.6,4.8-4.6h0.1l3.3,0.2c3.3,0.2,5.9,3,5.9,6.4l0,0
			c0.1,3.4-2.5,6.2-5.8,6.5l-3.4,0.2h-0.2c-2.6-0.1-4.7-2.2-4.7-4.8V415C755,415,755,414.9,755,414.8z"/>
		<path class="st8" d="M759.1,410l4,0.3c3.3,0.2,5.9,3,5.9,6.4l0,0c0.1,3.4-2.5,6.2-5.8,6.5l-4,0.3"/>
	</g>
	<path class="st4" d="M621.2,434.5l0.1-34.2l0,0l-17-0.1l0,0l-0.1,32c0,1.2,0.9,2.1,2,2.1L621.2,434.5z"/>
	<g id="Layer_83_copy-24-2-2">
		<path class="st5" d="M602.5,413.4v3.5l0,0c0,2.6-2,4.8-4.7,4.8c0,0,0,0,0,0h-0.2l-3.4-0.2c-3.4-0.3-5.9-3.1-5.8-6.5l0,0
			c-0.1-3.4,2.5-6.2,5.9-6.4l3.3-0.2l0,0c2.6-0.1,4.8,1.9,4.8,4.5v0.1l0,0C602.5,413.2,602.5,413.3,602.5,413.4z"/>
		<path class="st6" d="M602.2,413.9v3.5l0,0c0,2.6-2,4.8-4.7,4.8h-0.3l-3.4-0.2c-3.4-0.3-5.9-3.1-5.8-6.5l0,0
			c-0.1-3.4,2.5-6.2,5.9-6.4l3.3-0.2l0,0c2.6-0.1,4.8,1.9,4.8,4.5c0,0,0,0,0,0v0.1l0,0C602.2,413.7,602.2,413.8,602.2,413.9z"/>
		<path class="st7" d="M602.7,415v3.5c0,2.6-2,4.8-4.7,4.8h-0.2l-3.4-0.2c-3.4-0.3-5.9-3.1-5.8-6.5l0,0c-0.1-3.4,2.5-6.2,5.9-6.4
			l3.3-0.2l0,0c2.6-0.1,4.8,1.9,4.8,4.5v0.1l0,0C602.7,414.8,602.7,414.9,602.7,415z"/>
		<path class="st8" d="M598.5,423.5l-4-0.3c-3.4-0.3-5.9-3.1-5.8-6.5l0,0c-0.1-3.4,2.5-6.2,5.9-6.4l4-0.3"/>
	</g>
	<path class="st4" d="M625.4,361.6l-0.1,34.2l0,0l17,0.1l0,0l0.1-32c0-1.2-0.9-2.1-2-2.1L625.4,361.6z"/>
	<g id="Layer_83_copy-24-3-2">
		<path class="st5" d="M644.1,382.7v-3.5l0,0c0-2.6,2-4.8,4.7-4.8h0.2l3.4,0.2c3.4,0.3,5.9,3.1,5.8,6.5l0,0c0.1,3.4-2.5,6.2-5.9,6.4
			l-3.3,0.2l0,0c-2.6,0.1-4.8-1.9-4.8-4.5v-0.1l0,0C644.1,382.9,644.1,382.8,644.1,382.7z"/>
		<path class="st6" d="M644.3,382.2v-3.5l0,0c0-2.6,2-4.8,4.7-4.8h0.2l3.4,0.2c3.4,0.3,5.9,3.1,5.8,6.5l0,0c0.1,3.4-2.5,6.2-5.9,6.4
			l-3.3,0.2l0,0c-2.6,0.1-4.8-1.9-4.8-4.5v-0.1l0,0C644.4,382.4,644.3,382.3,644.3,382.2z"/>
		<path class="st7" d="M643.9,381.1v-3.5c0-2.6,2-4.8,4.7-4.8c0,0,0,0,0,0h0.2l3.4,0.2c3.4,0.3,5.9,3.1,5.8,6.5l0,0
			c0.1,3.4-2.5,6.2-5.9,6.4l-3.3,0.2l0,0c-2.6,0.1-4.8-1.9-4.8-4.5v-0.1l0,0C643.9,381.3,643.9,381.2,643.9,381.1z"/>
		<path class="st8" d="M648.1,372.7l4,0.3c3.4,0.3,5.9,3.1,5.8,6.5l0,0c0.1,3.4-2.5,6.2-5.9,6.4l-4,0.3"/>
	</g>
	<path class="st4" d="M606.1,361.7c-1.2,0-2.1,1-2,2.1l0.1,32l0,0l17-0.1l0,0l-0.1-34.2L606.1,361.7z"/>
	<g id="Layer_83_copy-24-4-2">
		<path class="st5" d="M602.4,383L602.4,383c-0.1,2.6-2.2,4.6-4.8,4.6h-0.1l-3.3-0.2c-3.3-0.2-5.9-3-5.9-6.4l0,0
			c-0.1-3.4,2.5-6.2,5.8-6.5l3.4-0.2h0.2c2.6,0.1,4.7,2.2,4.7,4.8l0,0v3.5C602.4,382.8,602.4,382.9,602.4,383z"/>
		<path class="st6" d="M602.1,382.5L602.1,382.5c-0.1,2.6-2.2,4.6-4.8,4.6h-0.1l-3.3-0.2c-3.3-0.2-5.9-3-5.9-6.4l0,0
			c-0.1-3.4,2.5-6.2,5.8-6.5l3.4-0.2h0.2c2.6,0.1,4.7,2.2,4.7,4.8l0,0v3.5C602.2,382.3,602.1,382.4,602.1,382.5z"/>
		<path class="st7" d="M602.5,381.3L602.5,381.3c-0.1,2.6-2.2,4.6-4.8,4.6h-0.1l-3.3-0.2c-3.3-0.2-5.9-3-5.9-6.4l0,0
			c-0.1-3.4,2.5-6.2,5.8-6.5l3.4-0.2h0.2c2.6,0.1,4.7,2.2,4.7,4.8v3.5C602.6,381.2,602.5,381.3,602.5,381.3z"/>
		<path class="st8" d="M598.4,386.1l-4-0.3c-3.3-0.2-5.9-3-5.9-6.4l0,0c-0.1-3.4,2.5-6.2,5.8-6.5l4-0.3"/>
	</g>
	<path class="st4" d="M640.3,434.4c1.2,0,2.1-1,2-2.1l-0.1-32l0,0l-17,0.1l0,0l0.1,34.2L640.3,434.4z"/>
	<g id="Layer_83_copy-24-5-2">
		<path class="st5" d="M644,413.2L644,413.2c0.1-2.6,2.2-4.6,4.8-4.6h0.1l3.3,0.2c3.3,0.2,5.9,3,5.9,6.4l0,0
			c0.1,3.4-2.5,6.2-5.8,6.5l-3.4,0.2h-0.2c-2.6-0.1-4.7-2.2-4.7-4.8l0,0v-3.5C644,413.4,644,413.3,644,413.2z"/>
		<path class="st6" d="M644.3,413.6L644.3,413.6c0.1-2.6,2.2-4.6,4.8-4.6h0.1l3.3,0.2c3.3,0.2,5.9,3,5.9,6.4l0,0
			c0.1,3.4-2.5,6.2-5.8,6.5l-3.4,0.2h-0.2c-2.6-0.1-4.7-2.2-4.7-4.8l0,0v-3.5C644.2,413.8,644.3,413.7,644.3,413.6z"/>
		<path class="st7" d="M643.9,414.8L643.9,414.8c0.1-2.6,2.2-4.6,4.8-4.6h0.1l3.3,0.2c3.3,0.2,5.9,3,5.9,6.4l0,0
			c0.1,3.4-2.5,6.2-5.8,6.5l-3.4,0.2h-0.2c-2.6-0.1-4.7-2.2-4.7-4.8V415C643.8,415,643.9,414.9,643.9,414.8z"/>
		<path class="st8" d="M648,410l4,0.3c3.3,0.2,5.9,3,5.9,6.4l0,0c0.1,3.4-2.5,6.2-5.8,6.5l-4,0.3"/>
	</g>
	<path class="st4" d="M495.1,434.5l0.1-34.2l0,0l-17-0.1l0,0l-0.1,32c0,1.2,0.9,2.1,2,2.1L495.1,434.5z"/>
	<g id="Layer_83_copy-24-2-3">
		<path class="st5" d="M476.4,413.4v3.5l0,0c0,2.6-2,4.8-4.7,4.8c0,0,0,0,0,0h-0.2l-3.4-0.2c-3.4-0.3-5.9-3.1-5.8-6.5l0,0
			c-0.1-3.4,2.5-6.2,5.9-6.4l3.3-0.2l0,0c2.6-0.1,4.8,1.9,4.8,4.5c0,0,0,0,0,0v0.1l0,0C476.4,413.2,476.4,413.3,476.4,413.4z"/>
		<path class="st6" d="M476.2,413.9v3.5l0,0c0,2.6-2,4.8-4.7,4.8h-0.2l-3.4-0.2c-3.4-0.3-5.9-3.1-5.8-6.5l0,0
			c-0.1-3.4,2.5-6.2,5.9-6.4l3.3-0.2l0,0c2.6-0.1,4.8,1.9,4.8,4.5c0,0,0,0,0,0v0.1l0,0C476.1,413.7,476.2,413.8,476.2,413.9z"/>
		<path class="st7" d="M476.6,415v3.5c0,2.6-2,4.8-4.7,4.8c0,0,0,0,0,0h-0.2l-3.4-0.2c-3.4-0.3-5.9-3.1-5.8-6.5l0,0
			c-0.1-3.4,2.5-6.2,5.9-6.4l3.3-0.2l0,0c2.6-0.1,4.8,1.9,4.8,4.5c0,0,0,0,0,0v0.1l0,0C476.6,414.8,476.7,414.9,476.6,415z"/>
		<path class="st8" d="M472.4,423.5l-4-0.3c-3.4-0.3-5.9-3.1-5.8-6.5l0,0c-0.1-3.4,2.5-6.2,5.9-6.4l4-0.3"/>
	</g>
	<path class="st4" d="M499.3,361.6l-0.1,34.2l0,0l17,0.1l0,0l0.1-32c0-1.2-0.9-2.1-2-2.1L499.3,361.6z"/>
	<g id="Layer_83_copy-24-3-3">
		<path class="st5" d="M518,382.7v-3.5l0,0c0-2.6,2-4.8,4.7-4.8c0,0,0,0,0,0h0.2l3.4,0.2c3.4,0.3,5.9,3.1,5.8,6.5l0,0
			c0.1,3.4-2.5,6.2-5.9,6.4l-3.3,0.2l0,0c-2.6,0.1-4.8-1.9-4.8-4.5v-0.1l0,0C518,382.9,518,382.8,518,382.7z"/>
		<path class="st6" d="M518.3,382.2v-3.5l0,0c0-2.6,2-4.8,4.7-4.8h0.2l3.4,0.2c3.4,0.3,5.9,3.1,5.8,6.5l0,0c0.1,3.4-2.5,6.2-5.9,6.4
			l-3.3,0.2l0,0c-2.6,0.1-4.8-1.9-4.8-4.5c0,0,0,0,0,0v-0.1l0,0C518.3,382.4,518.3,382.3,518.3,382.2z"/>
		<path class="st7" d="M517.8,381.1v-3.5c0-2.6,2-4.8,4.7-4.8c0,0,0,0,0,0h0.2l3.4,0.2c3.4,0.3,5.9,3.1,5.8,6.5l0,0
			c0.1,3.4-2.5,6.2-5.9,6.4l-3.3,0.2l0,0c-2.6,0.1-4.8-1.9-4.8-4.5v-0.1l0,0C517.9,381.3,517.8,381.2,517.8,381.1z"/>
		<path class="st8" d="M522,372.7l4,0.3c3.4,0.3,5.9,3.1,5.8,6.5l0,0c0.1,3.4-2.5,6.2-5.9,6.4l-4,0.3"/>
	</g>
	<path class="st4" d="M480,361.7c-1.2,0-2.1,1-2,2.1l0.1,32l0,0l17-0.1l0,0l-0.1-34.2L480,361.7z"/>
	<g id="Layer_83_copy-24-4-3">
		<path class="st5" d="M476.3,383L476.3,383c-0.1,2.6-2.2,4.6-4.8,4.6h-0.1l-3.3-0.2c-3.3-0.2-5.9-3-5.9-6.4l0,0
			c-0.1-3.4,2.5-6.2,5.8-6.5l3.4-0.2h0.2c2.6,0.1,4.7,2.2,4.7,4.8l0,0v3.5C476.3,382.8,476.3,382.9,476.3,383z"/>
		<path class="st6" d="M476.1,382.5L476.1,382.5c-0.1,2.6-2.2,4.6-4.8,4.6h-0.1l-3.3-0.2c-3.3-0.2-5.9-3-5.9-6.4l0,0
			c-0.1-3.4,2.5-6.2,5.8-6.5l3.4-0.2h0.2c2.6,0.1,4.7,2.2,4.7,4.8l0,0v3.5C476.1,382.3,476.1,382.4,476.1,382.5z"/>
		<path class="st7" d="M476.5,381.3L476.5,381.3c-0.1,2.6-2.2,4.6-4.8,4.6h-0.1l-3.3-0.2c-3.3-0.2-5.9-3-5.9-6.4l0,0
			c-0.1-3.4,2.5-6.2,5.8-6.5l3.4-0.2h0.2c2.6,0.1,4.7,2.2,4.7,4.8v3.5C476.5,381.2,476.5,381.3,476.5,381.3z"/>
		<path class="st8" d="M472.3,386.1l-4-0.3c-3.3-0.2-5.9-3-5.9-6.4l0,0c-0.1-3.4,2.5-6.2,5.8-6.5l4-0.3"/>
	</g>
	<path class="st4" d="M514.3,434.4c1.2,0,2.1-1,2-2.1l-0.1-32l0,0l-17,0.1l0,0l0.1,34.2L514.3,434.4z"/>
	<g id="Layer_83_copy-24-5-3">
		<path class="st5" d="M517.9,413.2L517.9,413.2c0.1-2.6,2.2-4.6,4.8-4.6h0.1l3.3,0.2c3.3,0.2,5.9,3,5.9,6.4l0,0
			c0.1,3.4-2.5,6.2-5.8,6.5l-3.4,0.2h-0.2c-2.6-0.1-4.7-2.2-4.7-4.8l0,0v-3.5C517.9,413.4,517.9,413.3,517.9,413.2z"/>
		<path class="st6" d="M518.2,413.6L518.2,413.6c0.1-2.6,2.2-4.6,4.8-4.6h0.1l3.3,0.2c3.3,0.2,5.9,3,5.9,6.4l0,0
			c0.1,3.4-2.5,6.2-5.8,6.5l-3.4,0.2h-0.2c-2.6-0.1-4.7-2.2-4.7-4.8l0,0v-3.5C518.2,413.8,518.2,413.7,518.2,413.6z"/>
		<path class="st7" d="M517.8,414.8L517.8,414.8c0.1-2.6,2.2-4.6,4.8-4.6h0.1l3.3,0.2c3.3,0.2,5.9,3,5.9,6.4l0,0
			c0.1,3.4-2.5,6.2-5.8,6.5l-3.4,0.2h-0.2c-2.6-0.1-4.7-2.2-4.7-4.8V415C517.8,415,517.8,414.9,517.8,414.8z"/>
		<path class="st8" d="M521.9,410l4,0.3c3.3,0.2,5.9,3,5.9,6.4l0,0c0.1,3.4-2.5,6.2-5.8,6.5l-4,0.3"/>
	</g>
	<path class="st4" d="M383.9,434.5l0.1-34.2l0,0l-17-0.1l0,0l-0.1,32c0,1.2,0.9,2.1,2,2.1L383.9,434.5z"/>
	<g id="Layer_83_copy-24-2-4">
		<path class="st5" d="M365.3,413.4v3.5l0,0c0,2.6-2,4.8-4.7,4.8h-0.2l-3.4-0.2c-3.4-0.3-5.9-3.1-5.8-6.5l0,0
			c-0.1-3.4,2.5-6.2,5.9-6.4l3.3-0.2l0,0c2.6-0.1,4.8,1.9,4.8,4.5v0.1l0,0C365.3,413.2,365.3,413.3,365.3,413.4z"/>
		<path class="st6" d="M365,413.9v3.5l0,0c0,2.6-2,4.8-4.7,4.8h-0.2l-3.4-0.2c-3.4-0.3-5.9-3.1-5.8-6.5l0,0
			c-0.1-3.4,2.5-6.2,5.9-6.4l3.3-0.2l0,0c2.6-0.1,4.8,1.9,4.8,4.5c0,0,0,0,0,0v0.1l0,0C365,413.7,365,413.8,365,413.9z"/>
		<path class="st7" d="M365.5,415v3.5c0,2.6-2,4.8-4.7,4.8h-0.2l-3.4-0.2c-3.4-0.3-5.9-3.1-5.8-6.5l0,0c-0.1-3.4,2.5-6.2,5.9-6.4
			l3.3-0.2l0,0c2.6-0.1,4.8,1.9,4.8,4.5v0.1l0,0C365.5,414.8,365.5,414.9,365.5,415z"/>
		<path class="st8" d="M361.2,423.5l-4-0.3c-3.4-0.3-5.9-3.1-5.8-6.5l0,0c-0.1-3.4,2.5-6.2,5.9-6.4l4-0.3"/>
	</g>
	<path class="st4" d="M388.2,361.6l-0.1,34.2l0,0l17,0.1l0,0l0.1-32c0-1.2-0.9-2.1-2-2.1L388.2,361.6z"/>
	<g id="Layer_83_copy-24-3-4">
		<path class="st5" d="M406.9,382.7v-3.5l0,0c0-2.6,2-4.8,4.7-4.8c0,0,0,0,0,0h0.2l3.4,0.2c3.4,0.3,5.9,3.1,5.8,6.5l0,0
			c0.1,3.4-2.5,6.2-5.9,6.4l-3.3,0.2l0,0c-2.6,0.1-4.8-1.9-4.8-4.5v-0.1l0,0C406.9,382.9,406.9,382.8,406.9,382.7z"/>
		<path class="st6" d="M407.1,382.2v-3.5l0,0c0-2.6,2-4.8,4.7-4.8c0,0,0,0,0,0h0.2l3.4,0.2c3.4,0.3,5.9,3.1,5.8,6.5l0,0
			c0.1,3.4-2.5,6.2-5.9,6.4l-3.3,0.2l0,0c-2.6,0.1-4.8-1.9-4.8-4.5v-0.1l0,0C407.2,382.4,407.1,382.3,407.1,382.2z"/>
		<path class="st7" d="M406.6,381.1v-3.5c0-2.6,2-4.8,4.7-4.8h0.2l3.4,0.2c3.4,0.3,5.9,3.1,5.8,6.5l0,0c0.1,3.4-2.5,6.2-5.9,6.4
			l-3.3,0.2l0,0c-2.6,0.1-4.8-1.9-4.8-4.5v-0.1l0,0C406.7,381.3,406.6,381.2,406.6,381.1z"/>
		<path class="st8" d="M410.9,372.7l4,0.3c3.4,0.3,5.9,3.1,5.8,6.5l0,0c0.1,3.4-2.5,6.2-5.9,6.4l-4,0.3"/>
	</g>
	<path class="st4" d="M368.9,361.7c-1.2,0-2.1,1-2,2.1l0.1,32l0,0l17-0.1l0,0l-0.1-34.2L368.9,361.7z"/>
	<g id="Layer_83_copy-24-4-4">
		<path class="st5" d="M365.2,383L365.2,383c-0.1,2.6-2.2,4.6-4.8,4.6h-0.1l-3.3-0.2c-3.3-0.2-5.9-3-5.9-6.4l0,0
			c-0.1-3.4,2.5-6.2,5.8-6.5l3.4-0.2h0.2c2.6,0.1,4.7,2.2,4.7,4.8l0,0v3.5C365.2,382.8,365.2,382.9,365.2,383z"/>
		<path class="st6" d="M364.9,382.5L364.9,382.5c-0.1,2.6-2.2,4.6-4.8,4.6h-0.1l-3.3-0.2c-3.3-0.2-5.9-3-5.9-6.4l0,0
			c-0.1-3.4,2.5-6.2,5.8-6.5l3.4-0.2h0.2c2.6,0.1,4.7,2.2,4.7,4.8l0,0v3.5C365,382.3,364.9,382.4,364.9,382.5z"/>
		<path class="st7" d="M365.3,381.3L365.3,381.3c-0.1,2.6-2.2,4.6-4.8,4.6h-0.1l-3.3-0.2c-3.3-0.2-5.9-3-5.9-6.4l0,0
			c-0.1-3.4,2.5-6.2,5.8-6.5l3.4-0.2h0.2c2.6,0.1,4.7,2.2,4.7,4.8v3.5C365.4,381.2,365.3,381.3,365.3,381.3z"/>
		<path class="st8" d="M361.2,386.1l-4-0.3c-3.3-0.2-5.9-3-5.9-6.4l0,0c-0.1-3.4,2.5-6.2,5.8-6.5l4-0.3"/>
	</g>
	<path class="st4" d="M403.1,434.4c1.2,0,2.1-1,2-2.1l-0.1-32l0,0l-17,0.1l0,0l0.1,34.2L403.1,434.4z"/>
	<g id="Layer_83_copy-24-5-4">
		<path class="st5" d="M406.8,413.2L406.8,413.2c0.1-2.6,2.2-4.6,4.8-4.6h0.1l3.3,0.2c3.3,0.2,5.9,3,5.9,6.4l0,0
			c0.1,3.4-2.5,6.2-5.8,6.5l-3.4,0.2h-0.2c-2.6-0.1-4.7-2.2-4.7-4.8l0,0v-3.5C406.8,413.4,406.8,413.3,406.8,413.2z"/>
		<path class="st6" d="M407.1,413.6L407.1,413.6c0.1-2.6,2.2-4.6,4.8-4.6h0.1l3.3,0.2c3.3,0.2,5.9,3,5.9,6.4l0,0
			c0.1,3.4-2.5,6.2-5.8,6.5l-3.4,0.2h-0.2c-2.6-0.1-4.7-2.2-4.7-4.8l0,0v-3.5C407,413.8,407.1,413.7,407.1,413.6z"/>
		<path class="st7" d="M406.6,414.8L406.6,414.8c0.1-2.6,2.2-4.6,4.8-4.6h0.1l3.3,0.2c3.3,0.2,5.9,3,5.9,6.4l0,0
			c0.1,3.4-2.5,6.2-5.8,6.5l-3.4,0.2h-0.2c-2.6-0.1-4.7-2.2-4.7-4.8V415C406.6,415,406.7,414.9,406.6,414.8z"/>
		<path class="st8" d="M410.7,410l4,0.3c3.3,0.2,5.9,3,5.9,6.4l0,0c0.1,3.4-2.5,6.2-5.8,6.5l-4,0.3"/>
	</g>
	<path class="st5" d="M1026.6,146.1h3.8c2.7,0.1,5.1-2,5.2-4.7v-0.3l-0.2-3.5c-0.3-3.5-3.3-6.2-6.8-6.1l0,0c-3.5-0.2-6.6,2.4-6.9,6
		l-0.2,3.5c0,2.8,2.2,5,4.9,5.1L1026.6,146.1z"/>
	<path class="st6" d="M1026.6,146.6h3.8c2.7,0.1,5.1-2,5.2-4.7v-0.3l-0.2-3.5c-0.3-3.5-3.3-6.2-6.8-6.1l0,0c-3.5-0.2-6.6,2.4-6.9,6
		l-0.2,3.5c0,2.8,2.2,5,4.9,5.1L1026.6,146.6z"/>
	<path class="st7" d="M1026.7,148.1h3.5c2.7,0,4.8-2.2,4.8-4.8l0,0v-0.2l-0.2-3.5c-0.2-3.4-3-6.1-6.4-6.1l0,0c-3.4,0-6.2,2.6-6.4,6
		l-0.2,3.5c-0.1,2.6,1.9,4.9,4.5,5.1L1026.7,148.1z"/>
	<path class="st9" d="M1035.1,143.8l-0.3-4.1c-0.2-3.4-3-6.1-6.4-6.1l0,0c-3.4,0-6.2,2.6-6.4,6l-0.3,4.1"/>
	<path class="st5" d="M1041.4,154.9v3.8c-0.1,2.7,2,5.1,4.7,5.2h0.3l3.5-0.2c3.5-0.3,6.2-3.3,6.1-6.8l0,0c0.2-3.5-2.4-6.6-6-6.9
		l-3.5-0.2c-2.8,0-5,2.2-5.1,4.9L1041.4,154.9z"/>
	<path class="st6" d="M1040.9,154.9v3.8c-0.1,2.7,2,5.1,4.7,5.2h0.3l3.5-0.2c3.5-0.3,6.2-3.3,6.1-6.8l0,0c0.2-3.5-2.4-6.6-6-6.9
		l-3.5-0.2c-2.8,0-5,2.2-5.1,4.9V154.9z"/>
	<path class="st7" d="M1039.4,155v3.5c0,2.7,2.2,4.8,4.8,4.8h0.2l3.5-0.2c3.4-0.2,6.1-3,6.1-6.4l0,0c0-3.4-2.6-6.2-6-6.4l-3.5-0.2
		c-2.6-0.1-4.9,1.9-5.1,4.5V155z"/>
	<path class="st9" d="M1043.7,163.4l4.1-0.3c3.4-0.2,6.1-3,6.1-6.4l0,0c0-3.4-2.6-6.2-6-6.4l-4.1-0.3"/>
	<path class="st5" d="M1041.4,173.9v3.8c-0.1,2.7,2,5.1,4.7,5.2h0.3l3.5-0.2c3.5-0.3,6.2-3.3,6.1-6.8l0,0c0.2-3.5-2.4-6.6-6-6.9
		l-3.5-0.2c-2.8,0-5,2.2-5.1,4.9L1041.4,173.9z"/>
	<path class="st6" d="M1040.9,173.9v3.8c-0.1,2.7,2,5.1,4.7,5.2h0.3l3.5-0.2c3.5-0.3,6.2-3.3,6.1-6.8l0,0c0.2-3.5-2.4-6.6-6-6.9
		l-3.5-0.2c-2.8,0-5,2.2-5.1,4.9V173.9z"/>
	<path class="st7" d="M1039.4,174v3.5c0,2.7,2.2,4.8,4.8,4.8h0.2l3.5-0.2c3.4-0.2,6.1-3,6.1-6.4l0,0c0-3.4-2.6-6.2-6-6.4l-3.5-0.2
		c-2.6-0.1-4.9,1.9-5.1,4.5V174z"/>
	<path class="st9" d="M1043.7,182.4l4.1-0.3c3.4-0.2,6.1-3,6.1-6.4l0,0c0-3.4-2.6-6.2-6-6.4l-4.1-0.3"/>
	<path class="st5" d="M1029.9,201.1h-3.8c-2.7-0.1-5.1,2-5.2,4.7v0.3l0.2,3.5c0.3,3.5,3.3,6.2,6.8,6.1l0,0c3.5,0.2,6.6-2.4,6.9-6
		l0.2-3.5c0-2.8-2.2-5-4.9-5.1H1029.9z"/>
	<path class="st6" d="M1029.9,200.6h-3.8c-2.7-0.1-5.1,2-5.2,4.7v0.3l0.2,3.5c0.3,3.5,3.3,6.2,6.8,6.1l0,0c3.5,0.2,6.6-2.4,6.9-6
		l0.2-3.5c0-2.8-2.2-5-4.9-5.1H1029.9z"/>
	<path class="st7" d="M1029.8,199h-3.5c-2.7,0-4.8,2.2-4.8,4.8l0,0v0.2l0.2,3.5c0.2,3.4,3,6.1,6.4,6.1l0,0c3.4,0,6.2-2.6,6.4-6
		l0.2-3.5c0.1-2.6-1.9-4.9-4.5-5.1L1029.8,199z"/>
	<path class="st9" d="M1021.4,203.4l0.3,4.1c0.2,3.4,3,6.1,6.4,6.1l0,0c3.4,0,6.2-2.6,6.4-6l0.3-4.1"/>
	<path class="st5" d="M1041.9,190.3v3.8c-0.1,2.7,2,5.1,4.7,5.2h0.3l3.5-0.2c3.5-0.3,6.2-3.3,6.1-6.8l0,0c0.2-3.5-2.4-6.6-6-6.9
		l-3.5-0.2c-2.8,0-5,2.2-5.1,4.9L1041.9,190.3z"/>
	<path class="st6" d="M1041.5,190.3v3.8c-0.1,2.7,2,5.1,4.7,5.2h0.3l3.5-0.2c3.5-0.3,6.2-3.3,6.1-6.8l0,0c0.2-3.5-2.4-6.6-6-6.9
		l-3.5-0.2c-2.8,0-5,2.2-5.1,4.9V190.3z"/>
	<path class="st7" d="M1039.9,190.4v3.5c0,2.7,2.2,4.8,4.8,4.8h0.2l3.5-0.2c3.4-0.2,6.1-3,6.1-6.4l0,0c0-3.4-2.6-6.2-6-6.4l-3.5-0.2
		c-2.6-0.1-4.9,1.9-5.1,4.5V190.4z"/>
	<path class="st9" d="M1044.3,198.8l4.1-0.3c3.4-0.2,6.1-3,6.1-6.4l0,0c0-3.4-2.6-6.2-6-6.4l-4.1-0.3"/>
	<path class="st5" d="M1015.6,194v-3.8c0.1-2.7-2-5.1-4.7-5.2h-0.3l-3.5,0.2c-3.5,0.3-6.2,3.3-6.1,6.8l0,0c-0.2,3.5,2.4,6.6,6,6.9
		l3.5,0.2c2.8,0,5-2.2,5.1-4.9L1015.6,194z"/>
	<path class="st6" d="M1016.1,194v-3.8c0.1-2.7-2-5.1-4.7-5.2h-0.3l-3.5,0.2c-3.5,0.3-6.2,3.3-6.1,6.8l0,0c-0.2,3.5,2.4,6.6,6,6.9
		l3.5,0.2c2.8,0,5-2.2,5.1-4.9L1016.1,194z"/>
	<path class="st7" d="M1017.6,193.9v-3.5c0-2.7-2.2-4.8-4.8-4.8h-0.2l-3.5,0.2c-3.4,0.2-6.1,3-6.1,6.4l0,0c0,3.4,2.6,6.2,6,6.4
		l3.5,0.2c2.6,0.1,4.9-1.9,5.1-4.5V193.9z"/>
	<path class="st9" d="M1013.3,185.6l-4.1,0.3c-3.4,0.2-6.1,3-6.1,6.4l0,0c0,3.4,2.6,6.2,6,6.4l4.1,0.3"/>
	<path class="st5" d="M1015.6,175.1v-3.8c0.1-2.7-2-5.1-4.7-5.2h-0.3l-3.5,0.2c-3.5,0.3-6.2,3.3-6.1,6.8l0,0c-0.2,3.5,2.4,6.6,6,6.9
		l3.5,0.2c2.8,0,5-2.2,5.1-4.9L1015.6,175.1z"/>
	<path class="st6" d="M1016.1,175.1v-3.8c0.1-2.7-2-5.1-4.7-5.2h-0.3l-3.5,0.2c-3.5,0.3-6.2,3.3-6.1,6.8l0,0c-0.2,3.5,2.4,6.6,6,6.9
		l3.5,0.2c2.8,0,5-2.2,5.1-4.9L1016.1,175.1z"/>
	<path class="st7" d="M1017.6,175v-3.5c0-2.7-2.2-4.8-4.8-4.8h-0.2l-3.5,0.2c-3.4,0.2-6.1,3-6.1,6.4l0,0c0,3.4,2.6,6.2,6,6.4
		l3.5,0.2c2.6,0.1,4.9-1.9,5.1-4.5V175z"/>
	<path class="st9" d="M1013.3,166.6l-4.1,0.3c-3.4,0.2-6.1,3-6.1,6.4l0,0c0,3.4,2.6,6.2,6,6.4l4.1,0.3"/>
	<path class="st5" d="M1015,158.7v-3.8c0.1-2.7-2-5.1-4.7-5.2h-0.3l-3.5,0.2c-3.5,0.3-6.2,3.3-6.1,6.8l0,0c-0.2,3.5,2.4,6.6,6,6.9
		l3.5,0.2c2.8,0,5-2.2,5.1-4.9V158.7z"/>
	<path class="st6" d="M1015.5,158.7v-3.8c0.1-2.7-2-5.1-4.7-5.2h-0.3l-3.5,0.2c-3.5,0.3-6.2,3.3-6.1,6.8l0,0c-0.2,3.5,2.4,6.6,6,6.9
		l3.5,0.2c2.8,0,5-2.2,5.1-4.9V158.7z"/>
	<path class="st7" d="M1017.1,158.6v-3.5c0-2.7-2.2-4.8-4.8-4.8h-0.2l-3.5,0.2c-3.4,0.2-6.1,3-6.1,6.4l0,0c0,3.4,2.6,6.2,6,6.4
		l3.5,0.2c2.6,0.1,4.9-1.9,5.1-4.5L1017.1,158.6z"/>
	<path class="st9" d="M1012.7,150.2l-4.1,0.3c-3.4,0.2-6.1,3-6.1,6.4l0,0c0,3.4,2.6,6.2,6,6.4l4.1,0.3"/>
	<path class="st10" d="M1039.8,147.7v51.9c0.1,0.7-0.6,1.4-1.6,1.5h-20.4c-1-0.1-1.8-0.8-1.6-1.5v-51.9c-0.1-0.7,0.6-1.4,1.6-1.5
		h20.4C1039.2,146.3,1039.9,146.9,1039.8,147.7z"/>
	<path class="st11" d="M1040.8,147.7v51.9c0.1,0.7-0.6,1.4-1.6,1.5h-20.4c-1-0.1-1.8-0.8-1.6-1.5v-51.9c-0.1-0.7,0.6-1.4,1.6-1.5
		h20.4C1040.2,146.3,1040.9,146.9,1040.8,147.7z"/>
	<g id="tables-8">
		<path class="st12" d="M1041.5,160v-12.7c0-0.6-0.7-1.2-1.6-1.2H1029V160H1041.5z"/>
		<path class="st12" d="M1028.9,201.1h10.8c0.9,0,1.6-0.5,1.6-1.2l0,0v-12.4h-12.5L1028.9,201.1z"/>
		<rect x="1028.9" y="160" class="st12" width="12.5" height="13.8"/>
		<path class="st12" d="M1028.9,187.5h-11.2v12.4c0,0.6,0.7,1.2,1.6,1.2h9.6L1028.9,187.5z"/>
		<rect x="1017.7" y="160" class="st12" width="11.2" height="13.8"/>
		<rect x="1028.9" y="173.7" class="st12" width="12.5" height="13.8"/>
		<rect x="1017.7" y="173.7" class="st12" width="11.2" height="13.8"/>
		<path class="st12" d="M1028.9,146.1h-9.6c-0.9,0-1.6,0.5-1.6,1.2l0,0V160h11.2L1028.9,146.1z"/>
	</g>
	<polygon class="st11" points="831.1,164.5 848.8,164.5 848.8,120.6 1049.4,120.6 1049.4,101.8 829.9,101.8 	"/>
	<polygon class="st12" points="829.7,164.5 847.4,164.5 847.4,120.6 1048,120.6 1048,101.8 828.6,101.8 	"/>
	<path class="st5" d="M949.6,174.3l3.1-2.2c2.3-1.5,3-4.5,1.5-6.9c0,0,0,0,0,0l0,0L954,165l-2.2-2.7c-2.3-2.7-6.3-3.1-9.1-1l0,0
		c-3,1.9-4,5.8-2.2,8.9l1.9,2.9c1.6,2.3,4.7,2.9,7,1.3L949.6,174.3z"/>
	<path class="st6" d="M949.9,174.7l3.1-2.2c2.3-1.5,3-4.5,1.5-6.9c0,0,0,0,0,0l0,0l-0.2-0.2l-2.2-2.7c-2.3-2.7-6.3-3.1-9.1-1l0,0
		c-3,1.9-4,5.8-2.2,8.9l1.8,2.9c1.6,2.3,4.7,2.9,7,1.3L949.9,174.7z"/>
	<path class="st7" d="M950.8,175.9l2.8-2c2.2-1.5,2.7-4.5,1.1-6.7l0,0l-0.1-0.2l-2.2-2.7c-2.1-2.7-5.9-3.2-8.7-1.3l0,0
		c-2.8,1.9-3.5,5.7-1.7,8.6l1.9,2.9c1.5,2.2,4.4,2.9,6.6,1.5L950.8,175.9z"/>
	<path class="st9" d="M955.2,167.5l-2.6-3.2c-2.1-2.7-5.9-3.2-8.7-1.3l0,0c-2.8,1.9-3.5,5.7-1.7,8.6l2.2,3.5"/>
	<path class="st5" d="M968.5,171.2l2.2,3.1c1.5,2.3,4.5,3,6.9,1.5c0,0,0,0,0,0l0,0l0.2-0.2l2.7-2.2c2.7-2.3,3.1-6.3,1-9.1l0,0
		c-1.9-3-5.8-4-8.9-2.2l-2.9,1.8c-2.3,1.6-2.9,4.7-1.3,7L968.5,171.2z"/>
	<path class="st6" d="M968.1,171.5l2.2,3.1c1.5,2.3,4.5,3,6.9,1.5c0,0,0,0,0,0l0,0l0.2-0.2l2.7-2.2c2.7-2.3,3.1-6.3,1-9.1l0,0
		c-1.9-3-5.8-4-8.9-2.2l-2.9,1.9c-2.3,1.6-2.9,4.7-1.3,7L968.1,171.5z"/>
	<path class="st7" d="M966.9,172.4l2,2.8c1.5,2.2,4.5,2.7,6.7,1.1l0,0l0.2-0.1l2.7-2.2c2.7-2.1,3.2-5.9,1.3-8.7l0,0
		c-1.9-2.8-5.7-3.5-8.6-1.7l-2.9,1.9c-2.2,1.5-2.9,4.4-1.5,6.6L966.9,172.4z"/>
	<path class="st9" d="M975.3,176.8l3.2-2.6c2.7-2.1,3.2-5.9,1.3-8.7l0,0c-1.9-2.8-5.7-3.5-8.6-1.7l-3.5,2.2"/>
	<path class="st5" d="M971.8,188.6l-3.1,2.2c-2.3,1.5-3,4.5-1.5,6.9l0,0l0.2,0.2l2.2,2.7c2.3,2.7,6.3,3.1,9.1,1l0,0
		c3-1.9,4-5.8,2.2-8.9l-1.8-2.9c-1.6-2.3-4.7-2.9-7-1.3L971.8,188.6z"/>
	<path class="st6" d="M971.6,188.2l-3.1,2.2c-2.3,1.5-3,4.5-1.5,6.9l0,0l0.2,0.2l2.2,2.7c2.3,2.7,6.3,3.1,9.1,1l0,0
		c3-1.9,4-5.8,2.2-8.9l-1.8-2.9c-1.6-2.3-4.7-2.9-7-1.3L971.6,188.2z"/>
	<path class="st7" d="M970.6,187l-2.8,2c-2.2,1.5-2.7,4.5-1.1,6.7l0,0l0.1,0.2l2.2,2.7c2.1,2.7,5.9,3.2,8.7,1.3l0,0
		c2.8-1.9,3.5-5.7,1.7-8.6l-1.8-2.9c-1.5-2.2-4.4-2.9-6.6-1.5L970.6,187z"/>
	<path class="st9" d="M966.3,195.4l2.6,3.2c2.1,2.7,5.9,3.2,8.7,1.3l0,0c2.8-1.9,3.5-5.7,1.7-8.6l-2.2-3.5"/>
	<path class="st5" d="M955.9,191.7l-2.2-3.1c-1.5-2.3-4.5-3-6.9-1.5l0,0l-0.2,0.2l-2.7,2.2c-2.7,2.3-3.1,6.3-1,9.1l0,0
		c1.9,3,5.8,4,8.9,2.2l2.9-1.9c2.3-1.6,2.9-4.7,1.3-7L955.9,191.7z"/>
	<path class="st6" d="M956.3,191.4l-2.2-3.1c-1.5-2.3-4.5-3-6.9-1.5c0,0,0,0,0,0l0,0l-0.2,0.2l-2.7,2.2c-2.7,2.3-3.1,6.3-1,9.1l0,0
		c1.9,3,5.8,4,8.9,2.2l2.9-1.9c2.3-1.6,2.9-4.7,1.3-7L956.3,191.4z"/>
	<path class="st7" d="M957.5,190.4l-2-2.8c-1.5-2.2-4.5-2.7-6.7-1.1l0,0l-0.2,0.1l-2.7,2.2c-2.7,2.1-3.2,5.9-1.3,8.7l0,0
		c1.9,2.8,5.7,3.5,8.6,1.7l2.9-1.9c2.2-1.5,2.9-4.4,1.5-6.6L957.5,190.4z"/>
	<path class="st9" d="M949.1,186.1l-3.2,2.6c-2.7,2.1-3.2,5.9-1.3,8.7l0,0c1.9,2.8,5.7,3.5,8.6,1.7l3.5-2.2"/>
	<circle class="st11" cx="962" cy="180.9" r="13.9"/>
	<circle class="st12" cx="962" cy="180.5" r="13.9"/>
	<path class="st5" d="M895,174.4l3.1-2.2c2.3-1.5,3-4.5,1.5-6.9c0,0,0,0,0,0l0,0l-0.2-0.2l-2.2-2.7c-2.3-2.7-6.3-3.1-9.1-1l0,0
		c-3,1.9-4,5.8-2.2,8.9l1.8,2.9c1.6,2.3,4.7,2.9,7,1.3L895,174.4z"/>
	<path class="st6" d="M895.3,174.7l3.1-2.2c2.3-1.5,3-4.5,1.5-6.9l0,0l-0.2-0.2l-2.2-2.7c-2.3-2.7-6.3-3.1-9.1-1l0,0
		c-3,1.9-4,5.8-2.2,8.9l1.8,2.9c1.6,2.3,4.7,2.9,7,1.3L895.3,174.7z"/>
	<path class="st7" d="M896.3,175.9l2.8-2c2.2-1.5,2.7-4.5,1.1-6.7l0,0l-0.1-0.2l-2.2-2.7c-2.1-2.7-5.9-3.2-8.7-1.3l0,0
		c-2.8,1.9-3.5,5.7-1.7,8.6l1.8,2.9c1.5,2.2,4.4,2.9,6.6,1.5L896.3,175.9z"/>
	<path class="st9" d="M900.6,167.6l-2.6-3.2c-2.1-2.7-5.9-3.2-8.7-1.3l0,0c-2.8,1.9-3.5,5.7-1.7,8.6l2.2,3.5"/>
	<path class="st5" d="M914,171.3l2.2,3.1c1.5,2.3,4.5,3,6.9,1.5l0,0l0.2-0.2l2.7-2.2c2.7-2.3,3.1-6.3,1-9.1l0,0
		c-1.9-3-5.8-4-8.9-2.2l-2.9,1.9c-2.3,1.6-2.9,4.7-1.3,7L914,171.3z"/>
	<path class="st6" d="M913.6,171.5l2.2,3.1c1.5,2.3,4.5,3,6.9,1.5l0,0l0.2-0.2l2.7-2.2c2.7-2.3,3.1-6.3,1-9.1l0,0
		c-1.9-3-5.8-4-8.9-2.2l-2.9,1.9c-2.3,1.6-2.9,4.7-1.3,7L913.6,171.5z"/>
	<path class="st7" d="M912.4,172.5l2,2.8c1.5,2.2,4.5,2.7,6.7,1.1l0,0l0.2-0.1l2.7-2.2c2.7-2.1,3.2-5.9,1.3-8.7l0,0
		c-1.9-2.8-5.7-3.5-8.6-1.7l-2.9,1.9c-2.2,1.5-2.9,4.4-1.5,6.6L912.4,172.5z"/>
	<path class="st9" d="M920.7,176.8l3.2-2.6c2.7-2.1,3.2-5.9,1.3-8.7l0,0c-1.9-2.8-5.7-3.5-8.6-1.7l-3.5,2.2"/>
	<path class="st5" d="M917.3,188.7l-3.1,2.2c-2.3,1.5-3,4.5-1.5,6.9c0,0,0,0,0,0l0,0l0.2,0.2l2.2,2.7c2.3,2.7,6.3,3.1,9.1,1l0,0
		c3-1.9,4-5.8,2.2-8.9l-1.8-2.9c-1.6-2.3-4.7-2.9-7-1.3L917.3,188.7z"/>
	<path class="st6" d="M917,188.3l-3.1,2.2c-2.3,1.5-3,4.5-1.5,6.9l0,0l0.2,0.2l2.2,2.7c2.3,2.7,6.3,3.1,9.1,1l0,0
		c3-1.9,4-5.8,2.2-8.9l-1.8-2.9c-1.6-2.3-4.7-2.9-7-1.3L917,188.3z"/>
	<path class="st7" d="M916.1,187.1l-2.8,2c-2.2,1.5-2.7,4.5-1.1,6.7l0,0l0.1,0.2l2.2,2.7c2.1,2.7,5.9,3.2,8.7,1.3l0,0
		c2.8-1.9,3.5-5.7,1.7-8.6l-1.8-2.9c-1.5-2.2-4.4-2.9-6.6-1.5L916.1,187.1z"/>
	<path class="st9" d="M911.7,195.4l2.6,3.2c2.1,2.7,5.9,3.2,8.7,1.3l0,0c2.8-1.9,3.5-5.7,1.7-8.6l-2.2-3.5"/>
	<path class="st5" d="M901.4,191.7l-2.2-3.1c-1.5-2.3-4.5-3-6.9-1.5c0,0,0,0,0,0l0,0l-0.2,0.2l-2.7,2.2c-2.7,2.3-3.1,6.3-1,9.1l0,0
		c1.9,3,5.8,4,8.9,2.2l2.9-1.9c2.3-1.6,2.9-4.7,1.3-7L901.4,191.7z"/>
	<path class="st6" d="M901.8,191.5l-2.2-3.1c-1.5-2.3-4.5-3-6.9-1.5c0,0,0,0,0,0l0,0l-0.2,0.2l-2.7,2.2c-2.7,2.3-3.1,6.3-1,9.1l0,0
		c1.9,3,5.8,4,8.9,2.2l2.9-1.9c2.3-1.6,2.9-4.7,1.3-7L901.8,191.5z"/>
	<path class="st7" d="M903,190.5l-2-2.8c-1.5-2.2-4.5-2.7-6.7-1.1l0,0l-0.2,0.1l-2.7,2.2c-2.7,2.1-3.2,5.9-1.3,8.7l0,0
		c1.9,2.8,5.7,3.5,8.6,1.7l2.9-1.9c2.2-1.5,2.9-4.4,1.5-6.6L903,190.5z"/>
	<path class="st9" d="M894.6,186.2l-3.2,2.6c-2.7,2.1-3.2,5.9-1.3,8.7l0,0c1.9,2.8,5.7,3.5,8.6,1.7l3.5-2.2"/>
	<circle class="st11" cx="907.5" cy="180.9" r="13.9"/>
	<circle class="st12" cx="907.5" cy="180.6" r="13.9"/>
	<path class="st10" d="M856.9,388.8l-9.3,0.1c-0.6,0-1.1-0.5-1.1-1.1c0,0,0,0,0,0v-0.1l-0.1-7.7c0-0.6,0.5-1.1,1.1-1.1h0.1l9.3-0.1
		c0.6,0,1.1,0.5,1.1,1.1c0,0,0,0,0,0v0.1l0.1,7.7C858,388.3,857.5,388.8,856.9,388.8z"/>
	<path class="st11" d="M856.6,389.2l-9.3,0.1c-0.6,0-1.1-0.5-1.1-1.1v-0.1l-0.1-7.7c0-0.6,0.5-1.1,1.1-1.1h0.1l9.3-0.1
		c0.6,0,1.1,0.5,1.1,1.1c0,0,0,0,0,0v0.1l0.1,7.7C857.7,388.7,857.2,389.2,856.6,389.2z"/>
	<path class="st12" d="M847,389.7h1.4l7.9-0.1c0.6,0,1.1-0.5,1.1-1.1v-0.1l0,0l-0.1-7.8c0-0.6-0.5-1.1-1.1-1.1h-0.1l-7.9,0.1h-1.4
		c-0.6,0-1.1,0.5-1.1,1.1v0.1l0,0l0.1,7.8l0,0C845.8,389.2,846.4,389.7,847,389.7z"/>
	<path class="st13" d="M873.6,399.3c6.5,1.3,10.6,7.7,9.3,14.1c-1.3,6.5-7.7,10.6-14.1,9.3c-6.5-1.3-10.6-7.7-9.3-14.1c0,0,0,0,0,0
		l0,0c1.3-6.5,7.6-10.6,14-9.3c0,0,0,0,0,0L873.6,399.3L873.6,399.3z"/>
	
		<ellipse transform="matrix(0.9996 -2.757269e-02 2.757269e-02 0.9996 -10.9681 24.1837)" class="st11" cx="871.4" cy="409.8" rx="11.9" ry="11.9"/>
	
		<ellipse transform="matrix(0.9996 -2.757270e-02 2.757270e-02 0.9996 -10.9362 24.1885)" class="st4" cx="871.6" cy="408.7" rx="11.9" ry="11.9"/>
	<path class="st10" d="M816.6,377.8v60.3c0,1-0.6,1.8-1.3,1.8h-15.5c-0.8,0-1.3-0.8-1.3-1.8v-60.3c0-1,0.6-1.8,1.3-1.8h15.5
		C816.1,376,816.6,376.8,816.6,377.8z"/>
	<path class="st11" d="M817.4,377.8v60.3c0,1-0.6,1.8-1.3,1.8h-15.5c-0.8,0-1.3-0.8-1.3-1.8v-60.3c0-1,0.6-1.8,1.3-1.8h15.5
		C816.8,376,817.4,376.8,817.4,377.8z"/>
	<g id="tables-7-17">
		<path class="st12" d="M817.8,396.8v-19c0-1-0.6-1.8-1.3-1.8h-8.2v20.8H817.8z"/>
		<path class="st12" d="M808.2,439.9h8.2c0.8,0,1.3-0.8,1.3-1.8l0,0v-20.6h-9.6V439.9z"/>
		<rect x="808.2" y="396.8" class="st12" width="9.6" height="20.7"/>
		<path class="st12" d="M808.2,417.5h-8.6v20.6c0,1,0.6,1.8,1.3,1.8h7.3V417.5z"/>
		<rect x="799.8" y="396.8" class="st12" width="8.6" height="20.7"/>
		<path class="st12" d="M808.2,376h-7.3c-0.8,0-1.3,0.8-1.3,1.8v19h8.6V376z"/>
	</g>
	<polyline class="st14" points="844.2,438.4 823.2,438.4 823.2,424.1 844.2,424.1 844.2,434 844.2,438.4 	"/>
	<polygon class="st15" points="828.4,424.1 823.2,424.1 823.3,438.4 828.4,438.4 	"/>
	<path class="st15" d="M828.4,364.6l-4.8-3.3c-0.1,0-0.1,0-0.1,0.1l5,3.4v-0.2L828.4,364.6z"/>
	<path class="st15" d="M826.9,435.5l-3.4,2.7c0.2,0.2,0.4,0.3,0.7,0.2h19.2c0.4,0,0.7-0.2,0.9-0.6v-3.5h-15.7L826.9,435.5z"/>
	<polyline class="st14" points="844.2,387.4 823.2,387.4 823.2,375.3 844.2,375.3 844.2,383.7 844.2,387.4 	"/>
	<rect x="828.3" y="364.8" class="st16" width="15.8" height="10.5"/>
	<path class="st15" d="M828.4,364.8l-5-3.4c-0.1,0.1-0.2,0.2-0.2,0.4l0.1,13.4h5.2L828.4,364.8z"/>
	<polygon class="st15" points="828.4,375.3 823.2,375.3 823.3,387.4 828.4,387.4 	"/>
	<polyline class="st14" points="844.2,399.8 823.2,399.8 823.2,387.6 844.2,387.6 844.2,396.1 844.2,399.8 	"/>
	<polygon class="st15" points="828.4,387.6 823.2,387.6 823.3,399.8 828.4,399.8 	"/>
	<polyline class="st14" points="844.2,411.8 823.2,411.8 823.2,399.7 844.2,399.7 844.2,408.1 844.2,411.8 	"/>
	<polygon class="st15" points="828.4,399.7 823.2,399.7 823.3,411.8 828.4,411.8 	"/>
	<polyline class="st14" points="844.2,424.3 823.2,424.3 823.2,412.1 844.2,412.1 844.2,420.5 844.2,424.3 	"/>
	<polygon class="st15" points="828.4,412.1 823.2,412.1 823.3,424.3 828.4,424.3 	"/>
	<path class="st17" d="M828.6,364.8h15.6v-3.5H824c-0.2,0-0.3,0.1-0.4,0.2L828.6,364.8z"/>
	<path class="st13" d="M896.9,391.1l0.3-0.2l12.1-8.9c0.1-0.1,0.2,0,0.3-0.1l2.2-1.4c0.5-0.3,0.7-1,0.4-1.6l0,0l-7.5-12
		c-0.3-0.5-1-0.7-1.5-0.4l-2.3,1.3l-0.2,0.1l-13.6,6.9c-0.2,0.1-0.4,0.2-0.5,0.4l0,0c-0.6,0.3-0.8,1-0.5,1.5l0,0l0.5,0.8
		c0.1,0.2,0.2,0.3,0.4,0.4c1.8,4.2,4.2,8.2,7.2,11.7c0,0.2,0.1,0.4,0.2,0.6l0.5,0.8c0.3,0.5,0.9,0.7,1.4,0.4l0,0
		c0,0,0.1-0.1,0.1-0.1L896.9,391.1z"/>
	<path class="st6" d="M897.9,390.5l0.3-0.2l12.1-8.9c0.1-0.1,0.2,0,0.3-0.1l2.2-1.4c0.5-0.3,0.7-1,0.4-1.6l0,0l-0.7-1.1l-6.1-9.9
		l-0.6-1c-0.3-0.5-0.9-0.7-1.4-0.4c0,0,0,0,0,0l0,0l0,0l-2.3,1.3l-0.2,0.1l-13.6,6.9c-0.2,0.1-0.4,0.2-0.5,0.4l0,0
		c-0.5,0.3-0.7,1-0.5,1.5l0,0l0.5,0.8c0.1,0.2,0.2,0.3,0.4,0.4c1.8,4.2,4.2,8.2,7.2,11.7c0,0.2,0.1,0.4,0.2,0.6l0.5,0.8
		c0.3,0.5,0.9,0.7,1.4,0.4l0,0c0,0,0.1-0.1,0.1-0.1L897.9,390.5z"/>
	<path class="st7" d="M896.8,389.8L896.8,389.8c-3.7-4.2-6.7-9-8.8-14.2l0,0c-0.3-0.7,0-1.5,0.7-1.8l15.3-7.7c1.1-0.5,2.4-0.2,3,0.8
		l6.1,9.9c0.6,1,0.3,2.3-0.6,3L898.7,390C898.1,390.5,897.3,390.4,896.8,389.8z"/>
	<path class="st18" d="M909.4,380.7l-7.5-12.2c-0.3-0.5-0.2-1.2,0.4-1.6l0,0l2.3-1.3c0.5-0.3,1.2-0.1,1.5,0.4c0,0,0,0,0,0l0,0
		l7.4,12.1c0.3,0.5,0.2,1.2-0.4,1.6l-2.2,1.4C910.3,381.4,909.7,381.2,909.4,380.7L909.4,380.7z"/>
	<path class="st18" d="M888.1,376.6l-0.5-0.8c-0.3-0.5-0.1-1.2,0.4-1.5l0,0l16.5-8.4l0.9,1.9l-16,9.3
		C889,377.3,888.4,377.1,888.1,376.6z"/>
	<path class="st18" d="M895.9,389.4l0.5,0.8c0.3,0.5,0.9,0.7,1.4,0.4c0,0,0,0,0,0l0,0c0,0,0.1-0.1,0.1-0.1l0,0l14.9-11l-1.3-1.7
		l-15.4,10.1C895.6,388.3,895.5,388.9,895.9,389.4z"/>
	<g id="Layer_25-21-37">
		<circle class="st13" cx="905.5" cy="405.6" r="9.2"/>
		<circle class="st11" cx="905.5" cy="404.5" r="9.2"/>
		<circle class="st7" cx="905.5" cy="403.3" r="9.2"/>
	</g>
	<path class="st13" d="M886,430.2l0.2,0.2l12.6,8.3c0.1,0.1,0.1,0.2,0.2,0.3l2.1,1.6c0.5,0.4,1.2,0.3,1.6-0.2l0,0l8.7-11.2
		c0.4-0.5,0.3-1.1-0.1-1.5l-2-1.7l-0.2-0.1l-11.2-10.4c-0.2-0.1-0.4-0.2-0.6-0.3l0,0c-0.5-0.4-1.2-0.4-1.6,0.1l0,0l-0.6,0.7
		c-0.1,0.1-0.2,0.3-0.2,0.5c-3.4,3.2-6.2,6.8-8.5,10.8c-0.2,0.1-0.4,0.2-0.5,0.4l-0.6,0.7c-0.4,0.4-0.3,1.1,0.1,1.4l0,0
		c0,0,0.1,0.1,0.1,0.1L886,430.2z"/>
	<path class="st6" d="M886.9,431l0.2,0.2l12.6,8.3c0.1,0.1,0.1,0.2,0.2,0.3l2.1,1.6c0.5,0.4,1.2,0.3,1.6-0.2l0,0l0.8-1.1l7.2-9.2
		l0.7-0.9c0.4-0.4,0.4-1.1-0.1-1.5c0,0,0,0,0,0l0,0l0,0l-2-1.7l-0.2-0.1l-11.2-10.4c-0.2-0.1-0.4-0.2-0.6-0.3l0,0
		c-0.5-0.4-1.2-0.4-1.6,0.1l0,0l-0.6,0.7c-0.1,0.1-0.2,0.3-0.2,0.5c-3.4,3.2-6.2,6.8-8.5,10.8c-0.2,0.1-0.4,0.2-0.5,0.4l-0.6,0.7
		c-0.4,0.4-0.3,1.1,0.1,1.4l0,0c0,0,0.1,0.1,0.1,0.1L886.9,431z"/>
	<path class="st7" d="M887.2,429.6L887.2,429.6c2.6-5,6.1-9.4,10.3-13.1l0,0c0.6-0.5,1.4-0.5,1.9,0l12.6,11.7c0.9,0.8,1,2.2,0.2,3.1
		l-7.2,9.2c-0.7,0.9-2,1.1-3,0.5l-14.3-9.4C887,431.1,886.8,430.3,887.2,429.6z"/>
	<path class="st18" d="M900.1,438.3l8.8-11.2c0.4-0.5,1.1-0.6,1.6-0.2l0,0l2,1.7c0.5,0.4,0.5,1,0.2,1.5l0,0l-8.8,11.1
		c-0.4,0.5-1.1,0.6-1.6,0.2l-2.1-1.6C899.8,439.4,899.7,438.7,900.1,438.3L900.1,438.3z"/>
	<path class="st18" d="M896.5,417l0.6-0.7c0.4-0.5,1-0.5,1.5-0.2l0,0l13.6,12.6l-1.4,1.5l-14.2-11.8
		C896.2,418,896.2,417.4,896.5,417z"/>
	<path class="st18" d="M887.3,428.6l-0.6,0.7c-0.4,0.4-0.3,1.1,0.1,1.4l0,0c0,0,0.1,0.1,0.1,0.1l0,0l15.5,10.1l1.1-1.8l-14.8-11
		C888.2,428,887.6,428.1,887.3,428.6z"/>
	<path class="st10" d="M856.6,427.6l-9.3,0.1c-0.6,0-1.1-0.5-1.1-1.1v-0.1l-0.1-7.7c0-0.6,0.5-1.1,1.1-1.1h0.1l9.3-0.1
		c0.6,0,1.1,0.5,1.1,1.1c0,0,0,0,0,0v0.1l0.1,7.7C857.7,427,857.2,427.6,856.6,427.6z"/>
	<path class="st11" d="M856.3,428l-9.3,0.1c-0.6,0-1.1-0.5-1.1-1.1c0,0,0,0,0,0v-0.1l-0.1-7.7c0-0.6,0.5-1.1,1.1-1.1c0,0,0,0,0,0
		h0.1l9.3-0.1c0.6,0,1.1,0.5,1.1,1.1v0.1l0.1,7.7C857.4,427.5,856.9,428,856.3,428z"/>
	<path class="st12" d="M846.7,428.5h1.4l7.9-0.1c0.6,0,1.1-0.5,1.1-1.1c0,0,0,0,0,0v-0.1l0,0l-0.1-7.8c0-0.6-0.5-1.1-1.1-1.1H856
		l-7.9,0.1h-1.4c-0.6,0-1.1,0.5-1.1,1.1c0,0,0,0,0,0v0.1l0,0l0.1,7.8l0,0C845.6,428,846.1,428.5,846.7,428.5z"/>
	<path class="st13" d="M712.3,131.2l0.3-0.2l12.1-8.9c0.1-0.1,0.2,0,0.3-0.1l2.2-1.4c0.5-0.3,0.7-1,0.4-1.6l0,0l-7.5-12
		c-0.3-0.5-1-0.7-1.5-0.4l-2.3,1.3l-0.2,0.1l-13.6,6.9c-0.2,0.1-0.4,0.2-0.5,0.4l0,0c-0.6,0.3-0.8,1-0.5,1.5l0,0l0.5,0.8
		c0.1,0.2,0.2,0.3,0.4,0.4c1.8,4.2,4.2,8.2,7.2,11.7c0,0.2,0.1,0.4,0.2,0.6l0.5,0.8c0.3,0.5,0.9,0.7,1.4,0.4c0,0,0,0,0,0l0,0
		c0,0,0.1-0.1,0.1-0.1L712.3,131.2z"/>
	<path class="st6" d="M713.4,130.7l0.3-0.2l12.1-8.9c0.1-0.1,0.2,0,0.3-0.1l2.2-1.4c0.5-0.3,0.7-1,0.4-1.6l0,0l-0.7-1.1l-6.1-9.9
		l-0.6-1c-0.3-0.5-0.9-0.7-1.5-0.4l0,0l0,0l-2.3,1.3l-0.2,0.1l-13.6,6.9c-0.2,0.1-0.4,0.2-0.5,0.4l0,0c-0.5,0.3-0.7,1-0.5,1.5l0,0
		l0.5,0.8c0.1,0.2,0.2,0.3,0.4,0.4c1.8,4.2,4.2,8.2,7.2,11.7c0,0.2,0.1,0.4,0.2,0.6l0.5,0.8c0.3,0.5,0.9,0.7,1.4,0.4c0,0,0,0,0,0
		l0,0c0,0,0.1-0.1,0.1-0.1L713.4,130.7z"/>
	<path class="st7" d="M712.2,130L712.2,130c-3.7-4.2-6.7-9-8.8-14.2l0,0c-0.3-0.7,0-1.5,0.7-1.8l15.3-7.7c1.1-0.5,2.4-0.2,3,0.8
		l6.1,9.9c0.6,1,0.3,2.3-0.6,3l-13.8,10.2C713.5,130.7,712.7,130.6,712.2,130z"/>
	<path class="st18" d="M724.8,120.9l-7.5-12.2c-0.3-0.5-0.2-1.2,0.4-1.6l0,0l2.3-1.3c0.5-0.3,1.2-0.1,1.5,0.4l0,0l7.4,12.1
		c0.3,0.5,0.2,1.2-0.4,1.6l-2.2,1.4C725.8,121.6,725.1,121.4,724.8,120.9L724.8,120.9z"/>
	<path class="st18" d="M703.6,116.8l-0.5-0.8c-0.3-0.5-0.1-1.2,0.4-1.5l0,0l16.5-8.4l0.9,1.9l-16,9.3
		C704.5,117.5,703.9,117.3,703.6,116.8z"/>
	<path class="st18" d="M711.3,129.6l0.5,0.8c0.3,0.5,0.9,0.7,1.4,0.4l0,0c0,0,0.1-0.1,0.1-0.1l0,0l14.9-11l-1.3-1.7l-15.4,10.1
		C711,128.4,711,129.1,711.3,129.6z"/>
	<g id="Layer_25-21-37-2">
		<circle class="st13" cx="720.9" cy="145.8" r="9.2"/>
		<circle class="st11" cx="720.9" cy="144.7" r="9.2"/>
		<circle class="st7" cx="720.9" cy="143.5" r="9.2"/>
	</g>
	<path class="st13" d="M701.5,170.4l0.2,0.2l12.6,8.3c0.1,0.1,0.1,0.2,0.2,0.3l2.1,1.6c0.5,0.4,1.2,0.3,1.6-0.2l0,0l8.7-11.2
		c0.4-0.5,0.3-1.1-0.1-1.5l-2-1.7l-0.2-0.1l-11.2-10.4c-0.2-0.1-0.4-0.2-0.6-0.3l0,0c-0.5-0.4-1.2-0.4-1.6,0.1l0,0l-0.6,0.7
		c-0.1,0.1-0.2,0.3-0.2,0.5c-3.4,3.2-6.2,6.8-8.5,10.8c-0.2,0.1-0.4,0.2-0.5,0.4l-0.6,0.7c-0.4,0.4-0.3,1.1,0.1,1.4c0,0,0,0,0,0l0,0
		c0,0,0.1,0.1,0.1,0.1L701.5,170.4z"/>
	<path class="st6" d="M702.3,171.1l0.2,0.2l12.6,8.3c0.1,0.1,0.1,0.2,0.2,0.3l2.1,1.6c0.5,0.4,1.2,0.3,1.6-0.2l0,0l0.8-1.1l7.2-9.2
		l0.7-0.9c0.4-0.4,0.4-1.1-0.1-1.5c0,0,0,0,0,0l0,0l0,0l-2-1.7l-0.2-0.1l-11.2-10.4c-0.2-0.1-0.4-0.2-0.6-0.3l0,0
		c-0.5-0.4-1.2-0.4-1.6,0.1l0,0l-0.6,0.7c-0.1,0.1-0.2,0.3-0.2,0.5c-3.4,3.2-6.2,6.8-8.5,10.8c-0.2,0.1-0.4,0.2-0.5,0.4l-0.6,0.7
		c-0.4,0.4-0.3,1.1,0.1,1.4c0,0,0,0,0,0l0,0c0,0,0.1,0.1,0.1,0.1L702.3,171.1z"/>
	<path class="st7" d="M702.6,169.8L702.6,169.8c2.6-5,6.1-9.4,10.3-13.1l0,0c0.6-0.5,1.4-0.5,1.9,0l12.6,11.7c0.9,0.8,1,2.2,0.2,3.1
		l-7.2,9.2c-0.7,0.9-2,1.1-3,0.5l-14.3-9.4C702.4,171.3,702.2,170.4,702.6,169.8z"/>
	<path class="st18" d="M715.5,178.4l8.8-11.2c0.4-0.5,1.1-0.6,1.6-0.2l0,0l2,1.7c0.5,0.4,0.5,1,0.2,1.5l0,0l-8.8,11.2
		c-0.4,0.5-1.1,0.6-1.6,0.2l-2.1-1.6C715.2,179.6,715.1,178.9,715.5,178.4L715.5,178.4z"/>
	<path class="st18" d="M712,157.1l0.6-0.7c0.4-0.5,1-0.5,1.5-0.2l0,0l13.6,12.6l-1.4,1.5L712,158.6
		C711.6,158.2,711.6,157.6,712,157.1z"/>
	<path class="st18" d="M702.7,168.8l-0.6,0.7c-0.4,0.4-0.3,1.1,0.1,1.4c0,0,0,0,0,0l0,0c0,0,0.1,0.1,0.1,0.1l0,0l15.5,10.1l1.1-1.8
		l-14.8-11C703.6,168.2,703,168.3,702.7,168.8z"/>
	<g id="Layer_83_copy-24-4-5">
		<path class="st5" d="M630.8,197.6L630.8,197.6c3.1,0.1,5.5,2.6,5.4,5.7v0.1l-0.2,3.9c-0.3,4-3.6,7-7.6,7l0,0
			c-4,0.1-7.3-2.9-7.7-6.9l-0.2-4v-0.3c0.1-3.1,2.6-5.5,5.7-5.5h4.2C630.6,197.6,630.7,197.7,630.8,197.6z"/>
		<path class="st6" d="M630.2,197.9L630.2,197.9c3.1,0.1,5.5,2.6,5.4,5.7v0.1l-0.2,3.9c-0.3,4-3.6,7-7.6,7l0,0
			c-4,0.1-7.3-2.9-7.7-6.9l-0.2-4v-0.3c0.1-3.1,2.6-5.5,5.7-5.5h4.2C630,197.9,630.1,198,630.2,197.9z"/>
		<path class="st7" d="M628.8,197.5L628.8,197.5c3.1,0.1,5.5,2.6,5.4,5.7v0.1l-0.2,3.9c-0.3,4-3.6,7-7.6,7l0,0
			c-4,0.1-7.3-2.9-7.7-6.9l-0.2-4v-0.3c0.1-3.1,2.6-5.5,5.7-5.5h4.2C628.6,197.4,628.7,197.5,628.8,197.5z"/>
		<path class="st8" d="M634.5,202.4l-0.4,4.8c-0.3,4-3.6,7-7.6,7l0,0c-4,0.1-7.3-2.9-7.7-6.9l-0.4-4.8"/>
	</g>
	<polygon class="st13" points="593.1,181.8 641.8,181.8 641.8,173.2 660,173.2 660,212.1 643.5,212.1 643.5,197.4 593.1,197.4 	"/>
	<polygon class="st4" points="593,180.6 641.7,180.6 641.7,172 659.9,172 659.9,210.9 643.5,210.9 643.5,196.1 593,196.1 	"/>
	<g id="Layer_83_copy-24-2-5">
		<path class="st5" d="M234.8,391h3.5c2.6,0,4.8,2,4.8,4.7v0.2l-0.2,3.4c-0.3,3.4-3.1,5.9-6.5,5.8l0,0c-3.4,0.1-6.2-2.5-6.4-5.9
			l-0.2-3.3l0,0c-0.1-2.6,1.9-4.8,4.5-4.8c0,0,0,0,0,0h0.1C234.6,391,234.7,391,234.8,391z"/>
		<path class="st6" d="M235.2,391.3h3.5c2.6,0,4.8,2,4.8,4.7v0.2l-0.2,3.4c-0.3,3.4-3.1,5.9-6.5,5.8l0,0c-3.4,0.1-6.2-2.5-6.4-5.9
			l-0.2-3.3l0,0c-0.1-2.6,1.9-4.8,4.5-4.8h0.1C235.1,391.3,235.2,391.2,235.2,391.3z"/>
		<path class="st7" d="M236.4,390.8h3.5c2.6,0,4.8,2,4.8,4.7c0,0,0,0,0,0l0,0v0.2l-0.2,3.4c-0.3,3.4-3.1,5.9-6.5,5.8l0,0
			c-3.4,0.1-6.2-2.5-6.4-5.9l-0.2-3.3l0,0c-0.1-2.6,1.9-4.8,4.5-4.8c0,0,0,0,0,0h0.1C236.2,390.8,236.3,390.8,236.4,390.8z"/>
		<path class="st8" d="M244.8,395l-0.3,4c-0.3,3.4-3.1,5.9-6.5,5.8l0,0c-3.4,0.1-6.2-2.5-6.4-5.9l-0.3-4"/>
	</g>
	<g id="Layer_83_copy-24-4-6">
		<path class="st5" d="M239,380.4L239,380.4c-2.6-0.1-4.6-2.2-4.6-4.8v-0.1l0.2-3.3c0.2-3.3,3-5.9,6.4-5.9l0,0
			c3.4-0.1,6.2,2.5,6.5,5.8l0.2,3.4v0.2c-0.1,2.6-2.2,4.7-4.8,4.7h-3.5C239.2,380.4,239.1,380.4,239,380.4z"/>
		<path class="st6" d="M239.5,380.2L239.5,380.2c-2.6-0.1-4.6-2.2-4.6-4.8v-0.1l0.2-3.3c0.2-3.3,3-5.9,6.4-5.9l0,0
			c3.4-0.1,6.2,2.5,6.5,5.8l0.2,3.4v0.2c-0.1,2.6-2.2,4.7-4.8,4.7h-3.5C239.7,380.2,239.6,380.2,239.5,380.2z"/>
		<path class="st7" d="M240.6,380.6L240.6,380.6c-2.6-0.1-4.6-2.2-4.6-4.8v-0.1l0.2-3.3c0.2-3.3,3-5.9,6.4-5.9l0,0
			c3.4-0.1,6.2,2.5,6.5,5.8l0.2,3.4v0.2c-0.1,2.6-2.2,4.7-4.8,4.7h-3.5C240.8,380.6,240.7,380.6,240.6,380.6z"/>
		<path class="st8" d="M235.9,376.4l0.3-4c0.2-3.3,3-5.9,6.4-5.9l0,0c3.4-0.1,6.2,2.5,6.5,5.8l0.3,4"/>
	</g>
	<rect x="220.6" y="378.5" class="st4" width="35.2" height="14.1"/>
	<rect x="254.8" y="364.4" class="st4" width="30.6" height="46"/>
	<g id="Layer_83_copy-24-2-6">
		<path class="st5" d="M298.3,390.8h3.5c2.6,0,4.8,2,4.8,4.7c0,0,0,0,0,0l0,0v0.2l-0.2,3.4c-0.3,3.4-3.1,5.9-6.5,5.8l0,0
			c-3.4,0.1-6.2-2.5-6.4-5.9l-0.2-3.3l0,0c-0.1-2.6,1.9-4.8,4.5-4.8c0,0,0,0,0,0h0.1C298.1,390.8,298.2,390.8,298.3,390.8z"/>
		<path class="st6" d="M298.8,391.1h3.5c2.6,0,4.8,2,4.8,4.7c0,0,0,0,0,0l0,0v0.2l-0.2,3.4c-0.3,3.4-3.1,5.9-6.5,5.8l0,0
			c-3.4,0.1-6.2-2.5-6.4-5.9l-0.2-3.3l0,0c-0.1-2.6,1.9-4.8,4.5-4.8c0,0,0,0,0,0h0.1C298.6,391.1,298.7,391,298.8,391.1z"/>
		<path class="st7" d="M299.9,390.6h3.5c2.6,0,4.8,2,4.8,4.7l0,0v0.2l-0.2,3.4c-0.3,3.4-3.1,5.9-6.5,5.8l0,0
			c-3.4,0.1-6.2-2.5-6.4-5.9l-0.2-3.3l0,0c-0.1-2.6,1.9-4.8,4.5-4.8h0.1C299.7,390.6,299.8,390.6,299.9,390.6z"/>
		<path class="st8" d="M308.3,394.8l-0.3,4c-0.3,3.4-3.1,5.9-6.5,5.8l0,0c-3.4,0.1-6.2-2.5-6.4-5.9l-0.3-4"/>
	</g>
	<g id="Layer_83_copy-24-4-7">
		<path class="st5" d="M295,380.2L295,380.2c-2.6-0.1-4.6-2.2-4.6-4.8v-0.1l0.2-3.3c0.2-3.3,3-5.9,6.4-5.9l0,0
			c3.4-0.1,6.2,2.5,6.5,5.8l0.2,3.4v0.2c-0.1,2.6-2.2,4.7-4.8,4.7h-3.5C295.2,380.2,295.1,380.2,295,380.2z"/>
		<path class="st6" d="M295.5,380L295.5,380c-2.6-0.1-4.6-2.2-4.6-4.8v-0.1l0.2-3.3c0.2-3.3,3-5.9,6.4-5.9l0,0
			c3.4-0.1,6.2,2.5,6.5,5.8l0.2,3.4v0.2c-0.1,2.6-2.2,4.7-4.8,4.7h-3.5C295.7,380,295.6,380,295.5,380z"/>
		<path class="st7" d="M296.7,380.4L296.7,380.4c-2.6-0.1-4.6-2.2-4.6-4.8v-0.1l0.2-3.3c0.2-3.3,3-5.9,6.4-5.9l0,0
			c3.4-0.1,6.2,2.5,6.5,5.8l0.2,3.4v0.2c-0.1,2.6-2.2,4.7-4.8,4.7h-3.5C296.8,380.4,296.7,380.4,296.7,380.4z"/>
		<path class="st8" d="M291.9,376.2l0.3-4c0.2-3.3,3-5.9,6.4-5.9l0,0c3.4-0.1,6.2,2.5,6.5,5.8l0.3,4"/>
	</g>
	<rect x="284.1" y="378.3" class="st4" width="35.2" height="14.1"/>
</g>
<g id="bookable">
	<rect id="area-08.03-status" x="809.9" y="240.4" class="st19" width="72" height="91.8"/>
	<rect id="area-08.04-status" x="736.5" y="240.4" class="st19" width="72" height="91.8"/>
	<rect id="area-08.05-status" x="668" y="240.4" class="st19" width="69.3" height="91.8"/>
	<rect id="area-08.06-status" x="596.9" y="240.4" class="st19" width="70.4" height="91.8"/>
	<rect id="area-08.07-status" x="525.7" y="240" class="st19" width="70.4" height="91.8"/>
	<rect id="area-08.08-status" x="454.2" y="240.4" class="st19" width="70.4" height="91.8"/>
	<rect id="area-08.09-status" x="383.5" y="240" class="st19" width="70.4" height="91.8"/>
	<rect id="area-08.10-status" x="312" y="240" class="st19" width="71.4" height="91.8"/>
	<rect id="area-08.14-status" x="21.1" y="240.9" class="st19" width="162.5" height="121.8"/>
	<polygon id="area-08.13-status" class="st19" points="21.1,436.8 47.7,436.8 47.7,469.8 216.9,469.8 216.9,361.8 21.1,361.8 	"/>
	<rect id="area-08.00-status" x="735.2" y="100.4" class="st19" width="95.9" height="98.9"/>
	<polygon id="area-08.02-status" class="st19" points="950.3,237.6 1102,237.6 1102,439.8 1092.5,439.8 1092.5,459 1071.7,459 
		1071.7,471.3 950.9,471.3 	"/>
</g>
<g id="outline">
	<polygon class="st20" points="21.1,22.8 21.1,436.8 50.1,436.8 50.1,471.3 292.8,471.3 292.8,459 309.8,459 309.8,471.3 
		552.6,471.3 552.6,459.8 569.6,459.8 569.6,471.3 811.7,471.3 811.7,459.8 828.5,459.8 828.5,471.3 1071.7,471.3 1071.7,459 
		1092.5,459 1092.5,439.8 1102,439.8 1102,199.6 1091.7,199.6 1091.7,180.4 1102,180.4 1102,22.8 	"/>
	<polyline class="st21" points="249.8,22.8 249.8,240.1 21.1,240.1 259.2,240.1 259.2,332.2 252.3,332.2 	"/>
	<line class="st21" x1="184.4" y1="240.1" x2="184.4" y2="338.4"/>
	<line class="st21" x1="227.4" y1="332.2" x2="184.4" y2="332.2"/>
	<polyline class="st21" points="21.1,361.8 184.4,361.8 189.5,361.8 	"/>
	<line class="st21" x1="216.9" y1="361.8" x2="216.9" y2="469.8"/>
	<polyline class="st21" points="284.1,332.2 352.4,332.2 312.3,332.2 312.3,240.1 440.1,240.1 881.9,240.1 881.9,332.2 875.7,332.2 
			"/>
	<polyline class="st21" points="809.6,240.1 809.6,332.2 768.1,332.2 850.1,332.2 	"/>
	<polyline class="st21" points="737.4,240.1 737.4,332.2 733.4,332.2 743.1,332.2 	"/>
	<polyline class="st21" points="668,240.1 668,332.2 662.3,332.2 707.3,332.2 	"/>
	<polyline class="st21" points="596.9,240.1 596.9,332.2 590.7,332.2 638.5,332.2 	"/>
	<polyline class="st21" points="525.7,240.1 525.7,332.2 521,332.2 564.4,332.2 	"/>
	<polyline class="st21" points="453.5,240.1 453.5,332.2 448.4,332.2 495.4,332.2 	"/>
	<polyline class="st21" points="383.4,240.1 383.4,332.2 378.4,332.2 422.8,332.2 	"/>
	<line class="st21" x1="249.8" y1="134.6" x2="264.9" y2="134.6"/>
	<polyline class="st21" points="290.1,134.6 294.5,134.6 294.5,91 309,91 	"/>
	<polyline class="st21" points="294.5,134.6 294.5,199.9 442.1,199.9 590.7,199.9 590.7,240.1 590.7,117.7 634.8,117.7 655.8,96.6 	
		"/>
	<line class="st21" x1="372.6" y1="91" x2="372.6" y2="199.9"/>
	<polyline class="st21" points="303.1,45.4 294.5,45.4 294.5,68.2 303.1,68.2 	"/>
	<polyline class="st21" points="294.5,61 398.6,61 398.6,37.4 361.6,37.4 361.6,22.8 575.7,22.8 575.7,72.7 	"/>
	<polyline class="st21" points="531.2,43.3 531.2,37.4 575.7,37.4 396.8,37.4 	"/>
	<polyline class="st21" points="531.2,67.9 531.2,112.1 537.5,112.1 372.6,112.1 396.8,112.1 396.8,61 	"/>
	<polyline class="st21" points="557.2,112.1 575.7,112.1 575.7,98.6 575.7,118.3 590.7,118.3 	"/>
	<polyline class="st21" points="632.6,22.8 632.6,30.5 702.1,100.7 734.9,100.7 1102,100.7 831.1,100.7 831.1,199.2 765,199.2 
		857,199.2 	"/>
	<polyline class="st21" points="734.9,100.7 734.9,199.2 740.4,199.2 	"/>
	<line class="st21" x1="820.1" y1="360" x2="820.1" y2="459.8"/>
	<polyline class="st21" points="1102,237.6 950.3,237.6 950.3,421.9 	"/>
	<line class="st21" x1="950.3" y1="446.4" x2="950.3" y2="471.3"/>
	<line class="st21" x1="440.1" y1="240.1" x2="440.1" y2="227.6"/>
</g>
<g id="icons">
	<text transform="matrix(1 0 0 1 436.478 89.473)" class="st22 st23 st24">Male</text>
	<text transform="matrix(1 0 0 1 455.249 89.473)" class="st22 st23 st24 st25">T</text>
	<text transform="matrix(1 0 0 1 459.117 89.473)" class="st22 st23 st24">oilets</text>
	<circle class="st26" cx="456.9" cy="63.8" r="16.8"/>
	<circle class="st27" cx="456.9" cy="58.5" r="2.6"/>
	<path class="st27" d="M460.9,62.7h-8.2c-0.2,2.2,0.8,4.4,2.6,5.7v4.9h2.9v-4.9C460.1,67.2,461.1,65,460.9,62.7z"/>
	<g id="stairs-2-2-2-2-4">
		<circle class="st26" cx="339.3" cy="129.3" r="16.4"/>
		<text transform="matrix(1 0 0 1 330.435 155.207)" class="st22 st23 st28">Stairs</text>
	</g>
	<g id="Outline_Icons-9-2-2-3">
		<line class="st27" x1="332.3" y1="134.9" x2="345" y2="134.9"/>
		<polyline class="st27" points="342.7,134.9 342.7,132.7 340.5,132.7 340.5,130.5 338.3,130.5 338.3,128.3 336.2,128.3 
			336.2,126.2 332.3,126.2 		"/>
		<line class="st27" x1="338.9" y1="122.5" x2="345.7" y2="129.3"/>
		<polyline class="st27" points="338.9,125.1 338.9,122.5 341.6,122.5 		"/>
		<polyline class="st27" points="345.7,126.5 345.7,129.3 342.9,129.3 		"/>
	</g>
	<circle class="st26" cx="795" cy="391.6" r="16.4"/>
	<text transform="matrix(1 0 0 1 781.878 416.507)" class="st22 st23 st28">Lockers</text>
	<rect x="789.1" y="391" class="st27" width="11.6" height="8.1"/>
	<path class="st27" d="M791.4,391v-4.6c0-1.9,1.6-3.5,3.5-3.5l0,0c1.9,0,3.5,1.6,3.5,3.5v4.6"/>
	<circle class="st27" cx="794.9" cy="395.1" r="0.6"/>
	<circle class="st27" cx="794.9" cy="395.1" r="0.6"/>
	<text transform="matrix(1 0 0 1 631.269 154.834)" class="st22 st23 st28">Entry/ Reception</text>
	<text transform="matrix(1 0 0 1 268.239 279.943)" class="st22 st23 st29">Copy Room</text>
	<circle class="st26" cx="286.5" cy="256.8" r="15.9"/>
	<g id="Outline_Icons-6-2">
		<g id="Outline_Icons-7">
			<path class="st27" d="M282.9,260h-1.6c-0.6,0-1.1-0.5-1.1-1.1v-3.5c0-0.6,0.5-1.1,1.1-1.1H292c0.6,0,1.1,0.5,1.1,1.1v3.5
				c0,0.6-0.5,1.1-1.1,1.1h-1.6"/>
			<polyline class="st27" points="282.9,253.2 282.9,251 288.6,251 290.2,252.6 290.2,253.2 			"/>
			<rect x="282.9" y="258.3" class="st27" width="7.3" height="4.6"/>
			<path class="st27" d="M281.8,255.4c0.3,0,0.5,0.2,0.5,0.5s-0.2,0.5-0.5,0.5s-0.5-0.2-0.5-0.5S281.5,255.4,281.8,255.4z"/>
			<line class="st27" x1="284" y1="259.4" x2="289.1" y2="259.4"/>
			<line class="st27" x1="284" y1="260.5" x2="289.1" y2="260.5"/>
			<line class="st27" x1="284" y1="261.6" x2="289.1" y2="261.6"/>
			<polyline class="st27" points="288.6,251 288.6,252.6 290.2,252.6 			"/>
		</g>
	</g>
	<g id="Outline_Icons-6">
		<text transform="matrix(1 0 0 1 977.704 153.676)" class="st22 st23 st24">Pantry</text>
		<circle class="st26" cx="988.9" cy="129.5" r="16.8"/>
		<g id="Outline_Icons-2-2">
			<path class="st27" d="M994.6,126.2c-1.1,0-2.1-0.7-2.5-1.8c-0.4,0.3-0.9,0.5-1.5,0.5c-1.4,0-2.6-1.2-2.6-2.6c0-0.1,0-0.1,0-0.2
				c-4.1,0.7-6.8,4.6-6.1,8.7c0.7,4.1,4.6,6.8,8.7,6.1c4.1-0.7,6.8-4.6,6.1-8.7c-0.1-0.8-0.4-1.7-0.8-2.4
				C995.6,126,995.1,126.2,994.6,126.2z"/>
			<circle class="st27" cx="986.8" cy="127.5" r="1.3"/>
			<circle class="st27" cx="991.4" cy="130.7" r="0.7"/>
			<circle class="st27" cx="987.5" cy="132.7" r="1.3"/>
			<circle class="st27" cx="992" cy="128.1" r="0.3"/>
			<circle class="st27" cx="984.2" cy="130.1" r="0.3"/>
			<circle class="st27" cx="991.4" cy="134" r="0.3"/>
		</g>
	</g>
	<text transform="matrix(1 0 0 1 894.994 340.461)" class="st22 st23 st28">Gather</text>
	<text transform="matrix(1 0 0 1 294.5 209.729)" class="st22 st23 st28">W</text>
	<text transform="matrix(1 0 0 1 301.539 209.729)" class="st22 st23 st28">ork Room</text>
	<text transform="matrix(1 0 0 1 510.971 223.141)" class="st22 st23 st28">MDF</text>
	<text transform="matrix(1 0 0 1 593.615 74.784)" class="st22 st23 st28">FEC</text>
	<text transform="matrix(1 0 0 1 668.783 378.718)" class="st22 st23 st28">Open</text>
	<text transform="matrix(1 0 0 1 668.783 387.842)" class="st22 st23 st28">O</text>
	<text transform="matrix(1 0 0 1 674.697 387.842)" class="st22 st23 st28">f</text>
	<text transform="matrix(1 0 0 1 676.673 387.842)" class="st22 st23 st28">fice</text>
	<text transform="matrix(1 0 0 1 432.321 378.33)" class="st22 st23 st28">Open</text>
	<text transform="matrix(1 0 0 1 432.321 387.454)" class="st22 st23 st28">O</text>
	<text transform="matrix(1 0 0 1 438.235 387.454)" class="st22 st23 st28">f</text>
	<text transform="matrix(1 0 0 1 440.211 387.454)" class="st22 st23 st28">fice</text>
	<circle class="st30" cx="659.9" cy="127.8" r="16.7"/>
	<path class="st31" d="M664.4,121.3h-8.2c-0.8,0.1-1.4,0.7-1.5,1.5v3c-0.5,0.2-0.8,0.7-0.7,1.3l0.4,3.3c0,0.7,0.6,1.1,1.3,1.1l0,0
		v2.2c0,0.2,0,0.4,0.4,0.4s0.4,0.2,0.6,0c0.6,0,0.9-0.2,0.9-0.6v-2.2h5.2v2.2c0,0.2,0,0.4,0.4,0.4s0.4,0.2,0.6,0
		c0.6,0,0.9-0.2,0.9-0.6v-2.2h0.2c0.6-0.1,1.1-0.5,1.3-1.1l0.4-3.3c0.1-0.6-0.2-1.1-0.7-1.3v-3C665.9,122,665.3,121.3,664.4,121.3
		L664.4,121.3z M655.1,122.7c0-0.6,0.5-1.1,1.1-1.1h8.2c0.6,0,1.1,0.5,1.1,1.1v3c-0.7,0-1.3,0.4-1.3,1.1l-0.2,1.7h-7.4l-0.2-1.7
		c0-0.6-0.7-1.1-1.3-1.1L655.1,122.7L655.1,122.7z M656.8,133.7c-0.2,0-0.4,0-0.6-0.2v-2.2h1.1v2.2
		C657.3,133.7,657.1,133.7,656.8,133.7L656.8,133.7z M664,133.7c-0.2,0-0.4,0-0.6-0.2v-2.2h1.1v2.2
		C664.6,133.7,664.4,133.7,664,133.7L664,133.7z M666.2,127l-0.4,3.3c0,0.6-0.6,0.7-0.9,0.7h-9.3c-0.6,0-0.9-0.2-0.9-0.7l0,0
		l-0.4-3.3c0-0.6,0.2-0.9,0.7-0.9s0.9,0.2,0.9,0.7l0,0l0.2,1.9h8l0.2-1.9c0-0.6,0.6-0.7,0.9-0.7C666,126.1,666.4,126.7,666.2,127
		L666.2,127z"/>
	<text transform="matrix(1 0 0 1 195.591 293.096)" class="st22 st23 st28">Mothe</text>
	<text transform="matrix(1 0 0 1 216.723 293.096)" class="st22 st23 st28">r</text>
	<text transform="matrix(1 0 0 1 219.537 293.096)" class="st22 st23 st28"></text>
	<text transform="matrix(1 0 0 1 221.089 293.096)" class="st22 st23 st28">s Room</text>
	<text transform="matrix(1 0 0 1 867.302 143.755)" class="st12 st32 st33">Gateway Cafe</text>
	<text transform="matrix(1 0 0 1 760.056 154.943)" class="st12 st32 st33">Laumeier</text>
	<text transform="matrix(1 0 0 1 1000.492 360)" class="st12 st32 st33">Forest Park</text>
	<text transform="matrix(1 0 0 1 816.635 293.095)" class="st12 st32 st33">T</text>
	<text transform="matrix(1 0 0 1 822.001 293.095)" class="st12 st32 st33">ower Grove</text>
	<text transform="matrix(1 0 0 1 746.374 293.095)" class="st12 st32 st33">Mississippi</text>
	<text transform="matrix(1 0 0 1 680.102 292.009)" class="st12 st32 st33">Missouri</text>
	<text transform="matrix(1 0 0 1 610.596 292.009)" class="st12 st32 st33">Meramec</text>
	<text transform="matrix(1 0 0 1 534.539 292.009)" class="st12 st32 st33">Partner 807</text>
	<text transform="matrix(1 0 0 1 473.799 286.301)" class="st12 st32 st33">Darryl </text>
	<text transform="matrix(1 0 0 1 469.624 298.301)" class="st12 st32 st33">Piasecki</text>
	<text transform="matrix(1 0 0 1 402.43 284.859)" class="st12 st32 st33">Jimmy </text>
	<text transform="matrix(1 0 0 1 399.376 296.859)" class="st12 st32 st33">Nowicke</text>
	<text transform="matrix(1 0 0 1 334.117 284.858)" class="st12 st32 st33">Chris </text>
	<text transform="matrix(1 0 0 1 324.952 296.858)" class="st12 st32 st33">Hagedorn</text>
	<text transform="matrix(1 0 0 1 100.753 420.8)" class="st12 st32 st33">Castlewood</text>
	<text transform="matrix(1 0 0 1 89.7 308.696)" class="st12 st32 st33">Babler</text>
	<text transform="matrix(1 0 0 1 243.502 434.526)" class="st12 st32 st33">Executive </text>
	<text transform="matrix(1 0 0 1 225.169 446.526)" class="st12 st32 st33">Assistants Corner</text>
</g>
</svg>
