<svg id="Layer_1" data-name="Layer 1" xmlns="http://www.w3.org/2000/svg" viewBox="0 0 1086.9 504"><defs><style>.cls-3{fill:#99b8bf}.cls-4{fill:#8eccce}.cls-5{fill:#f8fafb}.cls-6{fill:#020202;opacity:.15}.cls-11,.cls-14,.cls-20,.cls-23,.cls-6{isolation:isolate}.cls-7{fill:#596069}.cls-15,.cls-8{fill:#9baeb8}.cls-10,.cls-22,.cls-26,.cls-29,.cls-9{fill:none}.cls-10,.cls-9{stroke:#7a8f94;stroke-linecap:round}.cls-10,.cls-15,.cls-16,.cls-22,.cls-26,.cls-29,.cls-9{stroke-miterlimit:10}.cls-9{stroke-width:.568px}.cls-10{stroke-width:.561px}.cls-11,.cls-14{fill:#040404}.cls-11{opacity:.05}.cls-12{fill:#b8bfc1}.cls-13{fill:#fff}.cls-14{opacity:.1}.cls-15{stroke:#93a6ad}.cls-15,.cls-16{stroke-width:.25px}.cls-16,.cls-19{fill:#7a8f94}.cls-16{stroke:#75868a}.cls-20{fill:#575757;opacity:.75}.cls-22{stroke:#ebf1f2;stroke-width:3px}.cls-24{fill:#767e80}.cls-25{fill:#ebf1f2}.cls-26,.cls-29{stroke:#7a8e93}.cls-26{stroke-width:.827px}.cls-27{fill:#ebf2f2}.cls-29{stroke-width:.39px}.cls-30{fill:#757d7f}</style></defs><g id="shadow"><path fill="#4196b1" d="M1.402 4.7V469H27.9v35h245.8v-12.5h17.2V504h245.9v-11.8H554V504h245.2v-11.8h17V504h238.294v-12.5h21.1V472h9.6V228.8h-10.4v-19.5h10.4V4.7H1.402z" id="background"/></g><path fill="#aae0e4" d="M3 47.4v414h29v34.5h242.7v-12.4h17v12.4h242.8v-11.6h17v11.6h242.1v-11.6h16.8v11.6h243.2v-12.4h20.8v-19.2h9.5V224.2h-10.3v-19.3h10.3V47.4H3z" id="background-2" data-name="background"/><g id="spaces"><path class="cls-3" d="M3 5.3v258.6h229.6V158.1h44.6v-43.6h77.3v108.9h218.1v-81.6h44.1l41.6-43.5 25.7 25.9h399.9V3.3L3 5.3z"/><path class="cls-4" d="M166.3 263.1h74.8v92.6h-74.8zM378.7 60.9h134.4v74.7H378.7zM276.4 114.5h78.1v108.9h-78.1z"/><path class="cls-3" d="M422 222.7h150.7v40.4H422z"/><path class="cls-4" d="M488.1 0h70.3v60.7h-70.3z"/></g><g id="furniature"><path class="cls-5" d="M714.2 458l.1-34.2-17-.1-.1 32a2.03 2.03 0 002 2.1z"/><g id="Layer_83_copy-24-2" data-name="Layer 83 copy-24-2"><path class="cls-6" d="M695.5 436.9v3.5a4.716 4.716 0 01-4.7 4.8h-.2l-3.4-.2a6.287 6.287 0 01-5.8-6.5 6.215 6.215 0 015.9-6.4l3.3-.2a4.553 4.553 0 014.8 4.5v.1a.756.756 0 01.1.4z"/><path class="cls-7" d="M695.3 437.4v3.5a4.716 4.716 0 01-4.7 4.8h-.2l-3.4-.2a6.287 6.287 0 01-5.8-6.5 6.215 6.215 0 015.9-6.4l3.3-.2a4.553 4.553 0 014.8 4.5v.1c0 .2.1.3.1.4z"/><path class="cls-8" d="M695.7 438.5v3.5a4.716 4.716 0 01-4.7 4.8h-.2l-3.4-.2a6.287 6.287 0 01-5.8-6.5 6.215 6.215 0 015.9-6.4l3.3-.2a4.553 4.553 0 014.8 4.5v.1c.1.2.2.3.1.4z"/><path class="cls-9" d="M691.5 447l-4-.3a6.287 6.287 0 01-5.8-6.5 6.215 6.215 0 015.9-6.4l4-.3"/></g><path class="cls-5" d="M718.4 385.1l-.1 34.2 17 .1.1-32a2.03 2.03 0 00-2-2.1z"/><g id="Layer_83_copy-24-3" data-name="Layer 83 copy-24-3"><path class="cls-6" d="M737.1 406.2v-3.5a4.716 4.716 0 014.7-4.8h.2l3.4.2a6.287 6.287 0 015.8 6.5 6.215 6.215 0 01-5.9 6.4l-3.3.2a4.553 4.553 0 01-4.8-4.5v-.1a.756.756 0 01-.1-.4z"/><path class="cls-7" d="M737.4 405.7v-3.5a4.716 4.716 0 014.7-4.8h.2l3.4.2a6.287 6.287 0 015.8 6.5 6.215 6.215 0 01-5.9 6.4l-3.3.2a4.553 4.553 0 01-4.8-4.5v-.1a.756.756 0 01-.1-.4z"/><path class="cls-8" d="M736.9 404.6v-3.5a4.716 4.716 0 014.7-4.8h.2l3.4.2a6.287 6.287 0 015.8 6.5 6.215 6.215 0 01-5.9 6.4l-3.3.2a4.553 4.553 0 01-4.8-4.5v-.1c0-.2-.1-.3-.1-.4z"/><path class="cls-9" d="M741.1 396.2l4 .3a6.287 6.287 0 015.8 6.5 6.215 6.215 0 01-5.9 6.4l-4 .3"/></g><path class="cls-5" d="M699.1 385.2a1.967 1.967 0 00-2 2.1l.1 32 17-.1-.1-34.2z"/><g id="Layer_83_copy-24-4" data-name="Layer 83 copy-24-4"><path class="cls-6" d="M695.4 406.5a4.761 4.761 0 01-4.8 4.6h-.1l-3.3-.2a6.357 6.357 0 01-5.9-6.4 6.361 6.361 0 015.8-6.5l3.4-.2h.2a4.847 4.847 0 014.7 4.8v3.9z"/><path class="cls-7" d="M695.2 406a4.761 4.761 0 01-4.8 4.6h-.1l-3.3-.2a6.357 6.357 0 01-5.9-6.4 6.361 6.361 0 015.8-6.5l3.4-.2h.2a4.847 4.847 0 014.7 4.8v3.9z"/><path class="cls-8" d="M695.6 404.8a4.761 4.761 0 01-4.8 4.6h-.1l-3.3-.2a6.357 6.357 0 01-5.9-6.4 6.361 6.361 0 015.8-6.5l3.4-.2h.2a4.847 4.847 0 014.7 4.8v3.9z"/><path class="cls-9" d="M691.4 409.6l-4-.3a6.357 6.357 0 01-5.9-6.4 6.361 6.361 0 015.8-6.5l4-.3"/></g><path class="cls-5" d="M733.4 457.9a1.967 1.967 0 002-2.1l-.1-32-17 .1.1 34.2z"/><g id="Layer_83_copy-24-5" data-name="Layer 83 copy-24-5"><path class="cls-6" d="M737.1 436.7a4.761 4.761 0 014.8-4.6h.1l3.3.2a6.357 6.357 0 015.9 6.4 6.361 6.361 0 01-5.8 6.5l-3.4.2h-.2a4.847 4.847 0 01-4.7-4.8v-3.5c-.1-.2-.1-.3 0-.4z"/><path class="cls-7" d="M737.3 437.1a4.761 4.761 0 014.8-4.6h.1l3.3.2a6.357 6.357 0 015.9 6.4 6.361 6.361 0 01-5.8 6.5l-3.4.2h-.3a4.847 4.847 0 01-4.7-4.8v-3.5a.756.756 0 00.1-.4z"/><path class="cls-8" d="M736.9 438.3a4.761 4.761 0 014.8-4.6h.1l3.3.2a6.357 6.357 0 015.9 6.4 6.361 6.361 0 01-5.8 6.5l-3.4.2h-.2a4.847 4.847 0 01-4.7-4.8v-3.9z"/><path class="cls-9" d="M741 433.5l4 .3a6.357 6.357 0 015.9 6.4 6.361 6.361 0 01-5.8 6.5l-4 .3"/></g><path class="cls-5" d="M603.1 458l.1-34.2-17-.1-.1 32a2.03 2.03 0 002 2.1z"/><g id="Layer_83_copy-24-2-2" data-name="Layer 83 copy-24-2-2"><path class="cls-6" d="M584.4 436.9v3.5a4.716 4.716 0 01-4.7 4.8h-.2l-3.4-.2a6.287 6.287 0 01-5.8-6.5 6.215 6.215 0 015.9-6.4l3.3-.2a4.553 4.553 0 014.8 4.5v.1a.756.756 0 01.1.4z"/><path class="cls-7" d="M584.1 437.4v3.5a4.716 4.716 0 01-4.7 4.8h-.3l-3.4-.2a6.287 6.287 0 01-5.8-6.5 6.215 6.215 0 015.9-6.4l3.3-.2a4.553 4.553 0 014.8 4.5v.1c.2.2.2.3.2.4z"/><path class="cls-8" d="M584.6 438.5v3.5a4.716 4.716 0 01-4.7 4.8h-.2l-3.4-.2a6.287 6.287 0 01-5.8-6.5 6.215 6.215 0 015.9-6.4l3.3-.2a4.553 4.553 0 014.8 4.5v.1a.756.756 0 01.1.4z"/><path class="cls-9" d="M580.4 447l-4-.3a6.287 6.287 0 01-5.8-6.5 6.215 6.215 0 015.9-6.4l4-.3"/></g><path class="cls-5" d="M607.3 385.1l-.1 34.2 17 .1.1-32a2.03 2.03 0 00-2-2.1z"/><g id="Layer_83_copy-24-3-2" data-name="Layer 83 copy-24-3-2"><path class="cls-6" d="M626 406.2v-3.5a4.716 4.716 0 014.7-4.8h.2l3.4.2a6.287 6.287 0 015.8 6.5 6.215 6.215 0 01-5.9 6.4l-3.3.2a4.553 4.553 0 01-4.8-4.5v-.1a.756.756 0 01-.1-.4z"/><path class="cls-7" d="M626.2 405.7v-3.5a4.716 4.716 0 014.7-4.8h.2l3.4.2a6.287 6.287 0 015.8 6.5 6.215 6.215 0 01-5.9 6.4l-3.3.2a4.553 4.553 0 01-4.8-4.5v-.1c0-.2-.1-.3-.1-.4z"/><path class="cls-8" d="M625.8 404.6v-3.5a4.716 4.716 0 014.7-4.8h.2l3.4.2a6.287 6.287 0 015.8 6.5 6.215 6.215 0 01-5.9 6.4l-3.3.2a4.553 4.553 0 01-4.8-4.5v-.1a.756.756 0 01-.1-.4z"/><path class="cls-9" d="M630 396.2l4 .3a6.287 6.287 0 015.8 6.5 6.215 6.215 0 01-5.9 6.4l-4 .3"/></g><path class="cls-5" d="M588 385.2a1.967 1.967 0 00-2 2.1l.1 32 17-.1-.1-34.2z"/><g id="Layer_83_copy-24-4-2" data-name="Layer 83 copy-24-4-2"><path class="cls-6" d="M584.3 406.5a4.761 4.761 0 01-4.8 4.6h-.1l-3.3-.2a6.357 6.357 0 01-5.9-6.4 6.361 6.361 0 015.8-6.5l3.4-.2h.2a4.847 4.847 0 014.7 4.8v3.9z"/><path class="cls-7" d="M584 406a4.761 4.761 0 01-4.8 4.6h-.1l-3.3-.2a6.357 6.357 0 01-5.9-6.4 6.361 6.361 0 015.8-6.5l3.4-.2h.2a4.847 4.847 0 014.7 4.8v3.5c.1.2 0 .3 0 .4z"/><path class="cls-8" d="M584.4 404.8a4.761 4.761 0 01-4.8 4.6h-.1l-3.3-.2a6.357 6.357 0 01-5.9-6.4 6.361 6.361 0 015.8-6.5l3.4-.2h.2a4.847 4.847 0 014.7 4.8v3.5c.1.3 0 .4 0 .4z"/><path class="cls-9" d="M580.3 409.6l-4-.3a6.357 6.357 0 01-5.9-6.4 6.361 6.361 0 015.8-6.5l4-.3"/></g><path class="cls-5" d="M622.2 457.9a1.967 1.967 0 002-2.1l-.1-32-17 .1.1 34.2z"/><g id="Layer_83_copy-24-5-2" data-name="Layer 83 copy-24-5-2"><path class="cls-6" d="M625.9 436.7a4.761 4.761 0 014.8-4.6h.1l3.3.2a6.357 6.357 0 015.9 6.4 6.361 6.361 0 01-5.8 6.5l-3.4.2h-.2a4.847 4.847 0 01-4.7-4.8v-3.9z"/><path class="cls-7" d="M626.2 437.1a4.761 4.761 0 014.8-4.6h.1l3.3.2a6.357 6.357 0 015.9 6.4 6.361 6.361 0 01-5.8 6.5l-3.4.2h-.2a4.847 4.847 0 01-4.7-4.8v-3.5c-.1-.2 0-.3 0-.4z"/><path class="cls-8" d="M625.8 438.3a4.761 4.761 0 014.8-4.6h.1l3.3.2a6.357 6.357 0 015.9 6.4 6.361 6.361 0 01-5.8 6.5l-3.4.2h-.2a4.847 4.847 0 01-4.7-4.8v-3.7c-.1 0 0-.1 0-.2z"/><path class="cls-9" d="M629.9 433.5l4 .3a6.357 6.357 0 015.9 6.4 6.361 6.361 0 01-5.8 6.5l-4 .3"/></g><path class="cls-5" d="M477 458l.1-34.2-17-.1-.1 32a2.03 2.03 0 002 2.1z"/><g id="Layer_83_copy-24-2-3" data-name="Layer 83 copy-24-2-3"><path class="cls-6" d="M458.3 436.9v3.5a4.716 4.716 0 01-4.7 4.8h-.2l-3.4-.2a6.287 6.287 0 01-5.8-6.5 6.215 6.215 0 015.9-6.4l3.3-.2a4.553 4.553 0 014.8 4.5v.1a.756.756 0 01.1.4z"/><path class="cls-7" d="M458.1 437.4v3.5a4.716 4.716 0 01-4.7 4.8h-.2l-3.4-.2a6.287 6.287 0 01-5.8-6.5 6.215 6.215 0 015.9-6.4l3.3-.2a4.553 4.553 0 014.8 4.5v.1c0 .2.1.3.1.4z"/><path class="cls-8" d="M458.5 438.5v3.5a4.716 4.716 0 01-4.7 4.8h-.2l-3.4-.2a6.287 6.287 0 01-5.8-6.5 6.215 6.215 0 015.9-6.4l3.3-.2a4.553 4.553 0 014.8 4.5v.1c.1.2.2.3.1.4z"/><path class="cls-9" d="M454.3 447l-4-.3a6.287 6.287 0 01-5.8-6.5 6.215 6.215 0 015.9-6.4l4-.3"/></g><path class="cls-5" d="M481.2 385.1l-.1 34.2 17 .1.1-32a2.03 2.03 0 00-2-2.1z"/><g id="Layer_83_copy-24-3-3" data-name="Layer 83 copy-24-3-3"><path class="cls-6" d="M499.9 406.2v-3.5a4.716 4.716 0 014.7-4.8h.2l3.4.2a6.287 6.287 0 015.8 6.5 6.215 6.215 0 01-5.9 6.4l-3.3.2a4.553 4.553 0 01-4.8-4.5v-.1a.756.756 0 01-.1-.4z"/><path class="cls-7" d="M500.2 405.7v-3.5a4.716 4.716 0 014.7-4.8h.2l3.4.2a6.287 6.287 0 015.8 6.5 6.215 6.215 0 01-5.9 6.4l-3.3.2a4.553 4.553 0 01-4.8-4.5v-.1a.756.756 0 01-.1-.4z"/><path class="cls-8" d="M499.7 404.6v-3.5a4.716 4.716 0 014.7-4.8h.2l3.4.2a6.287 6.287 0 015.8 6.5 6.215 6.215 0 01-5.9 6.4l-3.3.2a4.553 4.553 0 01-4.8-4.5v-.1c0-.2-.1-.3-.1-.4z"/><path class="cls-9" d="M503.9 396.2l4 .3a6.287 6.287 0 015.8 6.5 6.215 6.215 0 01-5.9 6.4l-4 .3"/></g><path class="cls-5" d="M461.9 385.2a1.967 1.967 0 00-2 2.1l.1 32 17-.1-.1-34.2z"/><g id="Layer_83_copy-24-4-3" data-name="Layer 83 copy-24-4-3"><path class="cls-6" d="M458.2 406.5a4.761 4.761 0 01-4.8 4.6h-.1l-3.3-.2a6.357 6.357 0 01-5.9-6.4 6.361 6.361 0 015.8-6.5l3.4-.2h.2a4.847 4.847 0 014.7 4.8v3.9z"/><path class="cls-7" d="M458 406a4.761 4.761 0 01-4.8 4.6h-.1l-3.3-.2a6.357 6.357 0 01-5.9-6.4 6.361 6.361 0 015.8-6.5l3.4-.2h.2a4.847 4.847 0 014.7 4.8v3.9z"/><path class="cls-8" d="M458.4 404.8a4.761 4.761 0 01-4.8 4.6h-.1l-3.3-.2a6.357 6.357 0 01-5.9-6.4 6.361 6.361 0 015.8-6.5l3.4-.2h.2a4.847 4.847 0 014.7 4.8v3.9z"/><path class="cls-9" d="M454.2 409.6l-4-.3a6.357 6.357 0 01-5.9-6.4 6.361 6.361 0 015.8-6.5l4-.3"/></g><path class="cls-5" d="M496.2 457.9a1.967 1.967 0 002-2.1l-.1-32-17 .1.1 34.2z"/><g id="Layer_83_copy-24-5-3" data-name="Layer 83 copy-24-5-3"><path class="cls-6" d="M499.8 436.7a4.761 4.761 0 014.8-4.6h.1l3.3.2a6.357 6.357 0 015.9 6.4 6.361 6.361 0 01-5.8 6.5l-3.4.2h-.2a4.847 4.847 0 01-4.7-4.8v-3.9z"/><path class="cls-7" d="M500.1 437.1a4.761 4.761 0 014.8-4.6h.1l3.3.2a6.357 6.357 0 015.9 6.4 6.361 6.361 0 01-5.8 6.5l-3.4.2h-.2a4.847 4.847 0 01-4.7-4.8v-3.9z"/><path class="cls-8" d="M499.7 438.3a4.761 4.761 0 014.8-4.6h.1l3.3.2a6.357 6.357 0 015.9 6.4 6.361 6.361 0 01-5.8 6.5l-3.4.2h-.2a4.847 4.847 0 01-4.7-4.8v-3.9z"/><path class="cls-9" d="M503.8 433.5l4 .3a6.357 6.357 0 015.9 6.4 6.361 6.361 0 01-5.8 6.5l-4 .3"/></g><path class="cls-5" d="M365.8 458l.1-34.2-17-.1-.1 32a2.03 2.03 0 002 2.1z"/><g id="Layer_83_copy-24-2-4" data-name="Layer 83 copy-24-2-4"><path class="cls-6" d="M347.2 436.9v3.5a4.716 4.716 0 01-4.7 4.8h-.2l-3.4-.2a6.287 6.287 0 01-5.8-6.5 6.215 6.215 0 015.9-6.4l3.3-.2a4.553 4.553 0 014.8 4.5v.1a.756.756 0 01.1.4z"/><path class="cls-7" d="M346.9 437.4v3.5a4.716 4.716 0 01-4.7 4.8h-.2l-3.4-.2a6.287 6.287 0 01-5.8-6.5 6.215 6.215 0 015.9-6.4l3.3-.2a4.553 4.553 0 014.8 4.5v.1a.756.756 0 01.1.4z"/><path class="cls-8" d="M347.4 438.5v3.5a4.716 4.716 0 01-4.7 4.8h-.2l-3.4-.2a6.287 6.287 0 01-5.8-6.5 6.215 6.215 0 015.9-6.4l3.3-.2a4.553 4.553 0 014.8 4.5v.1a.756.756 0 01.1.4z"/><path class="cls-9" d="M343.1 447l-4-.3a6.287 6.287 0 01-5.8-6.5 6.215 6.215 0 015.9-6.4l4-.3"/></g><path class="cls-5" d="M370.1 385.1l-.1 34.2 17 .1.1-32a2.03 2.03 0 00-2-2.1z"/><g id="Layer_83_copy-24-3-4" data-name="Layer 83 copy-24-3-4"><path class="cls-6" d="M388.8 406.2v-3.5a4.716 4.716 0 014.7-4.8h.2l3.4.2a6.287 6.287 0 015.8 6.5 6.215 6.215 0 01-5.9 6.4l-3.3.2a4.553 4.553 0 01-4.8-4.5v-.1a.756.756 0 01-.1-.4z"/><path class="cls-7" d="M389 405.7v-3.5a4.716 4.716 0 014.7-4.8h.2l3.4.2a6.287 6.287 0 015.8 6.5 6.215 6.215 0 01-5.9 6.4l-3.3.2a4.553 4.553 0 01-4.8-4.5v-.1c0-.2-.1-.3-.1-.4z"/><path class="cls-8" d="M388.5 404.6v-3.5a4.716 4.716 0 014.7-4.8h.2l3.4.2a6.287 6.287 0 015.8 6.5 6.215 6.215 0 01-5.9 6.4l-3.3.2a4.553 4.553 0 01-4.8-4.5v-.1c0-.2-.1-.3-.1-.4z"/><path class="cls-9" d="M392.8 396.2l4 .3a6.287 6.287 0 015.8 6.5 6.215 6.215 0 01-5.9 6.4l-4 .3"/></g><path class="cls-5" d="M350.8 385.2a1.967 1.967 0 00-2 2.1l.1 32 17-.1-.1-34.2z"/><g id="Layer_83_copy-24-4-4" data-name="Layer 83 copy-24-4-4"><path class="cls-6" d="M347.1 406.5a4.761 4.761 0 01-4.8 4.6h-.1l-3.3-.2a6.357 6.357 0 01-5.9-6.4 6.361 6.361 0 015.8-6.5l3.4-.2h.2a4.847 4.847 0 014.7 4.8v3.9z"/><path class="cls-7" d="M346.8 406a4.761 4.761 0 01-4.8 4.6h-.1l-3.3-.2a6.357 6.357 0 01-5.9-6.4 6.361 6.361 0 015.8-6.5l3.4-.2h.2a4.847 4.847 0 014.7 4.8v3.5c.1.2 0 .3 0 .4z"/><path class="cls-8" d="M347.2 404.8a4.761 4.761 0 01-4.8 4.6h-.1l-3.3-.2a6.357 6.357 0 01-5.9-6.4 6.361 6.361 0 015.8-6.5l3.4-.2h.2a4.847 4.847 0 014.7 4.8v3.5c.1.3 0 .4 0 .4z"/><path class="cls-9" d="M343.1 409.6l-4-.3a6.357 6.357 0 01-5.9-6.4 6.361 6.361 0 015.8-6.5l4-.3"/></g><path class="cls-5" d="M385 457.9a1.967 1.967 0 002-2.1l-.1-32-17 .1.1 34.2z"/><g id="Layer_83_copy-24-5-4" data-name="Layer 83 copy-24-5-4"><path class="cls-6" d="M388.7 436.7a4.761 4.761 0 014.8-4.6h.1l3.3.2a6.357 6.357 0 015.9 6.4 6.361 6.361 0 01-5.8 6.5l-3.4.2h-.2a4.847 4.847 0 01-4.7-4.8v-3.9z"/><path class="cls-7" d="M389 437.1a4.761 4.761 0 014.8-4.6h.1l3.3.2a6.357 6.357 0 015.9 6.4 6.361 6.361 0 01-5.8 6.5l-3.4.2h-.2a4.847 4.847 0 01-4.7-4.8v-3.5c-.1-.2 0-.3 0-.4z"/><path class="cls-8" d="M388.5 438.3a4.761 4.761 0 014.8-4.6h.1l3.3.2a6.357 6.357 0 015.9 6.4 6.361 6.361 0 01-5.8 6.5l-3.4.2h-.2a4.847 4.847 0 01-4.7-4.8v-3.7a.139.139 0 000-.2z"/><path class="cls-9" d="M392.6 433.5l4 .3a6.357 6.357 0 015.9 6.4 6.361 6.361 0 01-5.8 6.5l-4 .3"/></g><path class="cls-6" d="M1008.5 169.6h3.8a5 5 0 005.2-4.7v-.3l-.2-3.5a6.678 6.678 0 00-6.8-6.1 6.542 6.542 0 00-6.9 6l-.2 3.5a5.083 5.083 0 004.9 5.1z"/><path class="cls-7" d="M1008.5 170.1h3.8a5 5 0 005.2-4.7v-.3l-.2-3.5a6.678 6.678 0 00-6.8-6.1 6.542 6.542 0 00-6.9 6l-.2 3.5a5.083 5.083 0 004.9 5.1z"/><path class="cls-8" d="M1008.6 171.6h3.5a4.8 4.8 0 004.8-4.8v-.2l-.2-3.5a6.456 6.456 0 00-6.4-6.1 6.37 6.37 0 00-6.4 6l-.2 3.5a4.946 4.946 0 004.5 5.1z"/><path class="cls-10" d="M1017 167.3l-.3-4.1a6.456 6.456 0 00-6.4-6.1 6.37 6.37 0 00-6.4 6l-.3 4.1"/><path class="cls-6" d="M1023.3 178.4v3.8a5 5 0 004.7 5.2h.3l3.5-.2a6.678 6.678 0 006.1-6.8 6.542 6.542 0 00-6-6.9l-3.5-.2a5.083 5.083 0 00-5.1 4.9z"/><path class="cls-7" d="M1022.8 178.4v3.8a5 5 0 004.7 5.2h.3l3.5-.2a6.678 6.678 0 006.1-6.8 6.542 6.542 0 00-6-6.9l-3.5-.2a5.083 5.083 0 00-5.1 4.9z"/><path class="cls-8" d="M1021.3 178.5v3.5a4.8 4.8 0 004.8 4.8h.2l3.5-.2a6.456 6.456 0 006.1-6.4 6.37 6.37 0 00-6-6.4l-3.5-.2a4.946 4.946 0 00-5.1 4.5z"/><path class="cls-10" d="M1025.6 186.9l4.1-.3a6.456 6.456 0 006.1-6.4 6.37 6.37 0 00-6-6.4l-4.1-.3"/><path class="cls-6" d="M1023.3 197.4v3.8a5 5 0 004.7 5.2h.3l3.5-.2a6.678 6.678 0 006.1-6.8 6.542 6.542 0 00-6-6.9l-3.5-.2a5.083 5.083 0 00-5.1 4.9z"/><path class="cls-7" d="M1022.8 197.4v3.8a5 5 0 004.7 5.2h.3l3.5-.2a6.678 6.678 0 006.1-6.8 6.542 6.542 0 00-6-6.9l-3.5-.2a5.083 5.083 0 00-5.1 4.9z"/><path class="cls-8" d="M1021.3 197.5v3.5a4.8 4.8 0 004.8 4.8h.2l3.5-.2a6.456 6.456 0 006.1-6.4 6.37 6.37 0 00-6-6.4l-3.5-.2a4.946 4.946 0 00-5.1 4.5z"/><path class="cls-10" d="M1025.6 205.9l4.1-.3a6.456 6.456 0 006.1-6.4 6.37 6.37 0 00-6-6.4l-4.1-.3"/><path class="cls-6" d="M1011.8 224.6h-3.8a5 5 0 00-5.2 4.7v.3l.2 3.5a6.678 6.678 0 006.8 6.1 6.542 6.542 0 006.9-6l.2-3.5a5.083 5.083 0 00-4.9-5.1z"/><path class="cls-7" d="M1011.8 224.1h-3.8a5 5 0 00-5.2 4.7v.3l.2 3.5a6.678 6.678 0 006.8 6.1 6.542 6.542 0 006.9-6l.2-3.5a5.083 5.083 0 00-4.9-5.1z"/><path class="cls-8" d="M1011.7 222.5h-3.5a4.8 4.8 0 00-4.8 4.8v.2l.2 3.5a6.456 6.456 0 006.4 6.1 6.37 6.37 0 006.4-6l.2-3.5a4.946 4.946 0 00-4.5-5.1z"/><path class="cls-10" d="M1003.3 226.9l.3 4.1a6.456 6.456 0 006.4 6.1 6.37 6.37 0 006.4-6l.3-4.1"/><path class="cls-6" d="M1023.8 213.8v3.8a5 5 0 004.7 5.2h.3l3.5-.2a6.678 6.678 0 006.1-6.8 6.542 6.542 0 00-6-6.9l-3.5-.2a5.083 5.083 0 00-5.1 4.9z"/><path class="cls-7" d="M1023.4 213.8v3.8a5 5 0 004.7 5.2h.3l3.5-.2a6.678 6.678 0 006.1-6.8 6.542 6.542 0 00-6-6.9l-3.5-.2a5.083 5.083 0 00-5.1 4.9z"/><path class="cls-8" d="M1021.8 213.9v3.5a4.8 4.8 0 004.8 4.8h.2l3.5-.2a6.456 6.456 0 006.1-6.4 6.37 6.37 0 00-6-6.4l-3.5-.2a4.946 4.946 0 00-5.1 4.5z"/><path class="cls-10" d="M1026.2 222.3l4.1-.3a6.456 6.456 0 006.1-6.4 6.37 6.37 0 00-6-6.4l-4.1-.3"/><path class="cls-6" d="M997.5 217.5v-3.8a5 5 0 00-4.7-5.2h-.3l-3.5.2a6.678 6.678 0 00-6.1 6.8 6.542 6.542 0 006 6.9l3.5.2a5.083 5.083 0 005.1-4.9z"/><path class="cls-7" d="M998 217.5v-3.8a5 5 0 00-4.7-5.2h-.3l-3.5.2a6.678 6.678 0 00-6.1 6.8 6.542 6.542 0 006 6.9l3.5.2a5.083 5.083 0 005.1-4.9z"/><path class="cls-8" d="M999.5 217.4v-3.5a4.8 4.8 0 00-4.8-4.8h-.2l-3.5.2a6.456 6.456 0 00-6.1 6.4 6.37 6.37 0 006 6.4l3.5.2a4.946 4.946 0 005.1-4.5z"/><path class="cls-10" d="M995.2 209.1l-4.1.3a6.456 6.456 0 00-6.1 6.4 6.37 6.37 0 006 6.4l4.1.3"/><path class="cls-6" d="M997.5 198.6v-3.8a5 5 0 00-4.7-5.2h-.3l-3.5.2a6.678 6.678 0 00-6.1 6.8 6.542 6.542 0 006 6.9l3.5.2a5.083 5.083 0 005.1-4.9z"/><path class="cls-7" d="M998 198.6v-3.8a5 5 0 00-4.7-5.2h-.3l-3.5.2a6.678 6.678 0 00-6.1 6.8 6.542 6.542 0 006 6.9l3.5.2a5.083 5.083 0 005.1-4.9z"/><path class="cls-8" d="M999.5 198.5V195a4.8 4.8 0 00-4.8-4.8h-.2l-3.5.2a6.456 6.456 0 00-6.1 6.4 6.37 6.37 0 006 6.4l3.5.2a4.946 4.946 0 005.1-4.5z"/><path class="cls-10" d="M995.2 190.1l-4.1.3a6.456 6.456 0 00-6.1 6.4 6.37 6.37 0 006 6.4l4.1.3"/><path class="cls-6" d="M996.9 182.2v-3.8a5 5 0 00-4.7-5.2h-.3l-3.5.2a6.678 6.678 0 00-6.1 6.8 6.542 6.542 0 006 6.9l3.5.2a5.083 5.083 0 005.1-4.9z"/><path class="cls-7" d="M997.4 182.2v-3.8a5 5 0 00-4.7-5.2h-.3l-3.5.2a6.678 6.678 0 00-6.1 6.8 6.542 6.542 0 006 6.9l3.5.2a5.083 5.083 0 005.1-4.9z"/><path class="cls-8" d="M999 182.1v-3.5a4.8 4.8 0 00-4.8-4.8h-.2l-3.5.2a6.456 6.456 0 00-6.1 6.4 6.37 6.37 0 006 6.4l3.5.2a4.946 4.946 0 005.1-4.5z"/><path class="cls-10" d="M994.6 173.7l-4.1.3a6.456 6.456 0 00-6.1 6.4 6.37 6.37 0 006 6.4l4.1.3"/><path class="cls-11" d="M1021.7 171.2v51.9c.1.7-.6 1.4-1.6 1.5h-20.4c-1-.1-1.8-.8-1.6-1.5v-51.9c-.1-.7.6-1.4 1.6-1.5h20.4c1 .1 1.7.7 1.6 1.5z"/><path class="cls-12" d="M1022.7 171.2v51.9c.1.7-.6 1.4-1.6 1.5h-20.4c-1-.1-1.8-.8-1.6-1.5v-51.9c-.1-.7.6-1.4 1.6-1.5h20.4c1 .1 1.7.7 1.6 1.5z"/><g id="tables-8"><path class="cls-13" d="M1023.4 183.5v-12.7a1.481 1.481 0 00-1.6-1.2h-10.9v13.9zM1010.8 224.6h10.8c.9 0 1.6-.5 1.6-1.2V211h-12.5z"/><path class="cls-13" d="M1010.8 183.5h12.5v13.8h-12.5zM1010.8 211h-11.2v12.4a1.481 1.481 0 001.6 1.2h9.6z"/><path class="cls-13" d="M999.6 183.5h11.2v13.8h-11.2z"/><path class="cls-13" d="M1010.8 197.2h12.5V211h-12.5z"/><path class="cls-13" d="M999.6 197.2h11.2V211h-11.2zM1010.8 169.6h-9.6c-.9 0-1.6.5-1.6 1.2v12.7h11.2z"/></g><path class="cls-12" d="M813 188h17.7v-43.9h200.6v-18.8H811.8L813 188z"/><path class="cls-13" d="M811.6 188h17.7v-43.9h200.6v-18.8H810.5l1.1 62.7z"/><path class="cls-6" d="M931.5 197.8l3.1-2.2a4.989 4.989 0 001.5-6.9l-.2-.2-2.2-2.7a6.694 6.694 0 00-9.1-1 6.59 6.59 0 00-2.2 8.9l1.9 2.9a5.007 5.007 0 007 1.3z"/><path class="cls-7" d="M931.8 198.2l3.1-2.2a4.989 4.989 0 001.5-6.9l-.2-.2-2.2-2.7a6.694 6.694 0 00-9.1-1 6.59 6.59 0 00-2.2 8.9l1.8 2.9a5.007 5.007 0 007 1.3z"/><path class="cls-8" d="M932.7 199.4l2.8-2a4.7 4.7 0 001.1-6.7l-.1-.2-2.2-2.7a6.416 6.416 0 00-8.7-1.3 6.325 6.325 0 00-1.7 8.6l1.9 2.9a4.853 4.853 0 006.6 1.5z"/><path class="cls-10" d="M937.1 191l-2.6-3.2a6.416 6.416 0 00-8.7-1.3 6.325 6.325 0 00-1.7 8.6l2.2 3.5"/><path class="cls-6" d="M950.4 194.7l2.2 3.1a4.989 4.989 0 006.9 1.5l.2-.2 2.7-2.2a6.694 6.694 0 001-9.1 6.59 6.59 0 00-8.9-2.2l-2.9 1.8a5.007 5.007 0 00-1.3 7z"/><path class="cls-7" d="M950 195l2.2 3.1a4.989 4.989 0 006.9 1.5l.2-.2 2.7-2.2a6.694 6.694 0 001-9.1 6.59 6.59 0 00-8.9-2.2l-2.9 1.9a5.007 5.007 0 00-1.3 7z"/><path class="cls-8" d="M948.8 195.9l2 2.8a4.7 4.7 0 006.7 1.1l.2-.1 2.7-2.2a6.416 6.416 0 001.3-8.7 6.325 6.325 0 00-8.6-1.7l-2.9 1.9a4.853 4.853 0 00-1.5 6.6z"/><path class="cls-10" d="M957.2 200.3l3.2-2.6a6.416 6.416 0 001.3-8.7 6.325 6.325 0 00-8.6-1.7l-3.5 2.2"/><path class="cls-6" d="M953.7 212.1l-3.1 2.2a4.989 4.989 0 00-1.5 6.9l.2.2 2.2 2.7a6.694 6.694 0 009.1 1 6.59 6.59 0 002.2-8.9l-1.8-2.9a5.007 5.007 0 00-7-1.3z"/><path class="cls-7" d="M953.5 211.7l-3.1 2.2a4.989 4.989 0 00-1.5 6.9l.2.2 2.2 2.7a6.694 6.694 0 009.1 1 6.59 6.59 0 002.2-8.9l-1.8-2.9a5.007 5.007 0 00-7-1.3z"/><path class="cls-8" d="M952.5 210.5l-2.8 2a4.7 4.7 0 00-1.1 6.7l.1.2 2.2 2.7a6.416 6.416 0 008.7 1.3 6.325 6.325 0 001.7-8.6l-1.8-2.9a4.853 4.853 0 00-6.6-1.5z"/><path class="cls-10" d="M948.2 218.9l2.6 3.2a6.416 6.416 0 008.7 1.3 6.325 6.325 0 001.7-8.6l-2.2-3.5"/><path class="cls-6" d="M937.8 215.2l-2.2-3.1a4.989 4.989 0 00-6.9-1.5l-.2.2-2.7 2.2a6.694 6.694 0 00-1 9.1 6.59 6.59 0 008.9 2.2l2.9-1.9a5.007 5.007 0 001.3-7z"/><path class="cls-7" d="M938.2 214.9l-2.2-3.1a4.989 4.989 0 00-6.9-1.5l-.2.2-2.7 2.2a6.694 6.694 0 00-1 9.1 6.59 6.59 0 008.9 2.2l2.9-1.9a5.007 5.007 0 001.3-7z"/><path class="cls-8" d="M939.4 213.9l-2-2.8a4.7 4.7 0 00-6.7-1.1l-.2.1-2.7 2.2a6.416 6.416 0 00-1.3 8.7 6.325 6.325 0 008.6 1.7l2.9-1.9a4.853 4.853 0 001.5-6.6z"/><path class="cls-10" d="M931 209.6l-3.2 2.6a6.416 6.416 0 00-1.3 8.7 6.325 6.325 0 008.6 1.7l3.5-2.2"/><circle class="cls-12" cx="943.9" cy="204.4" r="13.9"/><circle class="cls-13" cx="943.9" cy="204" r="13.9"/><path class="cls-6" d="M876.9 197.9l3.1-2.2a4.989 4.989 0 001.5-6.9l-.2-.2-2.2-2.7a6.694 6.694 0 00-9.1-1 6.59 6.59 0 00-2.2 8.9l1.8 2.9a5.007 5.007 0 007 1.3z"/><path class="cls-7" d="M877.2 198.2l3.1-2.2a4.989 4.989 0 001.5-6.9l-.2-.2-2.2-2.7a6.694 6.694 0 00-9.1-1 6.59 6.59 0 00-2.2 8.9l1.8 2.9a5.007 5.007 0 007 1.3z"/><path class="cls-8" d="M878.2 199.4l2.8-2a4.7 4.7 0 001.1-6.7l-.1-.2-2.2-2.7a6.416 6.416 0 00-8.7-1.3 6.325 6.325 0 00-1.7 8.6l1.8 2.9a4.853 4.853 0 006.6 1.5z"/><path class="cls-10" d="M882.5 191.1l-2.6-3.2a6.416 6.416 0 00-8.7-1.3 6.325 6.325 0 00-1.7 8.6l2.2 3.5"/><path class="cls-6" d="M895.9 194.8l2.2 3.1a4.989 4.989 0 006.9 1.5l.2-.2 2.7-2.2a6.694 6.694 0 001-9.1 6.59 6.59 0 00-8.9-2.2l-2.9 1.9a5.007 5.007 0 00-1.3 7z"/><path class="cls-7" d="M895.5 195l2.2 3.1a4.989 4.989 0 006.9 1.5l.2-.2 2.7-2.2a6.694 6.694 0 001-9.1 6.59 6.59 0 00-8.9-2.2l-2.9 1.9a5.007 5.007 0 00-1.3 7z"/><path class="cls-8" d="M894.3 196l2 2.8a4.7 4.7 0 006.7 1.1l.2-.1 2.7-2.2a6.416 6.416 0 001.3-8.7 6.325 6.325 0 00-8.6-1.7l-2.9 1.9a4.853 4.853 0 00-1.5 6.6z"/><path class="cls-10" d="M902.6 200.3l3.2-2.6a6.416 6.416 0 001.3-8.7 6.325 6.325 0 00-8.6-1.7l-3.5 2.2"/><path class="cls-6" d="M899.2 212.2l-3.1 2.2a4.989 4.989 0 00-1.5 6.9l.2.2 2.2 2.7a6.694 6.694 0 009.1 1 6.59 6.59 0 002.2-8.9l-1.8-2.9a5.007 5.007 0 00-7-1.3z"/><path class="cls-7" d="M898.9 211.8l-3.1 2.2a4.989 4.989 0 00-1.5 6.9l.2.2 2.2 2.7a6.694 6.694 0 009.1 1 6.59 6.59 0 002.2-8.9l-1.8-2.9a5.007 5.007 0 00-7-1.3z"/><path class="cls-8" d="M898 210.6l-2.8 2a4.7 4.7 0 00-1.1 6.7l.1.2 2.2 2.7a6.416 6.416 0 008.7 1.3 6.325 6.325 0 001.7-8.6L905 212a4.853 4.853 0 00-6.6-1.5z"/><path class="cls-10" d="M893.6 218.9l2.6 3.2a6.416 6.416 0 008.7 1.3 6.325 6.325 0 001.7-8.6l-2.2-3.5"/><path class="cls-6" d="M883.3 215.2l-2.2-3.1a4.989 4.989 0 00-6.9-1.5l-.2.2-2.7 2.2a6.694 6.694 0 00-1 9.1 6.59 6.59 0 008.9 2.2l2.9-1.9a5.007 5.007 0 001.3-7z"/><path class="cls-7" d="M883.7 215l-2.2-3.1a4.989 4.989 0 00-6.9-1.5l-.2.2-2.7 2.2a6.694 6.694 0 00-1 9.1 6.59 6.59 0 008.9 2.2l2.9-1.9a5.007 5.007 0 001.3-7z"/><path class="cls-8" d="M884.9 214l-2-2.8a4.7 4.7 0 00-6.7-1.1l-.2.1-2.7 2.2a6.416 6.416 0 00-1.3 8.7 6.325 6.325 0 008.6 1.7l2.9-1.9a4.853 4.853 0 001.5-6.6z"/><path class="cls-10" d="M876.5 209.7l-3.2 2.6a6.416 6.416 0 00-1.3 8.7 6.325 6.325 0 008.6 1.7l3.5-2.2"/><circle class="cls-12" cx="889.4" cy="204.4" r="13.9"/><circle class="cls-13" cx="889.4" cy="204.1" r="13.9"/><path class="cls-11" d="M838.8 412.3l-9.3.1a1.11 1.11 0 01-1.1-1.1v-.1l-.1-7.7a1.11 1.11 0 011.1-1.1h.1l9.3-.1a1.11 1.11 0 011.1 1.1v.1l.1 7.7a1.278 1.278 0 01-1.2 1.1z"/><path class="cls-12" d="M838.5 412.7l-9.3.1a1.11 1.11 0 01-1.1-1.1v-.1l-.1-7.7a1.11 1.11 0 011.1-1.1h.1l9.3-.1a1.11 1.11 0 011.1 1.1v.1l.1 7.7a1.278 1.278 0 01-1.2 1.1z"/><path class="cls-13" d="M828.9 413.2h1.4l7.9-.1a1.11 1.11 0 001.1-1.1v-.1l-.1-7.8a1.11 1.11 0 00-1.1-1.1h-.1l-7.9.1h-1.4a1.11 1.11 0 00-1.1 1.1v.1l.1 7.8a1.2 1.2 0 001.2 1.1z"/><path class="cls-14" d="M855.5 422.8a11.944 11.944 0 11-14.1 9.3 11.9 11.9 0 0114.1-9.3z"/><circle class="cls-12" cx="853.283" cy="433.291" r="11.9" transform="rotate(-1.58 853.353 433.307)"/><circle class="cls-5" cx="853.483" cy="432.191" r="11.9" transform="rotate(-1.58 853.55 432.222)"/><path class="cls-11" d="M798.5 401.3v60.3c0 1-.6 1.8-1.3 1.8h-15.5c-.8 0-1.3-.8-1.3-1.8v-60.3c0-1 .6-1.8 1.3-1.8h15.5c.8 0 1.3.8 1.3 1.8z"/><path class="cls-12" d="M799.3 401.3v60.3c0 1-.6 1.8-1.3 1.8h-15.5c-.8 0-1.3-.8-1.3-1.8v-60.3c0-1 .6-1.8 1.3-1.8H798c.7 0 1.3.8 1.3 1.8z"/><g id="tables-7-17"><path class="cls-13" d="M799.7 420.3v-19c0-1-.6-1.8-1.3-1.8h-8.2v20.8zM790.1 463.4h8.2c.8 0 1.3-.8 1.3-1.8V441H790l.1 22.4zM790.1 420.3h9.6V441h-9.6z"/><path class="cls-13" d="M790.1 441h-8.6v20.6c0 1 .6 1.8 1.3 1.8h7.3zM781.7 420.3h8.6V441h-8.6zM790.1 399.5h-7.3c-.8 0-1.3.8-1.3 1.8v19h8.6z"/></g><path class="cls-15" d="M826.1 461.9h-21v-14.3h21v14.3"/><path class="cls-16" d="M810.3 447.6h-5.2l.1 14.3h5.1v-14.3zM810.3 388.1l-4.8-3.3c-.1 0-.1 0-.1.1l5 3.4v-.2z"/><path class="cls-16" d="M808.8 459l-3.4 2.7a.618.618 0 00.7.2h19.2a.961.961 0 00.9-.6v-3.5h-15.7z"/><path class="cls-15" d="M826.1 410.9h-21v-12.1h21V410.9"/><path stroke-width=".257" stroke="#93a6ad" stroke-miterlimit="10" fill="#9baeb8" d="M810.2 388.3H826v10.5h-15.8z"/><path class="cls-16" d="M810.3 388.3l-5-3.4a.52.52 0 00-.2.4l.1 13.4h5.2zM810.3 398.8h-5.2l.1 12.1h5.1v-12.1z"/><path class="cls-15" d="M826.1 423.3h-21v-12.2h21v12.2"/><path class="cls-16" d="M810.3 411.1h-5.2l.1 12.2h5.1v-12.2z"/><path class="cls-15" d="M826.1 435.3h-21v-12.1h21V435.3"/><path class="cls-16" d="M810.3 423.2h-5.2l.1 12.1h5.1v-12.1z"/><path class="cls-15" d="M826.1 447.8h-21v-12.2h21v12.2"/><path class="cls-16" d="M810.3 435.6h-5.2l.1 12.2h5.1v-12.2z"/><path d="M810.5 388.3h15.6v-3.5h-20.2a.52.52 0 00-.4.2z" stroke-width=".256" stroke="#75868a" fill="#7a8f94" stroke-miterlimit="10"/><path class="cls-14" d="M878.8 414.6l.3-.2 12.1-8.9c.1-.1.2 0 .3-.1l2.2-1.4a1.226 1.226 0 00.4-1.6l-7.5-12a1.129 1.129 0 00-1.5-.4l-2.3 1.3-.2.1-13.6 6.9a1 1 0 00-.5.4 1.079 1.079 0 00-.5 1.5l.5.8a.781.781 0 00.4.4 45.556 45.556 0 007.2 11.7 1.421 1.421 0 00.2.6l.5.8a1.012 1.012 0 001.4.4l.1-.1z"/><path class="cls-7" d="M879.8 414l.3-.2 12.1-8.9c.1-.1.2 0 .3-.1l2.2-1.4a1.226 1.226 0 00.4-1.6l-.7-1.1-6.1-9.9-.6-1a1.012 1.012 0 00-1.4-.4l-2.3 1.3-.2.1-13.6 6.9a1 1 0 00-.5.4 1.282 1.282 0 00-.5 1.5l.5.8a.781.781 0 00.4.4 45.556 45.556 0 007.2 11.7 1.421 1.421 0 00.2.6l.5.8a1.012 1.012 0 001.4.4l.1-.1z"/><path class="cls-8" d="M878.7 413.3a49.658 49.658 0 01-8.8-14.2 1.356 1.356 0 01.7-1.8l15.3-7.7a2.331 2.331 0 013 .8l6.1 9.9a2.326 2.326 0 01-.6 3l-13.8 10.2a1.309 1.309 0 01-1.9-.2z"/><path class="cls-19" d="M891.3 404.2l-7.5-12.2a1.176 1.176 0 01.4-1.6l2.3-1.3a1.129 1.129 0 011.5.4l7.4 12.1a1.176 1.176 0 01-.4 1.6l-2.2 1.4a1.1 1.1 0 01-1.5-.4z"/><path class="cls-19" d="M870 400.1l-.5-.8a1.129 1.129 0 01.4-1.5l16.5-8.4.9 1.9-16 9.3a1.062 1.062 0 01-1.3-.5zM877.8 412.9l.5.8a1.012 1.012 0 001.4.4l.1-.1 14.9-11-1.3-1.7-15.4 10.1a1.013 1.013 0 00-.2 1.5z"/><g id="Layer_25-21-37" data-name="Layer 25-21-37"><circle class="cls-14" cx="887.4" cy="429.1" r="9.2"/><circle class="cls-12" cx="887.4" cy="428" r="9.2"/><circle class="cls-8" cx="887.4" cy="426.8" r="9.2"/></g><path class="cls-14" d="M867.9 453.7l.2.2 12.6 8.3c.1.1.1.2.2.3l2.1 1.6a1.127 1.127 0 001.6-.2l8.7-11.2a1.087 1.087 0 00-.1-1.5l-2-1.7-.2-.1-11.2-10.4-.6-.3a1.116 1.116 0 00-1.6.1l-.6.7a.764.764 0 00-.2.5 46.579 46.579 0 00-8.5 10.8 1 1 0 00-.5.4l-.6.7a.966.966 0 00.1 1.4l.1.1z"/><path class="cls-7" d="M868.8 454.5l.2.2 12.6 8.3c.1.1.1.2.2.3l2.1 1.6a1.127 1.127 0 001.6-.2l.8-1.1 7.2-9.2.7-.9a1.007 1.007 0 00-.1-1.5l-2-1.7-.2-.1-11.2-10.4-.6-.3a1.116 1.116 0 00-1.6.1l-.6.7a.764.764 0 00-.2.5 46.579 46.579 0 00-8.5 10.8 1 1 0 00-.5.4l-.6.7a.966.966 0 00.1 1.4l.1.1z"/><path class="cls-8" d="M869.1 453.1a45.294 45.294 0 0110.3-13.1 1.389 1.389 0 011.9 0l12.6 11.7a2.208 2.208 0 01.2 3.1l-7.2 9.2a2.3 2.3 0 01-3 .5l-14.3-9.4a1.478 1.478 0 01-.5-2z"/><path class="cls-19" d="M882 461.8l8.8-11.2a1.127 1.127 0 011.6-.2l2 1.7a1.1 1.1 0 01.2 1.5l-8.8 11.1a1.127 1.127 0 01-1.6.2l-2.1-1.6a1.093 1.093 0 01-.1-1.5z"/><path class="cls-19" d="M878.4 440.5l.6-.7a1.1 1.1 0 011.5-.2l13.6 12.6-1.4 1.5-14.2-11.8a1.071 1.071 0 01-.1-1.4zM869.2 452.1l-.6.7a.966.966 0 00.1 1.4l.1.1 15.5 10.1 1.1-1.8-14.8-11a1.284 1.284 0 00-1.4.5z"/><path class="cls-11" d="M838.5 451.1l-9.3.1a1.11 1.11 0 01-1.1-1.1v-.1l-.1-7.7a1.11 1.11 0 011.1-1.1h.1l9.3-.1a1.11 1.11 0 011.1 1.1v.1l.1 7.7a1.383 1.383 0 01-1.2 1.1z"/><path class="cls-12" d="M838.2 451.5l-9.3.1a1.11 1.11 0 01-1.1-1.1v-.1l-.1-7.7a1.11 1.11 0 011.1-1.1h.1l9.3-.1a1.11 1.11 0 011.1 1.1v.1l.1 7.7a1.278 1.278 0 01-1.2 1.1z"/><path class="cls-13" d="M828.6 452h1.4l7.9-.1a1.11 1.11 0 001.1-1.1v-.1l-.1-7.8a1.11 1.11 0 00-1.1-1.1h.1l-7.9.1h-1.4a1.11 1.11 0 00-1.1 1.1v.1l.1 7.8a.972.972 0 001 1.1z"/><path class="cls-14" d="M694.2 154.7l.3-.2 12.1-8.9c.1-.1.2 0 .3-.1l2.2-1.4a1.226 1.226 0 00.4-1.6l-7.5-12a1.129 1.129 0 00-1.5-.4l-2.3 1.3-.2.1-13.6 6.9a1 1 0 00-.5.4 1.079 1.079 0 00-.5 1.5l.5.8a.781.781 0 00.4.4 45.556 45.556 0 007.2 11.7 1.421 1.421 0 00.2.6l.5.8a1.012 1.012 0 001.4.4l.1-.1z"/><path class="cls-7" d="M695.3 154.2l.3-.2 12.1-8.9c.1-.1.2 0 .3-.1l2.2-1.4a1.226 1.226 0 00.4-1.6l-.7-1.1-6.1-9.9-.6-1a1.1 1.1 0 00-1.5-.4l-2.3 1.3-.2.1-13.6 6.9a1 1 0 00-.5.4 1.282 1.282 0 00-.5 1.5l.5.8a.781.781 0 00.4.4 45.556 45.556 0 007.2 11.7 1.421 1.421 0 00.2.6l.5.8a1.012 1.012 0 001.4.4l.1-.1z"/><path class="cls-8" d="M694.1 153.5a49.658 49.658 0 01-8.8-14.2 1.356 1.356 0 01.7-1.8l15.3-7.7a2.331 2.331 0 013 .8l6.1 9.9a2.326 2.326 0 01-.6 3L696 153.7a1.309 1.309 0 01-1.9-.2z"/><path class="cls-19" d="M706.7 144.4l-7.5-12.2a1.176 1.176 0 01.4-1.6l2.3-1.3a1.129 1.129 0 011.5.4l7.4 12.1a1.176 1.176 0 01-.4 1.6l-2.2 1.4a1.129 1.129 0 01-1.5-.4z"/><path class="cls-19" d="M685.5 140.3l-.5-.8a1.129 1.129 0 01.4-1.5l16.5-8.4.9 1.9-16 9.3a1.062 1.062 0 01-1.3-.5zM693.2 153.1l.5.8a1.012 1.012 0 001.4.4l.1-.1 14.9-11-1.3-1.7-15.4 10.1a1.084 1.084 0 00-.2 1.5z"/><g id="Layer_25-21-37-2" data-name="Layer 25-21-37-2"><circle class="cls-14" cx="702.8" cy="169.3" r="9.2"/><circle class="cls-12" cx="702.8" cy="168.2" r="9.2"/><circle class="cls-8" cx="702.8" cy="167" r="9.2"/></g><path class="cls-14" d="M683.4 193.9l.2.2 12.6 8.3c.1.1.1.2.2.3l2.1 1.6a1.127 1.127 0 001.6-.2l8.7-11.2a1.087 1.087 0 00-.1-1.5l-2-1.7-.2-.1-11.2-10.4-.6-.3a1.116 1.116 0 00-1.6.1l-.6.7a.764.764 0 00-.2.5 46.579 46.579 0 00-8.5 10.8 1 1 0 00-.5.4l-.6.7a.966.966 0 00.1 1.4l.1.1z"/><path class="cls-7" d="M684.2 194.6l.2.2 12.6 8.3c.1.1.1.2.2.3l2.1 1.6a1.127 1.127 0 001.6-.2l.8-1.1 7.2-9.2.7-.9a1.007 1.007 0 00-.1-1.5l-2-1.7-.2-.1-11.2-10.4-.6-.3a1.116 1.116 0 00-1.6.1l-.6.7a.764.764 0 00-.2.5 46.579 46.579 0 00-8.5 10.8 1 1 0 00-.5.4l-.6.7a.966.966 0 00.1 1.4l.1.1z"/><path class="cls-8" d="M684.5 193.3a45.294 45.294 0 0110.3-13.1 1.389 1.389 0 011.9 0l12.6 11.7a2.208 2.208 0 01.2 3.1l-7.2 9.2a2.3 2.3 0 01-3 .5l-14.3-9.4a1.5 1.5 0 01-.5-2z"/><path class="cls-19" d="M697.4 201.9l8.8-11.2a1.127 1.127 0 011.6-.2l2 1.7a1.1 1.1 0 01.2 1.5l-8.8 11.2a1.127 1.127 0 01-1.6.2l-2.1-1.6a1.215 1.215 0 01-.1-1.6z"/><path class="cls-19" d="M693.9 180.6l.6-.7a1.1 1.1 0 011.5-.2l13.6 12.6-1.4 1.5-14.3-11.7a1.086 1.086 0 010-1.5zM684.6 192.3l-.6.7a.966.966 0 00.1 1.4l.1.1 15.5 10.1 1.1-1.8-14.8-11a1.284 1.284 0 00-1.4.5z"/><g id="Layer_83_copy-24-4-5" data-name="Layer 83 copy-24-4-5"><path class="cls-6" d="M612.7 221.1a5.507 5.507 0 015.4 5.7v.1l-.2 3.9a7.553 7.553 0 01-7.6 7 7.554 7.554 0 01-7.7-6.9l-.2-4v-.3a5.657 5.657 0 015.7-5.5h4.2c.2 0 .3.1.4 0z"/><path class="cls-7" d="M612.1 221.4a5.507 5.507 0 015.4 5.7v.1l-.2 3.9a7.553 7.553 0 01-7.6 7 7.554 7.554 0 01-7.7-6.9l-.2-4v-.3a5.657 5.657 0 015.7-5.5h4.2c.2 0 .3.1.4 0z"/><path class="cls-8" d="M610.7 221a5.507 5.507 0 015.4 5.7v.1l-.2 3.9a7.553 7.553 0 01-7.6 7 7.554 7.554 0 01-7.7-6.9l-.2-4v-.3a5.657 5.657 0 015.7-5.5h4.2c.2-.1.3 0 .4 0z"/><path class="cls-9" d="M616.4 225.9l-.4 4.8a7.553 7.553 0 01-7.6 7 7.554 7.554 0 01-7.7-6.9l-.4-4.8"/></g><path class="cls-14" d="M575 205.3h48.7v-8.6h18.2v38.9h-16.5v-14.7H575v-15.6z"/><path class="cls-5" d="M574.9 204.1h48.7v-8.6h18.2v38.9h-16.4v-14.8h-50.5v-15.5z"/><g id="Layer_83_copy-24-2-5" data-name="Layer 83 copy-24-2-5"><path class="cls-6" d="M216.7 414.5h3.5a4.716 4.716 0 014.8 4.7v.2l-.2 3.4a6.287 6.287 0 01-6.5 5.8 6.215 6.215 0 01-6.4-5.9l-.2-3.3a4.553 4.553 0 014.5-4.8h.1a.756.756 0 01.4-.1z"/><path class="cls-7" d="M217.1 414.8h3.5a4.716 4.716 0 014.8 4.7v.2l-.2 3.4a6.287 6.287 0 01-6.5 5.8 6.215 6.215 0 01-6.4-5.9l-.2-3.3a4.553 4.553 0 014.5-4.8h.1c.3-.1.4-.2.4-.1z"/><path class="cls-8" d="M218.3 414.3h3.5a4.716 4.716 0 014.8 4.7v.2l-.2 3.4a6.287 6.287 0 01-6.5 5.8 6.215 6.215 0 01-6.4-5.9l-.2-3.3a4.553 4.553 0 014.5-4.8h.1a.756.756 0 01.4-.1z"/><path class="cls-9" d="M226.7 418.5l-.3 4a6.287 6.287 0 01-6.5 5.8 6.215 6.215 0 01-6.4-5.9l-.3-4"/></g><g id="Layer_83_copy-24-4-6" data-name="Layer 83 copy-24-4-6"><path class="cls-6" d="M220.9 403.9a4.761 4.761 0 01-4.6-4.8v-.1l.2-3.3a6.357 6.357 0 016.4-5.9 6.361 6.361 0 016.5 5.8l.2 3.4v.2a4.847 4.847 0 01-4.8 4.7h-3.9z"/><path class="cls-7" d="M221.4 403.7a4.761 4.761 0 01-4.6-4.8v-.1l.2-3.3a6.357 6.357 0 016.4-5.9 6.361 6.361 0 016.5 5.8l.2 3.4v.2a4.847 4.847 0 01-4.8 4.7h-3.9z"/><path class="cls-8" d="M222.5 404.1a4.761 4.761 0 01-4.6-4.8v-.1l.2-3.3a6.357 6.357 0 016.4-5.9 6.361 6.361 0 016.5 5.8l.2 3.4v.2a4.847 4.847 0 01-4.8 4.7h-3.9z"/><path class="cls-9" d="M217.8 399.9l.3-4a6.357 6.357 0 016.4-5.9 6.361 6.361 0 016.5 5.8l.3 4"/></g><path class="cls-5" d="M202.5 402h35.2v14.1h-35.2z"/><path class="cls-5" d="M236.7 387.9h30.6v46h-30.6z"/><g id="Layer_83_copy-24-2-6" data-name="Layer 83 copy-24-2-6"><path class="cls-6" d="M280.2 414.3h3.5a4.716 4.716 0 014.8 4.7v.2l-.2 3.4a6.287 6.287 0 01-6.5 5.8 6.215 6.215 0 01-6.4-5.9l-.2-3.3a4.553 4.553 0 014.5-4.8h.1a.756.756 0 01.4-.1z"/><path class="cls-7" d="M280.7 414.6h3.5a4.716 4.716 0 014.8 4.7v.2l-.2 3.4a6.287 6.287 0 01-6.5 5.8 6.215 6.215 0 01-6.4-5.9l-.2-3.3a4.553 4.553 0 014.5-4.8h.1c.2-.1.3-.2.4-.1z"/><path class="cls-8" d="M281.8 414.1h3.5a4.716 4.716 0 014.8 4.7v.2l-.2 3.4a6.287 6.287 0 01-6.5 5.8 6.215 6.215 0 01-6.4-5.9l-.2-3.3a4.553 4.553 0 014.5-4.8h.1a.756.756 0 01.4-.1z"/><path class="cls-9" d="M290.2 418.3l-.3 4a6.287 6.287 0 01-6.5 5.8 6.215 6.215 0 01-6.4-5.9l-.3-4"/></g><g id="Layer_83_copy-24-4-7" data-name="Layer 83 copy-24-4-7"><path class="cls-6" d="M276.9 403.7a4.761 4.761 0 01-4.6-4.8v-.1l.2-3.3a6.357 6.357 0 016.4-5.9 6.361 6.361 0 016.5 5.8l.2 3.4v.2a4.847 4.847 0 01-4.8 4.7h-3.9z"/><path class="cls-7" d="M277.4 403.5a4.761 4.761 0 01-4.6-4.8v-.1l.2-3.3a6.357 6.357 0 016.4-5.9 6.361 6.361 0 016.5 5.8l.2 3.4v.2a4.847 4.847 0 01-4.8 4.7h-3.9z"/><path class="cls-8" d="M278.6 403.9a4.761 4.761 0 01-4.6-4.8v-.1l.2-3.3a6.357 6.357 0 016.4-5.9 6.361 6.361 0 016.5 5.8l.2 3.4v.2a4.847 4.847 0 01-4.8 4.7h-3.9z"/><path class="cls-9" d="M273.8 399.7l.3-4a6.357 6.357 0 016.4-5.9 6.361 6.361 0 016.5 5.8l.3 4"/></g><path class="cls-5" d="M266 401.8h35.2v14.1H266z"/></g><g id="bookings"><path id="area-08.803-status" class="cls-20" d="M791.8 263.9h72v91.8h-72z"/><path id="area-08.804-status" class="cls-20" d="M718.4 263.9h72v91.8h-72z"/><path id="area-08.805-status" class="cls-20" d="M649.9 263.9h69.3v91.8h-69.3z"/><path id="area-08.806-status" class="cls-20" d="M578.8 263.9h70.4v91.8h-70.4z"/><path id="area-08.807-status" class="cls-20" d="M507.6 263.5H578v91.8h-70.4z"/><path id="area-08.808-status" class="cls-20" d="M436.1 263.9h70.4v91.8h-70.4z"/><path id="area-08.809-status" class="cls-20" d="M365.4 263.5h70.4v91.8h-70.4z"/><path id="area-08.810-status" class="cls-20" d="M293.9 263.5h71.4v91.8h-71.4z"/><path id="area-08.814-status" class="cls-20" d="M3 264.4h162.5v121.8H3z"/><path id="area-08.813-status" class="cls-20" d="M3 460.3h26.6v33h169.2v-108H3v75z"/><path id="area-08.800-status" class="cls-20" d="M717.1 123.9H813v98.9h-95.9z"/><path id="area-08.802-status" class="cls-20" d="M932.2 261.1h151.7v202.2h-9.5v19.2h-20.8v12.3H932.8l-.6-233.7z"/></g><g id="outline"><path stroke-width="6" stroke="#ebf1f2" stroke-miterlimit="10" fill="none" d="M3 3.3v457h29v34.5h242.7v-12.3h17v12.3h242.8v-11.5h17v11.5h242.1v-11.5h16.8v11.5h243.2v-12.3h20.8v-19.2h9.5V223.1h-10.3v-19.2h10.3V3.3H3z"/><path class="cls-22" d="M231.7 46.3v217.3H3h238.1v92.1h-6.9M166.3 263.6v98.3M209.3 355.7h-43M3 385.3h168.4M198.8 385.3v108M266 355.7h68.3-40.1v-92.1h569.6v92.1h-6.2"/><path class="cls-22" d="M791.5 263.6v92.1H750h82M719.3 263.6v92.1h-4 9.7M649.9 263.6v92.1h-5.7 45M578.8 263.6v92.1h-6.2 47.8M507.6 263.6v92.1h-4.7 43.4M435.4 263.6v92.1h-5.1 47M365.3 263.6v92.1h-5 44.4M231.7 158.1h15.1M272 158.1h4.4v-43.6h14.5M276.4 158.1v65.3h296.2v40.2-122.4h44.1l21-21.1M354.5 114.5v108.9M285 68.9h-8.6v22.8h8.6"/><path class="cls-22" d="M276.4 84.5h104.1V60.9h-37V4.3h214.1v91.9"/><path class="cls-22" d="M513.1 66.8v-5.9h44.5-178.9M513.1 91.4v44.2h6.3-164.9 24.2V84.5M539.1 135.6h18.5v-13.5 19.7h15M614.5 46.3V54l69.5 70.2H1083.9 813v98.5h-66.1 92"/><path class="cls-22" d="M716.8 124.2v98.5h5.5M802 383.5v99.8M1083.9 261.1H932.2v184.3M932.2 469.9v24.9M422 263.6v-12.5"/></g><g id="icons"><g class="cls-23"><path class="cls-24" d="M419 112.9v-5.5h1.1l1.3 3.9a3.385 3.385 0 00.3.8 4.649 4.649 0 00.3-.9l1.3-3.9h1v5.5h-.7v-4.6l-1.7 4.7h-.7l-1.6-4.7v4.7zM427.9 112.4c-.3.2-.5.4-.7.5a1.7 1.7 0 01-.7.1 1.493 1.493 0 01-1-.3 1.234 1.234 0 01-.4-.8.749.749 0 01.1-.5.781.781 0 01.4-.4.764.764 0 01.5-.2 3.536 3.536 0 01.6-.1 9.68 9.68 0 001.2-.2v-.2a.845.845 0 00-.2-.6c-.2-.2-.4-.2-.8-.2a1.165 1.165 0 00-.7.2.855.855 0 00-.3.6l-.7-.1a4.875 4.875 0 01.3-.7.918.918 0 01.6-.4 2.769 2.769 0 01.9-.1 1.949 1.949 0 01.8.1 2.186 2.186 0 01.5.3.764.764 0 01.2.5v2.7c0 .2.1.3.2.5h-.7a1.483 1.483 0 00-.1-.7zm0-1.5a5.307 5.307 0 01-1.1.3 3.536 3.536 0 00-.6.1c-.1.1-.2.1-.3.2a.367.367 0 00-.1.3c0 .2.1.3.2.5s.3.2.6.2a1.445 1.445 0 00.7-.2.664.664 0 00.4-.5 1.483 1.483 0 00.1-.7v-.2zM429.6 112.9v-5.5h.7v5.5zM434.1 111.7l.7.1a2.075 2.075 0 01-.6 1 2.016 2.016 0 01-1.1.3 1.978 1.978 0 01-1.4-.5 2.456 2.456 0 01-.5-1.5 2.544 2.544 0 01.5-1.6 1.678 1.678 0 011.4-.6 1.9 1.9 0 011.3.5 2.456 2.456 0 01.5 1.5v.2h-3a1.159 1.159 0 00.4 1c.3.2.5.4.8.4a1.072 1.072 0 00.6-.2 2.092 2.092 0 00.4-.6zm-2.2-1.1h2.2a1.135 1.135 0 00-.3-.8.909.909 0 00-.8-.4 1.135 1.135 0 00-.8.3 1.222 1.222 0 00-.3.9z"/></g><g class="cls-23"><path class="cls-24" d="M439.2 112.9V108h-1.8v-.7h4.4v.7h-1.9v4.9z"/></g><g class="cls-23"><path class="cls-24" d="M441.3 110.9a2.352 2.352 0 01.6-1.7 1.844 1.844 0 011.3-.4 2.168 2.168 0 011.4.5 1.964 1.964 0 01.5 1.5 3.73 3.73 0 01-.2 1.2 1.575 1.575 0 01-.7.7 1.645 1.645 0 01-1 .2 2.168 2.168 0 01-1.4-.5 1.721 1.721 0 01-.5-1.5zm.7 0a2.133 2.133 0 00.3 1.2 1 1 0 001.6 0 1.922 1.922 0 00.3-1.2 1.609 1.609 0 00-.3-1.1 1 1 0 00-1.6 0 1.609 1.609 0 00-.3 1.1zM445.8 108.2v-.8h.7v.8zm0 4.7v-4h.7v4zM447.5 112.9v-5.5h.7v5.5zM452 111.7l.7.1a2.075 2.075 0 01-.6 1 2.016 2.016 0 01-1.1.3 1.978 1.978 0 01-1.4-.5 2.456 2.456 0 01-.5-1.5 2.544 2.544 0 01.5-1.6 1.678 1.678 0 011.4-.6 1.9 1.9 0 011.3.5 2.456 2.456 0 01.5 1.5v.2h-3a1.159 1.159 0 00.4 1c.3.2.5.4.8.4a1.072 1.072 0 00.6-.2 2.092 2.092 0 00.4-.6zm-2.2-1.1h2.2a1.135 1.135 0 00-.3-.8.909.909 0 00-.8-.4 1.135 1.135 0 00-.8.3 1.222 1.222 0 00-.3.9zM455 112.3l.1.6a4.331 4.331 0 00-.5.1 1.268 1.268 0 01-.6-.1c-.2-.1-.2-.2-.3-.3s-.1-.4-.1-.8v-2.3h-.5v-.6h.5v-1l.7-.4v1.4h.7v.5h-.7v2.7a.1.1 0 00.1.1h.2c.2.2.3.2.4.1zM455.4 111.7l.7-.1a.6.6 0 00.3.6 1.325 1.325 0 001.4 0 .4.4 0 00.2-.4.52.52 0 00-.2-.4c-.1-.1-.3-.1-.7-.2a4.053 4.053 0 01-1-.3.781.781 0 01-.4-.4 1.3 1.3 0 010-1 1.38 1.38 0 01.3-.4c.1-.1.2-.1.4-.2a1.268 1.268 0 01.6-.1 1.949 1.949 0 01.8.1 1 1 0 01.5.4 1.421 1.421 0 01.2.6l-.7.1a.55.55 0 00-.3-.5.845.845 0 00-.6-.2 1.445 1.445 0 00-.7.2.52.52 0 00-.2.4c0 .1 0 .2.1.2a.769.769 0 00.3.2 3.933 3.933 0 01.6.2 4.053 4.053 0 011 .3.781.781 0 01.4.4 1 1 0 010 1.2 1.024 1.024 0 01-.6.5 1.884 1.884 0 01-.8.2 2.133 2.133 0 01-1.2-.3 6.6 6.6 0 01-.4-1.1z"/></g><circle class="cls-25" cx="438.8" cy="87.3" r="16.8"/><circle class="cls-26" cx="438.8" cy="82" r="2.6"/><path class="cls-26" d="M442.8 86.2h-8.2a6.377 6.377 0 002.6 5.7v4.9h2.9v-4.9a6.041 6.041 0 002.7-5.7z"/><g id="stairs-2-2-2-2-4"><circle class="cls-25" cx="321.2" cy="152.8" r="16.4"/><g class="cls-23"><path class="cls-24" d="M312.7 176.9l.7-.1a1.445 1.445 0 00.2.7 1 1 0 00.5.4 1.884 1.884 0 00.8.2 1.483 1.483 0 00.7-.1 2.186 2.186 0 00.5-.3.764.764 0 00.2-.5c0-.2 0-.3-.1-.4a2.186 2.186 0 00-.5-.3c-.1-.1-.5-.1-1-.3s-.9-.2-1.1-.3a1.024 1.024 0 01-.6-.5 1.445 1.445 0 01-.2-.7 2.353 2.353 0 01.2-.8 1.794 1.794 0 01.7-.5 2.959 2.959 0 011-.2 3.6 3.6 0 011.1.2 1.344 1.344 0 01.7.6 1.4 1.4 0 01.3.9l-.7.1a1.2 1.2 0 00-1.3-1.1 2.509 2.509 0 00-1 .2.864.864 0 00-.3.6.764.764 0 00.2.5 2.469 2.469 0 001.1.4 4.986 4.986 0 011.2.3 1.057 1.057 0 01.7.6 1.077 1.077 0 01.2.8 1.884 1.884 0 01-.2.8 1.344 1.344 0 01-.7.6 3.553 3.553 0 01-1 .2 3.73 3.73 0 01-1.2-.2 2.407 2.407 0 01-.8-.6 3.013 3.013 0 01-.3-1.2zM319.4 178.1l.1.6a4.331 4.331 0 00-.5.1 1.268 1.268 0 01-.6-.1l-.3-.3c-.1-.1-.1-.4-.1-.8v-2.3h-.5v-.5h.5v-1l.7-.4v1.4h.7v.5h-.7v2.7a.1.1 0 00.1.1h.6zM322.6 178.2a1.27 1.27 0 01-.7.4 1.7 1.7 0 01-.7.1 1.493 1.493 0 01-1-.3 1.135 1.135 0 01-.3-.8.749.749 0 01.1-.5 1.38 1.38 0 01.3-.4.764.764 0 01.5-.2 3.536 3.536 0 01.6-.1c.5-.1.9-.1 1.2-.2v-.2a.845.845 0 00-.2-.6c-.2-.2-.4-.2-.8-.2a1.445 1.445 0 00-.7.2.6.6 0 00-.3.6l-.7-.1a4.875 4.875 0 01.3-.7.918.918 0 01.6-.4 2.769 2.769 0 01.9-.1 1.949 1.949 0 01.8.1 2.186 2.186 0 01.5.3.764.764 0 01.2.5v2.7c0 .2.1.3.2.5h-.7c0-.3-.1-.4-.1-.6zm-.1-1.5a5.307 5.307 0 01-1.1.3 3.536 3.536 0 00-.6.1c-.1 0-.2.1-.3.2a.367.367 0 00-.1.3.52.52 0 00.2.4.845.845 0 00.6.2 1.445 1.445 0 00.7-.2 1 1 0 00.4-.5 1.483 1.483 0 00.1-.7v-.1zM324.3 174v-.8h.7v.8zm0 4.7v-3.9h.7v3.9zM325.9 178.7v-3.9h.6v.6a5.923 5.923 0 01.4-.6.6.6 0 01.4-.1 1.854 1.854 0 01.7.2l-.2.6a.9.9 0 00-.5-.1.6.6 0 00-.4.1.52.52 0 00-.2.4 1.949 1.949 0 00-.1.8v2.1h-.7zM328.2 177.5l.7-.1a.6.6 0 00.3.6 1.325 1.325 0 001.4 0 .4.4 0 00.2-.4.52.52 0 00-.2-.4c-.1-.1-.3-.1-.7-.2a4.053 4.053 0 01-1-.3.781.781 0 01-.4-.4 1.3 1.3 0 010-1 1.38 1.38 0 01.3-.4c.1-.1.2-.1.4-.2a1.268 1.268 0 01.6-.1 1.949 1.949 0 01.8.1 1 1 0 01.5.4 1.421 1.421 0 01.2.6l-.7.1a.55.55 0 00-.3-.5.845.845 0 00-.6-.2 1.445 1.445 0 00-.7.2c-.2.1-.2.2-.2.4 0 .1 0 .2.1.2a.769.769 0 00.3.2 3.933 3.933 0 01.6.2 4.053 4.053 0 011 .3.781.781 0 01.4.4 1.072 1.072 0 01.2.6 1.421 1.421 0 01-.2.6c-.1.2-.3.3-.6.5a1.2 1.2 0 01-.8.2 2.133 2.133 0 01-1.2-.3c-.3-.2-.3-.7-.4-1.1z"/></g></g><g id="Outline_Icons-9-2-2-3" data-name="Outline Icons-9-2-2-3"><path class="cls-26" d="M314.2 158.4h12.7M324.6 158.4v-2.2h-2.2V154h-2.2v-2.2h-2.1v-2.1h-3.9M320.8 146l6.8 6.8M320.8 148.6V146h2.7M327.6 150v2.8h-2.8"/></g><circle class="cls-25" cx="776.9" cy="415.1" r="16.4"/><g class="cls-23"><path class="cls-24" d="M764.3 440v-5.4h.7v4.8h2.7v.6zM768.3 438a1.969 1.969 0 01.6-1.6 1.746 1.746 0 011.2-.4 1.9 1.9 0 011.3.5 2.07 2.07 0 01.5 1.5 3.73 3.73 0 01-.2 1.2 2.336 2.336 0 01-.7.7 1.645 1.645 0 01-1 .2 1.728 1.728 0 01-1.3-.5 2.537 2.537 0 01-.4-1.6zm.6 0a1.609 1.609 0 00.3 1.1 1 1 0 001.6 0 1.922 1.922 0 00.3-1.2 1.609 1.609 0 00-.3-1.1 1.234 1.234 0 00-.8-.4.909.909 0 00-.8.4 3.5 3.5 0 00-.3 1.2zM775.3 438.5l.7.1a1.975 1.975 0 01-.6 1.1 1.5 1.5 0 01-1.1.4 1.9 1.9 0 01-1.3-.5 2.456 2.456 0 01-.5-1.5 3.6 3.6 0 01.2-1.1 1.407 1.407 0 01.6-.7 1.486 1.486 0 01.9-.2 2.016 2.016 0 011.1.3 1.346 1.346 0 01.5.9l-.6.1a1.628 1.628 0 00-.3-.6 1.072 1.072 0 00-.6-.2.909.909 0 00-.8.4 1.609 1.609 0 00-.3 1.1 2.133 2.133 0 00.3 1.2 1.234 1.234 0 00.8.4 1.445 1.445 0 00.7-.2 1.929 1.929 0 00.3-1zM776.5 440v-5.4h.7v3.1l1.6-1.6h.9l-1.5 1.5 1.7 2.5h-.8l-1.3-2-.5.5v1.6h-.8zM783 438.7l.7.1a1.456 1.456 0 01-.6.9 2.016 2.016 0 01-1.1.3 2.168 2.168 0 01-1.4-.5 2.456 2.456 0 01-.5-1.5 2.07 2.07 0 01.5-1.5 1.536 1.536 0 011.3-.5 1.9 1.9 0 011.3.5 2.456 2.456 0 01.5 1.5v.2h-2.9a1.159 1.159 0 00.4 1 1.135 1.135 0 00.8.3 1.072 1.072 0 00.6-.2.918.918 0 00.4-.6zm-2.2-1.1h2.2a.779.779 0 00-.3-.7.909.909 0 00-.8-.4 1.135 1.135 0 00-.8.3 6.89 6.89 0 00-.3.8zM784.6 440v-3.9h.6v.6a5.923 5.923 0 01.4-.6.6.6 0 01.4-.1 1.854 1.854 0 01.7.2l-.2.6a.9.9 0 00-.5-.1.6.6 0 00-.4.1.52.52 0 00-.2.4 1.949 1.949 0 00-.1.8v2.1h-.7zM786.8 438.8l.7-.1a.6.6 0 00.3.6 1.325 1.325 0 001.4 0 .4.4 0 00.2-.4.52.52 0 00-.2-.4c-.1-.1-.3-.1-.7-.2a4.053 4.053 0 01-1-.3.781.781 0 01-.4-.4 1.3 1.3 0 010-1c.1-.1.2-.3.3-.4s.2-.1.4-.2a1.268 1.268 0 01.6-.1 1.949 1.949 0 01.8.1 1 1 0 01.5.4 1.421 1.421 0 01.2.6l-.7.1a.55.55 0 00-.3-.5.845.845 0 00-.6-.2 1.445 1.445 0 00-.7.2.52.52 0 00-.2.4c0 .1 0 .2.1.2a.769.769 0 00.3.2 3.933 3.933 0 01.6.2 4.053 4.053 0 011 .3.781.781 0 01.4.4 1.072 1.072 0 01.2.6 1.421 1.421 0 01-.2.6c-.1.2-.3.3-.6.5a1.2 1.2 0 01-.8.2 2.133 2.133 0 01-1.2-.3c-.3-.2-.3-.7-.4-1.1z"/></g><path class="cls-26" d="M771 414.5h11.6v8.1H771zM773.3 414.5v-4.6a3.543 3.543 0 013.5-3.5 3.543 3.543 0 013.5 3.5v4.6"/><circle class="cls-26" cx="776.8" cy="418.6" r=".6"/><circle class="cls-26" cx="776.8" cy="418.6" r=".6"/><g class="cls-23"><path class="cls-24" d="M613.8 178.3v-5.4h3.9v.6h-3.2v1.7h3v.6h-3v1.9h3.3v.6zM618.7 178.3v-3.9h.6v.6a1.486 1.486 0 011.3-.6 1.7 1.7 0 01.7.1 1.38 1.38 0 01.4.3.764.764 0 01.2.5v3.1h-.7v-2.5c0-.3 0-.5-.1-.6s-.1-.2-.3-.3a.749.749 0 00-.5-.1.908.908 0 00-.7.3 1.327 1.327 0 00-.3 1v2.2h-.6zM624.4 177.7l.1.6a4.331 4.331 0 00-.5.1 1.268 1.268 0 01-.6-.1l-.3-.3c-.1-.1-.1-.4-.1-.8v-2.3h-.5v-.5h.5v-1l.7-.4v1.4h.7v.5h-.7v2.7a.1.1 0 00.1.1h.6zM625.1 178.3v-3.9h.6v.6a5.923 5.923 0 01.4-.6.6.6 0 01.4-.1 1.854 1.854 0 01.7.2l-.2.6a.9.9 0 00-.5-.1.6.6 0 00-.4.1.52.52 0 00-.2.4 1.949 1.949 0 00-.1.8v2.1h-.7zM627.6 179.8l-.1-.6c.1 0 .3.1.4.1a.6.6 0 00.4-.1c.1-.1.2-.1.2-.2s.1-.2.2-.5a.31.31 0 01.1-.2l-1.5-4h.7l.8 2.3.3.9.3-.9.8-2.3h.7l-1.5 4c-.2.4-.3.7-.4.9a2.181 2.181 0 01-.4.5c-.2.1-.3.2-.5.2a.749.749 0 01-.5-.1zM630.9 178.4l1.6-5.6h.5l-1.6 5.6zM635.7 178.3v-5.4h2.4a3.11 3.11 0 011.1.1 1.024 1.024 0 01.6.5 1.077 1.077 0 01.2.8 1.284 1.284 0 01-.4 1c-.2.3-.6.4-1.2.5a1.38 1.38 0 01.4.3 4.349 4.349 0 01.6.7l.9 1.5h-.9l-.7-1.1a9.223 9.223 0 01-.5-.8c-.1-.2-.3-.3-.4-.4a.367.367 0 00-.3-.1h-1.2v2.4zm.8-3h1.5a1.949 1.949 0 00.8-.1 1.38 1.38 0 00.4-.3.749.749 0 00.1-.5.6.6 0 00-.3-.6c-.2-.2-.5-.2-.9-.2h-1.7v1.7zM643.8 177l.7.1a1.456 1.456 0 01-.6.9 2.016 2.016 0 01-1.1.3 2.168 2.168 0 01-1.4-.5 2.456 2.456 0 01-.5-1.5 2.07 2.07 0 01.5-1.5 1.536 1.536 0 011.3-.5 1.9 1.9 0 011.3.5 2.456 2.456 0 01.5 1.5v.2h-2.9a1.159 1.159 0 00.4 1 1.135 1.135 0 00.8.3 1.072 1.072 0 00.6-.2.918.918 0 00.4-.6zm-2.2-1h2.2a.779.779 0 00-.3-.7.909.909 0 00-.8-.4 1.135 1.135 0 00-.8.3 2.192 2.192 0 00-.3.8zM647.9 176.9l.7.1a1.975 1.975 0 01-.6 1.1 1.5 1.5 0 01-1.1.4 1.9 1.9 0 01-1.3-.5 2.456 2.456 0 01-.5-1.5 3.6 3.6 0 01.2-1.1 1.407 1.407 0 01.6-.7 1.486 1.486 0 01.9-.2 2.016 2.016 0 011.1.3 1.346 1.346 0 01.5.9l-.7.1a1.628 1.628 0 00-.3-.6 1.072 1.072 0 00-.6-.2.909.909 0 00-.8.4 1.609 1.609 0 00-.3 1.1 2.133 2.133 0 00.3 1.2.909.909 0 00.8.4 1.445 1.445 0 00.7-.2 1.854 1.854 0 00.4-1zM651.9 177l.7.1a1.456 1.456 0 01-.6.9 2.016 2.016 0 01-1.1.3 2.168 2.168 0 01-1.4-.5 2.456 2.456 0 01-.5-1.5 2.07 2.07 0 01.5-1.5 1.536 1.536 0 011.3-.5 1.9 1.9 0 011.3.5 2.456 2.456 0 01.5 1.5v.2h-2.9a1.159 1.159 0 00.4 1 1.135 1.135 0 00.8.3 1.072 1.072 0 00.6-.2 1.538 1.538 0 00.4-.6zm-2.2-1h2.2a.779.779 0 00-.3-.7.909.909 0 00-.8-.4 1.135 1.135 0 00-.8.3c-.2.1-.3.4-.3.8zM653.4 179.8v-5.5h.6v.5a1.205 1.205 0 01.5-.5 1.445 1.445 0 01.7-.2 1.613 1.613 0 01.9.3 1.344 1.344 0 01.6.7 3.553 3.553 0 01.2 1 3.6 3.6 0 01-.2 1.1 1.407 1.407 0 01-.6.7 1.613 1.613 0 01-.9.3 1.268 1.268 0 01-.6-.1.781.781 0 01-.4-.4v1.9h-.8zm.6-3.4a1.609 1.609 0 00.3 1.1 1.27 1.27 0 00.7.4.909.909 0 00.8-.4 1.922 1.922 0 00.3-1.2 1.609 1.609 0 00-.3-1.1 1.27 1.27 0 00-.7-.4 1.033 1.033 0 00-.8.4 1.922 1.922 0 00-.3 1.2zM659.1 177.7l.1.6a4.331 4.331 0 00-.5.1 1.268 1.268 0 01-.6-.1l-.3-.3c-.1-.1-.1-.4-.1-.8v-2.3h-.5v-.5h.5v-1l.7-.4v1.4h.7v.5h-.7v2.7a.1.1 0 00.1.1h.6zM659.7 173.6v-.7h.7v.8h-.7zm0 4.7v-3.9h.7v3.9zM661.2 176.3a1.969 1.969 0 01.6-1.6 1.746 1.746 0 011.2-.4 1.9 1.9 0 011.3.5 2.07 2.07 0 01.5 1.5 3.73 3.73 0 01-.2 1.2 2.336 2.336 0 01-.7.7 1.645 1.645 0 01-1 .2 1.728 1.728 0 01-1.3-.5 2.537 2.537 0 01-.4-1.6zm.7 0a1.609 1.609 0 00.3 1.1 1 1 0 001.6 0 1.922 1.922 0 00.3-1.2 1.609 1.609 0 00-.3-1.1 1.234 1.234 0 00-.8-.4.909.909 0 00-.8.4 2.375 2.375 0 00-.3 1.2zM665.6 178.3v-3.9h.6v.6a1.486 1.486 0 011.3-.6 1.7 1.7 0 01.7.1 1.38 1.38 0 01.4.3.764.764 0 01.2.5v3.1h-.7v-2.5c0-.3 0-.5-.1-.6s-.1-.2-.3-.3a.749.749 0 00-.5-.1.908.908 0 00-.7.3 1.327 1.327 0 00-.3 1v2.2h-.6z"/></g><g class="cls-23"><path class="cls-24" d="M254.4 301.6l.7.2a1.955 1.955 0 01-.8 1.3 2.116 2.116 0 01-1.4.4 2.9 2.9 0 01-1.4-.3 2 2 0 01-.8-1 3.417 3.417 0 010-2.8 1.962 1.962 0 01.9-.9 2.768 2.768 0 011.3-.3 1.844 1.844 0 011.3.4 1.64 1.64 0 01.7 1.1l-.7.2a1.4 1.4 0 00-1.4-1.1 1.689 1.689 0 00-1 .3 1.555 1.555 0 00-.6.8 3.553 3.553 0 00-.2 1 5.019 5.019 0 00.2 1.2.877.877 0 00.6.7 1.486 1.486 0 00.9.2 1.689 1.689 0 001-.3c.5-.4.7-.7.7-1.1zM255.7 301.5a2.111 2.111 0 01.6-1.6 1.594 1.594 0 011.2-.4 2.106 2.106 0 011.3.5 1.978 1.978 0 01.5 1.4 3.73 3.73 0 01-.2 1.2c-.1.3-.4.5-.6.7a1.344 1.344 0 01-.9.2 1.9 1.9 0 01-1.3-.5 2.09 2.09 0 01-.6-1.5zm.6 0a1.609 1.609 0 00.3 1.1 1.234 1.234 0 00.8.4.909.909 0 00.8-.4 1.609 1.609 0 00.3-1.1 1.8 1.8 0 00-.3-1.1 1.234 1.234 0 00-.8-.4.909.909 0 00-.8.4 1.8 1.8 0 00-.3 1.1zM260 304.9v-5.3h.6v.5a1 1 0 01.5-.4 1.268 1.268 0 01.6-.1 1.613 1.613 0 01.9.3 2.036 2.036 0 01.6.7 2.959 2.959 0 01.2 1 4.253 4.253 0 01-.2 1.1 1.344 1.344 0 01-.6.7 1.2 1.2 0 01-.8.2 1.268 1.268 0 01-.6-.1 1.38 1.38 0 01-.4-.3v1.8h-.8zm.6-3.4a1.8 1.8 0 00.3 1.1 1.012 1.012 0 00.7.4.755.755 0 00.7-.4 2.167 2.167 0 000-2.2.813.813 0 00-1.4 0 1.8 1.8 0 00-.3 1.1zM264 304.9l-.1-.6c.1 0 .3.1.4.1s.3 0 .3-.1a.215.215 0 00.2-.2c0-.1.1-.2.2-.5a.31.31 0 01.1-.2l-1.4-3.8h.7l.8 2.2.3.9.3-.9.8-2.2h.6l-1.4 3.9c-.2.4-.3.7-.4.9a1 1 0 01-.4.5.749.749 0 01-.5.1c-.2 0-.3-.1-.5-.1zM269.9 303.4v-5.2h2.3a3.42 3.42 0 011.1.1 2.651 2.651 0 01.6.5 1.077 1.077 0 01.2.8.975.975 0 01-.4.9 1.626 1.626 0 01-1.1.5 1.38 1.38 0 01.4.3 4.349 4.349 0 01.6.7l.9 1.4h-.9l-.7-1.1a6.818 6.818 0 00-.5-.7.781.781 0 00-.4-.4.367.367 0 00-.3-.1h-1.2v2.3zm.6-2.9h1.5c.3 0 .6 0 .7-.1a1.38 1.38 0 00.4-.3.749.749 0 00.1-.5.713.713 0 00-.3-.6c-.2-.2-.5-.2-.9-.2h-1.7v1.7zM274.8 301.5a2.111 2.111 0 01.6-1.6 1.594 1.594 0 011.2-.4 2.106 2.106 0 011.3.5 1.978 1.978 0 01.5 1.4 3.73 3.73 0 01-.2 1.2c-.1.3-.4.5-.6.7a1.344 1.344 0 01-.9.2 1.881 1.881 0 01-1.9-2zm.7 0a1.609 1.609 0 00.3 1.1 1.234 1.234 0 00.8.4.909.909 0 00.8-.4 1.609 1.609 0 00.3-1.1 1.8 1.8 0 00-.3-1.1 1.234 1.234 0 00-.8-.4.909.909 0 00-.8.4 1.8 1.8 0 00-.3 1.1zM278.9 301.5a2.111 2.111 0 01.6-1.6 1.594 1.594 0 011.2-.4 2.106 2.106 0 011.3.5 1.978 1.978 0 01.5 1.4 3.73 3.73 0 01-.2 1.2c-.1.3-.4.5-.6.7a1.344 1.344 0 01-.9.2 1.9 1.9 0 01-1.3-.5 2.09 2.09 0 01-.6-1.5zm.7 0a1.609 1.609 0 00.3 1.1 1.234 1.234 0 00.8.4.909.909 0 00.8-.4 1.609 1.609 0 00.3-1.1 1.8 1.8 0 00-.3-1.1 1.234 1.234 0 00-.8-.4.909.909 0 00-.8.4 1.8 1.8 0 00-.3 1.1zM283.2 303.4v-3.8h.6v.5a1 1 0 01.5-.4 1.325 1.325 0 011.4 0 1 1 0 01.4.5 1.525 1.525 0 011.2-.7 1.222 1.222 0 01.9.3 1.327 1.327 0 01.3 1v2.6h-.6V301a1.083 1.083 0 00-.1-.6c0-.1-.1-.2-.2-.3s-.2-.1-.4-.1a.908.908 0 00-.7.3 1.222 1.222 0 00-.3.9v2.2h-.6v-2.5a.845.845 0 00-.2-.6.764.764 0 00-.5-.2.9.9 0 00-.5.1c-.2.1-.3.2-.3.4a1.719 1.719 0 00-.1.8v2z"/></g><circle class="cls-25" cx="268.4" cy="280.3" r="15.9"/><g id="Outline_Icons-6-2" data-name="Outline Icons-6-2"><g id="Outline_Icons-7" data-name="Outline Icons-7"><path class="cls-26" d="M264.8 283.5h-1.6a1.11 1.11 0 01-1.1-1.1v-3.5a1.11 1.11 0 011.1-1.1h10.7a1.11 1.11 0 011.1 1.1v3.5a1.11 1.11 0 01-1.1 1.1h-1.6M264.8 276.7v-2.2h5.7l1.6 1.6v.6"/><path class="cls-26" d="M264.8 281.8h7.3v4.6h-7.3zM263.7 278.9a.5.5 0 11-.5.5.472.472 0 01.5-.5zM265.9 282.9h5.1M265.9 284h5.1M265.9 285.1h5.1M270.5 274.5v1.6h1.6"/></g></g><g id="Outline_Icons-6" data-name="Outline Icons-6"><g class="cls-23"><path class="cls-24" d="M960.2 177.1v-5.5h2.1a1.719 1.719 0 01.8.1.908.908 0 01.7.3 1.756 1.756 0 01.4.5 1.884 1.884 0 01.2.8 1.594 1.594 0 01-.4 1.2 2.173 2.173 0 01-1.6.5h-1.5v2.2h-.7zm.7-2.9h1.4a1.327 1.327 0 001-.3.908.908 0 00.3-.7 1.421 1.421 0 00-.2-.6.55.55 0 00-.5-.3h-2zM967.9 176.7c-.3.2-.5.4-.7.5a1.7 1.7 0 01-.7.1 1.493 1.493 0 01-1-.3 1.234 1.234 0 01-.4-.8.749.749 0 01.1-.5.781.781 0 01.4-.4.764.764 0 01.5-.2 3.536 3.536 0 01.6-.1 9.68 9.68 0 001.2-.2v-.2a.845.845 0 00-.2-.6c-.2-.2-.4-.2-.8-.2a1.165 1.165 0 00-.7.2.855.855 0 00-.3.6l-.7-.1a4.875 4.875 0 01.3-.7.918.918 0 01.6-.4 2.769 2.769 0 01.9-.1 1.949 1.949 0 01.8.1 2.186 2.186 0 01.5.3.764.764 0 01.2.5v2.7c0 .2.1.3.2.5h-.7a3.548 3.548 0 00-.1-.7zm-.1-1.6a5.307 5.307 0 01-1.1.3 3.536 3.536 0 00-.6.1c-.1.1-.2.1-.3.2a.367.367 0 00-.1.3c0 .2.1.3.2.5a.845.845 0 00.6.2 1.445 1.445 0 00.7-.2 1.205 1.205 0 00.5-.5 1.483 1.483 0 00.1-.7v-.2zM969.6 177.1v-4h.6v.6a1.561 1.561 0 011.3-.7 1.7 1.7 0 01.7.1 2.186 2.186 0 01.5.3.764.764 0 01.2.5v3.2h-.7v-2.4c0-.3 0-.5-.1-.6s-.1-.2-.3-.3a.9.9 0 00-.5-.1 1.07 1.07 0 00-1.1 1.3v2.2h-.6zM975.4 176.5l.1.6a4.331 4.331 0 00-.5.1 1.268 1.268 0 01-.6-.1c-.2-.1-.2-.2-.3-.3s-.1-.4-.1-.8v-2.3h-.5v-.5h.5v-1l.7-.4v1.4h.7v.5h-.7v2.7a.1.1 0 00.1.1h.2c.1.1.2.1.4 0zM976 177.1v-4h.6v.6a5.923 5.923 0 01.4-.6.6.6 0 01.4-.1 1.854 1.854 0 01.7.2l-.2.6a.9.9 0 00-.5-.1.6.6 0 00-.4.1 1.38 1.38 0 00-.3.4 1.949 1.949 0 00-.1.8v2.1zM978.6 178.7l-.1-.6c.1 0 .3.1.4.1.2 0 .3 0 .4-.1a.215.215 0 00.2-.2c0-.1.1-.2.2-.5a.31.31 0 01.1-.2l-1.5-4h.7l.8 2.3.3.9.3-.9.9-2.3h.7l-1.5 4.1c-.2.4-.3.7-.4.9a2.181 2.181 0 01-.4.5.845.845 0 01-.6.2 1.689 1.689 0 00-.5-.2z"/></g><circle class="cls-25" cx="970.8" cy="153" r="16.8"/><g id="Outline_Icons-2-2" data-name="Outline Icons-2-2"><path class="cls-26" d="M976.5 149.7a2.674 2.674 0 01-2.5-1.8 2.456 2.456 0 01-1.5.5 2.647 2.647 0 01-2.6-2.6v-.2a7.513 7.513 0 108.7 6.1 6.805 6.805 0 00-.8-2.4 2.5 2.5 0 01-1.3.4z"/><circle class="cls-26" cx="968.7" cy="151" r="1.3"/><circle class="cls-26" cx="973.3" cy="154.2" r=".7"/><circle class="cls-26" cx="969.4" cy="156.2" r="1.3"/><circle class="cls-26" cx="973.9" cy="151.6" r=".3"/><circle class="cls-26" cx="966.1" cy="153.6" r=".3"/><circle class="cls-26" cx="973.3" cy="157.5" r=".3"/></g></g><circle class="cls-27" cx="641.8" cy="151.3" r="16.7"/><path d="M646.3 144.8h-8.2a1.7 1.7 0 00-1.5 1.5v3a1.146 1.146 0 00-.7 1.3l.4 3.3a1.164 1.164 0 001.3 1.1h0v2.2c0 .2 0 .4.4.4s.4.2.6 0q.9 0 .9-.6v-2.2h5.2v2.2c0 .2 0 .4.4.4s.4.2.6 0q.9 0 .9-.6v-2.2h.2a1.63 1.63 0 001.3-1.1l.4-3.3a1.146 1.146 0 00-.7-1.3v-3a1.469 1.469 0 00-1.5-1.1zm-9.3 1.4a1.11 1.11 0 011.1-1.1h8.2a1.11 1.11 0 011.1 1.1v3a1.164 1.164 0 00-1.3 1.1l-.2 1.7h-7.4l-.2-1.7a1.3 1.3 0 00-1.3-1.1v-3zm1.7 11a.735.735 0 01-.6-.2v-2.2h1.1v2.2c0 .2-.2.2-.5.2zm7.2 0a.735.735 0 01-.6-.2v-2.2h1.1v2.2c.1.2-.1.2-.5.2zm2.2-6.7l-.4 3.3c0 .6-.6.7-.9.7h-9.3c-.6 0-.9-.2-.9-.7h0l-.4-3.3c0-.6.2-.9.7-.9s.9.2.9.7h0l.2 1.9h8l.2-1.9c0-.6.6-.7.9-.7.8 0 1.2.6 1 .9z" fill="#7a8e93" stroke-width=".15" stroke="#7a8e93" stroke-miterlimit="10"/><g class="cls-23"><path class="cls-24" d="M178.1 316.6v-5.4h1.1l1.3 3.9a3.385 3.385 0 00.3.8 4.649 4.649 0 00.3-.9l1.3-3.8h1v5.4h-.7V312l-1.6 4.6h-.6l-1.6-4.6v4.6zM184.1 314.6a1.969 1.969 0 01.6-1.6 1.746 1.746 0 011.2-.4 1.9 1.9 0 011.3.5 2.251 2.251 0 01.5 1.5 3.73 3.73 0 01-.2 1.2 2.336 2.336 0 01-.7.7 1.645 1.645 0 01-1 .2 1.728 1.728 0 01-1.3-.5 2.537 2.537 0 01-.4-1.6zm.7 0a1.609 1.609 0 00.3 1.1 1.234 1.234 0 00.8.4.909.909 0 00.8-.4 1.922 1.922 0 00.3-1.2 1.609 1.609 0 00-.3-1.1 1.234 1.234 0 00-.8-.4.909.909 0 00-.8.4 2.133 2.133 0 00-.3 1.2zM190 316l.1.6a4.331 4.331 0 00-.5.1 1.268 1.268 0 01-.6-.1l-.3-.3c-.1-.1-.1-.4-.1-.8v-2.3h-.5v-.5h.5v-1l.7-.4v1.4h.7v.5h-.7v2.7a.1.1 0 00.1.1h.6zM190.7 316.6v-5.4h.7v2a1.346 1.346 0 011.2-.5 2.353 2.353 0 01.8.2.821.821 0 01.5.5 2.22 2.22 0 01.1.9v2.5h-.7v-2.5a1.165 1.165 0 00-.2-.7c-.1-.2-.3-.2-.6-.2a1.421 1.421 0 00-.6.2.781.781 0 00-.4.4 1.483 1.483 0 00-.1.7v2.2h-.7zM197.6 315.3l.7.1a1.456 1.456 0 01-.6.9 2.016 2.016 0 01-1.1.3 2.168 2.168 0 01-1.4-.5 2.456 2.456 0 01-.5-1.5 2.07 2.07 0 01.5-1.5 1.536 1.536 0 011.3-.5 1.9 1.9 0 011.3.5 2.456 2.456 0 01.5 1.5v.2h-2.9a1.159 1.159 0 00.4 1 1.33 1.33 0 00.8.3 1.072 1.072 0 00.6-.2 1.538 1.538 0 00.4-.6zm-2.2-1.1h2.2a.779.779 0 00-.3-.7.909.909 0 00-.8-.4 1.032 1.032 0 00-1.1 1.1z"/></g><g class="cls-23"><path class="cls-24" d="M199.1 316.6v-3.9h.6v.6a5.923 5.923 0 01.4-.6.6.6 0 01.4-.1 1.854 1.854 0 01.7.2l-.2.6a.9.9 0 00-.5-.1.6.6 0 00-.4.1.52.52 0 00-.2.4 1.949 1.949 0 00-.1.8v2.1h-.7z"/></g><g class="cls-23"><path class="cls-24" d="M201.9 311.8v-.8h.7v.6c0 .3 0 .6-.1.7a1.205 1.205 0 01-.5.5l-.2-.3c.1-.1.2-.1.3-.3a.749.749 0 00.1-.5h-.3z"/></g><g class="cls-23"><path class="cls-24" d="M203.2 315.4l.7-.1a.6.6 0 00.3.6 1.325 1.325 0 001.4 0 .4.4 0 00.2-.4.52.52 0 00-.2-.4c-.1-.1-.3-.1-.7-.2a4.053 4.053 0 01-1-.3.781.781 0 01-.4-.4 1.3 1.3 0 010-1 1.38 1.38 0 01.3-.4c.1-.1.2-.1.4-.2a1.268 1.268 0 01.6-.1 1.949 1.949 0 01.8.1 1 1 0 01.5.4 1.421 1.421 0 01.2.6l-.7.1a.55.55 0 00-.3-.5.845.845 0 00-.6-.2 1.445 1.445 0 00-.7.2c-.2.1-.2.2-.2.4 0 .1 0 .2.1.2a.769.769 0 00.3.2 3.933 3.933 0 01.6.2 4.053 4.053 0 011 .3.781.781 0 01.4.4 1.072 1.072 0 01.2.6 1.421 1.421 0 01-.2.6c-.1.2-.3.3-.6.5a1.2 1.2 0 01-.8.2 2.133 2.133 0 01-1.2-.3c-.3-.2-.3-.7-.4-1.1zM209.5 316.6v-5.4h2.4a3.11 3.11 0 011.1.1 1.47 1.47 0 01.6.5 1.077 1.077 0 01.2.8 1.284 1.284 0 01-.4 1c-.2.3-.6.4-1.2.5a1.38 1.38 0 01.4.3 4.349 4.349 0 01.6.7l.9 1.5h-.9l-.7-1.1a9.223 9.223 0 01-.5-.8c-.1-.2-.3-.3-.4-.4a.367.367 0 00-.3-.1h-1.2v2.4zm.7-3.1h1.5a1.949 1.949 0 00.8-.1 1.38 1.38 0 00.4-.3.749.749 0 00.1-.5.6.6 0 00-.3-.6c-.2-.2-.5-.2-.9-.2h-1.7v1.7zM214.6 314.6a1.969 1.969 0 01.6-1.6 1.746 1.746 0 011.2-.4 1.9 1.9 0 011.3.5 2.251 2.251 0 01.5 1.5 3.73 3.73 0 01-.2 1.2 2.336 2.336 0 01-.7.7 1.645 1.645 0 01-1 .2 1.728 1.728 0 01-1.3-.5 3.408 3.408 0 01-.4-1.6zm.7 0a1.609 1.609 0 00.3 1.1 1.234 1.234 0 00.8.4.909.909 0 00.8-.4 1.922 1.922 0 00.3-1.2 1.609 1.609 0 00-.3-1.1 1.234 1.234 0 00-.8-.4.909.909 0 00-.8.4 2.133 2.133 0 00-.3 1.2zM218.9 314.6a1.969 1.969 0 01.6-1.6 1.746 1.746 0 011.2-.4 1.9 1.9 0 011.3.5 2.251 2.251 0 01.5 1.5 3.73 3.73 0 01-.2 1.2 2.336 2.336 0 01-.7.7 1.645 1.645 0 01-1 .2 1.728 1.728 0 01-1.3-.5 2.537 2.537 0 01-.4-1.6zm.7 0a1.609 1.609 0 00.3 1.1 1.234 1.234 0 00.8.4.909.909 0 00.8-.4 1.922 1.922 0 00.3-1.2 1.609 1.609 0 00-.3-1.1 1.234 1.234 0 00-.8-.4.909.909 0 00-.8.4 2.133 2.133 0 00-.3 1.2zM223.4 316.6v-3.9h.6v.6c.1-.2.3-.3.5-.5a1.325 1.325 0 011.4 0 1 1 0 01.4.5 1.306 1.306 0 011.2-.7 1.222 1.222 0 01.9.3 1.327 1.327 0 01.3 1v2.7h-.7v-2.5c0-.3 0-.5-.1-.6 0-.1-.1-.2-.2-.3s-.2-.1-.4-.1a.908.908 0 00-.7.3 1.222 1.222 0 00-.3.9v2.3h-.7V314a1.445 1.445 0 00-.2-.7c-.1-.2-.3-.2-.5-.2a.749.749 0 00-.5.1c-.2.1-.3.2-.3.4a1.949 1.949 0 00-.1.8v2h-.6z"/></g><g class="cls-23"><path class="cls-13" d="M742.7 178.4v-7.1h1.4v5.9h3.6v1.2zM749.8 174.8l-1.2-.2a1.769 1.769 0 01.7-1.1 2.7 2.7 0 011.5-.4 4.636 4.636 0 011.4.2.9.9 0 01.6.6 2.872 2.872 0 01.2 1.2v1.6a2.509 2.509 0 00.1 1 2.544 2.544 0 00.2.7h-1.4c0-.1-.1-.2-.1-.4v-.2a2.177 2.177 0 01-.8.5 2.92 2.92 0 01-.9.2 1.844 1.844 0 01-1.3-.4 1.606 1.606 0 01-.5-1.1 1.884 1.884 0 01.2-.8 1.024 1.024 0 01.6-.5 8.112 8.112 0 011.1-.3 6.3 6.3 0 001.3-.3v-.2a.845.845 0 00-.2-.6 1.165 1.165 0 00-.7-.2 1.268 1.268 0 00-.6.1 1.421 1.421 0 01-.2.6zm1.8 1.1c-.2.1-.5.1-.8.2a4.076 4.076 0 01-.7.2.55.55 0 00-.3.5.684.684 0 00.7.7 1.854 1.854 0 00.7-.2.55.55 0 00.3-.5 3.548 3.548 0 00.1-.7zM757.8 178.4v-.8a2.336 2.336 0 01-.7.7 1.645 1.645 0 01-1 .2 2.388 2.388 0 01-.9-.2 1.7 1.7 0 01-.6-.6 3.6 3.6 0 01-.2-1.1v-3.3h1.4v2.4a3.474 3.474 0 00.1 1.3c0 .2.1.3.3.4a.749.749 0 00.5.1 1.421 1.421 0 00.6-.2 1 1 0 00.4-.5 4.545 4.545 0 00.1-1.4v-2.2h1.4v5.2zM760.3 173.2h1.3v.7a2.254 2.254 0 011.6-.8 2.92 2.92 0 01.9.2c.3.1.4.3.6.6a1.9 1.9 0 011.5-.8 2.959 2.959 0 011 .2 1.344 1.344 0 01.6.7 3.11 3.11 0 01.1 1.1v3.3h-1.4v-3a2.509 2.509 0 00-.1-1 .6.6 0 00-.6-.3.764.764 0 00-.5.2 1 1 0 00-.4.5 3.11 3.11 0 00-.1 1.1v2.5h-1.4v-2.8a2.509 2.509 0 00-.1-1c-.1-.2-.1-.3-.2-.3s-.2-.1-.4-.1a1.421 1.421 0 00-.6.2 1 1 0 00-.4.5 3.11 3.11 0 00-.1 1.1v2.5h-1.4v-5.3zM772.3 176.8l1.4.2a2.421 2.421 0 01-.8 1.1 2.3 2.3 0 01-1.4.4 2.263 2.263 0 01-2-.9 3.453 3.453 0 01-.5-1.8 2.578 2.578 0 01.7-2 2.06 2.06 0 011.7-.7 2.2 2.2 0 011.8.8 3.165 3.165 0 01.6 2.3h-3.4a1.222 1.222 0 00.3.9 1.135 1.135 0 00.8.3.764.764 0 00.5-.2c.1-.1.3-.2.3-.4zm.1-1.4a1.222 1.222 0 00-.3-.9.967.967 0 00-1.4 0 1.222 1.222 0 00-.3.9zM774.9 172.5v-1.3h1.4v1.3zm0 5.9v-5.2h1.4v5.2zM780.7 176.8l1.4.2a2.421 2.421 0 01-.8 1.1 2.3 2.3 0 01-1.4.4 2.263 2.263 0 01-2-.9 3.453 3.453 0 01-.5-1.8 2.578 2.578 0 01.7-2 2.06 2.06 0 011.7-.7 2.2 2.2 0 011.8.8 3.165 3.165 0 01.6 2.3h-3.4a1.222 1.222 0 00.3.9 1.135 1.135 0 00.8.3.764.764 0 00.5-.2 1.38 1.38 0 00.3-.4zm.1-1.4a1.222 1.222 0 00-.3-.9.967.967 0 00-1.4 0 1.222 1.222 0 00-.3.9zM784.6 178.4h-1.4v-5.2h1.3v.7a2.169 2.169 0 01.6-.7 1.421 1.421 0 01.6-.2 1.613 1.613 0 01.9.3l-.4 1.2a1.421 1.421 0 00-.6-.2.764.764 0 00-.5.2 1.628 1.628 0 00-.3.6 7.156 7.156 0 00-.1 1.7v1.6z"/></g><g class="cls-23"><path class="cls-13" d="M983.1 383.5v-7.2h4.9v1.2h-3.5v1.7h3v1.2h-3v3h-1.4zM988.9 380.8a2.768 2.768 0 01.3-1.3 1.949 1.949 0 011-1 3.194 3.194 0 011.4-.3 2.56 2.56 0 011.9.8 2.732 2.732 0 01.8 1.9 2.973 2.973 0 01-.8 2 2.56 2.56 0 01-1.9.8 3.529 3.529 0 01-1.4-.3 2.189 2.189 0 01-1-.9 5.079 5.079 0 01-.3-1.7zm1.4.1a1.594 1.594 0 00.4 1.2 1.086 1.086 0 00.9.4.975.975 0 00.9-.4 2.144 2.144 0 00.4-1.2 1.594 1.594 0 00-.4-1.2 1.212 1.212 0 00-1.8 0 2.144 2.144 0 00-.4 1.2zM996.6 383.5h-1.4v-5.2h1.3v.7a2.169 2.169 0 01.6-.7 1.421 1.421 0 01.6-.2 1.613 1.613 0 01.9.3l-.4 1.2a1.421 1.421 0 00-.6-.2.764.764 0 00-.5.2 1.628 1.628 0 00-.3.6 7.156 7.156 0 00-.1 1.7v1.6zM1002.2 381.8l1.4.2a2.421 2.421 0 01-.8 1.1 2.3 2.3 0 01-1.4.4 2.263 2.263 0 01-2-.9 3.453 3.453 0 01-.5-1.8 2.578 2.578 0 01.7-2 2.06 2.06 0 011.7-.7 2.2 2.2 0 011.8.8 3.165 3.165 0 01.6 2.3h-3.4a1.222 1.222 0 00.3.9 1.135 1.135 0 00.8.3.764.764 0 00.5-.2.68.68 0 00.3-.4zm.1-1.4a1.222 1.222 0 00-.3-.9.967.967 0 00-1.4 0 1.222 1.222 0 00-.3.9zM1004.3 382l1.4-.2a.918.918 0 00.4.6 1.7 1.7 0 001.6 0 .52.52 0 00.2-.4.367.367 0 00-.1-.3c-.1-.1-.2-.1-.5-.2a6.084 6.084 0 01-2.1-.7 1.425 1.425 0 01-.6-1.2 1.606 1.606 0 01.5-1.1 2.648 2.648 0 011.7-.5 3.506 3.506 0 011.6.3 1.834 1.834 0 01.7 1l-1.3.2a2.186 2.186 0 00-.3-.5 1.445 1.445 0 00-.7-.2 1.549 1.549 0 00-.8.2c-.1.1-.2.2-.2.3s0 .2.1.2a6.8 6.8 0 001.3.4 5.712 5.712 0 011.5.6 1.159 1.159 0 01.4 1 1.425 1.425 0 01-.6 1.2 2.969 2.969 0 01-1.8.5 2.861 2.861 0 01-1.7-.4c-.3.1-.6-.3-.7-.8zM1012.7 378.3v1.1h-.9v2.8c0 .1.1.1.1.2s.1.1.2.1a1.759 1.759 0 00.6-.1l.1 1.1a3.6 3.6 0 01-1.1.2 1.7 1.7 0 01-.7-.1 1.38 1.38 0 01-.4-.3.764.764 0 01-.2-.5v-3.3h-.6v-1.1h.6v-1l1.4-.8v1.8h.9zM1016.5 383.5v-7.2h2.3a6.252 6.252 0 011.7.1 1.445 1.445 0 011 .7 2.116 2.116 0 01.4 1.4 3.6 3.6 0 01-.2 1.1 4.349 4.349 0 01-.6.7 1.08 1.08 0 01-.7.3 5.758 5.758 0 01-1.5.1h-.9v2.7h-1.5zm1.4-6v2h.8a2.532 2.532 0 001.1-.1 1.756 1.756 0 00.5-.4 1.072 1.072 0 00.2-.6.845.845 0 00-.2-.6.713.713 0 00-.6-.3h-1.8zM1024.1 379.9l-1.2-.2a1.769 1.769 0 01.7-1.1 2.7 2.7 0 011.5-.4 4.636 4.636 0 011.4.2.9.9 0 01.6.6 2.872 2.872 0 01.2 1.2v1.6a2.509 2.509 0 00.1 1 2.544 2.544 0 00.2.7h-1.4c0-.1-.1-.2-.1-.4v-.2a2.177 2.177 0 01-.8.5 2.92 2.92 0 01-.9.2 1.844 1.844 0 01-1.3-.4 1.606 1.606 0 01-.5-1.1 1.884 1.884 0 01.2-.8 1.024 1.024 0 01.6-.5 8.112 8.112 0 011.1-.3 6.3 6.3 0 001.3-.3v-.1a.845.845 0 00-.2-.6 1.165 1.165 0 00-.7-.2 1.268 1.268 0 00-.6.1c0 .1-.1.2-.2.5zm1.9 1.1c-.2.1-.5.1-.8.2a4.076 4.076 0 01-.7.2.55.55 0 00-.3.5.684.684 0 00.7.7 1.854 1.854 0 00.7-.2.55.55 0 00.3-.5 3.548 3.548 0 00.1-.7v-.2zM1030 383.5h-1.4v-5.2h1.3v.7a2.169 2.169 0 01.6-.7 1.421 1.421 0 01.6-.2 1.613 1.613 0 01.9.3l-.4 1.2a1.421 1.421 0 00-.6-.2.764.764 0 00-.5.2 1.628 1.628 0 00-.3.6 7.156 7.156 0 00-.1 1.7v1.6zM1032.5 383.5v-7.2h1.4v3.8l1.6-1.8h1.7l-1.8 1.9 1.9 3.3h-1.5l-1.3-2.3-.6.7v1.7h-1.4z"/></g><g class="cls-23"><path class="cls-13" d="M800.9 316.6v-5.9h-2.1v-1.2h5.7v1.2h-2.1v5.9z"/></g><g class="cls-23"><path class="cls-13" d="M804.3 313.9a2.768 2.768 0 01.3-1.3 1.949 1.949 0 011-1 3.194 3.194 0 011.4-.3 2.56 2.56 0 011.9.8 2.732 2.732 0 01.8 1.9 2.973 2.973 0 01-.8 2 2.56 2.56 0 01-1.9.8 3.529 3.529 0 01-1.4-.3 2.189 2.189 0 01-1-.9 5.079 5.079 0 01-.3-1.7zm1.4.1a1.594 1.594 0 00.4 1.2 1.086 1.086 0 00.9.4.975.975 0 00.9-.4 2.144 2.144 0 00.4-1.2 1.594 1.594 0 00-.4-1.2 1.213 1.213 0 00-1.8 0 2.144 2.144 0 00-.4 1.2zM811.7 316.6l-1.6-5.2h1.3l1 3.4.9-3.4h1.3l.9 3.4 1-3.4h1.4l-1.7 5.2h-1.3l-.9-3.3-.9 3.3zM821.5 314.9l1.4.2a2.421 2.421 0 01-.8 1.1 2.3 2.3 0 01-1.4.4 2.263 2.263 0 01-2-.9 3.453 3.453 0 01-.5-1.8 2.578 2.578 0 01.7-2 2.06 2.06 0 011.7-.7 2.2 2.2 0 011.8.8 3.165 3.165 0 01.6 2.3h-3.4a1.222 1.222 0 00.3.9 1.135 1.135 0 00.8.3.764.764 0 00.5-.2.68.68 0 00.3-.4zm.1-1.4a1.222 1.222 0 00-.3-.9.967.967 0 00-1.4 0 1.222 1.222 0 00-.3.9zM825.4 316.6H824v-5.2h1.3v.7a2.169 2.169 0 01.6-.7 1.421 1.421 0 01.6-.2 1.613 1.613 0 01.9.3l-.4 1.2a1.421 1.421 0 00-.6-.2.764.764 0 00-.5.2 1.628 1.628 0 00-.3.6 7.156 7.156 0 00-.1 1.7v1.6zM834.1 313.9v-1.2h3.1v2.9a3.219 3.219 0 01-1.3.8 5.547 5.547 0 01-1.7.3 4.552 4.552 0 01-2-.5 3.25 3.25 0 01-1.3-1.3 4.058 4.058 0 01-.4-1.9 4.552 4.552 0 01.5-2 2.949 2.949 0 011.4-1.3 4.256 4.256 0 011.7-.4 3.281 3.281 0 012.1.6 3.072 3.072 0 011 1.5l-1.4.3a1.242 1.242 0 00-.6-.8 1.689 1.689 0 00-1-.3 2.035 2.035 0 00-1.5.6 2.445 2.445 0 00-.6 1.8 2.707 2.707 0 00.6 1.9 2.035 2.035 0 001.5.6 2.92 2.92 0 00.9-.2 5.938 5.938 0 00.8-.4v-1zM839.8 316.6h-1.4v-5.2h1.3v.7a2.169 2.169 0 01.6-.7 1.421 1.421 0 01.6-.2 1.613 1.613 0 01.9.3l-.4 1.2a1.421 1.421 0 00-.6-.2.764.764 0 00-.5.2 1.628 1.628 0 00-.3.6 7.156 7.156 0 00-.1 1.7v1.6zM842.1 313.9a2.768 2.768 0 01.3-1.3 1.949 1.949 0 011-1 3.194 3.194 0 011.4-.3 2.56 2.56 0 011.9.8 2.732 2.732 0 01.8 1.9 2.973 2.973 0 01-.8 2 2.56 2.56 0 01-1.9.8 3.529 3.529 0 01-1.4-.3 2.189 2.189 0 01-1-.9 5.079 5.079 0 01-.3-1.7zm1.4.1a1.594 1.594 0 00.4 1.2 1.086 1.086 0 00.9.4.975.975 0 00.9-.4 2.144 2.144 0 00.4-1.2 1.594 1.594 0 00-.4-1.2 1.213 1.213 0 00-1.8 0 2.144 2.144 0 00-.4 1.2zM849.9 316.6l-2.1-5.2h1.4l1 2.6.3.9a1 1 0 00.1-.4c0-.1.1-.3.1-.4l1-2.6h1.4l-2.1 5.2h-1.1zM857.1 314.9l1.4.2a2.421 2.421 0 01-.8 1.1 2.3 2.3 0 01-1.4.4 2.263 2.263 0 01-2-.9 3.453 3.453 0 01-.5-1.8 2.578 2.578 0 01.7-2 2.06 2.06 0 011.7-.7 2.2 2.2 0 011.8.8 3.165 3.165 0 01.6 2.3h-3.4a1.222 1.222 0 00.3.9 1.135 1.135 0 00.8.3.764.764 0 00.5-.2.68.68 0 00.3-.4zm.1-1.4a1.222 1.222 0 00-.3-.9.967.967 0 00-1.4 0 1.222 1.222 0 00-.3.9z"/></g><g class="cls-23"><path class="cls-13" d="M729 316.6v-7.2h2.2l1.3 4.9 1.3-4.9h2.2v7.2h-1.3v-5.7l-1.4 5.6h-1.4l-1.4-5.6v5.6H729zM737.3 310.7v-1.3h1.4v1.3zm0 5.9v-5.2h1.4v5.2zM739.6 315.1l1.4-.2a.918.918 0 00.4.6 1.7 1.7 0 001.6 0 .52.52 0 00.2-.4.367.367 0 00-.1-.3c-.1-.1-.2-.1-.5-.2a6.084 6.084 0 01-2.1-.7 1.425 1.425 0 01-.6-1.2 1.606 1.606 0 01.5-1.1 2.457 2.457 0 011.7-.5 3.506 3.506 0 011.6.3 1.445 1.445 0 01.7 1l-1.3.2a2.186 2.186 0 00-.3-.5 1.445 1.445 0 00-.7-.2 1.549 1.549 0 00-.8.2c-.1.1-.2.2-.2.3s0 .2.1.2a6.8 6.8 0 001.3.4 5.712 5.712 0 011.5.6 1.159 1.159 0 01.4 1 1.425 1.425 0 01-.6 1.2 2.969 2.969 0 01-1.8.5 2.861 2.861 0 01-1.7-.4c-.3.1-.6-.3-.7-.8zM745.2 315.1l1.4-.2a.918.918 0 00.4.6 1.7 1.7 0 001.6 0 .52.52 0 00.2-.4.367.367 0 00-.1-.3c-.1-.1-.2-.1-.5-.2a6.084 6.084 0 01-2.1-.7 1.425 1.425 0 01-.6-1.2 1.606 1.606 0 01.5-1.1 2.457 2.457 0 011.7-.5 3.506 3.506 0 011.6.3 1.445 1.445 0 01.7 1l-1.3.2a2.186 2.186 0 00-.3-.5 1.445 1.445 0 00-.7-.2 1.549 1.549 0 00-.8.2c-.1.1-.2.2-.2.3s0 .2.1.2a6.8 6.8 0 001.3.4 5.712 5.712 0 011.5.6 1.159 1.159 0 01.4 1 1.425 1.425 0 01-.6 1.2 2.969 2.969 0 01-1.8.5 2.861 2.861 0 01-1.7-.4c-.3.1-.6-.3-.7-.8zM751.2 310.7v-1.3h1.4v1.3zm0 5.9v-5.2h1.4v5.2zM753.5 315.1l1.4-.2a.918.918 0 00.4.6 1.7 1.7 0 001.6 0 .52.52 0 00.2-.4.367.367 0 00-.1-.3c-.1-.1-.2-.1-.5-.2a6.084 6.084 0 01-2.1-.7 1.425 1.425 0 01-.6-1.2 1.606 1.606 0 01.5-1.1 2.457 2.457 0 011.7-.5 3.506 3.506 0 011.6.3 1.445 1.445 0 01.7 1l-1.4.5a2.186 2.186 0 00-.3-.5 1.445 1.445 0 00-.7-.2 1.549 1.549 0 00-.8.2c-.1.1-.2.2-.2.3s0 .2.1.2a6.8 6.8 0 001.3.4 5.712 5.712 0 011.5.6 1.159 1.159 0 01.4 1 1.425 1.425 0 01-.6 1.2 2.969 2.969 0 01-1.8.5 2.861 2.861 0 01-1.7-.4 2.268 2.268 0 01-.6-1.1zM759.1 315.1l1.4-.2a.918.918 0 00.4.6 1.7 1.7 0 001.6 0 .52.52 0 00.2-.4.367.367 0 00-.1-.3c-.1-.1-.2-.1-.5-.2a6.084 6.084 0 01-2.1-.7 1.425 1.425 0 01-.6-1.2 1.606 1.606 0 01.5-1.1 2.457 2.457 0 011.7-.5 3.506 3.506 0 011.6.3 1.445 1.445 0 01.7 1l-1.3.2a2.186 2.186 0 00-.3-.5 1.445 1.445 0 00-.7-.2 1.549 1.549 0 00-.8.2c-.1.1-.2.2-.2.3s0 .2.1.2a6.8 6.8 0 001.3.4 5.712 5.712 0 011.5.6 1.159 1.159 0 01.4 1 1.425 1.425 0 01-.6 1.2 2.969 2.969 0 01-1.8.5 2.861 2.861 0 01-1.7-.4c-.3.1-.6-.3-.7-.8zM765.1 310.7v-1.3h1.4v1.3zm0 5.9v-5.2h1.4v5.2zM767.9 311.4h1.3v.8a1.344 1.344 0 01.7-.6 2.92 2.92 0 01.9-.2 1.8 1.8 0 011.5.7 3.633 3.633 0 010 4 1.8 1.8 0 01-1.5.7 2.353 2.353 0 01-.8-.2 1.874 1.874 0 01-.7-.6v2.6h-1.4zm1.3 2.5a2.269 2.269 0 00.3 1.3 1 1 0 001.6 0 2.269 2.269 0 00.3-1.3 2.133 2.133 0 00-.3-1.2 1 1 0 00-1.6 0 2.133 2.133 0 00-.3 1.2zM774 311.4h1.3v.8a1.344 1.344 0 01.7-.6 2.92 2.92 0 01.9-.2 1.8 1.8 0 011.5.7 3.633 3.633 0 010 4 1.8 1.8 0 01-1.5.7 2.353 2.353 0 01-.8-.2 1.874 1.874 0 01-.7-.6v2.6H774zm1.3 2.5a2.269 2.269 0 00.3 1.3 1 1 0 001.6 0 2.269 2.269 0 00.3-1.3 2.133 2.133 0 00-.3-1.2 1 1 0 00-1.6 0 2.133 2.133 0 00-.3 1.2zM780.1 310.7v-1.3h1.4v1.3zm0 5.9v-5.2h1.4v5.2z"/></g><g class="cls-23"><path class="cls-13" d="M662.7 315.5v-7.2h2.2l1.3 4.9 1.3-4.9h2.2v7.2h-1.3v-5.6l-1.4 5.6h-1.4l-1.4-5.6v5.6zM671 309.6v-1.3h1.4v1.3zm0 5.9v-5.2h1.4v5.2zM673.3 314l1.4-.2a.918.918 0 00.4.6 1.7 1.7 0 001.6 0 .52.52 0 00.2-.4.367.367 0 00-.1-.3c-.1-.1-.2-.1-.5-.2a6.084 6.084 0 01-2.1-.7 1.425 1.425 0 01-.6-1.2 1.606 1.606 0 01.5-1.1 2.648 2.648 0 011.7-.5 3.506 3.506 0 011.6.3 1.834 1.834 0 01.7 1l-1.3.2a2.186 2.186 0 00-.3-.5 1.445 1.445 0 00-.7-.2 1.549 1.549 0 00-.8.2c-.1.1-.2.2-.2.3s0 .2.1.2a6.8 6.8 0 001.3.4 5.712 5.712 0 011.5.6 1.159 1.159 0 01.4 1 1.425 1.425 0 01-.6 1.2 2.969 2.969 0 01-1.8.5 2.861 2.861 0 01-1.7-.4c-.3.1-.5-.3-.7-.8zM678.9 314l1.4-.2a.918.918 0 00.4.6 1.7 1.7 0 001.6 0 .52.52 0 00.2-.4.367.367 0 00-.1-.3c-.1-.1-.2-.1-.5-.2a6.084 6.084 0 01-2.1-.7 1.425 1.425 0 01-.6-1.2 1.606 1.606 0 01.5-1.1 2.648 2.648 0 011.7-.5 3.506 3.506 0 011.6.3 1.834 1.834 0 01.7 1l-1.3.2a2.186 2.186 0 00-.3-.5 1.445 1.445 0 00-.7-.2 1.549 1.549 0 00-.8.2c-.1.1-.2.2-.2.3s0 .2.1.2a6.8 6.8 0 001.3.4 5.712 5.712 0 011.5.6 1.159 1.159 0 01.4 1 1.425 1.425 0 01-.6 1.2 2.969 2.969 0 01-1.8.5 2.861 2.861 0 01-1.7-.4c-.3.1-.6-.3-.7-.8zM684.6 312.8a2.768 2.768 0 01.3-1.3 1.949 1.949 0 011-1 3.194 3.194 0 011.4-.3 2.56 2.56 0 011.9.8 2.732 2.732 0 01.8 1.9 2.973 2.973 0 01-.8 2 2.56 2.56 0 01-1.9.8 3.529 3.529 0 01-1.4-.3 2.189 2.189 0 01-1-.9 5.079 5.079 0 01-.3-1.7zm1.4.1a1.594 1.594 0 00.4 1.2 1.086 1.086 0 00.9.4.975.975 0 00.9-.4 2.144 2.144 0 00.4-1.2 1.594 1.594 0 00-.4-1.2 1.212 1.212 0 00-1.8 0 2.144 2.144 0 00-.4 1.2zM694.5 315.5v-.8a2.336 2.336 0 01-.7.7 1.645 1.645 0 01-1 .2 2.388 2.388 0 01-.9-.2 1.7 1.7 0 01-.6-.6 3.6 3.6 0 01-.2-1.1v-3.3h1.4v2.4a3.474 3.474 0 00.1 1.3c0 .2.1.3.3.4a.749.749 0 00.5.1 1.421 1.421 0 00.6-.2 1 1 0 00.4-.5 4.545 4.545 0 00.1-1.4v-2.2h1.4v5.2zM698.5 315.5h-1.4v-5.2h1.3v.7a2.169 2.169 0 01.6-.7 1.421 1.421 0 01.6-.2 1.613 1.613 0 01.9.3l-.4 1.2a1.421 1.421 0 00-.6-.2.764.764 0 00-.5.2 1.628 1.628 0 00-.3.6 7.156 7.156 0 00-.1 1.7v1.6zM701.1 309.6v-1.3h1.4v1.3zm0 5.9v-5.2h1.4v5.2z"/></g><g class="cls-23"><path class="cls-13" d="M593.2 315.5v-7.2h2.2l1.3 4.9 1.3-4.9h2.2v7.2h-1.3v-5.6l-1.4 5.6h-1.4l-1.4-5.6v5.6zM604.5 313.8l1.4.2a2.421 2.421 0 01-.8 1.1 2.3 2.3 0 01-1.4.4 2.263 2.263 0 01-2-.9 3.453 3.453 0 01-.5-1.8 2.578 2.578 0 01.7-2 2.06 2.06 0 011.7-.7 2.2 2.2 0 011.8.8 3.165 3.165 0 01.6 2.3h-3.4a1.222 1.222 0 00.3.9 1.135 1.135 0 00.8.3.764.764 0 00.5-.2c.1-.1.3-.1.3-.4zm.1-1.4a1.222 1.222 0 00-.3-.9.967.967 0 00-1.4 0 1.222 1.222 0 00-.3.9zM608.4 315.5H607v-5.2h1.3v.7a2.169 2.169 0 01.6-.7 1.421 1.421 0 01.6-.2 1.613 1.613 0 01.9.3l-.4 1.2a1.421 1.421 0 00-.6-.2.764.764 0 00-.5.2 1.628 1.628 0 00-.3.6 7.156 7.156 0 00-.1 1.7v1.6zM612 311.9l-1.2-.2a1.769 1.769 0 01.7-1.1 2.7 2.7 0 011.5-.4 4.636 4.636 0 011.4.2.9.9 0 01.6.6 2.872 2.872 0 01.2 1.2v1.6a2.509 2.509 0 00.1 1 2.544 2.544 0 00.2.7h-1.4c0-.1-.1-.2-.1-.4v-.2a2.177 2.177 0 01-.8.5 2.92 2.92 0 01-.9.2 1.844 1.844 0 01-1.3-.4 1.606 1.606 0 01-.5-1.1 1.884 1.884 0 01.2-.8 1.024 1.024 0 01.6-.5 8.112 8.112 0 011.1-.3 6.3 6.3 0 001.3-.3v-.1a.845.845 0 00-.2-.6 1.165 1.165 0 00-.7-.2 1.268 1.268 0 00-.6.1c0 .1-.1.2-.2.5zm1.9 1.1c-.2.1-.5.1-.8.2a4.076 4.076 0 01-.7.2.55.55 0 00-.3.5.684.684 0 00.7.7 1.854 1.854 0 00.7-.2.55.55 0 00.3-.5 3.548 3.548 0 00.1-.7zM616.5 310.3h1.3v.7a2.254 2.254 0 011.6-.8 2.92 2.92 0 01.9.2c.3.1.4.3.6.6a1.9 1.9 0 011.5-.8 2.959 2.959 0 011 .2 1.344 1.344 0 01.6.7 3.11 3.11 0 01.1 1.1v3.3h-1.4v-3a2.509 2.509 0 00-.1-1 .6.6 0 00-.6-.3.764.764 0 00-.5.2 1 1 0 00-.4.5 3.11 3.11 0 00-.1 1.1v2.5h-1.4v-2.8a2.509 2.509 0 00-.1-1c-.1-.2-.1-.3-.2-.3s-.2-.1-.4-.1a1.421 1.421 0 00-.6.2 1 1 0 00-.4.5 3.11 3.11 0 00-.1 1.1v2.5h-1.4v-5.3zM628.5 313.8l1.4.2a2.421 2.421 0 01-.8 1.1 2.3 2.3 0 01-1.4.4 2.263 2.263 0 01-2-.9 3.453 3.453 0 01-.5-1.8 2.578 2.578 0 01.7-2 2.06 2.06 0 011.7-.7 2.2 2.2 0 011.8.8 3.165 3.165 0 01.6 2.3h-3.4a1.222 1.222 0 00.3.9 1.135 1.135 0 00.8.3.764.764 0 00.5-.2.68.68 0 00.3-.4zm0-1.4a1.222 1.222 0 00-.3-.9.967.967 0 00-1.4 0 1.222 1.222 0 00-.3.9zM635.5 311.8l-1.4.2a.6.6 0 00-.3-.6 1.421 1.421 0 00-.6-.2.909.909 0 00-.8.4 1.737 1.737 0 00-.3 1.2 2.269 2.269 0 00.3 1.3.909.909 0 00.8.4.845.845 0 00.6-.2c.2-.1.3-.4.4-.8l1.3.2a2.189 2.189 0 01-.8 1.4 2.544 2.544 0 01-1.6.5 2.139 2.139 0 01-1.8-.7 3.207 3.207 0 010-4 2.806 2.806 0 013.3-.3 1.785 1.785 0 01.9 1.2z"/></g><g class="cls-23"><path class="cls-13" d="M517.2 315.5v-7.2h2.3a6.252 6.252 0 011.7.1 1.445 1.445 0 011 .7 2.116 2.116 0 01.4 1.4 3.6 3.6 0 01-.2 1.1c-.1.3-.4.5-.6.7a1.08 1.08 0 01-.7.3 5.758 5.758 0 01-1.5.1h-.9v2.7h-1.5zm1.4-6v2h.8a2.532 2.532 0 001.1-.1c.1-.1.3-.2.5-.4s.2-.3.2-.6a.845.845 0 00-.2-.6.855.855 0 00-.6-.3h-1.8zM524.9 311.9l-1.2-.2a1.769 1.769 0 01.7-1.1 2.7 2.7 0 011.5-.4 4.636 4.636 0 011.4.2.9.9 0 01.6.6 2.872 2.872 0 01.2 1.2v1.6a2.509 2.509 0 00.1 1 2.544 2.544 0 00.2.7H527c0-.1-.1-.2-.1-.4v-.2a2.177 2.177 0 01-.8.5 2.92 2.92 0 01-.9.2 1.844 1.844 0 01-1.3-.4 1.606 1.606 0 01-.5-1.1 1.884 1.884 0 01.2-.8 1.024 1.024 0 01.6-.5 8.112 8.112 0 011.1-.3 6.3 6.3 0 001.3-.3v-.1a.845.845 0 00-.2-.6 1.165 1.165 0 00-.7-.2 1.268 1.268 0 00-.6.1.588.588 0 00-.2.5zm1.8 1.1c-.2.1-.5.1-.8.2a4.076 4.076 0 01-.7.2.55.55 0 00-.3.5.684.684 0 00.7.7 1.854 1.854 0 00.7-.2.55.55 0 00.3-.5 3.548 3.548 0 00.1-.7zM530.7 315.5h-1.4v-5.2h1.3v.7a2.169 2.169 0 01.6-.7 1.421 1.421 0 01.6-.2 1.613 1.613 0 01.9.3l-.4 1.2a1.421 1.421 0 00-.6-.2.764.764 0 00-.5.2 1.628 1.628 0 00-.3.6 7.156 7.156 0 00-.1 1.7v1.6zM535.7 310.3v1.1h-.9v2.8c0 .1.1.1.1.2s.1.1.2.1a1.759 1.759 0 00.6-.1l.1 1.1a3.6 3.6 0 01-1.1.2 1.7 1.7 0 01-.7-.1 1.38 1.38 0 01-.4-.3.764.764 0 01-.2-.5v-3.3h-.6v-1.1h.6v-1l1.4-.8v1.8h.9zM541.3 315.5h-1.4v-2.6a2.815 2.815 0 00-.1-1.1 1.38 1.38 0 00-.3-.4.749.749 0 00-.5-.1 1.072 1.072 0 00-.6.2 2.181 2.181 0 00-.4.5 3.451 3.451 0 00-.1 1.2v2.3h-1.4v-5.2h1.3v.8a2.091 2.091 0 011.7-.9 1.884 1.884 0 01.8.2 1.275 1.275 0 01.6.4c.2.2.2.4.3.6a2.22 2.22 0 01.1.9v3.2zM545.7 313.8l1.4.2a2.421 2.421 0 01-.8 1.1 2.3 2.3 0 01-1.4.4 2.263 2.263 0 01-2-.9 3.453 3.453 0 01-.5-1.8 2.578 2.578 0 01.7-2 2.06 2.06 0 011.7-.7 2.2 2.2 0 011.8.8 3.165 3.165 0 01.6 2.3h-3.4a1.222 1.222 0 00.3.9 1.135 1.135 0 00.8.3.764.764 0 00.5-.2.68.68 0 00.3-.4zm.1-1.4a1.222 1.222 0 00-.3-.9.967.967 0 00-1.4 0 1.222 1.222 0 00-.3.9zM549.6 315.5h-1.4v-5.2h1.3v.7a2.169 2.169 0 01.6-.7 1.421 1.421 0 01.6-.2 1.613 1.613 0 01.9.3l-.4 1.2a1.421 1.421 0 00-.6-.2.764.764 0 00-.5.2 1.628 1.628 0 00-.3.6 7.156 7.156 0 00-.1 1.7v1.6zM555.8 311.6a1.7 1.7 0 01-.8-.6 1.344 1.344 0 01-.2-.9 1.612 1.612 0 01.6-1.3 2.81 2.81 0 013.2 0 1.621 1.621 0 01.3 2.2 1.344 1.344 0 01-.7.6 2.178 2.178 0 01.9.7 2.016 2.016 0 01.3 1.1 2.111 2.111 0 01-.6 1.6 2.352 2.352 0 01-1.7.6 2.544 2.544 0 01-1.6-.5 2.136 2.136 0 01-.8-1.7 2.279 2.279 0 01.3-1.1c.1-.3.4-.5.8-.7zm.2 1.7a1.222 1.222 0 00.3.9.967.967 0 001.4 0 1.222 1.222 0 00.3-.9 1.135 1.135 0 00-.3-.8.908.908 0 00-.7-.3 1.135 1.135 0 00-.8.3 2.353 2.353 0 00-.2.8zm.1-3.1a.845.845 0 00.2.6.735.735 0 00.6.2.845.845 0 00.6-.2.735.735 0 00.2-.6.845.845 0 00-.2-.6.735.735 0 00-.6-.2.845.845 0 00-.6.2 1.072 1.072 0 00-.2.6zM562.5 308.3a1.865 1.865 0 011.6.7 4.6 4.6 0 01.7 2.9 4.415 4.415 0 01-.7 2.9 1.865 1.865 0 01-1.6.7 2.136 2.136 0 01-1.7-.8 5 5 0 01-.6-2.9 4.6 4.6 0 01.7-2.9 2.111 2.111 0 011.6-.6zm0 1.1a.52.52 0 00-.4.2 1.628 1.628 0 00-.3.6 8.663 8.663 0 00-.1 1.8 7.156 7.156 0 00.1 1.7 1.628 1.628 0 00.3.6.5.5 0 00.8 0 1.628 1.628 0 00.3-.6 8.159 8.159 0 00.1-1.8 6.7 6.7 0 00-.1-1.7 1.628 1.628 0 00-.3-.6c0-.1-.2-.2-.4-.2zM565.8 309.7v-1.3h4.7v1a7.382 7.382 0 00-1.2 1.6 9.172 9.172 0 00-.9 2.3 8.918 8.918 0 00-.3 2.2h-1.3a8.025 8.025 0 01.6-3 15.089 15.089 0 011.5-2.8z"/></g><g class="cls-23"><path class="cls-13" d="M301.9 313.5v-7.2h2.3a6.252 6.252 0 011.7.1 1.445 1.445 0 011 .7 2.116 2.116 0 01.4 1.4 3.6 3.6 0 01-.2 1.1c-.1.3-.4.5-.6.7a1.08 1.08 0 01-.7.3 5.758 5.758 0 01-1.5.1h-.9v2.7h-1.5zm1.5-6v2h.8a2.532 2.532 0 001.1-.1c.1-.1.3-.2.5-.4s.2-.3.2-.6a.845.845 0 00-.2-.6.855.855 0 00-.6-.3h-1.8zM309.6 309.9l-1.2-.2a1.769 1.769 0 01.7-1.1 2.7 2.7 0 011.5-.4 4.636 4.636 0 011.4.2.9.9 0 01.6.6 2.872 2.872 0 01.2 1.2v1.6a2.509 2.509 0 00.1 1 2.544 2.544 0 00.2.7h-1.4c0-.1-.1-.2-.1-.4v-.2a2.177 2.177 0 01-.8.5 2.92 2.92 0 01-.9.2 1.844 1.844 0 01-1.3-.4 1.606 1.606 0 01-.5-1.1 1.884 1.884 0 01.2-.8 1.024 1.024 0 01.6-.5 8.112 8.112 0 011.1-.3 6.3 6.3 0 001.3-.3v-.3a.845.845 0 00-.2-.6 1.165 1.165 0 00-.7-.2 1.268 1.268 0 00-.6.1 2.544 2.544 0 01-.2.7zm1.8 1.1c-.2.1-.5.1-.8.2a4.076 4.076 0 01-.7.2.55.55 0 00-.3.5.684.684 0 00.7.7 1.854 1.854 0 00.7-.2.55.55 0 00.3-.5 3.548 3.548 0 00.1-.7v-.2zM315.5 313.5h-1.4v-5.2h1.3v.7a2.169 2.169 0 01.6-.7 1.421 1.421 0 01.6-.2 1.613 1.613 0 01.9.3l-.4 1.2a1.421 1.421 0 00-.6-.2.764.764 0 00-.5.2 1.628 1.628 0 00-.3.6 7.156 7.156 0 00-.1 1.7v1.6zM320.4 308.3v1.1h-.9v2.8c0 .1.1.1.1.2s.1.1.2.1a1.759 1.759 0 00.6-.1l.1 1.1a3.6 3.6 0 01-1.1.2 1.7 1.7 0 01-.7-.1 1.38 1.38 0 01-.4-.3.764.764 0 01-.2-.5v-3.3h-.6v-1.1h.6v-1l1.4-.8v1.8h.9zM326.1 313.5h-1.4v-2.6a2.815 2.815 0 00-.1-1.1 1.38 1.38 0 00-.3-.4.749.749 0 00-.5-.1 1.072 1.072 0 00-.6.2 2.181 2.181 0 00-.4.5 3.451 3.451 0 00-.1 1.2v2.3h-1.4v-5.2h1.3v.8a2.091 2.091 0 011.7-.9 1.884 1.884 0 01.8.2 1.275 1.275 0 01.6.4c.2.2.2.4.3.6a2.22 2.22 0 01.1.9zM330.5 311.8l1.4.2a2.421 2.421 0 01-.8 1.1 2.3 2.3 0 01-1.4.4 2.263 2.263 0 01-2-.9 3.453 3.453 0 01-.5-1.8 2.578 2.578 0 01.7-2 2.06 2.06 0 011.7-.7 2.2 2.2 0 011.8.8 3.165 3.165 0 01.6 2.3h-3.4a1.222 1.222 0 00.3.9 1.135 1.135 0 00.8.3.764.764 0 00.5-.2.68.68 0 00.3-.4zm.1-1.4a1.222 1.222 0 00-.3-.9.967.967 0 00-1.4 0 1.222 1.222 0 00-.3.9zM334.4 313.5H333v-5.2h1.3v.7a2.169 2.169 0 01.6-.7 1.421 1.421 0 01.6-.2 1.613 1.613 0 01.9.3l-.4 1.2a1.421 1.421 0 00-.6-.2.764.764 0 00-.5.2 1.628 1.628 0 00-.3.6 7.156 7.156 0 00-.1 1.7v1.6zM343.4 309.6a1.7 1.7 0 01-.8-.6 1.344 1.344 0 01-.2-.9 1.612 1.612 0 01.6-1.3 2.81 2.81 0 013.2 0 1.621 1.621 0 01.3 2.2 1.344 1.344 0 01-.7.6 2.178 2.178 0 01.9.7 2.016 2.016 0 01.3 1.1 2.111 2.111 0 01-.6 1.6 2.352 2.352 0 01-1.7.6 2.544 2.544 0 01-1.6-.5 2.136 2.136 0 01-.8-1.7 2.279 2.279 0 01.3-1.1c.1-.3.4-.5.8-.7zm.1 1.7a1.222 1.222 0 00.3.9.967.967 0 001.4 0 1.222 1.222 0 00.3-.9 1.135 1.135 0 00-.3-.8.908.908 0 00-.7-.3.779.779 0 00-.7.3 1.909 1.909 0 00-.3.8zm.2-3.1a.845.845 0 00.2.6 1.072 1.072 0 00.6.2.845.845 0 00.6-.2.735.735 0 00.2-.6.845.845 0 00-.2-.6.735.735 0 00-.6-.2.845.845 0 00-.6.2 1.072 1.072 0 00-.2.6zM351.3 313.5h-1.4v-5.2a4 4 0 01-1.8 1v-1.2a3.072 3.072 0 001.2-.7 3.126 3.126 0 00.9-1.1h1.1v7.2zM355.6 306.3a1.865 1.865 0 011.6.7 4.6 4.6 0 01.7 2.9 4.415 4.415 0 01-.7 2.9 1.865 1.865 0 01-1.6.7 2.136 2.136 0 01-1.7-.8 5 5 0 01-.6-2.9 4.6 4.6 0 01.7-2.9 2.111 2.111 0 011.6-.6zm0 1.1a.52.52 0 00-.4.2 1.628 1.628 0 00-.3.6 8.663 8.663 0 00-.1 1.8 7.156 7.156 0 00.1 1.7 1.628 1.628 0 00.3.6.5.5 0 00.8 0 1.628 1.628 0 00.3-.6 8.159 8.159 0 00.1-1.8 6.7 6.7 0 00-.1-1.7 1.628 1.628 0 00-.3-.6c0-.1-.2-.2-.4-.2z"/></g><g class="cls-23"><path class="cls-13" d="M88 441.6l1.4.4a2.687 2.687 0 01-1.1 1.7 2.883 2.883 0 01-1.9.6 2.765 2.765 0 01-2.3-1 3.829 3.829 0 01-.9-2.7 4.1 4.1 0 01.9-2.8 2.965 2.965 0 012.4-1 2.865 2.865 0 012.1.8 2.326 2.326 0 01.7 1.3l-1.4.3a1.934 1.934 0 00-.5-.9 1.493 1.493 0 00-1-.3 1.612 1.612 0 00-1.3.6 3.86 3.86 0 000 3.8 1.486 1.486 0 001.3.6 1.284 1.284 0 001-.4 1.9 1.9 0 00.6-1zM91.6 440.7l-1.2-.2a1.769 1.769 0 01.7-1.1 2.7 2.7 0 011.5-.4 4.636 4.636 0 011.4.2.9.9 0 01.6.6 2.872 2.872 0 01.2 1.2v1.6a2.509 2.509 0 00.1 1 2.544 2.544 0 00.2.7h-1.4c0-.1-.1-.2-.1-.4v-.2a2.177 2.177 0 01-.8.5 2.92 2.92 0 01-.9.2 1.844 1.844 0 01-1.3-.4 1.606 1.606 0 01-.5-1.1 1.884 1.884 0 01.2-.8 1.024 1.024 0 01.6-.5 8.112 8.112 0 011.1-.3 6.3 6.3 0 001.3-.3v-.1a.845.845 0 00-.2-.6 1.165 1.165 0 00-.7-.2 1.268 1.268 0 00-.6.1c0 .1-.1.2-.2.5zm1.9 1.1c-.2.1-.5.1-.8.2a4.076 4.076 0 01-.7.2.55.55 0 00-.3.5.684.684 0 00.7.7 1.854 1.854 0 00.7-.2.55.55 0 00.3-.5 3.548 3.548 0 00.1-.7zM95.7 442.8l1.4-.2a.918.918 0 00.4.6 1.7 1.7 0 001.6 0 .52.52 0 00.2-.4.367.367 0 00-.1-.3c-.1-.1-.2-.1-.5-.2a6.084 6.084 0 01-2.1-.7 1.425 1.425 0 01-.6-1.2 1.606 1.606 0 01.5-1.1 2.457 2.457 0 011.7-.5 3.506 3.506 0 011.6.3 1.445 1.445 0 01.7 1l-1.3.2a2.186 2.186 0 00-.3-.5 1.165 1.165 0 00-.7-.2 1.549 1.549 0 00-.8.2c-.1.1-.2.2-.2.3s0 .2.1.2a6.8 6.8 0 001.3.4 5.712 5.712 0 011.5.6 1.159 1.159 0 01.4 1 1.425 1.425 0 01-.6 1.2 2.969 2.969 0 01-1.8.5 2.861 2.861 0 01-1.7-.4c-.4-.3-.6-.3-.7-.8zM104.1 439.1v1.1h-.9v2.8c0 .1.1.1.1.2s.1.1.2.1a1.759 1.759 0 00.6-.1l.1 1.1a3.6 3.6 0 01-1.1.2 1.7 1.7 0 01-.7-.1 1.38 1.38 0 01-.4-.3.764.764 0 01-.2-.5v-3.3h-.6v-1.1h.6v-1l1.4-.8v1.8h.9zM105 444.3v-7.2h1.4v7.2zM110.8 442.6l1.4.2a2.421 2.421 0 01-.8 1.1 2.3 2.3 0 01-1.4.4 2.263 2.263 0 01-2-.9 3.453 3.453 0 01-.5-1.8 2.578 2.578 0 01.7-2 2.06 2.06 0 011.7-.7 2.2 2.2 0 011.8.8 3.165 3.165 0 01.6 2.3h-3.4a1.222 1.222 0 00.3.9 1.135 1.135 0 00.8.3.764.764 0 00.5-.2c.1-.1.3-.1.3-.4zm.1-1.4a1.222 1.222 0 00-.3-.9.967.967 0 00-1.4 0 1.222 1.222 0 00-.3.9zM114.4 444.3l-1.6-5.2h1.3l1 3.4.9-3.4h1.3l.9 3.4 1-3.4h1.4l-1.7 5.2h-1.3l-.9-3.3-.9 3.3zM120.8 441.6a2.768 2.768 0 01.3-1.3 1.949 1.949 0 011-1 3.529 3.529 0 011.4-.3 2.56 2.56 0 011.9.8 2.732 2.732 0 01.8 1.9 2.973 2.973 0 01-.8 2 2.56 2.56 0 01-1.9.8 3.529 3.529 0 01-1.4-.3 1.789 1.789 0 01-1-.9 10.1 10.1 0 01-.3-1.7zm1.5.1a1.594 1.594 0 00.4 1.2 1.086 1.086 0 00.9.4.975.975 0 00.9-.4 2.144 2.144 0 00.4-1.2 1.594 1.594 0 00-.4-1.2 1.086 1.086 0 00-.9-.4.975.975 0 00-.9.4 2.144 2.144 0 00-.4 1.2zM127 441.6a2.768 2.768 0 01.3-1.3 1.949 1.949 0 011-1 3.529 3.529 0 011.4-.3 2.56 2.56 0 011.9.8 2.732 2.732 0 01.8 1.9 2.973 2.973 0 01-.8 2 2.56 2.56 0 01-1.9.8 3.529 3.529 0 01-1.4-.3 1.789 1.789 0 01-1-.9 5.079 5.079 0 01-.3-1.7zm1.4.1a1.594 1.594 0 00.4 1.2 1.086 1.086 0 00.9.4.975.975 0 00.9-.4 2.144 2.144 0 00.4-1.2 1.594 1.594 0 00-.4-1.2 1.086 1.086 0 00-.9-.4.975.975 0 00-.9.4 2.144 2.144 0 00-.4 1.2zM138.1 444.3h-1.2v-.8a4.62 4.62 0 01-.7.7 2.92 2.92 0 01-.9.2 1.8 1.8 0 01-1.5-.7 3.633 3.633 0 010-4 1.865 1.865 0 011.6-.7 1.8 1.8 0 011.5.7v-2.6h1.4v7.2zm-3.6-2.7a2.872 2.872 0 00.2 1.2.874.874 0 00.9.5.909.909 0 00.8-.4 2.133 2.133 0 00.3-1.2 2.269 2.269 0 00-.3-1.3 1 1 0 00-1.6 0 2.133 2.133 0 00-.3 1.2z"/></g><g class="cls-23"><path class="cls-13" d="M72.3 325h2.9a4.512 4.512 0 011.3.1.908.908 0 01.7.3c.2.2.4.3.5.6a1.884 1.884 0 01.2.8 1.613 1.613 0 01-.3.9 1.344 1.344 0 01-.7.6 1.7 1.7 0 011 .6 2.1 2.1 0 01.4 1.1 4.4 4.4 0 01-.2 1 2.169 2.169 0 01-.6.7 1.689 1.689 0 01-1 .3h-4.1v-7zm1.5 1.2v1.7h1.9a.864.864 0 00.6-.3.845.845 0 00.2-.6.764.764 0 00-.2-.5 2.186 2.186 0 00-.5-.3h-2zm0 2.8v1.9h2.3a.55.55 0 00.5-.3 1.421 1.421 0 00.2-.6.764.764 0 00-.2-.5.85.85 0 00-.5-.3c-.2 0-.6-.1-1.3-.1h-1zM80.6 328.6l-1.2-.2a1.769 1.769 0 01.7-1.1 2.7 2.7 0 011.5-.4 4.636 4.636 0 011.4.2.9.9 0 01.6.6 2.872 2.872 0 01.2 1.2v1.6a2.509 2.509 0 00.1 1 2.544 2.544 0 00.2.7h-1.4c0-.1-.1-.2-.1-.4v-.2a2.177 2.177 0 01-.8.5 2.92 2.92 0 01-.9.2 1.844 1.844 0 01-1.3-.4 1.606 1.606 0 01-.5-1.1 1.884 1.884 0 01.2-.8 1.024 1.024 0 01.6-.5 8.112 8.112 0 011.1-.3 6.3 6.3 0 001.3-.3v-.1a.845.845 0 00-.2-.6 1.165 1.165 0 00-.7-.2 1.268 1.268 0 00-.6.1c0 .1-.2.2-.2.5zm1.8 1.1c-.2.1-.5.1-.8.2a4.076 4.076 0 01-.7.2.55.55 0 00-.3.5.684.684 0 00.7.7 1.854 1.854 0 00.7-.2.55.55 0 00.3-.5 3.548 3.548 0 00.1-.7zM85 332.2V325h1.4v2.6a1.8 1.8 0 011.5-.7 1.99 1.99 0 011.6.7 2.986 2.986 0 01.6 2 2.814 2.814 0 01-.6 2 2.127 2.127 0 01-1.5.7 2.92 2.92 0 01-.9-.2 1.575 1.575 0 01-.7-.7v.8zm1.4-2.7a2.133 2.133 0 00.3 1.2.957.957 0 00.9.5.909.909 0 00.8-.4 2.133 2.133 0 00.3-1.2 2.269 2.269 0 00-.3-1.3 1 1 0 00-1.6 0 1.461 1.461 0 00-.4 1.2zM91.2 332.2V325h1.4v7.2zM97 330.5l1.4.2a2.421 2.421 0 01-.8 1.1 2.3 2.3 0 01-1.4.4 2.263 2.263 0 01-2-.9 3.453 3.453 0 01-.5-1.8 2.578 2.578 0 01.7-2 2.06 2.06 0 011.7-.7 2.2 2.2 0 011.8.8 3.165 3.165 0 01.6 2.3h-3.4a1.222 1.222 0 00.3.9 1.135 1.135 0 00.8.3.764.764 0 00.5-.2.68.68 0 00.3-.4zm.1-1.4a1.222 1.222 0 00-.3-.9.967.967 0 00-1.4 0 1.222 1.222 0 00-.3.9zM100.9 332.2h-1.4V327h1.3v.7a2.169 2.169 0 01.6-.7 1.421 1.421 0 01.6-.2 1.613 1.613 0 01.9.3l-.4 1.2a1.421 1.421 0 00-.6-.2.764.764 0 00-.5.2 1.628 1.628 0 00-.3.6 7.156 7.156 0 00-.1 1.7v1.6z"/></g><g class="cls-23"><path class="cls-13" d="M370.7 313.5v-7.2h2.3a6.252 6.252 0 011.7.1 1.445 1.445 0 011 .7 2.116 2.116 0 01.4 1.4 3.6 3.6 0 01-.2 1.1c-.1.3-.4.5-.6.7a1.08 1.08 0 01-.7.3 5.758 5.758 0 01-1.5.1h-.9v2.7h-1.5zm1.5-6v2h.8a2.532 2.532 0 001.1-.1c.1-.1.3-.2.5-.4s.2-.3.2-.6a.845.845 0 00-.2-.6.855.855 0 00-.6-.3h-1.8zM378.4 309.9l-1.2-.2a1.769 1.769 0 01.7-1.1 2.7 2.7 0 011.5-.4 4.636 4.636 0 011.4.2.9.9 0 01.6.6 2.872 2.872 0 01.2 1.2v1.6a2.509 2.509 0 00.1 1 2.544 2.544 0 00.2.7h-1.4c0-.1-.1-.2-.1-.4v-.2a2.177 2.177 0 01-.8.5 2.92 2.92 0 01-.9.2 1.844 1.844 0 01-1.3-.4 1.606 1.606 0 01-.5-1.1 1.884 1.884 0 01.2-.8 1.024 1.024 0 01.6-.5 8.112 8.112 0 011.1-.3 6.3 6.3 0 001.3-.3v-.3a.845.845 0 00-.2-.6 1.165 1.165 0 00-.7-.2 1.268 1.268 0 00-.6.1 2.544 2.544 0 01-.2.7zm1.8 1.1c-.2.1-.5.1-.8.2a4.076 4.076 0 01-.7.2.55.55 0 00-.3.5.684.684 0 00.7.7 1.854 1.854 0 00.7-.2.55.55 0 00.3-.5 3.548 3.548 0 00.1-.7v-.2zM384.3 313.5h-1.4v-5.2h1.3v.7a2.169 2.169 0 01.6-.7 1.421 1.421 0 01.6-.2 1.613 1.613 0 01.9.3l-.4 1.2a1.421 1.421 0 00-.6-.2.764.764 0 00-.5.2 1.628 1.628 0 00-.3.6 7.156 7.156 0 00-.1 1.7v1.6zM389.2 308.3v1.1h-.9v2.8c0 .1.1.1.1.2s.1.1.2.1a1.759 1.759 0 00.6-.1l.1 1.1a3.6 3.6 0 01-1.1.2 1.7 1.7 0 01-.7-.1 1.38 1.38 0 01-.4-.3.764.764 0 01-.2-.5v-3.3h-.6v-1.1h.6v-1l1.4-.8v1.8h.9zM394.9 313.5h-1.4v-2.6a2.815 2.815 0 00-.1-1.1 1.38 1.38 0 00-.3-.4.749.749 0 00-.5-.1 1.072 1.072 0 00-.6.2 2.181 2.181 0 00-.4.5 3.451 3.451 0 00-.1 1.2v2.3h-1.4v-5.2h1.3v.8a2.091 2.091 0 011.7-.9 1.884 1.884 0 01.8.2 1.275 1.275 0 01.6.4c.2.2.2.4.3.6a2.22 2.22 0 01.1.9zM399.3 311.8l1.4.2a2.421 2.421 0 01-.8 1.1 2.3 2.3 0 01-1.4.4 2.263 2.263 0 01-2-.9 3.453 3.453 0 01-.5-1.8 2.578 2.578 0 01.7-2 2.06 2.06 0 011.7-.7 2.2 2.2 0 011.8.8 3.165 3.165 0 01.6 2.3h-3.4a1.222 1.222 0 00.3.9 1.135 1.135 0 00.8.3.764.764 0 00.5-.2.68.68 0 00.3-.4zm.1-1.4a1.222 1.222 0 00-.3-.9.967.967 0 00-1.4 0 1.222 1.222 0 00-.3.9zM403.2 313.5h-1.4v-5.2h1.3v.7a2.169 2.169 0 01.6-.7 1.421 1.421 0 01.6-.2 1.613 1.613 0 01.9.3l-.4 1.2a1.421 1.421 0 00-.6-.2.764.764 0 00-.5.2 1.628 1.628 0 00-.3.6 7.156 7.156 0 00-.1 1.7v1.6zM412.2 309.6a1.7 1.7 0 01-.8-.6 1.344 1.344 0 01-.2-.9 1.612 1.612 0 01.6-1.3 2.81 2.81 0 013.2 0 1.621 1.621 0 01.3 2.2 1.344 1.344 0 01-.7.6 2.178 2.178 0 01.9.7 2.016 2.016 0 01.3 1.1 2.111 2.111 0 01-.6 1.6 2.352 2.352 0 01-1.7.6 2.544 2.544 0 01-1.6-.5 2.136 2.136 0 01-.8-1.7 2.279 2.279 0 01.3-1.1c.1-.3.4-.5.8-.7zm.1 1.7a1.222 1.222 0 00.3.9.967.967 0 001.4 0 1.222 1.222 0 00.3-.9 1.135 1.135 0 00-.3-.8.908.908 0 00-.7-.3.779.779 0 00-.7.3 1.909 1.909 0 00-.3.8zm.2-3.1a.845.845 0 00.2.6 1.072 1.072 0 00.6.2.845.845 0 00.6-.2.735.735 0 00.2-.6.845.845 0 00-.2-.6.735.735 0 00-.6-.2.845.845 0 00-.6.2 1.072 1.072 0 00-.2.6zM418.9 306.3a1.865 1.865 0 011.6.7 4.6 4.6 0 01.7 2.9 4.415 4.415 0 01-.7 2.9 1.865 1.865 0 01-1.6.7 2.136 2.136 0 01-1.7-.8 5 5 0 01-.6-2.9 4.6 4.6 0 01.7-2.9 1.969 1.969 0 011.6-.6zm0 1.1a.52.52 0 00-.4.2 1.628 1.628 0 00-.3.6 8.663 8.663 0 00-.1 1.8 7.156 7.156 0 00.1 1.7 1.628 1.628 0 00.3.6.5.5 0 00.8 0 1.628 1.628 0 00.3-.6 8.159 8.159 0 00.1-1.8 6.7 6.7 0 00-.1-1.7 1.628 1.628 0 00-.3-.6.758.758 0 00-.4-.2zM422.1 311.8l1.3-.1a.6.6 0 00.3.6c.2.1.3.2.5.2a.755.755 0 00.7-.4 4.016 4.016 0 00.4-1.6 1.612 1.612 0 01-1.3.6 1.932 1.932 0 01-1.5-.7 2.352 2.352 0 01-.6-1.7 2.792 2.792 0 01.6-1.8 2.36 2.36 0 011.6-.7 2.5 2.5 0 011.8.8 4.279 4.279 0 01.7 2.8 4.105 4.105 0 01-.7 2.8 2.647 2.647 0 01-1.9.9 2.116 2.116 0 01-1.4-.4 5.889 5.889 0 01-.5-1.3zm3.2-3a1.493 1.493 0 00-.3-1 1.012 1.012 0 00-.7-.4.6.6 0 00-.6.3 1.817 1.817 0 000 2 .967.967 0 001.4 0c.2-.2.2-.5.2-.9z"/></g><g class="cls-23"><path class="cls-13" d="M441.7 313.5v-7.2h2.3a6.252 6.252 0 011.7.1 1.445 1.445 0 011 .7 2.116 2.116 0 01.4 1.4 3.6 3.6 0 01-.2 1.1c-.1.3-.4.5-.6.7a1.08 1.08 0 01-.7.3 5.758 5.758 0 01-1.5.1h-.9v2.7h-1.5zm1.5-6v2h.8a2.532 2.532 0 001.1-.1c.1-.1.3-.2.5-.4s.2-.3.2-.6a.845.845 0 00-.2-.6.855.855 0 00-.6-.3h-1.8zM449.4 309.9l-1.2-.2a1.769 1.769 0 01.7-1.1 2.7 2.7 0 011.5-.4 4.636 4.636 0 011.4.2.9.9 0 01.6.6 2.872 2.872 0 01.2 1.2v1.6a2.509 2.509 0 00.1 1 2.544 2.544 0 00.2.7h-1.4c0-.1-.1-.2-.1-.4v-.2a2.177 2.177 0 01-.8.5 2.92 2.92 0 01-.9.2 1.844 1.844 0 01-1.3-.4 1.606 1.606 0 01-.5-1.1 1.884 1.884 0 01.2-.8 1.024 1.024 0 01.6-.5 8.112 8.112 0 011.1-.3 6.3 6.3 0 001.3-.3v-.3a.845.845 0 00-.2-.6 1.165 1.165 0 00-.7-.2 1.268 1.268 0 00-.6.1 2.544 2.544 0 01-.2.7zm1.9 1.1c-.2.1-.5.1-.8.2a4.076 4.076 0 01-.7.2.55.55 0 00-.3.5.684.684 0 00.7.7 1.854 1.854 0 00.7-.2.55.55 0 00.3-.5 3.548 3.548 0 00.1-.7v-.2zM455.3 313.5h-1.4v-5.2h1.3v.7a2.169 2.169 0 01.6-.7 1.421 1.421 0 01.6-.2 1.613 1.613 0 01.9.3l-.4 1.2a1.421 1.421 0 00-.6-.2.764.764 0 00-.5.2 1.628 1.628 0 00-.3.6 7.156 7.156 0 00-.1 1.7v1.6zM460.2 308.3v1.1h-.9v2.8c0 .1.1.1.1.2s.1.1.2.1a1.759 1.759 0 00.6-.1l.1 1.1a3.6 3.6 0 01-1.1.2 1.7 1.7 0 01-.7-.1 1.38 1.38 0 01-.4-.3.764.764 0 01-.2-.5v-3.3h-.6v-1.1h.6v-1l1.4-.8v1.8h.9zM465.9 313.5h-1.4v-2.6a2.815 2.815 0 00-.1-1.1 1.38 1.38 0 00-.3-.4.749.749 0 00-.5-.1 1.072 1.072 0 00-.6.2 2.181 2.181 0 00-.4.5 3.451 3.451 0 00-.1 1.2v2.3h-1.4v-5.2h1.3v.8a2.091 2.091 0 011.7-.9 1.884 1.884 0 01.8.2 1.275 1.275 0 01.6.4c.2.2.2.4.3.6a2.22 2.22 0 01.1.9zM470.3 311.8l1.4.2a2.421 2.421 0 01-.8 1.1 2.3 2.3 0 01-1.4.4 2.263 2.263 0 01-2-.9 3.453 3.453 0 01-.5-1.8 2.578 2.578 0 01.7-2 2.06 2.06 0 011.7-.7 2.2 2.2 0 011.8.8 3.165 3.165 0 01.6 2.3h-3.4a1.222 1.222 0 00.3.9 1.135 1.135 0 00.8.3.764.764 0 00.5-.2.68.68 0 00.3-.4zm.1-1.4a1.222 1.222 0 00-.3-.9.967.967 0 00-1.4 0 1.222 1.222 0 00-.3.9zM474.2 313.5h-1.4v-5.2h1.3v.7a2.169 2.169 0 01.6-.7 1.421 1.421 0 01.6-.2 1.613 1.613 0 01.9.3l-.4 1.2a1.421 1.421 0 00-.6-.2.764.764 0 00-.5.2 1.628 1.628 0 00-.3.6 7.156 7.156 0 00-.1 1.7v1.6zM483.2 309.6a1.7 1.7 0 01-.8-.6 1.344 1.344 0 01-.2-.9 1.612 1.612 0 01.6-1.3 2.81 2.81 0 013.2 0 1.621 1.621 0 01.3 2.2 1.344 1.344 0 01-.7.6 2.178 2.178 0 01.9.7 2.016 2.016 0 01.3 1.1 2.111 2.111 0 01-.6 1.6 2.352 2.352 0 01-1.7.6 2.544 2.544 0 01-1.6-.5 2.136 2.136 0 01-.8-1.7 2.279 2.279 0 01.3-1.1c.1-.3.4-.5.8-.7zm.1 1.7a1.222 1.222 0 00.3.9.967.967 0 001.4 0 1.222 1.222 0 00.3-.9 1.135 1.135 0 00-.3-.8.908.908 0 00-.7-.3.779.779 0 00-.7.3 1.909 1.909 0 00-.3.8zm.2-3.1a.845.845 0 00.2.6 1.072 1.072 0 00.6.2.845.845 0 00.6-.2.735.735 0 00.2-.6.845.845 0 00-.2-.6.735.735 0 00-.6-.2.845.845 0 00-.6.2 1.072 1.072 0 00-.2.6zM489.9 306.3a1.865 1.865 0 011.6.7 4.6 4.6 0 01.7 2.9 4.415 4.415 0 01-.7 2.9 1.865 1.865 0 01-1.6.7 2.136 2.136 0 01-1.7-.8 5 5 0 01-.6-2.9 4.6 4.6 0 01.7-2.9 2.111 2.111 0 011.6-.6zm0 1.1a.52.52 0 00-.4.2 1.628 1.628 0 00-.3.6 8.663 8.663 0 00-.1 1.8 7.156 7.156 0 00.1 1.7 1.628 1.628 0 00.3.6.5.5 0 00.8 0 1.628 1.628 0 00.3-.6 8.159 8.159 0 00.1-1.8 6.7 6.7 0 00-.1-1.7 1.628 1.628 0 00-.3-.6.52.52 0 00-.4-.2zM494.3 309.6a1.7 1.7 0 01-.8-.6 1.344 1.344 0 01-.2-.9 1.612 1.612 0 01.6-1.3 2.81 2.81 0 013.2 0 1.621 1.621 0 01.3 2.2 1.344 1.344 0 01-.7.6 2.178 2.178 0 01.9.7 2.016 2.016 0 01.3 1.1 2.111 2.111 0 01-.6 1.6 2.352 2.352 0 01-1.7.6 2.544 2.544 0 01-1.6-.5 2.136 2.136 0 01-.8-1.7 2.279 2.279 0 01.3-1.1c.1-.3.4-.5.8-.7zm.2 1.7a1.222 1.222 0 00.3.9.967.967 0 001.4 0 1.222 1.222 0 00.3-.9 1.135 1.135 0 00-.3-.8.908.908 0 00-.7-.3.779.779 0 00-.7.3 1.909 1.909 0 00-.3.8zm.1-3.1a.845.845 0 00.2.6 1.072 1.072 0 00.6.2.845.845 0 00.6-.2.735.735 0 00.2-.6.845.845 0 00-.2-.6.735.735 0 00-.6-.2.845.845 0 00-.6.2 1.072 1.072 0 00-.2.6z"/></g><circle class="cls-27" cx="526.8" cy="29.8" r="16.7"/><circle class="cls-29" cx="527.3" cy="23.1" r="2.6"/><path class="cls-29" d="M527.3 26.6c-2.2 0-4.1 3.3-4.1 7h2.6v3.7h3v-3.7h2.6c0-3.6-1.8-7-4.1-7z"/><g class="cls-23"><path class="cls-30" d="M504.7 57v-5.5h3.7v.7h-3v1.7h2.6v.7h-2.6v2.5h-.7zM512 55.8l.7.1a2.075 2.075 0 01-.6 1 1.431 1.431 0 01-1.1.3 2.168 2.168 0 01-1.4-.5 1.837 1.837 0 01-.5-1.5 2.544 2.544 0 01.5-1.6 1.612 1.612 0 011.3-.6 1.9 1.9 0 011.3.5 2.456 2.456 0 01.5 1.5v.2h-3a1.159 1.159 0 00.4 1 1.234 1.234 0 00.8.4 1.072 1.072 0 00.6-.2 1.333 1.333 0 00.5-.6zm-2.2-1.1h2.2a1.135 1.135 0 00-.3-.8.909.909 0 00-.8-.4 1.135 1.135 0 00-.8.3 1.222 1.222 0 00-.3.9zM513.6 57v-4h.6v.6a1.205 1.205 0 01.5-.5 1.325 1.325 0 011.4 0 1 1 0 01.4.5 1.306 1.306 0 011.2-.7 1.222 1.222 0 01.9.3 1.493 1.493 0 01.3 1v2.7h-.7v-2.5c0-.3 0-.5-.1-.6s-.1-.2-.2-.3a.6.6 0 00-.4-.1.908.908 0 00-.7.3 1.222 1.222 0 00-.3.9v2.3h-.6v-2.6a1.445 1.445 0 00-.2-.7c-.1-.2-.3-.2-.5-.2s-.4 0-.5.2-.3.2-.4.4a1.949 1.949 0 00-.1.8v2.1h-.6zM522.6 56.5c-.3.2-.5.4-.7.5a1.7 1.7 0 01-.7.1 1.493 1.493 0 01-1-.3 1.234 1.234 0 01-.4-.8.749.749 0 01.1-.5 1.38 1.38 0 01.3-.4.764.764 0 01.5-.2 3.536 3.536 0 01.6-.1c.5-.1.9-.1 1.2-.2v-.2a.845.845 0 00-.2-.6c-.2-.2-.4-.2-.8-.2a1.165 1.165 0 00-.7.2.6.6 0 00-.3.6l-.7-.1a4.875 4.875 0 01.3-.7.918.918 0 01.6-.4 2.769 2.769 0 01.9-.1 1.949 1.949 0 01.8.1 2.186 2.186 0 01.5.3.764.764 0 01.2.5v2.7c0 .2.1.3.2.5h-.7a1.634 1.634 0 000-.7zm-.1-1.5a5.307 5.307 0 01-1.1.3 3.536 3.536 0 00-.6.1c-.1 0-.2.1-.3.2a.367.367 0 00-.1.3c0 .2.1.3.2.5a.845.845 0 00.6.2 1.445 1.445 0 00.7-.2.664.664 0 00.4-.5 1.483 1.483 0 00.1-.7V55zM524.3 57v-5.5h.7V57zM528.7 55.8l.7.1a2.075 2.075 0 01-.6 1 1.431 1.431 0 01-1.1.3 2.168 2.168 0 01-1.4-.5 1.837 1.837 0 01-.5-1.5 2.544 2.544 0 01.5-1.6 1.612 1.612 0 011.3-.6 1.9 1.9 0 011.3.5 2.456 2.456 0 01.5 1.5v.2h-3a1.159 1.159 0 00.4 1 1.234 1.234 0 00.8.4 1.072 1.072 0 00.6-.2 1.333 1.333 0 00.5-.6zm-2.2-1.1h2.2a1.135 1.135 0 00-.3-.8.909.909 0 00-.8-.4 1.135 1.135 0 00-.8.3 1.222 1.222 0 00-.3.9z"/></g><g class="cls-23"><path class="cls-30" d="M534.6 57v-4.9h-1.8v-.7h4.4v.7h-1.8V57zM536.7 55a1.969 1.969 0 01.6-1.6 1.844 1.844 0 011.3-.4 1.9 1.9 0 011.3.5 2.456 2.456 0 01.5 1.5 3.73 3.73 0 01-.2 1.2 2.336 2.336 0 01-.7.7 1.645 1.645 0 01-1 .2 2.168 2.168 0 01-1.4-.5 3.408 3.408 0 01-.4-1.6zm.7 0a1.609 1.609 0 00.3 1.1 1 1 0 001.6 0 1.922 1.922 0 00.3-1.2 1.609 1.609 0 00-.3-1.1 1 1 0 00-1.6 0 2.133 2.133 0 00-.3 1.2zM541.2 52.3v-.8h.7v.8zm0 4.7v-4h.7v4zM542.9 57v-5.5h.7V57zM547.4 55.8l.7.1a2.075 2.075 0 01-.6 1 2.016 2.016 0 01-1.1.3 2.168 2.168 0 01-1.4-.5 2.456 2.456 0 01-.5-1.5 2.544 2.544 0 01.5-1.6 1.612 1.612 0 011.3-.6 1.9 1.9 0 011.3.5 2.456 2.456 0 01.5 1.5v.2h-3a1.159 1.159 0 00.4 1 1.234 1.234 0 00.8.4 1.072 1.072 0 00.6-.2 2.651 2.651 0 00.5-.6zm-2.2-1.1h2.2a1.135 1.135 0 00-.3-.8.909.909 0 00-.8-.4 1.135 1.135 0 00-.8.3 1.222 1.222 0 00-.3.9zM550.4 56.4l.1.6a4.331 4.331 0 00-.5.1 1.268 1.268 0 01-.6-.1l-.3-.3c-.1-.1-.1-.4-.1-.8v-2.3h-.5v-.5h.5v-1l.7-.4v1.4h.7v.5h-.7v2.7a.1.1 0 00.1.1h.2c.2.1.3 0 .4 0zM550.8 55.8l.7-.1a.6.6 0 00.3.6 1.325 1.325 0 001.4 0 .4.4 0 00.2-.4.52.52 0 00-.2-.4c-.1-.1-.3-.1-.7-.2a4.053 4.053 0 01-1-.3.781.781 0 01-.4-.4 1.3 1.3 0 010-1 1.38 1.38 0 01.3-.4c.1-.1.2-.1.4-.2a1.268 1.268 0 01.6-.1 1.949 1.949 0 01.8.1 1 1 0 01.5.4 1.421 1.421 0 01.2.6l-.7.1a.55.55 0 00-.3-.5.845.845 0 00-.6-.2 1.445 1.445 0 00-.7.2c-.2.1-.2.2-.2.4 0 .1 0 .2.1.2a.769.769 0 00.3.2 3.933 3.933 0 01.6.2 4.053 4.053 0 011 .3.781.781 0 01.4.4 1.072 1.072 0 01.2.6 1.421 1.421 0 01-.2.6 1.024 1.024 0 01-.6.5 2.353 2.353 0 01-.8.2 2.133 2.133 0 01-1.2-.3 2.817 2.817 0 01-.4-1.1z"/></g></g></svg>