<svg id="Layer_1" xmlns="http://www.w3.org/2000/svg" width="797.1" height="329.3" viewBox="0 0 797.1 329.3"><title>white_Black</title><path d="M313 49.8c-29.1 30.5-43.7 71.1-43.7 121.6 0 46.1 13.4 83.4 40.3 112.1s61.6 42.9 104.2 42.9c27.1.1 53.9-5.3 78.9-15.7V290c-22.8 11.2-48.5 16.7-77.2 16.7-35.9 0-65.6-12.3-89-36.9s-35.1-58.1-35.1-100.5c0-44.1 12.2-79.4 36.7-105.9 24.5-26.5 56.3-39.8 95.4-39.8 23.8-.1 47.4 5 69.1 14.8V15.6C470.7 7.9 447.5 4 424.1 4.1c-44.9 0-82 15.2-111.1 45.7zM673 9.3h-20.4L535 321h23.7l35.6-96.9h135.2l35.7 96.9h24.1zm-544.1 0L11.3 321H35l35.6-96.9h135.2l35.7 96.9h24.1L149.3 9.3z"/></svg>