<?xml version="1.0" encoding="utf-8"?>
<!-- Generator: Adobe Illustrator 25.2.0, SVG Export Plug-In . SVG Version: 6.00 Build 0)  -->
<svg version="1.1" id="Layer_1" xmlns="http://www.w3.org/2000/svg" xmlns:xlink="http://www.w3.org/1999/xlink" x="0px" y="0px"
	 viewBox="0 0 2005.9 935.6" style="enable-background:new 0 0 2005.9 935.6;" xml:space="preserve">
<style type="text/css">
	.st0{fill:#23A2B7;stroke:#23A2B7;stroke-width:5;stroke-miterlimit:10;}
	.st1{fill:#A8E0E5;}
	.st2{fill:#8ECCCE;}
	.st3{fill:#99B8BF;}
	.st4{opacity:0.74;fill:#575757;enable-background:new    ;}
	.st5{fill:#FFFFFF;}
	.st6{fill:none;stroke:#FFFFFF;stroke-width:6;stroke-miterlimit:10;}
	.st7{fill:none;stroke:#FFFFFF;stroke-width:4;stroke-miterlimit:10;}
	.st8{fill:#EBF2F2;}
	.st9{fill:#646B6D;}
	.st10{fill:none;stroke:#7A8E93;stroke-width:0.709;stroke-miterlimit:10;}
	.st11{fill:none;stroke:#7A8E93;stroke-width:0.74;stroke-linecap:round;stroke-linejoin:round;}
	.st12{fill:#767E80;}
	.st13{fill:#EBF1F2;}
	.st14{fill:none;stroke:#7A8E93;stroke-width:0.827;stroke-miterlimit:10;}
	.st15{fill:#7A8E93;stroke:#7A8E93;stroke-width:0.359;stroke-miterlimit:10;}
	.st16{enable-background:new    ;}
</style>
<g id="shadow">
	<g id="shadow-2">
		<polygon class="st0" points="67,102.5 1952.6,102.5 1952.6,631.7 1606.8,652.3 1606.8,268.6 1574.6,268.6 1574.6,324.6 
			1525.7,324.6 1525.7,272.4 1517.8,272.4 1517.8,394.9 639.8,394.9 568.5,428.7 616.2,835.2 158.5,890.6 		"/>
	</g>
</g>
<g id="background">
	<polygon class="st1" points="158,858.8 67.4,99.5 1946.8,99.5 1952.6,608.2 1590.9,627.4 1586.7,257.4 1565.2,257.4 1565.2,311.1 
		1518,311.1 1518,262.7 1510.8,262.7 1510.8,379.9 638.1,379.9 565.1,413.4 614.2,807.3 	"/>
</g>
<g id="spaces">
	<polygon class="st2" points="67,99.5 276.6,99.5 300.9,291.8 92.6,313.7 	"/>
	<polygon class="st2" points="131.4,639 355.7,611.2 381.4,833.5 158,858.8 	"/>
	<polygon class="st2" points="395.3,520.2 575.1,496.5 614.2,807.3 430.8,828 419.3,703.2 406,608.4 	"/>
	<path class="st2" d="M363.7,230.6c0,0-1.5-35.8,6.7-53.8s18-28.7,18-28.7s-6-27.8,16.9-33.6s24,6.2,24,6.2s32.2-11.9,68.2-0.6
		s71,45.2,71,45.2s30.3,36.3,40.8,57.3s6.9,14.5,6.9,14.5h18.6v-36.7h199.8v19.7h147v-6.4h103.5v-20.6H1200v-38.2h68.7v225.2H648.3
		v-20.7h-13.5v-89.7h-8.9c0,0,12.1,62.3-8.4,87.4s-27.9,34.9-44.2,39s-64.1,7-86.8-2.4s-48.8-24-63.2-40.2s-43.1-57.6-49.1-72
		c-3.5-8.1-6.3-16.4-8.5-25L363.7,230.6z"/>
	<rect x="1258.6" y="99.5" class="st2" width="38.3" height="54.6"/>
	<polygon class="st2" points="1392.7,187.6 1479.8,187.6 1479.8,99.5 1592.3,99.5 1592.3,208.6 1592.3,213.2 1510.4,213.2 
		1510.4,296.4 1382.1,296.4 1382.1,231.2 1371.6,231.2 1371.6,208.2 	"/>
	<polygon class="st2" points="1675.9,99.5 1675.9,196.1 1607.5,196.1 1607.5,208.6 1592.3,208.6 1592.3,99.5 	"/>
	<path class="st2" d="M1597.6,247.6h78.4V99.5h50.5v39.3l5.1,1.7v7.4c0,0,5.1,13.9,8.5,19.4s9.7,17.1,10.7,25.9s1,45.6,1,45.6v30.6
		h13v20.9H1754v19.9h195.4l3.3,298.1L1591,625.8l-3-269l-1.5-99.3l8.5-0.1l-0.8-9.7L1597.6,247.6L1597.6,247.6z"/>
	<path class="st3" d="M1726.4,99.5h220.4l2.5,210.7h-195.4v-19.9h10.8v-20.9h-13v-60.7c0,0-0.3-18.5-2.7-23.8s-9-17.6-9-17.6
		l-7.2-13.2l-1.3-6.2v-7.4l-5.1-1.7L1726.4,99.5z"/>
	<polygon class="st2" points="1268.7,154.7 1361,154.7 1392.7,187.6 1371.6,208.2 1371.6,231.2 1382.1,231.2 1382.1,296.4 
		1510.4,296.4 1510.4,379.9 1268.7,379.9 	"/>
	<rect x="834.6" y="154.7" class="st3" width="146.2" height="63.4"/>
	<rect x="971.1" y="156" class="st3" width="115" height="57.5"/>
	<path class="st3" d="M559.2,156h151.7v44.7l-76.1-0.4V237h-18.6C616.2,237,590.9,180.4,559.2,156z"/>
	<path class="st3" d="M367.3,284.8h8.7c0,0,22.7,43.1,39.7,60.3c9.3,9.6,19.2,18.7,29.5,27.2l-8.5,12.4l3.7,40.7l-55.6,6.3
		L367.3,284.8z"/>
	<polygon class="st3" points="92.6,313.7 367.3,284.8 405.5,605.6 275.9,620.1 131.4,639 	"/>
	<polygon class="st3" points="276.6,99.5 348.1,99.5 363.8,213.5 363.8,242.6 368.9,269.5 374.2,281.3 376,284.8 300.9,291.8 	"/>
	<polygon class="st3" points="351.1,611.8 405.5,605.6 422.2,731.9 428,797.4 430.8,828 381.4,833.5 363.7,689.2 	"/>
	<rect x="1519.2" y="255.6" class="st2" width="45.6" height="55.5"/>
	<rect x="1373.4" y="297.4" class="st3" width="137" height="82.5"/>
</g>
<g id="bookable">
	<polygon id="area-04.4.10-status" class="st4" points="634.8,200.3 834.6,200.3 834.6,379.9 648.3,379.9 648.3,357.8 634.8,357.8 	
		"/>
	<rect id="area-04.4.11-status" x="832.6" y="219.1" class="st4" width="149" height="163.2"/>
	<polygon id="area-04.4.12-status" class="st4" points="1085.1,192.9 1200,192.9 1200,379.9 980.9,379.9 980.9,213.5 1085.1,213.5 	
		"/>
	<polygon id="area-04.4.01-status" class="st4" points="419.3,697.1 597.5,676.9 613.7,807.3 430.8,828 	"/>
	<polygon id="area-04.4.02-status" class="st4" points="131.4,639 352.5,611.6 381.4,835.8 157.6,858.8 	"/>
	<polygon id="area-04.4.03-status" class="st4" points="67,99.5 276.6,102.5 300.9,291.8 92.6,313.7 	"/>
	<g>
		<path class="st5" d="M475.9,752.5v-8.6h2.8c0.7,0,1.4,0,2.1,0.1c0.5,0.1,0.9,0.4,1.2,0.8c0.3,0.5,0.5,1.1,0.5,1.7
			c0,0.5-0.1,0.9-0.3,1.3c-0.2,0.3-0.4,0.6-0.7,0.8c-0.3,0.2-0.6,0.3-0.9,0.4c-0.6,0.1-1.2,0.1-1.8,0.1h-1.1v3.2h-1.8V752.5z
			 M477.6,745.3v2.4h0.9c0.5,0,0.9,0,1.4-0.1c0.2-0.1,0.4-0.2,0.5-0.4s0.2-0.4,0.2-0.7s-0.1-0.6-0.3-0.8c-0.2-0.2-0.4-0.3-0.7-0.4
			c-0.4-0.1-0.8-0.1-1.2-0.1L477.6,745.3z"/>
		<path class="st5" d="M485.1,748.2l-1.5-0.3c0.1-0.5,0.4-1,0.9-1.3c0.6-0.3,1.2-0.5,1.8-0.4c0.6,0,1.1,0.1,1.6,0.3
			c0.3,0.1,0.6,0.4,0.8,0.7c0.2,0.5,0.3,1,0.2,1.5v1.9c0,0.4,0,0.8,0.1,1.2c0.1,0.3,0.2,0.6,0.3,0.8h-1.6c0-0.1-0.1-0.3-0.2-0.5
			c0-0.1,0-0.2-0.1-0.2c-0.3,0.3-0.6,0.5-0.9,0.6s-0.7,0.2-1,0.2c-0.6,0-1.1-0.2-1.5-0.5s-0.6-0.8-0.6-1.3c0-0.3,0.1-0.7,0.3-0.9
			c0.2-0.3,0.4-0.5,0.7-0.6c0.4-0.2,0.9-0.3,1.3-0.4c0.5-0.1,1.1-0.2,1.6-0.4v-0.2c0-0.2-0.1-0.5-0.2-0.7c-0.3-0.2-0.6-0.2-0.9-0.2
			c-0.2,0-0.5,0-0.7,0.2C485.3,747.7,485.2,747.9,485.1,748.2z M487.3,749.5c-0.3,0.1-0.7,0.2-1,0.3c-0.3,0-0.6,0.1-0.9,0.3
			c-0.2,0.1-0.3,0.3-0.3,0.6c0,0.2,0.1,0.4,0.3,0.6c0.2,0.2,0.4,0.3,0.7,0.3c0.3,0,0.6-0.1,0.8-0.3c0.2-0.1,0.3-0.3,0.4-0.5
			c0.1-0.3,0.1-0.5,0.1-0.8L487.3,749.5z"/>
		<path class="st5" d="M492.1,752.5h-1.6v-6.2h1.5v0.9c0.2-0.3,0.4-0.6,0.7-0.8c0.2-0.1,0.5-0.2,0.7-0.2c0.4,0,0.8,0.1,1.1,0.3
			l-0.5,1.4c-0.2-0.2-0.5-0.3-0.8-0.3c-0.2,0-0.4,0.1-0.6,0.2c-0.2,0.2-0.3,0.4-0.4,0.7c-0.1,0.7-0.2,1.4-0.1,2.1L492.1,752.5z"/>
		<path class="st5" d="M498.1,746.3v1.3H497v2.5c0,0.3,0,0.6,0,0.9c0,0.1,0.1,0.2,0.1,0.2c0.1,0.1,0.2,0.1,0.3,0.1
			c0.2,0,0.5-0.1,0.7-0.2l0.1,1.3c-0.4,0.2-0.9,0.3-1.3,0.2c-0.3,0-0.5,0-0.8-0.1c-0.2-0.1-0.4-0.2-0.5-0.4s-0.2-0.4-0.2-0.6
			c0-0.4-0.1-0.8-0.1-1.2v-2.7h-0.8v-1.3h0.8V745l1.7-1v2.2L498.1,746.3z"/>
		<path class="st5" d="M504.9,752.5h-1.6v-3.2c0-0.4,0-0.9-0.1-1.3c-0.1-0.2-0.2-0.3-0.3-0.5c-0.2-0.1-0.4-0.2-0.6-0.2
			c-0.3,0-0.5,0.1-0.8,0.2c-0.2,0.1-0.4,0.4-0.5,0.6c-0.1,0.5-0.1,0.9-0.1,1.4v2.8h-1.6v-6.2h1.5v0.9c0.7-1,2-1.3,3-0.9
			c0.3,0.1,0.5,0.3,0.7,0.5s0.3,0.4,0.3,0.7c0.1,0.4,0.1,0.7,0.1,1.1V752.5z"/>
		<path class="st5" d="M510.2,750.5l1.6,0.3c-0.2,0.6-0.5,1-1,1.4c-0.5,0.3-1.1,0.5-1.7,0.5c-0.9,0.1-1.8-0.3-2.4-1.1
			c-0.4-0.6-0.6-1.4-0.6-2.1c-0.1-0.9,0.2-1.7,0.8-2.4c0.5-0.6,1.3-0.9,2-0.9c0.8,0,1.6,0.3,2.2,0.9c0.6,0.8,0.9,1.8,0.8,2.8h-4.1
			c0,0.4,0.1,0.8,0.4,1.1c0.2,0.3,0.6,0.4,1,0.4c0.2,0,0.5-0.1,0.6-0.2C510,751,510.1,750.8,510.2,750.5z M510.3,748.8
			c0-0.4-0.1-0.8-0.4-1.1c-0.5-0.5-1.2-0.5-1.7,0c0,0,0,0-0.1,0.1c-0.2,0.3-0.4,0.7-0.3,1.1L510.3,748.8L510.3,748.8z"/>
		<path class="st5" d="M514.8,752.5h-1.6v-6.2h1.5v0.9c0.2-0.3,0.4-0.6,0.7-0.8c0.2-0.1,0.5-0.2,0.7-0.2c0.4,0,0.8,0.1,1.1,0.3
			l-0.5,1.4c-0.2-0.2-0.5-0.3-0.8-0.3c-0.2,0-0.4,0.1-0.6,0.2c-0.2,0.2-0.3,0.4-0.4,0.7c-0.1,0.7-0.2,1.4-0.1,2.1L514.8,752.5
			L514.8,752.5z"/>
		<path class="st5" d="M522.8,752.5h-1.6v-6.2h1.5v0.9c0.2-0.3,0.4-0.6,0.7-0.8c0.2-0.1,0.5-0.2,0.7-0.2c0.4,0,0.8,0.1,1.1,0.3
			l-0.5,1.4c-0.2-0.2-0.5-0.3-0.8-0.3c-0.2,0-0.4,0.1-0.6,0.2c-0.2,0.2-0.3,0.4-0.4,0.7c-0.1,0.7-0.2,1.4-0.1,2.1L522.8,752.5
			L522.8,752.5z"/>
		<path class="st5" d="M525.5,749.3c0-0.6,0.1-1.1,0.4-1.6c0.3-0.5,0.7-0.9,1.1-1.2c0.5-0.3,1.1-0.4,1.7-0.4c0.9,0,1.7,0.3,2.3,0.9
			c0.6,0.6,0.9,1.5,0.9,2.3c0,0.9-0.3,1.7-0.9,2.3c-0.6,0.6-1.4,1-2.3,0.9c-0.6,0-1.1-0.1-1.6-0.4c-0.5-0.2-0.9-0.6-1.2-1.1
			C525.6,750.5,525.5,749.9,525.5,749.3z M527.2,749.4c0,0.5,0.1,1,0.4,1.4c0.5,0.6,1.4,0.7,2,0.1l0.1-0.1c0.3-0.4,0.5-0.9,0.4-1.4
			c0-0.5-0.1-1-0.4-1.4c-0.5-0.6-1.4-0.7-2-0.1l-0.1,0.1C527.3,748.3,527.2,748.9,527.2,749.4z"/>
		<path class="st5" d="M532.9,749.3c0-0.6,0.1-1.1,0.4-1.6c0.3-0.5,0.7-0.9,1.1-1.2c0.5-0.3,1.1-0.4,1.7-0.4c0.9,0,1.7,0.3,2.3,0.9
			c0.6,0.6,0.9,1.5,0.9,2.3c0,0.9-0.3,1.7-0.9,2.3c-0.6,0.6-1.4,1-2.3,0.9c-0.6,0-1.1-0.1-1.6-0.4c-0.5-0.2-0.9-0.6-1.2-1.1
			C533,750.5,532.8,749.9,532.9,749.3z M534.5,749.4c0,0.5,0.1,1,0.4,1.4c0.5,0.6,1.4,0.7,2,0.1l0.1-0.1c0.3-0.4,0.5-0.9,0.4-1.4
			c0-0.5-0.1-1-0.4-1.4c-0.5-0.6-1.4-0.7-2-0.1l-0.1,0.1C534.7,748.3,534.5,748.9,534.5,749.4z"/>
		<path class="st5" d="M540.4,746.3h1.5v0.8c0.5-0.6,1.2-1,1.9-1c0.4,0,0.7,0.1,1,0.2c0.3,0.2,0.6,0.4,0.7,0.7
			c0.2-0.3,0.5-0.6,0.9-0.7c0.3-0.2,0.7-0.2,1-0.2c0.4,0,0.8,0.1,1.2,0.3c0.3,0.2,0.6,0.5,0.7,0.8c0.1,0.4,0.2,0.9,0.2,1.3v4h-1.6
			v-3.6c0-0.4,0-0.8-0.2-1.2c-0.2-0.2-0.4-0.4-0.7-0.4c-0.2,0-0.5,0.1-0.7,0.2c-0.2,0.2-0.4,0.4-0.4,0.6c-0.1,0.4-0.2,0.9-0.1,1.3v3
			h-1.7V749c0-0.4,0-0.8-0.1-1.2c0-0.2-0.1-0.3-0.3-0.4c-0.1-0.1-0.3-0.1-0.5-0.1s-0.5,0.1-0.7,0.2c-0.2,0.1-0.4,0.4-0.4,0.6
			c-0.1,0.4-0.2,0.9-0.1,1.3v3h-1.6L540.4,746.3L540.4,746.3z"/>
		<path class="st5" d="M557.4,752.5v-1.7h-3.5v-1.4l3.7-5.5h1.4v5.5h1.1v1.4H559v1.7H557.4z M557.4,749.3v-2.9l-2,2.9H557.4z"/>
		<path class="st5" d="M563.7,743.8c0.8,0,1.5,0.3,2,0.9c1.1,2.2,1.1,4.8,0,7c-0.5,0.6-1.2,0.9-1.9,0.9c-0.8,0-1.5-0.3-2-1
			c-1.1-2.2-1-4.8,0.1-6.9C562.2,744.1,562.9,743.8,563.7,743.8z M563.7,745.2c-0.2,0-0.4,0.1-0.5,0.2c-0.2,0.2-0.3,0.4-0.4,0.7
			c-0.2,1.4-0.2,2.8,0,4.2c0.1,0.3,0.2,0.5,0.4,0.8c0.3,0.3,0.8,0.3,1.1,0c0.2-0.2,0.3-0.4,0.4-0.7c0.2-1.4,0.2-2.8,0-4.2
			c-0.1-0.3-0.2-0.5-0.4-0.8C564.1,745.3,563.9,745.2,563.7,745.2z"/>
		<path class="st5" d="M571.8,752.5h-1.6v-6.2c-0.6,0.6-1.3,1-2.1,1.2V746c0.5-0.2,1-0.5,1.4-0.8c0.5-0.3,0.8-0.8,1-1.4h1.3
			L571.8,752.5z"/>
	</g>
	<g>
		<path class="st5" d="M237.8,735.2v-7.1h-2.5v-1.5h6.8v1.5h-2.5v7.1H237.8z"/>
		<path class="st5" d="M245.9,733.2l1.6,0.3c-0.2,0.6-0.5,1-1,1.4c-0.5,0.3-1.1,0.5-1.7,0.5c-0.9,0.1-1.8-0.3-2.4-1.1
			c-0.4-0.6-0.6-1.4-0.6-2.1c-0.1-0.9,0.2-1.7,0.8-2.4c0.5-0.6,1.3-0.9,2-0.9c0.8,0,1.6,0.3,2.2,0.9c0.6,0.8,0.9,1.8,0.8,2.8h-4.1
			c0,0.4,0.1,0.8,0.4,1.1c0.2,0.3,0.6,0.4,0.9,0.4c0.2,0,0.5-0.1,0.6-0.2C245.7,733.7,245.8,733.5,245.9,733.2z M246,731.6
			c0-0.4-0.1-0.8-0.4-1.1c-0.2-0.2-0.5-0.4-0.9-0.4c-0.3,0-0.7,0.1-0.9,0.4c-0.2,0.3-0.4,0.7-0.3,1.1H246z"/>
		<path class="st5" d="M250.2,730.9l-1.5-0.3c0.1-0.5,0.4-1,0.9-1.3c0.6-0.3,1.2-0.5,1.8-0.4c0.6,0,1.1,0.1,1.6,0.3
			c0.3,0.1,0.6,0.4,0.8,0.7c0.2,0.5,0.3,1,0.2,1.5v1.9c0,0.4,0,0.8,0.1,1.2c0.1,0.3,0.2,0.6,0.3,0.8h-1.6c0-0.1-0.1-0.3-0.2-0.5
			c0-0.1,0-0.2-0.1-0.2c-0.3,0.3-0.6,0.5-0.9,0.6c-0.3,0.1-0.7,0.2-1,0.2c-0.6,0-1.1-0.2-1.5-0.5s-0.6-0.8-0.6-1.3
			c0-0.3,0.1-0.7,0.3-0.9c0.2-0.3,0.4-0.5,0.7-0.6c0.4-0.2,0.9-0.3,1.3-0.4c0.5-0.1,1.1-0.2,1.6-0.4V731c0-0.2-0.1-0.5-0.2-0.7
			c-0.3-0.2-0.6-0.2-0.9-0.2c-0.2,0-0.5,0-0.7,0.2C250.4,730.4,250.3,730.6,250.2,730.9z M252.4,732.2c-0.2,0.1-0.5,0.2-1,0.3
			c-0.3,0-0.6,0.1-0.9,0.3c-0.2,0.1-0.3,0.3-0.3,0.6c0,0.2,0.1,0.4,0.3,0.6c0.2,0.2,0.4,0.3,0.7,0.3s0.6-0.1,0.9-0.3
			c0.2-0.1,0.3-0.3,0.4-0.5c0.1-0.3,0.1-0.5,0.1-0.8L252.4,732.2z"/>
		<path class="st5" d="M255.5,729h1.5v0.8c0.5-0.6,1.2-1,1.9-1c0.4,0,0.7,0.1,1,0.2c0.3,0.2,0.6,0.4,0.7,0.7
			c0.2-0.3,0.5-0.6,0.9-0.7c0.3-0.2,0.7-0.2,1-0.2c0.4,0,0.8,0.1,1.2,0.3c0.3,0.2,0.6,0.5,0.7,0.8c0.1,0.4,0.2,0.9,0.2,1.3v4H263
			v-3.6c0-0.4,0-0.8-0.2-1.2c-0.2-0.2-0.4-0.4-0.7-0.4c-0.2,0-0.5,0.1-0.7,0.2c-0.2,0.2-0.4,0.4-0.4,0.6c-0.1,0.4-0.2,0.9-0.1,1.3v3
			h-1.6v-3.4c0-0.4,0-0.8-0.1-1.2c0-0.2-0.1-0.3-0.3-0.4c-0.1-0.1-0.3-0.1-0.5-0.1s-0.5,0.1-0.7,0.2c-0.2,0.1-0.4,0.4-0.4,0.6
			c-0.1,0.4-0.2,0.9-0.1,1.3v3h-1.6L255.5,729z"/>
		<path class="st5" d="M271.2,735.2h-1.6V729h1.5v0.9c0.2-0.3,0.4-0.6,0.7-0.8c0.2-0.1,0.5-0.2,0.7-0.2c0.4,0,0.8,0.1,1.1,0.3
			l-0.5,1.4c-0.2-0.2-0.5-0.3-0.8-0.3c-0.2,0-0.4,0.1-0.6,0.2c-0.2,0.2-0.3,0.4-0.4,0.7c-0.1,0.7-0.2,1.4-0.1,2.1L271.2,735.2z"/>
		<path class="st5" d="M273.9,732c0-0.6,0.1-1.1,0.4-1.6s0.7-0.9,1.1-1.2c0.5-0.3,1.1-0.4,1.7-0.4c0.9,0,1.7,0.3,2.3,0.9
			c0.6,0.6,0.9,1.5,0.9,2.3c0,0.9-0.3,1.7-0.9,2.3s-1.4,1-2.3,0.9c-0.6,0-1.1-0.1-1.6-0.4c-0.5-0.2-0.9-0.6-1.2-1.1
			C274,733.3,273.9,732.6,273.9,732z M275.6,732.1c0,0.5,0.1,1,0.4,1.4c0.5,0.6,1.4,0.7,2,0.1l0.1-0.1c0.3-0.4,0.5-0.9,0.4-1.4
			c0-0.5-0.1-1-0.4-1.4c-0.5-0.6-1.4-0.7-2-0.1l-0.1,0.1C275.7,731.1,275.6,731.6,275.6,732.1L275.6,732.1z"/>
		<path class="st5" d="M281.3,732c0-0.6,0.1-1.1,0.4-1.6s0.7-0.9,1.1-1.2c0.5-0.3,1.1-0.4,1.7-0.4c0.9,0,1.7,0.3,2.3,0.9
			c0.6,0.6,0.9,1.5,0.9,2.3c0,0.9-0.3,1.7-0.9,2.3s-1.4,1-2.3,0.9c-0.6,0-1.1-0.1-1.6-0.4c-0.5-0.2-0.9-0.6-1.2-1.1
			C281.4,733.3,281.2,732.6,281.3,732z M282.9,732.1c0,0.5,0.1,1,0.4,1.4c0.5,0.6,1.4,0.7,2,0.1l0.1-0.1c0.3-0.4,0.5-0.9,0.4-1.4
			c0-0.5-0.1-1-0.4-1.4c-0.5-0.6-1.4-0.7-2-0.1l-0.1,0.1C283.1,731.1,282.9,731.6,282.9,732.1z"/>
		<path class="st5" d="M288.8,729h1.5v0.8c0.5-0.6,1.2-1,1.9-1c0.4,0,0.7,0.1,1,0.2c0.3,0.2,0.6,0.4,0.7,0.7
			c0.2-0.3,0.5-0.6,0.9-0.7c0.3-0.2,0.7-0.2,1-0.2c0.4,0,0.8,0.1,1.2,0.3c0.3,0.2,0.6,0.5,0.7,0.8c0.1,0.4,0.2,0.9,0.2,1.3v4h-1.6
			v-3.6c0-0.4,0-0.8-0.2-1.2c-0.2-0.2-0.4-0.4-0.7-0.4c-0.2,0-0.5,0.1-0.7,0.2c-0.2,0.2-0.4,0.4-0.4,0.6c-0.1,0.4-0.2,0.9-0.1,1.3v3
			h-1.6v-3.4c0-0.4,0-0.8-0.1-1.2c0-0.2-0.1-0.3-0.3-0.4c-0.1-0.1-0.3-0.1-0.5-0.1s-0.5,0.1-0.7,0.2c-0.2,0.1-0.4,0.4-0.4,0.6
			c-0.1,0.4-0.2,0.9-0.1,1.3v3h-1.6L288.8,729z"/>
	</g>
	<g>
		<path class="st5" d="M156.4,206.6V198h2.8c0.7,0,1.4,0,2.1,0.1c0.5,0.1,0.9,0.4,1.2,0.8c0.4,0.5,0.5,1.1,0.5,1.7
			c0,0.5-0.1,0.9-0.3,1.3c-0.2,0.3-0.4,0.6-0.7,0.8s-0.6,0.3-0.9,0.4c-0.6,0.1-1.2,0.1-1.8,0.1h-1.1v3.2L156.4,206.6z M158.2,199.5
			v2.4h0.9c0.5,0,0.9,0,1.4-0.1c0.2-0.1,0.4-0.2,0.5-0.4s0.2-0.4,0.2-0.7s-0.1-0.6-0.3-0.8s-0.4-0.3-0.7-0.4
			c-0.4-0.1-0.8-0.1-1.2-0.1L158.2,199.5z"/>
		<path class="st5" d="M165.7,202.3l-1.5-0.3c0.1-0.5,0.4-1,0.9-1.3c0.6-0.3,1.2-0.5,1.8-0.4c0.6,0,1.1,0.1,1.6,0.3
			c0.3,0.1,0.6,0.4,0.8,0.7c0.2,0.5,0.3,1,0.2,1.5v1.9c0,0.4,0,0.8,0.1,1.2c0.1,0.3,0.2,0.6,0.3,0.8h-1.6c0-0.1-0.1-0.3-0.2-0.5
			c0-0.1,0-0.2-0.1-0.2c-0.3,0.3-0.6,0.5-0.9,0.6c-0.3,0.1-0.7,0.2-1,0.2c-0.6,0-1.1-0.2-1.5-0.5s-0.6-0.8-0.6-1.3
			c0-0.3,0.1-0.7,0.3-0.9c0.2-0.3,0.4-0.5,0.7-0.6c0.4-0.2,0.9-0.3,1.3-0.4c0.5-0.1,1.1-0.2,1.6-0.4v-0.2c0-0.2-0.1-0.5-0.2-0.7
			c-0.3-0.2-0.6-0.2-0.9-0.2c-0.2,0-0.5,0-0.7,0.2C165.9,201.8,165.7,202,165.7,202.3z M167.9,203.6c-0.2,0.1-0.5,0.2-1,0.3
			c-0.3,0-0.6,0.1-0.9,0.3c-0.2,0.1-0.3,0.3-0.3,0.6c0,0.2,0.1,0.4,0.3,0.6c0.2,0.2,0.4,0.3,0.7,0.3s0.6-0.1,0.8-0.3
			c0.2-0.1,0.3-0.3,0.4-0.5c0.1-0.3,0.1-0.5,0.1-0.8L167.9,203.6z"/>
		<path class="st5" d="M172.7,206.6H171v-6.2h1.5v0.9c0.2-0.3,0.4-0.6,0.7-0.8c0.2-0.1,0.5-0.2,0.7-0.2c0.4,0,0.8,0.1,1.1,0.3
			l-0.5,1.4c-0.2-0.2-0.5-0.3-0.8-0.3c-0.2,0-0.4,0.1-0.6,0.2c-0.2,0.2-0.3,0.4-0.4,0.7c-0.1,0.7-0.2,1.4-0.1,2.1v1.9H172.7z"/>
		<path class="st5" d="M178.6,200.4v1.3h-1.1v2.5c0,0.3,0,0.6,0,0.9c0,0.1,0.1,0.2,0.1,0.2c0.1,0.1,0.2,0.1,0.3,0.1
			c0.2,0,0.5-0.1,0.7-0.2l0.1,1.3c-0.4,0.2-0.9,0.3-1.3,0.2c-0.3,0-0.5,0-0.8-0.1c-0.2-0.1-0.4-0.2-0.5-0.4s-0.2-0.4-0.2-0.6
			c0-0.4-0.1-0.8-0.1-1.2v-2.7H175v-1.3h0.8v-1.2l1.7-1v2.2H178.6z"/>
		<path class="st5" d="M185.4,206.6h-1.6v-3.2c0-0.4,0-0.9-0.1-1.3c-0.1-0.2-0.2-0.3-0.3-0.5c-0.2-0.1-0.4-0.2-0.6-0.2
			c-0.3,0-0.5,0.1-0.8,0.2c-0.2,0.1-0.4,0.4-0.5,0.6c-0.1,0.5-0.1,0.9-0.1,1.4v2.8h-1.6v-6.2h1.5v0.9c0.7-1,2-1.3,3-0.9
			c0.3,0.1,0.5,0.3,0.7,0.5s0.3,0.4,0.3,0.7c0.1,0.4,0.1,0.7,0.1,1.1L185.4,206.6z"/>
		<path class="st5" d="M190.7,204.6l1.6,0.3c-0.2,0.6-0.5,1-1,1.4c-0.5,0.3-1.1,0.5-1.7,0.5c-0.9,0.1-1.8-0.3-2.4-1.1
			c-0.4-0.6-0.6-1.4-0.6-2.1c-0.1-0.9,0.2-1.7,0.8-2.4c0.5-0.6,1.3-0.9,2-0.9c0.8,0,1.6,0.3,2.2,0.9c0.6,0.8,0.9,1.8,0.8,2.8h-4.1
			c0,0.4,0.1,0.8,0.4,1.1c0.2,0.3,0.6,0.4,0.9,0.4c0.2,0,0.5-0.1,0.7-0.2C190.5,205.1,190.7,204.9,190.7,204.6z M190.8,203
			c0-0.4-0.1-0.8-0.4-1.1c-0.5-0.5-1.2-0.5-1.7,0c0,0,0,0-0.1,0.1c-0.2,0.3-0.4,0.7-0.3,1.1h2.5V203z"/>
		<path class="st5" d="M195.4,206.6h-1.6v-6.2h1.5v0.9c0.2-0.3,0.4-0.6,0.7-0.8c0.2-0.1,0.5-0.2,0.7-0.2c0.4,0,0.8,0.1,1.1,0.3
			l-0.5,1.4c-0.2-0.2-0.5-0.3-0.8-0.3c-0.2,0-0.4,0.1-0.6,0.2c-0.2,0.2-0.3,0.4-0.4,0.7c-0.1,0.7-0.2,1.4-0.1,2.1L195.4,206.6
			L195.4,206.6z"/>
		<path class="st5" d="M203.4,206.6h-1.6v-6.2h1.5v0.9c0.2-0.3,0.4-0.6,0.7-0.8c0.2-0.1,0.5-0.2,0.7-0.2c0.4,0,0.8,0.1,1.1,0.3
			l-0.5,1.4c-0.2-0.2-0.5-0.3-0.8-0.3c-0.2,0-0.4,0.1-0.6,0.2c-0.2,0.2-0.3,0.4-0.4,0.7c-0.1,0.7-0.2,1.4-0.1,2.1L203.4,206.6z"/>
		<path class="st5" d="M206.1,203.4c0-0.6,0.1-1.1,0.4-1.6c0.3-0.5,0.7-0.9,1.1-1.2c0.5-0.3,1.1-0.4,1.7-0.4c0.9,0,1.7,0.3,2.3,0.9
			c0.6,0.6,0.9,1.5,0.9,2.3c0,0.9-0.3,1.7-0.9,2.3c-0.6,0.6-1.4,1-2.3,0.9c-0.6,0-1.1-0.1-1.6-0.4c-0.5-0.2-0.9-0.6-1.2-1.1
			C206.2,204.7,206.1,204,206.1,203.4z M207.8,203.5c0,0.5,0.1,1,0.4,1.4c0.5,0.6,1.4,0.7,2,0.1l0.1-0.1c0.3-0.4,0.5-0.9,0.4-1.4
			c0-0.5-0.1-1-0.4-1.4c-0.5-0.6-1.4-0.7-2-0.1l-0.1,0.1C207.9,202.5,207.7,203,207.8,203.5L207.8,203.5z"/>
		<path class="st5" d="M213.4,203.4c0-0.6,0.1-1.1,0.4-1.6c0.3-0.5,0.7-0.9,1.1-1.2c0.5-0.3,1.1-0.4,1.7-0.4c0.9,0,1.7,0.3,2.3,0.9
			c0.6,0.6,0.9,1.5,0.9,2.3c0,0.9-0.3,1.7-0.9,2.3c-0.6,0.6-1.4,1-2.3,0.9c-0.6,0-1.1-0.1-1.6-0.4c-0.5-0.2-0.9-0.6-1.2-1.1
			C213.5,204.7,213.4,204,213.4,203.4z M215.1,203.5c0,0.5,0.1,1,0.4,1.4c0.5,0.6,1.4,0.7,2,0.1l0.1-0.1c0.3-0.4,0.5-0.9,0.4-1.4
			c0-0.5-0.1-1-0.4-1.4c-0.5-0.6-1.4-0.7-2-0.1l-0.1,0.1C215.2,202.5,215.1,203,215.1,203.5L215.1,203.5z"/>
		<path class="st5" d="M221,200.4h1.5v0.8c0.5-0.6,1.2-1,1.9-1c0.4,0,0.7,0.1,1,0.2c0.3,0.2,0.6,0.4,0.7,0.7
			c0.2-0.3,0.5-0.6,0.9-0.7c0.3-0.2,0.7-0.2,1-0.2c0.4,0,0.8,0.1,1.2,0.3c0.3,0.2,0.6,0.5,0.7,0.8c0.1,0.4,0.2,0.9,0.2,1.3v4h-1.6
			V203c0-0.4,0-0.8-0.2-1.2c-0.2-0.2-0.4-0.4-0.7-0.4c-0.2,0-0.5,0.1-0.6,0.2c-0.2,0.2-0.4,0.4-0.4,0.6c-0.1,0.4-0.2,0.9-0.1,1.3v3
			h-1.6v-3.4c0-0.4,0-0.8-0.1-1.2c0-0.2-0.1-0.3-0.3-0.4c-0.1-0.1-0.3-0.1-0.5-0.1s-0.5,0.1-0.7,0.2c-0.2,0.1-0.4,0.4-0.4,0.6
			c-0.1,0.4-0.2,0.9-0.1,1.3v3H221V200.4z"/>
		<path class="st5" d="M238,206.6v-1.7h-3.5v-1.4l3.7-5.5h1.4v5.4h1.1v1.4h-1.1v1.7H238V206.6z M238,203.4v-2.9l-2,2.9H238z"/>
		<path class="st5" d="M244.2,198c0.8,0,1.5,0.3,2,0.9c1.1,2.2,1.1,4.8,0,7c-0.5,0.6-1.2,0.9-1.9,0.9c-0.8,0-1.5-0.3-2-1
			c-1-2.2-1-4.8,0.1-6.9C242.8,198.3,243.5,197.9,244.2,198z M244.2,199.3c-0.2,0-0.4,0.1-0.5,0.2c-0.2,0.2-0.3,0.4-0.4,0.7
			c-0.1,0.7-0.2,1.4-0.2,2.1c0,0.7,0,1.4,0.2,2.1c0.1,0.3,0.2,0.5,0.4,0.8c0.3,0.3,0.8,0.3,1.1,0c0.2-0.2,0.3-0.4,0.4-0.7
			c0.2-1.4,0.2-2.8,0-4.2c-0.1-0.3-0.2-0.5-0.4-0.8C244.6,199.4,244.4,199.3,244.2,199.3z"/>
		<path class="st5" d="M248.1,204.3l1.6-0.2c0,0.3,0.2,0.7,0.4,0.9c0.5,0.4,1.2,0.4,1.6,0l0,0c0.2-0.3,0.4-0.7,0.3-1
			c0-0.4-0.1-0.7-0.3-1c-0.2-0.2-0.5-0.4-0.8-0.4s-0.5,0-0.8,0.1l0.2-1.3c0.4,0,0.7-0.1,1-0.3c0.2-0.2,0.4-0.5,0.4-0.8
			c0-0.5-0.3-0.9-0.8-0.9h-0.1c-0.3,0-0.5,0.1-0.7,0.3s-0.3,0.5-0.4,0.9l-1.5-0.3c0.1-0.4,0.2-0.9,0.5-1.2c0.2-0.3,0.5-0.6,0.9-0.7
			c0.4-0.2,0.8-0.3,1.3-0.3c0.7,0,1.4,0.2,1.9,0.8c0.8,0.7,0.8,2,0.1,2.8c-0.2,0.2-0.4,0.4-0.7,0.5c0.5,0.1,0.9,0.3,1.2,0.7
			s0.5,0.8,0.4,1.3c0,0.7-0.3,1.4-0.8,1.9c-1.1,1-2.8,1.1-4,0.1C248.4,205.6,248.1,205,248.1,204.3z"/>
	</g>
	<g>
		<path class="st5" d="M689,286.4v-8.6h2.8c0.7,0,1.4,0,2.1,0.1c0.5,0.1,0.9,0.4,1.2,0.8c0.3,0.5,0.5,1.1,0.5,1.7
			c0,0.5-0.1,0.9-0.3,1.3c-0.2,0.3-0.4,0.6-0.7,0.8c-0.3,0.2-0.6,0.3-0.9,0.4c-0.6,0.1-1.2,0.1-1.8,0.1h-1.1v3.2L689,286.4z
			 M690.7,279.3v2.4h0.9c0.5,0,0.9,0,1.4-0.1c0.2-0.1,0.4-0.2,0.5-0.4c0.1-0.2,0.2-0.4,0.2-0.7c0-0.3-0.1-0.6-0.3-0.8
			c-0.2-0.2-0.4-0.3-0.7-0.4c-0.4-0.1-0.8-0.1-1.2-0.1h-0.8V279.3z"/>
		<path class="st5" d="M698.2,282.1l-1.5-0.3c0.1-0.5,0.4-1,0.9-1.3c0.6-0.3,1.2-0.5,1.8-0.4c0.6,0,1.1,0.1,1.6,0.3
			c0.3,0.1,0.6,0.4,0.8,0.7c0.2,0.5,0.3,1,0.2,1.5v1.9c0,0.4,0,0.8,0.1,1.2c0.1,0.3,0.2,0.6,0.3,0.8h-1.6c0-0.1-0.1-0.3-0.2-0.5
			c0-0.1,0-0.2-0.1-0.2c-0.3,0.3-0.6,0.5-0.9,0.6c-0.3,0.1-0.7,0.2-1,0.2c-0.6,0-1.1-0.2-1.5-0.5s-0.6-0.8-0.6-1.3
			c0-0.3,0.1-0.7,0.3-0.9c0.2-0.3,0.4-0.5,0.7-0.6c0.4-0.2,0.9-0.3,1.3-0.4c0.5-0.1,1.1-0.2,1.6-0.4v-0.2c0-0.2-0.1-0.5-0.2-0.7
			c-0.3-0.2-0.6-0.2-0.9-0.2c-0.2,0-0.5,0-0.7,0.2C698.4,281.6,698.3,281.8,698.2,282.1z M700.4,283.4c-0.2,0.1-0.5,0.2-1,0.3
			c-0.3,0-0.6,0.1-0.9,0.3c-0.2,0.1-0.3,0.3-0.3,0.6c0,0.2,0.1,0.4,0.3,0.6s0.4,0.3,0.7,0.3s0.6-0.1,0.8-0.3
			c0.2-0.1,0.3-0.3,0.4-0.5c0.1-0.3,0.1-0.5,0.1-0.8L700.4,283.4z"/>
		<path class="st5" d="M705.2,286.4h-1.6v-6.2h1.5v0.9c0.2-0.3,0.4-0.6,0.7-0.8c0.2-0.1,0.5-0.2,0.7-0.2c0.4,0,0.8,0.1,1.1,0.3
			l-0.5,1.4c-0.2-0.2-0.5-0.3-0.8-0.3c-0.2,0-0.4,0.1-0.6,0.2c-0.2,0.2-0.3,0.4-0.4,0.7c-0.1,0.7-0.2,1.4-0.1,2.1L705.2,286.4z"/>
		<path class="st5" d="M711.2,280.2v1.3h-1.1v2.5c0,0.3,0,0.6,0,0.9c0,0.1,0.1,0.2,0.1,0.2c0.1,0.1,0.2,0.1,0.3,0.1
			c0.2,0,0.5-0.1,0.7-0.2l0.1,1.3c-0.4,0.2-0.9,0.3-1.3,0.2c-0.3,0-0.5,0-0.8-0.1c-0.2-0.1-0.4-0.2-0.5-0.4
			c-0.1-0.2-0.2-0.4-0.2-0.6c0-0.4-0.1-0.8-0.1-1.2v-2.7h-0.8v-1.3h0.8V279l1.7-1v2.2H711.2z"/>
		<path class="st5" d="M718,286.4h-1.6v-3.2c0-0.4,0-0.9-0.1-1.3c-0.1-0.2-0.2-0.3-0.3-0.5c-0.2-0.1-0.4-0.2-0.6-0.2
			c-0.3,0-0.5,0.1-0.8,0.2c-0.2,0.1-0.4,0.4-0.5,0.6c-0.1,0.5-0.1,0.9-0.1,1.4v2.8h-1.6V280h1.5v0.9c0.7-1,2-1.3,3-0.9
			c0.3,0.1,0.5,0.3,0.7,0.5s0.3,0.4,0.3,0.7c0.1,0.4,0.1,0.7,0.1,1.1L718,286.4L718,286.4z"/>
		<path class="st5" d="M723.3,284.4l1.6,0.3c-0.2,0.6-0.5,1-1,1.4c-0.5,0.3-1.1,0.5-1.7,0.5c-0.9,0.1-1.8-0.3-2.4-1.1
			c-0.4-0.6-0.6-1.4-0.6-2.1c-0.1-0.9,0.2-1.7,0.8-2.4c0.5-0.6,1.3-0.9,2-0.9c0.8,0,1.6,0.3,2.2,0.9c0.6,0.8,0.9,1.8,0.8,2.8h-4.1
			c0,0.4,0.1,0.8,0.4,1.1c0.2,0.3,0.6,0.4,1,0.4c0.2,0,0.5-0.1,0.7-0.2C723.1,284.9,723.2,284.7,723.3,284.4z M723.4,282.8
			c0-0.4-0.1-0.8-0.4-1.1c-0.2-0.2-0.5-0.4-0.9-0.4c-0.3,0-0.7,0.1-0.9,0.4s-0.4,0.7-0.3,1.1H723.4z"/>
		<path class="st5" d="M727.9,286.4h-1.6v-6.2h1.5v0.9c0.2-0.3,0.4-0.6,0.7-0.8c0.2-0.1,0.5-0.2,0.7-0.2c0.4,0,0.8,0.1,1.1,0.3
			l-0.5,1.4c-0.2-0.2-0.5-0.3-0.8-0.3c-0.2,0-0.4,0.1-0.6,0.2c-0.2,0.2-0.3,0.4-0.4,0.7c-0.1,0.7-0.2,1.4-0.1,2.1L727.9,286.4
			L727.9,286.4z"/>
		<path class="st5" d="M735.9,286.4h-1.6v-6.2h1.5v0.9c0.2-0.3,0.4-0.6,0.7-0.8c0.2-0.1,0.5-0.2,0.7-0.2c0.4,0,0.8,0.1,1.1,0.3
			l-0.5,1.4c-0.2-0.2-0.5-0.3-0.8-0.3c-0.2,0-0.4,0.1-0.6,0.2c-0.2,0.2-0.3,0.4-0.4,0.7c-0.1,0.7-0.2,1.4-0.1,2.1L735.9,286.4
			L735.9,286.4z"/>
		<path class="st5" d="M738.6,283.2c0-0.6,0.1-1.1,0.4-1.6c0.3-0.5,0.7-0.9,1.1-1.2c0.5-0.3,1.1-0.4,1.7-0.4c0.9,0,1.7,0.3,2.3,0.9
			s0.9,1.5,0.9,2.3c0,0.9-0.3,1.7-0.9,2.3c-0.6,0.6-1.4,1-2.3,0.9c-0.6,0-1.1-0.1-1.6-0.4c-0.5-0.2-0.9-0.6-1.2-1.1
			C738.7,284.5,738.6,283.8,738.6,283.2z M740.3,283.3c0,0.5,0.1,1,0.4,1.4c0.5,0.6,1.4,0.7,2,0.1l0.1-0.1c0.3-0.4,0.5-0.9,0.4-1.4
			c0-0.5-0.1-1-0.4-1.4c-0.5-0.6-1.4-0.7-2-0.1l-0.1,0.1C740.4,282.3,740.3,282.8,740.3,283.3L740.3,283.3z"/>
		<path class="st5" d="M746,283.2c0-0.6,0.1-1.1,0.4-1.6c0.3-0.5,0.7-0.9,1.1-1.2c0.5-0.3,1.1-0.4,1.7-0.4c0.9,0,1.7,0.3,2.3,0.9
			s0.9,1.5,0.9,2.3c0,0.9-0.3,1.7-0.9,2.3c-0.6,0.6-1.4,1-2.3,0.9c-0.6,0-1.1-0.1-1.6-0.4c-0.5-0.2-0.9-0.6-1.2-1.1
			C746.1,284.5,745.9,283.8,746,283.2z M747.6,283.3c0,0.5,0.1,1,0.4,1.4c0.5,0.6,1.4,0.7,2,0.1l0.1-0.1c0.3-0.4,0.5-0.9,0.4-1.4
			c0-0.5-0.1-1-0.4-1.4c-0.5-0.6-1.4-0.7-2-0.1l-0.1,0.1C747.8,282.3,747.6,282.8,747.6,283.3L747.6,283.3z"/>
		<path class="st5" d="M753.5,280.2h1.5v0.8c0.5-0.6,1.2-1,1.9-1c0.4,0,0.7,0.1,1,0.2c0.3,0.2,0.6,0.4,0.7,0.7
			c0.2-0.3,0.5-0.6,0.9-0.7c0.3-0.2,0.7-0.2,1-0.2c0.4,0,0.8,0.1,1.2,0.3c0.3,0.2,0.6,0.5,0.7,0.8c0.1,0.4,0.2,0.9,0.2,1.3v4H761
			v-3.6c0-0.4,0-0.8-0.2-1.2c-0.2-0.2-0.4-0.4-0.7-0.4c-0.2,0-0.5,0.1-0.7,0.2c-0.2,0.2-0.4,0.4-0.4,0.6c-0.1,0.4-0.2,0.9-0.1,1.3v3
			h-1.6V283c0-0.4,0-0.8-0.1-1.2c0-0.2-0.1-0.3-0.3-0.4c-0.1-0.1-0.3-0.1-0.5-0.1s-0.5,0.1-0.7,0.2s-0.4,0.4-0.4,0.6
			c-0.1,0.4-0.2,0.9-0.1,1.3v3h-1.6L753.5,280.2z"/>
		<path class="st5" d="M770.5,286.4v-1.7H767v-1.4l3.7-5.5h1.4v5.5h1.1v1.4h-1.1v1.7H770.5z M770.5,283.2v-2.9l-2,2.9H770.5z"/>
		<path class="st5" d="M778.2,286.4h-1.6v-6.2c-0.6,0.6-1.3,1-2.1,1.2V280c0.5-0.2,1-0.5,1.4-0.8c0.5-0.3,0.8-0.8,1-1.4h1.3
			L778.2,286.4L778.2,286.4z"/>
		<path class="st5" d="M783.4,277.8c0.8,0,1.5,0.3,2,0.9c1.1,2.2,1.1,4.8,0,7c-0.5,0.6-1.2,0.9-1.9,0.9c-0.8,0-1.5-0.3-2-1
			c-1-2.2-1-4.8,0.1-6.9C782,278.1,782.7,277.7,783.4,277.8z M783.4,279.1c-0.2,0-0.4,0.1-0.5,0.2c-0.2,0.2-0.3,0.4-0.4,0.7
			c-0.1,0.7-0.2,1.4-0.2,2.1s0,1.4,0.2,2.1c0.1,0.3,0.2,0.5,0.4,0.8c0.3,0.3,0.8,0.3,1.1,0c0.2-0.2,0.3-0.4,0.4-0.7
			c0.2-1.4,0.2-2.8,0-4.2c-0.1-0.3-0.2-0.5-0.4-0.8C783.8,279.2,783.6,279.1,783.4,279.1z"/>
	</g>
	<g>
		<path class="st5" d="M857.9,286.4v-8.6h2.8c0.7,0,1.4,0,2.1,0.1c0.5,0.1,0.9,0.4,1.2,0.8c0.3,0.5,0.5,1.1,0.5,1.7
			c0,0.5-0.1,0.9-0.3,1.3c-0.2,0.3-0.4,0.6-0.7,0.8c-0.3,0.2-0.6,0.3-0.9,0.4c-0.6,0.1-1.2,0.1-1.8,0.1h-1.1v3.2L857.9,286.4z
			 M859.6,279.3v2.4h0.9c0.5,0,0.9,0,1.4-0.1c0.2-0.1,0.4-0.2,0.5-0.4c0.1-0.2,0.2-0.4,0.2-0.7c0-0.3-0.1-0.6-0.3-0.8
			c-0.2-0.2-0.4-0.3-0.7-0.4c-0.4-0.1-0.8-0.1-1.2-0.1h-0.8V279.3z"/>
		<path class="st5" d="M867.1,282.1l-1.5-0.3c0.1-0.5,0.4-1,0.9-1.3c0.6-0.3,1.2-0.5,1.8-0.4c0.6,0,1.1,0.1,1.6,0.3
			c0.3,0.1,0.6,0.4,0.8,0.7c0.2,0.5,0.3,1,0.2,1.5v1.9c0,0.4,0,0.8,0.1,1.2c0.1,0.3,0.2,0.6,0.3,0.8h-1.6c0-0.1-0.1-0.3-0.2-0.5
			c0-0.1,0-0.2-0.1-0.2c-0.3,0.3-0.6,0.5-0.9,0.6c-0.3,0.1-0.7,0.2-1,0.2c-0.6,0-1.1-0.2-1.5-0.5s-0.6-0.8-0.6-1.3
			c0-0.3,0.1-0.7,0.3-0.9c0.2-0.3,0.4-0.5,0.7-0.6c0.4-0.2,0.9-0.3,1.3-0.4c0.5-0.1,1.1-0.2,1.6-0.4v-0.2c0-0.2-0.1-0.5-0.2-0.7
			c-0.3-0.2-0.6-0.2-0.9-0.2c-0.2,0-0.5,0-0.7,0.2C867.3,281.6,867.2,281.8,867.1,282.1z M869.3,283.4c-0.2,0.1-0.5,0.2-1,0.3
			c-0.3,0-0.6,0.1-0.9,0.3c-0.2,0.1-0.3,0.3-0.3,0.6c0,0.2,0.1,0.4,0.3,0.6s0.4,0.3,0.7,0.3s0.6-0.1,0.8-0.3
			c0.2-0.1,0.3-0.3,0.4-0.5c0.1-0.3,0.1-0.5,0.1-0.8L869.3,283.4z"/>
		<path class="st5" d="M874.1,286.4h-1.6v-6.2h1.5v0.9c0.2-0.3,0.4-0.6,0.7-0.8c0.2-0.1,0.5-0.2,0.7-0.2c0.4,0,0.8,0.1,1.1,0.3
			l-0.5,1.4c-0.2-0.2-0.5-0.3-0.8-0.3c-0.2,0-0.4,0.1-0.6,0.2c-0.2,0.2-0.3,0.4-0.4,0.7c-0.1,0.7-0.2,1.4-0.1,2.1L874.1,286.4z"/>
		<path class="st5" d="M880.1,280.2v1.3H879v2.5c0,0.3,0,0.6,0,0.9c0,0.1,0.1,0.2,0.1,0.2c0.1,0.1,0.2,0.1,0.3,0.1
			c0.2,0,0.5-0.1,0.7-0.2l0.1,1.3c-0.4,0.2-0.9,0.3-1.3,0.2c-0.3,0-0.5,0-0.8-0.1c-0.2-0.1-0.4-0.2-0.5-0.4
			c-0.1-0.2-0.2-0.4-0.2-0.6c0-0.4-0.1-0.8-0.1-1.2v-2.7h-0.8v-1.3h0.8V279l1.7-1v2.2H880.1z"/>
		<path class="st5" d="M886.9,286.4h-1.6v-3.2c0-0.4,0-0.9-0.1-1.3c-0.1-0.2-0.2-0.3-0.3-0.5c-0.2-0.1-0.4-0.2-0.6-0.2
			c-0.3,0-0.5,0.1-0.8,0.2c-0.2,0.1-0.4,0.4-0.5,0.6c-0.1,0.5-0.1,0.9-0.1,1.4v2.8h-1.6V280h1.5v0.9c0.7-1,2-1.3,3-0.9
			c0.3,0.1,0.5,0.3,0.7,0.5s0.3,0.4,0.3,0.7c0.1,0.4,0.1,0.7,0.1,1.1L886.9,286.4z"/>
		<path class="st5" d="M892.2,284.4l1.6,0.3c-0.2,0.6-0.5,1-1,1.4c-0.5,0.3-1.1,0.5-1.7,0.5c-0.9,0.1-1.8-0.3-2.4-1.1
			c-0.4-0.6-0.6-1.4-0.6-2.1c-0.1-0.9,0.2-1.7,0.8-2.4c0.5-0.6,1.3-0.9,2-0.9c0.8,0,1.6,0.3,2.2,0.9c0.6,0.8,0.9,1.8,0.8,2.8h-4.1
			c0,0.4,0.1,0.8,0.4,1.1c0.2,0.3,0.6,0.4,1,0.4c0.2,0,0.5-0.1,0.7-0.2C892,284.9,892.1,284.7,892.2,284.4z M892.3,282.8
			c0-0.4-0.1-0.8-0.4-1.1c-0.2-0.2-0.5-0.4-0.9-0.4c-0.3,0-0.7,0.1-0.9,0.4s-0.4,0.7-0.3,1.1H892.3z"/>
		<path class="st5" d="M896.8,286.4h-1.6v-6.2h1.5v0.9c0.2-0.3,0.4-0.6,0.7-0.8c0.2-0.1,0.5-0.2,0.7-0.2c0.4,0,0.8,0.1,1.1,0.3
			l-0.5,1.4c-0.2-0.2-0.5-0.3-0.8-0.3c-0.2,0-0.4,0.1-0.6,0.2c-0.2,0.2-0.3,0.4-0.4,0.7c-0.1,0.7-0.2,1.4-0.1,2.1L896.8,286.4z"/>
		<path class="st5" d="M904.8,286.4h-1.6v-6.2h1.5v0.9c0.2-0.3,0.4-0.6,0.7-0.8c0.2-0.1,0.5-0.2,0.7-0.2c0.4,0,0.8,0.1,1.1,0.3
			l-0.5,1.4c-0.2-0.2-0.5-0.3-0.8-0.3c-0.2,0-0.4,0.1-0.6,0.2c-0.2,0.2-0.3,0.4-0.4,0.7c-0.1,0.7-0.2,1.4-0.1,2.1L904.8,286.4
			L904.8,286.4z"/>
		<path class="st5" d="M907.5,283.2c0-0.6,0.1-1.1,0.4-1.6c0.3-0.5,0.7-0.9,1.1-1.2c0.5-0.3,1.1-0.4,1.7-0.4c0.9,0,1.7,0.3,2.3,0.9
			s0.9,1.5,0.9,2.3c0,0.9-0.3,1.7-0.9,2.3c-0.6,0.6-1.4,1-2.3,0.9c-0.6,0-1.1-0.1-1.6-0.4c-0.5-0.2-0.9-0.6-1.2-1.1
			C907.7,284.5,907.5,283.8,907.5,283.2z M909.2,283.3c0,0.5,0.1,1,0.4,1.4c0.5,0.6,1.4,0.7,2,0.1l0.1-0.1c0.3-0.4,0.5-0.9,0.4-1.4
			c0-0.5-0.1-1-0.4-1.4c-0.5-0.6-1.4-0.7-2-0.1l-0.1,0.1C909.3,282.3,909.2,282.8,909.2,283.3L909.2,283.3z"/>
		<path class="st5" d="M914.9,283.2c0-0.6,0.1-1.1,0.4-1.6c0.3-0.5,0.7-0.9,1.1-1.2c0.5-0.3,1.1-0.4,1.7-0.4c0.9,0,1.7,0.3,2.3,0.9
			s0.9,1.5,0.9,2.3c0,0.9-0.3,1.7-0.9,2.3c-0.6,0.6-1.4,1-2.3,0.9c-0.6,0-1.1-0.1-1.6-0.4c-0.5-0.2-0.9-0.6-1.2-1.1
			C915,284.5,914.8,283.8,914.9,283.2z M916.6,283.3c0,0.5,0.1,1,0.4,1.4c0.5,0.6,1.4,0.7,2,0.1l0.1-0.1c0.3-0.4,0.5-0.9,0.4-1.4
			c0-0.5-0.1-1-0.4-1.4c-0.5-0.6-1.4-0.7-2-0.1l-0.1,0.1C916.7,282.3,916.5,282.8,916.6,283.3L916.6,283.3z"/>
		<path class="st5" d="M922.5,280.2h1.5v0.8c0.5-0.6,1.2-1,1.9-1c0.4,0,0.7,0.1,1,0.2c0.3,0.2,0.6,0.4,0.7,0.7
			c0.2-0.3,0.5-0.6,0.9-0.7c0.3-0.2,0.7-0.2,1-0.2c0.4,0,0.8,0.1,1.2,0.3c0.3,0.2,0.6,0.5,0.7,0.8c0.1,0.4,0.2,0.9,0.2,1.3v4H930
			v-3.6c0-0.4,0-0.8-0.2-1.2c-0.2-0.2-0.4-0.4-0.7-0.4c-0.2,0-0.5,0.1-0.7,0.2c-0.2,0.2-0.4,0.4-0.4,0.6c-0.1,0.4-0.2,0.9-0.1,1.3v3
			h-1.6V283c0-0.4,0-0.8-0.1-1.2c0-0.2-0.1-0.3-0.3-0.4c-0.1-0.1-0.3-0.1-0.5-0.1s-0.5,0.1-0.7,0.2s-0.4,0.4-0.4,0.6
			c-0.1,0.4-0.2,0.9-0.1,1.3v3h-1.6L922.5,280.2z"/>
		<path class="st5" d="M939.5,286.4v-1.7H936v-1.4l3.7-5.5h1.4v5.5h1.1v1.4h-1.1v1.7H939.5z M939.5,283.2v-2.9l-2,2.9H939.5z"/>
		<path class="st5" d="M947.1,286.4h-1.6v-6.2c-0.6,0.6-1.3,1-2.1,1.2V280c0.5-0.2,1-0.5,1.4-0.8c0.5-0.3,0.8-0.8,1-1.4h1.3
			L947.1,286.4z"/>
		<path class="st5" d="M953.1,286.4h-1.6v-6.2c-0.6,0.6-1.3,1-2.1,1.2V280c0.5-0.2,1-0.5,1.4-0.8c0.5-0.3,0.8-0.8,1-1.4h1.3
			L953.1,286.4z"/>
	</g>
	<g>
		<path class="st5" d="M1041.3,286.4v-8.6h2.8c0.7,0,1.4,0,2.1,0.1c0.5,0.1,0.9,0.4,1.2,0.8c0.3,0.5,0.5,1.1,0.5,1.7
			c0,0.5-0.1,0.9-0.3,1.3c-0.2,0.3-0.4,0.6-0.7,0.8c-0.3,0.2-0.6,0.3-0.9,0.4c-0.6,0.1-1.2,0.1-1.8,0.1h-1.1v3.2L1041.3,286.4z
			 M1043.1,279.3v2.4h0.9c0.5,0,0.9,0,1.4-0.1c0.2-0.1,0.4-0.2,0.5-0.4c0.1-0.2,0.2-0.4,0.2-0.7c0-0.3-0.1-0.6-0.3-0.8
			c-0.2-0.2-0.4-0.3-0.7-0.4c-0.4-0.1-0.8-0.1-1.2-0.1h-0.8V279.3z"/>
		<path class="st5" d="M1050.6,282.1l-1.5-0.3c0.1-0.5,0.4-1,0.9-1.3c0.6-0.3,1.2-0.5,1.8-0.4c0.6,0,1.1,0.1,1.6,0.3
			c0.3,0.1,0.6,0.4,0.8,0.7c0.2,0.5,0.3,1,0.2,1.5v1.9c0,0.4,0,0.8,0.1,1.2c0.1,0.3,0.2,0.6,0.3,0.8h-1.6c0-0.1-0.1-0.3-0.2-0.5
			c0-0.1,0-0.2-0.1-0.2c-0.3,0.3-0.6,0.5-0.9,0.6s-0.7,0.2-1,0.2c-0.6,0-1.1-0.2-1.5-0.5s-0.6-0.8-0.6-1.3c0-0.3,0.1-0.7,0.3-0.9
			c0.2-0.3,0.4-0.5,0.7-0.6c0.4-0.2,0.9-0.3,1.3-0.4c0.5-0.1,1.1-0.2,1.6-0.4v-0.2c0-0.2-0.1-0.5-0.2-0.7c-0.3-0.2-0.6-0.2-0.9-0.2
			c-0.2,0-0.5,0-0.7,0.2C1050.8,281.6,1050.6,281.8,1050.6,282.1z M1052.8,283.4c-0.2,0.1-0.5,0.2-1,0.3c-0.3,0-0.6,0.1-0.9,0.3
			c-0.2,0.1-0.3,0.3-0.3,0.6c0,0.2,0.1,0.4,0.3,0.6c0.2,0.2,0.4,0.3,0.7,0.3c0.3,0,0.6-0.1,0.8-0.3c0.2-0.1,0.3-0.3,0.4-0.5
			c0.1-0.3,0.1-0.5,0.1-0.8L1052.8,283.4z"/>
		<path class="st5" d="M1057.6,286.4h-1.6v-6.2h1.5v0.9c0.2-0.3,0.4-0.6,0.7-0.8c0.2-0.1,0.5-0.2,0.7-0.2c0.4,0,0.8,0.1,1.1,0.3
			l-0.5,1.4c-0.2-0.2-0.5-0.3-0.8-0.3c-0.2,0-0.4,0.1-0.6,0.2c-0.2,0.2-0.3,0.4-0.4,0.7c-0.1,0.7-0.2,1.4-0.1,2.1L1057.6,286.4
			L1057.6,286.4z"/>
		<path class="st5" d="M1063.5,280.2v1.3h-1.1v2.5c0,0.3,0,0.6,0,0.9c0,0.1,0.1,0.2,0.1,0.2c0.1,0.1,0.2,0.1,0.3,0.1
			c0.2,0,0.5-0.1,0.7-0.2l0.1,1.3c-0.4,0.2-0.9,0.3-1.3,0.2c-0.3,0-0.5,0-0.8-0.1c-0.2-0.1-0.4-0.2-0.5-0.4
			c-0.1-0.2-0.2-0.4-0.2-0.6c0-0.4-0.1-0.8-0.1-1.2v-2.7h-0.8v-1.3h0.8V279l1.7-1v2.2H1063.5z"/>
		<path class="st5" d="M1070.3,286.4h-1.6v-3.2c0-0.4,0-0.9-0.1-1.3c-0.1-0.2-0.2-0.3-0.3-0.5c-0.2-0.1-0.4-0.2-0.6-0.2
			c-0.3,0-0.5,0.1-0.8,0.2c-0.2,0.1-0.4,0.4-0.5,0.6c-0.1,0.5-0.1,0.9-0.1,1.4v2.8h-1.6V280h1.5v0.9c0.7-1,2-1.3,3-0.9
			c0.3,0.1,0.5,0.3,0.7,0.5s0.3,0.4,0.3,0.7c0.1,0.4,0.1,0.7,0.1,1.1V286.4z"/>
		<path class="st5" d="M1075.6,284.4l1.6,0.3c-0.2,0.6-0.5,1-1,1.4c-0.5,0.3-1.1,0.5-1.7,0.5c-0.9,0.1-1.8-0.3-2.4-1.1
			c-0.4-0.6-0.6-1.4-0.6-2.1c-0.1-0.9,0.2-1.7,0.8-2.4c0.5-0.6,1.3-0.9,2-0.9c0.8,0,1.6,0.3,2.2,0.9c0.6,0.8,0.9,1.8,0.8,2.8h-4.1
			c0,0.4,0.1,0.8,0.4,1.1c0.2,0.3,0.6,0.4,0.9,0.4c0.2,0,0.5-0.1,0.7-0.2C1075.4,284.9,1075.5,284.7,1075.6,284.4z M1075.7,282.8
			c0-0.4-0.1-0.8-0.4-1.1c-0.5-0.5-1.2-0.5-1.7,0c0,0,0,0-0.1,0.1c-0.2,0.3-0.4,0.7-0.3,1.1L1075.7,282.8z"/>
		<path class="st5" d="M1080.2,286.4h-1.6v-6.2h1.5v0.9c0.2-0.3,0.4-0.6,0.7-0.8c0.2-0.1,0.5-0.2,0.7-0.2c0.4,0,0.8,0.1,1.1,0.3
			l-0.5,1.4c-0.2-0.2-0.5-0.3-0.8-0.3c-0.2,0-0.4,0.1-0.6,0.2c-0.2,0.2-0.3,0.4-0.4,0.7c-0.1,0.7-0.2,1.4-0.1,2.1L1080.2,286.4z"/>
		<path class="st5" d="M1088.3,286.4h-1.6v-6.2h1.5v0.9c0.2-0.3,0.4-0.6,0.7-0.8c0.2-0.1,0.5-0.2,0.7-0.2c0.4,0,0.8,0.1,1.1,0.3
			l-0.5,1.4c-0.2-0.2-0.5-0.3-0.8-0.3c-0.2,0-0.4,0.1-0.6,0.2c-0.2,0.2-0.3,0.4-0.4,0.7c-0.1,0.7-0.2,1.4-0.1,2.1L1088.3,286.4
			L1088.3,286.4z"/>
		<path class="st5" d="M1091,283.2c0-0.6,0.1-1.1,0.4-1.6s0.7-0.9,1.1-1.2c0.5-0.3,1.1-0.4,1.7-0.4c0.9,0,1.7,0.3,2.3,0.9
			c0.6,0.6,0.9,1.5,0.9,2.3c0,0.9-0.3,1.7-0.9,2.3c-0.6,0.6-1.4,1-2.3,0.9c-0.6,0-1.1-0.1-1.6-0.4c-0.5-0.2-0.9-0.6-1.2-1.1
			C1091.1,284.5,1090.9,283.8,1091,283.2z M1092.7,283.3c0,0.5,0.1,1,0.4,1.4c0.5,0.6,1.4,0.7,2,0.1l0.1-0.1
			c0.3-0.4,0.5-0.9,0.4-1.4c0-0.5-0.1-1-0.4-1.4c-0.5-0.6-1.4-0.7-2-0.1l-0.1,0.1C1092.8,282.3,1092.6,282.8,1092.7,283.3
			L1092.7,283.3z"/>
		<path class="st5" d="M1098.3,283.2c0-0.6,0.1-1.1,0.4-1.6s0.7-0.9,1.1-1.2c0.5-0.3,1.1-0.4,1.7-0.4c0.9,0,1.7,0.3,2.3,0.9
			c0.6,0.6,0.9,1.5,0.9,2.3c0,0.9-0.3,1.7-0.9,2.3c-0.6,0.6-1.4,1-2.3,0.9c-0.6,0-1.1-0.1-1.6-0.4c-0.5-0.2-0.9-0.6-1.2-1.1
			C1098.4,284.5,1098.3,283.8,1098.3,283.2z M1100,283.3c0,0.5,0.1,1,0.4,1.4c0.5,0.6,1.4,0.7,2,0.1l0.1-0.1
			c0.3-0.4,0.5-0.9,0.4-1.4c0-0.5-0.1-1-0.4-1.4c-0.5-0.6-1.4-0.7-2-0.1l-0.1,0.1C1100.1,282.3,1099.9,282.8,1100,283.3L1100,283.3z
			"/>
		<path class="st5" d="M1105.9,280.2h1.5v0.8c0.5-0.6,1.2-1,1.9-1c0.4,0,0.7,0.1,1,0.2c0.3,0.2,0.6,0.4,0.7,0.7
			c0.2-0.3,0.5-0.6,0.9-0.7c0.3-0.2,0.7-0.2,1-0.2c0.4,0,0.8,0.1,1.2,0.3c0.3,0.2,0.6,0.5,0.7,0.8c0.1,0.4,0.2,0.9,0.2,1.3v4h-1.6
			v-3.6c0-0.4,0-0.8-0.2-1.2c-0.2-0.2-0.4-0.4-0.7-0.4c-0.2,0-0.5,0.1-0.7,0.2c-0.2,0.2-0.4,0.4-0.4,0.6c-0.1,0.4-0.2,0.9-0.1,1.3v3
			h-1.6V283c0-0.4,0-0.8-0.1-1.2c0-0.2-0.1-0.3-0.3-0.4c-0.1-0.1-0.3-0.1-0.5-0.1s-0.5,0.1-0.7,0.2s-0.4,0.4-0.4,0.6
			c-0.1,0.4-0.2,0.9-0.1,1.3v3h-1.6L1105.9,280.2z"/>
		<path class="st5" d="M1122.9,286.4v-1.7h-3.5v-1.4l3.7-5.5h1.4v5.5h1.1v1.4h-1.1v1.7H1122.9z M1122.9,283.2v-2.9l-2,2.9H1122.9z"
			/>
		<path class="st5" d="M1130.5,286.4h-1.6v-6.2c-0.6,0.6-1.3,1-2.1,1.2V280c0.5-0.2,1-0.5,1.4-0.8c0.5-0.3,0.8-0.8,1-1.4h1.3
			L1130.5,286.4z"/>
		<path class="st5" d="M1138.6,284.9v1.5h-5.8c0.1-0.6,0.3-1.1,0.6-1.6c0.5-0.8,1.2-1.5,1.9-2.1c0.5-0.4,1-0.9,1.4-1.4
			c0.2-0.3,0.3-0.6,0.3-1c0-0.3-0.1-0.6-0.3-0.8c-0.5-0.4-1.2-0.4-1.6,0c-0.2,0.3-0.4,0.7-0.4,1l-1.6-0.2c0-0.8,0.4-1.5,0.9-2
			c0.6-0.4,1.2-0.6,1.9-0.6c0.7,0,1.4,0.2,2,0.7c0.5,0.4,0.7,1.1,0.7,1.7c0,0.4-0.1,0.8-0.2,1.1c-0.2,0.4-0.4,0.8-0.7,1.1
			c-0.3,0.4-0.7,0.8-1.1,1.1c-0.5,0.5-0.8,0.8-1,0.9c-0.1,0.1-0.2,0.3-0.3,0.5L1138.6,284.9z"/>
	</g>
</g>
<g id="outline">
	<polygon class="st6" points="157.6,858.8 67,99.5 1946.4,99.5 1952.2,608.2 1590.5,627.4 1586.3,257.4 1564.8,257.4 1564.8,311.1 
		1517.6,311.1 1517.6,262.7 1510.4,262.7 1510.4,379.9 637.7,379.9 564.7,413.4 613.7,807.3 	"/>
	<path class="st7" d="M92.6,313.7L376,283.9c0,0-8.7-10.1-11.3-35.4s-1.6-81.8,23.8-100.4c0,0-6.2-27.4,15-33.1s25.9,5.7,25.9,5.7
		S479.1,101,535,137.3s81.3,99.9,81.3,99.9h18.6v-81.8h13.5"/>
	<polyline class="st7" points="670.5,154.7 710.9,154.7 710.9,200.3 634.8,200.3 834.6,200.3 834.6,142.3 834.6,241.2 834.6,219.9 
		981.6,219.9 981.6,197.2 981.6,241.2 	"/>
	<line class="st7" x1="834.6" y1="154.7" x2="886.9" y2="154.7"/>
	<polyline class="st7" points="930.9,154.7 1085.1,154.7 1085.1,142.3 1085.1,213.5 981.6,213.5 	"/>
	<line class="st7" x1="981.6" y1="169.7" x2="981.6" y2="154.7"/>
	<line class="st7" x1="1085.1" y1="192.9" x2="1138.4" y2="192.9"/>
	<polyline class="st7" points="981.6,268.8 981.6,379.9 1200,379.9 1200,145.7 1200,154.7 1218.3,154.7 	"/>
	<line class="st7" x1="1165.8" y1="192.9" x2="1200" y2="192.9"/>
	<polyline class="st7" points="1245.4,154.7 1268.7,154.7 1268.7,142.6 1268.7,379.9 1373.4,379.9 1373.4,353.6 	"/>
	<polyline class="st7" points="1373.4,330 1373.4,296.4 1510.4,296.4 1510.4,147.5 1480.6,147.5 1480.6,186.3 1428.7,186.3 	"/>
	<polyline class="st7" points="1268.7,154.7 1361,154.7 1369.4,162.8 	"/>
	<line class="st7" x1="1297" y1="154.7" x2="1297" y2="99.5"/>
	<polyline class="st7" points="1387.4,180.8 1392.7,187.6 1371.6,208.2 1371.6,231.2 1382.1,231.2 1382.1,296.4 	"/>
	<line class="st7" x1="1392.7" y1="187.6" x2="1404.8" y2="187.6"/>
	<polyline class="st7" points="1479.8,116.8 1479.8,99.5 1592.3,99.5 1592.3,208.6 1607.5,208.6 1607.5,196.8 1647.4,196.8 
		1647.4,187.9 	"/>
	<polyline class="st7" points="1550.8,99.5 1550.8,213.2 1543.9,213.2 1558.3,213.2 	"/>
	<polyline class="st7" points="1675.9,99.5 1675.9,196.1 1667.1,196.1 1717.9,196.1 	"/>
	<polyline class="st7" points="1586.3,257.4 1594,257.4 1594,247.6 1717.9,247.6 1717.9,310.1 	"/>
	<path class="st7" d="M1726.4,99.5v39.3h5.4c-0.9,4.1-0.9,8.3,0,12.4c1.5,6.6,8.5,16.2,11.6,21.6c4,7.2,6.7,15.2,7.7,23.4
		c1.2,9.4,0,15.2,0,15.2"/>
	<polyline class="st7" points="1751.7,236.5 1751.7,269.3 1764.7,269.3 1764.7,290.2 1753.9,290.2 1753.9,310.1 1948.9,310.1 	"/>
	<line class="st7" x1="583.4" y1="154.7" x2="557.8" y2="154.7"/>
	<polyline class="st7" points="276.6,99.5 293,227.5 295,242.6 	"/>
	<line class="st7" x1="298.2" y1="270.8" x2="300.9" y2="291.8"/>
	<line class="st7" x1="293" y1="227.5" x2="314.9" y2="227.5"/>
	<polyline class="st7" points="338.9,225.4 363.7,225.4 348.1,99.5 	"/>
	<path class="st7" d="M376,283.9c0,0,34.7,82.2,104.3,107.5s109.5-3.1,109.5-3.1s28.4-20.8,36.3-51.4s0-67.4,0-67.4h8.7v88.6h13.5
		v21.8"/>
	<polyline class="st7" points="367.3,284.8 405.4,605 131.4,639 	"/>
	<line class="st7" x1="405.4" y1="605" x2="408" y2="623.2"/>
	<line class="st7" x1="413.8" y1="652" x2="424.9" y2="754.4"/>
	<polyline class="st7" points="359.3,655.5 364.4,694.9 373.5,763.7 	"/>
	<polyline class="st7" points="375.2,789.4 381.4,833.5 430.3,828 424.9,785 	"/>
	<line class="st7" x1="364.4" y1="694.9" x2="417.8" y2="689.2"/>
	<line class="st7" x1="419.3" y1="697.1" x2="430.8" y2="695.9"/>
	<polyline class="st7" points="459.4,692 597.5,676.9 575.1,496.5 446.6,511.6 	"/>
	<line class="st7" x1="415.6" y1="517.5" x2="395.3" y2="520.2"/>
	<polyline class="st7" points="439.3,416.2 440.3,425.4 384.8,431.8 	"/>
	<polyline class="st7" points="437.9,395.9 436.7,384.7 445.1,372.3 	"/>
	<polygon class="st7" points="459.4,565.4 509.5,559.4 517.8,629.3 467.7,635.7 	"/>
	<line class="st7" x1="355.1" y1="630.4" x2="352.5" y2="611.6"/>
	<line class="st7" x1="832.6" y1="266.4" x2="832.6" y2="379.9"/>
</g>
<g id="icons">
	<g id="stairs-4-2-3-3">
		<circle class="st8" cx="547.8" cy="590.2" r="24"/>
		<path class="st9" d="M534.8,626.2l1-0.1c0,0.4,0.1,0.8,0.4,1c0.2,0.3,0.4,0.5,0.8,0.6c0.4,0.1,0.8,0.2,1.2,0.3c0.3,0,0.7,0,1-0.1
			s0.5-0.3,0.6-0.5c0.1-0.3,0.3-0.4,0.3-0.6c0-0.2-0.1-0.5-0.3-0.6c-0.2-0.2-0.5-0.4-0.8-0.5c-0.5-0.2-0.9-0.3-1.4-0.4
			c-0.5-0.1-1.1-0.3-1.5-0.5s-0.7-0.5-0.9-0.8s-0.2-0.7-0.3-1c0-0.4,0.1-0.8,0.4-1.2c0.2-0.4,0.6-0.7,1-0.8c0.5-0.2,0.9-0.2,1.4-0.3
			c0.5,0,1,0.1,1.5,0.3c0.4,0.2,0.7,0.4,1,0.8c0.3,0.4,0.4,0.8,0.4,1.3l-1,0.1c0-0.4-0.2-0.9-0.5-1.2c-0.4-0.3-0.9-0.4-1.4-0.4
			s-1,0.1-1.4,0.4c-0.2,0.2-0.4,0.5-0.4,0.8c0,0.2,0.1,0.5,0.3,0.6c0.5,0.3,1,0.4,1.5,0.5c0.6,0.1,1.2,0.3,1.8,0.5
			c0.4,0.2,0.7,0.5,1,0.8s0.4,0.7,0.4,1.2c0,0.4-0.1,0.8-0.4,1.2c-0.3,0.4-0.6,0.7-1,0.9c-0.5,0.2-1,0.3-1.5,0.3
			c-0.6,0-1.2-0.1-1.8-0.3c-0.5-0.1-0.9-0.5-1.2-0.9C534.9,627,534.8,626.6,534.8,626.2z"/>
		<path class="st9" d="M544.5,627.8l0.1,0.9c-0.3,0-0.5,0.1-0.8,0.1c-0.4,0-0.6,0-0.8-0.1s-0.4-0.3-0.4-0.4
			c-0.1-0.1-0.1-0.5-0.1-1.2V624h-0.8v-0.8h0.8v-1.4l0.9-0.6v1.9h1v0.8h-1v3.9c0,0.1,0.1,0.1,0.1,0.1l0,0c0.1,0,0.1,0.1,0.4,0.1
			C544.1,627.9,544.3,627.8,544.5,627.8z"/>
		<path class="st9" d="M549.2,628c-0.3,0.3-0.7,0.5-1,0.6s-0.7,0.1-1,0.1c-0.5,0.1-1.1-0.1-1.4-0.5c-0.4-0.3-0.6-0.7-0.5-1.2
			c0-0.3,0-0.5,0.1-0.8c0.1-0.2,0.3-0.4,0.5-0.5c0.3-0.1,0.4-0.3,0.6-0.3c0.3-0.1,0.6-0.1,0.9-0.1c0.6-0.1,1.1-0.2,1.7-0.4v-0.3
			c0-0.3-0.1-0.6-0.3-0.8c-0.3-0.3-0.7-0.4-1.2-0.4c-0.4,0-0.7,0.1-1,0.3c-0.3,0.1-0.4,0.4-0.5,0.9l-0.9-0.1c0.1-0.4,0.2-0.7,0.4-1
			c0.3-0.2,0.6-0.4,0.9-0.5c0.4-0.2,0.8-0.2,1.3-0.3c0.4,0,0.8,0,1.2,0.1c0.2,0.1,0.4,0.2,0.6,0.4c0.2,0.2,0.3,0.4,0.3,0.6v3.9
			c0,0.2,0.1,0.5,0.3,0.6h-1C549.2,628.5,549.2,628.2,549.2,628z M549.1,625.8c-0.5,0.2-1,0.3-1.5,0.4c-0.4,0-0.6,0.1-0.9,0.1
			c-0.1,0.1-0.3,0.1-0.4,0.3s-0.1,0.3-0.1,0.5s0.1,0.5,0.3,0.6c0.3,0.2,0.6,0.2,0.9,0.3c0.4,0,0.7-0.1,1-0.3
			c0.3-0.1,0.5-0.4,0.6-0.6c0.1-0.3,0.2-0.7,0.1-1L549.1,625.8L549.1,625.8z"/>
		<path class="st9" d="M551.5,621.9v-1.2h1v1.2H551.5z M551.5,628.6v-5.7h1v5.7H551.5z"/>
		<path class="st9" d="M554,628.6v-5.7h0.9v0.9c0.3-0.4,0.4-0.6,0.6-0.8s0.4-0.3,0.6-0.3c0.4,0,0.7,0.1,1,0.3l-0.4,0.9
			c-0.2-0.1-0.4-0.2-0.6-0.3c-0.3,0-0.4,0-0.5,0.1c-0.2,0.1-0.3,0.3-0.4,0.5c-0.1,0.4-0.2,0.8-0.1,1.2v3L554,628.6L554,628.6z"/>
		<path class="st9" d="M557.3,626.9l0.9-0.1c0,0.3,0.2,0.6,0.4,0.9c0.1,0.3,0.6,0.3,1,0.3s0.7-0.1,1-0.3c0.2-0.1,0.4-0.4,0.4-0.6
			c0-0.2-0.1-0.4-0.3-0.5c-0.3-0.2-0.7-0.3-1-0.4c-0.5-0.1-1-0.3-1.4-0.5c-0.3-0.1-0.5-0.3-0.6-0.5s-0.2-0.5-0.3-0.8
			c0-0.2,0-0.5,0.1-0.6c0.1-0.2,0.3-0.4,0.5-0.5c0.2-0.2,0.4-0.3,0.6-0.3c0.3,0,0.5-0.1,0.8-0.1c0.4,0,0.8,0.1,1.2,0.3
			c0.3,0.1,0.6,0.3,0.8,0.5c0.2,0.3,0.3,0.6,0.4,0.9l-0.9,0.1c0-0.3-0.1-0.5-0.4-0.6c-0.3-0.2-0.6-0.3-0.9-0.3
			c-0.3,0-0.6,0.1-0.9,0.3c-0.2,0.1-0.3,0.3-0.3,0.5c0,0.1,0,0.3,0.1,0.4c0.1,0.1,0.3,0.1,0.4,0.3c0.1,0,0.4,0.1,0.9,0.3
			c0.6,0.1,1.2,0.4,1.4,0.4c0.3,0.1,0.5,0.3,0.6,0.5s0.2,0.5,0.3,0.8c0,0.3-0.1,0.6-0.3,0.9c-0.2,0.3-0.5,0.5-0.8,0.6
			c-0.4,0.2-0.8,0.2-1.2,0.3c-0.6,0.1-1.2-0.1-1.7-0.5C557.6,628,557.3,627.6,557.3,626.9z"/>
		<g id="Outline_Icons-2-2-4-2-3-3">
			<line class="st10" x1="537" y1="599.6" x2="555.8" y2="599.6"/>
			<polyline class="st10" points="552.4,599.6 552.4,596.3 549.2,596.3 549.2,593 546,593 546,589.8 542.8,589.8 542.8,586.6 
				537,586.6 			"/>
			<line class="st10" x1="546.8" y1="580.8" x2="557.1" y2="591.1"/>
			<polyline class="st10" points="546.8,584.9 546.8,580.8 550.9,580.8 			"/>
			<polyline class="st10" points="557.1,587 557.1,591.1 553,591.1 			"/>
		</g>
	</g>
	<g id="stairs-4-2-3-3-2">
		<ellipse class="st8" cx="1551.4" cy="151.4" rx="24" ry="24"/>
		<path class="st9" d="M1538.3,187.3l1-0.1c0,0.4,0.1,0.8,0.4,1c0.2,0.3,0.4,0.5,0.8,0.6s0.8,0.2,1.2,0.3c0.3,0,0.7,0,1-0.1
			s0.5-0.3,0.6-0.5c0.1-0.3,0.3-0.4,0.3-0.6c0-0.2-0.1-0.5-0.3-0.6c-0.2-0.2-0.5-0.4-0.8-0.5c-0.5-0.2-0.9-0.3-1.4-0.4
			c-0.5-0.1-1.1-0.3-1.5-0.5s-0.7-0.4-0.9-0.8c-0.2-0.3-0.2-0.7-0.3-1c0-0.4,0.1-0.8,0.4-1.2c0.2-0.4,0.6-0.7,1-0.8
			c0.5-0.2,0.9-0.2,1.4-0.3c0.5,0,1,0.1,1.5,0.3c0.4,0.2,0.7,0.4,1,0.8c0.3,0.4,0.4,0.8,0.4,1.3l-1,0.1c0-0.4-0.2-0.9-0.5-1.2
			c-0.4-0.3-0.9-0.4-1.4-0.4s-1,0.1-1.4,0.4c-0.2,0.2-0.4,0.5-0.4,0.8c0,0.2,0.1,0.5,0.3,0.6c0.5,0.3,1,0.4,1.5,0.5
			c0.6,0.1,1.2,0.3,1.8,0.5c0.4,0.2,0.7,0.5,1,0.8s0.4,0.7,0.4,1.2c0,0.4-0.1,0.8-0.4,1.2s-0.6,0.7-1,0.9c-0.5,0.2-1,0.3-1.5,0.3
			c-0.6,0-1.2-0.1-1.8-0.3c-0.5-0.1-0.9-0.5-1.2-0.9C1538.4,188.2,1538.4,187.8,1538.3,187.3z"/>
		<path class="st9" d="M1548,189l0.1,0.9c-0.3,0-0.5,0.1-0.8,0.1c-0.4,0-0.6,0-0.8-0.1s-0.4-0.3-0.4-0.4c-0.1-0.1-0.1-0.5-0.1-1.2
			v-3.2h-0.8v-0.8h0.8V183l0.9-0.6v1.9h1v0.8h-1v3.9c0,0.1,0.1,0.1,0.1,0.1l0,0c0.1,0,0.1,0.1,0.4,0.1
			C1547.6,189,1547.8,189,1548,189z"/>
		<path class="st9" d="M1552.8,189.1c-0.3,0.3-0.7,0.5-1,0.6s-0.7,0.1-1,0.1c-0.5,0.1-1.1-0.1-1.4-0.5c-0.4-0.3-0.6-0.7-0.5-1.2
			c0-0.3,0-0.5,0.1-0.8c0.1-0.2,0.3-0.4,0.5-0.5c0.3-0.1,0.4-0.3,0.6-0.3c0.3-0.1,0.6-0.1,0.9-0.1c0.6-0.1,1.1-0.2,1.7-0.4v-0.3
			c0-0.3-0.1-0.6-0.3-0.8c-0.3-0.3-0.7-0.4-1.2-0.4c-0.4,0-0.7,0.1-1,0.3c-0.3,0.1-0.4,0.4-0.5,0.9l-0.9-0.1c0.1-0.4,0.2-0.7,0.4-1
			c0.3-0.2,0.6-0.4,0.9-0.5c0.4-0.2,0.8-0.2,1.3-0.3c0.4,0,0.8,0,1.2,0.1c0.2,0.1,0.4,0.2,0.6,0.4s0.3,0.4,0.3,0.6v3.9
			c0,0.2,0.1,0.5,0.3,0.6h-1C1552.8,189.7,1552.8,189.4,1552.8,189.1z M1552.6,186.9c-0.5,0.2-1,0.3-1.5,0.4c-0.4,0-0.6,0.1-0.9,0.1
			c-0.1,0.1-0.3,0.1-0.4,0.3s-0.1,0.3-0.1,0.5s0.1,0.5,0.3,0.6c0.3,0.2,0.6,0.2,0.9,0.3c0.4,0,0.7-0.1,1-0.3
			c0.3-0.1,0.5-0.4,0.6-0.6c0.1-0.3,0.2-0.7,0.1-1V186.9z"/>
		<path class="st9" d="M1555.1,183.1v-1.2h1v1.2H1555.1z M1555.1,189.8v-5.7h1v5.7H1555.1z"/>
		<path class="st9" d="M1557.5,189.8v-5.7h0.9v0.9c0.3-0.4,0.4-0.6,0.6-0.8s0.4-0.3,0.6-0.3c0.4,0,0.7,0.1,1,0.3l-0.4,0.9
			c-0.2-0.1-0.4-0.2-0.6-0.3c-0.3,0-0.4,0-0.5,0.1c-0.2,0.1-0.3,0.3-0.4,0.5c-0.1,0.4-0.1,0.8-0.1,1.2v3L1557.5,189.8L1557.5,189.8z
			"/>
		<path class="st9" d="M1560.9,188.1l0.9-0.1c0,0.3,0.2,0.6,0.4,0.9c0.1,0.3,0.6,0.3,1,0.3s0.7-0.1,1-0.3c0.2-0.1,0.4-0.4,0.4-0.6
			c0-0.2-0.1-0.4-0.3-0.5c-0.3-0.2-0.7-0.3-1-0.4c-0.5-0.1-1-0.3-1.4-0.5c-0.3-0.1-0.5-0.3-0.6-0.5s-0.2-0.5-0.3-0.8
			c0-0.2,0-0.5,0.1-0.6c0.1-0.2,0.3-0.4,0.5-0.5c0.2-0.2,0.4-0.3,0.6-0.3c0.3,0,0.5-0.1,0.8-0.1c0.4,0,0.8,0.1,1.2,0.3
			c0.3,0.1,0.6,0.3,0.8,0.5c0.2,0.3,0.3,0.6,0.4,0.9l-0.9,0.1c0-0.3-0.1-0.5-0.4-0.6c-0.3-0.2-0.6-0.3-0.9-0.3s-0.6,0.1-0.9,0.3
			c-0.2,0.1-0.3,0.3-0.3,0.5c0,0.1,0,0.3,0.1,0.4c0.1,0.1,0.3,0.1,0.4,0.3c0.1,0,0.4,0.1,0.9,0.3c0.6,0.1,1.2,0.4,1.4,0.4
			c0.3,0.1,0.5,0.3,0.6,0.5s0.2,0.5,0.3,0.8c0,0.3-0.1,0.6-0.3,0.9c-0.2,0.3-0.5,0.5-0.8,0.6c-0.4,0.2-0.8,0.2-1.2,0.3
			c-0.6,0.1-1.2-0.1-1.7-0.5C1561.1,189.1,1560.9,188.8,1560.9,188.1z"/>
		<g id="Outline_Icons-2-2-4-2-3-3-2">
			<line class="st10" x1="1540.5" y1="160.8" x2="1559.3" y2="160.8"/>
			<polyline class="st10" points="1556,160.8 1556,157.4 1552.8,157.4 1552.8,154.2 1549.6,154.2 1549.6,151 1546.3,151 
				1546.3,147.8 1540.5,147.8 			"/>
			<line class="st10" x1="1550.3" y1="142" x2="1560.6" y2="152.3"/>
			<polyline class="st10" points="1550.3,146.1 1550.3,142 1554.4,142 			"/>
			<polyline class="st10" points="1560.6,148.2 1560.6,152.3 1556.5,152.3 			"/>
		</g>
	</g>
	<g id="stairs-4-2-3-3-3">
		
			<ellipse transform="matrix(0.1602 -0.9871 0.9871 0.1602 929.076 1338.0862)" class="st8" cx="1250.9" cy="123" rx="16.8" ry="16.8"/>
		<path class="st9" d="M1241.7,148.3l0.7-0.1c0,0.3,0.1,0.5,0.3,0.7c0.1,0.2,0.3,0.4,0.5,0.5c0.3,0.1,0.5,0.2,0.8,0.2
			c0.2,0,0.5,0,0.7-0.1s0.3-0.2,0.5-0.4c0.1-0.2,0.2-0.3,0.2-0.5s-0.1-0.3-0.2-0.5s-0.3-0.3-0.5-0.4c-0.3-0.1-0.7-0.2-1-0.3
			c-0.4-0.1-0.7-0.2-1.1-0.4c-0.2-0.1-0.5-0.3-0.6-0.5s-0.2-0.5-0.2-0.7c0-0.3,0.1-0.6,0.3-0.8c0.2-0.3,0.4-0.5,0.7-0.5
			c0.3-0.1,0.7-0.2,1-0.2c0.4,0,0.7,0.1,1.1,0.2c0.3,0.1,0.5,0.3,0.7,0.5c0.2,0.3,0.3,0.6,0.3,0.9l-0.7,0.1c0-0.3-0.1-0.6-0.4-0.8
			s-0.6-0.3-1-0.3s-0.7,0.1-1,0.3c-0.2,0.1-0.3,0.3-0.3,0.5s0.1,0.3,0.2,0.5c0.3,0.2,0.7,0.3,1.1,0.4c0.4,0.1,0.9,0.2,1.3,0.4
			c0.3,0.1,0.5,0.3,0.7,0.5s0.3,0.5,0.3,0.8s-0.1,0.6-0.3,0.8c-0.2,0.3-0.4,0.5-0.7,0.6c-0.3,0.2-0.7,0.2-1.1,0.2s-0.9-0.1-1.3-0.2
			c-0.3-0.1-0.6-0.3-0.8-0.6C1241.8,148.9,1241.7,148.6,1241.7,148.3z"/>
		<path class="st9" d="M1248.5,149.5l0.1,0.6c-0.2,0-0.4,0.1-0.5,0.1c-0.3,0-0.5,0-0.5-0.1s-0.3-0.2-0.3-0.3
			c-0.1-0.1-0.1-0.4-0.1-0.8v-2.3h-0.5v-0.5h0.5v-1l0.6-0.5v1.4h0.7v0.5h-0.7v2.7c0,0,0,0.1,0.1,0.1l0,0c0.1,0,0.1,0.1,0.3,0.1
			C1248.3,149.5,1248.4,149.5,1248.5,149.5z"/>
		<path class="st9" d="M1251.9,149.6c-0.2,0.2-0.5,0.3-0.7,0.5c-0.2,0.1-0.5,0.1-0.7,0.1c-0.4,0.1-0.7-0.1-1-0.4
			c-0.3-0.2-0.4-0.5-0.4-0.8c0-0.2,0-0.4,0.1-0.5c0.1-0.2,0.2-0.3,0.4-0.4c0.2-0.1,0.3-0.2,0.5-0.2s0.4-0.1,0.6-0.1
			c0.4,0,0.8-0.1,1.2-0.3v-0.2c0-0.2-0.1-0.4-0.2-0.5c-0.2-0.2-0.5-0.3-0.8-0.3s-0.5,0.1-0.7,0.2c-0.2,0.1-0.3,0.3-0.4,0.6l-0.6-0.1
			c0.1-0.2,0.2-0.5,0.3-0.7c0.2-0.2,0.4-0.3,0.6-0.4c0.3-0.1,0.6-0.2,0.9-0.2s0.6,0,0.8,0.1c0.2,0.1,0.3,0.2,0.5,0.3
			c0.1,0.1,0.2,0.3,0.2,0.5v2.7c0,0.2,0.1,0.3,0.2,0.5h-0.7C1251.9,149.9,1251.9,149.8,1251.9,149.6z M1251.8,148
			c-0.4,0.1-0.7,0.2-1.1,0.3c-0.3,0-0.5,0.1-0.6,0.1c-0.1,0.1-0.2,0.1-0.3,0.2s-0.1,0.2-0.1,0.4s0.1,0.3,0.2,0.5
			c0.2,0.1,0.4,0.2,0.6,0.2s0.5-0.1,0.7-0.2c0.2-0.1,0.3-0.3,0.5-0.5c0.1-0.2,0.1-0.5,0.1-0.7L1251.8,148z"/>
		<path class="st9" d="M1253.5,145.3v-0.8h0.7v0.8H1253.5z M1253.5,150v-4h0.7v4H1253.5z"/>
		<path class="st9" d="M1255.2,150v-4h0.6v0.6c0.2-0.3,0.3-0.5,0.5-0.5s0.3-0.2,0.5-0.2s0.5,0.1,0.7,0.2l-0.3,0.6
			c-0.1-0.1-0.3-0.1-0.5-0.2c-0.2,0-0.3,0-0.4,0.1s-0.2,0.2-0.3,0.4c-0.1,0.3-0.1,0.5-0.1,0.8v2.1L1255.2,150L1255.2,150z"/>
		<path class="st9" d="M1257.6,148.9l0.6-0.1c0,0.2,0.1,0.4,0.3,0.6c0.1,0.2,0.5,0.2,0.7,0.2c0.3,0,0.5-0.1,0.7-0.2
			c0.2-0.1,0.3-0.3,0.3-0.5c0-0.1-0.1-0.3-0.2-0.4c-0.2-0.1-0.5-0.2-0.7-0.3c-0.4-0.1-0.7-0.2-1-0.4c-0.2-0.1-0.3-0.2-0.5-0.4
			c-0.1-0.2-0.2-0.4-0.2-0.5c0-0.2,0-0.3,0.1-0.5s0.2-0.3,0.4-0.4c0.1-0.1,0.3-0.2,0.5-0.2s0.4-0.1,0.5-0.1c0.3,0,0.6,0.1,0.8,0.2
			c0.2,0.1,0.5,0.2,0.5,0.4c0.1,0.2,0.2,0.4,0.3,0.6l-0.6,0.1c0-0.2-0.1-0.4-0.3-0.5c-0.2-0.1-0.4-0.2-0.6-0.2s-0.4,0.1-0.6,0.2
			c-0.1,0.1-0.2,0.2-0.2,0.4c0,0.1,0,0.2,0.1,0.3s0.2,0.1,0.3,0.2c0.1,0,0.3,0.1,0.6,0.2c0.5,0.1,0.8,0.3,1,0.3
			c0.2,0.1,0.3,0.2,0.5,0.4c0.1,0.2,0.2,0.4,0.2,0.5c0,0.2-0.1,0.4-0.2,0.6c-0.1,0.2-0.3,0.4-0.5,0.5c-0.3,0.1-0.5,0.2-0.8,0.2
			c-0.4,0-0.9-0.1-1.2-0.4C1257.7,149.6,1257.6,149.3,1257.6,148.9z"/>
		<g id="Outline_Icons-2-2-4-2-3-3-3">
			<line class="st10" x1="1243.3" y1="129.7" x2="1256.5" y2="129.7"/>
			<polyline class="st10" points="1254.1,129.7 1254.1,127.3 1251.9,127.3 1251.9,125.1 1249.6,125.1 1249.6,122.8 1247.3,122.8 
				1247.3,120.6 1243.3,120.6 			"/>
			<line class="st10" x1="1250.1" y1="116.5" x2="1257.4" y2="123.7"/>
			<polyline class="st10" points="1250.1,119.4 1250.1,116.5 1253,116.5 			"/>
			<polyline class="st10" points="1257.4,120.8 1257.4,123.7 1254.5,123.7 			"/>
		</g>
	</g>
	<g id="Toilet-2">
		<path class="st9" d="M1627.5,182.6v-7.2h-2.7v-1h6.6v1h-2.7v7.2H1627.5z"/>
		<path class="st9" d="M1630.6,179.6c-0.1-0.9,0.2-1.8,0.9-2.4c0.6-0.4,1.2-0.6,1.9-0.6c0.8,0,1.5,0.3,2.1,0.8
			c0.5,0.6,0.8,1.4,0.8,2.2c0,0.6-0.1,1.2-0.4,1.8c-0.5,0.9-1.4,1.4-2.4,1.4c-0.8,0-1.5-0.3-2.1-0.8
			C1630.8,181.3,1630.5,180.4,1630.6,179.6z M1631.7,179.6c-0.1,0.6,0.1,1.2,0.5,1.7c0.7,0.7,1.9,0.7,2.6,0c0.4-0.5,0.6-1.2,0.5-1.8
			c0.1-0.6-0.1-1.2-0.5-1.7c-0.7-0.7-1.9-0.7-2.6,0C1631.9,178.3,1631.7,179,1631.7,179.6z"/>
		<path class="st9" d="M1637.4,175.5v-1.2h1v1.2H1637.4z M1637.4,182.6v-5.9h1v5.9H1637.4z"/>
		<path class="st9" d="M1640,182.6v-8.2h1v8.2H1640z"/>
		<path class="st9" d="M1646.7,180.6l1,0.1c-0.1,0.6-0.5,1.1-0.9,1.4c-0.5,0.4-1.1,0.6-1.7,0.5c-0.8,0-1.5-0.2-2.1-0.8
			c-1-1.4-1-3.3,0-4.6c0.5-0.5,1.3-0.8,2.1-0.8c0.7,0,1.4,0.3,1.9,0.8c0.6,0.6,0.8,1.5,0.8,2.3v0.3h-4.5c0,0.6,0.2,1.1,0.5,1.5
			s0.8,0.5,1.3,0.5c0.3,0,0.6-0.1,0.9-0.3C1646.3,181.3,1646.5,181,1646.7,180.6z M1643.3,179h3.3c0-1-0.7-1.8-1.7-1.8
			c-0.5-0.1-0.9,0.1-1.2,0.5C1643.5,178,1643.3,178.5,1643.3,179L1643.3,179z"/>
		<path class="st9" d="M1651.2,181.7l0.1,0.9c-0.3,0-0.5,0.1-0.8,0.1s-0.6,0-0.9-0.1s-0.4-0.3-0.4-0.5c-0.1-0.4-0.2-0.8-0.1-1.2
			v-3.5h-0.8v-0.8h0.8v-1.4l1-0.6v2.1h1v0.8h-1v4c0,0.1,0.1,0.1,0.1,0.3s0.3,0.1,0.4,0.1C1650.8,181.7,1650.9,181.7,1651.2,181.7z"
			/>
		<circle class="st8" cx="1638.2" cy="144.9" r="24.9"/>
		<g id="Outline_Icons-4-2">
			<path class="st11" d="M1647.2,144.6c0,0.6-0.4,1-1,1l0,0h-5.1v-11c0-1.1,0.9-2,2-2.1h2.1c1.1,0,2,0.9,2.1,2v0.1L1647.2,144.6
				L1647.2,144.6z"/>
			<path class="st11" d="M1633.2,155.5h10v-6.1l3-2.1v-2.1h-17c-0.1,2.6,1.9,4.8,4.5,5h0.3L1633.2,155.5z"/>
			<rect x="1628.1" y="143.5" class="st11" width="13" height="2.1"/>
			<circle class="st11" cx="1644.6" cy="136.1" r="1"/>
		</g>
	</g>
	<g id="Toilet-2-2">
		<path class="st9" d="M1425.3,273.9v-7.2h-2.7v-1h6.6v1h-2.7v7.2H1425.3z"/>
		<path class="st9" d="M1428.4,270.9c-0.1-0.9,0.2-1.8,0.9-2.4c0.6-0.4,1.2-0.6,1.9-0.6c0.8,0,1.5,0.3,2.1,0.8
			c0.5,0.6,0.8,1.4,0.8,2.2c0,0.6-0.1,1.2-0.4,1.8c-0.5,0.9-1.4,1.4-2.4,1.4c-0.8,0-1.5-0.3-2.1-0.8
			C1428.7,272.6,1428.4,271.7,1428.4,270.9z M1429.6,270.9c-0.1,0.6,0.1,1.2,0.5,1.7c0.7,0.7,1.9,0.7,2.6,0c0.4-0.5,0.6-1.2,0.5-1.8
			c0.1-0.6-0.1-1.2-0.5-1.7c-0.7-0.7-1.9-0.7-2.6,0C1429.7,269.6,1429.5,270.3,1429.6,270.9L1429.6,270.9z"/>
		<path class="st9" d="M1435.3,266.8v-1.2h1v1.2H1435.3z M1435.3,273.9V268h1v5.9H1435.3z"/>
		<path class="st9" d="M1437.8,273.9v-8.2h1v8.2H1437.8z"/>
		<path class="st9" d="M1444.5,271.9l1,0.1c-0.1,0.6-0.5,1.1-0.9,1.4c-0.5,0.4-1.1,0.6-1.7,0.5c-0.8,0-1.5-0.2-2.1-0.8
			c-1-1.4-1-3.3,0-4.6c0.5-0.5,1.3-0.8,2.1-0.8c0.7,0,1.4,0.3,1.9,0.8c0.6,0.6,0.8,1.5,0.8,2.3v0.3h-4.5c0,0.6,0.2,1.1,0.5,1.5
			s0.8,0.5,1.3,0.5c0.3,0,0.6-0.1,0.9-0.3C1444.1,272.6,1444.3,272.3,1444.5,271.9z M1441.2,270.2h3.3c0-1-0.7-1.8-1.7-1.8
			c-0.5-0.1-0.9,0.1-1.2,0.5C1441.3,269.3,1441.2,269.8,1441.2,270.2L1441.2,270.2z"/>
		<path class="st9" d="M1449,273l0.1,0.9c-0.3,0-0.5,0.1-0.8,0.1s-0.6,0-0.9-0.1s-0.4-0.3-0.4-0.5c-0.1-0.4-0.2-0.8-0.1-1.2v-3.5
			h-0.8v-0.8h0.8v-1.4l1-0.6v2.1h1v0.8h-1v4c0,0.1,0.1,0.1,0.1,0.3s0.3,0.1,0.4,0.1C1448.7,273,1448.8,273,1449,273z"/>
		<circle class="st8" cx="1436" cy="236.2" r="24.9"/>
		<g id="Outline_Icons-4-2-2">
			<path class="st11" d="M1445,235.8c0,0.6-0.4,1-1,1l0,0h-5.1v-11c0-1.1,0.9-2,2-2.1h2.1c1.1,0,2,0.9,2.1,2v0.1L1445,235.8
				L1445,235.8z"/>
			<path class="st11" d="M1431,246.8h10v-6.1l3-2.1v-2.1h-17c-0.1,2.6,1.9,4.8,4.5,5h0.3L1431,246.8z"/>
			<rect x="1426" y="234.8" class="st11" width="13" height="2.1"/>
			<circle class="st11" cx="1442.5" cy="227.3" r="1"/>
		</g>
	</g>
	<g>
		<path class="st12" d="M1207.2,288.6v-7.1h2.7c0.4,0,0.7,0,1.1,0.1c0.3,0,0.6,0.2,0.9,0.3c0.2,0.2,0.4,0.4,0.6,0.7
			c0.1,0.3,0.2,0.6,0.2,1c0,0.6-0.2,1.1-0.6,1.5c-0.6,0.5-1.3,0.7-2.1,0.6h-1.8v2.9H1207.2z M1208.1,284.9h1.8
			c0.5,0,0.9-0.1,1.3-0.3c0.3-0.2,0.4-0.6,0.4-1c0-0.3-0.1-0.5-0.2-0.8c-0.1-0.2-0.4-0.4-0.6-0.4c-0.3-0.1-0.6-0.1-0.9-0.1h-1.8
			L1208.1,284.9z"/>
		<path class="st12" d="M1213.7,288.6v-5.2h0.8v0.8c0.1-0.3,0.3-0.5,0.6-0.7c0.2-0.1,0.4-0.2,0.6-0.2c0.3,0,0.6,0.1,0.9,0.3
			l-0.3,0.8c-0.2-0.1-0.4-0.2-0.6-0.2s-0.4,0.1-0.5,0.2c-0.2,0.1-0.3,0.3-0.3,0.5c-0.1,0.3-0.1,0.7-0.1,1v2.7L1213.7,288.6z"/>
		<path class="st12" d="M1217,282.5v-1h0.9v1H1217z M1217,288.6v-5.2h0.9v5.2H1217z"/>
		<path class="st12" d="M1219.2,288.6v-5.2h0.8v0.7c0.4-0.6,1-0.9,1.6-0.8c0.3,0,0.6,0.1,0.9,0.2c0.2,0.1,0.4,0.2,0.6,0.4
			c0.1,0.2,0.2,0.4,0.3,0.6c0,0.3,0.1,0.6,0,0.9v3.2h-0.9v-3.1c0-0.3,0-0.5-0.1-0.8c-0.1-0.2-0.2-0.3-0.4-0.4
			c-0.2-0.1-0.4-0.2-0.6-0.2c-0.4,0-0.7,0.1-1,0.4c-0.3,0.4-0.5,0.9-0.4,1.3v2.8H1219.2z"/>
		<path class="st12" d="M1226.6,287.8l0.1,0.8c-0.2,0-0.4,0.1-0.7,0.1c-0.3,0-0.5,0-0.7-0.1s-0.3-0.2-0.4-0.4
			c-0.1-0.3-0.1-0.7-0.1-1v-3h-0.6v-0.7h0.6v-1.3l0.9-0.5v1.8h0.9v0.7h-0.9v3c0,0.2,0,0.3,0,0.5c0,0.1,0.1,0.1,0.2,0.2
			c0.1,0,0.2,0.1,0.3,0.1C1226.4,287.8,1226.5,287.8,1226.6,287.8z"/>
		<path class="st12" d="M1231,286.9l0.9,0.1c-0.1,0.5-0.4,0.9-0.8,1.2c-1,0.7-2.4,0.6-3.3-0.3c-0.5-0.5-0.7-1.2-0.7-2
			c0-0.7,0.2-1.5,0.7-2c0.4-0.5,1.1-0.7,1.7-0.7s1.3,0.2,1.7,0.7c0.5,0.6,0.7,1.3,0.7,2c0,0.1,0,0.1,0,0.2h-3.8
			c0,0.5,0.2,0.9,0.5,1.3c0.3,0.3,0.7,0.5,1.1,0.5c0.3,0,0.6-0.1,0.8-0.3C1230.7,287.5,1230.9,287.2,1231,286.9z M1228.2,285.5h2.9
			c0-0.4-0.1-0.7-0.3-1c-0.3-0.3-0.7-0.5-1.1-0.5s-0.7,0.1-1,0.4C1228.3,284.7,1228.2,285.1,1228.2,285.5L1228.2,285.5z"/>
		<path class="st12" d="M1233,288.6v-5.2h0.8v0.8c0.1-0.3,0.3-0.5,0.6-0.7c0.2-0.1,0.4-0.2,0.6-0.2c0.3,0,0.6,0.1,0.9,0.3l-0.3,0.8
			c-0.2-0.1-0.4-0.2-0.6-0.2s-0.4,0.1-0.5,0.2c-0.2,0.1-0.3,0.3-0.3,0.5c-0.1,0.3-0.1,0.7-0.1,1v2.7L1233,288.6z"/>
		<path class="st12" d="M1239.2,288.6v-7.1h3.2c0.5,0,1,0,1.4,0.2c0.3,0.1,0.6,0.4,0.8,0.7c0.2,0.3,0.3,0.7,0.3,1.1
			c0,0.5-0.2,0.9-0.5,1.3c-0.4,0.4-0.9,0.6-1.5,0.7c0.2,0.1,0.4,0.2,0.6,0.4c0.3,0.3,0.6,0.6,0.8,0.9l1.2,1.9h-1.2l-0.9-1.5
			c-0.3-0.4-0.5-0.8-0.7-1c-0.1-0.2-0.3-0.3-0.5-0.5c-0.1-0.1-0.3-0.2-0.4-0.2c-0.2,0-0.3,0-0.5,0h-1.1v3.2h-1V288.6z M1240.2,284.6
			h2c0.3,0,0.7,0,1-0.1c0.2-0.1,0.4-0.2,0.6-0.4c0.1-0.2,0.2-0.4,0.2-0.6c0-0.3-0.1-0.6-0.4-0.8c-0.3-0.2-0.7-0.4-1.2-0.3h-2.3v2.2
			H1240.2z"/>
		<path class="st12" d="M1245.9,286c-0.1-0.8,0.2-1.6,0.8-2.1c0.5-0.4,1-0.6,1.6-0.6c0.7,0,1.3,0.2,1.7,0.7c0.5,0.5,0.7,1.2,0.7,1.9
			c0,0.5-0.1,1.1-0.3,1.6c-0.2,0.4-0.5,0.7-0.9,0.9c-0.4,0.2-0.8,0.3-1.2,0.3c-0.7,0-1.3-0.2-1.7-0.7
			C1246.1,287.5,1245.9,286.7,1245.9,286z M1246.8,286c0,0.5,0.1,1.1,0.4,1.5c0.5,0.6,1.4,0.7,2,0.1l0.1-0.1c0.3-0.4,0.5-1,0.4-1.5
			c0-0.5-0.1-1-0.4-1.4c-0.5-0.6-1.4-0.7-2-0.1l-0.1,0.1C1247,285,1246.8,285.5,1246.8,286L1246.8,286z"/>
		<path class="st12" d="M1251.5,286c-0.1-0.8,0.2-1.6,0.8-2.1c0.5-0.4,1-0.6,1.6-0.6c0.7,0,1.3,0.2,1.7,0.7c0.5,0.5,0.7,1.2,0.7,1.9
			c0,0.5-0.1,1.1-0.3,1.6c-0.2,0.4-0.5,0.7-0.9,0.9c-0.4,0.2-0.8,0.3-1.2,0.3c-0.7,0-1.3-0.2-1.7-0.7
			C1251.7,287.5,1251.4,286.7,1251.5,286z M1252.4,286c0,0.5,0.1,1.1,0.4,1.5c0.5,0.6,1.4,0.7,2,0.1l0.1-0.1c0.3-0.4,0.5-1,0.4-1.5
			c0-0.5-0.1-1-0.4-1.4c-0.5-0.6-1.4-0.7-2-0.1l-0.1,0.1C1252.5,285,1252.3,285.5,1252.4,286L1252.4,286z"/>
		<path class="st12" d="M1257.3,288.6v-5.2h0.8v0.7c0.2-0.3,0.4-0.5,0.6-0.6c0.3-0.2,0.6-0.2,0.9-0.2s0.7,0.1,0.9,0.2
			c0.2,0.2,0.4,0.4,0.5,0.7c0.3-0.6,0.9-0.9,1.6-0.9c0.4,0,0.9,0.1,1.2,0.4c0.3,0.4,0.5,0.8,0.4,1.3v3.5h-0.9v-3.2
			c0-0.3,0-0.5-0.1-0.8c-0.1-0.2-0.2-0.3-0.3-0.4c-0.2-0.1-0.3-0.1-0.5-0.1c-0.3,0-0.7,0.1-0.9,0.4c-0.3,0.3-0.4,0.7-0.4,1.2v3h-0.9
			v-3.3c0-0.3-0.1-0.6-0.2-0.9c-0.2-0.2-0.4-0.3-0.7-0.3c-0.2,0-0.5,0.1-0.7,0.2s-0.4,0.3-0.5,0.6c-0.1,0.3-0.2,0.7-0.1,1.1v2.7
			L1257.3,288.6z"/>
	</g>
	<circle class="st13" cx="1236.1" cy="255.2" r="21.6"/>
	<g id="Outline_Icons-6-6">
		<g id="Outline_Icons-7-2">
			<path class="st14" d="M1231.2,259.5h-2.2c-0.8-0.1-1.4-0.7-1.5-1.5v-4.7c0.1-0.8,0.7-1.4,1.5-1.5h14.6c0.8,0.1,1.4,0.7,1.5,1.5
				v4.7c-0.1,0.8-0.7,1.4-1.5,1.5h-2.2"/>
			<polyline class="st14" points="1231.2,250.3 1231.2,247.3 1238.9,247.3 1241.1,249.5 1241.1,250.3 			"/>
			<rect x="1231.2" y="257.2" class="st14" width="9.9" height="6.2"/>
			<circle class="st14" cx="1229.7" cy="254" r="0.7"/>
			<line class="st14" x1="1232.7" y1="258.7" x2="1239.6" y2="258.7"/>
			<line class="st14" x1="1232.7" y1="260.2" x2="1239.6" y2="260.2"/>
			<line class="st14" x1="1232.7" y1="261.7" x2="1239.6" y2="261.7"/>
			<polyline class="st14" points="1238.9,247.3 1238.9,249.5 1241.1,249.5 			"/>
		</g>
	</g>
	<g>
		<path class="st12" d="M484.8,270.8v-7.1h5.1v0.8h-4.2v2.2h3.9v0.8h-3.9v2.4h4.4v0.8L484.8,270.8z"/>
		<path class="st12" d="M490.6,270.8l2.7-7.1h1l2.9,7.1h-1.1l-0.8-2.2h-3l-0.8,2.2H490.6z M492.7,267.9h2.4l-0.7-2
			c-0.2-0.6-0.4-1.1-0.5-1.5c-0.1,0.5-0.2,0.9-0.4,1.4L492.7,267.9z"/>
		<path class="st12" d="M500,267.3c-0.1-1,0.3-2,1-2.8c0.6-0.7,1.5-1,2.5-1c0.6,0,1.2,0.2,1.8,0.5c0.5,0.3,0.9,0.8,1.2,1.3
			c0.3,0.6,0.4,1.2,0.4,1.9c0,0.7-0.1,1.3-0.4,1.9c-0.3,0.5-0.7,1-1.2,1.3s-1.1,0.4-1.7,0.4s-1.3-0.2-1.8-0.5s-0.9-0.8-1.2-1.3
			C500.1,268.6,500,268,500,267.3z M500.9,267.4c0,0.7,0.2,1.5,0.7,2c0.9,1,2.4,1,3.4,0.1c0,0,0.1,0,0.1-0.1
			c0.5-0.6,0.7-1.4,0.7-2.1c0-0.5-0.1-1-0.3-1.5c-0.2-0.4-0.5-0.8-0.9-1s-0.8-0.4-1.3-0.4c-0.6,0-1.3,0.2-1.7,0.7
			C501.1,265.7,500.9,266.5,500.9,267.4z"/>
		<path class="st12" d="M508.1,270.8v-4.5h-0.8v-0.7h0.8v-0.5c0-0.3,0-0.5,0.1-0.8c0.1-0.2,0.2-0.4,0.4-0.6c0.3-0.2,0.6-0.2,0.9-0.2
			s0.5,0,0.8,0.1l-0.1,0.8c-0.2,0-0.3,0-0.5,0s-0.4,0-0.6,0.2c-0.1,0.2-0.2,0.4-0.2,0.6v0.5h1v0.7h-1v4.5h-0.8V270.8z"/>
		<path class="st12" d="M510.7,270.8v-4.5h-0.8v-0.7h0.8v-0.5c0-0.3,0-0.5,0.1-0.8c0.1-0.2,0.2-0.4,0.4-0.6c0.3-0.2,0.6-0.2,0.9-0.2
			c0.3,0,0.5,0,0.8,0.1l-0.1,0.8c-0.2,0-0.3,0-0.5,0s-0.4,0-0.6,0.2c-0.1,0.2-0.2,0.4-0.2,0.6v0.5h1v0.7h-1v4.5h-0.8V270.8z"/>
		<path class="st12" d="M513.2,264.7v-1h0.9v1H513.2z M513.2,270.8v-5.2h0.9v5.2H513.2z"/>
		<path class="st12" d="M518.8,268.9l0.9,0.1c-0.1,0.5-0.3,1-0.7,1.4c-0.4,0.3-0.9,0.5-1.4,0.5c-0.6,0-1.3-0.2-1.7-0.7
			c-0.5-0.6-0.7-1.3-0.6-2c0-0.5,0.1-1,0.3-1.5c0.2-0.4,0.5-0.7,0.8-0.9c0.4-0.2,0.8-0.3,1.2-0.3c0.5,0,1,0.1,1.4,0.4
			s0.6,0.7,0.7,1.2l-0.8,0.1c-0.1-0.3-0.2-0.6-0.4-0.8c-0.2-0.2-0.5-0.3-0.7-0.3c-0.4,0-0.8,0.2-1.1,0.5c-0.3,0.4-0.5,1-0.4,1.5
			c0,0.5,0.1,1.1,0.4,1.5c0.3,0.3,0.6,0.5,1,0.5c0.3,0,0.6-0.1,0.9-0.3C518.6,269.6,518.8,269.3,518.8,268.9z"/>
		<path class="st12" d="M523.9,269.1l0.9,0.1c-0.1,0.5-0.4,0.9-0.8,1.2c-0.4,0.3-0.9,0.5-1.5,0.4c-0.7,0-1.3-0.2-1.8-0.7
			s-0.7-1.2-0.7-2c0-0.7,0.2-1.5,0.7-2c0.4-0.5,1.1-0.7,1.7-0.7c0.6,0,1.3,0.2,1.7,0.7c0.5,0.6,0.7,1.3,0.7,2c0,0.1,0,0.1,0,0.2H521
			c0,0.5,0.2,0.9,0.5,1.3c0.3,0.3,0.7,0.5,1.1,0.5c0.3,0,0.6-0.1,0.8-0.3C523.6,269.7,523.8,269.5,523.9,269.1z M521,267.7h2.9
			c0-0.4-0.1-0.7-0.3-1c-0.3-0.3-0.7-0.5-1.1-0.5c-0.4,0-0.7,0.1-1,0.4C521.2,266.9,521.1,267.3,521,267.7L521,267.7z"/>
	</g>
	<g>
		<path class="st12" d="M1741.9,458.8v-7.1h0.9v7.1H1741.9z"/>
		<path class="st12" d="M1746.3,458.8v-6.3h-2.3v-0.8h5.6v0.8h-2.4v6.3H1746.3z"/>
		<path class="st12" d="M1749.8,459l2.1-7.4h0.7l-2.1,7.4H1749.8z"/>
		<path class="st12" d="M1753.3,458.8v-7.1h4.8v0.8h-3.9v2.2h3.3v0.8h-3.3v3.2L1753.3,458.8z"/>
		<path class="st12" d="M1759.3,458.8v-7.1h1.4l1.7,5c0.2,0.5,0.3,0.8,0.3,1.1c0.1-0.3,0.2-0.6,0.4-1.1l1.7-4.9h1.3v7.1h-0.9v-6
			l-2.1,6h-0.8l-2.1-6.1v6.1L1759.3,458.8z"/>
		<path class="st12" d="M1766.9,459l2.1-7.4h0.7l-2.1,7.4H1766.9z"/>
		<path class="st12" d="M1770.4,458.8v-7.1h4.8v0.8h-3.9v2.2h3.3v0.8h-3.3v3.2L1770.4,458.8z"/>
		<path class="st12" d="M1776.4,452.7v-1h0.9v1H1776.4z M1776.4,458.8v-5.2h0.9v5.2H1776.4z"/>
		<path class="st12" d="M1778.6,458.8v-5.2h0.8v0.7c0.4-0.6,1-0.9,1.6-0.8c0.3,0,0.6,0.1,0.9,0.2c0.2,0.1,0.4,0.2,0.6,0.4
			c0.1,0.2,0.2,0.4,0.3,0.6c0,0.3,0.1,0.6,0,0.8v3.2h-0.9v-3.1c0-0.3,0-0.5-0.1-0.8c-0.1-0.2-0.2-0.3-0.4-0.4
			c-0.2-0.1-0.4-0.2-0.6-0.2c-0.4,0-0.7,0.1-1,0.4c-0.3,0.4-0.5,0.9-0.4,1.3v2.8L1778.6,458.8z"/>
		<path class="st12" d="M1787.5,458.2c-0.3,0.2-0.6,0.4-0.9,0.6c-0.3,0.1-0.6,0.2-1,0.2c-0.5,0-0.9-0.1-1.3-0.4
			c-0.3-0.3-0.5-0.7-0.5-1.1c0-0.5,0.2-0.9,0.6-1.2c0.2-0.1,0.4-0.2,0.6-0.3c0.3-0.1,0.5-0.1,0.8-0.1c0.5,0,1-0.1,1.6-0.3
			c0-0.1,0-0.2,0-0.2c0-0.3-0.1-0.5-0.2-0.8c-0.3-0.2-0.6-0.3-1-0.3c-0.3,0-0.6,0.1-0.9,0.2c-0.2,0.2-0.4,0.5-0.4,0.8l-0.9-0.1
			c0.1-0.3,0.2-0.6,0.4-0.9c0.2-0.2,0.5-0.4,0.8-0.5c0.4-0.1,0.8-0.2,1.2-0.2c0.4,0,0.7,0,1.1,0.2c0.2,0.1,0.4,0.2,0.6,0.4
			c0.1,0.2,0.2,0.4,0.3,0.6c0,0.3,0.1,0.5,0,0.8v1.2c0,0.5,0,1,0.1,1.5c0,0.2,0.1,0.4,0.2,0.6h-0.9
			C1787.5,458.6,1787.5,458.4,1787.5,458.2z M1787.4,456.2c-0.5,0.2-0.9,0.3-1.4,0.3c-0.3,0-0.5,0.1-0.8,0.2
			c-0.1,0.1-0.3,0.2-0.3,0.3c-0.1,0.1-0.1,0.3-0.1,0.4c0,0.2,0.1,0.4,0.3,0.6c0.2,0.2,0.5,0.3,0.8,0.2c0.3,0,0.6-0.1,0.9-0.2
			s0.5-0.3,0.6-0.6c0.1-0.3,0.2-0.6,0.1-0.9L1787.4,456.2z"/>
		<path class="st12" d="M1789.6,458.8v-5.2h0.8v0.7c0.4-0.6,1-0.9,1.6-0.8c0.3,0,0.6,0.1,0.9,0.2c0.2,0.1,0.4,0.2,0.6,0.4
			c0.1,0.2,0.2,0.4,0.3,0.6c0,0.3,0.1,0.6,0,0.8v3.2h-0.9v-3.1c0-0.3,0-0.5-0.1-0.8c-0.1-0.2-0.2-0.3-0.4-0.4
			c-0.2-0.1-0.4-0.2-0.6-0.2c-0.4,0-0.7,0.1-1,0.4c-0.3,0.4-0.5,0.9-0.4,1.3v2.8L1789.6,458.8z"/>
		<path class="st12" d="M1798.5,456.9l0.9,0.1c-0.1,0.5-0.3,1-0.7,1.4c-0.4,0.3-0.9,0.5-1.4,0.5c-0.6,0-1.3-0.2-1.7-0.7
			c-0.5-0.6-0.7-1.3-0.6-2c0-0.5,0.1-1,0.3-1.5c0.2-0.4,0.5-0.7,0.8-0.9c0.4-0.2,0.8-0.3,1.2-0.3c0.5,0,1,0.1,1.4,0.4
			s0.6,0.7,0.7,1.2l-0.8,0.1c-0.1-0.3-0.2-0.6-0.4-0.8c-0.2-0.2-0.5-0.3-0.7-0.3c-0.4,0-0.8,0.2-1.1,0.5c-0.3,0.4-0.5,1-0.4,1.5
			c0,0.5,0.1,1.1,0.4,1.5c0.3,0.3,0.6,0.5,1,0.5c0.3,0,0.6-0.1,0.9-0.3C1798.3,457.7,1798.5,457.3,1798.5,456.9z"/>
		<path class="st12" d="M1803.6,457.2l0.9,0.1c-0.1,0.5-0.4,0.9-0.8,1.2c-0.4,0.3-0.9,0.5-1.5,0.4c-0.7,0-1.3-0.2-1.8-0.7
			s-0.7-1.2-0.7-2c0-0.7,0.2-1.5,0.7-2c0.4-0.5,1.1-0.7,1.7-0.7s1.3,0.2,1.7,0.7c0.5,0.6,0.7,1.3,0.7,2c0,0.1,0,0.1,0,0.2h-3.8
			c0,0.5,0.2,0.9,0.5,1.3c0.3,0.3,0.7,0.5,1.1,0.5c0.3,0,0.6-0.1,0.8-0.3C1803.4,457.8,1803.5,457.5,1803.6,457.2z M1800.8,455.8
			h2.9c0-0.4-0.1-0.7-0.3-1c-0.3-0.3-0.7-0.5-1.1-0.5s-0.7,0.1-1,0.4C1800.9,455,1800.8,455.4,1800.8,455.8L1800.8,455.8z"/>
	</g>
</g>
<g>
	<circle class="st8" cx="1542" cy="279.9" r="17.5"/>
	<path class="st15" d="M1537.2,286v-8.7c0-0.5,0.4-0.9,1-0.9h1.7c0.5,0,1,0.4,1,0.9v8.7c0,0.5-0.4,0.9-1,0.9h-1.7
		C1537.7,286.9,1537.2,286.5,1537.2,286z M1541,286v-8.7c0-0.5,0.4-0.9,1-0.9h1.7c0.5,0,0.9,0.4,0.9,0.9v8.7c0,0.5-0.4,0.9-0.9,0.9
		h-1.7C1541.5,286.9,1541,286.5,1541,286z M1548.1,286.9h-2.2c-0.5,0-1-0.4-1-0.9v-8.9c0-0.6-0.5-1.1-1-1.1h-6.7
		c-0.1,0-0.2,0.1-0.2,0.2l0,0v9.8c0,0.5-0.4,0.9-1,0.9l0,0c-0.5,0-0.9-0.4-0.9-0.9v-12c0-0.5,0.4-0.9,0.9-0.9h12c0.5,0,1,0.4,1,0.9
		v12C1549,286.5,1548.6,286.9,1548.1,286.9z M1549.2,272.7H1535c-0.1,0-0.2,0.1-0.2,0.2l0,0v13.2c0,0.6,0.5,1.1,1,1.1h13.2
		c0.1,0,0.2-0.1,0.2-0.2l0,0v-14.1C1549.2,272.7,1549.2,272.7,1549.2,272.7z"/>
	<g class="st16">
		<path class="st12" d="M1527.6,306.4v-5.9h4.3v0.7h-3.5v1.8h3.3v0.7h-3.3v2h3.6v0.7L1527.6,306.4L1527.6,306.4z"/>
		<path class="st12" d="M1532.9,306.4v-5.9h0.7v5.9H1532.9z"/>
		<path class="st12" d="M1537.8,305l0.7,0.1c-0.1,0.4-0.3,0.8-0.6,1c-0.3,0.2-0.7,0.4-1.2,0.4c-0.6,0-1.1-0.2-1.5-0.6
			c-0.4-0.4-0.6-1-0.6-1.6c0-0.7,0.2-1.3,0.6-1.7c0.4-0.4,0.9-0.6,1.4-0.6c0.6,0,1,0.2,1.4,0.6c0.4,0.4,0.6,1,0.6,1.7
			c0,0.1,0,0.1,0,0.2h-3.2c0,0.5,0.2,0.8,0.4,1c0.2,0.2,0.6,0.4,0.9,0.4c0.2,0,0.5-0.1,0.7-0.2
			C1537.5,305.5,1537.7,305.4,1537.8,305z M1535.3,303.8h2.4c0-0.4-0.2-0.6-0.2-0.8c-0.2-0.2-0.6-0.4-0.9-0.4s-0.6,0.1-0.9,0.3
			C1535.5,303.2,1535.4,303.4,1535.3,303.8z"/>
		<path class="st12" d="M1540.6,306.4l-1.6-4.3h0.8l0.9,2.6c0.1,0.2,0.2,0.6,0.2,0.9c0.1-0.2,0.2-0.5,0.2-0.8l1-2.6h0.7l-1.6,4.3
			H1540.6L1540.6,306.4z"/>
		<path class="st12" d="M1546.3,305.9c-0.2,0.2-0.6,0.4-0.8,0.5s-0.5,0.2-0.8,0.2c-0.5,0-0.8-0.1-1.1-0.3s-0.4-0.6-0.4-0.9
			c0-0.2,0.1-0.4,0.2-0.6c0.1-0.2,0.2-0.3,0.4-0.4c0.2-0.1,0.3-0.2,0.6-0.2c0.2,0,0.3-0.1,0.6-0.1c0.6-0.1,1-0.2,1.3-0.2
			c0-0.1,0-0.2,0-0.2c0-0.3-0.1-0.5-0.2-0.6c-0.2-0.2-0.5-0.2-0.8-0.2c-0.3,0-0.6,0.1-0.7,0.2c-0.2,0.1-0.3,0.3-0.4,0.6l-0.7-0.1
			c0.1-0.3,0.2-0.6,0.3-0.7c0.2-0.2,0.4-0.3,0.6-0.4s0.6-0.2,1-0.2c0.4,0,0.6,0.1,0.9,0.2c0.2,0.1,0.4,0.2,0.5,0.3
			c0.1,0.2,0.2,0.3,0.2,0.5c0,0.2,0,0.3,0,0.6v1c0,0.6,0,1.1,0.1,1.3c0,0.2,0.1,0.3,0.2,0.5h-0.7
			C1546.4,306.3,1546.4,306.1,1546.3,305.9z M1546.3,304.2c-0.2,0.1-0.6,0.2-1.2,0.2c-0.3,0.1-0.5,0.1-0.6,0.2
			c-0.2,0.1-0.2,0.2-0.3,0.2c-0.1,0.1-0.1,0.2-0.1,0.3c0,0.2,0.1,0.3,0.2,0.5c0.2,0.2,0.4,0.2,0.6,0.2s0.6-0.1,0.7-0.2
			c0.2-0.2,0.4-0.3,0.5-0.5c0.1-0.2,0.1-0.4,0.1-0.7L1546.3,304.2L1546.3,304.2z"/>
		<path class="st12" d="M1549.8,305.8l0.1,0.6c-0.2,0.1-0.4,0.1-0.6,0.1c-0.2,0-0.5-0.1-0.6-0.2c-0.2-0.1-0.2-0.2-0.3-0.3
			c-0.1-0.2-0.1-0.4-0.1-0.9v-2.5h-0.6v-0.6h0.6v-1l0.7-0.4v1.5h0.7v0.6h-0.7v2.5c0,0.2,0,0.3,0,0.4c0,0.1,0.1,0.1,0.2,0.2
			c0.1,0,0.2,0.1,0.2,0.1C1549.6,305.8,1549.6,305.8,1549.8,305.8z"/>
		<path class="st12" d="M1550.2,304.2c0-0.8,0.2-1.4,0.6-1.8c0.4-0.3,0.8-0.5,1.4-0.5c0.6,0,1,0.2,1.4,0.6c0.4,0.4,0.6,0.9,0.6,1.6
			c0,0.6-0.1,1-0.2,1.3c-0.2,0.3-0.4,0.6-0.7,0.7c-0.3,0.2-0.6,0.2-1,0.2c-0.6,0-1.1-0.2-1.4-0.6
			C1550.4,305.5,1550.2,305,1550.2,304.2z M1550.9,304.2c0,0.6,0.1,1,0.3,1.2c0.2,0.2,0.6,0.4,0.9,0.4c0.4,0,0.6-0.2,0.9-0.4
			c0.2-0.2,0.3-0.7,0.3-1.3s-0.2-1-0.4-1.2c-0.2-0.2-0.6-0.4-0.9-0.4c-0.4,0-0.6,0.2-0.9,0.4
			C1550.9,303.2,1550.9,303.7,1550.9,304.2z"/>
		<path class="st12" d="M1555.1,306.4v-4.3h0.6v0.6c0.2-0.3,0.3-0.5,0.5-0.6c0.2-0.1,0.3-0.2,0.5-0.2c0.2,0,0.5,0.1,0.7,0.2
			l-0.2,0.6c-0.2-0.1-0.3-0.2-0.6-0.2c-0.2,0-0.3,0.1-0.4,0.2c-0.1,0.1-0.2,0.2-0.2,0.4c-0.1,0.2-0.2,0.6-0.2,0.9v2.2L1555.1,306.4
			L1555.1,306.4z"/>
	</g>
</g>
<g>
	<path class="st9" d="M1303.4,270v-5.7h0.8v5.1h2.8v0.7H1303.4z"/>
	<path class="st9" d="M1310.6,268.6l0.7,0.1c-0.1,0.4-0.3,0.8-0.6,1s-0.7,0.4-1.2,0.4c-0.6,0-1.1-0.2-1.4-0.6s-0.5-0.9-0.5-1.6
		c0-0.7,0.2-1.2,0.5-1.6s0.8-0.6,1.4-0.6c0.6,0,1,0.2,1.4,0.6s0.5,0.9,0.5,1.6c0,0,0,0.1,0,0.2h-3.1c0,0.5,0.2,0.8,0.4,1
		s0.5,0.4,0.9,0.4c0.3,0,0.5-0.1,0.7-0.2S1310.5,268.9,1310.6,268.6z M1308.3,267.5h2.3c0-0.3-0.1-0.6-0.3-0.8
		c-0.2-0.3-0.5-0.4-0.9-0.4c-0.3,0-0.6,0.1-0.8,0.3S1308.4,267.1,1308.3,267.5z"/>
	<path class="st9" d="M1312.1,270.3l0.7,0.1c0,0.2,0.1,0.4,0.2,0.5c0.2,0.1,0.4,0.2,0.7,0.2c0.3,0,0.6-0.1,0.8-0.2s0.3-0.3,0.4-0.5
		c0-0.1,0.1-0.4,0.1-0.9c-0.3,0.4-0.7,0.5-1.1,0.5c-0.6,0-1-0.2-1.3-0.6s-0.5-0.9-0.5-1.5c0-0.4,0.1-0.8,0.2-1.1s0.4-0.6,0.6-0.8
		s0.6-0.3,1-0.3c0.5,0,0.9,0.2,1.2,0.6v-0.5h0.6v3.6c0,0.6-0.1,1.1-0.2,1.4s-0.3,0.5-0.6,0.6s-0.6,0.2-1.1,0.2
		c-0.5,0-0.9-0.1-1.2-0.3S1312.1,270.7,1312.1,270.3z M1312.7,267.8c0,0.5,0.1,0.9,0.3,1.2s0.5,0.4,0.8,0.4c0.3,0,0.6-0.1,0.8-0.4
		s0.3-0.6,0.3-1.2c0-0.5-0.1-0.9-0.3-1.1s-0.5-0.4-0.8-0.4c-0.3,0-0.6,0.1-0.8,0.4S1312.7,267.3,1312.7,267.8z"/>
	<path class="st9" d="M1319.4,269.4c-0.3,0.2-0.5,0.4-0.8,0.5s-0.5,0.1-0.8,0.1c-0.5,0-0.8-0.1-1.1-0.3s-0.4-0.5-0.4-0.9
		c0-0.2,0-0.4,0.1-0.6s0.2-0.3,0.4-0.4s0.3-0.2,0.5-0.2c0.1,0,0.3-0.1,0.6-0.1c0.6-0.1,1-0.1,1.3-0.2c0-0.1,0-0.2,0-0.2
		c0-0.3-0.1-0.5-0.2-0.6c-0.2-0.2-0.4-0.2-0.8-0.2c-0.3,0-0.6,0.1-0.7,0.2s-0.3,0.3-0.3,0.6l-0.7-0.1c0.1-0.3,0.2-0.5,0.3-0.7
		s0.4-0.3,0.6-0.4s0.6-0.1,0.9-0.1c0.4,0,0.6,0,0.9,0.1s0.4,0.2,0.5,0.3s0.2,0.3,0.2,0.5c0,0.1,0,0.3,0,0.6v0.9c0,0.7,0,1.1,0,1.2
		s0.1,0.3,0.2,0.5h-0.7C1319.5,269.8,1319.4,269.6,1319.4,269.4z M1319.4,267.9c-0.3,0.1-0.6,0.2-1.1,0.3c-0.3,0-0.5,0.1-0.6,0.1
		s-0.2,0.1-0.3,0.2s-0.1,0.2-0.1,0.3c0,0.2,0.1,0.3,0.2,0.5s0.3,0.2,0.6,0.2c0.3,0,0.5-0.1,0.7-0.2s0.4-0.3,0.5-0.5
		c0.1-0.2,0.1-0.4,0.1-0.7V267.9z"/>
	<path class="st9" d="M1321.1,270v-5.7h0.7v5.7H1321.1z"/>
	<path class="st9" d="M1325.2,270v-5.7h2c0.4,0,0.8,0,1,0.1c0.3,0.1,0.6,0.2,0.8,0.4c0.3,0.3,0.5,0.6,0.7,1s0.2,0.9,0.2,1.4
		c0,0.4-0.1,0.8-0.2,1.2s-0.2,0.6-0.4,0.8s-0.3,0.4-0.5,0.5s-0.4,0.2-0.7,0.3s-0.6,0.1-0.9,0.1H1325.2z M1326,269.3h1.2
		c0.4,0,0.7,0,0.9-0.1s0.4-0.2,0.5-0.3c0.2-0.2,0.3-0.4,0.4-0.7s0.2-0.7,0.2-1.1c0-0.6-0.1-1.1-0.3-1.4s-0.4-0.5-0.7-0.6
		c-0.2-0.1-0.5-0.1-1-0.1h-1.2V269.3z"/>
	<path class="st9" d="M1333.8,268.6l0.7,0.1c-0.1,0.4-0.3,0.8-0.6,1s-0.7,0.4-1.2,0.4c-0.6,0-1.1-0.2-1.4-0.6s-0.5-0.9-0.5-1.6
		c0-0.7,0.2-1.2,0.5-1.6s0.8-0.6,1.4-0.6c0.6,0,1,0.2,1.4,0.6s0.5,0.9,0.5,1.6c0,0,0,0.1,0,0.2h-3.1c0,0.5,0.2,0.8,0.4,1
		s0.5,0.4,0.9,0.4c0.3,0,0.5-0.1,0.7-0.2S1333.7,268.9,1333.8,268.6z M1331.5,267.5h2.3c0-0.3-0.1-0.6-0.3-0.8
		c-0.2-0.3-0.5-0.4-0.9-0.4c-0.3,0-0.6,0.1-0.8,0.3S1331.5,267.1,1331.5,267.5z"/>
	<path class="st9" d="M1335.4,271.5v-5.7h0.6v0.5c0.2-0.2,0.3-0.4,0.5-0.5s0.4-0.2,0.7-0.2c0.4,0,0.7,0.1,0.9,0.3s0.5,0.4,0.6,0.8
		s0.2,0.7,0.2,1.1c0,0.4-0.1,0.8-0.2,1.1s-0.4,0.6-0.7,0.8s-0.6,0.3-0.9,0.3c-0.2,0-0.4,0-0.6-0.1s-0.3-0.2-0.5-0.4v2H1335.4z
		 M1336,267.9c0,0.5,0.1,0.9,0.3,1.2s0.5,0.4,0.8,0.4c0.3,0,0.6-0.1,0.8-0.4s0.3-0.7,0.3-1.2c0-0.5-0.1-0.9-0.3-1.2
		s-0.5-0.4-0.8-0.4c-0.3,0-0.6,0.1-0.8,0.4S1336,267.4,1336,267.9z"/>
	<path class="st9" d="M1341.4,269.3l0.1,0.6c-0.2,0-0.4,0.1-0.5,0.1c-0.3,0-0.5,0-0.6-0.1s-0.2-0.2-0.3-0.3s-0.1-0.4-0.1-0.8v-2.4
		h-0.5v-0.5h0.5v-1l0.7-0.4v1.4h0.7v0.5h-0.7v2.4c0,0.2,0,0.3,0,0.4s0.1,0.1,0.1,0.1s0.1,0.1,0.2,0.1
		C1341.1,269.3,1341.2,269.3,1341.4,269.3z"/>
	<path class="st9" d="M1342.2,270v-0.8h0.8v0.8H1342.2z"/>
</g>
</svg>
