<?xml version="1.0" encoding="UTF-8"?>
<svg id="Layer_1" data-name="Layer 1" xmlns="http://www.w3.org/2000/svg" viewBox="0 0 2251.025 1320.961">
  <defs>
    <style>
      .cls-1 {
        fill: #fff;
      }

      .cls-2 {
        fill: #b8bfc1;
      }

      .cls-3 {
        fill: #8eccce;
      }

      .cls-4 {
        fill: #a8e0e5;
      }

      .cls-5 {
        fill: #23a2b7;
      }

      .cls-6 {
        fill: #9baeb7;
      }

      .cls-7 {
        fill: #596068;
      }

      .cls-8 {
        fill: #010101;
        opacity: .15;
      }

      .cls-8, .cls-9, .cls-10 {
        isolation: isolate;
      }

      .cls-9 {
        fill: #575757;
        opacity: .74;
      }

      .cls-11 {
        stroke: #efeff0;
        stroke-width: 4.061px;
      }

      .cls-11, .cls-12, .cls-13 {
        fill: none;
        stroke-miterlimit: 10;
      }

      .cls-12 {
        stroke: #7a8e93;
        stroke-linecap: round;
        stroke-width: 1.87px;
      }

      .cls-13 {
        stroke: #ededed;
        stroke-width: 8px;
      }

      .cls-10 {
        fill: #030303;
        opacity: .05;
      }
    </style>
  </defs>
  <g id="shadow">
    <polygon class="cls-5" points="101.885 415.138 97.36 447.344 221.779 1101.481 2109.826 1035.108 2117.991 1008.88 2054.013 788.002 1453.835 906.819 1394.426 653.953 913.065 937.285 680.001 810.852 696.031 443.206 101.885 415.138"/>
  </g>
  <g id="background">
    <path class="cls-4" d="M106.479,419.489l130.447,657.316,1877.079-71.153-18.635-257.505-515.011,17.423-181.27-163.117-459.105,33.882-28.8,166.023s-39.621-40.659-92.658-54.212-73.366-8.471-73.366-8.471l-49.129-296.47-589.552-23.718Z"/>
  </g>
  <g id="spaces">
    <path class="cls-3" d="M374.216,428.003l54.71,315.061h357.463s38.985,2.733,76.551,22.506,56.714,35.094,60.103,85.353,5.482,91.163-11.859,124.8-32.188,51.152-55.341,64.825l-23.153,13.674-595.764,22.583L106.479,419.489l267.737,8.515Z"/>
    <polygon class="cls-3" points="963.598 634.593 983.811 928.717 1200.877 920.382 1200.877 938.452 1548.171 916.994 1554.536 1026.86 2112.966 1005.692 2095.369 748.147 1582.7 765.57 1401.501 604.624 963.598 634.593"/>
  </g>
  <g id="furnaiture">
    <g>
      <rect class="cls-10" x="284.953" y="821.378" width="80.579" height="35.144" transform="translate(-128.78 62.108) rotate(-9.114)"/>
      <rect class="cls-2" x="285.535" y="824.874" width="80.579" height="35.144" transform="translate(-129.327 62.245) rotate(-9.114)"/>
      <rect class="cls-1" x="285.73" y="827.009" width="80.579" height="35.144" transform="translate(-129.663 62.302) rotate(-9.114)"/>
      <path class="cls-8" d="M319.501,815.94l7.572-1.165c5.436-.582,9.514-5.631,8.931-11.067v-.582l-1.553-6.796c-1.747-6.99-8.543-11.261-15.533-9.902h0c-7.184,.777-12.426,6.99-11.844,14.174l.777,6.99c.777,5.436,5.825,9.32,11.455,8.543h0l.194-.194Z"/>
      <path class="cls-7" d="M319.695,816.717l7.572-1.165c5.436-.582,9.514-5.631,8.931-11.067v-.582l-1.747-6.99c-1.747-6.99-8.543-11.261-15.533-9.902h0c-7.184,.777-12.426,6.99-11.844,14.174l.777,6.99c.777,5.436,5.825,9.32,11.455,8.543h.388Z"/>
      <path class="cls-6" d="M320.666,819.823l6.99-1.165c5.242-.777,8.931-5.631,8.155-10.873h0v-.388l-1.553-6.796c-1.553-6.601-7.766-11.067-14.562-10.096h0c-6.796,.971-11.455,7.184-10.679,13.98l.777,6.99c.388,5.048,5.048,8.931,10.096,8.349h.777Z"/>
      <path class="cls-12" d="M335.81,808.562l-1.942-8.155c-1.553-6.601-7.766-11.067-14.562-10.096h0c-6.796,.971-11.455,7.184-10.679,13.98l.777,8.349"/>
      <rect class="cls-10" x="293.098" y="871.665" width="80.577" height="35.143" transform="translate(-142.154 67.197) rotate(-9.497)"/>
      <rect class="cls-2" x="292.516" y="867.976" width="80.577" height="35.143" transform="translate(-141.553 67.05) rotate(-9.497)"/>
      <rect class="cls-1" x="292.127" y="865.84" width="80.577" height="35.143" transform="translate(-141.206 66.957) rotate(-9.497)"/>
      <path class="cls-8" d="M339.305,912.244l-7.378,1.165c-5.436,.582-9.32,5.437-8.737,10.873v.777l1.553,6.796c1.747,6.796,8.543,11.067,15.533,9.708h0c6.99-.777,12.232-6.99,11.844-14.174l-.777-6.99c-.777-5.437-5.825-9.32-11.455-8.543h0l-.583,.388Z"/>
      <path class="cls-7" d="M339.305,911.467l-7.378,1.165c-5.436,.582-9.32,5.437-8.737,10.873v.777l1.553,6.796c1.747,6.796,8.543,11.067,15.533,9.708h0c6.99-.777,12.232-6.99,11.844-14.174l-.777-6.99c-.777-5.437-5.825-9.32-11.455-8.543h0c-.388,.388-.583,.388-.583,.388Z"/>
      <path class="cls-6" d="M338.334,908.166l-6.99,1.165c-5.242,.777-8.737,5.631-7.961,10.679v.388h0v.388l1.553,6.796c1.553,6.796,7.961,11.067,14.756,9.902h0c6.796-.971,11.455-7.184,10.679-13.98l-.777-6.99c-.582-5.242-5.242-9.126-10.485-8.543h-.194l-.582,.194Z"/>
      <path class="cls-12" d="M323.19,919.622l1.942,8.155c1.553,6.796,7.961,11.067,14.756,9.902h0c6.796-.971,11.455-7.184,10.679-13.98l-.777-8.349"/>
      <rect class="cls-10" x="202.044" y="836.329" width="80.579" height="35.144" transform="translate(-132.195 49.165) rotate(-9.114)"/>
      <rect class="cls-2" x="202.627" y="840.018" width="80.579" height="35.144" transform="translate(-132.772 49.303) rotate(-9.114)"/>
      <rect class="cls-1" x="203.015" y="841.96" width="80.579" height="35.144" transform="translate(-133.075 49.39) rotate(-9.114)"/>
      <path class="cls-8" d="M236.788,830.89l7.572-1.165c5.437-.582,9.514-5.631,8.931-11.067v-.582l-1.553-6.796c-1.747-6.99-8.543-11.261-15.533-9.902h0c-7.184,.777-12.426,6.99-11.844,14.174l.777,6.99c.777,5.436,5.825,9.32,11.455,8.543h0l.194-.194Z"/>
      <path class="cls-7" d="M236.788,831.667l7.572-1.165c5.437-.582,9.514-5.631,8.931-11.067v-.582l-1.553-6.796c-1.747-6.99-8.543-11.261-15.533-9.902h0c-7.184,.777-12.426,6.99-11.844,14.174l.777,6.99c.777,5.436,5.825,9.32,11.455,8.543h0s0-.194,.194-.194Z"/>
      <path class="cls-6" d="M237.759,834.774l6.99-1.165c5.242-.777,8.931-5.631,8.155-10.873h0v-.388l-1.553-6.796c-1.553-6.601-7.766-11.067-14.562-10.096h0c-6.796,.971-11.455,7.184-10.679,13.98l.777,6.99c.388,5.048,5.048,8.931,10.096,8.349h.777Z"/>
      <path class="cls-12" d="M252.904,823.512l-1.942-8.155c-1.553-6.601-7.766-11.067-14.562-10.096h0c-6.796,.971-11.455,7.184-10.679,13.98l.777,8.349"/>
      <rect class="cls-10" x="210.385" y="886.615" width="80.577" height="35.143" transform="translate(-145.754 53.754) rotate(-9.497)"/>
      <rect class="cls-2" x="209.803" y="882.926" width="80.577" height="35.143" transform="translate(-145.153 53.607) rotate(-9.497)"/>
      <rect class="cls-1" x="209.414" y="880.79" width="80.577" height="35.143" transform="translate(-144.806 53.514) rotate(-9.497)"/>
      <path class="cls-8" d="M256.593,927.194l-7.378,1.165c-5.437,.582-9.32,5.437-8.737,10.873v.777l1.553,6.796c1.747,6.796,8.543,11.067,15.533,9.708h0c6.99-.777,12.232-6.99,11.844-14.174l-.777-6.99c-.777-5.437-5.825-9.32-11.455-8.543h0l-.583,.388Z"/>
      <path class="cls-7" d="M256.398,926.417l-7.378,1.165c-5.437,.582-9.32,5.437-8.737,10.873v.777l1.553,6.796c1.747,6.796,8.543,11.067,15.533,9.708h0c6.99-.777,12.232-6.99,11.844-14.174l-.777-6.796c-.777-5.437-5.825-9.32-11.455-8.543h0c-.194,.194-.388,.194-.582,.194Z"/>
      <path class="cls-6" d="M255.428,923.117l-6.99,1.165c-5.242,.777-8.737,5.631-7.961,10.679v.388h0v.388l1.553,6.796c1.553,6.796,7.961,11.067,14.756,9.902h0c6.796-.971,11.455-7.184,10.679-13.98l-.777-6.99c-.582-5.242-5.242-9.126-10.485-8.543h-.194l-.582,.194Z"/>
      <path class="cls-12" d="M240.477,934.572l1.942,8.155c1.553,6.796,7.961,11.067,14.756,9.902h0c6.796-.971,11.455-7.184,10.679-13.98l-.777-8.349"/>
    </g>
    <path class="cls-8" d="M348.742,1003.243l7.661,.075c5.459,.304,10.299-4.018,10.603-9.477l.094-.575-.434-6.957c-.594-7.18-6.61-12.494-13.727-12.283h0c-7.215-.395-13.393,4.889-13.98,12.072l-.364,7.023c-.113,5.491,4.241,10.139,9.923,10.283h0l.223-.16Z"/>
    <path class="cls-7" d="M348.808,1004.041l7.661,.075c5.459,.304,10.299-4.018,10.603-9.477l.094-.575-.594-7.18c-.594-7.18-6.61-12.494-13.727-12.283h0c-7.215-.395-13.393,4.889-13.98,12.072l-.364,7.023c-.113,5.491,4.241,10.139,9.923,10.283h0l.383,.063Z"/>
    <path class="cls-6" d="M349.263,1007.264l7.086-.019c5.299,.081,9.724-4.112,9.806-9.411h0l.063-.383-.434-6.957c-.465-6.766-5.875-12.177-12.738-12.318h0c-6.863-.141-12.466,5.237-12.799,12.069l-.364,7.023c-.433,5.045,3.538,9.63,8.614,9.872l.766,.126h0Z"/>
    <path class="cls-12" d="M366.029,998.599l-.598-8.361c-.465-6.766-5.875-12.177-12.738-12.318h0c-6.863-.141-12.466,5.237-12.799,12.069l-.584,8.365"/>
    <path class="cls-8" d="M272.528,1008.483l7.661,.075c5.459,.304,10.299-4.018,10.603-9.477l.094-.575-.434-6.957c-.594-7.18-6.61-12.494-13.727-12.283h0c-7.215-.395-13.393,4.889-13.98,12.072l-.364,7.023c-.113,5.491,4.241,10.139,9.923,10.283h0l.223-.16Z"/>
    <path class="cls-7" d="M272.403,1009.25l7.661,.075c5.459,.304,10.299-4.018,10.603-9.477l.094-.575-.434-6.957c-.594-7.18-6.61-12.494-13.727-12.283h0c-7.215-.395-13.393,4.889-13.98,12.072l-.364,7.023c-.113,5.491,4.241,10.139,9.923,10.283h0s.031-.192,.223-.16Z"/>
    <path class="cls-6" d="M272.858,1012.472l7.086-.019c5.299,.081,9.724-4.112,9.805-9.411h0l.063-.383-.434-6.957c-.465-6.766-5.875-12.177-12.738-12.318h0c-6.863-.141-12.466,5.237-12.799,12.069l-.364,7.023c-.433,5.045,3.538,9.63,8.614,9.872l.766,.126h0Z"/>
    <path class="cls-12" d="M289.625,1003.808l-.598-8.361c-.465-6.766-5.875-12.177-12.738-12.318h0c-6.863-.141-12.466,5.237-12.799,12.069l-.584,8.365"/>
    <polygon class="cls-10" points="236.585 1007.675 313.016 1002.798 316.556 1059.953 240.125 1064.83 236.585 1007.675"/>
    <polygon class="cls-2" points="236.802 1011.404 313.233 1006.527 316.773 1063.681 240.342 1068.559 236.802 1011.404"/>
    <polygon class="cls-1" points="236.998 1013.374 313.429 1008.497 316.968 1065.652 240.537 1070.529 236.998 1013.374"/>
    <polygon class="cls-10" points="316.556 1002.803 392.987 997.926 396.526 1055.081 320.095 1059.958 316.556 1002.803"/>
    <polygon class="cls-2" points="316.773 1006.532 393.203 1001.655 396.743 1058.809 320.312 1063.687 316.773 1006.532"/>
    <polygon class="cls-1" points="316.968 1008.502 393.399 1003.625 396.939 1060.78 320.508 1065.657 316.968 1008.502"/>
    <path class="cls-8" d="M428.712,998.119l7.661,.075c5.459,.304,10.299-4.018,10.603-9.477l.094-.575-.434-6.957c-.594-7.18-6.61-12.494-13.727-12.283h0c-7.215-.395-13.393,4.889-13.98,12.072l-.364,7.023c-.113,5.491,4.241,10.139,9.923,10.283h0l.223-.16Z"/>
    <path class="cls-7" d="M428.778,998.917l7.661,.075c5.459,.304,10.299-4.018,10.603-9.477l.094-.575-.594-7.18c-.594-7.18-6.61-12.494-13.727-12.283h0c-7.215-.395-13.393,4.889-13.98,12.072l-.364,7.023c-.113,5.491,4.241,10.139,9.923,10.283h0l.383,.063Z"/>
    <path class="cls-6" d="M429.234,1002.14l7.086-.019c5.299,.081,9.724-4.112,9.806-9.411h0l.063-.383-.434-6.957c-.465-6.766-5.875-12.177-12.738-12.318h0c-6.863-.141-12.466,5.237-12.799,12.069l-.364,7.023c-.433,5.045,3.538,9.63,8.614,9.872l.766,.126h0Z"/>
    <path class="cls-12" d="M446,993.475l-.598-8.361c-.465-6.766-5.875-12.177-12.738-12.318h0c-6.863-.141-12.466,5.237-12.799,12.069l-.584,8.365"/>
    <polygon class="cls-10" points="396.526 997.68 472.957 992.803 476.497 1049.957 400.066 1054.834 396.526 997.68"/>
    <polygon class="cls-2" points="396.743 1001.408 473.174 996.531 476.714 1053.686 400.283 1058.563 396.743 1001.408"/>
    <polygon class="cls-1" points="396.939 1003.379 473.37 998.501 476.909 1055.656 400.478 1060.533 396.939 1003.379"/>
    <path class="cls-8" d="M507.91,992.822l7.661,.075c5.459,.304,10.299-4.018,10.603-9.477l.094-.575-.434-6.957c-.594-7.18-6.61-12.494-13.727-12.283h0c-7.215-.395-13.393,4.889-13.98,12.072l-.364,7.023c-.113,5.491,4.241,10.139,9.923,10.283h0l.223-.16Z"/>
    <path class="cls-7" d="M507.976,993.62l7.661,.075c5.459,.304,10.299-4.018,10.603-9.477l.094-.575-.594-7.18c-.594-7.18-6.61-12.494-13.727-12.283h0c-7.215-.395-13.393,4.889-13.98,12.072l-.364,7.023c-.113,5.491,4.241,10.139,9.923,10.283h0l.383,.063Z"/>
    <path class="cls-6" d="M508.432,996.843l7.086-.019c5.299,.081,9.724-4.112,9.806-9.411h0l.063-.383-.434-6.957c-.465-6.766-5.875-12.177-12.738-12.318h0c-6.863-.141-12.466,5.237-12.799,12.069l-.364,7.023c-.433,5.045,3.538,9.63,8.614,9.872l.766,.126h0Z"/>
    <path class="cls-12" d="M525.198,988.178l-.598-8.361c-.465-6.766-5.875-12.177-12.738-12.318h0c-6.863-.141-12.466,5.237-12.799,12.069l-.584,8.365"/>
    <polygon class="cls-10" points="475.725 992.383 552.156 987.505 555.695 1044.66 479.264 1049.537 475.725 992.383"/>
    <polygon class="cls-2" points="475.941 996.111 552.372 991.234 555.912 1048.389 479.481 1053.266 475.941 996.111"/>
    <polygon class="cls-1" points="476.137 998.082 552.568 993.204 556.108 1050.359 479.677 1055.236 476.137 998.082"/>
    <path class="cls-8" d="M636.655,802.829l.616-7.637c.689-5.424-3.281-10.557-8.705-11.246l-.567-.135-6.971-.059c-7.204,.085-12.93,5.711-13.223,12.825h0c-.904,7.169,3.93,13.705,11.054,14.798l6.98,.859c5.469,.5,10.413-3.514,10.958-9.172h0l-.144-.234Z"/>
    <path class="cls-7" d="M637.456,802.819l.616-7.637c.689-5.424-3.281-10.557-8.705-11.246l-.567-.135-7.204,.085c-7.204,.085-12.93,5.711-13.223,12.825h0c-.904,7.169,3.93,13.705,11.054,14.798l6.98,.859c5.469,.5,10.413-3.514,10.958-9.172h0l.09-.378Z"/>
    <path class="cls-6" d="M640.702,802.592l.481-7.07c.455-5.28-3.415-9.991-8.695-10.446h0l-.378-.09-6.971-.059c-6.782-.014-12.562,5-13.187,11.836h0c-.625,6.836,4.343,12.805,11.135,13.619l6.98,.859c5.001,.788,9.856-2.848,10.455-7.895l.179-.756h0Z"/>
    <path class="cls-12" d="M633.244,785.256l-8.383,.005c-6.782-.014-12.562,5-13.187,11.836h0c-.625,6.836,4.343,12.805,11.135,13.619l8.302,1.173"/>
    <polygon class="cls-10" points="633.943 834.903 634.478 758.318 691.74 758.826 691.205 835.41 633.943 834.903"/>
    <polygon class="cls-2" points="637.677 834.95 638.212 758.366 695.474 758.873 694.939 835.457 637.677 834.95"/>
    <polygon class="cls-1" points="639.656 834.894 640.192 758.31 697.454 758.817 696.918 835.401 639.656 834.894"/>
    <path class="cls-8" d="M758.586,803.474h0c.474,5.664,5.368,9.74,10.843,9.308l6.99-.772c7.137-1.004,12.052-7.479,11.238-14.659h0c-.204-7.118-5.859-12.814-13.062-12.989l-6.971-.028-.568,.127c-5.432,.621-9.466,5.705-8.844,11.137l.521,7.644-.147,.232Z"/>
    <path class="cls-7" d="M758.017,803.601h0c.474,5.664,5.368,9.74,10.843,9.308l6.99-.772c7.137-1.004,12.052-7.479,11.238-14.659h0c-.204-7.118-5.859-12.814-13.062-12.989l-7.203-.175-.568,.127c-5.432,.621-9.466,5.705-8.844,11.137l.521,7.644,.085,.379Z"/>
    <path class="cls-6" d="M754.689,802.955l.17,.758c.536,5.053,5.345,8.75,10.356,8.024l6.99-.772c6.801-.729,11.844-6.636,11.304-13.479h0c-.54-6.843-6.257-11.929-13.039-11.999l-6.971-.028-.379,.085h0c-5.285,.39-9.214,5.051-8.825,10.337l.393,7.075h0Z"/>
    <path class="cls-12" d="M764.163,812.371l8.316-1.069c6.801-.729,11.844-6.636,11.304-13.479h0c-.54-6.843-6.257-11.929-13.039-11.999l-8.382-.11"/>
    <polygon class="cls-10" points="703.781 835.14 704.201 758.555 761.465 758.762 761.045 835.347 703.781 835.14"/>
    <polygon class="cls-2" points="700.046 835.141 700.467 758.556 757.73 758.763 757.31 835.348 700.046 835.141"/>
    <polygon class="cls-1" points="698.068 835.06 698.488 758.475 755.752 758.682 755.332 835.267 698.068 835.06"/>
    <path class="cls-8" d="M636.655,880.329l.616-7.637c.689-5.424-3.281-10.557-8.705-11.246l-.567-.135-6.971-.059c-7.204,.085-12.93,5.711-13.223,12.825h0c-.904,7.169,3.93,13.705,11.054,14.798l6.98,.859c5.469,.5,10.413-3.514,10.958-9.172h0l-.144-.234Z"/>
    <path class="cls-7" d="M637.456,880.319l.616-7.637c.689-5.424-3.281-10.557-8.705-11.246l-.567-.135-7.204,.085c-7.204,.085-12.93,5.711-13.223,12.825h0c-.904,7.169,3.93,13.705,11.054,14.798l6.98,.859c5.469,.5,10.413-3.514,10.958-9.172h0l.09-.378Z"/>
    <path class="cls-6" d="M640.702,880.092l.481-7.07c.455-5.28-3.415-9.991-8.695-10.446h0l-.378-.09-6.971-.059c-6.782-.014-12.562,5-13.187,11.836h0c-.625,6.836,4.343,12.805,11.135,13.619l6.98,.859c5.001,.788,9.856-2.848,10.455-7.895l.179-.756h0Z"/>
    <path class="cls-12" d="M633.244,862.756l-8.383,.005c-6.782-.014-12.562,5-13.187,11.836h0c-.625,6.836,4.343,12.805,11.135,13.619l8.302,1.173"/>
    <polygon class="cls-10" points="633.943 912.403 634.478 835.819 691.74 836.326 691.205 912.91 633.943 912.403"/>
    <polygon class="cls-2" points="637.677 912.45 638.212 835.866 695.474 836.373 694.939 912.958 637.677 912.45"/>
    <polygon class="cls-1" points="639.656 912.394 640.192 835.81 697.454 836.317 696.918 912.902 639.656 912.394"/>
    <path class="cls-8" d="M758.586,880.974h0c.474,5.664,5.368,9.74,10.843,9.308l6.99-.772c7.137-1.004,12.052-7.479,11.238-14.659h0c-.204-7.118-5.859-12.814-13.062-12.989l-6.971-.028-.568,.127c-5.432,.621-9.466,5.705-8.844,11.137l.521,7.644-.147,.232Z"/>
    <path class="cls-7" d="M758.017,881.101h0c.474,5.664,5.368,9.74,10.843,9.308l6.99-.772c7.137-1.004,12.052-7.479,11.238-14.659h0c-.204-7.118-5.859-12.814-13.062-12.989l-7.203-.175-.568,.127c-5.432,.621-9.466,5.705-8.844,11.137l.521,7.644,.085,.379Z"/>
    <path class="cls-6" d="M754.689,880.455l.17,.758c.536,5.053,5.345,8.75,10.356,8.024l6.99-.772c6.801-.729,11.844-6.636,11.304-13.479h0c-.54-6.843-6.257-11.929-13.039-11.999l-6.971-.028-.379,.085h0c-5.285,.39-9.214,5.051-8.825,10.337l.393,7.075h0Z"/>
    <path class="cls-12" d="M764.163,889.871l8.316-1.069c6.801-.729,11.844-6.636,11.304-13.479h0c-.54-6.843-6.257-11.929-13.039-11.999l-8.382-.11"/>
    <polygon class="cls-10" points="703.781 912.641 704.201 836.055 761.465 836.262 761.045 912.848 703.781 912.641"/>
    <polygon class="cls-2" points="700.046 912.641 700.467 836.056 757.73 836.263 757.31 912.848 700.046 912.641"/>
    <polygon class="cls-1" points="698.068 912.56 698.488 835.975 755.752 836.182 755.332 912.767 698.068 912.56"/>
    <path class="cls-8" d="M194.495,506.949l-1.03-7.592c-.486-5.446-5.461-9.612-10.907-9.127l-.582-.01-6.822,1.432c-7.02,1.623-11.411,8.342-10.176,15.355h0c.649,7.197,6.768,12.548,13.961,12.094l7.002-.652c5.449-.68,9.422-5.658,8.745-11.302h0l-.191-.198Z"/>
    <path class="cls-7" d="M195.275,506.768l-1.03-7.592c-.486-5.446-5.461-9.612-10.907-9.127l-.582-.01-7.02,1.623c-7.02,1.623-11.411,8.342-10.176,15.355h0c.649,7.197,6.768,12.548,13.961,12.094l7.002-.652c5.449-.68,9.422-5.658,8.745-11.302h0l.007-.388Z"/>
    <path class="cls-6" d="M198.398,505.853l-1.041-7.009c-.683-5.255-5.471-9.03-10.726-8.347h0l-.388-.007-6.822,1.432c-6.628,1.436-11.203,7.569-10.353,14.38h0c.85,6.812,6.979,11.581,13.788,10.925l7.002-.652c5.054-.299,9.02-4.889,8.527-9.947l.014-.776h0Z"/>
    <path class="cls-12" d="M187.408,490.511l-8.188,1.796c-6.628,1.436-11.203,7.569-10.353,14.38h0c.85,6.812,6.979,11.581,13.788,10.925l8.361-.628"/>
    <polygon class="cls-10" points="198.699 538.862 182.856 463.932 238.904 452.191 254.747 527.121 198.699 538.862"/>
    <polygon class="cls-2" points="202.358 538.11 186.515 463.18 242.562 451.439 258.405 526.369 202.358 538.11"/>
    <polygon class="cls-1" points="204.279 537.632 188.436 462.703 244.484 450.961 260.327 525.891 204.279 537.632"/>
    <path class="cls-8" d="M313.747,481.523h0c1.674,5.432,7.326,8.368,12.582,6.776l6.664-2.248c6.758-2.506,10.176-9.882,7.846-16.722h0c-1.72-6.91-8.462-11.266-15.536-9.898l-6.816,1.462-.528,.246c-5.174,1.768-8.028,7.596-6.26,12.77l2.142,7.356-.094,.258Z"/>
    <path class="cls-7" d="M313.219,481.769h0c1.674,5.432,7.326,8.368,12.582,6.776l6.664-2.248c6.758-2.506,10.176-9.882,7.846-16.722h0c-1.72-6.91-8.462-11.266-15.536-9.898l-7.074,1.368-.528,.246c-5.174,1.768-8.028,7.596-6.26,12.77l2.142,7.356,.164,.352Z"/>
    <path class="cls-6" d="M309.829,481.849l.328,.704c1.604,4.822,7.092,7.406,11.832,5.626l6.664-2.248c6.488-2.166,10.152-9.014,8.162-15.584h0c-1.99-6.57-8.662-10.316-15.302-8.936l-6.816,1.462-.352,.164h0c-5.08,1.51-7.922,6.904-6.412,11.984l1.896,6.828h0Z"/>
    <path class="cls-12" d="M321.097,489.023l7.896-2.822c6.488-2.166,10.152-9.014,8.162-15.584h0c-1.99-6.57-8.662-10.316-15.302-8.936l-8.212,1.684"/>
    <polygon class="cls-10" points="266.975 524.169 251.02 449.264 307.005 437.229 322.961 512.135 266.975 524.169"/>
    <polygon class="cls-2" points="263.327 524.968 247.372 450.062 303.357 438.027 319.312 512.933 263.327 524.968"/>
    <polygon class="cls-1" points="261.377 525.312 245.422 450.406 301.407 438.371 317.362 513.277 261.377 525.312"/>
    <path class="cls-8" d="M211.057,582.659l-1.03-7.592c-.486-5.446-5.461-9.612-10.907-9.127l-.582-.01-6.822,1.432c-7.02,1.623-11.411,8.342-10.176,15.355h0c.649,7.197,6.768,12.548,13.961,12.094l7.002-.652c5.449-.68,9.422-5.658,8.745-11.302h0l-.191-.198Z"/>
    <path class="cls-7" d="M211.837,582.478l-1.03-7.592c-.486-5.446-5.461-9.612-10.907-9.127l-.582-.01-7.02,1.623c-7.02,1.623-11.411,8.342-10.176,15.355h0c.649,7.197,6.768,12.548,13.961,12.094l7.002-.652c5.449-.68,9.422-5.658,8.745-11.302h0l.007-.388Z"/>
    <path class="cls-6" d="M214.96,581.563l-1.041-7.009c-.683-5.255-5.471-9.03-10.726-8.347h0l-.388-.007-6.822,1.432c-6.628,1.436-11.203,7.569-10.353,14.38h0c.85,6.812,6.979,11.581,13.788,10.925l7.002-.652c5.054-.299,9.02-4.889,8.527-9.947l.014-.776h0Z"/>
    <path class="cls-12" d="M203.969,566.221l-8.188,1.796c-6.628,1.436-11.203,7.569-10.353,14.38h0c.85,6.812,6.979,11.581,13.788,10.925l8.361-.628"/>
    <polygon class="cls-10" points="215.261 614.572 199.418 539.642 255.466 527.901 271.309 602.831 215.261 614.572"/>
    <polygon class="cls-2" points="218.919 613.82 203.076 538.89 259.124 527.149 274.967 602.079 218.919 613.82"/>
    <polygon class="cls-1" points="220.841 613.342 204.998 538.412 261.046 526.671 276.889 601.601 220.841 613.342"/>
    <path class="cls-8" d="M330.309,557.233h0c1.674,5.432,7.326,8.368,12.582,6.776l6.664-2.248c6.758-2.506,10.176-9.882,7.846-16.722h0c-1.72-6.91-8.462-11.266-15.536-9.898l-6.816,1.462-.528,.246c-5.174,1.768-8.028,7.596-6.26,12.77l2.142,7.356-.094,.258Z"/>
    <path class="cls-7" d="M329.781,557.479h0c1.674,5.432,7.326,8.368,12.582,6.776l6.664-2.248c6.758-2.506,10.176-9.882,7.846-16.722h0c-1.72-6.91-8.462-11.266-15.536-9.898l-7.074,1.368-.528,.246c-5.174,1.768-8.028,7.596-6.26,12.77l2.142,7.356,.164,.352Z"/>
    <path class="cls-6" d="M326.391,557.559l.328,.704c1.604,4.822,7.092,7.406,11.832,5.626l6.664-2.248c6.488-2.166,10.152-9.014,8.162-15.584h0c-1.99-6.57-8.662-10.316-15.302-8.936l-6.816,1.462-.352,.164h0c-5.08,1.51-7.922,6.904-6.412,11.984l1.896,6.828h0Z"/>
    <path class="cls-12" d="M337.658,564.733l7.896-2.822c6.488-2.166,10.152-9.014,8.162-15.584h0c-1.99-6.57-8.662-10.316-15.302-8.936l-8.212,1.684"/>
    <polygon class="cls-10" points="283.537 599.879 267.582 524.974 323.567 512.939 339.522 587.845 283.537 599.879"/>
    <polygon class="cls-2" points="279.889 600.678 263.933 525.772 319.918 513.737 335.874 588.643 279.889 600.678"/>
    <polygon class="cls-1" points="277.939 601.022 261.983 526.116 317.968 514.081 333.924 588.987 277.939 601.022"/>
    <path class="cls-8" d="M227.543,658.024l-1.03-7.592c-.486-5.446-5.461-9.612-10.907-9.127l-.582-.01-6.822,1.432c-7.02,1.623-11.411,8.342-10.176,15.355h0c.649,7.197,6.768,12.548,13.961,12.094l7.002-.652c5.449-.68,9.422-5.658,8.745-11.302h0l-.191-.198Z"/>
    <path class="cls-7" d="M228.323,657.844l-1.03-7.592c-.486-5.446-5.461-9.612-10.907-9.127l-.582-.01-7.02,1.623c-7.02,1.623-11.411,8.342-10.176,15.355h0c.649,7.197,6.768,12.548,13.961,12.094l7.002-.652c5.449-.68,9.422-5.658,8.745-11.302h0l.007-.388Z"/>
    <path class="cls-6" d="M231.446,656.929l-1.041-7.009c-.683-5.255-5.471-9.03-10.726-8.347h0l-.388-.007-6.822,1.432c-6.628,1.436-11.203,7.569-10.353,14.38h0c.85,6.812,6.979,11.581,13.788,10.925l7.002-.652c5.054-.299,9.02-4.889,8.527-9.947l.014-.776h0Z"/>
    <path class="cls-12" d="M220.456,641.586l-8.188,1.796c-6.628,1.436-11.203,7.569-10.353,14.38h0c.85,6.812,6.979,11.581,13.788,10.925l8.361-.628"/>
    <polygon class="cls-10" points="231.747 689.937 215.904 615.008 271.952 603.267 287.795 678.196 231.747 689.937"/>
    <polygon class="cls-2" points="235.406 689.185 219.562 614.256 275.61 602.515 291.453 677.444 235.406 689.185"/>
    <polygon class="cls-1" points="237.327 688.708 221.484 613.778 277.532 602.037 293.375 676.967 237.327 688.708"/>
    <path class="cls-8" d="M346.795,632.598h0c1.674,5.432,7.326,8.368,12.582,6.776l6.664-2.248c6.758-2.506,10.176-9.882,7.846-16.722h0c-1.72-6.91-8.462-11.266-15.536-9.898l-6.816,1.462-.528,.246c-5.174,1.768-8.028,7.596-6.26,12.77l2.142,7.356-.094,.258Z"/>
    <path class="cls-7" d="M346.267,632.844h0c1.674,5.432,7.326,8.368,12.582,6.776l6.664-2.248c6.758-2.506,10.176-9.882,7.846-16.722h0c-1.72-6.91-8.462-11.266-15.536-9.898l-7.074,1.368-.528,.246c-5.174,1.768-8.028,7.596-6.26,12.77l2.142,7.356,.164,.352Z"/>
    <path class="cls-6" d="M342.877,632.924l.328,.704c1.604,4.822,7.092,7.406,11.832,5.626l6.664-2.248c6.488-2.166,10.152-9.014,8.162-15.584h0c-1.99-6.57-8.662-10.316-15.302-8.936l-6.816,1.462-.352,.164h0c-5.08,1.51-7.922,6.904-6.412,11.984l1.896,6.828h0Z"/>
    <path class="cls-12" d="M354.145,640.098l7.896-2.822c6.488-2.166,10.152-9.014,8.162-15.584h0c-1.99-6.57-8.662-10.316-15.302-8.936l-8.212,1.684"/>
    <polygon class="cls-10" points="300.023 675.245 284.068 600.339 340.053 588.304 356.009 663.21 300.023 675.245"/>
    <polygon class="cls-2" points="296.375 676.044 280.419 601.138 336.405 589.103 352.36 664.009 296.375 676.044"/>
    <polygon class="cls-1" points="294.425 676.388 278.469 601.482 334.455 589.447 350.41 664.353 294.425 676.388"/>
    <g>
      <rect class="cls-10" x="1105.201" y="721.115" width="80.579" height="35.144" transform="translate(-11.169 17.614) rotate(-.877)"/>
      <rect class="cls-2" x="1105.276" y="724.658" width="80.579" height="35.144" transform="translate(-11.223 17.615) rotate(-.877)"/>
      <rect class="cls-1" x="1105.163" y="726.799" width="80.579" height="35.144" transform="translate(-11.256 17.614) rotate(-.877)"/>
      <path class="cls-8" d="M1143.104,715.092l7.661-.068c5.464,.202,10.222-4.21,10.425-9.673l.083-.576-.564-6.948c-.728-7.168-6.842-12.369-13.954-12.025h0c-7.221-.261-13.299,5.137-13.752,12.331l-.233,7.029c-.01,5.492,4.429,10.058,10.113,10.096h0l.22-.164Z"/>
      <path class="cls-7" d="M1143.185,715.888l7.661-.068c5.464,.202,10.222-4.21,10.425-9.673l.083-.576-.728-7.168c-.728-7.168-6.842-12.369-13.954-12.025h0c-7.221-.261-13.299,5.137-13.752,12.331l-.233,7.029c-.01,5.492,4.429,10.058,10.113,10.096h0l.384,.056Z"/>
      <path class="cls-6" d="M1143.701,719.102l7.085-.152c5.3-.018,9.646-4.293,9.628-9.592h0l.056-.384-.564-6.948c-.591-6.756-6.101-12.066-12.965-12.078h0c-6.865-.013-12.367,5.469-12.572,12.305l-.233,7.029c-.339,5.052,3.717,9.562,8.796,9.709l.769,.111h0Z"/>
      <path class="cls-12" d="M1160.303,710.126l-.753-8.349c-.591-6.756-6.101-12.066-12.965-12.078h0c-6.865-.013-12.367,5.469-12.572,12.305l-.428,8.374"/>
      <rect class="cls-10" x="1106.057" y="772.05" width="80.577" height="35.143" transform="translate(-17.087 25.4) rotate(-1.26)"/>
      <rect class="cls-2" x="1106.009" y="768.315" width="80.577" height="35.143" transform="translate(-17.005 25.398) rotate(-1.26)"/>
      <rect class="cls-1" x="1105.931" y="766.146" width="80.577" height="35.143" transform="translate(-16.957 25.396) rotate(-1.26)"/>
      <path class="cls-8" d="M1148.907,813.239l-7.469,.096c-5.464-.202-10.002,4.045-10.205,9.509l-.028,.192-.083,.576,.564,6.948c.756,6.976,6.869,12.177,13.982,11.833h0c7.029,.233,13.107-5.165,13.752-12.331l.233-7.029c.01-5.492-4.429-10.058-10.113-10.096h0l-.632,.301Z"/>
      <path class="cls-7" d="M1149.018,812.47l-7.469,.096c-5.464-.202-10.002,4.045-10.205,9.509l-.028,.192-.083,.576,.564,6.948c.756,6.976,6.869,12.177,13.982,11.833h0c7.029,.233,13.107-5.165,13.752-12.331l.233-7.029c.01-5.492-4.429-10.058-10.113-10.096h0c-.44,.329-.632,.301-.632,.301Z"/>
      <path class="cls-6" d="M1148.53,809.065l-7.085,.152c-5.3,.018-9.454,4.321-9.408,9.428l-.056,.384h0l-.056,.384,.564,6.948c.564,6.948,6.293,12.093,13.185,11.914h0c6.865,.013,12.367-5.469,12.572-12.305l.233-7.029c.175-5.272-3.881-9.782-9.153-9.957l-.192-.028h0l-.604,.109Z"/>
      <path class="cls-12" d="M1131.901,818.232l.753,8.349c.564,6.948,6.293,12.093,13.185,11.914h0c6.865,.013,12.367-5.469,12.572-12.305l.428-8.374"/>
      <rect class="cls-10" x="1021.005" y="724.034" width="80.579" height="35.144" transform="translate(-11.223 16.326) rotate(-.877)"/>
      <rect class="cls-2" x="1021.053" y="727.768" width="80.579" height="35.144" transform="translate(-11.28 16.327) rotate(-.877)"/>
      <rect class="cls-1" x="1021.16" y="729.745" width="80.579" height="35.144" transform="translate(-11.31 16.329) rotate(-.877)"/>
      <path class="cls-8" d="M1059.103,718.038l7.661-.068c5.464,.202,10.222-4.21,10.425-9.673l.083-.576-.564-6.948c-.728-7.168-6.842-12.369-13.954-12.025h0c-7.221-.261-13.299,5.137-13.752,12.331l-.233,7.029c-.01,5.492,4.429,10.058,10.113,10.096h0l.22-.164Z"/>
      <path class="cls-7" d="M1058.992,718.806l7.661-.068c5.464,.202,10.222-4.21,10.425-9.673l.083-.576-.564-6.948c-.728-7.168-6.842-12.369-13.954-12.025h0c-7.221-.261-13.299,5.137-13.752,12.331l-.233,7.029c-.01,5.492,4.429,10.058,10.113,10.096h0s.028-.192,.22-.164Z"/>
      <path class="cls-6" d="M1059.508,722.02l7.085-.152c5.3-.018,9.646-4.293,9.628-9.592h0l.056-.384-.564-6.948c-.591-6.756-6.101-12.066-12.965-12.078h0c-6.865-.013-12.367,5.469-12.572,12.305l-.233,7.029c-.339,5.052,3.717,9.562,8.796,9.709l.769,.111h0Z"/>
      <path class="cls-12" d="M1076.109,713.044l-.753-8.349c-.591-6.756-6.101-12.066-12.965-12.078h0c-6.865-.013-12.367,5.469-12.572,12.305l-.428,8.374"/>
      <rect class="cls-10" x="1022.056" y="774.996" width="80.577" height="35.143" transform="translate(-17.172 23.553) rotate(-1.26)"/>
      <rect class="cls-2" x="1022.008" y="771.261" width="80.577" height="35.143" transform="translate(-17.09 23.551) rotate(-1.26)"/>
      <rect class="cls-1" x="1021.93" y="769.092" width="80.577" height="35.143" transform="translate(-17.042 23.549) rotate(-1.26)"/>
      <path class="cls-8" d="M1064.906,816.185l-7.469,.096c-5.464-.202-10.002,4.045-10.205,9.509l-.028,.192-.083,.576,.564,6.948c.756,6.976,6.869,12.177,13.982,11.833h0c7.029,.233,13.107-5.165,13.752-12.331l.233-7.029c.01-5.492-4.429-10.058-10.113-10.096h0l-.632,.301Z"/>
      <path class="cls-7" d="M1064.825,815.389l-7.469,.096c-5.464-.202-10.002,4.045-10.205,9.509l-.028,.192-.083,.576,.564,6.948c.756,6.976,6.869,12.177,13.982,11.833h0c7.029,.233,13.107-5.165,13.752-12.331l.205-6.837c.01-5.492-4.429-10.058-10.113-10.096h0c-.22,.164-.412,.137-.604,.109Z"/>
      <path class="cls-6" d="M1064.337,811.983l-7.085,.152c-5.3,.018-9.454,4.321-9.408,9.428l-.056,.384h0l-.056,.384,.564,6.948c.564,6.948,6.293,12.093,13.185,11.914h0c6.865,.013,12.367-5.469,12.572-12.305l.233-7.029c.175-5.272-3.881-9.782-9.153-9.957l-.192-.028h0l-.604,.109Z"/>
      <path class="cls-12" d="M1047.9,821.178l.753,8.349c.564,6.948,6.293,12.093,13.185,11.914h0c6.865,.013,12.367-5.469,12.572-12.305l.428-8.374"/>
    </g>
    <path class="cls-8" d="M1249.179,672.811l.063-7.661c.296-5.46-4.034-10.293-9.493-10.589l-.575-.093-6.957,.445c-7.179,.605-12.484,6.629-12.263,13.746h0c-.384,7.216,4.909,13.386,12.093,13.961l7.024,.353c5.491,.104,10.132-4.257,10.268-9.939h0l-.161-.223Z"/>
    <path class="cls-7" d="M1249.977,672.744l.063-7.661c.296-5.46-4.034-10.293-9.493-10.589l-.575-.093-7.179,.605c-7.179,.605-12.484,6.629-12.263,13.746h0c-.384,7.216,4.909,13.386,12.093,13.961l7.024,.353c5.491,.104,10.132-4.257,10.268-9.939h0l.062-.383Z"/>
    <path class="cls-6" d="M1253.199,672.284l-.03-7.086c.073-5.299-4.127-9.718-9.426-9.791h0l-.383-.062-6.957,.445c-6.765,.476-12.168,5.893-12.299,12.757h0c-.13,6.863,5.256,12.458,12.088,12.78l7.024,.353c5.045,.425,9.625-3.552,9.858-8.628l.124-.767h0Z"/>
    <path class="cls-12" d="M1244.509,655.531l-8.36,.61c-6.765,.476-12.168,5.893-12.299,12.757h0c-.13,6.863,5.256,12.458,12.088,12.78l8.365,.571"/>
    <polygon class="cls-10" points="1248.788 704.998 1243.796 628.574 1300.945 624.948 1305.938 701.372 1248.788 704.998"/>
    <polygon class="cls-2" points="1252.516 704.775 1247.524 628.352 1304.673 624.726 1309.666 701.149 1252.516 704.775"/>
    <polygon class="cls-1" points="1254.487 704.577 1249.494 628.153 1306.643 624.527 1311.636 700.951 1254.487 704.577"/>
    <path class="cls-8" d="M1370.839,664.656h0c.882,5.615,6.057,9.327,11.486,8.501l6.916-1.274c7.046-1.516,11.481-8.329,10.151-15.431h0c-.717-7.085-6.768-12.358-13.965-12.013l-6.955,.475-.558,.168c-5.373,1.012-9.029,6.373-8.017,11.746l1.071,7.586-.13,.242Z"/>
    <path class="cls-7" d="M1370.281,664.824h0c.882,5.615,6.057,9.327,11.486,8.501l6.916-1.274c7.046-1.516,11.481-8.329,10.151-15.431h0c-.717-7.085-6.768-12.358-13.965-12.013l-7.197,.345-.558,.168c-5.373,1.012-9.029,6.373-8.017,11.746l1.071,7.586,.112,.372Z"/>
    <path class="cls-6" d="M1366.914,664.42l.224,.744c.9,5.001,5.963,8.342,10.908,7.256l6.916-1.274c6.73-1.218,11.334-7.473,10.301-14.26h0c-1.032-6.787-7.102-11.446-13.87-11.027l-6.955,.475-.372,.112h0c-5.243,.77-8.826,5.703-8.056,10.947l.903,7.028h0Z"/>
    <path class="cls-12" d="M1377.043,673.128l8.218-1.667c6.73-1.218,11.334-7.473,10.301-14.26h0c-1.032-6.787-7.102-11.446-13.87-11.027l-8.368,.495"/>
    <polygon class="cls-10" points="1318.462 700.195 1313.355 623.779 1370.484 619.853 1375.592 696.269 1318.462 700.195"/>
    <polygon class="cls-2" points="1314.737 700.465 1309.63 624.049 1366.759 620.123 1371.866 696.539 1314.737 700.465"/>
    <polygon class="cls-1" points="1312.758 700.527 1307.65 624.112 1364.78 620.186 1369.887 696.602 1312.758 700.527"/>
    <path class="cls-8" d="M1254.772,750.11l.063-7.661c.296-5.46-4.034-10.293-9.493-10.589l-.575-.093-6.957,.445c-7.179,.605-12.484,6.629-12.263,13.746h0c-.384,7.216,4.909,13.386,12.093,13.961l7.024,.353c5.491,.104,10.132-4.257,10.268-9.939h0l-.161-.223Z"/>
    <path class="cls-7" d="M1255.57,750.042l.063-7.661c.296-5.46-4.034-10.293-9.493-10.589l-.575-.093-7.179,.605c-7.179,.605-12.484,6.629-12.263,13.746h0c-.384,7.216,4.909,13.386,12.093,13.961l7.024,.353c5.491,.104,10.132-4.257,10.268-9.939h0l.062-.383Z"/>
    <path class="cls-6" d="M1258.792,749.582l-.03-7.086c.073-5.299-4.127-9.718-9.426-9.791h0l-.383-.062-6.957,.445c-6.765,.476-12.168,5.893-12.299,12.757h0c-.13,6.863,5.256,12.458,12.088,12.78l7.024,.353c5.045,.425,9.625-3.552,9.858-8.628l.124-.767h0Z"/>
    <path class="cls-12" d="M1250.102,732.829l-8.36,.61c-6.765,.476-12.168,5.893-12.299,12.757h0c-.13,6.863,5.256,12.458,12.088,12.78l8.365,.571"/>
    <polygon class="cls-10" points="1254.381 782.296 1249.388 705.873 1306.537 702.247 1311.53 778.67 1254.381 782.296"/>
    <polygon class="cls-2" points="1258.109 782.074 1253.116 705.65 1310.266 702.024 1315.258 778.447 1258.109 782.074"/>
    <polygon class="cls-1" points="1260.079 781.875 1255.086 705.452 1312.236 701.825 1317.228 778.249 1260.079 781.875"/>
    <path class="cls-8" d="M1376.431,741.954h0c.882,5.615,6.057,9.327,11.486,8.501l6.916-1.274c7.046-1.516,11.481-8.329,10.151-15.431h0c-.717-7.085-6.768-12.358-13.965-12.013l-6.955,.475-.558,.168c-5.373,1.012-9.029,6.373-8.017,11.746l1.071,7.586-.13,.242Z"/>
    <path class="cls-7" d="M1375.873,742.122h0c.882,5.615,6.057,9.327,11.486,8.501l6.916-1.274c7.046-1.516,11.481-8.329,10.151-15.431h0c-.717-7.085-6.768-12.358-13.965-12.013l-7.197,.345-.558,.168c-5.373,1.012-9.029,6.373-8.017,11.746l1.071,7.586,.112,.372Z"/>
    <path class="cls-6" d="M1372.507,741.718l.224,.744c.9,5.001,5.963,8.342,10.908,7.256l6.916-1.274c6.73-1.218,11.334-7.473,10.301-14.26h0c-1.032-6.787-7.102-11.446-13.87-11.027l-6.955,.475-.372,.112h0c-5.243,.77-8.826,5.703-8.056,10.947l.903,7.028h0Z"/>
    <path class="cls-12" d="M1382.636,750.426l8.218-1.667c6.73-1.218,11.334-7.473,10.301-14.26h0c-1.032-6.787-7.102-11.446-13.87-11.027l-8.368,.495"/>
    <polygon class="cls-10" points="1324.054 777.493 1318.947 701.077 1376.077 697.152 1381.184 773.567 1324.054 777.493"/>
    <polygon class="cls-2" points="1320.329 777.763 1315.222 701.347 1372.352 697.422 1377.459 773.837 1320.329 777.763"/>
    <polygon class="cls-1" points="1318.35 777.826 1313.243 701.41 1370.373 697.484 1375.48 773.9 1318.35 777.826"/>
    <path class="cls-8" d="M1367.783,884.579l.246-7.657c.426-5.451-3.788-10.386-9.239-10.812l-.573-.107-6.965,.279c-7.192,.434-12.639,6.329-12.587,13.45h0c-.556,7.204,4.589,13.499,11.757,14.246l7.014,.52c5.487,.235,10.231-4.014,10.502-9.692h0l-.155-.227Z"/>
    <path class="cls-7" d="M1368.582,884.53l.246-7.657c.426-5.451-3.788-10.386-9.239-10.812l-.573-.107-7.192,.434c-7.192,.434-12.639,6.329-12.587,13.45h0c-.556,7.204,4.589,13.499,11.757,14.246l7.014,.52c5.487,.235,10.231-4.014,10.502-9.692h0l.071-.382Z"/>
    <path class="cls-6" d="M1371.814,884.147l.139-7.085c.199-5.296-3.894-9.814-9.19-10.013h0l-.382-.071-6.965,.279c-6.774,.314-12.305,5.602-12.599,12.46h0c-.294,6.858,4.958,12.58,11.78,13.065l7.014,.52c5.034,.545,9.707-3.322,10.061-8.391l.143-.763h0Z"/>
    <path class="cls-12" d="M1363.526,867.191l-8.373,.411c-6.774,.314-12.305,5.602-12.599,12.46h0c-.294,6.858,4.958,12.58,11.78,13.065l8.35,.77"/>
    <polygon class="cls-10" points="1366.625 916.747 1363.454 840.226 1420.674 837.962 1423.845 914.483 1366.625 916.747"/>
    <polygon class="cls-2" points="1370.358 916.613 1367.187 840.092 1424.406 837.828 1427.577 914.349 1370.358 916.613"/>
    <polygon class="cls-1" points="1372.332 916.461 1369.161 839.941 1426.381 837.677 1429.552 914.198 1372.332 916.461"/>
    <path class="cls-8" d="M1489.602,879.323h0c.748,5.635,5.833,9.469,11.281,8.773l6.945-1.109c7.08-1.348,11.677-8.053,10.516-15.185h0c-.548-7.1-6.472-12.515-13.675-12.342l-6.964,.309-.562,.155c-5.396,.884-9.179,6.156-8.295,11.552l.89,7.61-.136,.239Z"/>
    <path class="cls-7" d="M1489.04,879.478h0c.748,5.635,5.833,9.469,11.281,8.773l6.945-1.109c7.08-1.348,11.677-8.053,10.516-15.185h0c-.548-7.1-6.472-12.515-13.675-12.342l-7.203,.173-.562,.155c-5.396,.884-9.179,6.156-8.295,11.552l.89,7.61,.103,.374Z"/>
    <path class="cls-6" d="M1485.684,878.994l.206,.749c.78,5.021,5.762,8.481,10.732,7.514l6.945-1.109c6.758-1.058,11.509-7.201,10.638-14.011h0c-.87-6.809-6.827-11.612-13.604-11.354l-6.964,.309-.374,.103h0c-5.26,.645-8.959,5.491-8.314,10.752l.735,7.048h0Z"/>
    <path class="cls-12" d="M1495.603,887.94l8.255-1.471c6.758-1.058,11.509-7.201,10.638-14.011h0c-.87-6.809-6.827-11.612-13.604-11.354l-8.377,.296"/>
    <polygon class="cls-10" points="1436.394 913.605 1433.108 837.089 1490.315 834.525 1493.6 911.041 1436.394 913.605"/>
    <polygon class="cls-2" points="1432.663 913.786 1429.378 837.27 1486.584 834.706 1489.87 911.222 1432.663 913.786"/>
    <polygon class="cls-1" points="1430.683 913.801 1427.397 837.285 1484.604 834.721 1487.89 911.237 1430.683 913.801"/>
    <path class="cls-8" d="M1589.156,892.616l-7.469,.096c-5.464-.202-10.002,4.045-10.205,9.509l-.028,.192-.083,.576,.564,6.948c.756,6.976,6.869,12.177,13.982,11.833h0c7.029,.233,13.107-5.165,13.752-12.331l.233-7.029c.01-5.492-4.429-10.058-10.113-10.096h0l-.632,.301Z"/>
    <path class="cls-7" d="M1589.268,891.847l-7.469,.096c-5.464-.202-10.002,4.045-10.205,9.509l-.028,.192-.083,.576,.564,6.948c.756,6.976,6.869,12.177,13.982,11.833h0c7.029,.233,13.107-5.165,13.752-12.331l.233-7.029c.01-5.492-4.429-10.058-10.113-10.096h0c-.44,.329-.632,.301-.632,.301Z"/>
    <path class="cls-6" d="M1588.78,888.441l-7.085,.152c-5.3,.018-9.454,4.321-9.408,9.428l-.056,.384h0l-.056,.384,.564,6.948c.564,6.948,6.293,12.093,13.185,11.914h0c6.865,.013,12.367-5.469,12.572-12.305l.233-7.029c.175-5.272-3.881-9.782-9.153-9.957l-.192-.028h0l-.604,.109Z"/>
    <path class="cls-12" d="M1572.15,897.609l.753,8.349c.564,6.948,6.293,12.093,13.185,11.914h0c6.865,.013,12.367-5.469,12.572-12.305l.428-8.374"/>
    <path class="cls-8" d="M1581.691,857.513l7.468,.138c5.455,.374,10.124-3.73,10.498-9.184l.034-.191,.101-.574-.346-6.962c-.537-6.996-6.484-12.386-13.604-12.266h0c-7.018-.453-13.263,4.752-14.132,11.893l-.453,7.018c-.182,5.489,4.112,10.192,9.792,10.408h0l.641-.281Z"/>
    <path class="cls-7" d="M1581.556,858.278l7.468,.138c5.455,.374,10.124-3.73,10.498-9.184l.034-.191,.101-.574-.346-6.962c-.537-6.996-6.484-12.386-13.604-12.266h0c-7.018-.453-13.263,4.752-14.132,11.893l-.453,7.018c-.182,5.489,4.112,10.192,9.792,10.408h0c.45-.315,.641-.281,.641-.281Z"/>
    <path class="cls-6" d="M1581.937,861.697l7.086,.071c5.297,.149,9.585-4.022,9.699-9.129l.068-.382h0l.068-.382-.346-6.962c-.346-6.962-5.911-12.285-12.805-12.322h0c-6.861-.228-12.532,5.078-12.951,11.905l-.453,7.018c-.34,5.264,3.572,9.899,8.836,10.239l.191,.034h0l.607-.09Z"/>
    <path class="cls-12" d="M1598.845,853.056l-.491-8.368c-.346-6.962-5.911-12.285-12.805-12.322h0c-6.861-.228-12.532,5.078-12.951,11.905l-.69,8.357"/>
    <polygon class="cls-10" points="1551.662 863.455 1619.202 861.787 1619.975 896.922 1552.435 898.59 1551.662 863.455"/>
    <polygon class="cls-2" points="1551.614 859.721 1619.154 858.053 1619.927 893.187 1552.387 894.856 1551.614 859.721"/>
    <polygon class="cls-1" points="1551.536 857.552 1619.076 855.883 1619.849 891.018 1552.309 892.686 1551.536 857.552"/>
    <rect class="cls-10" x="2012.337" y="954.604" width="80.579" height="35.144" transform="translate(-14.635 31.521) rotate(-.877)"/>
    <rect class="cls-2" x="2012.385" y="958.338" width="80.579" height="35.144" transform="translate(-14.692 31.522) rotate(-.877)"/>
    <rect class="cls-1" x="2012.491" y="960.316" width="80.579" height="35.144" transform="translate(-14.722 31.524) rotate(-.877)"/>
    <path class="cls-8" d="M2050.435,948.608l7.661-.068c5.464,.202,10.222-4.21,10.425-9.673l.083-.576-.564-6.948c-.728-7.168-6.842-12.369-13.954-12.025h0c-7.221-.261-13.299,5.137-13.752,12.331l-.233,7.029c-.01,5.492,4.429,10.058,10.113,10.096h0l.22-.164Z"/>
    <path class="cls-7" d="M2050.323,949.376l7.661-.068c5.464,.202,10.222-4.21,10.425-9.673l.083-.576-.564-6.948c-.728-7.168-6.842-12.369-13.954-12.025h0c-7.221-.261-13.299,5.137-13.752,12.331l-.233,7.029c-.01,5.492,4.429,10.058,10.113,10.096h0s.028-.192,.22-.164Z"/>
    <path class="cls-6" d="M2050.839,952.59l7.085-.152c5.3-.018,9.646-4.293,9.628-9.592h0l.056-.384-.564-6.948c-.591-6.756-6.101-12.066-12.965-12.078h0c-6.865-.013-12.367,5.469-12.572,12.305l-.233,7.029c-.339,5.052,3.717,9.562,8.796,9.709l.769,.111h0Z"/>
    <path class="cls-12" d="M2067.441,943.615l-.753-8.349c-.591-6.756-6.101-12.066-12.965-12.078h0c-6.865-.013-12.367,5.469-12.572,12.305l-.428,8.374"/>
  </g>
  <g id="bookable">
    <polygon id="area-16.16.1-status" class="cls-9" points="106.479 419.489 374.216 430.26 428.926 743.064 168.264 743.064 106.479 419.489"/>
    <polygon id="area-16.16.2-status" class="cls-9" points="963.598 634.593 983.811 928.717 1200.877 920.382 1185.023 618.251 963.598 634.593"/>
    <polygon id="area-16.16.A-status" class="cls-9" points="1371.5 927.894 1357.382 604.624 1185.023 618.251 1200.877 938.452 1371.5 927.894"/>
    <polygon id="area-16.16.B-status" class="cls-9" points="1548.171 916.994 1539.864 729.131 1401.501 604.624 1357.382 604.624 1371.5 927.894 1548.171 916.994"/>
  </g>
  <g id="Room_Name" data-name="Room Name">
    <g>
      <path class="cls-1" d="M216.574,571.751v2.931h-4.953v13.623h-3.481v-13.623h-4.975v-2.931h13.409Z"/>
      <path class="cls-1" d="M227.12,584.711c-.083,.726-.46,1.464-1.134,2.212-1.048,1.19-2.516,1.786-4.402,1.786-1.557,0-2.931-.501-4.122-1.505s-1.786-2.635-1.786-4.896c0-2.119,.537-3.744,1.612-4.874,1.074-1.13,2.469-1.696,4.183-1.696,1.018,0,1.936,.191,2.751,.573s1.49,.984,2.021,1.808c.479,.726,.79,1.568,.932,2.527,.083,.562,.116,1.37,.101,2.426h-8.378c.045,1.228,.431,2.089,1.157,2.583,.442,.307,.973,.46,1.595,.46,.659,0,1.194-.187,1.606-.562,.225-.202,.423-.483,.595-.842h3.268Zm-3.167-3.751c-.052-.846-.309-1.488-.77-1.926-.46-.438-1.031-.657-1.712-.657-.741,0-1.316,.232-1.724,.696-.408,.464-.664,1.093-.769,1.887h4.975Z"/>
      <path class="cls-1" d="M229.894,577.388c.846-1.078,2.298-1.617,4.357-1.617,1.34,0,2.531,.266,3.571,.797s1.561,1.535,1.561,3.01v5.615c0,.389,.007,.861,.022,1.415,.022,.419,.086,.704,.191,.854s.262,.273,.472,.371v.472h-3.481c-.097-.247-.165-.479-.202-.696s-.067-.464-.09-.741c-.442,.479-.951,.887-1.527,1.224-.689,.397-1.467,.595-2.336,.595-1.108,0-2.023-.316-2.746-.949-.722-.632-1.083-1.529-1.083-2.689,0-1.505,.58-2.594,1.741-3.268,.636-.367,1.572-.629,2.808-.786l1.089-.135c.591-.075,1.015-.168,1.269-.281,.457-.195,.685-.498,.685-.91,0-.501-.174-.848-.522-1.039-.349-.191-.859-.287-1.533-.287-.756,0-1.292,.187-1.606,.562-.225,.277-.375,.651-.449,1.123h-3.088c.067-1.071,.367-1.95,.898-2.639Zm2.381,8.603c.299,.247,.667,.371,1.101,.371,.689,0,1.323-.202,1.903-.606,.581-.404,.882-1.142,.904-2.212v-1.19c-.202,.127-.406,.23-.612,.309-.206,.079-.488,.152-.848,.219l-.719,.135c-.674,.12-1.157,.266-1.449,.438-.494,.292-.741,.745-.741,1.359,0,.546,.153,.939,.46,1.179Z"/>
      <path class="cls-1" d="M249.098,579.432c-.27-.591-.797-.887-1.583-.887-.914,0-1.527,.296-1.842,.887-.172,.337-.258,.838-.258,1.505v7.367h-3.246v-12.219h3.111v1.786c.397-.636,.771-1.089,1.123-1.359,.622-.479,1.426-.719,2.415-.719,.936,0,1.692,.206,2.269,.618,.464,.382,.816,.872,1.056,1.471,.419-.719,.939-1.247,1.561-1.583,.659-.337,1.393-.505,2.201-.505,.539,0,1.071,.105,1.595,.314s1,.577,1.426,1.101c.344,.427,.577,.951,.696,1.572,.075,.412,.112,1.015,.112,1.808l-.022,7.715h-3.279v-7.794c0-.464-.075-.846-.225-1.146-.285-.569-.809-.854-1.572-.854-.883,0-1.494,.367-1.831,1.101-.172,.389-.258,.857-.258,1.404v7.289h-3.223v-7.289c0-.726-.075-1.254-.225-1.583Z"/>
      <path class="cls-1" d="M275.22,579.017c-1.288,0-2.152,.419-2.594,1.258-.247,.472-.371,1.198-.371,2.179v5.851h-3.223v-12.241h3.055v2.134c.494-.816,.925-1.374,1.292-1.673,.599-.501,1.377-.752,2.336-.752,.06,0,.11,.002,.152,.006,.041,.003,.133,.009,.275,.017v3.279c-.202-.022-.382-.038-.539-.045s-.285-.011-.382-.011Z"/>
      <path class="cls-1" d="M288.225,577.613c1.033,1.295,1.55,2.826,1.55,4.593,0,1.797-.517,3.333-1.55,4.61-1.033,1.277-2.602,1.915-4.706,1.915s-3.672-.638-4.706-1.915c-1.033-1.276-1.55-2.813-1.55-4.61,0-1.767,.517-3.298,1.55-4.593s2.602-1.943,4.706-1.943,3.672,.647,4.706,1.943Zm-4.717,.764c-.936,0-1.656,.331-2.162,.994-.505,.662-.758,1.607-.758,2.835s.253,2.175,.758,2.841c.506,.667,1.226,1,2.162,1s1.655-.333,2.156-1,.752-1.613,.752-2.841-.251-2.173-.752-2.835c-.501-.663-1.22-.994-2.156-.994Z"/>
      <path class="cls-1" d="M302.274,577.613c1.033,1.295,1.55,2.826,1.55,4.593,0,1.797-.517,3.333-1.55,4.61-1.033,1.277-2.602,1.915-4.706,1.915s-3.672-.638-4.706-1.915c-1.033-1.276-1.55-2.813-1.55-4.61,0-1.767,.517-3.298,1.55-4.593s2.602-1.943,4.706-1.943,3.672,.647,4.706,1.943Zm-4.717,.764c-.936,0-1.656,.331-2.162,.994-.505,.662-.758,1.607-.758,2.835s.253,2.175,.758,2.841c.506,.667,1.226,1,2.162,1s1.655-.333,2.156-1,.752-1.613,.752-2.841-.251-2.173-.752-2.835c-.501-.663-1.22-.994-2.156-.994Z"/>
      <path class="cls-1" d="M312.988,579.432c-.27-.591-.797-.887-1.583-.887-.914,0-1.527,.296-1.842,.887-.172,.337-.258,.838-.258,1.505v7.367h-3.246v-12.219h3.111v1.786c.397-.636,.771-1.089,1.123-1.359,.622-.479,1.426-.719,2.415-.719,.936,0,1.692,.206,2.269,.618,.464,.382,.816,.872,1.056,1.471,.419-.719,.939-1.247,1.561-1.583,.659-.337,1.393-.505,2.201-.505,.539,0,1.071,.105,1.595,.314s1,.577,1.426,1.101c.344,.427,.577,.951,.696,1.572,.075,.412,.112,1.015,.112,1.808l-.022,7.715h-3.279v-7.794c0-.464-.075-.846-.225-1.146-.285-.569-.809-.854-1.572-.854-.883,0-1.494,.367-1.831,1.101-.172,.389-.258,.857-.258,1.404v7.289h-3.223v-7.289c0-.726-.075-1.254-.225-1.583Z"/>
      <path class="cls-1" d="M250.254,611.304h-3.279v-11.23h-3.83v-2.179c1.011-.045,1.718-.112,2.123-.202,.644-.142,1.168-.427,1.572-.854,.277-.292,.487-.681,.629-1.168,.083-.292,.124-.509,.124-.651h2.662v16.284Z"/>
      <path class="cls-1" d="M261.373,600.737c1.445,0,2.63,.49,3.555,1.471,.924,.981,1.387,2.235,1.387,3.762s-.453,2.86-1.359,4.021-2.313,1.741-4.223,1.741c-2.051,0-3.564-.857-4.537-2.572-.756-1.34-1.134-3.07-1.134-5.188,0-1.243,.052-2.253,.157-3.032,.187-1.385,.55-2.538,1.089-3.459,.464-.786,1.073-1.419,1.825-1.898,.753-.479,1.653-.719,2.701-.719,1.512,0,2.718,.388,3.616,1.162,.898,.775,1.404,1.807,1.516,3.094h-3.189c0-.262-.101-.55-.303-.865-.344-.509-.865-.764-1.561-.764-1.041,0-1.782,.584-2.224,1.752-.24,.644-.404,1.595-.494,2.853,.397-.472,.857-.816,1.381-1.033s1.123-.326,1.797-.326Zm-2.156,3.055c-.629,.487-.943,1.273-.943,2.358,0,.876,.236,1.591,.708,2.145s1.071,.831,1.797,.831c.711,0,1.271-.268,1.679-.803,.408-.536,.612-1.23,.612-2.083,0-.951-.232-1.679-.696-2.184-.464-.506-1.033-.758-1.707-.758-.546,0-1.029,.165-1.449,.494Z"/>
      <path class="cls-1" d="M268.571,607.958h3.403v3.347h-3.403v-3.347Z"/>
      <path class="cls-1" d="M282.228,611.304h-3.279v-11.23h-3.83v-2.179c1.011-.045,1.718-.112,2.123-.202,.644-.142,1.168-.427,1.572-.854,.277-.292,.487-.681,.629-1.168,.083-.292,.124-.509,.124-.651h2.662v16.284Z"/>
    </g>
    <g>
      <path class="cls-1" d="M1041.052,753.825v2.931h-4.953v13.623h-3.481v-13.623h-4.975v-2.931h13.409Z"/>
      <path class="cls-1" d="M1051.598,766.786c-.083,.726-.46,1.464-1.134,2.212-1.048,1.19-2.516,1.786-4.402,1.786-1.557,0-2.931-.502-4.122-1.505-1.19-1.004-1.786-2.636-1.786-4.897,0-2.119,.537-3.744,1.612-4.874,1.074-1.13,2.469-1.696,4.183-1.696,1.018,0,1.936,.191,2.751,.573s1.49,.984,2.021,1.808c.479,.726,.79,1.568,.932,2.527,.083,.562,.116,1.37,.101,2.426h-8.378c.045,1.228,.431,2.089,1.157,2.583,.442,.307,.973,.46,1.595,.46,.659,0,1.194-.187,1.606-.562,.225-.202,.423-.482,.595-.842h3.268Zm-3.167-3.751c-.052-.846-.309-1.488-.77-1.926-.46-.438-1.031-.657-1.712-.657-.741,0-1.316,.232-1.724,.696-.408,.464-.664,1.093-.769,1.887h4.975Z"/>
      <path class="cls-1" d="M1054.372,759.463c.846-1.078,2.298-1.617,4.357-1.617,1.34,0,2.531,.266,3.571,.797s1.561,1.535,1.561,3.01v5.615c0,.39,.007,.861,.022,1.415,.022,.42,.086,.704,.191,.854,.105,.15,.262,.273,.472,.371v.472h-3.481c-.097-.247-.165-.479-.202-.696-.038-.218-.067-.465-.09-.741-.442,.479-.951,.887-1.527,1.224-.689,.397-1.467,.596-2.336,.596-1.108,0-2.023-.316-2.746-.949-.722-.633-1.083-1.529-1.083-2.689,0-1.505,.58-2.595,1.741-3.269,.636-.367,1.572-.629,2.808-.786l1.089-.135c.591-.075,1.015-.168,1.269-.281,.457-.195,.685-.498,.685-.91,0-.501-.174-.848-.522-1.039-.349-.191-.859-.287-1.533-.287-.756,0-1.292,.187-1.606,.562-.225,.277-.375,.651-.449,1.123h-3.088c.067-1.071,.367-1.95,.898-2.639Zm2.381,8.603c.299,.247,.667,.37,1.101,.37,.689,0,1.323-.202,1.903-.606,.581-.404,.882-1.142,.904-2.212v-1.19c-.202,.127-.406,.23-.612,.309-.206,.079-.488,.152-.848,.219l-.719,.135c-.674,.12-1.157,.266-1.449,.438-.494,.292-.741,.746-.741,1.359,0,.547,.153,.939,.46,1.18Z"/>
      <path class="cls-1" d="M1073.576,761.507c-.27-.591-.797-.887-1.583-.887-.914,0-1.527,.296-1.842,.887-.172,.337-.258,.838-.258,1.505v7.368h-3.246v-12.219h3.111v1.786c.397-.636,.771-1.089,1.123-1.359,.622-.479,1.426-.719,2.415-.719,.936,0,1.692,.206,2.269,.618,.464,.382,.816,.872,1.056,1.471,.419-.719,.939-1.247,1.561-1.583,.659-.337,1.393-.505,2.201-.505,.539,0,1.071,.105,1.595,.314s1,.577,1.426,1.101c.344,.427,.577,.951,.696,1.572,.075,.412,.112,1.015,.112,1.808l-.022,7.716h-3.279v-7.794c0-.464-.075-.846-.225-1.146-.285-.569-.809-.854-1.572-.854-.883,0-1.494,.367-1.831,1.101-.172,.389-.258,.857-.258,1.404v7.289h-3.223v-7.289c0-.726-.075-1.254-.225-1.583Z"/>
      <path class="cls-1" d="M1099.698,761.092c-1.288,0-2.152,.419-2.594,1.258-.247,.472-.371,1.198-.371,2.179v5.852h-3.223v-12.242h3.055v2.134c.494-.816,.925-1.374,1.292-1.673,.599-.501,1.377-.752,2.336-.752,.06,0,.11,.002,.152,.006,.041,.003,.133,.009,.275,.017v3.279c-.202-.022-.382-.038-.539-.045s-.285-.011-.382-.011Z"/>
      <path class="cls-1" d="M1112.703,759.688c1.033,1.295,1.55,2.826,1.55,4.593,0,1.797-.517,3.334-1.55,4.61s-2.602,1.915-4.706,1.915-3.672-.639-4.706-1.915c-1.033-1.276-1.55-2.813-1.55-4.61,0-1.767,.517-3.298,1.55-4.593,1.034-1.295,2.602-1.943,4.706-1.943s3.673,.647,4.706,1.943Zm-4.717,.764c-.937,0-1.656,.331-2.162,.994-.505,.662-.758,1.607-.758,2.835s.253,2.175,.758,2.842c.506,.666,1.226,.999,2.162,.999s1.654-.333,2.156-.999c.501-.667,.752-1.614,.752-2.842s-.251-2.173-.752-2.835c-.502-.663-1.221-.994-2.156-.994Z"/>
      <path class="cls-1" d="M1126.752,759.688c1.033,1.295,1.55,2.826,1.55,4.593,0,1.797-.517,3.334-1.55,4.61s-2.602,1.915-4.705,1.915-3.673-.639-4.706-1.915-1.55-2.813-1.55-4.61c0-1.767,.517-3.298,1.55-4.593s2.602-1.943,4.706-1.943,3.672,.647,4.705,1.943Zm-4.717,.764c-.936,0-1.656,.331-2.162,.994-.505,.662-.758,1.607-.758,2.835s.253,2.175,.758,2.842c.506,.666,1.227,.999,2.162,.999s1.655-.333,2.156-.999c.502-.667,.753-1.614,.753-2.842s-.251-2.173-.753-2.835c-.501-.663-1.22-.994-2.156-.994Z"/>
      <path class="cls-1" d="M1137.466,761.507c-.27-.591-.797-.887-1.583-.887-.914,0-1.527,.296-1.842,.887-.173,.337-.259,.838-.259,1.505v7.368h-3.245v-12.219h3.11v1.786c.397-.636,.771-1.089,1.123-1.359,.622-.479,1.427-.719,2.415-.719,.936,0,1.691,.206,2.269,.618,.464,.382,.815,.872,1.056,1.471,.419-.719,.939-1.247,1.561-1.583,.659-.337,1.393-.505,2.201-.505,.539,0,1.071,.105,1.595,.314,.524,.209,1,.577,1.427,1.101,.344,.427,.576,.951,.696,1.572,.074,.412,.112,1.015,.112,1.808l-.022,7.716h-3.279v-7.794c0-.464-.075-.846-.225-1.146-.285-.569-.809-.854-1.572-.854-.884,0-1.494,.367-1.831,1.101-.172,.389-.258,.857-.258,1.404v7.289h-3.224v-7.289c0-.726-.074-1.254-.225-1.583Z"/>
      <path class="cls-1" d="M1074.732,793.38h-3.279v-11.23h-3.83v-2.179c1.011-.045,1.718-.112,2.123-.202,.644-.143,1.168-.427,1.572-.854,.277-.292,.487-.682,.629-1.168,.083-.292,.124-.51,.124-.651h2.662v16.284Z"/>
      <path class="cls-1" d="M1085.851,782.811c1.445,0,2.63,.49,3.555,1.472,.924,.98,1.387,2.234,1.387,3.762s-.453,2.86-1.359,4.021c-.906,1.161-2.313,1.741-4.223,1.741-2.051,0-3.564-.857-4.537-2.572-.756-1.34-1.134-3.069-1.134-5.188,0-1.242,.052-2.253,.157-3.032,.187-1.385,.55-2.538,1.089-3.459,.464-.786,1.073-1.419,1.825-1.897,.753-.479,1.653-.719,2.701-.719,1.512,0,2.718,.388,3.616,1.162,.898,.775,1.404,1.807,1.516,3.094h-3.189c0-.262-.101-.55-.303-.864-.344-.51-.865-.764-1.561-.764-1.041,0-1.782,.584-2.224,1.752-.24,.644-.404,1.595-.494,2.853,.397-.472,.857-.816,1.381-1.033,.524-.218,1.123-.326,1.797-.326Zm-2.156,3.055c-.629,.487-.943,1.273-.943,2.358,0,.876,.236,1.591,.708,2.146,.472,.554,1.071,.831,1.797,.831,.711,0,1.271-.268,1.679-.803,.408-.536,.612-1.23,.612-2.084,0-.95-.232-1.679-.696-2.184-.464-.506-1.033-.759-1.707-.759-.546,0-1.029,.165-1.449,.494Z"/>
      <path class="cls-1" d="M1093.049,790.033h3.403v3.347h-3.403v-3.347Z"/>
      <path class="cls-1" d="M1105.998,780.408c-.382-.456-.928-.685-1.64-.685-.973,0-1.636,.363-1.988,1.089-.202,.42-.322,1.086-.359,1.999h-3.111c.052-1.385,.303-2.504,.752-3.357,.854-1.625,2.37-2.438,4.548-2.438,1.723,0,3.093,.478,4.11,1.433,1.019,.954,1.527,2.218,1.527,3.79,0,1.205-.359,2.275-1.078,3.212-.472,.621-1.246,1.313-2.324,2.077l-1.28,.91c-.802,.568-1.35,.98-1.646,1.235-.296,.254-.545,.55-.747,.887h7.109v2.819h-11.152c.03-1.168,.281-2.235,.752-3.201,.457-1.085,1.535-2.234,3.234-3.447,1.475-1.056,2.43-1.812,2.864-2.269,.667-.712,1-1.49,1-2.336,0-.689-.191-1.262-.573-1.719Z"/>
    </g>
    <g>
      <path class="cls-1" d="M1245.763,749.016v2.931h-4.952v13.623h-3.482v-13.623h-4.975v-2.931h13.409Z"/>
      <path class="cls-1" d="M1256.309,761.976c-.083,.726-.461,1.464-1.135,2.212-1.049,1.19-2.516,1.786-4.402,1.786-1.557,0-2.932-.501-4.121-1.505-1.191-1.003-1.786-2.635-1.786-4.896,0-2.119,.537-3.744,1.612-4.874,1.074-1.13,2.469-1.696,4.183-1.696,1.019,0,1.936,.191,2.751,.573,.816,.382,1.49,.984,2.021,1.808,.479,.726,.791,1.568,.933,2.527,.083,.562,.116,1.37,.101,2.426h-8.377c.045,1.228,.43,2.089,1.156,2.583,.441,.307,.973,.46,1.595,.46,.659,0,1.194-.187,1.606-.562,.225-.202,.422-.483,.595-.842h3.269Zm-3.168-3.751c-.052-.846-.309-1.488-.77-1.926-.459-.438-1.031-.657-1.712-.657-.741,0-1.315,.232-1.724,.696s-.664,1.093-.77,1.887h4.975Z"/>
      <path class="cls-1" d="M1259.082,754.654c.846-1.078,2.299-1.617,4.357-1.617,1.34,0,2.531,.266,3.571,.797s1.562,1.535,1.562,3.01v5.615c0,.389,.007,.861,.021,1.415,.023,.419,.086,.704,.191,.854s.262,.273,.472,.371v.472h-3.481c-.098-.247-.164-.479-.202-.696s-.067-.464-.09-.741c-.442,.479-.95,.887-1.527,1.224-.688,.397-1.468,.595-2.336,.595-1.108,0-2.023-.316-2.746-.949-.722-.632-1.083-1.529-1.083-2.689,0-1.505,.58-2.594,1.74-3.268,.637-.367,1.572-.629,2.808-.786l1.089-.135c.592-.075,1.016-.168,1.27-.281,.457-.195,.686-.498,.686-.91,0-.501-.175-.848-.522-1.039-.349-.191-.859-.287-1.533-.287-.757,0-1.292,.187-1.606,.562-.225,.277-.374,.651-.449,1.123h-3.088c.067-1.071,.367-1.95,.898-2.639Zm2.381,8.603c.299,.247,.666,.371,1.101,.371,.688,0,1.323-.202,1.903-.606s.882-1.142,.904-2.212v-1.19c-.202,.127-.406,.23-.612,.309-.206,.079-.488,.152-.848,.219l-.719,.135c-.674,.12-1.157,.266-1.448,.438-.494,.292-.742,.745-.742,1.359,0,.546,.154,.939,.461,1.179Z"/>
      <path class="cls-1" d="M1278.286,756.698c-.27-.591-.798-.887-1.583-.887-.914,0-1.527,.296-1.842,.887-.173,.337-.259,.838-.259,1.505v7.367h-3.245v-12.219h3.11v1.786c.397-.636,.771-1.089,1.123-1.359,.622-.479,1.427-.719,2.415-.719,.936,0,1.691,.206,2.268,.618,.465,.382,.816,.872,1.057,1.471,.419-.719,.939-1.247,1.561-1.583,.658-.337,1.393-.505,2.201-.505,.539,0,1.07,.105,1.595,.314s.999,.577,1.427,1.101c.344,.427,.576,.951,.695,1.572,.075,.412,.113,1.015,.113,1.808l-.023,7.715h-3.279v-7.794c0-.464-.074-.846-.225-1.146-.284-.569-.809-.854-1.572-.854-.883,0-1.493,.367-1.83,1.101-.172,.389-.258,.857-.258,1.404v7.289h-3.224v-7.289c0-.726-.075-1.254-.225-1.583Z"/>
      <path class="cls-1" d="M1303.992,748.915v2.605c-.18-.022-.48-.04-.904-.05-.422-.012-.715,.082-.875,.28-.161,.199-.242,.417-.242,.657v1.033h2.101v2.257h-2.101v9.872h-3.189v-9.872h-1.785v-2.257h1.752v-.786c0-1.31,.221-2.212,.662-2.707,.465-.734,1.584-1.101,3.358-1.101,.202,0,.386,.005,.55,.017,.165,.011,.39,.028,.674,.05Z"/>
      <path class="cls-1" d="M1305.98,749.016h3.201v16.554h-3.201v-16.554Z"/>
      <path class="cls-1" d="M1322.781,761.976c-.082,.726-.461,1.464-1.135,2.212-1.048,1.19-2.516,1.786-4.402,1.786-1.557,0-2.931-.501-4.121-1.505s-1.785-2.635-1.785-4.896c0-2.119,.537-3.744,1.611-4.874s2.469-1.696,4.184-1.696c1.018,0,1.936,.191,2.751,.573s1.489,.984,2.021,1.808c.479,.726,.79,1.568,.933,2.527,.082,.562,.115,1.37,.101,2.426h-8.378c.045,1.228,.431,2.089,1.156,2.583,.442,.307,.974,.46,1.596,.46,.658,0,1.193-.187,1.605-.562,.225-.202,.423-.483,.596-.842h3.268Zm-3.167-3.751c-.052-.846-.309-1.488-.77-1.926-.46-.438-1.031-.657-1.712-.657-.742,0-1.316,.232-1.725,.696s-.664,1.093-.77,1.887h4.976Z"/>
      <path class="cls-1" d="M1336,765.57h-3.987l-2.111-3.672-2.122,3.672h-3.887l4.178-6.199-3.998-6.02h3.92l2.044,3.549,1.999-3.549h3.807l-4.02,5.963,4.178,6.255Z"/>
      <path class="cls-1" d="M1252.428,779.282c-1.287,0-2.152,.42-2.594,1.258-.248,.472-.371,1.197-.371,2.179v5.851h-3.223v-12.24h3.055v2.133c.494-.815,.924-1.373,1.291-1.673,.6-.501,1.377-.753,2.336-.753,.061,0,.11,.002,.152,.006,.041,.004,.133,.01,.274,.018v3.279c-.202-.023-.382-.038-.539-.045-.157-.008-.284-.012-.382-.012Z"/>
      <path class="cls-1" d="M1265.433,777.878c1.033,1.296,1.55,2.826,1.55,4.594,0,1.797-.517,3.334-1.55,4.609-1.033,1.277-2.602,1.916-4.706,1.916s-3.672-.639-4.705-1.916c-1.033-1.275-1.55-2.812-1.55-4.609,0-1.768,.517-3.298,1.55-4.594,1.033-1.295,2.602-1.942,4.705-1.942s3.673,.647,4.706,1.942Zm-4.717,.764c-.937,0-1.656,.332-2.162,.994-.505,.662-.758,1.607-.758,2.836s.253,2.175,.758,2.842c.506,.666,1.226,.999,2.162,.999s1.655-.333,2.156-.999c.501-.667,.753-1.613,.753-2.842s-.252-2.174-.753-2.836-1.22-.994-2.156-.994Z"/>
      <path class="cls-1" d="M1279.482,777.878c1.033,1.296,1.549,2.826,1.549,4.594,0,1.797-.516,3.334-1.549,4.609-1.033,1.277-2.602,1.916-4.706,1.916s-3.673-.639-4.706-1.916c-1.033-1.275-1.549-2.812-1.549-4.609,0-1.768,.516-3.298,1.549-4.594,1.033-1.295,2.602-1.942,4.706-1.942s3.673,.647,4.706,1.942Zm-4.717,.764c-.937,0-1.656,.332-2.162,.994s-.758,1.607-.758,2.836,.252,2.175,.758,2.842c.506,.666,1.226,.999,2.162,.999s1.654-.333,2.156-.999c.501-.667,.752-1.613,.752-2.842s-.251-2.174-.752-2.836c-.502-.662-1.221-.994-2.156-.994Z"/>
      <path class="cls-1" d="M1290.195,779.698c-.27-.592-.797-.888-1.583-.888-.913,0-1.527,.296-1.842,.888-.173,.336-.259,.838-.259,1.504v7.367h-3.245v-12.219h3.11v1.786c.397-.636,.771-1.089,1.123-1.358,.622-.479,1.427-.719,2.415-.719,.937,0,1.692,.205,2.269,.617,.465,.382,.816,.872,1.056,1.471,.419-.719,.939-1.246,1.562-1.583,.658-.337,1.393-.505,2.201-.505,.539,0,1.07,.104,1.594,.314,.524,.209,1,.576,1.427,1.1,.345,.428,.577,.951,.696,1.572,.074,.412,.112,1.016,.112,1.809l-.022,7.715h-3.279v-7.793c0-.465-.074-.847-.225-1.146-.285-.568-.809-.854-1.572-.854-.883,0-1.494,.367-1.83,1.102-.173,.389-.259,.857-.259,1.403v7.288h-3.224v-7.288c0-.726-.074-1.254-.225-1.583Z"/>
      <path class="cls-1" d="M1319.271,785.167h-6.098l-1.146,3.402h-3.615l5.906-16.553h3.908l5.863,16.553h-3.752l-1.066-3.402Zm-.966-2.853l-2.066-6.514-2.134,6.514h4.2Z"/>
    </g>
    <g>
      <path class="cls-1" d="M1414.352,746.972v2.931h-4.953v13.623h-3.481v-13.623h-4.975v-2.931h13.409Z"/>
      <path class="cls-1" d="M1424.896,759.932c-.082,.726-.46,1.464-1.134,2.212-1.049,1.19-2.516,1.786-4.402,1.786-1.558,0-2.932-.501-4.122-1.505s-1.785-2.635-1.785-4.896c0-2.119,.537-3.744,1.611-4.874s2.469-1.696,4.184-1.696c1.018,0,1.936,.191,2.751,.573,.816,.382,1.49,.984,2.021,1.808,.479,.726,.79,1.568,.933,2.527,.082,.562,.116,1.37,.101,2.426h-8.378c.045,1.228,.431,2.089,1.157,2.583,.441,.307,.973,.46,1.595,.46,.658,0,1.194-.187,1.605-.562,.225-.202,.423-.483,.596-.842h3.268Zm-3.167-3.751c-.052-.846-.309-1.488-.77-1.926-.46-.438-1.031-.657-1.712-.657-.741,0-1.316,.232-1.725,.696-.407,.464-.664,1.093-.769,1.887h4.975Z"/>
      <path class="cls-1" d="M1427.671,752.61c.846-1.078,2.298-1.617,4.357-1.617,1.34,0,2.53,.266,3.571,.797,1.04,.532,1.561,1.535,1.561,3.01v5.615c0,.389,.008,.861,.022,1.415,.022,.419,.086,.704,.191,.854,.104,.15,.262,.273,.472,.371v.472h-3.481c-.098-.247-.165-.479-.202-.696-.038-.217-.067-.464-.09-.741-.442,.479-.951,.887-1.527,1.224-.689,.397-1.468,.595-2.336,.595-1.108,0-2.023-.316-2.746-.949-.723-.632-1.084-1.529-1.084-2.689,0-1.505,.58-2.594,1.741-3.268,.636-.367,1.572-.629,2.808-.786l1.089-.135c.592-.075,1.015-.168,1.27-.281,.456-.195,.685-.498,.685-.91,0-.501-.174-.848-.521-1.039-.349-.191-.859-.287-1.533-.287-.757,0-1.292,.187-1.606,.562-.225,.277-.374,.651-.449,1.123h-3.088c.067-1.071,.366-1.95,.898-2.639Zm2.381,8.603c.299,.247,.666,.371,1.101,.371,.688,0,1.323-.202,1.903-.606s.882-1.142,.904-2.212v-1.19c-.202,.127-.406,.23-.612,.309-.206,.079-.488,.152-.848,.219l-.719,.135c-.674,.12-1.157,.266-1.449,.438-.494,.292-.741,.745-.741,1.359,0,.546,.153,.939,.461,1.179Z"/>
      <path class="cls-1" d="M1446.875,754.654c-.27-.591-.798-.887-1.584-.887-.913,0-1.527,.296-1.842,.887-.172,.337-.258,.838-.258,1.505v7.367h-3.246v-12.219h3.111v1.786c.396-.636,.771-1.089,1.123-1.359,.621-.479,1.426-.719,2.414-.719,.937,0,1.692,.206,2.269,.618,.465,.382,.816,.872,1.056,1.471,.42-.719,.939-1.247,1.562-1.583,.658-.337,1.393-.505,2.201-.505,.539,0,1.07,.105,1.595,.314,.523,.209,.999,.577,1.426,1.101,.345,.427,.577,.951,.696,1.572,.075,.412,.112,1.015,.112,1.808l-.022,7.715h-3.279v-7.794c0-.464-.074-.846-.225-1.146-.284-.569-.809-.854-1.572-.854-.883,0-1.493,.367-1.83,1.101-.173,.389-.259,.857-.259,1.404v7.289h-3.223v-7.289c0-.726-.075-1.254-.225-1.583Z"/>
      <path class="cls-1" d="M1472.581,746.871v2.605c-.18-.022-.48-.04-.904-.05-.423-.012-.715,.082-.876,.28-.16,.199-.241,.417-.241,.657v1.033h2.101v2.257h-2.101v9.872h-3.189v-9.872h-1.785v-2.257h1.752v-.786c0-1.31,.221-2.212,.662-2.707,.465-.734,1.584-1.101,3.358-1.101,.202,0,.386,.005,.55,.017,.165,.011,.39,.028,.674,.05Z"/>
      <path class="cls-1" d="M1474.569,746.972h3.2v16.554h-3.2v-16.554Z"/>
      <path class="cls-1" d="M1491.37,759.932c-.083,.726-.461,1.464-1.135,2.212-1.048,1.19-2.516,1.786-4.402,1.786-1.557,0-2.931-.501-4.121-1.505s-1.786-2.635-1.786-4.896c0-2.119,.537-3.744,1.612-4.874,1.074-1.13,2.469-1.696,4.183-1.696,1.019,0,1.936,.191,2.752,.573,.815,.382,1.489,.984,2.021,1.808,.479,.726,.79,1.568,.932,2.527,.083,.562,.116,1.37,.102,2.426h-8.378c.045,1.228,.431,2.089,1.156,2.583,.442,.307,.974,.46,1.595,.46,.659,0,1.194-.187,1.606-.562,.225-.202,.423-.483,.595-.842h3.269Zm-3.167-3.751c-.053-.846-.309-1.488-.77-1.926-.46-.438-1.031-.657-1.713-.657-.741,0-1.315,.232-1.724,.696s-.664,1.093-.77,1.887h4.976Z"/>
      <path class="cls-1" d="M1504.588,763.526h-3.986l-2.111-3.672-2.123,3.672h-3.886l4.178-6.199-3.998-6.02h3.92l2.044,3.549,1.999-3.549h3.807l-4.021,5.963,4.178,6.255Z"/>
      <path class="cls-1" d="M1420.174,777.239c-1.287,0-2.152,.419-2.594,1.258-.247,.472-.371,1.197-.371,2.179v5.851h-3.223v-12.241h3.055v2.134c.494-.815,.925-1.374,1.291-1.673,.6-.502,1.378-.753,2.336-.753,.061,0,.11,.002,.152,.006,.041,.004,.133,.01,.274,.017v3.279c-.202-.022-.382-.037-.539-.045-.157-.007-.284-.011-.382-.011Z"/>
      <path class="cls-1" d="M1433.179,775.835c1.033,1.296,1.55,2.826,1.55,4.594,0,1.797-.517,3.333-1.55,4.609-1.033,1.277-2.602,1.915-4.705,1.915s-3.673-.638-4.706-1.915c-1.033-1.276-1.55-2.812-1.55-4.609,0-1.768,.517-3.298,1.55-4.594,1.033-1.295,2.602-1.942,4.706-1.942s3.672,.647,4.705,1.942Zm-4.717,.764c-.936,0-1.656,.331-2.162,.994-.505,.662-.758,1.607-.758,2.836s.253,2.175,.758,2.841c.506,.667,1.227,1,2.162,1s1.655-.333,2.156-1c.502-.666,.753-1.613,.753-2.841s-.251-2.174-.753-2.836c-.501-.663-1.22-.994-2.156-.994Z"/>
      <path class="cls-1" d="M1447.228,775.835c1.033,1.296,1.55,2.826,1.55,4.594,0,1.797-.517,3.333-1.55,4.609-1.033,1.277-2.602,1.915-4.706,1.915s-3.672-.638-4.705-1.915c-1.033-1.276-1.55-2.812-1.55-4.609,0-1.768,.517-3.298,1.55-4.594,1.033-1.295,2.602-1.942,4.705-1.942s3.673,.647,4.706,1.942Zm-4.717,.764c-.937,0-1.656,.331-2.162,.994-.505,.662-.758,1.607-.758,2.836s.253,2.175,.758,2.841c.506,.667,1.226,1,2.162,1s1.654-.333,2.156-1c.501-.666,.752-1.613,.752-2.841s-.251-2.174-.752-2.836c-.502-.663-1.221-.994-2.156-.994Z"/>
      <path class="cls-1" d="M1457.942,777.654c-.27-.591-.798-.887-1.584-.887-.913,0-1.527,.296-1.842,.887-.172,.337-.258,.839-.258,1.505v7.367h-3.246v-12.219h3.111v1.786c.396-.637,.771-1.09,1.123-1.359,.621-.479,1.426-.719,2.414-.719,.937,0,1.692,.206,2.269,.618,.465,.382,.816,.872,1.056,1.471,.42-.719,.939-1.246,1.562-1.583,.658-.337,1.393-.506,2.201-.506,.539,0,1.07,.105,1.595,.314,.523,.21,.999,.577,1.426,1.101,.345,.427,.577,.951,.696,1.572,.075,.412,.112,1.015,.112,1.809l-.022,7.715h-3.279v-7.794c0-.464-.074-.846-.225-1.146-.284-.568-.809-.854-1.572-.854-.883,0-1.493,.367-1.83,1.101-.173,.39-.259,.857-.259,1.404v7.288h-3.223v-7.288c0-.727-.075-1.254-.225-1.584Z"/>
      <path class="cls-1" d="M1485.727,786.526h-7.502v-16.554h8.041c2.028,.03,3.466,.618,4.312,1.764,.509,.703,.764,1.546,.764,2.526,0,1.011-.255,1.823-.764,2.438-.285,.344-.704,.658-1.258,.943,.846,.307,1.484,.793,1.914,1.46,.431,.666,.646,1.475,.646,2.426,0,.98-.247,1.86-.741,2.639-.314,.517-.708,.951-1.18,1.303-.531,.404-1.158,.682-1.881,.831-.723,.15-1.507,.225-2.353,.225Zm1.64-10.444c.449-.27,.674-.752,.674-1.448,0-.771-.3-1.28-.898-1.527-.517-.173-1.176-.259-1.977-.259h-3.639v3.65h4.065c.726,0,1.317-.139,1.774-.416Zm-1.719,3.156h-4.121v4.413h4.065c.726,0,1.291-.097,1.695-.292,.734-.359,1.101-1.048,1.101-2.066,0-.86-.355-1.452-1.066-1.774-.397-.18-.955-.273-1.674-.28Z"/>
    </g>
  </g>
  <g id="outline">
    <path class="cls-13" d="M106.479,419.489l130.447,657.316,1877.079-71.153-18.635-257.505-515.011,17.423-181.27-163.117-459.105,33.882-28.8,166.023s-32.005-34.789-76.447-49.129c-44.442-14.34-89.576-13.554-89.576-13.554l-49.129-296.47-589.552-23.718Z"/>
    <line class="cls-11" x1="374.216" y1="430.26" x2="383.749" y2="493.465"/>
    <polyline class="cls-11" points="393.914 548.806 428.926 743.064 440.22 743.064 168.264 743.064"/>
    <polyline class="cls-11" points="493.302 743.064 782.431 743.064 526.055 743.064 518.714 711.441"/>
    <line class="cls-11" x1="506.29" y1="645.935" x2="469.069" y2="434.076"/>
    <line class="cls-11" x1="505.569" y1="743.064" x2="528.402" y2="871.47"/>
    <line class="cls-11" x1="541.677" y1="943.157" x2="566.027" y2="1064.33"/>
    <path class="cls-11" d="M832.69,1054.222s12.423-5.652,29.364-18.076l16.941-12.424"/>
    <path class="cls-11" d="M911.184,975.723s10.412-22.563,12.829-44.881,2.418-29.66,2.418-29.66"/>
    <path class="cls-11" d="M923.042,850.923s-1.129-24.282-11.859-48.565"/>
    <line class="cls-11" x1="1067.042" y1="926.594" x2="924.013" y2="930.841"/>
    <line class="cls-11" x1="1125.512" y1="923.205" x2="1200.877" y2="920.382"/>
    <polyline class="cls-11" points="1185.023 618.251 1200.877 938.452 1230.242 936.452"/>
    <polyline class="cls-11" points="1282.759 933.37 1548.171 916.994 1549.865 951.758 1540.066 734.579"/>
    <line class="cls-11" x1="1553.4" y1="1005.692" x2="1554.536" y2="1026.86"/>
    <polyline class="cls-11" points="1728.791 1020.254 1718.645 848.312 1741.612 848.312"/>
    <polyline class="cls-11" points="1799.705 848.312 1869.282 848.312 1883.541 1014.388 1866.58 819.94"/>
    <line class="cls-11" x1="1994.925" y1="809.132" x2="2008.483" y2="1009.652"/>
    <line class="cls-11" x1="963.598" y1="634.593" x2="965.65" y2="667.218"/>
    <line class="cls-11" x1="969.33" y1="720.221" x2="983.811" y2="928.717"/>
  </g>
</svg>