<?xml version="1.0" encoding="utf-8"?>
<!-- Generator: Adobe Illustrator 25.2.0, SVG Export Plug-In . SVG Version: 6.00 Build 0)  -->
<svg version="1.1" id="Layer_1" xmlns="http://www.w3.org/2000/svg" xmlns:xlink="http://www.w3.org/1999/xlink" x="0px" y="0px"
	 viewBox="0 0 2231.3 1070.9" style="enable-background:new 0 0 2231.3 1070.9;" xml:space="preserve">
<style type="text/css">
	.st0{fill:#4196B1;stroke:#4196B1;stroke-width:10;stroke-miterlimit:10;}
	.st1{fill:#A8E0E5;}
	.st2{fill:#99B8BF;}
	.st3{fill:#8ECCCE;}
	.st4{opacity:5.000000e-02;fill:#040404;enable-background:new    ;}
	.st5{fill:#B8BFC1;}
	.st6{fill:#FFFFFF;}
	.st7{opacity:0.74;fill:#575757;enable-background:new    ;}
	.st8{enable-background:new    ;}
	.st9{fill:none;stroke:#FFFFFF;stroke-width:10;stroke-miterlimit:10;}
	.st10{fill:none;stroke:#FFFFFF;stroke-width:5;stroke-miterlimit:10;}
	.st11{fill:#646B6D;}
	.st12{fill:#EBF2F2;}
	.st13{fill:none;stroke:#7A8E93;stroke-width:0.74;stroke-linecap:round;stroke-linejoin:round;}
	.st14{fill:none;stroke:#7A8E93;stroke-width:0.715;stroke-miterlimit:10;}
	.st15{fill:none;stroke:#7A8E93;stroke-width:0.709;stroke-miterlimit:10;}
	.st16{fill:#7A8E93;stroke:#7A8E93;stroke-width:0.1;stroke-linecap:round;stroke-linejoin:round;}
	.st17{fill:#767E80;}
	.st18{fill:#7A8E93;stroke:#7A8E93;stroke-width:0.359;stroke-miterlimit:10;}
</style>
<g id="shadow">
	<polygon class="st0" points="50.2,102.1 2187.4,102.1 2187.4,704.6 1464.3,743.7 1445.8,969.2 1277,979.7 1272.7,961.1 
		926.3,982.9 925.7,915.8 769.7,903.5 160.6,975.4 	"/>
</g>
<g id="background">
	<polygon class="st1" points="45.5,86.7 2182.7,86.7 2182.7,689.2 1459.7,728.3 1441.2,953.8 1272.4,964.3 1268,945.6 921.6,967.5 
		921.1,900.4 765,888 156,960 	"/>
</g>
<g id="spaces">
	<polygon class="st2" points="1678.6,84.4 1678.6,131.7 1696.3,114 1787.2,114 1794.7,708.9 2179,687.4 2182.7,86.7 	"/>
	<rect x="1693.2" y="287.5" class="st3" width="59.1" height="138.4"/>
	<polygon class="st2" points="135.4,797.2 627.6,748.7 609.8,600.2 653.7,595.3 671.2,741 798.5,724.9 786.8,607.8 933.9,607.8 
		933.9,592.5 976.3,592.5 976.3,623.9 1241.2,623.9 1241.2,503.2 1164.6,503.2 1164.6,448.8 1180.8,448.8 1180.8,425.9 
		1791.1,425.9 1794.7,708.9 1459.7,728.3 1443.9,953.7 1272.4,964.3 1269.4,946.5 921.6,967.5 920.3,899.9 768.4,887.6 156,960 	"/>
	<polygon class="st3" points="1336,169.4 1435.6,169.4 1435.6,86.7 1552.1,86.7 1552.1,169.4 1678.6,169.4 1678.6,131.7 1696.3,114 
		1787.2,114 1791.1,425.9 1752.2,425.9 1752.2,287.5 1693.2,287.5 1693.2,425.9 1333.3,426.2 	"/>
	<polygon class="st3" points="1176.6,342.3 1176.6,425.9 1180.8,425.9 1180.8,448.8 1164.6,448.8 1164.6,503.2 1241.2,503.2 
		1241.2,623.9 976.3,623.9 976.3,592.5 933.9,592.5 933.9,607.8 786.8,607.8 798.5,724.9 671.2,741 653.7,595.3 760.3,584.4 
		760.3,424.2 782,424.2 782,520.3 880.3,520.3 880.3,451 1073.1,451 1073.1,502.4 1099.4,502.4 1099.4,424.2 1005.2,424.2 
		929.1,424.2 699.5,424.2 699.5,217.2 1006,217.2 1006,169.4 1097.8,169.4 1097.8,342.3 	"/>
	<polygon class="st2" points="1336,169.4 1336,426.2 1176.6,426.2 1176.6,342.3 1097.8,342.3 1097.8,314.1 1097.8,169.4 	"/>
	<rect x="650" y="169.4" class="st2" width="49.9" height="74.6"/>
	<polygon class="st3" points="396.1,450.6 485.2,439.5 489.1,464.9 593.7,459 627.6,748.7 437.6,767.4 	"/>
	<polygon class="st2" points="1192.5,320.7 1192.5,503.2 1099.4,503.2 1099.4,315.1 	"/>
</g>
<g id="furnaiture">
	<path class="st4" d="M159.4,703.3l185.4-17.6c3-0.3,5.5,0.3,5.6,1.4l2.2,23.6c0.1,1.1-2.2,2.2-5.2,2.5L162,730.8
		c-3,0.3-5.5-0.3-5.6-1.4l-2.2-23.6C154.1,704.7,156.4,703.6,159.4,703.3z"/>
	<path class="st5" d="M159.3,702.1l185.4-17.6c3-0.3,5.5,0.3,5.6,1.4l2.2,23.6c0.1,1.1-2.2,2.2-5.2,2.5l-185.4,17.6
		c-3,0.3-5.5-0.3-5.6-1.4l-2.2-23.6C154,703.4,156.2,702.4,159.3,702.1z"/>
	<g id="tables-7-18-2">
		<path class="st6" d="M217.7,695.9l-58.5,5.5c-3,0.3-5.3,1.3-5.2,2.5l0,0l1.2,12.6l63.9-6.1L217.7,695.9L217.7,695.9z"/>
		<path class="st6" d="M351.4,697.7l-1.2-12.6c-0.1-1.1-2.5-1.7-5.6-1.4l-63.3,6l1.4,14.4L351.4,697.7z"/>
		
			<rect x="218.2" y="692.8" transform="matrix(0.9955 -9.451469e-02 9.451469e-02 0.9955 -65.0434 26.7809)" class="st6" width="64" height="14.5"/>
		<path class="st6" d="M282.6,704.2l1.2,13l63.3-6c3-0.3,5.3-1.3,5.2-2.5l-1.1-11.1L282.6,704.2z"/>
		
			<rect x="219.5" y="707.2" transform="matrix(0.9955 -9.451469e-02 9.451469e-02 0.9955 -66.3324 26.9651)" class="st6" width="64" height="13.1"/>
		<path class="st6" d="M155.2,716.3l1.1,11.1c0.1,1.1,2.5,1.7,5.6,1.4l58.5-5.5l-1.2-13L155.2,716.3z"/>
	</g>
	<path class="st4" d="M167.7,763.3l258.7-24.6c4.3-0.4,7.6,0.1,7.7,1.2l2.2,23.6c0.1,1.1-3.1,2.3-7.4,2.7l-258.7,24.6
		c-4.3,0.4-7.6-0.1-7.7-1.2l-2.2-23.6C160.2,764.9,163.4,763.7,167.7,763.3z"/>
	<path class="st5" d="M167.6,762.1l258.7-24.6c4.3-0.4,7.6,0.1,7.7,1.2l2.2,23.6c0.1,1.1-3.1,2.3-7.4,2.7l-258.7,24.6
		c-4.3,0.4-7.6-0.1-7.7-1.2l-2.2-23.6C160.1,763.6,163.3,762.5,167.6,762.1z"/>
	<g id="tables-7-18-2-2">
		<path class="st6" d="M249.1,753.6l-81.6,7.7c-4.3,0.4-7.5,1.5-7.4,2.7l0,0l1.2,12.6l89.1-8.5L249.1,753.6L249.1,753.6z"/>
		<path class="st6" d="M435.2,750.5l-1.2-12.6c-0.1-1.1-3.5-1.6-7.7-1.2l-88.4,8.4l1.4,14.4L435.2,750.5z"/>
		
			<rect x="249.6" y="749.4" transform="matrix(0.9955 -9.451469e-02 9.451469e-02 0.9955 -70.1954 31.2023)" class="st6" width="89.4" height="14.5"/>
		<path class="st6" d="M339.3,759.6l1.2,13l88.4-8.4c4.3-0.4,7.5-1.5,7.4-2.7l-1.1-11.1L339.3,759.6z"/>
		
			<rect x="250.9" y="763.8" transform="matrix(0.9955 -9.451469e-02 9.451469e-02 0.9955 -71.4844 31.3865)" class="st6" width="89.4" height="13.1"/>
		<path class="st6" d="M161.3,776.5l1.1,11.1c0.1,1.1,3.5,1.6,7.7,1.2l81.6-7.7l-1.2-13L161.3,776.5z"/>
	</g>
	<path class="st4" d="M191.8,552.8l138.4-13.1c2.3-0.2,4.1,0.8,4.3,2.3l3.1,32.6c0.1,1.5-1.5,2.9-3.8,3.1l-138.4,13.1
		c-2.3,0.2-4.1-0.8-4.3-2.3l-3.1-32.6C187.9,554.3,189.6,553,191.8,552.8z"/>
	<path class="st5" d="M191.7,551l138.4-13.1c2.3-0.2,4.1,0.8,4.3,2.3l3.1,32.6c0.1,1.5-1.5,2.9-3.8,3.1L195.3,589
		c-2.3,0.2-4.1-0.8-4.3-2.3l-3.1-32.6C187.8,552.6,189.4,551.2,191.7,551z"/>
	<g id="tables-7-18-2-3">
		<path class="st6" d="M235.2,545.9l-43.6,4.1c-2.3,0.2-3.9,1.5-3.8,3.1l0,0l1.7,17.5l47.7-4.5L235.2,545.9L235.2,545.9z"/>
		<path class="st6" d="M335.9,556.5l-1.7-17.5c-0.1-1.5-2-2.5-4.3-2.3l-47.3,4.5l1.9,20L335.9,556.5z"/>
		
			<rect x="236.1" y="543.6" transform="matrix(0.9955 -9.451469e-02 9.451469e-02 0.9955 -51.1629 27.0517)" class="st6" width="47.8" height="20.1"/>
		<path class="st6" d="M284.6,561.4l1.7,18l47.3-4.5c2.3-0.2,3.9-1.5,3.8-3.1l-1.5-15.4L284.6,561.4z"/>
		
			<rect x="237.9" y="563.6" transform="matrix(0.9955 -9.451469e-02 9.451469e-02 0.9955 -52.9506 27.3069)" class="st6" width="47.8" height="18.1"/>
		<path class="st6" d="M189.5,570.4l1.5,15.4c0.1,1.5,2,2.5,4.3,2.3l43.6-4.1l-1.7-18L189.5,570.4z"/>
	</g>
	<path class="st4" d="M420.9,638.5l9.1,96.3c0.2,1.6-0.7,2.9-1.9,3l-26.7,2.5c-1.3,0.1-2.3-1-2.5-2.6l-9.1-96.3
		c-0.1-1.6,0.7-2.9,1.9-3l26.7-2.5C419.7,635.8,420.8,636.9,420.9,638.5z"/>
	<path class="st5" d="M422.3,638.4l9.1,96.3c0.1,1.6-0.7,2.9-1.9,3l-26.7,2.5c-1.3,0.1-2.3-1-2.5-2.6l-9.1-96.3
		c-0.1-1.6,0.7-2.9,1.9-3l26.7-2.5C421.1,635.6,422.2,636.8,422.3,638.4z"/>
	<g id="tables-7-18-2-4">
		<path class="st6" d="M426,668.7l-2.9-30.4c-0.1-1.6-1.2-2.7-2.5-2.6l0,0l-14.3,1.4l3.1,33.2L426,668.7z"/>
		<path class="st6" d="M416.2,738.9l14.3-1.4c1.3-0.1,2.1-1.4,1.9-3l-3.1-32.9l-16.3,1.5L416.2,738.9z"/>
		
			<rect x="411.2" y="669.3" transform="matrix(0.9955 -9.451469e-02 9.451469e-02 0.9955 -62.9533 42.7093)" class="st6" width="16.4" height="33.3"/>
		<path class="st6" d="M412.8,703.2l-14.7,1.4l3.1,32.9c0.1,1.6,1.2,2.7,2.5,2.6l12.5-1.2L412.8,703.2z"/>
		
			<rect x="396.5" y="670.8" transform="matrix(0.9955 -9.451469e-02 9.451469e-02 0.9955 -63.1645 41.251)" class="st6" width="14.8" height="33.3"/>
		<path class="st6" d="M406.5,637l-12.5,1.2c-1.3,0.1-2.1,1.4-1.9,3l2.9,30.4l14.7-1.4L406.5,637z"/>
	</g>
	<path class="st4" d="M343.5,680.3l-137.3,13c-2.3,0.2-4.1-0.4-4.2-1.5l-2.2-23c-0.1-1.1,1.6-2.1,3.8-2.3l137.3-13
		c2.3-0.2,4.1,0.4,4.2,1.5l2.2,23C347.4,679.1,345.8,680.1,343.5,680.3z"/>
	<path class="st5" d="M343.6,681.5l-137.3,13c-2.3,0.2-4.1-0.4-4.2-1.5l-2.2-23c-0.1-1.1,1.6-2.1,3.8-2.3l137.3-13
		c2.3-0.2,4.1,0.4,4.2,1.5l2.2,23C347.6,680.3,345.9,681.3,343.6,681.5z"/>
	<g id="tables-7-18-2-5">
		<path class="st6" d="M300.4,686.3l43.3-4.1c2.3-0.2,3.9-1.2,3.8-2.3l0,0l-1.2-12.3L299,672L300.4,686.3L300.4,686.3z"/>
		<path class="st6" d="M201,681.5l1.2,12.3c0.1,1.1,1.9,1.7,4.2,1.5l46.9-4.5l-1.3-14.1L201,681.5z"/>
		
			<rect x="252.8" y="674.6" transform="matrix(0.9955 -9.494551e-02 9.494551e-02 0.9955 -63.4762 29.3372)" class="st6" width="47.5" height="14.2"/>
		<path class="st6" d="M251.9,676.7l-1.2-12.7l-46.9,4.5c-2.3,0.2-3.9,1.2-3.8,2.3l1,10.8L251.9,676.7z"/>
		
			<rect x="251.6" y="661.8" transform="matrix(0.9955 -9.494551e-02 9.494551e-02 0.9955 -62.1998 29.1623)" class="st6" width="47.5" height="12.8"/>
		<path class="st6" d="M346.4,667.7l-1-10.8c-0.1-1.1-1.9-1.7-4.2-1.5l-43.3,4.1l1.2,12.7L346.4,667.7z"/>
	</g>
</g>
<g id="bookable">
	<polygon id="area-00.0.10-status" class="st7" points="699.5,217.2 929.1,217.2 929.1,424.2 699.7,424.2 	"/>
	<g class="st8">
		<path class="st6" d="M798.4,315v-8.6h5.9v1.5h-4.2v2h3.6v1.5h-3.6v3.7h-1.7V315z"/>
		<path class="st6" d="M807.3,315h-1.6v-6.2h1.5v0.9c0.3-0.4,0.5-0.7,0.7-0.8s0.4-0.2,0.7-0.2c0.4,0,0.7,0.1,1.1,0.3l-0.5,1.4
			c-0.3-0.2-0.5-0.3-0.8-0.3c-0.2,0-0.4,0.1-0.6,0.2s-0.3,0.4-0.4,0.7s-0.1,1-0.1,2.1L807.3,315L807.3,315z"/>
		<path class="st6" d="M810.4,307.9v-1.5h1.6v1.5H810.4z M810.4,315v-6.2h1.6v6.2H810.4z"/>
		<path class="st6" d="M813.6,315.4l1.9,0.2c0,0.2,0.1,0.4,0.2,0.5c0.2,0.1,0.4,0.2,0.7,0.2c0.4,0,0.8-0.1,1-0.2
			c0.1-0.1,0.3-0.2,0.3-0.4c0.1-0.1,0.1-0.4,0.1-0.8V314c-0.5,0.7-1.1,1-1.9,1c-0.8,0-1.5-0.4-2-1.1c-0.4-0.6-0.6-1.3-0.6-2.1
			c0-1,0.3-1.8,0.8-2.4s1.1-0.8,1.9-0.8c0.8,0,1.4,0.3,1.9,1v-0.9h1.5v5.6c0,0.7-0.1,1.3-0.2,1.6s-0.3,0.6-0.5,0.9s-0.5,0.4-0.9,0.5
			s-0.8,0.2-1.4,0.2c-1.1,0-1.8-0.2-2.2-0.5s-0.7-0.8-0.7-1.4C813.6,315.6,813.6,315.5,813.6,315.4z M815,311.8
			c0,0.7,0.1,1.1,0.4,1.5s0.6,0.5,0.9,0.5c0.4,0,0.7-0.2,1-0.5s0.4-0.8,0.4-1.4s-0.1-1.1-0.4-1.4s-0.6-0.5-1-0.5s-0.7,0.2-1,0.5
			S815,311.1,815,311.8z"/>
		<path class="st6" d="M820.9,315.4l1.9,0.2c0,0.2,0.1,0.4,0.2,0.5c0.2,0.1,0.4,0.2,0.7,0.2c0.4,0,0.8-0.1,1-0.2
			c0.1-0.1,0.3-0.2,0.3-0.4c0.1-0.1,0.1-0.4,0.1-0.8V314c-0.5,0.7-1.1,1-1.9,1c-0.8,0-1.5-0.4-2-1.1c-0.4-0.6-0.6-1.3-0.6-2.1
			c0-1,0.3-1.8,0.8-2.4s1.1-0.8,1.9-0.8c0.8,0,1.4,0.3,1.9,1v-0.9h1.5v5.6c0,0.7-0.1,1.3-0.2,1.6s-0.3,0.6-0.5,0.9s-0.5,0.4-0.9,0.5
			s-0.8,0.2-1.4,0.2c-1.1,0-1.8-0.2-2.2-0.5s-0.7-0.8-0.7-1.4C820.9,315.6,820.9,315.5,820.9,315.4z M822.4,311.8
			c0,0.7,0.1,1.1,0.4,1.5s0.6,0.5,0.9,0.5c0.4,0,0.7-0.2,1-0.5s0.4-0.8,0.4-1.4s-0.1-1.1-0.4-1.4s-0.6-0.5-1-0.5s-0.7,0.2-1,0.5
			S822.4,311.1,822.4,311.8z"/>
	</g>
</g>
<g id="outline">
	<polygon class="st9" points="45.5,86.7 2182.7,86.7 2182.7,687.2 1459.8,727.5 1443.9,953.7 1272.4,964.3 1271.3,947.5 
		921.6,967.5 921.6,900.1 768.4,887.6 156,960 	"/>
	<polyline class="st10" points="533.5,462.5 489.1,464.9 490.7,477.1 485.2,439.5 396.1,450.6 413.1,575.3 548.9,560.7 	"/>
	<line class="st10" x1="421" y1="628" x2="437.6" y2="767.4"/>
	<path class="st10" d="M484.9,623.9l9.9,76.4c0,0,5.9,11.4,26.8,7"/>
	<path class="st10" d="M548.9,704.7c0,0,26.7,0.7,26-14s-7.3-75.3-7.3-75.3"/>
	<line class="st10" x1="570.7" y1="644.6" x2="616.6" y2="657.2"/>
	<polyline class="st10" points="603.8,552 591.6,448.6 610,441.6 622.6,460.8 	"/>
	<polyline class="st10" points="687.6,429.8 699.7,424.2 1097.8,424.2 1097.8,503.2 1241.2,503.2 1241.2,623.9 976.3,623.9 
		976.3,592.5 933.9,592.5 933.9,607.8 786.8,607.8 798.5,724.9 671.2,741 653.7,595.3 609.8,600.2 627.6,748.7 135.4,797.2 	"/>
	<line class="st10" x1="627.6" y1="748.7" x2="646.4" y2="902"/>
	<polyline class="st10" points="699.5,281 699.7,424.2 929.1,424.2 929.1,217.2 964.8,217.2 699.5,217.2 699.5,246.2 699.5,169.4 
		688.3,169.4 	"/>
	<polyline class="st10" points="666.4,169.4 650,169.4 650,244.2 699.5,244.2 699.5,250.3 	"/>
	<polyline class="st10" points="781.9,424.2 781.9,520.3 880,520.3 880,451 1073.6,451 1073.6,502.2 1097.8,502.2 	"/>
	<line class="st10" x1="760.3" y1="424.2" x2="760.3" y2="538.7"/>
	<line class="st10" x1="653.7" y1="595.3" x2="675.2" y2="593"/>
	<polyline class="st10" points="993.8,218.6 1006,218.6 1006,235.7 1006,169.4 1127.1,169.4 1097.8,169.4 1097.8,429.2 
		1097.8,342.8 1124.1,342.8 	"/>
	<polyline class="st10" points="1097.8,332.7 1005.2,332.7 1005.2,305.7 1005.2,342.3 	"/>
	<polyline class="st10" points="1005.2,265.5 1005.2,284.8 1005.2,275.2 1097.8,275.2 	"/>
	<line class="st10" x1="1005.2" y1="365.1" x2="1005.2" y2="424.2"/>
	<polyline class="st10" points="1156.5,169.4 1678.6,169.4 1678.6,159 	"/>
	<polyline class="st10" points="1678.6,164.2 1693.2,155.2 1693.2,425.9 1390.5,425.9 1390.5,398.8 1419.5,398.8 1419.5,391.3 	"/>
	<polyline class="st10" points="1420.2,358.2 1420.2,169.4 1336,169.4 1336,425.9 1345.1,425.9 1180.8,425.9 1180.8,448.8 
		1164.6,448.8 1164.6,503.2 	"/>
	<polyline class="st10" points="1156.3,342.3 1176.6,342.3 1176.6,398.4 1176.6,169.4 	"/>
	<polyline class="st10" points="1176.6,398.4 1176.6,425.9 1185.4,425.9 	"/>
	<polyline class="st10" points="1752.2,385.8 1752.2,425.9 1693.2,425.9 1791.4,425.9 1787.2,119.6 1794.7,708.9 	"/>
	<polyline class="st10" points="1678.6,119.6 1678.6,131.7 1696.3,114 1787.2,114 1787.2,155.2 1744.3,155.2 1744.3,244.1 
		1693.2,244.1 1693.2,287.5 1752.2,287.5 1752.2,328.2 	"/>
	<polyline class="st10" points="1678.6,131.7 1678.6,86.7 1552.1,86.7 1435.6,86.7 1435.6,124 	"/>
	<line class="st10" x1="1552.1" y1="169.4" x2="1552.1" y2="86.7"/>
</g>
<g id="icons">
	<g id="Toilet">
		<g>
			<path class="st11" d="M953.4,357.6v-7.2h-2.7v-1h6.6v1h-2.7v7.2H953.4z"/>
		</g>
		<g>
			<path class="st11" d="M956.5,354.6c-0.1-0.9,0.2-1.8,0.9-2.4c0.6-0.4,1.2-0.6,1.9-0.6c0.8,0,1.5,0.3,2.1,0.8
				c0.5,0.6,0.8,1.4,0.8,2.2c0,0.6-0.1,1.2-0.4,1.8c-0.2,0.4-0.6,0.8-1,1c-0.4,0.3-0.9,0.4-1.4,0.4c-0.8,0-1.5-0.3-2.1-0.8
				C956.8,356.3,956.5,355.5,956.5,354.6z M957.7,354.6c-0.1,0.6,0.1,1.2,0.5,1.7c0.7,0.7,1.9,0.7,2.6,0c0.4-0.5,0.6-1.2,0.5-1.8
				c0.1-0.6-0.1-1.2-0.5-1.7c-0.7-0.7-1.9-0.7-2.6,0C957.8,353.3,957.6,354,957.7,354.6z"/>
			<path class="st11" d="M963.3,350.5v-1.2h1v1.2H963.3z M963.3,357.6v-5.9h1v5.9H963.3z"/>
			<path class="st11" d="M965.9,357.6v-8.2h1v8.2H965.9z"/>
			<path class="st11" d="M972.6,355.7l1,0.1c-0.1,0.6-0.5,1.1-0.9,1.4c-0.5,0.4-1.1,0.6-1.7,0.5c-0.8,0-1.5-0.2-2.1-0.8
				c-1-1.4-1-3.3,0-4.6c0.5-0.5,1.3-0.8,2.1-0.8c0.7,0,1.4,0.3,1.9,0.8c0.6,0.6,0.8,1.5,0.8,2.3v0.3h-4.5c0,0.6,0.2,1.1,0.5,1.5
				s0.8,0.5,1.3,0.5c0.3,0,0.6-0.1,0.9-0.3C972.2,356.4,972.4,356,972.6,355.7z M969.3,354h3.3c0-1-0.7-1.8-1.7-1.8
				c-0.5-0.1-0.9,0.1-1.2,0.5C969.4,353,969.3,353.5,969.3,354L969.3,354z"/>
			<path class="st11" d="M977.1,356.7l0.1,0.9c-0.3,0-0.5,0.1-0.8,0.1s-0.6,0-0.9-0.1c-0.3-0.1-0.4-0.3-0.4-0.5
				c-0.1-0.4-0.2-0.8-0.1-1.2v-3.5h-0.8v-0.8h0.8v-1.4l1-0.6v2.1h1v0.8h-1v4c0,0.1,0.1,0.1,0.1,0.3s0.3,0.1,0.4,0.1
				C976.7,356.7,976.9,356.7,977.1,356.7z"/>
		</g>
		<circle class="st12" cx="964.1" cy="320" r="24.9"/>
		<g id="Outline_Icons-4">
			<path class="st13" d="M973.1,319.6c0,0.6-0.4,1-1,1l0,0h-5v-11c0-1.1,0.9-2,2-2.1c0,0,0,0,0.1,0h2.1c1.1,0,2,0.9,2.1,2
				c0,0,0,0,0,0.1L973.1,319.6L973.1,319.6z"/>
			<path class="st13" d="M959.1,330.5h10v-6.1l3-2.1v-2.1h-17c-0.1,2.6,1.9,4.8,4.5,5h0.3L959.1,330.5z"/>
			<rect x="954.1" y="318.5" class="st13" width="13" height="2.1"/>
			<circle class="st13" cx="970.6" cy="311.1" r="1"/>
		</g>
	</g>
	<g id="kitchen-2">
		<circle class="st12" cx="520.4" cy="229.8" r="24.2"/>
		<g>
			<path class="st11" d="M504.9,265.2v-8h1v7.1h3.9v0.9H504.9z"/>
			<path class="st11" d="M510.7,262.3c-0.1-0.9,0.2-1.7,0.9-2.3c0.5-0.4,1.1-0.6,1.8-0.6s1.4,0.3,1.9,0.8c0.5,0.6,0.8,1.4,0.8,2.2
				c0,0.6-0.1,1.2-0.4,1.8c-0.2,0.4-0.6,0.8-1,1c-1.1,0.6-2.4,0.5-3.3-0.4C510.9,264,510.7,263.2,510.7,262.3z M511.6,262.3
				c-0.1,0.6,0.1,1.2,0.5,1.7c0.3,0.3,0.7,0.5,1.2,0.5c0.5,0.1,0.9-0.1,1.2-0.5c0.7-1,0.7-2.3,0-3.3c-0.3-0.3-0.7-0.5-1.2-0.5
				c-0.5-0.1-0.9,0.1-1.2,0.5C511.7,261.2,511.5,261.8,511.6,262.3L511.6,262.3z"/>
			<path class="st11" d="M520.9,265.2v-0.9c-0.4,0.6-1.1,1-1.8,1c-0.3,0-0.6-0.1-0.9-0.3c-0.3-0.1-0.5-0.3-0.6-0.5
				c-0.2-0.2-0.3-0.5-0.3-0.8v-4.5h1v4.2c0,0.3,0.1,0.5,0.4,0.6c0.2,0.2,0.5,0.3,0.8,0.3s0.5-0.1,0.8-0.3c0.2-0.2,0.4-0.4,0.5-0.6
				c0.1-0.4,0.2-0.8,0.1-1.2v-3.1h1v5.8h-1V265.2L520.9,265.2z"/>
			<path class="st11" d="M523.4,265.2v-5.8h0.9v0.8c0.4-0.6,1.1-1,1.8-0.9c0.3,0,0.6,0,0.9,0.1c0.3,0.1,0.5,0.3,0.6,0.5
				c0.2,0.2,0.3,0.5,0.3,0.8v4.5h-1v-3.5c0-0.3,0-0.6-0.1-0.9c-0.1-0.2-0.2-0.4-0.4-0.5s-0.4-0.1-0.6-0.1c-0.4,0-0.7,0.1-1,0.4
				c-0.4,0.4-0.5,1-0.5,1.5v3.1H523.4z"/>
			<path class="st11" d="M529.3,265.7l0.9,0.1c0,0.3,0.1,0.5,0.4,0.6c0.6,0.3,1.4,0.3,2.1,0c0.3-0.2,0.5-0.5,0.5-0.8
				s0.1-0.6,0.1-1.3c-0.4,0.5-0.9,0.8-1.5,0.8c-0.7,0.1-1.4-0.3-1.8-0.9c-0.4-0.6-0.6-1.3-0.6-2.1c0-0.5,0.1-1,0.3-1.5
				c0.2-0.4,0.5-0.8,0.9-1c0.4-0.3,0.8-0.4,1.3-0.4c0.6,0,1.3,0.3,1.7,0.8v-0.6h0.9v5c0,0.7-0.1,1.3-0.3,1.9
				c-0.2,0.4-0.5,0.7-0.9,0.9c-0.4,0.3-0.9,0.4-1.4,0.4c-0.6,0-1.2-0.1-1.7-0.5C529.6,266.8,529.3,266.3,529.3,265.7z M530.1,262.2
				c-0.1,0.6,0.1,1.2,0.5,1.7c0.3,0.4,0.7,0.6,1.2,0.5c0.4,0,0.9-0.2,1.2-0.5c0.4-0.5,0.6-1.1,0.5-1.7c0.1-0.6-0.1-1.1-0.5-1.5
				c-0.3-0.4-0.7-0.6-1.2-0.5c-0.4,0-0.9,0.2-1.2,0.5C530.2,261.1,530,261.7,530.1,262.2L530.1,262.2z"/>
			<path class="st11" d="M539.6,263.4l1,0.1c-0.1,0.6-0.5,1-0.9,1.4c-0.5,0.4-1.1,0.6-1.7,0.5c-0.8,0-1.5-0.2-2.1-0.8
				c-0.5-0.6-0.8-1.4-0.8-2.2c0-0.8,0.2-1.7,0.8-2.3c0.5-0.6,1.2-0.9,1.9-0.8c0.7,0,1.4,0.3,1.9,0.8c0.5,0.6,0.8,1.4,0.8,2.2v0.3
				h-4.2c0,0.5,0.2,1,0.5,1.4c0.3,0.3,0.7,0.5,1.2,0.5c0.3,0,0.6-0.1,0.9-0.3C539.3,264.1,539.5,263.7,539.6,263.4z M536.4,261.7
				h3.2c0-0.5-0.1-0.9-0.4-1c-0.3-0.3-0.7-0.5-1.2-0.5c-0.4,0-0.8,0.1-1.2,0.4C536.5,260.8,536.5,261.2,536.4,261.7L536.4,261.7z"/>
		</g>
		<g>
			<path class="st11" d="M510.8,278.5l3.1-8h1.2l3.2,8h-1.2l-0.9-2.4h-3.3l-0.9,2.4H510.8z M513.1,275.2h2.7L515,273
				c-0.2-0.5-0.4-1.1-0.5-1.7c-0.1,0.5-0.3,1-0.4,1.5L513.1,275.2z"/>
			<path class="st11" d="M519,278.5v-5.8h0.9v0.9c0.3-0.4,0.4-0.6,0.6-0.8s0.4-0.3,0.6-0.3c0.4,0,0.7,0.1,1,0.3l-0.4,0.9
				c-0.2-0.1-0.5-0.2-0.8-0.3c-0.3,0-0.4,0-0.5,0.1c-0.2,0.1-0.3,0.3-0.4,0.5c-0.1,0.4-0.1,0.8-0.1,1.2v3h-1L519,278.5L519,278.5z"
				/>
			<path class="st11" d="M526.6,276.6l1,0.1c-0.1,0.6-0.5,1.1-0.9,1.4c-0.5,0.4-1.1,0.6-1.7,0.5c-0.8,0-1.5-0.2-2.1-0.8
				c-0.5-0.6-0.8-1.4-0.8-2.2c0-0.8,0.2-1.7,0.8-2.3c0.5-0.6,1.2-0.9,1.9-0.8c0.7,0,1.4,0.3,1.9,0.8c0.5,0.6,0.8,1.4,0.8,2.2v0.3
				h-4.2c0,0.5,0.2,1,0.5,1.4c0.3,0.3,0.7,0.5,1.2,0.5c0.3,0,0.6-0.1,0.9-0.3C526.3,277.4,526.5,277.1,526.6,276.6z M523.4,275.1
				h3.2c0-0.5-0.1-0.9-0.4-1c-0.3-0.3-0.7-0.5-1.2-0.5c-0.4,0-0.8,0.1-1.2,0.4C523.5,274.2,523.5,274.6,523.4,275.1L523.4,275.1z"/>
			<path class="st11" d="M532.6,277.8c-0.3,0.2-0.7,0.4-1,0.6c-0.3,0.1-0.7,0.1-1,0.1c-0.5,0.1-1.1-0.1-1.4-0.5
				c-0.4-0.3-0.6-0.7-0.5-1.2c0-0.3,0.1-0.5,0.1-0.8s0.3-0.4,0.5-0.5s0.4-0.3,0.6-0.3c0.3-0.1,0.6-0.1,0.9-0.1
				c0.6-0.1,1.2-0.2,1.8-0.4v-0.3c0-0.3-0.1-0.6-0.3-0.9c-0.3-0.3-0.7-0.4-1.2-0.4c-0.4,0-0.7,0.1-1,0.3c-0.3,0.1-0.4,0.4-0.5,0.9
				l-0.9-0.1c0.1-0.4,0.2-0.7,0.4-1c0.3-0.2,0.6-0.5,0.9-0.6c0.4-0.2,0.8-0.2,1.3-0.3c0.6-0.1,1.3,0.1,1.8,0.5
				c0.2,0.2,0.3,0.4,0.3,0.6v3.9c0,0.2,0.1,0.5,0.3,0.6h-1C532.8,278.3,532.6,278,532.6,277.8z M532.5,275.6c-0.5,0.2-1,0.3-1.5,0.4
				c-0.3,0-0.6,0.1-0.9,0.3c-0.1,0.1-0.3,0.1-0.4,0.3s-0.1,0.3-0.1,0.5s0.1,0.5,0.3,0.6c0.3,0.2,0.6,0.3,0.9,0.3
				c0.4,0,0.7-0.1,1-0.3c0.3-0.1,0.5-0.4,0.6-0.6c0.1-0.3,0.2-0.7,0.1-1L532.5,275.6z"/>
		</g>
		<line class="st14" x1="519.5" y1="225.2" x2="520.6" y2="226.2"/>
		<line class="st14" x1="519.5" y1="228" x2="520.6" y2="226.9"/>
		<line class="st14" x1="514.8" y1="237.8" x2="514.8" y2="239.7"/>
		<line class="st14" x1="527" y1="237.8" x2="527" y2="239.7"/>
		<path class="st14" d="M529.8,236c0,1-0.7,1.8-1.7,1.8H528h-14.1c-1,0-1.8-0.8-1.9-1.8l0,0v-1.5c0-0.8,0.5-1.5,1.3-1.8
			c4.9-1.9,10.3-1.9,15.2,0c0.8,0.3,1.3,1,1.3,1.8V236z"/>
		<path class="st14" d="M529.7,233.9c1.5-0.5,2.3-2.1,1.8-3.6s-2.1-2.3-3.6-1.8s-2.3,2-1.9,3.5"/>
		<path class="st14" d="M515.7,232c0.4-1.5-0.4-3-1.9-3.5c-1.5-0.4-3,0.4-3.5,1.9c-0.4,1.4,0.4,3,1.8,3.5"/>
		<path class="st14" d="M529,228.4c1.1-4.5-1.7-9.1-6.2-10.2s-9.1,1.7-10.2,6.2l0,0c-0.3,1.3-0.3,2.6,0,3.9"/>
		<line class="st14" x1="521.2" y1="226.9" x2="522.4" y2="228"/>
		<line class="st14" x1="521.2" y1="226.2" x2="522.4" y2="225.2"/>
		<path class="st14" d="M521.3,226.6c0,0.3-0.2,0.5-0.5,0.5l0,0c-0.3,0-0.5-0.2-0.5-0.5l0,0c0-0.3,0.2-0.5,0.5-0.5l0,0
			C521.1,226.1,521.3,226.3,521.3,226.6C521.3,226.5,521.3,226.6,521.3,226.6z"/>
	</g>
	<g id="stairs-4-2-3-5">
		<circle class="st12" cx="1756" cy="236.5" r="24"/>
		<g>
			<path class="st11" d="M1742.9,272.5l1-0.1c0,0.4,0.1,0.8,0.4,1c0.2,0.3,0.4,0.5,0.8,0.6s0.8,0.2,1.2,0.3c0.3,0,0.7,0,1-0.1
				s0.5-0.3,0.6-0.5c0.1-0.3,0.3-0.4,0.3-0.6s-0.1-0.5-0.3-0.6c-0.2-0.2-0.5-0.4-0.8-0.5c-0.5-0.2-0.9-0.3-1.4-0.4s-1.1-0.3-1.5-0.5
				s-0.7-0.4-0.9-0.8c-0.2-0.3-0.2-0.7-0.3-1c0-0.4,0.1-0.8,0.4-1.2c0.2-0.4,0.6-0.7,1-0.8c0.5-0.2,0.9-0.2,1.4-0.3
				c0.5,0,1,0.1,1.5,0.3c0.4,0.2,0.7,0.4,1,0.8s0.4,0.8,0.4,1.3l-1,0.1c0-0.4-0.2-0.9-0.5-1.2c-0.4-0.3-0.9-0.4-1.4-0.4
				s-1,0.1-1.4,0.4c-0.2,0.2-0.4,0.5-0.4,0.8c0,0.2,0.1,0.5,0.3,0.6c0.5,0.3,1,0.4,1.5,0.5c0.6,0.1,1.2,0.3,1.8,0.5
				c0.4,0.2,0.7,0.5,1,0.8s0.4,0.7,0.4,1.2c0,0.4-0.1,0.8-0.4,1.2c-0.3,0.4-0.6,0.7-1,0.9c-0.5,0.2-1,0.3-1.5,0.3
				c-0.6,0-1.2-0.1-1.8-0.3c-0.5-0.1-0.9-0.5-1.2-0.9C1743,273.4,1743,272.9,1742.9,272.5z"/>
			<path class="st11" d="M1752.6,274.2l0.1,0.9c-0.3,0-0.5,0.1-0.8,0.1c-0.4,0-0.6,0-0.8-0.1s-0.4-0.3-0.4-0.4
				c-0.1-0.1-0.1-0.5-0.1-1.2v-3.2h-0.8v-0.8h0.8v-1.4l0.9-0.6v1.9h1v0.8h-1v3.9c0,0.1,0.1,0.1,0.1,0.1l0,0c0.1,0,0.1,0.1,0.4,0.1
				C1752.2,274.2,1752.4,274.2,1752.6,274.2z"/>
			<path class="st11" d="M1757.4,274.3c-0.3,0.3-0.7,0.5-1,0.6s-0.7,0.1-1,0.1c-0.5,0.1-1.1-0.1-1.4-0.5c-0.4-0.3-0.6-0.7-0.5-1.2
				c0-0.3,0-0.5,0.1-0.8c0.1-0.2,0.3-0.4,0.5-0.5c0.3-0.1,0.4-0.3,0.6-0.3c0.3-0.1,0.6-0.1,0.9-0.1c0.6-0.1,1.1-0.2,1.7-0.4v-0.3
				c0-0.3-0.1-0.6-0.3-0.8c-0.3-0.3-0.7-0.4-1.2-0.4c-0.4,0-0.7,0.1-1,0.3c-0.3,0.1-0.4,0.4-0.5,0.9l-0.9-0.1c0.1-0.4,0.2-0.7,0.4-1
				c0.3-0.2,0.6-0.4,0.9-0.5c0.4-0.2,0.8-0.2,1.3-0.3c0.4,0,0.8,0,1.2,0.1c0.2,0.1,0.4,0.2,0.6,0.4c0.2,0.2,0.3,0.4,0.3,0.6v3.9
				c0,0.2,0.1,0.5,0.3,0.6h-1C1757.4,274.8,1757.4,274.6,1757.4,274.3z M1757.2,272.1c-0.5,0.2-1,0.3-1.5,0.4
				c-0.4,0-0.6,0.1-0.9,0.1c-0.1,0.1-0.3,0.1-0.4,0.3s-0.1,0.3-0.1,0.5s0.1,0.5,0.3,0.6c0.3,0.2,0.6,0.2,0.9,0.3
				c0.4,0,0.7-0.1,1-0.3c0.3-0.1,0.5-0.4,0.6-0.6c0.1-0.3,0.2-0.7,0.1-1V272.1z"/>
			<path class="st11" d="M1759.7,268.2V267h1v1.2H1759.7z M1759.7,274.9v-5.7h1v5.7H1759.7z"/>
			<path class="st11" d="M1762.1,274.9v-5.7h0.9v0.9c0.3-0.4,0.4-0.6,0.6-0.8s0.4-0.3,0.6-0.3c0.4,0,0.7,0.1,1,0.3l-0.4,0.9
				c-0.2-0.1-0.4-0.2-0.6-0.3c-0.3,0-0.4,0-0.5,0.1c-0.2,0.1-0.3,0.3-0.4,0.5c-0.1,0.4-0.2,0.8-0.1,1.2v3L1762.1,274.9L1762.1,274.9
				z"/>
			<path class="st11" d="M1765.5,273.3l0.9-0.1c0,0.3,0.2,0.6,0.4,0.9c0.1,0.3,0.6,0.3,1,0.3s0.7-0.1,1-0.3c0.2-0.1,0.4-0.4,0.4-0.6
				s-0.1-0.4-0.3-0.5c-0.3-0.2-0.7-0.3-1-0.4c-0.5-0.1-1-0.3-1.4-0.5c-0.3-0.1-0.5-0.3-0.6-0.5s-0.2-0.5-0.3-0.8
				c0-0.2,0-0.5,0.1-0.6c0.1-0.2,0.3-0.4,0.5-0.5c0.2-0.2,0.4-0.3,0.6-0.3c0.3,0,0.5-0.1,0.8-0.1c0.4,0,0.8,0.1,1.2,0.3
				c0.3,0.1,0.6,0.3,0.8,0.5c0.2,0.3,0.3,0.6,0.4,0.9l-0.9,0.1c0-0.3-0.1-0.5-0.4-0.6c-0.3-0.2-0.6-0.3-0.9-0.3s-0.6,0.1-0.9,0.3
				c-0.2,0.1-0.3,0.3-0.3,0.5c0,0.1,0,0.3,0.1,0.4s0.3,0.1,0.4,0.3c0.1,0,0.4,0.1,0.9,0.3c0.6,0.1,1.2,0.4,1.4,0.4
				c0.3,0.1,0.5,0.3,0.6,0.5s0.2,0.5,0.3,0.8c0,0.3-0.1,0.6-0.3,0.9c-0.2,0.3-0.5,0.5-0.8,0.6c-0.4,0.2-0.8,0.2-1.2,0.3
				c-0.6,0.1-1.2-0.1-1.7-0.5C1765.8,274.3,1765.5,273.9,1765.5,273.3z"/>
		</g>
		<g id="Outline_Icons-2-2-4-2-3-5">
			<line class="st15" x1="1745.1" y1="245.9" x2="1763.9" y2="245.9"/>
			<polyline class="st15" points="1760.6,245.9 1760.6,242.6 1757.4,242.6 1757.4,239.4 1754.2,239.4 1754.2,236.2 1750.9,236.2 
				1750.9,232.9 1745.1,232.9 			"/>
			<line class="st15" x1="1754.9" y1="227.1" x2="1765.2" y2="237.4"/>
			<polyline class="st15" points="1754.9,231.3 1754.9,227.1 1759.1,227.1 			"/>
			<polyline class="st15" points="1765.2,233.3 1765.2,237.4 1761.1,237.4 			"/>
		</g>
	</g>
	<g id="Toilet-2">
		<g>
			<path class="st11" d="M446.6,538.8v-7.2h-2.7v-1h6.6v1h-2.7v7.2H446.6z"/>
		</g>
		<g>
			<path class="st11" d="M449.7,535.8c-0.1-0.9,0.2-1.8,0.9-2.4c0.6-0.4,1.2-0.6,1.9-0.6c0.8,0,1.5,0.3,2.1,0.8
				c0.5,0.6,0.8,1.4,0.8,2.2c0,0.6-0.1,1.2-0.4,1.8c-0.2,0.4-0.6,0.8-1,1c-0.4,0.3-0.9,0.4-1.4,0.4c-0.8,0-1.5-0.3-2.1-0.8
				C449.9,537.5,449.6,536.6,449.7,535.8z M450.8,535.8c-0.1,0.6,0.1,1.2,0.5,1.7c0.7,0.7,1.9,0.7,2.6,0c0.4-0.5,0.6-1.2,0.5-1.8
				c0.1-0.6-0.1-1.2-0.5-1.7c-0.7-0.7-1.9-0.7-2.6,0C451,534.5,450.8,535.1,450.8,535.8z"/>
			<path class="st11" d="M456.5,531.6v-1.2h1v1.2H456.5z M456.5,538.8v-5.9h1v5.9H456.5z"/>
			<path class="st11" d="M459.1,538.8v-8.2h1v8.2H459.1z"/>
			<path class="st11" d="M465.8,536.8l1,0.1c-0.1,0.6-0.5,1.1-0.9,1.4c-0.5,0.4-1.1,0.6-1.7,0.5c-0.8,0-1.5-0.2-2.1-0.8
				c-1-1.4-1-3.3,0-4.6c0.5-0.5,1.3-0.8,2.1-0.8c0.7,0,1.4,0.3,1.9,0.8c0.6,0.6,0.8,1.5,0.8,2.3v0.3h-4.5c0,0.6,0.2,1.1,0.5,1.5
				s0.8,0.5,1.3,0.5c0.3,0,0.6-0.1,0.9-0.3S465.6,537.1,465.8,536.8z M462.4,535.1h3.3c0-1-0.7-1.8-1.7-1.8
				c-0.5-0.1-0.9,0.1-1.2,0.5C462.6,534.1,462.4,534.6,462.4,535.1L462.4,535.1z"/>
			<path class="st11" d="M470.3,537.8l0.1,0.9c-0.3,0-0.5,0.1-0.8,0.1s-0.6,0-0.9-0.1c-0.3-0.1-0.4-0.3-0.4-0.5
				c-0.1-0.4-0.2-0.8-0.1-1.2v-3.5h-0.8v-0.8h0.8v-1.4l1-0.6v2.1h1v0.8h-1v4c0,0.1,0.1,0.1,0.1,0.3s0.3,0.1,0.4,0.1
				C469.9,537.8,470,537.8,470.3,537.8z"/>
		</g>
		<circle class="st12" cx="457.3" cy="501.1" r="24.9"/>
		<g id="Outline_Icons-4-2">
			<path class="st13" d="M466.3,500.8c0,0.6-0.4,1-1,1l0,0h-5v-11c0-1.1,0.9-2,2-2.1c0,0,0,0,0.1,0h2.1c1.1,0,2,0.9,2.1,2
				c0,0,0,0,0,0.1L466.3,500.8L466.3,500.8z"/>
			<path class="st13" d="M452.3,511.6h10v-6.1l3-2.1v-2.1h-17c-0.1,2.6,1.9,4.8,4.5,5h0.3L452.3,511.6z"/>
			<rect x="447.2" y="499.8" class="st13" width="13" height="2.1"/>
			<circle class="st13" cx="463.7" cy="492.2" r="1"/>
		</g>
	</g>
	<g id="stairs-4-2-3-6">
		<circle class="st12" cx="585.7" cy="579.1" r="24"/>
		<g>
			<path class="st11" d="M572.7,615l1-0.1c0,0.4,0.1,0.8,0.4,1c0.2,0.3,0.4,0.5,0.8,0.6c0.4,0.1,0.8,0.2,1.2,0.3c0.3,0,0.7,0,1-0.1
				s0.5-0.3,0.6-0.5c0.1-0.3,0.3-0.4,0.3-0.6c0-0.2-0.1-0.5-0.3-0.6c-0.2-0.2-0.5-0.4-0.8-0.5c-0.5-0.2-0.9-0.3-1.4-0.4
				c-0.5-0.1-1.1-0.3-1.5-0.5s-0.7-0.4-0.9-0.8c-0.2-0.3-0.2-0.7-0.3-1c0-0.4,0.1-0.8,0.4-1.2c0.2-0.4,0.6-0.7,1-0.8
				c0.5-0.2,0.9-0.2,1.4-0.3c0.5,0,1,0.1,1.5,0.3c0.4,0.2,0.7,0.4,1,0.8c0.3,0.4,0.4,0.8,0.4,1.3l-1,0.1c0-0.4-0.2-0.9-0.5-1.2
				c-0.4-0.3-0.9-0.4-1.4-0.4s-1,0.1-1.4,0.4c-0.2,0.2-0.4,0.5-0.4,0.8c0,0.2,0.1,0.5,0.3,0.6c0.5,0.3,1,0.4,1.5,0.5
				c0.6,0.1,1.2,0.3,1.8,0.5c0.4,0.2,0.7,0.5,1,0.8s0.4,0.7,0.4,1.2c0,0.4-0.1,0.8-0.4,1.2c-0.3,0.4-0.6,0.7-1,0.9
				c-0.5,0.2-1,0.3-1.5,0.3c-0.6,0-1.2-0.1-1.8-0.3c-0.5-0.1-0.9-0.5-1.2-0.9C572.8,615.9,572.7,615.4,572.7,615z"/>
			<path class="st11" d="M582.4,616.7l0.1,0.9c-0.3,0-0.5,0.1-0.8,0.1c-0.4,0-0.6,0-0.8-0.1s-0.4-0.3-0.4-0.4
				c-0.1-0.1-0.1-0.5-0.1-1.2v-3.2h-0.8V612h0.8v-1.4l0.9-0.6v1.9h1v0.8h-1v3.9c0,0.1,0.1,0.1,0.1,0.1l0,0c0.1,0,0.1,0.1,0.4,0.1
				C582,616.7,582.2,616.7,582.4,616.7z"/>
			<path class="st11" d="M587.1,616.8c-0.3,0.3-0.7,0.5-1,0.6s-0.7,0.1-1,0.1c-0.5,0.1-1.1-0.1-1.4-0.5c-0.4-0.3-0.6-0.7-0.5-1.2
				c0-0.3,0-0.5,0.1-0.8c0.1-0.2,0.3-0.4,0.5-0.5c0.3-0.1,0.4-0.3,0.6-0.3c0.3-0.1,0.6-0.1,0.9-0.1c0.6-0.1,1.1-0.2,1.7-0.4v-0.3
				c0-0.3-0.1-0.6-0.3-0.8c-0.3-0.3-0.7-0.4-1.2-0.4c-0.4,0-0.7,0.1-1,0.3c-0.3,0.1-0.4,0.4-0.5,0.9l-0.9-0.1c0.1-0.4,0.2-0.7,0.4-1
				c0.3-0.2,0.6-0.4,0.9-0.5c0.4-0.2,0.8-0.2,1.3-0.3c0.4,0,0.8,0,1.2,0.1c0.2,0.1,0.4,0.2,0.6,0.4c0.2,0.2,0.3,0.4,0.3,0.6v3.9
				c0,0.2,0.1,0.5,0.3,0.6h-1C587.1,617.3,587.1,617.1,587.1,616.8z M587,614.6c-0.5,0.2-1,0.3-1.5,0.4c-0.4,0-0.6,0.1-0.9,0.1
				c-0.1,0.1-0.3,0.1-0.4,0.3s-0.1,0.3-0.1,0.5s0.1,0.5,0.3,0.6c0.3,0.2,0.6,0.2,0.9,0.3c0.4,0,0.7-0.1,1-0.3
				c0.3-0.1,0.5-0.4,0.6-0.6c0.1-0.3,0.2-0.7,0.1-1L587,614.6L587,614.6z"/>
			<path class="st11" d="M589.5,610.7v-1.2h1v1.2H589.5z M589.5,617.4v-5.7h1v5.7H589.5z"/>
			<path class="st11" d="M591.9,617.4v-5.7h0.9v0.9c0.3-0.4,0.4-0.6,0.6-0.8s0.4-0.3,0.6-0.3c0.4,0,0.7,0.1,1,0.3l-0.4,0.9
				c-0.2-0.1-0.4-0.2-0.6-0.3c-0.3,0-0.4,0-0.5,0.1c-0.2,0.1-0.3,0.3-0.4,0.5c-0.1,0.4-0.2,0.8-0.1,1.2v3L591.9,617.4L591.9,617.4z"
				/>
			<path class="st11" d="M595.3,615.8l0.9-0.1c0,0.3,0.2,0.6,0.4,0.9c0.1,0.3,0.6,0.3,1,0.3s0.7-0.1,1-0.3c0.2-0.1,0.4-0.4,0.4-0.6
				c0-0.2-0.1-0.4-0.3-0.5c-0.3-0.2-0.7-0.3-1-0.4c-0.5-0.1-1-0.3-1.4-0.5c-0.3-0.1-0.5-0.3-0.6-0.5s-0.2-0.5-0.3-0.8
				c0-0.2,0-0.5,0.1-0.6c0.1-0.2,0.3-0.4,0.5-0.5c0.2-0.2,0.4-0.3,0.6-0.3c0.3,0,0.5-0.1,0.8-0.1c0.4,0,0.8,0.1,1.2,0.3
				c0.3,0.1,0.6,0.3,0.8,0.5c0.2,0.3,0.3,0.6,0.4,0.9l-0.9,0.1c0-0.3-0.1-0.5-0.4-0.6c-0.3-0.2-0.6-0.3-0.9-0.3
				c-0.3,0-0.6,0.1-0.9,0.3c-0.2,0.1-0.3,0.3-0.3,0.5c0,0.1,0,0.3,0.1,0.4c0.1,0.1,0.3,0.1,0.4,0.3c0.1,0,0.4,0.1,0.9,0.3
				c0.6,0.1,1.2,0.4,1.4,0.4c0.3,0.1,0.5,0.3,0.6,0.5s0.2,0.5,0.3,0.8c0,0.3-0.1,0.6-0.3,0.9c-0.2,0.3-0.5,0.5-0.8,0.6
				c-0.4,0.2-0.8,0.2-1.2,0.3c-0.6,0.1-1.2-0.1-1.7-0.5C595.5,616.8,595.3,616.4,595.3,615.8z"/>
		</g>
		<g id="Outline_Icons-2-2-4-2-3-6">
			<line class="st15" x1="574.9" y1="588.5" x2="593.7" y2="588.5"/>
			<polyline class="st15" points="590.4,588.5 590.4,585.1 587.1,585.1 587.1,581.9 583.9,581.9 583.9,578.7 580.7,578.7 
				580.7,575.4 574.9,575.4 			"/>
			<line class="st15" x1="584.7" y1="569.6" x2="595" y2="580"/>
			<polyline class="st15" points="584.7,573.8 584.7,569.6 588.8,569.6 			"/>
			<polyline class="st15" points="595,575.8 595,580 590.9,580 			"/>
		</g>
	</g>
	<circle class="st12" cx="161.3" cy="483.2" r="25"/>
	<path class="st13" d="M170.2,480.9c1.5-0.2,2.9,0.9,3.1,2.4l0,0v0.8c0,3.5-4.5,3.6-4.5,3.6"/>
	<path class="st13" d="M164.7,471c0.5,0.6,0.6,1.6,0.1,2.3l0,0c-0.5,0.7-0.5,1.6,0,2.3"/>
	<path class="st13" d="M160.8,471c0.5,0.6,0.6,1.6,0.1,2.3l0,0c-0.5,0.7-0.5,1.6,0,2.3"/>
	<path class="st13" d="M156.9,471c0.5,0.6,0.6,1.6,0.1,2.3l0,0c-0.5,0.7-0.5,1.6,0,2.3"/>
	<path class="st13" d="M165.9,493.5H157c-2.1,0-4.1-0.7-5.8-2h20.6C170.1,492.8,168.1,493.5,165.9,493.5z"/>
	<path class="st13" d="M165.3,491.1c1.9-1.2,3.1-3.1,3.5-5.3l1-6.5h-17.2l1,6.5c0.5,2.1,1.7,4,3.5,5.3"/>
	<path class="st11" d="M141.8,524.1v-8.6h1.1v4.3l4.3-4.3h1.5l-3.6,3.5l3.8,5.1h-1.5l-3.1-4.3l-1.4,1.4v3h-1.1L141.8,524.1
		L141.8,524.1z"/>
	<path class="st11" d="M149.7,516.7v-1.2h1.1v1.2H149.7z M149.7,524.1v-6.2h1.1v6.2H149.7z"/>
	<path class="st11" d="M154.6,523.1l0.2,0.9c-0.3,0.1-0.5,0.1-0.8,0.1s-0.6,0-0.9-0.2c-0.2-0.1-0.4-0.3-0.4-0.5
		c-0.1-0.4-0.2-0.8-0.1-1.2v-3.6h-0.8v-0.8h0.8v-1.5l1-0.6v2.2h1.1v0.8h-1.1v3.6c0,0.2,0,0.4,0.1,0.6c0,0.1,0.1,0.2,0.2,0.2
		c0.1,0.1,0.2,0.1,0.4,0.1C154.3,523.2,154.5,523.1,154.6,523.1z"/>
	<path class="st11" d="M159.7,521.8l1,0.1c-0.1,0.6-0.4,1.2-0.9,1.7c-0.5,0.4-1.1,0.6-1.7,0.6c-0.8,0-1.5-0.3-2.1-0.8
		c-0.6-0.7-0.8-1.5-0.8-2.4c0-0.6,0.1-1.2,0.3-1.8c0.2-0.5,0.6-0.9,1-1.1c0.5-0.3,1-0.4,1.5-0.4c0.6,0,1.2,0.2,1.7,0.5
		c0.4,0.4,0.7,0.9,0.8,1.5l-1,0.2c-0.1-0.4-0.2-0.7-0.5-0.9s-0.6-0.3-0.9-0.3c-0.5,0-1,0.2-1.3,0.6c-0.4,0.5-0.6,1.2-0.5,1.8
		c-0.1,0.6,0.1,1.3,0.5,1.8c0.3,0.4,0.8,0.6,1.3,0.6c0.4,0,0.8-0.1,1-0.4C159.5,522.6,159.7,522.2,159.7,521.8z"/>
	<path class="st11" d="M161.7,524.1v-8.6h1.1v3.1c0.5-0.6,1.1-0.9,1.9-0.9c0.4,0,0.8,0.1,1.2,0.3c0.3,0.2,0.6,0.4,0.7,0.8
		c0.2,0.4,0.2,0.9,0.2,1.4v3.9h-1.1v-3.9c0-0.4-0.1-0.8-0.3-1.2c-0.3-0.3-0.6-0.4-1-0.4c-0.3,0-0.6,0.1-0.9,0.2
		c-0.3,0.1-0.5,0.4-0.6,0.7c-0.1,0.4-0.2,0.8-0.2,1.1v3.4L161.7,524.1z"/>
	<path class="st11" d="M172.6,522.1l1.1,0.1c-0.1,0.6-0.5,1.1-1,1.5s-1.1,0.6-1.8,0.5c-0.8,0-1.6-0.3-2.2-0.8
		c-0.6-0.7-0.9-1.5-0.8-2.4c-0.1-0.9,0.2-1.8,0.8-2.4c0.5-0.6,1.3-0.9,2.1-0.9c0.8,0,1.5,0.3,2,0.8c0.6,0.7,0.8,1.5,0.8,2.4
		c0,0.1,0,0.2,0,0.3H169c0,0.6,0.2,1.1,0.6,1.6c0.3,0.4,0.8,0.6,1.3,0.5c0.4,0,0.7-0.1,1-0.3C172.3,522.8,172.5,522.4,172.6,522.1z
		 M169.1,520.3h3.5c0-0.4-0.2-0.8-0.4-1.2c-0.3-0.4-0.8-0.6-1.3-0.6s-0.9,0.2-1.2,0.5C169.3,519.4,169.1,519.9,169.1,520.3
		L169.1,520.3z"/>
	<path class="st11" d="M175,524.1v-6.2h1v0.9c0.4-0.7,1.2-1.1,2-1c0.4,0,0.7,0.1,1,0.2c0.3,0.1,0.5,0.3,0.7,0.5s0.3,0.5,0.3,0.8
		s0.1,0.7,0.1,1v3.8H179v-3.8c0-0.3,0-0.7-0.1-1c-0.1-0.2-0.2-0.4-0.4-0.5c-0.2-0.1-0.5-0.2-0.7-0.2c-0.4,0-0.8,0.1-1.2,0.4
		c-0.4,0.4-0.6,1-0.5,1.6v3.4L175,524.1z"/>
	<path class="st11" d="M324.5,399.8l1.1,0.3c-0.2,0.8-0.6,1.6-1.3,2.1c-0.6,0.5-1.5,0.8-2.3,0.7c-0.8,0-1.6-0.2-2.3-0.6
		c-0.6-0.4-1.1-1-1.3-1.6c-0.3-0.7-0.5-1.5-0.5-2.3s0.2-1.6,0.5-2.3c0.3-0.6,0.8-1.2,1.5-1.5c0.6-0.3,1.4-0.5,2.1-0.5
		c0.8,0,1.5,0.2,2.2,0.7c0.6,0.5,1,1.1,1.2,1.8l-1.1,0.3c-0.1-0.5-0.4-1-0.9-1.4c-0.4-0.3-0.9-0.4-1.4-0.4c-0.6,0-1.2,0.1-1.7,0.5
		c-0.4,0.3-0.8,0.8-0.9,1.3c-0.2,0.5-0.3,1.1-0.3,1.6c0,0.7,0.1,1.3,0.3,1.9c0.2,0.5,0.5,0.9,1,1.2c0.4,0.3,0.9,0.4,1.5,0.4
		s1.2-0.2,1.6-0.5C324.1,401,324.4,400.5,324.5,399.8z"/>
	<path class="st11" d="M331,402.1c-0.3,0.3-0.7,0.5-1.1,0.7c-0.4,0.1-0.8,0.2-1.2,0.2c-0.6,0-1.1-0.1-1.6-0.5
		c-0.4-0.3-0.6-0.8-0.6-1.3c0-0.3,0.1-0.6,0.2-0.8c0.1-0.2,0.3-0.5,0.5-0.6c0.2-0.2,0.5-0.3,0.8-0.3c0.3-0.1,0.6-0.1,0.9-0.2
		c0.6-0.1,1.3-0.2,1.9-0.4c0-0.1,0-0.2,0-0.3c0-0.3-0.1-0.7-0.3-0.9c-0.3-0.3-0.8-0.4-1.2-0.4c-0.4,0-0.8,0.1-1.1,0.3
		c-0.3,0.2-0.5,0.6-0.5,0.9l-1-0.1c0.1-0.4,0.2-0.8,0.5-1.1c0.2-0.3,0.6-0.5,0.9-0.6c0.5-0.2,0.9-0.2,1.4-0.2c0.4,0,0.9,0,1.3,0.2
		c0.3,0.1,0.5,0.3,0.7,0.5s0.3,0.5,0.3,0.7c0,0.3,0.1,0.6,0.1,1v1.4c0,0.6,0,1.2,0.1,1.9c0,0.3,0.1,0.5,0.3,0.7h-1.1
		C331.1,402.6,331,402.3,331,402.1z M330.9,399.7c-0.6,0.2-1.1,0.3-1.7,0.4c-0.3,0-0.6,0.1-0.9,0.2c-0.2,0.1-0.3,0.2-0.4,0.3
		c-0.2,0.4-0.2,0.9,0.2,1.2c0.3,0.2,0.6,0.3,0.9,0.3c0.4,0,0.8-0.1,1.1-0.3c0.3-0.2,0.5-0.4,0.7-0.7c0.1-0.3,0.2-0.7,0.2-1.1
		L330.9,399.7z"/>
	<path class="st11" d="M333.6,402.8v-6.2h0.9v0.9c0.4-0.7,1.2-1.1,2-1c0.4,0,0.7,0.1,1,0.2s0.5,0.3,0.7,0.5s0.3,0.5,0.3,0.8
		s0.1,0.7,0.1,1v3.8h-1.1V399c0-0.3,0-0.7-0.1-1c-0.1-0.2-0.2-0.4-0.4-0.5c-0.2-0.1-0.5-0.2-0.7-0.2c-0.4,0-0.8,0.1-1.2,0.4
		c-0.4,0.4-0.6,1-0.5,1.6v3.4L333.6,402.8z"/>
	<path class="st11" d="M342.6,401.9l0.2,0.9c-0.3,0.1-0.5,0.1-0.8,0.1s-0.6,0-0.9-0.2c-0.2-0.1-0.4-0.3-0.4-0.5
		c-0.1-0.4-0.2-0.8-0.1-1.2v-3.6h-0.8v-0.8h0.8v-1.5l1-0.6v2.2h1.1v0.8h-1.1v3.6c0,0.2,0,0.4,0.1,0.6c0,0.1,0.1,0.2,0.2,0.2
		c0.1,0.1,0.2,0.1,0.4,0.1C342.2,401.9,342.4,401.9,342.6,401.9z"/>
	<path class="st11" d="M347.8,400.8l1.1,0.1c-0.1,0.6-0.5,1.1-1,1.5s-1.1,0.6-1.8,0.5c-0.8,0-1.6-0.3-2.2-0.8
		c-0.6-0.7-0.9-1.5-0.8-2.4c-0.1-0.9,0.2-1.8,0.8-2.4c0.5-0.6,1.3-0.9,2.1-0.9c0.8,0,1.5,0.3,2,0.9c0.6,0.7,0.8,1.5,0.8,2.4
		c0,0.1,0,0.2,0,0.3h-4.6c0,0.6,0.2,1.1,0.6,1.6c0.3,0.4,0.8,0.6,1.3,0.5c0.4,0,0.7-0.1,1-0.3C347.5,401.5,347.7,401.2,347.8,400.8z
		 M344.4,399.1h3.5c0-0.4-0.2-0.8-0.4-1.2c-0.3-0.4-0.8-0.6-1.3-0.6s-0.9,0.2-1.2,0.5C344.6,398.2,344.4,398.6,344.4,399.1
		L344.4,399.1z"/>
	<path class="st11" d="M354.5,400.8l1.1,0.1c-0.1,0.6-0.5,1.1-1,1.5c-1.2,0.8-2.9,0.7-3.9-0.3c-0.6-0.7-0.9-1.5-0.8-2.4
		c-0.1-0.9,0.2-1.8,0.8-2.4c0.5-0.6,1.3-0.9,2.1-0.9c0.8,0,1.5,0.3,2,0.9c0.6,0.7,0.8,1.5,0.8,2.4c0,0.1,0,0.2,0,0.3H351
		c0,0.6,0.2,1.1,0.6,1.6c0.3,0.4,0.8,0.6,1.3,0.5c0.4,0,0.7-0.1,1-0.3C354.2,401.5,354.4,401.2,354.5,400.8z M351.1,399.1h3.5
		c0-0.4-0.2-0.8-0.4-1.2c-0.3-0.4-0.8-0.6-1.3-0.6s-0.9,0.2-1.2,0.5C351.3,398.2,351.1,398.6,351.1,399.1L351.1,399.1z"/>
	<path class="st11" d="M356.9,402.8v-6.2h0.9v0.9c0.4-0.7,1.2-1.1,2-1c0.4,0,0.7,0.1,1,0.2s0.5,0.3,0.7,0.5s0.3,0.5,0.3,0.8
		s0.1,0.7,0.1,1v3.8h-1.1V399c0-0.3,0-0.7-0.1-1c-0.1-0.2-0.2-0.4-0.4-0.5c-0.2-0.1-0.5-0.2-0.7-0.2c-0.4,0-0.8,0.1-1.2,0.4
		c-0.4,0.4-0.6,1-0.5,1.6v3.4L356.9,402.8z"/>
	<g id="Coffee-2">
		
			<ellipse transform="matrix(0.4641 -0.8858 0.8858 0.4641 74.7931 1208.5741)" class="st12" cx="1036.2" cy="542.5" rx="24.3" ry="24.3"/>
		<path class="st16" d="M1042.3,555.5h-10.8l-2-14.5h14.8L1042.3,555.5z M1031.9,555h10l1.9-13.6H1030L1031.9,555z"/>
		<path class="st16" d="M1046.7,541.4H1027V539h19.7V541.4z M1027.5,541h18.8v-1.5h-18.8V541z"/>
		<path class="st16" d="M1040,539.5c-0.1,0-0.2-0.1-0.2-0.2c0-0.1,0-0.2,0.1-0.3l0,0c5.2-1.8,5.8-5.2,5.8-6.2
			c-3.2,0.4-5.9,2.2-7.5,5l0,0l-1.3,1.4c-0.1,0.1-0.2,0.1-0.3,0c-0.1-0.1-0.1-0.2,0-0.3l1.2-1.4c1.7-3,4.7-4.9,8.1-5.3h0.2v0.2
			C1046.2,532.7,1046.4,537.3,1040,539.5L1040,539.5z"/>
		<path class="st16" d="M1035.4,539.5L1035.4,539.5c-4.8-3.6-4.1-7.4-4-7.5v-0.2h0.2c0.1,0,5.4,0.4,7.2,5c0,0.1,0,0.2-0.1,0.3
			s-0.2,0-0.3-0.1l0,0c-1.5-3.9-5.6-4.6-6.6-4.7c-0.1,0.8,0,3.9,3.8,6.9c0.1,0.1,0.1,0.2,0,0.3l0,0
			C1035.6,539.5,1035.5,539.5,1035.4,539.5z"/>
		<path class="st16" d="M1040.9,534.8c-0.1,0-0.2-0.1-0.2-0.2v-0.1c0.8-1.7,1-3.5,0.8-5.3c-0.9,0.4-4.2,1.9-4.9,4.8
			c0,0.1-0.2,0.2-0.3,0.2c-0.1,0-0.2-0.1-0.2-0.3c0.8-3.6,5.2-5.1,5.4-5.2l0.2-0.1l0.1,0.2C1042.2,530.8,1041.9,532.8,1040.9,534.8
			C1041.1,534.7,1041,534.8,1040.9,534.8z"/>
		<path class="st16" d="M1032.7,539.5c-0.1,0-0.1,0-0.2-0.1s-3.2-2.9-4-6.2V533l0.2-0.1c1-0.4,2.1-0.3,3,0.1
			c0.1,0.1,0.1,0.2,0.1,0.3c-0.1,0.1-0.2,0.1-0.3,0.1c-0.8-0.4-1.7-0.4-2.5-0.2c0.8,2.2,2.1,4.2,3.8,5.8c0.1,0.1,0.1,0.2,0,0.3
			C1032.8,539.5,1032.7,539.5,1032.7,539.5L1032.7,539.5z"/>
		<path class="st16" d="M1032.7,532.4c-0.1,0-0.2-0.1-0.2-0.2c-0.4-1.7-0.3-3.5,0.2-5.2l0.1-0.2l0.2,0.1c0.2,0.1,3.9,2.1,4.5,5
			c0,0.1,0,0.2-0.2,0.3c-0.1,0-0.2,0-0.3-0.2l0,0l0,0c-0.5-2.3-3.2-4.1-4.1-4.6c-0.4,1.5-0.4,3.1-0.1,4.7
			C1032.9,532.2,1032.8,532.3,1032.7,532.4L1032.7,532.4L1032.7,532.4L1032.7,532.4z"/>
		<path class="st16" d="M1039.8,529.9c-0.1,0-0.2-0.1-0.2-0.2c-0.2-1.5-0.8-2.9-1.7-4.2c-1.1,0.8-2,2-2.3,3.4c0,0.1-0.2,0.2-0.3,0.1
			s-0.2-0.2-0.1-0.3c0.4-1.5,1.4-2.9,2.7-3.8l0.1-0.1l0.1,0.1c1,1.3,1.7,2.9,1.9,4.5C1040,529.8,1040,529.9,1039.8,529.9
			L1039.8,529.9L1039.8,529.9L1039.8,529.9z"/>
	</g>
	<g class="st8">
		<path class="st17" d="M1023.3,578.8v-6.5h-2.4v-0.9h5.9v0.9h-2.5v6.5H1023.3z"/>
	</g>
	<g class="st8">
		<path class="st17" d="M1030.1,577.1l0.9,0.1c-0.1,0.5-0.4,1-0.8,1.3s-0.9,0.5-1.5,0.5c-0.8,0-1.4-0.2-1.9-0.7s-0.7-1.2-0.7-2
			c0-0.9,0.2-1.6,0.7-2.1s1.1-0.7,1.8-0.7c0.7,0,1.3,0.2,1.8,0.7s0.7,1.2,0.7,2.1c0,0.1,0,0.1,0,0.2h-4c0,0.6,0.2,1,0.5,1.4
			s0.7,0.5,1.1,0.5c0.3,0,0.6-0.1,0.9-0.3S1030,577.5,1030.1,577.1z M1027.1,575.6h3c0-0.5-0.2-0.8-0.3-1c-0.3-0.4-0.7-0.5-1.1-0.5
			s-0.8,0.1-1.1,0.4C1027.3,574.8,1027.2,575.2,1027.1,575.6z"/>
		<path class="st17" d="M1032.2,578.8v-5.4h0.8v0.8c0.2-0.4,0.4-0.6,0.6-0.8c0.2-0.1,0.4-0.2,0.6-0.2c0.3,0,0.6,0.1,0.9,0.3
			l-0.3,0.8c-0.2-0.1-0.4-0.2-0.7-0.2c-0.2,0-0.4,0.1-0.5,0.2c-0.2,0.1-0.3,0.3-0.3,0.5c-0.1,0.3-0.2,0.7-0.2,1.1v2.8h-0.9V578.8z"
			/>
		<path class="st17" d="M1035.6,578.8v-5.4h0.8v0.8c0.2-0.4,0.4-0.6,0.6-0.8c0.2-0.1,0.4-0.2,0.6-0.2c0.3,0,0.6,0.1,0.9,0.3
			l-0.3,0.8c-0.2-0.1-0.4-0.2-0.7-0.2c-0.2,0-0.4,0.1-0.5,0.2c-0.2,0.1-0.3,0.3-0.3,0.5c-0.1,0.3-0.2,0.7-0.2,1.1v2.8h-0.9V578.8z"
			/>
		<path class="st17" d="M1042.6,578.2c-0.3,0.3-0.7,0.5-1,0.6s-0.6,0.2-1,0.2c-0.6,0-1-0.1-1.4-0.4s-0.5-0.7-0.5-1.1
			c0-0.3,0.1-0.5,0.2-0.7s0.3-0.4,0.5-0.5s0.4-0.2,0.7-0.3c0.2,0,0.4-0.1,0.8-0.1c0.7-0.1,1.3-0.2,1.6-0.3c0-0.1,0-0.2,0-0.2
			c0-0.4-0.1-0.6-0.3-0.8c-0.2-0.2-0.6-0.3-1-0.3s-0.7,0.1-0.9,0.2c-0.2,0.2-0.4,0.4-0.5,0.8l-0.9-0.1c0.1-0.4,0.2-0.7,0.4-0.9
			c0.2-0.2,0.5-0.4,0.8-0.5c0.4-0.1,0.8-0.2,1.2-0.2c0.5,0,0.8,0.1,1.1,0.2s0.5,0.2,0.6,0.4s0.2,0.4,0.3,0.6c0,0.2,0,0.4,0,0.8v1.2
			c0,0.8,0,1.4,0.1,1.6c0,0.2,0.1,0.4,0.2,0.6h-1C1042.7,578.7,1042.6,578.4,1042.6,578.2z M1042.5,576.2c-0.3,0.1-0.8,0.2-1.5,0.3
			c-0.4,0.1-0.6,0.1-0.8,0.2c-0.2,0.1-0.3,0.2-0.4,0.3s-0.1,0.3-0.1,0.4c0,0.2,0.1,0.4,0.3,0.6s0.5,0.2,0.8,0.2
			c0.4,0,0.7-0.1,0.9-0.2s0.5-0.4,0.6-0.6c0.1-0.2,0.1-0.5,0.1-0.9L1042.5,576.2L1042.5,576.2z"/>
		<path class="st17" d="M1048.4,576.9l0.9,0.1c-0.1,0.6-0.3,1.1-0.8,1.4c-0.4,0.3-0.9,0.5-1.5,0.5c-0.7,0-1.3-0.2-1.8-0.7
			c-0.4-0.5-0.7-1.2-0.7-2.1c0-0.6,0.1-1.1,0.3-1.5c0.2-0.4,0.5-0.8,0.9-1s0.8-0.3,1.3-0.3c0.6,0,1.1,0.1,1.4,0.4s0.6,0.7,0.7,1.3
			l-0.9,0.1c-0.1-0.4-0.2-0.6-0.4-0.8c-0.2-0.2-0.5-0.3-0.8-0.3c-0.5,0-0.8,0.2-1.1,0.5c-0.3,0.3-0.4,0.8-0.4,1.6
			c0,0.7,0.1,1.2,0.4,1.6s0.6,0.5,1.1,0.5c0.4,0,0.7-0.1,0.9-0.3C1048.1,577.7,1048.3,577.3,1048.4,576.9z"/>
		<path class="st17" d="M1053.7,577.1l0.9,0.1c-0.1,0.5-0.4,1-0.8,1.3s-0.9,0.5-1.5,0.5c-0.8,0-1.4-0.2-1.9-0.7s-0.7-1.2-0.7-2
			c0-0.9,0.2-1.6,0.7-2.1s1.1-0.7,1.8-0.7c0.7,0,1.3,0.2,1.8,0.7s0.7,1.2,0.7,2.1c0,0.1,0,0.1,0,0.2h-4c0,0.6,0.2,1,0.5,1.4
			s0.7,0.5,1.1,0.5c0.3,0,0.6-0.1,0.9-0.3S1053.6,577.5,1053.7,577.1z M1050.7,575.6h3c0-0.5-0.2-0.8-0.3-1
			c-0.3-0.4-0.7-0.5-1.1-0.5s-0.8,0.1-1.1,0.4C1050.9,574.8,1050.8,575.2,1050.7,575.6z"/>
	</g>
	<g class="st8">
		<path class="st17" d="M1513.3,305.7v-7.4h2.8c0.5,0,0.9,0,1.1,0.1c0.4,0.1,0.7,0.2,0.9,0.3c0.2,0.2,0.4,0.4,0.6,0.7
			c0.1,0.3,0.2,0.6,0.2,1c0,0.6-0.2,1.2-0.6,1.6s-1.1,0.7-2.2,0.7h-1.9v3L1513.3,305.7L1513.3,305.7z M1514.2,301.8h1.9
			c0.6,0,1.1-0.1,1.3-0.4c0.3-0.2,0.4-0.6,0.4-1c0-0.3-0.1-0.6-0.2-0.8c-0.2-0.2-0.4-0.4-0.6-0.4s-0.5-0.1-0.9-0.1h-1.9
			L1514.2,301.8L1514.2,301.8z"/>
		<path class="st17" d="M1520,305.7v-5.4h0.8v0.8c0.2-0.4,0.4-0.6,0.6-0.8c0.2-0.1,0.4-0.2,0.6-0.2c0.3,0,0.6,0.1,0.9,0.3l-0.3,0.8
			c-0.2-0.1-0.4-0.2-0.7-0.2c-0.2,0-0.4,0.1-0.5,0.2c-0.2,0.1-0.3,0.3-0.3,0.5c-0.1,0.3-0.2,0.7-0.2,1.1v2.8h-0.9V305.7z"/>
		<path class="st17" d="M1523.2,303c0-1,0.3-1.7,0.8-2.2c0.5-0.4,1-0.6,1.7-0.6s1.3,0.2,1.8,0.7s0.7,1.2,0.7,2
			c0,0.7-0.1,1.2-0.3,1.6c-0.2,0.4-0.5,0.7-0.9,0.9c-0.4,0.2-0.8,0.3-1.3,0.3c-0.8,0-1.4-0.2-1.8-0.7
			C1523.4,304.6,1523.2,303.9,1523.2,303z M1524.1,303c0,0.7,0.1,1.2,0.5,1.5c0.3,0.3,0.7,0.5,1.1,0.5c0.5,0,0.8-0.2,1.1-0.5
			c0.3-0.3,0.4-0.9,0.4-1.6s-0.2-1.2-0.5-1.5s-0.7-0.5-1.1-0.5c-0.5,0-0.8,0.2-1.1,0.5C1524.2,301.8,1524.1,302.3,1524.1,303z"/>
		<path class="st17" d="M1532.7,305.7V305c-0.3,0.5-0.8,0.8-1.5,0.8c-0.4,0-0.8-0.1-1.2-0.4c-0.4-0.2-0.6-0.6-0.8-1
			c-0.2-0.4-0.3-0.9-0.3-1.5c0-0.5,0.1-1,0.3-1.5s0.4-0.8,0.8-1s0.8-0.3,1.2-0.3c0.3,0,0.6,0.1,0.9,0.2s0.5,0.3,0.6,0.5v-2.7h0.9
			v7.4h-0.9V305.7z M1529.9,303c0,0.7,0.1,1.2,0.4,1.5s0.6,0.5,1,0.5s0.7-0.2,1-0.5s0.4-0.8,0.4-1.5s-0.1-1.3-0.4-1.6
			c-0.3-0.3-0.6-0.5-1-0.5s-0.7,0.2-1,0.5S1529.9,302.3,1529.9,303z"/>
		<path class="st17" d="M1538.5,305.7v-0.8c-0.4,0.6-1,0.9-1.7,0.9c-0.3,0-0.6-0.1-0.9-0.2s-0.5-0.3-0.6-0.5s-0.2-0.4-0.3-0.7
			c0-0.2-0.1-0.5-0.1-0.8v-3.3h0.9v3c0,0.5,0,0.8,0.1,1s0.2,0.4,0.4,0.6s0.4,0.2,0.7,0.2c0.3,0,0.5-0.1,0.8-0.2s0.4-0.3,0.5-0.6
			s0.1-0.6,0.1-1v-2.9h0.9v5.4h-0.8V305.7z"/>
		<path class="st17" d="M1544.3,303.7l0.9,0.1c-0.1,0.6-0.3,1.1-0.8,1.4c-0.4,0.3-0.9,0.5-1.5,0.5c-0.7,0-1.3-0.2-1.8-0.7
			c-0.4-0.5-0.7-1.2-0.7-2.1c0-0.6,0.1-1.1,0.3-1.5c0.2-0.4,0.5-0.8,0.9-1s0.8-0.3,1.3-0.3c0.6,0,1.1,0.1,1.4,0.4
			c0.4,0.3,0.6,0.7,0.7,1.3l-0.9,0.1c-0.1-0.4-0.2-0.6-0.4-0.8c-0.2-0.2-0.5-0.3-0.8-0.3c-0.5,0-0.8,0.2-1.1,0.5
			c-0.3,0.3-0.4,0.8-0.4,1.6c0,0.7,0.1,1.2,0.4,1.6s0.6,0.5,1.1,0.5c0.4,0,0.7-0.1,0.9-0.3C1544.1,304.5,1544.2,304.2,1544.3,303.7z
			"/>
		<path class="st17" d="M1547.9,304.9l0.1,0.8c-0.3,0.1-0.5,0.1-0.7,0.1c-0.3,0-0.6-0.1-0.8-0.2c-0.2-0.1-0.3-0.2-0.4-0.4
			s-0.1-0.5-0.1-1.1V301h-0.7v-0.7h0.7V299l0.9-0.5v1.9h0.9v0.7h-0.9v3.1c0,0.3,0,0.4,0,0.5s0.1,0.1,0.2,0.2c0.1,0,0.2,0.1,0.3,0.1
			C1547.6,304.9,1547.8,304.9,1547.9,304.9z"/>
		<path class="st17" d="M1548.8,299.3v-1h0.9v1H1548.8z M1548.8,305.7v-5.4h0.9v5.4H1548.8z"/>
		<path class="st17" d="M1550.8,303c0-1,0.3-1.7,0.8-2.2c0.5-0.4,1-0.6,1.7-0.6s1.3,0.2,1.8,0.7s0.7,1.2,0.7,2
			c0,0.7-0.1,1.2-0.3,1.6c-0.2,0.4-0.5,0.7-0.9,0.9c-0.4,0.2-0.8,0.3-1.3,0.3c-0.8,0-1.4-0.2-1.8-0.7
			C1551,304.6,1550.8,303.9,1550.8,303z M1551.7,303c0,0.7,0.2,1.2,0.5,1.5s0.7,0.5,1.1,0.5c0.5,0,0.8-0.2,1.1-0.5s0.5-0.9,0.5-1.6
			s-0.2-1.2-0.5-1.5s-0.7-0.5-1.1-0.5c-0.5,0-0.8,0.2-1.1,0.5C1551.9,301.8,1551.7,302.3,1551.7,303z"/>
		<path class="st17" d="M1556.9,305.7v-5.4h0.8v0.8c0.4-0.6,1-0.9,1.7-0.9c0.3,0,0.6,0.1,0.9,0.2s0.5,0.3,0.6,0.5s0.2,0.4,0.3,0.7
			c0,0.2,0.1,0.5,0.1,0.9v3.3h-0.9v-3.3c0-0.4,0-0.6-0.1-0.8c-0.1-0.2-0.2-0.3-0.4-0.4c-0.2-0.1-0.4-0.2-0.6-0.2
			c-0.4,0-0.7,0.1-1,0.4c-0.3,0.2-0.4,0.7-0.4,1.4v2.9h-1V305.7z"/>
		<path class="st17" d="M1565.6,305.7v-7.4h3.3c0.7,0,1.2,0.1,1.5,0.2s0.6,0.4,0.8,0.7c0.2,0.3,0.3,0.7,0.3,1.1c0,0.5-0.2,1-0.5,1.3
			c-0.3,0.4-0.9,0.6-1.6,0.7c0.3,0.1,0.5,0.2,0.6,0.4c0.3,0.3,0.6,0.6,0.8,1l1.3,2h-1.2l-1-1.5c-0.3-0.4-0.5-0.8-0.7-1
			s-0.4-0.4-0.5-0.5s-0.3-0.2-0.4-0.2s-0.3,0-0.5,0h-1.1v3.3h-1.1L1565.6,305.7L1565.6,305.7z M1566.6,301.6h2.1
			c0.4,0,0.8,0,1.1-0.1s0.4-0.2,0.6-0.4c0.1-0.2,0.2-0.4,0.2-0.7c0-0.4-0.1-0.6-0.4-0.9c-0.3-0.2-0.7-0.3-1.2-0.3h-2.3L1566.6,301.6
			L1566.6,301.6z"/>
		<path class="st17" d="M1572.6,303c0-1,0.3-1.7,0.8-2.2c0.5-0.4,1-0.6,1.7-0.6s1.3,0.2,1.8,0.7s0.7,1.2,0.7,2
			c0,0.7-0.1,1.2-0.3,1.6c-0.2,0.4-0.5,0.7-0.9,0.9c-0.4,0.2-0.8,0.3-1.3,0.3c-0.8,0-1.4-0.2-1.8-0.7
			C1572.9,304.6,1572.6,303.9,1572.6,303z M1573.6,303c0,0.7,0.1,1.2,0.5,1.5c0.3,0.3,0.7,0.5,1.1,0.5c0.5,0,0.8-0.2,1.1-0.5
			c0.3-0.3,0.4-0.9,0.4-1.6s-0.2-1.2-0.5-1.5s-0.7-0.5-1.1-0.5c-0.5,0-0.8,0.2-1.1,0.5C1573.7,301.8,1573.6,302.3,1573.6,303z"/>
		<path class="st17" d="M1578.4,303c0-1,0.3-1.7,0.8-2.2c0.5-0.4,1-0.6,1.7-0.6s1.3,0.2,1.8,0.7s0.7,1.2,0.7,2
			c0,0.7-0.1,1.2-0.3,1.6c-0.2,0.4-0.5,0.7-0.9,0.9c-0.4,0.2-0.8,0.3-1.3,0.3c-0.8,0-1.4-0.2-1.8-0.7
			C1578.6,304.6,1578.4,303.9,1578.4,303z M1579.3,303c0,0.7,0.1,1.2,0.5,1.5c0.3,0.3,0.7,0.5,1.1,0.5c0.5,0,0.8-0.2,1.1-0.5
			c0.3-0.3,0.4-0.9,0.4-1.6s-0.2-1.2-0.5-1.5s-0.7-0.5-1.1-0.5c-0.5,0-0.8,0.2-1.1,0.5C1579.5,301.8,1579.3,302.3,1579.3,303z"/>
		<path class="st17" d="M1584.5,305.7v-5.4h0.8v0.8c0.2-0.3,0.4-0.5,0.7-0.6c0.3-0.2,0.6-0.2,1-0.2s0.7,0.1,1,0.2s0.4,0.4,0.5,0.7
			c0.4-0.6,1-0.9,1.7-0.9c0.5,0,0.9,0.1,1.2,0.4s0.4,0.7,0.4,1.4v3.7h-0.9v-3.4c0-0.4,0-0.6-0.1-0.8c-0.1-0.2-0.2-0.3-0.3-0.4
			s-0.3-0.1-0.5-0.1c-0.4,0-0.7,0.1-0.9,0.4c-0.2,0.3-0.4,0.7-0.4,1.2v3.1h-0.9v-3.5c0-0.4-0.1-0.7-0.2-0.9
			c-0.1-0.2-0.4-0.3-0.7-0.3c-0.3,0-0.5,0.1-0.7,0.2s-0.4,0.3-0.5,0.6c-0.1,0.3-0.1,0.6-0.1,1.1v2.8h-1.1V305.7z"/>
	</g>
</g>
<path class="st18" d="M1718.3,334.2h2.7c0.1,0,0.2,0,0.2-0.1s0-0.2-0.1-0.2h-2.8c-0.1,0-0.2,0-0.2,0.2
	C1718,334.1,1718.1,334.2,1718.3,334.2z"/>
<path class="st18" d="M1726.6,341.6l0.5-0.5l0.5,0.5c0.1,0.1,0.2,0,0.3-0.1l0,0v-0.2l-0.7-0.7c-0.1-0.1-0.2-0.1-0.2,0l0,0l-0.7,0.7
	c-0.1,0.1,0,0.2,0.1,0.3l0,0C1726.4,341.6,1726.5,341.6,1726.6,341.6L1726.6,341.6C1726.5,341.6,1726.6,341.6,1726.6,341.6z"/>
<path class="st18" d="M1727,343.7L1727,343.7c0.2,0.1,0.2,0.1,0.2,0l0.7-0.7c0.1-0.1,0.1-0.2,0-0.3l0,0c0-0.1-0.1-0.1-0.2-0.1l0,0
	l0,0l-0.1,0.1l-0.5,0.5l-0.5-0.5c-0.1-0.1-0.2-0.1-0.3-0.1s-0.1,0.2-0.1,0.3l0.1,0.1L1727,343.7z"/>
<g>
	<circle class="st12" cx="1721" cy="340.8" r="21.8"/>
	<path class="st18" d="M1715,348.3v-10.9c0-0.6,0.5-1.1,1.2-1.1h2.1c0.6,0,1.2,0.5,1.2,1.1v10.9c0,0.6-0.5,1.1-1.2,1.1h-2.1
		C1715.5,349.5,1715,348.9,1715,348.3z M1719.8,348.3v-10.9c0-0.6,0.5-1.1,1.2-1.1h2.1c0.6,0,1.2,0.5,1.2,1.1v10.9
		c0,0.6-0.5,1.1-1.2,1.1h-2.1C1720.3,349.5,1719.8,348.9,1719.8,348.3z M1728.5,349.5h-2.8c-0.6,0-1.2-0.5-1.2-1.1v-11.1
		c0-0.7-0.6-1.4-1.3-1.4h-8.3c-0.1,0-0.2,0.1-0.2,0.2l0,0v12.2c0,0.6-0.5,1.1-1.1,1.1l0,0c-0.6,0-1.2-0.5-1.2-1.1v-15
		c0-0.6,0.5-1.1,1.2-1.1h15c0.6,0,1.1,0.5,1.1,1.1l0,15C1729.7,348.9,1729.2,349.5,1728.5,349.5z M1729.9,331.8h-17.6
		c-0.1,0-0.2,0.1-0.2,0.2l0,0v16.5c0,0.7,0.6,1.4,1.4,1.4h16.4c0.1,0,0.2-0.1,0.2-0.2l0,0V332C1730,331.8,1729.9,331.8,1729.9,331.8
		z"/>
	<g class="st8">
		<path class="st17" d="M1702.9,373.7v-7.4h5.3v0.9h-4.4v2.3h4.1v0.9h-4.1v2.5h4.5v0.9H1702.9z"/>
		<path class="st17" d="M1709.7,373.7v-7.4h0.9v7.4H1709.7z"/>
		<path class="st17" d="M1715.6,372l0.9,0.1c-0.1,0.5-0.4,1-0.8,1.3c-0.4,0.3-0.9,0.5-1.5,0.5c-0.8,0-1.4-0.2-1.9-0.7
			c-0.5-0.5-0.7-1.2-0.7-2c0-0.9,0.2-1.6,0.7-2.1c0.5-0.5,1.1-0.7,1.8-0.7c0.7,0,1.3,0.2,1.8,0.7c0.5,0.5,0.7,1.2,0.7,2.1
			c0,0.1,0,0.1,0,0.2h-4c0,0.6,0.2,1,0.5,1.3c0.3,0.3,0.7,0.5,1.1,0.5c0.3,0,0.6-0.1,0.9-0.3C1715.3,372.7,1715.5,372.4,1715.6,372z
			 M1712.7,370.6h3c0-0.5-0.2-0.8-0.3-1c-0.3-0.3-0.7-0.5-1.1-0.5c-0.4,0-0.8,0.1-1,0.4C1712.8,369.7,1712.7,370.1,1712.7,370.6z"/>
		<path class="st17" d="M1719.2,373.7l-2-5.3h1l1.1,3.2c0.1,0.3,0.2,0.7,0.3,1.1c0.1-0.3,0.2-0.6,0.3-1l1.2-3.3h0.9l-2,5.3H1719.2z"
			/>
		<path class="st17" d="M1726.3,373.1c-0.3,0.3-0.7,0.5-1,0.6c-0.3,0.1-0.6,0.2-1,0.2c-0.6,0-1-0.1-1.4-0.4s-0.5-0.7-0.5-1.1
			c0-0.3,0.1-0.5,0.2-0.7c0.1-0.2,0.3-0.4,0.5-0.5c0.2-0.1,0.4-0.2,0.7-0.3c0.2,0,0.4-0.1,0.8-0.1c0.7-0.1,1.3-0.2,1.6-0.3
			c0-0.1,0-0.2,0-0.2c0-0.4-0.1-0.6-0.3-0.8c-0.2-0.2-0.6-0.3-1-0.3c-0.4,0-0.7,0.1-0.9,0.2s-0.4,0.4-0.5,0.8l-0.9-0.1
			c0.1-0.4,0.2-0.7,0.4-0.9s0.5-0.4,0.8-0.5c0.3-0.1,0.8-0.2,1.2-0.2c0.5,0,0.8,0.1,1.1,0.2s0.5,0.2,0.6,0.4
			c0.1,0.2,0.2,0.4,0.3,0.6c0,0.2,0,0.4,0,0.8v1.2c0,0.8,0,1.4,0.1,1.6c0,0.2,0.1,0.4,0.2,0.6h-0.9
			C1726.4,373.6,1726.4,373.3,1726.3,373.1z M1726.3,371.1c-0.3,0.1-0.8,0.2-1.5,0.3c-0.4,0.1-0.6,0.1-0.8,0.2
			c-0.2,0.1-0.3,0.2-0.4,0.3s-0.1,0.3-0.1,0.4c0,0.2,0.1,0.4,0.3,0.6s0.5,0.2,0.8,0.2c0.3,0,0.7-0.1,0.9-0.2
			c0.3-0.2,0.5-0.4,0.6-0.6c0.1-0.2,0.1-0.5,0.1-0.9V371.1z"/>
		<path class="st17" d="M1730.6,372.9l0.1,0.8c-0.3,0.1-0.5,0.1-0.7,0.1c-0.3,0-0.6-0.1-0.8-0.2c-0.2-0.1-0.3-0.2-0.4-0.4
			c-0.1-0.2-0.1-0.5-0.1-1.1v-3.1h-0.7v-0.7h0.7v-1.3l0.9-0.5v1.9h0.9v0.7h-0.9v3.1c0,0.3,0,0.4,0,0.5c0,0.1,0.1,0.1,0.2,0.2
			c0.1,0,0.2,0.1,0.3,0.1C1730.3,373,1730.4,373,1730.6,372.9z"/>
		<path class="st17" d="M1731.1,371.1c0-1,0.3-1.7,0.8-2.2c0.5-0.4,1-0.6,1.7-0.6c0.7,0,1.3,0.2,1.8,0.7s0.7,1.1,0.7,2
			c0,0.7-0.1,1.2-0.3,1.6c-0.2,0.4-0.5,0.7-0.9,0.9c-0.4,0.2-0.8,0.3-1.3,0.3c-0.7,0-1.4-0.2-1.8-0.7
			C1731.3,372.7,1731.1,372,1731.1,371.1z M1732.1,371.1c0,0.7,0.1,1.2,0.4,1.5c0.3,0.3,0.7,0.5,1.1,0.5c0.5,0,0.8-0.2,1.1-0.5
			c0.3-0.3,0.4-0.9,0.4-1.6c0-0.7-0.2-1.2-0.5-1.5c-0.3-0.3-0.7-0.5-1.1-0.5c-0.5,0-0.8,0.2-1.1,0.5S1732.1,370.4,1732.1,371.1z"/>
		<path class="st17" d="M1737.2,373.7v-5.3h0.8v0.8c0.2-0.4,0.4-0.6,0.6-0.8c0.2-0.1,0.4-0.2,0.6-0.2c0.3,0,0.6,0.1,0.9,0.3
			l-0.3,0.8c-0.2-0.1-0.4-0.2-0.7-0.2c-0.2,0-0.4,0.1-0.5,0.2s-0.3,0.3-0.3,0.5c-0.1,0.3-0.2,0.7-0.2,1.1v2.8H1737.2z"/>
	</g>
</g>
</svg>
