<?xml version="1.0" encoding="utf-8"?>
<!-- Generator: Adobe Illustrator 25.4.0, SVG Export Plug-In . SVG Version: 6.00 Build 0)  -->
<svg version="1.1" id="Layer_1" xmlns="http://www.w3.org/2000/svg" xmlns:xlink="http://www.w3.org/1999/xlink" x="0px" y="0px"
	 viewBox="0 0 1157.8 755.7" style="enable-background:new 0 0 1157.8 755.7;" xml:space="preserve">
<style type="text/css">
	.st0{fill:#4196B1;}
	.st1{fill:#AAE0E4;}
	.st2{fill:#99B8BF;}
	.st3{fill:#8ECCCE;}
	.st4{opacity:0.74;fill:#575757;enable-background:new    ;}
	.st5{fill:#FFFFFF;}
	.st6{font-family:'Arial-BoldMT';}
	.st7{font-size:12px;}
	.st8{fill:none;stroke:#EDEDED;stroke-width:8;stroke-miterlimit:10;}
	.st9{fill:none;stroke:#EDEDED;stroke-width:4;stroke-miterlimit:10;}
	.st10{fill:#EBF1F2;}
	.st11{fill:#767E80;}
	.st12{fill:none;stroke:#7A8E93;stroke-width:0.5;stroke-miterlimit:10;}
	.st13{fill:#EBF2F2;}
	.st14{fill:#7A8E93;stroke:#7A8E93;stroke-width:0.5;stroke-miterlimit:10;}
	.st15{font-family:'ArialMT';}
	.st16{font-size:6.219px;}
</style>
<g id="shadow">
	<polygon class="st0" points="43.4,54.8 43.4,725 122.9,725 122.9,686.6 180,686.6 180,725 310.1,725 310.1,684.8 547,684.8 
		547,383.9 748.2,383.9 748.2,561.2 942,561.2 942,389.9 1148.9,389.9 1148.9,200.8 1108.6,200.8 1108.6,143.7 1148.9,143.7 
		1148.9,54.8 	"/>
</g>
<g id="background">
	<polygon class="st1" points="33.3,44.9 33.3,707.4 111.9,707.4 111.9,669.5 168.4,669.5 168.4,707.4 297,707.4 297,667.6 
		531.1,667.6 531.1,370.2 730.1,370.2 730.1,545.5 921.6,545.5 921.6,376.1 1126.1,376.1 1126.1,189.2 1086.3,189.2 1086.3,132.8 
		1126.1,132.8 1126.1,44.9 	"/>
</g>
<g id="spaces">
	<rect x="93.2" y="134.5" class="st2" width="65.3" height="72"/>
	<rect x="98.9" y="90.5" class="st3" width="105" height="30.8"/>
	<rect x="223" y="287.4" class="st3" width="89.9" height="43.3"/>
	<rect x="114.5" y="581" class="st3" width="60.1" height="40.8"/>
	<rect x="53.4" y="521.3" class="st3" width="27.8" height="103.6"/>
	<polygon class="st3" points="199.2,555.4 430,555.4 494.6,666 376.6,667.6 370.8,627.7 217.1,649.5 	"/>
	<polygon class="st3" points="93.2,205.6 150.1,206.5 150.1,287.4 190.7,288.5 190.7,545.2 114.5,545.2 115.4,457.1 31.9,457.4 
		33.3,213.1 93.2,214 	"/>
	<polygon class="st3" points="249.4,109.2 401.2,109.2 410.1,109.2 410.1,71.8 528.6,72.9 528.5,101.5 499.5,101.5 464.2,194.8 
		214.8,193.1 214.8,158 	"/>
	<polygon class="st3" points="609.6,72.9 609.6,109.2 714.4,109.2 762.1,109.2 847.5,96.9 847.5,223.6 525,223.3 528.6,72.9 	"/>
	<path class="st3" d="M847.5,152.4h50l9.9,6.9l2.4,6.9H941l1.8-66.7h44l1.6,29.9h20.3v-9.6h40.9v149.1l76.6-1.6l-1.4,108.8
		l-170.2-1.3V200.2h-22.5c0,0-8.7,11.5-22.1,13s-31.8-1.6-31.8-1.6l-15.4-9.8l-11.4-15.6l-3.8-6.8L847.5,152.4z"/>
	<rect x="1016" y="44.9" class="st3" width="31.2" height="45.1"/>
	<polygon class="st2" points="190.7,288.5 223,287.4 223,526.4 417.6,526.4 423.2,533.5 531.1,533.5 531.1,667.6 494.6,666 
		430,555.4 199.2,555.4 204.9,585.4 174.6,591.5 174.6,581 114.5,581 114.5,545.2 190.7,545.2 	"/>
	<polygon class="st2" points="193.5,193.1 464.2,194.8 499.5,101.5 525,101.5 525,217.1 458,217.1 455.3,224 223,224 223,241.2 
		193.5,237.1 	"/>
	<polygon class="st2" points="33.3,213.1 93.2,214 93.2,134.5 203.9,134.5 203.9,121.3 98.9,121.3 98.9,90.5 203.9,90.5 205.4,71.8 
		609.6,72.9 766.7,72.9 766.7,64.7 1016,64.7 1016,44.9 701.6,43.6 33.3,44.9 	"/>
	<polygon class="st2" points="31.9,457.4 82.8,457.4 82.8,521.3 53.4,521.3 53.4,667.6 111.9,667.6 111.9,707.4 33.3,707.4 	"/>
	<path class="st2" d="M847.4,179.3c0,0,9.9,20.9,18.6,26.1s15.8,10.4,29.8,9s29.7-7.7,29.7-7.7l6.3-6.7h22.5v174.7h-32.8v170.6
		H730.1V370.2h-199v169.1H213.9V330.7h98.9v-76L223,241.2V224h232.3l2.7-6.9h67v6.2h322.5L847.4,179.3z"/>
</g>
<g id="bookable">
	<polygon id="area-02.GS01-status" class="st4" points="361.5,555.4 430,555.4 495.6,669.5 376.6,669.5 	"/>
	<polygon id="area-02.GS02-status" class="st4" points="267.3,555.4 361.5,555.4 370.6,627.8 265.9,644.4 	"/>
	<polygon id="area-02.GS03-status" class="st4" points="199.2,555.4 267.3,555.4 265.9,642.6 217.1,649.5 	"/>
	<rect id="area-02.GS06-status" x="29.8" y="375.4" class="st4" width="161" height="81.7"/>
	<rect id="area-02.GB01-status" x="33.3" y="287.4" class="st4" width="157.4" height="88"/>
	<polygon id="area-02.GB05-status" class="st4" points="410.1,72.9 528.6,72.9 528.6,101.5 498.1,101.5 466.2,194.8 401.2,194.4 
		400.2,109.2 410.1,109.2 	"/>
	<polygon id="area-02.GB03-status" class="st4" points="249.4,109.2 325.8,109.2 324.8,193.1 214.8,193.1 214.8,158 	"/>
	<rect id="area-02.GM01-status" x="526.5" y="74.8" class="st4" width="83.1" height="148.6"/>
	<polygon id="area-02.GM04-status" class="st4" points="847.5,96.9 847.5,223.9 777.8,223.9 777.8,107.7 	"/>
	<text transform="matrix(1 0 0 1 402.832 619.267)" class="st5 st6 st7">GS01</text>
	<text transform="matrix(1 0 0 1 300.333 601.386)" class="st5 st6 st7">GS02</text>
	<text transform="matrix(1 0 0 1 222.966 604.592)" class="st5 st6 st7">GS03</text>
	<text transform="matrix(1 0 0 1 93.41 417.95)" class="st5 st6 st7">GS06</text>
	<text transform="matrix(1 0 0 1 93.985 337.563)" class="st5 st6 st7">Gallery</text>
	<text transform="matrix(1 0 0 1 253.844 156.072)" class="st5 st6 st7">GB03</text>
	<text transform="matrix(1 0 0 1 423.128 138.941)" class="st5 st6 st7">GB05</text>
	<text transform="matrix(1 0 0 1 555.38 149.114)" class="st5 st6 st7">GM01</text>
	<text transform="matrix(1 0 0 1 796.147 160.371)" class="st5 st6 st7">GM04</text>
</g>
<g id="Layer_2_00000026860752059923975000000017898930857140761737_">
	<polygon class="st8" points="33.3,44.9 33.3,707.4 111.9,707.4 111.9,669.5 168.4,669.5 168.4,707.4 297,707.4 297,667.6 
		531.1,667.6 531.1,370.2 730.1,370.2 730.1,545.5 921.6,545.5 921.6,376.1 1126.1,376.1 1126.1,189.2 1086.3,189.2 1086.3,132.8 
		1126.1,132.8 1126.1,44.9 	"/>
	<polyline class="st9" points="33.3,213.1 93.2,213.1 93.2,134.5 203.9,134.5 203.9,121.3 98.9,121.3 98.9,90.5 203.9,90.5 
		203.9,72.9 766.7,72.9 766.7,64.7 1016.9,64.7 1016.9,90.5 1023.9,90.5 	"/>
	<polyline class="st9" points="1126.1,64.7 1047.1,64.7 1047.1,91.2 1042.6,91.2 	"/>
	<polyline class="st9" points="959.5,99.5 942.7,99.5 942.7,200.2 931.9,200.2 954.5,200.2 954.5,376.1 954.5,268.8 1058.3,268.8 	
		"/>
	<polyline class="st9" points="942.7,189.3 1049.5,189.3 1049.5,158.3 1049.5,206.8 	"/>
	<line class="st9" x1="1049.5" y1="227.5" x2="1049.5" y2="268.8"/>
	<line class="st9" x1="1077.4" y1="268.8" x2="1126.1" y2="268.8"/>
	<polyline class="st9" points="1049.5,138.9 1049.5,119.8 1008.6,119.8 1008.6,129.4 988.3,129.4 988.3,99.5 978.4,99.5 	"/>
	<polyline class="st9" points="526.5,106.2 525,223.3 930.3,224 931.9,376.1 	"/>
	<polyline class="st9" points="531.1,533.5 423.2,533.5 417.6,526.4 223,526.4 223.7,330.7 312.8,330.7 312.1,254.2 223,241.2 
		223,224 455.3,224 489.4,131.1 	"/>
	<polyline class="st9" points="163.3,287.4 33.3,287.4 33.3,373.9 223,376.1 223,287.4 183.4,287.4 234.5,287.4 	"/>
	<polyline class="st9" points="255.8,287.4 270.7,287.4 285.6,287.4 	"/>
	<line class="st9" x1="270.7" y1="287.4" x2="270.7" y2="330.7"/>
	<polyline class="st9" points="93.2,206.5 158.5,206.5 158.5,199.4 	"/>
	<line class="st9" x1="158.5" y1="184.5" x2="158.5" y2="134.5"/>
	<polyline class="st9" points="223,241.2 193.5,237.1 193.5,193.1 466.8,194.8 	"/>
	<polyline class="st9" points="214.8,193.1 214.8,158 249.4,109.2 261.7,109.2 	"/>
	<polyline class="st9" points="285.6,109.2 324.8,109.2 340.4,109.2 	"/>
	<polyline class="st9" points="324.8,109.2 324.8,193.9 401.2,194.4 401.2,109.2 363,109.2 410.1,109.2 410.1,98.4 	"/>
	<polyline class="st9" points="609.6,96.9 609.6,223.4 714.4,223.6 714.4,109.2 721.5,109.2 648.4,109.2 	"/>
	<line class="st9" x1="626.4" y1="109.2" x2="609.6" y2="109.2"/>
	<polyline class="st9" points="742.7,109.2 759.1,109.2 789,106.2 	"/>
	<polyline class="st9" points="777.8,107.7 777.8,223.6 847.5,223.6 847.5,96.9 811,102.5 	"/>
	<line class="st9" x1="918.7" y1="123" x2="847.5" y2="123"/>
	<path class="st9" d="M847.5,152.4h50.7c0,0,12.3,5.6,11.6,13.8h7.5"/>
	<polyline class="st9" points="988.3,129.4 988.3,149.8 942.7,149.8 	"/>
	<polyline class="st9" points="531.1,603.1 458.4,603.1 473.2,627.7 430,555.4 199.2,555.4 212.1,618.6 	"/>
	<polyline class="st9" points="215.7,640.7 217.1,649.5 292.2,639.3 	"/>
	<line class="st9" x1="267.3" y1="555.4" x2="265.9" y2="644.4"/>
	<polyline class="st9" points="314.4,636.2 370.9,627.7 372.3,639.3 361.5,555.4 	"/>
	<line class="st9" x1="375.2" y1="661.5" x2="376.6" y2="667.6"/>
	<polyline class="st9" points="199.2,555.4 190.7,555.4 190.7,545.2 174.6,545.2 174.6,581 174.6,595.8 	"/>
	<polyline class="st9" points="115.5,512.5 115.5,457.4 223.2,457.4 110.6,457.4 	"/>
	<line class="st9" x1="93.4" y1="457.4" x2="31.9" y2="457.4"/>
	<line class="st9" x1="81.1" y1="624.9" x2="82.9" y2="457.4"/>
	<polyline class="st9" points="53.4,521.3 53.4,624.9 53.4,667.6 120.6,667.6 	"/>
	<polyline class="st9" points="174.6,545.2 114.5,545.2 114.5,533.5 114.5,621.8 174.6,621.8 174.6,614 	"/>
	<line class="st9" x1="174.6" y1="581" x2="114.5" y2="581"/>
	<line class="st9" x1="190.7" y1="545.2" x2="190.7" y2="287.4"/>
	<line class="st9" x1="150.1" y1="223.6" x2="150.1" y2="206.5"/>
	<line class="st9" x1="150.1" y1="245.4" x2="150.1" y2="287.4"/>
	<polyline class="st9" points="410.1,77.5 410.1,72.9 528.6,72.9 528.6,81.5 	"/>
	<line class="st9" x1="526.5" y1="106.2" x2="526.5" y2="96.9"/>
	<line class="st9" x1="942.7" y1="123" x2="935.5" y2="123"/>
	<line class="st9" x1="483.7" y1="649.5" x2="495.6" y2="667.6"/>
	<line class="st9" x1="458" y1="217.1" x2="526.5" y2="217.1"/>
	<polyline class="st9" points="496.8,108 499.5,101.5 526.5,101.5 	"/>
	<path class="st9" d="M847.5,177.1c0,0,10.4,38.3,49,37.6s46.2-29.1,46.2-29.1"/>
	<polyline class="st9" points="1016.9,64.7 1016.9,43.6 1047.1,43.6 1047.1,64.7 	"/>
</g>
<g id="icons">
	<g id="stairs-2-2-3-5">
		
			<ellipse transform="matrix(0.2298 -0.9732 0.9732 0.2298 728.8218 1055.9485)" class="st10" cx="1031.6" cy="67.5" rx="10.4" ry="10.4"/>
		<path class="st11" d="M1026.3,83h0.5c0,0.2,0,0.3,0.2,0.5l0.3,0.3c0.2,0,0.3,0.2,0.5,0.2h0.5c0.2,0,0.2-0.2,0.3-0.2
			c0-0.2,0.2-0.2,0.2-0.3s0-0.2-0.2-0.3s-0.2-0.2-0.3-0.2s-0.5-0.2-0.6-0.2s-0.5-0.2-0.6-0.2c-0.2,0-0.3-0.1-0.3-0.3
			c-0.2-0.3-0.2-0.7,0-0.9c0.2-0.2,0.3-0.3,0.5-0.3c0.4-0.2,0.9-0.2,1.2,0c0.2,0,0.3,0.2,0.5,0.3s0.2,0.3,0.2,0.6h-0.5
			c0-0.2-0.2-0.3-0.3-0.5s-0.3-0.2-0.6-0.2c-0.2,0-0.4,0-0.6,0.2s-0.2,0.2-0.2,0.3s0,0.2,0.2,0.3s0.5,0.2,0.6,0.3
			c0.3,0,0.5,0.2,0.8,0.2c0.2,0,0.3,0.2,0.5,0.3c0.2,0.3,0.2,0.7,0,0.9c-0.2,0.2-0.3,0.3-0.5,0.3c-0.2,0.1-0.4,0.2-0.6,0.2
			c-0.3,0-0.5,0-0.8-0.2c-0.2-0.2-0.3-0.2-0.5-0.5C1026.3,83.5,1026.2,83.2,1026.3,83z"/>
		<path class="st11" d="M1030.5,83.6v0.3h-0.6c-0.1,0-0.2-0.1-0.2-0.1l0,0v-1.9h-0.3v-0.3h0.3V81l0.5-0.3v0.9h0.5v0.3h-0.5v1.9h0.2
			C1030.3,83.6,1030.4,83.6,1030.5,83.6C1030.4,83.6,1030.4,83.6,1030.5,83.6z"/>
		<path class="st11" d="M1032.5,83.7c-0.2,0.2-0.3,0.2-0.5,0.3c-0.2,0-0.3,0.2-0.5,0.2s-0.4,0-0.6-0.2s-0.3-0.6-0.2-0.8
			c0-0.2,0.2-0.2,0.2-0.3c0.2,0,0.2-0.2,0.3-0.2h0.3c0.3,0,0.5,0,0.8-0.2v-0.2c0-0.2,0-0.3-0.2-0.3c-0.3-0.2-0.7-0.2-0.9,0
			c-0.2,0.2-0.2,0.2-0.2,0.3h-0.5c0-0.2,0.2-0.3,0.2-0.5l0.3-0.3c0.2,0,0.3-0.2,0.6-0.2h0.5c0.2,0,0.2,0.2,0.3,0.2
			c0,0.2,0.2,0.2,0.2,0.3v1.9c0,0.2,0,0.2,0.2,0.3h-0.5C1032.4,84.1,1032.5,83.9,1032.5,83.7z M1032.5,82.8
			c-0.2,0.1-0.4,0.2-0.6,0.2s-0.3,0-0.3,0.2c-0.2,0-0.2,0.2-0.2,0.4v0.1c0,0.1,0.1,0.2,0.1,0.2l0,0c0.1,0.1,0.2,0.1,0.3,0.2
			c0.2,0,0.3,0,0.5-0.2c0.2,0,0.2-0.2,0.3-0.3C1032.5,83.3,1032.5,83.1,1032.5,82.8L1032.5,82.8z"/>
		<path class="st11" d="M1033.6,81.1v-0.5h0.5v0.5H1033.6z M1033.6,84v-2.5h0.5V84H1033.6z"/>
		<path class="st11" d="M1034.7,84v-2.5h0.3v0.3c0-0.2,0.1-0.3,0.3-0.3c0.2,0,0.2-0.2,0.3-0.2c0.2,0,0.3,0,0.5,0.2l-0.2,0.5
			c-0.2,0-0.2-0.2-0.3-0.2s-0.2,0-0.3,0.2l-0.2,0.2v1.7L1034.7,84z"/>
		<path class="st11" d="M1036.1,83.3h0.5c0,0.1,0.1,0.2,0.2,0.3c0.3,0.2,0.7,0.2,0.9,0c0.2,0,0.2-0.2,0.2-0.3s0-0.2-0.2-0.2
			s-0.3-0.2-0.5-0.2s-0.5-0.2-0.6-0.2c-0.2-0.1-0.3-0.4-0.3-0.6v-0.3c0-0.2,0.2-0.2,0.2-0.3c0.2,0,0.2-0.2,0.3-0.2h0.3
			c0.2,0,0.3,0,0.5,0.2c0.1,0,0.2,0.1,0.3,0.2c0.1,0.1,0.1,0.2,0.2,0.3h-0.5c0-0.2,0-0.2-0.2-0.3c-0.1-0.1-0.2-0.1-0.3-0.2
			c-0.2,0-0.3,0-0.5,0.2l-0.2,0.2V82l0.2,0.2c0.1,0,0.2,0.1,0.3,0.2c0.2,0,0.5,0.2,0.6,0.2s0.2,0.2,0.3,0.2c0,0.1,0.1,0.2,0.2,0.3
			c0,0.2,0,0.3-0.2,0.5l-0.3,0.3c-0.2,0-0.3,0.2-0.5,0.2c-0.3,0-0.5,0-0.8-0.2C1036.1,83.6,1036,83.4,1036.1,83.3z"/>
	</g>
	<g id="Outline_Icons-9-2-5">
		<line class="st12" x1="1027.2" y1="71.1" x2="1035.1" y2="71.1"/>
		<polyline class="st12" points="1033.7,71.1 1033.7,69.7 1032.3,69.7 1032.3,68.3 1030.9,68.3 1030.9,66.9 1029.5,66.9 
			1029.5,65.5 1027.2,65.5 		"/>
		<line class="st12" x1="1031.2" y1="63.2" x2="1035.6" y2="67.6"/>
		<polyline class="st12" points="1031.2,64.9 1031.2,63.2 1032.9,63.2 		"/>
		<polyline class="st12" points="1035.6,65.8 1035.6,67.6 1033.9,67.6 		"/>
	</g>
	<g id="stairs-2-2-3-5-2">
		<circle class="st10" cx="895.1" cy="183.8" r="10.4"/>
		<path class="st11" d="M889.8,199.3h0.5c0,0.2,0,0.3,0.2,0.5l0.3,0.3c0.2,0,0.3,0.2,0.5,0.2h0.5c0.2,0,0.2-0.2,0.3-0.2
			c0-0.2,0.2-0.2,0.2-0.3s0-0.2-0.2-0.3s-0.2-0.2-0.3-0.2s-0.5-0.2-0.6-0.2s-0.5-0.2-0.6-0.2c-0.2,0-0.3-0.1-0.3-0.3
			c-0.2-0.3-0.2-0.7,0-0.9s0.3-0.3,0.5-0.3c0.4-0.2,0.9-0.2,1.2,0c0.2,0,0.3,0.2,0.5,0.3s0.2,0.3,0.2,0.6H892c0-0.2-0.2-0.3-0.3-0.5
			s-0.3-0.2-0.6-0.2c-0.2,0-0.4,0-0.6,0.2c-0.2,0.2-0.2,0.2-0.2,0.3s0,0.2,0.2,0.3s0.5,0.2,0.6,0.3c0.3,0,0.5,0.2,0.8,0.2
			c0.2,0,0.3,0.2,0.5,0.3c0.2,0.3,0.2,0.7,0,0.9s-0.3,0.3-0.5,0.3c-0.2,0.1-0.4,0.2-0.6,0.2c-0.3,0-0.5,0-0.8-0.2
			c-0.2-0.2-0.3-0.2-0.5-0.5C889.9,199.9,889.8,199.6,889.8,199.3z"/>
		<path class="st11" d="M894,200v0.3h-0.6c-0.1,0-0.2-0.1-0.2-0.1l0,0v-1.9h-0.3V198h0.3v-0.6l0.5-0.3v0.9h0.5v0.3h-0.5v1.9h0.2
			C893.9,200,893.9,200,894,200L894,200z"/>
		<path class="st11" d="M896,200.1c-0.2,0.2-0.3,0.2-0.5,0.3c-0.2,0-0.3,0.2-0.5,0.2s-0.4,0-0.6-0.2c-0.2-0.2-0.3-0.6-0.2-0.8
			c0-0.2,0.2-0.2,0.2-0.3c0.2,0,0.2-0.2,0.3-0.2h0.3c0.3,0,0.5,0,0.8-0.2v-0.2c0-0.2,0-0.3-0.2-0.3c-0.3-0.2-0.7-0.2-0.9,0
			s-0.2,0.2-0.2,0.3H894c0-0.2,0.2-0.3,0.2-0.5l0.3-0.3c0.2,0,0.3-0.2,0.6-0.2h0.5c0.2,0,0.2,0.2,0.3,0.2c0,0.2,0.2,0.2,0.2,0.3
			L896,200.1c0.1,0.2,0.1,0.2,0.3,0.3h-0.5C896,200.4,896,200.3,896,200.1z M896,199.2c-0.2,0.1-0.4,0.2-0.6,0.2
			c-0.2,0-0.3,0-0.3,0.2c-0.2,0-0.2,0.2-0.2,0.4v0.1c0,0.1,0.1,0.2,0.1,0.2l0,0c0.1,0.1,0.2,0.1,0.3,0.2c0.2,0,0.3,0,0.5-0.2
			c0.2,0,0.2-0.2,0.3-0.3C896,199.7,896,199.5,896,199.2L896,199.2z"/>
		<path class="st11" d="M897.1,197.5V197h0.5v0.5H897.1z M897.1,200.4v-2.5h0.5v2.5H897.1z"/>
		<path class="st11" d="M898.2,200.4v-2.5h0.3v0.3c0-0.2,0.1-0.3,0.3-0.3s0.2-0.2,0.3-0.2c0.2,0,0.3,0,0.5,0.2l-0.2,0.5
			c-0.2,0-0.2-0.2-0.3-0.2s-0.2,0-0.3,0.2l-0.2,0.2v1.7L898.2,200.4z"/>
		<path class="st11" d="M899.6,199.7h0.5c0,0.1,0.1,0.2,0.2,0.3c0.3,0.2,0.7,0.2,0.9,0c0.2,0,0.2-0.2,0.2-0.3s0-0.2-0.2-0.2
			s-0.3-0.2-0.5-0.2s-0.5-0.2-0.6-0.2c-0.2-0.1-0.3-0.4-0.3-0.6v-0.3c0-0.2,0.2-0.2,0.2-0.3c0.2,0,0.2-0.2,0.3-0.2h0.3
			c0.2,0,0.3,0,0.5,0.2c0.1,0,0.2,0.1,0.3,0.2c0.1,0.1,0.1,0.2,0.2,0.3H901c0-0.2,0-0.2-0.2-0.3c-0.1-0.1-0.2-0.1-0.3-0.2
			c-0.2,0-0.3,0-0.5,0.2l-0.2,0.2v0.2l0.2,0.2c0.1,0,0.2,0.1,0.3,0.2c0.2,0,0.5,0.2,0.6,0.2s0.2,0.2,0.3,0.2c0,0.1,0.1,0.2,0.2,0.3
			c0,0.2,0,0.3-0.2,0.5l-0.3,0.3c-0.2,0-0.3,0.2-0.5,0.2c-0.3,0-0.5,0-0.8-0.2C899.7,200,899.6,199.8,899.6,199.7z"/>
	</g>
	<g id="Outline_Icons-9-2-5-2">
		<line class="st12" x1="890.7" y1="187.5" x2="898.7" y2="187.5"/>
		<polyline class="st12" points="897.3,187.5 897.3,186.1 895.9,186.1 895.9,184.7 894.5,184.7 894.5,183.3 893.1,183.3 
			893.1,181.9 890.7,181.9 		"/>
		<line class="st12" x1="894.8" y1="179.6" x2="899.1" y2="183.9"/>
		<polyline class="st12" points="894.8,181.3 894.8,179.6 896.5,179.6 		"/>
		<polyline class="st12" points="899.1,182.2 899.1,183.9 897.4,183.9 		"/>
	</g>
	<g id="stairs-2-2-3-5-3">
		<circle class="st10" cx="214.8" cy="104.7" r="10.4"/>
		<path class="st11" d="M209.5,120.3h0.5c0,0.2,0,0.3,0.2,0.5l0.3,0.3c0.2,0,0.3,0.2,0.5,0.2h0.5c0.2,0,0.2-0.2,0.3-0.2
			c0-0.2,0.2-0.2,0.2-0.3s0-0.2-0.2-0.3s-0.2-0.2-0.3-0.2s-0.5-0.2-0.6-0.2s-0.5-0.2-0.6-0.2c-0.2,0-0.3-0.1-0.3-0.3
			c-0.2-0.3-0.2-0.7,0-0.9c0.2-0.2,0.3-0.3,0.5-0.3c0.4-0.2,0.9-0.2,1.2,0c0.2,0,0.3,0.2,0.5,0.3s0.2,0.3,0.2,0.6h-0.5
			c0-0.2-0.2-0.3-0.3-0.5s-0.3-0.2-0.6-0.2c-0.2,0-0.4,0-0.6,0.2c-0.2,0.2-0.2,0.2-0.2,0.3s0,0.2,0.2,0.3s0.5,0.2,0.6,0.3
			c0.3,0,0.5,0.2,0.8,0.2c0.2,0,0.3,0.2,0.5,0.3c0.2,0.3,0.2,0.7,0,0.9c-0.2,0.2-0.3,0.3-0.5,0.3c-0.2,0.1-0.4,0.2-0.6,0.2
			c-0.3,0-0.5,0-0.8-0.2c-0.2-0.2-0.3-0.2-0.5-0.5C209.5,120.8,209.5,120.5,209.5,120.3z"/>
		<path class="st11" d="M213.7,120.9v0.3h-0.6c-0.1,0-0.2-0.1-0.2-0.1l0,0v-1.9h-0.3v-0.3h0.3v-0.6l0.5-0.3v0.9h0.5v0.3h-0.5v1.9
			h0.2C213.5,120.9,213.6,120.9,213.7,120.9L213.7,120.9z"/>
		<path class="st11" d="M215.7,121c-0.2,0.2-0.3,0.2-0.5,0.3c-0.2,0-0.3,0.2-0.5,0.2s-0.4,0-0.6-0.2c-0.2-0.2-0.3-0.6-0.2-0.8
			c0-0.2,0.2-0.2,0.2-0.3c0.2,0,0.2-0.2,0.3-0.2h0.3c0.3,0,0.5,0,0.8-0.2v-0.2c0-0.2,0-0.3-0.2-0.3c-0.3-0.2-0.7-0.2-0.9,0
			s-0.2,0.2-0.2,0.3h-0.5c0-0.2,0.2-0.3,0.2-0.5l0.3-0.3c0.2,0,0.3-0.2,0.6-0.2h0.5c0.2,0,0.2,0.2,0.3,0.2c0,0.2,0.2,0.2,0.2,0.3
			v1.9c0,0.2,0,0.2,0.2,0.3h-0.5C215.6,121.4,215.7,121.2,215.7,121z M215.7,120.1c-0.2,0.1-0.4,0.2-0.6,0.2c-0.2,0-0.3,0-0.3,0.2
			c-0.2,0-0.2,0.2-0.2,0.4v0.1c0,0.1,0.1,0.2,0.1,0.2l0,0c0.1,0.1,0.2,0.1,0.3,0.2c0.2,0,0.3,0,0.5-0.2c0.2,0,0.2-0.2,0.3-0.3
			C215.7,120.6,215.7,120.4,215.7,120.1z"/>
		<path class="st11" d="M216.8,118.4v-0.5h0.5v0.5H216.8z M216.8,121.3v-2.5h0.5v2.5H216.8z"/>
		<path class="st11" d="M217.9,121.3v-2.5h0.3v0.3c0-0.2,0.1-0.3,0.3-0.3s0.2-0.2,0.3-0.2c0.2,0,0.3,0,0.5,0.2l-0.2,0.5
			c-0.2,0-0.2-0.2-0.3-0.2s-0.2,0-0.3,0.2l-0.2,0.2v1.7L217.9,121.3z"/>
		<path class="st11" d="M219.3,120.6h0.5c0,0.1,0.1,0.2,0.2,0.3c0.3,0.2,0.7,0.2,0.9,0c0.2,0,0.2-0.2,0.2-0.3s0-0.2-0.2-0.2
			s-0.3-0.2-0.5-0.2s-0.5-0.2-0.6-0.2c-0.2-0.1-0.3-0.4-0.3-0.6v-0.3c0-0.2,0.2-0.2,0.2-0.3c0.2,0,0.2-0.2,0.3-0.2h0.3
			c0.2,0,0.3,0,0.5,0.2c0.1,0,0.2,0.1,0.3,0.2s0.1,0.2,0.2,0.3h-0.5c0-0.2,0-0.2-0.2-0.3c-0.1-0.1-0.2-0.1-0.3-0.2
			c-0.2,0-0.3,0-0.5,0.2l-0.2,0.2v0.2l0.2,0.2c0.1,0,0.2,0.1,0.3,0.2c0.2,0,0.5,0.2,0.6,0.2s0.2,0.2,0.3,0.2c0,0.1,0.1,0.2,0.2,0.3
			c0,0.2,0,0.3-0.2,0.5l-0.3,0.3c-0.2,0-0.3,0.2-0.5,0.2c-0.3,0-0.5,0-0.8-0.2C219.3,120.9,219.3,120.7,219.3,120.6z"/>
	</g>
	<g id="Outline_Icons-9-2-5-3">
		<line class="st12" x1="210.4" y1="108.4" x2="218.3" y2="108.4"/>
		<polyline class="st12" points="216.9,108.4 216.9,107 215.5,107 215.5,105.6 214.1,105.6 214.1,104.2 212.7,104.2 212.7,102.8 
			210.4,102.8 		"/>
		<line class="st12" x1="214.5" y1="100.5" x2="218.8" y2="104.9"/>
		<polyline class="st12" points="214.5,102.2 214.5,100.5 216.2,100.5 		"/>
		<polyline class="st12" points="218.8,103.1 218.8,104.9 217.1,104.9 		"/>
	</g>
	<g id="stairs-2-2-3-5-4">
		<circle class="st10" cx="67.2" cy="632.2" r="10.4"/>
		<path class="st11" d="M62,647.7h0.5c0,0.2,0,0.3,0.2,0.5l0.3,0.3c0.2,0,0.3,0.2,0.5,0.2H64c0.2,0,0.2-0.2,0.3-0.2
			c0-0.2,0.2-0.2,0.2-0.3s0-0.2-0.2-0.3s-0.2-0.2-0.3-0.2s-0.5-0.2-0.6-0.2s-0.5-0.2-0.6-0.2c-0.2,0-0.3-0.1-0.3-0.3
			c-0.2-0.3-0.2-0.7,0-0.9s0.3-0.3,0.5-0.3c0.4-0.2,0.9-0.2,1.2,0c0.2,0,0.3,0.2,0.5,0.3s0.2,0.3,0.2,0.6h-0.5
			c0-0.2-0.2-0.3-0.3-0.5s-0.3-0.2-0.6-0.2c-0.2,0-0.4,0-0.6,0.2c-0.2,0.2-0.2,0.2-0.2,0.3s0,0.2,0.2,0.3s0.5,0.2,0.6,0.3
			c0.3,0,0.5,0.2,0.8,0.2c0.2,0,0.3,0.2,0.5,0.3c0.2,0.3,0.2,0.7,0,0.9s-0.3,0.3-0.5,0.3c-0.2,0.1-0.4,0.2-0.6,0.2
			c-0.3,0-0.5,0-0.8-0.2c-0.2-0.2-0.3-0.2-0.5-0.5C62,648.3,61.9,648,62,647.7z"/>
		<path class="st11" d="M66.1,648.4v0.3h-0.6c-0.1,0-0.2-0.1-0.2-0.1l0,0v-1.9H65v-0.3h0.3v-0.6l0.5-0.3v0.9h0.5v0.3h-0.5v1.9H66
			C66,648.4,66.1,648.4,66.1,648.4L66.1,648.4z"/>
		<path class="st11" d="M68.2,648.5c-0.2,0.2-0.3,0.2-0.5,0.3c-0.2,0-0.3,0.2-0.5,0.2s-0.4,0-0.6-0.2s-0.3-0.6-0.2-0.8
			c0-0.2,0.2-0.2,0.2-0.3c0.2,0,0.2-0.2,0.3-0.2h0.3c0.3,0,0.5,0,0.8-0.2v-0.2c0-0.2,0-0.3-0.2-0.3c-0.3-0.2-0.7-0.2-0.9,0
			c-0.2,0.2-0.2,0.2-0.2,0.3h-0.5c0-0.2,0.2-0.3,0.2-0.5l0.3-0.3c0.2,0,0.3-0.2,0.6-0.2h0.5c0.2,0,0.2,0.2,0.3,0.2
			c0,0.2,0.2,0.2,0.2,0.3v1.9c0,0.2,0,0.2,0.2,0.3H68C68.1,648.8,68.1,648.7,68.2,648.5z M68.2,647.6c-0.2,0.1-0.4,0.2-0.6,0.2
			s-0.3,0-0.3,0.2c-0.2,0-0.2,0.2-0.2,0.4v0.1c0,0.1,0.1,0.2,0.1,0.2l0,0c0.1,0.1,0.2,0.1,0.3,0.2c0.2,0,0.3,0,0.5-0.2
			c0.2,0,0.2-0.2,0.3-0.3C68.2,648,68.2,647.9,68.2,647.6L68.2,647.6z"/>
		<path class="st11" d="M69.3,645.9v-0.5h0.5v0.5H69.3z M69.3,648.8v-2.5h0.5v2.5H69.3z"/>
		<path class="st11" d="M70.3,648.8v-2.5h0.3v0.3c0-0.2,0.1-0.3,0.3-0.3c0.2,0,0.2-0.2,0.3-0.2c0.2,0,0.3,0,0.5,0.2l-0.2,0.5
			c-0.2,0-0.2-0.2-0.3-0.2s-0.2,0-0.3,0.2l-0.2,0.2v1.7L70.3,648.8z"/>
		<path class="st11" d="M71.7,648h0.5c0,0.1,0.1,0.2,0.2,0.3c0.3,0.2,0.7,0.2,0.9,0c0.2,0,0.2-0.2,0.2-0.3s0-0.2-0.2-0.2
			s-0.3-0.2-0.5-0.2s-0.5-0.2-0.6-0.2c-0.2-0.1-0.3-0.4-0.3-0.6v-0.3c0-0.2,0.2-0.2,0.2-0.3c0.2,0,0.2-0.2,0.3-0.2h0.3
			c0.2,0,0.3,0,0.5,0.2c0.1,0,0.2,0.1,0.3,0.2c0.1,0.1,0.1,0.2,0.2,0.3h-0.5c0-0.2,0-0.2-0.2-0.3c-0.1-0.1-0.2-0.1-0.3-0.2
			c-0.2,0-0.3,0-0.5,0.2l-0.2,0.2v0.2l0.2,0.2c0.1,0,0.2,0.1,0.3,0.2c0.2,0,0.5,0.2,0.6,0.2s0.2,0.2,0.3,0.2c0,0.1,0.1,0.2,0.2,0.3
			c0,0.2,0,0.3-0.2,0.5l-0.3,0.3c-0.2,0-0.3,0.2-0.5,0.2c-0.3,0-0.5,0-0.8-0.2C71.8,648.4,71.7,648.2,71.7,648z"/>
	</g>
	<g id="Outline_Icons-9-2-5-4">
		<line class="st12" x1="62.9" y1="635.9" x2="70.8" y2="635.9"/>
		<polyline class="st12" points="69.4,635.9 69.4,634.5 68,634.5 68,633.1 66.6,633.1 66.6,631.7 65.2,631.7 65.2,630.3 62.9,630.3 
					"/>
		<line class="st12" x1="66.9" y1="628" x2="71.3" y2="632.3"/>
		<polyline class="st12" points="66.9,629.7 66.9,628 68.6,628 		"/>
		<polyline class="st12" points="71.3,630.6 71.3,632.3 69.6,632.3 		"/>
	</g>
	<circle class="st13" cx="966.1" cy="119.7" r="10.2"/>
	<path class="st14" d="M963.3,123.7v-6.2h2.1v6.2H963.3z M965.5,123.7v-6.2h2.1v6.2H965.5z M970.2,123.7h-2.4v-6.3
		c0-0.1,0-0.1-0.1-0.1h-4.5c-0.1,0-0.1,0-0.1,0.1l0,0v6.3H962v-8.1h8.1L970.2,123.7z M970.2,115.5H962c-0.1,0-0.1,0-0.1,0.1l0,0v8.2
		c0,0.1,0,0.1,0.1,0.1h8.3c0.1,0,0.1,0,0.1-0.1l0,0L970.2,115.5L970.2,115.5z"/>
	<path class="st14" d="M964.8,116.6h1.3c0.1,0,0.1,0,0.1-0.1s0-0.1-0.1-0.1h-1.3V116.6z"/>
	<path class="st14" d="M968.7,120l0.2-0.2l0.2,0.2c0.1,0.1,0.1,0,0.1-0.1l0,0v-0.1l-0.3-0.3c0,0-0.1-0.1-0.1,0l0,0l-0.3,0.3
		C968.4,119.9,968.5,119.9,968.7,120L968.7,120C968.6,120.1,968.7,120.1,968.7,120z"/>
	<path class="st14" d="M968.9,121L968.9,121l0.4-0.3c0.1,0,0.1-0.1,0-0.1l-0.1-0.1l0,0l-0.1,0.1l-0.2,0.2l-0.2-0.2
		c-0.1,0-0.1,0-0.1-0.1c-0.1,0-0.1,0-0.1,0.1l0.1,0.1L968.9,121z"/>
	<text transform="matrix(1 0 0 1 954.709 136.415)" class="st11 st15 st16">Elevator</text>
	<circle class="st13" cx="245.9" cy="305.2" r="10.2"/>
	<path class="st14" d="M243.1,309.2V303h2.1v6.2H243.1z M245.3,309.2V303h2.1v6.2H245.3z M250,309.2h-2.4v-6.3c0-0.1,0-0.1-0.1-0.1
		l0,0H243c-0.1,0-0.1,0-0.1,0.1l0,0l0,0v6.3h-1.1v-8.1h8.1L250,309.2z M250,301h-8.2c-0.1,0-0.1,0-0.1,0.1l0,0l0,0v8.2
		c0,0.1,0,0.1,0.1,0.1l0,0h8.3c0.1,0,0.1,0,0.1-0.1l0,0l0,0L250,301L250,301z"/>
	<path class="st14" d="M244.6,302.1h1.3c0.1,0,0.1,0,0.1-0.1s0-0.1-0.1-0.1h-1.3V302.1z"/>
	<path class="st14" d="M248.5,305.5l0.2-0.2l0.2,0.2c0.1,0.1,0.1,0,0.1-0.1l0,0v-0.1l-0.3-0.3c0,0-0.1-0.1-0.1,0l0,0l-0.3,0.3
		c-0.1,0.1,0,0.1,0.1,0.1l0,0C248.4,305.6,248.5,305.6,248.5,305.5z"/>
	<path class="st14" d="M248.7,306.5L248.7,306.5l0.4-0.3c0.1,0,0.1-0.1,0-0.1L249,306l0,0l-0.1,0.1l-0.2,0.2l-0.2-0.2
		c-0.1,0-0.1,0-0.1-0.1l0,0c-0.1,0-0.1,0-0.1,0.1l0,0l0.1,0.1L248.7,306.5z"/>
	<text transform="matrix(1 0 0 1 234.525 321.832)" class="st11 st15 st16">Elevator</text>
	<circle class="st13" cx="292.6" cy="305.2" r="10.2"/>
	<path class="st14" d="M289.8,309.2V303h2.1v6.2H289.8z M292,309.2V303h2.1v6.2H292z M296.7,309.2h-2.4v-6.3c0-0.1,0-0.1-0.1-0.1
		l0,0h-4.5c-0.1,0-0.1,0-0.1,0.1l0,0l0,0v6.3h-1.1v-8.1h8.1L296.7,309.2z M296.7,301h-8.2c-0.1,0-0.1,0-0.1,0.1l0,0l0,0v8.2
		c0,0.1,0,0.1,0.1,0.1l0,0h8.3c0.1,0,0.1,0,0.1-0.1l0,0l0,0L296.7,301L296.7,301z"/>
	<path class="st14" d="M291.3,302.1h1.3c0.1,0,0.1,0,0.1-0.1s0-0.1-0.1-0.1h-1.3V302.1z"/>
	<path class="st14" d="M295.2,305.5l0.2-0.2l0.2,0.2c0.1,0.1,0.1,0,0.1-0.1l0,0v-0.1l-0.3-0.3c0,0-0.1-0.1-0.1,0l0,0l-0.3,0.3
		c-0.1,0.1,0,0.1,0.1,0.1l0,0C295.1,305.6,295.2,305.6,295.2,305.5L295.2,305.5z"/>
	<path class="st14" d="M295.4,306.5L295.4,306.5l0.4-0.3c0.1,0,0.1-0.1,0-0.1l-0.1-0.1l0,0l-0.1,0.1l-0.2,0.2l-0.2-0.2
		c-0.1,0-0.1,0-0.1-0.1l0,0c-0.1,0-0.1,0-0.1,0.1l0,0l0.1,0.1L295.4,306.5z"/>
	<text transform="matrix(1 0 0 1 281.185 321.832)" class="st11 st15 st16">Elevator</text>
	<circle class="st13" cx="143.9" cy="598.1" r="10.2"/>
	<path class="st14" d="M141.1,602.1v-6.2h2.1v6.2H141.1z M143.3,602.1v-6.2h2.1v6.2H143.3z M148,602.1h-2.4v-6.3
		c0-0.1,0-0.1-0.1-0.1H141c-0.1,0-0.1,0-0.1,0.1l0,0v6.3h-1.1V594h8.1L148,602.1z M148,593.9h-8.2c-0.1,0-0.1,0-0.1,0.1l0,0v8.2
		c0,0.1,0,0.1,0.1,0.1h8.3c0.1,0,0.1,0,0.1-0.1l0,0L148,593.9L148,593.9z"/>
	<path class="st14" d="M142.6,595h1.3c0.1,0,0.1,0,0.1-0.1s0-0.1-0.1-0.1h-1.3V595L142.6,595z"/>
	<path class="st14" d="M146.5,598.4l0.2-0.2l0.2,0.2c0.1,0.1,0.1,0,0.1-0.1l0,0v-0.1l-0.3-0.3c0,0-0.1-0.1-0.1,0l0,0l-0.3,0.3
		c-0.1,0.1,0,0.1,0.1,0.1l0,0C146.4,598.5,146.5,598.5,146.5,598.4z"/>
	<path class="st14" d="M146.7,599.4L146.7,599.4l0.4-0.3c0.1,0,0.1-0.1,0-0.1l-0.1-0.1l0,0l-0.1,0.1l-0.2,0.2l-0.2-0.2
		c-0.1,0-0.1,0-0.1-0.1c-0.1,0-0.1,0-0.1,0.1l0.1,0.1L146.7,599.4z"/>
	<text transform="matrix(1 0 0 1 132.443 614.826)" class="st11 st15 st16">Elevator</text>
</g>
</svg>
