<?xml version="1.0" encoding="utf-8"?>
<!-- Generator: Adobe Illustrator 25.3.1, SVG Export Plug-In . SVG Version: 6.00 Build 0)  -->
<svg version="1.1" id="Layer_1" xmlns="http://www.w3.org/2000/svg" xmlns:xlink="http://www.w3.org/1999/xlink" x="0px" y="0px"
	 viewBox="0 0 732 563" style="enable-background:new 0 0 732 563;" xml:space="preserve">
<style type="text/css">
	.st0{fill:#4196B1;}
	.st1{fill:#AAE0E4;}
	.st2{display:none;}
	.st3{opacity:0.65;fill:#575757;enable-background:new    ;}
	.st4{fill:none;}
	.st5{enable-background:new    ;}
	.st6{fill:#FFFFFF;}
	.st7{fill:none;stroke:#FFFFFF;stroke-width:8;stroke-miterlimit:10;}
	.st8{opacity:5.000000e-02;fill:#030303;enable-background:new    ;}
	.st9{fill:#B8BFC1;}
	.st10{fill:#F4F4F4;}
	.st11{opacity:0.15;fill:#010101;enable-background:new    ;}
	.st12{fill:#596068;}
	.st13{fill:#9BAEB7;}
	.st14{fill:none;stroke:#7A8E93;stroke-linecap:round;stroke-miterlimit:10;}
</style>
<g id="shadow">
	<polygon class="st0" points="198.7,14.8 292.6,11.1 269.8,342.1 389.6,342.1 389.6,455.7 166.6,455.7 	"/>
	<polygon class="st0" points="547.8,345.1 642,345.1 642,372.7 670.4,372.7 665.8,457 503.4,457 503.4,376 547.8,376 	"/>
</g>
<g id="background">
	<polygon class="st1" points="190.3,26.3 282.1,22.6 259.8,346.4 376.9,346.4 376.9,457.5 158.9,457.5 	"/>
	<polygon class="st1" points="539.3,346.4 631.4,346.4 631.4,373.3 659.1,373.3 654.7,455.7 495.8,455.7 495.8,376.5 539.3,376.5 	
		"/>
</g>
<g id="map" class="st2">
</g>
<g id="bookable">
	<rect id="area-05.503-status" x="300.3" y="346.4" class="st3" width="76.6" height="110.6"/>
	<polygon id="area-05.502-status" class="st3" points="539.3,346.4 631.4,346.4 631.4,373.3 659,373.3 654.7,455.7 495.8,455.7 
		495.8,376.5 539.7,376.5 	"/>
	<rect x="289.8" y="387.9" class="st4" width="97.7" height="39.9"/>
	<g class="st5">
		<path class="st6" d="M315.2,395v-7.2h2.3c0.9,0,1.5,0,1.7,0.1c0.4,0.1,0.8,0.3,1,0.7c0.3,0.4,0.4,0.8,0.4,1.4
			c0,0.4-0.1,0.8-0.2,1.1s-0.4,0.5-0.6,0.7c-0.2,0.2-0.5,0.3-0.7,0.3c-0.3,0.1-0.8,0.1-1.5,0.1h-0.9v2.7H315.2z M316.6,389.1v2h0.8
			c0.6,0,1,0,1.1-0.1s0.3-0.2,0.5-0.4s0.2-0.3,0.2-0.6c0-0.3-0.1-0.5-0.2-0.6s-0.3-0.3-0.6-0.3c-0.2,0-0.5,0-1,0H316.6z"/>
		<path class="st6" d="M322.9,391.4l-1.2-0.2c0.1-0.5,0.4-0.9,0.7-1.1s0.8-0.4,1.5-0.4c0.6,0,1.1,0.1,1.4,0.2
			c0.3,0.1,0.5,0.3,0.6,0.6c0.1,0.2,0.2,0.6,0.2,1.2l0,1.6c0,0.5,0,0.8,0.1,1c0,0.2,0.1,0.4,0.2,0.7H325c0-0.1-0.1-0.2-0.1-0.4
			c0-0.1,0-0.1,0-0.2c-0.2,0.2-0.5,0.4-0.8,0.5s-0.6,0.2-0.9,0.2c-0.5,0-1-0.1-1.3-0.4s-0.5-0.7-0.5-1.1c0-0.3,0.1-0.6,0.2-0.8
			c0.1-0.2,0.3-0.4,0.6-0.5c0.3-0.1,0.6-0.2,1.1-0.3c0.6-0.1,1.1-0.2,1.3-0.3v-0.1c0-0.3-0.1-0.5-0.2-0.6c-0.1-0.1-0.4-0.2-0.7-0.2
			c-0.2,0-0.4,0-0.6,0.1C323.1,391,323,391.2,322.9,391.4z M324.7,392.5c-0.2,0.1-0.5,0.1-0.8,0.2s-0.6,0.2-0.7,0.2
			c-0.2,0.1-0.3,0.3-0.3,0.5c0,0.2,0.1,0.4,0.2,0.5s0.3,0.2,0.5,0.2c0.2,0,0.5-0.1,0.7-0.2c0.2-0.1,0.3-0.3,0.3-0.5
			c0-0.1,0.1-0.3,0.1-0.7V392.5z"/>
		<path class="st6" d="M332.1,395h-1.4v-2.6c0-0.6,0-0.9-0.1-1.1c-0.1-0.2-0.2-0.3-0.3-0.4s-0.3-0.1-0.5-0.1c-0.2,0-0.5,0.1-0.6,0.2
			s-0.3,0.3-0.4,0.5s-0.1,0.6-0.1,1.2v2.3h-1.4v-5.2h1.3v0.8c0.5-0.6,1-0.9,1.7-0.9c0.3,0,0.6,0.1,0.8,0.2c0.3,0.1,0.4,0.2,0.6,0.4
			s0.2,0.4,0.3,0.6s0.1,0.5,0.1,0.9V395z"/>
		<path class="st6" d="M333.2,392.4c0-0.5,0.1-0.9,0.3-1.3s0.5-0.8,1-1s0.9-0.3,1.4-0.3c0.8,0,1.4,0.3,1.9,0.8
			c0.5,0.5,0.8,1.2,0.8,1.9c0,0.8-0.3,1.4-0.8,2c-0.5,0.5-1.1,0.8-1.9,0.8c-0.5,0-0.9-0.1-1.4-0.3s-0.8-0.5-1-0.9
			C333.3,393.5,333.2,393,333.2,392.4z M334.6,392.4c0,0.5,0.1,0.9,0.4,1.2s0.5,0.4,0.9,0.4s0.7-0.1,0.9-0.4s0.4-0.7,0.4-1.2
			c0-0.5-0.1-0.9-0.4-1.2s-0.5-0.4-0.9-0.4s-0.7,0.1-0.9,0.4S334.6,391.9,334.6,392.4z"/>
		<path class="st6" d="M340.9,395h-1.4v-5.2h1.3v0.7c0.2-0.3,0.4-0.6,0.6-0.7s0.4-0.2,0.6-0.2c0.3,0,0.6,0.1,0.9,0.3l-0.4,1.2
			c-0.2-0.1-0.4-0.2-0.6-0.2c-0.2,0-0.4,0.1-0.5,0.2c-0.1,0.1-0.2,0.3-0.3,0.6s-0.1,0.9-0.1,1.7V395z"/>
		<path class="st6" d="M344.5,391.4l-1.2-0.2c0.1-0.5,0.4-0.9,0.7-1.1s0.8-0.4,1.5-0.4c0.6,0,1.1,0.1,1.4,0.2
			c0.3,0.1,0.5,0.3,0.6,0.6c0.1,0.2,0.2,0.6,0.2,1.2l0,1.6c0,0.5,0,0.8,0.1,1c0,0.2,0.1,0.4,0.2,0.7h-1.4c0-0.1-0.1-0.2-0.1-0.4
			c0-0.1,0-0.1,0-0.2c-0.2,0.2-0.5,0.4-0.8,0.5s-0.6,0.2-0.9,0.2c-0.5,0-1-0.1-1.3-0.4s-0.5-0.7-0.5-1.1c0-0.3,0.1-0.6,0.2-0.8
			c0.1-0.2,0.3-0.4,0.6-0.5c0.3-0.1,0.6-0.2,1.1-0.3c0.6-0.1,1.1-0.2,1.3-0.3v-0.1c0-0.3-0.1-0.5-0.2-0.6c-0.1-0.1-0.4-0.2-0.7-0.2
			c-0.2,0-0.4,0-0.6,0.1C344.7,391,344.6,391.2,344.5,391.4z M346.4,392.5c-0.2,0.1-0.5,0.1-0.8,0.2s-0.6,0.2-0.7,0.2
			c-0.2,0.1-0.3,0.3-0.3,0.5c0,0.2,0.1,0.4,0.2,0.5s0.3,0.2,0.5,0.2c0.2,0,0.5-0.1,0.7-0.2c0.2-0.1,0.3-0.3,0.3-0.5
			c0-0.1,0.1-0.3,0.1-0.7V392.5z"/>
		<path class="st6" d="M349,389.8h1.3v0.7c0.5-0.5,1-0.8,1.6-0.8c0.3,0,0.6,0.1,0.9,0.2s0.4,0.3,0.6,0.6c0.2-0.3,0.5-0.5,0.7-0.6
			s0.5-0.2,0.8-0.2c0.4,0,0.7,0.1,1,0.2c0.3,0.2,0.5,0.4,0.6,0.7c0.1,0.2,0.1,0.6,0.1,1.1v3.3h-1.4v-3c0-0.5,0-0.8-0.1-1
			c-0.1-0.2-0.3-0.3-0.6-0.3c-0.2,0-0.4,0.1-0.5,0.2s-0.3,0.3-0.4,0.5c-0.1,0.2-0.1,0.6-0.1,1.1v2.5h-1.4v-2.8c0-0.5,0-0.8-0.1-1
			s-0.1-0.3-0.2-0.3s-0.2-0.1-0.4-0.1c-0.2,0-0.4,0.1-0.6,0.2s-0.3,0.3-0.4,0.5s-0.1,0.6-0.1,1.1v2.5H349V389.8z"/>
		<path class="st6" d="M359,391.4l-1.2-0.2c0.1-0.5,0.4-0.9,0.7-1.1s0.8-0.4,1.5-0.4c0.6,0,1.1,0.1,1.4,0.2c0.3,0.1,0.5,0.3,0.6,0.6
			c0.1,0.2,0.2,0.6,0.2,1.2l0,1.6c0,0.5,0,0.8,0.1,1c0,0.2,0.1,0.4,0.2,0.7h-1.4c0-0.1-0.1-0.2-0.1-0.4c0-0.1,0-0.1,0-0.2
			c-0.2,0.2-0.5,0.4-0.8,0.5s-0.6,0.2-0.9,0.2c-0.5,0-1-0.1-1.3-0.4s-0.5-0.7-0.5-1.1c0-0.3,0.1-0.6,0.2-0.8
			c0.1-0.2,0.3-0.4,0.6-0.5c0.3-0.1,0.6-0.2,1.1-0.3c0.6-0.1,1.1-0.2,1.3-0.3v-0.1c0-0.3-0.1-0.5-0.2-0.6c-0.1-0.1-0.4-0.2-0.7-0.2
			c-0.2,0-0.4,0-0.6,0.1C359.2,391,359.1,391.2,359,391.4z M360.8,392.5c-0.2,0.1-0.5,0.1-0.8,0.2s-0.6,0.2-0.7,0.2
			c-0.2,0.1-0.3,0.3-0.3,0.5c0,0.2,0.1,0.4,0.2,0.5s0.3,0.2,0.5,0.2c0.2,0,0.5-0.1,0.7-0.2c0.2-0.1,0.3-0.3,0.3-0.5
			c0-0.1,0.1-0.3,0.1-0.7V392.5z"/>
	</g>
	<g class="st5">
		<path class="st6" d="M320.1,401.8h1.3v0.7c0.5-0.5,1-0.8,1.6-0.8c0.3,0,0.6,0.1,0.9,0.2s0.4,0.3,0.6,0.6c0.2-0.3,0.5-0.5,0.7-0.6
			s0.5-0.2,0.8-0.2c0.4,0,0.7,0.1,1,0.2c0.3,0.2,0.5,0.4,0.6,0.7c0.1,0.2,0.1,0.6,0.1,1.1v3.3h-1.4v-3c0-0.5,0-0.8-0.1-1
			c-0.1-0.2-0.3-0.3-0.6-0.3c-0.2,0-0.4,0.1-0.5,0.2s-0.3,0.3-0.4,0.5c-0.1,0.2-0.1,0.6-0.1,1.1v2.5h-1.4v-2.8c0-0.5,0-0.8-0.1-1
			s-0.1-0.3-0.2-0.3s-0.2-0.1-0.4-0.1c-0.2,0-0.4,0.1-0.6,0.2s-0.3,0.3-0.4,0.5s-0.1,0.6-0.1,1.1v2.5h-1.4V401.8z"/>
		<path class="st6" d="M332.1,405.4l1.4,0.2c-0.2,0.5-0.5,0.9-0.8,1.1c-0.4,0.3-0.9,0.4-1.4,0.4c-0.9,0-1.6-0.3-2-0.9
			c-0.3-0.5-0.5-1.1-0.5-1.8c0-0.9,0.2-1.5,0.7-2c0.4-0.5,1-0.7,1.7-0.7c0.8,0,1.4,0.3,1.8,0.8c0.4,0.5,0.7,1.3,0.6,2.3h-3.4
			c0,0.4,0.1,0.7,0.3,0.9c0.2,0.2,0.5,0.3,0.8,0.3c0.2,0,0.4-0.1,0.5-0.2S332,405.6,332.1,405.4z M332.1,404c0-0.4-0.1-0.7-0.3-0.9
			c-0.2-0.2-0.4-0.3-0.7-0.3c-0.3,0-0.5,0.1-0.7,0.3s-0.3,0.5-0.3,0.9H332.1z"/>
		<path class="st6" d="M337.6,405.4l1.4,0.2c-0.2,0.5-0.5,0.9-0.8,1.1c-0.4,0.3-0.9,0.4-1.4,0.4c-0.9,0-1.6-0.3-2-0.9
			c-0.3-0.5-0.5-1.1-0.5-1.8c0-0.9,0.2-1.5,0.7-2c0.4-0.5,1-0.7,1.7-0.7c0.8,0,1.4,0.3,1.8,0.8c0.4,0.5,0.7,1.3,0.6,2.3h-3.4
			c0,0.4,0.1,0.7,0.3,0.9c0.2,0.2,0.5,0.3,0.8,0.3c0.2,0,0.4-0.1,0.5-0.2S337.6,405.6,337.6,405.4z M337.7,404
			c0-0.4-0.1-0.7-0.3-0.9c-0.2-0.2-0.4-0.3-0.7-0.3c-0.3,0-0.5,0.1-0.7,0.3s-0.3,0.5-0.3,0.9H337.7z"/>
		<path class="st6" d="M342.6,401.8v1.1h-0.9v2.1c0,0.4,0,0.7,0,0.7c0,0.1,0.1,0.1,0.1,0.2s0.1,0.1,0.2,0.1c0.1,0,0.3,0,0.6-0.1
			l0.1,1.1c-0.3,0.1-0.7,0.2-1.1,0.2c-0.2,0-0.5,0-0.7-0.1c-0.2-0.1-0.3-0.2-0.4-0.3c-0.1-0.1-0.2-0.3-0.2-0.5c0-0.2,0-0.5,0-1v-2.3
			h-0.6v-1.1h0.6v-1l1.4-0.8v1.8H342.6z"/>
		<path class="st6" d="M343.5,401.1v-1.3h1.4v1.3H343.5z M343.5,407v-5.2h1.4v5.2H343.5z"/>
		<path class="st6" d="M351,407h-1.4v-2.6c0-0.6,0-0.9-0.1-1.1c-0.1-0.2-0.2-0.3-0.3-0.4s-0.3-0.1-0.5-0.1c-0.2,0-0.5,0.1-0.6,0.2
			s-0.3,0.3-0.4,0.5s-0.1,0.6-0.1,1.2v2.3h-1.4v-5.2h1.3v0.8c0.5-0.6,1-0.9,1.7-0.9c0.3,0,0.6,0.1,0.8,0.2c0.3,0.1,0.4,0.2,0.6,0.4
			s0.2,0.4,0.3,0.6s0.1,0.5,0.1,0.9V407z"/>
		<path class="st6" d="M352.3,407.4l1.6,0.2c0,0.2,0.1,0.3,0.2,0.4c0.1,0.1,0.3,0.1,0.6,0.1c0.4,0,0.6-0.1,0.8-0.2
			c0.1-0.1,0.2-0.2,0.3-0.3c0-0.1,0.1-0.3,0.1-0.6v-0.8c-0.4,0.6-0.9,0.8-1.6,0.8c-0.7,0-1.2-0.3-1.7-0.9c-0.3-0.5-0.5-1-0.5-1.7
			c0-0.9,0.2-1.5,0.6-2s0.9-0.7,1.6-0.7c0.6,0,1.2,0.3,1.6,0.8v-0.7h1.3v4.7c0,0.6-0.1,1.1-0.2,1.4s-0.2,0.5-0.4,0.7
			s-0.4,0.3-0.7,0.4s-0.7,0.1-1.2,0.1c-0.9,0-1.5-0.2-1.9-0.5c-0.4-0.3-0.6-0.7-0.6-1.1C352.3,407.5,352.3,407.4,352.3,407.4z
			 M353.5,404.3c0,0.5,0.1,1,0.3,1.2c0.2,0.3,0.5,0.4,0.8,0.4c0.3,0,0.6-0.1,0.8-0.4c0.2-0.3,0.3-0.6,0.3-1.2c0-0.5-0.1-0.9-0.3-1.2
			s-0.5-0.4-0.8-0.4c-0.3,0-0.6,0.1-0.8,0.4C353.6,403.4,353.5,403.8,353.5,404.3z"/>
	</g>
	<g class="st5">
		<path class="st6" d="M328.2,419h-1.4v-5.2h1.3v0.7c0.2-0.3,0.4-0.6,0.6-0.7s0.4-0.2,0.6-0.2c0.3,0,0.6,0.1,0.9,0.3l-0.4,1.2
			c-0.2-0.1-0.4-0.2-0.6-0.2c-0.2,0-0.4,0.1-0.5,0.2c-0.1,0.1-0.2,0.3-0.3,0.6s-0.1,0.9-0.1,1.7V419z"/>
		<path class="st6" d="M330.4,416.4c0-0.5,0.1-0.9,0.3-1.3s0.5-0.8,1-1s0.9-0.3,1.4-0.3c0.8,0,1.4,0.3,1.9,0.8
			c0.5,0.5,0.8,1.2,0.8,1.9c0,0.8-0.3,1.4-0.8,2c-0.5,0.5-1.1,0.8-1.9,0.8c-0.5,0-0.9-0.1-1.4-0.3s-0.8-0.5-1-0.9
			C330.6,417.5,330.4,417,330.4,416.4z M331.9,416.4c0,0.5,0.1,0.9,0.4,1.2s0.5,0.4,0.9,0.4s0.7-0.1,0.9-0.4s0.4-0.7,0.4-1.2
			c0-0.5-0.1-0.9-0.4-1.2s-0.5-0.4-0.9-0.4s-0.7,0.1-0.9,0.4S331.9,415.9,331.9,416.4z"/>
		<path class="st6" d="M336.6,416.4c0-0.5,0.1-0.9,0.3-1.3s0.5-0.8,1-1s0.9-0.3,1.4-0.3c0.8,0,1.4,0.3,1.9,0.8
			c0.5,0.5,0.8,1.2,0.8,1.9c0,0.8-0.3,1.4-0.8,2c-0.5,0.5-1.1,0.8-1.9,0.8c-0.5,0-0.9-0.1-1.4-0.3s-0.8-0.5-1-0.9
			C336.7,417.5,336.6,417,336.6,416.4z M338,416.4c0,0.5,0.1,0.9,0.4,1.2s0.5,0.4,0.9,0.4s0.7-0.1,0.9-0.4s0.4-0.7,0.4-1.2
			c0-0.5-0.1-0.9-0.4-1.2s-0.5-0.4-0.9-0.4s-0.7,0.1-0.9,0.4S338,415.9,338,416.4z"/>
		<path class="st6" d="M342.9,413.8h1.3v0.7c0.5-0.5,1-0.8,1.6-0.8c0.3,0,0.6,0.1,0.9,0.2s0.4,0.3,0.6,0.6c0.2-0.3,0.5-0.5,0.7-0.6
			s0.5-0.2,0.8-0.2c0.4,0,0.7,0.1,1,0.2c0.3,0.2,0.5,0.4,0.6,0.7c0.1,0.2,0.1,0.6,0.1,1.1v3.3h-1.4v-3c0-0.5,0-0.8-0.1-1
			c-0.1-0.2-0.3-0.3-0.6-0.3c-0.2,0-0.4,0.1-0.5,0.2s-0.3,0.3-0.4,0.5c-0.1,0.2-0.1,0.6-0.1,1.1v2.5H346v-2.8c0-0.5,0-0.8-0.1-1
			s-0.1-0.3-0.2-0.3s-0.2-0.1-0.4-0.1c-0.2,0-0.4,0.1-0.6,0.2s-0.3,0.3-0.4,0.5s-0.1,0.6-0.1,1.1v2.5h-1.4V413.8z"/>
	</g>
</g>
<g id="outline">
	<polygon class="st7" points="190.3,26.3 282.1,22.6 259.8,346.4 376.9,346.4 376.9,457.5 158.9,457.5 	"/>
	<polygon class="st7" points="539.3,346.4 631.4,346.4 631.4,373.3 659.1,373.3 654.7,455.7 495.8,455.7 495.8,376.5 539.3,376.5 	
		"/>
	<polyline class="st7" points="300.3,380.1 300.3,345.1 300.3,457 	"/>
</g>
<g id="furniture">
	<path class="st8" d="M182.5,195.3v-14.7c0-0.6,0.2-1.1,0.5-1.1h18.7c0.2,0,0.5,0.6,0.5,1.1v14.7c0,0.6-0.2,1.1-0.5,1.1H183
		C182.8,196.4,182.5,195.8,182.5,195.3z"/>
	<path class="st9" d="M182.5,196.2v-14.7c0-0.6,0.2-1.1,0.5-1.1h18.7c0.2,0,0.5,0.6,0.5,1.1v14.7c0,0.6-0.2,1.1-0.5,1.1H183
		C182.8,197.3,182.5,196.8,182.5,196.2z"/>
	<path class="st10" d="M182.5,197.1v-14.7c0-0.6,0.2-1.1,0.5-1.1h18.7c0.2,0,0.5,0.6,0.5,1.1v14.7c0,0.6-0.2,1.1-0.5,1.1H183
		C182.8,198.3,182.5,197.7,182.5,197.1z"/>
	<path class="st11" d="M190.4,178.6c-2.1,0-3.8-1.7-3.9-3.9v-3.1c0.1-2.8,2.3-5.1,5.2-5.2l0,0c2.8,0,5.1,2.1,5.3,4.8l0.2,2.9v0.2
		c0.1,2.2-1.7,4.1-3.9,4.2L190.4,178.6L190.4,178.6z"/>
	<path class="st12" d="M190.4,178.1c-2.2,0-3.9-1.9-3.9-4v-2.9c0.1-2.8,2.3-5.1,5.2-5.2l0,0c2.8-0.1,5.1,2.1,5.3,4.8l0.2,2.9v0.2
		c0.1,2.2-1.7,4.1-3.9,4.2H190.4L190.4,178.1z"/>
	<path class="st13" d="M190.4,177.5c-2.2,0-3.9-1.9-3.9-4v-2.9c0.1-2.8,2.3-5.1,5.2-5.2l0,0c2.8,0,5.1,2.1,5.3,4.8l0.2,2.9v0.2
		c0.1,2.2-1.7,4.1-3.9,4.2H190.4z"/>
	<path class="st14" d="M186.3,174.1l0.2-3.4c0.1-2.8,2.3-5.1,5.2-5.2l0,0c2.8-0.1,5.1,2.1,5.3,4.8l0.3,3.4"/>
	<polygon class="st9" points="236.4,30.9 249,30.9 234.2,293.1 220.6,293.1 	"/>
	<path class="st11" d="M190.8,199.7c2.1,0,3.8,1.7,3.9,3.9v3.1c-0.1,2.8-2.3,5.1-5.2,5.2l0,0c-2.8,0-5.1-2.1-5.3-4.8l-0.2-2.9V204
		c-0.1-2.2,1.7-4.1,3.9-4.2L190.8,199.7L190.8,199.7z"/>
	<path class="st12" d="M190.8,200.2c2.2,0,3.9,1.9,3.9,4v2.9c-0.1,2.8-2.3,5.1-5.2,5.2l0,0c-2.8,0.1-5.1-2.1-5.3-4.8l-0.2-2.9v-0.2
		c-0.1-2.2,1.7-4.1,3.9-4.2H190.8L190.8,200.2z"/>
	<path class="st13" d="M190.8,200.8c2.2,0,3.9,1.9,3.9,4v2.9c-0.1,2.8-2.3,5.1-5.2,5.2l0,0c-2.8,0-5.1-2.1-5.3-4.8l-0.2-2.9V205
		c-0.1-2.2,1.7-4.1,3.9-4.2H190.8z"/>
	<path class="st14" d="M194.9,204.2l-0.2,3.4c-0.1,2.8-2.3,5.1-5.2,5.2l0,0c-2.8,0.1-5.1-2.1-5.3-4.8l-0.3-3.4"/>
	<g>
		<path class="st11" d="M229.6,49c0,2.1-1.7,3.8-3.9,3.9h-3.1c-2.8-0.1-5.1-2.3-5.2-5.2l0,0c0-2.8,2.1-5.1,4.8-5.3l2.9-0.2h0.2
			c2.2-0.1,4.1,1.7,4.2,3.9L229.6,49L229.6,49z"/>
		<path class="st12" d="M229.1,49c0,2.2-1.9,3.9-4,3.9h-2.9c-2.8-0.1-5.1-2.3-5.2-5.2l0,0c-0.1-2.8,2.1-5.1,4.8-5.3l2.9-0.2h0.2
			c2.2-0.1,4.1,1.7,4.2,3.9V49L229.1,49z"/>
		<path class="st13" d="M228.5,49c0,2.2-1.9,3.9-4,3.9h-2.9c-2.8-0.1-5.1-2.3-5.2-5.2l0,0c0-2.8,2.1-5.1,4.8-5.3l2.9-0.2h0.2
			c2.2-0.1,4.1,1.7,4.2,3.9V49z"/>
		<path class="st14" d="M225.1,53l-3.4-0.2c-2.8-0.1-5.1-2.3-5.2-5.2l0,0c-0.1-2.8,2.1-5.1,4.8-5.3l3.4-0.3"/>
	</g>
	<g>
		<path class="st11" d="M229,72.9c0,2.1-1.7,3.8-3.9,3.9H222c-2.8-0.1-5.1-2.3-5.2-5.2l0,0c0-2.8,2.1-5.1,4.8-5.3l2.9-0.2h0.2
			c2.2-0.1,4.1,1.7,4.2,3.9L229,72.9L229,72.9z"/>
		<path class="st12" d="M228.5,72.9c0,2.2-1.9,3.9-4,3.9h-2.9c-2.8-0.1-5.1-2.3-5.2-5.2l0,0c-0.1-2.8,2.1-5.1,4.8-5.3l2.9-0.2h0.2
			c2.2-0.1,4.1,1.7,4.2,3.9V72.9L228.5,72.9z"/>
		<path class="st13" d="M227.9,72.9c0,2.2-1.9,3.9-4,3.9H221c-2.8-0.1-5.1-2.3-5.2-5.2l0,0c0-2.8,2.1-5.1,4.8-5.3l2.9-0.2h0.2
			c2.2-0.1,4.1,1.7,4.2,3.9V72.9z"/>
		<path class="st14" d="M224.5,76.9l-3.4-0.2c-2.8-0.1-5.1-2.3-5.2-5.2l0,0c-0.1-2.8,2.1-5.1,4.8-5.3l3.4-0.3"/>
	</g>
	<g>
		<path class="st11" d="M227.3,94.5c0,2.1-1.7,3.8-3.9,3.9h-3.1c-2.8-0.1-5.1-2.3-5.2-5.2l0,0c0-2.8,2.1-5.1,4.8-5.3l2.9-0.2h0.2
			c2.2-0.1,4.1,1.7,4.2,3.9L227.3,94.5L227.3,94.5z"/>
		<path class="st12" d="M226.8,94.5c0,2.2-1.9,3.9-4,3.9h-2.9c-2.8-0.1-5.1-2.3-5.2-5.2l0,0c-0.1-2.8,2.1-5.1,4.8-5.3l2.9-0.2h0.2
			c2.2-0.1,4.1,1.7,4.2,3.9V94.5L226.8,94.5z"/>
		<path class="st13" d="M226.1,94.5c0,2.2-1.9,3.9-4,3.9h-2.9c-2.8-0.1-5.1-2.3-5.2-5.2l0,0c0-2.8,2.1-5.1,4.8-5.3l2.9-0.2h0.2
			c2.2-0.1,4.1,1.7,4.2,3.9V94.5z"/>
		<path class="st14" d="M222.7,98.5l-3.4-0.2c-2.8-0.1-5.1-2.3-5.2-5.2l0,0c-0.1-2.8,2.1-5.1,4.8-5.3l3.4-0.3"/>
	</g>
	<g>
		<path class="st11" d="M226.9,118.5c0,2.1-1.7,3.8-3.9,3.9h-3.1c-2.8-0.1-5.1-2.3-5.2-5.2l0,0c0-2.8,2.1-5.1,4.8-5.3l2.9-0.2h0.2
			c2.2-0.1,4.1,1.7,4.2,3.9L226.9,118.5L226.9,118.5z"/>
		<path class="st12" d="M226.4,118.5c0,2.2-1.9,3.9-4,3.9h-2.9c-2.8-0.1-5.1-2.3-5.2-5.2l0,0c-0.1-2.8,2.1-5.1,4.8-5.3l2.9-0.2h0.2
			c2.2-0.1,4.1,1.7,4.2,3.9V118.5L226.4,118.5z"/>
		<path class="st13" d="M225.7,118.5c0,2.2-1.9,3.9-4,3.9h-2.9c-2.8-0.1-5.1-2.3-5.2-5.2l0,0c0-2.8,2.1-5.1,4.8-5.3l2.9-0.2h0.2
			c2.2-0.1,4.1,1.7,4.2,3.9V118.5z"/>
		<path class="st14" d="M222.3,122.6l-3.4-0.2c-2.8-0.1-5.1-2.3-5.2-5.2l0,0c-0.1-2.8,2.1-5.1,4.8-5.3l3.4-0.3"/>
	</g>
	<g>
		<path class="st11" d="M226.3,142.6c0,2.1-1.7,3.8-3.9,3.9h-3.1c-2.8-0.1-5.1-2.3-5.2-5.2l0,0c0-2.8,2.1-5.1,4.8-5.3l2.9-0.2h0.2
			c2.2-0.1,4.1,1.7,4.2,3.9L226.3,142.6L226.3,142.6z"/>
		<path class="st12" d="M225.8,142.6c0,2.2-1.9,3.9-4,3.9h-2.9c-2.8-0.1-5.1-2.3-5.2-5.2l0,0c-0.1-2.8,2.1-5.1,4.8-5.3l2.9-0.2h0.2
			c2.2-0.1,4.1,1.7,4.2,3.9V142.6L225.8,142.6z"/>
		<path class="st13" d="M225.2,142.6c0,2.2-1.9,3.9-4,3.9h-2.9c-2.8-0.1-5.1-2.3-5.2-5.2l0,0c0-2.8,2.1-5.1,4.8-5.3l2.9-0.2h0.2
			c2.2-0.1,4.1,1.7,4.2,3.9V142.6z"/>
		<path class="st14" d="M221.8,146.6l-3.4-0.2c-2.8-0.1-5.1-2.3-5.2-5.2l0,0c-0.1-2.8,2.1-5.1,4.8-5.3l3.4-0.3"/>
	</g>
	<g>
		<path class="st11" d="M225.7,165.1c0,2.1-1.7,3.8-3.9,3.9h-3.1c-2.8-0.1-5.1-2.3-5.2-5.2l0,0c0-2.8,2.1-5.1,4.8-5.3l2.9-0.2h0.2
			c2.2-0.1,4.1,1.7,4.2,3.9L225.7,165.1L225.7,165.1z"/>
		<path class="st12" d="M225.2,165.1c0,2.2-1.9,3.9-4,3.9h-2.9c-2.8-0.1-5.1-2.3-5.2-5.2l0,0c-0.1-2.8,2.1-5.1,4.8-5.3l2.9-0.2h0.2
			c2.2-0.1,4.1,1.7,4.2,3.9V165.1L225.2,165.1z"/>
		<path class="st13" d="M224.6,165.1c0,2.2-1.9,3.9-4,3.9h-2.9c-2.8-0.1-5.1-2.3-5.2-5.2l0,0c0-2.8,2.1-5.1,4.8-5.3l2.9-0.2h0.2
			c2.2-0.1,4.1,1.7,4.2,3.9V165.1z"/>
		<path class="st14" d="M221.2,169.1l-3.4-0.2c-2.8-0.1-5.1-2.3-5.2-5.2l0,0c-0.1-2.8,2.1-5.1,4.8-5.3l3.4-0.3"/>
	</g>
	<g>
		<path class="st11" d="M222.2,186.2c0,2.1-1.7,3.8-3.9,3.9h-3.1c-2.8-0.1-5.1-2.3-5.2-5.2l0,0c0-2.8,2.1-5.1,4.8-5.3l2.9-0.2h0.2
			c2.2-0.1,4.1,1.7,4.2,3.9L222.2,186.2L222.2,186.2z"/>
		<path class="st12" d="M221.7,186.2c0,2.2-1.9,3.9-4,3.9h-2.9c-2.8-0.1-5.1-2.3-5.2-5.2l0,0c-0.1-2.8,2.1-5.1,4.8-5.3l2.9-0.2h0.2
			c2.2-0.1,4.1,1.7,4.2,3.9V186.2L221.7,186.2z"/>
		<path class="st13" d="M221,186.2c0,2.2-1.9,3.9-4,3.9h-2.9c-2.8-0.1-5.1-2.3-5.2-5.2l0,0c0-2.8,2.1-5.1,4.8-5.3l2.9-0.2h0.2
			c2.2-0.1,4.1,1.7,4.2,3.9V186.2z"/>
		<path class="st14" d="M217.7,190.2l-3.4-0.2c-2.8-0.1-5.1-2.3-5.2-5.2l0,0c-0.1-2.8,2.1-5.1,4.8-5.3l3.4-0.3"/>
	</g>
	<g>
		<path class="st11" d="M221.6,210.1c0,2.1-1.7,3.8-3.9,3.9h-3.1c-2.8-0.1-5.1-2.3-5.2-5.2l0,0c0-2.8,2.1-5.1,4.8-5.3l2.9-0.2h0.2
			c2.2-0.1,4.1,1.7,4.2,3.9L221.6,210.1L221.6,210.1z"/>
		<path class="st12" d="M221.1,210.1c0,2.2-1.9,3.9-4,3.9h-2.9c-2.8-0.1-5.1-2.3-5.2-5.2l0,0c-0.1-2.8,2.1-5.1,4.8-5.3l2.9-0.2h0.2
			c2.2-0.1,4.1,1.7,4.2,3.9V210.1L221.1,210.1z"/>
		<path class="st13" d="M220.5,210.1c0,2.2-1.9,3.9-4,3.9h-2.9c-2.8-0.1-5.1-2.3-5.2-5.2l0,0c0-2.8,2.1-5.1,4.8-5.3l2.9-0.2h0.2
			c2.2-0.1,4.1,1.7,4.2,3.9V210.1z"/>
		<path class="st14" d="M217.1,214.1l-3.4-0.2c-2.8-0.1-5.1-2.3-5.2-5.2l0,0c-0.1-2.8,2.1-5.1,4.8-5.3l3.4-0.3"/>
	</g>
	<g>
		<path class="st11" d="M219.8,231.7c0,2.1-1.7,3.8-3.9,3.9h-3.1c-2.8-0.1-5.1-2.3-5.2-5.2l0,0c0-2.8,2.1-5.1,4.8-5.3l2.9-0.2h0.2
			c2.2-0.1,4.1,1.7,4.2,3.9L219.8,231.7L219.8,231.7z"/>
		<path class="st12" d="M219.4,231.7c0,2.2-1.9,3.9-4,3.9h-2.9c-2.8-0.1-5.1-2.3-5.2-5.2l0,0c-0.1-2.8,2.1-5.1,4.8-5.3l2.9-0.2h0.2
			c2.2-0.1,4.1,1.7,4.2,3.9V231.7L219.4,231.7z"/>
		<path class="st13" d="M218.7,231.7c0,2.2-1.9,3.9-4,3.9h-2.9c-2.8-0.1-5.1-2.3-5.2-5.2l0,0c0-2.8,2.1-5.1,4.8-5.3l2.9-0.2h0.2
			c2.2-0.1,4.1,1.7,4.2,3.9V231.7z"/>
		<path class="st14" d="M215.3,235.7l-3.4-0.2c-2.8-0.1-5.1-2.3-5.2-5.2l0,0c-0.1-2.8,2.1-5.1,4.8-5.3l3.4-0.3"/>
	</g>
	<g>
		<path class="st11" d="M219.4,255.7c0,2.1-1.7,3.8-3.9,3.9h-3.1c-2.8-0.1-5.1-2.3-5.2-5.2l0,0c0-2.8,2.1-5.1,4.8-5.3l2.9-0.2h0.2
			c2.2-0.1,4.1,1.7,4.2,3.9L219.4,255.7L219.4,255.7z"/>
		<path class="st12" d="M218.9,255.7c0,2.2-1.9,3.9-4,3.9H212c-2.8-0.1-5.1-2.3-5.2-5.2l0,0c-0.1-2.8,2.1-5.1,4.8-5.3l2.9-0.2h0.2
			c2.2-0.1,4.1,1.7,4.2,3.9V255.7L218.9,255.7z"/>
		<path class="st13" d="M218.3,255.7c0,2.2-1.9,3.9-4,3.9h-2.9c-2.8-0.1-5.1-2.3-5.2-5.2l0,0c0-2.8,2.1-5.1,4.8-5.3l2.9-0.2h0.2
			c2.2-0.1,4.1,1.7,4.2,3.9V255.7z"/>
		<path class="st14" d="M214.9,259.8l-3.4-0.2c-2.8-0.1-5.1-2.3-5.2-5.2l0,0c-0.1-2.8,2.1-5.1,4.8-5.3l3.4-0.3"/>
	</g>
	<g>
		<path class="st11" d="M218.9,279.8c0,2.1-1.7,3.8-3.9,3.9h-3.1c-2.8-0.1-5.1-2.3-5.2-5.2l0,0c0-2.8,2.1-5.1,4.8-5.3l2.9-0.2h0.2
			c2.2-0.1,4.1,1.7,4.2,3.9L218.9,279.8L218.9,279.8z"/>
		<path class="st12" d="M218.4,279.8c0,2.2-1.9,3.9-4,3.9h-2.9c-2.8-0.1-5.1-2.3-5.2-5.2l0,0c-0.1-2.8,2.1-5.1,4.8-5.3l2.9-0.2h0.2
			c2.2-0.1,4.1,1.7,4.2,3.9V279.8L218.4,279.8z"/>
		<path class="st13" d="M217.7,279.8c0,2.2-1.9,3.9-4,3.9h-2.9c-2.8-0.1-5.1-2.3-5.2-5.2l0,0c0-2.8,2.1-5.1,4.8-5.3l2.9-0.2h0.2
			c2.2-0.1,4.1,1.7,4.2,3.9V279.8z"/>
		<path class="st14" d="M214.3,283.8l-3.4-0.2c-2.8-0.1-5.1-2.3-5.2-5.2l0,0c-0.1-2.8,2.1-5.1,4.8-5.3l3.4-0.3"/>
	</g>
	<g>
		<path class="st11" d="M229.4,296.4c2.1,0,3.8,1.7,3.9,3.9v3.1c-0.1,2.8-2.3,5.1-5.2,5.2l0,0c-2.8,0-5.1-2.1-5.3-4.8l-0.2-2.9v-0.2
			c-0.1-2.2,1.7-4.1,3.9-4.2L229.4,296.4L229.4,296.4z"/>
		<path class="st12" d="M229.4,296.9c2.2,0,3.9,1.9,3.9,4v2.9c-0.1,2.8-2.3,5.1-5.2,5.2l0,0c-2.8,0.1-5.1-2.1-5.3-4.8l-0.2-2.9v-0.2
			c-0.1-2.2,1.7-4.1,3.9-4.2H229.4L229.4,296.9z"/>
		<path class="st13" d="M229.4,297.5c2.2,0,3.9,1.9,3.9,4v2.9c-0.1,2.8-2.3,5.1-5.2,5.2l0,0c-2.8,0-5.1-2.1-5.3-4.8l-0.2-2.9v-0.2
			c-0.1-2.2,1.7-4.1,3.9-4.2H229.4z"/>
		<path class="st14" d="M233.4,300.9l-0.2,3.4c-0.1,2.8-2.3,5.1-5.2,5.2l0,0c-2.8,0.1-5.1-2.1-5.3-4.8l-0.3-3.4"/>
	</g>
	<g>
		<path class="st11" d="M240.3,277.6c0-2.1,1.7-3.8,3.9-3.9h3.1c2.8,0.1,5.1,2.3,5.2,5.2l0,0c0,2.8-2.1,5.1-4.8,5.3l-2.9,0.2h-0.2
			c-2.2,0.1-4.1-1.7-4.2-3.9L240.3,277.6L240.3,277.6z"/>
		<path class="st12" d="M240.8,277.6c0-2.2,1.9-3.9,4-3.9h2.9c2.8,0.1,5.1,2.3,5.2,5.2l0,0c0.1,2.8-2.1,5.1-4.8,5.3l-2.9,0.2H245
			c-2.2,0.1-4.1-1.7-4.2-3.9V277.6L240.8,277.6z"/>
		<path class="st13" d="M241.4,277.6c0-2.2,1.9-3.9,4-3.9h2.9c2.8,0.1,5.1,2.3,5.2,5.2l0,0c0,2.8-2.1,5.1-4.8,5.3l-2.9,0.2h-0.2
			c-2.2,0.1-4.1-1.7-4.2-3.9V277.6z"/>
		<path class="st14" d="M244.8,273.5l3.4,0.2c2.8,0.1,5.1,2.3,5.2,5.2l0,0c0.1,2.8-2.1,5.1-4.8,5.3l-3.4,0.3"/>
	</g>
	<g>
		<path class="st11" d="M240.9,253.7c0-2.1,1.7-3.8,3.9-3.9h3.1c2.8,0.1,5.1,2.3,5.2,5.2l0,0c0,2.8-2.1,5.1-4.8,5.3l-2.9,0.2h-0.2
			c-2.2,0.1-4.1-1.7-4.2-3.9L240.9,253.7L240.9,253.7z"/>
		<path class="st12" d="M241.3,253.7c0-2.2,1.9-3.9,4-3.9h2.9c2.8,0.1,5.1,2.3,5.2,5.2l0,0c0.1,2.8-2.1,5.1-4.8,5.3l-2.9,0.2h-0.2
			c-2.2,0.1-4.1-1.7-4.2-3.9V253.7L241.3,253.7z"/>
		<path class="st13" d="M242,253.7c0-2.2,1.9-3.9,4-3.9h2.9c2.8,0.1,5.1,2.3,5.2,5.2l0,0c0,2.8-2.1,5.1-4.8,5.3l-2.9,0.2h-0.2
			c-2.2,0.1-4.1-1.7-4.2-3.9V253.7z"/>
		<path class="st14" d="M245.4,249.7l3.4,0.2c2.8,0.1,5.1,2.3,5.2,5.2l0,0c0.1,2.8-2.1,5.1-4.8,5.3l-3.4,0.3"/>
	</g>
	<g>
		<path class="st11" d="M242.6,232.1c0-2.1,1.7-3.8,3.9-3.9h3.1c2.8,0.1,5.1,2.3,5.2,5.2l0,0c0,2.8-2.1,5.1-4.8,5.3l-2.9,0.2h-0.2
			c-2.2,0.1-4.1-1.7-4.2-3.9L242.6,232.1L242.6,232.1z"/>
		<path class="st12" d="M243.1,232.1c0-2.2,1.9-3.9,4-3.9h2.9c2.8,0.1,5.1,2.3,5.2,5.2l0,0c0.1,2.8-2.1,5.1-4.8,5.3l-2.9,0.2h-0.2
			c-2.2,0.1-4.1-1.7-4.2-3.9V232.1L243.1,232.1z"/>
		<path class="st13" d="M243.8,232.1c0-2.2,1.9-3.9,4-3.9h2.9c2.8,0.1,5.1,2.3,5.2,5.2l0,0c0,2.8-2.1,5.1-4.8,5.3l-2.9,0.2H248
			c-2.2,0.1-4.1-1.7-4.2-3.9V232.1z"/>
		<path class="st14" d="M247.1,228l3.4,0.2c2.8,0.1,5.1,2.3,5.2,5.2l0,0c0.1,2.8-2.1,5.1-4.8,5.3l-3.4,0.3"/>
	</g>
	<g>
		<path class="st11" d="M243,208c0-2.1,1.7-3.8,3.9-3.9h3.1c2.8,0.1,5.1,2.3,5.2,5.2l0,0c0,2.8-2.1,5.1-4.8,5.3l-2.9,0.2h-0.2
			c-2.2,0.1-4.1-1.7-4.2-3.9L243,208L243,208z"/>
		<path class="st12" d="M243.5,208c0-2.2,1.9-3.9,4-3.9h2.9c2.8,0.1,5.1,2.3,5.2,5.2l0,0c0.1,2.8-2.1,5.1-4.8,5.3l-2.9,0.2h-0.2
			c-2.2,0.1-4.1-1.7-4.2-3.9V208L243.5,208z"/>
		<path class="st13" d="M244.2,208c0-2.2,1.9-3.9,4-3.9h2.9c2.8,0.1,5.1,2.3,5.2,5.2l0,0c0,2.8-2.1,5.1-4.8,5.3l-2.9,0.2h-0.2
			c-2.2,0.1-4.1-1.7-4.2-3.9V208z"/>
		<path class="st14" d="M247.6,204l3.4,0.2c2.8,0.1,5.1,2.3,5.2,5.2l0,0c0.1,2.8-2.1,5.1-4.8,5.3L248,215"/>
	</g>
	<g>
		<path class="st11" d="M243.6,184c0-2.1,1.7-3.8,3.9-3.9h3.1c2.8,0.1,5.1,2.3,5.2,5.2l0,0c0,2.8-2.1,5.1-4.8,5.3l-2.9,0.2h-0.2
			c-2.2,0.1-4.1-1.7-4.2-3.9L243.6,184L243.6,184z"/>
		<path class="st12" d="M244.1,184c0-2.2,1.9-3.9,4-3.9h2.9c2.8,0.1,5.1,2.3,5.2,5.2l0,0c0.1,2.8-2.1,5.1-4.8,5.3l-2.9,0.2h-0.2
			c-2.2,0.1-4.1-1.7-4.2-3.9L244.1,184L244.1,184z"/>
		<path class="st13" d="M244.7,184c0-2.2,1.9-3.9,4-3.9h2.9c2.8,0.1,5.1,2.3,5.2,5.2l0,0c0,2.8-2.1,5.1-4.8,5.3l-2.9,0.2h-0.2
			c-2.2,0.1-4.1-1.7-4.2-3.9V184z"/>
		<path class="st14" d="M248.1,180l3.4,0.2c2.8,0.1,5.1,2.3,5.2,5.2l0,0c0.1,2.8-2.1,5.1-4.8,5.3l-3.4,0.3"/>
	</g>
	<g>
		<path class="st11" d="M244.2,161.5c0-2.1,1.7-3.8,3.9-3.9h3.1c2.8,0.1,5.1,2.3,5.2,5.2l0,0c0,2.8-2.1,5.1-4.8,5.3l-2.9,0.2h-0.2
			c-2.2,0.1-4.1-1.7-4.2-3.9L244.2,161.5L244.2,161.5z"/>
		<path class="st12" d="M244.7,161.5c0-2.2,1.9-3.9,4-3.9h2.9c2.8,0.1,5.1,2.3,5.2,5.2l0,0c0.1,2.8-2.1,5.1-4.8,5.3l-2.9,0.2h-0.2
			c-2.2,0.1-4.1-1.7-4.2-3.9V161.5L244.7,161.5z"/>
		<path class="st13" d="M245.3,161.5c0-2.2,1.9-3.9,4-3.9h2.9c2.8,0.1,5.1,2.3,5.2,5.2l0,0c0,2.8-2.1,5.1-4.8,5.3l-2.9,0.2h-0.2
			c-2.2,0.1-4.1-1.7-4.2-3.9V161.5z"/>
		<path class="st14" d="M248.7,157.4l3.4,0.2c2.8,0.1,5.1,2.3,5.2,5.2l0,0c0.1,2.8-2.1,5.1-4.8,5.3l-3.4,0.3"/>
	</g>
	<g>
		<path class="st11" d="M247.7,140.3c0-2.1,1.7-3.8,3.9-3.9h3.1c2.8,0.1,5.1,2.3,5.2,5.2l0,0c0,2.8-2.1,5.1-4.8,5.3l-2.9,0.2H252
			c-2.2,0.1-4.1-1.7-4.2-3.9L247.7,140.3L247.7,140.3z"/>
		<path class="st12" d="M248.2,140.3c0-2.2,1.9-3.9,4-3.9h2.9c2.8,0.1,5.1,2.3,5.2,5.2l0,0c0.1,2.8-2.1,5.1-4.8,5.3l-2.9,0.2h-0.2
			c-2.2,0.1-4.1-1.7-4.2-3.9V140.3L248.2,140.3z"/>
		<path class="st13" d="M248.9,140.3c0-2.2,1.9-3.9,4-3.9h2.9c2.8,0.1,5.1,2.3,5.2,5.2l0,0c0,2.8-2.1,5.1-4.8,5.3l-2.9,0.2h-0.2
			c-2.2,0.1-4.1-1.7-4.2-3.9L248.9,140.3L248.9,140.3z"/>
		<path class="st14" d="M252.2,136.3l3.4,0.2c2.8,0.1,5.1,2.3,5.2,5.2l0,0c0.1,2.8-2.1,5.1-4.8,5.3l-3.4,0.3"/>
	</g>
	<g>
		<path class="st11" d="M248.3,116.5c0-2.1,1.7-3.8,3.9-3.9h3.1c2.8,0.1,5.1,2.3,5.2,5.2l0,0c0,2.8-2.1,5.1-4.8,5.3l-2.9,0.2h-0.2
			c-2.2,0.1-4.1-1.7-4.2-3.9L248.3,116.5L248.3,116.5z"/>
		<path class="st12" d="M248.8,116.5c0-2.2,1.9-3.9,4-3.9h2.9c2.8,0.1,5.1,2.3,5.2,5.2l0,0c0.1,2.8-2.1,5.1-4.8,5.3l-2.9,0.2H253
			c-2.2,0.1-4.1-1.7-4.2-3.9V116.5L248.8,116.5z"/>
		<path class="st13" d="M249.4,116.5c0-2.2,1.9-3.9,4-3.9h2.9c2.8,0.1,5.1,2.3,5.2,5.2l0,0c0,2.8-2.1,5.1-4.8,5.3l-2.9,0.2h-0.2
			c-2.2,0.1-4.1-1.7-4.2-3.9L249.4,116.5L249.4,116.5z"/>
		<path class="st14" d="M252.8,112.4l3.4,0.2c2.8,0.1,5.1,2.3,5.2,5.2l0,0c0.1,2.8-2.1,5.1-4.8,5.3l-3.4,0.3"/>
	</g>
	<g>
		<path class="st11" d="M250.1,94.8c0-2.1,1.7-3.8,3.9-3.9h3.1c2.8,0.1,5.1,2.3,5.2,5.2l0,0c0,2.8-2.1,5.1-4.8,5.3l-2.9,0.2h-0.2
			c-2.2,0.1-4.1-1.7-4.2-3.9L250.1,94.8L250.1,94.8z"/>
		<path class="st12" d="M250.5,94.8c0-2.2,1.9-3.9,4-3.9h2.9c2.8,0.1,5.1,2.3,5.2,5.2l0,0c0.1,2.8-2.1,5.1-4.8,5.3l-2.9,0.2h-0.2
			c-2.2,0.1-4.1-1.7-4.2-3.9L250.5,94.8L250.5,94.8z"/>
		<path class="st13" d="M251.2,94.8c0-2.2,1.9-3.9,4-3.9h2.9c2.8,0.1,5.1,2.3,5.2,5.2l0,0c0,2.8-2.1,5.1-4.8,5.3l-2.9,0.2h-0.2
			c-2.2,0.1-4.1-1.7-4.2-3.9L251.2,94.8z"/>
		<path class="st14" d="M254.6,90.8L258,91c2.8,0.1,5.1,2.3,5.2,5.2l0,0c0.1,2.8-2.1,5.1-4.8,5.3l-3.4,0.3"/>
	</g>
	<g>
		<path class="st11" d="M250.5,70.8c0-2.1,1.7-3.8,3.9-3.9h3.1c2.8,0.1,5.1,2.3,5.2,5.2l0,0c0,2.8-2.1,5.1-4.8,5.3l-2.9,0.2h-0.2
			c-2.2,0.1-4.1-1.7-4.2-3.9L250.5,70.8L250.5,70.8z"/>
		<path class="st12" d="M250.9,70.8c0-2.2,1.9-3.9,4-3.9h2.9c2.8,0.1,5.1,2.3,5.2,5.2l0,0c0.1,2.8-2.1,5.1-4.8,5.3l-2.9,0.2h-0.2
			c-2.2,0.1-4.1-1.7-4.2-3.9L250.9,70.8L250.9,70.8z"/>
		<path class="st13" d="M251.6,70.8c0-2.2,1.9-3.9,4-3.9h2.9c2.8,0.1,5.1,2.3,5.2,5.2l0,0c0,2.8-2.1,5.1-4.8,5.3l-2.9,0.2h-0.2
			c-2.2,0.1-4.1-1.7-4.2-3.9L251.6,70.8L251.6,70.8z"/>
		<path class="st14" d="M255,66.8l3.4,0.2c2.8,0.1,5.1,2.3,5.2,5.2l0,0c0.1,2.8-2.1,5.1-4.8,5.3l-3.4,0.3"/>
	</g>
	<g>
		<path class="st11" d="M251,46.8c0-2.1,1.7-3.8,3.9-3.9h3.1c2.8,0.1,5.1,2.3,5.2,5.2l0,0c0,2.8-2.1,5.1-4.8,5.3l-2.9,0.2h-0.2
			c-2.2,0.1-4.1-1.7-4.2-3.9L251,46.8L251,46.8z"/>
		<path class="st12" d="M251.5,46.8c0-2.2,1.9-3.9,4-3.9h2.9c2.8,0.1,5.1,2.3,5.2,5.2l0,0c0.1,2.8-2.1,5.1-4.8,5.3l-2.9,0.2h-0.2
			c-2.2,0.1-4.1-1.7-4.2-3.9L251.5,46.8L251.5,46.8z"/>
		<path class="st13" d="M252.2,46.8c0-2.2,1.9-3.9,4-3.9h2.9c2.8,0.1,5.1,2.3,5.2,5.2l0,0c0,2.8-2.1,5.1-4.8,5.3l-2.9,0.2h-0.2
			c-2.2,0.1-4.1-1.7-4.2-3.9L252.2,46.8L252.2,46.8z"/>
		<path class="st14" d="M255.5,42.7l3.4,0.2c2.8,0.1,5.1,2.3,5.2,5.2l0,0c0.1,2.8-2.1,5.1-4.8,5.3l-3.4,0.3"/>
	</g>
	<polygon class="st10" points="236.4,30.9 249,30.9 234.2,293.1 220.6,293.1 	"/>
</g>
<g class="st5">
	<path class="st6" d="M560.4,401.7v-7.2h2.3c0.9,0,1.5,0,1.7,0.1c0.4,0.1,0.8,0.3,1,0.7c0.3,0.4,0.4,0.8,0.4,1.4
		c0,0.4-0.1,0.8-0.2,1.1c-0.2,0.3-0.4,0.5-0.6,0.7c-0.2,0.2-0.5,0.3-0.8,0.3c-0.3,0.1-0.8,0.1-1.5,0.1h-0.9v2.7H560.4z M561.9,395.8
		v2h0.8c0.6,0,1,0,1.1-0.1c0.2-0.1,0.3-0.2,0.5-0.4c0.1-0.2,0.2-0.3,0.2-0.6c0-0.3-0.1-0.5-0.2-0.6c-0.2-0.2-0.3-0.3-0.6-0.3
		c-0.2,0-0.5,0-1,0H561.9z"/>
	<path class="st6" d="M568.1,398.1l-1.2-0.2c0.1-0.5,0.4-0.9,0.7-1.1c0.3-0.2,0.8-0.4,1.5-0.4c0.6,0,1.1,0.1,1.4,0.2
		c0.3,0.1,0.5,0.3,0.6,0.6c0.1,0.2,0.2,0.6,0.2,1.2l0,1.6c0,0.5,0,0.8,0.1,1c0,0.2,0.1,0.4,0.2,0.7h-1.4c0-0.1-0.1-0.2-0.1-0.4
		c0-0.1,0-0.1,0-0.2c-0.2,0.2-0.5,0.4-0.8,0.5c-0.3,0.1-0.6,0.2-0.9,0.2c-0.5,0-1-0.1-1.3-0.4c-0.3-0.3-0.5-0.7-0.5-1.1
		c0-0.3,0.1-0.6,0.2-0.8c0.1-0.2,0.3-0.4,0.6-0.5c0.3-0.1,0.6-0.2,1.1-0.3c0.6-0.1,1.1-0.2,1.3-0.3v-0.1c0-0.3-0.1-0.5-0.2-0.6
		c-0.1-0.1-0.4-0.2-0.7-0.2c-0.2,0-0.4,0-0.6,0.1S568.2,397.9,568.1,398.1z M570,399.2c-0.2,0.1-0.5,0.1-0.8,0.2
		c-0.4,0.1-0.6,0.2-0.7,0.2c-0.2,0.1-0.3,0.3-0.3,0.5c0,0.2,0.1,0.4,0.2,0.5c0.1,0.1,0.3,0.2,0.5,0.2c0.2,0,0.5-0.1,0.7-0.2
		c0.2-0.1,0.3-0.3,0.3-0.5c0-0.1,0.1-0.3,0.1-0.7V399.2z"/>
	<path class="st6" d="M577.4,401.7H576v-2.6c0-0.6,0-0.9-0.1-1.1c-0.1-0.2-0.2-0.3-0.3-0.4c-0.1-0.1-0.3-0.1-0.5-0.1
		c-0.2,0-0.5,0.1-0.6,0.2c-0.2,0.1-0.3,0.3-0.4,0.5c-0.1,0.2-0.1,0.6-0.1,1.2v2.3h-1.4v-5.2h1.3v0.8c0.5-0.6,1-0.9,1.7-0.9
		c0.3,0,0.6,0.1,0.8,0.2c0.3,0.1,0.4,0.2,0.6,0.4c0.1,0.2,0.2,0.4,0.3,0.6c0,0.2,0.1,0.5,0.1,0.9V401.7z"/>
	<path class="st6" d="M578.4,399.1c0-0.5,0.1-0.9,0.3-1.3c0.2-0.4,0.5-0.8,1-1c0.4-0.2,0.9-0.3,1.4-0.3c0.8,0,1.4,0.3,1.9,0.8
		c0.5,0.5,0.8,1.2,0.8,1.9c0,0.8-0.3,1.4-0.8,2c-0.5,0.5-1.1,0.8-1.9,0.8c-0.5,0-0.9-0.1-1.4-0.3c-0.4-0.2-0.8-0.5-1-0.9
		C578.6,400.2,578.4,399.7,578.4,399.1z M579.8,399.1c0,0.5,0.1,0.9,0.4,1.2s0.5,0.4,0.9,0.4c0.4,0,0.7-0.1,0.9-0.4
		c0.2-0.3,0.4-0.7,0.4-1.2c0-0.5-0.1-0.9-0.4-1.2c-0.2-0.3-0.5-0.4-0.9-0.4c-0.4,0-0.7,0.1-0.9,0.4S579.8,398.6,579.8,399.1z"/>
	<path class="st6" d="M586.2,401.7h-1.4v-5.2h1.3v0.7c0.2-0.3,0.4-0.6,0.6-0.7c0.2-0.1,0.4-0.2,0.6-0.2c0.3,0,0.6,0.1,0.9,0.3
		l-0.4,1.2c-0.2-0.2-0.4-0.2-0.6-0.2c-0.2,0-0.4,0.1-0.5,0.2c-0.1,0.1-0.2,0.3-0.3,0.6c-0.1,0.3-0.1,0.9-0.1,1.7V401.7z"/>
	<path class="st6" d="M589.8,398.1l-1.2-0.2c0.1-0.5,0.4-0.9,0.7-1.1c0.3-0.2,0.8-0.4,1.5-0.4c0.6,0,1.1,0.1,1.4,0.2
		c0.3,0.1,0.5,0.3,0.6,0.6c0.1,0.2,0.2,0.6,0.2,1.2l0,1.6c0,0.5,0,0.8,0.1,1c0,0.2,0.1,0.4,0.2,0.7h-1.4c0-0.1-0.1-0.2-0.1-0.4
		c0-0.1,0-0.1,0-0.2c-0.2,0.2-0.5,0.4-0.8,0.5c-0.3,0.1-0.6,0.2-0.9,0.2c-0.5,0-1-0.1-1.3-0.4c-0.3-0.3-0.5-0.7-0.5-1.1
		c0-0.3,0.1-0.6,0.2-0.8c0.1-0.2,0.3-0.4,0.6-0.5c0.3-0.1,0.6-0.2,1.1-0.3c0.6-0.1,1.1-0.2,1.3-0.3v-0.1c0-0.3-0.1-0.5-0.2-0.6
		c-0.1-0.1-0.4-0.2-0.7-0.2c-0.2,0-0.4,0-0.6,0.1S589.9,397.9,589.8,398.1z M591.6,399.2c-0.2,0.1-0.5,0.1-0.8,0.2
		c-0.4,0.1-0.6,0.2-0.7,0.2c-0.2,0.1-0.3,0.3-0.3,0.5c0,0.2,0.1,0.4,0.2,0.5c0.1,0.1,0.3,0.2,0.5,0.2c0.2,0,0.5-0.1,0.7-0.2
		c0.2-0.1,0.3-0.3,0.3-0.5c0-0.1,0.1-0.3,0.1-0.7V399.2z"/>
	<path class="st6" d="M594.2,396.5h1.3v0.7c0.5-0.5,1-0.8,1.6-0.8c0.3,0,0.6,0.1,0.9,0.2s0.4,0.3,0.6,0.6c0.2-0.3,0.5-0.5,0.7-0.6
		s0.5-0.2,0.8-0.2c0.4,0,0.7,0.1,1,0.2c0.3,0.2,0.5,0.4,0.6,0.7c0.1,0.2,0.1,0.6,0.1,1.1v3.3h-1.4v-3c0-0.5,0-0.8-0.1-1
		c-0.1-0.2-0.3-0.3-0.6-0.3c-0.2,0-0.4,0.1-0.5,0.2c-0.2,0.1-0.3,0.3-0.4,0.5c-0.1,0.2-0.1,0.6-0.1,1.1v2.5h-1.4v-2.8
		c0-0.5,0-0.8-0.1-1s-0.1-0.3-0.2-0.3c-0.1-0.1-0.2-0.1-0.4-0.1c-0.2,0-0.4,0.1-0.6,0.2c-0.2,0.1-0.3,0.3-0.4,0.5s-0.1,0.6-0.1,1.1
		v2.5h-1.4V396.5z"/>
	<path class="st6" d="M604.2,398.1l-1.2-0.2c0.1-0.5,0.4-0.9,0.7-1.1c0.3-0.2,0.8-0.4,1.5-0.4c0.6,0,1.1,0.1,1.4,0.2
		c0.3,0.1,0.5,0.3,0.6,0.6c0.1,0.2,0.2,0.6,0.2,1.2l0,1.6c0,0.5,0,0.8,0.1,1c0,0.2,0.1,0.4,0.2,0.7h-1.4c0-0.1-0.1-0.2-0.1-0.4
		c0-0.1,0-0.1,0-0.2c-0.2,0.2-0.5,0.4-0.8,0.5c-0.3,0.1-0.6,0.2-0.9,0.2c-0.5,0-1-0.1-1.3-0.4c-0.3-0.3-0.5-0.7-0.5-1.1
		c0-0.3,0.1-0.6,0.2-0.8c0.1-0.2,0.3-0.4,0.6-0.5c0.3-0.1,0.6-0.2,1.1-0.3c0.6-0.1,1.1-0.2,1.3-0.3v-0.1c0-0.3-0.1-0.5-0.2-0.6
		c-0.1-0.1-0.4-0.2-0.7-0.2c-0.2,0-0.4,0-0.6,0.1S604.3,397.9,604.2,398.1z M606.1,399.2c-0.2,0.1-0.5,0.1-0.8,0.2
		c-0.4,0.1-0.6,0.2-0.7,0.2c-0.2,0.1-0.3,0.3-0.3,0.5c0,0.2,0.1,0.4,0.2,0.5c0.1,0.1,0.3,0.2,0.5,0.2c0.2,0,0.5-0.1,0.7-0.2
		c0.2-0.1,0.3-0.3,0.3-0.5c0-0.1,0.1-0.3,0.1-0.7V399.2z"/>
</g>
<g class="st5">
	<path class="st6" d="M565.3,414.1l1.6,0.2c0,0.2,0.1,0.3,0.2,0.4c0.1,0.1,0.3,0.1,0.6,0.1c0.4,0,0.6-0.1,0.8-0.2
		c0.1-0.1,0.2-0.2,0.3-0.3c0-0.1,0.1-0.3,0.1-0.6v-0.8c-0.4,0.6-0.9,0.8-1.6,0.8c-0.7,0-1.2-0.3-1.7-0.9c-0.3-0.5-0.5-1-0.5-1.7
		c0-0.9,0.2-1.5,0.6-2c0.4-0.5,0.9-0.7,1.6-0.7c0.6,0,1.2,0.3,1.6,0.8v-0.7h1.3v4.7c0,0.6,0,1.1-0.2,1.4c-0.1,0.3-0.2,0.5-0.4,0.7
		c-0.2,0.2-0.4,0.3-0.7,0.4c-0.3,0.1-0.7,0.1-1.2,0.1c-0.9,0-1.5-0.2-1.9-0.5c-0.4-0.3-0.6-0.7-0.6-1.1
		C565.3,414.2,565.3,414.1,565.3,414.1z M566.5,411c0,0.6,0.1,1,0.3,1.2c0.2,0.3,0.5,0.4,0.8,0.4c0.3,0,0.6-0.1,0.8-0.4
		c0.2-0.3,0.3-0.7,0.3-1.2c0-0.5-0.1-0.9-0.3-1.2c-0.2-0.3-0.5-0.4-0.8-0.4c-0.3,0-0.6,0.1-0.8,0.4
		C566.6,410.1,566.5,410.5,566.5,411z"/>
	<path class="st6" d="M572.6,410.1l-1.2-0.2c0.1-0.5,0.4-0.9,0.7-1.1c0.3-0.2,0.8-0.4,1.5-0.4c0.6,0,1.1,0.1,1.4,0.2
		c0.3,0.1,0.5,0.3,0.6,0.6c0.1,0.2,0.2,0.6,0.2,1.2l0,1.6c0,0.5,0,0.8,0.1,1c0,0.2,0.1,0.4,0.2,0.7h-1.4c0-0.1-0.1-0.2-0.1-0.4
		c0-0.1,0-0.1,0-0.2c-0.2,0.2-0.5,0.4-0.8,0.5c-0.3,0.1-0.6,0.2-0.9,0.2c-0.5,0-1-0.1-1.3-0.4c-0.3-0.3-0.5-0.7-0.5-1.1
		c0-0.3,0.1-0.6,0.2-0.8c0.1-0.2,0.3-0.4,0.6-0.5c0.3-0.1,0.6-0.2,1.1-0.3c0.6-0.1,1.1-0.2,1.3-0.3v-0.1c0-0.3-0.1-0.5-0.2-0.6
		c-0.1-0.1-0.4-0.2-0.7-0.2c-0.2,0-0.4,0-0.6,0.1S572.6,409.9,572.6,410.1z M574.4,411.2c-0.2,0.1-0.5,0.1-0.8,0.2
		c-0.4,0.1-0.6,0.2-0.7,0.2c-0.2,0.1-0.3,0.3-0.3,0.5c0,0.2,0.1,0.4,0.2,0.5c0.1,0.1,0.3,0.2,0.5,0.2c0.2,0,0.5-0.1,0.7-0.2
		c0.2-0.1,0.3-0.3,0.3-0.5c0-0.1,0.1-0.3,0.1-0.7V411.2z"/>
	<path class="st6" d="M577.1,413.7v-7.2h1.4v7.2H577.1z"/>
	<path class="st6" d="M579.9,413.7v-7.2h1.4v7.2H579.9z"/>
	<path class="st6" d="M585.6,412.1l1.4,0.2c-0.2,0.5-0.5,0.9-0.8,1.1c-0.4,0.3-0.9,0.4-1.4,0.4c-0.9,0-1.6-0.3-2-0.9
		c-0.3-0.5-0.5-1.1-0.5-1.8c0-0.9,0.2-1.5,0.7-2c0.4-0.5,1-0.7,1.7-0.7c0.8,0,1.4,0.3,1.8,0.8c0.4,0.5,0.7,1.3,0.6,2.3h-3.4
		c0,0.4,0.1,0.7,0.3,0.9c0.2,0.2,0.5,0.3,0.8,0.3c0.2,0,0.4-0.1,0.5-0.2S585.6,412.3,585.6,412.1z M585.7,410.7
		c0-0.4-0.1-0.7-0.3-0.9s-0.4-0.3-0.7-0.3c-0.3,0-0.5,0.1-0.7,0.3c-0.2,0.2-0.3,0.5-0.3,0.9H585.7z"/>
	<path class="st6" d="M589.5,413.7h-1.4v-5.2h1.3v0.7c0.2-0.3,0.4-0.6,0.6-0.7c0.2-0.1,0.4-0.2,0.6-0.2c0.3,0,0.6,0.1,0.9,0.3
		l-0.4,1.2c-0.2-0.2-0.4-0.2-0.6-0.2c-0.2,0-0.4,0.1-0.5,0.2c-0.1,0.1-0.2,0.3-0.3,0.6c-0.1,0.3-0.1,0.9-0.1,1.7V413.7z"/>
	<path class="st6" d="M591.4,408.5h1.5l1.2,3.7l1.2-3.7h1.4l-1.8,5l-0.3,0.9c-0.1,0.3-0.2,0.5-0.3,0.7c-0.1,0.2-0.2,0.3-0.4,0.4
		s-0.3,0.2-0.5,0.2c-0.2,0.1-0.4,0.1-0.7,0.1c-0.3,0-0.5,0-0.8-0.1l-0.1-1.1c0.2,0,0.4,0.1,0.6,0.1c0.3,0,0.6-0.1,0.7-0.3
		c0.2-0.2,0.3-0.4,0.4-0.7L591.4,408.5z"/>
</g>
</svg>
