<?xml version="1.0" encoding="utf-8"?>
<!-- Generator: Adobe Illustrator 24.2.3, SVG Export Plug-In . SVG Version: 6.00 Build 0)  -->
<svg version="1.1" id="Layer_1" xmlns="http://www.w3.org/2000/svg" xmlns:xlink="http://www.w3.org/1999/xlink" x="0px" y="0px"
	 viewBox="0 0 1870 1849.6" style="enable-background:new 0 0 1870 1849.6;" xml:space="preserve">
<style type="text/css">
	.st0{fill:#4196B1;}
	.st1{fill:#A8E0E5;}
	.st2{fill:#95D8D8;}
	.st3{fill:#99B8BF;}
	.st4{opacity:0.15;fill:#010101;enable-background:new    ;}
	.st5{fill:#596068;}
	.st6{fill:#9BAEB7;}
	.st7{fill:none;stroke:#7A8E93;stroke-width:2;stroke-linecap:round;stroke-miterlimit:10;}
	.st8{opacity:5.000000e-02;fill:#030303;enable-background:new    ;}
	.st9{fill:#B8BFC1;}
	.st10{fill:#FFFFFF;}
	.st11{fill:#E5E8EA;}
	.st12{opacity:8.000000e-02;fill:#101010;enable-background:new    ;}
	.st13{fill:#0D5577;}
	.st14{fill:#4E9FB9;}
	.st15{fill:none;stroke:#4A90A0;stroke-width:0.75;stroke-linecap:round;stroke-linejoin:round;}
	.st16{opacity:0.74;fill:#575757;enable-background:new    ;}
	.st17{font-family:'Arial-BoldMT';}
	.st18{font-size:24px;}
	.st19{fill:none;stroke:#EBF2F2;stroke-width:4;stroke-miterlimit:10;}
	.st20{fill:none;stroke:#EBF2F2;stroke-width:8;stroke-miterlimit:10;}
	.st21{fill:#646B6D;}
	.st22{font-family:'ArialMT';}
	.st23{font-size:16.833px;}
	.st24{fill:#EBF2F2;}
	.st25{fill:none;stroke:#7A8E93;stroke-miterlimit:10;}
	.st26{fill:#7A8E93;stroke:#7A8E93;stroke-width:0.13;stroke-miterlimit:10;}
	.st27{font-size:17.388px;}
	.st28{font-size:17.435px;}
	.st29{fill:none;stroke:#7A8E93;stroke-linecap:round;stroke-linejoin:round;}
</style>
<g id="shadow">
	<polygon class="st0" points="588.9,1849.6 1313.5,1426.7 1479.4,1715.6 1793.7,1715.6 1793.7,924.8 1801.1,915.6 1792,847.7 
		1810.2,847.7 1810.2,813 1870,813 1870,632.7 1618.6,632.7 1618.6,10.4 453.7,0 1.3,787 505.7,1657.2 484.9,1671.1 	"/>
</g>
<g id="background">
	<polygon class="st1" points="577.3,1823.4 1283.4,1411.2 1445,1692.7 1751.4,1692.7 1751.4,922.1 1758.5,913.1 1749.7,846.9 
		1767.4,846.9 1767.4,813.1 1825.7,813.1 1825.7,637.4 1580.7,637.4 1580.7,31 445.5,20.8 4.6,787.8 496.2,1635.8 475.9,1649.4 	"/>
</g>
<g id="shapes">
	<rect x="1127.1" y="476.9" class="st2" width="250.9" height="336.3"/>
	<path class="st2" d="M680.3,22.9l900.4,8v299.9H756.3c0,0-76-0.5-76-99.8V22.9z"/>
	<path class="st2" d="M732.7,874.8L711,832.1c0,0-30.3-50.4,29.2-68l179.2-1.7l234,392.2l22,3.1l138.5,236.5l-739,424.9L476,1649.3
		l20.8-13l-19.7-33.6l162.7-93.7l272.3-157.5l-5.1-11.2l72.6-42.1l13-7.4l6.1-3L834.8,1026l-9.9,6.8L732.7,874.8z"/>
	<polygon class="st2" points="151.5,532.3 323,632.4 323,928.8 145.4,1030.8 3.8,786.9 	"/>
	<polygon class="st3" points="1283.7,1411.6 1445,1692.7 1751.4,1692.7 1751.4,922.1 1541.9,1281.6 1477.7,1281.1 1305.4,1378.5 
		1313.8,1394.3 	"/>
	<polygon class="st2" points="1333.5,1033.7 1402.2,1143.2 1577.9,844.4 1749.7,846.9 1758.5,913.1 1541.9,1281.6 1477.7,1281.1 
		1305.4,1378.5 1175.3,1157.8 1209.6,1100.3 	"/>
</g>
<g id="_">
	<path class="st4" d="M1177.8,125.7L1177.8,125.7c-6.8,0-12.3-5.5-12.3-12.3l0,0v-1.1l0,0l0.6-9.5c0.2-9.1,7.6-16.5,16.7-16.7l0,0
		c9.2-0.1,16.8,7,17.3,16.2l0.6,9.5v0.6c0,7.2-5.6,12.8-12.8,13.4L1177.8,125.7L1177.8,125.7z"/>
	<path class="st5" d="M1178.9,126.3c-6.8,0-12.3-5.5-12.3-12.3l0,0v-1.1l0,0v-9.5c0.2-9.1,7.6-16.5,16.7-16.7l0,0
		c9.2-0.1,16.8,7,17.3,16.2l0.6,9.5v0.6c0.1,6.9-5.4,12.7-12.3,12.8h-0.1h-0.4L1178.9,126.3L1178.9,126.3z"/>
	<path class="st6" d="M1181.7,129.1L1181.7,129.1c-6.8,0-12.3-5.5-12.3-12.3l0,0v-1.1l0,0l0.6-9.5c0.2-9.1,7.6-16.5,16.7-16.7l0,0
		c9.2-0.1,16.8,7,17.3,16.2l0.6,9.5v0.6c0,7.2-5.6,12.8-12.8,13.4L1181.7,129.1L1181.7,129.1z"/>
	<path class="st7" d="M1168.9,117.9l0.6-11.1c0.2-9.1,7.6-16.5,16.7-16.7l0,0c9.2-0.1,16.8,7,17.3,16.2l1.1,11.1"/>
	<path class="st4" d="M1239.2,125.7L1239.2,125.7c-6.8,0-12.3-5.5-12.3-12.3l0,0v-1.1l0,0l0.6-9.5c0.2-9.1,7.6-16.5,16.7-16.7l0,0
		c9.2-0.1,16.8,7,17.3,16.2l0.6,9.5v0.6c0,7.2-5.6,12.8-12.8,13.4L1239.2,125.7L1239.2,125.7z"/>
	<path class="st5" d="M1240.3,126.3c-6.8,0-12.3-5.5-12.3-12.3l0,0v-1.1l0,0v-9.5c0.2-9.1,7.6-16.5,16.7-16.7l0,0
		c9.2-0.1,16.8,7,17.3,16.2l0.6,9.5v0.6c0.1,6.9-5.4,12.7-12.3,12.8h-0.1h-0.4L1240.3,126.3L1240.3,126.3z"/>
	<path class="st6" d="M1243.1,129.1L1243.1,129.1c-6.8,0-12.3-5.5-12.3-12.3l0,0v-1.1l0,0l0.6-9.5c0.2-9.1,7.6-16.5,16.7-16.7l0,0
		c9.2-0.1,16.8,7,17.3,16.2l0.6,9.5v0.6c0,7.2-5.6,12.8-12.8,13.4L1243.1,129.1L1243.1,129.1z"/>
	<path class="st7" d="M1230.2,117.9l0.6-11.1c0.2-9.1,7.6-16.5,16.7-16.7l0,0c9.2-0.1,16.8,7,17.3,16.2l1.1,11.1"/>
	<path class="st4" d="M1305.7,125.7L1305.7,125.7c-6.8,0-12.3-5.5-12.3-12.3l0,0v-1.1l0,0l0.6-9.5c0.2-9.1,7.6-16.5,16.7-16.7l0,0
		c9.2-0.1,16.8,7,17.3,16.2l0.6,9.5v0.6c0,7.2-5.6,12.8-12.8,13.4L1305.7,125.7L1305.7,125.7z"/>
	<path class="st5" d="M1306.8,126.3c-6.8,0-12.3-5.5-12.3-12.3l0,0v-1.1l0,0v-9.5c0.2-9.1,7.6-16.5,16.7-16.7l0,0
		c9.2-0.1,16.8,7,17.3,16.2l0.6,9.5v0.6c0.1,6.9-5.4,12.7-12.3,12.8h-0.1h-0.4L1306.8,126.3L1306.8,126.3z"/>
	<path class="st6" d="M1309.6,129.1L1309.6,129.1c-6.8,0-12.3-5.5-12.3-12.3l0,0v-1.1l0,0l0.6-9.5c0.2-9.1,7.6-16.5,16.7-16.7l0,0
		c9.2-0.1,16.8,7,17.3,16.2l0.6,9.5v0.6c0,7.2-5.6,12.8-12.8,13.4L1309.6,129.1L1309.6,129.1z"/>
	<path class="st7" d="M1296.7,117.9l0.6-11.1c0.2-9.1,7.6-16.5,16.7-16.7l0,0c9.2-0.1,16.8,7,17.3,16.2l1.1,11.1"/>
	<path class="st4" d="M1367,125.7L1367,125.7c-6.8,0-12.3-5.5-12.3-12.3l0,0v-1.1l0,0l0.6-9.5c0.2-9.1,7.6-16.5,16.7-16.7l0,0
		c9.2-0.1,16.8,7,17.3,16.2l0.6,9.5v0.6c0,7.2-5.6,12.8-12.8,13.4L1367,125.7L1367,125.7z"/>
	<path class="st5" d="M1368.2,126.3c-6.8,0-12.3-5.5-12.3-12.3l0,0v-1.1l0,0v-9.5c0.2-9.1,7.6-16.5,16.7-16.7l0,0
		c9.2-0.1,16.8,7,17.3,16.2l0.6,9.5v0.6c0.1,6.9-5.4,12.7-12.3,12.8h-0.1h-0.4L1368.2,126.3L1368.2,126.3z"/>
	<path class="st6" d="M1370.9,129.1L1370.9,129.1c-6.8,0-12.3-5.5-12.3-12.3l0,0v-1.1l0,0l0.6-9.5c0.2-9.1,7.6-16.5,16.7-16.7l0,0
		c9.2-0.1,16.8,7,17.3,16.2l0.6,9.5v0.6c0,7.2-5.6,12.8-12.8,13.4L1370.9,129.1L1370.9,129.1z"/>
	<path class="st7" d="M1358.1,117.9l0.6-11.1c0.2-9.1,7.6-16.5,16.7-16.7l0,0c9.2-0.1,16.8,7,17.3,16.2l1.1,11.1"/>
	<path class="st4" d="M1414.4,150.3L1414.4,150.3c0-6.8,5.5-12.3,12.3-12.3l0,0h1.1l9.5,0.6c9.1,0.2,16.5,7.6,16.7,16.7l0,0
		c0.1,9.2-7,16.8-16.2,17.3l-9.5,0.6h-0.6c-7.2,0-12.8-5.6-13.4-12.8l0,0L1414.4,150.3z"/>
	<path class="st5" d="M1413.8,151.4c0-6.8,5.5-12.3,12.3-12.3l0,0h10.6c9.1,0.2,16.5,7.6,16.7,16.7l0,0c0.1,9.2-7,16.8-16.2,17.3
		l-9.5,0.6h-0.6c-6.9,0.1-12.7-5.4-12.8-12.3v-0.1v-0.4l0,0L1413.8,151.4L1413.8,151.4z"/>
	<path class="st6" d="M1411.1,154.2L1411.1,154.2c0-6.8,5.5-12.3,12.3-12.3l0,0h1.1l9.5,0.6c9.1,0.2,16.5,7.6,16.7,16.7l0,0
		c0.1,9.2-7,16.8-16.2,17.3l-9.5,0.6h-0.6c-7.2,0-12.8-5.6-13.4-12.8l0,0L1411.1,154.2z"/>
	<path class="st7" d="M1422.2,141.4l11.2,0.6c9.1,0.2,16.5,7.6,16.7,16.7l0,0c0.1,9.2-7,16.8-16.2,17.3l-11.1,1.1"/>
	<path class="st4" d="M1414.4,211.7L1414.4,211.7c0-6.8,5.5-12.3,12.3-12.3l0,0h1.1l9.5,0.6c9.1,0.2,16.5,7.6,16.7,16.7l0,0
		c0.1,9.2-7,16.8-16.2,17.3l-9.5,0.6h-0.6c-7.2,0-12.8-5.6-13.4-12.8l0,0L1414.4,211.7z"/>
	<path class="st5" d="M1413.8,212.8c0-6.8,5.5-12.3,12.3-12.3l0,0h10.6c9.1,0.2,16.5,7.6,16.7,16.7l0,0c0.1,9.2-7,16.8-16.2,17.3
		l-9.5,0.6h-0.6c-6.9,0.1-12.7-5.4-12.8-12.3v-0.1v-0.4l0,0L1413.8,212.8L1413.8,212.8z"/>
	<path class="st6" d="M1411.1,215.6L1411.1,215.6c0-6.8,5.5-12.3,12.3-12.3l0,0h1.1l9.5,0.6c9.1,0.2,16.5,7.6,16.7,16.7l0,0
		c0.1,9.2-7,16.8-16.2,17.3l-9.5,0.6h-0.6c-7.2,0-12.8-5.6-13.4-12.8l0,0L1411.1,215.6z"/>
	<path class="st7" d="M1422.2,202.8l11.2,0.6c9.1,0.2,16.5,7.6,16.7,16.7l0,0c0.1,9.2-7,16.8-16.2,17.3l-11.1,1.1"/>
	<path class="st4" d="M1146.4,222.1L1146.4,222.1c0,6.8-5.5,12.3-12.3,12.3l0,0h-1.1l-9.5-0.6c-9.1-0.2-16.5-7.6-16.7-16.7l0,0
		c-0.1-9.2,7-16.8,16.2-17.3l9.5-0.6h0.6c7.2,0,12.8,5.6,13.4,12.8l0,0L1146.4,222.1z"/>
	<path class="st5" d="M1146.9,221c0,6.8-5.5,12.3-12.3,12.3l0,0H1124c-9.1-0.2-16.5-7.6-16.7-16.7l0,0c-0.1-9.2,7-16.8,16.2-17.3
		l9.5-0.6h0.6c6.9-0.1,12.7,5.4,12.8,12.3v0.1v0.4l0,0L1146.9,221L1146.9,221z"/>
	<path class="st6" d="M1149.7,218.2L1149.7,218.2c0,6.8-5.5,12.3-12.3,12.3l0,0h-1.1l-9.5-0.6c-9.1-0.2-16.5-7.6-16.7-16.7l0,0
		c-0.1-9.2,7-16.8,16.2-17.3l9.5-0.6h0.6c7.2,0,12.8,5.6,13.4,12.8l0,0L1149.7,218.2z"/>
	<path class="st7" d="M1138.6,231l-11.2-0.6c-9.1-0.2-16.5-7.6-16.7-16.7l0,0c-0.1-9.2,7-16.8,16.2-17.3l11.2-1.1"/>
	<path class="st4" d="M1146.4,160.7L1146.4,160.7c0,6.8-5.5,12.3-12.3,12.3l0,0h-1.1l-9.5-0.6c-9.1-0.2-16.5-7.6-16.7-16.7l0,0
		c-0.1-9.2,7-16.8,16.2-17.3l9.5-0.6h0.6c7.2,0,12.8,5.6,13.4,12.8l0,0L1146.4,160.7z"/>
	<path class="st5" d="M1146.9,159.6c0,6.8-5.5,12.3-12.3,12.3l0,0H1124c-9.1-0.2-16.5-7.6-16.7-16.7l0,0c-0.1-9.2,7-16.8,16.2-17.3
		l9.5-0.6h0.6c6.9-0.1,12.7,5.4,12.8,12.3v0.1v0.4l0,0L1146.9,159.6L1146.9,159.6z"/>
	<path class="st6" d="M1149.7,156.8L1149.7,156.8c0,6.8-5.5,12.3-12.3,12.3l0,0h-1.1l-9.5-0.6c-9.1-0.2-16.5-7.6-16.7-16.7l0,0
		c-0.1-9.2,7-16.8,16.2-17.3l9.5-0.6h0.6c7.2,0,12.8,5.6,13.4,12.8l0,0L1149.7,156.8z"/>
	<path class="st7" d="M1138.6,169.6l-11.2-0.5c-9.1-0.2-16.5-7.6-16.7-16.7l0,0c-0.1-9.2,7-16.8,16.2-17.3l11.2-1.1"/>
	<path class="st4" d="M1381.7,244L1381.7,244c6.8,0,12.3,5.5,12.3,12.3l0,0v1.1l0,0l-0.6,9.5c-0.2,9.1-7.6,16.5-16.7,16.7l0,0
		c-9.2,0.1-16.8-7-17.3-16.2l-0.6-9.5v-0.6c0-7.2,5.6-12.8,12.8-13.4L1381.7,244L1381.7,244z"/>
	<path class="st5" d="M1380.6,243.4c6.8,0,12.3,5.5,12.3,12.3l0,0v1.1l0,0v9.5c-0.2,9.1-7.6,16.5-16.7,16.7l0,0
		c-9.2,0.1-16.8-7-17.3-16.2l-0.6-9.5v-0.6c-0.1-6.9,5.4-12.7,12.3-12.8h0.1h0.4L1380.6,243.4L1380.6,243.4z"/>
	<path class="st6" d="M1377.8,240.6L1377.8,240.6c6.8,0,12.3,5.5,12.3,12.3l0,0v1.1l0,0l-0.6,9.5c-0.2,9.1-7.6,16.5-16.7,16.7l0,0
		c-9.2,0.1-16.8-7-17.3-16.2l-0.6-9.5v-0.6c0-7.2,5.6-12.8,12.8-13.4h10.1L1377.8,240.6L1377.8,240.6z"/>
	<path class="st7" d="M1390.6,251.8l-0.6,11.1c-0.2,9.1-7.6,16.5-16.7,16.7l0,0c-9.2,0.1-16.8-7-17.3-16.2l-1.1-11.1"/>
	<path class="st4" d="M1320.3,244L1320.3,244c6.8,0,12.3,5.5,12.3,12.3l0,0v1.1l0,0l-0.6,9.5c-0.2,9.1-7.6,16.5-16.7,16.7l0,0
		c-9.2,0.1-16.8-7-17.3-16.2l-0.6-9.5v-0.6c0-7.2,5.6-12.8,12.8-13.4h10.1L1320.3,244L1320.3,244z"/>
	<path class="st5" d="M1319.2,243.4c6.8,0,12.3,5.5,12.3,12.3l0,0v1.1l0,0v9.5c-0.2,9.1-7.6,16.5-16.7,16.7l0,0
		c-9.2,0.1-16.8-7-17.3-16.2l-0.6-9.5v-0.6c-0.1-6.9,5.4-12.7,12.3-12.8h0.1h0.4L1319.2,243.4L1319.2,243.4z"/>
	<path class="st6" d="M1316.4,240.6L1316.4,240.6c6.8,0,12.3,5.5,12.3,12.3l0,0v1.1l0,0l-0.6,9.5c-0.2,9.1-7.6,16.5-16.7,16.7l0,0
		c-9.2,0.1-16.8-7-17.3-16.2l-0.6-9.5v-0.6c0-7.2,5.6-12.8,12.8-13.4h10.1L1316.4,240.6L1316.4,240.6z"/>
	<path class="st7" d="M1329.2,251.8l-0.6,11.1c-0.2,9.1-7.6,16.5-16.7,16.7l0,0c-9.2,0.1-16.8-7-17.3-16.2l-1.1-11.1"/>
	<path class="st4" d="M1253.8,244L1253.8,244c6.8,0,12.3,5.5,12.3,12.3l0,0v1.1l0,0l-0.6,9.5c-0.2,9.1-7.6,16.5-16.7,16.7l0,0
		c-9.2,0.1-16.8-7-17.3-16.2l-0.6-9.5v-0.6c0-7.2,5.6-12.8,12.8-13.4h10.1L1253.8,244L1253.8,244z"/>
	<path class="st5" d="M1252.7,243.4c6.8,0,12.3,5.5,12.3,12.3l0,0v1.1l0,0v9.5c-0.2,9.1-7.6,16.5-16.7,16.7l0,0
		c-9.2,0.1-16.8-7-17.3-16.2l-0.6-9.5v-0.6c-0.1-6.9,5.4-12.7,12.3-12.8h0.1h0.4L1252.7,243.4L1252.7,243.4z"/>
	<path class="st6" d="M1249.9,240.6L1249.9,240.6c6.8,0,12.3,5.5,12.3,12.3l0,0v1.1l0,0l-0.6,9.5c-0.2,9.1-7.6,16.5-16.7,16.7l0,0
		c-9.2,0.1-16.8-7-17.3-16.2l-0.6-9.5v-0.6c0-7.2,5.6-12.8,12.8-13.4h10.1L1249.9,240.6L1249.9,240.6z"/>
	<path class="st7" d="M1262.7,251.8l-0.6,11.1c-0.2,9.1-7.6,16.5-16.7,16.7l0,0c-9.2,0.1-16.8-7-17.3-16.2l-1.1-11.1"/>
	<path class="st4" d="M1192.4,244L1192.4,244c6.8,0,12.3,5.5,12.3,12.3l0,0v1.1l0,0l-0.6,9.5c-0.2,9.1-7.6,16.5-16.7,16.7l0,0
		c-9.2,0.1-16.8-7-17.3-16.2l-0.6-9.5v-0.6c0-7.2,5.6-12.8,12.8-13.4h10.1L1192.4,244L1192.4,244z"/>
	<path class="st5" d="M1191.3,243.4c6.8,0,12.3,5.5,12.3,12.3l0,0v1.1l0,0v9.5c-0.2,9.1-7.6,16.5-16.7,16.7l0,0
		c-9.2,0.1-16.8-7-17.3-16.2l-0.6-9.5v-0.6c-0.1-6.9,5.4-12.7,12.3-12.8h0.1h0.4L1191.3,243.4L1191.3,243.4z"/>
	<path class="st6" d="M1188.5,240.6L1188.5,240.6c6.8,0,12.3,5.5,12.3,12.3l0,0v1.1l0,0l-0.6,9.5c-0.2,9.1-7.6,16.5-16.7,16.7l0,0
		c-9.2,0.1-16.8-7-17.3-16.2l-0.6-9.5v-0.6c0-7.2,5.6-12.8,12.8-13.4h10.1L1188.5,240.6L1188.5,240.6z"/>
	<path class="st7" d="M1201.4,251.8l-0.6,11.1c-0.2,9.1-7.6,16.5-16.7,16.7l0,0c-9.2,0.1-16.8-7-17.3-16.2l-1.1-11.1"/>
	<rect x="1142.4" y="117.6" class="st8" width="274.8" height="135.1"/>
	<rect x="1144.8" y="117.6" class="st9" width="274.8" height="135.1"/>
	<rect x="1146.2" y="117.6" class="st10" width="274.8" height="135.1"/>
	<path class="st4" d="M820.3,142.8L820.3,142.8c-6.8,0-12.3-5.5-12.3-12.3l0,0v-1.1l0,0l0.6-9.5c0.2-9.1,7.6-16.5,16.7-16.7l0,0
		c9.2-0.1,16.8,7,17.3,16.2l0.6,9.5v0.6c0,7.2-5.6,12.8-12.8,13.4L820.3,142.8L820.3,142.8z"/>
	<path class="st5" d="M821.4,143.4c-6.8,0-12.3-5.5-12.3-12.3l0,0V130l0,0v-9.5c0.2-9.1,7.6-16.5,16.7-16.7l0,0
		c9.2-0.1,16.8,7,17.3,16.2l0.6,9.5v0.6c0.1,6.9-5.4,12.7-12.3,12.8h-0.1h-0.4L821.4,143.4L821.4,143.4z"/>
	<path class="st6" d="M824.2,146.2L824.2,146.2c-6.8,0-12.3-5.5-12.3-12.3l0,0v-1.1l0,0l0.6-9.5c0.2-9.1,7.6-16.5,16.7-16.7l0,0
		c9.2-0.1,16.8,7,17.3,16.2l0.6,9.5v0.6c0,7.2-5.6,12.8-12.8,13.4L824.2,146.2L824.2,146.2z"/>
	<path class="st7" d="M811.4,135l0.6-11.1c0.2-9.1,7.6-16.5,16.7-16.7l0,0c9.2-0.1,16.8,7,17.3,16.2l1.1,11.1"/>
	<path class="st4" d="M892.9,142.8L892.9,142.8c-6.8,0-12.3-5.5-12.3-12.3l0,0v-1.1l0,0l0.6-9.5c0.2-9.1,7.6-16.5,16.7-16.7l0,0
		c9.2-0.1,16.8,7,17.3,16.2l0.6,9.5v0.6c0,7.2-5.6,12.8-12.8,13.4L892.9,142.8L892.9,142.8z"/>
	<path class="st5" d="M894,143.4c-6.8,0-12.3-5.5-12.3-12.3l0,0V130l0,0v-9.5c0.2-9.1,7.6-16.5,16.7-16.7l0,0
		c9.2-0.1,16.8,7,17.3,16.2l0.6,9.5v0.6c0.1,6.9-5.4,12.7-12.3,12.8h-0.1h-0.4L894,143.4L894,143.4z"/>
	<path class="st6" d="M896.8,146.2L896.8,146.2c-6.8,0-12.3-5.5-12.3-12.3l0,0v-1.1l0,0l0.6-9.5c0.2-9.1,7.6-16.5,16.7-16.7l0,0
		c9.2-0.1,16.8,7,17.3,16.2l0.6,9.5v0.6c0,7.2-5.6,12.8-12.8,13.4L896.8,146.2L896.8,146.2z"/>
	<path class="st7" d="M884,135l0.6-11.1c0.2-9.1,7.6-16.5,16.7-16.7l0,0c9.2-0.1,16.8,7,17.3,16.2l1.1,11.1"/>
	<path class="st4" d="M908.1,214.1L908.1,214.1c6.8,0,12.3,5.5,12.3,12.3l0,0v1.1l0,0l-0.6,9.5c-0.2,9.1-7.6,16.5-16.7,16.7l0,0
		c-9.2,0.1-16.8-7-17.3-16.2l-0.6-9.5v-0.6c0-7.2,5.6-12.8,12.8-13.4L908.1,214.1L908.1,214.1z"/>
	<path class="st5" d="M907,213.6c6.8,0,12.3,5.5,12.3,12.3l0,0v1.1l0,0v9.5c-0.2,9.1-7.6,16.5-16.7,16.7l0,0
		c-9.2,0.1-16.8-7-17.3-16.2l-0.6-9.5v-0.6c-0.1-6.9,5.4-12.7,12.3-12.8h0.1h0.4L907,213.6L907,213.6z"/>
	<path class="st6" d="M904.2,210.8L904.2,210.8c6.8,0,12.3,5.5,12.3,12.3l0,0v1.1l0,0l-0.6,9.5c-0.2,9.1-7.6,16.5-16.7,16.7l0,0
		c-9.2,0.1-16.8-7-17.3-16.2l-0.6-9.5v-0.6c0-7.2,5.6-12.8,12.8-13.4L904.2,210.8L904.2,210.8z"/>
	<path class="st7" d="M917,222l-0.6,11.1c-0.2,9.1-7.6,16.5-16.7,16.7l0,0c-9.2,0.1-16.8-7-17.3-16.2l-1.1-11.1"/>
	<path class="st4" d="M833.4,214.1L833.4,214.1c6.8,0,12.3,5.5,12.3,12.3l0,0v1.1l0,0l-0.6,9.5c-0.2,9.1-7.6,16.5-16.7,16.7l0,0
		c-9.2,0.1-16.8-7-17.3-16.2l-0.6-9.5v-0.6c0-7.2,5.6-12.8,12.8-13.4L833.4,214.1L833.4,214.1z"/>
	<path class="st5" d="M832.3,213.6c6.8,0,12.3,5.5,12.3,12.3l0,0v1.1l0,0v9.5c-0.2,9.1-7.6,16.5-16.7,16.7l0,0
		c-9.2,0.1-16.8-7-17.3-16.2l-0.6-9.5v-0.6c-0.1-6.9,5.4-12.7,12.3-12.8h0.1h0.4L832.3,213.6L832.3,213.6z"/>
	<path class="st6" d="M829.5,210.8L829.5,210.8c6.8,0,12.3,5.5,12.3,12.3l0,0v1.1l0,0l-0.6,9.5c-0.2,9.1-7.6,16.5-16.7,16.7l0,0
		c-9.2,0.1-16.8-7-17.3-16.2l-0.6-9.5v-0.6c0-7.2,5.6-12.8,12.8-13.4L829.5,210.8L829.5,210.8z"/>
	<path class="st7" d="M842.3,222l-0.6,11.1c-0.2,9.1-7.6,16.5-16.7,16.7l0,0c-9.2,0.1-16.8-7-17.3-16.2l-1.1-11.1"/>
	<path class="st4" d="M944.3,171.8L944.3,171.8c0-6.8,5.5-12.3,12.3-12.3l0,0h1.1l9.5,0.6c9.1,0.2,16.5,7.6,16.7,16.7l0,0
		c0.1,9.2-7,16.8-16.2,17.3l-9.5,0.6h-0.6c-7.2,0-12.8-5.6-13.4-12.8l0,0L944.3,171.8L944.3,171.8z"/>
	<path class="st5" d="M943.7,172.9c0-6.8,5.5-12.3,12.3-12.3l0,0h10.6c9.1,0.2,16.5,7.6,16.7,16.7l0,0c0.1,9.2-7,16.8-16.2,17.3
		l-9.5,0.6H957c-6.9,0.1-12.7-5.4-12.8-12.3v-0.1v-0.4l0,0L943.7,172.9z"/>
	<path class="st6" d="M940.9,175.7L940.9,175.7c0-6.8,5.5-12.3,12.3-12.3l0,0h1.1l9.5,0.6c9.1,0.2,16.5,7.6,16.7,16.7l0,0
		c0.1,9.2-7,16.8-16.2,17.3l-9.5,0.6h-0.6c-7.2,0-12.8-5.6-13.4-12.8l0,0L940.9,175.7L940.9,175.7z"/>
	<path class="st7" d="M952.1,162.8l11.1,0.6c9.1,0.2,16.5,7.6,16.7,16.7l0,0c0.1,9.2-7,16.8-16.2,17.3l-11.2,1.1"/>
	<path class="st4" d="M778.1,185.6L778.1,185.6c0,6.8-5.5,12.3-12.3,12.3l0,0h-1.1l-9.5-0.6c-9.1-0.2-16.5-7.6-16.7-16.7l0,0
		c-0.1-9.2,7-16.8,16.2-17.3l9.5-0.6h0.6c7.2,0,12.8,5.6,13.4,12.8l0,0v10.1H778.1z"/>
	<path class="st5" d="M778.7,184.5c0,6.8-5.5,12.3-12.3,12.3l0,0h-10.6c-9.1-0.2-16.5-7.6-16.7-16.7l0,0c-0.1-9.2,7-16.8,16.2-17.3
		l9.5-0.6h0.6c6.9-0.1,12.7,5.4,12.8,12.3v0.1v0.4l0,0L778.7,184.5L778.7,184.5z"/>
	<path class="st6" d="M781.5,181.7L781.5,181.7c0,6.8-5.5,12.3-12.3,12.3l0,0h-1.1l-9.5-0.6c-9.1-0.2-16.5-7.6-16.7-16.7l0,0
		c-0.1-9.2,7-16.8,16.2-17.3l9.5-0.6h0.6c7.2,0,12.8,5.6,13.4,12.8l0,0L781.5,181.7L781.5,181.7z"/>
	<path class="st7" d="M770.3,194.6l-11.1-0.6c-9.1-0.2-16.5-7.6-16.7-16.7l0,0c-0.1-9.2,7-16.8,16.2-17.3l11.2-1.1"/>
	<rect x="775.8" y="134.4" class="st8" width="174.9" height="89.1"/>
	<rect x="777.3" y="134.4" class="st9" width="174.9" height="89.1"/>
	<rect x="778.2" y="134.4" class="st10" width="174.9" height="89.1"/>
	<path class="st4" d="M1215.2,586.8L1215.2,586.8c0,6.8-5.5,12.3-12.3,12.3l0,0h-1.1l-9.5-0.6c-9.1-0.2-16.5-7.6-16.7-16.7l0,0
		c-0.1-9.2,7-16.8,16.2-17.3l9.5-0.6h0.6c7.2,0,12.8,5.6,13.4,12.8l0,0L1215.2,586.8z"/>
	<path class="st5" d="M1215.7,585.6c0,6.8-5.5,12.3-12.3,12.3l0,0h-10.6c-9.1-0.2-16.5-7.6-16.7-16.7l0,0c-0.1-9.2,7-16.8,16.2-17.3
		l9.5-0.6h0.6c6.9-0.1,12.7,5.4,12.8,12.3v0.1v0.4l0,0L1215.7,585.6L1215.7,585.6z"/>
	<path class="st6" d="M1218.5,582.9L1218.5,582.9c0,6.8-5.5,12.3-12.3,12.3l0,0h-1.1l-9.5-0.6c-9.1-0.2-16.5-7.6-16.7-16.7l0,0
		c-0.1-9.2,7-16.8,16.2-17.3l9.5-0.6h0.6c7.2,0,12.8,5.6,13.4,12.8l0,0L1218.5,582.9z"/>
	<path class="st7" d="M1207.4,595.7l-11.1-0.6c-9.1-0.2-16.5-7.6-16.7-16.7l0,0c-0.1-9.2,7-16.8,16.2-17.3l11.2-1.1"/>
	<path class="st4" d="M1243.1,553L1243.1,553c-6.8,0-12.3-5.5-12.3-12.3l0,0v-1.1l0,0l0.6-9.5c0.2-9.1,7.6-16.5,16.7-16.7l0,0
		c9.2-0.1,16.8,7,17.3,16.2l0.6,9.5v0.6c0,7.2-5.6,12.8-12.8,13.4L1243.1,553L1243.1,553z"/>
	<path class="st5" d="M1244.2,553.6c-6.8,0-12.3-5.5-12.3-12.3l0,0v-1.1l0,0v-9.5c0.2-9.1,7.6-16.5,16.7-16.7l0,0
		c9.2-0.1,16.8,7,17.3,16.2l0.6,9.5v0.6c0.1,6.9-5.4,12.7-12.3,12.8h-0.1h-0.4L1244.2,553.6L1244.2,553.6z"/>
	<path class="st6" d="M1247,556.4L1247,556.4c-6.8,0-12.3-5.5-12.3-12.3l0,0V543l0,0l0.6-9.5c0.2-9.1,7.6-16.5,16.7-16.7l0,0
		c9.2-0.1,16.8,7,17.3,16.2l0.6,9.5v0.6c0,7.2-5.6,12.8-12.8,13.4L1247,556.4L1247,556.4L1247,556.4z"/>
	<path class="st7" d="M1234.2,545.2l0.6-11.2c0.2-9.1,7.6-16.5,16.7-16.7l0,0c9.2-0.1,16.8,7,17.3,16.2l1.1,11.1"/>
	<path class="st4" d="M1215.2,653.5L1215.2,653.5c0,6.8-5.5,12.3-12.3,12.3l0,0h-1.1l-9.5-0.6c-9.1-0.2-16.5-7.6-16.7-16.7l0,0
		c-0.1-9.2,7-16.8,16.2-17.3l9.5-0.6h0.6c7.2,0,12.8,5.6,13.4,12.8l0,0L1215.2,653.5z"/>
	<path class="st5" d="M1215.7,652.3c0,6.8-5.5,12.3-12.3,12.3l0,0h-10.6c-9.1-0.2-16.5-7.6-16.7-16.7l0,0c-0.1-9.2,7-16.8,16.2-17.3
		l9.5-0.6h0.6c6.9-0.1,12.7,5.4,12.8,12.3v0.1v0.4l0,0L1215.7,652.3L1215.7,652.3z"/>
	<path class="st6" d="M1218.5,649.6L1218.5,649.6c0,6.8-5.5,12.3-12.3,12.3l0,0h-1.1l-9.5-0.6c-9.1-0.2-16.5-7.6-16.7-16.7l0,0
		c-0.1-9.2,7-16.8,16.2-17.3l9.5-0.6h0.6c7.2,0,12.8,5.6,13.4,12.8l0,0L1218.5,649.6z"/>
	<path class="st7" d="M1207.4,662.4l-11.1-0.6c-9.1-0.2-16.5-7.6-16.7-16.7l0,0c-0.1-9.2,7-16.8,16.2-17.3l11.2-1.1"/>
	<path class="st4" d="M1215.2,714.4L1215.2,714.4c0,6.8-5.5,12.3-12.3,12.3l0,0h-1.1l-9.5-0.6c-9.1-0.2-16.5-7.6-16.7-16.7l0,0
		c-0.1-9.2,7-16.8,16.2-17.3l9.5-0.6h0.6c7.2,0,12.8,5.6,13.4,12.8l0,0L1215.2,714.4z"/>
	<path class="st5" d="M1215.7,713.3c0,6.8-5.5,12.3-12.3,12.3l0,0h-10.6c-9.1-0.2-16.5-7.6-16.7-16.7l0,0c-0.1-9.2,7-16.8,16.2-17.3
		l9.5-0.6h0.6c6.9-0.1,12.7,5.4,12.8,12.3v0.1v0.4l0,0L1215.7,713.3L1215.7,713.3z"/>
	<path class="st6" d="M1218.5,710.5L1218.5,710.5c0,6.8-5.5,12.3-12.3,12.3l0,0h-1.1l-9.5-0.6c-9.1-0.2-16.5-7.6-16.7-16.7l0,0
		c-0.1-9.2,7-16.8,16.2-17.3l9.5-0.6h0.6c7.2,0,12.8,5.6,13.4,12.8l0,0L1218.5,710.5z"/>
	<path class="st7" d="M1207.4,723.4l-11.1-0.6c-9.1-0.2-16.5-7.6-16.7-16.7l0,0c-0.1-9.2,7-16.8,16.2-17.3l11.2-1.1"/>
	<path class="st4" d="M1286.8,700.5L1286.8,700.5c0-6.8,5.5-12.3,12.3-12.3l0,0h1.1l9.5,0.6c9.1,0.2,16.5,7.6,16.7,16.7l0,0
		c0.1,9.2-7,16.8-16.2,17.3l-9.5,0.6h-0.6c-7.2,0-12.8-5.6-13.4-12.8l0,0L1286.8,700.5z"/>
	<path class="st5" d="M1286.2,701.6c0-6.8,5.5-12.3,12.3-12.3l0,0h10.6c9.1,0.2,16.5,7.6,16.7,16.7l0,0c0.1,9.2-7,16.8-16.2,17.3
		l-9.5,0.6h-0.6c-6.9,0.1-12.7-5.4-12.8-12.3v-0.1v-0.4l0,0L1286.2,701.6L1286.2,701.6z"/>
	<path class="st6" d="M1283.4,704.4L1283.4,704.4c0-6.8,5.5-12.3,12.3-12.3l0,0h1.1l9.5,0.6c9.1,0.2,16.5,7.6,16.7,16.7l0,0
		c0.1,9.2-7,16.8-16.2,17.3l-9.5,0.6h-0.6c-7.2,0-12.8-5.6-13.4-12.8l0,0L1283.4,704.4z"/>
	<path class="st7" d="M1294.6,691.5l11.2,0.6c9.1,0.2,16.5,7.6,16.7,16.7l0,0c0.1,9.2-7,16.8-16.2,17.3l-11.1,1.1"/>
	<path class="st4" d="M1286.8,633.8L1286.8,633.8c0-6.8,5.5-12.3,12.3-12.3l0,0h1.1l9.5,0.6c9.1,0.2,16.5,7.6,16.7,16.7l0,0
		c0.1,9.2-7,16.8-16.2,17.3l-9.5,0.6h-0.6c-7.2,0-12.8-5.6-13.4-12.8l0,0L1286.8,633.8z"/>
	<path class="st5" d="M1286.2,634.9c0-6.8,5.5-12.3,12.3-12.3l0,0h10.6c9.1,0.2,16.5,7.6,16.7,16.7l0,0c0.1,9.2-7,16.8-16.2,17.3
		l-9.5,0.6h-0.6c-6.9,0.1-12.7-5.4-12.8-12.3v-0.1v-0.4l0,0L1286.2,634.9L1286.2,634.9z"/>
	<path class="st6" d="M1283.4,637.7L1283.4,637.7c0-6.8,5.5-12.3,12.3-12.3l0,0h1.1l9.5,0.6c9.1,0.2,16.5,7.6,16.7,16.7l0,0
		c0.1,9.2-7,16.8-16.2,17.3l-9.5,0.6h-0.6c-7.2,0-12.8-5.6-13.4-12.8l0,0L1283.4,637.7z"/>
	<path class="st7" d="M1294.6,624.8l11.2,0.6c9.1,0.2,16.5,7.6,16.7,16.7l0,0c0.1,9.2-7,16.8-16.2,17.3l-11.1,1.1"/>
	<path class="st4" d="M1286.8,572.8L1286.8,572.8c0-6.8,5.5-12.3,12.3-12.3l0,0h1.1l9.5,0.6c9.1,0.2,16.5,7.6,16.7,16.7l0,0
		c0.1,9.2-7,16.8-16.2,17.3l-9.5,0.6h-0.6c-7.2,0-12.8-5.6-13.4-12.8l0,0L1286.8,572.8z"/>
	<path class="st5" d="M1286.2,573.9c0-6.8,5.5-12.3,12.3-12.3l0,0h10.6c9.1,0.2,16.5,7.6,16.7,16.7l0,0c0.1,9.2-7,16.8-16.2,17.3
		l-9.5,0.6h-0.6c-6.9,0.1-12.7-5.4-12.8-12.3v-0.1v-0.4l0,0L1286.2,573.9L1286.2,573.9z"/>
	<path class="st6" d="M1283.4,576.7L1283.4,576.7c0-6.8,5.5-12.3,12.3-12.3l0,0h1.1l9.5,0.6c9.1,0.2,16.5,7.6,16.7,16.7l0,0
		c0.1,9.2-7,16.8-16.2,17.3l-9.5,0.6h-0.6c-7.2,0-12.8-5.6-13.4-12.8l0,0L1283.4,576.7z"/>
	<path class="st7" d="M1294.6,563.9l11.2,0.6c9.1,0.2,16.5,7.6,16.7,16.7l0,0c0.1,9.2-7,16.8-16.2,17.3l-11.1,1.1"/>
	<path class="st4" d="M1259.2,730.6L1259.2,730.6c6.8,0,12.3,5.5,12.3,12.3l0,0v1.1l0,0l-0.6,9.5c-0.2,9.1-7.6,16.5-16.7,16.7l0,0
		c-9.2,0.1-16.8-7-17.3-16.2l-0.6-9.5v-0.6c0-7.2,5.6-12.8,12.8-13.4L1259.2,730.6L1259.2,730.6z"/>
	<path class="st5" d="M1258.1,730c6.8,0,12.3,5.5,12.3,12.3l0,0v1.1l0,0v9.5c-0.2,9.1-7.6,16.5-16.7,16.7l0,0
		c-9.2,0.1-16.8-7-17.3-16.2l-0.6-9.5v-0.6c-0.1-6.9,5.4-12.7,12.3-12.8h0.1h0.4L1258.1,730L1258.1,730z"/>
	<path class="st6" d="M1255.3,727.2L1255.3,727.2c6.8,0,12.3,5.5,12.3,12.3l0,0v1.1l0,0l-0.6,9.5c-0.2,9.1-7.6,16.5-16.7,16.7l0,0
		c-9.2,0.1-16.8-7-17.3-16.2l-0.6-9.5v-0.6c0-7.2,5.6-12.8,12.8-13.4L1255.3,727.2L1255.3,727.2z"/>
	<path class="st7" d="M1268.1,738.4l-0.6,11.2c-0.2,9.1-7.6,16.5-16.7,16.7l0,0c-9.2,0.1-16.8-7-17.3-16.2l-1.1-11.2"/>
	<rect x="1208" y="556.4" class="st8" width="89.1" height="174.9"/>
	<rect x="1208" y="557.9" class="st9" width="89.1" height="174.9"/>
	<rect x="1208" y="558.8" class="st10" width="89.1" height="174.9"/>
	<rect x="465" y="128.5" class="st8" width="174.9" height="65.6"/>
	<rect x="466.5" y="128.5" class="st9" width="174.9" height="65.6"/>
	<rect x="467.4" y="128.5" class="st10" width="174.9" height="65.6"/>
	<rect x="781.5" y="580.6" class="st8" width="204.6" height="81.2"/>
	<rect x="783.2" y="580.6" class="st9" width="204.6" height="81.2"/>
	<rect x="784.2" y="580.6" class="st10" width="204.6" height="81.2"/>
	
		<rect x="408.8" y="386.2" transform="matrix(0.5095 -0.8605 0.8605 0.5095 -216.0784 657.9807)" class="st8" width="120.6" height="264.6"/>
	
		<rect x="410.2" y="387.4" transform="matrix(0.5101 -0.8601 0.8601 0.5101 -216.5014 659.234)" class="st9" width="120.5" height="264.6"/>
	
		<rect x="412.1" y="388.1" transform="matrix(0.5095 -0.8605 0.8605 0.5095 -216.0909 661.7273)" class="st10" width="120.6" height="264.6"/>
	<path class="st4" d="M450.3,430L450.3,430c-5.8-3.6-7.5-11.2-3.9-17l0,0l0.6-0.9l0,0l5.5-7.7c5.1-7.6,15.2-9.9,23.1-5.3l0,0
		c7.8,4.8,10.4,14.9,6,22.9l-4.6,8.3l-0.3,0.5c-3.9,6.1-11.5,7.9-18,4.5l0,0L450.3,430L450.3,430z"/>
	<path class="st5" d="M451,431c-5.8-3.6-7.5-11.2-3.9-17l0,0l0.6-0.9l0,0l5-8c5.1-7.6,15.2-9.9,23.1-5.3l0,0
		c7.8,4.8,10.4,14.9,6,22.9l-4.6,8.3l-0.3,0.5c-3.6,6-11.3,7.9-17.3,4.3l0,0c-0.1-0.1-0.2-0.1-0.4-0.2l0,0L451,431L451,431z"/>
	<path class="st6" d="M451.9,434.9L451.9,434.9c-5.8-3.6-7.5-11.2-3.9-17l0,0l0.6-0.9l0,0l5.5-7.7c5.1-7.6,15.2-9.9,23.1-5.3l0,0
		c7.8,4.8,10.4,14.9,6,22.9l-4.6,8.3l-0.3,0.5c-3.9,6.1-11.5,7.9-18,4.5l0,0L451.9,434.9L451.9,434.9z"/>
	<path class="st7" d="M446.9,418.6l6.4-9.1c5.1-7.6,15.2-9.9,23.1-5.3l0,0c7.8,4.8,10.4,14.9,6,22.9l-5,10"/>
	<path class="st4" d="M546.7,484.8L546.7,484.8c-5.8-3.6-7.5-11.2-3.9-17l0,0l0.6-0.9l0,0l5.5-7.7c5.1-7.6,15.2-9.9,23.1-5.3l0,0
		c7.8,4.8,10.4,14.9,6,22.9l-4.6,8.3l-0.3,0.5c-3.9,6.1-11.5,7.9-18,4.5l0,0L546.7,484.8L546.7,484.8z"/>
	<path class="st5" d="M547.4,485.8c-5.8-3.6-7.5-11.2-3.9-17l0,0l0.6-0.9l0,0l5-8c5.1-7.6,15.2-9.9,23.1-5.3l0,0
		c7.8,4.8,10.4,14.9,6,22.9l-4.6,8.3l-0.3,0.5c-3.6,6-11.3,7.9-17.3,4.3l0,0c-0.1-0.1-0.2-0.1-0.4-0.2l0,0L547.4,485.8L547.4,485.8z
		"/>
	<path class="st6" d="M548.2,489.7L548.2,489.7c-5.8-3.6-7.5-11.2-3.9-17l0,0l0.6-0.9l0,0l5.5-7.7c5.1-7.6,15.2-9.9,23.1-5.3l0,0
		c7.8,4.8,10.4,14.9,6,22.9l-4.6,8.3l-0.3,0.5c-3.9,6.1-11.5,7.9-18,4.5l0,0L548.2,489.7L548.2,489.7z"/>
	<path class="st7" d="M543.3,473.4l6.4-9.1c5.1-7.6,15.2-9.9,23.1-5.3l0,0c7.8,4.8,10.4,14.9,6,22.9l-5,10"/>
	<path class="st4" d="M492.2,609.4L492.2,609.4c5.8,3.6,7.5,11.2,3.9,17l0,0l-0.6,0.9l0,0L490,635c-5.1,7.6-15.2,9.9-23.1,5.3l0,0
		c-7.8-4.8-10.4-14.9-6-22.9l4.6-8.3l0.3-0.5c3.9-6.1,11.5-7.9,18-4.5l0,0L492.2,609.4L492.2,609.4z"/>
	<path class="st5" d="M491.6,608.3c5.8,3.6,7.5,11.2,3.9,17l0,0l-0.6,0.9l0,0l-5,8c-5.1,7.6-15.2,9.9-23.1,5.3l0,0
		c-7.8-4.8-10.4-14.9-6-22.9l4.6-8.3l0.3-0.5c3.6-6,11.3-7.9,17.3-4.3l0,0c0.1,0.1,0.2,0.1,0.4,0.2l0,0L491.6,608.3L491.6,608.3z"/>
	<path class="st6" d="M490.7,604.5L490.7,604.5c5.8,3.6,7.5,11.2,3.9,17l0,0l-0.6,0.9l0,0l-5.6,7.7c-5.1,7.6-15.2,9.9-23.1,5.3l0,0
		c-7.8-4.8-10.4-14.9-6-22.9l4.6-8.3l0.3-0.5c3.9-6.1,11.5-7.9,18-4.5l0,0L490.7,604.5L490.7,604.5z"/>
	<path class="st7" d="M495.6,620.7l-6.4,9.1c-5.1,7.6-15.2,9.9-23.1,5.3l0,0c-7.8-4.8-10.4-14.9-6-22.9l5-10"/>
	<path class="st4" d="M395.8,554.6L395.8,554.6c5.8,3.6,7.5,11.2,3.9,17l0,0l-0.6,0.9l0,0l-5.5,7.7c-5.1,7.6-15.2,9.9-23.1,5.3l0,0
		c-7.8-4.8-10.4-14.9-6-22.9l4.6-8.3l0.3-0.5c3.9-6.1,11.5-7.9,18-4.5l0,0L395.8,554.6L395.8,554.6z"/>
	<path class="st5" d="M395.2,553.5c5.8,3.6,7.5,11.2,3.9,17l0,0l-0.6,0.9l0,0l-5,8c-5.1,7.6-15.2,9.9-23.1,5.3l0,0
		c-7.8-4.8-10.4-14.9-6-22.9l4.6-8.3l0.3-0.5c3.6-6,11.3-7.9,17.3-4.3l0,0c0.1,0.1,0.2,0.1,0.4,0.2l0,0L395.2,553.5L395.2,553.5z"/>
	<path class="st6" d="M394.3,549.7L394.3,549.7c5.8,3.6,7.5,11.2,3.9,17l0,0l-0.6,0.9l0,0l-5.5,7.7c-5.1,7.6-15.2,9.9-23.1,5.3l0,0
		c-7.8-4.8-10.4-14.9-6-22.9l4.6-8.3l0.3-0.5c3.9-6.1,11.5-7.9,18-4.5l0,0L394.3,549.7L394.3,549.7z"/>
	<path class="st7" d="M399.2,565.9l-6.4,9.1c-5.1,7.6-15.2,9.9-23.1,5.3l0,0c-7.8-4.8-10.4-14.9-6-22.9l5-10"/>
	<path class="st4" d="M214,644.4L214,644.4c-6.7,0.9-12.9-3.8-13.9-10.5c0-0.4-0.1-0.7-0.1-1.1l0,0l-0.7-9.5
		c-1-9.1,5.3-17.4,14.3-18.8l0,0c9.1-1.3,17.6,4.7,19.3,13.7l1.8,9.3l0.1,0.6c1,7.2-3.8,13.5-10.9,15l0,0L214,644.4L214,644.4z"/>
	<path class="st5" d="M215.2,644.8c-6.7,0.9-12.9-3.8-13.9-10.5c0-0.4-0.1-0.7-0.1-1.1l0,0l-1.3-9.4c-1-9.1,5.3-17.4,14.3-18.8l0,0
		c9.1-1.3,17.6,4.7,19.3,13.7l1.8,9.3l0.1,0.6c1.1,6.9-3.6,13.3-10.5,14.4c-0.1,0-0.3,0-0.4,0.1l0,0L215.2,644.8L215.2,644.8z"/>
	<path class="st6" d="M218.3,647.2L218.3,647.2c-6.7,0.9-12.9-3.8-13.9-10.5c0-0.4-0.1-0.7-0.1-1.1l0,0l-0.7-9.5
		c-1-9.1,5.3-17.4,14.3-18.8l0,0c9.1-1.3,17.6,4.7,19.3,13.7l1.8,9.3l0.1,0.6c1,7.2-3.8,13.5-10.9,15l0,0L218.3,647.2L218.3,647.2z"
		/>
	<path class="st7" d="M204.1,637.9l-1-11.1c-1-9.1,5.3-17.4,14.3-18.8l0,0c9.1-1.3,17.6,4.7,19.3,13.7l2.6,10.9"/>
	<path class="st4" d="M137.7,717.2L137.7,717.2c2.3-6.3,9.4-9.5,15.7-7.2c0.1,0,0.2,0.1,0.2,0.1c0.3,0.1,0.7,0.3,1,0.4l0,0l8.7,3.9
		c8.5,3.5,12.7,13,9.7,21.6l0,0c-3.1,8.6-12.5,13.2-21.2,10.4l-9.1-2.8l-0.5-0.2c-6.7-2.6-10.2-9.9-8-16.7l0,0L137.7,717.2
		L137.7,717.2z"/>
	<path class="st5" d="M136.8,718c2.3-6.3,9.4-9.5,15.7-7.2c0.1,0,0.2,0.1,0.2,0.1c0.3,0.1,0.7,0.3,1,0.4l0,0l8.9,3.4
		c8.5,3.5,12.7,13,9.7,21.6l0,0c-3.1,8.6-12.5,13.2-21.2,10.4l-9.1-2.8l-0.5-0.2c-6.6-2.4-10-9.6-7.6-16.2c0-0.1,0.1-0.3,0.1-0.4
		l0,0L136.8,718L136.8,718z"/>
	<path class="st6" d="M133.2,719.6L133.2,719.6c2.3-6.3,9.4-9.5,15.7-7.2c0.1,0,0.2,0.1,0.2,0.1c0.3,0.1,0.7,0.3,1,0.4l0,0l8.7,3.9
		c8.5,3.5,12.7,13,9.7,21.6l0,0c-3.1,8.6-12.5,13.2-21.2,10.4l-9.1-2.8l-0.5-0.2c-6.7-2.6-10.2-9.9-8-16.7l0,0L133.2,719.6
		L133.2,719.6z"/>
	<path class="st7" d="M148.1,711.6l10.3,4.5c8.5,3.5,12.7,13,9.7,21.6l0,0c-3.1,8.6-12.5,13.2-21.2,10.4l-10.8-2.9"/>
	<path class="st4" d="M135.7,838.7L135.7,838.7c-2.2-6.4,1.2-13.4,7.6-15.6c0.3-0.1,0.7-0.2,1-0.3l0,0l9.1-2.6
		c8.7-2.8,18.1,1.8,21.3,10.4l0,0c3.1,8.6-1.2,18.2-9.7,21.6l-8.8,3.6l-0.5,0.2c-6.9,2.4-13.9-1.1-16.8-7.8l0,0L135.7,838.7
		L135.7,838.7z"/>
	<path class="st5" d="M135.5,839.9c-2.2-6.4,1.2-13.4,7.6-15.6c0.3-0.1,0.7-0.2,1-0.3l0,0l9-3.1c8.7-2.8,18.1,1.8,21.3,10.4l0,0
		c3.1,8.6-1.2,18.2-9.7,21.6l-8.8,3.6l-0.5,0.2c-6.5,2.4-13.8-1-16.2-7.5v-0.1c0-0.1-0.1-0.3-0.1-0.4l0,0L135.5,839.9L135.5,839.9z"
		/>
	<path class="st6" d="M133.8,843.4L133.8,843.4c-2.2-6.4,1.2-13.4,7.6-15.6c0.3-0.1,0.7-0.2,1-0.3l0,0l9.1-2.6
		c8.7-2.8,18.1,1.8,21.3,10.4l0,0c3.1,8.6-1.2,18.2-9.7,21.6l-8.8,3.6l-0.5,0.2c-6.9,2.4-13.9-1.1-16.8-7.8l0,0L133.8,843.4
		L133.8,843.4z"/>
	<path class="st7" d="M140.2,827.7l10.7-3.1c8.7-2.8,18.1,1.8,21.3,10.4l0,0c3.1,8.6-1.2,18.2-9.7,21.6l-10.2,4.7"/>
	<path class="st4" d="M178.7,950.3L178.7,950.3c6.2,2.8,9,10.1,6.2,16.3c-0.1,0.3-0.3,0.7-0.5,1l0,0L180,976
		c-4,8.2-13.7,11.9-22.1,8.4l0,0c-8.4-3.7-12.4-13.3-9.1-21.8l3.4-8.9l0.2-0.5c3-6.5,10.5-9.5,17.2-6.9l0,0L178.7,950.3L178.7,950.3
		z"/>
	<path class="st5" d="M177.9,949.3c6.2,2.8,9,10.1,6.2,16.3c-0.1,0.3-0.3,0.7-0.5,1l0,0l-3.9,8.6c-4,8.2-13.7,11.9-22.1,8.4l0,0
		c-8.4-3.7-12.4-13.3-9.1-21.8l3.4-8.9l0.2-0.5c2.8-6.4,10.2-9.3,16.6-6.6c0.1,0.1,0.3,0.1,0.4,0.2l0,0L177.9,949.3L177.9,949.3z"/>
	<path class="st6" d="M176.5,945.7L176.5,945.7c6.2,2.8,9,10.1,6.2,16.3c-0.1,0.3-0.3,0.7-0.5,1l0,0l-4.4,8.4
		c-4,8.2-13.7,11.9-22.1,8.4l0,0c-8.4-3.7-12.4-13.3-9.1-21.8l3.4-8.9l0.2-0.5c3-6.5,10.5-9.5,17.2-6.9l0,0L176.5,945.7L176.5,945.7
		z"/>
	<path class="st7" d="M183.7,961.1l-5.1,9.9c-4,8.2-13.7,11.9-22.1,8.4l0,0c-8.4-3.7-12.4-13.3-9.1-21.8L151,947"/>
	<polygon class="st8" points="97,946.9 169.1,913.1 96.9,783.1 166.7,653.8 102.4,617.6 4.6,787.8 	"/>
	<polygon class="st9" points="96.2,946.1 168.3,912.2 96.2,782.3 166,652.9 101.7,616.7 3.8,786.9 	"/>
	<polygon class="st10" points="94.1,946.1 166.2,912.2 94,782.3 163.8,652.9 99.5,616.7 1.7,786.9 	"/>
	<path class="st4" d="M285.8,1116.6L285.8,1116.6c-6.1,2.9-13.5,0.3-16.4-5.8c-0.2-0.3-0.3-0.7-0.4-1l0,0l-3.6-8.8
		c-3.7-8.4-0.3-18.2,7.9-22.3l0,0c8.2-4,18.1-0.9,22.6,7.1l4.6,8.3l0.2,0.5c3,6.5,0.5,14.2-5.8,17.6l0,0L285.8,1116.6L285.8,1116.6z
		"/>
	<path class="st5" d="M287.1,1116.6c-6.1,2.9-13.5,0.3-16.4-5.8c-0.2-0.3-0.3-0.7-0.4-1l0,0l-4.1-8.6c-3.7-8.4-0.3-18.2,7.9-22.3
		l0,0c8.2-4,18.1-0.9,22.6,7.1l4.6,8.3l0.2,0.5c3.1,6.2,0.6,13.8-5.6,16.9h-0.1c-0.1,0.1-0.2,0.1-0.4,0.2l0,0L287.1,1116.6
		L287.1,1116.6z"/>
	<path class="st6" d="M290.8,1117.9L290.8,1117.9c-6.1,2.9-13.5,0.3-16.4-5.8c-0.2-0.3-0.3-0.7-0.4-1l0,0l-3.6-8.8
		c-3.7-8.4-0.3-18.2,7.9-22.3l0,0c8.2-4,18.1-0.9,22.6,7.1l4.6,8.3l0.2,0.5c3,6.5,0.5,14.2-5.8,17.6l0,0L290.8,1117.9L290.8,1117.9z
		"/>
	<path class="st7" d="M274.4,1113.4l-4.3-10.3c-3.7-8.4-0.3-18.2,7.9-22.3l0,0c8.2-4,18.1-0.9,22.6,7.1l5.8,9.6"/>
	<path class="st4" d="M376.6,1066.4L376.6,1066.4c-6.1,2.9-13.5,0.3-16.4-5.8c-0.2-0.3-0.3-0.7-0.4-1l0,0l-3.6-8.8
		c-3.7-8.4-0.3-18.2,7.9-22.3l0,0c8.2-4,18.1-0.9,22.6,7.1l4.6,8.3l0.2,0.5c3,6.5,0.5,14.2-5.8,17.6l0,0L376.6,1066.4L376.6,1066.4z
		"/>
	<path class="st5" d="M377.9,1066.4c-6.1,2.9-13.5,0.3-16.4-5.8c-0.2-0.3-0.3-0.7-0.4-1l0,0l-4.1-8.6c-3.7-8.4-0.3-18.2,7.9-22.3
		l0,0c8.2-4,18.1-0.9,22.6,7.1l4.6,8.3l0.2,0.5c3.1,6.2,0.6,13.8-5.6,16.9h-0.1c-0.1,0.1-0.3,0.1-0.4,0.2l0,0L377.9,1066.4
		L377.9,1066.4z"/>
	<path class="st6" d="M381.6,1067.7L381.6,1067.7c-6.1,2.9-13.5,0.3-16.4-5.8c-0.2-0.3-0.3-0.7-0.4-1l0,0l-3.6-8.8
		c-3.7-8.4-0.3-18.2,7.9-22.3l0,0c8.2-4,18.1-0.9,22.6,7.1l4.6,8.3l0.2,0.5c3,6.5,0.5,14.2-5.8,17.6l0,0L381.6,1067.7L381.6,1067.7z
		"/>
	<path class="st7" d="M365.2,1063.2l-4.3-10.3c-3.7-8.4-0.3-18.2,7.9-22.3l0,0c8.2-4,18.1-0.9,22.6,7.1l5.8,9.6"/>
	<path class="st4" d="M464.7,1016.2L464.7,1016.2c-6.1,2.9-13.5,0.3-16.4-5.8c-0.2-0.3-0.3-0.7-0.4-1l0,0l-3.6-8.8
		c-3.7-8.4-0.3-18.2,7.9-22.3l0,0c8.2-4,18.1-0.9,22.6,7.1l4.6,8.3l0.2,0.5c3,6.5,0.5,14.2-5.8,17.6l0,0L464.7,1016.2L464.7,1016.2z
		"/>
	<path class="st5" d="M465.9,1016.2c-6.1,2.9-13.5,0.3-16.4-5.8c-0.2-0.3-0.3-0.7-0.4-1l0,0l-4.1-8.6c-3.7-8.4-0.3-18.2,7.9-22.3
		l0,0c8.2-4,18.1-0.9,22.6,7.1l4.6,8.3l0.2,0.5c3.1,6.2,0.6,13.8-5.6,16.9h-0.1c-0.1,0.1-0.2,0.1-0.4,0.2l0,0L465.9,1016.2
		L465.9,1016.2z"/>
	<path class="st6" d="M469.6,1017.5L469.6,1017.5c-6.1,2.9-13.5,0.3-16.4-5.8c-0.2-0.3-0.3-0.7-0.4-1l0,0l-3.6-8.8
		c-3.7-8.4-0.3-18.2,7.9-22.3l0,0c8.2-4,18.1-0.9,22.6,7.1l4.6,8.3l0.2,0.5c3,6.5,0.5,14.2-5.8,17.6l0,0L469.6,1017.5L469.6,1017.5z
		"/>
	<path class="st7" d="M453.3,1013l-4.3-10.3c-3.7-8.4-0.3-18.2,7.9-22.3l0,0c8.2-4,18.1-0.9,22.6,7.1l5.8,9.6"/>
	<path class="st4" d="M534.3,1098.8L534.3,1098.8c6-3.1,13.5-0.8,16.6,5.3l0,0c0.2,0.3,0.4,0.7,0.5,1l0,0l3.9,8.7
		c4,8.2,0.8,18.1-7.2,22.5l0,0c-8.1,4.3-18.1,1.4-22.8-6.4l-4.8-8.2l-0.3-0.5c-3.2-6.4-0.9-14.2,5.3-17.8l0,0L534.3,1098.8z"/>
	<path class="st5" d="M533.1,1098.8c6-3.1,13.5-0.8,16.6,5.3l0,0c0.2,0.3,0.4,0.7,0.5,1l0,0l4.3,8.4c4,8.2,0.8,18.1-7.2,22.5l0,0
		c-8.1,4.3-18.1,1.4-22.8-6.4l-4.8-8.2l-0.3-0.5c-3.3-6.1-1-13.8,5.1-17.1c0.1-0.1,0.2-0.1,0.4-0.2l0,0L533.1,1098.8L533.1,1098.8z"
		/>
	<path class="st6" d="M529.3,1097.6L529.3,1097.6c6-3.1,13.5-0.8,16.6,5.3l0,0c0.2,0.3,0.4,0.7,0.5,1l0,0l3.9,8.7
		c4,8.2,0.8,18.1-7.2,22.5l0,0c-8.1,4.3-18.1,1.4-22.8-6.4l-4.8-8.2l-0.3-0.5c-3.2-6.4-0.9-14.2,5.3-17.8l0,0L529.3,1097.6z"/>
	<path class="st7" d="M545.8,1101.6l4.6,10.2c4,8.2,0.8,18.1-7.2,22.5l0,0c-8.1,4.3-18.1,1.4-22.8-6.4l-6.1-9.4"/>
	<path class="st4" d="M445.1,1151.7L445.1,1151.7c6-3.1,13.5-0.8,16.6,5.3l0,0c0.2,0.3,0.4,0.7,0.5,1l0,0l3.9,8.7
		c4,8.2,0.8,18.1-7.2,22.5l0,0c-8.1,4.3-18.1,1.4-22.8-6.4l-4.8-8.2l-0.3-0.5c-3.2-6.4-0.9-14.2,5.3-17.8l0,0L445.1,1151.7z"/>
	<path class="st5" d="M443.8,1151.7c6-3.1,13.5-0.8,16.6,5.3l0,0c0.2,0.3,0.4,0.7,0.5,1l0,0l4.3,8.4c4,8.2,0.8,18.1-7.2,22.5l0,0
		c-8.1,4.3-18.1,1.4-22.8-6.4l-4.8-8.2l-0.3-0.5c-3.3-6.1-1-13.8,5.1-17.1c0.1-0.1,0.2-0.1,0.4-0.2l0,0L443.8,1151.7L443.8,1151.7z"
		/>
	<path class="st6" d="M440.1,1150.5L440.1,1150.5c6-3.1,13.5-0.8,16.6,5.3l0,0c0.2,0.3,0.4,0.7,0.5,1l0,0l3.9,8.7
		c4,8.2,0.8,18.1-7.2,22.5l0,0c-8.1,4.3-18.1,1.4-22.8-6.4l-4.8-8.2l-0.3-0.5c-3.2-6.4-0.9-14.2,5.3-17.8l0,0L440.1,1150.5z"/>
	<path class="st7" d="M456.6,1154.5l4.6,10.2c4,8.2,0.8,18.1-7.2,22.5l0,0c-8.1,4.3-18.1,1.4-22.8-6.4l-6.1-9.4"/>
	<path class="st4" d="M358.6,1204.5L358.6,1204.5c6-3.1,13.5-0.8,16.6,5.3l0,0c0.2,0.3,0.4,0.7,0.5,1l0,0l3.9,8.7
		c4,8.2,0.8,18.1-7.2,22.5l0,0c-8.1,4.3-18.1,1.4-22.8-6.4l-4.8-8.2l-0.3-0.5c-3.2-6.4-0.9-14.2,5.3-17.8l0,0L358.6,1204.5z"/>
	<path class="st5" d="M357.3,1204.6c6-3.1,13.5-0.8,16.6,5.3l0,0c0.2,0.3,0.4,0.7,0.5,1l0,0l4.3,8.4c4,8.2,0.8,18.1-7.2,22.5l0,0
		c-8.1,4.3-18.1,1.4-22.8-6.4l-4.8-8.2l-0.3-0.5c-3.3-6.1-1-13.8,5.1-17.1c0.1-0.1,0.2-0.1,0.4-0.2l0,0L357.3,1204.6L357.3,1204.6z"
		/>
	<path class="st6" d="M353.6,1203.4L353.6,1203.4c6-3.1,13.5-0.8,16.6,5.3l0,0c0.2,0.3,0.4,0.7,0.5,1l0,0l3.9,8.7
		c4,8.2,0.8,18.1-7.2,22.5l0,0c-8.1,4.3-18.1,1.4-22.8-6.4l-4.8-8.2l-0.3-0.5c-3.2-6.4-0.9-14.2,5.3-17.8l0,0L353.6,1203.4z"/>
	<path class="st7" d="M370.1,1207.4l4.6,10.2c4,8.2,0.8,18.1-7.2,22.5l0,0c-8.1,4.3-18.1,1.4-22.8-6.4l-6.1-9.4"/>
	<path class="st8" d="M224.1,1157.8l305-172.3c0,0,83.6-3.4,59.1,92.9l-307.5,177.1L224.1,1157.8z"/>
	<path class="st9" d="M223.2,1156.4l305-172.3c0,0,83.6-3.4,59.1,92.9l-307.5,177.1L223.2,1156.4z"/>
	<path class="st10" d="M221.3,1153.8l305-172.3c0,0,83.6-3.4,59.1,92.9l-307.5,177.1L221.3,1153.8z"/>
	<path class="st4" d="M416.6,1351.6L416.6,1351.6c-6.1,2.9-13.5,0.3-16.4-5.8c-0.2-0.3-0.3-0.7-0.4-1l0,0l-3.6-8.8
		c-3.7-8.4-0.3-18.2,7.9-22.3l0,0c8.2-4,18.1-0.9,22.6,7.1l4.6,8.3l0.2,0.5c3,6.5,0.5,14.2-5.8,17.6l0,0L416.6,1351.6L416.6,1351.6z
		"/>
	<path class="st5" d="M417.9,1351.6c-6.1,2.9-13.5,0.3-16.4-5.8c-0.2-0.3-0.3-0.7-0.4-1l0,0l-4.1-8.5c-3.7-8.4-0.3-18.2,7.9-22.3
		l0,0c8.2-4,18.1-0.9,22.6,7.1l4.6,8.3l0.2,0.5c3.1,6.2,0.6,13.8-5.6,16.9h-0.1c-0.1,0.1-0.2,0.1-0.4,0.2l0,0L417.9,1351.6
		L417.9,1351.6z"/>
	<path class="st6" d="M421.6,1352.9L421.6,1352.9c-6.1,2.9-13.5,0.3-16.4-5.8c-0.2-0.3-0.3-0.7-0.4-1l0,0l-3.6-8.8
		c-3.7-8.4-0.3-18.2,7.9-22.3l0,0c8.2-4,18.1-0.9,22.6,7.1l4.6,8.3l0.2,0.5c3,6.5,0.5,14.2-5.8,17.6l0,0L421.6,1352.9L421.6,1352.9z
		"/>
	<path class="st7" d="M405.2,1348.4l-4.3-10.3c-3.7-8.4-0.3-18.2,7.9-22.3l0,0c8.2-4,18.1-0.9,22.6,7.1l5.8,9.6"/>
	<path class="st4" d="M507.4,1301.5L507.4,1301.5c-6.1,2.9-13.5,0.3-16.4-5.8c-0.2-0.3-0.3-0.7-0.4-1l0,0l-3.6-8.8
		c-3.7-8.4-0.3-18.2,7.9-22.3l0,0c8.2-4,18.1-0.9,22.6,7.1l4.6,8.3l0.2,0.5c3,6.5,0.5,14.2-5.8,17.6l0,0L507.4,1301.5L507.4,1301.5z
		"/>
	<path class="st5" d="M508.7,1301.5c-6.1,2.9-13.5,0.3-16.4-5.8c-0.2-0.3-0.3-0.7-0.4-1l0,0l-4.1-8.6c-3.7-8.4-0.3-18.2,7.9-22.3
		l0,0c8.2-4,18.1-0.9,22.6,7.1l4.6,8.3l0.2,0.5c3.1,6.2,0.6,13.8-5.6,16.9h-0.1c-0.1,0.1-0.2,0.1-0.4,0.2l0,0L508.7,1301.5
		L508.7,1301.5z"/>
	<path class="st6" d="M512.4,1302.8L512.4,1302.8c-6.1,2.9-13.5,0.3-16.4-5.8c-0.2-0.3-0.3-0.7-0.4-1l0,0l-3.6-8.8
		c-3.7-8.4-0.3-18.2,7.9-22.3l0,0c8.2-4,18.1-0.9,22.6,7.1l4.6,8.3l0.2,0.5c3,6.5,0.5,14.2-5.8,17.6l0,0L512.4,1302.8L512.4,1302.8z
		"/>
	<path class="st7" d="M496,1298.3l-4.3-10.3c-3.7-8.4-0.3-18.2,7.9-22.3l0,0c8.2-4,18.1-0.9,22.6,7.1l5.8,9.6"/>
	<path class="st4" d="M595.5,1251.2L595.5,1251.2c-6.1,2.9-13.5,0.3-16.4-5.8c-0.2-0.3-0.3-0.7-0.4-1l0,0l-3.6-8.8
		c-3.7-8.4-0.3-18.2,7.9-22.3l0,0c8.2-4,18.1-0.9,22.6,7.1l4.6,8.3l0.2,0.5c3,6.5,0.5,14.2-5.8,17.6l0,0L595.5,1251.2L595.5,1251.2z
		"/>
	<path class="st5" d="M596.7,1251.3c-6.1,2.9-13.5,0.3-16.4-5.8c-0.2-0.3-0.3-0.7-0.4-1l0,0l-4.1-8.5c-3.7-8.4-0.3-18.2,7.9-22.3
		l0,0c8.2-4,18.1-0.9,22.6,7.1l4.6,8.3l0.2,0.5c3.1,6.2,0.6,13.8-5.6,16.9h-0.1c-0.1,0.1-0.2,0.1-0.4,0.2l0,0L596.7,1251.3
		L596.7,1251.3z"/>
	<path class="st6" d="M600.4,1252.6L600.4,1252.6c-6.1,2.9-13.5,0.3-16.4-5.8c-0.2-0.3-0.3-0.7-0.4-1l0,0l-3.6-8.8
		c-3.7-8.4-0.3-18.2,7.9-22.3l0,0c8.2-4,18.1-0.9,22.6,7.1l4.6,8.3l0.2,0.5c3,6.5,0.5,14.2-5.8,17.6l0,0L600.4,1252.6L600.4,1252.6z
		"/>
	<path class="st7" d="M584.1,1248l-4.3-10.3c-3.7-8.4-0.3-18.2,7.9-22.3l0,0c8.2-4,18.1-0.9,22.6,7.1l5.8,9.6"/>
	<path class="st4" d="M665.1,1333.8L665.1,1333.8c6-3.1,13.5-0.8,16.6,5.3l0,0c0.2,0.3,0.4,0.7,0.5,1l0,0l3.9,8.7
		c4,8.2,0.8,18.1-7.2,22.5l0,0c-8.1,4.3-18.1,1.4-22.8-6.4l-4.8-8.2l-0.3-0.5c-3.2-6.4-0.9-14.2,5.3-17.8l0,0L665.1,1333.8z"/>
	<path class="st5" d="M663.8,1333.8c6-3.1,13.5-0.8,16.6,5.3l0,0c0.2,0.3,0.4,0.7,0.5,1l0,0l4.3,8.4c4,8.2,0.8,18.1-7.2,22.5l0,0
		c-8.1,4.3-18.1,1.4-22.8-6.4l-4.8-8.2l-0.3-0.5c-3.3-6.1-1-13.8,5.1-17.1c0.1-0.1,0.2-0.1,0.4-0.2l0,0L663.8,1333.8L663.8,1333.8z"
		/>
	<path class="st6" d="M660.1,1332.6L660.1,1332.6c6-3.1,13.5-0.8,16.6,5.3l0,0c0.2,0.3,0.4,0.7,0.5,1l0,0l3.9,8.7
		c4,8.2,0.8,18.1-7.2,22.5l0,0c-8.1,4.3-18.1,1.4-22.8-6.4l-4.8-8.2l-0.3-0.5c-3.2-6.4-0.9-14.2,5.3-17.8l0,0L660.1,1332.6z"/>
	<path class="st7" d="M676.6,1336.7l4.6,10.2c4,8.2,0.8,18.1-7.2,22.5l0,0c-8.1,4.3-18.1,1.4-22.8-6.4l-6.1-9.4"/>
	<path class="st4" d="M575.9,1386.7L575.9,1386.7c6-3.1,13.5-0.8,16.6,5.3l0,0c0.2,0.3,0.4,0.7,0.5,1l0,0l3.9,8.7
		c4,8.2,0.8,18.1-7.2,22.5l0,0c-8.1,4.3-18.1,1.4-22.8-6.4l-4.8-8.2l-0.3-0.5c-3.2-6.4-0.9-14.2,5.3-17.8l0,0L575.9,1386.7z"/>
	<path class="st5" d="M574.6,1386.7c6-3.1,13.5-0.8,16.6,5.3l0,0c0.2,0.3,0.4,0.7,0.5,1l0,0l4.3,8.4c4,8.2,0.8,18.1-7.2,22.5l0,0
		c-8.1,4.3-18.1,1.4-22.8-6.4l-4.8-8.2l-0.3-0.5c-3.3-6.1-1-13.8,5.1-17.1c0.1-0.1,0.2-0.1,0.4-0.2l0,0L574.6,1386.7L574.6,1386.7z"
		/>
	<path class="st6" d="M570.9,1385.5L570.9,1385.5c6-3.1,13.5-0.8,16.6,5.3l0,0c0.2,0.3,0.4,0.7,0.5,1l0,0l3.9,8.7
		c4,8.2,0.8,18.1-7.2,22.5l0,0c-8.1,4.3-18.1,1.4-22.8-6.4l-4.8-8.2l-0.3-0.5c-3.2-6.4-0.9-14.2,5.3-17.8l0,0L570.9,1385.5z"/>
	<path class="st7" d="M587.4,1389.6l4.6,10.2c4,8.2,0.8,18.1-7.2,22.5l0,0c-8.1,4.3-18.1,1.4-22.8-6.4l-6.1-9.4"/>
	<path class="st4" d="M489.4,1439.6L489.4,1439.6c6-3.1,13.5-0.8,16.6,5.3l0,0c0.2,0.3,0.3,0.6,0.4,1l0,0l3.9,8.7
		c4,8.2,0.8,18.1-7.2,22.5l0,0c-8.1,4.3-18.1,1.4-22.8-6.4l-4.8-8.2l-0.3-0.5c-3.2-6.4-0.9-14.2,5.3-17.8l0,0L489.4,1439.6z"/>
	<path class="st5" d="M488.1,1439.6c6-3.1,13.5-0.8,16.6,5.3l0,0c0.2,0.3,0.4,0.7,0.5,1l0,0l4.3,8.4c4,8.2,0.8,18.1-7.2,22.5l0,0
		c-8.1,4.3-18.1,1.4-22.8-6.4l-4.8-8.2l-0.3-0.5c-3.3-6.1-1-13.8,5.1-17.1c0.1-0.1,0.2-0.1,0.4-0.2l0,0L488.1,1439.6L488.1,1439.6z"
		/>
	<path class="st6" d="M484.4,1438.4L484.4,1438.4c6-3.1,13.5-0.8,16.6,5.3l0,0c0.2,0.3,0.4,0.7,0.5,1l0,0l3.9,8.7
		c4,8.2,0.8,18.1-7.2,22.5l0,0c-8.1,4.3-18.1,1.4-22.8-6.4l-4.8-8.2l-0.3-0.5c-3.2-6.4-0.9-14.2,5.3-17.8l0,0L484.4,1438.4z"/>
	<path class="st7" d="M500.9,1442.4l4.6,10.2c4,8.2,0.8,18.1-7.2,22.5l0,0c-8.1,4.3-18.1,1.4-22.8-6.4l-6.1-9.4"/>
	<path class="st8" d="M354.9,1392.8l305-172.3c0,0,83.6-3.4,59.1,92.9l-307.5,177.1L354.9,1392.8z"/>
	<path class="st9" d="M353.9,1391.5l305-172.3c0,0,83.6-3.4,59.1,92.9l-307.5,177.1L353.9,1391.5z"/>
	<path class="st10" d="M352.1,1388.9l305-172.3c0,0,83.6-3.4,59.1,92.9l-307.5,177.1L352.1,1388.9z"/>
	<path class="st4" d="M637.2,1718L637.2,1718c3.2,6,0.9,13.4-5.1,16.6c0,0,0,0-0.1,0c-0.3,0.2-0.7,0.4-1,0.5l0,0l-8.7,3.9
		c-8.2,4-18.1,0.9-22.6-7.1l0,0c-4.3-8.1-1.5-18.1,6.3-22.8l8.1-4.9l0.5-0.3c6.4-3.4,13.9-1,17.8,5.2l0,0L637.2,1718L637.2,1718z"/>
	<path class="st5" d="M637.1,1716.8c3.2,6,0.9,13.4-5.1,16.6c0,0,0,0-0.1,0c-0.3,0.2-0.7,0.4-1,0.5l0,0l-8.4,4.4
		c-8.2,4-18.1,0.9-22.6-7.1l0,0c-4.3-8.1-1.5-18.1,6.3-22.8l8.1-4.9l0.5-0.3c6.1-3.3,13.7-1.1,17.1,5v0.1c0.1,0.1,0.1,0.2,0.2,0.4
		l0,0L637.1,1716.8L637.1,1716.8z"/>
	<path class="st6" d="M638.3,1713L638.3,1713c3.2,6,0.9,13.4-5.1,16.6c0,0,0,0-0.1,0c-0.3,0.2-0.7,0.4-1,0.5l0,0l-8.7,3.9
		c-8.2,4-18.1,0.9-22.6-7.1l0,0c-4.3-8.1-1.5-18.1,6.3-22.8l8.1-4.9l0.5-0.3c6.4-3.4,13.9-1,17.8,5.2l0,0L638.3,1713L638.3,1713z"/>
	<path class="st7" d="M634.4,1729.5l-10.1,4.7c-8.2,4-18.1,0.9-22.6-7.1l0,0c-4.3-8.1-1.5-18.1,6.3-22.8l9.4-6.2"/>
	<path class="st4" d="M613.5,1664.7L613.5,1664.7c-5.2,4.4-12.9,3.8-17.4-1.3c-0.2-0.3-0.4-0.6-0.7-0.8l0,0l-5.8-7.6
		c-5.8-7.1-5-17.5,1.8-23.6l0,0c6.9-6,17.3-5.6,23.6,1l6.6,6.8l0.4,0.4c4.6,5.5,4.2,13.6-1,18.5l0,0L613.5,1664.7L613.5,1664.7z"/>
	<path class="st5" d="M614.7,1664.4c-5.2,4.4-12.9,3.8-17.4-1.3c-0.2-0.3-0.4-0.6-0.7-0.8l0,0l-6.2-7.2c-5.8-7.1-5-17.5,1.8-23.6
		l0,0c6.9-6,17.3-5.6,23.6,1l6.6,6.8l0.4,0.4c4.6,5.2,4.2,13.1-1,17.7l-0.1,0.1l-0.3,0.3l0,0L614.7,1664.4L614.7,1664.4z"/>
	<path class="st6" d="M618.7,1664.7L618.7,1664.7c-5.2,4.4-12.9,3.8-17.4-1.3c-0.2-0.3-0.4-0.6-0.7-0.8l0,0l-5.8-7.6
		c-5.8-7.1-5-17.5,1.8-23.6l0,0c6.9-6,17.3-5.6,23.6,1l6.6,6.8l0.4,0.4c4.6,5.5,4.2,13.6-1,18.5l0,0L618.7,1664.7L618.7,1664.7z"/>
	<path class="st7" d="M601.7,1664.6l-6.8-8.8c-5.8-7.1-5-17.5,1.8-23.6l0,0c6.9-6,17.3-5.6,23.6,1l8.1,7.7"/>
	<path class="st4" d="M672.1,1619.3L672.1,1619.3c-6.8,0.1-12.4-5.3-12.5-12.1l0,0v-1.1l0,0l0.4-9.5c0.1-9.2,7.4-16.6,16.5-17l0,0
		c9.2-0.2,16.9,6.8,17.5,15.9l0.7,9.5v0.6c0,7.1-5.5,13.1-12.6,13.6l0,0L672.1,1619.3L672.1,1619.3z"/>
	<path class="st5" d="M673.3,1619.8c-6.8,0.1-12.4-5.3-12.5-12.1l0,0v-1.1l0,0l-0.1-9.5c0.1-9.2,7.4-16.6,16.5-17l0,0
		c9.2-0.2,16.9,6.8,17.5,15.9l0.7,9.5v0.6c0.2,7-5.2,12.8-12.2,13h-0.4L673.3,1619.8z"/>
	<path class="st6" d="M676.1,1622.6L676.1,1622.6c-6.8,0.1-12.4-5.3-12.5-12.1l0,0v-1.1l0,0l0.4-9.5c0.1-9.2,7.4-16.6,16.5-17l0,0
		c9.2-0.2,16.9,6.8,17.5,15.9l0.7,9.5v0.6c0,7.1-5.5,13.1-12.6,13.6l0,0L676.1,1622.6L676.1,1622.6z"/>
	<path class="st7" d="M663.1,1611.6l0.4-11.2c0.1-9.2,7.4-16.6,16.5-17l0,0c9.2-0.2,16.9,6.8,17.5,15.9l1.3,11.1"/>
	<path class="st4" d="M726.1,1648.2L726.1,1648.2c-3.4-5.9-1.4-13.4,4.4-16.8c0.3-0.2,0.7-0.4,1-0.5l0,0l8.5-4.3
		c8-4.4,18.1-1.7,22.9,6l0,0c4.7,7.9,2.4,18.1-5.3,23.1l-7.9,5.2l-0.5,0.3c-6.2,3.5-14.1,1.6-18-4.4l0,0L726.1,1648.2L726.1,1648.2z
		"/>
	<path class="st5" d="M726.2,1649.4c-3.4-5.9-1.4-13.4,4.4-16.8c0.3-0.2,0.7-0.4,1-0.5l0,0l8.2-4.8c8-4.4,18.1-1.7,22.9,6l0,0
		c4.7,7.9,2.4,18.1-5.3,23.1l-7.9,5.2l-0.5,0.3c-5.9,3.6-13.7,1.7-17.3-4.2v-0.1c-0.1-0.1-0.1-0.2-0.2-0.4l0,0L726.2,1649.4z"/>
	<path class="st6" d="M725.2,1653.2L725.2,1653.2c-3.4-5.9-1.4-13.4,4.4-16.8c0.3-0.2,0.7-0.4,1-0.5l0,0l8.5-4.3
		c8-4.4,18.1-1.7,22.9,6l0,0c4.7,7.9,2.4,18.1-5.3,23.1l-7.9,5.2l-0.5,0.3c-6.2,3.5-14.1,1.6-18-4.4l0,0L725.2,1653.2L725.2,1653.2z
		"/>
	<path class="st7" d="M728.4,1636.5l9.9-5.1c8-4.4,18.1-1.7,22.9,6l0,0c4.7,7.9,2.4,18.1-5.3,23.1l-9.1,6.6"/>
	<polygon class="st8" points="665.5,1768.6 766.4,1709.8 692.3,1609.9 613.4,1650.4 	"/>
	<polygon class="st9" points="666.3,1769.8 767.2,1710.9 693.1,1611 614.2,1651.6 	"/>
	<polygon class="st10" points="667.1,1770.9 767.9,1712.1 693.8,1612.2 615,1652.7 	"/>
	<path class="st4" d="M848.7,1591.2L848.7,1591.2c3.2,6,0.9,13.4-5.1,16.6c0,0,0,0-0.1,0c-0.3,0.2-0.7,0.4-1,0.5l0,0l-8.7,3.9
		c-8.2,4-18.1,0.9-22.6-7.1l0,0c-4.3-8.1-1.5-18.1,6.3-22.8l8.1-4.9l0.5-0.3c6.4-3.4,13.9-1,17.8,5.2l0,0L848.7,1591.2L848.7,1591.2
		z"/>
	<path class="st5" d="M848.6,1590c3.2,6,0.9,13.4-5.1,16.6c0,0,0,0-0.1,0c-0.3,0.2-0.7,0.4-1,0.5l0,0l-8.4,4.4
		c-8.2,4-18.1,0.9-22.6-7.1l0,0c-4.3-8.1-1.5-18.1,6.3-22.8l8.1-4.9l0.5-0.3c6.1-3.3,13.7-1.1,17.1,5v0.1c0.1,0.1,0.1,0.2,0.2,0.4
		l0,0L848.6,1590L848.6,1590z"/>
	<path class="st6" d="M849.8,1586.2L849.8,1586.2c3.2,6,0.9,13.4-5.1,16.6c0,0,0,0-0.1,0c-0.3,0.2-0.7,0.4-1,0.5l0,0l-8.7,3.9
		c-8.2,4-18.1,0.9-22.6-7.1l0,0c-4.3-8.1-1.5-18.1,6.3-22.8l8.1-4.9l0.5-0.3c6.4-3.4,13.9-1,17.8,5.2l0,0L849.8,1586.2L849.8,1586.2
		z"/>
	<path class="st7" d="M845.9,1602.7l-10.1,4.7c-8.2,4-18.1,0.9-22.6-7.1l0,0c-4.3-8.1-1.5-18.1,6.3-22.8l9.4-6.2"/>
	<path class="st4" d="M825,1537.9L825,1537.9c-5.2,4.4-12.9,3.8-17.4-1.3c-0.2-0.3-0.4-0.6-0.7-0.8l0,0l-5.8-7.6
		c-5.8-7.1-5-17.5,1.8-23.6l0,0c6.9-6,17.3-5.6,23.6,1l6.6,6.8l0.4,0.4c4.6,5.5,4.2,13.6-1,18.5l0,0L825,1537.9L825,1537.9z"/>
	<path class="st5" d="M826.2,1537.6c-5.2,4.4-12.9,3.8-17.4-1.3c-0.2-0.3-0.4-0.6-0.7-0.8l0,0l-6.2-7.2c-5.8-7.1-5-17.5,1.8-23.6
		l0,0c6.9-6,17.3-5.6,23.6,1l6.6,6.8l0.4,0.4c4.6,5.2,4.2,13.1-1,17.7l-0.1,0.1l-0.3,0.3l0,0L826.2,1537.6L826.2,1537.6z"/>
	<path class="st6" d="M830.2,1537.9L830.2,1537.9c-5.2,4.4-12.9,3.8-17.4-1.3c-0.2-0.3-0.4-0.6-0.7-0.8l0,0l-5.8-7.6
		c-5.8-7.1-5-17.5,1.8-23.6l0,0c6.9-6,17.3-5.6,23.6,1l6.6,6.8l0.4,0.4c4.6,5.5,4.2,13.6-1,18.5l0,0L830.2,1537.9L830.2,1537.9z"/>
	<path class="st7" d="M813.2,1537.8l-6.8-8.8c-5.8-7.1-5-17.5,1.8-23.6l0,0c6.9-6,17.3-5.6,23.6,1l8.1,7.7"/>
	<path class="st4" d="M883.6,1492.5L883.6,1492.5c-6.8,0.1-12.4-5.3-12.5-12.1l0,0v-1.1l0,0l0.4-9.5c0.1-9.2,7.4-16.6,16.5-17l0,0
		c9.2-0.2,16.9,6.8,17.5,15.9l0.7,9.5v0.6c0,7.1-5.5,13.1-12.6,13.6l0,0L883.6,1492.5L883.6,1492.5z"/>
	<path class="st5" d="M884.8,1493c-6.8,0.1-12.4-5.3-12.5-12.1l0,0v-1.1l0,0l-0.1-9.5c0.1-9.2,7.4-16.6,16.5-17l0,0
		c9.2-0.2,16.9,6.8,17.5,15.9l0.7,9.5v0.6c0.2,7-5.2,12.8-12.2,13h-0.4L884.8,1493z"/>
	<path class="st6" d="M887.6,1495.8L887.6,1495.8c-6.8,0.1-12.4-5.3-12.5-12.1l0,0v-1.1l0,0l0.4-9.5c0.1-9.2,7.4-16.6,16.5-17l0,0
		c9.2-0.2,16.9,6.8,17.5,15.9l0.7,9.5v0.6c0,7.1-5.5,13.1-12.6,13.6l0,0L887.6,1495.8L887.6,1495.8z"/>
	<path class="st7" d="M874.6,1484.8l0.4-11.2c0.1-9.2,7.4-16.6,16.5-17l0,0c9.2-0.2,16.9,6.8,17.5,15.9l1.3,11.1"/>
	<path class="st4" d="M937.6,1521.3L937.6,1521.3c-3.4-5.9-1.4-13.4,4.4-16.8c0.3-0.2,0.7-0.4,1-0.5l0,0l8.5-4.3
		c8-4.4,18.1-1.7,22.9,6l0,0c4.7,7.9,2.4,18.1-5.3,23.1l-7.9,5.2l-0.5,0.3c-6.2,3.5-14.1,1.6-18-4.4l0,0L937.6,1521.3z"/>
	<path class="st5" d="M937.7,1522.6c-3.4-5.9-1.4-13.4,4.4-16.8c0.3-0.2,0.7-0.4,1-0.5l0,0l8.2-4.8c8-4.4,18.1-1.7,22.9,6l0,0
		c4.7,7.9,2.4,18.1-5.3,23.1l-7.9,5.2l-0.5,0.3c-5.9,3.6-13.7,1.7-17.3-4.2v-0.1c-0.1-0.1-0.1-0.2-0.2-0.4l0,0L937.7,1522.6z"/>
	<path class="st6" d="M936.7,1526.4L936.7,1526.4c-3.4-5.9-1.4-13.4,4.4-16.8c0.3-0.2,0.7-0.4,1-0.5l0,0l8.5-4.3
		c8-4.4,18.1-1.7,22.9,6l0,0c4.7,7.9,2.4,18.1-5.3,23.1l-7.9,5.2l-0.5,0.3c-6.2,3.5-14.1,1.6-18-4.4l0,0L936.7,1526.4z"/>
	<path class="st7" d="M939.9,1509.7l9.9-5.1c8-4.4,18.1-1.7,22.9,6.1l0,0c4.7,7.9,2.4,18.1-5.3,23.1l-9.1,6.6"/>
	<polygon class="st8" points="877,1641.8 977.9,1582.9 903.8,1483.1 824.9,1523.6 	"/>
	<polygon class="st9" points="877.8,1642.9 978.7,1584.1 904.6,1484.2 825.7,1524.8 	"/>
	<polygon class="st10" points="878.6,1644.1 979.4,1585.3 905.3,1485.4 826.5,1525.9 	"/>
	<path class="st8" d="M1050.4,497.1h61.8c5.2,0.1,9.4,4.3,9.6,9.5v297.9c-0.1,5.2-4.4,9.4-9.6,9.5h-61.8c-5.2-0.1-9.4-4.3-9.5-9.5
		V506C1041.5,500.9,1045.3,497.1,1050.4,497.1z"/>
	<path class="st9" d="M1052.3,486.3h61.8c5.3,0.2,9.4,4.4,9.5,9.7v304c-0.1,5.3-4.2,9.5-9.5,9.7h-61.8c-5.3-0.2-9.5-4.4-9.6-9.7V496
		C1043.4,490.8,1047.2,486.3,1052.3,486.3z"/>
	<path class="st11" d="M1052.7,479.3h64.4c5.4,0.1,9.8,4.5,10,9.9v307.9c-0.2,5.4-4.6,9.8-10,9.9h-64.4c-5.4-0.1-9.8-4.5-10-9.9
		V488.5C1043.4,483.2,1047.4,479.3,1052.7,479.3z"/>
	<polygon class="st11" points="924.2,770.1 1127.1,770.1 1127.1,813.1 951.4,813.1 	"/>
	<path class="st10" d="M1068.9,626.7h52.8v166.8c0.1,5.9-4.6,10.7-10.5,10.8h-0.1h-42.2L1068.9,626.7L1068.9,626.7z"/>
	<circle class="st8" cx="487.6" cy="104.4" r="14.1"/>
	<circle class="st9" cx="487.6" cy="103.1" r="14.1"/>
	<circle class="st10" cx="487.6" cy="101.3" r="14.1"/>
	<path class="st12" d="M829.4,554.9L829.4,554.9c7.1,0,12.9,5.7,13.1,12.8l0,0v11.4c0.1,0.7-0.7,1.2-1.4,1.2l0,0l-22.9,0.1
		c-0.7,0.1-1.2-0.7-1.2-1.4l0,0v-11.4c-0.2-6.7,5-12.4,11.7-12.7L829.4,554.9z"/>
	<path class="st13" d="M829.7,553.8L829.7,553.8c6.9-0.1,12.5,5.3,12.7,12.2v0.2l0,0v11.4c0.1,0.7-0.7,1.2-1.4,1.2l-22.9,0.1
		c-0.7,0.1-1.2-0.7-1.2-1.4l0,0v-11.4C816.8,559.5,822.7,553.9,829.7,553.8z"/>
	<path class="st14" d="M829.6,552.3L829.6,552.3c7-0.1,12.6,5.8,12.7,12.8l0,0v11.4c-0.1,0.7-0.7,1.2-1.4,1.2l-22.9,0.1
		c-0.7,0.1-1.2-0.7-1.2-1.4l0,0V565C816.9,558,822.6,552.4,829.6,552.3L829.6,552.3z"/>
	<path class="st15" d="M816.9,576.8v-11.4c-0.1-7.1,5.5-12.9,12.6-13.1h0.1c7.1,0,12.9,5.7,13.1,12.8l0,0v11.4"/>
	<circle class="st8" cx="532.9" cy="104.4" r="14.1"/>
	<circle class="st9" cx="532.9" cy="103.1" r="14.1"/>
	<circle class="st10" cx="532.9" cy="101.3" r="14.1"/>
	<circle class="st8" cx="576.5" cy="104.4" r="14.1"/>
	<circle class="st9" cx="576.5" cy="103.1" r="14.1"/>
	<circle class="st10" cx="576.5" cy="101.3" r="14.1"/>
	<circle class="st8" cx="621.8" cy="104.4" r="14.1"/>
	<circle class="st9" cx="621.8" cy="103.1" r="14.1"/>
	<circle class="st10" cx="621.8" cy="101.3" r="14.1"/>
	<circle class="st8" cx="487.7" cy="215.7" r="14.1"/>
	<circle class="st9" cx="487.7" cy="214.4" r="14.1"/>
	<circle class="st10" cx="487.7" cy="212.6" r="14.1"/>
	<circle class="st8" cx="533" cy="215.7" r="14.1"/>
	<circle class="st9" cx="533" cy="214.4" r="14.1"/>
	<circle class="st10" cx="533" cy="212.6" r="14.1"/>
	<circle class="st8" cx="576.6" cy="215.7" r="14.1"/>
	<circle class="st9" cx="576.6" cy="214.4" r="14.1"/>
	<circle class="st10" cx="576.6" cy="212.6" r="14.1"/>
	<circle class="st8" cx="621.9" cy="215.7" r="14.1"/>
	<circle class="st9" cx="621.9" cy="214.4" r="14.1"/>
	<circle class="st10" cx="621.9" cy="212.6" r="14.1"/>
	<path class="st12" d="M883.4,554.6L883.4,554.6c7.1,0,12.9,5.7,13.1,12.8l0,0v11.4c-0.1,0.7-0.7,1.2-1.4,1.2l0,0l-22.9,0.1
		c-0.7-0.1-1.2-0.7-1.2-1.4l0,0v-11.4c-0.2-6.7,5-12.4,11.7-12.7L883.4,554.6L883.4,554.6z"/>
	<path class="st13" d="M883.7,553.5L883.7,553.5c6.9-0.1,12.5,5.3,12.7,12.2v0.2l0,0v11.4c-0.1,0.7-0.7,1.2-1.4,1.2l-22.9,0.1
		c-0.7-0.1-1.2-0.7-1.2-1.4l0,0v-11.4C870.8,559.2,876.7,553.6,883.7,553.5z"/>
	<path class="st14" d="M883.6,552L883.6,552c7-0.1,12.6,5.8,12.7,12.8l0,0v11.4c0.1,0.7-0.7,1.2-1.4,1.2l-22.9,0.1
		c-0.7,0.1-1.2-0.7-1.2-1.4l0,0v-11.4C870.9,557.7,876.6,552,883.6,552L883.6,552z"/>
	<path class="st15" d="M870.9,576.5v-11.4c-0.1-7.1,5.5-12.9,12.6-13.1h0.1c7.1,0,12.9,5.7,13.1,12.8l0,0v11.4"/>
	<path class="st12" d="M938.7,553.7L938.7,553.7c7.1,0,12.9,5.7,13.1,12.8l0,0v11.4c0.1,0.7-0.7,1.2-1.4,1.2l0,0l-22.9,0.1
		c-0.7-0.1-1.2-0.7-1.2-1.4l0,0v-11.4c-0.2-6.7,5-12.4,11.7-12.7L938.7,553.7L938.7,553.7z"/>
	<path class="st13" d="M939,552.5L939,552.5c6.9-0.1,12.5,5.3,12.7,12.2v0.2l0,0v11.4c0.1,0.7-0.7,1.2-1.4,1.2l-22.9,0.1
		c-0.7-0.1-1.2-0.7-1.2-1.4l0,0v-11.4C926.1,558.2,932,552.6,939,552.5z"/>
	<path class="st14" d="M938.9,551.1L938.9,551.1c7-0.1,12.6,5.8,12.7,12.8l0,0v11.4c0.1,0.7-0.7,1.2-1.4,1.2l-22.9,0.1
		c-0.7-0.1-1.2-0.7-1.2-1.4l0,0v-11.4C926.2,556.8,931.9,551.1,938.9,551.1L938.9,551.1z"/>
	<path class="st15" d="M926.2,575.6v-11.4c-0.1-7.1,5.5-12.9,12.6-13.1h0.1c7.1,0,12.9,5.7,13.1,12.8l0,0v11.4"/>
	<path class="st12" d="M938.6,688.8L938.6,688.8c-7.1,0-12.9-5.7-13.1-12.8l0,0v-11.4c-0.1-0.7,0.7-1.2,1.4-1.2l0,0l22.9-0.1
		c0.7,0.1,1.2,0.7,1.2,1.4l0,0v11.4c0.2,6.7-5,12.4-11.7,12.7C939.1,688.8,938.8,688.9,938.6,688.8L938.6,688.8z"/>
	<path class="st13" d="M938.3,690L938.3,690c-6.9,0.1-12.5-5.3-12.7-12.2v-0.2l0,0v-11.4c-0.1-0.7,0.7-1.2,1.4-1.2l22.9-0.1
		c0.7,0.1,1.2,0.7,1.2,1.4l0,0v11.4C951.2,684.3,945.3,689.9,938.3,690z"/>
	<path class="st14" d="M938.4,691.4L938.4,691.4c-7,0.1-12.6-5.8-12.7-12.8l0,0v-11.4c-0.1-0.7,0.7-1.2,1.4-1.2l22.9-0.1
		c0.7-0.1,1.2,0.7,1.2,1.4l0,0v11.4C951.2,685.7,945.4,691.4,938.4,691.4L938.4,691.4z"/>
	<path class="st15" d="M951.1,667v11.4c0.1,7.1-5.5,12.9-12.6,13.1h-0.1c-7.1,0-12.9-5.7-13.1-12.8l0,0v-11.4"/>
	<path class="st12" d="M884.6,689.2L884.6,689.2c-7.1,0-12.9-5.7-13.1-12.8l0,0V665c-0.1-0.7,0.7-1.2,1.4-1.2l0,0l22.9-0.1
		c0.7,0.1,1.2,0.7,1.2,1.4l0,0v11.4c0.2,6.7-5,12.4-11.7,12.7L884.6,689.2z"/>
	<path class="st13" d="M884.3,690.3L884.3,690.3c-6.9,0.1-12.5-5.3-12.7-12.2v-0.2l0,0v-11.4c-0.1-0.7,0.7-1.2,1.4-1.2l22.9-0.1
		c0.7,0.1,1.2,0.7,1.2,1.4l0,0V678C897.2,684.6,891.3,690.2,884.3,690.3z"/>
	<path class="st14" d="M884.4,691.8L884.4,691.8c-7,0.1-12.6-5.8-12.7-12.8l0,0v-11.4c0.1-0.7,0.7-1.2,1.4-1.2l22.9-0.1
		c0.7,0.1,1.2,0.7,1.2,1.4l0,0v11.4C897.1,686.1,891.4,691.8,884.4,691.8L884.4,691.8z"/>
	<path class="st15" d="M897.1,667.3v11.4c0.1,7.1-5.5,12.9-12.6,13.1h-0.1c-7.1,0-12.9-5.7-13.1-12.8l0,0v-11.4"/>
	<path class="st12" d="M829.3,690.1L829.3,690.1c-7.1,0-12.9-5.7-13.1-12.8l0,0v-11.4c0.1-0.7,0.7-1.2,1.4-1.2l0,0l22.9-0.1
		c0.7-0.1,1.2,0.7,1.2,1.4l0,0v11.4c0.2,6.7-5,12.4-11.7,12.7L829.3,690.1z"/>
	<path class="st13" d="M829,691.3L829,691.3c-6.9,0.1-12.5-5.3-12.7-12.2v-0.2l0,0v-11.4c0.1-0.7,0.7-1.2,1.4-1.2l22.9-0.1
		c0.7-0.1,1.2,0.7,1.2,1.4l0,0V679C841.9,685.6,836,691.1,829,691.3z"/>
	<path class="st14" d="M829.1,692.7L829.1,692.7c-7,0.1-12.6-5.8-12.7-12.8l0,0v-11.4c-0.1-0.7,0.7-1.2,1.4-1.2l22.9-0.1
		c0.7,0.1,1.2,0.7,1.2,1.4l0,0V680C841.9,687,836.1,692.7,829.1,692.7L829.1,692.7z"/>
	<path class="st15" d="M841.8,668.2v11.4c0.1,7.1-5.5,12.9-12.6,13.1h-0.1c-7.1,0-12.9-5.7-13.1-12.8l0,0v-11.4"/>
	
		<rect x="942" y="992.4" transform="matrix(0.8753 -0.4836 0.4836 0.8753 -368.7931 612.1015)" class="st8" width="120.8" height="57.4"/>
	
		<rect x="942.9" y="991.9" transform="matrix(0.8753 -0.4836 0.4836 0.8753 -368.4389 612.4744)" class="st9" width="120.8" height="57.4"/>
	
		<rect x="943.5" y="991.7" transform="matrix(0.8753 -0.4836 0.4836 0.8753 -368.2628 612.7458)" class="st10" width="120.8" height="57.4"/>
	<path class="st5" d="M970.3,1126.9l-18.9-30.7c0,0-10.5-15.8,5.3-23.3s110.3-64.4,110.3-64.4l27.6,46.6L970.3,1126.9z"/>
	<path class="st6" d="M970.3,1129.3l-18.9-30.7c0,0-10.5-15.8,5.3-23.3s110.3-64.4,110.3-64.4l27.6,46.6L970.3,1129.3z"/>
	<path class="st5" d="M894.1,994.9l16.9,31.9c0,0,8.3,17.1,22.7,7.3s111.4-62.5,111.4-62.5l-26.2-47.4L894.1,994.9z"/>
	<path class="st6" d="M892,993.7l16.9,31.9c0,0,8.3,17.1,22.7,7.3s111.4-62.5,111.4-62.5l-26.2-47.4L892,993.7z"/>
	
		<rect x="1017.6" y="1124.7" transform="matrix(0.8753 -0.4836 0.4836 0.8753 -423.345 665.1614)" class="st8" width="120.8" height="57.4"/>
	
		<rect x="1018.5" y="1124.2" transform="matrix(0.8753 -0.4836 0.4836 0.8753 -422.9908 665.5345)" class="st9" width="120.8" height="57.4"/>
	
		<rect x="1019.1" y="1124" transform="matrix(0.8753 -0.4836 0.4836 0.8753 -422.8149 665.8058)" class="st10" width="120.8" height="57.4"/>
	<path class="st5" d="M1045.9,1259.2l-18.9-30.7c0,0-10.5-15.8,5.3-23.3s110.3-64.4,110.3-64.4l27.6,46.6L1045.9,1259.2z"/>
	<path class="st6" d="M1045.9,1261.6l-18.9-30.7c0,0-10.5-15.8,5.3-23.3s110.3-64.4,110.3-64.4l27.6,46.6L1045.9,1261.6z"/>
	<path class="st5" d="M969.7,1127.2l16.9,31.9c0,0,8.3,17.1,22.7,7.3s111.4-62.5,111.4-62.5l-26.2-47.4L969.7,1127.2z"/>
	<path class="st6" d="M967.6,1126l16.9,31.9c0,0,8.3,17.1,22.7,7.3s111.4-62.5,111.4-62.5l-26.2-47.4L967.6,1126z"/>
	<path class="st6" d="M525.4,683.2l116-200.8c5.9-10.1,18.8-13.6,29-7.8l10.9,6.3c10.1,5.9,13.6,18.8,7.8,29l-116,200.8
		c-5.9,10.1-18.8,13.6-29,7.8l-10.9-6.3C523.1,706.3,519.6,693.4,525.4,683.2z"/>
</g>
<g id="booking">
	<polygon id="area-13.05-status" class="st16" points="707.2,1470.7 825.7,1678.3 1033.3,1557.2 912,1351.5 	"/>
	<polygon id="area-13.04-status" class="st16" points="477.1,1602.7 707.2,1470.7 825.7,1678.3 577.3,1823.4 476,1649.3 
		499.8,1629.5 	"/>
	<rect id="area-13.02-status" x="1027.5" y="26" class="st16" width="553.3" height="304.8"/>
	<path id="area-13.03-status" class="st16" d="M680.3,22.9h347.1v307.9H752.8c0,0-64.9,0.4-72.5-86.8V22.9z"/>
	<rect id="area-13.01-status" x="1127.1" y="476.9" class="st16" width="250.9" height="336.3"/>
	<text transform="matrix(1 0 0 1 1233.089 185.466)" class="st10 st17 st18">Boardroom</text>
	<text transform="matrix(1 0 0 1 809.958 186.238)" class="st10 st17 st18">W</text>
	<text transform="matrix(1 0 0 1 831.72 186.238)" class="st10 st17 st18">aitakere</text>
	<text transform="matrix(1 0 0 1 1186.975 652.214)" class="st10 st17 st18">W</text>
	<text transform="matrix(1 0 0 1 1208.7369 652.214)" class="st10 st17 st18">aitemata</text>
	<text transform="matrix(1 0 0 1 609.7125 1648.7181)" class="st10 st17 st18">Project 2</text>
	<text transform="matrix(1 0 0 1 822.1593 1529.988)" class="st10 st17 st18">Project 1</text>
</g>
<g id="outline">
	<line class="st19" x1="1378" y1="330.8" x2="1241.2" y2="330.8"/>
	<polyline class="st19" points="1027.5,26 1027.5,330.8 1169.4,330.8 	"/>
	<path class="st19" d="M680.3,22.9v218.4c0,0,3.4,89.5,76,89.5h185.8"/>
	<line class="st19" x1="850.9" y1="378.1" x2="850.9" y2="330.8"/>
	<polyline class="st19" points="850.9,460 850.9,476.9 1329.9,476.9 	"/>
	<polyline class="st19" points="1127.1,476.9 1127.1,813.1 1378,813.1 	"/>
	<path class="st19" d="M1127.1,813.1H951.4l-32.1-50.7H747.9c0,0-57.4,7.6-40.5,62.5l25.3,49.8"/>
	<polyline class="st19" points="774.1,944.9 824.7,1032.7 1015.6,922.1 951.4,813.1 1153.3,1154.7 1175.3,1157.8 	"/>
	<line class="st19" x1="978.5" y1="1298.8" x2="1187.6" y2="1178.8"/>
	<line class="st19" x1="916.8" y1="1157.8" x2="1094.5" y2="1055.2"/>
	<polyline class="st19" points="924.4,1329.2 905.8,1341 1033.3,1557.2 	"/>
	<line class="st19" x1="537.6" y1="1568.3" x2="881.3" y2="1368.9"/>
	<line class="st19" x1="704.8" y1="1468.6" x2="825.7" y2="1678.3"/>
	<polyline class="st19" points="151.5,532.3 323,632.4 323,709.2 	"/>
	<line class="st19" x1="323" y1="765.8" x2="323" y2="800.5"/>
	<line class="st19" x1="323" y1="783.1" x2="4.6" y2="783.1"/>
	<polyline class="st19" points="323,854.5 323,928.8 145.4,1030.8 	"/>
	<polyline class="st20" points="1302,1441.6 1283.4,1411.2 577.3,1823.4 475.9,1649.4 496.2,1635.8 4.6,787.8 445.5,20.8 1580.7,31 
		1580.7,639.1 1709.1,637.4 1709.1,672.9 	"/>
	<polyline class="st20" points="1709.1,637.4 1825.7,637.4 1825.7,813.1 1709.1,813.1 1709.1,787.8 	"/>
	<polyline class="st20" points="1767.4,813.1 1767.4,846.9 1749.7,846.9 1758.5,913.1 1543.6,1281.1 1477.7,1281.1 1305.4,1379.1 
		1313.8,1394.3 1283.4,1411.2 	"/>
	<polyline class="st20" points="1305.4,1379.1 1175.3,1157.8 1208,1102.9 1311,930.3 	"/>
	<polyline class="st20" points="1341.7,872.3 1356.9,844.4 1378,844.4 1378,432.2 	"/>
	<polyline class="st20" points="1580.7,330.8 1378,330.8 1378,346.9 	"/>
	<polyline class="st20" points="1341.7,1510.3 1445,1692.7 1751.4,1692.7 1751.4,922.1 	"/>
	<polyline class="st20" points="1749.7,846.9 1577.9,845.7 1378,844.4 	"/>
	<polyline class="st20" points="1577.9,845.7 1401.1,1143.2 1331.3,1033.7 1208,1102.9 	"/>
</g>
<g id="icons">
	<g id="emergency-exit-3">
		<text transform="matrix(1 0 0 1 1719.804 760.983)" class="st21 st22 st23">Emergency</text>
		<text transform="matrix(1 0 0 1 1748.337 781.149)" class="st21 st22 st23">Exit</text>
		<circle class="st24" cx="1761.2" cy="707.5" r="36.1"/>
		<path class="st25" d="M1761.7,714.4l6.5-6l-6.5-6 M1768.6,708.4h-26.4"/>
		<path class="st25" d="M1775.1,723.2v-30.1"/>
	</g>
	<g id="emergency-exit-3-2">
		<text transform="matrix(1 0 0 1 760.73 546.492)" class="st21 st22 st23">Kitchen</text>
		<circle class="st24" cx="792" cy="492.3" r="36.1"/>
		<rect x="792.5" y="493.2" class="st25" width="6.9" height="5.5"/>
		<line class="st25" x1="796.2" y1="486.3" x2="796.2" y2="493.2"/>
		<line class="st25" x1="791.5" y1="473.8" x2="791.5" y2="478.9"/>
		<line class="st25" x1="784.6" y1="476.1" x2="784.6" y2="481.2"/>
		<line class="st25" x1="798.5" y1="476.1" x2="798.5" y2="481.2"/>
		<path class="st25" d="M805,488.6h5.1v6.5c0.1,1.2-0.8,2.2-2,2.3l0,0H805"/>
		<path class="st25" d="M794.8,508h-5.5c-5.6-0.1-10.1-4.6-10.2-10.2v-11.6H805v11.6C805,503.4,800.4,507.9,794.8,508z"/>
	</g>
	<g id="elevator-2-2">
		<text transform="matrix(1 0 0 1 1494.899 1137.47)" class="st21 st22 st23">Elevator x1</text>
		<circle class="st24" cx="1535.1" cy="1079.1" r="36.1"/>
		<path class="st26" d="M1525.4,1093.4v-22.2h7.4v22.2H1525.4z M1533.2,1093.4v-22.2h7.4v22.2H1533.2z M1549.4,1093.4h-8.3v-22.2
			c0-0.2-0.2-0.5-0.4-0.5H1525c-0.2,0-0.5,0.2-0.5,0.4l0,0v22.2h-3.7v-28.7h28.7L1549.4,1093.4z M1549.9,1063.8h-29.1
			c-0.2,0-0.5,0.2-0.5,0.4l0,0v29.6c0,0.2,0.2,0.5,0.4,0.5h29.6c0.2,0,0.5-0.2,0.5-0.4l0,0L1549.9,1063.8z"/>
		<path class="st26" d="M1530.4,1068h5.1v-0.5L1530.4,1068z"/>
		<path class="st26" d="M1544.3,1080.5l0.9-0.9l0.9,0.9h0.5v-0.5l-0.9-0.9h-0.5l-0.9,0.9V1080.5z"/>
		<path class="st26" d="M1545.2,1083.7L1545.2,1083.7l1.4-0.9v-0.5h-0.5l-0.9,0.9l-0.9-0.9h-0.5v0.5l0,0L1545.2,1083.7z"/>
	</g>
	<g id="utility-2">
		<circle class="st24" cx="856.8" cy="861.9" r="37"/>
		<text transform="matrix(1 0 0 1 835.498 919.562)" class="st21 st22 st27">Utility</text>
		<g id="Outline_Icons-13-2-4-2-2">
			<g id="Outline_Icons-14-2-4-2-2">
				<path class="st25" d="M849,868.9h-3.7c-1.5,0.1-2.7-1.1-2.8-2.6l0,0v-8.1c0.1-1.5,1.3-2.7,2.8-2.8h25c1.5,0.1,2.7,1.3,2.8,2.8
					l0,0v7.9c-0.1,1.5-1.3,2.7-2.8,2.8h-3.7"/>
				<polyline class="st25" points="849,853.2 849,848.1 861.9,848.1 865.6,852.2 865.6,853.2 				"/>
				<rect x="849" y="865.2" class="st25" width="16.6" height="10.2"/>
				<circle class="st25" cx="846.2" cy="859.6" r="1.4"/>
				<line class="st25" x1="851.3" y1="867.5" x2="863.3" y2="867.5"/>
				<line class="st25" x1="851.3" y1="870.3" x2="863.3" y2="870.3"/>
				<line class="st25" x1="851.3" y1="872.6" x2="863.3" y2="872.6"/>
				<polyline class="st25" points="861.9,848.1 861.9,852.2 865.6,852.2 				"/>
			</g>
		</g>
	</g>
	<g id="closet-9">
		<circle class="st24" cx="674.5" cy="639.6" r="37.9"/>
		<text transform="matrix(1 0 0 1 643.036 695.856)" class="st21 st22 st28">Lockers</text>
		<rect x="662" y="635.5" class="st29" width="27.3" height="18.5"/>
		<path class="st29" d="M671.2,630.8v-4.6c0-2.5,2.1-4.6,4.6-4.6h0.1c2.5,0.1,4.5,2.1,4.6,4.6v0.5l0,0v9.2"/>
		<circle class="st29" cx="675.9" cy="642.4" r="2.3"/>
		<line class="st29" x1="675.9" y1="647" x2="675.9" y2="644.7"/>
	</g>
	<g id="closet-2">
		<circle class="st24" cx="1520.3" cy="412.6" r="37.9"/>
		<text transform="matrix(1 0 0 1 1494.39 468.844)" class="st21 st22 st28">Sign In</text>
		<g id="Outline_Icons-2-2">
			<line class="st25" x1="1503.6" y1="421.9" x2="1503.6" y2="426"/>
			<line class="st25" x1="1539.2" y1="421.9" x2="1539.2" y2="426"/>
			<path class="st25" d="M1499.9,410.8v7.4c0.1,2,1.7,3.6,3.7,3.7h35.6c2-0.1,3.6-1.7,3.7-3.7l0,0v-7.4"/>
			<path class="st25" d="M1537.4,410.8v1.9c-0.1,1-0.8,1.8-1.8,1.9h-28.2c-1-0.1-1.8-0.9-1.8-1.9l0,0v-1.9"/>
			<path class="st25" d="M1539.2,408v-0.9c0-4-3.2-7.3-7.2-7.4h-21c-4,0-7.3,3.2-7.4,7.2v0.2l0,0v0.9"/>
			<path class="st25" d="M1499.9,410.8c0-1.5,1.3-2.8,2.8-2.8l0,0c1.5,0,2.8,1.2,2.8,2.7v0.1l0,0"/>
			<path class="st25" d="M1542.9,410.8c0-1.5-1.3-2.8-2.8-2.8l0,0c-1.5,0-2.8,1.2-2.8,2.7v0.1l0,0"/>
			<line class="st25" x1="1520.7" y1="399.7" x2="1520.7" y2="414.5"/>
		</g>
	</g>
	<text transform="matrix(1 0 0 1 487.869 875.352)" class="st21 st22 st28">W</text>
	<text transform="matrix(1 0 0 1 504.01 875.352)" class="st21 st22 st28">orkspace</text>
	<text transform="matrix(1 0 0 1 1076.969 1389.564)" class="st21 st22 st28">Comms</text>
</g>
</svg>
