<?xml version="1.0" encoding="utf-8"?>
<!-- Generator: Adobe Illustrator 25.2.3, SVG Export Plug-In . SVG Version: 6.00 Build 0)  -->
<svg version="1.1" id="Layer_1" xmlns="http://www.w3.org/2000/svg" xmlns:xlink="http://www.w3.org/1999/xlink" x="0px" y="0px"
	 viewBox="0 0 1253.8 627.8" style="enable-background:new 0 0 1253.8 627.8;" xml:space="preserve">
<style type="text/css">
	.st0{fill:#4196B1;}
	.st1{fill:#A8E0E5;}
	.st2{fill:#8ECCCE;}
	.st3{fill:#99B8BF;}
	.st4{opacity:0.74;fill:#575757;enable-background:new    ;}
	.st5{fill:#FFFFFF;}
	.st6{font-family:'Arial-BoldMT';}
	.st7{font-size:10px;}
	.st8{opacity:5.000000e-02;fill:#030303;enable-background:new    ;}
	.st9{fill:#B8BFC1;}
	.st10{fill:none;stroke:#DADCDC;stroke-width:0.507;stroke-miterlimit:10;}
	.st11{opacity:0.15;fill:#010101;enable-background:new    ;}
	.st12{fill:#596068;}
	.st13{fill:#9BAEB7;}
	.st14{fill:none;stroke:#7A8E93;stroke-width:1.87;stroke-linecap:round;stroke-miterlimit:10;}
	.st15{fill:none;stroke:#7A8E93;stroke-width:1.887;stroke-linecap:round;stroke-miterlimit:10;}
	.st16{opacity:8.000000e-02;fill:#101010;enable-background:new    ;}
	.st17{fill:#7A8E93;stroke:#758589;stroke-width:0.518;stroke-miterlimit:10;}
	.st18{fill:#9BAEB7;stroke:#93A6AD;stroke-width:0.518;stroke-miterlimit:10;}
	.st19{opacity:0.15;fill:#020202;enable-background:new    ;}
	.st20{fill:#596069;}
	.st21{fill:#9BAEB8;}
	.st22{fill:none;stroke:#7A8F94;stroke-width:0.561;stroke-linecap:round;stroke-miterlimit:10;}
	.st23{opacity:5.000000e-02;fill:#040404;enable-background:new    ;}
	.st24{fill:none;stroke:#FFFFFF;stroke-width:8;stroke-miterlimit:10;}
	.st25{fill:none;stroke:#FFFFFF;stroke-width:4;stroke-miterlimit:10;}
	.st26{fill:#767E80;}
	.st27{font-family:'ArialMT';}
	.st28{font-size:11.407px;}
	.st29{fill:#EBF1F2;}
	.st30{fill:none;stroke:#7A8E93;stroke-width:0.827;stroke-miterlimit:10;}
	.st31{font-size:11.891px;}
	.st32{font-size:11.483px;}
	.st33{font-size:10.239px;}
	.st34{fill:none;stroke:#7A8E93;stroke-width:0.74;stroke-linecap:round;stroke-linejoin:round;}
	.st35{fill:#646B6D;}
	.st36{fill:#EBF2F2;}
	.st37{fill:none;stroke:#7A8E93;stroke-width:0.742;stroke-miterlimit:10;}
	.st38{font-size:11.327px;}
	.st39{font-size:9.3088px;}
</style>
<g id="shadow">
	<polygon class="st0" points="109.5,111.6 109.5,258.6 23.3,258.6 23.3,397 109.5,397 109.5,551.4 296.6,551.4 296.6,585.4 
		343.4,585.4 343.4,598.8 707,598.8 707,517.3 1230.9,517.3 1230.9,140.4 823.2,140.4 823.2,73.5 779.8,30.1 730.4,30.1 691.2,70 
		346.3,70 346.3,111.7 	"/>
</g>
<g id="background">
	<polygon class="st1" points="96.9,90.5 96.9,237.6 10.7,237.6 10.7,375.9 96.9,375.9 96.9,530.3 304.1,530.3 304.1,562.4 
		330.8,562.4 330.8,577.7 694.4,577.7 694.4,496.2 1218.4,496.2 1218.4,119.3 810.7,119.3 810.7,52.4 767.3,9 717.9,9 678.6,49 
		333.7,49 333.7,90.6 	"/>
</g>
<g id="spaces">
	<polygon class="st2" points="810.7,119.3 810.7,53.4 766.5,10 717.9,9 681.5,45.8 670.5,50 333,50 333,114.4 356.8,114.4 
		356.8,151.1 305.6,151.1 305.6,91.6 93.8,91.6 93.8,238.6 10,238.6 10,375.9 96.2,375.9 96.2,531.3 305.6,531.3 305.6,264.2 
		681.5,264.2 681.5,254.8 813.9,254.8 813.9,146.3 789.1,146.3 782.5,133 782.5,120.3 	"/>
	<polygon class="st2" points="360.6,361.6 683.6,361.6 683.6,406.9 675.6,411.3 675.6,454.7 692.4,460.3 692.4,577.7 330.1,577.7 
		303.4,578.4 303.4,563.4 305.5,529.1 305.5,516.4 360.2,516.4 	"/>
	<rect x="305.6" y="362.3" class="st3" width="55.7" height="213.9"/>
	<polygon class="st2" points="810.3,362.1 810.3,496.2 692.4,496.2 692.4,460.3 675.6,454.7 675.6,411.2 683.6,406.9 683.6,361.6 	
		"/>
	<rect x="291.8" y="416.9" class="st2" width="92.8" height="39.6"/>
	<line class="st2" x1="333" y1="114.4" x2="305.6" y2="114.4"/>
	<rect x="296" y="114.4" class="st2" width="69.4" height="40.8"/>
</g>
<g id="bookable">
	<rect id="area-03.3.11-status" x="96.9" y="90.5" class="st4" width="208.7" height="271.7"/>
	<rect id="area-03.3.9-status" x="96.9" y="361.7" class="st4" width="208.7" height="169.5"/>
	<rect id="area-03.3.6-status" x="360.4" y="464" class="st4" width="118.3" height="114.7"/>
	<text transform="matrix(1 0 0 1 174.82 232.878)" class="st5 st6 st7">Lunch Room</text>
	<text transform="matrix(1 0 0 1 139.669 453.161)" class="st5 st6 st7">Conference Room Maria</text>
	<text transform="matrix(1 0 0 1 383.937 521.366)" class="st5 st6 st7">Focus Room</text>
</g>
<g id="Furniture">
	<g id="tables_copy_3">
		<path class="st8" d="M1113.7,374.6h78c2.2,0,4.1,1.8,4.1,4c0,0,0,0,0,0.1v43.5c0,2.2-1.8,4.1-4,4.1c0,0,0,0-0.1,0h-78
			c-2.2,0-4.1-1.8-4.1-4c0,0,0,0,0-0.1v-43.5C1109.6,376.5,1111.4,374.6,1113.7,374.6C1113.6,374.6,1113.6,374.6,1113.7,374.6z"/>
		<path class="st9" d="M1113.7,372.3h78c2.2,0,4.1,1.8,4.1,4c0,0,0,0,0,0.1v43.5c0,2.2-1.8,4.1-4,4.1c0,0,0,0-0.1,0h-78
			c-2.2,0-4.1-1.8-4.1-4c0,0,0,0,0-0.1v-43.5C1109.6,374.2,1111.4,372.4,1113.7,372.3C1113.6,372.3,1113.6,372.3,1113.7,372.3z"/>
		<path id="table-23" class="st5" d="M1151.9,370.9h-38.8c-1.9,0-3.6,1.5-3.6,3.5v0.1v23.7h42.4V370.9z"/>
		<path id="table-24" class="st5" d="M1195.8,398.2v-23.7c0-1.9-1.5-3.6-3.5-3.6h-0.1h-40.9v27.3L1195.8,398.2z"/>
		<path id="table-25" class="st5" d="M1151.4,398.2v24.4h40.9c1.9,0,3.6-1.5,3.6-3.5V419v-20.8H1151.4z"/>
		<path id="table-26" class="st5" d="M1109.6,398.2V419c0,1.9,1.5,3.6,3.5,3.6h0.1h38.8v-24.4H1109.6z"/>
		<line class="st10" x1="1151.9" y1="370.9" x2="1151.9" y2="422.7"/>
		<line class="st10" x1="1109.6" y1="398.2" x2="1195.8" y2="398.2"/>
	</g>
	<g id="chairs_copy_3">
		<path class="st11" d="M1133.1,430.8h-4.7c-3.4-0.2-6.3,2.5-6.5,5.9l0,0v0.4l0.2,4.3c0.4,4.4,4.1,7.7,8.5,7.5l0,0
			c4.4,0.2,8.2-3.1,8.6-7.4l0.2-4.3c0-3.4-2.7-6.3-6.1-6.3h-0.2V430.8z"/>
		<path class="st12" d="M1133.1,430.2h-4.7c-3.4-0.2-6.3,2.5-6.5,5.9l0,0v0.4l0.2,4.3c0.4,4.4,4.1,7.7,8.5,7.5l0,0
			c4.4,0.2,8.2-3.1,8.6-7.4l0.2-4.3c0-3.4-2.7-6.3-6.1-6.3h-0.2V430.2z"/>
		<path class="st13" d="M1132.9,428.3h-4.3c-3.3,0-5.9,2.6-6,5.9l0,0v0.2l0.2,4.3c0.2,4.2,3.7,7.6,7.9,7.5l0,0
			c4.2,0,7.7-3.2,7.9-7.4l0.2-4.3c0.2-3.3-2.3-6-5.6-6.2c0,0,0,0-0.1,0H1132.9L1132.9,428.3z"/>
		<path class="st14" d="M1122.6,433.6l0.4,5.2c0.2,4.2,3.7,7.6,7.9,7.5l0,0c4.2,0,7.7-3.2,7.9-7.4l0.4-5.2"/>
		<path class="st11" d="M1176.2,430.8h-4.7c-3.4-0.2-6.3,2.5-6.5,5.9l0,0v0.4l0.2,4.3c0.4,4.4,4.1,7.7,8.5,7.5l0,0
			c4.4,0.2,8.2-3.1,8.6-7.4l0.2-4.3c0-3.4-2.7-6.3-6.1-6.3h-0.2V430.8z"/>
		<path class="st12" d="M1176.2,430.2h-4.7c-3.4-0.2-6.3,2.5-6.5,5.9l0,0v0.4l0.2,4.3c0.4,4.4,4.1,7.7,8.5,7.5l0,0
			c4.4,0.2,8.2-3.1,8.6-7.4l0.2-4.3c0-3.4-2.7-6.3-6.1-6.3h-0.2V430.2z"/>
		<path class="st13" d="M1175.9,428.3h-4.3c-3.3,0-5.9,2.6-6,5.9l0,0v0.2l0.2,4.3c0.2,4.2,3.7,7.6,7.9,7.5l0,0
			c4.2,0,7.7-3.2,7.9-7.4l0.2-4.3c0.2-3.2-2.2-6-5.4-6.2c-0.1,0-0.1,0-0.2,0H1175.9z"/>
		<path class="st14" d="M1165.6,433.6l0.4,5.2c0.2,4.2,3.7,7.6,7.9,7.5l0,0c4.2,0,7.7-3.2,7.9-7.4l0.4-5.2"/>
		<path class="st11" d="M1132.3,369.3l-4.3-0.1c-3.3-0.1-6-2.9-5.9-6.2l0,0v-0.2l0.4-4.3c0.4-4.2,3.9-7.5,8.1-7.4l0,0
			c4.3,0.1,7.7,3.5,7.8,7.8l0.1,4.3c0.1,3.2-2.4,6-5.6,6.1c-0.1,0-0.2,0-0.3,0L1132.3,369.3z"/>
		<path class="st12" d="M1132.3,368.6l-4.3-0.1c-3.3-0.1-6-2.9-5.9-6.2l0,0l0,0V362l0.4-4.3c0.3-4.2,3.9-7.4,8.1-7.3l0,0
			c4.3,0.1,7.7,3.5,7.8,7.8l0.1,4.3c0.1,3.3-2.6,6-5.9,6.1H1132.3z"/>
		<path class="st13" d="M1132.3,367.8l-4.3-0.1c-3.3-0.1-6-2.9-5.9-6.2l0,0l0,0v-0.4l0.4-4.3c0.4-4.2,3.9-7.4,8.1-7.3l0,0
			c4.3,0.1,7.7,3.5,7.8,7.8l0.1,4.3c0.1,3.3-2.6,6-5.9,6.1C1132.6,367.8,1132.5,367.8,1132.3,367.8z"/>
		<path class="st15" d="M1122,362l0.5-5.2c0.3-4.2,3.9-7.4,8.1-7.3l0,0c4.3,0.1,7.7,3.5,7.8,7.8l0.2,5.2"/>
		<path class="st11" d="M1175.1,369.3l-4.3-0.1c-3.3-0.1-6-2.9-5.9-6.2l0,0v-0.2l0.4-4.3c0.4-4.2,3.9-7.4,8.1-7.3l0,0
			c4.3,0.1,7.7,3.5,7.8,7.8l0.1,4.3c0.1,3.2-2.4,6-5.6,6.1c-0.1,0-0.2,0-0.3,0L1175.1,369.3L1175.1,369.3z"/>
		<path class="st12" d="M1175.1,368.7l-4.3-0.1c-3.3-0.1-6-2.9-5.9-6.2l0,0l0,0v-0.2l0.4-4.3c0.3-4.2,3.9-7.4,8.1-7.3l0,0
			c4.3,0.1,7.7,3.5,7.8,7.8l0.1,4.3c0.1,3.3-2.5,6-5.8,6.1h-0.1L1175.1,368.7L1175.1,368.7z"/>
		<path class="st13" d="M1175.1,367.9l-4.3-0.1c-3.3-0.1-6-2.9-5.9-6.2l0,0l0,0v-0.4l0.4-4.3c0.4-4.2,3.9-7.4,8.1-7.3l0,0
			c4.3,0.1,7.7,3.5,7.8,7.8l0.1,4.3c0.1,3.3-2.5,6-5.8,6.1h-0.1C1175.4,367.9,1175.2,367.9,1175.1,367.9z"/>
		<path class="st15" d="M1164.8,362.2l0.5-5.2c0.3-4.2,3.9-7.4,8.1-7.3l0,0c4.3,0.1,7.7,3.5,7.8,7.8l0.2,5.2"/>
	</g>
	<g id="tables_copy_3-2">
		<path class="st8" d="M1113.7,216.7h78c2.2,0,4.1,1.8,4.1,4c0,0,0,0,0,0.1v43.5c0,2.2-1.8,4.1-4,4.1c0,0,0,0-0.1,0h-78
			c-2.2,0-4.1-1.8-4.1-4c0,0,0,0,0-0.1v-43.5C1109.6,218.5,1111.4,216.7,1113.7,216.7C1113.6,216.7,1113.6,216.7,1113.7,216.7z"/>
		<path class="st9" d="M1113.7,214.4h78c2.2,0,4.1,1.8,4.1,4c0,0,0,0,0,0.1V262c0,2.2-1.8,4.1-4,4.1c0,0,0,0-0.1,0h-78
			c-2.2,0-4.1-1.8-4.1-4c0,0,0,0,0-0.1v-43.5C1109.6,216.3,1111.4,214.4,1113.7,214.4C1113.6,214.4,1113.6,214.4,1113.7,214.4z"/>
		<path id="table-23-2" class="st5" d="M1151.9,213h-38.8c-1.9,0-3.6,1.5-3.6,3.5v0.1v23.7h42.4V213z"/>
		<path id="table-24-2" class="st5" d="M1195.8,240.3v-23.7c0-1.9-1.5-3.6-3.5-3.6h-0.1h-40.9v27.3H1195.8z"/>
		<path id="table-25-2" class="st5" d="M1151.4,240.3v24.4h40.9c1.9,0,3.6-1.5,3.6-3.5v-0.1v-20.8H1151.4z"/>
		<path id="table-26-2" class="st5" d="M1109.6,240.3v20.8c0,1.9,1.5,3.6,3.5,3.6h0.1h38.8v-24.4L1109.6,240.3L1109.6,240.3z"/>
		<line class="st10" x1="1151.9" y1="213" x2="1151.9" y2="264.7"/>
		<line class="st10" x1="1109.6" y1="240.3" x2="1195.8" y2="240.3"/>
	</g>
	<g id="chairs_copy_3-2">
		<path class="st11" d="M1133.1,272.9h-4.7c-3.4-0.2-6.3,2.5-6.5,5.9l0,0v0.4l0.2,4.3c0.4,4.4,4.1,7.7,8.5,7.5l0,0
			c4.4,0.2,8.2-3.1,8.6-7.4l0.2-4.3c0-3.4-2.7-6.3-6.1-6.4H1133.1z"/>
		<path class="st12" d="M1133.1,272.3h-4.7c-3.4-0.2-6.3,2.5-6.5,5.9l0,0v0.4l0.2,4.3c0.4,4.4,4.1,7.7,8.5,7.5l0,0
			c4.4,0.2,8.2-3.1,8.6-7.4l0.2-4.3c0-3.4-2.7-6.3-6.1-6.4H1133.1z"/>
		<path class="st13" d="M1132.9,270.4h-4.3c-3.3,0-5.9,2.6-6,5.9l0,0v0.2l0.2,4.3c0.2,4.2,3.7,7.6,7.9,7.5l0,0
			c4.2,0,7.7-3.2,7.9-7.4l0.2-4.3c0.2-3.3-2.3-6-5.6-6.2c0,0,0,0-0.1,0H1132.9z"/>
		<path class="st14" d="M1122.6,275.6l0.4,5.2c0.2,4.2,3.7,7.6,7.9,7.5l0,0c4.2,0,7.7-3.2,7.9-7.4l0.4-5.2"/>
		<path class="st11" d="M1176.2,272.9h-4.7c-3.4-0.2-6.3,2.5-6.5,5.9l0,0v0.4l0.2,4.3c0.4,4.4,4.1,7.7,8.5,7.5l0,0
			c4.4,0.2,8.2-3.1,8.6-7.4l0.2-4.3c0-3.4-2.7-6.3-6.1-6.4H1176.2z"/>
		<path class="st12" d="M1176.2,272.3h-4.7c-3.4-0.2-6.3,2.5-6.5,5.9l0,0v0.4l0.2,4.3c0.4,4.4,4.1,7.7,8.5,7.5l0,0
			c4.4,0.2,8.2-3.1,8.6-7.4l0.2-4.3c0-3.4-2.7-6.3-6.1-6.4H1176.2z"/>
		<path class="st13" d="M1175.9,270.4h-4.3c-3.3,0-5.9,2.6-6,5.9l0,0v0.2l0.2,4.3c0.2,4.2,3.7,7.6,7.9,7.5l0,0
			c4.2,0,7.7-3.2,7.9-7.4l0.2-4.3c0.2-3.2-2.2-6-5.4-6.2c-0.1,0-0.1,0-0.2,0H1175.9z"/>
		<path class="st14" d="M1165.6,275.6l0.4,5.2c0.2,4.2,3.7,7.6,7.9,7.5l0,0c4.2,0,7.7-3.2,7.9-7.4l0.4-5.2"/>
		<path class="st11" d="M1132.3,211.4l-4.3-0.1c-3.3-0.1-6-2.9-5.9-6.2l0,0v-0.2l0.4-4.3c0.4-4.2,3.9-7.5,8.1-7.4l0,0
			c4.3,0.1,7.7,3.5,7.8,7.8l0.1,4.3c0.1,3.2-2.4,6-5.6,6.1c-0.1,0-0.2,0-0.3,0L1132.3,211.4z"/>
		<path class="st12" d="M1132.3,210.7l-4.3-0.1c-3.3-0.1-6-2.9-5.9-6.2l0,0l0,0v-0.2l0.4-4.3c0.3-4.2,3.9-7.4,8.1-7.3l0,0
			c4.3,0.1,7.7,3.5,7.8,7.8l0.1,4.3c0.1,3.3-2.6,6-5.9,6.1L1132.3,210.7z"/>
		<path class="st13" d="M1132.3,209.9l-4.3-0.1c-3.3-0.1-6-2.9-5.9-6.2l0,0l0,0v-0.4l0.4-4.3c0.4-4.2,3.9-7.4,8.1-7.3l0,0
			c4.3,0.1,7.7,3.5,7.8,7.8l0.1,4.3c0.1,3.3-2.6,6-5.9,6.1C1132.6,209.8,1132.5,209.9,1132.3,209.9z"/>
		<path class="st15" d="M1122,204.1l0.5-5.2c0.3-4.2,3.9-7.4,8.1-7.3l0,0c4.3,0.1,7.7,3.5,7.8,7.8l0.2,5.2"/>
		<path class="st11" d="M1175.1,211.4l-4.3-0.1c-3.3-0.1-6-2.9-5.9-6.2l0,0v-0.2l0.4-4.3c0.4-4.2,3.9-7.4,8.1-7.3l0,0
			c4.3,0.1,7.7,3.5,7.8,7.8l0.1,4.3c0.1,3.2-2.4,6-5.6,6.1c-0.1,0-0.2,0-0.3,0h-0.3L1175.1,211.4L1175.1,211.4z"/>
		<path class="st12" d="M1175.1,210.8l-4.3-0.1c-3.3-0.1-6-2.9-5.9-6.2l0,0l0,0v-0.2l0.4-4.3c0.3-4.2,3.9-7.4,8.1-7.3l0,0
			c4.3,0.1,7.7,3.5,7.8,7.8l0.1,4.3c0.1,3.3-2.5,6-5.8,6.1h-0.1h-0.3L1175.1,210.8L1175.1,210.8z"/>
		<path class="st13" d="M1175.1,210l-4.3-0.1c-3.3-0.1-6-2.9-5.9-6.2l0,0l0,0v-0.4l0.4-4.3c0.4-4.2,3.9-7.4,8.1-7.3l0,0
			c4.3,0.1,7.7,3.5,7.8,7.8l0.1,4.3c0.1,3.3-2.5,6-5.8,6.1h-0.1C1175.4,209.9,1175.2,210,1175.1,210z"/>
		<path class="st15" d="M1164.8,204.2l0.5-5.2c0.3-4.2,3.9-7.4,8.1-7.3l0,0c4.3,0.1,7.7,3.5,7.8,7.8l0.2,5.2"/>
	</g>
	<g id="tables_copy_3-3">
		<path class="st8" d="M990.5,227.5v-78c0-2.2,1.8-4.1,4-4.1c0,0,0,0,0.1,0h43.5c2.2,0,4.1,1.8,4.1,4c0,0,0,0,0,0.1v78
			c0,2.2-1.8,4.1-4,4.1c0,0,0,0-0.1,0h-43.5C992.4,231.6,990.5,229.8,990.5,227.5L990.5,227.5z"/>
		<path class="st9" d="M988.2,227.5v-78c0-2.2,1.8-4.1,4-4.1c0,0,0,0,0.1,0h43.5c2.2,0,4.1,1.8,4.1,4c0,0,0,0,0,0.1v78
			c0,2.2-1.8,4.1-4,4.1c0,0,0,0-0.1,0h-43.5C990.1,231.6,988.3,229.8,988.2,227.5L988.2,227.5z"/>
		<path id="table-23-3" class="st5" d="M986.8,189.3v38.8c0,1.9,1.5,3.6,3.5,3.6h0.1h23.7v-42.4L986.8,189.3L986.8,189.3z"/>
		<path id="table-24-3" class="st5" d="M1014.1,145.3h-23.7c-1.9,0-3.6,1.5-3.6,3.5v0.1v40.9h27.3V145.3z"/>
		<path id="table-25-3" class="st5" d="M1014.1,189.7h24.4v-40.9c0-1.9-1.5-3.6-3.5-3.6h-0.1h-20.8L1014.1,189.7L1014.1,189.7z"/>
		<path id="table-26-3" class="st5" d="M1014.1,231.6h20.8c1.9,0,3.6-1.5,3.6-3.5V228l0,0v-38.8h-24.4V231.6z"/>
		<line class="st10" x1="986.8" y1="189.3" x2="1038.6" y2="189.3"/>
		<line class="st10" x1="1014.1" y1="231.6" x2="1014.1" y2="145.3"/>
	</g>
	<g id="chairs_copy_3-3">
		<path class="st11" d="M1046.7,208.1v4.7c-0.2,3.4,2.5,6.3,5.9,6.5l0,0h0.4l4.3-0.2c4.4-0.4,7.7-4.1,7.5-8.5l0,0
			c0.2-4.4-3.1-8.2-7.4-8.6l-4.3-0.2c-3.4,0-6.3,2.7-6.3,6.1L1046.7,208.1L1046.7,208.1z"/>
		<path class="st12" d="M1046.1,208.1v4.7c-0.2,3.4,2.5,6.3,5.9,6.5l0,0h0.4l4.3-0.2c4.4-0.4,7.7-4.1,7.5-8.5l0,0
			c0.2-4.4-3.1-8.2-7.4-8.6l-4.3-0.2c-3.4,0-6.3,2.7-6.3,6.1l0,0L1046.1,208.1L1046.1,208.1z"/>
		<path class="st13" d="M1044.2,208.2v4.3c0,3.3,2.6,5.9,5.9,6h0.2l4.3-0.2c4.2-0.2,7.6-3.7,7.5-7.9l0,0c0-4.2-3.2-7.7-7.4-7.9
			l-4.3-0.2c-3.3-0.2-6,2.3-6.2,5.6c0,0,0,0,0,0.1l0,0V208.2L1044.2,208.2z"/>
		<path class="st14" d="M1049.5,218.5l5.2-0.4c4.2-0.2,7.6-3.7,7.5-7.9l0,0c0-4.2-3.2-7.7-7.4-7.9l-5.2-0.4"/>
		<path class="st11" d="M1046.7,164.9v4.7c-0.2,3.4,2.5,6.3,5.9,6.5l0,0h0.4l4.3-0.2c4.4-0.4,7.7-4.1,7.5-8.5l0,0
			c0.2-4.4-3.1-8.2-7.4-8.6l-4.3-0.2c-3.4,0-6.3,2.7-6.3,6.1L1046.7,164.9L1046.7,164.9z"/>
		<path class="st12" d="M1046.1,164.9v4.7c-0.2,3.4,2.5,6.3,5.9,6.5l0,0h0.4l4.3-0.2c4.4-0.4,7.7-4.1,7.5-8.5l0,0
			c0.2-4.4-3.1-8.2-7.4-8.6l-4.3-0.2c-3.4,0-6.3,2.7-6.3,6.1l0,0L1046.1,164.9L1046.1,164.9z"/>
		<path class="st13" d="M1044.2,165.2v4.3c0,3.3,2.6,5.9,5.9,6h0.2l4.3-0.2c4.2-0.2,7.6-3.7,7.5-7.9l0,0c0-4.2-3.2-7.7-7.4-7.9
			l-4.3-0.2c-3.2-0.2-6,2.2-6.2,5.4c0,0.1,0,0.1,0,0.2V165.2z"/>
		<path class="st14" d="M1049.5,175.5l5.2-0.4c4.2-0.2,7.6-3.7,7.5-7.9l0,0c0-4.2-3.2-7.7-7.4-7.9l-5.2-0.4"/>
		<path class="st11" d="M985.2,208.8l-0.1,4.3c-0.1,3.3-2.9,6-6.2,5.9l0,0h-0.2l-4.3-0.4c-4.2-0.4-7.5-3.9-7.4-8.1l0,0
			c0.1-4.3,3.5-7.7,7.8-7.8l4.3-0.1c3.2-0.1,6,2.4,6.1,5.6c0,0.1,0,0.2,0,0.3L985.2,208.8z"/>
		<path class="st12" d="M984.5,208.8l-0.1,4.3c-0.1,3.3-2.9,6-6.2,5.9l0,0H978l-4.3-0.4c-4.2-0.3-7.4-3.9-7.3-8.1l0,0
			c0.1-4.3,3.5-7.7,7.8-7.8l4.3-0.1c3.3-0.1,6,2.6,6.1,5.9L984.5,208.8L984.5,208.8z"/>
		<path class="st13" d="M983.7,208.8l-0.1,4.3c-0.1,3.3-2.9,6-6.2,5.9l0,0H977l-4.3-0.4c-4.2-0.4-7.4-3.9-7.3-8.1l0,0
			c0.1-4.3,3.5-7.7,7.8-7.8l4.3-0.1c3.3-0.1,6,2.6,6.1,5.9C983.7,208.5,983.7,208.7,983.7,208.8z"/>
		<path class="st15" d="M977.9,219.1l-5.2-0.5c-4.2-0.3-7.4-3.9-7.3-8.1l0,0c0.1-4.3,3.5-7.7,7.8-7.8l5.2-0.2"/>
		<path class="st11" d="M985.2,166l-0.1,4.3c-0.1,3.3-2.9,6-6.2,5.9l0,0h-0.2l-4.3-0.4c-4.2-0.4-7.4-3.9-7.3-8.1l0,0
			c0.1-4.3,3.5-7.7,7.8-7.8l4.3-0.1c3.2-0.1,6,2.4,6.1,5.6c0,0.1,0,0.2,0,0.3L985.2,166L985.2,166z"/>
		<path class="st12" d="M984.6,166l-0.1,4.3c-0.1,3.3-2.9,6-6.2,5.9l0,0h-0.2l-4.3-0.4c-4.2-0.3-7.4-3.9-7.3-8.1l0,0
			c0.1-4.3,3.5-7.7,7.8-7.8l4.3-0.1c3.3-0.1,6,2.5,6.1,5.8v0.1L984.6,166L984.6,166z"/>
		<path class="st13" d="M983.8,166l-0.1,4.3c-0.1,3.3-2.9,6-6.2,5.9l0,0h-0.4l-4.3-0.4c-4.2-0.4-7.4-3.9-7.3-8.1l0,0
			c0.1-4.3,3.5-7.7,7.8-7.8l4.3-0.1c3.3-0.1,6,2.5,6.1,5.8v0.1C983.8,165.8,983.8,165.9,983.8,166z"/>
		<path class="st15" d="M978.1,176.3l-5.2-0.5c-4.2-0.3-7.4-3.9-7.3-8.1l0,0c0.1-4.3,3.5-7.7,7.8-7.8l5.2-0.2"/>
	</g>
	<g id="tables_copy_3-4">
		<path class="st8" d="M864,227.5v-78c0-2.2,1.8-4.1,4-4.1c0,0,0,0,0.1,0h43.5c2.2,0,4.1,1.8,4.1,4c0,0,0,0,0,0.1v78
			c0,2.2-1.8,4.1-4,4.1c0,0,0,0-0.1,0h-43.5C865.8,231.6,864,229.8,864,227.5L864,227.5z"/>
		<path class="st9" d="M861.7,227.5v-78c0-2.2,1.8-4.1,4-4.1c0,0,0,0,0.1,0h43.5c2.2,0,4.1,1.8,4.1,4c0,0,0,0,0,0.1v78
			c0,2.2-1.8,4.1-4,4.1c0,0,0,0-0.1,0h-43.5C863.6,231.6,861.7,229.8,861.7,227.5L861.7,227.5z"/>
		<path id="table-23-4" class="st5" d="M860.3,189.3v38.8c0,1.9,1.5,3.6,3.5,3.6h0.1h23.7v-42.4L860.3,189.3L860.3,189.3z"/>
		<path id="table-24-4" class="st5" d="M887.6,145.3h-23.7c-1.9,0-3.6,1.5-3.6,3.5v0.1v40.9h27.3V145.3z"/>
		<path id="table-25-4" class="st5" d="M887.6,189.7H912v-40.9c0-1.9-1.5-3.6-3.5-3.6h-0.1h-20.8L887.6,189.7L887.6,189.7z"/>
		<path id="table-26-4" class="st5" d="M887.6,231.6h20.8c1.9,0,3.6-1.5,3.6-3.5V228l0,0v-38.8h-24.4L887.6,231.6L887.6,231.6z"/>
		<line class="st10" x1="860.3" y1="189.3" x2="912" y2="189.3"/>
		<line class="st10" x1="887.6" y1="231.6" x2="887.6" y2="145.3"/>
	</g>
	<g id="chairs_copy_3-4">
		<path class="st11" d="M920.2,208.1v4.7c-0.2,3.4,2.5,6.3,5.9,6.5l0,0h0.4l4.3-0.2c4.4-0.4,7.7-4.1,7.5-8.5l0,0
			c0.2-4.4-3.1-8.2-7.4-8.6l-4.3-0.2c-3.4,0-6.3,2.7-6.3,6.1v0.2H920.2z"/>
		<path class="st12" d="M919.6,208.1v4.7c-0.2,3.4,2.5,6.3,5.9,6.5l0,0h0.4l4.3-0.2c4.4-0.4,7.7-4.1,7.5-8.5l0,0
			c0.2-4.4-3.1-8.2-7.4-8.6l-4.3-0.2c-3.4,0-6.3,2.7-6.3,6.1l0,0v0.2H919.6z"/>
		<path class="st13" d="M917.7,208.2v4.3c0,3.3,2.6,5.9,5.9,6h0.2l4.3-0.2c4.2-0.2,7.6-3.7,7.5-7.9l0,0c0-4.2-3.2-7.7-7.4-7.9
			l-4.3-0.2c-3.3-0.2-6,2.3-6.2,5.6c0,0,0,0,0,0.1l0,0V208.2L917.7,208.2z"/>
		<path class="st14" d="M922.9,218.5l5.2-0.4c4.2-0.2,7.6-3.7,7.5-7.9l0,0c0-4.2-3.2-7.7-7.4-7.9l-5.2-0.4"/>
		<path class="st11" d="M920.2,164.9v4.7c-0.2,3.4,2.5,6.3,5.9,6.5l0,0h0.4l4.3-0.2c4.4-0.4,7.7-4.1,7.5-8.5l0,0
			c0.2-4.4-3.1-8.2-7.4-8.6l-4.3-0.2c-3.4,0-6.3,2.7-6.3,6.1v0.2H920.2z"/>
		<path class="st12" d="M919.6,164.9v4.7c-0.2,3.4,2.5,6.3,5.9,6.5l0,0h0.4l4.3-0.2c4.4-0.4,7.7-4.1,7.5-8.5l0,0
			c0.2-4.4-3.1-8.2-7.4-8.6l-4.3-0.2c-3.4,0-6.3,2.7-6.3,6.1l0,0v0.2H919.6z"/>
		<path class="st13" d="M917.7,165.2v4.3c0,3.3,2.6,5.9,5.9,6h0.2l4.3-0.2c4.2-0.2,7.6-3.7,7.5-7.9l0,0c0-4.2-3.2-7.7-7.4-7.9
			l-4.3-0.2c-3.2-0.2-6,2.2-6.2,5.4c0,0.1,0,0.1,0,0.2V165.2z"/>
		<path class="st14" d="M922.9,175.5l5.2-0.4c4.2-0.2,7.6-3.7,7.5-7.9l0,0c0-4.2-3.2-7.7-7.4-7.9l-5.2-0.4"/>
		<path class="st11" d="M858.7,208.8l-0.1,4.3c-0.1,3.3-2.9,6-6.2,5.9l0,0h-0.2l-4.3-0.4c-4.2-0.4-7.5-3.9-7.4-8.1l0,0
			c0.1-4.3,3.5-7.7,7.8-7.8l4.3-0.1c3.2-0.1,6,2.4,6.1,5.6c0,0.1,0,0.2,0,0.3L858.7,208.8z"/>
		<path class="st12" d="M858,208.8l-0.1,4.3c-0.1,3.3-2.9,6-6.2,5.9l0,0h-0.2l-4.3-0.4c-4.2-0.3-7.4-3.9-7.3-8.1l0,0
			c0.1-4.3,3.5-7.7,7.8-7.8l4.3-0.1c3.3-0.1,6,2.6,6.1,5.9L858,208.8L858,208.8z"/>
		<path class="st13" d="M857.2,208.8l-0.1,4.3c-0.1,3.3-2.9,6-6.2,5.9l0,0h-0.4l-4.3-0.4c-4.2-0.4-7.4-3.9-7.3-8.1l0,0
			c0.1-4.3,3.5-7.7,7.8-7.8l4.3-0.1c3.3-0.1,6,2.6,6.1,5.9C857.1,208.5,857.2,208.7,857.2,208.8z"/>
		<path class="st15" d="M851.4,219.1l-5.2-0.5c-4.2-0.3-7.4-3.9-7.3-8.1l0,0c0.1-4.3,3.5-7.7,7.8-7.8l5.2-0.2"/>
		<path class="st11" d="M858.7,166l-0.1,4.3c-0.1,3.3-2.9,6-6.2,5.9l0,0h-0.2l-4.3-0.4c-4.2-0.4-7.4-3.9-7.3-8.1l0,0
			c0.1-4.3,3.5-7.7,7.8-7.8l4.3-0.1c3.2-0.1,6,2.4,6.1,5.6c0,0.1,0,0.2,0,0.3L858.7,166z"/>
		<path class="st12" d="M858.1,166l-0.1,4.3c-0.1,3.3-2.9,6-6.2,5.9l0,0h-0.2l-4.3-0.4c-4.2-0.3-7.4-3.9-7.3-8.1l0,0
			c0.1-4.3,3.5-7.7,7.8-7.8l4.3-0.1c3.3-0.1,6,2.5,6.1,5.8v0.1L858.1,166z"/>
		<path class="st13" d="M857.3,166l-0.1,4.3c-0.1,3.3-2.9,6-6.2,5.9l0,0h-0.4l-4.3-0.4c-4.2-0.4-7.4-3.9-7.3-8.1l0,0
			c0.1-4.3,3.5-7.7,7.8-7.8l4.3-0.1c3.3-0.1,6,2.5,6.1,5.8v0.1C857.2,165.8,857.3,165.9,857.3,166z"/>
		<path class="st15" d="M851.5,176.3l-5.2-0.5c-4.2-0.3-7.4-3.9-7.3-8.1l0,0c0.1-4.3,3.5-7.7,7.8-7.8l5.2-0.2"/>
	</g>
	<g id="tables_copy_3-5">
		<path class="st8" d="M995.7,466.4v-78c0-2.2,1.8-4.1,4-4.1c0,0,0,0,0.1,0h43.5c2.2,0,4.1,1.8,4.1,4c0,0,0,0,0,0.1v78
			c0,2.2-1.8,4.1-4,4.1c0,0,0,0-0.1,0h-43.5C997.5,470.5,995.7,468.7,995.7,466.4C995.7,466.5,995.7,466.5,995.7,466.4z"/>
		<path class="st9" d="M993.4,466.4v-78c0-2.2,1.8-4.1,4-4.1c0,0,0,0,0.1,0h43.5c2.2,0,4.1,1.8,4.1,4c0,0,0,0,0,0.1v78
			c0,2.2-1.8,4.1-4,4.1c0,0,0,0-0.1,0h-43.5C995.2,470.5,993.4,468.7,993.4,466.4C993.4,466.5,993.4,466.5,993.4,466.4z"/>
		<path id="table-23-5" class="st5" d="M992,428.2V467c0,1.9,1.5,3.6,3.5,3.6h0.1h23.7v-42.4H992z"/>
		<path id="table-24-5" class="st5" d="M1019.3,384.3h-23.7c-1.9,0-3.6,1.5-3.6,3.5v0.1v40.8h27.3V384.3z"/>
		<path id="table-25-5" class="st5" d="M1019.3,428.7h24.4v-40.8c0-1.9-1.5-3.6-3.5-3.6h-0.1h-20.8V428.7z"/>
		<path id="table-26-5" class="st5" d="M1019.3,470.5h20.8c1.9,0,3.6-1.5,3.6-3.5v-0.1l0,0v-38.8h-24.4L1019.3,470.5z"/>
		<line class="st10" x1="992" y1="428.2" x2="1043.7" y2="428.2"/>
		<line class="st10" x1="1019.3" y1="470.5" x2="1019.3" y2="384.3"/>
	</g>
	<g id="chairs_copy_3-5">
		<path class="st11" d="M1051.9,447v4.7c-0.2,3.4,2.5,6.3,5.9,6.5l0,0h0.4l4.3-0.2c4.4-0.4,7.7-4.1,7.5-8.5l0,0
			c0.2-4.4-3.1-8.2-7.4-8.6l-4.3-0.2c-3.4,0-6.3,2.7-6.3,6.1L1051.9,447L1051.9,447z"/>
		<path class="st12" d="M1051.3,447v4.7c-0.2,3.4,2.5,6.3,5.9,6.5l0,0h0.4l4.3-0.2c4.4-0.4,7.7-4.1,7.5-8.5l0,0
			c0.2-4.4-3.1-8.2-7.4-8.6l-4.3-0.2c-3.4,0-6.3,2.7-6.3,6.1l0,0L1051.3,447L1051.3,447z"/>
		<path class="st13" d="M1049.4,447.2v4.3c0,3.3,2.6,5.9,5.9,6h0.2l4.3-0.2c4.2-0.2,7.6-3.7,7.5-7.9l0,0c0-4.2-3.2-7.7-7.4-7.9
			l-4.3-0.2c-3.3-0.2-6,2.3-6.2,5.6c0,0,0,0,0,0.1l0,0V447.2L1049.4,447.2z"/>
		<path class="st14" d="M1054.6,457.5l5.2-0.4c4.2-0.2,7.6-3.7,7.5-7.9l0,0c0-4.2-3.2-7.7-7.4-7.9l-5.2-0.4"/>
		<path class="st11" d="M1051.9,403.9v4.7c-0.2,3.4,2.5,6.3,5.9,6.5l0,0h0.4l4.3-0.2c4.4-0.4,7.7-4.1,7.5-8.5l0,0
			c0.2-4.4-3.1-8.2-7.4-8.6l-4.3-0.2c-3.4,0-6.3,2.7-6.3,6.1L1051.9,403.9L1051.9,403.9z"/>
		<path class="st12" d="M1051.3,403.9v4.7c-0.2,3.4,2.5,6.3,5.9,6.5l0,0h0.4l4.3-0.2c4.4-0.4,7.7-4.1,7.5-8.5l0,0
			c0.2-4.4-3.1-8.2-7.4-8.6l-4.3-0.2c-3.4,0-6.3,2.7-6.3,6.1l0,0L1051.3,403.9L1051.3,403.9z"/>
		<path class="st13" d="M1049.4,404.1v4.3c0,3.3,2.6,5.9,5.9,6h0.2l4.3-0.2c4.2-0.2,7.6-3.7,7.5-7.9l0,0c0-4.2-3.2-7.7-7.4-7.9
			l-4.3-0.2c-3.2-0.2-6,2.2-6.2,5.4c0,0.1,0,0.1,0,0.2V404.1z"/>
		<path class="st14" d="M1054.6,414.4l5.2-0.4c4.2-0.2,7.6-3.7,7.5-7.9l0,0c0-4.2-3.2-7.7-7.4-7.9l-5.2-0.4"/>
		<path class="st11" d="M990.4,447.8l-0.1,4.3c-0.1,3.3-2.9,6-6.2,5.9l0,0h-0.2l-4.3-0.4c-4.2-0.4-7.5-3.9-7.4-8.1l0,0
			c0.1-4.3,3.5-7.7,7.8-7.8l4.3-0.1c3.2-0.1,6,2.4,6.1,5.6c0,0.1,0,0.2,0,0.3L990.4,447.8z"/>
		<path class="st12" d="M989.7,447.8l-0.1,4.3c-0.1,3.3-2.9,6-6.2,5.9l0,0h-0.2l-4.3-0.4c-4.2-0.3-7.4-3.9-7.3-8.1l0,0
			c0.1-4.3,3.5-7.7,7.8-7.8l4.3-0.1c3.3-0.1,6,2.6,6.1,5.9L989.7,447.8L989.7,447.8z"/>
		<path class="st13" d="M988.9,447.8l-0.1,4.3c-0.1,3.3-2.9,6-6.2,5.9l0,0h-0.4l-4.3-0.4c-4.2-0.4-7.4-3.9-7.3-8.1l0,0
			c0.1-4.3,3.5-7.7,7.8-7.8l4.3-0.1c3.3-0.1,6,2.6,6.1,5.9C988.8,447.5,988.9,447.6,988.9,447.8z"/>
		<path class="st15" d="M983.1,458.1l-5.2-0.5c-4.2-0.3-7.4-3.9-7.3-8.1l0,0c0.1-4.3,3.5-7.7,7.8-7.8l5.2-0.2"/>
		<path class="st11" d="M990.4,405l-0.1,4.3c-0.1,3.3-2.9,6-6.2,5.9l0,0h-0.2l-4.3-0.4c-4.2-0.4-7.4-3.9-7.3-8.1l0,0
			c0.1-4.3,3.5-7.7,7.8-7.8l4.3-0.1c3.2-0.1,6,2.4,6.1,5.6c0,0.1,0,0.2,0,0.3L990.4,405L990.4,405z"/>
		<path class="st12" d="M989.8,405l-0.1,4.3c-0.1,3.3-2.9,6-6.2,5.9l0,0h-0.2l-4.3-0.4c-4.2-0.3-7.4-3.9-7.3-8.1l0,0
			c0.1-4.3,3.5-7.7,7.8-7.8l4.3-0.1c3.3-0.1,6,2.5,6.1,5.8v0.1L989.8,405L989.8,405z"/>
		<path class="st13" d="M989,405l-0.1,4.3c-0.1,3.3-2.9,6-6.2,5.9l0,0h-0.4l-4.3-0.4c-4.2-0.4-7.4-3.9-7.3-8.1l0,0
			c0.1-4.3,3.5-7.7,7.8-7.8l4.3-0.1c3.3-0.1,6,2.5,6.1,5.8v0.1C988.9,404.7,989,404.9,989,405z"/>
		<path class="st15" d="M983.2,415.3l-5.2-0.5c-4.2-0.3-7.4-3.9-7.3-8.1l0,0c0.1-4.3,3.5-7.7,7.8-7.8l5.2-0.2"/>
	</g>
	<g id="tables_copy_3-6">
		<path class="st8" d="M869.2,466.4v-78c0-2.2,1.8-4.1,4-4.1c0,0,0,0,0.1,0h43.5c2.2,0,4.1,1.8,4.1,4c0,0,0,0,0,0.1v78
			c0,2.2-1.8,4.1-4,4.1c0,0,0,0-0.1,0h-43.5C871,470.5,869.2,468.7,869.2,466.4C869.2,466.5,869.2,466.5,869.2,466.4z"/>
		<path class="st9" d="M866.9,466.4v-78c0-2.2,1.8-4.1,4-4.1c0,0,0,0,0.1,0h43.5c2.2,0,4.1,1.8,4.1,4c0,0,0,0,0,0.1v78
			c0,2.2-1.8,4.1-4,4.1c0,0,0,0-0.1,0H871C868.7,470.5,866.9,468.7,866.9,466.4C866.9,466.5,866.9,466.5,866.9,466.4z"/>
		<path id="table-23-6" class="st5" d="M865.4,428.2V467c0,1.9,1.5,3.6,3.5,3.6h0.1h23.7v-42.4H865.4z"/>
		<path id="table-24-6" class="st5" d="M892.8,384.3H869c-1.9,0-3.6,1.5-3.6,3.5v0.1v40.8h27.3L892.8,384.3L892.8,384.3z"/>
		<path id="table-25-6" class="st5" d="M892.8,428.7h24.4v-40.8c0-1.9-1.5-3.6-3.5-3.6h-0.1h-20.9L892.8,428.7L892.8,428.7z"/>
		<path id="table-26-6" class="st5" d="M892.8,470.5h20.8c1.9,0,3.6-1.5,3.6-3.5v-0.1l0,0v-38.8h-24.4L892.8,470.5z"/>
		<line class="st10" x1="865.4" y1="428.2" x2="917.2" y2="428.2"/>
		<line class="st10" x1="892.8" y1="470.5" x2="892.8" y2="384.3"/>
	</g>
	<g id="chairs_copy_3-6">
		<path class="st11" d="M925.3,447v4.7c-0.2,3.4,2.5,6.3,5.9,6.5l0,0h0.4l4.3-0.2c4.4-0.4,7.7-4.1,7.5-8.5l0,0
			c0.2-4.4-3.1-8.2-7.4-8.6l-4.3-0.2c-3.4,0-6.3,2.7-6.3,6.1L925.3,447z"/>
		<path class="st12" d="M924.7,447v4.7c-0.2,3.4,2.5,6.3,5.9,6.5l0,0h0.4l4.3-0.2c4.4-0.4,7.7-4.1,7.5-8.5l0,0
			c0.2-4.4-3.1-8.2-7.4-8.6l-4.3-0.2c-3.4,0-6.3,2.7-6.3,6.1l0,0v0.2H924.7z"/>
		<path class="st13" d="M922.8,447.2v4.3c0,3.3,2.6,5.9,5.9,6h0.2l4.3-0.2c4.2-0.2,7.6-3.7,7.5-7.9l0,0c0-4.2-3.2-7.7-7.4-7.9
			l-4.3-0.2c-3.3-0.2-6,2.3-6.2,5.6c0,0,0,0,0,0.1l0,0V447.2L922.8,447.2z"/>
		<path class="st14" d="M928.1,457.5l5.2-0.4c4.2-0.2,7.6-3.7,7.5-7.9l0,0c0-4.2-3.2-7.7-7.4-7.9l-5.2-0.4"/>
		<path class="st11" d="M925.3,403.9v4.7c-0.2,3.4,2.5,6.3,5.9,6.5l0,0h0.4l4.3-0.2c4.4-0.4,7.7-4.1,7.5-8.5l0,0
			c0.2-4.4-3.1-8.2-7.4-8.6l-4.3-0.2c-3.4,0-6.3,2.7-6.3,6.1L925.3,403.9z"/>
		<path class="st12" d="M924.7,403.9v4.7c-0.2,3.4,2.5,6.3,5.9,6.5l0,0h0.4l4.3-0.2c4.4-0.4,7.7-4.1,7.5-8.5l0,0
			c0.2-4.4-3.1-8.2-7.4-8.6l-4.3-0.2c-3.4,0-6.3,2.7-6.3,6.1l0,0v0.2H924.7z"/>
		<path class="st13" d="M922.8,404.1v4.3c0,3.3,2.6,5.9,5.9,6h0.2l4.3-0.2c4.2-0.2,7.6-3.7,7.6-7.9l0,0c0-4.2-3.2-7.7-7.4-7.9
			l-4.3-0.2c-3.2-0.2-6,2.2-6.2,5.4c0,0.1,0,0.1,0,0.2L922.8,404.1z"/>
		<path class="st14" d="M928.1,414.4l5.2-0.4c4.2-0.2,7.6-3.7,7.5-7.9l0,0c0-4.2-3.2-7.7-7.4-7.9l-5.2-0.4"/>
		<path class="st11" d="M863.9,447.8l-0.1,4.3c-0.1,3.3-2.9,6-6.2,5.9l0,0h-0.2l-4.3-0.4c-4.2-0.4-7.5-3.9-7.4-8.1l0,0
			c0.1-4.3,3.5-7.7,7.8-7.8l4.3-0.1c3.2-0.1,6,2.4,6.1,5.6c0,0.1,0,0.2,0,0.3L863.9,447.8z"/>
		<path class="st12" d="M863.2,447.8l-0.1,4.3c-0.1,3.3-2.9,6-6.2,5.9l0,0h-0.2l-4.3-0.4c-4.2-0.3-7.4-3.9-7.3-8.1l0,0
			c0.1-4.3,3.5-7.7,7.8-7.8l4.3-0.1c3.3-0.1,6,2.6,6.1,5.9L863.2,447.8L863.2,447.8z"/>
		<path class="st13" d="M862.3,447.8l-0.1,4.3c-0.1,3.3-2.9,6-6.2,5.9l0,0h-0.4l-4.3-0.4c-4.2-0.4-7.4-3.9-7.3-8.1l0,0
			c0.1-4.3,3.5-7.7,7.8-7.8l4.3-0.1c3.3-0.1,6,2.6,6.1,5.9C862.3,447.5,862.3,447.6,862.3,447.8z"/>
		<path class="st15" d="M856.6,458.1l-5.2-0.5c-4.2-0.3-7.4-3.9-7.3-8.1l0,0c0.1-4.3,3.5-7.7,7.8-7.8l5.2-0.2"/>
		<path class="st11" d="M863.9,405l-0.1,4.3c-0.1,3.3-2.9,6-6.2,5.9l0,0h-0.2l-4.3-0.4c-4.2-0.4-7.4-3.9-7.3-8.1l0,0
			c0.1-4.3,3.5-7.7,7.8-7.8l4.3-0.1c3.2-0.1,6,2.4,6.1,5.6c0,0.1,0,0.2,0,0.3L863.9,405L863.9,405z"/>
		<path class="st12" d="M863.3,405l-0.1,4.3c-0.1,3.3-2.9,6-6.2,5.9l0,0h-0.2l-4.3-0.4c-4.2-0.3-7.4-3.9-7.3-8.1l0,0
			c0.1-4.3,3.5-7.7,7.8-7.8l4.3-0.1c3.3-0.1,6,2.5,6.1,5.8v0.1L863.3,405z"/>
		<path class="st13" d="M862.4,405l-0.1,4.3c-0.1,3.3-2.9,6-6.2,5.9l0,0h-0.4l-4.3-0.4c-4.2-0.4-7.4-3.9-7.3-8.1l0,0
			c0.1-4.3,3.5-7.7,7.8-7.8l4.3-0.1c3.3-0.1,6,2.5,6.1,5.8v0.1C862.4,404.7,862.4,404.9,862.4,405z"/>
		<path class="st15" d="M856.7,415.3l-5.2-0.5c-4.2-0.3-7.4-3.9-7.3-8.1l0,0c0.1-4.3,3.5-7.7,7.8-7.8l5.2-0.2"/>
	</g>
	<path class="st16" d="M72.2,271.4c0.2-2.3,2.1-4,4.4-3.8l6.4,0.5c3.3,0.3,5.9,3,6,6.3v4.5c0,3.4-2.6,6.2-5.9,6.4l-6.4,0.5h-0.3l0,0
		c-2.2,0-4.1-1.8-4.1-4.1l-0.1-10V271.4z"/>
	<path class="st12" d="M73.2,271.3L73.2,271.3c0.2-2.3,2.1-4,4.4-3.8L84,268c3.3,0.3,5.9,3,6,6.3v4.5c0,3.4-2.6,6.2-5.9,6.4
		l-6.4,0.5H77c-2.1-0.3-3.7-2.1-3.6-4.3l-0.1-9.8C73.3,271.5,73.2,271.4,73.2,271.3z"/>
	<path class="st17" d="M74.2,271.2c0.4-2.2,2.5-3.7,4.8-3.4l6.1,0.5c3.3,0.3,5.9,3,6,6.3v4.5c0,3.4-2.6,6.2-5.9,6.4l-6.4,0.5h-0.3
		l0,0c-2.2,0-4.1-1.8-4.1-4.1l-0.1-10L74.2,271.2z"/>
	<path class="st18" d="M75,272.3c0.4-1.7,2-2.8,3.7-2.5l4.3,0.4c2.9,0.2,5.1,2.6,5.1,5.5l0.1,2.6c0,2.9-2.2,5.3-5.1,5.5l-4.6,0.3
		h-0.1c-1.7-0.1-3.1-1.5-3.2-3.2l0,0v-7.8C75.2,272.8,75.1,272.5,75,272.3z"/>
	<circle class="st8" cx="54.9" cy="277.9" r="14.1"/>
	<circle class="st9" cx="54.9" cy="276.7" r="14.1"/>
	<circle class="st5" cx="54.9" cy="275.4" r="14.1"/>
	<circle class="st8" cx="54.9" cy="311.9" r="14.1"/>
	<circle class="st9" cx="54.9" cy="310.7" r="14.1"/>
	<circle class="st5" cx="54.9" cy="309.4" r="14.1"/>
	<circle class="st8" cx="54.9" cy="344.5" r="14.1"/>
	<circle class="st9" cx="54.9" cy="343.3" r="14.1"/>
	<circle class="st5" cx="54.9" cy="342" r="14.1"/>
	<path class="st16" d="M72.2,305.4c0.2-2.3,2.1-4,4.4-3.8l6.4,0.5c3.3,0.3,5.9,3,6,6.3v4.5c0,3.4-2.6,6.2-5.9,6.4l-6.4,0.5h-0.3l0,0
		c-2.2,0-4.1-1.8-4.1-4.1l-0.1-10V305.4z"/>
	<path class="st12" d="M73.2,305.3L73.2,305.3c0.2-2.3,2.1-4,4.4-3.8L84,302c3.3,0.3,5.9,3,6,6.3v4.5c0,3.4-2.6,6.2-5.9,6.4
		l-6.4,0.5H77c-2.1-0.3-3.7-2.1-3.6-4.3l-0.1-9.8C73.2,305.5,73.2,305.4,73.2,305.3z"/>
	<path class="st17" d="M74.2,305.2c0.4-2.2,2.5-3.7,4.8-3.4l6.1,0.5c3.3,0.3,5.9,3,6,6.3v4.5c0,3.4-2.6,6.2-5.9,6.4l-6.4,0.5h-0.3
		l0,0c-2.2,0-4.1-1.8-4.1-4.1l-0.1-10L74.2,305.2z"/>
	<path class="st18" d="M75,306.3c0.4-1.7,2-2.8,3.7-2.5l4.3,0.4c2.9,0.2,5.1,2.6,5.1,5.5l0.1,2.6c0,2.9-2.2,5.3-5.1,5.5l-4.6,0.3
		h-0.1c-1.7-0.1-3.1-1.5-3.2-3.2l0,0V307C75.1,306.8,75.1,306.5,75,306.3z"/>
	<path class="st16" d="M72.1,339.2c0.2-2.3,2.1-4,4.4-3.8l6.4,0.5c3.3,0.3,5.9,3,6,6.3v4.5c0,3.4-2.6,6.2-5.9,6.4l-6.4,0.5h-0.3l0,0
		c-2.2,0-4.1-1.8-4.1-4.1l-0.1-10V339.2z"/>
	<path class="st12" d="M73.1,339.1L73.1,339.1c0.2-2.3,2.1-4,4.4-3.8l6.4,0.5c3.3,0.3,5.9,3,6,6.3v4.5c0,3.4-2.6,6.2-5.9,6.4
		l-6.4,0.5h-0.7c-2.1-0.3-3.7-2.1-3.6-4.3l-0.1-9.8C73.2,339.3,73.2,339.2,73.1,339.1z"/>
	<path class="st17" d="M74.1,338.9c0.4-2.2,2.5-3.7,4.8-3.4L85,336c3.3,0.3,5.9,3,6,6.3v4.5c0,3.4-2.6,6.2-5.9,6.4l-6.4,0.5h-0.3
		l0,0c-2.2,0-4.1-1.8-4.1-4.1l-0.1-10L74.1,338.9z"/>
	<path class="st18" d="M75,340.1c0.4-1.7,2-2.8,3.7-2.5L83,338c2.9,0.2,5.1,2.6,5.1,5.5l0.1,2.6c0,2.9-2.2,5.3-5.1,5.5l-4.6,0.3
		h-0.1c-1.7-0.1-3.1-1.5-3.2-3.2l0,0v-7.8C75.1,340.6,75,340.3,75,340.1z"/>
	<rect x="10" y="238.6" class="st9" width="27.5" height="137.3"/>
	<rect x="10.7" y="236.2" class="st5" width="25.5" height="143.1"/>
	<path class="st16" d="M533.7,420.5c0.2-2.3,2.1-4,4.4-3.8l6.4,0.5c3.3,0.3,5.9,3,6,6.3v4.5c0,3.4-2.6,6.2-5.9,6.4l-6.4,0.5h-0.3
		l0,0c-2.2,0-4.1-1.8-4.1-4.1l-0.1-10L533.7,420.5z"/>
	<path class="st12" d="M534.7,420.4L534.7,420.4c0.2-2.3,2.1-4,4.4-3.8l6.4,0.5c3.3,0.3,5.9,3,6,6.3v4.5c0,3.4-2.6,6.2-5.9,6.4
		l-6.4,0.5h-0.7c-2.1-0.3-3.7-2.1-3.6-4.3l-0.1-9.8C534.7,420.6,534.7,420.5,534.7,420.4z"/>
	<path class="st17" d="M535.7,420.2c0.4-2.2,2.5-3.7,4.8-3.4l6.1,0.5c3.3,0.3,5.9,3,6,6.3v4.5c0,3.4-2.6,6.2-5.9,6.4l-6.4,0.5H540
		l0,0c-2.2,0-4.1-1.8-4.1-4.1l-0.1-10L535.7,420.2z"/>
	<path class="st18" d="M536.5,421.4c0.4-1.7,2-2.8,3.7-2.5l4.3,0.4c2.9,0.2,5.1,2.6,5.1,5.5l0.1,2.6c0,2.9-2.2,5.3-5.1,5.5l-4.6,0.3
		h-0.1c-1.7-0.1-3.1-1.5-3.2-3.2l0,0v-7.8C536.6,421.8,536.6,421.6,536.5,421.4z"/>
	
		<ellipse transform="matrix(0.7204 -0.6936 0.6936 0.7204 -151.6851 477.5182)" class="st8" cx="516.4" cy="426.9" rx="14.1" ry="14.1"/>
	
		<ellipse transform="matrix(0.7204 -0.6936 0.6936 0.7204 -150.848 477.1848)" class="st9" cx="516.4" cy="425.7" rx="14.1" ry="14.1"/>
	
		<ellipse transform="matrix(0.7204 -0.6936 0.6936 0.7204 -150.0139 476.8659)" class="st5" cx="516.4" cy="424.5" rx="14.1" ry="14.1"/>
	<path class="st16" d="M502.3,431c-0.2,2.3-2.1,4-4.4,3.8l-6.4-0.5c-3.3-0.3-5.9-3-6-6.3v-4.5c0-3.4,2.6-6.2,5.9-6.4l6.4-0.5h0.3
		l0,0c2.2,0,4.1,1.8,4.1,4.1l0.1,10V431z"/>
	<path class="st12" d="M501.3,431.2L501.3,431.2c-0.2,2.3-2.1,4-4.4,3.8l-6.4-0.5c-3.3-0.3-5.9-3-6-6.3v-4.5c0-3.4,2.6-6.2,5.9-6.4
		l6.4-0.5h0.7c2.1,0.3,3.7,2.1,3.6,4.3l0.1,9.8C501.2,430.9,501.3,431.1,501.3,431.2z"/>
	<path class="st17" d="M500.3,431.3c-0.4,2.2-2.5,3.7-4.8,3.4l-6.1-0.5c-3.3-0.3-5.9-3-6-6.3v-4.5c0-3.4,2.6-6.2,5.9-6.4l6.4-0.5
		h0.3l0,0c2.2,0,4.1,1.8,4.1,4.1l0.1,10L500.3,431.3z"/>
	<path class="st18" d="M499.5,430.2c-0.4,1.7-2,2.8-3.7,2.5l-4.3-0.4c-2.9-0.2-5.1-2.6-5.1-5.5l-0.1-2.6c0-2.9,2.2-5.3,5.1-5.5
		l4.6-0.3h0.1c1.7,0.1,3.1,1.5,3.2,3.2l0,0v7.8C499.4,429.7,499.4,429.9,499.5,430.2z"/>
	<path class="st19" d="M635.9,523.6v-4.5c0.2-3.2-2.3-6-5.5-6.2h-0.5l-4,0.2c-4.2,0.3-7.4,4-7.2,8.2l0,0c-0.1,4.2,3,7.9,7.2,8.4
		l4,0.3c3.2,0.1,5.9-2.5,6-5.7l0,0v-0.2l0,0V523.6z"/>
	<path class="st20" d="M636.4,523.6v-4.5c0.2-3.2-2.3-6-5.5-6.2h-0.5l-4,0.2c-4.2,0.3-7.4,4-7.2,8.2l0,0c-0.1,4.2,3,7.9,7.2,8.4
		l4,0.3c3.2,0.1,5.9-2.5,6-5.7l0,0V523.6z"/>
	<path class="st21" d="M638.3,523.4v-4.2c0-3.1-2.5-5.7-5.6-5.7h-0.4l-4,0.2c-4,0.2-7.2,3.5-7.2,7.5l0,0c0,4,3.2,7.4,7.2,7.7l4,0.2
		c3.1,0.2,5.7-2,6-5.1l0,0V523.4L638.3,523.4z"/>
	<path class="st22" d="M633.3,513.6l-5,0.3c-4,0.2-7.2,3.5-7.2,7.5l0,0c0,4,3.2,7.4,7.2,7.7l4.9,0.3"/>
	<path class="st23" d="M665.9,479.4v67.2c0.1,1-0.7,1.9-1.7,2h-22c-0.9,0-1.7-0.8-1.7-1.8l0,0v-0.2l0,0v-67.2c-0.1-1,0.7-1.9,1.7-2
		h22C665.2,477.6,665.8,478.4,665.9,479.4z"/>
	<path class="st9" d="M667.1,479.4v67.2c0.1,1-0.7,1.9-1.7,2h-22c-0.9,0-1.7-0.8-1.7-1.8l0,0v-0.2l0,0v-67.2c-0.1-1,0.7-1.9,1.7-2
		h22C666.3,477.6,666.9,478.4,667.1,479.4z"/>
	<g id="tables-8-6">
		<path class="st5" d="M667.6,495.4v-16.5c-0.1-0.8-0.8-1.5-1.7-1.5h-11.7v18H667.6z"/>
		<path class="st5" d="M654.3,548.5H666c0.8,0.1,1.6-0.5,1.7-1.4l0,0V531h-13.3v17.5H654.3z"/>
		<rect x="654.3" y="495.4" class="st5" width="13.5" height="17.7"/>
		<path class="st5" d="M654.3,531h-12v16c0.1,0.8,0.8,1.5,1.7,1.5h10.3V531z"/>
		<rect x="642.3" y="495.4" class="st5" width="12" height="17.7"/>
		<rect x="654.3" y="513.2" class="st5" width="13.5" height="17.7"/>
		<rect x="642.3" y="513.2" class="st5" width="12" height="17.7"/>
		<path class="st5" d="M654.3,477.4H644c-0.8-0.1-1.6,0.5-1.7,1.4l0,0v0.1l0,0v16.5h12V477.4z"/>
	</g>
	<path class="st19" d="M737,414.3h-4.5c-3.2-0.2-6,2.3-6.2,5.5v0.5l0.2,4c0.3,4.2,4,7.4,8.2,7.2l0,0c4.2,0.1,7.9-3,8.4-7.2l0.3-4
		c0.1-3.2-2.5-5.9-5.7-6H737z"/>
	<path class="st20" d="M737,413.8h-4.5c-3.2-0.2-6,2.3-6.2,5.5v0.5l0.2,4c0.3,4.2,4,7.4,8.2,7.2l0,0c4.2,0.1,7.9-3,8.4-7.2l0.3-4
		c0.1-3.2-2.5-5.9-5.7-6H737z"/>
	<path class="st21" d="M736.8,411.9h-4.2c-3.1,0-5.7,2.5-5.7,5.6v0.4l0.2,4c0.2,4,3.5,7.2,7.5,7.2l0,0c4,0,7.4-3.2,7.7-7.2l0.2-4
		c0.2-3.1-2-5.7-5.1-6H736.8L736.8,411.9z"/>
	<path class="st22" d="M727,416.9l0.3,5c0.2,4,3.5,7.2,7.5,7.2l0,0c4,0,7.4-3.2,7.7-7.2l0.3-4.9"/>
	<path class="st23" d="M692.7,384.2h67.2c1-0.1,1.9,0.7,2,1.7v22c0,0.9-0.8,1.7-1.8,1.7h-67.5c-1,0.1-1.9-0.7-2-1.7v-22
		C691,385,691.8,384.3,692.7,384.2z"/>
	<path class="st9" d="M692.7,383.1h67.2c1-0.1,1.9,0.7,2,1.7v22c0,0.9-0.8,1.7-1.8,1.7h-67.5c-1,0.1-1.9-0.7-2-1.7v-22
		C691,383.9,691.8,383.2,692.7,383.1z"/>
	<g id="tables-8-6-2">
		<path class="st5" d="M708.7,382.5h-16.5c-0.8,0.1-1.5,0.8-1.5,1.7v11.7h18V382.5z"/>
		<path class="st5" d="M761.8,395.9v-11.7c0.1-0.8-0.5-1.6-1.4-1.7l0,0h-16.1v13.3h17.5V395.9z"/>
		<rect x="708.7" y="382.4" class="st5" width="17.7" height="13.5"/>
		<path class="st5" d="M744.3,395.9v12h16c0.8-0.1,1.5-0.8,1.5-1.7v-10.3H744.3z"/>
		<rect x="708.7" y="395.9" class="st5" width="17.7" height="12"/>
		<rect x="726.6" y="382.4" class="st5" width="17.7" height="13.5"/>
		<rect x="726.6" y="395.9" class="st5" width="17.7" height="12"/>
		<path class="st5" d="M690.7,395.9v10.3c-0.1,0.8,0.5,1.6,1.4,1.7l0,0h16.6v-12H690.7z"/>
	</g>
	<path class="st19" d="M605.2,449.5h-4.5c-3.2-0.2-6,2.3-6.2,5.5v0.5l0.2,4c0.3,4.2,4,7.4,8.2,7.2l0,0c4.2,0.1,7.9-3,8.4-7.2l0.3-4
		c0.1-3.2-2.5-5.9-5.7-6H605.2z"/>
	<path class="st20" d="M605.2,449h-4.5c-3.2-0.2-6,2.3-6.2,5.5v0.5l0.2,4c0.3,4.2,4,7.4,8.2,7.2l0,0c4.2,0.1,7.9-3,8.4-7.2l0.3-4
		c0.1-3.2-2.5-5.9-5.7-6H605.2z"/>
	<path class="st21" d="M605,447.1h-4.2c-3.1,0-5.7,2.5-5.7,5.6v0.4l0.2,4c0.2,4,3.5,7.2,7.5,7.2l0,0c4,0,7.4-3.2,7.7-7.2l0.2-4
		c0.2-3.1-2-5.7-5.1-6H605L605,447.1z"/>
	<path class="st22" d="M595.2,452.1l0.3,5c0.2,4,3.5,7.2,7.5,7.2l0,0c4,0,7.4-3.2,7.7-7.2l0.3-4.9"/>
	<path class="st23" d="M561,419.5h67.2c1-0.1,1.9,0.7,2,1.7v22c0,0.9-0.8,1.7-1.8,1.7H561c-1,0.1-1.9-0.7-2-1.7v-22
		C559.2,420.2,560,419.6,561,419.5z"/>
	<path class="st9" d="M561,418.3h67.2c1-0.1,1.9,0.7,2,1.7v22c0,0.9-0.8,1.7-1.8,1.7H561c-1,0.1-1.9-0.7-2-1.7v-22
		C559.2,419.1,560,418.5,561,418.3z"/>
	<g id="tables-8-6-3">
		<path class="st5" d="M576.9,417.8h-16.5c-0.8,0.1-1.5,0.8-1.5,1.7v11.7h18V417.8z"/>
		<path class="st5" d="M630,431.1v-11.7c0.1-0.8-0.5-1.6-1.4-1.7l0,0h-16.1V431L630,431.1z"/>
		<rect x="576.9" y="417.7" class="st5" width="17.7" height="13.5"/>
		<path class="st5" d="M612.5,431.1v12h16c0.8-0.1,1.5-0.8,1.5-1.7v-10.3H612.5z"/>
		<rect x="576.9" y="431.1" class="st5" width="17.7" height="12"/>
		<rect x="594.8" y="417.7" class="st5" width="17.7" height="13.5"/>
		<rect x="594.8" y="431.1" class="st5" width="17.7" height="12"/>
		<path class="st5" d="M559,431.1v10.3c-0.1,0.8,0.5,1.6,1.4,1.7l0,0H577v-12H559z"/>
	</g>
	<path class="st19" d="M508.6,524.6h-4.5c-3.2-0.2-6,2.3-6.2,5.5v0.5l0.2,4c0.3,4.2,4,7.4,8.2,7.2l0,0c4.2,0.1,7.9-3,8.4-7.2l0.3-4
		c0.1-3.2-2.5-5.9-5.7-6H508.6L508.6,524.6z"/>
	<path class="st20" d="M508.6,524.1h-4.5c-3.2-0.2-6,2.3-6.2,5.5v0.5l0.2,4c0.3,4.2,4,7.4,8.2,7.2l0,0c4.2,0.1,7.9-3,8.4-7.2l0.3-4
		c0.1-3.2-2.5-5.9-5.7-6H508.6L508.6,524.1z"/>
	<path class="st21" d="M508.4,522.2h-4.2c-3.1,0-5.7,2.5-5.7,5.6v0.4l0.2,4c0.2,4,3.5,7.2,7.5,7.2l0,0c4,0,7.4-3.2,7.7-7.2l0.2-4
		c0.2-3.1-2-5.7-5.1-6H508.4L508.4,522.2z"/>
	<path class="st22" d="M498.6,527.2l0.3,5c0.2,4,3.5,7.2,7.5,7.2l0,0c4,0,7.4-3.2,7.7-7.2l0.3-4.9"/>
	<path class="st23" d="M481.8,494.5H532c0.8,0,1.4,0.7,1.5,1.7v22c0.1,0.8-0.5,1.5-1.3,1.7h-50.4c-0.8,0-1.4-0.7-1.5-1.7v-22
		C480.4,495.4,481,494.7,481.8,494.5z"/>
	<path class="st9" d="M481.8,493.4H532c0.8,0,1.4,0.7,1.5,1.7v22c0.1,0.8-0.5,1.5-1.3,1.7h-50.4c-0.8,0-1.4-0.7-1.5-1.7v-22
		C480.4,494.2,481,493.6,481.8,493.4z"/>
	<g id="tables-8-6-4">
		<path class="st5" d="M493.7,492.8h-12.3c-0.7,0.3-1.2,0.9-1.1,1.7v11.7h13.4V492.8z"/>
		<path class="st5" d="M533.4,506.2v-11.7c0.1-0.7-0.3-1.5-1-1.7h-12v13.3h13V506.2z"/>
		<rect x="493.7" y="492.7" class="st5" width="13.3" height="13.5"/>
		<path class="st5" d="M520.3,506.2v12h12c0.7-0.3,1.2-0.9,1.1-1.7v-10.3H520.3z"/>
		<rect x="493.7" y="506.2" class="st5" width="13.3" height="12"/>
		<rect x="507.1" y="492.7" class="st5" width="13.3" height="13.5"/>
		<rect x="507.1" y="506.2" class="st5" width="13.3" height="12"/>
		<path class="st5" d="M480.3,506.2v10.3c-0.1,0.7,0.3,1.5,1,1.7h12.4v-12H480.3z"/>
	</g>
	<path class="st19" d="M500.2,486h4.5c3.2,0.2,6-2.3,6.2-5.5V480l-0.2-4c-0.3-4.2-4-7.4-8.2-7.2l0,0c-4.2-0.1-7.9,3-8.4,7.2l-0.3,4
		c-0.1,3.2,2.5,5.9,5.7,6H500.2L500.2,486z"/>
	<path class="st20" d="M500.2,486.5h4.5c3.2,0.2,6-2.3,6.2-5.5v-0.5l-0.2-4c-0.3-4.2-4-7.4-8.2-7.2l0,0c-4.2-0.1-7.9,3-8.4,7.2
		l-0.3,4c-0.1,3.2,2.5,5.9,5.7,6H500.2L500.2,486.5z"/>
	<path class="st21" d="M500.4,488.4h4.2c3.1,0,5.7-2.5,5.7-5.6v-0.4l-0.2-4c-0.2-4-3.5-7.2-7.5-7.2l0,0c-4,0-7.4,3.2-7.7,7.2l-0.2,4
		c-0.2,3.1,2,5.7,5.1,6H500.4z"/>
	<path class="st22" d="M510.2,483.4l-0.3-5c-0.2-4-3.5-7.2-7.5-7.2l0,0c-4,0-7.4,3.2-7.7,7.2l-0.3,4.9"/>
</g>
<g id="outline">
	<polygon class="st24" points="96.2,91.5 96.2,238.6 10,238.6 10,376.9 96.2,376.9 96.2,531.3 303.4,531.3 303.4,578.7 330.1,578.7 
		330.1,578.7 693.7,578.7 693.7,497.2 1217.6,497.2 1217.6,120.3 809.9,120.3 809.9,53.4 766.5,10 717.1,10 677.9,50 333,50 
		333,91.6 	"/>
	<line class="st25" x1="96.2" y1="238.6" x2="96.2" y2="286.9"/>
	<polyline class="st25" points="96.2,335.8 96.2,381.4 96.2,362 142,362 	"/>
	<polyline class="st25" points="171.9,361.6 305.6,361.6 305.6,335.8 305.6,422.9 305.6,416.5 313.1,416.5 	"/>
	<line class="st25" x1="305.6" y1="422.9" x2="305.6" y2="426.6"/>
	<polyline class="st25" points="305.6,453.2 305.6,536.1 305.6,514.8 305.6,457.6 313.1,457.6 	"/>
	<polyline class="st25" points="305.6,361.6 418.9,361.6 360.6,361.6 360.6,422.9 360.6,415.8 344.9,415.8 	"/>
	<line class="st25" x1="345.2" y1="456.5" x2="360.2" y2="456.5"/>
	<polyline class="st25" points="456.6,361.6 577.7,361.6 528.4,361.6 528.4,343.4 	"/>
	<polyline class="st25" points="464.5,383.7 478.7,417.7 478.7,576.9 478.7,456.5 556,456.5 556,361.6 556,578.7 	"/>
	<line class="st25" x1="478.7" y1="464" x2="426.3" y2="464"/>
	<polyline class="st25" points="616.5,361.6 703.6,361.6 683.4,361.6 683.4,331.2 683.4,407.9 675.6,411.3 675.6,421.8 	"/>
	<polyline class="st25" points="674.8,444.9 674.8,454.7 692.4,460.3 692.4,497.2 692.4,507.7 	"/>
	<polyline class="st25" points="681.5,285.4 681.5,45.8 681.5,122.6 739.5,122.6 	"/>
	<line class="st25" x1="681.5" y1="256" x2="772.3" y2="256"/>
	<polyline class="st25" points="809.9,120.3 783.5,120.3 783.5,133.2 790.2,146.3 813.9,146.3 813.9,256 805.2,256 	"/>
	<polyline class="st25" points="526.9,298.5 526.9,50 333,50 333,91.6 305.6,91.6 305.6,120.3 	"/>
	<polyline class="st25" points="305.6,141.4 305.6,285.4 305.6,264.2 318.6,264.2 	"/>
	<polyline class="st25" points="333,91.6 333,114.4 356.8,114.4 356.8,120.3 	"/>
	<polyline class="st25" points="356.8,141.4 356.8,265.1 342.8,265.1 421.1,265.1 421.1,256 	"/>
	<path class="st25" d="M449.6,265.1L449.6,265.1z"/>
	<line class="st25" x1="449.6" y1="256" x2="449.6" y2="265.1"/>
	<line class="st25" x1="305.6" y1="151.1" x2="313.1" y2="151.1"/>
	<polyline class="st25" points="342.8,151.1 356.8,151.1 356.8,210.5 342.8,210.5 	"/>
	<line class="st25" x1="316.7" y1="210.5" x2="305.6" y2="210.5"/>
	<polyline class="st25" points="798.7,361.1 810.3,361.1 810.3,497.2 	"/>
	<line class="st25" x1="526.9" y1="265.1" x2="536" y2="265.1"/>
	<polyline class="st25" points="595.6,265.1 606.2,265.1 606.2,138.1 	"/>
	<line class="st25" x1="681.5" y1="264.2" x2="671.6" y2="264.2"/>
	<polyline class="st25" points="478.7,430.6 439.5,430.6 439.5,437.1 	"/>
	<line class="st25" x1="439.5" y1="452" x2="439.5" y2="464"/>
</g>
<g id="icons_and_labels">
	<text transform="matrix(1 0 0 1 766.578 217.526)" class="st26 st27 st28">Printer</text>
	<circle class="st29" cx="783.5" cy="179.1" r="24.8"/>
	<g id="Outline_Icons-6-3">
		<g id="Outline_Icons-7">
			<path class="st30" d="M777.8,184h-2.5c-0.9-0.1-1.6-0.8-1.7-1.7v-5.4c0.1-0.9,0.8-1.6,1.7-1.7h16.8c0.9,0.1,1.6,0.8,1.7,1.7v5.4
				c-0.1,0.9-0.8,1.6-1.7,1.7h-2.5"/>
			<polyline class="st30" points="777.8,173.4 777.8,170 786.7,170 789.2,172.5 789.2,173.4 			"/>
			<rect x="777.8" y="181.4" class="st30" width="11.4" height="7.1"/>
			<circle class="st30" cx="776.1" cy="177.7" r="0.8"/>
			<line class="st30" x1="779.6" y1="183.1" x2="787.5" y2="183.1"/>
			<line class="st30" x1="779.6" y1="184.8" x2="787.5" y2="184.8"/>
			<line class="st30" x1="779.6" y1="186.5" x2="787.5" y2="186.5"/>
			<polyline class="st30" points="786.7,170 786.7,172.5 789.2,172.5 			"/>
		</g>
	</g>
	<g id="Outline_Icons-6-4">
		<text transform="matrix(1 0 0 1 413.667 191.534)" class="st26 st27 st31">Kitchen</text>
		<circle class="st29" cx="433.8" cy="152.4" r="25.9"/>
		<g id="Outline_Icons-2-2">
			<path class="st30" d="M442.7,147.3c-1.7,0-3.2-1.1-3.7-2.7c-0.7,0.4-1.5,0.7-2.3,0.7c-2.2,0-3.9-1.8-4-4V141
				c-6.3,1.1-10.5,7-9.4,13.3s7,10.5,13.3,9.4s10.5-7,9.4-13.3c-0.2-1.3-0.7-2.5-1.2-3.6C444.1,147.1,443.4,147.3,442.7,147.3z"/>
			<circle class="st30" cx="430.7" cy="149.2" r="2"/>
			<circle class="st30" cx="437.7" cy="154.2" r="1"/>
			<circle class="st30" cx="431.7" cy="157.3" r="2"/>
			<circle class="st30" cx="438.7" cy="150.2" r="0.5"/>
			<circle class="st30" cx="426.7" cy="153.3" r="0.5"/>
			<circle class="st30" cx="437.7" cy="159.2" r="0.5"/>
		</g>
	</g>
	<circle class="st29" cx="744" cy="66.1" r="24.8"/>
	<text transform="matrix(1 0 0 1 730.637 105.366)" class="st26 st27 st32">Stairs</text>
	<g id="Outline_Icons-9-2-2">
		<line class="st30" x1="733.6" y1="74.8" x2="752.6" y2="74.8"/>
		<polyline class="st30" points="749.3,74.8 749.3,71.4 745.9,71.4 745.9,68.1 742.6,68.1 742.6,64.8 739.3,64.8 739.3,61.5 
			733.6,61.5 		"/>
		<line class="st30" x1="743.5" y1="56" x2="753.7" y2="66.2"/>
		<polyline class="st30" points="743.5,59.9 743.5,56 747.6,56 		"/>
		<polyline class="st30" points="753.7,62.1 753.7,66.2 749.5,66.2 		"/>
	</g>
	<circle class="st29" cx="560.8" cy="190.4" r="24.8"/>
	<text transform="matrix(1 0 0 1 547.463 229.648)" class="st26 st27 st32">Stairs</text>
	<g id="Outline_Icons-9-2-2-2">
		<line class="st30" x1="550.4" y1="199.1" x2="569.4" y2="199.1"/>
		<polyline class="st30" points="566.1,199.1 566.1,195.7 562.7,195.7 562.7,192.4 559.4,192.4 559.4,189 556.2,189 556.2,185.8 
			550.4,185.8 		"/>
		<line class="st30" x1="560.3" y1="180.2" x2="570.5" y2="190.5"/>
		<polyline class="st30" points="560.3,184.1 560.3,180.2 564.4,180.2 		"/>
		<polyline class="st30" points="570.5,186.4 570.5,190.5 566.3,190.5 		"/>
	</g>
	<text transform="matrix(1 0 0 1 309.179 208.24)" class="st26 st27 st33">Restroom</text>
	<circle class="st29" cx="331.4" cy="174.2" r="21.8"/>
	<g id="Outline_Icons-5-2-2">
		<path class="st34" d="M339.4,174.7c0,0.5-0.3,0.9-0.8,0.9h-4.2v-9c0-0.8,0.6-1.6,1.5-1.6h1.7c0.8,0,1.6,0.6,1.6,1.5v0.1
			L339.4,174.7z"/>
		<path class="st34" d="M327.8,183.8h8.3v-4.9l2.5-1.6v-1.6h-13.9c-0.1,2.1,1.4,3.9,3.5,4.1h0.5L327.8,183.8z"/>
		<rect x="323.7" y="173.9" class="st34" width="10.7" height="1.6"/>
		<circle class="st34" cx="337.2" cy="167.7" r="0.9"/>
	</g>
	<text transform="matrix(1 0 0 1 309.174 274.309)" class="st26 st27 st33">Restroom</text>
	<circle class="st29" cx="331.4" cy="240.3" r="21.8"/>
	<g id="Outline_Icons-5-2-2-2">
		<path class="st34" d="M339.4,240.7c0,0.5-0.3,0.9-0.8,0.9h-4.2v-9c0-0.8,0.6-1.6,1.5-1.6h1.7c0.8,0,1.6,0.6,1.6,1.5v0.1
			L339.4,240.7z"/>
		<path class="st34" d="M327.8,249.8h8.3v-4.9l2.5-1.6v-1.6h-13.9c-0.1,2.1,1.4,3.9,3.5,4.1h0.5L327.8,249.8z"/>
		<rect x="323.7" y="239.9" class="st34" width="10.7" height="1.6"/>
		<circle class="st34" cx="337.2" cy="233.8" r="0.9"/>
	</g>
	<text transform="matrix(1 0 0 1 444.619 445.56)" class="st26 st27 st7">Phone</text>
	<text transform="matrix(1 0 0 1 446.011 457.56)" class="st26 st27 st7">Booth</text>
	<g id="elevator-7-4-3">
		<g>
			<path class="st35" d="M562.6,544.3v-7.7h3.4c0.5,0,1.1,0.1,1.6,0.2c0.4,0.1,0.7,0.4,0.8,0.7c0.2,0.4,0.4,0.8,0.4,1.2
				c0,0.5-0.1,1-0.5,1.3c-0.5,0.4-1.1,0.7-1.7,0.7c0.2,0.1,0.4,0.2,0.6,0.4c0.3,0.3,0.6,0.7,0.8,1.1l1.3,2.1H568l-1-1.6
				c-0.2-0.5-0.6-0.8-0.7-1.1l-0.5-0.5c-0.1-0.1-0.4-0.1-0.5-0.2h-1.8v3.4L562.6,544.3z M563.7,539.9h2.2c0.4,0,0.7,0,1.1-0.1
				c0.2-0.1,0.5-0.3,0.6-0.5s0.2-0.5,0.2-0.7c0-0.3-0.1-0.6-0.4-0.8c-0.4-0.2-0.8-0.3-1.2-0.4h-2.4L563.7,539.9L563.7,539.9z"/>
			<path class="st35" d="M574.1,542.4l1,0.1c-0.1,0.5-0.4,1-0.8,1.3c-0.4,0.4-1,0.5-1.6,0.5c-0.7,0-1.4-0.2-1.9-0.7
				c-1-1.3-1-3.1,0-4.4c0.5-0.5,1.2-0.8,1.9-0.7c0.7,0,1.3,0.2,1.8,0.7c0.5,0.6,0.8,1.4,0.7,2.2v0.2H571c0,0.5,0.2,1,0.5,1.5
				c0.3,0.3,0.8,0.5,1.2,0.5c0.3,0,0.6-0.1,0.8-0.2C573.8,543.2,574,542.8,574.1,542.4z M571.1,540.9h3.1c0-0.9-0.7-1.7-1.6-1.7l0,0
				c-0.4,0-0.8,0.1-1.1,0.5C571.2,540,571,540.4,571.1,540.9z"/>
			<path class="st35" d="M580,542.2l1,0.1c-0.1,0.6-0.3,1.1-0.7,1.6c-0.4,0.4-1,0.6-1.6,0.6c-0.7,0-1.3-0.2-1.8-0.7
				c-0.5-0.6-0.8-1.4-0.7-2.2c0-0.5,0.1-1.1,0.2-1.6c0.2-0.5,0.5-0.8,1-1c0.4-0.2,0.9-0.3,1.3-0.4c0.5,0,1.1,0.1,1.5,0.5
				s0.6,0.8,0.7,1.3l-1,0.1c-0.1-0.3-0.3-0.6-0.5-0.8s-0.5-0.3-0.8-0.2c-0.5,0-0.9,0.2-1.2,0.5c-0.3,0.5-0.5,1-0.5,1.6
				c-0.1,0.6,0.1,1.2,0.5,1.7c0.3,0.3,0.7,0.5,1.1,0.5c0.4,0,0.7-0.1,1-0.4C579.7,543.1,579.9,542.7,580,542.2z"/>
			<path class="st35" d="M585.6,542.4l1,0.1c-0.1,0.5-0.4,1-0.8,1.3c-0.4,0.4-1,0.5-1.6,0.5c-0.7,0-1.4-0.2-1.9-0.7
				c-1-1.3-1-3.1,0-4.4c0.5-0.5,1.2-0.8,1.9-0.7c0.7,0,1.3,0.2,1.8,0.7c0.5,0.6,0.8,1.4,0.7,2.2v0.2h-4.2c0,0.5,0.2,1,0.5,1.5
				c0.3,0.3,0.8,0.5,1.2,0.5c0.3,0,0.6-0.1,0.8-0.2C585.2,543.2,585.5,542.8,585.6,542.4z M582.4,540.9h3.1c0-0.9-0.7-1.7-1.6-1.7
				c-0.4,0-0.8,0.1-1.1,0.5C582.6,540,582.4,540.4,582.4,540.9z"/>
			<path class="st35" d="M587.7,546.4v-7.7h0.8v0.7c0.2-0.2,0.5-0.4,0.7-0.6c0.3-0.2,0.6-0.2,1-0.2s0.9,0.1,1.2,0.4
				c0.4,0.3,0.7,0.7,0.8,1.1c0.2,0.5,0.3,1,0.2,1.5c0,0.5-0.1,1.1-0.4,1.6c-0.2,0.4-0.5,0.8-0.8,1.1c-0.4,0.2-0.8,0.4-1.2,0.4
				c-0.3,0-0.6-0.1-0.8-0.2c-0.2-0.1-0.5-0.3-0.6-0.5v2.8L587.7,546.4L587.7,546.4z M588.6,541.5c-0.1,0.6,0.1,1.1,0.5,1.6
				c0.3,0.3,0.7,0.5,1.1,0.5c0.4,0,0.8-0.2,1.1-0.5c0.3-0.5,0.5-1.1,0.5-1.7c0.1-0.6-0.1-1.1-0.5-1.6c-0.3-0.3-0.7-0.5-1.1-0.5
				c-0.4,0.1-0.8,0.3-1.1,0.6C588.7,540.1,588.6,540.7,588.6,541.5z"/>
			<path class="st35" d="M595.8,543.4l0.1,0.8c-0.2,0-0.5,0.1-0.7,0.1c-0.3,0-0.6,0-0.8-0.1s-0.4-0.2-0.4-0.5
				c-0.1-0.3-0.2-0.7-0.1-1.1v-3.3h-0.7v-0.7h0.7v-1.5l1-0.6v1.9h1v0.7h-1v3.7c0,0.1,0.1,0.1,0.1,0.2s0.2,0.1,0.4,0.1L595.8,543.4z"
				/>
			<path class="st35" d="M596.7,537.6v-1.1h1v1.1H596.7z M596.7,544.2v-5.6h1v5.6H596.7z"/>
			<path class="st35" d="M598.7,541.5c-0.1-0.9,0.2-1.7,0.8-2.3c0.5-0.4,1.2-0.6,1.8-0.6c0.7,0,1.4,0.2,1.9,0.7
				c0.5,0.6,0.8,1.3,0.7,2.1c0,0.6-0.1,1.2-0.4,1.7c-0.2,0.4-0.6,0.7-1,1c-0.4,0.2-0.9,0.4-1.3,0.4c-0.7,0-1.4-0.2-1.9-0.7
				C598.9,543,598.7,542.3,598.7,541.5z M599.7,541.5c-0.1,0.6,0.1,1.1,0.5,1.6c0.7,0.6,1.7,0.6,2.4,0c0.4-0.5,0.6-1.1,0.5-1.7
				c0.1-0.6-0.1-1.1-0.5-1.6c-0.7-0.6-1.7-0.6-2.4,0C599.9,540.3,599.7,540.9,599.7,541.5L599.7,541.5z"/>
			<path class="st35" d="M605.1,544.3v-5.6h0.8v0.8c0.4-0.6,1.1-1,1.8-1c0.3,0,0.7,0.1,1,0.2c0.3,0.1,0.5,0.2,0.6,0.5
				c0.1,0.2,0.2,0.5,0.2,0.7v4.5h-1v-3.6c0-0.4,0-0.7-0.1-0.8c-0.1-0.2-0.2-0.3-0.4-0.5c-0.2-0.1-0.4-0.1-0.6-0.1
				c-0.4,0-0.8,0.1-1.1,0.4c-0.3,0.4-0.5,0.9-0.5,1.5v3L605.1,544.3z"/>
		</g>
		<circle class="st36" cx="585.4" cy="509" r="23.3"/>
		<g id="Outline_Icons-8">
			<path class="st37" d="M584.6,503.6v1.5l-3.1,1c-0.6,0.1-1.1,0.7-1.1,1.3v0.5"/>
			<path class="st37" d="M587.4,503.6v1.5l3.1,1c0.6,0.1,1.1,0.7,1.1,1.3v0.5"/>
			<ellipse class="st37" cx="586" cy="500.9" rx="2.7" ry="3.3"/>
			<path class="st37" d="M588.7,500.6h-0.2c-0.9,0.2-1.7-0.3-2.1-1.1c-0.5,0.7-1.2,1.1-2.1,1.1c-0.4,0-0.7-0.1-1.1-0.2"/>
			<rect x="574.8" y="507.9" class="st37" width="21.4" height="7.5"/>
			<line class="st37" x1="577.6" y1="515.4" x2="577.6" y2="519.1"/>
			<line class="st37" x1="593.4" y1="515.4" x2="593.4" y2="519.1"/>
		</g>
	</g>
	<g id="Outline_Icons-6-5">
		<text transform="matrix(1 0 0 1 764.794 472.043)" class="st26 st27 st38">O</text>
		<text transform="matrix(1 0 0 1 773.604 472.043)" class="st26 st27 st38">f</text>
		<text transform="matrix(1 0 0 1 776.547 472.043)" class="st26 st27 st38">fice</text>
		<text transform="matrix(1 0 0 1 775.557 485.635)" class="st26 st27 st38">I</text>
		<text transform="matrix(1 0 0 1 778.704 485.635)" class="st26 st27 st38">T</text>
		<circle class="st29" cx="779.9" cy="435.5" r="24.6"/>
		<polygon class="st30" points="792.5,424.6 780,424.6 780,430.9 781.9,430.9 781.9,433.4 785.1,430.9 792.5,430.9 		"/>
		<rect x="769" y="442.2" class="st30" width="23.7" height="3.3"/>
		<polyline class="st30" points="773.4,441.2 773.4,437.9 781.5,437.9 781.5,441.2 		"/>
		<circle class="st30" cx="777.4" cy="434.9" r="1.8"/>
		<polyline class="st30" points="791.1,430.9 791.1,442.2 770.4,442.2 770.4,428.3 780,428.3 		"/>
		<line class="st30" x1="782.5" y1="426" x2="790.8" y2="426"/>
		<line class="st30" x1="782.5" y1="427.6" x2="790.8" y2="427.6"/>
		<line class="st30" x1="782.5" y1="429.4" x2="790.8" y2="429.4"/>
		<line class="st30" x1="778.3" y1="444.2" x2="783.3" y2="444.2"/>
	</g>
	<text transform="matrix(1 0 0 1 528.537 555.768)" class="st26 st27 st7">3:12</text>
	<text transform="matrix(1 0 0 1 1155.344 464.852)" class="st26 st27 st7">3:1</text>
	<text transform="matrix(1 0 0 1 321.698 399.18)" class="st26 st27 st7">3:16</text>
	<text transform="matrix(1 0 0 1 321.698 442.761)" class="st26 st27 st7">3:15</text>
	<text transform="matrix(1 0 0 1 321.699 494.641)" class="st26 st27 st7">3:14</text>
	<text transform="matrix(1 0 0 1 71.558 368.851)" class="st26 st27 st7">3:17</text>
	<circle class="st29" cx="640.8" cy="187.8" r="24.8"/>
	<text transform="matrix(1 0 0 1 627.415 227.024)" class="st26 st27 st32">Stairs</text>
	<g id="Outline_Icons-9-2-2-2_1_">
		<line class="st30" x1="630.4" y1="196.5" x2="649.4" y2="196.5"/>
		<polyline class="st30" points="646.1,196.5 646.1,193.1 642.7,193.1 642.7,189.8 639.4,189.8 639.4,186.4 636.2,186.4 
			636.2,183.2 630.4,183.2 		"/>
		<line class="st30" x1="640.3" y1="177.6" x2="650.5" y2="187.9"/>
		<polyline class="st30" points="640.3,181.5 640.3,177.6 644.4,177.6 		"/>
		<polyline class="st30" points="650.5,183.8 650.5,187.9 646.3,187.9 		"/>
	</g>
	<circle class="st29" cx="706.8" cy="149.2" r="20.1"/>
	<text transform="matrix(1 0 0 1 695.9486 180.9775)" class="st26 st27 st39">Stairs</text>
	<g id="Outline_Icons-9-2-2-2_2_">
		<line class="st30" x1="698.3" y1="156.2" x2="713.7" y2="156.2"/>
		<polyline class="st30" points="711.1,156.2 711.1,153.5 708.3,153.5 708.3,150.8 705.6,150.8 705.6,148 703,148 703,145.4 
			698.3,145.4 		"/>
		<line class="st30" x1="706.4" y1="140.9" x2="714.6" y2="149.2"/>
		<polyline class="st30" points="706.4,144.1 706.4,140.9 709.7,140.9 		"/>
		<polyline class="st30" points="714.6,145.9 714.6,149.2 711.2,149.2 		"/>
	</g>
</g>
<line class="st25" x1="361.3" y1="447.1" x2="361.3" y2="576.2"/>
<line class="st25" x1="333" y1="114.4" x2="305.6" y2="114.4"/>
</svg>
