<?xml version="1.0" encoding="utf-8"?>
<!-- Generator: Adobe Illustrator 25.2.3, SVG Export Plug-In . SVG Version: 6.00 Build 0)  -->
<svg version="1.1" id="Layer_1" xmlns="http://www.w3.org/2000/svg" xmlns:xlink="http://www.w3.org/1999/xlink" x="0px" y="0px"
	 viewBox="0 0 1235.8 710.7" style="enable-background:new 0 0 1235.8 710.7;" xml:space="preserve">
<style type="text/css">
	.st0{fill:#4196B1;}
	.st1{fill:#AAE0E4;}
	.st2{fill:#8ECCCE;}
	.st3{fill:#99B8BF;}
	.st4{opacity:0.74;fill:#575757;enable-background:new    ;}
	.st5{enable-background:new    ;}
	.st6{fill:#FFFFFF;}
	.st7{fill:none;stroke:#FFFFFF;stroke-width:6;stroke-miterlimit:10;}
	.st8{fill:none;stroke:#FFFFFF;stroke-width:3;stroke-miterlimit:10;}
	.st9{opacity:5.000000e-02;fill:#030303;enable-background:new    ;}
	.st10{fill:#B8BFC1;}
	.st11{fill:none;stroke:#DADCDC;stroke-width:0.507;stroke-miterlimit:10;}
	.st12{opacity:0.15;fill:#010101;enable-background:new    ;}
	.st13{fill:#596068;}
	.st14{fill:#9BAEB7;}
	.st15{fill:none;stroke:#7A8E93;stroke-width:1.87;stroke-linecap:round;stroke-miterlimit:10;}
	.st16{fill:none;stroke:#7A8E93;stroke-width:1.887;stroke-linecap:round;stroke-miterlimit:10;}
	.st17{opacity:5.000000e-02;fill:#040404;enable-background:new    ;}
	.st18{fill:none;stroke:#DBDDDC;stroke-width:0.175;stroke-miterlimit:10;}
	.st19{opacity:0.15;fill:#020202;enable-background:new    ;}
	.st20{fill:#596069;}
	.st21{fill:#9BAEB8;}
	.st22{fill:none;stroke:#7A8F94;stroke-linecap:round;stroke-miterlimit:10;}
	.st23{fill:#EBF1F2;}
	.st24{fill:#767E80;}
	.st25{fill:none;stroke:#7A8E93;stroke-width:0.827;stroke-miterlimit:10;}
	.st26{fill:none;stroke:#7A8E93;stroke-width:0.74;stroke-linecap:round;stroke-linejoin:round;}
	.st27{fill:#EBF2F2;}
	.st28{fill:none;stroke:#7A8E93;stroke-miterlimit:10;}
	.st29{fill:none;stroke:#FFFFFF;stroke-miterlimit:10;}
</style>
<g id="shadow">
	<polygon class="st0" points="278.6,121 278.6,162.9 43.1,162.9 43.1,604.4 250.4,604.4 250.4,635.3 278.6,635.3 278.6,647 
		639.8,647 639.8,561.2 1161.7,561.2 1161.7,189 753.1,189 753.1,120.7 710.6,79.3 660.5,79.3 617.4,121.4 	"/>
</g>
<g id="background">
	<polygon class="st1" points="274.7,102.8 274.7,144.7 39.2,144.7 39.2,586.2 246.6,586.2 246.6,617.1 274.7,617.1 274.7,628.8 
		635.9,628.8 635.9,543 1157.8,543 1157.8,170.8 749.2,170.8 749.2,102.5 706.7,61.1 656.7,61.1 613.5,103.2 	"/>
</g>
<g id="spaces">
	<polygon class="st2" points="39.2,229.3 39.2,144.7 69.3,144.7 282.9,142 282.9,310.2 270.8,310.2 270.8,420.1 290.7,420.1 
		290.7,424.4 363.1,424.4 363.1,415 485.1,415 603,415 603,381.1 635.9,381.1 635.9,628.8 274.5,628.8 274.5,617.5 246.6,617.5 
		246.6,586.3 39.2,586.3 	"/>
	<rect x="441.1" y="197.8" class="st2" width="117.2" height="128.9"/>
	<rect x="558.4" y="197.6" class="st2" width="44" height="129.1"/>
	<rect x="773.7" y="170.8" class="st2" width="106.6" height="113.7"/>
	<rect x="880.2" y="171.4" class="st2" width="277.6" height="371.6"/>
	<rect x="621.3" y="284.1" class="st2" width="258.9" height="258.9"/>
	<rect x="441.1" y="103.2" class="st3" width="160.7" height="93.6"/>
	<polygon class="st2" points="358.3,322.5 393.3,322.5 393.3,326.7 441.1,326.7 441.1,103 274.7,103 274.7,309.7 270.8,309.7 
		270.8,442 363.1,442 363.1,408.4 360.1,408.4 360.1,401.3 358.3,401.3 358.3,324.9 	"/>
	<polygon class="st2" points="601.9,103.2 613.5,103.2 656.7,61.1 706.7,61.1 749.2,102.5 749.2,169.5 773.7,169.5 773.7,283.8 
		773.7,348.9 604.2,348.9 604.2,326.7 602.4,326.7 	"/>
</g>
<g id="bookable">
	<polygon id="area-01.1.9-status" class="st4" points="461.3,414.6 602.4,414.6 602.4,415.2 635.9,415.2 635.9,628.8 461.3,628.8 	
		"/>
	<g class="st5">
		<path class="st6" d="M501.6,524.9v-7.2h2.3c0.9,0,1.5,0,1.7,0.1c0.4,0.1,0.8,0.3,1,0.7c0.3,0.4,0.4,0.8,0.4,1.4
			c0,0.4-0.1,0.8-0.2,1.1s-0.4,0.5-0.6,0.7c-0.2,0.2-0.5,0.3-0.7,0.3c-0.3,0.1-0.8,0.1-1.5,0.1h-0.9v2.7H501.6z M503.1,518.9v2h0.8
			c0.6,0,1,0,1.1-0.1s0.3-0.2,0.5-0.4s0.2-0.3,0.2-0.6c0-0.3-0.1-0.5-0.2-0.6s-0.3-0.3-0.6-0.3c-0.2,0-0.5,0-1,0H503.1z"/>
		<path class="st6" d="M509.6,524.9h-1.4v-5.2h1.3v0.7c0.2-0.3,0.4-0.6,0.6-0.7s0.4-0.2,0.6-0.2c0.3,0,0.6,0.1,0.9,0.3l-0.4,1.2
			c-0.2-0.1-0.4-0.2-0.6-0.2c-0.2,0-0.4,0.1-0.5,0.2c-0.1,0.1-0.2,0.3-0.3,0.6s-0.1,0.9-0.1,1.7V524.9z"/>
		<path class="st6" d="M511.9,522.2c0-0.5,0.1-0.9,0.3-1.3s0.5-0.8,1-1s0.9-0.3,1.4-0.3c0.8,0,1.4,0.3,1.9,0.8
			c0.5,0.5,0.8,1.2,0.8,1.9c0,0.8-0.3,1.4-0.8,2c-0.5,0.5-1.1,0.8-1.9,0.8c-0.5,0-0.9-0.1-1.4-0.3s-0.8-0.5-1-0.9
			C512,523.3,511.9,522.8,511.9,522.2z M513.3,522.3c0,0.5,0.1,0.9,0.4,1.2s0.5,0.4,0.9,0.4s0.7-0.1,0.9-0.4s0.4-0.7,0.4-1.2
			c0-0.5-0.1-0.9-0.4-1.2s-0.5-0.4-0.9-0.4s-0.7,0.1-0.9,0.4S513.3,521.8,513.3,522.3z"/>
		<path class="st6" d="M519.6,519.7v5c0,0.7,0,1.1-0.1,1.4c-0.1,0.3-0.3,0.5-0.5,0.6s-0.6,0.2-0.9,0.2c-0.1,0-0.3,0-0.4,0
			c-0.2,0-0.3-0.1-0.5-0.1l0.2-1.2c0.1,0,0.1,0,0.2,0c0.1,0,0.1,0,0.2,0c0.1,0,0.3,0,0.3-0.1c0.1-0.1,0.1-0.1,0.2-0.2s0-0.3,0-0.8
			v-4.9H519.6z M518.2,519v-1.3h1.4v1.3H518.2z"/>
		<path class="st6" d="M524.1,523.2l1.4,0.2c-0.2,0.5-0.5,0.9-0.8,1.1c-0.4,0.3-0.9,0.4-1.4,0.4c-0.9,0-1.6-0.3-2-0.9
			c-0.3-0.5-0.5-1.1-0.5-1.8c0-0.9,0.2-1.5,0.7-2c0.4-0.5,1-0.7,1.7-0.7c0.8,0,1.4,0.3,1.8,0.8c0.4,0.5,0.7,1.3,0.6,2.3h-3.4
			c0,0.4,0.1,0.7,0.3,0.9c0.2,0.2,0.5,0.3,0.8,0.3c0.2,0,0.4-0.1,0.5-0.2S524,523.5,524.1,523.2z M524.1,521.8
			c0-0.4-0.1-0.7-0.3-0.9c-0.2-0.2-0.4-0.3-0.7-0.3c-0.3,0-0.5,0.1-0.7,0.3s-0.3,0.5-0.3,0.9H524.1z"/>
		<path class="st6" d="M531.1,521.2l-1.4,0.2c0-0.3-0.1-0.5-0.3-0.6s-0.4-0.2-0.6-0.2c-0.3,0-0.6,0.1-0.8,0.4
			c-0.2,0.2-0.3,0.6-0.3,1.2c0,0.6,0.1,1,0.3,1.3s0.5,0.4,0.8,0.4c0.3,0,0.5-0.1,0.6-0.2c0.2-0.1,0.3-0.4,0.4-0.8l1.3,0.2
			c-0.1,0.6-0.4,1.1-0.8,1.4s-0.9,0.5-1.6,0.5c-0.8,0-1.4-0.2-1.8-0.7s-0.7-1.1-0.7-2c0-0.9,0.2-1.5,0.7-2c0.5-0.5,1.1-0.7,1.8-0.7
			c0.6,0,1.1,0.1,1.5,0.4C530.7,520.3,531,520.7,531.1,521.2z"/>
		<path class="st6" d="M534.6,519.7v1.1h-0.9v2.1c0,0.4,0,0.7,0,0.7c0,0.1,0.1,0.1,0.1,0.2s0.1,0.1,0.2,0.1c0.1,0,0.3,0,0.6-0.1
			l0.1,1.1c-0.3,0.1-0.7,0.2-1.1,0.2c-0.2,0-0.5,0-0.7-0.1c-0.2-0.1-0.3-0.2-0.4-0.3c-0.1-0.1-0.2-0.3-0.2-0.5c0-0.2,0-0.5,0-1v-2.3
			h-0.6v-1.1h0.6v-1l1.4-0.8v1.8H534.6z"/>
		<path class="st6" d="M538.3,524.9v-7.2h3c0.8,0,1.3,0.1,1.7,0.2c0.3,0.1,0.6,0.4,0.8,0.7s0.3,0.7,0.3,1.1c0,0.5-0.2,1-0.5,1.3
			c-0.3,0.3-0.8,0.6-1.4,0.7c0.3,0.2,0.6,0.4,0.8,0.6s0.5,0.6,0.8,1.2l0.9,1.4H543l-1-1.6c-0.4-0.6-0.6-0.9-0.8-1.1
			c-0.1-0.1-0.3-0.2-0.4-0.3c-0.2-0.1-0.4-0.1-0.7-0.1h-0.3v3H538.3z M539.7,520.7h1.1c0.7,0,1.1,0,1.3-0.1s0.3-0.2,0.4-0.3
			s0.1-0.3,0.1-0.5c0-0.2-0.1-0.4-0.2-0.6c-0.1-0.1-0.3-0.2-0.5-0.3c-0.1,0-0.5,0-1.1,0h-1.1V520.7z"/>
		<path class="st6" d="M545.2,522.2c0-0.5,0.1-0.9,0.3-1.3s0.5-0.8,1-1s0.9-0.3,1.4-0.3c0.8,0,1.4,0.3,1.9,0.8
			c0.5,0.5,0.8,1.2,0.8,1.9c0,0.8-0.3,1.4-0.8,2c-0.5,0.5-1.1,0.8-1.9,0.8c-0.5,0-0.9-0.1-1.4-0.3s-0.8-0.5-1-0.9
			C545.3,523.3,545.2,522.8,545.2,522.2z M546.6,522.3c0,0.5,0.1,0.9,0.4,1.2s0.5,0.4,0.9,0.4s0.7-0.1,0.9-0.4s0.4-0.7,0.4-1.2
			c0-0.5-0.1-0.9-0.4-1.2s-0.5-0.4-0.9-0.4s-0.7,0.1-0.9,0.4S546.6,521.8,546.6,522.3z"/>
		<path class="st6" d="M551.3,522.2c0-0.5,0.1-0.9,0.3-1.3s0.5-0.8,1-1s0.9-0.3,1.4-0.3c0.8,0,1.4,0.3,1.9,0.8
			c0.5,0.5,0.8,1.2,0.8,1.9c0,0.8-0.3,1.4-0.8,2c-0.5,0.5-1.1,0.8-1.9,0.8c-0.5,0-0.9-0.1-1.4-0.3s-0.8-0.5-1-0.9
			C551.4,523.3,551.3,522.8,551.3,522.2z M552.7,522.3c0,0.5,0.1,0.9,0.4,1.2s0.5,0.4,0.9,0.4s0.7-0.1,0.9-0.4s0.4-0.7,0.4-1.2
			c0-0.5-0.1-0.9-0.4-1.2s-0.5-0.4-0.9-0.4s-0.7,0.1-0.9,0.4S552.7,521.8,552.7,522.3z"/>
		<path class="st6" d="M557.6,519.7h1.3v0.7c0.5-0.5,1-0.8,1.6-0.8c0.3,0,0.6,0.1,0.9,0.2s0.4,0.3,0.6,0.6c0.2-0.3,0.5-0.5,0.7-0.6
			s0.5-0.2,0.8-0.2c0.4,0,0.7,0.1,1,0.2c0.3,0.2,0.5,0.4,0.6,0.7c0.1,0.2,0.1,0.6,0.1,1.1v3.3h-1.4v-3c0-0.5,0-0.8-0.1-1
			c-0.1-0.2-0.3-0.3-0.6-0.3c-0.2,0-0.4,0.1-0.5,0.2s-0.3,0.3-0.4,0.5c-0.1,0.2-0.1,0.6-0.1,1.1v2.5h-1.4V522c0-0.5,0-0.8-0.1-1
			s-0.1-0.3-0.2-0.3s-0.2-0.1-0.4-0.1c-0.2,0-0.4,0.1-0.6,0.2s-0.3,0.3-0.4,0.5s-0.1,0.6-0.1,1.1v2.5h-1.4V519.7z"/>
		<path class="st6" d="M571.2,524.9l-2.6-7.2h1.6l1.8,5.3l1.8-5.3h1.5l-2.6,7.2H571.2z"/>
		<path class="st6" d="M576.1,524.9v-7.2h3c0.8,0,1.3,0.1,1.7,0.2c0.3,0.1,0.6,0.4,0.8,0.7s0.3,0.7,0.3,1.1c0,0.5-0.2,1-0.5,1.3
			c-0.3,0.3-0.8,0.6-1.4,0.7c0.3,0.2,0.6,0.4,0.8,0.6s0.5,0.6,0.8,1.2l0.9,1.4h-1.7l-1-1.6c-0.4-0.6-0.6-0.9-0.8-1.1
			c-0.1-0.1-0.3-0.2-0.4-0.3c-0.2-0.1-0.4-0.1-0.7-0.1h-0.3v3H576.1z M577.5,520.7h1.1c0.7,0,1.1,0,1.3-0.1s0.3-0.2,0.4-0.3
			s0.1-0.3,0.1-0.5c0-0.2-0.1-0.4-0.2-0.6c-0.1-0.1-0.3-0.2-0.5-0.3c-0.1,0-0.5,0-1.1,0h-1.1V520.7z"/>
	</g>
</g>
<g id="outline">
	<polygon class="st7" points="274.7,102.8 274.7,144.7 39.2,144.7 39.2,586.3 246.6,586.3 246.6,617.2 274.7,617.2 274.7,628.8 
		635.9,628.8 635.9,543 1157.8,543 1157.8,170.8 749.2,170.8 749.2,102.5 706.7,61.1 656.7,61.1 613.5,103.2 	"/>
	<polyline class="st8" points="270.8,357 270.8,309.9 282.9,309.9 282.9,184.9 282.9,142 274.7,142 	"/>
	<polyline class="st8" points="290.7,628.8 290.7,548.8 290.7,420.1 272.2,420.1 272.2,386.9 	"/>
	<line class="st8" x1="150.7" y1="586.3" x2="163.6" y2="586.3"/>
	<line class="st8" x1="39.2" y1="482.6" x2="39.2" y2="503"/>
	<polyline class="st8" points="236.4,401.6 236.4,411.1 236.4,421.1 	"/>
	<polyline class="st8" points="236.4,330 236.4,310.6 68.8,310.6 39.2,310.6 39.2,401.1 236.4,401.1 236.4,411.1 	"/>
	<polyline class="st8" points="270.8,350.9 353.9,368.5 353.9,364.8 358.3,364.8 358.3,384.1 	"/>
	<polyline class="st8" points="282.9,193.8 282.9,312.5 362.7,312.5 	"/>
	<polyline class="st8" points="357.9,401.1 360,401.1 360,407 363.1,407 363.1,418.8 363.1,424.4 290.7,424.4 	"/>
	<polyline class="st8" points="390.5,414.6 514.8,414.6 461.3,414.6 461.3,628.8 635.9,628.8 635.9,415.2 635.9,381.1 603,381.1 
		603,414.6 542.7,414.6 	"/>
	<polyline class="st8" points="484.6,310.9 484.6,326.7 393.3,326.7 393.3,313 	"/>
	<polyline class="st8" points="602.4,103.2 602.4,197.6 558.4,197.6 558.4,326.7 561.7,326.7 512,326.7 512,311.4 	"/>
	<line class="st8" x1="576" y1="197.6" x2="476.1" y2="197.8"/>
	<polyline class="st8" points="602.4,197.6 602.4,326.7 592.8,326.7 604.7,326.7 604.7,348.9 620.7,348.9 620.7,284.5 670.7,284.5 
		728.4,284.5 728.4,271.7 	"/>
	<polyline class="st8" points="762.3,284.5 880.3,284.5 880.3,202.2 880.3,170.8 773.7,170.8 773.7,222.4 	"/>
	<polyline class="st8" points="880.3,284.5 880.3,334.5 880.3,313 961.8,313 	"/>
	<polyline class="st8" points="990.8,312.5 1157.8,312.5 1157.8,393.7 1081.3,393.7 	"/>
	<polyline class="st8" points="880.3,363.2 880.3,449 880.3,393.7 1052.5,393.7 1035.6,393.7 1035.6,543 880.3,543 880.3,475.3 	"/>
	<polyline class="st8" points="281.8,217 357.5,217 357.5,225.3 	"/>
	<polyline class="st8" points="281.8,259.6 357.5,259.6 357.5,241.7 357.5,264.3 	"/>
	<polyline class="st8" points="357.5,284.5 357.5,312.5 357.5,335 	"/>
	<line class="st8" x1="441.1" y1="325.6" x2="441.1" y2="103"/>
	<line class="st8" x1="476.1" y1="197.8" x2="441.1" y2="197.8"/>
	<line class="st8" x1="773.7" y1="253.8" x2="773.7" y2="284.5"/>
</g>
<g id="furniture">
	<g id="tables_copy_3">
		<path class="st9" d="M318.5,504.4h73.8c2.1,0,3.8,1.7,3.9,3.8c0,0,0,0,0,0.1v41.1c0,2.1-1.7,3.8-3.8,3.9c0,0,0,0-0.1,0h-73.8
			c-2.1,0-3.8-1.7-3.9-3.8c0,0,0,0,0-0.1v-41.1C314.7,506.2,316.4,504.5,318.5,504.4L318.5,504.4z"/>
		<path class="st10" d="M318.5,502.3h73.8c2.1,0,3.8,1.7,3.9,3.8c0,0,0,0,0,0.1v41.1c0,2.1-1.7,3.8-3.8,3.9c0,0,0,0-0.1,0h-73.8
			c-2.1,0-3.8-1.7-3.9-3.8c0,0,0,0,0-0.1v-41.1C314.7,504,316.4,502.3,318.5,502.3L318.5,502.3z"/>
		<path id="table-23" class="st6" d="M354.7,500.9H318c-1.8,0-3.4,1.4-3.4,3.3v0.1v22.4h40.1V500.9z"/>
		<path id="table-24" class="st6" d="M396.3,526.8v-22.4c0-1.8-1.4-3.4-3.3-3.4h-0.1h-38.6v25.8H396.3z"/>
		<path id="table-25" class="st6" d="M354.2,526.8v23.1h38.6c1.8,0,3.4-1.4,3.4-3.3v-0.1v-19.7H354.2z"/>
		<path id="table-26" class="st6" d="M314.7,526.8v19.7c0,1.8,1.4,3.4,3.3,3.4h0.1h36.7v-23.1L314.7,526.8L314.7,526.8z"/>
		<line class="st11" x1="354.7" y1="500.9" x2="354.7" y2="549.9"/>
		<line class="st11" x1="314.7" y1="526.8" x2="396.3" y2="526.8"/>
	</g>
	<g id="chairs_copy_3">
		<path class="st12" d="M336.9,557.6h-4.4c-3.2-0.2-6,2.3-6.1,5.5l0,0v0.3l0.2,4.1c0.4,4.1,3.9,7.3,8,7.1l0,0c4.2,0.2,7.7-2.9,8.2-7
			l0.2-4.1c0-3.2-2.5-5.9-5.8-6L336.9,557.6z"/>
		<path class="st13" d="M336.9,557h-4.4c-3.2-0.2-6,2.3-6.1,5.6l0,0v0.3l0.2,4.1c0.4,4.1,3.9,7.3,8,7.1l0,0c4.2,0.2,7.7-2.9,8.2-7
			l0.2-4.1c0-3.2-2.5-5.9-5.8-6L336.9,557L336.9,557z"/>
		<path class="st14" d="M336.8,555.2h-4.1c-3.1,0-5.6,2.5-5.7,5.6l0,0v0.2l0.2,4.1c0.2,4,3.5,7.1,7.5,7.1l0,0c4,0,7.2-3.1,7.5-7
			l0.2-4.1c0.2-3.1-2.2-5.7-5.3-5.9c0,0,0,0-0.1,0L336.8,555.2L336.8,555.2z"/>
		<path class="st15" d="M327,560.2l0.3,4.9c0.2,4,3.5,7.1,7.5,7.1l0,0c4,0,7.2-3.1,7.5-7l0.3-4.9"/>
		<path class="st12" d="M377.7,557.6h-4.4c-3.2-0.2-6,2.3-6.1,5.5l0,0v0.3l0.2,4.1c0.4,4.1,3.9,7.3,8,7.1l0,0c4.2,0.2,7.7-2.9,8.2-7
			l0.2-4.1c0-3.2-2.5-5.9-5.8-6L377.7,557.6z"/>
		<path class="st13" d="M377.7,557h-4.4c-3.2-0.2-6,2.3-6.1,5.5l0,0v0.3l0.2,4.1c0.4,4.1,3.9,7.3,8,7.1l0,0c4.1,0.2,7.7-2.9,8.2-7
			l0.2-4.1c0-3.2-2.5-5.9-5.8-6L377.7,557L377.7,557z"/>
		<path class="st14" d="M377.4,555.2h-4.1c-3.1,0-5.6,2.5-5.7,5.6l0,0v0.2l0.2,4.1c0.2,4,3.5,7.1,7.5,7.1l0,0c4,0,7.2-3.1,7.5-7
			l0.2-4.1c0.2-3-2.1-5.7-5.1-5.9c-0.1,0-0.1,0-0.2,0L377.4,555.2z"/>
		<path class="st15" d="M367.7,560.2l0.3,4.9c0.2,4,3.5,7.1,7.5,7.1l0,0c4,0,7.3-3.1,7.5-7l0.3-4.9"/>
		<path class="st12" d="M336.2,499.5l-4.1-0.1c-3.2-0.1-5.6-2.7-5.6-5.9l0,0v-0.2l0.3-4.1c0.3-4,3.7-7.1,7.7-7l0,0
			c4,0.1,7.3,3.3,7.4,7.4l0.1,4.1c0.1,3.1-2.2,5.6-5.3,5.8c-0.1,0-0.2,0-0.3,0L336.2,499.5z"/>
		<path class="st13" d="M336.2,498.8l-4.1-0.1c-3.2-0.1-5.6-2.7-5.6-5.9l0,0l0,0v-0.2l0.3-4.1c0.3-4,3.7-7,7.7-6.9l0,0
			c4,0.1,7.3,3.3,7.4,7.4l0.1,4.1c0.1,3.1-2.4,5.7-5.6,5.8L336.2,498.8z"/>
		<path class="st14" d="M336.2,498l-4.1-0.1c-3.2-0.1-5.6-2.7-5.6-5.9l0,0l0,0v-0.3l0.3-4.1c0.3-4,3.7-7,7.7-6.9l0,0
			c4,0.1,7.3,3.3,7.4,7.4l0.1,4.1c0.1,3.1-2.4,5.7-5.6,5.8C336.5,498,336.3,498,336.2,498z"/>
		<path class="st16" d="M326.5,492.5l0.5-4.9c0.3-4,3.7-7,7.7-6.9l0,0c4,0.1,7.3,3.3,7.4,7.4l0.2,4.9"/>
		<path class="st12" d="M376.7,499.5l-4.1-0.1c-3.2-0.1-5.6-2.7-5.6-5.9l0,0v-0.2l0.3-4.1c0.3-4,3.7-7,7.7-6.9l0,0
			c4,0.1,7.3,3.3,7.4,7.4l0.1,4.1c0.1,3.1-2.2,5.6-5.3,5.8c-0.1,0-0.2,0-0.3,0L376.7,499.5z"/>
		<path class="st13" d="M376.7,498.9l-4.1-0.1c-3.2-0.1-5.6-2.7-5.6-5.9l0,0l0,0v-0.2l0.3-4.1c0.3-4,3.7-7,7.7-6.9l0,0
			c4,0.1,7.3,3.3,7.4,7.4l0.1,4.1c0.1,3.1-2.3,5.7-5.4,5.8H377L376.7,498.9z"/>
		<path class="st14" d="M376.7,498.1l-4.1-0.1c-3.2-0.1-5.6-2.7-5.6-5.9l0,0l0,0v-0.3l0.3-4.1c0.3-4,3.7-7,7.7-6.9l0,0
			c4,0.1,7.3,3.3,7.4,7.4l0.1,4.1c0.1,3.1-2.3,5.7-5.4,5.8H377C376.9,498,376.8,498.1,376.7,498.1z"/>
		<path class="st16" d="M366.9,492.7l0.5-4.9c0.3-4,3.7-7,7.7-6.9l0,0c4,0.1,7.3,3.3,7.4,7.4l0.2,4.9"/>
	</g>
	<path class="st17" d="M453.1,449.7V585c0.3,1.4-0.2,2.9-1.3,3.9h-16.3c-0.9-0.3-1.4-1.9-1.3-3.9V449.7c-0.3-1.4,0.2-2.9,1.3-3.9
		h16.2C452.5,446.1,453.1,447.7,453.1,449.7z"/>
	<path class="st10" d="M453.8,449.7V585c0.3,1.4-0.2,2.9-1.3,3.9h-16.3c-0.9-0.3-1.4-1.9-1.3-3.9V449.7c-0.3-1.4,0.2-2.9,1.3-3.9
		h16.3C453.7,446.8,454.2,448.3,453.8,449.7z"/>
	<g id="tables-8-5">
		<path class="st6" d="M454.3,482v-33c0-1.7-0.5-3.2-1.3-3.2h-8.6V482H454.3z"/>
		<path class="st6" d="M444.3,589.2h8.6c0.7,0,1.3-1.4,1.3-3.2v-32.2h-10.1v35.4H444.3z"/>
		<rect x="444.3" y="482" class="st6" width="10.1" height="35.8"/>
		<path class="st6" d="M444.3,553.8h-9V586c0,1.7,0.5,3.2,1.3,3.2h7.7V553.8z"/>
		<rect x="435.3" y="482" class="st6" width="9" height="35.8"/>
		<rect x="444.3" y="517.9" class="st6" width="10.1" height="35.8"/>
		<rect x="435.3" y="517.9" class="st6" width="9" height="35.8"/>
		<path class="st6" d="M444.3,445.8h-7.7c-0.7,0-1.3,1.4-1.3,3.2l0,0v33h9V445.8L444.3,445.8z"/>
	</g>
	<line class="st18" x1="454.3" y1="494.2" x2="435.4" y2="494.2"/>
	<line class="st18" x1="454.3" y1="542.1" x2="435.4" y2="542.1"/>
	<path class="st19" d="M432.8,487.6v-4.8c0.2-3.4-2.4-6.4-5.9-6.6h-0.5l-4.3,0.2c-4.5,0.4-7.9,4.2-7.7,8.8l0,0
		c-0.1,4.5,3.2,8.4,7.7,9l4.3,0.3c3.4,0.1,6.3-2.7,6.4-6.1l0,0v-0.2l0,0V487.6z"/>
	<path class="st20" d="M433.4,487.6v-4.8c0.2-3.4-2.4-6.4-5.9-6.6H427l-4.3,0.2c-4.5,0.4-7.9,4.2-7.7,8.8l0,0
		c-0.1,4.5,3.2,8.4,7.7,9l4.3,0.3c3.4,0.1,6.3-2.7,6.4-6.1l0,0V487.6L433.4,487.6z"/>
	<path class="st21" d="M435.4,487.4v-4.5c0-3.3-2.7-6.1-6-6.1H429l-4.3,0.2c-4.3,0.2-7.7,3.7-7.7,8l0,0c0.1,4.3,3.4,7.9,7.7,8.2
		l4.3,0.2c3.3,0.2,6.1-2.2,6.4-5.5l0,0V487.4L435.4,487.4z"/>
	<path class="st22" d="M430.1,476.7l-5.3,0.3c-4.3,0.2-7.7,3.7-7.7,8l0,0c0.1,4.3,3.4,7.9,7.7,8.2l5.2,0.3"/>
	<path class="st19" d="M432.8,522.5v-4.8c0.2-3.4-2.4-6.4-5.9-6.6h-0.5l-4.3,0.2c-4.5,0.4-7.9,4.3-7.7,8.8l0,0
		c-0.1,4.5,3.2,8.4,7.7,9l4.3,0.3c3.4,0.1,6.3-2.7,6.4-6.1l0,0V523l0,0V522.5z"/>
	<path class="st20" d="M433.4,522.5v-4.8c0.2-3.4-2.4-6.4-5.9-6.6H427l-4.3,0.2c-4.5,0.4-7.9,4.3-7.7,8.8l0,0
		c-0.1,4.5,3.2,8.4,7.7,9l4.3,0.3c3.4,0.1,6.3-2.7,6.4-6.1l0,0V522.5L433.4,522.5z"/>
	<path class="st21" d="M435.4,522.3v-4.5c0-3.3-2.7-6.1-6-6.1H429l-4.3,0.2c-4.3,0.2-7.7,3.7-7.7,8l0,0c0.1,4.3,3.4,7.9,7.7,8.2
		l4.3,0.2c3.3,0.2,6.1-2.2,6.4-5.5l0,0V522.3L435.4,522.3z"/>
	<path class="st22" d="M430.1,511.8l-5.3,0.3c-4.3,0.2-7.7,3.7-7.7,8l0,0c0.1,4.3,3.4,7.9,7.7,8.2l5.2,0.3"/>
	<path class="st19" d="M432.8,559v-4.8c0.2-3.4-2.4-6.4-5.9-6.6h-0.5l-4.3,0.2c-4.5,0.4-7.9,4.2-7.7,8.8l0,0c-0.1,4.5,3.2,8.4,7.7,9
		l4.3,0.3c3.4,0.1,6.3-2.7,6.4-6.1l0,0v-0.2l0,0V559z"/>
	<path class="st20" d="M433.4,559v-4.8c0.2-3.4-2.4-6.4-5.9-6.6H427l-4.3,0.2c-4.5,0.4-7.9,4.2-7.7,8.8l0,0c-0.1,4.5,3.2,8.4,7.7,9
		l4.3,0.3c3.4,0.1,6.3-2.7,6.4-6.1l0,0V559L433.4,559z"/>
	<path class="st21" d="M435.4,559v-4.5c0-3.3-2.7-6.1-6-6.1H429l-4.3,0.2c-4.3,0.2-7.7,3.7-7.7,8l0,0c0.1,4.3,3.4,7.9,7.7,8.2
		l4.3,0.2c3.3,0.2,6.1-2.2,6.4-5.5l0,0V559L435.4,559z"/>
	<path class="st22" d="M430.1,548.3l-5.3,0.3c-4.3,0.2-7.7,3.7-7.7,8l0,0c0.1,4.3,3.4,7.9,7.7,8.2l5.2,0.3"/>
</g>
<g id="icons">
	<ellipse class="st23" cx="579.7" cy="265.3" rx="18.5" ry="18.5"/>
	<g class="st5">
		<path class="st24" d="M570.1,292.6l0.8-0.1c0,0.3,0.1,0.6,0.3,0.8c0.1,0.2,0.3,0.4,0.6,0.5c0.3,0.1,0.6,0.2,0.9,0.2
			c0.3,0,0.6,0,0.8-0.1c0.2-0.1,0.4-0.2,0.5-0.4s0.2-0.3,0.2-0.5c0-0.2-0.1-0.4-0.2-0.5s-0.3-0.3-0.6-0.4c-0.2-0.1-0.5-0.2-1.1-0.3
			c-0.6-0.1-1-0.3-1.2-0.4c-0.3-0.2-0.5-0.3-0.7-0.6s-0.2-0.5-0.2-0.8c0-0.3,0.1-0.6,0.3-0.9c0.2-0.3,0.4-0.5,0.8-0.6
			c0.3-0.1,0.7-0.2,1.1-0.2c0.5,0,0.9,0.1,1.2,0.2s0.6,0.4,0.8,0.6c0.2,0.3,0.3,0.6,0.3,1l-0.8,0.1c0-0.4-0.2-0.7-0.4-0.9
			c-0.2-0.2-0.6-0.3-1.1-0.3c-0.5,0-0.8,0.1-1.1,0.3s-0.3,0.4-0.3,0.7c0,0.2,0.1,0.4,0.2,0.5c0.2,0.1,0.6,0.3,1.2,0.4
			c0.7,0.1,1.1,0.3,1.4,0.4c0.4,0.2,0.6,0.4,0.8,0.6c0.2,0.3,0.3,0.5,0.3,0.9c0,0.3-0.1,0.6-0.3,0.9c-0.2,0.3-0.5,0.5-0.8,0.7
			c-0.4,0.2-0.7,0.2-1.2,0.2c-0.6,0-1-0.1-1.4-0.2c-0.4-0.2-0.7-0.4-0.9-0.7C570.2,293.4,570.1,293,570.1,292.6z"/>
		<path class="st24" d="M577.7,293.9l0.1,0.7c-0.2,0-0.4,0.1-0.6,0.1c-0.3,0-0.5,0-0.6-0.1c-0.2-0.1-0.3-0.2-0.3-0.3
			c-0.1-0.1-0.1-0.4-0.1-0.9v-2.6h-0.6v-0.6h0.6V289l0.7-0.5v1.6h0.8v0.6h-0.8v2.6c0,0.2,0,0.4,0,0.4c0,0.1,0.1,0.1,0.1,0.1
			s0.1,0.1,0.3,0.1C577.4,293.9,577.5,293.9,577.7,293.9z"/>
		<path class="st24" d="M581.3,294c-0.3,0.2-0.5,0.4-0.8,0.5c-0.3,0.1-0.5,0.1-0.8,0.1c-0.5,0-0.9-0.1-1.1-0.4
			c-0.3-0.2-0.4-0.5-0.4-0.9c0-0.2,0-0.4,0.1-0.6c0.1-0.2,0.2-0.3,0.4-0.4c0.2-0.1,0.3-0.2,0.5-0.2c0.1,0,0.4-0.1,0.7-0.1
			c0.6-0.1,1.1-0.2,1.3-0.3c0-0.1,0-0.2,0-0.2c0-0.3-0.1-0.5-0.2-0.6c-0.2-0.2-0.5-0.3-0.9-0.3c-0.4,0-0.6,0.1-0.8,0.2
			c-0.2,0.1-0.3,0.3-0.4,0.7l-0.7-0.1c0.1-0.3,0.2-0.6,0.3-0.8c0.2-0.2,0.4-0.3,0.7-0.4s0.6-0.2,1-0.2c0.4,0,0.7,0,0.9,0.1
			c0.2,0.1,0.4,0.2,0.5,0.3c0.1,0.1,0.2,0.3,0.2,0.5c0,0.1,0,0.4,0,0.7v1c0,0.7,0,1.1,0,1.3c0,0.2,0.1,0.4,0.2,0.5h-0.8
			C581.4,294.4,581.3,294.2,581.3,294z M581.2,292.3c-0.3,0.1-0.7,0.2-1.2,0.3c-0.3,0-0.5,0.1-0.7,0.2c-0.1,0.1-0.2,0.1-0.3,0.2
			c-0.1,0.1-0.1,0.2-0.1,0.4c0,0.2,0.1,0.4,0.2,0.5c0.2,0.1,0.4,0.2,0.7,0.2c0.3,0,0.5-0.1,0.8-0.2c0.2-0.1,0.4-0.3,0.5-0.5
			c0.1-0.2,0.1-0.4,0.1-0.8V292.3z"/>
		<path class="st24" d="M583.2,289.3v-0.9h0.8v0.9H583.2z M583.2,294.6v-4.4h0.8v4.4H583.2z"/>
		<path class="st24" d="M585.1,294.6v-4.4h0.7v0.7c0.2-0.3,0.3-0.5,0.5-0.6s0.3-0.2,0.5-0.2c0.3,0,0.5,0.1,0.8,0.2l-0.3,0.7
			c-0.2-0.1-0.4-0.2-0.6-0.2c-0.2,0-0.3,0-0.4,0.1c-0.1,0.1-0.2,0.2-0.3,0.4c-0.1,0.3-0.1,0.6-0.1,0.9v2.3H585.1z"/>
		<path class="st24" d="M587.6,293.2l0.7-0.1c0,0.3,0.2,0.5,0.3,0.7c0.2,0.2,0.5,0.2,0.8,0.2c0.3,0,0.6-0.1,0.8-0.2
			c0.2-0.1,0.3-0.3,0.3-0.5c0-0.2-0.1-0.3-0.2-0.4c-0.1-0.1-0.4-0.2-0.8-0.3c-0.6-0.1-0.9-0.3-1.1-0.4s-0.4-0.2-0.5-0.4
			c-0.1-0.2-0.2-0.4-0.2-0.6c0-0.2,0-0.4,0.1-0.5s0.2-0.3,0.4-0.4c0.1-0.1,0.3-0.2,0.5-0.2c0.2-0.1,0.4-0.1,0.7-0.1
			c0.3,0,0.7,0,0.9,0.2c0.3,0.1,0.5,0.2,0.6,0.4c0.1,0.2,0.2,0.4,0.3,0.7l-0.7,0.1c0-0.2-0.1-0.4-0.3-0.5c-0.2-0.1-0.4-0.2-0.7-0.2
			c-0.3,0-0.6,0.1-0.7,0.2s-0.2,0.2-0.2,0.4c0,0.1,0,0.2,0.1,0.3c0.1,0.1,0.2,0.1,0.3,0.2c0.1,0,0.3,0.1,0.7,0.2
			c0.5,0.1,0.9,0.3,1.1,0.3c0.2,0.1,0.4,0.2,0.5,0.4c0.1,0.2,0.2,0.4,0.2,0.6c0,0.3-0.1,0.5-0.2,0.7s-0.4,0.4-0.6,0.5
			c-0.3,0.1-0.6,0.2-0.9,0.2c-0.6,0-1-0.1-1.3-0.4C587.9,294.1,587.7,293.7,587.6,293.2z"/>
	</g>
	<g id="Outline_Icons-9-2">
		<line class="st25" x1="571.9" y1="271.7" x2="586.1" y2="271.7"/>
		<polyline class="st25" points="583.6,271.7 583.6,269.2 581.1,269.2 581.1,266.8 578.6,266.8 578.6,264.3 576.2,264.3 
			576.2,261.9 571.9,261.9 		"/>
		<line class="st25" x1="579.3" y1="257.7" x2="587" y2="265.3"/>
		<polyline class="st25" points="579.3,260.6 579.3,257.7 582.4,257.7 		"/>
		<polyline class="st25" points="587,262.3 587,265.3 583.8,265.3 		"/>
	</g>
	<g class="st5">
		<path class="st24" d="M310.9,304.2v-5.4h2.4c0.5,0,0.8,0,1.1,0.1c0.2,0.1,0.4,0.3,0.6,0.5s0.2,0.5,0.2,0.8c0,0.4-0.1,0.7-0.4,1
			c-0.2,0.3-0.6,0.4-1.1,0.5c0.2,0.1,0.3,0.2,0.4,0.3c0.2,0.2,0.4,0.4,0.6,0.7l0.9,1.5h-0.9l-0.7-1.1c-0.2-0.3-0.4-0.6-0.5-0.7
			c-0.1-0.2-0.3-0.3-0.4-0.4s-0.2-0.1-0.3-0.1c-0.1,0-0.2,0-0.4,0h-0.8v2.4H310.9z M311.6,301.2h1.5c0.3,0,0.6,0,0.8-0.1
			s0.3-0.2,0.4-0.3c0.1-0.1,0.1-0.3,0.1-0.5c0-0.3-0.1-0.5-0.3-0.6c-0.2-0.2-0.5-0.2-0.9-0.2h-1.7V301.2z"/>
		<path class="st24" d="M318.9,303l0.7,0.1c-0.1,0.4-0.3,0.7-0.6,0.9c-0.3,0.2-0.7,0.3-1.1,0.3c-0.6,0-1-0.2-1.4-0.5
			c-0.3-0.4-0.5-0.8-0.5-1.5c0-0.7,0.2-1.2,0.5-1.5c0.3-0.4,0.8-0.5,1.3-0.5c0.5,0,0.9,0.2,1.3,0.5s0.5,0.9,0.5,1.5c0,0,0,0.1,0,0.2
			h-2.9c0,0.4,0.1,0.8,0.4,1c0.2,0.2,0.5,0.3,0.8,0.3c0.2,0,0.4-0.1,0.6-0.2C318.6,303.5,318.8,303.3,318.9,303z M316.7,301.9h2.2
			c0-0.3-0.1-0.6-0.2-0.7c-0.2-0.3-0.5-0.4-0.8-0.4c-0.3,0-0.6,0.1-0.8,0.3C316.8,301.3,316.7,301.6,316.7,301.9z"/>
		<path class="st24" d="M320.1,303.1l0.7-0.1c0,0.3,0.1,0.5,0.3,0.6c0.2,0.1,0.4,0.2,0.7,0.2c0.3,0,0.5-0.1,0.7-0.2s0.2-0.3,0.2-0.4
			c0-0.1-0.1-0.3-0.2-0.4c-0.1-0.1-0.3-0.1-0.7-0.2c-0.5-0.1-0.8-0.2-1-0.3c-0.2-0.1-0.3-0.2-0.4-0.4c-0.1-0.2-0.1-0.3-0.1-0.5
			c0-0.2,0-0.3,0.1-0.5c0.1-0.1,0.2-0.3,0.3-0.4c0.1-0.1,0.2-0.1,0.4-0.2c0.2-0.1,0.4-0.1,0.6-0.1c0.3,0,0.6,0,0.8,0.1
			s0.4,0.2,0.5,0.4c0.1,0.2,0.2,0.4,0.2,0.6l-0.6,0.1c0-0.2-0.1-0.4-0.3-0.5s-0.3-0.2-0.6-0.2c-0.3,0-0.5,0.1-0.6,0.2
			c-0.1,0.1-0.2,0.2-0.2,0.4c0,0.1,0,0.2,0.1,0.2c0.1,0.1,0.1,0.1,0.3,0.2c0.1,0,0.3,0.1,0.6,0.2c0.5,0.1,0.8,0.2,1,0.3
			c0.2,0.1,0.3,0.2,0.4,0.3s0.2,0.3,0.2,0.6c0,0.2-0.1,0.4-0.2,0.6s-0.3,0.3-0.6,0.5c-0.2,0.1-0.5,0.2-0.8,0.2
			c-0.5,0-0.9-0.1-1.2-0.3C320.4,303.8,320.2,303.5,320.1,303.1z"/>
		<path class="st24" d="M325.6,303.6l0.1,0.6c-0.2,0-0.4,0.1-0.5,0.1c-0.2,0-0.4,0-0.6-0.1c-0.1-0.1-0.2-0.2-0.3-0.3
			c-0.1-0.1-0.1-0.4-0.1-0.8v-2.2h-0.5v-0.5h0.5v-1l0.7-0.4v1.4h0.7v0.5h-0.7v2.3c0,0.2,0,0.3,0,0.4c0,0.1,0.1,0.1,0.1,0.1
			c0.1,0,0.1,0,0.2,0C325.4,303.7,325.5,303.7,325.6,303.6z"/>
		<path class="st24" d="M326.2,304.2v-3.9h0.6v0.6c0.2-0.3,0.3-0.5,0.4-0.5s0.3-0.1,0.4-0.1c0.2,0,0.4,0.1,0.7,0.2l-0.2,0.6
			c-0.2-0.1-0.3-0.1-0.5-0.1c-0.1,0-0.3,0-0.4,0.1s-0.2,0.2-0.2,0.4c-0.1,0.2-0.1,0.5-0.1,0.8v2H326.2z"/>
		<path class="st24" d="M328.5,302.3c0-0.7,0.2-1.3,0.6-1.6c0.3-0.3,0.7-0.4,1.2-0.4c0.5,0,1,0.2,1.3,0.5c0.3,0.4,0.5,0.8,0.5,1.5
			c0,0.5-0.1,0.9-0.2,1.2s-0.4,0.5-0.7,0.7c-0.3,0.2-0.6,0.2-0.9,0.2c-0.5,0-1-0.2-1.3-0.5C328.6,303.4,328.5,302.9,328.5,302.3z
			 M329.2,302.3c0,0.5,0.1,0.9,0.3,1.1c0.2,0.2,0.5,0.4,0.8,0.4c0.3,0,0.6-0.1,0.8-0.4c0.2-0.2,0.3-0.6,0.3-1.1
			c0-0.5-0.1-0.8-0.3-1.1s-0.5-0.4-0.8-0.4c-0.3,0-0.6,0.1-0.8,0.4C329.3,301.4,329.2,301.8,329.2,302.3z"/>
		<path class="st24" d="M332.6,302.3c0-0.7,0.2-1.3,0.6-1.6c0.3-0.3,0.7-0.4,1.2-0.4c0.5,0,1,0.2,1.3,0.5c0.3,0.4,0.5,0.8,0.5,1.5
			c0,0.5-0.1,0.9-0.2,1.2s-0.4,0.5-0.7,0.7c-0.3,0.2-0.6,0.2-0.9,0.2c-0.5,0-1-0.2-1.3-0.5C332.8,303.4,332.6,302.9,332.6,302.3z
			 M333.3,302.3c0,0.5,0.1,0.9,0.3,1.1c0.2,0.2,0.5,0.4,0.8,0.4c0.3,0,0.6-0.1,0.8-0.4c0.2-0.2,0.3-0.6,0.3-1.1
			c0-0.5-0.1-0.8-0.3-1.1s-0.5-0.4-0.8-0.4c-0.3,0-0.6,0.1-0.8,0.4C333.4,301.4,333.3,301.8,333.3,302.3z"/>
		<path class="st24" d="M337.1,304.2v-3.9h0.6v0.5c0.1-0.2,0.3-0.3,0.5-0.5c0.2-0.1,0.4-0.2,0.7-0.2c0.3,0,0.5,0.1,0.7,0.2
			c0.2,0.1,0.3,0.3,0.4,0.5c0.3-0.5,0.7-0.7,1.2-0.7c0.4,0,0.7,0.1,0.9,0.3c0.2,0.2,0.3,0.5,0.3,1v2.7h-0.7v-2.5
			c0-0.3,0-0.5-0.1-0.6c0-0.1-0.1-0.2-0.2-0.3c-0.1-0.1-0.2-0.1-0.4-0.1c-0.3,0-0.5,0.1-0.7,0.3c-0.2,0.2-0.3,0.5-0.3,0.9v2.3h-0.7
			v-2.5c0-0.3-0.1-0.5-0.2-0.7c-0.1-0.1-0.3-0.2-0.5-0.2c-0.2,0-0.4,0-0.5,0.1c-0.2,0.1-0.3,0.2-0.3,0.4c-0.1,0.2-0.1,0.5-0.1,0.8v2
			H337.1z"/>
	</g>
	<circle class="st23" cx="326.6" cy="279.3" r="16"/>
	<g id="Outline_Icons-5-2">
		<path class="st26" d="M332.4,279.6c0,0.3-0.2,0.6-0.6,0.7h-3.1v-6.6c0-0.6,0.5-1.1,1.1-1.2l0,0h1.3c0.6,0,1.1,0.5,1.2,1.1l0,0v0.1
			L332.4,279.6z"/>
		<path class="st26" d="M323.9,286.3h6.1v-3.6l1.8-1.2v-1.2h-10.2c-0.1,1.5,1.1,2.9,2.6,3h0.3L323.9,286.3z"/>
		<rect x="320.9" y="279" class="st26" width="7.8" height="1.2"/>
		<circle class="st26" cx="330.9" cy="274.5" r="0.7"/>
	</g>
	<g class="st5">
		<path class="st24" d="M338,210.7v-6.6h1.3l1.6,4.7c0.1,0.4,0.2,0.8,0.3,1c0.1-0.2,0.2-0.6,0.4-1.1l1.6-4.6h1.2v6.6h-0.8v-5.5
			l-1.9,5.5h-0.8l-1.9-5.6v5.6H338z"/>
		<path class="st24" d="M348.9,209.2l0.8,0.1c-0.1,0.5-0.4,0.9-0.7,1.1c-0.4,0.3-0.8,0.4-1.4,0.4c-0.7,0-1.3-0.2-1.7-0.6
			c-0.4-0.4-0.6-1-0.6-1.8c0-0.8,0.2-1.4,0.6-1.9c0.4-0.4,1-0.7,1.6-0.7c0.6,0,1.2,0.2,1.6,0.7s0.6,1,0.6,1.8c0,0,0,0.1,0,0.2h-3.6
			c0,0.5,0.2,0.9,0.4,1.2c0.3,0.3,0.6,0.4,1,0.4c0.3,0,0.6-0.1,0.8-0.2C348.6,209.8,348.7,209.5,348.9,209.2z M346.2,207.9h2.7
			c0-0.4-0.1-0.7-0.3-0.9c-0.3-0.3-0.6-0.5-1-0.5c-0.4,0-0.7,0.1-0.9,0.4S346.2,207.4,346.2,207.9z"/>
		<path class="st24" d="M350.7,210.7v-4.8h0.7v0.7c0.4-0.5,0.9-0.8,1.5-0.8c0.3,0,0.6,0.1,0.8,0.2s0.4,0.2,0.5,0.4
			c0.1,0.2,0.2,0.4,0.3,0.6c0,0.2,0,0.4,0,0.8v2.9h-0.8v-2.9c0-0.3,0-0.6-0.1-0.7c-0.1-0.2-0.2-0.3-0.3-0.4
			c-0.2-0.1-0.3-0.1-0.6-0.1c-0.3,0-0.6,0.1-0.9,0.3c-0.3,0.2-0.4,0.6-0.4,1.2v2.6H350.7z"/>
		<path class="st24" d="M355.5,209.3l0.8-0.1c0,0.3,0.2,0.6,0.4,0.7c0.2,0.2,0.5,0.3,0.9,0.3c0.4,0,0.6-0.1,0.8-0.2s0.3-0.3,0.3-0.5
			c0-0.2-0.1-0.3-0.2-0.4c-0.1-0.1-0.4-0.2-0.8-0.3c-0.6-0.2-1-0.3-1.2-0.4c-0.2-0.1-0.4-0.3-0.5-0.5c-0.1-0.2-0.2-0.4-0.2-0.6
			c0-0.2,0-0.4,0.1-0.6c0.1-0.2,0.2-0.3,0.4-0.5c0.1-0.1,0.3-0.2,0.5-0.2c0.2-0.1,0.5-0.1,0.7-0.1c0.4,0,0.7,0.1,1,0.2
			c0.3,0.1,0.5,0.3,0.6,0.4s0.2,0.4,0.3,0.7l-0.8,0.1c0-0.2-0.1-0.4-0.3-0.6c-0.2-0.1-0.4-0.2-0.7-0.2c-0.4,0-0.6,0.1-0.8,0.2
			c-0.2,0.1-0.2,0.3-0.2,0.4c0,0.1,0,0.2,0.1,0.3c0.1,0.1,0.2,0.2,0.3,0.2c0.1,0,0.3,0.1,0.7,0.2c0.6,0.2,1,0.3,1.2,0.4
			s0.4,0.2,0.5,0.4s0.2,0.4,0.2,0.7c0,0.3-0.1,0.5-0.2,0.8s-0.4,0.4-0.7,0.6c-0.3,0.1-0.6,0.2-1,0.2c-0.6,0-1.1-0.1-1.4-0.4
			C355.8,210.2,355.6,209.8,355.5,209.3z"/>
		<path class="st24" d="M363.1,210.7v-6.6h0.9v5.8h3.2v0.8H363.1z"/>
		<path class="st24" d="M367.8,208.3c0-0.9,0.2-1.5,0.7-2c0.4-0.4,0.9-0.5,1.5-0.5c0.7,0,1.2,0.2,1.6,0.6c0.4,0.4,0.6,1,0.6,1.8
			c0,0.6-0.1,1.1-0.3,1.5c-0.2,0.4-0.5,0.6-0.8,0.8c-0.4,0.2-0.7,0.3-1.2,0.3c-0.7,0-1.2-0.2-1.6-0.6
			C368,209.7,367.8,209.1,367.8,208.3z M368.7,208.3c0,0.6,0.1,1.1,0.4,1.4c0.3,0.3,0.6,0.5,1,0.5c0.4,0,0.7-0.2,1-0.5
			c0.3-0.3,0.4-0.8,0.4-1.4c0-0.6-0.1-1-0.4-1.3c-0.3-0.3-0.6-0.5-1-0.5c-0.4,0-0.7,0.2-1,0.5C368.8,207.2,368.7,207.7,368.7,208.3z
			"/>
		<path class="st24" d="M376.4,209l0.8,0.1c-0.1,0.5-0.3,1-0.7,1.3c-0.4,0.3-0.8,0.5-1.3,0.5c-0.7,0-1.2-0.2-1.6-0.6
			c-0.4-0.4-0.6-1-0.6-1.8c0-0.5,0.1-1,0.3-1.4s0.4-0.7,0.8-0.9c0.3-0.2,0.7-0.3,1.1-0.3c0.5,0,0.9,0.1,1.3,0.4
			c0.3,0.3,0.5,0.6,0.6,1.1l-0.8,0.1c-0.1-0.3-0.2-0.6-0.4-0.7c-0.2-0.2-0.4-0.2-0.7-0.2c-0.4,0-0.7,0.1-1,0.4
			c-0.3,0.3-0.4,0.8-0.4,1.4c0,0.6,0.1,1.1,0.4,1.4c0.2,0.3,0.6,0.4,1,0.4c0.3,0,0.6-0.1,0.8-0.3C376.2,209.7,376.3,209.4,376.4,209
			z"/>
		<path class="st24" d="M377.9,210.7v-6.6h0.8v3.8l1.9-1.9h1l-1.8,1.8l2,3h-1l-1.6-2.4l-0.6,0.5v1.9H377.9z"/>
		<path class="st24" d="M385.7,209.2l0.8,0.1c-0.1,0.5-0.4,0.9-0.7,1.1c-0.4,0.3-0.8,0.4-1.4,0.4c-0.7,0-1.3-0.2-1.7-0.6
			c-0.4-0.4-0.6-1-0.6-1.8c0-0.8,0.2-1.4,0.6-1.9c0.4-0.4,1-0.7,1.6-0.7c0.6,0,1.2,0.2,1.6,0.7s0.6,1,0.6,1.8c0,0,0,0.1,0,0.2H383
			c0,0.5,0.2,0.9,0.4,1.2c0.3,0.3,0.6,0.4,1,0.4c0.3,0,0.6-0.1,0.8-0.2C385.4,209.8,385.6,209.5,385.7,209.2z M383.1,207.9h2.7
			c0-0.4-0.1-0.7-0.3-0.9c-0.3-0.3-0.6-0.5-1-0.5c-0.4,0-0.7,0.1-0.9,0.4S383.1,207.4,383.1,207.9z"/>
		<path class="st24" d="M387.6,210.7v-4.8h0.7v0.7c0.2-0.3,0.4-0.6,0.5-0.7c0.2-0.1,0.3-0.2,0.5-0.2c0.3,0,0.6,0.1,0.8,0.3l-0.3,0.8
			c-0.2-0.1-0.4-0.2-0.6-0.2c-0.2,0-0.3,0.1-0.5,0.2s-0.2,0.3-0.3,0.4c-0.1,0.3-0.1,0.6-0.1,0.9v2.5H387.6z"/>
		<path class="st24" d="M393.3,210.7v-6.6h2.9c0.6,0,1,0.1,1.3,0.2s0.6,0.3,0.7,0.6c0.2,0.3,0.3,0.6,0.3,1c0,0.5-0.2,0.9-0.5,1.2
			c-0.3,0.3-0.8,0.5-1.4,0.6c0.2,0.1,0.4,0.2,0.5,0.3c0.3,0.2,0.5,0.5,0.7,0.9l1.1,1.8H398l-0.9-1.4c-0.3-0.4-0.5-0.7-0.6-0.9
			c-0.2-0.2-0.3-0.4-0.4-0.4c-0.1-0.1-0.3-0.1-0.4-0.2c-0.1,0-0.3,0-0.5,0h-1v2.9H393.3z M394.2,207h1.9c0.4,0,0.7,0,0.9-0.1
			c0.2-0.1,0.4-0.2,0.5-0.4c0.1-0.2,0.2-0.4,0.2-0.6c0-0.3-0.1-0.6-0.3-0.8c-0.2-0.2-0.6-0.3-1.1-0.3h-2.1V207z"/>
		<path class="st24" d="M399.6,208.3c0-0.9,0.2-1.5,0.7-2c0.4-0.4,0.9-0.5,1.5-0.5c0.7,0,1.2,0.2,1.6,0.6c0.4,0.4,0.6,1,0.6,1.8
			c0,0.6-0.1,1.1-0.3,1.5c-0.2,0.4-0.5,0.6-0.8,0.8c-0.4,0.2-0.7,0.3-1.2,0.3c-0.7,0-1.2-0.2-1.6-0.6
			C399.8,209.7,399.6,209.1,399.6,208.3z M400.4,208.3c0,0.6,0.1,1.1,0.4,1.4c0.3,0.3,0.6,0.5,1,0.5c0.4,0,0.7-0.2,1-0.5
			c0.3-0.3,0.4-0.8,0.4-1.4c0-0.6-0.1-1-0.4-1.3c-0.3-0.3-0.6-0.5-1-0.5c-0.4,0-0.7,0.2-1,0.5C400.5,207.2,400.4,207.7,400.4,208.3z
			"/>
		<path class="st24" d="M404.7,208.3c0-0.9,0.2-1.5,0.7-2c0.4-0.4,0.9-0.5,1.5-0.5c0.7,0,1.2,0.2,1.6,0.6c0.4,0.4,0.6,1,0.6,1.8
			c0,0.6-0.1,1.1-0.3,1.5c-0.2,0.4-0.5,0.6-0.8,0.8c-0.4,0.2-0.7,0.3-1.2,0.3c-0.7,0-1.2-0.2-1.6-0.6
			C404.9,209.7,404.7,209.1,404.7,208.3z M405.5,208.3c0,0.6,0.1,1.1,0.4,1.4c0.3,0.3,0.6,0.5,1,0.5c0.4,0,0.7-0.2,1-0.5
			c0.3-0.3,0.4-0.8,0.4-1.4c0-0.6-0.1-1-0.4-1.3c-0.3-0.3-0.6-0.5-1-0.5c-0.4,0-0.7,0.2-1,0.5C405.6,207.2,405.5,207.7,405.5,208.3z
			"/>
		<path class="st24" d="M410.1,210.7v-4.8h0.7v0.7c0.1-0.2,0.3-0.4,0.6-0.6s0.5-0.2,0.9-0.2c0.4,0,0.6,0.1,0.9,0.2
			c0.2,0.1,0.4,0.4,0.5,0.6c0.4-0.6,0.9-0.8,1.5-0.8c0.5,0,0.8,0.1,1.1,0.4c0.3,0.3,0.4,0.7,0.4,1.2v3.3h-0.8v-3
			c0-0.3,0-0.6-0.1-0.7c-0.1-0.1-0.1-0.3-0.3-0.3c-0.1-0.1-0.3-0.1-0.5-0.1c-0.3,0-0.6,0.1-0.8,0.3c-0.2,0.2-0.3,0.6-0.3,1.1v2.8
			h-0.8v-3.1c0-0.4-0.1-0.6-0.2-0.8c-0.1-0.2-0.3-0.3-0.6-0.3c-0.2,0-0.4,0.1-0.6,0.2c-0.2,0.1-0.3,0.3-0.4,0.5
			c-0.1,0.2-0.1,0.6-0.1,1v2.5H410.1z"/>
	</g>
	<circle class="st23" cx="377" cy="179.2" r="20"/>
	<circle class="st25" cx="377" cy="173" r="3.1"/>
	<path class="st25" d="M381.8,178H372c-0.2,2.6,0.9,5.2,3.1,6.8v5.9h3.5v-5.9C380.9,183.3,382.1,180.7,381.8,178z"/>
	<g class="st5">
		<path class="st24" d="M697.3,237.5h-0.9v-5.6c-0.2,0.2-0.5,0.4-0.8,0.6c-0.3,0.2-0.7,0.4-0.9,0.5v-0.8c0.5-0.2,0.9-0.5,1.3-0.8
			c0.4-0.3,0.6-0.6,0.8-1h0.6V237.5z"/>
		<path class="st24" d="M700.1,233.3v-1h1v1H700.1z M700.1,237.5v-1h1v1H700.1z"/>
		<path class="st24" d="M703.7,233.6c-0.4-0.1-0.6-0.3-0.8-0.6s-0.3-0.5-0.3-0.9c0-0.5,0.2-1,0.6-1.3c0.4-0.4,0.9-0.5,1.5-0.5
			c0.6,0,1.1,0.2,1.5,0.5c0.4,0.4,0.6,0.8,0.6,1.3c0,0.3-0.1,0.6-0.3,0.9c-0.2,0.2-0.4,0.4-0.8,0.6c0.4,0.1,0.8,0.4,1,0.7
			s0.3,0.7,0.3,1.1c0,0.6-0.2,1.1-0.6,1.5c-0.4,0.4-1,0.6-1.7,0.6c-0.7,0-1.3-0.2-1.7-0.6c-0.4-0.4-0.6-0.9-0.6-1.6
			c0-0.5,0.1-0.9,0.4-1.2C703,234,703.3,233.8,703.7,233.6z M703.3,235.5c0,0.3,0.1,0.5,0.2,0.7c0.1,0.2,0.3,0.4,0.5,0.5
			c0.2,0.1,0.5,0.2,0.8,0.2c0.4,0,0.8-0.1,1-0.4s0.4-0.6,0.4-1c0-0.4-0.1-0.8-0.4-1c-0.3-0.3-0.6-0.4-1.1-0.4c-0.4,0-0.8,0.1-1,0.4
			C703.4,234.7,703.3,235,703.3,235.5z M703.5,232.1c0,0.3,0.1,0.6,0.3,0.8c0.2,0.2,0.5,0.3,0.8,0.3c0.3,0,0.6-0.1,0.8-0.3
			c0.2-0.2,0.3-0.5,0.3-0.8c0-0.3-0.1-0.6-0.3-0.8c-0.2-0.2-0.5-0.3-0.8-0.3c-0.3,0-0.6,0.1-0.8,0.3
			C703.7,231.6,703.5,231.8,703.5,232.1z"/>
	</g>
	<g id="Outline_Icons-6">
		<g class="st5">
			<path class="st24" d="M310.2,255.9l0.6-0.1c0,0.3,0.1,0.5,0.2,0.6c0.1,0.2,0.3,0.3,0.5,0.4c0.2,0.1,0.5,0.2,0.8,0.2
				c0.3,0,0.5,0,0.7-0.1c0.2-0.1,0.3-0.2,0.4-0.3c0.1-0.1,0.1-0.3,0.1-0.4c0-0.2,0-0.3-0.1-0.4c-0.1-0.1-0.2-0.2-0.5-0.3
				c-0.1-0.1-0.4-0.1-0.9-0.2c-0.5-0.1-0.8-0.2-1-0.3c-0.2-0.1-0.4-0.3-0.5-0.5s-0.2-0.4-0.2-0.6c0-0.3,0.1-0.5,0.2-0.7
				c0.1-0.2,0.4-0.4,0.6-0.5c0.3-0.1,0.6-0.2,0.9-0.2c0.4,0,0.7,0.1,1,0.2c0.3,0.1,0.5,0.3,0.7,0.5c0.2,0.2,0.2,0.5,0.2,0.8l-0.6,0
				c0-0.3-0.2-0.6-0.4-0.7s-0.5-0.2-0.9-0.2c-0.4,0-0.7,0.1-0.9,0.2s-0.3,0.3-0.3,0.5c0,0.2,0.1,0.3,0.2,0.5c0.1,0.1,0.5,0.2,1,0.4
				c0.5,0.1,0.9,0.2,1.1,0.3c0.3,0.1,0.5,0.3,0.7,0.5c0.1,0.2,0.2,0.5,0.2,0.7c0,0.3-0.1,0.5-0.2,0.8c-0.2,0.2-0.4,0.4-0.7,0.6
				c-0.3,0.1-0.6,0.2-1,0.2c-0.5,0-0.8-0.1-1.2-0.2s-0.6-0.3-0.7-0.6C310.3,256.5,310.2,256.2,310.2,255.9z"/>
			<path class="st24" d="M315.1,257.5v-5.1h0.6v1.8c0.3-0.3,0.7-0.5,1.1-0.5c0.3,0,0.5,0.1,0.7,0.2s0.3,0.3,0.4,0.4
				c0.1,0.2,0.1,0.5,0.1,0.8v2.3h-0.6v-2.3c0-0.3-0.1-0.5-0.2-0.7s-0.3-0.2-0.6-0.2c-0.2,0-0.4,0-0.5,0.1c-0.2,0.1-0.3,0.2-0.3,0.4
				c-0.1,0.2-0.1,0.4-0.1,0.7v2H315.1z"/>
			<path class="st24" d="M318.8,255.7c0-0.7,0.2-1.2,0.6-1.5c0.3-0.3,0.7-0.4,1.2-0.4c0.5,0,0.9,0.2,1.2,0.5
				c0.3,0.3,0.5,0.8,0.5,1.4c0,0.5-0.1,0.8-0.2,1.1c-0.1,0.3-0.3,0.5-0.6,0.6c-0.3,0.2-0.6,0.2-0.9,0.2c-0.5,0-0.9-0.2-1.2-0.5
				C318.9,256.8,318.8,256.3,318.8,255.7z M319.4,255.7c0,0.5,0.1,0.8,0.3,1.1c0.2,0.2,0.5,0.4,0.8,0.4c0.3,0,0.6-0.1,0.8-0.4
				c0.2-0.2,0.3-0.6,0.3-1.1c0-0.5-0.1-0.8-0.3-1c-0.2-0.2-0.5-0.4-0.8-0.4c-0.3,0-0.6,0.1-0.8,0.4
				C319.5,254.8,319.4,255.2,319.4,255.7z"/>
			<path class="st24" d="M323.6,257.5l-1.1-3.7h0.6l0.6,2.1l0.2,0.8c0,0,0.1-0.3,0.2-0.8l0.6-2.2h0.6l0.6,2.1l0.2,0.7l0.2-0.7
				l0.6-2.1h0.6l-1.2,3.7h-0.6l-0.6-2.2l-0.1-0.6l-0.7,2.8H323.6z"/>
			<path class="st24" d="M330.6,256.3l0.6,0.1c-0.1,0.4-0.3,0.7-0.6,0.9c-0.3,0.2-0.6,0.3-1.1,0.3c-0.5,0-1-0.2-1.3-0.5
				c-0.3-0.3-0.5-0.8-0.5-1.4c0-0.6,0.2-1.1,0.5-1.4c0.3-0.3,0.7-0.5,1.2-0.5c0.5,0,0.9,0.2,1.2,0.5c0.3,0.3,0.5,0.8,0.5,1.4
				c0,0,0,0.1,0,0.2h-2.7c0,0.4,0.1,0.7,0.3,0.9c0.2,0.2,0.5,0.3,0.8,0.3c0.2,0,0.4-0.1,0.6-0.2
				C330.4,256.8,330.5,256.6,330.6,256.3z M328.6,255.3h2.1c0-0.3-0.1-0.5-0.2-0.7c-0.2-0.2-0.5-0.4-0.8-0.4c-0.3,0-0.5,0.1-0.7,0.3
				C328.7,254.7,328.6,255,328.6,255.3z"/>
			<path class="st24" d="M332,257.5v-3.7h0.6v0.6c0.1-0.3,0.3-0.4,0.4-0.5c0.1-0.1,0.3-0.1,0.4-0.1c0.2,0,0.4,0.1,0.6,0.2l-0.2,0.6
				c-0.2-0.1-0.3-0.1-0.5-0.1c-0.1,0-0.3,0-0.4,0.1c-0.1,0.1-0.2,0.2-0.2,0.3c-0.1,0.2-0.1,0.5-0.1,0.7v1.9H332z"/>
			<path class="st24" d="M334.2,256.4l0.6-0.1c0,0.2,0.1,0.4,0.3,0.6s0.4,0.2,0.7,0.2c0.3,0,0.5-0.1,0.6-0.2
				c0.1-0.1,0.2-0.3,0.2-0.4c0-0.1-0.1-0.3-0.2-0.3c-0.1-0.1-0.3-0.1-0.6-0.2c-0.5-0.1-0.8-0.2-1-0.3c-0.2-0.1-0.3-0.2-0.4-0.4
				s-0.1-0.3-0.1-0.5c0-0.2,0-0.3,0.1-0.5s0.2-0.3,0.3-0.3c0.1-0.1,0.2-0.1,0.4-0.2c0.2,0,0.3-0.1,0.5-0.1c0.3,0,0.5,0,0.8,0.1
				c0.2,0.1,0.4,0.2,0.5,0.3c0.1,0.1,0.2,0.3,0.2,0.6l-0.6,0.1c0-0.2-0.1-0.3-0.2-0.4c-0.1-0.1-0.3-0.2-0.6-0.2
				c-0.3,0-0.5,0-0.6,0.1s-0.2,0.2-0.2,0.3c0,0.1,0,0.2,0.1,0.2c0.1,0.1,0.1,0.1,0.2,0.2c0.1,0,0.2,0.1,0.6,0.2
				c0.4,0.1,0.8,0.2,0.9,0.3c0.2,0.1,0.3,0.2,0.4,0.3c0.1,0.1,0.1,0.3,0.1,0.5c0,0.2-0.1,0.4-0.2,0.6c-0.1,0.2-0.3,0.3-0.5,0.4
				c-0.2,0.1-0.5,0.2-0.8,0.2c-0.5,0-0.8-0.1-1.1-0.3C334.4,257.1,334.2,256.8,334.2,256.4z"/>
		</g>
		<circle class="st23" cx="325.5" cy="235.3" r="15.4"/>
	</g>
	<g id="Outline_Icons">
		<line class="st25" x1="326.5" y1="235.8" x2="326.5" y2="236.8"/>
		<line class="st25" x1="326.5" y1="238.2" x2="326.5" y2="239.2"/>
		<line class="st25" x1="326.5" y1="240.6" x2="326.5" y2="241.6"/>
		<line class="st25" x1="329.2" y1="235.8" x2="329.6" y2="236.8"/>
		<line class="st25" x1="330.2" y1="238" x2="330.6" y2="238.9"/>
		<line class="st25" x1="331.1" y1="240.1" x2="331.6" y2="241"/>
		<line class="st25" x1="323.7" y1="235.8" x2="323.3" y2="236.8"/>
		<line class="st25" x1="322.7" y1="238" x2="322.3" y2="238.9"/>
		<line class="st25" x1="321.7" y1="240.1" x2="321.3" y2="241"/>
		<line class="st25" x1="327.7" y1="235.8" x2="327.9" y2="236.8"/>
		<line class="st25" x1="328.1" y1="238.1" x2="328.4" y2="239.1"/>
		<line class="st25" x1="328.7" y1="240.4" x2="328.9" y2="241.4"/>
		<line class="st25" x1="325.2" y1="235.8" x2="325" y2="236.8"/>
		<line class="st25" x1="324.7" y1="238.1" x2="324.5" y2="239.1"/>
		<line class="st25" x1="324.2" y1="240.4" x2="324" y2="241.4"/>
		<path class="st25" d="M332.5,233.8h-12.2l0.6-0.7c2.4-3,6.8-3.5,9.9-1.1l0,0c0.4,0.3,0.8,0.7,1.1,1.1L332.5,233.8z"/>
		<polyline class="st25" points="325.1,230.5 325.8,229 327.1,229 327.8,230.5 		"/>
		<line class="st25" x1="326.5" y1="229" x2="326.5" y2="227.7"/>
	</g>
	<ellipse class="st23" cx="643.9" cy="307.1" rx="18.5" ry="18.5"/>
	<g class="st5">
		<path class="st24" d="M634.3,334.4l0.8-0.1c0,0.3,0.1,0.6,0.3,0.8c0.1,0.2,0.3,0.4,0.6,0.5c0.3,0.1,0.6,0.2,0.9,0.2
			c0.3,0,0.6,0,0.8-0.1c0.2-0.1,0.4-0.2,0.5-0.4c0.1-0.2,0.2-0.3,0.2-0.5c0-0.2-0.1-0.4-0.2-0.5s-0.3-0.3-0.6-0.4
			c-0.2-0.1-0.5-0.2-1.1-0.3c-0.6-0.1-1-0.3-1.2-0.4c-0.3-0.2-0.5-0.3-0.7-0.6s-0.2-0.5-0.2-0.8c0-0.3,0.1-0.6,0.3-0.9
			c0.2-0.3,0.4-0.5,0.8-0.6c0.3-0.1,0.7-0.2,1.1-0.2c0.5,0,0.9,0.1,1.2,0.2c0.3,0.1,0.6,0.4,0.8,0.6c0.2,0.3,0.3,0.6,0.3,1l-0.8,0.1
			c0-0.4-0.2-0.7-0.4-0.9c-0.2-0.2-0.6-0.3-1.1-0.3c-0.5,0-0.8,0.1-1.1,0.3s-0.3,0.4-0.3,0.7c0,0.2,0.1,0.4,0.2,0.5
			c0.2,0.1,0.6,0.3,1.2,0.4c0.7,0.1,1.1,0.3,1.4,0.4c0.4,0.2,0.6,0.4,0.8,0.6c0.2,0.3,0.3,0.5,0.3,0.9c0,0.3-0.1,0.6-0.3,0.9
			c-0.2,0.3-0.5,0.5-0.8,0.7c-0.4,0.2-0.7,0.2-1.2,0.2c-0.6,0-1-0.1-1.4-0.2c-0.4-0.2-0.7-0.4-0.9-0.7
			C634.4,335.2,634.3,334.8,634.3,334.4z"/>
		<path class="st24" d="M641.8,335.7l0.1,0.7c-0.2,0-0.4,0.1-0.6,0.1c-0.3,0-0.5,0-0.6-0.1c-0.2-0.1-0.3-0.2-0.3-0.3
			s-0.1-0.4-0.1-0.9v-2.6h-0.6v-0.6h0.6v-1.1l0.7-0.5v1.6h0.8v0.6h-0.8v2.6c0,0.2,0,0.4,0,0.4s0.1,0.1,0.1,0.1
			c0.1,0,0.1,0.1,0.3,0.1C641.6,335.7,641.7,335.7,641.8,335.7z"/>
		<path class="st24" d="M645.5,335.8c-0.3,0.2-0.5,0.4-0.8,0.5s-0.5,0.1-0.8,0.1c-0.5,0-0.9-0.1-1.1-0.4c-0.3-0.2-0.4-0.5-0.4-0.9
			c0-0.2,0-0.4,0.1-0.6c0.1-0.2,0.2-0.3,0.4-0.4c0.2-0.1,0.3-0.2,0.5-0.2c0.1,0,0.4-0.1,0.7-0.1c0.6-0.1,1.1-0.2,1.3-0.3
			c0-0.1,0-0.2,0-0.2c0-0.3-0.1-0.5-0.2-0.6c-0.2-0.2-0.5-0.3-0.9-0.3c-0.4,0-0.6,0.1-0.8,0.2c-0.2,0.1-0.3,0.3-0.4,0.7l-0.7-0.1
			c0.1-0.3,0.2-0.6,0.3-0.8c0.2-0.2,0.4-0.3,0.7-0.4s0.6-0.2,1-0.2c0.4,0,0.7,0,0.9,0.1c0.2,0.1,0.4,0.2,0.5,0.3
			c0.1,0.1,0.2,0.3,0.2,0.5c0,0.1,0,0.4,0,0.7v1c0,0.7,0,1.1,0,1.3s0.1,0.4,0.2,0.5h-0.8C645.5,336.2,645.5,336,645.5,335.8z
			 M645.4,334.2c-0.3,0.1-0.7,0.2-1.2,0.3c-0.3,0-0.5,0.1-0.7,0.2c-0.1,0.1-0.2,0.1-0.3,0.2c-0.1,0.1-0.1,0.2-0.1,0.4
			c0,0.2,0.1,0.4,0.2,0.5s0.4,0.2,0.7,0.2c0.3,0,0.5-0.1,0.8-0.2c0.2-0.1,0.4-0.3,0.5-0.5c0.1-0.2,0.1-0.4,0.1-0.8V334.2z"/>
		<path class="st24" d="M647.3,331.1v-0.9h0.8v0.9H647.3z M647.3,336.4v-4.4h0.8v4.4H647.3z"/>
		<path class="st24" d="M649.2,336.4v-4.4h0.7v0.7c0.2-0.3,0.3-0.5,0.5-0.6s0.3-0.2,0.5-0.2c0.3,0,0.5,0.1,0.8,0.2l-0.3,0.7
			c-0.2-0.1-0.4-0.2-0.6-0.2c-0.2,0-0.3,0-0.4,0.1c-0.1,0.1-0.2,0.2-0.3,0.4c-0.1,0.3-0.1,0.6-0.1,0.9v2.3H649.2z"/>
		<path class="st24" d="M651.8,335.1l0.7-0.1c0,0.3,0.2,0.5,0.3,0.7s0.5,0.2,0.8,0.2c0.3,0,0.6-0.1,0.8-0.2c0.2-0.1,0.3-0.3,0.3-0.5
			c0-0.2-0.1-0.3-0.2-0.4c-0.1-0.1-0.4-0.2-0.8-0.3c-0.6-0.1-0.9-0.3-1.1-0.4c-0.2-0.1-0.4-0.2-0.5-0.4c-0.1-0.2-0.2-0.4-0.2-0.6
			c0-0.2,0-0.4,0.1-0.5s0.2-0.3,0.4-0.4c0.1-0.1,0.3-0.2,0.5-0.2c0.2-0.1,0.4-0.1,0.7-0.1c0.3,0,0.7,0,0.9,0.2
			c0.3,0.1,0.5,0.2,0.6,0.4c0.1,0.2,0.2,0.4,0.3,0.7l-0.7,0.1c0-0.2-0.1-0.4-0.3-0.5c-0.2-0.1-0.4-0.2-0.7-0.2
			c-0.3,0-0.6,0.1-0.7,0.2c-0.1,0.1-0.2,0.2-0.2,0.4c0,0.1,0,0.2,0.1,0.3c0.1,0.1,0.2,0.1,0.3,0.2c0.1,0,0.3,0.1,0.7,0.2
			c0.5,0.1,0.9,0.3,1.1,0.3c0.2,0.1,0.4,0.2,0.5,0.4c0.1,0.2,0.2,0.4,0.2,0.6c0,0.3-0.1,0.5-0.2,0.7s-0.4,0.4-0.6,0.5
			c-0.3,0.1-0.6,0.2-0.9,0.2c-0.6,0-1-0.1-1.3-0.4C652.1,335.9,651.9,335.5,651.8,335.1z"/>
	</g>
	<g id="Outline_Icons-9-2-2">
		<line class="st25" x1="636.1" y1="313.5" x2="650.3" y2="313.5"/>
		<polyline class="st25" points="647.8,313.5 647.8,311.1 645.4,311.1 645.4,308.6 642.9,308.6 642.9,306.1 640.5,306.1 
			640.5,303.7 636.1,303.7 		"/>
		<line class="st25" x1="643.5" y1="299.5" x2="651.2" y2="307.1"/>
		<polyline class="st25" points="643.5,302.4 643.5,299.5 646.6,299.5 		"/>
		<polyline class="st25" points="651.2,304.1 651.2,307.1 648,307.1 		"/>
	</g>
	<g class="st5">
		<path class="st24" d="M310.9,357.3V352h2.4c0.5,0,0.8,0,1.1,0.1c0.2,0.1,0.4,0.3,0.6,0.5s0.2,0.5,0.2,0.8c0,0.4-0.1,0.7-0.4,1
			c-0.2,0.3-0.6,0.4-1.1,0.5c0.2,0.1,0.3,0.2,0.4,0.3c0.2,0.2,0.4,0.4,0.6,0.7l0.9,1.5h-0.9l-0.7-1.1c-0.2-0.3-0.4-0.6-0.5-0.7
			c-0.1-0.2-0.3-0.3-0.4-0.4s-0.2-0.1-0.3-0.1c-0.1,0-0.2,0-0.4,0h-0.8v2.4H310.9z M311.6,354.3h1.5c0.3,0,0.6,0,0.8-0.1
			s0.3-0.2,0.4-0.3c0.1-0.1,0.1-0.3,0.1-0.5c0-0.3-0.1-0.5-0.3-0.6c-0.2-0.2-0.5-0.2-0.9-0.2h-1.7V354.3z"/>
		<path class="st24" d="M318.9,356.1l0.7,0.1c-0.1,0.4-0.3,0.7-0.6,0.9c-0.3,0.2-0.7,0.3-1.1,0.3c-0.6,0-1-0.2-1.4-0.5
			c-0.3-0.4-0.5-0.8-0.5-1.5c0-0.7,0.2-1.2,0.5-1.5c0.3-0.4,0.8-0.5,1.3-0.5c0.5,0,0.9,0.2,1.3,0.5s0.5,0.9,0.5,1.5c0,0,0,0.1,0,0.2
			h-2.9c0,0.4,0.1,0.8,0.4,1c0.2,0.2,0.5,0.3,0.8,0.3c0.2,0,0.4-0.1,0.6-0.2C318.6,356.6,318.8,356.4,318.9,356.1z M316.7,355h2.2
			c0-0.3-0.1-0.6-0.2-0.7c-0.2-0.3-0.5-0.4-0.8-0.4c-0.3,0-0.6,0.1-0.8,0.3C316.8,354.4,316.7,354.7,316.7,355z"/>
		<path class="st24" d="M320.1,356.2l0.7-0.1c0,0.3,0.1,0.5,0.3,0.6c0.2,0.1,0.4,0.2,0.7,0.2c0.3,0,0.5-0.1,0.7-0.2s0.2-0.3,0.2-0.4
			c0-0.1-0.1-0.3-0.2-0.4c-0.1-0.1-0.3-0.1-0.7-0.2c-0.5-0.1-0.8-0.2-1-0.3c-0.2-0.1-0.3-0.2-0.4-0.4c-0.1-0.2-0.1-0.3-0.1-0.5
			c0-0.2,0-0.3,0.1-0.5c0.1-0.1,0.2-0.3,0.3-0.4c0.1-0.1,0.2-0.1,0.4-0.2c0.2-0.1,0.4-0.1,0.6-0.1c0.3,0,0.6,0,0.8,0.1
			s0.4,0.2,0.5,0.4c0.1,0.2,0.2,0.4,0.2,0.6l-0.6,0.1c0-0.2-0.1-0.4-0.3-0.5s-0.3-0.2-0.6-0.2c-0.3,0-0.5,0.1-0.6,0.2
			c-0.1,0.1-0.2,0.2-0.2,0.4c0,0.1,0,0.2,0.1,0.2c0.1,0.1,0.1,0.1,0.3,0.2c0.1,0,0.3,0.1,0.6,0.2c0.5,0.1,0.8,0.2,1,0.3
			c0.2,0.1,0.3,0.2,0.4,0.3s0.2,0.3,0.2,0.6c0,0.2-0.1,0.4-0.2,0.6s-0.3,0.3-0.6,0.5c-0.2,0.1-0.5,0.2-0.8,0.2
			c-0.5,0-0.9-0.1-1.2-0.3C320.4,356.9,320.2,356.6,320.1,356.2z"/>
		<path class="st24" d="M325.6,356.7l0.1,0.6c-0.2,0-0.4,0.1-0.5,0.1c-0.2,0-0.4,0-0.6-0.1c-0.1-0.1-0.2-0.2-0.3-0.3
			c-0.1-0.1-0.1-0.4-0.1-0.8v-2.2h-0.5v-0.5h0.5v-1l0.7-0.4v1.4h0.7v0.5h-0.7v2.3c0,0.2,0,0.3,0,0.4c0,0.1,0.1,0.1,0.1,0.1
			c0.1,0,0.1,0,0.2,0C325.4,356.8,325.4,356.8,325.6,356.7z"/>
		<path class="st24" d="M326.2,357.3v-3.9h0.6v0.6c0.2-0.3,0.3-0.5,0.4-0.5s0.3-0.1,0.4-0.1c0.2,0,0.4,0.1,0.7,0.2l-0.2,0.6
			c-0.2-0.1-0.3-0.1-0.5-0.1c-0.1,0-0.3,0-0.4,0.1s-0.2,0.2-0.2,0.4c-0.1,0.2-0.1,0.5-0.1,0.8v2H326.2z"/>
		<path class="st24" d="M328.5,355.4c0-0.7,0.2-1.3,0.6-1.6c0.3-0.3,0.7-0.4,1.2-0.4c0.5,0,1,0.2,1.3,0.5c0.3,0.4,0.5,0.8,0.5,1.5
			c0,0.5-0.1,0.9-0.2,1.2c-0.2,0.3-0.4,0.5-0.7,0.7c-0.3,0.2-0.6,0.2-0.9,0.2c-0.5,0-1-0.2-1.3-0.5
			C328.6,356.5,328.5,356,328.5,355.4z M329.1,355.4c0,0.5,0.1,0.9,0.3,1.1c0.2,0.2,0.5,0.4,0.8,0.4c0.3,0,0.6-0.1,0.8-0.4
			c0.2-0.2,0.3-0.6,0.3-1.1c0-0.5-0.1-0.8-0.3-1.1s-0.5-0.4-0.8-0.4c-0.3,0-0.6,0.1-0.8,0.4C329.3,354.5,329.1,354.9,329.1,355.4z"
			/>
		<path class="st24" d="M332.6,355.4c0-0.7,0.2-1.3,0.6-1.6c0.3-0.3,0.7-0.4,1.2-0.4c0.5,0,1,0.2,1.3,0.5c0.3,0.4,0.5,0.8,0.5,1.5
			c0,0.5-0.1,0.9-0.2,1.2c-0.2,0.3-0.4,0.5-0.7,0.7c-0.3,0.2-0.6,0.2-0.9,0.2c-0.5,0-1-0.2-1.3-0.5
			C332.8,356.5,332.6,356,332.6,355.4z M333.3,355.4c0,0.5,0.1,0.9,0.3,1.1c0.2,0.2,0.5,0.4,0.8,0.4c0.3,0,0.6-0.1,0.8-0.4
			c0.2-0.2,0.3-0.6,0.3-1.1c0-0.5-0.1-0.8-0.3-1.1s-0.5-0.4-0.8-0.4c-0.3,0-0.6,0.1-0.8,0.4C333.4,354.5,333.3,354.9,333.3,355.4z"
			/>
		<path class="st24" d="M337.1,357.3v-3.9h0.6v0.5c0.1-0.2,0.3-0.3,0.5-0.5c0.2-0.1,0.4-0.2,0.7-0.2c0.3,0,0.5,0.1,0.7,0.2
			c0.2,0.1,0.3,0.3,0.4,0.5c0.3-0.5,0.7-0.7,1.2-0.7c0.4,0,0.7,0.1,0.9,0.3c0.2,0.2,0.3,0.5,0.3,1v2.7h-0.7v-2.5
			c0-0.3,0-0.5-0.1-0.6c0-0.1-0.1-0.2-0.2-0.3c-0.1-0.1-0.2-0.1-0.4-0.1c-0.3,0-0.5,0.1-0.7,0.3c-0.2,0.2-0.3,0.5-0.3,0.9v2.3h-0.7
			v-2.5c0-0.3-0.1-0.5-0.2-0.7c-0.1-0.1-0.3-0.2-0.5-0.2c-0.2,0-0.4,0-0.5,0.1c-0.2,0.1-0.3,0.2-0.3,0.4c-0.1,0.2-0.1,0.5-0.1,0.8v2
			H337.1z"/>
	</g>
	<circle class="st23" cx="326.6" cy="332.4" r="16"/>
	<g id="Outline_Icons-5-2-2">
		<path class="st26" d="M332.4,332.7c0,0.3-0.2,0.6-0.6,0.7h-3.1v-6.6c0-0.6,0.5-1.1,1.1-1.2l0,0h1.3c0.6,0,1.1,0.5,1.2,1.1l0,0v0.1
			L332.4,332.7z"/>
		<path class="st26" d="M323.9,339.4h6.1v-3.6l1.8-1.2v-1.2h-10.2c-0.1,1.5,1.1,2.9,2.6,3h0.3L323.9,339.4z"/>
		<rect x="320.9" y="332.1" class="st26" width="7.8" height="1.2"/>
		<circle class="st26" cx="330.9" cy="327.6" r="0.7"/>
	</g>
	<g class="st5">
		<path class="st24" d="M825,237.5h-0.9v-5.6c-0.2,0.2-0.5,0.4-0.8,0.6c-0.3,0.2-0.7,0.4-0.9,0.5v-0.8c0.5-0.2,0.9-0.5,1.3-0.8
			c0.4-0.3,0.6-0.6,0.8-1h0.6V237.5z"/>
		<path class="st24" d="M827.7,233.3v-1h1v1H827.7z M827.7,237.5v-1h1v1H827.7z"/>
		<path class="st24" d="M830.1,231.3v-0.8h4.6v0.7c-0.5,0.5-0.9,1.1-1.4,1.9c-0.4,0.8-0.8,1.6-1,2.5c-0.2,0.6-0.3,1.3-0.3,2h-0.9
			c0-0.6,0.1-1.2,0.3-2c0.2-0.8,0.5-1.6,0.9-2.3c0.4-0.7,0.8-1.4,1.3-1.9H830.1z"/>
	</g>
	<g class="st5">
		<path class="st24" d="M990.8,357.3h-0.9v-5.6c-0.2,0.2-0.5,0.4-0.8,0.6c-0.3,0.2-0.7,0.4-0.9,0.5v-0.8c0.5-0.2,0.9-0.5,1.3-0.8
			c0.4-0.3,0.6-0.6,0.8-1h0.6V357.3z"/>
		<path class="st24" d="M993.6,353.1v-1h1v1H993.6z M993.6,357.3v-1h1v1H993.6z"/>
		<path class="st24" d="M995.9,355.4l0.9-0.1c0.1,0.5,0.3,0.9,0.5,1.1c0.2,0.2,0.5,0.3,0.9,0.3c0.4,0,0.8-0.1,1-0.4
			c0.3-0.3,0.4-0.6,0.4-1.1c0-0.4-0.1-0.7-0.4-1c-0.3-0.3-0.6-0.4-1-0.4c-0.2,0-0.4,0-0.6,0.1l0.1-0.8c0.1,0,0.1,0,0.1,0
			c0.4,0,0.7-0.1,1-0.3c0.3-0.2,0.4-0.5,0.4-0.9c0-0.3-0.1-0.6-0.3-0.8c-0.2-0.2-0.5-0.3-0.8-0.3c-0.3,0-0.6,0.1-0.9,0.3
			c-0.2,0.2-0.4,0.5-0.4,1l-0.9-0.2c0.1-0.6,0.4-1,0.7-1.4c0.4-0.3,0.9-0.5,1.4-0.5c0.4,0,0.8,0.1,1.1,0.3c0.3,0.2,0.6,0.4,0.8,0.7
			c0.2,0.3,0.3,0.6,0.3,0.9c0,0.3-0.1,0.6-0.2,0.8s-0.4,0.5-0.7,0.6c0.4,0.1,0.8,0.3,1,0.6c0.2,0.3,0.4,0.7,0.4,1.2
			c0,0.6-0.2,1.2-0.7,1.6c-0.5,0.4-1,0.7-1.7,0.7c-0.6,0-1.1-0.2-1.6-0.6C996.2,356.5,995.9,356,995.9,355.4z"/>
	</g>
	<g class="st5">
		<path class="st24" d="M1089.8,458.7h-0.9v-5.6c-0.2,0.2-0.5,0.4-0.8,0.6c-0.3,0.2-0.7,0.4-0.9,0.5v-0.8c0.5-0.2,0.9-0.5,1.3-0.8
			c0.4-0.3,0.6-0.6,0.8-1h0.6V458.7z"/>
		<path class="st24" d="M1092.5,454.5v-1h1v1H1092.5z M1092.5,458.7v-1h1v1H1092.5z"/>
		<path class="st24" d="M1097.6,458.7V457h-3.1v-0.8l3.3-4.6h0.7v4.6h1v0.8h-1v1.7H1097.6z M1097.6,456.2v-3.2l-2.2,3.2H1097.6z"/>
	</g>
	<g class="st5">
		<path class="st24" d="M928.7,472.9v-7.2h2.7c0.5,0,0.8,0,1.1,0.1c0.4,0.1,0.6,0.2,0.9,0.3c0.2,0.2,0.4,0.4,0.6,0.7
			c0.1,0.3,0.2,0.6,0.2,1c0,0.6-0.2,1.1-0.6,1.5c-0.4,0.4-1.1,0.6-2.1,0.6h-1.8v2.9H928.7z M929.6,469.1h1.9c0.6,0,1-0.1,1.3-0.3
			c0.3-0.2,0.4-0.5,0.4-1c0-0.3-0.1-0.6-0.2-0.8c-0.2-0.2-0.4-0.4-0.6-0.4c-0.2,0-0.5-0.1-0.9-0.1h-1.8V469.1z"/>
		<path class="st24" d="M938.6,472.2c-0.3,0.3-0.6,0.5-0.9,0.6c-0.3,0.1-0.6,0.2-1,0.2c-0.6,0-1-0.1-1.3-0.4
			c-0.3-0.3-0.5-0.6-0.5-1.1c0-0.3,0.1-0.5,0.2-0.7c0.1-0.2,0.3-0.4,0.5-0.5c0.2-0.1,0.4-0.2,0.6-0.3c0.2,0,0.4-0.1,0.8-0.1
			c0.7-0.1,1.2-0.2,1.6-0.3c0-0.1,0-0.2,0-0.2c0-0.4-0.1-0.6-0.2-0.8c-0.2-0.2-0.6-0.3-1-0.3c-0.4,0-0.7,0.1-0.9,0.2
			c-0.2,0.1-0.3,0.4-0.4,0.8l-0.9-0.1c0.1-0.4,0.2-0.7,0.4-0.9c0.2-0.2,0.4-0.4,0.8-0.5c0.3-0.1,0.7-0.2,1.2-0.2
			c0.4,0,0.8,0.1,1.1,0.2c0.3,0.1,0.5,0.2,0.6,0.4c0.1,0.2,0.2,0.4,0.3,0.6c0,0.1,0,0.4,0,0.8v1.2c0,0.8,0,1.3,0.1,1.5
			c0,0.2,0.1,0.4,0.2,0.6h-0.9C938.7,472.7,938.6,472.5,938.6,472.2z M938.5,470.3c-0.3,0.1-0.8,0.2-1.4,0.3
			c-0.4,0.1-0.6,0.1-0.8,0.2c-0.1,0.1-0.3,0.2-0.3,0.3c-0.1,0.1-0.1,0.3-0.1,0.4c0,0.2,0.1,0.4,0.3,0.6c0.2,0.2,0.4,0.2,0.8,0.2
			c0.3,0,0.6-0.1,0.9-0.2c0.3-0.1,0.5-0.4,0.6-0.6c0.1-0.2,0.1-0.5,0.1-0.9V470.3z"/>
		<path class="st24" d="M940.8,466.7v-1h0.9v1H940.8z M940.8,472.9v-5.2h0.9v5.2H940.8z"/>
		<path class="st24" d="M943,472.9v-5.2h0.8v0.7c0.4-0.6,0.9-0.9,1.7-0.9c0.3,0,0.6,0.1,0.9,0.2c0.3,0.1,0.5,0.3,0.6,0.4
			c0.1,0.2,0.2,0.4,0.3,0.6c0,0.2,0,0.4,0,0.9v3.2h-0.9v-3.2c0-0.4,0-0.6-0.1-0.8c-0.1-0.2-0.2-0.3-0.4-0.4
			c-0.2-0.1-0.4-0.2-0.6-0.2c-0.4,0-0.7,0.1-1,0.4c-0.3,0.2-0.4,0.7-0.4,1.4v2.8H943z"/>
		<path class="st24" d="M950.5,472.1l0.1,0.8c-0.2,0.1-0.5,0.1-0.7,0.1c-0.3,0-0.6-0.1-0.7-0.2s-0.3-0.2-0.4-0.4
			c-0.1-0.2-0.1-0.5-0.1-1v-3h-0.6v-0.7h0.6v-1.3l0.9-0.5v1.8h0.9v0.7h-0.9v3c0,0.3,0,0.4,0,0.5c0,0.1,0.1,0.1,0.2,0.2
			c0.1,0,0.2,0.1,0.3,0.1C950.2,472.1,950.3,472.1,950.5,472.1z"/>
		<path class="st24" d="M955.5,472.9l-1.9-7.2h1l1.1,4.7c0.1,0.5,0.2,1,0.3,1.5c0.2-0.8,0.3-1.2,0.3-1.3l1.4-4.8h1.1l1,3.6
			c0.3,0.9,0.4,1.7,0.6,2.5c0.1-0.5,0.2-1,0.4-1.6l1.1-4.6h1l-2,7.2h-0.9l-1.5-5.5c-0.1-0.5-0.2-0.7-0.2-0.8
			c-0.1,0.3-0.1,0.6-0.2,0.8l-1.5,5.5H955.5z"/>
		<path class="st24" d="M963,470.3c0-1,0.3-1.7,0.8-2.1c0.4-0.4,1-0.6,1.6-0.6c0.7,0,1.3,0.2,1.7,0.7c0.5,0.5,0.7,1.1,0.7,1.9
			c0,0.7-0.1,1.2-0.3,1.6c-0.2,0.4-0.5,0.7-0.9,0.9c-0.4,0.2-0.8,0.3-1.3,0.3c-0.7,0-1.3-0.2-1.8-0.7
			C963.3,471.8,963,471.2,963,470.3z M963.9,470.3c0,0.7,0.1,1.2,0.4,1.5c0.3,0.3,0.7,0.5,1.1,0.5c0.4,0,0.8-0.2,1.1-0.5
			c0.3-0.3,0.4-0.8,0.4-1.5c0-0.6-0.1-1.1-0.4-1.5c-0.3-0.3-0.7-0.5-1.1-0.5c-0.4,0-0.8,0.2-1.1,0.5
			C964.1,469.1,963.9,469.6,963.9,470.3z"/>
		<path class="st24" d="M968.9,472.9v-5.2h0.8v0.8c0.2-0.4,0.4-0.6,0.6-0.7s0.4-0.2,0.6-0.2c0.3,0,0.6,0.1,0.9,0.3l-0.3,0.8
			c-0.2-0.1-0.4-0.2-0.6-0.2c-0.2,0-0.4,0.1-0.5,0.2c-0.2,0.1-0.3,0.3-0.3,0.5c-0.1,0.3-0.1,0.7-0.1,1v2.7H968.9z"/>
		<path class="st24" d="M972.3,472.9v-7.2h0.9v4.1l2.1-2.1h1.1l-2,1.9l2.2,3.3h-1.1l-1.7-2.7l-0.6,0.6v2.1H972.3z"/>
		<path class="st24" d="M976.9,471.3l0.9-0.1c0,0.3,0.2,0.6,0.4,0.8c0.2,0.2,0.5,0.3,0.9,0.3c0.4,0,0.7-0.1,0.9-0.2
			c0.2-0.2,0.3-0.4,0.3-0.6c0-0.2-0.1-0.4-0.3-0.5c-0.1-0.1-0.4-0.2-0.9-0.3c-0.6-0.2-1.1-0.3-1.3-0.4c-0.2-0.1-0.4-0.3-0.6-0.5
			c-0.1-0.2-0.2-0.4-0.2-0.7c0-0.2,0.1-0.4,0.2-0.6c0.1-0.2,0.2-0.4,0.4-0.5c0.1-0.1,0.3-0.2,0.6-0.3c0.2-0.1,0.5-0.1,0.8-0.1
			c0.4,0,0.8,0.1,1.1,0.2s0.5,0.3,0.7,0.5c0.1,0.2,0.2,0.5,0.3,0.8l-0.9,0.1c0-0.3-0.2-0.5-0.3-0.6c-0.2-0.1-0.5-0.2-0.8-0.2
			c-0.4,0-0.7,0.1-0.9,0.2c-0.2,0.1-0.3,0.3-0.3,0.5c0,0.1,0,0.2,0.1,0.3c0.1,0.1,0.2,0.2,0.3,0.2c0.1,0,0.3,0.1,0.8,0.2
			c0.6,0.2,1.1,0.3,1.3,0.4c0.2,0.1,0.4,0.3,0.6,0.5c0.1,0.2,0.2,0.5,0.2,0.8c0,0.3-0.1,0.6-0.3,0.8c-0.2,0.3-0.4,0.5-0.7,0.6
			c-0.3,0.1-0.7,0.2-1.1,0.2c-0.7,0-1.2-0.1-1.5-0.4C977.2,472.3,977,471.9,976.9,471.3z"/>
		<path class="st24" d="M982.3,472.9v-7.2h0.9v2.6c0.4-0.5,0.9-0.7,1.6-0.7c0.4,0,0.7,0.1,1,0.2c0.3,0.2,0.5,0.4,0.6,0.6
			s0.2,0.7,0.2,1.2v3.3h-0.9v-3.3c0-0.4-0.1-0.8-0.3-1c-0.2-0.2-0.5-0.3-0.8-0.3c-0.3,0-0.5,0.1-0.7,0.2c-0.2,0.1-0.4,0.3-0.5,0.5
			s-0.1,0.5-0.1,1v2.8H982.3z"/>
		<path class="st24" d="M987.5,470.3c0-1,0.3-1.7,0.8-2.1c0.4-0.4,1-0.6,1.6-0.6c0.7,0,1.3,0.2,1.7,0.7c0.5,0.5,0.7,1.1,0.7,1.9
			c0,0.7-0.1,1.2-0.3,1.6c-0.2,0.4-0.5,0.7-0.9,0.9c-0.4,0.2-0.8,0.3-1.3,0.3c-0.7,0-1.3-0.2-1.8-0.7
			C987.7,471.8,987.5,471.2,987.5,470.3z M988.4,470.3c0,0.7,0.1,1.2,0.4,1.5c0.3,0.3,0.7,0.5,1.1,0.5c0.4,0,0.8-0.2,1.1-0.5
			c0.3-0.3,0.4-0.8,0.4-1.5c0-0.6-0.1-1.1-0.4-1.5c-0.3-0.3-0.7-0.5-1.1-0.5c-0.4,0-0.8,0.2-1.1,0.5
			C988.5,469.1,988.4,469.6,988.4,470.3z"/>
		<path class="st24" d="M993.4,474.9v-7.2h0.8v0.7c0.2-0.3,0.4-0.5,0.6-0.6c0.2-0.1,0.5-0.2,0.9-0.2c0.4,0,0.8,0.1,1.2,0.3
			c0.3,0.2,0.6,0.5,0.8,1c0.2,0.4,0.3,0.9,0.3,1.4c0,0.5-0.1,1-0.3,1.4c-0.2,0.4-0.5,0.8-0.8,1c-0.4,0.2-0.7,0.3-1.1,0.3
			c-0.3,0-0.6-0.1-0.8-0.2c-0.2-0.1-0.4-0.3-0.6-0.5v2.5H993.4z M994.2,470.3c0,0.7,0.1,1.2,0.4,1.5c0.3,0.3,0.6,0.5,1,0.5
			c0.4,0,0.7-0.2,1-0.5c0.3-0.3,0.4-0.8,0.4-1.5c0-0.7-0.1-1.2-0.4-1.5c-0.3-0.3-0.6-0.5-1-0.5c-0.4,0-0.7,0.2-1,0.5
			C994.3,469.1,994.2,469.7,994.2,470.3z"/>
	</g>
	<g class="st5">
		<path class="st24" d="M814.1,463.6h-0.9V458c-0.2,0.2-0.5,0.4-0.8,0.6c-0.3,0.2-0.7,0.4-0.9,0.5v-0.8c0.5-0.2,0.9-0.5,1.3-0.8
			c0.4-0.3,0.6-0.6,0.8-1h0.6V463.6z"/>
		<path class="st24" d="M816.9,459.4v-1h1v1H816.9z M816.9,463.6v-1h1v1H816.9z"/>
		<path class="st24" d="M823.7,458.1l-0.9,0.1c-0.1-0.3-0.2-0.6-0.3-0.8c-0.2-0.3-0.5-0.4-0.9-0.4c-0.3,0-0.5,0.1-0.7,0.2
			c-0.3,0.2-0.5,0.5-0.7,0.9c-0.2,0.4-0.2,0.9-0.2,1.7c0.2-0.3,0.5-0.6,0.8-0.7c0.3-0.2,0.6-0.2,1-0.2c0.6,0,1.1,0.2,1.5,0.6
			c0.4,0.4,0.6,1,0.6,1.7c0,0.4-0.1,0.9-0.3,1.3c-0.2,0.4-0.5,0.7-0.8,0.9c-0.3,0.2-0.7,0.3-1.2,0.3c-0.7,0-1.3-0.3-1.8-0.8
			c-0.5-0.5-0.7-1.4-0.7-2.7c0-1.4,0.3-2.4,0.8-3c0.4-0.5,1-0.8,1.8-0.8c0.6,0,1,0.2,1.4,0.5C823.4,457.2,823.6,457.6,823.7,458.1z
			 M820.1,461.2c0,0.3,0.1,0.6,0.2,0.9c0.1,0.3,0.3,0.5,0.5,0.6c0.2,0.1,0.5,0.2,0.7,0.2c0.4,0,0.7-0.1,1-0.4
			c0.3-0.3,0.4-0.7,0.4-1.2c0-0.5-0.1-0.9-0.4-1.2c-0.3-0.3-0.6-0.4-1-0.4c-0.4,0-0.7,0.1-1,0.4
			C820.3,460.4,820.1,460.8,820.1,461.2z"/>
	</g>
	<g class="st5">
		<path class="st24" d="M165.1,480.8h-0.9v-5.6c-0.2,0.2-0.5,0.4-0.8,0.6c-0.3,0.2-0.7,0.4-0.9,0.5v-0.8c0.5-0.2,0.9-0.5,1.3-0.8
			c0.4-0.3,0.6-0.6,0.8-1h0.6V480.8z"/>
		<path class="st24" d="M167.9,476.6v-1h1v1H167.9z M167.9,480.8v-1h1v1H167.9z"/>
		<path class="st24" d="M173.5,480.8h-0.9v-5.6c-0.2,0.2-0.5,0.4-0.8,0.6c-0.3,0.2-0.7,0.4-0.9,0.5v-0.8c0.5-0.2,0.9-0.5,1.3-0.8
			c0.4-0.3,0.6-0.6,0.8-1h0.6V480.8z"/>
		<path class="st24" d="M175.8,474.6v-0.8h4.6v0.7c-0.5,0.5-0.9,1.1-1.4,1.9c-0.4,0.8-0.8,1.6-1,2.5c-0.2,0.6-0.3,1.3-0.3,2h-0.9
			c0-0.6,0.1-1.2,0.3-2c0.2-0.8,0.5-1.6,0.9-2.3s0.8-1.4,1.3-1.9H175.8z"/>
	</g>
	<g class="st5">
		<path class="st24" d="M169.1,363.2h-0.9v-5.6c-0.2,0.2-0.5,0.4-0.8,0.6s-0.7,0.4-0.9,0.5v-0.8c0.5-0.2,0.9-0.5,1.3-0.8
			s0.6-0.6,0.8-1h0.6V363.2z"/>
		<path class="st24" d="M171.9,359v-1h1v1H171.9z M171.9,363.2v-1h1v1H171.9z"/>
		<path class="st24" d="M177.5,363.2h-0.9v-5.6c-0.2,0.2-0.5,0.4-0.8,0.6s-0.7,0.4-0.9,0.5v-0.8c0.5-0.2,0.9-0.5,1.3-0.8
			s0.6-0.6,0.8-1h0.6V363.2z"/>
		<path class="st24" d="M184.3,357.8l-0.9,0.1c-0.1-0.3-0.2-0.6-0.3-0.8c-0.2-0.3-0.5-0.4-0.9-0.4c-0.3,0-0.5,0.1-0.7,0.2
			c-0.3,0.2-0.5,0.5-0.7,0.9s-0.2,0.9-0.2,1.7c0.2-0.3,0.5-0.6,0.8-0.7s0.6-0.2,1-0.2c0.6,0,1.1,0.2,1.5,0.6c0.4,0.4,0.6,1,0.6,1.7
			c0,0.4-0.1,0.9-0.3,1.3c-0.2,0.4-0.5,0.7-0.8,0.9s-0.7,0.3-1.2,0.3c-0.7,0-1.3-0.3-1.8-0.8c-0.5-0.5-0.7-1.4-0.7-2.7
			c0-1.4,0.3-2.4,0.8-3c0.4-0.5,1-0.8,1.8-0.8c0.6,0,1,0.2,1.4,0.5C184,356.8,184.2,357.2,184.3,357.8z M180.7,360.8
			c0,0.3,0.1,0.6,0.2,0.9s0.3,0.5,0.5,0.6c0.2,0.1,0.5,0.2,0.7,0.2c0.4,0,0.7-0.1,1-0.4s0.4-0.7,0.4-1.2c0-0.5-0.1-0.9-0.4-1.2
			c-0.3-0.3-0.6-0.4-1-0.4c-0.4,0-0.7,0.1-1,0.4C180.8,360,180.7,360.4,180.7,360.8z"/>
	</g>
	<g class="st5">
		<path class="st24" d="M165.1,228.4h-0.9v-5.6c-0.2,0.2-0.5,0.4-0.8,0.6s-0.7,0.4-0.9,0.5V223c0.5-0.2,0.9-0.5,1.3-0.8
			s0.6-0.6,0.8-1h0.6V228.4z"/>
		<path class="st24" d="M167.9,224.2v-1h1v1H167.9z M167.9,228.4v-1h1v1H167.9z"/>
		<path class="st24" d="M173.5,228.4h-0.9v-5.6c-0.2,0.2-0.5,0.4-0.8,0.6s-0.7,0.4-0.9,0.5V223c0.5-0.2,0.9-0.5,1.3-0.8
			s0.6-0.6,0.8-1h0.6V228.4z"/>
		<path class="st24" d="M175.7,226.5l0.9-0.1c0.1,0.4,0.2,0.8,0.5,1c0.2,0.2,0.5,0.3,0.9,0.3c0.4,0,0.8-0.2,1.1-0.5s0.4-0.7,0.4-1.3
			c0-0.5-0.1-0.9-0.4-1.2s-0.7-0.4-1.1-0.4c-0.3,0-0.5,0.1-0.8,0.2c-0.2,0.1-0.4,0.3-0.5,0.5l-0.8-0.1l0.7-3.7h3.6v0.8h-2.9
			l-0.4,1.9c0.4-0.3,0.9-0.4,1.4-0.4c0.6,0,1.2,0.2,1.6,0.6s0.6,1,0.6,1.7c0,0.6-0.2,1.2-0.6,1.7c-0.5,0.6-1.1,0.9-1.9,0.9
			c-0.7,0-1.2-0.2-1.6-0.5S175.8,227.1,175.7,226.5z"/>
	</g>
	<g class="st5">
		<path class="st24" d="M476.5,267.2l0.9-0.1c0,0.4,0.1,0.7,0.3,0.9c0.2,0.2,0.4,0.4,0.7,0.6c0.3,0.1,0.7,0.2,1.1,0.2
			c0.4,0,0.7-0.1,1-0.2s0.5-0.3,0.6-0.4c0.1-0.2,0.2-0.4,0.2-0.6c0-0.2-0.1-0.4-0.2-0.6c-0.1-0.2-0.3-0.3-0.6-0.4
			c-0.2-0.1-0.6-0.2-1.3-0.3c-0.7-0.2-1.1-0.3-1.4-0.4c-0.3-0.2-0.6-0.4-0.8-0.7c-0.2-0.3-0.3-0.6-0.3-0.9c0-0.4,0.1-0.7,0.3-1
			c0.2-0.3,0.5-0.6,0.9-0.7s0.8-0.2,1.3-0.2c0.5,0,1,0.1,1.4,0.3c0.4,0.2,0.7,0.4,0.9,0.8s0.3,0.7,0.4,1.1l-0.9,0.1
			c0-0.5-0.2-0.8-0.5-1s-0.7-0.3-1.2-0.3c-0.6,0-1,0.1-1.3,0.3c-0.3,0.2-0.4,0.5-0.4,0.8c0,0.3,0.1,0.5,0.3,0.6
			c0.2,0.2,0.7,0.3,1.4,0.5c0.8,0.2,1.3,0.3,1.6,0.5c0.4,0.2,0.7,0.4,0.9,0.7c0.2,0.3,0.3,0.6,0.3,1c0,0.4-0.1,0.7-0.3,1.1
			c-0.2,0.3-0.5,0.6-0.9,0.8c-0.4,0.2-0.9,0.3-1.4,0.3c-0.6,0-1.2-0.1-1.6-0.3s-0.8-0.5-1-0.9C476.7,268.1,476.5,267.7,476.5,267.2z
			"/>
		<path class="st24" d="M487,267.8l0.9,0.1c-0.1,0.5-0.4,0.9-0.8,1.2s-0.9,0.4-1.5,0.4c-0.8,0-1.4-0.2-1.8-0.7
			c-0.4-0.5-0.7-1.1-0.7-2c0-0.9,0.2-1.5,0.7-2s1-0.7,1.7-0.7c0.7,0,1.3,0.2,1.7,0.7s0.7,1.1,0.7,2c0,0.1,0,0.1,0,0.2H484
			c0,0.6,0.2,1,0.5,1.3s0.7,0.5,1.1,0.5c0.3,0,0.6-0.1,0.8-0.3S486.8,268.2,487,267.8z M484.1,266.4h2.9c0-0.4-0.1-0.8-0.3-1
			c-0.3-0.3-0.6-0.5-1.1-0.5c-0.4,0-0.7,0.1-1,0.4S484.1,266,484.1,266.4z"/>
		<path class="st24" d="M489,269.5v-5.2h0.8v0.8c0.2-0.4,0.4-0.6,0.6-0.7s0.4-0.2,0.6-0.2c0.3,0,0.6,0.1,0.9,0.3l-0.3,0.8
			c-0.2-0.1-0.4-0.2-0.6-0.2c-0.2,0-0.4,0.1-0.5,0.2c-0.2,0.1-0.3,0.3-0.3,0.5c-0.1,0.3-0.1,0.7-0.1,1v2.7H489z"/>
		<path class="st24" d="M493.7,269.5l-2-5.2h0.9l1.1,3.1c0.1,0.3,0.2,0.7,0.3,1c0.1-0.3,0.2-0.6,0.3-1l1.2-3.2h0.9l-2,5.2H493.7z"/>
		<path class="st24" d="M500.8,267.8l0.9,0.1c-0.1,0.5-0.4,0.9-0.8,1.2s-0.9,0.4-1.5,0.4c-0.8,0-1.4-0.2-1.8-0.7
			c-0.4-0.5-0.7-1.1-0.7-2c0-0.9,0.2-1.5,0.7-2s1-0.7,1.7-0.7c0.7,0,1.3,0.2,1.7,0.7s0.7,1.1,0.7,2c0,0.1,0,0.1,0,0.2h-3.9
			c0,0.6,0.2,1,0.5,1.3s0.7,0.5,1.1,0.5c0.3,0,0.6-0.1,0.8-0.3S500.7,268.2,500.8,267.8z M498,266.4h2.9c0-0.4-0.1-0.8-0.3-1
			c-0.3-0.3-0.6-0.5-1.1-0.5c-0.4,0-0.7,0.1-1,0.4S498,266,498,266.4z"/>
		<path class="st24" d="M502.8,269.5v-5.2h0.8v0.8c0.2-0.4,0.4-0.6,0.6-0.7s0.4-0.2,0.6-0.2c0.3,0,0.6,0.1,0.9,0.3l-0.3,0.8
			c-0.2-0.1-0.4-0.2-0.6-0.2c-0.2,0-0.4,0.1-0.5,0.2c-0.2,0.1-0.3,0.3-0.3,0.5c-0.1,0.3-0.1,0.7-0.1,1v2.7H502.8z"/>
		<path class="st24" d="M509.1,269.5v-7.2h3.2c0.6,0,1.1,0.1,1.5,0.2c0.3,0.1,0.6,0.4,0.8,0.7s0.3,0.7,0.3,1.1
			c0,0.5-0.2,0.9-0.5,1.3s-0.8,0.6-1.5,0.7c0.3,0.1,0.4,0.2,0.6,0.4c0.3,0.3,0.5,0.6,0.8,1l1.2,1.9h-1.2l-0.9-1.5
			c-0.3-0.4-0.5-0.8-0.7-1s-0.3-0.4-0.5-0.5s-0.3-0.2-0.4-0.2c-0.1,0-0.3,0-0.5,0H510v3.2H509.1z M510,265.5h2c0.4,0,0.8,0,1-0.1
			c0.2-0.1,0.4-0.2,0.6-0.4c0.1-0.2,0.2-0.4,0.2-0.6c0-0.3-0.1-0.6-0.4-0.8s-0.6-0.3-1.2-0.3H510V265.5z"/>
		<path class="st24" d="M515.9,266.9c0-1,0.3-1.7,0.8-2.1c0.4-0.4,1-0.6,1.6-0.6c0.7,0,1.3,0.2,1.7,0.7c0.5,0.5,0.7,1.1,0.7,1.9
			c0,0.7-0.1,1.2-0.3,1.6c-0.2,0.4-0.5,0.7-0.9,0.9s-0.8,0.3-1.3,0.3c-0.7,0-1.3-0.2-1.8-0.7S515.9,267.8,515.9,266.9z M516.8,266.9
			c0,0.7,0.1,1.2,0.4,1.5c0.3,0.3,0.7,0.5,1.1,0.5c0.4,0,0.8-0.2,1.1-0.5s0.4-0.8,0.4-1.5c0-0.6-0.1-1.1-0.4-1.5
			c-0.3-0.3-0.7-0.5-1.1-0.5c-0.4,0-0.8,0.2-1.1,0.5S516.8,266.3,516.8,266.9z"/>
		<path class="st24" d="M521.4,266.9c0-1,0.3-1.7,0.8-2.1c0.4-0.4,1-0.6,1.6-0.6c0.7,0,1.3,0.2,1.7,0.7c0.5,0.5,0.7,1.1,0.7,1.9
			c0,0.7-0.1,1.2-0.3,1.6c-0.2,0.4-0.5,0.7-0.9,0.9s-0.8,0.3-1.3,0.3c-0.7,0-1.3-0.2-1.8-0.7S521.4,267.8,521.4,266.9z M522.3,266.9
			c0,0.7,0.1,1.2,0.4,1.5c0.3,0.3,0.7,0.5,1.1,0.5c0.4,0,0.8-0.2,1.1-0.5s0.4-0.8,0.4-1.5c0-0.6-0.1-1.1-0.4-1.5
			c-0.3-0.3-0.7-0.5-1.1-0.5c-0.4,0-0.8,0.2-1.1,0.5S522.3,266.3,522.3,266.9z"/>
		<path class="st24" d="M527.3,269.5v-5.2h0.8v0.7c0.2-0.3,0.4-0.5,0.6-0.6c0.3-0.2,0.6-0.2,0.9-0.2c0.4,0,0.7,0.1,0.9,0.2
			s0.4,0.4,0.5,0.7c0.4-0.6,0.9-0.9,1.6-0.9c0.5,0,0.9,0.1,1.2,0.4c0.3,0.3,0.4,0.7,0.4,1.3v3.6h-0.9v-3.3c0-0.4,0-0.6-0.1-0.8
			c-0.1-0.2-0.2-0.3-0.3-0.4s-0.3-0.1-0.5-0.1c-0.4,0-0.7,0.1-0.9,0.4c-0.2,0.2-0.4,0.6-0.4,1.2v3h-0.9v-3.4c0-0.4-0.1-0.7-0.2-0.9
			s-0.4-0.3-0.7-0.3c-0.2,0-0.5,0.1-0.7,0.2s-0.4,0.3-0.5,0.6s-0.1,0.6-0.1,1.1v2.7H527.3z"/>
	</g>
	<g class="st5">
		<path class="st24" d="M563,398.9h-0.9v-5.6c-0.2,0.2-0.5,0.4-0.8,0.6s-0.7,0.4-0.9,0.5v-0.8c0.5-0.2,0.9-0.5,1.3-0.8
			s0.6-0.6,0.8-1h0.6V398.9z"/>
		<path class="st24" d="M565.8,394.7v-1h1v1H565.8z M565.8,398.9v-1h1v1H565.8z"/>
		<path class="st24" d="M572.7,398v0.8h-4.7c0-0.2,0-0.4,0.1-0.6c0.1-0.3,0.3-0.6,0.6-1s0.6-0.7,1.1-1.1c0.8-0.6,1.3-1.1,1.6-1.5
			c0.3-0.4,0.4-0.7,0.4-1.1c0-0.3-0.1-0.6-0.4-0.9c-0.2-0.2-0.6-0.4-1-0.4c-0.4,0-0.8,0.1-1,0.4s-0.4,0.6-0.4,1.1l-0.9-0.1
			c0.1-0.7,0.3-1.2,0.7-1.5c0.4-0.4,0.9-0.5,1.6-0.5c0.7,0,1.2,0.2,1.6,0.6s0.6,0.9,0.6,1.4c0,0.3-0.1,0.6-0.2,0.8s-0.3,0.6-0.6,0.9
			s-0.7,0.7-1.4,1.3c-0.5,0.4-0.9,0.7-1,0.9c-0.1,0.2-0.3,0.3-0.4,0.5H572.7z"/>
	</g>
	<g>
		<circle class="st27" cx="707.9" cy="386.6" r="18.1"/>
		<path class="st28" d="M710.5,389c-0.2,0.3-0.2,0.7-0.2,1.2c0,1.4,0,2.9,0,4.3c0,0.2,0,0.6,0,0.8c0,0.3-0.2,0.5-0.6,0.5
			c-0.2,0-0.3,0-0.5,0c-0.9,0-1.7,0-2.6,0c-0.2,0-0.3,0-0.6,0c-0.2,0-0.5-0.2-0.5-0.5s-0.1-0.6,0-0.8c0-1.5,0-2.9,0-4.4
			c0-1.1-0.1-1.2-1.2-1.2c-1.5,0-3,0-4.5,0c-0.2,0-0.6,0-0.8-0.1c-0.2,0-0.5-0.2-0.5-0.5c0-0.2,0-0.3,0-0.5c0-0.9,0-1.7,0-2.6
			s0.2-1.1,1.1-1.1c1.6,0,3.1,0,4.7,0c0.2,0,0.6,0,0.8,0s0.4-0.2,0.4-0.4c0.1-0.3,0.1-0.6,0.1-0.9c0-1.4,0-2.9,0-4.3
			c0-0.2,0-0.6,0.1-0.8c0-0.2,0.2-0.5,0.5-0.5c0.1,0,0.2,0,0.3,0c1,0,2,0,2.9,0c0.1,0,0.1,0,0.2,0c0.5,0,0.7,0.2,0.7,0.7
			c0,0.2,0,0.5,0,0.7c0,1.3,0,2.6,0,3.9c0,1.6,0,1.6,1.5,1.6s3,0,4.4,0c1,0,1.1,0.1,1.1,1.1c0,0.8,0,1.6,0,2.5c0,0.2,0,0.4,0,0.7
			c0,0.2-0.2,0.4-0.4,0.4s-0.6,0.1-0.8,0.1c-1.5,0-3,0-4.4,0C711.2,389,710.9,389,710.5,389z"/>
		<g class="st5">
			<path class="st24" d="M695.1,415.1v-5.9h4v0.7h-3.2v1.8h2.8v0.7h-2.8v2.7H695.1z"/>
			<path class="st24" d="M700,410.1v-0.8h0.7v0.8H700z M700,415.1v-4.3h0.7v4.3H700z"/>
			<path class="st24" d="M701.8,415.1v-4.3h0.7v0.6c0.2-0.3,0.3-0.5,0.5-0.6s0.3-0.1,0.5-0.1c0.2,0,0.5,0.1,0.7,0.2l-0.2,0.7
				c-0.2-0.1-0.4-0.2-0.5-0.2c-0.2,0-0.3,0-0.4,0.1s-0.2,0.2-0.3,0.4c-0.1,0.3-0.1,0.5-0.1,0.8v2.2H701.8z"/>
			<path class="st24" d="M704.3,413.9l0.7-0.1c0,0.3,0.2,0.5,0.3,0.7s0.4,0.2,0.8,0.2c0.3,0,0.6-0.1,0.7-0.2
				c0.2-0.1,0.2-0.3,0.2-0.5c0-0.2-0.1-0.3-0.2-0.4c-0.1-0.1-0.3-0.1-0.7-0.2c-0.5-0.1-0.9-0.2-1.1-0.3c-0.2-0.1-0.4-0.2-0.5-0.4
				c-0.1-0.2-0.2-0.4-0.2-0.6c0-0.2,0-0.4,0.1-0.5s0.2-0.3,0.4-0.4c0.1-0.1,0.3-0.2,0.5-0.2c0.2-0.1,0.4-0.1,0.6-0.1
				c0.3,0,0.6,0,0.9,0.1s0.4,0.2,0.6,0.4c0.1,0.2,0.2,0.4,0.2,0.7l-0.7,0.1c0-0.2-0.1-0.4-0.3-0.5c-0.2-0.1-0.4-0.2-0.7-0.2
				c-0.3,0-0.6,0.1-0.7,0.2c-0.1,0.1-0.2,0.2-0.2,0.4c0,0.1,0,0.2,0.1,0.3c0.1,0.1,0.2,0.1,0.3,0.2c0.1,0,0.3,0.1,0.6,0.2
				c0.5,0.1,0.9,0.2,1.1,0.3s0.4,0.2,0.5,0.4c0.1,0.2,0.2,0.4,0.2,0.6c0,0.2-0.1,0.5-0.2,0.7c-0.1,0.2-0.3,0.4-0.6,0.5
				s-0.6,0.2-0.9,0.2c-0.6,0-1-0.1-1.3-0.3C704.5,414.7,704.4,414.3,704.3,413.9z"/>
			<path class="st24" d="M710.3,414.5l0.1,0.6c-0.2,0-0.4,0.1-0.5,0.1c-0.3,0-0.5,0-0.6-0.1s-0.2-0.2-0.3-0.3
				c-0.1-0.1-0.1-0.4-0.1-0.9v-2.5h-0.5v-0.6h0.5v-1.1l0.7-0.4v1.5h0.7v0.6h-0.7v2.5c0,0.2,0,0.3,0,0.4s0.1,0.1,0.1,0.1
				s0.1,0.1,0.2,0.1C710,414.5,710.1,414.5,710.3,414.5z"/>
			<path class="st24" d="M712.2,415.1l2.3-5.9h0.8l2.4,5.9h-0.9l-0.7-1.8h-2.5l-0.6,1.8H712.2z M713.9,412.7h2l-0.6-1.6
				c-0.2-0.5-0.3-0.9-0.4-1.2c-0.1,0.4-0.2,0.8-0.3,1.1L713.9,412.7z"/>
			<path class="st24" d="M718.3,410.1v-0.8h0.7v0.8H718.3z M718.3,415.1v-4.3h0.7v4.3H718.3z"/>
			<path class="st24" d="M722.9,415.1v-0.5c-0.3,0.4-0.7,0.6-1.2,0.6c-0.3,0-0.7-0.1-0.9-0.3c-0.3-0.2-0.5-0.4-0.7-0.8
				c-0.2-0.3-0.2-0.7-0.2-1.2c0-0.4,0.1-0.8,0.2-1.2c0.1-0.3,0.4-0.6,0.6-0.8c0.3-0.2,0.6-0.3,1-0.3c0.3,0,0.5,0.1,0.7,0.2
				c0.2,0.1,0.4,0.2,0.5,0.4v-2.1h0.7v5.9H722.9z M720.6,413c0,0.5,0.1,1,0.3,1.2c0.2,0.3,0.5,0.4,0.8,0.4c0.3,0,0.6-0.1,0.8-0.4
				c0.2-0.3,0.3-0.7,0.3-1.2c0-0.6-0.1-1-0.3-1.3c-0.2-0.3-0.5-0.4-0.8-0.4c-0.3,0-0.6,0.1-0.8,0.4C720.7,412,720.6,412.4,720.6,413
				z"/>
		</g>
	</g>
	<g class="st5">
		<path class="st24" d="M674.1,357.2l-1.9-7.2h1l1.1,4.7c0.1,0.5,0.2,1,0.3,1.5c0.2-0.8,0.3-1.2,0.3-1.3l1.4-4.8h1.1l1,3.6
			c0.3,0.9,0.4,1.7,0.6,2.5c0.1-0.5,0.2-1,0.4-1.6l1.1-4.6h1l-2,7.2h-0.9l-1.5-5.5c-0.1-0.5-0.2-0.7-0.2-0.8
			c-0.1,0.3-0.1,0.6-0.2,0.8l-1.5,5.5H674.1z"/>
		<path class="st24" d="M681.6,354.6c0-1,0.3-1.7,0.8-2.1c0.4-0.4,1-0.6,1.6-0.6c0.7,0,1.3,0.2,1.7,0.7c0.5,0.5,0.7,1.1,0.7,1.9
			c0,0.7-0.1,1.2-0.3,1.6c-0.2,0.4-0.5,0.7-0.9,0.9c-0.4,0.2-0.8,0.3-1.3,0.3c-0.7,0-1.3-0.2-1.8-0.7
			C681.9,356.2,681.6,355.5,681.6,354.6z M682.5,354.6c0,0.7,0.1,1.2,0.4,1.5c0.3,0.3,0.7,0.5,1.1,0.5c0.4,0,0.8-0.2,1.1-0.5
			c0.3-0.3,0.4-0.8,0.4-1.5c0-0.6-0.1-1.1-0.4-1.5c-0.3-0.3-0.7-0.5-1.1-0.5c-0.4,0-0.8,0.2-1.1,0.5
			C682.7,353.5,682.5,354,682.5,354.6z"/>
		<path class="st24" d="M687.5,357.2V352h0.8v0.8c0.2-0.4,0.4-0.6,0.6-0.7s0.4-0.2,0.6-0.2c0.3,0,0.6,0.1,0.9,0.3L690,353
			c-0.2-0.1-0.4-0.2-0.6-0.2c-0.2,0-0.4,0.1-0.5,0.2c-0.2,0.1-0.3,0.3-0.3,0.5c-0.1,0.3-0.1,0.7-0.1,1v2.7H687.5z"/>
		<path class="st24" d="M690.9,357.2v-7.2h0.9v4.1l2.1-2.1h1.1l-2,1.9l2.2,3.3h-1.1l-1.7-2.7l-0.6,0.6v2.1H690.9z"/>
		<path class="st24" d="M695.5,355.7l0.9-0.1c0,0.3,0.2,0.6,0.4,0.8c0.2,0.2,0.5,0.3,0.9,0.3c0.4,0,0.7-0.1,0.9-0.2
			c0.2-0.2,0.3-0.4,0.3-0.6c0-0.2-0.1-0.4-0.3-0.5c-0.1-0.1-0.4-0.2-0.9-0.3c-0.6-0.2-1.1-0.3-1.3-0.4c-0.2-0.1-0.4-0.3-0.6-0.5
			c-0.1-0.2-0.2-0.4-0.2-0.7c0-0.2,0.1-0.4,0.2-0.6c0.1-0.2,0.2-0.4,0.4-0.5c0.1-0.1,0.3-0.2,0.6-0.3c0.2-0.1,0.5-0.1,0.8-0.1
			c0.4,0,0.8,0.1,1.1,0.2s0.5,0.3,0.7,0.5c0.1,0.2,0.2,0.5,0.3,0.8l-0.9,0.1c0-0.3-0.2-0.5-0.3-0.6c-0.2-0.1-0.5-0.2-0.8-0.2
			c-0.4,0-0.7,0.1-0.9,0.2c-0.2,0.1-0.3,0.3-0.3,0.5c0,0.1,0,0.2,0.1,0.3c0.1,0.1,0.2,0.2,0.3,0.2c0.1,0,0.3,0.1,0.8,0.2
			c0.6,0.2,1.1,0.3,1.3,0.4c0.2,0.1,0.4,0.3,0.6,0.5c0.1,0.2,0.2,0.5,0.2,0.8c0,0.3-0.1,0.6-0.3,0.8c-0.2,0.3-0.4,0.5-0.7,0.6
			c-0.3,0.1-0.7,0.2-1.1,0.2c-0.7,0-1.2-0.1-1.5-0.4C695.8,356.6,695.6,356.2,695.5,355.7z"/>
		<path class="st24" d="M700.8,357.2v-7.2h0.9v2.6c0.4-0.5,0.9-0.7,1.6-0.7c0.4,0,0.7,0.1,1,0.2c0.3,0.2,0.5,0.4,0.6,0.6
			s0.2,0.7,0.2,1.2v3.3h-0.9v-3.3c0-0.4-0.1-0.8-0.3-1c-0.2-0.2-0.5-0.3-0.8-0.3c-0.3,0-0.5,0.1-0.7,0.2c-0.2,0.1-0.4,0.3-0.5,0.5
			s-0.1,0.5-0.1,1v2.8H700.8z"/>
		<path class="st24" d="M706.1,354.6c0-1,0.3-1.7,0.8-2.1c0.4-0.4,1-0.6,1.6-0.6c0.7,0,1.3,0.2,1.7,0.7c0.5,0.5,0.7,1.1,0.7,1.9
			c0,0.7-0.1,1.2-0.3,1.6c-0.2,0.4-0.5,0.7-0.9,0.9c-0.4,0.2-0.8,0.3-1.3,0.3c-0.7,0-1.3-0.2-1.8-0.7
			C706.3,356.2,706.1,355.5,706.1,354.6z M707,354.6c0,0.7,0.1,1.2,0.4,1.5c0.3,0.3,0.7,0.5,1.1,0.5c0.4,0,0.8-0.2,1.1-0.5
			c0.3-0.3,0.4-0.8,0.4-1.5c0-0.6-0.1-1.1-0.4-1.5c-0.3-0.3-0.7-0.5-1.1-0.5c-0.4,0-0.8,0.2-1.1,0.5C707.1,353.5,707,354,707,354.6z
			"/>
		<path class="st24" d="M712,359.2V352h0.8v0.7c0.2-0.3,0.4-0.5,0.6-0.6c0.2-0.1,0.5-0.2,0.9-0.2c0.4,0,0.8,0.1,1.2,0.3
			c0.3,0.2,0.6,0.5,0.8,1c0.2,0.4,0.3,0.9,0.3,1.4c0,0.5-0.1,1-0.3,1.4c-0.2,0.4-0.5,0.8-0.8,1c-0.4,0.2-0.7,0.3-1.1,0.3
			c-0.3,0-0.6-0.1-0.8-0.2c-0.2-0.1-0.4-0.3-0.6-0.5v2.5H712z M712.8,354.7c0,0.7,0.1,1.2,0.4,1.5c0.3,0.3,0.6,0.5,1,0.5
			c0.4,0,0.7-0.2,1-0.5c0.3-0.3,0.4-0.8,0.4-1.5c0-0.7-0.1-1.2-0.4-1.5c-0.3-0.3-0.6-0.5-1-0.5c-0.4,0-0.7,0.2-1,0.5
			C712.9,353.5,712.8,354,712.8,354.7z"/>
		<path class="st24" d="M719.1,357.2l2.7-7.2h1l2.9,7.2h-1.1l-0.8-2.2h-3l-0.8,2.2H719.1z M721.1,354.3h2.4l-0.7-2
			c-0.2-0.6-0.4-1.1-0.5-1.5c-0.1,0.5-0.2,0.9-0.4,1.4L721.1,354.3z"/>
		<path class="st24" d="M726.4,357.2V352h0.8v0.8c0.2-0.4,0.4-0.6,0.6-0.7s0.4-0.2,0.6-0.2c0.3,0,0.6,0.1,0.9,0.3l-0.3,0.8
			c-0.2-0.1-0.4-0.2-0.6-0.2c-0.2,0-0.4,0.1-0.5,0.2c-0.2,0.1-0.3,0.3-0.3,0.5c-0.1,0.3-0.1,0.7-0.1,1v2.7H726.4z"/>
		<path class="st24" d="M733.3,355.5l0.9,0.1c-0.1,0.5-0.4,0.9-0.8,1.2c-0.4,0.3-0.9,0.4-1.5,0.4c-0.8,0-1.4-0.2-1.8-0.7
			c-0.4-0.5-0.7-1.1-0.7-2c0-0.9,0.2-1.5,0.7-2s1-0.7,1.7-0.7c0.7,0,1.3,0.2,1.7,0.7s0.7,1.1,0.7,2c0,0.1,0,0.1,0,0.2h-3.9
			c0,0.6,0.2,1,0.5,1.3c0.3,0.3,0.7,0.5,1.1,0.5c0.3,0,0.6-0.1,0.8-0.3C733,356.2,733.2,355.9,733.3,355.5z M730.4,354.1h2.9
			c0-0.4-0.2-0.8-0.3-1c-0.3-0.3-0.6-0.5-1.1-0.5c-0.4,0-0.7,0.1-1,0.4C730.6,353.3,730.5,353.7,730.4,354.1z"/>
		<path class="st24" d="M738.7,356.6c-0.3,0.3-0.6,0.5-0.9,0.6c-0.3,0.1-0.6,0.2-1,0.2c-0.6,0-1-0.1-1.3-0.4
			c-0.3-0.3-0.5-0.6-0.5-1.1c0-0.3,0.1-0.5,0.2-0.7c0.1-0.2,0.3-0.4,0.5-0.5c0.2-0.1,0.4-0.2,0.6-0.3c0.2,0,0.4-0.1,0.8-0.1
			c0.7-0.1,1.2-0.2,1.6-0.3c0-0.1,0-0.2,0-0.2c0-0.4-0.1-0.6-0.2-0.8c-0.2-0.2-0.6-0.3-1-0.3c-0.4,0-0.7,0.1-0.9,0.2
			c-0.2,0.1-0.3,0.4-0.4,0.8l-0.9-0.1c0.1-0.4,0.2-0.7,0.4-0.9c0.2-0.2,0.4-0.4,0.8-0.5c0.3-0.1,0.7-0.2,1.2-0.2
			c0.4,0,0.8,0.1,1.1,0.2c0.3,0.1,0.5,0.2,0.6,0.4c0.1,0.2,0.2,0.4,0.3,0.6c0,0.1,0,0.4,0,0.8v1.2c0,0.8,0,1.3,0.1,1.5
			c0,0.2,0.1,0.4,0.2,0.6h-0.9C738.8,357,738.7,356.8,738.7,356.6z M738.6,354.6c-0.3,0.1-0.8,0.2-1.4,0.3c-0.4,0.1-0.6,0.1-0.8,0.2
			c-0.2,0.1-0.3,0.2-0.3,0.3c-0.1,0.1-0.1,0.3-0.1,0.4c0,0.2,0.1,0.4,0.3,0.6c0.2,0.2,0.4,0.2,0.8,0.2c0.3,0,0.6-0.1,0.9-0.2
			c0.3-0.1,0.5-0.4,0.6-0.6c0.1-0.2,0.1-0.5,0.1-0.9V354.6z"/>
	</g>
	<g class="st5">
		<path class="st24" d="M329.1,445.8v-6.3h-2.4v-0.8h5.7v0.8H330v6.3H329.1z"/>
		<path class="st24" d="M335.7,444.1l0.9,0.1c-0.1,0.5-0.4,0.9-0.8,1.2s-0.9,0.4-1.5,0.4c-0.8,0-1.4-0.2-1.8-0.7
			c-0.4-0.5-0.7-1.1-0.7-2c0-0.9,0.2-1.5,0.7-2s1-0.7,1.7-0.7c0.7,0,1.3,0.2,1.7,0.7s0.7,1.1,0.7,2c0,0.1,0,0.1,0,0.2h-3.9
			c0,0.6,0.2,1,0.5,1.3s0.7,0.5,1.1,0.5c0.3,0,0.6-0.1,0.8-0.3S335.6,444.5,335.7,444.1z M332.8,442.7h2.9c0-0.4-0.1-0.8-0.3-1
			c-0.3-0.3-0.6-0.5-1.1-0.5c-0.4,0-0.7,0.1-1,0.4S332.9,442.3,332.8,442.7z"/>
		<path class="st24" d="M337.1,445.8l1.9-2.7l-1.8-2.5h1.1l0.8,1.2c0.1,0.2,0.3,0.4,0.4,0.6c0.1-0.2,0.3-0.4,0.4-0.6l0.9-1.2h1
			l-1.8,2.4l1.9,2.7h-1.1l-1.1-1.6l-0.3-0.4l-1.4,2H337.1z"/>
		<path class="st24" d="M344.6,445l0.1,0.8c-0.2,0.1-0.5,0.1-0.7,0.1c-0.3,0-0.6-0.1-0.7-0.2s-0.3-0.2-0.4-0.4
			c-0.1-0.2-0.1-0.5-0.1-1v-3h-0.6v-0.7h0.6v-1.3l0.9-0.5v1.8h0.9v0.7h-0.9v3c0,0.3,0,0.4,0,0.5s0.1,0.1,0.2,0.2s0.2,0.1,0.3,0.1
			C344.4,445,344.5,445,344.6,445z"/>
		<path class="st24" d="M345.5,439.7v-1h0.9v1H345.5z M345.5,445.8v-5.2h0.9v5.2H345.5z"/>
		<path class="st24" d="M347.7,445.8v-7.2h0.9v7.2H347.7z"/>
		<path class="st24" d="M353.5,444.1l0.9,0.1c-0.1,0.5-0.4,0.9-0.8,1.2s-0.9,0.4-1.5,0.4c-0.8,0-1.4-0.2-1.8-0.7
			c-0.4-0.5-0.7-1.1-0.7-2c0-0.9,0.2-1.5,0.7-2s1-0.7,1.7-0.7c0.7,0,1.3,0.2,1.7,0.7s0.7,1.1,0.7,2c0,0.1,0,0.1,0,0.2h-3.9
			c0,0.6,0.2,1,0.5,1.3s0.7,0.5,1.1,0.5c0.3,0,0.6-0.1,0.8-0.3S353.4,444.5,353.5,444.1z M350.6,442.7h2.9c0-0.4-0.1-0.8-0.3-1
			c-0.3-0.3-0.6-0.5-1.1-0.5c-0.4,0-0.7,0.1-1,0.4S350.6,442.3,350.6,442.7z"/>
		<path class="st24" d="M359.6,445.8l-1.9-7.2h1l1.1,4.7c0.1,0.5,0.2,1,0.3,1.5c0.2-0.8,0.3-1.2,0.3-1.3l1.4-4.8h1.1l1,3.6
			c0.3,0.9,0.4,1.7,0.6,2.5c0.1-0.5,0.2-1,0.4-1.6l1.1-4.6h1l-2,7.2h-0.9l-1.5-5.5c-0.1-0.5-0.2-0.7-0.2-0.8
			c-0.1,0.3-0.1,0.6-0.2,0.8l-1.5,5.5H359.6z"/>
		<path class="st24" d="M367.2,443.2c0-1,0.3-1.7,0.8-2.1c0.4-0.4,1-0.6,1.6-0.6c0.7,0,1.3,0.2,1.7,0.7c0.5,0.5,0.7,1.1,0.7,1.9
			c0,0.7-0.1,1.2-0.3,1.6c-0.2,0.4-0.5,0.7-0.9,0.9s-0.8,0.3-1.3,0.3c-0.7,0-1.3-0.2-1.8-0.7S367.2,444.1,367.2,443.2z M368.1,443.2
			c0,0.7,0.1,1.2,0.4,1.5c0.3,0.3,0.7,0.5,1.1,0.5c0.4,0,0.8-0.2,1.1-0.5s0.4-0.8,0.4-1.5c0-0.6-0.1-1.1-0.4-1.5
			c-0.3-0.3-0.7-0.5-1.1-0.5c-0.4,0-0.8,0.2-1.1,0.5S368.1,442.5,368.1,443.2z"/>
		<path class="st24" d="M373.1,445.8v-5.2h0.8v0.8c0.2-0.4,0.4-0.6,0.6-0.7s0.4-0.2,0.6-0.2c0.3,0,0.6,0.1,0.9,0.3l-0.3,0.8
			c-0.2-0.1-0.4-0.2-0.6-0.2c-0.2,0-0.4,0.1-0.5,0.2c-0.2,0.1-0.3,0.3-0.3,0.5c-0.1,0.3-0.1,0.7-0.1,1v2.7H373.1z"/>
		<path class="st24" d="M376.4,445.8v-7.2h0.9v4.1l2.1-2.1h1.1l-2,1.9l2.2,3.3h-1.1l-1.7-2.7l-0.6,0.6v2.1H376.4z"/>
		<path class="st24" d="M381.1,444.3l0.9-0.1c0,0.3,0.2,0.6,0.4,0.8s0.5,0.3,0.9,0.3c0.4,0,0.7-0.1,0.9-0.2c0.2-0.2,0.3-0.4,0.3-0.6
			c0-0.2-0.1-0.4-0.3-0.5c-0.1-0.1-0.4-0.2-0.9-0.3c-0.6-0.2-1.1-0.3-1.3-0.4c-0.2-0.1-0.4-0.3-0.6-0.5c-0.1-0.2-0.2-0.4-0.2-0.7
			c0-0.2,0.1-0.4,0.2-0.6c0.1-0.2,0.2-0.4,0.4-0.5c0.1-0.1,0.3-0.2,0.6-0.3c0.2-0.1,0.5-0.1,0.8-0.1c0.4,0,0.8,0.1,1.1,0.2
			s0.5,0.3,0.7,0.5c0.1,0.2,0.2,0.5,0.3,0.8l-0.9,0.1c0-0.3-0.2-0.5-0.3-0.6s-0.5-0.2-0.8-0.2c-0.4,0-0.7,0.1-0.9,0.2
			s-0.3,0.3-0.3,0.5c0,0.1,0,0.2,0.1,0.3c0.1,0.1,0.2,0.2,0.3,0.2c0.1,0,0.3,0.1,0.8,0.2c0.6,0.2,1.1,0.3,1.3,0.4
			c0.2,0.1,0.4,0.3,0.6,0.5s0.2,0.5,0.2,0.8c0,0.3-0.1,0.6-0.3,0.8c-0.2,0.3-0.4,0.5-0.7,0.6c-0.3,0.1-0.7,0.2-1.1,0.2
			c-0.7,0-1.2-0.1-1.5-0.4S381.2,444.8,381.1,444.3z"/>
		<path class="st24" d="M386.4,445.8v-7.2h0.9v2.6c0.4-0.5,0.9-0.7,1.6-0.7c0.4,0,0.7,0.1,1,0.2c0.3,0.2,0.5,0.4,0.6,0.6
			s0.2,0.7,0.2,1.2v3.3h-0.9v-3.3c0-0.4-0.1-0.8-0.3-1c-0.2-0.2-0.5-0.3-0.8-0.3c-0.3,0-0.5,0.1-0.7,0.2c-0.2,0.1-0.4,0.3-0.5,0.5
			s-0.1,0.5-0.1,1v2.8H386.4z"/>
		<path class="st24" d="M391.7,443.2c0-1,0.3-1.7,0.8-2.1c0.4-0.4,1-0.6,1.6-0.6c0.7,0,1.3,0.2,1.7,0.7c0.5,0.5,0.7,1.1,0.7,1.9
			c0,0.7-0.1,1.2-0.3,1.6c-0.2,0.4-0.5,0.7-0.9,0.9s-0.8,0.3-1.3,0.3c-0.7,0-1.3-0.2-1.8-0.7S391.7,444.1,391.7,443.2z M392.6,443.2
			c0,0.7,0.1,1.2,0.4,1.5c0.3,0.3,0.7,0.5,1.1,0.5c0.4,0,0.8-0.2,1.1-0.5s0.4-0.8,0.4-1.5c0-0.6-0.1-1.1-0.4-1.5
			c-0.3-0.3-0.7-0.5-1.1-0.5c-0.4,0-0.8,0.2-1.1,0.5S392.6,442.5,392.6,443.2z"/>
		<path class="st24" d="M397.6,447.8v-7.2h0.8v0.7c0.2-0.3,0.4-0.5,0.6-0.6c0.2-0.1,0.5-0.2,0.9-0.2c0.4,0,0.8,0.1,1.2,0.3
			s0.6,0.5,0.8,1c0.2,0.4,0.3,0.9,0.3,1.4c0,0.5-0.1,1-0.3,1.4c-0.2,0.4-0.5,0.8-0.8,1c-0.4,0.2-0.7,0.3-1.1,0.3
			c-0.3,0-0.6-0.1-0.8-0.2s-0.4-0.3-0.6-0.5v2.5H397.6z M398.4,443.2c0,0.7,0.1,1.2,0.4,1.5s0.6,0.5,1,0.5c0.4,0,0.7-0.2,1-0.5
			c0.3-0.3,0.4-0.8,0.4-1.5c0-0.7-0.1-1.2-0.4-1.5s-0.6-0.5-1-0.5c-0.4,0-0.7,0.2-1,0.5C398.5,442.1,398.4,442.6,398.4,443.2z"/>
	</g>
	<g class="st5">
		<path class="st24" d="M991.5,246.8v-7.2h1.4l1.7,5.1c0.2,0.5,0.3,0.8,0.3,1.1c0.1-0.3,0.2-0.6,0.4-1.1l1.7-5h1.3v7.2h-0.9v-6
			l-2.1,6h-0.9l-2.1-6.1v6.1H991.5z"/>
		<path class="st24" d="M1003.3,245.1l0.9,0.1c-0.1,0.5-0.4,0.9-0.8,1.2c-0.4,0.3-0.9,0.4-1.5,0.4c-0.8,0-1.4-0.2-1.8-0.7
			c-0.4-0.5-0.7-1.1-0.7-2c0-0.9,0.2-1.5,0.7-2s1-0.7,1.7-0.7c0.7,0,1.3,0.2,1.7,0.7s0.7,1.1,0.7,2c0,0.1,0,0.1,0,0.2h-3.9
			c0,0.6,0.2,1,0.5,1.3c0.3,0.3,0.7,0.5,1.1,0.5c0.3,0,0.6-0.1,0.8-0.3C1003,245.8,1003.2,245.5,1003.3,245.1z M1000.5,243.7h2.9
			c0-0.4-0.2-0.8-0.3-1c-0.3-0.3-0.6-0.5-1.1-0.5c-0.4,0-0.7,0.1-1,0.4C1000.6,242.9,1000.5,243.3,1000.5,243.7z"/>
		<path class="st24" d="M1007.3,246l0.1,0.8c-0.2,0.1-0.5,0.1-0.7,0.1c-0.3,0-0.6-0.1-0.7-0.2s-0.3-0.2-0.4-0.4
			c-0.1-0.2-0.1-0.5-0.1-1v-3h-0.6v-0.7h0.6v-1.3l0.9-0.5v1.8h0.9v0.7h-0.9v3c0,0.3,0,0.4,0,0.5c0,0.1,0.1,0.1,0.2,0.2
			c0.1,0,0.2,0.1,0.3,0.1C1007,246,1007.1,246,1007.3,246z"/>
		<path class="st24" d="M1011.5,246.2c-0.3,0.3-0.6,0.5-0.9,0.6c-0.3,0.1-0.6,0.2-1,0.2c-0.6,0-1-0.1-1.3-0.4
			c-0.3-0.3-0.5-0.6-0.5-1.1c0-0.3,0.1-0.5,0.2-0.7c0.1-0.2,0.3-0.4,0.5-0.5c0.2-0.1,0.4-0.2,0.6-0.3c0.2,0,0.4-0.1,0.8-0.1
			c0.7-0.1,1.2-0.2,1.6-0.3c0-0.1,0-0.2,0-0.2c0-0.4-0.1-0.6-0.2-0.8c-0.2-0.2-0.6-0.3-1-0.3c-0.4,0-0.7,0.1-0.9,0.2
			c-0.2,0.1-0.3,0.4-0.4,0.8l-0.9-0.1c0.1-0.4,0.2-0.7,0.4-0.9c0.2-0.2,0.4-0.4,0.8-0.5c0.3-0.1,0.7-0.2,1.2-0.2
			c0.4,0,0.8,0.1,1.1,0.2c0.3,0.1,0.5,0.2,0.6,0.4c0.1,0.2,0.2,0.4,0.3,0.6c0,0.1,0,0.4,0,0.8v1.2c0,0.8,0,1.3,0.1,1.5
			c0,0.2,0.1,0.4,0.2,0.6h-0.9C1011.6,246.6,1011.5,246.4,1011.5,246.2z M1011.4,244.2c-0.3,0.1-0.8,0.2-1.4,0.3
			c-0.4,0.1-0.6,0.1-0.8,0.2c-0.2,0.1-0.3,0.2-0.3,0.3c-0.1,0.1-0.1,0.3-0.1,0.4c0,0.2,0.1,0.4,0.3,0.6c0.2,0.2,0.4,0.2,0.8,0.2
			c0.3,0,0.6-0.1,0.9-0.2c0.3-0.1,0.5-0.4,0.6-0.6c0.1-0.2,0.1-0.5,0.1-0.9V244.2z"/>
		<path class="st24" d="M1013.7,246.8v-7.2h0.9v7.2H1013.7z"/>
		<path class="st24" d="M1020.1,246.8l-1.9-7.2h1l1.1,4.7c0.1,0.5,0.2,1,0.3,1.5c0.2-0.8,0.3-1.2,0.3-1.3l1.4-4.8h1.1l1,3.6
			c0.3,0.9,0.4,1.7,0.6,2.5c0.1-0.5,0.2-1,0.4-1.6l1.1-4.6h1l-2,7.2h-0.9l-1.5-5.5c-0.1-0.5-0.2-0.7-0.2-0.8
			c-0.1,0.3-0.1,0.6-0.2,0.8l-1.5,5.5H1020.1z"/>
		<path class="st24" d="M1027.6,244.2c0-1,0.3-1.7,0.8-2.1c0.4-0.4,1-0.6,1.6-0.6c0.7,0,1.3,0.2,1.7,0.7c0.5,0.5,0.7,1.1,0.7,1.9
			c0,0.7-0.1,1.2-0.3,1.6c-0.2,0.4-0.5,0.7-0.9,0.9c-0.4,0.2-0.8,0.3-1.3,0.3c-0.7,0-1.3-0.2-1.8-0.7
			C1027.8,245.8,1027.6,245.1,1027.6,244.2z M1028.5,244.2c0,0.7,0.1,1.2,0.4,1.5c0.3,0.3,0.7,0.5,1.1,0.5c0.4,0,0.8-0.2,1.1-0.5
			c0.3-0.3,0.4-0.8,0.4-1.5c0-0.6-0.1-1.1-0.4-1.5c-0.3-0.3-0.7-0.5-1.1-0.5c-0.4,0-0.8,0.2-1.1,0.5
			C1028.7,243,1028.5,243.5,1028.5,244.2z"/>
		<path class="st24" d="M1033.5,246.8v-5.2h0.8v0.8c0.2-0.4,0.4-0.6,0.6-0.7s0.4-0.2,0.6-0.2c0.3,0,0.6,0.1,0.9,0.3l-0.3,0.8
			c-0.2-0.1-0.4-0.2-0.6-0.2c-0.2,0-0.4,0.1-0.5,0.2c-0.2,0.1-0.3,0.3-0.3,0.5c-0.1,0.3-0.1,0.7-0.1,1v2.7H1033.5z"/>
		<path class="st24" d="M1036.8,246.8v-7.2h0.9v4.1l2.1-2.1h1.1l-2,1.9l2.2,3.3h-1.1l-1.7-2.7l-0.6,0.6v2.1H1036.8z"/>
		<path class="st24" d="M1041.5,245.3l0.9-0.1c0,0.3,0.2,0.6,0.4,0.8c0.2,0.2,0.5,0.3,0.9,0.3c0.4,0,0.7-0.1,0.9-0.2
			c0.2-0.2,0.3-0.4,0.3-0.6c0-0.2-0.1-0.4-0.3-0.5c-0.1-0.1-0.4-0.2-0.9-0.3c-0.6-0.2-1.1-0.3-1.3-0.4c-0.2-0.1-0.4-0.3-0.6-0.5
			c-0.1-0.2-0.2-0.4-0.2-0.7c0-0.2,0.1-0.4,0.2-0.6c0.1-0.2,0.2-0.4,0.4-0.5c0.1-0.1,0.3-0.2,0.6-0.3c0.2-0.1,0.5-0.1,0.8-0.1
			c0.4,0,0.8,0.1,1.1,0.2s0.5,0.3,0.7,0.5c0.1,0.2,0.2,0.5,0.3,0.8l-0.9,0.1c0-0.3-0.2-0.5-0.3-0.6c-0.2-0.1-0.5-0.2-0.8-0.2
			c-0.4,0-0.7,0.1-0.9,0.2c-0.2,0.1-0.3,0.3-0.3,0.5c0,0.1,0,0.2,0.1,0.3c0.1,0.1,0.2,0.2,0.3,0.2c0.1,0,0.3,0.1,0.8,0.2
			c0.6,0.2,1.1,0.3,1.3,0.4c0.2,0.1,0.4,0.3,0.6,0.5c0.1,0.2,0.2,0.5,0.2,0.8c0,0.3-0.1,0.6-0.3,0.8c-0.2,0.3-0.4,0.5-0.7,0.6
			c-0.3,0.1-0.7,0.2-1.1,0.2c-0.7,0-1.2-0.1-1.5-0.4C1041.8,246.2,1041.6,245.8,1041.5,245.3z"/>
		<path class="st24" d="M1046.8,246.8v-7.2h0.9v2.6c0.4-0.5,0.9-0.7,1.6-0.7c0.4,0,0.7,0.1,1,0.2c0.3,0.2,0.5,0.4,0.6,0.6
			s0.2,0.7,0.2,1.2v3.3h-0.9v-3.3c0-0.4-0.1-0.8-0.3-1c-0.2-0.2-0.5-0.3-0.8-0.3c-0.3,0-0.5,0.1-0.7,0.2c-0.2,0.1-0.4,0.3-0.5,0.5
			s-0.1,0.5-0.1,1v2.8H1046.8z"/>
		<path class="st24" d="M1052.1,244.2c0-1,0.3-1.7,0.8-2.1c0.4-0.4,1-0.6,1.6-0.6c0.7,0,1.3,0.2,1.7,0.7c0.5,0.5,0.7,1.1,0.7,1.9
			c0,0.7-0.1,1.2-0.3,1.6c-0.2,0.4-0.5,0.7-0.9,0.9c-0.4,0.2-0.8,0.3-1.3,0.3c-0.7,0-1.3-0.2-1.8-0.7
			C1052.3,245.8,1052.1,245.1,1052.1,244.2z M1053,244.2c0,0.7,0.1,1.2,0.4,1.5c0.3,0.3,0.7,0.5,1.1,0.5c0.4,0,0.8-0.2,1.1-0.5
			c0.3-0.3,0.4-0.8,0.4-1.5c0-0.6-0.1-1.1-0.4-1.5c-0.3-0.3-0.7-0.5-1.1-0.5c-0.4,0-0.8,0.2-1.1,0.5
			C1053.1,243,1053,243.5,1053,244.2z"/>
		<path class="st24" d="M1058,248.8v-7.2h0.8v0.7c0.2-0.3,0.4-0.5,0.6-0.6c0.2-0.1,0.5-0.2,0.9-0.2c0.4,0,0.8,0.1,1.2,0.3
			c0.3,0.2,0.6,0.5,0.8,1c0.2,0.4,0.3,0.9,0.3,1.4c0,0.5-0.1,1-0.3,1.4c-0.2,0.4-0.5,0.8-0.8,1c-0.4,0.2-0.7,0.3-1.1,0.3
			c-0.3,0-0.6-0.1-0.8-0.2c-0.2-0.1-0.4-0.3-0.6-0.5v2.5H1058z M1058.8,244.2c0,0.7,0.1,1.2,0.4,1.5c0.3,0.3,0.6,0.5,1,0.5
			c0.4,0,0.7-0.2,1-0.5c0.3-0.3,0.4-0.8,0.4-1.5c0-0.7-0.1-1.2-0.4-1.5c-0.3-0.3-0.6-0.5-1-0.5c-0.4,0-0.7,0.2-1,0.5
			C1058.9,243.1,1058.8,243.6,1058.8,244.2z"/>
	</g>
</g>
<polyline class="st29" points="687.8,411.9 687.8,364.8 728.4,364.8 728.4,411.9 "/>
<line class="st8" x1="589.6" y1="414.6" x2="635.9" y2="414.6"/>
</svg>
