<?xml version="1.0" encoding="utf-8"?>
<!-- Generator: Adobe Illustrator 25.2.3, SVG Export Plug-In . SVG Version: 6.00 Build 0)  -->
<svg version="1.1" id="Layer_1" xmlns="http://www.w3.org/2000/svg" xmlns:xlink="http://www.w3.org/1999/xlink" x="0px" y="0px"
	 viewBox="0 0 756.8 584" style="enable-background:new 0 0 756.8 584;" xml:space="preserve">
<style type="text/css">
	.st0{fill:#4196B1;}
	.st1{fill:#A8E0E5;}
	.st2{fill:#99B8BF;}
	.st3{fill:#8ECCCE;}
	.st4{opacity:5.000000e-02;fill:#030303;enable-background:new    ;}
	.st5{fill:#B8BFC1;}
	.st6{fill:#FFFFFF;}
	.st7{fill:none;stroke:#DADCDC;stroke-width:0.512;stroke-miterlimit:10;}
	.st8{opacity:0.15;fill:#010101;enable-background:new    ;}
	.st9{fill:#596068;}
	.st10{fill:#9BAEB7;}
	.st11{fill:none;stroke:#7A8E93;stroke-width:1.992;stroke-linecap:round;stroke-miterlimit:10;}
	.st12{opacity:0.15;fill:#0D5577;enable-background:new    ;}
	.st13{fill:#0D5577;}
	.st14{fill:#83D8EF;stroke:#53C5F1;stroke-width:0.799;stroke-linecap:round;stroke-linejoin:round;}
	.st15{fill:#4E9FB9;stroke:#4A90A0;stroke-width:0.799;stroke-linecap:round;stroke-linejoin:round;}
	.st16{opacity:0.43;fill:#53C5F1;enable-background:new    ;}
	.st17{opacity:8.000000e-02;fill:#101010;enable-background:new    ;}
	.st18{fill:#7A8E93;stroke:#758589;stroke-width:0.518;stroke-miterlimit:10;}
	.st19{fill:#9BAEB7;stroke:#93A6AD;stroke-width:0.518;stroke-miterlimit:10;}
	.st20{opacity:0.74;fill:#575757;enable-background:new    ;}
	.st21{font-family:'Arial-BoldMT';}
	.st22{font-size:10px;}
	.st23{fill:none;stroke:#FFFFFF;stroke-width:6;stroke-miterlimit:10;}
	.st24{fill:none;stroke:#FFFFFF;stroke-width:3;stroke-miterlimit:10;}
	.st25{fill:#767E80;}
	.st26{font-family:'ArialMT';}
	.st27{font-size:11.407px;}
	.st28{fill:#EBF1F2;}
	.st29{fill:none;stroke:#7A8E93;stroke-width:0.827;stroke-miterlimit:10;}
	.st30{font-size:10.2055px;}
	.st31{font-size:7.917px;}
	.st32{fill:none;stroke:#7A8E93;stroke-width:0.74;stroke-linecap:round;stroke-linejoin:round;}
	.st33{font-size:6.9685px;}
	.st34{font-size:7.436px;}
	.st35{font-size:7.557px;}
	.st36{fill:#7A8E93;}
</style>
<g id="shadow">
	<polygon class="st0" points="103.9,80.3 103.9,231.1 17.8,231.1 17.8,366.7 103.9,366.7 103.9,523 310.8,523 310.8,555.1 
		336.4,555.1 336.4,568.4 701.7,568.4 701.7,490.2 701.7,379.7 727.4,379.7 727.4,340.5 740.5,340.5 740.5,265.2 727.9,265.2 
		727.9,225.5 696.7,225.5 696.7,53.2 696.7,37.4 342.7,37.4 342.7,80.7 	"/>
</g>
<g id="background">
	<polygon class="st1" points="103.9,65.9 103.9,216.7 17.8,216.7 17.8,352.3 103.9,352.3 103.9,508.6 310.8,508.6 310.8,540.6 
		336.4,540.6 336.4,554 701.7,554 701.7,475.8 701.7,365.3 727.4,365.3 727.4,326 740.5,326 740.5,250.7 727.9,250.7 727.9,211 
		696.7,211 696.7,38.8 696.7,23 342.7,23 342.7,66.3 	"/>
</g>
<g id="shapes">
	<rect x="17.8" y="215.7" class="st2" width="86.3" height="136.4"/>
	<polygon class="st3" points="103.9,65.9 342.7,65.9 342.7,23 696.7,23 696.7,234.8 589.9,234.6 589.9,197.8 533.9,197.8 
		533.9,245.1 330.1,245.1 330.1,339.2 606.7,339.2 637.3,339.2 637.3,334.9 653.4,334.9 653.4,325.9 659.8,325.9 659.8,307.8 
		696.7,322.3 696.7,365.2 701.7,365.2 701.7,554 336.4,554 336.4,540.2 310.8,540.2 310.8,508.8 103.9,508.8 104.4,196 	"/>
	<polygon class="st2" points="660.3,234.5 696.7,234.5 696.7,211 726.8,211 726.8,250.6 740.5,250.6 740.5,326 727.4,326 
		727.4,365.3 696.7,365.3 696.7,322.3 659.8,307.8 	"/>
	<rect x="330.6" y="340.2" class="st3" width="37.4" height="49.5"/>
	<polygon class="st3" points="310,508.1 366.9,508.1 366.9,555.4 336.4,555.4 336.4,543.1 310.8,543.1 	"/>
</g>
<g id="furniture">
	<g id="details-5">
		<path class="st4" d="M129.2,261.8l132.6-0.4c2.1,0,3.8,1.6,3.8,3.7v0.1l0,0v45.7c0,2.1-1.6,3.8-3.7,3.8h-0.1l0,0l-132.6,0.4
			c-2.1,0-3.8-1.6-3.8-3.7v-0.1l0,0v-45.7c-0.1-2,1.4-3.7,3.4-3.8C128.9,261.8,129.1,261.8,129.2,261.8L129.2,261.8z"/>
		<path class="st5" d="M131.1,261.8l132.6-0.4c2.1,0,3.8,1.6,3.8,3.7v0.1l0,0v45.7c0,2.1-1.6,3.8-3.7,3.8h-0.1l0,0l-132.6,0.4
			c-2.1,0-3.8-1.6-3.8-3.7v-0.1l0,0v-45.7C127.3,263.5,129,261.8,131.1,261.8L131.1,261.8z"/>
	</g>
	<g id="tables-6">
		<path class="st6" d="M220.7,314.9h43.8c2.1,0,3.8-1.6,3.8-3.7v-0.1l0,0v-23.2h-47.6L220.7,314.9L220.7,314.9z"/>
		<path class="st6" d="M129.5,287.7v23.2c0,2.1,1.6,3.8,3.7,3.8h0.1H176v-27.1h-46.5V287.7z"/>
		<path class="st6" d="M176,287.5v-26.3h-42.7c-2.1,0-3.8,1.6-3.8,3.7v0.1v22.5L176,287.5L176,287.5z"/>
		<rect x="175.4" y="261.3" class="st6" width="45.7" height="26.7"/>
		<rect x="176.2" y="287.7" class="st6" width="45.3" height="27.3"/>
		<path class="st6" d="M268.3,287.7v-22.5c0-2.1-1.6-3.8-3.7-3.8h-0.1h-43.8v26.3H268.3z"/>
	</g>
	<g id="dividers-5">
		<line class="st7" x1="221.1" y1="315" x2="221.1" y2="261.6"/>
		<line class="st7" x1="176.2" y1="315" x2="176" y2="261.6"/>
		<line class="st7" x1="268.3" y1="287.7" x2="129.5" y2="287.7"/>
	</g>
	<g id="chairs-6">
		<path class="st8" d="M151.8,319.5l4.9,0.1c3.7,0.1,6.7,3.1,6.6,6.8c0,0,0,0,0,0.1v0.4l-0.3,4.8c-0.3,4.8-4.3,8.4-9.1,8.4l0,0
			c-4.8,0-8.7-3.9-8.8-8.7l-0.1-4.8c-0.1-3.7,2.8-6.9,6.5-7l0,0C151.6,319.5,151.7,319.5,151.8,319.5z"/>
		<path class="st9" d="M152.3,319.1l4.8,0.1c3.7,0,6.7,3.1,6.6,6.8c0,0,0,0,0,0.1v0.4l-0.3,4.8c-0.3,4.8-4.3,8.4-9.1,8.4l0,0
			c-4.8,0-8.7-3.9-8.8-8.7l-0.1-4.8c-0.1-3.7,2.8-6.9,6.5-7C152,319.1,152.2,319.1,152.3,319.1z"/>
		<path class="st10" d="M154,317.5l4.8,0.1c3.7,0.1,6.7,3.1,6.6,6.8c0,0,0,0,0,0.1l0,0v0.4l-0.3,4.8c-0.3,4.8-4.3,8.4-9.1,8.4l0,0
			c-4.8,0-8.7-3.9-8.8-8.7l-0.1-4.8c-0.1-3.7,2.8-6.9,6.5-7l0,0C153.7,317.5,153.8,317.5,154,317.5z"/>
		<path class="st11" d="M165.6,323.8l-0.5,5.9c-0.3,4.8-4.3,8.4-9.1,8.4l0,0c-4.8,0-8.7-3.9-8.8-8.7l-0.3-5.9"/>
		<path class="st8" d="M150.5,257.2L150.5,257.2c-3.7-0.2-6.6-3.3-6.5-7l0.1-4.9c0.2-4.8,4-8.6,8.8-8.7l0,0c4.8-0.1,8.9,3.6,9.1,8.4
			l0.3,4.8v0.4c0,3.7-2.9,6.8-6.6,6.9l-4.8,0.1C150.8,257.2,150.6,257.2,150.5,257.2z"/>
		<path class="st9" d="M151,257.6c-3.7-0.2-6.6-3.3-6.5-7l0.1-4.9c0.2-4.8,4-8.6,8.8-8.7l0,0c4.8-0.1,8.8,3.6,9.1,8.4l0.3,4.8v0.4
			c0,3.7-2.9,6.7-6.6,6.9l-4.8,0.1C151.2,257.6,151.1,257.6,151,257.6z"/>
		<path class="st10" d="M152.6,259c-3.7-0.2-6.6-3.3-6.5-7l0.1-4.8c0.2-4.8,4-8.6,8.8-8.7l0,0c4.8-0.1,8.9,3.6,9.1,8.4l0.3,4.8v0.4
			c0,3.7-2.9,6.7-6.6,6.9l0,0l-4.8,0.1C152.8,259,152.7,259,152.6,259z"/>
		<path class="st11" d="M145.8,253.1l0.3-5.9c0.2-4.8,4-8.6,8.8-8.7l0,0c4.8-0.1,8.9,3.6,9.1,8.4l0.5,5.9"/>
		<g id="chairs-8-12">
			<path class="st8" d="M241.6,319.5l4.8,0.1c3.7,0.1,6.7,3.1,6.6,6.8c0,0,0,0,0,0.1v0.4l-0.3,4.8c-0.3,4.8-4.3,8.4-9.1,8.4l0,0
				c-4.8,0-8.7-3.9-8.8-8.7l-0.1-4.8c-0.1-3.7,2.8-6.9,6.5-7l0,0C241.4,319.5,241.5,319.5,241.6,319.5z"/>
			<path class="st9" d="M242,319.1l4.9,0.1c3.7,0,6.7,3.1,6.6,6.8c0,0,0,0,0,0.1v0.4l-0.3,4.8c-0.3,4.8-4.3,8.4-9.1,8.4l0,0
				c-4.8,0-8.7-3.9-8.8-8.7l-0.1-4.8c-0.1-3.7,2.8-6.9,6.5-7C241.8,319.1,241.9,319.1,242,319.1z"/>
			<path class="st10" d="M243.7,317.5l4.9,0.1c3.7,0.1,6.7,3.1,6.6,6.8c0,0,0,0,0,0.1l0,0v0.4l-0.3,4.8c-0.3,4.8-4.3,8.4-9.1,8.4
				l0,0c-4.8,0-8.7-3.9-8.8-8.7l-0.1-4.8c-0.1-3.7,2.8-6.9,6.5-7l0,0C243.4,317.5,243.5,317.5,243.7,317.5z"/>
			<path class="st11" d="M255.3,323.8l-0.5,5.9c-0.3,4.8-4.3,8.4-9.1,8.4l0,0c-4.8,0-8.7-3.9-8.8-8.7l-0.3-5.9"/>
			<path class="st8" d="M240.2,257.2L240.2,257.2c-3.7-0.2-6.6-3.3-6.5-7l0,0l0.1-4.9c0.2-4.8,4-8.6,8.8-8.7l0,0
				c4.8-0.1,8.9,3.6,9.1,8.4l0.3,4.8v0.4c0,3.7-2.9,6.8-6.6,6.9l0,0l-4.8,0.1C240.5,257.2,240.4,257.2,240.2,257.2z"/>
			<path class="st9" d="M240.7,257.6c-3.7-0.2-6.6-3.3-6.5-7l0.1-4.9c0.2-4.8,4-8.6,8.8-8.7l0,0c4.8-0.1,8.8,3.6,9.1,8.4l0.3,4.8
				v0.4c0,3.7-2.9,6.7-6.6,6.9l-4.8,0.1C241,257.6,240.9,257.6,240.7,257.6z"/>
			<path class="st10" d="M242.4,259c-3.7-0.2-6.6-3.3-6.5-7l0.1-4.8c0.2-4.8,4-8.6,8.8-8.7l0,0c4.8-0.1,8.9,3.6,9.1,8.4l0.3,4.8v0.4
				c0,3.7-2.9,6.7-6.6,6.9l0,0l-4.8,0.1C242.6,259,242.5,259,242.4,259z"/>
			<path class="st11" d="M235.5,253.1l0.3-5.9c0.2-4.8,4-8.6,8.8-8.7l0,0c4.8-0.1,8.9,3.6,9.1,8.4l0.5,5.9"/>
		</g>
		<g id="chairs-8-13">
			<path class="st8" d="M195.8,319.5l4.8,0.1c3.7,0.1,6.7,3.1,6.6,6.8c0,0,0,0,0,0.1v0.4l-0.3,4.8c-0.3,4.8-4.3,8.4-9.1,8.4l0,0
				c-4.8,0-8.7-3.9-8.8-8.7l-0.1-4.8c-0.1-3.7,2.8-6.9,6.5-7l0,0C195.6,319.5,195.7,319.5,195.8,319.5z"/>
			<path class="st9" d="M196.3,319.1l4.8,0.1c3.7,0,6.7,3.1,6.6,6.8c0,0,0,0,0,0.1v0.4l-0.3,4.8c-0.3,4.8-4.3,8.4-9.1,8.4l0,0
				c-4.8,0-8.7-3.9-8.8-8.7l-0.1-4.8c-0.1-3.7,2.8-6.9,6.5-7C196.1,319.1,196.2,319.1,196.3,319.1z"/>
			<path class="st10" d="M197.9,317.5l4.8,0.1c3.7,0.1,6.7,3.1,6.6,6.8c0,0,0,0,0,0.1l0,0v0.4l-0.3,4.8c-0.3,4.8-4.3,8.4-9.1,8.4
				l0,0c-4.8,0-8.7-3.9-8.8-8.7l-0.1-4.8c-0.1-3.7,2.8-6.9,6.5-7l0,0C197.7,317.6,197.8,317.5,197.9,317.5z"/>
			<path class="st11" d="M209.6,323.8l-0.5,5.9c-0.3,4.8-4.3,8.4-9.1,8.4l0,0c-4.8,0-8.7-3.9-8.8-8.7l-0.3-5.9"/>
			<path class="st8" d="M194.5,257.2L194.5,257.2c-3.7-0.2-6.6-3.3-6.5-7l0.1-4.9c0.2-4.8,4-8.6,8.8-8.7l0,0
				c4.8-0.1,8.9,3.6,9.1,8.4l0.3,4.8v0.4c0,3.7-2.9,6.8-6.6,6.9l-4.8,0.1C194.7,257.2,194.6,257.2,194.5,257.2z"/>
			<path class="st9" d="M194.9,257.6c-3.7-0.2-6.6-3.3-6.5-7l0.1-4.9c0.2-4.8,4-8.6,8.8-8.7l0,0c4.8-0.1,8.8,3.6,9.1,8.4l0.3,4.8
				v0.4c0,3.7-2.9,6.7-6.6,6.9l-4.8,0.1C195.2,257.6,195.1,257.6,194.9,257.6z"/>
			<path class="st10" d="M196.6,259c-3.7-0.2-6.6-3.3-6.5-7l0.1-4.8c0.2-4.8,4-8.6,8.8-8.7l0,0c4.8-0.1,8.9,3.6,9.1,8.4l0.3,4.8v0.4
				c0,3.7-2.9,6.7-6.6,6.9l0,0l-4.8,0.1C196.8,259,196.7,259,196.6,259z"/>
			<path class="st11" d="M189.8,253.1l0.3-5.9c0.2-4.8,4-8.6,8.8-8.7l0,0c4.8-0.1,8.9,3.6,9.1,8.4l0.5,5.9"/>
		</g>
	</g>
	<path class="st8" d="M201.5,442.9L201.5,442.9c-3.7-0.2-6.6-3.3-6.5-7l0,0l0.1-4.8c0.2-4.8,4-8.6,8.8-8.7l0,0
		c4.8-0.1,8.9,3.6,9.1,8.4l0.3,4.8v0.4c0,3.7-2.9,6.7-6.6,6.9l0,0l-4.8,0.1C201.7,442.9,201.6,442.9,201.5,442.9z"/>
	<path class="st9" d="M202,443.3c-3.7-0.2-6.6-3.3-6.5-7l0.1-4.8c0.2-4.8,4-8.6,8.8-8.7l0,0c4.8-0.1,8.8,3.6,9.1,8.4l0.3,4.8v0.4
		c0,3.7-2.9,6.7-6.6,6.9l-4.9,0.1C202.3,443.3,202.1,443.3,202,443.3z"/>
	<path class="st10" d="M203.7,444.7c-3.7-0.2-6.6-3.3-6.5-7l0.1-4.8c0.2-4.8,4-8.6,8.8-8.7l0,0c4.8-0.1,8.9,3.6,9.1,8.4l0.3,4.9v0.4
		c0,3.7-2.9,6.8-6.6,6.9l0,0l-4.9,0.1C203.8,444.7,203.8,444.7,203.7,444.7z"/>
	<path class="st11" d="M196.8,438.8l0.3-5.9c0.2-4.8,4-8.6,8.8-8.7l0,0c4.8-0.1,8.9,3.6,9.1,8.4l0.5,5.9"/>
	<path class="st8" d="M155.8,442.9L155.8,442.9c-3.7-0.2-6.6-3.3-6.5-7l0.1-4.8c0.2-4.8,4-8.6,8.8-8.7l0,0c4.8-0.1,8.9,3.6,9.1,8.4
		l0.3,4.8v0.4c0,3.7-2.9,6.7-6.6,6.9l-4.8,0.1C156,443,155.9,442.9,155.8,442.9z"/>
	<path class="st9" d="M156.2,443.3c-3.7-0.2-6.6-3.3-6.5-7l0.1-4.8c0.2-4.8,4-8.6,8.8-8.7l0,0c4.8-0.1,8.8,3.6,9.1,8.4l0.3,4.8v0.4
		c0,3.7-2.9,6.7-6.6,6.9l-4.8,0.1C156.4,443.3,156.3,443.3,156.2,443.3z"/>
	<path class="st10" d="M157.8,444.7c-3.7-0.2-6.6-3.3-6.5-7l0.1-4.8c0.2-4.8,4-8.6,8.8-8.7l0,0c4.8-0.1,8.9,3.6,9.1,8.4l0.3,4.9v0.4
		c0,3.7-2.9,6.8-6.6,6.9l0,0l-4.8,0.1C158.1,444.7,158,444.7,157.8,444.7z"/>
	<path class="st11" d="M151.1,438.8l0.3-5.9c0.2-4.8,4-8.6,8.8-8.7l0,0c4.8-0.1,8.9,3.6,9.1,8.4l0.5,5.9"/>
	<g id="details-5-2">
		<path class="st4" d="M129.8,451.4l105.2-0.2c1.7,0,3,0.7,3,1.7l0,0v20.2c0,1-1.3,1.7-3,1.7l0,0L129.8,475c-1.7,0-3-0.7-3-1.7l0,0
			v-20.2C126.6,452.1,127.9,451.4,129.8,451.4L129.8,451.4z"/>
		<path class="st5" d="M131.3,451.4l105.2-0.2c1.7,0,3,0.7,3,1.7l0,0v20.2c0,1-1.3,1.7-3,1.7l0,0L131.3,475c-1.7,0-3-0.7-3-1.7l0,0
			v-20.2C128.2,452.2,129.7,451.4,131.3,451.4L131.3,451.4z"/>
	</g>
	<g id="tables-6-2">
		<path class="st6" d="M202.3,474.8H237c1.7,0,3-0.7,3-1.7l0,0v-10.3h-37.8L202.3,474.8z"/>
		<path class="st6" d="M130,462.8v10.3c0,1,1.3,1.7,3,1.7h33.9v-12H130z"/>
		<path class="st6" d="M166.9,462.8v-11.6H133c-1.7,0-3,0.7-3,1.7v9.9H166.9z"/>
		<rect x="166.4" y="451.1" class="st6" width="36.2" height="11.8"/>
		<rect x="167" y="462.8" class="st6" width="35.9" height="12.1"/>
		<path class="st6" d="M240.1,462.8v-9.9c0-1-1.3-1.7-3-1.7h-34.7v11.6H240.1z"/>
	</g>
	<g id="details-5-3">
		<path class="st4" d="M499.9,452.6l-0.4-67.5c0-1.1,1.7-2,3.8-2H549c2.2,0,3.8,0.8,3.8,2l0,0l0.4,67.5c0,1.1-1.7,2-3.8,2h-45.7
			C501.5,454.7,499.9,453.8,499.9,452.6z"/>
		<path class="st5" d="M499.9,451.7l-0.4-67.5c0-1.1,1.7-2,3.8-2H549c2.2,0,3.8,0.8,3.8,2l0,0l0.4,67.5c0,1.1-1.7,2-3.8,2h-45.7
			C501.6,453.6,499.9,452.7,499.9,451.7z"/>
	</g>
	<g id="tables-6-3">
		<path class="st6" d="M552.9,406v-22.3c0-1.1-1.7-2-3.8-2h-23.2V406H552.9z"/>
		<path class="st6" d="M525.8,452.5H549c2.2,0,3.8-0.8,3.8-2l0,0v-21.8h-27.1L525.8,452.5L525.8,452.5z"/>
		<path class="st6" d="M525.6,428.8h-26.3v21.8c0,1.1,1.7,2,3.8,2h22.5V428.8z"/>
		<rect x="499.4" y="405.8" class="st6" width="26.7" height="23.3"/>
		<rect x="525.8" y="405.7" class="st6" width="27.3" height="23.1"/>
		<path class="st6" d="M525.8,381.8h-22.5c-2.2,0-3.8,0.8-3.8,2l0,0V406h26.3V381.8z"/>
	</g>
	<path class="st8" d="M493,408.7l-0.1,4.8c0,3.7-3.1,6.7-6.8,6.6H486h-0.4l-4.8-0.3c-4.8-0.3-8.4-4.3-8.4-9.1l0,0
		c0-4.8,3.9-8.7,8.7-8.8l4.8-0.1c3.7-0.1,6.9,2.8,7,6.5l0,0C493,408.4,493,408.6,493,408.7z"/>
	<path class="st9" d="M493.3,409.1l-0.1,4.8c0,3.7-3.1,6.7-6.8,6.6c0,0,0,0-0.1,0h-0.4l-4.8-0.3c-4.8-0.3-8.4-4.3-8.4-9.1l0,0
		c0-4.8,3.9-8.7,8.7-8.8l4.8-0.1c3.7-0.1,6.9,2.8,7,6.5C493.3,408.9,493.3,409,493.3,409.1z"/>
	<path class="st10" d="M494.9,410.7l-0.1,4.8c0,3.7-3.1,6.7-6.8,6.6c0,0,0,0-0.1,0h-0.4l-4.8-0.3c-4.8-0.3-8.4-4.3-8.4-9.1l0,0
		c0-4.8,3.9-8.7,8.7-8.8l4.8-0.1c3.7-0.1,6.9,2.8,7,6.5l0,0C494.9,410.5,494.9,410.6,494.9,410.7z"/>
	<path class="st11" d="M488.6,422.4l-5.9-0.5c-4.8-0.3-8.4-4.3-8.4-9.1l0,0c0-4.8,3.9-8.7,8.7-8.8l5.9-0.3"/>
	<path class="st8" d="M561,416.5l0.1-4.8c0.1-3.7,3.1-6.7,6.8-6.6c0,0,0,0,0.1,0h0.4l4.8,0.3c4.8,0.3,8.4,4.3,8.4,9.1l0,0
		c0,4.8-3.9,8.7-8.7,8.8l-4.8,0.1c-3.7,0.1-6.9-2.8-7-6.5l0,0C561,416.7,561,416.6,561,416.5z"/>
	<path class="st9" d="M560.6,416.1l0.1-4.9c0.1-3.7,3.1-6.7,6.8-6.6c0,0,0,0,0.1,0h0.4l4.8,0.3c4.8,0.3,8.4,4.3,8.4,9.1l0,0
		c0,4.8-3.9,8.7-8.7,8.8l-4.8,0.1c-3.7,0.1-6.9-2.8-7-6.5C560.7,416.3,560.6,416.2,560.6,416.1z"/>
	<path class="st10" d="M559.1,414.4l0.1-4.9c0-3.7,3.1-6.7,6.8-6.6c0,0,0,0,0.1,0h0.4l4.8,0.3c4.8,0.3,8.4,4.3,8.4,9.1l0,0
		c0,4.8-3.9,8.7-8.7,8.8l-4.8,0.1c-3.7,0.1-6.9-2.8-7-6.5l0,0C559.1,414.7,559.1,414.6,559.1,414.4z"/>
	<path class="st11" d="M565.3,402.8l5.9,0.5c4.8,0.3,8.4,4.3,8.4,9.1l0,0c0,4.8-3.9,8.7-8.7,8.8l-5.9,0.3"/>
	<g id="details-5-4">
		<path class="st4" d="M499.4,527.9l-0.4-67.5c0-1.1,1.7-2,3.8-2h45.7c2.2,0,3.8,0.8,3.8,2l0,0l0.4,67.5c0,1.1-1.7,2-3.8,2h-45.7
			C501.1,529.9,499.4,529,499.4,527.9z"/>
		<path class="st5" d="M499.4,526.9l-0.4-67.5c0-1.1,1.7-2,3.8-2h45.7c2.2,0,3.8,0.8,3.8,2l0,0l0.4,67.5c0,1.1-1.7,2-3.8,2h-45.7
			C501.2,528.8,499.4,527.9,499.4,526.9z"/>
	</g>
	<g id="tables-6-4">
		<path class="st6" d="M552.5,481.3V459c0-1.1-1.7-2-3.8-2h-23.2v24.2L552.5,481.3z"/>
		<path class="st6" d="M525.3,527.7h23.2c2.2,0,3.8-0.8,3.8-2l0,0V504h-27.1L525.3,527.7L525.3,527.7z"/>
		<path class="st6" d="M525.2,504h-26.3v21.8c0,1.1,1.7,2,3.8,2h22.5V504z"/>
		<rect x="498.9" y="481.1" class="st6" width="26.7" height="23.3"/>
		<rect x="525.3" y="480.9" class="st6" width="27.3" height="23.1"/>
		<path class="st6" d="M525.3,457h-22.5c-2.2,0-3.8,0.8-3.8,2l0,0v22.3h26.3V457z"/>
	</g>
	<path class="st8" d="M492.5,483.9l-0.1,4.9c0,3.7-3.1,6.7-6.8,6.6c0,0,0,0-0.1,0h-0.4l-4.8-0.3c-4.8-0.3-8.4-4.3-8.4-9.1l0,0
		c0-4.8,3.9-8.7,8.7-8.8l4.8-0.1c3.7-0.1,6.9,2.8,7,6.5l0,0C492.5,483.7,492.5,483.8,492.5,483.9z"/>
	<path class="st9" d="M492.9,484.3l-0.1,4.8c0,3.7-3.1,6.7-6.8,6.6c0,0,0,0-0.1,0h-0.4l-4.8-0.3c-4.8-0.3-8.4-4.3-8.4-9.1l0,0
		c0-4.8,3.9-8.7,8.7-8.8l4.8-0.1c3.7-0.1,6.9,2.8,7,6.5C492.8,484.1,492.9,484.2,492.9,484.3z"/>
	<path class="st10" d="M494.4,486l-0.1,4.8c0,3.7-3.1,6.7-6.8,6.6h-0.1H487l-4.8-0.3c-4.8-0.3-8.4-4.3-8.4-9.1l0,0
		c0-4.8,3.9-8.7,8.7-8.8l4.8-0.1c3.7-0.1,6.9,2.8,7,6.5l0,0C494.4,485.7,494.4,485.8,494.4,486z"/>
	<path class="st11" d="M488.2,497.6l-5.9-0.5c-4.8-0.3-8.4-4.3-8.4-9.1l0,0c0-4.8,3.9-8.7,8.7-8.8l5.9-0.3"/>
	<path class="st8" d="M560.5,491.7l0.1-4.8c0-3.7,3.1-6.7,6.8-6.6h0.1h0.4l4.8,0.3c4.8,0.3,8.4,4.3,8.4,9.1l0,0
		c0,4.8-3.9,8.7-8.7,8.8l-4.8,0.1c-3.7,0.1-6.9-2.8-7-6.5l0,0C560.5,491.9,560.5,491.8,560.5,491.7z"/>
	<path class="st9" d="M560.2,491.3l0.1-4.8c0-3.7,3.1-6.7,6.8-6.6c0,0,0,0,0.1,0h0.4l4.8,0.3c4.8,0.3,8.4,4.3,8.4,9.1l0,0
		c0,4.8-3.9,8.7-8.7,8.8l-4.8,0.1c-3.7,0.1-6.9-2.8-7-6.5C560.2,491.5,560.2,491.4,560.2,491.3z"/>
	<path class="st10" d="M558.6,489.7l0.1-4.8c0-3.7,3.1-6.7,6.8-6.6h0.1h0.4l4.8,0.3c4.8,0.3,8.4,4.3,8.4,9.1l0,0
		c0,4.8-3.9,8.7-8.7,8.8l-4.8,0.1c-3.7,0.1-6.9-2.8-7-6.5l0,0C558.6,489.9,558.6,489.8,558.6,489.7z"/>
	<path class="st11" d="M564.9,478l5.9,0.5c4.8,0.3,8.4,4.3,8.4,9.1l0,0c0,4.8-3.9,8.7-8.7,8.8l-5.9,0.3"/>
	<g id="details-5-5">
		<path class="st4" d="M271.4,158.9l-0.3-52.6c0-0.9,1.3-1.5,3-1.5h35.6c1.7,0,3,0.7,3,1.5l0,0l0.3,52.6c0,0.9-1.3,1.5-3,1.5h-35.6
			C272.7,160.5,271.4,159.8,271.4,158.9z"/>
		<path class="st5" d="M271.4,158.1l-0.3-52.6c0-0.9,1.3-1.5,3-1.5h35.6c1.7,0,3,0.7,3,1.5l0,0l0.3,52.6c0,0.9-1.3,1.5-3,1.5h-35.6
			C272.8,159.7,271.4,159,271.4,158.1z"/>
	</g>
	<g id="tables-6-5">
		<path class="st6" d="M312.7,122.6v-17.4c0-0.9-1.3-1.5-3-1.5h-18.1v18.9H312.7z"/>
		<path class="st6" d="M291.5,158.8h18.1c1.7,0,3-0.7,3-1.5l0,0v-17h-21.1V158.8z"/>
		<path class="st6" d="M291.4,140.3H271v17c0,0.9,1.3,1.5,3,1.5h17.5v-18.5H291.4z"/>
		<rect x="271" y="122.5" class="st6" width="20.8" height="18.1"/>
		<rect x="291.5" y="122.3" class="st6" width="21.3" height="18"/>
		<path class="st6" d="M291.5,103.7H274c-1.7,0-3,0.7-3,1.5l0,0v17.4h20.5V103.7z"/>
	</g>
	<path class="st8" d="M261.1,128.6l-0.1,4.8c0,3.7-3.1,6.7-6.8,6.6c0,0,0,0-0.1,0h-0.4l-4.8-0.3c-4.8-0.3-8.4-4.3-8.4-9.1l0,0
		c0-4.8,3.9-8.7,8.7-8.8l4.9-0.1c3.7-0.1,6.9,2.8,7,6.5l0,0C261.1,128.4,261.1,128.5,261.1,128.6z"/>
	<path class="st9" d="M261.5,129l-0.1,4.8c-0.1,3.7-3.1,6.7-6.8,6.6c0,0,0,0-0.1,0h-0.4l-4.8-0.3c-4.8-0.3-8.4-4.3-8.4-9.1l0,0
		c0-4.8,3.9-8.7,8.7-8.8l4.9-0.1c3.7-0.1,6.9,2.8,7,6.5C261.4,128.8,261.4,128.9,261.5,129z"/>
	<path class="st10" d="M263,130.7l-0.1,4.8c0,3.7-3.1,6.7-6.8,6.6c0,0,0,0-0.1,0h-0.4l-4.9-0.3c-4.8-0.3-8.4-4.3-8.4-9.1l0,0
		c0-4.8,3.9-8.7,8.7-8.8l4.8-0.1c3.7-0.1,6.9,2.8,7,6.5l0,0C263,130.4,263,130.5,263,130.7z"/>
	<path class="st11" d="M256.7,142.3l-5.9-0.5c-4.8-0.3-8.4-4.3-8.4-9.1l0,0c0-4.8,3.9-8.7,8.7-8.8l5.9-0.3"/>
	<path class="st8" d="M329.1,136.4l0.1-4.8c0-3.7,3.1-6.7,6.8-6.6c0,0,0,0,0.1,0h0.4l4.9,0.3c4.8,0.3,8.4,4.3,8.4,9.1l0,0
		c0,4.8-3.9,8.7-8.7,8.8l-4.8,0.1c-3.7,0.1-6.9-2.8-7-6.5l0,0C329.1,136.7,329.1,136.5,329.1,136.4z"/>
	<path class="st9" d="M328.7,136l0.1-4.8c0-3.7,3.1-6.7,6.8-6.6c0,0,0,0,0.1,0h0.4l4.9,0.3c4.8,0.3,8.4,4.3,8.4,9.1l0,0
		c0,4.8-3.9,8.7-8.7,8.8l-4.8,0.1c-3.7,0.1-6.9-2.8-7-6.5C328.8,136.2,328.7,136.1,328.7,136z"/>
	<path class="st10" d="M327.2,134.4l0.1-4.8c0.1-3.7,3.1-6.7,6.8-6.6c0,0,0,0,0.1,0h0.4l4.8,0.3c4.8,0.3,8.4,4.3,8.4,9.1l0,0
		c0,4.8-3.9,8.7-8.7,8.8l-4.8,0.1c-3.7,0.1-6.9-2.8-7-6.5l0,0C327.2,134.6,327.2,134.5,327.2,134.4z"/>
	<path class="st11" d="M333.4,122.8l5.9,0.5c4.8,0.3,8.4,4.3,8.4,9.1l0,0c0,4.8-3.9,8.7-8.7,8.8l-5.9,0.3"/>
	<path class="st12" d="M417.2,495.2v34.6c0,1.2,0.9,2.2,2.1,2.4h24.3c0.7-0.2,1.3-0.9,1.3-1.7v-77c0-0.9-0.8-1.7-1.7-1.7h-23.4
		c-1.4,0-2.5,1.1-2.6,2.4v35.2l0,0C417.4,491.5,417.4,493.3,417.2,495.2L417.2,495.2z"/>
	<path class="st13" d="M418.8,495.8v34.6c0,1.2,0.8,2.1,1.9,2.4h23c0.7-0.3,1.1-0.9,1.2-1.7v-77c0-0.9-0.8-1.7-1.7-1.7H421
		c-1.3,0-2.4,1.1-2.4,2.4V490L418.8,495.8z"/>
	<path class="st14" d="M434.1,528.8c2.6,0,5.1,0.3,7.6,1c-2.1-8.4-3-28.5-2.8-37.1l0,0v-1.9c-0.1-7.5,0.5-29,2.2-36.3
		c-2.2,0.6-4.5,0.9-6.8,0.9c-5.3,0-9.7-1.3-11.1-3.1c-1.3,0-2.4,1.1-2.4,2.4v48l0,0v27.4c0,1.2,0.8,2.1,1.9,2.4
		C423.2,530.5,428.2,528.8,434.1,528.8z"/>
	<path class="st15" d="M445.7,532.7c0.7-0.3,1.1-0.9,1.2-1.7v-77c0-0.9-0.8-1.7-1.7-1.7c-0.4,0.5-0.9,0.9-1.5,1.2v77.1
		C444.5,531.1,445.2,531.8,445.7,532.7z"/>
	<path class="st16" d="M436.7,490.9v1.9c-0.1,8.6,0.8,28.7,2.8,37.1c0.7,0.2,1.4,0.5,2.1,0.9v-77.1c-0.9,0.4-1.8,0.7-2.7,1
		C437.2,461.9,436.4,483.5,436.7,490.9z"/>
	<path class="st15" d="M438.5,490.9v1.9c-0.1,8.6,0.8,28.7,2.8,37.1c0.7,0.2,1.4,0.5,2.1,0.9v-77.1c-0.9,0.4-1.8,0.7-2.7,1
		C439.1,461.9,438.3,483.5,438.5,490.9z"/>
	<path class="st15" d="M434.1,455.5c2.3,0,4.6-0.3,6.8-0.9c1.6-0.3,3.1-1,4.2-2.2h-22.3C424.4,454.2,428.8,455.5,434.1,455.5z"/>
	<path class="st15" d="M434.2,528.8c2.3,0,4.6,0.4,6.8,1c1.7,0.4,3.2,1.4,4.2,2.8H423C424.6,530.5,428.9,528.8,434.2,528.8z"/>
	<circle class="st4" cx="173.7" cy="141.1" r="15.3"/>
	<circle class="st5" cx="174.6" cy="140.2" r="15.3"/>
	<circle class="st6" cx="175.6" cy="139.2" r="15.3"/>
	<path class="st17" d="M155.2,136.3v10c-0.1,2.2-1.9,4-4.1,4.1l0,0h-0.3l-6.4-0.5c-3.4-0.2-6-3-5.9-6.4V139c0-3.3,2.6-6.1,5.9-6.4
		l6.4-0.5c2.3-0.2,4.2,1.5,4.4,3.8L155.2,136.3z"/>
	<path class="st9" d="M155.7,135.8v9.8c0,2.1-1.5,4-3.6,4.3h-0.7l-6.4-0.5c-3.4-0.2-6-3-5.9-6.4v-4.5c0-3.3,2.6-6.1,5.9-6.4l6.4-0.5
		c2.3-0.2,4.2,1.5,4.4,3.8l0,0C155.7,135.6,155.6,135.7,155.7,135.8z"/>
	<path class="st18" d="M156.4,135.1v10c-0.1,2.2-1.9,4-4.1,4.1l0,0H152l-6.4-0.5c-3.4-0.2-6-3-5.9-6.4v-4.5c0-3.3,2.6-6.1,5.9-6.4
		l6.1-0.5c2.2-0.3,4.4,1.2,4.8,3.4L156.4,135.1z"/>
	<path class="st19" d="M155.4,136.2v7.8c0,1.7-1.4,3.2-3.2,3.2h-0.1l-4.6-0.3c-2.9-0.2-5.1-2.6-5.1-5.5v-2.6c0-2.9,2.2-5.3,5.1-5.5
		l4.3-0.4c1.7-0.2,3.3,0.9,3.7,2.5C155.4,135.7,155.4,136,155.4,136.2z"/>
	<path class="st17" d="M192.8,134.5c0.1-2.3,2.1-4,4.3-3.9l6.4,0.4c3.3,0.2,6,2.9,6.1,6.2l0.1,4.5c0.1,3.4-2.5,6.2-5.8,6.5l-6.4,0.6
		h-0.3l0,0c-2.2,0-4.1-1.7-4.2-4l-0.2-10L192.8,134.5z"/>
	<path class="st9" d="M193.8,134.3L193.8,134.3c0.1-2.3,2.1-4,4.3-3.9l6.4,0.4c3.3,0.2,6,2.9,6.1,6.2l0.1,4.5
		c0.1,3.4-2.5,6.2-5.8,6.5l-6.4,0.6h-0.7c-2.1-0.3-3.7-2.1-3.7-4.2l-0.2-9.8C193.9,134.5,193.9,134.4,193.8,134.3z"/>
	<path class="st18" d="M194.8,134.2c0.4-2.2,2.4-3.8,4.7-3.5l6.1,0.4c3.3,0.2,6,2.9,6.1,6.2l0.1,4.5c0.1,3.4-2.5,6.2-5.8,6.5
		l-6.4,0.6h-0.3l0,0c-2.2,0-4.1-1.7-4.2-4l-0.2-10L194.8,134.2z"/>
	<path class="st19" d="M195.7,135.3c0.3-1.7,1.9-2.8,3.7-2.6l4.3,0.3c2.9,0.2,5.1,2.5,5.2,5.4l0.1,2.6c0.1,2.9-2.1,5.4-5,5.6
		l-4.6,0.4h-0.1c-1.7,0-3.2-1.4-3.2-3.2l0,0L196,136C195.8,135.8,195.8,135.5,195.7,135.3z"/>
</g>
<g id="bookable">
	<polygon id="area-04.4.5-status" class="st20" points="342.7,22.8 533.9,22.8 533.9,245.1 363.5,245.1 363.5,65.9 342.7,65.9 	"/>
	<text transform="matrix(1 0 0 1 402.801 129.376)" class="st6 st21 st22">Project Room Julle</text>
</g>
<g id="outline">
	<polygon class="st23" points="103.9,65.7 103.9,216.5 17.8,216.5 17.8,352.1 103.9,352.1 103.9,508.4 310.8,508.4 310.8,540.4 
		336.4,540.4 336.4,553.8 701.7,553.8 701.7,475.6 701.7,365.1 727.4,365.1 727.4,325.9 740.5,325.9 740.5,250.6 727.9,250.6 
		727.9,210.9 696.7,210.9 696.7,38.6 696.7,22.8 342.7,22.8 342.7,66.1 	"/>
	<polyline class="st24" points="164.6,192.8 268.3,192.8 230,192.8 230,65.9 	"/>
	<polyline class="st24" points="136.2,192.8 103.9,192.8 103.9,388.1 136.2,388.1 	"/>
	<polyline class="st24" points="294,192.8 330.1,192.8 330.1,284.4 330.1,245.1 435.6,245.1 363.5,245.1 363.5,65.9 342.7,65.9 	"/>
	<polyline class="st24" points="462.7,245.1 533.9,245.1 533.9,22.8 696.7,22.8 696.7,171.6 589.9,171.6 589.9,233.6 609.7,233.6 	
		"/>
	<polyline class="st24" points="589.9,171.6 589.9,101.7 625,101.7 625,171.6 696.7,171.6 696.7,234.8 660.2,234.8 660.2,273.1 	"/>
	<polyline class="st24" points="637.7,340.3 637.7,334.9 653.4,334.9 653.4,325.9 659.8,325.9 659.8,307.8 696.7,322.3 696.7,365.2 
		706.2,365.2 	"/>
	<polyline class="st24" points="611.1,339.2 541.8,339.2 602.3,339.2 602.3,555.4 451.3,555.4 451.3,339.2 515.2,339.2 429.7,339.2 
			"/>
	<line class="st24" x1="602.3" y1="459.1" x2="611.1" y2="459.1"/>
	<polyline class="st24" points="634.6,357.7 640,357.7 640,459.1 	"/>
	<polyline class="st24" points="164.6,388.1 330.6,388.1 330.6,388.1 331.6,312.3 331.6,339.2 402.3,339.2 368,339.2 368,408.4 	"/>
	<polyline class="st24" points="327.2,540.4 336.4,540.4 336.4,553.8 366.9,553.8 366.9,436 366.9,445.2 379.2,445.2 	"/>
	<line class="st24" x1="277.1" y1="389.7" x2="277.1" y2="508.4"/>
	<line class="st24" x1="402.3" y1="444.8" x2="451.3" y2="444.8"/>
	<line class="st24" x1="533.9" y1="197.8" x2="541.6" y2="197.8"/>
	<line class="st24" x1="581.7" y1="197.8" x2="589.9" y2="197.8"/>
</g>
<g id="icons">
	<text transform="matrix(1 0 0 1 619.603 543.075)" class="st25 st26 st27">Printer</text>
	<circle class="st28" cx="636.5" cy="504.6" r="24.8"/>
	<g id="Outline_Icons-6-3">
		<g id="Outline_Icons-7">
			<path class="st29" d="M630.9,509.6h-2.5c-0.9-0.1-1.6-0.8-1.7-1.7v-5.4c0.1-0.9,0.8-1.6,1.7-1.7h16.8c0.9,0.1,1.6,0.8,1.7,1.7
				v5.4c-0.1,0.9-0.8,1.6-1.7,1.7h-2.5"/>
			<polyline class="st29" points="630.9,499 630.9,495.5 639.7,495.5 642.2,498.1 642.2,499 			"/>
			<rect x="630.9" y="506.9" class="st29" width="11.4" height="7.1"/>
			<circle class="st29" cx="629.1" cy="503.2" r="0.8"/>
			<line class="st29" x1="632.6" y1="508.6" x2="640.5" y2="508.6"/>
			<line class="st29" x1="632.6" y1="510.4" x2="640.5" y2="510.4"/>
			<line class="st29" x1="632.6" y1="512.1" x2="640.5" y2="512.1"/>
			<polyline class="st29" points="639.7,495.5 639.7,498.1 642.2,498.1 			"/>
		</g>
	</g>
	<circle class="st28" cx="560.5" cy="137.8" r="22"/>
	<text transform="matrix(1 0 0 1 548.6338 172.7617)" class="st25 st26 st30">Stairs</text>
	<g id="Outline_Icons-9-2-2">
		<line class="st29" x1="551.2" y1="145.6" x2="568.2" y2="145.6"/>
		<polyline class="st29" points="565.2,145.6 565.2,142.6 562.2,142.6 562.2,139.6 559.2,139.6 559.2,136.7 556.4,136.7 
			556.4,133.8 551.2,133.8 		"/>
		<line class="st29" x1="560" y1="128.9" x2="569.2" y2="137.9"/>
		<polyline class="st29" points="560,132.3 560,128.9 563.7,128.9 		"/>
		<polyline class="st29" points="569.2,134.3 569.2,137.9 565.3,137.9 		"/>
	</g>
	<text transform="matrix(1 0 0 1 321.6943 451.9705)" class="st25 st26 st31">Restroom</text>
	<circle class="st28" cx="338.9" cy="425.7" r="16.9"/>
	<g id="Outline_Icons-5-2-2">
		<path class="st32" d="M345.1,426c0,0.3-0.2,0.6-0.6,0.7h-3.2v-6.9c0-0.6,0.5-1.3,1.2-1.3h1.4c0.6,0,1.2,0.5,1.3,1.2v0.1L345.1,426
			z"/>
		<path class="st32" d="M336.1,433h6.4v-3.8l1.9-1.3v-1.3h-10.7c-0.1,1.6,1.2,3,2.7,3.1h0.3L336.1,433z"/>
		<rect x="332.9" y="425.4" class="st32" width="8.3" height="1.3"/>
		<circle class="st32" cx="343.4" cy="420.7" r="0.7"/>
	</g>
	<text transform="matrix(1 0 0 1 396.631 393.922)" class="st25 st26 st22">4:12</text>
	<circle class="st28" cx="621.2" cy="401.7" r="15"/>
	<text transform="matrix(1 0 0 1 612.1514 425.4551)" class="st25 st26 st33">Stairs</text>
	<text transform="matrix(1 0 0 1 616.0515 433.8551)" class="st25 st26 st33">To </text>
	<text transform="matrix(1 0 0 1 614.2514 442.1551)" class="st25 st26 st33">Attic</text>
	<g id="Outline_Icons-9-2-2-2">
		<line class="st29" x1="614.8" y1="406.9" x2="626.4" y2="406.9"/>
		<polyline class="st29" points="624.4,406.9 624.4,404.9 622.3,404.9 622.3,402.8 620.3,402.8 620.3,400.8 618.4,400.8 
			618.4,398.9 614.8,398.9 		"/>
		<line class="st29" x1="620.8" y1="395.5" x2="627" y2="401.7"/>
		<polyline class="st29" points="620.8,397.8 620.8,395.5 623.3,395.5 		"/>
		<polyline class="st29" points="627,399.2 627,401.7 624.5,401.7 		"/>
	</g>
	<text transform="matrix(1 0 0 1 570.949 370.02)" class="st25 st26 st22">4:4</text>
	<text transform="matrix(1 0 0 1 700.118 288.16)" class="st25 st26 st22">4:2</text>
	<text transform="matrix(1 0 0 1 619.603 204.312)" class="st25 st26 st22">Focus Room</text>
	<text transform="matrix(1 0 0 1 297.732 372.371)" class="st25 st26 st22">4:8</text>
	<text transform="matrix(1 0 0 1 253.5 460.362)" class="st25 st26 st22">4:9</text>
	<text transform="matrix(1 0 0 1 337.532 194.864)" class="st25 st26 st22">4:6</text>
	<text transform="matrix(1 0 0 1 206.664 181.85)" class="st25 st26 st22">4:7</text>
	<g id="Outline_Icons-6">
		<text transform="matrix(1 0 0 1 285.017 450.442)" class="st25 st26 st34">W</text>
		<text transform="matrix(1 0 0 1 291.901 450.442)" class="st25 st26 st34">omen</text>
		<text transform="matrix(1 0 0 1 310.5 450.442)" class="st25 st26 st34">’</text>
		<text transform="matrix(1 0 0 1 312.018 450.442)" class="st25 st26 st34">s</text>
		<text transform="matrix(1 0 0 1 287.771 459.365)" class="st25 st26 st34">Shower</text>
		<circle class="st28" cx="299.4" cy="427.2" r="16.2"/>
	</g>
	<g id="Outline_Icons">
		<line class="st29" x1="300.4" y1="427.7" x2="300.4" y2="428.8"/>
		<line class="st29" x1="300.4" y1="430.2" x2="300.4" y2="431.3"/>
		<line class="st29" x1="300.4" y1="432.7" x2="300.4" y2="433.8"/>
		<line class="st29" x1="303.2" y1="427.7" x2="303.6" y2="428.7"/>
		<line class="st29" x1="304.3" y1="430" x2="304.7" y2="430.9"/>
		<line class="st29" x1="305.3" y1="432.2" x2="305.8" y2="433.2"/>
		<line class="st29" x1="297.5" y1="427.7" x2="297.1" y2="428.7"/>
		<line class="st29" x1="296.5" y1="430" x2="296.1" y2="430.9"/>
		<line class="st29" x1="295.4" y1="432.2" x2="295" y2="433.2"/>
		<line class="st29" x1="301.7" y1="427.7" x2="301.9" y2="428.8"/>
		<line class="st29" x1="302.1" y1="430.2" x2="302.4" y2="431.2"/>
		<line class="st29" x1="302.7" y1="432.6" x2="302.9" y2="433.6"/>
		<line class="st29" x1="299.1" y1="427.7" x2="298.9" y2="428.8"/>
		<line class="st29" x1="298.5" y1="430.2" x2="298.3" y2="431.2"/>
		<line class="st29" x1="298" y1="432.6" x2="297.8" y2="433.6"/>
		<path class="st29" d="M306.8,425.6H294l0.6-0.8c2.5-3.2,7.1-3.7,10.3-1.2l0,0c0.4,0.3,0.8,0.7,1.1,1.1L306.8,425.6z"/>
		<polyline class="st29" points="299,422.2 299.7,420.6 301.1,420.6 301.8,422.2 		"/>
		<line class="st29" x1="300.4" y1="420.6" x2="300.4" y2="419.2"/>
	</g>
	<text transform="matrix(1 0 0 1 384.104 508.637)" class="st25 st26 st35">Relax </text>
	<text transform="matrix(1 0 0 1 384.735 517.705)" class="st25 st26 st35">Room</text>
	<circle class="st28" cx="394.8" cy="484.8" r="16.1"/>
	<path class="st36" d="M405.8,488.9c-1.6-1.2-3.4-2-5.3-2.5c0.5-1.8,0.5-3.7-0.1-5.4c-0.1-0.2-0.3-0.4-0.6-0.3l0,0
		c-0.8,0.4-1.5,0.9-2.2,1.5c-0.5-1.7-1.3-3.4-2.4-4.9c-0.1-0.2-0.4-0.2-0.6-0.1l-0.1,0.1c-1.1,1.5-1.9,3.1-2.4,4.9
		c-0.7-0.5-1.5-1-2.2-1.5c-0.2-0.1-0.5,0-0.6,0.2l0,0c-0.6,1.8-0.6,3.7-0.1,5.4c-1.9,0.5-3.7,1.4-5.3,2.5c-0.2,0.1-0.2,0.4-0.1,0.6
		l0.1,0.1c2.2,1.7,4.9,2.7,7.7,2.8c1.1,0,2.2-0.2,3.3-0.6c1,0.4,2.2,0.6,3.3,0.6c0.2,0,0.5-0.1,0.5-0.4c0-0.2-0.1-0.5-0.4-0.5h-0.1
		c-0.7,0-1.5-0.1-2.2-0.3c0.3-0.1,0.5-0.3,0.7-0.4c0.8-0.5,1.5-1,2.2-1.5c0.6-0.6,1.1-1.3,1.4-2.1c1.6,0.4,3.2,1.1,4.6,2.1
		c-1,0.7-2.1,1.2-3.2,1.6c-0.2,0.1-0.3,0.4-0.2,0.6c0.1,0.2,0.3,0.3,0.6,0.3c1.4-0.5,2.7-1.2,3.9-2.1
		C406,489.5,406.1,489.2,405.8,488.9C405.9,489,405.8,489,405.8,488.9L405.8,488.9z M394.8,478.4c1,1.4,1.7,3,2.1,4.7
		c0.7,2.7-0.1,5.6-2.1,7.5c-2-2-2.8-4.8-2.1-7.5C393.1,481.4,393.8,479.8,394.8,478.4z M389.8,481.8c0.7,0.4,1.3,0.9,1.9,1.4
		c-0.5,2.3,0,4.7,1.2,6.7C390.1,488.2,389.1,485,389.8,481.8L389.8,481.8z M384.8,489.3c1.4-0.9,2.9-1.6,4.5-2
		c0.8,1.6,2,2.9,3.6,3.6c0.2,0.1,0.4,0.3,0.7,0.4C390.4,492.3,387,490.7,384.8,489.3L384.8,489.3z M396.5,489.9
		c1.3-2,1.7-4.4,1.2-6.7c0.6-0.5,1.3-1,1.9-1.4C400.5,485,399.5,488.2,396.5,489.9L396.5,489.9z"/>
	<path class="st36" d="M400.5,491.8c-0.1-0.2-0.4-0.3-0.6-0.2c-0.2,0.1-0.3,0.4-0.2,0.6c0.1,0.2,0.4,0.3,0.6,0.2l0,0
		C400.4,492.2,400.5,492,400.5,491.8z"/>
	<circle class="st28" cx="718.7" cy="171.9" r="22"/>
	<text transform="matrix(1 0 0 1 706.8248 206.7871)" class="st25 st26 st30">Stairs</text>
	<g id="Outline_Icons-9-2-2_1_">
		<line class="st29" x1="709.4" y1="179.6" x2="726.4" y2="179.6"/>
		<polyline class="st29" points="723.4,179.6 723.4,176.7 720.4,176.7 720.4,173.6 717.4,173.6 717.4,170.7 714.6,170.7 
			714.6,167.9 709.4,167.9 		"/>
		<line class="st29" x1="718.2" y1="162.9" x2="727.4" y2="172"/>
		<polyline class="st29" points="718.2,166.4 718.2,162.9 721.9,162.9 		"/>
		<polyline class="st29" points="727.4,168.3 727.4,172 723.5,172 		"/>
	</g>
</g>
<path class="st24" d="M368,388.1h-37.4H368z"/>
<line class="st24" x1="310.8" y1="508.4" x2="366.9" y2="508.4"/>
</svg>
