<svg id="Layer_1" data-name="Layer 1" xmlns="http://www.w3.org/2000/svg" viewBox="0 0 596.319 318.726"><defs><style>.cls-1{fill:#4196b1;}.cls-2{fill:#a8e0e5;}.cls-3{fill:#8eccce;}.cls-4{fill:#99b8bf;}.cls-12,.cls-5{fill:#040404;}.cls-5{opacity:0.05;}.cls-12,.cls-15,.cls-5,.cls-8{isolation:isolate;}.cls-6{fill:#b8bfc1;}.cls-7{fill:#fff;}.cls-8{fill:#020202;opacity:0.15;}.cls-9{fill:#596069;}.cls-10{fill:#9baeb8;}.cls-11,.cls-16,.cls-17{fill:none;stroke-miterlimit:10;}.cls-11{stroke:#7a8f94;stroke-linecap:round;stroke-width:0.561px;}.cls-12{opacity:0.1;}.cls-13{fill:#f8fafb;}.cls-14{fill:#7a8f94;}.cls-15{fill:#575757;opacity:0.65;}.cls-16{stroke:#ededed;stroke-width:8px;}.cls-17{stroke:#efeff0;stroke-width:4.061px;}.cls-18{fill:#eaf1f1;}.cls-19{fill:#767e7f;}.cls-20{fill:#7a8d92;}</style></defs><g id="shade"><polygon class="cls-1" points="0.431 145.301 10.219 155.089 51.631 155.089 51.631 304.639 65.718 318.726 587.222 318.726 596.164 304.162 596.164 5.941 0.431 5.941 0.431 145.301"/></g><g id="background"><polygon class="cls-2" points="4 4 4 141.641 54.182 141.641 54.182 300.788 592.319 300.788 592.319 4 4 4"/></g><g id="spaces"><polygon class="cls-3" points="55.137 141.641 4 141.641 4 4 56.619 4 56.619 140.662 55.137 141.641"/><polygon class="cls-3" points="103.371 56.801 155.497 56.801 155.497 4 202.296 4 202.296 56.801 214.472 56.801 214.472 140.662 103.371 140.662 103.371 56.801"/><polygon class="cls-3" points="293.992 4 293.992 29.701 276.11 29.701 276.11 105.797 592.319 105.797 592.319 5.941 293.992 4"/><polygon class="cls-3" points="592.319 207.767 446.756 207.767 446.756 200.157 201.916 200.157 201.916 300.788 592.319 300.788 592.319 207.767"/><rect class="cls-4" x="56.619" y="5.941" width="98.878" height="50.86"/></g><g id="furniature"><path class="cls-5" d="M1183.579,836.092v-49.6c0-.8.9-1.4,2.1-1.4h25.9c1.2,0,2.1.7,2.1,1.4v49.6c0,.8-.9,1.4-2.1,1.4h-25.9C1184.579,837.492,1183.579,836.892,1183.579,836.092Z" transform="translate(-1105.058 -539.619)"/><path class="cls-6" d="M1182.279,836.092v-49.6c0-.8.9-1.4,2.1-1.4h25.9c1.2,0,2.1.7,2.1,1.4v49.6c0,.8-.9,1.4-2.1,1.4h-26C1183.179,837.492,1182.279,836.892,1182.279,836.092Z" transform="translate(-1105.058 -539.619)"/><g id="tables-7-6-8"><path class="cls-7" d="M1181.479,820.492v15.6c0,.8.9,1.4,2.1,1.4h13.8v-17.1l-15.9.1Z" transform="translate(-1105.058 -539.619)"/><path class="cls-7" d="M1197.379,785.092h-13.8c-1.2,0-2.1.7-2.1,1.4v16.9h15.9v-18.3Z" transform="translate(-1105.058 -539.619)"/><rect class="cls-7" x="76.422" y="263.873" width="15.9" height="17"/><path class="cls-7" d="M1197.379,803.392h14.3v-16.9c0-.8-.9-1.4-2.1-1.4h-12.2Z" transform="translate(-1105.058 -539.619)"/><rect class="cls-7" x="92.321" y="263.873" width="14.3" height="17"/><path class="cls-7" d="M1197.379,837.492h12.2c1.2,0,2.1-.7,2.1-1.4v-15.6h-14.3Z" transform="translate(-1105.058 -539.619)"/></g><path class="cls-8" d="M1179.579,826.192v-2.4a3.2,3.2,0,0,0-3-3.3h-.2l-2.2.1a4.173,4.173,0,0,0-3.8,4.3h0a4.268,4.268,0,0,0,3.8,4.4l2.2.1a3.222,3.222,0,0,0,3.2-3.2h0C1179.579,826.292,1179.479,826.192,1179.579,826.192Z" transform="translate(-1105.058 -539.619)"/><path class="cls-9" d="M1179.779,826.192v-2.4a3.2,3.2,0,0,0-3-3.3h-.2l-2.2.1a4.173,4.173,0,0,0-3.8,4.3h0a4.268,4.268,0,0,0,3.8,4.4l2.2.1a3.185,3.185,0,0,0,3.2-3h0v-.2Z" transform="translate(-1105.058 -539.619)"/><path class="cls-10" d="M1180.779,826.092v-2.2a2.989,2.989,0,0,0-2.9-3h-.3l-2.2.1a3.885,3.885,0,0,0-3.8,3.9v.1h0a4.043,4.043,0,0,0,3.8,4l2.2.1a2.954,2.954,0,0,0,3.2-2.8h0Z" transform="translate(-1105.058 -539.619)"/><path class="cls-11" d="M1178.079,820.792l-2.6.2a3.885,3.885,0,0,0-3.8,3.9v.1h0a4.043,4.043,0,0,0,3.8,4l2.6.2" transform="translate(-1105.058 -539.619)"/><path class="cls-8" d="M1180.079,800.092v-2.4a3.2,3.2,0,0,0-3-3.3h-.2l-2.2.1a4.173,4.173,0,0,0-3.8,4.3h0a4.268,4.268,0,0,0,3.8,4.4l2.2.1a3.222,3.222,0,0,0,3.2-3.2h0C1180.179,800.292,1180.079,800.192,1180.079,800.092Z" transform="translate(-1105.058 -539.619)"/><path class="cls-9" d="M1180.379,800.092v-2.4a3.2,3.2,0,0,0-3-3.3h-.1l-2.2.1a4.173,4.173,0,0,0-3.8,4.3h0a4.268,4.268,0,0,0,3.8,4.4l2.2.1a3.185,3.185,0,0,0,3.2-3v-.1Z" transform="translate(-1105.058 -539.619)"/><path class="cls-10" d="M1181.379,800.092v-2.2a2.989,2.989,0,0,0-2.9-3h-.3l-2.2.1a3.885,3.885,0,0,0-3.8,3.9v.1h0a4.043,4.043,0,0,0,3.8,4l2.2.1a2.954,2.954,0,0,0,3.2-2.8h0Z" transform="translate(-1105.058 -539.619)"/><path class="cls-11" d="M1178.679,794.792l-2.6.2a3.885,3.885,0,0,0-3.8,3.9v.1h0a4.043,4.043,0,0,0,3.8,4l2.6.2" transform="translate(-1105.058 -539.619)"/><path class="cls-8" d="M1214.579,797.092v2.4a3.2,3.2,0,0,0,3,3.3h.2l2.2-.1a4.173,4.173,0,0,0,3.8-4.3h0a4.268,4.268,0,0,0-3.8-4.4l-2.2-.1a3.222,3.222,0,0,0-3.2,3.2Z" transform="translate(-1105.058 -539.619)"/><path class="cls-9" d="M1214.279,797.092v2.4a3.2,3.2,0,0,0,3,3.3h.2l2.2-.1a4.173,4.173,0,0,0,3.8-4.3h0a4.268,4.268,0,0,0-3.8-4.4l-2.2-.1a3.185,3.185,0,0,0-3.2,3v.2Z" transform="translate(-1105.058 -539.619)"/><path class="cls-10" d="M1213.279,797.192v2.2a2.989,2.989,0,0,0,2.9,3h.3l2.2-.1a3.885,3.885,0,0,0,3.8-3.9v-.1h0a4.043,4.043,0,0,0-3.8-4l-2.2-.1a2.954,2.954,0,0,0-3.2,2.8h0Z" transform="translate(-1105.058 -539.619)"/><path class="cls-11" d="M1215.979,802.392l2.6-.2a3.885,3.885,0,0,0,3.8-3.9v-.1h0a4.043,4.043,0,0,0-3.8-4l-2.6-.2" transform="translate(-1105.058 -539.619)"/><path class="cls-8" d="M1213.979,823.092v2.4a3.2,3.2,0,0,0,3,3.3h.2l2.2-.1a4.173,4.173,0,0,0,3.8-4.3h0a4.268,4.268,0,0,0-3.8-4.4l-2.2-.1a3.222,3.222,0,0,0-3.2,3.2Z" transform="translate(-1105.058 -539.619)"/><path class="cls-9" d="M1213.679,823.092v2.4a3.2,3.2,0,0,0,3,3.3h.2l2.2-.1a4.173,4.173,0,0,0,3.8-4.3h0a4.268,4.268,0,0,0-3.8-4.4l-2.2-.1a3.185,3.185,0,0,0-3.2,3h0v.2Z" transform="translate(-1105.058 -539.619)"/><path class="cls-10" d="M1212.679,823.192v2.2a2.989,2.989,0,0,0,2.9,3h.3l2.2-.1a3.885,3.885,0,0,0,3.8-3.9v-.1h0a4.043,4.043,0,0,0-3.8-4l-2.2-.1a2.954,2.954,0,0,0-3.2,2.8h0Z" transform="translate(-1105.058 -539.619)"/><path class="cls-11" d="M1215.379,828.492l2.6-.2a3.885,3.885,0,0,0,3.8-3.9v-.1h0a4.043,4.043,0,0,0-3.8-4l-2.6-.2" transform="translate(-1105.058 -539.619)"/><path class="cls-5" d="M1183.579,770.991v-49.6c0-.8.9-1.4,2.1-1.4h25.9c1.2,0,2.1.7,2.1,1.4v49.6c0,.8-.9,1.4-2.1,1.4h-25.9C1184.579,772.391,1183.579,771.791,1183.579,770.991Z" transform="translate(-1105.058 -539.619)"/><path class="cls-6" d="M1182.279,770.991v-49.6c0-.8.9-1.4,2.1-1.4h25.9c1.2,0,2.1.7,2.1,1.4v49.6c0,.8-.9,1.4-2.1,1.4h-26C1183.179,772.391,1182.279,771.791,1182.279,770.991Z" transform="translate(-1105.058 -539.619)"/><g id="tables-7-6-8-2" data-name="tables-7-6-8"><path class="cls-7" d="M1181.479,755.391v15.6c0,.8.9,1.4,2.1,1.4h13.8v-17.1l-15.9.1Z" transform="translate(-1105.058 -539.619)"/><path class="cls-7" d="M1197.379,719.991h-13.8c-1.2,0-2.1.7-2.1,1.4v16.9h15.9v-18.3Z" transform="translate(-1105.058 -539.619)"/><rect class="cls-7" x="76.422" y="198.772" width="15.9" height="17"/><path class="cls-7" d="M1197.379,738.291h14.3v-16.9c0-.8-.9-1.4-2.1-1.4h-12.2Z" transform="translate(-1105.058 -539.619)"/><rect class="cls-7" x="92.321" y="198.772" width="14.3" height="17"/><path class="cls-7" d="M1197.379,772.391h12.2c1.2,0,2.1-.7,2.1-1.4v-15.6h-14.3Z" transform="translate(-1105.058 -539.619)"/></g><path class="cls-8" d="M1179.579,761.091v-2.4a3.2,3.2,0,0,0-3-3.3h-.2l-2.2.1a4.173,4.173,0,0,0-3.8,4.3h0a4.268,4.268,0,0,0,3.8,4.4l2.2.1a3.222,3.222,0,0,0,3.2-3.2h0C1179.579,761.191,1179.479,761.091,1179.579,761.091Z" transform="translate(-1105.058 -539.619)"/><path class="cls-9" d="M1179.779,761.091v-2.4a3.2,3.2,0,0,0-3-3.3h-.2l-2.2.1a4.173,4.173,0,0,0-3.8,4.3h0a4.268,4.268,0,0,0,3.8,4.4l2.2.1a3.185,3.185,0,0,0,3.2-3h0v-.2Z" transform="translate(-1105.058 -539.619)"/><path class="cls-10" d="M1180.779,760.991v-2.2a2.989,2.989,0,0,0-2.9-3h-.3l-2.2.1a3.885,3.885,0,0,0-3.8,3.9v.1h0a4.043,4.043,0,0,0,3.8,4l2.2.1a2.954,2.954,0,0,0,3.2-2.8h0Z" transform="translate(-1105.058 -539.619)"/><path class="cls-11" d="M1178.079,755.691l-2.6.2a3.885,3.885,0,0,0-3.8,3.9v.1h0a4.043,4.043,0,0,0,3.8,4l2.6.2" transform="translate(-1105.058 -539.619)"/><path class="cls-8" d="M1180.079,734.991v-2.4a3.2,3.2,0,0,0-3-3.3h-.2l-2.2.1a4.173,4.173,0,0,0-3.8,4.3h0a4.268,4.268,0,0,0,3.8,4.4l2.2.1a3.222,3.222,0,0,0,3.2-3.2h0C1180.179,735.191,1180.079,735.091,1180.079,734.991Z" transform="translate(-1105.058 -539.619)"/><path class="cls-9" d="M1180.379,734.991v-2.4a3.2,3.2,0,0,0-3-3.3h-.1l-2.2.1a4.173,4.173,0,0,0-3.8,4.3h0a4.268,4.268,0,0,0,3.8,4.4l2.2.1a3.185,3.185,0,0,0,3.2-3v-.1Z" transform="translate(-1105.058 -539.619)"/><path class="cls-10" d="M1181.379,734.991v-2.2a2.989,2.989,0,0,0-2.9-3h-.3l-2.2.1a3.885,3.885,0,0,0-3.8,3.9v.1h0a4.043,4.043,0,0,0,3.8,4l2.2.1a2.954,2.954,0,0,0,3.2-2.8h0Z" transform="translate(-1105.058 -539.619)"/><path class="cls-11" d="M1178.679,729.691l-2.6.2a3.885,3.885,0,0,0-3.8,3.9v.1h0a4.043,4.043,0,0,0,3.8,4l2.6.2" transform="translate(-1105.058 -539.619)"/><path class="cls-8" d="M1214.579,731.991v2.4a3.2,3.2,0,0,0,3,3.3h.2l2.2-.1a4.173,4.173,0,0,0,3.8-4.3h0a4.268,4.268,0,0,0-3.8-4.4l-2.2-.1a3.222,3.222,0,0,0-3.2,3.2Z" transform="translate(-1105.058 -539.619)"/><path class="cls-9" d="M1214.279,731.991v2.4a3.2,3.2,0,0,0,3,3.3h.2l2.2-.1a4.173,4.173,0,0,0,3.8-4.3h0a4.268,4.268,0,0,0-3.8-4.4l-2.2-.1a3.185,3.185,0,0,0-3.2,3v.2Z" transform="translate(-1105.058 -539.619)"/><path class="cls-10" d="M1213.279,732.091v2.2a2.989,2.989,0,0,0,2.9,3h.3l2.2-.1a3.885,3.885,0,0,0,3.8-3.9v-.1h0a4.043,4.043,0,0,0-3.8-4l-2.2-.1a2.954,2.954,0,0,0-3.2,2.8h0Z" transform="translate(-1105.058 -539.619)"/><path class="cls-11" d="M1215.979,737.291l2.6-.2a3.885,3.885,0,0,0,3.8-3.9v-.1h0a4.043,4.043,0,0,0-3.8-4l-2.6-.2" transform="translate(-1105.058 -539.619)"/><path class="cls-8" d="M1213.979,757.991v2.4a3.2,3.2,0,0,0,3,3.3h.2l2.2-.1a4.173,4.173,0,0,0,3.8-4.3h0a4.268,4.268,0,0,0-3.8-4.4l-2.2-.1a3.222,3.222,0,0,0-3.2,3.2Z" transform="translate(-1105.058 -539.619)"/><path class="cls-9" d="M1213.679,757.991v2.4a3.2,3.2,0,0,0,3,3.3h.2l2.2-.1a4.173,4.173,0,0,0,3.8-4.3h0a4.268,4.268,0,0,0-3.8-4.4l-2.2-.1a3.185,3.185,0,0,0-3.2,3h0v.2Z" transform="translate(-1105.058 -539.619)"/><path class="cls-10" d="M1212.679,758.091v2.2a2.989,2.989,0,0,0,2.9,3h.3l2.2-.1a3.885,3.885,0,0,0,3.8-3.9v-.1h0a4.043,4.043,0,0,0-3.8-4l-2.2-.1a2.954,2.954,0,0,0-3.2,2.8h0Z" transform="translate(-1105.058 -539.619)"/><path class="cls-11" d="M1215.379,763.391l2.6-.2a3.885,3.885,0,0,0,3.8-3.9v-.1h0a4.043,4.043,0,0,0-3.8-4l-2.6-.2" transform="translate(-1105.058 -539.619)"/><path class="cls-5" d="M1253.5,821.418v-49.6c0-.8.9-1.4,2.1-1.4h25.9c1.2,0,2.1.7,2.1,1.4v49.6c0,.8-.9,1.4-2.1,1.4h-25.9C1254.5,822.818,1253.5,822.218,1253.5,821.418Z" transform="translate(-1105.058 -539.619)"/><path class="cls-6" d="M1252.2,821.418v-49.6c0-.8.9-1.4,2.1-1.4h25.9c1.2,0,2.1.7,2.1,1.4v49.6c0,.8-.9,1.4-2.1,1.4h-26C1253.1,822.818,1252.2,822.218,1252.2,821.418Z" transform="translate(-1105.058 -539.619)"/><g id="tables-7-6-8-3" data-name="tables-7-6-8"><path class="cls-7" d="M1251.4,805.818v15.6c0,.8.9,1.4,2.1,1.4h13.8v-17.1l-15.9.1Z" transform="translate(-1105.058 -539.619)"/><path class="cls-7" d="M1267.3,770.418h-13.8c-1.2,0-2.1.7-2.1,1.4v16.9h15.9v-18.3Z" transform="translate(-1105.058 -539.619)"/><rect class="cls-7" x="146.339" y="249.199" width="15.9" height="17"/><path class="cls-7" d="M1267.3,788.718h14.3v-16.9c0-.8-.9-1.4-2.1-1.4h-12.2Z" transform="translate(-1105.058 -539.619)"/><rect class="cls-7" x="162.239" y="249.199" width="14.3" height="17"/><path class="cls-7" d="M1267.3,822.818h12.2c1.2,0,2.1-.7,2.1-1.4v-15.6h-14.3Z" transform="translate(-1105.058 -539.619)"/></g><path class="cls-8" d="M1249.5,811.518v-2.4a3.2,3.2,0,0,0-3-3.3h-.2l-2.2.1a4.173,4.173,0,0,0-3.8,4.3h0a4.268,4.268,0,0,0,3.8,4.4l2.2.1a3.222,3.222,0,0,0,3.2-3.2h0C1249.5,811.618,1249.4,811.518,1249.5,811.518Z" transform="translate(-1105.058 -539.619)"/><path class="cls-9" d="M1249.7,811.518v-2.4a3.2,3.2,0,0,0-3-3.3h-.2l-2.2.1a4.173,4.173,0,0,0-3.8,4.3h0a4.268,4.268,0,0,0,3.8,4.4l2.2.1a3.185,3.185,0,0,0,3.2-3h0v-.2Z" transform="translate(-1105.058 -539.619)"/><path class="cls-10" d="M1250.7,811.418v-2.2a2.989,2.989,0,0,0-2.9-3h-.3l-2.2.1a3.885,3.885,0,0,0-3.8,3.9v.1h0a4.043,4.043,0,0,0,3.8,4l2.2.1a2.954,2.954,0,0,0,3.2-2.8h0Z" transform="translate(-1105.058 -539.619)"/><path class="cls-11" d="M1248,806.118l-2.6.2a3.885,3.885,0,0,0-3.8,3.9v.1h0a4.043,4.043,0,0,0,3.8,4l2.6.2" transform="translate(-1105.058 -539.619)"/><path class="cls-8" d="M1250,785.418v-2.4a3.2,3.2,0,0,0-3-3.3h-.2l-2.2.1a4.173,4.173,0,0,0-3.8,4.3h0a4.268,4.268,0,0,0,3.8,4.4l2.2.1a3.222,3.222,0,0,0,3.2-3.2h0C1250.1,785.618,1250,785.518,1250,785.418Z" transform="translate(-1105.058 -539.619)"/><path class="cls-9" d="M1250.3,785.418v-2.4a3.2,3.2,0,0,0-3-3.3h-.1l-2.2.1a4.173,4.173,0,0,0-3.8,4.3h0a4.268,4.268,0,0,0,3.8,4.4l2.2.1a3.185,3.185,0,0,0,3.2-3v-.1Z" transform="translate(-1105.058 -539.619)"/><path class="cls-10" d="M1251.3,785.418v-2.2a2.989,2.989,0,0,0-2.9-3h-.3l-2.2.1a3.885,3.885,0,0,0-3.8,3.9v.1h0a4.043,4.043,0,0,0,3.8,4l2.2.1a2.954,2.954,0,0,0,3.2-2.8h0Z" transform="translate(-1105.058 -539.619)"/><path class="cls-11" d="M1248.6,780.118l-2.6.2a3.885,3.885,0,0,0-3.8,3.9v.1h0a4.043,4.043,0,0,0,3.8,4l2.6.2" transform="translate(-1105.058 -539.619)"/><path class="cls-8" d="M1284.5,782.418v2.4a3.2,3.2,0,0,0,3,3.3h.2l2.2-.1a4.173,4.173,0,0,0,3.8-4.3h0a4.268,4.268,0,0,0-3.8-4.4l-2.2-.1a3.222,3.222,0,0,0-3.2,3.2Z" transform="translate(-1105.058 -539.619)"/><path class="cls-9" d="M1284.2,782.418v2.4a3.2,3.2,0,0,0,3,3.3h.2l2.2-.1a4.173,4.173,0,0,0,3.8-4.3h0a4.268,4.268,0,0,0-3.8-4.4l-2.2-.1a3.185,3.185,0,0,0-3.2,3v.2Z" transform="translate(-1105.058 -539.619)"/><path class="cls-10" d="M1283.2,782.518v2.2a2.989,2.989,0,0,0,2.9,3h.3l2.2-.1a3.885,3.885,0,0,0,3.8-3.9v-.1h0a4.043,4.043,0,0,0-3.8-4l-2.2-.1a2.954,2.954,0,0,0-3.2,2.8h0Z" transform="translate(-1105.058 -539.619)"/><path class="cls-11" d="M1285.9,787.718l2.6-.2a3.885,3.885,0,0,0,3.8-3.9v-.1h0a4.043,4.043,0,0,0-3.8-4l-2.6-.2" transform="translate(-1105.058 -539.619)"/><path class="cls-8" d="M1283.9,808.418v2.4a3.2,3.2,0,0,0,3,3.3h.2l2.2-.1a4.173,4.173,0,0,0,3.8-4.3h0a4.268,4.268,0,0,0-3.8-4.4l-2.2-.1a3.222,3.222,0,0,0-3.2,3.2Z" transform="translate(-1105.058 -539.619)"/><path class="cls-9" d="M1283.6,808.418v2.4a3.2,3.2,0,0,0,3,3.3h.2l2.2-.1a4.173,4.173,0,0,0,3.8-4.3h0a4.268,4.268,0,0,0-3.8-4.4l-2.2-.1a3.185,3.185,0,0,0-3.2,3h0v.2Z" transform="translate(-1105.058 -539.619)"/><path class="cls-10" d="M1282.6,808.518v2.2a2.989,2.989,0,0,0,2.9,3h.3l2.2-.1a3.885,3.885,0,0,0,3.8-3.9v-.1h0a4.043,4.043,0,0,0-3.8-4l-2.2-.1a2.954,2.954,0,0,0-3.2,2.8h0Z" transform="translate(-1105.058 -539.619)"/><path class="cls-11" d="M1285.3,813.818l2.6-.2a3.885,3.885,0,0,0,3.8-3.9v-.1h0a4.043,4.043,0,0,0-3.8-4l-2.6-.2" transform="translate(-1105.058 -539.619)"/><g id="Layer_25-10-3-20" data-name="Layer 25-10-3-20"><circle class="cls-12" cx="341.22" cy="22.61" r="5.983"/><circle class="cls-6" cx="341.338" cy="21.906" r="5.983"/><circle class="cls-13" cx="341.22" cy="21.202" r="5.983"/></g><path class="cls-12" d="M1463.906,575.059v-.2l2.2-9.2c.1-.1.1-.1.1-.2l.5-1.6a.807.807,0,0,0-.4-.9l-.8-.3-7-2.3-.7-.2a.809.809,0,0,0-.9.4l-.6,1.6v.1l-3.8,8.8c0,.1-.1.2-.1.4h0c-.1.4,0,.8.4.9h0l.5.2h.3a30.361,30.361,0,0,0,8.2,2.7c.1.1.2.2.3.2l.6.2a.68.68,0,0,0,.8-.4v-.1h0l.4-.1Z" transform="translate(-1105.058 -539.619)"/><path class="cls-9" d="M1464.206,574.359l.1-.2,2.2-9.2c.1-.1.1-.1.1-.2l.5-1.6a.808.808,0,0,0-.4-.9l-.8-.3-7-2.3-.7-.2a.807.807,0,0,0-.9.4l-.6,1.6v.1l-3.8,8.8c0,.1-.1.2-.1.4h0c-.1.4,0,.8.4.9h0l.5.2h.3a30.361,30.361,0,0,0,8.2,2.7c.1.1.2.2.3.2l.6.2a.679.679,0,0,0,.8-.4v-.1h0Z" transform="translate(-1105.058 -539.619)"/><path class="cls-10" d="M1463.306,574.559h0a29.459,29.459,0,0,1-10-3.3h0a.841.841,0,0,1-.4-1.1l4.2-9.9a1.484,1.484,0,0,1,1.7-.8l7,2.3a1.391,1.391,0,0,1,.9,1.7l-2.5,10.5C1464.206,574.359,1463.806,574.559,1463.306,574.559Z" transform="translate(-1105.058 -539.619)"/><path class="cls-14" d="M1465.706,565.059l-8.5-2.8a.715.715,0,0,1-.5-.9h0l.6-1.6a.807.807,0,0,1,.9-.4l8.4,2.8a.715.715,0,0,1,.5.9h0l-.5,1.6C1466.506,564.959,1466.106,565.059,1465.706,565.059Z" transform="translate(-1105.058 -539.619)"/><path class="cls-14" d="M1453.906,571.659l-.5-.2a.807.807,0,0,1-.4-.9h0l4.6-10.7,1.2.5-3.9,10.9a.949.949,0,0,1-1,.4Z" transform="translate(-1105.058 -539.619)"/><path class="cls-14" d="M1462.706,574.659l.6.2a.68.68,0,0,0,.8-.4v-.1h0l2.7-11.3-1.3-.3-3.3,11.1A.891.891,0,0,0,1462.706,574.659Z" transform="translate(-1105.058 -539.619)"/><path class="cls-12" d="M1441.6,570.062l-.142-.142-4.949-8.061c0-.141,0-.141-.071-.212l-.778-1.485a.807.807,0,0,0-.919-.353l-.778.353-6.576,3.324-.637.353a.807.807,0,0,0-.353.919l.707,1.556.071.071,3.535,8.909c.071.071.071.212.212.354h0c.213.353.566.566.92.353h0l.495-.212.212-.212a30.366,30.366,0,0,0,7.707-3.889.529.529,0,0,0,.354-.071l.565-.282a.68.68,0,0,0,.283-.849l-.07-.071h0l.212-.353Z" transform="translate(-1105.058 -539.619)"/><path class="cls-9" d="M1441.32,569.355l-.071-.212-4.95-8.061c0-.142,0-.142-.07-.213l-.778-1.484a.807.807,0,0,0-.919-.354l-.778.354-6.576,3.323-.637.353a.809.809,0,0,0-.353.92l.707,1.555.071.071,3.535,8.91c.071.07.071.212.212.353h0c.212.354.566.566.919.354h0l.495-.212.213-.213a30.333,30.333,0,0,0,7.707-3.889.537.537,0,0,0,.354-.07l.565-.283a.68.68,0,0,0,.283-.849l-.071-.07h0Z" transform="translate(-1105.058 -539.619)"/><path class="cls-10" d="M1440.825,570.132h0a29.457,29.457,0,0,1-9.4,4.738h0a.84.84,0,0,1-1.06-.5l-4.031-9.97a1.484,1.484,0,0,1,.637-1.768l6.576-3.323a1.39,1.39,0,0,1,1.838.565l5.657,9.193C1441.32,569.355,1441.178,569.779,1440.825,570.132Z" transform="translate(-1105.058 -539.619)"/><path class="cls-14" d="M1435.8,561.718l-7.99,4.03a.715.715,0,0,1-.99-.282h0l-.707-1.556a.806.806,0,0,1,.354-.919l7.919-3.96a.715.715,0,0,1,.99.283h0l.778,1.485C1436.3,561.081,1436.087,561.435,1435.8,561.718Z" transform="translate(-1105.058 -539.619)"/><path class="cls-14" d="M1432.127,574.729l-.495.212a.807.807,0,0,1-.919-.354h0l-4.313-10.818,1.2-.5,4.95,10.465a.952.952,0,0,1-.425.99Z" transform="translate(-1105.058 -539.619)"/><path class="cls-14" d="M1440.471,570.627l.566-.282a.681.681,0,0,0,.283-.849l-.071-.071h0l-6.081-9.9-1.131.707,5.515,10.182A.889.889,0,0,0,1440.471,570.627Z" transform="translate(-1105.058 -539.619)"/><path class="cls-8" d="M1450.4,612.59v3.3a4.408,4.408,0,0,0,4.126,4.539h.275l3.026-.138a5.739,5.739,0,0,0,5.226-5.914h0a5.871,5.871,0,0,0-5.226-6.051l-3.026-.138a4.432,4.432,0,0,0-4.4,4.4Z" transform="translate(-1105.058 -539.619)"/><path class="cls-9" d="M1449.986,612.59v3.3a4.409,4.409,0,0,0,4.126,4.539h.275l3.026-.138a5.738,5.738,0,0,0,5.226-5.914h0a5.869,5.869,0,0,0-5.226-6.051l-3.026-.138a4.381,4.381,0,0,0-4.4,4.126h0v.275Z" transform="translate(-1105.058 -539.619)"/><path class="cls-10" d="M1448.611,612.728v3.026a4.111,4.111,0,0,0,3.988,4.126h.413l3.026-.138a5.343,5.343,0,0,0,5.226-5.364v-.137h0a5.561,5.561,0,0,0-5.226-5.5l-3.026-.137a4.062,4.062,0,0,0-4.4,3.851h0Z" transform="translate(-1105.058 -539.619)"/><path class="cls-11" d="M1452.324,620.017l3.576-.275a5.343,5.343,0,0,0,5.226-5.364v-.137h0a5.561,5.561,0,0,0-5.226-5.5l-3.576-.275" transform="translate(-1105.058 -539.619)"/><path class="cls-8" d="M1424.365,616.029v-3.3a4.409,4.409,0,0,0-4.126-4.539h-.275l-3.026.138a5.738,5.738,0,0,0-5.226,5.914h0a5.868,5.868,0,0,0,5.226,6.051l3.026.138a4.432,4.432,0,0,0,4.4-4.4Z" transform="translate(-1105.058 -539.619)"/><path class="cls-9" d="M1424.777,616.029v-3.3a4.407,4.407,0,0,0-4.126-4.539h-.275l-3.025.138a5.74,5.74,0,0,0-5.227,5.914h0a5.87,5.87,0,0,0,5.227,6.051l3.025.138a4.38,4.38,0,0,0,4.4-4.126h0v-.275Z" transform="translate(-1105.058 -539.619)"/><path class="cls-10" d="M1426.153,615.891v-3.026a4.112,4.112,0,0,0-3.989-4.126h-.412l-3.026.138a5.343,5.343,0,0,0-5.226,5.364v.137h0a5.561,5.561,0,0,0,5.226,5.5l3.026.137a4.063,4.063,0,0,0,4.4-3.851h0Z" transform="translate(-1105.058 -539.619)"/><path class="cls-11" d="M1422.439,608.6l-3.575.275a5.343,5.343,0,0,0-5.227,5.364v.137h0a5.56,5.56,0,0,0,5.227,5.5l3.575.275" transform="translate(-1105.058 -539.619)"/><path class="cls-8" d="M1444.086,603.02l2.593,2.043a4.408,4.408,0,0,0,6.119-.433l.17-.216,1.764-2.462a5.739,5.739,0,0,0-1.412-7.765h0a5.868,5.868,0,0,0-7.987.361l-1.981,2.291a4.432,4.432,0,0,0,.734,6.181Z" transform="translate(-1105.058 -539.619)"/><path class="cls-9" d="M1443.831,603.344l2.593,2.043a4.406,4.406,0,0,0,6.118-.433l.171-.216,1.764-2.462a5.739,5.739,0,0,0-1.412-7.765h0a5.87,5.87,0,0,0-7.988.361l-1.98,2.292a4.379,4.379,0,0,0,.518,6.01h0l.216.17Z" transform="translate(-1105.058 -539.619)"/><path class="cls-10" d="M1443.088,604.51l2.377,1.872a4.11,4.11,0,0,0,5.709-.58l.085-.108.17-.216,1.765-2.462a5.344,5.344,0,0,0-.98-7.425l-.108-.085h0a5.561,5.561,0,0,0-7.556.7l-1.98,2.291a4.063,4.063,0,0,0,.3,5.841h0Z" transform="translate(-1105.058 -539.619)"/><path class="cls-11" d="M1451.112,606.1l2-2.979a5.343,5.343,0,0,0-.979-7.425l-.108-.085h0a5.56,5.56,0,0,0-7.556.7l-2.429,2.638" transform="translate(-1105.058 -539.619)"/><path class="cls-8" d="M1430.678,625.6l-2.593-2.043a4.408,4.408,0,0,0-6.119.433l-.17.216-1.765,2.462a5.739,5.739,0,0,0,1.412,7.765h0a5.869,5.869,0,0,0,7.988-.361l1.98-2.291a4.432,4.432,0,0,0-.733-6.181Z" transform="translate(-1105.058 -539.619)"/><path class="cls-9" d="M1430.933,625.275l-2.593-2.043a4.408,4.408,0,0,0-6.119.433l-.17.216-1.764,2.462a5.738,5.738,0,0,0,1.411,7.765h0a5.87,5.87,0,0,0,7.988-.361l1.981-2.292a4.38,4.38,0,0,0-.518-6.01h0l-.216-.17Z" transform="translate(-1105.058 -539.619)"/><path class="cls-10" d="M1431.676,624.109l-2.377-1.872a4.11,4.11,0,0,0-5.709.58l-.086.108-.17.216-1.764,2.462a5.344,5.344,0,0,0,.98,7.425l.108.085h0a5.559,5.559,0,0,0,7.555-.7l1.981-2.291a4.065,4.065,0,0,0-.3-5.841h0Z" transform="translate(-1105.058 -539.619)"/><path class="cls-11" d="M1423.652,622.516l-2,2.979a5.344,5.344,0,0,0,.98,7.425l.108.085h0a5.559,5.559,0,0,0,7.555-.7l2.429-2.638" transform="translate(-1105.058 -539.619)"/><path class="cls-8" d="M1445.845,624.348l-2.781,1.779a4.408,4.408,0,0,0-1.6,5.922l.149.231,1.746,2.475a5.739,5.739,0,0,0,7.8,1.216h0a5.872,5.872,0,0,0,2.282-7.664l-1.515-2.623a4.431,4.431,0,0,0-6.079-1.336Z" transform="translate(-1105.058 -539.619)"/><path class="cls-9" d="M1445.622,624l-2.78,1.778a4.408,4.408,0,0,0-1.6,5.922l.148.232,1.747,2.474a5.739,5.739,0,0,0,7.8,1.216h0a5.87,5.87,0,0,0,2.281-7.664l-1.515-2.623a4.38,4.38,0,0,0-5.847-1.484h0l-.232.149Z" transform="translate(-1105.058 -539.619)"/><path class="cls-10" d="M1444.765,622.916l-2.549,1.631a4.111,4.111,0,0,0-1.326,5.583l.074.116.149.232,1.746,2.474a5.343,5.343,0,0,0,7.335,1.512l.116-.074h0a5.559,5.559,0,0,0,1.817-7.367l-1.514-2.623a4.064,4.064,0,0,0-5.616-1.632h0Z" transform="translate(-1105.058 -539.619)"/><path class="cls-11" d="M1440.626,629.972l2.159,2.864a5.343,5.343,0,0,0,7.335,1.512l.115-.074h0a5.559,5.559,0,0,0,1.818-7.367l-1.7-3.16" transform="translate(-1105.058 -539.619)"/><path class="cls-8" d="M1428.919,604.271l2.78-1.779a4.408,4.408,0,0,0,1.6-5.922l-.148-.231-1.746-2.475a5.74,5.74,0,0,0-7.8-1.216h0a5.87,5.87,0,0,0-2.281,7.664l1.515,2.623a4.431,4.431,0,0,0,6.079,1.336Z" transform="translate(-1105.058 -539.619)"/><path class="cls-9" d="M1429.141,604.618l2.781-1.778a4.409,4.409,0,0,0,1.6-5.922l-.149-.232-1.746-2.474a5.739,5.739,0,0,0-7.8-1.216h0a5.872,5.872,0,0,0-2.282,7.664l1.515,2.623a4.382,4.382,0,0,0,5.848,1.484h0l.231-.149Z" transform="translate(-1105.058 -539.619)"/><path class="cls-10" d="M1430,605.7l2.549-1.631a4.11,4.11,0,0,0,1.326-5.583l-.074-.116-.148-.232-1.746-2.474a5.343,5.343,0,0,0-7.335-1.512l-.116.074h0a5.56,5.56,0,0,0-1.818,7.367l1.515,2.623a4.064,4.064,0,0,0,5.616,1.632h0Z" transform="translate(-1105.058 -539.619)"/><path class="cls-11" d="M1434.138,598.647l-2.159-2.864a5.343,5.343,0,0,0-7.335-1.512l-.116.074h0a5.56,5.56,0,0,0-1.818,7.367l1.7,3.16" transform="translate(-1105.058 -539.619)"/><g id="Layer_25-10-3-3" data-name="Layer 25-10-3-3"><circle class="cls-12" cx="332.324" cy="76.912" r="14.323"/><circle class="cls-6" cx="332.582" cy="75.364" r="14.323"/><circle class="cls-13" cx="332.324" cy="73.428" r="14.323"/></g></g><g id="bookable"><rect id="area-02.2-29-status" class="cls-15" x="520.57" y="207.767" width="71.749" height="93.021"/><rect id="area-02.2-28-status" class="cls-15" x="446.756" y="207.767" width="73.814" height="93.021"/><rect id="area-02.2-27-status" class="cls-15" x="348.021" y="200.157" width="98.735" height="100.631"/><rect id="area-02.2-26-status" class="cls-15" x="250.998" y="200.157" width="97.023" height="100.631"/><rect id="area-02.2-25-status" class="cls-15" x="201.916" y="200.157" width="49.082" height="100.631"/><rect id="area-02.2-32-status" class="cls-15" x="371.991" y="5.941" width="74.765" height="99.856"/><rect id="area-02.2-31-status" class="cls-15" x="446.756" y="5.941" width="73.814" height="99.856"/><rect id="area-02.2-30-status" class="cls-15" x="520.57" y="5.941" width="70.106" height="99.856"/></g><g id="outline"><polygon class="cls-16" points="4 141.641 4 4 592.319 4 592.319 300.788 55.137 300.788 55.137 141.641 4 141.641"/><line class="cls-17" x1="56.619" y1="64.642" x2="56.619" y2="4"/><polyline class="cls-17" points="56.619 89.504 56.619 106.029 56.619 97.766 4 97.766"/><line class="cls-17" x1="56.619" y1="130.29" x2="56.619" y2="140.662"/><line class="cls-17" x1="56.619" y1="55.573" x2="81.395" y2="55.573"/><polyline class="cls-17" points="100.558 55.573 103.371 55.573 103.371 140.662 108.697 140.662 108.697 147.27 108.697 140.662 214.472 140.662 214.472 124.821"/><polyline class="cls-17" points="214.472 83.349 214.472 109.602 214.472 106.029 155.497 106.029 155.497 4"/><line class="cls-17" x1="202.296" y1="20.189" x2="202.296" y2="4"/><polyline class="cls-17" points="202.296 37.691 202.296 56.801 155.497 56.801 214.472 56.801 214.472 64.642"/><polyline class="cls-17" points="293.992 5.941 293.992 29.701 276.11 29.701 276.11 105.797 292.47 105.797"/><polyline class="cls-17" points="309.973 105.797 381.123 105.797 371.991 105.797 371.991 4"/><polyline class="cls-17" points="398.245 105.797 495.268 105.797 446.756 105.797 446.756 4"/><polyline class="cls-17" points="513.911 105.797 527.228 105.797 520.57 105.797 520.57 5.941"/><line class="cls-17" x1="546.633" y1="105.797" x2="592.319" y2="105.797"/><line class="cls-17" x1="542.828" y1="207.767" x2="592.319" y2="207.767"/><polyline class="cls-17" points="527.228 207.767 513.911 207.767 520.57 207.767 520.57 298.702"/><polyline class="cls-17" points="497.17 207.767 446.756 207.767 446.756 303.536 446.756 200.157 372.372 200.157"/><polyline class="cls-17" points="354.109 200.157 273.827 200.157 348.021 200.157 348.021 300.788"/><polyline class="cls-17" points="256.705 200.157 224.745 200.157 250.998 200.157 250.998 300.788"/><polyline class="cls-17" points="207.242 200.157 201.916 200.157 201.916 300.788"/><polyline class="cls-17" points="55.137 180.372 145.985 180.372 108.317 180.372 108.317 168.577"/></g><g id="icons"><circle class="cls-18" cx="129.426" cy="91.277" r="11.3"/><path class="cls-19" d="M1227.083,649.2h.6a1.421,1.421,0,0,0,.2.6.55.55,0,0,0,.5.3,1.7,1.7,0,0,0,.7.1,1.268,1.268,0,0,0,.6-.1c.2-.1.3-.1.4-.3.1-.1.1-.2.1-.4a.6.6,0,0,0-.1-.4,1.38,1.38,0,0,0-.4-.3,2.353,2.353,0,0,0-.8-.2l-.9-.3a1,1,0,0,1-.5-.4,1,1,0,0,1,0-1.2.675.675,0,0,1,.6-.4,2.353,2.353,0,0,1,.8-.2,1.486,1.486,0,0,1,.9.2,2.651,2.651,0,0,1,.6.5,1.854,1.854,0,0,1,.2.7h-.6a.713.713,0,0,0-.3-.6,1.7,1.7,0,0,0-1.6,0c-.2.1-.2.3-.2.5a.52.52,0,0,0,.2.4,1.613,1.613,0,0,0,.9.3c.3.1.7.2,1,.3a2.651,2.651,0,0,1,.6.5,1.421,1.421,0,0,1,.2.6,1.854,1.854,0,0,1-.2.7,1.024,1.024,0,0,1-.6.5,2.92,2.92,0,0,1-.9.2,1.8,1.8,0,0,1-1-.2,1.024,1.024,0,0,1-.6-.5A1.222,1.222,0,0,1,1227.083,649.2Z" transform="translate(-1105.058 -539.619)"/><path class="cls-19" d="M1232.583,650.1l.1.5h-.4a.9.9,0,0,1-.5-.1c-.1-.1-.2-.1-.2-.2a1.268,1.268,0,0,1-.1-.6v-1.9h-.4v-.4h.4v-.8l.5-.3v1.1h.6v.4h-.6V650l.1.1h.2C1232.383,650.2,1232.483,650.1,1232.583,650.1Z" transform="translate(-1105.058 -539.619)"/><path class="cls-19" d="M1235.183,650.2a2.092,2.092,0,0,1-.6.4,1.268,1.268,0,0,1-.6.1,1.135,1.135,0,0,1-.8-.3.985.985,0,0,1,.1-1.5c.1-.1.3-.1.4-.2.2,0,.3-.1.5-.1a3.553,3.553,0,0,0,1-.2v-.1a.551.551,0,0,0-.2-.5,1.421,1.421,0,0,0-.6-.2,1.268,1.268,0,0,0-.6.1,2.186,2.186,0,0,0-.3.5l-.5-.1a1.421,1.421,0,0,1,.2-.6.55.55,0,0,1,.5-.3,2.5,2.5,0,0,1,1.4,0,.758.758,0,0,1,.4.2c.1.1.1.2.2.4V650c0,.1.1.3.1.4h-.6C1235.283,650.5,1235.183,650.4,1235.183,650.2Zm0-1.2a2.92,2.92,0,0,1-.9.2c-.2,0-.3.1-.5.1a.215.215,0,0,0-.2.2.367.367,0,0,0-.1.3.758.758,0,0,0,.2.4.44.44,0,0,0,.5.1,1.268,1.268,0,0,0,.6-.1.781.781,0,0,0,.4-.4,1.087,1.087,0,0,0,.1-.5Z" transform="translate(-1105.058 -539.619)"/><path class="cls-19" d="M1236.583,646.8v-.6h.5v.6Zm0,3.8v-3.2h.5v3.2Z" transform="translate(-1105.058 -539.619)"/><path class="cls-19" d="M1237.983,650.6v-3.2h.5v.5a1.756,1.756,0,0,1,.4-.5c.1-.1.2-.1.4-.1a1.421,1.421,0,0,1,.6.2l-.2.5a.6.6,0,0,0-.4-.1.367.367,0,0,0-.3.1c-.1.1-.2.2-.2.3a1.268,1.268,0,0,0-.1.6v1.7Z" transform="translate(-1105.058 -539.619)"/><path class="cls-19" d="M1239.783,649.7l.5-.1a.55.55,0,0,0,.3.5,1.421,1.421,0,0,0,.6.2.735.735,0,0,0,.6-.2.52.52,0,0,0,.2-.4c0-.1-.1-.2-.2-.3-.2-.1-.4-.1-.6-.2a6.89,6.89,0,0,1-.8-.3c-.1-.1-.3-.2-.4-.3a.85.85,0,0,1,0-.8l.3-.3c.1-.1.2-.1.4-.2.2,0,.3-.1.5-.1a1.7,1.7,0,0,1,.7.1,1.38,1.38,0,0,1,.4.3.764.764,0,0,1,.2.5l-.5.1a.52.52,0,0,0-.2-.4.44.44,0,0,0-.5-.1.749.749,0,0,0-.5.1c-.1.1-.2.2-.2.3s0,.1.1.2.1.1.2.1a2.034,2.034,0,0,0,.5.1c.3.1.5.2.8.3.1.1.3.2.4.3a.749.749,0,0,1,.1.5.764.764,0,0,1-.2.5,1,1,0,0,1-.5.4,1.483,1.483,0,0,1-.7.1,1.929,1.929,0,0,1-1-.3C1239.983,650.2,1239.883,650,1239.783,649.7Z" transform="translate(-1105.058 -539.619)"/><g id="Outline_Icons-2-2-4-2-2-2-3" data-name="Outline Icons-2-2-4-2-2-2-3"><rect class="cls-20" x="125.126" y="94.895" width="7.9" height="0.363"/><polygon class="cls-20" points="131.807 95.077 131.444 95.077 131.444 93.858 130.044 93.858 130.044 92.558 128.744 92.558 128.744 91.158 127.344 91.158 127.344 89.758 125.126 89.758 125.126 89.395 127.707 89.395 127.707 90.795 129.108 90.795 129.108 92.195 130.407 92.195 130.407 93.495 131.807 93.495 131.807 95.077"/><rect class="cls-20" x="1236.252" y="625.905" width="0.363" height="6.081" transform="translate(-1187.647 518.885) rotate(-45)"/><polygon class="cls-20" points="129.407 88.976 129.044 88.976 129.044 86.995 131.026 86.995 131.026 87.358 129.407 87.358 129.407 88.976"/><polygon class="cls-20" points="133.707 91.658 131.926 91.658 131.926 91.295 133.344 91.295 133.344 89.876 133.707 89.876 133.707 91.658"/></g><circle class="cls-18" cx="30.009" cy="71.064" r="11.3"/><path class="cls-19" d="M1124.367,630.383v-4.5h3.2v.5h-2.6v1.4h2.5v.5h-2.5v1.5h2.7v.5Z" transform="translate(-1105.058 -539.619)"/><path class="cls-19" d="M1128.367,630.383v-4.5h.5v4.5Z" transform="translate(-1105.058 -539.619)"/><path class="cls-19" d="M1132.067,629.383l.6.1a2.177,2.177,0,0,1-.5.8,1.613,1.613,0,0,1-.9.3,1.5,1.5,0,0,1-1.1-.4,1.746,1.746,0,0,1-.4-1.2,2.01,2.01,0,0,1,.4-1.3,1.606,1.606,0,0,1,1.1-.5,1.5,1.5,0,0,1,1.1.4,1.746,1.746,0,0,1,.4,1.2v.1h-2.4a1.135,1.135,0,0,0,.3.8.908.908,0,0,0,.7.3.764.764,0,0,0,.5-.2Zm-1.9-.9h1.8a1.421,1.421,0,0,0-.2-.6.908.908,0,0,0-.7-.3.713.713,0,0,0-.6.3A1.628,1.628,0,0,0,1130.167,628.483Z" transform="translate(-1105.058 -539.619)"/><path class="cls-19" d="M1134.167,630.383l-1.2-3.2h.6l.7,1.9a6.373,6.373,0,0,1,.2.7,1.421,1.421,0,0,1,.2-.6l.7-2h.6l-1.2,3.2Z" transform="translate(-1105.058 -539.619)"/><path class="cls-19" d="M1138.567,629.983a2.092,2.092,0,0,1-.6.4,1.268,1.268,0,0,1-.6.1,1.135,1.135,0,0,1-.8-.3.985.985,0,0,1,.1-1.5c.1-.1.3-.1.4-.2.2,0,.3-.1.5-.1a3.553,3.553,0,0,0,1-.2v-.1a.551.551,0,0,0-.2-.5,1.421,1.421,0,0,0-.6-.2,1.268,1.268,0,0,0-.6.1,2.186,2.186,0,0,0-.3.5l-.5-.1a1.421,1.421,0,0,1,.2-.6.55.55,0,0,1,.5-.3,2.5,2.5,0,0,1,1.4,0,.758.758,0,0,1,.4.2c.1.1.1.2.2.4v2.2c0,.1.1.3.1.4h-.6Zm-.1-1.2a2.92,2.92,0,0,1-.9.2c-.2,0-.3.1-.5.1a.215.215,0,0,0-.2.2.367.367,0,0,0-.1.3.758.758,0,0,0,.2.4.44.44,0,0,0,.5.1,1.268,1.268,0,0,0,.6-.1.781.781,0,0,0,.4-.4,1.087,1.087,0,0,0,.1-.5Z" transform="translate(-1105.058 -539.619)"/><path class="cls-19" d="M1141.067,629.883l.1.5h-.4a.9.9,0,0,1-.5-.1c-.1-.1-.2-.1-.2-.2a1.268,1.268,0,0,1-.1-.6v-1.9h-.4v-.4h.4v-.8l.5-.3v1.1h.6v.4h-.5v2.2l.1.1h.2C1140.967,629.983,1140.967,629.883,1141.067,629.883Z" transform="translate(-1105.058 -539.619)"/><path class="cls-19" d="M1141.467,628.783a1.536,1.536,0,0,1,.5-1.3,1.777,1.777,0,0,1,1-.4,1.5,1.5,0,0,1,1.1.4,1.746,1.746,0,0,1,.4,1.2,1.8,1.8,0,0,1-.2,1,2.651,2.651,0,0,1-.5.6,1.884,1.884,0,0,1-.8.2,1.5,1.5,0,0,1-1.1-.4A1.575,1.575,0,0,1,1141.467,628.783Zm.5,0a1.4,1.4,0,0,0,.3.9.935.935,0,0,0,1.3.1l.1-.1a1.689,1.689,0,0,0,.3-1,1.4,1.4,0,0,0-.3-.9.935.935,0,0,0-1.3-.1l-.1.1A1.929,1.929,0,0,0,1141.967,628.783Z" transform="translate(-1105.058 -539.619)"/><path class="cls-19" d="M1145.067,630.383v-3.2h.5v.5a1.756,1.756,0,0,1,.4-.5c.1-.1.2-.1.4-.1a1.421,1.421,0,0,1,.6.2l-.2.5a.6.6,0,0,0-.4-.1.367.367,0,0,0-.3.1c-.1.1-.2.2-.2.3a1.268,1.268,0,0,0-.1.6v1.7Z" transform="translate(-1105.058 -539.619)"/><path class="cls-20" d="M1140.267,616.466h-10a.614.614,0,0,1-.583-.583v-10a.546.546,0,0,1,.583-.583h10a.614.614,0,0,1,.583.583v10A.614.614,0,0,1,1140.267,616.466Zm-10-10.8c-.191,0-.217.11-.217.217v10a.249.249,0,0,0,.217.217h10a.249.249,0,0,0,.217-.217v-10a.25.25,0,0,0-.217-.217Z" transform="translate(-1105.058 -539.619)"/><path class="cls-20" d="M1135.05,616.266h-3.166V607.7h3.166Zm-2.8-.366h2.434v-7.833h-2.434Z" transform="translate(-1105.058 -539.619)"/><path class="cls-20" d="M1137.85,616.266h-3.166V607.7h3.166Zm-2.8-.366h2.434v-7.833h-2.434Z" transform="translate(-1105.058 -539.619)"/><rect class="cls-20" x="29.309" y="66.881" width="1.9" height="0.366"/><polygon class="cls-20" points="34.621 71.552 34.21 71.141 33.798 71.552 33.621 71.375 34.21 70.787 34.798 71.375 34.621 71.552"/><polygon class="cls-20" points="34.21 72.841 33.621 72.252 33.798 72.076 34.21 72.487 34.621 72.076 34.798 72.252 34.21 72.841"/><circle class="cls-18" cx="30.009" cy="113.864" r="11.3"/><path class="cls-19" d="M1124.367,673.183v-4.5h3.2v.5h-2.6v1.4h2.5v.5h-2.5v1.5h2.7v.5Z" transform="translate(-1105.058 -539.619)"/><path class="cls-19" d="M1128.367,673.183v-4.5h.5v4.5Z" transform="translate(-1105.058 -539.619)"/><path class="cls-19" d="M1132.067,672.183l.6.1a2.177,2.177,0,0,1-.5.8,1.613,1.613,0,0,1-.9.3,1.5,1.5,0,0,1-1.1-.4,1.746,1.746,0,0,1-.4-1.2,2.01,2.01,0,0,1,.4-1.3,1.606,1.606,0,0,1,1.1-.5,1.5,1.5,0,0,1,1.1.4,1.746,1.746,0,0,1,.4,1.2v.1h-2.4a1.135,1.135,0,0,0,.3.8.908.908,0,0,0,.7.3.764.764,0,0,0,.5-.2Zm-1.9-.9h1.8a1.421,1.421,0,0,0-.2-.6.908.908,0,0,0-.7-.3.713.713,0,0,0-.6.3A1.628,1.628,0,0,0,1130.167,671.283Z" transform="translate(-1105.058 -539.619)"/><path class="cls-19" d="M1134.167,673.183l-1.2-3.2h.6l.7,1.9a6.373,6.373,0,0,1,.2.7,1.421,1.421,0,0,1,.2-.6l.7-2h.6l-1.2,3.2Z" transform="translate(-1105.058 -539.619)"/><path class="cls-19" d="M1138.567,672.783a2.092,2.092,0,0,1-.6.4,1.268,1.268,0,0,1-.6.1,1.135,1.135,0,0,1-.8-.3.985.985,0,0,1,.1-1.5c.1-.1.3-.1.4-.2.2,0,.3-.1.5-.1a3.553,3.553,0,0,0,1-.2v-.1a.551.551,0,0,0-.2-.5,1.421,1.421,0,0,0-.6-.2,1.268,1.268,0,0,0-.6.1,2.186,2.186,0,0,0-.3.5l-.5-.1a1.421,1.421,0,0,1,.2-.6.55.55,0,0,1,.5-.3,2.5,2.5,0,0,1,1.4,0,.758.758,0,0,1,.4.2c.1.1.1.2.2.4v2.2c0,.1.1.3.1.4h-.6Zm-.1-1.2a2.92,2.92,0,0,1-.9.2c-.2,0-.3.1-.5.1a.215.215,0,0,0-.2.2.367.367,0,0,0-.1.3.758.758,0,0,0,.2.4.44.44,0,0,0,.5.1,1.268,1.268,0,0,0,.6-.1.781.781,0,0,0,.4-.4,1.087,1.087,0,0,0,.1-.5Z" transform="translate(-1105.058 -539.619)"/><path class="cls-19" d="M1141.067,672.683l.1.5h-.4a.9.9,0,0,1-.5-.1c-.1-.1-.2-.1-.2-.2a1.268,1.268,0,0,1-.1-.6v-1.9h-.4v-.4h.4v-.8l.5-.3v1.1h.6v.4h-.5v2.2l.1.1h.2C1140.967,672.783,1140.967,672.683,1141.067,672.683Z" transform="translate(-1105.058 -539.619)"/><path class="cls-19" d="M1141.467,671.583a1.536,1.536,0,0,1,.5-1.3,1.777,1.777,0,0,1,1-.4,1.5,1.5,0,0,1,1.1.4,1.746,1.746,0,0,1,.4,1.2,1.8,1.8,0,0,1-.2,1,2.651,2.651,0,0,1-.5.6,1.884,1.884,0,0,1-.8.2,1.5,1.5,0,0,1-1.1-.4A1.575,1.575,0,0,1,1141.467,671.583Zm.5,0a1.4,1.4,0,0,0,.3.9.935.935,0,0,0,1.3.1l.1-.1a1.689,1.689,0,0,0,.3-1,1.4,1.4,0,0,0-.3-.9.935.935,0,0,0-1.3-.1l-.1.1A1.929,1.929,0,0,0,1141.967,671.583Z" transform="translate(-1105.058 -539.619)"/><path class="cls-19" d="M1145.067,673.183v-3.2h.5v.5a1.756,1.756,0,0,1,.4-.5c.1-.1.2-.1.4-.1a1.421,1.421,0,0,1,.6.2l-.2.5a.6.6,0,0,0-.4-.1.367.367,0,0,0-.3.1c-.1.1-.2.2-.2.3a1.268,1.268,0,0,0-.1.6v1.7Z" transform="translate(-1105.058 -539.619)"/><path class="cls-20" d="M1140.267,659.266h-10a.614.614,0,0,1-.583-.583v-10a.546.546,0,0,1,.583-.583h10a.614.614,0,0,1,.583.583v10A.614.614,0,0,1,1140.267,659.266Zm-10-10.8c-.191,0-.217.11-.217.217v10a.25.25,0,0,0,.217.217h10a.25.25,0,0,0,.217-.217v-10a.25.25,0,0,0-.217-.217Z" transform="translate(-1105.058 -539.619)"/><path class="cls-20" d="M1135.05,659.067h-3.166V650.5h3.166Zm-2.8-.367h2.434v-7.834h-2.434Z" transform="translate(-1105.058 -539.619)"/><path class="cls-20" d="M1137.85,659.067h-3.166V650.5h3.166Zm-2.8-.367h2.434v-7.834h-2.434Z" transform="translate(-1105.058 -539.619)"/><rect class="cls-20" x="29.309" y="109.681" width="1.9" height="0.366"/><polygon class="cls-20" points="34.621 114.352 34.21 113.941 33.798 114.352 33.621 114.176 34.21 113.587 34.798 114.176 34.621 114.352"/><polygon class="cls-20" points="34.21 115.641 33.621 115.052 33.798 114.875 34.21 115.287 34.621 114.875 34.798 115.052 34.21 115.641"/><circle class="cls-18" cx="178.534" cy="28.189" r="11.3"/><g id="Outline_Icons-5-3-3" data-name="Outline Icons-5-3-3"><path class="cls-20" d="M1287.391,568.69h-2.382v-4.781a1.063,1.063,0,0,1,.982-1.082h.9a1.063,1.063,0,0,1,1.082.982l-.2,4.306C1287.769,568.231,1287.668,568.69,1287.391,568.69Zm-2.018-.363h1.964a.663.663,0,0,0,.073-.219V568.1l.2-4.3a.7.7,0,0,0-.719-.61h-.9a.7.7,0,0,0-.618.719Z" transform="translate(-1105.058 -539.619)"/><path class="cls-20" d="M1286.173,572.89h-4.69l.3-2.2a2.2,2.2,0,0,1-1.479-.737,2.068,2.068,0,0,1-.493-1.56l.015-.165h7.647V569.4l-1.3.9Zm-4.274-.363h3.911v-2.414l1.3-.9v-.623h-6.945a1.7,1.7,0,0,0,.413,1.125,1.833,1.833,0,0,0,1.23.613h.391Z" transform="translate(-1105.058 -539.619)"/><path class="cls-20" d="M1285.273,568.79h-5.863v-1.263h5.863Zm-5.5-.363h5.137v-.537h-5.137Z" transform="translate(-1105.058 -539.619)"/><path class="cls-20" d="M1286.591,565.09a.582.582,0,1,1,.582-.582A.583.583,0,0,1,1286.591,565.09Zm0-.8a.219.219,0,1,0,.219.218A.219.219,0,0,0,1286.591,564.29Z" transform="translate(-1105.058 -539.619)"/></g><path class="cls-19" d="M1279.891,587.509l-1.2-4.5h.6l.7,2.9c.1.3.1.6.2.9a7.347,7.347,0,0,1,.2-.8l.9-3h.7l.6,2.3a4.529,4.529,0,0,1,.3,1.6c.1-.3.1-.6.2-1l.7-2.9h.6l-1.2,4.5h-.6l-.9-3.4a1.75,1.75,0,0,1-.1-.5,4.331,4.331,0,0,1-.1.5l-1,3.4Z" transform="translate(-1105.058 -539.619)"/><path class="cls-19" d="M1288.191,586.009l.6.1a1.9,1.9,0,0,1-.7,1.1,1.746,1.746,0,0,1-1.2.4,2.663,2.663,0,0,1-1.2-.3,1.6,1.6,0,0,1-.7-.9,2.537,2.537,0,0,1-.2-1.2,2.663,2.663,0,0,1,.3-1.2,2.047,2.047,0,0,1,.8-.8,2.167,2.167,0,0,1,2.2,0,1.7,1.7,0,0,1,.6,1l-.6.1a1.157,1.157,0,0,0-.5-.7.952.952,0,0,0-.7-.2,2.891,2.891,0,0,0-.9.2,1.794,1.794,0,0,0-.5.7,2.769,2.769,0,0,0-.1.9,1.8,1.8,0,0,0,.2,1,1.024,1.024,0,0,0,.5.6,1.884,1.884,0,0,0,.8.2,1.135,1.135,0,0,0,.8-.3C1287.991,586.609,1288.091,586.309,1288.191,586.009Z" transform="translate(-1105.058 -539.619)"/><circle class="cls-18" cx="187.239" cy="78.114" r="11.3"/><g id="Outline_Icons-5-3-3-2" data-name="Outline Icons-5-3-3"><path class="cls-20" d="M1296.1,618.615h-2.381v-4.782a1.061,1.061,0,0,1,.981-1.081h.9a1.062,1.062,0,0,1,1.082.981l-.2,4.308C1296.473,618.156,1296.372,618.615,1296.1,618.615Zm-2.018-.363h1.964a.691.691,0,0,0,.072-.219v-.008l.2-4.3a.7.7,0,0,0-.719-.61h-.9a.7.7,0,0,0-.618.718Z" transform="translate(-1105.058 -539.619)"/><path class="cls-20" d="M1294.878,622.815h-4.69l.3-2.2a2.117,2.117,0,0,1-1.972-2.3l.015-.166h7.647v1.177l-1.3.9Zm-4.274-.363h3.911v-2.414l1.3-.9v-.623h-6.946a1.738,1.738,0,0,0,1.644,1.738h.391Z" transform="translate(-1105.058 -539.619)"/><path class="cls-20" d="M1293.978,618.715h-5.864v-1.263h5.864Zm-5.5-.363h5.136v-.537h-5.136Z" transform="translate(-1105.058 -539.619)"/><path class="cls-20" d="M1295.3,615.015a.582.582,0,1,1,.582-.582A.582.582,0,0,1,1295.3,615.015Zm0-.8a.218.218,0,1,0,.219.218A.218.218,0,0,0,1295.3,614.215Z" transform="translate(-1105.058 -539.619)"/></g><path class="cls-19" d="M1288.6,637.433l-1.2-4.5h.6l.7,2.9c.1.3.1.6.2.9a7.347,7.347,0,0,1,.2-.8l.9-3h.7l.6,2.3a4.529,4.529,0,0,1,.3,1.6c.1-.3.1-.6.2-1l.7-2.9h.6l-1.2,4.5h-.6l-.9-3.4a1.75,1.75,0,0,1-.1-.5,4.331,4.331,0,0,1-.1.5l-1,3.4Z" transform="translate(-1105.058 -539.619)"/><path class="cls-19" d="M1296.9,635.933l.6.1a1.9,1.9,0,0,1-.7,1.1,1.746,1.746,0,0,1-1.2.4,2.663,2.663,0,0,1-1.2-.3,1.6,1.6,0,0,1-.7-.9,2.537,2.537,0,0,1-.2-1.2,2.663,2.663,0,0,1,.3-1.2,2.047,2.047,0,0,1,.8-.8,2.167,2.167,0,0,1,2.2,0,1.7,1.7,0,0,1,.6,1l-.6.1a1.157,1.157,0,0,0-.5-.7.952.952,0,0,0-.7-.2,2.92,2.92,0,0,0-.9.2,1.794,1.794,0,0,0-.5.7,2.769,2.769,0,0,0-.1.9,1.8,1.8,0,0,0,.2,1,1.024,1.024,0,0,0,.5.6,1.884,1.884,0,0,0,.8.2,1.135,1.135,0,0,0,.8-.3C1296.7,636.533,1296.8,636.233,1296.9,635.933Z" transform="translate(-1105.058 -539.619)"/></g><g id="Room_name" data-name="Room name"><path class="cls-7" d="M1328.06,786.7v1.274h-2.153v5.923h-1.514v-5.923h-2.163V786.7Z" transform="translate(-1105.058 -539.619)"/><path class="cls-7" d="M1332,791.07h-1.553v2.822h-1.47v-7.2h3.531a3.294,3.294,0,0,1,1.164.185,1.827,1.827,0,0,1,.691.5,2.234,2.234,0,0,1,.371.606,1.98,1.98,0,0,1,.137.757,2.151,2.151,0,0,1-.259,1.008,1.446,1.446,0,0,1-.854.7,1.341,1.341,0,0,1,.705.568,2.373,2.373,0,0,1,.208,1.126v.483a3.6,3.6,0,0,0,.039.669.6.6,0,0,0,.273.411v.18h-1.655c-.046-.159-.078-.288-.1-.386a3.522,3.522,0,0,1-.063-.62l-.01-.669a1.317,1.317,0,0,0-.251-.918A1.338,1.338,0,0,0,1332,791.07Zm.913-1.309a.8.8,0,0,0,.449-.81.891.891,0,0,0-.435-.879,1.637,1.637,0,0,0-.732-.127h-1.748v1.934h1.7A1.9,1.9,0,0,0,1332.909,789.761Z" transform="translate(-1105.058 -539.619)"/><path class="cls-7" d="M1340.629,791.28v1.089h-.8v1.523h-1.363v-1.523h-2.8v-1.216l2.6-4.3h1.563v4.424Zm-3.936,0h1.772v-3.057Z" transform="translate(-1105.058 -539.619)"/><path class="cls-7" d="M1403.035,786.7v1.274h-2.154v5.923h-1.513v-5.923h-2.163V786.7Z" transform="translate(-1105.058 -539.619)"/><path class="cls-7" d="M1406.97,791.07h-1.552v2.822h-1.47v-7.2h3.53a3.286,3.286,0,0,1,1.164.185,1.831,1.831,0,0,1,.692.5,2.234,2.234,0,0,1,.371.606,1.98,1.98,0,0,1,.136.757,2.15,2.15,0,0,1-.258,1.008,1.446,1.446,0,0,1-.855.7,1.337,1.337,0,0,1,.7.568,2.361,2.361,0,0,1,.208,1.126v.483a3.693,3.693,0,0,0,.039.669.6.6,0,0,0,.274.411v.18H1408.3c-.045-.159-.078-.288-.1-.386a3.522,3.522,0,0,1-.064-.62l-.009-.669a1.317,1.317,0,0,0-.251-.918A1.339,1.339,0,0,0,1406.97,791.07Zm.913-1.309a.8.8,0,0,0,.45-.81.893.893,0,0,0-.435-.879,1.637,1.637,0,0,0-.732-.127h-1.748v1.934h1.7A1.89,1.89,0,0,0,1407.883,789.761Z" transform="translate(-1105.058 -539.619)"/><path class="cls-7" d="M1413.04,790.377a1.377,1.377,0,0,0-.44.063.87.87,0,0,0-.493.435l-1.25-.059.5-3.911h3.9v1.182h-2.895l-.254,1.547a3.027,3.027,0,0,1,.5-.278,2.124,2.124,0,0,1,.737-.112,2.218,2.218,0,0,1,1.534.591,2.195,2.195,0,0,1,.654,1.718,2.694,2.694,0,0,1-.63,1.753,2.289,2.289,0,0,1-1.885.772,2.5,2.5,0,0,1-1.66-.542,2.107,2.107,0,0,1-.723-1.538h1.387a1.356,1.356,0,0,0,.317.7.9.9,0,0,0,.684.246.921.921,0,0,0,.788-.363,1.486,1.486,0,0,0,.272-.916,1.6,1.6,0,0,0-.254-.916A.891.891,0,0,0,1413.04,790.377Z" transform="translate(-1105.058 -539.619)"/><path class="cls-7" d="M1496,786.7v1.274h-2.154v5.923h-1.513v-5.923h-2.163V786.7Z" transform="translate(-1105.058 -539.619)"/><path class="cls-7" d="M1499.935,791.07h-1.553v2.822h-1.469v-7.2h3.53a3.286,3.286,0,0,1,1.164.185,1.819,1.819,0,0,1,.691.5,2.213,2.213,0,0,1,.372.606,2,2,0,0,1,.136.757,2.162,2.162,0,0,1-.258,1.008,1.449,1.449,0,0,1-.855.7,1.341,1.341,0,0,1,.7.568,2.361,2.361,0,0,1,.208,1.126v.483a3.693,3.693,0,0,0,.039.669.6.6,0,0,0,.274.411v.18h-1.656c-.046-.159-.078-.288-.1-.386a3.522,3.522,0,0,1-.064-.62l-.01-.669a1.307,1.307,0,0,0-.251-.918A1.336,1.336,0,0,0,1499.935,791.07Zm.913-1.309a.8.8,0,0,0,.45-.81.893.893,0,0,0-.435-.879,1.637,1.637,0,0,0-.732-.127h-1.749v1.934h1.7A1.9,1.9,0,0,0,1500.848,789.761Z" transform="translate(-1105.058 -539.619)"/><path class="cls-7" d="M1507.157,791.3h-1.528v2.588h-1.495v-7.2h3.135a2.55,2.55,0,0,1,1.729.557,2.157,2.157,0,0,1,.644,1.723,2.212,2.212,0,0,1-.644,1.8A2.836,2.836,0,0,1,1507.157,791.3Zm.7-1.5a1.043,1.043,0,0,0,.293-.82.977.977,0,0,0-.3-.8,1.288,1.288,0,0,0-.828-.239h-1.4v2.119h1.4A1.223,1.223,0,0,0,1507.86,789.805Z" transform="translate(-1105.058 -539.619)"/><path class="cls-7" d="M1513.793,793.892h-1.426v-4.883H1510.7v-.947a6.113,6.113,0,0,0,.923-.088,1.291,1.291,0,0,0,.683-.371,1.228,1.228,0,0,0,.274-.508,1.145,1.145,0,0,0,.053-.283h1.158Z" transform="translate(-1105.058 -539.619)"/><path class="cls-7" d="M1519.047,788.253a1.016,1.016,0,0,0-1.578.175,2.366,2.366,0,0,0-.156.869h-1.352a3.4,3.4,0,0,1,.327-1.459,2.036,2.036,0,0,1,1.977-1.06,2.51,2.51,0,0,1,1.787.622,2.154,2.154,0,0,1,.664,1.648,2.233,2.233,0,0,1-.468,1.4,4.668,4.668,0,0,1-1.011.9l-.557.4c-.348.247-.587.427-.715.537a1.57,1.57,0,0,0-.325.386h3.091v1.225h-4.849a3.325,3.325,0,0,1,.328-1.391,3.926,3.926,0,0,1,1.406-1.5,10.307,10.307,0,0,0,1.245-.987A1.455,1.455,0,0,0,1519.3,789,1.123,1.123,0,0,0,1519.047,788.253Z" transform="translate(-1105.058 -539.619)"/><path class="cls-7" d="M1581.3,793.559v1.274h-2.153v5.923h-1.514v-5.923h-2.163v-1.274Z" transform="translate(-1105.058 -539.619)"/><path class="cls-7" d="M1585.235,797.934h-1.553v2.822h-1.469v-7.2h3.53a3.267,3.267,0,0,1,1.164.185,1.827,1.827,0,0,1,.691.5,2.186,2.186,0,0,1,.371.606,1.971,1.971,0,0,1,.137.756,2.148,2.148,0,0,1-.259,1.008,1.443,1.443,0,0,1-.854.7,1.347,1.347,0,0,1,.705.569,2.361,2.361,0,0,1,.208,1.126v.483a3.7,3.7,0,0,0,.039.669.6.6,0,0,0,.273.41v.181h-1.655c-.046-.159-.078-.288-.1-.386a3.522,3.522,0,0,1-.063-.62l-.01-.669a1.317,1.317,0,0,0-.251-.918A1.338,1.338,0,0,0,1585.235,797.934Zm.913-1.309a.8.8,0,0,0,.449-.81.892.892,0,0,0-.434-.879,1.639,1.639,0,0,0-.733-.127h-1.748v1.933h1.7A1.9,1.9,0,0,0,1586.148,796.625Z" transform="translate(-1105.058 -539.619)"/><path class="cls-7" d="M1592.457,798.168h-1.529v2.588h-1.494v-7.2h3.135a2.555,2.555,0,0,1,1.729.556,2.16,2.16,0,0,1,.644,1.724,2.212,2.212,0,0,1-.644,1.8A2.842,2.842,0,0,1,1592.457,798.168Zm.7-1.5a1.043,1.043,0,0,0,.293-.82.977.977,0,0,0-.3-.8,1.288,1.288,0,0,0-.828-.239h-1.4v2.119h1.4A1.223,1.223,0,0,0,1593.16,796.669Z" transform="translate(-1105.058 -539.619)"/><path class="cls-7" d="M1599.092,800.756h-1.425v-4.883H1596v-.947a6.218,6.218,0,0,0,.922-.088,1.3,1.3,0,0,0,.684-.371,1.215,1.215,0,0,0,.273-.508,1.119,1.119,0,0,0,.054-.283h1.157Z" transform="translate(-1105.058 -539.619)"/><path class="cls-7" d="M1602.784,795.087a1.313,1.313,0,0,0-.225.835h-1.3a3.5,3.5,0,0,1,.181-1,2.27,2.27,0,0,1,.537-.767,1.862,1.862,0,0,1,.65-.38,2.806,2.806,0,0,1,.922-.132,2.458,2.458,0,0,1,1.638.524,1.748,1.748,0,0,1,.623,1.409,1.559,1.559,0,0,1-.371,1.055,1.265,1.265,0,0,1-.488.366,1.012,1.012,0,0,1,.547.327,1.752,1.752,0,0,1,.532,1.348,2.271,2.271,0,0,1-.622,1.579,2.373,2.373,0,0,1-1.844.682,2.229,2.229,0,0,1-2.09-.982,2.912,2.912,0,0,1-.342-1.367h1.368a1.607,1.607,0,0,0,.136.7.937.937,0,0,0,.923.513,1.025,1.025,0,0,0,.716-.281,1.044,1.044,0,0,0,.3-.808.911.911,0,0,0-.567-.933,2.9,2.9,0,0,0-1.015-.131v-1a2.654,2.654,0,0,0,.947-.132.813.813,0,0,0,.464-.83.928.928,0,0,0-.237-.66.868.868,0,0,0-.667-.253A.836.836,0,0,0,1602.784,795.087Z" transform="translate(-1105.058 -539.619)"/><path class="cls-7" d="M1652.149,793.559v1.274H1650v5.923h-1.514v-5.923h-2.163v-1.274Z" transform="translate(-1105.058 -539.619)"/><path class="cls-7" d="M1656.085,797.934h-1.553v2.822h-1.47v-7.2h3.53a3.263,3.263,0,0,1,1.164.185,1.831,1.831,0,0,1,.692.5,2.234,2.234,0,0,1,.371.606,1.971,1.971,0,0,1,.137.756,2.148,2.148,0,0,1-.259,1.008,1.442,1.442,0,0,1-.855.7,1.35,1.35,0,0,1,.706.569,2.373,2.373,0,0,1,.208,1.126v.483a3.607,3.607,0,0,0,.039.669.6.6,0,0,0,.273.41v.181h-1.655c-.046-.159-.078-.288-.1-.386a3.522,3.522,0,0,1-.063-.62l-.01-.669a1.317,1.317,0,0,0-.251-.918A1.338,1.338,0,0,0,1656.085,797.934Zm.913-1.309a.8.8,0,0,0,.449-.81.893.893,0,0,0-.435-.879,1.637,1.637,0,0,0-.732-.127h-1.748v1.933h1.7A1.9,1.9,0,0,0,1657,796.625Z" transform="translate(-1105.058 -539.619)"/><path class="cls-7" d="M1663.306,798.168h-1.528v2.588h-1.494v-7.2h3.135a2.554,2.554,0,0,1,1.728.556,2.157,2.157,0,0,1,.645,1.724,2.209,2.209,0,0,1-.645,1.8A2.842,2.842,0,0,1,1663.306,798.168Zm.7-1.5a1.039,1.039,0,0,0,.293-.82.974.974,0,0,0-.295-.8,1.286,1.286,0,0,0-.828-.239h-1.4v2.119h1.4A1.221,1.221,0,0,0,1664.009,796.669Z" transform="translate(-1105.058 -539.619)"/><path class="cls-7" d="M1669.942,800.756h-1.426v-4.883h-1.665v-.947a6.236,6.236,0,0,0,.923-.088,1.308,1.308,0,0,0,.684-.371,1.215,1.215,0,0,0,.273-.508,1.166,1.166,0,0,0,.054-.283h1.157Z" transform="translate(-1105.058 -539.619)"/><path class="cls-7" d="M1676.949,798.144v1.089h-.8v1.523h-1.362v-1.523h-2.8v-1.216l2.6-4.3h1.562v4.424Zm-3.936,0h1.773v-3.057Z" transform="translate(-1105.058 -539.619)"/><path class="cls-7" d="M1652.149,595.012v1.274H1650v5.923h-1.514v-5.923h-2.163v-1.274Z" transform="translate(-1105.058 -539.619)"/><path class="cls-7" d="M1656.085,599.387h-1.553v2.822h-1.47v-7.2h3.53a3.286,3.286,0,0,1,1.164.185,1.831,1.831,0,0,1,.692.5,2.234,2.234,0,0,1,.371.606,1.973,1.973,0,0,1,.137.757,2.147,2.147,0,0,1-.259,1.007,1.447,1.447,0,0,1-.855.7,1.344,1.344,0,0,1,.706.568,2.373,2.373,0,0,1,.208,1.126v.483a3.607,3.607,0,0,0,.039.669.594.594,0,0,0,.273.41v.181h-1.655c-.046-.159-.078-.288-.1-.386a3.522,3.522,0,0,1-.063-.62l-.01-.669a1.317,1.317,0,0,0-.251-.918A1.338,1.338,0,0,0,1656.085,599.387Zm.913-1.309a.8.8,0,0,0,.449-.81.893.893,0,0,0-.435-.879,1.637,1.637,0,0,0-.732-.127h-1.748V598.2h1.7A1.9,1.9,0,0,0,1657,598.078Z" transform="translate(-1105.058 -539.619)"/><path class="cls-7" d="M1663.306,599.621h-1.528v2.588h-1.494v-7.2h3.135a2.554,2.554,0,0,1,1.728.556,2.158,2.158,0,0,1,.645,1.724,2.209,2.209,0,0,1-.645,1.8A2.842,2.842,0,0,1,1663.306,599.621Zm.7-1.5a1.039,1.039,0,0,0,.293-.82.974.974,0,0,0-.295-.8,1.286,1.286,0,0,0-.828-.239h-1.4v2.119h1.4A1.221,1.221,0,0,0,1664.009,598.122Z" transform="translate(-1105.058 -539.619)"/><path class="cls-7" d="M1669.942,602.209h-1.426v-4.883h-1.665v-.947a6.236,6.236,0,0,0,.923-.088,1.294,1.294,0,0,0,.684-.371,1.215,1.215,0,0,0,.273-.508,1.158,1.158,0,0,0,.054-.283h1.157Z" transform="translate(-1105.058 -539.619)"/><path class="cls-7" d="M1674.385,598.693a1.369,1.369,0,0,0-.439.064.87.87,0,0,0-.493.435l-1.25-.059.5-3.911h3.9V596.4h-2.895l-.254,1.548a3.027,3.027,0,0,1,.5-.278,2.124,2.124,0,0,1,.737-.112,2.137,2.137,0,0,1,2.188,2.309,2.694,2.694,0,0,1-.63,1.753,2.289,2.289,0,0,1-1.885.772,2.5,2.5,0,0,1-1.66-.542,2.107,2.107,0,0,1-.723-1.538h1.387a1.348,1.348,0,0,0,.317.7.9.9,0,0,0,.684.246.923.923,0,0,0,.788-.363,1.492,1.492,0,0,0,.271-.916,1.6,1.6,0,0,0-.254-.916A.888.888,0,0,0,1674.385,598.693Z" transform="translate(-1105.058 -539.619)"/><path class="cls-7" d="M1579.15,595.012v1.274H1577v5.923h-1.514v-5.923h-2.163v-1.274Z" transform="translate(-1105.058 -539.619)"/><path class="cls-7" d="M1583.086,599.387h-1.553v2.822h-1.47v-7.2h3.53a3.286,3.286,0,0,1,1.164.185,1.831,1.831,0,0,1,.692.5,2.234,2.234,0,0,1,.371.606,1.973,1.973,0,0,1,.137.757,2.147,2.147,0,0,1-.259,1.007,1.447,1.447,0,0,1-.855.7,1.337,1.337,0,0,1,.7.568,2.361,2.361,0,0,1,.208,1.126v.483a3.58,3.58,0,0,0,.04.669.594.594,0,0,0,.273.41v.181h-1.655c-.046-.159-.078-.288-.1-.386a3.522,3.522,0,0,1-.063-.62l-.01-.669a1.317,1.317,0,0,0-.251-.918A1.338,1.338,0,0,0,1583.086,599.387Zm.913-1.309a.8.8,0,0,0,.449-.81.893.893,0,0,0-.435-.879,1.637,1.637,0,0,0-.732-.127h-1.748V598.2h1.7A1.9,1.9,0,0,0,1584,598.078Z" transform="translate(-1105.058 -539.619)"/><path class="cls-7" d="M1590.307,599.621h-1.528v2.588h-1.494v-7.2h3.135a2.554,2.554,0,0,1,1.728.556,2.158,2.158,0,0,1,.645,1.724,2.209,2.209,0,0,1-.645,1.8A2.842,2.842,0,0,1,1590.307,599.621Zm.7-1.5a1.039,1.039,0,0,0,.293-.82.974.974,0,0,0-.3-.8,1.286,1.286,0,0,0-.828-.239h-1.4v2.119h1.4A1.221,1.221,0,0,0,1591.01,598.122Z" transform="translate(-1105.058 -539.619)"/><path class="cls-7" d="M1596.943,602.209h-1.426v-4.883h-1.665v-.947a6.236,6.236,0,0,0,.923-.088,1.294,1.294,0,0,0,.684-.371,1.215,1.215,0,0,0,.273-.508,1.158,1.158,0,0,0,.054-.283h1.157Z" transform="translate(-1105.058 -539.619)"/><path class="cls-7" d="M1601.777,597.614a2.026,2.026,0,0,1,1.545.64,2.29,2.29,0,0,1,.6,1.636,2.766,2.766,0,0,1-.59,1.748,2.184,2.184,0,0,1-1.836.757,2.113,2.113,0,0,1-1.973-1.119,4.555,4.555,0,0,1-.493-2.255,10.21,10.21,0,0,1,.068-1.319,4.019,4.019,0,0,1,.474-1.5,2.422,2.422,0,0,1,.794-.825,2.138,2.138,0,0,1,1.174-.312,2.32,2.32,0,0,1,1.572.506,1.916,1.916,0,0,1,.659,1.344h-1.387a.716.716,0,0,0-.131-.376.765.765,0,0,0-.679-.332,1,1,0,0,0-.967.762,4.727,4.727,0,0,0-.215,1.24,1.572,1.572,0,0,1,.6-.449A2.011,2.011,0,0,1,1601.777,597.614Zm-.937,1.328a1.217,1.217,0,0,0-.411,1.026,1.392,1.392,0,0,0,.308.933.981.981,0,0,0,.781.361.864.864,0,0,0,.73-.35,1.452,1.452,0,0,0,.266-.905,1.356,1.356,0,0,0-.3-.95.974.974,0,0,0-.743-.329A.99.99,0,0,0,1600.84,598.942Z" transform="translate(-1105.058 -539.619)"/><path class="cls-7" d="M1504.861,595.012v1.274h-2.153v5.923h-1.514v-5.923h-2.163v-1.274Z" transform="translate(-1105.058 -539.619)"/><path class="cls-7" d="M1508.8,599.387h-1.553v2.822h-1.47v-7.2h3.53a3.286,3.286,0,0,1,1.164.185,1.831,1.831,0,0,1,.692.5,2.234,2.234,0,0,1,.371.606,1.973,1.973,0,0,1,.137.757,2.147,2.147,0,0,1-.259,1.007,1.447,1.447,0,0,1-.855.7,1.337,1.337,0,0,1,.7.568,2.361,2.361,0,0,1,.208,1.126v.483a3.7,3.7,0,0,0,.039.669.6.6,0,0,0,.274.41v.181h-1.655c-.046-.159-.078-.288-.1-.386a3.43,3.43,0,0,1-.063-.62l-.01-.669a1.317,1.317,0,0,0-.251-.918A1.338,1.338,0,0,0,1508.8,599.387Zm.913-1.309a.8.8,0,0,0,.449-.81.893.893,0,0,0-.435-.879,1.637,1.637,0,0,0-.732-.127h-1.748V598.2h1.7A1.9,1.9,0,0,0,1509.71,598.078Z" transform="translate(-1105.058 -539.619)"/><path class="cls-7" d="M1516.018,599.621h-1.528v2.588H1513v-7.2h3.135a2.554,2.554,0,0,1,1.728.556,2.158,2.158,0,0,1,.645,1.724,2.209,2.209,0,0,1-.645,1.8A2.842,2.842,0,0,1,1516.018,599.621Zm.7-1.5a1.039,1.039,0,0,0,.293-.82.974.974,0,0,0-.295-.8,1.286,1.286,0,0,0-.828-.239h-1.4v2.119h1.4A1.221,1.221,0,0,0,1516.721,598.122Z" transform="translate(-1105.058 -539.619)"/><path class="cls-7" d="M1522.654,602.209h-1.426v-4.883h-1.665v-.947a6.236,6.236,0,0,0,.923-.088,1.294,1.294,0,0,0,.684-.371,1.227,1.227,0,0,0,.273-.508,1.158,1.158,0,0,0,.054-.283h1.157Z" transform="translate(-1105.058 -539.619)"/><path class="cls-7" d="M1528.836,597.4a9.865,9.865,0,0,0-.933,1.631,9.719,9.719,0,0,0-.537,1.612,6.705,6.705,0,0,0-.239,1.562h-1.446a8.506,8.506,0,0,1,1.25-3.96,9.4,9.4,0,0,1,1.284-1.777h-3.53l.02-1.25h5v1.089A8.851,8.851,0,0,0,1528.836,597.4Z" transform="translate(-1105.058 -539.619)"/></g></svg>