<?xml version="1.0" encoding="utf-8"?>
<!-- Generator: Adobe Illustrator 25.3.0, SVG Export Plug-In . SVG Version: 6.00 Build 0)  -->
<svg version="1.1" id="Layer_1" xmlns="http://www.w3.org/2000/svg" xmlns:xlink="http://www.w3.org/1999/xlink" x="0px" y="0px"
	 viewBox="0 0 841.9 1190.6" style="enable-background:new 0 0 841.9 1190.6;" xml:space="preserve">
<style type="text/css">
	.st0{fill:#4196B1;}
	.st1{fill:#AAE0E4;}
	.st2{fill:#8ECCCE;}
	.st3{fill:#99B8BF;}
	.st4{opacity:0.15;fill:#020202;enable-background:new    ;}
	.st5{fill:#596069;}
	.st6{fill:#9BAEB8;}
	.st7{fill:none;stroke:#7A8F94;stroke-width:2;stroke-linecap:round;stroke-miterlimit:10;}
	.st8{opacity:5.000000e-02;fill:#040404;enable-background:new    ;}
	.st9{fill:#B8BFC1;}
	.st10{fill:#FFFFFF;}
	.st11{fill:none;stroke:#DBDDDC;stroke-width:0.175;stroke-miterlimit:10;}
	.st12{opacity:0.15;fill:#0D5577;enable-background:new    ;}
	.st13{fill:#0D5577;}
	.st14{fill:#83D8EF;stroke:#53C5F1;stroke-width:0.799;stroke-linecap:round;stroke-linejoin:round;}
	.st15{fill:#4E9FB9;stroke:#4A90A0;stroke-width:0.799;stroke-linecap:round;stroke-linejoin:round;}
	.st16{opacity:0.43;fill:#53C5F1;enable-background:new    ;}
	.st17{opacity:8.000000e-02;fill:#101010;enable-background:new    ;}
	.st18{fill:#4FAFC6;stroke:#5798A3;stroke-width:0.931;stroke-linecap:round;stroke-linejoin:round;}
	.st19{fill:#7DCFE2;stroke:#53C5F1;stroke-width:1.164;stroke-linecap:round;stroke-linejoin:round;}
	.st20{opacity:5.000000e-02;fill:#030303;enable-background:new    ;}
	.st21{fill:#F4F4F4;}
	.st22{opacity:0.74;fill:#575757;enable-background:new    ;}
	.st23{fill:none;}
	.st24{font-family:'Arial-BoldMT';}
	.st25{font-size:8px;}
	.st26{fill:none;stroke:#FFFFFF;stroke-width:8;stroke-miterlimit:10;}
	.st27{fill:none;stroke:#FFFFFF;stroke-width:4;stroke-miterlimit:10;}
	.st28{fill:#EBF2F2;}
	.st29{fill:#757D7F;}
	.st30{fill:none;stroke:#7A8E93;stroke-linecap:round;stroke-linejoin:round;}
	.st31{fill:#7A8E93;stroke:#7A8E93;stroke-width:0.5;stroke-miterlimit:10;}
	.st32{fill:none;stroke:#7A8E93;stroke-miterlimit:10;}
	.st33{font-family:'ArialMT';}
	.st34{font-size:10px;}
	.st35{fill:#767E80;}
	.st36{fill:#EBF1F2;}
	.st37{fill:none;stroke:#7A8E93;stroke-width:0.827;stroke-miterlimit:10;}
	.st38{fill:none;stroke:#7A8E93;stroke-width:0.693;stroke-miterlimit:10;}
</style>
<g id="shadow">
	<polygon class="st0" points="196.3,52.7 638.4,52.7 638.4,99.8 681.2,99.8 681.2,893.2 702.3,893.2 702.3,1174.7 515.1,1174.7 
		515.1,1070.9 334.2,1070.9 334.2,1174.7 158.8,1174.7 158.8,102.5 195.7,102.5 	"/>
</g>
<g id="background">
	<polygon class="st1" points="197.8,35.5 622.2,35.5 622.2,82.7 663.3,82.7 663.3,876.1 683.6,876.1 683.6,1157.6 503.9,1157.6 
		503.9,1053.7 330.2,1053.7 330.2,1157.6 161.8,1157.6 161.8,85.4 197.2,85.4 	"/>
</g>
<g id="spaces">
	<rect x="164.8" y="85.5" class="st2" width="498.5" height="194.9"/>
	<rect x="589.7" y="721.6" class="st3" width="74.3" height="154.6"/>
	<polygon class="st2" points="161.8,895 161.8,1157.7 330.2,1157.7 330.2,1053.8 503.9,1053.8 503.9,1157.7 683.6,1157.7 
		683.6,876.2 590.3,876.2 590.3,721.5 665.2,721.5 665.2,345.1 524.5,346.7 491.8,338.9 461.5,348.8 440.2,374.1 436.8,405.9 
		452.2,436.2 459.4,468.1 459.4,537.6 485.7,537.6 485.7,595.3 459.5,595.3 459.5,659.6 479.9,659.6 479.9,720.8 508.4,720.8 
		508.4,863.6 508.4,897 324.6,897 324.6,863.6 347.2,863.6 347.2,794.8 347.2,530.3 242.9,530.3 242.9,550.8 218.4,576.6 
		218.4,704.6 244.6,704.6 244.6,729 240.1,729 240.1,895 	"/>
	<rect x="161.8" y="280.4" class="st2" width="106.6" height="66.8"/>
	<polygon class="st3" points="161.8,895 241.3,895 241.3,727.3 244.9,727.3 244.9,704.6 218.4,704.6 218.4,576.6 242.9,550.8 
		242.9,429.3 267.6,429.3 267.6,403.9 250.3,403.9 250.3,347.6 161.8,347.6 	"/>
	<rect x="479.9" y="713.5" class="st2" width="71" height="148.1"/>
</g>
<g id="furniture">
	<path class="st4" d="M537.3,1108.7l4.4,0.2c3.4,0.1,6,2.9,6,6.2v0.4l-0.4,4.4c-0.4,4.4-4.2,7.8-8.6,7.5l0,0c-4.4-0.1-8-3.7-8-8.1
		v-4.4c0-3.4,2.6-6.2,6-6.5L537.3,1108.7z"/>
	<path class="st5" d="M537.3,1109.5l4.4,0.2c3.4,0.1,6,2.9,6,6.2v0.4l-0.4,4.4c-0.4,4.4-4.2,7.8-8.6,7.5l0,0c-4.4-0.1-8-3.7-8-8.1
		v-4.4c0-3.4,2.6-6.2,6-6.5L537.3,1109.5z"/>
	<path class="st6" d="M537.3,1110.4l4.4,0.2c3.4,0.1,6,2.9,6,6.2v0.4l-0.4,4.4c-0.4,4.4-4.2,7.8-8.6,7.5l0,0c-4.4-0.1-8-3.7-8-8.1
		v-4.4c0-3.4,2.6-6.2,6-6.5L537.3,1110.4z"/>
	<path class="st7" d="M548,1116.4l-0.6,5.5c-0.4,4.4-4.2,7.8-8.6,7.5l0,0c-4.4-0.1-8-3.7-8-8.1l-0.2-5.5"/>
	<path class="st8" d="M512.7,1086.4l53.3-0.4c1.1-0.1,2.1,0.7,2.3,1.8v0.1v23.8c-0.1,1.2-1.1,2-2.3,1.9l0,0l-53.3,0.4
		c-1.1,0.1-2.1-0.7-2.3-1.8v-0.1v-23.8C510.5,1087.2,511.5,1086.4,512.7,1086.4z"/>
	<path class="st9" d="M512.7,1085.2l53.3-0.4c1.1-0.1,2.1,0.7,2.3,1.8v0.1v23.8c-0.1,1.2-1.1,2-2.3,1.9l0,0l-53.3,0.4
		c-1.1,0.1-2.1-0.7-2.3-1.8v-0.1v-23.8C510.5,1086,511.5,1085.2,512.7,1085.2z"/>
	<g id="tables-17-3-21-2">
		<path class="st10" d="M538.2,1084.5h-25.6c-1.1-0.1-2.1,0.7-2.3,1.8v0.1v12.6h28L538.2,1084.5L538.2,1084.5z"/>
		<path class="st10" d="M568.3,1099.1v-12.6c-0.1-1.2-1.1-2-2.3-1.9h-27.7v14.5H568.3z"/>
		<path class="st10" d="M538.2,1099.1v12.9h27.7c1.1,0.1,2.1-0.7,2.3-1.8v-0.1V1099L538.2,1099.1z"/>
		<path class="st10" d="M510.2,1099.1v11.1c0.1,1.2,1.1,2,2.3,1.9h25.6V1099L510.2,1099.1L510.2,1099.1z"/>
	</g>
	<line class="st11" x1="538.2" y1="1084.5" x2="538.2" y2="1112.1"/>
	<path class="st4" d="M313.6,374.2l-0.2,4.4c-0.1,3.4-2.9,6-6.2,6h-0.4l-4.4-0.4c-4.4-0.4-7.8-4.2-7.5-8.6l0,0c0.1-4.4,3.7-8,8.1-8
		h4.4c3.4,0,6.2,2.6,6.5,6L313.6,374.2z"/>
	<path class="st5" d="M312.7,374.2l-0.2,4.4c-0.1,3.4-2.9,6-6.2,6h-0.4l-4.4-0.4c-4.4-0.4-7.8-4.2-7.5-8.6l0,0c0.1-4.4,3.7-8,8.1-8
		h4.4c3.4,0,6.2,2.6,6.5,6L312.7,374.2z"/>
	<path class="st6" d="M311.9,374.2l-0.2,4.4c-0.1,3.4-2.9,6-6.2,6h-0.4l-4.4-0.4c-4.4-0.4-7.8-4.2-7.5-8.6l0,0c0.1-4.4,3.7-8,8.1-8
		h4.4c3.4,0,6.2,2.6,6.5,6L311.9,374.2z"/>
	<path class="st7" d="M305.9,384.8l-5.5-0.6c-4.4-0.4-7.8-4.2-7.5-8.6l0,0c0.1-4.4,3.7-8,8.1-8l5.5-0.2"/>
	<path class="st8" d="M335.8,349.6l0.4,53.3c0.1,1.1-0.7,2.1-1.8,2.3h-0.1h-23.8c-1.2-0.1-2-1.1-1.9-2.3l0,0l-0.4-53.3
		c-0.1-1.1,0.7-2.1,1.8-2.3h0.1h23.8C335,347.4,335.9,348.4,335.8,349.6z"/>
	<path class="st9" d="M337,349.6l0.4,53.3c0.1,1.1-0.7,2.1-1.8,2.3h-0.1h-23.8c-1.2-0.1-2-1.1-1.9-2.3l0,0l-0.4-53.3
		c-0.1-1.1,0.7-2.1,1.8-2.3h0.1h23.8C336.2,347.4,337.1,348.4,337,349.6z"/>
	<g id="tables-17-3-21-5">
		<path class="st10" d="M337.7,375.1v-25.6c0.1-1.1-0.7-2.1-1.8-2.3h-0.1h-12.6v28L337.7,375.1L337.7,375.1z"/>
		<path class="st10" d="M323.1,405.1h12.6c1.2-0.1,2-1.1,1.9-2.3v-27.7h-14.5V405.1z"/>
		<path class="st10" d="M323.1,375.1h-12.9v27.7c-0.1,1.1,0.7,2.1,1.8,2.3h0.1h11.1L323.1,375.1z"/>
		<path class="st10" d="M323.1,347H312c-1.2,0.1-2,1.1-1.9,2.3V375h13.1L323.1,347z"/>
	</g>
	<line class="st11" x1="337.7" y1="375.1" x2="310.2" y2="375.1"/>
	<path class="st4" d="M361.3,378l0.2-4.4c0.1-3.4,2.9-6,6.2-6h0.4l4.4,0.4c4.4,0.4,7.8,4.2,7.5,8.6l0,0c-0.1,4.4-3.7,8-8.1,8h-4.4
		c-3.4,0-6.2-2.6-6.5-6L361.3,378z"/>
	<path class="st5" d="M362.1,378l0.2-4.4c0.1-3.4,2.9-6,6.2-6h0.4l4.4,0.4c4.4,0.4,7.8,4.2,7.5,8.6l0,0c-0.1,4.4-3.7,8-8.1,8h-4.4
		c-3.4,0-6.2-2.6-6.5-6L362.1,378z"/>
	<path class="st6" d="M363,378l0.2-4.4c0.1-3.4,2.9-6,6.2-6h0.4l4.4,0.4c4.4,0.4,7.8,4.2,7.5,8.6l0,0c-0.1,4.4-3.7,8-8.1,8h-4.4
		c-3.4,0-6.2-2.6-6.5-6L363,378z"/>
	<path class="st7" d="M368.9,367.4l5.5,0.6c4.4,0.4,7.8,4.2,7.5,8.6l0,0c-0.1,4.4-3.7,8-8.1,8l-5.5,0.2"/>
	<path class="st8" d="M339,402.6l-0.4-53.3c-0.1-1.1,0.7-2.1,1.8-2.3h0.1h23.8c1.2,0.1,2,1.1,1.9,2.3l0,0l0.4,53.3
		c0.1,1.1-0.7,2.1-1.8,2.3h-0.1h-23.8C339.8,404.8,339,403.8,339,402.6z"/>
	<path class="st9" d="M337.8,402.6l-0.4-53.3c-0.1-1.1,0.7-2.1,1.8-2.3h0.1h23.8c1.2,0.1,2,1.1,1.9,2.3l0,0l0.4,53.3
		c0.1,1.1-0.7,2.1-1.8,2.3h-0.1h-23.8C338.6,404.8,337.8,403.8,337.8,402.6z"/>
	<g id="tables-17-3-21-6">
		<path class="st10" d="M337.1,377.1v25.6c-0.1,1.1,0.7,2.1,1.8,2.3h0.1h12.6v-28L337.1,377.1z"/>
		<path class="st10" d="M351.7,347h-12.6c-1.2,0.1-2,1.1-1.9,2.3V377h14.5V347z"/>
		<path class="st10" d="M351.7,377.1h12.9v-27.7c0.1-1.1-0.7-2.1-1.8-2.3h-0.1h-11.1L351.7,377.1z"/>
		<path class="st10" d="M351.7,405.1h11.1c1.2-0.1,2-1.1,1.9-2.3v-25.6h-13.1v27.9H351.7z"/>
	</g>
	<line class="st11" x1="337.1" y1="377.1" x2="364.7" y2="377.1"/>
	<path class="st4" d="M313.6,432.2l-0.2,4.4c-0.1,3.4-2.9,6-6.2,6h-0.4l-4.4-0.4c-4.4-0.4-7.8-4.2-7.5-8.6l0,0c0.1-4.4,3.7-8,8.1-8
		h4.4c3.4,0,6.2,2.6,6.5,6L313.6,432.2z"/>
	<path class="st5" d="M312.7,432.2l-0.2,4.4c-0.1,3.4-2.9,6-6.2,6h-0.4l-4.4-0.4c-4.4-0.4-7.8-4.2-7.5-8.6l0,0c0.1-4.4,3.7-8,8.1-8
		h4.4c3.4,0,6.2,2.6,6.5,6L312.7,432.2z"/>
	<path class="st6" d="M311.9,432.2l-0.2,4.4c-0.1,3.4-2.9,6-6.2,6h-0.4l-4.4-0.4c-4.4-0.4-7.8-4.2-7.5-8.6l0,0c0.1-4.4,3.7-8,8.1-8
		h4.4c3.4,0,6.2,2.6,6.5,6L311.9,432.2z"/>
	<path class="st7" d="M305.9,442.8l-5.5-0.6c-4.4-0.4-7.8-4.2-7.5-8.6l0,0c0.1-4.4,3.7-8,8.1-8l5.5-0.2"/>
	<path class="st8" d="M335.8,407.5l0.4,53.3c0.1,1.1-0.7,2.1-1.8,2.3h-0.1h-23.8c-1.2-0.1-2-1.1-1.9-2.3l0,0l-0.4-53.3
		c-0.1-1.1,0.7-2.1,1.8-2.3h0.1h23.8C335,405.4,335.9,406.4,335.8,407.5z"/>
	<path class="st9" d="M337,407.5l0.4,53.3c0.1,1.1-0.7,2.1-1.8,2.3h-0.1h-23.8c-1.2-0.1-2-1.1-1.9-2.3l0,0l-0.4-53.3
		c-0.1-1.1,0.7-2.1,1.8-2.3h0.1h23.8C336.2,405.4,337.1,406.4,337,407.5z"/>
	<g id="tables-17-3-21-7">
		<path class="st10" d="M337.7,433.1v-25.6c0.1-1.1-0.7-2.1-1.8-2.3h-0.1h-12.6v28L337.7,433.1L337.7,433.1z"/>
		<path class="st10" d="M323.1,463.1h12.6c1.2-0.1,2-1.1,1.9-2.3v-27.7h-14.5V463.1z"/>
		<path class="st10" d="M323.1,433.1h-12.9v27.7c-0.1,1.1,0.7,2.1,1.8,2.3h0.1h11.1L323.1,433.1z"/>
		<path class="st10" d="M323.1,405H312c-1.2,0.1-2,1.1-1.9,2.3v25.6h13.1L323.1,405z"/>
	</g>
	<line class="st11" x1="337.7" y1="433.1" x2="310.2" y2="433.1"/>
	<path class="st4" d="M361.3,436l0.2-4.4c0.1-3.4,2.9-6,6.2-6h0.4l4.4,0.4c4.4,0.4,7.8,4.2,7.5,8.6l0,0c-0.1,4.4-3.7,8-8.1,8h-4.4
		c-3.4,0-6.2-2.6-6.5-6L361.3,436z"/>
	<path class="st5" d="M362.1,436l0.2-4.4c0.1-3.4,2.9-6,6.2-6h0.4l4.4,0.4c4.4,0.4,7.8,4.2,7.5,8.6l0,0c-0.1,4.4-3.7,8-8.1,8h-4.4
		c-3.4,0-6.2-2.6-6.5-6L362.1,436z"/>
	<path class="st6" d="M363,436l0.2-4.4c0.1-3.4,2.9-6,6.2-6h0.4l4.4,0.4c4.4,0.4,7.8,4.2,7.5,8.6l0,0c-0.1,4.4-3.7,8-8.1,8h-4.4
		c-3.4,0-6.2-2.6-6.5-6L363,436z"/>
	<path class="st7" d="M368.9,425.3l5.5,0.6c4.4,0.4,7.8,4.2,7.5,8.6l0,0c-0.1,4.4-3.7,8-8.1,8l-5.5,0.2"/>
	<path class="st8" d="M339,460.6l-0.4-53.3c-0.1-1.1,0.7-2.1,1.8-2.3h0.1h23.8c1.2,0.1,2,1.1,1.9,2.3l0,0l0.4,53.3
		c0.1,1.1-0.7,2.1-1.8,2.3h-0.1h-23.8C339.8,462.8,339,461.8,339,460.6z"/>
	<path class="st9" d="M337.8,460.6l-0.4-53.3c-0.1-1.1,0.7-2.1,1.8-2.3h0.1h23.8c1.2,0.1,2,1.1,1.9,2.3l0,0l0.4,53.3
		c0.1,1.1-0.7,2.1-1.8,2.3h-0.1h-23.8C338.6,462.8,337.8,461.8,337.8,460.6z"/>
	<g id="tables-17-3-21-8">
		<path class="st10" d="M337.1,435.1v25.6c-0.1,1.1,0.7,2.1,1.8,2.3h0.1h12.6v-28L337.1,435.1z"/>
		<path class="st10" d="M351.7,405h-12.6c-1.2,0.1-2,1.1-1.9,2.3V435h14.5V405z"/>
		<path class="st10" d="M351.7,435.1h12.9v-27.7c0.1-1.1-0.7-2.1-1.8-2.3h-0.1h-11.1L351.7,435.1z"/>
		<path class="st10" d="M351.7,463.1h11.1c1.2-0.1,2-1.1,1.9-2.3v-25.6h-13.1v27.9H351.7z"/>
	</g>
	<line class="st11" x1="337.1" y1="435.1" x2="364.7" y2="435.1"/>
	<path class="st12" d="M375.2,627.3v-25.5c0-1-0.8-1.7-1.7-1.8h-20c-0.6,0.1-1.2,0.7-1,1.2v57c0.1,0.7,0.7,1.2,1.4,1.2h19.2
		c1.2-0.1,2.1-0.9,2.1-1.8v-26l0,0V627.3L375.2,627.3z"/>
	<path class="st13" d="M374.1,626.9v-25.5c-0.1-0.9-0.7-1.6-1.6-1.8h-18.8c-0.5,0.2-0.9,0.6-1,1.2v57c0.1,0.7,0.7,1.2,1.4,1.2h18.2
		c1.2-0.1,2.1-0.9,1.9-1.8v-26L374.1,626.9z"/>
	<path class="st14" d="M361.5,602.5c-2.1,0-4.2-0.3-6.2-0.7c1.7,6.2,2.3,21,2.3,27.5l0,0v1.5c0.2,5.6-0.4,21.4-1.7,26.9
		c1.9-0.4,3.7-0.6,5.6-0.7c4.3,0,7.9,0.9,9.1,2.3c1.2-0.1,2.1-0.9,1.9-1.8v-55.8c-0.1-0.9-0.7-1.6-1.6-1.8
		C370.6,601.2,366.5,602.5,361.5,602.5z"/>
	<path class="st15" d="M352.2,599.6c-0.5,0.2-0.9,0.6-1,1.2v57c0.1,0.7,0.7,1.2,1.4,1.2c0.3-0.4,0.8-0.7,1.4-0.9v-57
		C352.9,600.7,352.4,600.3,352.2,599.6z"/>
	<path class="st16" d="M359.5,630.5V629c0.2-6.3-0.6-21.3-2.3-27.5c-0.6-0.2-1.2-0.4-1.7-0.7v57c0.7-0.3,1.4-0.6,2.1-0.7
		C359,652,359.7,636,359.5,630.5z"/>
	<path class="st15" d="M358,630.5V629c0.2-6.3-0.6-21.3-2.3-27.5c-0.6-0.2-1.2-0.4-1.7-0.7v57c0.7-0.3,1.4-0.6,2.1-0.7
		C357.6,652,358,636,358,630.5z"/>
	<path class="st15" d="M361.5,656.7c-1.9-0.1-3.8,0.2-5.6,0.7c-1.3,0.2-2.5,0.8-3.5,1.6h18.2C369.4,657.7,365.9,656.7,361.5,656.7z"
		/>
	<path class="st15" d="M361.5,602.5c-1.9,0-3.8-0.3-5.6-0.7c-1.4-0.2-2.6-1-3.5-2.1h18.2C369.4,601.3,365.7,602.5,361.5,602.5z"/>
	<g>
		<path class="st17" d="M226.7,1085.9c-1.5-1.5-1.6-4-0.1-5.6l4.3-4.4c2.2-2.4,5.8-2.7,8.3-0.6l3.4,2.7c2.5,2,3,5.6,1.3,8.3l-3.5,5
			l-0.2,0.3l0,0c-1.4,1.7-3.9,2-5.6,0.6l0,0l0,0l-7.4-6.1L226.7,1085.9z"/>
		<path class="st13" d="M226.2,1085.1L226.2,1085.1c-1.5-1.5-1.6-4-0.1-5.6l4.3-4.4c2.2-2.4,5.8-2.7,8.3-0.6l3.4,2.7
			c2.5,2,3,5.6,1.3,8.3l-3.5,5l-0.4,0.5c-1.5,1.4-3.7,1.5-5.3,0.1l-7.4-5.9L226.2,1085.1z"/>
		<path class="st18" d="M225,1084.3c-1.5-1.6-1.3-4.2,0.3-5.6l0,0l0,0l0,0l4-4.3c2.2-2.4,5.8-2.7,8.3-0.6l3.4,2.7
			c2.5,2,3,5.6,1.3,8.3l-3.5,5.1l-0.2,0.3l0,0c-1.4,1.7-3.9,2-5.6,0.6l0,0l-7.4-6.1L225,1084.3z"/>
		<path class="st19" d="M226.8,1084.7c-1.3-1.1-1.5-3-0.5-4.3c0.1-0.1,0.2-0.2,0.3-0.3l2.9-3c1.9-1.9,5-2.2,7.2-0.5l2,1.6
			c2.2,1.8,2.6,4.9,1,7.2l-2.5,3.6l-0.1,0.1l0,0c-1.1,1.3-3,1.5-4.4,0.4l0,0L226.8,1084.7L226.8,1084.7z"/>
		<path class="st17" d="M209.5,1089.3c-1.5,1.5-4,1.6-5.6,0.1l-4.4-4.3c-2.4-2.2-2.7-5.8-0.6-8.3l2.7-3.4c2-2.5,5.6-3,8.3-1.3l5,3.5
			l0.3,0.2l0,0c1.7,1.4,2,3.9,0.6,5.6l0,0l0,0l-6.1,7.4L209.5,1089.3z"/>
		<path class="st13" d="M208.7,1089.8L208.7,1089.8c-1.5,1.5-4,1.6-5.6,0.1l-4.4-4.3c-2.4-2.2-2.7-5.8-0.6-8.3l2.7-3.4
			c2-2.5,5.6-3,8.3-1.3l5,3.5l0.5,0.4c1.4,1.5,1.5,3.7,0.1,5.3l-5.9,7.4L208.7,1089.8z"/>
		<path class="st18" d="M207.9,1090.9c-1.6,1.5-4.2,1.3-5.6-0.3l0,0l0,0l0,0l-4.3-4c-2.4-2.2-2.7-5.8-0.6-8.3l2.7-3.4
			c2-2.5,5.6-3,8.3-1.3l5,3.5l0.3,0.2l0,0c1.7,1.4,2,3.9,0.6,5.6l0,0l-6.1,7.4L207.9,1090.9z"/>
		<path class="st19" d="M208.3,1089.1c-1.1,1.3-3,1.5-4.3,0.5c-0.1-0.1-0.2-0.2-0.3-0.3l-3-2.9c-1.9-1.9-2.2-5-0.5-7.2l1.6-2
			c1.8-2.2,4.9-2.6,7.2-1l3.6,2.5l0.1,0.1l0,0c1.3,1.1,1.5,3,0.4,4.4l0,0L208.3,1089.1L208.3,1089.1z"/>
		<path class="st17" d="M214.2,1107.8c1.5,1.5,1.6,4,0.1,5.6l-4.3,4.4c-2.2,2.4-5.8,2.7-8.3,0.6l-3.4-2.7c-2.5-2-3-5.6-1.3-8.3
			l3.5-5l0.2-0.3l0,0c1.4-1.7,3.9-2,5.6-0.6l0,0l0,0l7.4,6.1L214.2,1107.8z"/>
		<path class="st13" d="M214.7,1108.5L214.7,1108.5c1.5,1.5,1.6,4,0.1,5.6l-4.3,4.4c-2.2,2.4-5.8,2.7-8.3,0.6l-3.4-2.7
			c-2.5-2-3-5.6-1.3-8.3l3.5-5l0.4-0.5c1.5-1.4,3.7-1.5,5.3-0.1l7.4,5.9L214.7,1108.5z"/>
		<path class="st18" d="M215.8,1109.3c1.5,1.6,1.3,4.2-0.3,5.6l0,0l0,0l0,0l-4,4.3c-2.2,2.4-5.8,2.7-8.3,0.6l-3.4-2.7
			c-2.5-2-3-5.6-1.3-8.3l3.5-5l0.2-0.3l0,0c1.4-1.7,3.9-2,5.6-0.6l0,0l0,0l7.4,6.1L215.8,1109.3z"/>
		<path class="st19" d="M214,1109c1.3,1.1,1.5,3,0.5,4.3l0,0c-0.1,0.1-0.2,0.2-0.3,0.3l-2.9,3c-1.9,1.9-5,2.2-7.2,0.5l-2-1.6
			c-2.2-1.8-2.6-4.9-1-7.2l2.5-3.6l0.1-0.1l0,0c1.1-1.3,3-1.5,4.4-0.4l0,0L214,1109L214,1109z"/>
		<path class="st17" d="M231.4,1104.4c1.5-1.5,4-1.6,5.6-0.1l4.4,4.3c2.4,2.2,2.7,5.8,0.6,8.3l-2.7,3.4c-2,2.5-5.6,3-8.3,1.3l-5-3.5
			l-0.3-0.2l0,0c-1.7-1.4-2-3.9-0.6-5.6l0,0l6.1-7.4L231.4,1104.4z"/>
		<path class="st13" d="M232.2,1103.9L232.2,1103.9c1.5-1.5,4-1.6,5.6-0.1l4.4,4.3c2.4,2.2,2.7,5.8,0.6,8.3l-2.7,3.4
			c-2,2.5-5.6,3-8.3,1.3l-5-3.5l-0.5-0.4c-1.4-1.5-1.5-3.7-0.1-5.3l5.9-7.4L232.2,1103.9z"/>
		<path class="st18" d="M233,1102.8c1.6-1.5,4.2-1.3,5.6,0.3l0,0l0,0l0,0l4.3,4c2.4,2.2,2.7,5.8,0.6,8.3l-2.7,3.4
			c-2,2.5-5.6,3-8.3,1.3l-5-3.5l-0.3-0.2l0,0c-1.7-1.4-2-3.9-0.6-5.6l0,0l0,0l6.1-7.4L233,1102.8z"/>
		<path class="st19" d="M232.6,1104.5c1.1-1.3,3-1.5,4.3-0.5c0.1,0.1,0.2,0.2,0.3,0.3l3,2.9c1.9,1.9,2.2,5,0.5,7.2l-1.6,2
			c-1.8,2.2-4.9,2.6-7.2,1l-3.6-2.5l-0.1-0.1l0,0c-1.3-1.1-1.5-3-0.4-4.4l0,0L232.6,1104.5L232.6,1104.5z"/>
		<circle class="st20" cx="222.5" cy="1097.9" r="16.9"/>
		<circle class="st9" cx="221.3" cy="1097.1" r="16.9"/>
		<circle class="st10" cx="219.6" cy="1096.3" r="16.9"/>
	</g>
	<path class="st20" d="M353.9,680.8v-17.3c0-0.3,0.5-0.4,1.2-0.4h14.6c0.6,0,1.2,0.2,1.2,0.4v17.3c0,0.3-0.5,0.4-1.2,0.4h-14.6
		C354.4,681.2,353.9,681,353.9,680.8z"/>
	<path class="st9" d="M352.9,680.8v-17.3c0-0.3,0.5-0.4,1.2-0.4h14.6c0.6,0,1.2,0.2,1.2,0.4v17.3c0,0.3-0.5,0.4-1.2,0.4h-14.6
		C353.5,681.2,352.9,681,352.9,680.8z"/>
	<path class="st21" d="M351.9,680.8v-17.3c0-0.3,0.5-0.4,1.2-0.4h14.6c0.6,0,1.2,0.2,1.2,0.4v17.3c0,0.3-0.5,0.4-1.2,0.4h-14.5
		C352.5,681.2,351.9,681,351.9,680.8z"/>
	<path class="st20" d="M354.9,593.8v-17.3c0-0.3,0.5-0.4,1.2-0.4h14.6c0.6,0,1.2,0.2,1.2,0.4v17.3c0,0.3-0.5,0.4-1.2,0.4h-14.6
		C355.4,594.3,354.9,594.1,354.9,593.8z"/>
	<path class="st9" d="M353.8,593.8v-17.3c0-0.3,0.5-0.4,1.2-0.4h14.6c0.6,0,1.2,0.2,1.2,0.4v17.3c0,0.3-0.5,0.4-1.2,0.4H355
		C354.5,594.3,353.8,594.1,353.8,593.8z"/>
	<path class="st21" d="M352.9,593.8v-17.3c0-0.3,0.5-0.4,1.2-0.4h14.6c0.6,0,1.2,0.2,1.2,0.4v17.3c0,0.3-0.5,0.4-1.2,0.4h-14.5
		C353.5,594.3,352.9,594.1,352.9,593.8z"/>
	<path class="st4" d="M628.6,1107.4l4.4,0.2c3.4,0.1,6,2.9,6,6.2v0.4l-0.4,4.4c-0.4,4.4-4.2,7.8-8.6,7.5l0,0c-4.4-0.1-8-3.7-8-8.1
		v-4.4c0-3.4,2.6-6.2,6-6.5L628.6,1107.4z"/>
	<path class="st5" d="M628.6,1108.2l4.4,0.2c3.4,0.1,6,2.9,6,6.2v0.4l-0.4,4.4c-0.4,4.4-4.2,7.8-8.6,7.5l0,0c-4.4-0.1-8-3.7-8-8.1
		v-4.4c0-3.4,2.6-6.2,6-6.5L628.6,1108.2z"/>
	<path class="st6" d="M628.6,1109.1l4.4,0.2c3.4,0.1,6,2.9,6,6.2v0.4l-0.4,4.4c-0.4,4.4-4.2,7.8-8.6,7.5l0,0c-4.4-0.1-8-3.7-8-8.1
		v-4.4c0-3.4,2.6-6.2,6-6.5L628.6,1109.1z"/>
	<path class="st7" d="M639.2,1115.1l-0.6,5.5c-0.4,4.4-4.2,7.8-8.6,7.5l0,0c-4.4-0.1-8-3.7-8-8.1l-0.2-5.5"/>
	<path class="st8" d="M604,1085.2l53.3-0.4c1.1-0.1,2.1,0.7,2.3,1.8v0.1v23.8c-0.1,1.2-1.1,2-2.3,1.9l0,0l-53.3,0.4
		c-1.1,0.1-2.1-0.7-2.3-1.8v-0.1v-23.8C601.8,1085.9,602.8,1085.1,604,1085.2z"/>
	<path class="st9" d="M604,1084l53.3-0.4c1.1-0.1,2.1,0.7,2.3,1.8v0.1v23.8c-0.1,1.2-1.1,2-2.3,1.9l0,0l-53.3,0.4
		c-1.1,0.1-2.1-0.7-2.3-1.8v-0.1v-23.8C601.8,1084.7,602.8,1083.9,604,1084z"/>
	<g id="tables-17-3-21-2_1_">
		<path class="st10" d="M629.5,1083.2h-25.6c-1.1-0.1-2.1,0.7-2.3,1.8v0.1v12.6h28L629.5,1083.2L629.5,1083.2z"/>
		<path class="st10" d="M659.5,1097.8v-12.6c-0.1-1.2-1.1-2-2.3-1.9h-27.7v14.5H659.5z"/>
		<path class="st10" d="M629.5,1097.8v12.9h27.7c1.1,0.1,2.1-0.7,2.3-1.8v-0.1v-11.1L629.5,1097.8z"/>
		<path class="st10" d="M601.4,1097.8v11.1c0.1,1.2,1.1,2,2.3,1.9h25.6v-13.1L601.4,1097.8L601.4,1097.8z"/>
	</g>
	<line class="st11" x1="629.5" y1="1083.2" x2="629.5" y2="1110.8"/>
	<path class="st4" d="M629.6,956.3l0.2-4.4c0.1-3.4,2.9-6,6.2-6h0.4l4.4,0.4c4.4,0.4,7.8,4.2,7.5,8.6l0,0c-0.1,4.4-3.7,8-8.1,8h-4.4
		c-3.4,0-6.2-2.6-6.5-6L629.6,956.3z"/>
	<path class="st5" d="M630.4,956.3l0.2-4.4c0.1-3.4,2.9-6,6.2-6h0.4l4.4,0.4c4.4,0.4,7.8,4.2,7.5,8.6l0,0c-0.1,4.4-3.7,8-8.1,8h-4.4
		c-3.4,0-6.2-2.6-6.5-6L630.4,956.3z"/>
	<path class="st6" d="M631.3,956.3l0.2-4.4c0.1-3.4,2.9-6,6.2-6h0.4l4.4,0.4c4.4,0.4,7.8,4.2,7.5,8.6l0,0c-0.1,4.4-3.7,8-8.1,8h-4.4
		c-3.4,0-6.2-2.6-6.5-6L631.3,956.3z"/>
	<path class="st7" d="M637.3,945.7l5.5,0.6c4.4,0.4,7.8,4.2,7.5,8.6l0,0c-0.1,4.4-3.7,8-8.1,8l-5.5,0.2"/>
	<path class="st8" d="M607.4,981l-0.4-53.3c-0.1-1.1,0.7-2.1,1.8-2.3h0.1h23.8c1.2,0.1,2,1.1,1.9,2.3l0,0L635,981
		c0.1,1.1-0.7,2.1-1.8,2.3h-0.1h-23.8C608.1,983.1,607.3,982.1,607.4,981z"/>
	<path class="st9" d="M606.2,981l-0.4-53.3c-0.1-1.1,0.7-2.1,1.8-2.3h0.1h23.8c1.2,0.1,2,1.1,1.9,2.3l0,0l0.4,53.3
		c0.1,1.1-0.7,2.1-1.8,2.3h-0.1h-23.8C606.9,983.1,606.1,982.1,606.2,981z"/>
	<g id="tables-17-3-21-2_2_">
		<path class="st10" d="M605.4,955.4V981c-0.1,1.1,0.7,2.1,1.8,2.3h0.1h12.6v-28L605.4,955.4L605.4,955.4z"/>
		<path class="st10" d="M620,925.4h-12.6c-1.2,0.1-2,1.1-1.9,2.3v27.7H620V925.4z"/>
		<path class="st10" d="M620,955.4h13v-27.7c0.1-1.1-0.7-2.1-1.8-2.3h-0.1H620L620,955.4z"/>
		<path class="st10" d="M620,983.5h11.1c1.2-0.1,2-1.1,1.9-2.3v-25.6h-13V983.5z"/>
	</g>
	<line class="st11" x1="605.4" y1="955.4" x2="633" y2="955.4"/>
	<path class="st4" d="M629.6,1029l0.2-4.4c0.1-3.4,2.9-6,6.2-6h0.4l4.4,0.4c4.4,0.4,7.8,4.2,7.5,8.6l0,0c-0.1,4.4-3.7,8-8.1,8h-4.4
		c-3.4,0-6.2-2.6-6.5-6L629.6,1029z"/>
	<path class="st5" d="M630.4,1029l0.2-4.4c0.1-3.4,2.9-6,6.2-6h0.4l4.4,0.4c4.4,0.4,7.8,4.2,7.5,8.6l0,0c-0.1,4.4-3.7,8-8.1,8h-4.4
		c-3.4,0-6.2-2.6-6.5-6L630.4,1029z"/>
	<path class="st6" d="M631.3,1029l0.2-4.4c0.1-3.4,2.9-6,6.2-6h0.4l4.4,0.4c4.4,0.4,7.8,4.2,7.5,8.6l0,0c-0.1,4.4-3.7,8-8.1,8h-4.4
		c-3.4,0-6.2-2.6-6.5-6L631.3,1029z"/>
	<path class="st7" d="M637.3,1018.3l5.5,0.6c4.4,0.4,7.8,4.2,7.5,8.6l0,0c-0.1,4.4-3.7,8-8.1,8l-5.5,0.2"/>
	<path class="st8" d="M607.4,1053.6l-0.4-53.3c-0.1-1.1,0.7-2.1,1.8-2.3h0.1h23.8c1.2,0.1,2,1.1,1.9,2.3l0,0l0.4,53.3
		c0.1,1.1-0.7,2.1-1.8,2.3h-0.1h-23.8C608.1,1055.8,607.3,1054.8,607.4,1053.6z"/>
	<path class="st9" d="M606.2,1053.6l-0.4-53.3c-0.1-1.1,0.7-2.1,1.8-2.3h0.1h23.8c1.2,0.1,2,1.1,1.9,2.3l0,0l0.4,53.3
		c0.1,1.1-0.7,2.1-1.8,2.3h-0.1h-23.8C606.9,1055.8,606.1,1054.8,606.2,1053.6z"/>
	<g id="tables-17-3-21-2_3_">
		<path class="st10" d="M605.4,1028.1v25.6c-0.1,1.1,0.7,2.1,1.8,2.3h0.1h12.6v-28L605.4,1028.1L605.4,1028.1z"/>
		<path class="st10" d="M620,998h-12.6c-1.2,0.1-2,1.1-1.9,2.3v27.7H620V998z"/>
		<path class="st10" d="M620,1028.1h13v-27.7c0.1-1.1-0.7-2.1-1.8-2.3h-0.1H620L620,1028.1z"/>
		<path class="st10" d="M620,1056.1h11.1c1.2-0.1,2-1.1,1.9-2.3v-25.6h-13V1056.1z"/>
	</g>
	<line class="st11" x1="605.4" y1="1028.1" x2="633" y2="1028.1"/>
	<g>
		<path class="st4" d="M294.8,1108.9l4.4,0.2c3.4,0.1,6,2.9,6,6.2v0.4l-0.4,4.4c-0.4,4.4-4.2,7.8-8.6,7.5l0,0c-4.4-0.1-8-3.7-8-8.1
			v-4.4c0-3.4,2.6-6.2,6-6.5L294.8,1108.9z"/>
		<path class="st5" d="M294.8,1109.7l4.4,0.2c3.4,0.1,6,2.9,6,6.2v0.4l-0.4,4.4c-0.4,4.4-4.2,7.8-8.6,7.5l0,0c-4.4-0.1-8-3.7-8-8.1
			v-4.4c0-3.4,2.6-6.2,6-6.5L294.8,1109.7z"/>
		<path class="st6" d="M294.8,1110.6l4.4,0.2c3.4,0.1,6,2.9,6,6.2v0.4l-0.4,4.4c-0.4,4.4-4.2,7.8-8.6,7.5l0,0c-4.4-0.1-8-3.7-8-8.1
			v-4.4c0-3.4,2.6-6.2,6-6.5L294.8,1110.6z"/>
		<path class="st7" d="M305.4,1116.5l-0.6,5.5c-0.4,4.4-4.2,7.8-8.6,7.5l0,0c-4.4-0.1-8-3.7-8-8.1l-0.2-5.5"/>
		<path class="st8" d="M270.1,1086.6l53.3-0.4c1.1-0.1,2.1,0.7,2.3,1.8v0.1v23.8c-0.1,1.2-1.1,2-2.3,1.9l0,0l-53.3,0.4
			c-1.1,0.1-2.1-0.7-2.3-1.8v-0.1v-23.8C268,1087.4,269,1086.6,270.1,1086.6z"/>
		<path class="st9" d="M270.1,1085.4l53.3-0.4c1.1-0.1,2.1,0.7,2.3,1.8v0.1v23.8c-0.1,1.2-1.1,2-2.3,1.9l0,0l-53.3,0.4
			c-1.1,0.1-2.1-0.7-2.3-1.8v-0.1v-23.8C268,1086.2,269,1085.4,270.1,1085.4z"/>
		<g id="tables-17-3-21-2_4_">
			<path class="st10" d="M295.7,1084.7H270c-1.1-0.1-2.1,0.7-2.3,1.8v0.1v12.6h28V1084.7L295.7,1084.7z"/>
			<path class="st10" d="M325.7,1099.3v-12.6c-0.1-1.2-1.1-2-2.3-1.9h-27.7v14.5H325.7z"/>
			<path class="st10" d="M295.7,1099.3v12.9h27.7c1.1,0.1,2.1-0.7,2.3-1.8v-0.1v-11.1L295.7,1099.3z"/>
			<path class="st10" d="M267.6,1099.3v11.1c0.1,1.2,1.1,2,2.3,1.9h25.6v-13.1L267.6,1099.3L267.6,1099.3z"/>
		</g>
		<line class="st11" x1="295.7" y1="1084.7" x2="295.7" y2="1112.3"/>
	</g>
	<path class="st4" d="M268.6,947l0.2-4.4c0.1-3.4,2.9-6,6.2-6h0.4l4.4,0.4c4.4,0.4,7.8,4.2,7.5,8.6l0,0c-0.1,4.4-3.7,8-8.1,8h-4.4
		c-3.4,0-6.2-2.6-6.5-6L268.6,947z"/>
	<path class="st5" d="M269.4,947l0.2-4.4c0.1-3.4,2.9-6,6.2-6h0.4l4.4,0.4c4.4,0.4,7.8,4.2,7.5,8.6l0,0c-0.1,4.4-3.7,8-8.1,8h-4.4
		c-3.4,0-6.2-2.6-6.5-6L269.4,947z"/>
	<path class="st6" d="M270.3,947l0.2-4.4c0.1-3.4,2.9-6,6.2-6h0.4l4.4,0.4c4.4,0.4,7.8,4.2,7.5,8.6l0,0c-0.1,4.4-3.7,8-8.1,8h-4.4
		c-3.4,0-6.2-2.6-6.5-6L270.3,947z"/>
	<path class="st7" d="M276.3,936.4l5.5,0.6c4.4,0.4,7.8,4.2,7.5,8.6l0,0c-0.1,4.4-3.7,8-8.1,8l-5.5,0.2"/>
	<path class="st8" d="M246.3,971.6l-0.4-53.3c-0.1-1.1,0.7-2.1,1.8-2.3h0.1h23.8c1.2,0.1,2,1.1,1.9,2.3l0,0l0.4,53.3
		c0.1,1.1-0.7,2.1-1.8,2.3H272h-23.8C247.1,973.8,246.3,972.8,246.3,971.6z"/>
	<path class="st9" d="M245.1,971.6l-0.4-53.3c-0.1-1.1,0.7-2.1,1.8-2.3h0.1h23.8c1.2,0.1,2,1.1,1.9,2.3l0,0l0.4,53.3
		c0.1,1.1-0.7,2.1-1.8,2.3h-0.1H247C245.9,973.8,245.1,972.8,245.1,971.6z"/>
	<g id="tables-17-3-21-2_5_">
		<path class="st10" d="M244.4,946.1v25.6c-0.1,1.1,0.7,2.1,1.8,2.3h0.1h12.6v-28L244.4,946.1L244.4,946.1z"/>
		<path class="st10" d="M259,916.1h-12.6c-1.2,0.1-2,1.1-1.9,2.3V946H259V916.1z"/>
		<path class="st10" d="M259,946.1h13v-27.7c0.1-1.1-0.7-2.1-1.8-2.3h-0.1H259V946.1z"/>
		<path class="st10" d="M259,974.2h11.1c1.2-0.1,2-1.1,1.9-2.3v-25.6h-13V974.2z"/>
	</g>
	<line class="st11" x1="244.4" y1="946.1" x2="272" y2="946.1"/>
	<g>
		<path class="st4" d="M220.8,944.1l-0.2,4.4c-0.1,3.4-2.9,6-6.2,6H214l-4.4-0.4c-4.4-0.4-7.8-4.2-7.5-8.6l0,0c0.1-4.4,3.7-8,8.1-8
			h4.4c3.4,0,6.2,2.6,6.5,6L220.8,944.1z"/>
		<path class="st5" d="M220,944.1l-0.2,4.4c-0.1,3.4-2.9,6-6.2,6h-0.4l-4.4-0.4c-4.4-0.4-7.8-4.2-7.5-8.6l0,0c0.1-4.4,3.7-8,8.1-8
			h4.4c3.4,0,6.2,2.6,6.5,6L220,944.1z"/>
		<path class="st6" d="M219.1,944.1l-0.2,4.4c-0.1,3.4-2.9,6-6.2,6h-0.4l-4.4-0.4c-4.4-0.4-7.8-4.2-7.5-8.6l0,0c0.1-4.4,3.7-8,8.1-8
			h4.4c3.4,0,6.2,2.6,6.5,6L219.1,944.1z"/>
		<path class="st7" d="M213.1,955l-5.5-0.6c-4.4-0.4-7.8-4.2-7.5-8.6l0,0c0.1-4.4,3.7-8,8.1-8l5.5-0.2"/>
	</g>
	<path class="st8" d="M243,918.3l0.4,53.3c0.1,1.1-0.7,2.1-1.8,2.3h-0.1h-23.8c-1.2-0.1-2-1.1-1.9-2.3l0,0l-0.4-53.3
		c-0.1-1.1,0.7-2.1,1.8-2.3h0.1h23.8C242.3,916.2,243.1,917.2,243,918.3z"/>
	<path class="st9" d="M244.2,918.3l0.4,53.3c0.1,1.1-0.7,2.1-1.8,2.3h-0.1h-23.8c-1.2-0.1-2-1.1-1.9-2.3l0,0l-0.4-53.3
		c-0.1-1.1,0.7-2.1,1.8-2.3h0.1h23.8C243.5,916.2,244.3,917.2,244.2,918.3z"/>
	<g id="tables-17-3-21-2_6_">
		<path class="st10" d="M245,944.1v-25.6c0.1-1.1-0.7-2.1-1.8-2.3h-0.1h-12.6v28L245,944.1L245,944.1z"/>
		<path class="st10" d="M230.3,974.2h12.6c1.2-0.1,2-1.1,1.9-2.3v-27.7h-14.5V974.2z"/>
		<path class="st10" d="M230.3,944.1h-12.9v27.7c-0.1,1.1,0.7,2.1,1.8,2.3h0.1h11.1L230.3,944.1z"/>
		<path class="st10" d="M230.3,916.1h-11.1c-1.2,0.1-2,1.1-1.9,2.3V944h13.1v-27.9H230.3z"/>
	</g>
	<line class="st11" x1="245" y1="916.1" x2="217.4" y2="916.1"/>
</g>
<g id="booking">
	<rect id="area-03.311-status" x="324.6" y="897" class="st22" width="184" height="156.8"/>
	<rect id="area-03.302-status" x="514.9" y="85.5" class="st22" width="148.4" height="194.9"/>
	<rect id="area-03.304-status" x="311.1" y="85.5" class="st22" width="103.2" height="194.9"/>
	<rect id="area-03.303-status" x="415" y="85.5" class="st22" width="100.4" height="195.1"/>
	<rect id="area-03.305-status" x="161.8" y="85.4" class="st22" width="150.3" height="195.2"/>
	<polygon id="area-03.301-status" class="st22" points="577.8,346.7 577.8,409.6 557.7,409.6 557.7,430.9 591.9,430.9 591.9,537.2 
		459.5,537.2 459.5,468.2 451.8,436.1 436.8,405.9 440.2,374.1 461.5,348.8 490.9,338.7 522.4,347.1 	"/>
	<rect x="298.7" y="177.6" class="st23" width="118.1" height="22.8"/>
	<text transform="matrix(1 0 0 1 319.7578 183.3298)"><tspan x="0" y="0" class="st10 st24 st25">Efstathia Koulouridi </tspan><tspan x="18.9" y="9.6" class="st10 st24 st25">Room 304</tspan></text>
	<rect x="172.9" y="178.6" class="st23" width="118.1" height="26.1"/>
	<text transform="matrix(1 0 0 1 199.4947 184.3298)"><tspan x="0" y="0" class="st10 st24 st25">George Tsopelas </tspan><tspan x="13.3" y="9.6" class="st10 st24 st25">Room 305</tspan></text>
	<rect x="531.5" y="176" class="st23" width="118.1" height="41.6"/>
	<text transform="matrix(1 0 0 1 559.868 181.7098)"><tspan x="0" y="0" class="st10 st24 st25">Theo Pepanides </tspan><tspan x="11.6" y="9.6" class="st10 st24 st25">Room 302</tspan></text>
	<rect x="456.3" y="425.3" class="st23" width="118.1" height="43"/>
	<text transform="matrix(1 0 0 1 507.1752 431.0611)"><tspan x="0" y="0" class="st10 st24 st25">CSP </tspan><tspan x="-10.9" y="9.6" class="st10 st24 st25">Room 301</tspan></text>
	<rect x="361.9" y="973.9" class="st23" width="118.1" height="24.2"/>
	<text transform="matrix(1 0 0 1 410.5006 979.6281)"><tspan x="0" y="0" class="st10 st24 st25">Team </tspan><tspan x="-8.7" y="9.6" class="st10 st24 st25">Room 311</tspan></text>
	<rect x="408.2" y="177.7" class="st23" width="118.1" height="27"/>
	<text transform="matrix(1 0 0 1 430.1569 183.3893)"><tspan x="0" y="0" class="st10 st24 st25">Thomas Kelepouris </tspan><tspan x="18" y="9.6" class="st10 st24 st25">Room 303</tspan></text>
</g>
<g id="outline">
	<polygon class="st26" points="197.8,35.6 622.2,35.6 622.2,82.8 663.3,82.8 663.3,876.2 683.6,876.2 683.6,1157.7 503.9,1157.7 
		503.9,1053.8 330.2,1053.8 330.2,1157.7 161.8,1157.7 161.8,85.5 197.2,85.5 	"/>
	<polyline class="st27" points="197.2,85.5 635.7,85.5 514.9,85.5 514.9,280.4 509.6,280.4 518.5,280.4 	"/>
	<polyline class="st27" points="483.8,280.4 344.6,280.4 414.2,280.4 414.2,85.5 311.1,85.5 311.1,280.4 320.3,280.4 307.2,280.4 	
		"/>
	<polyline class="st27" points="279.6,280.4 161.8,280.4 268.4,280.4 268.4,315.9 	"/>
	<polyline class="st27" points="161.8,347.2 268.4,347.2 268.4,339.7 	"/>
	<polyline class="st27" points="250.6,347.2 250.6,403.9 268.4,403.9 268.4,429.3 242.9,429.3 242.9,530.3 283.6,530.3 275.9,530.3 
			"/>
	<path class="st27" d="M275.1,705"/>
	<polyline class="st27" points="242.9,530.3 242.9,552.5 218.4,576.6 218.4,705 218.4,714.4 244.9,714.4 244.9,727.2 	"/>
	<polyline class="st27" points="347.2,705 347.2,769.4 347.2,530.3 308.5,530.3 308.5,547.6 	"/>
	<line class="st27" x1="244.9" y1="727.2" x2="312.5" y2="727.2"/>
	<polyline class="st27" points="347.2,727.2 241.3,727.2 241.3,895 161.8,895 	"/>
	<polyline class="st27" points="241.3,863.6 347.2,863.6 347.2,823.4 	"/>
	<polyline class="st27" points="241.3,795.6 347.2,795.6 347.2,790 347.2,799.6 	"/>
	<polyline class="st27" points="330.2,1053.8 324.6,1053.8 324.6,897 399.5,897 	"/>
	<polyline class="st27" points="430.9,897 508.6,897 508.6,890.6 508.6,1053.8 498.1,1053.8 	"/>
	<path class="st27" d="M508.6,1048"/>
	<polyline class="st27" points="677,878.6 590.3,878.6 590.3,721.5 663.3,721.5 479.6,721.5 479.6,660.3 459.5,660.3 459.5,656.7 	
		"/>
	<path class="st27" d="M663.3,876.2"/>
	<path class="st27" d="M508.6,721.5"/>
	<polyline class="st27" points="459.5,599.6 459.5,595.3 486.1,595.3 486.1,537.2 459.5,537.2 459.5,530.3 	"/>
	<polyline class="st27" points="486.1,537.2 665.2,537.2 599.6,537.2 591.9,537.2 591.9,430.9 558.9,430.9 558.9,409.5 577.8,409.5 
		577.8,346.7 602.8,346.7 521.5,346.7 490.9,338.7 461.5,348.8 440.2,374.1 436.5,406.3 451.8,436.1 459.5,467.5 459.5,502.1 	"/>
	<polyline class="st27" points="641,345.1 663.3,345.1 663.3,280.4 547.2,280.4 547.2,274.3 	"/>
	<polyline class="st27" points="550.9,597.6 550.9,585.8 614.4,585.8 614.4,672.4 550.9,672.4 550.9,659.8 	"/>
	<line class="st27" x1="550.9" y1="620.7" x2="550.9" y2="637.5"/>
	<line class="st27" x1="479.6" y1="721.5" x2="479.6" y2="744.5"/>
	<polyline class="st27" points="479.6,769.4 479.6,861.5 590.3,861.5 508.6,861.5 508.6,869.7 	"/>
	<polyline class="st27" points="270.8,1048 164.7,1048 161.8,1048 	"/>
	<line class="st27" x1="299.9" y1="1048" x2="324.6" y2="1048"/>
</g>
<g id="icons_and_labels">
	<circle class="st28" cx="628.7" cy="448.5" r="20.9"/>
	<path class="st29" d="M618,479.5h1c0,0.4,0.2,0.6,0.2,0.8c0.2,0.2,0.5,0.4,0.8,0.6c0.4,0.2,0.8,0.2,1.1,0.2s0.7,0,1-0.2
		c0.2-0.2,0.4-0.2,0.6-0.4c0.3-0.3,0.3-0.8,0-1.1c-0.2-0.2-0.4-0.4-0.6-0.4c-0.4-0.1-0.8-0.2-1.1-0.4c-0.4-0.2-0.9-0.3-1.3-0.4
		c-0.3-0.1-0.5-0.3-0.8-0.6c-0.2-0.3-0.2-0.6-0.2-1s0.1-0.7,0.4-1c0.2-0.4,0.6-0.6,1-0.8c0.9-0.3,1.8-0.3,2.7,0
		c0.4,0.1,0.7,0.4,1,0.8c0.2,0.3,0.3,0.7,0.4,1.1h-1c0-0.4-0.2-0.8-0.6-1c-0.3-0.2-0.7-0.4-1.1-0.4c-0.4,0-0.8,0.1-1.2,0.4
		c-0.2,0.2-0.4,0.5-0.4,0.8c0,0.2,0,0.4,0.2,0.6c0.4,0.3,0.9,0.5,1.3,0.6c0.8,0.2,1.3,0.4,1.5,0.4c0.4,0.1,0.7,0.4,1,0.8
		c0.5,0.5,0.5,1.4,0,1.9c-0.3,0.3-0.6,0.6-1,0.8c-0.4,0.2-0.9,0.2-1.3,0.2c-0.5,0-1,0-1.5-0.2c-0.4-0.1-0.7-0.4-1-0.8
		C618.2,480.3,618,479.9,618,479.5z"/>
	<path class="st29" d="M626.4,480.9l0.2,0.8H626c-0.4,0-0.6,0-0.8-0.2s-0.4-0.2-0.4-0.4c-0.1-0.3-0.1-0.6-0.2-1v-2.9H624v-0.6h0.6
		v-1.1l0.8-0.6v1.7h0.8v0.6h-0.8v3.3c0,0.1,0.1,0.2,0.2,0.2l0,0h0.4C626.2,480.8,626.3,480.9,626.4,480.9z"/>
	<path class="st29" d="M630.7,481.1c-0.4,0.2-0.6,0.4-1,0.6c-0.3,0.2-0.6,0.2-1,0.2c-0.5,0-0.9-0.1-1.3-0.4c-0.4-0.2-0.4-0.6-0.4-1
		c0-0.3,0.1-0.5,0.2-0.8c0.2-0.2,0.2-0.4,0.4-0.6c0.2-0.1,0.4-0.2,0.6-0.2c0.3,0,0.5-0.1,0.8-0.2c0.5,0,1.1-0.1,1.5-0.4v-0.2
		c0-0.4,0-0.6-0.2-0.8c-0.3-0.2-0.6-0.4-1-0.4c-0.3,0-0.7,0-1,0.2c-0.2,0.2-0.4,0.5-0.4,0.8l-0.8-0.2c0-0.4,0.2-0.6,0.4-1
		c0.2-0.2,0.5-0.4,0.8-0.6c0.4-0.2,0.8-0.2,1.2-0.2c0.3,0,0.7,0,1,0.2c0.2,0.2,0.4,0.2,0.6,0.4c0.1,0.2,0.2,0.4,0.2,0.6v3.4
		c0,0.2,0.2,0.4,0.2,0.6h-1C630.7,481.5,630.7,481.3,630.7,481.1z M630.5,479.2c-0.4,0.2-0.9,0.3-1.3,0.4c-0.4,0-0.6,0.2-0.8,0.2
		s-0.2,0.2-0.4,0.2c0,0.2-0.2,0.2-0.2,0.4c0,0.2,0,0.4,0.2,0.6s0.4,0.2,0.8,0.2c0.3,0,0.7,0,1-0.2l0.6-0.6c0-0.2,0.2-0.4,0.2-0.8
		L630.5,479.2L630.5,479.2z"/>
	<path class="st29" d="M632.8,475.7v-1h0.8v1H632.8z M632.8,481.6v-5h0.8v5H632.8z"/>
	<path class="st29" d="M634.9,481.6v-5h0.8v0.8c0.1-0.3,0.3-0.5,0.6-0.8c0.2-0.1,0.4-0.2,0.6-0.2c0.3,0,0.7,0.1,1,0.2l-0.4,0.8
		c-0.3-0.3-0.8-0.3-1.2,0l-0.4,0.4c0,0.4-0.2,0.6-0.2,1v2.7h-0.8L634.9,481.6L634.9,481.6z"/>
	<path class="st29" d="M637.7,480.1l0.8-0.2c0,0.3,0.1,0.6,0.4,0.8c0.6,0.3,1.3,0.3,1.9,0c0.1-0.2,0.2-0.4,0.2-0.6s0-0.4-0.2-0.4
		s-0.4-0.2-1-0.4c-0.4-0.2-0.9-0.3-1.3-0.4c-0.2-0.2-0.4-0.2-0.6-0.4s-0.2-0.4-0.2-0.8c0-0.2,0-0.4,0.2-0.6s0.2-0.4,0.4-0.4
		c0.2-0.1,0.4-0.2,0.6-0.2c0.2,0,0.4-0.2,0.8-0.2c0.3,0,0.7,0,1,0.2c0.4,0.2,0.6,0.2,0.6,0.4c0.2,0.2,0.2,0.4,0.4,0.8l-0.8,0.2
		c0-0.2-0.2-0.4-0.4-0.6s-0.4-0.2-0.8-0.2s-0.6,0-0.8,0.2s-0.2,0.2-0.2,0.4s0,0.2,0.2,0.4c0.1,0.1,0.2,0.2,0.4,0.2
		c0.2,0.1,0.5,0.2,0.8,0.2c0.4,0.2,0.9,0.3,1.3,0.4c0.4,0,0.4,0.2,0.6,0.4s0.2,0.4,0.2,0.8c0,0.3,0,0.5-0.2,0.8
		c-0.2,0.2-0.5,0.4-0.8,0.6c-0.4,0.2-0.8,0.2-1.1,0.2c-0.5,0-1.1-0.1-1.5-0.4C638.1,481,637.8,480.6,637.7,480.1z"/>
	<line class="st30" x1="620.1" y1="455.6" x2="636" y2="455.6"/>
	<polyline class="st30" points="633.1,455.6 633.1,453.1 630.5,453.1 630.5,450.2 627.6,450.2 627.6,447.5 624.9,447.5 624.9,444.7 
		620.1,444.7 	"/>
	<line class="st30" x1="628.4" y1="439.9" x2="637.2" y2="448.5"/>
	<polyline class="st30" points="628.4,443.3 628.4,439.9 631.8,439.9 	"/>
	<polyline class="st30" points="637.2,445.2 637.2,448.5 633.7,448.5 	"/>
	<circle class="st28" cx="638.3" cy="624.1" r="20"/>
	<path class="st29" d="M628,653.8h0.9c0,0.4,0.2,0.6,0.2,0.7c0.2,0.2,0.5,0.4,0.7,0.5c0.3,0.2,0.7,0.2,1.1,0.2c0.3,0,0.6,0,0.9-0.2
		c0.2-0.2,0.4-0.2,0.6-0.4c0.2-0.3,0.2-0.8,0-1.1c-0.2-0.2-0.4-0.4-0.6-0.4c-0.4-0.1-0.7-0.2-1.1-0.4c-0.4-0.2-0.8-0.3-1.3-0.4
		c-0.3-0.1-0.5-0.3-0.7-0.6s-0.2-0.6-0.2-0.9c0-0.3,0.1-0.7,0.4-0.9c0.2-0.3,0.5-0.6,0.9-0.7c0.8-0.2,1.7-0.2,2.6,0
		c0.4,0.1,0.7,0.4,0.9,0.7s0.3,0.7,0.4,1.1h-0.9c0-0.4-0.2-0.7-0.6-0.9c-0.3-0.2-0.7-0.4-1.1-0.4c-0.4,0-0.8,0.1-1.1,0.4
		c-0.2,0.2-0.4,0.4-0.4,0.7c0,0.2,0,0.4,0.2,0.5c0.4,0.3,0.8,0.5,1.3,0.6c0.7,0.2,1.3,0.4,1.5,0.4c0.4,0.1,0.7,0.4,0.9,0.7
		c0.5,0.5,0.5,1.3,0,1.8c-0.3,0.3-0.6,0.5-0.9,0.7c-0.4,0.2-0.8,0.2-1.3,0.2s-1,0-1.5-0.2c-0.4-0.1-0.7-0.4-0.9-0.7
		C628.2,654.5,628,654.2,628,653.8z"/>
	<path class="st29" d="M636.1,655.1l0.2,0.7h-0.6c-0.4,0-0.5,0-0.7-0.2s-0.4-0.2-0.4-0.4c-0.1-0.3-0.1-0.6-0.2-0.9v-2.8h-0.5V651
		h0.5v-1l0.7-0.6v1.7h0.7v0.5h-0.7v3.1c0,0.1,0.1,0.2,0.2,0.2l0,0h0.4C635.8,655,636,655.1,636.1,655.1z"/>
	<path class="st29" d="M640.1,655.3c-0.4,0.2-0.5,0.4-0.9,0.6c-0.3,0.1-0.6,0.2-0.9,0.2c-0.5,0-0.9-0.1-1.3-0.4
		c-0.4-0.2-0.4-0.6-0.4-0.9c0-0.3,0.1-0.5,0.2-0.7c0.2-0.2,0.2-0.4,0.4-0.5c0.1-0.1,0.3-0.2,0.5-0.2c0.3,0,0.5-0.1,0.7-0.2
		c0.5,0,1-0.1,1.5-0.4v-0.2c0-0.4,0-0.5-0.2-0.7c-0.3-0.2-0.6-0.4-0.9-0.4c-0.3,0-0.6,0-0.9,0.2c-0.2,0.2-0.4,0.4-0.4,0.7l-0.7-0.2
		c0-0.4,0.2-0.6,0.4-0.9c0.2-0.2,0.5-0.4,0.7-0.5c0.3-0.1,0.7-0.2,1.1-0.2c0.3,0,0.6,0,0.9,0.2c0.2,0.2,0.4,0.2,0.5,0.4
		c0.1,0.1,0.2,0.3,0.2,0.5v3.3c0,0.2,0.2,0.4,0.2,0.5H640C640.1,655.6,640.1,655.5,640.1,655.3z M640,653.4
		c-0.4,0.1-0.8,0.3-1.3,0.4c-0.4,0-0.6,0.2-0.7,0.2s-0.2,0.2-0.4,0.2c0,0.2-0.2,0.2-0.2,0.4s0,0.4,0.2,0.5c0.2,0.2,0.4,0.2,0.7,0.2
		s0.6,0,0.9-0.2l0.6-0.5c0-0.2,0.2-0.4,0.2-0.7V653.4z"/>
	<path class="st29" d="M642.2,650.1v-0.9h0.7v0.9H642.2z M642.2,655.8V651h0.7v4.8H642.2z"/>
	<path class="st29" d="M644.2,655.8V651h0.7v0.7c0.1-0.3,0.3-0.5,0.5-0.7c0.1-0.1,0.3-0.2,0.6-0.2s0.6,0.1,0.9,0.2l-0.4,0.7
		c-0.3-0.2-0.8-0.2-1.1,0l-0.4,0.4c0,0.4-0.2,0.5-0.2,0.9v2.6h-0.7L644.2,655.8z"/>
	<path class="st29" d="M646.9,654.4l0.7-0.2c0,0.3,0.1,0.6,0.4,0.7c0.6,0.2,1.2,0.2,1.8,0c0.1-0.1,0.2-0.3,0.2-0.6
		c0-0.2,0-0.4-0.2-0.4s-0.4-0.2-0.9-0.4c-0.4-0.2-0.8-0.3-1.3-0.4c-0.2-0.2-0.4-0.2-0.5-0.4s-0.2-0.4-0.2-0.7c0-0.2,0-0.4,0.2-0.6
		c0.2-0.2,0.2-0.4,0.4-0.4c0.1-0.1,0.3-0.2,0.5-0.2s0.4-0.2,0.7-0.2s0.6,0,0.9,0.2c0.4,0.2,0.5,0.2,0.5,0.4c0.2,0.2,0.2,0.4,0.4,0.7
		l-0.7,0.2c0-0.2-0.2-0.4-0.4-0.6s-0.4-0.2-0.7-0.2s-0.5,0-0.7,0.2s-0.2,0.2-0.2,0.4s0,0.2,0.2,0.4c0.1,0.1,0.2,0.2,0.4,0.2
		c0.2,0.1,0.5,0.2,0.7,0.2c0.4,0.2,0.8,0.3,1.3,0.4c0.4,0,0.4,0.2,0.5,0.4s0.2,0.4,0.2,0.7s0,0.5-0.2,0.7s-0.5,0.4-0.7,0.6
		c-0.3,0.2-0.7,0.2-1.1,0.2c-0.5,0-1-0.1-1.5-0.4C647.3,655.2,647,654.8,646.9,654.4z"/>
	<line class="st30" x1="630.1" y1="630.9" x2="645.3" y2="630.9"/>
	<polyline class="st30" points="642.5,630.9 642.5,628.5 640,628.5 640,625.7 637.2,625.7 637.2,623.2 634.6,623.2 634.6,620.4 
		630.1,620.4 	"/>
	<line class="st30" x1="637.9" y1="615.8" x2="646.4" y2="624.1"/>
	<polyline class="st30" points="637.9,619.1 637.9,615.8 641.2,615.8 	"/>
	<polyline class="st30" points="646.4,621 646.4,624.1 643.1,624.1 	"/>
	<circle class="st28" cx="585" cy="623.6" r="21.1"/>
	<path class="st29" d="M566.1,656.5v-7.1h5.1v0.8h-4.1v2.2h3.9v0.8h-3.9v2.4h4.3v0.8L566.1,656.5L566.1,656.5z"/>
	<path class="st29" d="M572.6,656.5v-7.1h0.8v7.1H572.6z"/>
	<path class="st29" d="M578.3,654.9l1,0.2c-0.1,0.5-0.4,0.9-0.8,1.2c-0.5,0.3-1,0.4-1.6,0.4c-0.7,0.1-1.4-0.2-1.8-0.8
		c-0.4-0.6-0.6-1.3-0.6-2s0.2-1.4,0.6-2c0.5-0.5,1.1-0.8,1.8-0.8s1.3,0.3,1.8,0.8c0.4,0.6,0.6,1.3,0.6,2v0.2h-3.9
		c0,0.5,0.1,1,0.4,1.4c0.2,0.4,0.6,0.4,1,0.4s0.6,0,0.8-0.2C577.9,655.6,578.2,655.3,578.3,654.9z M575.4,653.5h3
		c0-0.4-0.1-0.7-0.4-1c-0.2-0.4-0.7-0.6-1.2-0.6c-0.4,0-0.7,0.1-1,0.4C575.5,652.7,575.4,653.1,575.4,653.5z"/>
	<path class="st29" d="M581.7,656.5l-2-5.1h1l1.2,3.2c0.2,0.4,0.2,0.6,0.4,1c0.1-0.3,0.2-0.7,0.4-1l1.2-3.2h1l-2,5.1H581.7z"/>
	<path class="st29" d="M588.6,655.9c-0.4,0.2-0.6,0.4-1,0.6c-0.3,0.2-0.6,0.2-1,0.2c-0.5,0-1-0.1-1.4-0.4c-0.4-0.2-0.4-0.6-0.4-1
		c0-0.3,0.1-0.5,0.2-0.8c0.2-0.2,0.2-0.4,0.4-0.6c0.2-0.2,0.4-0.2,0.6-0.2c0.3,0,0.5-0.1,0.8-0.2c0.6,0,1.1-0.1,1.6-0.4v-0.2
		c0-0.4,0-0.6-0.2-0.8c-0.3-0.2-0.6-0.4-1-0.4c-0.3,0-0.7,0-1,0.2c-0.2,0.2-0.4,0.5-0.4,0.8l-0.8-0.2c0-0.4,0.2-0.6,0.4-1
		c0.2-0.2,0.5-0.4,0.8-0.6c0.4-0.2,0.8-0.2,1.2-0.2c0.3,0,0.7,0,1,0.2c0.2,0.2,0.4,0.2,0.6,0.4c0.2,0.2,0.2,0.4,0.2,0.6v3.5
		c0,0.2,0.2,0.4,0.2,0.6h-1C588.8,656.5,588.8,656.1,588.6,655.9z M588.6,653.9c-0.5,0.2-0.9,0.3-1.4,0.4c-0.4,0-0.6,0.2-0.8,0.2
		s-0.2,0.2-0.4,0.2s-0.2,0.2-0.2,0.4s0,0.4,0.2,0.6c0.2,0.2,0.4,0.2,0.8,0.2c0.3,0,0.7,0,1-0.2l0.6-0.6c0-0.2,0.2-0.4,0.2-0.8
		L588.6,653.9L588.6,653.9z"/>
	<path class="st29" d="M592.7,655.7l0.2,0.8h-0.6c-0.4,0-0.6,0-0.8-0.2s-0.4-0.2-0.4-0.4c-0.1-0.3-0.2-0.7-0.2-1v-3h-0.6v-0.6h0.6
		v-1.2l0.8-0.6v1.8h0.8v0.6h-0.8v3.4c0,0.1,0.1,0.2,0.2,0.2l0,0h0.4C592.5,655.9,592.5,655.9,592.7,655.7z"/>
	<path class="st29" d="M593.3,653.9c-0.1-0.8,0.2-1.6,0.8-2.2c0.4-0.4,1-0.6,1.6-0.6c0.7-0.1,1.4,0.2,1.8,0.8c0.4,0.6,0.6,1.3,0.6,2
		c0,0.5-0.2,1.1-0.4,1.6c-0.2,0.4-0.5,0.7-0.8,1c-0.4,0.2-0.8,0.4-1.2,0.4c-0.7,0.1-1.4-0.2-1.8-0.8
		C593.5,655.5,593.3,654.7,593.3,653.9z M594.1,653.9c0,0.5,0.1,1.1,0.4,1.6c0.2,0.4,0.7,0.7,1.2,0.6c0.5,0,0.9-0.2,1.2-0.6
		c0.4-0.4,0.4-0.8,0.4-1.6c0-0.5-0.1-1-0.4-1.4c-0.2-0.4-0.6-0.4-1-0.4s-0.8,0.2-1.2,0.4C594.3,652.9,594,653.4,594.1,653.9
		L594.1,653.9z"/>
	<path class="st29" d="M599,656.5v-5.1h0.8v0.8c0.1-0.3,0.3-0.6,0.6-0.8c0.2-0.2,0.4-0.2,0.6-0.2c0.3,0,0.7,0.1,1,0.2l-0.4,0.8
		c-0.4-0.3-0.8-0.3-1.2,0l-0.4,0.4c0,0.4-0.2,0.6-0.2,1v2.8L599,656.5L599,656.5z"/>
	<path class="st31" d="M579.3,631.9v-12.6h4.3v13L579.3,631.9z M583.9,631.9v-12.6h4.3v13L583.9,631.9z M593.3,631.9h-4.9v-13
		c0-0.1-0.1-0.2-0.2-0.2l0,0h-9.1c-0.1,0-0.2,0.1-0.2,0.2l0,0l0,0l0,0v13h-2.2v-16.8h16.8L593.3,631.9z M593.7,614.9h-17
		c-0.1,0-0.2,0.1-0.2,0.2l0,0l0,0l0,0v17c0,0.1,0.1,0.2,0.2,0.2l0,0h17c0.1,0,0.2-0.1,0.2-0.2l0,0l0,0L593.7,614.9z"/>
	<path class="st31" d="M582.5,617.1h3v-0.2L582.5,617.1C582.5,616.9,582.1,616.9,582.5,617.1z"/>
	<path class="st31" d="M590.6,623.2l0.4-0.4l0.4,0.4h0.2V623l-0.6-0.6h-0.2l-0.8,0.8v0.2h0.6L590.6,623.2L590.6,623.2z"/>
	<path class="st31" d="M590.8,625.2L590.8,625.2l0.8-0.8c0,0,0.2-0.2,0-0.2h-0.2l-0.4,0.4l-0.4-0.4h-0.2v0.2l0,0L590.8,625.2z"/>
	<g id="male">
		<circle class="st28" cx="294.2" cy="822.4" r="22.2"/>
		<circle class="st32" cx="294.2" cy="814.5" r="3.5"/>
		<path class="st32" d="M299.7,819.9h-10.9c-0.3,2.9,1,5.8,3.5,7.4v6.5h3.9v-6.5C298.6,825.6,300,822.8,299.7,819.9z"/>
		<text transform="matrix(1 0 0 1 274.787 855.144)" class="st29 st33 st34">WC Men</text>
	</g>
	<circle class="st28" cx="294.2" cy="756" r="22.4"/>
	<circle class="st32" cx="294.2" cy="748.2" r="3.4"/>
	<path class="st32" d="M294.2,753.1c-3,0-5.4,4.5-5.4,9.3h3.4v4.8h3.9v-4.8h3.4C299.6,757.5,297.1,753.1,294.2,753.1z"/>
	<text transform="matrix(1 0 0 1 267.328 789.6432)" class="st29 st33 st34">WC </text>
	<text transform="matrix(1 0 0 1 286.766 789.6432)" class="st29 st33 st34">W</text>
	<text transform="matrix(1 0 0 1 296.024 789.6432)" class="st29 st33 st34">omen</text>
	<text transform="matrix(1 0 0 1 530.4628 992.649)" class="st29 st33 st34">R &amp; I</text>
	<text transform="matrix(1 0 0 1 267.5541 619.1517)" class="st29 st33 st34">I</text>
	<text transform="matrix(1 0 0 1 270.3321 619.1517)" class="st29 st33 st34">T</text>
	<text transform="matrix(1 0 0 1 276.2601 619.1517)" class="st29 st33 st34"> Room</text>
	<text transform="matrix(1 0 0 1 266.3501 631.1517)" class="st29 st33 st34">Electrical</text>
	<text transform="matrix(1 0 0 1 599.676 318.333)" class="st29 st33 st34">Fire Exit</text>
	<text transform="matrix(1 0 0 1 192.1722 1028.2222)" class="st29 st33 st34">HR &amp; VA</text>
	<g id="Outline_Icons-6">
		<g>
			<path class="st35" d="M205.1,340.5V333h2.8c0.4,0,0.7,0,1.1,0.1c0.3,0.1,0.6,0.2,0.9,0.4c0.2,0.2,0.4,0.4,0.6,0.7
				c0.2,0.3,0.2,0.7,0.2,1c0,0.6-0.2,1.2-0.6,1.6c-0.6,0.5-1.4,0.8-2.2,0.7H206v3.1L205.1,340.5L205.1,340.5z M206.1,336.6h1.9
				c0.5,0.1,1-0.1,1.4-0.4c0.3-0.2,0.4-0.6,0.4-1c0-0.3-0.1-0.6-0.2-0.8c-0.1-0.2-0.3-0.4-0.6-0.4c-0.2,0-0.5-0.1-0.9-0.1h-1.9
				L206.1,336.6L206.1,336.6z"/>
			<path class="st35" d="M215.5,339.8c-0.3,0.3-0.6,0.5-1,0.6c-0.3,0.1-0.7,0.2-1,0.2c-0.5,0.1-1-0.1-1.4-0.4
				c-0.3-0.3-0.5-0.7-0.5-1.1c0-0.2,0.1-0.5,0.2-0.7c0.1-0.2,0.3-0.4,0.5-0.5s0.5-0.2,0.7-0.3c0.2,0,0.5-0.1,0.8-0.1
				c0.5-0.1,1.1-0.2,1.6-0.3V337c0-0.3-0.1-0.6-0.3-0.8c-0.3-0.2-0.6-0.3-1-0.3c-0.3,0-0.7,0.1-1,0.2c-0.2,0.2-0.4,0.5-0.5,0.8
				l-0.9-0.1c0.1-0.3,0.2-0.6,0.4-0.9c0.2-0.2,0.5-0.4,0.8-0.5c0.4-0.1,0.8-0.2,1.2-0.2s0.7,0.1,1.1,0.2c0.2,0,0.5,0.2,0.6,0.4
				l0.3,0.6v2c0,0.5,0,1.1,0.1,1.6c0,0.2,0.1,0.5,0.2,0.7h-1C215.5,340.4,215.5,340.1,215.5,339.8z M215.4,337.8
				c-0.5,0.2-1,0.3-1.5,0.3c-0.3,0-0.5,0.1-0.8,0.2c-0.2,0.1-0.3,0.2-0.4,0.3c-0.1,0.1-0.1,0.3-0.1,0.4c0,0.2,0.1,0.5,0.3,0.6
				s0.5,0.2,0.8,0.2s0.6-0.1,0.9-0.2c0.2-0.1,0.5-0.4,0.6-0.6c0.1-0.3,0.1-0.6,0.1-0.9L215.4,337.8L215.4,337.8z"/>
			<path class="st35" d="M217.8,340.5v-5.4h0.8v0.8c0.4-0.6,1-0.9,1.7-0.9c0.3,0,0.6,0.1,0.9,0.2c0.3,0.1,0.5,0.3,0.6,0.5
				s0.2,0.5,0.3,0.7c0,0.2,0.1,0.5,0.1,0.9v3.3h-0.9v-3.3c0-0.4,0-0.7-0.1-0.8c-0.1-0.2-0.2-0.3-0.4-0.4s-0.4-0.2-0.6-0.2
				c-0.4,0-0.7,0.1-1,0.4c-0.3,0.2-0.4,0.7-0.4,1.4v3h-1L217.8,340.5L217.8,340.5z"/>
			<path class="st35" d="M225.6,339.7l0.1,0.8c-0.2,0.1-0.5,0.1-0.7,0.1c-0.3,0-0.6-0.1-0.8-0.2s-0.3-0.2-0.4-0.4
				c-0.1-0.4-0.1-0.7-0.1-1.1v-3.1H223v-0.7h0.7v-1.3l0.9-0.6v1.9h0.9v0.7h-0.9v3.7c0,0.1,0.1,0.1,0.2,0.2c0.1,0,0.2,0.1,0.3,0.1
				C225.2,339.7,225.4,339.7,225.6,339.7z"/>
			<path class="st35" d="M226.5,340.5v-5.4h0.8v0.8c0.1-0.3,0.4-0.6,0.6-0.8c0.2-0.2,0.4-0.2,0.6-0.2c0.3,0,0.6,0.1,0.9,0.3
				l-0.3,0.9c-0.2-0.1-0.5-0.2-0.7-0.2s-0.4,0.1-0.5,0.2c-0.2,0.1-0.3,0.3-0.3,0.5c-0.1,0.4-0.2,0.7-0.2,1.1v2.8L226.5,340.5z"/>
			<path class="st35" d="M230,342.6l-0.1-0.9c0.2,0.1,0.3,0.1,0.5,0.1s0.4,0,0.5-0.1l0.3-0.3c0.2-0.2,0.3-0.4,0.3-0.7
				c0-0.1,0-0.1,0.1-0.2l-2.1-5.4h1l1.1,3.1c0.1,0.4,0.3,0.8,0.4,1.3c0.1-0.4,0.2-0.8,0.4-1.2l1.2-3.2h0.9l-2.1,5.5
				c-0.1,0.4-0.3,0.8-0.5,1.2c-0.2,0.3-0.4,0.5-0.6,0.7c-0.2,0.1-0.5,0.2-0.8,0.2C230.3,342.7,230.1,342.7,230,342.6z"/>
		</g>
		<circle class="st36" cx="219.4" cy="307.7" r="22.8"/>
		<g id="Outline_Icons-2-2">
			<path class="st37" d="M227.2,303.2c-1.5,0-2.8-1-3.3-2.4c-0.6,0.4-1.3,0.6-2,0.6c-1.9,0-3.5-1.6-3.5-3.5v-0.3
				c-5.5,0.9-9.2,6.2-8.3,11.7s6.2,9.2,11.7,8.3c5.5-0.9,9.2-6.2,8.3-11.7c-0.2-1.1-0.6-2.2-1.1-3.2
				C228.4,303,227.8,303.2,227.2,303.2z"/>
			<circle class="st37" cx="216.6" cy="305" r="1.8"/>
			<circle class="st37" cx="222.8" cy="309.4" r="0.9"/>
			<circle class="st37" cx="217.5" cy="312.1" r="1.8"/>
			<circle class="st37" cx="223.6" cy="305.9" r="0.4"/>
			<circle class="st37" cx="213.1" cy="308.5" r="0.4"/>
			<circle class="st37" cx="222.8" cy="313.8" r="0.4"/>
		</g>
	</g>
	<text transform="matrix(1 0 0 1 241.296 1064.8932)" class="st29 st33 st34">HR</text>
	<g id="utility-2-4">
		<g>
			<circle class="st28" cx="549.1" cy="777.9" r="20.8"/>
			<g id="Outline_Icons-13-2-4">
				<g id="Outline_Icons-14-2-4">
					<path class="st38" d="M544.5,782h-2.2c-0.8,0-1.5-0.6-1.5-1.5v-4.4c0-0.8,0.6-1.5,1.5-1.5h13.9c0.8,0,1.5,0.6,1.5,1.5v4.4
						c0,0.8-0.6,1.5-1.5,1.5H554"/>
					<polyline class="st38" points="544.5,773.2 544.5,770.2 551.7,770.2 554,772.4 554,773.2 					"/>
					<rect x="544.5" y="779.8" class="st38" width="9.5" height="5.9"/>
					<circle class="st38" cx="543" cy="776.9" r="0.7"/>
					<line class="st38" x1="545.9" y1="781.3" x2="552.5" y2="781.3"/>
					<line class="st38" x1="545.9" y1="782.8" x2="552.5" y2="782.8"/>
					<line class="st38" x1="545.9" y1="784.2" x2="552.5" y2="784.2"/>
					<polyline class="st38" points="551.7,770.2 551.7,772.4 554,772.4 					"/>
				</g>
			</g>
		</g>
		<text transform="matrix(1 0 0 1 524.3301 810.8521)" class="st29 st33 st34">Copy/ Print</text>
	</g>
</g>
</svg>
