<?xml version="1.0" encoding="utf-8"?>
<!-- Generator: Adobe Illustrator 25.3.0, SVG Export Plug-In . SVG Version: 6.00 Build 0)  -->
<svg version="1.1" id="Layer_1" xmlns="http://www.w3.org/2000/svg" xmlns:xlink="http://www.w3.org/1999/xlink" x="0px" y="0px"
	 viewBox="0 0 841.9 1190.6" style="enable-background:new 0 0 841.9 1190.6;" xml:space="preserve">
<style type="text/css">
	.st0{fill:#4196B1;}
	.st1{fill:#AAE0E4;}
	.st2{fill:#8ECCCE;}
	.st3{fill:#99B8BF;}
	.st4{opacity:0.15;fill:#020202;enable-background:new    ;}
	.st5{fill:#596069;}
	.st6{fill:#9BAEB8;}
	.st7{fill:none;stroke:#7A8F94;stroke-width:2;stroke-linecap:round;stroke-miterlimit:10;}
	.st8{opacity:5.000000e-02;fill:#040404;enable-background:new    ;}
	.st9{fill:#B8BFC1;}
	.st10{fill:#FFFFFF;}
	.st11{fill:none;stroke:#DBDDDC;stroke-width:0.175;stroke-miterlimit:10;}
	.st12{fill:none;stroke:#7A8F94;stroke-width:4;stroke-miterlimit:10;}
	.st13{opacity:0.15;fill:#0D5577;enable-background:new    ;}
	.st14{fill:#0D5577;}
	.st15{fill:#83D8EF;stroke:#53C5F1;stroke-width:0.799;stroke-linecap:round;stroke-linejoin:round;}
	.st16{fill:#4E9FB9;stroke:#4A90A0;stroke-width:0.799;stroke-linecap:round;stroke-linejoin:round;}
	.st17{opacity:0.43;fill:#53C5F1;enable-background:new    ;}
	.st18{opacity:8.000000e-02;fill:#101010;enable-background:new    ;}
	.st19{fill:#4FAFC6;stroke:#5798A3;stroke-width:0.931;stroke-linecap:round;stroke-linejoin:round;}
	.st20{fill:#7DCFE2;stroke:#53C5F1;stroke-width:1.164;stroke-linecap:round;stroke-linejoin:round;}
	.st21{opacity:5.000000e-02;fill:#030303;enable-background:new    ;}
	.st22{fill:#F4F4F4;}
	.st23{opacity:0.74;fill:#575757;enable-background:new    ;}
	.st24{fill:none;}
	.st25{font-family:'Arial-BoldMT';}
	.st26{font-size:8px;}
	.st27{fill:none;stroke:#FFFFFF;stroke-width:8;stroke-miterlimit:10;}
	.st28{fill:none;stroke:#FFFFFF;stroke-width:4;stroke-miterlimit:10;}
	.st29{fill:#EBF2F2;}
	.st30{fill:#757D7F;}
	.st31{fill:none;stroke:#7A8E93;stroke-linecap:round;stroke-linejoin:round;}
	.st32{fill:#7A8E93;stroke:#7A8E93;stroke-width:0.5;stroke-miterlimit:10;}
	.st33{fill:none;stroke:#7A8E93;stroke-miterlimit:10;}
	.st34{font-family:'ArialMT';}
	.st35{font-size:10px;}
	.st36{fill:#767E80;}
	.st37{fill:#EBF1F2;}
	.st38{fill:none;stroke:#7A8E93;stroke-width:0.827;stroke-miterlimit:10;}
</style>
<g id="shadow">
	<polygon class="st0" points="196.3,52.7 638.4,52.7 638.4,99.8 681.2,99.8 681.2,893.2 702.3,893.2 702.3,1174.7 515.1,1174.7 
		515.1,1070.9 334.2,1070.9 334.2,1174.7 158.8,1174.7 158.8,102.5 195.7,102.5 	"/>
</g>
<g id="background">
	<polygon class="st1" points="197.8,35.5 622.2,35.5 622.2,82.7 663.3,82.7 663.3,876.1 683.6,876.1 683.6,1157.6 503.9,1157.6 
		503.9,1053.7 330.2,1053.7 330.2,1157.6 161.8,1157.6 161.8,85.4 197.2,85.4 	"/>
</g>
<g id="spaces">
	<rect x="164.8" y="85.5" class="st2" width="498.5" height="194.9"/>
	<rect x="589.7" y="721.6" class="st3" width="74.3" height="154.6"/>
	<polygon class="st2" points="161.8,895 161.8,1157.7 330.2,1157.7 330.2,1053.8 503.9,1053.8 503.9,1157.7 683.6,1157.7 
		683.6,876.2 590.3,876.2 590.3,721.5 665.2,721.5 665.2,345.1 524.5,346.7 491.8,338.9 461.5,348.8 440.2,374.1 436.8,405.9 
		452.2,436.2 459.4,468.1 459.4,537.6 485.7,537.6 485.7,595.3 459.5,595.3 459.5,659.6 479.9,659.6 479.9,720.8 508.4,720.8 
		508.4,863.6 508.4,897 324.6,897 324.6,863.6 347.2,863.6 347.2,794.8 347.2,530.3 242.9,530.3 242.9,550.8 218.4,576.6 
		218.4,704.6 244.6,704.6 244.6,729 240.1,729 240.1,895 	"/>
	<rect x="161.8" y="280.4" class="st3" width="106.6" height="66.8"/>
	<polygon class="st3" points="161.8,895 241.3,895 241.3,727.3 244.9,727.3 244.9,704.6 218.4,704.6 218.4,576.6 242.9,550.8 
		242.9,429.3 267.6,429.3 267.6,403.9 250.3,403.9 250.3,347.6 161.8,347.6 	"/>
</g>
<g id="furniture">
	<path class="st4" d="M540.3,991.3l-0.2,4.4c-0.1,3.4-2.9,6-6.2,6h-0.4l-4.4-0.4c-4.4-0.4-7.8-4.2-7.5-8.6l0,0c0.1-4.4,3.7-8,8.1-8
		h4.4c3.4,0,6.2,2.6,6.5,6L540.3,991.3z"/>
	<path class="st5" d="M539.5,991.3l-0.2,4.4c-0.1,3.4-2.9,6-6.2,6h-0.4l-4.4-0.4c-4.4-0.4-7.8-4.2-7.5-8.6l0,0c0.1-4.4,3.7-8,8.1-8
		h4.4c3.4,0,6.2,2.6,6.5,6L539.5,991.3z"/>
	<path class="st6" d="M538.7,991.3l-0.2,4.4c-0.1,3.4-2.9,6-6.2,6h-0.4l-4.4-0.4c-4.4-0.4-7.8-4.2-7.5-8.6l0,0c0.1-4.4,3.7-8,8.1-8
		h4.4c3.4,0,6.2,2.6,6.5,6L538.7,991.3z"/>
	<path class="st7" d="M532.7,1002l-5.5-0.6c-4.4-0.4-7.8-4.2-7.5-8.6l0,0c0.1-4.4,3.7-8,8.1-8l5.5-0.2"/>
	<path class="st8" d="M562.6,966.7l0.4,53.3c0.1,1.1-0.7,2.1-1.8,2.3c0,0-0.1,0-0.1,0h-23.8c-1.2-0.1-2-1.1-1.9-2.3l0,0l-0.4-53.3
		c-0.1-1.1,0.7-2.1,1.8-2.3c0,0,0.1,0,0.1,0h23.8C561.8,964.5,562.7,965.5,562.6,966.7z"/>
	<path class="st9" d="M563.8,966.7l0.4,53.3c0.1,1.1-0.7,2.1-1.8,2.3c0,0-0.1,0-0.1,0h-23.8c-1.2-0.1-2-1.1-1.9-2.3l0,0l-0.4-53.3
		c-0.1-1.1,0.7-2.1,1.8-2.3c0,0,0.1,0,0.1,0h23.8C563,964.5,563.9,965.5,563.8,966.7z"/>
	<g id="tables-17-3-21">
		<path class="st10" d="M564.5,992.2v-25.6c0.1-1.1-0.7-2.1-1.8-2.3c0,0-0.1,0-0.1,0H550v28L564.5,992.2L564.5,992.2z"/>
		<path class="st10" d="M549.9,1022.3h12.6c1.2-0.1,2-1.1,1.9-2.3v-27.7h-14.5V1022.3z"/>
		<path class="st10" d="M549.9,992.2H537v27.7c-0.1,1.1,0.7,2.1,1.8,2.3c0,0,0.1,0,0.1,0H550L549.9,992.2z"/>
		<path class="st10" d="M549.9,964.2h-11.1c-1.2,0.1-2,1.1-1.9,2.3v25.6h13.1V964.2z"/>
	</g>
	<line class="st11" x1="564.5" y1="992.2" x2="537" y2="992.2"/>
	<path class="st4" d="M537.1,1110.4l4.4,0.2c3.4,0.1,6,2.9,6,6.2v0.4l-0.4,4.4c-0.4,4.4-4.2,7.8-8.6,7.5l0,0c-4.4-0.1-8-3.7-8-8.1
		v-4.4c0-3.4,2.6-6.2,6-6.5L537.1,1110.4z"/>
	<path class="st5" d="M537.1,1111.2l4.4,0.2c3.4,0.1,6,2.9,6,6.2v0.4l-0.4,4.4c-0.4,4.4-4.2,7.8-8.6,7.5l0,0c-4.4-0.1-8-3.7-8-8.1
		v-4.4c0-3.4,2.6-6.2,6-6.5L537.1,1111.2z"/>
	<path class="st6" d="M537.1,1112l4.4,0.2c3.4,0.1,6,2.9,6,6.2v0.4l-0.4,4.4c-0.4,4.4-4.2,7.8-8.6,7.5l0,0c-4.4-0.1-8-3.7-8-8.1
		v-4.4c0-3.4,2.6-6.2,6-6.5L537.1,1112z"/>
	<path class="st7" d="M547.8,1118l-0.6,5.5c-0.4,4.4-4.2,7.8-8.6,7.5l0,0c-4.4-0.1-8-3.7-8-8.1l-0.2-5.5"/>
	<path class="st8" d="M512.5,1088.1l53.3-0.4c1.1-0.1,2.1,0.7,2.3,1.8c0,0,0,0.1,0,0.1v23.8c-0.1,1.2-1.1,2-2.3,1.9l0,0l-53.3,0.4
		c-1.1,0.1-2.1-0.7-2.3-1.8c0,0,0-0.1,0-0.1V1090C510.4,1088.9,511.4,1088,512.5,1088.1z"/>
	<path class="st9" d="M512.5,1086.9l53.3-0.4c1.1-0.1,2.1,0.7,2.3,1.8c0,0,0,0.1,0,0.1v23.8c-0.1,1.2-1.1,2-2.3,1.9l0,0l-53.3,0.4
		c-1.1,0.1-2.1-0.7-2.3-1.8c0,0,0-0.1,0-0.1v-23.8C510.4,1087.7,511.4,1086.8,512.5,1086.9z"/>
	<g id="tables-17-3-21-2">
		<path class="st10" d="M538,1086.2h-25.6c-1.1-0.1-2.1,0.7-2.3,1.8c0,0,0,0.1,0,0.1v12.6h28L538,1086.2L538,1086.2z"/>
		<path class="st10" d="M568.1,1100.8v-12.6c-0.1-1.2-1.1-2-2.3-1.9h-27.7v14.5H568.1z"/>
		<path class="st10" d="M538,1100.8v12.9h27.7c1.1,0.1,2.1-0.7,2.3-1.8c0,0,0-0.1,0-0.1v-11.1L538,1100.8z"/>
		<path class="st10" d="M510,1100.8v11.1c0.1,1.2,1.1,2,2.3,1.9h25.6v-13.1H510z"/>
	</g>
	<line class="st11" x1="538" y1="1086.2" x2="538" y2="1113.7"/>
	<path class="st4" d="M603.6,912.1l-0.2,4.4c-0.1,3.4-2.9,6-6.2,6h-0.4l-4.4-0.4c-4.4-0.4-7.8-4.2-7.5-8.6l0,0c0.1-4.4,3.7-8,8.1-8
		h4.4c3.4,0,6.2,2.6,6.5,6L603.6,912.1z"/>
	<path class="st5" d="M602.8,912.1l-0.2,4.4c-0.1,3.4-2.9,6-6.2,6H596l-4.4-0.4c-4.4-0.4-7.8-4.2-7.5-8.6l0,0c0.1-4.4,3.7-8,8.1-8
		h4.4c3.4,0,6.2,2.6,6.5,6L602.8,912.1z"/>
	<path class="st6" d="M602,912.1l-0.2,4.4c-0.1,3.4-2.9,6-6.2,6h-0.4l-4.4-0.4c-4.4-0.4-7.8-4.2-7.5-8.6l0,0c0.1-4.4,3.7-8,8.1-8
		h4.4c3.4,0,6.2,2.6,6.5,6L602,912.1z"/>
	<path class="st7" d="M596,922.7l-5.5-0.6c-4.4-0.4-7.8-4.2-7.5-8.6l0,0c0.1-4.4,3.7-8,8.1-8l5.5-0.2"/>
	<path class="st8" d="M625.9,887.5l0.4,53.3c0.1,1.1-0.7,2.1-1.8,2.3c0,0-0.1,0-0.1,0h-23.8c-1.2-0.1-2-1.1-1.9-2.3l0,0l-0.4-53.3
		c-0.1-1.1,0.7-2.1,1.8-2.3c0,0,0.1,0,0.1,0H624C625.1,885.3,626,886.3,625.9,887.5z"/>
	<path class="st9" d="M627.1,887.5l0.4,53.3c0.1,1.1-0.7,2.1-1.8,2.3c0,0-0.1,0-0.1,0h-23.8c-1.2-0.1-2-1.1-1.9-2.3l0,0l-0.4-53.3
		c-0.1-1.1,0.7-2.1,1.8-2.3c0,0,0.1,0,0.1,0h23.8C626.3,885.3,627.2,886.3,627.1,887.5z"/>
	<g id="tables-17-3-21-3">
		<path class="st10" d="M627.8,913v-25.6c0.1-1.1-0.7-2.1-1.8-2.3c0,0-0.1,0-0.1,0h-12.6v28L627.8,913L627.8,913z"/>
		<path class="st10" d="M613.2,943h12.6c1.2-0.1,2-1.1,1.9-2.3v-27.7h-14.5V943z"/>
		<path class="st10" d="M613.2,913h-12.9v27.7c-0.1,1.1,0.7,2.1,1.8,2.3c0,0,0.1,0,0.1,0h11.1L613.2,913z"/>
		<path class="st10" d="M613.2,884.9H602c-1.2,0.1-2,1.1-1.9,2.3v25.6h13.1L613.2,884.9z"/>
	</g>
	<line class="st11" x1="627.8" y1="913" x2="600.3" y2="913"/>
	<path class="st4" d="M651.4,915.9l0.2-4.4c0.1-3.4,2.9-6,6.2-6h0.4l4.4,0.4c4.4,0.4,7.8,4.2,7.5,8.6l0,0c-0.1,4.4-3.7,8-8.1,8h-4.4
		c-3.4,0-6.2-2.6-6.5-6L651.4,915.9z"/>
	<path class="st5" d="M652.2,915.9l0.2-4.4c0.1-3.4,2.9-6,6.2-6h0.4l4.4,0.4c4.4,0.4,7.8,4.2,7.5,8.6l0,0c-0.1,4.4-3.7,8-8.1,8h-4.4
		c-3.4,0-6.2-2.6-6.5-6L652.2,915.9z"/>
	<path class="st6" d="M653,915.9l0.2-4.4c0.1-3.4,2.9-6,6.2-6h0.4l4.4,0.4c4.4,0.4,7.8,4.2,7.5,8.6l0,0c-0.1,4.4-3.7,8-8.1,8h-4.4
		c-3.4,0-6.2-2.6-6.5-6L653,915.9z"/>
	<path class="st7" d="M659,905.3l5.5,0.6c4.4,0.4,7.8,4.2,7.5,8.6l0,0c-0.1,4.4-3.7,8-8.1,8l-5.5,0.2"/>
	<path class="st8" d="M629.1,940.5l-0.4-53.3c-0.1-1.1,0.7-2.1,1.8-2.3c0,0,0.1,0,0.1,0h23.8c1.2,0.1,2,1.1,1.9,2.3l0,0l0.4,53.3
		c0.1,1.1-0.7,2.1-1.8,2.3c0,0-0.1,0-0.1,0H631C629.9,942.7,629,941.7,629.1,940.5z"/>
	<path class="st9" d="M627.9,940.5l-0.4-53.3c-0.1-1.1,0.7-2.1,1.8-2.3c0,0,0.1,0,0.1,0h23.8c1.2,0.1,2,1.1,1.9,2.3l0,0l0.4,53.3
		c0.1,1.1-0.7,2.1-1.8,2.3c0,0-0.1,0-0.1,0h-23.8C628.7,942.7,627.8,941.7,627.9,940.5z"/>
	<g id="tables-17-3-21-4">
		<path class="st10" d="M627.2,915v25.6c-0.1,1.1,0.7,2.1,1.8,2.3c0,0,0.1,0,0.1,0h12.6v-28L627.2,915L627.2,915z"/>
		<path class="st10" d="M641.8,884.9h-12.6c-1.2,0.1-2,1.1-1.9,2.3v27.7h14.5V884.9z"/>
		<path class="st10" d="M641.8,915h12.9v-27.7c0.1-1.1-0.7-2.1-1.8-2.3c0,0-0.1,0-0.1,0h-11.1L641.8,915z"/>
		<path class="st10" d="M641.8,943h11.1c1.2-0.1,2-1.1,1.9-2.3v-25.6h-13.1V943z"/>
	</g>
	<line class="st11" x1="627.2" y1="915" x2="654.7" y2="915"/>
	<path class="st4" d="M311.9,396l-0.2,4.4c-0.1,3.4-2.9,6-6.2,6h-0.4l-4.4-0.4c-4.4-0.4-7.8-4.2-7.5-8.6l0,0c0.1-4.4,3.7-8,8.1-8
		h4.4c3.4,0,6.2,2.6,6.5,6L311.9,396z"/>
	<path class="st5" d="M311,396l-0.2,4.4c-0.1,3.4-2.9,6-6.2,6h-0.4l-4.4-0.4c-4.4-0.4-7.8-4.2-7.5-8.6l0,0c0.1-4.4,3.7-8,8.1-8h4.4
		c3.4,0,6.2,2.6,6.5,6L311,396z"/>
	<path class="st6" d="M310.2,396l-0.2,4.4c-0.1,3.4-2.9,6-6.2,6h-0.4l-4.4-0.4c-4.4-0.4-7.8-4.2-7.5-8.6l0,0c0.1-4.4,3.7-8,8.1-8
		h4.4c3.4,0,6.2,2.6,6.5,6L310.2,396z"/>
	<path class="st7" d="M304.2,406.6l-5.5-0.6c-4.4-0.4-7.8-4.2-7.5-8.6l0,0c0.1-4.4,3.7-8,8.1-8l5.5-0.2"/>
	<path class="st8" d="M334.1,371.4l0.4,53.3c0.1,1.1-0.7,2.1-1.8,2.3c0,0-0.1,0-0.1,0h-23.8c-1.2-0.1-2-1.1-1.9-2.3l0,0l-0.4-53.3
		c-0.1-1.1,0.7-2.1,1.8-2.3c0,0,0.1,0,0.1,0h23.8C333.4,369.2,334.2,370.2,334.1,371.4z"/>
	<path class="st9" d="M335.3,371.4l0.4,53.3c0.1,1.1-0.7,2.1-1.8,2.3c0,0-0.1,0-0.1,0h-23.8c-1.2-0.1-2-1.1-1.9-2.3l0,0l-0.4-53.3
		c-0.1-1.1,0.7-2.1,1.8-2.3c0,0,0.1,0,0.1,0h23.8C334.6,369.2,335.4,370.2,335.3,371.4z"/>
	<g id="tables-17-3-21-5">
		<path class="st10" d="M336,396.9v-25.6c0.1-1.1-0.7-2.1-1.8-2.3c0,0-0.1,0-0.1,0h-12.6v28L336,396.9L336,396.9z"/>
		<path class="st10" d="M321.4,426.9H334c1.2-0.1,2-1.1,1.9-2.3V397h-14.5V426.9z"/>
		<path class="st10" d="M321.4,396.9h-12.9v27.7c-0.1,1.1,0.7,2.1,1.8,2.3c0,0,0.1,0,0.1,0h11.1L321.4,396.9z"/>
		<path class="st10" d="M321.4,368.8h-11.1c-1.2,0.1-2,1.1-1.9,2.3v25.6h13.1L321.4,368.8z"/>
	</g>
	<line class="st11" x1="336" y1="396.9" x2="308.5" y2="396.9"/>
	<path class="st4" d="M359.6,399.8l0.2-4.4c0.1-3.4,2.9-6,6.2-6h0.4l4.4,0.4c4.4,0.4,7.8,4.2,7.5,8.6l0,0c-0.1,4.4-3.7,8-8.1,8h-4.4
		c-3.4,0-6.2-2.6-6.5-6L359.6,399.8z"/>
	<path class="st5" d="M360.4,399.8l0.2-4.4c0.1-3.4,2.9-6,6.2-6h0.4l4.4,0.4c4.4,0.4,7.8,4.2,7.5,8.6l0,0c-0.1,4.4-3.7,8-8.1,8h-4.4
		c-3.4,0-6.2-2.6-6.5-6L360.4,399.8z"/>
	<path class="st6" d="M361.3,399.8l0.2-4.4c0.1-3.4,2.9-6,6.2-6h0.4l4.4,0.4c4.4,0.4,7.8,4.2,7.5,8.6l0,0c-0.1,4.4-3.7,8-8.1,8h-4.4
		c-3.4,0-6.2-2.6-6.5-6L361.3,399.8z"/>
	<path class="st7" d="M367.3,389.1l5.5,0.6c4.4,0.4,7.8,4.2,7.5,8.6l0,0c-0.1,4.4-3.7,8-8.1,8l-5.5,0.2"/>
	<path class="st8" d="M337.4,424.4l-0.4-53.3c-0.1-1.1,0.7-2.1,1.8-2.3c0,0,0.1,0,0.1,0h23.8c1.2,0.1,2,1.1,1.9,2.3l0,0l0.4,53.3
		c0.1,1.1-0.7,2.1-1.8,2.3c0,0-0.1,0-0.1,0h-23.8C338.1,426.6,337.3,425.6,337.4,424.4z"/>
	<path class="st9" d="M336.2,424.4l-0.4-53.3c-0.1-1.1,0.7-2.1,1.8-2.3c0,0,0.1,0,0.1,0h23.8c1.2,0.1,2,1.1,1.9,2.3l0,0l0.4,53.3
		c0.1,1.1-0.7,2.1-1.8,2.3c0,0-0.1,0-0.1,0h-23.8C336.9,426.6,336.1,425.6,336.2,424.4z"/>
	<g id="tables-17-3-21-6">
		<path class="st10" d="M335.4,398.9v25.6c-0.1,1.1,0.7,2.1,1.8,2.3c0,0,0.1,0,0.1,0h12.6v-28L335.4,398.9z"/>
		<path class="st10" d="M350,368.8h-12.6c-1.2,0.1-2,1.1-1.9,2.3v27.7H350V368.8z"/>
		<path class="st10" d="M350,398.9H363v-27.7c0.1-1.1-0.7-2.1-1.8-2.3c0,0-0.1,0-0.1,0h-11.1L350,398.9z"/>
		<path class="st10" d="M350,426.9h11.1c1.2-0.1,2-1.1,1.9-2.3V399H350V426.9z"/>
	</g>
	<line class="st11" x1="335.4" y1="398.9" x2="363" y2="398.9"/>
	<path class="st4" d="M311.9,454l-0.2,4.4c-0.1,3.4-2.9,6-6.2,6h-0.4l-4.4-0.4c-4.4-0.4-7.8-4.2-7.5-8.6l0,0c0.1-4.4,3.7-8,8.1-8
		h4.4c3.4,0,6.2,2.6,6.5,6L311.9,454z"/>
	<path class="st5" d="M311,454l-0.2,4.4c-0.1,3.4-2.9,6-6.2,6h-0.4l-4.4-0.4c-4.4-0.4-7.8-4.2-7.5-8.6l0,0c0.1-4.4,3.7-8,8.1-8h4.4
		c3.4,0,6.2,2.6,6.5,6L311,454z"/>
	<path class="st6" d="M310.2,454l-0.2,4.4c-0.1,3.4-2.9,6-6.2,6h-0.4l-4.4-0.4c-4.4-0.4-7.8-4.2-7.5-8.6l0,0c0.1-4.4,3.7-8,8.1-8
		h4.4c3.4,0,6.2,2.6,6.5,6L310.2,454z"/>
	<path class="st7" d="M304.2,464.6l-5.5-0.6c-4.4-0.4-7.8-4.2-7.5-8.6l0,0c0.1-4.4,3.7-8,8.1-8l5.5-0.2"/>
	<path class="st8" d="M334.1,429.3l0.4,53.3c0.1,1.1-0.7,2.1-1.8,2.3c0,0-0.1,0-0.1,0h-23.8c-1.2-0.1-2-1.1-1.9-2.3l0,0l-0.4-53.3
		c-0.1-1.1,0.7-2.1,1.8-2.3c0,0,0.1,0,0.1,0h23.8C333.4,427.2,334.2,428.2,334.1,429.3z"/>
	<path class="st9" d="M335.3,429.3l0.4,53.3c0.1,1.1-0.7,2.1-1.8,2.3c0,0-0.1,0-0.1,0h-23.8c-1.2-0.1-2-1.1-1.9-2.3l0,0l-0.4-53.3
		c-0.1-1.1,0.7-2.1,1.8-2.3c0,0,0.1,0,0.1,0h23.8C334.6,427.2,335.4,428.2,335.3,429.3z"/>
	<g id="tables-17-3-21-7">
		<path class="st10" d="M336,454.9v-25.6c0.1-1.1-0.7-2.1-1.8-2.3c0,0-0.1,0-0.1,0h-12.6v28L336,454.9L336,454.9z"/>
		<path class="st10" d="M321.4,484.9H334c1.2-0.1,2-1.1,1.9-2.3V455h-14.5V484.9z"/>
		<path class="st10" d="M321.4,454.9h-12.9v27.7c-0.1,1.1,0.7,2.1,1.8,2.3c0,0,0.1,0,0.1,0h11.1L321.4,454.9z"/>
		<path class="st10" d="M321.4,426.8h-11.1c-1.2,0.1-2,1.1-1.9,2.3v25.6h13.1L321.4,426.8z"/>
	</g>
	<line class="st11" x1="336" y1="454.9" x2="308.5" y2="454.9"/>
	<path class="st4" d="M359.6,457.8l0.2-4.4c0.1-3.4,2.9-6,6.2-6h0.4l4.4,0.4c4.4,0.4,7.8,4.2,7.5,8.6l0,0c-0.1,4.4-3.7,8-8.1,8h-4.4
		c-3.4,0-6.2-2.6-6.5-6L359.6,457.8z"/>
	<path class="st5" d="M360.4,457.8l0.2-4.4c0.1-3.4,2.9-6,6.2-6h0.4l4.4,0.4c4.4,0.4,7.8,4.2,7.5,8.6l0,0c-0.1,4.4-3.7,8-8.1,8h-4.4
		c-3.4,0-6.2-2.6-6.5-6L360.4,457.8z"/>
	<path class="st6" d="M361.3,457.8l0.2-4.4c0.1-3.4,2.9-6,6.2-6h0.4l4.4,0.4c4.4,0.4,7.8,4.2,7.5,8.6l0,0c-0.1,4.4-3.7,8-8.1,8h-4.4
		c-3.4,0-6.2-2.6-6.5-6L361.3,457.8z"/>
	<path class="st7" d="M367.3,447.1l5.5,0.6c4.4,0.4,7.8,4.2,7.5,8.6l0,0c-0.1,4.4-3.7,8-8.1,8l-5.5,0.2"/>
	<path class="st8" d="M337.4,482.4l-0.4-53.3c-0.1-1.1,0.7-2.1,1.8-2.3c0,0,0.1,0,0.1,0h23.8c1.2,0.1,2,1.1,1.9,2.3l0,0l0.4,53.3
		c0.1,1.1-0.7,2.1-1.8,2.3c0,0-0.1,0-0.1,0h-23.8C338.1,484.6,337.3,483.6,337.4,482.4z"/>
	<path class="st9" d="M336.2,482.4l-0.4-53.3c-0.1-1.1,0.7-2.1,1.8-2.3c0,0,0.1,0,0.1,0h23.8c1.2,0.1,2,1.1,1.9,2.3l0,0l0.4,53.3
		c0.1,1.1-0.7,2.1-1.8,2.3c0,0-0.1,0-0.1,0h-23.8C336.9,484.6,336.1,483.6,336.2,482.4z"/>
	<g id="tables-17-3-21-8">
		<path class="st10" d="M335.4,456.9v25.6c-0.1,1.1,0.7,2.1,1.8,2.3c0,0,0.1,0,0.1,0h12.6v-28L335.4,456.9z"/>
		<path class="st10" d="M350,426.8h-12.6c-1.2,0.1-2,1.1-1.9,2.3v27.7H350V426.8z"/>
		<path class="st10" d="M350,456.9H363v-27.7c0.1-1.1-0.7-2.1-1.8-2.3c0,0-0.1,0-0.1,0h-11.1L350,456.9z"/>
		<path class="st10" d="M350,484.9h11.1c1.2-0.1,2-1.1,1.9-2.3V457H350V484.9z"/>
	</g>
	<line class="st11" x1="335.4" y1="456.9" x2="363" y2="456.9"/>
	<line class="st12" x1="284.6" y1="428.4" x2="387.8" y2="428.4"/>
	<path class="st13" d="M375.2,627.3v-25.5c0-1-0.8-1.7-1.7-1.8h-20c-0.6,0.1-1.2,0.7-1,1.2v57c0.1,0.7,0.7,1.2,1.4,1.2h19.2
		c1.2-0.1,2.1-0.9,2.1-1.8v-26l0,0L375.2,627.3L375.2,627.3z"/>
	<path class="st14" d="M374.1,626.9v-25.5c-0.1-0.9-0.7-1.6-1.6-1.8h-18.8c-0.5,0.2-0.9,0.6-1,1.2v57c0.1,0.7,0.7,1.2,1.4,1.2h18.2
		c1.2-0.1,2.1-0.9,1.9-1.8v-26L374.1,626.9z"/>
	<path class="st15" d="M361.5,602.5c-2.1,0-4.2-0.3-6.2-0.7c1.7,6.2,2.3,21,2.3,27.5l0,0v1.5c0.2,5.6-0.4,21.4-1.7,26.9
		c1.9-0.4,3.7-0.6,5.6-0.7c4.3,0,7.9,0.9,9.1,2.3c1.2-0.1,2.1-0.9,1.9-1.8v-55.8c-0.1-0.9-0.7-1.6-1.6-1.8
		C370.6,601.2,366.5,602.5,361.5,602.5z"/>
	<path class="st16" d="M352.2,599.6c-0.5,0.2-0.9,0.6-1,1.2v57c0.1,0.7,0.7,1.2,1.4,1.2c0.3-0.4,0.8-0.7,1.4-0.9v-57
		C352.9,600.7,352.4,600.3,352.2,599.6z"/>
	<path class="st17" d="M359.5,630.5v-1.5c0.2-6.3-0.6-21.3-2.3-27.5c-0.6-0.2-1.2-0.4-1.7-0.7v57c0.7-0.3,1.4-0.6,2.1-0.7
		C359,652,359.7,636,359.5,630.5z"/>
	<path class="st16" d="M358,630.5v-1.5c0.2-6.3-0.6-21.3-2.3-27.5c-0.6-0.2-1.2-0.4-1.7-0.7v57c0.7-0.3,1.4-0.6,2.1-0.7
		C357.6,652,358,636,358,630.5z"/>
	<path class="st16" d="M361.5,656.7c-1.9-0.1-3.8,0.2-5.6,0.7c-1.3,0.2-2.5,0.8-3.5,1.6h18.2C369.4,657.7,365.9,656.7,361.5,656.7z"
		/>
	<path class="st16" d="M361.5,602.5c-1.9,0-3.8-0.3-5.6-0.7c-1.4-0.2-2.6-1-3.5-2.1h18.2C369.4,601.3,365.7,602.5,361.5,602.5z"/>
	<path class="st18" d="M643.6,1104.8c-1.4-1.4-1.5-3.7-0.1-5.2l4-4.1c2-2.2,5.4-2.5,7.7-0.6l3.2,2.5c2.3,1.9,2.8,5.2,1.2,7.7
		l-3.3,4.7l-0.2,0.2l0,0c-1.3,1.6-3.6,1.8-5.1,0.6c0,0,0,0,0,0l0,0l-6.9-5.6L643.6,1104.8z"/>
	<path class="st14" d="M643.2,1104L643.2,1104c-1.4-1.4-1.5-3.7-0.1-5.2l4-4.1c2-2.2,5.4-2.5,7.7-0.6l3.2,2.5
		c2.3,1.9,2.8,5.2,1.2,7.7l-3.3,4.7l-0.4,0.5c-1.3,1.3-3.5,1.4-4.9,0.1l-6.8-5.5L643.2,1104z"/>
	<path class="st19" d="M642.1,1103.3c-1.4-1.5-1.2-3.9,0.3-5.2c0,0,0,0,0,0h0l0,0l3.7-4c2-2.2,5.4-2.5,7.7-0.6l3.2,2.5
		c2.3,1.9,2.8,5.2,1.2,7.7l-3.3,4.7l-0.2,0.2l0,0c-1.3,1.6-3.6,1.8-5.1,0.6l0,0l-6.9-5.6L642.1,1103.3z"/>
	<path class="st20" d="M643.8,1103.6c-1.2-1-1.4-2.8-0.4-4c0.1-0.1,0.2-0.2,0.3-0.3l2.7-2.8c1.8-1.8,4.7-2,6.7-0.5l1.8,1.5
		c2,1.6,2.4,4.6,0.9,6.7l-2.3,3.4l-0.1,0.1l0,0c-1,1.2-2.8,1.4-4,0.4l0,0L643.8,1103.6L643.8,1103.6z"/>
	<path class="st18" d="M627.7,1107.9c-1.4,1.4-3.7,1.5-5.2,0.1l-4.1-4c-2.2-2-2.5-5.4-0.6-7.7l2.5-3.2c1.9-2.3,5.2-2.8,7.7-1.2
		l4.7,3.2l0.2,0.2l0,0c1.6,1.3,1.8,3.6,0.6,5.1c0,0,0,0,0,0l0,0l-5.6,6.9L627.7,1107.9z"/>
	<path class="st14" d="M627,1108.3L627,1108.3c-1.4,1.4-3.7,1.5-5.2,0.1l-4.1-4c-2.2-2-2.5-5.4-0.6-7.7l2.5-3.2
		c1.9-2.3,5.2-2.8,7.7-1.2l4.7,3.3l0.5,0.4c1.3,1.3,1.4,3.5,0.1,4.9l-5.5,6.8L627,1108.3z"/>
	<path class="st19" d="M626.2,1109.4c-1.5,1.4-3.9,1.2-5.2-0.3c0,0,0,0,0,0v0l0,0l-4-3.7c-2.2-2-2.5-5.4-0.6-7.7l2.5-3.2
		c1.9-2.3,5.2-2.8,7.7-1.2l4.7,3.3l0.2,0.2l0,0c1.6,1.3,1.8,3.6,0.6,5.1l0,0l-5.6,6.9L626.2,1109.4z"/>
	<path class="st20" d="M626.6,1107.8c-1,1.2-2.8,1.4-4,0.4c-0.1-0.1-0.2-0.2-0.3-0.3l-2.8-2.7c-1.8-1.8-2-4.7-0.5-6.7l1.5-1.8
		c1.6-2,4.6-2.4,6.7-0.9l3.4,2.3l0.1,0.1l0,0c1.2,1,1.4,2.8,0.4,4l0,0L626.6,1107.8L626.6,1107.8z"/>
	<path class="st18" d="M632,1125c1.4,1.4,1.5,3.7,0.1,5.2l-4,4.1c-2,2.2-5.4,2.5-7.7,0.6l-3.2-2.5c-2.3-1.9-2.8-5.2-1.2-7.7l3.3-4.7
		l0.2-0.2l0,0c1.3-1.6,3.6-1.8,5.1-0.6c0,0,0,0,0,0l0,0l6.9,5.6L632,1125z"/>
	<path class="st14" d="M632.5,1125.7L632.5,1125.7c1.4,1.4,1.5,3.7,0.1,5.2l-4,4.1c-2,2.2-5.4,2.5-7.7,0.6l-3.2-2.5
		c-2.3-1.9-2.8-5.2-1.2-7.7l3.3-4.7l0.4-0.5c1.3-1.3,3.5-1.4,4.9-0.1l6.8,5.5L632.5,1125.7z"/>
	<path class="st19" d="M633.6,1126.5c1.4,1.5,1.2,3.9-0.3,5.2c0,0,0,0,0,0h0l0,0l-3.7,4c-2,2.2-5.4,2.5-7.7,0.6l-3.2-2.5
		c-2.3-1.9-2.8-5.2-1.2-7.7l3.3-4.7l0.2-0.2l0,0c1.3-1.6,3.6-1.8,5.1-0.6c0,0,0,0,0,0l0,0l6.9,5.6L633.6,1126.5z"/>
	<path class="st20" d="M631.9,1126.1c1.2,1,1.4,2.8,0.4,4c0,0,0,0,0,0c-0.1,0.1-0.2,0.2-0.3,0.3l-2.7,2.8c-1.8,1.8-4.7,2-6.7,0.5
		l-1.8-1.5c-2-1.6-2.4-4.6-0.9-6.7l2.3-3.4l0.1-0.1l0,0c1-1.2,2.8-1.4,4-0.4l0,0L631.9,1126.1L631.9,1126.1z"/>
	<path class="st18" d="M648,1121.9c1.4-1.4,3.7-1.5,5.2-0.1l4.1,4c2.2,2,2.5,5.4,0.6,7.7l-2.5,3.2c-1.9,2.3-5.2,2.8-7.7,1.2
		l-4.7-3.3l-0.2-0.2l0,0c-1.6-1.3-1.8-3.6-0.6-5.1l0,0l5.6-6.9L648,1121.9z"/>
	<path class="st14" d="M648.7,1121.4L648.7,1121.4c1.4-1.4,3.7-1.5,5.2-0.1l4.1,4c2.2,2,2.5,5.4,0.6,7.7l-2.5,3.2
		c-1.9,2.3-5.2,2.8-7.7,1.2l-4.7-3.3l-0.5-0.4c-1.3-1.3-1.4-3.5-0.1-4.9l5.5-6.8L648.7,1121.4z"/>
	<path class="st19" d="M649.5,1120.4c1.5-1.4,3.9-1.2,5.2,0.3c0,0,0,0,0,0v0l0,0l4,3.7c2.2,2,2.5,5.4,0.6,7.7l-2.5,3.2
		c-1.9,2.3-5.2,2.8-7.7,1.2l-4.7-3.3l-0.2-0.2l0,0c-1.6-1.3-1.8-3.6-0.6-5.1c0,0,0,0,0,0l0,0l5.6-6.9L649.5,1120.4z"/>
	<path class="st20" d="M649.1,1122c1-1.2,2.8-1.4,4-0.4c0.1,0.1,0.2,0.2,0.3,0.3l2.8,2.7c1.8,1.8,2,4.7,0.5,6.7l-1.5,1.8
		c-1.6,2-4.6,2.4-6.7,0.9l-3.4-2.3l-0.1-0.1l0,0c-1.2-1-1.4-2.8-0.4-4l0,0L649.1,1122L649.1,1122z"/>
	<circle class="st21" cx="639.8" cy="1115.9" r="15.7"/>
	<circle class="st9" cx="638.6" cy="1115.1" r="15.7"/>
	<circle class="st10" cx="637.1" cy="1114.4" r="15.7"/>
	<path class="st21" d="M353.9,680.8v-17.3c0-0.3,0.5-0.4,1.2-0.4h14.6c0.6,0,1.2,0.2,1.2,0.4v17.3c0,0.3-0.5,0.4-1.2,0.4h-14.6
		C354.4,681.2,353.9,681,353.9,680.8z"/>
	<path class="st9" d="M352.9,680.8v-17.3c0-0.3,0.5-0.4,1.2-0.4h14.6c0.6,0,1.2,0.2,1.2,0.4v17.3c0,0.3-0.5,0.4-1.2,0.4h-14.6
		C353.5,681.2,352.9,681,352.9,680.8z"/>
	<path class="st22" d="M351.9,680.8v-17.3c0-0.3,0.5-0.4,1.2-0.4h14.6c0.6,0,1.2,0.2,1.2,0.4v17.3c0,0.3-0.5,0.4-1.2,0.4h-14.5
		C352.5,681.2,351.9,681,351.9,680.8z"/>
	<path class="st21" d="M354.9,593.8v-17.3c0-0.3,0.5-0.4,1.2-0.4h14.6c0.6,0,1.2,0.2,1.2,0.4v17.3c0,0.3-0.5,0.4-1.2,0.4h-14.6
		C355.4,594.3,354.9,594.1,354.9,593.8z"/>
	<path class="st9" d="M353.8,593.8v-17.3c0-0.3,0.5-0.4,1.2-0.4h14.6c0.6,0,1.2,0.2,1.2,0.4v17.3c0,0.3-0.5,0.4-1.2,0.4h-14.6
		C354.5,594.3,353.8,594.1,353.8,593.8z"/>
	<path class="st22" d="M352.9,593.8v-17.3c0-0.3,0.5-0.4,1.2-0.4h14.6c0.6,0,1.2,0.2,1.2,0.4v17.3c0,0.3-0.5,0.4-1.2,0.4h-14.5
		C353.5,594.3,352.9,594.1,352.9,593.8z"/>
</g>
<g id="booking">
	<rect id="area-04.410-status" x="324.6" y="897" class="st23" width="184" height="156.8"/>
	<polygon id="area-04.409-status" class="st23" points="241.3,863.6 324.6,863.6 324.6,1053.2 329.9,1053.2 329.9,1157.7 
		161.8,1157.7 161.8,895 242,895 	"/>
	<rect id="area-04.402-status" x="514.9" y="85.5" class="st23" width="148.4" height="194.9"/>
	<rect id="area-04.404-status" x="311.1" y="85.5" class="st23" width="103.2" height="194.9"/>
	<rect id="area-04.403-status" x="415" y="85.5" class="st23" width="100.4" height="195.1"/>
	<rect id="area-04.405-status" x="161.8" y="85.4" class="st23" width="150.3" height="195.2"/>
	<polygon id="area-04.401-status" class="st23" points="577.8,346.7 577.8,409.6 557.7,409.6 557.7,430.9 591.9,430.9 591.9,537.2 
		459.5,537.2 459.5,468.2 451.8,436.1 436.8,405.9 440.2,374.1 461.5,348.8 490.9,338.7 522.4,347.1 	"/>
	<rect x="298.7" y="171.8" class="st24" width="118.1" height="28.5"/>
	<text transform="matrix(1 0 0 1 337.0859 177.5559)"><tspan x="0" y="0" class="st10 st25 st26">Eleftherios </tspan><tspan x="-7.1" y="9.6" class="st10 st25 st26">Charalambous </tspan><tspan x="1.6" y="19.2" class="st10 st25 st26">Room 404</tspan></text>
	<rect x="172.9" y="178.6" class="st24" width="118.1" height="26.1"/>
	<text transform="matrix(1 0 0 1 217.9439 184.3298)"><tspan x="0" y="0" class="st10 st25 st26">Partner </tspan><tspan x="-5.1" y="9.6" class="st10 st25 st26">Room 405</tspan></text>
	<rect x="531.5" y="176" class="st24" width="118.1" height="41.6"/>
	<text transform="matrix(1 0 0 1 550.9813 181.7098)"><tspan x="0" y="0" class="st10 st25 st26">Yannis Harizopoulos </tspan><tspan x="20.4" y="9.6" class="st10 st25 st26">Room 402</tspan></text>
	<rect x="456.3" y="425.3" class="st24" width="118.1" height="43"/>
	<text transform="matrix(1 0 0 1 500.2885 431.0611)"><tspan x="0" y="0" class="st10 st25 st26">Meeting </tspan><tspan x="-4" y="9.6" class="st10 st25 st26">Room 401</tspan></text>
	<rect x="361.9" y="973.9" class="st24" width="118.1" height="24.2"/>
	<text transform="matrix(1 0 0 1 410.5006 979.6281)"><tspan x="0" y="0" class="st10 st25 st26">Team </tspan><tspan x="-8.7" y="9.6" class="st10 st25 st26">Room 410</tspan></text>
	<rect x="408.2" y="177.7" class="st24" width="118.1" height="27"/>
	<text transform="matrix(1 0 0 1 440.3757 183.3893)"><tspan x="0" y="0" class="st10 st25 st26">Yannis Pyrros </tspan><tspan x="7.8" y="9.6" class="st10 st25 st26">Room 403</tspan></text>
</g>
<g id="outline">
	<polygon class="st27" points="197.8,35.6 622.2,35.6 622.2,82.8 663.3,82.8 663.3,876.2 683.6,876.2 683.6,1157.7 503.9,1157.7 
		503.9,1053.8 330.2,1053.8 330.2,1157.7 161.8,1157.7 161.8,85.5 197.2,85.5 	"/>
	<polyline class="st28" points="197.2,85.5 635.7,85.5 514.9,85.5 514.9,280.4 509.6,280.4 518.5,280.4 	"/>
	<polyline class="st28" points="483.8,280.4 344.6,280.4 414.2,280.4 414.2,85.5 311.1,85.5 311.1,280.4 320.3,280.4 307.2,280.4 	
		"/>
	<polyline class="st28" points="279.6,280.4 161.8,280.4 268.4,280.4 268.4,315.9 	"/>
	<polyline class="st28" points="161.8,347.2 268.4,347.2 268.4,339.7 	"/>
	<polyline class="st28" points="250.6,347.2 250.6,403.9 268.4,403.9 268.4,429.3 242.9,429.3 242.9,530.3 283.6,530.3 275.9,530.3 
		275.9,567.3 	"/>
	<polyline class="st28" points="242.9,530.3 242.9,552.5 218.4,576.6 218.4,705 283.6,705 275.1,705 275.1,586.7 	"/>
	<polyline class="st28" points="244.9,705 244.9,727.2 312.5,727.2 312.5,705 305.3,705 347.2,705 347.2,769.4 347.2,530.3 
		308.5,530.3 308.5,547.6 	"/>
	<polyline class="st28" points="347.2,727.2 241.3,727.2 241.3,895 161.8,895 	"/>
	<polyline class="st28" points="241.3,863.6 347.2,863.6 347.2,823.4 	"/>
	<polyline class="st28" points="241.3,795.6 347.2,795.6 347.2,790 347.2,799.6 	"/>
	<polyline class="st28" points="330.2,1053.8 324.6,1053.8 324.6,897 399.5,897 	"/>
	<polyline class="st28" points="430.9,897 508.6,897 508.6,890.6 508.6,1053.8 498.1,1053.8 	"/>
	<line class="st28" x1="508.6" y1="1048" x2="618.1" y2="1048"/>
	<line class="st28" x1="649.1" y1="1048" x2="683.6" y2="1048"/>
	<polyline class="st28" points="663.3,876.2 590.3,876.2 590.3,721.5 663.3,721.5 479.6,721.5 479.6,660.3 459.5,660.3 459.5,656.7 
			"/>
	<line class="st28" x1="590.3" y1="862.8" x2="568.2" y2="862.8"/>
	<polyline class="st28" points="546.8,862.8 508.6,862.8 508.6,721.5 508.6,869.3 	"/>
	<polyline class="st28" points="459.5,599.6 459.5,595.3 486.1,595.3 486.1,537.2 459.5,537.2 459.5,530.3 	"/>
	<polyline class="st28" points="486.1,537.2 665.2,537.2 599.6,537.2 591.9,537.2 591.9,430.9 558.9,430.9 558.9,409.5 577.8,409.5 
		577.8,346.7 602.8,346.7 521.5,346.7 490.9,338.7 461.5,348.8 440.2,374.1 436.5,406.3 451.8,436.1 459.5,467.5 459.5,502.1 	"/>
	<polyline class="st28" points="641,345.1 663.3,345.1 663.3,280.4 547.2,280.4 547.2,274.3 	"/>
	<polyline class="st28" points="550.9,597.6 550.9,585.8 614.4,585.8 614.4,672.4 550.9,672.4 550.9,659.8 	"/>
	<line class="st28" x1="550.9" y1="620.7" x2="550.9" y2="637.5"/>
</g>
<g id="icons_and_labels">
	<circle class="st29" cx="628.7" cy="448.5" r="20.9"/>
	<path class="st30" d="M618,479.5h1c0,0.4,0.2,0.6,0.2,0.8c0.2,0.2,0.5,0.4,0.8,0.6c0.4,0.2,0.8,0.2,1.1,0.2c0.3,0,0.7,0,1-0.2
		c0.2-0.2,0.4-0.2,0.6-0.4c0.3-0.3,0.3-0.8,0-1.1c-0.2-0.2-0.4-0.4-0.6-0.4c-0.4-0.1-0.8-0.2-1.1-0.4c-0.4-0.2-0.9-0.3-1.3-0.4
		c-0.3-0.1-0.5-0.3-0.8-0.6c-0.2-0.3-0.2-0.6-0.2-1c0-0.4,0.1-0.7,0.4-1c0.2-0.4,0.6-0.6,1-0.8c0.9-0.3,1.8-0.3,2.7,0
		c0.4,0.1,0.7,0.4,1,0.8c0.2,0.3,0.3,0.7,0.4,1.1h-1c0-0.4-0.2-0.8-0.6-1c-0.3-0.2-0.7-0.4-1.1-0.4c-0.4,0-0.8,0.1-1.2,0.4
		c-0.2,0.2-0.4,0.5-0.4,0.8c0,0.2,0,0.4,0.2,0.6c0.4,0.3,0.9,0.5,1.3,0.6c0.8,0.2,1.3,0.4,1.5,0.4c0.4,0.1,0.7,0.4,1,0.8
		c0.5,0.5,0.5,1.4,0,1.9c-0.3,0.3-0.6,0.6-1,0.8c-0.4,0.2-0.9,0.2-1.3,0.2c-0.5,0-1,0-1.5-0.2c-0.4-0.1-0.7-0.4-1-0.8
		C618.2,480.3,618,479.9,618,479.5z"/>
	<path class="st30" d="M626.4,480.9l0.2,0.8h-0.6c-0.4,0-0.6,0-0.8-0.2s-0.4-0.2-0.4-0.4c-0.1-0.3-0.1-0.6-0.2-1v-2.9h-0.6v-0.6h0.6
		v-1.1l0.8-0.6v1.7h0.8v0.6h-0.8v3.3c0,0.1,0.1,0.2,0.2,0.2h0h0.4C626.2,480.8,626.3,480.9,626.4,480.9z"/>
	<path class="st30" d="M630.7,481.1c-0.4,0.2-0.6,0.4-1,0.6c-0.3,0.2-0.6,0.2-1,0.2c-0.5,0-0.9-0.1-1.3-0.4c-0.4-0.2-0.4-0.6-0.4-1
		c0-0.3,0.1-0.5,0.2-0.8c0.2-0.2,0.2-0.4,0.4-0.6c0.2-0.1,0.4-0.2,0.6-0.2c0.3,0,0.5-0.1,0.8-0.2c0.5,0,1.1-0.1,1.5-0.4v-0.2
		c0-0.4,0-0.6-0.2-0.8c-0.3-0.2-0.6-0.4-1-0.4c-0.3,0-0.7,0-1,0.2c-0.2,0.2-0.4,0.5-0.4,0.8l-0.8-0.2c0-0.4,0.2-0.6,0.4-1
		c0.2-0.2,0.5-0.4,0.8-0.6c0.4-0.2,0.8-0.2,1.2-0.2c0.3,0,0.7,0,1,0.2c0.2,0.2,0.4,0.2,0.6,0.4c0.1,0.2,0.2,0.4,0.2,0.6v3.4
		c0,0.2,0.2,0.4,0.2,0.6h-1C630.7,481.5,630.7,481.3,630.7,481.1z M630.5,479.2c-0.4,0.2-0.9,0.3-1.3,0.4c-0.4,0-0.6,0.2-0.8,0.2
		s-0.2,0.2-0.4,0.2c0,0.2-0.2,0.2-0.2,0.4c0,0.2,0,0.4,0.2,0.6c0.2,0.2,0.4,0.2,0.8,0.2c0.3,0,0.7,0,1-0.2l0.6-0.6
		c0-0.2,0.2-0.4,0.2-0.8V479.2z"/>
	<path class="st30" d="M632.8,475.7v-1h0.8v1H632.8z M632.8,481.6v-5h0.8v5H632.8z"/>
	<path class="st30" d="M634.9,481.6v-5h0.8v0.8c0.1-0.3,0.3-0.5,0.6-0.8c0.2-0.1,0.4-0.2,0.6-0.2c0.3,0,0.7,0.1,1,0.2l-0.4,0.8
		c-0.3-0.3-0.8-0.3-1.2,0l-0.4,0.4c0,0.4-0.2,0.6-0.2,1v2.7h-0.8V481.6z"/>
	<path class="st30" d="M637.7,480.1l0.8-0.2c0,0.3,0.1,0.6,0.4,0.8c0.6,0.3,1.3,0.3,1.9,0c0.1-0.2,0.2-0.4,0.2-0.6
		c0-0.2,0-0.4-0.2-0.4s-0.4-0.2-1-0.4c-0.4-0.2-0.9-0.3-1.3-0.4c-0.2-0.2-0.4-0.2-0.6-0.4s-0.2-0.4-0.2-0.8c0-0.2,0-0.4,0.2-0.6
		c0.2-0.2,0.2-0.4,0.4-0.4c0.2-0.1,0.4-0.2,0.6-0.2c0.2,0,0.4-0.2,0.8-0.2c0.3,0,0.7,0,1,0.2c0.4,0.2,0.6,0.2,0.6,0.4
		c0.2,0.2,0.2,0.4,0.4,0.8l-0.8,0.2c0-0.2-0.2-0.4-0.4-0.6s-0.4-0.2-0.8-0.2s-0.6,0-0.8,0.2s-0.2,0.2-0.2,0.4s0,0.2,0.2,0.4
		c0.1,0.1,0.2,0.2,0.4,0.2c0.2,0.1,0.5,0.2,0.8,0.2c0.4,0.2,0.9,0.3,1.3,0.4c0.4,0,0.4,0.2,0.6,0.4s0.2,0.4,0.2,0.8
		c0,0.3,0,0.5-0.2,0.8c-0.2,0.2-0.5,0.4-0.8,0.6c-0.4,0.2-0.8,0.2-1.1,0.2c-0.5,0-1.1-0.1-1.5-0.4
		C638.1,481,637.8,480.6,637.7,480.1z"/>
	<line class="st31" x1="620.1" y1="455.6" x2="636" y2="455.6"/>
	<polyline class="st31" points="633.1,455.6 633.1,453.1 630.5,453.1 630.5,450.2 627.6,450.2 627.6,447.5 624.9,447.5 624.9,444.7 
		620.1,444.7 	"/>
	<line class="st31" x1="628.4" y1="439.9" x2="637.2" y2="448.5"/>
	<polyline class="st31" points="628.4,443.3 628.4,439.9 631.8,439.9 	"/>
	<polyline class="st31" points="637.2,445.2 637.2,448.5 633.7,448.5 	"/>
	<circle class="st29" cx="638.3" cy="624.1" r="20"/>
	<path class="st30" d="M628,653.8h0.9c0,0.4,0.2,0.6,0.2,0.7c0.2,0.2,0.5,0.4,0.7,0.5c0.3,0.2,0.7,0.2,1.1,0.2c0.3,0,0.6,0,0.9-0.2
		c0.2-0.2,0.4-0.2,0.6-0.4c0.2-0.3,0.2-0.8,0-1.1c-0.2-0.2-0.4-0.4-0.6-0.4c-0.4-0.1-0.7-0.2-1.1-0.4c-0.4-0.2-0.8-0.3-1.3-0.4
		c-0.3-0.1-0.5-0.3-0.7-0.6c-0.2-0.3-0.2-0.6-0.2-0.9c0-0.3,0.1-0.7,0.4-0.9c0.2-0.3,0.5-0.6,0.9-0.7c0.8-0.2,1.7-0.2,2.6,0
		c0.4,0.1,0.7,0.4,0.9,0.7c0.2,0.3,0.3,0.7,0.4,1.1h-0.9c0-0.4-0.2-0.7-0.6-0.9c-0.3-0.2-0.7-0.4-1.1-0.4c-0.4,0-0.8,0.1-1.1,0.4
		c-0.2,0.2-0.4,0.4-0.4,0.7c0,0.2,0,0.4,0.2,0.5c0.4,0.3,0.8,0.5,1.3,0.6c0.7,0.2,1.3,0.4,1.5,0.4c0.4,0.1,0.7,0.4,0.9,0.7
		c0.5,0.5,0.5,1.3,0,1.8c-0.3,0.3-0.6,0.5-0.9,0.7c-0.4,0.2-0.8,0.2-1.3,0.2c-0.5,0-1,0-1.5-0.2c-0.4-0.1-0.7-0.4-0.9-0.7
		C628.2,654.5,628,654.2,628,653.8z"/>
	<path class="st30" d="M636.1,655.1l0.2,0.7h-0.6c-0.4,0-0.5,0-0.7-0.2s-0.4-0.2-0.4-0.4c-0.1-0.3-0.1-0.6-0.2-0.9v-2.8h-0.5v-0.5
		h0.5V650l0.7-0.6v1.7h0.7v0.5h-0.7v3.1c0,0.1,0.1,0.2,0.2,0.2c0,0,0,0,0,0h0.4C635.8,655,636,655.1,636.1,655.1z"/>
	<path class="st30" d="M640.1,655.3c-0.4,0.2-0.5,0.4-0.9,0.6c-0.3,0.1-0.6,0.2-0.9,0.2c-0.5,0-0.9-0.1-1.3-0.4
		c-0.4-0.2-0.4-0.6-0.4-0.9c0-0.3,0.1-0.5,0.2-0.7c0.2-0.2,0.2-0.4,0.4-0.5c0.1-0.1,0.3-0.2,0.5-0.2c0.3,0,0.5-0.1,0.7-0.2
		c0.5,0,1-0.1,1.5-0.4v-0.2c0-0.4,0-0.5-0.2-0.7c-0.3-0.2-0.6-0.4-0.9-0.4c-0.3,0-0.6,0-0.9,0.2c-0.2,0.2-0.4,0.4-0.4,0.7l-0.7-0.2
		c0-0.4,0.2-0.6,0.4-0.9c0.2-0.2,0.5-0.4,0.7-0.5c0.3-0.1,0.7-0.2,1.1-0.2c0.3,0,0.6,0,0.9,0.2c0.2,0.2,0.4,0.2,0.5,0.4
		c0.1,0.1,0.2,0.3,0.2,0.5v3.3c0,0.2,0.2,0.4,0.2,0.5H640C640.1,655.6,640.1,655.5,640.1,655.3z M640,653.4
		c-0.4,0.1-0.8,0.3-1.3,0.4c-0.4,0-0.6,0.2-0.7,0.2s-0.2,0.2-0.4,0.2c0,0.2-0.2,0.2-0.2,0.4c0,0.2,0,0.4,0.2,0.5
		c0.2,0.2,0.4,0.2,0.7,0.2c0.3,0,0.6,0,0.9-0.2l0.6-0.5c0-0.2,0.2-0.4,0.2-0.7L640,653.4z"/>
	<path class="st30" d="M642.2,650.1v-0.9h0.7v0.9H642.2z M642.2,655.8v-4.8h0.7v4.8H642.2z"/>
	<path class="st30" d="M644.2,655.8v-4.8h0.7v0.7c0.1-0.3,0.3-0.5,0.5-0.7c0.1-0.1,0.3-0.2,0.6-0.2c0.3,0,0.6,0.1,0.9,0.2l-0.4,0.7
		c-0.3-0.2-0.8-0.2-1.1,0l-0.4,0.4c0,0.4-0.2,0.5-0.2,0.9v2.6h-0.7L644.2,655.8z"/>
	<path class="st30" d="M646.9,654.4l0.7-0.2c0,0.3,0.1,0.6,0.4,0.7c0.6,0.2,1.2,0.2,1.8,0c0.1-0.1,0.2-0.3,0.2-0.6
		c0-0.2,0-0.4-0.2-0.4s-0.4-0.2-0.9-0.4c-0.4-0.2-0.8-0.3-1.3-0.4c-0.2-0.2-0.4-0.2-0.5-0.4s-0.2-0.4-0.2-0.7c0-0.2,0-0.4,0.2-0.6
		c0.2-0.2,0.2-0.4,0.4-0.4c0.1-0.1,0.3-0.2,0.5-0.2c0.2,0,0.4-0.2,0.7-0.2c0.3,0,0.6,0,0.9,0.2c0.4,0.2,0.5,0.2,0.5,0.4
		c0.2,0.2,0.2,0.4,0.4,0.7l-0.7,0.2c0-0.2-0.2-0.4-0.4-0.6s-0.4-0.2-0.7-0.2s-0.5,0-0.7,0.2s-0.2,0.2-0.2,0.4s0,0.2,0.2,0.4
		c0.1,0.1,0.2,0.2,0.4,0.2c0.2,0.1,0.5,0.2,0.7,0.2c0.4,0.2,0.8,0.3,1.3,0.4c0.4,0,0.4,0.2,0.5,0.4s0.2,0.4,0.2,0.7
		c0,0.3,0,0.5-0.2,0.7c-0.2,0.2-0.5,0.4-0.7,0.6c-0.3,0.2-0.7,0.2-1.1,0.2c-0.5,0-1-0.1-1.5-0.4C647.3,655.2,647,654.8,646.9,654.4z
		"/>
	<line class="st31" x1="630.1" y1="630.9" x2="645.3" y2="630.9"/>
	<polyline class="st31" points="642.5,630.9 642.5,628.5 640,628.5 640,625.7 637.2,625.7 637.2,623.2 634.6,623.2 634.6,620.4 
		630.1,620.4 	"/>
	<line class="st31" x1="637.9" y1="615.8" x2="646.4" y2="624.1"/>
	<polyline class="st31" points="637.9,619.1 637.9,615.8 641.2,615.8 	"/>
	<polyline class="st31" points="646.4,621 646.4,624.1 643.1,624.1 	"/>
	<circle class="st29" cx="585" cy="623.6" r="21.1"/>
	<path class="st30" d="M566.1,656.5v-7.1h5.1v0.8h-4.1v2.2h3.9v0.8h-3.9v2.4h4.3v0.8h-5.3L566.1,656.5z"/>
	<path class="st30" d="M572.6,656.5v-7.1h0.8v7.1H572.6z"/>
	<path class="st30" d="M578.3,654.9l1,0.2c-0.1,0.5-0.4,0.9-0.8,1.2c-0.5,0.3-1,0.4-1.6,0.4c-0.7,0.1-1.4-0.2-1.8-0.8
		c-0.4-0.6-0.6-1.3-0.6-2c0-0.7,0.2-1.4,0.6-2c0.5-0.5,1.1-0.8,1.8-0.8c0.7,0,1.3,0.3,1.8,0.8c0.4,0.6,0.6,1.3,0.6,2v0.2h-3.9
		c0,0.5,0.1,1,0.4,1.4c0.2,0.4,0.6,0.4,1,0.4s0.6,0,0.8-0.2C577.9,655.6,578.2,655.3,578.3,654.9z M575.4,653.5h3
		c0-0.4-0.1-0.7-0.4-1c-0.2-0.4-0.7-0.6-1.2-0.6c-0.4,0-0.7,0.1-1,0.4C575.5,652.7,575.4,653.1,575.4,653.5z"/>
	<path class="st30" d="M581.7,656.5l-2-5.1h1l1.2,3.2c0.2,0.4,0.2,0.6,0.4,1c0.1-0.3,0.2-0.7,0.4-1l1.2-3.2h1l-2,5.1H581.7z"/>
	<path class="st30" d="M588.6,655.9c-0.4,0.2-0.6,0.4-1,0.6c-0.3,0.2-0.6,0.2-1,0.2c-0.5,0-1-0.1-1.4-0.4c-0.4-0.2-0.4-0.6-0.4-1
		c0-0.3,0.1-0.5,0.2-0.8c0.2-0.2,0.2-0.4,0.4-0.6c0.2-0.2,0.4-0.2,0.6-0.2c0.3,0,0.5-0.1,0.8-0.2c0.6,0,1.1-0.1,1.6-0.4v-0.2
		c0-0.4,0-0.6-0.2-0.8c-0.3-0.2-0.6-0.4-1-0.4c-0.3,0-0.7,0-1,0.2c-0.2,0.2-0.4,0.5-0.4,0.8l-0.8-0.2c0-0.4,0.2-0.6,0.4-1
		c0.2-0.2,0.5-0.4,0.8-0.6c0.4-0.2,0.8-0.2,1.2-0.2c0.3,0,0.7,0,1,0.2c0.2,0.2,0.4,0.2,0.6,0.4c0.2,0.2,0.2,0.4,0.2,0.6v3.5
		c0,0.2,0.2,0.4,0.2,0.6h-1C588.8,656.5,588.8,656.1,588.6,655.9z M588.6,653.9c-0.5,0.2-0.9,0.3-1.4,0.4c-0.4,0-0.6,0.2-0.8,0.2
		s-0.2,0.2-0.4,0.2s-0.2,0.2-0.2,0.4c0,0.2,0,0.4,0.2,0.6c0.2,0.2,0.4,0.2,0.8,0.2c0.3,0,0.7,0,1-0.2l0.6-0.6c0-0.2,0.2-0.4,0.2-0.8
		L588.6,653.9L588.6,653.9z"/>
	<path class="st30" d="M592.7,655.7l0.2,0.8h-0.6c-0.4,0-0.6,0-0.8-0.2s-0.4-0.2-0.4-0.4c-0.1-0.3-0.2-0.7-0.2-1v-3h-0.6v-0.6h0.6
		v-1.2l0.8-0.6v1.8h0.8v0.6h-0.8v3.4c0,0.1,0.1,0.2,0.2,0.2c0,0,0,0,0,0h0.4C592.5,655.9,592.5,655.9,592.7,655.7z"/>
	<path class="st30" d="M593.3,653.9c-0.1-0.8,0.2-1.6,0.8-2.2c0.4-0.4,1-0.6,1.6-0.6c0.7-0.1,1.4,0.2,1.8,0.8c0.4,0.6,0.6,1.3,0.6,2
		c0,0.5-0.2,1.1-0.4,1.6c-0.2,0.4-0.5,0.7-0.8,1c-0.4,0.2-0.8,0.4-1.2,0.4c-0.7,0.1-1.4-0.2-1.8-0.8
		C593.5,655.5,593.3,654.7,593.3,653.9z M594.1,653.9c0,0.5,0.1,1.1,0.4,1.6c0.2,0.4,0.7,0.7,1.2,0.6c0.5,0,0.9-0.2,1.2-0.6
		c0.4-0.4,0.4-0.8,0.4-1.6c0-0.5-0.1-1-0.4-1.4c-0.2-0.4-0.6-0.4-1-0.4c-0.4,0-0.8,0.2-1.2,0.4C594.3,652.9,594,653.4,594.1,653.9
		L594.1,653.9z"/>
	<path class="st30" d="M599,656.5v-5.1h0.8v0.8c0.1-0.3,0.3-0.6,0.6-0.8c0.2-0.2,0.4-0.2,0.6-0.2c0.3,0,0.7,0.1,1,0.2l-0.4,0.8
		c-0.4-0.3-0.8-0.3-1.2,0l-0.4,0.4c0,0.4-0.2,0.6-0.2,1v2.8H599L599,656.5z"/>
	<path class="st32" d="M579.3,631.9v-12.6h4.3v13L579.3,631.9z M583.9,631.9v-12.6h4.3v13L583.9,631.9z M593.3,631.9h-4.9v-13
		c0-0.1-0.1-0.2-0.2-0.2c0,0,0,0,0,0h-9.1c-0.1,0-0.2,0.1-0.2,0.2c0,0,0,0,0,0v0l0,0v13h-2.2v-16.8h16.8L593.3,631.9z M593.7,614.9
		h-17c-0.1,0-0.2,0.1-0.2,0.2c0,0,0,0,0,0v0l0,0v17c0,0.1,0.1,0.2,0.2,0.2c0,0,0,0,0,0h17c0.1,0,0.2-0.1,0.2-0.2v0l0,0L593.7,614.9z
		"/>
	<path class="st32" d="M582.5,617.1h3v-0.2L582.5,617.1C582.5,616.9,582.1,616.9,582.5,617.1z"/>
	<path class="st32" d="M590.6,623.2l0.4-0.4l0.4,0.4h0.2V623l-0.6-0.6h-0.2l-0.8,0.8v0.2h0.6V623.2z"/>
	<path class="st32" d="M590.8,625.2L590.8,625.2l0.8-0.8c0,0,0.2-0.2,0-0.2h-0.2l-0.4,0.4l-0.4-0.4h-0.2v0.2l0,0L590.8,625.2z"/>
	<g id="male">
		<circle class="st29" cx="294.2" cy="822.4" r="22.2"/>
		<circle class="st33" cx="294.2" cy="814.5" r="3.5"/>
		<path class="st33" d="M299.7,819.9h-10.9c-0.3,2.9,1,5.8,3.5,7.4v6.5h3.9v-6.5C298.6,825.6,300,822.8,299.7,819.9z"/>
		<text transform="matrix(1 0 0 1 274.787 855.144)" class="st30 st34 st35">WC Men</text>
	</g>
	<circle class="st29" cx="294.2" cy="756" r="22.4"/>
	<circle class="st33" cx="294.2" cy="748.2" r="3.4"/>
	<path class="st33" d="M294.2,753.1c-3,0-5.4,4.5-5.4,9.3h3.4v4.8h3.9v-4.8h3.4C299.6,757.5,297.1,753.1,294.2,753.1z"/>
	<text transform="matrix(1 0 0 1 267.328 789.6431)" class="st30 st34 st35">WC </text>
	<text transform="matrix(1 0 0 1 286.766 789.6431)" class="st30 st34 st35">W</text>
	<text transform="matrix(1 0 0 1 296.024 789.6431)" class="st30 st34 st35">omen</text>
	<text transform="matrix(1 0 0 1 542.485 802.61)" class="st30 st34 st35">Filing</text>
	<text transform="matrix(1 0 0 1 606.889 982.9311)" class="st30 st34 st35">Accounting</text>
	<text transform="matrix(1 0 0 1 586.864 1074.3199)" class="st30 st34 st35">Accounting</text>
	<text transform="matrix(1 0 0 1 228.822 620.829)" class="st30 st34 st35">I</text>
	<text transform="matrix(1 0 0 1 231.6 620.829)" class="st30 st34 st35">T</text>
	<text transform="matrix(1 0 0 1 237.528 620.829)" class="st30 st34 st35"> Room</text>
	<text transform="matrix(1 0 0 1 227.618 632.829)" class="st30 st34 st35">Electrical</text>
	<text transform="matrix(1 0 0 1 599.676 318.333)" class="st30 st34 st35">Fire Exit</text>
	<text transform="matrix(1 0 0 1 197.592 320.9521)" class="st30 st34 st35">Storage</text>
	<g id="Outline_Icons-6">
		<g>
			<path class="st36" d="M297.2,655.9v-7.5h2.8c0.4,0,0.7,0,1.1,0.1c0.3,0.1,0.6,0.2,0.9,0.4c0.2,0.2,0.4,0.4,0.6,0.7
				c0.2,0.3,0.2,0.7,0.2,1c0,0.6-0.2,1.2-0.6,1.6c-0.6,0.5-1.4,0.8-2.2,0.7h-1.9v3.1L297.2,655.9L297.2,655.9z M298.2,652h1.9
				c0.5,0.1,1-0.1,1.4-0.4c0.3-0.2,0.4-0.6,0.4-1c0-0.3-0.1-0.6-0.2-0.8c-0.1-0.2-0.3-0.4-0.6-0.4c-0.2,0-0.5-0.1-0.9-0.1h-1.9
				L298.2,652L298.2,652z"/>
			<path class="st36" d="M307.6,655.2c-0.3,0.3-0.6,0.5-1,0.6c-0.3,0.1-0.7,0.2-1,0.2c-0.5,0.1-1-0.1-1.4-0.4
				c-0.3-0.3-0.5-0.7-0.5-1.1c0-0.2,0.1-0.5,0.2-0.7c0.1-0.2,0.3-0.4,0.5-0.5c0.2-0.1,0.5-0.2,0.7-0.3c0.2,0,0.5-0.1,0.8-0.1
				c0.5-0.1,1.1-0.2,1.6-0.3v-0.2c0-0.3-0.1-0.6-0.3-0.8c-0.3-0.2-0.6-0.3-1-0.3c-0.3,0-0.7,0.1-1,0.2c-0.2,0.2-0.4,0.5-0.5,0.8
				l-0.9-0.1c0.1-0.3,0.2-0.6,0.4-0.9c0.2-0.2,0.5-0.4,0.8-0.5c0.4-0.1,0.8-0.2,1.2-0.2c0.4,0,0.7,0.1,1.1,0.2
				c0.2,0,0.5,0.2,0.6,0.4l0.3,0.6v2c0,0.5,0,1.1,0.1,1.6c0,0.2,0.1,0.5,0.2,0.7h-1C307.7,655.8,307.7,655.5,307.6,655.2z
				 M307.5,653.2c-0.5,0.2-1,0.3-1.5,0.3c-0.3,0-0.5,0.1-0.8,0.2c-0.2,0.1-0.3,0.2-0.4,0.3c-0.1,0.1-0.1,0.3-0.1,0.4
				c0,0.2,0.1,0.5,0.3,0.6c0.2,0.1,0.5,0.2,0.8,0.2c0.3,0,0.6-0.1,0.9-0.2c0.2-0.1,0.5-0.4,0.6-0.6c0.1-0.3,0.1-0.6,0.1-0.9v-0.3
				H307.5z"/>
			<path class="st36" d="M309.9,655.9v-5.4h0.8v0.8c0.4-0.6,1-0.9,1.7-0.9c0.3,0,0.6,0.1,0.9,0.2c0.3,0.1,0.5,0.3,0.6,0.5
				c0.1,0.2,0.2,0.5,0.3,0.7c0,0.2,0.1,0.5,0.1,0.9v3.3h-0.9v-3.3c0-0.4,0-0.7-0.1-0.8c-0.1-0.2-0.2-0.3-0.4-0.4
				c-0.2-0.1-0.4-0.2-0.6-0.2c-0.4,0-0.7,0.1-1,0.4c-0.3,0.2-0.4,0.7-0.4,1.4v3h-1V655.9z"/>
			<path class="st36" d="M317.7,655.1l0.1,0.8c-0.2,0.1-0.5,0.1-0.7,0.1c-0.3,0-0.6-0.1-0.8-0.2c-0.2-0.1-0.3-0.2-0.4-0.4
				c-0.1-0.4-0.1-0.7-0.1-1.1v-3.1h-0.7v-0.7h0.7v-1.3l0.9-0.6v1.9h0.9v0.7h-0.9v3.7c0,0.1,0.1,0.1,0.2,0.2c0.1,0,0.2,0.1,0.3,0.1
				C317.4,655.1,317.6,655.1,317.7,655.1z"/>
			<path class="st36" d="M318.6,655.9v-5.4h0.8v0.8c0.1-0.3,0.4-0.6,0.6-0.8c0.2-0.2,0.4-0.2,0.6-0.2c0.3,0,0.6,0.1,0.9,0.3
				l-0.3,0.9c-0.2-0.1-0.5-0.2-0.7-0.2c-0.2,0-0.4,0.1-0.5,0.2c-0.2,0.1-0.3,0.3-0.3,0.5c-0.1,0.4-0.2,0.7-0.2,1.1v2.8L318.6,655.9z
				"/>
			<path class="st36" d="M322.1,658l-0.1-0.9c0.2,0.1,0.3,0.1,0.5,0.1c0.2,0,0.4,0,0.5-0.1l0.3-0.3c0.2-0.2,0.3-0.4,0.3-0.7
				c0-0.1,0-0.1,0.1-0.2l-2.1-5.4h1l1.1,3.1c0.1,0.4,0.3,0.8,0.4,1.3c0.1-0.4,0.2-0.8,0.4-1.2l1.2-3.2h0.9l-2.1,5.5
				c-0.1,0.4-0.3,0.8-0.5,1.2c-0.2,0.3-0.4,0.5-0.6,0.7c-0.2,0.1-0.5,0.2-0.8,0.2C322.5,658.1,322.3,658.1,322.1,658z"/>
		</g>
		<circle class="st37" cx="311.5" cy="623.1" r="22.8"/>
		<g id="Outline_Icons-2-2">
			<path class="st38" d="M319.3,618.6c-1.5,0-2.8-1-3.3-2.4c-0.6,0.4-1.3,0.6-2,0.6c-1.9,0-3.5-1.6-3.5-3.5V613
				c-5.5,0.9-9.2,6.2-8.3,11.7c0.9,5.5,6.2,9.2,11.7,8.3c5.5-0.9,9.2-6.2,8.3-11.7c-0.2-1.1-0.6-2.2-1.1-3.2
				C320.6,618.4,320,618.6,319.3,618.6z"/>
			<circle class="st38" cx="308.7" cy="620.4" r="1.8"/>
			<circle class="st38" cx="314.9" cy="624.8" r="0.9"/>
			<circle class="st38" cx="309.6" cy="627.5" r="1.8"/>
			<circle class="st38" cx="315.7" cy="621.3" r="0.4"/>
			<circle class="st38" cx="305.2" cy="623.9" r="0.4"/>
			<circle class="st38" cx="314.9" cy="629.2" r="0.4"/>
		</g>
	</g>
</g>
<rect x="189.8" y="1010.7" class="st24" width="118.1" height="24.2"/>
<text transform="matrix(1 0 0 1 240.625 1016.3781)"><tspan x="0" y="0" class="st10 st25 st26">CSP </tspan><tspan x="-10.9" y="9.6" class="st10 st25 st26">Room 409</tspan></text>
</svg>
