<svg xmlns="http://www.w3.org/2000/svg" viewBox="0 0 1528.524 956.867"><defs><style>.cls-1{fill:#4196b1;}.cls-2{fill:#aae0e4;}.cls-3{fill:#8eccce;}.cls-4{fill:#99b8bf;}.cls-5{fill:#030303;opacity:0.05;}.cls-13,.cls-17,.cls-18,.cls-21,.cls-30,.cls-5,.cls-8{isolation:isolate;}.cls-6{fill:#b8bfc1;}.cls-7{fill:#f4f4f4;}.cls-8{fill:#010101;}.cls-13,.cls-8{opacity:0.15;}.cls-9{fill:#596068;}.cls-10{fill:#9baeb7;}.cls-11,.cls-24,.cls-25,.cls-28,.cls-29{fill:none;}.cls-11,.cls-28,.cls-29{stroke:#7a8e93;}.cls-11,.cls-15,.cls-16,.cls-19,.cls-20,.cls-29{stroke-linecap:round;}.cls-11,.cls-24,.cls-25,.cls-28{stroke-miterlimit:10;}.cls-11,.cls-25{stroke-width:4px;}.cls-12,.cls-22{fill:#fff;}.cls-13,.cls-14{fill:#0d5577;}.cls-15{fill:#83d8ef;}.cls-15,.cls-20{stroke:#53c5f1;}.cls-15,.cls-16,.cls-19,.cls-20,.cls-29{stroke-linejoin:round;}.cls-15,.cls-16{stroke-width:0.799px;}.cls-16{fill:#4e9fb9;stroke:#4a90a0;}.cls-17{fill:#53c5f1;opacity:0.43;}.cls-18{fill:#101010;opacity:0.08;}.cls-19{fill:#4fafc6;stroke:#5798a3;stroke-width:0.931px;}.cls-20{fill:#7dcfe2;stroke-width:1.164px;}.cls-21{fill:#575757;opacity:0.74;}.cls-22{font-size:14px;font-family:Arial-BoldMT, Arial;font-weight:700;}.cls-23{letter-spacing:-0.037em;}.cls-24,.cls-25{stroke:#fff;}.cls-24{stroke-width:8px;}.cls-26{fill:#646b6d;}.cls-27{fill:#ebf2f2;}.cls-28{stroke-width:0.742px;}.cls-29{stroke-width:0.74px;}.cls-31{fill:#767e80;}</style></defs><g id="shadow"><polygon class="cls-1" points="275.481 208.488 190.416 208.488 104.501 812.552 420.941 812.552 420.941 908.901 1476.595 908.901 1476.595 42.6 1344.745 42.6 1344.745 138.111 1247.771 138.111 1247.771 175.813 1265.635 175.813 1265.635 216.028 1247.771 216.028 1247.771 274.675 1168.661 274.675 1168.661 63.546 1143.141 63.546 1143.141 86.167 764.603 86.167 739.084 86.167 739.084 97.058 597.876 97.058 597.876 376.888 403.928 376.888 403.928 286.404 463.474 286.404 463.474 118.841 405.63 118.841 405.63 234.46 275.124 234.46 275.481 208.488"/></g><g id="background"><polygon class="cls-2" points="276.901 194.812 193.12 194.812 108.501 798.876 420.168 798.876 420.168 895.225 1459.896 895.225 1459.896 28.924 1330.034 28.924 1330.034 124.435 1234.523 124.435 1234.523 162.137 1252.118 162.137 1252.118 202.352 1234.523 202.352 1234.523 260.999 1156.607 260.999 1156.607 49.87 1131.472 49.87 1131.472 72.491 758.645 72.491 733.51 72.491 733.51 83.382 594.433 83.382 594.433 363.212 403.411 363.212 403.411 272.728 462.058 272.728 462.058 105.165 405.087 105.165 405.087 220.784 276.55 220.784 276.901 194.812"/></g><g id="spaces"><rect class="cls-3" x="418.122" y="794.188" width="1041.774" height="101.037"/><rect class="cls-3" x="862.7" y="480.75" width="181.947" height="319.016"/><rect class="cls-3" x="1146.578" y="647.407" width="313.318" height="146.78"/><rect class="cls-3" x="687.379" y="435.391" width="175.321" height="364.375"/><rect class="cls-3" x="520.239" y="434.372" width="182.43" height="198.765"/><rect class="cls-4" x="405.087" y="105.165" width="56.971" height="167.563"/><rect class="cls-3" x="328.506" y="218.738" width="74.905" height="143.706"/><polygon class="cls-3" points="196.162 194.812 276.901 194.812 276.901 333.928 173.632 333.928 196.162 194.812"/><rect class="cls-3" x="1367.947" y="242.208" width="91.949" height="115.912"/><polygon class="cls-4" points="1131.472 49.87 1156.607 49.87 1156.607 342.152 735.586 342.152 735.586 74.298 1130.064 74.298 1131.472 49.87"/><polygon class="cls-4" points="1331.557 28.924 1459.896 28.924 1459.896 242.208 1234.523 242.208 1234.523 204.149 1252.751 204.149 1252.751 162.137 1234.523 162.137 1234.523 125.791 1329.766 125.791 1331.557 28.924"/><rect class="cls-4" x="1159.033" y="260.999" width="78.942" height="97.18"/><rect class="cls-4" x="1239.073" y="242.208" width="128.874" height="115.912"/></g><g id="furnaiture"><path class="cls-5" d="M1142.276,485.34h-27.718a2.111,2.111,0,0,1-2.105-1.776V413.412a2.11,2.11,0,0,1,2.105-1.775h27.718a2.112,2.112,0,0,1,2.106,1.775v70.152A2.128,2.128,0,0,1,1142.276,485.34Z"/><path class="cls-6" d="M1144.021,485.34h-27.715a2.111,2.111,0,0,1-2.105-1.776V413.412a2.11,2.11,0,0,1,2.105-1.775h27.709a2.111,2.111,0,0,1,2.1,1.775v70.152A2.1,2.1,0,0,1,1144.021,485.34Z"/><path class="cls-7" d="M1145.776,485.34h-27.711a2.113,2.113,0,0,1-2.105-1.776V413.412a2.112,2.112,0,0,1,2.105-1.775h27.711a2.11,2.11,0,0,1,2.105,1.775v70.152A2.114,2.114,0,0,1,1145.776,485.34Z"/><path class="cls-8" d="M1109.344,449.593a8.949,8.949,0,0,1-8.825,8.825h-6.985a12.092,12.092,0,0,1-11.765-11.765h0a12.051,12.051,0,0,1,11.03-12.134l6.618-.367h.368a9.347,9.347,0,0,1,9.557,8.823h0v6.618Z"/><path class="cls-9" d="M1108.241,449.593a9.03,9.03,0,0,1-9.191,8.825h-6.618a12.094,12.094,0,0,1-11.767-11.765h0a11.783,11.783,0,0,1,11.031-12.134l6.618-.367h.367a9.349,9.349,0,0,1,9.557,8.823h0v6.618Z"/><path class="cls-10" d="M1106.767,449.593a9.029,9.029,0,0,1-9.191,8.825h-6.618a12.092,12.092,0,0,1-11.765-11.765h0a12.051,12.051,0,0,1,11.029-12.134l6.618-.367h.367a9.349,9.349,0,0,1,9.558,8.823h0v6.618Z"/><path class="cls-11" d="M1099.05,458.783l-7.722-.368a12.093,12.093,0,0,1-11.765-11.765h0a11.783,11.783,0,0,1,11.029-12.134l7.722-.735"/><path class="cls-5" d="M1142.276,558.759h-27.718a2.11,2.11,0,0,1-2.105-1.775V486.832a2.111,2.111,0,0,1,2.105-1.776h27.718a2.113,2.113,0,0,1,2.106,1.776v70.152A2.127,2.127,0,0,1,1142.276,558.759Z"/><path class="cls-6" d="M1144.021,558.759h-27.715a2.11,2.11,0,0,1-2.105-1.775V486.832a2.111,2.111,0,0,1,2.105-1.776h27.709a2.112,2.112,0,0,1,2.1,1.776v70.152A2.1,2.1,0,0,1,1144.021,558.759Z"/><path class="cls-7" d="M1145.776,558.759h-27.711a2.112,2.112,0,0,1-2.105-1.775V486.832a2.113,2.113,0,0,1,2.105-1.776h27.711a2.111,2.111,0,0,1,2.105,1.776v70.152A2.113,2.113,0,0,1,1145.776,558.759Z"/><path class="cls-8" d="M1109.344,523.013a8.948,8.948,0,0,1-8.825,8.824h-6.985a12.091,12.091,0,0,1-11.765-11.765h0a12.05,12.05,0,0,1,11.03-12.133l6.618-.367h.368a9.346,9.346,0,0,1,9.557,8.823h0v6.618Z"/><path class="cls-9" d="M1108.241,523.013a9.029,9.029,0,0,1-9.191,8.824h-6.618a12.093,12.093,0,0,1-11.767-11.765h0a11.783,11.783,0,0,1,11.031-12.133l6.618-.367h.367a9.349,9.349,0,0,1,9.557,8.823h0v6.618Z"/><path class="cls-10" d="M1106.767,523.013a9.028,9.028,0,0,1-9.191,8.824h-6.618a12.09,12.09,0,0,1-11.765-11.765h0a12.05,12.05,0,0,1,11.029-12.133l6.618-.367h.367a9.348,9.348,0,0,1,9.558,8.823h0v6.618Z"/><path class="cls-11" d="M1099.05,532.2l-7.722-.368a12.094,12.094,0,0,1-11.765-11.765h0a11.783,11.783,0,0,1,11.029-12.134l7.722-.735"/><path class="cls-5" d="M1142.276,632.179h-27.718a2.111,2.111,0,0,1-2.105-1.776V560.251a2.111,2.111,0,0,1,2.105-1.775h27.718a2.113,2.113,0,0,1,2.106,1.775V630.4A2.128,2.128,0,0,1,1142.276,632.179Z"/><path class="cls-6" d="M1144.021,632.179h-27.715a2.111,2.111,0,0,1-2.105-1.776V560.251a2.111,2.111,0,0,1,2.105-1.775h27.709a2.112,2.112,0,0,1,2.1,1.775V630.4A2.1,2.1,0,0,1,1144.021,632.179Z"/><path class="cls-7" d="M1145.776,632.179h-27.711a2.113,2.113,0,0,1-2.105-1.776V560.251a2.113,2.113,0,0,1,2.105-1.775h27.711a2.111,2.111,0,0,1,2.105,1.775V630.4A2.114,2.114,0,0,1,1145.776,632.179Z"/><path class="cls-8" d="M1109.344,596.433a8.949,8.949,0,0,1-8.825,8.824h-6.985a12.092,12.092,0,0,1-11.765-11.765h0a12.051,12.051,0,0,1,11.03-12.134l6.618-.367h.368a9.347,9.347,0,0,1,9.557,8.823h0v6.619Z"/><path class="cls-9" d="M1108.241,596.433a9.029,9.029,0,0,1-9.191,8.824h-6.618a12.093,12.093,0,0,1-11.767-11.765h0a11.784,11.784,0,0,1,11.031-12.134l6.618-.367h.367a9.349,9.349,0,0,1,9.557,8.823h0v6.619Z"/><path class="cls-10" d="M1106.767,596.433a9.028,9.028,0,0,1-9.191,8.824h-6.618a12.091,12.091,0,0,1-11.765-11.765h0a12.051,12.051,0,0,1,11.029-12.134l6.618-.367h.367a9.35,9.35,0,0,1,9.558,8.823h0v6.619Z"/><path class="cls-11" d="M1099.05,605.623l-7.722-.369a12.093,12.093,0,0,1-11.765-11.765h0a11.781,11.781,0,0,1,11.029-12.133l7.722-.736"/><path class="cls-5" d="M1153.486,558.476H1181.2a2.111,2.111,0,0,1,2.105,1.775V630.4a2.111,2.111,0,0,1-2.105,1.776h-27.718a2.112,2.112,0,0,1-2.105-1.776V560.251A2.126,2.126,0,0,1,1153.486,558.476Z"/><path class="cls-6" d="M1151.742,558.476h27.714a2.111,2.111,0,0,1,2.105,1.775V630.4a2.111,2.111,0,0,1-2.105,1.776h-27.709a2.112,2.112,0,0,1-2.105-1.776V560.251A2.1,2.1,0,0,1,1151.742,558.476Z"/><path class="cls-7" d="M1149.986,558.476H1177.7a2.112,2.112,0,0,1,2.105,1.775V630.4a2.112,2.112,0,0,1-2.105,1.776h-27.711a2.111,2.111,0,0,1-2.105-1.776V560.251A2.114,2.114,0,0,1,1149.986,558.476Z"/><path class="cls-8" d="M1186.418,594.222a8.948,8.948,0,0,1,8.825-8.824h6.985a12.091,12.091,0,0,1,11.765,11.765h0a12.05,12.05,0,0,1-11.029,12.133l-6.619.367h-.368a9.346,9.346,0,0,1-9.557-8.823h0v-6.618Z"/><path class="cls-9" d="M1187.521,594.222a9.029,9.029,0,0,1,9.192-8.824h6.618a12.092,12.092,0,0,1,11.766,11.765h0a11.783,11.783,0,0,1-11.031,12.133l-6.618.367h-.367a9.348,9.348,0,0,1-9.557-8.823h0v-6.618Z"/><path class="cls-10" d="M1188.995,594.222a9.029,9.029,0,0,1,9.191-8.824h6.618a12.09,12.09,0,0,1,11.765,11.765h0A12.049,12.049,0,0,1,1205.54,609.3l-6.618.367h-.367A9.347,9.347,0,0,1,1189,600.84h0v-6.618Z"/><path class="cls-11" d="M1196.713,585.032l7.721.368a12.1,12.1,0,0,1,11.766,11.766h0a11.784,11.784,0,0,1-11.03,12.133l-7.722.736"/><path class="cls-5" d="M1153.486,485.056H1181.2a2.111,2.111,0,0,1,2.105,1.776v70.152a2.11,2.11,0,0,1-2.105,1.775h-27.718a2.111,2.111,0,0,1-2.105-1.775V486.832A2.126,2.126,0,0,1,1153.486,485.056Z"/><path class="cls-6" d="M1151.742,485.056h27.714a2.111,2.111,0,0,1,2.105,1.776v70.152a2.11,2.11,0,0,1-2.105,1.775h-27.709a2.111,2.111,0,0,1-2.105-1.775V486.832A2.1,2.1,0,0,1,1151.742,485.056Z"/><path class="cls-7" d="M1149.986,485.056H1177.7a2.112,2.112,0,0,1,2.105,1.776v70.152a2.111,2.111,0,0,1-2.105,1.775h-27.711a2.11,2.11,0,0,1-2.105-1.775V486.832A2.114,2.114,0,0,1,1149.986,485.056Z"/><path class="cls-8" d="M1186.418,520.8a8.949,8.949,0,0,1,8.825-8.825h6.985a12.092,12.092,0,0,1,11.765,11.765h0a12.051,12.051,0,0,1-11.029,12.134l-6.619.367h-.368a9.347,9.347,0,0,1-9.557-8.823h0V520.8Z"/><path class="cls-9" d="M1187.521,520.8a9.03,9.03,0,0,1,9.192-8.825h6.618a12.093,12.093,0,0,1,11.766,11.765h0a11.783,11.783,0,0,1-11.031,12.134l-6.618.367h-.367a9.349,9.349,0,0,1-9.557-8.823h0V520.8Z"/><path class="cls-10" d="M1188.995,520.8a9.03,9.03,0,0,1,9.191-8.825h6.618a12.091,12.091,0,0,1,11.765,11.765h0a12.049,12.049,0,0,1-11.029,12.134l-6.618.367h-.367a9.348,9.348,0,0,1-9.557-8.823h0V520.8Z"/><path class="cls-11" d="M1196.713,511.612l7.721.369a12.094,12.094,0,0,1,11.766,11.765h0a11.783,11.783,0,0,1-11.03,12.133l-7.722.736"/><path class="cls-5" d="M1153.486,411.637H1181.2a2.11,2.11,0,0,1,2.105,1.775v70.152a2.111,2.111,0,0,1-2.105,1.776h-27.718a2.112,2.112,0,0,1-2.105-1.776V413.412A2.126,2.126,0,0,1,1153.486,411.637Z"/><path class="cls-6" d="M1151.742,411.637h27.714a2.11,2.11,0,0,1,2.105,1.775v70.152a2.111,2.111,0,0,1-2.105,1.776h-27.709a2.112,2.112,0,0,1-2.105-1.776V413.412A2.1,2.1,0,0,1,1151.742,411.637Z"/><path class="cls-7" d="M1149.986,411.637H1177.7a2.111,2.111,0,0,1,2.105,1.775v70.152a2.112,2.112,0,0,1-2.105,1.776h-27.711a2.111,2.111,0,0,1-2.105-1.776V413.412A2.114,2.114,0,0,1,1149.986,411.637Z"/><path class="cls-8" d="M1186.418,447.383a8.949,8.949,0,0,1,8.825-8.825h6.985a12.092,12.092,0,0,1,11.765,11.765h0a12.051,12.051,0,0,1-11.029,12.134l-6.619.367h-.368A9.346,9.346,0,0,1,1186.42,454h0v-6.618Z"/><path class="cls-9" d="M1187.521,447.383a9.031,9.031,0,0,1,9.192-8.825h6.618a12.094,12.094,0,0,1,11.766,11.765h0a11.783,11.783,0,0,1-11.031,12.134l-6.618.367h-.367a9.349,9.349,0,0,1-9.557-8.823h0v-6.618Z"/><path class="cls-10" d="M1188.995,447.383a9.03,9.03,0,0,1,9.191-8.825h6.618a12.092,12.092,0,0,1,11.765,11.765h0a12.049,12.049,0,0,1-11.029,12.134l-6.618.367h-.367A9.347,9.347,0,0,1,1189,454h0v-6.618Z"/><path class="cls-11" d="M1196.713,438.193l7.721.368a12.094,12.094,0,0,1,11.766,11.765h0a11.784,11.784,0,0,1-11.03,12.134l-7.722.735"/><path class="cls-5" d="M1285.793,488.074h-27.718a2.111,2.111,0,0,1-2.105-1.775V416.146a2.111,2.111,0,0,1,2.105-1.775h27.718a2.113,2.113,0,0,1,2.106,1.775V486.3A2.128,2.128,0,0,1,1285.793,488.074Z"/><path class="cls-6" d="M1287.538,488.074h-27.715a2.111,2.111,0,0,1-2.105-1.775V416.146a2.111,2.111,0,0,1,2.105-1.775h27.709a2.112,2.112,0,0,1,2.105,1.775V486.3A2.1,2.1,0,0,1,1287.538,488.074Z"/><path class="cls-7" d="M1289.293,488.074h-27.711a2.113,2.113,0,0,1-2.105-1.775V416.146a2.113,2.113,0,0,1,2.105-1.775h27.711a2.111,2.111,0,0,1,2.105,1.775V486.3A2.114,2.114,0,0,1,1289.293,488.074Z"/><path class="cls-8" d="M1252.861,452.328a8.948,8.948,0,0,1-8.825,8.824h-6.985a12.092,12.092,0,0,1-11.765-11.765h0a12.05,12.05,0,0,1,11.03-12.133l6.618-.367h.368a9.345,9.345,0,0,1,9.557,8.823h0v6.618Z"/><path class="cls-9" d="M1251.758,452.328a9.029,9.029,0,0,1-9.191,8.824h-6.618a12.093,12.093,0,0,1-11.767-11.765h0a11.783,11.783,0,0,1,11.031-12.133l6.618-.367h.367a9.347,9.347,0,0,1,9.557,8.823h0v6.618Z"/><path class="cls-10" d="M1250.285,452.328a9.03,9.03,0,0,1-9.192,8.824h-6.618a12.092,12.092,0,0,1-11.765-11.765h0a12.05,12.05,0,0,1,11.029-12.133l6.618-.367h.367a9.348,9.348,0,0,1,9.558,8.823h0v6.618Z"/><path class="cls-11" d="M1242.567,461.518l-7.722-.369a12.093,12.093,0,0,1-11.765-11.765h0a11.783,11.783,0,0,1,11.029-12.133l7.722-.736"/><path class="cls-5" d="M1285.793,561.494h-27.718a2.111,2.111,0,0,1-2.105-1.776V489.566a2.11,2.11,0,0,1,2.105-1.775h27.718a2.112,2.112,0,0,1,2.106,1.775v70.152A2.128,2.128,0,0,1,1285.793,561.494Z"/><path class="cls-6" d="M1287.538,561.494h-27.715a2.111,2.111,0,0,1-2.105-1.776V489.566a2.11,2.11,0,0,1,2.105-1.775h27.709a2.111,2.111,0,0,1,2.105,1.775v70.152A2.1,2.1,0,0,1,1287.538,561.494Z"/><path class="cls-7" d="M1289.293,561.494h-27.711a2.113,2.113,0,0,1-2.105-1.776V489.566a2.112,2.112,0,0,1,2.105-1.775h27.711a2.11,2.11,0,0,1,2.105,1.775v70.152A2.114,2.114,0,0,1,1289.293,561.494Z"/><path class="cls-8" d="M1252.861,525.747a8.949,8.949,0,0,1-8.825,8.825h-6.985a12.093,12.093,0,0,1-11.765-11.765h0a12.051,12.051,0,0,1,11.03-12.134l6.618-.367h.368a9.346,9.346,0,0,1,9.557,8.823h0v6.618Z"/><path class="cls-9" d="M1251.758,525.747a9.03,9.03,0,0,1-9.191,8.825h-6.618a12.094,12.094,0,0,1-11.767-11.765h0a11.783,11.783,0,0,1,11.031-12.134l6.618-.367h.367a9.349,9.349,0,0,1,9.557,8.823h0v6.618Z"/><path class="cls-10" d="M1250.285,525.747a9.031,9.031,0,0,1-9.192,8.825h-6.618a12.092,12.092,0,0,1-11.765-11.765h0a12.051,12.051,0,0,1,11.029-12.134l6.618-.367h.367a9.348,9.348,0,0,1,9.558,8.823h0v6.618Z"/><path class="cls-11" d="M1242.567,534.938l-7.722-.369A12.093,12.093,0,0,1,1223.08,522.8h0a11.782,11.782,0,0,1,11.029-12.133l7.722-.736"/><path class="cls-5" d="M1285.793,634.913h-27.718a2.11,2.11,0,0,1-2.105-1.775V562.986a2.111,2.111,0,0,1,2.105-1.776h27.718a2.113,2.113,0,0,1,2.106,1.776v70.152A2.127,2.127,0,0,1,1285.793,634.913Z"/><path class="cls-6" d="M1287.538,634.913h-27.715a2.11,2.11,0,0,1-2.105-1.775V562.986a2.111,2.111,0,0,1,2.105-1.776h27.709a2.112,2.112,0,0,1,2.105,1.776v70.152A2.1,2.1,0,0,1,1287.538,634.913Z"/><path class="cls-7" d="M1289.293,634.913h-27.711a2.112,2.112,0,0,1-2.105-1.775V562.986a2.113,2.113,0,0,1,2.105-1.776h27.711a2.111,2.111,0,0,1,2.105,1.776v70.152A2.113,2.113,0,0,1,1289.293,634.913Z"/><path class="cls-8" d="M1252.861,599.167a8.948,8.948,0,0,1-8.825,8.824h-6.985a12.092,12.092,0,0,1-11.765-11.765h0a12.05,12.05,0,0,1,11.03-12.133l6.618-.367h.368a9.345,9.345,0,0,1,9.557,8.823h0v6.618Z"/><path class="cls-9" d="M1251.758,599.167a9.029,9.029,0,0,1-9.191,8.824h-6.618a12.093,12.093,0,0,1-11.767-11.765h0a11.783,11.783,0,0,1,11.031-12.133l6.618-.367h.367a9.349,9.349,0,0,1,9.557,8.823h0v6.618Z"/><path class="cls-10" d="M1250.285,599.167a9.03,9.03,0,0,1-9.192,8.824h-6.618a12.091,12.091,0,0,1-11.765-11.765h0a12.05,12.05,0,0,1,11.029-12.133l6.618-.367h.367a9.348,9.348,0,0,1,9.558,8.823h0v6.618Z"/><path class="cls-11" d="M1242.567,608.357l-7.722-.368a12.093,12.093,0,0,1-11.765-11.765h0a11.783,11.783,0,0,1,11.029-12.134l7.722-.735"/><path class="cls-5" d="M1297,561.21h27.718a2.111,2.111,0,0,1,2.105,1.776v70.152a2.11,2.11,0,0,1-2.105,1.775H1297a2.111,2.111,0,0,1-2.105-1.775V562.986A2.126,2.126,0,0,1,1297,561.21Z"/><path class="cls-6" d="M1295.259,561.21h27.714a2.11,2.11,0,0,1,2.105,1.776v70.152a2.11,2.11,0,0,1-2.105,1.775h-27.709a2.112,2.112,0,0,1-2.1-1.775V562.986A2.1,2.1,0,0,1,1295.259,561.21Z"/><path class="cls-7" d="M1293.5,561.21h27.711a2.112,2.112,0,0,1,2.105,1.776v70.152a2.111,2.111,0,0,1-2.105,1.775H1293.5a2.11,2.11,0,0,1-2.105-1.775V562.986A2.114,2.114,0,0,1,1293.5,561.21Z"/><path class="cls-8" d="M1329.936,596.957a8.947,8.947,0,0,1,8.824-8.825h6.985A12.092,12.092,0,0,1,1357.51,599.9h0a12.051,12.051,0,0,1-11.029,12.134l-6.618.367h-.369a9.347,9.347,0,0,1-9.557-8.823h0v-6.618Z"/><path class="cls-9" d="M1331.038,596.957a9.03,9.03,0,0,1,9.192-8.825h6.618a12.094,12.094,0,0,1,11.766,11.765h0a11.783,11.783,0,0,1-11.031,12.134l-6.618.367h-.367a9.349,9.349,0,0,1-9.557-8.823h0v-6.618Z"/><path class="cls-10" d="M1332.512,596.957a9.03,9.03,0,0,1,9.191-8.825h6.618a12.093,12.093,0,0,1,11.766,11.765h0a12.051,12.051,0,0,1-11.03,12.134l-6.618.367h-.367a9.348,9.348,0,0,1-9.557-8.823h0v-6.618Z"/><path class="cls-11" d="M1340.23,587.766l7.722.369a12.093,12.093,0,0,1,11.765,11.765h0a11.783,11.783,0,0,1-11.03,12.133l-7.722.736"/><path class="cls-5" d="M1297,487.791h27.718a2.11,2.11,0,0,1,2.105,1.775v70.152a2.111,2.111,0,0,1-2.105,1.776H1297a2.112,2.112,0,0,1-2.105-1.776V489.566A2.126,2.126,0,0,1,1297,487.791Z"/><path class="cls-6" d="M1295.259,487.791h27.714a2.11,2.11,0,0,1,2.105,1.775v70.152a2.11,2.11,0,0,1-2.105,1.776h-27.709a2.113,2.113,0,0,1-2.1-1.776V489.566A2.1,2.1,0,0,1,1295.259,487.791Z"/><path class="cls-7" d="M1293.5,487.791h27.711a2.111,2.111,0,0,1,2.105,1.775v70.152a2.112,2.112,0,0,1-2.105,1.776H1293.5a2.111,2.111,0,0,1-2.105-1.776V489.566A2.114,2.114,0,0,1,1293.5,487.791Z"/><path class="cls-8" d="M1329.936,523.537a8.948,8.948,0,0,1,8.824-8.825h6.985a12.092,12.092,0,0,1,11.765,11.766h0a12.05,12.05,0,0,1-11.029,12.133l-6.618.367h-.369a9.346,9.346,0,0,1-9.557-8.823h0v-6.618Z"/><path class="cls-9" d="M1331.038,523.537a9.031,9.031,0,0,1,9.192-8.825h6.618a12.094,12.094,0,0,1,11.766,11.766h0a11.783,11.783,0,0,1-11.031,12.133l-6.618.367h-.367a9.349,9.349,0,0,1-9.557-8.823h0v-6.618Z"/><path class="cls-10" d="M1332.512,523.537a9.03,9.03,0,0,1,9.191-8.825h6.618a12.093,12.093,0,0,1,11.766,11.766h0a12.05,12.05,0,0,1-11.03,12.133l-6.618.367h-.367a9.347,9.347,0,0,1-9.557-8.823h0v-6.618Z"/><path class="cls-11" d="M1340.23,514.347l7.722.368a12.093,12.093,0,0,1,11.765,11.765h0a11.784,11.784,0,0,1-11.03,12.134l-7.722.735"/><path class="cls-5" d="M1297,414.371h27.718a2.111,2.111,0,0,1,2.105,1.775V486.3a2.111,2.111,0,0,1-2.105,1.775H1297a2.112,2.112,0,0,1-2.105-1.775V416.146A2.126,2.126,0,0,1,1297,414.371Z"/><path class="cls-6" d="M1295.259,414.371h27.714a2.11,2.11,0,0,1,2.105,1.775V486.3a2.11,2.11,0,0,1-2.105,1.775h-27.709a2.113,2.113,0,0,1-2.1-1.775V416.146A2.1,2.1,0,0,1,1295.259,414.371Z"/><path class="cls-7" d="M1293.5,414.371h27.711a2.112,2.112,0,0,1,2.105,1.775V486.3a2.112,2.112,0,0,1-2.105,1.775H1293.5a2.111,2.111,0,0,1-2.105-1.775V416.146A2.114,2.114,0,0,1,1293.5,414.371Z"/><path class="cls-8" d="M1329.936,450.117a8.946,8.946,0,0,1,8.824-8.824h6.985a12.092,12.092,0,0,1,11.765,11.765h0a12.05,12.05,0,0,1-11.029,12.133l-6.618.368h-.369a9.348,9.348,0,0,1-9.557-8.824h0v-6.618Z"/><path class="cls-9" d="M1331.038,450.117a9.029,9.029,0,0,1,9.192-8.824h6.618a12.092,12.092,0,0,1,11.766,11.765h0a11.782,11.782,0,0,1-11.031,12.133l-6.618.368h-.367a9.35,9.35,0,0,1-9.557-8.824h0v-6.618Z"/><path class="cls-10" d="M1332.512,450.117a9.029,9.029,0,0,1,9.191-8.824h6.618a12.092,12.092,0,0,1,11.766,11.765h0a12.05,12.05,0,0,1-11.03,12.133l-6.618.368h-.367a9.349,9.349,0,0,1-9.557-8.824h0v-6.618Z"/><path class="cls-11" d="M1340.23,440.927l7.722.369a12.093,12.093,0,0,1,11.765,11.765h0a11.783,11.783,0,0,1-11.03,12.133l-7.722.736"/><path class="cls-5" d="M1445.241,490.278h-27.718a2.11,2.11,0,0,1-2.105-1.776V418.35a2.11,2.11,0,0,1,2.105-1.775h27.718a2.112,2.112,0,0,1,2.105,1.775V488.5A2.127,2.127,0,0,1,1445.241,490.278Z"/><path class="cls-6" d="M1446.985,490.278h-27.714a2.11,2.11,0,0,1-2.105-1.776V418.35a2.11,2.11,0,0,1,2.105-1.775h27.709a2.113,2.113,0,0,1,2.105,1.775V488.5A2.1,2.1,0,0,1,1446.985,490.278Z"/><path class="cls-7" d="M1448.741,490.278H1421.03a2.112,2.112,0,0,1-2.105-1.776V418.35a2.111,2.111,0,0,1,2.105-1.775h27.711a2.111,2.111,0,0,1,2.105,1.775V488.5A2.114,2.114,0,0,1,1448.741,490.278Z"/><path class="cls-8" d="M1412.308,454.531a8.947,8.947,0,0,1-8.824,8.825H1396.5a12.091,12.091,0,0,1-11.765-11.765h0a12.051,12.051,0,0,1,11.029-12.134l6.618-.367h.369a9.347,9.347,0,0,1,9.557,8.823h0v6.618Z"/><path class="cls-9" d="M1411.206,454.531a9.03,9.03,0,0,1-9.192,8.825H1395.4a12.093,12.093,0,0,1-11.766-11.765h0a11.783,11.783,0,0,1,11.031-12.134l6.618-.367h.367a9.349,9.349,0,0,1,9.557,8.823h0v6.618Z"/><path class="cls-10" d="M1409.732,454.531a9.03,9.03,0,0,1-9.191,8.825h-6.619a12.092,12.092,0,0,1-11.765-11.765h0a12.051,12.051,0,0,1,11.03-12.134l6.618-.367h.367a9.349,9.349,0,0,1,9.557,8.823h0v6.618Z"/><path class="cls-11" d="M1402.014,463.722l-7.722-.369a12.093,12.093,0,0,1-11.765-11.765h0a11.783,11.783,0,0,1,11.03-12.133l7.722-.736"/><path class="cls-5" d="M1445.241,563.7h-27.718a2.11,2.11,0,0,1-2.105-1.775V491.77a2.11,2.11,0,0,1,2.105-1.776h27.718a2.112,2.112,0,0,1,2.105,1.776v70.152A2.126,2.126,0,0,1,1445.241,563.7Z"/><path class="cls-6" d="M1446.985,563.7h-27.714a2.11,2.11,0,0,1-2.105-1.775V491.77a2.11,2.11,0,0,1,2.105-1.776h27.709a2.113,2.113,0,0,1,2.105,1.776v70.152A2.1,2.1,0,0,1,1446.985,563.7Z"/><path class="cls-7" d="M1448.741,563.7H1421.03a2.111,2.111,0,0,1-2.105-1.775V491.77a2.112,2.112,0,0,1,2.105-1.776h27.711a2.111,2.111,0,0,1,2.105,1.776v70.152A2.114,2.114,0,0,1,1448.741,563.7Z"/><path class="cls-8" d="M1412.308,527.951a8.948,8.948,0,0,1-8.824,8.825H1396.5a12.092,12.092,0,0,1-11.765-11.765h0a12.051,12.051,0,0,1,11.029-12.134l6.618-.367h.369a9.346,9.346,0,0,1,9.557,8.823h0v6.618Z"/><path class="cls-9" d="M1411.206,527.951a9.031,9.031,0,0,1-9.192,8.825H1395.4a12.094,12.094,0,0,1-11.766-11.765h0a11.783,11.783,0,0,1,11.031-12.134l6.618-.367h.367a9.349,9.349,0,0,1,9.557,8.823h0v6.618Z"/><path class="cls-10" d="M1409.732,527.951a9.03,9.03,0,0,1-9.191,8.825h-6.619a12.093,12.093,0,0,1-11.765-11.765h0a12.051,12.051,0,0,1,11.03-12.134l6.618-.367h.367a9.347,9.347,0,0,1,9.557,8.823h0v6.618Z"/><path class="cls-11" d="M1402.014,537.141l-7.722-.368a12.093,12.093,0,0,1-11.765-11.765h0a11.784,11.784,0,0,1,11.03-12.134l7.722-.735"/><path class="cls-5" d="M1445.241,637.117h-27.718a2.11,2.11,0,0,1-2.105-1.775V565.189a2.11,2.11,0,0,1,2.105-1.775h27.718a2.112,2.112,0,0,1,2.105,1.775v70.153A2.127,2.127,0,0,1,1445.241,637.117Z"/><path class="cls-6" d="M1446.985,637.117h-27.714a2.11,2.11,0,0,1-2.105-1.775V565.189a2.11,2.11,0,0,1,2.105-1.775h27.709a2.113,2.113,0,0,1,2.105,1.775v70.153A2.1,2.1,0,0,1,1446.985,637.117Z"/><path class="cls-7" d="M1448.741,637.117H1421.03a2.112,2.112,0,0,1-2.105-1.775V565.189a2.112,2.112,0,0,1,2.105-1.775h27.711a2.111,2.111,0,0,1,2.105,1.775v70.153A2.114,2.114,0,0,1,1448.741,637.117Z"/><path class="cls-8" d="M1412.308,601.371a8.946,8.946,0,0,1-8.824,8.824H1396.5a12.091,12.091,0,0,1-11.765-11.765h0a12.05,12.05,0,0,1,11.029-12.133l6.618-.367h.369a9.346,9.346,0,0,1,9.557,8.823h0v6.618Z"/><path class="cls-9" d="M1411.206,601.371a9.029,9.029,0,0,1-9.192,8.824H1395.4a12.092,12.092,0,0,1-11.766-11.765h0a11.783,11.783,0,0,1,11.031-12.133l6.618-.367h.367a9.349,9.349,0,0,1,9.557,8.823h0v6.618Z"/><path class="cls-10" d="M1409.732,601.371a9.029,9.029,0,0,1-9.191,8.824h-6.619a12.092,12.092,0,0,1-11.765-11.765h0a12.05,12.05,0,0,1,11.03-12.133l6.618-.367h.367a9.347,9.347,0,0,1,9.557,8.823h0v6.618Z"/><path class="cls-11" d="M1402.014,610.561l-7.722-.369a12.093,12.093,0,0,1-11.765-11.765h0a11.784,11.784,0,0,1,11.03-12.133l7.722-.736"/><path class="cls-5" d="M867.1,707.381V678.272c0-1.107.677-2.211,1.354-2.211h53.482c.677,0,1.354,1.1,1.354,2.211v29.109c0,1.1-.677,2.211-1.354,2.211H868.449C867.772,709.582,867.1,708.476,867.1,707.381Z"/><path class="cls-6" d="M867.1,709.213V680.107c0-1.106.677-2.21,1.354-2.21h53.482c.677,0,1.354,1.1,1.354,2.21v29.1c0,1.1-.677,2.211-1.354,2.211H868.449C867.772,711.423,867.1,710.317,867.1,709.213Z"/><path class="cls-7" d="M867.1,711.056v-29.1c0-1.105.677-2.211,1.354-2.211h53.482c.677,0,1.354,1.106,1.354,2.211v29.1c0,1.106-.677,2.211-1.354,2.211H868.449C867.772,713.265,867.1,712.16,867.1,711.056Z"/><path class="cls-8" d="M900.407,677.163a8.946,8.946,0,0,1-8.824-8.824v-6.985a12.092,12.092,0,0,1,11.765-11.765h0a12.05,12.05,0,0,1,12.133,11.029l.367,6.618v.369a9.346,9.346,0,0,1-8.823,9.557h-6.618Z"/><path class="cls-9" d="M900.407,676.061a9.029,9.029,0,0,1-8.824-9.192v-6.618a12.092,12.092,0,0,1,11.765-11.766h0a11.783,11.783,0,0,1,12.133,11.031l.367,6.618v.367a9.349,9.349,0,0,1-8.823,9.557h-6.618Z"/><path class="cls-10" d="M900.407,674.587a9.029,9.029,0,0,1-8.824-9.191v-6.618a12.092,12.092,0,0,1,11.765-11.766h0a12.05,12.05,0,0,1,12.133,11.03l.367,6.618v.367a9.347,9.347,0,0,1-8.823,9.557h-6.618Z"/><path class="cls-11" d="M891.217,666.869l.369-7.722a12.093,12.093,0,0,1,11.765-11.765h0a11.784,11.784,0,0,1,12.133,11.03l.736,7.722"/><path class="cls-5" d="M923.285,707.381V678.272c0-1.107.677-2.211,1.354-2.211h53.482c.677,0,1.354,1.1,1.354,2.211v29.109c0,1.1-.677,2.211-1.354,2.211H924.639C923.962,709.582,923.285,708.476,923.285,707.381Z"/><path class="cls-6" d="M923.285,709.213V680.107c0-1.106.677-2.21,1.354-2.21h53.482c.677,0,1.354,1.1,1.354,2.21v29.1c0,1.1-.677,2.211-1.354,2.211H924.639C923.962,711.423,923.285,710.317,923.285,709.213Z"/><path class="cls-7" d="M923.285,711.056v-29.1c0-1.105.677-2.211,1.354-2.211h53.482c.677,0,1.354,1.106,1.354,2.211v29.1c0,1.106-.677,2.211-1.354,2.211H924.639C923.962,713.265,923.285,712.16,923.285,711.056Z"/><path class="cls-8" d="M956.6,677.163a8.946,8.946,0,0,1-8.824-8.824v-6.985a12.091,12.091,0,0,1,11.765-11.765h0a12.05,12.05,0,0,1,12.133,11.029l.367,6.618v.369a9.346,9.346,0,0,1-8.823,9.557H956.6Z"/><path class="cls-9" d="M956.6,676.061a9.029,9.029,0,0,1-8.824-9.192v-6.618a12.092,12.092,0,0,1,11.765-11.766h0a11.783,11.783,0,0,1,12.133,11.031l.367,6.618v.367a9.349,9.349,0,0,1-8.823,9.557H956.6Z"/><path class="cls-10" d="M956.6,674.587a9.029,9.029,0,0,1-8.824-9.191v-6.618a12.092,12.092,0,0,1,11.765-11.766h0a12.05,12.05,0,0,1,12.133,11.03l.367,6.618v.367a9.347,9.347,0,0,1-8.823,9.557H956.6Z"/><path class="cls-11" d="M947.407,666.869l.368-7.722a12.093,12.093,0,0,1,11.765-11.765h0a11.784,11.784,0,0,1,12.134,11.03l.735,7.722"/><path class="cls-5" d="M979.475,719.343v29.109c0,1.106-.677,2.211-1.354,2.211H924.639c-.677,0-1.354-1.105-1.354-2.211V719.343c0-1.1.677-2.211,1.354-2.211h53.482C978.8,717.142,979.475,718.248,979.475,719.343Z"/><path class="cls-6" d="M979.475,717.511v29.105c0,1.107-.677,2.211-1.354,2.211H924.639c-.677,0-1.354-1.1-1.354-2.211v-29.1c0-1.105.677-2.211,1.354-2.211h53.482C978.8,715.3,979.475,716.407,979.475,717.511Z"/><path class="cls-7" d="M979.475,715.668v29.1c0,1.1-.677,2.211-1.354,2.211H924.639c-.677,0-1.354-1.107-1.354-2.211v-29.1c0-1.107.677-2.211,1.354-2.211h53.482C978.8,713.459,979.475,714.563,979.475,715.668Z"/><path class="cls-8" d="M946.163,749.56a8.948,8.948,0,0,1,8.824,8.825v6.985a12.092,12.092,0,0,1-11.765,11.765h0a12.05,12.05,0,0,1-12.133-11.03l-.367-6.618v-.368a9.345,9.345,0,0,1,8.823-9.557h6.618Z"/><path class="cls-9" d="M946.163,750.663a9.029,9.029,0,0,1,8.824,9.191v6.618a12.093,12.093,0,0,1-11.765,11.767h0a11.783,11.783,0,0,1-12.133-11.031l-.367-6.618v-.367a9.348,9.348,0,0,1,8.823-9.557h6.618Z"/><path class="cls-10" d="M946.163,752.136a9.03,9.03,0,0,1,8.824,9.192v6.618a12.091,12.091,0,0,1-11.765,11.765h0a12.05,12.05,0,0,1-12.133-11.029l-.367-6.618V761.7a9.347,9.347,0,0,1,8.823-9.557h6.618Z"/><path class="cls-11" d="M955.353,759.854l-.368,7.722a12.1,12.1,0,0,1-11.766,11.765h0a11.783,11.783,0,0,1-12.133-11.029l-.736-7.722"/><path class="cls-5" d="M923.285,719.343v29.109c0,1.106-.677,2.211-1.354,2.211H868.449c-.677,0-1.354-1.105-1.354-2.211V719.343c0-1.1.677-2.211,1.354-2.211h53.482C922.608,717.142,923.285,718.248,923.285,719.343Z"/><path class="cls-6" d="M923.285,717.511v29.105c0,1.107-.677,2.211-1.354,2.211H868.449c-.677,0-1.354-1.1-1.354-2.211v-29.1c0-1.105.677-2.211,1.354-2.211h53.482C922.608,715.3,923.285,716.407,923.285,717.511Z"/><path class="cls-7" d="M923.285,715.668v29.1c0,1.1-.677,2.211-1.354,2.211H868.449c-.677,0-1.354-1.107-1.354-2.211v-29.1c0-1.107.677-2.211,1.354-2.211h53.482C922.608,713.459,923.285,714.563,923.285,715.668Z"/><path class="cls-8" d="M889.973,749.56a8.948,8.948,0,0,1,8.824,8.825v6.985a12.092,12.092,0,0,1-11.765,11.765h0a12.05,12.05,0,0,1-12.133-11.03l-.367-6.618v-.368a9.345,9.345,0,0,1,8.823-9.557h6.618Z"/><path class="cls-9" d="M889.973,750.663a9.029,9.029,0,0,1,8.824,9.191v6.618a12.093,12.093,0,0,1-11.765,11.767h0A11.783,11.783,0,0,1,874.9,767.208l-.367-6.618v-.367a9.349,9.349,0,0,1,8.823-9.557h6.618Z"/><path class="cls-10" d="M889.973,752.137a9.028,9.028,0,0,1,8.824,9.191v6.618a12.091,12.091,0,0,1-11.765,11.765h0A12.05,12.05,0,0,1,874.9,768.682l-.367-6.618V761.7a9.348,9.348,0,0,1,8.823-9.558h6.618Z"/><path class="cls-11" d="M899.163,759.854l-.368,7.722a12.093,12.093,0,0,1-11.765,11.765h0A11.783,11.783,0,0,1,874.9,768.312l-.735-7.722"/><path class="cls-8" d="M369.27,613.045a8.946,8.946,0,0,1,8.824,8.824v6.985a12.091,12.091,0,0,1-11.765,11.765h0A12.05,12.05,0,0,1,354.2,629.59l-.368-6.618V622.6a9.348,9.348,0,0,1,8.824-9.557h6.618Z"/><path class="cls-9" d="M369.27,614.147a9.029,9.029,0,0,1,8.824,9.192v6.618a12.092,12.092,0,0,1-11.765,11.766h0A11.782,11.782,0,0,1,354.2,630.692l-.368-6.618v-.367a9.35,9.35,0,0,1,8.824-9.557h6.618Z"/><path class="cls-10" d="M369.27,615.621a9.029,9.029,0,0,1,8.824,9.191v6.619A12.092,12.092,0,0,1,366.329,643.2h0a12.05,12.05,0,0,1-12.133-11.03l-.368-6.618v-.367a9.349,9.349,0,0,1,8.824-9.557h6.618Z"/><path class="cls-11" d="M378.46,623.339l-.369,7.722a12.093,12.093,0,0,1-11.765,11.765h0a11.782,11.782,0,0,1-12.133-11.03l-.736-7.722"/><path class="cls-5" d="M397.763,591.753V620.59c0,1.1-.766,2.19-1.532,2.19H335.686c-.766,0-1.532-1.094-1.532-2.19V591.753c0-1.094.766-2.19,1.532-2.19h60.545C397,589.573,397.763,590.669,397.763,591.753Z"/><path class="cls-6" d="M397.763,589.939v28.833c0,1.1-.766,2.19-1.532,2.19H335.686c-.766,0-1.532-1.094-1.532-2.19V589.944c0-1.094.766-2.19,1.532-2.19h60.545C397,587.748,397.763,588.844,397.763,589.939Z"/><path class="cls-7" d="M397.763,588.112v28.83c0,1.094-.766,2.19-1.532,2.19H335.686c-.766,0-1.532-1.1-1.532-2.19v-28.83c0-1.1.766-2.19,1.532-2.19h60.545C397,585.924,397.763,587.018,397.763,588.112Z"/><path class="cls-8" d="M362.647,558.556a8.946,8.946,0,0,1-8.824-8.824v-6.985a12.092,12.092,0,0,1,11.765-11.766h0a12.05,12.05,0,0,1,12.133,11.03l.368,6.618V549a9.348,9.348,0,0,1-8.824,9.557h-6.618Z"/><path class="cls-9" d="M362.647,557.454a9.029,9.029,0,0,1-8.824-9.192v-6.618a12.092,12.092,0,0,1,11.765-11.766h0a11.782,11.782,0,0,1,12.133,11.031l.368,6.618v.367a9.35,9.35,0,0,1-8.824,9.557h-6.618Z"/><path class="cls-10" d="M362.647,555.98a9.029,9.029,0,0,1-8.824-9.192V540.17a12.092,12.092,0,0,1,11.765-11.765h0a12.05,12.05,0,0,1,12.133,11.03l.368,6.618v.367a9.349,9.349,0,0,1-8.824,9.557h-6.618Z"/><path class="cls-11" d="M353.457,548.262l.369-7.722a12.093,12.093,0,0,1,11.765-11.765h0a11.782,11.782,0,0,1,12.133,11.03l.736,7.722"/><path class="cls-5" d="M334.154,579.848V551.011c0-1.1.766-2.191,1.532-2.191h60.545c.766,0,1.532,1.095,1.532,2.191v28.837c0,1.094-.766,2.19-1.532,2.19H335.686C334.92,582.028,334.154,580.932,334.154,579.848Z"/><path class="cls-6" d="M334.154,581.662V552.829c0-1.1.766-2.19,1.532-2.19h60.545c.766,0,1.532,1.094,1.532,2.19v28.827c0,1.1-.766,2.191-1.532,2.191H335.686C334.92,583.852,334.154,582.756,334.154,581.662Z"/><path class="cls-7" d="M334.154,583.488V554.659c0-1.094.766-2.19,1.532-2.19h60.545c.766,0,1.532,1.1,1.532,2.19v28.829c0,1.1-.766,2.191-1.532,2.191H335.686C334.92,585.677,334.154,584.583,334.154,583.488Z"/><path class="cls-8" d="M433.518,612.923a8.947,8.947,0,0,1,8.825,8.824v6.985A12.092,12.092,0,0,1,430.578,640.5h0a12.051,12.051,0,0,1-12.134-11.03l-.367-6.618v-.369a9.347,9.347,0,0,1,8.823-9.557h6.618Z"/><path class="cls-9" d="M433.518,614.025a9.03,9.03,0,0,1,8.825,9.192v6.618A12.092,12.092,0,0,1,430.578,641.6h0a11.783,11.783,0,0,1-12.134-11.031l-.367-6.618v-.367a9.35,9.35,0,0,1,8.823-9.557h6.618Z"/><path class="cls-10" d="M433.518,615.5a9.03,9.03,0,0,1,8.825,9.192v6.618a12.092,12.092,0,0,1-11.765,11.765h0a12.051,12.051,0,0,1-12.134-11.03l-.367-6.618v-.367A9.349,9.349,0,0,1,426.9,615.5h6.618Z"/><path class="cls-11" d="M442.709,623.217l-.369,7.722A12.093,12.093,0,0,1,430.575,642.7h0a11.782,11.782,0,0,1-12.133-11.03l-.736-7.722"/><path class="cls-5" d="M462.012,591.631v28.837c0,1.1-.766,2.191-1.532,2.191H399.935c-.766,0-1.532-1.1-1.532-2.191V591.631c0-1.094.766-2.19,1.532-2.19H460.48C461.246,589.451,462.012,590.547,462.012,591.631Z"/><path class="cls-6" d="M462.012,589.817V618.65c0,1.1-.766,2.19-1.532,2.19H399.935c-.766,0-1.532-1.094-1.532-2.19V589.823c0-1.1.766-2.191,1.532-2.191H460.48C461.246,587.627,462.012,588.723,462.012,589.817Z"/><path class="cls-7" d="M462.012,587.991V616.82c0,1.094-.766,2.19-1.532,2.19H399.935c-.766,0-1.532-1.1-1.532-2.19V587.991c0-1.1.766-2.191,1.532-2.191H460.48C461.246,585.8,462.012,586.9,462.012,587.991Z"/><path class="cls-8" d="M426.9,558.434a8.946,8.946,0,0,1-8.824-8.824v-6.985a12.09,12.09,0,0,1,11.765-11.765h0a12.05,12.05,0,0,1,12.133,11.029l.367,6.618v.369a9.346,9.346,0,0,1-8.823,9.557H426.9Z"/><path class="cls-9" d="M426.9,557.332a9.029,9.029,0,0,1-8.824-9.192v-6.618a12.092,12.092,0,0,1,11.765-11.766h0a11.783,11.783,0,0,1,12.133,11.031l.367,6.618v.367a9.349,9.349,0,0,1-8.823,9.557H426.9Z"/><path class="cls-10" d="M426.9,555.858a9.029,9.029,0,0,1-8.824-9.191v-6.619a12.092,12.092,0,0,1,11.765-11.765h0a12.05,12.05,0,0,1,12.133,11.03l.367,6.618v.367a9.347,9.347,0,0,1-8.823,9.557H426.9Z"/><path class="cls-11" d="M417.706,548.14l.368-7.722a12.094,12.094,0,0,1,11.765-11.765h0a11.784,11.784,0,0,1,12.134,11.03l.736,7.722"/><path class="cls-5" d="M398.4,579.726V550.889c0-1.1.766-2.19,1.532-2.19H460.48c.766,0,1.532,1.094,1.532,2.19v28.837c0,1.094-.766,2.19-1.532,2.19H399.935C399.169,581.906,398.4,580.81,398.4,579.726Z"/><path class="cls-6" d="M398.4,581.54V552.707c0-1.1.766-2.19,1.532-2.19H460.48c.766,0,1.532,1.094,1.532,2.19v28.828c0,1.094-.766,2.19-1.532,2.19H399.935C399.169,583.731,398.4,582.635,398.4,581.54Z"/><path class="cls-7" d="M398.4,583.367v-28.83c0-1.094.766-2.19,1.532-2.19H460.48c.766,0,1.532,1.1,1.532,2.19v28.83c0,1.1-.766,2.19-1.532,2.19H399.935C399.169,585.555,398.4,584.461,398.4,583.367Z"/><path class="cls-8" d="M341.381,449.448a8.948,8.948,0,0,1-8.824-8.825v-6.985a12.092,12.092,0,0,1,11.765-11.765h0a12.05,12.05,0,0,1,12.133,11.03l.367,6.618v.368A9.346,9.346,0,0,1,348,449.446h-6.618Z"/><path class="cls-9" d="M341.381,448.345a9.029,9.029,0,0,1-8.824-9.191v-6.618a12.093,12.093,0,0,1,11.765-11.767h0A11.783,11.783,0,0,1,356.455,431.8l.367,6.618v.367A9.349,9.349,0,0,1,348,448.342h-6.618Z"/><path class="cls-10" d="M341.381,446.871a9.028,9.028,0,0,1-8.824-9.191v-6.618A12.091,12.091,0,0,1,344.322,419.3h0a12.05,12.05,0,0,1,12.133,11.029l.367,6.618v.367A9.348,9.348,0,0,1,348,446.869h-6.618Z"/><path class="cls-11" d="M332.191,439.154l.368-7.722a12.094,12.094,0,0,1,11.765-11.765h0A11.783,11.783,0,0,1,356.458,430.7l.735,7.722"/><path class="cls-8" d="M375.149,449.448a8.949,8.949,0,0,1-8.825-8.825v-6.985a12.093,12.093,0,0,1,11.765-11.765h0a12.051,12.051,0,0,1,12.134,11.03l.367,6.618v.368a9.347,9.347,0,0,1-8.823,9.557h-6.618Z"/><path class="cls-9" d="M375.149,448.345a9.03,9.03,0,0,1-8.825-9.191v-6.618a12.094,12.094,0,0,1,11.765-11.767h0A11.783,11.783,0,0,1,390.223,431.8l.367,6.618v.367a9.349,9.349,0,0,1-8.823,9.557h-6.618Z"/><path class="cls-10" d="M375.149,446.871a9.029,9.029,0,0,1-8.825-9.191v-6.618A12.092,12.092,0,0,1,378.089,419.3h0a12.051,12.051,0,0,1,12.134,11.029l.367,6.618v.367a9.349,9.349,0,0,1-8.823,9.558h-6.618Z"/><path class="cls-11" d="M365.959,439.154l.368-7.722a12.093,12.093,0,0,1,11.765-11.765h0A11.783,11.783,0,0,1,390.226,430.7l.735,7.722"/><path class="cls-8" d="M409.053,449.448a8.949,8.949,0,0,1-8.824-8.825v-6.985a12.092,12.092,0,0,1,11.765-11.765h0a12.052,12.052,0,0,1,12.134,11.03l.367,6.618v.368a9.347,9.347,0,0,1-8.823,9.557h-6.619Z"/><path class="cls-9" d="M409.053,448.345a9.029,9.029,0,0,1-8.824-9.191v-6.618a12.093,12.093,0,0,1,11.765-11.767h0A11.784,11.784,0,0,1,424.128,431.8l.367,6.618v.367a9.349,9.349,0,0,1-8.823,9.557h-6.619Z"/><path class="cls-10" d="M409.053,446.871a9.028,9.028,0,0,1-8.824-9.191v-6.618A12.092,12.092,0,0,1,411.994,419.3h0a12.052,12.052,0,0,1,12.134,11.029l.367,6.618v.367a9.35,9.35,0,0,1-8.823,9.558h-6.619Z"/><path class="cls-11" d="M399.863,439.154l.369-7.722A12.093,12.093,0,0,1,412,419.667h0A11.782,11.782,0,0,1,424.13,430.7l.736,7.722"/><path class="cls-8" d="M442.821,449.448A8.948,8.948,0,0,1,434,440.623v-6.985a12.092,12.092,0,0,1,11.765-11.765h0A12.05,12.05,0,0,1,457.9,432.9l.367,6.618v.368a9.346,9.346,0,0,1-8.823,9.557h-6.618Z"/><path class="cls-9" d="M442.821,448.345A9.029,9.029,0,0,1,434,439.154v-6.618a12.093,12.093,0,0,1,11.765-11.767h0A11.783,11.783,0,0,1,457.9,431.8l.367,6.618v.367a9.349,9.349,0,0,1-8.823,9.557h-6.618Z"/><path class="cls-10" d="M442.821,446.871A9.028,9.028,0,0,1,434,437.68v-6.618A12.091,12.091,0,0,1,445.762,419.3h0A12.05,12.05,0,0,1,457.9,430.326l.367,6.618v.367a9.348,9.348,0,0,1-8.823,9.558h-6.618Z"/><path class="cls-11" d="M433.631,439.154l.368-7.722a12.093,12.093,0,0,1,11.765-11.765h0A11.783,11.783,0,0,1,457.9,430.7l.735,7.722"/><path class="cls-8" d="M449.445,487.86a8.947,8.947,0,0,1,8.825,8.824v6.985a12.092,12.092,0,0,1-11.765,11.765h0a12.049,12.049,0,0,1-12.134-11.029L434,497.787v-.369a9.347,9.347,0,0,1,8.823-9.557h6.618Z"/><path class="cls-9" d="M449.445,488.962a9.03,9.03,0,0,1,8.825,9.192v6.618a12.094,12.094,0,0,1-11.765,11.766h0a11.783,11.783,0,0,1-12.134-11.031L434,498.889v-.367a9.349,9.349,0,0,1,8.823-9.557h6.618Z"/><path class="cls-10" d="M449.445,490.436a9.03,9.03,0,0,1,8.825,9.192v6.618a12.093,12.093,0,0,1-11.765,11.765h0a12.051,12.051,0,0,1-12.134-11.03L434,500.363V500a9.348,9.348,0,0,1,8.823-9.557h6.618Z"/><path class="cls-11" d="M458.636,498.154l-.369,7.722A12.093,12.093,0,0,1,446.5,517.641h0a11.782,11.782,0,0,1-12.133-11.03l-.736-7.722"/><path class="cls-8" d="M415.678,487.86a8.946,8.946,0,0,1,8.824,8.824v6.985a12.09,12.09,0,0,1-11.765,11.765h0A12.049,12.049,0,0,1,400.6,504.405l-.367-6.618v-.369a9.346,9.346,0,0,1,8.823-9.557h6.618Z"/><path class="cls-9" d="M415.678,488.962a9.029,9.029,0,0,1,8.824,9.192v6.618a12.092,12.092,0,0,1-11.765,11.766h0A11.783,11.783,0,0,1,400.6,505.507l-.367-6.618v-.367a9.349,9.349,0,0,1,8.823-9.557h6.618Z"/><path class="cls-10" d="M415.678,490.436a9.029,9.029,0,0,1,8.824,9.192v6.618a12.092,12.092,0,0,1-11.765,11.765h0a12.05,12.05,0,0,1-12.133-11.03l-.367-6.618V500a9.347,9.347,0,0,1,8.823-9.557h6.618Z"/><path class="cls-11" d="M424.868,498.154l-.368,7.722a12.1,12.1,0,0,1-11.766,11.765h0a11.783,11.783,0,0,1-12.133-11.03l-.736-7.722"/><path class="cls-8" d="M381.773,487.86a8.948,8.948,0,0,1,8.825,8.824v6.985a12.092,12.092,0,0,1-11.766,11.765h0A12.049,12.049,0,0,1,366.7,504.405l-.367-6.618v-.369a9.346,9.346,0,0,1,8.823-9.557h6.618Z"/><path class="cls-9" d="M381.773,488.962a9.031,9.031,0,0,1,8.825,9.192v6.618a12.094,12.094,0,0,1-11.766,11.766h0A11.783,11.783,0,0,1,366.7,505.507l-.367-6.618v-.367a9.35,9.35,0,0,1,8.823-9.557h6.618Z"/><path class="cls-10" d="M381.773,490.436a9.031,9.031,0,0,1,8.825,9.192v6.618a12.093,12.093,0,0,1-11.766,11.765h0a12.05,12.05,0,0,1-12.133-11.03l-.367-6.618V500a9.347,9.347,0,0,1,8.823-9.557h6.618Z"/><path class="cls-11" d="M390.963,498.154l-.368,7.722a12.093,12.093,0,0,1-11.765,11.765h0a11.784,11.784,0,0,1-12.134-11.03l-.735-7.722"/><path class="cls-8" d="M348.005,487.86a8.947,8.947,0,0,1,8.825,8.824v6.985a12.091,12.091,0,0,1-11.765,11.765h0a12.049,12.049,0,0,1-12.134-11.029l-.367-6.618v-.369a9.347,9.347,0,0,1,8.823-9.557h6.618Z"/><path class="cls-9" d="M348.005,488.962a9.03,9.03,0,0,1,8.825,9.192v6.618a12.093,12.093,0,0,1-11.765,11.766h0a11.784,11.784,0,0,1-12.134-11.031l-.367-6.618v-.367a9.35,9.35,0,0,1,8.823-9.557h6.618Z"/><path class="cls-10" d="M348.005,490.436a9.03,9.03,0,0,1,8.825,9.192v6.618a12.092,12.092,0,0,1-11.765,11.765h0a12.051,12.051,0,0,1-12.134-11.03l-.367-6.618V500a9.349,9.349,0,0,1,8.823-9.557h6.618Z"/><path class="cls-11" d="M357.2,498.154l-.369,7.722a12.093,12.093,0,0,1-11.765,11.765h0a11.782,11.782,0,0,1-12.133-11.03l-.736-7.722"/><path class="cls-5" d="M467.02,449.285v40.629A3.461,3.461,0,0,1,463.684,493H331.842a3.46,3.46,0,0,1-3.336-3.086V449.285a3.462,3.462,0,0,1,3.336-3.085H463.684A3.486,3.486,0,0,1,467.02,449.285Z"/><path class="cls-6" d="M467.02,446.729v40.623a3.461,3.461,0,0,1-3.336,3.086H331.842a3.461,3.461,0,0,1-3.336-3.086V446.737a3.462,3.462,0,0,1,3.336-3.086H463.684A3.449,3.449,0,0,1,467.02,446.729Z"/><path class="cls-7" d="M467.02,444.156v40.618a3.463,3.463,0,0,1-3.336,3.086H331.842a3.463,3.463,0,0,1-3.336-3.086V444.156a3.461,3.461,0,0,1,3.336-3.086H463.684A3.465,3.465,0,0,1,467.02,444.156Z"/><path class="cls-8" d="M342.021,681.488a8.949,8.949,0,0,1-8.825-8.825v-6.985a12.093,12.093,0,0,1,11.765-11.765h0a12.051,12.051,0,0,1,12.134,11.03l.367,6.618v.368a9.345,9.345,0,0,1-8.823,9.557h-6.618Z"/><path class="cls-9" d="M342.021,680.385a9.03,9.03,0,0,1-8.825-9.191v-6.618a12.094,12.094,0,0,1,11.765-11.767h0A11.783,11.783,0,0,1,357.1,663.84l.367,6.618v.367a9.35,9.35,0,0,1-8.823,9.558h-6.618Z"/><path class="cls-10" d="M342.021,678.912a9.03,9.03,0,0,1-8.825-9.192V663.1a12.092,12.092,0,0,1,11.765-11.765h0A12.051,12.051,0,0,1,357.1,662.366l.367,6.618v.368a9.348,9.348,0,0,1-8.823,9.557h-6.618Z"/><path class="cls-11" d="M332.831,671.194l.368-7.722a12.093,12.093,0,0,1,11.765-11.765h0A11.783,11.783,0,0,1,357.1,662.736l.735,7.722"/><path class="cls-8" d="M375.788,681.488a8.947,8.947,0,0,1-8.824-8.825v-6.985a12.092,12.092,0,0,1,11.765-11.765h0a12.05,12.05,0,0,1,12.133,11.03l.368,6.618v.368a9.347,9.347,0,0,1-8.824,9.557h-6.618Z"/><path class="cls-9" d="M375.788,680.385a9.029,9.029,0,0,1-8.824-9.191v-6.618a12.093,12.093,0,0,1,11.765-11.767h0a11.782,11.782,0,0,1,12.133,11.031l.368,6.618v.367a9.351,9.351,0,0,1-8.824,9.558h-6.618Z"/><path class="cls-10" d="M375.788,678.912a9.029,9.029,0,0,1-8.824-9.192V663.1a12.092,12.092,0,0,1,11.765-11.765h0a12.05,12.05,0,0,1,12.133,11.029l.368,6.618v.368a9.349,9.349,0,0,1-8.824,9.557h-6.618Z"/><path class="cls-11" d="M366.6,671.194l.369-7.722a12.093,12.093,0,0,1,11.765-11.765h0a11.782,11.782,0,0,1,12.133,11.029l.736,7.722"/><path class="cls-8" d="M409.693,681.488a8.947,8.947,0,0,1-8.824-8.825v-6.985a12.092,12.092,0,0,1,11.765-11.765h0a12.05,12.05,0,0,1,12.133,11.03l.367,6.618v.368a9.345,9.345,0,0,1-8.823,9.557h-6.618Z"/><path class="cls-9" d="M409.693,680.385a9.029,9.029,0,0,1-8.824-9.191v-6.618a12.093,12.093,0,0,1,11.765-11.767h0a11.783,11.783,0,0,1,12.133,11.031l.367,6.618v.367a9.35,9.35,0,0,1-8.823,9.558h-6.618Z"/><path class="cls-10" d="M409.693,678.912a9.029,9.029,0,0,1-8.824-9.192V663.1a12.091,12.091,0,0,1,11.765-11.765h0a12.05,12.05,0,0,1,12.133,11.029l.367,6.618v.368a9.347,9.347,0,0,1-8.823,9.557h-6.618Z"/><path class="cls-11" d="M400.5,671.194l.368-7.722a12.094,12.094,0,0,1,11.765-11.765h0a11.783,11.783,0,0,1,12.134,11.029l.735,7.722"/><path class="cls-8" d="M443.461,681.488a8.949,8.949,0,0,1-8.825-8.825v-6.985A12.093,12.093,0,0,1,446.4,653.913h0a12.051,12.051,0,0,1,12.134,11.03l.367,6.618v.368a9.346,9.346,0,0,1-8.823,9.557h-6.618Z"/><path class="cls-9" d="M443.461,680.385a9.03,9.03,0,0,1-8.825-9.191v-6.618A12.094,12.094,0,0,1,446.4,652.809h0a11.783,11.783,0,0,1,12.134,11.031l.367,6.618v.367a9.35,9.35,0,0,1-8.823,9.558h-6.618Z"/><path class="cls-10" d="M443.461,678.912a9.03,9.03,0,0,1-8.825-9.192V663.1A12.092,12.092,0,0,1,446.4,651.337h0a12.051,12.051,0,0,1,12.134,11.029l.367,6.618v.368a9.348,9.348,0,0,1-8.823,9.557h-6.618Z"/><path class="cls-11" d="M434.271,671.194l.368-7.722A12.093,12.093,0,0,1,446.4,651.707h0a11.783,11.783,0,0,1,12.134,11.029l.735,7.722"/><path class="cls-8" d="M450.085,719.9a8.948,8.948,0,0,1,8.825,8.824v6.985a12.093,12.093,0,0,1-11.766,11.766h0a12.05,12.05,0,0,1-12.133-11.03l-.367-6.618v-.369a9.346,9.346,0,0,1,8.823-9.557h6.618Z"/><path class="cls-9" d="M450.085,721a9.031,9.031,0,0,1,8.825,9.192v6.618a12.093,12.093,0,0,1-11.766,11.766h0a11.783,11.783,0,0,1-12.133-11.031l-.367-6.618v-.367a9.35,9.35,0,0,1,8.823-9.557h6.618Z"/><path class="cls-10" d="M450.085,722.476a9.031,9.031,0,0,1,8.825,9.192v6.618a12.093,12.093,0,0,1-11.766,11.765h0a12.05,12.05,0,0,1-12.133-11.03l-.367-6.618v-.367a9.347,9.347,0,0,1,8.823-9.557h6.618Z"/><path class="cls-11" d="M459.275,730.194l-.368,7.722a12.093,12.093,0,0,1-11.765,11.765h0a11.784,11.784,0,0,1-12.134-11.03l-.735-7.722"/><path class="cls-8" d="M416.317,719.9a8.947,8.947,0,0,1,8.825,8.824v6.985a12.092,12.092,0,0,1-11.765,11.766h0a12.051,12.051,0,0,1-12.134-11.03l-.367-6.618v-.369A9.347,9.347,0,0,1,409.7,719.9h6.618Z"/><path class="cls-9" d="M416.317,721a9.03,9.03,0,0,1,8.825,9.192v6.618a12.092,12.092,0,0,1-11.765,11.766h0a11.783,11.783,0,0,1-12.134-11.031l-.367-6.618v-.367a9.35,9.35,0,0,1,8.823-9.557h6.618Z"/><path class="cls-10" d="M416.317,722.476a9.03,9.03,0,0,1,8.825,9.192v6.618a12.092,12.092,0,0,1-11.765,11.765h0a12.051,12.051,0,0,1-12.134-11.03l-.367-6.618v-.367a9.349,9.349,0,0,1,8.823-9.557h6.618Z"/><path class="cls-11" d="M425.508,730.194l-.369,7.722a12.093,12.093,0,0,1-11.765,11.765h0a11.782,11.782,0,0,1-12.133-11.03l-.736-7.722"/><path class="cls-8" d="M382.413,719.9a8.946,8.946,0,0,1,8.824,8.824v6.985a12.092,12.092,0,0,1-11.765,11.766h0a12.05,12.05,0,0,1-12.133-11.03l-.367-6.618v-.369A9.347,9.347,0,0,1,375.8,719.9h6.618Z"/><path class="cls-9" d="M382.413,721a9.029,9.029,0,0,1,8.824,9.192v6.618a12.092,12.092,0,0,1-11.765,11.766h0a11.783,11.783,0,0,1-12.133-11.031l-.367-6.618v-.367a9.349,9.349,0,0,1,8.823-9.557h6.618Z"/><path class="cls-10" d="M382.413,722.476a9.029,9.029,0,0,1,8.824,9.192v6.618a12.092,12.092,0,0,1-11.765,11.765h0a12.05,12.05,0,0,1-12.133-11.03l-.367-6.618v-.367a9.347,9.347,0,0,1,8.823-9.557h6.618Z"/><path class="cls-11" d="M391.6,730.194l-.369,7.722a12.093,12.093,0,0,1-11.765,11.765h0a11.783,11.783,0,0,1-12.133-11.03l-.736-7.722"/><path class="cls-8" d="M348.645,719.9a8.948,8.948,0,0,1,8.825,8.824v6.985a12.093,12.093,0,0,1-11.765,11.766h0a12.051,12.051,0,0,1-12.134-11.03l-.367-6.618v-.369a9.347,9.347,0,0,1,8.823-9.557h6.618Z"/><path class="cls-9" d="M348.645,721a9.031,9.031,0,0,1,8.825,9.192v6.618a12.093,12.093,0,0,1-11.765,11.766h0a11.783,11.783,0,0,1-12.134-11.03l-.367-6.619v-.367a9.35,9.35,0,0,1,8.823-9.557h6.618Z"/><path class="cls-10" d="M348.645,722.476a9.031,9.031,0,0,1,8.825,9.192v6.618a12.093,12.093,0,0,1-11.765,11.765h0a12.051,12.051,0,0,1-12.134-11.03L333.2,732.4v-.367a9.347,9.347,0,0,1,8.823-9.557h6.618Z"/><path class="cls-11" d="M357.835,730.194l-.368,7.722A12.093,12.093,0,0,1,345.7,749.681h0a11.784,11.784,0,0,1-12.134-11.03l-.735-7.722"/><path class="cls-5" d="M467.66,681.325v40.629a3.46,3.46,0,0,1-3.337,3.086H332.482a3.461,3.461,0,0,1-3.337-3.086V681.326a3.463,3.463,0,0,1,3.337-3.086H464.323A3.484,3.484,0,0,1,467.66,681.325Z"/><path class="cls-6" d="M467.66,678.769v40.623a3.461,3.461,0,0,1-3.337,3.086H332.482a3.461,3.461,0,0,1-3.337-3.086V678.777a3.463,3.463,0,0,1,3.337-3.086H464.323A3.449,3.449,0,0,1,467.66,678.769Z"/><path class="cls-7" d="M467.66,676.2v40.618a3.464,3.464,0,0,1-3.337,3.086H332.482a3.463,3.463,0,0,1-3.337-3.086V676.2a3.462,3.462,0,0,1,3.337-3.086H464.323A3.465,3.465,0,0,1,467.66,676.2Z"/><path class="cls-8" d="M198.885,624.606a8.948,8.948,0,0,1-8.825-8.825V608.8a12.093,12.093,0,0,1,11.765-11.765h0a12.051,12.051,0,0,1,12.134,11.03l.367,6.618v.368a9.348,9.348,0,0,1-8.823,9.558h-6.618Z"/><path class="cls-9" d="M198.885,623.5a9.029,9.029,0,0,1-8.825-9.191v-6.618a12.1,12.1,0,0,1,11.765-11.767h0a11.784,11.784,0,0,1,12.134,11.031l.367,6.618v.367A9.35,9.35,0,0,1,205.5,623.5h-6.618Z"/><path class="cls-10" d="M198.885,622.03a9.03,9.03,0,0,1-8.825-9.192V606.22a12.092,12.092,0,0,1,11.765-11.765h0a12.051,12.051,0,0,1,12.134,11.03l.367,6.618v.367a9.348,9.348,0,0,1-8.823,9.557h-6.618Z"/><path class="cls-11" d="M189.694,614.312l.369-7.722a12.093,12.093,0,0,1,11.765-11.765h0a11.782,11.782,0,0,1,12.133,11.029l.736,7.722"/><path class="cls-8" d="M230.811,689.62a8.948,8.948,0,0,1,8.824-8.825h6.985a12.092,12.092,0,0,1,11.765,11.765h0a12.051,12.051,0,0,1-11.029,12.134l-6.618.367h-.369a9.346,9.346,0,0,1-9.557-8.823h0V689.62Z"/><path class="cls-9" d="M231.913,689.62a9.03,9.03,0,0,1,9.192-8.825h6.618a12.094,12.094,0,0,1,11.766,11.765h0a11.783,11.783,0,0,1-11.031,12.134l-6.618.367h-.367a9.349,9.349,0,0,1-9.557-8.823h0V689.62Z"/><path class="cls-10" d="M233.387,689.62a9.03,9.03,0,0,1,9.191-8.825H249.2a12.093,12.093,0,0,1,11.766,11.765h0a12.051,12.051,0,0,1-11.03,12.134l-6.618.367h-.367a9.347,9.347,0,0,1-9.557-8.823h0V689.62Z"/><path class="cls-11" d="M241.105,680.43l7.722.368a12.093,12.093,0,0,1,11.765,11.765h0a11.784,11.784,0,0,1-11.03,12.134l-7.722.735"/><path class="cls-8" d="M222.946,650.6a8.946,8.946,0,0,1,8.824-8.824h6.985a12.092,12.092,0,0,1,11.766,11.765h0a12.05,12.05,0,0,1-11.03,12.133l-6.618.368h-.368a9.349,9.349,0,0,1-9.558-8.824h0V650.6Z"/><path class="cls-9" d="M224.048,650.6a9.029,9.029,0,0,1,9.192-8.824h6.618a12.092,12.092,0,0,1,11.766,11.765h0a11.781,11.781,0,0,1-11.03,12.133l-6.619.368h-.367a9.35,9.35,0,0,1-9.557-8.824h0V650.6Z"/><path class="cls-10" d="M225.522,650.6a9.029,9.029,0,0,1,9.192-8.824h6.618A12.092,12.092,0,0,1,253.1,653.542h0a12.05,12.05,0,0,1-11.03,12.133l-6.618.368h-.367a9.349,9.349,0,0,1-9.557-8.824h0V650.6Z"/><path class="cls-11" d="M233.24,641.411l7.722.369a12.093,12.093,0,0,1,11.765,11.765h0a11.782,11.782,0,0,1-11.03,12.133l-7.721.736"/><path class="cls-8" d="M177.343,657.224a8.947,8.947,0,0,1-8.824,8.824h-6.985a12.092,12.092,0,0,1-11.765-11.765h0A12.052,12.052,0,0,1,160.8,642.149l6.618-.367h.369a9.347,9.347,0,0,1,9.557,8.823h0v6.619Z"/><path class="cls-9" d="M176.241,657.224a9.029,9.029,0,0,1-9.192,8.824h-6.618a12.092,12.092,0,0,1-11.766-11.765h0A11.784,11.784,0,0,1,159.7,642.149l6.618-.367h.367a9.35,9.35,0,0,1,9.557,8.824h0v6.618Z"/><path class="cls-10" d="M174.767,657.224a9.029,9.029,0,0,1-9.191,8.824h-6.618a12.092,12.092,0,0,1-11.766-11.765h0a12.052,12.052,0,0,1,11.03-12.134l6.618-.367h.367a9.349,9.349,0,0,1,9.557,8.824h0v6.618Z"/><path class="cls-11" d="M167.049,666.414l-7.722-.369a12.093,12.093,0,0,1-11.765-11.765h0a11.783,11.783,0,0,1,11.03-12.133l7.722-.736"/><path class="cls-8" d="M172.379,696.242a8.948,8.948,0,0,1-8.825,8.824h-6.985A12.091,12.091,0,0,1,144.8,693.3h0a12.05,12.05,0,0,1,11.03-12.133l6.618-.367h.368a9.346,9.346,0,0,1,9.557,8.823h0v6.618Z"/><path class="cls-9" d="M171.276,696.242a9.029,9.029,0,0,1-9.191,8.824h-6.619A12.092,12.092,0,0,1,143.7,693.3h0a11.783,11.783,0,0,1,11.031-12.133l6.618-.367h.367a9.349,9.349,0,0,1,9.557,8.823h0v6.618Z"/><path class="cls-10" d="M169.8,696.242a9.028,9.028,0,0,1-9.191,8.824h-6.618A12.09,12.09,0,0,1,142.228,693.3h0a12.049,12.049,0,0,1,11.029-12.133l6.618-.367h.367a9.348,9.348,0,0,1,9.558,8.823h0v6.618Z"/><path class="cls-11" d="M162.085,705.432l-7.722-.368A12.1,12.1,0,0,1,142.6,693.3h0a11.784,11.784,0,0,1,11.03-12.134l7.722-.735"/><path class="cls-7" d="M154.167,755.44v-35.8a2.877,2.877,0,0,1,2.626-2.719H260.567a2.877,2.877,0,0,1,2.626,2.719v35.8a2.874,2.874,0,0,1-2.626,2.719H156.793A2.878,2.878,0,0,1,154.167,755.44Z"/><path class="cls-5" d="M167.17,715.117h73.153l-9.4-83.343a8.187,8.187,0,0,0-8.215-7.168H184.386a8.185,8.185,0,0,0-8.218,7.2Z"/><path class="cls-6" d="M167.17,717.083h73.153l-9.4-83.344a8.187,8.187,0,0,0-8.215-7.168H184.386a8.185,8.185,0,0,0-8.218,7.2Z"/><path class="cls-7" d="M167.17,719.6h73.153l-9.4-83.343a8.187,8.187,0,0,0-8.215-7.168H184.386a8.185,8.185,0,0,0-8.218,7.2Z"/><circle class="cls-5" cx="205.314" cy="493.463" r="18.369"/><circle class="cls-6" cx="203.97" cy="492.566" r="18.369"/><circle class="cls-12" cx="202.179" cy="491.67" r="18.369"/><circle class="cls-5" cx="525.449" cy="690.12" r="10.211"/><circle class="cls-6" cx="524.702" cy="689.621" r="10.211"/><circle class="cls-12" cx="523.706" cy="689.123" r="10.211"/><circle class="cls-5" cx="525.573" cy="721.501" r="10.211"/><circle class="cls-6" cx="524.826" cy="721.002" r="10.211"/><circle class="cls-12" cx="523.83" cy="720.504" r="10.211"/><circle class="cls-5" cx="580.938" cy="691.117" r="10.211"/><circle class="cls-6" cx="580.191" cy="690.618" r="10.211"/><circle class="cls-12" cx="579.195" cy="690.12" r="10.211"/><circle class="cls-5" cx="581.062" cy="722.498" r="10.211"/><circle class="cls-6" cx="580.315" cy="721.999" r="10.211"/><circle class="cls-12" cx="579.319" cy="721.501" r="10.211"/><circle class="cls-5" cx="613.791" cy="844.908" r="14.261"/><circle class="cls-6" cx="612.748" cy="844.211" r="14.261"/><circle class="cls-12" cx="611.357" cy="843.516" r="14.261"/><circle class="cls-5" cx="656.612" cy="822.379" r="14.261"/><circle class="cls-6" cx="655.569" cy="821.682" r="14.261"/><circle class="cls-12" cx="654.177" cy="820.986" r="14.261"/><circle class="cls-5" cx="577.246" cy="818.19" r="14.261"/><circle class="cls-6" cx="576.202" cy="817.493" r="14.261"/><circle class="cls-12" cx="574.811" cy="816.797" r="14.261"/><circle class="cls-5" cx="960.855" cy="820.514" r="13.762"/><circle class="cls-6" cx="959.848" cy="819.842" r="13.762"/><circle class="cls-12" cx="958.506" cy="819.17" r="13.762"/><path class="cls-5" d="M562.679,751.438H531.5c-1.185,0-2.368-1.427-2.368-2.854V635.817c0-1.427,1.183-2.853,2.368-2.853h31.179c1.183,0,2.368,1.428,2.368,2.854V748.584C565.037,750.011,563.852,751.438,562.679,751.438Z"/><path class="cls-6" d="M564.641,751.438H533.466c-1.185,0-2.368-1.427-2.368-2.854V635.817c0-1.427,1.183-2.853,2.368-2.853h31.169c1.183,0,2.368,1.428,2.368,2.854V748.584C567.009,750.011,565.824,751.438,564.641,751.438Z"/><path class="cls-7" d="M566.616,751.438H535.445c-1.183,0-2.368-1.427-2.368-2.854V635.817c0-1.427,1.185-2.853,2.368-2.853h31.171c1.185,0,2.368,1.428,2.368,2.854V748.584C568.982,750.011,567.8,751.438,566.616,751.438Z"/><polygon class="cls-7" points="654.177 794.188 654.177 663.376 565.047 663.376 565.047 632.963 687.379 632.963 687.379 794.188 654.177 794.188"/><path class="cls-13" d="M241.417,378.829h32.668a2.5,2.5,0,0,0,2.253-2.656v-30.4c-.188-.884-.939-1.77-1.5-1.476H201.99a1.9,1.9,0,0,0-1.5,2.068v29.222c.187,1.77,1.126,3.246,2.253,3.246h38.676Z"/><path class="cls-14" d="M241.98,377.059h32.668A2.728,2.728,0,0,0,276.9,374.7V346.07c-.375-.884-.938-1.476-1.5-1.476H202.553a1.9,1.9,0,0,0-1.5,2.067V374.4c.188,1.771,1.126,3.246,2.253,2.952h33.231Z"/><path class="cls-15" d="M273.146,357.876a50.977,50.977,0,0,1,.939-9.448c-7.886,2.657-26.846,3.541-35.109,3.541H237.1c-7.134.3-27.41-.589-34.357-2.657a60.985,60.985,0,0,1,.938,8.56c0,6.493-1.126,12.094-3,13.872.188,1.77,1.127,3.246,2.253,2.949h71.345a2.727,2.727,0,0,0,2.253-2.36C274.836,371.747,273.146,365.549,273.146,357.876Z"/><path class="cls-16" d="M276.9,343.71c-.375-.886-.938-1.476-1.5-1.476H202.553a1.9,1.9,0,0,0-1.5,2.065,4.014,4.014,0,0,1,1.126,2.068h72.847C275.4,344.891,275.963,344.005,276.9,343.71Z"/><path class="cls-17" d="M237.286,354.924h1.878c8.07.3,27.223-.886,35.109-3.541a14.917,14.917,0,0,1,.939-2.656H202.365a21.131,21.131,0,0,1,.939,3.246C209.875,354.048,230.339,355.219,237.286,354.924Z"/><path class="cls-16" d="M237.286,352.562h1.878c8.07.3,27.223-.884,35.109-3.541a14.912,14.912,0,0,1,.939-2.645H202.365a21.163,21.163,0,0,1,.939,3.246C209.875,351.969,230.339,352.562,237.286,352.562Z"/><path class="cls-16" d="M203.867,357.876a31.857,31.857,0,0,0-.939-8.56,12.009,12.009,0,0,0-2.065-5.311v27.742C202.553,369.975,203.867,364.663,203.867,357.876Z"/><path class="cls-16" d="M273.146,357.876a41.881,41.881,0,0,1,.939-8.56,8.8,8.8,0,0,1,2.635-5.311v27.742C274.648,369.975,273.146,364.369,273.146,357.876Z"/><circle class="cls-5" cx="252.397" cy="384.101" r="12.929"/><circle class="cls-6" cx="251.451" cy="383.469" r="12.929"/><circle class="cls-12" cx="250.19" cy="382.839" r="12.929"/><path class="cls-18" d="M188.145,474.194a8.645,8.645,0,0,1-11-4.757l-4.737-12.22a12.93,12.93,0,0,1,6.188-16.678l8.383-4.217a13.543,13.543,0,0,1,17.35,4.933l6.68,11.315.3.644h0a8.432,8.432,0,0,1-3.774,11.311l-.043.022-18.375,9.026Z"/><path class="cls-14" d="M186.226,474.463h0a8.641,8.641,0,0,1-11-4.757l-4.737-12.219a12.94,12.94,0,0,1,6.188-16.679l8.385-4.218a13.54,13.54,0,0,1,17.349,4.934l6.682,11.313.6,1.29a8.346,8.346,0,0,1-4.421,10.37l-18.058,9.033Z"/><path class="cls-19" d="M183.642,475.981a8.539,8.539,0,0,1-10.65-5.69l0-.01h0l-4.762-11.58a12.937,12.937,0,0,1,6.185-16.68L182.8,437.8a13.545,13.545,0,0,1,17.35,4.936l6.681,11.311.3.647h0a8.435,8.435,0,0,1-3.779,11.314l-.038.019-18.375,9.027Z"/><path class="cls-20" d="M185.953,472.866a6.527,6.527,0,0,1-8.763-2.9,6.345,6.345,0,0,1-.353-.848l-3.264-8.359a11.761,11.761,0,0,1,5.489-14.469l4.836-2.411a11.341,11.341,0,0,1,14.819,4.546l4.86,8.086-.007.317h0a6.737,6.737,0,0,1-3.109,8.816h0l-14.508,7.226Z"/><path class="cls-18" d="M228.441,500.922a8.645,8.645,0,0,1,11.867-1.651l10.4,7.978a12.931,12.931,0,0,1,3.381,17.466l-4.971,7.959a13.544,13.544,0,0,1-17.387,4.8l-11.587-6.2-.589-.4h0A8.431,8.431,0,0,1,216.9,519.26l.025-.041,11.008-17.261Z"/><path class="cls-14" d="M229.941,499.7h0a8.641,8.641,0,0,1,11.866-1.651l10.4,7.978a12.941,12.941,0,0,1,3.381,17.466l-4.973,7.961a13.538,13.538,0,0,1-17.385,4.8l-11.589-6.193-1.182-.79a8.345,8.345,0,0,1-1.611-11.157l10.733-17.1Z"/><path class="cls-19" d="M231.36,497.055a8.539,8.539,0,0,1,12.056-.674l.008.007h0l10.086,7.419a12.938,12.938,0,0,1,3.385,17.465l-4.972,7.961a13.547,13.547,0,0,1-17.389,4.8l-11.586-6.192-.591-.4h0a8.435,8.435,0,0,1-2.652-11.63l.023-.036,11.008-17.261Z"/><path class="cls-20" d="M231,500.917a6.527,6.527,0,0,1,9-2.073,6.455,6.455,0,0,1,.742.541l7.133,5.445a11.762,11.762,0,0,1,2.829,15.215l-2.878,4.573a11.341,11.341,0,0,1-15.024,3.817l-8.354-4.382-.159-.275h0a6.738,6.738,0,0,1-1.925-9.148h0L231,500.917Z"/><path class="cls-18" d="M194.834,518.837a8.644,8.644,0,0,1-.688,11.961l-9.848,8.648a12.932,12.932,0,0,1-17.79-.08l-6.84-6.424a13.546,13.546,0,0,1-1.33-17.989l8.331-10.161.5-.5h0a8.431,8.431,0,0,1,11.919-.343l.035.033,14.791,14.154Z"/><path class="cls-14" d="M195.747,520.547h0a8.64,8.64,0,0,1-.689,11.96l-9.848,8.648a12.939,12.939,0,0,1-17.789-.08l-6.843-6.425a13.539,13.539,0,0,1-1.328-17.987l8.329-10.164,1-1a8.346,8.346,0,0,1,11.257.588l14.689,13.854Z"/><path class="cls-19" d="M198.06,522.452a8.539,8.539,0,0,1-1.683,11.957l-.009.006h0l-9.238,8.451a12.937,12.937,0,0,1-17.79-.075l-6.843-6.426a13.544,13.544,0,0,1-1.325-17.989l8.326-10.161.5-.5h0a8.434,8.434,0,0,1,11.923-.34l.031.03,14.791,14.154Z"/><path class="cls-20" d="M194.341,521.352a6.525,6.525,0,0,1-.391,9.85l-6.728,5.938a11.763,11.763,0,0,1-15.475-.183l-3.926-3.713A11.34,11.34,0,0,1,167,517.765l5.922-7.343.3-.1h0a6.737,6.737,0,0,1,9.347-.11h0l11.772,11.142Z"/><path class="cls-18" d="M983.217,832.532a8.645,8.645,0,0,1-1.654-11.866l7.975-10.4A12.932,12.932,0,0,1,1007,806.88l7.96,4.969a13.544,13.544,0,0,1,4.808,17.386l-6.193,11.589-.395.588h0a8.431,8.431,0,0,1-11.624,2.658l-.041-.026-17.264-11Z"/><path class="cls-14" d="M981.989,831.033h0a8.642,8.642,0,0,1-1.653-11.866l7.975-10.4a12.94,12.94,0,0,1,17.465-3.386l7.962,4.97a13.537,13.537,0,0,1,4.8,17.384l-6.189,11.591-.79,1.182a8.347,8.347,0,0,1-11.157,1.615L983.3,831.394Z"/><path class="cls-19" d="M979.349,829.614a8.537,8.537,0,0,1-.677-12.055l.007-.008h0l7.416-10.089a12.938,12.938,0,0,1,17.464-3.39l7.963,4.97a13.546,13.546,0,0,1,4.8,17.387l-6.188,11.588-.4.592h0a8.434,8.434,0,0,1-11.629,2.654l-.036-.022-17.264-11Z"/><path class="cls-20" d="M983.211,829.969a6.526,6.526,0,0,1-1.534-9.738l5.443-7.134a11.762,11.762,0,0,1,15.214-2.834l4.574,2.878a11.34,11.34,0,0,1,3.821,15.022l-4.38,8.356-.274.158h0a6.737,6.737,0,0,1-9.147,1.928h0l-13.717-8.636Z"/><path class="cls-18" d="M919.806,840.839a8.644,8.644,0,0,1-11.007-4.73L904.031,823.9a12.932,12.932,0,0,1,6.147-16.694l8.372-4.237a13.544,13.544,0,0,1,17.363,4.889l6.708,11.3.3.643h0a8.432,8.432,0,0,1-3.745,11.321l-.044.022-18.352,9.072Z"/><path class="cls-14" d="M917.888,841.112h0a8.64,8.64,0,0,1-11.007-4.729l-4.768-12.208a12.939,12.939,0,0,1,6.147-16.694l8.375-4.239A13.54,13.54,0,0,1,934,808.133l6.711,11.3.6,1.288a8.346,8.346,0,0,1-4.4,10.381l-18.035,9.078Z"/><path class="cls-19" d="M915.308,842.637a8.539,8.539,0,0,1-10.665-5.663l0-.011h0L899.849,825.4a12.937,12.937,0,0,1,6.143-16.695l8.375-4.239a13.545,13.545,0,0,1,17.362,4.894l6.709,11.294.3.646h0a8.434,8.434,0,0,1-3.751,11.323l-.038.019L916.6,841.709Z"/><path class="cls-20" d="M917.611,839.517a6.525,6.525,0,0,1-9.125-3.73l-3.285-8.351a11.761,11.761,0,0,1,5.453-14.483l4.83-2.423a11.34,11.34,0,0,1,14.83,4.51l4.881,8.073-.006.317h0a6.739,6.739,0,0,1-3.088,8.824h0l-14.49,7.262Z"/><circle class="cls-5" cx="1175.453" cy="819.733" r="13.762"/><circle class="cls-6" cx="1174.447" cy="819.06" r="13.762"/><circle class="cls-12" cx="1173.104" cy="818.389" r="13.762"/><path class="cls-18" d="M1197.815,831.751a8.644,8.644,0,0,1-1.653-11.866l7.975-10.4A12.93,12.93,0,0,1,1221.6,806.1l7.961,4.968a13.545,13.545,0,0,1,4.807,17.386l-6.192,11.589-.4.589h0a8.431,8.431,0,0,1-11.624,2.658l-.041-.026-17.264-11Z"/><path class="cls-14" d="M1196.588,830.251h0a8.641,8.641,0,0,1-1.654-11.866l7.975-10.4a12.94,12.94,0,0,1,17.465-3.385l7.963,4.97a13.539,13.539,0,0,1,4.805,17.384l-6.19,11.59-.79,1.182a8.346,8.346,0,0,1-11.157,1.615L1197.9,830.613Z"/><path class="cls-19" d="M1193.948,828.833a8.539,8.539,0,0,1-.678-12.056l.008-.008h0l7.415-10.088a12.937,12.937,0,0,1,17.464-3.39l7.963,4.97a13.545,13.545,0,0,1,4.8,17.387l-6.189,11.588-.4.591h0a8.434,8.434,0,0,1-11.629,2.655l-.036-.023-17.264-11Z"/><path class="cls-20" d="M1197.809,829.188a6.526,6.526,0,0,1-1.534-9.738l5.443-7.134a11.761,11.761,0,0,1,15.214-2.834l4.574,2.877a11.34,11.34,0,0,1,3.821,15.022l-4.379,8.356-.275.159h0a6.737,6.737,0,0,1-9.147,1.927h0l-13.716-8.635Z"/><path class="cls-18" d="M1134.405,840.057a8.645,8.645,0,0,1-11.008-4.729l-4.768-12.208a12.932,12.932,0,0,1,6.147-16.694l8.372-4.238a13.545,13.545,0,0,1,17.363,4.89l6.708,11.3.3.644h0a8.43,8.43,0,0,1-3.745,11.32l-.043.022-18.352,9.072Z"/><path class="cls-14" d="M1132.486,840.331h0a8.64,8.64,0,0,1-11.007-4.729l-4.768-12.208a12.939,12.939,0,0,1,6.147-16.694l8.375-4.239a13.538,13.538,0,0,1,17.36,4.891l6.711,11.3.6,1.288a8.346,8.346,0,0,1-4.395,10.38l-18.036,9.079Z"/><path class="cls-19" d="M1129.906,841.855a8.537,8.537,0,0,1-10.664-5.663l0-.01h0l-4.791-11.568a12.936,12.936,0,0,1,6.143-16.7l8.375-4.238a13.543,13.543,0,0,1,17.361,4.893l6.71,11.294.3.646h0a8.435,8.435,0,0,1-3.751,11.324l-.038.019-18.352,9.072Z"/><path class="cls-20" d="M1132.209,838.735a6.524,6.524,0,0,1-9.125-3.729l-3.285-8.351a11.762,11.762,0,0,1,5.454-14.483l4.83-2.423a11.34,11.34,0,0,1,14.83,4.51l4.88,8.073-.006.317h0a6.735,6.735,0,0,1-3.088,8.823h0l-14.49,7.263Z"/><circle class="cls-5" cx="1350.574" cy="819.858" r="13.762"/><circle class="cls-6" cx="1349.567" cy="819.186" r="13.762"/><circle class="cls-12" cx="1348.225" cy="818.515" r="13.762"/><path class="cls-18" d="M1372.936,831.876a8.645,8.645,0,0,1-1.654-11.866l7.975-10.4a12.931,12.931,0,0,1,17.465-3.385l7.96,4.968a13.545,13.545,0,0,1,4.808,17.386l-6.193,11.589-.395.589h0a8.433,8.433,0,0,1-11.625,2.658l-.041-.026-17.263-11Z"/><path class="cls-14" d="M1371.708,830.377h0a8.641,8.641,0,0,1-1.653-11.866l7.975-10.4a12.94,12.94,0,0,1,17.464-3.386l7.963,4.97a13.54,13.54,0,0,1,4.8,17.385l-6.19,11.59-.79,1.182a8.345,8.345,0,0,1-11.156,1.615l-17.106-10.728Z"/><path class="cls-19" d="M1369.068,828.958a8.537,8.537,0,0,1-.677-12.055l.007-.008h0l7.416-10.089a12.937,12.937,0,0,1,17.464-3.389l7.963,4.97a13.545,13.545,0,0,1,4.8,17.387l-6.188,11.588-.4.591h0a8.436,8.436,0,0,1-11.63,2.655l-.036-.023-17.263-11Z"/><path class="cls-20" d="M1372.93,829.313a6.527,6.527,0,0,1-2.075-9,6.447,6.447,0,0,1,.54-.742l5.444-7.135a11.762,11.762,0,0,1,15.214-2.833l4.574,2.877a11.341,11.341,0,0,1,3.821,15.022l-4.38,8.356-.274.159h0a6.738,6.738,0,0,1-9.148,1.927h0l-13.716-8.636Z"/><path class="cls-18" d="M1309.525,840.183a8.643,8.643,0,0,1-11.007-4.73l-4.768-12.207a12.931,12.931,0,0,1,6.147-16.695l8.372-4.237a13.545,13.545,0,0,1,17.363,4.89l6.708,11.3.3.643h0a8.432,8.432,0,0,1-3.745,11.321l-.044.022L1310.5,839.56Z"/><path class="cls-14" d="M1307.607,840.457h0a8.643,8.643,0,0,1-11.008-4.73l-4.767-12.208a12.94,12.94,0,0,1,6.146-16.694l8.375-4.239a13.541,13.541,0,0,1,17.361,4.891l6.71,11.3.6,1.288a8.346,8.346,0,0,1-4.4,10.381l-18.035,9.079Z"/><path class="cls-19" d="M1305.026,841.981a8.539,8.539,0,0,1-10.664-5.663l0-.01h0l-4.791-11.568a12.938,12.938,0,0,1,6.143-16.7l8.375-4.239a13.545,13.545,0,0,1,17.362,4.894l6.709,11.294.3.646h0a8.435,8.435,0,0,1-3.75,11.324l-.038.019-18.352,9.072Z"/><path class="cls-20" d="M1307.33,838.861a6.531,6.531,0,0,1-9.126-3.73l-3.284-8.35a11.761,11.761,0,0,1,5.453-14.483l4.83-2.423a11.339,11.339,0,0,1,14.83,4.509l4.881,8.073-.007.318h0a6.737,6.737,0,0,1-3.087,8.823h0l-14.49,7.263Z"/><circle class="cls-5" cx="617.429" cy="149.386" r="13.762"/><circle class="cls-6" cx="616.728" cy="150.374" r="13.762"/><circle class="cls-12" cx="616.02" cy="151.697" r="13.762"/><path class="cls-18" d="M644.481,130.732a8.644,8.644,0,0,1-11.907,1.323L622.4,123.793a12.932,12.932,0,0,1-2.9-17.553l5.188-7.818A13.545,13.545,0,0,1,642.2,94.1l11.412,6.513.578.412h0a8.432,8.432,0,0,1,2.332,11.694l-.027.04L645.02,129.71Z"/><path class="cls-14" d="M642.948,131.918h0a8.641,8.641,0,0,1-11.907,1.322l-10.174-8.262a12.94,12.94,0,0,1-2.9-17.552l5.19-7.821a13.538,13.538,0,0,1,17.511-4.319l11.414,6.511,1.159.822a8.347,8.347,0,0,1,1.3,11.2l-11.2,16.8Z"/><path class="cls-19" d="M641.457,134.517a8.538,8.538,0,0,1-12.07.341l-.008-.007h0l-9.878-7.694a12.938,12.938,0,0,1-2.9-17.552l5.19-7.821A13.544,13.544,0,0,1,639.3,97.467l11.411,6.509.58.413h0a8.435,8.435,0,0,1,2.33,11.7l-.024.035-11.48,16.951Z"/><path class="cls-20" d="M641.919,130.667a6.527,6.527,0,0,1-9.049,1.823,6.378,6.378,0,0,1-.728-.561l-6.979-5.64A11.763,11.763,0,0,1,622.754,111l3-4.492a11.34,11.34,0,0,1,15.123-3.4l8.23,4.61.151.279h0a6.737,6.737,0,0,1,1.672,9.2h0l-9.015,13.471Z"/><path class="cls-18" d="M652.267,186.764a8.644,8.644,0,0,1-5.034,10.872L634.9,202.061a12.93,12.93,0,0,1-16.516-6.61l-4-8.487a13.546,13.546,0,0,1,5.372-17.22l11.481-6.39.651-.281h0a8.432,8.432,0,0,1,11.212,4.059l.021.044,8.557,18.6Z"/><path class="cls-14" d="M652.488,188.689h0a8.642,8.642,0,0,1-5.035,10.872l-12.336,4.425a12.939,12.939,0,0,1-16.516-6.609l-4-8.49a13.54,13.54,0,0,1,5.373-17.218l11.48-6.393,1.3-.566a8.346,8.346,0,0,1,10.254,4.683l8.572,18.282Z"/><path class="cls-19" d="M653.939,191.311a8.536,8.536,0,0,1-5.958,10.5l-.01,0h0l-11.7,4.467a12.937,12.937,0,0,1-16.518-6.606l-4-8.49a13.546,13.546,0,0,1,5.376-17.219l11.477-6.391.654-.283h0a8.435,8.435,0,0,1,11.214,4.065l.018.039,8.557,18.6Z"/><path class="cls-20" d="M650.885,188.922a6.528,6.528,0,0,1-3.126,8.686,6.6,6.6,0,0,1-.857.332l-8.439,3.05a11.761,11.761,0,0,1-14.325-5.855l-2.288-4.895a11.341,11.341,0,0,1,4.922-14.7l8.206-4.654.317.016h0a6.737,6.737,0,0,1,8.734,3.332h0l6.856,14.687Z"/><path class="cls-8" d="M645.191,286.523a8.948,8.948,0,0,1,8.824,8.825v6.985A12.092,12.092,0,0,1,642.25,314.1h0a12.05,12.05,0,0,1-12.133-11.03l-.367-6.618v-.368a9.346,9.346,0,0,1,8.823-9.557h6.618Z"/><path class="cls-9" d="M645.191,287.626a9.029,9.029,0,0,1,8.824,9.191v6.618A12.093,12.093,0,0,1,642.25,315.2h0a11.783,11.783,0,0,1-12.133-11.031l-.367-6.618v-.367a9.348,9.348,0,0,1,8.823-9.557h6.618Z"/><path class="cls-10" d="M645.191,289.1a9.028,9.028,0,0,1,8.824,9.191v6.618a12.091,12.091,0,0,1-11.765,11.765h0a12.05,12.05,0,0,1-12.133-11.029l-.367-6.618v-.367a9.348,9.348,0,0,1,8.823-9.558h6.618Z"/><path class="cls-11" d="M654.381,296.817l-.368,7.722A12.094,12.094,0,0,1,642.248,316.3h0a11.783,11.783,0,0,1-12.134-11.029l-.736-7.722"/><path class="cls-5" d="M680.643,251.417V285.07c0,1.279-.929,2.556-1.859,2.556H605.3c-.93,0-1.86-1.277-1.86-2.556V251.417c0-1.277.93-2.556,1.86-2.556h73.481C679.714,248.872,680.643,250.152,680.643,251.417Z"/><path class="cls-6" d="M680.643,249.3v33.648c0,1.279-.929,2.556-1.859,2.556H605.3c-.93,0-1.86-1.277-1.86-2.556V249.306c0-1.277.93-2.556,1.86-2.556h73.481C679.714,246.744,680.643,248.023,680.643,249.3Z"/><path class="cls-7" d="M680.643,247.168v33.644c0,1.277-.929,2.556-1.859,2.556H605.3c-.93,0-1.86-1.279-1.86-2.556V247.169c0-1.28.93-2.556,1.86-2.556h73.481C679.714,244.615,680.643,245.892,680.643,247.168Z"/><path class="cls-7" d="M666.718,261.328h13.925a0,0,0,0,1,0,0v57.71a2.166,2.166,0,0,1-2.166,2.166h-9.592a2.166,2.166,0,0,1-2.166-2.166v-57.71A0,0,0,0,1,666.718,261.328Z"/></g><g id="booking"><rect id="area-21.09-status" class="cls-21" x="1367.637" y="242.208" width="92.259" height="115.971"/><rect id="area-21.08-status" class="cls-21" x="328.506" y="291.266" width="76.688" height="71.178"/><rect id="area-21.07-status" class="cls-21" x="328.506" y="222.051" width="76.688" height="67.836"/><polygon id="area-21.06-status" class="cls-21" points="191.787 194.812 276.338 194.812 276.338 333.928 173.632 333.928 191.787 194.812"/><rect id="area-21.05-status" class="cls-21" x="1297.594" y="647.407" width="162.302" height="146.78"/><rect id="area-21.04-status" class="cls-21" x="1145.584" y="647.407" width="151.341" height="146.78"/><rect id="area-21.03-status" class="cls-21" x="520.239" y="435.66" width="167.14" height="198.308"/><rect id="area-21.02-status" class="cls-21" x="863.719" y="481.401" width="180.927" height="149.952"/><rect id="area-21.01-status" class="cls-21" x="687.379" y="435.391" width="175.321" height="358.797"/><text class="cls-22" transform="translate(738.598 594.604)">Salon Baru </text><text class="cls-22" transform="translate(904.299 561.459)">Salon<tspan class="cls-23" x="38.117" y="0"> </tspan><tspan x="41.487" y="0">Atlantico</tspan></text><text class="cls-22" transform="translate(554.127 532.732)">Salon Pacifico</text><text class="cls-22" transform="translate(1201.175 724.557)">Flex 1</text><text class="cls-22" transform="translate(1364.888 724.557)">Flex 2</text><text class="cls-22" transform="translate(1394.028 293.176)">Phone <tspan x="1.176" y="16.801">Booth</tspan><tspan x="17.497" y="33.601">4</tspan></text><text class="cls-22" transform="translate(210.052 264.111)">Phone <tspan x="1.176" y="16.801">Booth</tspan><tspan x="17.497" y="33.601">1</tspan></text><text class="cls-22" transform="translate(344.571 245.775)">Phone <tspan x="1.176" y="16.801">Booth</tspan><tspan x="17.497" y="33.601">2</tspan></text><text class="cls-22" transform="translate(344.567 314.07)">Phone <tspan x="1.176" y="16.801">Booth</tspan><tspan x="17.497" y="33.601">3</tspan></text></g><g id="outline"><polygon class="cls-24" points="276.901 194.812 193.12 194.812 108.501 798.876 420.168 798.876 420.168 895.225 1459.896 895.225 1459.896 28.924 1330.034 28.924 1330.034 124.435 1234.523 124.435 1234.523 162.137 1252.118 162.137 1252.118 202.352 1234.523 202.352 1234.523 260.999 1156.607 260.999 1156.607 49.87 1131.472 49.87 1131.472 72.491 758.645 72.491 733.51 72.491 733.51 83.382 594.433 83.382 594.433 363.212 403.411 363.212 403.411 272.728 462.058 272.728 462.058 105.165 405.087 105.165 405.087 220.784 276.55 220.784 276.901 194.812"/><polyline class="cls-25" points="405.087 220.784 405.087 290.403 328.506 290.403 328.506 276.896 328.506 305.787"/><polyline class="cls-25" points="328.506 246.879 328.506 218.738 276.55 218.738 276.55 244.252"/><polyline class="cls-25" points="328.506 333.928 328.506 362.444 520.239 362.444 520.239 375.952"/><polyline class="cls-25" points="173.632 333.928 276.55 333.928 276.55 276.896"/><polyline class="cls-25" points="520.239 411.437 520.239 633.137 687.379 633.137 687.379 435.391 674.638 435.391 702.669 435.391"/><polyline class="cls-25" points="687.379 633.137 687.379 794.188 520.239 794.188 1459.896 794.188 1459.896 646.898 1377.451 646.898"/><polyline class="cls-25" points="1296.926 794.188 1296.926 647.407 1232.709 647.407 1344.323 647.407"/><polyline class="cls-25" points="1193.466 647.407 1146.578 647.407 1146.578 794.188 1044.647 794.188 1044.647 773.292"/><polyline class="cls-25" points="1044.647 735.068 1044.647 527.639 1044.647 631.353 862.7 631.353 862.7 794.188 862.7 435.901 731.719 435.901 862.7 435.901 862.7 411.437"/><polyline class="cls-25" points="862.7 480.75 1044.647 480.75 1044.647 434.372"/><line class="cls-25" x1="637.415" y1="434.372" x2="520.239" y2="434.372"/><polyline class="cls-25" points="733.51 83.382 733.51 342.152 1159.033 342.152 1159.033 260.999 1159.033 358.12 1329.358 358.12 1238.873 358.12 1238.873 241.688 1459.896 241.688 1367.947 241.688 1367.947 358.12 1381.919 358.12"/><line class="cls-25" x1="1421.173" y1="358.12" x2="1457.101" y2="358.12"/><polyline class="cls-25" points="862.7 72.491 862.7 342.152 862.7 199.772 1156.607 199.772 1017.318 199.772 1017.318 97.311 968.084 97.311 1062.56 97.311"/><polyline class="cls-25" points="1056.572 252.998 1056.572 273.623 1056.572 263.311 919.514 263.311"/><polyline class="cls-25" points="477.584 794.188 420.168 794.188 420.168 810.885"/></g><g id="icons_and_labels" data-name="icons and labels"><g id="elevator-7-4-3"><path class="cls-26" d="M668.89,223.162v-7.8h3.4a8.752,8.752,0,0,1,1.6.2,1.6,1.6,0,0,1,.9.7,2.843,2.843,0,0,1,.4,1.2,1.536,1.536,0,0,1-.5,1.3,2.837,2.837,0,0,1-1.7.7,2.092,2.092,0,0,1,.6.4,10.627,10.627,0,0,1,.9,1.1l1.3,2.1h-1.3l-1-1.6a7.174,7.174,0,0,0-.7-1.1l-.5-.5c-.1-.1-.4-.1-.5-.2h-1.8v3.4Zm1.1-4.4h2.2a4.1,4.1,0,0,0,1.1-.1,1.024,1.024,0,0,0,.6-.5,1.854,1.854,0,0,0,.2-.7,1.086,1.086,0,0,0-.4-.9,5.638,5.638,0,0,0-1.2-.4h-2.4l-.1,2.6Z"/><path class="cls-26" d="M680.49,221.262l1,.1a1.964,1.964,0,0,1-.9,1.3,2.2,2.2,0,0,1-1.6.5,2.64,2.64,0,0,1-1.9-.7,3.6,3.6,0,0,1,0-4.4,2.28,2.28,0,0,1,1.9-.7,2.41,2.41,0,0,1,1.8.7,2.928,2.928,0,0,1,.7,2.2v.2h-4.3a2.976,2.976,0,0,0,.5,1.5,1.845,1.845,0,0,0,1.2.5,2.92,2.92,0,0,0,.9-.2A1.445,1.445,0,0,0,680.49,221.262Zm-3.1-1.5h3.2a1.666,1.666,0,0,0-1.6-1.7,1.274,1.274,0,0,0-1.1.5A1.656,1.656,0,0,0,677.39,219.762Z"/><path class="cls-26" d="M686.39,221.062l1,.1a3.287,3.287,0,0,1-.7,1.6,2.271,2.271,0,0,1-1.6.6,2.41,2.41,0,0,1-1.8-.7,2.928,2.928,0,0,1-.7-2.2,8.752,8.752,0,0,1,.2-1.6,1.438,1.438,0,0,1,1-1,6.468,6.468,0,0,1,1.3-.4,2.1,2.1,0,0,1,1.5.5,2.389,2.389,0,0,1,.7,1.3l-1,.1a4.053,4.053,0,0,0-.5-.9.9.9,0,0,0-.9-.2,1.656,1.656,0,0,0-1.2.5,3.022,3.022,0,0,0-.5,1.6,2.155,2.155,0,0,0,.5,1.7,1.606,1.606,0,0,0,1.1.5,1.284,1.284,0,0,0,1-.4A1.255,1.255,0,0,0,686.39,221.062Z"/><path class="cls-26" d="M691.99,221.262l1,.1a1.964,1.964,0,0,1-.9,1.3,2.2,2.2,0,0,1-1.6.5,2.64,2.64,0,0,1-1.9-.7,3.6,3.6,0,0,1,0-4.4,2.28,2.28,0,0,1,1.9-.7,2.41,2.41,0,0,1,1.8.7,2.928,2.928,0,0,1,.7,2.2v.2h-4.3a2.976,2.976,0,0,0,.5,1.5,1.845,1.845,0,0,0,1.2.5,2.92,2.92,0,0,0,.9-.2A1.445,1.445,0,0,0,691.99,221.262Zm-3.1-1.5h3.2a1.666,1.666,0,0,0-1.6-1.7,1.274,1.274,0,0,0-1.1.5,1.656,1.656,0,0,0-.5,1.2Z"/><path class="cls-26" d="M694.19,225.262v-7.8h.9v.7c.2-.2.5-.4.7-.6a1.645,1.645,0,0,1,1-.2,1.746,1.746,0,0,1,1.2.4,3.126,3.126,0,0,1,.9,1.1,2.622,2.622,0,0,1,.2,1.5,3.167,3.167,0,0,1-.4,1.6,3.126,3.126,0,0,1-.9,1.1,2.843,2.843,0,0,1-1.2.4,2.92,2.92,0,0,1-.9-.2,1.024,1.024,0,0,1-.6-.5v2.8l-.9-.3Zm.9-4.9a1.941,1.941,0,0,0,.5,1.6,1.46,1.46,0,0,0,2.2,0,3.371,3.371,0,0,0,.5-1.7,1.941,1.941,0,0,0-.5-1.6,1.606,1.606,0,0,0-1.1-.5,2.384,2.384,0,0,0-1.1.6C695.19,218.962,695.09,219.562,695.09,220.362Z"/><path class="cls-26" d="M702.39,222.262l.1.9c-.2,0-.5.1-.7.1a2.769,2.769,0,0,1-.9-.1c-.2-.1-.4-.2-.4-.5a2.079,2.079,0,0,1-.1-1.1v-3.3h-.7v-.7h.7v-1.5l1-.6v1.9h1v.7h-1v3.8c0,.1.1.1.1.2s.2.1.4.1Z"/><path class="cls-26" d="M703.19,216.462v-1.1h1v1.1Zm0,6.7v-5.6h1v5.6Z"/><path class="cls-26" d="M705.29,220.362a2.54,2.54,0,0,1,.9-2.3,3,3,0,0,1,1.8-.6,2.64,2.64,0,0,1,1.9.7,2.7,2.7,0,0,1,.7,2.1,3.287,3.287,0,0,1-.4,1.7,3.178,3.178,0,0,1-1,1,3.259,3.259,0,0,1-1.3.4,2.64,2.64,0,0,1-1.9-.7A4.11,4.11,0,0,1,705.29,220.362Zm1,0a1.941,1.941,0,0,0,.5,1.6,1.824,1.824,0,0,0,2.4,0,2.155,2.155,0,0,0,.5-1.7,1.941,1.941,0,0,0-.5-1.6,1.824,1.824,0,0,0-2.4,0,2.618,2.618,0,0,0-.5,1.7Z"/><path class="cls-26" d="M711.69,223.162v-5.6h.9v.9a2.234,2.234,0,0,1,1.8-1,3.553,3.553,0,0,1,1,.2c.3.1.5.2.6.5a1.854,1.854,0,0,1,.2.7v4.5h-1v-3.6a2.22,2.22,0,0,0-.1-.9,1.756,1.756,0,0,0-.4-.5,1.268,1.268,0,0,0-.6-.1,1.5,1.5,0,0,0-1.1.4,2.456,2.456,0,0,0-.5,1.5v3Z"/><circle class="cls-27" cx="691.89" cy="187.562" r="23.5"/><g id="Outline_Icons-8" data-name="Outline Icons-8"><path class="cls-28" d="M691.09,182.262v1.5l-3.2,1a1.384,1.384,0,0,0-1.1,1.3v.5"/><path class="cls-28" d="M693.89,182.262v1.5l3.2,1a1.384,1.384,0,0,1,1.1,1.3v.5"/><ellipse class="cls-28" cx="692.49" cy="179.462" rx="2.7" ry="3.3"/><path class="cls-28" d="M695.19,179.162h-.2a1.827,1.827,0,0,1-2.1-1.1,2.476,2.476,0,0,1-2.1,1.1,4.253,4.253,0,0,1-1.1-.2"/><rect class="cls-28" x="681.19" y="186.462" width="21.5" height="7.5"/><line class="cls-28" x1="683.99" y1="194.062" x2="683.99" y2="197.762"/><line class="cls-28" x1="699.89" y1="194.062" x2="699.89" y2="197.762"/></g></g><g id="Coffee"><circle class="cls-27" cx="610.157" cy="751.559" r="24.2"/><path class="cls-29" d="M618.757,749.359a2.627,2.627,0,0,1,3,2.3h0v.7c0,3.4-4.4,3.5-4.4,3.5"/><path class="cls-29" d="M613.357,739.759a1.8,1.8,0,0,1,.1,2.2h0a1.8,1.8,0,0,0,0,2.2"/><path class="cls-29" d="M609.657,739.759a1.8,1.8,0,0,1,.1,2.2h0a1.8,1.8,0,0,0,0,2.2"/><path class="cls-29" d="M605.857,739.759a1.8,1.8,0,0,1,.1,2.2h0a1.8,1.8,0,0,0,0,2.2"/><path class="cls-29" d="M614.657,761.559h-8.6a9.453,9.453,0,0,1-5.6-1.9h20A10.545,10.545,0,0,1,614.657,761.559Z"/><path class="cls-29" d="M614.057,759.259a7.838,7.838,0,0,0,3.4-5.1l1-6.3h-16.7l1,6.3a8.642,8.642,0,0,0,3.4,5.1"/></g><g class="cls-30"><path class="cls-31" d="M583.957,784.159l1,.2a3.267,3.267,0,0,1-1.1,1.8,3.173,3.173,0,0,1-2,.6,3.557,3.557,0,0,1-1.9-.5,2.586,2.586,0,0,1-1.1-1.4,6.465,6.465,0,0,1-.4-2,4.211,4.211,0,0,1,.4-2,2.735,2.735,0,0,1,1.3-1.3,3.425,3.425,0,0,1,1.8-.4,3.024,3.024,0,0,1,3,2.2l-1,.2a3.458,3.458,0,0,0-.7-1.2,2.144,2.144,0,0,0-1.2-.4,2.116,2.116,0,0,0-1.4.4,2.258,2.258,0,0,0-.8,1.1,3.4,3.4,0,0,0-.2,1.4,3.808,3.808,0,0,0,.3,1.6,1.789,1.789,0,0,0,.9,1,2.768,2.768,0,0,0,1.3.3,2.389,2.389,0,0,0,1.4-.5A7,7,0,0,0,583.957,784.159Z"/><path class="cls-31" d="M585.657,784.059a2.947,2.947,0,0,1,.8-2.2,2.523,2.523,0,0,1,1.7-.6,2.41,2.41,0,0,1,1.8.7,2.578,2.578,0,0,1,.7,2,3.506,3.506,0,0,1-.3,1.6,1.962,1.962,0,0,1-.9.9,2.768,2.768,0,0,1-1.3.3,2.268,2.268,0,0,1-1.8-.7A2.444,2.444,0,0,1,585.657,784.059Zm.9,0a2.076,2.076,0,0,0,.4,1.5,1.46,1.46,0,0,0,2.2,0,2.364,2.364,0,0,0,.4-1.6,2.07,2.07,0,0,0-.5-1.5,1.606,1.606,0,0,0-1.1-.5,1.433,1.433,0,0,0-1.1.5C586.557,782.759,586.557,783.459,586.557,784.059Z"/></g><g class="cls-30"><path class="cls-31" d="M591.957,786.759v-4.6h-.8v-.7h.8v-.6a1.719,1.719,0,0,1,.1-.8,1.333,1.333,0,0,1,.5-.6,2,2,0,0,1,.9-.2,2.2,2.2,0,0,1,.8.1l-.1.8h-.5a.845.845,0,0,0-.6.2.956.956,0,0,0-.2.7v.5h1v.7h-1v4.6h-.9v-.1Z"/></g><g class="cls-30"><path class="cls-31" d="M594.557,786.759v-4.6h-.8v-.7h.8v-.6a1.719,1.719,0,0,1,.1-.8,1.333,1.333,0,0,1,.5-.6,2,2,0,0,1,.9-.2,2.2,2.2,0,0,1,.8.1l-.1.8h-.5a.845.845,0,0,0-.6.2.956.956,0,0,0-.2.7v.5h1v.7h-1v4.6h-.9v-.1Z"/><path class="cls-31" d="M600.957,785.059l.9.1a2.223,2.223,0,0,1-.8,1.3,2.456,2.456,0,0,1-1.5.5,2.489,2.489,0,0,1-1.9-.7,2.724,2.724,0,0,1-.7-2,2.817,2.817,0,0,1,.7-2.1,2.664,2.664,0,0,1,3.6,0,2.817,2.817,0,0,1,.7,2.1v.2h-4a1.728,1.728,0,0,0,.5,1.3,1.477,1.477,0,0,0,2,.2C600.557,785.759,600.757,785.459,600.957,785.059Zm-3-1.5h3a1.964,1.964,0,0,0-.3-1,1.606,1.606,0,0,0-1.1-.5,1.159,1.159,0,0,0-1,.4C598.357,782.759,597.957,783.159,597.957,783.559Z"/><path class="cls-31" d="M606.657,785.059l.9.1a2.223,2.223,0,0,1-.8,1.3,2.456,2.456,0,0,1-1.5.5,2.489,2.489,0,0,1-1.9-.7,2.724,2.724,0,0,1-.7-2,2.817,2.817,0,0,1,.7-2.1,2.664,2.664,0,0,1,3.6,0,2.817,2.817,0,0,1,.7,2.1v.2h-4a1.728,1.728,0,0,0,.5,1.3,1.477,1.477,0,0,0,2,.2A1.934,1.934,0,0,0,606.657,785.059Zm-3-1.5h3a1.964,1.964,0,0,0-.3-1,1.606,1.606,0,0,0-1.1-.5,1.159,1.159,0,0,0-1,.4C604.057,782.759,603.657,783.159,603.657,783.559Z"/><path class="cls-31" d="M608.057,786.859l2.1-7.6h.7l-2.1,7.6Z"/></g><g class="cls-30"><path class="cls-31" d="M612.957,786.759l-2-7.4h1l1.1,4.8.3,1.5a8.739,8.739,0,0,0,.3-1.4l1.4-5h1.2l1.1,3.7a13.777,13.777,0,0,1,.6,2.6,12.437,12.437,0,0,1,.4-1.6l1.2-4.7h1l-2,7.4h-.9l-1.6-5.6c-.1-.5-.2-.8-.2-.9-.1.3-.1.6-.2.9l-1.6,5.6h-1.1v.1Z"/></g><g class="cls-30"><path class="cls-31" d="M624.457,786.159a2.664,2.664,0,0,1-1,.6,2.959,2.959,0,0,1-1,.2,2.116,2.116,0,0,1-1.4-.4,1.274,1.274,0,0,1-.5-1.1,1.445,1.445,0,0,1,.2-.7,1.205,1.205,0,0,1,.5-.5,4.875,4.875,0,0,1,.7-.3c.2,0,.4-.1.8-.1a11.6,11.6,0,0,0,1.6-.3v-.2a.984.984,0,0,0-.3-.8,1.493,1.493,0,0,0-1-.3,2,2,0,0,0-.9.2,1.234,1.234,0,0,0-.5.8l-.9-.1a1.884,1.884,0,0,1,.4-.9,2.177,2.177,0,0,1,.8-.5,4.3,4.3,0,0,1,1.2-.2,3.087,3.087,0,0,1,1.1.2.918.918,0,0,1,.6.4l.3.6v2a5.793,5.793,0,0,0,.1,1.6,1.421,1.421,0,0,0,.2.6h-.9C624.557,786.559,624.457,786.359,624.457,786.159Zm-.1-2.1a9.591,9.591,0,0,1-1.5.3,4.537,4.537,0,0,0-.8.2,1.38,1.38,0,0,0-.4.3.6.6,0,0,0-.1.4.864.864,0,0,0,.3.6,1.077,1.077,0,0,0,.8.2,2.388,2.388,0,0,0,.9-.2,1.7,1.7,0,0,0,.6-.6,2.22,2.22,0,0,0,.1-.9l.1-.3Z"/><path class="cls-31" d="M626.657,780.459v-1h.9v1Zm0,6.3v-5.3h.9v5.3Z"/><path class="cls-31" d="M630.957,785.959l.1.8a1.952,1.952,0,0,1-.7.1,1.884,1.884,0,0,1-.8-.2.781.781,0,0,1-.4-.4,2.815,2.815,0,0,1-.1-1.1v-3.1h-.7v-.7h.7v-1.3l.9-.5v1.9h.9v.7h-.9v3.6c0,.1.1.1.2.2.1,0,.2.1.3.1A.9.9,0,0,1,630.957,785.959Z"/><path class="cls-31" d="M631.857,780.459v-1h.9v1Zm0,6.3v-5.3h.9v5.3Z"/><path class="cls-31" d="M634.157,786.759v-5.3h.8v.8a1.965,1.965,0,0,1,1.7-.9,2.92,2.92,0,0,1,.9.2,1.024,1.024,0,0,1,.6.5,4.875,4.875,0,0,1,.3.7c0,.2.1.5.1.9v3.3h-.9v-3.3a1.719,1.719,0,0,0-.1-.8.781.781,0,0,0-.4-.4,1.421,1.421,0,0,0-.6-.2,1.284,1.284,0,0,0-1,.4,1.809,1.809,0,0,0-.4,1.4v2.9h-1Z"/><path class="cls-31" d="M639.657,787.259l.9.1a.6.6,0,0,0,.3.6,1.222,1.222,0,0,0,.9.3,1.689,1.689,0,0,0,1-.3,1.794,1.794,0,0,0,.5-.7c0-.2.1-.6.1-1.2a1.8,1.8,0,0,1-1.5.7,2.136,2.136,0,0,1-1.7-.8,3.077,3.077,0,0,1-.6-1.9,3.194,3.194,0,0,1,.3-1.4,2.723,2.723,0,0,1,.8-1,2.45,2.45,0,0,1,1.2-.4,2.088,2.088,0,0,1,1.6.8v-.6h.8v4.6a4.178,4.178,0,0,1-.3,1.8,2.047,2.047,0,0,1-.8.8,2.9,2.9,0,0,1-1.4.3,2.235,2.235,0,0,1-1.5-.4A1.984,1.984,0,0,1,639.657,787.259Zm.8-3.2a2.076,2.076,0,0,0,.4,1.5,1.389,1.389,0,0,0,1,.5,1.231,1.231,0,0,0,1-.5,2.076,2.076,0,0,0,.4-1.5,2.235,2.235,0,0,0-.4-1.5,1.25,1.25,0,0,0-2,0A2.076,2.076,0,0,0,640.457,784.059Z"/></g></g></svg>