<?xml version="1.0" encoding="utf-8"?>
<!-- Generator: Adobe Illustrator 24.0.1, SVG Export Plug-In . SVG Version: 6.00 Build 0)  -->
<svg version="1.1" id="Layer_1" xmlns="http://www.w3.org/2000/svg" xmlns:xlink="http://www.w3.org/1999/xlink" x="0px" y="0px"
	 viewBox="0 0 782.2 539.5" style="enable-background:new 0 0 782.2 539.5;" xml:space="preserve">
<style type="text/css">
	.st0{fill:#4196B1;}
	.st1{fill:#A8E0E5;}
	.st2{fill:#8ECCCE;}
	.st3{fill:#99B8BF;}
	.st4{opacity:5.000000e-02;fill:#030303;enable-background:new    ;}
	.st5{fill:#B8BFC1;}
	.st6{fill:#FFFFFF;}
	.st7{fill:none;stroke:#DADCDC;stroke-width:0.22;stroke-miterlimit:10;}
	.st8{fill:#0D5577;}
	.st9{fill:#4E9FB9;}
	.st10{fill:#E5E8EA;}
	.st11{fill:#F4F4F4;}
	.st12{opacity:8.000000e-02;fill:#101010;enable-background:new    ;}
	.st13{fill:none;stroke:#4A90A0;stroke-width:0.75;stroke-linecap:round;stroke-linejoin:round;}
	.st14{opacity:0.15;fill:#010101;enable-background:new    ;}
	.st15{fill:#596068;}
	.st16{fill:#9BAEB7;}
	.st17{fill:none;stroke:#7A8E93;stroke-width:0.87;stroke-linecap:round;stroke-miterlimit:10;}
	.st18{opacity:0.74;fill:#575757;enable-background:new    ;}
	.st19{fill:none;stroke:#EBF2F2;stroke-width:5;stroke-miterlimit:10;}
	.st20{fill:none;stroke:#FFFFFF;stroke-width:2;stroke-miterlimit:10;}
	.st21{fill:#EBF2F2;}
	.st22{enable-background:new    ;}
	.st23{fill:#646B6D;}
	.st24{fill:none;stroke:#7A8E93;stroke-width:0.31;stroke-miterlimit:10;}
</style>
<title>Bejing_L20</title>
<g id="shadow">
	<polygon class="st0" points="51.8,10.7 51.8,272.2 2.2,272.2 2.2,397.2 128.3,532.5 251.6,408 251.6,324.1 521.1,324.1 
		521.1,408.6 646.6,532.5 777.9,400 777.9,272.5 727.1,272.5 727.1,10.7 	"/>
	<polyline class="st0" points="94.7,273.6 213.4,273.6 213.4,148.9 223.1,148.9 	"/>
	<polyline class="st0" points="213.4,273.6 251.6,299.6 251.6,324.1 	"/>
	<polyline class="st0" points="518.8,148.9 581.6,148.9 581.6,272.5 550.2,272.5 520.7,302 520.7,324.1 	"/>
	<polyline class="st0" points="581.6,166.6 685.5,166.6 685.5,285.3 592.4,285.3 581.6,272.5 	"/>
	<polyline class="st0" points="592.4,285.3 592.4,292.7 685.5,292.7 	"/>
	<polyline class="st0" points="711.1,289 727.7,289 727.7,272.5 	"/>
</g>
<g id="background">
	<polygon class="st1" points="50.9,10.1 50.9,268.1 1.9,268.1 1.9,391.4 126.3,524.8 248,402.1 248,319.3 513.8,319.3 513.8,402.6 
		637.7,524.8 767.2,394.2 767.2,268.4 717.1,268.4 717.1,10.1 	"/>
	<polyline class="st1" points="93.1,269.5 210.2,269.5 210.2,146.4 219.8,146.4 	"/>
	<polyline class="st1" points="210.2,269.5 248,295.1 248,319.3 	"/>
	<polyline class="st1" points="511.5,146.4 573.5,146.4 573.5,268.4 542.5,268.4 513.4,297.5 513.4,319.3 	"/>
	<polyline class="st1" points="573.5,163.9 676,163.9 676,281 584.2,281 573.5,268.4 	"/>
	<polyline class="st1" points="584.2,281 584.2,288.3 676,288.3 	"/>
	<polyline class="st1" points="701.3,284.7 717.6,284.7 717.6,268.4 	"/>
</g>
<g id="spaces">
	<polygon class="st2" points="50.9,268.1 1.9,268.1 3.5,388.6 126.3,524.8 248,402.1 248,319.3 513.8,319.3 513.8,402.6 
		637.7,524.8 767.2,394.2 767.2,268.4 717.1,268.4 717.1,10.1 536.9,10.1 536.9,146.9 210.2,146.9 210.2,269.5 	"/>
	<polygon class="st3" points="536.3,107 717.1,107 717.1,288.3 584.2,288.3 584.2,281 676,281 676,163.9 573.5,163.9 573.5,146.4 
		536.9,146.4 	"/>
</g>
<g id="furniature">
	<g id="details-6-3-4">
		<path class="st4" d="M308.2,248.5L308.2,248.5c-1.2,0-2.2-1.7-2.2-3.8v-45.2c0-2.1,1-3.8,2.2-3.8l0,0l122.3,0.4l0,0
			c1.2,0,2.2,1.7,2.2,3.8v45.2c0,2.1-1,3.8-2.2,3.8l0,0L308.2,248.5z"/>
		<path class="st5" d="M309.5,248.4L309.5,248.4c-1.2,0-2.2-1.7-2.2-3.8l0,0v-45.2c0-2.1,1-3.8,2.2-3.8l122.3,0.4l0,0
			c1.2,0,2.2,1.7,2.2,3.8V245c0,2.1-1,3.8-2.2,3.8h-0.1l0,0L309.5,248.4L309.5,248.4z"/>
	</g>
	<path class="st6" d="M434.3,245.4v-46.1c0-1.9-0.9-3.5-2-3.5h-29v26.7l0,0v-26.7h-92.4c-1.2,0-2.2,1.7-2.2,3.8v23H403v0.3h-94.3
		v22.2c0,2.1,1,3.8,2.2,3.8h121.5C433.3,248.9,434.2,247.4,434.3,245.4L434.3,245.4z"/>
	<g id="dividers-6-3-4">
		<line class="st7" x1="403.1" y1="248.6" x2="403.2" y2="195.9"/>
		<line class="st7" x1="370.8" y1="248.6" x2="370.8" y2="195.9"/>
		<line class="st7" x1="341" y1="248.6" x2="341" y2="195.9"/>
		<line class="st7" x1="308.5" y1="222.9" x2="433.7" y2="222.9"/>
	</g>
	<circle class="st4" cx="198.3" cy="54.6" r="8.7"/>
	<circle class="st8" cx="198.3" cy="53.3" r="8.7"/>
	<circle class="st9" cx="198.3" cy="51.6" r="8.7"/>
	<circle class="st4" cx="310.4" cy="70.9" r="17.6"/>
	<circle class="st8" cx="310.4" cy="68.3" r="17.6"/>
	<circle class="st9" cx="310.4" cy="64.7" r="17.6"/>
	<path class="st4" d="M112.2,53.1h40c0.3,0,0.6,0.5,0.6,1.2v18.2c0,0.6-0.3,1.2-0.6,1.2h-40c-0.3,0-0.6-0.5-0.6-1.2V54.3
		C111.6,53.6,111.9,53.1,112.2,53.1z"/>
	<path class="st5" d="M112.2,51.8h40c0.3,0,0.6,0.5,0.6,1.2v18.2c0,0.6-0.3,1.2-0.6,1.2h-40c-0.3,0-0.6-0.5-0.6-1.2V52.9
		C111.6,52.3,111.9,51.8,112.2,51.8z"/>
	<path class="st10" d="M112.3,50.1h40c0.3,0,0.6,0.5,0.6,1.2v18.2c0,0.6-0.3,1.2-0.6,1.2h-40c-0.3,0-0.6-0.5-0.6-1.2V51.3
		C111.7,50.7,112,50.1,112.3,50.1z"/>
	<rect x="111.7" y="60.1" class="st11" width="41.2" height="3.9"/>
	<rect x="111.7" y="58.1" class="st6" width="41.2" height="3.9"/>
	<circle class="st4" cx="312.9" cy="48.3" r="26"/>
	<circle class="st5" cx="312.9" cy="45.1" r="26"/>
	<circle class="st6" cx="312.9" cy="41.8" r="26"/>
	<path class="st12" d="M197.3,181.6L197.3,181.6c0.2,3.8-2.7,7-6.4,7.2l0,0l-6.1,0.4c-0.4,0-0.7-0.3-0.7-0.6l-0.7-12.3
		c0-0.4,0.3-0.7,0.6-0.7l6.1-0.4C193.8,175,197.1,177.8,197.3,181.6L197.3,181.6z"/>
	<path class="st8" d="M197.8,182.2L197.8,182.2c0.2,3.8-2.7,7-6.4,7.2l0,0l-6.2,0.3c-0.4,0-0.7-0.2-0.7-0.6l0,0l-0.7-12.3
		c0-0.4,0.3-0.7,0.6-0.7l6.1-0.4C194.2,175.5,197.5,178.4,197.8,182.2L197.8,182.2z"/>
	<path class="st9" d="M198.3,183.5L198.3,183.5c0.2,3.8-2.6,7-6.4,7.2l0,0l0,0l-6.1,0.4c-0.4,0-0.7-0.3-0.7-0.6l-0.7-12.3
		c0-0.4,0.3-0.7,0.6-0.7l6.1-0.4C194.8,176.9,198,179.8,198.3,183.5L198.3,183.5z"/>
	<path class="st13" d="M184.9,177.5l6.1-0.4c3.8-0.2,7,2.6,7.2,6.4l0,0l0,0c0.2,3.8-2.6,7-6.4,7.2l-6.1,0.4"/>
	<g id="details-6-3-4-2">
		<path class="st4" d="M589.8,73.7L589.8,73.7c-0.9-0.1-1.6-1-1.5-1.9V49.1c-0.1-0.9,0.6-1.8,1.5-1.9l0,0l83.6,0.2l0,0
			c0.9,0.1,1.6,1,1.5,1.9V72c0.1,0.9-0.6,1.8-1.5,1.9l0,0L589.8,73.7z"/>
		<path class="st5" d="M590.6,73.7L590.6,73.7c-0.9-0.1-1.6-1-1.5-1.9l0,0V49c-0.1-0.9,0.6-1.8,1.5-1.9l83.6,0.2l0,0
			c0.9,0.1,1.6,1,1.5,1.9V72c0.1,0.9-0.6,1.8-1.5,1.9h-0.1l0,0L590.6,73.7L590.6,73.7z"/>
	</g>
	<path class="st6" d="M675.9,72.2V49c0.1-0.9-0.5-1.6-1.4-1.8h-19.9v13.4l0,0V47.3h-63.2c-0.9,0.1-1.6,1-1.5,1.9v11.6h64.5v0.1
		h-64.5V72c-0.1,0.9,0.6,1.8,1.5,1.9h83.1C675.4,73.8,676,73,675.9,72.2L675.9,72.2z"/>
	<g id="dividers-6-3-4-2">
		<line class="st7" x1="654.7" y1="73.8" x2="654.7" y2="47.2"/>
		<line class="st7" x1="632.6" y1="73.8" x2="632.6" y2="47.2"/>
		<line class="st7" x1="612.2" y1="73.8" x2="612.2" y2="47.2"/>
		<line class="st7" x1="590" y1="60.8" x2="675.6" y2="60.8"/>
	</g>
	<g id="details-6-3-4-3">
		<path class="st4" d="M174.8,266.4L174.8,266.4c0.1,1.1-0.8,2.1-1.9,2.2h-22.7c-1.1-0.1-2-1.1-1.9-2.2l0,0l0.2-121.3l0,0
			c-0.1-1.1,0.8-2.1,1.9-2.2h22.7c1.1,0.1,2,1.1,1.9,2.2l0,0L174.8,266.4z"/>
		<path class="st5" d="M174.8,265.1L174.8,265.1c0.1,1.1-0.8,2.1-1.9,2.2h-22.7c-1.1-0.1-2-1.1-1.9-2.2l0.2-121.3l0,0
			c-0.1-1.1,0.8-2.1,1.9-2.2h22.7c1.1,0.1,2,1,1.9,2.2v0.1l0,0L174.8,265.1L174.8,265.1z"/>
	</g>
	<path class="st6" d="M173.3,142.4h-23.2c-1,0.1-1.8,1-1.8,2v28.8l0,0v91.7l0,0c-0.1,1.1,0.8,2.1,1.9,2.2h11.6v-93.5h0.1v93.5H173
		c1.1-0.1,2-1.1,1.9-2.2v-91.3l0,0v-29.2l0,0C175.1,143.4,174.3,142.5,173.3,142.4L173.3,142.4z"/>
	<g id="dividers-6-3-4-3">
		<line class="st7" x1="174.9" y1="172.3" x2="148.3" y2="172.3"/>
		<line class="st7" x1="174.9" y1="204.3" x2="148.3" y2="204.3"/>
		<line class="st7" x1="174.9" y1="233.9" x2="148.3" y2="233.9"/>
		<line class="st7" x1="161.9" y1="266.1" x2="161.9" y2="141.9"/>
	</g>
	<g id="details-6-3-4-4">
		<path class="st4" d="M107.1,431.2L107.1,431.2c-0.7,0.7-2.2,0.3-3.4-0.8l-26-24.7c-1.2-1.1-1.6-2.6-1-3.3l0,0l66-68.9l0,0
			c0.7-0.7,2.2-0.3,3.4,0.8l0,0l26,24.7c1.2,1.1,1.6,2.6,1,3.3l0,0L107.1,431.2z"/>
		<path class="st5" d="M107.7,430.5L107.7,430.5c-0.7,0.7-2.2,0.3-3.4-0.8l0,0l-26-24.7c-1.2-1.2-1.6-2.6-1-3.3l66-68.9l0,0
			c0.7-0.7,2.2-0.3,3.4,0.8l26,24.7c1.2,1.1,1.7,2.6,1,3.3l-0.1,0.1l0,0L107.7,430.5L107.7,430.5z"/>
	</g>
	<path class="st6" d="M173,358.4l-26.5-25.2c-1.1-1.1-2.5-1.4-3.1-0.8l-15.6,16.4l15.4,14.6l0,0l-15.3-14.6L78.2,401l0,0
		c-0.7,0.7-0.2,2.2,1,3.3l0,0L92.4,417l50.7-53.3l0.1,0.1l-50.7,53.3l12.8,12.1c1.2,1.2,2.7,1.5,3.4,0.8l49.5-52l0,0l15.8-16.6l0,0
		C174.5,360.8,174.1,359.4,173,358.4L173,358.4z"/>
	<g id="dividers-6-3-4-4">
		<line class="st7" x1="158.2" y1="377.7" x2="127.8" y2="348.8"/>
		<line class="st7" x1="140.8" y1="395.9" x2="110.4" y2="367.1"/>
		<line class="st7" x1="124.7" y1="412.8" x2="94.4" y2="383.9"/>
		<line class="st7" x1="92.5" y1="417.1" x2="159.8" y2="346.3"/>
	</g>
	<g id="details-6-3-4-5">
		<path class="st4" d="M691.3,399.3L691.3,399.3c0.7,0.7,0.3,2.2-0.9,3.4l-24.9,25.8c-1.2,1.2-2.6,1.6-3.3,1l0,0L593.8,363l0,0
			c-0.7-0.7-0.3-2.2,0.8-3.4l0,0l24.9-25.8c1.2-1.2,2.6-1.6,3.3-1l0,0L691.3,399.3z"/>
		<path class="st5" d="M690.5,398.6L690.5,398.6c0.7,0.7,0.3,2.2-0.9,3.4l0,0l-24.9,25.8c-1.2,1.2-2.7,1.6-3.4,0.9L593,362.2l0,0
			c-0.7-0.7-0.3-2.2,0.9-3.4l24.9-25.8c1.1-1.2,2.6-1.6,3.3-1l0.1,0.1l0,0L690.5,398.6L690.5,398.6z"/>
	</g>
	<path class="st6" d="M618.9,332.7L593.5,359c-1.1,1.1-1.4,2.5-0.8,3.1l16.3,15.7l14.7-15.2l0,0L609,377.8l51.8,50.1l0,0
		c0.7,0.7,2.2,0.2,3.3-1l0,0l12.7-13.1L624,362.7l0.1-0.1l52.9,51.1l12.2-12.7c1.2-1.2,1.5-2.7,0.8-3.4l-51.6-49.9l0,0L622,331.8
		l0,0C621.4,331.2,620,331.6,618.9,332.7L618.9,332.7z"/>
	<g id="dividers-6-3-4-5">
		<line class="st7" x1="638.1" y1="347.7" x2="609" y2="377.8"/>
		<line class="st7" x1="656.3" y1="365.3" x2="627.1" y2="395.4"/>
		<line class="st7" x1="673" y1="381.4" x2="643.9" y2="411.5"/>
		<line class="st7" x1="677" y1="413.7" x2="606.8" y2="345.9"/>
	</g>
	<path class="st14" d="M595.8,351.7L595.8,351.7c-2.2,1.7-5.4,1.3-7.1-0.9l-2.2-2.9c-2.3-2.8-1.9-6.9,0.8-9.3l0,0
		c2.7-2.4,6.9-2.2,9.3,0.5l2.5,2.6l0.2,0.2c1.8,2.1,1.6,5.3-0.5,7.2l0,0l0,0l-2.8,2.4L595.8,351.7z"/>
	<path class="st15" d="M596.2,351.6c-2.2,1.7-5.4,1.4-7.1-0.8l0,0l-2.2-2.9c-2.3-2.8-1.9-6.9,0.8-9.3l0,0c2.7-2.4,6.9-2.1,9.3,0.5
		l2.5,2.6l0.2,0.2c1.8,2.1,1.6,5.3-0.5,7.2l-2.8,2.4L596.2,351.6z"/>
	<path class="st16" d="M597.9,351.7L597.9,351.7c-2.2,1.7-5.4,1.4-7.1-0.8l0,0l0,0l0,0l-2.2-2.9c-2.2-2.8-1.9-6.9,0.8-9.3l0,0
		c2.7-2.3,6.8-2.1,9.3,0.5l2.5,2.6l0.2,0.2c1.8,2.1,1.6,5.3-0.5,7.2l0,0l0,0l0,0l-2.8,2.4C597.9,351.5,597.9,351.7,597.9,351.7z"/>
	<path class="st17" d="M591.1,351.6l-2.6-3.5c-2.3-2.8-1.9-6.9,0.8-9.3l0,0c2.7-2.3,6.8-2.2,9.3,0.4l3.1,3.1"/>
	<path class="st14" d="M610.3,337.1L610.3,337.1c-2.2,1.7-5.4,1.3-7.1-0.9l-2.2-2.9c-2.3-2.8-1.9-6.9,0.8-9.3l0,0
		c2.7-2.4,6.9-2.2,9.3,0.5l2.5,2.6l0.2,0.2c1.8,2.1,1.6,5.3-0.5,7.2l0,0l0,0l-2.8,2.4L610.3,337.1z"/>
	<path class="st15" d="M610.8,337c-2.2,1.7-5.4,1.4-7.1-0.8l0,0l-2.2-2.9c-2.3-2.8-1.9-6.9,0.8-9.3l0,0c2.7-2.4,6.9-2.1,9.3,0.5
		l2.5,2.6l0.2,0.2c1.8,2.1,1.6,5.3-0.5,7.2l-2.8,2.4L610.8,337z"/>
	<path class="st16" d="M612.4,337.1L612.4,337.1c-2.2,1.7-5.4,1.4-7.1-0.8l0,0l0,0l-2.2-2.9c-2.2-2.8-1.9-6.9,0.8-9.3l0,0
		c2.7-2.3,6.8-2.1,9.3,0.5l2.5,2.6l0.2,0.2c1.8,2.1,1.6,5.3-0.5,7.2l0,0l0,0l0,0l-2.8,2.4C612.5,336.9,612.5,337.1,612.4,337.1z"/>
	<path class="st17" d="M605.6,337l-2.6-3.5c-2.3-2.8-1.9-6.9,0.8-9.3l0,0c2.7-2.3,6.8-2.2,9.3,0.4l3.1,3.1"/>
	<path class="st14" d="M631.6,334.3L631.6,334.3c-1.9-2.1-1.7-5.3,0.4-7.2l2.7-2.4c2.7-2.4,6.8-2.4,9.3,0.2l0,0
		c2.6,2.5,2.7,6.7,0.2,9.4l-2.5,2.7l-0.2,0.2c-2,2-5.2,2-7.2,0l0,0l0,0l-2.5-2.6L631.6,334.3z"/>
	<path class="st15" d="M631.6,334.7c-1.9-2.1-1.7-5.3,0.4-7.1l0,0l2.7-2.4c2.7-2.4,6.8-2.4,9.3,0.2l0,0c2.5,2.6,2.6,6.7,0.1,9.4
		l-2.4,2.7l-0.2,0.2c-2,2-5.2,2-7.2,0l-2.6-2.7L631.6,334.7z"/>
	<path class="st16" d="M631.7,336.4L631.7,336.4c-1.9-2.1-1.7-5.3,0.4-7.2l0,0l0,0l0,0l2.7-2.4c2.7-2.4,6.8-2.3,9.3,0.2l0,0
		c2.5,2.6,2.6,6.6,0.2,9.3l-2.5,2.7l-0.2,0.2c-2,2-5.2,2-7.2,0l0,0l0,0l0,0l-2.6-2.7C631.8,336.4,631.7,336.4,631.7,336.4z"/>
	<path class="st17" d="M631.3,329.6l3.3-2.9c2.7-2.4,6.8-2.4,9.3,0.2l0,0c2.5,2.6,2.6,6.6,0.2,9.3l-2.9,3.3"/>
	<path class="st14" d="M645.2,348.4L645.2,348.4c-1.9-2.1-1.7-5.3,0.4-7.2l2.7-2.4c2.7-2.4,6.8-2.4,9.3,0.2l0,0
		c2.6,2.5,2.7,6.7,0.2,9.4l-2.5,2.7l-0.2,0.2c-2,2-5.2,2-7.2,0l0,0l-2.5-2.6L645.2,348.4z"/>
	<path class="st15" d="M645.2,348.8c-1.9-2.1-1.7-5.3,0.3-7.1l0,0l0,0l2.7-2.4c2.7-2.4,6.8-2.4,9.3,0.2l0,0c2.5,2.6,2.6,6.7,0.1,9.3
		l-2.4,2.7l-0.2,0.2c-2,2-5.2,2-7.2,0l-2.6-2.7L645.2,348.8z"/>
	<path class="st16" d="M645.3,350.5L645.3,350.5c-1.9-2.1-1.7-5.3,0.4-7.2l0,0l0,0l2.7-2.4c2.7-2.4,6.8-2.3,9.3,0.2l0,0
		c2.5,2.6,2.6,6.6,0.2,9.3l-2.5,2.7l-0.2,0.2c-2,2-5.2,2-7.2,0l0,0l0,0l0,0l-2.6-2.7C645.4,350.5,645.3,350.5,645.3,350.5z"/>
	<path class="st17" d="M644.9,343.7l3.3-2.9c2.7-2.4,6.8-2.4,9.3,0.2l0,0c2.5,2.6,2.6,6.6,0.2,9.3l-2.9,3.3"/>
	<path class="st14" d="M659.6,362L659.6,362c-1.9-2.1-1.7-5.3,0.4-7.2l2.7-2.4c2.7-2.4,6.8-2.4,9.3,0.2l0,0c2.6,2.5,2.7,6.7,0.2,9.4
		l-2.5,2.7l-0.2,0.2c-2,2-5.2,2-7.2,0l0,0l0,0l-2.5-2.6L659.6,362z"/>
	<path class="st15" d="M659.7,362.4c-1.9-2.1-1.7-5.3,0.4-7.1l0,0l2.7-2.4c2.7-2.4,6.8-2.4,9.3,0.2l0,0c2.5,2.6,2.6,6.7,0.1,9.4
		l-2.4,2.7l-0.2,0.2c-2,2-5.2,2-7.2,0l-2.6-2.7L659.7,362.4z"/>
	<path class="st16" d="M659.7,364.1L659.7,364.1c-1.9-2.1-1.7-5.3,0.4-7.2l0,0l0,0l0,0l2.7-2.4c2.7-2.4,6.8-2.3,9.3,0.2l0,0
		c2.5,2.6,2.6,6.6,0.2,9.3l-2.5,2.7l-0.2,0.2c-2,2-5.2,2-7.2,0l0,0l0,0l0,0l-2.6-2.7C659.9,364.1,659.8,364.1,659.7,364.1z"/>
	<path class="st17" d="M659.4,357.3l3.3-2.9c2.7-2.4,6.8-2.4,9.3,0.2l0,0c2.5,2.6,2.6,6.6,0.2,9.3l-2.9,3.3"/>
	<path class="st14" d="M673.2,376.1L673.2,376.1c-1.9-2.1-1.7-5.3,0.4-7.2l2.7-2.4c2.7-2.4,6.8-2.4,9.3,0.2l0,0
		c2.6,2.5,2.7,6.7,0.2,9.4l-2.5,2.7l-0.2,0.2c-2,2-5.2,2-7.2,0l0,0l-2.5-2.6L673.2,376.1z"/>
	<path class="st15" d="M673.3,376.5c-1.9-2.1-1.7-5.3,0.4-7.1l0,0l2.7-2.4c2.7-2.4,6.8-2.4,9.3,0.2l0,0c2.5,2.6,2.6,6.7,0.1,9.3
		l-2.4,2.7l-0.2,0.2c-2,2-5.2,2-7.2,0l-2.6-2.7L673.3,376.5z"/>
	<path class="st16" d="M673.3,378.2L673.3,378.2c-1.9-2.1-1.7-5.3,0.4-7.2l0,0l0,0l2.7-2.4c2.7-2.4,6.8-2.3,9.3,0.2l0,0
		c2.5,2.6,2.6,6.6,0.2,9.3l-2.5,2.7l-0.2,0.2c-2,2-5.2,2-7.2,0l0,0l0,0l0,0l-2.6-2.7C673.5,378.2,673.4,378.2,673.3,378.2z"/>
	<path class="st17" d="M673,371.4l3.3-2.9c2.7-2.4,6.8-2.4,9.3,0.2l0,0c2.5,2.6,2.6,6.6,0.2,9.3l-2.9,3.3"/>
	<path class="st14" d="M686.7,390.1L686.7,390.1c-1.9-2.1-1.7-5.3,0.4-7.2l2.7-2.4c2.7-2.4,6.8-2.4,9.3,0.2l0,0
		c2.6,2.5,2.7,6.7,0.2,9.4l-2.5,2.7l-0.2,0.2c-2,2-5.2,2-7.2,0l0,0l-2.5-2.6L686.7,390.1z"/>
	<path class="st15" d="M686.8,390.5c-1.9-2.1-1.7-5.3,0.4-7.1l0,0l2.7-2.4c2.7-2.4,6.8-2.4,9.3,0.2l0,0c2.5,2.6,2.6,6.7,0.1,9.3
		l-2.4,2.7l-0.2,0.2c-2,2-5.2,2-7.2,0l-2.6-2.7L686.8,390.5z"/>
	<path class="st16" d="M686.8,392.2L686.8,392.2c-1.9-2.1-1.7-5.3,0.4-7.2l0,0l0,0l2.7-2.4c2.7-2.4,6.8-2.3,9.3,0.2l0,0
		c2.5,2.6,2.6,6.6,0.2,9.3l-2.5,2.7l-0.2,0.2c-2,2-5.2,2-7.2,0l0,0l0,0l0,0l-2.6-2.7C687,392.3,686.9,392.3,686.8,392.2z"/>
	<path class="st17" d="M686.5,385.4l3.3-2.9c2.7-2.4,6.8-2.4,9.3,0.2l0,0c2.5,2.6,2.6,6.6,0.2,9.3l-2.9,3.3"/>
	<path class="st14" d="M690.8,409.9L690.8,409.9c2.1-1.9,5.3-1.7,7.2,0.4l2.4,2.7c2.4,2.7,2.4,6.8-0.2,9.3l0,0
		c-2.5,2.6-6.7,2.7-9.4,0.2l-2.7-2.5l-0.2-0.2c-2-2-2-5.2,0-7.2l0,0l0,0l2.6-2.5L690.8,409.9z"/>
	<path class="st15" d="M690.3,409.9c2.1-1.9,5.3-1.7,7.1,0.4l0,0l2.4,2.7c2.4,2.7,2.4,6.8-0.2,9.3l0,0c-2.6,2.5-6.7,2.6-9.3,0.1
		l-2.7-2.4l-0.2-0.2c-2-2-2-5.2,0-7.2l2.7-2.6L690.3,409.9z"/>
	<path class="st16" d="M688.7,410L688.7,410c2.1-1.9,5.3-1.7,7.2,0.4l0,0l0,0l0,0l2.4,2.7c2.4,2.7,2.3,6.8-0.2,9.3l0,0
		c-2.6,2.5-6.6,2.6-9.3,0.2l-2.7-2.5l-0.2-0.2c-2-2-2-5.2,0-7.2l0,0l0,0L688.7,410C688.6,410.1,688.6,410,688.7,410z"/>
	<path class="st17" d="M695.4,409.6l2.9,3.3c2.4,2.7,2.4,6.8-0.2,9.3l0,0c-2.6,2.5-6.6,2.6-9.3,0.2l-3.3-2.9"/>
	<path class="st14" d="M675.7,423.9L675.7,423.9c2.1-1.9,5.3-1.7,7.2,0.4l2.4,2.7c2.4,2.7,2.4,6.8-0.2,9.3l0,0
		c-2.5,2.6-6.7,2.7-9.4,0.2L673,434l-0.2-0.2c-2-2-2-5.2,0-7.2l0,0l0,0l2.6-2.5L675.7,423.9z"/>
	<path class="st15" d="M675.3,424c2.1-1.9,5.3-1.7,7.1,0.3l0,0l0,0l2.4,2.7c2.4,2.7,2.4,6.8-0.2,9.3l0,0c-2.6,2.5-6.7,2.6-9.3,0.1
		l-2.7-2.4l-0.2-0.2c-2-2-2-5.2,0-7.2l2.7-2.6L675.3,424z"/>
	<path class="st16" d="M673.6,424L673.6,424c2.1-1.9,5.3-1.7,7.2,0.4l0,0l0,0l2.4,2.7c2.4,2.7,2.3,6.8-0.2,9.3l0,0
		c-2.6,2.5-6.6,2.6-9.3,0.2l-2.7-2.5l-0.2-0.2c-2-2-2-5.2,0-7.2l0,0l0,0l0,0L673.6,424C673.6,424.2,673.6,424,673.6,424z"/>
	<path class="st17" d="M680.4,423.7l2.9,3.3c2.4,2.7,2.4,6.8-0.2,9.3l0,0c-2.6,2.5-6.6,2.6-9.3,0.2l-3.3-2.9"/>
	<path class="st14" d="M599.9,373.8L599.9,373.8c1.8,2.2,1.4,5.4-0.7,7.1l-2.8,2.3c-2.8,2.3-6.9,2-9.3-0.6l0,0
		c-2.5-2.7-2.4-6.8,0.2-9.4l2.6-2.6l0.2-0.2c2.1-1.9,5.3-1.7,7.2,0.3l0,0l2.4,2.8L599.9,373.8z"/>
	<path class="st15" d="M599.8,373.4c1.8,2.1,1.5,5.3-0.7,7.1l0,0l-2.8,2.3c-2.8,2.3-6.9,2-9.3-0.6l0,0c-2.4-2.7-2.3-6.8,0.3-9.3
		l2.6-2.6l0.2-0.2c2.1-1.9,5.3-1.7,7.2,0.4l2.4,2.8L599.8,373.4z"/>
	<path class="st16" d="M599.9,371.7L599.9,371.7c1.8,2.2,1.5,5.4-0.7,7.1l0,0l0,0l-2.8,2.3c-2.8,2.3-6.9,2-9.3-0.6l0,0
		c-2.4-2.7-2.3-6.8,0.3-9.3l2.6-2.6l0.2-0.2c2.1-1.9,5.3-1.7,7.2,0.3l0,0l0,0l0,0l2.4,2.8C599.7,371.7,599.8,371.6,599.9,371.7z"/>
	<path class="st17" d="M599.9,378.5l-3.5,2.7c-2.8,2.3-6.9,2-9.3-0.6l0,0c-2.4-2.7-2.3-6.7,0.2-9.3l3.1-3.2"/>
	<path class="st14" d="M614.4,386.8L614.4,386.8c1.8,2.2,1.4,5.4-0.7,7.1l-2.8,2.3c-2.8,2.3-6.9,2-9.3-0.6l0,0
		c-2.5-2.7-2.4-6.8,0.2-9.4l2.6-2.6l0.2-0.2c2.1-1.9,5.3-1.7,7.2,0.3l0,0l2.4,2.8L614.4,386.8z"/>
	<path class="st15" d="M614.4,386.3c1.8,2.2,1.5,5.3-0.7,7.1l0,0l-2.8,2.3c-2.8,2.3-6.9,2-9.3-0.6l0,0c-2.4-2.7-2.3-6.8,0.3-9.3
		l2.6-2.6l0.2-0.2c2.1-1.9,5.3-1.7,7.2,0.4l2.4,2.8L614.4,386.3z"/>
	<path class="st16" d="M614.4,384.7L614.4,384.7c1.8,2.2,1.5,5.4-0.7,7.1l0,0l0,0l-2.8,2.3c-2.8,2.3-6.9,2-9.3-0.6l0,0
		c-2.4-2.7-2.3-6.8,0.3-9.3l2.6-2.6l0.2-0.2c2.1-1.9,5.3-1.7,7.2,0.3l0,0l0,0l2.4,2.8C614.2,384.6,614.4,384.6,614.4,384.7z"/>
	<path class="st17" d="M614.4,391.5l-3.5,2.7c-2.8,2.3-6.9,2-9.3-0.6l0,0c-2.4-2.7-2.3-6.7,0.2-9.3l3.1-3.2"/>
	<path class="st14" d="M629,402L629,402c1.8,2.2,1.4,5.4-0.7,7.1l-2.8,2.3c-2.8,2.3-6.9,2.1-9.3-0.6l0,0c-2.5-2.7-2.4-6.8,0.2-9.4
		l2.6-2.6l0.2-0.2c2.1-1.9,5.3-1.7,7.2,0.3l0,0l2.4,2.8L629,402z"/>
	<path class="st15" d="M629,401.5c1.8,2.2,1.5,5.3-0.7,7.1l0,0l-2.8,2.3c-2.8,2.3-6.9,2-9.3-0.6l0,0c-2.4-2.7-2.3-6.8,0.3-9.3
		l2.6-2.6l0.2-0.2c2.1-1.9,5.3-1.7,7.2,0.4l2.4,2.8L629,401.5z"/>
	<path class="st16" d="M629,399.8L629,399.8c1.8,2.2,1.5,5.4-0.7,7.1l0,0l0,0l0,0l-2.8,2.3c-2.8,2.3-6.9,2-9.3-0.6l0,0
		c-2.4-2.7-2.3-6.8,0.3-9.3l2.6-2.6l0.2-0.2c2.1-1.9,5.3-1.7,7.2,0.3l0,0l0,0l2.4,2.8C628.9,399.8,629,399.8,629,399.8z"/>
	<path class="st17" d="M629.1,406.6l-3.5,2.7c-2.8,2.3-6.9,2-9.3-0.6l0,0c-2.4-2.7-2.3-6.7,0.2-9.3l3.1-3.2"/>
	<path class="st14" d="M641.7,416.3L641.7,416.3c1.8,2.2,1.4,5.4-0.7,7.1l-2.8,2.3c-2.8,2.3-6.9,2-9.3-0.6l0,0
		c-2.5-2.7-2.4-6.8,0.2-9.4l2.6-2.6l0.2-0.2c2.1-1.9,5.3-1.7,7.2,0.3l0,0l2.4,2.8L641.7,416.3z"/>
	<path class="st15" d="M641.7,415.8c1.8,2.2,1.5,5.3-0.7,7.1l0,0l-2.8,2.3c-2.8,2.3-6.9,2.1-9.3-0.6l0,0c-2.4-2.7-2.3-6.8,0.3-9.3
		l2.6-2.6l0.2-0.2c2.1-1.9,5.3-1.7,7.2,0.4l2.4,2.8L641.7,415.8z"/>
	<path class="st16" d="M641.7,414.1L641.7,414.1c1.8,2.2,1.5,5.4-0.7,7.1l0,0l0,0l-2.8,2.3c-2.8,2.3-6.9,2-9.3-0.6l0,0
		c-2.4-2.7-2.3-6.8,0.3-9.3l2.6-2.6l0.2-0.2c2.1-1.9,5.3-1.7,7.2,0.3l0,0l0,0l2.4,2.8C641.6,414.1,641.7,414.1,641.7,414.1z"/>
	<path class="st17" d="M641.8,420.9l-3.5,2.7c-2.8,2.3-6.9,2-9.3-0.6l0,0c-2.4-2.7-2.3-6.7,0.2-9.3l3.1-3.2"/>
	<path class="st14" d="M656.1,429.2L656.1,429.2c1.8,2.2,1.4,5.4-0.7,7.1l-2.8,2.3c-2.8,2.3-6.9,2-9.3-0.6l0,0
		c-2.5-2.7-2.4-6.8,0.2-9.3l2.6-2.6l0.2-0.2c2.1-1.9,5.3-1.7,7.2,0.3l0,0l0,0l2.4,2.8L656.1,429.2z"/>
	<path class="st15" d="M656.1,428.8c1.8,2.2,1.5,5.3-0.7,7.1l0,0l-2.8,2.3c-2.8,2.3-6.9,2-9.3-0.6l0,0c-2.4-2.7-2.3-6.8,0.3-9.3
		l2.6-2.6l0.2-0.2c2.1-1.9,5.3-1.7,7.2,0.4l2.4,2.8L656.1,428.8z"/>
	<path class="st16" d="M656.1,427.1L656.1,427.1c1.8,2.2,1.5,5.4-0.7,7.1l0,0l0,0l-2.8,2.3c-2.8,2.3-6.9,2-9.3-0.6l0,0
		c-2.4-2.7-2.3-6.8,0.3-9.3l2.6-2.6l0.2-0.2c2.1-1.9,5.3-1.7,7.2,0.3l0,0l0,0l2.4,2.8C655.9,427.1,656.1,427.1,656.1,427.1z"/>
	<path class="st17" d="M656.1,433.9l-3.5,2.7c-2.8,2.3-6.9,2-9.3-0.6l0,0c-2.4-2.7-2.3-6.7,0.2-9.3l3.1-3.2"/>
	<path class="st14" d="M132,337.6L132,337.6c-2.1,1.8-5.3,1.5-7.2-0.6l-2.4-2.8c-2.4-2.7-2.2-6.8,0.4-9.3l0,0
		c2.6-2.5,6.8-2.5,9.4,0.1l2.6,2.5l0.2,0.2c1.9,2,1.8,5.2-0.2,7.2l0,0l0,0l-2.7,2.5L132,337.6z"/>
	<path class="st15" d="M132.5,337.6c-2.1,1.8-5.3,1.6-7.1-0.5l0,0l-2.4-2.8c-2.4-2.7-2.2-6.8,0.4-9.3l0,0c2.6-2.5,6.8-2.4,9.4,0.1
		l2.6,2.5l0.2,0.2c1.9,2,1.8,5.3-0.2,7.2l-2.7,2.5L132.5,337.6z"/>
	<path class="st16" d="M134.2,337.6L134.2,337.6c-2.1,1.8-5.3,1.6-7.2-0.5l0,0l0,0l-2.4-2.8c-2.4-2.7-2.2-6.8,0.4-9.3l0,0
		c2.6-2.5,6.7-2.4,9.3,0.1l2.6,2.5l0.2,0.2c1.9,2,1.8,5.2-0.2,7.2l0,0l0,0L134.2,337.6C134.2,337.4,134.2,337.5,134.2,337.6z"/>
	<path class="st17" d="M127.4,337.7l-2.8-3.4c-2.4-2.7-2.2-6.8,0.4-9.3l0,0c2.6-2.5,6.7-2.4,9.3,0.1l3.2,3"/>
	<path class="st14" d="M119.4,352.4L119.4,352.4c-2.1,1.8-5.3,1.5-7.2-0.6l-2.4-2.8c-2.4-2.7-2.2-6.8,0.4-9.3l0,0
		c2.6-2.5,6.8-2.5,9.4,0.1l2.6,2.5l0.2,0.2c1.9,2,1.8,5.2-0.2,7.2l0,0l-2.7,2.5L119.4,352.4z"/>
	<path class="st15" d="M119.8,352.3c-2.1,1.8-5.3,1.6-7.1-0.5l0,0l0,0l-2.4-2.8c-2.4-2.7-2.2-6.8,0.4-9.3l0,0
		c2.6-2.5,6.8-2.4,9.3,0.1l2.6,2.5l0.2,0.2c1.9,2,1.8,5.3-0.2,7.2l-2.7,2.5L119.8,352.3z"/>
	<path class="st16" d="M121.5,352.4L121.5,352.4c-2.1,1.8-5.3,1.6-7.1-0.5l0,0l0,0l0,0L112,349c-2.4-2.7-2.2-6.8,0.4-9.3l0,0
		c2.6-2.5,6.7-2.4,9.3,0.1l2.6,2.5l0.2,0.2c1.9,2,1.8,5.2-0.2,7.2l0,0l0,0l-2.7,2.5C121.5,352.2,121.6,352.3,121.5,352.4z"/>
	<path class="st17" d="M114.7,352.5l-2.8-3.4c-2.4-2.7-2.2-6.8,0.4-9.3l0,0c2.6-2.5,6.7-2.4,9.3,0.1l3.2,3"/>
	<path class="st14" d="M104.5,367.3L104.5,367.3c-2.1,1.8-5.3,1.5-7.2-0.6L95,364c-2.4-2.7-2.2-6.8,0.4-9.3l0,0
		c2.6-2.5,6.8-2.5,9.4,0.1l2.6,2.5l0.2,0.2c1.9,2,1.8,5.2-0.2,7.2l0,0l0,0l-2.7,2.5L104.5,367.3z"/>
	<path class="st15" d="M104.9,367.3c-2.1,1.8-5.3,1.6-7.1-0.5l0,0l0,0l-2.4-2.8c-2.4-2.7-2.2-6.8,0.4-9.3l0,0
		c2.6-2.5,6.8-2.4,9.3,0.1l2.6,2.5l0.2,0.2c1.9,2,1.8,5.3-0.2,7.2l-2.7,2.5L104.9,367.3z"/>
	<path class="st16" d="M106.6,367.3L106.6,367.3c-2.1,1.8-5.3,1.6-7.2-0.5l0,0l0,0L97,364c-2.4-2.7-2.2-6.8,0.4-9.3l0,0
		c2.6-2.5,6.7-2.4,9.3,0.1l2.6,2.5l0.2,0.2c1.9,2,1.8,5.2-0.2,7.2l0,0l0,0L106.6,367.3C106.6,367.1,106.7,367.2,106.6,367.3z"/>
	<path class="st17" d="M99.8,367.4L97,364c-2.4-2.7-2.2-6.8,0.4-9.3l0,0c2.6-2.5,6.7-2.4,9.3,0.1l3.2,3"/>
	<path class="st14" d="M90.4,380.3L90.4,380.3c-2.1,1.8-5.3,1.5-7.2-0.6l-2.4-2.8c-2.4-2.7-2.2-6.8,0.4-9.3l0,0
		c2.6-2.5,6.8-2.5,9.4,0.1l2.6,2.5l0.2,0.2c1.9,2,1.8,5.2-0.2,7.2l0,0l-2.7,2.5L90.4,380.3z"/>
	<path class="st15" d="M90.9,380.2c-2.1,1.8-5.3,1.6-7.1-0.5l0,0l-2.4-2.8c-2.4-2.7-2.2-6.8,0.4-9.3l0,0c2.6-2.5,6.8-2.4,9.3,0.1
		l2.6,2.5l0.2,0.2c1.9,2,1.8,5.3-0.2,7.2l-2.7,2.5L90.9,380.2z"/>
	<path class="st16" d="M92.6,380.2L92.6,380.2c-2.1,1.8-5.3,1.6-7.2-0.5l0,0l0,0l0,0l-2.4-2.8c-2.4-2.7-2.2-6.8,0.4-9.3l0,0
		c2.6-2.5,6.7-2.4,9.3,0.1l2.6,2.5l0.2,0.2c1.9,2,1.8,5.2-0.2,7.2l0,0l0,0L92.6,380.2C92.6,380.1,92.6,380.2,92.6,380.2z"/>
	<path class="st17" d="M85.8,380.4L83,377c-2.4-2.7-2.2-6.8,0.4-9.3l0,0c2.6-2.5,6.7-2.4,9.3,0.1l3.2,3"/>
	<path class="st14" d="M77.7,394.9L77.7,394.9c-2.1,1.8-5.3,1.5-7.2-0.6l-2.4-2.8c-2.4-2.7-2.2-6.8,0.4-9.3l0,0
		c2.6-2.5,6.8-2.5,9.4,0.1l2.6,2.5l0.2,0.2c1.9,2,1.8,5.2-0.2,7.2l0,0l-2.7,2.5L77.7,394.9z"/>
	<path class="st15" d="M78.2,394.9c-2.1,1.8-5.3,1.6-7.1-0.5l0,0l0,0l-2.4-2.8c-2.4-2.7-2.2-6.8,0.4-9.3l0,0
		c2.6-2.5,6.8-2.4,9.3,0.1l2.6,2.5l0.2,0.2c1.9,2,1.8,5.3-0.2,7.2l-2.7,2.5L78.2,394.9z"/>
	<path class="st16" d="M79.9,394.9L79.9,394.9c-2.1,1.8-5.3,1.6-7.2-0.5l0,0l0,0l-2.4-2.8c-2.4-2.7-2.2-6.8,0.4-9.3l0,0
		c2.6-2.5,6.7-2.4,9.3,0.1l2.6,2.5l0.2,0.2c1.9,2,1.8,5.2-0.2,7.2l0,0l0,0L79.9,394.9C79.9,394.7,79.9,394.8,79.9,394.9z"/>
	<path class="st17" d="M73.1,395l-2.8-3.4c-2.4-2.7-2.2-6.8,0.4-9.3l0,0c2.6-2.5,6.7-2.4,9.3,0.1l3.2,3"/>
	<path class="st14" d="M118.8,426.5L118.8,426.5c2.1-1.8,5.3-1.5,7.2,0.6l2.3,2.8c2.4,2.7,2.2,6.8-0.5,9.3l0,0
		c-2.6,2.5-6.8,2.5-9.4-0.1l-2.6-2.5l-0.2-0.2c-1.9-2-1.8-5.3,0.2-7.2l0,0l0,0l2.7-2.5L118.8,426.5z"/>
	<path class="st15" d="M118.3,426.5c2.1-1.8,5.3-1.6,7.1,0.6l0,0l0,0l2.3,2.8c2.4,2.7,2.2,6.8-0.5,9.3l0,0c-2.6,2.5-6.8,2.4-9.3-0.1
		l-2.6-2.5l-0.2-0.2c-1.9-2.1-1.8-5.3,0.2-7.2l2.7-2.5L118.3,426.5z"/>
	<path class="st16" d="M116.6,426.5L116.6,426.5c2.1-1.8,5.3-1.6,7.2,0.6l0,0l0,0l2.3,2.8c2.3,2.7,2.1,6.8-0.5,9.3l0,0
		c-2.6,2.4-6.7,2.4-9.3-0.1l-2.6-2.5l-0.2-0.2c-1.9-2-1.8-5.3,0.2-7.2l0,0l0,0l2.7-2.5C116.6,426.7,116.6,426.5,116.6,426.5z"/>
	<path class="st17" d="M123.4,426.4l2.8,3.4c2.4,2.7,2.2,6.8-0.5,9.3l0,0c-2.6,2.5-6.7,2.4-9.3-0.1l-3.2-3"/>
	<path class="st14" d="M131.5,411.7L131.5,411.7c2.1-1.8,5.3-1.5,7.2,0.6l2.4,2.8c2.4,2.7,2.2,6.8-0.5,9.3l0,0
		c-2.6,2.5-6.8,2.5-9.4-0.1l-2.6-2.5l-0.2-0.2c-1.9-2-1.8-5.3,0.2-7.2l0,0l2.7-2.5L131.5,411.7z"/>
	<path class="st15" d="M131,411.8c2.1-1.8,5.3-1.6,7.1,0.6l0,0l0,0l2.4,2.8c2.4,2.7,2.2,6.8-0.5,9.3l0,0c-2.6,2.5-6.8,2.4-9.3-0.1
		l-2.6-2.5l-0.2-0.2c-1.9-2.1-1.8-5.3,0.2-7.2l2.7-2.5L131,411.8z"/>
	<path class="st16" d="M129.3,411.7L129.3,411.7c2.1-1.8,5.3-1.6,7.1,0.6l0,0l0,0l0,0l2.4,2.8c2.3,2.7,2.1,6.8-0.5,9.3l0,0
		c-2.6,2.4-6.7,2.4-9.3-0.1l-2.6-2.5l-0.2-0.2c-1.9-2-1.8-5.2,0.2-7.2l0,0l0,0l0,0l2.7-2.5C129.3,411.9,129.3,411.8,129.3,411.7z"/>
	<path class="st17" d="M136.1,411.6l2.8,3.4c2.4,2.7,2.2,6.8-0.5,9.3l0,0c-2.6,2.5-6.7,2.4-9.3-0.1l-3.2-3"/>
	<path class="st14" d="M146.4,396.8L146.4,396.8c2.1-1.8,5.3-1.5,7.2,0.6l2.4,2.8c2.4,2.7,2.2,6.8-0.5,9.3l0,0
		c-2.6,2.5-6.8,2.5-9.4-0.1l-2.6-2.5l-0.2-0.2c-1.9-2-1.8-5.3,0.2-7.2l0,0l2.7-2.5L146.4,396.8z"/>
	<path class="st15" d="M146,396.9c2.1-1.8,5.3-1.6,7.1,0.6l0,0l0,0l2.4,2.8c2.4,2.7,2.2,6.8-0.5,9.3l0,0c-2.6,2.5-6.8,2.4-9.4-0.1
		L143,407l-0.2-0.2c-1.9-2.1-1.8-5.3,0.2-7.2l2.7-2.5L146,396.9z"/>
	<path class="st16" d="M144.3,396.9L144.3,396.9c2.1-1.8,5.3-1.6,7.1,0.6l0,0l0,0l2.4,2.8c2.3,2.7,2.1,6.8-0.5,9.3l0,0
		c-2.6,2.4-6.7,2.4-9.3-0.1l-2.6-2.5l-0.2-0.2c-1.9-2-1.8-5.3,0.2-7.2l0,0l0,0l0,0l2.7-2.5C144.2,397,144.2,396.9,144.3,396.9z"/>
	<path class="st17" d="M151.1,396.8l2.8,3.4c2.4,2.7,2.2,6.8-0.5,9.3l0,0c-2.6,2.5-6.7,2.4-9.3-0.1l-3.2-3"/>
	<path class="st14" d="M160.5,383.9L160.5,383.9c2.1-1.8,5.3-1.5,7.2,0.6l2.4,2.8c2.4,2.7,2.2,6.8-0.5,9.3l0,0
		c-2.6,2.5-6.8,2.5-9.4-0.1l-2.6-2.5l-0.2-0.2c-1.9-2-1.8-5.3,0.2-7.2l0,0l2.7-2.5L160.5,383.9z"/>
	<path class="st15" d="M160.1,384c2.1-1.8,5.3-1.6,7.1,0.6l0,0l0,0l2.4,2.8c2.4,2.7,2.2,6.8-0.5,9.3l0,0c-2.6,2.5-6.8,2.4-9.3-0.1
		l-2.6-2.5l-0.2-0.2c-1.9-2.1-1.8-5.3,0.2-7.2l2.7-2.5L160.1,384z"/>
	<path class="st16" d="M158.4,383.9L158.4,383.9c2.1-1.8,5.3-1.6,7.1,0.6l0,0l0,0l0,0l2.4,2.8c2.3,2.7,2.1,6.8-0.5,9.3l0,0
		c-2.6,2.4-6.7,2.4-9.3-0.1l-2.6-2.5l-0.2-0.2c-1.9-2-1.8-5.3,0.2-7.2l0,0l0,0l0,0l2.7-2.5C158.3,384.1,158.3,384,158.4,383.9z"/>
	<path class="st17" d="M165.2,383.8l2.8,3.4c2.4,2.7,2.2,6.8-0.5,9.3l0,0c-2.6,2.5-6.7,2.4-9.3-0.1l-3.2-3"/>
	<path class="st14" d="M173.2,369.3L173.2,369.3c2.1-1.8,5.3-1.5,7.2,0.6l2.4,2.8c2.4,2.7,2.2,6.8-0.5,9.3l0,0
		c-2.6,2.5-6.8,2.5-9.4-0.1l-2.6-2.5l-0.2-0.2c-1.9-2-1.8-5.3,0.2-7.2l0,0l0,0l2.7-2.5L173.2,369.3z"/>
	<path class="st15" d="M172.8,369.4c2.1-1.8,5.3-1.6,7.1,0.6l0,0l2.3,2.8c2.4,2.7,2.2,6.8-0.5,9.3l0,0c-2.6,2.5-6.8,2.4-9.3-0.1
		l-2.6-2.5l-0.2-0.2c-1.9-2.1-1.8-5.3,0.2-7.2l2.7-2.5L172.8,369.4z"/>
	<path class="st16" d="M171.1,369.4L171.1,369.4c2.1-1.8,5.3-1.6,7.1,0.6l0,0l0,0l2.4,2.8c2.3,2.7,2.1,6.8-0.5,9.3l0,0
		c-2.6,2.4-6.7,2.4-9.3-0.1l-2.6-2.5l-0.2-0.2c-1.9-2-1.8-5.3,0.2-7.2l0,0l0,0l0,0l2.7-2.5C171.1,369.5,171.1,369.4,171.1,369.4z"/>
	<path class="st17" d="M177.9,369.2l2.8,3.4c2.4,2.7,2.2,6.8-0.5,9.3l0,0c-2.6,2.5-6.7,2.4-9.3-0.1l-3.2-3"/>
	<path class="st14" d="M153.5,335.5L153.5,335.5c-2-1.9-2.1-5.1-0.2-7.2l2.5-2.6c2.4-2.6,6.5-2.9,9.3-0.6l0,0
		c2.8,2.3,3.2,6.5,0.9,9.3l-2.2,2.9l-0.2,0.2c-1.8,2.1-5,2.4-7.1,0.6l0,0l-2.7-2.4L153.5,335.5z"/>
	<path class="st15" d="M153.6,335.9c-2-1.9-2.1-5.1-0.2-7.1l0,0l2.5-2.6c2.4-2.6,6.5-2.9,9.3-0.6l0,0c2.7,2.4,3.1,6.5,0.9,9.3
		l-2.2,2.9l-0.2,0.2c-1.8,2.1-5,2.4-7.2,0.5l-2.8-2.4L153.6,335.9z"/>
	<path class="st16" d="M153.7,337.6L153.7,337.6c-2-1.9-2.1-5.1-0.2-7.2l0,0l0,0l0,0l2.5-2.6c2.5-2.6,6.5-2.9,9.3-0.6l0,0
		c2.7,2.3,3.1,6.4,0.9,9.2l-2.2,2.9l-0.2,0.2c-1.8,2.1-5,2.4-7.1,0.6l0,0l0,0l0,0l-2.8-2.4C153.9,337.6,153.8,337.6,153.7,337.6z"/>
	<path class="st17" d="M152.9,330.8l3.1-3.1c2.4-2.6,6.5-2.9,9.3-0.6l0,0c2.7,2.3,3.1,6.4,0.9,9.2l-2.6,3.5"/>
	<path class="st14" d="M168.2,350.8L168.2,350.8c-2-1.9-2.1-5.1-0.2-7.2l2.5-2.6c2.4-2.6,6.5-2.9,9.3-0.6l0,0
		c2.8,2.3,3.2,6.5,0.9,9.3l-2.2,2.9l-0.2,0.2c-1.8,2.1-5,2.4-7.1,0.6l0,0l0,0l-2.7-2.4L168.2,350.8z"/>
	<path class="st15" d="M168.3,351.2c-2-1.9-2.1-5.1-0.2-7.1l0,0l0,0l2.5-2.6c2.4-2.6,6.5-2.9,9.3-0.6l0,0c2.7,2.4,3.1,6.5,0.9,9.3
		l-2.2,2.9l-0.2,0.2c-1.8,2.1-5,2.4-7.2,0.5l-2.8-2.4L168.3,351.2z"/>
	<path class="st16" d="M168.4,352.9L168.4,352.9c-2-1.9-2.1-5.1-0.2-7.2l0,0l0,0l2.5-2.6c2.5-2.6,6.5-2.9,9.3-0.6l0,0
		c2.7,2.3,3.1,6.4,0.9,9.2l-2.2,2.9l-0.2,0.2c-1.8,2.1-5,2.4-7.1,0.6l0,0l0,0l-2.8-2.4C168.6,352.9,168.5,352.9,168.4,352.9z"/>
	<path class="st17" d="M167.6,346.2l3.1-3.1c2.4-2.6,6.5-2.9,9.3-0.6l0,0c2.7,2.3,3.1,6.4,0.9,9.2l-2.6,3.5"/>
	<path class="st14" d="M81.1,416.1L81.1,416.1c1.8,2.2,1.5,5.3-0.6,7.1l-2.8,2.3c-2.7,2.3-6.8,2.1-9.3-0.5l0,0
		c-2.5-2.6-2.4-6.8,0.1-9.4l2.6-2.6l0.2-0.2c2.1-1.9,5.3-1.8,7.2,0.3l0,0l2.4,2.7L81.1,416.1z"/>
	<path class="st15" d="M81,415.7c1.8,2.1,1.5,5.3-0.6,7.1l0,0l0,0l-2.8,2.3c-2.7,2.3-6.8,2.1-9.3-0.5l0,0c-2.5-2.7-2.4-6.8,0.2-9.3
		l2.5-2.6l0.2-0.2c2.1-1.9,5.3-1.8,7.2,0.3l2.5,2.7L81,415.7z"/>
	<path class="st16" d="M81.1,414L81.1,414c1.8,2.1,1.5,5.3-0.6,7.1l0,0l0,0l0,0l-2.8,2.3c-2.7,2.3-6.8,2.1-9.3-0.5l0,0
		c-2.4-2.6-2.3-6.7,0.2-9.3l2.6-2.6l0.2-0.2c2.1-1.9,5.3-1.8,7.2,0.3l0,0l0,0l2.5,2.7C80.9,413.9,81,413.9,81.1,414z"/>
	<path class="st17" d="M81.1,420.8l-3.4,2.7c-2.7,2.3-6.8,2.1-9.3-0.5l0,0c-2.4-2.6-2.4-6.7,0.1-9.3l3-3.2"/>
	<path class="st14" d="M97.1,429.9L97.1,429.9c1.8,2.2,1.5,5.3-0.6,7.1l-2.8,2.3c-2.7,2.3-6.8,2.1-9.3-0.5l0,0
		c-2.5-2.6-2.4-6.8,0.1-9.4l2.6-2.6l0.2-0.2c2.1-1.9,5.3-1.8,7.2,0.3l0,0l0,0l2.4,2.7L97.1,429.9z"/>
	<path class="st15" d="M97.1,429.4c1.8,2.1,1.5,5.3-0.6,7.1l0,0l0,0l-2.8,2.3c-2.7,2.3-6.8,2.1-9.3-0.5l0,0
		c-2.5-2.7-2.4-6.8,0.2-9.3l2.5-2.6l0.2-0.2c2.1-1.9,5.3-1.8,7.2,0.3l2.5,2.7L97.1,429.4z"/>
	<path class="st16" d="M97.1,427.7L97.1,427.7c1.8,2.1,1.5,5.3-0.6,7.1l0,0l0,0l-2.8,2.3c-2.7,2.3-6.8,2.1-9.3-0.5l0,0
		c-2.4-2.6-2.3-6.7,0.2-9.3l2.6-2.6l0.2-0.2c2.1-1.9,5.3-1.8,7.2,0.3l0,0l0,0l2.5,2.7C96.9,427.7,97,427.7,97.1,427.7z"/>
	<path class="st17" d="M97.2,434.5l-3.4,2.7c-2.7,2.3-6.8,2.1-9.3-0.5l0,0c-2.4-2.6-2.4-6.7,0.1-9.3l3-3.2"/>
	<path class="st14" d="M300.7,204.3L300.7,204.3c-0.1,2.8-2.5,5-5.3,4.9l-3.6-0.1c-3.6-0.1-6.5-3-6.6-6.6l0,0
		c-0.1-3.6,2.7-6.7,6.4-6.8l3.6-0.2h0.2c2.8,0,5.1,2.2,5.1,5l0,0v3.7L300.7,204.3z"/>
	<path class="st15" d="M300.9,203.9c-0.1,2.8-2.4,5-5.2,4.9l0,0h-0.1l-3.6-0.1c-3.6-0.1-6.5-3-6.6-6.6l0,0c0-3.6,2.8-6.6,6.4-6.8
		l3.6-0.2h0.3c2.8,0,5.1,2.2,5.1,5v3.7L300.9,203.9z"/>
	<path class="st16" d="M302.1,202.7L302.1,202.7c-0.1,2.8-2.4,5-5.2,4.9l0,0l0,0l-3.6-0.1c-3.6-0.1-6.5-3-6.6-6.6l0,0
		c0-3.6,2.8-6.6,6.4-6.8l3.6-0.2h0.2c2.8,0,5.1,2.2,5.1,5l0,0l0,0v3.7C302,202.5,302.1,202.6,302.1,202.7z"/>
	<path class="st17" d="M297.6,207.8l-4.4-0.3c-3.6-0.1-6.5-3-6.6-6.6l0,0c0-3.6,2.7-6.6,6.3-6.8l4.4-0.4"/>
	<path class="st14" d="M300.7,225.1L300.7,225.1c-0.1,2.8-2.5,5-5.3,4.9l-3.6-0.1c-3.6-0.1-6.5-3-6.6-6.6l0,0
		c-0.1-3.6,2.7-6.7,6.4-6.8l3.6-0.2h0.2c2.8,0,5.1,2.2,5.1,5l0,0v3.7L300.7,225.1z"/>
	<path class="st15" d="M300.9,224.7c-0.1,2.8-2.4,5-5.2,4.9h-0.1l-3.6-0.1c-3.6-0.1-6.5-3-6.6-6.6l0,0c0-3.6,2.8-6.6,6.4-6.8
		l3.6-0.2h0.3c2.8,0,5.1,2.2,5.1,5v3.7L300.9,224.7z"/>
	<path class="st16" d="M302.1,223.5L302.1,223.5c-0.1,2.8-2.4,5-5.2,4.9l0,0l0,0l-3.6-0.1c-3.6-0.1-6.5-3-6.6-6.6l0,0
		c0-3.6,2.8-6.6,6.4-6.8l3.6-0.2h0.2c2.8,0,5.1,2.2,5.1,5l0,0l0,0v3.7C302,223.3,302.1,223.4,302.1,223.5z"/>
	<path class="st17" d="M297.6,228.6l-4.4-0.3c-3.6-0.1-6.5-3-6.6-6.6l0,0c0-3.6,2.7-6.6,6.3-6.8l4.4-0.4"/>
	<path class="st14" d="M300.7,245.9L300.7,245.9c-0.1,2.8-2.5,5-5.3,4.9l-3.6-0.1c-3.6-0.1-6.5-3-6.6-6.6l0,0
		c-0.1-3.6,2.7-6.7,6.4-6.8l3.6-0.2h0.2c2.8,0,5.1,2.2,5.1,5l0,0v3.7L300.7,245.9z"/>
	<path class="st15" d="M300.9,245.5c-0.1,2.8-2.4,5-5.2,4.9h-0.1l-3.6-0.1c-3.6-0.1-6.5-3-6.6-6.6l0,0c0-3.6,2.8-6.6,6.4-6.8
		l3.6-0.2h0.3c2.8,0,5.1,2.2,5.1,5v3.7L300.9,245.5z"/>
	<path class="st16" d="M302.1,244.3L302.1,244.3c-0.1,2.8-2.4,5-5.2,4.9l0,0l0,0l-3.6-0.1c-3.6-0.1-6.5-3-6.6-6.6l0,0
		c0-3.6,2.8-6.6,6.4-6.8l3.6-0.2h0.2c2.8,0,5.1,2.2,5.1,5l0,0l0,0v3.7C302,244.1,302.1,244.2,302.1,244.3z"/>
	<path class="st17" d="M297.6,249.4l-4.4-0.3c-3.6-0.1-6.5-3-6.6-6.6l0,0c0-3.6,2.7-6.6,6.3-6.8l4.4-0.4"/>
	<path class="st14" d="M436.8,241L436.8,241c0.1-2.8,2.5-5,5.3-4.9l3.6,0.1c3.6,0.1,6.5,3,6.6,6.6l0,0c0.1,3.6-2.7,6.7-6.4,6.8
		l-3.6,0.2H442c-2.8,0-5.1-2.2-5.1-5l0,0v-3.7L436.8,241z"/>
	<path class="st15" d="M436.6,241.4c0.1-2.8,2.4-5,5.2-4.9l0,0l3.6,0.1c3.6,0.1,6.5,3,6.6,6.6l0,0c0,3.6-2.8,6.6-6.4,6.8l-3.6,0.2
		h-0.3c-2.8,0-5.1-2.2-5.1-5v-3.7L436.6,241.4z"/>
	<path class="st16" d="M435.4,242.6L435.4,242.6c0.1-2.8,2.4-5,5.2-4.9l0,0l0,0l3.6,0.1c3.6,0.1,6.5,3,6.6,6.6l0,0
		c0,3.6-2.8,6.6-6.4,6.8l-3.6,0.2h-0.2c-2.8,0-5.1-2.2-5.1-5l0,0l0,0v-3.7C435.5,242.7,435.4,242.7,435.4,242.6z"/>
	<path class="st17" d="M439.9,237.5l4.4,0.3c3.6,0.1,6.5,3,6.6,6.6l0,0c0,3.6-2.7,6.6-6.3,6.8l-4.4,0.4"/>
	<path class="st14" d="M436.8,220.2L436.8,220.2c0.1-2.8,2.5-5,5.3-4.9l3.6,0.1c3.6,0.1,6.5,3,6.6,6.6l0,0c0.1,3.6-2.7,6.7-6.4,6.8
		l-3.6,0.2H442c-2.8,0-5.1-2.2-5.1-5l0,0v-3.7L436.8,220.2z"/>
	<path class="st15" d="M436.6,220.6c0.1-2.8,2.4-5,5.2-4.9l0,0l3.6,0.1c3.6,0.1,6.5,3,6.6,6.6l0,0c0,3.6-2.8,6.6-6.4,6.8l-3.6,0.2
		h-0.3c-2.8,0-5.1-2.2-5.1-5v-3.7L436.6,220.6z"/>
	<path class="st16" d="M435.4,221.8L435.4,221.8c0.1-2.8,2.4-5,5.2-4.9l0,0l0,0l3.6,0.1c3.6,0.1,6.5,3,6.6,6.6l0,0
		c0,3.6-2.8,6.6-6.4,6.8l-3.6,0.2h-0.2c-2.8,0-5.1-2.2-5.1-5l0,0l0,0v-3.7C435.5,221.9,435.4,221.9,435.4,221.8z"/>
	<path class="st17" d="M439.9,216.7l4.4,0.3c3.6,0.1,6.5,3,6.6,6.6l0,0c0,3.6-2.7,6.6-6.3,6.8l-4.4,0.4"/>
	<path class="st14" d="M436.8,199.4L436.8,199.4c0.1-2.8,2.5-5,5.3-4.9l3.6,0.1c3.6,0.1,6.5,3,6.6,6.6l0,0c0.1,3.6-2.7,6.7-6.4,6.8
		l-3.6,0.2H442c-2.8,0-5.1-2.2-5.1-5l0,0v-3.7L436.8,199.4z"/>
	<path class="st15" d="M436.6,199.8c0.1-2.8,2.4-5,5.2-4.9l0,0l3.6,0.1c3.6,0.1,6.5,3,6.6,6.6l0,0c0,3.6-2.8,6.6-6.4,6.8l-3.6,0.2
		h-0.3c-2.8,0-5.1-2.2-5.1-5v-3.7L436.6,199.8z"/>
	<path class="st16" d="M435.4,201L435.4,201c0.1-2.8,2.4-5,5.2-4.9l0,0l0,0l3.6,0.1c3.6,0.1,6.5,3,6.6,6.6l0,0
		c0,3.6-2.8,6.6-6.4,6.8l-3.6,0.2h-0.2c-2.8,0-5.1-2.2-5.1-5l0,0l0,0v-3.7C435.5,201.1,435.4,201.1,435.4,201z"/>
	<path class="st17" d="M439.9,195.9l4.4,0.3c3.6,0.1,6.5,3,6.6,6.6l0,0c0,3.6-2.7,6.6-6.3,6.8l-4.4,0.4"/>
	<path class="st14" d="M352.5,190.3L352.5,190.3c-2.8-0.1-5-2.5-4.9-5.3l0.1-3.6c0.1-3.6,3-6.5,6.6-6.6l0,0c3.6-0.1,6.7,2.7,6.8,6.4
		l0.2,3.6v0.2c0,2.8-2.2,5.1-5,5.1l0,0h-3.7L352.5,190.3z"/>
	<path class="st15" d="M352.9,190.6c-2.8-0.1-5-2.4-4.9-5.2v-0.1l0.1-3.6c0.1-3.6,3-6.5,6.6-6.6l0,0c3.6,0,6.6,2.8,6.8,6.4l0.2,3.6
		v0.3c0,2.8-2.2,5.1-5,5.1H353L352.9,190.6z"/>
	<path class="st16" d="M354.1,191.7L354.1,191.7c-2.8-0.1-5-2.4-4.9-5.2l0,0l0,0l0,0l0.1-3.6c0.1-3.6,3-6.5,6.6-6.6l0,0
		c3.6,0,6.6,2.8,6.8,6.4l0.2,3.6v0.2c0,2.8-2.2,5.1-5,5.1l0,0h-3.7C354.3,191.6,354.2,191.7,354.1,191.7z"/>
	<path class="st17" d="M349,187.2l0.3-4.4c0.1-3.6,3-6.5,6.6-6.6l0,0c3.6,0,6.6,2.7,6.8,6.3l0.4,4.4"/>
	<path class="st14" d="M331.7,190.3L331.7,190.3c-2.8-0.1-5-2.5-4.9-5.3l0.1-3.6c0.1-3.6,3-6.5,6.6-6.6l0,0c3.6-0.1,6.7,2.7,6.8,6.4
		l0.2,3.6v0.2c0,2.8-2.2,5.1-5,5.1l0,0h-3.7L331.7,190.3z"/>
	<path class="st15" d="M332.1,190.6c-2.8-0.1-5-2.4-4.9-5.2v-0.1l0.1-3.6c0.1-3.6,3-6.5,6.6-6.6l0,0c3.6,0,6.6,2.8,6.8,6.4l0.2,3.6
		v0.3c0,2.8-2.2,5.1-5,5.1h-3.7L332.1,190.6z"/>
	<path class="st16" d="M333.3,191.7L333.3,191.7c-2.8-0.1-5-2.4-4.9-5.2l0,0l0,0l0,0l0.1-3.6c0.1-3.6,3-6.5,6.6-6.6l0,0
		c3.6,0,6.6,2.8,6.8,6.4l0.2,3.6v0.2c0,2.8-2.2,5.1-5,5.1l0,0h-3.7C333.5,191.6,333.4,191.7,333.3,191.7z"/>
	<path class="st17" d="M328.2,187.2l0.3-4.4c0.1-3.6,3-6.5,6.6-6.6l0,0c3.6,0,6.6,2.7,6.8,6.3l0.4,4.4"/>
	<path class="st14" d="M310.9,190.3L310.9,190.3c-2.8-0.1-5-2.5-4.9-5.3l0.1-3.6c0.1-3.6,3-6.5,6.6-6.6l0,0c3.6-0.1,6.7,2.7,6.8,6.4
		l0.2,3.6v0.2c0,2.8-2.2,5.1-5,5.1l0,0H311L310.9,190.3z"/>
	<path class="st15" d="M311.3,190.6c-2.8-0.1-5-2.4-4.9-5.2v-0.1l0.1-3.6c0.1-3.6,3-6.5,6.6-6.6l0,0c3.6,0,6.6,2.8,6.8,6.4l0.2,3.6
		v0.3c0,2.8-2.2,5.1-5,5.1h-3.7L311.3,190.6z"/>
	<path class="st16" d="M312.5,191.7L312.5,191.7c-2.8-0.1-5-2.4-4.9-5.2l0,0l0,0l0,0l0.1-3.6c0.1-3.6,3-6.5,6.6-6.6l0,0
		c3.6,0,6.6,2.8,6.8,6.4l0.2,3.6v0.2c0,2.8-2.2,5.1-5,5.1l0,0h-3.7C312.7,191.6,312.6,191.7,312.5,191.7z"/>
	<path class="st17" d="M307.4,187.2l0.3-4.4c0.1-3.6,3-6.5,6.6-6.6l0,0c3.6,0,6.6,2.7,6.8,6.3l0.4,4.4"/>
	<path class="st14" d="M417.8,190.3L417.8,190.3c-2.8-0.1-5-2.5-4.9-5.3l0.1-3.6c0.1-3.6,3-6.5,6.6-6.6l0,0c3.6-0.1,6.7,2.7,6.8,6.4
		l0.2,3.6v0.2c0,2.8-2.2,5.1-5,5.1l0,0h-3.7L417.8,190.3z"/>
	<path class="st15" d="M418.2,190.6c-2.8-0.1-5-2.4-4.9-5.2v-0.1l0.1-3.6c0.1-3.6,3-6.5,6.6-6.6l0,0c3.6,0,6.6,2.8,6.8,6.4l0.2,3.6
		v0.3c0,2.8-2.2,5.1-5,5.1h-3.7L418.2,190.6z"/>
	<path class="st16" d="M419.4,191.7L419.4,191.7c-2.8-0.1-5-2.4-4.9-5.2l0,0l0,0l0,0l0.1-3.6c0.1-3.6,3-6.5,6.6-6.6l0,0
		c3.6,0,6.6,2.8,6.8,6.4l0.2,3.6v0.2c0,2.8-2.2,5.1-5,5.1l0,0h-3.7C419.6,191.6,419.5,191.7,419.4,191.7z"/>
	<path class="st17" d="M414.3,187.2l0.3-4.4c0.1-3.6,3-6.5,6.6-6.6l0,0c3.6,0,6.6,2.7,6.8,6.3l0.4,4.4"/>
	<path class="st14" d="M397,190.3L397,190.3c-2.8-0.1-5-2.5-4.9-5.3l0.1-3.6c0.1-3.6,3-6.5,6.6-6.6l0,0c3.6-0.1,6.7,2.7,6.8,6.4
		l0.2,3.6v0.2c0,2.8-2.2,5.1-5,5.1l0,0h-3.7L397,190.3z"/>
	<path class="st15" d="M397.4,190.6c-2.8-0.1-5-2.4-4.9-5.2v-0.1l0.1-3.6c0.1-3.6,3-6.5,6.6-6.6l0,0c3.6,0,6.6,2.8,6.8,6.4l0.2,3.6
		v0.3c0,2.8-2.2,5.1-5,5.1h-3.7L397.4,190.6z"/>
	<path class="st16" d="M398.6,191.7L398.6,191.7c-2.8-0.1-5-2.4-4.9-5.2l0,0l0,0l0,0l0.1-3.6c0.1-3.6,3-6.5,6.6-6.6l0,0
		c3.6,0,6.6,2.8,6.8,6.4l0.2,3.6v0.2c0,2.8-2.2,5.1-5,5.1l0,0h-3.7C398.8,191.6,398.7,191.7,398.6,191.7z"/>
	<path class="st17" d="M393.5,187.2l0.3-4.4c0.1-3.6,3-6.5,6.6-6.6l0,0c3.6,0,6.6,2.7,6.8,6.3l0.4,4.4"/>
	<path class="st14" d="M376.2,190.3L376.2,190.3c-2.8-0.1-5-2.5-4.9-5.3l0.1-3.6c0.1-3.6,3-6.5,6.6-6.6l0,0c3.6-0.1,6.7,2.7,6.8,6.4
		l0.2,3.6v0.2c0,2.8-2.2,5.1-5,5.1l0,0h-3.7L376.2,190.3z"/>
	<path class="st15" d="M376.6,190.6c-2.8-0.1-5-2.4-4.9-5.2v-0.1l0.1-3.6c0.1-3.6,3-6.5,6.6-6.6l0,0c3.6,0,6.6,2.8,6.8,6.4l0.2,3.6
		v0.3c0,2.8-2.2,5.1-5,5.1h-3.7L376.6,190.6z"/>
	<path class="st16" d="M377.8,191.7L377.8,191.7c-2.8-0.1-5-2.4-4.9-5.2l0,0l0,0l0,0l0.1-3.6c0.1-3.6,3-6.5,6.6-6.6l0,0
		c3.6,0,6.6,2.8,6.8,6.4l0.2,3.6v0.2c0,2.8-2.2,5.1-5,5.1l0,0h-3.7C378,191.6,377.9,191.7,377.8,191.7z"/>
	<path class="st17" d="M372.7,187.2l0.3-4.4c0.1-3.6,3-6.5,6.6-6.6l0,0c3.6,0,6.6,2.7,6.8,6.3l0.4,4.4"/>
	<path class="st14" d="M381.9,254L381.9,254c2.8,0.1,5,2.5,4.9,5.3l-0.1,3.6c-0.1,3.6-3,6.5-6.6,6.6l0,0c-3.6,0.1-6.7-2.7-6.8-6.4
		l-0.2-3.6v-0.2c0-2.8,2.2-5.1,5-5.1l0,0h3.7L381.9,254z"/>
	<path class="st15" d="M381.5,253.7c2.8,0.1,5,2.4,4.9,5.2l0,0v0.1l-0.1,3.6c-0.1,3.6-3,6.5-6.6,6.6l0,0c-3.6,0-6.6-2.8-6.8-6.4
		l-0.2-3.6v-0.3c0-2.8,2.2-5.1,5-5.1h3.7L381.5,253.7z"/>
	<path class="st16" d="M380.3,252.6L380.3,252.6c2.8,0.1,5,2.4,4.9,5.2l0,0l0,0l0,0l-0.1,3.6c-0.1,3.6-3,6.5-6.6,6.6l0,0
		c-3.6,0-6.6-2.8-6.8-6.4l-0.2-3.6v-0.2c0-2.8,2.2-5.1,5-5.1l0,0h3.7C380.1,252.7,380.2,252.6,380.3,252.6z"/>
	<path class="st17" d="M385.4,257.1l-0.3,4.4c-0.1,3.6-3,6.5-6.6,6.6l0,0c-3.6,0-6.6-2.7-6.8-6.3l-0.4-4.4"/>
	<path class="st14" d="M402.7,254L402.7,254c2.8,0.1,5,2.5,4.9,5.3l-0.1,3.6c-0.1,3.6-3,6.5-6.6,6.6l0,0c-3.6,0.1-6.7-2.7-6.8-6.4
		l-0.2-3.6v-0.2c0-2.8,2.2-5.1,5-5.1l0,0h3.7L402.7,254z"/>
	<path class="st15" d="M402.3,253.7c2.8,0.1,5,2.4,4.9,5.2l0,0v0.1l-0.1,3.6c-0.1,3.6-3,6.5-6.6,6.6l0,0c-3.6,0-6.6-2.8-6.8-6.4
		l-0.2-3.6v-0.3c0-2.8,2.2-5.1,5-5.1h3.7L402.3,253.7z"/>
	<path class="st16" d="M401.1,252.6L401.1,252.6c2.8,0.1,5,2.4,4.9,5.2l0,0l0,0l0,0l-0.1,3.6c-0.1,3.6-3,6.5-6.6,6.6l0,0
		c-3.6,0-6.6-2.8-6.8-6.4l-0.2-3.6v-0.2c0-2.8,2.2-5.1,5-5.1l0,0h3.7C400.9,252.7,401,252.6,401.1,252.6z"/>
	<path class="st17" d="M406.2,257.1l-0.3,4.4c-0.1,3.6-3,6.5-6.6,6.6l0,0c-3.6,0-6.6-2.7-6.8-6.3l-0.4-4.4"/>
	<path class="st14" d="M423.5,254L423.5,254c2.8,0.1,5,2.5,4.9,5.3l-0.1,3.6c-0.1,3.6-3,6.5-6.6,6.6l0,0c-3.6,0.1-6.7-2.7-6.8-6.4
		l-0.2-3.6v-0.2c0-2.8,2.2-5.1,5-5.1l0,0h3.7L423.5,254z"/>
	<path class="st15" d="M423.1,253.7c2.8,0.1,5,2.4,4.9,5.2l0,0v0.1l-0.1,3.6c-0.1,3.6-3,6.5-6.6,6.6l0,0c-3.6,0-6.6-2.8-6.8-6.4
		l-0.2-3.6v-0.3c0-2.8,2.2-5.1,5-5.1h3.7L423.1,253.7z"/>
	<path class="st16" d="M421.9,252.6L421.9,252.6c2.8,0.1,5,2.4,4.9,5.2l0,0l0,0l0,0l-0.1,3.6c-0.1,3.6-3,6.5-6.6,6.6l0,0
		c-3.6,0-6.6-2.8-6.8-6.4L413,258v-0.2c0-2.8,2.2-5.1,5-5.1l0,0h3.7C421.7,252.7,421.8,252.6,421.9,252.6z"/>
	<path class="st17" d="M427,257.1l-0.3,4.4c-0.1,3.6-3,6.5-6.6,6.6l0,0c-3.6,0-6.6-2.7-6.8-6.3l-0.4-4.4"/>
	<path class="st14" d="M316.5,254L316.5,254c2.8,0.1,5,2.5,4.9,5.3l-0.1,3.6c-0.1,3.6-3,6.5-6.6,6.6l0,0c-3.6,0.1-6.7-2.7-6.8-6.4
		l-0.2-3.6v-0.2c0-2.8,2.2-5.1,5-5.1l0,0h3.7L316.5,254z"/>
	<path class="st15" d="M316.2,253.7c2.8,0.1,5,2.4,4.9,5.2l0,0v0.1l-0.1,3.6c-0.1,3.6-3,6.5-6.6,6.6l0,0c-3.6,0-6.6-2.8-6.8-6.4
		l-0.2-3.6v-0.3c0-2.8,2.2-5.1,5-5.1h3.7L316.2,253.7z"/>
	<path class="st16" d="M315,252.6L315,252.6c2.8,0.1,5,2.4,4.9,5.2l0,0l0,0l0,0l-0.1,3.6c-0.1,3.6-3,6.5-6.6,6.6l0,0
		c-3.6,0-6.6-2.8-6.8-6.4l-0.2-3.6v-0.2c0-2.8,2.2-5.1,5-5.1l0,0h3.7C314.8,252.7,314.9,252.6,315,252.6z"/>
	<path class="st17" d="M320,257.1l-0.3,4.4c-0.1,3.6-3,6.5-6.6,6.6l0,0c-3.6,0-6.6-2.7-6.8-6.3l-0.4-4.4"/>
	<path class="st14" d="M337.4,254L337.4,254c2.8,0.1,5,2.5,4.9,5.3l-0.1,3.6c-0.1,3.6-3,6.5-6.6,6.6l0,0c-3.6,0.1-6.7-2.7-6.8-6.4
		l-0.2-3.6v-0.2c0-2.8,2.2-5.1,5-5.1l0,0h3.7L337.4,254z"/>
	<path class="st15" d="M337,253.7c2.8,0.1,5,2.4,4.9,5.2v0.1l-0.1,3.6c-0.1,3.6-3,6.5-6.6,6.6l0,0c-3.6,0-6.6-2.8-6.8-6.4l-0.2-3.6
		v-0.3c0-2.8,2.2-5.1,5-5.1h3.7L337,253.7z"/>
	<path class="st16" d="M335.8,252.6L335.8,252.6c2.8,0.1,5,2.4,4.9,5.2l0,0l0,0l0,0l-0.1,3.6c-0.1,3.6-3,6.5-6.6,6.6l0,0
		c-3.6,0-6.6-2.8-6.8-6.4L327,258v-0.2c0-2.8,2.2-5.1,5-5.1l0,0h3.7C335.6,252.7,335.7,252.6,335.8,252.6z"/>
	<path class="st17" d="M340.9,257.1l-0.3,4.4c-0.1,3.6-3,6.5-6.6,6.6l0,0c-3.6,0-6.6-2.7-6.8-6.3l-0.4-4.4"/>
	<path class="st14" d="M358.1,254L358.1,254c2.8,0.1,5,2.5,4.9,5.3l-0.1,3.6c-0.1,3.6-3,6.5-6.6,6.6l0,0c-3.6,0.1-6.7-2.7-6.8-6.4
		l-0.2-3.6v-0.2c0-2.8,2.2-5.1,5-5.1l0,0h3.7L358.1,254z"/>
	<path class="st15" d="M357.8,253.7c2.8,0.1,5,2.4,4.9,5.2v0.1l-0.1,3.6c-0.1,3.6-3,6.5-6.6,6.6l0,0c-3.6,0-6.6-2.8-6.8-6.4
		l-0.2-3.6v-0.3c0-2.8,2.2-5.1,5-5.1h3.7L357.8,253.7z"/>
	<path class="st16" d="M356.6,252.6L356.6,252.6c2.8,0.1,5,2.4,4.9,5.2l0,0l0,0l0,0l-0.1,3.6c-0.1,3.6-3,6.5-6.6,6.6l0,0
		c-3.6,0-6.6-2.8-6.8-6.4l-0.2-3.6v-0.2c0-2.8,2.2-5.1,5-5.1l0,0h3.7C356.4,252.7,356.5,252.6,356.6,252.6z"/>
	<path class="st17" d="M361.6,257.1l-0.3,4.4c-0.1,3.6-3,6.5-6.6,6.6l0,0c-3.6,0-6.6-2.7-6.8-6.3l-0.4-4.4"/>
	<path class="st14" d="M640,38.7L640,38.7c-2.8-0.1-5-2.5-4.9-5.3l0.1-3.6c0.1-3.6,3-6.5,6.6-6.6l0,0c3.6-0.1,6.7,2.7,6.8,6.4
		l0.2,3.6v0.2c0,2.8-2.2,5.1-5,5.1l0,0h-3.7L640,38.7z"/>
	<path class="st15" d="M640.4,38.9c-2.8-0.1-5-2.4-4.9-5.2l0,0l0.1-3.6c0.1-3.6,3-6.5,6.6-6.6l0,0c3.6,0,6.6,2.8,6.8,6.4l0.2,3.6
		v0.3c0,2.8-2.2,5.1-5,5.1L640.4,38.9L640.4,38.9z"/>
	<path class="st16" d="M641.6,40.1L641.6,40.1c-2.8-0.1-5-2.4-4.9-5.2l0,0l0,0l0,0l0.1-3.6c0.1-3.6,3-6.5,6.6-6.6l0,0
		c3.6,0,6.6,2.8,6.8,6.4l0.2,3.6v0.2c0,2.8-2.2,5.1-5,5.1l0,0h-3.7C641.7,40,641.7,40.1,641.6,40.1z"/>
	<path class="st17" d="M636.5,35.6l0.3-4.4c0.1-3.6,3-6.5,6.6-6.6l0,0c3.6,0,6.6,2.7,6.8,6.3l0.4,4.4"/>
	<path class="st14" d="M619.2,38.7L619.2,38.7c-2.8-0.1-5-2.5-4.9-5.3l0.1-3.6c0.1-3.6,3-6.5,6.6-6.6l0,0c3.6-0.1,6.7,2.7,6.8,6.4
		l0.2,3.6v0.2c0,2.8-2.2,5.1-5,5.1l0,0h-3.7L619.2,38.7z"/>
	<path class="st15" d="M619.6,38.9c-2.8-0.1-5-2.4-4.9-5.2l0,0l0.1-3.6c0.1-3.6,3-6.5,6.6-6.6l0,0c3.6,0,6.6,2.8,6.8,6.4l0.2,3.6
		v0.3c0,2.8-2.2,5.1-5,5.1L619.6,38.9L619.6,38.9z"/>
	<path class="st16" d="M620.8,40.1L620.8,40.1c-2.8-0.1-5-2.4-4.9-5.2l0,0l0,0l0,0l0.1-3.6c0.1-3.6,3-6.5,6.6-6.6l0,0
		c3.6,0,6.6,2.8,6.8,6.4l0.2,3.6v0.2c0,2.8-2.2,5.1-5,5.1l0,0h-3.7C620.9,40,620.9,40.1,620.8,40.1z"/>
	<path class="st17" d="M615.7,35.6l0.3-4.4c0.1-3.6,3-6.5,6.6-6.6l0,0c3.6,0,6.6,2.7,6.8,6.3l0.4,4.4"/>
	<path class="st14" d="M598.4,38.7L598.4,38.7c-2.8-0.1-5-2.5-4.9-5.3l0.1-3.6c0.1-3.6,3-6.5,6.6-6.6l0,0c3.6-0.1,6.7,2.7,6.8,6.4
		l0.2,3.6v0.2c0,2.8-2.2,5.1-5,5.1l0,0h-3.7L598.4,38.7z"/>
	<path class="st15" d="M598.8,38.9c-2.8-0.1-5-2.4-4.9-5.2l0,0L594,30c0.1-3.6,3-6.5,6.6-6.6l0,0c3.6,0,6.6,2.8,6.8,6.4l0.2,3.6v0.3
		c0,2.8-2.2,5.1-5,5.1h-3.7L598.8,38.9z"/>
	<path class="st16" d="M600,40.1L600,40.1c-2.8-0.1-5-2.4-4.9-5.2l0,0l0,0l0,0l0.1-3.6c0.1-3.6,3-6.5,6.6-6.6l0,0
		c3.6,0,6.6,2.8,6.8,6.4l0.2,3.6v0.2c0,2.8-2.2,5.1-5,5.1l0,0h-3.7C600.1,40,600.1,40.1,600,40.1z"/>
	<path class="st17" d="M594.9,35.6l0.3-4.4c0.1-3.6,3-6.5,6.6-6.6l0,0c3.6,0,6.6,2.7,6.8,6.3l0.4,4.4"/>
	<path class="st14" d="M604.6,82.5L604.6,82.5c2.8,0.1,5,2.5,4.9,5.3l-0.1,3.6c-0.1,3.6-3,6.5-6.6,6.6l0,0c-3.6,0.1-6.7-2.7-6.8-6.4
		l-0.2-3.6v-0.2c0-2.8,2.2-5.1,5-5.1l0,0h3.7L604.6,82.5z"/>
	<path class="st15" d="M604.2,82.2c2.8,0.1,5,2.4,4.9,5.2v0.1l-0.1,3.6c-0.1,3.6-3,6.5-6.6,6.6l0,0c-3.6,0-6.6-2.8-6.8-6.4l-0.2-3.6
		v-0.3c0-2.8,2.2-5.1,5-5.1L604.2,82.2L604.2,82.2z"/>
	<path class="st16" d="M603,81.1L603,81.1c2.8,0.1,5,2.4,4.9,5.2l0,0l0,0l0,0l-0.2,3.6c-0.1,3.6-3,6.5-6.6,6.6l0,0
		c-3.6,0-6.6-2.8-6.8-6.3l-0.2-3.6v-0.2c0-2.8,2.2-5.1,5-5.1l0,0h3.7C602.8,81.2,602.9,81.1,603,81.1z"/>
	<path class="st17" d="M608.1,85.6l-0.3,4.4c-0.1,3.6-3,6.5-6.6,6.6l0,0c-3.6,0-6.6-2.7-6.8-6.3l-0.4-4.4"/>
	<path class="st14" d="M625.4,82.5L625.4,82.5c2.8,0.1,5,2.5,4.9,5.3l-0.1,3.6c-0.1,3.6-3,6.5-6.6,6.6l0,0c-3.6,0.1-6.7-2.7-6.8-6.4
		l-0.2-3.6v-0.2c0-2.8,2.2-5.1,5-5.1l0,0h3.7L625.4,82.5z"/>
	<path class="st15" d="M625,82.2c2.8,0.1,5,2.4,4.9,5.2v0.1l-0.1,3.6c-0.1,3.6-3,6.5-6.6,6.6l0,0c-3.6,0-6.6-2.8-6.8-6.4l-0.2-3.6
		v-0.3c0-2.8,2.2-5.1,5-5.1L625,82.2L625,82.2z"/>
	<path class="st16" d="M623.8,81.1L623.8,81.1c2.8,0.1,5,2.4,4.9,5.2l0,0l0,0l0,0l-0.1,3.6c-0.1,3.6-3,6.5-6.6,6.6l0,0
		c-3.6,0-6.6-2.8-6.8-6.3l-0.2-3.6v-0.2c0-2.8,2.2-5.1,5-5.1l0,0h3.7C623.6,81.2,623.7,81.1,623.8,81.1z"/>
	<path class="st17" d="M628.9,85.6l-0.3,4.4c-0.1,3.6-3,6.5-6.6,6.6l0,0c-3.6,0-6.6-2.7-6.8-6.3l-0.4-4.4"/>
	<path class="st14" d="M663.7,38.7L663.7,38.7c-2.8-0.1-5-2.5-4.9-5.3l0.1-3.6c0.1-3.6,3-6.5,6.6-6.6l0,0c3.6-0.1,6.7,2.7,6.8,6.4
		l0.2,3.6v0.2c0,2.8-2.2,5.1-5,5.1l0,0h-3.7L663.7,38.7z"/>
	<path class="st15" d="M664.1,38.9c-2.8-0.1-5-2.4-4.9-5.2l0,0l0,0l0.1-3.6c0.1-3.6,3-6.5,6.6-6.6l0,0c3.6,0,6.6,2.8,6.8,6.4
		l0.2,3.6v0.3c0,2.8-2.2,5.1-5,5.1L664.1,38.9L664.1,38.9z"/>
	<path class="st16" d="M665.3,40.1L665.3,40.1c-2.8-0.1-5-2.4-4.9-5.2l0,0l0,0l0,0l0.1-3.6c0.1-3.6,3-6.5,6.6-6.6l0,0
		c3.6,0,6.6,2.8,6.8,6.4l0.2,3.6v0.2c0,2.8-2.2,5.1-5,5.1l0,0h-3.7C665.5,40,665.4,40.1,665.3,40.1z"/>
	<path class="st17" d="M660.2,35.6l0.3-4.4c0.1-3.6,3-6.5,6.6-6.6l0,0c3.6,0,6.6,2.7,6.8,6.3l0.4,4.4"/>
	<path class="st14" d="M645.5,82.1L645.5,82.1c2.8,0.1,5,2.5,4.9,5.3l-0.1,3.6c-0.1,3.6-3,6.5-6.6,6.6l0,0c-3.6,0.1-6.7-2.7-6.8-6.4
		l-0.2-3.6v-0.2c0-2.8,2.2-5.1,5-5.1l0,0h3.7L645.5,82.1z"/>
	<path class="st15" d="M645.1,81.8c2.8,0.1,5,2.4,4.9,5.2v0.1l-0.1,3.6c-0.1,3.6-3,6.5-6.6,6.6l0,0c-3.6,0-6.6-2.8-6.8-6.4l-0.2-3.6
		V87c0-2.8,2.2-5.1,5-5.1L645.1,81.8L645.1,81.8z"/>
	<path class="st16" d="M643.9,80.7L643.9,80.7c2.8,0.1,5,2.4,4.9,5.2l0,0l0,0l0,0l-0.1,3.6c-0.1,3.6-3,6.5-6.6,6.6l0,0
		c-3.6,0-6.6-2.8-6.8-6.4l-0.2-3.6v-0.2c0-2.8,2.2-5.1,5-5.1l0,0L643.9,80.7C643.7,80.8,643.8,80.7,643.9,80.7z"/>
	<path class="st17" d="M649,85.2l-0.3,4.4c-0.1,3.6-3,6.5-6.6,6.6l0,0c-3.6,0-6.6-2.7-6.8-6.3l-0.4-4.4"/>
	<path class="st14" d="M666.3,82.1L666.3,82.1c2.8,0.1,5,2.5,4.9,5.3L671,91c-0.1,3.6-3,6.5-6.6,6.6l0,0c-3.6,0.1-6.7-2.7-6.8-6.4
		l-0.2-3.6v-0.2c0-2.8,2.2-5.1,5-5.1l0,0h3.7L666.3,82.1z"/>
	<path class="st15" d="M665.9,81.8c2.8,0.1,5,2.4,4.9,5.2v0.1l-0.1,3.6c-0.1,3.6-3,6.5-6.6,6.6l0,0c-3.6,0-6.6-2.8-6.8-6.4l-0.2-3.6
		V87c0-2.8,2.2-5.1,5-5.1L665.9,81.8L665.9,81.8z"/>
	<path class="st16" d="M664.7,80.7L664.7,80.7c2.8,0.1,5,2.4,4.9,5.2l0,0l0,0l0,0l-0.1,3.6c-0.1,3.6-3,6.5-6.6,6.6l0,0
		c-3.6,0-6.6-2.8-6.8-6.4l-0.2-3.6v-0.2c0-2.8,2.2-5.1,5-5.1l0,0L664.7,80.7C664.5,80.8,664.6,80.7,664.7,80.7z"/>
	<path class="st17" d="M669.8,85.2l-0.3,4.4c-0.1,3.6-3,6.5-6.6,6.6l0,0c-3.6,0-6.6-2.7-6.8-6.3l-0.4-4.4"/>
	<path class="st12" d="M196.9,227.3L196.9,227.3c0.2,3.8-2.7,7-6.4,7.2l0,0l-6.1,0.4c-0.4,0-0.7-0.3-0.7-0.6L183,222
		c0-0.4,0.3-0.7,0.6-0.7l6.1-0.4C193.4,220.7,196.6,223.5,196.9,227.3L196.9,227.3z"/>
	<path class="st8" d="M197.3,227.9L197.3,227.9c0.2,3.8-2.7,7-6.4,7.2l0,0l-6.2,0.3c-0.4,0-0.7-0.2-0.7-0.6l0,0l-0.7-12.3
		c0-0.4,0.3-0.7,0.6-0.7l6.1-0.4C193.8,221.2,197,224.1,197.3,227.9L197.3,227.9z"/>
	<path class="st9" d="M197.8,229.2L197.8,229.2c0.2,3.8-2.6,7-6.4,7.2l0,0l0,0l0,0l-6.1,0.4c-0.4,0-0.7-0.3-0.7-0.6l-0.7-12.3
		c0-0.4,0.3-0.7,0.6-0.7l6.1-0.4C194.3,222.6,197.5,225.5,197.8,229.2L197.8,229.2z"/>
	<path class="st13" d="M184.4,223.2l6.1-0.4c3.8-0.2,7,2.6,7.2,6.4l0,0l0,0c0.2,3.8-2.6,7-6.4,7.2l-6.1,0.4"/>
	<path class="st4" d="M176.5,71.1v40c0,0.3-0.5,0.6-1.2,0.6h-18.2c-0.6,0-1.2-0.3-1.2-0.6v-40c0-0.3,0.5-0.6,1.2-0.6h18.2
		C175.9,70.6,176.5,70.8,176.5,71.1z"/>
	<path class="st5" d="M177.8,71.1v40c0,0.3-0.5,0.6-1.2,0.6h-18.2c-0.6,0-1.2-0.3-1.2-0.6v-40c0-0.3,0.5-0.6,1.2-0.6h18.2
		C177.3,70.6,177.8,70.8,177.8,71.1z"/>
	<path class="st10" d="M179.4,71.2v40c0,0.3-0.5,0.6-1.2,0.6H160c-0.6,0-1.2-0.3-1.2-0.6v-40c0-0.3,0.5-0.6,1.2-0.6h18.2
		C178.9,70.6,179.4,70.9,179.4,71.2z"/>
	<rect x="165.5" y="70.6" class="st11" width="3.9" height="41.2"/>
	<rect x="167.5" y="70.6" class="st6" width="3.9" height="41.2"/>
	<path class="st4" d="M145.3,83.9v22.7c0,0.2-0.5,0.3-1.2,0.3h-18.2c-0.6,0-1.2-0.1-1.2-0.3V83.9c0-0.2,0.5-0.3,1.2-0.3h18.2
		C144.8,83.6,145.3,83.7,145.3,83.9z"/>
	<path class="st5" d="M146.6,83.9v22.7c0,0.2-0.5,0.3-1.2,0.3h-18.2c-0.6,0-1.2-0.1-1.2-0.3V83.9c0-0.2,0.5-0.3,1.2-0.3h18.2
		C146.1,83.6,146.6,83.7,146.6,83.9z"/>
	<path class="st10" d="M148.2,83.9v22.7c0,0.2-0.5,0.3-1.2,0.3h-18.2c-0.6,0-1.2-0.1-1.2-0.3V83.9c0-0.2,0.5-0.3,1.2-0.3H147
		C147.7,83.6,148.2,83.8,148.2,83.9z"/>
	<rect x="134.4" y="83.6" class="st11" width="3.9" height="23.4"/>
	<rect x="136.3" y="83.6" class="st6" width="3.9" height="23.4"/>
	<circle class="st4" cx="229.1" cy="54.6" r="8.7"/>
	<circle class="st8" cx="229.1" cy="53.3" r="8.7"/>
	<circle class="st9" cx="229.1" cy="51.6" r="8.7"/>
	<ellipse transform="matrix(0.4473 -0.8944 0.8944 0.4473 93 259.7855)" class="st4" cx="256.7" cy="54.6" rx="8.7" ry="8.7"/>
	<ellipse transform="matrix(0.4473 -0.8944 0.8944 0.4473 94.1837 259.0745)" class="st8" cx="256.7" cy="53.3" rx="8.7" ry="8.7"/>
	<ellipse transform="matrix(0.4473 -0.8944 0.8944 0.4473 95.7607 258.1552)" class="st9" cx="256.7" cy="51.6" rx="8.7" ry="8.7"/>
	<circle class="st4" cx="381.3" cy="71.8" r="17.6"/>
	<circle class="st8" cx="381.3" cy="69.2" r="17.6"/>
	<circle class="st9" cx="381.3" cy="65.7" r="17.6"/>
	<circle class="st4" cx="383.8" cy="49.2" r="26"/>
	<circle class="st5" cx="383.8" cy="46" r="26"/>
	<circle class="st6" cx="383.8" cy="42.7" r="26"/>
	<circle class="st4" cx="451.7" cy="73.4" r="17.6"/>
	<circle class="st8" cx="451.7" cy="70.7" r="17.6"/>
	<circle class="st9" cx="451.7" cy="67.2" r="17.6"/>
	<circle class="st4" cx="454.3" cy="50.7" r="26"/>
	<circle class="st5" cx="454.3" cy="47.6" r="26"/>
	<circle class="st6" cx="454.3" cy="44.3" r="26"/>
</g>
<g id="booking">
	<rect id="area-20.04-status" x="536.7" y="11.7" class="st18" width="178.7" height="95.3"/>
	<polygon id="area-20.03-status" class="st18" points="513.4,319.3 513.4,402.6 637.7,524.8 767.2,394.2 767.2,268.4 717.6,268.4 
		717.6,288.3 584.2,288.3 584.2,281 573.5,268.4 542.5,268.4 513.4,297.5 	"/>
	<polygon id="area-20.02-status" class="st18" points="1.9,268.1 1.9,390.6 126.3,524.8 248,402.1 248,295.1 210.2,269.5 	"/>
	<polygon id="area-20.01-status" class="st18" points="210.2,146.4 527.3,146.4 527.3,283.8 513.4,297.5 513.4,319.3 248,319.3 
		248,295.1 210.2,269.5 	"/>
</g>
<g id="outline">
	<polygon class="st19" points="50.9,10.1 50.9,268.1 1.9,268.1 1.9,391.4 126.3,524.8 248,402.1 248,319.3 513.8,319.3 513.8,402.6 
		637.7,524.8 767.2,394.2 767.2,268.4 717.1,268.4 717.1,10.1 	"/>
	<line class="st20" x1="50.9" y1="268.1" x2="68.9" y2="268.1"/>
	<polyline class="st20" points="93.1,269.5 210.2,269.5 210.2,146.4 219.8,146.4 	"/>
	<polyline class="st20" points="210.2,269.5 248,295.1 248,319.3 	"/>
	<line class="st20" x1="260.9" y1="146.4" x2="470.4" y2="146.4"/>
	<polyline class="st20" points="511.5,146.4 573.5,146.4 573.5,268.4 542.5,268.4 513.4,297.5 513.4,319.3 	"/>
	<line class="st20" x1="527.3" y1="146.4" x2="527.3" y2="283.8"/>
	<polyline class="st20" points="573.5,163.9 676,163.9 676,281 584.2,281 573.5,268.4 	"/>
	<polyline class="st20" points="584.2,281 584.2,288.3 676,288.3 	"/>
	<polyline class="st20" points="701.3,284.7 717.6,284.7 717.6,268.4 	"/>
	<line class="st20" x1="536.9" y1="146.4" x2="536.9" y2="139.7"/>
	<line class="st20" x1="536.9" y1="114.3" x2="536.9" y2="99.7"/>
	<line class="st20" x1="536.9" y1="107" x2="715.4" y2="107"/>
	<line class="st20" x1="536.9" y1="73.8" x2="536.9" y2="10.1"/>
</g>
<g id="icons">
	<circle class="st21" cx="623.4" cy="217.2" r="18.7"/>
	<g class="st22">
		<path class="st23" d="M613.3,245.3l0.8-0.1c0,0.3,0.1,0.6,0.3,0.8c0.1,0.2,0.3,0.4,0.6,0.5s0.6,0.2,0.9,0.2c0.3,0,0.6,0,0.8-0.1
			c0.2-0.1,0.4-0.2,0.5-0.4c0.1-0.2,0.2-0.3,0.2-0.5c0-0.2-0.1-0.4-0.2-0.5s-0.3-0.3-0.6-0.4c-0.2-0.1-0.5-0.2-1.1-0.3
			c-0.6-0.1-1-0.3-1.2-0.4c-0.3-0.2-0.5-0.3-0.7-0.6c-0.1-0.2-0.2-0.5-0.2-0.8c0-0.3,0.1-0.6,0.3-0.9c0.2-0.3,0.4-0.5,0.8-0.6
			s0.7-0.2,1.1-0.2c0.5,0,0.9,0.1,1.2,0.2c0.4,0.1,0.6,0.4,0.8,0.7c0.2,0.3,0.3,0.6,0.3,1l-0.8,0.1c0-0.4-0.2-0.7-0.4-0.9
			c-0.2-0.2-0.6-0.3-1.1-0.3c-0.5,0-0.9,0.1-1.1,0.3c-0.2,0.2-0.3,0.4-0.3,0.7c0,0.2,0.1,0.4,0.2,0.5c0.2,0.1,0.6,0.3,1.2,0.4
			c0.7,0.2,1.1,0.3,1.4,0.4c0.4,0.2,0.6,0.4,0.8,0.6c0.2,0.3,0.3,0.5,0.3,0.9c0,0.3-0.1,0.6-0.3,0.9c-0.2,0.3-0.5,0.5-0.8,0.7
			c-0.4,0.2-0.8,0.2-1.2,0.2c-0.6,0-1-0.1-1.4-0.2c-0.4-0.2-0.7-0.4-0.9-0.7C613.4,246.1,613.3,245.7,613.3,245.3z"/>
		<path class="st23" d="M620.9,246.6l0.1,0.7c-0.2,0-0.4,0.1-0.6,0.1c-0.3,0-0.5,0-0.6-0.1c-0.2-0.1-0.3-0.2-0.3-0.3
			s-0.1-0.4-0.1-0.9v-2.6h-0.6v-0.6h0.6v-1.1l0.8-0.5v1.6h0.8v0.6h-0.8v2.6c0,0.2,0,0.4,0,0.4c0,0.1,0.1,0.1,0.1,0.1
			c0.1,0,0.1,0.1,0.3,0.1C620.6,246.6,620.7,246.6,620.9,246.6z"/>
		<path class="st23" d="M624.5,246.7c-0.3,0.2-0.6,0.4-0.8,0.5c-0.3,0.1-0.5,0.1-0.8,0.1c-0.5,0-0.9-0.1-1.1-0.4
			c-0.3-0.2-0.4-0.5-0.4-0.9c0-0.2,0-0.4,0.1-0.6c0.1-0.2,0.2-0.3,0.4-0.4c0.2-0.1,0.3-0.2,0.5-0.2c0.1,0,0.4-0.1,0.7-0.1
			c0.6-0.1,1.1-0.2,1.4-0.3c0-0.1,0-0.2,0-0.2c0-0.3-0.1-0.5-0.2-0.7c-0.2-0.2-0.5-0.3-0.9-0.3c-0.4,0-0.6,0.1-0.8,0.2
			s-0.3,0.3-0.4,0.7l-0.7-0.1c0.1-0.3,0.2-0.6,0.3-0.8s0.4-0.3,0.7-0.5c0.3-0.1,0.6-0.2,1-0.2c0.4,0,0.7,0,0.9,0.1
			c0.2,0.1,0.4,0.2,0.5,0.3c0.1,0.1,0.2,0.3,0.2,0.5c0,0.1,0,0.4,0,0.7v1c0,0.7,0,1.2,0,1.3c0,0.2,0.1,0.4,0.2,0.5h-0.8
			C624.6,247.1,624.6,246.9,624.5,246.7z M624.5,245c-0.3,0.1-0.7,0.2-1.2,0.3c-0.3,0-0.5,0.1-0.7,0.2c-0.1,0.1-0.2,0.1-0.3,0.2
			s-0.1,0.2-0.1,0.4c0,0.2,0.1,0.4,0.2,0.5s0.4,0.2,0.7,0.2c0.3,0,0.6-0.1,0.8-0.2s0.4-0.3,0.5-0.5c0.1-0.2,0.1-0.4,0.1-0.8V245z"/>
		<path class="st23" d="M626.4,242v-0.9h0.8v0.9H626.4z M626.4,247.3v-4.5h0.8v4.5H626.4z"/>
		<path class="st23" d="M628.3,247.3v-4.5h0.7v0.7c0.2-0.3,0.3-0.5,0.5-0.6c0.1-0.1,0.3-0.2,0.5-0.2c0.3,0,0.5,0.1,0.8,0.2l-0.3,0.7
			c-0.2-0.1-0.4-0.2-0.6-0.2c-0.2,0-0.3,0-0.4,0.1c-0.1,0.1-0.2,0.2-0.3,0.4c-0.1,0.3-0.1,0.6-0.1,0.9v2.3H628.3z"/>
		<path class="st23" d="M630.9,245.9l0.8-0.1c0,0.3,0.2,0.5,0.4,0.7c0.2,0.2,0.5,0.2,0.8,0.2c0.3,0,0.6-0.1,0.8-0.2
			c0.2-0.1,0.3-0.3,0.3-0.5c0-0.2-0.1-0.3-0.2-0.4c-0.1-0.1-0.4-0.2-0.8-0.3c-0.6-0.1-0.9-0.3-1.2-0.4c-0.2-0.1-0.4-0.2-0.5-0.4
			c-0.1-0.2-0.2-0.4-0.2-0.6c0-0.2,0-0.4,0.1-0.6c0.1-0.2,0.2-0.3,0.4-0.4c0.1-0.1,0.3-0.2,0.5-0.2c0.2-0.1,0.4-0.1,0.7-0.1
			c0.4,0,0.7,0.1,0.9,0.2c0.3,0.1,0.5,0.2,0.6,0.4c0.1,0.2,0.2,0.4,0.3,0.7l-0.7,0.1c0-0.2-0.1-0.4-0.3-0.5
			c-0.2-0.1-0.4-0.2-0.7-0.2c-0.3,0-0.6,0.1-0.7,0.2s-0.2,0.2-0.2,0.4c0,0.1,0,0.2,0.1,0.3c0.1,0.1,0.2,0.1,0.3,0.2
			c0.1,0,0.3,0.1,0.7,0.2c0.5,0.1,0.9,0.3,1.1,0.4c0.2,0.1,0.4,0.2,0.5,0.4c0.1,0.2,0.2,0.4,0.2,0.6c0,0.3-0.1,0.5-0.2,0.7
			s-0.4,0.4-0.6,0.5s-0.6,0.2-0.9,0.2c-0.6,0-1-0.1-1.3-0.4C631.2,246.8,631,246.4,630.9,245.9z"/>
	</g>
	<g id="Outline_Icons-2-2-4-2-2-2-3-2-2">
		<line class="st24" x1="614.9" y1="224.4" x2="629.7" y2="224.4"/>
		<polyline class="st24" points="627.1,224.4 627.1,221.9 624.5,221.9 624.5,219.3 622,219.3 622,216.7 619.4,216.7 619.4,214.2 
			614.9,214.2 		"/>
		<line class="st24" x1="622.7" y1="209.7" x2="630.6" y2="217.7"/>
		<polyline class="st24" points="622.7,213 622.7,209.7 625.9,209.7 		"/>
		<polyline class="st24" points="630.6,214.6 630.6,217.7 627.6,217.7 		"/>
	</g>
	<g class="st22">
		<path class="st23" d="M540.6,220v-6.2h2.7c0.6,0,1,0.1,1.3,0.2c0.3,0.1,0.5,0.3,0.7,0.6c0.2,0.3,0.3,0.6,0.3,0.9
			c0,0.4-0.1,0.8-0.4,1.1s-0.7,0.5-1.3,0.6c0.2,0.1,0.4,0.2,0.5,0.3c0.2,0.2,0.5,0.5,0.7,0.8l1.1,1.7h-1l-0.8-1.3
			c-0.2-0.4-0.4-0.7-0.6-0.9c-0.2-0.2-0.3-0.3-0.4-0.4c-0.1-0.1-0.2-0.1-0.4-0.2c-0.1,0-0.2,0-0.5,0h-0.9v2.7H540.6z M541.4,216.6
			h1.8c0.4,0,0.7,0,0.9-0.1c0.2-0.1,0.4-0.2,0.5-0.4c0.1-0.2,0.2-0.4,0.2-0.6c0-0.3-0.1-0.5-0.3-0.7c-0.2-0.2-0.5-0.3-1-0.3h-2
			V216.6z"/>
		<path class="st23" d="M549.7,219.5c-0.3,0.2-0.6,0.4-0.8,0.5c-0.3,0.1-0.5,0.1-0.8,0.1c-0.5,0-0.9-0.1-1.1-0.4
			c-0.3-0.2-0.4-0.5-0.4-0.9c0-0.2,0-0.4,0.1-0.6c0.1-0.2,0.2-0.3,0.4-0.4c0.2-0.1,0.3-0.2,0.5-0.2c0.1,0,0.4-0.1,0.7-0.1
			c0.6-0.1,1.1-0.2,1.4-0.3c0-0.1,0-0.2,0-0.2c0-0.3-0.1-0.5-0.2-0.7c-0.2-0.2-0.5-0.3-0.9-0.3c-0.4,0-0.6,0.1-0.8,0.2
			c-0.2,0.1-0.3,0.3-0.4,0.7l-0.7-0.1c0.1-0.3,0.2-0.6,0.3-0.8c0.2-0.2,0.4-0.3,0.7-0.5c0.3-0.1,0.6-0.2,1-0.2c0.4,0,0.7,0,0.9,0.1
			c0.2,0.1,0.4,0.2,0.5,0.3c0.1,0.1,0.2,0.3,0.2,0.5c0,0.1,0,0.4,0,0.7v1c0,0.7,0,1.2,0,1.3c0,0.2,0.1,0.4,0.2,0.5h-0.8
			C549.7,219.9,549.7,219.7,549.7,219.5z M549.6,217.8c-0.3,0.1-0.7,0.2-1.2,0.3c-0.3,0-0.5,0.1-0.7,0.2c-0.1,0.1-0.2,0.1-0.3,0.2
			s-0.1,0.2-0.1,0.4c0,0.2,0.1,0.4,0.2,0.5c0.2,0.1,0.4,0.2,0.7,0.2c0.3,0,0.6-0.1,0.8-0.2s0.4-0.3,0.5-0.5c0.1-0.2,0.1-0.4,0.1-0.8
			V217.8z"/>
		<path class="st23" d="M554.5,218.4l0.7,0.1c-0.1,0.5-0.3,0.9-0.6,1.2s-0.7,0.4-1.2,0.4c-0.6,0-1.1-0.2-1.5-0.6
			c-0.4-0.4-0.6-1-0.6-1.7c0-0.5,0.1-0.9,0.2-1.3s0.4-0.6,0.7-0.8c0.3-0.2,0.7-0.3,1.1-0.3c0.5,0,0.9,0.1,1.2,0.4
			c0.3,0.2,0.5,0.6,0.6,1l-0.7,0.1c-0.1-0.3-0.2-0.5-0.4-0.7c-0.2-0.2-0.4-0.2-0.6-0.2c-0.4,0-0.7,0.1-0.9,0.4
			c-0.2,0.3-0.4,0.7-0.4,1.3c0,0.6,0.1,1,0.3,1.3c0.2,0.3,0.5,0.4,0.9,0.4c0.3,0,0.5-0.1,0.7-0.3
			C554.3,219.1,554.4,218.8,554.5,218.4z"/>
		<path class="st23" d="M555.9,220v-6.2h0.8v3.5l1.8-1.8h1l-1.7,1.7l1.9,2.8h-0.9l-1.5-2.3l-0.5,0.5v1.8H555.9z"/>
		<path class="st23" d="M559.9,218.7l0.8-0.1c0,0.3,0.2,0.5,0.4,0.7s0.5,0.2,0.8,0.2c0.3,0,0.6-0.1,0.8-0.2c0.2-0.1,0.3-0.3,0.3-0.5
			c0-0.2-0.1-0.3-0.2-0.4c-0.1-0.1-0.4-0.2-0.8-0.3c-0.6-0.1-0.9-0.3-1.2-0.4s-0.4-0.2-0.5-0.4c-0.1-0.2-0.2-0.4-0.2-0.6
			c0-0.2,0-0.4,0.1-0.6c0.1-0.2,0.2-0.3,0.4-0.4c0.1-0.1,0.3-0.2,0.5-0.2c0.2-0.1,0.4-0.1,0.7-0.1c0.4,0,0.7,0.1,0.9,0.2
			c0.3,0.1,0.5,0.2,0.6,0.4c0.1,0.2,0.2,0.4,0.3,0.7l-0.7,0.1c0-0.2-0.1-0.4-0.3-0.5c-0.2-0.1-0.4-0.2-0.7-0.2
			c-0.3,0-0.6,0.1-0.7,0.2c-0.1,0.1-0.2,0.2-0.2,0.4c0,0.1,0,0.2,0.1,0.3c0.1,0.1,0.2,0.1,0.3,0.2c0.1,0,0.3,0.1,0.7,0.2
			c0.5,0.1,0.9,0.3,1.1,0.4c0.2,0.1,0.4,0.2,0.5,0.4c0.1,0.2,0.2,0.4,0.2,0.6c0,0.3-0.1,0.5-0.2,0.7s-0.4,0.4-0.6,0.5
			s-0.6,0.2-0.9,0.2c-0.6,0-1-0.1-1.3-0.4C560.1,219.5,559.9,219.2,559.9,218.7z"/>
	</g>
	<g class="st22">
		<path class="st23" d="M153.5,136v-6.2h2.7c0.6,0,1,0.1,1.3,0.2c0.3,0.1,0.5,0.3,0.7,0.6c0.2,0.3,0.3,0.6,0.3,0.9
			c0,0.4-0.1,0.8-0.4,1.1c-0.3,0.3-0.7,0.5-1.3,0.6c0.2,0.1,0.4,0.2,0.5,0.3c0.2,0.2,0.5,0.5,0.7,0.8l1.1,1.7h-1l-0.8-1.3
			c-0.2-0.4-0.4-0.7-0.6-0.9c-0.2-0.2-0.3-0.3-0.4-0.4c-0.1-0.1-0.2-0.1-0.4-0.2c-0.1,0-0.2,0-0.5,0h-0.9v2.7H153.5z M154.4,132.6
			h1.8c0.4,0,0.7,0,0.9-0.1c0.2-0.1,0.4-0.2,0.5-0.4c0.1-0.2,0.2-0.4,0.2-0.6c0-0.3-0.1-0.5-0.3-0.7c-0.2-0.2-0.5-0.3-1-0.3h-2
			V132.6z"/>
		<path class="st23" d="M162.7,134.6l0.8,0.1c-0.1,0.5-0.4,0.8-0.7,1.1s-0.8,0.4-1.3,0.4c-0.7,0-1.2-0.2-1.6-0.6
			c-0.4-0.4-0.6-1-0.6-1.7c0-0.8,0.2-1.3,0.6-1.8s0.9-0.6,1.5-0.6c0.6,0,1.1,0.2,1.5,0.6s0.6,1,0.6,1.7c0,0,0,0.1,0,0.2h-3.3
			c0,0.5,0.2,0.9,0.4,1.1c0.2,0.3,0.6,0.4,0.9,0.4c0.3,0,0.5-0.1,0.7-0.2C162.5,135.1,162.6,134.9,162.7,134.6z M160.2,133.4h2.5
			c0-0.4-0.1-0.7-0.3-0.8c-0.2-0.3-0.6-0.4-0.9-0.4c-0.3,0-0.6,0.1-0.9,0.3C160.4,132.7,160.3,133,160.2,133.4z"/>
		<path class="st23" d="M167.4,134.4l0.7,0.1c-0.1,0.5-0.3,0.9-0.6,1.2s-0.7,0.4-1.2,0.4c-0.6,0-1.1-0.2-1.5-0.6
			c-0.4-0.4-0.6-1-0.6-1.7c0-0.5,0.1-0.9,0.2-1.3s0.4-0.6,0.7-0.8c0.3-0.2,0.7-0.3,1.1-0.3c0.5,0,0.9,0.1,1.2,0.4s0.5,0.6,0.6,1
			l-0.7,0.1c-0.1-0.3-0.2-0.5-0.4-0.7c-0.2-0.2-0.4-0.2-0.6-0.2c-0.4,0-0.7,0.1-0.9,0.4c-0.2,0.3-0.4,0.7-0.4,1.3
			c0,0.6,0.1,1,0.3,1.3c0.2,0.3,0.5,0.4,0.9,0.4c0.3,0,0.5-0.1,0.7-0.3S167.3,134.8,167.4,134.4z"/>
		<path class="st23" d="M171.9,134.6l0.8,0.1c-0.1,0.5-0.4,0.8-0.7,1.1s-0.8,0.4-1.3,0.4c-0.7,0-1.2-0.2-1.6-0.6
			c-0.4-0.4-0.6-1-0.6-1.7c0-0.8,0.2-1.3,0.6-1.8s0.9-0.6,1.5-0.6c0.6,0,1.1,0.2,1.5,0.6s0.6,1,0.6,1.7c0,0,0,0.1,0,0.2h-3.3
			c0,0.5,0.2,0.9,0.4,1.1c0.2,0.3,0.6,0.4,0.9,0.4c0.3,0,0.5-0.1,0.7-0.2C171.6,135.1,171.7,134.9,171.9,134.6z M169.4,133.4h2.5
			c0-0.4-0.1-0.7-0.3-0.8c-0.2-0.3-0.6-0.4-0.9-0.4c-0.3,0-0.6,0.1-0.9,0.3C169.5,132.7,169.4,133,169.4,133.4z"/>
		<path class="st23" d="M173.6,137.7v-6.2h0.7v0.6c0.2-0.2,0.3-0.4,0.6-0.5c0.2-0.1,0.5-0.2,0.7-0.2c0.4,0,0.7,0.1,1,0.3
			c0.3,0.2,0.5,0.5,0.7,0.8c0.1,0.4,0.2,0.8,0.2,1.2c0,0.5-0.1,0.9-0.2,1.2c-0.2,0.4-0.4,0.6-0.7,0.8c-0.3,0.2-0.6,0.3-1,0.3
			c-0.3,0-0.5-0.1-0.7-0.2c-0.2-0.1-0.4-0.2-0.5-0.4v2.2H173.6z M174.3,133.8c0,0.6,0.1,1,0.3,1.3s0.5,0.4,0.8,0.4
			c0.3,0,0.6-0.1,0.9-0.4c0.2-0.3,0.4-0.7,0.4-1.3c0-0.6-0.1-1-0.4-1.3c-0.2-0.3-0.5-0.4-0.8-0.4c-0.3,0-0.6,0.2-0.9,0.5
			C174.4,132.8,174.3,133.2,174.3,133.8z"/>
		<path class="st23" d="M180,135.4l0.1,0.7c-0.2,0-0.4,0.1-0.6,0.1c-0.3,0-0.5,0-0.6-0.1c-0.2-0.1-0.3-0.2-0.3-0.3
			c-0.1-0.1-0.1-0.4-0.1-0.9v-2.6H178v-0.6h0.6v-1.1l0.8-0.5v1.6h0.8v0.6h-0.8v2.6c0,0.2,0,0.4,0,0.4c0,0.1,0.1,0.1,0.1,0.1
			c0.1,0,0.1,0.1,0.3,0.1C179.8,135.4,179.9,135.4,180,135.4z"/>
		<path class="st23" d="M180.8,130.7v-0.9h0.8v0.9H180.8z M180.8,136v-4.5h0.8v4.5H180.8z"/>
		<path class="st23" d="M182.4,133.8c0-0.8,0.2-1.4,0.7-1.8c0.4-0.3,0.9-0.5,1.4-0.5c0.6,0,1.1,0.2,1.5,0.6s0.6,1,0.6,1.7
			c0,0.6-0.1,1-0.3,1.4s-0.4,0.6-0.8,0.8c-0.3,0.2-0.7,0.3-1.1,0.3c-0.6,0-1.1-0.2-1.5-0.6C182.6,135.1,182.4,134.5,182.4,133.8z
			 M183.2,133.8c0,0.6,0.1,1,0.4,1.3c0.3,0.3,0.6,0.4,0.9,0.4c0.4,0,0.7-0.1,0.9-0.4c0.3-0.3,0.4-0.7,0.4-1.3c0-0.6-0.1-1-0.4-1.3
			s-0.6-0.4-0.9-0.4c-0.4,0-0.7,0.1-0.9,0.4C183.3,132.8,183.2,133.2,183.2,133.8z"/>
		<path class="st23" d="M187.5,136v-4.5h0.7v0.6c0.3-0.5,0.8-0.7,1.4-0.7c0.3,0,0.5,0,0.7,0.1c0.2,0.1,0.4,0.2,0.5,0.4
			s0.2,0.3,0.2,0.6c0,0.1,0,0.4,0,0.7v2.8h-0.8v-2.7c0-0.3,0-0.5-0.1-0.7c-0.1-0.2-0.2-0.3-0.3-0.4c-0.2-0.1-0.3-0.1-0.5-0.1
			c-0.3,0-0.6,0.1-0.8,0.3c-0.2,0.2-0.4,0.6-0.4,1.2v2.4H187.5z"/>
	</g>
	<g class="st22">
		<path class="st6" d="M270.2,164.2l1.4-0.1c0.1,0.5,0.3,0.8,0.5,1s0.6,0.3,1,0.3c0.5,0,0.8-0.1,1.1-0.3c0.2-0.2,0.4-0.4,0.4-0.7
			c0-0.2,0-0.3-0.1-0.4c-0.1-0.1-0.3-0.2-0.5-0.3c-0.2-0.1-0.6-0.2-1.2-0.3c-0.8-0.2-1.3-0.4-1.6-0.7c-0.4-0.4-0.7-0.9-0.7-1.4
			c0-0.4,0.1-0.7,0.3-1c0.2-0.3,0.5-0.6,0.9-0.7s0.9-0.2,1.4-0.2c0.9,0,1.6,0.2,2,0.6s0.7,0.9,0.7,1.6l-1.4,0.1
			c-0.1-0.4-0.2-0.6-0.4-0.8c-0.2-0.2-0.5-0.2-0.9-0.2c-0.4,0-0.7,0.1-1,0.3c-0.2,0.1-0.2,0.3-0.2,0.4c0,0.2,0.1,0.3,0.2,0.4
			c0.2,0.2,0.6,0.3,1.3,0.5s1.2,0.3,1.6,0.5c0.3,0.2,0.6,0.4,0.8,0.7c0.2,0.3,0.3,0.7,0.3,1.1c0,0.4-0.1,0.8-0.3,1.2s-0.6,0.6-1,0.8
			c-0.4,0.2-0.9,0.3-1.6,0.3c-0.9,0-1.6-0.2-2.1-0.6C270.6,165.6,270.3,165,270.2,164.2z"/>
		<path class="st6" d="M277.2,161.4h1.3v0.8c0.2-0.3,0.4-0.5,0.7-0.6s0.6-0.2,0.9-0.2c0.6,0,1.1,0.2,1.5,0.7s0.6,1.1,0.6,2
			c0,0.9-0.2,1.5-0.6,2c-0.4,0.5-0.9,0.7-1.5,0.7c-0.3,0-0.5-0.1-0.8-0.2s-0.5-0.3-0.7-0.6v2.6h-1.4V161.4z M278.5,163.9
			c0,0.6,0.1,1,0.3,1.3c0.2,0.3,0.5,0.4,0.8,0.4c0.3,0,0.6-0.1,0.8-0.4c0.2-0.3,0.3-0.7,0.3-1.3c0-0.5-0.1-0.9-0.3-1.2
			s-0.5-0.4-0.8-0.4c-0.3,0-0.6,0.1-0.8,0.4C278.6,163,278.5,163.4,278.5,163.9z"/>
		<path class="st6" d="M284.6,166.6h-1.4v-5.2h1.3v0.7c0.2-0.3,0.4-0.6,0.6-0.7s0.4-0.2,0.6-0.2c0.3,0,0.6,0.1,0.9,0.3l-0.4,1.2
			c-0.2-0.1-0.4-0.2-0.6-0.2c-0.2,0-0.4,0.1-0.5,0.2c-0.1,0.1-0.2,0.3-0.3,0.6s-0.1,0.9-0.1,1.7V166.6z"/>
		<path class="st6" d="M287.2,160.7v-1.3h1.4v1.3H287.2z M287.2,166.6v-5.2h1.4v5.2H287.2z"/>
		<path class="st6" d="M294.7,166.6h-1.4v-2.6c0-0.6,0-0.9-0.1-1.1c-0.1-0.2-0.2-0.3-0.3-0.4s-0.3-0.1-0.5-0.1
			c-0.2,0-0.5,0.1-0.6,0.2s-0.3,0.3-0.4,0.5s-0.1,0.6-0.1,1.2v2.3H290v-5.2h1.3v0.8c0.5-0.6,1-0.9,1.7-0.9c0.3,0,0.6,0.1,0.8,0.2
			c0.3,0.1,0.4,0.2,0.6,0.4s0.2,0.4,0.3,0.6s0.1,0.5,0.1,0.9V166.6z"/>
		<path class="st6" d="M296,166.9l1.6,0.2c0,0.2,0.1,0.3,0.2,0.4c0.1,0.1,0.3,0.1,0.6,0.1c0.4,0,0.6-0.1,0.8-0.2
			c0.1-0.1,0.2-0.2,0.3-0.3c0-0.1,0.1-0.3,0.1-0.6v-0.8c-0.4,0.6-0.9,0.8-1.6,0.8c-0.7,0-1.2-0.3-1.7-0.9c-0.3-0.5-0.5-1-0.5-1.7
			c0-0.9,0.2-1.5,0.6-2s0.9-0.7,1.6-0.7c0.6,0,1.2,0.3,1.6,0.8v-0.7h1.3v4.7c0,0.6-0.1,1.1-0.2,1.4s-0.2,0.5-0.4,0.7
			s-0.4,0.3-0.7,0.4s-0.7,0.1-1.2,0.1c-0.9,0-1.5-0.2-1.9-0.5c-0.4-0.3-0.6-0.7-0.6-1.1C296,167,296,167,296,166.9z M297.2,163.9
			c0,0.5,0.1,1,0.3,1.2c0.2,0.3,0.5,0.4,0.8,0.4c0.3,0,0.6-0.1,0.8-0.4c0.2-0.3,0.3-0.6,0.3-1.2c0-0.5-0.1-0.9-0.3-1.2
			s-0.5-0.4-0.8-0.4c-0.3,0-0.6,0.1-0.8,0.4C297.3,163,297.2,163.3,297.2,163.9z"/>
	</g>
	<g class="st22">
		<path class="st6" d="M109,302.2l1.4-0.1c0.1,0.5,0.3,0.8,0.5,1s0.6,0.3,1,0.3c0.5,0,0.8-0.1,1.1-0.3c0.2-0.2,0.4-0.4,0.4-0.7
			c0-0.2,0-0.3-0.1-0.4c-0.1-0.1-0.3-0.2-0.5-0.3c-0.2-0.1-0.6-0.2-1.2-0.3c-0.8-0.2-1.3-0.4-1.6-0.7c-0.4-0.4-0.7-0.9-0.7-1.4
			c0-0.4,0.1-0.7,0.3-1c0.2-0.3,0.5-0.6,0.9-0.7s0.9-0.2,1.4-0.2c0.9,0,1.6,0.2,2,0.6s0.7,0.9,0.7,1.6l-1.4,0.1
			c-0.1-0.4-0.2-0.6-0.4-0.8c-0.2-0.2-0.5-0.2-0.9-0.2c-0.4,0-0.7,0.1-1,0.3c-0.2,0.1-0.2,0.3-0.2,0.4c0,0.2,0.1,0.3,0.2,0.4
			c0.2,0.2,0.6,0.3,1.3,0.5s1.2,0.3,1.6,0.5c0.3,0.2,0.6,0.4,0.8,0.7c0.2,0.3,0.3,0.7,0.3,1.1c0,0.4-0.1,0.8-0.3,1.2s-0.6,0.6-1,0.8
			c-0.4,0.2-0.9,0.3-1.6,0.3c-0.9,0-1.6-0.2-2.1-0.6C109.4,303.6,109.1,303,109,302.2z"/>
		<path class="st6" d="M119.5,304.5v-0.8c-0.2,0.3-0.4,0.5-0.7,0.7s-0.6,0.2-1,0.2c-0.3,0-0.7-0.1-0.9-0.2s-0.5-0.4-0.6-0.6
			s-0.2-0.7-0.2-1.1v-3.3h1.4v2.4c0,0.7,0,1.2,0.1,1.3c0.1,0.2,0.1,0.3,0.3,0.4c0.1,0.1,0.3,0.1,0.5,0.1c0.2,0,0.4-0.1,0.6-0.2
			c0.2-0.1,0.3-0.3,0.4-0.5c0.1-0.2,0.1-0.7,0.1-1.4v-2.2h1.4v5.2H119.5z"/>
		<path class="st6" d="M122,299.3h1.3v0.7c0.5-0.5,1-0.8,1.6-0.8c0.3,0,0.6,0.1,0.9,0.2s0.4,0.3,0.6,0.6c0.2-0.3,0.5-0.5,0.7-0.6
			s0.5-0.2,0.8-0.2c0.4,0,0.7,0.1,1,0.2c0.3,0.2,0.5,0.4,0.6,0.7c0.1,0.2,0.1,0.6,0.1,1.1v3.3h-1.4v-3c0-0.5,0-0.8-0.1-1
			c-0.1-0.2-0.3-0.3-0.6-0.3c-0.2,0-0.4,0.1-0.5,0.2s-0.3,0.3-0.4,0.5c-0.1,0.2-0.1,0.6-0.1,1.1v2.5h-1.4v-2.8c0-0.5,0-0.8-0.1-1
			s-0.1-0.3-0.2-0.3s-0.2-0.1-0.4-0.1c-0.2,0-0.4,0.1-0.6,0.2s-0.3,0.3-0.4,0.5s-0.1,0.6-0.1,1.1v2.5H122V299.3z"/>
		<path class="st6" d="M130.9,299.3h1.3v0.7c0.5-0.5,1-0.8,1.6-0.8c0.3,0,0.6,0.1,0.9,0.2s0.4,0.3,0.6,0.6c0.2-0.3,0.5-0.5,0.7-0.6
			s0.5-0.2,0.8-0.2c0.4,0,0.7,0.1,1,0.2c0.3,0.2,0.5,0.4,0.6,0.7c0.1,0.2,0.1,0.6,0.1,1.1v3.3h-1.4v-3c0-0.5,0-0.8-0.1-1
			c-0.1-0.2-0.3-0.3-0.6-0.3c-0.2,0-0.4,0.1-0.5,0.2s-0.3,0.3-0.4,0.5c-0.1,0.2-0.1,0.6-0.1,1.1v2.5h-1.4v-2.8c0-0.5,0-0.8-0.1-1
			s-0.1-0.3-0.2-0.3s-0.2-0.1-0.4-0.1c-0.2,0-0.4,0.1-0.6,0.2s-0.3,0.3-0.4,0.5s-0.1,0.6-0.1,1.1v2.5h-1.4V299.3z"/>
		<path class="st6" d="M142.9,302.8l1.4,0.2c-0.2,0.5-0.5,0.9-0.8,1.1c-0.4,0.3-0.9,0.4-1.4,0.4c-0.9,0-1.6-0.3-2-0.9
			c-0.3-0.5-0.5-1.1-0.5-1.8c0-0.9,0.2-1.5,0.7-2c0.4-0.5,1-0.7,1.7-0.7c0.8,0,1.4,0.3,1.8,0.8c0.4,0.5,0.7,1.3,0.6,2.3h-3.4
			c0,0.4,0.1,0.7,0.3,0.9c0.2,0.2,0.5,0.3,0.8,0.3c0.2,0,0.4-0.1,0.5-0.2S142.9,303.1,142.9,302.8z M143,301.4
			c0-0.4-0.1-0.7-0.3-0.9c-0.2-0.2-0.4-0.3-0.7-0.3c-0.3,0-0.5,0.1-0.7,0.3s-0.3,0.5-0.3,0.9H143z"/>
		<path class="st6" d="M146.8,304.5h-1.4v-5.2h1.3v0.7c0.2-0.3,0.4-0.6,0.6-0.7s0.4-0.2,0.6-0.2c0.3,0,0.6,0.1,0.9,0.3l-0.4,1.2
			c-0.2-0.1-0.4-0.2-0.6-0.2c-0.2,0-0.4,0.1-0.5,0.2c-0.1,0.1-0.2,0.3-0.3,0.6s-0.1,0.9-0.1,1.7V304.5z"/>
	</g>
	<g class="st22">
		<path class="st6" d="M539,329.8h-1.6l-0.6-1.6h-2.9l-0.6,1.6h-1.5l2.8-7.2h1.5L539,329.8z M536.3,326.9l-1-2.7l-1,2.7H536.3z"/>
		<path class="st6" d="M543.1,329.8V329c-0.2,0.3-0.4,0.5-0.7,0.7c-0.3,0.2-0.6,0.2-1,0.2c-0.3,0-0.7-0.1-0.9-0.2s-0.5-0.4-0.6-0.6
			s-0.2-0.7-0.2-1.1v-3.3h1.4v2.4c0,0.7,0,1.2,0.1,1.3c0.1,0.2,0.1,0.3,0.3,0.4c0.1,0.1,0.3,0.1,0.5,0.1c0.2,0,0.4-0.1,0.6-0.2
			c0.2-0.1,0.3-0.3,0.4-0.5c0.1-0.2,0.1-0.7,0.1-1.4v-2.2h1.4v5.2H543.1z"/>
		<path class="st6" d="M548.2,324.6v1.1h-0.9v2.1c0,0.4,0,0.7,0,0.7c0,0.1,0.1,0.1,0.1,0.2c0.1,0,0.1,0.1,0.2,0.1
			c0.1,0,0.3,0,0.6-0.1l0.1,1.1c-0.3,0.1-0.7,0.2-1.1,0.2c-0.2,0-0.5,0-0.7-0.1c-0.2-0.1-0.3-0.2-0.4-0.3c-0.1-0.1-0.2-0.3-0.2-0.5
			c0-0.2,0-0.5,0-1v-2.3h-0.6v-1.1h0.6v-1l1.4-0.8v1.8H548.2z"/>
		<path class="st6" d="M552.6,329.8V329c-0.2,0.3-0.4,0.5-0.7,0.7c-0.3,0.2-0.6,0.2-1,0.2c-0.3,0-0.7-0.1-0.9-0.2s-0.5-0.4-0.6-0.6
			s-0.2-0.7-0.2-1.1v-3.3h1.4v2.4c0,0.7,0,1.2,0.1,1.3c0,0.2,0.1,0.3,0.3,0.4c0.1,0.1,0.3,0.1,0.5,0.1c0.2,0,0.4-0.1,0.6-0.2
			c0.2-0.1,0.3-0.3,0.4-0.5c0.1-0.2,0.1-0.7,0.1-1.4v-2.2h1.4v5.2H552.6z"/>
		<path class="st6" d="M555.2,324.6h1.3v0.7c0.5-0.5,1-0.8,1.6-0.8c0.3,0,0.6,0.1,0.9,0.2s0.4,0.3,0.6,0.6c0.2-0.3,0.5-0.5,0.7-0.6
			s0.5-0.2,0.8-0.2c0.4,0,0.7,0.1,1,0.2c0.3,0.2,0.5,0.4,0.6,0.7c0.1,0.2,0.1,0.6,0.1,1.1v3.3h-1.4v-3c0-0.5,0-0.8-0.1-1
			c-0.1-0.2-0.3-0.3-0.6-0.3c-0.2,0-0.4,0.1-0.5,0.2s-0.3,0.3-0.4,0.5c-0.1,0.2-0.1,0.6-0.1,1.1v2.5h-1.4v-2.8c0-0.5,0-0.8-0.1-1
			s-0.1-0.3-0.2-0.3c-0.1-0.1-0.2-0.1-0.4-0.1c-0.2,0-0.4,0.1-0.6,0.2s-0.3,0.3-0.4,0.5c-0.1,0.2-0.1,0.6-0.1,1.1v2.5h-1.4V324.6z"
			/>
		<path class="st6" d="M568.9,329.8h-1.4v-2.6c0-0.6,0-0.9-0.1-1.1c-0.1-0.2-0.2-0.3-0.3-0.4c-0.1-0.1-0.3-0.1-0.5-0.1
			c-0.2,0-0.5,0.1-0.6,0.2s-0.3,0.3-0.4,0.5c-0.1,0.2-0.1,0.6-0.1,1.2v2.3h-1.4v-5.2h1.3v0.8c0.5-0.6,1-0.9,1.7-0.9
			c0.3,0,0.6,0.1,0.8,0.2c0.2,0.1,0.4,0.2,0.6,0.4c0.1,0.2,0.2,0.4,0.3,0.6c0,0.2,0.1,0.5,0.1,0.9V329.8z"/>
	</g>
	<g class="st22">
		<path class="st6" d="M551.9,55.8l-1.7-7.2h1.5l1.1,4.9l1.3-4.9h1.7l1.3,5l1.1-5h1.5l-1.7,7.2h-1.5l-1.4-5.4l-1.4,5.4H551.9z"/>
	</g>
	<g class="st22">
		<path class="st6" d="M560.2,49.9v-1.3h1.4v1.3H560.2z M560.2,55.8v-5.2h1.4v5.2H560.2z"/>
		<path class="st6" d="M567.7,55.8h-1.4v-2.6c0-0.6,0-0.9-0.1-1.1c-0.1-0.2-0.2-0.3-0.3-0.4s-0.3-0.1-0.5-0.1
			c-0.2,0-0.5,0.1-0.6,0.2c-0.2,0.1-0.3,0.3-0.4,0.5c-0.1,0.2-0.1,0.6-0.1,1.2v2.3H563v-5.2h1.3v0.8c0.5-0.6,1-0.9,1.7-0.9
			c0.3,0,0.6,0.1,0.8,0.2c0.3,0.1,0.4,0.2,0.6,0.4c0.1,0.2,0.2,0.4,0.3,0.6c0,0.2,0.1,0.5,0.1,0.9V55.8z"/>
		<path class="st6" d="M571.5,50.6v1.1h-0.9v2.1c0,0.4,0,0.7,0,0.7c0,0.1,0.1,0.1,0.1,0.2s0.1,0.1,0.2,0.1c0.1,0,0.3,0,0.6-0.1
			l0.1,1.1c-0.3,0.1-0.7,0.2-1.1,0.2c-0.2,0-0.5,0-0.7-0.1c-0.2-0.1-0.3-0.2-0.4-0.3c-0.1-0.1-0.2-0.3-0.2-0.5c0-0.2,0-0.5,0-1v-2.3
			h-0.6v-1.1h0.6v-1l1.4-0.8v1.8H571.5z"/>
		<path class="st6" d="M575.5,54.1l1.4,0.2c-0.2,0.5-0.5,0.9-0.8,1.1c-0.4,0.3-0.9,0.4-1.4,0.4c-0.9,0-1.6-0.3-2-0.9
			c-0.3-0.5-0.5-1.1-0.5-1.8c0-0.9,0.2-1.5,0.7-2c0.4-0.5,1-0.7,1.7-0.7c0.8,0,1.4,0.3,1.8,0.8c0.4,0.5,0.7,1.3,0.6,2.3h-3.4
			c0,0.4,0.1,0.7,0.3,0.9c0.2,0.2,0.5,0.3,0.8,0.3c0.2,0,0.4-0.1,0.5-0.2S575.4,54.4,575.5,54.1z M575.5,52.7c0-0.4-0.1-0.7-0.3-0.9
			c-0.2-0.2-0.4-0.3-0.7-0.3c-0.3,0-0.5,0.1-0.7,0.3s-0.3,0.5-0.3,0.9H575.5z"/>
		<path class="st6" d="M579.3,55.8H578v-5.2h1.3v0.7c0.2-0.3,0.4-0.6,0.6-0.7c0.2-0.1,0.4-0.2,0.6-0.2c0.3,0,0.6,0.1,0.9,0.3
			l-0.4,1.2c-0.2-0.1-0.4-0.2-0.6-0.2c-0.2,0-0.4,0.1-0.5,0.2c-0.1,0.1-0.2,0.3-0.3,0.6c-0.1,0.3-0.1,0.9-0.1,1.7V55.8z"/>
	</g>
</g>
</svg>
