<?xml version="1.0" encoding="utf-8"?>
<!-- Generator: Adobe Illustrator 25.2.0, SVG Export Plug-In . SVG Version: 6.00 Build 0)  -->
<svg version="1.1" id="Layer_1" xmlns="http://www.w3.org/2000/svg" xmlns:xlink="http://www.w3.org/1999/xlink" x="0px" y="0px"
	 viewBox="0 0 2286.7 1076.7" style="enable-background:new 0 0 2286.7 1076.7;" xml:space="preserve">
<style type="text/css">
	.st0{fill:#23A2B7;stroke:#23A2B7;stroke-width:5;stroke-miterlimit:10;}
	.st1{fill:#A8E0E5;}
	.st2{fill:#99B8BF;}
	.st3{fill:#8ECCCE;}
	.st4{fill:#EBF2F2;}
	.st5{fill:#646B6D;}
	.st6{fill:none;stroke:#7A8E93;stroke-width:0.709;stroke-miterlimit:10;}
	.st7{fill:none;stroke:#7A8E93;stroke-width:0.74;stroke-linecap:round;stroke-linejoin:round;}
	.st8{enable-background:new    ;}
	.st9{fill:#767E80;}
	.st10{fill:#EBF1F2;}
	.st11{fill:none;stroke:#7A8E93;stroke-width:0.827;stroke-miterlimit:10;}
	.st12{fill:none;stroke:#7A8E93;stroke-width:0.742;stroke-miterlimit:10;}
	.st13{fill:none;stroke:#7A8E93;stroke-width:0.715;stroke-miterlimit:10;}
	.st14{fill:#7A8E93;stroke:#7A8E93;stroke-width:0.359;stroke-miterlimit:10;}
	.st15{opacity:0.74;fill:#575757;enable-background:new    ;}
	.st16{fill:#FFFFFF;}
	.st17{fill:none;stroke:#FFFFFF;stroke-width:10;stroke-miterlimit:10;}
	.st18{fill:none;stroke:#FFFFFF;stroke-width:5;stroke-miterlimit:10;}
</style>
<g id="shadow">
	<polygon class="st0" points="81.3,84.7 2200.4,84.7 2200.4,662.8 1475,700 1460.2,936.3 1291.7,947.9 1288.7,934.1 950.3,953.6 
		948.2,886.2 790.4,873.1 186.3,940.5 183.3,912.6 202.1,908.2 192.7,815.1 172.2,818 	"/>
</g>
<g id="background">
	<polygon class="st1" points="78.3,65 2197.4,65 2197.4,643.1 1472,680.3 1457.2,916.6 1288.7,928.2 1285.7,914.4 947.3,933.9 
		945.2,866.5 787.4,853.4 183.3,920.8 180.3,892.9 199.1,888.5 189.7,795.4 169.2,798.3 	"/>
</g>
<g id="spaces">
	<polygon class="st2" points="1807.5,65 2197.4,68.7 2197.4,643.1 1807.5,663.1 	"/>
	<polygon class="st2" points="166.7,778.2 663.7,714.6 657.4,665.4 689.9,661.4 696.3,715 824.4,698.2 810.3,581 896.3,581 
		896.3,575.4 959.5,575.4 959.5,559.4 993.9,559.4 993.9,575.4 1263.1,575.4 1263.1,457.4 1190.3,457.4 1190.3,383.5 1441.1,383.5 
		1809,383.5 1807.5,663.1 1470.6,680.1 1454.7,919 1286.8,928.3 1285.9,915.1 947.3,933.9 945.5,866.9 787.4,853.4 183.3,920.8 
		178.9,890.3 197.5,887.6 187.1,795.2 169.2,798.3 	"/>
	<polygon class="st3" points="78.3,65 392.7,65 411.5,213.8 428.8,369.2 447.5,544.5 637.9,519.2 645,572.3 785.7,560.8 
		786.7,381.2 810.4,381.2 810.4,497.1 896.6,497.1 896.6,505.1 906.3,505.1 906.3,410.5 1096.5,410.5 1096.5,381.2 1190.3,383.5 
		1190.3,457.4 1263.1,457.4 1263.1,575.4 993.9,575.4 993.9,559.4 959.5,559.4 959.5,575.4 896.3,575.4 896.3,581 810.3,581 
		824.4,698.2 696.3,715 689.9,661.4 657.4,665.4 663.7,714.6 441.4,743.1 166.7,778.2 	"/>
	<path class="st3" d="M722.3,178.6h226.5v-48.4h162.5V189h249.6v35.9h80.1v-94.3h120.6v47H1668V65h141v318.5H925.6l-192.5-2.3v-25.7
		l-10.9-0.6l-0.5-73.9h-5.8l0.3,26c0,0-8.1,77.3-54.8,91.1c0,0-30.9,15.5-62.1,10.4c-19.9-3.4-39.5-8.2-58.7-14.4l-39.7-26.3
		c0,0-41.6-41.3-55-64.5s-19.3-41.8-19.3-41.8h-9.8l-5.3-47.7l7.5,0.7c0,0-3.5-40.5,9.6-64s16.6-28.2,16.6-28.2s-10-42.7,30.9-41.2
		c0,0,10,2.3,15.5,6.4c0,0,25.7-5.3,46.5-3s39.5,5.8,55.4,13.1s49.1,33.5,49.1,33.5s36.9,35.4,49.8,60.5s15.5,33.6,15.5,33.6h14.4
		V178.6z"/>
	<rect x="1376" y="65" class="st3" width="93.8" height="65.1"/>
	<rect x="1111.3" y="128" class="st2" width="121.8" height="60.5"/>
	<rect x="1360.9" y="130.6" class="st2" width="80.1" height="94.3"/>
	<path class="st2" d="M680.5,130.1h130.9v48.6h-89.2v46.4h-14.5c0,0-14.6-35.6-27.3-50.6S642.5,131,642.5,131L680.5,130.1z"/>
	<polygon class="st2" points="434.5,428.7 554,423.9 625.2,423.9 637.9,519.2 447.5,544.5 	"/>
	<polygon class="st2" points="625.2,423.9 665.8,732.6 1127.5,736.7 1400.9,614.4 1364.9,383.5 733.1,381.2 687,401.1 654.9,418.2 
		645,423.9 	"/>
</g>
<g id="icons">
	<g id="stairs-4-2-3-3">
		<circle class="st4" cx="560.2" cy="623.8" r="24"/>
		<path class="st5" d="M547.2,659.7l1-0.1c0,0.4,0.1,0.8,0.4,1c0.2,0.3,0.4,0.5,0.8,0.6c0.4,0.1,0.8,0.2,1.2,0.3c0.3,0,0.7,0,1-0.1
			s0.5-0.3,0.6-0.5c0.1-0.3,0.3-0.4,0.3-0.6c0-0.2-0.1-0.5-0.3-0.6c-0.2-0.2-0.5-0.4-0.8-0.5c-0.5-0.2-0.9-0.3-1.4-0.4
			c-0.5-0.1-1.1-0.3-1.5-0.5s-0.7-0.5-0.9-0.8s-0.2-0.7-0.3-1c0-0.4,0.1-0.8,0.4-1.2c0.2-0.4,0.6-0.7,1-0.8c0.5-0.2,0.9-0.2,1.4-0.3
			c0.5,0,1,0.1,1.5,0.3c0.4,0.2,0.7,0.4,1,0.8c0.3,0.4,0.4,0.8,0.4,1.3l-1,0.1c0-0.4-0.2-0.9-0.5-1.2c-0.4-0.3-0.9-0.4-1.4-0.4
			s-1,0.1-1.4,0.4c-0.2,0.2-0.4,0.5-0.4,0.8c0,0.2,0.1,0.5,0.3,0.6c0.5,0.3,1,0.4,1.5,0.5c0.6,0.1,1.2,0.3,1.8,0.5
			c0.4,0.2,0.7,0.5,1,0.8s0.4,0.7,0.4,1.2c0,0.4-0.1,0.8-0.4,1.2c-0.3,0.4-0.6,0.7-1,0.9c-0.5,0.2-1,0.3-1.5,0.3
			c-0.6,0-1.2-0.1-1.8-0.3c-0.5-0.1-0.9-0.5-1.2-0.9C547.3,660.6,547.2,660.2,547.2,659.7z"/>
		<path class="st5" d="M556.8,661.4l0.1,0.9c-0.3,0-0.5,0.1-0.8,0.1c-0.4,0-0.6,0-0.8-0.1s-0.4-0.3-0.4-0.4
			c-0.1-0.1-0.1-0.5-0.1-1.2v-3.2H554v-0.8h0.8v-1.4l0.9-0.6v1.9h1v0.8h-1v3.9c0,0.1,0.1,0.1,0.1,0.1l0,0c0.1,0,0.1,0.1,0.4,0.1
			C556.5,661.4,556.7,661.4,556.8,661.4z"/>
		<path class="st5" d="M561.6,661.5c-0.3,0.3-0.7,0.5-1,0.6s-0.7,0.1-1,0.1c-0.5,0.1-1.1-0.1-1.4-0.5c-0.4-0.3-0.6-0.7-0.5-1.2
			c0-0.3,0-0.5,0.1-0.8c0.1-0.2,0.3-0.4,0.5-0.5c0.3-0.1,0.4-0.3,0.6-0.3c0.3-0.1,0.6-0.1,0.9-0.1c0.6-0.1,1.1-0.2,1.7-0.4v-0.3
			c0-0.3-0.1-0.6-0.3-0.8c-0.3-0.3-0.7-0.4-1.2-0.4c-0.4,0-0.7,0.1-1,0.3c-0.3,0.1-0.4,0.4-0.5,0.9l-0.9-0.1c0.1-0.4,0.2-0.7,0.4-1
			c0.3-0.2,0.6-0.4,0.9-0.5c0.4-0.2,0.8-0.2,1.3-0.3c0.4,0,0.8,0,1.2,0.1c0.2,0.1,0.4,0.2,0.6,0.4c0.2,0.2,0.3,0.4,0.3,0.6v3.9
			c0,0.2,0.1,0.5,0.3,0.6h-1C561.6,662,561.6,661.8,561.6,661.5z M561.5,659.3c-0.5,0.2-1,0.3-1.5,0.4c-0.4,0-0.6,0.1-0.9,0.1
			c-0.1,0.1-0.3,0.1-0.4,0.3s-0.1,0.3-0.1,0.5s0.1,0.5,0.3,0.6c0.3,0.2,0.6,0.2,0.9,0.3c0.4,0,0.7-0.1,1-0.3
			c0.3-0.1,0.5-0.4,0.6-0.6c0.1-0.3,0.2-0.7,0.1-1L561.5,659.3L561.5,659.3z"/>
		<path class="st5" d="M563.9,655.5v-1.2h1v1.2H563.9z M563.9,662.2v-5.7h1v5.7H563.9z"/>
		<path class="st5" d="M566.4,662.2v-5.7h0.9v0.9c0.3-0.4,0.4-0.6,0.6-0.8s0.4-0.3,0.6-0.3c0.4,0,0.7,0.1,1,0.3l-0.4,0.9
			c-0.2-0.1-0.4-0.2-0.6-0.3c-0.3,0-0.4,0-0.5,0.1c-0.2,0.1-0.3,0.3-0.4,0.5c-0.1,0.4-0.1,0.8-0.1,1.2v3L566.4,662.2L566.4,662.2z"
			/>
		<path class="st5" d="M569.7,660.5l0.9-0.1c0,0.3,0.2,0.6,0.4,0.9c0.1,0.3,0.6,0.3,1,0.3s0.7-0.1,1-0.3c0.2-0.1,0.4-0.4,0.4-0.6
			c0-0.2-0.1-0.4-0.3-0.5c-0.3-0.2-0.7-0.3-1-0.4c-0.5-0.1-1-0.3-1.4-0.5c-0.3-0.1-0.5-0.3-0.6-0.5s-0.2-0.5-0.3-0.8
			c0-0.2,0-0.5,0.1-0.6c0.1-0.2,0.3-0.4,0.5-0.5c0.2-0.2,0.4-0.3,0.6-0.3c0.3,0,0.5-0.1,0.8-0.1c0.4,0,0.8,0.1,1.2,0.3
			c0.3,0.1,0.6,0.3,0.8,0.5c0.2,0.3,0.3,0.6,0.4,0.9l-0.9,0.1c0-0.3-0.1-0.5-0.4-0.6c-0.3-0.2-0.6-0.3-0.9-0.3
			c-0.3,0-0.6,0.1-0.9,0.3c-0.2,0.1-0.3,0.3-0.3,0.5c0,0.1,0,0.3,0.1,0.4c0.1,0.1,0.3,0.1,0.4,0.3c0.1,0,0.4,0.1,0.9,0.3
			c0.6,0.1,1.2,0.4,1.4,0.4c0.3,0.1,0.5,0.3,0.6,0.5s0.2,0.5,0.3,0.8c0,0.3-0.1,0.6-0.3,0.9c-0.2,0.3-0.5,0.5-0.8,0.6
			c-0.4,0.2-0.8,0.2-1.2,0.3c-0.6,0.1-1.2-0.1-1.7-0.5C570,661.5,569.7,661.1,569.7,660.5z"/>
		<g id="Outline_Icons-2-2-4-2-3-3">
			<line class="st6" x1="549.4" y1="633.2" x2="568.2" y2="633.2"/>
			<polyline class="st6" points="564.8,633.2 564.8,629.8 561.6,629.8 561.6,626.6 558.4,626.6 558.4,623.4 555.2,623.4 
				555.2,620.2 549.4,620.2 			"/>
			<line class="st6" x1="559.2" y1="614.4" x2="569.5" y2="624.7"/>
			<polyline class="st6" points="559.2,618.5 559.2,614.4 563.3,614.4 			"/>
			<polyline class="st6" points="569.5,620.6 569.5,624.7 565.4,624.7 			"/>
		</g>
	</g>
	<g id="stairs-4-2-3-3-5">
		<circle class="st4" cx="1763.2" cy="196.6" r="24"/>
		<path class="st5" d="M1750.2,232.5l1-0.1c0,0.4,0.1,0.8,0.4,1c0.2,0.3,0.4,0.5,0.8,0.6s0.8,0.2,1.2,0.3c0.3,0,0.7,0,1-0.1
			s0.5-0.3,0.6-0.5c0.1-0.3,0.3-0.4,0.3-0.6c0-0.2-0.1-0.5-0.3-0.6c-0.2-0.2-0.5-0.4-0.8-0.5c-0.5-0.2-0.9-0.3-1.4-0.4
			c-0.5-0.1-1.1-0.3-1.5-0.5s-0.7-0.5-0.9-0.8c-0.2-0.3-0.2-0.7-0.3-1c0-0.4,0.1-0.8,0.4-1.2c0.2-0.4,0.6-0.7,1-0.8
			c0.5-0.2,0.9-0.2,1.4-0.3c0.5,0,1,0.1,1.5,0.3c0.4,0.2,0.7,0.4,1,0.8c0.3,0.4,0.4,0.8,0.4,1.3l-1,0.1c0-0.4-0.2-0.9-0.5-1.2
			c-0.4-0.3-0.9-0.4-1.4-0.4s-1,0.1-1.4,0.4c-0.2,0.2-0.4,0.5-0.4,0.8c0,0.2,0.1,0.5,0.3,0.6c0.5,0.3,1,0.4,1.5,0.5
			c0.6,0.1,1.2,0.3,1.8,0.5c0.4,0.2,0.7,0.5,1,0.8s0.4,0.7,0.4,1.2c0,0.4-0.1,0.8-0.4,1.2s-0.6,0.7-1,0.9c-0.5,0.2-1,0.3-1.5,0.3
			c-0.6,0-1.2-0.1-1.8-0.3c-0.5-0.1-0.9-0.5-1.2-0.9C1750.3,233.4,1750.2,232.9,1750.2,232.5z"/>
		<path class="st5" d="M1759.9,234.2l0.1,0.9c-0.3,0-0.5,0.1-0.8,0.1c-0.4,0-0.6,0-0.8-0.1s-0.4-0.3-0.4-0.4
			c-0.1-0.1-0.1-0.5-0.1-1.2v-3.2h-0.8v-0.8h0.8v-1.4l0.9-0.6v1.9h1v0.8h-1v3.9c0,0.1,0.1,0.1,0.1,0.1l0,0c0.1,0,0.1,0.1,0.4,0.1
			C1759.5,234.2,1759.7,234.2,1759.9,234.2z"/>
		<path class="st5" d="M1764.6,234.3c-0.3,0.3-0.7,0.5-1,0.6s-0.7,0.1-1,0.1c-0.5,0.1-1.1-0.1-1.4-0.5c-0.4-0.3-0.6-0.7-0.5-1.2
			c0-0.3,0-0.5,0.1-0.8c0.1-0.2,0.3-0.4,0.5-0.5c0.3-0.1,0.4-0.3,0.6-0.3c0.3-0.1,0.6-0.1,0.9-0.1c0.6-0.1,1.1-0.2,1.7-0.4v-0.3
			c0-0.3-0.1-0.6-0.3-0.8c-0.3-0.3-0.7-0.4-1.2-0.4c-0.4,0-0.7,0.1-1,0.3c-0.3,0.1-0.4,0.4-0.5,0.9l-0.9-0.1c0.1-0.4,0.2-0.7,0.4-1
			c0.3-0.2,0.6-0.4,0.9-0.5c0.4-0.2,0.8-0.2,1.3-0.3c0.4,0,0.8,0,1.2,0.1c0.2,0.1,0.4,0.2,0.6,0.4s0.3,0.4,0.3,0.6v3.9
			c0,0.2,0.1,0.5,0.3,0.6h-1C1764.6,234.8,1764.6,234.6,1764.6,234.3z M1764.5,232.1c-0.5,0.2-1,0.3-1.5,0.4c-0.4,0-0.6,0.1-0.9,0.1
			c-0.1,0.1-0.3,0.1-0.4,0.3s-0.1,0.3-0.1,0.5s0.1,0.5,0.3,0.6c0.3,0.2,0.6,0.2,0.9,0.3c0.4,0,0.7-0.1,1-0.3
			c0.3-0.1,0.5-0.4,0.6-0.6c0.1-0.3,0.2-0.7,0.1-1V232.1z"/>
		<path class="st5" d="M1767,228.3v-1.2h1v1.2H1767z M1767,235v-5.7h1v5.7H1767z"/>
		<path class="st5" d="M1769.4,235v-5.7h0.9v0.9c0.3-0.4,0.4-0.6,0.6-0.8s0.4-0.3,0.6-0.3c0.4,0,0.7,0.1,1,0.3l-0.4,0.9
			c-0.2-0.1-0.4-0.2-0.6-0.3c-0.3,0-0.4,0-0.5,0.1c-0.2,0.1-0.3,0.3-0.4,0.5c-0.1,0.4-0.1,0.8-0.1,1.2v3L1769.4,235L1769.4,235z"/>
		<path class="st5" d="M1772.8,233.3l0.9-0.1c0,0.3,0.2,0.6,0.4,0.9c0.1,0.3,0.6,0.3,1,0.3s0.7-0.1,1-0.3c0.2-0.1,0.4-0.4,0.4-0.6
			c0-0.2-0.1-0.4-0.3-0.5c-0.3-0.2-0.7-0.3-1-0.4c-0.5-0.1-1-0.3-1.4-0.5c-0.3-0.1-0.5-0.3-0.6-0.5s-0.2-0.5-0.3-0.8
			c0-0.2,0-0.5,0.1-0.6c0.1-0.2,0.3-0.4,0.5-0.5c0.2-0.2,0.4-0.3,0.6-0.3c0.3,0,0.5-0.1,0.8-0.1c0.4,0,0.8,0.1,1.2,0.3
			c0.3,0.1,0.6,0.3,0.8,0.5c0.2,0.3,0.3,0.6,0.4,0.9l-0.9,0.1c0-0.3-0.1-0.5-0.4-0.6c-0.3-0.2-0.6-0.3-0.9-0.3s-0.6,0.1-0.9,0.3
			c-0.2,0.1-0.3,0.3-0.3,0.5c0,0.1,0,0.3,0.1,0.4c0.1,0.1,0.3,0.1,0.4,0.3c0.1,0,0.4,0.1,0.9,0.3c0.6,0.1,1.2,0.4,1.4,0.4
			c0.3,0.1,0.5,0.3,0.6,0.5s0.2,0.5,0.3,0.8c0,0.3-0.1,0.6-0.3,0.9c-0.2,0.3-0.5,0.5-0.8,0.6c-0.4,0.2-0.8,0.2-1.2,0.3
			c-0.6,0.1-1.2-0.1-1.7-0.5C1773,234.3,1772.8,233.9,1772.8,233.3z"/>
		<g id="Outline_Icons-2-2-4-2-3-3-5">
			<line class="st6" x1="1752.4" y1="206" x2="1771.2" y2="206"/>
			<polyline class="st6" points="1767.9,206 1767.9,202.6 1764.6,202.6 1764.6,199.4 1761.4,199.4 1761.4,196.2 1758.2,196.2 
				1758.2,192.9 1752.4,192.9 			"/>
			<line class="st6" x1="1762.2" y1="187.2" x2="1772.5" y2="197.5"/>
			<polyline class="st6" points="1762.2,191.3 1762.2,187.2 1766.3,187.2 			"/>
			<polyline class="st6" points="1772.5,193.3 1772.5,197.5 1768.4,197.5 			"/>
		</g>
	</g>
	<g id="stairs-4-2-3-3-6">
		<circle class="st4" cx="1412.3" cy="103.4" r="24"/>
		<path class="st5" d="M1448.2,116.4l-0.1-1c0.4,0,0.8-0.1,1-0.4c0.3-0.2,0.5-0.4,0.6-0.8s0.2-0.8,0.3-1.2c0-0.3,0-0.7-0.1-1
			s-0.3-0.5-0.5-0.6c-0.3-0.1-0.4-0.3-0.6-0.3s-0.5,0.1-0.6,0.3c-0.2,0.2-0.4,0.5-0.5,0.8c-0.2,0.5-0.3,0.9-0.4,1.4
			s-0.3,1.1-0.5,1.5s-0.5,0.7-0.8,0.9c-0.3,0.2-0.7,0.2-1,0.3c-0.4,0-0.8-0.1-1.2-0.4c-0.4-0.2-0.7-0.6-0.8-1
			c-0.2-0.5-0.2-0.9-0.3-1.4c0-0.5,0.1-1,0.3-1.5c0.2-0.4,0.4-0.7,0.8-1s0.8-0.4,1.3-0.4l0.1,1c-0.4,0-0.9,0.2-1.2,0.5
			c-0.3,0.4-0.4,0.9-0.4,1.4s0.1,1,0.4,1.4c0.2,0.2,0.5,0.4,0.8,0.4c0.2,0,0.5-0.1,0.6-0.3c0.3-0.5,0.4-1,0.5-1.5
			c0.1-0.6,0.3-1.2,0.5-1.8c0.2-0.4,0.5-0.7,0.8-1s0.7-0.4,1.2-0.4c0.4,0,0.8,0.1,1.2,0.4c0.4,0.3,0.7,0.6,0.9,1
			c0.2,0.5,0.3,1,0.3,1.5c0,0.6-0.1,1.2-0.3,1.8c-0.1,0.5-0.5,0.9-0.9,1.2C1449.1,116.3,1448.6,116.4,1448.2,116.4z"/>
		<path class="st5" d="M1449.9,106.8l0.9-0.1c0,0.3,0.1,0.5,0.1,0.8c0,0.4,0,0.6-0.1,0.8s-0.3,0.4-0.4,0.4c-0.1,0.1-0.5,0.1-1.2,0.1
			h-3.2v0.8h-0.8v-0.8h-1.4l-0.6-0.9h1.9v-1h0.8v1h3.9c0.1,0,0.1-0.1,0.1-0.1l0,0l0,0c0-0.1,0.1-0.1,0.1-0.4
			C1449.9,107.1,1449.9,106.9,1449.9,106.8z"/>
		<path class="st5" d="M1450,102c0.3,0.3,0.5,0.7,0.6,1s0.1,0.7,0.1,1c0.1,0.5-0.1,1.1-0.5,1.4c-0.3,0.4-0.7,0.6-1.2,0.5
			c-0.3,0-0.5,0-0.8-0.1c-0.2-0.1-0.4-0.3-0.5-0.5c-0.1-0.3-0.3-0.4-0.3-0.6c-0.1-0.3-0.1-0.6-0.1-0.9c-0.1-0.6-0.2-1.1-0.4-1.7
			h-0.3c-0.3,0-0.6,0.1-0.8,0.3c-0.3,0.3-0.4,0.7-0.4,1.2c0,0.4,0.1,0.7,0.3,1c0.1,0.3,0.4,0.4,0.9,0.5l-0.1,0.9
			c-0.4-0.1-0.7-0.2-1-0.4c-0.2-0.3-0.4-0.6-0.5-0.9c-0.2-0.4-0.2-0.8-0.3-1.3c0-0.4,0-0.8,0.1-1.2c0.1-0.2,0.2-0.4,0.4-0.6
			c0.2-0.2,0.4-0.3,0.6-0.3h3.9c0.2,0,0.5-0.1,0.6-0.3v1C1450.5,102,1450.3,102,1450,102z M1447.8,102.1c0.2,0.5,0.3,1,0.4,1.5
			c0,0.4,0.1,0.6,0.1,0.9c0.1,0.1,0.1,0.3,0.3,0.4s0.3,0.1,0.5,0.1s0.5-0.1,0.6-0.3c0.2-0.3,0.2-0.6,0.3-0.9c0-0.4-0.1-0.7-0.3-1
			c-0.1-0.3-0.4-0.5-0.6-0.6c-0.3-0.1-0.7-0.2-1-0.1H1447.8z"/>
		<path class="st5" d="M1444,99.7h-1.2v-1h1.2V99.7z M1450.7,99.7h-5.7v-1h5.7V99.7z"/>
		<path class="st5" d="M1450.7,97.2h-5.7v-0.9h0.9c-0.4-0.3-0.6-0.4-0.8-0.6s-0.3-0.4-0.3-0.6c0-0.4,0.1-0.7,0.3-1l0.9,0.4
			c-0.1,0.2-0.2,0.4-0.3,0.6c0,0.3,0,0.4,0.1,0.5c0.1,0.2,0.3,0.3,0.5,0.4c0.4,0.1,0.8,0.1,1.2,0.1h3L1450.7,97.2L1450.7,97.2z"/>
		<path class="st5" d="M1449,93.9l-0.1-0.9c0.3,0,0.6-0.2,0.9-0.4c0.3-0.1,0.3-0.6,0.3-1s-0.1-0.7-0.3-1c-0.1-0.2-0.4-0.4-0.6-0.4
			s-0.4,0.1-0.5,0.3c-0.2,0.3-0.3,0.7-0.4,1c-0.1,0.5-0.3,1-0.5,1.4c-0.1,0.3-0.3,0.5-0.5,0.6s-0.5,0.2-0.8,0.3
			c-0.2,0-0.5,0-0.6-0.1c-0.2-0.1-0.4-0.3-0.5-0.5c-0.2-0.2-0.3-0.4-0.3-0.6c0-0.3-0.1-0.5-0.1-0.8c0-0.4,0.1-0.8,0.3-1.2
			c0.1-0.3,0.3-0.6,0.5-0.8c0.3-0.2,0.6-0.3,0.9-0.4l0.1,0.9c-0.3,0-0.5,0.1-0.6,0.4c-0.2,0.3-0.3,0.6-0.3,0.9s0.1,0.6,0.3,0.9
			c0.1,0.2,0.3,0.3,0.5,0.3c0.1,0,0.3,0,0.4-0.1s0.1-0.3,0.3-0.4c0-0.1,0.1-0.4,0.3-0.9c0.1-0.6,0.4-1.2,0.4-1.4
			c0.1-0.3,0.3-0.5,0.5-0.6s0.5-0.2,0.8-0.3c0.3,0,0.6,0.1,0.9,0.3c0.3,0.2,0.5,0.5,0.6,0.8c0.2,0.4,0.2,0.8,0.3,1.2
			c0.1,0.6-0.1,1.2-0.5,1.7C1450,93.6,1449.6,93.9,1449,93.9z"/>
		<g id="Outline_Icons-2-2-4-2-3-3-6">
			<line class="st6" x1="1421.7" y1="114.2" x2="1421.7" y2="95.4"/>
			<polyline class="st6" points="1421.7,98.8 1418.3,98.8 1418.3,102 1415.1,102 1415.1,105.2 1411.9,105.2 1411.9,108.4 
				1408.7,108.4 1408.7,114.2 			"/>
			<line class="st6" x1="1402.9" y1="104.4" x2="1413.2" y2="94.1"/>
			<polyline class="st6" points="1407,104.4 1402.9,104.4 1402.9,100.3 			"/>
			<polyline class="st6" points="1409,94.1 1413.2,94.1 1413.2,98.3 			"/>
		</g>
	</g>
	<g id="Toilet">
		<path class="st5" d="M1611.6,268.5v-7.2h-2.7v-1h6.6v1h-2.7v7.2H1611.6z"/>
		<path class="st5" d="M1614.7,265.5c-0.1-0.9,0.2-1.8,0.9-2.4c0.6-0.4,1.2-0.6,1.9-0.6c0.8,0,1.5,0.3,2.1,0.8
			c0.5,0.6,0.8,1.4,0.8,2.2c0,0.6-0.1,1.2-0.4,1.8c-0.2,0.4-0.6,0.8-1,1c-0.4,0.3-0.9,0.4-1.4,0.4c-0.8,0-1.5-0.3-2.1-0.8
			C1615,267.2,1614.7,266.3,1614.7,265.5z M1615.9,265.5c-0.1,0.6,0.1,1.2,0.5,1.7c0.7,0.7,1.9,0.7,2.6,0c0.4-0.5,0.6-1.2,0.5-1.8
			c0.1-0.6-0.1-1.2-0.5-1.7c-0.7-0.7-1.9-0.7-2.6,0C1616,264.2,1615.8,264.9,1615.9,265.5L1615.9,265.5z"/>
		<path class="st5" d="M1621.6,261.4v-1.2h1v1.2H1621.6z M1621.6,268.5v-5.9h1v5.9H1621.6z"/>
		<path class="st5" d="M1624.1,268.5v-8.2h1v8.2H1624.1z"/>
		<path class="st5" d="M1630.8,266.5l1,0.1c-0.1,0.6-0.5,1.1-0.9,1.4c-0.5,0.4-1.1,0.6-1.7,0.5c-0.8,0-1.5-0.2-2.1-0.8
			c-1-1.4-1-3.3,0-4.6c0.5-0.5,1.3-0.8,2.1-0.8c0.7,0,1.4,0.3,1.9,0.8c0.6,0.6,0.8,1.5,0.8,2.3v0.3h-4.5c0,0.6,0.2,1.1,0.5,1.5
			s0.8,0.5,1.3,0.5c0.3,0,0.6-0.1,0.9-0.3C1630.4,267.2,1630.7,266.9,1630.8,266.5z M1627.5,264.9h3.3c0-1-0.7-1.8-1.7-1.8
			c-0.5-0.1-0.9,0.1-1.2,0.5C1627.7,263.9,1627.5,264.4,1627.5,264.9L1627.5,264.9z"/>
		<path class="st5" d="M1635.3,267.6l0.1,0.9c-0.3,0-0.5,0.1-0.8,0.1s-0.6,0-0.9-0.1s-0.4-0.3-0.4-0.5c-0.1-0.4-0.2-0.8-0.1-1.2
			v-3.5h-0.8v-0.8h0.8v-1.4l1-0.6v2.1h1v0.8h-1v4c0,0.1,0.1,0.1,0.1,0.3s0.3,0.1,0.4,0.1C1635,267.6,1635.1,267.6,1635.3,267.6z"/>
		<circle class="st4" cx="1622.3" cy="230.8" r="24.9"/>
		<g id="Outline_Icons-4">
			<path class="st7" d="M1631.4,230.4c0,0.6-0.4,1-1,1l0,0h-5.1v-11c0-1.1,0.9-2,2-2.1l0,0h2.1c1.1,0,2,0.9,2.1,2v0.1L1631.4,230.4
				L1631.4,230.4z"/>
			<path class="st7" d="M1617.3,241.4h10v-6.1l3-2.1v-2.1h-17c-0.1,2.6,1.9,4.8,4.5,5h0.3L1617.3,241.4z"/>
			<rect x="1612.3" y="229.4" class="st7" width="13" height="2.1"/>
			<circle class="st7" cx="1628.8" cy="221.9" r="1"/>
		</g>
	</g>
	<g id="Outline_Icons-6">
		<g class="st8">
			<path class="st9" d="M1605.9,361.1l0.9-0.1c0,0.4,0.1,0.7,0.3,0.9c0.2,0.2,0.4,0.4,0.8,0.6s0.7,0.2,1.2,0.2c0.4,0,0.7-0.1,1-0.2
				s0.5-0.3,0.6-0.5s0.2-0.4,0.2-0.6s-0.1-0.4-0.2-0.6s-0.4-0.3-0.7-0.4c-0.2-0.1-0.6-0.2-1.3-0.4c-0.7-0.2-1.2-0.3-1.4-0.5
				c-0.4-0.2-0.6-0.4-0.8-0.7s-0.3-0.6-0.3-0.9c0-0.4,0.1-0.7,0.3-1.1c0.2-0.3,0.5-0.6,0.9-0.8c0.4-0.2,0.9-0.3,1.4-0.3
				c0.6,0,1,0.1,1.5,0.3c0.4,0.2,0.8,0.4,1,0.8c0.2,0.3,0.4,0.7,0.4,1.2l-1,0.1c-0.1-0.5-0.2-0.8-0.5-1.1s-0.7-0.4-1.3-0.4
				c-0.6,0-1,0.1-1.3,0.3c-0.3,0.2-0.4,0.5-0.4,0.8s0.1,0.5,0.3,0.7c0.2,0.2,0.7,0.4,1.5,0.5c0.8,0.2,1.4,0.3,1.7,0.5
				c0.4,0.2,0.8,0.5,1,0.8s0.3,0.7,0.3,1.1s-0.1,0.8-0.3,1.1c-0.2,0.4-0.6,0.6-1,0.8c-0.4,0.2-0.9,0.3-1.4,0.3
				c-0.7,0-1.2-0.1-1.7-0.3c-0.5-0.2-0.8-0.5-1.1-0.9S1605.9,361.6,1605.9,361.1z"/>
			<path class="st9" d="M1613.1,363.5V356h0.9v2.7c0.4-0.5,1-0.7,1.6-0.7c0.4,0,0.8,0.1,1,0.2c0.3,0.2,0.5,0.4,0.6,0.7
				c0.1,0.3,0.2,0.7,0.2,1.2v3.4h-0.9V360c0-0.5-0.1-0.8-0.3-1s-0.5-0.3-0.8-0.3s-0.5,0.1-0.8,0.2s-0.4,0.3-0.5,0.6s-0.2,0.6-0.2,1
				v3L1613.1,363.5L1613.1,363.5z"/>
			<path class="st9" d="M1618.6,360.8c0-1,0.3-1.8,0.8-2.2c0.5-0.4,1-0.6,1.7-0.6s1.4,0.2,1.8,0.7s0.7,1.2,0.7,2
				c0,0.7-0.1,1.2-0.3,1.7s-0.5,0.7-0.9,0.9c-0.4,0.2-0.8,0.3-1.3,0.3c-0.8,0-1.4-0.2-1.8-0.7S1618.6,361.7,1618.6,360.8z
				 M1619.6,360.8c0,0.7,0.2,1.2,0.5,1.6c0.3,0.3,0.7,0.5,1.1,0.5c0.5,0,0.8-0.2,1.1-0.5c0.3-0.3,0.5-0.9,0.5-1.6s-0.2-1.2-0.5-1.5
				s-0.7-0.5-1.1-0.5c-0.5,0-0.8,0.2-1.1,0.5C1619.7,359.6,1619.6,360.1,1619.6,360.8z"/>
			<path class="st9" d="M1625.8,363.5l-1.7-5.4h1l0.9,3.1l0.3,1.2c0-0.1,0.1-0.4,0.3-1.1l0.9-3.2h0.9l0.8,3.2l0.3,1l0.3-1l0.9-3.1
				h0.9l-1.7,5.4h-1l-0.9-3.3l-0.2-0.9l-1.1,4.2h-0.9L1625.8,363.5L1625.8,363.5z"/>
			<path class="st9" d="M1636.1,361.7l1,0.1c-0.2,0.6-0.4,1-0.8,1.3s-0.9,0.5-1.6,0.5c-0.8,0-1.4-0.2-1.9-0.7s-0.7-1.2-0.7-2.1
				s0.2-1.6,0.7-2.1s1.1-0.8,1.8-0.8c0.7,0,1.3,0.2,1.8,0.7s0.7,1.2,0.7,2.1c0,0.1,0,0.1,0,0.2h-4.1c0,0.6,0.2,1.1,0.5,1.4
				s0.7,0.5,1.1,0.5c0.3,0,0.6-0.1,0.9-0.3S1635.9,362.1,1636.1,361.7z M1633.1,360.3h3c0-0.5-0.2-0.8-0.3-1
				c-0.3-0.4-0.7-0.5-1.1-0.5s-0.8,0.1-1.1,0.4C1633.2,359.4,1633.1,359.8,1633.1,360.3z"/>
			<path class="st9" d="M1638.2,363.5v-5.4h0.8v0.8c0.2-0.4,0.4-0.6,0.6-0.8c0.2-0.1,0.4-0.2,0.6-0.2c0.3,0,0.6,0.1,0.9,0.3
				l-0.3,0.9c-0.2-0.1-0.5-0.2-0.7-0.2s-0.4,0.1-0.5,0.2c-0.2,0.1-0.3,0.3-0.3,0.5c-0.1,0.3-0.2,0.7-0.2,1.1v2.8L1638.2,363.5
				L1638.2,363.5z"/>
			<path class="st9" d="M1641.3,361.9l0.9-0.1c0.1,0.4,0.2,0.6,0.4,0.8s0.6,0.3,1,0.3s0.7-0.1,0.9-0.3c0.2-0.2,0.3-0.4,0.3-0.6
				s-0.1-0.4-0.3-0.5c-0.1-0.1-0.4-0.2-0.9-0.3c-0.7-0.2-1.1-0.3-1.4-0.4s-0.5-0.3-0.6-0.5s-0.2-0.5-0.2-0.7s0.1-0.5,0.2-0.7
				s0.3-0.4,0.5-0.5c0.1-0.1,0.3-0.2,0.6-0.3c0.2-0.1,0.5-0.1,0.8-0.1c0.4,0,0.8,0.1,1.1,0.2s0.6,0.3,0.7,0.5
				c0.2,0.2,0.3,0.5,0.3,0.8l-0.9,0.1c0-0.3-0.2-0.5-0.4-0.7c-0.2-0.2-0.5-0.2-0.8-0.2c-0.4,0-0.7,0.1-0.9,0.2
				c-0.2,0.1-0.3,0.3-0.3,0.5c0,0.1,0,0.2,0.1,0.3c0.1,0.1,0.2,0.2,0.4,0.2c0.1,0,0.4,0.1,0.8,0.2c0.7,0.2,1.1,0.3,1.4,0.4
				s0.5,0.3,0.6,0.5s0.2,0.5,0.2,0.8s-0.1,0.6-0.3,0.9c-0.2,0.3-0.4,0.5-0.8,0.6s-0.7,0.2-1.1,0.2c-0.7,0-1.2-0.1-1.6-0.4
				S1641.4,362.4,1641.3,361.9z"/>
		</g>
		<circle class="st10" cx="1628.5" cy="330.7" r="22.8"/>
	</g>
	<g id="Outline_Icons">
		<line class="st11" x1="1629.9" y1="331.5" x2="1629.9" y2="333"/>
		<line class="st11" x1="1629.9" y1="335" x2="1629.9" y2="336.5"/>
		<line class="st11" x1="1629.9" y1="338.5" x2="1629.9" y2="340"/>
		<line class="st11" x1="1633.9" y1="331.5" x2="1634.5" y2="332.9"/>
		<line class="st11" x1="1635.4" y1="334.7" x2="1636" y2="336"/>
		<line class="st11" x1="1636.8" y1="337.8" x2="1637.5" y2="339.2"/>
		<line class="st11" x1="1625.9" y1="331.5" x2="1625.3" y2="332.9"/>
		<line class="st11" x1="1624.4" y1="334.7" x2="1623.8" y2="336"/>
		<line class="st11" x1="1622.9" y1="337.8" x2="1622.3" y2="339.2"/>
		<line class="st11" x1="1631.7" y1="331.5" x2="1632" y2="333"/>
		<line class="st11" x1="1632.4" y1="334.9" x2="1632.8" y2="336.4"/>
		<line class="st11" x1="1633.2" y1="338.3" x2="1633.5" y2="339.8"/>
		<line class="st11" x1="1628.1" y1="331.5" x2="1627.8" y2="333"/>
		<line class="st11" x1="1627.3" y1="334.9" x2="1627" y2="336.4"/>
		<line class="st11" x1="1626.6" y1="338.3" x2="1626.3" y2="339.8"/>
		<path class="st11" d="M1638.9,328.5h-18l0.9-1.1c3.6-4.5,10.1-5.2,14.5-1.6c0,0,0,0,0.1,0c0.6,0.5,1.1,1,1.6,1.6L1638.9,328.5z"/>
		<polyline class="st11" points="1627.9,323.7 1628.9,321.5 1630.9,321.5 1631.9,323.7 		"/>
		<line class="st11" x1="1629.9" y1="321.5" x2="1629.9" y2="319.5"/>
	</g>
	<g class="st8">
		<path class="st9" d="M1472.6,252.4l0.9-0.1c0,0.4,0.1,0.7,0.3,0.9c0.2,0.2,0.4,0.4,0.8,0.6s0.7,0.2,1.2,0.2c0.4,0,0.7-0.1,1-0.2
			c0.3-0.1,0.5-0.3,0.6-0.5s0.2-0.4,0.2-0.6c0-0.2-0.1-0.4-0.2-0.6c-0.1-0.2-0.4-0.3-0.7-0.4c-0.2-0.1-0.6-0.2-1.3-0.4
			c-0.7-0.2-1.2-0.3-1.4-0.5c-0.4-0.2-0.6-0.4-0.8-0.7s-0.3-0.6-0.3-0.9c0-0.4,0.1-0.7,0.3-1.1c0.2-0.3,0.5-0.6,0.9-0.8
			s0.9-0.3,1.4-0.3c0.6,0,1,0.1,1.5,0.3c0.4,0.2,0.8,0.4,1,0.8c0.2,0.3,0.4,0.7,0.4,1.2l-1,0.1c-0.1-0.5-0.2-0.8-0.5-1.1
			c-0.3-0.2-0.7-0.4-1.3-0.4c-0.6,0-1,0.1-1.3,0.3s-0.4,0.5-0.4,0.8s0.1,0.5,0.3,0.7c0.2,0.2,0.7,0.4,1.5,0.5
			c0.8,0.2,1.4,0.3,1.7,0.5c0.4,0.2,0.8,0.5,1,0.8s0.3,0.7,0.3,1.1c0,0.4-0.1,0.8-0.3,1.1c-0.2,0.4-0.6,0.6-1,0.8s-0.9,0.3-1.4,0.3
			c-0.7,0-1.2-0.1-1.7-0.3s-0.8-0.5-1.1-0.9S1472.6,252.9,1472.6,252.4z"/>
		<path class="st9" d="M1483.6,253l1,0.1c-0.1,0.6-0.4,1-0.8,1.3s-0.9,0.5-1.6,0.5c-0.8,0-1.4-0.2-1.9-0.7s-0.7-1.2-0.7-2.1
			c0-0.9,0.2-1.6,0.7-2.1s1.1-0.8,1.8-0.8c0.7,0,1.3,0.2,1.8,0.7s0.7,1.2,0.7,2.1c0,0.1,0,0.1,0,0.2h-4.1c0,0.6,0.2,1.1,0.5,1.4
			c0.3,0.3,0.7,0.5,1.1,0.5c0.3,0,0.6-0.1,0.9-0.3C1483.2,253.7,1483.4,253.4,1483.6,253z M1480.5,251.5h3c0-0.5-0.2-0.8-0.3-1
			c-0.3-0.4-0.7-0.5-1.1-0.5s-0.8,0.1-1.1,0.4C1480.7,250.7,1480.6,251.1,1480.5,251.5z"/>
		<path class="st9" d="M1485.7,254.8v-5.4h0.8v0.8c0.2-0.4,0.4-0.6,0.6-0.8c0.2-0.1,0.4-0.2,0.6-0.2c0.3,0,0.6,0.1,0.9,0.3l-0.3,0.9
			c-0.2-0.1-0.5-0.2-0.7-0.2s-0.4,0.1-0.5,0.2s-0.3,0.3-0.3,0.5c-0.1,0.3-0.2,0.7-0.2,1.1v2.8L1485.7,254.8L1485.7,254.8z"/>
		<path class="st9" d="M1490.7,254.8l-2.1-5.4h1l1.2,3.3c0.1,0.4,0.2,0.7,0.3,1.1c0.1-0.3,0.2-0.6,0.3-1l1.2-3.3h0.9l-2.1,5.4h-0.7
			L1490.7,254.8L1490.7,254.8z"/>
		<path class="st9" d="M1498.1,253l1,0.1c-0.1,0.6-0.4,1-0.8,1.3s-0.9,0.5-1.6,0.5c-0.8,0-1.4-0.2-1.9-0.7s-0.7-1.2-0.7-2.1
			c0-0.9,0.2-1.6,0.7-2.1s1.1-0.8,1.8-0.8c0.7,0,1.3,0.2,1.8,0.7s0.7,1.2,0.7,2.1c0,0.1,0,0.1,0,0.2h-4.1c0,0.6,0.2,1.1,0.5,1.4
			c0.3,0.3,0.7,0.5,1.1,0.5c0.3,0,0.6-0.1,0.9-0.3C1497.8,253.7,1498,253.4,1498.1,253z M1495.1,251.5h3c0-0.5-0.2-0.8-0.3-1
			c-0.3-0.4-0.7-0.5-1.1-0.5s-0.8,0.1-1.1,0.4C1495.3,250.7,1495.1,251.1,1495.1,251.5z"/>
		<path class="st9" d="M1500.2,254.8v-5.4h0.8v0.8c0.2-0.4,0.4-0.6,0.6-0.8s0.4-0.2,0.6-0.2c0.3,0,0.6,0.1,0.9,0.3l-0.3,0.9
			c-0.2-0.1-0.5-0.2-0.7-0.2s-0.4,0.1-0.5,0.2s-0.3,0.3-0.3,0.5c-0.1,0.3-0.2,0.7-0.2,1.1v2.8L1500.2,254.8L1500.2,254.8z"/>
		<path class="st9" d="M1506.8,254.8v-7.5h3.3c0.7,0,1.2,0.1,1.5,0.2s0.6,0.4,0.8,0.7c0.2,0.3,0.3,0.7,0.3,1.1c0,0.5-0.2,1-0.5,1.3
			c-0.3,0.4-0.9,0.6-1.6,0.7c0.3,0.1,0.5,0.3,0.6,0.4c0.3,0.3,0.6,0.6,0.8,1l1.3,2h-1.2l-1-1.6c-0.3-0.5-0.5-0.8-0.7-1
			s-0.4-0.4-0.5-0.5s-0.3-0.2-0.5-0.2c-0.1,0-0.3,0-0.6,0h-1.2v3.3h-0.8L1506.8,254.8L1506.8,254.8z M1507.8,250.6h2.1
			c0.5,0,0.8,0,1.1-0.1c0.3-0.1,0.5-0.2,0.6-0.5c0.1-0.2,0.2-0.4,0.2-0.7c0-0.4-0.1-0.6-0.4-0.9s-0.7-0.3-1.2-0.3h-2.4L1507.8,250.6
			L1507.8,250.6z"/>
		<path class="st9" d="M1513.9,252.1c0-1,0.3-1.8,0.8-2.2s1-0.6,1.7-0.6s1.4,0.2,1.8,0.7s0.7,1.2,0.7,2c0,0.7-0.1,1.2-0.3,1.7
			c-0.2,0.4-0.5,0.7-0.9,0.9s-0.8,0.3-1.3,0.3c-0.8,0-1.4-0.2-1.8-0.7C1514.1,253.7,1513.9,253,1513.9,252.1z M1514.8,252.1
			c0,0.7,0.2,1.2,0.5,1.6c0.3,0.3,0.7,0.5,1.1,0.5c0.5,0,0.8-0.2,1.1-0.5s0.5-0.9,0.5-1.6c0-0.7-0.2-1.2-0.5-1.5s-0.7-0.5-1.1-0.5
			c-0.5,0-0.8,0.2-1.1,0.5C1515,250.8,1514.8,251.4,1514.8,252.1z"/>
		<path class="st9" d="M1519.7,252.1c0-1,0.3-1.8,0.8-2.2s1-0.6,1.7-0.6s1.4,0.2,1.8,0.7s0.7,1.2,0.7,2c0,0.7-0.1,1.2-0.3,1.7
			s-0.5,0.7-0.9,0.9s-0.8,0.3-1.3,0.3c-0.8,0-1.4-0.2-1.8-0.7S1519.7,253,1519.7,252.1z M1520.7,252.1c0,0.7,0.2,1.2,0.5,1.6
			c0.3,0.3,0.7,0.5,1.1,0.5c0.5,0,0.8-0.2,1.1-0.5c0.3-0.3,0.5-0.9,0.5-1.6c0-0.7-0.2-1.2-0.5-1.5s-0.7-0.5-1.1-0.5
			c-0.5,0-0.8,0.2-1.1,0.5C1520.8,250.8,1520.7,251.4,1520.7,252.1z"/>
		<path class="st9" d="M1525.9,254.8v-5.4h0.8v0.8c0.2-0.3,0.4-0.5,0.7-0.6s0.6-0.2,1-0.2s0.7,0.1,1,0.2c0.3,0.2,0.4,0.4,0.5,0.7
			c0.4-0.6,1-1,1.7-1c0.5,0,1,0.1,1.2,0.4c0.3,0.3,0.4,0.8,0.4,1.4v3.7h-0.9v-3.4c0-0.4,0-0.6-0.1-0.8s-0.2-0.3-0.3-0.4
			c-0.2-0.1-0.3-0.1-0.6-0.1c-0.4,0-0.7,0.1-1,0.4c-0.3,0.3-0.4,0.7-0.4,1.2v3.2h-0.9v-3.5c0-0.4-0.1-0.7-0.2-0.9
			c-0.2-0.2-0.4-0.3-0.7-0.3c-0.3,0-0.5,0.1-0.7,0.2c-0.2,0.1-0.4,0.3-0.5,0.6s-0.1,0.6-0.1,1.1v2.8L1525.9,254.8L1525.9,254.8z"/>
	</g>
	<g id="elevator-7-4">
		<g>
			<path class="st5" d="M536.2,288.2v-9.4h4.1c0.6,0,1.3,0.1,1.9,0.3c0.4,0.2,0.8,0.5,1,0.9c0.3,0.4,0.5,0.9,0.4,1.5
				c0.1,0.6-0.2,1.2-0.6,1.6c-0.6,0.5-1.3,0.8-2.1,0.9c0.3,0.1,0.5,0.3,0.7,0.4c0.4,0.4,0.8,0.8,1,1.3l1.6,2.5h-1.6l-1.2-1.9
				c-0.3-0.6-0.7-1-0.9-1.3l-0.6-0.6c-0.1-0.1-0.4-0.1-0.6-0.3h-2.2v4.1H536.2z M537.4,283h2.6c0.4,0,0.9,0,1.3-0.1
				c0.3-0.1,0.6-0.3,0.7-0.6c0.2-0.3,0.3-0.6,0.3-0.9c0-0.4-0.1-0.8-0.4-1c-0.4-0.3-0.9-0.4-1.5-0.4h-2.9L537.4,283L537.4,283z"/>
			<path class="st5" d="M550.2,286l1.2,0.1c-0.2,0.6-0.5,1.2-1,1.6s-1.2,0.6-1.9,0.6c-0.9,0.1-1.7-0.3-2.3-0.9
				c-1.2-1.6-1.2-3.7,0-5.3c0.6-0.6,1.5-0.9,2.3-0.9s1.6,0.3,2.2,0.9c0.6,0.7,1,1.7,0.9,2.6v0.3h-5.1c0,0.6,0.2,1.2,0.6,1.8
				c0.4,0.4,0.9,0.6,1.5,0.6c0.4,0,0.7-0.1,1-0.3C549.8,286.9,550.1,286.5,550.2,286z M546.4,284.3h3.8c0-1.1-0.8-2-1.9-2.1
				c-0.5-0.1-1,0.2-1.3,0.6C546.6,283.2,546.4,283.8,546.4,284.3L546.4,284.3z"/>
			<path class="st5" d="M557.2,285.8l1.2,0.1c-0.1,0.7-0.4,1.4-0.9,1.9s-1.2,0.7-1.9,0.7c-0.8,0-1.6-0.3-2.2-0.9
				c-0.6-0.7-1-1.7-0.9-2.6c0-0.6,0.1-1.3,0.3-1.9c0.3-0.6,0.6-1,1.2-1.2c0.5-0.3,1-0.5,1.6-0.4c0.6-0.1,1.3,0.2,1.8,0.6
				s0.8,1,0.9,1.6l-1.2,0.1c-0.1-0.4-0.3-0.7-0.6-1c-0.3-0.2-0.7-0.4-1-0.3c-0.6,0-1.1,0.2-1.5,0.6c-0.4,0.6-0.6,1.2-0.6,1.9
				c-0.1,0.7,0.1,1.5,0.6,2.1c0.3,0.4,0.8,0.6,1.3,0.6c0.4,0,0.9-0.1,1.2-0.4C556.9,286.8,557.1,286.3,557.2,285.8z"/>
			<path class="st5" d="M564.1,286l1.2,0.1c-0.2,0.6-0.5,1.2-1,1.6s-1.2,0.6-1.9,0.6c-0.9,0.1-1.7-0.3-2.3-0.9
				c-1.2-1.6-1.2-3.7,0-5.3c0.6-0.6,1.5-0.9,2.3-0.9s1.6,0.3,2.2,0.9c0.6,0.7,1,1.7,0.9,2.6v0.3h-5.1c0,0.6,0.2,1.2,0.6,1.8
				c0.4,0.4,0.9,0.6,1.5,0.6c0.4,0,0.7-0.1,1-0.3C563.7,286.9,563.9,286.5,564.1,286z M560.3,284.3h3.8c0-1.1-0.8-2-1.9-2.1
				c-0.5-0.1-1,0.2-1.3,0.6C560.4,283.2,560.2,283.7,560.3,284.3L560.3,284.3z"/>
			<path class="st5" d="M566.7,290.9v-9.4h1v0.9c0.3-0.3,0.6-0.5,0.9-0.7c0.4-0.2,0.8-0.3,1.2-0.3c0.5,0,1,0.1,1.5,0.4
				s0.8,0.8,1,1.3c0.2,0.6,0.3,1.2,0.3,1.8c0,0.7-0.1,1.3-0.4,1.9c-0.2,0.5-0.6,1-1,1.3s-0.9,0.4-1.5,0.4c-0.4,0-0.7-0.1-1-0.3
				c-0.3-0.1-0.6-0.3-0.7-0.6v3.4L566.7,290.9L566.7,290.9z M567.7,284.9c-0.1,0.7,0.1,1.4,0.6,1.9c0.3,0.4,0.8,0.6,1.3,0.6
				s1-0.2,1.3-0.6c0.4-0.6,0.6-1.3,0.6-2.1c0.1-0.7-0.1-1.4-0.6-1.9c-0.3-0.4-0.8-0.6-1.3-0.6c-0.5,0.1-1,0.3-1.3,0.7
				C567.9,283.5,567.7,284.2,567.7,284.9z"/>
			<path class="st5" d="M576.4,287.2l0.1,1c-0.3,0-0.6,0.1-0.9,0.1c-0.3,0-0.7,0-1-0.1s-0.4-0.3-0.4-0.6c-0.1-0.4-0.2-0.9-0.1-1.3
				v-4h-0.9v-0.9h0.9v-1.6l1.2-0.7v2.3h1.2v0.9h-1.2v4.5c0,0.1,0.1,0.1,0.1,0.3s0.3,0.1,0.4,0.1C576,287.3,576.2,287.2,576.4,287.2z
				"/>
			<path class="st5" d="M577.6,280.2v-1.3h1.2v1.3H577.6z M577.6,288.2v-6.7h1.2v6.7H577.6z"/>
			<path class="st5" d="M580.1,284.9c-0.1-1,0.3-2.1,1-2.8c0.6-0.5,1.4-0.7,2.2-0.7c0.9,0,1.7,0.3,2.3,0.9c0.6,0.7,0.9,1.6,0.9,2.5
				c0,0.7-0.1,1.4-0.4,2.1c-0.3,0.5-0.7,0.9-1.2,1.2c-0.5,0.3-1,0.5-1.6,0.4c-0.9,0-1.7-0.3-2.3-0.9
				C580.3,286.8,580,285.8,580.1,284.9z M581.2,284.9c-0.1,0.7,0.1,1.4,0.6,1.9c0.8,0.8,2.1,0.8,2.9,0c0.5-0.6,0.7-1.3,0.6-2.1
				c0.1-0.7-0.1-1.4-0.6-1.9c-0.8-0.8-2.1-0.8-2.9,0C581.4,283.4,581.2,284.1,581.2,284.9z"/>
			<path class="st5" d="M587.8,288.2v-6.7h1v1c0.5-0.8,1.3-1.2,2.2-1.2c0.4,0,0.8,0.1,1.2,0.3c0.3,0.1,0.6,0.3,0.7,0.6
				c0.2,0.3,0.3,0.6,0.3,0.9v5.4H592v-4.1c0-0.4,0-0.9-0.1-1c-0.1-0.2-0.3-0.4-0.4-0.6c-0.2-0.1-0.5-0.2-0.7-0.1
				c-0.5,0-0.9,0.2-1.3,0.4c-0.4,0.5-0.6,1.1-0.6,1.8v3.7h-1L587.8,288.2L587.8,288.2z"/>
		</g>
		<circle class="st4" cx="563.9" cy="245.6" r="28.3"/>
		<g id="Outline_Icons-2">
			<path class="st12" d="M562.9,239.2v1.8l-3.8,1.2c-0.8,0.2-1.3,0.8-1.3,1.6v0.6"/>
			<path class="st12" d="M566.3,239.2v1.8l3.8,1.2c0.8,0.2,1.3,0.8,1.3,1.6v0.6"/>
			<ellipse class="st12" cx="564.5" cy="235.8" rx="3.2" ry="4"/>
			<path class="st12" d="M567.9,235.4h-0.3c-1,0.3-2.1-0.3-2.5-1.3c-0.6,0.8-1.5,1.3-2.5,1.3c-0.5,0-0.9-0.1-1.3-0.3"/>
			<rect x="551" y="244.3" class="st12" width="25.9" height="9.1"/>
			<line class="st12" x1="554.4" y1="253.2" x2="554.4" y2="257.8"/>
			<line class="st12" x1="573.6" y1="253.2" x2="573.6" y2="257.8"/>
		</g>
	</g>
	<g id="kitchen-2">
		<circle class="st4" cx="311.2" cy="585.6" r="24.2"/>
		<path class="st5" d="M295.7,621v-8h1v7.1h3.9v0.9H295.7z"/>
		<path class="st5" d="M301.5,618.1c-0.1-0.9,0.2-1.7,0.9-2.3c0.5-0.4,1.1-0.6,1.8-0.6c0.7,0,1.4,0.3,1.9,0.8
			c0.5,0.6,0.8,1.4,0.8,2.2c0,0.6-0.1,1.2-0.4,1.8c-0.2,0.4-0.6,0.8-1,1c-1.1,0.6-2.4,0.5-3.3-0.4
			C301.7,619.9,301.5,619,301.5,618.1z M302.4,618.1c-0.1,0.6,0.1,1.2,0.5,1.7c0.3,0.3,0.7,0.5,1.2,0.5c0.5,0.1,0.9-0.1,1.2-0.5
			c0.7-1,0.7-2.3,0-3.3c-0.3-0.3-0.7-0.5-1.2-0.5c-0.5-0.1-0.9,0.1-1.2,0.5C302.5,617,302.3,617.5,302.4,618.1z"/>
		<path class="st5" d="M311.7,621v-0.9c-0.4,0.6-1.1,1-1.8,1c-0.3,0-0.6-0.1-0.9-0.3c-0.3-0.1-0.5-0.3-0.6-0.5
			c-0.2-0.2-0.3-0.5-0.3-0.8V615h1v4.2c0,0.3,0.1,0.5,0.4,0.6c0.2,0.2,0.5,0.3,0.8,0.3s0.6-0.1,0.8-0.3c0.2-0.2,0.4-0.4,0.5-0.6
			c0.1-0.4,0.2-0.8,0.1-1.2v-3.1h1v5.8h-1V621z"/>
		<path class="st5" d="M314.2,621v-5.8h0.9v0.8c0.4-0.6,1.1-1,1.8-0.9c0.3,0,0.6,0,0.9,0.1s0.5,0.3,0.6,0.5c0.2,0.2,0.3,0.5,0.3,0.8
			v4.5h-1v-3.5c0-0.3,0-0.6-0.1-0.9c-0.1-0.2-0.2-0.4-0.4-0.5c-0.2-0.1-0.4-0.1-0.6-0.1c-0.4,0-0.7,0.1-1,0.4
			c-0.4,0.4-0.5,1-0.5,1.5v3.1L314.2,621z"/>
		<path class="st5" d="M320.1,621.5l0.9,0.1c0,0.3,0.1,0.5,0.4,0.6c0.7,0.3,1.4,0.3,2.1,0c0.3-0.2,0.5-0.5,0.5-0.8s0.1-0.6,0.1-1.3
			c-0.7,0.9-1.9,1.1-2.8,0.4c-0.2-0.1-0.3-0.3-0.5-0.5c-0.4-0.6-0.6-1.4-0.6-2.1c0-0.5,0.1-1,0.3-1.5c0.2-0.4,0.5-0.8,0.9-1
			c0.4-0.3,0.8-0.4,1.3-0.4c0.7,0,1.3,0.3,1.7,0.8v-0.6h0.9v5c0,0.6-0.1,1.3-0.3,1.9c-0.2,0.4-0.5,0.7-0.9,0.9
			c-0.4,0.3-0.9,0.4-1.4,0.4c-0.6,0-1.2-0.1-1.7-0.5C320.4,622.7,320.1,622.1,320.1,621.5z M320.9,618c-0.1,0.6,0.1,1.2,0.5,1.7
			c0.3,0.4,0.7,0.6,1.2,0.5c0.4,0,0.9-0.2,1.2-0.5c0.4-0.5,0.6-1.1,0.5-1.7c0.1-0.6-0.1-1.1-0.5-1.5c-0.3-0.4-0.7-0.6-1.2-0.5
			c-0.4,0-0.9,0.2-1.2,0.5C321,616.9,320.8,617.5,320.9,618z"/>
		<path class="st5" d="M330.4,619.2l1,0.1c-0.1,0.6-0.5,1-0.9,1.4c-0.5,0.4-1.1,0.6-1.7,0.5c-0.8,0-1.5-0.2-2.1-0.8
			c-0.5-0.6-0.8-1.4-0.8-2.2s0.2-1.7,0.8-2.3c0.4-0.6,1.2-0.9,1.9-0.8c0.7,0,1.4,0.3,1.9,0.8c0.5,0.6,0.8,1.4,0.8,2.2v0.3h-4.2
			c0,0.5,0.2,1,0.5,1.4c0.3,0.3,0.7,0.5,1.2,0.5c0.3,0,0.6-0.1,0.9-0.3C330,619.9,330.3,619.6,330.4,619.2z M327.2,617.5h3.2
			c0-0.5-0.1-0.9-0.4-1c-0.3-0.3-0.7-0.5-1.2-0.5c-0.4,0-0.9,0.1-1.2,0.4C327.3,616.6,327.3,617,327.2,617.5z"/>
		<path class="st5" d="M301.6,634.3l3.1-8h1.2l3.2,8h-1.2l-0.9-2.4h-3.3l-0.9,2.4H301.6z M303.9,631h2.7l-0.8-2.2
			c-0.2-0.5-0.4-1.1-0.5-1.7c-0.1,0.5-0.3,1-0.4,1.5L303.9,631z"/>
		<path class="st5" d="M309.8,634.3v-5.8h0.9v0.9c0.2-0.3,0.4-0.5,0.6-0.8c0.2-0.2,0.4-0.3,0.6-0.3c0.4,0,0.7,0.1,1,0.3l-0.4,0.9
			c-0.3-0.1-0.5-0.2-0.8-0.3c-0.3,0-0.4,0-0.5,0.1c-0.2,0.1-0.3,0.3-0.4,0.5c-0.1,0.4-0.1,0.8-0.1,1.2v3h-1L309.8,634.3L309.8,634.3
			z"/>
		<path class="st5" d="M317.4,632.4l1,0.1c-0.1,0.6-0.4,1.1-0.9,1.4c-0.5,0.4-1.1,0.6-1.7,0.5c-0.8,0-1.5-0.2-2.1-0.8
			c-0.5-0.6-0.8-1.4-0.8-2.2s0.2-1.7,0.8-2.3c0.4-0.6,1.2-0.9,1.9-0.8c0.7,0,1.4,0.3,1.9,0.8c0.5,0.6,0.8,1.4,0.8,2.2v0.3h-4.2
			c0,0.5,0.2,1,0.5,1.4c0.3,0.3,0.7,0.5,1.2,0.5c0.3,0,0.6-0.1,0.9-0.3C317.1,633.2,317.3,632.9,317.4,632.4z M314.2,630.9h3.2
			c0-0.5-0.1-0.9-0.4-1c-0.3-0.3-0.7-0.5-1.2-0.5c-0.4,0-0.9,0.1-1.2,0.4C314.3,630,314.3,630.4,314.2,630.9z"/>
		<path class="st5" d="M323.4,633.6c-0.3,0.2-0.7,0.4-1,0.6c-0.3,0.1-0.7,0.1-1,0.1c-0.5,0.1-1.1-0.1-1.4-0.5
			c-0.4-0.3-0.6-0.7-0.5-1.2c0-0.3,0.1-0.5,0.1-0.8s0.3-0.4,0.5-0.5s0.4-0.3,0.6-0.3c0.3-0.1,0.6-0.1,0.9-0.1
			c0.6-0.1,1.2-0.2,1.8-0.4v-0.3c0-0.3-0.1-0.6-0.3-0.9c-0.3-0.3-0.8-0.4-1.2-0.4c-0.4,0-0.7,0.1-1,0.3c-0.3,0.1-0.4,0.4-0.5,0.9
			l-0.9-0.1c0.1-0.4,0.2-0.7,0.4-1c0.3-0.2,0.6-0.4,0.9-0.6c0.4-0.2,0.9-0.3,1.3-0.3c0.6-0.1,1.3,0.1,1.8,0.5
			c0.2,0.2,0.3,0.4,0.3,0.6v3.9c0,0.2,0.1,0.5,0.3,0.6L323.4,633.6C323.6,634.1,323.4,633.8,323.4,633.6z M323.3,631.4
			c-0.5,0.2-1,0.3-1.5,0.4c-0.3,0-0.6,0.1-0.9,0.3c-0.1,0.1-0.3,0.1-0.4,0.3s-0.1,0.3-0.1,0.5s0.1,0.5,0.3,0.6
			c0.3,0.2,0.6,0.3,0.9,0.3c0.4,0,0.7-0.1,1-0.3c0.3-0.1,0.5-0.3,0.6-0.6s0.2-0.7,0.1-1V631.4z"/>
		<line class="st13" x1="310.3" y1="581" x2="311.4" y2="582"/>
		<line class="st13" x1="310.3" y1="583.8" x2="311.4" y2="582.7"/>
		<line class="st13" x1="305.6" y1="593.6" x2="305.6" y2="595.5"/>
		<line class="st13" x1="317.8" y1="593.6" x2="317.8" y2="595.5"/>
		<path class="st13" d="M320.6,591.8c0,0.9-0.7,1.7-1.6,1.8h-0.1h-14.2c-1,0-1.8-0.8-1.9-1.8l0,0v-1.5c0-0.8,0.5-1.5,1.3-1.8
			c4.9-1.9,10.3-1.9,15.2,0c0.8,0.3,1.3,1,1.3,1.8L320.6,591.8z"/>
		<path class="st13" d="M320.5,589.7c1.5-0.5,2.3-2.1,1.8-3.6s-2.1-2.3-3.6-1.8s-2.3,2-1.9,3.5"/>
		<path class="st13" d="M306.5,587.8c0.4-1.5-0.4-3.1-1.9-3.5s-3.1,0.4-3.5,1.9l0,0c-0.4,1.5,0.4,3,1.8,3.5"/>
		<path class="st13" d="M319.8,584.2c1.1-4.5-1.7-9.1-6.2-10.2c-4.5-1.1-9.1,1.7-10.2,6.2l0,0c-0.3,1.3-0.3,2.6,0,3.9"/>
		<line class="st13" x1="312" y1="582.7" x2="313.2" y2="583.8"/>
		<line class="st13" x1="312" y1="582" x2="313.2" y2="581"/>
		<path class="st13" d="M312.1,582.4c0,0.3-0.2,0.5-0.4,0.5c0,0,0,0-0.1,0l0,0c-0.3,0-0.5-0.2-0.5-0.4c0,0,0,0,0-0.1l0,0
			c0-0.3,0.2-0.5,0.4-0.5c0,0,0,0,0.1,0l0,0C311.8,581.9,312.1,582.1,312.1,582.4L312.1,582.4z"/>
	</g>
	<g>
		<circle class="st4" cx="1742.3" cy="304.8" r="21.8"/>
		<path class="st14" d="M1736.3,312.4v-10.9c0-0.6,0.5-1.1,1.2-1.1h2.1c0.6,0,1.2,0.5,1.2,1.1v10.9c0,0.6-0.5,1.1-1.2,1.1h-2.1
			C1736.9,313.5,1736.3,313,1736.3,312.4z M1741.1,312.4v-10.9c0-0.6,0.5-1.1,1.1-1.1h2.1c0.6,0,1.1,0.5,1.1,1.1v10.9
			c0,0.6-0.5,1.1-1.1,1.1h-2.1C1741.7,313.5,1741.1,313,1741.1,312.4z M1749.9,313.5h-2.8c-0.6,0-1.2-0.5-1.2-1.1v-11.1
			c0-0.7-0.6-1.4-1.3-1.4h-8.4c-0.1,0-0.2,0.1-0.2,0.2l0,0v12.2c0,0.6-0.5,1.1-1.2,1.1l0,0c-0.6,0-1.2-0.5-1.2-1.1v-15
			c0-0.6,0.5-1.1,1.2-1.1h15c0.6,0,1.2,0.5,1.2,1.1v15C1751,313,1750.5,313.5,1749.9,313.5z M1751.2,295.8h-17.6
			c-0.1,0-0.2,0.1-0.2,0.2l0,0v16.5c0,0.7,0.6,1.4,1.3,1.4h16.5c0.1,0,0.2-0.1,0.2-0.2l0,0V296
			C1751.3,295.8,1751.2,295.8,1751.2,295.8z"/>
		<g class="st8">
			<path class="st9" d="M1724.3,337.8v-7.4h5.3v0.9h-4.4v2.3h4.1v0.9h-4.1v2.5h4.5v0.9H1724.3z"/>
			<path class="st9" d="M1731,337.8v-7.4h0.9v7.4H1731z"/>
			<path class="st9" d="M1737,336.1l0.9,0.1c-0.1,0.5-0.4,1-0.8,1.3c-0.4,0.3-0.9,0.5-1.5,0.5c-0.8,0-1.4-0.2-1.9-0.7
				c-0.5-0.5-0.7-1.2-0.7-2c0-0.9,0.2-1.6,0.7-2.1c0.5-0.5,1.1-0.7,1.8-0.7c0.7,0,1.3,0.2,1.8,0.7c0.5,0.5,0.7,1.2,0.7,2.1
				c0,0.1,0,0.1,0,0.2h-4c0,0.6,0.2,1,0.5,1.3c0.3,0.3,0.7,0.5,1.1,0.5c0.3,0,0.6-0.1,0.9-0.3C1736.7,336.7,1736.9,336.5,1737,336.1
				z M1734,334.6h3c0-0.5-0.2-0.8-0.3-1c-0.3-0.3-0.7-0.5-1.1-0.5c-0.4,0-0.8,0.1-1,0.4C1734.2,333.8,1734.1,334.1,1734,334.6z"/>
			<path class="st9" d="M1740.6,337.8l-2-5.3h1l1.1,3.2c0.1,0.3,0.2,0.7,0.3,1.1c0.1-0.3,0.2-0.6,0.3-1l1.2-3.3h0.9l-2,5.3H1740.6z"
				/>
			<path class="st9" d="M1747.7,337.1c-0.3,0.3-0.7,0.5-1,0.6c-0.3,0.1-0.6,0.2-1,0.2c-0.6,0-1-0.1-1.4-0.4s-0.5-0.7-0.5-1.1
				c0-0.3,0.1-0.5,0.2-0.7c0.1-0.2,0.3-0.4,0.5-0.5c0.2-0.1,0.4-0.2,0.7-0.3c0.2,0,0.4-0.1,0.8-0.1c0.7-0.1,1.3-0.2,1.6-0.3
				c0-0.1,0-0.2,0-0.2c0-0.4-0.1-0.6-0.3-0.8c-0.2-0.2-0.6-0.3-1-0.3c-0.4,0-0.7,0.1-0.9,0.2s-0.4,0.4-0.5,0.8l-0.9-0.1
				c0.1-0.4,0.2-0.7,0.4-0.9s0.5-0.4,0.8-0.5c0.3-0.1,0.8-0.2,1.2-0.2c0.5,0,0.8,0.1,1.1,0.2s0.5,0.2,0.6,0.4
				c0.1,0.2,0.2,0.4,0.3,0.6c0,0.2,0,0.4,0,0.8v1.2c0,0.8,0,1.4,0.1,1.6c0,0.2,0.1,0.4,0.2,0.6h-0.9
				C1747.8,337.6,1747.7,337.4,1747.7,337.1z M1747.6,335.1c-0.3,0.1-0.8,0.2-1.5,0.3c-0.4,0.1-0.6,0.1-0.8,0.2
				c-0.2,0.1-0.3,0.2-0.4,0.3s-0.1,0.3-0.1,0.4c0,0.2,0.1,0.4,0.3,0.6s0.5,0.2,0.8,0.2c0.3,0,0.7-0.1,0.9-0.2
				c0.3-0.2,0.5-0.4,0.6-0.6c0.1-0.2,0.1-0.5,0.1-0.9V335.1z"/>
			<path class="st9" d="M1751.9,337l0.1,0.8c-0.3,0.1-0.5,0.1-0.7,0.1c-0.3,0-0.6-0.1-0.8-0.2c-0.2-0.1-0.3-0.2-0.4-0.4
				c-0.1-0.2-0.1-0.5-0.1-1.1v-3.1h-0.7v-0.7h0.7v-1.3l0.9-0.5v1.9h0.9v0.7h-0.9v3.1c0,0.3,0,0.4,0,0.5c0,0.1,0.1,0.1,0.2,0.2
				c0.1,0,0.2,0.1,0.3,0.1C1751.6,337,1751.8,337,1751.9,337z"/>
			<path class="st9" d="M1752.5,335.1c0-1,0.3-1.7,0.8-2.2c0.5-0.4,1-0.6,1.7-0.6c0.7,0,1.3,0.2,1.8,0.7s0.7,1.1,0.7,2
				c0,0.7-0.1,1.2-0.3,1.6c-0.2,0.4-0.5,0.7-0.9,0.9c-0.4,0.2-0.8,0.3-1.3,0.3c-0.7,0-1.4-0.2-1.8-0.7
				C1752.7,336.7,1752.5,336,1752.5,335.1z M1753.4,335.1c0,0.7,0.1,1.2,0.4,1.5c0.3,0.3,0.7,0.5,1.1,0.5c0.5,0,0.8-0.2,1.1-0.5
				c0.3-0.3,0.4-0.9,0.4-1.6c0-0.7-0.2-1.2-0.5-1.5c-0.3-0.3-0.7-0.5-1.1-0.5c-0.5,0-0.8,0.2-1.1,0.5S1753.4,334.4,1753.4,335.1z"/>
			<path class="st9" d="M1758.6,337.8v-5.3h0.8v0.8c0.2-0.4,0.4-0.6,0.6-0.8c0.2-0.1,0.4-0.2,0.6-0.2c0.3,0,0.6,0.1,0.9,0.3
				l-0.3,0.8c-0.2-0.1-0.4-0.2-0.7-0.2c-0.2,0-0.4,0.1-0.5,0.2s-0.3,0.3-0.3,0.5c-0.1,0.3-0.2,0.7-0.2,1.1v2.8H1758.6z"/>
		</g>
	</g>
</g>
<g id="bookable">
	<polygon id="area-01.1.05-status" class="st15" points="78.3,65 392.7,75.7 418.9,276.4 109,312.6 	"/>
	<polygon id="area-01.1.04-status" class="st15" points="418.9,276.4 443.9,517.6 138.4,550.1 108.9,308.7 	"/>
	<polygon id="area-01.1.02-status" class="st15" points="154.7,681.1 458.5,639.4 466.6,739 166.7,778.2 	"/>
	<rect id="area-01.1.11-status" x="948.8" y="130.1" class="st15" width="166.4" height="251.1"/>
	<rect id="area-01.1.12-status" x="1113" y="189.2" class="st15" width="247.9" height="194.3"/>
	<polygon id="area-01.1.10-status" class="st15" points="722.3,178.6 950.2,178.6 950.2,381.2 733.2,381.2 733.2,355.5 722.3,355.5 
			"/>
	<g class="st8">
		<path class="st16" d="M1241.8,281.2v-1.4h3.7v3.4c-0.4,0.4-0.9,0.7-1.6,0.9s-1.4,0.4-2.1,0.4c-0.9,0-1.7-0.2-2.3-0.6
			s-1.2-0.9-1.5-1.6s-0.5-1.5-0.5-2.3c0-0.9,0.2-1.7,0.6-2.4s0.9-1.2,1.6-1.6c0.6-0.3,1.2-0.4,2.1-0.4c1.1,0,1.9,0.2,2.5,0.7
			s1,1.1,1.2,1.9l-1.7,0.3c-0.1-0.4-0.3-0.8-0.7-1s-0.8-0.4-1.3-0.4c-0.8,0-1.4,0.2-1.8,0.7s-0.7,1.2-0.7,2.1c0,1,0.2,1.8,0.7,2.3
			s1,0.8,1.8,0.8c0.4,0,0.7-0.1,1.1-0.2s0.7-0.3,0.9-0.5v-1.1L1241.8,281.2L1241.8,281.2z"/>
		<path class="st16" d="M1250.8,282.3l1.6,0.3c-0.2,0.6-0.5,1.1-1,1.4s-1,0.5-1.7,0.5c-1.1,0-1.9-0.4-2.4-1.1
			c-0.4-0.6-0.6-1.3-0.6-2.1c0-1,0.3-1.8,0.8-2.4s1.2-0.9,2-0.9c0.9,0,1.7,0.3,2.2,0.9s0.8,1.5,0.8,2.8h-4.1c0,0.5,0.1,0.9,0.4,1.1
			s0.6,0.4,0.9,0.4s0.5-0.1,0.7-0.2S1250.7,282.7,1250.8,282.3z M1250.9,280.7c0-0.5-0.1-0.8-0.4-1.1s-0.5-0.4-0.9-0.4
			s-0.7,0.1-0.9,0.4s-0.3,0.6-0.3,1.1H1250.9z"/>
		<path class="st16" d="M1253.1,278.1h0.9v-0.5c0-0.5,0.1-0.9,0.2-1.2s0.3-0.5,0.6-0.6s0.7-0.2,1.1-0.2c0.5,0,0.9,0.1,1.4,0.2
			l-0.2,1.1c-0.3-0.1-0.5-0.1-0.8-0.1c-0.2,0-0.4,0.1-0.5,0.2s-0.2,0.3-0.2,0.6v0.4h1.2v1.3h-1.2v4.9h-1.6v-4.9h-0.9V278.1z"/>
		<path class="st16" d="M1257.8,277.3v-1.5h1.6v1.5H1257.8z M1257.8,284.3v-6.2h1.6v6.2H1257.8z"/>
		<path class="st16" d="M1260.8,281.1c0-0.5,0.1-1.1,0.4-1.6s0.7-0.9,1.1-1.2s1-0.4,1.7-0.4c0.9,0,1.7,0.3,2.3,0.9s0.9,1.4,0.9,2.3
			s-0.3,1.7-0.9,2.3s-1.4,0.9-2.3,0.9c-0.6,0-1.1-0.1-1.6-0.4s-0.9-0.6-1.2-1.1S1260.8,281.8,1260.8,281.1z M1262.5,281.2
			c0,0.6,0.1,1.1,0.4,1.4s0.7,0.5,1.1,0.5s0.8-0.2,1.1-0.5s0.4-0.8,0.4-1.4s-0.1-1.1-0.4-1.4s-0.7-0.5-1.1-0.5s-0.8,0.2-1.1,0.5
			S1262.5,280.6,1262.5,281.2z"/>
		<path class="st16" d="M1274.2,284.3h-1.6v-3.2c0-0.7,0-1.1-0.1-1.3s-0.2-0.4-0.3-0.5s-0.3-0.2-0.6-0.2c-0.3,0-0.5,0.1-0.8,0.2
			s-0.4,0.4-0.5,0.6s-0.1,0.7-0.1,1.4v2.8h-1.6v-6.2h1.5v0.9c0.5-0.7,1.2-1.1,2.1-1.1c0.4,0,0.7,0.1,1,0.2s0.5,0.3,0.7,0.5
			s0.3,0.4,0.3,0.7s0.1,0.6,0.1,1.1L1274.2,284.3L1274.2,284.3z"/>
	</g>
	<g class="st8">
		<path class="st16" d="M1013.8,268.9v-8.5h1.7v7.1h4.3v1.4H1013.8z"/>
		<path class="st16" d="M1020.7,265.7c0-0.5,0.1-1.1,0.4-1.6s0.7-0.9,1.1-1.2s1-0.4,1.7-0.4c0.9,0,1.7,0.3,2.3,0.9s0.9,1.4,0.9,2.3
			s-0.3,1.7-0.9,2.3s-1.4,0.9-2.3,0.9c-0.6,0-1.1-0.1-1.6-0.4s-0.9-0.6-1.2-1.1S1020.7,266.4,1020.7,265.7z M1022.4,265.8
			c0,0.6,0.1,1.1,0.4,1.4s0.7,0.5,1.1,0.5c0.4,0,0.8-0.2,1.1-0.5s0.4-0.8,0.4-1.4s-0.1-1.1-0.4-1.4s-0.7-0.5-1.1-0.5
			s-0.8,0.2-1.1,0.5S1022.4,265.1,1022.4,265.8z"/>
		<path class="st16" d="M1028.4,268.9v-8.6h1.6v4.6l1.9-2.2h2l-2.1,2.3l2.3,3.9h-1.8l-1.6-2.8l-0.8,0.8v2L1028.4,268.9L1028.4,268.9
			z"/>
		<path class="st16" d="M1038.7,266.9l1.6,0.3c-0.2,0.6-0.5,1.1-1,1.4s-1,0.5-1.7,0.5c-1.1,0-1.9-0.4-2.4-1.1
			c-0.4-0.6-0.6-1.3-0.6-2.1c0-1,0.3-1.8,0.8-2.4s1.2-0.9,2-0.9c0.9,0,1.7,0.3,2.2,0.9s0.8,1.5,0.8,2.8h-4.1c0,0.5,0.1,0.9,0.4,1.1
			s0.6,0.4,0.9,0.4s0.5-0.1,0.7-0.2S1038.6,267.2,1038.7,266.9z M1038.8,265.2c0-0.5-0.1-0.8-0.4-1.1s-0.5-0.4-0.9-0.4
			s-0.7,0.1-0.9,0.4s-0.3,0.6-0.3,1.1H1038.8z"/>
	</g>
	<g class="st8">
		<path class="st16" d="M812.5,268.9v-8.6h1.7v3.4h3.4v-3.4h1.7v8.6h-1.7v-3.8h-3.4v3.8H812.5z"/>
		<path class="st16" d="M824.7,266.9l1.6,0.3c-0.2,0.6-0.5,1.1-1,1.4s-1,0.5-1.7,0.5c-1.1,0-1.9-0.4-2.4-1.1
			c-0.4-0.6-0.6-1.3-0.6-2.1c0-1,0.3-1.8,0.8-2.4s1.2-0.9,2-0.9c0.9,0,1.7,0.3,2.2,0.9s0.8,1.5,0.8,2.8h-4.1c0,0.5,0.1,0.9,0.4,1.1
			s0.6,0.4,0.9,0.4c0.3,0,0.5-0.1,0.7-0.2S824.6,267.2,824.7,266.9z M824.8,265.2c0-0.5-0.1-0.8-0.4-1.1s-0.5-0.4-0.9-0.4
			s-0.7,0.1-0.9,0.4s-0.3,0.6-0.3,1.1H824.8z"/>
		<path class="st16" d="M827.8,261.8v-1.5h1.6v1.5H827.8z M827.8,268.9v-6.2h1.6v6.2H827.8z"/>
		<path class="st16" d="M831,262.6h1.5v0.8c0.5-0.7,1.2-1,1.9-1c0.4,0,0.7,0.1,1,0.2s0.5,0.4,0.7,0.7c0.3-0.3,0.6-0.6,0.9-0.7
			s0.7-0.2,1-0.2c0.5,0,0.8,0.1,1.2,0.3s0.6,0.5,0.7,0.8c0.1,0.3,0.2,0.7,0.2,1.3v4h-1.6v-3.6c0-0.6-0.1-1-0.2-1.2
			c-0.2-0.2-0.4-0.4-0.7-0.4c-0.2,0-0.4,0.1-0.7,0.2s-0.3,0.3-0.4,0.6s-0.1,0.7-0.1,1.3v3h-1.6v-3.4c0-0.6,0-1-0.1-1.2
			s-0.1-0.3-0.3-0.4s-0.3-0.1-0.5-0.1c-0.3,0-0.5,0.1-0.7,0.2s-0.3,0.3-0.4,0.6s-0.1,0.7-0.1,1.3v3H831V262.6z"/>
		<path class="st16" d="M847.5,268.9H846V268c-0.3,0.4-0.6,0.6-0.9,0.8s-0.7,0.3-1,0.3c-0.7,0-1.3-0.3-1.8-0.9s-0.8-1.4-0.8-2.4
			c0-1.1,0.2-1.9,0.7-2.4s1.1-0.8,1.9-0.8c0.7,0,1.3,0.3,1.8,0.9v-3.1h1.6V268.9z M843.1,265.6c0,0.7,0.1,1.1,0.3,1.4
			c0.3,0.4,0.6,0.6,1.1,0.6c0.4,0,0.7-0.2,1-0.5s0.4-0.8,0.4-1.4c0-0.7-0.1-1.2-0.4-1.5s-0.6-0.5-1-0.5s-0.7,0.2-1,0.5
			S843.1,265,843.1,265.6z"/>
		<path class="st16" d="M850.3,264.5l-1.5-0.3c0.2-0.6,0.5-1,0.9-1.3s1-0.4,1.8-0.4c0.7,0,1.3,0.1,1.6,0.3s0.6,0.4,0.8,0.7
			s0.2,0.8,0.2,1.5v1.9c0,0.5,0,1,0.1,1.2s0.2,0.5,0.3,0.8h-1.6c0-0.1-0.1-0.3-0.2-0.5c0-0.1,0-0.2-0.1-0.2
			c-0.3,0.3-0.6,0.5-0.9,0.6s-0.7,0.2-1,0.2c-0.6,0-1.1-0.2-1.5-0.5s-0.6-0.8-0.6-1.3c0-0.4,0.1-0.7,0.3-0.9s0.4-0.5,0.7-0.6
			s0.7-0.3,1.3-0.4c0.8-0.1,1.3-0.3,1.6-0.4v-0.2c0-0.3-0.1-0.5-0.2-0.7s-0.5-0.2-0.9-0.2c-0.3,0-0.5,0.1-0.7,0.2
			S850.4,264.3,850.3,264.5z M852.5,265.9c-0.2,0.1-0.5,0.2-1,0.3s-0.8,0.2-0.9,0.3c-0.2,0.2-0.3,0.3-0.3,0.6c0,0.2,0.1,0.4,0.3,0.6
			s0.4,0.3,0.7,0.3s0.6-0.1,0.8-0.3c0.2-0.1,0.3-0.3,0.4-0.5c0-0.1,0.1-0.4,0.1-0.8L852.5,265.9L852.5,265.9z"/>
		<path class="st16" d="M855.8,268.9v-8.6h1.6v8.6H855.8z"/>
	</g>
	<g class="st8">
		<path class="st16" d="M232.5,192.7v-7.1H230v-1.5h6.8v1.5h-2.5v7.1H232.5z"/>
		<path class="st16" d="M239.5,184.1v3.2c0.5-0.6,1.2-0.9,1.9-0.9c0.4,0,0.7,0.1,1,0.2s0.5,0.3,0.7,0.5s0.3,0.5,0.3,0.7
			s0.1,0.7,0.1,1.2v3.7h-1.6v-3.3c0-0.7,0-1.1-0.1-1.2s-0.2-0.3-0.3-0.4s-0.4-0.2-0.6-0.2c-0.3,0-0.5,0.1-0.7,0.2s-0.4,0.3-0.5,0.6
			s-0.1,0.7-0.1,1.2v3.1H238v-8.6H239.5z"/>
		<path class="st16" d="M244.8,189.5c0-0.5,0.1-1.1,0.4-1.6s0.7-0.9,1.1-1.2s1-0.4,1.7-0.4c0.9,0,1.7,0.3,2.3,0.9s0.9,1.4,0.9,2.3
			c0,0.9-0.3,1.7-0.9,2.3s-1.4,0.9-2.3,0.9c-0.6,0-1.1-0.1-1.6-0.4s-0.9-0.6-1.2-1.1S244.8,190.2,244.8,189.5z M246.5,189.5
			c0,0.6,0.1,1.1,0.4,1.4s0.7,0.5,1.1,0.5s0.8-0.2,1.1-0.5s0.4-0.8,0.4-1.4c0-0.6-0.1-1.1-0.4-1.4s-0.7-0.5-1.1-0.5
			s-0.8,0.2-1.1,0.5S246.5,188.9,246.5,189.5z"/>
		<path class="st16" d="M254.1,192.7h-1.6v-6.2h1.5v0.9c0.3-0.4,0.5-0.7,0.7-0.8s0.4-0.2,0.7-0.2c0.4,0,0.7,0.1,1.1,0.3L256,188
			c-0.3-0.2-0.5-0.3-0.8-0.3c-0.2,0-0.4,0.1-0.6,0.2s-0.3,0.4-0.4,0.7s-0.1,1-0.1,2.1L254.1,192.7L254.1,192.7z"/>
	</g>
	<g class="st8">
		<path class="st16" d="M275,409.5v-8.6h5.9v1.5h-4.2v2h3.6v1.5h-3.6v3.7H275V409.5z"/>
		<path class="st16" d="M283.9,409.5h-1.6v-6.2h1.5v0.9c0.3-0.4,0.5-0.7,0.7-0.8s0.4-0.2,0.7-0.2c0.4,0,0.7,0.1,1.1,0.3l-0.5,1.4
			c-0.3-0.2-0.5-0.3-0.8-0.3c-0.2,0-0.4,0.1-0.6,0.2s-0.3,0.4-0.4,0.7s-0.1,1-0.1,2.1L283.9,409.5L283.9,409.5z"/>
		<path class="st16" d="M290.6,407.6l1.6,0.3c-0.2,0.6-0.5,1.1-1,1.4s-1,0.5-1.7,0.5c-1.1,0-1.9-0.4-2.4-1.1
			c-0.4-0.6-0.6-1.3-0.6-2.1c0-1,0.3-1.8,0.8-2.4s1.2-0.9,2-0.9c0.9,0,1.7,0.3,2.2,0.9s0.8,1.5,0.8,2.8h-4.1c0,0.5,0.1,0.9,0.4,1.1
			s0.6,0.4,0.9,0.4s0.5-0.1,0.7-0.2S290.5,407.9,290.6,407.6z M290.7,405.9c0-0.5-0.1-0.8-0.4-1.1s-0.5-0.4-0.9-0.4
			s-0.7,0.1-0.9,0.4s-0.3,0.6-0.3,1.1H290.7z"/>
		<path class="st16" d="M295.3,403.3v6c0,0.8-0.1,1.4-0.2,1.7s-0.3,0.6-0.6,0.8s-0.7,0.3-1.1,0.3c-0.2,0-0.3,0-0.5,0
			s-0.4-0.1-0.6-0.1l0.3-1.4c0.1,0,0.2,0,0.2,0s0.1,0,0.2,0c0.2,0,0.3,0,0.4-0.1s0.2-0.2,0.2-0.3s0.1-0.4,0.1-0.9v-5.9h1.6V403.3z
			 M293.7,402.5V401h1.6v1.5H293.7z"/>
		<path class="st16" d="M298.3,405.2l-1.5-0.3c0.2-0.6,0.5-1,0.9-1.3s1-0.4,1.8-0.4c0.7,0,1.3,0.1,1.6,0.3s0.6,0.4,0.8,0.7
			s0.2,0.8,0.2,1.5v1.9c0,0.5,0,1,0.1,1.2s0.2,0.5,0.3,0.8h-1.6c0-0.1-0.1-0.3-0.2-0.5c0-0.1,0-0.2-0.1-0.2
			c-0.3,0.3-0.6,0.5-0.9,0.6s-0.7,0.2-1,0.2c-0.6,0-1.1-0.2-1.5-0.5s-0.6-0.8-0.6-1.3c0-0.4,0.1-0.7,0.3-0.9s0.4-0.5,0.7-0.6
			s0.7-0.3,1.3-0.4c0.8-0.1,1.3-0.3,1.6-0.4v-0.2c0-0.3-0.1-0.5-0.2-0.7s-0.5-0.2-0.9-0.2c-0.3,0-0.5,0.1-0.7,0.2
			S298.4,404.9,298.3,405.2z M300.5,406.5c-0.2,0.1-0.5,0.2-1,0.3s-0.8,0.2-0.9,0.3c-0.2,0.2-0.3,0.3-0.3,0.6c0,0.2,0.1,0.4,0.3,0.6
			s0.4,0.3,0.7,0.3c0.3,0,0.6-0.1,0.8-0.3c0.2-0.1,0.3-0.3,0.4-0.5c0-0.1,0.1-0.4,0.1-0.8v-0.5H300.5z"/>
	</g>
	<g class="st8">
		<path class="st16" d="M311.2,714.1c0-0.9,0.1-1.6,0.4-2.2c0.2-0.4,0.5-0.8,0.8-1.2s0.7-0.6,1.1-0.8c0.5-0.2,1.2-0.3,1.9-0.3
			c1.3,0,2.3,0.4,3,1.2s1.1,1.9,1.1,3.3c0,1.4-0.4,2.5-1.1,3.3s-1.8,1.2-3,1.2c-1.3,0-2.3-0.4-3-1.2S311.2,715.4,311.2,714.1z
			 M313,714c0,1,0.2,1.7,0.7,2.2s1,0.8,1.7,0.8s1.3-0.2,1.7-0.7s0.7-1.2,0.7-2.2s-0.2-1.7-0.6-2.2s-1-0.7-1.7-0.7s-1.3,0.2-1.7,0.7
			S313,713,313,714z"/>
		<path class="st16" d="M326.6,718.3H325v-0.9c-0.3,0.4-0.6,0.6-0.9,0.8s-0.7,0.3-1,0.3c-0.7,0-1.3-0.3-1.8-0.9s-0.8-1.4-0.8-2.4
			c0-1.1,0.2-1.9,0.7-2.4s1.1-0.8,1.9-0.8c0.7,0,1.3,0.3,1.8,0.9v-3.1h1.6L326.6,718.3L326.6,718.3z M322.2,715.1
			c0,0.7,0.1,1.1,0.3,1.4c0.3,0.4,0.6,0.6,1.1,0.6c0.4,0,0.7-0.2,1-0.5s0.4-0.8,0.4-1.4c0-0.7-0.1-1.2-0.4-1.5s-0.6-0.5-1-0.5
			s-0.7,0.2-1,0.5S322.2,714.4,322.2,715.1z"/>
		<path class="st16" d="M328.2,711.2v-1.5h1.6v1.5H328.2z M328.2,718.3v-6.2h1.6v6.2H328.2z"/>
		<path class="st16" d="M337.2,718.3h-1.6v-3.2c0-0.7,0-1.1-0.1-1.3s-0.2-0.4-0.3-0.5s-0.3-0.2-0.6-0.2c-0.3,0-0.5,0.1-0.8,0.2
			s-0.4,0.4-0.5,0.6s-0.1,0.7-0.1,1.4v2.8h-1.6v-6.2h1.5v0.9c0.5-0.7,1.2-1.1,2.1-1.1c0.4,0,0.7,0.1,1,0.2s0.5,0.3,0.7,0.5
			s0.3,0.4,0.3,0.7s0.1,0.6,0.1,1.1v4.1H337.2z"/>
	</g>
</g>
<g id="outline">
	<polygon class="st17" points="78.3,65 2197.4,65 2197.4,643.1 1470.1,680.4 1457,918.9 1286.8,928.3 1286.8,916.1 947.3,933.9 
		945.5,866.5 787.4,853.4 183.3,920.8 178.6,891.8 199.2,889 188.9,794.5 169.2,798.3 	"/>
	<line class="st18" x1="108.7" y1="310.3" x2="278.6" y2="292.3"/>
	<polyline class="st18" points="324.5,285.8 418.9,276.4 418.9,261.4 436.7,455 	"/>
	<path class="st18" d="M392.7,65l18.7,148.7h7.5c0,0-6.3-51.5,26.2-91.5c0,0-8.1-31.3,15.8-38.8s30.6,5.4,30.6,5.4
		s59.7-16.7,111.4,13.8"/>
	<polyline class="st18" points="306.4,531.6 138.4,550.1 154.7,681.1 321,658.3 	"/>
	<polyline class="st18" points="353.5,526.2 443.9,517.6 441.7,499.5 448.7,553.8 	"/>
	<polyline class="st18" points="368.6,650.7 458.5,639.4 454.7,596.1 466.6,739 166.7,778.2 492.1,736.3 	"/>
	<path class="st18" d="M497.5,426.1l-63.2,2.6l-3.7-40.6h55.5l16.8-18.4c0,0-70.4-67.2-76.3-108.3H419l0.5,5.9"/>
	<path class="st18" d="M685.6,130.1h-44.7c0,0,52.2,46.3,67.2,96.8h14.2v-96.8h10.9"/>
	<polyline class="st18" points="580,92.1 580,65 1376,65 1376,82.6 	"/>
	<polyline class="st18" points="1376,122.6 1376,130.6 1360.9,130.6 1360.9,119.3 1360.9,141 	"/>
	<polyline class="st18" points="1376,130.6 1475.7,130.6 1441.1,130.6 1441.1,383.5 1408.9,383.5 1807.5,383.5 1807.5,65 
		1807.5,659 	"/>
	<polyline class="st18" points="1504.5,129.7 1561.7,129.7 1561.7,116.4 1561.7,383.5 1710.3,383.5 1710.3,122.2 1666,122.2 
		1666,176.9 1613.5,176.9 	"/>
	<line class="st18" x1="1668.1" y1="86.7" x2="1668.1" y2="65"/>
	<polyline class="st18" points="1583,176.1 1561.7,176.1 1561.7,291.7 1579.6,291.7 	"/>
	<polyline class="st18" points="1611.8,291.7 1710.3,291.7 1710.3,245.3 1773.3,245.3 1773.3,355.5 	"/>
	<polyline class="st18" points="1317.5,190.1 1360.9,190.1 1360.9,164.1 1360.9,383.5 1368.4,383.5 1287.9,383.5 1190.3,383.5 
		1190.3,457.4 1263.1,457.4 1263.1,575.4 993.9,575.4 993.9,559.4 959.5,559.4 959.5,575.4 896.3,575.4 896.3,581 810.3,581 
		824.7,700.6 696.3,715 689.9,661.4 657.4,665.4 	"/>
	<line class="st18" x1="682.3" y1="835.4" x2="685.9" y2="864.8"/>
	<line class="st18" x1="645" y1="572.3" x2="700.9" y2="567.1"/>
	<polyline class="st18" points="625.2,423.9 645,421.9 727.2,381.2 810.4,381.2 810.4,497.1 896.6,497.1 896.6,505.1 906.3,505.1 
		906.3,410.5 1096.5,410.5 1096.5,381.2 786.7,381.2 	"/>
	<polyline class="st18" points="1096.5,410.5 1096.5,457.6 1198.8,457.6 	"/>
	<polyline class="st18" points="948.8,277.2 948.8,381.2 1127.5,381.2 1115.2,381.2 1115.2,280.2 	"/>
	<polyline class="st18" points="948.8,231.8 948.8,113.4 948.8,130.1 1007.8,130.1 	"/>
	<polyline class="st18" points="1054.9,130.1 1234.4,130.1 1234.4,113.4 1234.4,188.9 1285.8,188.9 1113,188.9 1113,172.6 
		1113,231.8 	"/>
	<line class="st18" x1="1111.3" y1="141" x2="1111.3" y2="130.1"/>
	<line class="st18" x1="1469.8" y1="130.1" x2="1469.8" y2="63"/>
	<polyline class="st18" points="722.3,178.6 948.8,178.6 811.5,178.6 811.5,122.3 811.5,130.1 764.5,130.1 	"/>
	<path class="st18" d="M733.2,381.2v-26.3h-10.9V281H716c0,0,9.8,71.1-42.1,109.4s-130.3,5.3-130.3,5.3v8.2l22.1,6.9l-0.4,13.1"/>
	<polyline class="st18" points="1466.8,689.3 1281.4,689.3 1281.4,767.2 1466.8,767.2 	"/>
	<line class="st18" x1="1281.4" y1="767.2" x2="1281.4" y2="787.4"/>
	<polyline class="st18" points="1281.4,813.3 1281.4,854.5 1270.7,854.5 	"/>
	<line class="st18" x1="945.5" y1="866.5" x2="963.2" y2="866.5"/>
	<polyline class="st18" points="1044.8,866.5 1081.5,866.5 1063.1,866.5 1063.1,927.4 1178.4,921.8 1178.4,860.2 1158.7,860.2 
		1192.8,860.2 	"/>
	<polyline class="st18" points="545.7,731.4 663.7,714.6 668.6,749.3 625.2,423.9 545.7,423.9 	"/>
	<line class="st18" x1="637.9" y1="519.2" x2="516.2" y2="534.6"/>
	<line class="st18" x1="1441.1" y1="222.9" x2="1398.2" y2="222.9"/>
</g>
</svg>
