<svg id="Layer_1" data-name="Layer 1" xmlns="http://www.w3.org/2000/svg" viewBox="0 0 53.704 53.704"><defs><style>.cls-1{fill:#46d3bd;}.cls-2{fill:#fff;}.cls-3{fill:#e86487;}.cls-4{fill:#abdcd7;}</style></defs><title>Book a phone booth</title><g id="Artboard_1" data-name="Artboard 1"><g id="talkingyou_kr-prime1" data-name="talkingyou kr-prime1"><path id="Path_18875" data-name="Path 18875" class="cls-1" d="M26.855,0a26.825,26.825,0,1,1-.061,0Z"/><path id="Path_18876" data-name="Path 18876" class="cls-2" d="M33.568,10.909a9.2,9.2,0,1,0,.06,0Z"/><path id="Path_18877" data-name="Path 18877" class="cls-3" d="M32.9,36.082l-3.524-3.524-3.189,3.1-7.972-7.972,3.1-3.189L17.7,20.889c-1.175-1.175-1.93-2.433-3.357-1.594L13,20.386a7.362,7.362,0,0,0-1.511,8.391,8.086,8.086,0,0,0,1.175,1.678L22.989,40.776a7.4,7.4,0,0,0,10.4,0l1.091-1.259C35.414,38.012,34.155,37.341,32.9,36.082Z"/><path id="Path_18878" data-name="Path 18878" class="cls-4" d="M32.729,19.3V13.426h1.678v7.552H29.369V19.3Z"/></g></g></svg>