<svg id="Layer_1" data-name="Layer 1" xmlns="http://www.w3.org/2000/svg" viewBox="0 0 102.4 102.401"><defs><style>.cls-1{fill:#e86487;}.cls-2{fill:#e96285;}.cls-3{fill:#fbbf56;}.cls-4{fill:#fff;}.cls-5{fill:#f5cbd6;}.cls-6{fill:#96ca5d;}.cls-7{fill:none;}</style></defs><title>Booking confirmed</title><g id="Artboard_1" data-name="Artboard 1"><g id="Group_2717" data-name="Group 2717"><g id="committee_composition-prime1-2" data-name="committee composition-prime1-2"><path id="Path_18854-2" data-name="Path 18854-2" class="cls-1" d="M102.4,51.2A51.2,51.2,0,1,1,51.2,0a51.2,51.2,0,0,1,51.2,51.2Z"/><path id="Path_18855-2" data-name="Path 18855-2" class="cls-2" d="M25.92,40.481h8.16v4.96H25.92Z"/><path id="Path_18856-2" data-name="Path 18856-2" class="cls-3" d="M20.64,66.561V52a9.76,9.76,0,1,1,19.52-.021V66.561Zm64.161,0V52a9.76,9.76,0,1,0-19.52-.021V66.561Zm-22.56-4.32V47.681a9.76,9.76,0,1,0-19.52-.021V62.241Z"/><path id="Path_18857-2" data-name="Path 18857-2" class="cls-4" d="M35.844,36.321a5.922,5.922,0,1,1-2.96-5.128A5.92,5.92,0,0,1,35.844,36.321ZM58.244,32a5.921,5.921,0,1,1-5.92-5.922A5.921,5.921,0,0,1,58.244,32Zm22.88,4.32A5.921,5.921,0,1,1,75.2,30.4,5.921,5.921,0,0,1,81.124,36.321Z"/><path id="Path_18858-2" data-name="Path 18858-2" class="cls-3" d="M84.964,63.521c-4.64-3.2-17.6-5.6-32.64-5.6-15.2,0-28,2.4-32.641,5.6H17.6v2.72c0,4.64,15.52,8.32,34.561,8.32s34.56-3.68,34.56-8.32v-2.72Z"/><path id="Path_18859-2" data-name="Path 18859-2" class="cls-4" d="M86.884,63.521c0,4.6-15.474,8.32-34.56,8.32S17.76,68.116,17.76,63.521,33.234,55.2,52.321,55.2,86.884,58.926,86.884,63.521Z"/><path id="Path_18860-2" data-name="Path 18860-2" class="cls-5" d="M54.083,28.48s-1.92,2.4-7.52,2.4a5.819,5.819,0,0,1,5.76-4.8s4.32-.48,5.92,4.8A4.834,4.834,0,0,1,54.083,28.48Zm15.84,5.12,5.92,1.44-1.12-1.44,4,1.44-.8-1.44,3.04,2.08A5.807,5.807,0,0,0,75.2,30.4c0,.16-3.519-.16-5.279,3.2Zm-40-3.68A5.906,5.906,0,0,0,24,35.812V45.6h2.24V35.2h7.2V45.44h2.24V35.68a5.638,5.638,0,0,0-5.513-5.76C30.087,29.918,30.005,29.918,29.923,29.92Z"/><path id="Path_18861-2" data-name="Path 18861-2" class="cls-1" d="M53.761,42.561h-2.4l-.32-2.08h3.04Zm0,.8h-2.4l-.64,8.16,1.92,1.44,1.76-1.44ZM31.2,47.681a1.12,1.12,0,1,1-1.162-1.076h.042A1.124,1.124,0,0,1,31.2,47.681Zm0,5.12a1.12,1.12,0,1,1-1.162-1.076h.042A1.124,1.124,0,0,1,31.2,52.8Zm43.361-8.16h1.76v10.72H74.561Z"/></g><path id="Checkbox" class="cls-6" d="M49.345,70.571l-7.684-7.684,1.823-1.823,5.861,5.73L59.894,56.245l1.823,1.823Z"/><g id="Path_18930" data-name="Path 18930"><path class="cls-7" d="M51.2,0A51.1,51.1,0,1,1,.1,51.1h0A51.1,51.1,0,0,1,51.2,0Z"/><path class="cls-6" d="M51.2,5A46.116,46.116,0,0,0,33.256,93.585,46.116,46.116,0,0,0,69.144,8.621,45.807,45.807,0,0,0,51.2,5m0-5A51.1,51.1,0,1,1,.1,51.1,51.1,51.1,0,0,1,51.2,0Z"/></g></g></g></svg>