<svg id="Layer_1" data-name="Layer 1" xmlns="http://www.w3.org/2000/svg" viewBox="0 0 33 33"><defs><style>.cls-1{fill:#d31145}</style></defs><title>Book</title><g id="Artboard_1" data-name="Artboard 1"><path id="Path_18837" data-name="Path 18837" class="cls-1" d="M16.5 0A16.5 16.5 0 1 0 33 16.5 16.5 16.5 0 0 0 16.5 0zm6.6 18.15h-4.835a.114.114 0 0 0-.115.115V23.1a1.652 1.652 0 0 1-1.65 1.65 1.652 1.652 0 0 1-1.65-1.65v-4.835a.114.114 0 0 0-.115-.115H9.9a1.652 1.652 0 0 1-1.65-1.65 1.652 1.652 0 0 1 1.65-1.65h4.835a.114.114 0 0 0 .115-.115V9.9a1.652 1.652 0 0 1 1.65-1.65 1.652 1.652 0 0 1 1.65 1.65v4.835a.114.114 0 0 0 .115.115H23.1a1.652 1.652 0 0 1 1.65 1.65 1.652 1.652 0 0 1-1.65 1.65z"/></g></svg>