<svg id="Layer_1" data-name="Layer 1" xmlns="http://www.w3.org/2000/svg" viewBox="0 0 7.16 11.448"><defs><style>.cls-1{fill:#f6ccd6;}.cls-2{fill:#e86487;}</style></defs><title>Date Pin</title><g id="Artboard_1" data-name="Artboard 1"><g id="ubication-2nd"><path id="Path_18942" data-name="Path 18942" class="cls-1" d="M5.725,9.3A2.146,2.146,0,1,1,3.579,7.156h0A2.252,2.252,0,0,1,5.725,9.3Z"/><path id="Path_18943" data-name="Path 18943" class="cls-2" d="M3.58,0A3.41,3.41,0,0,0,0,3.238Q0,3.409,0,3.58C0,5.754,3.58,10.017,3.58,10.017S7.156,5.726,7.156,3.58A3.424,3.424,0,0,0,3.891,0C3.788,0,3.684,0,3.58,0Zm0,5.006A1.43,1.43,0,1,1,5.01,3.58h0A1.514,1.514,0,0,1,3.58,5.01Z"/></g></g></svg>