<?xml version="1.0" encoding="utf-8"?>
<!-- Generator: Adobe Illustrator 22.0.1, SVG Export Plug-In . SVG Version: 6.00 Build 0)  -->
<svg version="1.1" id="Layer_1" xmlns="http://www.w3.org/2000/svg" xmlns:xlink="http://www.w3.org/1999/xlink" x="0px" y="0px"
	 width="380px" height="64px" viewBox="0 0 380 64" style="enable-background:new 0 0 380 64;" xml:space="preserve">
<style type="text/css">
	.st0{clip-path:url(#SVGID_2_);fill:#292429;}
	.st1{fill:#292429;}
	.st2{clip-path:url(#SVGID_4_);fill:#292429;}
	.st3{clip-path:url(#SVGID_6_);fill:#292429;}
</style>
<g>
	<g>
		<defs>
			<rect id="SVGID_1_" x="8.1" y="12" width="363.3" height="40"/>
		</defs>
		<clipPath id="SVGID_2_">
			<use xlink:href="#SVGID_1_"  style="overflow:visible;"/>
		</clipPath>
		<path class="st0" d="M32.1,41.6v-0.9c2.2-0.2,3-1.2,2.8-4.1l-0.8-18.8L25,41.4h-1.2l-9.2-23.6l-0.8,17.7c-0.2,3.7,0.7,4.7,3.5,5.2
			v0.9H8v-0.9c2.6-0.3,3.7-1.7,3.9-5.5l0.9-17.6c0.2-3.3-2.1-3.7-3.6-4v-0.9h7.6l8.7,22.4L34,12.9h7.2v0.9C39,14,37.9,15.1,38,17.7
			l0.9,18.1c0.2,3.5,1.2,4.7,3.7,4.9v0.9H32.1"/>
	</g>
</g>
<path class="st1" d="M52.2,42.1c-6.2,0-8.6-4.3-8.6-8.6c0-5.3,4-10.2,9.4-10.2c2.2,0,4.1,0.6,5.4,1.6c-0.1,1.1-0.6,2.5-1.2,3.2
	l-0.3,0.1c-1.5-1.9-3.5-2.6-5.2-2.6c-1.2,0-2.4,0.3-3.3,1.1c-0.9,0.9-1.4,2.4-1.4,4.5c0,4.4,1.9,8.7,6.8,8.7c1.8,0,3.6-0.5,5.3-1.5
	l0.4,0.9C57.8,41,54.8,42.1,52.2,42.1"/>
<path class="st1" d="M80.3,41.6c-4-4.5-7.7-9.1-11.1-13.3l-1.4,1.5v1.6c0,8.7,0,8.9,3.3,9.4v0.9H60.8v-0.9c3-0.2,3.3-0.8,3.3-8.8V22
	c0-7.5-0.2-8.1-3.3-8.4v-0.9h10.3v0.9c-2.9,0.4-3.3,0.9-3.3,8.3v5.4l7.6-8.4c1.9-2,2-3.1,2-3.7c0-0.9-0.5-1.4-1.8-1.6v-0.9h9.7v0.9
	c-2.8,0.1-4.4,1.8-7.5,5.1l-6.2,6.8c1.9,2.5,5.2,6.4,7.1,8.7c5.1,5.9,6.7,6.3,8.3,6.5v0.9H80.3"/>
<path class="st1" d="M91.9,18.5c-1.3,0-2.3-1-2.3-2.3c0-1.3,0.9-2.3,2.3-2.3c1.3,0,2.3,1,2.3,2.3C94.2,17.5,93.2,18.5,91.9,18.5
	 M87.1,41.6v-0.9c3.2-0.2,3.2-0.2,3.2-6.5v-4.4c0-5-0.4-5.2-3.3-5.3v-0.9h6.7v10.6c0,6.3,0.1,6.3,2.9,6.5v0.9H87.1z"/>
<path class="st1" d="M111,41.6v-0.9c2.6-0.2,2.8-0.2,2.8-6.2v-3.6c0-4.3-1.8-5.3-4-5.3c-2.7,0-5,2.1-5,3.7v4.9
	c0,6.3,0.1,6.3,2.9,6.5v0.9h-9.6v-0.9c3.2-0.2,3.2-0.2,3.2-6.5v-4.4c0-5-0.4-5.2-3.3-5.3v-0.9h6.7v3.2c1.9-2.4,4.3-3.5,6.6-3.5
	c2.9,0,5.8,1.7,5.8,7.2v4c0,6,0,6,3.2,6.2v0.9H111"/>
<path class="st1" d="M128.4,42c-2.4,0-5.2-0.6-5.9-1.8c-0.3-0.4-0.5-2.8-0.5-4.1h1.1c0.7,3.2,2.9,4.6,5.4,4.6c2.6,0,4.2-1,4.2-2.7
	c0-4.9-10.3-3.7-10.3-9.8c0-2.8,2.2-5.1,5.9-5.1c2.5,0,5.1,0.7,5.3,0.9c0.2,0.2,0.5,1.9,0.5,4.5h-0.8c-0.3-1.1-1.8-4.2-5.2-4.2
	c-1.7,0-3,0.8-3,2.3c0,4.3,10.3,3.3,10.3,9.9C135.3,39.6,132.6,42,128.4,42"/>
<path class="st1" d="M151,29.9h-9.3c0.3-3.3,1.8-5.2,4.7-5.2C149.3,24.7,151,26.6,151,29.9 M154.3,39.2l-0.4-0.9
	c-1.7,1-3.5,1.5-5.3,1.5c-5,0-7-4.5-6.9-8.6h12.6c0.2-4.1-2-8.1-7.2-8.1s-8.8,4.2-8.8,10c0,4.5,2.3,8.9,8.6,8.9
	C149.5,42.1,152.6,41,154.3,39.2"/>
<path class="st1" d="M171.3,28l-3.6,10.2c-2.4,6.7-3.7,11.1-10.4,13.9c-0.5-0.5-1.5-2-1.7-2.8c5.1-1.2,7.6-3.4,9.2-7.5l-4.7-10.4
	c-2.8-6.1-3-6.4-5-6.5V24h8.4v0.9c-1.3,0.2-1.7,0.6-1.7,1.3c0,0.8,0.4,1.6,1.3,3.8l3.4,7.9l3.5-10.2c0.6-1.8-0.2-2.6-1.8-2.7v-0.9
	h6.5V25C173.4,24.7,172.1,25.7,171.3,28"/>
<g>
	<g>
		<defs>
			<rect id="SVGID_3_" x="8.1" y="12" width="363.3" height="40"/>
		</defs>
		<clipPath id="SVGID_4_">
			<use xlink:href="#SVGID_3_"  style="overflow:visible;"/>
		</clipPath>
		<path class="st2" d="M195.4,38c-1.5,1.2-4.1,1.5-6.1,1.5c-5.3,0-9.5-3.7-9.5-8.7c0-3.1,1.4-5.1,3.4-5.6
			C185.7,29.6,190.4,34.4,195.4,38 M207.1,41.6v-0.9c-2-0.2-5-1.9-8.3-4.2c1.2-1.9,1.4-4.7,1.7-6.7c0.3-1.8,1.6-1.7,2.4-1.8v-0.8
			h-8.2V28c1.9,0.3,3.8,0.5,3.8,3.5c0,1.6-0.3,3.1-1,4.2c-7.1-5.6-13.7-13.3-13.7-17.2c0-1.9,1.2-2.8,3-2.8c2.3,0,4.5,1.6,5.6,4.6
			h0.8l-0.1-5.4h-0.8c-0.1,0.4-0.4,0.6-0.6,0.6c-1,0-2.4-1.1-4.9-1.1c-2.7,0-5.5,1.7-5.5,5.4c0,1.4,0.5,2.7,1.2,4.2
			c-3.7,1.2-5.7,4.4-5.7,8.1c0,6.7,5.1,10.3,10.8,10.3c3.6,0,6.4-1.1,9-3.3c1.6,1.2,3.2,2.3,4.2,2.7h6.3V41.6z"/>
	</g>
	<g>
		<defs>
			<rect id="SVGID_5_" x="8.1" y="12" width="363.3" height="40"/>
		</defs>
		<clipPath id="SVGID_6_">
			<use xlink:href="#SVGID_5_"  style="overflow:visible;"/>
		</clipPath>
		<path class="st3" d="M221.3,42.3c-8.3,0-13.6-5.5-13.6-14.4c0-9.2,5.7-15.9,14.3-15.9c4.3,0,5.9,1.2,7.6,1.2
			c0.8,0,1.3-0.3,1.6-0.9h0.8l0.3,8.6h-0.9c-1.4-5-4.3-7.5-9.3-7.5c-6.4,0-10.4,4.5-10.4,12.6c0,8.4,4,14,10.8,14
			c3.8,0,7.5-1.7,9.2-4l0.8,0.9C231,39.6,226.8,42.3,221.3,42.3"/>
	</g>
</g>
<path class="st1" d="M250.3,33.8c0,4.2-1.9,6.8-5.6,6.8c-3.3,0-6.3-3-6.3-9.1c0-4.3,2.1-6.7,5.5-6.7
	C247.1,24.7,250.3,27.8,250.3,33.8 M253.9,32.6c0-3.5-1.4-6.4-4-8c-1.5-1-3.4-1.4-5.5-1.4c-5.6,0-9.6,4.1-9.6,9.4
	c0,3.5,1.4,6.4,4,8.1c1.5,1,3.5,1.4,5.6,1.4C249.9,42,253.9,38,253.9,32.6"/>
<path class="st1" d="M280.5,41.6v-0.9c2.6-0.2,2.7-0.5,2.7-5.9v-4.1c0-3.7-1.5-5.1-3.7-5.1c-2.7,0-5,2-5,3.8v5.1
	c0,5.7-0.1,5.9,2.9,6.2v0.9h-9v-0.9c2.5-0.2,2.7-0.5,2.7-6.4v-3.6c0-3.6-1.2-5.1-3.9-5.1c-2.5,0-4.9,2-4.9,3.9v5.2
	c0,5.7,0.3,5.7,2.9,6v0.9h-9.5v-0.9c3-0.1,3.1-0.1,3.1-5.8v-5.1c0-5-0.3-5.2-3.3-5.3v-0.9h6.8v3.2c1.4-1.9,3.8-3.5,6.3-3.5
	c3,0,4.8,1.5,5.5,3.9c1.7-2.3,4-3.9,6.8-3.9c3.2,0,5.9,1.9,5.9,6.9v4.7c0,5.2-0.2,5.7,3.1,5.8v0.9H280.5"/>
<path class="st1" d="M307.5,33c0,4.7-2,7.7-5.6,7.7c-2.4,0-5-1.4-5-3.1v-8.9c0-1.5,2.2-3,4.6-3C305.2,25.6,307.5,28.4,307.5,33
	 M311.1,32.5c0-5.2-3.4-9.2-8.1-9.2c-2.6,0-4.7,1.2-6.2,2.9v-2.7h-6.6v0.9c2.8,0.1,3.1,0.2,3.1,6.1v12.3c0,6.4,0.2,6.9-3,7.1v0.9
	h9.6v-0.9c-3.4-0.1-3.2-0.7-3.2-7.3v-2.5c1.4,1.4,3.5,1.9,5.4,1.9C307.7,42,311.1,38,311.1,32.5"/>
<path class="st1" d="M323.7,37.3c0,1.5-2,2.8-3.6,2.8c-1.5,0-2.8-1-2.8-3c0-3.7,3.8-3.3,6.4-4.7V37.3 M331.2,41.6v-0.9h-1.1
	c-2.5,0-2.8-0.9-2.8-4.4v-6c0-1.2-0.1-2.2-0.4-3.1c-0.9-2.8-3.2-3.8-6.3-3.8c-2,0-4.8,0.7-6.4,2.1c0.1,0.9,0.9,2.5,1.4,3l0.5-0.1
	c0.8-2,2.2-3.4,4.3-3.4c2.4,0,3.4,1.7,3.4,3.6v2.1c0,1.4-6,1.6-8.5,3.7c-0.9,0.8-1.5,1.7-1.5,3c0,2.8,2,4.7,4.9,4.7
	c1.9,0,3.5-0.6,5.1-2.5c0.3,1.3,1.4,2,3.1,2C326.9,41.6,331.2,41.6,331.2,41.6z"/>
<path class="st1" d="M343.8,41.6v-0.9c2.6-0.2,2.8-0.2,2.8-6.2v-3.6c0-4.3-1.8-5.3-4-5.3c-2.7,0-5,2.1-5,3.7v4.9
	c0,6.3,0.1,6.3,2.9,6.5v0.9h-9.6v-0.9c3.2-0.2,3.2-0.2,3.2-6.5v-4.4c0-5-0.4-5.2-3.3-5.3v-0.9h6.7v3.2c1.9-2.4,4.3-3.5,6.6-3.5
	c2.9,0,5.8,1.7,5.8,7.2v4c0,6,0,6,3.2,6.2v0.9H343.8"/>
<path class="st1" d="M368.1,28l-3.6,10.2c-2.4,6.7-3.7,11.1-10.4,13.9c-0.5-0.5-1.5-2-1.7-2.8c5.1-1.2,7.6-3.4,9.2-7.5L357,31.3
	c-2.8-6.1-3-6.4-5-6.5v-0.9h8.4v0.9c-1.3,0.2-1.7,0.6-1.7,1.3c0,0.8,0.4,1.6,1.3,3.8l3.4,7.9l3.5-10.2c0.6-1.8-0.3-2.6-1.8-2.7V24
	h6.5v0.9C370.1,24.7,368.9,25.7,368.1,28"/>
</svg>
