<?xml version="1.0" encoding="utf-8"?>
<!-- Generator: Adobe Illustrator 26.2.1, SVG Export Plug-In . SVG Version: 6.00 Build 0)  -->
<svg version="1.1" id="Layer_1" xmlns="http://www.w3.org/2000/svg" xmlns:xlink="http://www.w3.org/1999/xlink" x="0px" y="0px"
	 viewBox="0 0 841.9 918.3" style="enable-background:new 0 0 841.9 918.3;" xml:space="preserve">
<style type="text/css">
	.st0{fill:#4095B0;}
	.st1{fill:#AAE0E4;}
	.st2{fill:#8ECCCE;}
	.st3{opacity:0.4;fill:#4196B1;enable-background:new    ;}
	.st4{opacity:5.000000e-02;fill:#030303;enable-background:new    ;}
	.st5{fill:#B8BFC1;}
	.st6{fill:#FFFFFF;}
	.st7{opacity:8.000000e-02;fill:#101010;enable-background:new    ;}
	.st8{fill:#596068;}
	.st9{fill:#7A8E93;stroke:#758589;stroke-miterlimit:10;}
	.st10{fill:#9BAEB7;stroke:#93A6AD;stroke-miterlimit:10;}
	.st11{opacity:0.15;fill:#0D5577;enable-background:new    ;}
	.st12{fill:#0D5577;}
	.st13{fill:#7DCFE2;stroke:#53C5F1;stroke-linecap:round;stroke-linejoin:round;}
	.st14{fill:#4E9FB9;stroke:#4A90A0;stroke-linecap:round;stroke-linejoin:round;}
	.st15{opacity:0.43;fill:#53C5F1;enable-background:new    ;}
	.st16{opacity:0.74;fill:#575757;enable-background:new    ;}
	.st17{enable-background:new    ;}
	.st18{fill:none;stroke:#F2F2F2;stroke-width:10;stroke-miterlimit:10;}
	.st19{fill:none;stroke:#F2F2F2;stroke-width:5;stroke-miterlimit:10;}
	.st20{fill:#EBF1F2;}
	.st21{fill:#767E7F;}
	.st22{fill:none;stroke:#7A8D92;stroke-width:0.489;stroke-miterlimit:10;}
	.st23{fill:none;stroke:#7A8D92;stroke-width:0.493;stroke-miterlimit:10;}
	.st24{fill:none;stroke:#7A8D92;stroke-width:0.337;stroke-miterlimit:10;}
	.st25{fill:none;stroke:#7A8D92;stroke-width:0.589;stroke-miterlimit:10;}
	.st26{fill:#767E80;}
	.st27{fill:none;stroke:#7A8E93;stroke-width:0.827;stroke-miterlimit:10;}
</style>
<g id="a">
	<polygon class="st0" points="235.2,595.2 184.5,625.5 154.9,562.8 141.5,508.6 141.5,443.7 248.6,68.2 450.1,126 431.1,183.8 
		491,192.2 540.3,208.4 589.6,239.4 632.6,276 662.2,321.8 685.4,372.6 698.8,424.7 702.3,483.2 691.8,542.4 746.7,545.9 
		737.6,742.5 462.1,726.3 455,865.1 360.6,858.7 366.3,759.4 233.8,748.1 235.9,681.9 259.2,681.9 264.1,596.9 	"/>
</g>
<g id="b">
	<polygon class="st1" points="239.5,582.3 189.8,611.9 160.8,550.5 147.7,497.4 147.7,433.9 252.6,66.1 450,122.7 431.3,179.2 
		490,187.5 538.3,203.4 586.6,233.8 628.7,269.6 657.7,314.5 680.5,364.2 693.6,415.3 697,472.5 686.7,530.5 740.5,533.9 
		731.5,726.5 461.7,710.6 454.8,846.6 362.3,840.4 367.9,743 238.1,732 240.2,667.1 263,667.1 267.8,583.9 	"/>
</g>
<g id="c">
	<polygon class="st2" points="469.1,517.6 461.7,710.6 731.5,726.5 740.5,533.9 	"/>
	<polygon class="st2" points="252.6,66.1 450,122.7 369.8,396.6 172.2,336.1 	"/>
</g>
<g id="d">
	<g>
		<path class="st3" d="M420.6,432.4h7.8c18.3,0,33,14.3,33,32.6v7.4c0,18.3-14.3,33-32.6,33h-8.3c-18.3,0-33-14.3-33-32.6V465
			C388,447.2,402.8,432.8,420.6,432.4z"/>
		<path class="st3" d="M420.4,429.4h7.8c18.3,0,33,14.3,33,32.6v7.8c0,18.3-14.3,33-32.6,33h-8.3c-18.3,0-33-14.3-33-32.6v-7.8
			C387.8,444.2,402.2,429.8,420.4,429.4z"/>
		<path class="st3" d="M424.1,426.9L424.1,426.9c20-0.4,36.5,16.1,37,36.1v0.4l0,0c0,20-16.5,36.5-36.5,36.5h-0.4
			c-20,0-36.5-16.5-36.5-36.5l0,0C388,443.5,404.1,427.4,424.1,426.9z"/>
	</g>
	<g>
		<g>
			<path class="st4" d="M542.2,351.8l6.5-8.5c3.2-4.2,9.3-5.1,13.7-1.8l0,0l31,23.8c4.2,3.2,5.1,9.3,1.8,13.7l0,0l-6.4,8.4
				c-3.2,4.2-9.3,5.1-13.7,1.8l0,0l-31-23.8C539.7,362.2,539,356.2,542.2,351.8L542.2,351.8L542.2,351.8z"/>
			<path class="st5" d="M541.5,351.3l6.5-8.5c3.2-4.2,9.3-5.1,13.7-1.8l0,0l31,23.8c4.2,3.2,5.1,9.3,1.8,13.7l0,0l-6.4,8.4
				c-3.2,4.2-9.3,5.1-13.7,1.8l0,0l-31-23.8C539.1,361.7,538.3,355.7,541.5,351.3L541.5,351.3L541.5,351.3z"/>
			<path class="st6" d="M540.9,350.8l6.5-8.5c3.2-4.2,9.3-5.1,13.7-1.8l0,0l31,23.8c4.2,3.2,5.1,9.3,1.8,13.7l0,0l-6.4,8.4
				c-3.2,4.2-9.3,5.1-13.7,1.8l0,0l-31-23.8C538.5,361.2,537.7,355.2,540.9,350.8L540.9,350.8L540.9,350.8z"/>
		</g>
		<path class="st7" d="M550,369.6l10.8,8.6c2.4,1.9,2.9,5.3,1,7.7l0,0l-0.2,0.2l0,0v0.3l-5.9,6.6c-3,3.6-8.3,4.1-11.8,1.1l-4.9-3.7
			c-3.6-3-4.3-8.1-1.9-12l5.1-7.5c1.7-2.6,5.2-3.3,7.8-1.7l0,0l0.3,0.3L550,369.6L550,369.6z"/>
		<path class="st8" d="M549.4,370.6l10.5,8.6c2.4,1.9,3,5.1,1.5,7.6l-0.3,0.6l-5.9,6.6c-3,3.6-8.3,4.1-11.8,1.1l-4.9-3.7
			c-3.6-3-4.3-8.1-1.9-12l5.1-7.5c1.7-2.6,5.2-3.3,7.8-1.7l0,0l0.3,0.3C548.9,370.4,549.4,370.6,549.4,370.6L549.4,370.6z"/>
		<path class="st9" d="M548.3,371.9l10.8,8.6c2.4,1.9,2.9,5.3,1,7.7l0,0l-0.2,0.2l0,0v0.3l-5.9,6.6c-3,3.6-8.3,4.1-11.8,1.1
			l-4.9-3.7c-3.6-3-4.3-8.1-1.9-12l4.6-7c1.5-2.8,5-3.8,7.8-2.3L548.3,371.9L548.3,371.9z"/>
		<path class="st10" d="M549.1,373.4l8.7,6.7c1.9,1.4,2.2,4,0.9,5.9l0,0l-0.2,0.2l0,0v0.3l-4.2,4.7c-2.7,2.9-7.1,3.3-10.5,1.1
			l-2.9-2.4c-3.2-2.4-4-6.8-1.6-10l0,0l3.1-4.9c1.2-2.1,3.7-2.9,5.9-1.9C548.5,373.3,548.8,373.3,549.1,373.4L549.1,373.4z"/>
	</g>
	<path class="st7" d="M575.1,462.3l1,13.8c0.3,3-2,5.7-5,6l0,0h-0.2l0,0l-0.2,0.2l-8.8,0.1c-4.7,0.2-8.6-3.3-8.8-8l-0.6-6.1
		c-0.2-4.7,3.1-8.6,7.6-9.5l8.9-1.3c2.8-0.5,5.5,1.3,6.3,4.1L575.1,462.3L575.1,462.3z"/>
	<path class="st8" d="M573.7,462.2l0.8,13.5c0.3,3-1.8,5.7-4.6,6.2l-0.7,0.2l-8.8,0.1c-4.7,0.2-8.6-3.3-8.8-8l-0.6-6.1
		c-0.2-4.7,3.1-8.6,7.6-9.5l8.9-1.3c3.1-0.5,6,1.5,6.5,4.6l0,0v0.5C573.7,462,573.7,462.2,573.7,462.2L573.7,462.2z"/>
	<path class="st9" d="M572.3,462.3l1,13.8c0.3,3-2,5.7-5,6l0,0h-0.2l0,0l-0.2,0.2l-8.8,0.1c-4.7,0.2-8.6-3.3-8.8-8l-0.6-6.1
		c-0.2-4.7,3.1-8.6,7.6-9.5l8.2-1.3c3.1-0.7,6.2,1.1,7,4.2L572.3,462.3L572.3,462.3z"/>
	<path class="st10" d="M571.5,464.1l0.9,11c0.3,2.3-1.4,4.3-3.8,4.6l0,0h-0.2l0,0l-0.2,0.2l-6.3,0.1c-4,0-7.3-3-7.9-7l-0.2-3.7
		c-0.4-4,2.3-7.5,6.3-8l0,0l5.6-1c2.4-0.5,4.6,0.8,5.4,3.1C571.3,463.4,571.3,463.7,571.5,464.1L571.5,464.1z"/>
	<g>
		<g>
			<path class="st4" d="M613.2,358l-10.5-1.7c-5.3-0.8-9-5.8-8.1-11.1l0,0l6.1-38.6c0.8-5.3,5.8-9,11.1-8.1l0,0l10.4,1.6
				c5.3,0.8,9,5.8,8.1,11.1l0,0l-6.1,38.6c-0.7,5.3-5.6,8.9-10.9,8.1L613.2,358L613.2,358z"/>
			<path class="st5" d="M613.1,358.8l-10.5-1.7c-5.3-0.8-9-5.8-8.1-11.1l0,0l6.1-38.6c0.8-5.3,5.8-9,11.1-8.1l0,0l10.4,1.6
				c5.3,0.8,9,5.8,8.1,11.1l0,0l-6.1,38.6c-0.7,5.3-5.6,8.9-10.9,8.1L613.1,358.8L613.1,358.8z"/>
			<path class="st6" d="M613,359.6l-10.5-1.7c-5.3-0.8-9-5.8-8.1-11.1l0,0l6.1-38.6c0.8-5.3,5.8-9,11.1-8.1l0,0l10.4,1.6
				c5.3,0.8,9,5.8,8.1,11.1l0,0l-6.1,38.6c-0.7,5.3-5.6,8.9-10.9,8.1L613,359.6L613,359.6z"/>
		</g>
		<path class="st7" d="M625.1,342.6l2.4-13.6c0.5-3,3.3-5,6.3-4.6l0,0l0.2,0.1l0,0l0.3-0.2l8.6,2c4.6,1,7.6,5.3,6.6,9.9l-0.9,6
			c-1,4.6-5.1,7.6-9.7,7.4l-9-0.9c-3.1-0.2-5.4-2.9-5.2-6l0,0l0.1-0.4L625.1,342.6L625.1,342.6z"/>
		<path class="st8" d="M626.3,342.7l2.5-13.3c0.5-3,3.1-5.1,5.9-4.9h0.7l8.6,2c4.6,1,7.6,5.3,6.6,9.9l-0.9,6c-1,4.6-5.1,7.6-9.7,7.4
			l-9-0.9c-3.1-0.2-5.4-2.9-5.2-6l0,0l0.1-0.4C626.4,343.2,626.3,342.7,626.3,342.7L626.3,342.7z"/>
		<path class="st9" d="M627.9,343l2.4-13.6c0.5-3,3.3-5,6.3-4.6l0,0l0.2,0.1l0,0l0.3-0.2l8.6,2c4.6,1,7.6,5.3,6.6,9.9l-0.9,6
			c-1,4.6-5.1,7.6-9.7,7.4l-8.3-0.7c-3.2,0-5.8-2.6-5.7-5.7L627.9,343L627.9,343z"/>
		<path class="st10" d="M628.9,341.6l1.7-10.9c0.3-2.4,2.4-3.9,4.8-3.6l0,0l0.2,0.1l0,0l0.3-0.2l6.1,1.4c3.8,1,6.3,4.7,6,8.7
			l-0.7,3.7c-0.5,4-4.1,6.7-8.1,6.2l0,0l-5.7-0.4c-2.4,0-4.3-1.8-4.5-4.3C629.2,342.2,629,341.9,628.9,341.6L628.9,341.6z"/>
	</g>
	<g>
		<g>
			<path class="st4" d="M587.9,286.4l6,8.8c3,4.4,1.9,10.5-2.6,13.5l0,0l-32.3,22c-4.4,3-10.5,1.9-13.5-2.6l0,0l-5.9-8.7
				c-3-4.4-1.9-10.5,2.6-13.5l0,0l32.4-21.9C578.8,280.8,584.8,281.9,587.9,286.4L587.9,286.4L587.9,286.4z"/>
			<path class="st5" d="M588.6,285.9l6,8.8c3,4.4,1.9,10.5-2.6,13.5l0,0l-32.4,21.9c-4.4,3-10.5,1.9-13.5-2.6l0,0l-5.9-8.7
				c-3-4.4-1.9-10.5,2.6-13.5l0,0l32.4-21.9C579.5,280.3,585.5,281.5,588.6,285.9L588.6,285.9L588.6,285.9z"/>
			<path class="st6" d="M589.3,285.4l6,8.8c3,4.4,1.9,10.5-2.6,13.5l0,0l-32.4,21.9c-4.4,3-10.5,1.9-13.5-2.6l0,0l-5.9-8.7
				c-3-4.4-1.9-10.5,2.6-13.5l0,0l32.4-21.9C580.2,279.9,586.1,281,589.3,285.4L589.3,285.4L589.3,285.4z"/>
		</g>
		<path class="st7" d="M568.5,288.2l-11.6,7.6c-2.5,1.7-5.9,1-7.7-1.5l0,0l-0.1-0.2l0,0l-0.3-0.1l-4.4-7.7c-2.4-4-1.3-9.2,2.7-11.6
			l5-3.4c4-2.4,9.1-1.5,12,2l5.5,7.2c1.9,2.4,1.6,5.9-0.9,7.9l0,0l-0.4,0.2L568.5,288.2L568.5,288.2z"/>
		<path class="st8" d="M567.8,287.3l-11.5,7.3c-2.5,1.7-5.8,1.2-7.7-1l-0.5-0.5l-4.4-7.7c-2.4-4-1.3-9.2,2.7-11.6l5-3.4
			c4-2.4,9.1-1.5,12,2l5.5,7.2c1.9,2.4,1.6,5.9-0.9,7.9l0,0l-0.4,0.2C568.2,286.8,567.8,287.3,567.8,287.3L567.8,287.3z"/>
		<path class="st9" d="M566.9,285.9l-11.6,7.6c-2.5,1.7-5.9,1-7.7-1.5l0,0l-0.1-0.2l0,0l-0.3-0.1l-4.4-7.7c-2.4-4-1.3-9.2,2.7-11.6
			l5-3.4c4-2.4,9.1-1.5,12,2l5.2,6.5c2.1,2.3,2.1,6-0.2,8.1L566.9,285.9L566.9,285.9z"/>
		<path class="st10" d="M565.3,286.2l-9.1,6.2c-1.9,1.4-4.5,0.9-5.9-1l0,0l-0.1-0.2l0,0l-0.3-0.1l-3.1-5.5
			c-1.9-3.5-0.9-7.8,2.3-10.3l3.2-2c3.3-2.3,7.7-1.6,10,1.6l0,0l3.7,4.4c1.6,1.8,1.6,4.4-0.1,6.2
			C565.5,285.6,565.4,285.9,565.3,286.2L565.3,286.2z"/>
	</g>
	<g>
		<g>
			<path class="st4" d="M501.1,277.1l-3.7,10c-1.9,5-7.4,7.6-12.5,5.7l0,0l-36.6-13.7c-5-1.9-7.6-7.4-5.7-12.5l0,0l3.7-9.9
				c1.9-5,7.4-7.6,12.5-5.7l0,0l36.6,13.7c5,1.8,7.6,7.3,5.8,12.3L501.1,277.1L501.1,277.1z"/>
			<path class="st5" d="M501.8,277.3l-3.7,10c-1.9,5-7.4,7.6-12.5,5.7l0,0L449,279.4c-5-1.9-7.6-7.4-5.7-12.5l0,0l3.7-9.9
				c1.9-5,7.4-7.6,12.5-5.7l0,0l36.6,13.7c5,1.8,7.6,7.3,5.8,12.3H501.8L501.8,277.3z"/>
			<path class="st6" d="M502.6,277.6l-3.7,10c-1.9,5-7.4,7.6-12.5,5.7l0,0l-36.6-13.7c-5-1.9-7.6-7.4-5.7-12.5l0,0l3.7-9.9
				c1.9-5,7.4-7.6,12.5-5.7l0,0l36.6,13.7c5,1.8,7.6,7.3,5.8,12.3L502.6,277.6L502.6,277.6z"/>
		</g>
		<path class="st7" d="M488.4,262.3l-12.9-5c-2.9-1.1-4.3-4.2-3.2-7.1l0,0l0.1-0.2l0,0l-0.1-0.3l3.7-8c1.9-4.3,6.7-6.4,11-4.5
			l5.7,2.1c4.3,1.9,6.5,6.5,5.3,10.9l-2.7,8.6c-0.9,3-3.9,4.7-6.9,3.9l0,0l-0.4-0.2L488.4,262.3L488.4,262.3z"/>
		<path class="st8" d="M488.7,261.2l-12.6-5.1c-2.9-1.1-4.4-4-3.6-6.8l0.1-0.7l3.7-8c1.9-4.3,6.7-6.4,11-4.5l5.7,2.1
			c4.3,1.9,6.5,6.5,5.3,10.9l-2.7,8.6c-0.9,3-3.9,4.7-6.9,3.9l0,0l-0.4-0.2C489.2,261.2,488.7,261.2,488.7,261.2L488.7,261.2z"/>
		<path class="st9" d="M489.3,259.7l-12.9-5c-2.9-1.1-4.3-4.2-3.2-7.1l0,0l0.1-0.2l0,0l-0.1-0.3l3.7-8c1.9-4.3,6.7-6.4,11-4.5
			l5.7,2.1c4.3,1.9,6.5,6.5,5.3,10.9l-2.3,8c-0.7,3.1-3.7,5.1-6.7,4.5L489.3,259.7L489.3,259.7z"/>
		<path class="st10" d="M488.1,258.5l-10.3-3.9c-2.3-0.7-3.3-3.2-2.6-5.4l0,0l0.1-0.2l0,0l-0.1-0.3l2.6-5.7c1.7-3.6,5.8-5.3,9.7-4.1
			l3.5,1.4c3.8,1.3,5.8,5.3,4.5,9.1l0,0l-1.5,5.5c-0.5,2.4-2.7,3.8-5.1,3.5C488.7,258.3,488.4,258.4,488.1,258.5L488.1,258.5z"/>
	</g>
	<g>
		<g>
			<path class="st4" d="M442.4,309.3l3.7-10c1.9-5,7.4-7.6,12.5-5.7l0,0l36.6,13.7c5,1.9,7.6,7.4,5.7,12.5l0,0l-3.7,9.9
				c-1.9,5-7.4,7.6-12.5,5.7l0,0l-36.6-13.7c-5-1.8-7.6-7.3-5.8-12.3L442.4,309.3L442.4,309.3z"/>
			<path class="st5" d="M441.6,309.1l3.7-10c1.9-5,7.4-7.6,12.5-5.7l0,0l36.6,13.7c5,1.9,7.6,7.4,5.7,12.5l0,0l-3.7,9.9
				c-1.9,5-7.4,7.6-12.5,5.7l0,0l-36.6-13.7c-5-1.8-7.6-7.3-5.8-12.3L441.6,309.1L441.6,309.1z"/>
			<path class="st6" d="M440.8,308.8l3.7-10c1.9-5,7.4-7.6,12.5-5.7l0,0l36.6,13.7c5,1.9,7.6,7.4,5.7,12.5l0,0l-3.7,9.9
				c-1.9,5-7.4,7.6-12.5,5.7l0,0l-36.6-13.7c-5-1.8-7.6-7.3-5.8-12.3L440.8,308.8L440.8,308.8z"/>
		</g>
		<path class="st7" d="M455.1,324.1l12.9,5c2.9,1.1,4.3,4.2,3.2,7.1l0,0l-0.1,0.2l0,0l0.1,0.3l-3.7,8c-1.9,4.3-6.7,6.4-11,4.5
			l-5.7-2.1c-4.3-1.9-6.5-6.5-5.3-10.9l2.7-8.6c0.9-3,3.9-4.7,6.9-3.9l0,0l0.4,0.2L455.1,324.1L455.1,324.1z"/>
		<path class="st8" d="M454.7,325.2l12.6,5.1c2.9,1.1,4.4,4,3.6,6.8l-0.1,0.7l-3.7,8c-1.9,4.3-6.7,6.4-11,4.5l-5.7-2.1
			c-4.3-1.9-6.5-6.5-5.3-10.9l2.7-8.6c0.9-3,3.9-4.7,6.9-3.9l0,0l0.4,0.2C454.2,325.2,454.7,325.2,454.7,325.2L454.7,325.2z"/>
		<path class="st9" d="M454.1,326.7l12.9,5c2.9,1.1,4.3,4.2,3.2,7.1l0,0l-0.1,0.2l0,0l0.1,0.3l-3.7,8c-1.9,4.3-6.7,6.4-11,4.5
			l-5.7-2.1c-4.3-1.9-6.5-6.5-5.3-10.9l2.3-8c0.7-3.1,3.7-5.1,6.7-4.5L454.1,326.7L454.1,326.7z"/>
		<path class="st10" d="M455.3,327.9l10.3,3.9c2.3,0.7,3.3,3.2,2.6,5.4l0,0l-0.1,0.2l0,0l0.1,0.3l-2.6,5.7c-1.7,3.6-5.8,5.3-9.7,4.1
			l-3.5-1.4c-3.8-1.3-5.8-5.3-4.5-9.1l0,0l1.5-5.5c0.5-2.4,2.7-3.8,5.1-3.5C454.7,328.1,455,328,455.3,327.9L455.3,327.9z"/>
	</g>
	<path class="st5" d="M568.5,447.3c0,0,12.2,11.3,12.7,18s0.6,11.8-0.8,17.1c0,0-1.8,7.6,5.1,12s11.8,5.3,16.6,5.1s8.9-9.1,8.9-9.1
		s2.7-9.3,2.4-17s-1.5-22.8-10.3-31.8s-13.6-11.3-26.1-10.9S566,444.9,568.5,447.3L568.5,447.3z"/>
	<path class="st6" d="M568.5,446c0,0,12.2,11.3,12.7,18s0.6,11.8-0.8,17.1c0,0-1.8,7.6,5.1,12s11.8,5.3,16.6,5.1s8.9-9.1,8.9-9.1
		s2.7-9.3,2.4-17s-1.5-22.8-10.3-31.8S589.5,429,577,429.4S566,443.5,568.5,446L568.5,446z"/>
	<path class="st5" d="M659.7,502.8c0,0-12.2-11.3-12.7-18s-0.6-11.8,0.8-17.1c0,0,1.8-7.6-5.1-12c-6.9-4.4-11.8-5.3-16.6-5.1
		s-8.9,9.1-8.9,9.1s-2.7,9.3-2.4,17s1.5,22.8,10.3,31.8c8.8,9,13.6,11.3,26.1,10.9S662.2,505.2,659.7,502.8L659.7,502.8z"/>
	<path class="st6" d="M659.7,504.1c0,0-12.2-11.3-12.7-18s-0.6-11.8,0.8-17.1c0,0,1.8-7.6-5.1-12s-11.8-5.3-16.6-5.1
		s-8.9,9.1-8.9,9.1s-2.7,9.3-2.4,17s1.5,22.8,10.3,31.8c8.8,9.1,13.6,11.3,26.1,10.9S662.2,506.6,659.7,504.1L659.7,504.1z"/>
	<path class="st11" d="M446.2,406.1c0-0.7-0.1-1.2-0.3-1.9l0,0c-0.6-1.2-2-1.5-2.9-0.9c-0.1,0.1-0.2,0.2-0.4,0.2l-0.1,0.2l0,0
		L423,415.8c-1.2,0.6-1.5,2-0.9,2.9c0.1,0.1,0.2,0.2,0.2,0.4l0.2,0.1c0.4,0.5,1,1,1.6,1.1c-0.6,1.2-0.4,2.6,0.3,3.6l11.8,18.8
		c0.6,0.9,1.5,1.6,2.7,1.5c-0.4,0.9,0,1.9,0.9,2.3l0.2,0.1c0.2,0.1,0.4,0.1,0.6,0.2c0.7,0,1.2-0.1,1.9-0.3l19.7-12.4
		c1.2-0.6,1.5-2,0.9-3.2l0,0c-0.4-0.5-0.6-0.9-1-1c0.1-0.4,0.5-0.6,0.3-1c0.7,1,2,1.2,2.9,0.6l4.6-3.1c1-0.7,1.2-2,0.6-2.9l0,0
		l-15-22.7c-0.7-1-2-1.2-2.9-0.6l0,0l-4.6,3.1c-1,0.7-1.2,2-0.6,2.9l0,0C447.1,405.9,446.7,406.1,446.2,406.1L446.2,406.1z"/>
	<path class="st12" d="M444.4,407.6c0-0.7-0.1-1.2-0.3-1.9l0,0c-0.6-1.2-2-1.5-2.9-0.9c-0.1,0.1-0.2,0.2-0.4,0.2l-0.1,0.2l0,0
		L421,417.5c-1.2,0.6-1.5,2-0.9,2.9c0.1,0.1,0.2,0.2,0.2,0.4l0.2,0.1c0.4,0.5,1,1,1.6,1.1c-0.6,1.2-0.4,2.6,0.3,3.6l12,18.5
		c0.6,0.9,1.5,1.6,2.7,1.5c-0.4,0.9,0,1.9,0.9,2.3l0.2,0.1c0.2,0.1,0.4,0.1,0.6,0.2c0.7,0,1.2-0.1,1.9-0.3l19.7-12.4
		c1.2-0.6,1.5-2,0.9-2.9c-0.1-0.1-0.2-0.2-0.2-0.4l-0.2-0.1c-0.4-0.5-0.9-0.7-1-1c0.1-0.4,0.5-0.6,0.3-1c0.7,1,2,1.2,2.9,0.6
		l4.6-3.1c1-0.7,1.2-2,0.6-2.9l0,0l-14.7-22.8c-0.7-1-2-1.2-2.9-0.6l0,0l-4.8,3c-1,0.7-1.2,2-0.6,2.9l0,0
		C445.1,407.6,444.7,407.6,444.4,407.6L444.4,407.6z"/>
	<path class="st13" d="M432.1,444.9l-11.8-18.8c-1.1-1.8-0.5-4.2,1.2-5.3l18.8-11.8c1.8-1.1,4.2-0.5,5.3,1.2l11.8,18.8
		c1.1,1.8,0.5,4.2-1.2,5.3l-18.8,11.8C435.7,447.2,433.3,446.7,432.1,444.9z"/>
	<path class="st14" d="M457.7,431.3l-14.4-22.8c-0.6-0.9-0.4-2.2,0.6-2.9l4.8-3c0.9-0.6,2.2-0.4,2.9,0.6L466,426
		c0.6,0.9,0.4,2.2-0.6,2.9l-4.6,3.1C459.8,432.8,458.3,432.4,457.7,431.3C457.9,431.4,457.7,431.3,457.7,431.3L457.7,431.3z"/>
	<path class="st15" d="M433.9,446.4L433.9,446.4c-0.7-1-0.4-2.4,0.6-3.2l0.1-0.2l0.1-0.2l19.7-12.4c1-0.7,2.4-0.4,3.2,0.6l0.2,0.1
		l0.2,0.1c0.7,1,0.4,2.4-0.6,3.2l-0.1,0.2l-0.1,0.2l-19.7,12.4C436.2,447.8,434.8,447.5,433.9,446.4L433.9,446.4z"/>
	<path class="st15" d="M420,423.5L420,423.5c-0.7-1-0.4-2.4,0.6-3.2l0.1-0.2l0.1-0.2l19.7-12.4c1-0.7,2.4-0.4,3.2,0.6l0.2,0.1
		l0.2,0.1c0.7,1,0.4,2.4-0.6,3.2l-0.1,0.2l-0.1,0.2l-19.7,12.4C422.4,425,420.9,424.6,420,423.5L420,423.5z"/>
	<path class="st14" d="M435.2,448.3L435.2,448.3c-0.7-1-0.4-2.4,0.6-3.2l0.1-0.2l0.1-0.2l19.7-12.4c1-0.7,2.4-0.4,3.2,0.6l0.2,0.1
		l0.2,0.1c0.7,1,0.4,2.4-0.6,3.2l-0.1,0.2l-0.1,0.2l-19.7,12.4C437.5,449.7,436.1,449.4,435.2,448.3L435.2,448.3z"/>
	<path class="st14" d="M418.2,421.7L418.2,421.7c-0.7-1-0.4-2.4,0.6-3.2l0.1-0.2l0.1-0.2l19.7-12.4c1-0.7,2.4-0.4,3.2,0.6l0.2,0.1
		l0.2,0.1c0.7,1,0.4,2.4-0.6,3.2l-0.1,0.2l-0.1,0.2l-19.7,12.4C420.5,423.2,419.1,422.9,418.2,421.7L418.2,421.7z"/>
	<path class="st11" d="M464.2,473.7c0.4-0.4,0.8-0.9,1-1.6l0,0c0.3-1.2-0.5-2.4-1.7-2.6c0,0-0.1-0.1-0.3,0l0,0l-22.8-3.8
		c-1.2-0.3-2.4,0.5-2.6,1.7c0,0-0.1,0.1,0,0.3l0,0c-0.2,0.7,0.2,1.1,0.5,1.8c-1.1,0.4-1.9,1.6-2.2,2.8l-3.6,21.8
		c-0.1,1.1,0.1,2.2,1,3c-1.2,1-1.4,2.2-0.4,3.1c0.4,0.4,0.9,0.8,1.6,1l22.8,3.8c1.2,0.3,2.5-0.6,2.8-1.8c0.2-0.4,0.2-0.9-0.1-1.4
		c0.4-0.4,0.7-0.3,0.7-0.6c-0.1,1.1,0.6,2,1.7,2.4l5.6,0.9c1.1,0.1,2-0.6,2.4-1.7l0,0l4.3-26.7c0.1-1.1-0.6-2-1.7-2.4l0,0l-5.6-0.9
		c-1.1-0.1-2,0.6-2.4,1.7l0,0C464.9,474.2,464.4,474.3,464.2,473.7L464.2,473.7z"/>
	<path class="st12" d="M461.7,473.8c0.4-0.4,0.8-0.9,1-1.6l0,0c0.3-1.2-0.5-2.4-1.7-2.6c0,0-0.1-0.1-0.3,0l0,0l-22.8-3.8
		c-1.2-0.3-2.4,0.5-2.6,1.7c0,0-0.1,0.1,0,0.3l0,0c-0.2,0.7,0.2,1.1,0.5,1.8c-1.1,0.4-1.9,1.6-2.2,2.8l-3.3,21.9
		c-0.1,1.1,0.1,2.2,1,3c-1.2,1-1.4,2.2-0.4,3.1c0.4,0.4,0.9,0.8,1.6,1l22.9,3.7c1.2,0.3,2.4-0.5,2.6-1.7c0,0,0.1-0.1,0-0.3l0,0
		c0.2-0.7-0.2-1.1-0.1-1.4c0.4-0.4,0.7-0.3,0.7-0.6c-0.1,1.1,0.6,2,1.7,2.4l5.6,0.9c1.1,0.1,2-0.6,2.4-1.7l0,0l4.3-26.7
		c0.1-1.1-0.6-2-1.7-2.4l0,0l-5.6-0.9c-1.1-0.1-2,0.6-2.4,1.7l0,0C462.4,474.3,462,473.8,461.7,473.8L461.7,473.8z"/>
	<path class="st13" d="M427.9,493.8l3.6-21.8c0.3-2,2.1-3.5,4.3-3.3l21.8,3.6c2,0.3,3.5,2.1,3.3,4.3l-3.6,21.8
		c-0.3,2-2.1,3.5-4.3,3.3l-21.8-3.6C429.2,497.7,427.7,496,427.9,493.8z"/>
	<path class="st14" d="M456,500.2l4.3-26.7c0.1-1.1,1.3-1.8,2.4-1.7l5.6,0.9c1.1,0.1,1.8,1.3,1.7,2.4l-4.3,26.7
		c-0.1,1.1-1.3,1.8-2.4,1.7l-5.6-0.9C456.6,502.5,455.8,501.6,456,500.2C455.8,500.4,456,500.2,456,500.2z"/>
	<path class="st15" d="M428.4,495.9L428.4,495.9c0.3-1.2,1.3-2.1,2.4-2c0,0,0.1,0.1,0.3,0l0,0l22.8,3.8c1.4,0.1,2.2,1.2,2.1,2.5l0,0
		c-0.1,1.4-1.2,2.2-2.5,2.1l0,0l-22.9-3.7c-1.4-0.1-2.2-1.2-2.1-2.5L428.4,495.9L428.4,495.9z"/>
	<path class="st15" d="M432.8,469.6L432.8,469.6c0.1-1.4,1.2-2.2,2.5-2.1l0,0l22.8,3.8c1.2,0.3,2.1,1.3,2,2.4c0,0-0.1,0.1,0,0.3l0,0
		c-0.3,1.2-1.3,2.1-2.4,2c0,0-0.1-0.1-0.3,0l0,0l-22.8-3.8C433.7,472.1,432.8,470.8,432.8,469.6L432.8,469.6z"/>
	<path class="st14" d="M427.9,498.3L427.9,498.3c0.3-1.2,1.3-2.1,2.4-2c0,0,0.1,0.1,0.3,0l0,0l22.9,3.7c1.2,0.3,2.1,1.3,2,2.4
		c0,0-0.1,0.1,0,0.3l0,0c-0.3,1.2-1.3,2.1-2.4,2c0,0-0.1-0.1-0.3,0l0,0l-22.9-3.7C428.8,500.6,427.9,499.6,427.9,498.3L427.9,498.3z
		"/>
	<path class="st14" d="M432.9,467L432.9,467c0.1-1.4,1.2-2.2,2.5-2.1l0,0l22.8,3.8c1.2,0.3,2.1,1.3,2,2.4c0,0-0.1,0.1,0,0.3l0,0
		c-0.3,1.2-1.3,2.1-2.4,2c0,0-0.1-0.1-0.3,0l0,0l-22.8-3.8C433.6,469.6,432.7,468.6,432.9,467L432.9,467z"/>
	<path class="st11" d="M481.9,416.4c-0.6-0.3-1.2-0.5-1.8-0.4l0,0c-1.2,0.1-2.2,1.2-2.1,2.4v0.2l2.5,23.1c0.1,1.2,1.2,2.2,2.4,2.1
		h0.2h0.2c0.8-0.1,0.9-0.5,1.7-1c0.7,1.1,1.9,1.6,3.3,1.4l22-2.3c1.2-0.1,2.1-0.8,2.6-1.6c0.9,0.7,1.8,0.8,2.7,0.1l0.3-0.4
		c0.3-0.6,0.5-1.2,0.4-1.8l-2.4-22.9c-0.1-1.2-1.2-2-2.4-2.1c-0.8,0.1-1,0.1-1.3,0.5c-0.4-0.3-0.5-0.7-0.9-0.7
		c1.2-0.1,2-1.2,1.9-2.3l-0.6-5.6c-0.1-1.2-1.2-2-2.3-1.9l0,0l-26.8,2.9c-1.2,0.1-2,1.2-1.9,2.3l0.6,5.6c0.1,1.2,1.2,2,2.3,1.9l0,0
		C482.2,415.8,482.2,416.2,481.9,416.4L481.9,416.4z"/>
	<path class="st12" d="M482.5,418.9c-0.6-0.3-1.2-0.5-1.8-0.4l0,0c-1.2,0.1-2.2,1.2-2.1,2.4v0.2l2.5,23.1c0.1,1.2,1.2,2.2,2.4,2.1
		h0.2h0.2c0.8-0.1,0.9-0.5,1.7-1c0.7,1.1,1.9,1.6,3.3,1.4l21.9-2.7c1.2-0.1,2.1-0.8,2.6-1.6c0.9,0.7,1.8,0.8,2.7,0.1l0.3-0.4
		c0.3-0.6,0.5-1.2,0.4-1.8l-2.4-22.9c-0.1-1.2-1.2-2.2-2.4-2.1h-0.2h-0.2l0,0c-0.8,0.1-0.9,0.5-1.3,0.5c-0.4-0.3-0.5-0.7-0.9-0.7
		c1.2-0.1,2-1.2,1.9-2.3l-0.6-5.6c-0.1-1.2-1.2-2-2.3-1.9l0,0l-26.8,2.9c-1.2,0.1-2,1.2-1.9,2.3l0.6,5.6c0.1,1.2,1.2,2,2.3,1.9l0,0
		C482.8,418,482.5,418.5,482.5,418.9L482.5,418.9z"/>
	<path class="st13" d="M510.8,446.1l-22,2.3c-2.1,0.2-4-1.3-4.3-3.4l-2.3-22c-0.2-2.1,1.3-4,3.4-4.3l22-2.3c2.1-0.2,4,1.3,4.3,3.4
		l2.3,22C514.5,443.9,512.9,445.9,510.8,446.1z"/>
	<path class="st14" d="M509.7,417.3l-26.8,2.9c-1.2,0.1-2.2-0.7-2.3-1.9l-0.6-5.6c-0.1-1.2,0.7-2.2,1.9-2.3l26.8-3
		c1.2-0.1,2.2,0.7,2.3,1.9l0.6,5.6C511.7,416,510.8,417,509.7,417.3L509.7,417.3z"/>
	<path class="st15" d="M512.7,445.3L512.7,445.3c-1.4,0.1-2.6-0.7-2.8-2l0,0l-2.5-23.1c-0.1-1.4,0.7-2.6,2-2.8l0,0h0.2l0,0
		c1.4-0.1,2.6,0.7,2.8,2l0,0l2.5,23.1C515,443.9,514,445.2,512.7,445.3L512.7,445.3z"/>
	<path class="st15" d="M486.2,447.7L486.2,447.7c-1.4,0.1-2.6-0.7-2.8-2l0,0l-2.5-23.1c-0.1-1.4,0.7-2.6,2-2.8l0,0h0.2l0,0
		c1.4-0.1,2.6,0.7,2.8,2l0,0l2.5,23.1C488.4,446.3,487.5,447.4,486.2,447.7z"/>
	<path class="st14" d="M515.1,444.8L515.1,444.8c-1.3,0.1-2.6-0.7-2.8-2l0,0l-2.5-23.1c-0.1-1.4,0.7-2.6,2-2.8l0,0h0.2l0,0
		c1.3-0.1,2.6,0.7,2.8,2l0,0l2.5,23.1C517.3,443.4,516.5,444.5,515.1,444.8L515.1,444.8z"/>
	<path class="st14" d="M483.7,448.4L483.7,448.4c-1.4,0.1-2.6-0.7-2.8-2l0,0l-2.5-23.1c-0.1-1.4,0.7-2.6,2-2.8l0,0h0.2l0,0
		c1.4-0.1,2.6,0.7,2.8,2l0,0l2.5,23.1C486.1,447,485.3,448.2,483.7,448.4C483.9,448.4,483.7,448.4,483.7,448.4L483.7,448.4z"/>
	<path class="st11" d="M523.2,501.5c0.6,0.3,1.2,0.5,1.8,0.4l0,0c1.2-0.1,2.2-1.2,2.1-2.4v-0.2l-2.5-23.1c-0.1-1.2-1.2-2.2-2.4-2.1
		H522h-0.2c-0.8,0.1-0.9,0.5-1.7,1c-0.7-1.1-1.9-1.6-3.3-1.4l-22,2.3c-1.2,0.1-2.1,0.8-2.6,1.6c-0.9-0.7-1.8-0.8-2.7-0.1l-0.3,0.4
		c-0.3,0.6-0.5,1.2-0.4,1.8l2.4,22.9c0.1,1.2,1.2,2,2.4,2.1c0.8-0.1,1-0.1,1.3-0.5c0.4,0.3,0.5,0.7,0.9,0.7c-1.2,0.1-2,1.2-1.9,2.3
		l0.6,5.6c0.1,1.2,1.2,2,2.3,1.9l0,0l26.8-2.9c1.2-0.1,2-1.2,1.9-2.3L525,504c-0.1-1.2-1.2-2-2.3-1.9l0,0
		C522.9,502.1,522.9,501.7,523.2,501.5L523.2,501.5z"/>
	<path class="st12" d="M522.6,499c0.6,0.3,1.2,0.5,1.8,0.4l0,0c1.2-0.1,2.2-1.2,2.1-2.4v-0.2l-2.5-23.1c-0.1-1.2-1.2-2.2-2.4-2.1
		h-0.2h-0.2c-0.8,0.1-0.9,0.5-1.7,1c-0.7-1.1-1.9-1.6-3.3-1.4l-21.9,2.7c-1.2,0.1-2.1,0.8-2.6,1.6c-0.9-0.7-1.8-0.8-2.7-0.1
		l-0.3,0.4c-0.3,0.6-0.5,1.2-0.4,1.8l2.4,22.9c0.1,1.2,1.2,2.2,2.4,2.1h0.2h0.2l0,0c0.8-0.1,0.9-0.5,1.3-0.5
		c0.4,0.3,0.5,0.7,0.9,0.7c-1.2,0.1-2,1.2-1.9,2.3l0.6,5.6c0.1,1.2,1.2,2,2.3,1.9l0,0l26.8-2.9c1.2-0.1,2-1.2,1.9-2.3l-0.6-5.6
		c-0.1-1.2-1.2-2-2.3-1.9l0,0C522.3,499.8,522.6,499.4,522.6,499L522.6,499z"/>
	<path class="st13" d="M494.3,471.8l22-2.3c2.1-0.2,4,1.3,4.3,3.4l2.3,22c0.2,2.1-1.3,4-3.4,4.3l-22,2.3c-2.1,0.2-4-1.3-4.3-3.4
		l-2.3-22C490.6,473.9,492.2,472,494.3,471.8L494.3,471.8z"/>
	<path class="st14" d="M495.4,500.5l26.8-2.9c1.2-0.1,2.2,0.7,2.3,1.9l0.6,5.6c0.1,1.2-0.7,2.2-1.9,2.3l-26.8,3
		c-1.2,0.1-2.2-0.7-2.3-1.9l-0.6-5.6C493.4,501.9,494.3,500.9,495.4,500.5L495.4,500.5z"/>
	<path class="st15" d="M492.4,472.6L492.4,472.6c1.4-0.1,2.6,0.7,2.8,2l0,0l2.5,23.1c0.1,1.4-0.7,2.6-2,2.8l0,0h-0.2l0,0
		c-1.4,0.1-2.6-0.7-2.8-2l0,0l-2.5-23.1C490.1,474,491.1,472.7,492.4,472.6z"/>
	<path class="st15" d="M518.9,470.2L518.9,470.2c1.3-0.1,2.6,0.7,2.8,2l0,0l2.5,23.1c0.1,1.4-0.7,2.6-2,2.8l0,0H522l0,0
		c-1.3,0.1-2.6-0.7-2.8-2l0,0l-2.5-23.1C516.7,471.6,517.6,470.5,518.9,470.2z"/>
	<path class="st14" d="M490,473L490,473c1.4-0.1,2.6,0.7,2.8,2l0,0l2.5,23.1c0.1,1.4-0.7,2.6-2,2.8l0,0h-0.2l0,0
		c-1.4,0.1-2.6-0.7-2.8-2l0,0l-2.5-23.1C487.8,474.4,488.6,473.4,490,473L490,473z"/>
	<path class="st14" d="M521.4,469.5L521.4,469.5c1.3-0.1,2.6,0.7,2.8,2l0,0l2.5,23.1c0.1,1.4-0.7,2.6-2,2.8l0,0h-0.2l0,0
		c-1.3,0.1-2.6-0.7-2.8-2l0,0l-2.5-23.1C519,470.9,519.8,469.7,521.4,469.5C521.2,469.5,521.4,469.5,521.4,469.5z"/>
	<path class="st7" d="M249.2,428l0.4-9.1c0.2-2,1.9-3.6,3.8-3.7l0,0l0.3-0.1l5.7,0.6c3,0.1,5.3,2.8,5.1,5.9l0,0l-0.3,4
		c-0.1,3-2.5,5.4-5.6,5.7l-5.8,0.5c-2,0.1-3.7-1.4-3.8-3.3L249.2,428L249.2,428L249.2,428z"/>
	<path class="st8" d="M250.1,428l0.2-8.9c0.1-1.9,1.5-3.4,3.3-3.8l0.5,0.1l5.7,0.6c3,0.1,5.3,2.8,5.1,5.9l0,0l-0.3,4
		c-0.1,3-2.5,5.4-5.6,5.7l-5.8,0.5c-2,0.1-3.7-1.4-3.9-3.4l0,0L250.1,428L250.1,428z"/>
	<path class="st9" d="M250.8,428l0.4-9.1c0.2-2,1.9-3.6,3.8-3.7l0,0l0.3-0.1l5.7,0.6c3,0.1,5.3,2.8,5.1,5.9l0,0l-0.3,4
		c-0.1,3-2.5,5.4-5.6,5.7l-5.6,0.2c-1.8,0.2-3.6-1-4-3C250.8,428.2,250.9,428.1,250.8,428L250.8,428L250.8,428z"/>
	<path class="st10" d="M251.8,427l0.2-7.2c0.1-1.5,1.4-2.7,2.9-2.7l0.2,0.2l4.2,0.3c2.6,0.3,4.5,2.5,4.4,5.1l-0.2,2.5
		c-0.1,2.6-2.2,4.7-4.8,5h-3.9c-1.5,0.1-2.9-0.7-3.2-2.2C251.9,427.4,251.6,427.2,251.8,427L251.8,427z"/>
	<path class="st7" d="M214.1,415.5c-1.2,1.6-3.6,2.1-5.2,0.9l-4.7-3.3c-2.4-1.9-3-5.1-1.6-7.7l2-3.5c1.6-2.7,4.9-3.5,7.7-2.1
		l5.1,2.8l0.3,0.2l0,0c1.7,1,2.2,3.4,1.1,5.1l0,0L214.1,415.5L214.1,415.5z"/>
	<path class="st8" d="M214.3,416.3L214.3,416.3c-1.2,1.6-3.6,2.1-5.2,0.9l-4.7-3.3c-2.4-1.9-3-5.1-1.6-7.7l2-3.5
		c1.6-2.7,4.9-3.5,7.7-2.1l5.1,2.8l0.7,0.3c1.4,1.2,1.8,3.4,0.7,4.9L214.3,416.3L214.3,416.3z"/>
	<path class="st9" d="M214.3,417.1c-1.4,1.6-3.8,1.7-5.4,0.5l-4.4-3.1c-2.4-1.9-3-5.1-1.6-7.7l2-3.5c1.6-2.7,4.9-3.5,7.7-2.1
		l5.1,2.8l0.3,0.2l0,0c1.8,1.2,2.2,3.5,1.2,5.2L214.3,417.1L214.3,417.1z"/>
	<path class="st10" d="M214.3,416.1c-1,1.2-2.8,1.2-4,0.3l-3.1-2.4c-2-1.6-2.6-4.5-1.3-6.7l1.1-1.9c1.4-2.4,4.3-3.1,6.6-1.7l3.9,2
		l0,0c1.3,0.9,1.7,2.7,0.9,4.2l0,0l-3.7,6.3C214.3,415.8,214.2,416,214.3,416.1L214.3,416.1L214.3,416.1z"/>
	<path class="st7" d="M242.1,402.7l-8.6-2.8c-1.8-0.8-3-2.8-2.5-4.7l0,0v-0.3l2.1-5.4c1.1-2.9,4.2-4.4,7.1-3.3l0,0l3.7,1.4
		c2.9,1.1,4.4,4,3.8,7l-1.2,5.6c-0.4,1.8-2.3,3.2-4.1,2.7L242.1,402.7L242.1,402.7L242.1,402.7z"/>
	<path class="st8" d="M242.4,401.9l-8.5-2.6c-1.7-0.6-2.8-2.4-2.7-4.3l0.2-0.6l2.1-5.4c1.1-2.9,4.2-4.4,7.1-3.3l0,0l3.7,1.4
		c2.9,1.1,4.4,4,3.8,7l-1.2,5.6c-0.5,1.9-2.3,3.2-4.3,2.8l0,0L242.4,401.9L242.4,401.9z"/>
	<path class="st9" d="M242.4,401.1l-8.6-2.8c-1.8-0.8-3-2.8-2.5-4.7l0,0v-0.3l2.1-5.4c1.1-2.9,4.2-4.4,7.1-3.3l0,0l3.7,1.4
		c2.9,1.1,4.4,4,3.8,7l-1.3,5.4c-0.3,1.9-2.1,3.3-4.1,2.9l0,0L242.4,401.1L242.4,401.1z"/>
	<path class="st10" d="M241.9,400l-6.8-2.2c-1.5-0.5-2.3-2.1-1.8-3.6l0,0l0.3-0.2l1.5-4c1-2.4,3.7-3.6,6.2-2.8l2.3,0.8
		c2.4,0.9,3.8,3.5,3.4,5.9l-0.9,3.8c-0.2,1.6-1.5,2.7-3.1,2.5C242.2,400,242,400.1,241.9,400L241.9,400z"/>
	<circle class="st4" cx="233.8" cy="415.7" r="19.2"/>
	<circle class="st5" cx="234.8" cy="417" r="19.2"/>
	<circle class="st6" cx="235.9" cy="418.6" r="19.2"/>
	<path class="st7" d="M210.6,441.3l-0.4,9.1c-0.2,2-1.9,3.6-3.8,3.7l0,0l-0.3,0.1l-5.7-0.6c-3-0.1-5.3-2.8-5.1-5.9l0,0l0.3-4
		c0.1-3,2.5-5.4,5.6-5.7l5.8-0.5c2-0.1,3.7,1.4,3.8,3.3L210.6,441.3L210.6,441.3L210.6,441.3z"/>
	<path class="st8" d="M209.8,441.3l-0.2,8.9c-0.1,1.9-1.5,3.4-3.3,3.8l-0.5-0.1l-5.7-0.6c-3-0.1-5.3-2.8-5.1-5.9l0,0l0.3-4
		c0.1-3,2.5-5.4,5.6-5.7l5.8-0.5c2-0.1,3.7,1.4,3.9,3.4l0,0L209.8,441.3L209.8,441.3z"/>
	<path class="st9" d="M209,441.3l-0.4,9.1c-0.2,2-1.9,3.6-3.8,3.7l0,0l-0.3,0.1l-5.7-0.6c-3-0.1-5.3-2.8-5.1-5.9l0,0l0.3-4
		c0.1-3,2.5-5.4,5.6-5.7l5.6-0.2c1.8-0.2,3.6,1,4,3C209,441.1,208.9,441.2,209,441.3L209,441.3L209,441.3z"/>
	<path class="st10" d="M208,442.3l-0.2,7.2c-0.1,1.5-1.4,2.7-2.9,2.7l-0.2-0.2l-4.2-0.3c-2.6-0.3-4.5-2.5-4.4-5.1l0.2-2.5
		c0.1-2.6,2.2-4.7,4.8-5h3.9c1.5-0.1,2.9,0.7,3.2,2.2C207.9,441.9,208.2,442.1,208,442.3L208,442.3z"/>
	<path class="st7" d="M245.7,453.8c1.2-1.6,3.6-2.1,5.2-0.9l4.7,3.3c2.4,1.9,3,5.1,1.6,7.7l-2,3.5c-1.6,2.7-4.9,3.5-7.7,2.1
		l-5.1-2.8l-0.3-0.2l0,0c-1.7-1-2.2-3.4-1.1-5.1l0,0L245.7,453.8L245.7,453.8z"/>
	<path class="st8" d="M245.5,453L245.5,453c1.2-1.6,3.6-2.1,5.2-0.9l4.7,3.3c2.5,1.9,3,5.1,1.6,7.7l-2,3.5c-1.6,2.7-4.9,3.5-7.7,2.1
		l-5.1-2.8l-0.7-0.3c-1.4-1.2-1.8-3.4-0.7-4.9L245.5,453L245.5,453z"/>
	<path class="st9" d="M245.6,452.1c1.4-1.6,3.8-1.7,5.4-0.5l4.4,3.1c2.5,1.9,3,5.1,1.6,7.7l-2,3.5c-1.6,2.7-4.9,3.5-7.7,2.1
		l-5.1-2.8l-0.3-0.2l0,0c-1.8-1.2-2.2-3.5-1.2-5.2L245.6,452.1L245.6,452.1z"/>
	<path class="st10" d="M245.6,453.2c1-1.2,2.8-1.2,4-0.3l3.1,2.4c2,1.6,2.6,4.5,1.3,6.7l-1.1,1.9c-1.4,2.4-4.3,3.1-6.6,1.7l-3.9-2
		l0,0c-1.3-0.9-1.7-2.7-0.9-4.2l0,0l3.7-6.3C245.6,453.5,245.6,453.3,245.6,453.2L245.6,453.2L245.6,453.2z"/>
	<circle class="st4" cx="226.1" cy="453.6" r="19.2"/>
	<circle class="st5" cx="225" cy="452.3" r="19.2"/>
	<circle class="st6" cx="223.9" cy="450.7" r="19.2"/>
	<path class="st7" d="M201.5,473.9l-0.4,9.1c-0.2,2-1.9,3.6-3.8,3.7l0,0l-0.3,0.1l-5.7-0.6c-3-0.1-5.3-2.8-5.1-5.9l0,0l0.3-4
		c0.1-3,2.5-5.4,5.6-5.7l5.8-0.5c2-0.1,3.7,1.4,3.8,3.3L201.5,473.9L201.5,473.9L201.5,473.9z"/>
	<path class="st8" d="M200.6,473.8l-0.2,8.9c-0.1,1.9-1.5,3.4-3.3,3.8l-0.5-0.1l-5.7-0.6c-3-0.1-5.3-2.8-5.1-5.9l0,0l0.3-4
		c0.1-3,2.5-5.4,5.6-5.7l5.8-0.5c2-0.1,3.7,1.4,3.9,3.4l0,0L200.6,473.8L200.6,473.8z"/>
	<path class="st9" d="M199.9,473.9l-0.4,9.1c-0.2,2-1.9,3.6-3.8,3.7l0,0l-0.3,0.1l-5.7-0.6c-3-0.1-5.3-2.8-5.1-5.9l0,0l0.3-4
		c0.1-3,2.5-5.4,5.6-5.7l5.6-0.2c1.8-0.2,3.6,1,4,3C199.9,473.7,199.8,473.8,199.9,473.9L199.9,473.9L199.9,473.9z"/>
	<path class="st10" d="M198.8,474.8l-0.2,7.2c-0.1,1.5-1.4,2.7-2.9,2.7l-0.2-0.2l-4.2-0.3c-2.6-0.3-4.5-2.5-4.4-5.1l0.2-2.5
		c0.1-2.6,2.2-4.7,4.8-5h3.9c1.5-0.1,2.9,0.7,3.2,2.2C198.7,474.5,199.1,474.6,198.8,474.8L198.8,474.8z"/>
	<path class="st7" d="M236.5,486.4c1.2-1.6,3.6-2.1,5.2-0.9l4.7,3.3c2.4,1.9,3,5.1,1.6,7.7l-2,3.5c-1.6,2.7-4.9,3.5-7.7,2.1
		l-5.1-2.8l-0.3-0.2l0,0c-1.7-1-2.2-3.4-1.1-5.1l0,0L236.5,486.4L236.5,486.4z"/>
	<path class="st8" d="M236.3,485.6L236.3,485.6c1.2-1.6,3.6-2.1,5.2-0.9l4.7,3.3c2.4,1.9,3,5.1,1.6,7.7l-2,3.5
		c-1.6,2.7-4.9,3.5-7.7,2.1l-5.1-2.8l-0.7-0.3c-1.4-1.2-1.8-3.4-0.7-4.9L236.3,485.6L236.3,485.6z"/>
	<path class="st9" d="M236.4,484.7c1.4-1.6,3.8-1.7,5.4-0.5l4.4,3.1c2.4,1.9,3,5.1,1.6,7.7l-2,3.5c-1.6,2.7-4.9,3.5-7.7,2.1
		l-5.1-2.8l-0.3-0.2l0,0c-1.8-1.2-2.2-3.5-1.2-5.2L236.4,484.7L236.4,484.7z"/>
	<path class="st10" d="M236.4,485.7c1-1.2,2.8-1.2,4-0.3l3.1,2.4c2,1.6,2.6,4.5,1.3,6.7l-1.1,1.9c-1.4,2.4-4.3,3.1-6.6,1.7l-3.9-2
		l0,0c-1.3-0.9-1.7-2.7-0.9-4.2l0,0l3.7-6.3C236.4,486.1,236.5,485.9,236.4,485.7L236.4,485.7L236.4,485.7z"/>
	<path class="st7" d="M208.6,499.1l8.6,2.8c1.8,0.8,3,2.8,2.5,4.7l0,0v0.3l-2.1,5.4c-1.1,2.9-4.2,4.4-7.1,3.3l0,0l-3.7-1.4
		c-2.9-1.1-4.4-4-3.8-7l1.2-5.6c0.4-1.8,2.3-3.2,4.1-2.7L208.6,499.1L208.6,499.1L208.6,499.1z"/>
	<path class="st8" d="M208.2,500l8.5,2.6c1.7,0.6,2.8,2.4,2.7,4.3l-0.2,0.6l-2.1,5.4c-1.1,2.9-4.2,4.4-7.1,3.3l0,0l-3.7-1.4
		c-2.9-1.1-4.4-4-3.8-7l1.2-5.6c0.5-1.9,2.3-3.2,4.3-2.8l0,0L208.2,500L208.2,500z"/>
	<path class="st9" d="M208.2,500.8l8.6,2.8c1.8,0.8,3,2.8,2.5,4.7l0,0v0.3l-2.1,5.4c-1.1,2.9-4.2,4.4-7.1,3.3l0,0l-3.7-1.4
		c-2.9-1.1-4.4-4-3.8-7l1.3-5.4c0.3-1.9,2.1-3.3,4.1-2.9l0,0L208.2,500.8L208.2,500.8z"/>
	<path class="st10" d="M208.8,501.9l6.8,2.2c1.5,0.5,2.3,2.1,1.8,3.6l0,0l-0.3,0.2l-1.5,4c-1,2.4-3.7,3.6-6.2,2.8l-2.3-0.8
		c-2.4-0.9-3.8-3.5-3.4-5.9l0.9-3.8c0.2-1.6,1.5-2.7,3.1-2.5C208.4,501.9,208.6,501.8,208.8,501.9L208.8,501.9z"/>
	<circle class="st4" cx="216.9" cy="486.2" r="19.2"/>
	<circle class="st5" cx="215.8" cy="484.8" r="19.2"/>
	<circle class="st6" cx="214.8" cy="483.3" r="19.2"/>
	<path class="st10" d="M362.4,425.9l16,7.8c0,0,7.9,4.2,5.6,13.1s-17,60.4-17,60.4s-3.5,8.6-14.4,8.4s-16,0-16,0L362.4,425.9z"/>
	<path class="st6" d="M361,425.3l16,7.8c0,0,7.9,4.2,5.6,13.1s-17,60.4-17,60.4s-3.5,8.6-14.4,8.4s-16,0-16,0L361,425.3L361,425.3z"
		/>
</g>
<g id="e">
	<polygon id="area-03.03-status" class="st16" points="469.1,517.6 461.7,710.6 731.5,726.5 740.5,533.9 	"/>
	<polygon id="area-03.01-status" class="st16" points="205.7,218.5 404,279.6 369.8,396.6 172.2,336.1 	"/>
	<polygon id="area-03.02-status" class="st16" points="252.6,66.1 450,122.7 404,279.6 205.7,218.5 	"/>
	<g class="st17">
		<path class="st6" d="M563.9,639.1v-8.6h3.7c0.9,0,1.6,0.1,2,0.2s0.7,0.4,1,0.8s0.4,0.8,0.4,1.4c0,0.6-0.2,1.2-0.6,1.6
			s-0.9,0.7-1.7,0.8c0.4,0.2,0.7,0.5,0.9,0.7s0.6,0.7,1,1.4l1,1.7h-2.1l-1.3-1.9c-0.4-0.7-0.8-1.1-0.9-1.3s-0.3-0.3-0.5-0.4
			s-0.5-0.1-0.9-0.1h-0.4v3.6L563.9,639.1L563.9,639.1z M565.6,634.1h1.3c0.8,0,1.4,0,1.6-0.1s0.4-0.2,0.5-0.4s0.2-0.4,0.2-0.6
			c0-0.3-0.1-0.5-0.2-0.7s-0.4-0.3-0.7-0.3c-0.1,0-0.6,0-1.3,0h-1.4L565.6,634.1L565.6,634.1z"/>
		<path class="st6" d="M572.2,635.9c0-0.5,0.1-1.1,0.4-1.6s0.7-0.9,1.1-1.2s1-0.4,1.7-0.4c0.9,0,1.7,0.3,2.3,0.9s0.9,1.4,0.9,2.3
			c0,0.9-0.3,1.7-0.9,2.3s-1.4,0.9-2.3,0.9c-0.6,0-1.1-0.1-1.6-0.4s-0.9-0.6-1.2-1.1S572.2,636.6,572.2,635.9z M573.8,636
			c0,0.6,0.1,1.1,0.4,1.4s0.7,0.5,1.1,0.5s0.8-0.2,1.1-0.5s0.4-0.8,0.4-1.4c0-0.6-0.1-1.1-0.4-1.4s-0.7-0.5-1.1-0.5
			s-0.8,0.2-1.1,0.5S573.8,635.3,573.8,636z"/>
		<path class="st6" d="M579.5,635.9c0-0.5,0.1-1.1,0.4-1.6s0.7-0.9,1.1-1.2s1-0.4,1.7-0.4c0.9,0,1.7,0.3,2.3,0.9s0.9,1.4,0.9,2.3
			c0,0.9-0.3,1.7-0.9,2.3s-1.4,0.9-2.3,0.9c-0.6,0-1.1-0.1-1.6-0.4s-0.9-0.6-1.2-1.1S579.5,636.6,579.5,635.9z M581.2,636
			c0,0.6,0.1,1.1,0.4,1.4s0.7,0.5,1.1,0.5s0.8-0.2,1.1-0.5s0.4-0.8,0.4-1.4c0-0.6-0.1-1.1-0.4-1.4s-0.7-0.5-1.1-0.5
			s-0.8,0.2-1.1,0.5S581.2,635.3,581.2,636z"/>
		<path class="st6" d="M587.1,632.8h1.5v0.8c0.5-0.7,1.2-1,1.9-1c0.4,0,0.7,0.1,1,0.2s0.5,0.4,0.7,0.7c0.3-0.3,0.6-0.6,0.9-0.7
			s0.7-0.2,1-0.2c0.5,0,0.8,0.1,1.2,0.3s0.6,0.5,0.7,0.8c0.1,0.3,0.2,0.7,0.2,1.3v4h-1.6v-3.6c0-0.6-0.1-1-0.2-1.2
			c-0.2-0.2-0.4-0.4-0.7-0.4c-0.2,0-0.4,0.1-0.7,0.2s-0.3,0.3-0.4,0.6s-0.1,0.7-0.1,1.3v3h-1.6v-3.4c0-0.6,0-1-0.1-1.2
			s-0.1-0.3-0.3-0.4s-0.3-0.1-0.5-0.1c-0.3,0-0.5,0.1-0.7,0.2s-0.3,0.3-0.4,0.6s-0.1,0.7-0.1,1.3v3h-1.6v-6.1H587.1z"/>
		<path class="st6" d="M602.4,639.1l-2.1-8.6h1.8l1.3,5.9l1.6-5.9h2.1l1.5,6l1.3-6h1.7l-2.1,8.6h-1.8l-1.7-6.4l-1.7,6.4H602.4z"/>
		<path class="st6" d="M615.9,637.1l1.6,0.3c-0.2,0.6-0.5,1.1-1,1.4s-1,0.5-1.7,0.5c-1.1,0-1.9-0.4-2.4-1.1
			c-0.4-0.6-0.6-1.3-0.6-2.1c0-1,0.3-1.8,0.8-2.4s1.2-0.9,2-0.9c0.9,0,1.7,0.3,2.2,0.9s0.8,1.5,0.8,2.8h-4.1c0,0.5,0.1,0.9,0.4,1.1
			s0.6,0.4,0.9,0.4c0.3,0,0.5-0.1,0.7-0.2S615.8,637.4,615.9,637.1z M616,635.4c0-0.5-0.1-0.8-0.4-1.1s-0.5-0.4-0.9-0.4
			s-0.7,0.1-0.9,0.4s-0.3,0.6-0.3,1.1H616z"/>
		<path class="st6" d="M620.6,639.1H619v-6.2h1.5v0.9c0.3-0.4,0.5-0.7,0.7-0.8s0.4-0.2,0.7-0.2c0.4,0,0.7,0.1,1.1,0.3l-0.5,1.4
			c-0.3-0.2-0.5-0.3-0.8-0.3c-0.2,0-0.4,0.1-0.6,0.2s-0.3,0.4-0.4,0.7s-0.1,1-0.1,2.1L620.6,639.1L620.6,639.1z"/>
		<path class="st6" d="M629.1,634.7l-1.6,0.3c-0.1-0.3-0.2-0.6-0.4-0.7s-0.4-0.2-0.8-0.2c-0.4,0-0.7,0.1-1,0.4s-0.4,0.8-0.4,1.4
			c0,0.7,0.1,1.3,0.4,1.6s0.6,0.5,1,0.5c0.3,0,0.6-0.1,0.8-0.3s0.3-0.5,0.4-0.9l1.6,0.3c-0.2,0.7-0.5,1.3-1,1.7s-1.1,0.6-1.9,0.6
			c-0.9,0-1.6-0.3-2.2-0.9s-0.8-1.4-0.8-2.4s0.3-1.8,0.8-2.4s1.3-0.9,2.2-0.9c0.8,0,1.4,0.2,1.8,0.5S628.9,634,629.1,634.7z"/>
		<path class="st6" d="M630,635.9c0-0.5,0.1-1.1,0.4-1.6s0.7-0.9,1.1-1.2s1-0.4,1.7-0.4c0.9,0,1.7,0.3,2.3,0.9s0.9,1.4,0.9,2.3
			c0,0.9-0.3,1.7-0.9,2.3s-1.4,0.9-2.3,0.9c-0.6,0-1.1-0.1-1.6-0.4s-0.9-0.6-1.2-1.1S630,636.6,630,635.9z M631.6,636
			c0,0.6,0.1,1.1,0.4,1.4s0.7,0.5,1.1,0.5s0.8-0.2,1.1-0.5s0.4-0.8,0.4-1.4c0-0.6-0.1-1.1-0.4-1.4s-0.7-0.5-1.1-0.5
			s-0.8,0.2-1.1,0.5S631.6,635.3,631.6,636z"/>
		<path class="st6" d="M637.7,639.1v-8.6h1.6v8.6H637.7z"/>
		<path class="st6" d="M641,639.1v-8.6h1.6v8.6H641z"/>
		<path class="st6" d="M644.3,632v-1.5h1.6v1.5H644.3z M644.3,639.1v-6.2h1.6v6.2H644.3z"/>
		<path class="st6" d="M651.3,637.1l1.6,0.3c-0.2,0.6-0.5,1.1-1,1.4s-1,0.5-1.7,0.5c-1.1,0-1.9-0.4-2.4-1.1
			c-0.4-0.6-0.6-1.3-0.6-2.1c0-1,0.3-1.8,0.8-2.4s1.2-0.9,2-0.9c0.9,0,1.7,0.3,2.2,0.9s0.8,1.5,0.8,2.8h-4.1c0,0.5,0.1,0.9,0.4,1.1
			s0.6,0.4,0.9,0.4c0.3,0,0.5-0.1,0.7-0.2S651.2,637.4,651.3,637.1z M651.4,635.4c0-0.5-0.1-0.8-0.4-1.1s-0.5-0.4-0.9-0.4
			s-0.7,0.1-0.9,0.4s-0.3,0.6-0.3,1.1H651.4z"/>
		<path class="st6" d="M655.9,639.1h-1.6v-6.2h1.5v0.9c0.3-0.4,0.5-0.7,0.7-0.8s0.4-0.2,0.7-0.2c0.4,0,0.7,0.1,1.1,0.3l-0.5,1.4
			c-0.3-0.2-0.5-0.3-0.8-0.3c-0.2,0-0.4,0.1-0.6,0.2s-0.3,0.4-0.4,0.7s-0.1,1-0.1,2.1L655.9,639.1L655.9,639.1z"/>
	</g>
	<g class="st17">
		<path class="st6" d="M251.8,308.7v-7.1h-2.5v-1.5h6.8v1.5h-2.5v7.1H251.8z"/>
		<path class="st6" d="M259.9,306.7l1.6,0.3c-0.2,0.6-0.5,1.1-1,1.4s-1,0.5-1.7,0.5c-1.1,0-1.9-0.4-2.4-1.1
			c-0.4-0.6-0.6-1.3-0.6-2.1c0-1,0.3-1.8,0.8-2.4s1.2-0.9,2-0.9c0.9,0,1.7,0.3,2.2,0.9s0.8,1.5,0.8,2.8h-4.1c0,0.5,0.1,0.9,0.4,1.1
			s0.6,0.4,0.9,0.4s0.5-0.1,0.7-0.2S259.8,307,259.9,306.7z M260,305c0-0.5-0.1-0.8-0.4-1.1s-0.5-0.4-0.9-0.4s-0.7,0.1-0.9,0.4
			s-0.3,0.6-0.3,1.1H260z"/>
		<path class="st6" d="M264.2,304.4l-1.5-0.3c0.2-0.6,0.5-1,0.9-1.3s1-0.4,1.8-0.4c0.7,0,1.3,0.1,1.6,0.3s0.6,0.4,0.8,0.7
			s0.2,0.8,0.2,1.5v1.9c0,0.5,0,1,0.1,1.2s0.2,0.5,0.3,0.8h-1.6c0-0.1-0.1-0.3-0.2-0.5c0-0.1,0-0.2-0.1-0.2
			c-0.3,0.3-0.6,0.5-0.9,0.6s-0.7,0.2-1,0.2c-0.6,0-1.1-0.2-1.5-0.5s-0.6-0.8-0.6-1.3c0-0.4,0.1-0.7,0.3-0.9s0.4-0.5,0.7-0.6
			s0.7-0.3,1.3-0.4c0.8-0.1,1.3-0.3,1.6-0.4v-0.2c0-0.3-0.1-0.5-0.2-0.7s-0.5-0.2-0.9-0.2c-0.3,0-0.5,0.1-0.7,0.2
			S264.3,304.1,264.2,304.4z M266.4,305.7c-0.2,0.1-0.5,0.2-1,0.3s-0.8,0.2-0.9,0.3c-0.2,0.2-0.3,0.3-0.3,0.6c0,0.2,0.1,0.4,0.3,0.6
			s0.4,0.3,0.7,0.3c0.3,0,0.6-0.1,0.8-0.3c0.2-0.1,0.3-0.3,0.4-0.5c0-0.1,0.1-0.4,0.1-0.8v-0.5H266.4z"/>
		<path class="st6" d="M269.5,302.5h1.5v0.8c0.5-0.7,1.2-1,1.9-1c0.4,0,0.7,0.1,1,0.2s0.5,0.4,0.7,0.7c0.3-0.3,0.6-0.6,0.9-0.7
			s0.7-0.2,1-0.2c0.5,0,0.8,0.1,1.2,0.3s0.6,0.5,0.7,0.8s0.2,0.7,0.2,1.3v4H277v-3.6c0-0.6-0.1-1-0.2-1.2c-0.2-0.2-0.4-0.4-0.7-0.4
			c-0.2,0-0.4,0.1-0.7,0.2s-0.3,0.3-0.4,0.6s-0.1,0.7-0.1,1.3v3h-1.6v-3.4c0-0.6,0-1-0.1-1.2s-0.1-0.3-0.3-0.4s-0.3-0.1-0.5-0.1
			c-0.3,0-0.5,0.1-0.7,0.2s-0.3,0.3-0.4,0.6s-0.1,0.7-0.1,1.3v3h-1.6L269.5,302.5L269.5,302.5z"/>
		<path class="st6" d="M283.6,308.7v-8.6h3.7c0.9,0,1.6,0.1,2,0.2s0.7,0.4,1,0.8s0.4,0.8,0.4,1.4s-0.2,1.2-0.6,1.6s-0.9,0.7-1.7,0.8
			c0.4,0.2,0.7,0.5,0.9,0.7s0.6,0.7,1,1.4l1,1.7h-2.1l-1.3-1.9c-0.4-0.7-0.8-1.1-0.9-1.3s-0.3-0.3-0.5-0.4s-0.5-0.1-0.9-0.1h-0.4
			v3.6L283.6,308.7L283.6,308.7z M285.4,303.7h1.3c0.8,0,1.4,0,1.6-0.1s0.4-0.2,0.5-0.4s0.2-0.4,0.2-0.6c0-0.3-0.1-0.5-0.2-0.7
			s-0.4-0.3-0.7-0.3c-0.1,0-0.6,0-1.3,0h-1.4V303.7z"/>
		<path class="st6" d="M291.9,305.5c0-0.5,0.1-1.1,0.4-1.6s0.7-0.9,1.1-1.2s1-0.4,1.7-0.4c0.9,0,1.7,0.3,2.3,0.9s0.9,1.4,0.9,2.3
			s-0.3,1.7-0.9,2.3s-1.4,0.9-2.3,0.9c-0.6,0-1.1-0.1-1.6-0.4s-0.9-0.6-1.2-1.1S291.9,306.2,291.9,305.5z M293.6,305.6
			c0,0.6,0.1,1.1,0.4,1.4s0.7,0.5,1.1,0.5s0.8-0.2,1.1-0.5s0.4-0.8,0.4-1.4s-0.1-1.1-0.4-1.4s-0.7-0.5-1.1-0.5s-0.8,0.2-1.1,0.5
			S293.6,304.9,293.6,305.6z"/>
		<path class="st6" d="M299.2,305.5c0-0.5,0.1-1.1,0.4-1.6s0.7-0.9,1.1-1.2s1-0.4,1.7-0.4c0.9,0,1.7,0.3,2.3,0.9s0.9,1.4,0.9,2.3
			s-0.3,1.7-0.9,2.3s-1.4,0.9-2.3,0.9c-0.6,0-1.1-0.1-1.6-0.4s-0.9-0.6-1.2-1.1S299.2,306.2,299.2,305.5z M300.9,305.6
			c0,0.6,0.1,1.1,0.4,1.4s0.7,0.5,1.1,0.5s0.8-0.2,1.1-0.5s0.4-0.8,0.4-1.4s-0.1-1.1-0.4-1.4s-0.7-0.5-1.1-0.5s-0.8,0.2-1.1,0.5
			S300.9,304.9,300.9,305.6z"/>
		<path class="st6" d="M306.8,302.5h1.5v0.8c0.5-0.7,1.2-1,1.9-1c0.4,0,0.7,0.1,1,0.2s0.5,0.4,0.7,0.7c0.3-0.3,0.6-0.6,0.9-0.7
			s0.7-0.2,1-0.2c0.5,0,0.8,0.1,1.2,0.3s0.6,0.5,0.7,0.8s0.2,0.7,0.2,1.3v4h-1.6v-3.6c0-0.6-0.1-1-0.2-1.2c-0.2-0.2-0.4-0.4-0.7-0.4
			c-0.2,0-0.4,0.1-0.7,0.2s-0.3,0.3-0.4,0.6s-0.1,0.7-0.1,1.3v3h-1.6v-3.4c0-0.6,0-1-0.1-1.2s-0.1-0.3-0.3-0.4s-0.3-0.1-0.5-0.1
			c-0.3,0-0.5,0.1-0.7,0.2s-0.3,0.3-0.4,0.6s-0.1,0.7-0.1,1.3v3h-1.6L306.8,302.5L306.8,302.5z"/>
		<path class="st6" d="M324.8,308.7h-1.6v-6.2c-0.6,0.6-1.3,1-2.1,1.2v-1.5c0.4-0.1,0.9-0.4,1.4-0.8s0.8-0.9,1-1.4h1.3L324.8,308.7
			L324.8,308.7z"/>
	</g>
	<g class="st17">
		<path class="st6" d="M290.9,179.2v-7.1h-2.5v-1.5h6.8v1.5h-2.5v7.1H290.9z"/>
		<path class="st6" d="M299,177.3l1.6,0.3c-0.2,0.6-0.5,1.1-1,1.4s-1,0.5-1.7,0.5c-1.1,0-1.9-0.4-2.4-1.1c-0.4-0.6-0.6-1.3-0.6-2.1
			c0-1,0.3-1.8,0.8-2.4s1.2-0.9,2-0.9c0.9,0,1.7,0.3,2.2,0.9s0.8,1.5,0.8,2.8h-4.1c0,0.5,0.1,0.9,0.4,1.1s0.6,0.4,0.9,0.4
			s0.5-0.1,0.7-0.2S298.9,177.6,299,177.3z M299.1,175.6c0-0.5-0.1-0.8-0.4-1.1s-0.5-0.4-0.9-0.4s-0.7,0.1-0.9,0.4s-0.3,0.6-0.3,1.1
			H299.1z"/>
		<path class="st6" d="M303.3,174.9l-1.5-0.3c0.2-0.6,0.5-1,0.9-1.3s1-0.4,1.8-0.4c0.7,0,1.3,0.1,1.6,0.3s0.6,0.4,0.8,0.7
			s0.2,0.8,0.2,1.5v1.9c0,0.5,0,1,0.1,1.2s0.2,0.5,0.3,0.8h-1.6c0-0.1-0.1-0.3-0.2-0.5c0-0.1,0-0.2-0.1-0.2
			c-0.3,0.3-0.6,0.5-0.9,0.6s-0.7,0.2-1,0.2c-0.6,0-1.1-0.2-1.5-0.5s-0.6-0.8-0.6-1.3c0-0.4,0.1-0.7,0.3-0.9s0.4-0.5,0.7-0.6
			s0.7-0.3,1.3-0.4c0.8-0.1,1.3-0.3,1.6-0.4V175c0-0.3-0.1-0.5-0.2-0.7s-0.5-0.2-0.9-0.2c-0.3,0-0.5,0.1-0.7,0.2
			S303.4,174.6,303.3,174.9z M305.5,176.3c-0.2,0.1-0.5,0.2-1,0.3s-0.8,0.2-0.9,0.3c-0.2,0.2-0.3,0.3-0.3,0.6c0,0.2,0.1,0.4,0.3,0.6
			s0.4,0.3,0.7,0.3c0.3,0,0.6-0.1,0.8-0.3c0.2-0.1,0.3-0.3,0.4-0.5c0-0.1,0.1-0.4,0.1-0.8v-0.5H305.5z"/>
		<path class="st6" d="M308.6,173h1.5v0.8c0.5-0.7,1.2-1,1.9-1c0.4,0,0.7,0.1,1,0.2s0.5,0.4,0.7,0.7c0.3-0.3,0.6-0.6,0.9-0.7
			s0.7-0.2,1-0.2c0.5,0,0.8,0.1,1.2,0.3s0.6,0.5,0.7,0.8s0.2,0.7,0.2,1.3v4h-1.6v-3.6c0-0.6-0.1-1-0.2-1.2c-0.2-0.2-0.4-0.4-0.7-0.4
			c-0.2,0-0.4,0.1-0.7,0.2s-0.3,0.3-0.4,0.6s-0.1,0.7-0.1,1.3v3h-1.6v-3.4c0-0.6,0-1-0.1-1.2s-0.1-0.3-0.3-0.4s-0.3-0.1-0.5-0.1
			c-0.3,0-0.5,0.1-0.7,0.2s-0.3,0.3-0.4,0.6s-0.1,0.7-0.1,1.3v3h-1.6L308.6,173L308.6,173z"/>
		<path class="st6" d="M322.8,179.2v-8.6h3.7c0.9,0,1.6,0.1,2,0.2s0.7,0.4,1,0.8s0.4,0.8,0.4,1.4c0,0.6-0.2,1.2-0.6,1.6
			s-0.9,0.7-1.7,0.8c0.4,0.2,0.7,0.5,0.9,0.7s0.6,0.7,1,1.4l1,1.7h-2.1l-1.3-1.9c-0.4-0.7-0.8-1.1-0.9-1.3s-0.3-0.3-0.5-0.4
			s-0.5-0.1-0.9-0.1h-0.4v3.6h-1.6V179.2z M324.5,174.3h1.3c0.8,0,1.4,0,1.6-0.1s0.4-0.2,0.5-0.4s0.2-0.4,0.2-0.6
			c0-0.3-0.1-0.5-0.2-0.7s-0.4-0.3-0.7-0.3c-0.1,0-0.6,0-1.3,0h-1.4V174.3z"/>
		<path class="st6" d="M331,176c0-0.5,0.1-1.1,0.4-1.6s0.7-0.9,1.1-1.2s1-0.4,1.7-0.4c0.9,0,1.7,0.3,2.3,0.9s0.9,1.4,0.9,2.3
			c0,0.9-0.3,1.7-0.9,2.3s-1.4,0.9-2.3,0.9c-0.6,0-1.1-0.1-1.6-0.4s-0.9-0.6-1.2-1.1S331,176.8,331,176z M332.7,176.1
			c0,0.6,0.1,1.1,0.4,1.4s0.7,0.5,1.1,0.5s0.8-0.2,1.1-0.5s0.4-0.8,0.4-1.4c0-0.6-0.1-1.1-0.4-1.4s-0.7-0.5-1.1-0.5
			s-0.8,0.2-1.1,0.5S332.7,175.5,332.7,176.1z"/>
		<path class="st6" d="M338.4,176c0-0.5,0.1-1.1,0.4-1.6s0.7-0.9,1.1-1.2s1-0.4,1.7-0.4c0.9,0,1.7,0.3,2.3,0.9s0.9,1.4,0.9,2.3
			c0,0.9-0.3,1.7-0.9,2.3s-1.4,0.9-2.3,0.9c-0.6,0-1.1-0.1-1.6-0.4s-0.9-0.6-1.2-1.1S338.4,176.8,338.4,176z M340.1,176.1
			c0,0.6,0.1,1.1,0.4,1.4s0.7,0.5,1.1,0.5s0.8-0.2,1.1-0.5s0.4-0.8,0.4-1.4c0-0.6-0.1-1.1-0.4-1.4s-0.7-0.5-1.1-0.5
			s-0.8,0.2-1.1,0.5S340.1,175.5,340.1,176.1z"/>
		<path class="st6" d="M346,173h1.5v0.8c0.5-0.7,1.2-1,1.9-1c0.4,0,0.7,0.1,1,0.2s0.5,0.4,0.7,0.7c0.3-0.3,0.6-0.6,0.9-0.7
			s0.7-0.2,1-0.2c0.5,0,0.8,0.1,1.2,0.3s0.6,0.5,0.7,0.8s0.2,0.7,0.2,1.3v4h-1.6v-3.6c0-0.6-0.1-1-0.2-1.2c-0.2-0.2-0.4-0.4-0.7-0.4
			c-0.2,0-0.4,0.1-0.7,0.2s-0.3,0.3-0.4,0.6s-0.1,0.7-0.1,1.3v3h-1.6v-3.4c0-0.6,0-1-0.1-1.2s-0.1-0.3-0.3-0.4s-0.3-0.1-0.5-0.1
			c-0.3,0-0.5,0.1-0.7,0.2s-0.3,0.3-0.4,0.6s-0.1,0.7-0.1,1.3v3H346V173z"/>
		<path class="st6" d="M365.3,177.7v1.5h-5.8c0.1-0.6,0.2-1.1,0.6-1.6s0.9-1.2,1.9-2.1c0.7-0.7,1.2-1.2,1.4-1.4
			c0.2-0.3,0.3-0.7,0.3-1c0-0.4-0.1-0.6-0.3-0.8s-0.5-0.3-0.8-0.3s-0.6,0.1-0.8,0.3s-0.3,0.6-0.4,1l-1.6-0.2c0.1-0.9,0.4-1.6,0.9-2
			s1.2-0.6,1.9-0.6c0.8,0,1.5,0.2,2,0.7s0.7,1,0.7,1.7c0,0.4-0.1,0.8-0.2,1.1s-0.4,0.7-0.7,1.1c-0.2,0.3-0.6,0.6-1.1,1.1
			s-0.8,0.8-1,0.9s-0.3,0.3-0.3,0.5h3.3V177.7z"/>
	</g>
</g>
<g id="f">
	<polyline class="st18" points="455.9,826.9 454.8,846.6 362.3,840.4 367.9,743 	"/>
	<polyline class="st18" points="238.7,704.5 240.2,667.1 263,667.1 267.8,583.9 239.5,582.3 189.8,611.9 160.8,550.5 147.7,497.4 
		147.7,433.9 252.6,66.1 450,122.7 431.3,179.2 490,187.5 538.3,203.4 586.6,233.8 628.7,269.6 657.7,314.5 680.5,364.2 
		693.6,415.3 697,472.5 686.7,530.5 740.5,533.9 731.5,726.5 461.7,710.6 	"/>
	<line class="st19" x1="416.1" y1="237.1" x2="431.3" y2="179.2"/>
	<line class="st19" x1="406.3" y1="271.6" x2="401.7" y2="287.5"/>
	<polyline class="st19" points="404,279.6 208.5,220.7 175.3,337.3 369.8,396.6 390.9,323 	"/>
	<polyline class="st19" points="469.1,532 469.1,517.6 686.7,530.5 	"/>
	<line class="st19" x1="469.1" y1="559.8" x2="461.4" y2="715.7"/>
	<polyline class="st18" points="263,667.1 383.7,673.5 387.6,590.7 267.8,583.9 	"/>
	<path class="st19" d="M432.9,384.5c0,0,72.3,32.3,36.2,133.1"/>
</g>
<g id="g">
	
		<ellipse transform="matrix(0.9239 -0.3827 0.3827 0.9239 -251.2861 262.8997)" class="st20" cx="535.2" cy="763.1" rx="24.1" ry="24.1"/>
	<g>
		<path class="st21" d="M519.1,802.2l1.2-0.1c0,0.4,0.2,0.8,0.4,1.2c0.2,0.3,0.6,0.6,1,0.7c0.5,0.2,1,0.3,1.5,0.3
			c0.4,0,0.9-0.1,1.3-0.2c0.3-0.1,0.6-0.3,0.8-0.6c0.2-0.2,0.3-0.5,0.3-0.8s-0.1-0.6-0.3-0.8c-0.2-0.3-0.5-0.5-0.9-0.6
			c-0.6-0.2-1.1-0.3-1.7-0.5c-0.6-0.1-1.3-0.3-1.8-0.6c-0.4-0.2-0.8-0.5-1-0.9s-0.3-0.8-0.3-1.2c0-0.5,0.1-1,0.4-1.4
			c0.3-0.4,0.7-0.8,1.2-1c0.6-0.2,1.2-0.3,1.8-0.3s1.3,0.1,1.9,0.3c0.5,0.2,0.9,0.6,1.3,1c0.3,0.4,0.5,1,0.5,1.5l-1.2,0.1
			c0-0.5-0.3-1-0.7-1.4c-0.5-0.3-1.1-0.5-1.7-0.5c-0.6,0-1.2,0.1-1.7,0.4c-0.3,0.2-0.5,0.6-0.5,1c0,0.3,0.1,0.6,0.4,0.8
			c0.6,0.4,1.2,0.6,1.9,0.7c0.7,0.1,1.4,0.3,2.1,0.6c0.5,0.2,0.9,0.5,1.2,1c0.3,0.4,0.4,0.9,0.4,1.4s-0.2,1-0.4,1.4
			c-0.3,0.5-0.7,0.8-1.3,1.1s-1.2,0.4-1.8,0.4c-0.7,0-1.5-0.1-2.2-0.4c-0.6-0.2-1-0.6-1.4-1.1C519.3,803.4,519.1,802.8,519.1,802.2
			L519.1,802.2z"/>
		<path class="st21" d="M530.9,804.2l0.2,1c-0.3,0.1-0.6,0.1-0.9,0.1c-0.3,0-0.7-0.1-1-0.2c-0.2-0.1-0.4-0.3-0.5-0.5
			c-0.1-0.5-0.2-0.9-0.1-1.4v-4h-0.9v-0.9h0.9v-1.7l1.2-0.7v2.4h1.2v0.9h-1.2v4.1c0,0.2,0,0.4,0.1,0.6c0,0.1,0.1,0.2,0.2,0.2
			c0.1,0.1,0.3,0.1,0.4,0.1C530.6,804.2,530.7,804.2,530.9,804.2L530.9,804.2z"/>
		<path class="st21" d="M536.6,804.4c-0.4,0.3-0.8,0.6-1.3,0.8c-0.4,0.2-0.9,0.2-1.3,0.2c-0.6,0-1.3-0.2-1.8-0.6
			c-0.4-0.4-0.6-0.9-0.6-1.4c0-0.3,0.1-0.6,0.2-0.9c0.1-0.3,0.4-0.5,0.6-0.7c0.3-0.2,0.5-0.3,0.8-0.4c0.3-0.1,0.7-0.1,1-0.2
			c0.7-0.1,1.4-0.2,2.1-0.4v-0.3c0-0.4-0.1-0.7-0.3-1c-0.4-0.3-0.9-0.4-1.3-0.4c-0.4,0-0.9,0.1-1.2,0.3c-0.3,0.3-0.5,0.6-0.6,1
			l-1.2-0.2c0.1-0.4,0.3-0.8,0.5-1.2c0.3-0.3,0.6-0.6,1-0.7c0.5-0.2,1-0.3,1.6-0.2c0.5,0,1,0.1,1.4,0.2c0.3,0.1,0.6,0.3,0.8,0.5
			s0.3,0.5,0.4,0.8c0,0.4,0.1,0.7,0.1,1.1v1.6c0,0.7,0,1.4,0.1,2.1c0.1,0.3,0.2,0.6,0.3,0.8h-1.2C536.7,805,536.6,804.7,536.6,804.4
			L536.6,804.4z M536.5,801.7c-0.6,0.2-1.3,0.4-1.9,0.4c-0.4,0-0.7,0.1-1,0.2c-0.2,0.1-0.4,0.2-0.5,0.4c-0.3,0.4-0.2,1,0.2,1.3
			c0.3,0.2,0.7,0.3,1,0.3c0.4,0,0.8-0.1,1.2-0.3c0.3-0.2,0.6-0.5,0.8-0.8c0.1-0.4,0.2-0.8,0.2-1.2V801.7L536.5,801.7z"/>
		<path class="st21" d="M539.5,797v-1.4h1.2v1.4H539.5z M539.5,805.2v-6.9h1.2v6.9H539.5z"/>
		<path class="st21" d="M542.5,805.2v-6.9h1.1v1.1c0.2-0.4,0.4-0.7,0.7-1c0.2-0.2,0.5-0.2,0.8-0.2c0.4,0,0.8,0.1,1.2,0.4l-0.4,1.1
			c-0.3-0.2-0.6-0.2-0.9-0.3c-0.3,0-0.5,0.1-0.7,0.2c-0.2,0.2-0.4,0.4-0.4,0.6c-0.1,0.4-0.2,0.9-0.2,1.4v3.6L542.5,805.2
			L542.5,805.2z"/>
		<path class="st21" d="M546.5,803.2l1.2-0.2c0,0.4,0.2,0.8,0.5,1.1c0.4,0.3,0.8,0.4,1.3,0.4c0.4,0,0.9-0.1,1.2-0.3
			c0.2-0.2,0.4-0.5,0.4-0.8s-0.1-0.5-0.3-0.6c-0.4-0.2-0.8-0.3-1.2-0.4c-0.6-0.1-1.2-0.3-1.8-0.6s-1-0.9-1-1.6
			c0-0.3,0.1-0.6,0.2-0.9c0.1-0.3,0.3-0.5,0.6-0.7c0.2-0.2,0.5-0.3,0.7-0.3c0.3-0.1,0.7-0.1,1-0.1c0.5,0,1,0.1,1.4,0.2
			c0.4,0.1,0.7,0.3,0.9,0.6s0.4,0.7,0.4,1.1l-1.2,0.2c0-0.3-0.2-0.6-0.5-0.8s-0.7-0.3-1.1-0.3c-0.4,0-0.8,0.1-1.2,0.3
			c-0.2,0.1-0.3,0.4-0.3,0.6c0,0.2,0,0.3,0.1,0.4c0.1,0.1,0.3,0.3,0.5,0.3c0.1,0,0.5,0.1,1,0.3c0.6,0.1,1.2,0.3,1.7,0.5
			c0.3,0.1,0.6,0.3,0.8,0.6s0.3,0.7,0.3,1c0,0.4-0.1,0.8-0.3,1.1c-0.2,0.4-0.6,0.6-1,0.8c-0.5,0.2-1,0.3-1.5,0.3
			c-0.7,0-1.5-0.1-2.1-0.6C546.9,804.4,546.6,803.8,546.5,803.2L546.5,803.2z"/>
	</g>
	<g id="h">
		<line class="st22" x1="525.9" y1="771.2" x2="542.8" y2="771.2"/>
		<polyline class="st22" points="539.8,771.2 539.8,768.2 536.9,768.2 536.9,765.3 533.9,765.3 533.9,762.3 531,762.3 531,759.4 
			525.9,759.4 		"/>
		<line class="st22" x1="534.7" y1="754.3" x2="543.8" y2="763.4"/>
		<polyline class="st22" points="534.7,758 534.7,754.3 538.5,754.3 		"/>
		<polyline class="st22" points="543.8,759.9 543.8,763.4 540.4,763.4 		"/>
	</g>
	<circle class="st20" cx="452.3" cy="204.4" r="15.2"/>
	<g>
		<path class="st21" d="M433.1,231v-6h2.3c0.3,0,0.6,0,0.9,0.1c0.3,0,0.5,0.1,0.7,0.3c0.2,0.1,0.4,0.4,0.5,0.6
			c0.3,0.7,0.2,1.5-0.3,2.1c-0.5,0.4-1.1,0.6-1.8,0.5h-1.5v2.5h-0.8V231z M433.9,227.8h1.6c0.4,0,0.8-0.1,1.1-0.3
			c0.2-0.2,0.3-0.5,0.3-0.8c0-0.2-0.1-0.5-0.2-0.6c-0.1-0.2-0.3-0.3-0.5-0.4c-0.2,0-0.5-0.1-0.7-0.1H434L433.9,227.8L433.9,227.8z"
			/>
		<path class="st21" d="M438.7,231v-4.4h0.7v0.7c0.1-0.2,0.3-0.4,0.5-0.6c0.1-0.1,0.3-0.1,0.5-0.1c0.3,0,0.5,0.1,0.8,0.2l-0.3,0.7
			c-0.2-0.1-0.4-0.2-0.5-0.2c-0.2,0-0.3,0-0.4,0.1s-0.2,0.2-0.3,0.4c-0.1,0.3-0.1,0.6-0.1,0.9v2.3L438.7,231L438.7,231z"/>
		<path class="st21" d="M441.2,228.8c-0.1-0.7,0.2-1.3,0.7-1.8c0.4-0.3,0.9-0.5,1.4-0.5c0.6,0,1.1,0.2,1.5,0.6
			c0.4,0.4,0.6,1,0.6,1.6c0,0.5-0.1,0.9-0.3,1.3c-0.2,0.3-0.4,0.6-0.7,0.8c-0.3,0.2-0.7,0.3-1.1,0.3c-0.6,0-1.1-0.2-1.5-0.6
			C441.4,230,441.2,229.4,441.2,228.8L441.2,228.8z M442,228.8c0,0.4,0.1,0.9,0.4,1.3c0.4,0.5,1.2,0.6,1.7,0.1l0.1-0.1
			c0.3-0.4,0.4-0.8,0.4-1.3c0-0.4-0.1-0.9-0.4-1.2c-0.4-0.5-1.2-0.6-1.7-0.1l-0.1,0.1C442,227.9,441.9,228.3,442,228.8L442,228.8
			L442,228.8z"/>
		<path class="st21" d="M449,231v-0.6c-0.3,0.4-0.7,0.7-1.2,0.6c-0.3,0-0.7-0.1-1-0.3s-0.5-0.5-0.7-0.8c-0.2-0.4-0.2-0.8-0.2-1.2
			s0.1-0.8,0.2-1.2c0.1-0.3,0.4-0.6,0.7-0.8c0.3-0.2,0.6-0.3,1-0.3c0.5,0,0.9,0.2,1.2,0.6v-2.2h0.7v6L449,231L449,231z M446.6,228.8
			c0,0.4,0.1,0.9,0.4,1.3c0.2,0.3,0.5,0.4,0.8,0.4s0.6-0.1,0.8-0.4c0.3-0.4,0.4-0.8,0.3-1.2c0-0.5-0.1-0.9-0.3-1.3
			c-0.2-0.3-0.5-0.4-0.9-0.4c-0.3,0-0.6,0.1-0.8,0.4S446.6,228.3,446.6,228.8L446.6,228.8z"/>
		<path class="st21" d="M453.7,231v-0.6c-0.3,0.5-0.8,0.8-1.4,0.7c-0.2,0-0.5,0-0.7-0.1s-0.4-0.2-0.5-0.4s-0.2-0.4-0.2-0.5
			c0-0.2-0.1-0.5,0-0.7v-2.7h0.7v2.4c0,0.3,0,0.5,0,0.8c0,0.2,0.1,0.3,0.3,0.5c0.2,0.1,0.4,0.2,0.6,0.2s0.4-0.1,0.6-0.2
			c0.2-0.1,0.3-0.3,0.4-0.5c0.1-0.3,0.1-0.6,0.1-0.9v-2.3h0.7v4.4L453.7,231L453.7,231z"/>
		<path class="st21" d="M458.4,229.4l0.7,0.1c-0.1,0.5-0.3,0.9-0.6,1.2c-0.3,0.3-0.8,0.4-1.2,0.4c-0.5,0-1.1-0.2-1.4-0.6
			c-0.4-0.5-0.6-1.1-0.5-1.7c0-0.4,0.1-0.8,0.2-1.2c0.1-0.3,0.4-0.6,0.7-0.8c0.3-0.2,0.7-0.3,1-0.3c0.4,0,0.8,0.1,1.2,0.4
			c0.3,0.3,0.5,0.6,0.6,1l-0.7,0.1c0-0.3-0.2-0.5-0.4-0.7c-0.2-0.1-0.4-0.2-0.6-0.2c-0.3,0-0.7,0.1-0.9,0.4
			c-0.3,0.4-0.4,0.8-0.4,1.3s0.1,0.9,0.3,1.3c0.2,0.3,0.5,0.4,0.9,0.4c0.3,0,0.5-0.1,0.7-0.3C458.2,230,458.4,229.7,458.4,229.4
			L458.4,229.4z"/>
		<path class="st21" d="M461.4,230.3l0.1,0.7c-0.2,0-0.4,0.1-0.6,0.1s-0.4,0-0.6-0.1c-0.1-0.1-0.2-0.2-0.3-0.3
			c-0.1-0.3-0.1-0.6-0.1-0.9v-2.5h-0.5v-0.6h0.5v-1.1l0.7-0.4v1.5h0.7v0.6h-0.7v2.6c0,0.1,0,0.3,0,0.4c0,0.1,0.1,0.1,0.1,0.1
			c0.1,0,0.2,0.1,0.3,0.1C461.1,230.3,461.2,230.3,461.4,230.3L461.4,230.3z"/>
		<path class="st21" d="M462.1,225.8v-0.9h0.7v0.9H462.1z M462.1,231v-4.4h0.7v4.4H462.1z"/>
		<path class="st21" d="M463.7,228.8c-0.1-0.7,0.2-1.3,0.7-1.8c0.4-0.3,0.9-0.5,1.4-0.5c0.6,0,1.1,0.2,1.5,0.6
			c0.4,0.4,0.6,1,0.6,1.6c0,0.5-0.1,0.9-0.3,1.3c-0.2,0.3-0.4,0.6-0.7,0.8c-0.3,0.2-0.7,0.3-1.1,0.3c-0.6,0-1.1-0.2-1.5-0.6
			C463.8,230,463.6,229.4,463.7,228.8L463.7,228.8z M464.4,228.8c0,0.4,0.1,0.9,0.4,1.3c0.4,0.5,1.2,0.6,1.7,0.1l0.1-0.1
			c0.3-0.4,0.4-0.8,0.4-1.3c0-0.4-0.1-0.9-0.4-1.2c-0.4-0.5-1.2-0.6-1.7-0.1l-0.1,0.1C464.5,227.9,464.4,228.3,464.4,228.8
			L464.4,228.8z"/>
		<path class="st21" d="M468.6,231v-4.4h0.7v0.6c0.3-0.5,0.8-0.7,1.4-0.7c0.2,0,0.5,0,0.7,0.1s0.4,0.2,0.5,0.4s0.2,0.4,0.2,0.5
			c0,0.2,0,0.5,0,0.7v2.7h-0.7v-2.7c0-0.2,0-0.5-0.1-0.7c-0.1-0.1-0.2-0.3-0.3-0.4c-0.2-0.1-0.3-0.1-0.5-0.1c-0.3,0-0.6,0.1-0.8,0.3
			c-0.3,0.3-0.4,0.7-0.3,1.1v2.4L468.6,231L468.6,231z"/>
	</g>
	<g id="i">
		<g id="j">
			<path class="st22" d="M449.6,208.1h-1.5c-0.5,0-1-0.5-1-1v-2.9c0-0.5,0.5-1,1-1h8.9c0.5,0,1,0.4,1,0.9v0.1l0,0v2.9
				c0,0.5-0.5,1-1,1h-1.3"/>
			<polyline class="st22" points="449.6,202.4 449.6,200.6 454.5,200.6 455.9,201.9 455.9,202.4 			"/>
			<rect x="449.6" y="206.6" class="st22" width="6.1" height="3.7"/>
			<circle class="st22" cx="448.8" cy="204.8" r="0.5"/>
			<line class="st22" x1="450.6" y1="207.6" x2="454.8" y2="207.6"/>
			<line class="st22" x1="450.6" y1="208.7" x2="454.8" y2="208.7"/>
			<line class="st22" x1="450.6" y1="209.5" x2="454.8" y2="209.5"/>
			<polyline class="st22" points="454.5,200.6 454.5,201.9 455.9,201.9 			"/>
		</g>
	</g>
	<circle class="st20" cx="321.5" cy="615.5" r="23.6"/>
	<g>
		<path class="st21" d="M314.2,656.7v-9.4h1.2v8.3h4.6v1.1L314.2,656.7L314.2,656.7z"/>
		<path class="st21" d="M321.4,648.7v-1.3h1.2v1.3H321.4z M321.4,656.7v-6.8h1.2v6.8H321.4z"/>
		<path class="st21" d="M324.6,656.7v-5.9h-1v-0.9h1v-0.7c0-0.3,0-0.7,0.1-1s0.3-0.6,0.6-0.7c0.4-0.2,0.8-0.3,1.2-0.3
			c0.4,0,0.7,0,1.1,0.1l-0.2,1c-0.2,0-0.5-0.1-0.7-0.1c-0.3,0-0.5,0.1-0.7,0.2c-0.2,0.2-0.3,0.5-0.2,0.8v0.6h1.3v0.9h-1.3v5.9
			L324.6,656.7L324.6,656.7z"/>
		<path class="st21" d="M330.4,655.7l0.2,1c-0.3,0.1-0.6,0.1-0.9,0.1s-0.7-0.1-1-0.2c-0.2-0.1-0.4-0.3-0.5-0.5
			c-0.1-0.4-0.2-0.9-0.1-1.4v-3.9h-0.8v-0.9h0.8v-1.7l1.1-0.7v2.4h1.2v0.9h-1.2v4c0,0.2,0,0.4,0.1,0.6c0,0.1,0.1,0.2,0.2,0.2
			c0.1,0.1,0.3,0.1,0.4,0.1C330.1,655.8,330.3,655.7,330.4,655.7L330.4,655.7z"/>
	</g>
	<path class="st23" d="M311.5,604.4h21c0.4,0,0.8,0.4,0.8,0.8v21c0,0.4-0.4,0.8-0.8,0.8h-21c-0.4,0-0.8-0.4-0.8-0.8v-21
		C310.7,604.8,311,604.4,311.5,604.4z"/>
	<rect x="315.3" y="609.6" class="st23" width="5.8" height="17.2"/>
	<rect x="321.1" y="609.6" class="st23" width="5.8" height="17.2"/>
	<line class="st23" x1="320" y1="606.9" x2="324" y2="606.9"/>
	<polyline class="st24" points="329.2,616.2 330.2,615.2 331.3,616.2 	"/>
	<polyline class="st24" points="329.2,617.7 330.2,618.7 331.3,617.7 	"/>
	<circle class="st20" cx="378.9" cy="540" r="23.1"/>
	<g>
		<path class="st21" d="M351,579.5v-9.2h4.1c0.6,0,1.3,0.1,1.9,0.2c0.4,0.2,0.8,0.5,1,0.9c0.3,0.4,0.4,0.9,0.4,1.4
			c0,0.6-0.2,1.2-0.6,1.7c-0.5,0.5-1.2,0.8-2,0.9c0.3,0.1,0.5,0.3,0.7,0.5c0.4,0.4,0.7,0.8,1,1.2l1.6,2.5h-1.5l-1.2-1.9
			c-0.4-0.6-0.6-1-0.9-1.3c-0.2-0.2-0.4-0.4-0.6-0.6c-0.2-0.1-0.4-0.2-0.6-0.2s-0.5-0.1-0.7,0h-1.4v4.1L351,579.5L351,579.5z
			 M352.2,574.4h2.6c0.4,0,0.9,0,1.3-0.2c0.3-0.1,0.5-0.3,0.7-0.5s0.2-0.5,0.2-0.8c0-0.4-0.2-0.8-0.5-1.1c-0.4-0.3-1-0.5-1.5-0.4
			h-2.9L352.2,574.4L352.2,574.4z"/>
		<path class="st21" d="M364.7,577.4l1.2,0.1c-0.1,0.6-0.5,1.2-1,1.6c-1.3,0.9-3.1,0.7-4.2-0.3c-0.6-0.7-0.9-1.6-0.9-2.5
			c-0.1-0.9,0.3-1.9,0.9-2.6c0.6-0.6,1.4-1,2.2-0.9c0.8,0,1.6,0.3,2.2,0.9c0.6,0.7,0.9,1.6,0.8,2.6v0.3h-5c0,0.6,0.2,1.2,0.6,1.7
			c0.4,0.4,0.9,0.6,1.4,0.6c0.4,0,0.8-0.1,1.1-0.3C364.3,578.2,364.5,577.8,364.7,577.4L364.7,577.4z M361,575.6h3.7
			c0-0.5-0.2-0.9-0.4-1.3c-0.3-0.4-0.9-0.7-1.4-0.7s-1,0.2-1.3,0.5C361.2,574.6,361,575.1,361,575.6L361,575.6L361,575.6z"/>
		<path class="st21" d="M371.6,577.1l1.1,0.1c-0.1,0.7-0.4,1.3-0.9,1.8c-0.5,0.4-1.2,0.7-1.8,0.7c-0.8,0-1.6-0.3-2.2-0.9
			c-0.6-0.7-0.9-1.6-0.8-2.6c0-0.6,0.1-1.3,0.4-1.9c0.2-0.5,0.6-0.9,1.1-1.2s1-0.4,1.6-0.4s1.3,0.2,1.8,0.5c0.5,0.4,0.8,0.9,0.9,1.6
			l-1.1,0.2c-0.1-0.4-0.3-0.7-0.6-1c-0.3-0.2-0.6-0.3-1-0.3c-0.5,0-1,0.2-1.4,0.6c-0.4,0.6-0.6,1.2-0.5,1.9c-0.1,0.7,0.1,1.4,0.5,2
			c0.3,0.4,0.8,0.6,1.3,0.6c0.4,0,0.8-0.1,1.1-0.4C371.4,578,371.6,577.6,371.6,577.1L371.6,577.1z"/>
		<path class="st21" d="M378.2,577.4l1.2,0.1c-0.1,0.6-0.5,1.2-1,1.6c-1.3,0.9-3.1,0.7-4.2-0.3c-0.6-0.7-0.9-1.6-0.9-2.5
			c-0.1-0.9,0.3-1.9,0.9-2.6c0.6-0.6,1.4-1,2.2-0.9c0.8,0,1.6,0.3,2.2,0.9c0.6,0.7,0.9,1.6,0.8,2.6v0.3h-5c0,0.6,0.2,1.2,0.6,1.7
			c0.4,0.4,0.9,0.6,1.4,0.6c0.4,0,0.8-0.1,1.1-0.3C377.9,578.2,378.1,577.8,378.2,577.4L378.2,577.4z M374.5,575.6h3.7
			c0-0.5-0.2-0.9-0.4-1.3c-0.3-0.4-0.9-0.7-1.4-0.7s-1,0.2-1.3,0.5C374.7,574.6,374.5,575.1,374.5,575.6L374.5,575.6L374.5,575.6z"
			/>
		<path class="st21" d="M380.8,582.1v-9.2h1v0.9c0.2-0.3,0.5-0.6,0.8-0.8s0.7-0.3,1.1-0.3c0.5,0,1.1,0.1,1.5,0.4
			c0.4,0.3,0.8,0.7,1,1.2c0.2,0.6,0.3,1.2,0.3,1.8s-0.1,1.3-0.4,1.8c-0.4,1-1.4,1.7-2.5,1.7c-0.4,0-0.7-0.1-1-0.2
			c-0.3-0.1-0.5-0.4-0.7-0.6v3.2L380.8,582.1L380.8,582.1z M381.8,576.3c-0.1,0.7,0.1,1.3,0.5,1.9c0.3,0.4,0.8,0.6,1.3,0.6
			s1-0.2,1.3-0.6c0.4-0.6,0.6-1.3,0.5-2c0.1-0.7-0.1-1.4-0.5-1.9c-0.3-0.4-0.8-0.6-1.2-0.6c-0.5,0-1,0.3-1.3,0.7
			C382,574.9,381.8,575.6,381.8,576.3L381.8,576.3z"/>
		<path class="st21" d="M390.4,578.5l0.2,1c-0.3,0.1-0.6,0.1-0.9,0.1s-0.7,0-1-0.2c-0.2-0.1-0.4-0.3-0.5-0.5
			c-0.1-0.4-0.2-0.9-0.1-1.3v-3.8h-0.8v-0.9h0.8v-1.7l1.1-0.7v2.3h1.1v0.9h-1.1v3.9c0,0.2,0,0.4,0.1,0.6c0,0.1,0.1,0.2,0.2,0.2
			c0.1,0.1,0.3,0.1,0.4,0.1C390.1,578.6,390.3,578.6,390.4,578.5L390.4,578.5z"/>
		<path class="st21" d="M391.5,571.6v-1.3h1.1v1.3H391.5z M391.5,579.5v-6.7h1.1v6.7H391.5z"/>
		<path class="st21" d="M394,576.2c-0.1-1,0.3-2,1-2.7c0.6-0.5,1.3-0.8,2.1-0.7c0.8,0,1.7,0.3,2.2,0.9c0.6,0.7,0.9,1.6,0.9,2.5
			c0,0.7-0.1,1.4-0.4,2c-0.3,0.5-0.6,0.9-1.1,1.1c-0.5,0.3-1,0.4-1.6,0.4c-0.8,0-1.7-0.3-2.3-0.9C394.2,578.1,393.9,577.2,394,576.2
			L394,576.2z M395.1,576.2c-0.1,0.7,0.1,1.4,0.6,1.9c0.7,0.8,1.8,0.9,2.6,0.2c0.1-0.1,0.1-0.1,0.2-0.2c0.4-0.6,0.6-1.3,0.6-2
			s-0.2-1.3-0.6-1.9c-0.7-0.8-1.9-0.9-2.6-0.2c-0.1,0.1-0.1,0.1-0.2,0.2C395.3,574.9,395.1,575.5,395.1,576.2z"/>
		<path class="st21" d="M401.5,579.5v-6.7h1v0.9c0.5-0.7,1.3-1.1,2.1-1.1c0.4,0,0.8,0.1,1.1,0.2c0.3,0.1,0.6,0.3,0.8,0.6
			c0.2,0.3,0.3,0.5,0.4,0.8c0.1,0.4,0.1,0.7,0.1,1.1v4.1h-1.1v-4.1c0-0.3,0-0.7-0.1-1c-0.1-0.2-0.3-0.4-0.5-0.5s-0.5-0.2-0.8-0.2
			c-0.5,0-0.9,0.2-1.2,0.5c-0.4,0.5-0.6,1.1-0.5,1.7v3.6L401.5,579.5L401.5,579.5z"/>
	</g>
	<g id="k">
		<circle class="st25" cx="374.4" cy="533" r="3.4"/>
		<path class="st25" d="M379.9,538.5h-11c-0.3,3,1,5.9,3.4,7.6v6.5h4.1v-6.5C378.9,544.4,380.2,541.5,379.9,538.5z"/>
		<line class="st25" x1="379.2" y1="542.6" x2="391.2" y2="542.6"/>
		<circle class="st25" cx="386.1" cy="533.7" r="2.4"/>
		<path class="st25" d="M381.3,542.6c0.1-2.6,2.2-4.8,4.8-4.8c2.6-0.1,4.7,2,4.8,4.6c0,0.1,0,0.2,0,0.2l0,0"/>
	</g>
	<g>
		<path class="st26" d="M299.5,819.3v-7.2h-2.6v-1h6.4v1h-2.7v7.2H299.5z"/>
	</g>
	<g>
		<path class="st26" d="M302.8,816.4c0-1.1,0.4-1.9,1-2.4c0.5-0.5,1.1-0.6,1.9-0.6s1.4,0.2,2,0.8s0.7,1.3,0.7,2.1
			c0,0.7-0.1,1.3-0.4,1.8s-0.6,0.7-1,1c-0.5,0.2-1,0.4-1.4,0.4c-0.8,0-1.6-0.2-2-0.8C303,818.1,302.8,817.3,302.8,816.4L302.8,816.4
			z M303.7,816.4c0,0.7,0.1,1.3,0.5,1.7s0.7,0.6,1.2,0.6s1-0.2,1.2-0.6s0.5-1,0.5-1.7s-0.1-1.3-0.5-1.7s-0.7-0.6-1.2-0.6
			s-1,0.2-1.2,0.6S303.7,815.6,303.7,816.4z"/>
		<path class="st26" d="M309.4,812.3v-1.2h1v1.2H309.4z M309.4,819.3v-5.8h1v5.8H309.4z"/>
		<path class="st26" d="M312,819.3v-8.1h1v8.1H312z"/>
		<path class="st26" d="M318.5,817.4l1.1,0.1c-0.1,0.6-0.5,1.1-1,1.4s-1,0.5-1.7,0.5c-0.8,0-1.6-0.2-2-0.8s-0.7-1.3-0.7-2.3
			s0.2-1.8,0.7-2.3c0.5-0.6,1.2-0.8,2-0.8s1.4,0.2,1.9,0.8s0.7,1.3,0.7,2.3v0.2h-4.4c0,0.6,0.2,1.2,0.6,1.4s0.7,0.5,1.2,0.5
			c0.4,0,0.7-0.1,1-0.2C318.2,818.2,318.4,817.8,318.5,817.4L318.5,817.4z M315.2,815.8h3.3c0-0.5-0.1-0.8-0.4-1.1
			c-0.4-0.4-0.7-0.6-1.2-0.6s-0.8,0.1-1.2,0.5C315.4,814.8,315.3,815.3,315.2,815.8z"/>
		<path class="st26" d="M323,818.4l0.1,0.8c-0.2,0-0.5,0.1-0.7,0.1c-0.4,0-0.6,0-0.8-0.1s-0.4-0.2-0.5-0.5c-0.1-0.2-0.1-0.6-0.1-1.2
			v-3.3h-0.7v-0.8h0.7V812l1-0.6v2h1v0.8h-1v4.1c0,0.1,0.1,0.1,0.1,0.2c0.1,0,0.2,0.1,0.4,0.1C322.7,818.4,322.8,818.4,323,818.4
			L323,818.4z"/>
	</g>
	<circle class="st20" cx="308.5" cy="781.8" r="24.2"/>
	<g id="l">
		<path class="st27" d="M317.4,782.3c0,0.4-0.4,0.7-0.7,0.7h-4.5v-10c0-1,0.7-1.8,1.7-1.8h2c1,0,1.8,0.7,1.8,1.7l0,0v0.1
			L317.4,782.3L317.4,782.3z"/>
		<path class="st27" d="M304.6,792.3h9.1v-5.4l2.7-1.8v-1.8h-15.6c-0.1,2.4,1.6,4.4,3.9,4.5h0.2L304.6,792.3L304.6,792.3z"/>
		<rect x="300" y="781.2" class="st27" width="11.8" height="1.8"/>
		<circle class="st27" cx="315.1" cy="774.5" r="0.7"/>
	</g>
	<ellipse class="st20" cx="266.6" cy="520.5" rx="22.2" ry="22.2"/>
	<g id="m">
		<path class="st27" d="M274.2,516.2c-1.5,0-2.8-1-3.2-2.4c-0.5,0.4-1.3,0.6-1.9,0.6c-1.8,0-3.4-1.5-3.4-3.3v-0.4
			c-5.5,1-9.1,6-8.1,11.5s6,9.1,11.5,8.1s9.1-6,8.1-11.5c-0.2-1.1-0.5-2.1-1.1-3.1C275.5,516,274.9,516.2,274.2,516.2L274.2,516.2z"
			/>
		<circle class="st27" cx="263.8" cy="517.9" r="1.7"/>
		<circle class="st27" cx="269.9" cy="522.2" r="0.9"/>
		<circle class="st27" cx="264.7" cy="524.8" r="1.7"/>
		<circle class="st27" cx="270.8" cy="518.8" r="0.4"/>
		<circle class="st27" cx="260.4" cy="521.3" r="0.4"/>
		<circle class="st27" cx="269.9" cy="526.5" r="0.4"/>
	</g>
	<g class="st17">
		<path class="st21" d="M249.2,553.3v-9.2h1.2v4.6l4.6-4.6h1.7l-3.9,3.7l4,5.5h-1.6l-3.3-4.7l-1.5,1.5v3.2H249.2z"/>
		<path class="st21" d="M257.7,545.4v-1.3h1.1v1.3H257.7z M257.7,553.3v-6.7h1.1v6.7H257.7z"/>
		<path class="st21" d="M263,552.3l0.2,1c-0.3,0.1-0.6,0.1-0.9,0.1c-0.4,0-0.7-0.1-1-0.2c-0.2-0.1-0.4-0.3-0.5-0.5s-0.1-0.7-0.1-1.3
			v-3.8h-0.8v-0.9h0.8V545l1.1-0.7v2.3h1.1v0.9h-1.1v3.9c0,0.3,0,0.5,0.1,0.6c0,0.1,0.1,0.2,0.2,0.2c0.1,0.1,0.2,0.1,0.4,0.1
			C262.6,552.3,262.8,552.3,263,552.3z"/>
		<path class="st21" d="M268.5,550.8l1.1,0.1c-0.1,0.8-0.4,1.4-0.9,1.8c-0.5,0.4-1.1,0.6-1.8,0.6c-0.9,0-1.6-0.3-2.2-0.9
			c-0.6-0.6-0.8-1.5-0.8-2.6c0-0.7,0.1-1.3,0.4-1.9c0.2-0.5,0.6-0.9,1.1-1.2s1-0.4,1.6-0.4c0.7,0,1.3,0.2,1.8,0.5
			c0.5,0.4,0.8,0.9,0.9,1.6l-1.1,0.2c-0.1-0.4-0.3-0.8-0.6-1s-0.6-0.3-1-0.3c-0.6,0-1,0.2-1.4,0.6s-0.5,1.1-0.5,1.9
			c0,0.9,0.2,1.5,0.5,2s0.8,0.6,1.3,0.6c0.4,0,0.8-0.1,1.1-0.4C268.2,551.8,268.4,551.4,268.5,550.8z"/>
		<path class="st21" d="M270.5,553.3v-9.2h1.1v3.3c0.5-0.6,1.2-0.9,2-0.9c0.5,0,0.9,0.1,1.3,0.3s0.6,0.5,0.8,0.8
			c0.2,0.3,0.2,0.8,0.2,1.5v4.2h-1.1v-4.2c0-0.6-0.1-1-0.4-1.2c-0.2-0.3-0.6-0.4-1-0.4c-0.3,0-0.6,0.1-0.9,0.3s-0.5,0.4-0.6,0.7
			s-0.2,0.7-0.2,1.2v3.6L270.5,553.3L270.5,553.3z"/>
		<path class="st21" d="M282.3,551.1l1.2,0.1c-0.2,0.7-0.5,1.2-1,1.6s-1.1,0.6-1.9,0.6c-1,0-1.7-0.3-2.3-0.9
			c-0.6-0.6-0.9-1.4-0.9-2.5s0.3-2,0.9-2.6s1.3-0.9,2.2-0.9c0.9,0,1.6,0.3,2.2,0.9c0.6,0.6,0.8,1.5,0.8,2.6c0,0.1,0,0.2,0,0.3h-5
			c0,0.7,0.2,1.3,0.6,1.7s0.8,0.6,1.4,0.6c0.4,0,0.8-0.1,1.1-0.3C281.9,552,282.1,551.6,282.3,551.1z M278.6,549.3h3.7
			c-0.1-0.6-0.2-1-0.4-1.3c-0.4-0.4-0.8-0.7-1.4-0.7c-0.5,0-1,0.2-1.3,0.5C278.8,548.3,278.6,548.7,278.6,549.3z"/>
		<path class="st21" d="M284.9,553.3v-6.7h1v0.9c0.5-0.7,1.2-1.1,2.1-1.1c0.4,0,0.8,0.1,1.1,0.2s0.6,0.3,0.8,0.6
			c0.2,0.2,0.3,0.5,0.4,0.8c0,0.2,0.1,0.6,0.1,1.1v4.1h-1.1v-4.1c0-0.5,0-0.8-0.1-1s-0.2-0.4-0.5-0.5c-0.2-0.1-0.5-0.2-0.8-0.2
			c-0.5,0-0.9,0.2-1.2,0.5c-0.3,0.3-0.5,0.9-0.5,1.7v3.6h-1.3V553.3z"/>
	</g>
	<g class="st17">
		<path class="st21" d="M492.8,345.8c0-1.4,0.4-2.5,1.1-3.3s1.8-1.2,3-1.2c0.8,0,1.5,0.2,2.1,0.6s1.1,0.9,1.5,1.6s0.5,1.4,0.5,2.3
			s-0.2,1.7-0.5,2.3s-0.8,1.2-1.5,1.6s-1.3,0.5-2.1,0.5c-0.8,0-1.5-0.2-2.2-0.6s-1.1-0.9-1.4-1.6S492.8,346.6,492.8,345.8z
			 M494,345.8c0,1,0.3,1.9,0.8,2.4s1.3,0.9,2.1,0.9c0.9,0,1.6-0.3,2.1-0.9s0.8-1.5,0.8-2.6c0-0.7-0.1-1.3-0.4-1.8s-0.6-0.9-1-1.2
			s-1-0.4-1.5-0.4c-0.8,0-1.5,0.3-2.1,0.8S494,344.6,494,345.8z"/>
		<path class="st21" d="M502.3,352.4v-8.6h1v0.8c0.2-0.3,0.5-0.6,0.8-0.7s0.6-0.2,1-0.2c0.5,0,1,0.1,1.4,0.4s0.7,0.7,0.9,1.2
			s0.3,1,0.3,1.6s-0.1,1.2-0.3,1.7s-0.6,0.9-1,1.2s-0.9,0.4-1.4,0.4c-0.4,0-0.7-0.1-0.9-0.2s-0.5-0.3-0.7-0.6v3L502.3,352.4
			L502.3,352.4z M503.3,346.9c0,0.8,0.2,1.4,0.5,1.8s0.7,0.6,1.2,0.6s0.9-0.2,1.2-0.6s0.5-1,0.5-1.8s-0.2-1.4-0.5-1.8
			s-0.7-0.6-1.2-0.6c-0.4,0-0.8,0.2-1.2,0.6S503.3,346.1,503.3,346.9z"/>
		<path class="st21" d="M513.3,348l1.1,0.1c-0.2,0.6-0.5,1.1-1,1.5s-1.1,0.5-1.8,0.5c-0.9,0-1.6-0.3-2.2-0.8s-0.8-1.3-0.8-2.4
			c0-1,0.3-1.9,0.8-2.4s1.2-0.9,2.1-0.9c0.8,0,1.5,0.3,2,0.8s0.8,1.4,0.8,2.4c0,0.1,0,0.2,0,0.3h-4.6c0,0.7,0.2,1.2,0.6,1.6
			s0.8,0.5,1.3,0.5c0.4,0,0.7-0.1,1-0.3S513.1,348.5,513.3,348z M509.8,346.3h3.5c0-0.5-0.2-0.9-0.4-1.2c-0.3-0.4-0.8-0.6-1.3-0.6
			s-0.9,0.2-1.2,0.5S509.8,345.8,509.8,346.3z"/>
		<path class="st21" d="M515.7,350v-6.2h0.9v0.9c0.5-0.7,1.1-1,2-1c0.4,0,0.7,0.1,1,0.2s0.5,0.3,0.7,0.5s0.3,0.5,0.3,0.8
			c0,0.2,0.1,0.5,0.1,1v3.8h-1.1v-3.8c0-0.4,0-0.8-0.1-1s-0.2-0.4-0.4-0.5s-0.5-0.2-0.7-0.2c-0.4,0-0.8,0.1-1.2,0.4
			s-0.5,0.8-0.5,1.6v3.4h-1V350z"/>
	</g>
	<g class="st17">
		<path class="st21" d="M490.4,361.7l1.1-0.1c0.1,0.4,0.2,0.8,0.4,1.1s0.5,0.5,0.9,0.7s0.8,0.3,1.3,0.3c0.4,0,0.8-0.1,1.1-0.2
			s0.6-0.3,0.7-0.5s0.2-0.5,0.2-0.7c0-0.3-0.1-0.5-0.2-0.7s-0.4-0.4-0.8-0.5c-0.2-0.1-0.7-0.2-1.5-0.4s-1.3-0.4-1.7-0.5
			c-0.4-0.2-0.7-0.5-0.9-0.8s-0.3-0.7-0.3-1.1s0.1-0.8,0.4-1.2s0.6-0.7,1.1-0.9s1-0.3,1.6-0.3s1.2,0.1,1.7,0.3s0.9,0.5,1.1,0.9
			s0.4,0.8,0.4,1.4l-1.1,0.1c-0.1-0.5-0.3-1-0.6-1.2s-0.8-0.4-1.5-0.4s-1.2,0.1-1.5,0.4s-0.5,0.6-0.5,0.9s0.1,0.6,0.3,0.8
			c0.2,0.2,0.8,0.4,1.7,0.6s1.6,0.4,1.9,0.5c0.5,0.2,0.9,0.5,1.1,0.9s0.4,0.8,0.4,1.2c0,0.5-0.1,0.9-0.4,1.3s-0.6,0.7-1.1,0.9
			s-1,0.3-1.7,0.3c-0.8,0-1.4-0.1-2-0.3s-0.9-0.6-1.2-1S490.4,362.2,490.4,361.7z"/>
		<path class="st21" d="M498.7,366.8v-8.6h1v0.8c0.2-0.3,0.5-0.6,0.8-0.7s0.6-0.2,1-0.2c0.5,0,1,0.1,1.4,0.4s0.7,0.7,0.9,1.2
			s0.3,1,0.3,1.6s-0.1,1.2-0.3,1.7s-0.6,0.9-1,1.2s-0.9,0.4-1.4,0.4c-0.4,0-0.7-0.1-0.9-0.2s-0.5-0.3-0.7-0.6v3L498.7,366.8
			L498.7,366.8z M499.6,361.3c0,0.8,0.2,1.4,0.5,1.8s0.7,0.6,1.2,0.6s0.9-0.2,1.2-0.6s0.5-1,0.5-1.8s-0.2-1.4-0.5-1.8
			s-0.7-0.6-1.2-0.6c-0.4,0-0.8,0.2-1.2,0.6S499.6,360.5,499.6,361.3z"/>
		<path class="st21" d="M509.4,363.6c-0.4,0.3-0.8,0.6-1.1,0.7s-0.7,0.2-1.2,0.2c-0.7,0-1.2-0.2-1.6-0.5s-0.6-0.8-0.6-1.3
			c0-0.3,0.1-0.6,0.2-0.8s0.3-0.5,0.5-0.6s0.5-0.3,0.8-0.3c0.2-0.1,0.5-0.1,0.9-0.2c0.9-0.1,1.5-0.2,1.9-0.4c0-0.1,0-0.2,0-0.3
			c0-0.4-0.1-0.7-0.3-0.9c-0.3-0.2-0.7-0.4-1.2-0.4s-0.9,0.1-1.1,0.3s-0.4,0.5-0.5,0.9l-1-0.1c0.1-0.4,0.2-0.8,0.5-1.1
			s0.5-0.5,0.9-0.6s0.9-0.2,1.4-0.2s1,0.1,1.3,0.2s0.6,0.3,0.7,0.5s0.3,0.4,0.3,0.7c0,0.2,0.1,0.5,0.1,1v1.4c0,1,0,1.6,0.1,1.9
			s0.1,0.5,0.3,0.7h-1.1C509.5,364.2,509.4,363.9,509.4,363.6z M509.3,361.3c-0.4,0.2-1,0.3-1.7,0.4c-0.4,0.1-0.7,0.1-0.9,0.2
			s-0.3,0.2-0.4,0.3s-0.1,0.3-0.1,0.5c0,0.3,0.1,0.5,0.3,0.7s0.5,0.3,0.9,0.3s0.8-0.1,1.1-0.3s0.5-0.4,0.7-0.7
			c0.1-0.2,0.2-0.6,0.2-1.1v-0.3H509.3z"/>
		<path class="st21" d="M516.1,362.1l1,0.1c-0.1,0.7-0.4,1.3-0.9,1.7s-1,0.6-1.7,0.6c-0.9,0-1.5-0.3-2.1-0.8s-0.8-1.4-0.8-2.4
			c0-0.7,0.1-1.3,0.3-1.8c0.2-0.5,0.6-0.9,1-1.1s1-0.4,1.5-0.4c0.7,0,1.2,0.2,1.7,0.5s0.7,0.8,0.8,1.5l-1,0.2
			c-0.1-0.4-0.3-0.7-0.5-0.9s-0.5-0.3-0.9-0.3c-0.5,0-1,0.2-1.3,0.6s-0.5,1-0.5,1.8s0.2,1.4,0.5,1.8s0.7,0.6,1.3,0.6
			c0.4,0,0.8-0.1,1-0.4S516,362.7,516.1,362.1z"/>
		<path class="st21" d="M522.3,362.4l1.1,0.1c-0.2,0.6-0.5,1.1-1,1.5s-1.1,0.5-1.8,0.5c-0.9,0-1.6-0.3-2.2-0.8s-0.8-1.3-0.8-2.4
			c0-1,0.3-1.9,0.8-2.4s1.2-0.9,2.1-0.9c0.8,0,1.5,0.3,2,0.8s0.8,1.4,0.8,2.4c0,0.1,0,0.2,0,0.3h-4.6c0,0.7,0.2,1.2,0.6,1.6
			s0.8,0.5,1.3,0.5c0.4,0,0.7-0.1,1-0.3S522.1,362.9,522.3,362.4z M518.8,360.7h3.5c0-0.5-0.2-0.9-0.4-1.2c-0.3-0.4-0.8-0.6-1.3-0.6
			s-0.9,0.2-1.2,0.5S518.8,360.2,518.8,360.7z"/>
	</g>
</g>
<polyline class="st18" points="238.5,721.1 238.1,732 253,733.3 "/>
<line class="st18" x1="282.3" y1="735.7" x2="333.3" y2="740.1"/>
<line class="st18" x1="461.7" y1="710.6" x2="459.2" y2="759.4"/>
<line class="st18" x1="456.4" y1="815.4" x2="458.1" y2="781.2"/>
</svg>
