<?xml version="1.0" encoding="utf-8"?>
<!-- Generator: Adobe Illustrator 25.3.1, SVG Export Plug-In . SVG Version: 6.00 Build 0)  -->
<svg version="1.1" id="Layer_1" xmlns="http://www.w3.org/2000/svg" xmlns:xlink="http://www.w3.org/1999/xlink" x="0px" y="0px"
	 viewBox="0 0 1177.7 718.5" style="enable-background:new 0 0 1177.7 718.5;" xml:space="preserve">
<style type="text/css">
	.st0{fill:#4196B1;}
	.st1{fill:#AAE0E4;}
	.st2{fill:#8ECCCE;}
	.st3{opacity:5.000000e-02;fill:#030303;enable-background:new    ;}
	.st4{fill:#B8BFC1;}
	.st5{fill:#F4F4F4;}
	.st6{opacity:0.15;fill:#010101;enable-background:new    ;}
	.st7{fill:#596068;}
	.st8{fill:#9BAEB7;}
	.st9{fill:none;stroke:#7A8E93;stroke-width:3;stroke-linecap:round;stroke-miterlimit:10;}
	.st10{opacity:0.1;fill:#030303;enable-background:new    ;}
	.st11{fill:#FFFFFF;}
	.st12{fill:none;stroke:#EBF2F2;stroke-width:3;stroke-miterlimit:10;}
	.st13{opacity:0.74;fill:#575757;enable-background:new    ;}
	.st14{enable-background:new    ;}
	.st15{fill:#EBF1F2;}
	.st16{fill:none;stroke:#7A8E93;stroke-width:0.5;stroke-linecap:round;stroke-linejoin:round;}
	.st17{fill:#767E80;}
	.st18{fill:#EBF2F2;}
	.st19{fill:none;stroke:#7A8E93;stroke-width:0.39;stroke-miterlimit:10;}
	.st20{fill:none;stroke:#7A8E93;stroke-width:0.382;stroke-miterlimit:10;}
	.st21{fill:#757D7F;}
	.st22{fill:none;stroke:#FFFFFF;stroke-width:8;stroke-miterlimit:10;}
	.st23{fill:none;stroke:#FFFFFF;stroke-width:4;stroke-miterlimit:10;}
</style>
<g id="shadow">
	<path class="st0" d="M603.8,183.7H52V634c0,0,4.8,44,47.9,44h984.6c0,0,46.3-3.1,46.3-44.8V249.7H603.6L603.8,183.7z"/>
</g>
<g id="background">
	<path class="st1" d="M595,163.1H52v450.3c0,0,4.7,44,47.2,44h969c0,0,45.6-3.1,45.6-44.8V229.1h-519L595,163.1z"/>
</g>
<g id="spaces">
	<rect x="52" y="163.1" class="st2" width="233.3" height="342.6"/>
	<rect x="713.7" y="229.1" class="st2" width="127.3" height="99.8"/>
	<rect x="710.8" y="395.4" class="st2" width="69.7" height="110.3"/>
	<path class="st2" d="M841,229.1h272.7v393.6c0,0,15.5,34.7-97.2,34.7H541V529h54.9v-23.3h244.6L841,229.1z"/>
</g>
<g id="furniature">
	<path class="st3" d="M710.8,412.6V442c0,1.2-1,2.2-2.2,2.2h-82.3c-1.2,0-2.2-1-2.2-2.2v-29.4c0-1.2,1-2.2,2.2-2.2h82.3
		C709.9,410.4,710.9,411.4,710.8,412.6L710.8,412.6z"/>
	<path class="st4" d="M710.8,410.7v29.4c0,1.2-1,2.2-2.2,2.2h-82.3c-1.2,0-2.2-1-2.2-2.2v-29.4c0-1.2,1-2.2,2.2-2.2h82.3
		C709.9,408.5,710.8,409.5,710.8,410.7L710.8,410.7z"/>
	<path class="st5" d="M710.8,408.9v29.4c0,1.2-1,2.2-2.2,2.2h-82.3c-1.2,0-2.2-1-2.2-2.2v-29.4c0-1.2,1-2.2,2.2-2.2h82.3
		C709.9,406.7,710.8,407.7,710.8,408.9L710.8,408.9z"/>
	<path class="st3" d="M230.1,240.7V270c0,1.2-1,2.2-2.2,2.2h-82.3c-1.2,0-2.2-1-2.2-2.2v-29.4c0-1.2,1-2.2,2.2-2.2h82.3
		C229.1,238.4,230.1,239.4,230.1,240.7L230.1,240.7z"/>
	<path class="st4" d="M230.1,238.8v29.4c0,1.2-1,2.2-2.2,2.2h-82.3c-1.2,0-2.2-1-2.2-2.2v-29.4c0-1.2,1-2.2,2.2-2.2h82.3
		C229.1,236.6,230.1,237.6,230.1,238.8L230.1,238.8z"/>
	<path class="st5" d="M230.1,236.9v29.4c0,1.2-1,2.2-2.2,2.2h-82.3c-1.2,0-2.2-1-2.2-2.2v-29.4c0-1.2,1-2.2,2.2-2.2h82.3
		C229.1,234.7,230.1,235.7,230.1,236.9L230.1,236.9z"/>
	<path class="st3" d="M184.9,475.2h-29.4c-1.1,0-2.2-0.5-2.2-1.3v-50.6c0-0.8,1.1-1.3,2.2-1.3h29.4c1.1,0,2.2,0.5,2.2,1.3v50.6
		C187.1,474.7,186,475.2,184.9,475.2z"/>
	<path class="st4" d="M186.7,475.2h-29.4c-1.1,0-2.2-0.5-2.2-1.3v-50.6c0-0.8,1.1-1.3,2.2-1.3h29.4c1.1,0,2.2,0.5,2.2,1.3v50.6
		C189,474.7,187.9,475.2,186.7,475.2z"/>
	<path class="st5" d="M188.6,475.2h-29.4c-1.1,0-2.2-0.5-2.2-1.3v-50.6c0-0.8,1.1-1.3,2.2-1.3h29.4c1.1,0,2.2,0.5,2.2,1.3v50.6
		C190.8,474.7,189.7,475.2,188.6,475.2z"/>
	<path class="st3" d="M197.9,421.9h29.4c1.1,0,2.2,0.5,2.2,1.3v50.6c0,0.8-1.1,1.3-2.2,1.3h-29.4c-1.1,0-2.2-0.5-2.2-1.3v-50.6
		C195.7,422.4,196.8,421.9,197.9,421.9z"/>
	<path class="st4" d="M196.1,421.9h29.4c1.1,0,2.2,0.5,2.2,1.3v50.6c0,0.8-1.1,1.3-2.2,1.3h-29.4c-1.1,0-2.2-0.5-2.2-1.3v-50.6
		C193.8,422.4,194.9,421.9,196.1,421.9z"/>
	<path class="st5" d="M194.2,421.9h29.4c1.1,0,2.2,0.5,2.2,1.3v50.6c0,0.8-1.1,1.3-2.2,1.3h-29.4c-1.1,0-2.2-0.5-2.2-1.3v-50.6
		C192,422.4,193.1,421.9,194.2,421.9z"/>
	<rect x="131" y="475.2" class="st5" width="116.7" height="23.8"/>
	<path class="st6" d="M613.9,301.2c-5.6-0.1-10.1-4.6-10.2-10.2v-8.1c0-7.2,6.4-13.2,13.6-13.6l0,0c7.2,0,13.6,5.5,14.1,12.8
		l0.4,7.7v0.4l0,0c0.1,5.8-4.4,10.7-10.2,11.1L613.9,301.2L613.9,301.2z"/>
	<path class="st7" d="M613.9,299.9c-5.8-0.1-10.3-4.9-10.2-10.6l0,0v-7.7c0-7.2,6.4-13.2,13.6-13.6l0,0c7.2-0.4,13.6,5.5,14.1,12.8
		l0.4,7.7v0.4l0,0c0.1,5.8-4.4,10.7-10.2,11.1L613.9,299.9L613.9,299.9z"/>
	<path class="st8" d="M613.9,298.2c-5.8-0.1-10.3-4.9-10.2-10.6l0,0v-7.7c0-7.2,6.4-13.2,13.6-13.6l0,0c7.2,0,13.6,5.5,14.1,12.8
		l0.4,7.7v0.4l0,0c0.1,5.8-4.4,10.7-10.2,11.1L613.9,298.2L613.9,298.2z"/>
	<path class="st9" d="M603.3,289.2l0.4-8.9c0-7.2,6-13.2,13.6-13.6l0,0c7.2-0.4,13.6,5.5,14.1,12.8l0.9,8.9"/>
	<path class="st6" d="M600.3,321.7c-0.1,5.6-4.6,10.1-10.2,10.2H582c-7.2,0-13.2-6.4-13.6-13.6l0,0c0-7.2,5.5-13.6,12.8-14.1
		l7.7-0.4h0.4c5.8-0.1,10.7,4.4,11.1,10.2l0,0v7.7H600.3z"/>
	<path class="st7" d="M599.1,321.7c-0.1,5.8-4.9,10.3-10.7,10.2h-7.7c-7.2,0-13.2-6.4-13.6-13.6l0,0c-0.4-7.2,5.5-13.6,12.8-14.1
		l7.7-0.4h0.4c5.8-0.1,10.7,4.4,11.1,10.2l0,0V321.7L599.1,321.7z"/>
	<path class="st8" d="M597.3,321.7c-0.1,5.8-4.9,10.3-10.6,10.2H579c-7.2,0-13.2-6.4-13.6-13.6l0,0c0-7.2,5.5-13.6,12.8-14.1
		l7.7-0.4h0.4c5.8-0.1,10.7,4.4,11.1,10.2l0,0L597.3,321.7L597.3,321.7z"/>
	<path class="st9" d="M588.4,332.3l-8.9-0.4c-7.2,0-13.2-6-13.6-13.6l0,0c-0.4-7.2,5.5-13.6,12.8-14.1l8.9-0.9"/>
	<path class="st6" d="M621.6,336.6c5.6,0.1,10.1,4.6,10.2,10.2v8.1c0,7.2-6.4,13.2-13.6,13.6l0,0c-7.2,0-13.6-5.5-14.1-12.8
		l-0.4-7.7v-0.4l0,0c-0.1-5.8,4.4-10.7,10.2-11.1L621.6,336.6L621.6,336.6z"/>
	<path class="st7" d="M621.6,337.8c5.8,0.1,10.3,4.9,10.2,10.6l0,0v7.7c0,7.2-6.4,13.2-13.6,13.6l0,0c-7.2,0.4-13.6-5.5-14.1-12.8
		l-0.4-7.7v-0.4l0,0c-0.1-5.8,4.4-10.7,10.2-11.1L621.6,337.8L621.6,337.8z"/>
	<path class="st8" d="M621.6,339.5c5.8,0.1,10.3,4.9,10.2,10.6l0,0v7.7c0,7.2-6.4,13.2-13.6,13.6l0,0c-7.2,0-13.6-5.5-14.1-12.8
		l-0.4-7.7v-0.4l0,0c-0.1-5.8,4.4-10.7,10.2-11.1L621.6,339.5L621.6,339.5z"/>
	<path class="st9" d="M632.2,348.5l-0.4,8.9c0,7.2-6,13.2-13.6,13.6l0,0c-7.2,0.4-13.6-5.5-14.1-12.8l-0.9-8.9"/>
	<path class="st6" d="M674.2,442.3c5.6,0.1,10.1,4.6,10.2,10.2v8.1c0,7.2-6.4,13.2-13.6,13.6l0,0c-7.2,0-13.6-5.5-14.1-12.8
		l-0.4-7.7v-0.4l0,0c-0.1-5.8,4.4-10.7,10.2-11.1L674.2,442.3L674.2,442.3z"/>
	<path class="st7" d="M674.2,443.5c5.8,0.1,10.3,4.9,10.2,10.7l0,0v7.7c0,7.2-6.4,13.2-13.6,13.6l0,0c-7.2,0.4-13.6-5.5-14.1-12.8
		l-0.4-7.7v-0.4l0,0c-0.1-5.8,4.4-10.7,10.2-11.1L674.2,443.5L674.2,443.5z"/>
	<path class="st8" d="M674.2,445.3c5.8,0.1,10.3,4.9,10.2,10.6l0,0v7.7c0,7.2-6.4,13.2-13.6,13.6l0,0c-7.2,0-13.6-5.5-14.1-12.8
		l-0.4-7.7v-0.4l0,0c-0.1-5.8,4.4-10.7,10.2-11.1L674.2,445.3L674.2,445.3z"/>
	<path class="st9" d="M684.9,454.2l-0.4,8.9c0,7.2-6,13.2-13.6,13.6l0,0c-7.2,0.4-13.6-5.5-14.1-12.8l-0.9-8.9"/>
	<path class="st6" d="M227.6,444.7c0.1-5.6,4.6-10.1,10.2-10.2h8.1c7.2,0,13.2,6.4,13.6,13.6l0,0c0,7.2-5.5,13.6-12.8,14.1l-7.7,0.4
		h-0.4c-5.8,0.1-10.7-4.4-11.1-10.2l0,0L227.6,444.7L227.6,444.7z"/>
	<path class="st7" d="M228.9,444.7c0.1-5.8,4.9-10.3,10.6-10.2h7.7c7.2,0,13.2,6.4,13.6,13.6l0,0c0.4,7.2-5.5,13.6-12.8,14.1
		l-7.7,0.4H240c-5.8,0.1-10.7-4.4-11.1-10.2l0,0V444.7L228.9,444.7z"/>
	<path class="st8" d="M230.6,444.7c0.1-5.8,4.9-10.3,10.6-10.2h7.7c7.2,0,13.2,6.4,13.6,13.6l0,0c0,7.2-5.5,13.6-12.8,14.1l-7.7,0.4
		h-0.4c-5.8,0.1-10.7-4.4-11.1-10.2l0,0L230.6,444.7L230.6,444.7z"/>
	<path class="st9" d="M239.6,434.1l8.9,0.4c7.2,0,13.2,6,13.6,13.6l0,0c0.4,7.2-5.5,13.6-12.8,14.1l-8.9,0.9"/>
	<path class="st6" d="M153.3,452.4c-0.1,5.6-4.6,10.1-10.2,10.2H135c-7.2,0-13.2-6.4-13.6-13.6l0,0c0-7.2,5.5-13.6,12.8-14.1
		l7.7-0.4h0.4c5.8-0.1,10.7,4.4,11.1,10.2l0,0L153.3,452.4L153.3,452.4z"/>
	<path class="st7" d="M152,452.4c-0.1,5.8-4.9,10.3-10.6,10.2h-7.7c-7.2,0-13.2-6.4-13.6-13.6l0,0c-0.4-7.2,5.5-13.6,12.8-14.1
		l7.7-0.4h0.4c5.8-0.1,10.7,4.4,11.1,10.2l0,0L152,452.4L152,452.4z"/>
	<path class="st8" d="M150.3,452.4c-0.1,5.8-4.9,10.3-10.6,10.2H132c-7.2,0-13.2-6.4-13.6-13.6l0,0c0-7.2,5.5-13.6,12.8-14.1
		l7.7-0.4h0.4c5.8-0.1,10.7,4.4,11.1,10.2l0,0L150.3,452.4L150.3,452.4z"/>
	<path class="st9" d="M141.4,463l-8.9-0.4c-7.2,0-13.2-6-13.6-13.6l0,0c-0.4-7.2,5.5-13.6,12.8-14.1l8.9-0.9"/>
	<path class="st6" d="M165.8,271.8c5.6,0.1,10.1,4.6,10.2,10.2v8.1c0,7.2-6.4,13.2-13.6,13.6l0,0c-7.2,0-13.6-5.5-14.1-12.8
		l-0.4-7.7v-0.4l0,0c-0.1-5.8,4.4-10.7,10.2-11.1L165.8,271.8L165.8,271.8z"/>
	<path class="st7" d="M165.8,273c5.8,0.1,10.3,4.9,10.2,10.6l0,0v7.7c0,7.2-6.4,13.2-13.6,13.6l0,0c-7.2,0.4-13.6-5.5-14.1-12.8
		l-0.4-7.7V284l0,0c-0.1-5.8,4.4-10.7,10.2-11.1L165.8,273L165.8,273z"/>
	<path class="st8" d="M165.8,274.7c5.8,0.1,10.3,4.9,10.2,10.6l0,0v7.7c0,7.2-6.4,13.2-13.6,13.6l0,0c-7.2,0-13.6-5.5-14.1-12.8
		l-0.4-7.7v-0.4l0,0c-0.1-5.8,4.4-10.7,10.2-11.1L165.8,274.7L165.8,274.7z"/>
	<path class="st9" d="M176.4,283.7l-0.4,8.9c0,7.2-6,13.2-13.6,13.6l0,0c-7.2,0.4-13.6-5.5-14.1-12.8l-0.9-8.9"/>
	<path class="st6" d="M212.7,273.1c5.6,0.1,10.1,4.6,10.2,10.2v8.1c0,7.2-6.4,13.2-13.6,13.6l0,0c-7.2,0-13.6-5.5-14.1-12.8
		l-0.4-7.7v-0.4l0,0c-0.1-5.8,4.4-10.7,10.2-11.1L212.7,273.1L212.7,273.1z"/>
	<path class="st7" d="M212.7,274.4c5.8,0.1,10.3,4.9,10.2,10.6l0,0v7.7c0,7.2-6.4,13.2-13.6,13.6l0,0c-7.2,0.4-13.6-5.5-14.1-12.8
		l-0.4-7.7v-0.4l0,0c-0.1-5.8,4.4-10.7,10.2-11.1L212.7,274.4L212.7,274.4z"/>
	<path class="st8" d="M212.7,276.1c5.8,0.1,10.3,4.9,10.2,10.6l0,0v7.7c0,7.2-6.4,13.2-13.6,13.6l0,0c-7.2,0-13.6-5.5-14.1-12.8
		l-0.4-7.7v-0.4l0,0c-0.1-5.8,4.4-10.7,10.2-11.1L212.7,276.1L212.7,276.1z"/>
	<path class="st9" d="M223.4,285l-0.4,8.9c0,7.2-6,13.2-13.6,13.6l0,0c-7.2,0.4-13.6-5.5-14.1-12.8l-0.9-8.9"/>
	<path class="st6" d="M182.9,231.7c-5.6-0.1-10.1-4.6-10.2-10.2v-8.1c0-7.2,6.4-13.2,13.6-13.6l0,0c7.2,0,13.6,5.5,14.1,12.8
		l0.4,7.7v0.4l0,0c0.1,5.8-4.4,10.7-10.2,11.1L182.9,231.7L182.9,231.7z"/>
	<path class="st7" d="M182.9,230.4c-5.8-0.1-10.3-4.9-10.2-10.6l0,0v-7.7c0-7.2,6.4-13.2,13.6-13.6l0,0c7.2-0.4,13.6,5.5,14.1,12.8
		l0.4,7.7v0.4l0,0c0.1,5.8-4.4,10.7-10.2,11.1L182.9,230.4L182.9,230.4z"/>
	<path class="st8" d="M182.9,228.7c-5.8-0.1-10.3-4.9-10.2-10.6l0,0v-7.7c0-7.2,6.4-13.2,13.6-13.6l0,0c7.2,0,13.6,5.5,14.1,12.8
		l0.4,7.7v0.4l0,0c0.1,5.8-4.4,10.7-10.2,11.1L182.9,228.7L182.9,228.7z"/>
	<path class="st9" d="M172.3,219.8l0.4-8.9c0-7.2,6-13.2,13.6-13.6l0,0c7.2-0.4,13.6,5.5,14.1,12.8l0.9,8.9"/>
	<polygon class="st5" points="285.3,163.1 593.6,163.1 593.6,227.1 641.5,227.1 641.5,262.2 565.4,262.2 565.4,201.5 285.3,201.5 	
		"/>
	<rect x="320.3" y="237.1" class="st5" width="111.9" height="32.1"/>
	<circle class="st5" cx="616.1" cy="315.7" r="21.7"/>
	<path class="st6" d="M442.3,426.1c4.5,3.4,5.5,9.7,2.2,14.3l-0.3,0.3l-4.5,6.2c-4.3,5.8-13,6.9-19,3l0,0
		c-5.8-4.3-7.7-12.5-3.8-18.6l4.2-6.4l0.3-0.3l0,0c3.3-4.8,9.9-6.1,14.8-2.9l0,0L442.3,426.1L442.3,426.1z"/>
	<path class="st7" d="M441.5,427.1c4.6,3.5,5.5,10,2,14.6l0,0L439,448c-4.3,5.8-13,6.9-19,3l0,0c-6.1-3.9-7.7-12.5-3.8-18.6l4.2-6.4
		l0.3-0.3l0,0c3.3-4.8,9.9-6.1,14.8-2.9l0,0L441.5,427.1L441.5,427.1z"/>
	<path class="st8" d="M440.5,428.5c4.6,3.5,5.5,10,2,14.6l0,0l-4.5,6.2c-4.3,5.8-13,6.9-19,3l0,0c-5.8-4.3-7.7-12.5-3.8-18.6
		l4.2-6.4l0.3-0.3l0,0c3.3-4.8,9.9-6.1,14.8-2.9l0,0L440.5,428.5L440.5,428.5z"/>
	<path class="st9" d="M443.8,442l-5.6,7c-4.3,5.8-12.6,7.1-19,3l0,0c-6.1-3.9-7.7-12.5-3.8-18.6l4.6-7.7"/>
	<path class="st6" d="M465.4,417.6c3.4-4.5,9.7-5.5,14.3-2.2l0.3,0.3l6.2,4.5c5.8,4.3,6.9,13,3,19l0,0c-4.3,5.8-12.5,7.7-18.6,3.8
		l-6.4-4.2l-0.3-0.3l0,0c-4.8-3.3-6.1-9.9-2.9-14.8l0,0L465.4,417.6L465.4,417.6z"/>
	<path class="st7" d="M466.4,418.3c3.5-4.6,10-5.5,14.6-2l0,0l6.2,4.5c5.8,4.3,6.9,13,3,19l0,0c-3.9,6.1-12.5,7.7-18.6,3.8l-6.4-4.2
		l-0.3-0.3l0,0c-4.8-3.3-6.1-9.9-2.9-14.8l0,0L466.4,418.3L466.4,418.3z"/>
	<path class="st8" d="M467.8,419.3c3.5-4.6,10-5.5,14.6-2l0,0l6.2,4.5c5.8,4.3,6.9,13,3,19l0,0c-4.3,5.8-12.5,7.7-18.6,3.8l-6.4-4.2
		l-0.3-0.3l0,0c-4.8-3.3-6.1-9.9-2.9-14.8l0,0L467.8,419.3L467.8,419.3z"/>
	<path class="st9" d="M481.3,416l7,5.6c5.8,4.3,7.1,12.6,3,19l0,0c-3.9,6.1-12.5,7.7-18.6,3.8l-7.7-4.6"/>
	<path class="st6" d="M457,393c-4.5-3.4-5.5-9.7-2.2-14.3l0.3-0.3l4.5-6.2c4.3-5.8,13-6.9,19-3l0,0c5.8,4.3,7.7,12.5,3.8,18.6
		l-4.2,6.4l-0.3,0.3l0,0c-3.3,4.8-9.9,6.1-14.8,2.9l0,0L457,393L457,393z"/>
	<path class="st7" d="M457.7,392c-4.6-3.5-5.5-10-2-14.6l0,0l4.5-6.2c4.3-5.8,13-6.9,19-3l0,0c6.1,3.9,7.7,12.5,3.8,18.6l-4.2,6.4
		l-0.3,0.3l0,0c-3.3,4.8-9.9,6.1-14.8,2.9l0,0L457.7,392L457.7,392z"/>
	<path class="st8" d="M458.7,390.6c-4.6-3.5-5.4-10-2-14.6l0,0l4.5-6.2c4.3-5.8,13-6.9,19-3l0,0c5.8,4.3,7.7,12.5,3.8,18.6l-4.2,6.4
		l-0.3,0.3l0,0c-3.3,4.8-9.9,6.1-14.8,2.9l0,0L458.7,390.6L458.7,390.6z"/>
	<path class="st9" d="M455.4,377.1l5.6-7c4.3-5.8,12.6-7.1,19-3l0,0c6.1,3.9,7.7,12.5,3.8,18.6l-4.6,7.7"/>
	<circle class="st5" cx="449.1" cy="413.1" r="21.7"/>
	<path class="st6" d="M372.4,324.9c-4.6-3.2-5.8-9.5-2.7-14.2l0.2-0.4l4.3-6.3c4.1-6,12.7-7.3,19-3.5l0,0c6,4.1,8.1,12.3,4.4,18.5
		l-4,6.6l-0.2,0.4l0,0c-3.2,4.9-9.7,6.4-14.7,3.4l0,0L372.4,324.9L372.4,324.9z"/>
	<path class="st7" d="M373.1,323.8c-4.7-3.4-5.8-9.9-2.4-14.6l0,0l4.3-6.3c4.1-6,12.7-7.3,19-3.5l0,0c6.2,3.7,8.1,12.3,4.4,18.5
		l-4,6.6l-0.2,0.4l0,0c-3.2,4.9-9.7,6.4-14.7,3.4l0,0L373.1,323.8L373.1,323.8z"/>
	<path class="st8" d="M374.1,322.4c-4.7-3.4-5.8-9.9-2.4-14.6l0,0l4.3-6.3c4.1-6,12.7-7.3,19-3.5l0,0c6,4.1,8.1,12.3,4.4,18.5
		l-4,6.6l-0.2,0.4l0,0c-3.2,4.9-9.7,6.4-14.7,3.4l0,0L374.1,322.4L374.1,322.4z"/>
	<path class="st9" d="M370.3,309l5.4-7.1c4.1-6,12.4-7.5,18.9-3.5l0,0c6.2,3.7,8.1,12.3,4.4,18.5l-4.4,7.9"/>
	<path class="st6" d="M349.6,334.1c-3.2,4.6-9.5,5.8-14.2,2.7l-0.4-0.2l-6.3-4.3c-6-4.1-7.3-12.7-3.5-18.9l0,0
		c4.1-6,12.3-8.1,18.5-4.4l6.6,4l0.4,0.2l0,0c4.9,3.2,6.4,9.7,3.4,14.7l0,0L349.6,334.1L349.6,334.1z"/>
	<path class="st7" d="M348.5,333.4c-3.4,4.7-9.9,5.8-14.6,2.4l0,0l-6.3-4.3c-6-4.1-7.3-12.7-3.5-18.9l0,0c3.7-6.2,12.3-8.1,18.5-4.4
		l6.6,4l0.4,0.2l0,0c4.9,3.2,6.4,9.7,3.4,14.7l0,0L348.5,333.4L348.5,333.4z"/>
	<path class="st8" d="M347.1,332.4c-3.4,4.7-9.9,5.8-14.6,2.4l0,0l-6.3-4.3c-6-4.1-7.3-12.7-3.5-18.9l0,0c4.1-6,12.3-8.1,18.5-4.4
		l6.6,4l0.4,0.2l0,0c4.9,3.2,6.4,9.7,3.4,14.7l0,0L347.1,332.4L347.1,332.4z"/>
	<path class="st9" d="M333.7,336.2l-7.1-5.4c-6-4.1-7.5-12.4-3.5-19l0,0c3.7-6.2,12.3-8.1,18.5-4.4l7.9,4.4"/>
	<path class="st6" d="M358.7,358.4c4.6,3.2,5.8,9.5,2.7,14.2l-0.2,0.4l-4.3,6.3c-4.1,6-12.7,7.3-18.9,3.5l0,0
		c-6-4.1-8.1-12.3-4.4-18.5l4-6.6l0.2-0.4l0,0c3.2-4.9,9.7-6.4,14.7-3.4l0,0L358.7,358.4z"/>
	<path class="st7" d="M358,359.5c4.7,3.4,5.8,9.9,2.4,14.6l0,0l-4.3,6.3c-4.1,6-12.7,7.3-19,3.5l0,0c-6.2-3.7-8.1-12.3-4.4-18.5
		l4-6.6l0.2-0.4l0,0c3.2-4.9,9.7-6.4,14.7-3.4l0,0L358,359.5z"/>
	<path class="st8" d="M357,360.9c4.7,3.4,5.8,9.9,2.4,14.6l0,0l-4.3,6.3c-4.1,6-12.7,7.3-19,3.5l0,0c-6-4.1-8.1-12.3-4.4-18.5l4-6.6
		l0.2-0.4l0,0c3.2-4.9,9.7-6.4,14.7-3.4l0,0L357,360.9z"/>
	<path class="st9" d="M360.7,374.3l-5.4,7.1c-4.1,6-12.4,7.5-18.9,3.5l0,0c-6.2-3.7-8.1-12.3-4.4-18.5l4.4-7.9"/>
	<circle class="st5" cx="365.9" cy="338.1" r="21.7"/>
	<path class="st3" d="M406.7,594h-23.6c-0.9,0.1-1.7-0.5-1.8-1.4v-53.3c0.1-0.9,0.9-1.5,1.8-1.4h23.6c0.9-0.1,1.7,0.5,1.8,1.4v53.3
		C408.3,593.4,407.5,594,406.7,594L406.7,594z"/>
	<path class="st4" d="M408.2,594h-23.6c-0.9,0.1-1.7-0.5-1.8-1.4v-53.3c0.1-0.9,0.9-1.5,1.8-1.4h23.6c0.9-0.1,1.7,0.5,1.8,1.4v53.3
		C409.8,593.4,409,594,408.2,594z"/>
	<path class="st5" d="M409.6,594H386c-0.9,0.1-1.7-0.5-1.8-1.4v-53.3c0.1-0.9,0.9-1.5,1.8-1.4h23.6c0.9-0.1,1.7,0.5,1.8,1.4v53.3
		C411.3,593.4,410.5,594,409.6,594L409.6,594z"/>
	<path class="st6" d="M383.2,567.5c-0.1,5.6-4.6,10.1-10.2,10.2h-8.1c-7.2,0-13.2-6.4-13.6-13.6l0,0c0-7.2,5.5-13.6,12.8-14.1
		l7.7-0.4h0.4c5.8-0.1,10.7,4.4,11.1,10.2l0,0L383.2,567.5L383.2,567.5z"/>
	<path class="st7" d="M381.9,567.5c-0.1,5.8-4.9,10.3-10.6,10.2h-7.7c-7.2,0-13.2-6.4-13.6-13.6l0,0c-0.4-7.2,5.5-13.6,12.8-14.1
		l7.7-0.4h0.4c5.8-0.1,10.7,4.4,11.1,10.2l0,0L381.9,567.5L381.9,567.5z"/>
	<path class="st8" d="M380.2,567.5c-0.1,5.8-4.9,10.3-10.6,10.2h-7.7c-7.2,0-13.2-6.4-13.6-13.6l0,0c0-7.2,5.5-13.6,12.8-14.1
		l7.7-0.4h0.4c5.8-0.1,10.7,4.4,11.1,10.2l0,0L380.2,567.5L380.2,567.5z"/>
	<path class="st9" d="M371.3,578.1l-8.9-0.4c-7.2,0-13.2-6-13.6-13.6l0,0c-0.4-7.2,5.5-13.6,12.8-14.1l8.9-0.9"/>
	<path class="st3" d="M406.7,650.1h-23.6c-0.9,0.1-1.7-0.5-1.8-1.4v-53.3c0.1-0.9,0.9-1.5,1.8-1.4h23.6c0.9-0.1,1.7,0.5,1.8,1.4
		v53.3C408.3,649.5,407.5,650.2,406.7,650.1L406.7,650.1z"/>
	<path class="st4" d="M408.2,650.1h-23.6c-0.9,0.1-1.7-0.5-1.8-1.4v-53.3c0.1-0.9,0.9-1.5,1.8-1.4h23.6c0.9-0.1,1.7,0.5,1.8,1.4
		v53.3C409.8,649.5,409,650.2,408.2,650.1z"/>
	<path class="st5" d="M409.6,650.1H386c-0.9,0.1-1.7-0.5-1.8-1.4v-53.3c0.1-0.9,0.9-1.5,1.8-1.4h23.6c0.9-0.1,1.7,0.5,1.8,1.4v53.3
		C411.3,649.5,410.5,650.2,409.6,650.1L409.6,650.1z"/>
	<path class="st6" d="M383.2,623.6c-0.1,5.6-4.6,10.1-10.2,10.2h-8.1c-7.2,0-13.2-6.4-13.6-13.6l0,0c0-7.2,5.5-13.6,12.8-14.1
		l7.7-0.4h0.4c5.8-0.1,10.7,4.4,11.1,10.2l0,0L383.2,623.6L383.2,623.6z"/>
	<path class="st7" d="M381.9,623.6c-0.1,5.8-4.9,10.3-10.6,10.2h-7.7c-7.2,0-13.2-6.4-13.6-13.6l0,0c-0.4-7.2,5.5-13.6,12.8-14.1
		l7.7-0.4h0.4c5.8-0.1,10.7,4.4,11.1,10.2l0,0L381.9,623.6L381.9,623.6z"/>
	<path class="st8" d="M380.2,623.6c-0.1,5.8-4.9,10.3-10.6,10.2h-7.7c-7.2,0-13.2-6.4-13.6-13.6l0,0c0-7.2,5.5-13.6,12.8-14.1
		l7.7-0.4h0.4c5.8-0.1,10.7,4.4,11.1,10.2l0,0L380.2,623.6L380.2,623.6z"/>
	<path class="st9" d="M371.3,634.3l-8.9-0.4c-7.2,0-13.2-6-13.6-13.6l0,0c-0.4-7.2,5.5-13.6,12.8-14.1l8.9-0.9"/>
	<path class="st3" d="M417,594h23.6c0.9-0.1,1.7,0.5,1.8,1.4v53.3c-0.1,0.9-0.9,1.5-1.8,1.4H417c-0.9,0.1-1.7-0.5-1.8-1.4v-53.3
		C415.4,594.5,416.1,593.9,417,594z"/>
	<path class="st4" d="M415.5,594h23.6c0.9-0.1,1.7,0.5,1.8,1.4v53.3c-0.1,0.9-0.9,1.5-1.8,1.4h-23.6c-0.9,0.1-1.7-0.5-1.8-1.4v-53.3
		C413.9,594.5,414.7,593.9,415.5,594z"/>
	<path class="st5" d="M414,594h23.6c0.9-0.1,1.7,0.5,1.8,1.4v53.3c-0.1,0.9-0.9,1.5-1.8,1.4H414c-0.9,0.1-1.7-0.5-1.8-1.4v-53.3
		C412.4,594.5,413.2,593.9,414,594z"/>
	<path class="st6" d="M440.5,620.4c0.1-5.6,4.6-10.1,10.2-10.2h8.1c7.2,0,13.2,6.4,13.6,13.6l0,0c0,7.2-5.5,13.6-12.8,14.1l-7.7,0.4
		h-0.4c-5.8,0.1-10.7-4.4-11.1-10.2l0,0L440.5,620.4L440.5,620.4z"/>
	<path class="st7" d="M441.8,620.4c0.1-5.8,4.9-10.3,10.6-10.2h7.7c7.2,0,13.2,6.4,13.6,13.6l0,0c0.4,7.2-5.5,13.6-12.8,14.1
		l-7.7,0.4h-0.4c-5.8,0.1-10.7-4.4-11.1-10.2l0,0L441.8,620.4L441.8,620.4z"/>
	<path class="st8" d="M443.5,620.4c0.1-5.8,4.9-10.3,10.6-10.2h7.7c7.2,0,13.2,6.4,13.6,13.6l0,0c0,7.2-5.5,13.6-12.8,14.1l-7.7,0.4
		h-0.4c-5.8,0.1-10.7-4.4-11.1-10.2l0,0L443.5,620.4L443.5,620.4z"/>
	<path class="st9" d="M452.4,609.8l8.9,0.4c7.2,0,13.2,6,13.6,13.6l0,0c0.4,7.2-5.5,13.6-12.8,14.1l-8.9,0.9"/>
	<path class="st3" d="M417,537.8h23.6c0.9-0.1,1.7,0.5,1.8,1.4v53.3c-0.1,0.9-0.9,1.5-1.8,1.4H417c-0.9,0.1-1.7-0.5-1.8-1.4v-53.3
		C415.4,538.4,416.1,537.7,417,537.8z"/>
	<path class="st4" d="M415.5,537.8h23.6c0.9-0.1,1.7,0.5,1.8,1.4v53.3c-0.1,0.9-0.9,1.5-1.8,1.4h-23.6c-0.9,0.1-1.7-0.5-1.8-1.4
		v-53.3C413.9,538.4,414.7,537.7,415.5,537.8z"/>
	<path class="st5" d="M414,537.8h23.6c0.9-0.1,1.7,0.5,1.8,1.4v53.3c-0.1,0.9-0.9,1.5-1.8,1.4H414c-0.9,0.1-1.7-0.5-1.8-1.4v-53.3
		C412.4,538.4,413.2,537.7,414,537.8z"/>
	<path class="st6" d="M440.5,564.3c0.1-5.6,4.6-10.1,10.2-10.2h8.1c7.2,0,13.2,6.4,13.6,13.6l0,0c0,7.2-5.5,13.6-12.8,14.1l-7.7,0.4
		h-0.4c-5.8,0.1-10.7-4.4-11.1-10.2l0,0L440.5,564.3L440.5,564.3z"/>
	<path class="st7" d="M441.8,564.3c0.1-5.8,4.9-10.3,10.6-10.2h7.7c7.2,0,13.2,6.4,13.6,13.6l0,0c0.4,7.2-5.5,13.6-12.8,14.1
		l-7.7,0.4h-0.4c-5.8,0.1-10.7-4.4-11.1-10.2l0,0L441.8,564.3L441.8,564.3z"/>
	<path class="st8" d="M443.5,564.3c0.1-5.8,4.9-10.3,10.6-10.2h7.7c7.2,0,13.2,6.4,13.6,13.6l0,0c0,7.2-5.5,13.6-12.8,14.1l-7.7,0.4
		h-0.4c-5.8,0.1-10.7-4.4-11.1-10.2l0,0L443.5,564.3L443.5,564.3z"/>
	<path class="st9" d="M452.4,553.6l8.9,0.4c7.2,0,13.2,6,13.6,13.6l0,0c0.4,7.2-5.5,13.6-12.8,14.1l-8.9,0.9"/>
	<path class="st10" d="M231.3,641.8l6.8-15.8c0.3-1.2,1.4-1.9,2.5-1.9l15.9,0.1c3.5,0.1,6.9-1.3,9.4-3.7l0,0
		c2.4-2.4,3.7-5.6,3.7-8.9l-0.5-9.9c0-4.9-1.7-9.6-4.8-13.4l-5.9-7.3l13.7,2.2l6.4,9l2.1,8l-1,25l-6.7,11.5l-9.4,3.7l-21.4,1.1
		L231.3,641.8z"/>
	<path class="st11" d="M232,643.1l6.8-15.8c0.3-1.2,1.4-1.9,2.5-1.9l15.9,0.1c3.5,0.1,6.9-1.3,9.4-3.7l0,0c2.4-2.4,3.7-5.6,3.7-8.9
		l-0.5-9.9c0-4.9-1.7-9.6-4.8-13.4l-5.9-7.3l13.7,2.2l6.4,9l2.5,8.2l-1,25l-6.7,11.5l-9.4,3.7l-21.4,1.1L232,643.1z"/>
	<path class="st12" d="M226.1,581.8l34.6-0.6c10.9-0.4,19.9,8.2,20.3,19l0,0l0,0l0.8,19.3l0.2,0.6l-0.2,0.4
		c-0.2,11.1-9.2,20-20.3,20l-30.9,0.9"/>
	<path class="st6" d="M265.2,600.1L265.2,600.1c-0.3-4.9-4.4-8.8-9.4-8.8l0,0h-6.7l0,0c-6.4,0.2-12.1,5-12.1,11.8l0,0
		c-0.4,6.5,4.7,11.9,11,12.7l6.7,1l1-0.9l0,0c4.8,0.5,9-3,9.5-7.8c0-0.1,0-0.2,0-0.2v-6.7V600.1z"/>
	<path class="st7" d="M264.6,600.3c-0.3-4.9-4.4-8.8-9.4-8.8l0,0h-6.7l0,0c-6.4,0.2-12.1,5-12.1,11.8l0,0c-0.4,6.5,4.7,11.9,11,12.7
		l6.7,1l1-0.9l0,0c4.8,0.5,9-3,9.5-7.8c0-0.1,0-0.2,0-0.2l0,0v-6.7V600.3z"/>
	<path class="st8" d="M264.6,602.7l-0.1-1.5l0,0c-0.3-4.9-4.4-8.8-9.4-8.8l0,0h-6.7l0,0c-6.4,0.2-12.1,5-12.1,11.8l0,0
		c-0.4,6.5,4.7,11.9,11,12.7l6.7,1l0.6-0.2l0,0l0.6-0.2l0,0c4.8,0.5,9-3,9.5-7.8c0-0.1,0-0.2,0-0.2L264.6,602.7L264.6,602.7z"/>
	<path class="st9" d="M256.8,592.9h-8.2l0,0c-6.4,0.2-12.1,5-12.1,11.8l0,0c-0.4,6.5,4.7,11.9,11,12.7l7.8,0.7"/>
	<circle class="st5" cx="219.1" cy="603.5" r="11.1"/>
	<path class="st10" d="M121.4,644l-21.4-1.1l-9.4-3.7L84,627.6l-1-25l2.1-8l6.4-9l13.7-2.2l-5.9,7.3c-3.1,3.8-4.8,8.5-4.8,13.4
		L94,614c0,3.3,1.4,6.6,3.7,8.9l0,0c2.5,2.4,5.9,3.8,9.4,3.7l15.9-0.1c1.2,0,2.2,0.7,2.5,1.9l6.8,15.8L121.4,644z"/>
	<path class="st11" d="M120.4,645.5L99,644.4l-9.4-3.7l-6.7-11.5l-1-25l2.5-8.2l6.4-9l13.7-2.2l-5.9,7.3c-3.1,3.8-4.8,8.5-4.8,13.4
		l-0.5,9.9c0,3.3,1.4,6.6,3.7,8.9l0,0c2.5,2.4,5.9,3.8,9.4,3.7l15.9-0.1c1.2,0,2.2,0.7,2.5,1.9l6.8,15.8L120.4,645.5z"/>
	<path class="st12" d="M133,644l-30.9-0.9c-11.1,0-20.2-8.9-20.3-20l-0.2-0.4l0.2-0.6l0.8-19.3l0,0c0.3-10.9,9.4-19.4,20.3-19l0,0
		l34.6,0.6"/>
	<path class="st6" d="M98.5,603.7v6.7c0.3,4.8,4.5,8.4,9.2,8c0.1,0,0.2,0,0.2,0l0,0l1,0.9l6.7-1c6.3-0.8,11.4-6.1,11-12.7l0,0
		c0-6.7-5.8-11.6-12.1-11.8l0,0h-6.7l0,0c-5,0-9.1,3.9-9.4,8.8l0,0L98.5,603.7z"/>
	<path class="st7" d="M99.1,603.9v6.7l0,0c0.3,4.8,4.5,8.4,9.2,8c0.1,0,0.2,0,0.2,0l0,0l1,0.9l6.7-1c6.3-0.8,11.4-6.1,11-12.7l0,0
		c0-6.7-5.8-11.6-12.1-11.8l0,0h-6.7l0,0c-5,0-9.1,3.9-9.4,8.8L99.1,603.9z"/>
	<path class="st8" d="M99,605.4v6.7c0.3,4.8,4.5,8.4,9.2,8c0.1,0,0.2,0,0.2,0l0,0l0.6,0.2l0,0l0.6,0.2l6.7-1
		c6.3-0.8,11.4-6.1,11-12.7l0,0c0-6.7-5.8-11.6-12.1-11.8l0,0h-6.7l0,0c-5,0-9.1,3.9-9.4,8.8l0,0L99,605.4L99,605.4z"/>
	<path class="st9" d="M108.4,620.7l7.8-0.7c6.3-0.8,11.4-6.1,11-12.7l0,0c0-6.7-5.8-11.6-12.1-11.8l0,0h-8.2"/>
	<circle class="st5" cx="144.5" cy="606.1" r="11.1"/>
	<path class="st8" d="M544.6,272.2l15.9-7.8c0,0,12.3,29.7-2,57.6c0,0-3.2,24.3,2.4,35.1s6.4,41.7-2,49.5l-17.9-7.4
		c0,0,9.1-14.4,4.8-29.5s-9.5-26.8-4.8-50.2c0,0,5.6-12.4,6.3-18.5S548.1,280.8,544.6,272.2z"/>
</g>
<g id="bookable">
	<polygon id="area-404.03-status" class="st13" points="541,529 541,659.4 830,659.4 830,505.7 595.9,505.7 595.9,529.3 	"/>
	<path id="area-404.02-status" class="st13" d="M830,505.7v151.7h242.9c0,0,40.8-9,40.8-34.7s0-168.1,0-168.1H841v51.2L830,505.7z"
		/>
	<rect id="area-404.01-status" x="841" y="228.5" class="st13" width="272.7" height="226.1"/>
	<g class="st14">
		<path class="st11" d="M959.3,350.2l1.4-0.1c0.1,0.5,0.3,0.8,0.5,1s0.6,0.3,1,0.3c0.5,0,0.8-0.1,1.1-0.3c0.2-0.2,0.4-0.4,0.4-0.7
			c0-0.2,0-0.3-0.1-0.4c-0.1-0.1-0.3-0.2-0.5-0.3c-0.2-0.1-0.6-0.2-1.2-0.3c-0.8-0.2-1.3-0.4-1.6-0.7c-0.4-0.4-0.7-0.9-0.7-1.4
			c0-0.4,0.1-0.7,0.3-1c0.2-0.3,0.5-0.6,0.9-0.7c0.4-0.2,0.9-0.2,1.4-0.2c0.9,0,1.6,0.2,2,0.6s0.7,0.9,0.7,1.6l-1.4,0.1
			c-0.1-0.4-0.2-0.6-0.4-0.8c-0.2-0.2-0.5-0.2-0.9-0.2c-0.4,0-0.7,0.1-1,0.3c-0.2,0.1-0.2,0.3-0.2,0.4c0,0.2,0.1,0.3,0.2,0.4
			c0.2,0.2,0.6,0.3,1.3,0.5s1.2,0.3,1.6,0.5c0.3,0.2,0.6,0.4,0.8,0.7c0.2,0.3,0.3,0.7,0.3,1.1c0,0.4-0.1,0.8-0.3,1.2
			c-0.2,0.4-0.6,0.6-1,0.8c-0.4,0.2-0.9,0.3-1.6,0.3c-0.9,0-1.6-0.2-2.1-0.6C959.7,351.6,959.4,351,959.3,350.2z"/>
		<path class="st11" d="M967.4,348.9l-1.2-0.2c0.1-0.5,0.4-0.9,0.7-1.1s0.8-0.4,1.5-0.4c0.6,0,1.1,0.1,1.4,0.2
			c0.3,0.1,0.5,0.3,0.6,0.6c0.1,0.2,0.2,0.6,0.2,1.2l0,1.6c0,0.5,0,0.8,0.1,1c0,0.2,0.1,0.4,0.2,0.7h-1.4c0-0.1-0.1-0.2-0.1-0.4
			c0-0.1,0-0.1,0-0.2c-0.2,0.2-0.5,0.4-0.8,0.5c-0.3,0.1-0.6,0.2-0.9,0.2c-0.5,0-1-0.1-1.3-0.4s-0.5-0.7-0.5-1.1
			c0-0.3,0.1-0.6,0.2-0.8c0.1-0.2,0.3-0.4,0.6-0.5c0.3-0.1,0.6-0.2,1.1-0.3c0.6-0.1,1.1-0.2,1.3-0.3V349c0-0.3-0.1-0.5-0.2-0.6
			c-0.1-0.1-0.4-0.2-0.7-0.2c-0.2,0-0.4,0-0.6,0.1C967.6,348.5,967.5,348.7,967.4,348.9z M969.2,350c-0.2,0.1-0.5,0.1-0.8,0.2
			s-0.6,0.2-0.7,0.2c-0.2,0.1-0.3,0.3-0.3,0.5c0,0.2,0.1,0.4,0.2,0.5c0.1,0.1,0.3,0.2,0.5,0.2c0.2,0,0.5-0.1,0.7-0.2
			c0.2-0.1,0.3-0.3,0.3-0.5c0-0.1,0.1-0.3,0.1-0.7V350z"/>
		<path class="st11" d="M971.9,352.5v-7.2h1.4v7.2H971.9z"/>
		<path class="st11" d="M975.7,348.9l-1.2-0.2c0.1-0.5,0.4-0.9,0.7-1.1s0.8-0.4,1.5-0.4c0.6,0,1.1,0.1,1.4,0.2
			c0.3,0.1,0.5,0.3,0.6,0.6c0.1,0.2,0.2,0.6,0.2,1.2l0,1.6c0,0.5,0,0.8,0.1,1c0,0.2,0.1,0.4,0.2,0.7h-1.4c0-0.1-0.1-0.2-0.1-0.4
			c0-0.1,0-0.1,0-0.2c-0.2,0.2-0.5,0.4-0.8,0.5c-0.3,0.1-0.6,0.2-0.9,0.2c-0.5,0-1-0.1-1.3-0.4s-0.5-0.7-0.5-1.1
			c0-0.3,0.1-0.6,0.2-0.8c0.1-0.2,0.3-0.4,0.6-0.5c0.3-0.1,0.6-0.2,1.1-0.3c0.6-0.1,1.1-0.2,1.3-0.3V349c0-0.3-0.1-0.5-0.2-0.6
			c-0.1-0.1-0.4-0.2-0.7-0.2c-0.2,0-0.4,0-0.6,0.1C975.9,348.5,975.8,348.7,975.7,348.9z M977.5,350c-0.2,0.1-0.5,0.1-0.8,0.2
			s-0.6,0.2-0.7,0.2c-0.2,0.1-0.3,0.3-0.3,0.5c0,0.2,0.1,0.4,0.2,0.5c0.1,0.1,0.3,0.2,0.5,0.2c0.2,0,0.5-0.1,0.7-0.2
			c0.2-0.1,0.3-0.3,0.3-0.5c0-0.1,0.1-0.3,0.1-0.7V350z"/>
		<path class="st11" d="M987.6,349.9l1.4,0.4c-0.2,0.8-0.6,1.4-1.1,1.7c-0.5,0.4-1.1,0.6-1.9,0.6c-1,0-1.7-0.3-2.3-1
			c-0.6-0.7-0.9-1.5-0.9-2.7c0-1.2,0.3-2.1,0.9-2.8c0.6-0.7,1.4-1,2.4-1c0.9,0,1.6,0.3,2.1,0.8c0.3,0.3,0.6,0.7,0.7,1.3l-1.4,0.3
			c-0.1-0.4-0.3-0.7-0.5-0.9s-0.6-0.3-1-0.3c-0.5,0-1,0.2-1.3,0.6c-0.3,0.4-0.5,1-0.5,1.9c0,0.9,0.2,1.5,0.5,1.9
			c0.3,0.4,0.7,0.6,1.3,0.6c0.4,0,0.7-0.1,1-0.4C987.3,350.8,987.5,350.4,987.6,349.9z"/>
		<path class="st11" d="M990.2,352.5v-7.2h1.4v7.2H990.2z"/>
		<path class="st11" d="M993,346.6v-1.3h1.4v1.3H993z M993,352.5v-5.2h1.4v5.2H993z"/>
		<path class="st11" d="M998.8,350.9l1.4,0.2c-0.2,0.5-0.5,0.9-0.8,1.1c-0.4,0.3-0.9,0.4-1.4,0.4c-0.9,0-1.6-0.3-2-0.9
			c-0.3-0.5-0.5-1.1-0.5-1.8c0-0.9,0.2-1.5,0.7-2c0.4-0.5,1-0.7,1.7-0.7c0.8,0,1.4,0.3,1.8,0.8c0.4,0.5,0.7,1.3,0.6,2.3h-3.4
			c0,0.4,0.1,0.7,0.3,0.9c0.2,0.2,0.5,0.3,0.8,0.3c0.2,0,0.4-0.1,0.5-0.2S998.7,351.1,998.8,350.9z M998.9,349.5
			c0-0.4-0.1-0.7-0.3-0.9c-0.2-0.2-0.4-0.3-0.7-0.3c-0.3,0-0.5,0.1-0.7,0.3s-0.3,0.5-0.3,0.9H998.9z"/>
		<path class="st11" d="M1006.1,352.5h-1.4v-2.6c0-0.6,0-0.9-0.1-1.1c-0.1-0.2-0.2-0.3-0.3-0.4s-0.3-0.1-0.5-0.1
			c-0.2,0-0.5,0.1-0.6,0.2c-0.2,0.1-0.3,0.3-0.4,0.5c-0.1,0.2-0.1,0.6-0.1,1.2v2.3h-1.4v-5.2h1.3v0.8c0.5-0.6,1-0.9,1.7-0.9
			c0.3,0,0.6,0.1,0.8,0.2c0.2,0.1,0.4,0.2,0.6,0.4c0.1,0.2,0.2,0.4,0.3,0.6c0.1,0.2,0.1,0.5,0.1,0.9V352.5z"/>
		<path class="st11" d="M1009.9,347.3v1.1h-0.9v2.1c0,0.4,0,0.7,0,0.7c0,0.1,0.1,0.1,0.1,0.2s0.1,0.1,0.2,0.1c0.1,0,0.3,0,0.6-0.1
			l0.1,1.1c-0.3,0.1-0.7,0.2-1.1,0.2c-0.2,0-0.5,0-0.7-0.1c-0.2-0.1-0.3-0.2-0.4-0.3c-0.1-0.1-0.2-0.3-0.2-0.5c0-0.2,0-0.5,0-1v-2.3
			h-0.6v-1.1h0.6v-1l1.4-0.8v1.8H1009.9z"/>
		<path class="st11" d="M1013.8,350.9l1.4,0.2c-0.2,0.5-0.5,0.9-0.8,1.1c-0.4,0.3-0.9,0.4-1.4,0.4c-0.9,0-1.6-0.3-2-0.9
			c-0.3-0.5-0.5-1.1-0.5-1.8c0-0.9,0.2-1.5,0.7-2c0.4-0.5,1-0.7,1.7-0.7c0.8,0,1.4,0.3,1.8,0.8c0.4,0.5,0.7,1.3,0.6,2.3h-3.4
			c0,0.4,0.1,0.7,0.3,0.9c0.2,0.2,0.5,0.3,0.8,0.3c0.2,0,0.4-0.1,0.5-0.2S1013.7,351.1,1013.8,350.9z M1013.9,349.5
			c0-0.4-0.1-0.7-0.3-0.9c-0.2-0.2-0.4-0.3-0.7-0.3c-0.3,0-0.5,0.1-0.7,0.3s-0.3,0.5-0.3,0.9H1013.9z"/>
		<path class="st11" d="M1015.9,351l1.4-0.2c0.1,0.3,0.2,0.5,0.4,0.6c0.2,0.1,0.4,0.2,0.8,0.2c0.4,0,0.6-0.1,0.8-0.2
			c0.1-0.1,0.2-0.2,0.2-0.4c0-0.1,0-0.2-0.1-0.3c-0.1-0.1-0.2-0.1-0.5-0.2c-1.1-0.2-1.8-0.5-2.1-0.7c-0.4-0.3-0.6-0.7-0.6-1.2
			c0-0.4,0.2-0.8,0.5-1.1c0.4-0.3,0.9-0.5,1.7-0.5c0.7,0,1.2,0.1,1.6,0.3c0.3,0.2,0.6,0.6,0.7,1l-1.3,0.2c-0.1-0.2-0.2-0.4-0.3-0.5
			c-0.2-0.1-0.4-0.2-0.7-0.2c-0.4,0-0.6,0.1-0.8,0.2c-0.1,0.1-0.2,0.2-0.2,0.3c0,0.1,0,0.2,0.1,0.2c0.1,0.1,0.6,0.2,1.3,0.4
			c0.7,0.2,1.2,0.4,1.5,0.6c0.3,0.2,0.4,0.6,0.4,1c0,0.5-0.2,0.9-0.6,1.2c-0.4,0.3-1,0.5-1.8,0.5c-0.7,0-1.3-0.1-1.7-0.4
			C1016.3,351.9,1016,351.5,1015.9,351z"/>
		<path class="st11" d="M1027.9,352.5h-1.4v-5.2c-0.5,0.5-1.1,0.8-1.8,1v-1.2c0.4-0.1,0.7-0.3,1.2-0.7c0.4-0.3,0.7-0.7,0.9-1.1h1.1
			V352.5z"/>
	</g>
	<g class="st14">
		<path class="st11" d="M952.8,568.9l1.4-0.1c0.1,0.5,0.3,0.8,0.5,1s0.6,0.3,1,0.3c0.5,0,0.8-0.1,1.1-0.3c0.2-0.2,0.4-0.4,0.4-0.7
			c0-0.2,0-0.3-0.1-0.4c-0.1-0.1-0.3-0.2-0.5-0.3c-0.2-0.1-0.6-0.2-1.2-0.3c-0.8-0.2-1.3-0.4-1.6-0.7c-0.4-0.4-0.7-0.9-0.7-1.4
			c0-0.4,0.1-0.7,0.3-1c0.2-0.3,0.5-0.6,0.9-0.7c0.4-0.2,0.9-0.2,1.4-0.2c0.9,0,1.6,0.2,2,0.6s0.7,0.9,0.7,1.6l-1.4,0.1
			c-0.1-0.4-0.2-0.6-0.4-0.8c-0.2-0.2-0.5-0.2-0.9-0.2c-0.4,0-0.7,0.1-1,0.3c-0.2,0.1-0.2,0.3-0.2,0.4c0,0.2,0.1,0.3,0.2,0.4
			c0.2,0.2,0.6,0.3,1.3,0.5s1.2,0.3,1.6,0.5c0.3,0.2,0.6,0.4,0.8,0.7c0.2,0.3,0.3,0.7,0.3,1.1c0,0.4-0.1,0.8-0.3,1.2
			c-0.2,0.4-0.5,0.6-1,0.8c-0.4,0.2-0.9,0.3-1.6,0.3c-0.9,0-1.6-0.2-2.1-0.6C953.2,570.4,952.9,569.7,952.8,568.9z"/>
		<path class="st11" d="M960.9,567.7l-1.2-0.2c0.1-0.5,0.4-0.9,0.7-1.1s0.8-0.4,1.5-0.4c0.6,0,1.1,0.1,1.4,0.2
			c0.3,0.1,0.5,0.3,0.6,0.6c0.1,0.2,0.2,0.6,0.2,1.2l0,1.6c0,0.5,0,0.8,0.1,1c0,0.2,0.1,0.4,0.2,0.7H963c0-0.1-0.1-0.2-0.1-0.4
			c0-0.1,0-0.1,0-0.2c-0.2,0.2-0.5,0.4-0.8,0.5c-0.3,0.1-0.6,0.2-0.9,0.2c-0.5,0-1-0.1-1.3-0.4s-0.5-0.7-0.5-1.1
			c0-0.3,0.1-0.6,0.2-0.8c0.1-0.2,0.3-0.4,0.6-0.5c0.3-0.1,0.6-0.2,1.1-0.3c0.6-0.1,1.1-0.2,1.3-0.3v-0.1c0-0.3-0.1-0.5-0.2-0.6
			c-0.1-0.1-0.4-0.2-0.7-0.2c-0.2,0-0.4,0-0.6,0.1C961.1,567.3,961,567.4,960.9,567.7z M962.7,568.8c-0.2,0.1-0.5,0.1-0.8,0.2
			s-0.6,0.2-0.7,0.2c-0.2,0.1-0.3,0.3-0.3,0.5c0,0.2,0.1,0.4,0.2,0.5c0.1,0.1,0.3,0.2,0.5,0.2c0.2,0,0.5-0.1,0.7-0.2
			c0.2-0.1,0.3-0.3,0.3-0.5c0-0.1,0.1-0.3,0.1-0.7V568.8z"/>
		<path class="st11" d="M965.4,571.3v-7.2h1.4v7.2H965.4z"/>
		<path class="st11" d="M969.2,567.7l-1.2-0.2c0.1-0.5,0.4-0.9,0.7-1.1s0.8-0.4,1.5-0.4c0.6,0,1.1,0.1,1.4,0.2
			c0.3,0.1,0.5,0.3,0.6,0.6c0.1,0.2,0.2,0.6,0.2,1.2l0,1.6c0,0.5,0,0.8,0.1,1c0,0.2,0.1,0.4,0.2,0.7h-1.4c0-0.1-0.1-0.2-0.1-0.4
			c0-0.1,0-0.1,0-0.2c-0.2,0.2-0.5,0.4-0.8,0.5c-0.3,0.1-0.6,0.2-0.9,0.2c-0.5,0-1-0.1-1.3-0.4s-0.5-0.7-0.5-1.1
			c0-0.3,0.1-0.6,0.2-0.8c0.1-0.2,0.3-0.4,0.6-0.5c0.3-0.1,0.6-0.2,1.1-0.3c0.6-0.1,1.1-0.2,1.3-0.3v-0.1c0-0.3-0.1-0.5-0.2-0.6
			c-0.1-0.1-0.4-0.2-0.7-0.2c-0.2,0-0.4,0-0.6,0.1C969.4,567.3,969.3,567.4,969.2,567.7z M971.1,568.8c-0.2,0.1-0.5,0.1-0.8,0.2
			s-0.6,0.2-0.7,0.2c-0.2,0.1-0.3,0.3-0.3,0.5c0,0.2,0.1,0.4,0.2,0.5c0.1,0.1,0.3,0.2,0.5,0.2c0.2,0,0.5-0.1,0.7-0.2
			c0.2-0.1,0.3-0.3,0.3-0.5c0-0.1,0.1-0.3,0.1-0.7V568.8z"/>
		<path class="st11" d="M981.1,568.6l1.4,0.4c-0.2,0.8-0.6,1.4-1.1,1.7c-0.5,0.4-1.1,0.6-1.9,0.6c-1,0-1.7-0.3-2.3-1
			c-0.6-0.7-0.9-1.5-0.9-2.7c0-1.2,0.3-2.1,0.9-2.8c0.6-0.7,1.4-1,2.4-1c0.9,0,1.6,0.3,2.1,0.8c0.3,0.3,0.6,0.7,0.7,1.3l-1.4,0.3
			c-0.1-0.4-0.3-0.7-0.5-0.9s-0.6-0.3-1-0.3c-0.5,0-1,0.2-1.3,0.6c-0.3,0.4-0.5,1-0.5,1.9c0,0.9,0.2,1.5,0.5,1.9
			c0.3,0.4,0.7,0.6,1.3,0.6c0.4,0,0.7-0.1,1-0.4C980.8,569.6,981,569.2,981.1,568.6z"/>
		<path class="st11" d="M983.8,571.3v-7.2h1.4v7.2H983.8z"/>
		<path class="st11" d="M986.5,565.4v-1.3h1.4v1.3H986.5z M986.5,571.3v-5.2h1.4v5.2H986.5z"/>
		<path class="st11" d="M992.3,569.6l1.4,0.2c-0.2,0.5-0.5,0.9-0.8,1.1c-0.4,0.3-0.9,0.4-1.4,0.4c-0.9,0-1.6-0.3-2-0.9
			c-0.3-0.5-0.5-1.1-0.5-1.8c0-0.9,0.2-1.5,0.7-2c0.4-0.5,1-0.7,1.7-0.7c0.8,0,1.4,0.3,1.8,0.8c0.4,0.5,0.7,1.3,0.6,2.3h-3.4
			c0,0.4,0.1,0.7,0.3,0.9c0.2,0.2,0.5,0.3,0.8,0.3c0.2,0,0.4-0.1,0.5-0.2S992.2,569.9,992.3,569.6z M992.4,568.2
			c0-0.4-0.1-0.7-0.3-0.9c-0.2-0.2-0.4-0.3-0.7-0.3c-0.3,0-0.5,0.1-0.7,0.3s-0.3,0.5-0.3,0.9H992.4z"/>
		<path class="st11" d="M999.6,571.3h-1.4v-2.6c0-0.6,0-0.9-0.1-1.1c-0.1-0.2-0.2-0.3-0.3-0.4s-0.3-0.1-0.5-0.1
			c-0.2,0-0.5,0.1-0.6,0.2c-0.2,0.1-0.3,0.3-0.4,0.5c-0.1,0.2-0.1,0.6-0.1,1.2v2.3h-1.4v-5.2h1.3v0.8c0.5-0.6,1-0.9,1.7-0.9
			c0.3,0,0.6,0.1,0.8,0.2c0.3,0.1,0.4,0.2,0.6,0.4c0.1,0.2,0.2,0.4,0.3,0.6c0,0.2,0.1,0.5,0.1,0.9V571.3z"/>
		<path class="st11" d="M1003.4,566.1v1.1h-0.9v2.1c0,0.4,0,0.7,0,0.7c0,0.1,0.1,0.1,0.1,0.2s0.1,0.1,0.2,0.1c0.1,0,0.3,0,0.6-0.1
			l0.1,1.1c-0.3,0.1-0.7,0.2-1.1,0.2c-0.2,0-0.5,0-0.7-0.1c-0.2-0.1-0.3-0.2-0.4-0.3c-0.1-0.1-0.2-0.3-0.2-0.5c0-0.2,0-0.5,0-1v-2.3
			h-0.6v-1.1h0.6v-1l1.4-0.8v1.8H1003.4z"/>
		<path class="st11" d="M1007.3,569.6l1.4,0.2c-0.2,0.5-0.5,0.9-0.8,1.1c-0.4,0.3-0.9,0.4-1.4,0.4c-0.9,0-1.6-0.3-2-0.9
			c-0.3-0.5-0.5-1.1-0.5-1.8c0-0.9,0.2-1.5,0.7-2c0.4-0.5,1-0.7,1.7-0.7c0.8,0,1.4,0.3,1.8,0.8c0.4,0.5,0.7,1.3,0.6,2.3h-3.4
			c0,0.4,0.1,0.7,0.3,0.9c0.2,0.2,0.5,0.3,0.8,0.3c0.2,0,0.4-0.1,0.5-0.2S1007.2,569.9,1007.3,569.6z M1007.4,568.2
			c0-0.4-0.1-0.7-0.3-0.9c-0.2-0.2-0.4-0.3-0.7-0.3c-0.3,0-0.5,0.1-0.7,0.3s-0.3,0.5-0.3,0.9H1007.4z"/>
		<path class="st11" d="M1009.4,569.8l1.4-0.2c0.1,0.3,0.2,0.5,0.4,0.6c0.2,0.1,0.4,0.2,0.8,0.2c0.4,0,0.6-0.1,0.8-0.2
			c0.1-0.1,0.2-0.2,0.2-0.4c0-0.1,0-0.2-0.1-0.3c-0.1-0.1-0.2-0.1-0.5-0.2c-1.1-0.2-1.8-0.5-2.1-0.7c-0.4-0.3-0.6-0.7-0.6-1.2
			c0-0.4,0.2-0.8,0.5-1.1c0.4-0.3,0.9-0.5,1.7-0.5c0.7,0,1.2,0.1,1.6,0.3c0.3,0.2,0.6,0.6,0.7,1l-1.3,0.2c-0.1-0.2-0.2-0.4-0.3-0.5
			c-0.2-0.1-0.4-0.2-0.7-0.2c-0.4,0-0.6,0.1-0.8,0.2c-0.1,0.1-0.2,0.2-0.2,0.3c0,0.1,0,0.2,0.1,0.2c0.1,0.1,0.6,0.2,1.3,0.4
			c0.7,0.2,1.2,0.4,1.5,0.6c0.3,0.2,0.4,0.6,0.4,1c0,0.5-0.2,0.9-0.6,1.2c-0.4,0.3-1,0.5-1.8,0.5c-0.7,0-1.3-0.1-1.7-0.4
			C1009.8,570.7,1009.5,570.3,1009.4,569.8z"/>
		<path class="st11" d="M1022.6,570v1.3h-4.8c0.1-0.5,0.2-0.9,0.5-1.4c0.3-0.4,0.8-1,1.5-1.7c0.6-0.6,1-1,1.1-1.2
			c0.2-0.3,0.3-0.6,0.3-0.8c0-0.3-0.1-0.5-0.2-0.7c-0.2-0.2-0.4-0.2-0.7-0.2c-0.3,0-0.5,0.1-0.7,0.3c-0.2,0.2-0.3,0.5-0.3,0.9
			l-1.4-0.1c0.1-0.8,0.3-1.3,0.8-1.6s1-0.5,1.6-0.5c0.7,0,1.3,0.2,1.7,0.6c0.4,0.4,0.6,0.9,0.6,1.4c0,0.3-0.1,0.6-0.2,0.9
			c-0.1,0.3-0.3,0.6-0.5,0.9c-0.2,0.2-0.5,0.5-0.9,0.9c-0.4,0.4-0.7,0.7-0.8,0.8c-0.1,0.1-0.2,0.3-0.3,0.4H1022.6z"/>
	</g>
	<g class="st14">
		<path class="st11" d="M657.6,587.7v-5.9h-2.1v-1.2h5.7v1.2h-2.1v5.9H657.6z"/>
		<path class="st11" d="M664.4,586l1.4,0.2c-0.2,0.5-0.5,0.9-0.8,1.1c-0.4,0.3-0.9,0.4-1.4,0.4c-0.9,0-1.6-0.3-2-0.9
			c-0.3-0.5-0.5-1.1-0.5-1.8c0-0.9,0.2-1.5,0.7-2c0.4-0.5,1-0.7,1.7-0.7c0.8,0,1.4,0.3,1.8,0.8c0.4,0.5,0.7,1.3,0.6,2.3h-3.4
			c0,0.4,0.1,0.7,0.3,0.9c0.2,0.2,0.5,0.3,0.8,0.3c0.2,0,0.4-0.1,0.5-0.2S664.3,586.3,664.4,586z M664.4,584.6
			c0-0.4-0.1-0.7-0.3-0.9c-0.2-0.2-0.4-0.3-0.7-0.3c-0.3,0-0.5,0.1-0.7,0.3s-0.3,0.5-0.3,0.9H664.4z"/>
		<path class="st11" d="M667.9,584.1l-1.2-0.2c0.1-0.5,0.4-0.9,0.7-1.1s0.8-0.4,1.5-0.4c0.6,0,1.1,0.1,1.4,0.2
			c0.3,0.1,0.5,0.3,0.6,0.6c0.1,0.2,0.2,0.6,0.2,1.2l0,1.6c0,0.5,0,0.8,0.1,1c0,0.2,0.1,0.4,0.2,0.7h-1.4c0-0.1-0.1-0.2-0.1-0.4
			c0-0.1,0-0.1,0-0.2c-0.2,0.2-0.5,0.4-0.8,0.5c-0.3,0.1-0.6,0.2-0.9,0.2c-0.5,0-1-0.1-1.3-0.4s-0.5-0.7-0.5-1.1
			c0-0.3,0.1-0.6,0.2-0.8c0.1-0.2,0.3-0.4,0.6-0.5c0.3-0.1,0.6-0.2,1.1-0.3c0.6-0.1,1.1-0.2,1.3-0.3v-0.1c0-0.3-0.1-0.5-0.2-0.6
			c-0.1-0.1-0.4-0.2-0.7-0.2c-0.2,0-0.4,0-0.6,0.1C668.1,583.7,668,583.8,667.9,584.1z M669.8,585.2c-0.2,0.1-0.5,0.1-0.8,0.2
			s-0.6,0.2-0.7,0.2c-0.2,0.1-0.3,0.3-0.3,0.5c0,0.2,0.1,0.4,0.2,0.5c0.1,0.1,0.3,0.2,0.5,0.2c0.2,0,0.5-0.1,0.7-0.2
			c0.2-0.1,0.3-0.3,0.3-0.5c0-0.1,0.1-0.3,0.1-0.7V585.2z"/>
		<path class="st11" d="M672.4,582.5h1.3v0.7c0.5-0.5,1-0.8,1.6-0.8c0.3,0,0.6,0.1,0.9,0.2s0.4,0.3,0.6,0.6c0.2-0.3,0.5-0.5,0.7-0.6
			s0.5-0.2,0.8-0.2c0.4,0,0.7,0.1,1,0.2c0.3,0.2,0.5,0.4,0.6,0.7c0.1,0.2,0.1,0.6,0.1,1.1v3.3h-1.4v-3c0-0.5,0-0.8-0.1-1
			c-0.1-0.2-0.3-0.3-0.6-0.3c-0.2,0-0.4,0.1-0.5,0.2c-0.2,0.1-0.3,0.3-0.4,0.5c-0.1,0.2-0.1,0.6-0.1,1.1v2.5h-1.4v-2.8
			c0-0.5,0-0.8-0.1-1s-0.1-0.3-0.2-0.3s-0.2-0.1-0.4-0.1c-0.2,0-0.4,0.1-0.6,0.2c-0.2,0.1-0.3,0.3-0.4,0.5s-0.1,0.6-0.1,1.1v2.5
			h-1.4V582.5z"/>
		<path class="st11" d="M682.7,587.7h-1.4v-5.2h1.3v0.7c0.2-0.3,0.4-0.6,0.6-0.7c0.2-0.1,0.4-0.2,0.6-0.2c0.3,0,0.6,0.1,0.9,0.3
			l-0.4,1.2c-0.2-0.1-0.4-0.2-0.6-0.2c-0.2,0-0.4,0.1-0.5,0.2c-0.1,0.1-0.2,0.3-0.3,0.6c-0.1,0.3-0.1,0.9-0.1,1.7V587.7z"/>
		<path class="st11" d="M684.9,585c0-0.5,0.1-0.9,0.3-1.3s0.5-0.8,1-1c0.4-0.2,0.9-0.3,1.4-0.3c0.8,0,1.4,0.3,1.9,0.8
			c0.5,0.5,0.8,1.2,0.8,1.9c0,0.8-0.3,1.4-0.8,2c-0.5,0.5-1.1,0.8-1.9,0.8c-0.5,0-0.9-0.1-1.4-0.3c-0.4-0.2-0.8-0.5-1-0.9
			C685.1,586.1,684.9,585.6,684.9,585z M686.4,585.1c0,0.5,0.1,0.9,0.4,1.2s0.5,0.4,0.9,0.4c0.4,0,0.7-0.1,0.9-0.4
			c0.2-0.3,0.4-0.7,0.4-1.2c0-0.5-0.1-0.9-0.4-1.2c-0.2-0.3-0.5-0.4-0.9-0.4c-0.4,0-0.7,0.1-0.9,0.4S686.4,584.6,686.4,585.1z"/>
		<path class="st11" d="M691.3,582.5h1.3v0.7c0.5-0.5,1-0.8,1.6-0.8c0.3,0,0.6,0.1,0.9,0.2s0.4,0.3,0.6,0.6c0.2-0.3,0.5-0.5,0.7-0.6
			s0.5-0.2,0.8-0.2c0.4,0,0.7,0.1,1,0.2c0.3,0.2,0.5,0.4,0.6,0.7c0.1,0.2,0.1,0.6,0.1,1.1v3.3h-1.4v-3c0-0.5,0-0.8-0.1-1
			c-0.1-0.2-0.3-0.3-0.6-0.3c-0.2,0-0.4,0.1-0.5,0.2c-0.2,0.1-0.3,0.3-0.4,0.5c-0.1,0.2-0.1,0.6-0.1,1.1v2.5h-1.4v-2.8
			c0-0.5,0-0.8-0.1-1s-0.1-0.3-0.2-0.3s-0.2-0.1-0.4-0.1c-0.2,0-0.4,0.1-0.6,0.2c-0.2,0.1-0.3,0.3-0.4,0.5s-0.1,0.6-0.1,1.1v2.5
			h-1.4V582.5z"/>
	</g>
</g>
<g id="icons_and_labels">
	<circle class="st15" cx="747.1" cy="446.2" r="25.1"/>
	<g id="Outline_Icons-5-2">
		<path class="st16" d="M756.1,446.8c0.1,0.5-0.3,1-0.9,1.1h-4.8v-10.3c0-1,0.7-1.9,1.8-2h2c1,0,1.9,0.7,2,1.8l0,0L756.1,446.8
			L756.1,446.8z"/>
		<path class="st16" d="M743,457.2h9.5v-5.7l2.9-2v-2h-15.8c-0.2,2.3,1.5,4.4,3.8,4.6h0.1h0.7L743,457.2z"/>
		<rect x="738.1" y="446" class="st16" width="12.3" height="2"/>
		<circle class="st16" cx="753.7" cy="438.7" r="1.1"/>
	</g>
	<path class="st17" d="M777.5,271.7v-7.2h0.9v7.2H777.5z"/>
	<path class="st17" d="M782,271.7v-6.3h-2.4v-0.8h5.7v0.8h-2.4v6.3H782z"/>
	<path class="st17" d="M788.9,271.7v-7.2h3.2c0.5,0,1,0,1.5,0.2c0.3,0.1,0.6,0.4,0.8,0.7c0.2,0.3,0.3,0.7,0.3,1.1
		c0,0.5-0.2,0.9-0.5,1.3c-0.4,0.4-1,0.6-1.5,0.7c0.2,0.1,0.4,0.2,0.6,0.4c0.3,0.3,0.6,0.6,0.8,1l1.2,1.9H794l-0.9-1.5
		c-0.3-0.4-0.5-0.8-0.7-1c-0.1-0.2-0.3-0.3-0.5-0.5c-0.1-0.1-0.3-0.2-0.4-0.2c-0.2,0-0.4,0-0.5,0h-1.1v3.2h-1V271.7z M789.8,267.7h2
		c0.3,0,0.7,0,1-0.1c0.2-0.1,0.4-0.2,0.6-0.4c0.1-0.2,0.2-0.4,0.2-0.6c0-0.3-0.1-0.6-0.4-0.8c-0.3-0.2-0.7-0.4-1.2-0.3h-2.3
		L789.8,267.7z"/>
	<path class="st17" d="M795.6,269.1c-0.1-0.8,0.2-1.6,0.8-2.1c0.5-0.4,1-0.6,1.6-0.6c0.7,0,1.3,0.2,1.7,0.7c0.5,0.5,0.7,1.2,0.7,1.9
		c0,0.5-0.1,1.1-0.3,1.6c-0.2,0.4-0.5,0.7-0.9,0.9c-0.4,0.2-0.8,0.3-1.3,0.3c-0.7,0-1.3-0.2-1.8-0.7
		C795.8,270.6,795.6,269.9,795.6,269.1z M796.5,269.1c0,0.5,0.1,1.1,0.4,1.5c0.5,0.6,1.4,0.7,2,0.1c0.1,0,0.1-0.1,0.1-0.1
		c0.3-0.4,0.5-1,0.4-1.5c0-0.5-0.1-1-0.4-1.5c-0.5-0.6-1.4-0.7-2-0.1l-0.1,0.1C796.7,268.1,796.5,268.6,796.5,269.1L796.5,269.1z"/>
	<path class="st17" d="M801.2,269.1c-0.1-0.8,0.2-1.6,0.8-2.1c0.5-0.4,1-0.6,1.6-0.6c0.7,0,1.3,0.2,1.7,0.7c0.5,0.5,0.7,1.2,0.7,1.9
		c0,0.5-0.1,1.1-0.3,1.6c-0.2,0.4-0.5,0.7-0.9,0.9c-0.4,0.2-0.8,0.3-1.3,0.3c-0.7,0-1.3-0.2-1.8-0.7
		C801.4,270.6,801.2,269.9,801.2,269.1z M802.1,269.1c0,0.5,0.1,1.1,0.4,1.5c0.5,0.6,1.4,0.7,2,0.1c0.1,0,0.1-0.1,0.1-0.1
		c0.3-0.4,0.5-1,0.4-1.5c0-0.5-0.1-1-0.4-1.5c-0.5-0.6-1.4-0.7-2-0.1l-0.1,0.1C802.2,268.1,802.1,268.6,802.1,269.1L802.1,269.1z"/>
	<path class="st17" d="M807.1,271.7v-5.2h0.8v0.7c0.3-0.5,0.9-0.9,1.6-0.8c0.3,0,0.7,0.1,0.9,0.2c0.2,0.2,0.4,0.4,0.5,0.7
		c0.3-0.6,0.9-0.9,1.6-0.9c0.4,0,0.9,0.1,1.2,0.4c0.3,0.4,0.5,0.8,0.4,1.3v3.6h-0.9v-3.3c0-0.3,0-0.5-0.1-0.8
		c-0.1-0.2-0.2-0.3-0.3-0.4c-0.2-0.1-0.3-0.1-0.5-0.1c-0.3,0-0.7,0.1-0.9,0.4c-0.3,0.3-0.4,0.7-0.4,1.2v3h-0.9v-3.4
		c0-0.3-0.1-0.6-0.2-0.9c-0.2-0.2-0.4-0.3-0.7-0.3c-0.2,0-0.5,0.1-0.7,0.2s-0.4,0.3-0.5,0.6c-0.1,0.4-0.2,0.7-0.1,1.1v2.7
		L807.1,271.7z"/>
	<path class="st17" d="M366.8,509.4c-0.1-1,0.3-2,1-2.8c0.6-0.7,1.5-1,2.5-1c0.6,0,1.2,0.2,1.8,0.5c0.5,0.3,0.9,0.8,1.2,1.3
		c0.3,0.6,0.4,1.3,0.4,1.9c0,0.7-0.1,1.3-0.4,1.9s-0.7,1-1.2,1.3c-0.5,0.3-1.1,0.4-1.7,0.4s-1.3-0.2-1.8-0.5s-0.9-0.8-1.2-1.3
		C366.9,510.6,366.8,510,366.8,509.4z M367.7,509.4c0,0.7,0.2,1.5,0.7,2c0.9,1,2.5,1,3.4,0.1c0,0,0,0,0.1-0.1
		c0.5-0.6,0.7-1.4,0.7-2.1c0-0.5-0.1-1-0.3-1.5c-0.2-0.4-0.5-0.8-0.9-1s-0.8-0.4-1.3-0.4c-0.6,0-1.3,0.2-1.7,0.7
		C367.9,507.7,367.6,508.6,367.7,509.4L367.7,509.4z"/>
	<path class="st17" d="M374.7,514.8v-7.2h0.8v0.7c0.2-0.2,0.4-0.4,0.6-0.6c0.3-0.1,0.6-0.2,0.9-0.2c0.4,0,0.8,0.1,1.2,0.3
		c0.3,0.2,0.6,0.6,0.8,1c0.2,0.4,0.3,0.9,0.3,1.4s-0.1,1-0.3,1.4c-0.3,0.8-1.1,1.3-2,1.3c-0.3,0-0.5-0.1-0.8-0.2
		c-0.2-0.1-0.4-0.3-0.6-0.5v2.5L374.7,514.8z M375.5,510.3c0,0.5,0.1,1,0.4,1.5c0.2,0.3,0.6,0.5,1,0.5s0.8-0.2,1-0.5
		c0.3-0.4,0.5-1,0.4-1.5c0-0.5-0.1-1.1-0.4-1.5c-0.2-0.3-0.6-0.5-1-0.5s-0.8,0.2-1,0.5C375.6,509.2,375.5,509.8,375.5,510.3
		L375.5,510.3z"/>
	<path class="st17" d="M383.8,511.2l0.9,0.1c-0.1,0.5-0.4,0.9-0.8,1.2s-1,0.5-1.5,0.4c-0.7,0-1.3-0.2-1.8-0.7s-0.7-1.2-0.7-2
		c0-0.7,0.2-1.5,0.7-2s1.1-0.7,1.7-0.7s1.3,0.2,1.7,0.7c0.5,0.6,0.7,1.3,0.7,2c0,0.1,0,0.1,0,0.2h-3.9c0,0.5,0.2,0.9,0.5,1.3
		c0.3,0.3,0.7,0.5,1.1,0.5c0.3,0,0.6-0.1,0.8-0.3C383.5,511.8,383.7,511.5,383.8,511.2z M380.9,509.8h2.9c0-0.4-0.1-0.7-0.3-1
		c-0.3-0.3-0.7-0.5-1.1-0.5s-0.7,0.1-1,0.4C381.1,509,380.9,509.4,380.9,509.8z"/>
	<path class="st17" d="M385.8,512.9v-5.2h0.8v0.7c0.4-0.6,1-0.9,1.6-0.9c0.3,0,0.6,0.1,0.9,0.2c0.2,0.1,0.4,0.2,0.6,0.4
		c0.1,0.2,0.2,0.4,0.3,0.6c0,0.3,0.1,0.6,0,0.9v3.2h-0.9v-3.2c0-0.3,0-0.5-0.1-0.8c-0.1-0.2-0.2-0.3-0.4-0.4
		c-0.2-0.1-0.4-0.2-0.6-0.2c-0.4,0-0.7,0.1-1,0.4c-0.3,0.4-0.5,0.9-0.4,1.4v2.8L385.8,512.9z"/>
	<path class="st17" d="M394.3,512.9v-7.2h2.7c0.4,0,0.7,0,1.1,0.1c0.3,0,0.6,0.2,0.9,0.3c0.2,0.2,0.4,0.4,0.6,0.7
		c0.4,0.8,0.2,1.8-0.4,2.5c-0.6,0.5-1.3,0.7-2.1,0.6h-1.8v2.9L394.3,512.9L394.3,512.9z M395.2,509.1h1.9c0.5,0,0.9-0.1,1.3-0.3
		c0.3-0.2,0.4-0.6,0.4-1c0-0.3-0.1-0.5-0.2-0.8c-0.1-0.2-0.4-0.4-0.6-0.4c-0.3-0.1-0.6-0.1-0.9-0.1h-1.8L395.2,509.1z"/>
	<path class="st17" d="M400.8,512.9v-7.2h0.9v7.2H400.8z"/>
	<path class="st17" d="M406.4,512.2c-0.3,0.2-0.6,0.4-0.9,0.6c-0.3,0.1-0.6,0.2-1,0.2c-0.5,0-0.9-0.1-1.3-0.4
		c-0.3-0.3-0.5-0.7-0.5-1.1c0-0.2,0.1-0.5,0.2-0.7s0.3-0.4,0.5-0.5s0.4-0.2,0.6-0.3c0.3-0.1,0.5-0.1,0.8-0.1c0.5,0,1.1-0.1,1.6-0.3
		c0-0.1,0-0.2,0-0.2c0-0.3-0.1-0.6-0.2-0.8c-0.3-0.2-0.6-0.3-1-0.3c-0.3,0-0.6,0.1-0.9,0.2c-0.2,0.2-0.4,0.5-0.4,0.8l-0.9-0.1
		c0.1-0.3,0.2-0.6,0.4-0.9c0.2-0.2,0.5-0.4,0.8-0.5c0.4-0.1,0.8-0.2,1.2-0.2c0.4,0,0.7,0,1.1,0.2c0.2,0.1,0.4,0.2,0.6,0.4
		c0.1,0.2,0.2,0.4,0.3,0.6c0,0.3,0.1,0.5,0,0.8v1.2c0,0.5,0,1,0.1,1.6c0,0.2,0.1,0.4,0.2,0.6h-0.9
		C406.5,512.7,406.5,512.4,406.4,512.2z M406.4,510.3c-0.5,0.2-0.9,0.3-1.4,0.3c-0.3,0-0.5,0.1-0.8,0.2s-0.5,0.4-0.5,0.7
		c0,0.2,0.1,0.4,0.3,0.6c0.2,0.2,0.5,0.3,0.8,0.2c0.3,0,0.6-0.1,0.9-0.2c0.3-0.1,0.5-0.4,0.6-0.6c0.1-0.3,0.2-0.6,0.1-0.9V510.3z"/>
	<path class="st17" d="M408.6,512.9v-5.2h0.8v0.7c0.4-0.6,1-0.9,1.6-0.9c0.3,0,0.6,0.1,0.9,0.2c0.2,0.1,0.4,0.2,0.6,0.4
		c0.1,0.2,0.2,0.4,0.3,0.6c0,0.3,0.1,0.6,0,0.9v3.2H412v-3.2c0-0.3,0-0.5-0.1-0.8c-0.1-0.2-0.2-0.3-0.4-0.4
		c-0.2-0.1-0.4-0.2-0.6-0.2c-0.4,0-0.7,0.1-1,0.4c-0.3,0.4-0.5,0.9-0.4,1.4v2.8L408.6,512.9z"/>
	<path class="st17" d="M418.3,512.9l-1.9-7.2h1l1.1,4.7c0.1,0.5,0.2,1,0.3,1.5c0.2-0.8,0.3-1.2,0.3-1.3l1.4-4.8h1.1l1,3.6
		c0.2,0.8,0.4,1.7,0.6,2.5c0.1-0.5,0.2-1,0.4-1.6l1.1-4.6h1l-2,7.2h-0.9l-1.5-5.5c-0.1-0.5-0.2-0.7-0.2-0.8
		c-0.1,0.3-0.1,0.6-0.2,0.8l-1.5,5.5H418.3z"/>
	<path class="st17" d="M425.9,510.3c-0.1-0.8,0.2-1.6,0.8-2.1c0.5-0.4,1-0.6,1.6-0.6c0.7,0,1.3,0.2,1.7,0.7c0.5,0.5,0.7,1.2,0.7,1.9
		c0,0.5-0.1,1.1-0.3,1.6c-0.2,0.4-0.5,0.7-0.9,0.9s-0.8,0.3-1.3,0.3c-0.7,0-1.3-0.2-1.8-0.7C426.1,511.7,425.8,511,425.9,510.3z
		 M426.8,510.3c0,0.5,0.1,1.1,0.4,1.5c0.5,0.6,1.4,0.7,2,0.1l0.1-0.1c0.3-0.4,0.5-1,0.4-1.5c0-0.5-0.1-1-0.4-1.5
		c-0.5-0.6-1.4-0.7-2-0.1l-0.1,0.1C426.9,509.2,426.8,509.7,426.8,510.3L426.8,510.3z"/>
	<path class="st17" d="M431.8,512.9v-5.2h0.8v0.8c0.1-0.3,0.3-0.5,0.6-0.7c0.2-0.1,0.4-0.2,0.6-0.2c0.3,0,0.6,0.1,0.9,0.3l-0.3,0.8
		c-0.2-0.1-0.4-0.2-0.6-0.2s-0.4,0.1-0.5,0.2c-0.2,0.1-0.3,0.3-0.3,0.5c-0.1,0.3-0.2,0.7-0.1,1v2.7L431.8,512.9L431.8,512.9z"/>
	<path class="st17" d="M435.1,512.9v-7.2h0.9v4.1l2.1-2.1h1.1l-2,1.9l2.2,3.3h-1.1l-1.7-2.7l-0.6,0.6v2.1H435.1z"/>
	<path class="st17" d="M439.8,511.3l0.9-0.1c0,0.3,0.2,0.6,0.4,0.8c0.3,0.2,0.6,0.3,0.9,0.3s0.6-0.1,0.9-0.2
		c0.2-0.1,0.3-0.4,0.3-0.6s-0.1-0.4-0.3-0.5c-0.3-0.1-0.6-0.2-0.9-0.3c-0.5-0.1-0.9-0.2-1.3-0.4c-0.7-0.3-0.9-1.1-0.6-1.8
		c0,0,0,0,0-0.1c0.1-0.2,0.3-0.4,0.4-0.5c0.2-0.1,0.4-0.2,0.6-0.3c0.2-0.1,0.5-0.1,0.8-0.1c0.4,0,0.7,0.1,1.1,0.2
		c0.3,0.1,0.5,0.3,0.7,0.5s0.3,0.5,0.3,0.8l-0.9,0.1c0-0.2-0.1-0.5-0.3-0.6c-0.2-0.2-0.5-0.2-0.8-0.2s-0.6,0-0.9,0.2
		c-0.2,0.1-0.3,0.3-0.3,0.5c0,0.1,0,0.2,0.1,0.3c0.1,0.1,0.2,0.2,0.3,0.2c0.1,0,0.3,0.1,0.8,0.2c0.4,0.1,0.9,0.2,1.3,0.4
		c0.2,0.1,0.4,0.3,0.6,0.5c0.1,0.2,0.2,0.5,0.2,0.8s-0.1,0.6-0.3,0.8c-0.2,0.3-0.4,0.5-0.7,0.6c-0.3,0.1-0.7,0.2-1.1,0.2
		c-0.5,0-1.1-0.1-1.5-0.4C440.1,512.2,439.8,511.8,439.8,511.3z"/>
	<path class="st17" d="M445.1,514.8v-7.2h0.8v0.7c0.2-0.2,0.4-0.4,0.6-0.6c0.3-0.1,0.6-0.2,0.9-0.2c0.4,0,0.8,0.1,1.2,0.3
		c0.3,0.2,0.6,0.6,0.8,1c0.2,0.4,0.3,0.9,0.3,1.4s-0.1,1-0.3,1.4c-0.2,0.4-0.5,0.7-0.8,1c-0.3,0.2-0.7,0.3-1.1,0.3
		c-0.3,0-0.5-0.1-0.8-0.2c-0.2-0.1-0.4-0.3-0.6-0.5v2.5L445.1,514.8z M445.9,510.3c0,0.5,0.1,1,0.4,1.5c0.2,0.3,0.6,0.5,1,0.5
		s0.8-0.2,1-0.5c0.3-0.4,0.5-1,0.4-1.5c0-0.5-0.1-1.1-0.4-1.5c-0.2-0.3-0.6-0.5-1-0.5s-0.8,0.2-1,0.5
		C446,509.2,445.9,509.8,445.9,510.3L445.9,510.3z"/>
	<path class="st17" d="M454.1,512.2c-0.3,0.2-0.6,0.4-0.9,0.6c-0.3,0.1-0.6,0.2-1,0.2c-0.5,0-0.9-0.1-1.3-0.4
		c-0.3-0.3-0.5-0.7-0.5-1.1c0-0.2,0.1-0.5,0.2-0.7s0.3-0.4,0.5-0.5s0.4-0.2,0.6-0.3c0.3-0.1,0.5-0.1,0.8-0.1c0.5,0,1.1-0.1,1.6-0.3
		c0-0.1,0-0.2,0-0.2c0-0.3-0.1-0.6-0.2-0.8c-0.3-0.2-0.6-0.3-1-0.3c-0.3,0-0.6,0.1-0.9,0.2c-0.2,0.2-0.4,0.5-0.4,0.8l-0.9-0.1
		c0.1-0.3,0.2-0.6,0.4-0.9c0.2-0.2,0.5-0.4,0.8-0.5c0.4-0.1,0.8-0.2,1.2-0.2c0.4,0,0.7,0,1.1,0.2c0.2,0.1,0.4,0.2,0.6,0.4
		c0.1,0.2,0.2,0.4,0.3,0.6c0,0.3,0.1,0.5,0,0.8v1.2c0,0.5,0,1,0.1,1.6c0,0.2,0.1,0.4,0.2,0.6h-0.9
		C454.1,512.7,454.1,512.4,454.1,512.2z M454,510.3c-0.5,0.2-0.9,0.3-1.4,0.3c-0.3,0-0.5,0.1-0.8,0.2c-0.1,0.1-0.3,0.2-0.3,0.3
		c-0.2,0.3-0.1,0.7,0.1,1c0.2,0.2,0.5,0.3,0.8,0.2c0.3,0,0.6-0.1,0.9-0.2c0.3-0.1,0.5-0.4,0.6-0.6c0.1-0.3,0.2-0.6,0.1-0.9
		L454,510.3z"/>
	<path class="st17" d="M459.6,511l0.9,0.1c-0.1,0.5-0.3,1-0.7,1.4c-0.4,0.3-0.9,0.5-1.4,0.5c-0.6,0-1.3-0.2-1.7-0.7
		c-0.5-0.6-0.7-1.3-0.6-2c0-0.5,0.1-1,0.3-1.5c0.2-0.4,0.5-0.7,0.8-0.9c0.4-0.2,0.8-0.3,1.2-0.3c0.5,0,1,0.1,1.4,0.4
		s0.6,0.7,0.7,1.2l-0.9,0.1c-0.1-0.3-0.2-0.6-0.4-0.8c-0.2-0.2-0.5-0.3-0.7-0.3c-0.4,0-0.8,0.2-1.1,0.5c-0.3,0.4-0.5,1-0.4,1.5
		c0,0.5,0.1,1.1,0.4,1.5c0.3,0.3,0.6,0.5,1,0.5c0.3,0,0.6-0.1,0.9-0.3C459.4,511.7,459.6,511.3,459.6,511z"/>
	<path class="st17" d="M464.8,511.2l0.9,0.1c-0.1,0.5-0.4,0.9-0.8,1.2s-1,0.5-1.5,0.4c-0.7,0-1.3-0.2-1.8-0.7s-0.7-1.2-0.7-2
		c0-0.7,0.2-1.5,0.7-2s1.1-0.7,1.7-0.7s1.3,0.2,1.7,0.7c0.5,0.6,0.7,1.3,0.7,2c0,0.1,0,0.1,0,0.2h-3.9c0,0.5,0.2,0.9,0.5,1.3
		c0.3,0.3,0.7,0.5,1.1,0.5c0.3,0,0.6-0.1,0.8-0.3C464.5,511.8,464.7,511.5,464.8,511.2z M461.9,509.8h2.9c0-0.4-0.1-0.7-0.3-1
		c-0.3-0.3-0.7-0.5-1.1-0.5s-0.7,0.1-1,0.4C462.1,509,461.9,509.4,461.9,509.8L461.9,509.8z"/>
	<path class="st17" d="M156.2,574.5c0.4,0.3,0.8,0.5,1.2,0.7l-0.3,0.7c-0.6-0.2-1.1-0.5-1.5-0.9c-0.5,0.3-1.1,0.5-1.8,0.4
		c-0.6,0-1.2-0.2-1.8-0.5c-0.5-0.3-0.9-0.8-1.2-1.3c-0.3-0.6-0.4-1.3-0.4-1.9c0-0.7,0.1-1.3,0.4-1.9c0.3-0.6,0.7-1,1.2-1.3
		s1.2-0.5,1.8-0.5s1.2,0.2,1.8,0.5c0.5,0.3,0.9,0.8,1.2,1.3c0.3,0.6,0.4,1.3,0.4,1.9c0,0.5-0.1,1.1-0.3,1.6
		C156.8,573.7,156.6,574.2,156.2,574.5z M154.1,573.3c0.5,0.1,1,0.4,1.4,0.7c0.6-0.6,0.9-1.4,0.8-2.3c0-0.5-0.1-1-0.3-1.5
		c-0.2-0.4-0.5-0.8-0.9-1c-1-0.6-2.2-0.4-3,0.4c-0.9,1.3-0.9,3,0,4.3c0.5,0.5,1.1,0.8,1.8,0.7c0.3,0,0.7-0.1,1-0.2
		c-0.3-0.2-0.6-0.3-0.9-0.4L154.1,573.3z"/>
	<path class="st17" d="M161.8,575.3v-0.8c-0.4,0.6-1,0.9-1.6,0.9c-0.3,0-0.6-0.1-0.9-0.2c-0.2-0.1-0.4-0.2-0.6-0.4
		c-0.1-0.2-0.2-0.4-0.3-0.7c0-0.3-0.1-0.5-0.1-0.8v-3.2h0.9v2.9c0,0.3,0,0.6,0.1,0.9c0,0.2,0.2,0.4,0.4,0.5s0.4,0.2,0.7,0.2
		s0.5-0.1,0.7-0.2c0.2-0.1,0.4-0.3,0.5-0.6s0.2-0.7,0.1-1V570h0.9v5.2L161.8,575.3L161.8,575.3z"/>
	<path class="st17" d="M164,569.1v-1h0.9v1H164z M164,575.3v-5.2h0.9v5.2H164z"/>
	<path class="st17" d="M169.8,573.6l0.9,0.1c-0.1,0.5-0.4,0.9-0.8,1.2c-0.4,0.3-1,0.5-1.5,0.4c-0.7,0-1.3-0.2-1.8-0.7
		s-0.7-1.2-0.7-2c0-0.7,0.2-1.5,0.7-2s1.1-0.7,1.7-0.7c0.6,0,1.3,0.2,1.7,0.7c0.5,0.6,0.7,1.3,0.7,2c0,0.1,0,0.1,0,0.2h-3.9
		c0,0.5,0.2,0.9,0.5,1.3c0.3,0.3,0.7,0.5,1.1,0.5c0.3,0,0.6-0.1,0.8-0.3C169.5,574.2,169.7,573.9,169.8,573.6z M166.9,572.2h2.9
		c0-0.4-0.1-0.7-0.3-1c-0.3-0.3-0.7-0.5-1.1-0.5c-0.4,0-0.7,0.1-1,0.4C167.1,571.4,166.9,571.8,166.9,572.2L166.9,572.2z"/>
	<path class="st17" d="M173.7,574.5l0.1,0.8c-0.2,0-0.4,0.1-0.7,0.1s-0.5,0-0.7-0.2c-0.2-0.1-0.3-0.2-0.4-0.4
		c-0.1-0.3-0.1-0.7-0.1-1v-3h-0.6v-0.7h0.6v-1.3l0.9-0.5v1.8h0.9v0.7h-0.9v3c0,0.2,0,0.3,0,0.5c0,0.1,0.1,0.1,0.2,0.2
		c0.1,0,0.2,0.1,0.3,0.1C173.4,574.5,173.6,574.5,173.7,574.5z"/>
	<path class="st17" d="M177.1,573l0.9-0.1c0,0.3,0.1,0.6,0.3,0.9c0.2,0.3,0.4,0.4,0.7,0.6c0.3,0.1,0.7,0.2,1.1,0.2
		c0.3,0,0.7,0,1-0.2c0.2-0.1,0.5-0.2,0.6-0.4s0.2-0.4,0.2-0.6c0-0.2-0.1-0.4-0.2-0.6c-0.2-0.2-0.4-0.3-0.6-0.4
		c-0.4-0.1-0.8-0.3-1.3-0.3c-0.5-0.1-0.9-0.2-1.4-0.4c-0.3-0.2-0.6-0.4-0.8-0.7s-0.3-0.6-0.3-0.9c0-0.4,0.1-0.7,0.3-1
		s0.5-0.6,0.9-0.7c0.4-0.2,0.9-0.3,1.3-0.2c0.5,0,1,0.1,1.4,0.3s0.7,0.4,0.9,0.8c0.2,0.3,0.3,0.7,0.4,1.1l-0.9,0.1
		c0-0.4-0.2-0.8-0.5-1c-0.4-0.3-0.8-0.4-1.2-0.3c-0.4,0-0.9,0.1-1.3,0.3c-0.2,0.2-0.4,0.5-0.4,0.8c0,0.2,0.1,0.5,0.3,0.6
		c0.4,0.3,0.9,0.4,1.4,0.5s1.1,0.3,1.6,0.5c0.4,0.2,0.7,0.4,0.9,0.7s0.3,0.7,0.3,1c0,0.4-0.1,0.8-0.3,1.1s-0.6,0.6-0.9,0.8
		c-0.4,0.2-0.9,0.3-1.4,0.3c-0.6,0-1.1-0.1-1.6-0.3c-0.4-0.2-0.8-0.5-1-0.9C177.3,573.9,177.1,573.4,177.1,573z"/>
	<path class="st17" d="M184,577.3v-7.2h0.8v0.7c0.2-0.2,0.4-0.4,0.6-0.6c0.3-0.1,0.6-0.2,0.9-0.2c0.4,0,0.8,0.1,1.2,0.3
		c0.3,0.2,0.6,0.6,0.8,1s0.3,0.9,0.3,1.4s-0.1,1-0.3,1.4c-0.3,0.8-1.1,1.3-2,1.3c-0.3,0-0.5-0.1-0.8-0.2c-0.2-0.1-0.4-0.3-0.6-0.5
		v2.5L184,577.3z M184.8,572.7c0,0.5,0.1,1,0.4,1.5c0.2,0.3,0.6,0.5,1,0.5s0.8-0.2,1-0.5c0.3-0.4,0.5-1,0.4-1.5
		c0-0.5-0.1-1.1-0.4-1.5c-0.2-0.3-0.6-0.5-1-0.5s-0.8,0.2-1,0.5C184.9,571.6,184.8,572.2,184.8,572.7L184.8,572.7z"/>
	<path class="st17" d="M192.9,574.6c-0.3,0.2-0.6,0.4-0.9,0.6c-0.3,0.1-0.6,0.2-1,0.2c-0.5,0-0.9-0.1-1.3-0.4
		c-0.3-0.3-0.5-0.7-0.5-1.1c0-0.2,0.1-0.5,0.2-0.7c0.1-0.2,0.3-0.4,0.5-0.5s0.4-0.2,0.6-0.3c0.3-0.1,0.5-0.1,0.8-0.1
		c0.5,0,1.1-0.1,1.6-0.3c0-0.1,0-0.2,0-0.2c0-0.3-0.1-0.6-0.2-0.8c-0.3-0.2-0.6-0.3-1-0.3c-0.3,0-0.6,0.1-0.9,0.2
		c-0.2,0.2-0.4,0.5-0.4,0.8l-0.9-0.1c0.1-0.3,0.2-0.6,0.4-0.9c0.2-0.2,0.5-0.4,0.8-0.5c0.4-0.1,0.8-0.2,1.2-0.2s0.7,0,1.1,0.2
		c0.2,0.1,0.4,0.2,0.6,0.4c0.1,0.2,0.2,0.4,0.3,0.6c0,0.3,0.1,0.5,0,0.8v1.2c0,0.5,0,1,0.1,1.5c0,0.2,0.1,0.4,0.2,0.6h-0.9
		C193,575.1,193,574.8,192.9,574.6z M192.9,572.7c-0.5,0.2-0.9,0.3-1.4,0.3c-0.3,0-0.5,0.1-0.8,0.2c-0.3,0.1-0.5,0.4-0.5,0.7
		c0,0.2,0.1,0.4,0.3,0.6c0.2,0.2,0.5,0.3,0.8,0.2c0.3,0,0.6-0.1,0.9-0.2c0.3-0.1,0.5-0.3,0.6-0.6s0.2-0.6,0.1-0.9L192.9,572.7z"/>
	<path class="st17" d="M198.5,573.4l0.9,0.1c-0.1,0.5-0.3,1-0.7,1.4c-0.4,0.3-0.9,0.5-1.4,0.5c-0.6,0-1.3-0.2-1.7-0.7
		c-0.5-0.6-0.7-1.3-0.6-2c0-0.5,0.1-1,0.3-1.5c0.2-0.4,0.5-0.7,0.8-0.9c0.4-0.2,0.8-0.3,1.2-0.3c0.5,0,1,0.1,1.4,0.4
		c0.4,0.3,0.6,0.7,0.7,1.2l-0.9,0.1c-0.1-0.3-0.2-0.6-0.4-0.8s-0.5-0.3-0.7-0.3c-0.4,0-0.8,0.2-1.1,0.5c-0.3,0.4-0.5,1-0.4,1.5
		c0,0.5,0.1,1.1,0.4,1.5c0.3,0.3,0.6,0.5,1,0.5c0.3,0,0.6-0.1,0.9-0.3C198.3,574.1,198.5,573.7,198.5,573.4z"/>
	<path class="st17" d="M203.7,573.6l0.9,0.1c-0.1,0.5-0.4,0.9-0.8,1.2c-0.4,0.3-1,0.5-1.5,0.4c-0.7,0-1.3-0.2-1.8-0.7
		s-0.7-1.2-0.7-2c0-0.7,0.2-1.5,0.7-2s1.1-0.7,1.7-0.7c0.6,0,1.3,0.2,1.7,0.7c0.5,0.6,0.7,1.3,0.7,2c0,0.1,0,0.1,0,0.2h-3.9
		c0,0.5,0.2,0.9,0.5,1.3c0.3,0.3,0.7,0.5,1.1,0.5c0.3,0,0.6-0.1,0.8-0.3C203.4,574.2,203.6,573.9,203.7,573.6z M200.8,572.2h2.9
		c0-0.4-0.1-0.7-0.3-1c-0.3-0.3-0.7-0.5-1.1-0.5c-0.4,0-0.7,0.1-1,0.4C201,571.4,200.8,571.8,200.8,572.2L200.8,572.2z"/>
	<path class="st17" d="M729.5,481.2V474h3.2c0.5,0,1,0,1.5,0.2c0.3,0.1,0.6,0.4,0.8,0.7c0.2,0.3,0.3,0.7,0.3,1.1
		c0,0.5-0.2,0.9-0.5,1.3c-0.4,0.4-1,0.6-1.5,0.7c0.2,0.1,0.4,0.2,0.6,0.4c0.3,0.3,0.6,0.6,0.8,1l1.2,1.9h-1.2l-0.9-1.5
		c-0.3-0.4-0.5-0.8-0.7-1c-0.1-0.2-0.3-0.3-0.5-0.5c-0.1-0.1-0.3-0.2-0.4-0.2c-0.2,0-0.4,0-0.5,0h-1.1v3.2h-1.1V481.2z M730.5,477.2
		h2c0.3,0,0.7,0,1-0.1c0.2-0.1,0.4-0.2,0.6-0.4c0.1-0.2,0.2-0.4,0.2-0.6c0-0.3-0.1-0.6-0.4-0.8c-0.3-0.2-0.7-0.4-1.2-0.3h-2.3
		L730.5,477.2z"/>
	<path class="st17" d="M740.2,479.5l0.9,0.1c-0.1,0.5-0.4,0.9-0.8,1.2c-0.4,0.3-1,0.5-1.5,0.4c-0.7,0-1.3-0.2-1.8-0.7
		s-0.7-1.2-0.7-2c0-0.7,0.2-1.5,0.7-2s1.1-0.7,1.7-0.7c0.6,0,1.3,0.2,1.7,0.7c0.5,0.6,0.7,1.3,0.7,2c0,0.1,0,0.1,0,0.2h-3.9
		c0,0.5,0.2,0.9,0.5,1.3c0.3,0.3,0.7,0.5,1.1,0.5c0.3,0,0.6-0.1,0.8-0.3C739.9,480.1,740.1,479.8,740.2,479.5z M737.3,478.1h2.9
		c0-0.4-0.1-0.7-0.3-1c-0.3-0.3-0.7-0.5-1.1-0.5c-0.4,0-0.7,0.1-1,0.4C737.5,477.3,737.3,477.7,737.3,478.1z"/>
	<path class="st17" d="M741.8,479.6l0.9-0.1c0,0.3,0.2,0.6,0.4,0.8c0.3,0.2,0.6,0.3,0.9,0.3c0.3,0,0.6-0.1,0.9-0.2
		c0.2-0.1,0.3-0.4,0.3-0.6s-0.1-0.4-0.3-0.5c-0.3-0.1-0.6-0.2-0.9-0.3c-0.5-0.1-0.9-0.2-1.3-0.4c-0.5-0.2-0.8-0.7-0.8-1.2
		c0-0.2,0.1-0.4,0.2-0.6c0.1-0.2,0.3-0.4,0.4-0.5c0.2-0.1,0.4-0.2,0.6-0.3c0.2-0.1,0.5-0.1,0.8-0.1c0.4,0,0.7,0.1,1.1,0.2
		c0.3,0.1,0.5,0.3,0.7,0.5s0.3,0.5,0.3,0.8l-0.9,0.1c0-0.2-0.1-0.5-0.3-0.6c-0.2-0.2-0.5-0.2-0.8-0.2s-0.6,0-0.9,0.2
		c-0.2,0.1-0.3,0.3-0.3,0.5c0,0.1,0,0.2,0.1,0.3c0.1,0.1,0.2,0.2,0.3,0.2s0.3,0.1,0.8,0.2c0.4,0.1,0.9,0.2,1.3,0.4
		c0.2,0.1,0.4,0.3,0.6,0.5c0.1,0.2,0.2,0.5,0.2,0.8s-0.1,0.6-0.3,0.8c-0.2,0.3-0.4,0.5-0.7,0.6s-0.7,0.2-1.1,0.2
		c-0.5,0-1.1-0.1-1.5-0.4C742.1,480.6,741.9,480.1,741.8,479.6z"/>
	<path class="st17" d="M749.1,480.4l0.1,0.8c-0.2,0-0.4,0.1-0.7,0.1s-0.5,0-0.7-0.2c-0.2-0.1-0.3-0.2-0.4-0.4
		c-0.1-0.3-0.1-0.7-0.1-1v-3h-0.6V476h0.6v-1.3l0.9-0.5v1.8h0.9v0.7h-0.9v3c0,0.2,0,0.3,0,0.5c0,0.1,0.1,0.1,0.2,0.2
		c0.1,0,0.2,0.1,0.3,0.1C748.9,480.4,749,480.4,749.1,480.4z"/>
	<path class="st17" d="M750,481.2V476h0.8v0.8c0.1-0.3,0.3-0.5,0.6-0.7c0.2-0.1,0.4-0.2,0.6-0.2c0.3,0,0.6,0.1,0.9,0.3l-0.3,0.8
		c-0.2-0.1-0.4-0.2-0.6-0.2c-0.2,0-0.4,0.1-0.5,0.2c-0.2,0.1-0.3,0.3-0.3,0.5c-0.1,0.3-0.2,0.7-0.1,1v2.7L750,481.2L750,481.2z"/>
	<path class="st17" d="M753,478.6c-0.1-0.8,0.2-1.6,0.8-2.1c0.5-0.4,1-0.6,1.6-0.6c0.7,0,1.3,0.2,1.7,0.7c0.5,0.5,0.7,1.2,0.7,1.9
		c0,0.5-0.1,1.1-0.3,1.6c-0.2,0.4-0.5,0.7-0.9,0.9c-0.4,0.2-0.8,0.3-1.3,0.3c-0.7,0-1.3-0.2-1.8-0.7
		C753.2,480.1,752.9,479.3,753,478.6z M753.9,478.6c0,0.5,0.1,1.1,0.4,1.5c0.5,0.6,1.4,0.7,2,0.1c0.1,0,0.1-0.1,0.1-0.1
		c0.3-0.4,0.5-1,0.4-1.5c0-0.5-0.1-1-0.4-1.5c-0.5-0.6-1.4-0.7-2-0.1l-0.1,0.1C754,477.5,753.8,478.1,753.9,478.6L753.9,478.6z"/>
	<path class="st17" d="M758.5,478.6c-0.1-0.8,0.2-1.6,0.8-2.1c0.5-0.4,1-0.6,1.6-0.6c0.7,0,1.3,0.2,1.7,0.7c0.5,0.5,0.7,1.2,0.7,1.9
		c0,0.5-0.1,1.1-0.3,1.6c-0.2,0.4-0.5,0.7-0.9,0.9c-0.4,0.2-0.8,0.3-1.3,0.3c-0.7,0-1.3-0.2-1.8-0.7
		C758.7,480.1,758.5,479.3,758.5,478.6z M759.4,478.6c0,0.5,0.1,1.1,0.4,1.5c0.5,0.6,1.4,0.7,2,0.1c0.1,0,0.1-0.1,0.1-0.1
		c0.3-0.4,0.5-1,0.4-1.5c0-0.5-0.1-1-0.4-1.5c-0.5-0.6-1.4-0.7-2-0.1l-0.1,0.1C759.6,477.5,759.4,478.1,759.4,478.6L759.4,478.6z"/>
	<path class="st17" d="M764.4,481.2V476h0.8v0.7c0.2-0.3,0.4-0.5,0.7-0.6c0.3-0.2,0.6-0.2,0.9-0.2c0.3,0,0.7,0.1,0.9,0.2
		c0.2,0.2,0.4,0.4,0.5,0.7c0.3-0.6,0.9-0.9,1.6-0.9c0.4,0,0.9,0.1,1.2,0.4c0.3,0.4,0.5,0.8,0.4,1.3v3.6h-0.9v-3.3
		c0-0.3,0-0.5-0.1-0.8c-0.1-0.2-0.2-0.3-0.3-0.4c-0.2-0.1-0.3-0.1-0.5-0.1c-0.3,0-0.7,0.1-0.9,0.4c-0.3,0.3-0.4,0.7-0.4,1.2v3h-0.9
		v-3.4c0-0.3-0.1-0.6-0.2-0.9c-0.2-0.2-0.4-0.3-0.7-0.3c-0.2,0-0.5,0.1-0.7,0.2s-0.4,0.3-0.5,0.6c-0.1,0.4-0.2,0.7-0.1,1.1v2.7
		L764.4,481.2z"/>
	<g id="Coffee">
		<circle class="st18" cx="473.7" cy="236.5" r="27.2"/>
		<path class="st16" d="M483.4,234.2c1.6-0.2,3.1,0.9,3.3,2.5c0,0,0,0,0,0.1v0.7c0,3.8-5,4-5,4"/>
		<path class="st16" d="M477.3,223.3c0.5,0.7,0.6,1.6,0.2,2.4l0,0c-0.5,0.7-0.5,1.6,0,2.4"/>
		<path class="st16" d="M473.3,223.3c0.5,0.7,0.6,1.6,0.2,2.4l0,0c-0.5,0.7-0.5,1.6,0,2.4"/>
		<path class="st16" d="M468.8,223.3c0.5,0.7,0.6,1.6,0.2,2.4l0,0c-0.5,0.7-0.5,1.6,0,2.4"/>
		<path class="st16" d="M478.7,247.7H469c-2.3,0-4.6-0.7-6.4-2.1h22.5C483.3,247,481,247.7,478.7,247.7z"/>
		<path class="st16" d="M478,245.1c1.9-1.4,3.3-3.4,3.8-5.7l1.2-7.1h-18.7l1.2,7.1c0.5,2.3,1.9,4.3,3.8,5.7"/>
		<path class="st17" d="M455.7,272.6l0.9,0.2c-0.1,0.7-0.5,1.3-1.1,1.8c-0.5,0.4-1.2,0.6-1.9,0.6c-0.7,0-1.3-0.1-1.9-0.5
			c-0.5-0.3-0.9-0.8-1.1-1.4c-0.3-0.6-0.4-1.3-0.4-1.9c0-0.7,0.1-1.3,0.4-2c0.3-0.5,0.7-1,1.2-1.3s1.1-0.4,1.7-0.4s1.3,0.2,1.8,0.5
			c0.5,0.4,0.9,0.9,1,1.5l-0.9,0.2c-0.1-0.4-0.4-0.8-0.7-1.1c-0.3-0.2-0.8-0.4-1.2-0.4c-0.5,0-1,0.1-1.4,0.4s-0.6,0.6-0.8,1.1
			c-0.1,0.4-0.2,0.9-0.2,1.4s0.1,1.1,0.3,1.6c0.2,0.4,0.4,0.8,0.8,1s0.8,0.3,1.2,0.3c0.5,0,1-0.1,1.3-0.5
			C455.3,273.6,455.6,273.1,455.7,272.6z"/>
		<path class="st17" d="M457.4,272.5c-0.1-0.8,0.2-1.6,0.8-2.1c0.5-0.4,1-0.6,1.6-0.6c0.7,0,1.3,0.2,1.7,0.7
			c0.5,0.5,0.7,1.2,0.7,1.9c0,0.5-0.1,1.1-0.3,1.6c-0.2,0.4-0.5,0.7-0.9,0.9c-0.4,0.2-0.8,0.3-1.3,0.3c-0.7,0-1.3-0.2-1.8-0.7
			C457.6,273.9,457.3,273.2,457.4,272.5z M458.3,272.5c0,0.5,0.1,1.1,0.4,1.5c0.5,0.6,1.4,0.7,2,0.1l0.1-0.1c0.3-0.4,0.5-1,0.4-1.5
			c0-0.5-0.1-1-0.4-1.5c-0.5-0.6-1.4-0.7-2-0.1l-0.1,0.1C458.4,271.4,458.2,271.9,458.3,272.5L458.3,272.5z"/>
		<path class="st17" d="M463.5,275.1v-4.5h-0.8v-0.7h0.8v-0.6c0-0.3,0-0.5,0.1-0.8c0.1-0.2,0.2-0.4,0.4-0.6c0.3-0.2,0.6-0.2,0.9-0.2
			s0.6,0,0.8,0.1l-0.1,0.8c-0.2,0-0.3,0-0.5,0s-0.4,0-0.6,0.2c-0.1,0.2-0.2,0.4-0.2,0.6v0.5h1v0.7h-1v4.5H463.5z"/>
		<path class="st17" d="M466.1,275.1v-4.5h-0.8v-0.7h0.8v-0.6c0-0.3,0-0.5,0.1-0.8c0.1-0.2,0.2-0.4,0.4-0.6c0.3-0.2,0.6-0.2,0.9-0.2
			s0.6,0,0.8,0.1l-0.1,0.8c-0.2,0-0.3,0-0.5,0s-0.4,0-0.6,0.2c-0.1,0.2-0.2,0.4-0.2,0.6v0.5h1v0.7h-1v4.5H466.1z"/>
		<path class="st17" d="M472.2,273.4l0.9,0.1c-0.1,0.5-0.4,0.9-0.8,1.2c-0.4,0.3-1,0.5-1.5,0.4c-0.7,0-1.3-0.2-1.8-0.7
			s-0.7-1.2-0.7-2c0-0.7,0.2-1.5,0.7-2s1.1-0.7,1.7-0.7s1.3,0.2,1.7,0.7c0.5,0.6,0.7,1.3,0.7,2c0,0.1,0,0.1,0,0.2h-3.9
			c0,0.5,0.2,0.9,0.5,1.3c0.3,0.3,0.7,0.5,1.1,0.5c0.3,0,0.6-0.1,0.8-0.3C471.9,274,472.1,273.7,472.2,273.4z M469.3,272h2.9
			c0-0.4-0.1-0.7-0.3-1c-0.3-0.3-0.7-0.5-1.1-0.5s-0.7,0.1-1,0.4C469.5,271.2,469.3,271.6,469.3,272L469.3,272z"/>
		<path class="st17" d="M477.7,273.4l0.9,0.1c-0.1,0.5-0.4,0.9-0.8,1.2c-1,0.7-2.4,0.6-3.3-0.3c-0.5-0.5-0.7-1.2-0.7-2
			c0-0.7,0.2-1.5,0.7-2s1.1-0.7,1.7-0.7s1.3,0.2,1.7,0.7c0.5,0.6,0.7,1.3,0.7,2c0,0.1,0,0.1,0,0.2h-3.9c0,0.5,0.2,0.9,0.5,1.3
			c0.3,0.3,0.7,0.5,1.1,0.5c0.3,0,0.6-0.1,0.8-0.3C477.5,274,477.6,273.7,477.7,273.4z M474.9,272h2.9c0-0.4-0.1-0.7-0.3-1
			c-0.3-0.3-0.7-0.5-1.1-0.5s-0.7,0.1-1,0.4C475,271.2,474.9,271.6,474.9,272L474.9,272z"/>
		<path class="st17" d="M482.6,275.1v-7.2h2.7c0.4,0,0.9,0.1,1.3,0.2c0.3,0.1,0.6,0.4,0.8,0.7c0.2,0.3,0.3,0.6,0.3,0.9
			s-0.1,0.6-0.2,0.9c-0.2,0.3-0.4,0.5-0.8,0.7c0.4,0.1,0.7,0.3,1,0.6c0.2,0.3,0.4,0.7,0.3,1.1c0,0.3-0.1,0.6-0.2,0.9
			s-0.3,0.5-0.5,0.7s-0.5,0.3-0.8,0.4c-0.4,0.1-0.8,0.1-1.2,0.1L482.6,275.1z M483.5,270.9h1.6c0.3,0,0.6,0,0.9-0.1
			c0.2-0.1,0.4-0.2,0.5-0.4c0.1-0.2,0.2-0.4,0.2-0.6s-0.1-0.4-0.2-0.6s-0.3-0.3-0.5-0.4c-0.4-0.1-0.7-0.1-1.1-0.1h-1.4V270.9z
			 M483.5,274.2h1.8c0.2,0,0.4,0,0.6,0s0.4-0.1,0.5-0.2c0.2-0.1,0.3-0.2,0.4-0.4c0.1-0.2,0.1-0.4,0.1-0.6s-0.1-0.5-0.2-0.7
			s-0.3-0.3-0.6-0.4c-0.3-0.1-0.7-0.1-1-0.1h-1.7L483.5,274.2z"/>
		<path class="st17" d="M492.6,274.4c-0.3,0.2-0.6,0.4-0.9,0.6c-0.3,0.1-0.6,0.2-1,0.2c-0.5,0-0.9-0.1-1.3-0.4
			c-0.3-0.3-0.5-0.7-0.5-1.1c0-0.2,0.1-0.5,0.2-0.7s0.3-0.4,0.5-0.5s0.4-0.2,0.6-0.3c0.3-0.1,0.5-0.1,0.8-0.1c0.5,0,1.1-0.1,1.6-0.3
			c0-0.1,0-0.2,0-0.2c0-0.3-0.1-0.6-0.2-0.8c-0.3-0.2-0.6-0.3-1-0.3c-0.3,0-0.6,0.1-0.9,0.2c-0.2,0.2-0.4,0.5-0.4,0.8l-0.9-0.1
			c0.1-0.3,0.2-0.6,0.4-0.9c0.2-0.2,0.5-0.4,0.8-0.5c0.4-0.1,0.8-0.2,1.2-0.2c0.4,0,0.7,0,1.1,0.2c0.2,0.1,0.4,0.2,0.6,0.4
			c0.1,0.2,0.2,0.4,0.3,0.6c0,0.3,0.1,0.5,0,0.8v1.2c0,0.5,0,1,0.1,1.5c0,0.2,0.1,0.4,0.2,0.6H493
			C492.7,274.9,492.6,274.6,492.6,274.4z M492.5,272.5c-0.5,0.2-0.9,0.3-1.4,0.3c-0.3,0-0.5,0.1-0.8,0.2c-0.1,0.1-0.3,0.2-0.3,0.3
			c-0.2,0.3-0.1,0.7,0.1,1c0.2,0.2,0.5,0.3,0.8,0.2c0.3,0,0.6-0.1,0.9-0.2s0.5-0.3,0.6-0.6c0.1-0.3,0.2-0.6,0.1-0.9L492.5,272.5z"/>
		<path class="st17" d="M494.8,275.1v-5.2h0.8v0.8c0.1-0.3,0.3-0.5,0.6-0.7c0.2-0.1,0.4-0.2,0.6-0.2c0.3,0,0.6,0.1,0.9,0.3l-0.3,0.8
			c-0.2-0.1-0.4-0.2-0.6-0.2s-0.4,0.1-0.5,0.2c-0.2,0.1-0.3,0.3-0.3,0.5c-0.1,0.3-0.1,0.7-0.1,1v2.7L494.8,275.1L494.8,275.1z"/>
		<circle class="st18" cx="266.4" cy="537" r="23.4"/>
		<g id="Outline_Icons-6">
			<g id="Outline_Icons-7">
				<path class="st19" d="M261.1,541.6h-2.4c-0.8,0-1.5-0.6-1.5-1.5c0,0,0,0,0-0.1v-5c0-0.8,0.6-1.5,1.5-1.5c0,0,0,0,0.1,0h15.9
					c0.8,0,1.5,0.6,1.5,1.5c0,0,0,0,0,0.1v5.1c0,0.8-0.6,1.5-1.5,1.5c0,0,0,0-0.1,0h-2.4"/>
				<polyline class="st19" points="261.1,531.7 261.1,528.6 269,528.6 271.9,530.8 271.9,531.7 				"/>
				<rect x="261.1" y="539.2" class="st19" width="10.8" height="6.6"/>
				<circle class="st19" cx="259.1" cy="536.1" r="0.9"/>
				<line class="st19" x1="262.6" y1="540.8" x2="269.9" y2="540.8"/>
				<line class="st19" x1="262.6" y1="542.5" x2="269.9" y2="542.5"/>
				<line class="st19" x1="262.6" y1="544.1" x2="269.9" y2="544.1"/>
				<polyline class="st19" points="269,528.6 269,530.8 271.9,530.8 				"/>
			</g>
		</g>
		<path class="st17" d="M247.4,569.3l0.9,0.2c-0.1,0.7-0.5,1.3-1.1,1.8c-0.5,0.4-1.2,0.6-1.9,0.6s-1.3-0.1-1.9-0.5
			c-0.5-0.3-0.9-0.8-1.1-1.4c-0.3-0.6-0.4-1.3-0.4-1.9c0-0.7,0.1-1.3,0.4-2c0.3-0.5,0.7-1,1.2-1.3s1.1-0.4,1.7-0.4
			c0.6,0,1.3,0.2,1.8,0.5c0.5,0.4,0.9,0.9,1,1.5l-0.9,0.2c-0.1-0.4-0.4-0.8-0.7-1.1c-0.3-0.2-0.8-0.4-1.2-0.4c-0.5,0-1,0.1-1.4,0.4
			c-0.4,0.3-0.6,0.6-0.8,1.1c-0.1,0.4-0.2,0.9-0.2,1.4s0.1,1.1,0.3,1.6c0.2,0.4,0.4,0.8,0.8,1c0.4,0.2,0.8,0.3,1.2,0.3
			c0.5,0,1-0.1,1.3-0.5C247.1,570.3,247.3,569.8,247.4,569.3z"/>
		<path class="st17" d="M249.1,569.2c-0.1-0.8,0.2-1.6,0.8-2.1c0.5-0.4,1-0.6,1.6-0.6c0.7,0,1.3,0.2,1.7,0.7
			c0.5,0.5,0.7,1.2,0.7,1.9c0,0.5-0.1,1.1-0.3,1.6c-0.2,0.4-0.5,0.7-0.9,0.9s-0.8,0.3-1.3,0.3c-0.7,0-1.3-0.2-1.8-0.7
			C249.3,570.7,249,569.9,249.1,569.2z M250,569.2c0,0.5,0.1,1.1,0.4,1.5c0.5,0.6,1.4,0.7,2,0.1l0.1-0.1c0.3-0.4,0.5-1,0.4-1.5
			c0-0.5-0.1-1-0.4-1.5c-0.5-0.6-1.4-0.7-2-0.1l-0.1,0.1C250.1,568.1,249.9,568.7,250,569.2L250,569.2z"/>
		<path class="st17" d="M255,573.8v-7.2h0.8v0.7c0.2-0.2,0.4-0.4,0.6-0.6c0.3-0.1,0.6-0.2,0.9-0.2c0.4,0,0.8,0.1,1.2,0.3
			c0.3,0.2,0.6,0.6,0.8,1c0.2,0.4,0.3,0.9,0.3,1.4s-0.1,1-0.3,1.4c-0.3,0.8-1.1,1.3-2,1.3c-0.3,0-0.5-0.1-0.8-0.2
			c-0.2-0.1-0.4-0.3-0.6-0.5v2.5L255,573.8z M255.8,569.2c0,0.5,0.1,1,0.4,1.5c0.2,0.3,0.6,0.5,1,0.5s0.8-0.2,1-0.5
			c0.3-0.4,0.5-1,0.4-1.5c0-0.5-0.1-1.1-0.4-1.5c-0.2-0.3-0.6-0.5-1-0.5s-0.8,0.2-1,0.5C255.9,568.1,255.7,568.7,255.8,569.2
			L255.8,569.2z"/>
		<path class="st17" d="M260.5,573.8l-0.1-0.8c0.2,0,0.3,0.1,0.5,0.1s0.3,0,0.5-0.1c0.1-0.1,0.2-0.2,0.3-0.3
			c0.1-0.2,0.2-0.4,0.3-0.7c0,0,0-0.1,0.1-0.2l-2-5.2h0.9l1.1,3c0.1,0.4,0.3,0.8,0.4,1.2c0.1-0.4,0.2-0.8,0.4-1.2l1.1-3h0.9l-2,5.3
			c-0.1,0.4-0.3,0.8-0.5,1.2c-0.1,0.3-0.3,0.5-0.5,0.6s-0.5,0.2-0.7,0.2C260.9,573.9,260.7,573.9,260.5,573.8z"/>
		<path class="st17" d="M264.9,571.9l2.1-7.4h0.7l-2.1,7.4H264.9z"/>
		<path class="st17" d="M271.2,571.8v-7.2h2.7c0.4,0,0.7,0,1.1,0.1c0.3,0,0.6,0.2,0.9,0.3c0.2,0.2,0.4,0.4,0.6,0.7
			c0.4,0.8,0.2,1.8-0.4,2.5c-0.6,0.5-1.3,0.7-2.1,0.6h-1.8v2.9L271.2,571.8z M272.1,568h1.9c0.5,0,0.9-0.1,1.3-0.3
			c0.3-0.2,0.4-0.6,0.4-1c0-0.3-0.1-0.5-0.2-0.8c-0.1-0.2-0.4-0.4-0.6-0.4c-0.3-0.1-0.6-0.1-0.9-0.1h-1.8L272.1,568z"/>
		<path class="st17" d="M277.8,571.8v-5.2h0.8v0.8c0.1-0.3,0.3-0.5,0.6-0.7c0.2-0.1,0.4-0.2,0.6-0.2c0.3,0,0.6,0.1,0.9,0.3l-0.3,0.8
			c-0.2-0.1-0.4-0.2-0.6-0.2s-0.4,0.1-0.5,0.2c-0.2,0.1-0.3,0.3-0.3,0.5c-0.1,0.3-0.1,0.7-0.1,1v2.7L277.8,571.8z"/>
		<path class="st17" d="M281.1,565.6v-1h0.9v1H281.1z M281.1,571.8v-5.2h0.9v5.2H281.1z"/>
		<path class="st17" d="M283.3,571.8v-5.2h0.8v0.7c0.4-0.6,1-0.9,1.7-0.9c0.3,0,0.6,0.1,0.9,0.2c0.2,0.1,0.4,0.2,0.6,0.4
			c0.1,0.2,0.2,0.4,0.3,0.6c0,0.3,0.1,0.6,0,0.9v3.2h-0.9v-3.2c0-0.3,0-0.5-0.1-0.8c-0.1-0.2-0.2-0.3-0.4-0.4
			c-0.2-0.1-0.4-0.2-0.6-0.2c-0.4,0-0.7,0.1-1,0.4c-0.3,0.4-0.5,0.9-0.4,1.4v2.8L283.3,571.8z"/>
		<path class="st17" d="M290.8,571l0.1,0.8c-0.2,0-0.4,0.1-0.7,0.1c-0.3,0-0.5,0-0.7-0.2c-0.2-0.1-0.3-0.2-0.4-0.4
			c-0.1-0.3-0.1-0.7-0.1-1v-3h-0.6v-0.7h0.6v-1.3l0.9-0.5v1.8h0.9v0.7h-0.9v3c0,0.2,0,0.3,0,0.5c0,0.1,0.1,0.1,0.2,0.2
			c0.1,0,0.2,0.1,0.3,0.1C290.5,571,290.7,571,290.8,571z"/>
	</g>
	<g id="reception">
		<circle class="st18" cx="676.5" cy="354.6" r="25.7"/>
		<g id="Outline_Icons-2">
			<circle class="st20" cx="670.9" cy="346.7" r="3.5"/>
			<path class="st20" d="M676.4,352.1h-10.8c-0.3,2.9,1,5.8,3.5,7.4v6.4h4v-6.4C675.4,357.8,676.6,355,676.4,352.1z"/>
			<line class="st20" x1="675.6" y1="356" x2="687.7" y2="356"/>
			<circle class="st20" cx="682.2" cy="347.1" r="2.4"/>
			<path class="st20" d="M677.8,356c0-2.4,1.9-4.5,4.3-4.5c2.4,0,4.5,1.9,4.5,4.3c0,0.1,0,0.1,0,0.2"/>
		</g>
	</g>
	<g class="st14">
		<path class="st21" d="M654.8,395.2v-7.8h3.5c0.7,0,1.2,0.1,1.6,0.2c0.4,0.1,0.6,0.4,0.9,0.7c0.2,0.4,0.3,0.7,0.3,1.2
			c0,0.6-0.2,1-0.5,1.4s-0.9,0.6-1.7,0.7c0.3,0.1,0.5,0.3,0.6,0.4c0.3,0.3,0.6,0.6,0.9,1l1.4,2.1h-1.3l-1-1.6
			c-0.3-0.5-0.5-0.8-0.7-1.1c-0.2-0.2-0.4-0.4-0.5-0.5c-0.2-0.1-0.3-0.2-0.5-0.2c-0.1,0-0.3,0-0.6,0h-1.2v3.5H654.8z M655.8,390.9
			h2.2c0.5,0,0.8,0,1.1-0.1c0.3-0.1,0.5-0.3,0.6-0.5c0.1-0.2,0.2-0.4,0.2-0.7c0-0.4-0.1-0.7-0.4-0.9c-0.3-0.2-0.7-0.4-1.3-0.4h-2.5
			V390.9z"/>
		<path class="st21" d="M666.3,393.4l1,0.1c-0.2,0.6-0.4,1-0.9,1.3c-0.4,0.3-1,0.5-1.6,0.5c-0.8,0-1.5-0.3-2-0.8
			c-0.5-0.5-0.7-1.2-0.7-2.1c0-0.9,0.2-1.7,0.7-2.2c0.5-0.5,1.1-0.8,1.9-0.8c0.8,0,1.4,0.3,1.8,0.8c0.5,0.5,0.7,1.2,0.7,2.2
			c0,0.1,0,0.1,0,0.3h-4.2c0,0.6,0.2,1.1,0.5,1.4c0.3,0.3,0.7,0.5,1.2,0.5c0.4,0,0.6-0.1,0.9-0.3C666,394.1,666.2,393.8,666.3,393.4
			z M663.2,391.8h3.1c0-0.5-0.2-0.8-0.4-1.1c-0.3-0.4-0.7-0.6-1.2-0.6c-0.4,0-0.8,0.1-1.1,0.4C663.4,391,663.2,391.4,663.2,391.8z"
			/>
		<path class="st21" d="M672.2,393.1l0.9,0.1c-0.1,0.6-0.4,1.2-0.8,1.5s-0.9,0.5-1.6,0.5c-0.8,0-1.4-0.3-1.9-0.8s-0.7-1.2-0.7-2.2
			c0-0.6,0.1-1.1,0.3-1.6c0.2-0.5,0.5-0.8,0.9-1c0.4-0.2,0.9-0.3,1.3-0.3c0.6,0,1.1,0.2,1.5,0.5c0.4,0.3,0.6,0.7,0.7,1.3l-0.9,0.1
			c-0.1-0.4-0.2-0.7-0.5-0.9c-0.2-0.2-0.5-0.3-0.8-0.3c-0.5,0-0.9,0.2-1.2,0.5s-0.5,0.9-0.5,1.6c0,0.8,0.1,1.3,0.4,1.7
			s0.7,0.5,1.1,0.5c0.4,0,0.7-0.1,0.9-0.3C672,394,672.1,393.6,672.2,393.1z"/>
		<path class="st21" d="M677.8,393.4l1,0.1c-0.2,0.6-0.4,1-0.9,1.3c-0.4,0.3-1,0.5-1.6,0.5c-0.8,0-1.5-0.3-2-0.8
			c-0.5-0.5-0.7-1.2-0.7-2.1c0-0.9,0.2-1.7,0.7-2.2c0.5-0.5,1.1-0.8,1.9-0.8c0.8,0,1.4,0.3,1.8,0.8c0.5,0.5,0.7,1.2,0.7,2.2
			c0,0.1,0,0.1,0,0.3h-4.2c0,0.6,0.2,1.1,0.5,1.4c0.3,0.3,0.7,0.5,1.2,0.5c0.4,0,0.6-0.1,0.9-0.3
			C677.5,394.1,677.7,393.8,677.8,393.4z M674.7,391.8h3.1c0-0.5-0.2-0.8-0.4-1.1c-0.3-0.4-0.7-0.6-1.2-0.6c-0.4,0-0.8,0.1-1.1,0.4
			C674.9,391,674.7,391.4,674.7,391.8z"/>
		<path class="st21" d="M680,397.4v-7.8h0.9v0.7c0.2-0.3,0.4-0.5,0.7-0.6c0.3-0.1,0.6-0.2,0.9-0.2c0.5,0,0.9,0.1,1.3,0.4
			c0.4,0.2,0.6,0.6,0.8,1s0.3,0.9,0.3,1.5c0,0.6-0.1,1.1-0.3,1.6c-0.2,0.5-0.5,0.8-0.9,1.1s-0.8,0.4-1.2,0.4c-0.3,0-0.6-0.1-0.9-0.2
			s-0.5-0.3-0.6-0.5v2.7H680z M680.9,392.4c0,0.7,0.1,1.3,0.4,1.6c0.3,0.3,0.6,0.5,1.1,0.5c0.4,0,0.8-0.2,1.1-0.5
			c0.3-0.4,0.5-0.9,0.5-1.7c0-0.7-0.1-1.3-0.4-1.6c-0.3-0.4-0.6-0.5-1.1-0.5c-0.4,0-0.8,0.2-1.1,0.6
			C681,391.1,680.9,391.7,680.9,392.4z"/>
		<path class="st21" d="M688.1,394.4l0.1,0.8c-0.3,0.1-0.5,0.1-0.7,0.1c-0.3,0-0.6-0.1-0.8-0.2c-0.2-0.1-0.3-0.3-0.4-0.4
			c-0.1-0.2-0.1-0.6-0.1-1.1v-3.2h-0.7v-0.7h0.7v-1.4l1-0.6v2h1v0.7h-1v3.3c0,0.3,0,0.4,0,0.5c0,0.1,0.1,0.1,0.2,0.2
			c0.1,0,0.2,0.1,0.3,0.1C687.8,394.4,688,394.4,688.1,394.4z"/>
		<path class="st21" d="M689.1,388.5v-1.1h1v1.1H689.1z M689.1,395.2v-5.6h1v5.6H689.1z"/>
		<path class="st21" d="M691.1,392.4c0-1,0.3-1.8,0.9-2.3c0.5-0.4,1.1-0.6,1.8-0.6c0.8,0,1.4,0.3,1.9,0.8c0.5,0.5,0.7,1.2,0.7,2.1
			c0,0.7-0.1,1.3-0.3,1.7c-0.2,0.4-0.5,0.7-1,1c-0.4,0.2-0.9,0.3-1.4,0.3c-0.8,0-1.4-0.3-1.9-0.8S691.1,393.3,691.1,392.4z
			 M692.1,392.4c0,0.7,0.2,1.3,0.5,1.6c0.3,0.4,0.7,0.5,1.2,0.5c0.5,0,0.9-0.2,1.2-0.5c0.3-0.4,0.5-0.9,0.5-1.7
			c0-0.7-0.2-1.2-0.5-1.6c-0.3-0.4-0.7-0.5-1.2-0.5c-0.5,0-0.9,0.2-1.2,0.5C692.3,391.1,692.1,391.7,692.1,392.4z"/>
		<path class="st21" d="M697.5,395.2v-5.6h0.9v0.8c0.4-0.6,1-0.9,1.8-0.9c0.3,0,0.7,0.1,0.9,0.2c0.3,0.1,0.5,0.3,0.6,0.5
			s0.2,0.4,0.3,0.7c0,0.2,0.1,0.5,0.1,0.9v3.5h-1v-3.4c0-0.4,0-0.7-0.1-0.9c-0.1-0.2-0.2-0.3-0.4-0.5c-0.2-0.1-0.4-0.2-0.7-0.2
			c-0.4,0-0.8,0.1-1.1,0.4c-0.3,0.3-0.4,0.7-0.4,1.5v3.1H697.5z"/>
	</g>
</g>
<g id="outline">
	<path class="st22" d="M595,163.1H52v450.3c0,0,4.7,44,47.2,44h969c0,0,45.6-3.1,45.6-44.8V229.1h-519L595,163.1z"/>
	<polyline class="st23" points="713.7,229.1 713.7,338.3 713.7,328.9 792.3,328.9 	"/>
	<polyline class="st23" points="841,229.1 841,410.2 841,328.9 830,328.9 	"/>
	<polyline class="st23" points="1113.7,454.6 841,454.6 841,443.6 841,462.5 	"/>
	<polyline class="st23" points="841,493.9 841,505.7 596.6,505.7 713.7,505.7 713.7,384.7 713.7,395.7 741.2,395.7 	"/>
	<polyline class="st23" points="780.5,505.7 780.5,395.4 770.9,395.4 	"/>
	<polyline class="st23" points="830,505.7 830,659.4 541,659.4 541,579.4 	"/>
	<polyline class="st23" points="541,540 541,529 596.6,529 596.6,505.7 646.3,505.7 	"/>
	<polyline class="st23" points="285.3,406.3 285.3,505.7 52,505.7 52,364.3 285.3,364.3 285.3,355.9 285.3,370.1 	"/>
	<line class="st23" x1="285.3" y1="319.6" x2="285.3" y2="163.1"/>
</g>
</svg>
