<?xml version="1.0" encoding="utf-8"?>
<!-- Generator: Adobe Illustrator 26.0.3, SVG Export Plug-In . SVG Version: 6.00 Build 0)  -->
<svg version="1.1" id="Layer_1" xmlns="http://www.w3.org/2000/svg" xmlns:xlink="http://www.w3.org/1999/xlink" x="0px" y="0px"
	 viewBox="0 0 1692.1 581.1" style="enable-background:new 0 0 1692.1 581.1;" xml:space="preserve">
<style type="text/css">
	.st0{fill:#4196B1;}
	.st1{fill:#A8E0E5;}
	.st2{fill:#99B8BF;}
	.st3{fill:#8ECCCE;}
	.st4{opacity:0.74;fill:#575757;enable-background:new    ;}
	.st5{enable-background:new    ;}
	.st6{fill:#FFFFFF;}
	.st7{opacity:5.000000e-02;fill:#030303;enable-background:new    ;}
	.st8{fill:#DDDDDD;}
	.st9{fill:#F4F4F4;}
	.st10{opacity:0.15;fill:#0D5577;enable-background:new    ;}
	.st11{fill:#0D5577;}
	.st12{fill:#83D8EF;stroke:#53C5F1;stroke-width:0.67;stroke-linecap:round;stroke-linejoin:round;}
	.st13{fill:#4E9FB9;stroke:#4A90A0;stroke-width:0.674;stroke-linecap:round;stroke-linejoin:round;}
	.st14{fill:none;stroke:#F4F4F4;stroke-width:10;stroke-miterlimit:10;}
	.st15{fill:none;stroke:#F4F4F4;stroke-width:5;stroke-miterlimit:10;}
	.st16{fill:#EAF1F1;}
	.st17{fill:#767E7F;}
	.st18{fill:none;stroke:#7A8D92;stroke-width:0.6;stroke-miterlimit:10;}
	.st19{fill:none;stroke:#7A8D92;stroke-width:0.605;stroke-miterlimit:10;}
	.st20{fill:none;stroke:#7A8D92;stroke-width:0.414;stroke-miterlimit:10;}
	.st21{fill:none;stroke:#7A8D92;stroke-width:0.724;stroke-miterlimit:10;}
</style>
<g id="shadow">
	<rect x="42.4" y="72.5" class="st0" width="1627.3" height="462.6"/>
</g>
<g id="background">
	<rect x="43.6" y="72.5" class="st1" width="1607.3" height="441.6"/>
</g>
<g id="spaces">
	<rect x="617.8" y="68.6" class="st2" width="157.6" height="101"/>
	<rect x="816.4" y="72.5" class="st2" width="189.6" height="97.1"/>
	<rect x="775.4" y="68.6" class="st2" width="41" height="41"/>
	<rect x="1458.5" y="231.6" class="st3" width="194.5" height="72.2"/>
	<polygon class="st3" points="1006,72.5 1006,221.4 1117.3,221.4 1117.3,149.4 1164.3,149.4 1164.3,221.4 1458.3,221.4 
		1458.3,231.6 1591.1,231.6 1591.1,162.1 1652.9,162.1 1652.9,72.5 	"/>
	<polygon class="st3" points="43.6,72.5 617.6,72.5 617.6,170.6 680.7,170.6 652.4,219.7 225.8,219.7 225.8,514.1 43.6,514.1 	"/>
	<rect x="611.4" y="279.9" class="st3" width="199.9" height="80.2"/>
	<rect x="740.5" y="360" class="st3" width="70.8" height="80.2"/>
	<rect x="1591.1" y="162.1" class="st2" width="61.8" height="67.9"/>
</g>
<g id="bookable">
	<polygon id="area-04.415-status" class="st4" points="1409.4,69.9 1409.4,221.4 1164.7,221.4 1164.7,149.4 1140.7,149.4 
		1140.7,72.5 	"/>
	<polygon id="area-04.414-status" class="st4" points="1006,72.5 1006,221.4 1117.3,221.4 1117.3,149.4 1140.7,149.4 1140.7,72.5 	
		"/>
	<rect id="area-04.407-status" x="438.9" y="72.5" class="st4" width="98.6" height="147.1"/>
	<rect id="area-04.406-status" x="268.2" y="72.5" class="st4" width="170.2" height="146.8"/>
	<polygon id="area-04.404405-status" class="st4" points="268.2,72.5 268.2,219.4 225.8,219.4 225.8,514.1 43.6,514.1 43.6,72.5 	
		"/>
	<g class="st5">
		<path class="st6" d="M115.7,292.1c0-0.9,0.1-1.6,0.4-2.2c0.2-0.4,0.5-0.8,0.8-1.2s0.7-0.6,1.1-0.8c0.5-0.2,1.2-0.3,1.9-0.3
			c1.3,0,2.3,0.4,3,1.2s1.1,1.9,1.1,3.3c0,1.4-0.4,2.5-1.1,3.3s-1.8,1.2-3,1.2c-1.3,0-2.3-0.4-3-1.2S115.7,293.5,115.7,292.1z
			 M117.5,292c0,1,0.2,1.7,0.7,2.2s1,0.8,1.7,0.8s1.3-0.2,1.7-0.7s0.7-1.2,0.7-2.2c0-1-0.2-1.7-0.6-2.2s-1-0.7-1.7-0.7
			s-1.3,0.2-1.7,0.7S117.5,291,117.5,292z"/>
		<path class="st6" d="M127,296.3h-1.6v-6.2h1.5v0.9c0.3-0.4,0.5-0.7,0.7-0.8s0.4-0.2,0.7-0.2c0.4,0,0.7,0.1,1.1,0.3l-0.5,1.4
			c-0.3-0.2-0.5-0.3-0.8-0.3c-0.2,0-0.4,0.1-0.6,0.2s-0.3,0.4-0.4,0.7s-0.1,1-0.1,2.1V296.3z"/>
		<path class="st6" d="M130.1,289.3v-1.5h1.6v1.5H130.1z M130.1,296.3v-6.2h1.6v6.2H130.1z"/>
		<path class="st6" d="M133,293.1c0-0.5,0.1-1.1,0.4-1.6s0.7-0.9,1.1-1.2s1-0.4,1.7-0.4c0.9,0,1.7,0.3,2.3,0.9s0.9,1.4,0.9,2.3
			c0,0.9-0.3,1.7-0.9,2.3s-1.4,0.9-2.3,0.9c-0.6,0-1.1-0.1-1.6-0.4s-0.9-0.6-1.2-1.1S133,293.8,133,293.1z M134.7,293.2
			c0,0.6,0.1,1.1,0.4,1.4s0.7,0.5,1.1,0.5s0.8-0.2,1.1-0.5s0.4-0.8,0.4-1.4c0-0.6-0.1-1.1-0.4-1.4s-0.7-0.5-1.1-0.5
			s-0.8,0.2-1.1,0.5S134.7,292.6,134.7,293.2z"/>
		<path class="st6" d="M146.4,296.3h-1.6v-3.2c0-0.7,0-1.1-0.1-1.3s-0.2-0.4-0.3-0.5s-0.3-0.2-0.6-0.2c-0.3,0-0.5,0.1-0.8,0.2
			s-0.4,0.4-0.5,0.6s-0.1,0.7-0.1,1.4v2.8h-1.6v-6.2h1.5v0.9c0.5-0.7,1.2-1.1,2.1-1.1c0.4,0,0.7,0.1,1,0.2s0.5,0.3,0.7,0.5
			s0.3,0.4,0.3,0.7s0.1,0.6,0.1,1.1V296.3z"/>
	</g>
	<g class="st5">
		<path class="st6" d="M338.9,154.5H337l-0.8-2h-3.4l-0.7,2h-1.8l3.3-8.6h1.8L338.9,154.5z M335.7,151.1l-1.2-3.2l-1.2,3.2H335.7z"
			/>
		<path class="st6" d="M339.8,148.3h1.5v0.9c0.2-0.3,0.5-0.6,0.8-0.8s0.7-0.3,1.1-0.3c0.7,0,1.3,0.3,1.8,0.8s0.8,1.4,0.8,2.4
			c0,1-0.3,1.8-0.8,2.4s-1.1,0.9-1.8,0.9c-0.3,0-0.7-0.1-0.9-0.2s-0.6-0.4-0.9-0.7v3.1h-1.6V148.3z M341.4,151.3
			c0,0.7,0.1,1.2,0.4,1.5s0.6,0.5,1,0.5c0.4,0,0.7-0.2,1-0.5s0.4-0.8,0.4-1.5c0-0.7-0.1-1.1-0.4-1.5s-0.6-0.5-1-0.5
			c-0.4,0-0.7,0.2-1,0.5S341.4,150.7,341.4,151.3z"/>
		<path class="st6" d="M346.8,151.3c0-0.5,0.1-1.1,0.4-1.6s0.7-0.9,1.1-1.2s1-0.4,1.7-0.4c0.9,0,1.7,0.3,2.3,0.9s0.9,1.4,0.9,2.3
			c0,0.9-0.3,1.7-0.9,2.3s-1.4,0.9-2.3,0.9c-0.6,0-1.1-0.1-1.6-0.4s-0.9-0.6-1.2-1.1S346.8,152.1,346.8,151.3z M348.4,151.4
			c0,0.6,0.1,1.1,0.4,1.4s0.7,0.5,1.1,0.5s0.8-0.2,1.1-0.5s0.4-0.8,0.4-1.4c0-0.6-0.1-1.1-0.4-1.4s-0.7-0.5-1.1-0.5
			s-0.8,0.2-1.1,0.5S348.4,150.8,348.4,151.4z"/>
		<path class="st6" d="M354.5,154.5V146h1.6v8.6H354.5z"/>
		<path class="st6" d="M357.8,154.5V146h1.6v8.6H357.8z"/>
		<path class="st6" d="M360.8,151.3c0-0.5,0.1-1.1,0.4-1.6s0.7-0.9,1.1-1.2s1-0.4,1.7-0.4c0.9,0,1.7,0.3,2.3,0.9s0.9,1.4,0.9,2.3
			c0,0.9-0.3,1.7-0.9,2.3s-1.4,0.9-2.3,0.9c-0.6,0-1.1-0.1-1.6-0.4s-0.9-0.6-1.2-1.1S360.8,152.1,360.8,151.3z M362.4,151.4
			c0,0.6,0.1,1.1,0.4,1.4s0.7,0.5,1.1,0.5s0.8-0.2,1.1-0.5s0.4-0.8,0.4-1.4c0-0.6-0.1-1.1-0.4-1.4s-0.7-0.5-1.1-0.5
			s-0.8,0.2-1.1,0.5S362.4,150.8,362.4,151.4z"/>
	</g>
	<g class="st5">
		<path class="st6" d="M472.4,151.4v-1.4h3.7v3.4c-0.4,0.4-0.9,0.7-1.6,0.9s-1.4,0.4-2.1,0.4c-0.9,0-1.7-0.2-2.3-0.6
			s-1.2-0.9-1.5-1.6s-0.5-1.5-0.5-2.3c0-0.9,0.2-1.7,0.6-2.4s0.9-1.2,1.6-1.6c0.6-0.3,1.2-0.4,2.1-0.4c1.1,0,1.9,0.2,2.5,0.7
			s1,1.1,1.2,1.9l-1.7,0.3c-0.1-0.4-0.3-0.8-0.7-1s-0.8-0.4-1.3-0.4c-0.8,0-1.4,0.2-1.8,0.7s-0.7,1.2-0.7,2.1c0,1,0.2,1.8,0.7,2.3
			s1,0.8,1.8,0.8c0.4,0,0.7-0.1,1.1-0.2s0.7-0.3,0.9-0.5v-1.1H472.4z"/>
		<path class="st6" d="M479.3,154.5h-1.6v-6.2h1.5v0.9c0.3-0.4,0.5-0.7,0.7-0.8s0.4-0.2,0.7-0.2c0.4,0,0.7,0.1,1.1,0.3l-0.5,1.4
			c-0.3-0.2-0.5-0.3-0.8-0.3c-0.2,0-0.4,0.1-0.6,0.2s-0.3,0.4-0.4,0.7s-0.1,1-0.1,2.1V154.5z"/>
		<path class="st6" d="M483.7,150.2l-1.5-0.3c0.2-0.6,0.5-1,0.9-1.3s1-0.4,1.8-0.4c0.7,0,1.3,0.1,1.6,0.3s0.6,0.4,0.8,0.7
			s0.2,0.8,0.2,1.5l0,1.9c0,0.5,0,1,0.1,1.2s0.2,0.5,0.3,0.8h-1.6c0-0.1-0.1-0.3-0.2-0.5c0-0.1,0-0.2-0.1-0.2
			c-0.3,0.3-0.6,0.5-0.9,0.6s-0.7,0.2-1,0.2c-0.6,0-1.1-0.2-1.5-0.5s-0.6-0.8-0.6-1.3c0-0.4,0.1-0.7,0.3-0.9s0.4-0.5,0.7-0.6
			s0.7-0.3,1.3-0.4c0.8-0.1,1.3-0.3,1.6-0.4v-0.2c0-0.3-0.1-0.5-0.2-0.7s-0.5-0.2-0.9-0.2c-0.3,0-0.5,0.1-0.7,0.2
			S483.8,149.9,483.7,150.2z M485.9,151.6c-0.2,0.1-0.5,0.2-1,0.3s-0.8,0.2-0.9,0.3c-0.2,0.2-0.3,0.3-0.3,0.6c0,0.2,0.1,0.4,0.3,0.6
			s0.4,0.3,0.7,0.3c0.3,0,0.6-0.1,0.8-0.3c0.2-0.1,0.3-0.3,0.4-0.5c0-0.1,0.1-0.4,0.1-0.8V151.6z"/>
		<path class="st6" d="M490.8,154.5l-2.5-6.2h1.7l1.2,3.2l0.3,1.1c0.1-0.3,0.1-0.4,0.2-0.5c0.1-0.2,0.1-0.4,0.2-0.5l1.2-3.2h1.7
			l-2.5,6.2H490.8z"/>
		<path class="st6" d="M495.8,147.5V146h1.6v1.5H495.8z M495.8,154.5v-6.2h1.6v6.2H495.8z"/>
		<path class="st6" d="M502,148.3v1.3h-1.1v2.5c0,0.5,0,0.8,0,0.9s0.1,0.2,0.1,0.2s0.2,0.1,0.3,0.1c0.2,0,0.4-0.1,0.7-0.2l0.1,1.3
			c-0.4,0.2-0.8,0.2-1.3,0.2c-0.3,0-0.6,0-0.8-0.1s-0.4-0.2-0.5-0.4s-0.2-0.4-0.2-0.6c0-0.2-0.1-0.6-0.1-1.2v-2.7h-0.8v-1.3h0.8
			v-1.2l1.7-1v2.2H502z"/>
		<path class="st6" d="M502.3,148.3h1.8l1.5,4.4l1.5-4.4h1.7l-2.2,6l-0.4,1.1c-0.1,0.4-0.3,0.6-0.4,0.8s-0.3,0.3-0.5,0.5
			s-0.4,0.2-0.6,0.3s-0.5,0.1-0.8,0.1c-0.3,0-0.6,0-0.9-0.1l-0.1-1.3c0.3,0.1,0.5,0.1,0.7,0.1c0.4,0,0.7-0.1,0.8-0.3
			s0.3-0.5,0.4-0.9L502.3,148.3z"/>
	</g>
	<g class="st5">
		<path class="st6" d="M1045.7,144.9v-8.6h1.7v3.4h3.4v-3.4h1.7v8.6h-1.7v-3.8h-3.4v3.8H1045.7z"/>
		<path class="st6" d="M1058.4,144.9V144c-0.2,0.3-0.5,0.6-0.9,0.8s-0.8,0.3-1.2,0.3c-0.4,0-0.8-0.1-1.1-0.3s-0.6-0.4-0.7-0.8
			s-0.2-0.8-0.2-1.4v-3.9h1.6v2.9c0,0.9,0,1.4,0.1,1.6s0.2,0.4,0.3,0.5s0.4,0.2,0.6,0.2c0.3,0,0.5-0.1,0.8-0.2s0.4-0.3,0.5-0.6
			s0.1-0.8,0.1-1.7v-2.6h1.6v6.2H1058.4z"/>
		<path class="st6" d="M1061.6,144.9v-8.6h1.6v3.1c0.5-0.6,1.1-0.9,1.8-0.9c0.8,0,1.4,0.3,1.9,0.8s0.7,1.3,0.7,2.4
			c0,1.1-0.3,1.9-0.8,2.5s-1.1,0.9-1.8,0.9c-0.4,0-0.7-0.1-1.1-0.3s-0.6-0.4-0.9-0.8v0.9H1061.6z M1063.2,141.7
			c0,0.6,0.1,1.1,0.3,1.4c0.3,0.4,0.7,0.7,1.1,0.7c0.4,0,0.7-0.2,0.9-0.5s0.4-0.8,0.4-1.5c0-0.7-0.1-1.2-0.4-1.5s-0.6-0.5-1-0.5
			c-0.4,0-0.7,0.2-1,0.5S1063.2,141,1063.2,141.7z"/>
		<path class="st6" d="M1068.9,144.9v-8.6h1.6v3.1c0.5-0.6,1.1-0.9,1.8-0.9c0.8,0,1.4,0.3,1.9,0.8s0.7,1.3,0.7,2.4
			c0,1.1-0.3,1.9-0.8,2.5s-1.1,0.9-1.8,0.9c-0.4,0-0.7-0.1-1.1-0.3s-0.6-0.4-0.9-0.8v0.9H1068.9z M1070.6,141.7
			c0,0.6,0.1,1.1,0.3,1.4c0.3,0.4,0.7,0.7,1.1,0.7c0.4,0,0.7-0.2,0.9-0.5s0.4-0.8,0.4-1.5c0-0.7-0.1-1.2-0.4-1.5s-0.6-0.5-1-0.5
			c-0.4,0-0.7,0.2-1,0.5S1070.6,141,1070.6,141.7z"/>
		<path class="st6" d="M1076.3,144.9v-8.6h1.6v8.6H1076.3z"/>
		<path class="st6" d="M1083.3,142.9l1.6,0.3c-0.2,0.6-0.5,1.1-1,1.4s-1,0.5-1.7,0.5c-1.1,0-1.9-0.4-2.4-1.1
			c-0.4-0.6-0.6-1.3-0.6-2.1c0-1,0.3-1.8,0.8-2.4s1.2-0.9,2-0.9c0.9,0,1.7,0.3,2.2,0.9s0.8,1.5,0.8,2.8h-4.1c0,0.5,0.1,0.9,0.4,1.1
			s0.6,0.4,0.9,0.4c0.3,0,0.5-0.1,0.7-0.2S1083.2,143.2,1083.3,142.9z M1083.4,141.3c0-0.5-0.1-0.8-0.4-1.1s-0.5-0.4-0.9-0.4
			c-0.4,0-0.7,0.1-0.9,0.4s-0.3,0.6-0.3,1.1H1083.4z"/>
	</g>
	<g class="st5">
		<path class="st6" d="M1275.8,144.9h-1.9l-0.8-2h-3.4l-0.7,2h-1.8l3.3-8.6h1.8L1275.8,144.9z M1272.6,141.5l-1.2-3.2l-1.2,3.2
			H1272.6z"/>
		<path class="st6" d="M1278.3,144.9h-1.6v-6.2h1.5v0.9c0.3-0.4,0.5-0.7,0.7-0.8s0.4-0.2,0.7-0.2c0.4,0,0.7,0.1,1.1,0.3l-0.5,1.4
			c-0.3-0.2-0.5-0.3-0.8-0.3c-0.2,0-0.4,0.1-0.6,0.2s-0.3,0.4-0.4,0.7s-0.1,1-0.1,2.1V144.9z"/>
		<path class="st6" d="M1285,142.9l1.6,0.3c-0.2,0.6-0.5,1.1-1,1.4s-1,0.5-1.7,0.5c-1.1,0-1.9-0.4-2.4-1.1c-0.4-0.6-0.6-1.3-0.6-2.1
			c0-1,0.3-1.8,0.8-2.4s1.2-0.9,2-0.9c0.9,0,1.7,0.3,2.2,0.9s0.8,1.5,0.8,2.8h-4.1c0,0.5,0.1,0.9,0.4,1.1s0.6,0.4,0.9,0.4
			c0.3,0,0.5-0.1,0.7-0.2S1284.9,143.2,1285,142.9z M1285.1,141.3c0-0.5-0.1-0.8-0.4-1.1s-0.5-0.4-0.9-0.4c-0.4,0-0.7,0.1-0.9,0.4
			s-0.3,0.6-0.3,1.1H1285.1z"/>
		<path class="st6" d="M1289.3,140.6l-1.5-0.3c0.2-0.6,0.5-1,0.9-1.3s1-0.4,1.8-0.4c0.7,0,1.3,0.1,1.6,0.3s0.6,0.4,0.8,0.7
			s0.2,0.8,0.2,1.5l0,1.9c0,0.5,0,1,0.1,1.2s0.2,0.5,0.3,0.8h-1.6c0-0.1-0.1-0.3-0.2-0.5c0-0.1,0-0.2-0.1-0.2
			c-0.3,0.3-0.6,0.5-0.9,0.6s-0.7,0.2-1,0.2c-0.6,0-1.1-0.2-1.5-0.5s-0.6-0.8-0.6-1.3c0-0.4,0.1-0.7,0.3-0.9s0.4-0.5,0.7-0.6
			s0.7-0.3,1.3-0.4c0.8-0.1,1.3-0.3,1.6-0.4v-0.2c0-0.3-0.1-0.5-0.2-0.7s-0.5-0.2-0.9-0.2c-0.3,0-0.5,0.1-0.7,0.2
			S1289.4,140.3,1289.3,140.6z M1291.5,141.9c-0.2,0.1-0.5,0.2-1,0.3s-0.8,0.2-0.9,0.3c-0.2,0.2-0.3,0.3-0.3,0.6
			c0,0.2,0.1,0.4,0.3,0.6s0.4,0.3,0.7,0.3c0.3,0,0.6-0.1,0.8-0.3c0.2-0.1,0.3-0.3,0.4-0.5c0-0.1,0.1-0.4,0.1-0.8V141.9z"/>
		<path class="st6" d="M1297.8,142.7l1.6-0.2c0,0.4,0.2,0.7,0.4,0.9s0.5,0.3,0.8,0.3c0.3,0,0.6-0.1,0.9-0.4s0.4-0.7,0.4-1.3
			c0-0.5-0.1-0.9-0.4-1.2s-0.5-0.4-0.9-0.4c-0.5,0-0.9,0.2-1.3,0.6l-1.3-0.2l0.8-4.5h4.4v1.5h-3.1l-0.3,1.5c0.4-0.2,0.7-0.3,1.1-0.3
			c0.7,0,1.3,0.3,1.9,0.8s0.8,1.2,0.8,2.1c0,0.7-0.2,1.3-0.6,1.9c-0.6,0.8-1.3,1.1-2.3,1.1c-0.8,0-1.4-0.2-1.9-0.6
			S1297.9,143.4,1297.8,142.7z"/>
		<path class="st6" d="M1308.6,144.9h-1.6v-6.2c-0.6,0.6-1.3,1-2.1,1.2v-1.5c0.4-0.1,0.9-0.4,1.4-0.8s0.8-0.9,1-1.4h1.3V144.9z"/>
	</g>
</g>
<g id="furniature">
	<polygon class="st7" points="610.9,256.8 810.9,256.8 811.1,277.4 611,277.4 	"/>
	<rect x="611.3" y="257.2" class="st8" width="200" height="20.7"/>
	<rect x="611.3" y="258.4" class="st9" width="200" height="20.7"/>
	<path class="st10" d="M503.3,449l-6.6-55.1c-0.2-0.9,0.4-1.8,1.3-2l19.8-2.4l7,58.8l-19.7,2.3c-0.8,0.2-1.6-0.4-1.8-1.4L503.3,449z
		"/>
	<path class="st11" d="M503.1,447.3l-6.6-55.1c-0.2-0.9,0.4-1.8,1.3-2l19.8-2.4l7,58.8l-19.7,2.3C504,449,503.2,448.2,503.1,447.3z"
		/>
	<path class="st12" d="M502.8,445.2l-6.6-55.1c-0.2-0.9,0.4-1.8,1.3-2l19.8-2.4l7,58.8l-19.7,2.3
		C503.9,447.1,503.1,446.4,502.8,445.2L502.8,445.2z"/>
	
		<rect x="515.9" y="385.5" transform="matrix(0.993 -0.1184 0.1184 0.993 -45.5579 64.3108)" class="st13" width="4.9" height="60.1"/>
	
		<rect x="514.4" y="385.9" transform="matrix(0.993 -0.1184 0.1184 0.993 -45.6262 63.9313)" class="st10" width="1.6" height="60.1"/>
	<polygon class="st8" points="521.2,378.5 571.9,378.5 590.3,435.7 562.2,444.9 555.8,394.8 522.8,395.5 	"/>
	<polygon class="st9" points="520.4,379.3 571.1,379.3 589.6,436.5 561.5,445.6 555,395.6 522,396.2 	"/>
</g>
<g id="outline">
	<rect x="43.6" y="72.5" class="st14" width="1607.3" height="441.6"/>
	<polyline class="st15" points="225.6,364.1 225.6,447.9 225.8,219.7 235.5,219.7 	"/>
	<path class="st15" d="M235.5,219.7"/>
	<polyline class="st15" points="261,219.7 406.1,219.7 268.2,219.7 268.2,72.5 438.9,72.5 438.9,219.7 430.4,219.7 445.2,219.7 	"/>
	<polyline class="st15" points="466.9,219.7 558.3,219.7 537.6,219.7 537.6,72.5 617.8,72.5 617.8,219.7 590.7,219.7 652.4,219.7 
		660.5,206.1 	"/>
	<polyline class="st15" points="617.8,169.6 775.4,169.6 775.4,162.4 	"/>
	<polyline class="st15" points="775.4,137.6 775.4,72.5 816.4,72.5 816.4,169.6 973.6,169.6 	"/>
	<polyline class="st15" points="999.7,169.6 1006,169.6 1006,72.5 1140.7,72.5 1140.7,149.4 1117.3,149.4 1117.3,221.4 
		1110.5,221.4 	"/>
	<polyline class="st15" points="1083,221.4 950.2,221.4 1004.7,221.4 1004.7,169.6 	"/>
	<line class="st15" x1="673.1" y1="182.3" x2="680.3" y2="169.6"/>
	<polyline class="st15" points="622.5,358.6 611.4,358.6 611.4,279.9 811.3,279.9 811.3,440.2 741.3,440.2 741.3,411.7 	"/>
	<polyline class="st15" points="649,360 811.3,360 740.8,360 740.8,382.7 	"/>
	<line class="st15" x1="225.6" y1="491.4" x2="225.6" y2="514.1"/>
	<polyline class="st15" points="811.3,279.9 911.7,338.3 954.2,266.4 	"/>
	<line class="st15" x1="811.3" y1="440.2" x2="840.2" y2="457.1"/>
	<polyline class="st15" points="1140.7,149.4 1164.3,149.4 1164.3,221.4 1180.7,221.4 	"/>
	<line class="st15" x1="1208.7" y1="221.4" x2="1377.7" y2="221.4"/>
	<polyline class="st15" points="1402.3,221.4 1418.2,221.4 1410.3,221.4 1410.3,72.5 1527.4,72.5 1527.4,99.3 	"/>
	<polyline class="st15" points="1527.4,149.4 1527.4,162.1 1650.9,162.1 1591.6,162.1 1591.6,173.2 	"/>
	<polyline class="st15" points="1591.1,200.2 1591.1,232.1 1648.6,232.1 1458.3,232.1 1458.3,239.3 1458.3,223.9 1458.3,220.5 
		1447.4,220.5 	"/>
	<polyline class="st15" points="1458.5,262.7 1458.5,304.2 1650.9,304.2 	"/>
	<line class="st15" x1="511.4" y1="274.4" x2="527.7" y2="447.9"/>
	<polyline class="st15" points="948,362.3 956,377.7 912.7,457.1 918.7,466 	"/>
</g>
<g id="icons">
	<circle class="st16" cx="711.3" cy="312.1" r="21.5"/>
	<path class="st17" d="M697.1,347.1l1-0.1c0,0.4,0.1,0.7,0.3,1c0.2,0.3,0.5,0.6,0.8,0.7c0.4,0.2,0.8,0.3,1.3,0.2
		c0.4,0,0.8-0.1,1.2-0.2c0.3-0.1,0.6-0.2,0.7-0.6c0.3-0.4,0.3-1,0-1.4c-0.2-0.3-0.5-0.4-0.8-0.5c-0.5-0.1-1-0.3-1.5-0.5
		c-0.6-0.1-1.1-0.3-1.6-0.6c-0.4-0.2-0.7-0.5-0.9-0.8c-0.2-0.3-0.3-0.7-0.3-1c0-0.4,0.1-0.8,0.3-1.2c0.3-0.4,0.6-0.6,1-0.8
		c0.5-0.2,1.1-0.4,1.6-0.3c0.6,0,1.2,0.1,1.7,0.3c0.5,0.2,0.9,0.5,1.2,0.9c0.3,0.4,0.4,0.9,0.5,1.4l-1,0.1c0-0.5-0.2-0.9-0.6-1.3
		c-0.4-0.3-1-0.5-1.5-0.5c-0.5,0-1,0.1-1.5,0.3c-0.5,0.4-0.6,1.1-0.2,1.6c0,0.1,0.1,0.1,0.1,0.1c0.5,0.3,1.1,0.5,1.7,0.6
		c0.6,0.1,1.3,0.3,1.9,0.6c0.5,0.2,0.9,0.5,1.2,0.9c0.5,0.8,0.5,1.8,0,2.5c-0.3,0.4-0.7,0.8-1.2,0.9c-0.5,0.2-1.1,0.4-1.6,0.3
		c-0.7,0-1.3-0.1-2-0.3c-0.5-0.2-0.9-0.6-1.3-1C697.2,348.2,697.1,347.6,697.1,347.1z"/>
	<path class="st17" d="M707.6,348.8l0.1,0.9c-0.3,0.1-0.5,0.1-0.8,0.1c-0.3,0-0.7,0-0.9-0.2c-0.2-0.1-0.4-0.3-0.5-0.5
		c-0.1-0.4-0.1-0.8-0.1-1.3v-3.6h-0.8v-0.7h0.8v-1.5l1-0.6v2.2h1v0.8h-1v4.2c0,0.1,0.1,0.1,0.2,0.2c0.1,0,0.2,0.1,0.3,0.1
		C707.3,348.9,707.4,348.9,707.6,348.8z"/>
	<path class="st17" d="M712.6,349c-0.3,0.3-0.7,0.6-1.2,0.7c-0.4,0.1-0.8,0.2-1.2,0.2c-0.6,0-1.1-0.1-1.6-0.5
		c-0.4-0.3-0.6-0.8-0.6-1.3c0-0.6,0.2-1.1,0.7-1.4c0.3-0.1,0.5-0.3,0.8-0.3c0.3-0.1,0.6-0.1,0.9-0.1c0.6-0.1,1.3-0.2,1.9-0.3v-0.2
		c0-0.3-0.1-0.7-0.3-0.9c-0.3-0.2-0.7-0.3-1.2-0.3c-0.4,0-0.7,0.1-1,0.2c-0.3,0.3-0.5,0.6-0.6,0.9l-1-0.1c0.1-0.4,0.3-0.7,0.5-1
		c0.2-0.3,0.6-0.5,0.9-0.6c0.5-0.1,0.9-0.2,1.4-0.2c0.4,0,0.9,0,1.3,0.2c0.2,0.1,0.6,0.2,0.7,0.5l0.3,0.7c0,0.3,0.1,0.7,0,0.9v1.4
		c0,0.6,0,1.2,0.1,1.9c0,0.2,0.1,0.5,0.2,0.7h-1C712.7,349.7,712.7,349.3,712.6,349z M712.6,346.7c-0.6,0.2-1.1,0.3-1.7,0.3
		c-0.3,0-0.6,0.1-0.9,0.2c-0.1,0.1-0.3,0.2-0.5,0.3c-0.3,0.4-0.2,0.9,0.1,1.2c0.2,0.2,0.6,0.3,0.9,0.2c0.4,0,0.7-0.1,1-0.2
		c0.3-0.1,0.6-0.4,0.7-0.7c0.2-0.3,0.2-0.7,0.1-1L712.6,346.7z"/>
	<path class="st17" d="M715.3,342.4v-1.2h1v1.2H715.3z M715.3,349.8v-6.2h1v6.2L715.3,349.8z"/>
	<path class="st17" d="M717.9,349.8v-6.2h0.9v0.9c0.2-0.4,0.4-0.7,0.7-0.9c0.2-0.1,0.5-0.2,0.7-0.2c0.4,0,0.7,0.1,1,0.3l-0.3,0.9
		c-0.2-0.1-0.5-0.2-0.8-0.2c-0.2,0-0.4,0.1-0.6,0.2c-0.2,0.1-0.4,0.3-0.3,0.6c-0.1,0.4-0.2,0.8-0.2,1.3v3.2L717.9,349.8z"/>
	<path class="st17" d="M721.5,348l1-0.1c0,0.4,0.2,0.7,0.5,0.9c0.3,0.2,0.7,0.4,1.2,0.3c0.4,0,0.7-0.1,1-0.3
		c0.2-0.2,0.4-0.4,0.3-0.7c0-0.2-0.1-0.5-0.3-0.6l-1-0.3c-0.6-0.1-1-0.3-1.6-0.5c-0.3-0.2-0.5-0.4-0.7-0.6c-0.3-0.5-0.3-1.1,0-1.6
		c0.1-0.2,0.3-0.4,0.5-0.6c0.2-0.1,0.5-0.2,0.7-0.3c0.3-0.1,0.6-0.1,0.9-0.1c0.4,0,0.9,0.1,1.3,0.2c0.3,0.1,0.6,0.3,0.8,0.6
		c0.2,0.3,0.4,0.6,0.3,0.9l-1,0.1c0-0.3-0.2-0.6-0.5-0.7c-0.2-0.2-0.6-0.3-0.9-0.2c-0.4,0-0.7,0-1,0.2c-0.2,0.1-0.4,0.3-0.3,0.6
		c0,0.1,0,0.3,0.1,0.3c0.1,0.1,0.2,0.2,0.3,0.2s0.5,0.1,0.9,0.2c0.6,0.1,1,0.3,1.5,0.5c0.3,0.2,0.5,0.4,0.7,0.6
		c0.2,0.3,0.3,0.6,0.2,0.9c0,0.4-0.1,0.7-0.3,1c-0.2,0.3-0.5,0.6-0.9,0.7c-0.4,0.2-0.8,0.3-1.3,0.2c-0.6,0-1.3-0.1-1.9-0.5
		C721.7,349,721.6,348.5,721.5,348z"/>
	<g id="Outline_Icons-2-2-4-2-2-2-3-2">
		<line class="st18" x1="703.1" y1="319.4" x2="718.1" y2="319.4"/>
		<polyline class="st18" points="715.5,319.4 715.5,316.8 712.8,316.8 712.8,314.1 710.3,314.1 710.3,311.4 707.6,311.4 
			707.6,308.9 703.1,308.9 		"/>
		<line class="st18" x1="711" y1="304.3" x2="719.1" y2="312.5"/>
		<polyline class="st18" points="711,307.6 711,304.3 714.3,304.3 		"/>
		<polyline class="st18" points="719.1,309.3 719.1,312.5 715.9,312.5 		"/>
	</g>
	<circle class="st16" cx="1561.3" cy="259.5" r="21.5"/>
	<path class="st17" d="M1547.1,294.5l1-0.1c0,0.4,0.1,0.7,0.3,1c0.2,0.3,0.5,0.6,0.8,0.7c0.4,0.2,0.8,0.3,1.3,0.2
		c0.4,0,0.8-0.1,1.2-0.2c0.3-0.1,0.6-0.2,0.7-0.6c0.3-0.4,0.3-1,0-1.4c-0.2-0.3-0.5-0.4-0.8-0.5c-0.5-0.1-1-0.3-1.5-0.5
		c-0.6-0.1-1.1-0.3-1.6-0.6c-0.4-0.2-0.7-0.5-0.9-0.8c-0.2-0.3-0.3-0.7-0.3-1c0-0.4,0.1-0.8,0.3-1.2c0.3-0.4,0.6-0.6,1-0.8
		c0.5-0.2,1.1-0.4,1.6-0.3c0.6,0,1.2,0.1,1.7,0.3c0.5,0.2,0.9,0.5,1.2,0.9c0.3,0.4,0.4,0.9,0.5,1.4l-1,0.1c0-0.5-0.2-0.9-0.6-1.3
		c-0.4-0.3-1-0.5-1.5-0.5c-0.5,0-1,0.1-1.5,0.3c-0.5,0.4-0.6,1.1-0.2,1.6c0,0.1,0.1,0.1,0.1,0.1c0.5,0.3,1.1,0.5,1.7,0.6
		c0.6,0.1,1.3,0.3,1.9,0.6c0.5,0.2,0.9,0.5,1.2,0.9c0.7,1.1,0.4,2.5-0.7,3.2c-0.1,0.1-0.3,0.2-0.5,0.2c-0.5,0.2-1.1,0.4-1.6,0.3
		c-0.7,0-1.3-0.1-2-0.3c-0.5-0.2-0.9-0.6-1.3-1C1547.2,295.6,1547,295,1547.1,294.5z"/>
	<path class="st17" d="M1557.6,296.2l0.1,0.9c-0.3,0.1-0.5,0.1-0.8,0.1c-0.3,0-0.7,0-0.9-0.2c-0.2-0.1-0.4-0.3-0.5-0.5
		c-0.1-0.4-0.1-0.8-0.1-1.3v-3.6h-0.8V291h0.8v-1.5l1-0.6v2.2h1v0.8h-1v4.2c0,0.1,0.1,0.1,0.2,0.2c0.1,0,0.2,0.1,0.3,0.1
		C1557.2,296.3,1557.3,296.3,1557.6,296.2z"/>
	<path class="st17" d="M1562.6,296.4c-0.3,0.3-0.7,0.6-1.2,0.7c-0.4,0.1-0.8,0.2-1.2,0.2c-0.6,0-1.1-0.1-1.6-0.5
		c-0.4-0.3-0.6-0.8-0.6-1.3c0-0.6,0.2-1.1,0.7-1.4c0.3-0.1,0.5-0.3,0.8-0.3c0.3-0.1,0.6-0.1,0.9-0.1c0.6-0.1,1.3-0.2,1.9-0.3v-0.2
		c0-0.3-0.1-0.7-0.3-0.9c-0.3-0.2-0.7-0.3-1.2-0.3c-0.4,0-0.7,0.1-1,0.2c-0.3,0.3-0.5,0.6-0.6,0.9l-1-0.1c0.1-0.4,0.3-0.7,0.5-1
		c0.2-0.3,0.6-0.5,0.9-0.6c0.5-0.1,0.9-0.2,1.4-0.2c0.4,0,0.9,0,1.3,0.2c0.2,0.1,0.6,0.2,0.7,0.5l0.3,0.7c0,0.3,0.1,0.7,0,0.9v1.4
		c0,0.6,0,1.2,0.1,1.9c0,0.2,0.1,0.5,0.2,0.7h-1C1562.7,297,1562.7,296.7,1562.6,296.4z M1562.6,294.1c-0.6,0.2-1.1,0.3-1.7,0.3
		c-0.3,0-0.6,0.1-0.9,0.2c-0.1,0.1-0.3,0.2-0.5,0.3c-0.3,0.4-0.2,0.9,0.1,1.2c0.2,0.2,0.6,0.3,0.9,0.2c0.4,0,0.7-0.1,1-0.2
		c0.3-0.1,0.6-0.4,0.7-0.7c0.2-0.3,0.2-0.7,0.1-1L1562.6,294.1z"/>
	<path class="st17" d="M1565.2,289.8v-1.2h1v1.2H1565.2z M1565.2,297.2V291h1v6.2H1565.2z"/>
	<path class="st17" d="M1567.9,297.2V291h0.9v0.9c0.2-0.4,0.4-0.7,0.7-0.9c0.2-0.1,0.4-0.2,0.7-0.2c0.4,0,0.7,0.1,1,0.3l-0.3,0.9
		c-0.2-0.1-0.5-0.2-0.8-0.2c-0.2,0-0.4,0.1-0.6,0.2c-0.2,0.1-0.4,0.3-0.3,0.6c-0.1,0.4-0.2,0.8-0.2,1.3v3.2L1567.9,297.2z"/>
	<path class="st17" d="M1571.5,295.4l1-0.1c0,0.4,0.2,0.7,0.5,0.9c0.3,0.2,0.7,0.4,1.2,0.3c0.4,0,0.7-0.1,1-0.3
		c0.2-0.2,0.4-0.4,0.3-0.7c0-0.2-0.1-0.5-0.3-0.6l-1-0.3c-0.6-0.1-1-0.3-1.6-0.5c-0.3-0.2-0.5-0.4-0.7-0.6c-0.3-0.5-0.3-1.1,0-1.6
		c0.1-0.2,0.3-0.4,0.5-0.6l0.7-0.3c0.3-0.1,0.6-0.1,0.9-0.1c0.4,0,0.9,0.1,1.3,0.2c0.3,0.1,0.6,0.3,0.8,0.6c0.2,0.3,0.4,0.6,0.3,0.9
		l-1,0.1c0-0.3-0.2-0.6-0.5-0.7c-0.2-0.2-0.6-0.3-0.9-0.2c-0.4,0-0.7,0-1,0.2c-0.2,0.1-0.4,0.3-0.3,0.6c0,0.1,0,0.3,0.1,0.3
		c0.1,0.1,0.2,0.2,0.3,0.2s0.5,0.1,0.9,0.2c0.6,0.1,1,0.3,1.5,0.5c0.3,0.2,0.5,0.4,0.7,0.6c0.2,0.3,0.3,0.6,0.2,0.9
		c0,0.4-0.1,0.7-0.3,1c-0.2,0.3-0.5,0.6-0.9,0.7c-0.4,0.2-0.8,0.3-1.3,0.2c-0.6,0-1.3-0.1-1.9-0.5
		C1571.7,296.4,1571.6,295.9,1571.5,295.4z"/>
	<g id="Outline_Icons-2-2-4-2-2-2-3-2-2">
		<line class="st18" x1="1553.1" y1="266.8" x2="1568.1" y2="266.8"/>
		<polyline class="st18" points="1565.4,266.8 1565.4,264.1 1562.8,264.1 1562.8,261.5 1560.2,261.5 1560.2,258.8 1557.6,258.8 
			1557.6,256.3 1553.1,256.3 		"/>
		<line class="st18" x1="1560.9" y1="251.6" x2="1569" y2="259.9"/>
		<polyline class="st18" points="1560.9,255 1560.9,251.6 1564.3,251.6 		"/>
		<polyline class="st18" points="1569,256.7 1569,259.9 1565.9,259.9 		"/>
	</g>
	<g class="st5">
		<path class="st17" d="M1605.1,197.5l0.9-0.1c0,0.4,0.1,0.7,0.3,0.9c0.2,0.2,0.4,0.4,0.7,0.6c0.3,0.1,0.7,0.2,1.1,0.2
			c0.4,0,0.7-0.1,1-0.2c0.3-0.1,0.5-0.3,0.6-0.4c0.1-0.2,0.2-0.4,0.2-0.6c0-0.2-0.1-0.4-0.2-0.6c-0.1-0.2-0.3-0.3-0.6-0.4
			c-0.2-0.1-0.6-0.2-1.3-0.3c-0.7-0.2-1.1-0.3-1.4-0.4c-0.3-0.2-0.6-0.4-0.8-0.7c-0.2-0.3-0.3-0.6-0.3-0.9c0-0.4,0.1-0.7,0.3-1
			c0.2-0.3,0.5-0.6,0.9-0.7c0.4-0.2,0.8-0.2,1.3-0.2c0.5,0,1,0.1,1.4,0.3c0.4,0.2,0.7,0.4,0.9,0.8c0.2,0.3,0.3,0.7,0.4,1.1l-0.9,0.1
			c0-0.5-0.2-0.8-0.5-1c-0.3-0.2-0.7-0.3-1.2-0.3c-0.6,0-1,0.1-1.3,0.3c-0.3,0.2-0.4,0.5-0.4,0.8c0,0.3,0.1,0.5,0.3,0.6
			c0.2,0.2,0.7,0.3,1.4,0.5c0.8,0.2,1.3,0.3,1.6,0.5c0.4,0.2,0.7,0.4,0.9,0.7c0.2,0.3,0.3,0.6,0.3,1c0,0.4-0.1,0.7-0.3,1.1
			c-0.2,0.3-0.5,0.6-0.9,0.8c-0.4,0.2-0.9,0.3-1.4,0.3c-0.6,0-1.2-0.1-1.6-0.3c-0.4-0.2-0.8-0.5-1-0.9
			C1605.3,198.4,1605.1,198,1605.1,197.5z"/>
		<path class="st17" d="M1615.6,198.1l0.9,0.1c-0.1,0.5-0.4,0.9-0.8,1.2c-0.4,0.3-0.9,0.4-1.5,0.4c-0.8,0-1.4-0.2-1.8-0.7
			c-0.4-0.5-0.7-1.1-0.7-2c0-0.9,0.2-1.5,0.7-2s1-0.7,1.7-0.7c0.7,0,1.3,0.2,1.7,0.7s0.7,1.1,0.7,2c0,0.1,0,0.1,0,0.2h-3.9
			c0,0.6,0.2,1,0.5,1.3c0.3,0.3,0.7,0.5,1.1,0.5c0.3,0,0.6-0.1,0.8-0.3C1615.2,198.8,1615.4,198.5,1615.6,198.1z M1612.7,196.7h2.9
			c0-0.4-0.1-0.8-0.3-1c-0.3-0.3-0.6-0.5-1.1-0.5c-0.4,0-0.7,0.1-1,0.4C1612.9,195.9,1612.7,196.3,1612.7,196.7z"/>
		<path class="st17" d="M1617.6,199.8v-5.2h0.8v0.8c0.2-0.4,0.4-0.6,0.6-0.7s0.4-0.2,0.6-0.2c0.3,0,0.6,0.1,0.9,0.3l-0.3,0.8
			c-0.2-0.1-0.4-0.2-0.6-0.2c-0.2,0-0.4,0.1-0.5,0.2c-0.2,0.1-0.3,0.3-0.3,0.5c-0.1,0.3-0.1,0.7-0.1,1v2.7H1617.6z"/>
		<path class="st17" d="M1622.3,199.8l-2-5.2h0.9l1.1,3.1c0.1,0.3,0.2,0.7,0.3,1c0.1-0.3,0.2-0.6,0.3-1l1.2-3.2h0.9l-2,5.2H1622.3z"
			/>
		<path class="st17" d="M1629.4,198.1l0.9,0.1c-0.1,0.5-0.4,0.9-0.8,1.2c-0.4,0.3-0.9,0.4-1.5,0.4c-0.8,0-1.4-0.2-1.8-0.7
			c-0.4-0.5-0.7-1.1-0.7-2c0-0.9,0.2-1.5,0.7-2s1-0.7,1.7-0.7c0.7,0,1.3,0.2,1.7,0.7s0.7,1.1,0.7,2c0,0.1,0,0.1,0,0.2h-3.9
			c0,0.6,0.2,1,0.5,1.3c0.3,0.3,0.7,0.5,1.1,0.5c0.3,0,0.6-0.1,0.8-0.3C1629.1,198.8,1629.3,198.5,1629.4,198.1z M1626.6,196.7h2.9
			c0-0.4-0.1-0.8-0.3-1c-0.3-0.3-0.6-0.5-1.1-0.5c-0.4,0-0.7,0.1-1,0.4C1626.7,195.9,1626.6,196.3,1626.6,196.7z"/>
		<path class="st17" d="M1631.5,199.8v-5.2h0.8v0.8c0.2-0.4,0.4-0.6,0.6-0.7s0.4-0.2,0.6-0.2c0.3,0,0.6,0.1,0.9,0.3l-0.3,0.8
			c-0.2-0.1-0.4-0.2-0.6-0.2c-0.2,0-0.4,0.1-0.5,0.2c-0.2,0.1-0.3,0.3-0.3,0.5c-0.1,0.3-0.1,0.7-0.1,1v2.7H1631.5z"/>
	</g>
	<g class="st5">
		<path class="st17" d="M1606.9,211.8v-7.2h3.2c0.6,0,1.1,0.1,1.5,0.2c0.3,0.1,0.6,0.4,0.8,0.7c0.2,0.3,0.3,0.7,0.3,1.1
			c0,0.5-0.2,0.9-0.5,1.3c-0.3,0.3-0.8,0.6-1.5,0.7c0.2,0.1,0.4,0.2,0.6,0.4c0.3,0.3,0.5,0.6,0.8,1l1.2,1.9h-1.2l-0.9-1.5
			c-0.3-0.4-0.5-0.8-0.7-1c-0.2-0.2-0.3-0.4-0.5-0.5s-0.3-0.2-0.4-0.2c-0.1,0-0.3,0-0.5,0h-1.1v3.2H1606.9z M1607.8,207.8h2
			c0.4,0,0.8,0,1-0.1c0.2-0.1,0.4-0.2,0.6-0.4c0.1-0.2,0.2-0.4,0.2-0.6c0-0.3-0.1-0.6-0.4-0.8c-0.2-0.2-0.6-0.3-1.2-0.3h-2.3V207.8z
			"/>
		<path class="st17" d="M1613.6,209.2c0-1,0.3-1.7,0.8-2.1c0.4-0.4,1-0.6,1.6-0.6c0.7,0,1.3,0.2,1.7,0.7c0.5,0.5,0.7,1.1,0.7,1.9
			c0,0.7-0.1,1.2-0.3,1.6c-0.2,0.4-0.5,0.7-0.9,0.9c-0.4,0.2-0.8,0.3-1.3,0.3c-0.7,0-1.3-0.2-1.8-0.7
			C1613.8,210.8,1613.6,210.1,1613.6,209.2z M1614.5,209.2c0,0.7,0.1,1.2,0.4,1.5c0.3,0.3,0.7,0.5,1.1,0.5c0.4,0,0.8-0.2,1.1-0.5
			c0.3-0.3,0.4-0.8,0.4-1.5c0-0.6-0.1-1.1-0.4-1.5c-0.3-0.3-0.7-0.5-1.1-0.5c-0.4,0-0.8,0.2-1.1,0.5
			C1614.7,208.1,1614.5,208.5,1614.5,209.2z"/>
		<path class="st17" d="M1619.2,209.2c0-1,0.3-1.7,0.8-2.1c0.4-0.4,1-0.6,1.6-0.6c0.7,0,1.3,0.2,1.7,0.7c0.5,0.5,0.7,1.1,0.7,1.9
			c0,0.7-0.1,1.2-0.3,1.6c-0.2,0.4-0.5,0.7-0.9,0.9c-0.4,0.2-0.8,0.3-1.3,0.3c-0.7,0-1.3-0.2-1.8-0.7
			C1619.4,210.8,1619.2,210.1,1619.2,209.2z M1620.1,209.2c0,0.7,0.1,1.2,0.4,1.5c0.3,0.3,0.7,0.5,1.1,0.5c0.4,0,0.8-0.2,1.1-0.5
			c0.3-0.3,0.4-0.8,0.4-1.5c0-0.6-0.1-1.1-0.4-1.5c-0.3-0.3-0.7-0.5-1.1-0.5c-0.4,0-0.8,0.2-1.1,0.5
			C1620.2,208.1,1620.1,208.5,1620.1,209.2z"/>
		<path class="st17" d="M1625.1,211.8v-5.2h0.8v0.7c0.2-0.3,0.4-0.5,0.6-0.6c0.3-0.2,0.6-0.2,0.9-0.2c0.4,0,0.7,0.1,0.9,0.2
			c0.2,0.2,0.4,0.4,0.5,0.7c0.4-0.6,0.9-0.9,1.6-0.9c0.5,0,0.9,0.1,1.2,0.4c0.3,0.3,0.4,0.7,0.4,1.3v3.6h-0.9v-3.3
			c0-0.4,0-0.6-0.1-0.8c-0.1-0.2-0.2-0.3-0.3-0.4c-0.2-0.1-0.3-0.1-0.5-0.1c-0.4,0-0.7,0.1-0.9,0.4c-0.2,0.2-0.4,0.6-0.4,1.2v3h-0.9
			v-3.4c0-0.4-0.1-0.7-0.2-0.9c-0.1-0.2-0.4-0.3-0.7-0.3c-0.2,0-0.5,0.1-0.7,0.2s-0.4,0.3-0.5,0.6c-0.1,0.3-0.1,0.6-0.1,1.1v2.7
			H1625.1z"/>
	</g>
	<g class="st5">
		<path class="st17" d="M1574.8,114.1v-7.2h5.2v0.8h-4.2v2.2h4v0.8h-4v2.4h4.4v0.8H1574.8z"/>
		<path class="st17" d="M1580.7,114.1l2.8-3.7l-2.4-3.4h1.1l1.3,1.8c0.3,0.4,0.5,0.7,0.6,0.9c0.2-0.3,0.3-0.5,0.6-0.8l1.4-1.9h1
			l-2.5,3.4l2.7,3.8h-1.2l-1.8-2.6c-0.1-0.1-0.2-0.3-0.3-0.5c-0.2,0.3-0.3,0.4-0.3,0.5l-1.8,2.5H1580.7z"/>
		<path class="st17" d="M1589.9,114.1v-6.3h-2.4v-0.8h5.7v0.8h-2.4v6.3H1589.9z"/>
		<path class="st17" d="M1597.5,111.3v-0.8l3,0v2.7c-0.5,0.4-0.9,0.7-1.4,0.8c-0.5,0.2-1,0.3-1.5,0.3c-0.7,0-1.3-0.2-1.9-0.5
			c-0.6-0.3-1-0.7-1.3-1.3s-0.4-1.2-0.4-1.9c0-0.7,0.1-1.3,0.4-2c0.3-0.6,0.7-1.1,1.3-1.3s1.2-0.4,1.9-0.4c0.5,0,1,0.1,1.4,0.3
			c0.4,0.2,0.7,0.4,1,0.7c0.2,0.3,0.4,0.7,0.5,1.2l-0.9,0.2c-0.1-0.4-0.2-0.7-0.4-0.9c-0.2-0.2-0.4-0.4-0.7-0.5
			c-0.3-0.1-0.6-0.2-1-0.2c-0.4,0-0.8,0.1-1.1,0.2c-0.3,0.1-0.6,0.3-0.8,0.5c-0.2,0.2-0.3,0.5-0.5,0.7c-0.2,0.4-0.3,0.9-0.3,1.4
			c0,0.6,0.1,1.2,0.3,1.6s0.5,0.7,1,1s0.9,0.3,1.3,0.3c0.4,0,0.8-0.1,1.2-0.2c0.4-0.2,0.7-0.3,0.9-0.5v-1.3H1597.5z"/>
	</g>
	<g class="st5">
		<path class="st17" d="M1572.8,126.1v-7.2h4.8v0.8h-3.9v2.2h3.4v0.8h-3.4v3.3H1572.8z"/>
		<path class="st17" d="M1578.8,126.1v-5.2h0.8v0.8c0.2-0.4,0.4-0.6,0.6-0.7s0.4-0.2,0.6-0.2c0.3,0,0.6,0.1,0.9,0.3l-0.3,0.8
			c-0.2-0.1-0.4-0.2-0.6-0.2c-0.2,0-0.4,0.1-0.5,0.2c-0.2,0.1-0.3,0.3-0.3,0.5c-0.1,0.3-0.1,0.7-0.1,1v2.7H1578.8z"/>
		<path class="st17" d="M1585.7,124.4l0.9,0.1c-0.1,0.5-0.4,0.9-0.8,1.2c-0.4,0.3-0.9,0.4-1.5,0.4c-0.8,0-1.4-0.2-1.8-0.7
			c-0.4-0.5-0.7-1.1-0.7-2c0-0.9,0.2-1.5,0.7-2s1-0.7,1.7-0.7c0.7,0,1.3,0.2,1.7,0.7s0.7,1.1,0.7,2c0,0.1,0,0.1,0,0.2h-3.9
			c0,0.6,0.2,1,0.5,1.3c0.3,0.3,0.7,0.5,1.1,0.5c0.3,0,0.6-0.1,0.8-0.3C1585.4,125.1,1585.5,124.8,1585.7,124.4z M1582.8,123h2.9
			c0-0.4-0.2-0.8-0.3-1c-0.3-0.3-0.6-0.5-1.1-0.5c-0.4,0-0.7,0.1-1,0.4C1583,122.2,1582.8,122.5,1582.8,123z"/>
		<path class="st17" d="M1587.7,119.9v-1h0.9v1H1587.7z M1587.7,126.1v-5.2h0.9v5.2H1587.7z"/>
		<path class="st17" d="M1589.7,126.5l0.9,0.1c0,0.3,0.1,0.5,0.3,0.6c0.2,0.2,0.5,0.2,0.9,0.2c0.4,0,0.7-0.1,0.9-0.2
			c0.2-0.2,0.4-0.4,0.4-0.7c0-0.2,0.1-0.6,0.1-1.1c-0.4,0.5-0.9,0.7-1.4,0.7c-0.7,0-1.3-0.3-1.7-0.8s-0.6-1.1-0.6-1.9
			c0-0.5,0.1-1,0.3-1.4c0.2-0.4,0.4-0.7,0.8-1c0.3-0.2,0.7-0.3,1.2-0.3c0.6,0,1.1,0.2,1.5,0.7v-0.6h0.8v4.5c0,0.8-0.1,1.4-0.2,1.7
			c-0.2,0.3-0.4,0.6-0.8,0.8c-0.4,0.2-0.8,0.3-1.3,0.3c-0.6,0-1.1-0.1-1.5-0.4C1589.9,127.5,1589.7,127.1,1589.7,126.5z
			 M1590.5,123.4c0,0.7,0.1,1.2,0.4,1.5c0.3,0.3,0.6,0.5,1,0.5c0.4,0,0.7-0.2,1-0.5c0.3-0.3,0.4-0.8,0.4-1.5c0-0.6-0.1-1.1-0.4-1.4
			c-0.3-0.3-0.6-0.5-1-0.5c-0.4,0-0.7,0.2-1,0.5C1590.6,122.3,1590.5,122.8,1590.5,123.4z"/>
		<path class="st17" d="M1595.5,126.1v-7.2h0.9v2.6c0.4-0.5,0.9-0.7,1.6-0.7c0.4,0,0.7,0.1,1,0.2c0.3,0.2,0.5,0.4,0.6,0.6
			s0.2,0.7,0.2,1.2v3.3h-0.9v-3.3c0-0.4-0.1-0.8-0.3-1c-0.2-0.2-0.5-0.3-0.8-0.3c-0.3,0-0.5,0.1-0.7,0.2c-0.2,0.1-0.4,0.3-0.5,0.5
			s-0.1,0.5-0.1,1v2.8H1595.5z"/>
		<path class="st17" d="M1602.9,125.3l0.1,0.8c-0.2,0.1-0.5,0.1-0.7,0.1c-0.3,0-0.6-0.1-0.7-0.2s-0.3-0.2-0.4-0.4
			c-0.1-0.2-0.1-0.5-0.1-1v-3h-0.6v-0.7h0.6v-1.3l0.9-0.5v1.8h0.9v0.7h-0.9v3c0,0.3,0,0.4,0,0.5c0,0.1,0.1,0.1,0.2,0.2
			c0.1,0,0.2,0.1,0.3,0.1C1602.7,125.3,1602.8,125.3,1602.9,125.3z"/>
	</g>
	<g class="st5">
		<path class="st17" d="M1570,138.1v-7.2h5.2v0.8h-4.2v2.2h4v0.8h-4v2.4h4.4v0.8H1570z"/>
		<path class="st17" d="M1576.6,138.1v-7.2h0.9v7.2H1576.6z"/>
		<path class="st17" d="M1582.3,136.4l0.9,0.1c-0.1,0.5-0.4,0.9-0.8,1.2c-0.4,0.3-0.9,0.4-1.5,0.4c-0.8,0-1.4-0.2-1.8-0.7
			c-0.4-0.5-0.7-1.1-0.7-2c0-0.9,0.2-1.5,0.7-2s1-0.7,1.7-0.7c0.7,0,1.3,0.2,1.7,0.7s0.7,1.1,0.7,2c0,0.1,0,0.1,0,0.2h-3.9
			c0,0.6,0.2,1,0.5,1.3c0.3,0.3,0.7,0.5,1.1,0.5c0.3,0,0.6-0.1,0.8-0.3C1582,137.1,1582.2,136.8,1582.3,136.4z M1579.5,135h2.9
			c0-0.4-0.2-0.8-0.3-1c-0.3-0.3-0.6-0.5-1.1-0.5c-0.4,0-0.7,0.1-1,0.4C1579.6,134.2,1579.5,134.5,1579.5,135z"/>
		<path class="st17" d="M1585.8,138.1l-2-5.2h0.9l1.1,3.1c0.1,0.3,0.2,0.7,0.3,1c0.1-0.3,0.2-0.6,0.3-1l1.2-3.2h0.9l-2,5.2H1585.8z"
			/>
		<path class="st17" d="M1592.7,137.4c-0.3,0.3-0.6,0.5-0.9,0.6c-0.3,0.1-0.6,0.2-1,0.2c-0.6,0-1-0.1-1.3-0.4
			c-0.3-0.3-0.5-0.6-0.5-1.1c0-0.3,0.1-0.5,0.2-0.7c0.1-0.2,0.3-0.4,0.5-0.5c0.2-0.1,0.4-0.2,0.6-0.3c0.2,0,0.4-0.1,0.8-0.1
			c0.7-0.1,1.2-0.2,1.6-0.3c0-0.1,0-0.2,0-0.2c0-0.4-0.1-0.6-0.2-0.8c-0.2-0.2-0.6-0.3-1-0.3c-0.4,0-0.7,0.1-0.9,0.2
			c-0.2,0.1-0.3,0.4-0.4,0.8l-0.9-0.1c0.1-0.4,0.2-0.7,0.4-0.9c0.2-0.2,0.4-0.4,0.8-0.5c0.3-0.1,0.7-0.2,1.2-0.2
			c0.4,0,0.8,0.1,1.1,0.2c0.3,0.1,0.5,0.2,0.6,0.4c0.1,0.2,0.2,0.4,0.3,0.6c0,0.1,0,0.4,0,0.8v1.2c0,0.8,0,1.3,0.1,1.5
			c0,0.2,0.1,0.4,0.2,0.6h-0.9C1592.8,137.9,1592.8,137.7,1592.7,137.4z M1592.7,135.5c-0.3,0.1-0.8,0.2-1.4,0.3
			c-0.4,0.1-0.6,0.1-0.8,0.2c-0.2,0.1-0.3,0.2-0.3,0.3c-0.1,0.1-0.1,0.3-0.1,0.4c0,0.2,0.1,0.4,0.3,0.6c0.2,0.2,0.4,0.2,0.8,0.2
			c0.3,0,0.6-0.1,0.9-0.2c0.3-0.1,0.5-0.4,0.6-0.6c0.1-0.2,0.1-0.5,0.1-0.9V135.5z"/>
		<path class="st17" d="M1596.8,137.3l0.1,0.8c-0.2,0.1-0.5,0.1-0.7,0.1c-0.3,0-0.6-0.1-0.7-0.2s-0.3-0.2-0.4-0.4
			c-0.1-0.2-0.1-0.5-0.1-1v-3h-0.6v-0.7h0.6v-1.3l0.9-0.5v1.8h0.9v0.7h-0.9v3c0,0.3,0,0.4,0,0.5c0,0.1,0.1,0.1,0.2,0.2
			c0.1,0,0.2,0.1,0.3,0.1C1596.5,137.3,1596.7,137.3,1596.8,137.3z"/>
		<path class="st17" d="M1597.4,135.5c0-1,0.3-1.7,0.8-2.1c0.4-0.4,1-0.6,1.6-0.6c0.7,0,1.3,0.2,1.7,0.7c0.5,0.5,0.7,1.1,0.7,1.9
			c0,0.7-0.1,1.2-0.3,1.6c-0.2,0.4-0.5,0.7-0.9,0.9c-0.4,0.2-0.8,0.3-1.3,0.3c-0.7,0-1.3-0.2-1.8-0.7
			C1597.6,137,1597.4,136.4,1597.4,135.5z M1598.3,135.5c0,0.7,0.1,1.2,0.4,1.5c0.3,0.3,0.7,0.5,1.1,0.5c0.4,0,0.8-0.2,1.1-0.5
			c0.3-0.3,0.4-0.8,0.4-1.5c0-0.6-0.1-1.1-0.4-1.5c-0.3-0.3-0.7-0.5-1.1-0.5c-0.4,0-0.8,0.2-1.1,0.5
			C1598.4,134.3,1598.3,134.8,1598.3,135.5z"/>
		<path class="st17" d="M1603.2,138.1v-5.2h0.8v0.8c0.2-0.4,0.4-0.6,0.6-0.7s0.4-0.2,0.6-0.2c0.3,0,0.6,0.1,0.9,0.3l-0.3,0.8
			c-0.2-0.1-0.4-0.2-0.6-0.2c-0.2,0-0.4,0.1-0.5,0.2c-0.2,0.1-0.3,0.3-0.3,0.5c-0.1,0.3-0.1,0.7-0.1,1v2.7H1603.2z"/>
	</g>
	<g class="st5">
		<path class="st17" d="M873.8,376l0.9,0.2c-0.2,0.8-0.6,1.4-1.1,1.8c-0.5,0.4-1.1,0.6-1.9,0.6c-0.8,0-1.4-0.2-1.9-0.5
			c-0.5-0.3-0.9-0.8-1.1-1.4c-0.3-0.6-0.4-1.2-0.4-1.9c0-0.7,0.1-1.4,0.4-2c0.3-0.6,0.7-1,1.2-1.3c0.5-0.3,1.1-0.4,1.7-0.4
			c0.7,0,1.3,0.2,1.8,0.5s0.8,0.9,1,1.5l-0.9,0.2c-0.2-0.5-0.4-0.9-0.7-1.1c-0.3-0.2-0.7-0.4-1.2-0.4c-0.6,0-1,0.1-1.4,0.4
			c-0.4,0.3-0.6,0.6-0.8,1.1c-0.2,0.4-0.2,0.9-0.2,1.4c0,0.6,0.1,1.1,0.3,1.6c0.2,0.5,0.5,0.8,0.8,1c0.4,0.2,0.8,0.3,1.2,0.3
			c0.5,0,1-0.2,1.3-0.5C873.4,377.1,873.7,376.6,873.8,376z"/>
		<path class="st17" d="M879.2,377.9c-0.3,0.3-0.6,0.5-0.9,0.6c-0.3,0.1-0.6,0.2-1,0.2c-0.6,0-1-0.1-1.3-0.4
			c-0.3-0.3-0.5-0.6-0.5-1.1c0-0.3,0.1-0.5,0.2-0.7c0.1-0.2,0.3-0.4,0.5-0.5c0.2-0.1,0.4-0.2,0.6-0.3c0.2,0,0.4-0.1,0.8-0.1
			c0.7-0.1,1.2-0.2,1.6-0.3c0-0.1,0-0.2,0-0.2c0-0.4-0.1-0.6-0.2-0.8c-0.2-0.2-0.6-0.3-1-0.3c-0.4,0-0.7,0.1-0.9,0.2
			c-0.2,0.1-0.3,0.4-0.4,0.8l-0.9-0.1c0.1-0.4,0.2-0.7,0.4-0.9c0.2-0.2,0.4-0.4,0.8-0.5c0.3-0.1,0.7-0.2,1.2-0.2
			c0.4,0,0.8,0.1,1.1,0.2c0.3,0.1,0.5,0.2,0.6,0.4c0.1,0.2,0.2,0.4,0.3,0.6c0,0.1,0,0.4,0,0.8v1.2c0,0.8,0,1.3,0.1,1.5
			c0,0.2,0.1,0.4,0.2,0.6h-0.9C879.3,378.4,879.2,378.1,879.2,377.9z M879.1,375.9c-0.3,0.1-0.8,0.2-1.4,0.3
			c-0.4,0.1-0.6,0.1-0.8,0.2c-0.2,0.1-0.3,0.2-0.3,0.3c-0.1,0.1-0.1,0.3-0.1,0.4c0,0.2,0.1,0.4,0.3,0.6c0.2,0.2,0.4,0.2,0.8,0.2
			c0.3,0,0.6-0.1,0.9-0.2c0.3-0.1,0.5-0.4,0.6-0.6c0.1-0.2,0.1-0.5,0.1-0.9V375.9z"/>
		<path class="st17" d="M881,377l0.9-0.1c0,0.3,0.2,0.6,0.4,0.8c0.2,0.2,0.5,0.3,0.9,0.3c0.4,0,0.7-0.1,0.9-0.2
			c0.2-0.2,0.3-0.4,0.3-0.6c0-0.2-0.1-0.4-0.3-0.5c-0.1-0.1-0.4-0.2-0.9-0.3c-0.6-0.2-1.1-0.3-1.3-0.4c-0.2-0.1-0.4-0.3-0.6-0.5
			c-0.1-0.2-0.2-0.4-0.2-0.7c0-0.2,0.1-0.4,0.2-0.6c0.1-0.2,0.2-0.4,0.4-0.5c0.1-0.1,0.3-0.2,0.6-0.3c0.2-0.1,0.5-0.1,0.8-0.1
			c0.4,0,0.8,0.1,1.1,0.2s0.5,0.3,0.7,0.5c0.1,0.2,0.2,0.5,0.3,0.8l-0.9,0.1c0-0.3-0.2-0.5-0.3-0.6c-0.2-0.1-0.5-0.2-0.8-0.2
			c-0.4,0-0.7,0.1-0.9,0.2c-0.2,0.1-0.3,0.3-0.3,0.5c0,0.1,0,0.2,0.1,0.3c0.1,0.1,0.2,0.2,0.3,0.2c0.1,0,0.3,0.1,0.8,0.2
			c0.6,0.2,1.1,0.3,1.3,0.4c0.2,0.1,0.4,0.3,0.6,0.5c0.1,0.2,0.2,0.5,0.2,0.8c0,0.3-0.1,0.6-0.3,0.8c-0.2,0.3-0.4,0.5-0.7,0.6
			c-0.3,0.1-0.7,0.2-1.1,0.2c-0.7,0-1.2-0.1-1.5-0.4C881.3,378,881.1,377.5,881,377z"/>
		<path class="st17" d="M889.8,378.5v-0.8c-0.4,0.6-1,0.9-1.6,0.9c-0.3,0-0.6-0.1-0.9-0.2c-0.3-0.1-0.5-0.3-0.6-0.4
			c-0.1-0.2-0.2-0.4-0.3-0.7c0-0.2-0.1-0.4-0.1-0.8v-3.2h0.9v2.9c0,0.5,0,0.8,0.1,0.9c0.1,0.2,0.2,0.4,0.4,0.5
			c0.2,0.1,0.4,0.2,0.7,0.2s0.5-0.1,0.7-0.2c0.2-0.1,0.4-0.3,0.5-0.6c0.1-0.2,0.1-0.6,0.1-1v-2.8h0.9v5.2H889.8z"/>
		<path class="st17" d="M895.3,377.9c-0.3,0.3-0.6,0.5-0.9,0.6c-0.3,0.1-0.6,0.2-1,0.2c-0.6,0-1-0.1-1.3-0.4
			c-0.3-0.3-0.5-0.6-0.5-1.1c0-0.3,0.1-0.5,0.2-0.7c0.1-0.2,0.3-0.4,0.5-0.5c0.2-0.1,0.4-0.2,0.6-0.3c0.2,0,0.4-0.1,0.8-0.1
			c0.7-0.1,1.2-0.2,1.6-0.3c0-0.1,0-0.2,0-0.2c0-0.4-0.1-0.6-0.2-0.8c-0.2-0.2-0.6-0.3-1-0.3c-0.4,0-0.7,0.1-0.9,0.2
			c-0.2,0.1-0.3,0.4-0.4,0.8l-0.9-0.1c0.1-0.4,0.2-0.7,0.4-0.9c0.2-0.2,0.4-0.4,0.8-0.5c0.3-0.1,0.7-0.2,1.2-0.2
			c0.4,0,0.8,0.1,1.1,0.2c0.3,0.1,0.5,0.2,0.6,0.4c0.1,0.2,0.2,0.4,0.3,0.6c0,0.1,0,0.4,0,0.8v1.2c0,0.8,0,1.3,0.1,1.5
			c0,0.2,0.1,0.4,0.2,0.6h-0.9C895.4,378.4,895.3,378.1,895.3,377.9z M895.2,375.9c-0.3,0.1-0.8,0.2-1.4,0.3
			c-0.4,0.1-0.6,0.1-0.8,0.2c-0.2,0.1-0.3,0.2-0.3,0.3c-0.1,0.1-0.1,0.3-0.1,0.4c0,0.2,0.1,0.4,0.3,0.6c0.2,0.2,0.4,0.2,0.8,0.2
			c0.3,0,0.6-0.1,0.9-0.2c0.3-0.1,0.5-0.4,0.6-0.6c0.1-0.2,0.1-0.5,0.1-0.9V375.9z"/>
		<path class="st17" d="M897.5,378.5v-7.2h0.9v7.2H897.5z"/>
	</g>
	<g class="st5">
		<path class="st17" d="M872.6,390.5v-7.2h1l3.8,5.6v-5.6h0.9v7.2h-1l-3.8-5.6v5.6H872.6z"/>
		<path class="st17" d="M879.4,387.9c0-1,0.3-1.7,0.8-2.1c0.4-0.4,1-0.6,1.6-0.6c0.7,0,1.3,0.2,1.7,0.7c0.5,0.5,0.7,1.1,0.7,1.9
			c0,0.7-0.1,1.2-0.3,1.6c-0.2,0.4-0.5,0.7-0.9,0.9c-0.4,0.2-0.8,0.3-1.3,0.3c-0.7,0-1.3-0.2-1.8-0.7
			C879.6,389.5,879.4,388.8,879.4,387.9z M880.3,387.9c0,0.7,0.1,1.2,0.4,1.5c0.3,0.3,0.7,0.5,1.1,0.5c0.4,0,0.8-0.2,1.1-0.5
			c0.3-0.3,0.4-0.8,0.4-1.5c0-0.6-0.1-1.1-0.4-1.5c-0.3-0.3-0.7-0.5-1.1-0.5c-0.4,0-0.8,0.2-1.1,0.5
			C880.4,386.8,880.3,387.3,880.3,387.9z"/>
		<path class="st17" d="M884.9,387.9c0-1,0.3-1.7,0.8-2.1c0.4-0.4,1-0.6,1.6-0.6c0.7,0,1.3,0.2,1.7,0.7c0.5,0.5,0.7,1.1,0.7,1.9
			c0,0.7-0.1,1.2-0.3,1.6c-0.2,0.4-0.5,0.7-0.9,0.9c-0.4,0.2-0.8,0.3-1.3,0.3c-0.7,0-1.3-0.2-1.8-0.7
			C885.1,389.5,884.9,388.8,884.9,387.9z M885.8,387.9c0,0.7,0.1,1.2,0.4,1.5c0.3,0.3,0.7,0.5,1.1,0.5c0.4,0,0.8-0.2,1.1-0.5
			c0.3-0.3,0.4-0.8,0.4-1.5c0-0.6-0.1-1.1-0.4-1.5c-0.3-0.3-0.7-0.5-1.1-0.5c-0.4,0-0.8,0.2-1.1,0.5
			C886,386.8,885.8,387.3,885.8,387.9z"/>
		<path class="st17" d="M890.8,390.5v-7.2h0.9v4.1l2.1-2.1h1.1l-2,1.9l2.2,3.3H894l-1.7-2.7l-0.6,0.6v2.1H890.8z"/>
	</g>
	<g class="st5">
		<path class="st17" d="M564.7,146.8c0-1.2,0.3-2.1,1-2.8c0.6-0.7,1.5-1,2.5-1c0.7,0,1.3,0.2,1.8,0.5s0.9,0.8,1.2,1.3
			c0.3,0.6,0.4,1.2,0.4,1.9c0,0.7-0.1,1.4-0.4,1.9s-0.7,1-1.2,1.3c-0.5,0.3-1.1,0.4-1.7,0.4c-0.7,0-1.3-0.2-1.8-0.5
			s-0.9-0.8-1.2-1.3S564.7,147.4,564.7,146.8z M565.7,146.8c0,0.9,0.2,1.5,0.7,2c0.5,0.5,1,0.7,1.7,0.7c0.7,0,1.3-0.3,1.8-0.8
			s0.7-1.2,0.7-2.1c0-0.6-0.1-1.1-0.3-1.5c-0.2-0.4-0.5-0.8-0.9-1c-0.4-0.2-0.8-0.4-1.3-0.4c-0.7,0-1.2,0.2-1.7,0.7
			C565.9,145,565.7,145.7,565.7,146.8z"/>
	</g>
	<g class="st5">
		<path class="st17" d="M572.8,150.3v-4.5h-0.8v-0.7h0.8v-0.6c0-0.3,0-0.6,0.1-0.8c0.1-0.2,0.2-0.4,0.4-0.6c0.2-0.1,0.5-0.2,0.9-0.2
			c0.2,0,0.5,0,0.8,0.1l-0.1,0.8c-0.2,0-0.4,0-0.5,0c-0.3,0-0.5,0.1-0.6,0.2s-0.2,0.3-0.2,0.6v0.5h1v0.7h-1v4.5H572.8z"/>
	</g>
	<g class="st5">
		<path class="st17" d="M575.4,150.3v-4.5h-0.8v-0.7h0.8v-0.6c0-0.3,0-0.6,0.1-0.8c0.1-0.2,0.2-0.4,0.4-0.6c0.2-0.1,0.5-0.2,0.9-0.2
			c0.2,0,0.5,0,0.8,0.1l-0.1,0.8c-0.2,0-0.4,0-0.5,0c-0.3,0-0.5,0.1-0.6,0.2s-0.2,0.3-0.2,0.6v0.5h1v0.7h-1v4.5H575.4z"/>
		<path class="st17" d="M578,144.1v-1h0.9v1H578z M578,150.3v-5.2h0.9v5.2H578z"/>
		<path class="st17" d="M583.6,148.4l0.9,0.1c-0.1,0.6-0.3,1.1-0.7,1.4c-0.4,0.3-0.9,0.5-1.4,0.5c-0.7,0-1.3-0.2-1.7-0.7
			c-0.4-0.5-0.6-1.1-0.6-2c0-0.6,0.1-1,0.3-1.5s0.5-0.7,0.8-0.9c0.4-0.2,0.8-0.3,1.2-0.3c0.6,0,1,0.1,1.4,0.4
			c0.4,0.3,0.6,0.7,0.7,1.2l-0.9,0.1c-0.1-0.3-0.2-0.6-0.4-0.8s-0.5-0.3-0.7-0.3c-0.4,0-0.8,0.2-1.1,0.5c-0.3,0.3-0.4,0.8-0.4,1.5
			c0,0.7,0.1,1.2,0.4,1.5s0.6,0.5,1,0.5c0.3,0,0.6-0.1,0.9-0.3S583.5,148.8,583.6,148.4z"/>
		<path class="st17" d="M588.8,148.6l0.9,0.1c-0.1,0.5-0.4,0.9-0.8,1.2s-0.9,0.4-1.5,0.4c-0.8,0-1.4-0.2-1.8-0.7
			c-0.4-0.5-0.7-1.1-0.7-2c0-0.9,0.2-1.5,0.7-2s1-0.7,1.7-0.7c0.7,0,1.3,0.2,1.7,0.7s0.7,1.1,0.7,2c0,0.1,0,0.1,0,0.2h-3.9
			c0,0.6,0.2,1,0.5,1.3s0.7,0.5,1.1,0.5c0.3,0,0.6-0.1,0.8-0.3S588.6,149,588.8,148.6z M585.9,147.2h2.9c0-0.4-0.1-0.8-0.3-1
			c-0.3-0.3-0.6-0.5-1.1-0.5c-0.4,0-0.7,0.1-1,0.4S585.9,146.7,585.9,147.2z"/>
	</g>
	<g class="st5">
		<path class="st17" d="M562.3,160l0.9-0.1c0,0.4,0.1,0.7,0.3,0.9c0.2,0.2,0.4,0.4,0.7,0.6c0.3,0.1,0.7,0.2,1.1,0.2
			c0.4,0,0.7-0.1,1-0.2s0.5-0.3,0.6-0.4c0.1-0.2,0.2-0.4,0.2-0.6c0-0.2-0.1-0.4-0.2-0.6c-0.1-0.2-0.3-0.3-0.6-0.4
			c-0.2-0.1-0.6-0.2-1.3-0.3c-0.7-0.2-1.1-0.3-1.4-0.4c-0.3-0.2-0.6-0.4-0.8-0.7c-0.2-0.3-0.3-0.6-0.3-0.9c0-0.4,0.1-0.7,0.3-1
			c0.2-0.3,0.5-0.6,0.9-0.7s0.8-0.2,1.3-0.2c0.5,0,1,0.1,1.4,0.3c0.4,0.2,0.7,0.4,0.9,0.8s0.3,0.7,0.4,1.1l-0.9,0.1
			c0-0.5-0.2-0.8-0.5-1s-0.7-0.3-1.2-0.3c-0.6,0-1,0.1-1.3,0.3c-0.3,0.2-0.4,0.5-0.4,0.8c0,0.3,0.1,0.5,0.3,0.6
			c0.2,0.2,0.7,0.3,1.4,0.5c0.8,0.2,1.3,0.3,1.6,0.5c0.4,0.2,0.7,0.4,0.9,0.7c0.2,0.3,0.3,0.6,0.3,1c0,0.4-0.1,0.7-0.3,1.1
			c-0.2,0.3-0.5,0.6-0.9,0.8c-0.4,0.2-0.9,0.3-1.4,0.3c-0.6,0-1.2-0.1-1.6-0.3s-0.8-0.5-1-0.9C562.5,160.9,562.3,160.5,562.3,160z"
			/>
		<path class="st17" d="M572.6,162.3v-0.8c-0.4,0.6-1,0.9-1.6,0.9c-0.3,0-0.6-0.1-0.9-0.2s-0.5-0.3-0.6-0.4
			c-0.1-0.2-0.2-0.4-0.3-0.7c0-0.2-0.1-0.4-0.1-0.8v-3.2h0.9v2.9c0,0.5,0,0.8,0.1,0.9c0.1,0.2,0.2,0.4,0.4,0.5
			c0.2,0.1,0.4,0.2,0.7,0.2s0.5-0.1,0.7-0.2c0.2-0.1,0.4-0.3,0.5-0.6c0.1-0.2,0.1-0.6,0.1-1v-2.8h0.9v5.2H572.6z"/>
		<path class="st17" d="M574.8,164.3v-7.2h0.8v0.7c0.2-0.3,0.4-0.5,0.6-0.6c0.2-0.1,0.5-0.2,0.9-0.2c0.4,0,0.8,0.1,1.2,0.3
			s0.6,0.5,0.8,1c0.2,0.4,0.3,0.9,0.3,1.4c0,0.5-0.1,1-0.3,1.4c-0.2,0.4-0.5,0.8-0.8,1c-0.4,0.2-0.7,0.3-1.1,0.3
			c-0.3,0-0.6-0.1-0.8-0.2s-0.4-0.3-0.6-0.5v2.5H574.8z M575.6,159.7c0,0.7,0.1,1.2,0.4,1.5s0.6,0.5,1,0.5c0.4,0,0.7-0.2,1-0.5
			c0.3-0.3,0.4-0.8,0.4-1.5c0-0.7-0.1-1.2-0.4-1.5s-0.6-0.5-1-0.5c-0.4,0-0.7,0.2-1,0.5C575.7,158.5,575.6,159,575.6,159.7z"/>
		<path class="st17" d="M580.3,164.3v-7.2h0.8v0.7c0.2-0.3,0.4-0.5,0.6-0.6c0.2-0.1,0.5-0.2,0.9-0.2c0.4,0,0.8,0.1,1.2,0.3
			s0.6,0.5,0.8,1c0.2,0.4,0.3,0.9,0.3,1.4c0,0.5-0.1,1-0.3,1.4c-0.2,0.4-0.5,0.8-0.8,1c-0.4,0.2-0.7,0.3-1.1,0.3
			c-0.3,0-0.6-0.1-0.8-0.2s-0.4-0.3-0.6-0.5v2.5H580.3z M581.1,159.7c0,0.7,0.1,1.2,0.4,1.5s0.6,0.5,1,0.5c0.4,0,0.7-0.2,1-0.5
			c0.3-0.3,0.4-0.8,0.4-1.5c0-0.7-0.1-1.2-0.4-1.5s-0.6-0.5-1-0.5c-0.4,0-0.7,0.2-1,0.5C581.3,158.5,581.1,159,581.1,159.7z"/>
		<path class="st17" d="M585.9,162.3v-7.2h0.9v7.2H585.9z"/>
		<path class="st17" d="M588.1,164.3l-0.1-0.8c0.2,0.1,0.4,0.1,0.5,0.1c0.2,0,0.4,0,0.5-0.1s0.2-0.2,0.3-0.3
			c0.1-0.1,0.1-0.3,0.3-0.7c0,0,0-0.1,0.1-0.2l-2-5.2h0.9l1.1,3c0.1,0.4,0.3,0.8,0.4,1.2c0.1-0.4,0.2-0.8,0.4-1.2l1.1-3h0.9l-2,5.3
			c-0.2,0.6-0.4,1-0.5,1.2c-0.2,0.3-0.3,0.5-0.5,0.6c-0.2,0.1-0.4,0.2-0.7,0.2C588.5,164.4,588.3,164.3,588.1,164.3z"/>
	</g>
	<g class="st5">
		<path class="st17" d="M568.9,171.8l0.9,0.2c-0.2,0.8-0.6,1.4-1.1,1.8c-0.5,0.4-1.1,0.6-1.9,0.6c-0.8,0-1.4-0.2-1.9-0.5
			c-0.5-0.3-0.9-0.8-1.1-1.4c-0.3-0.6-0.4-1.2-0.4-1.9c0-0.7,0.1-1.4,0.4-2c0.3-0.6,0.7-1,1.2-1.3c0.5-0.3,1.1-0.4,1.7-0.4
			c0.7,0,1.3,0.2,1.8,0.5s0.8,0.9,1,1.5l-0.9,0.2c-0.2-0.5-0.4-0.9-0.7-1.1c-0.3-0.2-0.7-0.4-1.2-0.4c-0.6,0-1,0.1-1.4,0.4
			c-0.4,0.3-0.6,0.6-0.8,1.1c-0.2,0.4-0.2,0.9-0.2,1.4c0,0.6,0.1,1.1,0.3,1.6c0.2,0.5,0.5,0.8,0.8,1c0.4,0.2,0.8,0.3,1.2,0.3
			c0.5,0,1-0.2,1.3-0.5C568.5,172.8,568.7,172.4,568.9,171.8z"/>
		<path class="st17" d="M570.8,174.3v-7.2h0.9v7.2H570.8z"/>
		<path class="st17" d="M572.8,171.7c0-1,0.3-1.7,0.8-2.1c0.4-0.4,1-0.6,1.6-0.6c0.7,0,1.3,0.2,1.7,0.7c0.5,0.5,0.7,1.1,0.7,1.9
			c0,0.7-0.1,1.2-0.3,1.6c-0.2,0.4-0.5,0.7-0.9,0.9c-0.4,0.2-0.8,0.3-1.3,0.3c-0.7,0-1.3-0.2-1.8-0.7
			C573,173.2,572.8,172.6,572.8,171.7z M573.7,171.7c0,0.7,0.1,1.2,0.4,1.5c0.3,0.3,0.7,0.5,1.1,0.5c0.4,0,0.8-0.2,1.1-0.5
			c0.3-0.3,0.4-0.8,0.4-1.5c0-0.6-0.1-1.1-0.4-1.5c-0.3-0.3-0.7-0.5-1.1-0.5c-0.4,0-0.8,0.2-1.1,0.5
			C573.8,170.5,573.7,171,573.7,171.7z"/>
		<path class="st17" d="M578.3,172.7l0.9-0.1c0,0.3,0.2,0.6,0.4,0.8c0.2,0.2,0.5,0.3,0.9,0.3c0.4,0,0.7-0.1,0.9-0.2
			c0.2-0.2,0.3-0.4,0.3-0.6c0-0.2-0.1-0.4-0.3-0.5c-0.1-0.1-0.4-0.2-0.9-0.3c-0.6-0.2-1.1-0.3-1.3-0.4c-0.2-0.1-0.4-0.3-0.6-0.5
			c-0.1-0.2-0.2-0.4-0.2-0.7c0-0.2,0.1-0.4,0.2-0.6c0.1-0.2,0.2-0.4,0.4-0.5c0.1-0.1,0.3-0.2,0.6-0.3c0.2-0.1,0.5-0.1,0.8-0.1
			c0.4,0,0.8,0.1,1.1,0.2s0.5,0.3,0.7,0.5c0.1,0.2,0.2,0.5,0.3,0.8l-0.9,0.1c0-0.3-0.2-0.5-0.3-0.6c-0.2-0.1-0.5-0.2-0.8-0.2
			c-0.4,0-0.7,0.1-0.9,0.2c-0.2,0.1-0.3,0.3-0.3,0.5c0,0.1,0,0.2,0.1,0.3c0.1,0.1,0.2,0.2,0.3,0.2c0.1,0,0.3,0.1,0.8,0.2
			c0.6,0.2,1.1,0.3,1.3,0.4c0.2,0.1,0.4,0.3,0.6,0.5c0.1,0.2,0.2,0.5,0.2,0.8c0,0.3-0.1,0.6-0.3,0.8c-0.2,0.3-0.4,0.5-0.7,0.6
			c-0.3,0.1-0.7,0.2-1.1,0.2c-0.7,0-1.2-0.1-1.5-0.4C578.6,173.7,578.4,173.3,578.3,172.7z"/>
		<path class="st17" d="M587.2,172.6l0.9,0.1c-0.1,0.5-0.4,0.9-0.8,1.2c-0.4,0.3-0.9,0.4-1.5,0.4c-0.8,0-1.4-0.2-1.8-0.7
			c-0.4-0.5-0.7-1.1-0.7-2c0-0.9,0.2-1.5,0.7-2s1-0.7,1.7-0.7c0.7,0,1.3,0.2,1.7,0.7s0.7,1.1,0.7,2c0,0.1,0,0.1,0,0.2h-3.9
			c0,0.6,0.2,1,0.5,1.3c0.3,0.3,0.7,0.5,1.1,0.5c0.3,0,0.6-0.1,0.8-0.3C586.9,173.2,587.1,173,587.2,172.6z M584.3,171.2h2.9
			c0-0.4-0.2-0.8-0.3-1c-0.3-0.3-0.6-0.5-1.1-0.5c-0.4,0-0.7,0.1-1,0.4C584.5,170.4,584.3,170.7,584.3,171.2z"/>
		<path class="st17" d="M591.1,173.5l0.1,0.8c-0.2,0.1-0.5,0.1-0.7,0.1c-0.3,0-0.6-0.1-0.7-0.2s-0.3-0.2-0.4-0.4
			c-0.1-0.2-0.1-0.5-0.1-1v-3h-0.6v-0.7h0.6v-1.3l0.9-0.5v1.8h0.9v0.7h-0.9v3c0,0.3,0,0.4,0,0.5c0,0.1,0.1,0.1,0.2,0.2
			c0.1,0,0.2,0.1,0.3,0.1C590.8,173.5,591,173.5,591.1,173.5z"/>
	</g>
	<circle class="st16" cx="775.5" cy="387.2" r="20.2"/>
	<path class="st17" d="M748.8,422.6v-8h5.9v1h-4.8v2.5h4.4v1h-4.4v2.7h4.9v1L748.8,422.6z"/>
	<path class="st17" d="M756.1,422.6v-8h1v8H756.1z"/>
	<path class="st17" d="M762.6,420.6l1,0.1c-0.1,0.6-0.4,1.1-0.9,1.4c-1.2,0.8-2.7,0.6-3.7-0.3c-0.5-0.6-0.8-1.4-0.8-2.2
		c0-0.8,0.2-1.6,0.8-2.3c0.5-0.6,1.2-0.8,2-0.8c0.7,0,1.4,0.2,2,0.8c0.5,0.6,0.8,1.5,0.8,2.3v0.2h-4.3c0,0.6,0.2,1.1,0.5,1.5
		c0.6,0.6,1.5,0.7,2.2,0.2C762.3,421.3,762.5,421,762.6,420.6z M759.4,419.1h3.3c0-0.4-0.1-0.8-0.3-1.1c-0.3-0.3-0.7-0.5-1.2-0.5
		c-0.4,0-0.9,0.1-1.2,0.4C759.5,418.2,759.3,418.6,759.4,419.1L759.4,419.1z"/>
	<path class="st17" d="M766.5,422.6l-2.2-5.9h1.1l1.3,3.5c0.1,0.3,0.2,0.8,0.3,1.2c0.1-0.3,0.2-0.6,0.3-1.1l1.3-3.6h1l-2.2,5.9
		L766.5,422.6z"/>
	<path class="st17" d="M774.2,421.8c-0.3,0.3-0.7,0.5-1.1,0.6c-0.3,0.1-0.7,0.2-1.1,0.2c-0.5,0-1.1-0.1-1.5-0.4
		c-0.3-0.3-0.5-0.7-0.5-1.2c0-0.5,0.2-1,0.7-1.3c0.2-0.1,0.5-0.2,0.8-0.3c0.3-0.1,0.6-0.1,0.9-0.1c0.5-0.1,1.2-0.2,1.7-0.3v-0.2
		c0-0.3-0.1-0.6-0.3-0.9c-0.3-0.2-0.7-0.3-1.1-0.3c-0.3,0-0.7,0.1-1,0.2c-0.2,0.2-0.4,0.5-0.5,0.9l-1-0.1c0.1-0.3,0.2-0.7,0.4-1
		c0.2-0.3,0.5-0.5,0.9-0.5c0.4-0.1,0.9-0.2,1.3-0.2c0.4,0,0.8,0,1.2,0.2c0.2,0.1,0.5,0.2,0.7,0.4l0.3,0.7c0,0.3,0.1,0.6,0,0.9v1.3
		c0,0.6,0,1.2,0.1,1.7c0,0.2,0.1,0.5,0.2,0.6h-1C774.3,422.4,774.3,422.1,774.2,421.8z M774.2,419.6c-0.5,0.2-1.1,0.3-1.6,0.3
		c-0.3,0-0.6,0.1-0.9,0.2c-0.1,0.1-0.3,0.2-0.4,0.3c-0.2,0.3-0.2,0.8,0.1,1.1c0.2,0.2,0.6,0.3,0.9,0.2c0.3,0,0.7-0.1,1-0.2
		c0.3-0.1,0.5-0.4,0.7-0.7c0.1-0.3,0.2-0.6,0.1-1L774.2,419.6z"/>
	<path class="st17" d="M778.9,421.6l0.1,0.9c-0.2,0.1-0.5,0.1-0.8,0.1c-0.3,0-0.6,0-0.9-0.2c-0.2-0.1-0.3-0.2-0.4-0.4
		c-0.1-0.4-0.1-0.8-0.1-1.2v-3.4h-0.8v-0.8h0.8v-1.4l1-0.5v2.1h1v0.8h-1v3.9c0,0.1,0.1,0.1,0.2,0.2c0.1,0,0.2,0.1,0.3,0.1
		C778.5,421.7,778.7,421.7,778.9,421.6z"/>
	<path class="st17" d="M779.4,419.6c-0.1-0.9,0.2-1.8,0.9-2.4c0.5-0.4,1.2-0.6,1.8-0.6c0.7,0,1.4,0.2,2,0.8c0.5,0.6,0.8,1.4,0.8,2.2
		c0,0.6-0.1,1.2-0.3,1.7c-0.2,0.4-0.6,0.8-1,1c-0.4,0.2-0.9,0.3-1.4,0.3c-0.7,0-1.4-0.2-2-0.8C779.7,421.2,779.4,420.4,779.4,419.6z
		 M780.5,419.6c0,0.6,0.1,1.1,0.4,1.6c0.6,0.7,1.6,0.7,2.2,0.2c0,0,0,0,0.1-0.1l0.1-0.1c0.4-0.5,0.5-1.1,0.4-1.7
		c0-0.6-0.2-1.2-0.5-1.6c-0.6-0.7-1.6-0.7-2.2-0.2c0,0,0,0-0.1,0.1l-0.1,0.1C780.6,418.4,780.4,419,780.5,419.6L780.5,419.6z"/>
	<path class="st17" d="M786,422.6v-5.9h0.9v0.9c0.1-0.3,0.4-0.6,0.7-0.9c0.2-0.1,0.4-0.2,0.7-0.2c0.4,0,0.7,0.1,1,0.3l-0.3,0.9
		c-0.2-0.1-0.5-0.2-0.8-0.2c-0.2,0-0.4,0.1-0.5,0.2c-0.2,0.1-0.3,0.3-0.3,0.5c-0.1,0.4-0.2,0.8-0.2,1.2v3h-1L786,422.6z"/>
	<path class="st17" d="M792.2,422.6l2.2-3l-2-2.8h1.2l0.9,1.4c0.2,0.2,0.3,0.4,0.4,0.6c0.1-0.2,0.3-0.4,0.4-0.6l1-1.4h1.2l-2.1,2.7
		l2.2,3h-1.2l-1.2-1.8l-0.3-0.5l-1.5,2.3L792.2,422.6z"/>
	<path class="st17" d="M802,422.6h-1v-6.3c-0.3,0.3-0.6,0.5-1,0.6c-0.4,0.2-0.7,0.4-1.1,0.5v-1c0.5-0.2,1-0.6,1.4-1
		c0.3-0.3,0.6-0.7,0.9-1.1h0.7L802,422.6L802,422.6z"/>
	<path class="st19" d="M766.9,377.8h17.9c0.3,0,0.6,0.3,0.7,0.6c0,0,0,0,0,0.1v17.9c0,0.3-0.3,0.6-0.6,0.7c0,0,0,0-0.1,0h-17.9
		c-0.3,0-0.6-0.3-0.7-0.6c0,0,0,0,0-0.1v-17.9C766.3,378.1,766.6,377.8,766.9,377.8z"/>
	<rect x="770.2" y="382.2" class="st19" width="5" height="14.6"/>
	<rect x="775.2" y="382.2" class="st19" width="5" height="14.6"/>
	<line class="st19" x1="774.2" y1="380" x2="777.7" y2="380"/>
	<polyline class="st20" points="782.1,387.9 783,387 784,387.9 	"/>
	<polyline class="st20" points="782.1,389.1 783,389.9 784,389.1 	"/>
	<circle class="st16" cx="865.9" cy="244.9" r="18.6"/>
	<path class="st21" d="M873.1,243.2c1.3-0.2,2.5,0.7,2.7,2c0,0,0,0,0,0v0.6c0,3-3.8,3.1-3.8,3.1"/>
	<path class="st21" d="M868.3,234.9c0.5,0.5,0.5,1.3,0.1,1.9l0,0c-0.4,0.6-0.4,1.3,0,1.9"/>
	<path class="st21" d="M865,234.9c0.5,0.5,0.5,1.3,0.1,1.9l0,0c-0.4,0.6-0.4,1.3,0,1.9"/>
	<path class="st21" d="M861.7,234.9c0.5,0.5,0.5,1.3,0.1,1.9l0,0c-0.4,0.6-0.4,1.3,0,1.9"/>
	<path class="st21" d="M869.5,253.9h-7.6c-1.8,0-3.5-0.6-4.9-1.7h17.5C873,253.2,871.2,253.8,869.5,253.9z"/>
	<path class="st21" d="M868.8,251.8c1.6-1,2.7-2.6,3-4.5l0.9-5.5h-14.6l0.9,5.5c0.4,1.8,1.5,3.4,3,4.5"/>
	<g class="st5">
		<path class="st17" d="M849.1,276.3v-7.2h0.9v3.5l3.6-3.5h1.3l-3,2.9l3.1,4.3h-1.2l-2.5-3.6l-1.2,1.1v2.5H849.1z"/>
		<path class="st17" d="M855.7,270.2v-1h0.9v1H855.7z M855.7,276.3v-5.2h0.9v5.2H855.7z"/>
		<path class="st17" d="M859.8,275.5l0.1,0.8c-0.2,0.1-0.5,0.1-0.7,0.1c-0.3,0-0.6-0.1-0.7-0.2s-0.3-0.2-0.4-0.4
			c-0.1-0.2-0.1-0.5-0.1-1v-3h-0.6v-0.7h0.6v-1.3l0.9-0.5v1.8h0.9v0.7H859v3c0,0.3,0,0.4,0,0.5c0,0.1,0.1,0.1,0.2,0.2
			c0.1,0,0.2,0.1,0.3,0.1C859.6,275.6,859.7,275.6,859.8,275.5z"/>
		<path class="st17" d="M864.1,274.4l0.9,0.1c-0.1,0.6-0.3,1.1-0.7,1.4c-0.4,0.3-0.9,0.5-1.4,0.5c-0.7,0-1.3-0.2-1.7-0.7
			c-0.4-0.5-0.6-1.1-0.6-2c0-0.6,0.1-1,0.3-1.5s0.5-0.7,0.8-0.9c0.4-0.2,0.8-0.3,1.2-0.3c0.6,0,1,0.1,1.4,0.4
			c0.4,0.3,0.6,0.7,0.7,1.2l-0.9,0.1c-0.1-0.3-0.2-0.6-0.4-0.8c-0.2-0.2-0.5-0.3-0.8-0.3c-0.4,0-0.8,0.2-1.1,0.5
			c-0.3,0.3-0.4,0.8-0.4,1.5c0,0.7,0.1,1.2,0.4,1.5s0.6,0.5,1,0.5c0.3,0,0.6-0.1,0.9-0.3S864,274.9,864.1,274.4z"/>
		<path class="st17" d="M865.7,276.3v-7.2h0.9v2.6c0.4-0.5,0.9-0.7,1.6-0.7c0.4,0,0.7,0.1,1,0.2c0.3,0.2,0.5,0.4,0.6,0.6
			c0.1,0.3,0.2,0.7,0.2,1.2v3.3H869V273c0-0.4-0.1-0.8-0.3-1c-0.2-0.2-0.5-0.3-0.8-0.3c-0.3,0-0.5,0.1-0.7,0.2
			c-0.2,0.1-0.4,0.3-0.5,0.5s-0.1,0.5-0.1,1v2.8H865.7z"/>
		<path class="st17" d="M874.8,274.6l0.9,0.1c-0.1,0.5-0.4,0.9-0.8,1.2s-0.9,0.4-1.5,0.4c-0.8,0-1.4-0.2-1.8-0.7
			c-0.4-0.5-0.7-1.1-0.7-2c0-0.9,0.2-1.5,0.7-2s1-0.7,1.7-0.7c0.7,0,1.3,0.2,1.7,0.7s0.7,1.1,0.7,2c0,0.1,0,0.1,0,0.2h-3.9
			c0,0.6,0.2,1,0.5,1.3s0.7,0.5,1.1,0.5c0.3,0,0.6-0.1,0.8-0.3S874.7,275,874.8,274.6z M871.9,273.2h2.9c0-0.4-0.2-0.8-0.3-1
			c-0.3-0.3-0.6-0.5-1.1-0.5c-0.4,0-0.7,0.1-1,0.4C872.1,272.4,872,272.8,871.9,273.2z"/>
		<path class="st17" d="M876.8,276.3v-5.2h0.8v0.7c0.4-0.6,0.9-0.9,1.7-0.9c0.3,0,0.6,0.1,0.9,0.2c0.3,0.1,0.5,0.3,0.6,0.4
			s0.2,0.4,0.3,0.6c0,0.2,0,0.4,0,0.9v3.2h-0.9v-3.2c0-0.4,0-0.6-0.1-0.8c-0.1-0.2-0.2-0.3-0.4-0.4c-0.2-0.1-0.4-0.2-0.6-0.2
			c-0.4,0-0.7,0.1-1,0.4c-0.3,0.2-0.4,0.7-0.4,1.4v2.8H876.8z"/>
	</g>
</g>
</svg>
