<?xml version="1.0" encoding="utf-8"?>
<!-- Generator: Adobe Illustrator 25.2.3, SVG Export Plug-In . SVG Version: 6.00 Build 0)  -->
<svg version="1.1" id="Layer_1" xmlns="http://www.w3.org/2000/svg" xmlns:xlink="http://www.w3.org/1999/xlink" x="0px" y="0px"
	 viewBox="0 0 1364 717.9" style="enable-background:new 0 0 1364 717.9;" xml:space="preserve">
<style type="text/css">
	.st0{fill:#4196B1;}
	.st1{fill:#A8E0E5;}
	.st2{fill:#99B8BF;}
	.st3{fill:#8ECCCE;}
	.st4{opacity:5.000000e-02;fill:#030303;enable-background:new    ;}
	.st5{fill:#B8BFC1;}
	.st6{fill:#FFFFFF;}
	.st7{fill:none;stroke:#DADCDC;stroke-width:0.507;stroke-miterlimit:10;}
	.st8{opacity:0.15;fill:#010101;enable-background:new    ;}
	.st9{fill:#596068;}
	.st10{fill:#9BAEB7;}
	.st11{fill:none;stroke:#7A8E93;stroke-width:1.87;stroke-linecap:round;stroke-miterlimit:10;}
	.st12{fill:none;stroke:#7A8E93;stroke-width:1.887;stroke-linecap:round;stroke-miterlimit:10;}
	.st13{opacity:0.74;fill:#575757;enable-background:new    ;}
	.st14{enable-background:new    ;}
	.st15{fill:none;stroke:#FFFFFF;stroke-width:6;stroke-miterlimit:10;}
	.st16{fill:none;stroke:#FFFFFF;stroke-width:3;stroke-miterlimit:10;}
	.st17{fill:#EBF1F2;}
	.st18{fill:#767E80;}
	.st19{fill:none;stroke:#7A8E93;stroke-width:0.827;stroke-miterlimit:10;}
	.st20{fill:none;stroke:#7A8E93;stroke-width:0.74;stroke-linecap:round;stroke-linejoin:round;}
	.st21{fill:#EBF2F2;}
	.st22{fill:none;stroke:#7A8E93;stroke-miterlimit:10;}
</style>
<g id="Layer_4">
	<polygon class="st0" points="32.1,361 32.1,460.4 127.5,460.4 127.5,476.7 209.9,476.7 209.9,636.1 416.5,636.1 416.5,666.6 
		444.4,666.6 444.4,678.9 808.4,678.9 808.4,598.5 1331.9,598.5 1331.9,222.9 925,222.9 925,156.5 882.2,112.8 882.2,99.4 
		831.1,99.4 831.1,114.4 792,152.8 742.6,152.8 742.6,142.5 685.2,142.5 685.2,152.2 448.1,152.2 448.1,193.9 209.6,193.9 
		209.6,345.5 127.8,345.5 127.8,361.1 	"/>
</g>
<g id="background">
	<polygon class="st1" points="25.6,344.5 25.6,443.9 121,443.9 121,460.2 203.4,460.2 203.4,619.6 409.9,619.6 409.9,650.1 
		437.9,650.1 437.9,662.4 801.9,662.4 801.9,581.9 1325.4,581.9 1325.4,206.4 918.4,206.4 918.4,140 875.7,96.2 875.7,82.9 
		824.6,82.9 824.6,97.9 785.5,136.3 736.1,136.3 736.1,126 678.7,126 678.7,135.7 441.6,135.7 441.6,177.4 203.1,177.4 203.1,329 
		121.3,329 121.3,344.6 	"/>
</g>
<g id="spaces">
	<rect x="413.4" y="447.5" class="st2" width="49.7" height="46.1"/>
	<polygon class="st3" points="257.7,351.8 634.5,351.8 634.5,316.4 689.9,316.4 689.9,355.6 790.2,355.6 790.2,365.3 800.9,365.3 
		800.9,434.3 800.9,584.2 1325.4,584.2 1325.4,206.4 918.4,206.4 918.4,140 876.3,96.9 876.3,81.2 824.6,81.2 824.6,96.7 
		786.4,135.6 736.1,135.6 736.1,126 678.7,126 678.7,135.1 441.6,135.1 441.6,175.4 203.1,175.4 203.1,329 203.1,351.8 	"/>
	<polygon class="st3" points="121.3,329 121.3,344.6 25.6,344.6 25.6,443.9 119.6,443.9 119.6,460.4 203.4,460.4 203.4,619.6 
		409.9,619.6 409.9,648.4 437.9,648.4 437.9,660.3 509.8,660.3 801.9,660.3 801.9,449.2 798.2,447.5 462.7,447.5 462.7,493.6 
		413.4,493.6 413.4,447.5 256.8,447.5 256.8,351.8 203.1,351.8 203.1,329 	"/>
</g>
<g id="furniture">
	<g id="tables_copy_3">
		<path class="st4" d="M367.3,537h65.1c1.9,0,3.4,1.5,3.4,3.3c0,0,0,0,0,0.1v36.3c0,1.9-1.5,3.4-3.3,3.4c0,0,0,0-0.1,0h-65.1
			c-1.9,0-3.4-1.5-3.4-3.3c0,0,0,0,0-0.1v-36.3C363.9,538.5,365.4,537,367.3,537L367.3,537z"/>
		<path class="st5" d="M367.3,535.1h65.1c1.9,0,3.4,1.5,3.4,3.3c0,0,0,0,0,0.1v36.3c0,1.9-1.5,3.4-3.3,3.4c0,0,0,0-0.1,0h-65.1
			c-1.9,0-3.4-1.5-3.4-3.3c0,0,0,0,0-0.1v-36.3C363.9,536.6,365.4,535.1,367.3,535.1L367.3,535.1z"/>
		<path id="table-23" class="st6" d="M399.2,533.9h-32.4c-1.6,0-3,1.3-3,2.9v0.1v19.8h35.4V533.9z"/>
		<path id="table-24" class="st6" d="M435.9,556.7v-19.8c0-1.6-1.3-3-2.9-3h-0.1h-34.1v22.8H435.9z"/>
		<path id="table-25" class="st6" d="M398.8,556.7v20.4h34.1c1.6,0,3-1.3,3-2.9v-0.1v-17.4H398.8z"/>
		<path id="table-26" class="st6" d="M363.9,556.7v17.4c0,1.6,1.3,3,2.9,3h0.1h32.4v-20.4H363.9z"/>
		<line class="st7" x1="399.2" y1="533.9" x2="399.2" y2="577.1"/>
		<line class="st7" x1="363.9" y1="556.7" x2="435.9" y2="556.7"/>
	</g>
	<g id="chairs_copy_3">
		<path class="st8" d="M383.5,583.9h-3.9c-2.8-0.1-5.3,2.1-5.4,4.9l0,0v0.3l0.2,3.6c0.3,3.7,3.4,6.4,7.1,6.3l0,0
			c3.7,0.2,6.8-2.6,7.2-6.2l0.2-3.6c0-2.9-2.2-5.2-5.1-5.3H383.5z"/>
		<path class="st9" d="M383.5,583.4h-3.9c-2.8-0.1-5.3,2.1-5.4,4.9l0,0v0.3l0.2,3.6c0.3,3.7,3.4,6.4,7.1,6.3l0,0
			c3.7,0.2,6.8-2.6,7.2-6.2l0.2-3.6c0-2.9-2.2-5.2-5.1-5.3H383.5L383.5,583.4z"/>
		<path class="st10" d="M383.4,581.8h-3.6c-2.7,0-4.9,2.2-5,4.9l0,0v0.2l0.2,3.6c0.2,3.5,3.1,6.3,6.6,6.3l0,0c3.5,0,6.4-2.7,6.6-6.2
			l0.2-3.6c0.1-2.7-1.9-5-4.7-5.2l0,0H383.4L383.4,581.8z"/>
		<path class="st11" d="M374.8,586.2l0.3,4.3c0.2,3.5,3.1,6.3,6.6,6.3l0,0c3.5,0,6.4-2.7,6.6-6.2l0.3-4.3"/>
		<path class="st8" d="M419.5,583.9h-3.9c-2.8-0.1-5.3,2.1-5.4,4.9l0,0v0.3l0.2,3.6c0.3,3.7,3.4,6.4,7.1,6.3l0,0
			c3.7,0.2,6.8-2.6,7.2-6.2l0.2-3.6c0-2.9-2.2-5.2-5.1-5.3H419.5z"/>
		<path class="st9" d="M419.5,583.4h-3.9c-2.8-0.1-5.3,2.1-5.4,4.9l0,0v0.3l0.2,3.6c0.3,3.7,3.4,6.4,7.1,6.3l0,0
			c3.7,0.2,6.8-2.6,7.2-6.2l0.2-3.6c0-2.9-2.2-5.2-5.1-5.3H419.5L419.5,583.4z"/>
		<path class="st10" d="M419.3,581.8h-3.6c-2.7,0-4.9,2.2-5,4.9l0,0v0.2l0.2,3.6c0.2,3.5,3.1,6.3,6.6,6.3l0,0c3.5,0,6.4-2.7,6.6-6.2
			l0.2-3.6c0.2-2.7-1.8-5-4.5-5.2c-0.1,0-0.1,0-0.2,0H419.3z"/>
		<path class="st11" d="M410.7,586.2l0.3,4.3c0.2,3.5,3.1,6.3,6.6,6.3l0,0c3.5,0,6.4-2.7,6.6-6.2l0.3-4.3"/>
		<path class="st8" d="M382.9,532.6l-3.6-0.1c-2.8-0.1-5-2.4-4.9-5.2l0,0v-0.2l0.3-3.6c0.3-3.5,3.3-6.2,6.8-6.2l0,0
			c3.5,0.1,6.4,3,6.5,6.5l0.1,3.6c0.1,2.7-2,5-4.7,5.1c-0.1,0-0.1,0-0.2,0L382.9,532.6z"/>
		<path class="st9" d="M382.9,532l-3.6-0.1c-2.8-0.1-5-2.4-4.9-5.2l0,0l0,0v-0.2l0.3-3.6c0.3-3.5,3.3-6.2,6.8-6.1l0,0
			c3.5,0.1,6.4,3,6.5,6.5l0.1,3.6c0,2.8-2.1,5-4.9,5.1H382.9z"/>
		<path class="st10" d="M382.9,531.3l-3.6-0.1c-2.8-0.1-5-2.4-4.9-5.2l0,0l0,0v-0.3l0.3-3.6c0.3-3.5,3.3-6.2,6.8-6.1l0,0
			c3.5,0.1,6.4,3,6.5,6.5l0.1,3.6c0,2.8-2.1,5-4.9,5.1C383.2,531.2,383.1,531.3,382.9,531.3z"/>
		<path class="st12" d="M374.3,526.5l0.4-4.3c0.3-3.5,3.3-6.2,6.8-6.1l0,0c3.5,0.1,6.4,3,6.5,6.5l0.2,4.3"/>
		<path class="st8" d="M418.6,532.6l-3.6-0.1c-2.8-0.1-5-2.4-4.9-5.2l0,0v-0.2l0.3-3.6c0.3-3.5,3.3-6.2,6.8-6.1l0,0
			c3.5,0.1,6.4,3,6.5,6.5l0.1,3.6c0.1,2.7-2,5-4.7,5.1c-0.1,0-0.1,0-0.2,0H418.6z"/>
		<path class="st9" d="M418.6,532.1L415,532c-2.8-0.1-5-2.4-4.9-5.2l0,0l0,0v-0.2l0.3-3.6c0.3-3.5,3.3-6.2,6.8-6.1l0,0
			c3.5,0.1,6.4,3,6.5,6.5l0.1,3.6c0.1,2.7-2.1,5-4.8,5.1h-0.1H418.6z"/>
		<path class="st10" d="M418.6,531.4l-3.6-0.1c-2.8-0.1-5-2.4-4.9-5.2l0,0l0,0v-0.3l0.3-3.6c0.3-3.5,3.3-6.2,6.8-6.1l0,0
			c3.5,0.1,6.4,3,6.5,6.5l0.1,3.6c0.1,2.7-2.1,5-4.8,5.1h-0.1C418.9,531.3,418.8,531.4,418.6,531.4z"/>
		<path class="st12" d="M410,526.6l0.4-4.3c0.3-3.5,3.3-6.2,6.8-6.1l0,0c3.5,0.1,6.4,3,6.5,6.5l0.2,4.3"/>
	</g>
	<g id="tables_copy_3-2">
		<path class="st4" d="M235.7,506.4h65.1c1.9,0,3.4,1.5,3.4,3.3c0,0,0,0,0,0.1v36.3c0,1.9-1.5,3.4-3.3,3.4c0,0,0,0-0.1,0h-65.1
			c-1.9,0-3.4-1.5-3.4-3.3c0,0,0,0,0-0.1v-36.3C232.3,507.9,233.8,506.4,235.7,506.4L235.7,506.4z"/>
		<path class="st5" d="M235.7,504.5h65.1c1.9,0,3.4,1.5,3.4,3.3c0,0,0,0,0,0.1v36.3c0,1.9-1.5,3.4-3.3,3.4c0,0,0,0-0.1,0h-65.1
			c-1.9,0-3.4-1.5-3.4-3.3c0,0,0,0,0-0.1v-36.3C232.3,506,233.8,504.5,235.7,504.5L235.7,504.5z"/>
		<path id="table-23-2" class="st6" d="M267.6,503.3h-32.4c-1.6,0-3,1.3-3,2.9v0.1v19.8h35.4V503.3z"/>
		<path id="table-24-2" class="st6" d="M304.3,526.1v-19.8c0-1.6-1.3-3-2.9-3h-0.1h-34.1v22.8H304.3z"/>
		<path id="table-25-2" class="st6" d="M267.2,526.1v20.4h34.1c1.6,0,3-1.3,3-2.9v-0.1v-17.4H267.2z"/>
		<path id="table-26-2" class="st6" d="M232.3,526.1v17.4c0,1.6,1.3,3,2.9,3h0.1h32.4v-20.4H232.3z"/>
		<line class="st7" x1="267.6" y1="503.3" x2="267.6" y2="546.5"/>
		<line class="st7" x1="232.3" y1="526.1" x2="304.3" y2="526.1"/>
	</g>
	<g id="chairs_copy_3-2">
		<path class="st8" d="M251.9,553.3H248c-2.8-0.1-5.3,2.1-5.4,4.9l0,0v0.3l0.2,3.6c0.3,3.7,3.4,6.4,7.1,6.3l0,0
			c3.7,0.2,6.8-2.6,7.2-6.2l0.2-3.6c0-2.9-2.2-5.2-5.1-5.3H251.9z"/>
		<path class="st9" d="M251.9,552.8H248c-2.8-0.1-5.3,2.1-5.4,4.9l0,0v0.3l0.2,3.6c0.3,3.7,3.4,6.4,7.1,6.3l0,0
			c3.7,0.2,6.8-2.6,7.2-6.2l0.2-3.6c0-2.9-2.2-5.2-5.1-5.3H251.9L251.9,552.8z"/>
		<path class="st10" d="M251.8,551.2h-3.6c-2.7,0-4.9,2.2-5,4.9l0,0v0.2l0.2,3.6c0.2,3.5,3.1,6.3,6.6,6.3l0,0c3.5,0,6.4-2.7,6.6-6.2
			l0.2-3.6c0.1-2.7-1.9-5-4.7-5.2l0,0H251.8L251.8,551.2z"/>
		<path class="st11" d="M243.2,555.6l0.3,4.3c0.2,3.5,3.1,6.3,6.6,6.3l0,0c3.5,0,6.4-2.7,6.6-6.2l0.3-4.3"/>
		<path class="st8" d="M287.9,553.3H284c-2.8-0.1-5.3,2.1-5.4,4.9l0,0v0.3l0.2,3.6c0.3,3.7,3.4,6.4,7.1,6.3l0,0
			c3.7,0.2,6.8-2.6,7.2-6.2l0.2-3.6c0-2.9-2.2-5.2-5.1-5.3H287.9z"/>
		<path class="st9" d="M287.9,552.8H284c-2.8-0.1-5.3,2.1-5.4,4.9l0,0v0.3l0.2,3.6c0.3,3.7,3.4,6.4,7.1,6.3l0,0
			c3.7,0.2,6.8-2.6,7.2-6.2l0.2-3.6c0-2.9-2.2-5.2-5.1-5.3H287.9L287.9,552.8z"/>
		<path class="st10" d="M287.7,551.2h-3.6c-2.7,0-4.9,2.2-5,4.9l0,0v0.2l0.2,3.6c0.2,3.5,3.1,6.3,6.6,6.3l0,0c3.5,0,6.4-2.7,6.6-6.2
			l0.2-3.6c0.2-2.7-1.8-5-4.5-5.2c-0.1,0-0.1,0-0.2,0H287.7z"/>
		<path class="st11" d="M279.1,555.6l0.3,4.3c0.2,3.5,3.1,6.3,6.6,6.3l0,0c3.5,0,6.4-2.7,6.6-6.2l0.3-4.3"/>
		<path class="st8" d="M251.3,502l-3.6-0.1c-2.8-0.1-5-2.4-4.9-5.2l0,0v-0.2l0.3-3.6c0.3-3.5,3.3-6.2,6.8-6.2l0,0
			c3.5,0.1,6.4,3,6.5,6.5l0.1,3.6c0.1,2.7-2,5-4.7,5.1c-0.1,0-0.1,0-0.2,0L251.3,502z"/>
		<path class="st9" d="M251.3,501.4l-3.6-0.1c-2.8-0.1-5-2.4-4.9-5.2l0,0l0,0v-0.2l0.3-3.6c0.3-3.5,3.3-6.2,6.8-6.1l0,0
			c3.5,0.1,6.4,3,6.5,6.5l0.1,3.6c0,2.8-2.1,5-4.9,5.1L251.3,501.4z"/>
		<path class="st10" d="M251.3,500.7l-3.6-0.1c-2.8-0.1-5-2.4-4.9-5.2l0,0l0,0v-0.3l0.3-3.6c0.3-3.5,3.3-6.2,6.8-6.1l0,0
			c3.5,0.1,6.4,3,6.5,6.5l0.1,3.6c0,2.8-2.1,5-4.9,5.1C251.5,500.6,251.4,500.7,251.3,500.7z"/>
		<path class="st12" d="M242.7,495.9l0.4-4.3c0.3-3.5,3.3-6.2,6.8-6.1l0,0c3.5,0.1,6.4,3,6.5,6.5l0.2,4.3"/>
		<path class="st8" d="M287,502l-3.6-0.1c-2.8-0.1-5-2.4-4.9-5.2l0,0v-0.2l0.3-3.6c0.3-3.5,3.3-6.2,6.8-6.1l0,0
			c3.5,0.1,6.4,3,6.5,6.5l0.1,3.6c0.1,2.7-2,5-4.7,5.1c-0.1,0-0.1,0-0.2,0L287,502z"/>
		<path class="st9" d="M287,501.5l-3.6-0.1c-2.8-0.1-5-2.4-4.9-5.2l0,0l0,0V496l0.3-3.6c0.3-3.5,3.3-6.2,6.8-6.1l0,0
			c3.5,0.1,6.4,3,6.5,6.5l0.1,3.6c0.1,2.7-2.1,5-4.8,5.1h-0.1H287z"/>
		<path class="st10" d="M287,500.8l-3.6-0.1c-2.8-0.1-5-2.4-4.9-5.2l0,0l0,0v-0.3l0.3-3.6c0.3-3.5,3.3-6.2,6.8-6.1l0,0
			c3.5,0.1,6.4,3,6.5,6.5l0.1,3.6c0.1,2.7-2.1,5-4.8,5.1h-0.1C287.2,500.7,287.1,500.8,287,500.8z"/>
		<path class="st12" d="M278.4,496l0.4-4.3c0.3-3.5,3.3-6.2,6.8-6.1l0,0c3.5,0.1,6.4,3,6.5,6.5l0.2,4.3"/>
	</g>
	<g id="tables_copy_3-3">
		<path class="st4" d="M515.9,621.8v-65.1c0-1.9,1.5-3.4,3.3-3.4c0,0,0,0,0.1,0h36.3c1.9,0,3.4,1.5,3.4,3.3c0,0,0,0,0,0.1v65.1
			c0,1.9-1.5,3.4-3.3,3.4c0,0,0,0-0.1,0h-36.3C517.5,625.2,515.9,623.7,515.9,621.8C515.9,621.9,515.9,621.8,515.9,621.8z"/>
		<path class="st5" d="M514,621.8v-65.1c0-1.9,1.5-3.4,3.3-3.4c0,0,0,0,0.1,0h36.3c1.9,0,3.4,1.5,3.4,3.3c0,0,0,0,0,0.1v65.1
			c0,1.9-1.5,3.4-3.3,3.4c0,0,0,0-0.1,0h-36.3C515.6,625.2,514,623.7,514,621.8C514,621.9,514,621.8,514,621.8z"/>
		<path id="table-23-3" class="st6" d="M512.8,589.9v32.4c0,1.6,1.3,3,2.9,3h0.1h19.8v-35.4H512.8z"/>
		<path id="table-24-3" class="st6" d="M535.6,553.2h-19.8c-1.6,0-3,1.3-3,2.9v0.1v34.1h22.8V553.2z"/>
		<path id="table-25-3" class="st6" d="M535.6,590.3H556v-34.1c0-1.6-1.3-3-2.9-3H553h-17.4V590.3z"/>
		<path id="table-26-3" class="st6" d="M535.6,625.2H553c1.6,0,3-1.3,3-2.9v-0.1l0,0v-32.4h-20.4V625.2z"/>
		<line class="st7" x1="512.8" y1="589.9" x2="556" y2="589.9"/>
		<line class="st7" x1="535.6" y1="625.2" x2="535.6" y2="553.2"/>
	</g>
	<g id="chairs_copy_3-3">
		<path class="st8" d="M562.8,605.6v3.9c-0.1,2.8,2.1,5.3,4.9,5.4l0,0h0.3l3.6-0.2c3.7-0.3,6.4-3.4,6.3-7.1l0,0
			c0.2-3.7-2.6-6.8-6.2-7.2l-3.6-0.2c-2.9,0-5.2,2.2-5.3,5.1V605.6z"/>
		<path class="st9" d="M562.3,605.6v3.9c-0.1,2.8,2.1,5.3,4.9,5.4l0,0h0.3l3.6-0.2c3.7-0.3,6.4-3.4,6.3-7.1l0,0
			c0.2-3.7-2.6-6.8-6.2-7.2l-3.6-0.2c-2.9,0-5.2,2.2-5.3,5.1l0,0V605.6z"/>
		<path class="st10" d="M560.7,605.7v3.6c0,2.7,2.2,4.9,4.9,5h0.2l3.6-0.2c3.5-0.2,6.3-3.1,6.3-6.6l0,0c0-3.5-2.7-6.4-6.2-6.6
			l-3.6-0.2c-2.7-0.1-5,1.9-5.2,4.7l0,0l0,0V605.7z"/>
		<path class="st11" d="M565.1,614.3l4.3-0.3c3.5-0.2,6.3-3.1,6.3-6.6l0,0c0-3.5-2.7-6.4-6.2-6.6l-4.3-0.3"/>
		<path class="st8" d="M562.8,569.6v3.9c-0.1,2.8,2.1,5.3,4.9,5.4l0,0h0.3l3.6-0.2c3.7-0.3,6.4-3.4,6.3-7.1l0,0
			c0.2-3.7-2.6-6.8-6.2-7.2l-3.6-0.2c-2.9,0-5.2,2.2-5.3,5.1V569.6z"/>
		<path class="st9" d="M562.3,569.6v3.9c-0.1,2.8,2.1,5.3,4.9,5.4l0,0h0.3l3.6-0.2c3.7-0.3,6.4-3.4,6.3-7.1l0,0
			c0.2-3.7-2.6-6.8-6.2-7.2l-3.6-0.2c-2.9,0-5.2,2.2-5.3,5.1l0,0V569.6z"/>
		<path class="st10" d="M560.7,569.8v3.6c0,2.7,2.2,4.9,4.9,5h0.2l3.6-0.2c3.5-0.2,6.3-3.1,6.3-6.6l0,0c0-3.5-2.7-6.4-6.2-6.6
			l-3.6-0.2c-2.7-0.2-5,1.8-5.2,4.5c0,0.1,0,0.1,0,0.2V569.8z"/>
		<path class="st11" d="M565.1,578.4l4.3-0.3c3.5-0.2,6.3-3.1,6.3-6.6l0,0c0-3.5-2.7-6.4-6.2-6.6l-4.3-0.3"/>
		<path class="st8" d="M511.5,606.2l-0.1,3.6c-0.1,2.8-2.4,5-5.2,4.9l0,0H506l-3.6-0.3c-3.5-0.3-6.2-3.3-6.2-6.8l0,0
			c0.1-3.5,3-6.4,6.5-6.5l3.6-0.1c2.7-0.1,5,2,5.1,4.7c0,0.1,0,0.1,0,0.2L511.5,606.2z"/>
		<path class="st9" d="M510.9,606.2l-0.1,3.6c-0.1,2.8-2.4,5-5.2,4.9l0,0h-0.2l-3.6-0.3c-3.5-0.3-6.2-3.3-6.1-6.8l0,0
			c0.1-3.5,3-6.4,6.5-6.5l3.6-0.1c2.8,0,5,2.1,5.1,4.9L510.9,606.2z"/>
		<path class="st10" d="M510.2,606.2l-0.1,3.6c-0.1,2.8-2.4,5-5.2,4.9l0,0h-0.3l-3.6-0.3c-3.5-0.3-6.2-3.3-6.1-6.8l0,0
			c0.1-3.5,3-6.4,6.5-6.5l3.6-0.1c2.8,0,5,2.1,5.1,4.9C510.2,606,510.2,606.1,510.2,606.2z"/>
		<path class="st12" d="M505.4,614.8l-4.3-0.4c-3.5-0.3-6.2-3.3-6.1-6.8l0,0c0.1-3.5,3-6.4,6.5-6.5l4.3-0.2"/>
		<path class="st8" d="M511.5,570.5l-0.1,3.6c-0.1,2.8-2.4,5-5.2,4.9l0,0H506l-3.6-0.3c-3.5-0.3-6.2-3.3-6.1-6.8l0,0
			c0.1-3.5,3-6.4,6.5-6.5l3.6-0.1c2.7-0.1,5,2,5.1,4.7c0,0.1,0,0.1,0,0.2V570.5z"/>
		<path class="st9" d="M511,570.5l-0.1,3.6c-0.1,2.8-2.4,5-5.2,4.9l0,0h-0.2l-3.6-0.3c-3.5-0.3-6.2-3.3-6.1-6.8l0,0
			c0.1-3.5,3-6.4,6.5-6.5l3.6-0.1c2.7-0.1,5,2.1,5.1,4.8v0.1L511,570.5z"/>
		<path class="st10" d="M510.3,570.5l-0.1,3.6c-0.1,2.8-2.4,5-5.2,4.9l0,0h-0.3l-3.6-0.3c-3.5-0.3-6.2-3.3-6.1-6.8l0,0
			c0.1-3.5,3-6.4,6.5-6.5l3.6-0.1c2.7-0.1,5,2.1,5.1,4.8v0.1C510.3,570.3,510.3,570.4,510.3,570.5z"/>
		<path class="st12" d="M505.5,579.1l-4.3-0.4c-3.5-0.3-6.2-3.3-6.1-6.8l0,0c0.1-3.5,3-6.4,6.5-6.5l4.3-0.2"/>
	</g>
	<g id="tables_copy_3-4">
		<path class="st4" d="M680.6,623.5v-65.1c0-1.9,1.5-3.4,3.3-3.4c0,0,0,0,0.1,0h36.3c1.9,0,3.4,1.5,3.4,3.3c0,0,0,0,0,0.1v65.1
			c0,1.9-1.5,3.4-3.3,3.4c0,0,0,0-0.1,0H684C682.1,626.9,680.6,625.4,680.6,623.5L680.6,623.5z"/>
		<path class="st5" d="M678.7,623.5v-65.1c0-1.9,1.5-3.4,3.3-3.4c0,0,0,0,0.1,0h36.3c1.9,0,3.4,1.5,3.4,3.3c0,0,0,0,0,0.1v65.1
			c0,1.9-1.5,3.4-3.3,3.4c0,0,0,0-0.1,0h-36.3C680.2,626.9,678.7,625.4,678.7,623.5L678.7,623.5z"/>
		<path id="table-23-4" class="st6" d="M677.5,591.6V624c0,1.6,1.3,3,2.9,3h0.1h19.8v-35.4H677.5z"/>
		<path id="table-24-4" class="st6" d="M700.3,554.9h-19.8c-1.6,0-3,1.3-3,2.9v0.1V592h22.8V554.9z"/>
		<path id="table-25-4" class="st6" d="M700.3,592h20.4v-34.1c0-1.6-1.3-3-2.9-3h-0.1h-17.4V592z"/>
		<path id="table-26-4" class="st6" d="M700.3,626.9h17.4c1.6,0,3-1.3,3-2.9v-0.1l0,0v-32.4h-20.4V626.9z"/>
		<line class="st7" x1="677.5" y1="591.6" x2="720.7" y2="591.6"/>
		<line class="st7" x1="700.3" y1="626.9" x2="700.3" y2="554.9"/>
	</g>
	<g id="chairs_copy_3-4">
		<path class="st8" d="M727.5,607.3v3.9c-0.1,2.8,2.1,5.3,4.9,5.4l0,0h0.3l3.6-0.2c3.7-0.3,6.4-3.4,6.3-7.1l0,0
			c0.2-3.7-2.6-6.8-6.2-7.2l-3.6-0.2c-2.9,0-5.2,2.2-5.3,5.1V607.3z"/>
		<path class="st9" d="M727,607.3v3.9c-0.1,2.8,2.1,5.3,4.9,5.4l0,0h0.3l3.6-0.2c3.7-0.3,6.4-3.4,6.3-7.1l0,0
			c0.2-3.7-2.6-6.8-6.2-7.2l-3.6-0.2c-2.9,0-5.2,2.2-5.3,5.1l0,0V607.3z"/>
		<path class="st10" d="M725.4,607.4v3.6c0,2.7,2.2,4.9,4.9,5h0.2l3.6-0.2c3.5-0.2,6.3-3.1,6.3-6.6l0,0c0-3.5-2.7-6.4-6.2-6.6
			l-3.6-0.2c-2.7-0.1-5,1.9-5.2,4.7l0,0l0,0V607.4z"/>
		<path class="st11" d="M729.8,616l4.3-0.3c3.5-0.2,6.3-3.1,6.3-6.6l0,0c0-3.5-2.7-6.4-6.2-6.6l-4.3-0.3"/>
		<path class="st8" d="M727.5,571.3v3.9c-0.1,2.8,2.1,5.3,4.9,5.4l0,0h0.3l3.6-0.2c3.7-0.3,6.4-3.4,6.3-7.1l0,0
			c0.2-3.7-2.6-6.8-6.2-7.2l-3.6-0.2c-2.9,0-5.2,2.2-5.3,5.1V571.3z"/>
		<path class="st9" d="M727,571.3v3.9c-0.1,2.8,2.1,5.3,4.9,5.4l0,0h0.3l3.6-0.2c3.7-0.3,6.4-3.4,6.3-7.1l0,0
			c0.2-3.7-2.6-6.8-6.2-7.2l-3.6-0.2c-2.9,0-5.2,2.2-5.3,5.1l0,0V571.3z"/>
		<path class="st10" d="M725.4,571.5v3.6c0,2.7,2.2,4.9,4.9,5h0.2l3.6-0.2c3.5-0.2,6.3-3.1,6.3-6.6l0,0c0-3.5-2.7-6.4-6.2-6.6
			l-3.6-0.2c-2.7-0.2-5,1.8-5.2,4.5c0,0.1,0,0.1,0,0.2V571.5z"/>
		<path class="st11" d="M729.8,580.1l4.3-0.3c3.5-0.2,6.3-3.1,6.3-6.6l0,0c0-3.5-2.7-6.4-6.2-6.6l-4.3-0.3"/>
		<path class="st8" d="M676.2,607.9l-0.1,3.6c-0.1,2.8-2.4,5-5.2,4.9l0,0h-0.2l-3.6-0.3c-3.5-0.3-6.2-3.3-6.2-6.8l0,0
			c0.1-3.5,3-6.4,6.5-6.5l3.6-0.1c2.7-0.1,5,2,5.1,4.7c0,0.1,0,0.1,0,0.2L676.2,607.9z"/>
		<path class="st9" d="M675.6,607.9l-0.1,3.6c-0.1,2.8-2.4,5-5.2,4.9l0,0h-0.2l-3.6-0.3c-3.5-0.3-6.2-3.3-6.1-6.8l0,0
			c0.1-3.5,3-6.4,6.5-6.5l3.6-0.1c2.8,0,5,2.1,5.1,4.9V607.9z"/>
		<path class="st10" d="M674.9,607.9l-0.1,3.6c-0.1,2.8-2.4,5-5.2,4.9l0,0h-0.3l-3.6-0.3c-3.5-0.3-6.2-3.3-6.1-6.8l0,0
			c0.1-3.5,3-6.4,6.5-6.5l3.6-0.1c2.8,0,5,2.1,5.1,4.9C674.8,607.7,674.9,607.8,674.9,607.9z"/>
		<path class="st12" d="M670.1,616.5l-4.3-0.4c-3.5-0.3-6.2-3.3-6.1-6.8l0,0c0.1-3.5,3-6.4,6.5-6.5l4.3-0.2"/>
		<path class="st8" d="M676.2,572.2l-0.1,3.6c-0.1,2.8-2.4,5-5.2,4.9l0,0h-0.2l-3.6-0.3c-3.5-0.3-6.2-3.3-6.1-6.8l0,0
			c0.1-3.5,3-6.4,6.5-6.5l3.6-0.1c2.7-0.1,5,2,5.1,4.7c0,0.1,0,0.1,0,0.2V572.2z"/>
		<path class="st9" d="M675.7,572.2l-0.1,3.6c-0.1,2.8-2.4,5-5.2,4.9l0,0h-0.2l-3.6-0.3c-3.5-0.3-6.2-3.3-6.1-6.8l0,0
			c0.1-3.5,3-6.4,6.5-6.5l3.6-0.1c2.7-0.1,5,2.1,5.1,4.8v0.1V572.2z"/>
		<path class="st10" d="M675,572.2l-0.1,3.6c-0.1,2.8-2.4,5-5.2,4.9l0,0h-0.3l-3.6-0.3c-3.5-0.3-6.2-3.3-6.1-6.8l0,0
			c0.1-3.5,3-6.4,6.5-6.5l3.6-0.1c2.7-0.1,5,2.1,5.1,4.8v0.1C674.9,572,674.9,572.1,675,572.2z"/>
		<path class="st12" d="M670.2,580.8l-4.3-0.4c-3.5-0.3-6.2-3.3-6.1-6.8l0,0c0.1-3.5,3-6.4,6.5-6.5l4.3-0.2"/>
	</g>
	<g id="tables_copy_3-5">
		<path class="st4" d="M523.5,475.9h65.1c1.9,0,3.4,1.5,3.4,3.3c0,0,0,0,0,0.1v36.3c0,1.9-1.5,3.4-3.3,3.4c0,0,0,0-0.1,0h-65.1
			c-1.9,0-3.4-1.5-3.4-3.3c0,0,0,0,0-0.1v-36.3C520.1,477.4,521.6,475.9,523.5,475.9C523.4,475.9,523.5,475.9,523.5,475.9z"/>
		<path class="st5" d="M523.5,474h65.1c1.9,0,3.4,1.5,3.4,3.3c0,0,0,0,0,0.1v36.3c0,1.9-1.5,3.4-3.3,3.4c0,0,0,0-0.1,0h-65.1
			c-1.9,0-3.4-1.5-3.4-3.3c0,0,0,0,0-0.1v-36.3C520.1,475.5,521.6,474,523.5,474C523.4,474,523.5,474,523.5,474z"/>
		<path id="table-23-5" class="st6" d="M555.4,472.8H523c-1.6,0-3,1.3-3,2.9v0.1v19.8h35.4V472.8z"/>
		<path id="table-24-5" class="st6" d="M592.1,495.6v-19.8c0-1.6-1.3-3-2.9-3h-0.1H555v22.8H592.1z"/>
		<path id="table-25-5" class="st6" d="M555,495.6V516h34.1c1.6,0,3-1.3,3-2.9V513v-17.4H555z"/>
		<path id="table-26-5" class="st6" d="M520.1,495.6V513c0,1.6,1.3,3,2.9,3h0.1h32.4v-20.4H520.1z"/>
		<line class="st7" x1="555.4" y1="472.8" x2="555.4" y2="516"/>
		<line class="st7" x1="520.1" y1="495.6" x2="592.1" y2="495.6"/>
	</g>
	<g id="chairs_copy_3-5">
		<path class="st8" d="M539.7,522.8h-3.9c-2.8-0.1-5.3,2.1-5.4,4.9l0,0v0.3l0.2,3.6c0.3,3.7,3.4,6.4,7.1,6.3l0,0
			c3.7,0.2,6.8-2.6,7.2-6.2l0.2-3.6c0-2.9-2.2-5.2-5.1-5.3H539.7z"/>
		<path class="st9" d="M539.7,522.3h-3.9c-2.8-0.1-5.3,2.1-5.4,4.9l0,0v0.3l0.2,3.6c0.3,3.7,3.4,6.4,7.1,6.3l0,0
			c3.7,0.2,6.8-2.6,7.2-6.2l0.2-3.6c0-2.9-2.2-5.2-5.1-5.3H539.7z"/>
		<path class="st10" d="M539.6,520.7H536c-2.7,0-4.9,2.2-5,4.9l0,0v0.2l0.2,3.6c0.2,3.5,3.1,6.3,6.6,6.3l0,0c3.5,0,6.4-2.7,6.6-6.2
			l0.2-3.6c0.1-2.7-1.9-5-4.7-5.2l0,0H539.6z"/>
		<path class="st11" d="M531,525.1l0.3,4.3c0.2,3.5,3.1,6.3,6.6,6.3l0,0c3.5,0,6.4-2.7,6.6-6.2l0.3-4.3"/>
		<path class="st8" d="M575.7,522.8h-3.9c-2.8-0.1-5.3,2.1-5.4,4.9l0,0v0.3l0.2,3.6c0.3,3.7,3.4,6.4,7.1,6.3l0,0
			c3.7,0.2,6.8-2.6,7.2-6.2l0.2-3.6c0-2.9-2.2-5.2-5.1-5.3H575.7z"/>
		<path class="st9" d="M575.7,522.3h-3.9c-2.8-0.1-5.3,2.1-5.4,4.9l0,0v0.3l0.2,3.6c0.3,3.7,3.4,6.4,7.1,6.3l0,0
			c3.7,0.2,6.8-2.6,7.2-6.2l0.2-3.6c0-2.9-2.2-5.2-5.1-5.3H575.7z"/>
		<path class="st10" d="M575.5,520.7h-3.6c-2.7,0-4.9,2.2-5,4.9l0,0v0.2l0.2,3.6c0.2,3.5,3.1,6.3,6.6,6.3l0,0c3.5,0,6.4-2.7,6.6-6.2
			l0.2-3.6c0.2-2.7-1.8-5-4.5-5.2c-0.1,0-0.1,0-0.2,0H575.5z"/>
		<path class="st11" d="M566.9,525.1l0.3,4.3c0.2,3.5,3.1,6.3,6.6,6.3l0,0c3.5,0,6.4-2.7,6.6-6.2l0.3-4.3"/>
		<path class="st8" d="M539.1,471.5l-3.6-0.1c-2.8-0.1-5-2.4-4.9-5.2l0,0V466l0.3-3.6c0.3-3.5,3.3-6.2,6.8-6.2l0,0
			c3.5,0.1,6.4,3,6.5,6.5l0.1,3.6c0.1,2.7-2,5-4.7,5.1c-0.1,0-0.1,0-0.2,0L539.1,471.5z"/>
		<path class="st9" d="M539.1,470.9l-3.6-0.1c-2.8-0.1-5-2.4-4.9-5.2l0,0l0,0v-0.2l0.3-3.6c0.3-3.5,3.3-6.2,6.8-6.1l0,0
			c3.5,0.1,6.4,3,6.5,6.5l0.1,3.6c0,2.8-2.1,5-4.9,5.1L539.1,470.9z"/>
		<path class="st10" d="M539.1,470.2l-3.6-0.1c-2.8-0.1-5-2.4-4.9-5.2l0,0l0,0v-0.3l0.3-3.6c0.3-3.5,3.3-6.2,6.8-6.1l0,0
			c3.5,0.1,6.4,3,6.5,6.5l0.1,3.6c0,2.8-2.1,5-4.9,5.1C539.3,470.1,539.2,470.2,539.1,470.2z"/>
		<path class="st12" d="M530.5,465.4l0.4-4.3c0.3-3.5,3.3-6.2,6.8-6.1l0,0c3.5,0.1,6.4,3,6.5,6.5l0.2,4.3"/>
		<path class="st8" d="M574.8,471.5l-3.6-0.1c-2.8-0.1-5-2.4-4.9-5.2l0,0V466l0.3-3.6c0.3-3.5,3.3-6.2,6.8-6.1l0,0
			c3.5,0.1,6.4,3,6.5,6.5l0.1,3.6c0.1,2.7-2,5-4.7,5.1c-0.1,0-0.1,0-0.2,0H574.8z"/>
		<path class="st9" d="M574.8,471l-3.6-0.1c-2.8-0.1-5-2.4-4.9-5.2l0,0l0,0v-0.2l0.3-3.6c0.3-3.5,3.3-6.2,6.8-6.1l0,0
			c3.5,0.1,6.4,3,6.5,6.5l0.1,3.6c0.1,2.7-2.1,5-4.8,5.1h-0.1L574.8,471z"/>
		<path class="st10" d="M574.8,470.3l-3.6-0.1c-2.8-0.1-5-2.4-4.9-5.2l0,0l0,0v-0.3l0.3-3.6c0.3-3.5,3.3-6.2,6.8-6.1l0,0
			c3.5,0.1,6.4,3,6.5,6.5l0.1,3.6c0.1,2.7-2.1,5-4.8,5.1h-0.1C575,470.2,574.9,470.3,574.8,470.3z"/>
		<path class="st12" d="M566.2,465.5l0.4-4.3c0.3-3.5,3.3-6.2,6.8-6.1l0,0c3.5,0.1,6.4,3,6.5,6.5l0.2,4.3"/>
	</g>
</g>
<g id="bookable">
	<rect id="area-02.2.10-status" x="203.1" y="177.4" class="st13" width="212" height="173.2"/>
	<polygon id="area-02.2.15-status" class="st13" points="441.6,135.7 628.5,135.7 628.5,316.4 637.4,316.4 637.4,350.6 584.6,350.6 
		584.6,285.4 463.2,285.4 463.2,201.7 441.6,201.7 	"/>
	<g class="st14">
		<path class="st6" d="M256.3,269.4l1.4,0.4c-0.2,0.8-0.6,1.4-1.1,1.7c-0.5,0.4-1.1,0.6-1.9,0.6c-1,0-1.7-0.3-2.3-1
			c-0.6-0.7-0.9-1.5-0.9-2.7c0-1.2,0.3-2.1,0.9-2.8c0.6-0.7,1.4-1,2.4-1c0.9,0,1.6,0.3,2.1,0.8c0.3,0.3,0.6,0.7,0.7,1.3l-1.4,0.3
			c-0.1-0.4-0.3-0.7-0.5-0.9s-0.6-0.3-1-0.3c-0.5,0-1,0.2-1.3,0.6s-0.5,1-0.5,1.9c0,0.9,0.2,1.5,0.5,1.9s0.7,0.6,1.3,0.6
			c0.4,0,0.7-0.1,1-0.4S256.2,269.9,256.3,269.4z"/>
		<path class="st6" d="M258.6,269.3c0-0.5,0.1-0.9,0.3-1.3s0.5-0.8,1-1s0.9-0.3,1.4-0.3c0.8,0,1.4,0.3,1.9,0.8
			c0.5,0.5,0.8,1.2,0.8,1.9c0,0.8-0.3,1.4-0.8,2c-0.5,0.5-1.1,0.8-1.9,0.8c-0.5,0-0.9-0.1-1.4-0.3s-0.8-0.5-1-0.9
			C258.7,270.4,258.6,269.9,258.6,269.3z M260,269.4c0,0.5,0.1,0.9,0.4,1.2s0.5,0.4,0.9,0.4s0.7-0.1,0.9-0.4s0.4-0.7,0.4-1.2
			c0-0.5-0.1-0.9-0.4-1.2s-0.5-0.4-0.9-0.4s-0.7,0.1-0.9,0.4S260,268.9,260,269.4z"/>
		<path class="st6" d="M269.8,272h-1.4v-2.6c0-0.6,0-0.9-0.1-1.1c-0.1-0.2-0.2-0.3-0.3-0.4s-0.3-0.1-0.5-0.1c-0.2,0-0.5,0.1-0.6,0.2
			s-0.3,0.3-0.4,0.5s-0.1,0.6-0.1,1.2v2.3H265v-5.2h1.3v0.8c0.5-0.6,1-0.9,1.7-0.9c0.3,0,0.6,0.1,0.8,0.2c0.3,0.1,0.4,0.2,0.6,0.4
			s0.2,0.4,0.3,0.6s0.1,0.5,0.1,0.9V272z"/>
		<path class="st6" d="M270.6,266.8h0.8v-0.4c0-0.4,0-0.8,0.1-1s0.3-0.4,0.5-0.5c0.2-0.1,0.6-0.2,0.9-0.2c0.4,0,0.8,0.1,1.1,0.2
			l-0.2,1c-0.2-0.1-0.4-0.1-0.6-0.1c-0.2,0-0.3,0-0.4,0.1c-0.1,0.1-0.1,0.3-0.1,0.5v0.4h1v1.1h-1v4.1h-1.4v-4.1h-0.8V266.8z"/>
		<path class="st6" d="M277.5,270.4l1.4,0.2c-0.2,0.5-0.5,0.9-0.8,1.1c-0.4,0.3-0.9,0.4-1.4,0.4c-0.9,0-1.6-0.3-2-0.9
			c-0.3-0.5-0.5-1.1-0.5-1.8c0-0.9,0.2-1.5,0.7-2c0.4-0.5,1-0.7,1.7-0.7c0.8,0,1.4,0.3,1.8,0.8c0.4,0.5,0.7,1.3,0.6,2.3h-3.4
			c0,0.4,0.1,0.7,0.3,0.9c0.2,0.2,0.5,0.3,0.8,0.3c0.2,0,0.4-0.1,0.5-0.2S277.4,270.6,277.5,270.4z M277.6,269
			c0-0.4-0.1-0.7-0.3-0.9c-0.2-0.2-0.4-0.3-0.7-0.3c-0.3,0-0.5,0.1-0.7,0.3s-0.3,0.5-0.3,0.9H277.6z"/>
		<path class="st6" d="M281.4,272H280v-5.2h1.3v0.7c0.2-0.3,0.4-0.6,0.6-0.7s0.4-0.2,0.6-0.2c0.3,0,0.6,0.1,0.9,0.3l-0.4,1.2
			c-0.2-0.1-0.4-0.2-0.6-0.2c-0.2,0-0.4,0.1-0.5,0.2c-0.1,0.1-0.2,0.3-0.3,0.6s-0.1,0.9-0.1,1.7V272z"/>
		<path class="st6" d="M287,270.4l1.4,0.2c-0.2,0.5-0.5,0.9-0.8,1.1c-0.4,0.3-0.9,0.4-1.4,0.4c-0.9,0-1.6-0.3-2-0.9
			c-0.3-0.5-0.5-1.1-0.5-1.8c0-0.9,0.2-1.5,0.7-2c0.4-0.5,1-0.7,1.7-0.7c0.8,0,1.4,0.3,1.8,0.8c0.4,0.5,0.7,1.3,0.6,2.3H285
			c0,0.4,0.1,0.7,0.3,0.9c0.2,0.2,0.5,0.3,0.8,0.3c0.2,0,0.4-0.1,0.5-0.2S286.9,270.6,287,270.4z M287,269c0-0.4-0.1-0.7-0.3-0.9
			c-0.2-0.2-0.4-0.3-0.7-0.3c-0.3,0-0.5,0.1-0.7,0.3s-0.3,0.5-0.3,0.9H287z"/>
		<path class="st6" d="M294.2,272h-1.4v-2.6c0-0.6,0-0.9-0.1-1.1c-0.1-0.2-0.2-0.3-0.3-0.4s-0.3-0.1-0.5-0.1c-0.2,0-0.5,0.1-0.6,0.2
			s-0.3,0.3-0.4,0.5s-0.1,0.6-0.1,1.2v2.3h-1.4v-5.2h1.3v0.8c0.5-0.6,1-0.9,1.7-0.9c0.3,0,0.6,0.1,0.8,0.2c0.3,0.1,0.4,0.2,0.6,0.4
			s0.2,0.4,0.3,0.6s0.1,0.5,0.1,0.9V272z"/>
		<path class="st6" d="M300.1,268.4l-1.4,0.2c0-0.3-0.1-0.5-0.3-0.6s-0.4-0.2-0.6-0.2c-0.3,0-0.6,0.1-0.8,0.4
			c-0.2,0.2-0.3,0.6-0.3,1.2c0,0.6,0.1,1,0.3,1.3s0.5,0.4,0.8,0.4c0.3,0,0.5-0.1,0.6-0.2c0.2-0.1,0.3-0.4,0.4-0.8l1.3,0.2
			c-0.1,0.6-0.4,1.1-0.8,1.4s-0.9,0.5-1.6,0.5c-0.8,0-1.4-0.2-1.8-0.7s-0.7-1.1-0.7-2c0-0.9,0.2-1.5,0.7-2c0.5-0.5,1.1-0.7,1.8-0.7
			c0.6,0,1.1,0.1,1.5,0.4C299.7,267.4,300,267.8,300.1,268.4z"/>
		<path class="st6" d="M304.2,270.4l1.4,0.2c-0.2,0.5-0.5,0.9-0.8,1.1c-0.4,0.3-0.9,0.4-1.4,0.4c-0.9,0-1.6-0.3-2-0.9
			c-0.3-0.5-0.5-1.1-0.5-1.8c0-0.9,0.2-1.5,0.7-2c0.4-0.5,1-0.7,1.7-0.7c0.8,0,1.4,0.3,1.8,0.8c0.4,0.5,0.7,1.3,0.6,2.3h-3.4
			c0,0.4,0.1,0.7,0.3,0.9c0.2,0.2,0.5,0.3,0.8,0.3c0.2,0,0.4-0.1,0.5-0.2S304.1,270.6,304.2,270.4z M304.3,269
			c0-0.4-0.1-0.7-0.3-0.9c-0.2-0.2-0.4-0.3-0.7-0.3c-0.3,0-0.5,0.1-0.7,0.3s-0.3,0.5-0.3,0.9H304.3z"/>
		<path class="st6" d="M309.5,272v-7.2h3c0.8,0,1.3,0.1,1.7,0.2c0.3,0.1,0.6,0.4,0.8,0.7s0.3,0.7,0.3,1.1c0,0.5-0.2,1-0.5,1.3
			c-0.3,0.3-0.8,0.6-1.4,0.7c0.3,0.2,0.6,0.4,0.8,0.6s0.5,0.6,0.8,1.2l0.9,1.4h-1.7l-1-1.6c-0.4-0.6-0.6-0.9-0.8-1.1
			c-0.1-0.1-0.3-0.2-0.4-0.3c-0.2-0.1-0.4-0.1-0.7-0.1H311v3H309.5z M311,267.9h1.1c0.7,0,1.1,0,1.3-0.1s0.3-0.2,0.4-0.3
			s0.1-0.3,0.1-0.5c0-0.2-0.1-0.4-0.2-0.6c-0.1-0.1-0.3-0.2-0.5-0.3c-0.1,0-0.5,0-1.1,0H311V267.9z"/>
		<path class="st6" d="M316.4,269.3c0-0.5,0.1-0.9,0.3-1.3s0.5-0.8,1-1s0.9-0.3,1.4-0.3c0.8,0,1.4,0.3,1.9,0.8
			c0.5,0.5,0.8,1.2,0.8,1.9c0,0.8-0.3,1.4-0.8,2c-0.5,0.5-1.1,0.8-1.9,0.8c-0.5,0-0.9-0.1-1.4-0.3s-0.8-0.5-1-0.9
			C316.5,270.4,316.4,269.9,316.4,269.3z M317.8,269.4c0,0.5,0.1,0.9,0.4,1.2s0.5,0.4,0.9,0.4s0.7-0.1,0.9-0.4s0.4-0.7,0.4-1.2
			c0-0.5-0.1-0.9-0.4-1.2s-0.5-0.4-0.9-0.4s-0.7,0.1-0.9,0.4S317.8,268.9,317.8,269.4z"/>
		<path class="st6" d="M322.5,269.3c0-0.5,0.1-0.9,0.3-1.3s0.5-0.8,1-1s0.9-0.3,1.4-0.3c0.8,0,1.4,0.3,1.9,0.8
			c0.5,0.5,0.8,1.2,0.8,1.9c0,0.8-0.3,1.4-0.8,2c-0.5,0.5-1.1,0.8-1.9,0.8c-0.5,0-0.9-0.1-1.4-0.3s-0.8-0.5-1-0.9
			C322.6,270.4,322.5,269.9,322.5,269.3z M323.9,269.4c0,0.5,0.1,0.9,0.4,1.2s0.5,0.4,0.9,0.4s0.7-0.1,0.9-0.4s0.4-0.7,0.4-1.2
			c0-0.5-0.1-0.9-0.4-1.2s-0.5-0.4-0.9-0.4s-0.7,0.1-0.9,0.4S323.9,268.9,323.9,269.4z"/>
		<path class="st6" d="M328.9,266.8h1.3v0.7c0.5-0.5,1-0.8,1.6-0.8c0.3,0,0.6,0.1,0.9,0.2s0.4,0.3,0.6,0.6c0.2-0.3,0.5-0.5,0.7-0.6
			s0.5-0.2,0.8-0.2c0.4,0,0.7,0.1,1,0.2c0.3,0.2,0.5,0.4,0.6,0.7c0.1,0.2,0.1,0.6,0.1,1.1v3.3h-1.4v-3c0-0.5,0-0.8-0.1-1
			c-0.1-0.2-0.3-0.3-0.6-0.3c-0.2,0-0.4,0.1-0.5,0.2s-0.3,0.3-0.4,0.5c-0.1,0.2-0.1,0.6-0.1,1.1v2.5H332v-2.8c0-0.5,0-0.8-0.1-1
			s-0.1-0.3-0.2-0.3s-0.2-0.1-0.4-0.1c-0.2,0-0.4,0.1-0.6,0.2s-0.3,0.3-0.4,0.5s-0.1,0.6-0.1,1.1v2.5h-1.4V266.8z"/>
		<path class="st6" d="M343.2,264.8h1.4v4.5c0,0.6-0.1,1-0.2,1.4c-0.1,0.4-0.4,0.8-0.8,1c-0.4,0.3-0.9,0.4-1.5,0.4
			c-0.7,0-1.2-0.2-1.6-0.6c-0.4-0.4-0.6-1-0.6-1.7l1.4-0.2c0,0.4,0.1,0.7,0.2,0.9c0.2,0.3,0.4,0.4,0.7,0.4c0.3,0,0.6-0.1,0.7-0.3
			c0.1-0.2,0.2-0.6,0.2-1.1V264.8z"/>
		<path class="st6" d="M345.9,269.3c0-0.5,0.1-0.9,0.3-1.3s0.5-0.8,1-1s0.9-0.3,1.4-0.3c0.8,0,1.4,0.3,1.9,0.8
			c0.5,0.5,0.8,1.2,0.8,1.9c0,0.8-0.3,1.4-0.8,2c-0.5,0.5-1.1,0.8-1.9,0.8c-0.5,0-0.9-0.1-1.4-0.3s-0.8-0.5-1-0.9
			C346,270.4,345.9,269.9,345.9,269.3z M347.3,269.4c0,0.5,0.1,0.9,0.4,1.2s0.5,0.4,0.9,0.4s0.7-0.1,0.9-0.4s0.4-0.7,0.4-1.2
			c0-0.5-0.1-0.9-0.4-1.2s-0.5-0.4-0.9-0.4s-0.7,0.1-0.9,0.4S347.3,268.9,347.3,269.4z"/>
		<path class="st6" d="M353.7,264.8v2.6c0.4-0.5,1-0.8,1.6-0.8c0.3,0,0.6,0.1,0.9,0.2s0.4,0.3,0.6,0.4s0.2,0.4,0.3,0.6
			s0.1,0.6,0.1,1v3h-1.4v-2.7c0-0.5,0-0.9-0.1-1s-0.1-0.3-0.3-0.3c-0.1-0.1-0.3-0.1-0.5-0.1c-0.2,0-0.4,0.1-0.6,0.2
			s-0.3,0.3-0.4,0.5c-0.1,0.2-0.1,0.6-0.1,1v2.6h-1.4v-7.2H353.7z"/>
		<path class="st6" d="M363.1,272h-1.4v-2.6c0-0.6,0-0.9-0.1-1.1c-0.1-0.2-0.2-0.3-0.3-0.4s-0.3-0.1-0.5-0.1c-0.2,0-0.5,0.1-0.6,0.2
			s-0.3,0.3-0.4,0.5s-0.1,0.6-0.1,1.2v2.3h-1.4v-5.2h1.3v0.8c0.5-0.6,1-0.9,1.7-0.9c0.3,0,0.6,0.1,0.8,0.2c0.3,0.1,0.4,0.2,0.6,0.4
			s0.2,0.4,0.3,0.6s0.1,0.5,0.1,0.9V272z"/>
	</g>
	<g class="st14">
		<path class="st6" d="M501.3,223.9v-7.2h2.3c0.9,0,1.5,0,1.7,0.1c0.4,0.1,0.8,0.3,1,0.7c0.3,0.4,0.4,0.8,0.4,1.4
			c0,0.4-0.1,0.8-0.2,1.1s-0.4,0.5-0.6,0.7c-0.2,0.2-0.5,0.3-0.7,0.3c-0.3,0.1-0.8,0.1-1.5,0.1h-0.9v2.7H501.3z M502.7,218v2h0.8
			c0.6,0,1,0,1.1-0.1s0.3-0.2,0.5-0.4s0.2-0.3,0.2-0.6c0-0.3-0.1-0.5-0.2-0.6s-0.3-0.3-0.6-0.3c-0.2,0-0.5,0-1,0H502.7z"/>
		<path class="st6" d="M509.2,223.9h-1.4v-5.2h1.3v0.7c0.2-0.3,0.4-0.6,0.6-0.7s0.4-0.2,0.6-0.2c0.3,0,0.6,0.1,0.9,0.3l-0.4,1.2
			c-0.2-0.1-0.4-0.2-0.6-0.2c-0.2,0-0.4,0.1-0.5,0.2c-0.1,0.1-0.2,0.3-0.3,0.6s-0.1,0.9-0.1,1.7V223.9z"/>
		<path class="st6" d="M511.5,221.2c0-0.5,0.1-0.9,0.3-1.3s0.5-0.8,1-1s0.9-0.3,1.4-0.3c0.8,0,1.4,0.3,1.9,0.8
			c0.5,0.5,0.8,1.2,0.8,1.9c0,0.8-0.3,1.4-0.8,2c-0.5,0.5-1.1,0.8-1.9,0.8c-0.5,0-0.9-0.1-1.4-0.3s-0.8-0.5-1-0.9
			C511.6,222.4,511.5,221.8,511.5,221.2z M512.9,221.3c0,0.5,0.1,0.9,0.4,1.2s0.5,0.4,0.9,0.4s0.7-0.1,0.9-0.4s0.4-0.7,0.4-1.2
			c0-0.5-0.1-0.9-0.4-1.2s-0.5-0.4-0.9-0.4s-0.7,0.1-0.9,0.4S512.9,220.8,512.9,221.3z"/>
		<path class="st6" d="M519.3,218.7v5c0,0.7,0,1.1-0.1,1.4c-0.1,0.3-0.3,0.5-0.5,0.6s-0.6,0.2-0.9,0.2c-0.1,0-0.3,0-0.4,0
			c-0.2,0-0.3-0.1-0.5-0.1l0.2-1.2c0.1,0,0.1,0,0.2,0c0.1,0,0.1,0,0.2,0c0.1,0,0.3,0,0.3-0.1c0.1-0.1,0.1-0.1,0.2-0.2s0-0.3,0-0.8
			v-4.9H519.3z M517.9,218v-1.3h1.4v1.3H517.9z"/>
		<path class="st6" d="M523.7,222.3l1.4,0.2c-0.2,0.5-0.5,0.9-0.8,1.1c-0.4,0.3-0.9,0.4-1.4,0.4c-0.9,0-1.6-0.3-2-0.9
			c-0.3-0.5-0.5-1.1-0.5-1.8c0-0.9,0.2-1.5,0.7-2c0.4-0.5,1-0.7,1.7-0.7c0.8,0,1.4,0.3,1.8,0.8c0.4,0.5,0.7,1.3,0.6,2.3h-3.4
			c0,0.4,0.1,0.7,0.3,0.9c0.2,0.2,0.5,0.3,0.8,0.3c0.2,0,0.4-0.1,0.5-0.2S523.6,222.5,523.7,222.3z M523.8,220.9
			c0-0.4-0.1-0.7-0.3-0.9c-0.2-0.2-0.4-0.3-0.7-0.3c-0.3,0-0.5,0.1-0.7,0.3s-0.3,0.5-0.3,0.9H523.8z"/>
		<path class="st6" d="M530.8,220.3l-1.4,0.2c0-0.3-0.1-0.5-0.3-0.6s-0.4-0.2-0.6-0.2c-0.3,0-0.6,0.1-0.8,0.4
			c-0.2,0.2-0.3,0.6-0.3,1.2c0,0.6,0.1,1,0.3,1.3s0.5,0.4,0.8,0.4c0.3,0,0.5-0.1,0.6-0.2c0.2-0.1,0.3-0.4,0.4-0.8l1.3,0.2
			c-0.1,0.6-0.4,1.1-0.8,1.4s-0.9,0.5-1.6,0.5c-0.8,0-1.4-0.2-1.8-0.7s-0.7-1.1-0.7-2c0-0.9,0.2-1.5,0.7-2c0.5-0.5,1.1-0.7,1.8-0.7
			c0.6,0,1.1,0.1,1.5,0.4C530.4,219.3,530.6,219.7,530.8,220.3z"/>
		<path class="st6" d="M534.2,218.7v1.1h-0.9v2.1c0,0.4,0,0.7,0,0.7c0,0.1,0.1,0.1,0.1,0.2s0.1,0.1,0.2,0.1c0.1,0,0.3,0,0.6-0.1
			l0.1,1.1c-0.3,0.1-0.7,0.2-1.1,0.2c-0.2,0-0.5,0-0.7-0.1c-0.2-0.1-0.3-0.2-0.4-0.3c-0.1-0.1-0.2-0.3-0.2-0.5c0-0.2,0-0.5,0-1v-2.3
			h-0.6v-1.1h0.6v-1l1.4-0.8v1.8H534.2z"/>
		<path class="st6" d="M538,223.9v-7.2h3c0.8,0,1.3,0.1,1.7,0.2c0.3,0.1,0.6,0.4,0.8,0.7s0.3,0.7,0.3,1.1c0,0.5-0.2,1-0.5,1.3
			c-0.3,0.3-0.8,0.6-1.4,0.7c0.3,0.2,0.6,0.4,0.8,0.6s0.5,0.6,0.8,1.2l0.9,1.4h-1.7l-1-1.6c-0.4-0.6-0.6-0.9-0.8-1.1
			c-0.1-0.1-0.3-0.2-0.4-0.3c-0.2-0.1-0.4-0.1-0.7-0.1h-0.3v3H538z M539.4,219.8h1.1c0.7,0,1.1,0,1.3-0.1s0.3-0.2,0.4-0.3
			s0.1-0.3,0.1-0.5c0-0.2-0.1-0.4-0.2-0.6c-0.1-0.1-0.3-0.2-0.5-0.3c-0.1,0-0.5,0-1.1,0h-1.1V219.8z"/>
		<path class="st6" d="M544.8,221.2c0-0.5,0.1-0.9,0.3-1.3s0.5-0.8,1-1s0.9-0.3,1.4-0.3c0.8,0,1.4,0.3,1.9,0.8
			c0.5,0.5,0.8,1.2,0.8,1.9c0,0.8-0.3,1.4-0.8,2c-0.5,0.5-1.1,0.8-1.9,0.8c-0.5,0-0.9-0.1-1.4-0.3s-0.8-0.5-1-0.9
			C545,222.4,544.8,221.8,544.8,221.2z M546.2,221.3c0,0.5,0.1,0.9,0.4,1.2s0.5,0.4,0.9,0.4s0.7-0.1,0.9-0.4s0.4-0.7,0.4-1.2
			c0-0.5-0.1-0.9-0.4-1.2s-0.5-0.4-0.9-0.4s-0.7,0.1-0.9,0.4S546.2,220.8,546.2,221.3z"/>
		<path class="st6" d="M551,221.2c0-0.5,0.1-0.9,0.3-1.3s0.5-0.8,1-1s0.9-0.3,1.4-0.3c0.8,0,1.4,0.3,1.9,0.8
			c0.5,0.5,0.8,1.2,0.8,1.9c0,0.8-0.3,1.4-0.8,2c-0.5,0.5-1.1,0.8-1.9,0.8c-0.5,0-0.9-0.1-1.4-0.3s-0.8-0.5-1-0.9
			C551.1,222.4,551,221.8,551,221.2z M552.4,221.3c0,0.5,0.1,0.9,0.4,1.2s0.5,0.4,0.9,0.4s0.7-0.1,0.9-0.4s0.4-0.7,0.4-1.2
			c0-0.5-0.1-0.9-0.4-1.2s-0.5-0.4-0.9-0.4s-0.7,0.1-0.9,0.4S552.4,220.8,552.4,221.3z"/>
		<path class="st6" d="M557.3,218.7h1.3v0.7c0.5-0.5,1-0.8,1.6-0.8c0.3,0,0.6,0.1,0.9,0.2s0.4,0.3,0.6,0.6c0.2-0.3,0.5-0.5,0.7-0.6
			s0.5-0.2,0.8-0.2c0.4,0,0.7,0.1,1,0.2c0.3,0.2,0.5,0.4,0.6,0.7c0.1,0.2,0.1,0.6,0.1,1.1v3.3h-1.4v-3c0-0.5,0-0.8-0.1-1
			c-0.1-0.2-0.3-0.3-0.6-0.3c-0.2,0-0.4,0.1-0.5,0.2s-0.3,0.3-0.4,0.5c-0.1,0.2-0.1,0.6-0.1,1.1v2.5h-1.4v-2.8c0-0.5,0-0.8-0.1-1
			s-0.1-0.3-0.2-0.3s-0.2-0.1-0.4-0.1c-0.2,0-0.4,0.1-0.6,0.2s-0.3,0.3-0.4,0.5s-0.1,0.6-0.1,1.1v2.5h-1.4V218.7z"/>
		<path class="st6" d="M568.8,220.4c0-0.7,0.1-1.3,0.3-1.8c0.2-0.4,0.4-0.7,0.7-1s0.6-0.5,0.9-0.6c0.4-0.2,1-0.3,1.5-0.3
			c1.1,0,1.9,0.3,2.5,1s0.9,1.6,0.9,2.7c0,1.2-0.3,2.1-0.9,2.7c-0.6,0.7-1.5,1-2.5,1c-1.1,0-1.9-0.3-2.5-1
			C569.1,222.4,568.8,221.5,568.8,220.4z M570.3,220.3c0,0.8,0.2,1.4,0.6,1.8c0.4,0.4,0.8,0.6,1.4,0.6s1-0.2,1.4-0.6
			c0.4-0.4,0.6-1,0.6-1.9c0-0.8-0.2-1.4-0.5-1.8s-0.8-0.6-1.4-0.6s-1.1,0.2-1.4,0.6C570.4,218.9,570.3,219.5,570.3,220.3z"/>
		<path class="st6" d="M576.8,223.9v-7.2h1.4v7.2H576.8z"/>
		<path class="st6" d="M579.6,223.9v-7.2h1.4v7.2H579.6z"/>
		<path class="st6" d="M585.4,222.3l1.4,0.2c-0.2,0.5-0.5,0.9-0.8,1.1c-0.4,0.3-0.9,0.4-1.4,0.4c-0.9,0-1.6-0.3-2-0.9
			c-0.3-0.5-0.5-1.1-0.5-1.8c0-0.9,0.2-1.5,0.7-2c0.4-0.5,1-0.7,1.7-0.7c0.8,0,1.4,0.3,1.8,0.8c0.4,0.5,0.7,1.3,0.6,2.3h-3.4
			c0,0.4,0.1,0.7,0.3,0.9c0.2,0.2,0.5,0.3,0.8,0.3c0.2,0,0.4-0.1,0.5-0.2S585.3,222.5,585.4,222.3z M585.5,220.9
			c0-0.4-0.1-0.7-0.3-0.9c-0.2-0.2-0.4-0.3-0.7-0.3c-0.3,0-0.5,0.1-0.7,0.3s-0.3,0.5-0.3,0.9H585.5z"/>
	</g>
</g>
<g id="outline">
	<polygon class="st15" points="25.6,344.5 25.6,443.9 121,443.9 121,460.2 203.4,460.2 203.4,619.6 409.9,619.6 409.9,650.1 
		437.9,650.1 437.9,662.4 801.9,662.4 801.9,581.9 1325.4,581.9 1325.4,206.4 918.4,206.4 918.4,140 875.7,96.2 875.7,82.9 
		824.6,82.9 824.6,97.9 785.5,136.3 736.1,136.3 736.1,126 678.7,126 678.7,135.7 441.6,135.7 441.6,177.4 203.1,177.4 203.1,329 
		121.3,329 121.3,344.6 	"/>
	<line class="st16" x1="203.1" y1="329" x2="203.1" y2="374.5"/>
	<polyline class="st16" points="203.4,460.2 203.4,422.5 203.4,448.6 326.3,448.6 	"/>
	<polyline class="st16" points="357.3,447.5 591.8,447.5 463,447.5 463,508.8 463,493.3 446.7,493.3 	"/>
	<polyline class="st16" points="413.4,447.5 413.4,494.4 424.7,494.4 	"/>
	<polyline class="st16" points="409.9,619.6 462,619.6 462,588.2 	"/>
	<polyline class="st16" points="634.3,447.5 800.5,447.5 800.5,414.9 800.5,629.4 800.5,424 869.6,424 	"/>
	<polyline class="st16" points="898.1,422.4 1058.4,422.4 1058.4,411.3 1058.4,465.2 	"/>
	<polyline class="st16" points="1058.4,494.2 1058.4,581.9 1325.4,581.9 1325.4,206.4 1058.4,206.4 1058.4,378 1058.4,365.7 
		940.6,365.7 	"/>
	<polyline class="st16" points="914.4,365.3 790.2,365.3 790.2,372.6 790.2,133.2 790.2,206.4 854.9,206.4 	"/>
	<line class="st16" x1="918.4" y1="206.4" x2="891.4" y2="206.4"/>
	<polyline class="st16" points="628.5,135.7 628.5,316.4 640.5,316.4 	"/>
	<polyline class="st16" points="689.9,233.7 689.9,355.6 719,355.6 	"/>
	<polyline class="st16" points="441.6,177.4 441.6,201.9 463.2,201.9 463.2,233.7 	"/>
	<polyline class="st16" points="463.2,262.8 463.2,350.6 450.7,350.6 524.6,350.6 	"/>
	<polyline class="st16" points="463.2,285.9 584.6,285.9 584.6,350.6 552.3,350.6 638.6,350.6 	"/>
	<polyline class="st16" points="203.4,351.8 328.8,351.8 257.7,351.8 257.7,372.6 	"/>
	<line class="st16" x1="256.8" y1="422.5" x2="256.8" y2="448.6"/>
	<line class="st16" x1="415.2" y1="226" x2="415.2" y2="177.4"/>
	<polyline class="st16" points="463.2,273.5 415.2,273.5 415.2,241.1 415.2,350.6 424.7,350.6 357.3,350.6 	"/>
	<polyline class="st16" points="827.6,424 827.6,394.2 831.5,394.2 	"/>
	<polyline class="st16" points="865.5,424 865.5,394.2 860.7,394.2 	"/>
</g>
<g id="icons">
	<circle class="st17" cx="741.7" cy="280.3" r="29.1"/>
	<g class="st14">
		<path class="st18" d="M726.6,323.2l1.2-0.1c0.1,0.5,0.2,0.9,0.4,1.2s0.5,0.6,1,0.8c0.4,0.2,0.9,0.3,1.5,0.3c0.5,0,0.9-0.1,1.3-0.2
			s0.7-0.3,0.8-0.6c0.2-0.3,0.3-0.5,0.3-0.8c0-0.3-0.1-0.6-0.3-0.8c-0.2-0.2-0.5-0.4-0.9-0.6c-0.3-0.1-0.8-0.3-1.7-0.5
			c-0.9-0.2-1.5-0.4-1.9-0.6c-0.5-0.2-0.8-0.5-1-0.9c-0.2-0.4-0.3-0.8-0.3-1.2c0-0.5,0.1-0.9,0.4-1.4s0.7-0.7,1.2-1
			c0.5-0.2,1.1-0.3,1.8-0.3c0.7,0,1.3,0.1,1.9,0.3s1,0.6,1.3,1s0.5,1,0.5,1.5l-1.2,0.1c-0.1-0.6-0.3-1.1-0.7-1.4
			c-0.4-0.3-0.9-0.5-1.7-0.5c-0.8,0-1.3,0.1-1.7,0.4c-0.4,0.3-0.5,0.6-0.5,1c0,0.3,0.1,0.6,0.4,0.9c0.2,0.2,0.9,0.5,1.9,0.7
			s1.7,0.4,2.1,0.6c0.6,0.3,1,0.6,1.2,1c0.3,0.4,0.4,0.9,0.4,1.4c0,0.5-0.1,1-0.4,1.5c-0.3,0.5-0.7,0.8-1.3,1.1
			c-0.5,0.3-1.2,0.4-1.9,0.4c-0.9,0-1.6-0.1-2.2-0.4c-0.6-0.3-1.1-0.6-1.4-1.1C726.8,324.5,726.6,323.9,726.6,323.2z"/>
		<path class="st18" d="M738.4,325.3l0.2,1c-0.3,0.1-0.6,0.1-0.9,0.1c-0.4,0-0.8-0.1-1-0.2c-0.2-0.1-0.4-0.3-0.5-0.5
			c-0.1-0.2-0.1-0.7-0.1-1.4v-4h-0.9v-0.9h0.9v-1.7l1.2-0.7v2.4h1.2v0.9h-1.2v4.1c0,0.3,0,0.6,0.1,0.7s0.1,0.2,0.2,0.2
			c0.1,0.1,0.2,0.1,0.4,0.1C738.1,325.3,738.2,325.3,738.4,325.3z"/>
		<path class="st18" d="M744.2,325.5c-0.4,0.4-0.9,0.6-1.3,0.8s-0.8,0.2-1.3,0.2c-0.8,0-1.4-0.2-1.8-0.6c-0.4-0.4-0.6-0.9-0.6-1.4
			c0-0.3,0.1-0.7,0.2-0.9c0.2-0.3,0.4-0.5,0.6-0.7c0.3-0.2,0.5-0.3,0.9-0.4c0.2-0.1,0.6-0.1,1.1-0.2c1-0.1,1.7-0.2,2.1-0.4
			c0-0.2,0-0.3,0-0.3c0-0.5-0.1-0.8-0.3-1c-0.3-0.3-0.8-0.4-1.3-0.4c-0.6,0-1,0.1-1.2,0.3c-0.3,0.2-0.5,0.5-0.6,1l-1.2-0.2
			c0.1-0.5,0.3-0.9,0.5-1.2s0.6-0.5,1-0.7c0.5-0.2,1-0.2,1.6-0.2c0.6,0,1.1,0.1,1.5,0.2c0.4,0.1,0.6,0.3,0.8,0.5
			c0.2,0.2,0.3,0.5,0.4,0.8c0,0.2,0.1,0.6,0.1,1.1v1.6c0,1.1,0,1.8,0.1,2.1c0,0.3,0.1,0.6,0.3,0.8h-1.2
			C744.3,326.1,744.2,325.8,744.2,325.5z M744.1,322.8c-0.4,0.2-1.1,0.3-1.9,0.4c-0.5,0.1-0.8,0.1-1,0.2c-0.2,0.1-0.4,0.2-0.5,0.4
			s-0.2,0.4-0.2,0.6c0,0.3,0.1,0.6,0.4,0.8c0.2,0.2,0.6,0.3,1,0.3c0.5,0,0.9-0.1,1.2-0.3c0.4-0.2,0.6-0.5,0.8-0.8
			c0.1-0.3,0.2-0.7,0.2-1.2V322.8z"/>
		<path class="st18" d="M747.1,318.1v-1.4h1.2v1.4H747.1z M747.1,326.3v-7h1.2v7H747.1z"/>
		<path class="st18" d="M750.1,326.3v-7h1.1v1.1c0.3-0.5,0.5-0.8,0.8-1c0.2-0.2,0.5-0.2,0.8-0.2c0.4,0,0.8,0.1,1.2,0.4l-0.4,1.1
			c-0.3-0.2-0.6-0.3-0.9-0.3c-0.3,0-0.5,0.1-0.7,0.2c-0.2,0.2-0.4,0.4-0.4,0.6c-0.1,0.4-0.2,0.9-0.2,1.4v3.7H750.1z"/>
		<path class="st18" d="M754.1,324.3l1.2-0.2c0.1,0.5,0.2,0.8,0.5,1.1c0.3,0.2,0.7,0.4,1.3,0.4c0.5,0,0.9-0.1,1.2-0.3
			c0.3-0.2,0.4-0.5,0.4-0.8c0-0.3-0.1-0.5-0.3-0.6c-0.2-0.1-0.6-0.2-1.2-0.4c-0.9-0.2-1.5-0.4-1.8-0.6c-0.3-0.2-0.6-0.4-0.8-0.7
			c-0.2-0.3-0.3-0.6-0.3-0.9c0-0.3,0.1-0.6,0.2-0.9c0.1-0.3,0.3-0.5,0.6-0.7c0.2-0.1,0.4-0.3,0.8-0.3c0.3-0.1,0.7-0.1,1-0.1
			c0.5,0,1,0.1,1.4,0.2c0.4,0.2,0.7,0.4,0.9,0.6c0.2,0.3,0.3,0.6,0.4,1.1l-1.2,0.2c-0.1-0.4-0.2-0.6-0.5-0.8
			c-0.3-0.2-0.6-0.3-1.1-0.3c-0.5,0-0.9,0.1-1.2,0.3s-0.3,0.4-0.3,0.6c0,0.2,0,0.3,0.1,0.4c0.1,0.1,0.2,0.2,0.5,0.3
			c0.1,0,0.5,0.1,1,0.3c0.8,0.2,1.4,0.4,1.8,0.5s0.6,0.3,0.8,0.6c0.2,0.3,0.3,0.6,0.3,1c0,0.4-0.1,0.8-0.3,1.1s-0.6,0.6-1,0.8
			c-0.4,0.2-0.9,0.3-1.5,0.3c-0.9,0-1.6-0.2-2.1-0.6C754.5,325.6,754.2,325,754.1,324.3z"/>
	</g>
	<g id="Outline_Icons-9-2">
		<line class="st19" x1="729.4" y1="290.4" x2="751.8" y2="290.4"/>
		<polyline class="st19" points="747.8,290.4 747.8,286.5 743.9,286.5 743.9,282.6 740,282.6 740,278.7 736.2,278.7 736.2,274.9 
			729.4,274.9 		"/>
		<line class="st19" x1="741" y1="268.4" x2="753.1" y2="280.4"/>
		<polyline class="st19" points="741,272.9 741,268.4 745.9,268.4 		"/>
		<polyline class="st19" points="753.1,275.5 753.1,280.4 748.1,280.4 		"/>
	</g>
	<g class="st14">
		<path class="st18" d="M419.1,337.9v-7h3.1c0.6,0,1.1,0.1,1.4,0.2c0.3,0.1,0.6,0.3,0.8,0.7c0.2,0.3,0.3,0.7,0.3,1.1
			c0,0.5-0.2,0.9-0.5,1.3c-0.3,0.3-0.8,0.6-1.5,0.6c0.2,0.1,0.4,0.2,0.6,0.3c0.3,0.2,0.5,0.6,0.8,0.9l1.2,1.9h-1.2l-0.9-1.5
			c-0.3-0.4-0.5-0.7-0.7-1c-0.2-0.2-0.3-0.4-0.5-0.5c-0.1-0.1-0.3-0.2-0.4-0.2c-0.1,0-0.3,0-0.5,0H420v3.1H419.1z M420,334h2
			c0.4,0,0.8,0,1-0.1c0.2-0.1,0.4-0.2,0.5-0.4s0.2-0.4,0.2-0.6c0-0.3-0.1-0.6-0.4-0.8c-0.2-0.2-0.6-0.3-1.1-0.3H420V334z"/>
		<path class="st18" d="M429.5,336.2l0.9,0.1c-0.1,0.5-0.4,0.9-0.8,1.2c-0.4,0.3-0.9,0.4-1.5,0.4c-0.7,0-1.3-0.2-1.8-0.7
			c-0.4-0.5-0.7-1.1-0.7-1.9c0-0.9,0.2-1.5,0.7-2s1-0.7,1.7-0.7c0.7,0,1.2,0.2,1.7,0.7c0.4,0.5,0.6,1.1,0.6,1.9c0,0.1,0,0.1,0,0.2
			h-3.8c0,0.6,0.2,1,0.5,1.3s0.6,0.4,1.1,0.4c0.3,0,0.6-0.1,0.8-0.2C429.2,336.9,429.4,336.6,429.5,336.2z M426.7,334.9h2.8
			c0-0.4-0.1-0.7-0.3-1c-0.3-0.3-0.6-0.5-1.1-0.5c-0.4,0-0.7,0.1-1,0.4C426.9,334.1,426.7,334.4,426.7,334.9z"/>
		<path class="st18" d="M431.1,336.4l0.8-0.1c0,0.3,0.2,0.6,0.4,0.8c0.2,0.2,0.5,0.3,0.9,0.3c0.4,0,0.7-0.1,0.9-0.2
			c0.2-0.2,0.3-0.3,0.3-0.6c0-0.2-0.1-0.3-0.3-0.5c-0.1-0.1-0.4-0.2-0.9-0.3c-0.6-0.2-1.1-0.3-1.3-0.4s-0.4-0.3-0.6-0.5
			c-0.1-0.2-0.2-0.4-0.2-0.7c0-0.2,0.1-0.4,0.2-0.6s0.2-0.4,0.4-0.5c0.1-0.1,0.3-0.2,0.5-0.2c0.2-0.1,0.5-0.1,0.7-0.1
			c0.4,0,0.7,0.1,1,0.2c0.3,0.1,0.5,0.3,0.7,0.5s0.2,0.5,0.3,0.8l-0.8,0.1c0-0.3-0.1-0.5-0.3-0.6c-0.2-0.1-0.4-0.2-0.8-0.2
			c-0.4,0-0.7,0.1-0.8,0.2c-0.2,0.1-0.3,0.3-0.3,0.5c0,0.1,0,0.2,0.1,0.3c0.1,0.1,0.2,0.2,0.3,0.2c0.1,0,0.3,0.1,0.8,0.2
			c0.6,0.2,1,0.3,1.3,0.4s0.4,0.3,0.6,0.5c0.1,0.2,0.2,0.4,0.2,0.7c0,0.3-0.1,0.6-0.3,0.8s-0.4,0.4-0.7,0.6
			c-0.3,0.1-0.7,0.2-1.1,0.2c-0.7,0-1.2-0.1-1.5-0.4C431.4,337.3,431.2,336.9,431.1,336.4z"/>
		<path class="st18" d="M438.2,337.1l0.1,0.8c-0.2,0.1-0.5,0.1-0.6,0.1c-0.3,0-0.6,0-0.7-0.1s-0.3-0.2-0.4-0.4
			c-0.1-0.2-0.1-0.5-0.1-1v-2.9h-0.6v-0.7h0.6v-1.3l0.9-0.5v1.8h0.9v0.7h-0.9v3c0,0.2,0,0.4,0,0.5c0,0.1,0.1,0.1,0.1,0.2
			c0.1,0,0.2,0.1,0.3,0.1C437.9,337.1,438.1,337.1,438.2,337.1z"/>
		<path class="st18" d="M439.1,337.9v-5.1h0.8v0.8c0.2-0.4,0.4-0.6,0.5-0.7s0.4-0.2,0.6-0.2c0.3,0,0.6,0.1,0.9,0.3l-0.3,0.8
			c-0.2-0.1-0.4-0.2-0.6-0.2c-0.2,0-0.4,0.1-0.5,0.2c-0.1,0.1-0.3,0.3-0.3,0.5c-0.1,0.3-0.1,0.6-0.1,1v2.7H439.1z"/>
		<path class="st18" d="M442,335.3c0-0.9,0.3-1.6,0.8-2.1c0.4-0.4,1-0.6,1.6-0.6c0.7,0,1.3,0.2,1.7,0.7c0.4,0.5,0.7,1.1,0.7,1.9
			c0,0.7-0.1,1.2-0.3,1.5c-0.2,0.4-0.5,0.7-0.9,0.9c-0.4,0.2-0.8,0.3-1.2,0.3c-0.7,0-1.3-0.2-1.7-0.7
			C442.2,336.9,442,336.2,442,335.3z M442.9,335.3c0,0.6,0.1,1.1,0.4,1.5c0.3,0.3,0.6,0.5,1.1,0.5c0.4,0,0.8-0.2,1.1-0.5
			c0.3-0.3,0.4-0.8,0.4-1.5c0-0.6-0.1-1.1-0.4-1.4c-0.3-0.3-0.6-0.5-1.1-0.5c-0.4,0-0.8,0.2-1.1,0.5
			C443,334.2,442.9,334.7,442.9,335.3z"/>
		<path class="st18" d="M447.4,335.3c0-0.9,0.3-1.6,0.8-2.1c0.4-0.4,1-0.6,1.6-0.6c0.7,0,1.3,0.2,1.7,0.7c0.4,0.5,0.7,1.1,0.7,1.9
			c0,0.7-0.1,1.2-0.3,1.5c-0.2,0.4-0.5,0.7-0.9,0.9c-0.4,0.2-0.8,0.3-1.2,0.3c-0.7,0-1.3-0.2-1.7-0.7
			C447.7,336.9,447.4,336.2,447.4,335.3z M448.3,335.3c0,0.6,0.1,1.1,0.4,1.5c0.3,0.3,0.6,0.5,1.1,0.5c0.4,0,0.8-0.2,1.1-0.5
			c0.3-0.3,0.4-0.8,0.4-1.5c0-0.6-0.1-1.1-0.4-1.4c-0.3-0.3-0.6-0.5-1.1-0.5c-0.4,0-0.8,0.2-1.1,0.5
			C448.5,334.2,448.3,334.7,448.3,335.3z"/>
		<path class="st18" d="M453.2,337.9v-5.1h0.8v0.7c0.2-0.2,0.4-0.4,0.6-0.6c0.3-0.2,0.6-0.2,0.9-0.2c0.4,0,0.7,0.1,0.9,0.2
			c0.2,0.2,0.4,0.4,0.5,0.7c0.4-0.6,0.9-0.9,1.6-0.9c0.5,0,0.9,0.1,1.2,0.4c0.3,0.3,0.4,0.7,0.4,1.3v3.5h-0.9v-3.2
			c0-0.3,0-0.6-0.1-0.7c-0.1-0.2-0.2-0.3-0.3-0.4c-0.1-0.1-0.3-0.1-0.5-0.1c-0.4,0-0.7,0.1-0.9,0.4s-0.4,0.6-0.4,1.1v2.9h-0.9v-3.3
			c0-0.4-0.1-0.7-0.2-0.9c-0.1-0.2-0.4-0.3-0.7-0.3c-0.2,0-0.5,0.1-0.7,0.2c-0.2,0.1-0.4,0.3-0.4,0.6s-0.1,0.6-0.1,1.1v2.6H453.2z"
			/>
	</g>
	<circle class="st17" cx="439.6" cy="305.4" r="20.8"/>
	<g id="Outline_Icons-5-2-2">
		<path class="st20" d="M447.2,305.8c0,0.4-0.3,0.8-0.8,0.9h-4v-8.6c0-0.8,0.6-1.5,1.4-1.5h1.6c0.8,0,1.5,0.6,1.5,1.4v0.1
			L447.2,305.8z"/>
		<path class="st20" d="M436.1,314.5h7.9v-4.7l2.4-1.5v-1.5h-13.2c-0.1,2,1.4,3.7,3.4,3.9h0.4L436.1,314.5z"/>
		<rect x="432.2" y="305.1" class="st20" width="10.2" height="1.5"/>
		<circle class="st20" cx="445.1" cy="299.2" r="0.9"/>
	</g>
	<g class="st14">
		<path class="st18" d="M687.9,157v-7.2h5.2v0.8h-4.2v2.2h4v0.8h-4v2.4h4.4v0.8H687.9z"/>
		<path class="st18" d="M694.4,157v-5.2h0.8v0.7c0.4-0.6,0.9-0.9,1.7-0.9c0.3,0,0.6,0.1,0.9,0.2c0.3,0.1,0.5,0.3,0.6,0.4
			c0.1,0.2,0.2,0.4,0.3,0.6c0,0.2,0,0.4,0,0.9v3.2h-0.9v-3.2c0-0.4,0-0.6-0.1-0.8c-0.1-0.2-0.2-0.3-0.4-0.4
			c-0.2-0.1-0.4-0.2-0.6-0.2c-0.4,0-0.7,0.1-1,0.4s-0.4,0.7-0.4,1.4v2.8H694.4z"/>
		<path class="st18" d="M701.9,156.2l0.1,0.8c-0.2,0.1-0.5,0.1-0.7,0.1c-0.3,0-0.6-0.1-0.7-0.2s-0.3-0.2-0.4-0.4
			c-0.1-0.2-0.1-0.5-0.1-1v-3h-0.6v-0.7h0.6v-1.3l0.9-0.5v1.8h0.9v0.7H701v3c0,0.3,0,0.4,0,0.5s0.1,0.1,0.2,0.2s0.2,0.1,0.3,0.1
			C701.6,156.2,701.8,156.2,701.9,156.2z"/>
		<path class="st18" d="M702.8,157v-5.2h0.8v0.8c0.2-0.4,0.4-0.6,0.6-0.7s0.4-0.2,0.6-0.2c0.3,0,0.6,0.1,0.9,0.3l-0.3,0.8
			c-0.2-0.1-0.4-0.2-0.6-0.2c-0.2,0-0.4,0.1-0.5,0.2c-0.2,0.1-0.3,0.3-0.3,0.5c-0.1,0.3-0.1,0.7-0.1,1v2.7H702.8z"/>
		<path class="st18" d="M709.5,156.4c-0.3,0.3-0.6,0.5-0.9,0.6s-0.6,0.2-1,0.2c-0.6,0-1-0.1-1.3-0.4c-0.3-0.3-0.5-0.6-0.5-1.1
			c0-0.3,0.1-0.5,0.2-0.7c0.1-0.2,0.3-0.4,0.5-0.5s0.4-0.2,0.6-0.3c0.2,0,0.4-0.1,0.8-0.1c0.7-0.1,1.2-0.2,1.6-0.3
			c0-0.1,0-0.2,0-0.2c0-0.4-0.1-0.6-0.2-0.8c-0.2-0.2-0.6-0.3-1-0.3c-0.4,0-0.7,0.1-0.9,0.2c-0.2,0.1-0.3,0.4-0.4,0.8l-0.9-0.1
			c0.1-0.4,0.2-0.7,0.4-0.9c0.2-0.2,0.4-0.4,0.8-0.5c0.3-0.1,0.7-0.2,1.2-0.2c0.4,0,0.8,0.1,1.1,0.2c0.3,0.1,0.5,0.2,0.6,0.4
			c0.1,0.2,0.2,0.4,0.3,0.6c0,0.1,0,0.4,0,0.8v1.2c0,0.8,0,1.3,0.1,1.5c0,0.2,0.1,0.4,0.2,0.6h-0.9
			C709.6,156.8,709.5,156.6,709.5,156.4z M709.4,154.4c-0.3,0.1-0.8,0.2-1.4,0.3c-0.4,0.1-0.6,0.1-0.8,0.2c-0.1,0.1-0.3,0.2-0.3,0.3
			c-0.1,0.1-0.1,0.3-0.1,0.4c0,0.2,0.1,0.4,0.3,0.6s0.4,0.2,0.8,0.2c0.3,0,0.6-0.1,0.9-0.2c0.3-0.1,0.5-0.4,0.6-0.6
			c0.1-0.2,0.1-0.5,0.1-0.9V154.4z"/>
		<path class="st18" d="M711.7,157v-5.2h0.8v0.7c0.4-0.6,0.9-0.9,1.7-0.9c0.3,0,0.6,0.1,0.9,0.2c0.3,0.1,0.5,0.3,0.6,0.4
			c0.1,0.2,0.2,0.4,0.3,0.6c0,0.2,0,0.4,0,0.9v3.2H715v-3.2c0-0.4,0-0.6-0.1-0.8c-0.1-0.2-0.2-0.3-0.4-0.4c-0.2-0.1-0.4-0.2-0.6-0.2
			c-0.4,0-0.7,0.1-1,0.4s-0.4,0.7-0.4,1.4v2.8H711.7z"/>
		<path class="st18" d="M720.6,155.1l0.9,0.1c-0.1,0.6-0.3,1.1-0.7,1.4c-0.4,0.3-0.9,0.5-1.4,0.5c-0.7,0-1.3-0.2-1.7-0.7
			c-0.4-0.5-0.6-1.1-0.6-2c0-0.6,0.1-1,0.3-1.5s0.5-0.7,0.8-0.9c0.4-0.2,0.8-0.3,1.2-0.3c0.6,0,1,0.1,1.4,0.4
			c0.4,0.3,0.6,0.7,0.7,1.2l-0.9,0.1c-0.1-0.3-0.2-0.6-0.4-0.8s-0.5-0.3-0.7-0.3c-0.4,0-0.8,0.2-1.1,0.5c-0.3,0.3-0.4,0.8-0.4,1.5
			c0,0.7,0.1,1.2,0.4,1.5c0.3,0.3,0.6,0.5,1,0.5c0.3,0,0.6-0.1,0.9-0.3C720.4,155.9,720.5,155.5,720.6,155.1z"/>
		<path class="st18" d="M725.8,155.3l0.9,0.1c-0.1,0.5-0.4,0.9-0.8,1.2c-0.4,0.3-0.9,0.4-1.5,0.4c-0.8,0-1.4-0.2-1.8-0.7
			c-0.4-0.5-0.7-1.1-0.7-2c0-0.9,0.2-1.5,0.7-2s1-0.7,1.7-0.7c0.7,0,1.3,0.2,1.7,0.7s0.7,1.1,0.7,2c0,0.1,0,0.1,0,0.2h-3.9
			c0,0.6,0.2,1,0.5,1.3c0.3,0.3,0.7,0.5,1.1,0.5c0.3,0,0.6-0.1,0.8-0.3C725.5,156,725.6,155.7,725.8,155.3z M722.9,153.9h2.9
			c0-0.4-0.1-0.8-0.3-1c-0.3-0.3-0.6-0.5-1.1-0.5c-0.4,0-0.7,0.1-1,0.4S722.9,153.5,722.9,153.9z"/>
	</g>
	<circle class="st17" cx="852.3" cy="146.8" r="29.1"/>
	<g class="st14">
		<path class="st18" d="M837.2,189.8l1.2-0.1c0.1,0.5,0.2,0.9,0.4,1.2c0.2,0.3,0.5,0.6,1,0.8c0.4,0.2,0.9,0.3,1.5,0.3
			c0.5,0,0.9-0.1,1.3-0.2c0.4-0.1,0.7-0.3,0.8-0.6c0.2-0.3,0.3-0.5,0.3-0.8c0-0.3-0.1-0.6-0.3-0.8c-0.2-0.2-0.5-0.4-0.9-0.6
			c-0.3-0.1-0.8-0.3-1.7-0.5c-0.9-0.2-1.5-0.4-1.9-0.6c-0.5-0.2-0.8-0.5-1-0.9s-0.3-0.8-0.3-1.2c0-0.5,0.1-0.9,0.4-1.4
			c0.3-0.4,0.7-0.7,1.2-1s1.1-0.3,1.8-0.3c0.7,0,1.3,0.1,1.9,0.3c0.5,0.2,1,0.6,1.3,1c0.3,0.4,0.5,1,0.5,1.5l-1.2,0.1
			c-0.1-0.6-0.3-1.1-0.7-1.4c-0.4-0.3-0.9-0.5-1.7-0.5c-0.8,0-1.3,0.1-1.7,0.4c-0.4,0.3-0.5,0.6-0.5,1c0,0.3,0.1,0.6,0.4,0.9
			c0.2,0.2,0.9,0.5,1.9,0.7s1.8,0.4,2.1,0.6c0.6,0.3,1,0.6,1.2,1c0.3,0.4,0.4,0.9,0.4,1.4c0,0.5-0.1,1-0.4,1.5
			c-0.3,0.5-0.7,0.8-1.3,1.1c-0.5,0.3-1.2,0.4-1.9,0.4c-0.9,0-1.6-0.1-2.2-0.4c-0.6-0.3-1.1-0.6-1.4-1.1S837.2,190.4,837.2,189.8z"
			/>
		<path class="st18" d="M849.1,191.8l0.2,1c-0.3,0.1-0.6,0.1-0.9,0.1c-0.4,0-0.8-0.1-1-0.2c-0.2-0.1-0.4-0.3-0.5-0.5
			c-0.1-0.2-0.1-0.7-0.1-1.4v-4h-0.9v-0.9h0.9v-1.7l1.2-0.7v2.4h1.2v0.9h-1.2v4.1c0,0.3,0,0.6,0.1,0.7s0.1,0.2,0.2,0.2
			s0.2,0.1,0.4,0.1C848.7,191.9,848.9,191.9,849.1,191.8z"/>
		<path class="st18" d="M854.8,192c-0.4,0.4-0.9,0.6-1.3,0.8c-0.4,0.2-0.8,0.2-1.3,0.2c-0.8,0-1.4-0.2-1.8-0.6
			c-0.4-0.4-0.6-0.9-0.6-1.4c0-0.3,0.1-0.7,0.2-0.9c0.2-0.3,0.4-0.5,0.6-0.7c0.3-0.2,0.5-0.3,0.9-0.4c0.2-0.1,0.6-0.1,1.1-0.2
			c1-0.1,1.7-0.2,2.1-0.4c0-0.2,0-0.3,0-0.3c0-0.5-0.1-0.8-0.3-1c-0.3-0.3-0.8-0.4-1.3-0.4c-0.6,0-1,0.1-1.2,0.3s-0.5,0.5-0.6,1
			l-1.2-0.2c0.1-0.5,0.3-0.9,0.5-1.2c0.2-0.3,0.6-0.5,1-0.7c0.5-0.2,1-0.2,1.6-0.2c0.6,0,1.1,0.1,1.5,0.2c0.4,0.1,0.6,0.3,0.8,0.5
			c0.2,0.2,0.3,0.5,0.4,0.8c0,0.2,0.1,0.6,0.1,1.1v1.6c0,1.1,0,1.8,0.1,2.1s0.2,0.6,0.3,0.8H855C854.9,192.6,854.8,192.4,854.8,192z
			 M854.7,189.4c-0.4,0.2-1.1,0.3-1.9,0.4c-0.5,0.1-0.8,0.1-1,0.2c-0.2,0.1-0.4,0.2-0.5,0.4c-0.1,0.2-0.2,0.4-0.2,0.6
			c0,0.3,0.1,0.6,0.4,0.8c0.2,0.2,0.6,0.3,1,0.3c0.5,0,0.9-0.1,1.2-0.3c0.4-0.2,0.6-0.5,0.8-0.8c0.1-0.3,0.2-0.7,0.2-1.2V189.4z"/>
		<path class="st18" d="M857.7,184.6v-1.4h1.2v1.4H857.7z M857.7,192.9v-7h1.2v7H857.7z"/>
		<path class="st18" d="M860.7,192.9v-7h1.1v1.1c0.3-0.5,0.5-0.8,0.8-1c0.2-0.2,0.5-0.2,0.8-0.2c0.4,0,0.8,0.1,1.2,0.4l-0.4,1.1
			c-0.3-0.2-0.6-0.3-0.9-0.3c-0.3,0-0.5,0.1-0.7,0.2c-0.2,0.2-0.4,0.4-0.4,0.6c-0.1,0.4-0.2,0.9-0.2,1.4v3.7H860.7z"/>
		<path class="st18" d="M864.7,190.8l1.2-0.2c0.1,0.5,0.2,0.8,0.5,1.1c0.3,0.2,0.7,0.4,1.3,0.4c0.5,0,0.9-0.1,1.2-0.3
			c0.3-0.2,0.4-0.5,0.4-0.8c0-0.3-0.1-0.5-0.3-0.6c-0.2-0.1-0.6-0.2-1.2-0.4c-0.9-0.2-1.5-0.4-1.8-0.6c-0.3-0.2-0.6-0.4-0.8-0.7
			s-0.3-0.6-0.3-0.9c0-0.3,0.1-0.6,0.2-0.9c0.1-0.3,0.3-0.5,0.6-0.7c0.2-0.1,0.4-0.3,0.8-0.3c0.3-0.1,0.7-0.1,1-0.1
			c0.5,0,1,0.1,1.4,0.2s0.7,0.4,0.9,0.6s0.3,0.6,0.4,1.1l-1.2,0.2c-0.1-0.4-0.2-0.6-0.5-0.8c-0.3-0.2-0.6-0.3-1.1-0.3
			c-0.5,0-0.9,0.1-1.2,0.3s-0.3,0.4-0.3,0.6c0,0.2,0,0.3,0.1,0.4c0.1,0.1,0.2,0.2,0.5,0.3c0.1,0,0.5,0.1,1,0.3
			c0.8,0.2,1.4,0.4,1.8,0.5s0.6,0.3,0.8,0.6c0.2,0.3,0.3,0.6,0.3,1c0,0.4-0.1,0.8-0.3,1.1c-0.2,0.3-0.6,0.6-1,0.8
			c-0.4,0.2-0.9,0.3-1.5,0.3c-0.9,0-1.6-0.2-2.1-0.6C865.2,192.1,864.9,191.5,864.7,190.8z"/>
	</g>
	<g id="Outline_Icons-9-2-2">
		<line class="st19" x1="840.1" y1="157" x2="862.4" y2="157"/>
		<polyline class="st19" points="858.5,157 858.5,153.1 854.6,153.1 854.6,149.2 850.6,149.2 850.6,145.2 846.8,145.2 846.8,141.4 
			840.1,141.4 		"/>
		<line class="st19" x1="851.7" y1="134.9" x2="863.7" y2="146.9"/>
		<polyline class="st19" points="851.7,139.5 851.7,134.9 856.5,134.9 		"/>
		<polyline class="st19" points="863.7,142.1 863.7,146.9 858.7,146.9 		"/>
	</g>
	
		<ellipse transform="matrix(0.3162 -0.9487 0.9487 0.3162 -320.8659 324.5184)" class="st17" cx="64.7" cy="384.8" rx="29.1" ry="29.1"/>
	<g class="st14">
		<path class="st18" d="M49.6,427.7l1.2-0.1c0.1,0.5,0.2,0.9,0.4,1.2c0.2,0.3,0.5,0.6,1,0.8c0.4,0.2,0.9,0.3,1.5,0.3
			c0.5,0,0.9-0.1,1.3-0.2c0.4-0.1,0.7-0.3,0.8-0.6s0.3-0.5,0.3-0.8c0-0.3-0.1-0.6-0.3-0.8s-0.5-0.4-0.9-0.6
			c-0.3-0.1-0.8-0.3-1.7-0.5c-0.9-0.2-1.5-0.4-1.9-0.6c-0.5-0.2-0.8-0.5-1-0.9s-0.3-0.8-0.3-1.2c0-0.5,0.1-0.9,0.4-1.4
			s0.7-0.7,1.2-1s1.1-0.3,1.8-0.3c0.7,0,1.3,0.1,1.9,0.3c0.5,0.2,1,0.6,1.3,1c0.3,0.4,0.5,1,0.5,1.5l-1.2,0.1
			c-0.1-0.6-0.3-1.1-0.7-1.4c-0.4-0.3-0.9-0.5-1.7-0.5c-0.8,0-1.3,0.1-1.7,0.4c-0.4,0.3-0.5,0.6-0.5,1c0,0.3,0.1,0.6,0.4,0.9
			c0.2,0.2,0.9,0.5,1.9,0.7c1,0.2,1.7,0.4,2.1,0.6c0.6,0.3,1,0.6,1.2,1c0.3,0.4,0.4,0.9,0.4,1.4c0,0.5-0.1,1-0.4,1.5
			c-0.3,0.5-0.7,0.8-1.3,1.1s-1.2,0.4-1.9,0.4c-0.9,0-1.6-0.1-2.2-0.4c-0.6-0.3-1.1-0.6-1.4-1.1S49.7,428.4,49.6,427.7z"/>
		<path class="st18" d="M61.5,429.8l0.2,1c-0.3,0.1-0.6,0.1-0.9,0.1c-0.4,0-0.8-0.1-1-0.2c-0.2-0.1-0.4-0.3-0.5-0.5
			c-0.1-0.2-0.1-0.7-0.1-1.4v-4h-0.9v-0.9h0.9v-1.7l1.2-0.7v2.4h1.2v0.9h-1.2v4.1c0,0.3,0,0.6,0.1,0.7c0,0.1,0.1,0.2,0.2,0.2
			s0.2,0.1,0.4,0.1C61.1,429.8,61.3,429.8,61.5,429.8z"/>
		<path class="st18" d="M67.2,430c-0.4,0.4-0.9,0.6-1.3,0.8c-0.4,0.2-0.8,0.2-1.3,0.2c-0.8,0-1.4-0.2-1.8-0.6
			c-0.4-0.4-0.6-0.9-0.6-1.4c0-0.3,0.1-0.7,0.2-0.9c0.2-0.3,0.4-0.5,0.6-0.7c0.3-0.2,0.5-0.3,0.9-0.4c0.2-0.1,0.6-0.1,1.1-0.2
			c1-0.1,1.7-0.2,2.1-0.4c0-0.2,0-0.3,0-0.3c0-0.5-0.1-0.8-0.3-1c-0.3-0.3-0.8-0.4-1.3-0.4c-0.6,0-1,0.1-1.2,0.3s-0.5,0.5-0.6,1
			l-1.2-0.2c0.1-0.5,0.3-0.9,0.5-1.2s0.6-0.5,1-0.7c0.5-0.2,1-0.2,1.6-0.2c0.6,0,1.1,0.1,1.5,0.2c0.4,0.1,0.6,0.3,0.8,0.5
			c0.2,0.2,0.3,0.5,0.4,0.8c0,0.2,0.1,0.6,0.1,1.1v1.6c0,1.1,0,1.8,0.1,2.1c0.1,0.3,0.1,0.6,0.3,0.8h-1.2
			C67.3,430.6,67.2,430.3,67.2,430z M67.1,427.3c-0.4,0.2-1.1,0.3-1.9,0.4c-0.5,0.1-0.8,0.1-1,0.2c-0.2,0.1-0.4,0.2-0.5,0.4
			c-0.1,0.2-0.2,0.4-0.2,0.6c0,0.3,0.1,0.6,0.4,0.8c0.2,0.2,0.6,0.3,1,0.3c0.5,0,0.9-0.1,1.2-0.3c0.4-0.2,0.6-0.5,0.8-0.8
			c0.1-0.3,0.2-0.7,0.2-1.2V427.3z"/>
		<path class="st18" d="M70.2,422.6v-1.4h1.2v1.4H70.2z M70.2,430.8v-7h1.2v7H70.2z"/>
		<path class="st18" d="M73.1,430.8v-7h1.1v1.1c0.3-0.5,0.5-0.8,0.8-1c0.2-0.2,0.5-0.2,0.8-0.2c0.4,0,0.8,0.1,1.2,0.4l-0.4,1.1
			c-0.3-0.2-0.6-0.3-0.9-0.3c-0.3,0-0.5,0.1-0.7,0.2c-0.2,0.2-0.4,0.4-0.4,0.6c-0.1,0.4-0.2,0.9-0.2,1.4v3.7H73.1z"/>
		<path class="st18" d="M77.2,428.8l1.2-0.2c0.1,0.5,0.2,0.8,0.5,1.1s0.7,0.4,1.3,0.4c0.5,0,0.9-0.1,1.2-0.3
			c0.3-0.2,0.4-0.5,0.4-0.8c0-0.3-0.1-0.5-0.3-0.6c-0.2-0.1-0.6-0.2-1.2-0.4c-0.9-0.2-1.5-0.4-1.8-0.6s-0.6-0.4-0.8-0.7
			s-0.3-0.6-0.3-0.9c0-0.3,0.1-0.6,0.2-0.9c0.1-0.3,0.3-0.5,0.6-0.7c0.2-0.1,0.4-0.3,0.8-0.3c0.3-0.1,0.7-0.1,1-0.1
			c0.5,0,1,0.1,1.4,0.2s0.7,0.4,0.9,0.6c0.2,0.3,0.3,0.6,0.4,1.1l-1.2,0.2c-0.1-0.4-0.2-0.6-0.5-0.8c-0.3-0.2-0.6-0.3-1.1-0.3
			c-0.5,0-0.9,0.1-1.2,0.3c-0.2,0.2-0.3,0.4-0.3,0.6c0,0.2,0,0.3,0.1,0.4c0.1,0.1,0.2,0.2,0.5,0.3c0.1,0,0.5,0.1,1,0.3
			c0.8,0.2,1.4,0.4,1.8,0.5s0.6,0.3,0.8,0.6c0.2,0.3,0.3,0.6,0.3,1c0,0.4-0.1,0.8-0.3,1.1c-0.2,0.3-0.6,0.6-1,0.8
			c-0.4,0.2-0.9,0.3-1.5,0.3c-0.9,0-1.6-0.2-2.1-0.6C77.6,430.1,77.3,429.5,77.2,428.8z"/>
	</g>
	<g id="Outline_Icons-9-2-3">
		<line class="st19" x1="52.5" y1="395" x2="74.8" y2="395"/>
		<polyline class="st19" points="70.9,395 70.9,391 67,391 67,387.1 63,387.1 63,383.2 59.3,383.2 59.3,379.4 52.5,379.4 		"/>
		<line class="st19" x1="64.1" y1="372.9" x2="76.1" y2="384.9"/>
		<polyline class="st19" points="64.1,377.4 64.1,372.9 68.9,372.9 		"/>
		<polyline class="st19" points="76.1,380.1 76.1,384.9 71.1,384.9 		"/>
	</g>
	<g class="st14">
		<path class="st18" d="M474.9,512.8v-8.2h3.1c0.5,0,1,0,1.2,0.1c0.4,0.1,0.7,0.2,1,0.4s0.5,0.5,0.7,0.8s0.2,0.7,0.2,1.1
			c0,0.7-0.2,1.3-0.7,1.8c-0.4,0.5-1.2,0.7-2.4,0.7H476v3.3H474.9z M476,508.6h2.1c0.7,0,1.2-0.1,1.5-0.4s0.4-0.6,0.4-1.1
			c0-0.3-0.1-0.6-0.3-0.9s-0.4-0.4-0.7-0.5c-0.2,0-0.5-0.1-1-0.1H476V508.6z"/>
		<path class="st18" d="M482.4,512.8v-5.9h0.9v0.9c0.2-0.4,0.4-0.7,0.6-0.8s0.4-0.2,0.6-0.2c0.3,0,0.7,0.1,1,0.3l-0.3,0.9
			c-0.2-0.1-0.5-0.2-0.7-0.2c-0.2,0-0.4,0.1-0.6,0.2c-0.2,0.1-0.3,0.3-0.4,0.5c-0.1,0.4-0.2,0.7-0.2,1.2v3.1H482.4z"/>
		<path class="st18" d="M486.2,505.8v-1.2h1v1.2H486.2z M486.2,512.8v-5.9h1v5.9H486.2z"/>
		<path class="st18" d="M488.7,512.8v-5.9h0.9v0.8c0.4-0.6,1.1-1,1.9-1c0.4,0,0.7,0.1,1,0.2s0.5,0.3,0.7,0.5s0.3,0.5,0.3,0.7
			c0,0.2,0.1,0.5,0.1,1v3.6h-1v-3.6c0-0.4,0-0.7-0.1-0.9c-0.1-0.2-0.2-0.4-0.4-0.5c-0.2-0.1-0.4-0.2-0.7-0.2c-0.4,0-0.8,0.1-1.1,0.4
			c-0.3,0.3-0.5,0.8-0.5,1.5v3.2H488.7z"/>
		<path class="st18" d="M497.3,511.9l0.1,0.9c-0.3,0.1-0.5,0.1-0.8,0.1c-0.4,0-0.6-0.1-0.8-0.2c-0.2-0.1-0.3-0.3-0.4-0.5
			c-0.1-0.2-0.1-0.6-0.1-1.2v-3.4h-0.7v-0.8h0.7v-1.5l1-0.6v2.1h1v0.8h-1v3.5c0,0.3,0,0.5,0.1,0.6c0,0.1,0.1,0.1,0.2,0.2
			c0.1,0,0.2,0.1,0.3,0.1C496.9,512,497.1,512,497.3,511.9z"/>
		<path class="st18" d="M502.3,510.9l1,0.1c-0.2,0.6-0.5,1.1-0.9,1.4c-0.4,0.3-1,0.5-1.7,0.5c-0.9,0-1.6-0.3-2.1-0.8
			c-0.5-0.5-0.8-1.3-0.8-2.2c0-1,0.3-1.8,0.8-2.3c0.5-0.5,1.2-0.8,2-0.8c0.8,0,1.4,0.3,1.9,0.8s0.8,1.3,0.8,2.3c0,0.1,0,0.1,0,0.3
			h-4.4c0,0.6,0.2,1.1,0.6,1.5c0.3,0.3,0.7,0.5,1.2,0.5c0.4,0,0.7-0.1,0.9-0.3C501.9,511.7,502.1,511.4,502.3,510.9z M499,509.3h3.3
			c0-0.5-0.2-0.9-0.4-1.1c-0.3-0.4-0.7-0.6-1.2-0.6c-0.5,0-0.8,0.2-1.2,0.5C499.2,508.4,499,508.8,499,509.3z"/>
		<path class="st18" d="M504.6,512.8v-5.9h0.9v0.9c0.2-0.4,0.4-0.7,0.6-0.8s0.4-0.2,0.6-0.2c0.3,0,0.7,0.1,1,0.3l-0.3,0.9
			c-0.2-0.1-0.5-0.2-0.7-0.2c-0.2,0-0.4,0.1-0.6,0.2c-0.2,0.1-0.3,0.3-0.4,0.5c-0.1,0.4-0.2,0.7-0.2,1.2v3.1H504.6z"/>
	</g>
	
		<ellipse transform="matrix(0.4641 -0.8858 0.8858 0.4641 -157.1249 689.0668)" class="st17" cx="490.9" cy="474.4" rx="24.8" ry="24.8"/>
	<g id="Outline_Icons-6-3">
		<g id="Outline_Icons-7">
			<path class="st19" d="M485.3,479.3h-2.5c-0.9-0.1-1.6-0.8-1.7-1.7v-5.4c0.1-0.9,0.8-1.6,1.7-1.7h16.8c0.9,0.1,1.6,0.8,1.7,1.7
				v5.4c-0.1,0.9-0.8,1.6-1.7,1.7H497"/>
			<polyline class="st19" points="485.3,468.8 485.3,465.3 494.1,465.3 496.7,467.8 496.7,468.8 			"/>
			<rect x="485.3" y="476.7" class="st19" width="11.4" height="7.1"/>
			<circle class="st19" cx="483.6" cy="473" r="0.8"/>
			<line class="st19" x1="487" y1="478.4" x2="494.9" y2="478.4"/>
			<line class="st19" x1="487" y1="480.1" x2="494.9" y2="480.1"/>
			<line class="st19" x1="487" y1="481.8" x2="494.9" y2="481.8"/>
			<polyline class="st19" points="494.1,465.3 494.1,467.8 496.7,467.8 			"/>
		</g>
	</g>
	<g class="st14">
		<path class="st18" d="M746.1,223.1v0.8h-4.7c0-0.2,0-0.4,0.1-0.6c0.1-0.3,0.3-0.6,0.6-1c0.3-0.3,0.6-0.7,1.2-1.1
			c0.8-0.6,1.3-1.1,1.6-1.5c0.3-0.4,0.4-0.7,0.4-1.1c0-0.3-0.1-0.6-0.4-0.9c-0.2-0.2-0.6-0.4-1-0.4c-0.4,0-0.8,0.1-1,0.4
			s-0.4,0.6-0.4,1.1l-0.9-0.1c0.1-0.7,0.3-1.2,0.7-1.5c0.4-0.4,0.9-0.5,1.6-0.5c0.7,0,1.2,0.2,1.6,0.6s0.6,0.9,0.6,1.4
			c0,0.3-0.1,0.6-0.2,0.8s-0.3,0.6-0.6,0.9c-0.3,0.3-0.7,0.7-1.4,1.3c-0.5,0.4-0.9,0.7-1,0.9c-0.2,0.2-0.3,0.3-0.4,0.5H746.1z"/>
		<path class="st18" d="M747.5,219.7v-1h1v1H747.5z M747.5,223.9v-1h1v1H747.5z"/>
		<path class="st18" d="M753.1,223.9h-0.9v-5.6c-0.2,0.2-0.5,0.4-0.8,0.6c-0.3,0.2-0.7,0.4-0.9,0.5v-0.8c0.5-0.2,0.9-0.5,1.3-0.8
			c0.4-0.3,0.6-0.6,0.8-1h0.6V223.9z"/>
		<path class="st18" d="M759.9,218.5l-0.9,0.1c-0.1-0.3-0.2-0.6-0.3-0.8c-0.2-0.3-0.5-0.4-0.9-0.4c-0.3,0-0.5,0.1-0.7,0.2
			c-0.3,0.2-0.5,0.5-0.7,0.9c-0.2,0.4-0.2,0.9-0.2,1.7c0.2-0.3,0.5-0.6,0.8-0.7c0.3-0.2,0.6-0.2,1-0.2c0.6,0,1.1,0.2,1.5,0.6
			c0.4,0.4,0.6,1,0.6,1.7c0,0.4-0.1,0.9-0.3,1.3c-0.2,0.4-0.5,0.7-0.8,0.9c-0.3,0.2-0.7,0.3-1.2,0.3c-0.7,0-1.3-0.3-1.8-0.8
			c-0.5-0.5-0.7-1.4-0.7-2.7c0-1.4,0.3-2.4,0.8-3c0.4-0.5,1-0.8,1.8-0.8c0.6,0,1,0.2,1.4,0.5C759.6,217.5,759.8,218,759.9,218.5z
			 M756.3,221.6c0,0.3,0.1,0.6,0.2,0.9c0.1,0.3,0.3,0.5,0.5,0.6c0.2,0.1,0.5,0.2,0.7,0.2c0.4,0,0.7-0.1,1-0.4
			c0.3-0.3,0.4-0.7,0.4-1.2c0-0.5-0.1-0.9-0.4-1.2c-0.3-0.3-0.6-0.4-1-0.4c-0.4,0-0.7,0.1-1,0.4
			C756.5,220.8,756.3,221.1,756.3,221.6z"/>
	</g>
	<g class="st14">
		<path class="st18" d="M434.3,240.3v0.8h-4.7c0-0.2,0-0.4,0.1-0.6c0.1-0.3,0.3-0.6,0.6-1c0.3-0.3,0.6-0.7,1.1-1.1
			c0.8-0.6,1.3-1.1,1.6-1.5c0.3-0.4,0.4-0.7,0.4-1.1c0-0.3-0.1-0.6-0.4-0.9c-0.2-0.2-0.6-0.4-1-0.4c-0.4,0-0.8,0.1-1,0.4
			s-0.4,0.6-0.4,1.1l-0.9-0.1c0.1-0.7,0.3-1.2,0.7-1.5c0.4-0.4,0.9-0.5,1.6-0.5c0.7,0,1.2,0.2,1.6,0.6s0.6,0.9,0.6,1.4
			c0,0.3-0.1,0.6-0.2,0.8s-0.3,0.6-0.6,0.9c-0.3,0.3-0.7,0.7-1.4,1.3c-0.5,0.4-0.9,0.7-1,0.9c-0.1,0.2-0.3,0.3-0.4,0.5H434.3z"/>
		<path class="st18" d="M435.7,236.9v-1h1v1H435.7z M435.7,241.1v-1h1v1H435.7z"/>
		<path class="st18" d="M441.3,241.1h-0.9v-5.6c-0.2,0.2-0.5,0.4-0.8,0.6c-0.3,0.2-0.7,0.4-0.9,0.5v-0.8c0.5-0.2,0.9-0.5,1.3-0.8
			c0.4-0.3,0.6-0.6,0.8-1h0.6V241.1z"/>
		<path class="st18" d="M446.4,241.1v-1.7h-3.1v-0.8l3.3-4.6h0.7v4.6h1v0.8h-1v1.7H446.4z M446.4,238.6v-3.2l-2.2,3.2H446.4z"/>
	</g>
	<g class="st14">
		<path class="st18" d="M229.9,399.6v0.8h-4.7c0-0.2,0-0.4,0.1-0.6c0.1-0.3,0.3-0.6,0.6-1s0.6-0.7,1.1-1.1c0.8-0.6,1.3-1.1,1.6-1.5
			c0.3-0.4,0.4-0.7,0.4-1.1c0-0.3-0.1-0.6-0.4-0.9c-0.2-0.2-0.6-0.4-1-0.4c-0.4,0-0.8,0.1-1,0.4s-0.4,0.6-0.4,1.1l-0.9-0.1
			c0.1-0.7,0.3-1.2,0.7-1.5c0.4-0.4,0.9-0.5,1.6-0.5c0.7,0,1.2,0.2,1.6,0.6s0.6,0.9,0.6,1.4c0,0.3-0.1,0.6-0.2,0.8s-0.3,0.6-0.6,0.9
			s-0.7,0.7-1.4,1.3c-0.5,0.4-0.9,0.7-1,0.9c-0.1,0.2-0.3,0.3-0.4,0.5H229.9z"/>
		<path class="st18" d="M231.3,396.2v-1h1v1H231.3z M231.3,400.4v-1h1v1H231.3z"/>
	</g>
	<g class="st14">
		<path class="st18" d="M236.9,400.4h-0.9v-5.6c-0.2,0.2-0.5,0.4-0.8,0.6s-0.7,0.4-0.9,0.5V395c0.5-0.2,0.9-0.5,1.3-0.8
			s0.6-0.6,0.8-1h0.6V400.4z"/>
	</g>
	<g class="st14">
		<path class="st18" d="M241.8,400.4h-0.9v-5.6c-0.2,0.2-0.5,0.4-0.8,0.6s-0.7,0.4-0.9,0.5V395c0.5-0.2,0.9-0.5,1.3-0.8
			s0.6-0.6,0.8-1h0.6V400.4z"/>
	</g>
	<g class="st14">
		<path class="st18" d="M135,400.4v-7.2h1.4l1.7,5.1c0.2,0.5,0.3,0.8,0.3,1.1c0.1-0.3,0.2-0.6,0.4-1.1l1.7-5h1.3v7.2h-0.9v-6l-2.1,6
			H138l-2.1-6.1v6.1H135z"/>
		<path class="st18" d="M146.7,399.8c-0.3,0.3-0.6,0.5-0.9,0.6s-0.6,0.2-1,0.2c-0.6,0-1-0.1-1.3-0.4c-0.3-0.3-0.5-0.6-0.5-1.1
			c0-0.3,0.1-0.5,0.2-0.7c0.1-0.2,0.3-0.4,0.5-0.5s0.4-0.2,0.6-0.3c0.2,0,0.4-0.1,0.8-0.1c0.7-0.1,1.2-0.2,1.6-0.3
			c0-0.1,0-0.2,0-0.2c0-0.4-0.1-0.6-0.2-0.8c-0.2-0.2-0.6-0.3-1-0.3c-0.4,0-0.7,0.1-0.9,0.2c-0.2,0.1-0.3,0.4-0.4,0.8l-0.9-0.1
			c0.1-0.4,0.2-0.7,0.4-0.9c0.2-0.2,0.4-0.4,0.8-0.5c0.3-0.1,0.7-0.2,1.2-0.2c0.4,0,0.8,0.1,1.1,0.2s0.5,0.2,0.6,0.4
			c0.1,0.2,0.2,0.4,0.3,0.6c0,0.1,0,0.4,0,0.8v1.2c0,0.8,0,1.3,0.1,1.5c0,0.2,0.1,0.4,0.2,0.6h-0.9
			C146.7,400.2,146.7,400,146.7,399.8z M146.6,397.8c-0.3,0.1-0.8,0.2-1.4,0.3c-0.4,0.1-0.6,0.1-0.8,0.2s-0.3,0.2-0.3,0.3
			c-0.1,0.1-0.1,0.3-0.1,0.4c0,0.2,0.1,0.4,0.3,0.6s0.4,0.2,0.8,0.2c0.3,0,0.6-0.1,0.9-0.2c0.3-0.1,0.5-0.4,0.6-0.6
			c0.1-0.2,0.1-0.5,0.1-0.9V397.8z"/>
		<path class="st18" d="M148.8,394.3v-1h0.9v1H148.8z M148.8,400.4v-5.2h0.9v5.2H148.8z"/>
		<path class="st18" d="M151.1,400.4v-5.2h0.8v0.7c0.4-0.6,0.9-0.9,1.7-0.9c0.3,0,0.6,0.1,0.9,0.2c0.3,0.1,0.5,0.3,0.6,0.4
			s0.2,0.4,0.3,0.6c0,0.2,0,0.4,0,0.9v3.2h-0.9v-3.2c0-0.4,0-0.6-0.1-0.8c-0.1-0.2-0.2-0.3-0.4-0.4c-0.2-0.1-0.4-0.2-0.6-0.2
			c-0.4,0-0.7,0.1-1,0.4s-0.4,0.7-0.4,1.4v2.8H151.1z"/>
		<path class="st18" d="M159.5,400.4v-7.2h5.2v0.8h-4.2v2.2h4v0.8h-4v2.4h4.4v0.8H159.5z"/>
		<path class="st18" d="M166.1,400.4v-5.2h0.8v0.7c0.4-0.6,0.9-0.9,1.7-0.9c0.3,0,0.6,0.1,0.9,0.2c0.3,0.1,0.5,0.3,0.6,0.4
			s0.2,0.4,0.3,0.6c0,0.2,0,0.4,0,0.9v3.2h-0.9v-3.2c0-0.4,0-0.6-0.1-0.8c-0.1-0.2-0.2-0.3-0.4-0.4c-0.2-0.1-0.4-0.2-0.6-0.2
			c-0.4,0-0.7,0.1-1,0.4s-0.4,0.7-0.4,1.4v2.8H166.1z"/>
		<path class="st18" d="M173.5,399.6l0.1,0.8c-0.2,0.1-0.5,0.1-0.7,0.1c-0.3,0-0.6-0.1-0.7-0.2s-0.3-0.2-0.4-0.4
			c-0.1-0.2-0.1-0.5-0.1-1v-3h-0.6v-0.7h0.6v-1.3l0.9-0.5v1.8h0.9v0.7h-0.9v3c0,0.3,0,0.4,0,0.5s0.1,0.1,0.2,0.2s0.2,0.1,0.3,0.1
			C173.3,399.6,173.4,399.6,173.5,399.6z"/>
		<path class="st18" d="M174.4,400.4v-5.2h0.8v0.8c0.2-0.4,0.4-0.6,0.6-0.7s0.4-0.2,0.6-0.2c0.3,0,0.6,0.1,0.9,0.3l-0.3,0.8
			c-0.2-0.1-0.4-0.2-0.6-0.2c-0.2,0-0.4,0.1-0.5,0.2c-0.2,0.1-0.3,0.3-0.3,0.5c-0.1,0.3-0.1,0.7-0.1,1v2.7H174.4z"/>
		<path class="st18" d="M181.1,399.8c-0.3,0.3-0.6,0.5-0.9,0.6s-0.6,0.2-1,0.2c-0.6,0-1-0.1-1.3-0.4c-0.3-0.3-0.5-0.6-0.5-1.1
			c0-0.3,0.1-0.5,0.2-0.7c0.1-0.2,0.3-0.4,0.5-0.5s0.4-0.2,0.6-0.3c0.2,0,0.4-0.1,0.8-0.1c0.7-0.1,1.2-0.2,1.6-0.3
			c0-0.1,0-0.2,0-0.2c0-0.4-0.1-0.6-0.2-0.8c-0.2-0.2-0.6-0.3-1-0.3c-0.4,0-0.7,0.1-0.9,0.2c-0.2,0.1-0.3,0.4-0.4,0.8l-0.9-0.1
			c0.1-0.4,0.2-0.7,0.4-0.9c0.2-0.2,0.4-0.4,0.8-0.5c0.3-0.1,0.7-0.2,1.2-0.2c0.4,0,0.8,0.1,1.1,0.2s0.5,0.2,0.6,0.4
			c0.1,0.2,0.2,0.4,0.3,0.6c0,0.1,0,0.4,0,0.8v1.2c0,0.8,0,1.3,0.1,1.5c0,0.2,0.1,0.4,0.2,0.6h-0.9
			C181.2,400.2,181.1,400,181.1,399.8z M181,397.8c-0.3,0.1-0.8,0.2-1.4,0.3c-0.4,0.1-0.6,0.1-0.8,0.2s-0.3,0.2-0.3,0.3
			c-0.1,0.1-0.1,0.3-0.1,0.4c0,0.2,0.1,0.4,0.3,0.6s0.4,0.2,0.8,0.2c0.3,0,0.6-0.1,0.9-0.2c0.3-0.1,0.5-0.4,0.6-0.6
			c0.1-0.2,0.1-0.5,0.1-0.9V397.8z"/>
		<path class="st18" d="M183.3,400.4v-5.2h0.8v0.7c0.4-0.6,0.9-0.9,1.7-0.9c0.3,0,0.6,0.1,0.9,0.2c0.3,0.1,0.5,0.3,0.6,0.4
			s0.2,0.4,0.3,0.6c0,0.2,0,0.4,0,0.9v3.2h-0.9v-3.2c0-0.4,0-0.6-0.1-0.8c-0.1-0.2-0.2-0.3-0.4-0.4c-0.2-0.1-0.4-0.2-0.6-0.2
			c-0.4,0-0.7,0.1-1,0.4s-0.4,0.7-0.4,1.4v2.8H183.3z"/>
		<path class="st18" d="M192.2,398.5l0.9,0.1c-0.1,0.6-0.3,1.1-0.7,1.4c-0.4,0.3-0.9,0.5-1.4,0.5c-0.7,0-1.3-0.2-1.7-0.7
			c-0.4-0.5-0.6-1.1-0.6-2c0-0.6,0.1-1,0.3-1.5s0.5-0.7,0.8-0.9c0.4-0.2,0.8-0.3,1.2-0.3c0.6,0,1,0.1,1.4,0.4
			c0.4,0.3,0.6,0.7,0.7,1.2l-0.9,0.1c-0.1-0.3-0.2-0.6-0.4-0.8s-0.5-0.3-0.7-0.3c-0.4,0-0.8,0.2-1.1,0.5c-0.3,0.3-0.4,0.8-0.4,1.5
			c0,0.7,0.1,1.2,0.4,1.5s0.6,0.5,1,0.5c0.3,0,0.6-0.1,0.9-0.3S192.2,398.9,192.2,398.5z"/>
		<path class="st18" d="M197.4,398.7l0.9,0.1c-0.1,0.5-0.4,0.9-0.8,1.2s-0.9,0.4-1.5,0.4c-0.8,0-1.4-0.2-1.8-0.7
			c-0.4-0.5-0.7-1.1-0.7-2c0-0.9,0.2-1.5,0.7-2s1-0.7,1.7-0.7c0.7,0,1.3,0.2,1.7,0.7s0.7,1.1,0.7,2c0,0.1,0,0.1,0,0.2h-3.9
			c0,0.6,0.2,1,0.5,1.3s0.7,0.5,1.1,0.5c0.3,0,0.6-0.1,0.8-0.3S197.3,399.1,197.4,398.7z M194.5,397.3h2.9c0-0.4-0.1-0.8-0.3-1
			c-0.3-0.3-0.6-0.5-1.1-0.5c-0.4,0-0.7,0.1-1,0.4S194.6,396.9,194.5,397.3z"/>
	</g>
	<g class="st14">
		<path class="st18" d="M752.1,437.4v0.8h-4.7c0-0.2,0-0.4,0.1-0.6c0.1-0.3,0.3-0.6,0.6-1c0.3-0.3,0.6-0.7,1.1-1.1
			c0.8-0.6,1.3-1.1,1.6-1.5c0.3-0.4,0.4-0.7,0.4-1.1c0-0.3-0.1-0.6-0.4-0.9c-0.2-0.2-0.6-0.4-1-0.4c-0.4,0-0.8,0.1-1,0.4
			s-0.4,0.6-0.4,1.1l-0.9-0.1c0.1-0.7,0.3-1.2,0.7-1.5c0.4-0.4,0.9-0.5,1.6-0.5c0.7,0,1.2,0.2,1.6,0.6s0.6,0.9,0.6,1.4
			c0,0.3-0.1,0.6-0.2,0.8s-0.3,0.6-0.6,0.9c-0.3,0.3-0.7,0.7-1.4,1.3c-0.5,0.4-0.9,0.7-1,0.9c-0.1,0.2-0.3,0.3-0.4,0.5H752.1z"/>
		<path class="st18" d="M753.5,434.1v-1h1v1H753.5z M753.5,438.3v-1h1v1H753.5z"/>
		<path class="st18" d="M757.2,434.4c-0.4-0.1-0.6-0.3-0.8-0.6s-0.3-0.5-0.3-0.9c0-0.5,0.2-1,0.6-1.3c0.4-0.4,0.9-0.5,1.5-0.5
			c0.6,0,1.1,0.2,1.5,0.5c0.4,0.4,0.6,0.8,0.6,1.3c0,0.3-0.1,0.6-0.3,0.9c-0.2,0.2-0.4,0.4-0.8,0.6c0.4,0.1,0.8,0.4,1,0.7
			s0.3,0.7,0.3,1.1c0,0.6-0.2,1.1-0.6,1.5c-0.4,0.4-1,0.6-1.7,0.6c-0.7,0-1.3-0.2-1.7-0.6c-0.4-0.4-0.6-0.9-0.6-1.6
			c0-0.5,0.1-0.9,0.4-1.2C756.4,434.7,756.7,434.5,757.2,434.4z M756.7,436.2c0,0.3,0.1,0.5,0.2,0.7c0.1,0.2,0.3,0.4,0.5,0.5
			c0.2,0.1,0.5,0.2,0.8,0.2c0.4,0,0.8-0.1,1-0.4s0.4-0.6,0.4-1c0-0.4-0.1-0.8-0.4-1c-0.3-0.3-0.6-0.4-1.1-0.4c-0.4,0-0.8,0.1-1,0.4
			C756.8,435.4,756.7,435.8,756.7,436.2z M757,432.9c0,0.3,0.1,0.6,0.3,0.8c0.2,0.2,0.5,0.3,0.8,0.3c0.3,0,0.6-0.1,0.8-0.3
			c0.2-0.2,0.3-0.5,0.3-0.8c0-0.3-0.1-0.6-0.3-0.8c-0.2-0.2-0.5-0.3-0.8-0.3c-0.3,0-0.6,0.1-0.8,0.3
			C757.1,432.3,757,432.6,757,432.9z"/>
	</g>
	<g class="st14">
		<path class="st18" d="M886.7,338.8v0.8h-4.7c0-0.2,0-0.4,0.1-0.6c0.1-0.3,0.3-0.6,0.6-1s0.6-0.7,1.1-1.1c0.8-0.6,1.3-1.1,1.6-1.5
			c0.3-0.4,0.4-0.7,0.4-1.1c0-0.3-0.1-0.6-0.4-0.9c-0.2-0.2-0.6-0.4-1-0.4c-0.4,0-0.8,0.1-1,0.4s-0.4,0.6-0.4,1.1l-0.9-0.1
			c0.1-0.7,0.3-1.2,0.7-1.5c0.4-0.4,0.9-0.5,1.6-0.5c0.7,0,1.2,0.2,1.6,0.6s0.6,0.9,0.6,1.4c0,0.3-0.1,0.6-0.2,0.8s-0.3,0.6-0.6,0.9
			s-0.7,0.7-1.4,1.3c-0.5,0.4-0.9,0.7-1,0.9c-0.2,0.2-0.3,0.3-0.4,0.5H886.7z"/>
		<path class="st18" d="M888.1,335.5v-1h1v1H888.1z M888.1,339.6v-1h1v1H888.1z"/>
		<path class="st18" d="M890.4,337.7l0.9-0.1c0.1,0.5,0.3,0.9,0.5,1.1c0.2,0.2,0.5,0.3,0.9,0.3c0.4,0,0.8-0.1,1-0.4s0.4-0.6,0.4-1.1
			c0-0.4-0.1-0.7-0.4-1c-0.3-0.3-0.6-0.4-1-0.4c-0.2,0-0.4,0-0.6,0.1l0.1-0.8c0.1,0,0.1,0,0.1,0c0.4,0,0.7-0.1,1-0.3
			c0.3-0.2,0.4-0.5,0.4-0.9c0-0.3-0.1-0.6-0.3-0.8c-0.2-0.2-0.5-0.3-0.8-0.3c-0.3,0-0.6,0.1-0.9,0.3c-0.2,0.2-0.4,0.5-0.4,1
			l-0.9-0.2c0.1-0.6,0.4-1,0.7-1.4c0.4-0.3,0.9-0.5,1.4-0.5c0.4,0,0.8,0.1,1.1,0.3c0.3,0.2,0.6,0.4,0.8,0.7s0.3,0.6,0.3,0.9
			c0,0.3-0.1,0.6-0.2,0.8s-0.4,0.5-0.7,0.6c0.4,0.1,0.8,0.3,1,0.6c0.2,0.3,0.4,0.7,0.4,1.2c0,0.6-0.2,1.2-0.7,1.6
			c-0.5,0.4-1,0.7-1.7,0.7c-0.6,0-1.2-0.2-1.6-0.6S890.5,338.3,890.4,337.7z"/>
	</g>
	<g class="st14">
		<path class="st18" d="M1026.8,338.9v0.8h-4.7c0-0.2,0-0.4,0.1-0.6c0.1-0.3,0.3-0.6,0.6-1c0.3-0.3,0.6-0.7,1.2-1.1
			c0.8-0.6,1.3-1.1,1.6-1.5c0.3-0.4,0.4-0.7,0.4-1.1c0-0.3-0.1-0.6-0.4-0.9c-0.2-0.2-0.6-0.4-1-0.4c-0.4,0-0.8,0.1-1,0.4
			s-0.4,0.6-0.4,1.1l-0.9-0.1c0.1-0.7,0.3-1.2,0.7-1.5c0.4-0.4,0.9-0.5,1.6-0.5c0.7,0,1.2,0.2,1.6,0.6s0.6,0.9,0.6,1.4
			c0,0.3-0.1,0.6-0.2,0.8s-0.3,0.6-0.6,0.9c-0.3,0.3-0.7,0.7-1.4,1.3c-0.5,0.4-0.9,0.7-1,0.9c-0.2,0.2-0.3,0.3-0.4,0.5H1026.8z"/>
		<path class="st18" d="M1028.3,335.6v-1h1v1H1028.3z M1028.3,339.8v-1h1v1H1028.3z"/>
		<path class="st18" d="M1035.2,338.9v0.8h-4.7c0-0.2,0-0.4,0.1-0.6c0.1-0.3,0.3-0.6,0.6-1c0.3-0.3,0.6-0.7,1.2-1.1
			c0.8-0.6,1.3-1.1,1.6-1.5c0.3-0.4,0.4-0.7,0.4-1.1c0-0.3-0.1-0.6-0.4-0.9c-0.2-0.2-0.6-0.4-1-0.4c-0.4,0-0.8,0.1-1,0.4
			s-0.4,0.6-0.4,1.1l-0.9-0.1c0.1-0.7,0.3-1.2,0.7-1.5c0.4-0.4,0.9-0.5,1.6-0.5c0.7,0,1.2,0.2,1.6,0.6s0.6,0.9,0.6,1.4
			c0,0.3-0.1,0.6-0.2,0.8s-0.3,0.6-0.6,0.9c-0.3,0.3-0.7,0.7-1.4,1.3c-0.5,0.4-0.9,0.7-1,0.9c-0.2,0.2-0.3,0.3-0.4,0.5H1035.2z"/>
	</g>
	<g class="st14">
		<path class="st18" d="M1030.5,410.4v0.8h-4.7c0-0.2,0-0.4,0.1-0.6c0.1-0.3,0.3-0.6,0.6-1c0.3-0.3,0.6-0.7,1.1-1.1
			c0.8-0.6,1.3-1.1,1.6-1.5c0.3-0.4,0.4-0.7,0.4-1.1c0-0.3-0.1-0.6-0.4-0.9c-0.2-0.2-0.6-0.4-1-0.4c-0.4,0-0.8,0.1-1,0.4
			s-0.4,0.6-0.4,1.1l-0.9-0.1c0.1-0.7,0.3-1.2,0.7-1.5c0.4-0.4,0.9-0.5,1.6-0.5c0.7,0,1.2,0.2,1.6,0.6s0.6,0.9,0.6,1.4
			c0,0.3-0.1,0.6-0.2,0.8c-0.1,0.3-0.3,0.6-0.6,0.9c-0.3,0.3-0.7,0.7-1.4,1.3c-0.5,0.4-0.9,0.7-1,0.9c-0.1,0.2-0.3,0.3-0.4,0.5
			H1030.5z"/>
		<path class="st18" d="M1031.9,407.1v-1h1v1H1031.9z M1031.9,411.3v-1h1v1H1031.9z"/>
		<path class="st18" d="M1037,411.3v-1.7h-3.1v-0.8l3.3-4.6h0.7v4.6h1v0.8h-1v1.7H1037z M1037,408.8v-3.2l-2.2,3.2H1037z"/>
	</g>
	<g class="st14">
		<path class="st18" d="M1030.8,537.9v0.8h-4.7c0-0.2,0-0.4,0.1-0.6c0.1-0.3,0.3-0.6,0.6-1c0.3-0.3,0.6-0.7,1.1-1.1
			c0.8-0.6,1.3-1.1,1.6-1.5c0.3-0.4,0.4-0.7,0.4-1.1c0-0.3-0.1-0.6-0.4-0.9c-0.2-0.2-0.6-0.4-1-0.4c-0.4,0-0.8,0.1-1,0.4
			s-0.4,0.6-0.4,1.1l-0.9-0.1c0.1-0.7,0.3-1.2,0.7-1.5c0.4-0.4,0.9-0.5,1.6-0.5c0.7,0,1.2,0.2,1.6,0.6s0.6,0.9,0.6,1.4
			c0,0.3-0.1,0.6-0.2,0.8s-0.3,0.6-0.6,0.9c-0.3,0.3-0.7,0.7-1.4,1.3c-0.5,0.4-0.9,0.7-1,0.9c-0.1,0.2-0.3,0.3-0.4,0.5H1030.8z"/>
		<path class="st18" d="M1032.2,534.5v-1h1v1H1032.2z M1032.2,538.7v-1h1v1H1032.2z"/>
		<path class="st18" d="M1034.5,536.9l0.9-0.1c0.1,0.4,0.2,0.8,0.5,1c0.2,0.2,0.5,0.3,0.9,0.3c0.4,0,0.8-0.2,1.1-0.5
			s0.4-0.7,0.4-1.3c0-0.5-0.1-0.9-0.4-1.2c-0.3-0.3-0.7-0.4-1.1-0.4c-0.3,0-0.5,0.1-0.8,0.2c-0.2,0.1-0.4,0.3-0.5,0.5l-0.8-0.1
			l0.7-3.7h3.6v0.8h-2.9l-0.4,1.9c0.4-0.3,0.9-0.4,1.4-0.4c0.6,0,1.2,0.2,1.6,0.6s0.6,1,0.6,1.7c0,0.6-0.2,1.2-0.6,1.7
			c-0.5,0.6-1.1,0.9-1.9,0.9c-0.7,0-1.2-0.2-1.6-0.5C1034.8,537.9,1034.5,537.5,1034.5,536.9z"/>
	</g>
	<circle class="st17" cx="538" cy="312.7" r="22.3"/>
	<g class="st14">
		<path class="st18" d="M531,345.9l1,0.2c-0.2,0.8-0.6,1.4-1.1,1.8c-0.5,0.4-1.2,0.6-2,0.6c-0.8,0-1.4-0.2-1.9-0.5
			c-0.5-0.3-0.9-0.8-1.1-1.4c-0.3-0.6-0.4-1.3-0.4-2c0-0.8,0.1-1.4,0.4-2c0.3-0.6,0.7-1,1.3-1.3c0.5-0.3,1.1-0.4,1.8-0.4
			c0.7,0,1.4,0.2,1.9,0.6s0.9,0.9,1.1,1.6l-1,0.2c-0.2-0.5-0.4-0.9-0.7-1.2c-0.3-0.2-0.7-0.4-1.2-0.4c-0.6,0-1,0.1-1.4,0.4
			c-0.4,0.3-0.6,0.6-0.8,1.1s-0.2,0.9-0.2,1.4c0,0.6,0.1,1.2,0.3,1.6c0.2,0.5,0.5,0.8,0.9,1c0.4,0.2,0.8,0.3,1.3,0.3
			c0.5,0,1-0.2,1.4-0.5C530.6,347,530.9,346.5,531,345.9z"/>
		<path class="st18" d="M532.8,345.8c0-1,0.3-1.7,0.8-2.2c0.5-0.4,1-0.6,1.7-0.6c0.7,0,1.3,0.2,1.8,0.7c0.5,0.5,0.7,1.1,0.7,2
			c0,0.7-0.1,1.2-0.3,1.6c-0.2,0.4-0.5,0.7-0.9,0.9c-0.4,0.2-0.8,0.3-1.3,0.3c-0.7,0-1.4-0.2-1.8-0.7
			C533,347.4,532.8,346.7,532.8,345.8z M533.7,345.8c0,0.7,0.1,1.2,0.4,1.5c0.3,0.3,0.7,0.5,1.1,0.5c0.4,0,0.8-0.2,1.1-0.5
			c0.3-0.3,0.4-0.9,0.4-1.6c0-0.7-0.2-1.2-0.5-1.5c-0.3-0.3-0.7-0.5-1.1-0.5c-0.5,0-0.8,0.2-1.1,0.5S533.7,345.1,533.7,345.8z"/>
		<path class="st18" d="M542.3,347.8c-0.3,0.3-0.7,0.5-1,0.6c-0.3,0.1-0.6,0.2-1,0.2c-0.6,0-1-0.1-1.4-0.4s-0.5-0.7-0.5-1.1
			c0-0.3,0.1-0.5,0.2-0.7c0.1-0.2,0.3-0.4,0.5-0.5s0.4-0.2,0.7-0.3c0.2,0,0.4-0.1,0.8-0.1c0.7-0.1,1.3-0.2,1.6-0.3
			c0-0.1,0-0.2,0-0.2c0-0.4-0.1-0.6-0.3-0.8c-0.2-0.2-0.6-0.3-1-0.3c-0.4,0-0.7,0.1-0.9,0.2s-0.4,0.4-0.5,0.8l-0.9-0.1
			c0.1-0.4,0.2-0.7,0.4-0.9s0.5-0.4,0.8-0.5c0.3-0.1,0.8-0.2,1.2-0.2c0.5,0,0.8,0.1,1.1,0.2c0.3,0.1,0.5,0.2,0.6,0.4
			s0.2,0.4,0.3,0.6c0,0.2,0,0.4,0,0.8v1.2c0,0.8,0,1.4,0.1,1.6c0,0.2,0.1,0.4,0.2,0.6h-0.9C542.4,348.3,542.4,348.1,542.3,347.8z
			 M542.3,345.8c-0.3,0.1-0.8,0.2-1.5,0.3c-0.4,0.1-0.6,0.1-0.8,0.2c-0.2,0.1-0.3,0.2-0.4,0.3c-0.1,0.1-0.1,0.3-0.1,0.4
			c0,0.2,0.1,0.4,0.3,0.6c0.2,0.2,0.5,0.2,0.8,0.2c0.3,0,0.7-0.1,0.9-0.2c0.3-0.2,0.5-0.4,0.6-0.6c0.1-0.2,0.1-0.5,0.1-0.9V345.8z"
			/>
		<path class="st18" d="M546.6,347.7l0.1,0.8c-0.3,0.1-0.5,0.1-0.7,0.1c-0.3,0-0.6-0.1-0.8-0.2c-0.2-0.1-0.3-0.2-0.4-0.4
			c-0.1-0.2-0.1-0.5-0.1-1.1v-3.1h-0.7v-0.7h0.7v-1.3l0.9-0.5v1.9h0.9v0.7h-0.9v3.1c0,0.3,0,0.4,0,0.5c0,0.1,0.1,0.1,0.2,0.2
			c0.1,0,0.2,0.1,0.3,0.1C546.3,347.7,546.4,347.7,546.6,347.7z"/>
		<path class="st18" d="M547.1,346.9l0.9-0.1c0.1,0.4,0.2,0.6,0.4,0.8s0.6,0.3,1,0.3c0.4,0,0.7-0.1,0.9-0.3c0.2-0.2,0.3-0.4,0.3-0.6
			c0-0.2-0.1-0.4-0.3-0.5c-0.1-0.1-0.4-0.2-0.9-0.3c-0.7-0.2-1.1-0.3-1.4-0.4c-0.3-0.1-0.5-0.3-0.6-0.5c-0.1-0.2-0.2-0.5-0.2-0.7
			c0-0.2,0.1-0.5,0.2-0.7s0.3-0.4,0.4-0.5c0.1-0.1,0.3-0.2,0.6-0.3s0.5-0.1,0.8-0.1c0.4,0,0.8,0.1,1.1,0.2c0.3,0.1,0.6,0.3,0.7,0.5
			c0.2,0.2,0.3,0.5,0.3,0.8l-0.9,0.1c0-0.3-0.2-0.5-0.4-0.6s-0.5-0.2-0.8-0.2c-0.4,0-0.7,0.1-0.9,0.2c-0.2,0.1-0.3,0.3-0.3,0.5
			c0,0.1,0,0.2,0.1,0.3c0.1,0.1,0.2,0.2,0.3,0.2c0.1,0,0.4,0.1,0.8,0.2c0.6,0.2,1.1,0.3,1.3,0.4c0.3,0.1,0.5,0.3,0.6,0.5
			c0.1,0.2,0.2,0.5,0.2,0.8c0,0.3-0.1,0.6-0.3,0.9c-0.2,0.3-0.4,0.5-0.8,0.6c-0.3,0.1-0.7,0.2-1.1,0.2c-0.7,0-1.2-0.1-1.6-0.4
			C547.4,347.9,547.2,347.4,547.1,346.9z"/>
	</g>
	<path class="st19" d="M536.4,300.6c0.2,3.8,0.9,7.5,1.9,11.1v5.9c-0.2,1.8-1.3,3.4-2.8,4.4h-3v-8.7"/>
	<path class="st19" d="M538.5,300.4h-2.2l-4.8,2.2c-2.6,5.2-4,11-4.1,16.8h3.3c0.6-3.2,1.3-6.3,2.2-9.4"/>
	<path class="st19" d="M533.6,301.6c0.5,3.8,2.2,7.3,4.8,10.1"/>
	<path class="st19" d="M534.3,315.6h2.8"/>
	<path class="st19" d="M540.6,300.6c-0.4,3.8-1.1,7.5-2.2,11.1v5.9c0.2,1.8,1.3,3.4,2.8,4.4h3.7v-8.7"/>
	<path class="st19" d="M538.5,300.4h2.2l4.8,2.2c2.6,5.2,4,11,4.1,16.8h-3.3c-0.6-3.2-1.3-6.3-2.2-9.4"/>
	<path class="st19" d="M543.2,301.6c-0.5,3.8-2.2,7.3-4.8,10.1"/>
	<path class="st19" d="M542.6,315.6h-2.4"/>
	<g class="st14">
		<path class="st18" d="M441,608.8v0.8h-4.7c0-0.2,0-0.4,0.1-0.6c0.1-0.3,0.3-0.6,0.6-1s0.6-0.7,1.1-1.1c0.8-0.6,1.3-1.1,1.6-1.5
			c0.3-0.4,0.4-0.7,0.4-1.1c0-0.3-0.1-0.6-0.4-0.9c-0.2-0.2-0.6-0.4-1-0.4c-0.4,0-0.8,0.1-1,0.4s-0.4,0.6-0.4,1.1l-0.9-0.1
			c0.1-0.7,0.3-1.2,0.7-1.5c0.4-0.4,0.9-0.5,1.6-0.5c0.7,0,1.2,0.2,1.6,0.6s0.6,0.9,0.6,1.4c0,0.3-0.1,0.6-0.2,0.8s-0.3,0.6-0.6,0.9
			s-0.7,0.7-1.4,1.3c-0.5,0.4-0.9,0.7-1,0.9c-0.1,0.2-0.3,0.3-0.4,0.5H441z"/>
		<path class="st18" d="M442.4,605.5v-1h1v1H442.4z M442.4,609.7v-1h1v1H442.4z"/>
		<path class="st18" d="M448,609.7h-0.9v-5.6c-0.2,0.2-0.5,0.4-0.8,0.6s-0.7,0.4-0.9,0.5v-0.8c0.5-0.2,0.9-0.5,1.3-0.8
			s0.6-0.6,0.8-1h0.6V609.7z"/>
		<path class="st18" d="M454.9,608.8v0.8h-4.7c0-0.2,0-0.4,0.1-0.6c0.1-0.3,0.3-0.6,0.6-1s0.6-0.7,1.1-1.1c0.8-0.6,1.3-1.1,1.6-1.5
			c0.3-0.4,0.4-0.7,0.4-1.1c0-0.3-0.1-0.6-0.4-0.9c-0.2-0.2-0.6-0.4-1-0.4c-0.4,0-0.8,0.1-1,0.4s-0.4,0.6-0.4,1.1l-0.9-0.1
			c0.1-0.7,0.3-1.2,0.7-1.5c0.4-0.4,0.9-0.5,1.6-0.5c0.7,0,1.2,0.2,1.6,0.6s0.6,0.9,0.6,1.4c0,0.3-0.1,0.6-0.2,0.8s-0.3,0.6-0.6,0.9
			s-0.7,0.7-1.4,1.3c-0.5,0.4-0.9,0.7-1,0.9c-0.1,0.2-0.3,0.3-0.4,0.5H454.9z"/>
	</g>
	<circle class="st21" cx="846.6" cy="397.5" r="15.6"/>
	<path class="st22" d="M848.8,399.6c-0.1,0.3-0.2,0.6-0.2,1v4.4c0,0.3-0.2,0.4-0.5,0.4h-3.2c-0.2,0-0.4-0.2-0.4-0.4
		c0-0.2,0-0.5,0-0.7v-3.8c0-0.9-0.1-1-1.1-1h-3.9c-0.2,0-0.5,0-0.7-0.1c-0.2,0-0.4-0.2-0.4-0.4v-2.7c0-0.8,0.1-0.9,0.9-0.9h4.7
		c0.2,0,0.3-0.1,0.4-0.3l0,0c0.1-0.3,0.1-0.5,0.1-0.8v-3.7c0-0.2,0-0.5,0.1-0.7c0-0.2,0.2-0.4,0.4-0.4h2.9c0.4,0,0.6,0.1,0.6,0.6v4
		c0,1.3,0,1.3,1.3,1.3h3.8c0.8,0,0.9,0.1,0.9,0.9v2.7c0,0.2-0.1,0.3-0.3,0.4l0,0c-0.2,0-0.5,0.1-0.7,0.1h-3.8
		C849.3,399.5,849,399.5,848.8,399.6z"/>
	<g>
		<g class="st14">
			<path class="st18" d="M835.6,422.1V417h3.4v0.6h-2.7v1.6h2.4v0.6h-2.4v2.3H835.6z"/>
			<path class="st18" d="M839.8,417.7V417h0.6v0.7H839.8z M839.8,422.1v-3.7h0.6v3.7H839.8z"/>
			<path class="st18" d="M841.3,422.1v-3.7h0.6v0.6c0.1-0.3,0.3-0.4,0.4-0.5s0.3-0.1,0.4-0.1c0.2,0,0.4,0.1,0.6,0.2l-0.2,0.6
				c-0.2-0.1-0.3-0.1-0.5-0.1c-0.1,0-0.3,0-0.4,0.1c-0.1,0.1-0.2,0.2-0.2,0.3c-0.1,0.2-0.1,0.5-0.1,0.7v1.9H841.3z"/>
			<path class="st18" d="M843.4,421l0.6-0.1c0,0.2,0.1,0.4,0.3,0.6c0.2,0.1,0.4,0.2,0.7,0.2c0.3,0,0.5-0.1,0.6-0.2
				c0.1-0.1,0.2-0.3,0.2-0.4c0-0.1-0.1-0.3-0.2-0.3c-0.1-0.1-0.3-0.1-0.6-0.2c-0.5-0.1-0.8-0.2-0.9-0.3s-0.3-0.2-0.4-0.3
				c-0.1-0.1-0.1-0.3-0.1-0.5c0-0.2,0-0.3,0.1-0.5c0.1-0.1,0.2-0.3,0.3-0.3c0.1-0.1,0.2-0.1,0.4-0.2s0.3-0.1,0.5-0.1
				c0.3,0,0.5,0,0.8,0.1s0.4,0.2,0.5,0.3s0.2,0.3,0.2,0.6l-0.6,0.1c0-0.2-0.1-0.3-0.2-0.4c-0.1-0.1-0.3-0.2-0.6-0.2
				c-0.3,0-0.5,0-0.6,0.1c-0.1,0.1-0.2,0.2-0.2,0.3c0,0.1,0,0.2,0.1,0.2c0.1,0.1,0.1,0.1,0.2,0.2c0.1,0,0.2,0.1,0.5,0.2
				c0.4,0.1,0.7,0.2,0.9,0.3s0.3,0.2,0.4,0.3c0.1,0.1,0.1,0.3,0.1,0.5c0,0.2-0.1,0.4-0.2,0.6c-0.1,0.2-0.3,0.3-0.5,0.4
				c-0.2,0.1-0.5,0.2-0.8,0.2c-0.5,0-0.8-0.1-1.1-0.3S843.5,421.3,843.4,421z"/>
			<path class="st18" d="M848.6,421.5l0.1,0.5c-0.2,0-0.3,0.1-0.5,0.1c-0.2,0-0.4,0-0.5-0.1c-0.1-0.1-0.2-0.2-0.3-0.3
				c-0.1-0.1-0.1-0.4-0.1-0.7v-2.1h-0.5v-0.5h0.5v-0.9l0.6-0.4v1.3h0.6v0.5H848v2.1c0,0.2,0,0.3,0,0.3s0.1,0.1,0.1,0.1
				c0,0,0.1,0,0.2,0C848.4,421.5,848.5,421.5,848.6,421.5z"/>
		</g>
		<g class="st14">
			<path class="st18" d="M850.3,422.1l1.9-5.1h0.7l2.1,5.1h-0.8l-0.6-1.5h-2.1l-0.6,1.5H850.3z M851.8,420h1.7l-0.5-1.4
				c-0.2-0.4-0.3-0.8-0.4-1.1c-0.1,0.3-0.2,0.6-0.3,1L851.8,420z"/>
			<path class="st18" d="M855.5,417.7V417h0.6v0.7H855.5z M855.5,422.1v-3.7h0.6v3.7H855.5z"/>
			<path class="st18" d="M859.4,422.1v-0.5c-0.2,0.4-0.6,0.5-1,0.5c-0.3,0-0.6-0.1-0.8-0.2s-0.4-0.4-0.6-0.7s-0.2-0.6-0.2-1
				c0-0.4,0.1-0.7,0.2-1c0.1-0.3,0.3-0.5,0.5-0.7s0.5-0.2,0.8-0.2c0.2,0,0.4,0,0.6,0.1s0.3,0.2,0.4,0.4V417h0.6v5.1H859.4z
				 M857.5,420.2c0,0.5,0.1,0.8,0.3,1.1s0.4,0.3,0.7,0.3c0.3,0,0.5-0.1,0.7-0.3c0.2-0.2,0.3-0.6,0.3-1c0-0.5-0.1-0.9-0.3-1.1
				c-0.2-0.2-0.4-0.4-0.7-0.4c-0.3,0-0.5,0.1-0.7,0.3C857.6,419.4,857.5,419.7,857.5,420.2z"/>
		</g>
	</g>
	<g class="st14">
		<path class="st18" d="M900.1,276.4l-1.9-7.2h1l1.1,4.7c0.1,0.5,0.2,1,0.3,1.5c0.2-0.8,0.3-1.2,0.3-1.3l1.4-4.8h1.1l1,3.6
			c0.3,0.9,0.4,1.7,0.6,2.5c0.1-0.5,0.2-1,0.4-1.6l1.1-4.6h1l-2,7.2h-0.9l-1.5-5.5c-0.1-0.5-0.2-0.7-0.2-0.8
			c-0.1,0.3-0.1,0.6-0.2,0.8l-1.5,5.5H900.1z"/>
		<path class="st18" d="M907.7,273.8c0-1,0.3-1.7,0.8-2.1c0.4-0.4,1-0.6,1.6-0.6c0.7,0,1.3,0.2,1.7,0.7c0.5,0.5,0.7,1.1,0.7,1.9
			c0,0.7-0.1,1.2-0.3,1.6c-0.2,0.4-0.5,0.7-0.9,0.9c-0.4,0.2-0.8,0.3-1.3,0.3c-0.7,0-1.3-0.2-1.8-0.7
			C907.9,275.3,907.7,274.7,907.7,273.8z M908.6,273.8c0,0.7,0.1,1.2,0.4,1.5c0.3,0.3,0.7,0.5,1.1,0.5c0.4,0,0.8-0.2,1.1-0.5
			c0.3-0.3,0.4-0.8,0.4-1.5c0-0.6-0.1-1.1-0.4-1.5c-0.3-0.3-0.7-0.5-1.1-0.5c-0.4,0-0.8,0.2-1.1,0.5
			C908.7,272.6,908.6,273.1,908.6,273.8z"/>
		<path class="st18" d="M913.6,276.4v-5.2h0.8v0.8c0.2-0.4,0.4-0.6,0.6-0.7s0.4-0.2,0.6-0.2c0.3,0,0.6,0.1,0.9,0.3l-0.3,0.8
			c-0.2-0.1-0.4-0.2-0.6-0.2c-0.2,0-0.4,0.1-0.5,0.2c-0.2,0.1-0.3,0.3-0.3,0.5c-0.1,0.3-0.1,0.7-0.1,1v2.7H913.6z"/>
		<path class="st18" d="M916.9,276.4v-7.2h0.9v4.1l2.1-2.1h1.1l-2,1.9l2.2,3.3h-1.1l-1.7-2.7l-0.6,0.6v2.1H916.9z"/>
		<path class="st18" d="M921.6,274.8l0.9-0.1c0,0.3,0.2,0.6,0.4,0.8c0.2,0.2,0.5,0.3,0.9,0.3c0.4,0,0.7-0.1,0.9-0.2
			c0.2-0.2,0.3-0.4,0.3-0.6c0-0.2-0.1-0.4-0.3-0.5c-0.1-0.1-0.4-0.2-0.9-0.3c-0.6-0.2-1.1-0.3-1.3-0.4c-0.2-0.1-0.4-0.3-0.6-0.5
			c-0.1-0.2-0.2-0.4-0.2-0.7c0-0.2,0.1-0.4,0.2-0.6c0.1-0.2,0.2-0.4,0.4-0.5c0.1-0.1,0.3-0.2,0.6-0.3c0.2-0.1,0.5-0.1,0.8-0.1
			c0.4,0,0.8,0.1,1.1,0.2s0.5,0.3,0.7,0.5c0.1,0.2,0.2,0.5,0.3,0.8l-0.9,0.1c0-0.3-0.2-0.5-0.3-0.6c-0.2-0.1-0.5-0.2-0.8-0.2
			c-0.4,0-0.7,0.1-0.9,0.2c-0.2,0.1-0.3,0.3-0.3,0.5c0,0.1,0,0.2,0.1,0.3c0.1,0.1,0.2,0.2,0.3,0.2c0.1,0,0.3,0.1,0.8,0.2
			c0.6,0.2,1.1,0.3,1.3,0.4c0.2,0.1,0.4,0.3,0.6,0.5c0.1,0.2,0.2,0.5,0.2,0.8c0,0.3-0.1,0.6-0.3,0.8c-0.2,0.3-0.4,0.5-0.7,0.6
			c-0.3,0.1-0.7,0.2-1.1,0.2c-0.7,0-1.2-0.1-1.5-0.4C921.9,275.8,921.7,275.4,921.6,274.8z"/>
		<path class="st18" d="M926.9,276.4v-7.2h0.9v2.6c0.4-0.5,0.9-0.7,1.6-0.7c0.4,0,0.7,0.1,1,0.2c0.3,0.2,0.5,0.4,0.6,0.6
			s0.2,0.7,0.2,1.2v3.3h-0.9v-3.3c0-0.4-0.1-0.8-0.3-1c-0.2-0.2-0.5-0.3-0.8-0.3c-0.3,0-0.5,0.1-0.7,0.2c-0.2,0.1-0.4,0.3-0.5,0.5
			s-0.1,0.5-0.1,1v2.8H926.9z"/>
		<path class="st18" d="M932.1,273.8c0-1,0.3-1.7,0.8-2.1c0.4-0.4,1-0.6,1.6-0.6c0.7,0,1.3,0.2,1.7,0.7c0.5,0.5,0.7,1.1,0.7,1.9
			c0,0.7-0.1,1.2-0.3,1.6c-0.2,0.4-0.5,0.7-0.9,0.9c-0.4,0.2-0.8,0.3-1.3,0.3c-0.7,0-1.3-0.2-1.8-0.7
			C932.4,275.3,932.1,274.7,932.1,273.8z M933,273.8c0,0.7,0.1,1.2,0.4,1.5c0.3,0.3,0.7,0.5,1.1,0.5c0.4,0,0.8-0.2,1.1-0.5
			c0.3-0.3,0.4-0.8,0.4-1.5c0-0.6-0.1-1.1-0.4-1.5c-0.3-0.3-0.7-0.5-1.1-0.5c-0.4,0-0.8,0.2-1.1,0.5
			C933.2,272.6,933,273.1,933,273.8z"/>
		<path class="st18" d="M938,278.4v-7.2h0.8v0.7c0.2-0.3,0.4-0.5,0.6-0.6c0.2-0.1,0.5-0.2,0.9-0.2c0.4,0,0.8,0.1,1.2,0.3
			c0.3,0.2,0.6,0.5,0.8,1c0.2,0.4,0.3,0.9,0.3,1.4c0,0.5-0.1,1-0.3,1.4c-0.2,0.4-0.5,0.8-0.8,1c-0.4,0.2-0.7,0.3-1.1,0.3
			c-0.3,0-0.6-0.1-0.8-0.2c-0.2-0.1-0.4-0.3-0.6-0.5v2.5H938z M938.8,273.8c0,0.7,0.1,1.2,0.4,1.5c0.3,0.3,0.6,0.5,1,0.5
			c0.4,0,0.7-0.2,1-0.5c0.3-0.3,0.4-0.8,0.4-1.5c0-0.7-0.1-1.2-0.4-1.5c-0.3-0.3-0.6-0.5-1-0.5c-0.4,0-0.7,0.2-1,0.5
			C939,272.7,938.8,273.2,938.8,273.8z"/>
		<path class="st18" d="M945.1,276.4l2.7-7.2h1l2.9,7.2h-1.1l-0.8-2.2h-3l-0.8,2.2H945.1z M947.2,273.5h2.4l-0.7-2
			c-0.2-0.6-0.4-1.1-0.5-1.5c-0.1,0.5-0.2,0.9-0.4,1.4L947.2,273.5z"/>
		<path class="st18" d="M952.5,276.4v-5.2h0.8v0.8c0.2-0.4,0.4-0.6,0.6-0.7s0.4-0.2,0.6-0.2c0.3,0,0.6,0.1,0.9,0.3l-0.3,0.8
			c-0.2-0.1-0.4-0.2-0.6-0.2c-0.2,0-0.4,0.1-0.5,0.2c-0.2,0.1-0.3,0.3-0.3,0.5c-0.1,0.3-0.1,0.7-0.1,1v2.7H952.5z"/>
		<path class="st18" d="M959.4,274.7l0.9,0.1c-0.1,0.5-0.4,0.9-0.8,1.2c-0.4,0.3-0.9,0.4-1.5,0.4c-0.8,0-1.4-0.2-1.8-0.7
			c-0.4-0.5-0.7-1.1-0.7-2c0-0.9,0.2-1.5,0.7-2s1-0.7,1.7-0.7c0.7,0,1.3,0.2,1.7,0.7s0.7,1.1,0.7,2c0,0.1,0,0.1,0,0.2h-3.9
			c0,0.6,0.2,1,0.5,1.3c0.3,0.3,0.7,0.5,1.1,0.5c0.3,0,0.6-0.1,0.8-0.3C959.1,275.4,959.2,275.1,959.4,274.7z M956.5,273.3h2.9
			c0-0.4-0.1-0.8-0.3-1c-0.3-0.3-0.6-0.5-1.1-0.5c-0.4,0-0.7,0.1-1,0.4C956.7,272.5,956.5,272.8,956.5,273.3z"/>
		<path class="st18" d="M964.8,275.8c-0.3,0.3-0.6,0.5-0.9,0.6c-0.3,0.1-0.6,0.2-1,0.2c-0.6,0-1-0.1-1.3-0.4
			c-0.3-0.3-0.5-0.6-0.5-1.1c0-0.3,0.1-0.5,0.2-0.7c0.1-0.2,0.3-0.4,0.5-0.5c0.2-0.1,0.4-0.2,0.6-0.3c0.2,0,0.4-0.1,0.8-0.1
			c0.7-0.1,1.2-0.2,1.6-0.3c0-0.1,0-0.2,0-0.2c0-0.4-0.1-0.6-0.2-0.8c-0.2-0.2-0.6-0.3-1-0.3c-0.4,0-0.7,0.1-0.9,0.2
			c-0.2,0.1-0.3,0.4-0.4,0.8l-0.9-0.1c0.1-0.4,0.2-0.7,0.4-0.9c0.2-0.2,0.4-0.4,0.8-0.5c0.3-0.1,0.7-0.2,1.2-0.2
			c0.4,0,0.8,0.1,1.1,0.2c0.3,0.1,0.5,0.2,0.6,0.4c0.1,0.2,0.2,0.4,0.3,0.6c0,0.1,0,0.4,0,0.8v1.2c0,0.8,0,1.3,0.1,1.5
			c0,0.2,0.1,0.4,0.2,0.6h-0.9C964.8,276.2,964.8,276,964.8,275.8z M964.7,273.8c-0.3,0.1-0.8,0.2-1.4,0.3c-0.4,0.1-0.6,0.1-0.8,0.2
			c-0.1,0.1-0.3,0.2-0.3,0.3c-0.1,0.1-0.1,0.3-0.1,0.4c0,0.2,0.1,0.4,0.3,0.6c0.2,0.2,0.4,0.2,0.8,0.2c0.3,0,0.6-0.1,0.9-0.2
			c0.3-0.1,0.5-0.4,0.6-0.6c0.1-0.2,0.1-0.5,0.1-0.9V273.8z"/>
	</g>
	<g class="st14">
		<path class="st18" d="M1157.7,400.4l-1.9-7.2h1l1.1,4.7c0.1,0.5,0.2,1,0.3,1.5c0.2-0.8,0.3-1.2,0.3-1.3l1.4-4.8h1.1l1,3.6
			c0.3,0.9,0.4,1.7,0.6,2.5c0.1-0.5,0.2-1,0.4-1.6l1.1-4.6h1l-2,7.2h-0.9l-1.5-5.5c-0.1-0.5-0.2-0.7-0.2-0.8
			c-0.1,0.3-0.1,0.6-0.2,0.8l-1.5,5.5H1157.7z"/>
		<path class="st18" d="M1165.3,397.8c0-1,0.3-1.7,0.8-2.1c0.4-0.4,1-0.6,1.6-0.6c0.7,0,1.3,0.2,1.7,0.7c0.5,0.5,0.7,1.1,0.7,1.9
			c0,0.7-0.1,1.2-0.3,1.6c-0.2,0.4-0.5,0.7-0.9,0.9c-0.4,0.2-0.8,0.3-1.3,0.3c-0.7,0-1.3-0.2-1.8-0.7
			C1165.5,399.4,1165.3,398.7,1165.3,397.8z M1166.2,397.8c0,0.7,0.1,1.2,0.4,1.5c0.3,0.3,0.7,0.5,1.1,0.5c0.4,0,0.8-0.2,1.1-0.5
			c0.3-0.3,0.4-0.8,0.4-1.5c0-0.6-0.1-1.1-0.4-1.5c-0.3-0.3-0.7-0.5-1.1-0.5c-0.4,0-0.8,0.2-1.1,0.5
			C1166.3,396.6,1166.2,397.1,1166.2,397.8z"/>
		<path class="st18" d="M1170.8,397.8c0-1,0.3-1.7,0.8-2.1c0.4-0.4,1-0.6,1.6-0.6c0.7,0,1.3,0.2,1.7,0.7c0.5,0.5,0.7,1.1,0.7,1.9
			c0,0.7-0.1,1.2-0.3,1.6c-0.2,0.4-0.5,0.7-0.9,0.9c-0.4,0.2-0.8,0.3-1.3,0.3c-0.7,0-1.3-0.2-1.8-0.7
			C1171.1,399.4,1170.8,398.7,1170.8,397.8z M1171.8,397.8c0,0.7,0.1,1.2,0.4,1.5c0.3,0.3,0.7,0.5,1.1,0.5c0.4,0,0.8-0.2,1.1-0.5
			c0.3-0.3,0.4-0.8,0.4-1.5c0-0.6-0.1-1.1-0.4-1.5c-0.3-0.3-0.7-0.5-1.1-0.5c-0.4,0-0.8,0.2-1.1,0.5
			C1171.9,396.6,1171.8,397.1,1171.8,397.8z"/>
		<path class="st18" d="M1180.1,400.4v-0.7c-0.3,0.5-0.8,0.8-1.5,0.8c-0.4,0-0.8-0.1-1.1-0.3s-0.6-0.5-0.8-1
			c-0.2-0.4-0.3-0.9-0.3-1.4c0-0.5,0.1-1,0.3-1.4c0.2-0.4,0.4-0.7,0.8-1c0.3-0.2,0.7-0.3,1.2-0.3c0.3,0,0.6,0.1,0.8,0.2
			c0.2,0.1,0.4,0.3,0.6,0.5v-2.6h0.9v7.2H1180.1z M1177.3,397.8c0,0.7,0.1,1.2,0.4,1.5c0.3,0.3,0.6,0.5,1,0.5c0.4,0,0.7-0.2,1-0.5
			c0.3-0.3,0.4-0.8,0.4-1.4c0-0.7-0.1-1.2-0.4-1.6s-0.6-0.5-1-0.5c-0.4,0-0.7,0.2-1,0.5C1177.5,396.6,1177.3,397.1,1177.3,397.8z"/>
		<path class="st18" d="M1186.4,400.4l-1.9-7.2h1l1.1,4.7c0.1,0.5,0.2,1,0.3,1.5c0.2-0.8,0.3-1.2,0.3-1.3l1.4-4.8h1.1l1,3.6
			c0.3,0.9,0.4,1.7,0.6,2.5c0.1-0.5,0.2-1,0.4-1.6l1.1-4.6h1l-2,7.2h-0.9l-1.5-5.5c-0.1-0.5-0.2-0.7-0.2-0.8
			c-0.1,0.3-0.1,0.6-0.2,0.8l-1.5,5.5H1186.4z"/>
		<path class="st18" d="M1194,397.8c0-1,0.3-1.7,0.8-2.1c0.4-0.4,1-0.6,1.6-0.6c0.7,0,1.3,0.2,1.7,0.7c0.5,0.5,0.7,1.1,0.7,1.9
			c0,0.7-0.1,1.2-0.3,1.6c-0.2,0.4-0.5,0.7-0.9,0.9c-0.4,0.2-0.8,0.3-1.3,0.3c-0.7,0-1.3-0.2-1.8-0.7
			C1194.2,399.4,1194,398.7,1194,397.8z M1194.9,397.8c0,0.7,0.1,1.2,0.4,1.5c0.3,0.3,0.7,0.5,1.1,0.5c0.4,0,0.8-0.2,1.1-0.5
			c0.3-0.3,0.4-0.8,0.4-1.5c0-0.6-0.1-1.1-0.4-1.5c-0.3-0.3-0.7-0.5-1.1-0.5c-0.4,0-0.8,0.2-1.1,0.5
			C1195.1,396.6,1194.9,397.1,1194.9,397.8z"/>
		<path class="st18" d="M1199.9,400.4v-5.2h0.8v0.8c0.2-0.4,0.4-0.6,0.6-0.7s0.4-0.2,0.6-0.2c0.3,0,0.6,0.1,0.9,0.3l-0.3,0.8
			c-0.2-0.1-0.4-0.2-0.6-0.2c-0.2,0-0.4,0.1-0.5,0.2c-0.2,0.1-0.3,0.3-0.3,0.5c-0.1,0.3-0.1,0.7-0.1,1v2.7H1199.9z"/>
		<path class="st18" d="M1203.2,400.4v-7.2h0.9v4.1l2.1-2.1h1.1l-2,1.9l2.2,3.3h-1.1l-1.7-2.7l-0.6,0.6v2.1H1203.2z"/>
		<path class="st18" d="M1207.9,398.9l0.9-0.1c0,0.3,0.2,0.6,0.4,0.8c0.2,0.2,0.5,0.3,0.9,0.3c0.4,0,0.7-0.1,0.9-0.2
			c0.2-0.2,0.3-0.4,0.3-0.6c0-0.2-0.1-0.4-0.3-0.5c-0.1-0.1-0.4-0.2-0.9-0.3c-0.6-0.2-1.1-0.3-1.3-0.4c-0.2-0.1-0.4-0.3-0.6-0.5
			c-0.1-0.2-0.2-0.4-0.2-0.7c0-0.2,0.1-0.4,0.2-0.6c0.1-0.2,0.2-0.4,0.4-0.5c0.1-0.1,0.3-0.2,0.6-0.3c0.2-0.1,0.5-0.1,0.8-0.1
			c0.4,0,0.8,0.1,1.1,0.2s0.5,0.3,0.7,0.5c0.1,0.2,0.2,0.5,0.3,0.8l-0.9,0.1c0-0.3-0.2-0.5-0.3-0.6c-0.2-0.1-0.5-0.2-0.8-0.2
			c-0.4,0-0.7,0.1-0.9,0.2c-0.2,0.1-0.3,0.3-0.3,0.5c0,0.1,0,0.2,0.1,0.3c0.1,0.1,0.2,0.2,0.3,0.2c0.1,0,0.3,0.1,0.8,0.2
			c0.6,0.2,1.1,0.3,1.3,0.4c0.2,0.1,0.4,0.3,0.6,0.5c0.1,0.2,0.2,0.5,0.2,0.8c0,0.3-0.1,0.6-0.3,0.8c-0.2,0.3-0.4,0.5-0.7,0.6
			c-0.3,0.1-0.7,0.2-1.1,0.2c-0.7,0-1.2-0.1-1.5-0.4C1208.2,399.8,1208,399.4,1207.9,398.9z"/>
		<path class="st18" d="M1213.2,400.4v-7.2h0.9v2.6c0.4-0.5,0.9-0.7,1.6-0.7c0.4,0,0.7,0.1,1,0.2c0.3,0.2,0.5,0.4,0.6,0.6
			s0.2,0.7,0.2,1.2v3.3h-0.9v-3.3c0-0.4-0.1-0.8-0.3-1c-0.2-0.2-0.5-0.3-0.8-0.3c-0.3,0-0.5,0.1-0.7,0.2c-0.2,0.1-0.4,0.3-0.5,0.5
			s-0.1,0.5-0.1,1v2.8H1213.2z"/>
		<path class="st18" d="M1218.5,397.8c0-1,0.3-1.7,0.8-2.1c0.4-0.4,1-0.6,1.6-0.6c0.7,0,1.3,0.2,1.7,0.7c0.5,0.5,0.7,1.1,0.7,1.9
			c0,0.7-0.1,1.2-0.3,1.6c-0.2,0.4-0.5,0.7-0.9,0.9c-0.4,0.2-0.8,0.3-1.3,0.3c-0.7,0-1.3-0.2-1.8-0.7
			C1218.7,399.4,1218.5,398.7,1218.5,397.8z M1219.4,397.8c0,0.7,0.1,1.2,0.4,1.5c0.3,0.3,0.7,0.5,1.1,0.5c0.4,0,0.8-0.2,1.1-0.5
			c0.3-0.3,0.4-0.8,0.4-1.5c0-0.6-0.1-1.1-0.4-1.5c-0.3-0.3-0.7-0.5-1.1-0.5c-0.4,0-0.8,0.2-1.1,0.5
			C1219.5,396.6,1219.4,397.1,1219.4,397.8z"/>
		<path class="st18" d="M1224.3,402.4v-7.2h0.8v0.7c0.2-0.3,0.4-0.5,0.6-0.6c0.2-0.1,0.5-0.2,0.9-0.2c0.4,0,0.8,0.1,1.2,0.3
			c0.3,0.2,0.6,0.5,0.8,1c0.2,0.4,0.3,0.9,0.3,1.4c0,0.5-0.1,1-0.3,1.4c-0.2,0.4-0.5,0.8-0.8,1c-0.4,0.2-0.7,0.3-1.1,0.3
			c-0.3,0-0.6-0.1-0.8-0.2c-0.2-0.1-0.4-0.3-0.6-0.5v2.5H1224.3z M1225.1,397.8c0,0.7,0.1,1.2,0.4,1.5c0.3,0.3,0.6,0.5,1,0.5
			c0.4,0,0.7-0.2,1-0.5c0.3-0.3,0.4-0.8,0.4-1.5c0-0.7-0.1-1.2-0.4-1.5c-0.3-0.3-0.6-0.5-1-0.5c-0.4,0-0.7,0.2-1,0.5
			C1225.3,396.7,1225.1,397.2,1225.1,397.8z"/>
	</g>
	<g class="st14">
		<path class="st18" d="M897.1,505.8l-1.9-7.2h1l1.1,4.7c0.1,0.5,0.2,1,0.3,1.5c0.2-0.8,0.3-1.2,0.3-1.3l1.4-4.8h1.1l1,3.6
			c0.3,0.9,0.4,1.7,0.6,2.5c0.1-0.5,0.2-1,0.4-1.6l1.1-4.6h1l-2,7.2h-0.9l-1.5-5.5c-0.1-0.5-0.2-0.7-0.2-0.8
			c-0.1,0.3-0.1,0.6-0.2,0.8l-1.5,5.5H897.1z"/>
		<path class="st18" d="M904.7,503.2c0-1,0.3-1.7,0.8-2.1c0.4-0.4,1-0.6,1.6-0.6c0.7,0,1.3,0.2,1.7,0.7c0.5,0.5,0.7,1.1,0.7,1.9
			c0,0.7-0.1,1.2-0.3,1.6c-0.2,0.4-0.5,0.7-0.9,0.9c-0.4,0.2-0.8,0.3-1.3,0.3c-0.7,0-1.3-0.2-1.8-0.7
			C904.9,504.8,904.7,504.1,904.7,503.2z M905.6,503.2c0,0.7,0.1,1.2,0.4,1.5c0.3,0.3,0.7,0.5,1.1,0.5c0.4,0,0.8-0.2,1.1-0.5
			c0.3-0.3,0.4-0.8,0.4-1.5c0-0.6-0.1-1.1-0.4-1.5c-0.3-0.3-0.7-0.5-1.1-0.5c-0.4,0-0.8,0.2-1.1,0.5
			C905.7,502,905.6,502.5,905.6,503.2z"/>
		<path class="st18" d="M910.6,505.8v-5.2h0.8v0.8c0.2-0.4,0.4-0.6,0.6-0.7s0.4-0.2,0.6-0.2c0.3,0,0.6,0.1,0.9,0.3l-0.3,0.8
			c-0.2-0.1-0.4-0.2-0.6-0.2c-0.2,0-0.4,0.1-0.5,0.2c-0.2,0.1-0.3,0.3-0.3,0.5c-0.1,0.3-0.1,0.7-0.1,1v2.7H910.6z"/>
		<path class="st18" d="M913.9,505.8v-7.2h0.9v4.1l2.1-2.1h1.1l-2,1.9l2.2,3.3h-1.1l-1.7-2.7l-0.6,0.6v2.1H913.9z"/>
		<path class="st18" d="M918.6,504.3l0.9-0.1c0,0.3,0.2,0.6,0.4,0.8c0.2,0.2,0.5,0.3,0.9,0.3c0.4,0,0.7-0.1,0.9-0.2
			c0.2-0.2,0.3-0.4,0.3-0.6c0-0.2-0.1-0.4-0.3-0.5c-0.1-0.1-0.4-0.2-0.9-0.3c-0.6-0.2-1.1-0.3-1.3-0.4c-0.2-0.1-0.4-0.3-0.6-0.5
			c-0.1-0.2-0.2-0.4-0.2-0.7c0-0.2,0.1-0.4,0.2-0.6c0.1-0.2,0.2-0.4,0.4-0.5c0.1-0.1,0.3-0.2,0.6-0.3c0.2-0.1,0.5-0.1,0.8-0.1
			c0.4,0,0.8,0.1,1.1,0.2s0.5,0.3,0.7,0.5c0.1,0.2,0.2,0.5,0.3,0.8l-0.9,0.1c0-0.3-0.2-0.5-0.3-0.6c-0.2-0.1-0.5-0.2-0.8-0.2
			c-0.4,0-0.7,0.1-0.9,0.2c-0.2,0.1-0.3,0.3-0.3,0.5c0,0.1,0,0.2,0.1,0.3c0.1,0.1,0.2,0.2,0.3,0.2c0.1,0,0.3,0.1,0.8,0.2
			c0.6,0.2,1.1,0.3,1.3,0.4c0.2,0.1,0.4,0.3,0.6,0.5c0.1,0.2,0.2,0.5,0.2,0.8c0,0.3-0.1,0.6-0.3,0.8c-0.2,0.3-0.4,0.5-0.7,0.6
			c-0.3,0.1-0.7,0.2-1.1,0.2c-0.7,0-1.2-0.1-1.5-0.4C918.9,505.2,918.7,504.8,918.6,504.3z"/>
		<path class="st18" d="M923.9,505.8v-7.2h0.9v2.6c0.4-0.5,0.9-0.7,1.6-0.7c0.4,0,0.7,0.1,1,0.2c0.3,0.2,0.5,0.4,0.6,0.6
			s0.2,0.7,0.2,1.2v3.3h-0.9v-3.3c0-0.4-0.1-0.8-0.3-1c-0.2-0.2-0.5-0.3-0.8-0.3c-0.3,0-0.5,0.1-0.7,0.2c-0.2,0.1-0.4,0.3-0.5,0.5
			s-0.1,0.5-0.1,1v2.8H923.9z"/>
		<path class="st18" d="M929.1,503.2c0-1,0.3-1.7,0.8-2.1c0.4-0.4,1-0.6,1.6-0.6c0.7,0,1.3,0.2,1.7,0.7c0.5,0.5,0.7,1.1,0.7,1.9
			c0,0.7-0.1,1.2-0.3,1.6c-0.2,0.4-0.5,0.7-0.9,0.9c-0.4,0.2-0.8,0.3-1.3,0.3c-0.7,0-1.3-0.2-1.8-0.7
			C929.4,504.8,929.1,504.1,929.1,503.2z M930,503.2c0,0.7,0.1,1.2,0.4,1.5c0.3,0.3,0.7,0.5,1.1,0.5c0.4,0,0.8-0.2,1.1-0.5
			c0.3-0.3,0.4-0.8,0.4-1.5c0-0.6-0.1-1.1-0.4-1.5c-0.3-0.3-0.7-0.5-1.1-0.5c-0.4,0-0.8,0.2-1.1,0.5C930.2,502,930,502.5,930,503.2z
			"/>
		<path class="st18" d="M935,507.8v-7.2h0.8v0.7c0.2-0.3,0.4-0.5,0.6-0.6c0.2-0.1,0.5-0.2,0.9-0.2c0.4,0,0.8,0.1,1.2,0.3
			c0.3,0.2,0.6,0.5,0.8,1c0.2,0.4,0.3,0.9,0.3,1.4c0,0.5-0.1,1-0.3,1.4c-0.2,0.4-0.5,0.8-0.8,1c-0.4,0.2-0.7,0.3-1.1,0.3
			c-0.3,0-0.6-0.1-0.8-0.2c-0.2-0.1-0.4-0.3-0.6-0.5v2.5H935z M935.8,503.2c0,0.7,0.1,1.2,0.4,1.5c0.3,0.3,0.6,0.5,1,0.5
			c0.4,0,0.7-0.2,1-0.5c0.3-0.3,0.4-0.8,0.4-1.5c0-0.7-0.1-1.2-0.4-1.5c-0.3-0.3-0.6-0.5-1-0.5c-0.4,0-0.7,0.2-1,0.5
			C936,502.1,935.8,502.6,935.8,503.2z"/>
		<path class="st18" d="M942.1,505.8l2.7-7.2h1l2.9,7.2h-1.1l-0.8-2.2h-3l-0.8,2.2H942.1z M944.2,502.9h2.4l-0.7-2
			c-0.2-0.6-0.4-1.1-0.5-1.5c-0.1,0.5-0.2,0.9-0.4,1.4L944.2,502.9z"/>
		<path class="st18" d="M949.5,505.8v-5.2h0.8v0.8c0.2-0.4,0.4-0.6,0.6-0.7s0.4-0.2,0.6-0.2c0.3,0,0.6,0.1,0.9,0.3l-0.3,0.8
			c-0.2-0.1-0.4-0.2-0.6-0.2c-0.2,0-0.4,0.1-0.5,0.2c-0.2,0.1-0.3,0.3-0.3,0.5c-0.1,0.3-0.1,0.7-0.1,1v2.7H949.5z"/>
		<path class="st18" d="M956.4,504.1l0.9,0.1c-0.1,0.5-0.4,0.9-0.8,1.2c-0.4,0.3-0.9,0.4-1.5,0.4c-0.8,0-1.4-0.2-1.8-0.7
			c-0.4-0.5-0.7-1.1-0.7-2c0-0.9,0.2-1.5,0.7-2s1-0.7,1.7-0.7c0.7,0,1.3,0.2,1.7,0.7s0.7,1.1,0.7,2c0,0.1,0,0.1,0,0.2h-3.9
			c0,0.6,0.2,1,0.5,1.3c0.3,0.3,0.7,0.5,1.1,0.5c0.3,0,0.6-0.1,0.8-0.3C956.1,504.8,956.2,504.5,956.4,504.1z M953.5,502.7h2.9
			c0-0.4-0.1-0.8-0.3-1c-0.3-0.3-0.6-0.5-1.1-0.5c-0.4,0-0.7,0.1-1,0.4C953.7,501.9,953.5,502.3,953.5,502.7z"/>
		<path class="st18" d="M961.8,505.2c-0.3,0.3-0.6,0.5-0.9,0.6c-0.3,0.1-0.6,0.2-1,0.2c-0.6,0-1-0.1-1.3-0.4
			c-0.3-0.3-0.5-0.6-0.5-1.1c0-0.3,0.1-0.5,0.2-0.7c0.1-0.2,0.3-0.4,0.5-0.5c0.2-0.1,0.4-0.2,0.6-0.3c0.2,0,0.4-0.1,0.8-0.1
			c0.7-0.1,1.2-0.2,1.6-0.3c0-0.1,0-0.2,0-0.2c0-0.4-0.1-0.6-0.2-0.8c-0.2-0.2-0.6-0.3-1-0.3c-0.4,0-0.7,0.1-0.9,0.2
			c-0.2,0.1-0.3,0.4-0.4,0.8l-0.9-0.1c0.1-0.4,0.2-0.7,0.4-0.9c0.2-0.2,0.4-0.4,0.8-0.5c0.3-0.1,0.7-0.2,1.2-0.2
			c0.4,0,0.8,0.1,1.1,0.2c0.3,0.1,0.5,0.2,0.6,0.4c0.1,0.2,0.2,0.4,0.3,0.6c0,0.1,0,0.4,0,0.8v1.2c0,0.8,0,1.3,0.1,1.5
			c0,0.2,0.1,0.4,0.2,0.6h-0.9C961.8,505.6,961.8,505.4,961.8,505.2z M961.7,503.2c-0.3,0.1-0.8,0.2-1.4,0.3
			c-0.4,0.1-0.6,0.1-0.8,0.2c-0.1,0.1-0.3,0.2-0.3,0.3c-0.1,0.1-0.1,0.3-0.1,0.4c0,0.2,0.1,0.4,0.3,0.6c0.2,0.2,0.4,0.2,0.8,0.2
			c0.3,0,0.6-0.1,0.9-0.2c0.3-0.1,0.5-0.4,0.6-0.6c0.1-0.2,0.1-0.5,0.1-0.9V503.2z"/>
	</g>
	<circle class="st17" cx="816.2" cy="324.2" r="22.1"/>
	<g class="st14">
		<path class="st18" d="M804.7,356.9l0.9-0.1c0,0.4,0.1,0.7,0.3,0.9c0.2,0.2,0.4,0.4,0.7,0.6c0.3,0.1,0.7,0.2,1.1,0.2
			c0.4,0,0.7-0.1,1-0.2c0.3-0.1,0.5-0.3,0.6-0.5c0.1-0.2,0.2-0.4,0.2-0.6c0-0.2-0.1-0.4-0.2-0.6s-0.4-0.3-0.7-0.4
			c-0.2-0.1-0.6-0.2-1.3-0.4c-0.7-0.2-1.1-0.3-1.4-0.5c-0.4-0.2-0.6-0.4-0.8-0.7c-0.2-0.3-0.3-0.6-0.3-0.9c0-0.4,0.1-0.7,0.3-1
			c0.2-0.3,0.5-0.6,0.9-0.7c0.4-0.2,0.9-0.3,1.3-0.3c0.5,0,1,0.1,1.4,0.3c0.4,0.2,0.7,0.4,1,0.8c0.2,0.3,0.3,0.7,0.4,1.2l-0.9,0.1
			c0-0.5-0.2-0.8-0.5-1.1s-0.7-0.4-1.3-0.4c-0.6,0-1,0.1-1.3,0.3c-0.3,0.2-0.4,0.5-0.4,0.8c0,0.3,0.1,0.5,0.3,0.7
			c0.2,0.2,0.7,0.3,1.5,0.5c0.8,0.2,1.3,0.3,1.6,0.5c0.4,0.2,0.7,0.4,0.9,0.7c0.2,0.3,0.3,0.7,0.3,1c0,0.4-0.1,0.8-0.3,1.1
			s-0.5,0.6-1,0.8c-0.4,0.2-0.9,0.3-1.4,0.3c-0.7,0-1.2-0.1-1.7-0.3c-0.4-0.2-0.8-0.5-1.1-0.9C804.9,357.8,804.8,357.4,804.7,356.9z
			"/>
		<path class="st18" d="M813.8,358.4l0.1,0.8c-0.3,0.1-0.5,0.1-0.7,0.1c-0.3,0-0.6-0.1-0.8-0.2c-0.2-0.1-0.3-0.2-0.4-0.4
			s-0.1-0.5-0.1-1.1v-3.1h-0.7v-0.7h0.7v-1.3l0.9-0.5v1.9h0.9v0.7h-0.9v3.1c0,0.3,0,0.4,0,0.5c0,0.1,0.1,0.1,0.2,0.2
			c0.1,0,0.2,0.1,0.3,0.1C813.5,358.5,813.6,358.5,813.8,358.4z"/>
		<path class="st18" d="M818.1,358.6c-0.3,0.3-0.7,0.5-1,0.6c-0.3,0.1-0.6,0.2-1,0.2c-0.6,0-1-0.1-1.3-0.4c-0.3-0.3-0.5-0.7-0.5-1.1
			c0-0.3,0.1-0.5,0.2-0.7c0.1-0.2,0.3-0.4,0.5-0.5c0.2-0.1,0.4-0.2,0.6-0.3c0.2,0,0.4-0.1,0.8-0.1c0.7-0.1,1.3-0.2,1.6-0.3
			c0-0.1,0-0.2,0-0.2c0-0.4-0.1-0.6-0.3-0.8c-0.2-0.2-0.6-0.3-1-0.3c-0.4,0-0.7,0.1-0.9,0.2s-0.4,0.4-0.4,0.8l-0.9-0.1
			c0.1-0.4,0.2-0.7,0.4-0.9s0.4-0.4,0.8-0.5c0.3-0.1,0.8-0.2,1.2-0.2c0.5,0,0.8,0.1,1.1,0.2c0.3,0.1,0.5,0.2,0.6,0.4
			c0.1,0.2,0.2,0.4,0.3,0.6c0,0.2,0,0.4,0,0.8v1.2c0,0.8,0,1.4,0.1,1.6c0,0.2,0.1,0.4,0.2,0.6h-0.9
			C818.2,359.1,818.1,358.8,818.1,358.6z M818,356.6c-0.3,0.1-0.8,0.2-1.5,0.3c-0.4,0.1-0.6,0.1-0.8,0.2c-0.2,0.1-0.3,0.2-0.4,0.3
			c-0.1,0.1-0.1,0.3-0.1,0.4c0,0.2,0.1,0.4,0.3,0.6c0.2,0.2,0.4,0.2,0.8,0.2c0.3,0,0.7-0.1,0.9-0.2c0.3-0.2,0.5-0.4,0.6-0.6
			c0.1-0.2,0.1-0.5,0.1-0.9V356.6z"/>
		<path class="st18" d="M820.4,352.9v-1h0.9v1H820.4z M820.4,359.2v-5.3h0.9v5.3H820.4z"/>
		<path class="st18" d="M822.6,359.2v-5.3h0.8v0.8c0.2-0.4,0.4-0.6,0.6-0.7c0.2-0.1,0.4-0.2,0.6-0.2c0.3,0,0.6,0.1,0.9,0.3l-0.3,0.8
			c-0.2-0.1-0.4-0.2-0.7-0.2c-0.2,0-0.4,0.1-0.5,0.2c-0.2,0.1-0.3,0.3-0.3,0.5c-0.1,0.3-0.2,0.7-0.2,1.1v2.8H822.6z"/>
		<path class="st18" d="M825.7,357.7l0.9-0.1c0,0.4,0.2,0.6,0.4,0.8s0.5,0.3,1,0.3c0.4,0,0.7-0.1,0.9-0.3c0.2-0.2,0.3-0.4,0.3-0.6
			c0-0.2-0.1-0.4-0.3-0.5c-0.1-0.1-0.4-0.2-0.9-0.3c-0.7-0.2-1.1-0.3-1.4-0.4c-0.3-0.1-0.4-0.3-0.6-0.5c-0.1-0.2-0.2-0.5-0.2-0.7
			c0-0.2,0.1-0.5,0.2-0.7s0.3-0.4,0.4-0.5c0.1-0.1,0.3-0.2,0.6-0.3c0.2-0.1,0.5-0.1,0.8-0.1c0.4,0,0.8,0.1,1.1,0.2s0.5,0.3,0.7,0.5
			c0.1,0.2,0.3,0.5,0.3,0.8l-0.9,0.1c0-0.3-0.2-0.5-0.3-0.6c-0.2-0.2-0.5-0.2-0.8-0.2c-0.4,0-0.7,0.1-0.9,0.2
			c-0.2,0.1-0.3,0.3-0.3,0.5c0,0.1,0,0.2,0.1,0.3c0.1,0.1,0.2,0.2,0.3,0.2c0.1,0,0.4,0.1,0.8,0.2c0.6,0.2,1.1,0.3,1.3,0.4
			c0.3,0.1,0.4,0.3,0.6,0.5s0.2,0.5,0.2,0.8c0,0.3-0.1,0.6-0.3,0.8c-0.2,0.3-0.4,0.5-0.8,0.6c-0.3,0.1-0.7,0.2-1.1,0.2
			c-0.7,0-1.2-0.1-1.6-0.4S825.8,358.2,825.7,357.7z"/>
	</g>
	<g id="Outline_Icons-9-2_1_">
		<line class="st19" x1="806.9" y1="331.9" x2="823.9" y2="331.9"/>
		<polyline class="st19" points="820.9,331.9 820.9,328.9 817.9,328.9 817.9,325.9 815,325.9 815,323 812.1,323 812.1,320.1 
			806.9,320.1 		"/>
		<line class="st19" x1="815.7" y1="315.1" x2="824.9" y2="324.3"/>
		<polyline class="st19" points="815.7,318.6 815.7,315.1 819.4,315.1 		"/>
		<polyline class="st19" points="824.9,320.5 824.9,324.3 821.1,324.3 		"/>
	</g>
</g>
</svg>
