<?xml version="1.0" encoding="utf-8"?>
<!-- Generator: Adobe Illustrator 25.2.0, SVG Export Plug-In . SVG Version: 6.00 Build 0)  -->
<svg version="1.1" id="Layer_1" xmlns="http://www.w3.org/2000/svg" xmlns:xlink="http://www.w3.org/1999/xlink" x="0px" y="0px"
	 viewBox="0 0 1772.7 1931.1" style="enable-background:new 0 0 1772.7 1931.1;" xml:space="preserve">
<style type="text/css">
	.st0{fill:#4196B1;}
	.st1{fill:#AAE0E4;}
	.st2{fill:#8ECCCE;}
	.st3{fill:#99B8BF;}
	.st4{opacity:5.000000e-02;fill:#040404;enable-background:new    ;}
	.st5{fill:#B8BFC1;}
	.st6{fill:#FFFFFF;}
	.st7{opacity:0.15;fill:#020202;enable-background:new    ;}
	.st8{fill:#596069;}
	.st9{fill:#9BAEB8;}
	.st10{fill:none;stroke:#7A8F94;stroke-width:4;stroke-linecap:round;stroke-miterlimit:10;}
	.st11{fill:#7A8F94;stroke:#75868A;stroke-width:0.25;stroke-miterlimit:10;}
	.st12{fill:#9BAEB8;stroke:#93A6AD;stroke-width:0.257;stroke-miterlimit:10;}
	.st13{fill:#9BAEB8;stroke:#93A6AD;stroke-width:0.25;stroke-miterlimit:10;}
	.st14{fill:#7A8F94;stroke:#75868A;stroke-width:0.243;stroke-miterlimit:10;}
	.st15{fill:#7A8F94;stroke:#75868A;stroke-width:0.256;stroke-miterlimit:10;}
	.st16{opacity:0.1;fill:#040404;enable-background:new    ;}
	.st17{fill:#7A8F94;}
	.st18{fill:#F8FAFB;}
	.st19{enable-background:new    ;}
	.st20{fill:#767E80;}
	.st21{fill:#EBF1F2;}
	.st22{fill:none;stroke:#7A8E93;stroke-width:0.827;stroke-miterlimit:10;}
	.st23{opacity:0.74;fill:#575757;enable-background:new    ;}
	.st24{fill:none;stroke:#FFFFFF;stroke-width:12;stroke-miterlimit:10;}
	.st25{fill:none;stroke:#FFFFFF;stroke-width:6;stroke-miterlimit:10;}
</style>
<g id="shadow">
	<rect x="88.7" y="98" class="st0" width="1565.5" height="1734.7"/>
</g>
<g id="background">
	<rect x="88.7" y="98" class="st1" width="1535.8" height="1705.5"/>
</g>
<g id="spaces">
	<rect x="290.6" y="703.5" class="st2" width="928.1" height="318.9"/>
	<rect x="641.7" y="1022.4" class="st2" width="573.1" height="271.5"/>
	<polygon class="st2" points="752,204.4 998.1,204.4 998.1,242.4 1624.5,242.4 1624.5,877.3 1318.2,877.3 1318.2,528.5 752,528.5 	
		"/>
	<polygon class="st3" points="1624.5,98 1624.5,242.4 998.6,242.4 998.6,204.4 753.1,204.4 753.1,459.6 290.6,459.6 290.6,1803.5 
		88.7,1803.5 88.7,98 	"/>
</g>
<g id="furniture">
	<path class="st4" d="M1323.5,1171h237.2c1.6,0,3.2,2.3,3.2,5v104.8c0,2.7-1.6,5-3.2,5h-237.2c-1.6,0-3.2-2.3-3.2-5V1176
		C1320.3,1173.3,1321.9,1171,1323.5,1171z"/>
	<path class="st5" d="M1323.5,1162.7h237.2c1.6,0,3.2,2.3,3.2,5v104.8c0,2.7-1.6,5-3.2,5h-237.2c-1.6,0-3.2-2.3-3.2-5v-104.8
		C1320.3,1165,1321.9,1162.7,1323.5,1162.7z"/>
	<path class="st6" d="M1563.9,1253.6v-93.9c0.2-1.2-0.6-2.4-1.8-2.6c0,0-0.1,0-0.1,0h-240.1c-1.3,0.2-2.3,1.3-2.2,2.7l0,0v93.9l0,0
		v15.6c-0.2,1.2,0.6,2.4,1.8,2.6c0,0,0.1,0,0.1,0h240.1c1.3-0.2,2.3-1.3,2.2-2.7l0,0L1563.9,1253.6"/>
	<path class="st7" d="M1401.6,1157.1l-10.8-0.5c-8-0.2-14.4-6.9-14.2-15v-1l0.8-10.8c0.8-10.6,9.8-18.6,20.4-18l0,0
		c10.5,0.3,18.9,8.8,19.1,19.3v10.8c0.1,8.3-6.4,15.1-14.7,15.2L1401.6,1157.1z"/>
	<path class="st8" d="M1401.6,1155.3l-10.8-0.5c-8-0.2-14.4-6.9-14.2-15v-1l0.8-10.8c0.8-10.6,9.8-18.6,20.4-18l0,0
		c10.5,0.3,18.9,8.8,19.1,19.3l0.5,10.8c0.1,8.3-6.4,15.1-14.7,15.2L1401.6,1155.3z"/>
	<path class="st9" d="M1401.6,1153.2l-10.8-0.5c-8-0.2-14.4-6.9-14.2-15v-0.3l0,0v-0.8l0.8-10.8c0.8-10.6,9.8-18.6,20.4-18l0,0
		c10.5,0.3,18.9,8.8,19.1,19.3v10.8c0.1,8.3-6.4,15.1-14.7,15.2L1401.6,1153.2z"/>
	<path class="st10" d="M1376.1,1139l1.3-12.9c0.8-10.6,9.8-18.6,20.4-18l0,0c10.5,0.3,18.9,8.8,19.1,19.3l0.5,12.9"/>
	<path class="st7" d="M1520.9,1157.2l-10.8-0.5c-8-0.2-14.4-6.9-14.2-15v-1l0.8-10.8c0.8-10.6,9.8-18.6,20.4-18l0,0
		c10.5,0.3,18.9,8.8,19.1,19.3v10.8c0.1,8.3-6.4,15.1-14.7,15.2H1520.9z"/>
	<path class="st8" d="M1520.9,1155.4l-10.8-0.5c-8-0.2-14.4-6.9-14.2-15v-1l0.8-10.8c0.8-10.6,9.8-18.6,20.4-18l0,0
		c10.5,0.3,18.9,8.8,19.1,19.3l0.5,10.8c0.1,8.3-6.4,15.1-14.7,15.2L1520.9,1155.4z"/>
	<path class="st9" d="M1520.9,1153.4l-10.8-0.5c-8-0.2-14.4-6.9-14.2-15v-0.3l0,0v-0.8l0.8-10.8c0.8-10.6,9.8-18.6,20.4-18l0,0
		c10.5,0.3,18.9,8.8,19.1,19.3v10.8c0.1,8.3-6.4,15.1-14.7,15.2L1520.9,1153.4z"/>
	<path class="st10" d="M1495.4,1139.2l1.3-12.9c0.8-10.6,9.8-18.6,20.4-18l0,0c10.5,0.3,18.9,8.8,19.1,19.3l0.5,12.9"/>
	<path class="st7" d="M1511.1,1279.8l10.8,0.5c8,0.2,14.4,6.9,14.2,15v1l-0.8,10.8c-0.8,10.5-9.8,18.6-20.4,18l0,0
		c-10.5-0.3-18.9-8.8-19.1-19.3v-10.8c-0.1-8.3,6.4-15.1,14.7-15.2H1511.1z"/>
	<path class="st8" d="M1511.1,1281.6l10.8,0.5c8,0.2,14.4,6.9,14.2,15v1l-0.8,10.8c-0.8,10.5-9.8,18.6-20.4,18l0,0
		c-10.5-0.3-18.9-8.8-19.1-19.3l-0.5-10.8c-0.1-8.3,6.4-15.1,14.7-15.2H1511.1z"/>
	<path class="st9" d="M1511.1,1283.7l10.8,0.5c8,0.2,14.4,6.9,14.2,15v0.3l0,0v0.8l-0.8,10.8c-0.8,10.5-9.8,18.6-20.4,18l0,0
		c-10.5-0.3-18.9-8.8-19.1-19.3v-10.8c-0.1-8.3,6.4-15.1,14.7-15.2H1511.1z"/>
	<path class="st10" d="M1536.7,1297.9l-1.3,12.9c-0.8,10.5-9.8,18.6-20.4,18l0,0c-10.5-0.3-18.9-8.8-19.1-19.3l-0.5-12.9"/>
	<path class="st7" d="M1391.8,1279.7l10.8,0.5c8,0.2,14.4,6.9,14.2,15v1l-0.8,10.8c-0.8,10.6-9.8,18.6-20.4,18l0,0
		c-10.5-0.3-18.9-8.8-19.1-19.3v-10.8c-0.1-8.3,6.4-15.1,14.7-15.2L1391.8,1279.7z"/>
	<path class="st8" d="M1391.8,1281.5l10.8,0.5c8,0.2,14.4,6.9,14.2,15v1l-0.8,10.8c-0.8,10.6-9.8,18.6-20.4,18l0,0
		c-10.5-0.3-18.9-8.8-19.1-19.3l-0.5-10.8c-0.1-8.3,6.4-15.1,14.7-15.2L1391.8,1281.5z"/>
	<path class="st9" d="M1391.8,1283.6l10.8,0.5c8,0.2,14.4,6.9,14.2,15v0.3l0,0v0.8l-0.8,10.8c-0.8,10.6-9.8,18.6-20.4,18l0,0
		c-10.5-0.3-18.9-8.8-19.1-19.3v-10.8c-0.1-8.3,6.4-15.1,14.7-15.2L1391.8,1283.6z"/>
	<path class="st10" d="M1417.3,1297.8l-1.3,12.9c-0.8,10.6-9.8,18.6-20.4,18l0,0c-10.5-0.3-18.9-8.8-19.1-19.3l-0.5-12.9"/>
	<path class="st4" d="M1323.5,1436.7h237.2c1.6,0,3.2,2.3,3.2,5v104.8c0,2.7-1.6,5-3.2,5h-237.2c-1.6,0-3.2-2.3-3.2-5v-104.8
		C1320.3,1439,1321.9,1436.7,1323.5,1436.7z"/>
	<path class="st5" d="M1323.5,1428.4h237.2c1.6,0,3.2,2.3,3.2,5v104.8c0,2.7-1.6,5-3.2,5h-237.2c-1.6,0-3.2-2.3-3.2-5v-104.8
		C1320.3,1430.7,1321.9,1428.4,1323.5,1428.4z"/>
	<path class="st6" d="M1563.9,1519.3v-93.9c0.2-1.2-0.6-2.4-1.8-2.6c0,0-0.1,0-0.1,0h-240.1c-1.3,0.2-2.3,1.3-2.2,2.7l0,0v93.9l0,0
		v15.6c-0.2,1.2,0.6,2.4,1.8,2.6c0,0,0.1,0,0.1,0h240.1c1.3-0.2,2.3-1.3,2.2-2.7l0,0L1563.9,1519.3"/>
	<path class="st7" d="M1401.6,1422.7l-10.8-0.5c-8-0.2-14.4-6.9-14.2-15v-1l0.8-10.8c0.8-10.6,9.8-18.6,20.4-18l0,0
		c10.5,0.3,18.9,8.8,19.1,19.3v10.8c0.1,8.3-6.4,15.1-14.7,15.2L1401.6,1422.7z"/>
	<path class="st8" d="M1401.6,1420.9l-10.8-0.5c-8-0.2-14.4-6.9-14.2-15v-1l0.8-10.8c0.8-10.6,9.8-18.6,20.4-18l0,0
		c10.5,0.3,18.9,8.8,19.1,19.3l0.5,10.8c0.1,8.3-6.4,15.1-14.7,15.2H1401.6z"/>
	<path class="st9" d="M1401.6,1418.9l-10.8-0.5c-8-0.2-14.4-6.9-14.2-15v-0.3l0,0v-0.8l0.8-10.8c0.8-10.6,9.8-18.6,20.4-18l0,0
		c10.5,0.3,18.9,8.8,19.1,19.3v10.8c0.1,8.3-6.4,15.1-14.7,15.2L1401.6,1418.9z"/>
	<path class="st10" d="M1376.1,1404.7l1.3-12.9c0.8-10.6,9.8-18.6,20.4-18l0,0c10.5,0.3,18.9,8.8,19.1,19.3l0.5,12.9"/>
	<path class="st7" d="M1520.9,1422.9l-10.8-0.5c-8-0.2-14.4-6.9-14.2-15v-1l0.8-10.8c0.8-10.6,9.8-18.6,20.4-18l0,0
		c10.5,0.3,18.9,8.8,19.1,19.3v10.8c0.1,8.3-6.4,15.1-14.7,15.2L1520.9,1422.9z"/>
	<path class="st8" d="M1520.9,1421.1l-10.8-0.5c-8-0.2-14.4-6.9-14.2-15v-1l0.8-10.8c0.8-10.6,9.8-18.6,20.4-18l0,0
		c10.5,0.3,18.9,8.8,19.1,19.3l0.5,10.8c0.1,8.3-6.4,15.1-14.7,15.2L1520.9,1421.1z"/>
	<path class="st9" d="M1520.9,1419l-10.8-0.5c-8-0.2-14.4-6.9-14.2-15v-0.3l0,0v-0.8l0.8-10.8c0.8-10.6,9.8-18.6,20.4-18l0,0
		c10.5,0.3,18.9,8.8,19.1,19.3v10.8c0.1,8.3-6.4,15.1-14.7,15.2L1520.9,1419z"/>
	<path class="st10" d="M1495.4,1404.8l1.3-12.9c0.8-10.6,9.8-18.6,20.4-18l0,0c10.5,0.3,18.9,8.8,19.1,19.3l0.5,12.9"/>
	<path class="st7" d="M1511.1,1545.5l10.8,0.5c8,0.2,14.4,6.9,14.2,15v1l-0.8,10.8c-0.8,10.5-9.8,18.6-20.4,18l0,0
		c-10.5-0.3-18.9-8.8-19.1-19.3v-10.8c-0.1-8.3,6.4-15.1,14.7-15.2L1511.1,1545.5z"/>
	<path class="st8" d="M1511.1,1547.3l10.8,0.5c8,0.2,14.4,6.9,14.2,15v1l-0.8,10.8c-0.8,10.6-9.8,18.6-20.4,18l0,0
		c-10.5-0.3-18.9-8.8-19.1-19.3l-0.5-10.8c-0.1-8.3,6.4-15.1,14.7-15.2H1511.1z"/>
	<path class="st9" d="M1511.1,1549.4l10.8,0.5c8,0.2,14.4,6.9,14.2,15v0.3l0,0v0.8l-0.8,10.8c-0.8,10.5-9.8,18.6-20.4,18l0,0
		c-10.5-0.3-18.9-8.8-19.1-19.3v-10.8c-0.1-8.3,6.4-15.1,14.7-15.2H1511.1z"/>
	<path class="st10" d="M1536.7,1563.5l-1.3,12.9c-0.8,10.5-9.8,18.6-20.4,18l0,0c-10.5-0.3-18.9-8.8-19.1-19.3l-0.5-12.9"/>
	<path class="st7" d="M1391.8,1545.4l10.8,0.5c8,0.2,14.4,6.9,14.2,15v1l-0.8,10.8c-0.8,10.6-9.8,18.6-20.4,18l0,0
		c-10.5-0.3-18.9-8.8-19.1-19.3v-10.8c-0.1-8.3,6.4-15.1,14.7-15.2L1391.8,1545.4z"/>
	<path class="st8" d="M1391.8,1547.2l10.8,0.5c8,0.2,14.4,6.9,14.2,15v1l-0.8,10.8c-0.8,10.6-9.8,18.6-20.4,18l0,0
		c-10.5-0.3-18.9-8.8-19.1-19.3l-0.5-10.8c-0.1-8.3,6.4-15.1,14.7-15.2H1391.8z"/>
	<path class="st9" d="M1391.8,1549.2l10.8,0.5c8,0.2,14.4,6.9,14.2,15v0.3l0,0v0.8l-0.8,10.8c-0.8,10.6-9.8,18.6-20.4,18l0,0
		c-10.5-0.3-18.9-8.8-19.1-19.3v-10.8c-0.1-8.3,6.4-15.1,14.7-15.2L1391.8,1549.2z"/>
	<path class="st10" d="M1417.3,1563.4l-1.3,12.9c-0.8,10.6-9.8,18.6-20.4,18l0,0c-10.5-0.3-18.9-8.8-19.1-19.3l-0.5-12.9"/>
	<path class="st4" d="M984.2,1435.3h237.2c1.6,0,3.2,2.3,3.2,5v104.8c0,2.7-1.6,5-3.2,5H984.2c-1.6,0-3.2-2.3-3.2-5v-104.8
		C981,1437.7,982.6,1435.3,984.2,1435.3z"/>
	<path class="st5" d="M984.2,1427.1h237.2c1.6,0,3.2,2.3,3.2,5v104.8c0,2.7-1.6,5-3.2,5H984.2c-1.6,0-3.2-2.3-3.2-5V1432
		C981,1429.4,982.6,1427.1,984.2,1427.1z"/>
	<path class="st6" d="M1224.6,1517.9v-93.9c0.2-1.2-0.6-2.4-1.8-2.6c0,0-0.1,0-0.1,0H982.6c-1.3,0.2-2.3,1.3-2.2,2.7l0,0v93.9l0,0
		v15.6c-0.2,1.2,0.6,2.4,1.8,2.6c0,0,0.1,0,0.1,0h240.1c1.3-0.2,2.3-1.3,2.2-2.7l0,0L1224.6,1517.9"/>
	<path class="st7" d="M1025.7,1419.4l-10.8-0.5c-8-0.2-14.4-6.9-14.2-15v-1l0.8-10.8c0.8-10.6,9.8-18.6,20.4-18l0,0
		c10.5,0.3,18.9,8.8,19.1,19.3v10.8c0.1,8.3-6.4,15.1-14.7,15.2L1025.7,1419.4z"/>
	<path class="st8" d="M1025.7,1417.6l-10.8-0.5c-8-0.2-14.4-6.9-14.2-15v-1l0.8-10.8c0.8-10.6,9.8-18.6,20.4-18l0,0
		c10.5,0.3,18.9,8.8,19.1,19.3l0.5,10.8c0.1,8.3-6.4,15.1-14.7,15.2L1025.7,1417.6z"/>
	<path class="st9" d="M1025.7,1415.5l-10.8-0.5c-8-0.2-14.4-6.9-14.2-15v-0.3l0,0v-0.8l0.8-10.8c0.8-10.6,9.8-18.6,20.4-18l0,0
		c10.5,0.3,18.9,8.8,19.1,19.3v10.8c0.1,8.3-6.4,15.1-14.7,15.2L1025.7,1415.5z"/>
	<path class="st10" d="M1000.1,1401.3l1.3-12.9c0.8-10.6,9.8-18.6,20.4-18l0,0c10.5,0.3,18.9,8.8,19.1,19.3l0.5,12.9"/>
	<path class="st7" d="M1145,1419.5l-10.8-0.5c-8-0.2-14.4-6.9-14.2-15v-1l0.8-10.8c0.8-10.6,9.8-18.6,20.4-18l0,0
		c10.5,0.3,18.9,8.8,19.1,19.3v10.8c0.1,8.3-6.4,15.1-14.7,15.2L1145,1419.5z"/>
	<path class="st8" d="M1145,1417.7l-10.8-0.5c-8-0.3-14.4-6.9-14.2-15v-1l0.8-10.8c0.8-10.6,9.8-18.6,20.4-18l0,0
		c10.5,0.3,18.9,8.8,19.1,19.3l0.5,10.8c0.1,8.3-6.4,15.1-14.7,15.2H1145z"/>
	<path class="st9" d="M1145,1415.6l-10.8-0.5c-8-0.2-14.4-6.9-14.2-15v-0.3l0,0v-0.8l0.8-10.8c0.8-10.6,9.8-18.6,20.4-18l0,0
		c10.5,0.3,18.9,8.8,19.1,19.3v10.8c0.1,8.3-6.4,15.1-14.7,15.2L1145,1415.6z"/>
	<path class="st10" d="M1119.4,1401.5l1.3-12.9c0.8-10.6,9.8-18.6,20.4-18l0,0c10.5,0.3,18.9,8.8,19.1,19.3l0.5,12.9"/>
	<path class="st7" d="M1135.2,1542l10.8,0.5c8,0.2,14.4,6.9,14.2,15v1l-0.8,10.8c-0.8,10.6-9.8,18.6-20.4,18l0,0
		c-10.5-0.3-18.9-8.8-19.1-19.3v-10.8c-0.1-8.3,6.4-15.1,14.7-15.2L1135.2,1542z"/>
	<path class="st8" d="M1135.2,1543.8l10.8,0.5c8,0.2,14.4,6.9,14.2,15v1l-0.8,10.8c-0.8,10.6-9.8,18.6-20.4,18l0,0
		c-10.5-0.3-18.9-8.8-19.1-19.3l-0.5-10.8c-0.1-8.3,6.4-15.1,14.7-15.2H1135.2z"/>
	<path class="st9" d="M1135.2,1545.9l10.8,0.5c8,0.2,14.4,6.9,14.2,15v0.3l0,0v0.8l-0.8,10.8c-0.8,10.6-9.8,18.6-20.4,18l0,0
		c-10.5-0.3-18.9-8.8-19.1-19.3v-10.8c-0.1-8.3,6.4-15.1,14.7-15.2L1135.2,1545.9z"/>
	<path class="st10" d="M1160.7,1560.1l-1.3,12.9c-0.8,10.6-9.8,18.6-20.4,18l0,0c-10.5-0.3-18.9-8.8-19.1-19.3l-0.5-12.9"/>
	<path class="st7" d="M1015.9,1542l10.8,0.5c8,0.2,14.4,6.9,14.2,15v1l-0.8,10.8c-0.8,10.6-9.8,18.6-20.4,18l0,0
		c-10.5-0.3-18.9-8.8-19.1-19.3v-10.8c-0.1-8.3,6.4-15.1,14.7-15.2L1015.9,1542z"/>
	<path class="st8" d="M1015.9,1543.8l10.8,0.5c8,0.2,14.4,6.9,14.2,15v1l-0.8,10.8c-0.8,10.6-9.8,18.6-20.4,18l0,0
		c-10.5-0.3-18.9-8.8-19.1-19.3l-0.5-10.8c-0.1-8.3,6.4-15.1,14.7-15.2H1015.9z"/>
	<path class="st9" d="M1015.9,1545.9l10.8,0.5c8,0.2,14.4,6.9,14.2,15v0.3l0,0v0.8l-0.8,10.8c-0.8,10.6-9.8,18.6-20.4,18l0,0
		c-10.5-0.3-18.9-8.8-19.1-19.3v-10.8c-0.1-8.3,6.4-15.1,14.7-15.2L1015.9,1545.9z"/>
	<path class="st10" d="M1041.4,1560.1l-1.3,12.9c-0.8,10.6-9.8,18.6-20.4,18l0,0c-10.5-0.3-18.9-8.8-19.1-19.3l-0.5-12.9"/>
	<path class="st4" d="M619.3,1433.4h237.2c1.6,0,3.2,2.3,3.2,5v104.8c0,2.7-1.6,5-3.2,5H619.3c-1.6,0-3.2-2.3-3.2-5v-104.8
		C616.2,1435.8,617.7,1433.4,619.3,1433.4z"/>
	<path class="st5" d="M619.3,1425.2h237.2c1.6,0,3.2,2.3,3.2,5v104.8c0,2.7-1.6,5-3.2,5H619.3c-1.6,0-3.2-2.3-3.2-5v-104.8
		C616.2,1427.5,617.7,1425.2,619.3,1425.2z"/>
	<path class="st6" d="M859.7,1516v-93.9c0.2-1.2-0.6-2.4-1.8-2.6c0,0-0.1,0-0.1,0H617.7c-1.3,0.2-2.3,1.3-2.2,2.7l0,0v93.9l0,0v15.6
		c-0.2,1.2,0.6,2.4,1.8,2.6c0,0,0.1,0,0.1,0h240.1c1.3-0.2,2.3-1.3,2.2-2.7l0,0L859.7,1516"/>
	<path class="st7" d="M660.8,1417.5l-10.8-0.5c-8-0.2-14.4-6.9-14.2-15v-1l0.8-10.8c0.8-10.6,9.8-18.6,20.4-18l0,0
		c10.5,0.3,18.9,8.8,19.1,19.3v10.8c0.1,8.3-6.4,15.1-14.7,15.2H660.8z"/>
	<path class="st8" d="M660.8,1415.7l-10.8-0.5c-8-0.2-14.4-6.9-14.2-15v-1l0.8-10.8c0.8-10.6,9.8-18.6,20.4-18l0,0
		c10.5,0.3,18.9,8.8,19.1,19.3l0.5,10.8c0.1,8.3-6.4,15.1-14.7,15.2L660.8,1415.7z"/>
	<path class="st9" d="M660.8,1413.6l-10.8-0.5c-8-0.2-14.4-6.9-14.2-15v-0.3l0,0v-0.8l0.8-10.8c0.8-10.6,9.8-18.6,20.4-18l0,0
		c10.5,0.3,18.9,8.8,19.1,19.3v10.8c0.1,8.3-6.4,15.1-14.7,15.2L660.8,1413.6z"/>
	<path class="st10" d="M635.2,1399.4l1.3-12.9c0.8-10.6,9.8-18.6,20.4-18l0,0c10.5,0.3,18.9,8.8,19.1,19.3l0.5,12.9"/>
	<path class="st7" d="M780.1,1417.6l-10.8-0.5c-8-0.2-14.4-6.9-14.2-15v-1l0.8-10.8c0.8-10.6,9.8-18.6,20.4-18l0,0
		c10.5,0.3,18.9,8.8,19.1,19.3v10.8c0.1,8.3-6.4,15.1-14.7,15.2L780.1,1417.6z"/>
	<path class="st8" d="M780.1,1415.8l-10.8-0.5c-8-0.2-14.4-6.9-14.2-15v-1l0.8-10.8c0.8-10.6,9.8-18.6,20.4-18l0,0
		c10.5,0.3,18.9,8.8,19.1,19.3l0.5,10.8c0.1,8.3-6.4,15.1-14.7,15.2L780.1,1415.8z"/>
	<path class="st9" d="M780.1,1413.7l-10.8-0.5c-8-0.2-14.4-6.9-14.2-15v-0.3l0,0v-0.8l0.8-10.8c0.8-10.6,9.8-18.6,20.4-18l0,0
		c10.5,0.3,18.9,8.8,19.1,19.3v10.8c0.1,8.3-6.4,15.1-14.7,15.2H780.1z"/>
	<path class="st10" d="M754.6,1399.6l1.3-12.9c0.8-10.6,9.8-18.6,20.4-18l0,0c10.5,0.3,18.9,8.8,19.1,19.3l0.5,12.9"/>
	<path class="st7" d="M770.3,1540.1l10.8,0.5c8,0.2,14.4,6.9,14.2,15v1l-0.8,10.8c-0.8,10.6-9.8,18.6-20.4,18l0,0
		c-10.5-0.3-18.9-8.8-19.1-19.3v-10.8c-0.1-8.3,6.4-15.1,14.7-15.2L770.3,1540.1z"/>
	<path class="st8" d="M770.3,1541.9l10.8,0.5c8,0.2,14.4,6.9,14.2,15v1l-0.8,10.8c-0.8,10.6-9.8,18.6-20.4,18l0,0
		c-10.5-0.3-18.9-8.8-19.1-19.3l-0.5-10.8c-0.1-8.3,6.4-15.1,14.7-15.2L770.3,1541.9z"/>
	<path class="st9" d="M770.3,1544l10.8,0.5c8,0.2,14.4,6.9,14.2,15v0.3l0,0v0.8l-0.8,10.8c-0.8,10.6-9.8,18.6-20.4,18l0,0
		c-10.5-0.3-18.9-8.8-19.1-19.3v-10.8c-0.1-8.3,6.4-15.1,14.7-15.2H770.3z"/>
	<path class="st10" d="M795.8,1558.2l-1.3,12.9c-0.8,10.6-9.8,18.6-20.4,18l0,0c-10.5-0.3-18.9-8.8-19.1-19.3l-0.5-12.9"/>
	<path class="st7" d="M651,1540.1l10.8,0.5c8,0.2,14.4,6.9,14.2,15v1l-0.8,10.8c-0.8,10.6-9.8,18.6-20.4,18l0,0
		c-10.5-0.3-18.9-8.8-19.1-19.3v-10.8c-0.1-8.3,6.4-15.1,14.7-15.2L651,1540.1z"/>
	<path class="st8" d="M651,1541.9l10.8,0.5c8,0.2,14.4,6.9,14.2,15v1l-0.8,10.8c-0.8,10.6-9.8,18.6-20.4,18l0,0
		c-10.5-0.3-18.9-8.8-19.1-19.3l-0.5-10.8c-0.1-8.3,6.4-15.1,14.7-15.2L651,1541.9z"/>
	<path class="st9" d="M651,1544l10.8,0.5c8,0.2,14.4,6.9,14.2,15v0.3l0,0v0.8l-0.8,10.8c-0.8,10.6-9.8,18.6-20.4,18l0,0
		c-10.5-0.3-18.9-8.8-19.1-19.3v-10.8c-0.1-8.3,6.4-15.1,14.7-15.2H651z"/>
	<path class="st10" d="M676.5,1558.2l-1.3,12.9c-0.8,10.6-9.8,18.6-20.4,18l0,0c-10.5-0.3-18.9-8.8-19.1-19.3l-0.5-12.9"/>
	<path class="st4" d="M1321,887.6h115.6c0.8,0,1.5,1.1,1.5,2.4V940c0,1.3-0.8,2.4-1.5,2.4H1321c-0.8,0-1.5-1.1-1.5-2.4V890
		C1319.5,888.7,1320.3,887.6,1321,887.6z"/>
	<path class="st5" d="M1321,883.6h115.6c0.8,0,1.5,1.1,1.5,2.4v50.1c0,1.3-0.8,2.4-1.5,2.4H1321c-0.8,0-1.5-1.1-1.5-2.4V886
		C1319.5,884.7,1320.3,883.6,1321,883.6z"/>
	<path class="st6" d="M1438.2,927v-44.8c0.1-0.6-0.3-1.1-0.9-1.3c0,0,0,0-0.1,0h-117c-0.6,0.1-1.1,0.6-1.1,1.3l0,0V927l0,0v7.4
		c-0.1,0.6,0.3,1.1,0.9,1.3c0,0,0,0,0.1,0h117c0.6-0.1,1.1-0.6,1.1-1.3l0,0V927"/>
	<path class="st7" d="M1511.6,936l10.8,0.5c8,0.2,14.4,6.9,14.2,15v1l-0.8,10.8c-0.8,10.6-9.8,18.6-20.4,18l0,0
		c-10.5-0.3-18.9-8.8-19.1-19.3v-10.8c-0.1-8.3,6.4-15.1,14.7-15.2H1511.6z"/>
	<path class="st8" d="M1511.6,937.9l10.8,0.5c8,0.2,14.4,6.9,14.2,15v1l-0.8,10.8c-0.8,10.6-9.8,18.6-20.4,18l0,0
		c-10.5-0.3-18.9-8.8-19.1-19.3l-0.5-10.8c-0.1-8.3,6.4-15.1,14.7-15.2L1511.6,937.9z"/>
	<path class="st9" d="M1511.6,939.9l10.8,0.5c8,0.2,14.4,6.9,14.2,15v0.3l0,0v0.8l-0.8,10.8c-0.8,10.6-9.8,18.6-20.4,18l0,0
		c-10.5-0.3-18.9-8.8-19.1-19.3v-10.8c-0.1-8.3,6.4-15.1,14.7-15.2H1511.6z"/>
	<path class="st10" d="M1537.2,954.1l-1.3,12.9c-0.8,10.6-9.8,18.6-20.4,18l0,0c-10.5-0.3-18.9-8.8-19.1-19.3l-0.5-12.9"/>
	<path class="st7" d="M1392.3,936l10.8,0.5c8,0.2,14.4,6.9,14.2,15v1l-0.8,10.8c-0.8,10.6-9.8,18.6-20.4,18l0,0
		c-10.5-0.3-18.9-8.8-19.1-19.3v-10.8c-0.1-8.3,6.4-15.1,14.7-15.2H1392.3z"/>
	<path class="st8" d="M1392.3,937.9l10.8,0.5c8,0.2,14.4,6.9,14.2,15v1l-0.8,10.8c-0.8,10.6-9.8,18.6-20.4,18l0,0
		c-10.5-0.3-18.9-8.8-19.1-19.3l-0.5-10.8c-0.1-8.3,6.4-15.1,14.7-15.2L1392.3,937.9z"/>
	<path class="st9" d="M1392.3,939.9l10.8,0.5c8,0.2,14.4,6.9,14.2,15v0.3l0,0v0.8l-0.8,10.8c-0.8,10.6-9.8,18.6-20.4,18l0,0
		c-10.5-0.3-18.9-8.8-19.1-19.3v-10.8c-0.1-8.3,6.4-15.1,14.7-15.2H1392.3z"/>
	<path class="st10" d="M1417.9,954.1l-1.3,12.9c-0.8,10.6-9.8,18.6-20.4,18l0,0c-10.5-0.3-18.9-8.8-19.1-19.3l-0.5-12.9"/>
	<path class="st4" d="M1442.2,887.6h115.6c0.8,0,1.5,1.1,1.5,2.4V940c0,1.3-0.8,2.4-1.5,2.4h-115.6c-0.8,0-1.5-1.1-1.5-2.4V890
		C1440.6,888.7,1441.4,887.6,1442.2,887.6z"/>
	<path class="st5" d="M1442.2,883.6h115.6c0.8,0,1.5,1.1,1.5,2.4v50.1c0,1.3-0.8,2.4-1.5,2.4h-115.6c-0.8,0-1.5-1.1-1.5-2.4V886
		C1440.6,884.7,1441.4,883.6,1442.2,883.6z"/>
	<path class="st6" d="M1559.4,927v-44.8c0.1-0.6-0.3-1.1-0.9-1.3c0,0,0,0-0.1,0h-117c-0.6,0.1-1.1,0.6-1.1,1.3l0,0V927l0,0v7.4
		c-0.1,0.6,0.3,1.1,0.9,1.3c0,0,0,0,0.1,0h117c0.6-0.1,1.1-0.6,1.1-1.3l0,0V927"/>
	<path class="st4" d="M1148.4,1625v115.6c0,0.8-1.1,1.5-2.4,1.5h-50.1c-1.3,0-2.4-0.8-2.4-1.5V1625c0-0.8,1.1-1.5,2.4-1.5h50.1
		C1147.2,1623.4,1148.4,1624.2,1148.4,1625z"/>
	<path class="st5" d="M1152.3,1625v115.6c0,0.8-1.1,1.5-2.4,1.5h-50.1c-1.3,0-2.4-0.8-2.4-1.5V1625c0-0.8,1.1-1.5,2.4-1.5h50.1
		C1151.2,1623.4,1152.3,1624.2,1152.3,1625z"/>
	<path class="st6" d="M1108.9,1742.1h44.8c0.6,0.1,1.1-0.3,1.3-0.9c0,0,0,0,0-0.1l0,0v-117c-0.1-0.6-0.6-1.1-1.3-1.1h-52.3
		c-0.6-0.1-1.1,0.3-1.3,0.9c0,0,0,0,0,0.1l0,0v117c0.1,0.6,0.6,1.1,1.3,1.1L1108.9,1742.1"/>
	<path class="st7" d="M1429.1,1694.4l-0.5,10.8c-0.2,8-6.9,14.4-15,14.2h-1l-10.8-0.8c-10.6-0.8-18.6-9.8-18-20.4l0,0
		c0.3-10.5,8.8-18.9,19.3-19.1h10.8c8.3-0.1,15.1,6.4,15.2,14.7L1429.1,1694.4z"/>
	<path class="st8" d="M1427.3,1694.4l-0.5,10.8c-0.2,8-6.9,14.4-15,14.2h-1l-10.8-0.8c-10.6-0.8-18.6-9.8-18-20.4l0,0
		c0.3-10.5,8.8-18.9,19.3-19.1l10.8-0.5c8.3-0.1,15.1,6.4,15.2,14.7V1694.4z"/>
	<path class="st9" d="M1425.2,1694.4l-0.5,10.8c-0.2,8-6.9,14.4-15,14.2h-1l-10.8-0.8c-10.6-0.8-18.6-9.8-18-20.4l0,0
		c0.3-10.5,8.8-18.9,19.3-19.1h10.8c8.3-0.1,15.1,6.4,15.2,14.7L1425.2,1694.4z"/>
	<path class="st10" d="M1411.1,1719.9l-12.9-1.3c-10.6-0.8-18.6-9.8-18-20.4l0,0c0.3-10.5,8.8-18.9,19.3-19.1l12.9-0.5"/>
	<path class="st7" d="M1099.9,1696.3l-0.5,10.8c-0.2,8-6.9,14.4-15,14.2h-1l-10.8-0.8c-10.6-0.8-18.6-9.8-18-20.4l0,0
		c0.3-10.5,8.8-18.9,19.3-19.1h10.8c8.3-0.1,15.1,6.4,15.2,14.7L1099.9,1696.3z"/>
	<path class="st8" d="M1098.1,1696.3l-0.5,10.8c-0.2,8-6.9,14.4-15,14.2h-1l-10.8-0.8c-10.6-0.8-18.6-9.8-18-20.4l0,0
		c0.3-10.5,8.8-18.9,19.3-19.1l10.8-0.5c8.3-0.1,15.1,6.4,15.2,14.7L1098.1,1696.3z"/>
	<path class="st9" d="M1096,1696.3l-0.5,10.8c-0.2,8-6.9,14.4-15,14.2h-1l-10.8-0.8c-10.6-0.8-18.6-9.8-18-20.4l0,0
		c0.3-10.5,8.8-18.9,19.3-19.1h10.8c8.3-0.1,15.1,6.4,15.2,14.7L1096,1696.3z"/>
	<path class="st10" d="M1081.8,1721.8l-12.9-1.3c-10.6-0.8-18.6-9.8-18-20.4l0,0c0.3-10.5,8.8-18.9,19.3-19.1l12.9-0.5"/>
	<path class="st4" d="M1477.6,1625v115.6c0,0.8-1.1,1.5-2.4,1.5h-50.1c-1.3,0-2.4-0.8-2.4-1.5V1625c0-0.8,1.1-1.5,2.4-1.5h50.1
		C1476.5,1623.4,1477.6,1624.2,1477.6,1625z"/>
	<path class="st5" d="M1481.5,1625v115.6c0,0.8-1.1,1.5-2.4,1.5h-50.1c-1.3,0-2.4-0.8-2.4-1.5V1625c0-0.8,1.1-1.5,2.4-1.5h50.1
		C1480.4,1623.4,1481.5,1624.2,1481.5,1625z"/>
	<path class="st6" d="M1438.1,1742.1h44.8c0.6,0.1,1.1-0.3,1.3-0.9c0,0,0,0,0-0.1l0,0v-117c-0.1-0.6-0.6-1.1-1.3-1.1h-52.3
		c-0.6-0.1-1.1,0.3-1.3,0.9c0,0,0,0,0,0.1l0,0v117c0.1,0.6,0.6,1.1,1.3,1.1L1438.1,1742.1"/>
	<path class="st4" d="M1169.2,1623.4h50.1c1.3,0,2.4,0.8,2.4,1.5v115.6c0,0.8-1.1,1.5-2.4,1.5h-50.1c-1.3,0-2.4-0.8-2.4-1.5V1625
		C1166.8,1624.2,1168,1623.4,1169.2,1623.4z"/>
	<path class="st5" d="M1165.3,1623.4h50.1c1.3,0,2.4,0.8,2.4,1.5v115.6c0,0.8-1.1,1.5-2.4,1.5h-50.1c-1.3,0-2.4-0.8-2.4-1.5V1625
		C1162.9,1624.2,1164,1623.4,1165.3,1623.4z"/>
	<path class="st6" d="M1206.3,1742.1h7.4c0.6,0,1.2-0.4,1.3-1.1v-117l0,0c-0.1-0.6-0.6-1-1.2-0.9c0,0,0,0-0.1,0h-52.3
		c-0.6,0-1.2,0.4-1.3,1.1v117l0,0c0.1,0.6,0.6,1,1.2,0.9c0,0,0,0,0.1,0L1206.3,1742.1"/>
	<path class="st7" d="M1215.3,1695.8c0.1-8.3,7-14.8,15.2-14.7h10.8c10.5,0.1,19.1,8.6,19.3,19.1l0,0c0.5,10.6-7.5,19.6-18,20.4
		l-10.8,0.8h-1c-8,0.2-14.7-6.2-15-14.2l-0.5-10.8L1215.3,1695.8z"/>
	<path class="st8" d="M1217.1,1695.2c0.1-8.3,7-14.8,15.2-14.7l10.8,0.5c10.5,0.1,19.1,8.6,19.3,19.1l0,0c0.5,10.6-7.5,19.6-18,20.4
		l-10.8,0.8h-1c-8,0.2-14.7-6.2-15-14.2l-0.5-10.8L1217.1,1695.2z"/>
	<path class="st9" d="M1219.2,1695.8c0.1-8.3,7-14.8,15.2-14.7h10.8c10.5,0.1,19.1,8.6,19.3,19.1l0,0c0.5,10.6-7.5,19.6-18,20.4
		l-10.8,0.8h-1c-8,0.2-14.7-6.1-15-14.2l-0.5-10.8L1219.2,1695.8z"/>
	<path class="st10" d="M1232.1,1680.5l12.9,0.5c10.5,0.1,19.1,8.6,19.3,19.1l0,0c0.5,10.6-7.5,19.6-18,20.4l-12.9,1.3"/>
	<path class="st4" d="M713.2,1626.6v115.6c0,0.8-1.1,1.5-2.4,1.5h-50.1c-1.3,0-2.4-0.8-2.4-1.5v-115.6c0-0.8,1.1-1.5,2.4-1.5h50.1
		C712.1,1625.1,713.2,1625.9,713.2,1626.6z"/>
	<path class="st5" d="M717.2,1626.6v115.6c0,0.8-1.1,1.5-2.4,1.5h-50.1c-1.3,0-2.4-0.8-2.4-1.5v-115.6c0-0.8,1.1-1.5,2.4-1.5h50.1
		C716,1625.1,717.2,1625.9,717.2,1626.6z"/>
	<path class="st6" d="M673.7,1743.8h44.8c0.6,0.1,1.1-0.3,1.3-0.9c0,0,0,0,0-0.1l0,0v-117c-0.1-0.6-0.6-1.1-1.3-1.1h-52.3
		c-0.6-0.1-1.1,0.3-1.3,0.9c0,0,0,0,0,0.1l0,0v117c0.1,0.6,0.6,1.1,1.3,1.1H673.7"/>
	<path class="st7" d="M664.7,1697.9l-0.5,10.8c-0.2,8-6.9,14.4-15,14.2h-1l-10.8-0.8c-10.6-0.8-18.6-9.8-18-20.4l0,0
		c0.3-10.5,8.8-18.9,19.3-19.1h10.8c8.3-0.1,15.1,6.4,15.2,14.7L664.7,1697.9z"/>
	<path class="st8" d="M662.9,1697.9l-0.5,10.8c-0.2,8-6.9,14.4-15,14.2h-1l-10.8-0.8c-10.6-0.8-18.6-9.8-18-20.4l0,0
		c0.3-10.5,8.8-18.9,19.3-19.1l10.8-0.5c8.3-0.1,15.1,6.4,15.2,14.7V1697.9z"/>
	<path class="st9" d="M660.9,1697.9l-0.5,10.8c-0.2,8-6.9,14.4-15,14.2h-1l-10.8-0.8c-10.6-0.8-18.6-9.8-18-20.4l0,0
		c0.3-10.5,8.8-18.9,19.3-19.1h10.8c8.3-0.1,15.1,6.4,15.2,14.7V1697.9z"/>
	<path class="st10" d="M646.7,1723.5l-12.9-1.3c-10.6-0.8-18.6-9.8-18-20.4l0,0c0.3-10.5,8.8-18.9,19.3-19.1l12.9-0.5"/>
	<path class="st4" d="M734.1,1625.1h50.1c1.3,0,2.4,0.8,2.4,1.5v115.6c0,0.8-1.1,1.5-2.4,1.5h-50.1c-1.3,0-2.4-0.8-2.4-1.5v-115.6
		C731.7,1625.9,732.8,1625.1,734.1,1625.1z"/>
	<path class="st5" d="M730.1,1625.1h50.1c1.3,0,2.4,0.8,2.4,1.5v115.6c0,0.8-1.1,1.5-2.4,1.5h-50.1c-1.3,0-2.4-0.8-2.4-1.5v-115.6
		C727.7,1625.9,728.8,1625.1,730.1,1625.1z"/>
	<path class="st6" d="M771.1,1743.8h7.4c0.6,0,1.2-0.4,1.3-1.1v-117l0,0c-0.1-0.6-0.6-1-1.2-0.9c0,0,0,0-0.1,0h-52.3
		c-0.6,0-1.2,0.4-1.3,1.1v117l0,0c0.1,0.6,0.6,1,1.2,0.9c0,0,0,0,0.1,0L771.1,1743.8"/>
	<path class="st7" d="M780.2,1697.4c0.1-8.3,7-14.8,15.2-14.7h10.8c10.5,0.1,19.1,8.6,19.3,19.1l0,0c0.5,10.6-7.5,19.6-18,20.4
		l-10.8,0.8h-1c-8,0.2-14.7-6.2-15-14.2l-0.5-10.8V1697.4z"/>
	<path class="st8" d="M782,1696.9c0.1-8.3,7-14.8,15.2-14.7l10.8,0.5c10.5,0.1,19.1,8.6,19.3,19.1l0,0c0.5,10.6-7.5,19.6-18,20.4
		l-10.8,0.8h-1c-8,0.2-14.7-6.2-15-14.2l-0.5-10.8L782,1696.9z"/>
	<path class="st9" d="M784,1697.4c0.1-8.3,7-14.8,15.2-14.7h10.8c10.5,0.1,19.1,8.6,19.3,19.1l0,0c0.5,10.6-7.5,19.6-18,20.4
		l-10.8,0.8h-1c-8,0.2-14.7-6.2-15-14.2l-0.5-10.8V1697.4z"/>
	<path class="st10" d="M796.9,1682.2l12.9,0.5c10.5,0.1,19.1,8.6,19.3,19.1l0,0c0.5,10.6-7.5,19.6-18,20.4l-12.9,1.3"/>
	<path class="st11" d="M587.8,1719.8l16.2,14.7h0.6l-17.1-15L587.8,1719.8z"/>
	<rect x="535" y="1672.1" class="st12" width="52.8" height="47.1"/>
	<path class="st11" d="M587.8,1719.2l17.1,15c0.6-0.5,0.9-1.3,0.9-2.1v-60.6h-17.7v47.7L587.8,1719.2z"/>
	<rect x="430.5" y="1672.1" class="st13" width="53.1" height="47.1"/>
	<polygon class="st13" points="430.2,1719.2 430.2,1672.1 379.2,1672.1 379.5,1719.2 	"/>
	<path class="st11" d="M362.1,1734.8L362.1,1734.8l17.7-15L362.1,1734.8z"/>
	<path class="st11" d="M379.5,1719.2l-17.1,15.6c0.4,0.4,0.9,0.6,1.5,0.6h66.9v-16.2H379.5z"/>
	<rect x="430.5" y="1719.2" class="st11" width="53.1" height="16.2"/>
	<path class="st11" d="M362.1,1734.8l17.7-15l-0.6-47.1h-15.6c-1.5-0.1-2.7,1-3,2.4v57.6C361,1733.5,361.5,1734.2,362.1,1734.8z"/>
	<polygon class="st13" points="534.7,1719.2 534.7,1672.1 483.5,1672.1 484.1,1719.2 	"/>
	<rect x="483.5" y="1719.2" class="st14" width="51.6" height="16.2"/>
	<path class="st15" d="M587.2,1719.2H535v16.2h67.8c0.6,0,1.1-0.2,1.5-0.6l-17.1-14.7L587.2,1719.2z"/>
	<path class="st4" d="M302.4,1275h191.2c1.4,0,2.5,1.1,2.6,2.4v51.3c-0.1,1.3-1.2,2.4-2.6,2.4H302.4c-1.4,0-2.5-1.1-2.6-2.4v-51.3
		C300,1276,301.1,1275,302.4,1275z"/>
	<path class="st5" d="M302.4,1270.9h191.2c1.4,0,2.5,1.1,2.6,2.4v51.3c-0.1,1.3-1.2,2.4-2.6,2.4H302.4c-1.4,0-2.5-1.1-2.6-2.4v-51.3
		C300,1272,301.1,1270.9,302.4,1270.9z"/>
	<path class="st6" d="M496.2,1315.4v-46c0.3-0.6-0.5-1.1-1.5-1.3H301.2c-1,0-1.8,0.7-1.8,1.3l0,0v46l0,0v7.6
		c-0.3,0.6,0.5,1.1,1.5,1.3h193.5c1,0,1.8-0.6,1.8-1.3l0,0V1315.4"/>
	<path class="st4" d="M306.7,1729v-395c0-2.6,1.1-5.3,2.4-5.3h51.3c1.3,0,2.4,2.6,2.4,5.3v395c0,2.6-1.1,5.3-2.4,5.3h-51.3
		C307.8,1734.3,306.7,1731.6,306.7,1729z"/>
	<path class="st5" d="M302.6,1729v-395c0-2.6,1.1-5.3,2.4-5.3h51.3c1.3,0,2.4,2.6,2.4,5.3v395c0,2.6-1.1,5.3-2.4,5.3h-51.3
		C303.8,1734.3,302.6,1731.6,302.6,1729z"/>
	<path class="st6" d="M347.1,1328.7h-46c-0.6-0.5-1.1,1.1-1.3,3.2l0,0v399.7c0,2.1,0.6,3.7,1.3,3.7h53.6c0.6,0.5,1.1-1.1,1.3-3.2
		l0,0v-399.8c0-2.1-0.6-3.7-1.3-3.7L347.1,1328.7"/>
	<path class="st4" d="M399.3,1599.7h74.4c0.5,0,1,1.4,1,3v63.2c0,1.6-0.5,3-1,3h-74.4c-0.5,0-1-1.4-1-3v-63.2
		C398.3,1601.1,398.8,1599.7,399.3,1599.7z"/>
	<path class="st5" d="M399.3,1594.7h74.4c0.5,0,1,1.4,1,3v63.2c0,1.6-0.5,3-1,3h-74.4c-0.5,0-1-1.4-1-3v-63.2
		C398.3,1596.1,398.8,1594.7,399.3,1594.7z"/>
	<path class="st6" d="M474.7,1649.5v-56.6c0.1-0.6-0.1-1.2-0.6-1.6h-75.3c-0.4,0-0.7,0.8-0.7,1.6l0,0v56.6l0,0v9.4
		c-0.1,0.6,0.1,1.2,0.6,1.6H474c0.4,0,0.7-0.8,0.7-1.6l0,0L474.7,1649.5"/>
	<path class="st16" d="M458.3,1583.5v-0.7l-3-33.9v-6.5c0-1.5-1.1-2.7-2.6-2.8h-3.2l-26.4,0.5h-2.8c-1.3,0.2-2.3,1.1-2.8,2.3
		l-0.5,5.8v0.5l-2.8,34.1c0,0.6,0.2,1.1,0.5,1.6l0,0c0,1.6,0.7,2.8,2.3,2.8h1.9c0.4,0,0.8-0.2,1.2-0.5c10.3,1.6,20.8,1.6,31.1,0
		c0.3,0.3,0.7,0.5,1.2,0.5h1.9c1.6,0,2.3-1.2,2.3-2.8l0,0L458.3,1583.5z"/>
	<path class="st8" d="M458.3,1580.7v-0.7l-3-33.9v-6.5c0-1.5-1.1-2.7-2.6-2.8h-32.5c-1.6,0-2.3,1.2-2.8,2.3l-0.5,5.8v0.5l-2.8,34.1
		c0,0.6,0.2,1.1,0.5,1.6l0,0c0,1.6,0.7,2.8,2.3,2.8h1.9c0.4,0,0.8-0.2,1.2-0.5c10.3,1.7,20.8,1.5,31.1-0.5c0.3,0.3,0.7,0.5,1.2,0.5
		h1.9c1.6,0,2.3-1.2,2.3-2.8L458.3,1580.7z"/>
	<path class="st9" d="M455.9,1582.3L455.9,1582.3c-12.4,2.2-25.1,2.4-37.6,0.5l0,0c-1.6-0.4-2.7-1.8-2.8-3.5l3-38.5
		c0.3-2.6,2.5-4.6,5.1-4.6h26.4c2.6,0.1,4.8,2,5.1,4.6l3.5,38.5C458.4,1580.7,457.3,1581.9,455.9,1582.3z"/>
	<path class="st17" d="M452.9,1547.3l-32.2,0.5c-1.4,0-2.6-1-2.8-2.3l0,0l0.5-5.8c0-1.6,1.2-2.3,2.8-2.3l31.8-0.5
		c1.4,0,2.6,1,2.8,2.3l0,0v5.8C455.5,1546.3,454.3,1547.3,452.9,1547.3z"/>
	<path class="st17" d="M420.2,1583h-1.9c-1.6,0-2.3-1.2-2.3-2.8l0,0l3-41.5l4.6,0.5l-0.7,41.5C423,1582.3,421.8,1583,420.2,1583z"/>
	<path class="st17" d="M453.6,1583.5h1.9c1.6,0,2.3-1.2,2.3-2.8l0,0l-3.9-41.5l-4.6,0.5l1.6,41.5
		C451.3,1582.4,452.3,1583.3,453.6,1583.5z"/>
	<path class="st4" d="M477.4,1599.6h74.4c0.5,0,1,1.4,1,3v63.2c0,1.6-0.5,3-1,3h-74.4c-0.5,0-1-1.4-1-3v-63.2
		C476.4,1601,476.9,1599.6,477.4,1599.6z"/>
	<path class="st5" d="M477.4,1594.6h74.4c0.5,0,1,1.4,1,3v63.2c0,1.6-0.5,3-1,3h-74.4c-0.5,0-1-1.4-1-3v-63.2
		C476.4,1596,476.9,1594.6,477.4,1594.6z"/>
	<path class="st6" d="M552.8,1649.4v-56.6c0.1-0.6-0.1-1.2-0.6-1.6h-75.3c-0.4,0-0.7,0.8-0.7,1.6l0,0v56.6l0,0v9.4
		c-0.1,0.6,0.1,1.2,0.6,1.6h75.3c0.4,0,0.7-0.8,0.7-1.6l0,0L552.8,1649.4"/>
	<path class="st16" d="M536.4,1583.4v-0.7l-3-33.9v-6.5c0-1.5-1.1-2.7-2.6-2.8h-3.2l-26.4,0.5h-2.8c-1.3,0.2-2.3,1.1-2.8,2.3
		l-0.5,5.8v0.5l-2.8,34.1c0,0.6,0.2,1.1,0.5,1.6l0,0c0,1.6,0.7,2.8,2.3,2.8h1.9c0.4,0,0.8-0.2,1.2-0.5c10.3,1.6,20.8,1.6,31.1,0
		c0.3,0.3,0.7,0.5,1.2,0.5h1.9c1.6,0,2.3-1.2,2.3-2.8l0,0L536.4,1583.4z"/>
	<path class="st8" d="M536.4,1580.6v-0.7l-3-33.9v-6.5c0-1.5-1.1-2.7-2.6-2.8h-32.5c-1.6,0-2.3,1.2-2.8,2.3l-0.5,5.8v0.5l-2.8,34.1
		c0,0.6,0.2,1.1,0.5,1.6l0,0c0,1.6,0.7,2.8,2.3,2.8h1.9c0.4,0,0.8-0.2,1.2-0.5c10.3,1.7,20.8,1.5,31.1-0.5c0.3,0.3,0.7,0.5,1.2,0.5
		h1.9c1.6,0,2.3-1.2,2.3-2.8L536.4,1580.6z"/>
	<path class="st9" d="M534.1,1582.3L534.1,1582.3c-12.4,2.2-25.1,2.4-37.6,0.5l0,0c-1.6-0.4-2.7-1.8-2.8-3.5l3-38.5
		c0.3-2.6,2.5-4.6,5.1-4.6h26.4c2.6,0.1,4.8,2,5.1,4.6l3.5,38.5C536.6,1580.7,535.5,1581.8,534.1,1582.3z"/>
	<path class="st17" d="M531.1,1547.2l-32.2,0.5c-1.4,0-2.6-1-2.8-2.3l0,0l0.5-5.8c0-1.6,1.2-2.3,2.8-2.3l31.8-0.5
		c1.4,0,2.6,1,2.8,2.3l0,0v5.8C533.7,1546.3,532.5,1547.3,531.1,1547.2z"/>
	<path class="st17" d="M498.4,1582.9h-1.9c-1.6,0-2.3-1.2-2.3-2.8l0,0l3-41.5l4.6,0.5l-0.7,41.5
		C501.2,1582.3,500,1582.9,498.4,1582.9z"/>
	<path class="st17" d="M531.8,1583.4h1.9c1.6,0,2.3-1.2,2.3-2.8l0,0l-3.9-41.5l-4.6,0.5l1.6,41.5
		C529.4,1582.3,530.5,1583.2,531.8,1583.4z"/>
	<path class="st16" d="M380.6,1337c7.9,1.6,13,9.2,11.5,17.1c0,0.1,0,0.2-0.1,0.3c-1.5,7.8-9,13-16.8,11.5c-0.1,0-0.2,0-0.3-0.1
		h-0.2c-7.9-1.6-13-9.2-11.5-17.1c0-0.1,0-0.2,0.1-0.3l0,0C365,1340.5,372.7,1335.5,380.6,1337z"/>
	
		<ellipse transform="matrix(3.327723e-02 -0.9994 0.9994 3.327723e-02 -983.4465 1682.595)" class="st5" cx="378.1" cy="1349.7" rx="14.6" ry="14.6"/>
	
		<ellipse transform="matrix(3.327726e-02 -0.9994 0.9994 3.327726e-02 -981.7654 1681.7888)" class="st18" cx="378.5" cy="1348.4" rx="14.6" ry="14.6"/>
	<path class="st16" d="M464.6,1337c7.9,1.6,13,9.2,11.5,17.1c0,0.1,0,0.2-0.1,0.3c-1.5,7.8-9,13-16.8,11.5c-0.1,0-0.2,0-0.3-0.1
		h-0.2c-7.9-1.6-13-9.2-11.5-17.1c0-0.1,0-0.2,0.1-0.3l0,0C449,1340.5,456.7,1335.5,464.6,1337z"/>
	
		<ellipse transform="matrix(3.327724e-02 -0.9994 0.9994 3.327724e-02 -902.25 1766.5391)" class="st5" cx="462" cy="1349.7" rx="14.6" ry="14.6"/>
	
		<ellipse transform="matrix(3.327724e-02 -0.9994 0.9994 3.327724e-02 -900.571 1765.7329)" class="st18" cx="462.5" cy="1348.4" rx="14.6" ry="14.6"/>
	<path class="st16" d="M422.5,1337c7.9,1.6,13,9.2,11.5,17.1c0,0.1,0,0.2-0.1,0.3c-1.5,7.8-9,13-16.8,11.5c-0.1,0-0.2,0-0.3-0.1
		h-0.2c-7.9-1.6-13-9.2-11.5-17.1c0-0.1,0-0.2,0.1-0.3l0,0C406.9,1340.5,414.6,1335.5,422.5,1337z"/>
	
		<ellipse transform="matrix(3.327724e-02 -0.9994 0.9994 3.327724e-02 -942.9587 1724.4518)" class="st5" cx="419.9" cy="1349.7" rx="14.6" ry="14.6"/>
	
		<ellipse transform="matrix(3.327726e-02 -0.9994 0.9994 3.327726e-02 -941.2787 1723.6465)" class="st18" cx="420.4" cy="1348.4" rx="14.6" ry="14.6"/>
	<path class="st16" d="M381.6,1232.5c7.9,1.6,13,9.2,11.5,17.1c0,0.1,0,0.2-0.1,0.3c-1.5,7.8-9,13-16.8,11.5c-0.1,0-0.2,0-0.3-0.1
		h-0.2c-7.9-1.6-13-9.2-11.5-17.1c0-0.1,0-0.2,0.1-0.3l0,0C366,1236.1,373.6,1231,381.6,1232.5z"/>
	
		<ellipse transform="matrix(3.327726e-02 -0.9994 0.9994 3.327726e-02 -878.1047 1582.5609)" class="st5" cx="379" cy="1245.2" rx="14.6" ry="14.6"/>
	
		<ellipse transform="matrix(3.327723e-02 -0.9994 0.9994 3.327723e-02 -876.4245 1581.7557)" class="st18" cx="379.4" cy="1243.9" rx="14.6" ry="14.6"/>
	<path class="st16" d="M465.5,1232.5c7.9,1.6,13,9.2,11.5,17.1c0,0.1,0,0.2-0.1,0.3c-1.5,7.8-9,13-16.8,11.5c-0.1,0-0.2,0-0.3-0.1
		h-0.2c-7.9-1.6-13-9.2-11.5-17.1c0-0.1,0-0.2,0.1-0.3l0,0C450,1236.1,457.6,1231,465.5,1232.5z"/>
	
		<ellipse transform="matrix(3.327724e-02 -0.9994 0.9994 3.327724e-02 -796.9081 1666.5049)" class="st5" cx="463" cy="1245.2" rx="14.6" ry="14.6"/>
	
		<ellipse transform="matrix(3.327723e-02 -0.9994 0.9994 3.327723e-02 -795.2289 1665.7007)" class="st18" cx="463.4" cy="1243.9" rx="14.6" ry="14.6"/>
	<path class="st16" d="M423.4,1232.5c7.9,1.6,13,9.2,11.5,17.1c0,0.1,0,0.2-0.1,0.3c-1.5,7.8-9,13-16.8,11.5c-0.1,0-0.2,0-0.3-0.1
		h-0.2c-7.9-1.6-13-9.2-11.5-17.1c0-0.1,0-0.2,0.1-0.3l0,0C407.9,1236.1,415.5,1231,423.4,1232.5z"/>
	
		<ellipse transform="matrix(3.327724e-02 -0.9994 0.9994 3.327724e-02 -837.6168 1624.4175)" class="st5" cx="420.9" cy="1245.2" rx="14.6" ry="14.6"/>
	
		<ellipse transform="matrix(3.327724e-02 -0.9994 0.9994 3.327724e-02 -835.9378 1623.6134)" class="st18" cx="421.3" cy="1243.9" rx="14.6" ry="14.6"/>
	<path class="st7" d="M452.1,526.6l-0.5,10.8c-0.3,8-6.9,14.3-15,14.2h-1l-10.8-0.8c-10.6-0.8-18.6-9.8-18-20.4l0,0
		c0.3-10.5,8.8-18.9,19.3-19.1h10.8c8.3-0.1,15.1,6.4,15.2,14.7L452.1,526.6z"/>
	<path class="st8" d="M450.3,526.6l-0.5,10.8c-0.3,8-6.9,14.3-15,14.2h-1l-10.8-0.8c-10.6-0.8-18.6-9.8-18-20.4l0,0
		c0.3-10.5,8.8-18.9,19.3-19.1l10.8-0.5c8.3-0.1,15.1,6.4,15.2,14.7V526.6z"/>
	<path class="st9" d="M448.3,526.6l-0.5,10.8c-0.3,8-6.9,14.3-15,14.2h-1l-10.8-0.8c-10.6-0.8-18.6-9.8-18-20.4l0,0
		c0.3-10.5,8.8-18.9,19.3-19.1h10.8c8.3-0.1,15.1,6.4,15.2,14.7L448.3,526.6z"/>
	<path class="st10" d="M434.1,552.1l-12.9-1.3c-10.6-0.8-18.6-9.8-18-20.4l0,0c0.3-10.5,8.8-18.9,19.3-19.1l12.9-0.5"/>
	<path class="st5" d="M459.2,470.1h79.1L521,614.8c0,0-4.3,15.1-19.4,7.6s-42.4-22-42.4-22V470.1z"/>
	<path class="st6" d="M461.5,470.1h79.1l-17.3,144.7c0,0-4.3,15.1-19.4,7.6s-42.4-22-42.4-22V470.1z"/>
	<path class="st4" d="M1221.3,263.3h334.1c2.2,0,4.5,1.9,4.5,4.1v86.3c0,2.2-2.2,4.1-4.5,4.1h-334.1c-2.2,0-4.5-1.9-4.5-4.1v-86.3
		C1216.9,265.2,1219.1,263.3,1221.3,263.3z"/>
	<path class="st5" d="M1221.3,256.4h334.1c2.2,0,4.5,1.9,4.5,4.1v86.3c0,2.2-2.2,4.1-4.5,4.1h-334.1c-2.2,0-4.5-1.9-4.5-4.1v-86.3
		C1216.9,258.3,1219.1,256.4,1221.3,256.4z"/>
	<path class="st6" d="M1559.9,331.2V254c0.4-1.1-0.9-1.9-2.7-2.2h-338.1c-1.8,0-3.1,1.1-3.1,2.2l0,0v77.3l0,0v12.8
		c-0.4,1.1,0.9,1.9,2.7,2.2h338.1c1.8,0,3.1-1.1,3.1-2.2l0,0V331.2"/>
	<path class="st16" d="M921,345.9l0.5-0.5l21.8-26.1l4.6-4.6c1-1,1.1-2.7,0.2-3.8l-2.3-2.3l-19-18.4l-2-2c-1.1-0.8-2.4-0.9-3.6-0.3
		l-4.4,3.8l-0.3,0.3l-26.1,22.1c-0.4,0.4-0.6,0.9-0.8,1.5l0,0c-1.1,1.1-1.5,2.5-0.3,3.6l1.3,1.3c0.3,0.3,0.7,0.5,1.1,0.5
		c6.1,8.4,13.6,15.8,22,22c0,0.4,0.2,0.8,0.5,1.1l1.3,1.3c1.1,1.1,2.5,0.8,3.6-0.3l0,0L921,345.9z"/>
	<path class="st8" d="M922.9,343.9l0.5-0.5l21.8-26.1l4.6-4.6c1-1,1.1-2.7,0.2-3.8l-23-23c-1.1-1.1-2.5-0.8-3.6-0.3l-4.4,3.8
		l-0.3,0.3l-26.1,22.1c-0.4,0.4-0.6,0.9-0.8,1.5l0,0c-1.1,1.1-1.5,2.5-0.3,3.6l1.3,1.3c0.3,0.3,0.7,0.5,1.1,0.5
		c6.1,8.5,13.6,15.8,22.3,21.6c0,0.4,0.2,0.8,0.5,1.1l1.3,1.3c1.1,1.1,2.5,0.8,3.6-0.3L922.9,343.9z"/>
	<path class="st9" d="M920.2,343.4L920.2,343.4c-10.4-7.2-19.5-16.1-26.9-26.2l0,0c-0.8-1.4-0.6-3.2,0.5-4.4l29.4-25.1
		c2.1-1.6,5-1.5,6.9,0.3l18.7,18.7c1.8,1.9,2,4.8,0.3,6.9l-24.8,29.7C923,344,921.5,344.1,920.2,343.4z"/>
	<path class="st17" d="M942.8,316.5L919.7,294c-1-1-1.1-2.5-0.3-3.6l0,0l4.4-3.8c1.1-1.1,2.5-0.8,3.6,0.3l22.8,22.1
		c1,1,1.1,2.5,0.3,3.6l0,0l-4.1,4.1C945.3,317.7,943.7,317.5,942.8,316.5z"/>
	<path class="st17" d="M894.4,318.6l-1.3-1.3c-1.1-1.1-0.8-2.5,0.3-3.6l0,0l31.5-27.2l3,3.6L898,319
		C896.9,320.1,895.6,319.8,894.4,318.6z"/>
	<path class="st17" d="M917.7,342.6l1.3,1.3c1.1,1.1,2.5,0.8,3.6-0.3l0,0l26.6-32.1l-3.6-3L917.4,339
		C916.8,340.2,916.9,341.5,917.7,342.6z"/>
	<path class="st16" d="M882.3,333.5c16.8,3.3,27.7,19.5,24.4,36.3c0,0.2-0.1,0.4-0.1,0.5c-3.1,16.6-19.1,27.5-35.7,24.4
		c-0.2,0-0.5-0.1-0.7-0.1h-0.4c-16.8-3.3-27.7-19.5-24.4-36.3c0-0.2,0.1-0.4,0.1-0.5l0,0C849.3,341.1,865.5,330.4,882.3,333.5z"/>
	
		<ellipse transform="matrix(3.327726e-02 -0.9994 0.9994 3.327726e-02 487.5403 1224.8969)" class="st5" cx="876.9" cy="360.4" rx="31" ry="31"/>
	
		<ellipse transform="matrix(3.301504e-02 -0.9995 0.9995 3.301504e-02 490.6486 1223.1697)" class="st18" cx="877.4" cy="358" rx="31" ry="31"/>
	<path class="st4" d="M1556.2,516h-227c-1.5,0-3-0.9-3-2v-42.3c0-1.1,1.5-2,3-2h227c1.5,0,3,0.9,3,2V514
		C1559.2,515,1557.7,516,1556.2,516z"/>
	<path class="st5" d="M1556.2,519.3h-227c-1.5,0-3-0.9-3-2V475c0-1.1,1.5-2,3-2h227c1.5,0,3,0.9,3,2v42.2
		C1559.2,518.4,1557.7,519.3,1556.2,519.3z"/>
	<path class="st6" d="M1326.1,482.7v37.8c-0.3,0.5,0.6,0.9,1.8,1.1h229.8c1.2,0,2.1-0.5,2.1-1.1l0,0v-37.8l0,0v-6.3
		c0.3-0.5-0.6-0.9-1.8-1.1h-229.8c-1.2,0-2.1,0.5-2.1,1.1l0,0L1326.1,482.7"/>
	<path class="st16" d="M832.1,373.8l-0.5,0.5l-21.8,26.1l-4.6,4.6c-1,1-1.1,2.7-0.2,3.8l2.3,2.3l19,18.4l2,2
		c1.1,0.8,2.4,0.9,3.6,0.3l4.4-3.8l0.3-0.3l26.1-22.1c0.4-0.4,0.6-0.9,0.8-1.5l0,0c1.1-1.1,1.5-2.5,0.3-3.6l-1.3-1.3
		c-0.3-0.3-0.7-0.5-1.1-0.5c-6.1-8.4-13.5-15.8-22-22c0-0.4-0.2-0.8-0.5-1.1l-1.3-1.3c-1.1-1.1-2.5-0.8-3.6,0.3l0,0L832.1,373.8z"/>
	<path class="st8" d="M830.1,375.8l-0.5,0.5l-21.8,26.1l-4.6,4.6c-1,1-1.1,2.7-0.2,3.8l23,23c1.1,1.1,2.5,0.8,3.6,0.3l4.4-3.8
		l0.3-0.3l26.1-22.1c0.4-0.4,0.6-0.9,0.8-1.5l0,0c1.1-1.1,1.5-2.5,0.3-3.6l-1.3-1.3c-0.3-0.3-0.7-0.5-1.1-0.5
		c-6.1-8.5-13.6-15.8-22.3-21.6c0-0.4-0.2-0.8-0.5-1.1l-1.3-1.3c-1.1-1.1-2.5-0.8-3.6,0.3L830.1,375.8z"/>
	<path class="st9" d="M832.9,376.3L832.9,376.3c10.4,7.2,19.5,16.1,26.9,26.2l0,0c0.8,1.4,0.6,3.2-0.5,4.4L830,432.1
		c-2.1,1.6-5,1.5-6.9-0.3L804.4,413c-1.8-1.9-2-4.8-0.3-6.9l24.8-29.7C830,375.7,831.6,375.6,832.9,376.3z"/>
	<path class="st17" d="M810.3,403.2l23.1,22.5c1,1,1.1,2.5,0.3,3.6l0,0l-4.4,3.8c-1.1,1.1-2.5,0.8-3.6-0.3l-22.8-22.1
		c-1-1-1.1-2.5-0.3-3.6l0,0l4.1-4.1C807.8,402.1,809.3,402.2,810.3,403.2z"/>
	<path class="st17" d="M858.7,401.1l1.3,1.3c1.1,1.1,0.8,2.5-0.3,3.6l0,0l-31.5,27.2l-2.9-3.6l29.9-28.9
		C856.2,399.6,857.5,399.9,858.7,401.1z"/>
	<path class="st17" d="M835.4,377.1l-1.3-1.3c-1.1-1.1-2.5-0.8-3.6,0.3l0,0l-26.6,32.1l3.6,3l28.2-30.5
		C836.2,379.5,836.1,378.2,835.4,377.1z"/>
	<path class="st16" d="M890,402.2l0.5,0.5l26.1,21.8l4.6,4.6c1,1,2.7,1.1,3.8,0.2l2.3-2.3l18.4-19l2-2c0.8-1.1,0.9-2.4,0.3-3.6
		l-3.8-4.4l-0.3-0.3l-22.1-26.1c-0.4-0.4-0.9-0.6-1.5-0.8l0,0c-1.1-1.1-2.5-1.5-3.6-0.3l-1.3,1.3c-0.3,0.3-0.5,0.7-0.5,1.1
		c-8.4,6.1-15.8,13.6-22,22c-0.4,0-0.8,0.2-1.1,0.5l-1.3,1.3c-1.1,1.1-0.8,2.5,0.3,3.6l0,0L890,402.2z"/>
	<path class="st8" d="M892,404.1l0.5,0.5l26.1,21.8l4.6,4.6c1,1,2.7,1.1,3.8,0.2l23-23c1.1-1.1,0.8-2.5,0.3-3.6l-3.8-4.4l-0.3-0.3
		L924,373.8c-0.4-0.4-0.9-0.6-1.5-0.8l0,0c-1.1-1.1-2.5-1.5-3.6-0.3l-1.3,1.3c-0.3,0.3-0.5,0.7-0.5,1.1
		c-8.5,6.1-15.8,13.6-21.7,22.3c-0.4,0-0.8,0.2-1.1,0.5l-1.3,1.3c-1.1,1.1-0.8,2.5,0.3,3.6L892,404.1z"/>
	<path class="st9" d="M892.5,401.4L892.5,401.4c7.2-10.4,16.1-19.5,26.2-26.9l0,0c1.4-0.8,3.2-0.6,4.4,0.5l25.1,29.4
		c1.6,2.1,1.5,5-0.3,6.9l-18.7,18.7c-1.9,1.8-4.8,2-6.9,0.3l-29.7-24.8C891.9,404.2,891.8,402.7,892.5,401.4z"/>
	<path class="st17" d="M919.4,424l22.5-23.1c1-1,2.5-1.1,3.6-0.3l0,0l3.8,4.4c1.1,1.1,0.8,2.5-0.3,3.6l-22.1,22.8
		c-1,1-2.5,1.1-3.6,0.3l0,0l-4.1-4.1C918.2,426.5,918.4,424.9,919.4,424z"/>
	<path class="st17" d="M917.3,375.6l1.3-1.3c1.1-1.1,2.5-0.8,3.6,0.3l0,0l27.2,31.5l-3.6,3l-28.9-29.9
		C915.8,378.1,916.1,376.8,917.3,375.6z"/>
	<path class="st17" d="M893.3,398.9l-1.3,1.3c-1.1,1.1-0.8,2.5,0.3,3.6l0,0l32.1,26.6l3-3.6l-30.5-28.2
		C895.7,398,894.4,398.1,893.3,398.9z"/>
	<path class="st16" d="M862.1,313.3l-0.5-0.5L835.5,291l-4.6-4.6c-1-1-2.7-1.1-3.8-0.2l-2.3,2.3l-18.4,19l-2,2
		c-0.8,1.1-0.9,2.4-0.3,3.6l3.8,4.4l0.3,0.3l22.1,26.1c0.4,0.4,0.9,0.6,1.5,0.8l0,0c1.1,1.1,2.5,1.5,3.6,0.3l1.3-1.3
		c0.3-0.3,0.5-0.7,0.5-1.1c8.4-6.1,15.8-13.5,22-22c0.4,0,0.8-0.2,1.1-0.5l1.3-1.3c1.1-1.1,0.8-2.5-0.3-3.6l0,0L862.1,313.3z"/>
	<path class="st8" d="M860.1,311.3l-0.5-0.5L833.5,289l-4.6-4.6c-1-1-2.7-1.1-3.8-0.2l-23,23c-1.1,1.1-0.8,2.5-0.3,3.6l3.8,4.4
		l0.3,0.3l22.1,26.1c0.4,0.4,0.9,0.6,1.5,0.8l0,0c1.1,1.1,2.5,1.5,3.6,0.3l1.3-1.3c0.3-0.3,0.5-0.7,0.5-1.1
		c8.5-6.1,15.8-13.6,21.7-22.3c0.4,0,0.8-0.2,1.1-0.5l1.3-1.3c1.1-1.1,0.8-2.5-0.3-3.6L860.1,311.3z"/>
	<path class="st9" d="M859.6,314.1L859.6,314.1c-7.2,10.4-16.1,19.5-26.2,26.9l0,0c-1.4,0.8-3.2,0.6-4.4-0.5l-25.1-29.4
		c-1.6-2.1-1.5-5,0.3-6.9l18.7-18.7c1.9-1.8,4.8-2,6.9-0.3l29.7,24.8C860.2,311.2,860.3,312.8,859.6,314.1z"/>
	<path class="st17" d="M832.7,291.5l-22.5,23.1c-1,1-2.5,1.1-3.6,0.3l0,0l-3.8-4.4c-1.1-1.1-0.8-2.5,0.3-3.6l22.1-22.8
		c1-1,2.5-1.1,3.6-0.3l0,0l4.1,4.1C833.9,289,833.7,290.5,832.7,291.5z"/>
	<path class="st17" d="M834.8,339.9l-1.3,1.3c-1.1,1.1-2.5,0.8-3.6-0.3l0,0l-27.2-31.5l3.6-3l28.9,29.9
		C836.3,337.4,836,338.7,834.8,339.9z"/>
	<path class="st17" d="M858.8,316.6l1.3-1.3c1.1-1.1,0.8-2.5-0.3-3.6l0,0l-32.1-26.6l-3,3.6l30.5,28.2
		C856.4,317.4,857.7,317.3,858.8,316.6z"/>
	<path class="st7" d="M1397.6,469.7l-10.8-0.5c-8-0.2-14.4-6.9-14.2-15v-1l0.8-10.8c0.8-10.6,9.8-18.6,20.4-18l0,0
		c10.5,0.3,18.9,8.8,19.1,19.3v10.8c0.1,8.3-6.4,15.1-14.7,15.2H1397.6z"/>
	<path class="st8" d="M1397.6,467.9l-10.8-0.5c-8-0.2-14.4-6.9-14.2-15v-1l0.8-10.8c0.8-10.6,9.8-18.6,20.4-18l0,0
		c10.5,0.3,18.9,8.8,19.1,19.3l0.5,10.8c0.1,8.3-6.4,15.1-14.7,15.2H1397.6z"/>
	<path class="st9" d="M1397.6,465.8l-10.8-0.5c-8-0.2-14.4-6.9-14.2-15v-0.3l0,0v-0.8l0.8-10.8c0.8-10.6,9.8-18.6,20.4-18l0,0
		c10.5,0.3,18.9,8.8,19.1,19.3v10.8c0.1,8.3-6.4,15.1-14.7,15.2L1397.6,465.8z"/>
	<path class="st10" d="M1372.1,451.7l1.3-12.9c0.8-10.6,9.8-18.6,20.4-18l0,0c10.5,0.3,18.9,8.8,19.1,19.3l0.5,12.9"/>
	<path class="st7" d="M1440.2,598.1l10.8,0.5c8,0.2,14.4,6.9,14.2,15v1l-0.8,10.8c-0.8,10.6-9.8,18.6-20.4,18l0,0
		c-10.5-0.3-18.9-8.8-19.1-19.3v-10.8c-0.1-8.3,6.4-15.1,14.7-15.2H1440.2z"/>
	<path class="st8" d="M1440.2,599.9l10.8,0.5c8,0.2,14.4,6.9,14.2,15v1l-0.8,10.8c-0.8,10.6-9.8,18.6-20.4,18l0,0
		c-10.5-0.3-18.9-8.8-19.1-19.3l-0.5-10.8c-0.1-8.3,6.4-15.1,14.7-15.2H1440.2z"/>
	<path class="st9" d="M1440.2,601.9l10.8,0.5c8,0.2,14.4,6.9,14.2,15v0.3l0,0v0.8l-0.8,10.8c-0.8,10.6-9.8,18.6-20.4,18l0,0
		c-10.5-0.3-18.9-8.8-19.1-19.3v-10.8c-0.1-8.3,6.4-15.1,14.7-15.2H1440.2z"/>
	<path class="st10" d="M1465.7,616.1l-1.3,12.9c-0.8,10.6-9.8,18.6-20.4,18l0,0c-10.5-0.3-18.9-8.8-19.1-19.3l-0.5-12.9"/>
	<path class="st4" d="M1330.6,541.3h282.5c1.9,0,3.8,1.1,3.8,2.4v50.1c0,1.3-1.9,2.4-3.8,2.4h-282.5c-1.9,0-3.8-1.1-3.8-2.4v-50.1
		C1326.9,542.4,1328.8,541.3,1330.6,541.3z"/>
	<path class="st5" d="M1330.6,537.4h282.5c1.9,0,3.8,1.1,3.8,2.4v50.1c0,1.3-1.9,2.4-3.8,2.4h-282.5c-1.9,0-3.8-1.1-3.8-2.4v-50.1
		C1326.9,538.5,1328.8,537.4,1330.6,537.4z"/>
	<path class="st6" d="M1616.9,580.8v-44.8c0.4-0.6-0.8-1.1-2.3-1.3h-285.9c-1.5,0-2.6,0.6-2.6,1.3l0,0v44.8l0,0v7.4
		c-0.4,0.6,0.8,1.1,2.3,1.3h285.9c1.5,0,2.6-0.6,2.6-1.3l0,0L1616.9,580.8"/>
	<path class="st7" d="M1445.2,806l-10.8-0.5c-8-0.2-14.4-6.9-14.2-15v-1l0.8-10.8c0.8-10.6,9.8-18.6,20.4-18l0,0
		c10.5,0.3,18.9,8.8,19.1,19.3v10.8c0.1,8.3-6.4,15.1-14.7,15.2H1445.2z"/>
	<path class="st8" d="M1445.2,804.1l-10.8-0.5c-8-0.2-14.4-6.9-14.2-15v-1l0.8-10.8c0.8-10.6,9.8-18.6,20.4-18l0,0
		c10.5,0.3,18.9,8.8,19.1,19.3l0.5,10.8c0.1,8.3-6.4,15.1-14.7,15.2L1445.2,804.1z"/>
	<path class="st9" d="M1445.2,802.1l-10.8-0.5c-8-0.2-14.4-6.9-14.2-15v-0.3l0,0v-0.8l0.8-10.8c0.8-10.6,9.8-18.6,20.4-18l0,0
		c10.5,0.3,18.9,8.8,19.1,19.3v10.8c0.1,8.3-6.4,15.1-14.7,15.2H1445.2z"/>
	<path class="st10" d="M1419.7,787.9l1.3-12.9c0.8-10.6,9.8-18.6,20.4-18l0,0c10.5,0.3,18.9,8.8,19.1,19.3l0.5,12.9"/>
	<path class="st4" d="M1608.1,862.5h-282.5c-1.9,0-3.8-1.1-3.8-2.4v-50.1c0-1.3,1.9-2.4,3.8-2.4h282.5c1.9,0,3.8,1.1,3.8,2.4v50.1
		C1611.9,861.4,1610,862.5,1608.1,862.5z"/>
	<path class="st5" d="M1608.1,866.5h-282.5c-1.9,0-3.8-1.1-3.8-2.4v-50.1c0-1.3,1.9-2.4,3.8-2.4h282.5c1.9,0,3.8,1.1,3.8,2.4v50.1
		C1611.9,865.4,1610,866.5,1608.1,866.5z"/>
	<path class="st6" d="M1321.9,823.1v44.8c-0.4,0.6,0.8,1.1,2.3,1.3H1610c1.5,0,2.6-0.6,2.6-1.3l0,0v-44.8l0,0v-7.4
		c0.4-0.6-0.8-1.1-2.3-1.3h-285.9c-1.5,0-2.6,0.6-2.6,1.3l0,0V823.1"/>
	<path class="st7" d="M1105.6,1154l-4.1-10.1c-3.1-7.4,0.3-15.9,7.7-19.1l0.9-0.4l10.2-3.8c9.9-3.7,21,1.2,24.9,11l0,0
		c4.1,9.7-0.1,20.9-9.6,25.4l-9.8,4.5c-7.4,3.6-16.4,0.4-20-7L1105.6,1154z"/>
	<path class="st8" d="M1107.2,1153.2l-4.1-10.1c-3.1-7.4,0.3-15.9,7.7-19.1l0.9-0.4l10.2-3.8c9.9-3.7,21,1.2,24.9,11l0,0
		c4.1,9.7-0.1,20.9-9.6,25.4l-9.6,5c-7.4,3.6-16.4,0.4-20-7L1107.2,1153.2z"/>
	<path class="st9" d="M1109.1,1152.4l-4.1-10.1c-3.1-7.4,0.3-15.9,7.7-19.1l0.2-0.1l0,0l0.7-0.3l10.2-3.8c9.9-3.7,21,1.2,24.9,11
		l0,0c4.1,9.7-0.1,20.9-9.6,25.4l-9.8,4.5c-7.4,3.6-16.4,0.4-20-7L1109.1,1152.4z"/>
	<path class="st10" d="M1111.3,1123.3l12.2-4.2c9.9-3.7,21,1.2,24.9,11l0,0c4.1,9.7-0.1,20.9-9.6,25.4l-11.5,5.8"/>
	<path class="st7" d="M1103.5,1223.4l5-9.6c3.6-7.2,12.3-10.2,19.5-6.7l0.9,0.4l9.5,5.2c9.3,5.1,12.8,16.6,8,26l0,0
		c-4.6,9.5-15.9,13.6-25.5,9.3l-9.9-4.5c-7.6-3.3-11-12.1-7.7-19.7L1103.5,1223.4z"/>
	<path class="st8" d="M1105.2,1224.1l5-9.6c3.6-7.2,12.3-10.2,19.5-6.7l0.9,0.4l9.5,5.2c9.3,5.1,12.8,16.6,8,26l0,0
		c-4.6,9.5-15.9,13.6-25.5,9.3l-10.1-4c-7.6-3.3-11-12.1-7.7-19.7L1105.2,1224.1z"/>
	<path class="st9" d="M1107.1,1225l5-9.6c3.6-7.2,12.3-10.2,19.5-6.7l0.2,0.1l0,0l0.7,0.3l9.5,5.2c9.3,5.1,12.8,16.6,8,26l0,0
		c-4.6,9.5-15.9,13.6-25.5,9.3l-9.9-4.5c-7.6-3.3-11-12.1-7.7-19.7L1107.1,1225z"/>
	<path class="st10" d="M1130.6,1207.6l11.2,6.5c9.3,5.1,12.8,16.6,8,26l0,0c-4.6,9.5-15.9,13.6-25.5,9.3l-11.9-4.9"/>
	<path class="st7" d="M1038.4,1210.4l2.2,10.6c1.8,7.8-3.1,15.6-10.9,17.5l-1,0.3l-10.7,2c-10.4,1.9-20.4-4.8-22.6-15.2l0,0
		c-2.4-10.3,3.8-20.5,13.9-23.3l10.5-2.7c8-2.2,16.2,2.5,18.4,10.4L1038.4,1210.4z"/>
	<path class="st8" d="M1036.7,1210.8l2.2,10.6c1.8,7.8-3.1,15.6-10.9,17.5l-1,0.3l-10.7,2c-10.4,1.9-20.4-4.8-22.6-15.2l0,0
		c-2.4-10.3,3.8-20.5,13.9-23.3l10.4-3.2c8-2.2,16.2,2.5,18.4,10.4L1036.7,1210.8z"/>
	<path class="st9" d="M1034.7,1211.3l2.2,10.6c1.8,7.8-3.1,15.6-10.9,17.5l-0.2,0.1l0,0l-0.7,0.2l-10.7,2
		c-10.4,1.9-20.4-4.8-22.6-15.2l0,0c-2.4-10.3,3.8-20.5,13.9-23.3l10.5-2.7c8-2.2,16.2,2.5,18.4,10.4L1034.7,1211.3z"/>
	<path class="st10" d="M1027.4,1239.6l-12.8,2c-10.4,1.9-20.4-4.8-22.6-15.2l0,0c-2.4-10.3,3.8-20.5,13.9-23.3l12.3-3.7"/>
	<path class="st7" d="M1045.5,1144.3l-3.3,10.3c-2.3,7.7-10.4,12.1-18.1,9.8l-1-0.3l-10.3-3.5c-10-3.5-15.4-14.3-12.2-24.3l0,0
		c3-10.1,13.4-16,23.6-13.4l10.5,2.8c8,2,12.9,10.1,10.9,18.1L1045.5,1144.3z"/>
	<path class="st8" d="M1043.7,1143.8l-3.3,10.3c-2.3,7.7-10.4,12.1-18.1,9.8l-1-0.3l-10.3-3.5c-10-3.5-15.4-14.3-12.2-24.3l0,0
		c3-10.1,13.4-16,23.6-13.4l10.6,2.3c8,2,12.9,10.1,10.9,18.1L1043.7,1143.8z"/>
	<path class="st9" d="M1041.8,1143.3l-3.3,10.3c-2.3,7.7-10.4,12.1-18.1,9.8l-0.2-0.1l0,0l-0.7-0.2l-10.3-3.5
		c-10-3.5-15.4-14.3-12.2-24.3l0,0c3-10.1,13.4-16,23.6-13.4l10.5,2.8c8,2,12.9,10.1,10.9,18.1L1041.8,1143.3z"/>
	<path class="st10" d="M1021.5,1164.3l-12.1-4.6c-10-3.5-15.4-14.3-12.2-24.3l0,0c3-10.1,13.4-16,23.6-13.4l12.6,2.8"/>
	<ellipse class="st5" cx="1076.4" cy="1187.4" rx="43" ry="79.6"/>
	<ellipse class="st6" cx="1080.3" cy="1187.4" rx="43" ry="79.6"/>
</g>
<g id="icons">
	<g class="st19">
		<path class="st20" d="M423.7,1155.2l1.8,0.5c-0.4,1.5-1.1,2.6-2,3.4c-1,0.8-2.2,1.2-3.6,1.2c-1.5,0-2.7-0.3-3.6-0.9
			c-0.9-0.6-1.6-1.5-2.1-2.6c-0.5-1.1-0.7-2.4-0.7-3.7c0-1.4,0.3-2.7,0.8-3.7s1.3-1.9,2.3-2.4c1-0.6,2.1-0.8,3.3-0.8
			c1.4,0,2.5,0.3,3.4,1c0.9,0.7,1.6,1.7,1.9,2.9l-1.8,0.4c-0.3-1-0.8-1.7-1.4-2.2c-0.6-0.5-1.4-0.7-2.3-0.7c-1,0-1.9,0.3-2.6,0.8
			c-0.7,0.5-1.2,1.2-1.5,2c-0.3,0.8-0.4,1.7-0.4,2.6c0,1.2,0.2,2.2,0.5,3c0.3,0.9,0.9,1.5,1.6,1.9c0.7,0.4,1.5,0.6,2.3,0.6
			c1,0,1.9-0.3,2.6-0.9C423,1157.2,423.5,1156.4,423.7,1155.2z"/>
		<path class="st20" d="M426.9,1155.1c0-1.8,0.5-3.2,1.5-4.1c0.8-0.7,1.9-1.1,3.1-1.1c1.4,0,2.5,0.4,3.3,1.3
			c0.9,0.9,1.3,2.1,1.3,3.7c0,1.3-0.2,2.3-0.6,3s-0.9,1.3-1.7,1.7c-0.7,0.4-1.5,0.6-2.4,0.6c-1.4,0-2.5-0.4-3.4-1.3
			S426.9,1156.7,426.9,1155.1z M428.7,1155.1c0,1.3,0.3,2.2,0.8,2.8c0.6,0.6,1.2,0.9,2.1,0.9c0.8,0,1.5-0.3,2.1-0.9
			c0.6-0.6,0.8-1.6,0.8-2.9c0-1.2-0.3-2.1-0.8-2.8c-0.6-0.6-1.2-0.9-2.1-0.9c-0.8,0-1.5,0.3-2.1,0.9
			C428.9,1152.8,428.7,1153.8,428.7,1155.1z"/>
		<path class="st20" d="M438.2,1163.8v-13.7h1.5v1.3c0.4-0.5,0.8-0.9,1.2-1.1s1-0.4,1.6-0.4c0.8,0,1.6,0.2,2.2,0.7
			c0.6,0.4,1.1,1,1.5,1.8s0.5,1.7,0.5,2.6c0,1-0.2,1.9-0.5,2.7s-0.9,1.4-1.6,1.9c-0.7,0.4-1.4,0.6-2.2,0.6c-0.6,0-1.1-0.1-1.5-0.4
			c-0.4-0.2-0.8-0.5-1.1-0.9v4.8H438.2z M439.7,1155.1c0,1.3,0.3,2.2,0.8,2.8c0.5,0.6,1.1,0.9,1.9,0.9c0.7,0,1.4-0.3,1.9-0.9
			c0.5-0.6,0.8-1.6,0.8-2.9c0-1.3-0.3-2.2-0.8-2.8c-0.5-0.6-1.1-0.9-1.9-0.9c-0.7,0-1.3,0.3-1.9,1
			C440,1152.9,439.7,1153.8,439.7,1155.1z"/>
		<path class="st20" d="M448.7,1163.8l-0.2-1.6c0.4,0.1,0.7,0.1,1,0.1c0.4,0,0.7-0.1,0.9-0.2s0.4-0.3,0.5-0.5
			c0.1-0.2,0.3-0.6,0.5-1.2c0-0.1,0.1-0.2,0.1-0.4l-3.8-9.9h1.8l2.1,5.7c0.3,0.7,0.5,1.5,0.7,2.3c0.2-0.8,0.4-1.5,0.7-2.3l2.1-5.8
			h1.7l-3.8,10.1c-0.4,1.1-0.7,1.8-0.9,2.2c-0.3,0.6-0.6,1-1,1.2s-0.8,0.4-1.4,0.4C449.4,1164,449.1,1163.9,448.7,1163.8z"/>
		<path class="st20" d="M463.8,1160v-13.6h6.1c1.2,0,2.1,0.1,2.8,0.4c0.6,0.2,1.1,0.7,1.5,1.3c0.4,0.6,0.6,1.3,0.6,2.1
			c0,1-0.3,1.8-0.9,2.4s-1.6,1.1-2.9,1.3c0.5,0.2,0.8,0.5,1.1,0.7c0.5,0.5,1,1.1,1.5,1.8l2.4,3.7h-2.3l-1.8-2.8
			c-0.5-0.8-1-1.4-1.3-1.9c-0.3-0.4-0.6-0.7-0.9-0.9s-0.5-0.3-0.8-0.4c-0.2,0-0.5-0.1-1-0.1h-2.1v6.1H463.8z M465.6,1152.4h3.9
			c0.8,0,1.5-0.1,1.9-0.3c0.5-0.2,0.8-0.4,1.1-0.8c0.2-0.4,0.4-0.8,0.4-1.2c0-0.6-0.2-1.2-0.7-1.6c-0.5-0.4-1.2-0.6-2.2-0.6h-4.3
			V1152.4z"/>
		<path class="st20" d="M476.7,1155.1c0-1.8,0.5-3.2,1.5-4.1c0.8-0.7,1.9-1.1,3.1-1.1c1.4,0,2.5,0.4,3.3,1.3s1.3,2.1,1.3,3.7
			c0,1.3-0.2,2.3-0.6,3s-0.9,1.3-1.7,1.7c-0.7,0.4-1.5,0.6-2.4,0.6c-1.4,0-2.5-0.4-3.4-1.3S476.7,1156.7,476.7,1155.1z
			 M478.5,1155.1c0,1.3,0.3,2.2,0.8,2.8c0.6,0.6,1.2,0.9,2.1,0.9c0.8,0,1.5-0.3,2.1-0.9s0.8-1.6,0.8-2.9c0-1.2-0.3-2.1-0.8-2.8
			c-0.6-0.6-1.2-0.9-2.1-0.9c-0.8,0-1.5,0.3-2.1,0.9S478.5,1153.8,478.5,1155.1z"/>
		<path class="st20" d="M487.3,1155.1c0-1.8,0.5-3.2,1.5-4.1c0.8-0.7,1.9-1.1,3.1-1.1c1.4,0,2.5,0.4,3.3,1.3s1.3,2.1,1.3,3.7
			c0,1.3-0.2,2.3-0.6,3s-0.9,1.3-1.7,1.7c-0.7,0.4-1.5,0.6-2.4,0.6c-1.4,0-2.5-0.4-3.4-1.3S487.3,1156.7,487.3,1155.1z
			 M489.1,1155.1c0,1.3,0.3,2.2,0.8,2.8c0.6,0.6,1.2,0.9,2.1,0.9c0.8,0,1.5-0.3,2.1-0.9s0.8-1.6,0.8-2.9c0-1.2-0.3-2.1-0.8-2.8
			c-0.6-0.6-1.2-0.9-2.1-0.9c-0.8,0-1.5,0.3-2.1,0.9S489.1,1153.8,489.1,1155.1z"/>
		<path class="st20" d="M498.6,1160v-9.9h1.5v1.4c0.3-0.5,0.7-0.9,1.2-1.2c0.5-0.3,1.1-0.4,1.8-0.4c0.7,0,1.3,0.2,1.8,0.5
			c0.5,0.3,0.8,0.7,1,1.3c0.8-1.2,1.8-1.7,3.1-1.7c1,0,1.7,0.3,2.3,0.8s0.8,1.4,0.8,2.5v6.8h-1.7v-6.2c0-0.7-0.1-1.2-0.2-1.4
			c-0.1-0.3-0.3-0.5-0.6-0.7c-0.3-0.2-0.6-0.3-1-0.3c-0.7,0-1.3,0.2-1.7,0.7c-0.5,0.5-0.7,1.2-0.7,2.2v5.7h-1.7v-6.4
			c0-0.7-0.1-1.3-0.4-1.7c-0.3-0.4-0.7-0.6-1.3-0.6c-0.5,0-0.9,0.1-1.3,0.4c-0.4,0.2-0.7,0.6-0.9,1.1s-0.3,1.2-0.3,2.1v5.1H498.6z"
			/>
	</g>
	<circle class="st21" cx="460" cy="1099.8" r="41.4"/>
	<g id="Outline_Icons-6-6">
		<g id="Outline_Icons-7-2">
			<path class="st22" d="M450.6,1108h-4.2c-1.5-0.2-2.7-1.4-2.9-2.9v-9c0.2-1.5,1.4-2.7,2.9-2.9h28c1.5,0.2,2.7,1.4,2.9,2.9v9
				c-0.2,1.5-1.4,2.7-2.9,2.9h-4.2"/>
			<polyline class="st22" points="450.6,1090.4 450.6,1084.6 465.3,1084.6 469.6,1088.8 469.6,1090.4 			"/>
			<rect x="450.6" y="1103.6" class="st22" width="19" height="11.9"/>
			<circle class="st22" cx="447.7" cy="1097.5" r="1.3"/>
			<line class="st22" x1="453.4" y1="1106.5" x2="466.7" y2="1106.5"/>
			<line class="st22" x1="453.4" y1="1109.4" x2="466.7" y2="1109.4"/>
			<line class="st22" x1="453.4" y1="1112.3" x2="466.7" y2="1112.3"/>
			<polyline class="st22" points="465.3,1084.6 465.3,1088.8 469.6,1088.8 			"/>
		</g>
	</g>
	<g id="Outline_Icons-6-4">
		<g class="st19">
			<path class="st20" d="M437.1,1494.5V1481h5.1c0.9,0,1.6,0,2,0.1c0.7,0.1,1.2,0.3,1.7,0.6c0.4,0.3,0.8,0.7,1.1,1.3
				c0.3,0.6,0.4,1.2,0.4,1.8c0,1.1-0.4,2.1-1.1,2.9c-0.7,0.8-2,1.2-4,1.2h-3.5v5.5H437.1z M438.9,1487.4h3.5c1.2,0,2-0.2,2.5-0.6
				s0.7-1,0.7-1.8c0-0.6-0.1-1-0.4-1.4s-0.7-0.7-1.1-0.8c-0.3-0.1-0.9-0.1-1.7-0.1h-3.4V1487.4z"/>
			<path class="st20" d="M455.9,1493.3c-0.6,0.5-1.2,0.9-1.8,1.1c-0.6,0.2-1.2,0.3-1.8,0.3c-1.1,0-1.9-0.3-2.5-0.8
				c-0.6-0.5-0.9-1.2-0.9-2c0-0.5,0.1-0.9,0.3-1.3c0.2-0.4,0.5-0.7,0.9-1c0.4-0.2,0.7-0.4,1.2-0.5c0.3-0.1,0.8-0.2,1.5-0.2
				c1.3-0.2,2.3-0.3,2.9-0.6c0-0.2,0-0.4,0-0.4c0-0.7-0.2-1.1-0.5-1.4c-0.4-0.4-1.1-0.6-1.9-0.6c-0.8,0-1.4,0.1-1.7,0.4
				c-0.4,0.3-0.6,0.8-0.8,1.4l-1.6-0.2c0.1-0.7,0.4-1.3,0.7-1.7c0.3-0.4,0.8-0.8,1.5-1c0.6-0.2,1.4-0.3,2.2-0.3c0.8,0,1.5,0.1,2,0.3
				s0.9,0.4,1.1,0.7c0.2,0.3,0.4,0.7,0.5,1.1c0.1,0.3,0.1,0.8,0.1,1.5v2.2c0,1.5,0,2.5,0.1,2.9s0.2,0.8,0.4,1.2h-1.7
				C456,1494.1,455.9,1493.7,455.9,1493.3z M455.7,1489.6c-0.6,0.2-1.5,0.5-2.7,0.6c-0.7,0.1-1.2,0.2-1.4,0.3
				c-0.3,0.1-0.5,0.3-0.7,0.5c-0.2,0.2-0.2,0.5-0.2,0.8c0,0.4,0.2,0.8,0.5,1.1c0.3,0.3,0.8,0.4,1.5,0.4c0.6,0,1.2-0.1,1.7-0.4
				c0.5-0.3,0.9-0.7,1.1-1.1c0.2-0.4,0.3-0.9,0.3-1.7V1489.6z"/>
			<path class="st20" d="M459.9,1494.5v-9.8h1.5v1.4c0.7-1.1,1.8-1.6,3.1-1.6c0.6,0,1.1,0.1,1.6,0.3c0.5,0.2,0.9,0.5,1.1,0.8
				c0.2,0.3,0.4,0.8,0.5,1.2c0.1,0.3,0.1,0.8,0.1,1.6v6h-1.7v-5.9c0-0.7-0.1-1.2-0.2-1.5c-0.1-0.3-0.4-0.6-0.7-0.8s-0.7-0.3-1.2-0.3
				c-0.7,0-1.3,0.2-1.8,0.7s-0.8,1.3-0.8,2.5v5.3H459.9z"/>
			<path class="st20" d="M474,1493l0.2,1.5c-0.5,0.1-0.9,0.1-1.2,0.1c-0.6,0-1.1-0.1-1.4-0.3c-0.3-0.2-0.6-0.4-0.7-0.7
				c-0.1-0.3-0.2-1-0.2-2v-5.6h-1.2v-1.3h1.2v-2.4l1.6-1v3.4h1.7v1.3h-1.7v5.7c0,0.5,0,0.8,0.1,0.9s0.2,0.2,0.3,0.3
				c0.1,0.1,0.3,0.1,0.6,0.1C473.5,1493.1,473.7,1493,474,1493z"/>
			<path class="st20" d="M475.6,1494.5v-9.8h1.5v1.5c0.4-0.7,0.7-1.1,1.1-1.4c0.3-0.2,0.7-0.3,1.1-0.3c0.6,0,1.1,0.2,1.7,0.5
				l-0.6,1.5c-0.4-0.2-0.8-0.4-1.2-0.4c-0.4,0-0.7,0.1-1,0.3c-0.3,0.2-0.5,0.5-0.6,0.9c-0.2,0.6-0.3,1.2-0.3,1.9v5.1H475.6z"/>
			<path class="st20" d="M481.8,1498.2l-0.2-1.6c0.4,0.1,0.7,0.1,0.9,0.1c0.4,0,0.7-0.1,0.9-0.2c0.2-0.1,0.4-0.3,0.5-0.5
				c0.1-0.2,0.3-0.6,0.5-1.2c0-0.1,0.1-0.2,0.1-0.4l-3.7-9.8h1.8l2,5.6c0.3,0.7,0.5,1.5,0.7,2.3c0.2-0.8,0.4-1.5,0.7-2.2l2.1-5.7
				h1.7l-3.7,9.9c-0.4,1.1-0.7,1.8-0.9,2.2c-0.3,0.5-0.6,0.9-1,1.2s-0.8,0.4-1.4,0.4C482.6,1498.4,482.2,1498.4,481.8,1498.2z"/>
		</g>
		<circle class="st21" cx="462.9" cy="1435.7" r="40.9"/>
		<g id="Outline_Icons-2-2">
			<path class="st22" d="M476.9,1427.6c-2.7,0-5.1-1.8-5.9-4.3c-1.1,0.7-2.3,1.1-3.6,1.1c-3.5,0-6.2-2.8-6.3-6.3v-0.5
				c-9.9,1.7-16.6,11.1-14.9,21c1.7,9.9,11.1,16.6,21,14.9c9.9-1.7,16.6-11.1,14.9-21c0,0,0,0,0,0c-0.4-2-1.1-3.9-2-5.7
				C479.1,1427.3,478,1427.6,476.9,1427.6z"/>
			<circle class="st22" cx="457.8" cy="1430.7" r="3.2"/>
			<circle class="st22" cx="469" cy="1438.6" r="1.6"/>
			<circle class="st22" cx="459.5" cy="1443.4" r="3.2"/>
			<circle class="st22" cx="470.6" cy="1432.3" r="0.7"/>
			<circle class="st22" cx="451.6" cy="1437.1" r="0.7"/>
			<circle class="st22" cx="469" cy="1446.5" r="0.7"/>
		</g>
	</g>
	<g class="st19">
		<path class="st20" d="M1070.4,454l1.2-0.1c0.1,0.5,0.2,0.9,0.4,1.2c0.2,0.3,0.6,0.6,1,0.8c0.5,0.2,1,0.3,1.5,0.3
			c0.5,0,1-0.1,1.3-0.2c0.4-0.2,0.7-0.4,0.9-0.6c0.2-0.3,0.3-0.5,0.3-0.9c0-0.3-0.1-0.6-0.3-0.8c-0.2-0.2-0.5-0.4-0.9-0.6
			c-0.3-0.1-0.9-0.3-1.8-0.5c-0.9-0.2-1.6-0.4-1.9-0.6c-0.5-0.3-0.8-0.6-1.1-0.9c-0.2-0.4-0.4-0.8-0.4-1.2c0-0.5,0.1-1,0.4-1.4
			c0.3-0.4,0.7-0.8,1.3-1c0.6-0.2,1.2-0.3,1.8-0.3c0.7,0,1.4,0.1,2,0.4c0.6,0.2,1,0.6,1.3,1.1c0.3,0.5,0.5,1,0.5,1.6l-1.3,0.1
			c-0.1-0.6-0.3-1.1-0.7-1.4s-1-0.5-1.7-0.5c-0.8,0-1.4,0.1-1.8,0.4c-0.4,0.3-0.6,0.6-0.6,1.1c0,0.4,0.1,0.7,0.4,0.9
			c0.3,0.2,0.9,0.5,2,0.7c1.1,0.2,1.8,0.5,2.2,0.6c0.6,0.3,1,0.6,1.3,1c0.3,0.4,0.4,0.9,0.4,1.4c0,0.5-0.2,1-0.5,1.5
			c-0.3,0.5-0.7,0.8-1.3,1.1c-0.6,0.3-1.2,0.4-1.9,0.4c-0.9,0-1.7-0.1-2.3-0.4s-1.1-0.7-1.4-1.2
			C1070.6,455.2,1070.4,454.6,1070.4,454z"/>
		<path class="st20" d="M1085,454.8l1.3,0.2c-0.2,0.7-0.6,1.3-1.1,1.7c-0.5,0.4-1.2,0.6-2.1,0.6c-1.1,0-1.9-0.3-2.5-1
			c-0.6-0.7-0.9-1.6-0.9-2.8c0-1.2,0.3-2.2,0.9-2.8s1.4-1,2.4-1c1,0,1.8,0.3,2.4,1s0.9,1.6,0.9,2.8c0,0.1,0,0.2,0,0.3h-5.4
			c0,0.8,0.3,1.4,0.7,1.8c0.4,0.4,0.9,0.6,1.5,0.6c0.5,0,0.8-0.1,1.2-0.4C1084.6,455.7,1084.8,455.4,1085,454.8z M1081,452.9h4.1
			c-0.1-0.6-0.2-1.1-0.5-1.4c-0.4-0.5-0.9-0.7-1.5-0.7c-0.6,0-1,0.2-1.4,0.6S1081,452.2,1081,452.9z"/>
		<path class="st20" d="M1087.8,457.2v-7.3h1.1v1.1c0.3-0.5,0.5-0.9,0.8-1s0.5-0.2,0.8-0.2c0.4,0,0.8,0.1,1.3,0.4l-0.4,1.1
			c-0.3-0.2-0.6-0.3-0.9-0.3c-0.3,0-0.5,0.1-0.7,0.2c-0.2,0.2-0.4,0.4-0.5,0.7c-0.1,0.4-0.2,0.9-0.2,1.4v3.8H1087.8z"/>
		<path class="st20" d="M1094.5,457.2l-2.8-7.3h1.3l1.6,4.3c0.2,0.5,0.3,1,0.5,1.5c0.1-0.4,0.3-0.8,0.5-1.4l1.6-4.4h1.3l-2.7,7.3
			H1094.5z"/>
		<path class="st20" d="M1104.4,454.8l1.3,0.2c-0.2,0.7-0.6,1.3-1.1,1.7c-0.5,0.4-1.2,0.6-2.1,0.6c-1.1,0-1.9-0.3-2.5-1
			c-0.6-0.7-0.9-1.6-0.9-2.8c0-1.2,0.3-2.2,0.9-2.8s1.4-1,2.4-1c1,0,1.8,0.3,2.4,1s0.9,1.6,0.9,2.8c0,0.1,0,0.2,0,0.3h-5.4
			c0,0.8,0.3,1.4,0.7,1.8c0.4,0.4,0.9,0.6,1.5,0.6c0.5,0,0.8-0.1,1.2-0.4C1104,455.7,1104.3,455.4,1104.4,454.8z M1100.4,452.9h4.1
			c-0.1-0.6-0.2-1.1-0.5-1.4c-0.4-0.5-0.9-0.7-1.5-0.7c-0.6,0-1,0.2-1.4,0.6S1100.4,452.2,1100.4,452.9z"/>
		<path class="st20" d="M1107.2,457.2v-7.3h1.1v1.1c0.3-0.5,0.5-0.9,0.8-1s0.5-0.2,0.8-0.2c0.4,0,0.8,0.1,1.3,0.4l-0.4,1.1
			c-0.3-0.2-0.6-0.3-0.9-0.3c-0.3,0-0.5,0.1-0.7,0.2c-0.2,0.2-0.4,0.4-0.5,0.7c-0.1,0.4-0.2,0.9-0.2,1.4v3.8H1107.2z"/>
		<path class="st20" d="M1116,457.2v-10h4.4c0.9,0,1.6,0.1,2,0.3c0.5,0.2,0.8,0.5,1.1,1c0.3,0.5,0.4,1,0.4,1.5
			c0,0.7-0.2,1.3-0.7,1.8c-0.5,0.5-1.2,0.8-2.1,0.9c0.4,0.2,0.6,0.3,0.8,0.5c0.4,0.4,0.8,0.8,1.1,1.3l1.7,2.7h-1.7l-1.3-2.1
			c-0.4-0.6-0.7-1.1-1-1.4c-0.3-0.3-0.5-0.5-0.7-0.7c-0.2-0.1-0.4-0.2-0.6-0.3c-0.2,0-0.4,0-0.7,0h-1.5v4.5H1116z M1117.3,451.6h2.8
			c0.6,0,1.1-0.1,1.4-0.2c0.3-0.1,0.6-0.3,0.8-0.6c0.2-0.3,0.3-0.6,0.3-0.9c0-0.5-0.2-0.9-0.5-1.2c-0.3-0.3-0.9-0.5-1.6-0.5h-3.2
			V451.6z"/>
		<path class="st20" d="M1125.5,453.6c0-1.3,0.4-2.3,1.1-3c0.6-0.5,1.4-0.8,2.3-0.8c1,0,1.8,0.3,2.4,1c0.6,0.7,0.9,1.6,0.9,2.7
			c0,0.9-0.1,1.7-0.4,2.2c-0.3,0.5-0.7,1-1.2,1.2c-0.5,0.3-1.1,0.4-1.8,0.4c-1,0-1.8-0.3-2.5-1S1125.5,454.8,1125.5,453.6z
			 M1126.7,453.6c0,0.9,0.2,1.6,0.6,2.1c0.4,0.5,0.9,0.7,1.5,0.7c0.6,0,1.1-0.2,1.5-0.7c0.4-0.5,0.6-1.2,0.6-2.1
			c0-0.9-0.2-1.6-0.6-2c-0.4-0.5-0.9-0.7-1.5-0.7c-0.6,0-1.1,0.2-1.5,0.7C1126.9,451.9,1126.7,452.6,1126.7,453.6z"/>
		<path class="st20" d="M1133.3,453.6c0-1.3,0.4-2.3,1.1-3c0.6-0.5,1.4-0.8,2.3-0.8c1,0,1.8,0.3,2.4,1c0.6,0.7,1,1.6,1,2.7
			c0,0.9-0.1,1.7-0.4,2.2c-0.3,0.5-0.7,1-1.2,1.2s-1.1,0.4-1.8,0.4c-1,0-1.8-0.3-2.5-1C1133.6,455.7,1133.3,454.8,1133.3,453.6z
			 M1134.5,453.6c0,0.9,0.2,1.6,0.6,2.1c0.4,0.5,0.9,0.7,1.5,0.7c0.6,0,1.1-0.2,1.5-0.7c0.4-0.5,0.6-1.2,0.6-2.1
			c0-0.9-0.2-1.6-0.6-2c-0.4-0.5-0.9-0.7-1.5-0.7c-0.6,0-1.1,0.2-1.5,0.7C1134.7,451.9,1134.5,452.6,1134.5,453.6z"/>
		<path class="st20" d="M1141.5,457.2v-7.3h1.1v1c0.2-0.4,0.5-0.6,0.9-0.9c0.4-0.2,0.8-0.3,1.3-0.3c0.5,0,1,0.1,1.3,0.3
			s0.6,0.5,0.7,0.9c0.6-0.8,1.3-1.3,2.2-1.3c0.7,0,1.3,0.2,1.7,0.6c0.4,0.4,0.6,1,0.6,1.8v5h-1.2v-4.6c0-0.5,0-0.8-0.1-1.1
			c-0.1-0.2-0.2-0.4-0.4-0.5c-0.2-0.1-0.5-0.2-0.7-0.2c-0.5,0-0.9,0.2-1.3,0.5c-0.3,0.3-0.5,0.9-0.5,1.6v4.2h-1.2v-4.7
			c0-0.5-0.1-1-0.3-1.2c-0.2-0.3-0.5-0.4-1-0.4c-0.3,0-0.7,0.1-1,0.3c-0.3,0.2-0.5,0.4-0.6,0.8c-0.1,0.4-0.2,0.9-0.2,1.5v3.8H1141.5
			z"/>
	</g>
	<g class="st19">
		<path class="st20" d="M848.7,491.6v-1.2l4.2,0v3.7c-0.7,0.5-1.3,0.9-2,1.2c-0.7,0.3-1.4,0.4-2.1,0.4c-1,0-1.9-0.2-2.7-0.6
			c-0.8-0.4-1.4-1-1.8-1.8s-0.6-1.7-0.6-2.7c0-1,0.2-1.9,0.6-2.7c0.4-0.8,1-1.5,1.8-1.9s1.6-0.6,2.6-0.6c0.7,0,1.4,0.1,2,0.4
			c0.6,0.2,1,0.6,1.4,1s0.6,1,0.8,1.6l-1.2,0.3c-0.2-0.5-0.3-0.9-0.6-1.2s-0.5-0.5-1-0.7c-0.4-0.2-0.9-0.3-1.4-0.3
			c-0.6,0-1.1,0.1-1.6,0.3c-0.4,0.2-0.8,0.4-1.1,0.7s-0.5,0.6-0.6,1c-0.3,0.6-0.4,1.3-0.4,2c0,0.9,0.2,1.6,0.5,2.2s0.8,1,1.3,1.3
			s1.2,0.4,1.9,0.4c0.6,0,1.1-0.1,1.7-0.3c0.5-0.2,1-0.5,1.2-0.7v-1.9H848.7z"/>
		<path class="st20" d="M859.5,495.5v-1.1c-0.6,0.8-1.3,1.2-2.3,1.2c-0.4,0-0.8-0.1-1.2-0.2s-0.6-0.4-0.8-0.6
			c-0.2-0.2-0.3-0.6-0.4-0.9c-0.1-0.2-0.1-0.6-0.1-1.1v-4.5h1.2v4c0,0.6,0,1.1,0.1,1.3c0.1,0.3,0.2,0.6,0.5,0.8
			c0.3,0.2,0.6,0.3,0.9,0.3s0.7-0.1,1-0.3c0.3-0.2,0.6-0.4,0.7-0.8c0.1-0.3,0.2-0.8,0.2-1.4v-3.9h1.2v7.3H859.5z"/>
		<path class="st20" d="M867.5,493.2l1.3,0.2c-0.2,0.7-0.6,1.3-1.1,1.7s-1.2,0.6-2.1,0.6c-1.1,0-1.9-0.3-2.5-1
			c-0.6-0.7-0.9-1.6-0.9-2.8c0-1.2,0.3-2.2,0.9-2.8s1.4-1,2.4-1c1,0,1.8,0.3,2.4,1s0.9,1.6,0.9,2.8c0,0.1,0,0.2,0,0.3h-5.4
			c0,0.8,0.3,1.4,0.7,1.8s0.9,0.6,1.5,0.6c0.5,0,0.8-0.1,1.2-0.4S867.3,493.7,867.5,493.2z M863.5,491.2h4.1
			c-0.1-0.6-0.2-1.1-0.5-1.4c-0.4-0.5-0.9-0.7-1.5-0.7c-0.6,0-1,0.2-1.4,0.6S863.5,490.6,863.5,491.2z"/>
		<path class="st20" d="M869.8,493.4l1.2-0.2c0.1,0.5,0.3,0.9,0.6,1.1s0.7,0.4,1.3,0.4c0.6,0,1-0.1,1.3-0.3c0.3-0.2,0.4-0.5,0.4-0.8
			c0-0.3-0.1-0.5-0.4-0.7c-0.2-0.1-0.6-0.2-1.3-0.4c-0.9-0.2-1.5-0.4-1.9-0.6c-0.3-0.2-0.6-0.4-0.8-0.7c-0.2-0.3-0.3-0.6-0.3-1
			c0-0.3,0.1-0.6,0.2-0.9c0.1-0.3,0.3-0.5,0.6-0.7c0.2-0.1,0.5-0.3,0.8-0.4c0.3-0.1,0.7-0.1,1.1-0.1c0.6,0,1.1,0.1,1.5,0.2
			s0.7,0.4,1,0.7c0.2,0.3,0.3,0.7,0.4,1.1l-1.2,0.2c-0.1-0.4-0.2-0.7-0.5-0.9s-0.6-0.3-1.1-0.3c-0.6,0-1,0.1-1.2,0.3
			s-0.4,0.4-0.4,0.7c0,0.2,0.1,0.3,0.2,0.4c0.1,0.1,0.3,0.2,0.5,0.3c0.1,0,0.5,0.2,1.1,0.3c0.9,0.2,1.5,0.4,1.8,0.6
			c0.3,0.1,0.6,0.4,0.8,0.6s0.3,0.6,0.3,1.1c0,0.4-0.1,0.8-0.4,1.2c-0.2,0.4-0.6,0.6-1,0.8c-0.5,0.2-1,0.3-1.5,0.3
			c-0.9,0-1.7-0.2-2.2-0.6S870,494.2,869.8,493.4z"/>
		<path class="st20" d="M880,494.4l0.2,1.1c-0.3,0.1-0.7,0.1-0.9,0.1c-0.4,0-0.8-0.1-1-0.2s-0.4-0.3-0.5-0.6
			c-0.1-0.2-0.2-0.7-0.2-1.5v-4.2h-0.9v-1h0.9v-1.8l1.2-0.7v2.5h1.2v1h-1.2v4.2c0,0.4,0,0.6,0.1,0.7s0.1,0.2,0.2,0.2
			s0.2,0.1,0.4,0.1C879.6,494.5,879.8,494.5,880,494.4z"/>
	</g>
	<g class="st19">
		<path class="st20" d="M887,495.5l-2.7-10h1.4l1.5,6.6c0.2,0.7,0.3,1.4,0.4,2.1c0.3-1.1,0.4-1.7,0.5-1.9l1.9-6.8h1.6l1.4,5.1
			c0.4,1.3,0.6,2.4,0.8,3.5c0.1-0.6,0.3-1.4,0.5-2.2l1.6-6.4h1.3l-2.7,10h-1.3l-2.1-7.6c-0.2-0.6-0.3-1-0.3-1.2
			c-0.1,0.5-0.2,0.9-0.3,1.2l-2.1,7.6H887z"/>
	</g>
	<g class="st19">
		<path class="st20" d="M902.5,494.7c-0.5,0.4-0.9,0.7-1.3,0.8c-0.4,0.2-0.9,0.2-1.4,0.2c-0.8,0-1.4-0.2-1.8-0.6
			c-0.4-0.4-0.6-0.9-0.6-1.5c0-0.4,0.1-0.7,0.2-1c0.2-0.3,0.4-0.5,0.6-0.7c0.3-0.2,0.6-0.3,0.9-0.4c0.2-0.1,0.6-0.1,1.1-0.2
			c1-0.1,1.7-0.3,2.2-0.4c0-0.2,0-0.3,0-0.3c0-0.5-0.1-0.9-0.3-1.1c-0.3-0.3-0.8-0.4-1.4-0.4c-0.6,0-1,0.1-1.3,0.3
			c-0.3,0.2-0.5,0.6-0.6,1.1l-1.2-0.2c0.1-0.5,0.3-0.9,0.5-1.2c0.2-0.3,0.6-0.6,1.1-0.7c0.5-0.2,1-0.3,1.6-0.3
			c0.6,0,1.1,0.1,1.5,0.2s0.7,0.3,0.9,0.6c0.2,0.2,0.3,0.5,0.4,0.8c0,0.2,0.1,0.6,0.1,1.1v1.6c0,1.1,0,1.9,0.1,2.2
			c0.1,0.3,0.2,0.6,0.3,0.9h-1.3C902.7,495.3,902.6,495,902.5,494.7z M902.4,491.9c-0.4,0.2-1.1,0.3-2,0.5c-0.5,0.1-0.9,0.2-1.1,0.2
			s-0.4,0.2-0.5,0.4c-0.1,0.2-0.2,0.4-0.2,0.6c0,0.3,0.1,0.6,0.4,0.8c0.2,0.2,0.6,0.3,1.1,0.3c0.5,0,0.9-0.1,1.3-0.3
			c0.4-0.2,0.6-0.5,0.8-0.9c0.1-0.3,0.2-0.7,0.2-1.2V491.9z"/>
		<path class="st20" d="M905.6,486.9v-1.4h1.2v1.4H905.6z M905.6,495.5v-7.3h1.2v7.3H905.6z"/>
		<path class="st20" d="M911.4,494.4l0.2,1.1c-0.3,0.1-0.7,0.1-0.9,0.1c-0.4,0-0.8-0.1-1-0.2s-0.4-0.3-0.5-0.6
			c-0.1-0.2-0.2-0.7-0.2-1.5v-4.2H908v-1h0.9v-1.8l1.2-0.7v2.5h1.2v1h-1.2v4.2c0,0.4,0,0.6,0.1,0.7c0,0.1,0.1,0.2,0.2,0.2
			c0.1,0.1,0.2,0.1,0.4,0.1C911,494.5,911.2,494.5,911.4,494.4z"/>
		<path class="st20" d="M912.6,486.9v-1.4h1.2v1.4H912.6z M912.6,495.5v-7.3h1.2v7.3H912.6z"/>
		<path class="st20" d="M915.7,495.5v-7.3h1.1v1c0.5-0.8,1.3-1.2,2.3-1.2c0.4,0,0.8,0.1,1.2,0.2c0.4,0.2,0.6,0.4,0.8,0.6
			s0.3,0.6,0.4,0.9c0,0.2,0.1,0.6,0.1,1.2v4.5h-1.2v-4.4c0-0.5,0-0.9-0.1-1.1c-0.1-0.2-0.3-0.4-0.5-0.6c-0.2-0.1-0.5-0.2-0.9-0.2
			c-0.5,0-1,0.2-1.4,0.5c-0.4,0.3-0.6,1-0.6,1.9v4H915.7z"/>
		<path class="st20" d="M923.3,496.1l1.2,0.2c0.1,0.4,0.2,0.6,0.4,0.8c0.3,0.2,0.7,0.3,1.3,0.3c0.6,0,1-0.1,1.3-0.3s0.5-0.5,0.6-1
			c0.1-0.3,0.1-0.8,0.1-1.6c-0.5,0.6-1.2,1-2,1c-1,0-1.8-0.4-2.3-1.1s-0.8-1.6-0.8-2.6c0-0.7,0.1-1.3,0.4-1.9c0.2-0.6,0.6-1,1.1-1.4
			c0.5-0.3,1-0.5,1.7-0.5c0.9,0,1.6,0.3,2.1,1v-0.9h1.1v6.3c0,1.1-0.1,1.9-0.3,2.4c-0.2,0.5-0.6,0.8-1.1,1.1
			c-0.5,0.3-1.1,0.4-1.8,0.4c-0.9,0-1.6-0.2-2.1-0.6C923.5,497.5,923.2,496.9,923.3,496.1z M924.3,491.8c0,1,0.2,1.6,0.6,2.1
			s0.9,0.7,1.4,0.7c0.6,0,1-0.2,1.4-0.7c0.4-0.4,0.6-1.1,0.6-2c0-0.9-0.2-1.6-0.6-2c-0.4-0.5-0.9-0.7-1.4-0.7c-0.5,0-1,0.2-1.4,0.7
			C924.5,490.3,924.3,490.9,924.3,491.8z"/>
	</g>
	<g class="st19">
		<path class="st20" d="M1437.5,396.5l3.8-10h1.4l4.1,10h-1.5l-1.2-3h-4.2l-1.1,3H1437.5z M1440.3,392.4h3.4l-1-2.8
			c-0.3-0.8-0.6-1.5-0.7-2.1c-0.1,0.6-0.3,1.3-0.5,1.9L1440.3,392.4z"/>
		<path class="st20" d="M1452.5,393.8l1.2,0.2c-0.1,0.8-0.5,1.5-1,2c-0.5,0.5-1.2,0.7-2,0.7c-1,0-1.8-0.3-2.4-1
			c-0.6-0.6-0.9-1.6-0.9-2.8c0-0.8,0.1-1.5,0.4-2.1s0.7-1,1.2-1.3c0.5-0.3,1.1-0.4,1.7-0.4c0.8,0,1.4,0.2,1.9,0.6
			c0.5,0.4,0.8,1,1,1.7l-1.2,0.2c-0.1-0.5-0.3-0.9-0.6-1.1c-0.3-0.2-0.6-0.4-1-0.4c-0.6,0-1.1,0.2-1.5,0.7c-0.4,0.4-0.6,1.1-0.6,2.1
			c0,1,0.2,1.7,0.6,2.1c0.4,0.4,0.9,0.7,1.5,0.7c0.5,0,0.9-0.1,1.2-0.4C1452.2,394.9,1452.4,394.4,1452.5,393.8z"/>
		<path class="st20" d="M1459.5,393.8l1.2,0.2c-0.1,0.8-0.5,1.5-1,2c-0.5,0.5-1.2,0.7-2,0.7c-1,0-1.8-0.3-2.4-1
			c-0.6-0.6-0.9-1.6-0.9-2.8c0-0.8,0.1-1.5,0.4-2.1s0.7-1,1.2-1.3c0.5-0.3,1.1-0.4,1.7-0.4c0.8,0,1.4,0.2,1.9,0.6
			c0.5,0.4,0.8,1,1,1.7l-1.2,0.2c-0.1-0.5-0.3-0.9-0.6-1.1c-0.3-0.2-0.6-0.4-1-0.4c-0.6,0-1.1,0.2-1.5,0.7c-0.4,0.4-0.6,1.1-0.6,2.1
			c0,1,0.2,1.7,0.6,2.1c0.4,0.4,0.9,0.7,1.5,0.7c0.5,0,0.9-0.1,1.2-0.4C1459.2,394.9,1459.4,394.4,1459.5,393.8z"/>
		<path class="st20" d="M1461.3,392.9c0-1.3,0.4-2.3,1.1-3c0.6-0.5,1.4-0.8,2.3-0.8c1,0,1.8,0.3,2.4,1c0.6,0.7,1,1.6,1,2.7
			c0,0.9-0.1,1.7-0.4,2.2c-0.3,0.5-0.7,1-1.2,1.2c-0.5,0.3-1.1,0.4-1.8,0.4c-1,0-1.8-0.3-2.5-1
			C1461.6,395,1461.3,394.1,1461.3,392.9z M1462.5,392.9c0,0.9,0.2,1.6,0.6,2.1c0.4,0.5,0.9,0.7,1.5,0.7c0.6,0,1.1-0.2,1.5-0.7
			c0.4-0.5,0.6-1.2,0.6-2.1c0-0.9-0.2-1.6-0.6-2c-0.4-0.5-0.9-0.7-1.5-0.7c-0.6,0-1.1,0.2-1.5,0.7
			C1462.7,391.2,1462.5,391.9,1462.5,392.9z"/>
		<path class="st20" d="M1474.3,396.5v-1.1c-0.6,0.8-1.3,1.2-2.3,1.2c-0.4,0-0.8-0.1-1.2-0.2c-0.4-0.2-0.6-0.4-0.8-0.6
			c-0.2-0.2-0.3-0.6-0.4-0.9c0-0.2-0.1-0.6-0.1-1.1v-4.5h1.2v4c0,0.6,0,1.1,0.1,1.3c0.1,0.3,0.2,0.6,0.5,0.8
			c0.3,0.2,0.6,0.3,0.9,0.3s0.7-0.1,1-0.3c0.3-0.2,0.6-0.4,0.7-0.8c0.1-0.3,0.2-0.8,0.2-1.4v-3.9h1.2v7.3H1474.3z"/>
		<path class="st20" d="M1477.3,396.5v-7.3h1.1v1c0.5-0.8,1.3-1.2,2.3-1.2c0.4,0,0.8,0.1,1.2,0.2c0.4,0.2,0.6,0.4,0.8,0.6
			s0.3,0.6,0.4,0.9c0,0.2,0.1,0.6,0.1,1.2v4.5h-1.2v-4.4c0-0.5,0-0.9-0.1-1.1c-0.1-0.2-0.3-0.4-0.5-0.6c-0.2-0.1-0.5-0.2-0.9-0.2
			c-0.5,0-1,0.2-1.4,0.5c-0.4,0.3-0.6,1-0.6,1.9v4H1477.3z"/>
		<path class="st20" d="M1487.8,395.4l0.2,1.1c-0.3,0.1-0.7,0.1-0.9,0.1c-0.4,0-0.8-0.1-1-0.2s-0.4-0.3-0.5-0.6
			c-0.1-0.2-0.2-0.7-0.2-1.5v-4.2h-0.9v-1h0.9v-1.8l1.2-0.7v2.5h1.2v1h-1.2v4.2c0,0.4,0,0.6,0.1,0.7c0,0.1,0.1,0.2,0.2,0.2
			c0.1,0.1,0.2,0.1,0.4,0.1C1487.4,395.4,1487.6,395.4,1487.8,395.4z"/>
		<path class="st20" d="M1488.5,394.3l1.2-0.2c0.1,0.5,0.3,0.9,0.6,1.1c0.3,0.3,0.7,0.4,1.3,0.4c0.6,0,1-0.1,1.3-0.3
			c0.3-0.2,0.4-0.5,0.4-0.8c0-0.3-0.1-0.5-0.4-0.7c-0.2-0.1-0.6-0.2-1.3-0.4c-0.9-0.2-1.5-0.4-1.9-0.6c-0.3-0.2-0.6-0.4-0.8-0.7
			c-0.2-0.3-0.3-0.6-0.3-1c0-0.3,0.1-0.6,0.2-0.9c0.1-0.3,0.4-0.5,0.6-0.7c0.2-0.1,0.5-0.3,0.8-0.4c0.3-0.1,0.7-0.1,1.1-0.1
			c0.6,0,1.1,0.1,1.5,0.2c0.4,0.2,0.7,0.4,1,0.7c0.2,0.3,0.3,0.7,0.4,1.1l-1.2,0.2c-0.1-0.4-0.2-0.7-0.5-0.9
			c-0.3-0.2-0.6-0.3-1.1-0.3c-0.6,0-1,0.1-1.2,0.3s-0.4,0.4-0.4,0.7c0,0.2,0,0.3,0.2,0.4c0.1,0.1,0.3,0.2,0.5,0.3
			c0.1,0,0.5,0.2,1.1,0.3c0.9,0.2,1.5,0.4,1.8,0.6c0.3,0.1,0.6,0.4,0.8,0.6s0.3,0.6,0.3,1.1c0,0.4-0.1,0.8-0.4,1.2
			c-0.2,0.4-0.6,0.6-1,0.8c-0.5,0.2-1,0.3-1.5,0.3c-0.9,0-1.7-0.2-2.2-0.6C1488.9,395.7,1488.6,395.1,1488.5,394.3z"/>
		<path class="st20" d="M1500,396.5v-10h4.4c0.9,0,1.6,0.1,2,0.3c0.5,0.2,0.8,0.5,1.1,1s0.4,1,0.4,1.5c0,0.7-0.2,1.3-0.7,1.8
			s-1.2,0.8-2.1,0.9c0.4,0.2,0.6,0.3,0.8,0.5c0.4,0.4,0.8,0.8,1.1,1.3l1.7,2.7h-1.7l-1.3-2.1c-0.4-0.6-0.7-1.1-1-1.4
			s-0.5-0.5-0.7-0.7c-0.2-0.1-0.4-0.2-0.6-0.3c-0.2,0-0.4,0-0.7,0h-1.5v4.5H1500z M1501.4,390.9h2.9c0.6,0,1.1-0.1,1.4-0.2
			c0.3-0.1,0.6-0.3,0.8-0.6c0.2-0.3,0.3-0.6,0.3-0.9c0-0.5-0.2-0.9-0.5-1.2c-0.3-0.3-0.9-0.5-1.6-0.5h-3.2V390.9z"/>
		<path class="st20" d="M1509.5,392.9c0-1.3,0.4-2.3,1.1-3c0.6-0.5,1.4-0.8,2.3-0.8c1,0,1.8,0.3,2.4,1c0.6,0.7,1,1.6,1,2.7
			c0,0.9-0.1,1.7-0.4,2.2c-0.3,0.5-0.7,1-1.2,1.2c-0.5,0.3-1.1,0.4-1.8,0.4c-1,0-1.8-0.3-2.5-1
			C1509.8,395,1509.5,394.1,1509.5,392.9z M1510.8,392.9c0,0.9,0.2,1.6,0.6,2.1c0.4,0.5,0.9,0.7,1.5,0.7c0.6,0,1.1-0.2,1.5-0.7
			s0.6-1.2,0.6-2.1c0-0.9-0.2-1.6-0.6-2c-0.4-0.5-0.9-0.7-1.5-0.7c-0.6,0-1.1,0.2-1.5,0.7S1510.8,391.9,1510.8,392.9z"/>
		<path class="st20" d="M1517.3,392.9c0-1.3,0.4-2.3,1.1-3c0.6-0.5,1.4-0.8,2.3-0.8c1,0,1.8,0.3,2.4,1c0.6,0.7,1,1.6,1,2.7
			c0,0.9-0.1,1.7-0.4,2.2c-0.3,0.5-0.7,1-1.2,1.2c-0.5,0.3-1.1,0.4-1.8,0.4c-1,0-1.8-0.3-2.5-1
			C1517.6,395,1517.3,394.1,1517.3,392.9z M1518.6,392.9c0,0.9,0.2,1.6,0.6,2.1c0.4,0.5,0.9,0.7,1.5,0.7c0.6,0,1.1-0.2,1.5-0.7
			s0.6-1.2,0.6-2.1c0-0.9-0.2-1.6-0.6-2c-0.4-0.5-0.9-0.7-1.5-0.7c-0.6,0-1.1,0.2-1.5,0.7S1518.6,391.9,1518.6,392.9z"/>
		<path class="st20" d="M1525.6,396.5v-7.3h1.1v1c0.2-0.4,0.5-0.6,0.9-0.9c0.4-0.2,0.8-0.3,1.3-0.3c0.5,0,1,0.1,1.3,0.3
			c0.3,0.2,0.6,0.5,0.7,0.9c0.6-0.8,1.3-1.3,2.2-1.3c0.7,0,1.3,0.2,1.7,0.6c0.4,0.4,0.6,1,0.6,1.8v5h-1.2v-4.6c0-0.5,0-0.8-0.1-1.1
			c-0.1-0.2-0.2-0.4-0.4-0.5s-0.5-0.2-0.7-0.2c-0.5,0-0.9,0.2-1.3,0.5c-0.3,0.3-0.5,0.9-0.5,1.6v4.2h-1.2v-4.7c0-0.5-0.1-1-0.3-1.2
			s-0.5-0.4-1-0.4c-0.3,0-0.7,0.1-1,0.3c-0.3,0.2-0.5,0.4-0.6,0.8s-0.2,0.9-0.2,1.5v3.8H1525.6z"/>
	</g>
	<g class="st19">
		<path class="st20" d="M1084.4,1086.1v-10h3.8c0.7,0,1.2,0,1.5,0.1c0.5,0.1,0.9,0.2,1.2,0.5c0.3,0.2,0.6,0.6,0.8,1
			c0.2,0.4,0.3,0.9,0.3,1.4c0,0.9-0.3,1.6-0.8,2.2c-0.5,0.6-1.5,0.9-2.9,0.9h-2.6v4.1H1084.4z M1085.7,1080.8h2.6
			c0.9,0,1.5-0.2,1.8-0.5c0.4-0.3,0.5-0.8,0.5-1.3c0-0.4-0.1-0.8-0.3-1.1c-0.2-0.3-0.5-0.5-0.8-0.6c-0.2-0.1-0.6-0.1-1.2-0.1h-2.6
			V1080.8z"/>
		<path class="st20" d="M1098.3,1085.2c-0.5,0.4-0.9,0.7-1.3,0.8c-0.4,0.2-0.9,0.2-1.4,0.2c-0.8,0-1.4-0.2-1.8-0.6
			c-0.4-0.4-0.6-0.9-0.6-1.5c0-0.4,0.1-0.7,0.2-1c0.2-0.3,0.4-0.5,0.6-0.7c0.3-0.2,0.6-0.3,0.9-0.4c0.2-0.1,0.6-0.1,1.1-0.2
			c1-0.1,1.7-0.3,2.2-0.4c0-0.2,0-0.3,0-0.3c0-0.5-0.1-0.9-0.3-1.1c-0.3-0.3-0.8-0.4-1.4-0.4c-0.6,0-1,0.1-1.3,0.3
			c-0.3,0.2-0.5,0.6-0.6,1.1l-1.2-0.2c0.1-0.5,0.3-0.9,0.5-1.2c0.2-0.3,0.6-0.6,1.1-0.7c0.5-0.2,1-0.3,1.6-0.3
			c0.6,0,1.1,0.1,1.5,0.2c0.4,0.1,0.7,0.3,0.9,0.6c0.2,0.2,0.3,0.5,0.4,0.8c0,0.2,0.1,0.6,0.1,1.1v1.6c0,1.1,0,1.9,0.1,2.2
			c0.1,0.3,0.2,0.6,0.3,0.9h-1.3C1098.4,1085.8,1098.3,1085.5,1098.3,1085.2z M1098.2,1082.4c-0.4,0.2-1.1,0.3-2,0.5
			c-0.5,0.1-0.9,0.2-1.1,0.2c-0.2,0.1-0.4,0.2-0.5,0.4c-0.1,0.2-0.2,0.4-0.2,0.6c0,0.3,0.1,0.6,0.4,0.8c0.2,0.2,0.6,0.3,1.1,0.3
			c0.5,0,0.9-0.1,1.3-0.3c0.4-0.2,0.6-0.5,0.8-0.9c0.1-0.3,0.2-0.7,0.2-1.2V1082.4z"/>
		<path class="st20" d="M1101.3,1086.1v-7.3h1.1v1.1c0.3-0.5,0.5-0.9,0.8-1s0.5-0.2,0.8-0.2c0.4,0,0.8,0.1,1.3,0.4l-0.4,1.1
			c-0.3-0.2-0.6-0.3-0.9-0.3c-0.3,0-0.5,0.1-0.7,0.2c-0.2,0.2-0.4,0.4-0.5,0.7c-0.1,0.4-0.2,0.9-0.2,1.4v3.8H1101.3z"/>
		<path class="st20" d="M1108.7,1085l0.2,1.1c-0.3,0.1-0.7,0.1-0.9,0.1c-0.4,0-0.8-0.1-1-0.2s-0.4-0.3-0.5-0.6
			c-0.1-0.2-0.2-0.7-0.2-1.5v-4.2h-0.9v-1h0.9v-1.8l1.2-0.7v2.5h1.2v1h-1.2v4.2c0,0.4,0,0.6,0.1,0.7c0,0.1,0.1,0.2,0.2,0.2
			c0.1,0.1,0.2,0.1,0.4,0.1C1108.3,1085,1108.4,1085,1108.7,1085z"/>
		<path class="st20" d="M1109.9,1086.1v-7.3h1.1v1c0.5-0.8,1.3-1.2,2.3-1.2c0.4,0,0.8,0.1,1.2,0.2c0.4,0.2,0.6,0.4,0.8,0.6
			c0.2,0.3,0.3,0.6,0.4,0.9c0,0.2,0.1,0.6,0.1,1.2v4.5h-1.2v-4.4c0-0.5,0-0.9-0.1-1.1c-0.1-0.2-0.3-0.4-0.5-0.6
			c-0.2-0.1-0.5-0.2-0.9-0.2c-0.5,0-1,0.2-1.4,0.5c-0.4,0.3-0.6,1-0.6,1.9v4H1109.9z"/>
		<path class="st20" d="M1122.6,1083.8l1.3,0.2c-0.2,0.7-0.6,1.3-1.1,1.7c-0.5,0.4-1.2,0.6-2.1,0.6c-1.1,0-1.9-0.3-2.5-1
			c-0.6-0.7-0.9-1.6-0.9-2.8c0-1.2,0.3-2.2,0.9-2.8s1.4-1,2.4-1c1,0,1.8,0.3,2.4,1s0.9,1.6,0.9,2.8c0,0.1,0,0.2,0,0.3h-5.4
			c0,0.8,0.3,1.4,0.7,1.8c0.4,0.4,0.9,0.6,1.5,0.6c0.5,0,0.8-0.1,1.2-0.4C1122.2,1084.7,1122.4,1084.3,1122.6,1083.8z
			 M1118.6,1081.8h4.1c-0.1-0.6-0.2-1.1-0.5-1.4c-0.4-0.5-0.9-0.7-1.5-0.7c-0.6,0-1,0.2-1.4,0.6
			C1118.8,1080.6,1118.6,1081.1,1118.6,1081.8z"/>
		<path class="st20" d="M1125.4,1086.1v-7.3h1.1v1.1c0.3-0.5,0.5-0.9,0.8-1c0.2-0.2,0.5-0.2,0.8-0.2c0.4,0,0.8,0.1,1.3,0.4l-0.4,1.1
			c-0.3-0.2-0.6-0.3-0.9-0.3c-0.3,0-0.5,0.1-0.7,0.2c-0.2,0.2-0.4,0.4-0.5,0.7c-0.1,0.4-0.2,0.9-0.2,1.4v3.8H1125.4z"/>
		<path class="st20" d="M1134.2,1086.1v-10h4.4c0.9,0,1.6,0.1,2,0.3c0.5,0.2,0.8,0.5,1.1,1s0.4,1,0.4,1.5c0,0.7-0.2,1.3-0.7,1.8
			s-1.2,0.8-2.1,0.9c0.4,0.2,0.6,0.3,0.8,0.5c0.4,0.4,0.8,0.8,1.1,1.3l1.7,2.7h-1.7l-1.3-2.1c-0.4-0.6-0.7-1.1-1-1.4
			s-0.5-0.5-0.7-0.7c-0.2-0.1-0.4-0.2-0.6-0.3c-0.2,0-0.4,0-0.7,0h-1.5v4.5H1134.2z M1135.5,1080.5h2.9c0.6,0,1.1-0.1,1.4-0.2
			c0.3-0.1,0.6-0.3,0.8-0.6c0.2-0.3,0.3-0.6,0.3-0.9c0-0.5-0.2-0.9-0.5-1.2c-0.3-0.3-0.9-0.5-1.6-0.5h-3.2V1080.5z"/>
		<path class="st20" d="M1143.7,1082.5c0-1.3,0.4-2.3,1.1-3c0.6-0.5,1.4-0.8,2.3-0.8c1,0,1.8,0.3,2.4,1c0.6,0.7,1,1.6,1,2.7
			c0,0.9-0.1,1.7-0.4,2.2c-0.3,0.5-0.7,1-1.2,1.2c-0.5,0.3-1.1,0.4-1.8,0.4c-1,0-1.8-0.3-2.5-1
			C1144,1084.6,1143.7,1083.7,1143.7,1082.5z M1144.9,1082.5c0,0.9,0.2,1.6,0.6,2.1c0.4,0.5,0.9,0.7,1.5,0.7c0.6,0,1.1-0.2,1.5-0.7
			s0.6-1.2,0.6-2.1c0-0.9-0.2-1.6-0.6-2c-0.4-0.5-0.9-0.7-1.5-0.7c-0.6,0-1.1,0.2-1.5,0.7S1144.9,1081.5,1144.9,1082.5z"/>
		<path class="st20" d="M1151.4,1082.5c0-1.3,0.4-2.3,1.1-3c0.6-0.5,1.4-0.8,2.3-0.8c1,0,1.8,0.3,2.4,1c0.6,0.7,1,1.6,1,2.7
			c0,0.9-0.1,1.7-0.4,2.2c-0.3,0.5-0.7,1-1.2,1.2c-0.5,0.3-1.1,0.4-1.8,0.4c-1,0-1.8-0.3-2.5-1
			C1151.8,1084.6,1151.4,1083.7,1151.4,1082.5z M1152.7,1082.5c0,0.9,0.2,1.6,0.6,2.1c0.4,0.5,0.9,0.7,1.5,0.7
			c0.6,0,1.1-0.2,1.5-0.7s0.6-1.2,0.6-2.1c0-0.9-0.2-1.6-0.6-2c-0.4-0.5-0.9-0.7-1.5-0.7c-0.6,0-1.1,0.2-1.5,0.7
			S1152.7,1081.5,1152.7,1082.5z"/>
		<path class="st20" d="M1159.7,1086.1v-7.3h1.1v1c0.2-0.4,0.5-0.6,0.9-0.9c0.4-0.2,0.8-0.3,1.3-0.3c0.5,0,1,0.1,1.3,0.3
			c0.3,0.2,0.6,0.5,0.7,0.9c0.6-0.8,1.3-1.3,2.2-1.3c0.7,0,1.3,0.2,1.7,0.6c0.4,0.4,0.6,1,0.6,1.8v5h-1.2v-4.6c0-0.5,0-0.8-0.1-1.1
			c-0.1-0.2-0.2-0.4-0.4-0.5s-0.5-0.2-0.7-0.2c-0.5,0-0.9,0.2-1.3,0.5c-0.3,0.3-0.5,0.9-0.5,1.6v4.2h-1.2v-4.7c0-0.5-0.1-1-0.3-1.2
			s-0.5-0.4-1-0.4c-0.3,0-0.7,0.1-1,0.3c-0.3,0.2-0.5,0.4-0.6,0.8s-0.2,0.9-0.2,1.5v3.8H1159.7z"/>
		<path class="st20" d="M1179.5,1086.1h-1.2v-7.8c-0.3,0.3-0.7,0.6-1.2,0.8c-0.5,0.3-0.9,0.5-1.3,0.6v-1.2c0.7-0.3,1.3-0.7,1.8-1.2
			s0.9-0.9,1.1-1.3h0.8V1086.1z"/>
	</g>
	<g class="st19">
		<path class="st20" d="M1342.3,709.6v-10h3.8c0.7,0,1.2,0,1.5,0.1c0.5,0.1,0.9,0.2,1.2,0.5c0.3,0.2,0.6,0.6,0.8,1
			c0.2,0.4,0.3,0.9,0.3,1.4c0,0.9-0.3,1.6-0.8,2.2c-0.5,0.6-1.5,0.9-2.9,0.9h-2.6v4.1H1342.3z M1343.6,704.3h2.6
			c0.9,0,1.5-0.2,1.8-0.5c0.4-0.3,0.5-0.8,0.5-1.3c0-0.4-0.1-0.8-0.3-1.1c-0.2-0.3-0.5-0.5-0.8-0.6c-0.2-0.1-0.6-0.1-1.2-0.1h-2.6
			V704.3z"/>
		<path class="st20" d="M1356.2,708.7c-0.5,0.4-0.9,0.7-1.3,0.8c-0.4,0.2-0.9,0.2-1.4,0.2c-0.8,0-1.4-0.2-1.8-0.6
			c-0.4-0.4-0.6-0.9-0.6-1.5c0-0.4,0.1-0.7,0.2-1c0.2-0.3,0.4-0.5,0.6-0.7c0.3-0.2,0.6-0.3,0.9-0.4c0.2-0.1,0.6-0.1,1.1-0.2
			c1-0.1,1.7-0.3,2.2-0.4c0-0.2,0-0.3,0-0.3c0-0.5-0.1-0.9-0.3-1.1c-0.3-0.3-0.8-0.4-1.4-0.4c-0.6,0-1,0.1-1.3,0.3
			c-0.3,0.2-0.5,0.6-0.6,1.1l-1.2-0.2c0.1-0.5,0.3-0.9,0.5-1.2c0.3-0.3,0.6-0.6,1.1-0.7c0.5-0.2,1-0.3,1.6-0.3
			c0.6,0,1.1,0.1,1.5,0.2c0.4,0.1,0.7,0.3,0.9,0.6c0.2,0.2,0.3,0.5,0.4,0.8c0,0.2,0.1,0.6,0.1,1.1v1.6c0,1.1,0,1.9,0.1,2.2
			c0.1,0.3,0.2,0.6,0.3,0.9h-1.3C1356.3,709.3,1356.2,709,1356.2,708.7z M1356.1,705.9c-0.4,0.2-1.1,0.3-2,0.5
			c-0.5,0.1-0.9,0.2-1.1,0.2c-0.2,0.1-0.4,0.2-0.5,0.4c-0.1,0.2-0.2,0.4-0.2,0.6c0,0.3,0.1,0.6,0.4,0.8c0.2,0.2,0.6,0.3,1.1,0.3
			c0.5,0,0.9-0.1,1.3-0.3c0.4-0.2,0.6-0.5,0.8-0.9c0.1-0.3,0.2-0.7,0.2-1.2V705.9z"/>
		<path class="st20" d="M1359.2,709.6v-7.3h1.1v1.1c0.3-0.5,0.5-0.9,0.8-1s0.5-0.2,0.8-0.2c0.4,0,0.8,0.1,1.3,0.4l-0.4,1.1
			c-0.3-0.2-0.6-0.3-0.9-0.3c-0.3,0-0.5,0.1-0.7,0.2c-0.2,0.2-0.4,0.4-0.5,0.7c-0.1,0.4-0.2,0.9-0.2,1.4v3.8H1359.2z"/>
		<path class="st20" d="M1366.6,708.5l0.2,1.1c-0.3,0.1-0.7,0.1-0.9,0.1c-0.4,0-0.8-0.1-1-0.2s-0.4-0.3-0.5-0.6
			c-0.1-0.2-0.2-0.7-0.2-1.5v-4.2h-0.9v-1h0.9v-1.8l1.2-0.7v2.5h1.2v1h-1.2v4.2c0,0.4,0,0.6,0.1,0.7c0,0.1,0.1,0.2,0.2,0.2
			c0.1,0.1,0.2,0.1,0.4,0.1C1366.2,708.5,1366.4,708.5,1366.6,708.5z"/>
		<path class="st20" d="M1367.8,709.6v-7.3h1.1v1c0.5-0.8,1.3-1.2,2.3-1.2c0.4,0,0.8,0.1,1.2,0.2c0.4,0.2,0.6,0.4,0.8,0.6
			c0.2,0.3,0.3,0.6,0.4,0.9c0,0.2,0.1,0.6,0.1,1.2v4.5h-1.2v-4.4c0-0.5,0-0.9-0.1-1.1c-0.1-0.2-0.3-0.4-0.5-0.6
			c-0.2-0.1-0.5-0.2-0.9-0.2c-0.5,0-1,0.2-1.4,0.5c-0.4,0.3-0.6,1-0.6,1.9v4H1367.8z"/>
		<path class="st20" d="M1380.6,707.3l1.3,0.2c-0.2,0.7-0.6,1.3-1.1,1.7c-0.5,0.4-1.2,0.6-2.1,0.6c-1.1,0-1.9-0.3-2.5-1
			c-0.6-0.7-0.9-1.6-0.9-2.8c0-1.2,0.3-2.2,0.9-2.8s1.4-1,2.4-1c1,0,1.8,0.3,2.4,1s0.9,1.6,0.9,2.8c0,0.1,0,0.2,0,0.3h-5.4
			c0,0.8,0.3,1.4,0.7,1.8c0.4,0.4,0.9,0.6,1.5,0.6c0.5,0,0.8-0.1,1.2-0.4C1380.1,708.2,1380.4,707.8,1380.6,707.3z M1376.5,705.3
			h4.1c-0.1-0.6-0.2-1.1-0.5-1.4c-0.4-0.5-0.9-0.7-1.5-0.7c-0.6,0-1,0.2-1.4,0.6C1376.8,704.1,1376.6,704.6,1376.5,705.3z"/>
		<path class="st20" d="M1383.4,709.6v-7.3h1.1v1.1c0.3-0.5,0.5-0.9,0.8-1c0.2-0.2,0.5-0.2,0.8-0.2c0.4,0,0.8,0.1,1.3,0.4l-0.4,1.1
			c-0.3-0.2-0.6-0.3-0.9-0.3c-0.3,0-0.5,0.1-0.7,0.2c-0.2,0.2-0.4,0.4-0.5,0.7c-0.1,0.4-0.2,0.9-0.2,1.4v3.8H1383.4z"/>
		<path class="st20" d="M1392.1,709.6v-10h4.4c0.9,0,1.6,0.1,2,0.3c0.5,0.2,0.8,0.5,1.1,1s0.4,1,0.4,1.5c0,0.7-0.2,1.3-0.7,1.8
			s-1.2,0.8-2.1,0.9c0.4,0.2,0.6,0.3,0.8,0.5c0.4,0.4,0.8,0.8,1.1,1.3l1.7,2.7h-1.7l-1.3-2.1c-0.4-0.6-0.7-1.1-1-1.4
			s-0.5-0.5-0.7-0.7c-0.2-0.1-0.4-0.2-0.6-0.3c-0.2,0-0.4,0-0.7,0h-1.5v4.5H1392.1z M1393.4,704h2.9c0.6,0,1.1-0.1,1.4-0.2
			c0.3-0.1,0.6-0.3,0.8-0.6c0.2-0.3,0.3-0.6,0.3-0.9c0-0.5-0.2-0.9-0.5-1.2c-0.3-0.3-0.9-0.5-1.6-0.5h-3.2V704z"/>
		<path class="st20" d="M1401.6,706c0-1.3,0.4-2.3,1.1-3c0.6-0.5,1.4-0.8,2.3-0.8c1,0,1.8,0.3,2.4,1c0.6,0.7,1,1.6,1,2.7
			c0,0.9-0.1,1.7-0.4,2.2c-0.3,0.5-0.7,1-1.2,1.2c-0.5,0.3-1.1,0.4-1.8,0.4c-1,0-1.8-0.3-2.5-1
			C1401.9,708.1,1401.6,707.2,1401.6,706z M1402.9,706c0,0.9,0.2,1.6,0.6,2.1c0.4,0.5,0.9,0.7,1.5,0.7c0.6,0,1.1-0.2,1.5-0.7
			s0.6-1.2,0.6-2.1c0-0.9-0.2-1.6-0.6-2c-0.4-0.5-0.9-0.7-1.5-0.7c-0.6,0-1.1,0.2-1.5,0.7S1402.9,705,1402.9,706z"/>
		<path class="st20" d="M1409.4,706c0-1.3,0.4-2.3,1.1-3c0.6-0.5,1.4-0.8,2.3-0.8c1,0,1.8,0.3,2.4,1c0.6,0.7,1,1.6,1,2.7
			c0,0.9-0.1,1.7-0.4,2.2c-0.3,0.5-0.7,1-1.2,1.2c-0.5,0.3-1.1,0.4-1.8,0.4c-1,0-1.8-0.3-2.5-1
			C1409.7,708.1,1409.4,707.2,1409.4,706z M1410.6,706c0,0.9,0.2,1.6,0.6,2.1c0.4,0.5,0.9,0.7,1.5,0.7c0.6,0,1.1-0.2,1.5-0.7
			s0.6-1.2,0.6-2.1c0-0.9-0.2-1.6-0.6-2c-0.4-0.5-0.9-0.7-1.5-0.7c-0.6,0-1.1,0.2-1.5,0.7S1410.6,705,1410.6,706z"/>
		<path class="st20" d="M1417.6,709.6v-7.3h1.1v1c0.2-0.4,0.5-0.6,0.9-0.9c0.4-0.2,0.8-0.3,1.3-0.3c0.5,0,1,0.1,1.3,0.3
			c0.3,0.2,0.6,0.5,0.7,0.9c0.6-0.8,1.3-1.3,2.2-1.3c0.7,0,1.3,0.2,1.7,0.6c0.4,0.4,0.6,1,0.6,1.8v5h-1.2V705c0-0.5,0-0.8-0.1-1.1
			c-0.1-0.2-0.2-0.4-0.4-0.5s-0.5-0.2-0.7-0.2c-0.5,0-0.9,0.2-1.3,0.5c-0.3,0.3-0.5,0.9-0.5,1.6v4.2h-1.2v-4.7c0-0.5-0.1-1-0.3-1.2
			s-0.5-0.4-1-0.4c-0.3,0-0.7,0.1-1,0.3c-0.3,0.2-0.5,0.4-0.6,0.8s-0.2,0.9-0.2,1.5v3.8H1417.6z"/>
		<path class="st20" d="M1439.3,708.4v1.2h-6.6c0-0.3,0-0.6,0.1-0.9c0.2-0.5,0.4-0.9,0.8-1.3c0.4-0.4,0.9-0.9,1.6-1.5
			c1.1-0.9,1.8-1.6,2.2-2.1c0.4-0.5,0.6-1,0.6-1.5c0-0.5-0.2-0.9-0.5-1.2c-0.3-0.3-0.8-0.5-1.4-0.5c-0.6,0-1.1,0.2-1.4,0.5
			s-0.5,0.8-0.5,1.5l-1.3-0.1c0.1-0.9,0.4-1.7,1-2.2c0.6-0.5,1.3-0.7,2.3-0.7c1,0,1.7,0.3,2.3,0.8s0.8,1.2,0.8,2
			c0,0.4-0.1,0.8-0.2,1.2s-0.4,0.8-0.8,1.2c-0.4,0.4-1,1-1.9,1.8c-0.7,0.6-1.2,1-1.4,1.3c-0.2,0.2-0.4,0.4-0.5,0.7H1439.3z"/>
	</g>
	<g class="st19">
		<path class="st20" d="M612.1,486.8v-10h7.2v1.2h-5.9v3.1h5.5v1.2h-5.5v3.4h6.2v1.2H612.1z"/>
		<path class="st20" d="M621.2,486.8v-7.3h1.1v1c0.5-0.8,1.3-1.2,2.3-1.2c0.4,0,0.8,0.1,1.2,0.2c0.4,0.2,0.6,0.4,0.8,0.6
			s0.3,0.6,0.4,0.9c0,0.2,0.1,0.6,0.1,1.2v4.5h-1.2v-4.4c0-0.5,0-0.9-0.1-1.1c-0.1-0.2-0.3-0.4-0.5-0.6c-0.2-0.1-0.5-0.2-0.9-0.2
			c-0.5,0-1,0.2-1.4,0.5s-0.6,1-0.6,1.9v4H621.2z"/>
		<path class="st20" d="M631.7,485.7l0.2,1.1c-0.3,0.1-0.7,0.1-0.9,0.1c-0.4,0-0.8-0.1-1-0.2s-0.4-0.3-0.5-0.6
			c-0.1-0.2-0.2-0.7-0.2-1.5v-4.2h-0.9v-1h0.9v-1.8l1.2-0.7v2.5h1.2v1h-1.2v4.2c0,0.4,0,0.6,0.1,0.7s0.1,0.2,0.2,0.2
			s0.2,0.1,0.4,0.1C631.3,485.8,631.5,485.7,631.7,485.7z"/>
		<path class="st20" d="M637.9,484.5l1.3,0.2c-0.2,0.7-0.6,1.3-1.1,1.7s-1.2,0.6-2.1,0.6c-1.1,0-1.9-0.3-2.5-1
			c-0.6-0.7-0.9-1.6-0.9-2.8c0-1.2,0.3-2.2,0.9-2.8s1.4-1,2.4-1c1,0,1.8,0.3,2.4,1s0.9,1.6,0.9,2.8c0,0.1,0,0.2,0,0.3h-5.4
			c0,0.8,0.3,1.4,0.7,1.8s0.9,0.6,1.5,0.6c0.5,0,0.8-0.1,1.2-0.4S637.7,485,637.9,484.5z M633.8,482.5h4.1c-0.1-0.6-0.2-1.1-0.5-1.4
			c-0.4-0.5-0.9-0.7-1.5-0.7c-0.6,0-1,0.2-1.4,0.6S633.9,481.8,633.8,482.5z"/>
		<path class="st20" d="M640.7,486.8v-7.3h1.1v1.1c0.3-0.5,0.5-0.9,0.8-1s0.5-0.2,0.8-0.2c0.4,0,0.8,0.1,1.3,0.4l-0.4,1.1
			c-0.3-0.2-0.6-0.3-0.9-0.3c-0.3,0-0.5,0.1-0.7,0.2c-0.2,0.2-0.4,0.4-0.5,0.7c-0.1,0.4-0.2,0.9-0.2,1.4v3.8H640.7z"/>
		<path class="st20" d="M650.1,485.9c-0.5,0.4-0.9,0.7-1.3,0.8s-0.9,0.2-1.4,0.2c-0.8,0-1.4-0.2-1.8-0.6c-0.4-0.4-0.6-0.9-0.6-1.5
			c0-0.4,0.1-0.7,0.2-1c0.2-0.3,0.4-0.5,0.6-0.7s0.6-0.3,0.9-0.4c0.2-0.1,0.6-0.1,1.1-0.2c1-0.1,1.7-0.3,2.2-0.4c0-0.2,0-0.3,0-0.3
			c0-0.5-0.1-0.9-0.3-1.1c-0.3-0.3-0.8-0.4-1.4-0.4c-0.6,0-1,0.1-1.3,0.3c-0.3,0.2-0.5,0.6-0.6,1.1l-1.2-0.2
			c0.1-0.5,0.3-0.9,0.5-1.2c0.3-0.3,0.6-0.6,1.1-0.7c0.5-0.2,1-0.3,1.6-0.3c0.6,0,1.1,0.1,1.5,0.2s0.7,0.3,0.9,0.6
			c0.2,0.2,0.3,0.5,0.4,0.8c0,0.2,0.1,0.6,0.1,1.1v1.6c0,1.1,0,1.9,0.1,2.2c0.1,0.3,0.2,0.6,0.3,0.9h-1.3
			C650.2,486.6,650.1,486.3,650.1,485.9z M650,483.2c-0.4,0.2-1.1,0.3-2,0.5c-0.5,0.1-0.9,0.2-1.1,0.2s-0.4,0.2-0.5,0.4
			c-0.1,0.2-0.2,0.4-0.2,0.6c0,0.3,0.1,0.6,0.4,0.8s0.6,0.3,1.1,0.3c0.5,0,0.9-0.1,1.3-0.3c0.4-0.2,0.6-0.5,0.8-0.9
			c0.1-0.3,0.2-0.7,0.2-1.2V483.2z"/>
		<path class="st20" d="M653.2,486.8v-7.3h1.1v1c0.5-0.8,1.3-1.2,2.3-1.2c0.4,0,0.8,0.1,1.2,0.2c0.4,0.2,0.6,0.4,0.8,0.6
			s0.3,0.6,0.4,0.9c0,0.2,0.1,0.6,0.1,1.2v4.5h-1.2v-4.4c0-0.5,0-0.9-0.1-1.1c-0.1-0.2-0.3-0.4-0.5-0.6c-0.2-0.1-0.5-0.2-0.9-0.2
			c-0.5,0-1,0.2-1.4,0.5c-0.4,0.3-0.6,1-0.6,1.9v4H653.2z"/>
		<path class="st20" d="M665.7,484.2l1.2,0.2c-0.1,0.8-0.5,1.5-1,2c-0.5,0.5-1.2,0.7-2,0.7c-1,0-1.8-0.3-2.4-1
			c-0.6-0.6-0.9-1.6-0.9-2.8c0-0.8,0.1-1.5,0.4-2.1s0.7-1,1.2-1.3c0.5-0.3,1.1-0.4,1.7-0.4c0.8,0,1.4,0.2,1.9,0.6
			c0.5,0.4,0.8,1,1,1.7l-1.2,0.2c-0.1-0.5-0.3-0.9-0.6-1.1c-0.3-0.2-0.6-0.4-1-0.4c-0.6,0-1.1,0.2-1.5,0.7c-0.4,0.4-0.6,1.1-0.6,2.1
			c0,1,0.2,1.7,0.6,2.1s0.9,0.7,1.5,0.7c0.5,0,0.9-0.1,1.2-0.4S665.6,484.8,665.7,484.2z"/>
		<path class="st20" d="M672.9,484.5l1.3,0.2c-0.2,0.7-0.6,1.3-1.1,1.7s-1.2,0.6-2.1,0.6c-1.1,0-1.9-0.3-2.5-1
			c-0.6-0.7-0.9-1.6-0.9-2.8c0-1.2,0.3-2.2,0.9-2.8s1.4-1,2.4-1c1,0,1.8,0.3,2.4,1s0.9,1.6,0.9,2.8c0,0.1,0,0.2,0,0.3h-5.4
			c0,0.8,0.3,1.4,0.7,1.8s0.9,0.6,1.5,0.6c0.5,0,0.8-0.1,1.2-0.4S672.7,485,672.9,484.5z M668.9,482.5h4.1c-0.1-0.6-0.2-1.1-0.5-1.4
			c-0.4-0.5-0.9-0.7-1.5-0.7c-0.6,0-1,0.2-1.4,0.6C669.1,481.3,668.9,481.8,668.9,482.5z"/>
	</g>
</g>
<g id="bookable">
	<rect id="area-08.04-status" x="640.3" y="1023.2" class="st23" width="284.5" height="273.1"/>
	<rect id="area-08.03-status" x="641.7" y="702.6" class="st23" width="292.5" height="319.8"/>
	<rect id="area-08.02-status" x="934.2" y="702.6" class="st23" width="284.5" height="319.8"/>
	<rect id="area-08.01-status" x="294.3" y="703.1" class="st23" width="347.4" height="319.8"/>
	<g class="st19">
		<path class="st6" d="M428.7,848.2h5.7c1.1,0,2,0,2.5,0.1s1.1,0.3,1.5,0.6s0.8,0.7,1.1,1.2s0.4,1.1,0.4,1.7c0,0.7-0.2,1.3-0.5,1.8
			s-0.9,1-1.5,1.3c0.9,0.3,1.5,0.7,2,1.3s0.7,1.3,0.7,2.2c0,0.7-0.2,1.3-0.5,1.9s-0.7,1.1-1.2,1.5s-1.2,0.6-1.9,0.7
			c-0.5,0.1-1.6,0.1-3.5,0.1h-4.9V848.2z M431.6,850.6v3.3h1.9c1.1,0,1.8,0,2.1,0c0.5-0.1,0.9-0.2,1.2-0.5s0.4-0.7,0.4-1.1
			c0-0.4-0.1-0.8-0.4-1.1s-0.6-0.4-1.1-0.5c-0.3,0-1.1,0-2.5,0H431.6z M431.6,856.3v3.8h2.7c1,0,1.7,0,2-0.1c0.4-0.1,0.8-0.3,1-0.6
			s0.4-0.7,0.4-1.2c0-0.4-0.1-0.8-0.3-1.1s-0.5-0.5-0.9-0.7s-1.2-0.2-2.6-0.2H431.6z"/>
		<path class="st6" d="M442.5,857.2c0-0.9,0.2-1.8,0.7-2.6s1.1-1.5,1.9-2s1.7-0.7,2.8-0.7c1.6,0,2.9,0.5,3.9,1.5s1.5,2.3,1.5,3.9
			c0,1.6-0.5,2.9-1.5,3.9s-2.3,1.5-3.8,1.5c-1,0-1.9-0.2-2.7-0.6s-1.5-1.1-2-1.9S442.5,858.4,442.5,857.2z M445.3,857.3
			c0,1,0.2,1.8,0.7,2.4s1.1,0.8,1.8,0.8s1.3-0.3,1.8-0.8s0.7-1.3,0.7-2.4c0-1-0.2-1.8-0.7-2.3s-1.1-0.8-1.8-0.8s-1.3,0.3-1.8,0.8
			S445.3,856.3,445.3,857.3z"/>
		<path class="st6" d="M457.4,855.3l-2.5-0.4c0.3-1,0.8-1.7,1.4-2.2s1.7-0.7,3-0.7c1.2,0,2.1,0.1,2.7,0.4s1,0.7,1.3,1.1
			s0.4,1.3,0.4,2.5l0,3.2c0,0.9,0,1.6,0.1,2s0.3,0.9,0.5,1.4h-2.7c-0.1-0.2-0.2-0.5-0.3-0.8c0-0.2-0.1-0.3-0.1-0.3
			c-0.5,0.5-1,0.8-1.5,1s-1.1,0.3-1.7,0.3c-1.1,0-1.9-0.3-2.5-0.9s-0.9-1.3-0.9-2.2c0-0.6,0.1-1.1,0.4-1.6s0.7-0.8,1.2-1.1
			s1.2-0.5,2.2-0.6c1.3-0.2,2.2-0.5,2.7-0.7v-0.3c0-0.5-0.1-0.9-0.4-1.1s-0.8-0.3-1.5-0.3c-0.5,0-0.9,0.1-1.1,0.3
			S457.6,854.8,457.4,855.3z M461.1,857.5c-0.4,0.1-0.9,0.3-1.7,0.4s-1.3,0.3-1.5,0.5c-0.4,0.3-0.5,0.6-0.5,1c0,0.4,0.1,0.7,0.4,1
			s0.7,0.4,1.1,0.4c0.5,0,1-0.2,1.4-0.5c0.3-0.2,0.6-0.5,0.7-0.9c0.1-0.2,0.1-0.7,0.1-1.3V857.5z"/>
		<path class="st6" d="M469.1,862.5h-2.7v-10.4h2.5v1.5c0.4-0.7,0.8-1.2,1.2-1.4c0.3-0.2,0.7-0.3,1.2-0.3c0.6,0,1.2,0.2,1.8,0.5
			l-0.8,2.4c-0.5-0.3-0.9-0.4-1.3-0.4c-0.4,0-0.7,0.1-1,0.3s-0.5,0.6-0.6,1.1s-0.2,1.7-0.2,3.5V862.5z"/>
		<path class="st6" d="M483.8,862.5h-2.5V861c-0.4,0.6-0.9,1-1.5,1.3s-1.2,0.4-1.7,0.4c-1.2,0-2.2-0.5-3.1-1.4s-1.3-2.3-1.3-4
			c0-1.8,0.4-3.1,1.2-4s1.9-1.4,3.1-1.4c1.2,0,2.2,0.5,3,1.4v-5.2h2.7V862.5z M476.4,857.1c0,1.1,0.2,1.9,0.5,2.4
			c0.4,0.7,1.1,1.1,1.9,1.1c0.6,0,1.2-0.3,1.6-0.8s0.7-1.3,0.7-2.4c0-1.2-0.2-2-0.6-2.6s-1-0.8-1.7-0.8c-0.7,0-1.2,0.3-1.6,0.8
			S476.4,856.1,476.4,857.1z"/>
		<path class="st6" d="M489.1,862.5h-2.7v-10.4h2.5v1.5c0.4-0.7,0.8-1.2,1.2-1.4s0.7-0.3,1.2-0.3c0.6,0,1.2,0.2,1.8,0.5l-0.8,2.4
			c-0.5-0.3-0.9-0.4-1.3-0.4c-0.4,0-0.7,0.1-1,0.3s-0.5,0.6-0.6,1.1s-0.2,1.7-0.2,3.5V862.5z"/>
		<path class="st6" d="M493.6,857.2c0-0.9,0.2-1.8,0.7-2.6s1.1-1.5,1.9-2s1.7-0.7,2.8-0.7c1.6,0,2.9,0.5,3.9,1.5s1.5,2.3,1.5,3.9
			c0,1.6-0.5,2.9-1.5,3.9s-2.3,1.5-3.8,1.5c-1,0-1.9-0.2-2.7-0.6s-1.5-1.1-2-1.9S493.6,858.4,493.6,857.2z M496.4,857.3
			c0,1,0.2,1.8,0.7,2.4s1.1,0.8,1.8,0.8s1.3-0.3,1.8-0.8s0.7-1.3,0.7-2.4c0-1-0.2-1.8-0.7-2.3s-1.1-0.8-1.8-0.8s-1.3,0.3-1.8,0.8
			S496.4,856.3,496.4,857.3z"/>
		<path class="st6" d="M505.8,857.2c0-0.9,0.2-1.8,0.7-2.6s1.1-1.5,1.9-2s1.7-0.7,2.8-0.7c1.6,0,2.9,0.5,3.9,1.5s1.5,2.3,1.5,3.9
			c0,1.6-0.5,2.9-1.5,3.9s-2.3,1.5-3.8,1.5c-1,0-1.9-0.2-2.7-0.6s-1.5-1.1-2-1.9S505.8,858.4,505.8,857.2z M508.6,857.3
			c0,1,0.2,1.8,0.7,2.4s1.1,0.8,1.8,0.8s1.3-0.3,1.8-0.8s0.7-1.3,0.7-2.4c0-1-0.2-1.8-0.7-2.3s-1.1-0.8-1.8-0.8s-1.3,0.3-1.8,0.8
			S508.6,856.3,508.6,857.3z"/>
		<path class="st6" d="M518.5,852.2h2.5v1.4c0.9-1.1,2-1.7,3.2-1.7c0.7,0,1.2,0.1,1.7,0.4s0.9,0.7,1.2,1.2c0.5-0.6,0.9-1,1.5-1.2
			s1.1-0.4,1.7-0.4c0.8,0,1.4,0.2,1.9,0.5s0.9,0.8,1.2,1.4c0.2,0.4,0.3,1.2,0.3,2.1v6.6H531v-5.9c0-1-0.1-1.7-0.3-2
			c-0.3-0.4-0.6-0.6-1.2-0.6c-0.4,0-0.7,0.1-1.1,0.4s-0.6,0.6-0.7,1s-0.2,1.2-0.2,2.1v5h-2.7v-5.7c0-1,0-1.7-0.1-2s-0.2-0.5-0.5-0.7
			s-0.5-0.2-0.8-0.2c-0.4,0-0.8,0.1-1.1,0.3s-0.6,0.6-0.7,1s-0.2,1.1-0.2,2.1v5h-2.7V852.2z"/>
	</g>
	<g class="st19">
		<path class="st6" d="M752.2,862.5v-14.3h2.9v5.6h5.7v-5.6h2.9v14.3h-2.9v-6.3h-5.7v6.3H752.2z"/>
		<path class="st6" d="M773.4,862.5V861c-0.4,0.6-0.9,1-1.5,1.3s-1.3,0.5-1.9,0.5c-0.7,0-1.3-0.2-1.9-0.5c-0.6-0.3-1-0.7-1.2-1.3
			c-0.2-0.6-0.4-1.3-0.4-2.3v-6.6h2.7v4.8c0,1.5,0.1,2.4,0.2,2.7c0.1,0.3,0.3,0.6,0.6,0.8c0.3,0.2,0.6,0.3,1,0.3
			c0.5,0,0.9-0.1,1.3-0.4s0.6-0.6,0.8-1s0.2-1.3,0.2-2.8v-4.4h2.7v10.4H773.4z"/>
		<path class="st6" d="M784.8,859.2l2.7,0.5c-0.4,1-0.9,1.8-1.7,2.3c-0.8,0.5-1.7,0.8-2.8,0.8c-1.8,0-3.1-0.6-4-1.8
			c-0.7-0.9-1-2.1-1-3.6c0-1.7,0.4-3.1,1.3-4s2-1.5,3.4-1.5c1.5,0,2.8,0.5,3.7,1.5c0.9,1,1.3,2.6,1.3,4.7h-6.9
			c0,0.8,0.2,1.4,0.7,1.9c0.4,0.5,1,0.7,1.6,0.7c0.4,0,0.8-0.1,1.1-0.4S784.7,859.7,784.8,859.2z M785,856.5c0-0.8-0.2-1.4-0.6-1.8
			s-0.9-0.6-1.4-0.6c-0.6,0-1.1,0.2-1.5,0.7s-0.6,1-0.6,1.8H785z"/>
	</g>
	<g class="st19">
		<path class="st6" d="M731,1185.7v-11.9h-4.2v-2.4h11.4v2.4h-4.2v11.9H731z"/>
	</g>
	<g class="st19">
		<path class="st6" d="M744.5,1182.4l2.7,0.5c-0.4,1-0.9,1.8-1.7,2.3s-1.7,0.8-2.8,0.8c-1.8,0-3.1-0.6-4-1.8c-0.7-0.9-1-2.1-1-3.6
			c0-1.7,0.4-3.1,1.3-4s2-1.5,3.4-1.5c1.5,0,2.8,0.5,3.7,1.5s1.3,2.6,1.3,4.7h-6.9c0,0.8,0.2,1.4,0.7,1.9s1,0.7,1.6,0.7
			c0.4,0,0.8-0.1,1.1-0.4S744.4,1182.9,744.5,1182.4z M744.7,1179.6c0-0.8-0.2-1.4-0.6-1.8s-0.9-0.6-1.4-0.6c-0.6,0-1.1,0.2-1.5,0.7
			s-0.6,1-0.6,1.8H744.7z"/>
		<path class="st6" d="M751.7,1178.5l-2.5-0.4c0.3-1,0.8-1.7,1.4-2.2s1.7-0.7,3-0.7c1.2,0,2.1,0.1,2.7,0.4s1,0.7,1.3,1.1
			s0.4,1.3,0.4,2.5l0,3.2c0,0.9,0,1.6,0.1,2s0.3,0.9,0.5,1.4h-2.7c-0.1-0.2-0.2-0.5-0.3-0.8c0-0.2-0.1-0.3-0.1-0.3
			c-0.5,0.5-1,0.8-1.5,1s-1.1,0.3-1.7,0.3c-1.1,0-1.9-0.3-2.5-0.9s-0.9-1.3-0.9-2.2c0-0.6,0.1-1.1,0.4-1.6s0.7-0.8,1.2-1.1
			s1.2-0.5,2.2-0.6c1.3-0.2,2.2-0.5,2.7-0.7v-0.3c0-0.5-0.1-0.9-0.4-1.1s-0.8-0.3-1.5-0.3c-0.5,0-0.9,0.1-1.1,0.3
			S751.9,1178,751.7,1178.5z M755.4,1180.7c-0.4,0.1-0.9,0.3-1.7,0.4s-1.3,0.3-1.5,0.5c-0.4,0.3-0.5,0.6-0.5,1c0,0.4,0.1,0.7,0.4,1
			s0.7,0.4,1.1,0.4c0.5,0,1-0.2,1.4-0.5c0.3-0.2,0.6-0.5,0.7-0.9c0.1-0.2,0.1-0.7,0.1-1.3V1180.7z"/>
		<path class="st6" d="M760.6,1175.3h2.5v1.4c0.9-1.1,2-1.7,3.2-1.7c0.7,0,1.2,0.1,1.7,0.4s0.9,0.7,1.2,1.2c0.5-0.6,0.9-1,1.5-1.2
			s1.1-0.4,1.7-0.4c0.8,0,1.4,0.2,1.9,0.5s0.9,0.8,1.2,1.4c0.2,0.4,0.3,1.2,0.3,2.1v6.6h-2.7v-5.9c0-1-0.1-1.7-0.3-2
			c-0.3-0.4-0.6-0.6-1.2-0.6c-0.4,0-0.7,0.1-1.1,0.4s-0.6,0.6-0.7,1s-0.2,1.2-0.2,2.1v5h-2.7v-5.7c0-1,0-1.7-0.1-2s-0.2-0.5-0.5-0.7
			s-0.5-0.2-0.8-0.2c-0.4,0-0.8,0.1-1.1,0.3s-0.6,0.6-0.7,1s-0.2,1.1-0.2,2.1v5h-2.7V1175.3z"/>
		<path class="st6" d="M781.2,1185.7h-2.7v-10.4h2.5v1.5c0.4-0.7,0.8-1.2,1.2-1.4s0.7-0.3,1.2-0.3c0.6,0,1.2,0.2,1.8,0.5l-0.8,2.4
			c-0.5-0.3-0.9-0.4-1.3-0.4c-0.4,0-0.7,0.1-1,0.3s-0.5,0.6-0.6,1.1s-0.2,1.7-0.2,3.5V1185.7z"/>
		<path class="st6" d="M785.7,1180.3c0-0.9,0.2-1.8,0.7-2.6s1.1-1.5,1.9-2s1.7-0.7,2.8-0.7c1.6,0,2.9,0.5,3.9,1.5s1.5,2.3,1.5,3.9
			c0,1.6-0.5,2.9-1.5,3.9s-2.3,1.5-3.8,1.5c-1,0-1.9-0.2-2.7-0.6s-1.5-1.1-2-1.9S785.7,1181.5,785.7,1180.3z M788.5,1180.5
			c0,1,0.2,1.8,0.7,2.4s1.1,0.8,1.8,0.8s1.3-0.3,1.8-0.8s0.7-1.3,0.7-2.4c0-1-0.2-1.8-0.7-2.3s-1.1-0.8-1.8-0.8s-1.3,0.3-1.8,0.8
			S788.5,1179.5,788.5,1180.5z"/>
		<path class="st6" d="M797.9,1180.3c0-0.9,0.2-1.8,0.7-2.6s1.1-1.5,1.9-2s1.7-0.7,2.8-0.7c1.6,0,2.9,0.5,3.9,1.5s1.5,2.3,1.5,3.9
			c0,1.6-0.5,2.9-1.5,3.9s-2.3,1.5-3.8,1.5c-1,0-1.9-0.2-2.7-0.6s-1.5-1.1-2-1.9S797.9,1181.5,797.9,1180.3z M800.7,1180.5
			c0,1,0.2,1.8,0.7,2.4s1.1,0.8,1.8,0.8s1.3-0.3,1.8-0.8s0.7-1.3,0.7-2.4c0-1-0.2-1.8-0.7-2.3s-1.1-0.8-1.8-0.8s-1.3,0.3-1.8,0.8
			S800.7,1179.5,800.7,1180.5z"/>
		<path class="st6" d="M810.6,1175.3h2.5v1.4c0.9-1.1,2-1.7,3.2-1.7c0.7,0,1.2,0.1,1.7,0.4s0.9,0.7,1.2,1.2c0.5-0.6,0.9-1,1.5-1.2
			s1.1-0.4,1.7-0.4c0.8,0,1.4,0.2,1.9,0.5s0.9,0.8,1.2,1.4c0.2,0.4,0.3,1.2,0.3,2.1v6.6h-2.7v-5.9c0-1-0.1-1.7-0.3-2
			c-0.3-0.4-0.6-0.6-1.2-0.6c-0.4,0-0.7,0.1-1.1,0.4s-0.6,0.6-0.7,1s-0.2,1.2-0.2,2.1v5h-2.7v-5.7c0-1,0-1.7-0.1-2s-0.2-0.5-0.5-0.7
			s-0.5-0.2-0.8-0.2c-0.4,0-0.8,0.1-1.1,0.3s-0.6,0.6-0.7,1s-0.2,1.1-0.2,2.1v5h-2.7V1175.3z"/>
	</g>
	<g class="st19">
		<path class="st6" d="M1042.1,858.3l2.8-0.3c0.2,0.9,0.5,1.6,1,2.1s1.2,0.7,2.1,0.7c0.9,0,1.6-0.2,2.1-0.6c0.5-0.4,0.7-0.9,0.7-1.4
			c0-0.3-0.1-0.6-0.3-0.9c-0.2-0.2-0.5-0.4-1-0.6c-0.3-0.1-1.1-0.3-2.3-0.6c-1.5-0.4-2.6-0.9-3.3-1.4c-0.9-0.8-1.3-1.7-1.3-2.9
			c0-0.7,0.2-1.4,0.6-2c0.4-0.6,1-1.1,1.8-1.5c0.8-0.3,1.7-0.5,2.8-0.5c1.8,0,3.1,0.4,4.1,1.2s1.4,1.8,1.4,3.2l-2.9,0.1
			c-0.1-0.7-0.4-1.3-0.8-1.6c-0.4-0.3-1-0.5-1.8-0.5c-0.8,0-1.5,0.2-2,0.5c-0.3,0.2-0.5,0.5-0.5,0.9c0,0.3,0.1,0.6,0.4,0.9
			c0.4,0.3,1.2,0.6,2.7,1s2.4,0.7,3.1,1s1.2,0.8,1.6,1.5s0.6,1.4,0.6,2.3c0,0.8-0.2,1.6-0.7,2.3c-0.5,0.7-1.1,1.2-1.9,1.6
			c-0.8,0.3-1.9,0.5-3.1,0.5c-1.8,0-3.2-0.4-4.2-1.3C1042.9,861.1,1042.3,859.9,1042.1,858.3z"/>
		<path class="st6" d="M1058.2,855.8l-2.5-0.4c0.3-1,0.8-1.7,1.4-2.2s1.7-0.7,3-0.7c1.2,0,2.1,0.1,2.7,0.4c0.6,0.3,1,0.7,1.3,1.1
			s0.4,1.3,0.4,2.5l0,3.2c0,0.9,0,1.6,0.1,2s0.3,0.9,0.5,1.4h-2.7c-0.1-0.2-0.2-0.5-0.3-0.8c0-0.2-0.1-0.3-0.1-0.3
			c-0.5,0.5-1,0.8-1.5,1c-0.5,0.2-1.1,0.3-1.7,0.3c-1.1,0-1.9-0.3-2.5-0.9s-0.9-1.3-0.9-2.2c0-0.6,0.1-1.1,0.4-1.6
			c0.3-0.5,0.7-0.8,1.2-1.1c0.5-0.2,1.2-0.5,2.2-0.6c1.3-0.2,2.2-0.5,2.7-0.7v-0.3c0-0.5-0.1-0.9-0.4-1.1c-0.3-0.2-0.8-0.3-1.5-0.3
			c-0.5,0-0.9,0.1-1.1,0.3S1058.4,855.3,1058.2,855.8z M1061.9,858c-0.4,0.1-0.9,0.3-1.7,0.4s-1.3,0.3-1.5,0.5
			c-0.4,0.3-0.5,0.6-0.5,1c0,0.4,0.1,0.7,0.4,1c0.3,0.3,0.7,0.4,1.1,0.4c0.5,0,1-0.2,1.4-0.5c0.3-0.2,0.6-0.5,0.7-0.9
			c0.1-0.2,0.1-0.7,0.1-1.3V858z"/>
		<path class="st6" d="M1067.3,851.2v-2.5h2.7v2.5H1067.3z M1067.3,863v-10.4h2.7V863H1067.3z"/>
		<path class="st6" d="M1072.6,863.7l3.1,0.4c0.1,0.4,0.2,0.6,0.4,0.8c0.3,0.2,0.7,0.3,1.2,0.3c0.7,0,1.3-0.1,1.6-0.3
			c0.2-0.1,0.4-0.4,0.5-0.7c0.1-0.2,0.1-0.6,0.1-1.3v-1.5c-0.8,1.1-1.9,1.7-3.1,1.7c-1.4,0-2.5-0.6-3.3-1.8c-0.6-0.9-1-2.1-1-3.5
			c0-1.7,0.4-3.1,1.3-4c0.8-0.9,1.9-1.4,3.1-1.4c1.3,0,2.3,0.6,3.2,1.7v-1.5h2.6v9.3c0,1.2-0.1,2.1-0.3,2.7
			c-0.2,0.6-0.5,1.1-0.8,1.4c-0.4,0.3-0.9,0.6-1.5,0.8c-0.6,0.2-1.4,0.3-2.3,0.3c-1.8,0-3-0.3-3.7-0.9c-0.7-0.6-1.1-1.4-1.1-2.3
			C1072.6,863.9,1072.6,863.8,1072.6,863.7z M1075,857.6c0,1.1,0.2,1.9,0.6,2.4c0.4,0.5,1,0.8,1.6,0.8c0.7,0,1.2-0.3,1.7-0.8
			c0.5-0.5,0.7-1.3,0.7-2.3c0-1.1-0.2-1.9-0.7-2.4c-0.4-0.5-1-0.8-1.7-0.8c-0.7,0-1.2,0.3-1.6,0.8
			C1075.3,855.8,1075,856.5,1075,857.6z"/>
		<path class="st6" d="M1084.4,857.7c0-0.9,0.2-1.8,0.7-2.6s1.1-1.5,1.9-2s1.7-0.7,2.8-0.7c1.6,0,2.9,0.5,3.9,1.5s1.5,2.3,1.5,3.9
			c0,1.6-0.5,2.9-1.5,3.9s-2.3,1.5-3.8,1.5c-1,0-1.9-0.2-2.7-0.6s-1.5-1.1-2-1.9S1084.4,858.8,1084.4,857.7z M1087.2,857.8
			c0,1,0.2,1.8,0.7,2.4s1.1,0.8,1.8,0.8s1.3-0.3,1.8-0.8s0.7-1.3,0.7-2.4c0-1-0.2-1.8-0.7-2.3s-1.1-0.8-1.8-0.8s-1.3,0.3-1.8,0.8
			S1087.2,856.8,1087.2,857.8z"/>
		<path class="st6" d="M1106.7,863h-2.7v-5.3c0-1.1-0.1-1.8-0.2-2.2s-0.3-0.6-0.6-0.8s-0.6-0.3-1-0.3c-0.5,0-0.9,0.1-1.3,0.4
			s-0.6,0.6-0.8,1s-0.2,1.2-0.2,2.4v4.7h-2.7v-10.4h2.5v1.5c0.9-1.2,2-1.8,3.4-1.8c0.6,0,1.2,0.1,1.7,0.3s0.9,0.5,1.1,0.8
			s0.4,0.7,0.5,1.2s0.2,1,0.2,1.8V863z"/>
	</g>
</g>
<g id="outline">
	<rect x="88.7" y="98" class="st24" width="1535.8" height="1705.5"/>
	<polyline class="st24" points="1624.5,242.4 998.1,242.4 998.1,204.4 752,204.4 752,461.4 290.6,461.4 290.6,1803.5 	"/>
	<polyline class="st25" points="998.1,242.4 998.1,532.1 837.2,532.1 1122.7,532.1 1090,532.1 1090,576.6 	"/>
	<polyline class="st25" points="1210.5,242.4 1210.5,529.7 1187.1,529.7 1238.6,529.7 	"/>
	<polyline class="st25" points="1310,529.7 1624.5,529.7 1624.5,877.3 1318.2,877.3 1318.2,745.1 	"/>
	<line class="st25" x1="1320.5" y1="529.7" x2="1320.5" y2="667.8"/>
	<polyline class="st25" points="1027.9,703.5 1218.7,703.5 1218.7,1052.9 1218.7,1022.4 290.6,1022.4 936.7,1022.4 936.7,703.5 
		905.1,703.5 965.9,703.5 	"/>
	<line class="st25" x1="459.2" y1="703.5" x2="837.2" y2="703.5"/>
	<line class="st25" x1="390.1" y1="703.5" x2="290.6" y2="703.5"/>
	<polyline class="st25" points="641.7,703.5 641.7,1022.4 921.4,1022.4 921.4,1293.9 908.6,1293.9 1212.8,1293.9 1212.8,1185.1 	"/>
	<polyline class="st25" points="581,1293.9 830.9,1293.9 641.7,1293.9 641.7,1022.4 	"/>
	<polyline class="st25" points="793.2,529.7 754.8,529.7 754.8,461.4 	"/>
	<line class="st25" x1="1091.7" y1="650.3" x2="1091.7" y2="703.5"/>
</g>
</svg>
