<svg width="24" height="24" viewBox="0 0 24 24" fill="none" xmlns="http://www.w3.org/2000/svg">
<path fill-rule="evenodd" clip-rule="evenodd" d="M21 0H3C2.44772 0 2 0.447715 2 1V23C2 23.5523 2.44772 24 3 24H21C21.5523 24 22 23.5523 22 23V1C22 0.447715 21.5523 0 21 0ZM13.028 18.724H10.963V9H13.028V18.724ZM12.857 7.259C12.6267 7.46988 12.3207 7.57816 12.009 7.559C11.6916 7.58023 11.3792 7.472 11.143 7.259C10.934 7.03444 10.8256 6.7343 10.843 6.428C10.8217 6.11455 10.9302 5.80613 11.143 5.575C11.3796 5.3627 11.6918 5.25458 12.009 5.275C12.3206 5.25653 12.6264 5.36472 12.857 5.575C13.0698 5.80613 13.1783 6.11455 13.157 6.428C13.1744 6.7343 13.066 7.03444 12.857 7.259Z" fill="#1E32E6"/>
</svg>
