<svg width="24" height="24" viewBox="0 0 24 24" fill="none" xmlns="http://www.w3.org/2000/svg">
<g id="S-ban">
<path id="Vector" fill-rule="evenodd" clip-rule="evenodd" d="M12 0C5.37258 0 0 5.37258 0 12C0 18.6274 5.37258 24 12 24C18.6274 24 24 18.6274 24 12C23.9928 5.37555 18.6244 0.00716485 12 0ZM12 3C13.8673 3.00008 15.6878 3.58476 17.206 4.672L4.672 17.206C2.71561 14.4647 2.45631 10.8595 4.00026 7.86646C5.5442 4.87337 8.63217 2.99488 12 3ZM12 21C10.1327 20.9999 8.31218 20.4152 6.794 19.328L19.328 6.794C21.2844 9.53532 21.5437 13.1405 19.9997 16.1335C18.4558 19.1266 15.3678 21.0051 12 21Z" fill="#A41523"/>
</g>
</svg>
