<svg width="24" height="22" viewBox="0 0 24 22" fill="none" xmlns="http://www.w3.org/2000/svg">
<path fill-rule="evenodd" clip-rule="evenodd" d="M23.865 19.9812L12.865 0.981168C12.672 0.692129 12.3475 0.518555 12 0.518555C11.6524 0.518555 11.3279 0.692129 11.135 0.981168L0.134951 19.9812C-0.04359 20.2904 -0.0436878 20.6714 0.134695 20.9807C0.313078 21.2901 0.642869 21.4808 0.999951 21.4812H23C23.357 21.4808 23.6868 21.2901 23.8652 20.9807C24.0436 20.6714 24.0435 20.2904 23.865 19.9812ZM13.206 7.48117L12.733 14.0812H11.267L10.821 7.48117H13.206ZM12 18.4812C11.1897 18.4812 10.533 17.8244 10.533 17.0142C10.533 16.204 11.1897 15.5472 12 15.5472C12.8102 15.5472 13.467 16.204 13.467 17.0142C13.467 17.8244 12.8102 18.4812 12 18.4812Z" fill="#1B1B19"/>
</svg>
