<svg id="Level_28" data-name="Level 28" xmlns="http://www.w3.org/2000/svg" viewBox="0 0 1178.273 444.97"><defs><style>.cls-1,.cls-28{fill:#4196b1}.cls-2{fill:#a8e0e5}.cls-3{fill:#99b8bf;opacity:.7}.cls-12,.cls-21,.cls-25,.cls-28,.cls-29,.cls-3,.cls-36,.cls-37,.cls-38,.cls-39,.cls-42,.cls-43,.cls-49,.cls-5,.cls-8{isolation:isolate}.cls-4{fill:#8eccce}.cls-5,.cls-8{fill:#030303}.cls-5{opacity:.05}.cls-6{fill:#b8bfc1}.cls-37,.cls-38,.cls-39,.cls-7{fill:#fff}.cls-8{opacity:.1}.cls-9{fill:#596068}.cls-10{fill:#9baeb7}.cls-11,.cls-48{fill:#7a8e93}.cls-12{fill:#010101}.cls-12,.cls-21{opacity:.15}.cls-13,.cls-14,.cls-29,.cls-32,.cls-40,.cls-44,.cls-45,.cls-46,.cls-47{fill:none}.cls-13,.cls-14,.cls-44,.cls-45,.cls-46,.cls-47,.cls-48{stroke:#7a8e93}.cls-13,.cls-14,.cls-23,.cls-24,.cls-26,.cls-27,.cls-29,.cls-30,.cls-31{stroke-linecap:round}.cls-13,.cls-14,.cls-17,.cls-18,.cls-19,.cls-20,.cls-32,.cls-40,.cls-44,.cls-45,.cls-46,.cls-47,.cls-48{stroke-miterlimit:10}.cls-13{stroke-width:1.022px}.cls-14{stroke-width:1.059px}.cls-15{fill:#747676}.cls-16{fill:#5d5f5f}.cls-17,.cls-18,.cls-19,.cls-20{fill:#94d1d3;stroke:#8ac1c1}.cls-17,.cls-23,.cls-24,.cls-26,.cls-32{stroke-width:.5px}.cls-18{stroke-width:.463px}.cls-19{stroke-width:.425px}.cls-20{stroke-width:.357px}.cls-21,.cls-22{fill:#0d5577}.cls-23{fill:#83d8ef}.cls-23,.cls-26,.cls-32{stroke:#53c5f1}.cls-23,.cls-24,.cls-26,.cls-27,.cls-29,.cls-30,.cls-31{stroke-linejoin:round}.cls-24,.cls-30,.cls-35{fill:#4e9fb9}.cls-24,.cls-30,.cls-31{stroke:#4a90a0}.cls-25{fill:#53c5f1;opacity:.43}.cls-26{fill:#7dcfe2}.cls-27{fill:#4fafc6;stroke:#5798a3}.cls-27,.cls-46{stroke-width:.4px}.cls-28,.cls-29{opacity:.4}.cls-29{stroke:#4196b1}.cls-30,.cls-31{stroke-width:.503px}.cls-31{fill:#55abbf}.cls-33{fill:#4b97a3}.cls-34{fill:#4e9caf}.cls-36{fill:#575757;opacity:.74}.cls-37,.cls-38,.cls-39{font-size:7.5px;font-family:Arial-BoldMT,Arial;font-weight:700}.cls-38{letter-spacing:-.055em}.cls-39{letter-spacing:-.074em}.cls-40{stroke:#fff;stroke-width:2px}.cls-41{fill:#ebf2f2}.cls-42,.cls-43,.cls-49{font-size:4.821px;fill:#646b6d;font-family:ArialMT,Arial}.cls-43{letter-spacing:-.164em}.cls-44{stroke-width:.399px}.cls-45{stroke-width:.397px}.cls-47{stroke-width:.404px}.cls-48{stroke-width:.171px}.cls-49{letter-spacing:-.018em}</style></defs><title>Level 28 (1)</title><g id="BKR"><path class="cls-1" d="M1034.48 392.062H133.637a44.4 44.4 0 0 1-8.552-.832l-2.78-.546a44.36 44.36 0 0 1-13.352-4.949c-29.562-16.776-38.519-52.556-47.509-82.8-11.386-38.3-10.887-79.95-4.8-119.154a310.866 310.866 0 0 1 8.684-39.336c7.528-25.821 19.163-56.867 44.47-70.428 11.275-6.044 22.349-6.365 34.771-6.365h900.063a44.39 44.39 0 0 1 8.59.839l2.215.437a44.4 44.4 0 0 1 14.354 5.549l.323.2a44.33 44.33 0 0 1 9.759 7.985l9.87 10.756a44.343 44.343 0 0 1 6.266 8.76l7.786 14.278a44.465 44.465 0 0 1 3.424 8.1l10.98 35.39a44.244 44.244 0 0 1 1.493 6.509l5.651 37.324a44.375 44.375 0 0 1 .5 6.644v20.338c0 7.463.215 15.09-.355 22.6-.583 7.674-1.842 15.274-3.031 22.871-.99 6.32-1.944 12.819-3.236 19.145s-3.469 12.449-5.388 18.6l-6 19.216a89.931 89.931 0 0 1-7.835 17.08c-1.536 2.735-3.107 5.45-4.669 8.169-3.817 6.648-9.626 12.215-14.739 17.949a44.337 44.337 0 0 1-10.568 8.685l-.393.232a44.341 44.341 0 0 1-13.7 5.269l-2.343.477a44.345 44.345 0 0 1-8.332.89z"/><path class="cls-2" d="M1031.63 378.517H133.991a44.07 44.07 0 0 1-8.521-.832l-2.77-.545a44.121 44.121 0 0 1-13.3-4.95c-29.463-16.773-38.385-52.553-47.344-82.79-11.345-38.3-10.847-79.95-4.783-119.154a311.811 311.811 0 0 1 8.653-39.331c7.5-25.821 19.1-56.867 44.311-70.43 11.235-6.049 22.27-6.37 34.647-6.37h896.858a44.082 44.082 0 0 1 8.559.839l2.208.437a44.145 44.145 0 0 1 14.3 5.551l.322.2a44.235 44.235 0 0 1 9.725 7.986l9.834 10.755a44.367 44.367 0 0 1 6.244 8.76l7.758 14.278a44.477 44.477 0 0 1 3.412 8.1l10.941 35.39a44.616 44.616 0 0 1 1.488 6.509l5.63 37.325a44.362 44.362 0 0 1 .5 6.643v20.338c0 7.464.215 15.09-.353 22.6-.581 7.674-1.835 15.274-3.021 22.871-.986 6.32-1.936 12.819-3.224 19.145s-3.456 12.449-5.368 18.6l-5.976 19.216a90.153 90.153 0 0 1-7.807 17.08c-1.531 2.735-3.1 5.45-4.652 8.169-3.8 6.649-9.593 12.215-14.688 17.949a44.176 44.176 0 0 1-10.53 8.685l-.391.232a44.141 44.141 0 0 1-13.653 5.271l-2.334.477a44 44 0 0 1-8.3.89z"/><g id="Blanks"><path class="cls-3" d="M890.331 278.646h37.332v74.399h14.417v20.211l-51.749 1.076v-95.686zM246.815 354.572h-8.502v19.886h54.915v-95.646h-46.123l-.29 75.76zM332.267 212.625h126.026v37.247H395.78v-26.247h-63.73l.217-11zM846.429 214.409H723.404v35.248h62.513V225.41h60.73l-.218-11.001z"/></g><g id="Highlights"><path class="cls-4" d="M293.228 278.812h45.957v95.646h-45.957zM493.927 208.917h190.494v64.326H493.927zM492.316 316.595H686.64v60.126H492.316zM339.316 320.714h60.525v52.843h-60.525zM788.518 313.773h47.836v61.616h-47.836zM805.876 225.932h35.462v30.808h-35.462zM868.608 185.511h79.077v25.307h-79.077z"/><path class="cls-4" d="M381.21 278.812h26.629v42.219H381.21zM339.229 223.625h35.725v33.068h-35.725z"/><path class="cls-4" d="M407.84 279.45h49.081v97.008H407.84l-8-2.901v-52.526l8-.237V279.45zM788.518 374.332h-65.979v-95.686h68.979v4.921l-3 .726v90.039zM836.354 278.646h53.977v94.61h-53.977z"/></g></g><g id="area-28-closed"><g id="Layer_4" data-name="Layer 4"><circle class="cls-5" cx="980.671" cy="300.201" r="8.557"/><circle class="cls-6" cx="980.139" cy="299.331" r="8.557"/><circle class="cls-7" cx="980.139" cy="298.496" r="8.557"/><path class="cls-8" d="M973.7 291.955a1.459 1.459 0 0 1-2.052-.215l-2.094-2.591c-.824-1.02-1.431-1.872-.411-2.695l1.637-1.319a2.377 2.377 0 0 1 3.338.355l2.093 2.592a1.463 1.463 0 0 1-.217 2.054l-2.287 1.822z"/><path class="cls-9" d="M973.552 291.771a1.462 1.462 0 0 1-2.053-.216l-2.093-2.592a2.375 2.375 0 0 1 .353-3.339l.869-.677a2.373 2.373 0 0 1 3.337.356l2.094 2.592a1.461 1.461 0 0 1-.217 2.053l-2.287 1.823z"/><path class="cls-10" d="M973.543 291.575a1.461 1.461 0 0 1-2.06-.14l-2.192-2.518a2.376 2.376 0 0 1 .233-3.347l.812-.732a2.375 2.375 0 0 1 3.347.232l2.188 2.513a1.459 1.459 0 0 1-.139 2.056l-2.194 1.932z"/><path class="cls-8" d="M973.8 285.139a9.611 9.611 0 0 0-4.559 3.66 2.373 2.373 0 0 1 .354-3.336l.867-.672a2.373 2.373 0 0 1 3.335.357"/><path class="cls-11" d="M973.8 285.138a9.613 9.613 0 0 0-4.56 3.66 2.37 2.37 0 0 1 .354-3.333l.868-.678a2.374 2.374 0 0 1 3.337.355"/><path class="cls-8" d="M970.942 300.833a1.459 1.459 0 0 1-1.464 1.454l-3.332-.015c-1.311-.006-2.354-.074-2.348-1.384l.013-2.1a2.373 2.373 0 0 1 2.385-2.362l3.331.016a1.462 1.462 0 0 1 1.455 1.465l-.033 2.925z"/><path class="cls-9" d="M970.7 300.834a1.463 1.463 0 0 1-1.466 1.455l-3.332-.016a2.375 2.375 0 0 1-2.364-2.384l.025-1.1a2.372 2.372 0 0 1 2.383-2.361l3.332.016a1.461 1.461 0 0 1 1.454 1.466l-.033 2.924z"/><path class="cls-10" d="M970.546 300.717a1.459 1.459 0 0 1-1.409 1.507l-3.33.1a2.373 2.373 0 0 1-2.446-2.3l-.055-1.092a2.374 2.374 0 0 1 2.3-2.447l3.33-.107h.006a1.46 1.46 0 0 1 1.506 1.41l.11 2.922z"/><path class="cls-8" d="M965.724 296.447a9.615 9.615 0 0 0-.046 5.847 2.372 2.372 0 0 1-2.361-2.383l.027-1.1a2.371 2.371 0 0 1 2.384-2.358"/><path class="cls-11" d="M965.722 296.448a9.615 9.615 0 0 0-.046 5.847 2.371 2.371 0 0 1-2.359-2.382l.023-1.1a2.374 2.374 0 0 1 2.385-2.361"/><path class="cls-8" d="M986.481 307.2a1.46 1.46 0 0 1 2 .508l1.7 2.867a2.374 2.374 0 0 1-.831 3.25l-.93.574a2.374 2.374 0 0 1-3.251-.83l-1.7-2.865a1.46 1.46 0 0 1 .51-2l2.506-1.507z"/><path class="cls-9" d="M986.426 306.939a1.459 1.459 0 0 1 2 .508l1.7 2.867a2.372 2.372 0 0 1-.83 3.249l-.931.575a2.374 2.374 0 0 1-3.25-.83l-1.7-2.865a1.458 1.458 0 0 1 .5-2l2.506-1.506z"/><path class="cls-10" d="M986.179 306.709a1.46 1.46 0 0 1 2 .509l1.7 2.867a2.374 2.374 0 0 1-.83 3.25l-.931.574a2.373 2.373 0 0 1-3.25-.83l-1.7-2.865a1.459 1.459 0 0 1 .509-2l2.506-1.507z"/><path class="cls-8" d="M984.764 312.993a9.616 9.616 0 0 0 5.144-2.78 2.371 2.371 0 0 1-.947 3.217l-.973.5a2.372 2.372 0 0 1-3.216-.95"/><path class="cls-11" d="M984.766 313a9.6 9.6 0 0 0 5.143-2.781 2.37 2.37 0 0 1-.947 3.215l-.976.511a2.374 2.374 0 0 1-3.219-.95"/><path class="cls-8" d="M990.181 297.205a1.46 1.46 0 0 1 1.387-1.529l3.329-.156a2.373 2.373 0 0 1 2.48 2.258l.072 1.091a2.375 2.375 0 0 1-2.258 2.481l-3.328.158h-.006a1.459 1.459 0 0 1-1.527-1.39l-.155-2.92z"/><path class="cls-9" d="M989.925 297.132a1.46 1.46 0 0 1 1.387-1.529l3.329-.156a2.373 2.373 0 0 1 2.48 2.258l.072 1.091a2.375 2.375 0 0 1-2.258 2.481l-3.328.158h-.007a1.46 1.46 0 0 1-1.527-1.388l-.155-2.92z"/><path class="cls-10" d="M989.607 297.242a1.459 1.459 0 0 1 1.384-1.525l3.328-.156a2.374 2.374 0 0 1 2.481 2.258l.071 1.091a2.374 2.374 0 0 1-2.258 2.482l-3.328.158a1.459 1.459 0 0 1-1.527-1.388l-.155-2.92z"/><path class="cls-8" d="M994.491 301.438a9.607 9.607 0 0 0-.044-5.847 2.372 2.372 0 0 1 2.4 2.344l-.01 1.1a2.372 2.372 0 0 1-2.342 2.4"/><path class="cls-11" d="M994.5 301.438a9.607 9.607 0 0 0-.044-5.847 2.37 2.37 0 0 1 2.395 2.345l-.006 1.1a2.375 2.375 0 0 1-2.349 2.4"/><path class="cls-8" d="M976.366 308.681a1.46 1.46 0 0 1 .474 2.008l-1.759 2.83a2.373 2.373 0 0 1-3.266.763l-.94-.56a2.373 2.373 0 0 1-.764-3.266l1.758-2.831v-.008a1.458 1.458 0 0 1 2.009-.47l2.493 1.528z"/><path class="cls-9" d="M976.572 308.511a1.46 1.46 0 0 1 .472 2.01l-1.759 2.83a2.373 2.373 0 0 1-3.266.763l-.939-.56a2.375 2.375 0 0 1-.764-3.267l1.757-2.831a1.459 1.459 0 0 1 2.009-.471l2.493 1.528z"/><path class="cls-10" d="M976.662 308.186a1.461 1.461 0 0 1 .472 2.01l-1.759 2.83a2.373 2.373 0 0 1-3.266.763l-.94-.56a2.375 2.375 0 0 1-.764-3.267l1.758-2.831a1.459 1.459 0 0 1 2.009-.471l2.493 1.528z"/><path class="cls-8" d="M970.434 309.832a9.616 9.616 0 0 0 4.841 3.28 2.373 2.373 0 0 1-3.292.643l-.9-.63a2.373 2.373 0 0 1-.642-3.292"/><path class="cls-11" d="M970.433 309.834a9.616 9.616 0 0 0 4.841 3.28 2.371 2.371 0 0 1-3.289.643l-.9-.63a2.374 2.374 0 0 1-.643-3.293"/><path class="cls-8" d="M983.465 289.954a1.46 1.46 0 0 1-.508-2l1.706-2.86c.672-1.126 1.261-1.99 2.386-1.318l1.8 1.08a2.374 2.374 0 0 1 .822 3.254l-1.708 2.861a1.464 1.464 0 0 1-2 .507l-2.5-1.516z"/><path class="cls-9" d="M983.585 289.748a1.461 1.461 0 0 1-.507-2l1.708-2.86a2.374 2.374 0 0 1 3.254-.824l.937.581a2.374 2.374 0 0 1 .82 3.255l-1.708 2.861a1.463 1.463 0 0 1-2 .507l-2.5-1.516z"/><path class="cls-10" d="M983.766 289.672a1.46 1.46 0 0 1-.582-1.98l1.6-2.921a2.373 2.373 0 0 1 3.22-.939l.968.509a2.373 2.373 0 0 1 .94 3.22l-1.6 2.922a1.459 1.459 0 0 1-1.979.58l-2.572-1.391z"/><path class="cls-8" d="M989.891 287.69a9.61 9.61 0 0 0-5.012-3.012 2.371 2.371 0 0 1 3.251-.822l.93.58a2.374 2.374 0 0 1 .82 3.253"/><path class="cls-11" d="M989.891 287.688a9.608 9.608 0 0 0-5.011-3.012 2.37 2.37 0 0 1 3.25-.82l.937.58a2.375 2.375 0 0 1 .821 3.254"/></g><g id="Layer_5" data-name="Layer 5"><g id="area-4-2-space_copy" data-name="area-4-2-space copy"><g id="details-16"><rect class="cls-5" x="972.24" y="339.046" width="46.911" height="18.658" rx="1.888"/><rect class="cls-6" x="972.24" y="338.01" width="46.911" height="18.658" rx="1.888"/></g><path class="cls-7" d="M1019.156 348.839v-9.833a1.641 1.641 0 0 0-1.641-1.64H973.88a1.64 1.64 0 0 0-1.64 1.64v15.377a1.641 1.641 0 0 0 1.64 1.641h43.629a1.641 1.641 0 0 0 1.641-1.641v-5.545"/><path class="cls-12" d="M1011.891 359.372a2.835 2.835 0 0 0-2.794 2.875l.119 1.943a3.8 3.8 0 0 0 3.946 3.412 3.8 3.8 0 0 0 3.906-3.459l.09-1.946v-.146a2.835 2.835 0 0 0-2.971-2.692l-2.146.013z"/><path class="cls-9" d="M1011.881 359.117a2.834 2.834 0 0 0-2.792 2.875l.118 1.943a3.8 3.8 0 0 0 3.946 3.411 3.8 3.8 0 0 0 3.906-3.457l.09-1.95v-.146a2.835 2.835 0 0 0-2.972-2.691l-2.146.015z"/><path class="cls-10" d="M1011.963 358.233a2.721 2.721 0 0 0-2.567 2.867l.109 1.947a3.62 3.62 0 0 0 3.627 3.414 3.621 3.621 0 0 0 3.589-3.457l.084-1.948v-.14a2.725 2.725 0 0 0-2.739-2.706l-1.974.013z"/><path class="cls-13" d="M1009.281 360.7l.18 2.348a3.619 3.619 0 0 0 3.628 3.408 3.618 3.618 0 0 0 3.588-3.456l.154-2.351"/><path class="cls-12" d="M1000.426 359.372a2.836 2.836 0 0 0-2.794 2.876l.119 1.943a3.8 3.8 0 0 0 3.946 3.412 3.8 3.8 0 0 0 3.906-3.459l.09-1.946v-.146a2.835 2.835 0 0 0-2.971-2.692l-2.146.013z"/><path class="cls-9" d="M1000.42 359.117a2.834 2.834 0 0 0-2.792 2.875l.119 1.943a3.8 3.8 0 0 0 3.946 3.411 3.8 3.8 0 0 0 3.9-3.457l.091-1.95v-.146a2.834 2.834 0 0 0-2.97-2.691l-2.146.016z"/><path class="cls-10" d="M1000.5 358.233a2.721 2.721 0 0 0-2.567 2.867l.109 1.947a3.62 3.62 0 0 0 3.627 3.414 3.621 3.621 0 0 0 3.589-3.457l.084-1.948v-.14a2.725 2.725 0 0 0-2.739-2.706l-1.974.013z"/><path class="cls-13" d="M997.82 360.7l.18 2.348a3.619 3.619 0 0 0 3.628 3.408 3.619 3.619 0 0 0 3.589-3.456l.153-2.351"/><path class="cls-12" d="M989.107 359.372a2.836 2.836 0 0 0-2.794 2.876l.119 1.943a3.8 3.8 0 0 0 3.946 3.412 3.8 3.8 0 0 0 3.906-3.459l.09-1.946v-.146a2.836 2.836 0 0 0-2.973-2.692l-2.145.013z"/><path class="cls-9" d="M989.1 359.117a2.833 2.833 0 0 0-2.791 2.874l.118 1.943a3.8 3.8 0 0 0 3.946 3.411 3.8 3.8 0 0 0 3.9-3.457l.091-1.95v-.146a2.834 2.834 0 0 0-2.97-2.691l-2.146.016z"/><path class="cls-10" d="M989.183 358.233a2.723 2.723 0 0 0-2.566 2.868l.108 1.947a3.62 3.62 0 0 0 3.628 3.414 3.62 3.62 0 0 0 3.588-3.457l.084-1.948v-.14a2.724 2.724 0 0 0-2.734-2.7l-1.974.013z"/><path class="cls-13" d="M986.5 360.7l.18 2.348a3.62 3.62 0 0 0 3.628 3.408A3.619 3.619 0 0 0 993.9 363l.153-2.351"/><path class="cls-12" d="M978.228 359.372a2.836 2.836 0 0 0-2.794 2.876l.119 1.943a3.8 3.8 0 0 0 3.947 3.409 3.8 3.8 0 0 0 3.906-3.459l.09-1.946v-.146a2.836 2.836 0 0 0-2.973-2.692l-2.145.013z"/><path class="cls-9" d="M978.222 359.117a2.833 2.833 0 0 0-2.791 2.874l.118 1.943a3.8 3.8 0 0 0 3.946 3.411 3.8 3.8 0 0 0 3.906-3.457l.09-1.95v-.146a2.834 2.834 0 0 0-2.97-2.691l-2.145.016z"/><path class="cls-10" d="M978.3 358.233a2.723 2.723 0 0 0-2.566 2.868l.108 1.947a3.621 3.621 0 0 0 3.628 3.414 3.62 3.62 0 0 0 3.588-3.457l.085-1.948v-.14a2.723 2.723 0 0 0-2.739-2.706l-1.974.013z"/><path class="cls-13" d="M975.622 360.7l.18 2.348a3.62 3.62 0 0 0 3.628 3.408 3.619 3.619 0 0 0 3.589-3.456l.153-2.351"/><path class="cls-12" d="M980.438 335.905l-1.969.06a2.721 2.721 0 0 1-2.81-2.627v-.008a1.014 1.014 0 0 1 0-.135l.036-1.953a3.617 3.617 0 0 1 3.5-3.542 3.619 3.619 0 0 1 3.712 3.323l.154 1.944a2.723 2.723 0 0 1-2.488 2.933z"/><path class="cls-9" d="M980.427 335.6l-1.97.06a2.727 2.727 0 0 1-2.81-2.635.761.761 0 0 1 0-.135l.036-1.95a3.62 3.62 0 0 1 3.5-3.543 3.612 3.612 0 0 1 3.708 3.321l.156 1.945a2.724 2.724 0 0 1-2.5 2.929l-.128.006z"/><path class="cls-10" d="M980.381 335.217l-1.971.06a2.723 2.723 0 0 1-2.809-2.633.892.892 0 0 1-.008-.137l.038-1.951a3.609 3.609 0 0 1 3.5-3.542 3.618 3.618 0 0 1 3.712 3.323l.154 1.945a2.722 2.722 0 0 1-2.49 2.927z"/><path class="cls-13" d="M975.582 332.9l.1-2.35a3.619 3.619 0 0 1 3.5-3.544 3.62 3.62 0 0 1 3.711 3.324l.237 2.341"/><path class="cls-12" d="M991.442 335.966l-1.97-.041a2.718 2.718 0 0 1-2.671-2.764v-.009a.994.994 0 0 1 .007-.134l.136-1.948a3.617 3.617 0 0 1 3.679-3.359 3.619 3.619 0 0 1 3.536 3.509l.055 1.949a2.722 2.722 0 0 1-2.635 2.8z"/><path class="cls-9" d="M991.447 335.659l-1.971-.04a2.727 2.727 0 0 1-2.671-2.775 1.032 1.032 0 0 1 .006-.136l.136-1.945a3.621 3.621 0 0 1 3.68-3.359 3.611 3.611 0 0 1 3.536 3.509l.056 1.95a2.722 2.722 0 0 1-2.642 2.8h-.13z"/><path class="cls-10" d="M991.42 335.276l-1.971-.041a2.721 2.721 0 0 1-2.67-2.773.8.8 0 0 1 0-.138l.138-1.945a3.611 3.611 0 0 1 3.674-3.362 3.618 3.618 0 0 1 3.538 3.508l.054 1.951a2.721 2.721 0 0 1-2.637 2.8z"/><path class="cls-13" d="M986.746 332.717l.216-2.343a3.62 3.62 0 0 1 3.68-3.36 3.62 3.62 0 0 1 3.535 3.51l.118 2.35"/><path class="cls-12" d="M1002.867 336.006l-1.969-.041a2.719 2.719 0 0 1-2.672-2.765v-.009a1.19 1.19 0 0 1 .007-.134l.136-1.948a3.618 3.618 0 0 1 3.679-3.359 3.62 3.62 0 0 1 3.537 3.509l.055 1.949a2.725 2.725 0 0 1-2.636 2.8z"/><path class="cls-9" d="M1002.872 335.7l-1.971-.04a2.727 2.727 0 0 1-2.671-2.775.873.873 0 0 1 .007-.135l.135-1.946a3.621 3.621 0 0 1 3.68-3.359 3.611 3.611 0 0 1 3.536 3.509l.056 1.95a2.721 2.721 0 0 1-2.64 2.8h-.132z"/><path class="cls-10" d="M1002.845 335.317l-1.97-.041a2.722 2.722 0 0 1-2.675-2.776.637.637 0 0 1 0-.138l.137-1.945a3.611 3.611 0 0 1 3.678-3.359 3.618 3.618 0 0 1 3.538 3.508l.054 1.951a2.723 2.723 0 0 1-2.636 2.8z"/><path class="cls-13" d="M998.172 332.76l.219-2.343a3.62 3.62 0 0 1 3.68-3.36 3.62 3.62 0 0 1 3.536 3.51l.117 2.35"/><path class="cls-12" d="M1014.022 336.006l-1.969-.041a2.72 2.72 0 0 1-2.672-2.767v-.009a1.19 1.19 0 0 1 .007-.134l.136-1.948a3.618 3.618 0 0 1 3.679-3.359 3.62 3.62 0 0 1 3.537 3.509l.055 1.949a2.723 2.723 0 0 1-2.635 2.8z"/><path class="cls-9" d="M1014.027 335.7l-1.97-.04a2.729 2.729 0 0 1-2.672-2.775.873.873 0 0 1 .007-.135l.136-1.946a3.619 3.619 0 0 1 3.68-3.359 3.609 3.609 0 0 1 3.535 3.509l.057 1.95a2.722 2.722 0 0 1-2.642 2.8h-.131z"/><path class="cls-10" d="M1014 335.317l-1.97-.041a2.723 2.723 0 0 1-2.671-2.773.8.8 0 0 1 0-.138l.138-1.945a3.609 3.609 0 0 1 3.678-3.359 3.618 3.618 0 0 1 3.537 3.508l.055 1.951a2.723 2.723 0 0 1-2.637 2.8z"/><path class="cls-13" d="M1009.327 332.76l.215-2.343a3.62 3.62 0 0 1 3.68-3.36 3.62 3.62 0 0 1 3.536 3.51l.117 2.35"/><path class="cls-12" d="M970.61 348.267a2.822 2.822 0 0 1-2.918 2.721l-2.022-.07a3.746 3.746 0 0 1-3.611-3.689 3.74 3.74 0 0 1 3.5-3.791l2.019-.129h.138a2.821 2.821 0 0 1 2.866 2.775l.03 2.042-.002.141z"/><path class="cls-9" d="M970.758 348.066a2.827 2.827 0 0 1-2.918 2.721l-2.021-.072a3.745 3.745 0 0 1-3.615-3.687 3.749 3.749 0 0 1 3.507-3.792l2.017-.129h.139a2.824 2.824 0 0 1 2.865 2.781l.028 2.044c-.001.042 0 .085-.002.134z"/><path class="cls-10" d="M971.391 347.388a2.822 2.822 0 0 1-2.92 2.721l-2.02-.07a3.748 3.748 0 0 1-3.615-3.688 3.744 3.744 0 0 1 3.507-3.791l2.017-.13h.141a2.822 2.822 0 0 1 2.863 2.78l.029 2.043a.61.61 0 0 1-.002.135z"/><path class="cls-14" d="M968.905 350.217l-2.442-.13a3.739 3.739 0 0 1-3.613-3.688 3.745 3.745 0 0 1 3.5-3.791l2.432-.206"/><rect class="cls-15" x="1029.078" y="338.181" width=".798" height="18.57" rx=".255"/><path class="cls-5" d="M1028.166 336.117h-.6a.36.36 0 0 0-.36.36V358.2a.36.36 0 0 0 .36.36h.6a.36.36 0 0 0 .36-.36v-1.452h.3a.255.255 0 0 0 .255-.255v-18.06a.257.257 0 0 0-.255-.254h-.3v-1.7a.36.36 0 0 0-.359-.361z"/><rect class="cls-16" x="1028.005" y="336.121" width="1.32" height="22.439" rx=".36"/></g></g><g id="Layer_5_copy" data-name="Layer 5 copy"><g id="area-4-2-space_copy-2" data-name="area-4-2-space copy-2"><g id="details-16-2"><rect class="cls-5" x="1046.486" y="242.938" width="46.911" height="18.658" rx="1.888"/><rect class="cls-6" x="1046.486" y="241.902" width="46.911" height="18.658" rx="1.888"/></g><path class="cls-7" d="M1093.4 252.731V242.9a1.641 1.641 0 0 0-1.641-1.64h-43.635a1.64 1.64 0 0 0-1.64 1.64v15.377a1.641 1.641 0 0 0 1.64 1.641h43.629a1.641 1.641 0 0 0 1.641-1.641v-5.547"/><path class="cls-12" d="M1086.133 263.263a2.836 2.836 0 0 0-2.8 2.871l.12 1.943a3.8 3.8 0 0 0 3.946 3.412 3.8 3.8 0 0 0 3.9-3.458l.09-1.947v-.146a2.836 2.836 0 0 0-2.973-2.692l-2.146.013z"/><path class="cls-9" d="M1086.127 263.011a2.834 2.834 0 0 0-2.792 2.875l.118 1.943a3.8 3.8 0 0 0 3.946 3.411 3.8 3.8 0 0 0 3.906-3.457l.09-1.95v-.145a2.836 2.836 0 0 0-2.972-2.692l-2.146.016z"/><path class="cls-10" d="M1086.209 262.124a2.722 2.722 0 0 0-2.567 2.868l.109 1.947a3.617 3.617 0 0 0 3.627 3.414 3.619 3.619 0 0 0 3.588-3.457l.085-1.948v-.131a2.725 2.725 0 0 0-2.739-2.707l-1.974.013z"/><path class="cls-13" d="M1083.527 264.594l.18 2.348a3.619 3.619 0 0 0 3.628 3.408 3.618 3.618 0 0 0 3.588-3.456l.153-2.351"/><path class="cls-12" d="M1074.672 263.263a2.836 2.836 0 0 0-2.8 2.876l.12 1.943a3.8 3.8 0 0 0 3.946 3.412 3.8 3.8 0 0 0 3.9-3.458l.09-1.947v-.146a2.836 2.836 0 0 0-2.973-2.692l-2.146.013z"/><path class="cls-9" d="M1074.666 263.011a2.834 2.834 0 0 0-2.792 2.875l.118 1.943a3.8 3.8 0 0 0 3.946 3.411 3.8 3.8 0 0 0 3.906-3.457l.09-1.95v-.145a2.836 2.836 0 0 0-2.972-2.692l-2.146.016z"/><path class="cls-10" d="M1074.748 262.124a2.722 2.722 0 0 0-2.567 2.868l.109 1.947a3.62 3.62 0 0 0 3.627 3.414 3.621 3.621 0 0 0 3.589-3.457l.084-1.948v-.131a2.723 2.723 0 0 0-2.738-2.707l-1.975.013z"/><path class="cls-13" d="M1072.066 264.594l.18 2.348a3.619 3.619 0 0 0 3.628 3.408 3.618 3.618 0 0 0 3.588-3.456l.154-2.351"/><path class="cls-12" d="M1063.353 263.263a2.836 2.836 0 0 0-2.794 2.876l.119 1.943a3.8 3.8 0 0 0 3.946 3.412 3.8 3.8 0 0 0 3.906-3.458l.09-1.947v-.146a2.836 2.836 0 0 0-2.972-2.692l-2.146.013z"/><path class="cls-9" d="M1063.347 263.011a2.834 2.834 0 0 0-2.792 2.875l.118 1.943a3.8 3.8 0 0 0 3.946 3.411 3.8 3.8 0 0 0 3.906-3.457l.09-1.95v-.145a2.836 2.836 0 0 0-2.972-2.692l-2.146.016z"/><path class="cls-10" d="M1063.429 262.124a2.722 2.722 0 0 0-2.567 2.868l.109 1.947a3.62 3.62 0 0 0 3.627 3.414 3.621 3.621 0 0 0 3.589-3.457l.084-1.948v-.131a2.725 2.725 0 0 0-2.739-2.707l-1.974.013z"/><path class="cls-13" d="M1060.747 264.594l.18 2.348a3.619 3.619 0 0 0 3.628 3.408 3.618 3.618 0 0 0 3.588-3.456l.154-2.351"/><path class="cls-12" d="M1052.474 263.263a2.836 2.836 0 0 0-2.794 2.876l.119 1.943a3.8 3.8 0 0 0 3.946 3.412 3.8 3.8 0 0 0 3.906-3.458l.09-1.947v-.146a2.836 2.836 0 0 0-2.972-2.692l-2.146.013z"/><path class="cls-9" d="M1052.468 263.011a2.834 2.834 0 0 0-2.792 2.875l.119 1.943a3.8 3.8 0 0 0 3.945 3.411 3.8 3.8 0 0 0 3.906-3.457l.091-1.95v-.145a2.835 2.835 0 0 0-2.971-2.692l-2.146.016z"/><path class="cls-10" d="M1052.55 262.124a2.722 2.722 0 0 0-2.567 2.868l.109 1.947a3.62 3.62 0 0 0 3.627 3.414 3.621 3.621 0 0 0 3.589-3.457l.084-1.948v-.131a2.725 2.725 0 0 0-2.739-2.707l-1.974.013z"/><path class="cls-13" d="M1049.868 264.594l.18 2.348a3.619 3.619 0 0 0 3.628 3.408 3.618 3.618 0 0 0 3.588-3.456l.154-2.351"/><path class="cls-12" d="M1054.683 239.8l-1.969.06a2.72 2.72 0 0 1-2.809-2.627v-.143l.036-1.953a3.619 3.619 0 0 1 3.5-3.542 3.621 3.621 0 0 1 3.712 3.324l.154 1.943a2.724 2.724 0 0 1-2.488 2.934z"/><path class="cls-9" d="M1054.672 239.49l-1.97.06a2.727 2.727 0 0 1-2.811-2.633 1.014 1.014 0 0 1 0-.135l.036-1.95a3.621 3.621 0 0 1 3.5-3.543 3.61 3.61 0 0 1 3.71 3.323l.156 1.945a2.722 2.722 0 0 1-2.5 2.929l-.128.007z"/><path class="cls-10" d="M1054.626 239.108l-1.97.06a2.723 2.723 0 0 1-2.809-2.633.7.7 0 0 1-.008-.137l.038-1.95a3.609 3.609 0 0 1 3.5-3.543 3.62 3.62 0 0 1 3.713 3.323l.154 1.945a2.722 2.722 0 0 1-2.491 2.927z"/><path class="cls-13" d="M1049.828 236.8l.1-2.351a3.621 3.621 0 0 1 3.5-3.544 3.619 3.619 0 0 1 3.71 3.324l.237 2.341"/><path class="cls-12" d="M1065.691 239.857l-1.97-.041a2.72 2.72 0 0 1-2.672-2.767v-.008a1.221 1.221 0 0 1 .007-.135l.136-1.948a3.618 3.618 0 0 1 3.679-3.359 3.62 3.62 0 0 1 3.537 3.509l.055 1.949a2.723 2.723 0 0 1-2.635 2.8z"/><path class="cls-9" d="M1065.691 239.551l-1.97-.041a2.727 2.727 0 0 1-2.671-2.775.763.763 0 0 1 .006-.135l.136-1.946a3.619 3.619 0 0 1 3.68-3.359 3.609 3.609 0 0 1 3.535 3.509l.057 1.95a2.722 2.722 0 0 1-2.642 2.8h-.131z"/><path class="cls-10" d="M1065.666 239.167l-1.971-.041a2.723 2.723 0 0 1-2.671-2.773.784.784 0 0 1 0-.137l.138-1.946a3.609 3.609 0 0 1 3.678-3.359 3.62 3.62 0 0 1 3.538 3.508l.054 1.951a2.723 2.723 0 0 1-2.637 2.8z"/><path class="cls-13" d="M1060.991 236.611l.215-2.343a3.621 3.621 0 0 1 3.68-3.36 3.62 3.62 0 0 1 3.536 3.51l.117 2.35"/><path class="cls-12" d="M1077.113 239.9l-1.97-.041a2.718 2.718 0 0 1-2.671-2.764v-.008q0-.068.006-.135l.137-1.948a3.618 3.618 0 0 1 3.679-3.359 3.619 3.619 0 0 1 3.536 3.509l.055 1.949a2.723 2.723 0 0 1-2.635 2.8z"/><path class="cls-9" d="M1077.118 239.591l-1.971-.041a2.727 2.727 0 0 1-2.671-2.775.763.763 0 0 1 .006-.135l.136-1.946a3.619 3.619 0 0 1 3.68-3.358 3.609 3.609 0 0 1 3.536 3.508l.056 1.95a2.721 2.721 0 0 1-2.64 2.8h-.132z"/><path class="cls-10" d="M1077.091 239.207l-1.971-.04a2.724 2.724 0 0 1-2.67-2.774.784.784 0 0 1 0-.137l.138-1.946a3.609 3.609 0 0 1 3.678-3.359 3.618 3.618 0 0 1 3.538 3.508l.054 1.951a2.723 2.723 0 0 1-2.637 2.8z"/><path class="cls-13" d="M1072.417 236.651l.216-2.343a3.621 3.621 0 0 1 3.68-3.36 3.62 3.62 0 0 1 3.535 3.51l.118 2.35"/><path class="cls-12" d="M1088.268 239.9l-1.969-.041a2.719 2.719 0 0 1-2.672-2.765v-.008a1.221 1.221 0 0 1 .007-.135l.136-1.948a3.618 3.618 0 0 1 3.679-3.359 3.62 3.62 0 0 1 3.537 3.509l.055 1.949a2.725 2.725 0 0 1-2.636 2.8z"/><path class="cls-9" d="M1088.273 239.591l-1.971-.041a2.727 2.727 0 0 1-2.671-2.775.873.873 0 0 1 .007-.135l.135-1.946a3.62 3.62 0 0 1 3.68-3.358 3.609 3.609 0 0 1 3.536 3.508l.056 1.95a2.721 2.721 0 0 1-2.64 2.8h-.132z"/><path class="cls-10" d="M1088.246 239.207l-1.97-.04a2.722 2.722 0 0 1-2.671-2.772.628.628 0 0 1 0-.137l.137-1.946a3.611 3.611 0 0 1 3.678-3.359 3.618 3.618 0 0 1 3.538 3.508l.055 1.951a2.723 2.723 0 0 1-2.637 2.8z"/><path class="cls-13" d="M1083.573 236.651l.215-2.343a3.621 3.621 0 0 1 3.68-3.36 3.62 3.62 0 0 1 3.536 3.51l.117 2.35"/><rect class="cls-15" x="1054.532" y="277.307" width="31.57" height=".798" rx=".255"/><path class="cls-5" d="M1088.165 276.4v-.6a.36.36 0 0 0-.36-.36h-34.722a.36.36 0 0 0-.36.36v.6a.36.36 0 0 0 .36.36h1.452v.3a.255.255 0 0 0 .255.255h31.061a.257.257 0 0 0 .254-.255v-.3h1.7a.36.36 0 0 0 .36-.36z"/><rect class="cls-16" x="1052.723" y="276.234" width="35.439" height="1.32" rx=".36"/></g></g><g id="Layer_5_copy_2" data-name="Layer 5 copy 2"><g id="area-4-2-space_copy-3" data-name="area-4-2-space copy-3"><g id="details-16-3"><rect class="cls-5" x="1046.486" y="172.938" width="49.911" height="22.658" rx="1.888"/><rect class="cls-6" x="1046.486" y="171.902" width="49.911" height="22.658" rx="1.888"/></g><path class="cls-7" d="M1096.4 186.731V172.9a1.641 1.641 0 0 0-1.641-1.64h-46.635a1.64 1.64 0 0 0-1.64 1.64v19.375a1.641 1.641 0 0 0 1.64 1.641h46.629a1.641 1.641 0 0 0 1.641-1.641v-5.545"/><path class="cls-12" d="M1089.133 197.263a2.836 2.836 0 0 0-2.8 2.871l.12 1.943a3.8 3.8 0 0 0 3.946 3.412 3.8 3.8 0 0 0 3.9-3.458l.09-1.947v-.146a2.836 2.836 0 0 0-2.973-2.692l-2.146.013z"/><path class="cls-9" d="M1089.127 197.011a2.834 2.834 0 0 0-2.792 2.875l.118 1.943a3.8 3.8 0 0 0 3.946 3.411 3.8 3.8 0 0 0 3.906-3.457l.09-1.95v-.146a2.835 2.835 0 0 0-2.972-2.691l-2.146.016z"/><path class="cls-10" d="M1089.209 196.124a2.722 2.722 0 0 0-2.567 2.868l.109 1.947a3.617 3.617 0 0 0 3.627 3.414 3.619 3.619 0 0 0 3.588-3.457l.085-1.948v-.131a2.723 2.723 0 0 0-2.739-2.706l-1.974.013z"/><path class="cls-13" d="M1086.527 198.594l.18 2.348a3.619 3.619 0 0 0 3.628 3.408 3.618 3.618 0 0 0 3.588-3.456l.153-2.351"/><path class="cls-12" d="M1079.672 197.263a2.836 2.836 0 0 0-2.8 2.876l.12 1.943a3.8 3.8 0 0 0 3.946 3.412 3.8 3.8 0 0 0 3.9-3.458l.091-1.947v-.146a2.836 2.836 0 0 0-2.973-2.692l-2.146.013z"/><path class="cls-9" d="M1079.666 197.011a2.834 2.834 0 0 0-2.792 2.875l.118 1.943a3.8 3.8 0 0 0 3.946 3.411 3.8 3.8 0 0 0 3.906-3.457l.09-1.95v-.146a2.835 2.835 0 0 0-2.972-2.691l-2.146.016z"/><path class="cls-10" d="M1079.748 196.124a2.722 2.722 0 0 0-2.567 2.868l.109 1.947a3.62 3.62 0 0 0 3.627 3.414 3.621 3.621 0 0 0 3.589-3.457l.084-1.948v-.131a2.724 2.724 0 0 0-2.738-2.706l-1.975.013z"/><path class="cls-13" d="M1077.066 198.594l.18 2.348a3.619 3.619 0 0 0 3.628 3.408 3.618 3.618 0 0 0 3.588-3.456l.154-2.351"/><path class="cls-12" d="M1070.353 197.263a2.836 2.836 0 0 0-2.794 2.876l.119 1.943a3.8 3.8 0 0 0 3.946 3.412 3.8 3.8 0 0 0 3.906-3.458l.09-1.947v-.146a2.836 2.836 0 0 0-2.972-2.692l-2.146.013z"/><path class="cls-9" d="M1070.347 197.011a2.834 2.834 0 0 0-2.792 2.875l.119 1.943a3.8 3.8 0 0 0 3.945 3.411 3.8 3.8 0 0 0 3.906-3.457l.09-1.95v-.146a2.835 2.835 0 0 0-2.972-2.691l-2.146.016z"/><path class="cls-10" d="M1070.429 196.124a2.722 2.722 0 0 0-2.567 2.868l.109 1.947a3.62 3.62 0 0 0 3.627 3.414 3.621 3.621 0 0 0 3.589-3.457l.084-1.948v-.131a2.725 2.725 0 0 0-2.739-2.706l-1.974.013z"/><path class="cls-13" d="M1067.747 198.594l.18 2.348a3.619 3.619 0 0 0 3.628 3.408 3.618 3.618 0 0 0 3.588-3.456l.154-2.351"/><path class="cls-12" d="M1060.474 197.263a2.836 2.836 0 0 0-2.794 2.876l.119 1.943a3.8 3.8 0 0 0 3.946 3.412 3.8 3.8 0 0 0 3.906-3.458l.09-1.947v-.146a2.836 2.836 0 0 0-2.972-2.692l-2.146.013z"/><path class="cls-9" d="M1060.468 197.011a2.834 2.834 0 0 0-2.792 2.875l.119 1.943a3.8 3.8 0 0 0 3.945 3.411 3.8 3.8 0 0 0 3.906-3.457l.091-1.95v-.146a2.836 2.836 0 0 0-2.971-2.691l-2.146.016z"/><path class="cls-10" d="M1060.55 196.124a2.722 2.722 0 0 0-2.567 2.868l.109 1.947a3.62 3.62 0 0 0 3.627 3.414 3.621 3.621 0 0 0 3.589-3.457l.084-1.948v-.131a2.725 2.725 0 0 0-2.739-2.706l-1.974.013z"/><path class="cls-13" d="M1057.868 198.594l.18 2.348a3.619 3.619 0 0 0 3.628 3.408 3.618 3.618 0 0 0 3.588-3.456l.154-2.351"/><path class="cls-12" d="M1050.719 197.263a2.836 2.836 0 0 0-2.794 2.876l.119 1.943a3.8 3.8 0 0 0 3.946 3.412 3.8 3.8 0 0 0 3.906-3.458l.09-1.947v-.146a2.836 2.836 0 0 0-2.972-2.692l-2.146.013z"/><path class="cls-9" d="M1050.713 197.011a2.833 2.833 0 0 0-2.791 2.874l.118 1.943a3.8 3.8 0 0 0 3.946 3.411 3.8 3.8 0 0 0 3.9-3.457l.091-1.95v-.146a2.836 2.836 0 0 0-2.971-2.691l-2.146.016z"/><path class="cls-10" d="M1050.791 196.124a2.721 2.721 0 0 0-2.566 2.868l.108 1.947a3.619 3.619 0 0 0 3.628 3.414 3.62 3.62 0 0 0 3.588-3.457l.084-1.948v-.131a2.725 2.725 0 0 0-2.739-2.706l-1.974.013z"/><path class="cls-13" d="M1048.113 198.594l.18 2.348a3.619 3.619 0 0 0 3.628 3.408 3.619 3.619 0 0 0 3.589-3.456l.153-2.351"/><path class="cls-12" d="M1092.268 169.9l-1.969-.041a2.719 2.719 0 0 1-2.672-2.765v-.008a1.221 1.221 0 0 1 .007-.135l.136-1.948a3.618 3.618 0 0 1 3.679-3.359 3.62 3.62 0 0 1 3.537 3.509l.055 1.949a2.725 2.725 0 0 1-2.636 2.8z"/><path class="cls-9" d="M1092.273 169.591l-1.971-.041a2.727 2.727 0 0 1-2.671-2.775.873.873 0 0 1 .007-.135l.135-1.946a3.621 3.621 0 0 1 3.68-3.359 3.611 3.611 0 0 1 3.536 3.509l.056 1.95a2.721 2.721 0 0 1-2.64 2.8h-.132z"/><path class="cls-10" d="M1092.246 169.207l-1.97-.041a2.722 2.722 0 0 1-2.671-2.772.627.627 0 0 1 0-.137l.137-1.946a3.611 3.611 0 0 1 3.678-3.359 3.618 3.618 0 0 1 3.538 3.508l.055 1.951a2.723 2.723 0 0 1-2.637 2.8z"/><path class="cls-13" d="M1087.573 166.651l.215-2.343a3.621 3.621 0 0 1 3.68-3.36 3.62 3.62 0 0 1 3.536 3.51l.117 2.35"/><path class="cls-12" d="M1082.648 169.9l-1.97-.04a2.72 2.72 0 0 1-2.671-2.768v-.009a.854.854 0 0 1 .007-.134l.136-1.949a3.616 3.616 0 0 1 3.679-3.358 3.617 3.617 0 0 1 3.536 3.509l.055 1.948a2.724 2.724 0 0 1-2.635 2.8z"/><path class="cls-9" d="M1082.653 169.591l-1.971-.04a2.728 2.728 0 0 1-2.671-2.776 1.017 1.017 0 0 1 .006-.135l.136-1.945a3.619 3.619 0 0 1 3.68-3.359 3.61 3.61 0 0 1 3.536 3.508l.056 1.951a2.722 2.722 0 0 1-2.642 2.8h-.13z"/><path class="cls-10" d="M1082.626 169.207l-1.971-.04a2.723 2.723 0 0 1-2.67-2.773.8.8 0 0 1 0-.138l.138-1.946a3.61 3.61 0 0 1 3.678-3.358 3.618 3.618 0 0 1 3.538 3.508l.054 1.951a2.721 2.721 0 0 1-2.637 2.8z"/><path class="cls-13" d="M1077.952 166.652l.216-2.343a3.62 3.62 0 0 1 3.68-3.36 3.617 3.617 0 0 1 3.535 3.509l.118 2.351"/><path class="cls-12" d="M1072.363 169.9l-1.97-.04a2.721 2.721 0 0 1-2.672-2.768v-.009a.994.994 0 0 1 .006-.134l.136-1.949a3.618 3.618 0 0 1 3.679-3.358 3.618 3.618 0 0 1 3.537 3.509l.055 1.948a2.723 2.723 0 0 1-2.635 2.8z"/><path class="cls-9" d="M1072.367 169.591l-1.97-.04a2.728 2.728 0 0 1-2.671-2.776.763.763 0 0 1 .006-.135l.136-1.945a3.619 3.619 0 0 1 3.68-3.359 3.61 3.61 0 0 1 3.536 3.508l.056 1.951a2.722 2.722 0 0 1-2.642 2.8h-.131z"/><path class="cls-10" d="M1072.341 169.207l-1.971-.04a2.724 2.724 0 0 1-2.671-2.773 1.059 1.059 0 0 1 0-.138l.138-1.946a3.61 3.61 0 0 1 3.678-3.358 3.618 3.618 0 0 1 3.538 3.508l.054 1.951a2.721 2.721 0 0 1-2.637 2.8z"/><path class="cls-13" d="M1067.667 166.652l.216-2.343a3.619 3.619 0 0 1 3.679-3.36 3.617 3.617 0 0 1 3.536 3.509l.117 2.351"/><path class="cls-12" d="M1062.631 169.938l-1.969-.041a2.72 2.72 0 0 1-2.672-2.767v-.008a1.221 1.221 0 0 1 .007-.135l.136-1.948a3.618 3.618 0 0 1 3.679-3.359 3.62 3.62 0 0 1 3.537 3.509l.055 1.949a2.726 2.726 0 0 1-2.635 2.8z"/><path class="cls-9" d="M1062.636 169.632l-1.97-.041a2.727 2.727 0 0 1-2.672-2.775.873.873 0 0 1 .007-.135l.136-1.946a3.619 3.619 0 0 1 3.68-3.359 3.609 3.609 0 0 1 3.535 3.509l.057 1.95a2.722 2.722 0 0 1-2.642 2.8h-.131z"/><path class="cls-10" d="M1062.609 169.248l-1.97-.041a2.723 2.723 0 0 1-2.671-2.773.784.784 0 0 1 0-.137l.138-1.946a3.609 3.609 0 0 1 3.678-3.359 3.617 3.617 0 0 1 3.537 3.508l.055 1.951a2.723 2.723 0 0 1-2.637 2.8z"/><path class="cls-13" d="M1057.936 166.692l.215-2.343a3.621 3.621 0 0 1 3.68-3.36 3.62 3.62 0 0 1 3.536 3.51l.117 2.35"/><path class="cls-12" d="M1052.81 169.9l-1.97-.041a2.72 2.72 0 0 1-2.672-2.767v-.009a1.19 1.19 0 0 1 .007-.134l.136-1.948a3.618 3.618 0 0 1 3.679-3.359 3.619 3.619 0 0 1 3.537 3.509l.055 1.949a2.723 2.723 0 0 1-2.635 2.8z"/><path class="cls-9" d="M1052.814 169.592l-1.97-.041a2.727 2.727 0 0 1-2.671-2.775.763.763 0 0 1 .006-.135l.136-1.946a3.619 3.619 0 0 1 3.68-3.359 3.609 3.609 0 0 1 3.535 3.509l.057 1.95a2.722 2.722 0 0 1-2.642 2.8h-.131z"/><path class="cls-10" d="M1052.791 169.208l-1.971-.041a2.723 2.723 0 0 1-2.671-2.773.784.784 0 0 1 0-.137l.138-1.946a3.609 3.609 0 0 1 3.678-3.359 3.618 3.618 0 0 1 3.537 3.508l.055 1.951a2.723 2.723 0 0 1-2.637 2.8z"/><path class="cls-13" d="M1048.114 166.652l.215-2.343a3.621 3.621 0 0 1 3.68-3.36 3.62 3.62 0 0 1 3.536 3.51l.117 2.35"/></g></g><g id="Layer_5_copy_3" data-name="Layer 5 copy 3"><g id="area-4-2-space_copy-4" data-name="area-4-2-space copy-4"><g id="details-16-4"><rect class="cls-5" x="966.724" y="72.762" width="46.911" height="18.658" rx="1.888"/><rect class="cls-6" x="966.724" y="71.726" width="46.911" height="18.658" rx="1.888"/></g><path class="cls-7" d="M966.719 82.555v-9.833a1.641 1.641 0 0 1 1.641-1.64h43.631a1.64 1.64 0 0 1 1.64 1.64V88.1a1.641 1.641 0 0 1-1.64 1.641h-43.626a1.641 1.641 0 0 1-1.641-1.641v-5.545"/><path class="cls-12" d="M973.841 93.088l-2.146-.013a2.836 2.836 0 0 0-2.972 2.693v.149l.09 1.947a3.8 3.8 0 0 0 3.906 3.458 3.8 3.8 0 0 0 3.946-3.412l.119-1.943a2.836 2.836 0 0 0-2.791-2.88h-.152z"/><path class="cls-9" d="M973.845 92.837l-2.145-.017a2.835 2.835 0 0 0-2.971 2.692v.145l.091 1.95a3.8 3.8 0 0 0 3.9 3.457 3.8 3.8 0 0 0 3.946-3.41l.119-1.944a2.834 2.834 0 0 0-2.792-2.875z"/><path class="cls-10" d="M973.782 91.943l-1.974-.012a2.722 2.722 0 0 0-2.739 2.706v.135l.084 1.948a3.619 3.619 0 0 0 3.588 3.457 3.619 3.619 0 0 0 3.628-3.414l.109-1.946a2.723 2.723 0 0 0-2.567-2.869z"/><path class="cls-13" d="M969.044 94.367l.153 2.351a3.619 3.619 0 0 0 3.589 3.456 3.62 3.62 0 0 0 3.628-3.408l.18-2.348"/><path class="cls-12" d="M985.3 93.088l-2.146-.013a2.836 2.836 0 0 0-2.972 2.693v.149l.09 1.947a3.8 3.8 0 0 0 3.906 3.458 3.8 3.8 0 0 0 3.946-3.412l.119-1.943a2.836 2.836 0 0 0-2.794-2.876h-.149z"/><path class="cls-9" d="M985.306 92.837l-2.146-.017a2.835 2.835 0 0 0-2.969 2.694v.145l.091 1.95a3.8 3.8 0 0 0 3.9 3.457 3.8 3.8 0 0 0 3.946-3.41l.118-1.944a2.834 2.834 0 0 0-2.79-2.875z"/><path class="cls-10" d="M985.243 91.943l-1.974-.012a2.722 2.722 0 0 0-2.739 2.706v.135l.084 1.948a3.619 3.619 0 0 0 3.588 3.457 3.619 3.619 0 0 0 3.628-3.414l.108-1.946a2.723 2.723 0 0 0-2.566-2.869z"/><path class="cls-13" d="M980.505 94.367l.153 2.351a3.619 3.619 0 0 0 3.589 3.456 3.62 3.62 0 0 0 3.628-3.408l.18-2.348"/><path class="cls-12" d="M996.62 93.088l-2.145-.013a2.836 2.836 0 0 0-2.973 2.693v.149l.09 1.947a3.8 3.8 0 0 0 3.906 3.458 3.8 3.8 0 0 0 3.946-3.412l.119-1.943a2.837 2.837 0 0 0-2.8-2.876h-.156z"/><path class="cls-9" d="M996.624 92.837l-2.145-.017a2.835 2.835 0 0 0-2.971 2.692v.145l.09 1.95a3.8 3.8 0 0 0 3.906 3.457 3.8 3.8 0 0 0 3.946-3.41l.118-1.944a2.834 2.834 0 0 0-2.79-2.875z"/><path class="cls-10" d="M996.562 91.943l-1.974-.012a2.722 2.722 0 0 0-2.739 2.7v.135l.085 1.948a3.619 3.619 0 0 0 3.588 3.457 3.619 3.619 0 0 0 3.628-3.414l.108-1.946a2.722 2.722 0 0 0-2.566-2.869h-.13z"/><path class="cls-13" d="M991.824 94.367l.153 2.351a3.619 3.619 0 0 0 3.589 3.456 3.619 3.619 0 0 0 3.627-3.408l.18-2.348"/><path class="cls-12" d="M1007.5 93.088l-2.145-.013a2.836 2.836 0 0 0-2.973 2.693v.149l.09 1.947a3.8 3.8 0 0 0 3.9 3.458 3.8 3.8 0 0 0 3.947-3.412l.119-1.943a2.837 2.837 0 0 0-2.8-2.876h-.151z"/><path class="cls-9" d="M1007.5 92.837l-2.145-.017a2.836 2.836 0 0 0-2.967 2.7v.145l.09 1.95a3.8 3.8 0 0 0 3.906 3.457 3.8 3.8 0 0 0 3.946-3.41l.118-1.944a2.834 2.834 0 0 0-2.79-2.875z"/><path class="cls-10" d="M1007.441 91.943l-1.974-.012a2.722 2.722 0 0 0-2.739 2.7v.135l.085 1.948a3.619 3.619 0 0 0 3.588 3.457 3.619 3.619 0 0 0 3.628-3.414l.108-1.946a2.723 2.723 0 0 0-2.566-2.869h-.13z"/><path class="cls-13" d="M1002.7 94.367l.153 2.351a3.619 3.619 0 0 0 3.589 3.456 3.619 3.619 0 0 0 3.627-3.408l.18-2.348"/><path class="cls-12" d="M1005.3 69.617a2.724 2.724 0 0 1-2.489-2.934l.155-1.943a3.618 3.618 0 0 1 3.712-3.323 3.618 3.618 0 0 1 3.5 3.543l.036 1.952a1.014 1.014 0 0 1 0 .135v.009a2.719 2.719 0 0 1-2.808 2.627l-1.969-.06z"/><path class="cls-9" d="M1005.448 69.317l-.129-.007a2.72 2.72 0 0 1-2.5-2.923l.156-1.945a3.61 3.61 0 0 1 3.716-3.329 3.62 3.62 0 0 1 3.5 3.543l.036 1.95a1.014 1.014 0 0 1 0 .135 2.727 2.727 0 0 1-2.81 2.635l-1.97-.06z"/><path class="cls-10" d="M1005.366 68.924a2.721 2.721 0 0 1-2.49-2.926l.154-1.946a3.617 3.617 0 0 1 3.712-3.322 3.609 3.609 0 0 1 3.5 3.542l.038 1.95a.913.913 0 0 1-.008.138 2.723 2.723 0 0 1-2.809 2.632l-1.97-.06z"/><path class="cls-13" d="M1002.746 66.389l.237-2.341a3.62 3.62 0 0 1 3.708-3.324 3.619 3.619 0 0 1 3.5 3.544l.1 2.349"/><path class="cls-12" d="M994.3 69.683a2.725 2.725 0 0 1-2.636-2.8l.055-1.949a3.619 3.619 0 0 1 3.537-3.509 3.619 3.619 0 0 1 3.679 3.359l.136 1.948a1.221 1.221 0 0 1 .007.135v.008a2.718 2.718 0 0 1-2.668 2.767l-1.97.041z"/><path class="cls-9" d="M994.428 69.376h-.128a2.721 2.721 0 0 1-2.643-2.8l.056-1.95a3.611 3.611 0 0 1 3.536-3.509 3.62 3.62 0 0 1 3.68 3.358l.135 1.946a.873.873 0 0 1 .007.135 2.727 2.727 0 0 1-2.671 2.775l-1.971.041z"/><path class="cls-10" d="M994.327 68.99a2.721 2.721 0 0 1-2.637-2.8l.054-1.951a3.618 3.618 0 0 1 3.538-3.508 3.612 3.612 0 0 1 3.678 3.359l.137 1.946a.784.784 0 0 1 0 .137 2.724 2.724 0 0 1-2.67 2.774l-1.971.04z"/><path class="cls-13" d="M991.58 66.592l.117-2.35a3.619 3.619 0 0 1 3.536-3.509 3.619 3.619 0 0 1 3.68 3.359l.215 2.343"/><path class="cls-12" d="M982.873 69.723a2.725 2.725 0 0 1-2.636-2.8l.055-1.948a3.619 3.619 0 0 1 3.537-3.51 3.619 3.619 0 0 1 3.679 3.359l.136 1.949a1.19 1.19 0 0 1 .007.134v.01a2.72 2.72 0 0 1-2.672 2.767l-1.969.041z"/><path class="cls-9" d="M983 69.417h-.129a2.724 2.724 0 0 1-2.644-2.8l.057-1.95a3.609 3.609 0 0 1 3.535-3.508 3.621 3.621 0 0 1 3.681 3.359l.135 1.945a.873.873 0 0 1 .007.135 2.727 2.727 0 0 1-2.671 2.775l-1.971.041z"/><path class="cls-10" d="M982.9 69.03a2.721 2.721 0 0 1-2.637-2.8l.055-1.95a3.618 3.618 0 0 1 3.537-3.509 3.612 3.612 0 0 1 3.679 3.359l.137 1.946a.784.784 0 0 1 0 .137A2.724 2.724 0 0 1 985 68.987l-1.97.04z"/><path class="cls-13" d="M980.155 66.632l.117-2.35a3.619 3.619 0 0 1 3.536-3.509 3.619 3.619 0 0 1 3.68 3.359l.215 2.343"/><path class="cls-12" d="M971.717 69.723a2.723 2.723 0 0 1-2.635-2.8l.055-1.948a3.619 3.619 0 0 1 3.537-3.51 3.619 3.619 0 0 1 3.679 3.359l.136 1.949a1.19 1.19 0 0 1 .007.134v.01a2.72 2.72 0 0 1-2.672 2.767l-1.97.041z"/><path class="cls-9" d="M971.848 69.417h-.129a2.724 2.724 0 0 1-2.644-2.8l.057-1.95a3.609 3.609 0 0 1 3.535-3.508 3.619 3.619 0 0 1 3.68 3.359l.136 1.945a.763.763 0 0 1 .006.135 2.727 2.727 0 0 1-2.671 2.775l-1.97.041z"/><path class="cls-10" d="M971.746 69.03a2.721 2.721 0 0 1-2.637-2.8l.055-1.95a3.618 3.618 0 0 1 3.537-3.509 3.612 3.612 0 0 1 3.678 3.359l.138 1.946a.784.784 0 0 1 0 .137 2.724 2.724 0 0 1-2.671 2.774l-1.971.04z"/><path class="cls-13" d="M969 66.632l.117-2.35a3.619 3.619 0 0 1 3.536-3.509 3.619 3.619 0 0 1 3.68 3.359l.215 2.343"/><path class="cls-12" d="M1015.263 81.842l.03-2.042a2.82 2.82 0 0 1 2.865-2.776h.139l2.019.129a3.74 3.74 0 0 1 3.5 3.791 3.746 3.746 0 0 1-3.611 3.689l-2.022.07a2.822 2.822 0 0 1-2.918-2.721l-.002-.14z"/><path class="cls-9" d="M1015.115 81.647l.028-2.044a2.823 2.823 0 0 1 2.865-2.781h.139l2.017.129a3.749 3.749 0 0 1 3.507 3.792 3.745 3.745 0 0 1-3.615 3.687l-2.021.072a2.826 2.826 0 0 1-2.918-2.721c-.002-.044-.001-.092-.002-.134z"/><path class="cls-10" d="M1014.479 80.969l.029-2.043a2.824 2.824 0 0 1 2.863-2.781h.141l2.017.13a3.746 3.746 0 0 1 3.507 3.791 3.748 3.748 0 0 1-3.615 3.688l-2.02.07a2.822 2.822 0 0 1-2.92-2.721 1.427 1.427 0 0 1-.002-.134z"/><path class="cls-14" d="M1017.091 76.117l2.432.206a3.745 3.745 0 0 1 3.5 3.791 3.74 3.74 0 0 1-3.613 3.688l-2.442.13"/><rect class="cls-15" x="948.797" y="71.897" width=".798" height="18.57" rx=".255"/><path class="cls-5" d="M950.147 70.194v1.7h-.3a.254.254 0 0 0-.255.253v18.062a.255.255 0 0 0 .255.255h.3v1.453a.36.36 0 0 0 .36.36h.6a.36.36 0 0 0 .36-.36V70.194a.36.36 0 0 0-.36-.36h-.6a.36.36 0 0 0-.36.36z"/><rect class="cls-16" x="949.348" y="69.837" width="1.32" height="22.439" rx=".36"/></g></g><g id="Layer_4_copy" data-name="Layer 4 copy"><circle class="cls-5" cx="975.861" cy="124.17" r="8.557"/><circle class="cls-6" cx="975.329" cy="123.299" r="8.557"/><circle class="cls-7" cx="975.329" cy="122.465" r="8.557"/><path class="cls-8" d="M968.891 115.924a1.46 1.46 0 0 1-2.053-.217l-2.091-2.59c-.824-1.02-1.43-1.871-.411-2.694l1.637-1.319a2.375 2.375 0 0 1 3.338.355l2.093 2.591a1.463 1.463 0 0 1-.217 2.054l-2.287 1.823z"/><path class="cls-9" d="M968.743 115.74a1.463 1.463 0 0 1-2.054-.217l-2.093-2.592a2.374 2.374 0 0 1 .353-3.338l.869-.678a2.374 2.374 0 0 1 3.338.356l2.093 2.592a1.461 1.461 0 0 1-.217 2.054l-2.287 1.822z"/><path class="cls-10" d="M968.733 115.544a1.46 1.46 0 0 1-2.06-.141l-2.182-2.516a2.373 2.373 0 0 1 .233-3.346l.811-.733a2.374 2.374 0 0 1 3.347.233l2.188 2.512a1.46 1.46 0 0 1-.142 2.059l-2.2 1.933z"/><path class="cls-8" d="M968.991 109.108a9.613 9.613 0 0 0-4.56 3.66 2.372 2.372 0 0 1 .354-3.336l.866-.673a2.372 2.372 0 0 1 3.336.353v.005"/><path class="cls-11" d="M968.991 109.106a9.613 9.613 0 0 0-4.56 3.66 2.368 2.368 0 0 1 .354-3.331l.868-.678a2.375 2.375 0 0 1 3.338.36"/><path class="cls-8" d="M966.133 124.8a1.461 1.461 0 0 1-1.466 1.454l-3.332-.015c-1.311-.006-2.354-.074-2.347-1.385l.013-2.1a2.375 2.375 0 0 1 2.384-2.362l3.331.016a1.463 1.463 0 0 1 1.455 1.466l-.033 2.924z"/><path class="cls-9" d="M965.891 124.8a1.462 1.462 0 0 1-1.466 1.454l-3.331-.016a2.375 2.375 0 0 1-2.364-2.384l.024-1.1a2.373 2.373 0 0 1 2.385-2.362l3.332.016a1.461 1.461 0 0 1 1.454 1.466l-.033 2.924z"/><path class="cls-10" d="M965.736 124.686a1.46 1.46 0 0 1-1.41 1.508L961 126.3a2.373 2.373 0 0 1-2.446-2.3l-.059-1.092a2.374 2.374 0 0 1 2.3-2.447l3.33-.107a1.46 1.46 0 0 1 1.506 1.41l.11 2.923z"/><path class="cls-8" d="M960.914 120.417a9.615 9.615 0 0 0-.046 5.847 2.373 2.373 0 0 1-2.361-2.383l.027-1.1a2.37 2.37 0 0 1 2.383-2.359"/><path class="cls-11" d="M960.912 120.417a9.615 9.615 0 0 0-.046 5.847 2.37 2.37 0 0 1-2.359-2.381l.024-1.1a2.373 2.373 0 0 1 2.384-2.362"/><path class="cls-8" d="M981.671 131.167a1.462 1.462 0 0 1 2 .509l1.7 2.866a2.372 2.372 0 0 1-.831 3.25l-.93.575a2.374 2.374 0 0 1-3.25-.83l-1.7-2.865a1.458 1.458 0 0 1 .5-2l2.507-1.506z"/><path class="cls-9" d="M981.616 130.907a1.46 1.46 0 0 1 2 .509l1.7 2.867a2.374 2.374 0 0 1-.831 3.25l-.93.575a2.375 2.375 0 0 1-3.251-.831l-1.7-2.865a1.46 1.46 0 0 1 .51-2l2.506-1.507z"/><path class="cls-10" d="M981.369 130.677a1.46 1.46 0 0 1 2 .509l1.7 2.866a2.374 2.374 0 0 1-.831 3.25l-.93.575a2.375 2.375 0 0 1-3.251-.83l-1.7-2.865a1.46 1.46 0 0 1 .509-2l2.506-1.506z"/><path class="cls-8" d="M979.955 136.962a9.621 9.621 0 0 0 5.143-2.781 2.373 2.373 0 0 1-.948 3.218l-.973.5a2.371 2.371 0 0 1-3.216-.95"/><path class="cls-11" d="M979.956 136.963a9.619 9.619 0 0 0 5.144-2.78 2.37 2.37 0 0 1-.948 3.214l-.976.511a2.373 2.373 0 0 1-3.218-.949"/><path class="cls-8" d="M985.372 121.173a1.46 1.46 0 0 1 1.387-1.529l3.329-.156a2.373 2.373 0 0 1 2.48 2.258l.072 1.091a2.374 2.374 0 0 1-2.258 2.482l-3.328.158h-.006a1.458 1.458 0 0 1-1.526-1.387l-.156-2.92z"/><path class="cls-9" d="M985.116 121.1a1.46 1.46 0 0 1 1.387-1.529l3.329-.156a2.373 2.373 0 0 1 2.48 2.258l.079 1.091a2.374 2.374 0 0 1-2.258 2.482l-3.328.158h-.014a1.458 1.458 0 0 1-1.526-1.387l-.156-2.92z"/><path class="cls-10" d="M984.8 121.211a1.46 1.46 0 0 1 1.387-1.529l3.328-.156a2.374 2.374 0 0 1 2.481 2.258l.071 1.091a2.373 2.373 0 0 1-2.257 2.481l-3.328.158h-.006a1.458 1.458 0 0 1-1.527-1.386l-.155-2.92z"/><path class="cls-8" d="M989.684 125.407a9.615 9.615 0 0 0-.043-5.847 2.373 2.373 0 0 1 2.4 2.346l-.01 1.1a2.373 2.373 0 0 1-2.346 2.4"/><path class="cls-11" d="M989.691 125.406a9.607 9.607 0 0 0-.044-5.847 2.37 2.37 0 0 1 2.395 2.345l-.006 1.1a2.374 2.374 0 0 1-2.348 2.4"/><path class="cls-8" d="M971.557 132.649a1.46 1.46 0 0 1 .472 2.01l-1.759 2.83a2.373 2.373 0 0 1-3.266.763l-.939-.56a2.375 2.375 0 0 1-.764-3.267l1.757-2.831a1.46 1.46 0 0 1 2.007-.477l2.493 1.528z"/><path class="cls-9" d="M971.762 132.48a1.461 1.461 0 0 1 .473 2.01l-1.758 2.83a2.374 2.374 0 0 1-3.267.763l-.939-.56a2.373 2.373 0 0 1-.764-3.266l1.757-2.831v-.009a1.458 1.458 0 0 1 2.007-.471l2.493 1.528z"/><path class="cls-10" d="M971.852 132.155a1.46 1.46 0 0 1 .472 2.009l-1.759 2.83a2.373 2.373 0 0 1-3.266.763l-.939-.56a2.372 2.372 0 0 1-.764-3.266l1.757-2.831v-.006a1.458 1.458 0 0 1 2.009-.47l2.493 1.528z"/><path class="cls-8" d="M965.624 133.8a9.615 9.615 0 0 0 4.841 3.279 2.372 2.372 0 0 1-3.292.644l-.9-.63a2.373 2.373 0 0 1-.642-3.292"/><path class="cls-11" d="M965.624 133.8a9.6 9.6 0 0 0 4.84 3.28 2.369 2.369 0 0 1-3.288.644l-.9-.63a2.374 2.374 0 0 1-.644-3.294"/><path class="cls-8" d="M978.655 113.923a1.46 1.46 0 0 1-.507-2l1.707-2.861c.672-1.126 1.261-1.989 2.386-1.318l1.8 1.08a2.376 2.376 0 0 1 .822 3.255l-1.708 2.86a1.463 1.463 0 0 1-2 .507l-2.5-1.515z"/><path class="cls-9" d="M978.775 113.717a1.461 1.461 0 0 1-.507-2l1.708-2.861a2.375 2.375 0 0 1 3.255-.823l.936.581a2.374 2.374 0 0 1 .82 3.255l-1.708 2.86a1.461 1.461 0 0 1-2 .507l-2.5-1.515z"/><path class="cls-10" d="M978.956 113.64a1.46 1.46 0 0 1-.582-1.98l1.6-2.921a2.372 2.372 0 0 1 3.22-.939l.968.508a2.373 2.373 0 0 1 .94 3.221l-1.6 2.921v.006a1.459 1.459 0 0 1-1.979.58l-2.573-1.391z"/><path class="cls-8" d="M985.085 111.659a9.612 9.612 0 0 0-5.011-3.012 2.372 2.372 0 0 1 3.252-.822l.931.58a2.372 2.372 0 0 1 .819 3.252"/><path class="cls-11" d="M985.091 111.657a9.61 9.61 0 0 0-5.012-3.012 2.369 2.369 0 0 1 3.249-.821l.936.58a2.374 2.374 0 0 1 .821 3.254"/></g><g id="Layer_5_copy_4" data-name="Layer 5 copy 4"><g id="area-4-2-space_copy-5" data-name="area-4-2-space copy-5"><g id="details-16-5"><rect class="cls-5" x="864.211" y="57.6" width="23.658" height="68.911" rx="1.888"/><rect class="cls-6" x="864.211" y="56.507" width="23.658" height="68.911" rx="1.888"/></g><path class="cls-7" d="M875.683 124.351h-9.833a1.641 1.641 0 0 1-1.64-1.641V57.075a1.641 1.641 0 0 1 1.64-1.641h20.377a1.641 1.641 0 0 1 1.641 1.64V122.7a1.641 1.641 0 0 1-1.641 1.641h-10.544"/><g id="details-16-6"><rect class="cls-5" x="911.813" y="57.881" width="12.658" height="23.911" rx="1.888"/><rect class="cls-6" x="911.813" y="56.811" width="12.658" height="23.911" rx="1.888"/></g><path class="cls-7" d="M918.285 79.963h-4.833a1.641 1.641 0 0 1-1.64-1.641V57.687a1.64 1.64 0 0 1 1.64-1.64h9.377a1.641 1.641 0 0 1 1.641 1.64v20.63a1.641 1.641 0 0 1-1.641 1.641h-4.545"/><path class="cls-12" d="M889.691 67.667l.03-2.042a2.82 2.82 0 0 1 2.863-2.776h.15l2.019.129a3.74 3.74 0 0 1 3.5 3.791 3.746 3.746 0 0 1-3.611 3.689l-2.022.07a2.823 2.823 0 0 1-2.929-2.711v-.01z"/><path class="cls-9" d="M889.543 67.472l.028-2.044a2.823 2.823 0 0 1 2.865-2.781h.139l2.017.129a3.749 3.749 0 0 1 3.507 3.792 3.745 3.745 0 0 1-3.615 3.687l-2.021.072a2.827 2.827 0 0 1-2.918-2.721c-.002-.044-.001-.089-.002-.134z"/><path class="cls-10" d="M888.907 66.794l.029-2.043a2.822 2.822 0 0 1 2.863-2.78h.141l2.017.13a3.744 3.744 0 0 1 3.507 3.791 3.748 3.748 0 0 1-3.615 3.688l-2.02.07a2.824 2.824 0 0 1-2.92-2.721 1.443 1.443 0 0 1-.002-.135z"/><path class="cls-14" d="M891.521 61.942l2.432.206a3.743 3.743 0 0 1 3.5 3.791 3.74 3.74 0 0 1-3.613 3.688l-2.442.13"/><path class="cls-12" d="M926.1 69.161l.03-2.042a2.821 2.821 0 0 1 2.87-2.775h.138l2.019.129a3.74 3.74 0 0 1 3.5 3.791 3.746 3.746 0 0 1-3.611 3.689l-2.022.07A2.822 2.822 0 0 1 926.1 69.3v-.139z"/><path class="cls-9" d="M925.954 68.966l.028-2.044a2.823 2.823 0 0 1 2.864-2.781h.14l2.014.129a3.749 3.749 0 0 1 3.507 3.792 3.745 3.745 0 0 1-3.615 3.687l-2.021.072a2.827 2.827 0 0 1-2.918-2.721c.001-.044.002-.092.001-.134z"/><path class="cls-10" d="M925.318 68.288l.029-2.043a2.822 2.822 0 0 1 2.863-2.78h.141l2.017.13a3.744 3.744 0 0 1 3.507 3.791 3.748 3.748 0 0 1-3.615 3.688l-2.02.07a2.822 2.822 0 0 1-2.92-2.721c-.002-.037-.004-.085-.002-.135z"/><path class="cls-14" d="M927.932 63.436l2.432.206a3.743 3.743 0 0 1 3.5 3.791 3.742 3.742 0 0 1-3.613 3.684l-2.442.13"/><path class="cls-12" d="M889.3 91.324l.03-2.042a2.821 2.821 0 0 1 2.866-2.775h.138l2.019.129a3.74 3.74 0 0 1 3.5 3.791 3.746 3.746 0 0 1-3.611 3.69l-2.022.07a2.822 2.822 0 0 1-2.918-2.721c-.002-.049-.002-.096-.002-.142z"/><path class="cls-9" d="M889.153 91.129l.028-2.044a2.823 2.823 0 0 1 2.865-2.781h.139l2.017.129a3.749 3.749 0 0 1 3.507 3.792 3.745 3.745 0 0 1-3.618 3.692l-2.021.072a2.827 2.827 0 0 1-2.918-2.721c.001-.051.002-.097.001-.139z"/><path class="cls-10" d="M888.517 90.451l.029-2.043a2.822 2.822 0 0 1 2.863-2.78h.141l2.017.13a3.744 3.744 0 0 1 3.507 3.791 3.748 3.748 0 0 1-3.615 3.688l-2.02.07a2.824 2.824 0 0 1-2.92-2.721 1.449 1.449 0 0 1-.002-.135z"/><path class="cls-14" d="M891.131 85.6l2.432.206a3.743 3.743 0 0 1 3.5 3.791 3.74 3.74 0 0 1-3.613 3.688l-2.442.13"/><path class="cls-12" d="M889.547 114.048l.03-2.042a2.821 2.821 0 0 1 2.866-2.775h.138l2.019.129a3.74 3.74 0 0 1 3.5 3.791 3.746 3.746 0 0 1-3.611 3.689l-2.022.07a2.822 2.822 0 0 1-2.918-2.721l-.002-.141z"/><path class="cls-9" d="M889.4 113.853l.028-2.044a2.823 2.823 0 0 1 2.864-2.781h.14l2.017.129a3.749 3.749 0 0 1 3.507 3.792 3.745 3.745 0 0 1-3.615 3.687l-2.021.072a2.827 2.827 0 0 1-2.918-2.721c-.002-.044-.002-.087-.002-.134z"/><path class="cls-10" d="M888.763 113.175l.029-2.043a2.822 2.822 0 0 1 2.863-2.78h.141l2.017.13a3.744 3.744 0 0 1 3.507 3.791 3.748 3.748 0 0 1-3.615 3.688l-2.02.07a2.822 2.822 0 0 1-2.92-2.721 1.443 1.443 0 0 1-.002-.135z"/><path class="cls-14" d="M891.377 108.323l2.432.206a3.745 3.745 0 0 1 3.5 3.791 3.74 3.74 0 0 1-3.613 3.688l-2.442.13"/><path class="cls-12" d="M862.166 67.847a2.822 2.822 0 0 1-2.918 2.721l-2.022-.07a3.744 3.744 0 0 1-3.611-3.689 3.74 3.74 0 0 1 3.5-3.791l2.019-.129h.138a2.821 2.821 0 0 1 2.866 2.775l.03 2.042a6.63 6.63 0 0 0-.002.141z"/><path class="cls-9" d="M862.314 67.646a2.827 2.827 0 0 1-2.918 2.721l-2.021-.072a3.745 3.745 0 0 1-3.615-3.687 3.749 3.749 0 0 1 3.507-3.791l2.017-.129h.139a2.825 2.825 0 0 1 2.865 2.781l.028 2.044c-.001.041 0 .087-.002.133z"/><path class="cls-10" d="M862.95 66.968a2.822 2.822 0 0 1-2.92 2.721l-2.02-.07a3.746 3.746 0 0 1-3.619-3.688 3.744 3.744 0 0 1 3.509-3.791l2.017-.13h.141a2.824 2.824 0 0 1 2.863 2.781l.029 2.043a.855.855 0 0 1 0 .134z"/><path class="cls-14" d="M860.461 69.8l-2.442-.13a3.739 3.739 0 0 1-3.613-3.688 3.745 3.745 0 0 1 3.5-3.791l2.432-.206"/><path class="cls-12" d="M862.556 91.5a2.822 2.822 0 0 1-2.918 2.721l-2.022-.07a3.744 3.744 0 0 1-3.611-3.689 3.74 3.74 0 0 1 3.5-3.791l2.019-.129h.138a2.821 2.821 0 0 1 2.866 2.775l.03 2.042-.002.141z"/><path class="cls-9" d="M862.7 91.3a2.827 2.827 0 0 1-2.918 2.721l-2.021-.072a3.745 3.745 0 0 1-3.615-3.687 3.749 3.749 0 0 1 3.507-3.792l2.017-.129h.139a2.825 2.825 0 0 1 2.865 2.781l.028 2.044a.662.662 0 0 1-.002.134z"/><path class="cls-10" d="M863.34 90.625a2.822 2.822 0 0 1-2.92 2.721l-2.02-.07a3.747 3.747 0 0 1-3.615-3.688 3.745 3.745 0 0 1 3.506-3.791l2.017-.13h.141a2.824 2.824 0 0 1 2.863 2.781l.029 2.043a1.2 1.2 0 0 1-.001.134z"/><path class="cls-14" d="M860.851 93.454l-2.442-.13a3.739 3.739 0 0 1-3.613-3.688 3.745 3.745 0 0 1 3.5-3.791l2.432-.206"/><path class="cls-12" d="M862.31 114.229a2.822 2.822 0 0 1-2.919 2.721l-2.022-.07a3.746 3.746 0 0 1-3.611-3.689 3.74 3.74 0 0 1 3.5-3.791l2.019-.129h.138a2.821 2.821 0 0 1 2.866 2.775l.03 2.042-.001.141z"/><path class="cls-9" d="M862.458 114.028a2.827 2.827 0 0 1-2.918 2.721l-2.021-.072a3.745 3.745 0 0 1-3.615-3.687 3.749 3.749 0 0 1 3.507-3.792l2.017-.129h.139a2.824 2.824 0 0 1 2.865 2.781l.028 2.044c-.001.042 0 .09-.002.134z"/><path class="cls-10" d="M863.091 113.35a2.824 2.824 0 0 1-2.92 2.721l-2.02-.07a3.748 3.748 0 0 1-3.615-3.688 3.744 3.744 0 0 1 3.507-3.791l2.017-.13h.141a2.822 2.822 0 0 1 2.863 2.78l.027 2.045a.592.592 0 0 1 0 .133z"/><path class="cls-14" d="M860.605 116.179l-2.442-.13a3.739 3.739 0 0 1-3.613-3.688 3.742 3.742 0 0 1 3.5-3.791l2.432-.206"/></g></g><g id="Layer_5_copy_5" data-name="Layer 5 copy 5"><g id="area-4-2-space_copy-6" data-name="area-4-2-space copy-6"><g id="details-16-7"><rect class="cls-5" x="1058.008" y="292.578" width="23.658" height="49.911" rx="1.888"/><rect class="cls-6" x="1058.008" y="291.485" width="23.658" height="49.911" rx="1.888"/></g><path class="cls-7" d="M1069.48 340.329h-9.833a1.641 1.641 0 0 1-1.64-1.641v-46.635a1.64 1.64 0 0 1 1.64-1.64h20.377a1.641 1.641 0 0 1 1.641 1.64v46.629a1.641 1.641 0 0 1-1.641 1.641h-10.545"/><path class="cls-12" d="M1083.491 298.645l.03-2.042a2.821 2.821 0 0 1 2.866-2.775h.138l2.019.129a3.74 3.74 0 0 1 3.5 3.791 3.746 3.746 0 0 1-3.611 3.689l-2.022.07a2.822 2.822 0 0 1-2.918-2.721c-.002-.048-.002-.095-.002-.141z"/><path class="cls-9" d="M1083.34 298.45l.028-2.044a2.823 2.823 0 0 1 2.864-2.781h.14l2.017.129a3.749 3.749 0 0 1 3.507 3.792 3.745 3.745 0 0 1-3.615 3.687l-2.021.072a2.827 2.827 0 0 1-2.918-2.721c-.002-.044-.001-.092-.002-.134z"/><path class="cls-10" d="M1082.7 297.772l.029-2.043a2.822 2.822 0 0 1 2.863-2.78h.141l2.017.13a3.744 3.744 0 0 1 3.507 3.791 3.748 3.748 0 0 1-3.615 3.688l-2.02.07a2.824 2.824 0 0 1-2.92-2.721c-.002-.037-.002-.085-.002-.135z"/><path class="cls-14" d="M1085.318 292.917l2.432.206a3.745 3.745 0 0 1 3.5 3.791 3.74 3.74 0 0 1-3.613 3.688l-2.442.13"/><path class="cls-12" d="M1083.734 311.594l.03-2.042a2.82 2.82 0 0 1 2.865-2.776h.139l2.019.129a3.74 3.74 0 0 1 3.5 3.791 3.746 3.746 0 0 1-3.611 3.689l-2.022.07a2.822 2.822 0 0 1-2.918-2.721l-.002-.14z"/><path class="cls-9" d="M1083.591 311.4l.028-2.044a2.823 2.823 0 0 1 2.864-2.781h.14l2.017.129a3.749 3.749 0 0 1 3.507 3.792 3.745 3.745 0 0 1-3.615 3.687l-2.021.072a2.827 2.827 0 0 1-2.918-2.721c-.002-.045-.002-.093-.002-.134z"/><path class="cls-10" d="M1082.95 310.717l.029-2.043a2.822 2.822 0 0 1 2.862-2.781h.142l2.017.13a3.745 3.745 0 0 1 3.507 3.791 3.748 3.748 0 0 1-3.615 3.688l-2.02.07a2.822 2.822 0 0 1-2.92-2.72 1.404 1.404 0 0 1-.002-.135z"/><path class="cls-14" d="M1085.564 305.869l2.432.206a3.745 3.745 0 0 1 3.5 3.791 3.74 3.74 0 0 1-3.613 3.688l-2.442.13"/><path class="cls-12" d="M1083.734 323.259l.03-2.042a2.821 2.821 0 0 1 2.866-2.775h.138l2.019.129a3.74 3.74 0 0 1 3.5 3.791 3.746 3.746 0 0 1-3.611 3.689l-2.022.07a2.822 2.822 0 0 1-2.918-2.721l-.002-.141z"/><path class="cls-9" d="M1083.591 323.064l.028-2.044a2.823 2.823 0 0 1 2.864-2.781h.14l2.017.129a3.749 3.749 0 0 1 3.507 3.792 3.745 3.745 0 0 1-3.615 3.687l-2.021.072a2.827 2.827 0 0 1-2.918-2.721c-.002-.044-.002-.092-.002-.134z"/><path class="cls-10" d="M1082.95 322.386l.029-2.043a2.822 2.822 0 0 1 2.863-2.78h.141l2.017.13a3.744 3.744 0 0 1 3.507 3.791 3.748 3.748 0 0 1-3.615 3.688l-2.02.07a2.824 2.824 0 0 1-2.92-2.721 1.443 1.443 0 0 1-.002-.135z"/><path class="cls-14" d="M1085.564 317.534l2.432.206a3.745 3.745 0 0 1 3.5 3.791 3.74 3.74 0 0 1-3.613 3.688l-2.442.13"/><path class="cls-12" d="M1083.881 335.543l.03-2.042a2.821 2.821 0 0 1 2.866-2.775h.138l2.019.129a3.74 3.74 0 0 1 3.5 3.791 3.746 3.746 0 0 1-3.611 3.689l-2.022.07a2.822 2.822 0 0 1-2.918-2.721l-.002-.141z"/><path class="cls-9" d="M1083.733 335.348l.028-2.044a2.823 2.823 0 0 1 2.864-2.781h.14l2.017.129a3.749 3.749 0 0 1 3.507 3.792 3.745 3.745 0 0 1-3.615 3.687l-2.021.072a2.827 2.827 0 0 1-2.918-2.721c-.002-.044-.001-.092-.002-.134z"/><path class="cls-10" d="M1083.1 334.67l.029-2.043a2.82 2.82 0 0 1 2.86-2.781h.144l2.017.13a3.746 3.746 0 0 1 3.507 3.791 3.748 3.748 0 0 1-3.615 3.688l-2.02.07a2.822 2.822 0 0 1-2.92-2.72.677.677 0 0 1-.002-.135z"/><path class="cls-14" d="M1085.711 329.817l2.432.206a3.745 3.745 0 0 1 3.5 3.791 3.743 3.743 0 0 1-3.613 3.688l-2.442.13"/><path class="cls-12" d="M1055.963 298.826a2.823 2.823 0 0 1-2.918 2.721l-2.022-.07a3.746 3.746 0 0 1-3.611-3.689 3.74 3.74 0 0 1 3.5-3.791l2.019-.129h.138a2.82 2.82 0 0 1 2.866 2.773l.03 2.042-.002.143z"/><path class="cls-9" d="M1056.111 298.625a2.828 2.828 0 0 1-2.918 2.721l-2.021-.072a3.746 3.746 0 0 1-3.615-3.687 3.747 3.747 0 0 1 3.507-3.792l2.017-.129h.139a2.824 2.824 0 0 1 2.865 2.781l.028 2.044c-.001.042 0 .09-.002.134z"/><path class="cls-10" d="M1056.747 297.947a2.824 2.824 0 0 1-2.92 2.721l-2.02-.07a3.748 3.748 0 0 1-3.615-3.688 3.743 3.743 0 0 1 3.507-3.793l2.017-.13h.141a2.822 2.822 0 0 1 2.863 2.78l.029 2.043c.002.053 0 .101-.002.137z"/><path class="cls-14" d="M1054.258 300.776l-2.442-.13a3.743 3.743 0 0 1-3.613-3.688 3.742 3.742 0 0 1 3.5-3.791l2.432-.206"/><path class="cls-12" d="M1056.353 311.483a2.823 2.823 0 0 1-2.918 2.721l-2.022-.07a3.746 3.746 0 0 1-3.611-3.689 3.74 3.74 0 0 1 3.5-3.791l2.019-.129h.138a2.82 2.82 0 0 1 2.866 2.773l.03 2.042-.002.143z"/><path class="cls-9" d="M1056.5 311.282a2.827 2.827 0 0 1-2.918 2.721l-2.021-.072a3.746 3.746 0 0 1-3.615-3.687 3.747 3.747 0 0 1 3.507-3.792l2.017-.129h.139a2.824 2.824 0 0 1 2.865 2.781l.028 2.044c-.002.042-.002.09-.002.134z"/><path class="cls-10" d="M1057.137 310.6a2.824 2.824 0 0 1-2.92 2.721l-2.02-.07a3.748 3.748 0 0 1-3.615-3.688 3.744 3.744 0 0 1 3.507-3.791l2.017-.13h.141a2.822 2.822 0 0 1 2.863 2.78l.029 2.043c.002.052 0 .103-.002.135z"/><path class="cls-14" d="M1054.648 313.433l-2.442-.13a3.743 3.743 0 0 1-3.615-3.686 3.742 3.742 0 0 1 3.5-3.791l2.432-.206"/><path class="cls-12" d="M1056.107 324.207a2.822 2.822 0 0 1-2.918 2.721l-2.022-.07a3.746 3.746 0 0 1-3.611-3.689 3.74 3.74 0 0 1 3.5-3.791l2.019-.129h.138a2.821 2.821 0 0 1 2.866 2.775l.03 2.042-.002.141z"/><path class="cls-9" d="M1056.255 324.006a2.827 2.827 0 0 1-2.918 2.721l-2.021-.072a3.745 3.745 0 0 1-3.615-3.687 3.749 3.749 0 0 1 3.507-3.792l2.017-.129h.139a2.823 2.823 0 0 1 2.865 2.78l.028 2.044c-.001.046 0 .091-.002.135z"/><path class="cls-10" d="M1056.891 323.328a2.822 2.822 0 0 1-2.92 2.721l-2.02-.07a3.748 3.748 0 0 1-3.615-3.688 3.744 3.744 0 0 1 3.507-3.791l2.017-.13h.14a2.822 2.822 0 0 1 2.863 2.78l.029 2.043-.001.135z"/><path class="cls-14" d="M1054.4 326.157l-2.442-.13a3.743 3.743 0 0 1-3.613-3.688 3.745 3.745 0 0 1 3.5-3.791l2.432-.206"/><path class="cls-12" d="M1055.961 336.07a2.822 2.822 0 0 1-2.918 2.721l-2.022-.07a3.746 3.746 0 0 1-3.611-3.689 3.738 3.738 0 0 1 3.5-3.791l2.019-.129h.138a2.823 2.823 0 0 1 2.866 2.775l.03 2.042-.002.141z"/><path class="cls-9" d="M1056.109 335.869a2.827 2.827 0 0 1-2.918 2.721l-2.021-.072a3.745 3.745 0 0 1-3.615-3.687 3.747 3.747 0 0 1 3.507-3.792l2.017-.129h.139a2.825 2.825 0 0 1 2.865 2.781l.028 2.044c-.001.042 0 .09-.002.134z"/><path class="cls-10" d="M1056.745 335.191a2.826 2.826 0 0 1-2.921 2.721l-2.019-.07a3.748 3.748 0 0 1-3.615-3.688 3.744 3.744 0 0 1 3.507-3.791l2.017-.13h.14a2.821 2.821 0 0 1 2.863 2.778l.029 2.043a1.252 1.252 0 0 1-.001.137z"/><path class="cls-14" d="M1054.256 338.017l-2.442-.13a3.743 3.743 0 0 1-3.613-3.688 3.742 3.742 0 0 1 3.5-3.791l2.432-.206"/><rect class="cls-15" x="1059.44" y="280.321" width="18.57" height=".798" rx=".255"/><path class="cls-5" d="M1079.713 281.671h-1.7v-.3a.257.257 0 0 0-.254-.255H1059.7a.255.255 0 0 0-.255.255v.3h-1.452a.36.36 0 0 0-.36.36v.6a.36.36 0 0 0 .36.36h21.722a.36.36 0 0 0 .36-.36v-.6a.36.36 0 0 0-.362-.36z"/><rect class="cls-16" x="1057.631" y="280.872" width="22.439" height="1.32" rx=".36"/><path class="cls-12" d="M1071.5 344.245l-2.146-.013a2.835 2.835 0 0 0-2.973 2.69v.146l.091 1.946a3.8 3.8 0 0 0 3.9 3.458 3.8 3.8 0 0 0 3.946-3.411l.119-1.943a2.834 2.834 0 0 0-2.791-2.876h-.146z"/><path class="cls-9" d="M1071.5 343.993l-2.146-.016a2.834 2.834 0 0 0-2.972 2.689v.146l.09 1.95a3.8 3.8 0 0 0 3.906 3.457 3.8 3.8 0 0 0 3.946-3.411l.118-1.943a2.834 2.834 0 0 0-2.792-2.875h-.15z"/><path class="cls-10" d="M1071.437 343.1l-1.974-.013a2.725 2.725 0 0 0-2.739 2.706v.136l.084 1.948a3.621 3.621 0 0 0 3.589 3.457 3.62 3.62 0 0 0 3.627-3.414l.109-1.947a2.721 2.721 0 0 0-2.566-2.868z"/><path class="cls-13" d="M1066.7 345.524l.154 2.351a3.619 3.619 0 0 0 3.588 3.456 3.62 3.62 0 0 0 3.628-3.408l.18-2.349"/></g></g><g id="Layer_5_copy_6" data-name="Layer 5 copy 6"><g id="area-4-2-space_copy-7" data-name="area-4-2-space copy-7"><g id="details-16-8"><rect class="cls-5" x="1053.008" y="90.578" width="23.658" height="47.911" rx="1.888"/><rect class="cls-6" x="1053.008" y="89.485" width="23.658" height="47.911" rx="1.888"/></g><path class="cls-7" d="M1064.48 136.328h-9.833a1.641 1.641 0 0 1-1.64-1.641V90.052a1.64 1.64 0 0 1 1.64-1.64h20.377a1.641 1.641 0 0 1 1.641 1.64v44.63a1.64 1.64 0 0 1-1.639 1.641h-10.547"/><path class="cls-12" d="M1050.963 97.825a2.822 2.822 0 0 1-2.918 2.721l-2.022-.07a3.744 3.744 0 0 1-3.611-3.689 3.74 3.74 0 0 1 3.5-3.791l2.019-.129h.138a2.821 2.821 0 0 1 2.866 2.775l.03 2.042a6.63 6.63 0 0 0-.002.141z"/><path class="cls-9" d="M1051.111 97.624a2.827 2.827 0 0 1-2.918 2.721l-2.021-.072a3.745 3.745 0 0 1-3.615-3.687 3.749 3.749 0 0 1 3.507-3.792l2.017-.129h.139a2.825 2.825 0 0 1 2.865 2.781l.028 2.044c-.001.042 0 .09-.002.134z"/><path class="cls-10" d="M1051.747 96.946a2.822 2.822 0 0 1-2.92 2.721l-2.02-.07a3.748 3.748 0 0 1-3.615-3.688 3.745 3.745 0 0 1 3.507-3.792l2.017-.13h.141a2.824 2.824 0 0 1 2.863 2.781l.029 2.043c.002.051 0 .099-.002.135z"/><path class="cls-14" d="M1049.258 99.775l-2.442-.13a3.739 3.739 0 0 1-3.613-3.688 3.745 3.745 0 0 1 3.5-3.791l2.432-.206"/><path class="cls-12" d="M1051.353 108.482a2.822 2.822 0 0 1-2.918 2.721l-2.022-.07a3.744 3.744 0 0 1-3.611-3.689 3.74 3.74 0 0 1 3.5-3.791l2.019-.129h.138a2.821 2.821 0 0 1 2.866 2.775l.03 2.042a6.63 6.63 0 0 0-.002.141z"/><path class="cls-9" d="M1051.5 108.281a2.827 2.827 0 0 1-2.918 2.721l-2.021-.072a3.745 3.745 0 0 1-3.615-3.687 3.749 3.749 0 0 1 3.507-3.792l2.017-.129h.139a2.824 2.824 0 0 1 2.865 2.781l.028 2.044c-.002.042-.002.09-.002.134z"/><path class="cls-10" d="M1052.137 107.6a2.822 2.822 0 0 1-2.92 2.721l-2.02-.07a3.748 3.748 0 0 1-3.615-3.688 3.744 3.744 0 0 1 3.507-3.791l2.017-.13h.141a2.822 2.822 0 0 1 2.863 2.78l.029 2.043c.002.052 0 .102-.002.135z"/><path class="cls-14" d="M1049.648 110.432l-2.442-.13a3.741 3.741 0 0 1-3.615-3.685 3.745 3.745 0 0 1 3.5-3.791l2.432-.206"/><path class="cls-12" d="M1051.107 119.207a2.822 2.822 0 0 1-2.918 2.721l-2.022-.07a3.746 3.746 0 0 1-3.611-3.689 3.74 3.74 0 0 1 3.5-3.791l2.019-.129h.138a2.821 2.821 0 0 1 2.866 2.775l.03 2.042-.002.141z"/><path class="cls-9" d="M1051.255 119.006a2.827 2.827 0 0 1-2.918 2.721l-2.021-.072a3.745 3.745 0 0 1-3.615-3.687 3.747 3.747 0 0 1 3.507-3.792l2.017-.129h.139a2.823 2.823 0 0 1 2.865 2.78l.028 2.044c-.001.046 0 .091-.002.135z"/><path class="cls-10" d="M1051.891 118.328a2.822 2.822 0 0 1-2.92 2.721l-2.02-.07a3.748 3.748 0 0 1-3.615-3.688 3.744 3.744 0 0 1 3.507-3.791l2.017-.13h.14a2.822 2.822 0 0 1 2.863 2.78l.029 2.043-.001.135z"/><path class="cls-14" d="M1049.4 121.157l-2.442-.13a3.743 3.743 0 0 1-3.613-3.688 3.742 3.742 0 0 1 3.5-3.791l2.432-.206"/><path class="cls-12" d="M1050.961 130.069a2.822 2.822 0 0 1-2.918 2.721l-2.022-.07a3.744 3.744 0 0 1-3.611-3.689 3.738 3.738 0 0 1 3.5-3.791l2.019-.129h.138a2.823 2.823 0 0 1 2.866 2.776l.03 2.042a6.443 6.443 0 0 0-.002.14z"/><path class="cls-9" d="M1051.109 129.868a2.827 2.827 0 0 1-2.918 2.721l-2.021-.072a3.745 3.745 0 0 1-3.615-3.687 3.747 3.747 0 0 1 3.507-3.792l2.017-.129h.139a2.825 2.825 0 0 1 2.865 2.781l.028 2.044c-.001.042 0 .09-.002.134z"/><path class="cls-10" d="M1051.745 129.19a2.823 2.823 0 0 1-2.921 2.721l-2.02-.07a3.747 3.747 0 0 1-3.614-3.688 3.744 3.744 0 0 1 3.506-3.791l2.017-.13h.141a2.822 2.822 0 0 1 2.863 2.78l.029 2.043a1.216 1.216 0 0 1-.001.135z"/><path class="cls-14" d="M1049.256 132.017l-2.442-.13a3.739 3.739 0 0 1-3.613-3.688 3.742 3.742 0 0 1 3.5-3.791l2.432-.206"/><path class="cls-12" d="M1078.6 97.772l.03-2.042a2.821 2.821 0 0 1 2.866-2.775h.138l2.019.129a3.74 3.74 0 0 1 3.5 3.791 3.746 3.746 0 0 1-3.611 3.689l-2.022.07a2.822 2.822 0 0 1-2.918-2.721c-.002-.048-.002-.096-.002-.141z"/><path class="cls-9" d="M1078.452 97.577l.028-2.044a2.823 2.823 0 0 1 2.864-2.781h.14l2.017.129a3.749 3.749 0 0 1 3.507 3.792 3.745 3.745 0 0 1-3.617 3.687l-2.021.072a2.827 2.827 0 0 1-2.918-2.721v-.134z"/><path class="cls-10" d="M1077.816 96.9l.029-2.043a2.822 2.822 0 0 1 2.863-2.78h.141l2.017.13a3.745 3.745 0 0 1 3.507 3.793 3.748 3.748 0 0 1-3.615 3.688l-2.02.07a2.822 2.822 0 0 1-2.92-2.72 1.522 1.522 0 0 1-.002-.138z"/><path class="cls-14" d="M1080.43 92.047l2.432.206a3.745 3.745 0 0 1 3.5 3.791 3.743 3.743 0 0 1-3.613 3.688l-2.442.13"/><path class="cls-12" d="M1078.21 108.429l.03-2.042a2.821 2.821 0 0 1 2.866-2.775h.138l2.019.129a3.74 3.74 0 0 1 3.5 3.791 3.746 3.746 0 0 1-3.611 3.689l-2.022.07a2.822 2.822 0 0 1-2.918-2.721l-.002-.141z"/><path class="cls-9" d="M1078.062 108.234l.028-2.044a2.823 2.823 0 0 1 2.864-2.781h.14l2.017.129a3.749 3.749 0 0 1 3.507 3.792 3.745 3.745 0 0 1-3.615 3.687l-2.021.072a2.827 2.827 0 0 1-2.918-2.721c-.002-.044-.001-.092-.002-.134z"/><path class="cls-10" d="M1077.426 107.556l.029-2.043a2.822 2.822 0 0 1 2.863-2.78h.141l2.017.13a3.745 3.745 0 0 1 3.507 3.791 3.748 3.748 0 0 1-3.615 3.688l-2.02.07a2.822 2.822 0 0 1-2.92-2.72c-.002-.038-.004-.086-.002-.136z"/><path class="cls-14" d="M1080.04 102.7l2.432.206a3.745 3.745 0 0 1 3.5 3.791 3.743 3.743 0 0 1-3.613 3.688l-2.442.13"/><path class="cls-12" d="M1078.456 119.153l.03-2.042a2.821 2.821 0 0 1 2.866-2.775h.138l2.019.129a3.74 3.74 0 0 1 3.5 3.791 3.746 3.746 0 0 1-3.611 3.689l-2.022.07a2.822 2.822 0 0 1-2.918-2.721l-.002-.141z"/><path class="cls-9" d="M1078.308 118.958l.028-2.044a2.823 2.823 0 0 1 2.864-2.781h.14l2.017.129a3.749 3.749 0 0 1 3.507 3.792 3.745 3.745 0 0 1-3.615 3.687l-2.021.072a2.827 2.827 0 0 1-2.918-2.721c-.002-.044-.001-.092-.002-.134z"/><path class="cls-10" d="M1077.672 118.28l.029-2.043a2.822 2.822 0 0 1 2.862-2.78h.142l2.017.13a3.746 3.746 0 0 1 3.507 3.791 3.748 3.748 0 0 1-3.615 3.688l-2.02.07a2.822 2.822 0 0 1-2.92-2.72c-.002-.038-.004-.086-.002-.136z"/><path class="cls-14" d="M1080.291 113.428l2.432.206a3.745 3.745 0 0 1 3.5 3.791 3.742 3.742 0 0 1-3.618 3.692l-2.442.13"/><path class="cls-12" d="M1078.6 130.017l.03-2.042a2.821 2.821 0 0 1 2.866-2.775h.138l2.019.129a3.74 3.74 0 0 1 3.5 3.791 3.746 3.746 0 0 1-3.611 3.689l-2.022.07a2.822 2.822 0 0 1-2.918-2.721c-.002-.049-.002-.096-.002-.141z"/><path class="cls-9" d="M1078.454 129.817l.028-2.044a2.823 2.823 0 0 1 2.865-2.781h.139l2.017.129a3.749 3.749 0 0 1 3.507 3.792 3.745 3.745 0 0 1-3.619 3.691l-2.021.072a2.827 2.827 0 0 1-2.918-2.721c.002-.044.003-.092.002-.138z"/><path class="cls-10" d="M1077.818 129.143l.029-2.043a2.822 2.822 0 0 1 2.863-2.78h.141l2.017.13a3.744 3.744 0 0 1 3.507 3.791 3.748 3.748 0 0 1-3.615 3.688l-2.02.07a2.824 2.824 0 0 1-2.92-2.721 1.443 1.443 0 0 1-.002-.135z"/><path class="cls-14" d="M1080.432 124.291l2.432.206a3.745 3.745 0 0 1 3.5 3.791 3.74 3.74 0 0 1-3.613 3.688l-2.442.13"/></g></g></g><g id="area-28-open"><circle class="cls-17" cx="978.674" cy="187.341" r="14.106"/><circle class="cls-18" cx="978.73" cy="187.408" r="13.074"/><circle class="cls-19" cx="978.674" cy="187.408" r="11.999"/><circle class="cls-20" cx="978.73" cy="187.341" r="10.062"/><path class="cls-21" d="M988.591 175.2l10.06 4.905a1.227 1.227 0 0 0 1.5-.4l5.176-10.614a.837.837 0 0 0-.44-.892l-11.655-5.682-10.753-5.242a.854.854 0 0 0-1.108.382c-.009.017-.025.027-.034.045l-.826 1.7-4.107 8.421c-.009.019-.007.039-.015.057a1.253 1.253 0 0 0 .551 1.643l9.161 4.467.021.009c.824.385 1.635.78 2.445 1.193z"/><path class="cls-22" d="M989.18 174.645l10.06 4.906a1.211 1.211 0 0 0 1.477-.352l4.91-10.068a.833.833 0 0 0-.454-.865l-11.651-5.681-10.752-5.243a.833.833 0 0 0-1.09.344c-.009.016-.024.026-.032.043l-.785 1.608-3.9 7.989a.341.341 0 0 0-.014.055 1.219 1.219 0 0 0 .579 1.585l9.161 4.467a1.382 1.382 0 0 0 1.848-.635 1.383 1.383 0 0 0 .643 1.847z"/><path class="cls-23" d="M989.529 173.849l10.06 4.906a1.211 1.211 0 0 0 1.477-.352c-.825-.717-.514-3.235.765-5.858a12.367 12.367 0 0 1 2.061-3.073 47.588 47.588 0 0 1-11.727-4.184L988.892 172a1.382 1.382 0 0 0 .637 1.849z"/><path class="cls-23" d="M991.3 164.877a45.434 45.434 0 0 1-9.205-5.648 12.922 12.922 0 0 1-1.091 3.163c-1.117 2.29-2.625 3.947-3.7 4.193a1.219 1.219 0 0 0 .579 1.585l9.161 4.467A1.382 1.382 0 0 0 988.9 172l3.273-6.712a70.247 70.247 0 0 1-.873-.411z"/><path class="cls-24" d="M1005.976 168.335a.831.831 0 0 0-.454-.865l-11.651-5.681-10.752-5.243a.833.833 0 0 0-1.09.344 2.494 2.494 0 0 1 .191.934l22.471 10.957a1.8 1.8 0 0 1 1.285-.446z"/><path class="cls-25" d="M990.841 165.825c.289.141.574.274.862.411a47.6 47.6 0 0 0 11.727 4.184 5.43 5.43 0 0 1 .8-.691l-22.473-10.957a6.251 6.251 0 0 1-.121 1.405 45.434 45.434 0 0 0 9.205 5.648z"/><path class="cls-24" d="M991.243 165c.289.142.574.275.862.412a47.6 47.6 0 0 0 11.727 4.183 5.536 5.536 0 0 1 .8-.69l-22.473-10.958a6.26 6.26 0 0 1-.121 1.406 45.474 45.474 0 0 0 9.205 5.647z"/><path class="cls-24" d="M981.007 162.392a12.922 12.922 0 0 0 1.091-3.163 4.1 4.1 0 0 0-.069-2.339c-.009.016-.024.026-.032.043l-.785 1.609-3.895 7.988a.492.492 0 0 0-.014.055c1.079-.246 2.588-1.903 3.704-4.193zM1001.855 172.5a10.453 10.453 0 0 1 1.911-2.763 3.946 3.946 0 0 1 2.131-1.267c-.007.018 0 .037-.011.053l-.784 1.609-3.9 7.989c-.008.018-.027.027-.036.043-.666-1.101-.428-3.379.689-5.664z"/><path class="cls-21" d="M992.942 212.183l-.178.032-.664-5.815a.757.757 0 0 0-.837-.667l-8.8 1.009a.757.757 0 0 0-.666.838l.666 5.811-.15.008a.287.287 0 0 0-.252.317.292.292 0 0 0 .023.083l.282.636a3.093 3.093 0 0 0 3.181 1.822l4.9-.561a3.1 3.1 0 0 0 2.687-2.5l.13-.683a.285.285 0 0 0-.224-.335.3.3 0 0 0-.098.005z"/><path class="cls-22" d="M992.549 211.73l-.179.032-.666-5.813a.758.758 0 0 0-.839-.667l-8.8 1.009a.757.757 0 0 0-.666.839l.666 5.812-.15.008a.284.284 0 0 0-.252.313.262.262 0 0 0 .024.087l.281.636a3.1 3.1 0 0 0 3.182 1.822l4.9-.561a3.1 3.1 0 0 0 2.687-2.5l.13-.683a.286.286 0 0 0-.223-.336.3.3 0 0 0-.095.002z"/><path class="cls-26" d="M981.926 205.807l8.179-.937a1.071 1.071 0 0 1 1.187.941l.636 5.55a1.968 1.968 0 0 1-1.731 2.18l-6.394.732a1.967 1.967 0 0 1-2.179-1.729l-.637-5.55a1.071 1.071 0 0 1 .939-1.187z"/><path class="cls-25" d="M989.481 213.909l-4.9.561a3.093 3.093 0 0 1-3.181-1.822l-.282-.636a.286.286 0 0 1 .143-.377.281.281 0 0 1 .086-.023l4.956-.257a6.449 6.449 0 0 0 .795-.091l4.886-.872a.286.286 0 0 1 .316.252.3.3 0 0 1 0 .085l-.13.683a3.1 3.1 0 0 1-2.689 2.497z"/><path class="cls-27" d="M989.578 214.758l-4.9.561a3.093 3.093 0 0 1-3.178-1.819l-.281-.636a.284.284 0 0 1 .141-.376.262.262 0 0 1 .087-.024l4.956-.257a6.529 6.529 0 0 0 .8-.091l4.886-.872a.285.285 0 0 1 .315.251.31.31 0 0 1 0 .086l-.13.683a3.1 3.1 0 0 1-2.696 2.494z"/><path class="cls-21" d="M1001 205.527l.1-.149-5-3.045a.756.756 0 0 1-.253-1.039l4.611-7.567a.758.758 0 0 1 1.042-.252l4.994 3.043.07-.133a.286.286 0 0 1 .392-.095.306.306 0 0 1 .065.054l.459.522a3.093 3.093 0 0 1 .318 3.653l-2.566 4.21a3.1 3.1 0 0 1-3.385 1.388l-.675-.169a.285.285 0 0 1-.206-.345.3.3 0 0 1 .032-.076z"/><path class="cls-22" d="M1000.75 204.98l.1-.149-5-3.045a.759.759 0 0 1-.253-1.042l4.612-7.566a.757.757 0 0 1 1.04-.254l5 3.044.07-.132a.285.285 0 0 1 .389-.1.277.277 0 0 1 .067.056l.459.522a3.1 3.1 0 0 1 .319 3.653l-2.566 4.21a3.094 3.094 0 0 1-3.393 1.391l-.674-.168a.284.284 0 0 1-.2-.347.272.272 0 0 1 .03-.073z"/><path class="cls-26" d="M1006.728 198.105l-3.351 5.5a1.968 1.968 0 0 1-2.7.656l-4.771-2.907a1.073 1.073 0 0 1-.357-1.474l4.284-7.029a1.071 1.071 0 0 1 1.471-.359l4.771 2.908a1.968 1.968 0 0 1 .656 2.7z"/><path class="cls-25" d="M1004.016 203.11l2.566-4.211a3.093 3.093 0 0 0-.319-3.652l-.459-.522a.285.285 0 0 0-.4-.028.277.277 0 0 0-.056.067l-2.314 4.391a6.537 6.537 0 0 1-.417.684l-2.842 4.068a.286.286 0 0 0 .1.392.275.275 0 0 0 .079.033l.674.168a3.094 3.094 0 0 0 3.388-1.39z"/><path class="cls-27" d="M1004.745 203.555l2.566-4.211a3.093 3.093 0 0 0-.318-3.653l-.459-.522a.286.286 0 0 0-.4-.023.247.247 0 0 0-.053.063l-2.314 4.391a6.523 6.523 0 0 1-.417.683l-2.842 4.069a.286.286 0 0 0 .1.392.294.294 0 0 0 .08.033l.674.169a3.094 3.094 0 0 0 3.383-1.391z"/><path class="cls-28" d="M986.3 197.777h-15.455a1.4 1.4 0 0 1-1.4-1.4v-15.454a1.4 1.4 0 0 1 1.4-1.4H986.3a1.4 1.4 0 0 1 1.4 1.4v15.457a1.4 1.4 0 0 1-1.4 1.397z"/><path class="cls-28" d="M986.3 197.126h-15.455a1.4 1.4 0 0 1-1.4-1.4v-15.455a1.4 1.4 0 0 1 1.4-1.4H986.3a1.4 1.4 0 0 1 1.4 1.4v15.458a1.4 1.4 0 0 1-1.4 1.397z"/><path class="cls-28" d="M986.3 196.054h-15.455a1.4 1.4 0 0 1-1.4-1.4V179.2a1.4 1.4 0 0 1 1.4-1.4H986.3a1.4 1.4 0 0 1 1.4 1.4v15.457a1.4 1.4 0 0 1-1.4 1.397z"/><path class="cls-29" d="M975.692 177.803l6.044 18.251M968.448 187.255h18.251"/><path class="cls-21" d="M962.438 211.9h-14.08v-45.026h14.08a1.133 1.133 0 0 1 1.131 1.131v42.762a1.131 1.131 0 0 1-1.131 1.133z"/><path class="cls-22" d="M962.438 210.817h-14.08v-45.023h14.08a1.133 1.133 0 0 1 1.131 1.131v42.762a1.132 1.132 0 0 1-1.131 1.13z"/><path class="cls-23" d="M962.438 209.617h-14.08V164.6h14.08a1.131 1.131 0 0 1 1.131 1.131v42.762a1.132 1.132 0 0 1-1.131 1.124z"/><path class="cls-30" d="M948.358 164.437h3.466v45.483h-3.466z"/><path class="cls-31" d="M951.824 164.437h3.466v45.483h-3.466z"/><path class="cls-32" d="M955.479 179.89h8.09M963.569 194.628h-7.984"/><path class="cls-21" d="M868.608 211.362h79.077v22.016h-79.077z"/><path class="cls-33" d="M868.608 210.552h79.077v22.016h-79.077z"/><path class="cls-21" d="M885.459 227.447h80.196v9.194h-80.196z"/><path class="cls-34" d="M885.459 226.697h80.196v9.194h-80.196z"/><path class="cls-21" d="M872.818 210.392h75.54v17.955h-75.54z"/><path class="cls-35" d="M872.818 211.392h75.54v15.955h-75.54z"/></g><g id="Bookings"><path id="area-28.11-status" class="cls-36" d="M958.867 276.823h42.749v43.825h-43.013l.264-43.825z"/><path id="area-28.10-status" class="cls-36" d="M1050.42 374.332v-5.797h-7.134v-15.916h-12.242v-31.833h-72.441v31.42H942.08v22.985l108.34-.859z"/><path id="area-28.09-status" class="cls-36" d="M1031.044 279.173h84.694l-12.869 39.063-8.817 22.047-20.661 26.162-14.133 6.617-8.838 1.27v-5.797h-7.134v-15.916h-12.242v-73.446z"/><path id="area-28.08-status" class="cls-36" d="M1031.044 217.881v61.292h84.694l6.532-28.762v-32.659l-91.226.129z"/><path id="area-28.07-status" class="cls-36" d="M1031.044 148.958v68.923l91.226-.129 3.266-16.281-7.266-49.541v-3.101l-87.226.129z"/><path id="area-28.06-status" class="cls-36" d="M1031.044 75.632v73.326h84.863l-3.614-15.597-6.865-24.571-9.033-14.208-7.407-11.807-13.008-16.079-21.79-9.711h-11.615v19.066l-11.531-.419z"/><path id="area-28.03-status" class="cls-36" d="M947.685 104.179h83.359V75.632h13.367V56.985h-96.726v47.194z"/><path id="area-28.04-status" class="cls-36" d="M947.786 104.324h53.787v40.357h-53.787z"/><path id="area-28.02-status" class="cls-36" d="M846.516 57.79h101.169v127.772H846.516z"/><g id="Names"><text class="cls-37" transform="translate(968.645 296.76)">Galata</text><text class="cls-37" transform="translate(970.932 305.76)">28.</text><text class="cls-38" transform="translate(981.358 305.76)">1</text><text class="cls-37" transform="translate(985.115 305.76)">1</text><text class="cls-37" transform="translate(979.374 345.514)">Emirgan</text><text class="cls-37" transform="translate(984.994 354.514)">28.10</text><text class="cls-37" transform="translate(1060.254 313.252)">Usku</text><text class="cls-37" transform="translate(1060.04 322.252)">28.09</text><text class="cls-37" transform="translate(1062.808 243.21)">Levent</text><text class="cls-37" transform="translate(1065.511 252.21)">28.08</text><text class="cls-39" transform="translate(1061.032 180.438)">T</text><text class="cls-37" transform="translate(1065.056 180.438)">arabya</text><text class="cls-37" transform="translate(1065.752 189.438)">28.07</text><text class="cls-37" transform="translate(1056.177 111.606)">Bebek</text><text class="cls-37" transform="translate(1058.048 120.606)">28.06</text><text class="cls-37" transform="translate(975.454 77.969)">Beykoz</text><text class="cls-37" transform="translate(979.2 86.969)">28.03</text><text class="cls-37" transform="translate(879.045 120.972)">Accounting</text><text class="cls-37" transform="translate(890.284 129.972)">28.02</text><text class="cls-37" transform="translate(962.293 121.783)">Kanlica</text><text class="cls-37" transform="translate(966.248 130.783)">28.04</text></g></g><g id="Skeleton"><g id="Walls"><path class="cls-40" d="M339.184 260.547v-36.922h-6.62V212.63h125.729v36.046h-62.071l-.123-25.051h-21.268l.123 33.068h-8.419M339.184 272.836v6.696H247.105v74.247h-9.627v20.679M293.228 373.079v-93.547M339.184 300.999v73.459M377.108 279.532h8.205M381.21 278.812v42.219h26.63v-41.499h-7.609M407.84 279.532h49.081v41.499M354.219 279.532h-24.974M339.184 279.532v7.977M456.921 335.606v38.852M505.131 292.286h-13.192V376.484M668.896 292.286h17.744v84.435M722.539 322.877v-44.231h69.679v5.11h-3.7v90.576M722.539 335.504v39.885M816.051 278.646h121.168M836.354 301.386v74.003M836.354 287.832v-9.186M890.331 278.646v96.743M927.664 278.646v74.399h14.416M668.865 273.243h15.556v-63.25H493.927v63.25h18.845M491.939 316.747h20.744M668.684 316.595h17.745M399.418 376.484v-55.453M786.526 224.058v25.599h-63.987v-36.57l123.977 1.24V57.5M863.343 185.562h84.342V58.654M1043.132 56.985v18.667h-12.088v56.527M1017.774 104.179h-70.089M1001.573 129.889v-25.71M1001.573 144.681h-53.888M1115.227 148.829h-84.183v-4.148M1031.044 165.468v98.241M1125.826 217.752h-94.782M1031.044 279.173h87.703M1031.044 295.815v56.804h12.242v15.916h7.134v4.527M942.08 373.256v-20.211h16.523v-76.059M1016.566 320.786h-57.963M973.553 276.986h28.063v43.8M943.129 313.704h-15.736"/><path class="cls-40" d="M868.608 210.818h79.077v-33.559M532.143 273.243h22.715M574.504 273.243h11.209M596.645 273.243h11.209M627.034 273.243h23.209M532.22 316.747h22.715M574.581 316.747h11.209M596.722 316.747h11.209M627.111 316.747h23.209M351.949 256.693h-12.765M339.184 223.625h37.924M846.516 214.327v10.672h-59.99M806.284 225.599v31.141h11.074M829.794 256.74h11.544v-31.141M798.528 313.185h-10.01M826.106 313.086h10.248M354.838 320.714h-15.654"/></g><path class="cls-41" d="M1044.55 58.654a40.278 40.278 0 0 1 7.776.76l2 .4a40.05 40.05 0 0 1 12.993 5.024l.106.064a40.14 40.14 0 0 1 8.836 7.23l9.726 10.6a40.2 40.2 0 0 1 5.673 7.932l7.7 14.122a40.275 40.275 0 0 1 3.1 7.331l5.682 18.312a276.432 276.432 0 0 1 9.264 40.378 305.522 305.522 0 0 1 3.43 45.568v.389c0 1.61.01 3.229.02 4.852.035 5.739.072 11.674-.361 17.368-.515 6.779-1.606 13.708-2.66 20.409l-.325 2.066-.442 2.84c-.825 5.315-1.677 10.81-2.753 16.079a133.29 133.29 0 0 1-3.963 14.029c-.437 1.36-.874 2.719-1.3 4.078l-4.571 14.646-1.427 4.571a85.426 85.426 0 0 1-7.417 16.119c-1.2 2.141-2.453 4.316-3.663 6.42l-.982 1.708c-2.69 4.685-6.533 8.842-10.6 13.243-1.153 1.247-2.346 2.537-3.5 3.828a40.583 40.583 0 0 1-9.69 7.91 40.126 40.126 0 0 1-12.408 4.771l-2.137.435a40.344 40.344 0 0 1-7.544.8l-10.668.126H133.711a40.239 40.239 0 0 1-7.742-.753l-2.231-.438a41.187 41.187 0 0 1-12.672-4.686C85.3 352.332 76.03 320.817 67.855 293.007q-.816-2.77-1.621-5.493c-10.563-35.527-11.672-77.63-3.3-125.14a284.626 284.626 0 0 1 6.844-29.342c7.747-26.845 18.839-55.99 42.375-68.607 9.994-5.357 19.738-5.771 32.409-5.771h899.985m0-5H144.565c-12.422 0-23.5.321-34.771 6.365C84.1 73.792 72.491 105.6 64.977 131.646a288.383 288.383 0 0 0-6.964 29.86c-7.328 41.574-8.763 86.427 3.428 127.433 8.95 30.11 17.867 65.712 47.129 82.578a46.257 46.257 0 0 0 14.2 5.26l2.231.438a45.209 45.209 0 0 0 8.7.847h900.769l10.692-.126a45.191 45.191 0 0 0 8.482-.906l2.137-.435a45.2 45.2 0 0 0 13.953-5.364 45.665 45.665 0 0 0 10.879-8.887c5.1-5.721 10.9-11.277 14.7-17.911 1.562-2.719 3.133-5.434 4.669-8.169a89.931 89.931 0 0 0 7.835-17.08l6-19.216c1.918-6.148 4.1-12.277 5.387-18.6s2.246-12.825 3.236-19.145c1.189-7.6 2.448-15.2 3.031-22.871.57-7.508.355-15.135.355-22.6v-.389a309.519 309.519 0 0 0-3.486-46.316 280.429 280.429 0 0 0-9.433-41.111l-5.682-18.313a45.213 45.213 0 0 0-3.485-8.243l-7.7-14.122a45.112 45.112 0 0 0-6.379-8.918l-9.726-10.6a45.168 45.168 0 0 0-9.935-8.129l-.105-.064a45.185 45.185 0 0 0-14.612-5.65l-2-.4a45.194 45.194 0 0 0-8.744-.854z" id="Outline"/></g><g id="Signage"><g id="Female"><circle class="cls-41" cx="432.957" cy="320.714" r="10.463"/><text class="cls-42" transform="translate(424.932 337.789)">Female</text><text class="cls-43" transform="translate(426.137 343.574)">T</text><text class="cls-42" transform="translate(428.547 343.574)">oilets</text><circle class="cls-44" cx="432.886" cy="317.26" r="1.511"/><path class="cls-44" d="M432.891 319.417c-1.312 0-2.375 1.943-2.375 4.1h1.513v2.165h1.727v-2.165h1.511c-.007-2.156-1.067-4.1-2.376-4.1z"/></g><g id="Female-2"><text class="cls-42" transform="translate(389.5 309.726)">ACC</text><text class="cls-43" transform="translate(386.705 315.511)">T</text><text class="cls-42" transform="translate(389.115 315.511)">oilets</text><g id="ACC_Toilet" data-name="ACC Toilet"><circle class="cls-41" cx="394.776" cy="293.496" r="10.463"/><circle class="cls-45" cx="394.589" cy="288.562" r=".958"/><path class="cls-45" d="M395.478 293.817l1.952.6a.632.632 0 0 1 .426.426l1.1 3.8h-.674l-1.385-3.266-2.058-.178a.674.674 0 0 1-.675-.672v-4.11h1.036z"/><path class="cls-45" d="M394.838 295.164a.677.677 0 0 1-.675-.672v-.675a2.384 2.384 0 1 0 2.023 2.7c0-.106.036-.212.036-.354a2.636 2.636 0 0 0-.151-.853z"/></g></g><g id="stairs-4"><circle class="cls-41" cx="316.67" cy="318.612" r="10.504"/><text class="cls-42" transform="translate(312.121 335.319)">Fire</text><text class="cls-42" transform="translate(310.781 341.104)">Stairs</text><g id="Outline_Icons-2-2-4" data-name="Outline Icons-2-2-4"><path class="cls-46" d="M311.968 322.713h8.202M318.743 322.713v-1.427h-1.426v-1.426h-1.426v-1.426h-1.427v-1.426h-2.496M316.248 314.511l4.479 4.481M316.248 316.294v-1.783h1.782M320.727 317.208v1.784h-1.783"/></g></g><g id="stairs-4-2"><circle class="cls-41" cx="866.02" cy="317.791" r="10.504"/><text class="cls-42" transform="translate(861.471 334.498)">Fire</text><text class="cls-42" transform="translate(860.131 340.283)">Stairs</text><g id="Outline_Icons-2-2-4-2" data-name="Outline Icons-2-2-4-2"><path class="cls-46" d="M861.318 321.892h8.202M868.093 321.892v-1.427h-1.426v-1.426h-1.426v-1.426h-1.427v-1.426h-2.496M865.598 313.69l4.479 4.481M865.598 315.473v-1.783h1.782M870.077 316.387v1.784h-1.783"/></g></g><g id="stairs-4-3"><circle class="cls-41" cx="903.514" cy="197.904" r="10.504"/><text class="cls-42" transform="translate(915.254 199.152)">Stairs</text><g id="Outline_Icons-2-2-4-3" data-name="Outline Icons-2-2-4-3"><path class="cls-46" d="M898.812 202.005h8.202M905.587 202.005v-1.427h-1.426v-1.426h-1.426v-1.426h-1.427V196.3h-2.496M903.092 193.803l4.479 4.481M903.092 195.586v-1.783h1.782M907.571 196.5v1.784h-1.783"/></g></g><g id="Male"><circle class="cls-41" cx="757.379" cy="319.036" r="10.463"/><text class="cls-42" transform="translate(752.358 335.069)">Male</text><text class="cls-43" transform="translate(750.751 340.854)">T</text><text class="cls-42" transform="translate(753.161 340.854)">oilets</text><circle class="cls-47" cx="757.563" cy="315.601" r="1.584"/><path class="cls-47" d="M760.054 318.086h-4.98a3.646 3.646 0 0 0 1.584 3.394v2.937h1.809v-2.941a3.646 3.646 0 0 0 1.587-3.39z"/></g><g id="elevator-7"><text class="cls-42" transform="translate(578.195 253.198)">Elevator x4</text><circle class="cls-41" cx="589.759" cy="236.477" r="10.395"/><path class="cls-48" d="M586.878 240.605v-6.3h2.113v6.3zm2.279 0v-6.3h2.113v6.3zm4.722 0h-2.446v-6.381a.088.088 0 0 0-.08-.079h-4.515a.088.088 0 0 0-.08.079v6.381h-1.118v-8.251h8.251zm.079-8.416h-8.41a.092.092 0 0 0-.08.083v8.416a.088.088 0 0 0 .08.079h8.416a.088.088 0 0 0 .08-.079v-8.416c0-.083-.038-.083-.08-.083z"/><path class="cls-48" d="M588.453 233.305h1.285c.041 0 .079 0 .079-.042s0-.079-.042-.079h-1.327c-.041 0-.079 0-.079.079-.042.005.001.042.084.042zM592.391 236.83l.249-.249.248.249c.042.04.08 0 .125-.043v-.082l-.332-.332a.08.08 0 0 0-.109-.015l-.016.015-.331.332c-.042.041 0 .08.041.124a.079.079 0 0 0 .109.016.057.057 0 0 0 .016-.015zM592.6 237.825c.079.04.079.04.079 0l.332-.333a.093.093 0 0 0-.073-.17h-.01l-.042.041-.248.249-.249-.249a.145.145 0 0 0-.125-.041c-.041 0-.041.079-.041.125l.041.04z"/></g><g id="elevator-7-2"><text class="cls-42" transform="translate(345.099 253.391)">Elevator x1</text><circle class="cls-41" cx="356.663" cy="236.67" r="10.395"/><path class="cls-48" d="M353.782 240.8v-6.3h2.109v6.3zm2.279 0v-6.3h2.113v6.3zm4.722 0h-2.446v-6.381a.088.088 0 0 0-.08-.079h-4.515a.088.088 0 0 0-.08.079v6.381h-1.118v-8.251h8.247zm.079-8.416h-8.41a.091.091 0 0 0-.08.083v8.416a.088.088 0 0 0 .08.079h8.416a.088.088 0 0 0 .08-.079v-8.416c0-.083-.038-.083-.08-.083z"/><path class="cls-48" d="M355.357 233.5h1.285c.041 0 .079 0 .079-.042s0-.079-.042-.079h-1.327c-.041 0-.079 0-.079.079-.042.003.001.042.084.042zM359.291 237.023l.249-.249.248.249c.042.04.08 0 .125-.043v-.08l-.332-.332a.08.08 0 0 0-.109-.015l-.016.015-.331.332c-.042.041 0 .08.041.124a.079.079 0 0 0 .109.016.075.075 0 0 0 .016-.017zM359.5 238.017c.079.04.079.04.079 0l.332-.333a.093.093 0 0 0-.073-.17h-.01l-.042.041-.248.249-.249-.249a.145.145 0 0 0-.125-.041c-.041 0-.041.079-.041.125l.041.04z"/></g><g id="elevator-7-3"><text class="cls-42" transform="translate(812.094 254.176)">Elevator x1</text><circle class="cls-41" cx="823.659" cy="237.455" r="10.395"/><path class="cls-48" d="M820.778 241.583v-6.3h2.113v6.3zm2.278 0v-6.3h2.114v6.3zm4.722 0h-2.446V235.2a.088.088 0 0 0-.08-.079h-4.514a.088.088 0 0 0-.08.079v6.381h-1.118v-8.251h8.251zm.079-8.416h-8.409a.091.091 0 0 0-.08.083v8.416a.088.088 0 0 0 .08.079h8.416a.087.087 0 0 0 .079-.079v-8.416c0-.083-.038-.083-.079-.083z"/><path class="cls-48" d="M822.353 234.283h1.285c.041 0 .079 0 .079-.042s0-.079-.042-.079h-1.327c-.041 0-.079 0-.079.079-.042.005.001.042.084.042zM826.291 237.808l.249-.249.248.249c.042.04.08 0 .125-.043v-.082l-.332-.332a.08.08 0 0 0-.109-.015l-.016.015-.331.332c-.042.041 0 .08.041.124a.079.079 0 0 0 .109.016.057.057 0 0 0 .016-.015zM826.5 238.8c.08.04.08.04.08 0l.332-.333a.093.093 0 0 0-.073-.17h-.01l-.042.041-.248.249-.249-.249a.145.145 0 0 0-.125-.041c-.041 0-.041.079-.041.125l.041.04z"/></g><g id="elevator-7-4"><text class="cls-42" transform="translate(904.039 240.844)">Reception</text><circle class="cls-41" cx="914.603" cy="225.123" r="10.395"/><g id="Outline_Icons" data-name="Outline Icons"><path class="cls-46" d="M914.226 222.75v.647l-1.408.43a.62.62 0 0 0-.462.609v.207M915.472 222.75v.647l1.409.43a.618.618 0 0 1 .461.609v.207"/><ellipse class="cls-46" cx="914.849" cy="221.517" rx="1.203" ry="1.443"/><path class="cls-46" d="M916.043 221.386a.436.436 0 0 0-.114.01.767.767 0 0 1-.9-.464 1.118 1.118 0 0 1-.906.464.956.956 0 0 1-.466-.113M909.864 224.643h9.555v3.324h-9.555zM911.11 227.967v1.662M918.173 227.967v1.662"/></g></g><g id="elevator-7-5"><text class="cls-42" transform="translate(580.29 357.841)">Elevator x4</text><circle class="cls-41" cx="591.854" cy="341.12" r="10.395"/><path class="cls-48" d="M588.973 345.248v-6.3h2.118v6.3zm2.279 0v-6.3h2.113v6.3zm4.722 0h-2.446v-6.381a.088.088 0 0 0-.08-.079h-4.515a.088.088 0 0 0-.08.079v6.381h-1.118V337h8.247zm.079-8.416h-8.41a.092.092 0 0 0-.08.083v8.416a.088.088 0 0 0 .08.079h8.416a.084.084 0 0 0 .08-.079v-8.414c0-.083-.038-.083-.08-.083z"/><path class="cls-48" d="M590.548 337.948h1.285c.041 0 .079 0 .079-.042s0-.079-.042-.079h-1.327c-.041 0-.079 0-.079.079-.042.005.001.042.084.042zM594.485 341.473l.249-.249.248.249c.042.04.08 0 .125-.043v-.082l-.332-.332a.081.081 0 0 0-.109-.015l-.016.015-.331.332c-.042.041 0 .08.041.124a.079.079 0 0 0 .109.016.029.029 0 0 0 .016-.015zM594.691 342.468c.079.04.079.04.079 0l.332-.333a.093.093 0 0 0-.073-.17h-.01l-.042.041-.248.249-.249-.249a.145.145 0 0 0-.125-.041c-.041 0-.041.079-.041.125l.041.04z"/></g><g id="elevator-7-6"><text class="cls-42" transform="translate(362.12 356.578)">Goods</text><text class="cls-42" transform="translate(361.049 362.363)">Elevator</text><circle class="cls-41" cx="368.713" cy="340.572" r="10.395"/><g id="Outline_Icons-2" data-name="Outline Icons-2"><path class="cls-44" d="M363.294 339.519h10.838v4.712h-10.838zM364.236 339.519l3.299-1.885M373.19 339.519l-2.816-1.609M365.179 340.462v2.827M367.535 340.462v2.827M369.891 340.462v2.827M372.247 340.462v2.827M369.891 336.692a.943.943 0 0 1-1.885 0 .975.975 0 0 1 .943-.943v-1.413"/></g></g><g id="elevator-7-7"><text class="cls-42" transform="translate(805.085 353.484)">Goods</text><text class="cls-42" transform="translate(804.014 359.269)">Elevator</text><circle class="cls-41" cx="811.679" cy="337.478" r="10.395"/><g id="Outline_Icons-3" data-name="Outline Icons-3"><path class="cls-44" d="M806.26 336.425h10.838v4.712H806.26zM807.202 336.425l3.299-1.885M816.156 336.425l-2.816-1.609M808.145 337.368v2.827M810.501 337.368v2.827M812.857 337.368v2.827M815.213 337.368v2.827M812.857 333.6a.943.943 0 0 1-1.885 0 .975.975 0 0 1 .943-.943v-1.413"/></g></g><g id="kitchen"><circle class="cls-41" cx="982.872" cy="230.204" r="10.504"/><text class="cls-49" transform="translate(971.265 245.557)">W</text><text class="cls-42" transform="translate(975.728 245.557)">elcoming</text><text class="cls-42" transform="translate(973.492 251.342)">&amp; Lounge</text><g id="Outline_Icons-4" data-name="Outline Icons-4"><path class="cls-44" d="M982.466 228.193l.46.461M982.466 229.414l.474-.474M980.431 233.672v.814M985.721 233.672v.814M986.941 232.873a.8.8 0 0 1-.8.8h-6.113a.8.8 0 0 1-.814-.786v-.648a.813.813 0 0 1 .572-.776 9.006 9.006 0 0 1 6.588 0 .81.81 0 0 1 .571.776zM986.9 232a1.221 1.221 0 1 0-1.541-.822M980.791 231.18a1.221 1.221 0 1 0-1.542.822M986.638 229.608a3.652 3.652 0 1 0-7.1 0M983.212 228.94l.474.474M983.226 228.655l.46-.462"/><path class="cls-44" d="M983.279 228.789a.2.2 0 0 1-.2.2.2.2 0 0 1-.2-.2.2.2 0 0 1 .2-.2.2.2 0 0 1 .2.2z"/></g></g></g></svg>