<?xml version="1.0" encoding="utf-8"?>
<!-- Generator: Adobe Illustrator 23.0.6, SVG Export Plug-In . SVG Version: 6.00 Build 0)  -->
<svg version="1.1" id="Layer_1" xmlns="http://www.w3.org/2000/svg" xmlns:xlink="http://www.w3.org/1999/xlink" x="0px" y="0px"
	 viewBox="0 0 4195.5 1204.5" style="enable-background:new 0 0 4195.5 1204.5;" xml:space="preserve">
<style type="text/css">
	.st0{fill:#4196B1;}
	.st1{fill:#A8E0E5;}
	.st2{fill:#8ECCCE;}
	.st3{opacity:0.69;fill:#8ECCCE;enable-background:new    ;}
	.st4{fill:#93E2E0;}
	.st5{fill:#9EB6BD;}
	.st6{fill:#4FB5C6;}
	.st7{fill:#5ED0EF;}
	.st8{fill:#55BFD8;}
	.st9{fill:#EBF2F2;}
	.st10{fill:#646B6D;}
	.st11{font-family:'ArialMT';}
	.st12{font-size:22.069px;}
	.st13{letter-spacing:-2;}
	.st14{fill:none;stroke:#7A8E93;stroke-width:1.3;stroke-linecap:round;stroke-miterlimit:10;}
	.st15{font-size:20.937px;}
	.st16{fill:#7A8E93;stroke:#7A8E93;stroke-width:1.008;stroke-miterlimit:10;}
	.st17{fill:#7A8E93;stroke:#7A8E93;stroke-width:0.403;stroke-miterlimit:10;}
	.st18{font-size:20.995px;}
	.st19{fill:none;stroke:#7A8E93;stroke-width:1.584;stroke-linecap:round;stroke-miterlimit:10;}
	.st20{font-size:20.982px;}
	.st21{fill:none;stroke:#7A8E93;stroke-width:1.583;stroke-linecap:round;stroke-miterlimit:10;}
	.st22{font-size:20.635px;}
	.st23{fill:none;stroke:#7A8E93;stroke-width:1.71;stroke-miterlimit:10;}
	.st24{fill:#7A8E93;stroke:#7A8E93;stroke-width:0.5;stroke-miterlimit:10;}
	.st25{font-size:21.117px;}
	.st26{fill:none;stroke:#7A8E93;stroke-width:1.592;stroke-miterlimit:10;}
	.st27{fill:none;stroke:#7A8E93;stroke-width:1.451;stroke-linecap:round;stroke-miterlimit:10;}
	.st28{font-size:21.258px;}
	.st29{opacity:0.15;fill:#0D5577;enable-background:new    ;}
	.st30{fill:#0D5577;}
	.st31{fill:#4E9FB9;stroke:#4A90A0;stroke-width:0.401;stroke-linecap:round;stroke-linejoin:round;}
	.st32{opacity:8.000000e-02;fill:#101010;enable-background:new    ;}
	.st33{fill:#7DCFE2;stroke:#53C5F1;stroke-width:0.435;stroke-linecap:round;stroke-linejoin:round;}
	
		.st34{opacity:8.000000e-02;fill:none;stroke:#101010;stroke-width:4;stroke-linecap:round;stroke-miterlimit:10;enable-background:new    ;}
	.st35{opacity:5.000000e-02;fill:#030303;enable-background:new    ;}
	.st36{fill:#B8BFC1;}
	.st37{fill:#FFFFFF;}
	.st38{fill:#E5E8EA;}
	.st39{opacity:0.1;fill:#030303;enable-background:new    ;}
	.st40{fill:#596068;}
	.st41{fill:#9BAEB7;}
	.st42{opacity:0.1;}
	.st43{fill:#030303;}
	.st44{fill:#7A8E93;}
	.st45{fill:none;stroke:#596068;stroke-linecap:round;stroke-linejoin:round;}
	.st46{opacity:0.74;fill:#575757;enable-background:new    ;}
	.st47{font-family:'Arial-BoldMT';}
	.st48{font-size:23px;}
	.st49{letter-spacing:-1;}
	.st50{fill:none;stroke:#FFFFFF;stroke-width:5;stroke-miterlimit:10;}
	.st51{fill:none;stroke:#EBF2F2;stroke-width:8;stroke-miterlimit:10;}
</style>
<title>Rome 5 Floor</title>
<g id="Base">
	<polyline class="st0" points="3232.8,1187 4089.6,1187 4153.9,1204.5 4195.5,1195.3 4098.5,780 3913.8,821.5 3772.9,12.2 
		2680.6,48.3 1117.7,48.3 391.9,42.3 7.9,54.7 1.4,584.4 12.3,616.8 69.7,616.8 80,583.7 80,536.3 735,536.3 748.2,500.7 
		912.2,500.7 921.8,535.6 989.7,535.6 989.7,987.1 1016.6,1021.4 1058,1021.9 3214.5,1035 3212.6,1153.9 	"/>
	<polygon class="st1" points="1056.1,984.9 3216.6,997.9 3216.6,1150 4082.1,1150 4146.3,1167.5 4183.3,1159.3 4091,742.9 
		3906.7,784.4 3766,5.1 2675.7,41.2 1115.7,41.2 391,30.2 10.9,47.6 4.1,579.8 75.9,579.8 75.9,499.2 711.7,499.2 743.8,499.2 
		743.8,463.6 916.5,463.6 916.5,483.5 992.9,483.5 992.9,983.6 	"/>
	<rect x="1030.1" y="91" class="st2" width="1577.4" height="51.4"/>
	<rect x="1030.1" y="140.9" class="st3" width="1577.4" height="51.4"/>
</g>
<g id="highlights">
	<polygon class="st2" points="396.7,91 396.7,499.2 743.8,499.2 743.8,463.6 916.5,463.6 916.5,494.5 992.9,494.5 992.9,449.4 
		1030.1,449.4 1030.1,91 	"/>
	<polygon class="st2" points="2057.3,437.3 2277.4,437.3 2277.4,990.1 1922.4,990.1 1922.4,413.4 1981.7,413.4 1981.7,437.3 	"/>
	<polygon class="st2" points="2607.4,73.8 2933.9,73.8 2933.9,263.6 2778.7,263.6 2778.7,196.6 2715.8,196.6 2715.8,163 2607.4,163 
			"/>
	<rect x="2933.9" y="73.8" class="st2" width="327.6" height="189.8"/>
	<rect x="3388.5" y="261.5" class="st2" width="104.7" height="103.9"/>
	<rect x="2941.5" y="413.2" class="st2" width="287.5" height="227.4"/>
	<rect x="3390.5" y="366.8" class="st2" width="171.1" height="319.3"/>
	<polygon class="st2" points="3261.5,263.6 3493.2,263.6 3493.2,363.6 3561.6,363.6 3561.6,461.2 3851.3,461.2 3773,4.1 3261.5,23 	
		"/>
	<rect x="3353.4" y="775" class="st2" width="222.5" height="222.8"/>
	<polygon class="st2" points="3561.6,686.1 3561.6,773.9 3575.8,773.9 3575.8,804.8 3894.8,804.8 3906.7,780.3 3851.3,461.2 
		3561.6,461.2 	"/>
	<polygon class="st2" points="3575.8,1024.2 3575.8,1150 4082.1,1150 4146.3,1167.5 4183.3,1159.3 4091,742.9 3906.7,780.3 
		3894.8,804.8 3575.8,804.8 	"/>
	<polygon class="st4" points="994.7,633.4 1919.3,633.4 1919.3,989.1 992.7,986.6 	"/>
	<rect x="2282.1" y="638.9" class="st4" width="947" height="355.7"/>
	<polygon class="st2" points="2605.2,264.4 2778.7,264.4 2778.7,196.6 2715.8,196.6 2715.8,163 2607.4,163 	"/>
</g>
<g id="blanks">
	<polygon class="st5" points="391.7,499.2 72.7,499.2 72.7,579.8 4.1,579.8 9.1,46 391,30.2 	"/>
	<polygon class="st5" points="391,30.2 391,91 2604.5,93.4 2606.3,41.2 917,36.5 	"/>
	<polygon class="st5" points="3261.5,23 3261.5,73.8 2607.4,73.8 2607.4,41.2 2740.1,41.2 2925.4,33.1 3200.3,23 	"/>
	<rect x="1922.4" y="372.2" class="st5" width="59.3" height="41.2"/>
</g>
<g id="plants">
	<path id="Leaf_3" class="st6" d="M1170.4,125.4c5.2-0.7,12.3-4.5,17.7-18.1c-25.5,0.8-25,16.1-24.9,17.1h0.1
		C1165.5,125.3,1168,125.6,1170.4,125.4z"/>
	<path id="Leaf_3-2" class="st6" d="M1155.9,122.8c-5.2,0.7-12.3,4.5-17.7,18.1c25.5-0.8,25-16.1,24.9-17.1h-0.1
		C1160.7,122.9,1158.3,122.5,1155.9,122.8z"/>
	<path id="Leaf_3-3" class="st6" d="M1161.8,131.8c0.7,5.2,4.5,12.3,18.1,17.7c-0.8-25.5-16.1-25-17.1-24.9v0.1
		C1161.9,126.9,1161.6,129.3,1161.8,131.8z"/>
	<path id="Leaf_3-4" class="st6" d="M1164.4,117.3c-0.7-5.2-4.5-12.3-18.1-17.7c0.8,25.5,16.1,25,17.1,24.9v-0.1
		C1164.4,122.1,1164.7,119.7,1164.4,117.3z"/>
	<path id="Leaf_3-5" class="st7" d="M1165.8,128.8c3.1,2.4,8.8,4.1,18.7-0.2c-13.8-12.9-21.5-4.7-22-4.1v0.1
		C1163.3,126.2,1164.4,127.6,1165.8,128.8z"/>
	<path id="Leaf_3-6" class="st7" d="M1159.5,119.8c-3.1-2.4-8.8-4.1-18.7,0.2c13.8,12.9,21.5,4.7,22,4.1V124
		C1162,122.4,1160.9,120.9,1159.5,119.8z"/>
	<path id="Leaf_3-7" class="st7" d="M1158,127.6c-2.4,3.1-4.1,8.8,0.2,18.7c12.9-13.8,4.7-21.5,4.1-22h-0.1
		C1160.5,125.1,1159.1,126.2,1158,127.6z"/>
	<path id="Leaf_3-8" class="st7" d="M1166.9,121.4c2.4-3.1,4.1-8.8-0.2-18.7c-12.9,13.8-4.7,21.5-4.1,22h0.1
		C1164.3,123.9,1165.8,122.8,1166.9,121.4z"/>
	<path id="Leaf_3-9" class="st6" d="M1500.5,152c5.2-0.7,12.3-4.5,17.7-18.1c-25.5,0.8-25,16.1-24.9,17.1h0.1
		C1495.6,152,1498.1,152.3,1500.5,152z"/>
	<path id="Leaf_3-10" class="st6" d="M1486,149.5c-5.2,0.7-12.3,4.5-17.7,18.1c25.5-0.8,25-16.1,24.9-17.1h-0.1
		C1490.9,149.5,1488.4,149.2,1486,149.5z"/>
	<path id="Leaf_3-11" class="st6" d="M1492,158.4c0.7,5.2,4.5,12.3,18.1,17.7c-0.8-25.5-16.1-25-17.1-24.9v0.1
		C1492,153.6,1491.7,156,1492,158.4z"/>
	<path id="Leaf_3-12" class="st6" d="M1494.5,143.9c-0.7-5.2-4.5-12.3-18.1-17.7c0.8,25.5,16.1,25,17.1,24.9V151
		C1494.5,148.8,1494.8,146.3,1494.5,143.9z"/>
	<path id="Leaf_3-13" class="st7" d="M1495.9,155.4c3.1,2.4,8.8,4.1,18.7-0.2c-13.8-12.9-21.5-4.7-22-4.1v0.1
		C1493.4,152.8,1494.5,154.3,1495.9,155.4z"/>
	<path id="Leaf_3-14" class="st7" d="M1489.7,146.5c-3.1-2.4-8.8-4.1-18.7,0.2c13.8,12.9,21.5,4.7,22,4.1v-0.1
		C1492.2,149.1,1491.1,147.6,1489.7,146.5z"/>
	<path id="Leaf_3-15" class="st7" d="M1488.1,154.3c-2.4,3.1-4.1,8.8,0.2,18.7c12.9-13.8,4.7-21.5,4.1-22h-0.1
		C1490.7,151.8,1489.2,152.9,1488.1,154.3z"/>
	<path id="Leaf_3-16" class="st7" d="M1497.1,148c2.4-3.1,4.1-8.8-0.2-18.7c-12.9,13.8-4.7,21.5-4.1,22h0.1
		C1494.5,150.6,1495.9,149.5,1497.1,148z"/>
	<path id="Leaf_3-17" class="st6" d="M1826.1,142.3c5.2-0.7,12.3-4.5,17.7-18.1c-25.5,0.8-25,16.1-24.9,17.1h0.1
		C1821.2,142.3,1823.6,142.6,1826.1,142.3z"/>
	<path id="Leaf_3-18" class="st6" d="M1811.5,139.8c-5.2,0.7-12.3,4.5-17.7,18.1c25.5-0.8,25-16.1,24.9-17.1h-0.1
		C1816.4,139.8,1814,139.5,1811.5,139.8z"/>
	<path id="Leaf_3-19" class="st6" d="M1817.5,148.7c0.7,5.2,4.5,12.3,18.1,17.7c-0.8-25.5-16.1-25-17.1-24.9v0.1
		C1817.6,143.9,1817.2,146.3,1817.5,148.7z"/>
	<path id="Leaf_3-20" class="st6" d="M1820.1,134.2c-0.7-5.2-4.5-12.3-18.1-17.7c0.8,25.5,16.1,25,17.1,24.9v-0.1
		C1820,139.1,1820.3,136.6,1820.1,134.2z"/>
	<path id="Leaf_3-21" class="st7" d="M1821.5,145.7c3.1,2.4,8.8,4.1,18.7-0.2c-13.8-12.9-21.5-4.7-22-4.1v0.1
		C1818.9,143.2,1820,144.6,1821.5,145.7z"/>
	<path id="Leaf_3-22" class="st7" d="M1815.2,136.8c-3.1-2.4-8.8-4.1-18.7,0.2c13.8,12.9,21.5,4.7,22,4.1V141
		C1817.7,139.4,1816.6,137.9,1815.2,136.8z"/>
	<path id="Leaf_3-23" class="st7" d="M1813.6,144.6c-2.4,3.1-4.1,8.8,0.2,18.7c12.9-13.8,4.7-21.5,4.1-22h-0.1
		C1816.2,142.1,1814.8,143.2,1813.6,144.6z"/>
	<path id="Leaf_3-24" class="st7" d="M1822.6,138.3c2.4-3.1,4.1-8.8-0.2-18.7c-12.9,13.8-4.7,21.5-4.1,22h0.1
		C1820,140.9,1821.5,139.8,1822.6,138.3z"/>
	<path id="Leaf_3-25" class="st6" d="M1887.3,140.6c5.2-0.7,12.3-4.5,17.7-18.1c-25.5,0.8-25,16.1-24.9,17.1h0.1
		C1882.5,140.5,1884.9,140.8,1887.3,140.6z"/>
	<path id="Leaf_3-26" class="st6" d="M1872.8,138c-5.2,0.7-12.3,4.5-17.7,18.1c25.5-0.8,25-16.1,24.9-17.1h-0.1
		C1877.7,138,1875.3,137.7,1872.8,138z"/>
	<path id="Leaf_3-27" class="st6" d="M1878.8,146.9c0.7,5.2,4.5,12.3,18.1,17.7c-0.8-25.5-16.1-25-17.1-24.9v0.1
		C1878.9,142.1,1878.5,144.5,1878.8,146.9z"/>
	<path id="Leaf_3-28" class="st6" d="M1881.4,132.4c-0.7-5.2-4.5-12.3-18.1-17.7c0.8,25.5,16.1,25,17.1,24.9v-0.1
		C1881.3,137.3,1881.6,134.8,1881.4,132.4z"/>
	<path id="Leaf_3-29" class="st7" d="M1882.7,143.9c3.1,2.4,8.8,4.1,18.7-0.2c-13.8-12.9-21.5-4.7-22-4.1v0.1
		C1880.2,141.4,1881.3,142.8,1882.7,143.9z"/>
	<path id="Leaf_3-30" class="st7" d="M1876.5,135c-3.1-2.4-8.8-4.1-18.7,0.2c13.8,12.9,21.5,4.7,22,4.1v-0.1
		C1879,137.6,1877.9,136.1,1876.5,135z"/>
	<path id="Leaf_3-31" class="st7" d="M1874.9,142.8c-2.4,3.1-4.1,8.8,0.2,18.7c12.9-13.8,4.7-21.5,4.1-22h-0.1
		C1877.5,140.3,1876.1,141.4,1874.9,142.8z"/>
	<path id="Leaf_3-32" class="st7" d="M1883.9,136.5c2.4-3.1,4.1-8.8-0.2-18.7c-12.9,13.8-4.7,21.5-4.1,22h0.1
		C1881.3,139.1,1882.7,138,1883.9,136.5z"/>
	<path id="Leaf_3-33" class="st6" d="M2142.6,136c5.2-0.7,12.3-4.5,17.7-18.1c-25.5,0.8-25,16.1-24.9,17.1h0.1
		C2137.7,135.9,2140.2,136.3,2142.6,136z"/>
	<path id="Leaf_3-34" class="st6" d="M2128.1,133.4c-5.2,0.7-12.3,4.5-17.7,18.1c25.5-0.8,25-16.1,24.9-17.1h-0.1
		C2133,133.5,2130.5,133.2,2128.1,133.4z"/>
	<path id="Leaf_3-35" class="st6" d="M2134.1,142.4c0.7,5.2,4.5,12.3,18.1,17.7c-0.8-25.5-16.1-25-17.1-24.9v0.1
		C2134.1,137.5,2133.8,140,2134.1,142.4z"/>
	<path id="Leaf_3-36" class="st6" d="M2136.6,127.9c-0.7-5.2-4.5-12.3-18.1-17.7c0.8,25.5,16.1,25,17.1,24.9V135
		C2136.6,132.7,2136.9,130.3,2136.6,127.9z"/>
	<path id="Leaf_3-37" class="st7" d="M2138,139.4c3.1,2.4,8.8,4.1,18.7-0.2c-13.8-12.9-21.5-4.7-22-4.1v0.1
		C2135.5,136.8,2136.6,138.3,2138,139.4z"/>
	<path id="Leaf_3-38" class="st7" d="M2131.8,130.4c-3.1-2.4-8.8-4.1-18.7,0.2c13.8,12.9,21.5,4.7,22,4.1v-0.1
		C2134.3,133,2133.2,131.6,2131.8,130.4z"/>
	<path id="Leaf_3-39" class="st7" d="M2130.2,138.3c-2.4,3.1-4.1,8.8,0.2,18.7c12.9-13.8,4.7-21.5,4.1-22h-0.1
		C2132.8,135.7,2131.3,136.8,2130.2,138.3z"/>
	<path id="Leaf_3-40" class="st7" d="M2139.1,132c2.4-3.1,4.1-8.8-0.2-18.7c-12.9,13.8-4.7,21.5-4.1,22h0.1
		C2136.6,134.5,2138,133.4,2139.1,132z"/>
	<path id="Leaf_3-41" class="st6" d="M2196.8,121.9c5.2-0.7,12.3-4.5,17.7-18.1c-25.5,0.8-25,16.1-24.9,17.1h0.1
		C2191.9,121.9,2194.3,122.2,2196.8,121.9z"/>
	<path id="Leaf_3-42" class="st6" d="M2182.3,119.4c-5.2,0.7-12.3,4.5-17.7,18.1c25.5-0.8,25-16.1,24.9-17.1h-0.1
		C2187.1,119.4,2184.7,119.1,2182.3,119.4z"/>
	<path id="Leaf_3-43" class="st6" d="M2188.2,128.3c0.7,5.2,4.5,12.3,18.1,17.7c-0.8-25.5-16.1-25-17.1-24.9v0.1
		C2188.3,123.5,2188,125.9,2188.2,128.3z"/>
	<path id="Leaf_3-44" class="st6" d="M2190.8,113.8c-0.7-5.2-4.5-12.3-18.1-17.7c0.8,25.5,16.1,25,17.1,24.9v-0.1
		C2190.7,118.7,2191.1,116.2,2190.8,113.8z"/>
	<path id="Leaf_3-45" class="st7" d="M2192.2,125.3c3.1,2.4,8.8,4.1,18.7-0.2c-13.8-12.9-21.5-4.7-22-4.1v0.1
		C2189.7,122.8,2190.8,124.2,2192.2,125.3z"/>
	<path id="Leaf_3-46" class="st7" d="M2185.9,116.4c-3.1-2.4-8.8-4.1-18.7,0.2c13.8,12.9,21.5,4.7,22,4.1v-0.1
		C2188.4,119,2187.3,117.5,2185.9,116.4z"/>
	<path id="Leaf_3-47" class="st7" d="M2184.4,124.2c-2.4,3.1-4.1,8.8,0.2,18.7c12.9-13.8,4.7-21.5,4.1-22h-0.1
		C2186.9,121.7,2185.5,122.8,2184.4,124.2z"/>
	<path id="Leaf_3-48" class="st7" d="M2193.3,117.9c2.4-3.1,4.1-8.8-0.2-18.7c-12.9,13.8-4.7,21.5-4.1,22h0.1
		C2190.7,120.5,2192.2,119.4,2193.3,117.9z"/>
	<path id="Leaf_3-49" class="st6" d="M2532.6,164c5.2-0.7,12.3-4.5,17.7-18.1c-25.5,0.8-25,16.1-24.9,17.1h0.1
		C2527.7,163.9,2530.2,164.3,2532.6,164z"/>
	<path id="Leaf_3-50" class="st6" d="M2518.1,161.4c-5.2,0.7-12.3,4.5-17.7,18.1c25.5-0.8,25-16.1,24.9-17.1h-0.1
		C2523,161.5,2520.5,161.2,2518.1,161.4z"/>
	<path id="Leaf_3-51" class="st6" d="M2524.1,170.4c0.7,5.2,4.5,12.3,18.1,17.7c-0.8-25.5-16.1-25-17.1-24.9v0.1
		C2524.1,165.5,2523.8,167.9,2524.1,170.4z"/>
	<path id="Leaf_3-52" class="st6" d="M2526.6,155.9c-0.7-5.2-4.5-12.3-18.1-17.7c0.8,25.5,16.1,25,17.1,24.9V163
		C2526.6,160.7,2526.9,158.3,2526.6,155.9z"/>
	<path id="Leaf_3-53" class="st7" d="M2528,167.4c3.1,2.4,8.8,4.1,18.7-0.2c-13.8-12.9-21.5-4.7-22-4.1v0.1
		C2525.5,164.8,2526.6,166.2,2528,167.4z"/>
	<path id="Leaf_3-54" class="st7" d="M2521.8,158.4c-3.1-2.4-8.8-4.1-18.7,0.2c13.8,12.9,21.5,4.7,22,4.1v-0.1
		C2524.3,161,2523.2,159.6,2521.8,158.4z"/>
	<path id="Leaf_3-55" class="st7" d="M2520.2,166.2c-2.4,3.1-4.1,8.8,0.2,18.7c12.9-13.8,4.7-21.5,4.1-22h-0.1
		C2522.8,163.7,2521.3,164.8,2520.2,166.2z"/>
	<path id="Leaf_3-56" class="st7" d="M2529.1,160c2.4-3.1,4.1-8.8-0.2-18.7c-12.9,13.8-4.7,21.5-4.1,22h0.1
		C2526.6,162.5,2528,161.4,2529.1,160z"/>
	<path id="Leaf_3-57" class="st6" d="M2543.9,124.5c5.2-0.7,12.3-4.5,17.7-18.1c-25.5,0.8-25,16.1-24.9,17.1h0.1
		C2539.1,124.5,2541.5,124.8,2543.9,124.5z"/>
	<path id="Leaf_3-58" class="st6" d="M2529.4,122c-5.2,0.7-12.3,4.5-17.7,18.1c25.5-0.8,25-16.1,24.9-17.1h-0.1
		C2534.3,122,2531.9,121.7,2529.4,122z"/>
	<path id="Leaf_3-59" class="st6" d="M2535.4,130.9c0.7,5.2,4.5,12.3,18.1,17.7c-0.8-25.5-16.1-25-17.1-24.9v0.1
		C2535.5,126.1,2535.1,128.5,2535.4,130.9z"/>
	<path id="Leaf_3-60" class="st6" d="M2538,116.4c-0.7-5.2-4.5-12.3-18.1-17.7c0.8,25.5,16.1,25,17.1,24.9v-0.1
		C2537.9,121.3,2538.2,118.8,2538,116.4z"/>
	<path id="Leaf_3-61" class="st7" d="M2539.3,127.9c3.1,2.4,8.8,4.1,18.7-0.2c-13.8-12.9-21.5-4.7-22-4.1v0.1
		C2536.8,125.3,2537.9,126.8,2539.3,127.9z"/>
	<path id="Leaf_3-62" class="st7" d="M2533.1,119c-3.1-2.4-8.8-4.1-18.7,0.2c13.8,12.9,21.5,4.7,22,4.1v-0.1
		C2535.6,121.6,2534.5,120.1,2533.1,119z"/>
	<path id="Leaf_3-63" class="st7" d="M2531.5,126.8c-2.4,3.1-4.1,8.8,0.2,18.7c12.9-13.8,4.7-21.5,4.1-22h-0.1
		C2534.1,124.3,2532.7,125.4,2531.5,126.8z"/>
	<path id="Leaf_3-64" class="st7" d="M2540.5,120.5c2.4-3.1,4.1-8.8-0.2-18.7c-12.9,13.8-4.7,21.5-4.1,22h0.1
		C2537.9,123.1,2539.3,122,2540.5,120.5z"/>
	<path id="Leaf_3-65" class="st6" d="M2591.1,157.3c5.2-0.7,12.3-4.5,17.7-18.1c-25.5,0.8-25,16.1-24.9,17.1h0.1
		C2586.2,157.2,2588.6,157.6,2591.1,157.3z"/>
	<path id="Leaf_3-66" class="st6" d="M2576.6,154.7c-5.2,0.7-12.3,4.5-17.7,18.1c25.5-0.8,25-16.1,24.9-17.1h-0.1
		C2581.4,154.8,2579,154.5,2576.6,154.7z"/>
	<path id="Leaf_3-67" class="st6" d="M2582.5,163.7c0.7,5.2,4.5,12.3,18.1,17.7c-0.8-25.5-16.1-25-17.1-24.9v0.1
		C2582.6,158.8,2582.3,161.2,2582.5,163.7z"/>
	<path id="Leaf_3-68" class="st6" d="M2585.1,149.2c-0.7-5.2-4.5-12.3-18.1-17.7c0.8,25.5,16.1,25,17.1,24.9v-0.1
		C2585,154,2585.4,151.6,2585.1,149.2z"/>
	<path id="Leaf_3-69" class="st7" d="M2586.5,160.7c3.1,2.4,8.8,4.1,18.7-0.2c-13.8-12.9-21.5-4.7-22-4.1v0.1
		C2583.9,158.1,2585.1,159.5,2586.5,160.7z"/>
	<path id="Leaf_3-70" class="st7" d="M2580.2,151.7c-3.1-2.4-8.8-4.1-18.7,0.2c13.8,12.9,21.5,4.7,22,4.1v-0.1
		C2582.7,154.3,2581.6,152.9,2580.2,151.7z"/>
	<path id="Leaf_3-71" class="st7" d="M2578.6,159.5c-2.4,3.1-4.1,8.8,0.2,18.7c12.9-13.8,4.7-21.5,4.1-22h-0.1
		C2581.2,157,2579.8,158.1,2578.6,159.5z"/>
	<path id="Leaf_3-72" class="st7" d="M2587.6,153.3c2.4-3.1,4.1-8.8-0.2-18.7c-12.9,13.8-4.7,21.5-4.1,22h0.1
		C2585,155.8,2586.5,154.7,2587.6,153.3z"/>
	<path id="Leaf_3-73" class="st6" d="M1550.5,148.9c5.2-0.7,12.3-4.5,17.7-18.1c-25.5,0.8-25,16.1-24.9,17.1h0.1
		C1545.6,148.8,1548.1,149.1,1550.5,148.9z"/>
	<path id="Leaf_3-74" class="st6" d="M1536,146.3c-5.2,0.7-12.3,4.5-17.7,18.1c25.5-0.8,25-16.1,24.9-17.1h-0.1
		C1540.8,146.3,1538.4,146,1536,146.3z"/>
	<path id="Leaf_3-75" class="st6" d="M1541.9,155.2c0.7,5.2,4.5,12.3,18.1,17.7c-0.8-25.5-16.1-25-17.1-24.9v0.1
		C1542,150.4,1541.7,152.8,1541.9,155.2z"/>
	<path id="Leaf_3-76" class="st6" d="M1544.5,140.7c-0.7-5.2-4.5-12.3-18.1-17.7c0.8,25.5,16.1,25,17.1,24.9v-0.1
		C1544.5,145.6,1544.8,143.2,1544.5,140.7z"/>
	<path id="Leaf_3-77" class="st7" d="M1545.9,152.2c3.1,2.4,8.8,4.1,18.7-0.2c-13.8-12.9-21.5-4.7-22-4.1v0.1
		C1543.4,149.7,1544.5,151.1,1545.9,152.2z"/>
	<path id="Leaf_3-78" class="st7" d="M1539.6,143.3c-3.1-2.4-8.8-4.1-18.7,0.2c13.8,12.9,21.5,4.7,22,4.1v-0.1
		C1542.1,145.9,1541,144.4,1539.6,143.3z"/>
	<path id="Leaf_3-79" class="st7" d="M1538.1,151.1c-2.4,3.1-4.1,8.8,0.2,18.7c12.9-13.8,4.7-21.5,4.1-22h-0.1
		C1540.6,148.6,1539.2,149.7,1538.1,151.1z"/>
	<path id="Leaf_3-80" class="st7" d="M1547,144.9c2.4-3.1,4.1-8.8-0.2-18.7c-12.9,13.8-4.7,21.5-4.1,22h0.1
		C1544.4,147.4,1545.9,146.3,1547,144.9z"/>
	<path id="Leaf_3-81" class="st8" d="M1202.3,142L1202.3,142c-0.2-1.1-4.2-15.8-28.8-8.9c9.2,11.4,17.1,12.9,22.3,12
		C1198.2,144.6,1200.4,143.6,1202.3,142z"/>
	<path id="Leaf_3-82" class="st8" d="M1202.3,141.3L1202.3,141.3c0.2,1.1,4.2,15.8,28.8,8.9c-9.2-11.4-17.1-12.9-22.3-12
		C1206.5,138.7,1204.2,139.8,1202.3,141.3z"/>
	<path id="Leaf_3-83" class="st8" d="M1202.8,142.1L1202.8,142.1c-1.1,0.2-15.8,4.2-8.9,28.8c11.4-9.2,12.9-17.1,12-22.3
		C1205.4,146.2,1204.3,144,1202.8,142.1z"/>
	<path id="Leaf_3-84" class="st8" d="M1202.1,142.1L1202.1,142.1c1.1-0.2,15.8-4.2,8.9-28.8c-11.4,9.2-12.9,17.1-12,22.3
		C1199.5,137.9,1200.6,140.2,1202.1,142.1z"/>
	<path id="Leaf_3-85" class="st7" d="M1203,141.9L1203,141.9c-0.6-0.5-10.5-6.1-19.8,10.4c10.8,1.1,15.7-2.2,17.9-5.4
		C1202.2,145.4,1202.8,143.7,1203,141.9z"/>
	<path id="Leaf_3-86" class="st7" d="M1202.6,141.5L1202.6,141.5c0.6,0.5,10.5,6.1,19.8-10.4c-10.8-1.1-15.7,2.2-17.9,5.4
		C1203.5,138,1202.8,139.7,1202.6,141.5z"/>
	<path id="Leaf_3-87" class="st7" d="M1203.3,141.7L1203.3,141.7c-0.5,0.6-6.1,10.5,10.4,19.8c1.1-10.8-2.2-15.7-5.4-17.9
		C1206.8,142.5,1205.1,141.9,1203.3,141.7z"/>
	<path id="Leaf_3-88" class="st7" d="M1202.9,142L1202.9,142c0.5-0.6,6.1-10.5-10.4-19.8c-1.1,10.8,2.2,15.7,5.4,17.9
		C1199.4,141.2,1201.1,141.8,1202.9,142z"/>
	<path id="Leaf_3-89" class="st8" d="M1121.3,135.3L1121.3,135.3c0.2-1.1,0.7-16.3-24.8-17.1c5.4,13.6,12.4,17.4,17.7,18.1
		C1116.6,136.5,1119,136.2,1121.3,135.3z"/>
	<path id="Leaf_3-90" class="st8" d="M1121.5,134.6L1121.5,134.6c-0.2,1.1-0.7,16.3,24.8,17.1c-5.4-13.6-12.4-17.4-17.7-18.1
		C1126.3,133.4,1123.8,133.7,1121.5,134.6z"/>
	<path id="Leaf_3-91" class="st8" d="M1121.8,135.5v-0.1c-1-0.1-16.3-0.6-17.1,24.9c13.6-5.4,17.4-12.4,18.1-17.7
		C1123,140.2,1122.6,137.7,1121.8,135.5z"/>
	<path id="Leaf_3-92" class="st8" d="M1121.1,135.2v0.1c1,0.1,16.3,0.6,17.1-24.9c-13.6,5.4-17.4,12.4-18.1,17.7
		C1119.9,130.5,1120.2,133,1121.1,135.2z"/>
	<path id="Leaf_3-93" class="st7" d="M1122,135.4L1122,135.4c-0.5-0.6-8.2-8.9-22,4c9.9,4.3,15.6,2.6,18.7,0.2
		C1120.2,138.5,1121.3,137,1122,135.4z"/>
	<path id="Leaf_3-94" class="st7" d="M1121.8,134.9L1121.8,134.9c0.5,0.6,8.2,8.9,22-4c-9.9-4.3-15.6-2.6-18.7-0.2
		C1123.6,131.8,1122.5,133.3,1121.8,134.9z"/>
	<path id="Leaf_3-95" class="st7" d="M1122.3,135.2L1122.3,135.2c-0.6,0.5-8.9,8.2,4,22c4.3-9.9,2.6-15.6,0.2-18.7
		C1125.5,137.1,1124,136,1122.3,135.2z"/>
	<path id="Leaf_3-96" class="st7" d="M1121.9,135.5L1121.9,135.5c0.6-0.5,8.9-8.2-4-22c-4.3,9.9-2.6,15.6-0.2,18.7
		C1118.8,133.6,1120.2,134.8,1121.9,135.5z"/>
	<path id="Leaf_3-97" class="st8" d="M1456.9,126.2L1456.9,126.2c0.2-1.1,0.7-16.3-24.8-17.1c5.4,13.6,12.4,17.4,17.7,18.1
		C1452.2,127.4,1454.6,127.1,1456.9,126.2z"/>
	<path id="Leaf_3-98" class="st8" d="M1457.1,125.5L1457.1,125.5c-0.2,1.1-0.7,16.3,24.8,17.1c-5.4-13.6-12.4-17.4-17.7-18.1
		C1461.9,124.3,1459.4,124.6,1457.1,125.5z"/>
	<path id="Leaf_3-99" class="st8" d="M1457.4,126.4L1457.4,126.4c-1.1-0.2-16.3-0.7-17.1,24.8c13.6-5.4,17.4-12.4,18.1-17.7
		C1458.6,131.1,1458.3,128.6,1457.4,126.4z"/>
	<path id="Leaf_3-100" class="st8" d="M1456.7,126.1L1456.7,126.1c1.1,0.2,16.3,0.7,17.1-24.8c-13.6,5.4-17.4,12.4-18.1,17.7
		C1455.5,121.4,1455.8,123.9,1456.7,126.1z"/>
	<path id="Leaf_3-101" class="st7" d="M1457.6,126.3L1457.6,126.3c-0.5-0.6-8.2-8.9-22,4c9.9,4.3,15.6,2.6,18.7,0.2
		C1455.8,129.4,1456.9,127.9,1457.6,126.3z"/>
	<path id="Leaf_3-102" class="st7" d="M1457.4,125.8L1457.4,125.8c0.5,0.6,8.2,8.9,22-4c-9.9-4.3-15.6-2.6-18.7-0.2
		C1459.2,122.7,1458.1,124.2,1457.4,125.8z"/>
	<path id="Leaf_3-103" class="st7" d="M1457.9,126.1L1457.9,126.1c-0.6,0.5-8.9,8.2,4,22c4.3-9.9,2.6-15.6,0.2-18.7
		C1461.1,128,1459.6,126.9,1457.9,126.1z"/>
	<path id="Leaf_3-104" class="st7" d="M1457.5,126.4L1457.5,126.4c0.6-0.5,8.9-8.2-4-22c-4.3,9.9-2.6,15.6-0.2,18.7
		C1454.4,124.5,1455.8,125.7,1457.5,126.4z"/>
	<path id="Leaf_3-105" class="st8" d="M1776.6,124.2L1776.6,124.2c0.2-1.1,0.7-16.3-24.8-17.1c5.4,13.6,12.4,17.4,17.7,18.1
		C1771.8,125.4,1774.3,125.1,1776.6,124.2z"/>
	<path id="Leaf_3-106" class="st8" d="M1776.8,123.5L1776.8,123.5c-0.2,1.1-0.7,16.3,24.8,17.1c-5.4-13.6-12.4-17.4-17.7-18.1
		C1781.5,122.3,1779.1,122.6,1776.8,123.5z"/>
	<path id="Leaf_3-107" class="st8" d="M1777,124.4L1777,124.4c-1.1-0.2-16.3-0.7-17.1,24.8c13.6-5.4,17.4-12.4,18.1-17.7
		C1778.2,129.1,1777.9,126.7,1777,124.4z"/>
	<path id="Leaf_3-108" class="st8" d="M1776.3,124.2L1776.3,124.2c1.1,0.2,16.3,0.7,17.1-24.8c-13.6,5.4-17.4,12.4-18.1,17.7
		C1775.1,119.4,1775.5,121.9,1776.3,124.2z"/>
	<path id="Leaf_3-109" class="st7" d="M1777.3,124.3L1777.3,124.3c-0.5-0.6-8.2-8.9-22,4c9.9,4.3,15.6,2.6,18.7,0.2
		C1775.4,127.4,1776.5,125.9,1777.3,124.3z"/>
	<path id="Leaf_3-110" class="st7" d="M1777,123.8L1777,123.8c0.5,0.6,8.2,8.9,22-4c-9.9-4.3-15.6-2.6-18.7-0.2
		C1778.9,120.7,1777.8,122.2,1777,123.8z"/>
	<path id="Leaf_3-111" class="st7" d="M1777.6,124.1L1777.6,124.1c-0.6,0.5-8.9,8.2,4,22c4.3-9.9,2.6-15.6,0.2-18.7
		C1780.7,126,1779.3,124.9,1777.6,124.1z"/>
	<path id="Leaf_3-112" class="st7" d="M1777.1,124.4L1777.1,124.4c0.6-0.5,8.9-8.2-4-22c-4.3,9.9-2.6,15.6-0.2,18.7
		C1774,122.5,1775.5,123.7,1777.1,124.4z"/>
	<path id="Leaf_3-113" class="st8" d="M1847.4,121L1847.4,121c0.2-1.1,0.7-16.3-24.8-17.1c5.4,13.6,12.4,17.4,17.7,18.1
		C1842.6,122.2,1845.1,121.9,1847.4,121z"/>
	<path id="Leaf_3-114" class="st8" d="M1847.6,120.3L1847.6,120.3c-0.2,1.1-0.7,16.3,24.8,17.1c-5.4-13.6-12.4-17.4-17.7-18.1
		C1852.3,119.1,1849.9,119.4,1847.6,120.3z"/>
	<path id="Leaf_3-115" class="st8" d="M1847.8,121.2L1847.8,121.2c-1.1-0.2-16.3-0.7-17.1,24.8c13.6-5.4,17.4-12.4,18.1-17.7
		C1849,125.9,1848.7,123.5,1847.8,121.2z"/>
	<path id="Leaf_3-116" class="st8" d="M1847.1,121L1847.1,121c1.1,0.2,16.3,0.7,17.1-24.8c-13.6,5.4-17.4,12.4-18.1,17.7
		C1845.9,116.2,1846.2,118.7,1847.1,121z"/>
	<path id="Leaf_3-117" class="st7" d="M1848.1,121.1L1848.1,121.1c-0.5-0.6-8.2-8.9-22,4c9.9,4.3,15.6,2.6,18.7,0.2
		C1846.2,124.2,1847.3,122.8,1848.1,121.1z"/>
	<path id="Leaf_3-118" class="st7" d="M1847.8,120.6L1847.8,120.6c0.5,0.6,8.2,8.9,22-4c-9.9-4.3-15.6-2.6-18.7-0.2
		C1849.7,117.5,1848.6,119,1847.8,120.6z"/>
	<path id="Leaf_3-119" class="st7" d="M1848.4,121L1848.4,121c-0.6,0.5-8.9,8.2,4,22c4.3-9.9,2.6-15.6,0.2-18.7
		C1851.5,122.8,1850.1,121.7,1848.4,121z"/>
	<path id="Leaf_3-120" class="st7" d="M1847.9,121.2L1847.9,121.2c0.6-0.5,8.9-8.2-4-22c-4.3,9.9-2.6,15.6-0.2,18.7
		C1844.8,119.4,1846.3,120.5,1847.9,121.2z"/>
	<path id="Leaf_3-121" class="st8" d="M2093.5,125.2h0.1c0.1-1,0.6-16.3-24.9-17.1c5.4,13.6,12.4,17.4,17.7,18.1
		C2088.8,126.4,2091.3,126.1,2093.5,125.2z"/>
	<path id="Leaf_3-122" class="st8" d="M2093.8,124.5h-0.1c-0.1,1-0.6,16.3,24.9,17.1c-5.4-13.6-12.4-17.4-17.7-18.1
		C2098.5,123.3,2096,123.6,2093.8,124.5z"/>
	<path id="Leaf_3-123" class="st8" d="M2094,125.4L2094,125.4c-1.1-0.2-16.3-0.7-17.1,24.8c13.6-5.4,17.4-12.4,18.1-17.7
		C2095.2,130.1,2094.9,127.6,2094,125.4z"/>
	<path id="Leaf_3-124" class="st8" d="M2093.3,125.1L2093.3,125.1c1.1,0.2,16.3,0.7,17.1-24.8c-13.6,5.4-17.4,12.4-18.1,17.7
		C2092.1,120.4,2092.4,122.9,2093.3,125.1z"/>
	<path id="Leaf_3-125" class="st7" d="M2094.2,125.3L2094.2,125.3c-0.5-0.6-8.2-8.9-22,4c9.9,4.3,15.6,2.6,18.7,0.2
		C2092.4,128.4,2093.5,126.9,2094.2,125.3z"/>
	<path id="Leaf_3-126" class="st7" d="M2094,124.8L2094,124.8c0.5,0.6,8.2,8.9,22-4c-9.9-4.3-15.6-2.6-18.7-0.2
		C2095.8,121.7,2094.7,123.1,2094,124.8z"/>
	<path id="Leaf_3-127" class="st7" d="M2094.6,125.1L2094.6,125.1c-0.6,0.5-8.9,8.2,4,22c4.3-9.9,2.6-15.6,0.2-18.7
		C2097.7,127,2096.2,125.9,2094.6,125.1z"/>
	<path id="Leaf_3-128" class="st7" d="M2094.1,125.4L2094.1,125.4c0.6-0.5,8.9-8.2-4-22c-4.3,9.9-2.6,15.6-0.2,18.7
		C2091,123.5,2092.4,124.6,2094.1,125.4z"/>
	<path id="Leaf_3-129" class="st8" d="M2172.6,150.1h0.1c0.1-1,0.6-16.3-24.9-17.1c5.4,13.6,12.4,17.4,17.7,18.1
		C2167.9,151.3,2170.3,151,2172.6,150.1z"/>
	<path id="Leaf_3-130" class="st8" d="M2172.8,149.4h-0.1c-0.1,1-0.6,16.3,24.9,17.1c-5.4-13.6-12.4-17.4-17.7-18.1
		C2177.6,148.2,2175.1,148.5,2172.8,149.4z"/>
	<path id="Leaf_3-131" class="st8" d="M2173.1,150.3v-0.1c-1-0.1-16.3-0.6-17.1,24.9c13.6-5.4,17.4-12.4,18.1-17.7
		C2174.3,155,2173.9,152.5,2173.1,150.3z"/>
	<path id="Leaf_3-132" class="st8" d="M2172.4,150v0.1c1,0.1,16.3,0.6,17.1-24.9c-13.6,5.4-17.4,12.4-18.1,17.7
		C2171.2,145.3,2171.5,147.8,2172.4,150z"/>
	<path id="Leaf_3-133" class="st7" d="M2173.3,150.2L2173.3,150.2c-0.5-0.6-8.2-8.9-22,4c9.9,4.3,15.6,2.6,18.7,0.2
		C2171.5,153.3,2172.6,151.8,2173.3,150.2z"/>
	<path id="Leaf_3-134" class="st7" d="M2173.1,149.7L2173.1,149.7c0.5,0.6,8.2,8.9,22-4c-9.9-4.3-15.6-2.6-18.7-0.2
		C2174.9,146.6,2173.8,148,2173.1,149.7z"/>
	<path id="Leaf_3-135" class="st7" d="M2173.6,150L2173.6,150c-0.6,0.5-8.9,8.2,4,22c4.3-9.9,2.6-15.6,0.2-18.7
		C2176.8,151.9,2175.3,150.8,2173.6,150z"/>
	<path id="Leaf_3-136" class="st7" d="M2173.2,150.3L2173.2,150.3c0.6-0.5,8.9-8.2-4-22c-4.3,9.9-2.6,15.6-0.2,18.7
		C2170.1,148.4,2171.5,149.5,2173.2,150.3z"/>
	<path id="Leaf_3-137" class="st8" d="M2501.7,130.1h0.1c0.1-1,0.6-16.3-24.9-17.1c5.4,13.6,12.4,17.4,17.7,18.1
		C2496.9,131.3,2499.4,131,2501.7,130.1z"/>
	<path id="Leaf_3-138" class="st8" d="M2501.9,129.4h-0.1c-0.1,1-0.6,16.3,24.9,17.1c-5.4-13.6-12.4-17.4-17.7-18.1
		C2506.6,128.2,2504.2,128.5,2501.9,129.4z"/>
	<path id="Leaf_3-139" class="st8" d="M2502.1,130.3v-0.1c-1-0.1-16.3-0.6-17.1,24.9c13.6-5.4,17.4-12.4,18.1-17.7
		C2503.3,135,2503,132.5,2502.1,130.3z"/>
	<path id="Leaf_3-140" class="st8" d="M2501.4,130v0.1c1,0.1,16.3,0.6,17.1-24.9c-13.6,5.4-17.4,12.4-18.1,17.7
		C2500.2,125.3,2500.6,127.8,2501.4,130z"/>
	<path id="Leaf_3-141" class="st7" d="M2502.4,130.2L2502.4,130.2c-0.5-0.6-8.2-8.9-22,4c9.9,4.3,15.6,2.6,18.7,0.2
		C2500.5,133.3,2501.7,131.8,2502.4,130.2z"/>
	<path id="Leaf_3-142" class="st7" d="M2502.1,129.7L2502.1,129.7c0.5,0.6,8.2,8.9,22-4c-9.9-4.3-15.6-2.6-18.7-0.2
		C2504,126.6,2502.9,128,2502.1,129.7z"/>
	<path id="Leaf_3-143" class="st7" d="M2502.7,130L2502.7,130c-0.6,0.5-8.9,8.2,4,22c4.3-9.9,2.6-15.6,0.2-18.7
		C2505.8,131.9,2504.4,130.8,2502.7,130z"/>
	<path id="Leaf_3-144" class="st7" d="M2502.2,130.3L2502.2,130.3c0.6-0.5,8.9-8.2-4-22c-4.3,9.9-2.6,15.6-0.2,18.7
		C2499.1,128.4,2500.6,129.5,2502.2,130.3z"/>
	<path id="Leaf_3-145" class="st8" d="M2551.1,140h0.1c0.1-1,0.6-16.3-24.9-17.1c5.4,13.6,12.4,17.4,17.7,18.1
		C2546.4,141.2,2548.8,140.8,2551.1,140z"/>
	<path id="Leaf_3-146" class="st8" d="M2551.3,139.3h-0.1c-0.1,1-0.6,16.3,24.9,17.1c-5.4-13.6-12.4-17.4-17.7-18.1
		C2556,138.1,2553.6,138.4,2551.3,139.3z"/>
	<path id="Leaf_3-147" class="st8" d="M2551.5,140.1V140c-1-0.1-16.3-0.6-17.1,24.9c13.6-5.4,17.4-12.4,18.1-17.7
		C2552.7,144.9,2552.4,142.4,2551.5,140.1z"/>
	<path id="Leaf_3-148" class="st8" d="M2550.9,139.9v0.1c1,0.1,16.3,0.6,17.1-24.9c-13.6,5.4-17.4,12.4-18.1,17.7
		C2549.6,135.2,2550,137.6,2550.9,139.9z"/>
	<path id="Leaf_3-149" class="st7" d="M2551.8,140.1L2551.8,140.1c-0.5-0.6-8.2-8.9-22,4c9.9,4.3,15.6,2.6,18.7,0.2
		C2549.9,143.2,2551.1,141.7,2551.8,140.1z"/>
	<path id="Leaf_3-150" class="st7" d="M2551.5,139.6L2551.5,139.6c0.5,0.6,8.2,8.9,22-4c-9.9-4.3-15.6-2.6-18.7-0.2
		C2553.4,136.5,2552.3,137.9,2551.5,139.6z"/>
	<path id="Leaf_3-151" class="st7" d="M2552.1,139.9L2552.1,139.9c-0.6,0.5-8.9,8.2,4,22c4.3-9.9,2.6-15.6,0.2-18.7
		C2555.2,141.8,2553.8,140.6,2552.1,139.9z"/>
	<path id="Leaf_3-152" class="st7" d="M2551.6,140.1L2551.6,140.1c0.6-0.5,8.9-8.2-4-22c-4.3,9.9-2.6,15.6-0.2,18.7
		C2548.5,138.3,2550,139.4,2551.6,140.1z"/>
	<path id="Leaf_3-153" class="st8" d="M2581,118.1h0.1c0.1-1,0.6-16.3-24.9-17.1c5.4,13.6,12.4,17.4,17.7,18.1
		C2576.3,119.3,2578.8,119,2581,118.1z"/>
	<path id="Leaf_3-154" class="st8" d="M2581.3,117.4h-0.1c-0.1,1-0.6,16.3,24.9,17.1c-5.4-13.6-12.4-17.4-17.7-18.1
		C2586,116.2,2583.5,116.5,2581.3,117.4z"/>
	<path id="Leaf_3-155" class="st8" d="M2581.5,118.3L2581.5,118.3c-1.1-0.2-16.3-0.7-17.1,24.8c13.6-5.4,17.4-12.4,18.1-17.7
		C2582.7,123,2582.4,120.5,2581.5,118.3z"/>
	<path id="Leaf_3-156" class="st8" d="M2580.8,118L2580.8,118c1.1,0.2,16.3,0.7,17.1-24.8c-13.6,5.4-17.4,12.4-18.1,17.7
		C2579.6,113.3,2579.9,115.8,2580.8,118z"/>
	<path id="Leaf_3-157" class="st7" d="M2581.7,118.2L2581.7,118.2c-0.5-0.6-8.2-8.9-22,4c9.9,4.3,15.6,2.6,18.7,0.2
		C2579.9,121.3,2581,119.8,2581.7,118.2z"/>
	<path id="Leaf_3-158" class="st7" d="M2581.5,117.7L2581.5,117.7c0.5,0.6,8.2,8.9,22-4c-9.9-4.3-15.6-2.6-18.7-0.2
		C2583.3,114.6,2582.2,116.1,2581.5,117.7z"/>
	<path id="Leaf_3-159" class="st7" d="M2582.1,118L2582.1,118c-0.6,0.5-8.9,8.2,4,22c4.3-9.9,2.6-15.6,0.2-18.7
		C2585.2,119.9,2583.7,118.8,2582.1,118z"/>
	<path id="Leaf_3-160" class="st7" d="M2581.6,118.3L2581.6,118.3c0.6-0.5,8.9-8.2-4-22c-4.3,9.9-2.6,15.6-0.2,18.7
		C2578.5,116.4,2579.9,117.6,2581.6,118.3z"/>
	<path id="Leaf_3-161" class="st8" d="M1514.5,120.6L1514.5,120.6c0.2-1.1,0.7-16.3-24.8-17.1c5.4,13.6,12.4,17.4,17.7,18.1
		C1509.8,121.8,1512.3,121.4,1514.5,120.6z"/>
	<path id="Leaf_3-162" class="st8" d="M1514.8,119.9L1514.8,119.9c-0.2,1.1-0.7,16.3,24.8,17.1c-5.4-13.6-12.4-17.4-17.7-18.1
		C1519.5,118.7,1517,119,1514.8,119.9z"/>
	<path id="Leaf_3-163" class="st8" d="M1515,120.7L1515,120.7c-1.1-0.2-16.3-0.7-17.1,24.8c13.6-5.4,17.4-12.4,18.1-17.7
		C1516.2,125.5,1515.9,123,1515,120.7z"/>
	<path id="Leaf_3-164" class="st8" d="M1514.3,120.5L1514.3,120.5c1.1,0.2,16.3,0.7,17.1-24.8c-13.6,5.4-17.4,12.4-18.1,17.7
		C1513.1,115.8,1513.4,118.2,1514.3,120.5z"/>
	<path id="Leaf_3-165" class="st7" d="M1515.3,120.6L1515.3,120.6c-0.5-0.6-8.2-8.9-22,4c9.9,4.3,15.6,2.6,18.7,0.2
		C1513.4,123.8,1514.5,122.3,1515.3,120.6z"/>
	<path id="Leaf_3-166" class="st7" d="M1515,120.2L1515,120.2c0.5,0.6,8.2,8.9,22-4c-9.9-4.3-15.6-2.6-18.7-0.2
		C1516.9,117.1,1515.7,118.5,1515,120.2z"/>
	<path id="Leaf_3-167" class="st7" d="M1515.6,120.5L1515.6,120.5c-0.6,0.5-8.9,8.2,4,22c4.3-9.9,2.6-15.6,0.2-18.7
		C1518.7,122.3,1517.2,121.2,1515.6,120.5z"/>
	<path id="Leaf_3-168" class="st7" d="M1515.1,120.7L1515.1,120.7c0.6-0.5,8.9-8.2-4-22c-4.3,9.9-2.6,15.6-0.2,18.7
		C1512,118.9,1513.5,120,1515.1,120.7z"/>
</g>
<g id="stairs">
	<ellipse class="st9" cx="1471.4" cy="791.9" rx="48.1" ry="48.1"/>
	<text transform="matrix(1 0 0 1 1403.879 866.332)" class="st10 st11 st12">Relax Private</text>
	<text transform="matrix(1 0 0 1 1425.533 892.816)" class="st10 st11 st12">Roof</text>
	<text transform="matrix(1 0 0 1 1477.8831 892.816)" class="st10 st11 st12 st13">T</text>
	<text transform="matrix(1 0 0 1 1488.918 892.816)" class="st10 st11 st12">op</text>
</g>
<g id="stairs-2">
	<ellipse class="st9" cx="2788.5" cy="798.7" rx="48.1" ry="48.1"/>
	<text transform="matrix(1 0 0 1 2756.5081 873.123)" class="st10 st11 st12">Public</text>
	<text transform="matrix(1 0 0 1 2742.5959 899.606)" class="st10 st11 st12">Roof</text>
	<text transform="matrix(1 0 0 1 2794.946 899.606)" class="st10 st11 st12 st13">T</text>
	<text transform="matrix(1 0 0 1 2805.981 899.606)" class="st10 st11 st12">op</text>
	<circle class="st14" cx="2787.6" cy="797.7" r="17.2"/>
	<line class="st14" x1="2787.6" y1="774.3" x2="2787.6" y2="780.6"/>
	<line class="st14" x1="2769.7" y1="779.8" x2="2772.8" y2="782.9"/>
	<line class="st14" x1="2805.5" y1="779.8" x2="2802.4" y2="782.9"/>
	<line class="st14" x1="2805.5" y1="815.7" x2="2802.4" y2="812.6"/>
	<line class="st14" x1="2769.7" y1="815.7" x2="2772.8" y2="812.6"/>
	<line class="st14" x1="2811" y1="797.7" x2="2804.8" y2="797.7"/>
	<line class="st14" x1="2787.6" y1="821.1" x2="2787.6" y2="814.9"/>
	<line class="st14" x1="2764.2" y1="797.7" x2="2770.4" y2="797.7"/>
	<path class="st14" d="M2780.8,803.2c2.2,3.7,6.9,5,10.7,2.9c1.2-0.7,2.2-1.7,2.9-2.9"/>
	<circle class="st14" cx="2779.4" cy="795.8" r="2"/>
	<circle class="st14" cx="2795.8" cy="795.8" r="2"/>
	<circle class="st14" cx="2779.4" cy="795.8" r="2"/>
	<circle class="st14" cx="2795.8" cy="795.8" r="2"/>
</g>
<g id="elevator">
	<text transform="matrix(1 0 0 1 2062.4221 719.786)" class="st10 st11 st15">Elevator</text>
	<g>
		<text transform="matrix(1 0 0 1 1576.0439 302.718)" class="st10 st11 st15">Corridor</text>
	</g>
	<circle class="st9" cx="2099.5" cy="646" r="45.9"/>
	<path class="st16" d="M2086.8,664.2v-27.8h9.3v27.8H2086.8z M2096.8,664.2v-27.8h9.3v27.8H2096.8z M2117.7,664.2h-10.8V636
		c0-0.2-0.2-0.3-0.4-0.3h-19.9c-0.2,0-0.3,0.2-0.4,0.3l0,0v28.2h-4.9v-36.4h36.4L2117.7,664.2z M2118,627h-37.1
		c-0.2,0-0.3,0.2-0.4,0.4l0,0v37.2c0,0.2,0.2,0.3,0.4,0.3h37.2c0.2,0,0.3-0.2,0.4-0.3l0,0v-37.2C2118.4,627,2118.2,627,2118,627
		L2118,627z"/>
	<path class="st17" d="M2112.4,645.5l1.5,1.5c0.2,0.2,0,0.4-0.2,0.5c-0.1,0.1-0.3,0.2-0.5,0.1c0,0-0.1,0-0.1-0.1l-1-1l-1,1
		c0,0,0,0-0.1,0.1c-0.2,0.1-0.4,0.1-0.5-0.1c-0.2-0.2-0.4-0.4-0.2-0.5l1.5-1.5C2112,645.4,2112.2,645.4,2112.4,645.5z"/>
	<path class="st17" d="M2112.4,650.9l1.5-1.5c0.2-0.2,0-0.4-0.2-0.5c-0.1-0.1-0.3-0.2-0.5-0.1c0,0-0.1,0-0.1,0.1l-1,1l-1-1
		c0,0,0,0-0.1-0.1c-0.2-0.1-0.4-0.1-0.5,0.1c-0.2,0.2-0.4,0.4-0.2,0.5l1.5,1.5C2112,651,2112.2,651,2112.4,650.9z"/>
	<path class="st17" d="M2093.9,630.8h5.8c0.4,0,0.7,0.3,0.7,0.7l0,0l0,0c0,0.4-0.3,0.7-0.7,0.7l0,0h-5.8c-0.4,0-0.7-0.3-0.7-0.7l0,0
		l0,0C2093.2,631.1,2093.6,630.8,2093.9,630.8L2093.9,630.8L2093.9,630.8z"/>
</g>
<g id="stairs-3">
	<ellipse class="st9" cx="2219.5" cy="703.2" rx="45.8" ry="45.7"/>
	<text transform="matrix(1 0 0 1 2189.3081 773.935)" class="st10 st11 st18">Stairs</text>
	<g id="Outline_Icons-2-2">
		<line class="st19" x1="2199" y1="721" x2="2234.8" y2="721"/>
		<polyline class="st19" points="2228.6,721 2228.6,714.8 2222.3,714.8 2222.3,708.6 2216.1,708.6 2216.1,702.4 2209.9,702.4 
			2209.9,696.2 2199,696.2 		"/>
		<line class="st19" x1="2217.7" y1="685.3" x2="2237.2" y2="704.8"/>
		<polyline class="st19" points="2217.7,693.1 2217.7,685.3 2225.5,685.3 		"/>
		<polyline class="st19" points="2237.2,697.1 2237.2,704.8 2229.4,704.8 		"/>
	</g>
</g>
<g id="stairs-4">
	<ellipse class="st9" cx="3827.3" cy="969.5" rx="45.8" ry="45.7"/>
	<text transform="matrix(1 0 0 1 3797.1021 1040.238)" class="st10 st11 st18">Stairs</text>
	<g id="Outline_Icons-2-2-2">
		<line class="st19" x1="3806.8" y1="987.3" x2="3842.6" y2="987.3"/>
		<polyline class="st19" points="3836.4,987.3 3836.4,981.1 3830.1,981.1 3830.1,974.9 3823.9,974.9 3823.9,968.7 3817.7,968.7 
			3817.7,962.5 3806.8,962.5 		"/>
		<line class="st19" x1="3825.5" y1="951.6" x2="3845" y2="971.1"/>
		<polyline class="st19" points="3825.5,959.4 3825.5,951.6 3833.2,951.6 		"/>
		<polyline class="st19" points="3845,963.4 3845,971.1 3837.2,971.1 		"/>
	</g>
</g>
<g id="cleaning_room">
	<ellipse class="st9" cx="2849.7" cy="131.3" rx="45.8" ry="45.7"/>
	<text transform="matrix(1 0 0 1 2808.1589 202.01)" class="st10 st11 st20">Storage/</text>
	<g>
		<text transform="matrix(1 0 0 1 2638.637 213.41)" class="st10 st11 st20">Phone</text>
		<text transform="matrix(1 0 0 1 2644.4709 238.589)" class="st10 st11 st20">Booth</text>
	</g>
	<text transform="matrix(1 0 0 1 2803.4929 227.189)" class="st10 st11 st20">Cleaning</text>
	<text transform="matrix(1 0 0 1 2819.834 252.367)" class="st10 st11 st20">Room</text>
	<path class="st21" d="M2867.4,142.9c0.1,1.3-0.3,2.5-1.2,3.5c-1.1,1.3-2.6,2-4.2,2l-6.3-0.1c-1.9-0.1-3.6-1-4.6-2.6
		c-1.1-1.6-0.7-3.2-0.3-5l1.6-6.7l-0.8-3.5c-0.3-1.3-0.7-2.6-1-4s-0.1-2.9,0.7-4c1-1.5,2.7-2.4,4.5-2.4l6.3,0.1
		c2,0.1,3.8,1.1,4.8,2.8c1,1.6,0.5,3.1,0.2,4.8c-0.5,2-0.9,4-1.4,5.9c0.5,2.7,1.1,5.4,1.6,8.2
		C2867.3,142.2,2867.3,142.5,2867.4,142.9z"/>
	<path class="st21" d="M2852.1,147c-8.7,3.7-18.8-0.3-22.5-9s0.3-18.8,9-22.5c5.3-2.3,11.5-1.7,16.3,1.5"/>
	<path class="st21" d="M2851.7,136.5c-2.9,3.5-8.1,3.9-11.6,1s-3.9-8.1-1-11.6c2.8-3.3,7.8-3.9,11.2-1.2"/>
	<line class="st21" x1="2854.4" y1="131.9" x2="2862.5" y2="129.9"/>
	<line class="st21" x1="2854" y1="136.9" x2="2863.2" y2="134.2"/>
	<polyline class="st21" points="2855,120.2 2855,113.2 2862.7,113.2 2862.7,120.2 	"/>
	<line class="st21" x1="2855.7" y1="109.8" x2="2862" y2="109.8"/>
	<line class="st21" x1="2858.9" y1="109.8" x2="2858.9" y2="113.2"/>
</g>
<g id="catering">
	<ellipse class="st9" cx="3103.6" cy="139.1" rx="45.8" ry="45.7"/>
	<text transform="matrix(1 0 0 1 3019.5359 209.81)" class="st10 st11 st20">Catering Storage/</text>
	<text transform="matrix(1 0 0 1 3006.7041 234.989)" class="st10 st11 st20">Kitchenette Catering</text>
	<g id="Outline_Icons-8">
		<path class="st21" d="M3097.7,149.8c0,0,1.2-7-2.2-10.9c-0.2-0.2-0.2-0.5,0-0.7c1.2-1.3,4.2,0,7.2,5.6c0.8,1.4,2.4,1.4,3.9,0.6
			c2.7-1.6,6.3-5.6,8.8-6.2c3.3-0.8,4.4,1.2,3.8,1.8l-14.3,14.3L3097.7,149.8z"/>
		<polygon class="st21" points="3102.7,156.4 3104.9,154.2 3097.7,149.8 3091.7,156.4 		"/>
		<line class="st21" x1="3126.2" y1="136.4" x2="3088" y2="136.4"/>
		<path class="st21" d="M3122.8,136.4c0-0.3,0-0.6,0-0.8c-0.1-8.7-7.2-15.8-16-15.7c-8.6,0.1-15.6,7.1-15.7,15.7c0,0.3,0,0.6,0,0.8
			H3122.8z"/>
		<path class="st21" d="M3107,123.9c-5.2,0-9.7,3.3-11.3,8.3"/>
		<line class="st21" x1="3106.2" y1="119.8" x2="3106.2" y2="118.1"/>
	</g>
</g>
<g id="gym_room">
	<ellipse class="st9" cx="871.3" cy="257.9" rx="45.8" ry="45.7"/>
	<text transform="matrix(1 0 0 1 816.372 328.582)" class="st10 st11 st20">Gym Room</text>
	<line class="st21" x1="854.1" y1="264.8" x2="894.9" y2="264.8"/>
	<line class="st21" x1="874.5" y1="254.6" x2="878.3" y2="250.8"/>
	<line class="st21" x1="877.9" y1="258" x2="881.9" y2="254"/>
	<path class="st21" d="M871.8,250.3c-1.7,1.4-3.9,2.2-6.1,2.2c-3,0-5.8-1.4-7.5-3.8c-0.4-0.6-1.1-0.9-1.8-1l0,0
		c-1.2,0-2.2,1-2.2,2.2l0,0v16.8c0,1.5,1.2,2.7,2.7,2.7h35.4c1.5,0,2.7-1.2,2.7-2.7v-4.1c0-3-2.4-5.4-5.4-5.4h-4.1l-15-13.6"/>
	<g id="shower">
		<ellipse class="st9" cx="599.6" cy="168.7" rx="45" ry="45"/>
		<text transform="matrix(1 0 0 1 564.484 240.347)" class="st10 st11 st22">Shower</text>
		<g id="Outline_Icons-3">
			<line class="st23" x1="599.6" y1="169.3" x2="599.6" y2="172.8"/>
			<line class="st23" x1="599.6" y1="177.5" x2="599.6" y2="181"/>
			<line class="st23" x1="599.6" y1="185.7" x2="599.6" y2="189.2"/>
			<line class="st23" x1="609" y1="169.3" x2="610.5" y2="172.5"/>
			<line class="st23" x1="612.5" y1="176.7" x2="614" y2="179.9"/>
			<line class="st23" x1="615.9" y1="184.1" x2="617.4" y2="187.3"/>
			<line class="st23" x1="590.2" y1="169.3" x2="588.8" y2="172.5"/>
			<line class="st23" x1="586.8" y1="176.7" x2="585.3" y2="179.9"/>
			<line class="st23" x1="583.3" y1="184.1" x2="581.8" y2="187.3"/>
			<line class="st23" x1="603.8" y1="169.3" x2="604.6" y2="172.8"/>
			<line class="st23" x1="605.6" y1="177.3" x2="606.3" y2="180.8"/>
			<line class="st23" x1="607.4" y1="185.3" x2="608.1" y2="188.8"/>
			<line class="st23" x1="595.4" y1="169.3" x2="594.7" y2="172.8"/>
			<line class="st23" x1="593.7" y1="177.3" x2="592.9" y2="180.8"/>
			<line class="st23" x1="591.9" y1="185.3" x2="591.1" y2="188.8"/>
			<path class="st23" d="M620.7,162.3h-42.2l2.1-2.6c8.4-10.5,23.8-12.2,34.3-3.8c1.4,1.1,2.7,2.4,3.8,3.8L620.7,162.3z"/>
			<polyline class="st23" points="594.9,151 597.3,145.9 602,145.9 604.3,151 			"/>
			<line class="st23" x1="599.6" y1="145.9" x2="599.6" y2="141.2"/>
		</g>
	</g>
	<g id="shower-2">
		<ellipse class="st9" cx="538.5" cy="399.6" rx="45" ry="45"/>
		<text transform="matrix(1 0 0 1 499.355 471.196)" class="st10 st11 st22">Skillbikes</text>
		<path class="st24" d="M548.6,403.4c0.4,0,0.8,0.3,0.8,0.8s-0.3,0.8-0.8,0.8c-0.4,0-0.8-0.3-0.8-0.8l0,0l0,0
			C547.8,403.7,548.1,403.4,548.6,403.4L548.6,403.4z M556,386.5c0,0.3-0.2,0.5-0.5,0.5h-3l-2.6,13.1c2.2,0.7,3.4,3.1,2.7,5.3
			c-0.6,1.7-2.2,2.9-4,2.9c-0.1,0-0.2,0-0.3,0l-0.7,3.8h6.8c0.3,0,0.5,0.2,0.5,0.5v3.5c0,0.3-0.2,0.5-0.5,0.5h-32.9
			c-0.3,0-0.5-0.2-0.5-0.5v-3.5c0-0.3,0.2-0.5,0.5-0.5h1.8l1.5-3.3c-3.4-3.3-3.5-8.7-0.3-12.1c1.6-1.7,3.9-2.6,6.2-2.6h0.2l0.6-3.6
			l0,0l0.7-4.5c-3.6-0.3-6.4-3.1-6.9-6.6c-0.1-0.3,0.1-0.5,0.4-0.6c0.3-0.1,0.5,0.1,0.6,0.4v0.1c0,0.2,0.5,5.2,6.5,5.8
			c0,0,0,0,0.1,0c0.3,0,0.4,0.3,0.4,0.5l0,0l0,0l-0.7,4.6c2.1,0.4,10.1,2.5,12.1,10.3l2.9-0.3c0.4-0.1,0.9-0.1,1.3-0.1l2.6-12.9H547
			c-0.3,0-0.5-0.2-0.6-0.4s0.2-0.5,0.4-0.6h0.1h8.5C555.8,386,556,386.3,556,386.5L556,386.5z M539.3,401.8c0,0.2,0,0.5,0,0.7
			c0,0.8-0.1,1.5-0.3,2.3l6.1,1.7c-1.1-1.6-0.9-3.8,0.4-5.3L539.3,401.8z M532.6,402.6c0,0.2,0,0.3-0.1,0.5l5.5,1.5
			c0.2-0.7,0.3-1.3,0.3-2c0-0.2,0-0.4,0-0.6l-5.7,0.5C532.6,402.5,532.6,402.5,532.6,402.6L532.6,402.6z M533.4,410.7l0.8,1.4h12.4
			l0.8-3.9l-8.6-2.4C537.7,408.1,535.8,409.9,533.4,410.7L533.4,410.7z M531.9,394.1c3.6,0.5,6.5,3.2,7.2,6.8l4.5-0.4
			c-2-7.1-9.3-9-11.3-9.4L531.9,394.1z M530.8,410.1c3,0,5.8-1.8,7-4.6l-5.7-1.6c-0.8,0.7-1.9,0.7-2.6-0.1c-0.7-0.8-0.7-1.9,0.1-2.6
			s1.9-0.7,2.6,0.1c0,0.1,0.1,0.1,0.1,0.2l5.9-0.5c-0.7-3.2-3.4-5.6-6.7-5.9c-0.1,0-0.1,0-0.2,0c0,0,0,0-0.1,0s-0.3,0-0.4,0
			c-4.2,0-7.6,3.4-7.6,7.6C523.2,406.7,526.6,410.1,530.8,410.1L530.8,410.1z M524.4,412.1h8.6l-0.7-1.1c-2.4,0.4-4.8-0.1-6.7-1.6
			L524.4,412.1z M547,413.1h-25v2.5h31.9v-2.5H547z M548.6,401c-0.2,0-0.5,0-0.7,0.1h-0.1c-1.7,0.5-2.7,2.2-2.3,3.9s2.2,2.7,3.9,2.3
			c1.7-0.5,2.7-2.2,2.3-3.9C551.3,401.9,550,401,548.6,401L548.6,401z"/>
	</g>
</g>
<g id="toilets">
	<text transform="matrix(1 0 0 1 3446.479 589.383)" class="st10 st11 st25 st13">T</text>
	<text transform="matrix(1 0 0 1 3457.0381 589.383)" class="st10 st11 st25">oilets</text>
	<g id="Toilet-2">
		
			<ellipse transform="matrix(0.3827 -0.9239 0.9239 0.3827 1666.2341 3531.98)" class="st9" cx="3476.1" cy="519.1" rx="45.8" ry="45.8"/>
		<g id="Outline_Icons-4-2">
			<path class="st26" d="M3492.7,518.4c0,1-0.8,1.8-1.8,1.8h-9.2v-20.3c0-2,1.7-3.7,3.7-3.7h3.7c2,0,3.7,1.7,3.7,3.7L3492.7,518.4
				L3492.7,518.4z"/>
			<path class="st26" d="M3466.8,538.7h18.5v-11.1l5.5-3.7v-3.7h-31.4c-0.2,4.8,3.5,9,8.3,9.2h0.4L3466.8,538.7z"/>
			<rect x="3457.6" y="516.5" class="st26" width="24" height="3.7"/>
			<circle class="st26" cx="3488" cy="502.7" r="1.8"/>
		</g>
	</g>
</g>
<rect x="1479.1" y="778.9" class="st19" width="15.7" height="11"/>
<path class="st19" d="M1482.3,778.9v-6.3c0-2.6,2.1-4.7,4.7-4.7l0,0c2.6,0,4.7,2.1,4.7,4.7v3.7"/>
<circle class="st19" cx="1487" cy="784.4" r="0.8"/>
<path class="st19" d="M1483.9,792.3c1.4,8.8-4.6,17-13.4,18.4s-17-4.6-18.4-13.4c-1.4-8.8,4.6-17,13.4-18.4
	c4.1-0.6,8.3,0.3,11.7,2.7"/>
<line class="st19" x1="1468.1" y1="772.9" x2="1468.1" y2="778.7"/>
<line class="st19" x1="1451.2" y1="778" x2="1454.2" y2="780.9"/>
<line class="st19" x1="1484.9" y1="811.6" x2="1481.9" y2="808.7"/>
<line class="st19" x1="1451.2" y1="811.6" x2="1454.2" y2="808.7"/>
<line class="st19" x1="1490" y1="794.8" x2="1484.1" y2="794.8"/>
<line class="st19" x1="1468.1" y1="816.7" x2="1468.1" y2="810.9"/>
<line class="st19" x1="1446.1" y1="794.8" x2="1452" y2="794.8"/>
<path class="st19" d="M1461.7,799.9c2,3.5,6.5,4.7,10,2.7c1.1-0.6,2.1-1.6,2.7-2.7"/>
<circle class="st19" cx="1460.4" cy="793" r="1.8"/>
<circle class="st19" cx="1475.7" cy="793" r="1.8"/>
<circle class="st19" cx="1460.4" cy="793" r="1.8"/>
<circle class="st19" cx="1475.7" cy="793" r="1.8"/>
<g id="technical">
	<g id="toilets-2">
		<text transform="matrix(1 0 0 1 3542.147 212.23)" class="st10 st11 st25 st13">T</text>
		<text transform="matrix(1 0 0 1 3552.7061 212.23)" class="st10 st11 st25">echnical</text>
		<text transform="matrix(1 0 0 1 3566.7949 237.57)" class="st10 st11 st25">Area</text>
		<g id="Toilet-2-2">
			<circle class="st9" cx="3591.6" cy="142" r="45.8"/>
		</g>
	</g>
	<path class="st21" d="M3583.3,130h18.6c3.4,0,6.2,2.8,6.2,6.2V155h-31v-18.8C3577.1,132.8,3579.9,130.1,3583.3,130z"/>
	<circle class="st21" cx="3585.5" cy="140.2" r="3.6"/>
	<circle class="st21" cx="3599.8" cy="140.2" r="3.6"/>
	<line class="st21" x1="3583.7" y1="148.5" x2="3601" y2="148.5"/>
	<line class="st21" x1="3592.6" y1="130" x2="3592.6" y2="126.5"/>
	<circle class="st21" cx="3592.6" cy="124.1" r="2.4"/>
	<path class="st21" d="M3577.1,145.5c-1.6,0-3-1.4-2.9-3c0-1.6,1.3-2.9,2.9-2.9"/>
	<path class="st21" d="M3608.1,145.5c1.6,0,3-1.4,2.9-3c0-1.6-1.3-2.9-2.9-2.9"/>
</g>
<g id="technical-2">
	<g id="toilets-2-2">
		<g>
			<text transform="matrix(1 0 0 1 3041.332 569.598)" class="st10 st11 st25">Informal</text>
			<text transform="matrix(1 0 0 1 3055.031 594.939)" class="st10 st11 st25">W</text>
			<text transform="matrix(1 0 0 1 3074.5801 594.939)" class="st10 st11 st25">ork</text>
		</g>
		<g id="Toilet-2-2-2">
			<circle class="st9" cx="3081.4" cy="499.4" r="45.8"/>
		</g>
	</g>
	<path class="st21" d="M3097,508.8c2.9-2.9,4.6-6.9,4.6-11c0-9.5-9.1-17.3-20.2-17.3s-20.2,7.7-20.2,17.3s9.1,17.3,20.2,17.3
		c2.5,0,5-0.4,7.4-1.2l9.7,4.1L3097,508.8z"/>
	<path class="st21" d="M3079.4,496.5c-0.3,2-1.1,3.9-2.3,5.4s-2.6,2.9-4.2,4c-0.4,0.3-0.9,0.5-1.3,0.9c2-1.8,3.3-4.4,3.4-7.1
		c-2.5,0.1-4.6-1.9-4.7-4.4s1.9-4.6,4.4-4.7s4.6,1.9,4.7,4.4c0,0.1,0,0.2,0,0.3C3079.5,495.6,3079.5,496,3079.4,496.5z"/>
	<path class="st21" d="M3092,496.5c-0.3,2-1.1,3.9-2.3,5.4s-2.6,2.9-4.2,4c-0.4,0.3-0.9,0.5-1.3,0.9c2-1.8,3.3-4.4,3.4-7.1
		c-2.5,0.1-4.6-1.9-4.7-4.4s1.9-4.6,4.4-4.7s4.6,1.9,4.7,4.4v0.3C3092,495.6,3092,496,3092,496.5z"/>
</g>
<text transform="matrix(1 0 0 1 3704.1304 662.985)" class="st10 st11 st25">CED</text>
<g id="Toilet-2-3">
	<circle class="st9" cx="3721.7" cy="591.1" r="45.8"/>
</g>
<rect x="3727.4" y="580.5" class="st27" width="11.6" height="16.3"/>
<polyline class="st27" points="3733.2,601.4 3733.2,609.5 3712.3,609.5 3712.3,601.4 "/>
<polyline class="st27" points="3729.7,577.6 3729.7,574.7 3736.6,574.7 3736.6,577.6 "/>
<path class="st27" d="M3712.3,596.8L3712.3,596.8c-4.5,0-8.1-3.6-8.1-8.1v-9.3h16.3v9.3C3720.4,593.1,3716.7,596.7,3712.3,596.8z"/>
<line class="st27" x1="3707.6" y1="579.3" x2="3707.6" y2="574.7"/>
<line class="st27" x1="3716.9" y1="579.3" x2="3716.9" y2="574.7"/>
<line class="st27" x1="3733.2" y1="578.2" x2="3733.2" y2="580.5"/>
<ellipse class="st9" cx="3440.4" cy="314.5" rx="45" ry="44.9"/>
<text transform="matrix(1 0 0 1 3285.7971 324.8359)" class="st10 st11 st28">Plot Room</text>
<g id="Outline_Icons-13-2">
	<g id="Outline_Icons-14-2">
		<path class="st21" d="M3432.4,323.3h-4.8c-1.7,0-3.2-1.4-3.2-3.2v-9.5c0-1.7,1.4-3.1,3.2-3.2h30.2c1.7,0,3.2,1.4,3.2,3.2v9.5
			c0,1.7-1.4,3.2-3.2,3.2h-4.8"/>
		<polyline class="st21" points="3432.4,304.2 3432.4,297.9 3448.3,297.9 3453.1,302.6 3453.1,304.2 		"/>
		<rect x="3432.4" y="318.5" class="st21" width="20.7" height="12.7"/>
		<circle class="st21" cx="3429.2" cy="312.1" r="1.6"/>
		<line class="st21" x1="3435.6" y1="321.7" x2="3449.9" y2="321.7"/>
		<line class="st21" x1="3435.6" y1="324.8" x2="3449.9" y2="324.8"/>
		<line class="st21" x1="3435.6" y1="328" x2="3449.9" y2="328"/>
		<polyline class="st21" points="3448.3,297.9 3448.3,302.6 3453.1,302.6 		"/>
	</g>
</g>
<g id="working_area">
	<path class="st29" d="M1538.9,223.2h-0.9v-0.6c0-2.7-2.2-5-5-5h-30.4c-13.2,0-24,10.7-24,24v12.1c0,13.2,10.7,24,24,24h30.4
		c2.7,0,5-2.2,5-5l0,0v-0.9h0.9c5.1,0,9.2-4.1,9.2-9.2l0,0l0,0v-30.2C1548.1,227.3,1544,223.2,1538.9,223.2L1538.9,223.2z"/>
	<path class="st30" d="M1538.2,218.7h-0.9v-0.6c0-2.7-2.2-5-5-5h-30.4c-13.3,0-24,10.7-24,24v12c0,13.3,10.7,24,24,24h30.4
		c2.7,0,5-2.2,5-5v-0.9h0.9c5.1,0,9.2-4.1,9.2-9.2v-30.2C1547.4,222.8,1543.3,218.7,1538.2,218.7L1538.2,218.7L1538.2,218.7z"/>
	<path class="st31" d="M1501.9,209.2h30.4c2.7,0,5,2.2,5,5v50.1c0,2.7-2.2,5-5,5h-30.4c-13.3,0-24-10.7-24-24v-12
		C1477.9,220,1488.6,209.2,1501.9,209.2L1501.9,209.2z"/>
	<path class="st32" d="M1509.7,213.1h22.7c2.7,0,5,2.2,5,5v42.3c0,2.7-2.2,5-5,5h-22.7c-13.3,0-24-10.7-24-24v-4.3
		C1485.7,223.9,1496.4,213.1,1509.7,213.1z"/>
	<path class="st33" d="M1538.2,263.4h-17c-8.6,0-15.7-7-15.7-15.7v-17.2c0-8.6,7-15.7,15.7-15.7l0,0h17c5.1,0,9.2,4.1,9.2,9.2v30.2
		C1547.4,259.3,1543.3,263.4,1538.2,263.4L1538.2,263.4L1538.2,263.4z"/>
	<path class="st34" d="M1536.2,263.5h-15c-8.6,0-15.7-7-15.7-15.7v-17.2c0-8.6,7-15.7,15.7-15.7h13.8"/>
	<path class="st29" d="M1700.8,222.8h0.9v-0.6c0-2.7,2.2-5,5-5h30.4c13.3,0,24,10.7,24,24v12c0,13.3-10.7,24-24,24h-30.4
		c-2.7,0-5-2.2-5-5l0,0l0,0v-0.9h-0.9c-5.1,0-9.2-4.1-9.2-9.2l0,0V232C1691.6,227,1695.7,222.8,1700.8,222.8L1700.8,222.8
		L1700.8,222.8z"/>
	<path class="st30" d="M1701.5,218.3h0.9v-0.6c0-2.7,2.2-5,5-5h30.4c13.2,0,24,10.7,24,24v12.1c0,13.3-10.7,24-24,24h-30.4
		c-2.7,0-5-2.2-5-5l0,0l0,0v-0.9h-0.9c-5.1,0-9.2-4.1-9.2-9.2l0,0l0,0v-30.2C1692.3,222.5,1696.4,218.3,1701.5,218.3L1701.5,218.3
		L1701.5,218.3z"/>
	<path class="st31" d="M1737.8,269h-30.4c-2.7,0-5-2.2-5-5v-50.1c0-2.7,2.2-5,5-5h30.4c13.3,0,24,10.7,24,24v12
		C1761.8,258.2,1751.1,269,1737.8,269z"/>
	<path class="st32" d="M1730,265.1h-22.7c-2.7,0-5-2.2-5-5v-42.3c0-2.7,2.2-5,5-5h22.7c13.3,0,24,10.7,24,24v4.3
		C1754,254.3,1743.3,265.1,1730,265.1z"/>
	<path class="st33" d="M1701.5,263h17c8.6,0,15.7-7,15.7-15.7v-17.2c0-8.6-7-15.7-15.7-15.7h-17c-5.1,0-9.2,4.1-9.2,9.2l0,0l0,0
		v30.2C1692.3,258.9,1696.4,263,1701.5,263z"/>
	<path class="st34" d="M1703.5,263.2h15c8.6,0,15.7-7,15.7-15.7v-17.2c0-8.6-7-15.7-15.7-15.7h-13.8"/>
	<path class="st29" d="M1877,223.7h-0.9v-0.6c0-2.7-2.2-5-5-5h-30.4c-13.3,0-24,10.7-24,24l0,0v12c0,13.3,10.7,24,24,24h30.4
		c2.7,0,5-2.2,5-5v-0.9h0.9c5.1,0,9.2-4.1,9.2-9.2l0,0l0,0v-30.2C1886.2,227.8,1882.1,223.7,1877,223.7L1877,223.7z"/>
	<path class="st30" d="M1876.3,219.2h-0.9v-0.6c0-2.7-2.2-5-5-5H1840c-13.3,0-24,10.7-24,24l0,0v12c0,13.2,10.7,24,24,24l0,0h30.4
		c2.7,0,5-2.2,5-5l0,0l0,0v-0.9h0.9c5.1,0,9.2-4.1,9.2-9.2l0,0l0,0v-30.2C1885.5,223.3,1881.4,219.2,1876.3,219.2z"/>
	<path class="st31" d="M1840,209.8h30.4c2.7,0,5,2.2,5,5v50.1c0,2.7-2.2,5-5,5H1840c-13.3,0-24-10.7-24-24v-12
		C1816,220.6,1826.8,209.8,1840,209.8z"/>
	<path class="st32" d="M1847.8,213.7h22.7c2.7,0,5,2.2,5,5V261c0,2.7-2.2,5-5,5h-22.7c-13.3,0-24-10.7-24-24v-4.3
		C1823.8,224.4,1834.5,213.7,1847.8,213.7L1847.8,213.7z"/>
	<path class="st33" d="M1876.3,263.9h-17c-8.6,0-15.7-7-15.7-15.7V231c0-8.6,7-15.7,15.7-15.7h17c5.1,0,9.2,4.1,9.2,9.2l0,0l0,0
		v30.2C1885.5,259.8,1881.4,263.9,1876.3,263.9L1876.3,263.9z"/>
	<path class="st34" d="M1874.4,264.1h-15c-8.6,0-15.7-7-15.7-15.7v-17.2c0-8.6,7-15.7,15.7-15.7h13.8"/>
</g>
<g id="area-5-closed">
	<path class="st35" d="M1133.4,452.9H1297v75.8h-163.5c-2.8,0-5-2.3-5-5l0,0l0,0V458C1128.4,455.2,1130.7,452.9,1133.4,452.9z"/>
	<path class="st36" d="M1133.4,450.3H1297v75.8h-163.5c-2.8,0-5-2.3-5-5l0,0l0,0v-65.7C1128.4,452.5,1130.7,450.3,1133.4,450.3z"/>
	<path class="st37" d="M1133.4,447.5H1297v75.8h-163.5c-2.8,0-5-2.3-5-5l0,0l0,0v-65.7C1128.4,449.7,1130.7,447.5,1133.4,447.5z"/>
	<rect x="1297" y="372.2" class="st38" width="47.6" height="261.2"/>
	<path class="st39" d="M1188.1,400l-1.4,0.5l-2.2-5.5c-0.3-0.7-1.1-1.1-1.9-0.8l0,0l0,0l-35.3,13.8c-0.7,0.3-1.1,1.1-0.8,1.9l0,0
		l2.2,5.6c0,0.1,0.1,0.2,0.1,0.2l-1.4,0.5c-1.8,0.7-2.7,2.7-2,4.5l0,0l9.1,23.2c0.5,1.3,1.9,2.1,3.3,1.7c1.4-0.5,2.1-1.9,1.7-3.3
		v-0.1l0.5,1.2c0.7,1.8,2.7,2.6,4.5,2l0,0l31.3-12.2c1.6-0.6,2.4-2.5,1.8-4.1l-0.7-1.8c0.5,1.4,2.1,2,3.4,1.5c0.1,0,0.2-0.1,0.2-0.1
		c1.2-0.7,1.7-2.2,1.2-3.4l-9.1-23.2C1192,400.2,1189.9,399.3,1188.1,400z"/>
	<path class="st40" d="M1187.5,398l-1.4,0.5l-2.2-5.5c-0.3-0.7-1.1-1.1-1.9-0.8l0,0l0,0l-35.3,13.8c-0.7,0.3-1.1,1.1-0.8,1.9
		l2.2,5.6c0,0.1,0.1,0.2,0.1,0.2l-1.4,0.5c-1.8,0.7-2.7,2.7-2,4.5l0,0l9.1,23.2c0.5,1.3,1.9,2.1,3.3,1.7c1.4-0.5,2.1-1.9,1.7-3.3
		l0,0v-0.1l0.5,1.2c0.7,1.8,2.7,2.6,4.5,2l0,0l31.3-12.2c1.6-0.6,2.4-2.5,1.8-4.1l-0.7-1.8c0.5,1.3,2,2,3.4,1.5
		c0.1,0,0.2-0.1,0.2-0.1c1.2-0.7,1.7-2.2,1.2-3.4L1192,400C1191.3,398.2,1189.3,397.3,1187.5,398z"/>
	<path class="st41" d="M1146.2,408.1l37.4-14.6l0,0l12.5,32c0.6,1.6-0.2,3.5-1.8,4.1l0,0l-31.3,12.2c-1.8,0.7-3.8-0.2-4.5-2l0,0
		L1146.2,408.1L1146.2,408.1z"/>
	<g class="st42">
		<path class="st43" d="M1146.7,406.2l35.1-13.7c0.7-0.3,1.5,0.1,1.8,0.8l2,5.1c0.3,0.7-0.1,1.5-0.8,1.8l-35.1,13.7
			c-0.7,0.3-1.5-0.1-1.8-0.8l-2-5.1C1145.6,407.3,1146,406.5,1146.7,406.2z"/>
		<path class="st43" d="M1148.3,413.3l1.5-0.6l0,0l9.7,24.7c0.5,1.3-0.1,2.7-1.4,3.2l0,0l0,0c-1.3,0.5-2.7-0.1-3.2-1.4l0,0
			l-8.5-21.7C1145.8,415.8,1146.6,414,1148.3,413.3L1148.3,413.3L1148.3,413.3z"/>
		<path class="st43" d="M1197.7,424.7L1197.7,424.7c-1.3,0.5-2.7-0.1-3.2-1.4l-9.6-24.7l0,0l1.5-0.6c1.7-0.7,3.6,0.2,4.2,1.8
			l8.5,21.7C1199.6,422.8,1199,424.3,1197.7,424.7L1197.7,424.7z"/>
	</g>
	<path class="st44" d="M1146,404.4l35.3-13.8c0.7-0.3,1.6,0.1,1.9,0.8l2.2,5.6c0.3,0.7-0.1,1.6-0.8,1.9l-35.3,13.8
		c-0.7,0.3-1.6-0.1-1.9-0.8l-2.2-5.6C1144.9,405.6,1145.3,404.7,1146,404.4z"/>
	<path class="st44" d="M1145.7,412.8l1.6-0.6l0,0l10.4,26.6c0.5,1.4-0.1,2.9-1.5,3.4l0,0c-1.4,0.5-2.9-0.1-3.4-1.5l0,0l-9.1-23.3
		C1143,415.6,1143.9,413.5,1145.7,412.8L1145.7,412.8z"/>
	<path class="st44" d="M1198.9,425.2L1198.9,425.2c-1.4,0.5-2.9-0.1-3.4-1.5l0,0l-10.4-26.6l0,0l1.6-0.6c1.8-0.7,3.8,0.2,4.5,2
		l9.1,23.4C1200.9,423.1,1200.3,424.7,1198.9,425.2z"/>
	<path class="st39" d="M1235.7,399.8l1.4,0.5l2.2-5.5c0.3-0.7,1.1-1.1,1.9-0.8l0,0l0,0l35.3,13.8c0.7,0.3,1.1,1.1,0.8,1.9l0,0l0,0
		l-2.2,5.6c0,0.1-0.1,0.2-0.1,0.2l1.4,0.5c1.8,0.7,2.7,2.7,2,4.5l0,0l0,0l-9.1,23.2c-0.5,1.3-1.9,2.1-3.3,1.7
		c-1.4-0.5-2.1-1.9-1.7-3.3l0,0V442l-0.5,1.2c-0.7,1.8-2.7,2.6-4.5,2l0,0L1228,433c-1.6-0.6-2.4-2.5-1.8-4.1l0.7-1.8
		c-0.5,1.4-2.1,2-3.4,1.5l0,0c-0.1,0-0.2-0.1-0.2-0.1c-1.2-0.7-1.7-2.2-1.2-3.4l9.1-23.2C1231.9,400,1233.9,399.1,1235.7,399.8
		L1235.7,399.8L1235.7,399.8z"/>
	<path class="st40" d="M1236.4,397.9l1.4,0.5l2.2-5.5c0.3-0.7,1.1-1.1,1.9-0.8l0,0l0,0l35.3,13.8c0.7,0.3,1.1,1.1,0.8,1.9l0,0
		l-2.2,5.6c0,0.1-0.1,0.2-0.1,0.2l1.4,0.6c1.8,0.7,2.7,2.7,2,4.5l0,0l0,0l-9.1,23.2c-0.5,1.3-1.9,2.1-3.3,1.7
		c-1.4-0.5-2.1-1.9-1.7-3.3v-0.1l-0.5,1.2c-0.7,1.8-2.7,2.6-4.5,2l-31.3-12.2c-1.6-0.6-2.4-2.5-1.8-4.1l0.7-1.8
		c-0.5,1.4-2.1,2-3.4,1.5c-0.1,0-0.2-0.1-0.2-0.1c-1.2-0.7-1.7-2.2-1.2-3.4l9.1-23.2C1232.5,398,1234.6,397.1,1236.4,397.9z"/>
	<path class="st41" d="M1260.7,441.7l-31.3-12.2c-1.6-0.6-2.4-2.5-1.8-4.1l0,0l12.5-32l0,0l37.4,14.6l0,0l-12.4,31.8
		C1264.5,441.5,1262.5,442.4,1260.7,441.7L1260.7,441.7z"/>
	<g class="st42">
		<path class="st43" d="M1238.2,398.2l2-5.1c0.3-0.7,1.1-1.1,1.8-0.8l35.1,13.7c0.7,0.3,1.1,1.1,0.8,1.8l-2,5.1
			c-0.3,0.7-1.1,1.1-1.8,0.8L1239,400C1238.3,399.7,1238,398.9,1238.2,398.2z"/>
		<path class="st43" d="M1265.8,440.4L1265.8,440.4c-1.3-0.5-1.9-1.9-1.4-3.2l9.7-24.7l0,0l1.5,0.6c1.7,0.7,2.5,2.5,1.8,4.2l0,0
			l-8.5,21.7C1268.4,440.2,1267,440.9,1265.8,440.4z"/>
		<path class="st43" d="M1237.9,398l1.5,0.6l0,0l-9.7,24.7c-0.5,1.3-1.9,1.9-3.2,1.4l0,0l0,0c-1.3-0.5-1.9-1.9-1.4-3.2l0,0l8.5-21.7
			C1234.3,398.2,1236.2,397.4,1237.9,398L1237.9,398L1237.9,398z"/>
	</g>
	<path class="st44" d="M1238.5,396.9l2.2-5.6c0.3-0.7,1.1-1.1,1.9-0.8l35.3,13.8c0.7,0.3,1.1,1.1,0.8,1.9l-2.2,5.6
		c-0.3,0.7-1.1,1.1-1.9,0.8l-35.3-13.8C1238.5,398.5,1238.2,397.6,1238.5,396.9z"/>
	<path class="st44" d="M1267.1,441.9L1267.1,441.9c-1.4-0.5-2-2.1-1.5-3.4l0,0l10.4-26.6l0,0l1.6,0.6c1.8,0.7,2.7,2.7,2,4.5
		l-9.1,23.4C1270,441.8,1268.5,442.4,1267.1,441.9L1267.1,441.9L1267.1,441.9L1267.1,441.9z"/>
	<path class="st44" d="M1237.1,396.3l1.6,0.6l0,0l-10.4,26.6c-0.5,1.4-2.1,2-3.4,1.5l0,0c-1.4-0.5-2-2.1-1.5-3.4l0,0l9.1-23.4
		C1233.3,396.4,1235.3,395.6,1237.1,396.3L1237.1,396.3z"/>
	<path class="st39" d="M1184.1,579.2l-1.4-0.5l-2.2,5.5c-0.3,0.7-1.1,1.1-1.9,0.8l0,0l0,0l-35.3-13.8c-0.7-0.3-1.1-1.1-0.8-1.9l0,0
		l2.2-5.6c0-0.1,0.1-0.2,0.1-0.2l-1.4-0.5c-1.8-0.7-2.7-2.7-2-4.5l0,0l9.1-23.2c0.5-1.3,1.9-2.1,3.3-1.7c1.4,0.5,2.1,1.9,1.7,3.3
		v0.1l0.5-1.2c0.7-1.8,2.7-2.6,4.5-2l0,0l31.3,12.2c1.6,0.6,2.4,2.5,1.8,4.1l-0.7,1.8c0.5-1.4,2.1-2,3.4-1.5c0.1,0,0.2,0.1,0.2,0.1
		c1.2,0.7,1.7,2.2,1.2,3.4l-9.1,23.2C1187.9,579,1185.9,579.9,1184.1,579.2z"/>
	<path class="st40" d="M1184.4,577.6l-1.4-0.5l-2.2,5.5c-0.3,0.7-1.1,1.1-1.9,0.8l-35.3-13.8c-0.7-0.3-1.1-1.1-0.8-1.9l0,0l2.2-5.6
		c0-0.1,0.1-0.2,0.1-0.2l-1.4-0.6c-1.8-0.7-2.7-2.7-2-4.5l0,0l9.1-23.2c0.5-1.3,1.9-2.1,3.3-1.7c1.4,0.5,2.1,1.9,1.7,3.3l0,0v0.1
		l0.5-1.2c0.7-1.8,2.7-2.6,4.5-2l31.3,12.2c1.6,0.6,2.4,2.5,1.8,4.1l-0.7,1.8c0.5-1.4,2.1-2,3.4-1.5l0,0c0.1,0,0.2,0.1,0.2,0.1
		c1.2,0.7,1.7,2.2,1.2,3.4l-9.1,23.2C1188.2,577.5,1186.2,578.3,1184.4,577.6z"/>
	<path class="st41" d="M1160.9,530.6l31.3,12.2c1.6,0.6,2.4,2.5,1.8,4.1l0,0l-12.5,32l0,0l-37.4-14.6l0,0l12.4-31.8
		C1157.1,530.8,1159.1,530,1160.9,530.6L1160.9,530.6z"/>
	<g class="st42">
		<path class="st43" d="M1143.7,564.5l2-5.1c0.3-0.7,1.1-1.1,1.8-0.8l35.1,13.7c0.7,0.3,1.1,1.1,0.8,1.8l-2,5.1
			c-0.3,0.7-1.1,1.1-1.8,0.8l-35.1-13.7C1143.7,566,1143.4,565.2,1143.7,564.5z"/>
		<path class="st43" d="M1155.8,532L1155.8,532c1.3,0.5,1.9,1.9,1.4,3.2l-9.7,24.7l0,0l-1.5-0.6c-1.7-0.7-2.5-2.5-1.8-4.2l8.5-21.7
			C1153.2,532.1,1154.6,531.5,1155.8,532z"/>
		<path class="st43" d="M1183.7,574.3l-1.5-0.6l0,0l9.7-24.7c0.5-1.3,1.9-1.9,3.2-1.4l0,0c1.3,0.5,1.9,1.9,1.4,3.2l-8.5,21.7
			C1187.3,574.1,1185.4,575,1183.7,574.3L1183.7,574.3L1183.7,574.3z"/>
	</g>
	<path class="st44" d="M1143,566.2l2.2-5.6c0.3-0.7,1.1-1.1,1.9-0.8l35.3,13.8c0.7,0.3,1.1,1.1,0.8,1.9l-2.2,5.6
		c-0.3,0.7-1.1,1.1-1.9,0.8l-35.3-13.8C1143.1,567.8,1142.7,567,1143,566.2z"/>
	<path class="st44" d="M1154.5,530.4L1154.5,530.4c1.4,0.5,2,2.1,1.5,3.4l0,0l0,0l-10.4,26.6l0,0l-1.6-0.6c-1.8-0.7-2.7-2.7-2-4.5
		l9.1-23.4C1151.6,530.6,1153.1,529.9,1154.5,530.4L1154.5,530.4L1154.5,530.4L1154.5,530.4z"/>
	<path class="st44" d="M1184.5,576.1l-1.6-0.6l0,0l10.4-26.6c0.5-1.4,2.1-2,3.4-1.5l0,0l0,0c1.4,0.5,2,2.1,1.5,3.4l0,0l-9.1,23.4
		C1188.3,575.9,1186.3,576.8,1184.5,576.1L1184.5,576.1z"/>
	<path class="st39" d="M1234.3,579.2l1.4-0.5l2.2,5.5c0.3,0.7,1.1,1.1,1.9,0.8l0,0l0,0l35.3-13.8c0.7-0.3,1.1-1.1,0.8-1.9l0,0
		l-2.2-5.6c0-0.1-0.1-0.2-0.1-0.2l1.4-0.5c1.8-0.7,2.7-2.7,2-4.5l0,0l-9.1-23.2c-0.5-1.3-1.9-2.1-3.3-1.7c-1.4,0.5-2.1,1.9-1.7,3.3
		v0.1l-0.5-1.2c-0.7-1.8-2.7-2.6-4.5-2l0,0l-31.3,12.2c-1.6,0.6-2.4,2.5-1.8,4.1l0.7,1.8c-0.5-1.3-2-2-3.4-1.5
		c-0.1,0-0.2,0.1-0.2,0.1c-1.2,0.7-1.7,2.2-1.2,3.4l9.1,23.2C1230.5,579,1232.5,579.9,1234.3,579.2z"/>
	<path class="st40" d="M1234.9,577.8l1.4-0.5l2.2,5.5c0.3,0.7,1.1,1.1,1.9,0.8l0,0l35.3-13.8c0.7-0.3,1.1-1.1,0.8-1.9l0,0l0,0
		l-2.2-5.6c0-0.1-0.1-0.2-0.1-0.2l1.4-0.6c1.8-0.7,2.7-2.7,2-4.5l0,0l0,0l-9.1-23.2c-0.5-1.3-1.9-2.1-3.3-1.7
		c-1.4,0.5-2.1,1.9-1.7,3.3v0.1l-0.5-1.2c-0.7-1.8-2.7-2.6-4.5-2l-31.3,12.2c-1.6,0.6-2.4,2.5-1.8,4.1l0.7,1.8
		c-0.5-1.4-2.1-2-3.4-1.5c-0.1,0-0.2,0.1-0.2,0.1c-1.2,0.7-1.7,2.2-1.2,3.4l9.1,23.2C1231.1,577.6,1233.1,578.5,1234.9,577.8
		L1234.9,577.8z"/>
	<path class="st41" d="M1275.4,564.6l-37.4,14.6l0,0l-12.5-32c-0.6-1.6,0.2-3.5,1.8-4.1l0,0l31.3-12.2c1.8-0.7,3.8,0.2,4.5,2l0,0
		L1275.4,564.6L1275.4,564.6z"/>
	<g class="st42">
		<path class="st43" d="M1236.8,572.5l35.1-13.7c0.7-0.3,1.5,0.1,1.8,0.8l2,5.1c0.3,0.7-0.1,1.5-0.8,1.8l-35.1,13.7
			c-0.7,0.3-1.5-0.1-1.8-0.8l-2-5.1C1235.7,573.6,1236.1,572.8,1236.8,572.5z"/>
		<path class="st43" d="M1273.3,559.4l-1.5,0.6l0,0l-9.7-24.7c-0.5-1.3,0.1-2.7,1.4-3.2l0,0c1.3-0.5,2.7,0.1,3.2,1.4l0,0l8.5,21.7
			C1275.8,556.9,1275,558.7,1273.3,559.4L1273.3,559.4L1273.3,559.4z"/>
		<path class="st43" d="M1224.4,547.8L1224.4,547.8c1.3-0.5,2.7,0.1,3.2,1.4l0,0l9.7,24.7l0,0l-1.5,0.6c-1.7,0.7-3.6-0.2-4.2-1.8
			l0,0L1223,551C1222.5,549.7,1223.1,548.3,1224.4,547.8z"/>
	</g>
	<path class="st44" d="M1237,573.8l35.3-13.8c0.7-0.3,1.6,0.1,1.9,0.8l2.2,5.6c0.3,0.7-0.1,1.6-0.8,1.9l-35.3,13.8
		c-0.7,0.3-1.6-0.1-1.9-0.8l-2.2-5.6C1235.9,574.9,1236.3,574.1,1237,573.8z"/>
	<path class="st44" d="M1275.5,560l-1.6,0.6l0,0l-10.4-26.6c-0.5-1.4,0.1-2.9,1.5-3.4l0,0l0,0c1.4-0.5,2.9,0.1,3.4,1.5l0,0l0,0
		l9.1,23.4C1278.1,557.3,1277.3,559.3,1275.5,560L1275.5,560z"/>
	<path class="st44" d="M1222.7,547.5L1222.7,547.5c1.4-0.5,2.9,0.1,3.4,1.5l0,0l0,0l10.4,26.6l0,0l-1.6,0.6c-1.8,0.7-3.8-0.2-4.5-2
		l-9.1-23.4C1220.7,549.6,1221.4,548,1222.7,547.5L1222.7,547.5L1222.7,547.5L1222.7,547.5z"/>
	<path class="st35" d="M1436.4,453.6h163.5v75.8h-163.5c-2.8,0-5-2.3-5-5l0,0l0,0v-65.7C1431.3,455.8,1433.6,453.6,1436.4,453.6
		L1436.4,453.6L1436.4,453.6z"/>
	<path class="st36" d="M1436.4,450.9h163.5v75.8h-163.5c-2.8,0-5-2.3-5-5l0,0l0,0V456C1431.3,453.2,1433.6,450.9,1436.4,450.9z"/>
	<path class="st37" d="M1436.4,448.1h163.5v75.8h-163.5c-2.8,0-5-2.3-5-5l0,0l0,0v-65.7C1431.3,450.3,1433.6,448.1,1436.4,448.1z"/>
	<rect x="1599.9" y="372.8" class="st38" width="47.6" height="261.2"/>
	<path class="st39" d="M1491.1,400.6l-1.4,0.5l-2.2-5.5c-0.3-0.7-1.1-1.1-1.9-0.8l0,0l0,0l-35.3,13.8c-0.7,0.3-1.1,1.1-0.8,1.9
		l2.2,5.6c0,0.1,0.1,0.2,0.1,0.2l-1.4,0.6c-1.8,0.7-2.7,2.7-2,4.5l0,0l9.1,23.2c0.5,1.3,1.9,2.1,3.3,1.7c1.4-0.5,2.1-1.9,1.7-3.3
		v-0.1l0.5,1.2c0.7,1.8,2.7,2.6,4.5,2l0,0l31.3-12.2c1.6-0.6,2.4-2.5,1.8-4.1l-0.7-1.8c0.5,1.4,2.1,2,3.4,1.5c0.1,0,0.2-0.1,0.2-0.1
		c1.2-0.7,1.7-2.2,1.2-3.4l-9.1-23.2C1494.9,400.8,1492.9,399.9,1491.1,400.6z"/>
	<path class="st40" d="M1490.4,398.7l-1.4,0.5l-2.2-5.5c-0.3-0.7-1.1-1.1-1.9-0.8l-35.3,13.8c-0.7,0.3-1.1,1.1-0.8,1.9l0,0l0,0
		l2.2,5.6c0,0.1,0.1,0.2,0.1,0.2l-1.4,0.6c-1.8,0.7-2.7,2.7-2,4.5l0,0l9.1,23.2c0.5,1.3,1.9,2.1,3.3,1.7c1.4-0.5,2.1-1.9,1.7-3.3
		l0,0V441l0.5,1.2c0.7,1.8,2.7,2.6,4.5,2l31.3-12.2c1.6-0.6,2.4-2.5,1.8-4.1l-0.7-1.8c0.5,1.3,2,2,3.4,1.5c0.1,0,0.2-0.1,0.2-0.1
		c1.2-0.7,1.7-2.2,1.2-3.4l-9.1-23.2C1494.2,398.9,1492.2,398,1490.4,398.7z"/>
	<path class="st41" d="M1448.6,409l37.4-14.6l0,0l12.5,32c0.6,1.6-0.2,3.5-1.8,4.1l0,0l-31.3,12.2c-1.8,0.7-3.8-0.2-4.5-2l0,0
		L1448.6,409L1448.6,409z"/>
	<g class="st42">
		<path class="st43" d="M1449.6,406.8l35.1-13.7c0.7-0.3,1.5,0.1,1.8,0.8l2,5.1c0.3,0.7-0.1,1.5-0.8,1.8l-35.1,13.7
			c-0.7,0.3-1.5-0.1-1.8-0.8l-2-5.1C1448.6,407.9,1448.9,407.1,1449.6,406.8z"/>
		<path class="st43" d="M1451.2,413.9l1.5-0.6l0,0l9.7,24.7c0.5,1.3-0.1,2.7-1.4,3.2l0,0l0,0c-1.3,0.5-2.7-0.1-3.2-1.4l-8.5-21.7
			C1448.7,416.5,1449.5,414.6,1451.2,413.9L1451.2,413.9L1451.2,413.9z"/>
		<path class="st43" d="M1500.7,425.3L1500.7,425.3c-1.3,0.5-2.7-0.1-3.2-1.4l-9.7-24.7l0,0l1.5-0.6c1.7-0.7,3.6,0.2,4.2,1.8l0,0
			l8.5,21.7C1502.6,423.4,1502,424.8,1500.7,425.3L1500.7,425.3z"/>
	</g>
	<path class="st44" d="M1449,405.1l35.3-13.8c0.7-0.3,1.6,0.1,1.9,0.8l2.2,5.6c0.3,0.7-0.1,1.6-0.8,1.9l-35.3,13.8
		c-0.7,0.3-1.6-0.1-1.9-0.8l-2.2-5.6C1447.9,406.2,1448.2,405.3,1449,405.1z"/>
	<path class="st44" d="M1448.5,413.5l1.6-0.6l0,0l10.4,26.6c0.5,1.4-0.1,2.9-1.5,3.4l0,0c-1.4,0.5-2.9-0.1-3.4-1.5l0,0l-9.1-23.3
		C1445.8,416.3,1446.7,414.2,1448.5,413.5L1448.5,413.5z"/>
	<path class="st44" d="M1501.8,425.8L1501.8,425.8c-1.4,0.5-2.9-0.1-3.4-1.5l0,0l0,0l-10.4-26.6l0,0l1.6-0.6c1.8-0.7,3.8,0.2,4.5,2
		l0,0l9.1,23.4C1503.9,423.8,1503.2,425.3,1501.8,425.8z"/>
	<path class="st39" d="M1538.6,400.5l1.4,0.5l2.2-5.5c0.3-0.7,1.1-1.1,1.9-0.8l35.3,13.8c0.7,0.3,1.1,1.1,0.8,1.9l0,0l-2.2,5.6
		c0,0.1-0.1,0.2-0.1,0.2l1.4,0.6c1.8,0.7,2.7,2.7,2,4.5l0,0l0,0l-9.1,23.2c-0.5,1.3-1.9,2.1-3.3,1.7c-1.4-0.5-2.1-1.9-1.7-3.3l0,0
		v-0.1l-0.5,1.2c-0.7,1.8-2.7,2.6-4.5,2l-31.3-12.2c-1.6-0.6-2.4-2.5-1.8-4.1l0.7-1.8c-0.5,1.4-2.1,2-3.4,1.5
		c-0.1,0-0.2-0.1-0.2-0.1c-1.2-0.7-1.7-2.2-1.2-3.4l9.1-23.2C1534.8,400.6,1536.8,399.7,1538.6,400.5L1538.6,400.5z"/>
	<path class="st40" d="M1539.3,398.5l1.4,0.5l2.2-5.5c0.3-0.7,1.1-1.1,1.9-0.8l0,0l0,0l35.3,13.8c0.7,0.3,1.1,1.1,0.8,1.9l0,0l0,0
		l-2.2,5.6c0,0.1-0.1,0.2-0.1,0.2l1.4,0.5c1.8,0.7,2.7,2.7,2,4.5l0,0l0,0l-9.1,23.2c-0.5,1.3-1.9,2.1-3.3,1.7
		c-1.4-0.5-2.1-1.9-1.7-3.3v-0.1l-0.5,1.2c-0.7,1.8-2.7,2.6-4.5,2l0,0l0,0l-31.3-12.2c-1.6-0.6-2.4-2.5-1.8-4.1l0.7-1.8
		c-0.5,1.4-2.1,2-3.4,1.5c-0.1,0-0.2-0.1-0.2-0.1c-1.2-0.7-1.7-2.2-1.2-3.4l9.1-23.2C1535.5,398.7,1537.5,397.8,1539.3,398.5z"/>
	<path class="st41" d="M1563.6,442.3l-31.3-12.2c-1.6-0.6-2.4-2.5-1.8-4.1l0,0l12.5-32l0,0l37.4,14.6l0,0l-12.4,31.8
		C1567.4,442.1,1565.4,443,1563.6,442.3L1563.6,442.3z"/>
	<g class="st42">
		<path class="st43" d="M1541.2,398.8l2-5.1c0.3-0.7,1.1-1.1,1.8-0.8l35.1,13.7c0.7,0.3,1.1,1.1,0.8,1.8l-2,5.1
			c-0.3,0.7-1.1,1.1-1.8,0.8l-35.1-13.7C1541.2,400.3,1540.9,399.5,1541.2,398.8z"/>
		<path class="st43" d="M1568.7,441L1568.7,441c-1.3-0.5-1.9-1.9-1.4-3.2l0,0l9.7-24.7l0,0l1.5,0.6c1.7,0.7,2.5,2.5,1.8,4.2l0,0
			l-8.5,21.7C1571.4,440.9,1569.9,441.5,1568.7,441z"/>
		<path class="st43" d="M1540.8,398.7l1.5,0.6l0,0l-9.7,24.7c-0.5,1.3-1.9,1.9-3.2,1.4l0,0c-1.3-0.5-1.9-1.9-1.4-3.2l8.5-21.7
			C1537.3,398.8,1539.1,398,1540.8,398.7L1540.8,398.7L1540.8,398.7z"/>
	</g>
	<path class="st44" d="M1541.4,397.5l2.2-5.6c0.3-0.7,1.1-1.1,1.9-0.8l35.3,13.8c0.7,0.3,1.1,1.1,0.8,1.9l-2.2,5.6
		c-0.3,0.7-1.1,1.1-1.9,0.8l-35.3-13.8C1541.5,399.1,1541.1,398.3,1541.4,397.5z"/>
	<path class="st44" d="M1570.1,442.5L1570.1,442.5c-1.4-0.5-2-2.1-1.5-3.4l0,0l10.4-26.6l0,0l1.6,0.6c1.8,0.7,2.7,2.7,2,4.5l0,0
		l-9.1,23.4C1572.9,442.4,1571.4,443,1570.1,442.5z"/>
	<path class="st44" d="M1540,396.9l1.6,0.6l0,0l-10.4,26.6c-0.5,1.4-2.1,2-3.4,1.5l0,0l0,0c-1.4-0.5-2-2.1-1.5-3.4l0,0l0,0l9.1-23.4
		C1536.2,397.1,1538.2,396.2,1540,396.9L1540,396.9z"/>
	<path class="st39" d="M1487,579.8l-1.4-0.5l-2.2,5.5c-0.3,0.7-1.1,1.1-1.9,0.8l0,0l0,0l-35.3-13.8c-0.7-0.3-1.1-1.1-0.8-1.9
		l2.2-5.6c0-0.1,0.1-0.2,0.1-0.2l-1.4-0.6c-1.8-0.7-2.7-2.7-2-4.5l0,0l9.1-23.2c0.5-1.3,1.9-2.1,3.3-1.7c1.4,0.5,2.1,1.9,1.7,3.3
		l0,0v0.1l0.5-1.2c0.7-1.8,2.7-2.6,4.5-2l0,0l31.3,12.2c1.6,0.6,2.4,2.5,1.8,4.1l-0.7,1.8c0.5-1.4,2.1-2,3.4-1.5
		c0.1,0,0.2,0.1,0.2,0.1c1.2,0.7,1.7,2.2,1.2,3.4l-9.1,23.2C1490.8,579.6,1488.8,580.5,1487,579.8z"/>
	<path class="st40" d="M1487.4,578.3l-1.4-0.5l-2.2,5.5c-0.3,0.7-1.1,1.1-1.9,0.8l0,0l0,0l-35.3-13.8c-0.7-0.3-1.1-1.1-0.8-1.9l0,0
		l0,0l2.2-5.6c0-0.1,0.1-0.2,0.1-0.2l-1.4-0.5c-1.8-0.7-2.7-2.7-2-4.5l0,0l9.1-23.2c0.5-1.3,1.9-2.1,3.3-1.7
		c1.4,0.5,2.1,1.9,1.7,3.3l0,0v0.1l0.5-1.2c0.7-1.8,2.7-2.6,4.5-2l0,0l0,0l31.3,12.2c1.6,0.6,2.4,2.5,1.8,4.1l-0.7,1.8
		c0.5-1.3,2-2,3.4-1.5c0.1,0,0.2,0.1,0.2,0.1c1.2,0.7,1.7,2.2,1.2,3.4l-9.1,23.2C1491.2,578.1,1489.1,579,1487.4,578.3z"/>
	<path class="st41" d="M1463.8,531.3l31.3,12.2c1.6,0.6,2.4,2.5,1.8,4.1l0,0l-12.5,32l0,0L1447,565l0,0l12.4-31.8
		C1460.1,531.5,1462.1,530.6,1463.8,531.3z"/>
	<g class="st42">
		<path class="st43" d="M1446.6,565.1l2-5.1c0.3-0.7,1.1-1.1,1.8-0.8l35.1,13.7c0.7,0.3,1.1,1.1,0.8,1.8l-2,5.1
			c-0.3,0.7-1.1,1.1-1.8,0.8l-35.1-13.7C1446.7,566.6,1446.3,565.8,1446.6,565.1z"/>
		<path class="st43" d="M1458.8,532.6L1458.8,532.6c1.3,0.5,1.9,1.9,1.4,3.2l-9.7,24.7l0,0l-1.5-0.6c-1.7-0.7-2.5-2.5-1.8-4.2
			l8.5-21.7C1456.1,532.7,1457.5,532.1,1458.8,532.6z"/>
		<path class="st43" d="M1486.6,574.9l-1.5-0.6l0,0l9.7-24.7c0.5-1.3,1.9-1.9,3.2-1.4l0,0l0,0c1.3,0.5,1.9,1.9,1.4,3.2l0,0
			l-8.5,21.7C1490.2,574.8,1488.3,575.6,1486.6,574.9L1486.6,574.9z"/>
	</g>
	<path class="st44" d="M1445.9,566.9l2.2-5.6c0.3-0.7,1.1-1.1,1.9-0.8l35.3,13.8c0.7,0.3,1.1,1.1,0.8,1.9l-2.2,5.6
		c-0.3,0.7-1.1,1.1-1.9,0.8l-35.3-13.8C1446,568.4,1445.6,567.6,1445.9,566.9z"/>
	<path class="st44" d="M1457.4,531.1L1457.4,531.1c1.4,0.5,2,2.1,1.5,3.4l0,0l-10.4,26.6l0,0l-1.6-0.6c-1.8-0.7-2.7-2.7-2-4.5l0,0
		l9.1-23.4C1454.5,531.2,1456,530.5,1457.4,531.1z"/>
	<path class="st44" d="M1487.4,576.7l-1.6-0.6l0,0l10.4-26.6c0.5-1.4,2.1-2,3.4-1.5l0,0l0,0c1.4,0.5,2,2.1,1.5,3.4l0,0l0,0
		l-9.1,23.4C1491.3,576.5,1489.2,577.4,1487.4,576.7L1487.4,576.7z"/>
	<path class="st39" d="M1537.2,579.8l1.4-0.5l2.2,5.5c0.3,0.7,1.1,1.1,1.9,0.8l0,0l0,0l35.3-13.8c0.7-0.3,1.1-1.1,0.8-1.9l-2.2-5.6
		c0-0.1-0.1-0.2-0.1-0.2l1.4-0.6c1.8-0.7,2.7-2.7,2-4.5l0,0l-9.1-23.2c-0.5-1.3-1.9-2.1-3.3-1.7c-1.4,0.5-2.1,1.9-1.7,3.3l0,0v0.1
		l-0.5-1.2c-0.7-1.8-2.7-2.6-4.5-2l0,0l-31.3,12.2c-1.6,0.6-2.4,2.5-1.8,4.1l0.7,1.8c-0.5-1.4-2.1-2-3.4-1.5l0,0
		c-0.1,0-0.2,0.1-0.2,0.1c-1.2,0.7-1.7,2.2-1.2,3.4l9.1,23.2C1533.4,579.6,1535.4,580.5,1537.2,579.8z"/>
	<path class="st40" d="M1537.9,578.4l1.4-0.5l2.2,5.5c0.3,0.7,1.1,1.1,1.9,0.8l0,0l35.3-13.8c0.7-0.3,1.1-1.1,0.8-1.9l0,0l0,0
		l-2.2-5.6c0-0.1-0.1-0.2-0.1-0.2l1.4-0.5c1.8-0.7,2.7-2.7,2-4.5l0,0l0,0l-9.1-23.2c-0.5-1.3-1.9-2.1-3.3-1.7
		c-1.4,0.5-2.1,1.9-1.7,3.3v0.1l-0.5-1.2c-0.7-1.8-2.7-2.6-4.5-2l0,0l0,0l-31.3,12.2c-1.6,0.6-2.4,2.5-1.8,4.1l0.7,1.8
		c-0.5-1.4-2.1-2-3.4-1.5l0,0c-0.1,0-0.2,0.1-0.2,0.1c-1.2,0.7-1.7,2.2-1.2,3.4l9.1,23.2C1534,578.2,1536.1,579.1,1537.9,578.4z"/>
	<path class="st41" d="M1578.3,565.2l-37.4,14.6l0,0l-12.5-32c-0.6-1.6,0.2-3.5,1.8-4.1l0,0l0,0l31.3-12.2c1.8-0.7,3.8,0.2,4.5,2
		l0,0L1578.3,565.2L1578.3,565.2z"/>
	<g class="st42">
		<path class="st43" d="M1539.7,573.2l35.1-13.7c0.7-0.3,1.5,0.1,1.8,0.8l2,5.1c0.3,0.7-0.1,1.5-0.8,1.8l-35.1,13.7
			c-0.7,0.3-1.5-0.1-1.8-0.8l-2-5.1C1538.6,574.2,1539,573.4,1539.7,573.2z"/>
		<path class="st43" d="M1576.2,560l-1.5,0.6l0,0l-9.7-24.7c-0.5-1.3,0.1-2.7,1.4-3.2l0,0c1.3-0.5,2.7,0.1,3.2,1.4l0,0l8.5,21.7
			C1578.7,557.5,1577.9,559.4,1576.2,560L1576.2,560L1576.2,560z"/>
		<path class="st43" d="M1527.3,548.4L1527.3,548.4c1.3-0.5,2.7,0.1,3.2,1.4l0,0l9.7,24.7l0,0l-1.5,0.6c-1.7,0.7-3.6-0.2-4.2-1.8
			l0,0l-8.5-21.7C1525.4,550.3,1526,548.9,1527.3,548.4L1527.3,548.4z"/>
	</g>
	<path class="st44" d="M1540,574.4l35.3-13.8c0.7-0.3,1.6,0.1,1.9,0.8l2.2,5.6c0.3,0.7-0.1,1.6-0.8,1.9l-35.3,13.8
		c-0.7,0.3-1.6-0.1-1.9-0.8l-2.2-5.6C1538.9,575.5,1539.2,574.7,1540,574.4z"/>
	<path class="st44" d="M1578.4,560.6l-1.6,0.6l0,0l-10.4-26.6c-0.5-1.4,0.1-2.9,1.5-3.4l0,0l0,0c1.4-0.5,2.9,0.1,3.4,1.5l0,0
		l9.1,23.4C1581.1,557.9,1580.2,559.9,1578.4,560.6L1578.4,560.6z"/>
	<path class="st44" d="M1525.6,548.1L1525.6,548.1c1.4-0.5,2.9,0.1,3.4,1.5l0,0l0,0l10.4,26.6l0,0l-1.6,0.6c-1.8,0.7-3.8-0.2-4.5-2
		l-9.1-23.4C1523.6,550.2,1524.3,548.7,1525.6,548.1L1525.6,548.1L1525.6,548.1L1525.6,548.1z"/>
	<path class="st35" d="M2791.4,537.3h-163.5v-75.8h163.5c2.8,0,5,2.3,5,5l0,0l0,0v65.7C2796.5,535.1,2794.2,537.3,2791.4,537.3
		L2791.4,537.3L2791.4,537.3L2791.4,537.3z"/>
	<path class="st36" d="M2791.4,534.7h-163.5v-75.8h163.5c2.8,0,5,2.3,5,5l0,0l0,0v65.7C2796.5,532.4,2794.2,534.7,2791.4,534.7
		L2791.4,534.7z"/>
	<path class="st37" d="M2791.4,531.9h-163.5v-75.8h163.5c2.8,0,5,2.3,5,5l0,0l0,0v65.7C2796.5,529.6,2794.2,531.9,2791.4,531.9
		L2791.4,531.9L2791.4,531.9L2791.4,531.9z"/>
	<rect x="2580.3" y="369.8" class="st38" width="47.6" height="272.2"/>
	<path class="st39" d="M2736.8,408.6l1.4,0.5l2.2-5.5c0.3-0.7,1.1-1.1,1.9-0.8l0,0l0,0l35.3,13.8c0.7,0.3,1.1,1.1,0.8,1.9l0,0l0,0
		l-2.2,5.6c0,0.1-0.1,0.2-0.1,0.2l1.4,0.6c1.8,0.7,2.7,2.7,2,4.5l0,0l-9.1,23.2c-0.5,1.3-1.9,2.1-3.3,1.7c-1.4-0.5-2.1-1.9-1.7-3.3
		l0,0v-0.1l-0.5,1.2c-0.7,1.8-2.7,2.6-4.5,2l0,0l0,0l-31.3-12.2c-1.6-0.6-2.4-2.5-1.8-4.1l0.7-1.8c-0.5,1.4-2.1,2-3.4,1.5
		c-0.1,0-0.2-0.1-0.2-0.1c-1.2-0.7-1.7-2.2-1.2-3.4l9.1-23.2C2732.9,408.8,2735,407.9,2736.8,408.6z"/>
	<path class="st40" d="M2737.4,406.7l1.4,0.5l2.2-5.5c0.3-0.7,1.1-1.1,1.9-0.8l35.3,13.8c0.7,0.3,1.1,1.1,0.8,1.9l0,0l0,0l-2.2,5.6
		c0,0.1-0.1,0.2-0.1,0.2l1.4,0.6c1.8,0.7,2.7,2.7,2,4.5l0,0l0,0l-9.1,23.2c-0.5,1.3-1.9,2.1-3.3,1.7c-1.4-0.5-2.1-1.9-1.7-3.3l0,0
		V449l-0.5,1.2c-0.7,1.8-2.7,2.7-4.5,2l0,0l-31.3-12.2c-1.6-0.6-2.4-2.5-1.8-4.1l0.7-1.8c-0.5,1.3-2,2-3.4,1.5
		c-0.1,0-0.2-0.1-0.2-0.1c-1.2-0.7-1.7-2.2-1.2-3.4l9.1-23.2C2733.6,406.9,2735.6,406,2737.4,406.7z"/>
	<path class="st41" d="M2761.7,450.5l-31.3-12.2c-1.6-0.6-2.4-2.5-1.8-4.1l12.5-32l0,0l37.4,14.6l0,0l-12.4,31.8
		C2765.5,450.3,2763.5,451.2,2761.7,450.5z"/>
	<g class="st42">
		<path class="st43" d="M2739.3,407l2-5.1c0.3-0.7,1.1-1.1,1.8-0.8l35.1,13.7c0.7,0.3,1.1,1.1,0.8,1.8l-2,5.1
			c-0.3,0.7-1.1,1.1-1.8,0.8l-35.1-13.7C2739.3,408.5,2739,407.7,2739.3,407z"/>
		<path class="st43" d="M2766.8,449.2L2766.8,449.2c-1.3-0.5-1.9-1.9-1.4-3.2l9.7-24.7l0,0l1.5,0.6c1.7,0.7,2.5,2.5,1.8,4.2l0,0
			l-8.5,21.7C2769.5,449.1,2768.1,449.7,2766.8,449.2L2766.8,449.2z"/>
		<path class="st43" d="M2738.9,406.9l1.5,0.6l0,0l-9.7,24.7c-0.5,1.3-1.9,1.9-3.2,1.4l0,0c-1.3-0.5-1.9-1.9-1.4-3.2l8.5-21.7
			C2735.4,407,2737.3,406.2,2738.9,406.9L2738.9,406.9L2738.9,406.9z"/>
	</g>
	<path class="st44" d="M2739.5,405.7l2.2-5.6c0.3-0.7,1.1-1.1,1.9-0.8l35.3,13.8c0.7,0.3,1.1,1.1,0.8,1.9l-2.2,5.6
		c-0.3,0.7-1.1,1.1-1.9,0.8l-35.3-13.8C2739.6,407.3,2739.2,406.4,2739.5,405.7z"/>
	<path class="st44" d="M2768.2,450.7L2768.2,450.7c-1.4-0.5-2-2.1-1.5-3.4l0,0l10.4-26.6l0,0l1.6,0.6c1.8,0.7,2.7,2.7,2,4.5l0,0
		l-9.1,23.4C2771.1,450.6,2769.5,451.2,2768.2,450.7L2768.2,450.7L2768.2,450.7z"/>
	<path class="st44" d="M2738.2,405.1l1.6,0.6l0,0l-10.4,26.6c-0.5,1.4-2.1,2-3.4,1.5l0,0l0,0c-1.4-0.5-2-2.1-1.5-3.4l0,0l9.1-23.4
		C2734.3,405.3,2736.3,404.4,2738.2,405.1C2738.1,405.1,2738.1,405.1,2738.2,405.1L2738.2,405.1z"/>
	<path class="st39" d="M2689.2,408.5l-1.4,0.5l-2.2-5.5c-0.3-0.7-1.1-1.1-1.9-0.8l-35.3,13.8c-0.7,0.3-1.1,1.1-0.8,1.9l0,0l0,0
		l2.2,5.6c0,0.1,0.1,0.2,0.1,0.2l-1.4,0.6c-1.8,0.7-2.7,2.7-2,4.5l0,0l9.1,23.2c0.5,1.3,1.9,2.1,3.3,1.7c1.4-0.5,2.1-1.9,1.7-3.3
		l0,0v-0.1l0.5,1.2c0.7,1.8,2.7,2.6,4.5,2l31.3-12.2c1.6-0.6,2.4-2.5,1.8-4.1l-0.7-1.8c0.5,1.4,2.1,2,3.4,1.5c0.1,0,0.2-0.1,0.2-0.1
		c1.2-0.7,1.7-2.2,1.2-3.4l-9.1-23.2C2693,408.6,2691,407.8,2689.2,408.5L2689.2,408.5L2689.2,408.5z"/>
	<path class="st40" d="M2688.5,406.5l-1.4,0.5l-2.2-5.5c-0.3-0.7-1.1-1.1-1.9-0.8l-35.3,13.8c-0.7,0.3-1.1,1.1-0.8,1.9l0,0l0,0
		l2.2,5.6c0,0.1,0.1,0.2,0.1,0.2l-1.4,0.5c-1.8,0.7-2.7,2.7-2,4.5l0,0l9.1,23.2c0.5,1.3,1.9,2.1,3.3,1.7c1.4-0.5,2.1-1.9,1.7-3.3
		l0,0v-0.1l0.5,1.2c0.7,1.8,2.7,2.6,4.5,2l0,0l31.3-12.2c1.6-0.6,2.4-2.5,1.8-4.1l-0.7-1.8c0.5,1.4,2.1,2,3.4,1.5l0,0
		c0.1,0,0.2-0.1,0.2-0.1c1.2-0.7,1.7-2.2,1.2-3.4l-9.1-23.2C2692.3,406.7,2690.3,405.8,2688.5,406.5z"/>
	<path class="st41" d="M2647.3,416.6l37.4-14.6l0,0l12.5,32c0.6,1.6-0.2,3.5-1.8,4.1l-31.3,12.2c-1.8,0.7-3.8-0.2-4.5-2l0,0
		L2647.3,416.6L2647.3,416.6L2647.3,416.6z"/>
	<g class="st42">
		<path class="st43" d="M2647.7,414.7l35.1-13.7c0.7-0.3,1.5,0.1,1.8,0.8l2,5.1c0.3,0.7-0.1,1.5-0.8,1.8l-35.1,13.7
			c-0.7,0.3-1.5-0.1-1.8-0.8l-2-5.1C2646.7,415.7,2647,414.9,2647.7,414.7z"/>
		<path class="st43" d="M2649.3,421.7l1.5-0.6l0,0l9.7,24.7c0.5,1.3-0.1,2.7-1.4,3.2l0,0l0,0c-1.3,0.5-2.7-0.1-3.2-1.4l0,0
			l-8.5-21.7C2646.8,424.3,2647.7,422.4,2649.3,421.7L2649.3,421.7L2649.3,421.7z"/>
		<path class="st43" d="M2698.3,433.3L2698.3,433.3c-1.3,0.5-2.7-0.1-3.2-1.4l0,0l-9.7-24.7l0,0l1.5-0.6c1.7-0.7,3.6,0.2,4.2,1.8
			l0,0l8.5,21.7C2700.2,431.4,2699.5,432.8,2698.3,433.3z"/>
	</g>
	<path class="st44" d="M2647.1,412.9l35.3-13.8c0.7-0.3,1.6,0.1,1.9,0.8l2.2,5.6c0.3,0.7-0.1,1.6-0.8,1.9l-35.3,13.8
		c-0.7,0.3-1.6-0.1-1.9-0.8l-2.2-5.6C2646,414,2646.4,413.2,2647.1,412.9z"/>
	<path class="st44" d="M2647.2,421.1l1.6-0.6l0,0l10.4,26.6c0.5,1.4-0.1,2.9-1.5,3.4l0,0l0,0c-1.4,0.5-2.9-0.1-3.4-1.5l0,0
		l-9.1-23.4C2644.5,423.9,2645.4,421.8,2647.2,421.1L2647.2,421.1z"/>
	<path class="st44" d="M2699.9,433.6L2699.9,433.6c-1.4,0.5-2.9-0.1-3.4-1.5l0,0l-10.4-26.6l0,0l1.6-0.6c1.8-0.7,3.8,0.2,4.5,2
		l9.1,23.4C2702,431.6,2701.3,433.1,2699.9,433.6L2699.9,433.6L2699.9,433.6z"/>
	<path class="st39" d="M2740.8,587.8l1.4-0.5l2.2,5.5c0.3,0.7,1.1,1.1,1.9,0.8l0,0l0,0l35.3-13.8c0.7-0.3,1.1-1.1,0.8-1.9l0,0l0,0
		l-2.2-5.6c0-0.1-0.1-0.2-0.1-0.2l1.4-0.6c1.8-0.7,2.7-2.7,2-4.5l0,0l-9.1-23.2c-0.5-1.3-1.9-2.1-3.3-1.7c-1.4,0.5-2.1,1.9-1.7,3.3
		l0,0v0.1l-0.5-1.2c-0.7-1.8-2.7-2.6-4.5-2l0,0l0,0l-31.3,12.2c-1.6,0.6-2.4,2.5-1.8,4.1l0.7,1.8c-0.5-1.4-2.1-2-3.4-1.5l0,0
		c-0.1,0-0.2,0.1-0.2,0.1c-1.2,0.7-1.7,2.2-1.2,3.4l9.1,23.2C2737,587.6,2739,588.5,2740.8,587.8z"/>
	<path class="st40" d="M2740.5,586.3l1.4-0.5l2.2,5.5c0.3,0.7,1.1,1.1,1.9,0.8l0,0l0,0l35.3-13.8c0.7-0.3,1.1-1.1,0.8-1.9l0,0l0,0
		l-2.2-5.6c0-0.1-0.1-0.2-0.1-0.2l1.4-0.5c1.8-0.7,2.7-2.7,2-4.5l0,0l0,0l-9.1-23.2c-0.5-1.3-1.9-2.1-3.3-1.7
		c-1.4,0.5-2.1,1.9-1.7,3.3l0,0v0.1l-0.5-1.2c-0.7-1.8-2.7-2.6-4.5-2l0,0l-31.3,12.2c-1.6,0.6-2.4,2.5-1.8,4.1l0.7,1.8
		c-0.5-1.4-2.1-2-3.4-1.5l0,0c-0.1,0-0.2,0.1-0.2,0.1c-1.2,0.7-1.7,2.2-1.2,3.4l9.1,23.2C2736.6,586.1,2738.7,587,2740.5,586.3z"/>
	<path class="st41" d="M2780.9,573l-37.4,14.6l0,0l-12.5-32c-0.6-1.6,0.2-3.5,1.8-4.1l31.3-12.2c1.8-0.7,3.8,0.2,4.5,2l0,0
		L2780.9,573L2780.9,573z"/>
	<g class="st42">
		<path class="st43" d="M2742.3,581l35.1-13.7c0.7-0.3,1.5,0.1,1.8,0.8l2,5.1c0.3,0.7-0.1,1.5-0.8,1.8l-35.1,13.7
			c-0.7,0.3-1.5-0.1-1.8-0.8l-2-5.1C2741.2,582,2741.6,581.2,2742.3,581z"/>
		<path class="st43" d="M2778.8,567.8l-1.5,0.6l0,0l-9.7-24.7c-0.5-1.3,0.1-2.7,1.4-3.2l0,0c1.3-0.5,2.7,0.1,3.2,1.4l0,0l8.5,21.7
			C2781.3,565.3,2780.5,567.2,2778.8,567.8L2778.8,567.8L2778.8,567.8z"/>
		<path class="st43" d="M2729.9,556.2L2729.9,556.2c1.3-0.5,2.7,0.1,3.2,1.4l9.7,24.7l0,0l-1.5,0.6c-1.7,0.7-3.6-0.2-4.2-1.8
			l-8.5-21.7C2728,558.2,2728.6,556.7,2729.9,556.2z"/>
	</g>
	<path class="st44" d="M2742.6,582.2l35.3-13.8c0.7-0.3,1.6,0.1,1.9,0.8l2.2,5.6c0.3,0.7-0.1,1.6-0.8,1.9l-35.3,13.8
		c-0.7,0.3-1.6-0.1-1.9-0.8l-2.2-5.6C2741.5,583.3,2741.8,582.5,2742.6,582.2z"/>
	<path class="st44" d="M2781,568.4l-1.6,0.6l0,0l-10.4-26.6c-0.5-1.4,0.1-2.9,1.5-3.4l0,0l0,0c1.4-0.5,2.9,0.1,3.4,1.5l0,0l9.1,23.3
		C2783.7,565.7,2782.8,567.7,2781,568.4L2781,568.4L2781,568.4z"/>
	<path class="st44" d="M2728.2,556L2728.2,556c1.4-0.5,2.9,0.1,3.4,1.5l0,0l10.4,26.6l0,0l-1.6,0.6c-1.8,0.7-3.8-0.2-4.5-2l0,0
		l-9.1-23.4C2726.2,558,2726.9,556.5,2728.2,556z"/>
	<path class="st39" d="M2690.6,587.8l-1.4-0.5l-2.2,5.5c-0.3,0.7-1.1,1.1-1.9,0.8l0,0l0,0l-35.3-13.8c-0.7-0.3-1.1-1.1-0.8-1.9
		l2.2-5.6c0-0.1,0.1-0.2,0.1-0.2l-1.4-0.6c-1.8-0.7-2.7-2.7-2-4.5l0,0l9.1-23.2c0.5-1.3,1.9-2.1,3.3-1.7c1.4,0.5,2.1,1.9,1.7,3.3
		v0.1l0.5-1.2c0.7-1.8,2.7-2.6,4.5-2l0,0l31.3,12.2c1.6,0.6,2.4,2.5,1.8,4.1l-0.7,1.8c0.5-1.4,2.1-2,3.4-1.5l0,0
		c0.1,0,0.2,0.1,0.2,0.1c1.2,0.7,1.7,2.2,1.2,3.4l-9.1,23.2C2694.4,587.6,2692.4,588.5,2690.6,587.8z"/>
	<path class="st40" d="M2690,586.4l-1.4-0.5l-2.2,5.5c-0.3,0.7-1.1,1.1-1.9,0.8l-35.3-13.8c-0.7-0.3-1.1-1.1-0.8-1.9l0,0l0,0
		l2.2-5.6c0-0.1,0.1-0.2,0.1-0.2l-1.4-0.5c-1.8-0.7-2.7-2.7-2-4.5l0,0l0,0l9.1-23.2c0.5-1.3,1.9-2.1,3.3-1.7
		c1.4,0.5,2.1,1.9,1.7,3.3l0,0v0.1l0.5-1.2c0.7-1.8,2.7-2.6,4.5-2l0,0l0,0l31.3,12.2c1.6,0.6,2.4,2.5,1.8,4.1l-0.7,1.8
		c0.5-1.4,2.1-2,3.4-1.5l0,0c0.1,0,0.2,0.1,0.2,0.1c1.2,0.7,1.7,2.2,1.2,3.4l-9.1,23.2C2693.8,586.2,2691.8,587.1,2690,586.4z"/>
	<path class="st41" d="M2666.4,539.5l31.3,12.2c1.6,0.6,2.4,2.5,1.8,4.1l-12.5,32l0,0l-37.4-14.6l0,0l12.4-31.8
		C2662.6,539.7,2664.6,538.8,2666.4,539.5L2666.4,539.5z"/>
	<g class="st42">
		<path class="st43" d="M2649.2,573.3l2-5.1c0.3-0.7,1.1-1.1,1.8-0.8l35.1,13.7c0.7,0.3,1.1,1.1,0.8,1.8l-2,5.1
			c-0.3,0.7-1.1,1.1-1.8,0.8l-35.1-13.7C2649.3,574.8,2648.9,574,2649.2,573.3z"/>
		<path class="st43" d="M2661.4,540.8L2661.4,540.8c1.3,0.5,1.9,1.9,1.4,3.2l0,0l-9.7,24.7l0,0l-1.5-0.6c-1.7-0.7-2.5-2.5-1.8-4.2
			l0,0l8.5-21.7C2658.7,540.9,2660.1,540.3,2661.4,540.8L2661.4,540.8L2661.4,540.8z"/>
		<path class="st43" d="M2689.2,583.1l-1.5-0.6l0,0l9.7-24.7c0.5-1.3,1.9-1.9,3.2-1.4l0,0c1.3,0.5,1.9,1.9,1.4,3.2l0,0l-8.5,21.7
			C2692.8,582.9,2690.9,583.8,2689.2,583.1z"/>
	</g>
	<path class="st44" d="M2648.5,575.1l2.2-5.6c0.3-0.7,1.1-1.1,1.9-0.8l35.3,13.8c0.7,0.3,1.1,1.1,0.8,1.9l-2.2,5.6
		c-0.3,0.7-1.1,1.1-1.9,0.8l-35.3-13.8C2648.6,576.6,2648.2,575.8,2648.5,575.1z"/>
	<path class="st44" d="M2659.3,538.5L2659.3,538.5c1.3,0.5,2,2,1.5,3.4l-10.4,26.6l0,0l-1.6-0.6c-1.8-0.7-2.7-2.7-2-4.5l9.1-23.3
		C2656.4,538.6,2657.9,538,2659.3,538.5L2659.3,538.5z"/>
	<path class="st44" d="M2690,584.9l-1.6-0.6l0,0l10.4-26.6c0.5-1.4,2.1-2,3.4-1.5l0,0l0,0c1.4,0.5,2,2.1,1.5,3.4l0,0l-9.1,23.3
		C2693.8,584.7,2691.8,585.6,2690,584.9L2690,584.9L2690,584.9z"/>
	<path class="st35" d="M2471,536h-163.5v-75.8H2471c2.8,0,5,2.3,5,5l0,0l0,0V531C2476,533.8,2473.7,536,2471,536L2471,536L2471,536
		L2471,536z"/>
	<path class="st36" d="M2471,533.4h-163.5v-75.8H2471c2.8,0,5,2.3,5,5l0,0l0,0v65.7C2476,531.1,2473.7,533.4,2471,533.4L2471,533.4
		L2471,533.4L2471,533.4z"/>
	<path class="st37" d="M2471,530.6h-163.5v-75.8H2471c2.8,0,5,2.3,5,5l0,0l0,0v65.7C2476,528.3,2473.7,530.6,2471,530.6L2471,530.6
		L2471,530.6L2471,530.6z"/>
	<rect x="2277.4" y="413.4" class="st38" width="31.5" height="227.3"/>
	<path class="st39" d="M2416.3,407.3l1.4,0.5l2.2-5.5c0.3-0.7,1.1-1.1,1.9-0.8l0,0l35.3,13.8c0.7,0.3,1.1,1.1,0.8,1.9l0,0l-2.2,5.6
		c0,0.1-0.1,0.2-0.1,0.2l1.4,0.5c1.8,0.7,2.7,2.7,2,4.5l0,0l0,0l-9.1,23.2c-0.5,1.3-1.9,2.1-3.3,1.7c-1.4-0.5-2.1-1.9-1.7-3.3v-0.1
		l-0.5,1.2c-0.7,1.8-2.7,2.6-4.5,2l-31.3-12.2c-1.6-0.6-2.4-2.5-1.8-4.1l0.7-1.8c-0.5,1.4-2.1,2-3.4,1.5l0,0c-0.1,0-0.2-0.1-0.2-0.1
		c-1.2-0.7-1.7-2.2-1.2-3.4l9.1-23.2C2412.4,407.5,2414.5,406.6,2416.3,407.3L2416.3,407.3z"/>
	<path class="st40" d="M2416.9,405.4l1.4,0.5l2.2-5.5c0.3-0.7,1.1-1.1,1.9-0.8l0,0l0,0l35.3,13.8c0.7,0.3,1.1,1.1,0.8,1.9l-2.2,5.6
		c0,0.1-0.1,0.2-0.1,0.2l1.4,0.5c1.8,0.7,2.7,2.7,2,4.5l0,0l-9.1,23.2c-0.5,1.3-1.9,2.1-3.3,1.7c-1.4-0.5-2.1-1.9-1.7-3.3l0,0v-0.1
		l-0.5,1.2c-0.7,1.8-2.7,2.6-4.5,2l0,0l-31.3-12.2c-1.6-0.6-2.4-2.5-1.8-4.1l0.7-1.8c-0.5,1.4-2.1,2-3.4,1.5l0,0
		c-0.1,0-0.2-0.1-0.2-0.1c-1.2-0.7-1.7-2.2-1.2-3.4l9.1-23.2C2413.1,405.5,2415.1,404.6,2416.9,405.4z"/>
	<path class="st41" d="M2441.3,449.2L2410,437c-1.6-0.6-2.4-2.5-1.8-4.1l12.5-32l0,0l37.4,14.6l0,0l-12.4,31.8
		C2445,449,2443,449.9,2441.3,449.2L2441.3,449.2z"/>
	<g class="st42">
		<path class="st43" d="M2418.8,405.7l2-5.1c0.3-0.7,1.1-1.1,1.8-0.8l35.1,13.7c0.7,0.3,1.1,1.1,0.8,1.8l-2,5.1
			c-0.3,0.7-1.1,1.1-1.8,0.8l-35.1-13.7C2418.9,407.2,2418.5,406.4,2418.8,405.7z"/>
		<path class="st43" d="M2446.3,447.9L2446.3,447.9c-1.3-0.5-1.9-1.9-1.4-3.2l9.7-24.7l0,0l1.5,0.6c1.7,0.7,2.5,2.5,1.8,4.2l0,0
			l-8.5,21.7C2449,447.7,2447.6,448.4,2446.3,447.9z"/>
		<path class="st43" d="M2418.5,405.5l1.5,0.6l0,0l-9.7,24.7c-0.5,1.3-1.9,1.9-3.2,1.4l0,0c-1.3-0.5-1.9-1.9-1.4-3.2l0,0l8.5-21.7
			C2414.9,405.7,2416.8,404.9,2418.5,405.5C2418.4,405.5,2418.4,405.5,2418.5,405.5L2418.5,405.5z"/>
	</g>
	<path class="st44" d="M2419,404.4l2.2-5.6c0.3-0.7,1.1-1.1,1.9-0.8l35.3,13.8c0.7,0.3,1.1,1.1,0.8,1.9l-2.2,5.6
		c-0.3,0.7-1.1,1.1-1.9,0.8l-35.3-13.8C2419.1,406,2418.7,405.1,2419,404.4z"/>
	<path class="st44" d="M2447.7,449.4L2447.7,449.4c-1.4-0.5-2-2.1-1.5-3.4l0,0l10.4-26.6l0,0l1.6,0.6c1.8,0.7,2.7,2.7,2,4.5
		l-9.1,23.4C2450.6,449.3,2449.1,449.9,2447.7,449.4z"/>
	<path class="st44" d="M2417.7,403.8l1.6,0.6l0,0l-10.4,26.6c-0.5,1.4-2.1,2-3.4,1.5l0,0l0,0c-1.3-0.5-2-2.1-1.5-3.4l9.1-23.4
		C2413.8,403.9,2415.9,403.1,2417.7,403.8L2417.7,403.8z"/>
	<path class="st39" d="M2368.7,407.1l-1.4,0.5l-2.2-5.5c-0.3-0.7-1.1-1.1-1.9-0.8l0,0l0,0l-35.3,13.8c-0.7,0.3-1.1,1.1-0.8,1.9l0,0
		l2.2,5.6c0,0.1,0.1,0.2,0.1,0.2l-1.4,0.5c-1.8,0.7-2.7,2.7-2,4.5l0,0l0,0l9.1,23.2c0.5,1.3,1.9,2.1,3.3,1.7
		c1.4-0.5,2.1-1.9,1.7-3.3l0,0v-0.1l0.5,1.2c0.7,1.8,2.7,2.6,4.5,2l0,0l31.3-12.2c1.6-0.6,2.4-2.5,1.8-4.1l-0.7-1.8
		c0.5,1.4,2.1,2,3.4,1.5l0,0c0.1,0,0.2-0.1,0.2-0.1c1.2-0.7,1.7-2.2,1.2-3.4l-9.1-23.2C2372.5,407.3,2370.5,406.4,2368.7,407.1z"/>
	<path class="st40" d="M2368,405.2l-1.4,0.5l-2.2-5.5c-0.3-0.7-1.1-1.1-1.9-0.8l0,0l0,0l-35.3,13.8c-0.7,0.3-1.1,1.1-0.8,1.9
		l2.2,5.6c0,0.1,0.1,0.2,0.1,0.2l-1.4,0.6c-1.8,0.7-2.7,2.7-2,4.5l0,0l0,0l9.1,23.2c0.5,1.3,1.9,2.1,3.3,1.7
		c1.4-0.5,2.1-1.9,1.7-3.3v-0.1l0.5,1.2c0.7,1.8,2.7,2.6,4.5,2l0,0l31.3-12.2c1.6-0.6,2.4-2.5,1.8-4.1l-0.7-1.8
		c0.5,1.4,2.1,2,3.4,1.5c0.1,0,0.2-0.1,0.2-0.1c1.2-0.7,1.7-2.2,1.2-3.4l-9.1-23.2C2371.9,405.3,2369.8,404.5,2368,405.2z"/>
	<path class="st41" d="M2326.8,415.2l37.4-14.6l0,0l12.5,32c0.6,1.6-0.2,3.5-1.8,4.1l-31.3,12.2c-1.8,0.7-3.8-0.2-4.5-2
		L2326.8,415.2L2326.8,415.2L2326.8,415.2z"/>
	<g class="st42">
		<path class="st43" d="M2327.2,413.3l35.1-13.7c0.7-0.3,1.5,0.1,1.8,0.8l2,5.1c0.3,0.7-0.1,1.5-0.8,1.8l-35.1,13.7
			c-0.7,0.3-1.5-0.1-1.8-0.8l-2-5.1C2326.2,414.4,2326.5,413.6,2327.2,413.3z"/>
		<path class="st43" d="M2328.9,420.4l1.5-0.6l0,0l9.7,24.7c0.5,1.3-0.1,2.7-1.4,3.2l0,0c-1.3,0.5-2.7-0.1-3.2-1.4l-8.5-21.7
			C2326.4,423,2327.2,421.1,2328.9,420.4L2328.9,420.4z"/>
		<path class="st43" d="M2377.8,432L2377.8,432c-1.3,0.5-2.7-0.1-3.2-1.4l0,0l-9.7-24.7l0,0l1.5-0.6c1.7-0.7,3.6,0.2,4.2,1.8l0,0
			l8.5,21.7C2379.7,430.1,2379.1,431.5,2377.8,432L2377.8,432z"/>
	</g>
	<path class="st44" d="M2326.6,411.5l35.3-13.8c0.7-0.3,1.6,0.1,1.9,0.8l2.2,5.6c0.3,0.7-0.1,1.6-0.8,1.9l-35.3,13.8
		c-0.7,0.3-1.6-0.1-1.9-0.8l-2.2-5.6C2325.5,412.7,2325.9,411.8,2326.6,411.5z"/>
	<path class="st44" d="M2326.7,419.8l1.6-0.6l0,0l10.4,26.6c0.5,1.4-0.1,2.9-1.5,3.4l0,0l0,0c-1.4,0.5-2.9-0.1-3.4-1.5l0,0
		l-9.1-23.4C2324,422.6,2324.9,420.5,2326.7,419.8L2326.7,419.8z"/>
	<path class="st44" d="M2379.5,432.3L2379.5,432.3c-1.4,0.5-2.9-0.1-3.4-1.5l-10.4-26.6l0,0l1.6-0.6c1.8-0.7,3.8,0.2,4.5,2l0,0
		l9.1,23.4C2381.5,430.3,2380.8,431.8,2379.5,432.3z"/>
	<path class="st39" d="M2420.3,586.5l1.4-0.5l2.2,5.5c0.3,0.7,1.1,1.1,1.9,0.8l0,0l35.3-13.8c0.7-0.3,1.1-1.1,0.8-1.9l0,0l-2.2-5.6
		c0-0.1-0.1-0.2-0.1-0.2l1.4-0.5c1.8-0.7,2.7-2.7,2-4.5l0,0l0,0l-9.1-23.2c-0.5-1.3-1.9-2.1-3.3-1.7c-1.4,0.5-2.1,1.9-1.7,3.3v0.1
		l-0.5-1.2c-0.7-1.8-2.7-2.6-4.5-2l-31.3,12.2c-1.6,0.6-2.4,2.5-1.8,4.1l0.7,1.8c-0.5-1.4-2.1-2-3.4-1.5c-0.1,0-0.2,0.1-0.2,0.1
		c-1.2,0.7-1.7,2.2-1.2,3.4l9.1,23.2C2416.5,586.3,2418.5,587.2,2420.3,586.5z"/>
	<path class="st40" d="M2420,585l1.4-0.5l2.2,5.5c0.3,0.7,1.1,1.1,1.9,0.8l35.3-13.8c0.7-0.3,1.1-1.1,0.8-1.9l0,0l-2.2-5.6
		c0-0.1-0.1-0.2-0.1-0.2l1.4-0.6c1.8-0.7,2.7-2.7,2-4.5l0,0l-9.1-23.2c-0.5-1.3-1.9-2.1-3.3-1.7c-1.4,0.5-2.1,1.9-1.7,3.3v0.1
		l-0.5-1.2c-0.7-1.8-2.7-2.6-4.5-2l-31.3,12.2c-1.6,0.6-2.4,2.5-1.8,4.1l0.7,1.8c-0.5-1.4-2.1-2-3.4-1.5l0,0c-0.1,0-0.2,0.1-0.2,0.1
		c-1.2,0.7-1.7,2.2-1.2,3.4l9.1,23.2C2416.1,584.8,2418.2,585.7,2420,585z"/>
	<path class="st41" d="M2460.4,571.7l-37.4,14.6l0,0l-12.5-32c-0.6-1.6,0.2-3.5,1.8-4.1l31.3-12.2c1.8-0.7,3.8,0.2,4.5,2
		L2460.4,571.7L2460.4,571.7z"/>
	<g class="st42">
		<path class="st43" d="M2421.8,579.6l35.1-13.7c0.7-0.3,1.5,0.1,1.8,0.8l2,5.1c0.3,0.7-0.1,1.5-0.8,1.8l-35.1,13.7
			c-0.7,0.3-1.5-0.1-1.8-0.8l-2-5.1C2420.7,580.7,2421.1,579.9,2421.8,579.6z"/>
		<path class="st43" d="M2458.3,566.5l-1.5,0.6l0,0l-9.7-24.7c-0.5-1.3,0.1-2.7,1.4-3.2l0,0l0,0c1.3-0.5,2.7,0.1,3.2,1.4l0,0
			l8.5,21.7C2460.8,564,2460,565.9,2458.3,566.5L2458.3,566.5L2458.3,566.5z"/>
		<path class="st43" d="M2409.4,554.9L2409.4,554.9c1.3-0.5,2.7,0.1,3.2,1.4l0,0l9.7,24.7l0,0l-1.5,0.6c-1.7,0.7-3.6-0.2-4.2-1.8
			l0,0l-8.5-21.7C2407.5,556.8,2408.1,555.4,2409.4,554.9L2409.4,554.9z"/>
	</g>
	<path class="st44" d="M2422.1,580.9l35.3-13.8c0.7-0.3,1.6,0.1,1.9,0.8l2.2,5.6c0.3,0.7-0.1,1.6-0.8,1.9l-35.3,13.8
		c-0.7,0.3-1.6-0.1-1.9-0.8l-2.2-5.6C2421,582,2421.3,581.2,2422.1,580.9z"/>
	<path class="st44" d="M2460.5,567.1l-1.6,0.6l0,0l-10.4-26.6c-0.5-1.4,0.1-2.9,1.5-3.4l0,0c1.4-0.5,2.9,0.1,3.4,1.5l0,0l9.1,23.4
		C2463.2,564.4,2462.3,566.4,2460.5,567.1L2460.5,567.1z"/>
	<path class="st44" d="M2407.7,554.6L2407.7,554.6c1.4-0.5,2.9,0.1,3.4,1.5l10.4,26.6l0,0l-1.6,0.6c-1.8,0.7-3.8-0.2-4.5-2
		l-9.1-23.4C2405.7,556.7,2406.4,555.2,2407.7,554.6L2407.7,554.6L2407.7,554.6z"/>
	<path class="st39" d="M2370.1,586.5l-1.4-0.5l-2.2,5.5c-0.3,0.7-1.1,1.1-1.9,0.8l-35.3-13.8c-0.7-0.3-1.1-1.1-0.8-1.9l0,0l2.2-5.6
		c0-0.1,0.1-0.2,0.1-0.2l-1.4-0.5c-1.8-0.7-2.7-2.7-2-4.5l0,0l0,0l9.1-23.2c0.5-1.3,1.9-2.1,3.3-1.7c1.4,0.5,2.1,1.9,1.7,3.3l0,0
		v0.1l0.5-1.2c0.7-1.8,2.7-2.6,4.5-2l0,0l0,0l31.3,12.2c1.6,0.6,2.4,2.5,1.8,4.1l-0.7,1.8c0.5-1.4,2.1-2,3.4-1.5
		c0.1,0,0.2,0.1,0.2,0.1c1.2,0.7,1.7,2.2,1.2,3.4l-9.1,23.2C2373.9,586.3,2371.9,587.2,2370.1,586.5z"/>
	<path class="st40" d="M2369.5,585.1l-1.4-0.5l-2.2,5.5c-0.3,0.7-1.1,1.1-1.9,0.8l0,0l0,0l-35.3-13.8c-0.7-0.3-1.1-1.1-0.8-1.9
		l2.2-5.6c0-0.1,0.1-0.2,0.1-0.2l-1.4-0.6c-1.8-0.7-2.7-2.7-2-4.5l0,0l9.1-23.2c0.5-1.3,1.9-2.1,3.3-1.7c1.4,0.5,2.1,1.9,1.7,3.3
		v0.1l0.5-1.2c0.7-1.8,2.7-2.6,4.5-2l0,0l31.3,12.2c1.6,0.6,2.4,2.5,1.8,4.1l-0.7,1.8c0.5-1.4,2.1-2,3.4-1.5l0,0
		c0.1,0,0.2,0.1,0.2,0.1c1.2,0.7,1.7,2.2,1.2,3.4l-9.1,23.2C2373.3,584.9,2371.3,585.8,2369.5,585.1L2369.5,585.1L2369.5,585.1z"/>
	<path class="st41" d="M2345.9,538.2l31.3,12.2c1.6,0.6,2.4,2.5,1.8,4.1l-12.5,32l0,0l-37.4-14.6l0,0l12.4-31.8
		C2342.2,538.3,2344.2,537.5,2345.9,538.2z"/>
	<g class="st42">
		<path class="st43" d="M2328.7,572l2-5.1c0.3-0.7,1.1-1.1,1.8-0.8l35.1,13.7c0.7,0.3,1.1,1.1,0.8,1.8l-2,5.1
			c-0.3,0.7-1.1,1.1-1.8,0.8l-35.1-13.7C2328.8,573.5,2328.4,572.7,2328.7,572z"/>
		<path class="st43" d="M2340.9,539.5L2340.9,539.5c1.3,0.5,1.9,1.9,1.4,3.2l-9.7,24.7l0,0l-1.5-0.6c-1.7-0.7-2.5-2.5-1.8-4.2l0,0
			l8.5-21.7C2338.2,539.6,2339.6,539,2340.9,539.5z"/>
		<path class="st43" d="M2368.7,581.8l-1.5-0.6l0,0l9.7-24.7c0.5-1.3,1.9-1.9,3.2-1.4l0,0l0,0c1.3,0.5,1.9,1.9,1.4,3.2L2373,580
			C2372.3,581.6,2370.4,582.4,2368.7,581.8L2368.7,581.8L2368.7,581.8z"/>
	</g>
	<path class="st44" d="M2328,573.7l2.2-5.6c0.3-0.7,1.1-1.1,1.9-0.8l35.3,13.8c0.7,0.3,1.1,1.1,0.8,1.9l-2.2,5.6
		c-0.3,0.7-1.1,1.1-1.9,0.8l-35.3-13.8C2328.1,575.3,2327.7,574.5,2328,573.7z"/>
	<path class="st44" d="M2339.5,537.9L2339.5,537.9c1.4,0.5,2,2.1,1.5,3.4l0,0l-10.4,26.6l0,0l-1.6-0.6c-1.8-0.7-2.7-2.7-2-4.5l0,0
		l9.1-23.4C2336.6,538.1,2338.1,537.4,2339.5,537.9z"/>
	<path class="st44" d="M2369.5,583.6l-1.6-0.6l0,0l10.4-26.6c0.5-1.4,2.1-2,3.4-1.5l0,0c1.4,0.5,2,2.1,1.5,3.4l0,0l-9.1,23.4
		C2373.4,583.4,2371.3,584.3,2369.5,583.6L2369.5,583.6z"/>
	<g id="Layer_5">
		<rect x="1651.2" y="372.8" class="st37" width="44.1" height="260.6"/>
		<path class="st39" d="M1712.1,426.4h19.7c6.9,0,12.6,5.6,12.6,12.6l0,0v20.9c0,6.9-5.6,12.6-12.6,12.6H1707
			c-2.2,0-4.2-1.5-4.7-3.7c-2.9-12.7-2.8-25.9,0-38.6c0.5-2.1,2.4-3.6,4.5-3.7L1712.1,426.4z"/>
		<path class="st40" d="M1712.1,424.4h19.7c6.9,0,12.6,5.6,12.6,12.6l0,0v20.9c0,6.9-5.6,12.6-12.6,12.6H1707
			c-2.2,0-4.2-1.5-4.7-3.7c-2.9-12.7-2.8-25.9,0-38.6c0.5-2.1,2.4-3.6,4.5-3.7L1712.1,424.4z"/>
		<path class="st41" d="M1712.1,422.6h19.7c6.9,0,12.6,5.6,12.6,12.6l0,0v20.9c0,6.9-5.6,12.6-12.6,12.6l0,0H1707
			c-2.2,0-4.2-1.5-4.7-3.7c-2.9-12.7-2.8-25.9,0-38.6c0.5-2.1,2.4-3.6,4.5-3.7L1712.1,422.6z"/>
		<path class="st39" d="M1712.2,537.6h19.7c6.9,0,12.6,5.6,12.6,12.6l0,0v20.9c0,6.9-5.6,12.6-12.6,12.6h-24.8
			c-2.2,0-4.2-1.5-4.7-3.7c-2.9-12.7-2.8-25.9,0-38.6c0.5-2.1,2.4-3.6,4.5-3.7L1712.2,537.6z"/>
		<path class="st40" d="M1712.2,535.6h19.7c6.9,0,12.6,5.6,12.6,12.6l0,0v20.9c0,6.9-5.6,12.6-12.6,12.6h-24.8
			c-2.2,0-4.2-1.5-4.7-3.7c-2.9-12.7-2.8-25.9,0-38.6c0.5-2.1,2.4-3.6,4.5-3.7L1712.2,535.6z"/>
		<path class="st41" d="M1712.2,533.9h19.7c6.9,0,12.6,5.6,12.6,12.6v20.9c0,6.9-5.6,12.6-12.6,12.6h-24.8c-2.2,0-4.2-1.5-4.7-3.7
			c-2.9-12.7-2.8-25.9,0-38.6c0.5-2.1,2.4-3.6,4.5-3.7L1712.2,533.9z"/>
		<path class="st41" d="M1851.3,424.4h71.1v90.7h-71.1c-2.6,0-4.8-2.1-4.8-4.8v-81.1C1846.5,426.5,1848.6,424.4,1851.3,424.4z"/>
		<rect x="1898.7" y="424.4" class="st39" width="23.6" height="90.7"/>
		<path class="st41" d="M1851.3,515.3h71.1V606h-71.1c-2.6,0-4.8-2.1-4.8-4.8v-81.1C1846.5,517.5,1848.6,515.3,1851.3,515.3z"/>
		<rect x="1898.7" y="515.3" class="st39" width="23.6" height="90.7"/>
		<rect x="1901.8" y="424.3" class="st44" width="23.6" height="90.7"/>
		<rect x="1901.8" y="515.2" class="st44" width="23.6" height="90.7"/>
		<rect x="1844.1" y="372.8" class="st38" width="75.2" height="51.5"/>
		<rect x="1850.2" y="605.9" class="st38" width="72.2" height="27.8"/>
		<line class="st45" x1="1850.2" y1="515.3" x2="1922.4" y2="515.3"/>
	</g>
	<polygon class="st38" points="1087.7,633.7 1087.7,614.4 1032.2,614.4 1032.2,449.4 992.7,449.4 992.7,633.4 	"/>
</g>
<g id="Bookings">
	<polygon id="area-5.03-status" class="st46" points="1027.6,372.2 1344.6,372.2 1344.6,633.4 992.7,633.4 992.7,449.4 
		1030.1,449.4 	"/>
	<rect id="area-5.04-status" x="1344.6" y="370.1" class="st46" width="302.9" height="263.9"/>
	<rect id="area-5.05-status" x="1649.1" y="373.5" class="st46" width="273.3" height="260.1"/>
	<polygon id="area-5.06-status" class="st46" points="2306.4,413.4 2306.9,367.7 2577.5,367.7 2577.5,640.7 2274.6,640.7 
		2275.6,412.4 	"/>
	<rect id="area-5.08-status" x="2577.5" y="368.5" class="st46" width="364" height="272.1"/>
	<g id="names">
		<g>
			<text transform="matrix(1 0 0 1 1112.699 499.347)" class="st37 st47 st48 st49">T</text>
			<text transform="matrix(1 0 0 1 1124.65 499.347)" class="st37 st47 st48">eam Room</text>
			<text transform="matrix(1 0 0 1 1440.6281 500.545)" class="st37 st47 st48 st49">T</text>
			<text transform="matrix(1 0 0 1 1452.5791 500.545)" class="st37 st47 st48">eam Room</text>
			<text transform="matrix(1 0 0 1 2378.354 499.716)" class="st37 st47 st48 st49">T</text>
			<text transform="matrix(1 0 0 1 2390.3049 499.716)" class="st37 st47 st48">eam Room</text>
			<text transform="matrix(1 0 0 1 2710.2 502.239)" class="st37 st47 st48 st49">T</text>
			<text transform="matrix(1 0 0 1 2722.1509 502.239)" class="st37 st47 st48">eam Room</text>
			<text transform="matrix(1 0 0 1 1159.443 527.347)" class="st37 st47 st48">5.03</text>
		</g>
		<g>
			<text transform="matrix(1 0 0 1 1488.05 526.83)" class="st37 st47 st48">5.04</text>
		</g>
		<g>
			<text transform="matrix(1 0 0 1 2419.043 528.498)" class="st37 st47 st48">5.06</text>
		</g>
		<g>
			<text transform="matrix(1 0 0 1 2753.978 529.545)" class="st37 st47 st48">5.08</text>
		</g>
		<g>
			<text transform="matrix(1 0 0 1 1721.641 498.732)" class="st37 st47 st48">Relax Room</text>
			<text transform="matrix(1 0 0 1 1766.759 525.732)" class="st37 st47 st48">5.05</text>
		</g>
	</g>
</g>
<g id="Skeleton">
	<g id="walls">
		<line class="st50" x1="392.2" y1="36.5" x2="392.2" y2="333.2"/>
		<line class="st50" x1="392.2" y1="332.6" x2="392.2" y2="499.2"/>
		<line class="st50" x1="1030.1" y1="295.6" x2="1030.1" y2="40.5"/>
		<polyline class="st50" points="1030.1,346 1030.1,449.4 992.4,449.4 992.4,494.5 		"/>
		<polyline class="st50" points="610.9,273.2 496.5,273.2 496.5,91 704.8,91 704.8,273.2 658.4,273.2 		"/>
		<polyline class="st50" points="704.8,91 1030.1,91 2604.5,91 		"/>
		<line class="st50" x1="496.5" y1="91" x2="392.2" y2="91"/>
		<line class="st50" x1="2606.3" y1="41.2" x2="2606.3" y2="265.4"/>
		<polyline class="st50" points="1111,372.2 1344.6,372.2 1344.6,633.4 1429.3,633.4 		"/>
		<line class="st50" x1="1257.9" y1="633.4" x2="1344.6" y2="633.4"/>
		<line class="st50" x1="1093.3" y1="633.4" x2="994.7" y2="633.4"/>
		<line class="st50" x1="1429.3" y1="372.2" x2="1704.6" y2="372.2"/>
		<line class="st50" x1="1526" y1="633.4" x2="1697.9" y2="633.4"/>
		<line class="st50" x1="1648.5" y1="372.2" x2="1648.5" y2="633.4"/>
		<polyline class="st50" points="1858.7,633.6 1922.4,633.6 1922.4,372.2 		"/>
		<line class="st50" x1="1922.4" y1="633.6" x2="1922.4" y2="990.1"/>
		<polyline class="st50" points="1922.4,413.4 1981.7,413.4 1981.7,372.2 1926.8,372.2 1841.9,372.2 		"/>
		<line class="st50" x1="1981.7" y1="437.3" x2="1981.7" y2="408.4"/>
		<polyline class="st50" points="2057.3,437.3 2254.2,437.3 2277.4,437.3 2277.4,992.3 		"/>
		<polyline class="st50" points="2277.4,444.2 2277.4,413.4 2306.4,413.4 2306.4,368.5 2458.4,368.5 		"/>
		<line class="st50" x1="2277.4" y1="640.6" x2="2367.9" y2="640.6"/>
		<line class="st50" x1="2535.9" y1="640.6" x2="2715.4" y2="640.6"/>
		<line class="st50" x1="2578" y1="368.5" x2="2578" y2="640.6"/>
		<line class="st50" x1="2535.9" y1="368.5" x2="2813.7" y2="368.5"/>
		<line class="st50" x1="2809.5" y1="640.6" x2="2998.6" y2="640.6"/>
		<polyline class="st50" points="2895.4,368.5 2940.7,368.5 2985.9,368.5 		"/>
		<line class="st50" x1="2941.5" y1="640.6" x2="2941.5" y2="368.5"/>
		<polyline class="st50" points="3160.6,640.6 3229.1,640.6 3229.1,413.2 3160.6,413.2 		"/>
		<line class="st50" x1="3229.1" y1="640.6" x2="3229.1" y2="846.5"/>
		<polyline class="st50" points="3200.1,997.8 3229.1,997.8 3229.1,923.7 		"/>
		<polyline class="st50" points="3575.8,1029 3575.8,997.8 3353.4,997.8 3353.4,775 3430.6,775 		"/>
		<polyline class="st50" points="3515.8,775 3575.8,775 3575.8,810 3575.8,997.8 		"/>
		<polyline class="st50" points="3390.5,499.2 3390.5,365.4 3561.6,365.4 3561.6,686.1 3390.5,686.1 3390.5,566.5 		"/>
		<line class="st50" x1="3561.6" y1="462.3" x2="3855.4" y2="462.3"/>
		<polyline class="st50" points="3493.2,365.4 3493.2,263.6 3361.2,263.6 		"/>
		<line class="st50" x1="3285.8" y1="263.6" x2="3129.2" y2="263.6"/>
		<line class="st50" x1="3063.4" y1="263.6" x2="2895.4" y2="263.6"/>
		<polyline class="st50" points="2829.7,263.6 2778.7,263.6 2690.1,263.6 		"/>
		<polyline class="st50" points="2779.5,263.6 2779.5,196.6 2715.8,196.6 2715.8,163 2607.4,163 		"/>
		<polyline class="st50" points="2606.3,73.8 3261.5,73.8 3261.5,263.6 		"/>
		<line class="st50" x1="2933.9" y1="263.6" x2="2933.9" y2="73.8"/>
		<line class="st50" x1="3261.5" y1="23" x2="3261.5" y2="100.4"/>
		<polyline class="st50" points="2067.6,576.3 2033,576.3 2033,747 2161.8,747 2161.8,576.3 2132,576.3 		"/>
		<polyline class="st50" points="2161.8,737.7 2161.8,849.5 2277.4,849.5 		"/>
		<polyline class="st50" points="3906.7,784.4 3894.8,803.7 3575.8,803.7 		"/>
	</g>
	<g id="outline">
		<polygon class="st51" points="1056.1,984.9 3216.6,997.9 3216.6,1150 4082.1,1150 4146.3,1167.5 4183.3,1159.3 4091,742.9 
			3906.7,784.4 3773,4.1 2675.7,40.2 1115.7,40.2 391,30.2 10.9,46.6 4.1,579.8 75.9,579.8 75.9,499.2 711.7,499.2 743.8,499.2 
			743.8,463.6 916.5,463.6 916.5,496.5 992.9,496.5 992.9,983.6 		"/>
	</g>
</g>
<text transform="matrix(1 0 0 1 3440.2759 945.6812)" class="st10 st11 st28">CED</text>
<g>
	<g id="Toilet-2-3_1_">
		<circle class="st9" cx="3464.6" cy="872.9" r="45.8"/>
	</g>
	<rect x="3470.2" y="862.4" class="st27" width="11.6" height="16.3"/>
	<polyline class="st27" points="3476,883.3 3476,891.4 3455.1,891.4 3455.1,883.3 	"/>
	<polyline class="st27" points="3472.6,859.5 3472.6,856.6 3479.5,856.6 3479.5,859.5 	"/>
	<path class="st27" d="M3455.1,878.6L3455.1,878.6c-4.5,0-8.1-3.6-8.1-8.1v-9.3h16.3v9.3C3463.3,875,3459.6,878.6,3455.1,878.6z"/>
	<line class="st27" x1="3450.5" y1="861.2" x2="3450.5" y2="856.6"/>
	<line class="st27" x1="3459.8" y1="861.2" x2="3459.8" y2="856.6"/>
	<line class="st27" x1="3476" y1="860.1" x2="3476" y2="862.4"/>
</g>
<text transform="matrix(1 0 0 1 3025.5383 297.851)" class="st10 st11 st28">Corridor</text>
</svg>
