<?xml version="1.0" encoding="utf-8"?>
<!-- Generator: Adobe Illustrator 26.2.1, SVG Export Plug-In . SVG Version: 6.00 Build 0)  -->
<svg version="1.1" id="Layer_1" xmlns="http://www.w3.org/2000/svg" xmlns:xlink="http://www.w3.org/1999/xlink" x="0px" y="0px"
	 viewBox="0 0 1160.8 756.8" style="enable-background:new 0 0 1160.8 756.8;" xml:space="preserve">
<style type="text/css">
	.st0{fill:#4095B0;}
	.st1{fill:#AAE0E4;}
	.st2{fill:#8ECCCE;}
	.st3{fill:#99B8BF;}
	.st4{fill:#8DCBCD;}
	.st5{display:none;}
	.st6{opacity:0.15;fill:#020202;enable-background:new    ;}
	.st7{fill:#596069;}
	.st8{fill:#9BAEB8;}
	.st9{fill:none;stroke:#7A8F94;stroke-width:2;stroke-linecap:round;stroke-miterlimit:10;}
	.st10{fill:#FFFFFF;}
	.st11{opacity:5.000000e-02;fill:#030303;enable-background:new    ;}
	.st12{fill:#B8BFC1;}
	.st13{fill:#F4F4F4;}
	.st14{opacity:0.15;fill:#0D5577;enable-background:new    ;}
	.st15{fill:#0D5577;}
	.st16{fill:#7DCFE2;stroke:#53C5F1;stroke-width:1.04;stroke-linecap:round;stroke-linejoin:round;}
	.st17{fill:#4E9FB9;stroke:#4A90A0;stroke-width:0.96;stroke-linecap:round;stroke-linejoin:round;}
	.st18{opacity:0.43;fill:#53C5F1;enable-background:new    ;}
	.st19{fill:#4E9FB9;stroke:#4A90A0;stroke-width:1.04;stroke-linecap:round;stroke-linejoin:round;}
	.st20{opacity:0.4;fill:#4196B1;enable-background:new    ;}
	.st21{fill:#83D8EF;stroke:#53C5F1;stroke-width:0.8;stroke-linecap:round;stroke-linejoin:round;}
	.st22{fill:#4E9FB9;stroke:#4A90A0;stroke-width:0.8;stroke-linecap:round;stroke-linejoin:round;}
	.st23{fill:none;stroke:#DADCDC;stroke-width:0.51;stroke-miterlimit:10;}
	.st24{opacity:0.15;fill:#010101;enable-background:new    ;}
	.st25{fill:#596068;}
	.st26{fill:#9BAEB7;}
	.st27{fill:none;stroke:#7A8E93;stroke-width:1.87;stroke-linecap:round;stroke-miterlimit:10;}
	.st28{fill:none;stroke:#7A8E93;stroke-width:1.89;stroke-linecap:round;stroke-miterlimit:10;}
	.st29{opacity:0.74;fill:#575757;enable-background:new    ;}
	.st30{fill:#EAF1F1;}
	.st31{fill:#767E7F;}
	.st32{fill:none;stroke:#7E8A8F;stroke-width:0.347;stroke-miterlimit:10;}
	.st33{fill:none;stroke:#7A8D92;stroke-width:0.72;stroke-miterlimit:10;}
	.st34{fill:none;stroke:#7A8D92;stroke-width:0.513;stroke-miterlimit:10;}
	.st35{fill:none;stroke:#F4F4F4;stroke-width:10;}
	.st36{fill:none;stroke:#F4F4F4;stroke-width:4;}
</style>
<g id="shadow">
	<polygon class="st0" points="617.9,74.5 617.9,29.4 39,29.4 39,735.7 710.3,735.7 710.3,703.3 1143.4,703.3 1143.4,497.4 
		1074.5,497.4 1074.5,420 700.1,420 700.1,287.2 617.6,287.2 	"/>
</g>
<g id="background">
	<polygon class="st1" points="602.6,73.3 602.6,29.4 39.9,29.4 39.9,715.9 692.5,715.9 692.5,684.5 1113.4,684.5 1113.4,484.3 
		1046.5,484.3 1046.5,409.1 682.5,409.1 682.5,280 602.3,280 	"/>
</g>
<g id="spaces">
	<rect x="39.9" y="29.4" class="st2" width="155.9" height="272.7"/>
	<rect x="40.7" y="302.8" class="st2" width="155.1" height="415.9"/>
	<rect x="195.8" y="26.9" class="st2" width="205.3" height="187.9"/>
	<polygon class="st2" points="489.5,244.8 602.4,244.8 602.4,280 682.5,280 682.5,409.1 489,409.1 	"/>
	<polygon class="st2" points="747,504.3 891.2,504.3 891.2,409.1 1046.5,409.1 1046.5,484.3 1113.4,484.3 1113.4,684.5 747,684.5 	
		"/>
	<polygon class="st2" points="254.2,279.9 322,279.9 322,415.4 250.6,415.4 250.6,301.7 254.4,301.7 	"/>
	<rect x="322" y="279.7" class="st3" width="79.1" height="135.7"/>
	<g id="coloured_rooms-4">
		<rect x="490.9" y="410.1" class="st4" width="397.8" height="33"/>
	</g>
	<g id="coloured_rooms-4_00000062171000017572712240000007929125099917590184_">
		<rect x="490.9" y="437.9" class="st4" width="193.9" height="33"/>
	</g>
</g>
<g id="map" class="st5">
</g>
<g id="furniature">
	<g>
		<path class="st6" d="M928.3,549v-4.5c0.1-3.2-2.3-6-5.5-6.3l0,0h-0.3l-4.2,0.3c-4.2,0.3-7.4,4-7.1,8.2l0,0c0,4.2,3,7.8,7.1,8.5
			l4.2,0.3c3.2-0.1,5.8-2.6,6.1-5.8L928.3,549L928.3,549z"/>
		<path class="st7" d="M928.8,549v-4.5c0.1-3.2-2.3-6-5.5-6.3l0,0H923l-4.2,0.3c-4.2,0.3-7.4,4-7.1,8.2l0,0c0,4.2,3,7.8,7.1,8.5
			l4.2,0.3c3.2,0,5.9-2.6,6.1-5.8l0,0C928.8,549.3,928.8,549.3,928.8,549z"/>
		<path class="st8" d="M930.7,549v-4.2c0.1-3-2.3-5.5-5.3-5.5c-0.1,0-0.2,0-0.3,0l0,0h-0.3l-4.2,0.3c-4,0.2-7.2,3.6-7.1,7.7l0,0
			c0,4,3.1,7.3,7.1,7.7l4.2,0.3c3.1,0.2,5.8-2.1,6.1-5.2V550L930.7,549z"/>
		<path class="st9" d="M925.7,539l-5,0.3c-4,0.2-7.2,3.6-7.1,7.7l0,0c0,4,3.1,7.3,7.1,7.7l5,0.3"/>
	</g>
	<polygon class="st10" points="891.2,409.1 891.2,444.3 1010.7,444.3 1010.7,494 1075.3,494 1075.3,684.1 1116.3,684.1 
		1116.3,484.3 1047.6,484.3 1047.6,406.7 	"/>
	<g>
		<path class="st6" d="M928.3,584.2v-4.5c0.1-3.2-2.3-6-5.5-6.3l0,0h-0.3l-4.2,0.3c-4.2,0.3-7.4,4-7.1,8.2l0,0c0,4.2,3,7.8,7.1,8.5
			l4.2,0.3c3.2-0.1,5.8-2.6,6.1-5.8L928.3,584.2L928.3,584.2z"/>
		<path class="st7" d="M928.8,584.2v-4.5c0.1-3.2-2.3-6-5.5-6.3l0,0H923l-4.2,0.3c-4.2,0.3-7.4,4-7.1,8.2l0,0c0,4.2,3,7.8,7.1,8.5
			l4.2,0.3c3.2,0,5.9-2.6,6.1-5.8l0,0C928.8,584.5,928.8,584.5,928.8,584.2z"/>
		<path class="st8" d="M930.7,584.2V580c0.1-3-2.3-5.5-5.3-5.5c-0.1,0-0.2,0-0.3,0l0,0h-0.3l-4.2,0.3c-4,0.2-7.2,3.6-7.1,7.7l0,0
			c0,4,3.1,7.3,7.1,7.7l4.2,0.3c3.1,0.2,5.8-2.1,6.1-5.2v-0.1L930.7,584.2z"/>
		<path class="st9" d="M925.7,574.2l-5,0.3c-4,0.2-7.2,3.6-7.1,7.7l0,0c0,4,3.1,7.3,7.1,7.7l5,0.3"/>
	</g>
	<g>
		<path class="st6" d="M973.2,579.6v4.5c-0.1,3.2,2.3,6,5.5,6.3l0,0h0.3l4.2-0.3c4.2-0.3,7.4-4,7.1-8.2l0,0c0-4.2-3-7.8-7.1-8.5
			l-4.2-0.3c-3.2,0.1-5.8,2.6-6.1,5.8L973.2,579.6L973.2,579.6z"/>
		<path class="st7" d="M972.6,579.6v4.5c-0.1,3.2,2.3,6,5.5,6.3l0,0h0.3l4.2-0.3c4.2-0.3,7.4-4,7.1-8.2l0,0c0-4.2-3-7.8-7.1-8.5
			l-4.2-0.3c-3.2,0-5.9,2.6-6.1,5.8l0,0C972.6,579.3,972.6,579.3,972.6,579.6z"/>
		<path class="st8" d="M970.8,579.6v4.2c-0.1,3,2.3,5.5,5.3,5.5c0.1,0,0.2,0,0.3,0l0,0h0.3l4.2-0.3c4-0.2,7.2-3.6,7.1-7.7l0,0
			c0-4-3.1-7.3-7.1-7.7l-4.2-0.3c-3.1-0.2-5.8,2.1-6.1,5.2v0.1L970.8,579.6z"/>
		<path class="st9" d="M975.8,589.7l5-0.3c4-0.2,7.2-3.6,7.1-7.7l0,0c0-4-3.1-7.3-7.1-7.7l-5-0.3"/>
	</g>
	<g>
		<path class="st6" d="M973.2,544.4v4.5c-0.1,3.2,2.3,6,5.5,6.3l0,0h0.3l4.2-0.3c4.2-0.3,7.4-4,7.1-8.2l0,0c0-4.2-3-7.8-7.1-8.5
			l-4.2-0.3c-3.2,0.1-5.8,2.6-6.1,5.8L973.2,544.4L973.2,544.4z"/>
		<path class="st7" d="M972.6,544.4v4.5c-0.1,3.2,2.3,6,5.5,6.3l0,0h0.3l4.2-0.3c4.2-0.3,7.4-4,7.1-8.2l0,0c0-4.2-3-7.8-7.1-8.5
			l-4.2-0.3c-3.2,0-5.9,2.6-6.1,5.8l0,0C972.6,544.2,972.6,544.2,972.6,544.4z"/>
		<path class="st8" d="M970.8,544.4v4.2c-0.1,3,2.3,5.5,5.3,5.5c0.1,0,0.2,0,0.3,0l0,0h0.3l4.2-0.3c4-0.2,7.2-3.6,7.1-7.7l0,0
			c0-4-3.1-7.3-7.1-7.7l-4.2-0.3c-3.1-0.2-5.8,2.1-6.1,5.2v0.1L970.8,544.4z"/>
		<path class="st9" d="M975.8,554.5l5-0.3c4-0.2,7.2-3.6,7.1-7.7l0,0c0-4-3.1-7.3-7.1-7.7l-5-0.3"/>
	</g>
	<g>
		<path class="st6" d="M1033.7,534.8v-4.5c0.1-3.2-2.3-6-5.5-6.3l0,0h-0.3l-4.2,0.3c-4.2,0.3-7.4,4-7.1,8.2l0,0c0,4.2,3,7.8,7.1,8.5
			l4.2,0.3c3.2-0.1,5.8-2.6,6.1-5.8L1033.7,534.8L1033.7,534.8z"/>
		<path class="st7" d="M1034.2,534.8v-4.5c0.1-3.2-2.3-6-5.5-6.3l0,0h-0.3l-4.2,0.3c-4.2,0.3-7.4,4-7.1,8.2l0,0c0,4.2,3,7.8,7.1,8.5
			l4.2,0.3c3.2,0,5.9-2.6,6.1-5.8l0,0C1034.2,535,1034.2,535,1034.2,534.8z"/>
		<path class="st8" d="M1036.1,534.8v-4.2c0.1-3-2.3-5.5-5.3-5.5c-0.1,0-0.2,0-0.3,0l0,0h-0.3l-4.2,0.3c-4,0.2-7.2,3.6-7.1,7.7l0,0
			c0,4,3.1,7.3,7.1,7.7l4.2,0.3c3.1,0.2,5.8-2.1,6.1-5.2v-0.1L1036.1,534.8z"/>
		<path class="st9" d="M1031.1,524.7l-5,0.3c-4,0.2-7.2,3.6-7.1,7.7l0,0c0,4,3.1,7.3,7.1,7.7l5,0.3"/>
	</g>
	<g>
		<path class="st6" d="M1033.7,592.5V588c0.1-3.2-2.3-6-5.5-6.3l0,0h-0.3l-4.2,0.3c-4.2,0.3-7.4,4-7.1,8.2l0,0c0,4.2,3,7.8,7.1,8.5
			l4.2,0.3c3.2-0.1,5.8-2.6,6.1-5.8L1033.7,592.5L1033.7,592.5z"/>
		<path class="st7" d="M1034.2,592.5V588c0.1-3.2-2.3-6-5.5-6.3l0,0h-0.3l-4.2,0.3c-4.2,0.3-7.4,4-7.1,8.2l0,0c0,4.2,3,7.8,7.1,8.5
			l4.2,0.3c3.2,0,5.9-2.6,6.1-5.8l0,0C1034.2,592.8,1034.2,592.8,1034.2,592.5z"/>
		<path class="st8" d="M1036.1,592.5v-4.2c0.1-3-2.3-5.5-5.3-5.5c-0.1,0-0.2,0-0.3,0l0,0h-0.3l-4.2,0.3c-4,0.2-7.2,3.6-7.1,7.7l0,0
			c0,4,3.1,7.3,7.1,7.7l4.2,0.3c3.1,0.2,5.8-2.1,6.1-5.2v-0.1L1036.1,592.5z"/>
		<path class="st9" d="M1031.1,582.5l-5,0.3c-4,0.2-7.2,3.6-7.1,7.7l0,0c0,4,3.1,7.3,7.1,7.7l5,0.3"/>
	</g>
	<g>
		<path class="st6" d="M914.8,643.6h4.5c3.2,0.1,6-2.3,6.3-5.5l0,0v-0.3l-0.3-4.2c-0.3-4.2-4-7.4-8.2-7.1l0,0c-4.2,0-7.8,3-8.5,7.1
			l-0.3,4.2c0.1,3.2,2.6,5.8,5.8,6.1L914.8,643.6L914.8,643.6z"/>
		<path class="st7" d="M914.8,644.1h4.5c3.2,0.1,6-2.3,6.3-5.5l0,0v-0.3l-0.3-4.2c-0.3-4.2-4-7.4-8.2-7.1l0,0c-4.2,0-7.8,3-8.5,7.1
			l-0.3,4.2c0,3.2,2.6,5.9,5.8,6.1l0,0C914.6,644.1,914.6,644.1,914.8,644.1z"/>
		<path class="st8" d="M914.8,646h4.2c3,0.1,5.5-2.3,5.5-5.3c0-0.1,0-0.2,0-0.3l0,0v-0.3l-0.3-4.2c-0.2-4-3.6-7.2-7.7-7.1l0,0
			c-4,0-7.3,3.1-7.7,7.1l-0.3,4.2c-0.2,3.1,2.1,5.8,5.2,6.1h0.1L914.8,646z"/>
		<path class="st9" d="M924.9,640.9l-0.3-5c-0.2-4-3.6-7.2-7.7-7.1l0,0c-4,0-7.3,3.1-7.7,7.1l-0.3,5"/>
	</g>
	<g>
		<path class="st6" d="M965,644.8h4.5c3.2,0.1,6-2.3,6.3-5.5l0,0V639l-0.3-4.2c-0.3-4.2-4-7.4-8.2-7.1l0,0c-4.2,0-7.8,3-8.5,7.1
			l-0.3,4.2c0.1,3.2,2.6,5.8,5.8,6.1L965,644.8L965,644.8z"/>
		<path class="st7" d="M965,645.3h4.5c3.2,0.1,6-2.3,6.3-5.5l0,0v-0.3l-0.3-4.2c-0.3-4.2-4-7.4-8.2-7.1l0,0c-4.2,0-7.8,3-8.5,7.1
			l-0.3,4.2c0,3.2,2.6,5.9,5.8,6.1l0,0C964.7,645.3,964.7,645.3,965,645.3z"/>
		<path class="st8" d="M965,647.1h4.2c3,0.1,5.5-2.3,5.5-5.3c0-0.1,0-0.2,0-0.3l0,0v-0.3l-0.3-4.2c-0.2-4-3.6-7.2-7.7-7.1l0,0
			c-4,0-7.3,3.1-7.7,7.1l-0.3,4.2c-0.2,3.1,2.1,5.8,5.2,6.1h0.1L965,647.1z"/>
		<path class="st9" d="M975,642.1l-0.3-5c-0.2-4-3.6-7.2-7.7-7.1l0,0c-4,0-7.3,3.1-7.7,7.1l-0.3,5"/>
	</g>
	<g>
		<path class="st6" d="M1014.8,644.8h4.5c3.2,0.1,6-2.3,6.3-5.5l0,0V639l-0.3-4.2c-0.3-4.2-4-7.4-8.2-7.1l0,0c-4.2,0-7.8,3-8.5,7.1
			l-0.3,4.2c0.1,3.2,2.6,5.8,5.8,6.1L1014.8,644.8L1014.8,644.8z"/>
		<path class="st7" d="M1014.8,645.3h4.5c3.2,0.1,6-2.3,6.3-5.5l0,0v-0.3l-0.3-4.2c-0.3-4.2-4-7.4-8.2-7.1l0,0c-4.2,0-7.8,3-8.5,7.1
			l-0.3,4.2c0,3.2,2.6,5.9,5.8,6.1l0,0C1014.5,645.3,1014.5,645.3,1014.8,645.3z"/>
		<path class="st8" d="M1014.8,647.1h4.2c3,0.1,5.5-2.3,5.5-5.3c0-0.1,0-0.2,0-0.3l0,0v-0.3l-0.3-4.2c-0.2-4-3.6-7.2-7.7-7.1l0,0
			c-4,0-7.3,3.1-7.7,7.1l-0.3,4.2c-0.2,3.1,2.1,5.8,5.2,6.1h0.1L1014.8,647.1z"/>
		<path class="st9" d="M1024.8,642.1l-0.3-5c-0.2-4-3.6-7.2-7.7-7.1l0,0c-4,0-7.3,3.1-7.7,7.1l-0.3,5"/>
	</g>
	<path class="st11" d="M934.7,532.3h32c1,0.1,1.8,0.7,1.9,1.5l0,0v66c-0.1,0.8-0.9,1.4-1.9,1.5h-32c-1-0.1-1.8-0.7-1.9-1.5l0,0v-66
		C932.9,533,933.7,532.4,934.7,532.3z"/>
	<path class="st12" d="M934.7,530.4h32c1,0.1,1.8,0.7,1.9,1.5l0,0v66c-0.1,0.8-0.9,1.4-1.9,1.5h-32c-1-0.1-1.8-0.7-1.9-1.5l0,0v-66
		C932.9,531.1,933.7,530.5,934.7,530.4z"/>
	<path class="st13" d="M934.7,528.6h32c1,0.1,1.8,0.7,1.9,1.5l0,0v66c-0.1,0.8-0.9,1.4-1.9,1.5h-32c-1-0.1-1.8-0.7-1.9-1.5l0,0v-66
		C932.9,529.3,933.7,528.7,934.7,528.6z"/>
	<g>
		<path class="st11" d="M1072.4,576.1v29.3c0,0.9-0.3,1.7-0.7,1.7l0,0h-32.3c-0.4-0.1-0.7-0.8-0.7-1.7v-29.3c0-0.9,0.3-1.7,0.7-1.7
			l0,0h32.3C1072,574.5,1072.3,575.2,1072.4,576.1z"/>
		<path class="st12" d="M1073.3,576.1v29.3c0,0.9-0.3,1.7-0.7,1.7l0,0h-32.3c-0.4-0.1-0.7-0.8-0.7-1.7v-29.3c0-0.9,0.3-1.7,0.7-1.7
			l0,0h32.3C1072.9,574.5,1073.3,575.2,1073.3,576.1z"/>
		<path class="st13" d="M1074.2,576.1v29.3c0,0.9-0.3,1.7-0.7,1.7l0,0h-32.3c-0.4-0.1-0.7-0.8-0.7-1.7v-29.3c0-0.9,0.3-1.7,0.7-1.7
			l0,0h32.3C1073.8,574.5,1074.2,575.2,1074.2,576.1z"/>
	</g>
	<g>
		<path class="st11" d="M1071.4,517.7V547c0,0.9-0.3,1.7-0.7,1.7l0,0h-32.3c-0.4-0.1-0.7-0.8-0.7-1.7v-29.3c0-0.9,0.3-1.7,0.7-1.7
			l0,0h32.3C1071.1,516,1071.4,516.7,1071.4,517.7z"/>
		<path class="st12" d="M1072.4,517.7V547c0,0.9-0.3,1.7-0.7,1.7l0,0h-32.3c-0.4-0.1-0.7-0.8-0.7-1.7v-29.3c0-0.9,0.3-1.7,0.7-1.7
			l0,0h32.3C1072,516,1072.3,516.7,1072.4,517.7z"/>
		<path class="st13" d="M1073.3,517.7V547c0,0.9-0.3,1.7-0.7,1.7l0,0h-32.3c-0.4-0.1-0.7-0.8-0.7-1.7v-29.3c0-0.9,0.3-1.7,0.7-1.7
			l0,0h32.3C1072.9,516,1073.2,516.7,1073.3,517.7z"/>
	</g>
	<g>
		<path class="st11" d="M1030.9,679H900.4c-4.1,0-7.3-0.3-7.8-0.6l0,0v-27.6c0.4-0.3,3.7-0.6,7.8-0.6h130.5c4.1,0,7.3,0.3,7.8,0.6
			l0,0v27.6C1038.2,678.7,1034.9,679,1030.9,679z"/>
		<path class="st12" d="M1030.9,679.8H900.4c-4.1,0-7.3-0.3-7.8-0.6l0,0v-27.6c0.4-0.3,3.7-0.6,7.8-0.6h130.5c4.1,0,7.3,0.3,7.8,0.6
			l0,0v27.6C1038.2,679.5,1034.9,679.8,1030.9,679.8z"/>
		<path class="st13" d="M1030.9,680.6H900.4c-4.1,0-7.3-0.3-7.8-0.6l0,0v-27.6c0.4-0.3,3.7-0.6,7.8-0.6h130.5c4.1,0,7.3,0.3,7.8,0.6
			l0,0V680C1038.2,680.3,1034.9,680.6,1030.9,680.6z"/>
	</g>
	<g>
		<path class="st11" d="M480,73.4v80.4c0,2.5-0.3,4.5-0.6,4.8l0,0H454c-0.3-0.2-0.5-2.3-0.6-4.8V73.4c0-2.5,0.3-4.5,0.6-4.8l0,0
			h25.4C479.7,68.9,479.9,70.9,480,73.4z"/>
		<path class="st12" d="M480.7,73.4v80.4c0,2.5-0.3,4.5-0.6,4.8l0,0h-25.4c-0.3-0.2-0.5-2.3-0.6-4.8V73.4c0-2.5,0.3-4.5,0.6-4.8l0,0
			h25.4C480.4,68.9,480.7,70.9,480.7,73.4z"/>
		<path class="st13" d="M481.4,73.4v80.4c0,2.5-0.3,4.5-0.6,4.8l0,0h-25.4c-0.3-0.2-0.5-2.3-0.6-4.8V73.4c0-2.5,0.3-4.5,0.6-4.8l0,0
			h25.4C481.1,68.9,481.4,70.9,481.4,73.4z"/>
	</g>
	<path class="st14" d="M445.1,109.5l-14.3-0.3c-1.3-0.1-2.4-1.2-2.4-2.5l0.3-14.3c0.1-1.3,1.2-2.4,2.5-2.4l14.3,0.3
		c1.3,0.1,2.4,1.2,2.4,2.5l-0.3,14.3c0,1.3-1,2.4-2.3,2.4l0,0l0,0H445.1z"/>
	<path class="st15" d="M444,109.5l-14.3-0.3c-1.3-0.1-2.4-1.2-2.4-2.5l0.3-14.3c0.1-1.3,1.2-2.4,2.5-2.4l14.3,0.3
		c1.3,0.1,2.4,1.2,2.4,2.5l-0.3,14.3C446.4,108.4,445.3,109.5,444,109.5z"/>
	<path class="st16" d="M442.5,109.5l-14.3-0.3c-1.3-0.1-2.4-1.2-2.4-2.5l0.3-14.3c0.1-1.3,1.2-2.4,2.5-2.4l14.3,0.3
		c1.3,0.1,2.4,1.2,2.4,2.5l-0.3,14.3c0,1.3-1,2.4-2.3,2.4l0,0l0,0H442.5z"/>
	<path class="st17" d="M424.8,109.6l-3.7-0.1c-0.8,0-1.4-0.7-1.4-1.5l0,0l0,0l0.4-17.5c0-0.8,0.7-1.4,1.5-1.4l0,0l0,0l3.7,0.1
		c0.8,0,1.4,0.7,1.4,1.5l0,0l0,0l-0.4,17.5C426.3,109,425.6,109.6,424.8,109.6L424.8,109.6z"/>
	<path class="st18" d="M442.9,110l-15-0.4c-0.8,0-1.5-0.7-1.5-1.5l0,0c0-0.8,0.7-1.5,1.5-1.5l15,0.4c0.8,0,1.5,0.7,1.5,1.5l0,0
		c0.1,0.7-0.4,1.4-1.1,1.5H442.9z"/>
	<path class="st18" d="M443.2,92.7l-15-0.4c-0.8,0-1.5-0.7-1.5-1.5l0,0c0-0.8,0.7-1.5,1.5-1.5l15,0.4c0.8,0,1.5,0.7,1.5,1.5l0,0
		c0.1,0.7-0.5,1.4-1.2,1.5l0,0H443.2z"/>
	<path class="st19" d="M442.2,111.1l-15-0.4c-0.8,0-1.5-0.7-1.5-1.5l0,0c0-0.8,0.7-1.5,1.5-1.5l15,0.4c0.8,0,1.5,0.7,1.5,1.5l0,0
		c0.1,0.7-0.5,1.4-1.2,1.5l0,0H442.2z"/>
	<path class="st19" d="M443.3,91.2l-15-0.4c-0.8,0-1.5-0.7-1.5-1.5l0,0c0-0.8,0.7-1.5,1.5-1.5l15,0.4c0.8,0,1.5,0.7,1.5,1.5l0,0
		C444.8,90.5,444.1,91.2,443.3,91.2z"/>
	<path class="st20" d="M570.9,190.5h2.2c5.1,0,9.2,4.1,9.2,9.2l0,0l0,0l0,0v2.1c0,5.1-4.1,9.2-9.2,9.2h-2.2c-5.1,0-9.2-4.1-9.2-9.2
		l0,0l0,0l0,0v-2.1C561.7,194.6,565.8,190.5,570.9,190.5L570.9,190.5z"/>
	<path class="st20" d="M570.9,188.5h2.2c5.1,0,9.2,4.1,9.2,9.2l0,0l0,0l0,0v2.1c0,5.1-4.1,9.2-9.2,9.2h-2.2c-5.1,0-9.2-4.1-9.2-9.2
		l0,0l0,0l0,0v-2.1C561.7,192.6,565.8,188.5,570.9,188.5L570.9,188.5z"/>
	<path class="st20" d="M572,186.8h0.2c5.7,0,10.3,4.6,10.3,10.3l0,0l0,0l0,0c0,5.7-4.6,10.3-10.3,10.3l0,0H572
		c-5.7,0-10.3-4.6-10.3-10.3l0,0l0,0l0,0C561.7,191.4,566.3,186.8,572,186.8L572,186.8L572,186.8z"/>
	<path class="st14" d="M514.9,198.7h-32.1c-1.1,0-2,1.1-2.3,2.6V232c0.2,1,0.8,1.6,1.5,1.6h71.4c0.8,0,1.5-1,1.5-2.1V202
		c0-1.8-1-3.1-2.3-3.2h-37.7V198.7z"/>
	<path class="st15" d="M514.3,200.7h-32.1c-1.1,0-2,1-2.3,2.4v29.1c0.2,0.8,0.8,1.5,1.5,1.5h71.4c0.8,0,1.5-1,1.5-2.1v-28.1
		c-0.1-1.6-1.1-2.9-2.3-3.1h-32.6L514.3,200.7z"/>
	<path class="st21" d="M483.7,220c0,3.2-0.2,6.5-1,9.6c7.8-2.6,26.4-3.7,34.4-3.6h1.8c6.9-0.2,26.9,0.6,33.7,2.8
		c-0.5-2.8-0.8-5.7-0.8-8.6c0-6.7,1.2-12.2,2.9-14c-0.1-1.6-1.1-2.9-2.3-3.1h-70c-1.1,0-2,1-2.3,2.4
		C482.1,206.2,483.7,212.4,483.7,220z"/>
	<path class="st22" d="M480.1,234.5c0.2,0.8,0.8,1.5,1.5,1.5H553c0.8,0,1.5-1,1.5-2.1c-0.5-0.5-0.8-1.1-1.1-1.9H482
		C481.6,233,480.9,234,480.1,234.5z"/>
	<path class="st18" d="M518.9,223.1h-1.8c-8-0.2-26.6,1-34.4,3.6c-0.2,1-0.5,1.8-0.8,2.6h71.5c-0.4-1.1-0.7-2.3-1-3.4
		C545.9,223.9,525.8,222.9,518.9,223.1z"/>
	<path class="st22" d="M518.9,225.5h-1.8c-8-0.2-26.6,1-34.4,3.6c-0.2,1-0.5,1.8-0.8,2.6h71.5c-0.4-1.1-0.7-2.3-1-3.4
		C545.9,226.2,525.8,225.4,518.9,225.5z"/>
	<path class="st22" d="M551.7,220c0,2.9,0.2,5.9,0.8,8.6c0.2,1.9,1,3.9,2,5.4v-28.1C552.9,207.8,551.7,213.4,551.7,220z"/>
	<path class="st22" d="M483.7,220.2c0,2.9-0.4,5.9-1,8.6c-0.4,2.1-1.3,4.1-2.6,5.4V206C482.2,208,483.7,213.5,483.7,220.2z"/>
	<path class="st11" d="M568.7,700.8V528.3c0-3,1.7-5.8,4-5.8l0,0l0,0h43.9c2.2,0,4.1,2.4,4.1,5.6l0,0v172.7c0,3-1.7,5.8-4,5.8l0,0
		l0,0h-43.9C570.5,706.6,568.7,704.1,568.7,700.8C568.7,701,568.7,701,568.7,700.8L568.7,700.8z"/>
	<path class="st12" d="M566.4,700.8V528.3c0-3,1.7-5.8,4-5.8l0,0l0,0h43.9c2.2,0,4.1,2.4,4.1,5.6l0,0v172.7c0,3-1.7,5.8-4,5.8l0,0
		l0,0h-43.9C568.2,706.6,566.4,704.1,566.4,700.8C566.4,701,566.4,701,566.4,700.8L566.4,700.8z"/>
	<path id="table-9-6" class="st10" d="M564.9,646.9v54.8c0,2.7,1.6,4.9,3.5,5.1h0.1l0,0h23.9V647L564.9,646.9L564.9,646.9z"/>
	<path id="table-10-6" class="st10" d="M592.4,522.4h-23.9c-1.9,0-3.5,2.2-3.6,4.9v59.5h27.5V522.4z"/>
	<rect id="table-11-9" x="564.9" y="587.3" class="st10" width="27.5" height="59.7"/>
	<path id="table-12-6" class="st10" d="M592.4,586.8H617v-59.3c0-2.7-1.6-4.9-3.5-5.1h-21.1V586.8L592.4,586.8z"/>
	<rect id="table-13-9" x="592.4" y="587.3" class="st10" width="24.6" height="59.7"/>
	<path id="table-16-6" class="st10" d="M592.4,706.6h21c1.9,0,3.5-2.2,3.6-4.9v-54.9h-24.6V706.6L592.4,706.6z"/>
	<line class="st23" x1="564.9" y1="646.9" x2="617.1" y2="646.9"/>
	<line class="st23" x1="564.9" y1="587.3" x2="617.1" y2="587.3"/>
	<line class="st23" x1="592.4" y1="706.6" x2="592.4" y2="522.4"/>
	<path class="st24" d="M626,674.3v6.6c-0.2,4.7,3.5,8.8,8.3,9.1l0,0h0.5l6.1-0.3c6.2-0.5,10.8-5.8,10.7-12l0,0
		c0.3-6.2-4.4-11.5-10.5-12.2l-6.1-0.3c-4.9,0-8.8,3.7-9,8.6V674.3L626,674.3z"/>
	<path class="st25" d="M625.2,674.3v6.6c-0.2,4.7,3.5,8.8,8.3,9.1l0,0h0.5l6.1-0.3c6.2-0.5,10.8-5.8,10.7-12l0,0
		c0.3-6.2-4.4-11.5-10.5-12.2l-6.1-0.3c-4.9,0-8.8,3.7-9,8.6V674.3L625.2,674.3z"/>
	<path class="st26" d="M622.4,674.5v6.1c0,4.6,3.7,8.3,8.3,8.5l0,0h0.3l6.1-0.3c5.9-0.3,10.7-5.2,10.7-11.2l0,0
		c0-5.9-4.6-10.8-10.5-11.2l-6.1-0.3c-4.6-0.3-8.5,3-8.8,7.4l0,0v0.2V674.5L622.4,674.5z"/>
	<path class="st27" d="M629.9,689l7.3-0.5c5.9-0.3,10.7-5.2,10.7-11.2l0,0c0-5.9-4.6-10.8-10.5-11.2l-7.3-0.5"/>
	<path class="st24" d="M626,613.5v6.6c-0.2,4.7,3.5,8.8,8.3,9.1l0,0h0.5l6.1-0.3c6.2-0.5,10.8-5.8,10.7-12l0,0
		c0.3-6.2-4.4-11.5-10.5-12.2l-6.1-0.3c-4.9,0-8.8,3.7-9,8.6V613.5L626,613.5z"/>
	<path class="st25" d="M625.2,613.5v6.6c-0.2,4.7,3.5,8.8,8.3,9.1l0,0h0.5l6.1-0.3c6.2-0.5,10.8-5.8,10.7-12l0,0
		c0.3-6.2-4.4-11.5-10.5-12.2l-6.1-0.3c-4.9,0-8.8,3.7-9,8.6V613.5L625.2,613.5z"/>
	<path class="st26" d="M622.4,613.8v6.1c0,4.6,3.5,8.5,8.3,8.5l0,0l0,0h0.3l6.1-0.3c5.9-0.3,10.7-5.2,10.7-11.2l0,0
		c0-5.9-4.6-10.8-10.5-11.2l-6.1-0.3c-4.6-0.3-8.5,3-8.8,7.4l0,0v0.2V613.8L622.4,613.8z"/>
	<path class="st27" d="M629.9,628.3l7.3-0.5c5.9-0.3,10.7-5.2,10.7-11.2l0,0c0-5.9-4.6-10.8-10.5-11.2l-7.3-0.5"/>
	<path class="st24" d="M626,553v6.6c-0.2,4.7,3.5,8.8,8.3,9.1l0,0h0.5l6.1-0.3c6.2-0.5,10.8-5.8,10.7-12l0,0
		c0.3-6.2-4.4-11.5-10.5-12.2l-6.1-0.3c-4.9,0-8.8,3.7-9,8.6V553L626,553z"/>
	<path class="st25" d="M625.2,553v6.6c-0.2,4.7,3.5,8.8,8.3,9.1l0,0h0.5l6.1-0.3c6.2-0.5,10.8-5.8,10.7-12l0,0
		c0.3-6.2-4.4-11.5-10.5-12.2l-6.1-0.3c-4.9,0-8.8,3.7-9,8.6V553L625.2,553z"/>
	<path class="st26" d="M622.4,553.2v6.1c0,4.6,3.5,8.5,8.3,8.5l0,0l0,0l0,0h0.3l6.1-0.3c5.9-0.3,10.7-5.2,10.7-11.2l0,0
		c0-5.9-4.6-10.8-10.5-11.2l-6.1-0.3c-4.6-0.3-8.5,3-8.8,7.4l0,0v0.2V553.2L622.4,553.2z"/>
	<path class="st27" d="M629.9,567.7l7.3-0.5c5.9-0.3,10.7-5.2,10.7-11.2l0,0c0-5.9-4.6-10.8-10.5-11.2l-7.3-0.5"/>
	<path class="st24" d="M562.7,674.5l-0.2,6.1c-0.2,4.7-3.9,8.5-8.6,8.3l0,0h-0.2h-0.3l-6.1-0.5c-5.9-0.5-10.5-5.6-10.3-11.5l0,0
		c0.2-5.9,5.1-10.8,11-11l6.1-0.2c4.6-0.2,8.5,3.4,8.6,7.9V674.5z"/>
	<path class="st25" d="M561.7,674.5l-0.2,6.1c-0.2,4.7-3.9,8.5-8.6,8.3l0,0h-0.2l0,0h-0.3l-6.1-0.5c-5.9-0.5-10.5-5.6-10.3-11.5l0,0
		c0.2-5.9,5.1-10.8,11-11l6.1-0.2c4.6-0.2,8.5,3.5,8.6,8.1V674.5L561.7,674.5L561.7,674.5z"/>
	<path class="st26" d="M560.5,674.5l-0.2,6.1c-0.2,4.7-3.9,8.5-8.6,8.3l0,0h-0.2l0,0H551l-6.1-0.5c-5.9-0.5-10.5-5.6-10.3-11.5l0,0
		c0.2-5.9,5.1-10.8,11-11l6.1-0.2c4.6-0.2,8.5,3.5,8.6,8.1v0.2C560.5,674.2,560.5,674.3,560.5,674.5z"/>
	<path class="st28" d="M552.4,689l-7.3-0.7c-5.9-0.5-10.5-5.6-10.3-11.5l0,0c0.2-5.9,5.1-10.8,11-11l7.3-0.3"/>
	<path class="st24" d="M562.9,614.2l-0.2,6.1c-0.2,4.7-3.9,8.5-8.6,8.3l0,0h-0.2h-0.3l-6.1-0.5c-5.9-0.5-10.5-5.6-10.3-11.5l0,0
		c0.2-5.9,5.1-10.8,11-11l6.1-0.2c4.6-0.2,8.5,3.4,8.6,7.9V614.2z"/>
	<path class="st25" d="M561.9,614.2l-0.2,6.1c-0.2,4.7-3.9,8.5-8.6,8.3l0,0h-0.2l0,0h-0.3l-6.1-0.5c-5.9-0.5-10.5-5.6-10.3-11.5l0,0
		c0.2-5.9,5.1-10.8,11-11l6.1-0.2c4.6-0.2,8.5,3.5,8.6,8.1V614.2z"/>
	<path class="st26" d="M560.7,614.2l-0.2,6.1c-0.2,4.7-3.9,8.5-8.6,8.3h-0.2l0,0h-0.5l-6.1-0.5c-5.9-0.5-10.5-5.6-10.3-11.5l0,0
		c0.2-5.9,5.1-10.8,11-11l6.1-0.2c4.6-0.2,8.5,3.5,8.6,8.1v0.2C560.7,613.8,560.7,614,560.7,614.2z"/>
	<path class="st28" d="M552.6,628.7l-7.3-0.7c-5.9-0.5-10.5-5.6-10.3-11.5l0,0c0.2-5.9,5.1-10.8,11-11l7.3-0.3"/>
	<path class="st24" d="M561.7,552.6l-0.2,6.1c-0.2,4.7-3.9,8.5-8.6,8.3l0,0h-0.2h-0.3l-6.1-0.5c-5.9-0.5-10.5-5.6-10.3-11.5l0,0
		c0.2-5.9,5.1-10.8,11-11l6.1-0.2c4.6-0.2,8.5,3.4,8.6,7.9V552.6L561.7,552.6L561.7,552.6z"/>
	<path class="st25" d="M560.8,552.6l-0.2,6.1c-0.2,4.7-3.9,8.5-8.6,8.3l0,0h-0.2l0,0h-0.3l-6.1-0.5c-5.9-0.5-10.5-5.6-10.3-11.5l0,0
		c0.2-5.9,5.1-10.8,11-11l6.1-0.2c4.6-0.2,8.5,3.5,8.6,8.1V552.6z"/>
	<path class="st26" d="M559.7,552.6l-0.2,6.1c-0.2,4.7-3.9,8.5-8.6,8.3l0,0h-0.2l0,0h-0.5l-6.1-0.5c-5.9-0.5-10.5-5.6-10.3-11.7l0,0
		c0.2-5.9,5.1-10.8,11-11l6.1-0.2c4.6-0.2,8.5,3.5,8.6,8.1v0.2C559.7,552.5,559.7,552.5,559.7,552.6z"/>
	<path class="st28" d="M551.6,567.2l-7.3-0.7c-5.9-0.5-10.5-5.6-10.3-11.5l0,0c0.2-5.9,5.1-10.8,11-11l7.3-0.3"/>
	<path class="st11" d="M429.6,700.8V528.3c0-3,1.7-5.8,4-5.8l0,0l0,0h43.9c2.2,0,4.1,2.4,4.1,5.6l0,0v172.7c0,3-1.7,5.8-4,5.8l0,0
		l0,0h-43.9C431.4,706.6,429.6,704.1,429.6,700.8C429.6,701,429.6,701,429.6,700.8L429.6,700.8z"/>
	<path class="st12" d="M427.3,700.8V528.3c0-3,1.7-5.8,4-5.8l0,0l0,0h43.9c2.2,0,4.1,2.4,4.1,5.6l0,0v172.7c0,3-1.7,5.8-4,5.8l0,0
		l0,0h-43.9C429.1,706.6,427.3,704.1,427.3,700.8C427.3,701,427.3,701,427.3,700.8L427.3,700.8z"/>
	<path id="table-9-6_00000024697607256996073160000006243307364325921453_" class="st10" d="M425.9,646.9v54.8
		c0,2.7,1.6,4.9,3.5,5.1h0.1l0,0h23.9V647L425.9,646.9L425.9,646.9z"/>
	<path id="table-10-6_00000054230288522937850260000007747284689208300422_" class="st10" d="M453.4,522.4h-23.9
		c-1.9,0-3.5,2.2-3.6,4.9v59.5h27.5V522.4z"/>
	
		<rect id="table-11-9_00000118396822290564567760000004438840441622378113_" x="425.9" y="587.3" class="st10" width="27.5" height="59.7"/>
	<path id="table-12-6_00000000197530043135095420000010259323222771489724_" class="st10" d="M453.4,586.8H478v-59.3
		c0-2.7-1.6-4.9-3.5-5.1h-21.1V586.8L453.4,586.8z"/>
	
		<rect id="table-13-9_00000010998314146197650960000002647638790584093612_" x="453.4" y="587.3" class="st10" width="24.6" height="59.7"/>
	<path id="table-16-6_00000044882187201254153530000009986286951056307332_" class="st10" d="M453.4,706.6h21c1.9,0,3.5-2.2,3.6-4.9
		v-54.9h-24.6V706.6L453.4,706.6z"/>
	<line class="st23" x1="425.9" y1="646.9" x2="478" y2="646.9"/>
	<line class="st23" x1="425.9" y1="587.3" x2="478" y2="587.3"/>
	<line class="st23" x1="453.4" y1="706.6" x2="453.4" y2="522.4"/>
	<path class="st24" d="M487,674.3v6.6c-0.2,4.7,3.5,8.8,8.3,9.1l0,0h0.5l6.1-0.3c6.2-0.5,10.8-5.8,10.6-12l0,0
		c0.3-6.2-4.4-11.5-10.5-12.2l-6.1-0.3c-4.9,0-8.8,3.7-9,8.6v0.5L487,674.3L487,674.3z"/>
	<path class="st25" d="M486.1,674.3v6.6c-0.2,4.7,3.5,8.8,8.3,9.1l0,0h0.5l6.1-0.3c6.2-0.5,10.8-5.8,10.6-12l0,0
		c0.3-6.2-4.4-11.5-10.5-12.2l-6.1-0.3c-4.9,0-8.8,3.7-9,8.6v0.5L486.1,674.3L486.1,674.3z"/>
	<path class="st26" d="M483.4,674.5v6.1c0,4.6,3.7,8.3,8.3,8.5l0,0h0.3l6.1-0.3c5.9-0.3,10.6-5.2,10.6-11.2l0,0
		c0-5.9-4.6-10.8-10.5-11.2l-6.1-0.3c-4.6-0.3-8.5,3-8.8,7.4l0,0v0.2L483.4,674.5L483.4,674.5z"/>
	<path class="st27" d="M490.9,689l7.3-0.5c5.9-0.3,10.6-5.2,10.6-11.2l0,0c0-5.9-4.6-10.8-10.5-11.2l-7.3-0.5"/>
	<path class="st24" d="M487,613.5v6.6c-0.2,4.7,3.5,8.8,8.3,9.1l0,0h0.5l6.1-0.3c6.2-0.5,10.8-5.8,10.6-12l0,0
		c0.3-6.2-4.4-11.5-10.5-12.2l-6.1-0.3c-4.9,0-8.8,3.7-9,8.6v0.5L487,613.5L487,613.5z"/>
	<path class="st25" d="M486.1,613.5v6.6c-0.2,4.7,3.5,8.8,8.3,9.1l0,0h0.5l6.1-0.3c6.2-0.5,10.8-5.8,10.6-12l0,0
		c0.3-6.2-4.4-11.5-10.5-12.2l-6.1-0.3c-4.9,0-8.8,3.7-9,8.6v0.5L486.1,613.5L486.1,613.5z"/>
	<path class="st26" d="M483.4,613.8v6.1c0,4.6,3.5,8.5,8.3,8.5l0,0l0,0h0.3l6.1-0.3c5.9-0.3,10.6-5.2,10.6-11.2l0,0
		c0-5.9-4.6-10.8-10.5-11.2l-6.1-0.3c-4.6-0.3-8.5,3-8.8,7.4l0,0v0.2L483.4,613.8L483.4,613.8z"/>
	<path class="st27" d="M490.9,628.3l7.3-0.5c5.9-0.3,10.6-5.2,10.6-11.2l0,0c0-5.9-4.6-10.8-10.5-11.2L491,605"/>
	<path class="st24" d="M487,553v6.6c-0.2,4.7,3.5,8.8,8.3,9.1l0,0h0.5l6.1-0.3c6.2-0.5,10.8-5.8,10.6-12l0,0
		c0.3-6.2-4.4-11.5-10.5-12.2l-6.1-0.3c-4.9,0-8.8,3.7-9,8.6v0.5L487,553L487,553z"/>
	<path class="st25" d="M486.1,553v6.6c-0.2,4.7,3.5,8.8,8.3,9.1l0,0h0.5l6.1-0.3c6.2-0.5,10.8-5.8,10.6-12l0,0
		c0.3-6.2-4.4-11.5-10.5-12.2l-6.1-0.3c-4.9,0-8.8,3.7-9,8.6v0.5L486.1,553L486.1,553z"/>
	<path class="st26" d="M483.4,553.2v6.1c0,4.6,3.5,8.5,8.3,8.5l0,0l0,0l0,0h0.3l6.1-0.3c5.9-0.3,10.6-5.2,10.6-11.2l0,0
		c0-5.9-4.6-10.8-10.5-11.2l-6.1-0.3c-4.6-0.3-8.5,3-8.8,7.4l0,0v0.2L483.4,553.2L483.4,553.2z"/>
	<path class="st27" d="M490.9,567.7l7.3-0.5c5.9-0.3,10.6-5.2,10.6-11.2l0,0c0-5.9-4.6-10.8-10.5-11.2l-7.3-0.5"/>
	<path class="st24" d="M423.7,674.5l-0.2,6.1c-0.2,4.7-3.9,8.5-8.6,8.3l0,0h-0.2h-0.3l-6.1-0.5c-5.9-0.5-10.5-5.6-10.3-11.5l0,0
		c0.2-5.9,5.1-10.8,11-11l6.1-0.2c4.6-0.2,8.5,3.4,8.6,7.9V674.5z"/>
	<path class="st25" d="M422.7,674.5l-0.2,6.1c-0.2,4.7-3.9,8.5-8.6,8.3l0,0h-0.2l0,0h-0.3l-6.1-0.5c-5.9-0.5-10.5-5.6-10.3-11.5l0,0
		c0.2-5.9,5.1-10.8,11-11l6.1-0.2c4.6-0.2,8.5,3.5,8.6,8.1V674.5L422.7,674.5L422.7,674.5z"/>
	<path class="st26" d="M421.5,674.5l-0.2,6.1c-0.2,4.7-3.9,8.5-8.6,8.3l0,0h-0.2l0,0H412l-6.1-0.5c-5.9-0.5-10.5-5.6-10.3-11.5l0,0
		c0.2-5.9,5.1-10.8,11-11l6.1-0.2c4.6-0.2,8.5,3.5,8.6,8.1v0.2C421.5,674.2,421.5,674.3,421.5,674.5z"/>
	<path class="st28" d="M413.4,689l-7.3-0.7c-5.9-0.5-10.5-5.6-10.3-11.5l0,0c0.2-5.9,5.1-10.8,11-11l7.3-0.3"/>
	<path class="st24" d="M423.9,614.2l-0.2,6.1c-0.2,4.7-3.9,8.5-8.6,8.3l0,0h-0.2h-0.3l-6.1-0.5c-5.9-0.5-10.5-5.6-10.3-11.5l0,0
		c0.2-5.9,5.1-10.8,11-11l6.1-0.2c4.6-0.2,8.5,3.4,8.6,7.9V614.2z"/>
	<path class="st25" d="M422.8,614.2l-0.2,6.1c-0.2,4.7-3.9,8.5-8.6,8.3l0,0h-0.2l0,0h-0.3l-6.1-0.5c-5.9-0.5-10.5-5.6-10.3-11.5l0,0
		c0.2-5.9,5.1-10.8,11-11l6.1-0.2c4.6-0.2,8.5,3.5,8.6,8.1V614.2z"/>
	<path class="st26" d="M421.7,614.2l-0.2,6.1c-0.2,4.7-3.9,8.5-8.6,8.3h-0.2l0,0h-0.5l-6.1-0.5c-5.9-0.5-10.5-5.6-10.3-11.5l0,0
		c0.2-5.9,5.1-10.8,11-11l6.1-0.2c4.6-0.2,8.5,3.5,8.6,8.1v0.2C421.7,613.8,421.7,614,421.7,614.2z"/>
	<path class="st28" d="M413.5,628.7l-7.3-0.7c-5.9-0.5-10.5-5.6-10.3-11.5l0,0c0.2-5.9,5.1-10.8,11-11l7.3-0.3"/>
	<path class="st24" d="M422.7,552.6l-0.2,6.1c-0.2,4.7-3.9,8.5-8.6,8.3l0,0h-0.2h-0.3l-6.1-0.5c-5.9-0.5-10.5-5.6-10.3-11.5l0,0
		c0.2-5.9,5.1-10.8,11-11l6.1-0.2c4.6-0.2,8.5,3.4,8.6,7.9V552.6L422.7,552.6L422.7,552.6z"/>
	<path class="st25" d="M421.8,552.6l-0.2,6.1c-0.2,4.7-3.9,8.5-8.6,8.3l0,0h-0.2l0,0h-0.3l-6.1-0.5c-5.9-0.5-10.5-5.6-10.3-11.5l0,0
		c0.2-5.9,5.1-10.8,11-11l6.1-0.2c4.6-0.2,8.5,3.5,8.6,8.1V552.6z"/>
	<path class="st26" d="M420.6,552.6l-0.2,6.1c-0.2,4.7-3.9,8.5-8.6,8.3l0,0h-0.2l0,0h-0.5l-6.1-0.5c-5.9-0.5-10.5-5.6-10.3-11.7l0,0
		c0.2-5.9,5.1-10.8,11-11l6.1-0.2c4.6-0.2,8.5,3.5,8.6,8.1v0.2C420.6,552.5,420.6,552.5,420.6,552.6z"/>
	<path class="st28" d="M412.5,567.2l-7.3-0.7c-5.9-0.5-10.5-5.6-10.3-11.5l0,0c0.2-5.9,5.1-10.8,11-11l7.3-0.3"/>
	<path class="st11" d="M286.8,700.8V528.2c0-3,1.7-5.8,4-5.8l0,0l0,0h43.9c2.2,0,4.1,2.4,4.1,5.6l0,0v172.7c0,3-1.7,5.8-4,5.8l0,0
		l0,0h-43.9C288.6,706.5,286.8,704,286.8,700.8C286.8,700.9,286.8,700.9,286.8,700.8L286.8,700.8z"/>
	<path class="st12" d="M284.5,700.8V528.2c0-3,1.7-5.8,4-5.8l0,0l0,0h43.9c2.2,0,4.1,2.4,4.1,5.6l0,0v172.7c0,3-1.7,5.8-4,5.8l0,0
		l0,0h-43.9C286.4,706.5,284.5,704,284.5,700.8C284.5,700.9,284.5,700.9,284.5,700.8L284.5,700.8z"/>
	<path id="table-9-6_00000005256884445532458650000016639894834356137372_" class="st10" d="M283.1,646.9v54.8
		c0,2.7,1.6,4.9,3.5,5.1h0.1l0,0h23.9V647L283.1,646.9L283.1,646.9z"/>
	<path id="table-10-6_00000057849633740809875790000014464355933888421256_" class="st10" d="M310.6,522.3h-23.9
		c-1.9,0-3.5,2.2-3.6,4.9v59.5h27.5V522.3z"/>
	
		<rect id="table-11-9_00000108289210210060346850000000889083601653707657_" x="283.1" y="587.2" class="st10" width="27.5" height="59.7"/>
	<path id="table-12-6_00000080189292294632615220000016652472261242441367_" class="st10" d="M310.6,586.7h24.6v-59.3
		c0-2.7-1.6-4.9-3.5-5.1h-21.1V586.7L310.6,586.7z"/>
	
		<rect id="table-13-9_00000021832811526942608910000011394814257379808419_" x="310.6" y="587.2" class="st10" width="24.6" height="59.7"/>
	<path id="table-16-6_00000068659610412960850710000017886213579439251609_" class="st10" d="M310.6,706.5h21c1.9,0,3.5-2.2,3.6-4.9
		v-54.9h-24.6V706.5L310.6,706.5z"/>
	<line class="st23" x1="283.1" y1="646.9" x2="335.2" y2="646.9"/>
	<line class="st23" x1="283.1" y1="587.2" x2="335.2" y2="587.2"/>
	<line class="st23" x1="310.6" y1="706.5" x2="310.6" y2="522.3"/>
	<path class="st24" d="M344.2,674.2v6.6c-0.2,4.7,3.5,8.8,8.3,9.1l0,0h0.5l6.1-0.3c6.2-0.5,10.8-5.8,10.6-12l0,0
		c0.3-6.2-4.4-11.5-10.5-12.2l-6.1-0.3c-4.9,0-8.8,3.7-9,8.6v0.5L344.2,674.2L344.2,674.2z"/>
	<path class="st25" d="M343.3,674.2v6.6c-0.2,4.7,3.5,8.8,8.3,9.1l0,0h0.5l6.1-0.3c6.2-0.5,10.8-5.8,10.6-12l0,0
		c0.3-6.2-4.4-11.5-10.5-12.2l-6.1-0.3c-4.9,0-8.8,3.7-9,8.6v0.5L343.3,674.2L343.3,674.2z"/>
	<path class="st26" d="M340.6,674.4v6.1c0,4.6,3.7,8.3,8.3,8.5l0,0h0.3l6.1-0.3c5.9-0.3,10.6-5.2,10.6-11.2l0,0
		c0-5.9-4.6-10.8-10.5-11.2l-6.1-0.3c-4.6-0.3-8.5,3-8.8,7.4l0,0v0.2L340.6,674.4L340.6,674.4z"/>
	<path class="st27" d="M348.1,688.9l7.3-0.5c5.9-0.3,10.6-5.2,10.6-11.2l0,0c0-5.9-4.6-10.8-10.5-11.2l-7.3-0.5"/>
	<path class="st24" d="M344.2,613.4v6.6c-0.2,4.7,3.5,8.8,8.3,9.1l0,0h0.5l6.1-0.3c6.2-0.5,10.8-5.8,10.6-12l0,0
		c0.3-6.2-4.4-11.5-10.5-12.2l-6.1-0.3c-4.9,0-8.8,3.7-9,8.6v0.5L344.2,613.4L344.2,613.4z"/>
	<path class="st25" d="M343.3,613.4v6.6c-0.2,4.7,3.5,8.8,8.3,9.1l0,0h0.5l6.1-0.3c6.2-0.5,10.8-5.8,10.6-12l0,0
		c0.3-6.2-4.4-11.5-10.5-12.2l-6.1-0.3c-4.9,0-8.8,3.7-9,8.6v0.5L343.3,613.4L343.3,613.4z"/>
	<path class="st26" d="M340.6,613.7v6.1c0,4.6,3.5,8.5,8.3,8.5l0,0l0,0h0.3l6.1-0.3c5.9-0.3,10.6-5.2,10.6-11.2l0,0
		c0-5.9-4.6-10.8-10.5-11.2l-6.1-0.3c-4.6-0.3-8.5,3-8.8,7.4l0,0v0.2L340.6,613.7L340.6,613.7z"/>
	<path class="st27" d="M348.1,628.3l7.3-0.5c5.9-0.3,10.6-5.2,10.6-11.2l0,0c0-5.9-4.6-10.8-10.5-11.2l-7.3-0.5"/>
	<path class="st24" d="M344.2,552.9v6.6c-0.2,4.7,3.5,8.8,8.3,9.1l0,0h0.5l6.1-0.3c6.2-0.5,10.8-5.8,10.6-12l0,0
		c0.3-6.2-4.4-11.5-10.5-12.2l-6.1-0.3c-4.9,0-8.8,3.7-9,8.6v0.5L344.2,552.9L344.2,552.9z"/>
	<path class="st25" d="M343.3,552.9v6.6c-0.2,4.7,3.5,8.8,8.3,9.1l0,0h0.5l6.1-0.3c6.2-0.5,10.8-5.8,10.6-12l0,0
		c0.3-6.2-4.4-11.5-10.5-12.2l-6.1-0.3c-4.9,0-8.8,3.7-9,8.6v0.5L343.3,552.9L343.3,552.9z"/>
	<path class="st26" d="M340.6,553.1v6.1c0,4.6,3.5,8.5,8.3,8.5l0,0l0,0l0,0h0.3l6.1-0.3c5.9-0.3,10.6-5.2,10.6-11.2l0,0
		c0-5.9-4.6-10.8-10.5-11.2l-6.1-0.3c-4.6-0.3-8.5,3-8.8,7.4l0,0v0.2L340.6,553.1L340.6,553.1z"/>
	<path class="st27" d="M348.1,567.6l7.3-0.5c5.9-0.3,10.6-5.2,10.6-11.2l0,0c0-5.9-4.6-10.8-10.5-11.2l-7.3-0.5"/>
	<path class="st24" d="M281.1,614.1l-0.2,6.1c-0.2,4.7-3.9,8.5-8.6,8.3l0,0h-0.2h-0.3l-6.1-0.5c-5.9-0.5-10.5-5.6-10.3-11.5l0,0
		c0.2-5.9,5.1-10.8,11-11l6.1-0.2c4.6-0.2,8.5,3.4,8.6,7.9L281.1,614.1z"/>
	<path class="st25" d="M280,614.1l-0.2,6.1c-0.2,4.7-3.9,8.5-8.6,8.3l0,0H271l0,0h-0.3l-6.1-0.5c-5.9-0.5-10.5-5.6-10.3-11.5l0,0
		c0.2-5.9,5.1-10.8,11-11l6.1-0.2c4.6-0.2,8.5,3.5,8.6,8.1V614.1z"/>
	<path class="st26" d="M278.9,614.1l-0.2,6.1c-0.2,4.7-3.9,8.5-8.6,8.3h-0.2l0,0h-0.5l-6.1-0.5c-5.9-0.5-10.5-5.6-10.3-11.5l0,0
		c0.2-5.9,5.1-10.8,11-11l6.1-0.2c4.6-0.2,8.5,3.5,8.6,8.1v0.2C278.9,613.7,278.9,613.9,278.9,614.1z"/>
	<path class="st28" d="M270.8,628.6l-7.3-0.7c-5.9-0.5-10.5-5.6-10.3-11.5l0,0c0.2-5.9,5.1-10.8,11-11l7.3-0.3"/>
	<path class="st24" d="M279.9,552.6l-0.2,6.1c-0.2,4.7-3.9,8.5-8.6,8.3l0,0h-0.2h-0.3l-6.1-0.5c-5.9-0.5-10.5-5.6-10.3-11.5l0,0
		c0.2-5.9,5.1-10.8,11-11l6.1-0.2c4.6-0.2,8.5,3.4,8.6,7.9L279.9,552.6L279.9,552.6L279.9,552.6z"/>
	<path class="st25" d="M279,552.6l-0.2,6.1c-0.2,4.7-3.9,8.5-8.6,8.3l0,0H270l0,0h-0.3l-6.1-0.5c-5.9-0.5-10.5-5.6-10.3-11.5l0,0
		c0.2-5.9,5.1-10.8,11-11l6.1-0.2c4.6-0.2,8.5,3.5,8.6,8.1V552.6z"/>
	<path class="st26" d="M277.9,552.6l-0.2,6.1c-0.2,4.7-3.9,8.5-8.6,8.3l0,0h-0.2l0,0h-0.5l-6.1-0.5c-5.9-0.5-10.5-5.6-10.3-11.7l0,0
		c0.2-5.9,5.1-10.8,11-11l6.1-0.2c4.6-0.2,8.5,3.5,8.6,8.1v0.2C277.9,552.4,277.9,552.4,277.9,552.6z"/>
	<path class="st28" d="M269.7,567.1l-7.3-0.7c-5.9-0.5-10.5-5.6-10.3-11.5l0,0c0.2-5.9,5.1-10.8,11-11l7.3-0.3"/>
	<path class="st11" d="M704.9,642.2v-116c0-2,0.9-3.9,2.1-3.9l0,0l0,0h23.4c1.2,0,2.2,1.6,2.2,3.8l0,0v116.1c0,2-0.9,3.9-2.1,3.9
		l0,0l0,0h-23.4C705.9,646.1,704.9,644.4,704.9,642.2C704.9,642.3,704.9,642.3,704.9,642.2L704.9,642.2z"/>
	<path class="st12" d="M703.7,642.2v-116c0-2,0.9-3.9,2.1-3.9l0,0l0,0h23.4c1.2,0,2.2,1.6,2.2,3.8l0,0v116.1c0,2-0.9,3.9-2.1,3.9
		l0,0l0,0h-23.4C704.7,646.1,703.7,644.4,703.7,642.2C703.7,642.3,703.7,642.3,703.7,642.2L703.7,642.2z"/>
	<path id="table-9-6_00000163030972525015113030000017554561965490650526_" class="st10" d="M702.9,606v36.8c0,1.8,0.8,3.3,1.9,3.4
		h0.1l0,0h12.8V606H702.9L702.9,606z"/>
	<path id="table-10-6_00000096744862808775086300000005316955743071371670_" class="st10" d="M717.6,522.3h-12.8
		c-1,0-1.9,1.7-1.9,3.9v47.1h14.7V522.3z"/>
	
		<rect id="table-11-9_00000000926795387838531000000015468761556174599325_" x="702.9" y="565.9" class="st10" width="14.7" height="40.1"/>
	<path id="table-12-6_00000024683492931570082860000007064243853209450139_" class="st10" d="M717.6,573.3h13.1v-47
		c0-2.1-0.8-3.9-1.9-4h-11.3v51H717.6z"/>
	
		<rect id="table-13-9_00000114064317716546385780000010675501658424154295_" x="717.6" y="565.9" class="st10" width="13.1" height="40.1"/>
	<path id="table-16-6_00000173162499849888761110000006004595405871745954_" class="st10" d="M717.6,646.1h11.2c1,0,1.9-1.5,1.9-3.3
		v-36.9h-13.1L717.6,646.1L717.6,646.1z"/>
	<line class="st23" x1="702.9" y1="587.2" x2="731.5" y2="587.2"/>
	<path class="st24" d="M700.9,614.1l-0.2,6.1c-0.2,4.7-3.9,8.5-8.6,8.3l0,0h-0.2h-0.3l-6.1-0.5c-5.9-0.5-10.5-5.6-10.3-11.5l0,0
		c0.2-5.9,5.1-10.8,11-11l6.1-0.2c4.6-0.2,8.5,3.4,8.6,7.9V614.1z"/>
	<path class="st25" d="M699.9,614.1l-0.2,6.1c-0.2,4.7-3.9,8.5-8.6,8.3l0,0h-0.2l0,0h-0.3l-6.1-0.5c-5.9-0.5-10.5-5.6-10.3-11.5l0,0
		c0.2-5.9,5.1-10.8,11-11l6.1-0.2c4.6-0.2,8.5,3.5,8.6,8.1V614.1z"/>
	<path class="st26" d="M698.7,614.1l-0.2,6.1c-0.2,4.7-3.9,8.5-8.6,8.3h-0.2l0,0h-0.5l-6.1-0.5c-5.9-0.5-10.5-5.6-10.3-11.5l0,0
		c0.2-5.9,5.1-10.8,11-11l6.1-0.2c4.6-0.2,8.5,3.5,8.6,8.1v0.2C698.7,613.7,698.7,613.9,698.7,614.1z"/>
	<path class="st28" d="M690.6,628.6l-7.3-0.7c-5.9-0.5-10.5-5.6-10.3-11.5l0,0c0.2-5.9,5.1-10.8,11-11l7.3-0.3"/>
	<path class="st24" d="M699.7,552.6l-0.2,6.1c-0.2,4.7-3.9,8.5-8.6,8.3l0,0h-0.2h-0.3l-6.1-0.5c-5.9-0.5-10.5-5.6-10.3-11.5l0,0
		c0.2-5.9,5.1-10.8,11-11l6.1-0.2c4.6-0.2,8.5,3.4,8.6,7.9V552.6L699.7,552.6L699.7,552.6z"/>
	<path class="st25" d="M698.9,552.6l-0.2,6.1c-0.2,4.7-3.9,8.5-8.6,8.3l0,0h-0.2l0,0h-0.3l-6.1-0.5c-5.9-0.5-10.5-5.6-10.3-11.5l0,0
		c0.2-5.9,5.1-10.8,11-11l6.1-0.2c4.6-0.2,8.5,3.5,8.6,8.1V552.6z"/>
	<path class="st26" d="M697.7,552.6l-0.2,6.1c-0.2,4.7-3.9,8.5-8.6,8.3l0,0h-0.2l0,0h-0.5l-6.1-0.5c-5.9-0.5-10.5-5.6-10.3-11.7l0,0
		c0.2-5.9,5.1-10.8,11-11l6.1-0.2c4.6-0.2,8.5,3.5,8.6,8.1v0.2C697.7,552.4,697.7,552.4,697.7,552.6z"/>
	<path class="st28" d="M689.6,567.1l-7.3-0.7c-5.9-0.5-10.5-5.6-10.3-11.5l0,0c0.2-5.9,5.1-10.8,11-11l7.3-0.3"/>
</g>
<g id="booking">
	<rect id="area-21.01-status" x="195.8" y="31.4" class="st29" width="205.3" height="183.4"/>
	<rect id="area-21.02-status" x="40.7" y="27.2" class="st29" width="155.1" height="274.9"/>
	<rect id="area-21.03-status" x="40.7" y="302.2" class="st29" width="155.1" height="137.5"/>
	<rect id="area-21.04-status" x="39" y="439.6" class="st29" width="156.8" height="135"/>
	<rect id="area-21.05-status" x="39" y="574.7" class="st29" width="156.8" height="141.2"/>
	<rect id="area-21.06-status" x="254.1" y="279.7" class="st29" width="67.9" height="76"/>
	<rect id="area-21.07-status" x="251.3" y="356.4" class="st29" width="70.7" height="59.5"/>
	<rect id="area-21.08-status" x="250.6" y="415.7" class="st29" width="88.8" height="58.4"/>
	<rect id="area-21.09-status" x="340.9" y="415.9" class="st29" width="88.8" height="58.4"/>
	<rect id="area-21.10-status" x="746.6" y="503.1" class="st29" width="144.6" height="181.4"/>
	<rect id="area-21.12-status" x="489.8" y="411.4" class="st29" width="191.8" height="58.4"/>
	<g>
		<path class="st10" d="M274.2,117.5h1.7v5.4c0,0.7-0.1,1.3-0.2,1.6c-0.2,0.5-0.5,0.9-0.9,1.2s-1,0.4-1.8,0.4c-0.9,0-1.5-0.2-2-0.7
			s-0.7-1.2-0.7-2.1l1.6-0.2c0,0.5,0.1,0.8,0.2,1c0.2,0.3,0.5,0.5,0.9,0.5s0.7-0.1,0.8-0.3s0.2-0.7,0.2-1.4v-5.4H274.2z"/>
		<path class="st10" d="M279,121.8l-1.5-0.3c0.2-0.6,0.5-1.1,0.9-1.3s1-0.4,1.8-0.4c0.7,0,1.3,0.1,1.6,0.3s0.6,0.4,0.8,0.7
			s0.2,0.8,0.2,1.5v1.9c0,0.6,0,0.9,0.1,1.2s0.1,0.5,0.3,0.8h-1.6c0-0.1-0.1-0.3-0.2-0.5c0-0.1,0-0.2-0.1-0.2
			c-0.3,0.3-0.6,0.5-0.9,0.6s-0.7,0.2-1,0.2c-0.6,0-1.1-0.2-1.5-0.5s-0.5-0.8-0.5-1.3c0-0.3,0.1-0.7,0.2-0.9s0.4-0.5,0.7-0.6
			s0.7-0.3,1.3-0.4c0.8-0.1,1.3-0.3,1.6-0.4V122c0-0.3-0.1-0.5-0.2-0.7s-0.5-0.2-0.9-0.2c-0.3,0-0.5,0.1-0.7,0.2
			S279.1,121.5,279,121.8z M281.2,123.1c-0.2,0.1-0.5,0.2-1,0.2s-0.8,0.2-0.9,0.3c-0.2,0.2-0.3,0.3-0.3,0.6s0.1,0.4,0.3,0.6
			s0.4,0.2,0.7,0.2c0.3,0,0.6-0.1,0.9-0.3c0.2-0.2,0.3-0.3,0.4-0.5c0-0.1,0.1-0.4,0.1-0.8L281.2,123.1L281.2,123.1z"/>
		<path class="st10" d="M286,126.1h-1.6v-6.2h1.5v0.9c0.3-0.4,0.5-0.7,0.7-0.8s0.5-0.2,0.7-0.2c0.4,0,0.7,0.1,1.1,0.3l-0.5,1.4
			c-0.3-0.2-0.5-0.3-0.8-0.3c-0.2,0-0.4,0.1-0.6,0.2s-0.3,0.4-0.4,0.7s-0.1,1-0.1,2.1L286,126.1L286,126.1z"/>
		<path class="st10" d="M290.4,121.8l-1.5-0.3c0.2-0.6,0.5-1.1,0.9-1.3s1-0.4,1.8-0.4c0.7,0,1.3,0.1,1.6,0.3s0.6,0.4,0.8,0.7
			s0.2,0.8,0.2,1.5v1.9c0,0.6,0,0.9,0.1,1.2s0.1,0.5,0.3,0.8H293c0-0.1-0.1-0.3-0.2-0.5c0-0.1,0-0.2-0.1-0.2
			c-0.3,0.3-0.6,0.5-0.9,0.6s-0.7,0.2-1,0.2c-0.6,0-1.1-0.2-1.5-0.5s-0.5-0.8-0.5-1.3c0-0.3,0.1-0.7,0.2-0.9s0.4-0.5,0.7-0.6
			s0.7-0.3,1.3-0.4c0.8-0.1,1.3-0.3,1.6-0.4V122c0-0.3-0.1-0.5-0.2-0.7s-0.5-0.2-0.9-0.2c-0.3,0-0.5,0.1-0.7,0.2
			S290.5,121.5,290.4,121.8z M292.6,123.1c-0.2,0.1-0.5,0.2-1,0.2s-0.8,0.2-0.9,0.3c-0.2,0.2-0.3,0.3-0.3,0.6s0.1,0.4,0.3,0.6
			s0.4,0.2,0.7,0.2c0.3,0,0.6-0.1,0.9-0.3c0.2-0.2,0.3-0.3,0.4-0.5c0-0.1,0.1-0.4,0.1-0.8L292.6,123.1L292.6,123.1z"/>
		<path class="st10" d="M295.7,126.5l1.9,0.2c0,0.2,0.1,0.4,0.2,0.4c0.2,0.1,0.4,0.2,0.7,0.2c0.4,0,0.8-0.1,1-0.2
			c0.1-0.1,0.2-0.2,0.3-0.4c0-0.1,0.1-0.4,0.1-0.8V125c-0.5,0.7-1.1,1-1.9,1s-1.5-0.3-2-1.1c-0.4-0.6-0.6-1.2-0.6-2.1
			c0-1,0.2-1.8,0.8-2.4s1.1-0.8,1.9-0.8s1.4,0.3,1.9,1v-0.9h1.5v5.6c0,0.7-0.1,1.3-0.2,1.7s-0.3,0.7-0.5,0.9
			c-0.2,0.2-0.5,0.4-0.9,0.5s-0.8,0.2-1.4,0.2c-1,0-1.8-0.2-2.2-0.5s-0.7-0.8-0.7-1.4C295.6,126.7,295.6,126.6,295.7,126.5z
			 M297.1,122.9c0,0.7,0.1,1.1,0.4,1.4s0.6,0.5,1,0.5s0.7-0.2,1-0.5s0.4-0.8,0.4-1.4s-0.1-1.1-0.4-1.4s-0.6-0.5-1-0.5
			s-0.7,0.2-1,0.5S297.1,122.2,297.1,122.9z"/>
		<path class="st10" d="M307.2,126.1v-0.9c-0.2,0.3-0.5,0.6-0.9,0.8s-0.8,0.3-1.2,0.3c-0.4,0-0.8-0.1-1.1-0.3s-0.6-0.4-0.7-0.8
			s-0.2-0.8-0.2-1.4v-3.9h1.6v2.9c0,0.9,0,1.4,0.1,1.6s0.2,0.3,0.3,0.5s0.4,0.2,0.6,0.2c0.3,0,0.5-0.1,0.8-0.2s0.4-0.3,0.5-0.6
			s0.1-0.8,0.1-1.7V120h1.6v6.2L307.2,126.1L307.2,126.1z"/>
		<path class="st10" d="M311.7,121.8l-1.5-0.3c0.2-0.6,0.5-1.1,0.9-1.3s1-0.4,1.8-0.4c0.7,0,1.3,0.1,1.6,0.3s0.6,0.4,0.8,0.7
			s0.2,0.8,0.2,1.5v1.9c0,0.6,0,0.9,0.1,1.2s0.1,0.5,0.3,0.8h-1.6c0-0.1-0.1-0.3-0.2-0.5c0-0.1,0-0.2-0.1-0.2
			c-0.3,0.3-0.6,0.5-0.9,0.6s-0.7,0.2-1,0.2c-0.6,0-1.1-0.2-1.5-0.5s-0.5-0.8-0.5-1.3c0-0.3,0.1-0.7,0.2-0.9s0.4-0.5,0.7-0.6
			s0.7-0.3,1.3-0.4c0.8-0.1,1.3-0.3,1.6-0.4V122c0-0.3-0.1-0.5-0.2-0.7s-0.5-0.2-0.9-0.2c-0.3,0-0.5,0.1-0.7,0.2
			S311.8,121.5,311.7,121.8z M313.9,123.1c-0.2,0.1-0.5,0.2-1,0.2s-0.8,0.2-0.9,0.3c-0.2,0.2-0.3,0.3-0.3,0.6s0.1,0.4,0.3,0.6
			s0.4,0.2,0.7,0.2c0.3,0,0.6-0.1,0.9-0.3c0.2-0.2,0.3-0.3,0.4-0.5c0-0.1,0.1-0.4,0.1-0.8L313.9,123.1L313.9,123.1z"/>
	</g>
	<g>
		<path class="st10" d="M100.1,174.4v-8.6h2.6l1.6,5.9l1.5-5.9h2.6v8.6h-1.6v-6.8l-1.7,6.8h-1.7l-1.7-6.8v6.8H100.1z"/>
		<path class="st10" d="M111.4,170.1l-1.5-0.3c0.2-0.6,0.5-1.1,0.9-1.3s1-0.4,1.8-0.4c0.7,0,1.3,0.1,1.6,0.3s0.6,0.4,0.8,0.7
			s0.2,0.8,0.2,1.5v1.9c0,0.6,0,0.9,0.1,1.2s0.2,0.5,0.3,0.8H114c0-0.1-0.1-0.3-0.2-0.5c0-0.1-0.1-0.2-0.1-0.2
			c-0.3,0.3-0.6,0.5-0.9,0.6s-0.7,0.2-1,0.2c-0.6,0-1.2-0.2-1.5-0.5s-0.6-0.8-0.6-1.3c0-0.4,0.1-0.7,0.2-0.9s0.4-0.5,0.7-0.6
			s0.7-0.3,1.3-0.4c0.8-0.1,1.3-0.3,1.6-0.4v-0.2c0-0.3-0.1-0.5-0.2-0.7s-0.4-0.2-0.9-0.2c-0.3,0-0.5,0.1-0.7,0.2
			S111.5,169.8,111.4,170.1z M113.6,171.4c-0.2,0.1-0.5,0.1-1,0.2s-0.8,0.2-0.9,0.3c-0.2,0.1-0.3,0.4-0.3,0.6s0.1,0.4,0.3,0.6
			s0.4,0.2,0.7,0.2c0.3,0,0.6-0.1,0.8-0.3c0.2-0.1,0.3-0.3,0.4-0.5c0-0.1,0.1-0.4,0.1-0.8L113.6,171.4L113.6,171.4z"/>
		<path class="st10" d="M116.7,174.8l1.9,0.2c0,0.2,0.1,0.4,0.2,0.4c0.2,0.1,0.4,0.2,0.7,0.2c0.4,0,0.8-0.1,1-0.2
			c0.1-0.1,0.2-0.2,0.3-0.4c0.1-0.1,0.1-0.4,0.1-0.8v-0.9c-0.5,0.7-1.1,1-1.9,1s-1.5-0.4-2-1.1c-0.4-0.6-0.6-1.2-0.6-2.1
			c0-1,0.2-1.8,0.8-2.4s1.1-0.8,1.9-0.8s1.4,0.3,1.9,1V168h1.5v5.6c0,0.7-0.1,1.3-0.2,1.6s-0.3,0.6-0.5,0.9s-0.5,0.4-0.9,0.5
			s-0.8,0.2-1.4,0.2c-1.1,0-1.8-0.2-2.2-0.5s-0.7-0.8-0.7-1.4C116.7,174.9,116.7,174.9,116.7,174.8z M118.1,171.1
			c0,0.7,0.1,1.1,0.4,1.4s0.6,0.5,0.9,0.5c0.4,0,0.7-0.2,1-0.5s0.4-0.8,0.4-1.4c0-0.6-0.1-1.1-0.4-1.4s-0.6-0.5-1-0.5
			s-0.7,0.1-1,0.5S118.1,170.5,118.1,171.1z"/>
		<path class="st10" d="M128.2,174.4v-0.9c-0.2,0.3-0.5,0.6-0.9,0.8s-0.8,0.3-1.2,0.3c-0.4,0-0.8-0.1-1.1-0.3s-0.6-0.4-0.7-0.8
			s-0.2-0.8-0.2-1.4v-3.9h1.7v2.9c0,0.9,0,1.4,0.1,1.6s0.2,0.4,0.3,0.5s0.4,0.2,0.6,0.2c0.3,0,0.5-0.1,0.8-0.2s0.4-0.4,0.5-0.6
			s0.1-0.8,0.1-1.7v-2.6h1.6v6.2L128.2,174.4L128.2,174.4L128.2,174.4z"/>
		<path class="st10" d="M132.7,170.1l-1.5-0.3c0.2-0.6,0.5-1.1,0.9-1.3s1-0.4,1.8-0.4c0.7,0,1.3,0.1,1.6,0.3s0.6,0.4,0.8,0.7
			s0.2,0.8,0.2,1.5v1.9c0,0.6,0,0.9,0.1,1.2s0.1,0.5,0.3,0.8h-1.6c0-0.1-0.1-0.3-0.2-0.5c0-0.1-0.1-0.2-0.1-0.2
			c-0.3,0.3-0.6,0.5-0.9,0.6s-0.7,0.2-1,0.2c-0.6,0-1.1-0.2-1.5-0.5s-0.6-0.8-0.6-1.3c0-0.4,0.1-0.7,0.2-0.9s0.4-0.5,0.7-0.6
			s0.7-0.3,1.3-0.4c0.8-0.1,1.3-0.3,1.6-0.4v-0.2c0-0.3-0.1-0.5-0.2-0.7s-0.4-0.2-0.9-0.2c-0.3,0-0.5,0.1-0.7,0.2
			S132.8,169.8,132.7,170.1z M134.9,171.4c-0.2,0.1-0.5,0.1-1,0.2s-0.8,0.2-0.9,0.3c-0.2,0.1-0.3,0.4-0.3,0.6s0.1,0.4,0.3,0.6
			s0.4,0.2,0.7,0.2s0.6-0.1,0.9-0.3c0.2-0.1,0.3-0.3,0.4-0.5c0-0.1,0.1-0.4,0.1-0.8v-0.3H134.9z M133.1,167.4l0.8-1.8h1.9l-1.6,1.8
			H133.1z"/>
	</g>
	<g>
		<path class="st10" d="M87.6,375.2v-8.6h5.9v1.5h-4.2v2h3.6v1.5h-3.6v3.6H87.6L87.6,375.2z"/>
		<path class="st10" d="M94.9,375.2v-8.6h1.7v8.6H94.9z"/>
		<path class="st10" d="M101.9,373.2l1.6,0.3c-0.2,0.6-0.5,1.1-1,1.4s-1,0.5-1.7,0.5c-1.1,0-1.9-0.4-2.4-1.1
			c-0.4-0.6-0.6-1.3-0.6-2.1c0-1,0.3-1.8,0.8-2.4s1.2-0.9,2-0.9c0.9,0,1.7,0.3,2.2,0.9s0.8,1.5,0.8,2.8h-4.1c0,0.5,0.1,0.9,0.4,1.1
			s0.6,0.4,0.9,0.4s0.5-0.1,0.7-0.2S101.8,373.5,101.9,373.2z M101.9,371.6c0-0.5-0.1-0.8-0.4-1.1s-0.5-0.4-0.9-0.4
			s-0.7,0.1-0.9,0.4s-0.3,0.6-0.3,1.1H101.9L101.9,371.6z"/>
		<path class="st10" d="M104.1,375.2l2.2-3.2l-2.2-3h2l1.1,1.7l1.2-1.7h1.9l-2.1,3l2.3,3.3h-2l-1.3-1.9l-1.3,1.9L104.1,375.2
			L104.1,375.2z"/>
		<path class="st10" d="M115,375.2v-8.6h3.7c0.9,0,1.6,0.1,2,0.2s0.8,0.4,1,0.8s0.4,0.9,0.4,1.4c0,0.6-0.2,1.2-0.6,1.6
			s-0.9,0.7-1.7,0.8c0.4,0.2,0.7,0.5,0.9,0.7s0.6,0.7,1,1.4l1.1,1.7h-2.1l-1.2-1.9c-0.4-0.7-0.8-1.1-0.9-1.3s-0.3-0.3-0.5-0.4
			s-0.5-0.1-0.9-0.1h-0.3v3.6L115,375.2L115,375.2z M116.7,370.2h1.3c0.8,0,1.3,0,1.6-0.1s0.4-0.2,0.5-0.4s0.2-0.4,0.2-0.6
			c0-0.3-0.1-0.5-0.2-0.7s-0.4-0.3-0.7-0.3c-0.1,0-0.6,0-1.3,0h-1.3L116.7,370.2L116.7,370.2z"/>
		<path class="st10" d="M123.2,372c0-0.5,0.1-1.1,0.4-1.6s0.7-0.9,1.2-1.2s1.1-0.4,1.7-0.4c0.9,0,1.7,0.3,2.3,0.9s0.9,1.4,0.9,2.3
			s-0.3,1.7-0.9,2.3s-1.4,0.9-2.3,0.9c-0.6,0-1.1-0.1-1.6-0.4s-0.9-0.6-1.2-1.1S123.2,372.7,123.2,372z M124.9,372.1
			c0,0.6,0.2,1.1,0.4,1.4s0.6,0.5,1.1,0.5s0.8-0.2,1.1-0.5s0.4-0.8,0.4-1.4s-0.2-1.1-0.4-1.4s-0.7-0.5-1.1-0.5s-0.8,0.2-1.1,0.5
			S124.9,371.5,124.9,372.1z"/>
		<path class="st10" d="M130.6,372c0-0.5,0.1-1.1,0.4-1.6s0.6-0.9,1.1-1.2s1.1-0.4,1.7-0.4c0.9,0,1.7,0.3,2.3,0.9s0.9,1.4,0.9,2.3
			s-0.3,1.7-0.9,2.3s-1.4,0.9-2.3,0.9c-0.6,0-1.1-0.1-1.6-0.4s-0.9-0.6-1.2-1.1S130.6,372.7,130.6,372z M132.2,372.1
			c0,0.6,0.1,1.1,0.4,1.4s0.6,0.5,1.1,0.5s0.8-0.2,1.1-0.5s0.4-0.8,0.4-1.4s-0.1-1.1-0.4-1.4s-0.6-0.5-1.1-0.5s-0.8,0.2-1.1,0.5
			S132.2,371.5,132.2,372.1z"/>
		<path class="st10" d="M138.1,369h1.5v0.9c0.5-0.7,1.2-1,1.9-1c0.4,0,0.7,0.1,1,0.2s0.5,0.4,0.7,0.7c0.3-0.3,0.6-0.6,0.9-0.7
			s0.6-0.2,1-0.2c0.5,0,0.8,0.1,1.2,0.3s0.6,0.5,0.7,0.8c0.1,0.3,0.2,0.7,0.2,1.3v4h-1.6v-3.6c0-0.6-0.1-1-0.2-1.2
			c-0.1-0.2-0.4-0.4-0.7-0.4c-0.2,0-0.4,0.1-0.6,0.2s-0.4,0.4-0.4,0.6s-0.1,0.7-0.1,1.3v3H142v-3.4c0-0.6,0-1-0.1-1.2
			s-0.1-0.3-0.3-0.4s-0.3-0.1-0.5-0.1s-0.5,0.1-0.7,0.2s-0.4,0.3-0.4,0.6s-0.1,0.7-0.1,1.3v3h-1.6L138.1,369L138.1,369z"/>
	</g>
	<g>
		<path class="st10" d="M75.4,513.2c0-0.9,0.1-1.6,0.4-2.2c0.2-0.4,0.5-0.8,0.8-1.2s0.7-0.6,1.1-0.8c0.5-0.2,1.2-0.3,1.8-0.3
			c1.3,0,2.3,0.4,3,1.2s1.1,1.9,1.1,3.3c0,1.4-0.4,2.5-1.1,3.2s-1.8,1.2-3,1.2c-1.3,0-2.3-0.4-3.1-1.2S75.4,514.5,75.4,513.2z
			 M77.2,513.1c0,1,0.2,1.7,0.7,2.2s1,0.8,1.7,0.8s1.3-0.2,1.7-0.8s0.7-1.2,0.7-2.2s-0.2-1.7-0.7-2.2s-1-0.7-1.7-0.7
			s-1.3,0.2-1.7,0.7S77.2,512.1,77.2,513.1z"/>
		<path class="st10" d="M84.4,511.2h0.9v-0.5c0-0.5,0.1-0.9,0.2-1.2s0.3-0.5,0.6-0.6s0.7-0.2,1.1-0.2c0.5,0,0.9,0.1,1.4,0.2
			l-0.2,1.1c-0.3-0.1-0.5-0.1-0.8-0.1c-0.2,0-0.4,0.1-0.5,0.2s-0.2,0.3-0.2,0.6v0.4h1.2v1.3h-1.2v4.9h-1.6v-4.9h-0.9V511.2z"/>
		<path class="st10" d="M88.4,511.2h0.9v-0.5c0-0.5,0.1-0.9,0.2-1.2s0.3-0.5,0.6-0.6s0.7-0.2,1.1-0.2c0.5,0,0.9,0.1,1.4,0.2
			l-0.2,1.1c-0.3-0.1-0.5-0.1-0.8-0.1c-0.2,0-0.4,0.1-0.5,0.2s-0.2,0.3-0.2,0.6v0.4h1.2v1.3h-1.2v4.9h-1.6v-4.9h-0.9V511.2z"/>
		<path class="st10" d="M93.1,510.3v-1.5h1.7v1.5H93.1z M93.1,517.4v-6.2h1.7v6.2H93.1z"/>
		<path class="st10" d="M101.9,513l-1.6,0.3c-0.1-0.3-0.2-0.6-0.4-0.7s-0.4-0.2-0.8-0.2s-0.7,0.1-1,0.4s-0.4,0.8-0.4,1.4
			c0,0.7,0.1,1.3,0.4,1.6s0.6,0.5,1,0.5c0.3,0,0.6-0.1,0.8-0.3s0.3-0.5,0.4-0.9l1.6,0.3c-0.2,0.7-0.5,1.3-1,1.7s-1.1,0.6-1.9,0.6
			c-0.9,0-1.6-0.3-2.2-0.9s-0.8-1.4-0.8-2.4s0.3-1.8,0.8-2.4s1.3-0.9,2.2-0.9c0.8,0,1.4,0.2,1.8,0.5S101.7,512.4,101.9,513z"/>
		<path class="st10" d="M106.7,515.4l1.6,0.3c-0.2,0.6-0.5,1.1-1,1.4s-1,0.5-1.7,0.5c-1.1,0-1.9-0.3-2.4-1.1
			c-0.4-0.6-0.6-1.3-0.6-2.1c0-1,0.3-1.8,0.8-2.4s1.2-0.9,2-0.9c0.9,0,1.7,0.3,2.2,0.9c0.5,0.6,0.8,1.5,0.8,2.8h-4.1
			c0,0.5,0.1,0.9,0.4,1.1s0.6,0.4,0.9,0.4s0.5-0.1,0.7-0.2S106.6,515.7,106.7,515.4z M106.8,513.8c0-0.5-0.1-0.8-0.4-1.1
			s-0.5-0.4-0.9-0.4s-0.7,0.1-0.9,0.4s-0.3,0.6-0.3,1.1H106.8z"/>
		<path class="st10" d="M112.7,514.6l1.7-0.2c0.1,0.6,0.3,1,0.6,1.2s0.7,0.4,1.3,0.4c0.6,0,1-0.1,1.3-0.3s0.4-0.5,0.4-0.8
			c0-0.2-0.1-0.4-0.2-0.5s-0.3-0.3-0.6-0.4c-0.2-0.1-0.7-0.2-1.4-0.4c-0.9-0.2-1.6-0.5-2-0.8c-0.5-0.5-0.8-1-0.8-1.7
			c0-0.4,0.1-0.9,0.4-1.2s0.6-0.7,1.1-0.9s1-0.3,1.7-0.3c1.1,0,1.9,0.2,2.4,0.7s0.8,1.1,0.9,1.9l-1.7,0.1c-0.1-0.4-0.2-0.8-0.5-1
			s-0.6-0.3-1.1-0.3s-0.9,0.1-1.2,0.3c-0.2,0.1-0.3,0.3-0.3,0.5s0.1,0.4,0.3,0.5c0.2,0.2,0.8,0.4,1.6,0.6c0.8,0.2,1.5,0.4,1.9,0.6
			s0.7,0.5,0.9,0.9s0.3,0.8,0.3,1.4c0,0.5-0.1,1-0.4,1.4s-0.7,0.8-1.2,1s-1.1,0.3-1.9,0.3c-1.1,0-1.9-0.2-2.5-0.8
			S112.8,515.6,112.7,514.6z"/>
		<path class="st10" d="M124.7,515.4l1.6,0.3c-0.2,0.6-0.5,1.1-1,1.4s-1,0.5-1.7,0.5c-1.1,0-1.9-0.3-2.4-1.1
			c-0.4-0.6-0.6-1.3-0.6-2.1c0-1,0.3-1.8,0.8-2.4s1.2-0.9,2-0.9c0.9,0,1.7,0.3,2.2,0.9c0.5,0.6,0.8,1.5,0.8,2.8h-4.1
			c0,0.5,0.1,0.9,0.4,1.1s0.6,0.4,0.9,0.4s0.5-0.1,0.7-0.2S124.6,515.7,124.7,515.4z M124.8,513.8c0-0.5-0.1-0.8-0.4-1.1
			s-0.5-0.4-0.9-0.4s-0.7,0.1-0.9,0.4s-0.3,0.6-0.3,1.1H124.8z"/>
		<path class="st10" d="M129.4,517.4h-1.7v-6.2h1.5v0.9c0.3-0.4,0.5-0.7,0.7-0.8s0.4-0.2,0.7-0.2c0.4,0,0.7,0.1,1.1,0.3l-0.5,1.4
			c-0.3-0.2-0.5-0.3-0.8-0.3c-0.2,0-0.4,0.1-0.6,0.2s-0.3,0.4-0.4,0.7s-0.1,1-0.1,2.1L129.4,517.4L129.4,517.4L129.4,517.4z"/>
		<path class="st10" d="M134.2,517.4l-2.5-6.2h1.7l1.2,3.2l0.3,1.1c0.1-0.3,0.1-0.5,0.2-0.5c0.1-0.2,0.1-0.3,0.2-0.5l1.2-3.2h1.7
			l-2.5,6.2L134.2,517.4L134.2,517.4z"/>
		<path class="st10" d="M139.1,510.3v-1.5h1.6v1.5H139.1z M139.1,517.4v-6.2h1.6v6.2H139.1z"/>
		<path class="st10" d="M147.9,513l-1.6,0.3c-0.1-0.3-0.2-0.6-0.4-0.7s-0.4-0.2-0.8-0.2c-0.4,0-0.7,0.1-1,0.4s-0.4,0.8-0.4,1.4
			c0,0.7,0.1,1.3,0.4,1.6s0.6,0.5,1,0.5c0.3,0,0.6-0.1,0.8-0.3s0.3-0.5,0.4-0.9l1.6,0.3c-0.2,0.7-0.5,1.3-1,1.7s-1.1,0.6-1.9,0.6
			c-0.9,0-1.6-0.3-2.2-0.9s-0.8-1.4-0.8-2.4s0.3-1.8,0.8-2.4s1.3-0.9,2.2-0.9c0.8,0,1.4,0.2,1.8,0.5S147.7,512.4,147.9,513z"/>
		<path class="st10" d="M152.8,515.4l1.6,0.3c-0.2,0.6-0.5,1.1-1,1.4s-1,0.5-1.7,0.5c-1.1,0-1.9-0.3-2.4-1.1
			c-0.4-0.6-0.6-1.3-0.6-2.1c0-1,0.3-1.8,0.8-2.4s1.2-0.9,2-0.9c0.9,0,1.7,0.3,2.2,0.9c0.5,0.6,0.8,1.5,0.8,2.8h-4.1
			c0,0.5,0.1,0.9,0.4,1.1s0.6,0.4,0.9,0.4c0.3,0,0.5-0.1,0.6-0.2S152.7,515.7,152.8,515.4z M152.9,513.8c0-0.5-0.1-0.8-0.4-1.1
			s-0.5-0.4-0.9-0.4s-0.7,0.1-0.9,0.4s-0.4,0.6-0.4,1.1H152.9z"/>
		<path class="st10" d="M155.2,515.6l1.6-0.2c0.1,0.3,0.2,0.6,0.4,0.7s0.5,0.2,0.9,0.2s0.8-0.1,1-0.2c0.1-0.1,0.2-0.3,0.2-0.4
			c0-0.1,0-0.2-0.1-0.3s-0.3-0.2-0.6-0.2c-1.3-0.3-2.2-0.6-2.5-0.8c-0.5-0.3-0.7-0.8-0.7-1.4c0-0.5,0.2-1,0.6-1.4s1.1-0.5,2-0.5
			s1.5,0.1,1.9,0.4s0.7,0.7,0.9,1.2l-1.6,0.3c-0.1-0.2-0.2-0.4-0.4-0.6s-0.4-0.2-0.8-0.2c-0.4,0-0.7,0.1-0.9,0.2
			c-0.1,0.1-0.2,0.2-0.2,0.3s0.1,0.2,0.2,0.3c0.1,0.1,0.7,0.3,1.5,0.5s1.5,0.4,1.8,0.7s0.5,0.7,0.5,1.2c0,0.6-0.2,1.1-0.7,1.5
			s-1.2,0.6-2.1,0.6c-0.9,0-1.5-0.2-2-0.5S155.4,516.2,155.2,515.6z"/>
	</g>
	<g>
		<path class="st10" d="M83.7,653.9h-1.9l-0.8-2h-3.4l-0.7,2h-1.8l3.3-8.6h1.8L83.7,653.9z M80.5,650.5l-1.2-3.2l-1.2,3.2H80.5z"/>
		<path class="st10" d="M90.3,653.9h-1.7v-3.2c0-0.7,0-1.1-0.1-1.3s-0.2-0.3-0.3-0.5s-0.3-0.2-0.6-0.2c-0.3,0-0.5,0.1-0.8,0.2
			s-0.4,0.4-0.5,0.6s-0.1,0.7-0.1,1.4v2.8h-1.7v-6.2H86v0.9c0.5-0.7,1.2-1,2.1-1c0.4,0,0.7,0.1,1,0.2s0.5,0.3,0.7,0.5
			s0.3,0.4,0.3,0.7s0.1,0.6,0.1,1.1L90.3,653.9L90.3,653.9z"/>
		<path class="st10" d="M94.8,647.7v1.3h-1.1v2.5c0,0.5,0,0.8,0,0.9s0.1,0.2,0.2,0.2s0.2,0.1,0.3,0.1c0.2,0,0.4,0,0.7-0.2l0.1,1.3
			c-0.4,0.2-0.8,0.2-1.3,0.2c-0.3,0-0.6,0-0.8-0.2s-0.4-0.2-0.5-0.4s-0.2-0.4-0.2-0.6c0-0.2-0.1-0.6-0.1-1.2V649h-0.8v-1.3H92v-1.2
			l1.7-1v2.2H94.8L94.8,647.7z"/>
		<path class="st10" d="M95.5,650.7c0-0.5,0.1-1.1,0.4-1.6s0.7-0.9,1.2-1.2s1.1-0.4,1.7-0.4c0.9,0,1.7,0.3,2.3,0.9s0.9,1.4,0.9,2.3
			s-0.3,1.7-0.9,2.3s-1.4,0.9-2.3,0.9c-0.6,0-1.1-0.1-1.6-0.4s-0.9-0.6-1.2-1.1S95.5,651.4,95.5,650.7z M97.2,650.8
			c0,0.6,0.2,1.1,0.4,1.4s0.7,0.5,1.1,0.5s0.8-0.2,1.1-0.5s0.4-0.8,0.4-1.4c0-0.6-0.2-1.1-0.4-1.4s-0.7-0.5-1.1-0.5
			s-0.8,0.2-1.1,0.5S97.2,650.1,97.2,650.8z"/>
		<path class="st10" d="M108.9,653.9h-1.7v-3.2c0-0.7,0-1.1-0.1-1.3s-0.2-0.3-0.3-0.5s-0.3-0.2-0.6-0.2c-0.3,0-0.5,0.1-0.8,0.2
			s-0.4,0.4-0.5,0.6s-0.1,0.7-0.1,1.4v2.8h-1.7v-6.2h1.5v0.9c0.5-0.7,1.2-1,2.1-1c0.4,0,0.7,0.1,1,0.2s0.5,0.3,0.7,0.5
			s0.3,0.4,0.3,0.7s0.1,0.6,0.1,1.1L108.9,653.9L108.9,653.9z"/>
		<path class="st10" d="M110.6,646.8v-1.5h1.7v1.5H110.6z M110.6,653.9v-6.2h1.7v6.2H110.6z"/>
		<path class="st10" d="M113.5,650.7c0-0.5,0.1-1.1,0.4-1.6s0.7-0.9,1.2-1.2s1.1-0.4,1.7-0.4c0.9,0,1.7,0.3,2.3,0.9s0.9,1.4,0.9,2.3
			s-0.3,1.7-0.9,2.3s-1.4,0.9-2.3,0.9c-0.6,0-1.1-0.1-1.6-0.4s-0.9-0.6-1.2-1.1S113.5,651.4,113.5,650.7z M115.2,650.8
			c0,0.6,0.2,1.1,0.4,1.4s0.7,0.5,1.1,0.5s0.8-0.2,1.1-0.5s0.4-0.8,0.4-1.4c0-0.6-0.2-1.1-0.4-1.4s-0.7-0.5-1.1-0.5
			s-0.8,0.2-1.1,0.5S115.2,650.1,115.2,650.8z"/>
		<path class="st10" d="M124.6,653.9v-8.6h1.7l3.5,5.7v-5.7h1.6v8.6h-1.7l-3.5-5.6v5.6H124.6z"/>
		<path class="st10" d="M132.9,650.7c0-0.5,0.1-1.1,0.4-1.6s0.6-0.9,1.1-1.2s1.1-0.4,1.7-0.4c0.9,0,1.7,0.3,2.3,0.9s0.9,1.4,0.9,2.3
			s-0.3,1.7-0.9,2.3s-1.4,0.9-2.3,0.9c-0.6,0-1.1-0.1-1.6-0.4s-0.9-0.6-1.2-1.1S132.9,651.4,132.9,650.7z M134.6,650.8
			c0,0.6,0.1,1.1,0.4,1.4s0.6,0.5,1.1,0.5s0.8-0.2,1.1-0.5s0.4-0.8,0.4-1.4c0-0.6-0.1-1.1-0.4-1.4s-0.6-0.5-1.1-0.5
			s-0.8,0.2-1.1,0.5S134.6,650.1,134.6,650.8z"/>
		<path class="st10" d="M142.3,653.9l-2.5-6.2h1.7l1.2,3.2l0.3,1.1c0.1-0.3,0.1-0.5,0.2-0.5c0.1-0.2,0.1-0.3,0.2-0.5l1.2-3.2h1.7
			l-2.5,6.2L142.3,653.9L142.3,653.9z"/>
		<path class="st10" d="M148.5,649.5l-1.5-0.3c0.2-0.6,0.5-1,0.9-1.3s1-0.4,1.8-0.4c0.7,0,1.3,0.1,1.6,0.3s0.6,0.4,0.8,0.7
			s0.2,0.8,0.2,1.5v1.9c0,0.5,0,1,0.1,1.2s0.1,0.5,0.3,0.8H151c0-0.1-0.1-0.3-0.2-0.5c0-0.1-0.1-0.2-0.1-0.2
			c-0.3,0.3-0.6,0.5-0.9,0.6s-0.7,0.2-1,0.2c-0.6,0-1.1-0.2-1.5-0.5s-0.6-0.8-0.6-1.3c0-0.3,0.1-0.7,0.2-0.9s0.4-0.5,0.7-0.6
			s0.7-0.3,1.3-0.4c0.8-0.1,1.3-0.3,1.6-0.4v-0.2c0-0.3-0.1-0.5-0.2-0.7s-0.4-0.2-0.9-0.2c-0.3,0-0.5,0.1-0.7,0.2
			S148.6,649.3,148.5,649.5z M150.7,650.9c-0.2,0.1-0.5,0.2-1,0.2s-0.8,0.2-0.9,0.3c-0.2,0.2-0.3,0.3-0.3,0.6c0,0.2,0.1,0.4,0.3,0.6
			s0.4,0.2,0.7,0.2s0.6-0.1,0.9-0.3c0.2-0.2,0.3-0.3,0.4-0.5c0-0.1,0.1-0.4,0.1-0.8v-0.3H150.7z"/>
		<path class="st10" d="M153.3,652.1l1.6-0.2c0.1,0.3,0.2,0.6,0.4,0.7s0.5,0.2,0.9,0.2s0.8-0.1,1-0.2c0.1-0.1,0.2-0.3,0.2-0.4
			c0-0.1,0-0.2-0.1-0.3s-0.3-0.2-0.6-0.2c-1.3-0.3-2.2-0.6-2.5-0.8c-0.5-0.3-0.7-0.8-0.7-1.4c0-0.5,0.2-1,0.6-1.4s1.1-0.5,2-0.5
			s1.5,0.1,1.9,0.4s0.7,0.7,0.9,1.2l-1.6,0.3c-0.1-0.2-0.2-0.4-0.4-0.6s-0.4-0.2-0.8-0.2c-0.4,0-0.7,0.1-0.9,0.2
			c-0.1,0.1-0.2,0.2-0.2,0.3s0.1,0.2,0.2,0.3c0.1,0.1,0.7,0.3,1.5,0.5s1.5,0.4,1.8,0.7s0.5,0.7,0.5,1.2c0,0.6-0.2,1.1-0.7,1.5
			s-1.2,0.6-2.1,0.6c-0.9,0-1.5-0.2-2-0.5S153.5,652.7,153.3,652.1z"/>
	</g>
	<g>
		<path class="st10" d="M279.4,306.7v-8.6h2.8c1,0,1.7,0,2.1,0.1c0.5,0.1,0.9,0.4,1.2,0.8s0.5,1,0.5,1.7c0,0.5-0.1,1-0.3,1.3
			s-0.4,0.6-0.7,0.9s-0.6,0.3-0.9,0.4c-0.4,0.1-1,0.1-1.8,0.1h-1.1v3.2h-1.8L279.4,306.7L279.4,306.7z M281.1,299.6v2.4h1
			c0.7,0,1.1,0,1.4-0.1s0.4-0.2,0.5-0.4s0.2-0.4,0.2-0.7c0-0.3-0.1-0.6-0.3-0.8s-0.4-0.3-0.7-0.4c-0.2,0-0.6-0.1-1.2-0.1
			L281.1,299.6L281.1,299.6z"/>
		<path class="st10" d="M287.4,306.7v-8.6h1.7v3.4h3.4v-3.4h1.7v8.6h-1.7V303h-3.4v3.8L287.4,306.7L287.4,306.7z"/>
		<path class="st10" d="M270.4,312.5h3.4c0.7,0,1.2,0,1.5,0.1s0.6,0.2,0.9,0.4s0.5,0.4,0.7,0.7s0.3,0.6,0.3,1s-0.1,0.8-0.3,1.1
			s-0.5,0.6-0.9,0.8c0.5,0.1,0.9,0.4,1.2,0.8s0.4,0.8,0.4,1.3c0,0.4-0.1,0.8-0.3,1.1s-0.4,0.7-0.7,0.9s-0.7,0.4-1.2,0.4
			c-0.3,0-1,0-2.1,0.1h-2.9V312.5L270.4,312.5L270.4,312.5z M272.1,314v2h1.1c0.7,0,1.1,0,1.3,0c0.3,0,0.5-0.1,0.7-0.3
			s0.2-0.4,0.2-0.7c0-0.3-0.1-0.5-0.2-0.6s-0.4-0.3-0.6-0.3s-0.7,0-1.5,0h-1V314z M272.1,317.4v2.3h1.6c0.6,0,1,0,1.2,0
			c0.3,0,0.5-0.2,0.6-0.3s0.2-0.4,0.2-0.7c0-0.3-0.1-0.5-0.2-0.7s-0.3-0.3-0.5-0.4s-0.8-0.1-1.5-0.1L272.1,317.4L272.1,317.4z"/>
		<path class="st10" d="M278.7,317.9c0-0.5,0.1-1.1,0.4-1.6s0.6-0.9,1.1-1.2s1-0.4,1.7-0.4c0.9,0,1.7,0.3,2.3,0.9s0.9,1.4,0.9,2.3
			s-0.3,1.7-0.9,2.3s-1.4,0.9-2.3,0.9c-0.6,0-1.1-0.1-1.6-0.4s-0.9-0.6-1.2-1.1S278.7,318.6,278.7,317.9z M280.3,318
			c0,0.6,0.1,1.1,0.4,1.4s0.6,0.5,1.1,0.5s0.8-0.2,1.1-0.5s0.4-0.8,0.4-1.4s-0.1-1.1-0.4-1.4s-0.6-0.5-1.1-0.5s-0.8,0.2-1.1,0.5
			S280.3,317.4,280.3,318z"/>
		<path class="st10" d="M286,317.9c0-0.5,0.1-1.1,0.4-1.6s0.6-0.9,1.1-1.2s1-0.4,1.7-0.4c0.9,0,1.7,0.3,2.3,0.9s0.9,1.4,0.9,2.3
			s-0.3,1.7-0.9,2.3s-1.4,0.9-2.3,0.9c-0.6,0-1.1-0.1-1.6-0.4s-0.9-0.6-1.2-1.1S286,318.6,286,317.9z M287.7,318
			c0,0.6,0.1,1.1,0.4,1.4s0.6,0.5,1.1,0.5s0.8-0.2,1.1-0.5s0.4-0.8,0.4-1.4s-0.1-1.1-0.4-1.4s-0.6-0.5-1.1-0.5s-0.8,0.2-1.1,0.5
			S287.7,317.4,287.7,318z"/>
		<path class="st10" d="M296.5,314.9v1.3h-1.1v2.5c0,0.5,0,0.8,0,0.9s0.1,0.1,0.1,0.2s0.2,0.1,0.3,0.1c0.1,0,0.4,0,0.7-0.2l0.1,1.3
			c-0.4,0.2-0.8,0.2-1.3,0.2c-0.3,0-0.6,0-0.8-0.1s-0.4-0.2-0.5-0.4s-0.2-0.4-0.2-0.6s0-0.6,0-1.2v-2.7H293v-1.3h0.8v-1.2l1.6-1v2.2
			L296.5,314.9L296.5,314.9L296.5,314.9z"/>
		<path class="st10" d="M299.3,312.5v3.2c0.5-0.6,1.2-0.9,1.9-0.9c0.4,0,0.7,0.1,1,0.2s0.5,0.3,0.7,0.5s0.3,0.5,0.3,0.7
			s0.1,0.7,0.1,1.2v3.6h-1.6v-3.3c0-0.6,0-1.1-0.1-1.2s-0.2-0.3-0.3-0.4s-0.4-0.2-0.6-0.2c-0.3,0-0.5,0.1-0.7,0.2s-0.4,0.3-0.5,0.6
			s-0.1,0.7-0.1,1.2v3.1h-1.6v-8.6L299.3,312.5L299.3,312.5L299.3,312.5z"/>
		<path class="st10" d="M289.9,335.5h-1.6v-6.2c-0.6,0.6-1.3,1-2.1,1.2V329c0.4-0.1,0.9-0.4,1.4-0.8s0.9-0.9,1-1.4h1.3L289.9,335.5
			L289.9,335.5z"/>
	</g>
	<g>
		<path class="st10" d="M277.1,375.9v-8.6h2.8c1,0,1.7,0,2.1,0.1c0.5,0.1,0.9,0.4,1.2,0.8s0.5,1,0.5,1.7c0,0.5-0.1,1-0.3,1.3
			s-0.4,0.6-0.7,0.9s-0.6,0.3-0.9,0.4c-0.4,0.1-1,0.1-1.8,0.1h-1.1v3.2h-1.8L277.1,375.9L277.1,375.9z M278.8,368.7v2.4h1
			c0.7,0,1.1,0,1.4-0.1s0.4-0.2,0.5-0.4s0.2-0.4,0.2-0.7c0-0.3-0.1-0.6-0.3-0.8s-0.4-0.3-0.7-0.4c-0.2,0-0.6-0.1-1.2-0.1
			L278.8,368.7L278.8,368.7z"/>
		<path class="st10" d="M285.1,375.9v-8.6h1.7v3.4h3.4v-3.4h1.7v8.6h-1.7v-3.8h-3.4v3.8H285.1z"/>
		<path class="st10" d="M268.1,381.7h3.4c0.7,0,1.2,0,1.5,0.1s0.6,0.2,0.9,0.4s0.5,0.4,0.7,0.7s0.3,0.6,0.3,1s-0.1,0.8-0.3,1.1
			s-0.5,0.6-0.9,0.8c0.5,0.1,0.9,0.4,1.2,0.8s0.4,0.8,0.4,1.3c0,0.4-0.1,0.8-0.3,1.1s-0.4,0.7-0.7,0.9s-0.7,0.4-1.2,0.4
			c-0.3,0-1,0-2.1,0.1h-2.9V381.7L268.1,381.7L268.1,381.7z M269.8,383.1v2h1.1c0.7,0,1.1,0,1.3,0c0.3,0,0.5-0.1,0.7-0.3
			s0.2-0.4,0.2-0.7c0-0.3-0.1-0.5-0.2-0.6s-0.4-0.3-0.6-0.3s-0.7,0-1.5,0h-1V383.1z M269.8,386.5v2.3h1.6c0.6,0,1,0,1.2,0
			c0.3,0,0.5-0.2,0.6-0.3s0.2-0.4,0.2-0.7c0-0.3-0.1-0.5-0.2-0.7s-0.3-0.3-0.5-0.4s-0.8-0.1-1.5-0.1L269.8,386.5L269.8,386.5z"/>
		<path class="st10" d="M276.4,387.1c0-0.5,0.1-1.1,0.4-1.6s0.6-0.9,1.1-1.2s1-0.4,1.7-0.4c0.9,0,1.7,0.3,2.3,0.9s0.9,1.4,0.9,2.3
			s-0.3,1.7-0.9,2.3s-1.4,0.9-2.3,0.9c-0.6,0-1.1-0.1-1.6-0.4s-0.9-0.6-1.2-1.1S276.4,387.8,276.4,387.1z M278,387.2
			c0,0.6,0.1,1.1,0.4,1.4s0.6,0.5,1.1,0.5s0.8-0.2,1.1-0.5s0.4-0.8,0.4-1.4s-0.1-1.1-0.4-1.4s-0.6-0.5-1.1-0.5s-0.8,0.2-1.1,0.5
			S278,386.5,278,387.2z"/>
		<path class="st10" d="M283.7,387.1c0-0.5,0.1-1.1,0.4-1.6s0.6-0.9,1.1-1.2s1-0.4,1.7-0.4c0.9,0,1.7,0.3,2.3,0.9s0.9,1.4,0.9,2.3
			s-0.3,1.7-0.9,2.3s-1.4,0.9-2.3,0.9c-0.6,0-1.1-0.1-1.6-0.4s-0.9-0.6-1.2-1.1S283.7,387.8,283.7,387.1z M285.4,387.2
			c0,0.6,0.1,1.1,0.4,1.4s0.6,0.5,1.1,0.5s0.8-0.2,1.1-0.5s0.4-0.8,0.4-1.4s-0.1-1.1-0.4-1.4s-0.6-0.5-1.1-0.5s-0.8,0.2-1.1,0.5
			S285.4,386.5,285.4,387.2z"/>
		<path class="st10" d="M294.3,384.1v1.3h-1.1v2.5c0,0.5,0,0.8,0,0.9s0.1,0.1,0.1,0.2s0.2,0.1,0.3,0.1c0.1,0,0.4,0,0.7-0.2l0.1,1.3
			c-0.4,0.2-0.8,0.2-1.3,0.2c-0.3,0-0.6,0-0.8-0.1s-0.4-0.2-0.5-0.4s-0.2-0.4-0.2-0.6s0-0.6,0-1.2v-2.7h-0.8v-1.3h0.8v-1.2l1.6-1
			v2.2L294.3,384.1L294.3,384.1L294.3,384.1z"/>
		<path class="st10" d="M297,381.7v3.2c0.5-0.6,1.2-0.9,1.9-0.9c0.4,0,0.7,0.1,1,0.2s0.5,0.3,0.7,0.5s0.3,0.5,0.3,0.7
			s0.1,0.7,0.1,1.2v3.6h-1.6V387c0-0.6,0-1.1-0.1-1.2s-0.2-0.3-0.3-0.4s-0.4-0.2-0.6-0.2c-0.3,0-0.5,0.1-0.7,0.2s-0.4,0.3-0.5,0.6
			s-0.1,0.7-0.1,1.2v3.1h-1.6v-8.6H297L297,381.7L297,381.7z"/>
		<path class="st10" d="M287.3,403.1v1.5h-5.8c0.1-0.6,0.2-1.1,0.6-1.6s0.9-1.2,1.9-2.1c0.7-0.7,1.2-1.2,1.4-1.4
			c0.2-0.3,0.3-0.7,0.3-1c0-0.4-0.1-0.6-0.3-0.9s-0.5-0.3-0.8-0.3s-0.6,0.1-0.8,0.3s-0.3,0.5-0.4,1l-1.6-0.2c0.1-0.9,0.4-1.6,0.9-2
			s1.2-0.6,1.9-0.6c0.9,0,1.5,0.2,2,0.7s0.7,1,0.7,1.7c0,0.4-0.1,0.8-0.2,1.1s-0.4,0.7-0.7,1.1c-0.2,0.2-0.6,0.6-1.1,1.1
			s-0.9,0.8-1,1s-0.2,0.3-0.3,0.5L287.3,403.1L287.3,403.1z"/>
	</g>
	<g>
		<path class="st10" d="M284.8,434.4v-8.6h2.8c1,0,1.7,0,2.1,0.1c0.5,0.1,0.9,0.4,1.2,0.8s0.5,1,0.5,1.7c0,0.5-0.1,1-0.3,1.3
			s-0.4,0.6-0.7,0.9s-0.6,0.3-0.9,0.4c-0.4,0.1-1,0.1-1.8,0.1h-1.1v3.2h-1.8L284.8,434.4L284.8,434.4z M286.5,427.2v2.4h1
			c0.7,0,1.1,0,1.4-0.1s0.4-0.2,0.5-0.4s0.2-0.4,0.2-0.7c0-0.3-0.1-0.6-0.3-0.8s-0.4-0.3-0.7-0.4c-0.2,0-0.6-0.1-1.2-0.1
			L286.5,427.2L286.5,427.2L286.5,427.2z"/>
		<path class="st10" d="M292.8,434.4v-8.6h1.7v3.4h3.4v-3.4h1.7v8.6h-1.7v-3.8h-3.4v3.8H292.8z"/>
		<path class="st10" d="M275.8,440.2h3.4c0.7,0,1.2,0,1.5,0.1s0.6,0.2,0.9,0.4s0.5,0.4,0.7,0.7s0.3,0.6,0.3,1s-0.1,0.8-0.3,1.1
			s-0.5,0.6-0.9,0.8c0.5,0.1,0.9,0.4,1.2,0.8s0.4,0.8,0.4,1.3c0,0.4-0.1,0.8-0.3,1.1s-0.4,0.7-0.7,0.9s-0.7,0.4-1.2,0.4
			c-0.3,0-1,0-2.1,0.1h-2.9V440.2L275.8,440.2L275.8,440.2z M277.5,441.6v2h1.1c0.7,0,1.1,0,1.3,0c0.3,0,0.5-0.1,0.7-0.3
			s0.2-0.4,0.2-0.7c0-0.3-0.1-0.5-0.2-0.6s-0.4-0.3-0.6-0.3s-0.7,0-1.5,0h-1V441.6z M277.5,445v2.3h1.6c0.6,0,1,0,1.2,0
			c0.3,0,0.5-0.2,0.6-0.3s0.2-0.4,0.2-0.7c0-0.3-0.1-0.5-0.2-0.7s-0.3-0.3-0.5-0.4s-0.8-0.1-1.5-0.1L277.5,445L277.5,445L277.5,445z
			"/>
		<path class="st10" d="M284,445.6c0-0.5,0.1-1.1,0.4-1.6s0.6-0.9,1.1-1.2s1-0.4,1.7-0.4c0.9,0,1.7,0.3,2.3,0.9s0.9,1.4,0.9,2.3
			s-0.3,1.7-0.9,2.3s-1.4,0.9-2.3,0.9c-0.6,0-1.1-0.1-1.6-0.4s-0.9-0.6-1.2-1.1S284,446.3,284,445.6z M285.7,445.6
			c0,0.6,0.1,1.1,0.4,1.4s0.6,0.5,1.1,0.5s0.8-0.2,1.1-0.5s0.4-0.8,0.4-1.4s-0.1-1.1-0.4-1.4s-0.6-0.5-1.1-0.5s-0.8,0.2-1.1,0.5
			S285.7,445,285.7,445.6z"/>
		<path class="st10" d="M291.4,445.6c0-0.5,0.1-1.1,0.4-1.6s0.6-0.9,1.1-1.2s1-0.4,1.7-0.4c0.9,0,1.7,0.3,2.3,0.9s0.9,1.4,0.9,2.3
			s-0.3,1.7-0.9,2.3s-1.4,0.9-2.3,0.9c-0.6,0-1.1-0.1-1.6-0.4s-0.9-0.6-1.2-1.1S291.4,446.3,291.4,445.6z M293.1,445.6
			c0,0.6,0.1,1.1,0.4,1.4s0.6,0.5,1.1,0.5s0.8-0.2,1.1-0.5s0.4-0.8,0.4-1.4s-0.1-1.1-0.4-1.4s-0.6-0.5-1.1-0.5s-0.8,0.2-1.1,0.5
			S293.1,445,293.1,445.6z"/>
		<path class="st10" d="M301.9,442.5v1.3h-1.1v2.5c0,0.5,0,0.8,0,0.9s0.1,0.1,0.1,0.2s0.2,0.1,0.3,0.1c0.1,0,0.4,0,0.7-0.2l0.1,1.3
			c-0.4,0.2-0.8,0.2-1.3,0.2c-0.3,0-0.6,0-0.8-0.1s-0.4-0.2-0.5-0.4s-0.2-0.4-0.2-0.6s0-0.6,0-1.2v-2.7h-0.8v-1.3h0.8v-1.2l1.6-1
			v2.2L301.9,442.5L301.9,442.5L301.9,442.5z"/>
		<path class="st10" d="M304.7,440.2v3.2c0.5-0.6,1.2-0.9,1.9-0.9c0.4,0,0.7,0.1,1,0.2s0.5,0.3,0.7,0.5s0.3,0.5,0.3,0.7
			s0.1,0.7,0.1,1.2v3.6h-1.6v-3.3c0-0.6,0-1.1-0.1-1.2s-0.2-0.3-0.3-0.4s-0.4-0.2-0.6-0.2c-0.3,0-0.5,0.1-0.7,0.2s-0.4,0.3-0.5,0.6
			s-0.1,0.7-0.1,1.2v3.1h-1.6v-8.6L304.7,440.2L304.7,440.2L304.7,440.2z"/>
		<path class="st10" d="M289.3,460.9l1.6-0.2c0,0.4,0.2,0.7,0.4,0.9s0.5,0.3,0.8,0.3s0.6-0.1,0.9-0.4s0.4-0.6,0.4-1s-0.1-0.7-0.3-1
			s-0.5-0.4-0.8-0.4c-0.2,0-0.5,0-0.8,0.1l0.2-1.3c0.5,0,0.8-0.1,1-0.3s0.4-0.5,0.4-0.8s-0.1-0.5-0.3-0.7s-0.4-0.3-0.7-0.3
			c-0.3,0-0.5,0.1-0.7,0.3s-0.3,0.5-0.4,0.9l-1.5-0.3c0.1-0.5,0.3-0.9,0.5-1.2s0.5-0.5,0.9-0.7s0.8-0.3,1.3-0.3c0.8,0,1.5,0.3,2,0.8
			c0.4,0.4,0.6,0.9,0.6,1.4c0,0.8-0.4,1.4-1.2,1.8c0.5,0.1,0.9,0.3,1.2,0.7s0.4,0.8,0.4,1.3c0,0.8-0.3,1.4-0.8,1.9s-1.2,0.8-2.1,0.8
			c-0.8,0-1.4-0.2-1.9-0.7S289.4,461.6,289.3,460.9z"/>
	</g>
	<g>
		<path class="st10" d="M368.2,450.5V442h1.7v3.4h3.4V442h1.7v8.6h-1.7v-3.8H370v3.8h-1.8V450.5z"/>
		<path class="st10" d="M376.9,443.5V442h1.6v1.5H376.9z M376.9,450.5v-6.2h1.6v6.2H376.9z"/>
		<path class="st10" d="M380.1,451l1.9,0.2c0,0.2,0.1,0.4,0.2,0.5c0.2,0.1,0.4,0.2,0.7,0.2c0.4,0,0.8-0.1,1-0.2
			c0.1-0.1,0.2-0.2,0.3-0.4c0-0.1,0.1-0.4,0.1-0.8v-0.9c-0.5,0.7-1.1,1-1.9,1s-1.5-0.4-2-1.1c-0.4-0.6-0.6-1.2-0.6-2.1
			c0-1,0.2-1.8,0.8-2.4s1.1-0.8,1.9-0.8s1.4,0.3,1.9,1v-0.9h1.5v5.6c0,0.7-0.1,1.3-0.2,1.6s-0.3,0.6-0.5,0.9s-0.5,0.4-0.9,0.5
			s-0.8,0.2-1.4,0.2c-1,0-1.8-0.2-2.2-0.5s-0.7-0.8-0.7-1.4C380,451.1,380,451,380.1,451z M381.5,447.3c0,0.7,0.1,1.1,0.4,1.5
			s0.6,0.5,1,0.5s0.7-0.2,1-0.5s0.4-0.8,0.4-1.4s-0.1-1.1-0.4-1.4s-0.6-0.5-1-0.5s-0.7,0.1-1,0.5S381.5,446.7,381.5,447.3z"/>
		<path class="st10" d="M391.6,450.5v-0.9c-0.2,0.3-0.5,0.6-0.9,0.8s-0.8,0.3-1.2,0.3c-0.4,0-0.8-0.1-1.1-0.3s-0.6-0.4-0.7-0.8
			s-0.2-0.8-0.2-1.4v-3.9h1.6v2.9c0,0.9,0,1.4,0.1,1.6s0.2,0.4,0.3,0.5s0.4,0.2,0.6,0.2c0.3,0,0.5-0.1,0.8-0.2s0.4-0.4,0.5-0.6
			s0.1-0.8,0.1-1.7v-2.6h1.6v6.2L391.6,450.5L391.6,450.5z"/>
		<path class="st10" d="M398.5,448.6l1.6,0.3c-0.2,0.6-0.5,1.1-1,1.4s-1,0.5-1.7,0.5c-1.1,0-1.9-0.4-2.4-1.1
			c-0.4-0.6-0.6-1.3-0.6-2.1c0-1,0.3-1.8,0.8-2.4s1.2-0.9,2-0.9c0.9,0,1.7,0.3,2.2,0.9s0.8,1.5,0.8,2.8h-4.1c0,0.5,0.1,0.9,0.4,1.1
			s0.6,0.4,1,0.4c0.3,0,0.5-0.1,0.6-0.2S398.4,448.9,398.5,448.6z M398.6,446.9c0-0.5-0.1-0.8-0.4-1.1s-0.5-0.4-0.9-0.4
			s-0.7,0.1-0.9,0.4s-0.4,0.6-0.4,1.1H398.6L398.6,446.9z"/>
		<path class="st10" d="M400.8,444.3h1.8l1.5,4.4l1.5-4.4h1.7l-2.2,6l-0.4,1.1c-0.1,0.4-0.3,0.6-0.4,0.8s-0.3,0.4-0.5,0.5
			s-0.4,0.2-0.6,0.3s-0.5,0.1-0.8,0.1s-0.6,0-0.9-0.1l-0.1-1.3c0.3,0,0.5,0.1,0.7,0.1c0.4,0,0.7-0.1,0.9-0.3s0.3-0.5,0.4-0.9
			L400.8,444.3z"/>
	</g>
	<g>
		<path class="st10" d="M795.2,601.1v-8.6h2.6l1.6,5.9l1.5-5.9h2.6v8.6h-1.6v-6.8l-1.7,6.8h-1.7l-1.7-6.8v6.8H795.2z"/>
		<path class="st10" d="M806.5,596.8l-1.5-0.3c0.2-0.6,0.5-1,0.9-1.3s1-0.4,1.8-0.4c0.7,0,1.3,0.1,1.6,0.3s0.6,0.4,0.8,0.7
			s0.2,0.8,0.2,1.5v1.9c0,0.5,0,1,0.1,1.2s0.2,0.5,0.3,0.8H809c0-0.1-0.1-0.3-0.2-0.5c0-0.1,0-0.2-0.1-0.2c-0.3,0.3-0.6,0.5-0.9,0.6
			s-0.7,0.2-1,0.2c-0.6,0-1.2-0.2-1.5-0.5s-0.5-0.8-0.5-1.3c0-0.3,0.1-0.7,0.2-0.9s0.4-0.5,0.7-0.6s0.7-0.3,1.3-0.4
			c0.8-0.1,1.3-0.3,1.6-0.4V597c0-0.3-0.1-0.5-0.2-0.7s-0.5-0.2-0.9-0.2c-0.3,0-0.5,0.1-0.7,0.2S806.6,596.5,806.5,596.8z
			 M808.7,598.1c-0.2,0.1-0.5,0.2-1,0.2s-0.8,0.2-0.9,0.3c-0.2,0.2-0.3,0.3-0.3,0.6c0,0.2,0.1,0.4,0.3,0.6s0.4,0.2,0.7,0.2
			s0.6-0.1,0.8-0.3s0.3-0.3,0.4-0.5c0-0.1,0.1-0.4,0.1-0.8L808.7,598.1L808.7,598.1z"/>
		<path class="st10" d="M811.8,601.5l1.9,0.2c0,0.2,0.1,0.4,0.2,0.5c0.2,0.1,0.4,0.2,0.7,0.2c0.4,0,0.8-0.1,1-0.2
			c0.1-0.1,0.2-0.2,0.3-0.4c0-0.1,0.1-0.4,0.1-0.8v-0.9c-0.5,0.7-1.1,1-1.9,1c-0.8,0-1.5-0.3-2-1.1c-0.4-0.6-0.6-1.2-0.6-2.1
			c0-1,0.2-1.8,0.8-2.4s1.1-0.8,1.9-0.8c0.8,0,1.4,0.3,1.9,1v-0.9h1.5v5.6c0,0.7-0.1,1.3-0.2,1.7s-0.3,0.7-0.5,0.9s-0.5,0.4-0.9,0.5
			s-0.8,0.2-1.4,0.2c-1,0-1.8-0.2-2.2-0.5s-0.7-0.8-0.7-1.4C811.8,601.7,811.8,601.6,811.8,601.5z M813.2,597.8
			c0,0.7,0.1,1.1,0.4,1.5s0.6,0.5,1,0.5s0.7-0.2,1-0.5s0.4-0.8,0.4-1.4c0-0.6-0.1-1.1-0.4-1.4s-0.6-0.5-1-0.5s-0.7,0.2-1,0.5
			S813.2,597.2,813.2,597.8z"/>
		<path class="st10" d="M823.3,601.1v-0.9c-0.2,0.3-0.5,0.6-0.9,0.8s-0.8,0.3-1.2,0.3s-0.8-0.1-1.1-0.3s-0.6-0.4-0.7-0.8
			s-0.2-0.8-0.2-1.4v-3.9h1.7v2.9c0,0.9,0,1.4,0.1,1.6s0.2,0.3,0.3,0.5s0.4,0.2,0.6,0.2c0.3,0,0.5-0.1,0.8-0.2s0.4-0.3,0.5-0.6
			s0.1-0.8,0.1-1.7V595h1.7v6.2L823.3,601.1L823.3,601.1z"/>
		<path class="st10" d="M827.8,596.8l-1.5-0.3c0.2-0.6,0.5-1,0.9-1.3s1-0.4,1.8-0.4c0.7,0,1.3,0.1,1.6,0.3s0.6,0.4,0.8,0.7
			s0.2,0.8,0.2,1.5v1.9c0,0.5,0,1,0.1,1.2s0.2,0.5,0.3,0.8h-1.6c0-0.1-0.1-0.3-0.2-0.5c0-0.1,0-0.2-0.1-0.2
			c-0.3,0.3-0.6,0.5-0.9,0.6s-0.7,0.2-1,0.2c-0.6,0-1.2-0.2-1.5-0.5s-0.5-0.8-0.5-1.3c0-0.3,0.1-0.7,0.2-0.9s0.4-0.5,0.7-0.6
			s0.7-0.3,1.3-0.4c0.8-0.1,1.3-0.3,1.6-0.4V597c0-0.3-0.1-0.5-0.2-0.7s-0.5-0.2-0.9-0.2c-0.3,0-0.5,0.1-0.7,0.2
			S827.9,596.5,827.8,596.8z M830,598.1c-0.2,0.1-0.5,0.2-1,0.2s-0.8,0.2-0.9,0.3c-0.2,0.2-0.3,0.3-0.3,0.6c0,0.2,0.1,0.4,0.3,0.6
			s0.4,0.2,0.7,0.2s0.6-0.1,0.8-0.3s0.3-0.3,0.4-0.5c0-0.1,0.1-0.4,0.1-0.8L830,598.1L830,598.1z"/>
		<path class="st10" d="M838.9,601.1h-1.7v-3.2c0-0.7,0-1.1-0.1-1.3s-0.2-0.3-0.3-0.5s-0.3-0.2-0.6-0.2s-0.5,0.1-0.8,0.2
			c-0.2,0.2-0.4,0.4-0.5,0.6s-0.1,0.7-0.1,1.4v2.8h-1.7v-6.2h1.5v0.9c0.5-0.7,1.2-1,2-1c0.4,0,0.7,0.1,1,0.2s0.5,0.3,0.7,0.5
			s0.3,0.4,0.3,0.7s0.1,0.6,0.1,1.1L838.9,601.1L838.9,601.1z"/>
		<path class="st10" d="M841.8,596.8l-1.5-0.3c0.2-0.6,0.5-1,0.9-1.3s1-0.4,1.8-0.4c0.7,0,1.3,0.1,1.6,0.3s0.6,0.4,0.8,0.7
			s0.2,0.8,0.2,1.5v1.9c0,0.5,0,1,0.1,1.2s0.2,0.5,0.3,0.8h-1.6c0-0.1-0.1-0.3-0.2-0.5c0-0.1,0-0.2-0.1-0.2
			c-0.3,0.3-0.6,0.5-0.9,0.6s-0.7,0.2-1,0.2c-0.6,0-1.2-0.2-1.5-0.5s-0.5-0.8-0.5-1.3c0-0.3,0.1-0.7,0.2-0.9s0.4-0.5,0.7-0.6
			s0.7-0.3,1.3-0.4c0.8-0.1,1.3-0.3,1.6-0.4V597c0-0.3-0.1-0.5-0.2-0.7s-0.5-0.2-0.9-0.2c-0.3,0-0.5,0.1-0.7,0.2
			S841.9,596.5,841.8,596.8z M844,598.1c-0.2,0.1-0.5,0.2-1,0.2s-0.8,0.2-0.9,0.3c-0.2,0.2-0.3,0.3-0.3,0.6c0,0.2,0.1,0.4,0.3,0.6
			s0.4,0.2,0.7,0.2s0.6-0.1,0.8-0.3s0.3-0.3,0.4-0.5c0-0.1,0.1-0.4,0.1-0.8L844,598.1L844,598.1z"/>
	</g>
</g>
<g id="icons">
	<g>
		
			<ellipse transform="matrix(0.5957 -0.8032 0.8032 0.5957 121.372 472.2126)" class="st30" cx="529.7" cy="115.5" rx="20.6" ry="20.6"/>
		<g>
			<path class="st31" d="M505.2,151.5v-8.2h3.6c0.6,0,1.1,0.1,1.7,0.2c0.4,0.1,0.7,0.4,0.9,0.8c0.2,0.4,0.4,0.8,0.3,1.2
				c0,0.6-0.2,1.1-0.6,1.5c-0.1-0.5-0.6-0.9-1.2-0.7c-0.5,0.1-0.9,0.6-0.7,1.2c0.1,0.4,0.4,0.7,0.8,0.8c0.3,0.3,0.6,0.7,0.9,1.1
				l1.4,2.2h-1.4l-1.1-1.7c-0.3-0.5-0.6-0.9-0.8-1.1c-0.1-0.2-0.3-0.4-0.5-0.5c-0.1-0.1-0.3-0.2-0.5-0.2s-0.4-0.1-0.6,0h-1.3v3.6
				L505.2,151.5z M506.3,146.9h2.3c0.4,0,0.8,0,1.2-0.1c0.3-0.1,0.5-0.3,0.6-0.5s0.2-0.5,0.2-0.7c0-0.4-0.1-0.7-0.4-0.9
				c-0.4-0.3-0.9-0.4-1.3-0.4h-2.6L506.3,146.9z"/>
			<path class="st31" d="M517.4,149.6l1,0.1c-0.1,0.6-0.5,1.1-0.9,1.4c-1.2,0.8-2.7,0.6-3.8-0.3c-0.5-0.6-0.8-1.4-0.8-2.2
				c0-0.9,0.2-1.7,0.8-2.3c0.5-0.6,1.2-0.9,2-0.8c0.7,0,1.5,0.3,2,0.8c0.5,0.6,0.8,1.5,0.8,2.3c0,0.1,0,0.1,0,0.3H514
				c0,0.6,0.2,1.1,0.5,1.5c0.3,0.3,0.8,0.5,1.2,0.5c0.3,0,0.7-0.1,1-0.3C517.1,150.3,517.3,150,517.4,149.6z M514.1,148h3.3
				c0-0.4-0.1-0.8-0.4-1.1c-0.3-0.4-0.8-0.6-1.2-0.6s-0.8,0.1-1.2,0.5C514.3,147.1,514.1,147.5,514.1,148L514.1,148z"/>
			<path class="st31" d="M523.5,149.3l1,0.1c-0.1,0.6-0.4,1.2-0.8,1.6c-0.5,0.4-1,0.6-1.6,0.6c-0.7,0-1.5-0.3-2-0.8
				c-0.5-0.6-0.8-1.5-0.7-2.3c0-0.6,0.1-1.1,0.3-1.7c0.2-0.5,0.5-0.8,1-1.1c0.4-0.2,0.9-0.4,1.4-0.4c0.6,0,1.1,0.1,1.6,0.5
				c0.4,0.4,0.7,0.8,0.8,1.4l-1,0.1c-0.1-0.4-0.2-0.7-0.5-0.9c-0.2-0.2-0.5-0.3-0.9-0.3c-0.5,0-0.9,0.2-1.2,0.5
				c-0.4,0.5-0.5,1.1-0.5,1.7c0,0.6,0.1,1.2,0.5,1.7c0.3,0.4,0.7,0.6,1.2,0.5c0.4,0,0.7-0.1,1-0.4
				C523.3,150.1,523.5,149.8,523.5,149.3z"/>
			<path class="st31" d="M529.5,149.6l1,0.1c-0.1,0.6-0.5,1.1-0.9,1.4c-1.2,0.8-2.7,0.6-3.8-0.3c-0.5-0.6-0.8-1.4-0.8-2.2
				c0-0.9,0.2-1.7,0.8-2.3c0.5-0.6,1.2-0.9,2-0.8c0.7,0,1.5,0.3,2,0.8c0.5,0.6,0.8,1.5,0.8,2.3c0,0.1,0,0.1,0,0.3h-4.4
				c0,0.6,0.2,1.1,0.5,1.5c0.3,0.3,0.8,0.5,1.2,0.5c0.3,0,0.7-0.1,1-0.3C529.1,150.3,529.4,150,529.5,149.6z M526.2,148h3.3
				c0-0.4-0.1-0.8-0.4-1.1c-0.3-0.4-0.8-0.6-1.2-0.6s-0.8,0.1-1.2,0.5C526.4,147.1,526.2,147.5,526.2,148L526.2,148z"/>
			<path class="st31" d="M531.8,153.8v-8.2h0.9v0.8c0.2-0.3,0.4-0.5,0.7-0.7s0.7-0.2,1-0.2c0.5,0,0.9,0.1,1.3,0.4
				c0.4,0.3,0.7,0.7,0.9,1.1c0.2,0.5,0.3,1,0.3,1.6s-0.1,1.1-0.3,1.6c-0.4,0.9-1.3,1.5-2.3,1.5c-0.3,0-0.6-0.1-0.9-0.2
				c-0.2-0.1-0.5-0.3-0.7-0.5v2.9L531.8,153.8z M532.7,148.6c0,0.6,0.1,1.2,0.5,1.7c0.3,0.4,0.7,0.6,1.1,0.6c0.5,0,0.9-0.2,1.1-0.6
				c0.4-0.5,0.5-1.1,0.5-1.8c0-0.6-0.1-1.2-0.5-1.7c-0.3-0.4-0.7-0.6-1.1-0.6c-0.5,0-0.9,0.2-1.1,0.6
				C532.8,147.3,532.6,147.9,532.7,148.6L532.7,148.6z"/>
			<path class="st31" d="M540.3,150.6l0.1,0.9c-0.2,0.1-0.5,0.1-0.8,0.1s-0.6,0-0.8-0.2c-0.2-0.1-0.3-0.3-0.4-0.5
				c-0.1-0.4-0.2-0.8-0.1-1.2v-3.4h-0.7v-0.8h0.7V144l1-0.6v2.1h1v0.8h-1v3.5c0,0.2,0,0.4,0,0.6c0,0.1,0.1,0.1,0.2,0.2
				c0.1,0.1,0.2,0.1,0.3,0.1C540,150.6,540.2,150.6,540.3,150.6z"/>
			<path class="st31" d="M541.3,144.5v-1.1h1v1.1H541.3z M541.3,151.5v-5.9h1v5.9H541.3z"/>
			<path class="st31" d="M543.5,148.5c-0.1-0.9,0.3-1.8,0.9-2.4c0.5-0.4,1.2-0.7,1.9-0.7c0.8,0,1.5,0.3,2,0.8
				c0.5,0.6,0.8,1.4,0.8,2.2c0,0.6-0.1,1.2-0.3,1.8c-0.2,0.4-0.6,0.8-1,1s-0.9,0.4-1.4,0.4c-0.8,0-1.5-0.3-2-0.8
				C543.7,150.2,543.4,149.4,543.5,148.5z M544.5,148.5c0,0.6,0.1,1.2,0.5,1.7c0.6,0.7,1.7,0.8,2.3,0.2c0.1-0.1,0.1-0.1,0.2-0.2
				c0.4-0.5,0.5-1.1,0.5-1.7c0-0.6-0.1-1.2-0.5-1.7c-0.6-0.7-1.7-0.8-2.3-0.1c0,0.1-0.1,0.1-0.2,0.1
				C544.7,147.3,544.5,147.9,544.5,148.5L544.5,148.5z"/>
			<path class="st31" d="M550.2,151.5v-5.9h0.9v0.8c0.4-0.6,1.1-1,1.9-1c0.3,0,0.7,0.1,1,0.2c0.3,0.1,0.5,0.3,0.7,0.5
				s0.3,0.5,0.3,0.7c0,0.3,0.1,0.6,0,1v3.6h-1v-3.6c0-0.3,0-0.6-0.1-0.9c-0.1-0.2-0.2-0.4-0.4-0.5s-0.5-0.2-0.7-0.2
				c-0.4,0-0.8,0.1-1.1,0.4c-0.4,0.4-0.5,1-0.5,1.6v3.2L550.2,151.5z"/>
		</g>
		<g id="Outline_Icons">
			<path class="st32" d="M529.1,110.4v1.6l-3.4,1c-0.7,0.2-1.1,0.8-1.1,1.5v0.5"/>
			<path class="st32" d="M532.1,110.4v1.6l3.4,1c0.7,0.2,1.1,0.8,1.1,1.5v0.5"/>
			<ellipse class="st32" cx="530.6" cy="107.5" rx="2.9" ry="3.4"/>
			<path class="st32" d="M533.4,107.2c-0.1,0-0.2,0-0.3,0c-0.9,0.2-1.8-0.2-2.2-1.1c-0.5,0.7-1.3,1.1-2.2,1.1
				c-0.4,0-0.8-0.1-1.1-0.3"/>
			<rect x="518.6" y="115" class="st32" width="22.9" height="8"/>
			<line class="st32" x1="521.6" y1="122.9" x2="521.6" y2="126.9"/>
			<line class="st32" x1="538.5" y1="122.9" x2="538.5" y2="126.9"/>
		</g>
	</g>
	<g>
		<circle class="st30" cx="967.2" cy="477.1" r="18.6"/>
		<path class="st31" d="M958.1,506.4l1,0.2c-0.1,0.7-0.5,1.3-1.1,1.8c-1.2,0.8-2.7,0.8-3.9,0.1c-0.5-0.3-0.9-0.8-1.1-1.4
			c-0.5-1.3-0.5-2.7,0-4c0.3-0.6,0.7-1,1.3-1.3c0.5-0.3,1.2-0.5,1.8-0.4c0.7,0,1.3,0.2,1.9,0.6c0.5,0.4,0.9,1,1.1,1.6l-1,0.2
			c-0.1-0.5-0.4-0.9-0.7-1.2c-0.3-0.3-0.8-0.4-1.2-0.4c-0.5,0-1,0.1-1.4,0.4s-0.7,0.7-0.8,1.1c-0.2,0.4-0.2,0.9-0.2,1.4
			s0.1,1.1,0.3,1.6c0.2,0.4,0.5,0.8,0.9,1.1s0.8,0.4,1.3,0.3c0.5,0,1-0.2,1.4-0.5C957.9,507.1,958,506.8,958.1,506.4z"/>
		<path class="st31" d="M959.8,506.4c-0.1-0.8,0.2-1.6,0.8-2.2c0.5-0.4,1.1-0.6,1.7-0.6c0.7,0,1.3,0.2,1.8,0.7
			c0.5,0.6,0.7,1.3,0.7,2c0,0.5-0.1,1.1-0.3,1.6c-0.2,0.4-0.5,0.7-0.9,0.9s-0.8,0.3-1.3,0.3c-0.7,0-1.3-0.2-1.8-0.7
			C960,507.8,959.8,507,959.8,506.4z M960.8,506.4c0,0.5,0.1,1.1,0.4,1.5c0.5,0.6,1.4,0.7,2,0.2c0,0,0,0,0.1,0l0.1-0.1
			c0.3-0.5,0.5-1,0.4-1.6c0-0.5-0.1-1.1-0.5-1.5c-0.5-0.6-1.4-0.7-2-0.2c0,0,0,0-0.1,0l-0.1,0.1
			C960.8,505.2,960.7,505.8,960.8,506.4z"/>
		<path class="st31" d="M966.1,509v-4.7h-0.8v-0.7h0.8V503c0-0.3,0-0.5,0.1-0.8c0.1-0.2,0.3-0.5,0.5-0.6c0.3-0.2,0.6-0.2,0.9-0.2
			s0.5,0,0.8,0.1l-0.1,0.8h-0.5c-0.2,0-0.4,0-0.6,0.2c-0.1,0.2-0.2,0.5-0.2,0.7v0.5h1v0.7h-1v4.7L966.1,509z"/>
		<path class="st31" d="M968.8,509v-4.7H968v-0.7h0.8V503c0-0.3,0-0.5,0.1-0.8c0.1-0.2,0.3-0.4,0.5-0.6c0.3-0.2,0.6-0.2,0.9-0.2
			s0.5,0,0.8,0.1l-0.1,0.8h-0.5c-0.2,0-0.4,0-0.6,0.2c-0.1,0.2-0.2,0.5-0.2,0.7v0.5h1v0.7h-1v4.7L968.8,509z"/>
		<path class="st31" d="M975.1,507.2l0.9,0.1c-0.1,0.5-0.4,1-0.8,1.3c-1.1,0.7-2.5,0.6-3.4-0.3c-0.5-0.6-0.7-1.3-0.7-2
			c0-0.8,0.2-1.5,0.7-2.1c0.4-0.5,1.1-0.8,1.8-0.7c0.7,0,1.3,0.2,1.8,0.7c0.5,0.6,0.7,1.3,0.7,2.1v0.2h-4c0,0.5,0.2,1,0.5,1.4
			c0.5,0.6,1.4,0.7,2,0.2C974.8,507.9,975,507.5,975.1,507.2z M972.2,505.8h3c0-0.4-0.1-0.7-0.3-1c-0.3-0.3-0.7-0.5-1.1-0.5
			s-0.8,0.1-1.1,0.4C972.4,505,972.2,505.4,972.2,505.8z"/>
		<path class="st31" d="M980.9,507.2l0.9,0.1c-0.1,0.5-0.4,1-0.8,1.3c-1.1,0.7-2.5,0.6-3.4-0.3c-0.5-0.6-0.7-1.3-0.7-2
			c0-0.8,0.2-1.5,0.7-2.1c0.4-0.5,1.1-0.8,1.8-0.7c0.7,0,1.3,0.2,1.8,0.7c0.5,0.6,0.7,1.3,0.7,2.1v0.2h-4c0,0.5,0.2,1,0.5,1.4
			c0.5,0.6,1.4,0.7,2,0.2C980.6,507.9,980.8,507.5,980.9,507.2z M977.9,505.8h3c0-0.4-0.1-0.7-0.3-1c-0.3-0.3-0.7-0.5-1.1-0.5
			s-0.8,0.1-1.1,0.4C978.1,505,977.9,505.4,977.9,505.8z"/>
		<path class="st33" d="M974.4,475.5c1.3-0.2,2.5,0.7,2.7,2l0,0l0,0v0.6c0,3-3.8,3.1-3.8,3.1"/>
		<path class="st33" d="M969.6,467.1c0.5,0.5,0.5,1.3,0.1,1.9l0,0c-0.4,0.6-0.4,1.3,0,1.9"/>
		<path class="st33" d="M966.3,467.1c0.5,0.5,0.5,1.3,0.1,1.9l0,0c-0.4,0.6-0.4,1.3,0,1.9"/>
		<path class="st33" d="M963,467.1c0.5,0.5,0.5,1.3,0.1,1.9l0,0c-0.4,0.6-0.4,1.3,0,1.9"/>
		<path class="st33" d="M970.7,486.1h-7.6c-1.8,0-3.5-0.6-4.9-1.7h17.5C974.2,485.5,972.5,486,970.7,486.1z"/>
		<path class="st33" d="M970.1,484c1.6-1,2.7-2.6,3-4.5l0.9-5.5h-14.6l0.9,5.5c0.4,1.8,1.5,3.4,3,4.5"/>
	</g>
	<circle class="st30" cx="590.3" cy="325.2" r="24.4"/>
	<g id="Outline_Icons-5-3">
		<path class="st34" d="M599,325.8c0,0.3-0.3,0.8-0.6,0.8h-4.9v-10c0-1.1,0.8-1.8,1.8-1.8c0,0,0,0,0.2,0h1.8c1.1,0,1.8,0.8,1.8,1.8
			c0,0,0,0,0,0.1l0,0L599,325.8L599,325.8z"/>
		<path class="st34" d="M586.3,335.8h9.2v-5.4l2.8-1.8v-1.8h-15.8c-0.2,2.3,1.5,4.5,4,4.6h0.2h0.3L586.3,335.8z"/>
		<rect x="581.7" y="325.1" class="st34" width="12" height="1.8"/>
		<circle class="st34" cx="596.9" cy="318" r="0.8"/>
	</g>
	<g>
		<path class="st31" d="M562.5,368v-9.7h4.3c0.6,0,1.4,0,2,0.3c0.5,0.1,0.8,0.5,1.1,0.9c0.3,0.5,0.5,0.9,0.5,1.5s-0.2,1.2-0.6,1.7
			c-0.6,0.5-1.2,0.9-2,0.9c0.3,0.1,0.6,0.3,0.8,0.5c0.5,0.5,0.8,0.8,1.1,1.2l1.7,2.6h-1.7l-1.2-2c-0.3-0.6-0.6-1.1-0.9-1.4
			c-0.2-0.3-0.5-0.5-0.6-0.6c-0.2-0.1-0.3-0.1-0.6-0.3c-0.3,0-0.5,0-0.8,0h-1.5v4.3L562.5,368L562.5,368z M563.8,362.6h2.8
			c0.5,0,0.9,0,1.4-0.1c0.3-0.1,0.6-0.3,0.8-0.6c0.2-0.3,0.3-0.6,0.3-0.9c0-0.5-0.2-0.9-0.5-1.1c-0.5-0.3-1.1-0.5-1.5-0.5H564
			L563.8,362.6z"/>
		<path class="st31" d="M577,365.7l1.2,0.1c-0.2,0.6-0.5,1.2-1.1,1.7c-1.4,0.9-3.2,0.8-4.5-0.3c-0.6-0.8-0.9-1.7-0.9-2.6
			c0-1.1,0.3-2,0.9-2.8c0.6-0.6,1.5-1.1,2.3-0.9c0.9,0,1.7,0.3,2.3,0.9c0.6,0.8,0.9,1.7,0.9,2.8c0,0,0,0.1,0,0.3H573
			c0,0.6,0.3,1.2,0.6,1.8c0.3,0.5,0.9,0.6,1.5,0.6c0.5,0,0.8-0.1,1.1-0.3C576.5,366.5,576.8,366.2,577,365.7z M573,363.9h4
			c0-0.5-0.2-0.9-0.5-1.4s-0.9-0.8-1.5-0.8c-0.5,0-1.1,0.1-1.4,0.6C573.3,362.8,573,363.2,573,363.9L573,363.9z"/>
		<path class="st31" d="M579.2,365.9l1.2-0.1c0,0.5,0.3,0.8,0.6,1.1c0.3,0.3,0.8,0.5,1.2,0.3c0.5,0,0.9-0.1,1.2-0.3
			c0.3-0.1,0.5-0.5,0.5-0.8s-0.2-0.5-0.3-0.6c-0.5-0.1-0.8-0.3-1.2-0.5c-0.6-0.1-1.2-0.3-1.8-0.6c-0.6-0.3-1.1-0.9-1.1-1.7
			c0-0.3,0-0.6,0.2-0.9s0.3-0.5,0.6-0.6s0.5-0.3,0.8-0.3c0.3-0.1,0.6-0.1,1.1-0.1s0.9,0,1.4,0.3c0.3,0.1,0.6,0.3,0.9,0.6
			c0.2,0.3,0.3,0.8,0.5,1.1l-1.2,0.1c0-0.3-0.2-0.6-0.5-0.9c-0.3-0.1-0.8-0.3-1.1-0.3c-0.5,0-0.8,0-1.2,0.3
			c-0.2,0.1-0.3,0.3-0.3,0.6c0,0.1,0,0.3,0.2,0.5s0.3,0.3,0.5,0.3s0.5,0.1,1.1,0.3c0.6,0.1,1.2,0.3,1.8,0.6c0.3,0.1,0.6,0.3,0.8,0.6
			c0.2,0.3,0.3,0.6,0.3,1.1s-0.2,0.8-0.3,1.1c-0.3,0.3-0.6,0.6-1.1,0.8c-0.5,0.1-0.9,0.3-1.5,0.3c-0.8,0-1.5-0.1-2.2-0.6
			C579.6,367.1,579.2,366.6,579.2,365.9z"/>
		<path class="st31" d="M589.1,366.9l0.2,1.1c-0.3,0-0.6,0.1-0.9,0.1s-0.8,0-1.1-0.1c-0.2-0.1-0.5-0.3-0.5-0.6
			c-0.2-0.5-0.2-0.9-0.2-1.4v-4h-0.9v-0.9h0.9v-1.7l1.2-0.8v2.5h1.2v0.9h-1.2v4.1c0,0.1,0,0.5,0,0.6s0.2,0.1,0.2,0.3
			c0.2,0,0.3,0.1,0.5,0.1C588.8,366.9,588.9,366.9,589.1,366.9z"/>
		<path class="st31" d="M590.1,368v-7h1.1v1.1c0.2-0.3,0.5-0.8,0.8-0.9c0.2-0.1,0.5-0.3,0.8-0.3c0.5,0,0.9,0.1,1.2,0.3l-0.5,1.1
			c-0.3-0.1-0.6-0.3-0.9-0.3s-0.5,0.1-0.8,0.3c-0.2,0.1-0.3,0.5-0.5,0.6c-0.2,0.5-0.2,0.9-0.2,1.4v3.7L590.1,368L590.1,368
			L590.1,368z"/>
		<path class="st31" d="M594.3,364.5c-0.2-1.1,0.3-2.1,1.1-2.9c0.6-0.5,1.4-0.8,2.2-0.8c0.9,0,1.7,0.3,2.3,0.9
			c0.6,0.8,0.9,1.7,0.9,2.6c0,0.8-0.2,1.5-0.5,2.1c-0.3,0.5-0.6,0.9-1.2,1.2c-0.5,0.3-1.1,0.5-1.7,0.5c-0.9,0-1.7-0.3-2.5-0.9
			C594.6,366.5,594.3,365.4,594.3,364.5z M595.5,364.5c0,0.8,0.2,1.4,0.6,2c0.8,0.8,2,0.9,2.8,0.1l0.2-0.1c0.5-0.6,0.6-1.4,0.6-2
			c0-0.8-0.2-1.4-0.6-2c-0.8-0.8-2-0.9-2.8-0.1l-0.2,0.1C595.7,363.1,595.5,363.7,595.5,364.5L595.5,364.5z"/>
		<path class="st31" d="M601.8,364.5c-0.2-1.1,0.3-2.1,1.1-2.9c0.6-0.5,1.4-0.8,2.2-0.8c0.9,0,1.7,0.3,2.3,0.9
			c0.6,0.8,0.9,1.7,0.9,2.6c0,0.8-0.2,1.5-0.5,2.1c-0.3,0.5-0.6,0.9-1.2,1.2c-0.5,0.3-1.1,0.5-1.7,0.5c-0.9,0-1.7-0.3-2.5-0.9
			C602.1,366.5,601.8,365.4,601.8,364.5z M603,364.5c0,0.8,0.2,1.4,0.6,2c0.8,0.8,2,0.9,2.8,0.1l0.2-0.1c0.5-0.6,0.6-1.4,0.6-2
			c0-0.8-0.2-1.4-0.6-2c-0.8-0.8-2-0.9-2.8-0.1l-0.2,0.1C603.2,363.1,603,363.7,603,364.5L603,364.5z"/>
		<path class="st31" d="M609.8,368v-7h1.1v0.9c0.2-0.3,0.5-0.6,0.9-0.8c0.3-0.1,0.8-0.3,1.2-0.3c0.5,0,0.9,0.1,1.2,0.3
			c0.3,0.1,0.6,0.5,0.8,0.9c0.5-0.8,1.2-1.2,2.2-1.2c0.6,0,1.2,0.1,1.7,0.6s0.6,1.1,0.6,1.8v4.8h-1.2v-4.5c0-0.3,0-0.8-0.2-1.1
			c-0.2-0.1-0.2-0.5-0.5-0.5c-0.2-0.1-0.5-0.1-0.8-0.1c-0.5,0-0.9,0.1-1.2,0.5c-0.3,0.5-0.6,1.1-0.5,1.5v4.1h-1.2v-4.6
			c0-0.5,0-0.8-0.3-1.2c-0.3-0.3-0.6-0.5-0.9-0.5s-0.6,0.1-0.9,0.3c-0.3,0.1-0.5,0.5-0.6,0.8c-0.2,0.5-0.2,0.9-0.2,1.5v3.7
			L609.8,368z"/>
	</g>
	<circle class="st30" cx="717.2" cy="472.9" r="21.8"/>
	<g>
		<path class="st31" d="M697.3,511v-8.6h1.1v7.7h4.2v1h-5.3V511z"/>
		<path class="st31" d="M703.6,507.9c-0.1-1,0.3-1.9,1-2.6c0.5-0.4,1.2-0.7,1.9-0.7c0.8,0,1.5,0.3,2.1,0.8c0.5,0.7,0.8,1.5,0.8,2.3
			c0,0.7-0.1,1.4-0.4,1.9c-0.3,0.4-0.5,0.8-1.1,1.1c-0.4,0.3-1,0.4-1.5,0.4c-0.8,0-1.5-0.3-2.2-0.8
			C703.8,509.7,703.5,508.9,703.6,507.9z M704.7,507.9c0,0.7,0.1,1.2,0.5,1.8c0.7,0.7,1.8,0.8,2.5,0.1l0.1-0.1
			c0.4-0.5,0.5-1.2,0.5-1.8c0-0.7-0.1-1.2-0.5-1.8c-0.7-0.7-1.8-0.8-2.5-0.1l-0.1,0.1C704.9,506.7,704.6,507.2,704.7,507.9z"/>
		<path class="st31" d="M714.9,508.7l1.1,0.1c-0.1,0.7-0.4,1.2-0.8,1.7c-0.5,0.4-1.1,0.7-1.8,0.5c-0.8,0-1.5-0.3-2.1-0.8
			c-0.5-0.7-0.8-1.5-0.8-2.5c0-0.5,0.1-1.2,0.3-1.8c0.1-0.5,0.5-0.8,1.1-1.1c0.4-0.3,1-0.4,1.5-0.4s1.2,0.1,1.7,0.5s0.7,1,0.8,1.5
			l-1.1,0.1c0-0.4-0.3-0.7-0.5-1s-0.5-0.3-1-0.3s-1,0.1-1.4,0.5c-0.4,0.5-0.5,1.2-0.5,1.8c0,0.7,0.1,1.4,0.5,1.8
			c0.3,0.4,0.8,0.5,1.2,0.5s0.8-0.1,1.1-0.4C714.6,509.7,714.7,509.1,714.9,508.7z"/>
		<path class="st31" d="M716.8,511v-8.6h1.1v4.9l2.5-2.6h1.4l-2.5,2.3l2.6,4h-1.4l-2.1-3.1l-0.7,0.7v2.5L716.8,511L716.8,511z"/>
		<path class="st31" d="M727.1,509l1.1,0.1c-0.1,0.5-0.4,1.1-1,1.5c-1.2,0.8-2.9,0.7-4-0.3c-0.5-0.7-0.8-1.5-0.8-2.3
			c0-1,0.3-1.8,0.8-2.5c0.5-0.5,1.4-1,2.1-0.8c0.8,0,1.5,0.3,2.1,0.8c0.5,0.7,0.8,1.5,0.8,2.5c0,0,0,0.1,0,0.3h-4.7
			c0,0.5,0.3,1.1,0.5,1.7c0.3,0.4,0.8,0.5,1.4,0.5c0.4,0,0.7-0.1,1-0.3C726.8,509.8,727.1,509.4,727.1,509z M723.6,507.3h3.6
			c0-0.4-0.1-0.8-0.4-1.2s-0.8-0.7-1.4-0.7c-0.4,0-1,0.1-1.2,0.5C723.9,506.4,723.6,506.8,723.6,507.3L723.6,507.3z"/>
		<path class="st31" d="M729.5,511v-6.3h1v1c0.1-0.3,0.4-0.7,0.7-0.8c0.1-0.1,0.4-0.3,0.7-0.3c0.4,0,0.8,0.1,1.1,0.3l-0.4,1
			c-0.3-0.1-0.5-0.3-0.8-0.3s-0.4,0.1-0.7,0.3c-0.1,0.1-0.3,0.4-0.4,0.5c-0.1,0.4-0.1,0.8-0.1,1.2v3.3L729.5,511z"/>
		<path class="st31" d="M733.2,509.1l1.1-0.1c0,0.4,0.3,0.7,0.5,1c0.3,0.3,0.7,0.4,1.1,0.3c0.4,0,0.8-0.1,1.1-0.3
			c0.3-0.1,0.4-0.4,0.4-0.7c0-0.3-0.1-0.4-0.3-0.5c-0.4-0.1-0.7-0.3-1.1-0.4c-0.5-0.1-1.1-0.3-1.7-0.5c-0.5-0.3-1-0.8-1-1.5
			c0-0.3,0-0.5,0.1-0.8s0.3-0.4,0.5-0.5c0.3-0.1,0.4-0.3,0.7-0.3c0.3-0.1,0.5-0.1,1-0.1s0.8,0,1.2,0.3c0.3,0.1,0.5,0.3,0.8,0.5
			c0.1,0.3,0.3,0.7,0.4,1l-1.1,0.1c0-0.3-0.1-0.5-0.4-0.8c-0.3-0.1-0.7-0.3-1-0.3c-0.4,0-0.7,0-1.1,0.3c-0.1,0.1-0.3,0.3-0.3,0.5
			c0,0.1,0,0.3,0.1,0.4s0.3,0.3,0.4,0.3s0.4,0.1,1,0.3s1.1,0.3,1.7,0.5c0.3,0.1,0.5,0.3,0.7,0.5c0.1,0.3,0.3,0.5,0.3,1
			c0,0.4-0.1,0.7-0.3,1c-0.3,0.3-0.5,0.5-1,0.7s-0.8,0.3-1.4,0.3c-0.7,0-1.4-0.1-1.9-0.5C733.5,510.4,733.2,509.8,733.2,509.1z"/>
	</g>
	<rect x="710.6" y="471.3" class="st34" width="14.3" height="9.7"/>
	<path class="st34" d="M715.4,468.8v-2.3c0-1.4,1.1-2.5,2.3-2.5c1.4,0,2.5,1.1,2.5,2.3v0.1v0.3l0,0v4.8"/>
	<circle class="st34" cx="717.9" cy="475" r="1.2"/>
	<line class="st34" x1="717.9" y1="477.3" x2="717.9" y2="476.1"/>
</g>
<g id="outline">
	<polygon class="st35" points="602.6,73.3 602.6,29.4 39.9,29.4 39.9,715.9 692.5,715.9 692.5,684.5 1113.4,684.5 1113.4,484.3 
		1046.5,484.3 1046.5,409.1 682.5,409.1 682.5,280 602.3,280 	"/>
	<polyline class="st36" points="195.8,259.3 195.8,29.4 401.1,29.4 401.1,214.8 251.7,214.8 	"/>
	<line class="st36" x1="214.4" y1="214.8" x2="195.8" y2="214.8"/>
	<polyline class="st36" points="39.9,302.2 207.2,302.2 195.8,302.2 195.8,296.5 195.8,394.7 	"/>
	<polyline class="st36" points="39.9,439.2 195.8,439.2 195.8,430.9 195.8,529.2 	"/>
	<polyline class="st36" points="39.9,574.7 195.8,574.7 195.8,567.4 195.8,667.7 	"/>
	<line class="st36" x1="195.8" y1="704.4" x2="195.8" y2="715.9"/>
	<polyline class="st36" points="756.3,504.3 747,504.3 747,684.5 891.2,684.5 891.2,494 891.2,503.3 786.8,503.3 	"/>
	<polyline class="st36" points="891.2,456.2 891.2,409.1 489,409.1 489,325.4 489,333.7 478.1,333.7 495.2,333.7 	"/>
	<polyline class="st36" points="489.5,288.2 489.5,244.8 602.4,244.8 	"/>
	<polyline class="st36" points="440.9,334.8 401.1,334.8 401.1,372.7 401.1,279.9 254.2,279.9 254.2,301.7 244.9,301.7 	"/>
	<polyline class="st36" points="322,279.9 322,415.4 431.1,415.4 250.6,415.4 250.6,398.3 	"/>
	<polyline class="st36" points="250.6,363.7 250.6,347.7 250.6,355.7 322,355.7 	"/>
	<polyline class="st36" points="340.9,415.4 340.9,474.4 251.3,474.4 431.1,474.4 431.1,461.4 	"/>
	<line class="st36" x1="250.6" y1="415.4" x2="250.6" y2="423.8"/>
	<path class="st36" d="M251.3,474.4V454V474.4z"/>
	<polyline class="st36" points="261.3,474.4 251.3,474.4 251.3,464.1 	"/>
	<path class="st36" d="M431.1,415.4v12.1V415.4z"/>
	<polyline class="st36" points="421.8,415.4 431.1,415.4 431.1,418.3 	"/>
	<polyline class="st36" points="535.2,470.5 682.5,471.6 682.5,406.7 	"/>
	<polyline class="st36" points="489,409.1 489,470.9 503.4,470.9 	"/>
</g>
<g>
	<path class="st10" d="M548.8,444.4l-1.7-7.2h1.5l1.1,4.9l1.3-4.9h1.7l1.3,5l1.1-5h1.5l-1.7,7.2h-1.5L552,439l-1.4,5.4H548.8z"/>
	<path class="st10" d="M560.1,442.8l1.4,0.2c-0.2,0.5-0.5,0.9-0.8,1.1c-0.4,0.3-0.9,0.4-1.4,0.4c-0.9,0-1.6-0.3-2-0.9
		c-0.3-0.5-0.5-1.1-0.5-1.8c0-0.9,0.2-1.5,0.7-2c0.4-0.5,1-0.7,1.7-0.7c0.8,0,1.4,0.3,1.8,0.8s0.7,1.3,0.6,2.3h-3.4
		c0,0.4,0.1,0.7,0.3,1c0.2,0.2,0.5,0.3,0.8,0.3c0.2,0,0.4-0.1,0.5-0.2S560,443,560.1,442.8z M560.1,441.4c0-0.4-0.1-0.7-0.3-0.9
		c-0.2-0.2-0.4-0.3-0.7-0.3s-0.5,0.1-0.7,0.3c-0.2,0.2-0.3,0.5-0.3,0.9H560.1z"/>
	<path class="st10" d="M562.6,444.4v-7.2h1.4v7.2H562.6z"/>
	<path class="st10" d="M565.4,444.4v-7.2h1.4v7.2H565.4z"/>
	<path class="st10" d="M572.9,444.4h-1.4v-2.6c0-0.6,0-0.9-0.1-1.1s-0.2-0.3-0.3-0.4s-0.3-0.1-0.5-0.1s-0.5,0.1-0.6,0.2
		c-0.2,0.1-0.3,0.3-0.4,0.5c-0.1,0.2-0.1,0.6-0.1,1.2v2.3h-1.4v-5.2h1.3v0.8c0.5-0.6,1-0.9,1.7-0.9c0.3,0,0.6,0.1,0.8,0.2
		c0.3,0.1,0.4,0.2,0.6,0.4c0.1,0.2,0.2,0.4,0.3,0.6s0.1,0.5,0.1,0.9L572.9,444.4L572.9,444.4z"/>
	<path class="st10" d="M577.3,442.8l1.4,0.2c-0.2,0.5-0.5,0.9-0.8,1.1c-0.4,0.3-0.9,0.4-1.4,0.4c-0.9,0-1.6-0.3-2-0.9
		c-0.3-0.5-0.5-1.1-0.5-1.8c0-0.9,0.2-1.5,0.7-2c0.4-0.5,1-0.7,1.7-0.7c0.8,0,1.4,0.3,1.8,0.8c0.4,0.5,0.7,1.3,0.6,2.3h-3.4
		c0,0.4,0.1,0.7,0.3,1c0.2,0.2,0.5,0.3,0.8,0.3c0.2,0,0.4-0.1,0.5-0.2S577.2,443,577.3,442.8z M577.4,441.4c0-0.4-0.1-0.7-0.3-0.9
		c-0.2-0.2-0.4-0.3-0.7-0.3s-0.5,0.1-0.7,0.3c-0.2,0.2-0.3,0.5-0.3,0.9H577.4z"/>
	<path class="st10" d="M579.4,442.9l1.4-0.2c0.1,0.3,0.2,0.5,0.4,0.6s0.4,0.2,0.8,0.2c0.4,0,0.6-0.1,0.8-0.2
		c0.1-0.1,0.2-0.2,0.2-0.4c0-0.1,0-0.2-0.1-0.3c-0.1-0.1-0.2-0.1-0.5-0.2c-1.1-0.2-1.8-0.5-2.1-0.7c-0.4-0.3-0.6-0.7-0.6-1.2
		c0-0.4,0.2-0.8,0.5-1.1c0.4-0.3,0.9-0.5,1.7-0.5c0.7,0,1.2,0.1,1.6,0.3c0.3,0.2,0.6,0.6,0.7,1l-1.3,0.2c-0.1-0.2-0.2-0.4-0.3-0.5
		c-0.2-0.1-0.4-0.2-0.7-0.2c-0.4,0-0.6,0.1-0.8,0.2c-0.1,0.1-0.2,0.2-0.2,0.3c0,0.1,0,0.2,0.1,0.2c0.1,0.1,0.6,0.2,1.3,0.4
		c0.7,0.2,1.2,0.4,1.5,0.6s0.4,0.6,0.4,1c0,0.5-0.2,0.9-0.6,1.2c-0.4,0.3-1,0.5-1.8,0.5c-0.7,0-1.3-0.1-1.7-0.4
		C579.8,443.8,579.5,443.4,579.4,442.9z"/>
	<path class="st10" d="M584.9,442.9l1.4-0.2c0.1,0.3,0.2,0.5,0.4,0.6s0.4,0.2,0.8,0.2c0.4,0,0.6-0.1,0.8-0.2
		c0.1-0.1,0.2-0.2,0.2-0.4c0-0.1,0-0.2-0.1-0.3c-0.1-0.1-0.2-0.1-0.5-0.2c-1.1-0.2-1.8-0.5-2.1-0.7c-0.4-0.3-0.6-0.7-0.6-1.2
		c0-0.4,0.2-0.8,0.5-1.1c0.4-0.3,0.9-0.5,1.7-0.5c0.7,0,1.2,0.1,1.6,0.3c0.3,0.2,0.6,0.6,0.7,1l-1.3,0.2c-0.1-0.2-0.2-0.4-0.3-0.5
		c-0.2-0.1-0.4-0.2-0.7-0.2c-0.4,0-0.6,0.1-0.8,0.2c-0.1,0.1-0.2,0.2-0.2,0.3c0,0.1,0,0.2,0.1,0.2c0.1,0.1,0.6,0.2,1.3,0.4
		c0.7,0.2,1.2,0.4,1.5,0.6s0.4,0.6,0.4,1c0,0.5-0.2,0.9-0.6,1.2c-0.4,0.3-1,0.5-1.8,0.5c-0.7,0-1.3-0.1-1.7-0.4
		C585.3,443.8,585.1,443.4,584.9,442.9z"/>
	<path class="st10" d="M593.8,444.4v-7.2h3c0.8,0,1.3,0.1,1.7,0.2c0.3,0.1,0.6,0.4,0.8,0.7c0.2,0.3,0.3,0.7,0.3,1.1
		c0,0.5-0.2,1-0.5,1.3s-0.8,0.6-1.4,0.7c0.3,0.2,0.6,0.4,0.8,0.6s0.5,0.6,0.8,1.2l0.9,1.4h-1.7l-1-1.6c-0.4-0.6-0.6-0.9-0.8-1.1
		c-0.1-0.1-0.3-0.2-0.4-0.3c-0.2-0.1-0.4-0.1-0.7-0.1h-0.3v3L593.8,444.4L593.8,444.4z M595.2,440.3h1.1c0.7,0,1.1,0,1.3-0.1
		s0.3-0.2,0.4-0.3c0.1-0.1,0.1-0.3,0.1-0.5s-0.1-0.4-0.2-0.6c-0.1-0.1-0.3-0.2-0.5-0.3c-0.1,0-0.5,0-1.1,0h-1.1V440.3z"/>
	<path class="st10" d="M600.7,441.7c0-0.5,0.1-0.9,0.3-1.3s0.5-0.8,1-1c0.4-0.2,0.9-0.3,1.4-0.3c0.8,0,1.4,0.3,1.9,0.8
		s0.8,1.2,0.8,1.9c0,0.8-0.3,1.4-0.8,2c-0.5,0.5-1.1,0.8-1.9,0.8c-0.5,0-0.9-0.1-1.4-0.3c-0.4-0.2-0.8-0.5-1-0.9
		C600.8,443,600.7,442.3,600.7,441.7z M602.1,441.8c0,0.5,0.1,0.9,0.4,1.2s0.5,0.4,0.9,0.4s0.7-0.1,0.9-0.4s0.4-0.7,0.4-1.2
		s-0.1-0.9-0.4-1.2c-0.2-0.3-0.5-0.4-0.9-0.4s-0.7,0.1-0.9,0.4C602.3,440.9,602.1,441.3,602.1,441.8z"/>
	<path class="st10" d="M606.8,441.7c0-0.5,0.1-0.9,0.3-1.3s0.5-0.8,1-1c0.4-0.2,0.9-0.3,1.4-0.3c0.8,0,1.4,0.3,1.9,0.8
		s0.8,1.2,0.8,1.9c0,0.8-0.3,1.4-0.8,2c-0.5,0.5-1.1,0.8-1.9,0.8c-0.5,0-0.9-0.1-1.4-0.3c-0.4-0.2-0.8-0.5-1-0.9
		C606.9,443,606.8,442.3,606.8,441.7z M608.2,441.8c0,0.5,0.1,0.9,0.4,1.2s0.5,0.4,0.9,0.4s0.7-0.1,0.9-0.4s0.4-0.7,0.4-1.2
		s-0.1-0.9-0.4-1.2c-0.2-0.3-0.5-0.4-0.9-0.4s-0.7,0.1-0.9,0.4C608.4,440.9,608.2,441.3,608.2,441.8z"/>
	<path class="st10" d="M613.1,439.2h1.3v0.7c0.5-0.5,1-0.8,1.6-0.8c0.3,0,0.6,0.1,0.9,0.2s0.4,0.3,0.6,0.6c0.2-0.3,0.5-0.5,0.7-0.6
		s0.5-0.2,0.8-0.2c0.4,0,0.7,0.1,1,0.2c0.3,0.2,0.5,0.4,0.6,0.7c0.1,0.2,0.1,0.6,0.1,1.1v3.3h-1.4v-3c0-0.5,0-0.8-0.1-1
		s-0.3-0.3-0.6-0.3c-0.2,0-0.4,0.1-0.5,0.2c-0.2,0.1-0.3,0.3-0.4,0.5c-0.1,0.2-0.1,0.6-0.1,1.1v2.5h-1.4v-2.8c0-0.5,0-0.8-0.1-1
		s-0.1-0.3-0.2-0.3c-0.1-0.1-0.2-0.1-0.4-0.1s-0.4,0.1-0.6,0.2c-0.2,0.1-0.3,0.3-0.4,0.5c-0.1,0.2-0.1,0.6-0.1,1.1v2.5H613
		L613.1,439.2L613.1,439.2L613.1,439.2z"/>
</g>
</svg>
