<svg xmlns="http://www.w3.org/2000/svg" xmlns:xlink="http://www.w3.org/1999/xlink" width="105.506" height="109.885" viewBox="0 0 105.506 109.885">
  <defs>
    <clipPath id="clip-path">
      <path id="Background04Mask" d="M105.508,0H1.35S-.058,62.687,0,66.4a45.779,45.779,0,0,0,15.921,33.658c15.71,13.137,40.721,10.854,59.2,6.013,10.349-2.71,21.841-7.377,27.474-17.12,2.52-4.359,3.775-9.6,2.228-14.516C102.859,68.18,105.508,0,105.508,0Z" transform="translate(-0.002 0)" fill="none"/>
    </clipPath>
    <clipPath id="clip-path-2">
      <rect width="64.78" height="114.611" fill="none"/>
    </clipPath>
    <clipPath id="clip-path-3">
      <rect width="23.632" height="32.745" fill="none"/>
    </clipPath>
    <clipPath id="clip-path-4">
      <rect width="50.475" height="63.439" fill="none"/>
    </clipPath>
    <clipPath id="clip-path-5">
      <rect width="57.195" height="22.506" fill="none"/>
    </clipPath>
    <clipPath id="clip-path-6">
      <rect width="16.266" height="6.401" fill="none"/>
    </clipPath>
    <clipPath id="clip-path-7">
      <rect width="58.615" height="44.775" fill="none"/>
    </clipPath>
    <clipPath id="clip-path-8">
      <rect width="22.968" height="23.676" fill="none"/>
    </clipPath>
  </defs>
  <g id="Group_4577" data-name="Group 4577" transform="translate(-131.514 -242)">
    <g id="Background04_Copy" data-name="Background04 Copy" transform="translate(131.5 242)">
      <path id="Background04Mask-2" data-name="Background04Mask" d="M105.508,0H1.35S-.058,62.687,0,66.4a45.779,45.779,0,0,0,15.921,33.658c15.71,13.137,40.721,10.854,59.2,6.013,10.349-2.71,21.841-7.377,27.474-17.12,2.52-4.359,3.775-9.6,2.228-14.516C102.859,68.18,105.508,0,105.508,0Z" transform="translate(0.011 0)" fill="none"/>
      <g id="Background04_Copy-2" data-name="Background04 Copy" transform="translate(0.014 0)" clip-path="url(#clip-path)">
        <path id="Background04" d="M77.748,25.123c-5.223,1.9-10.406,4.11-15.98,4.758-11.577,1.347-15.952-8.221-20.516-17.1C36.855,4.223,28.346-1.9,18.27.543,9.543,2.661,3.626,10.416,1.352,18.765c-4.328,15.886,2.06,34.208,14.575,44.672,15.71,13.137,40.721,10.854,59.2,6.013,10.349-2.71,21.841-7.377,27.474-17.12,2.52-4.359,3.775-9.6,2.228-14.516-1.971-6.26-10.9-18.59-27.084-12.693" transform="translate(-0.004 36.625)" fill="#e6e6e6"/>
        <g id="Character__Full_Character_Female_8" data-name="Character/_Full Character/Female 8" transform="translate(30.728 25.311)" clip-path="url(#clip-path-2)">
          <g id="Character_Head_Female_Bun" data-name="Character/Head/Female/Bun" transform="translate(7.393)" clip-path="url(#clip-path-3)">
            <path id="Face" d="M5.591,24.458C3.105,24.292,2.825,23.6,2.1,22.494s-.042-3.905-.042-3.905c3.2,0,2.685-3.592,2.193-5.475a7.515,7.515,0,0,1-1.866-2.876c-.543.515-1.642-.179-2.035-.685A1.682,1.682,0,0,1,.014,8.316a1.061,1.061,0,0,1,.392-.735,1.083,1.083,0,0,1,.778-.151,1.761,1.761,0,0,1,.516.155C1.105,5.663.488,1.375,6.217.146c5.271-1.132,6.436,4.7,6.436,4.7a7.293,7.293,0,0,1,.165.781c.027.272.04.546.069.818a7.464,7.464,0,0,0,.318,1.6,5.029,5.029,0,0,0,.685,1.336c.216.3.721.789.594,1.21-.076.253-.4.322-.665.3-.562-.05-.849-.022-1,.576a11.549,11.549,0,0,1-.209,1.282,4.31,4.31,0,0,1-.784,1.385,3.359,3.359,0,0,1-3,1.009,9.341,9.341,0,0,1-1.219-.218c-1.26,4.5,2.337,3.229,3.374,4.557.116,1.081.3,3-.571,3.978-.687.772-1.75,1.048-3.393,1.048C6.589,24.512,6.112,24.493,5.591,24.458Z" transform="translate(8.231 2.56)" fill="#d0d0d0"/>
            <path id="Hair" d="M19.221,5.589a5.579,5.579,0,0,0-2.786.453,3.563,3.563,0,0,0-1.8,2.486c-.051.407-.113.865-.188,1.336-.275,1.728-.933,4.029-1.68,4.179a4.061,4.061,0,0,0-1.32-2.743,4.361,4.361,0,0,0-1.52-1.154,1.759,1.759,0,0,0-.516-.155,1.084,1.084,0,0,0-.778.151,1.062,1.062,0,0,0-.392.735,1.682,1.682,0,0,0,.334,1.236c.393.506,1.491,1.2,2.035.686a7.513,7.513,0,0,0,1.866,2.876c.492,1.883,1.011,5.475-2.193,5.475q-.684,2.8.042,3.905c.726,1.109,1.007,1.8,3.492,1.964a8.835,8.835,0,0,0,3.87-.317,2.633,2.633,0,0,0,.957-.677c.87-.977.687-2.9.571-3.978-1.037-1.327-4.635-.052-3.374-4.557a9.351,9.351,0,0,0,1.219.218,3.406,3.406,0,0,0,2.859-.866c-.024.227,1.749,3.723,3.708,4.307-1.607.545-2.074.241-3.453-.842.642,1.347,2.935,2.466,1.609,5.718a2.153,2.153,0,0,0-2.469-1.841A2.686,2.686,0,0,1,17.692,26.7a3.5,3.5,0,0,0-.167.526c-.357,1.24.224,4.281.591,5.519-2.505-2.352-4.628-2-6.369-6.093a12.391,12.391,0,0,1-4.9,4.983c.591-.356.728-1.059.227-2.508s-1.2,0-2.714,0A7.415,7.415,0,0,0,5,26.024c-.946.458-2.037.741-4.209,0,2.172-.97,3.981-2.4,4.209-3.978-1.037.65-3.938,1.33-5,.726.813-.137,2.33-1.847,2.965-2.466C4.36,18.947,4.5,17.489,4.056,14.042c-.412-3.218-.848-5.23.946-8.454A11.733,11.733,0,0,1,9.92.894,7.6,7.6,0,0,1,13.473,0c3.663,0,6.124,3.006,7.151,6.522C20.318,5.672,19.891,5.672,19.221,5.589Z" fill="#051c2c"/>
            <rect id="Rectangle_Copy" data-name="Rectangle Copy" width="3.982" height="5.403" rx="1.991" transform="translate(8.231 8.549)" fill="#1f40e6"/>
            <rect id="Rectangle" width="3.413" height="4.835" rx="1.706" transform="translate(8.8 9.118)" fill="#00a9f4"/>
            <path id="Path_12" data-name="Path 12" d="M.886,5.669C1.173,2.6,6.163-1.552,10.322,2.555,9.418-1.031.886-1.552,0,5.669Z" transform="translate(9.902 2.88)" fill="#d8d8d8"/>
          </g>
          <g id="Character_Legs_Standing_Pants" data-name="Character/Legs/Standing/Pants" transform="translate(0 51.173)" clip-path="url(#clip-path-4)">
            <path id="Skirt_Bottom" data-name="Skirt Bottom" d="M0,3.868s4.709,7.173,11.224,5.92c8.861-1.7,12.032.9,18.368.9,6.049,0,13.282-8.316,13.282-8.316S26.083,0,18.609,0,0,3.868,0,3.868Z" transform="translate(3.218 35.405)" fill="#051c2c"/>
            <path id="Skin" d="M29.672,34.127C26.7,26.849,23.1,19.342,20.228,13.637,19.02,19,17.87,24.437,17.407,27.586c-.242,1.648-1.721,5.177-2.218,7.852-5.084,7.3-6.272,8.232-11.851,16.9a3.854,3.854,0,0,1-1.669-.457A3.85,3.85,0,0,0,0,51.423c.019-.315,4.84-10.067,8.584-18.718.229-5.035-.309-8.337,0-12.205C8.9,16.551,10.355,6.07,10.355,0H26.942L37.7,34.127,35.1,57.02a10.038,10.038,0,0,1-3.2.428S30.65,47.8,29.672,34.127Z" transform="translate(3.427 0.018)" fill="#d0d0d0"/>
            <path id="Skirt" d="M9.811.026C5.657,7.974,3.92,14.689,3.92,20.218s-.728,6.037-2.171,9.655S0,39.281,0,39.281s1.99-.718,11.313,1,10.722-2.495,16.734-2.495H42.873S38.767,32.041,37.357,26.2,34.248,17.863,32.179,11.4,28.048.026,28.048.026,15.885-.015,9.811.026Z" transform="translate(3.218 -0.008)" fill="#1f40e6"/>
            <path id="Path_3" data-name="Path 3" d="M9.292,25.132S7.528,17.685,4.877,15,.167,3.618.727,0c-1.372,2.105-.764,9.488,1.5,13.335,1.122,1.906,2.428,3.031,3.365,4.522A14.988,14.988,0,0,1,8.107,25.6C8.727,25.358,9.292,25.132,9.292,25.132Z" transform="translate(17.042 13.669)" fill="rgba(0,0,0,0.2)"/>
            <g id="Shoe_Copy" data-name="Shoe Copy" transform="matrix(0.891, 0.454, -0.454, 0.891, 2.906, 50.297)" clip-path="url(#clip-path-5)">
              <path id="Skin-2" data-name="Skin" d="M16.438,4.1A146.632,146.632,0,0,0,31.09,8.863C38.965,11,42.46,13.281,52.709,14.843c4.543,1.1,5.206,5.665,2.461,6.67s-9.4.99-14.888.99H1.08Q-.582,21,.314,15.94C.387,15.9,1.3,8.828,2.624,5.666l.445-1.939L3.451,1.5,14.887,0Z" transform="translate(0.396)" fill="#e6e6e6"/>
              <path id="Sandal" d="M53.106,12.837c4.543,1.1,5.206,5.665,2.461,6.67s-9.4.99-14.888.99H1.08Q-.053,19.476,0,16.8H14C11.181,11.073,6.266,7.326,2.123,4.977,2.3,4.394,3.02,0,3.02,0,13.132,7.25,19.159,13,19.694,16.8c3.278-.028,6.386-.028,11.752,0,2.22-3.959,2.22-7.058,2.5-9.591C33.948,7.206,44.528,11.53,53.106,12.837Z" transform="translate(0 2.009)" fill="#4d4d4d"/>
            </g>
            <g id="Shoe" transform="translate(34.209 57.038)" clip-path="url(#clip-path-6)">
              <path id="Skin-3" data-name="Skin" d="M4.675,1.166A41.7,41.7,0,0,0,8.842,2.521c2.24.606,3.233,1.256,6.148,1.7,1.292.312,1.481,1.611.7,1.9a17.554,17.554,0,0,1-4.234.282H.307Q-.166,5.973.089,4.533A18.739,18.739,0,0,1,.746,1.611L.873,1.06.981.427,4.234,0Z" transform="translate(0.113)" fill="#e6e6e6"/>
              <path id="Sandal-2" data-name="Sandal" d="M15.1,3.651c1.292.312,1.481,1.611.7,1.9a17.554,17.554,0,0,1-4.234.282H.307A1.341,1.341,0,0,1,0,4.777H3.98A8.14,8.14,0,0,0,.6,1.416C.653,1.25.859,0,.859,0,3.735,2.062,5.449,3.7,5.6,4.777c.932-.008,1.816-.008,3.342,0a6.1,6.1,0,0,0,.711-2.727A29.141,29.141,0,0,0,15.1,3.651Z" transform="translate(0 0.571)" fill="#4d4d4d"/>
            </g>
          </g>
          <g id="Character_Body_Standing_2_Shirts_Long_Sleeve" data-name="Character/Body/Standing/2 Shirts Long Sleeve" transform="translate(6.165 21.054)" clip-path="url(#clip-path-7)">
            <path id="Arms" d="M1.057,44.4C.449,44.336-.156,42.8.036,40c.109-1.334.846-3.566,1.021-4.921a86.038,86.038,0,0,0,1.029-9.995,33.752,33.752,0,0,1,1.326-9.062l2.862-.857S4.055,34.567,3.792,35.71a7.638,7.638,0,0,0,.582,5.219c-.6.16-1.087-.3-1.466-.756-.649-.785-.994-1.569-1.118.756-.018,1.378.424,3.476-.717,3.476ZM31.825,7.71q.506-1.685.956-3.379a48.23,48.23,0,0,0,17.268-.963c2.24-1.527,3.122-3.792,3.5-3.3.356.616-.809,2.477-.809,2.477a1.06,1.06,0,0,0,.212.335A32.7,32.7,0,0,0,57.335,1.7c1.755-.413,1.325.68.917,1.126C56.5,4.153,54.608,4.682,51.233,5.784A45.476,45.476,0,0,1,37.12,8,49.112,49.112,0,0,1,31.825,7.71Z" transform="translate(0 0.371)" fill="#d0d0d0"/>
            <path id="Combined_Shape" data-name="Combined Shape" d="M4.324,36.8A8.729,8.729,0,0,1,0,35.007L3.5,5.882s.539-2.95,2.238-4.133A19.544,19.544,0,0,1,8.64.786,5.782,5.782,0,0,1,9.385.495c.271-.088.547-.164.822-.241A5.854,5.854,0,0,1,11.445,0c.852,2.074,1.8,4.37,4.34,4.37s2.747-2.3,2.881-2.926A7.239,7.239,0,0,0,18.8.136s1.844.5,2.353.673a7.081,7.081,0,0,1,1.653.8,2.9,2.9,0,0,1,.257.219c1.536.7,9.8,3.967,25.222,1.74v8.493s-9.379-1.475-15.164-3.064c-2.433-.668-5.507-.852-8.342-1.434-.034.934-.122,1.862-.164,2.663,0,0,.016,1.071.02,1.548q.012,1.616-.02,2.64c.721,12.424,1.181,14.83,1.047,17.39a36.076,36.076,0,0,1-15.982.874l.631,4.125a20.266,20.266,0,0,1-3.109.23A17.016,17.016,0,0,1,4.324,36.8Z" transform="translate(0.036)" fill="#00a9f4"/>
            <path id="Combined_Shape-2" data-name="Combined Shape" d="M8.674,0a19.709,19.709,0,0,0-2.94.971C4.036,2.154,3.5,5.1,3.5,5.1L0,34.229A8.729,8.729,0,0,0,4.324,36.02a19.961,19.961,0,0,0,5.989,0L7.835,19.837,7.11,9.83Z" transform="translate(0.036 0.778)" fill="rgba(0,0,0,0.2)"/>
          </g>
        </g>
        <rect id="Rectangle-2" data-name="Rectangle" width="125.702" height="38.677" transform="translate(-9.673 85.034)" fill="#7f7f7f"/>
        <g id="Objects_Laptop" data-name="Objects/Laptop" transform="translate(94.415 92.712) rotate(180)">
          <rect id="Objects_Laptop_background" data-name="Objects/Laptop background" width="22.751" height="15.357" transform="translate(22.751 15.357) rotate(-180)" fill="rgba(0,0,0,0)"/>
          <g id="Laptop" transform="translate(0.957 0.663)">
            <path id="Fill_57" data-name="Fill 57" d="M5.055,0,15.4.354,11.277,13.761,0,13.934.789,11.8Z" transform="translate(15.403 14.017) rotate(-180)" fill="#051c2c"/>
            <path id="Fill_59" data-name="Fill 59" d="M.187.41,17.252,0l-.61,1.982L0,2.238Z" transform="translate(20.768 2.238) rotate(-180)" fill="#1f40e6"/>
            <path id="Oval" d="M.807,0C.363,0,0,.566,0,1.263S.358,2.525.8,2.524s.806-.566.807-1.263S1.252,0,.807,0Z" transform="translate(7.497 8.967) rotate(-166)" fill="#fff"/>
          </g>
        </g>
        <g id="Objects_Microphone" data-name="Objects/Microphone" transform="translate(14.785 74.959)" clip-path="url(#clip-path-8)">
          <path id="Fill_1" data-name="Fill 1" d="M0,3.413H12.724V0H0Z" transform="translate(0 20.263)" fill="#051c2c"/>
        </g>
      </g>
    </g>
    <path id="Path_19733" data-name="Path 19733" d="M17.093,9.4l3.7-3.7L17.093,2V4.219H14.135V7.177h2.958Zm1.479,3.328a8.436,8.436,0,0,1-2.64-.422.742.742,0,0,0-.751.181l-1.627,1.631a11.157,11.157,0,0,1-4.874-4.87l1.627-1.631a.742.742,0,0,0,.181-.751,8.477,8.477,0,0,1-.422-2.644.737.737,0,0,0-.74-.74H6.74a.737.737,0,0,0-.74.74A12.571,12.571,0,0,0,18.572,16.791a.737.737,0,0,0,.74-.74V13.463A.737.737,0,0,0,18.572,12.723Z" transform="translate(204 270.209)"/>
  </g>
</svg>
