<svg xmlns="http://www.w3.org/2000/svg" xmlns:xlink="http://www.w3.org/1999/xlink" width="115.157" height="127.823" viewBox="0 0 115.157 127.823">
  <defs>
    <clipPath id="clip-path">
      <path id="Mask" d="M67.64,119.531c-27.916,0-67.046-7.993-67.579-40.544C-.036,73.035.058,0,.058,0H114.653s1.393,79.776-.376,89.643C111.662,104.224,96.189,119.531,67.64,119.531Z" transform="translate(-0.017 0)" fill="none"/>
    </clipPath>
    <clipPath id="clip-path-2">
      <rect width="79.043" height="138.089" fill="none"/>
    </clipPath>
    <clipPath id="clip-path-3">
      <rect width="25.153" height="37.737" fill="none"/>
    </clipPath>
    <clipPath id="clip-path-4">
      <rect width="79.043" height="69.41" fill="none"/>
    </clipPath>
    <clipPath id="clip-path-5">
      <rect width="57.422" height="22.503" fill="none"/>
    </clipPath>
    <clipPath id="clip-path-7">
      <rect width="45.335" height="73.875" fill="none"/>
    </clipPath>
  </defs>
  <g id="Group_4575" data-name="Group 4575" transform="translate(-124.66 -119.208)">
    <g id="Group" transform="translate(124.5 127.5)">
      <g id="Background02" transform="translate(0.16 0)">
        <path id="Mask-2" data-name="Mask" d="M67.64,119.531c-27.916,0-67.046-7.993-67.579-40.544C-.036,73.035.058,0,.058,0H114.653s1.393,79.776-.376,89.643C111.662,104.224,96.189,119.531,67.64,119.531Z" transform="translate(-0.017 0)" fill="none"/>
        <g id="Background02-2" data-name="Background02" transform="translate(0)" clip-path="url(#clip-path)">
          <path id="Background02Mask" d="M114.218,32.705C111.6,47.3,96.131,62.618,67.582,62.618,39.666,62.618.536,54.619,0,22.04-.228,7.9,12-8.752,32.6,5.353c2.86,1.958,5.483,4.213,8.255,6.294a30.1,30.1,0,0,0,25.483,4.73,25.313,25.313,0,0,0,8.791-4.168A32.9,32.9,0,0,1,95.244,5.414c16.577,0,20.744,17.416,18.974,27.291" transform="translate(0.041 57.015)" fill="#d0d0d0"/>
          <g id="Character__Full_Character_Male_1" data-name="Character/_Full Character/Male 1" transform="translate(17.583 26.751)" clip-path="url(#clip-path-2)">
            <g id="Character_Head_Female_Bun" data-name="Character/Head/Female/Bun" transform="translate(23.642 4.75)" clip-path="url(#clip-path-3)">
              <path id="Face" d="M6.071,26.56c-2.7-.18-3-.928-3.792-2.133s-.046-4.241-.046-4.241c3.479,0,2.915-3.9,2.381-5.945a8.161,8.161,0,0,1-2.026-3.124C2,11.677.8,10.923.378,10.373A1.827,1.827,0,0,1,.015,9.031a1.153,1.153,0,0,1,.425-.8,1.177,1.177,0,0,1,.845-.164,1.912,1.912,0,0,1,.56.169C1.2,6.15.53,1.493,6.752.158c5.724-1.229,6.99,5.107,6.99,5.107a7.92,7.92,0,0,1,.179.848c.03.3.044.593.075.889a8.105,8.105,0,0,0,.345,1.741,5.461,5.461,0,0,0,.744,1.451c.235.326.782.857.645,1.314-.083.275-.437.349-.723.324-.61-.054-.922-.024-1.083.625A12.542,12.542,0,0,1,13.7,13.85a4.68,4.68,0,0,1-.851,1.5,3.648,3.648,0,0,1-3.253,1.1,10.144,10.144,0,0,1-1.324-.237C6.9,21.1,10.807,19.72,11.933,21.161c.126,1.174.324,3.258-.62,4.319-.746.839-1.9,1.138-3.685,1.138C7.155,26.619,6.637,26.6,6.071,26.56Z" transform="translate(8.339 11.118)" fill="#d0d0d0"/>
              <path id="Hair" d="M12.971,0c9.37,0,12.121,7.526,12.182,10.282a5.584,5.584,0,0,1-3.432,4.9c-1.1-2.135-1.489-2.358-2.811-2.635a3.977,3.977,0,0,0-3.431.534c-.5.575-.183,1.058-1.29,1.986s-2.112.59-1.744,2.707c.325,4.477,3.109,6.651,4.491,6.651,2.079,0,4.6-1.3,5.516-1.3a3.746,3.746,0,0,0-.332,1.016s-2.482.733-2.482,1.522a.566.566,0,0,0,.742.51,3.1,3.1,0,0,0,1.341-.51c-.759,1.28-1.341,1.937-3.028,1.937-2.479,0-4.124-1.124-5.327-3.732a15.563,15.563,0,0,0-3.155-4.509c-1.079-.408-1.873,0-1.873,1.052a2.072,2.072,0,0,0,2.593,1.825,8.34,8.34,0,0,0,2.039,3.13,8.14,8.14,0,0,1,.306,1.525C5.96,26.891,0,19.8,0,13.539S3.6,0,12.971,0Z" transform="translate(0 0)" fill="#051c2c"/>
            </g>
            <g id="Character_Legs_Standing_Pants" data-name="Character/Legs/Standing/Pants" transform="translate(0 68.679)" clip-path="url(#clip-path-4)">
              <g id="Shoe" transform="translate(60.2 62.638) rotate(-13)" clip-path="url(#clip-path-5)">
                <path id="Skin" d="M0,3.727.383,1.5,11.819,0,14.61,7.378.383,5.842Z" transform="translate(3.814)" fill="#d0d0d0"/>
                <path id="shoe-2" data-name="shoe" d="M4.485.029A2,2,0,0,0,2.374,1.692L.338,13.789a3.558,3.558,0,0,0-.329.184c-.124,2.393,1.44,5.859,1.44,5.859H57.191s1.524-7.211-3.213-7.79l-17.56-4.2A72,72,0,0,1,23.129,3.243L18.217.987Z" transform="translate(-0.002 2.671)" fill="#f0f0f0"/>
              </g>
              <g id="Shoe_Copy" data-name="Shoe Copy" transform="matrix(0.309, 0.951, -0.951, 0.309, 6.61, 41.426)" clip-path="url(#clip-path-5)">
                <path id="Skin-2" data-name="Skin" d="M0,3.727.383,1.5,11.819,0,14.61,7.378.383,5.842Z" transform="translate(3.814)" fill="#d0d0d0"/>
                <path id="shoe-3" data-name="shoe" d="M4.485.029A2,2,0,0,0,2.374,1.692L.338,13.789a3.558,3.558,0,0,0-.329.184c-.124,2.393,1.44,5.859,1.44,5.859H57.191s1.524-7.211-3.213-7.79l-17.56-4.2A72,72,0,0,1,23.129,3.243L18.217.987Z" transform="translate(-0.002 2.671)" fill="#f0f0f0"/>
              </g>
              <path id="Pants" d="M42.08,37.835c-2.305-5.643-4.585-11.512-6.565-16.732-.241,3.168-.385,6.027-.385,8.081,0,1.821-1.42,6.464-1.959,9.368A239.045,239.045,0,0,1,2.711,49.047C1.851,47.206.329,44.535,0,42.541,4.424,39.825,14.032,35.585,21.534,32.2c.249-5.468.275-5.733.611-9.934C22.487,17.974,23.172,4.935,24.067,0H42.08L53.768,35.516l7.16,26.112c-1.218.228-5.43,1.363-7.16,1.375C53.768,63,48.828,53.782,42.08,37.835ZM60.928,61.628c.4-.075.477-.052.038.139Z" transform="translate(5.913)" fill="#051c2c"/>
            </g>
            <g id="Character_Body_Standing_2_Shirts_Long_Sleeve" data-name="Character/Body/Standing/2 Shirts Long Sleeve" transform="translate(15.937)" clip-path="url(#clip-path-7)">
              <path id="Arms" d="M35.854,11.169Q30.8,7.087,31.6,6.551a1.186,1.186,0,0,1,1.251.076c.328.154.633.308.905.184.6-.272.471-2.18.275-3.985s.611-1.307,1.015-.885a27.533,27.533,0,0,1,2.944,6.8,115.838,115.838,0,0,1,7.341,15.668c-.713.727.48,4.3-1.858,5.8C42.461,24.432,35.854,11.169,35.854,11.169ZM0,23.722A172.265,172.265,0,0,1,9.584,7.062,27.364,27.364,0,0,1,12.743.374c.417-.406,1.239-.874.986.923s-.441,3.7.147,3.994c.267.134.576-.007.907-.148a1.188,1.188,0,0,1,1.256-.031q.782.565-4.394,4.456S4.618,22.577,3.418,28.315C1.129,26.732.689,24.477,0,23.722Z" transform="translate(0 0)" fill="#f0f0f0"/>
              <path id="Coat" d="M.007,38.923s-.016-1.543,0-2.009a3.334,3.334,0,0,1,.521.1c.8-22.619,2.317-33.5,3.076-33.68a6.3,6.3,0,0,1,.808-.316c.295-.1.594-.178.892-.262A6.35,6.35,0,0,1,6.65,2.48,3.59,3.59,0,0,1,7.286,0,8.553,8.553,0,0,0,13.9,0a5.031,5.031,0,0,1,.735,2.628,16.6,16.6,0,0,1,2.8.927,13.872,13.872,0,0,0,3.52,1.393c.912.635-.5,7.619.025,11.288q0,1.107-.025,1.893c.783,13.492,1.282,16.1,1.136,18.885h.483V39.5C13.667,41.079,5,40.4.007,38.923Z" transform="translate(11.59 33.472)" fill="#1f40e6"/>
              <g id="Group-2" data-name="Group" transform="translate(11.5 35.952)">
                <path id="Path_17" data-name="Path 17" d="M1.833,0A10.567,10.567,0,0,0,9.82.147C11,.485,12.035.782,12.035.782S5.832,4.933,0,.426A11.851,11.851,0,0,1,1.833,0Z" transform="translate(4.907)" fill="rgba(0,0,0,0.2)"/>
                <path id="Fill_1" data-name="Fill 1" d="M0,1.055.055,2.109c3.652.273,8.869.84,12.209.585,4.971-.38,9.4-1.386,10.356-1.327-.012-.1-.049-.508-.072-1.367A52.2,52.2,0,0,1,6.022,1.8C2.96,1.341,0,1.055,0,1.055Z" transform="translate(0.144 33.353) rotate(3)" fill="rgba(0,0,0,0.2)"/>
              </g>
            </g>
          </g>
        </g>
      </g>
      <path id="Path_19737" data-name="Path 19737" d="M57.738,5.271l-.732,4.911h1.53Z" transform="translate(0 -2)" fill="#1f40e6"/>
      <circle id="Ellipse_998" data-name="Ellipse 998" cx="1" cy="1" r="1" transform="translate(56.5 8.5)" fill="#1f40e6"/>
    </g>
    <g id="Filled_Icons" data-name="Filled Icons" transform="translate(170.497 134.994)">
      <path id="Path_19734" data-name="Path 19734" d="M22,13H2A1.5,1.5,0,0,0,.5,14.5v1A1.5,1.5,0,0,0,2,17H22a1.5,1.5,0,0,0,1.5-1.5v-1A1.5,1.5,0,0,0,22,13Z" fill="#1f40e6"/>
      <path id="Path_19735" data-name="Path 19735" d="M23,12v-.994a7.009,7.009,0,0,0-7-7H8a7.008,7.008,0,0,0-7,7V12ZM17,7.006a.5.5,0,1,1-.5.5A.5.5,0,0,1,17,7.006Zm-2.5-1a.5.5,0,1,1-.5.5A.5.5,0,0,1,14.5,6.006Zm-2.5,1a.5.5,0,1,1-.5.5A.5.5,0,0,1,12,7.006Zm-2.5-1a.5.5,0,1,1-.5.5A.5.5,0,0,1,9.5,6.006Zm-2.5,1a.5.5,0,1,1-.5.5A.5.5,0,0,1,7,7.006Z" fill="#00a9f4"/>
      <path id="Path_19736" data-name="Path 19736" d="M1,18v.506A2.5,2.5,0,0,0,3.5,21h17A2.5,2.5,0,0,0,23,18.506V18Z" fill="#00a9f4"/>
    </g>
    <path id="Path_9" data-name="Path 9" d="M0,17.75l2.555,1.059,11-16.557L7.47,0Z" transform="matrix(0.883, 0.469, -0.469, 0.883, 207.563, 128.03)" fill="#e6e6e6"/>
    <path id="Path_9-2" data-name="Path 9" d="M0,15.14l2.19.9L11.617,1.92,6.4,0Z" transform="matrix(0.985, 0.174, -0.174, 0.985, 197.194, 119.208)" fill="#e6e6e6"/>
    <path id="Path_9-3" data-name="Path 9" d="M11.617,15.14l-2.19.9L0,1.92,5.214,0Z" transform="matrix(0.985, -0.174, 0.174, 0.985, 154.5, 121.282)" fill="#e6e6e6"/>
  </g>
</svg>
