<svg id="Layer_1" data-name="Layer 1" xmlns="http://www.w3.org/2000/svg" xmlns:xlink="http://www.w3.org/1999/xlink" viewBox="0 0 128.318 80.161"><defs><style>.cls-1{fill:none;}.cls-2{clip-path:url(#clip-path);}.cls-3{fill:#d0d0d0;}.cls-4{fill:#051c2c;}.cls-5{fill:#7f7f7f;}.cls-6{fill:#3e3e3e;}.cls-7{fill:#ef88a8;}.cls-8{fill:#bf6d87;}.cls-9{fill:#ce3363;}.cls-10{clip-path:url(#clip-path-2);}.cls-11{fill:#ce1a51;}.cls-12{fill:#e6e6e6;}</style><clipPath id="clip-path"><path class="cls-1" d="M65.957,80.161c-27.228,0-65.394-7.8-65.914-39.545-.095-5.8,0-77.041,0-77.041H111.812s1.359,77.811-.367,87.435C108.894,65.231,93.8,80.161,65.957,80.161Z"/></clipPath><clipPath id="clip-path-2"><rect class="cls-1" x="19.792" y="12.619" width="26.878" height="26.661" transform="translate(-8.616 31.098) rotate(-45)"/></clipPath></defs><title>No Catering</title><g id="No_Catering" data-name="No Catering"><g id="Group_4951" data-name="Group 4951"><g id="Background02"><path id="Mask-2" class="cls-1" d="M65.956,80.161c-27.228,0-65.394-7.8-65.914-39.545-.095-5.8,0-77.041,0-77.041H111.811s1.359,77.811-.367,87.435C108.893,65.231,93.8,80.161,65.956,80.161Z"/><g class="cls-2"><g id="Background02-2"><path id="Background02Mask" class="cls-3" d="M111.44,51.085C108.89,65.319,93.8,80.261,65.953,80.261,38.729,80.26.562,72.458.04,40.685-.182,26.9,11.748,10.649,31.84,24.406c2.79,1.91,5.348,4.109,8.052,6.138a29.356,29.356,0,0,0,24.855,4.614,24.682,24.682,0,0,0,8.574-4.065A32.092,32.092,0,0,1,92.94,24.466c16.169,0,20.233,16.987,18.507,26.619"/><path id="Rectangle" class="cls-4" d="M-11.6,50.329H120.637V88.886H-11.6Z"/></g></g></g><g id="Group_4949" data-name="Group 4949"><g id="Objects_Mug" data-name="Objects Mug"><g id="Group_4" data-name="Group 4"><ellipse id="Inside" class="cls-5" cx="94.799" cy="30.039" rx="10.057" ry="1.402"/><path id="Straw" class="cls-6" d="M89.049,18.706a1.168,1.168,0,0,0-.88,1.385L91.022,33.8a1.143,1.143,0,0,0,1.341.9l.015,0a1.168,1.168,0,0,0,.88-1.385L90.405,19.605a1.143,1.143,0,0,0-1.341-.9Z"/><path id="Cup" class="cls-7" d="M101.691,57.584a3.712,3.712,0,0,0,3.165-3.705V30.041a43.131,43.131,0,0,1-10.057,1.4,43.131,43.131,0,0,1-10.057-1.4v5.606H82a3.236,3.236,0,0,0-3.2,3.271v9.347A3.236,3.236,0,0,0,82,51.541h2.747v2.338a3.711,3.711,0,0,0,3.165,3.7l6.892.962ZM82.456,48.732a.924.924,0,0,1-.915-.933V39.385a.925.925,0,0,1,.915-.935h2.286V48.732Z"/><path id="Path" class="cls-8" d="M84.742,48.732H82.456a.925.925,0,0,1-.914-.935V39.386a.925.925,0,0,1,.911-.939h2.289v-2.8H82a3.236,3.236,0,0,0-3.2,3.271v9.347A3.236,3.236,0,0,0,82,51.536h2.743Z"/><path id="Rectangle-2" class="cls-8" d="M104.856,30.039s-2.857.71-4.29.937c-.367,7.484-.718,21.546-5.767,27.563l6.892-.957a3.712,3.712,0,0,0,3.165-3.7Z"/></g></g><g id="Group_4949-2" data-name="Group 4949-2"><path id="Path_19796" data-name="Path 19796" class="cls-4" d="M25.835,40.247v14.6H77.6v-15.2L64.866,24.5,38.56,23.753,27.335,35.668Z"/><g id="Filled_Icons" data-name="Filled Icons"><path id="Path_19734" data-name="Path 19734" class="cls-9" d="M75.318,42.669H28.169a3.544,3.544,0,0,0-3.539,3.536v2.357A3.537,3.537,0,0,0,28.167,52.1H75.318a3.539,3.539,0,0,0,3.536-3.536V46.205A3.545,3.545,0,0,0,75.318,42.669Z"/><path id="Path_19735" data-name="Path 19735" class="cls-7" d="M77.675,40.311V37.968a16.524,16.524,0,0,0-16.5-16.5H42.309a16.522,16.522,0,0,0-16.5,16.5v2.343ZM63.531,28.538a1.179,1.179,0,1,1-1.179,1.179A1.179,1.179,0,0,1,63.531,28.538Zm-5.894-2.357a1.179,1.179,0,1,1-1.179,1.179h0A1.183,1.183,0,0,1,57.637,26.181Zm-5.894,2.357a1.179,1.179,0,1,1-1.179,1.179,1.179,1.179,0,0,1,1.179-1.179ZM45.85,26.181a1.179,1.179,0,1,1-1.179,1.179A1.179,1.179,0,0,1,45.85,26.181Zm-5.894,2.357a1.179,1.179,0,1,1-1.179,1.179h0a1.182,1.182,0,0,1,1.18-1.179Z"/><path id="Path_19736" data-name="Path 19736" class="cls-7" d="M25.809,54.456v1.193a5.886,5.886,0,0,0,5.9,5.879H71.782a5.887,5.887,0,0,0,5.894-5.879V54.456Z"/></g></g><g class="cls-10"><g id="Objects_Plus" data-name="Objects Plus"><g id="Plus"><path id="Combined_Shape" data-name="Combined Shape" class="cls-11" d="M22.39,34.114A1.286,1.286,0,0,1,22.4,32.3h0l6.329-6.328L22.448,19.69a1.285,1.285,0,0,1,.007-1.817h0l2.7-2.7a1.284,1.284,0,0,1,1.817-.007h0l6.277,6.277,6.328-6.328a1.284,1.284,0,0,1,1.817-.008h0l2.678,2.678a1.285,1.285,0,0,1-.012,1.814l-6.328,6.328,6.277,6.277A1.284,1.284,0,0,1,44,34.022h0l-2.7,2.7a1.286,1.286,0,0,1-1.818.009h0L33.21,30.453l-6.328,6.328a1.284,1.284,0,0,1-1.817.007h0Z"/></g></g></g></g><g id="Objects_Happy" data-name="Objects Happy"><path id="Path_9" data-name="Path 9" class="cls-12" d="M110.064,23.081,111.649,25l15.72-8.512-3.882-4.354Z"/></g><g id="Objects_Happy_Copy_3" data-name="Objects Happy Copy 3"><path id="Path_9-2" data-name="Path 9-2" class="cls-12" d="M82.482,14.509l-1.8,1.142L70.119,4.613,74.44,2.1Z"/></g></g></g></svg>