<svg id="Layer_1" data-name="Layer 1" xmlns="http://www.w3.org/2000/svg" viewBox="0 0 97.8 85.2"><defs><style>.cls-1,.cls-2{fill:#dcebfd;}.cls-2,.cls-3{stroke:#3b86ff;stroke-miterlimit:10;stroke-width:4px;}.cls-3{fill:none;}</style></defs><title>Booking Issue Icon</title><g id="Artboard_1" data-name="Artboard 1"><g id="Group_2039" data-name="Group 2039"><path id="Path_18265" data-name="Path 18265" class="cls-1" d="M28.4,40.1H70.5v9.4h-5v8.9H81.3L95,84.7H3.1L14.2,58.4H28.4l4.1-8.9-7.7-3.8Z"/><g id="Group_1993" data-name="Group 1993"><ellipse id="Ellipse_470" data-name="Ellipse 470" class="cls-2" cx="49.2" cy="10.8" rx="7.1" ry="8.8"/><ellipse id="Ellipse_471" data-name="Ellipse 471" class="cls-3" cx="13.2" cy="26.4" rx="7.1" ry="8.8"/><ellipse id="Ellipse_472" data-name="Ellipse 472" class="cls-3" cx="83.3" cy="26.4" rx="7.1" ry="8.8"/><path id="Path_18258" data-name="Path 18258" class="cls-2" d="M33.3,39.4V29.6s14.3-13.3,27.3,0v9.8Z"/><path id="Path_18259" data-name="Path 18259" class="cls-3" d="M11.5,50.4l7.8,7.8H30.4l1.9-5.5a2.3,2.3,0,0,0-1.4-3.1l-.8-.2H23.6l-7.8-7.8H6S-1.8,60.2,6,73.5L17.1,55.9"/><path id="Path_18260" data-name="Path 18260" class="cls-3" d="M85,50.4l-7.8,7.8H66.1l-1.9-5.5a2.3,2.3,0,0,1,1.4-3.1l.9-.2H73l7.8-7.8h9.7s7.8,18.6,0,31.9l-11-17.6"/><path id="Path_18261" data-name="Path 18261" class="cls-3" d="M23.6,49.4l4.2-10H68.4l4.6,10"/><path id="Path_18262" data-name="Path 18262" class="cls-3" d="M6,73.5,2.8,83.2H94.7l-4.2-9.7"/></g></g></g></svg>